<svg xmlns="http://www.w3.org/2000/svg" xml:space="preserve" viewBox="0 0 113.39 113.39"><path d="M0 0h113.39v113.39H0z" style="fill:#ca031a"/><path d="M57.31 66.22c0-5.55-2.41-7.51-5.49-7.51-3.32 0-5.55 2.86-5.55 7.42 0 4.95 2.32 7.51 6.45 7.51 1.75 0 2.77-.27 3.74-.69.33-.15.51-.45.39-.81l-.33-.96c-.12-.33-.36-.57-.81-.42-.87.24-1.69.51-2.83.51-2.71 0-3.62-1.57-3.74-4.37h7.51c.35-.02.66-.32.66-.68m-8.17-1.42c.3-3.13 1.66-3.89 2.77-3.89 1.87 0 2.53 1.96 2.59 3.89zm-5.08 1.57c-.66-1.42-1.81-2.83-3.47-3.14.03 0 .15-.03.24-.03 3.07-.42 4.4-2.68 4.4-4.97 0-1.96-1.09-5.03-6.09-5.03h-5.22c-.36 0-.69.3-.69.66v18.96c0 .36.33.66.69.66h1.45c.36 0 .66-.3.66-.66v-8.47h1.42c2.05 0 2.98 1.27 3.68 2.56.84 1.57 1.42 3.74 2.2 6.09.12.39.39.48.72.48h1.99c.54 0 .63-.33.45-.81-1.04-2.93-2.07-5.55-2.43-6.3m-5.31-4.41h-2.71V55.7h3.04c2.17 0 3.29 1.3 3.29 2.92 0 2.08-1.38 3.34-3.62 3.34m3.08 27.67c2.44-.72 3.47-2.23 3.47-4.49 0-2.98-2.02-5.03-5.52-5.03h-5.85c-.36 0-.69.3-.69.66v18.96c0 .36.33.66.69.66h6.15c3.8 0 6.09-2.08 6.09-5.7 0-2.62-1.45-4.73-4.34-5.06m-5.79-7.11h3.2c2.14 0 3.2 1.09 3.2 3.01 0 1.87-1.15 3.04-3.41 3.04h-2.98v-6.05zm3.8 15.4h-3.8v-7.08h3.23c2.44 0 3.89 1.51 3.89 3.56-.01 2.2-1.24 3.52-3.32 3.52m17.98.94c-.18-.9-.15-1.72-.15-2.47v-5.25c0-2.44-.39-5.52-5.19-5.52-1.3 0-2.77.33-3.65.57-.36.09-.51.39-.42.78l.24 1.11c.09.39.39.6.79.48.81-.21 1.72-.51 2.89-.51 2.14 0 2.62.81 2.62 2.56v.72l-3.31.21c-2.44.18-4.52 1.45-4.52 4.67 0 2.71 1.48 4.31 3.89 4.31 1.66 0 3.23-.6 4.16-2.08l.21 1.33c.06.42.33.6.69.6h1.39c.39 0 .6-.27.54-.66zm-2.86-3.29c0 1.12-1.23 2.77-3.16 2.77-1.12 0-1.9-.66-1.9-2.11 0-2.26 1.33-2.8 3.17-2.86l1.9-.06v2.26zm27.01 4.04c.21.33.06.78-.36.78h-2.14c-.33 0-.6-.21-.81-.57l-4.37-7.3v7.21c0 .36-.3.66-.66.66h-1.36c-.36 0-.66-.3-.66-.66V79.65c0-.39.3-.66.66-.66h1.36c.36 0 .66.27.66.66v12.24l3.65-5.58c.18-.3.45-.51.88-.51h1.93c.42 0 .57.42.33.75l-4.04 5.52zm-.41-40.9c-3.62 0-5.88 2.83-5.88 7.48 0 4.67 2.26 7.45 5.88 7.45 3.65 0 5.85-2.83 5.85-7.45-.01-4.62-2.24-7.48-5.85-7.48m-.06 12.63c-1.87 0-3.01-1.51-3.01-5.15 0-3.59 1.15-5.15 3.01-5.15 1.9 0 3.05 1.57 3.05 5.15-.01 3.64-1.15 5.15-3.05 5.15m-7.18-11.79v13.26c0 .36-.33.66-.66.66H72.3c-.36 0-.69-.3-.69-.66V59.55c0-.36.33-.66.69-.66h1.36c.32 0 .66.3.66.66m.48-5.75c0 1.06-.82 1.9-1.84 1.9-1.05 0-1.87-.84-1.87-1.9 0-1.02.81-1.87 1.87-1.87 1.02 0 1.84.84 1.84 1.87m-4.92 35.59v10.34c0 .36-.3.66-.66.66h-1.39c-.36 0-.69-.3-.69-.66v-9.74c0-1.39-.48-2.02-1.72-2.02-1.84 0-3.25 1.54-3.25 3.56v8.2c0 .36-.3.66-.66.66h-1.39c-.36 0-.69-.3-.69-.66v-13.3c0-.36.33-.63.69-.63h.9c.42 0 .63.15.72.54l.3 1.36c1.27-1.48 2.53-2.08 4.13-2.08 2.26 0 3.71 1.51 3.71 3.77m-3.99-18.47h-2.5c-1.08 0-1.57-.18-1.57-.81 0-.33.24-.66.54-.93.45.12.96.18 1.48.18 3.35 0 5.49-2.02 5.49-5.34 0-1.03-.45-2.02-1.08-2.89l.99-.13c.36-.03.6-.24.6-.63v-.78c0-.39-.24-.69-.66-.69h-3.47c-.63 0-1.24-.15-1.87-.15-3.23 0-5.43 1.9-5.43 5.28 0 1.99.84 3.49 2.17 4.37-.72.66-1.33 1.45-1.33 2.5 0 1.75 1.54 2.35 3.32 2.35h2.92c1.63 0 2.26.66 2.26 1.9 0 1.33-1.45 2.14-3.29 2.14-1.42 0-2.99-.27-3.23-1.87-.06-.39-.3-.6-.66-.63l-1.51-.06c-.36 0-.66.27-.66.66.03 3.26 3.07 4.22 5.97 4.22 2.77 0 6-1.27 6-4.76.01-2.51-1.73-3.93-4.48-3.93m-2.02-10.13c1.48 0 2.68.51 2.68 3.16 0 2.71-1.3 3.29-2.68 3.29-1.45 0-2.65-.48-2.65-3.29 0-2.68 1.21-3.16 2.65-3.16M20.71 41.8c0-1.83 1.23-3.53 2.99-4-.08-.32-.13-.69-.13-1.11 0-2.18 1.85-4.07 4.18-4.07.9 0 1.64.22 2.17.53.59-1.51 2.33-2.69 4.08-2.69.9 0 1.63.23 2.17.56.86-1.24 2.34-3.94 3.2-5.1.77-1.03 1.53-1.4 3.49-1.68s4.27-.62 7.67-.9c1.07-.09 1.92.26 2.48.96.26.32 3 3.51 3.17 3.73.57-1.55 5.51-16.55 5.61-16.79.09-.24.31-.38.55-.37.23.01.43.17.49.41.12.41 4.68 16.16 4.68 16.16s5.63-.91 6.76-.95c.98-.04 1.16.43 1.43 1.32.37 1.24 1.98 7.38 1.98 7.38.05.15.1.18.2.15 1.21-.38 5.65-1.58 5.98-1.65.69-.15 1.23-.01 1.74.47.95.89 3.75 3.73 4.68 4.7.18.19.25.42.25.63 0 .42-.35.76-.84.76-.24 0-.49-.12-.69-.31-.63-.61-4.16-3.76-4.44-4.01-.17-.16-.36-.2-.63-.14-.26.06-6.85 1.87-7.06 1.92-.48.12-.65-.1-.71-.31-.15-.51-1.82-6.58-2.4-8.38-.06-.19-.1-.27-.29-.27-1.52.04-6.42.95-7.22 1-.13.01-.36-.02-.46-.34l-3.53-12.67-5.52 15.89s-4.76-6.21-5.14-6.61c-.36-.37-.62-.46-1.06-.42-3.75.32-5.95.68-7.88 1.09-.79.17-1.21.32-1.6.86-.75 1.04-3.07 5.16-3.92 6.48-.05.08-.12.09-.18.09-.07 0-.13-.05-.15-.07-.41-.45-1.95-1.47-3.5-1.05-1.52.41-2.04 1.81-2.04 2.69 0 .32-.17.45-.33.45-.09 0-.18-.03-.27-.15-.24-.33-.95-1.16-2.27-1.16-1.49 0-2.63 1.23-2.63 2.57 0 1.28.57 1.53.57 1.83 0 .31-.21.36-.47.36-1.21 0-2.57.97-2.57 2.62 0 .78-.67 1.29-1.26 1.29-.89-.01-1.33-.72-1.33-1.7m73.38 5.73c-.04.22-.28.45-.5.51-.3.08-.63-.02-.8-.11-3.18-1.55-10.93-5.34-30.11-5.34-20.68 0-38.04 7.7-43.38 10.46-.22.11-.43.15-.63.15-.51 0-.94-.31-1.16-.73-.29-.55-.23-1.34.57-1.77h.01c9.69-4.98 26.76-10.01 44.39-10.01 19.81 0 29.95 5.34 31.24 5.98.37.17.43.54.37.86" style="fill:#fff"/></svg>