<svg height="360" viewBox="0 0 640 360" width="640" xmlns="http://www.w3.org/2000/svg"><g fill="none" fill-rule="nonzero" transform="translate(140 79.5)"><rect fill="#ffb3c7" height="200" rx="4.321" width="360"/><path d="m291.04 49.9704c-4.71 0-8.528 3.85264-8.528 8.6056 0 4.752 3.818 8.6056 8.528 8.6056 4.70992 0 8.5288-3.85336 8.5288-8.6056 0-4.75328-3.81872-8.6056-8.5288-8.6056zm-28.0584-6.65328c0-6.50704-5.51176-11.7808-12.3112-11.7808s-12.312 5.274-12.312 11.7808c0 6.50712 5.51184 11.7824 12.312 11.7824s12.3112-5.27528 12.3112-11.7824zm.045718-22.8976h13.5872v45.7936h-13.5872v-2.92672c-3.83856 2.6416-8.472 4.19448-13.4696 4.19448-13.2248 0-23.9464-10.8184-23.9464-24.164s10.7216-24.1632 23.9464-24.1632c4.9976 0 9.6312 1.5528 13.4696 4.1952v-2.92952zm-108.736 5.96496v-5.96432h-13.9112v45.7928h13.9424v-21.38c0-7.21336 7.74792-11.0904 13.124-11.0904.055055 0 .106448.0053417.161504.0060216v-13.3248c-5.51784 0-10.5928 2.384-13.3168 5.9616zm-34.6528 16.9328c0-6.50704-5.5124-11.7808-12.312-11.7808-6.79928 0-12.3119996 5.274-12.3119996 11.7808 0 6.50712 5.5123996 11.7824 12.3119996 11.7824 6.79984 0 12.312-5.27528 12.312-11.7824zm.044949-22.8976h13.588v45.7936h-13.588v-2.92672c-3.83856 2.6416-8.472 4.19448-13.4688 4.19448-13.2255998 0-23.9471998-10.8184-23.9471998-24.164s10.7216-24.1632 23.9471998-24.1632c4.99712 0 9.6304 1.5528 13.4688 4.1952v-2.92952zm81.784-1.23168c-5.42768 0-10.5648 1.7004-13.9992 6.3916v-5.1572h-13.5288v45.7912h13.6952v-24.0648c0-6.96368 4.62776-10.3736 10.2-10.3736 5.97168 0 9.4048 3.59968 9.4048 10.2792v24.1592h13.5712v-29.1208c0-10.6568-8.3968-17.904-19.3432-17.904zm-138.9919998 47.0256h14.2216v-66.2008h-14.2216zm-62.4728.0180648h15.0592v-66.2312h-15.0592zm52.672-66.23136c0 14.33856-5.53752 27.67696-15.4048 37.59136l20.816 28.6424h-18.6l-22.6224-31.128 5.83848-4.41216c9.6824-7.31872 15.236-18.5056 15.236-30.6936h14.7368z" fill="#0a0b09" transform="translate(35.309 67.2)"/></g></svg>