<svg height="32" viewBox="0 0 51 32" width="51" xmlns="http://www.w3.org/2000/svg"><g fill="none" fill-rule="evenodd"><path d="m.5.5h50v31h-50z" fill="#fff" stroke="#d0d0d0"/><g fill-rule="nonzero" transform="translate(10 7.067)"><rect fill="#ffb3c7" height="17.778" rx="4.321" width="32"/><path d="m25.8702222 4.44181333c-.4186666 0-.7580444.34245689-.7580444.76494223 0 .4224.3393778.76494222.7580444.76494222.4186596 0 .7581156-.34252089.7581156-.76494222 0-.42251378-.3394418-.76494223-.7581156-.76494223zm-2.49408-.59140266c0-.57840356-.4899342-1.04718223-1.0943289-1.04718223-.6043946 0-1.0944.4688-1.0944 1.04718223 0 .57841066.4899414 1.04732444 1.0944 1.04732444.6044587 0 1.0943289-.46891378 1.0943289-1.04732444zm.0040639-2.03534223h1.2077511v4.07054223h-1.2077511v-.26015289c-.3412054.23480889-.7530667.37284266-1.1972978.37284266-1.1755378 0-2.1285689-.96163555-2.1285689-2.14791111 0-1.18627555.9530311-2.14784 2.1285689-2.14784.4442311 0 .8561067.13802667 1.1972978.37290667v-.26040178zm-9.6654222.53021867v-.53016178h-1.2365512v4.07047111h1.2393245v-1.90044444c0-.64118756.688704-.98581333 1.1665778-.98581333.0048937 0 .009462.00047481.0143559.00053525v-1.18442667c-.4904747 0-.9415822.21191111-1.1837156.52992zm-3.0802489 1.50513778c0-.57840356-.4899911-1.04718222-1.09440003-1.04718222-.60438045 0-1.0944.4688-1.0944 1.04718222 0 .57841067.48999111 1.04732444 1.0944 1.04732444.60443023 0 1.09440003-.46891377 1.09440003-1.04732444zm.0039954-2.03534222h1.2078222v4.07054222h-1.2078222v-.26015289c-.3412053.23480889-.75306665.37284267-1.19722665.37284267-1.17560889 0-2.12864-.96163556-2.12864-2.14791111 0-1.18627556.95303111-2.14784 2.12864-2.14784.44418845 0 .85603555.13802666 1.19722665.37290666v-.26040178zm7.2696889-.10948267c-.4824604 0-.9390933.15114667-1.2443733.56814222v-.45841778h-1.20256v4.07032889h1.2173511v-2.13909333c0-.61899378.4113564-.92209778.9066667-.92209778.530816 0 .8359822.31997156.8359822.91370667v2.14748444h1.2063289v-2.58851555c0-.94727111-.7463823-1.59146667-1.7193956-1.59146667zm-12.35484444 4.18005333h1.26414222v-5.88451555h-1.26414222zm-5.55313778.00160576h1.33859556v-5.88721777h-1.33859556zm4.68195556-5.887232c0 1.27453867-.492224 2.46017423-1.36931556 3.34145423l1.85031112 2.54599111h-1.65333334l-2.01088-2.76693334.518976-.392192c.86065778-.65055289 1.35431111-1.64494222 1.35431111-2.72832h1.30993778z" fill="#0a0b09" transform="translate(3.139 5.973)"/></g></g></svg>