<svg xmlns="http://www.w3.org/2000/svg" xmlns:xlink="http://www.w3.org/1999/xlink" width="640" height="360" viewBox="0 0 640 360"><defs><path id="a" d="M.678 45.616c0 24.429 19.804 44.23 44.23 44.23 24.427 0 44.23-19.801 44.23-44.23 0-24.426-19.803-44.228-44.23-44.228S.678 21.19.678 45.616"/><path id="c" d="M.678 44.466c0 24.429 19.804 44.23 44.23 44.23 24.427 0 44.23-19.801 44.23-44.23C89.139 20.04 69.336.238 44.909.238S.678 20.04.678 44.466"/><path id="e" d="M.678 45.616c0 24.429 19.804 44.23 44.23 44.23 24.427 0 44.23-19.801 44.23-44.23 0-24.426-19.803-44.228-44.23-44.228S.678 21.19.678 45.616"/><path id="g" d="M.678 44.466c0 24.429 19.804 44.23 44.23 44.23 24.427 0 44.23-19.801 44.23-44.23C89.139 20.04 69.336.238 44.909.238S.678 20.04.678 44.466"/></defs><g fill="none" fill-rule="evenodd"><path fill="#000" fill-rule="nonzero" d="M205.43 196.41q2.862 0 5.885-.927 3.02-.928 5.09-2.306.742-.424.742-1.273a1.48 1.48 0 0 0-.372-1.007q-.477-.636-1.219-.636-.477 0-.901.265-4.188 2.757-9.225 2.757-4.243 0-7.714-1.989-3.473-1.987-5.487-5.62-2.016-3.63-2.015-8.35 0-4.612 1.988-8.244 1.989-3.63 5.46-5.646 3.474-2.015 7.768-2.015 5.036 0 9.278 2.81.424.265.848.265.742 0 1.22-.583.37-.583.37-1.06 0-.848-.795-1.326-2.28-1.537-5.116-2.385a20.2 20.2 0 0 0-5.805-.849q-5.143 0-9.384 2.466-4.242 2.465-6.733 6.839-2.493 4.374-2.492 9.728 0 5.567 2.518 9.915t6.786 6.76q4.269 2.411 9.305 2.412m29.577 0q3.765 0 6.84-1.829t4.824-5.063 1.75-7.21-1.75-7.21q-1.75-3.234-4.825-5.09t-6.839-1.855-6.84 1.855-4.824 5.09-1.75 7.21 1.75 7.21 4.825 5.063 6.839 1.83m0-2.968q-2.863 0-5.196-1.458t-3.684-4.003q-1.352-2.546-1.352-5.673 0-3.181 1.352-5.726t3.684-4.003 5.196-1.458q2.864 0 5.222 1.458 2.36 1.459 3.685 4.003t1.325 5.726q0 3.181-1.325 5.726-1.326 2.544-3.685 3.976t-5.222 1.432m40.976 2.438q.636 0 1.113-.45a1.5 1.5 0 0 0 .477-1.14v-15.587q0-4.772-2.306-7.661-2.306-2.89-7.237-2.89-2.81 0-5.487 1.512-2.677 1.51-4.109 3.79v-2.916q0-.69-.45-1.14t-1.14-.45-1.14.45q-.45.45-.45 1.14v23.752q0 .69.45 1.14t1.14.45 1.14-.45q.45-.45.45-1.14v-15.428q0-2.067 1.273-3.844t3.313-2.836a9.24 9.24 0 0 1 4.321-1.06q3.606 0 5.328 2.147t1.723 5.593v15.428q0 .69.451 1.14.45.45 1.14.45m18.072 0q1.167 0 2.015-.503.848-.504.848-1.246 0-.53-.344-.928-.345-.398-.822-.398-.265 0-.742.133a3 3 0 0 1-.796.133q-1.218-.001-1.961-.716-.742-.715-.742-2.73v-17.761h5.301q.637 0 1.06-.398.425-.398.425-1.034 0-.583-.45-1.06-.452-.477-1.035-.477h-5.301v-5.885q0-.69-.451-1.14-.45-.45-1.14-.45t-1.14.45q-.45.45-.45 1.14v5.885h-3.87q-.637 0-1.087.424t-.451 1.06.45 1.06 1.087.425h3.87v17.92q0 2.915 1.034 4.24t2.148 1.591 2.544.265m21.095.53a10.76 10.76 0 0 0 5.779-1.643q2.65-1.644 3.976-4.03v3.553q0 .69.45 1.14.451.45 1.14.45.69 0 1.14-.45t.451-1.14v-23.858q0-.69-.45-1.166a1.5 1.5 0 0 0-1.14-.477q-.69 0-1.14.477t-.45 1.166v3.287q-1.327-2.49-3.977-4.029-2.65-1.537-5.832-1.537-3.446 0-6.283 1.802-2.836 1.803-4.48 5.01-1.643 3.208-1.643 7.237t1.617 7.263 4.453 5.09 6.389 1.856m.318-2.968q-2.81 0-5.01-1.458t-3.42-4.03q-1.22-2.57-1.219-5.752 0-3.18 1.246-5.7 1.246-2.517 3.446-3.949t4.957-1.432q2.757 0 4.957 1.458 2.2 1.459 3.446 4.003t1.246 5.62q0 3.18-1.246 5.752t-3.446 4.03q-2.2 1.458-4.957 1.458m32.705 2.969q2.704 0 4.93-.743 2.228-.742 3.5-1.776t1.272-1.935q0-.636-.37-1.034-.372-.397-1.008-.397-.37 0-.69.185-.317.186-.742.557-.9.743-1.272.954-1.113.584-2.253.902t-3.049.318q-3.022 0-5.38-1.458-2.36-1.458-3.686-4.003-1.325-2.545-1.325-5.726 0-3.075 1.378-5.62 1.38-2.545 3.791-4.029 2.412-1.485 5.328-1.485 1.485 0 2.784.24 1.299.237 2.094.609.636.318 1.325 1.007.425.424.77.636.343.213.874.212.584 0 .98-.477.399-.477.398-1.06 0-1.113-1.299-2.068-1.298-.954-3.446-1.51-2.146-.558-4.639-.557-3.975 0-7.05 1.908a13.16 13.16 0 0 0-4.772 5.116q-1.697 3.208-1.697 7.078 0 4.029 1.67 7.263t4.692 5.063q3.022 1.83 6.892 1.83m23.958-.53q1.166 0 2.014-.504.849-.504.849-1.246 0-.53-.345-.928t-.822-.398q-.264 0-.742.133a3 3 0 0 1-.795.133q-1.22-.001-1.962-.716t-.742-2.73v-17.761h5.302q.636 0 1.06-.398t.424-1.034q0-.583-.45-1.06-.452-.477-1.034-.477h-5.302v-5.885q0-.69-.45-1.14-.451-.45-1.14-.45-.69 0-1.14.45t-.451 1.14v5.885h-3.87q-.637 0-1.087.424t-.45 1.06.45 1.06q.45.425 1.087.425h3.87v17.92q0 2.915 1.034 4.24t2.147 1.591 2.545.265m27.662 0q.69 0 1.14-.451.45-.45.45-1.14v-16.011h15.27q.689 0 1.14-.424t.45-1.114-.45-1.113q-.452-.424-1.14-.424h-15.27v-13.307h17.655q.69 0 1.14-.451.45-.45.45-1.087 0-.69-.45-1.14t-1.14-.45H399.74q-.69 0-1.14.45t-.45 1.14v33.93q0 .69.45 1.14.45.451 1.193.451m37.9.53q3.765 0 6.84-1.83 3.075-1.829 4.825-5.063t1.75-7.21-1.75-7.21-4.825-5.09-6.84-1.855q-3.763 0-6.838 1.855-3.075 1.856-4.825 5.09t-1.75 7.21 1.75 7.21 4.825 5.063 6.839 1.83m0-2.97q-2.862 0-5.195-1.457-2.332-1.458-3.684-4.003t-1.352-5.673q0-3.181 1.352-5.726 1.351-2.544 3.684-4.003 2.332-1.458 5.196-1.458t5.222 1.458q2.36 1.459 3.685 4.003t1.325 5.726q0 3.181-1.325 5.726-1.326 2.544-3.685 3.976t-5.222 1.432m21.838 2.44q.69 0 1.14-.451.45-.45.45-1.14v-13.095q0-2.439 1.246-4.825t3.181-3.897q1.936-1.51 3.897-1.51.69 0 1.458.265.768.264 1.034.265.582 0 1.007-.451.424-.45.424-1.193 0-.848-.848-1.272-.849-.424-1.909-.424-3.34.053-5.805 2.04-2.466 1.989-3.685 5.01v-4.665q0-.69-.45-1.14t-1.14-.45-1.14.45q-.45.45-.45 1.14v23.752q0 .69.45 1.14t1.14.45m57.57 0q.69 0 1.14-.451.45-.45.45-1.14v-15.004q0-4.824-2.253-7.767-2.253-2.942-7.025-2.942-3.021 0-5.99 1.75t-4.083 4.082q-.954-2.864-3.18-4.348-2.228-1.485-5.303-1.484-2.703 0-5.142 1.431t-3.87 3.605v-3.075q0-.69-.451-1.14-.45-.45-1.14-.45t-1.14.45q-.45.45-.45 1.14v23.752q0 .69.45 1.14t1.14.45 1.14-.45q.45-.45.45-1.14v-15.004q0-2.067 1.193-3.844a8.8 8.8 0 0 1 3.128-2.836 8.4 8.4 0 0 1 4.11-1.06q3.392 0 4.983 2.147t1.59 5.593v15.004q0 .69.451 1.14.45.45 1.14.45t1.14-.45q.45-.45.45-1.14v-14.845q0-2.12 1.22-3.95a8.7 8.7 0 0 1 3.207-2.889 8.8 8.8 0 0 1 4.215-1.06q3.5 0 5.17 2.2t1.67 5.7v14.844q0 .69.45 1.14t1.14.45m30.313.158q.478 0 .901-.291t.637-.769l14.58-33.984q.158-.477.158-.742 0-.636-.397-1.06-.398-.424-1.14-.424h-19.51q-.637-.001-1.087.424-.45.423-.45 1.06 0 .69.45 1.113.45.425 1.087.425h17.018L545.93 193.76q-.16.37-.16.795 0 .637.504 1.06t1.14.424"/><g transform="translate(76.683 134.769)"><mask id="b" fill="#fff"><use xlink:href="#a"/></mask><path fill="#3ad0f6" d="M89.138 45.617c0 24.428-19.803 44.23-44.23 44.23S.679 70.045.679 45.617s19.802-44.23 44.229-44.23 44.23 19.802 44.23 44.23" mask="url(#b)"/><g transform="translate(0 1.15)"><mask id="d" fill="#fff"><use xlink:href="#c"/></mask><path fill="#1d5992" d="M90.448 62.77c-20.339-9.138-41.266-34.828-43.035-36.007-1.768-1.18-4.127.295-4.127.295-1.472-2.36-3.831.294-3.831.294C28.549 45.921-.631 63.653-.631 63.653s14.015 25.771 46.407 25.771c32.928 0 44.672-26.655 44.672-26.655" mask="url(#d)"/></g><mask id="f" fill="#fff"><use xlink:href="#e"/></mask><path fill="#fffffe" d="M25.012 44.419s5.895-2.653 4.716 1.768c-1.18 4.422-5.895 10.906-4.421 11.2 1.474.295 5.6-3.83 6.78-3.241 1.177.589 2.061.294 1.472 2.357-.588 2.063-1.177 3.538 0 3.538 1.18 0 2.064-2.654 3.538-5.306s3.831-1.474 4.715-.59c.885.885 3.537 5.896 5.602 5.305 2.063-.589 3.241-3.241 2.357-9.136s.59-7.664.59-7.664 1.768-.884 5.011 3.242c3.242 4.126 9.138 10.317 10.02 10.022.885-.295-4.125-6.78-2.947-7.37 1.18-.589 5.896.885 8.254 2.95 0 0 .806 3.378.806.136L47.414 27.913l-4.128.295-3.831.293s-9.433 14.15-14.443 15.918" mask="url(#f)"/><g transform="translate(0 1.15)"><mask id="h" fill="#fff"><use xlink:href="#g"/></mask><path fill="#1a1919" fill-rule="nonzero" d="m41.806 24.718.292.019c.516.058.992.249 1.413.563l.108.088.29-.106c.729-.252 1.475-.38 2.222-.33l.374.04a4.05 4.05 0 0 1 1.664.637l2.652 2.897c3.95 4.265 11.444 12.234 16.443 16.901l.31.288c7.596 7.03 14.866 12.472 21.659 15.855q.596.297 1.185.572l.588.269-1.117 2.485a52 52 0 0 1-1.87-.887c-6.792-3.383-13.952-8.678-21.4-15.472l-.896-.823C58.58 41.104 46.6 28.006 46.647 27.892a1.3 1.3 0 0 0-.545-.205c-.442-.066-.986.035-1.54.258a4 4 0 0 0-.489.229l-1.22.761-.723-1.156c-.163-.262-.256-.326-.335-.335-.154-.017-.464.107-.818.369-.142.104-.265.21-.36.298l-.073.07-.34.57c-3.769 6.16-9.621 12.549-17.02 19.004l-.86.745c-4.867 4.182-10.076 8.134-15.284 11.736-1.302.9-2.538 1.733-3.693 2.492l-1.733 1.124-1.538.965-1.414-2.328 1.127-.705q.347-.22.74-.472l1.323-.861a188 188 0 0 0 3.638-2.456c5.135-3.551 10.27-7.447 15.058-11.561 7.606-6.536 13.585-12.984 17.326-19.094l.406-.678.157-.215c.199-.224.513-.524.922-.826.768-.567 1.579-.918 2.447-.903" mask="url(#h)"/></g></g><path fill="#1a1919" fill-rule="nonzero" d="M121.59 134C96.412 134 76 154.412 76 179.592s20.411 45.592 45.59 45.592 45.593-20.412 45.593-45.592S146.77 134 121.59 134m0 2.724c23.676 0 42.869 19.193 42.869 42.868s-19.193 42.868-42.868 42.868-42.867-19.192-42.867-42.868 19.192-42.868 42.867-42.868"/></g></svg>