<svg xmlns="http://www.w3.org/2000/svg" xmlns:xlink="http://www.w3.org/1999/xlink" width="640" height="360"><defs><path id="a" d="M.678 45.616c0 24.429 19.804 44.23 44.23 44.23 24.427 0 44.23-19.801 44.23-44.23 0-24.426-19.803-44.228-44.23-44.228C20.482 1.388.678 21.19.678 45.616"/><path id="c" d="M.678 44.466c0 24.429 19.804 44.23 44.23 44.23 24.427 0 44.23-19.801 44.23-44.23C89.139 20.04 69.336.238 44.909.238 20.482.238.678 20.04.678 44.466"/><path id="e" d="M.678 45.616c0 24.429 19.804 44.23 44.23 44.23 24.427 0 44.23-19.801 44.23-44.23 0-24.426-19.803-44.228-44.23-44.228C20.482 1.388.678 21.19.678 45.616"/><path id="g" d="M.678 44.466c0 24.429 19.804 44.23 44.23 44.23 24.427 0 44.23-19.801 44.23-44.23C89.139 20.04 69.336.238 44.909.238 20.482.238.678 20.04.678 44.466"/></defs><g fill="none" fill-rule="evenodd"><path fill="#000" fill-rule="nonzero" d="M205.43 196.41c1.908 0 3.87-.309 5.885-.927 2.014-.619 3.71-1.387 5.09-2.306.494-.283.742-.707.742-1.273a1.48 1.48 0 0 0-.372-1.007c-.318-.424-.724-.636-1.219-.636-.318 0-.618.088-.901.265-2.792 1.838-5.867 2.757-9.225 2.757-2.828 0-5.4-.663-7.714-1.989-2.315-1.325-4.144-3.198-5.487-5.62-1.344-2.42-2.015-5.204-2.015-8.35 0-3.075.663-5.823 1.988-8.244 1.326-2.42 3.146-4.303 5.46-5.646 2.316-1.343 4.905-2.015 7.768-2.015 3.358 0 6.45.937 9.278 2.81.283.177.565.265.848.265.495 0 .901-.194 1.22-.583.247-.389.37-.742.37-1.06 0-.566-.265-1.007-.795-1.326-1.52-1.025-3.225-1.82-5.116-2.385a20.154 20.154 0 0 0-5.805-.849c-3.429 0-6.557.822-9.384 2.466-2.828 1.643-5.072 3.923-6.733 6.839-1.662 2.916-2.492 6.159-2.492 9.728 0 3.712.84 7.016 2.518 9.915 1.679 2.898 3.941 5.151 6.786 6.76 2.846 1.607 5.947 2.412 9.305 2.412m29.577 0c2.51 0 4.79-.61 6.84-1.829 2.05-1.219 3.657-2.907 4.824-5.063 1.166-2.156 1.75-4.56 1.75-7.21 0-2.65-.584-5.054-1.75-7.21-1.167-2.156-2.775-3.853-4.825-5.09-2.05-1.237-4.33-1.855-6.839-1.855-2.51 0-4.79.618-6.84 1.855s-3.657 2.934-4.824 5.09c-1.166 2.156-1.75 4.56-1.75 7.21 0 2.65.584 5.054 1.75 7.21 1.167 2.156 2.775 3.844 4.825 5.063 2.05 1.22 4.33 1.83 6.839 1.83m0-2.968c-1.909 0-3.64-.486-5.196-1.458-1.555-.972-2.783-2.307-3.684-4.003-.902-1.697-1.352-3.588-1.352-5.673 0-2.12.45-4.03 1.352-5.726.901-1.696 2.13-3.03 3.684-4.003 1.556-.972 3.287-1.458 5.196-1.458 1.909 0 3.65.486 5.222 1.458 1.573.972 2.801 2.307 3.685 4.003.883 1.697 1.325 3.605 1.325 5.726 0 2.12-.442 4.03-1.325 5.726-.884 1.696-2.112 3.022-3.685 3.976-1.573.954-3.313 1.432-5.222 1.432m40.976 2.438c.424 0 .795-.15 1.113-.45a1.5 1.5 0 0 0 .477-1.14v-15.587c0-3.181-.768-5.735-2.306-7.661-1.537-1.926-3.95-2.89-7.237-2.89-1.873 0-3.702.504-5.487 1.512-1.785 1.007-3.154 2.27-4.109 3.79v-2.916c0-.46-.15-.84-.45-1.14-.3-.3-.68-.45-1.14-.45-.46 0-.84.15-1.14.45-.3.3-.45.68-.45 1.14v23.752c0 .46.15.84.45 1.14.3.3.68.45 1.14.45.46 0 .84-.15 1.14-.45.3-.3.45-.68.45-1.14v-15.428c0-1.378.424-2.66 1.273-3.844.848-1.184 1.952-2.13 3.313-2.836a9.244 9.244 0 0 1 4.321-1.06c2.404 0 4.18.715 5.328 2.147 1.149 1.431 1.723 3.296 1.723 5.593v15.428c0 .46.15.84.451 1.14.3.3.68.45 1.14.45m18.072 0c.778 0 1.45-.167 2.015-.503.566-.336.848-.751.848-1.246 0-.354-.115-.663-.344-.928-.23-.265-.504-.398-.822-.398-.177 0-.424.045-.742.133a3.083 3.083 0 0 1-.796.133c-.812 0-1.466-.24-1.961-.716-.495-.477-.742-1.387-.742-2.73v-17.761h5.301c.424 0 .778-.133 1.06-.398.283-.265.425-.61.425-1.034 0-.389-.15-.742-.45-1.06-.301-.318-.646-.477-1.035-.477h-5.301v-5.885c0-.46-.15-.84-.451-1.14-.3-.3-.68-.45-1.14-.45-.46 0-.84.15-1.14.45-.3.3-.45.68-.45 1.14v5.885h-3.87c-.425 0-.787.141-1.087.424-.3.283-.451.636-.451 1.06 0 .424.15.778.45 1.06.301.283.663.425 1.087.425h3.87v17.92c0 1.943.345 3.357 1.034 4.24.69.884 1.405 1.415 2.148 1.591.742.177 1.59.265 2.544.265m21.095.53a10.76 10.76 0 0 0 5.779-1.643c1.767-1.096 3.092-2.439 3.976-4.03v3.553c0 .46.15.84.45 1.14.301.3.681.45 1.14.45.46 0 .84-.15 1.14-.45.3-.3.451-.68.451-1.14v-23.858c0-.46-.15-.848-.45-1.166a1.5 1.5 0 0 0-1.14-.477c-.46 0-.84.159-1.14.477-.3.318-.45.707-.45 1.166v3.287c-.885-1.66-2.21-3.004-3.977-4.029s-3.711-1.537-5.832-1.537c-2.297 0-4.392.6-6.283 1.802-1.89 1.202-3.384 2.872-4.48 5.01-1.095 2.139-1.643 4.55-1.643 7.237 0 2.686.539 5.107 1.617 7.263 1.078 2.156 2.562 3.853 4.453 5.09 1.891 1.237 4.02 1.856 6.389 1.856m.318-2.968c-1.873 0-3.543-.486-5.01-1.458-1.467-.972-2.607-2.315-3.42-4.03-.813-1.714-1.219-3.631-1.219-5.752 0-2.12.415-4.02 1.246-5.7.83-1.678 1.98-2.995 3.446-3.949 1.467-.954 3.12-1.432 4.957-1.432 1.838 0 3.49.486 4.957 1.458 1.467.972 2.616 2.307 3.446 4.003.83 1.697 1.246 3.57 1.246 5.62 0 2.12-.415 4.038-1.246 5.752-.83 1.715-1.98 3.058-3.446 4.03-1.467.972-3.119 1.458-4.957 1.458m32.705 2.969c1.803 0 3.446-.248 4.93-.743 1.485-.494 2.652-1.087 3.5-1.776.848-.689 1.272-1.334 1.272-1.935 0-.424-.123-.769-.37-1.034-.248-.265-.584-.397-1.008-.397-.247 0-.477.062-.69.185-.211.124-.459.31-.742.557-.6.495-1.025.813-1.272.954-.742.389-1.493.69-2.253.902-.76.212-1.776.318-3.049.318-2.014 0-3.808-.486-5.38-1.458-1.574-.972-2.802-2.307-3.686-4.003-.883-1.697-1.325-3.605-1.325-5.726 0-2.05.46-3.923 1.378-5.62.92-1.696 2.183-3.04 3.791-4.029 1.608-.99 3.384-1.485 5.328-1.485.99 0 1.918.08 2.784.24.866.158 1.564.361 2.094.609.424.212.866.548 1.325 1.007.283.283.54.495.77.636.229.142.52.212.874.212.389 0 .716-.159.98-.477.266-.318.398-.671.398-1.06 0-.742-.433-1.432-1.299-2.068-.866-.636-2.014-1.14-3.446-1.51-1.431-.372-2.977-.557-4.639-.557-2.65 0-5 .636-7.05 1.908a13.157 13.157 0 0 0-4.772 5.116c-1.131 2.139-1.697 4.498-1.697 7.078 0 2.686.557 5.107 1.67 7.263 1.113 2.156 2.677 3.844 4.692 5.063 2.015 1.22 4.312 1.83 6.892 1.83m23.958-.53c.777 0 1.449-.168 2.014-.504.566-.336.849-.751.849-1.246 0-.354-.115-.663-.345-.928-.23-.265-.504-.398-.822-.398-.176 0-.424.045-.742.133a3.083 3.083 0 0 1-.795.133c-.813 0-1.467-.24-1.962-.716-.495-.477-.742-1.387-.742-2.73v-17.761h5.302c.424 0 .777-.133 1.06-.398.283-.265.424-.61.424-1.034 0-.389-.15-.742-.45-1.06-.301-.318-.646-.477-1.034-.477h-5.302v-5.885c0-.46-.15-.84-.45-1.14-.301-.3-.681-.45-1.14-.45-.46 0-.84.15-1.14.45-.3.3-.451.68-.451 1.14v5.885h-3.87c-.425 0-.787.141-1.087.424-.3.283-.45.636-.45 1.06 0 .424.15.778.45 1.06.3.283.662.425 1.087.425h3.87v17.92c0 1.943.344 3.357 1.034 4.24.689.884 1.405 1.415 2.147 1.591.742.177 1.59.265 2.545.265m27.662 0c.46 0 .84-.15 1.14-.451.3-.3.45-.68.45-1.14v-16.011h15.27c.459 0 .839-.142 1.14-.424.3-.283.45-.654.45-1.114 0-.46-.15-.83-.45-1.113-.301-.283-.681-.424-1.14-.424h-15.27v-13.307h17.655c.46 0 .84-.15 1.14-.451.3-.3.45-.663.45-1.087 0-.46-.15-.84-.45-1.14-.3-.3-.68-.45-1.14-.45H399.74c-.46 0-.84.15-1.14.45-.3.3-.45.68-.45 1.14v33.93c0 .46.15.84.45 1.14.3.301.698.451 1.193.451m37.9.53c2.51 0 4.79-.61 6.84-1.83 2.05-1.219 3.658-2.907 4.825-5.063 1.166-2.156 1.75-4.56 1.75-7.21 0-2.65-.584-5.054-1.75-7.21-1.167-2.156-2.775-3.853-4.825-5.09-2.05-1.237-4.33-1.855-6.84-1.855-2.509 0-4.788.618-6.838 1.855s-3.658 2.934-4.825 5.09c-1.166 2.156-1.75 4.56-1.75 7.21 0 2.65.584 5.054 1.75 7.21 1.167 2.156 2.775 3.844 4.825 5.063 2.05 1.22 4.33 1.83 6.839 1.83m0-2.97c-1.908 0-3.64-.485-5.195-1.457-1.555-.972-2.783-2.307-3.684-4.003-.902-1.697-1.352-3.588-1.352-5.673 0-2.12.45-4.03 1.352-5.726.9-1.696 2.13-3.03 3.684-4.003 1.555-.972 3.287-1.458 5.196-1.458 1.909 0 3.65.486 5.222 1.458 1.573.972 2.801 2.307 3.685 4.003.883 1.697 1.325 3.605 1.325 5.726 0 2.12-.442 4.03-1.325 5.726-.884 1.696-2.112 3.022-3.685 3.976-1.573.954-3.313 1.432-5.222 1.432m21.838 2.44c.46 0 .84-.15 1.14-.451.3-.3.45-.68.45-1.14v-13.095c0-1.626.415-3.234 1.246-4.825.83-1.59 1.891-2.89 3.181-3.897 1.29-1.007 2.59-1.51 3.897-1.51.46 0 .945.088 1.458.265.512.176.857.265 1.034.265.388 0 .724-.15 1.007-.451.283-.3.424-.698.424-1.193 0-.565-.283-.99-.848-1.272-.566-.283-1.202-.424-1.909-.424-2.226.035-4.162.715-5.805 2.04-1.644 1.326-2.872 2.996-3.685 5.01v-4.665c0-.46-.15-.84-.45-1.14-.3-.3-.68-.45-1.14-.45-.46 0-.84.15-1.14.45-.3.3-.45.68-.45 1.14v23.752c0 .46.15.84.45 1.14.3.3.68.45 1.14.45m57.57 0c.46 0 .84-.15 1.14-.451.3-.3.45-.68.45-1.14v-15.004c0-3.216-.75-5.805-2.253-7.767-1.502-1.962-3.844-2.942-7.025-2.942-2.014 0-4.011.583-5.99 1.75-1.98 1.166-3.34 2.526-4.083 4.082-.636-1.91-1.696-3.358-3.18-4.348-1.485-.99-3.253-1.484-5.303-1.484-1.802 0-3.516.477-5.142 1.431-1.626.954-2.916 2.156-3.87 3.605v-3.075c0-.46-.15-.84-.451-1.14-.3-.3-.68-.45-1.14-.45-.46 0-.84.15-1.14.45-.3.3-.45.68-.45 1.14v23.752c0 .46.15.84.45 1.14.3.3.68.45 1.14.45.46 0 .84-.15 1.14-.45.3-.3.45-.68.45-1.14v-15.004c0-1.378.398-2.66 1.193-3.844a8.793 8.793 0 0 1 3.128-2.836 8.424 8.424 0 0 1 4.11-1.06c2.261 0 3.923.715 4.983 2.147 1.06 1.431 1.59 3.296 1.59 5.593v15.004c0 .46.15.84.451 1.14.3.3.68.45 1.14.45.46 0 .84-.15 1.14-.45.3-.3.45-.68.45-1.14v-14.845c0-1.414.407-2.73 1.22-3.95a8.718 8.718 0 0 1 3.207-2.889 8.828 8.828 0 0 1 4.215-1.06c2.333 0 4.056.733 5.17 2.2 1.113 1.467 1.67 3.366 1.67 5.7v14.844c0 .46.15.84.45 1.14.3.3.68.45 1.14.45m30.313.158c.318 0 .619-.097.901-.291.283-.195.495-.45.637-.769l14.58-33.984c.105-.318.158-.565.158-.742 0-.424-.132-.778-.397-1.06-.265-.283-.645-.424-1.14-.424h-19.51c-.425 0-.787.14-1.087.424-.3.282-.45.636-.45 1.06 0 .46.15.83.45 1.113.3.283.662.425 1.087.425h17.018L545.93 193.76c-.106.247-.16.512-.16.795 0 .424.168.778.504 1.06.336.283.716.424 1.14.424"/><g transform="translate(76.683 134.769)"><mask id="b" fill="#fff"><use xlink:href="#a"/></mask><path fill="#3AD0F6" d="M89.138 45.617c0 24.428-19.803 44.23-44.23 44.23C20.48 89.847.679 70.045.679 45.617c0-24.428 19.802-44.23 44.229-44.23s44.23 19.802 44.23 44.23" mask="url(#b)"/><g transform="translate(0 1.15)"><mask id="d" fill="#fff"><use xlink:href="#c"/></mask><path fill="#1D5992" d="M90.448 62.77c-20.339-9.138-41.266-34.828-43.035-36.007-1.768-1.18-4.127.295-4.127.295-1.472-2.36-3.831.294-3.831.294C28.549 45.921-.631 63.653-.631 63.653s14.015 25.771 46.407 25.771c32.928 0 44.672-26.655 44.672-26.655" mask="url(#d)"/></g><mask id="f" fill="#fff"><use xlink:href="#e"/></mask><path fill="#FFFFFE" d="M25.012 44.419s5.895-2.653 4.716 1.768c-1.18 4.422-5.895 10.906-4.421 11.2 1.474.295 5.6-3.83 6.78-3.241 1.177.589 2.061.294 1.472 2.357-.588 2.063-1.177 3.538 0 3.538 1.18 0 2.064-2.654 3.538-5.306 1.474-2.652 3.831-1.474 4.715-.59.885.885 3.537 5.896 5.602 5.305 2.063-.589 3.241-3.241 2.357-9.136-.884-5.895.59-7.664.59-7.664s1.768-.884 5.011 3.242c3.242 4.126 9.138 10.317 10.02 10.022.885-.295-4.125-6.78-2.947-7.37 1.18-.589 5.896.885 8.254 2.95 0 0 .806 3.378.806.136L47.414 27.913l-4.128.295-3.831.293s-9.433 14.15-14.443 15.918" mask="url(#f)"/><g transform="translate(0 1.15)"><mask id="h" fill="#fff"><use xlink:href="#g"/></mask><path fill="#1A1919" fill-rule="nonzero" d="m41.806 24.718.292.019c.516.058.992.249 1.413.563l.108.088.29-.106c.729-.252 1.475-.38 2.222-.33l.374.04a4.05 4.05 0 0 1 1.664.637l2.652 2.897c3.95 4.265 11.444 12.234 16.443 16.901l.31.288c7.596 7.03 14.866 12.472 21.659 15.855.397.198.792.389 1.185.572l.588.269-1.117 2.485a51.9 51.9 0 0 1-1.87-.887c-6.792-3.383-13.952-8.678-21.4-15.472l-.896-.823C58.58 41.104 46.6 28.006 46.647 27.892a1.283 1.283 0 0 0-.545-.205c-.442-.066-.986.035-1.54.258a4.44 4.44 0 0 0-.489.229l-1.22.761-.723-1.156c-.163-.262-.256-.326-.335-.335-.154-.017-.464.107-.818.369-.142.104-.265.21-.36.298l-.073.07-.34.57c-3.769 6.16-9.621 12.549-17.02 19.004l-.86.745c-4.867 4.182-10.076 8.134-15.284 11.736-1.302.9-2.538 1.733-3.693 2.492l-1.733 1.124-1.538.965-1.414-2.328 1.127-.705c.231-.146.478-.304.74-.472l1.323-.861a188.1 188.1 0 0 0 3.638-2.456c5.135-3.551 10.27-7.447 15.058-11.561 7.606-6.536 13.585-12.984 17.326-19.094l.406-.678.157-.215c.199-.224.513-.524.922-.826.768-.567 1.579-.918 2.447-.903" mask="url(#h)"/></g></g><path fill="#1A1919" fill-rule="nonzero" d="M121.59 134C96.412 134 76 154.412 76 179.592s20.411 45.592 45.59 45.592c25.18 0 45.593-20.412 45.593-45.592S146.77 134 121.59 134m0 2.724c23.676 0 42.869 19.193 42.869 42.868 0 23.676-19.193 42.868-42.868 42.868s-42.867-19.192-42.867-42.868c0-23.676 19.192-42.868 42.867-42.868"/></g></svg>