<svg xmlns="http://www.w3.org/2000/svg" width="512" height="512" fill="none"><g clip-path="url(#a)"><mask id="b" width="498" height="497" x="7" y="12" maskUnits="userSpaceOnUse" style="mask-type:alpha"><path fill="#fff" d="M7.643 260.455c0 137.171 111.201 248.356 248.355 248.356 137.159 0 248.355-111.185 248.355-248.356 0-137.154-111.196-248.343-248.355-248.343C118.844 12.112 7.643 123.3 7.643 260.455Z"/></mask><g mask="url(#b)"><path fill="#fff" fill-rule="evenodd" d="M504.352 260.461c0 137.165-111.195 248.355-248.355 248.355-137.165 0-248.35-111.19-248.35-248.355S118.839 12.106 255.998 12.106c137.16 0 248.355 111.19 248.355 248.355" clip-rule="evenodd"/><mask id="c" width="498" height="497" x="7" y="12" maskUnits="userSpaceOnUse" style="mask-type:alpha"><path fill="#fff" d="M7.643 260.455c0 137.171 111.201 248.356 248.355 248.356 137.159 0 248.355-111.185 248.355-248.356.005-137.154-111.19-248.343-248.35-248.343-137.159 0-248.36 111.189-248.36 248.343Z"/></mask><g mask="url(#c)"><path fill="#1D5992" fill-rule="evenodd" d="M511.708 363.234c-114.205-51.311-231.712-195.562-241.645-202.182-9.928-6.626-23.173 1.656-23.173 1.656-8.266-13.251-21.512 1.651-21.512 1.651C164.14 268.626.292 368.192.292 368.192s78.695 144.706 260.579 144.706c184.894 0 250.837-149.67 250.837-149.67" clip-rule="evenodd"/></g></g><mask id="d" width="498" height="497" x="7" y="12" maskUnits="userSpaceOnUse" style="mask-type:alpha"><path fill="#fff" d="M7.643 260.455c0 137.171 111.201 248.356 248.355 248.356 137.159 0 248.355-111.185 248.355-248.356 0-137.154-111.196-248.343-248.355-248.343C118.844 12.112 7.643 123.3 7.643 260.455Z"/></mask><g mask="url(#d)"><path fill="#FFFFFE" fill-rule="evenodd" d="M144.28 253.734s33.101-14.896 26.481 9.928c-6.626 24.83-33.101 61.238-24.825 62.889 8.277 1.656 31.445-21.506 38.071-18.199 6.608 3.308 11.572 1.651 8.265 13.235-3.302 11.584-6.609 19.866 0 19.866 6.626 0 11.589-14.902 19.866-29.793 8.277-14.892 21.511-8.277 26.475-3.313 4.97 4.969 19.861 33.106 31.456 29.788 11.584-3.308 18.198-18.199 13.235-51.3-4.964-33.101 3.313-43.034 3.313-43.034s9.927-4.963 28.137 18.204c18.204 23.168 51.31 57.931 56.263 56.275 4.969-1.657-23.162-38.071-16.548-41.383 6.626-3.308 33.107 4.969 46.347 16.564 0 0 4.526 18.968 4.526.764L270.069 161.052l-23.179 1.656-21.512 1.645s-52.967 79.454-81.098 89.381" clip-rule="evenodd"/><mask id="e" width="498" height="497" x="7" y="12" maskUnits="userSpaceOnUse" style="mask-type:alpha"><path fill="#fff" d="M7.643 260.455c0 137.171 111.201 248.356 248.355 248.356 137.159 0 248.355-111.185 248.355-248.356.005-137.154-111.19-248.343-248.35-248.343-137.159 0-248.36 111.189-248.36 248.343Z"/></mask><g mask="url(#e)"><path fill="#1A1919" d="m238.579 149.569 1.639.107c2.898.325 5.571 1.398 7.935 3.161l.606.494 1.628-.595c4.094-1.415 8.283-2.134 12.477-1.853l2.1.224a22.746 22.746 0 0 1 9.344 3.577l14.891 16.267c22.179 23.948 64.259 68.695 92.329 94.901l1.74 1.617c42.652 39.474 83.474 70.031 121.617 89.027a279.045 279.045 0 0 0 6.654 3.212l3.302 1.51-6.272 13.954a291.795 291.795 0 0 1-10.5-4.981c-38.138-18.996-78.342-48.728-120.163-86.876l-5.031-4.622c-40.109-37.115-107.377-110.662-107.113-111.302a7.21 7.21 0 0 0-3.061-1.151c-2.482-.37-5.536.197-8.647 1.449-.94.372-1.857.802-2.746 1.286l-6.85 4.273-4.06-6.491c-.915-1.471-1.437-1.831-1.881-1.881-.865-.096-2.605.6-4.593 2.072a23.062 23.062 0 0 0-2.021 1.673l-.41.393-1.909 3.201c-21.164 34.588-54.023 70.463-95.569 106.709l-4.829 4.183c-27.329 23.482-56.578 45.673-85.821 65.898a1069.284 1069.284 0 0 1-20.737 13.993l-9.73 6.312-8.636 5.418-7.94-13.072 6.328-3.958c1.297-.82 2.684-1.707 4.155-2.651l7.429-4.834a1060.583 1060.583 0 0 0 20.428-13.791c28.833-19.939 57.667-41.816 84.551-64.916 42.709-36.7 76.281-72.906 97.287-107.214l2.28-3.807.882-1.208c1.117-1.257 2.88-2.942 5.177-4.638 4.312-3.183 8.866-5.154 13.74-5.07"/></g></g><path fill="#1A1919" d="M255.992 0C114.615 0 0 114.615 0 256.003c0 141.388 114.609 256.003 255.992 256.003C397.379 512.006 512 397.391 512 256.003 512 114.615 397.379 0 255.992 0Zm0 15.296c132.942 0 240.713 107.77 240.713 240.707 0 132.942-107.771 240.707-240.708 240.707S15.296 388.945 15.296 256.003c0-132.943 107.764-240.707 240.701-240.707h-.005Z"/></g><defs><clipPath id="a"><path fill="#fff" d="M0 0h512v512H0z"/></clipPath></defs></svg>