<svg width="512" height="512" fill="none" xmlns="http://www.w3.org/2000/svg"><g clip-path="url(#a)"><path d="M246.427 328.228h120.325v63.446H246.427v-63.446Z" fill="#fff"/><path d="M341.594 124.772H170.948a27.126 27.126 0 0 0-19.322 7.867 27.155 27.155 0 0 0-5.938 8.827 27.145 27.145 0 0 0-2.087 10.431v36.317h223.151v-63.442h-25.158Zm-2.189 100.636H143.823v166.266h63.442V288.85h132.578a27.572 27.572 0 0 0 25.814-18.156 21.416 21.416 0 0 0 1.316-7.658v-37.628h-27.568ZM255.835 512c-103.486-.057-196.76-62.417-236.35-158.032-39.596-95.61-17.722-205.654 55.423-278.856 73.037-73.146 182.907-95.185 278.5-55.858C449.005 58.576 511.566 151.537 512 254.905c.426 103.368-61.357 196.85-156.629 236.967A254.004 254.004 0 0 1 255.835 512Zm0-478.022a222.055 222.055 0 0 0-157.08 379.136c86.753 86.75 227.406 86.75 314.156 0 86.753-86.753 86.753-227.406 0-314.16A220.53 220.53 0 0 0 255.835 34.2v-.222Z" fill="#000"/></g><defs><clipPath id="a"><path fill="#fff" d="M0 0h512v512H0z"/></clipPath></defs></svg>