<svg xmlns="http://www.w3.org/2000/svg" width="640" height="360"><g fill="none" fill-rule="nonzero"><path fill="#F15A24" d="M136.764 196.576h27.702v14.607h-27.702z"/><path fill="#000" d="M158.674 149.735h-39.287a6.246 6.246 0 0 0-6.296 6.245v8.361h51.375v-14.606h-5.792Zm-.504 23.169h-45.028v38.279h14.606V187.51h30.523a6.346 6.346 0 0 0 5.943-4.18c.208-.564.31-1.162.303-1.763v-8.663h-6.347Zm-19.24 65.981c-23.825-.013-45.299-14.37-54.414-36.383-9.116-22.012-4.08-47.347 12.76-64.2 16.815-16.84 42.11-21.914 64.118-12.86 22.009 9.053 36.412 30.455 36.512 54.253.098 23.798-14.126 45.32-36.06 54.556a58.48 58.48 0 0 1-22.916 4.634Zm0-110.053a51.123 51.123 0 0 0-36.164 87.287c19.973 19.972 52.355 19.972 72.327 0 19.973-19.973 19.973-52.355 0-72.328a50.77 50.77 0 0 0-36.163-14.908v-.05Zm83.61 13.197a5.038 5.038 0 0 1 1.51-3.627 4.738 4.738 0 0 1 3.526-1.512h30.019v8.362H232.26v10.426h18.989v3.224a4.735 4.735 0 0 1-1.511 3.525 5.037 5.037 0 0 1-3.627 1.461h-13.8v21.456h-9.772V142.03Zm68.398 24.68c0 12.994-5.708 19.492-17.125 19.492-11.416 0-17.125-6.498-17.125-19.492 0-13.096 5.709-19.644 17.125-19.644 11.417 0 17.125 6.548 17.125 19.644Zm-24.63 0c.101 7.32 2.57 10.98 7.404 10.98 4.836 0 7.287-3.761 7.354-11.283 0-7.32-2.418-10.98-7.253-10.98-5.003 0-7.505 3.761-7.505 11.283Zm29.163-.857c.269-12.155 6.716-18.233 19.341-18.233h1.41v9.872H313c-5.272 0-7.908 2.737-7.908 8.21v19.643h-9.62v-19.492Zm41.1-10.426c-4.164 0-6.296 1.948-6.397 5.843v24.075h-9.57v-22.161c0-10.745 5.373-16.118 16.118-16.118 4.835 0 8.596 1.058 11.282 3.173 2.686-2.014 6.447-3.022 11.282-3.022 10.745 0 16.084 5.373 16.017 16.118v22.162h-4.885c-3.157-.202-4.735-1.78-4.735-4.735V161.42c-.201-3.929-2.384-5.893-6.548-5.893-4.163 0-6.296 1.964-6.396 5.893v23.924h-9.57V161.27c-.202-3.895-2.384-5.843-6.548-5.843h-.05Zm49.158-18.535c3.157 0 4.668 1.528 4.533 4.584v2.77h-9.418v-7.354h4.885Zm0 10.728c3.022 0 4.533 1.528 4.533 4.584v33.141h-9.418V147.57l4.885.05Zm39.992-10.728a4.735 4.735 0 0 1 4.734 4.735v27.45c0 11.316-5.876 16.923-17.628 16.822-11.752-.167-17.629-6.53-17.629-19.089 0-12.793 5.037-19.374 15.11-19.744 4.701 0 8.26 1.948 10.678 5.843V136.89h4.735Zm-12.642 18.636c-5.104 0-7.79 3.626-8.06 10.88-.1 7.588 2.536 11.382 7.909 11.382 5.372 0 8.058-3.794 8.058-11.383-.168-7.219-2.803-10.845-7.907-10.879Zm36.113 30.523c-3.694.268-6.85-.236-9.469-1.511-3.895-1.948-5.843-5.39-5.843-10.326.068-3.794 1.36-6.665 3.879-8.613 2.518-1.947 6.648-3.206 12.39-3.777 4.097-.47 6.145-1.73 6.145-3.778-.202-2.115-2.25-3.173-6.145-3.173-3.324 0-5.221.873-5.691 2.62h-9.47c1.075-6.951 5.977-10.427 14.708-10.427 10.409 0 15.697 3.476 15.865 10.426v12.794c0 6.413-2.317 10.879-6.95 13.397-2.519 1.276-5.675 2.065-9.47 2.368h.051Zm-.302-17.428c-3.828.74-5.742 2.502-5.742 5.289.201 2.955 1.78 4.432 4.734 4.432 2.586 0 4.668-.738 6.246-2.216 1.477-1.477 2.216-3.56 2.216-6.245v-3.476a39.79 39.79 0 0 1-7.505 2.216h.05Zm30.724-15.714c2.384-3.895 5.943-5.843 10.678-5.843 10.04.336 15.06 6.917 15.06 19.744 0 12.558-5.843 18.922-17.528 19.09-11.82.1-17.73-5.507-17.73-16.823V136.89h4.735c3.156 0 4.734 1.578 4.734 4.735l.05 11.282Zm8.059 2.619c-5.104 0-7.79 3.626-8.06 10.88-.1 7.622 2.536 11.433 7.909 11.433 5.372 0 8.041-3.828 8.008-11.484-.168-7.22-2.804-10.846-7.908-10.88l.05.051Zm26.795-18.636a4.533 4.533 0 0 1 3.173 1.31 4.332 4.332 0 0 1 1.41 3.274v43.87h-9.469V136.89h4.886Zm43.215 36.92c-1.108 4.264-2.955 7.37-5.54 9.317-3.056 2.015-6.682 3.022-10.88 3.022-11.416-.336-17.124-6.917-17.124-19.744s5.741-19.274 17.225-19.34c11.954 0 17.561 7.386 16.823 22.16h-24.378c.37 5.71 2.888 8.563 7.555 8.563 2.216 0 4.231-.873 6.044-2.619a4.13 4.13 0 0 1 3.224-1.36h7.051Zm-9.52-11.484c-.57-5.037-2.887-7.556-6.95-7.556-4.063 0-6.48 2.519-7.253 7.556h14.204Z"/><path fill="#000" d="M437.86 198.037c0-1.477.772-2.216 2.316-2.216h15.564v2.971h-14.305v8.16h10.78v1.007c0 1.343-.74 2.015-2.217 2.015h-8.563v12.39h-3.576v-24.327Zm45.128 11.08c-.134 9-4.331 13.533-12.591 13.6-8.26.067-12.458-4.466-12.592-13.6.067-9.133 4.264-13.716 12.592-13.75 8.394 0 12.591 4.567 12.591 13.7v.05Zm-12.642-10.778c-5.809 0-8.73 3.56-8.764 10.678.101 7.051 3.04 10.61 8.815 10.678 5.775.067 8.713-3.492 8.814-10.678 0-7.152-2.955-10.711-8.865-10.678Zm16.672-.352c0-1.478.739-2.217 2.216-2.217h9.318c5.339-.033 8.059 2.317 8.16 7.052-.101 3.358-1.444 5.708-4.03 7.051 1.578.302 2.586 1.108 3.022 2.418.437 1.209.705 3.29.806 6.245.1 2.166.252 3.375.453 3.728h-3.727a4.533 4.533 0 0 1-.504-2.368c-.033-4.096-.403-6.615-1.108-7.555-.403-.655-1.158-1.007-2.216-1.007h-8.713v10.93h-3.728l.05-24.277Zm11.332 10.426c3.358 0 4.953-1.83 4.785-5.49 0-2.653-1.578-4.047-4.734-4.18h-7.757v9.569l7.706.1Zm12.089-10.426c0-1.478.772-2.217 2.317-2.217h3.525l6.548 21.407 6.497-21.407h5.893v26.494h-3.677v-22.162l-7.05 22.162h-3.376l-7.05-22.162v22.162h-3.627v-24.277ZM542.32 213.5a5.742 5.742 0 0 0 2.015 4.533 7.253 7.253 0 0 0 4.936 1.662c2.166 0 3.828-.353 4.885-1.058 1.31-1.007 2.015-2.115 2.015-3.425 0-1.477-.504-2.518-1.51-3.123-1.243-.772-3.107-1.393-5.592-1.863-4.096-.672-6.699-1.68-7.807-3.022-1.007-1.008-1.51-2.519-1.51-4.382a6.497 6.497 0 0 1 2.618-5.34c1.68-1.443 3.98-2.165 6.9-2.165 2.855 0 5.155.739 6.901 2.216a7.908 7.908 0 0 1 2.569 5.793h-1.511c-.957 0-1.511-.303-1.713-.907-.94-2.787-3.089-4.18-6.447-4.18-3.895 0-5.91 1.426-6.044 4.28-.1 2.217 1.998 3.778 6.296 4.685a50.18 50.18 0 0 1 5.037 1.259c3.458 1.007 5.188 3.106 5.188 6.296a6.95 6.95 0 0 1-2.77 5.792c-1.847 1.41-4.315 2.116-7.404 2.116-3.425 0-5.944-.756-7.556-2.267-1.78-1.511-2.753-3.794-2.92-6.85l3.424-.05Z" opacity=".9"/></g></svg>