<svg width="512" height="512" viewBox="0 0 512 512" fill="none" xmlns="http://www.w3.org/2000/svg">
<g clip-path="url(#clip0_28_10918)">
<path d="M256 512.174C397.385 512.174 512 397.559 512 256.174C512 114.789 397.385 0.173996 256 0.173996C114.615 0.173996 0 114.789 0 256.174C0 397.559 114.615 512.174 256 512.174Z" fill="white"/>
<path d="M356.951 137.314C348.35 137.314 340.941 142.443 334.709 150.94L128.483 221.974C124.536 216.479 119.546 213.508 114.096 213.508C101.172 213.508 91.4282 229.889 91.4282 251.6C91.4282 273.316 101.167 289.697 114.096 289.697C119.546 289.697 124.536 286.722 128.483 281.226L167.588 294.702L160.008 307.09C157.515 311.165 156.194 315.849 156.191 320.626C156.191 331.462 162.803 341.05 173.053 345.062L220.728 363.748C224.291 365.143 228.083 365.86 231.909 365.862C243.166 365.862 254.016 359.725 259.276 349.391L269.3 329.718L334.699 352.246C340.926 360.757 348.35 365.887 356.951 365.887C386.392 365.887 402.287 307.005 402.287 251.6C402.287 196.195 386.392 137.314 356.951 137.314V137.314ZM236.092 338.044C235.12 339.948 232.385 341 230.356 340.163L182.676 321.473L182.225 320.15L192.545 303.288L244.669 321.242L236.092 338.044V338.044ZM356.951 340.494C351.135 340.494 337.519 310.256 337.519 251.605C337.519 192.954 351.135 162.717 356.951 162.717C362.762 162.717 376.378 192.954 376.378 251.605C376.378 310.256 362.767 340.494 356.951 340.494Z" fill="#F89C35"/>
</g>
<defs>
<clipPath id="clip0_28_10918">
<rect width="512" height="512" fill="white"/>
</clipPath>
</defs>
</svg>
