<svg fill="none" height="512" viewBox="0 0 512 512" width="512" xmlns="http://www.w3.org/2000/svg"><path d="m256 .17382812c-141.38486 0-256 114.61514188-256 256.00000188s114.61514 256 256 256 256-114.61514 256-256-114.61514-256.00000188-256-256.00000188zm100.95117 137.14062188c29.44097 0 45.33594 58.88021 45.33594 114.28516 0 55.40494-15.89497 114.28711-45.33594 114.28711-8.60099 0-16.02496-5.12963-22.25195-13.64063l-65.39844-22.52734-10.02539 19.67187c-5.25999 10.33399-16.1102 16.47071-27.36719 16.47071-3.82599-.002-7.61669-.71828-11.17968-2.11328l-47.67579-18.68555c-10.24999-4.012-16.86132-13.59956-16.86132-24.43555.003-4.77699 1.3234-9.46211 3.8164-13.53711l7.58008-12.38867-39.10547-13.47461c-3.94699 5.496-8.93672 8.47071-14.38672 8.47071-12.92898 0-22.667966-16.38168-22.667966-38.09766 0-21.71098 9.743986-38.0918 22.667966-38.0918 5.45 0 10.43973 2.9718 14.38672 8.4668l206.22656-71.03516c6.232-8.49699 13.6412-13.625 22.24219-13.625zm0 25.40235c-5.81599 0-19.43164 30.23773-19.43164 88.88867s13.61565 88.88867 19.43164 88.88867c5.816 0 19.42774-30.23773 19.42774-88.88867s-13.61674-88.88867-19.42774-88.88867zm-164.40625 140.57031-10.32031 16.86328.45117 1.32227 47.67969 18.68945c2.029.837 4.76433-.21319 5.73633-2.11719l8.57812-16.80273z" fill="#fff"/></svg>