<svg fill="none" height="512" viewBox="0 0 512 512" width="512" xmlns="http://www.w3.org/2000/svg"><path d="m256 512.174c141.385 0 256-114.615 256-256 0-141.385-114.615-256.000004-256-256.000004s-256 114.615004-256 256.000004 114.615 256 256 256z" fill="#f89c35"/><path d="m356.951 137.314c-8.601 0-16.01 5.129-22.242 13.626l-206.226 71.034c-3.947-5.495-8.937-8.466-14.387-8.466-12.924 0-22.6678 16.381-22.6678 38.092 0 21.716 9.7388 38.097 22.6678 38.097 5.45 0 10.44-2.975 14.387-8.471l39.105 13.476-7.58 12.388c-2.493 4.075-3.814 8.759-3.817 13.536 0 10.836 6.612 20.424 16.862 24.436l47.675 18.686c3.563 1.395 7.355 2.112 11.181 2.114 11.257 0 22.107-6.137 27.367-16.471l10.024-19.673 65.399 22.528c6.227 8.511 13.651 13.641 22.252 13.641 29.441 0 45.336-58.882 45.336-114.287s-15.895-114.286-45.336-114.286zm-120.859 200.73c-.972 1.904-3.707 2.956-5.736 2.119l-47.68-18.69-.451-1.323 10.32-16.862 52.124 17.954zm120.859 2.45c-5.816 0-19.432-30.238-19.432-88.889s13.616-88.888 19.432-88.888c5.811 0 19.427 30.237 19.427 88.888s-13.611 88.889-19.427 88.889z" fill="#fff"/></svg>