<?xml version="1.0" encoding="UTF-8" standalone="no"?>
<svg
   width="512"
   height="512"
   viewBox="0 0 512 512"
   fill="none"
   version="1.1"
   id="svg1160"
   sodipodi:docname="plugin-charitable-icon-white-512x512.svg"
   inkscape:version="1.2 (dc2aeda, 2022-05-15)"
   xmlns:inkscape="http://www.inkscape.org/namespaces/inkscape"
   xmlns:sodipodi="http://sodipodi.sourceforge.net/DTD/sodipodi-0.dtd"
   xmlns="http://www.w3.org/2000/svg"
   xmlns:svg="http://www.w3.org/2000/svg">
  <defs
     id="defs1164" />
  <sodipodi:namedview
     id="namedview1162"
     pagecolor="#ffffff"
     bordercolor="#666666"
     borderopacity="1.0"
     inkscape:showpageshadow="2"
     inkscape:pageopacity="0.0"
     inkscape:pagecheckerboard="true"
     inkscape:deskcolor="#d1d1d1"
     showgrid="false"
     inkscape:zoom="0.4609375"
     inkscape:cx="320"
     inkscape:cy="238.64407"
     inkscape:window-width="1101"
     inkscape:window-height="864"
     inkscape:window-x="3369"
     inkscape:window-y="325"
     inkscape:window-maximized="0"
     inkscape:current-layer="svg1160" />
  <path
     id="path1156"
     d="M 256 0.17382812 C 114.61514 0.17382812 0 114.78897 0 256.17383 C 0 397.55869 114.61514 512.17383 256 512.17383 C 397.38486 512.17383 512 397.55869 512 256.17383 C 512 114.78897 397.38486 0.17382812 256 0.17382812 z M 356.95117 137.31445 C 386.39214 137.31445 402.28711 196.19466 402.28711 251.59961 C 402.28711 307.00455 386.39214 365.88672 356.95117 365.88672 C 348.35018 365.88672 340.92621 360.75709 334.69922 352.24609 L 269.30078 329.71875 L 259.27539 349.39062 C 254.0154 359.72461 243.16519 365.86133 231.9082 365.86133 C 228.08221 365.85933 224.29151 365.14305 220.72852 363.74805 L 173.05273 345.0625 C 162.80274 341.0505 156.19141 331.46294 156.19141 320.62695 C 156.19441 315.84996 157.51481 311.16484 160.00781 307.08984 L 167.58789 294.70117 L 128.48242 281.22656 C 124.53543 286.72256 119.5457 289.69727 114.0957 289.69727 C 101.16672 289.69727 91.427734 273.31559 91.427734 251.59961 C 91.427734 229.88863 101.17172 213.50781 114.0957 213.50781 C 119.5457 213.50781 124.53543 216.47961 128.48242 221.97461 L 334.70898 150.93945 C 340.94098 142.44246 348.35018 137.31445 356.95117 137.31445 z M 356.95117 162.7168 C 351.13518 162.7168 337.51953 192.95453 337.51953 251.60547 C 337.51953 310.25641 351.13518 340.49414 356.95117 340.49414 C 362.76717 340.49414 376.37891 310.25641 376.37891 251.60547 C 376.37891 192.95453 362.76217 162.7168 356.95117 162.7168 z M 192.54492 303.28711 L 182.22461 320.15039 L 182.67578 321.47266 L 230.35547 340.16211 C 232.38447 340.99911 235.1198 339.94892 236.0918 338.04492 L 244.66992 321.24219 L 192.54492 303.28711 z "
     style="fill:#ffffff" />
</svg>
