<svg viewBox="145 145 640 360" width="640" height="360" xmlns="http://www.w3.org/2000/svg"><defs><linearGradient id="a" x1="196.459" y1="301.989" x2="380.699" y2="233.557" gradientUnits="userSpaceOnUse" gradientTransform="matrix(.92074 0 0 .92074 11.534 11.534)"><stop offset="0" stop-color="#005ab9"/><stop offset="1" stop-color="#1e3764"/></linearGradient><linearGradient id="b" x1="412.618" y1="255.495" x2="608.243" y2="188.752" gradientUnits="userSpaceOnUse" gradientTransform="matrix(.92074 0 0 .92074 11.534 11.534)"><stop offset="0" stop-color="#fba900"/><stop offset="1" stop-color="#ffd800"/></linearGradient></defs><path d="M145.518 432.361V365.37h20.672c15.025 0 24.69 5.646 24.69 17.322 0 6.604-3.062 11.197-7.368 13.877 6.22 2.87 9.857 8.421 9.857 15.982 0 13.494-9.857 19.81-25.17 19.81zm13.303-39.142h9.857c6.029 0 8.613-2.967 8.613-8.422 0-5.838-4.69-7.751-11.006-7.751h-7.464zm0 27.467h8.23c8.039 0 12.728-2.01 12.728-8.326 0-6.22-4.019-8.805-11.58-8.805h-9.378zm60.345 12.824c-13.111 0-19.715-6.412-19.715-15.025 0-9.475 7.752-15.026 19.237-15.122a59.927 59.927 0 0 1 8.517.766v-2.297c0-5.837-3.35-8.613-9.762-8.613a33.576 33.576 0 0 0-12.632 2.297l-2.393-10.336c4.115-1.723 10.719-2.87 16.557-2.87 14.068 0 21.054 7.464 21.054 20.384v26.605c-3.924 2.01-11.293 4.21-20.863 4.21zm8.039-10.815v-10.24a32.142 32.142 0 0 0-6.795-.766c-4.402 0-7.847 1.723-7.847 6.221 0 4.02 2.87 6.125 7.943 6.125a14.982 14.982 0 0 0 6.699-1.34zm22.122 9.666V386.52a58.438 58.438 0 0 1 21.629-4.21c13.972 0 22.011 6.89 22.011 19.618v30.433H279.76v-29.476c0-6.604-3.062-9.666-8.9-9.666a20.072 20.072 0 0 0-8.422 1.723v37.42zm89.794-47.18-2.489 10.43a29.152 29.152 0 0 0-10.814-2.392c-7.752 0-11.963 5.455-11.963 14.451 0 9.857 4.403 14.93 12.633 14.93a27.093 27.093 0 0 0 10.623-2.489l2.105 10.623a32.211 32.211 0 0 1-13.78 2.775c-15.887 0-25.075-9.857-25.075-25.456 0-15.504 9.092-25.744 24.309-25.744a36.888 36.888 0 0 1 14.45 2.871zm28.53 48.329c-14.737 0-23.925-10.24-23.925-25.648 0-15.313 9.188-25.553 23.926-25.553 14.834 0 23.83 10.24 23.83 25.553 0 15.407-8.996 25.648-23.83 25.648zm0-10.91c6.796 0 10.336-5.647 10.336-14.738 0-8.997-3.54-14.643-10.335-14.643-6.7 0-10.432 5.646-10.432 14.643 0 9.091 3.733 14.738 10.432 14.738zm31.473 9.761V386.52a58.438 58.438 0 0 1 21.629-4.21c13.972 0 22.011 6.89 22.011 19.618v30.433h-13.207v-29.476c0-6.604-3.062-9.666-8.9-9.666a20.072 20.072 0 0 0-8.422 1.723v37.42zm73.425 1.149c-11.389 0-17.226-6.221-17.226-18.854v-20.671h-6.508v-10.528h6.508v-10.623l13.206-.67v11.293h10.623v10.528H468.53v20.48c0 5.55 2.297 8.135 6.604 8.135a23.207 23.207 0 0 0 5.072-.574l.67 10.623a36.504 36.504 0 0 1-8.326.86zm33.335 0c-13.111 0-19.715-6.412-19.715-15.025 0-9.475 7.752-15.026 19.236-15.122a59.927 59.927 0 0 1 8.518.766v-2.297c0-5.837-3.35-8.613-9.762-8.613a33.576 33.576 0 0 0-12.633 2.297l-2.392-10.336c4.115-1.723 10.719-2.87 16.556-2.87 14.069 0 21.055 7.464 21.055 20.384v26.605c-3.924 2.01-11.293 4.21-20.863 4.21zm8.039-10.815v-10.24a32.143 32.143 0 0 0-6.795-.766c-4.402 0-7.848 1.723-7.848 6.221 0 4.02 2.871 6.125 7.944 6.125a14.981 14.981 0 0 0 6.699-1.34zm58.01-37.515-2.489 10.432a29.152 29.152 0 0 0-10.814-2.393c-7.752 0-11.963 5.455-11.963 14.451 0 9.857 4.402 14.93 12.633 14.93a27.093 27.093 0 0 0 10.623-2.489l2.105 10.623a32.213 32.213 0 0 1-13.781 2.776c-15.887 0-25.074-9.858-25.074-25.457 0-15.504 9.092-25.744 24.308-25.744a36.889 36.889 0 0 1 14.451 2.871zm29.036 48.33c-11.388 0-17.226-6.221-17.226-18.854v-20.671h-6.508v-10.528h6.508v-10.623l13.206-.67v11.293h10.623v10.528H596.95v20.48c0 5.55 2.297 8.135 6.604 8.135a23.206 23.206 0 0 0 5.072-.574l.67 10.623a36.504 36.504 0 0 1-8.326.86z" style="stroke-width:.920733;fill:#1e3764" transform="translate(87.593 35.483)"/><path d="M237.639 331.874c69.884 0 104.826-46.589 139.768-93.178H145.518v93.178z" style="fill:url(#a);stroke-width:.920733" transform="translate(87.593 35.483)"/><path d="M517.174 145.517c-69.883 0-104.825 46.59-139.767 93.179h231.888v-93.18z" style="fill:url(#b);stroke-width:.920733" transform="translate(87.593 35.483)"/></svg>