<svg height="32" viewBox="0 0 51 32" width="51" xmlns="http://www.w3.org/2000/svg"><g fill="none" fill-rule="evenodd"><path d="m.5.5h50v31h-50z" fill="#fff" stroke="#d0d0d0"/><g fill-rule="nonzero"><path d="m3.92516895 19.4445479c.18945719.0232624.33194339.1176074.43727707.2447681.05605185.0676668.09745358.1398877.13365896.2216558l.01102306.0255836c.03806236.0907767.07094797.1950634.10703998.3302121l.00849246.0325694c.02519148.100763.16027614.6586594.21064196.8376284.08353781.2968418.16882753.524575.26144941.688641.04379805.0775817.08632192.1353358.12461992.172747.0139609.0136376.02607037.0233074.03612178.0296235.00575627.0036171.00953471.0053785.01213292.0061885.08304034.0258858.10655228.0235116.12912761.0100528.04024235-.0239914.09568082-.085644.172472-.2018781l.01313992-.0201544.1447731-.2305198c.06136325-.0952879.1148079-.1692915.17647962-.2384777.09771199-.1096178.20699537-.1958884.34313855-.25293.17025185-.0713326.34370844-.0726717.51047934-.0272559.10259808.02794.19686948.0714773.29784142.1306264l.02209732.0131244.02392541.0146124c.0441404.0273365.09024769.0579439.14562415.0961541l.22762648.1587674.03164226.0214361.0276747.0184108c.39275903.2589334.61883928.3050032.87486477.1577613l.01269313-.0074439.01279788-.0077943c.27958799-.1734205.64682394-.0873547.82024444.1922333s.08735475.6468239-.19223324.8202444c-.01976272.0122583-.03960455.0241159-.05952533.0355725-.42114102.2422009-.86165602.2970884-1.29797791.1902668-.30353949-.0743135-.56390604-.2082207-.87490317-.418318l-.02284761-.0155092c-.02091846-.0142665-.041538-.028487-.06431228-.0443377l-.0930323-.0652271-.05655084.0898412-.01879075.0292343c-.17122681.2622409-.33538562.4467053-.56723711.5849288-.31991702.1907258-.69437807.2285385-1.09380405.1040268-.36804684-.1147299-.64300839-.3833243-.85581883-.7602865-.12009138-.2127241-.21880325-.4558761-.30894863-.74314l-.00799089-.0256671-.03222312.0812921c-.06963986.174138-.1279434.3091931-.18786942.4334716l-.0128569.026448c-.06771459.13817-.13376133.253133-.204568.3497318-.11827806.161362-.24998095.2795785-.44019818.3406868-.24413771.0784305-.46016888.020489-.65746548-.1044571-.10743156-.0680354-.20988651-.1582327-.31755239-.2720868-.15527264-.164197-.32520758-.3824602-.51988838-.6593592l-.01674776-.0238779c-.05197467-.0742776-.10551431-.1524357-.16144274-.235512l-.04734171-.0706279c-.03970048-.0594812-.08034918-.1210066-.12438822-.1881944l-.29694143-.4560652-.04404345-.0667658-.03583388-.0535504c-.01979339-.0293116-.03658633-.0536537-.05076771-.073589l-.01066641-.0148106-.00083005-.0007348c-.13738673-.1235287-.21530107-.3088662-.1945785-.5057848l.00125049-.0101844c.04009559-.3265524.3373225-.5587715.66387488-.5186759.14212008.0174502.23210209.0675703.31719894.1371909.0321637.0263142.05862256.0525482.08440468.0812754.02635551.0293661.0518771.0614232.07982633.0991968l.01060113.014439c.04183005.0573923.09111646.1298659.15793969.2313475l.29080009.4465747.05946218.0906503c.02390135.0363033.04683605.0709598.06927866.1046736l.05908695.0882722.0386134.0571165c.03815148.0561882.07494882.1096313.1106769.1606908l.03163418.044976.03405993.0478801c.04489335.0627195.08769738.1209399.12829448.1744655l.021252.0278452.01543043-.0369005.012558-.0304922c.03815557-.093151.08074991-.2016047.13061366-.3317174l.16369076-.4284058c.15193324-.3951736.19028931-.480272.27737091-.6429282l.00337366-.0062951c.05588737-.1041804.11193164-.190093.17919037-.2647676.05479225-.0608335.11624262-.1135021.19158799-.1565065.11922318-.0680481.25862619-.1023712.40900636-.0839068zm7.13944735-.988187 3.202836 3.2046232-3.571048.8658431c-.2598506.0631862-.4946879-.1666369-.4428345-.4258849l.0016772-.0079451zm-10.39050429 2.2681275.00225069.0018405c.05944729.0478209.12935162.0826721.22765559.0981595-.08163809-.0128617-.15738036-.0463439-.22444584-.0958793zm19.36823879-11.24770879 3.204653 3.20462319-8.1118617 8.1118617-3.202836-3.2046232zm-13.36321886 7.53212049c.35216307.764976 1.63610494 1.3754318 3.29091995 1.5776442l-.3277248 1.2533535c-1.75984621-.2809129-3.02719521-1.0335895-3.05905327-1.9220967l-.00061453-.0343005v-.4498225c0-.1455251.03333692-.2876011.09647265-.424778zm-6.58297649-1.2212565c.43211177.9417388 2.27172144 1.6493362 4.47577359 1.6493362.42464503 0 .83538725-.0266931 1.22550131-.075849l.04865634-.0062611v.5508239c0 .2516607.05806942.4945813.17064261.7249209-.45417188.0685884-.93984702.1058222-1.44480026.1058222-2.49975131 0-4.53094268-.9101297-4.57131653-2.0398909l-.00061251-.0343017v-.4498226c0-.1456034.03322731-.2876402.09615545-.4247779zm6.58297649-1.1020742c.43353727.9417388 2.27921567 1.6493362 4.49053876 1.6493362.1028286 0 .2048665-.0015301.3060085-.0045428l-1.22935 1.1997494-.0158946.0607312c-2.05898119-.1937272-3.61185279-1.0116096-3.64716078-1.9963338l-.00061453-.0343005v-.4498617c0-.1456035.03333692-.2876011.09647265-.424778zm-6.58310926-1.2212173c.43151512.9417387 2.26858471 1.6493362 4.46959357 1.6493362.42405869 0 .83423377-.0266931 1.22380917-.075849l.04858915-.0062612v1.299888c-.40392914.0531071-.83078791.081679-1.27239832.081679-2.49629973 0-4.52468648-.9101296-4.56500459-2.0398528l-.00061166-.0343005v-.4498226c0-.1456034.03318143-.2876403.09602268-.4248171zm6.58310926-1.2212174c.43353727.9417263 2.27921567 1.6493143 4.49053876 1.6493143 1.4768194 0 2.7905554-.315578 3.6294891-.805743l-2.0230095 1.9744589c-.4999677.084541-1.041288.1307629-1.6064796.1307629-2.50799774 0-4.54588984-.9101176-4.58639688-2.0398638l-.00061453-.0343012v-.4498166c0-.1456407.03333692-.2876756.09647265-.4248115zm-2.11351569-2.77007831c.42394599 0 .83433293.02626805 1.22382161.07527579l.04857671.00624415v4.42393247c-.40392914.0530564-.83078791.081559-1.27239832.081559-2.49629973 0-4.52468648-.9079979-4.56500459-2.0349435l-.00061166-.0342162v-.4487311c0-1.1427648 2.04410138-2.06912061 4.56561625-2.06912061zm11.09459325.47657262c.0605051.13142359.0936429.26734659.0962993.40663069l.0001734.0181865v.4498225c0 1.1455444-2.0537197 2.0741534-4.5870115 2.0741534-2.50799774 0-4.54588984-.9101297-4.58639688-2.0398529l-.00061453-.0343005v-.4498225c0-.1456427.03333692-.2876795.09647265-.42481719.43353727.94177799 2.27921567 1.64933619 4.49053876 1.64933619 2.2113232 0 4.0570016-.7075582 4.4905388-1.64933619zm8.572682-2.6912868.0166722.01640384 1.4291519 1.42915192c.4240954.42409542.4283364 1.10544001.0127229 1.53470933l-.0127229.0129305-1.5968459 1.5968459-3.204653-3.20465302 1.3689846-1.36898463c.5486524-.5467947 1.4331418-.55226265 1.9866902-.01640384zm-13.0632208-1.30000888c2.5079589 0 4.5458891.90792906 4.5863969 2.03492067l.0006146.0342176v.44873491c0 1.14277458-2.0537197 2.06913829-4.5870115 2.06913829-2.50799774 0-4.54588984-.90792907-4.58639688-2.03492069l-.00061453-.0342176v-.44873491c0-1.14277457 2.05368036-2.06913827 4.58701141-2.06913827z" fill="#2c3341" transform="translate(5 3)"/><g transform="translate(33 5.625)"><g transform="translate(.018 .018)"><path d="m12.4408342 1.55570816h-.6495657-3.00561744-.65507048l-.44038351.49300611-1.42023682 1.59405308-.44038351.49300611h-.64956568-2.95056953-.64956568l.42937392-.49848396.20367738-.23554736.42937392-.49848395h-.64956568-.83672867-.46790748c-.35781161 0-.64956568.30128151-.64956568.66281932v1.28181588.12051261c0 .36701565.29175407.66281932.64956568.66281932h.1816582 6.82594443.48992665c.35781161 0 .84773826-.21911383 1.0844444-.49300611l1.13398758-1.28181588z" fill="#005498"/><path d="m13.3050868.0602563c.3578117 0 .6495657.30128151.6495657.66281932v1.39685064c0 .36701566-.291754.66281932-.6495657.66281932h-.3523068-.9468245-.6495657l.4348787-.4930061.214687-.24650306.4348787-.4930061h-4.31025362l-2.29549905 2.57458745h-4.27722486l3.0661702-3.45104276.11560067-.13146829c.24221094-.26841444.73213759-.49300611 1.0899492-.49300611h.14862943 7.32688063z" fill="#ffd800"/></g><path d="m13.9726682 8.58527808v-.20268029c0-.02738923-.0165144-.04382277-.0550479-.04382277h-.1321151c-.0385335 0-.0660575-.00547784-.0715623-.02191138-.0110096-.01643354-.0110096-.04930061-.0110096-.10407907v-.76689839h.214687c.0165144 0 .0275239-.00547784.0385335-.01643353.0110096-.0109557.0165144-.02191139.0165144-.03834492v-.21363598c0-.01643354-.0055048-.02738923-.0165144-.03834492s-.0220191-.01643354-.0385335-.01643354h-.214687v-.27937013c0-.01643354-.0055048-.02738923-.0110096-.03286707-.0110096-.00547785-.0220191-.01095569-.0330287-.01095569h-.0055048l-.3192781.05477845c-.0165144.00547785-.0275239.01095569-.0385335.01643354-.0110096.01095569-.0165144.02191138-.0165144.03286707v.21363598h-.214687c-.0165144 0-.0275239.00547785-.0385335.01643354s-.0165144.02191138-.0165144.03834492v.17529106c0 .01643354.0055048.02738923.0165144.03286707.0110096.0109557.0220191.01643354.0385335.02191139l.214687.03286707v.76689839c0 .09312338.0110096.16981322.027524.23006952.0220191.0602563.0495431.10407906.0825719.13694614.0385335.03286707.0825719.05477845.1376198.06573415.0550479.01095569.1211055.01643353.1926678.01643353.0385336 0 .0715623 0 .1045911-.00547784.027524-.00547785.0660575-.01095569.1045911-.01643354.0275239 0 .0440383-.01643354.0440383-.04382276zm-1.1449971-.02738923v-.23554737c0-.01643353-.0055048-.02738922-.0165144-.03286707-.0110096-.00547784-.0220192-.01095569-.0330288-.01095569h-.0055048c-.0495431.00547785-.0990862.01095569-.1431246.01095569-.0440383.00547785-.1045911.00547785-.1816582.00547785-.027524 0-.0605527-.00547785-.0825719-.01643354-.027524-.01095569-.0495431-.02738923-.0715623-.04930061s-.0330288-.05477846-.0440384-.09312338-.0165144-.08764553-.0165144-.14790183v-.21911383c0-.0602563.0055048-.10955691.0165144-.14790183s.027524-.07121199.0440384-.09312337c.0220192-.02191139.0440383-.03834492.0715623-.04930061.027524-.0109557.0550479-.01643354.0825719-.01643354.0770671 0 .1376199 0 .1816582.00547784.0440384.00547785.0935815.00547785.1431246.0109557h.0055048c.0165144 0 .027524-.00547785.0330288-.0109557.0110096-.00547784.0165144-.01643353.0165144-.03286707v-.23554736c0-.02191138-.0055048-.03286708-.0110096-.03834492-.0110096-.00547785-.0220192-.01643354-.0440384-.02191138-.0385335-.01095569-.0825719-.01643354-.1431246-.02738923s-.1266103-.01095569-.2091822-.01095569c-.187163 0-.3357924.05477845-.4513931.16981321-.1100958.11503476-.1706486.27937013-.1706486.49848395v.21911383c0 .21363598.055048.3834492.1706486.49848395.1100959.11503476.2642301.16981322.4513931.16981322.0770672 0 .1486295-.00547785.2091822-.01095569.0605527-.01095569.1100959-.01643354.1431246-.02738923.0220192-.00547785.0330288-.01095569.0440384-.02191138.0110096-.00547785.0110096-.02191139.0110096-.03834492zm-1.7230005-.27937013c-.0330288.01643354-.0660575.02738923-.1045911.03834492-.0385335.01095569-.0770671.01643354-.1156007.01643354-.0550479 0-.0990862-.00547785-.1266102-.02191139-.027524-.01643353-.0385336-.04930061-.0385336-.10955691v-.02191138c0-.03286708.0055048-.0602563.0110096-.08216769.0055048-.02191138.0220192-.04382276.0385336-.0602563s.0440383-.02738923.0715623-.03286707c.027524-.00547785.0660575-.01095569.1156007-.01095569h.1486294zm.4183643-.64090794c0-.09860122-.0165143-.18076891-.0440383-.24650305-.027524-.06573415-.0715623-.12051261-.1211055-.16433537-.0550479-.04382277-.1156007-.07668984-.1926678-.09312338-.0770671-.02191138-.1651438-.03286707-.2587253-.03286707-.0880767 0-.1761534.00547784-.2587253.01643353-.0825719.0109557-.1486294.02191139-.1981726.03834492-.0330287.01095569-.0495431.02738923-.0495431.06025631v.21363598c0 .01643353.0055048.02738922.0110096.03834491.0110096.00547785.0220191.0109557.0330287.0109557h.0110096c.0220192 0 .0495432-.00547785.0770671-.00547785.0330288 0 .0660576-.00547785.1045911-.00547785.0385336 0 .0825719-.00547784.1266103-.00547784h.1266102c.0605528 0 .1100959.01095569.1431247.03286707.0330287.02191139.0550479.071212.0550479.14790184v.09312337h-.1431246c-.2256966 0-.3963452.03286707-.4954315.10407907-.1045911.07121199-.1541342.18624675-.1541342.33962643v.02191138c0 .08764553.0110096.15885752.0385336.21363598.0275239.0602563.0605527.10407907.104591.14242399.0440384.03286707.0880767.0602563.1431247.07668984.0550479.01643353.1100959.02191138.1706486.02191138.0770671 0 .1486294-.01095569.2036774-.03286708.0550479-.02191138.1100958-.04930061.1651438-.08764553v.04382277c0 .01643354.0055048.02738923.0165144.03834492.0110095.01095569.0220191.01643354.0385335.01643354h.2972589c.0165144 0 .027524-.00547785.0385335-.01643354.0110096-.01095569.0165144-.02191138.0165144-.03834492v-.94218945zm-1.414732.9476673v-.20268029c0-.02738923-.0165144-.04382277-.0550479-.04382277h-.13211509c-.03853356 0-.06605753-.00547784-.07156232-.02191138-.01100959-.01643354-.01100959-.04930061-.01100959-.10407907v-.76689839h.214687c.0165143 0 .0275239-.00547784.0385335-.01643353.0110096-.0109557.0165144-.02191139.0165144-.03834492v-.21363598c0-.01643354-.0055048-.02738923-.0165144-.03834492s-.0220192-.01643354-.0385335-.01643354h-.214687v-.27937013c0-.01643354-.00550479-.02738923-.01100959-.03286707-.01100959-.00547785-.02201917-.01095569-.03302876-.01095569h-.00550479l-.31927805.05477845c-.01651438.00547785-.02752397.01095569-.03853356.01643354-.01100959.01095569-.01651438.02191138-.01651438.03286707v.21363598h-.22019176c-.01651438 0-.02752397.00547785-.03853355.01643354-.01100959.01095569-.01651438.02191138-.01651438.03834492v.17529106c0 .01643354.00550479.02738923.01651438.03286707.01100958.0109557.02201917.01643354.03853355.02191139l.21468697.03286707v.76689839c0 .09312338.01100958.16981322.02752397.23006952.02201917.0602563.04954314.10407906.0825719.13694614.03853356.03286707.08257191.05477845.13761985.06573415.05504794.01095569.12110547.01643353.19266779.01643353.03853356 0 .07156232 0 .10459108-.00547784.02752397-.00547785.06605753-.01095569.10459113-.01643354.0330287 0 .0495431-.01643354.0495431-.04382276zm-1.15600672-.00547785v-.8764553c0-.08216769-.00550479-.15885753-.02201917-.23554737-.01100959-.07121199-.03853356-.13694614-.07156232-.19172459-.03302877-.05477846-.08257191-.09860122-.14312464-.12599045-.06055274-.03286708-.13761985-.04930061-.23670614-.04930061-.08257191 0-.15963903.01095569-.22569655.03286707-.06605753.02191138-.13211506.05477846-.20918217.10955691v-.06573414c0-.01643354-.00550479-.02738923-.01651438-.03834492s-.02201918-.01643354-.03853356-.01643354h-.29725887c-.01651438 0-.02752397.00547785-.03853356.01643354-.01100958.01095569-.01651438.02191138-.01651438.03834492v1.40232848c0 .01643354.0055048.02738923.01651438.03834492.01100959.01095569.02201918.01643354.03853356.01643354h.31927805c.01651438 0 .02752397-.00547785.03853355-.01643354.01100959-.01095569.01651439-.02191138.01651439-.03834492v-1.03531283c.04403835-.02191138.0880767-.04382276.13211505-.0602563.03853356-.01643354.08257191-.02191138.12110546-.02191138.03853356 0 .07156233.00547784.09908629.01095569.02752397.00547785.04403836.02191138.06055274.03834492.01651438.02191138.02201917.04382276.02752397.07668984.00550479.03286707.00550479.07121199.00550479.11503476v.8764553c0 .01643354.0055048.02738923.01651438.03834492.01100959.01095569.02201918.01643354.03853356.01643354h.31927805c.01651438 0 .02752397-.00547785.03853355-.01643354.02201918-.01095569.02752397-.02738923.02752397-.03834492zm-2.00374498-.60804087c0 .21363598-.07706711.3231929-.23670613.3231929-.07706712 0-.13761985-.02738923-.17615341-.08216769-.03853355-.05477845-.06055273-.13694614-.06055273-.24102521v-.18624675c0-.10955691.02201918-.18624675.06055273-.24102521.03853356-.05477845.09908629-.08216768.17615341-.08216768.15413423 0 .23670613.10955691.23670613.32319289zm.42937393-.18624675c0-.10407907-.01651438-.20268029-.04403835-.28484797-.02752397-.08216769-.07156232-.15337968-.12661026-.21363598s-.12661026-.10407907-.20918217-.13694614c-.08257191-.03286708-.1761534-.04930061-.28624928-.04930061s-.20367738.01643353-.28624929.04930061c-.0825719.03286707-.15413422.07668984-.20918216.13694614s-.09908629.13146829-.12661026.21363598c-.02752397.08216768-.04403835.1807689-.04403835.28484797v.18624675c0 .10407907.01651438.20268029.04403835.28484798.02752397.08216768.07156232.15337967.12661026.21363598.05504794.0602563.12661026.10407906.20918216.13694614.08257191.03286707.17615341.04930061.28624929.04930061s.20367737-.01643354.28624928-.04930061c.08257191-.03286708.15413423-.07668984.20918217-.13694614.05504794-.06025631.09908629-.1314683.12661026-.21363598.02752397-.08216769.04403835-.18076891.04403835-.28484798zm-1.46977997.77237624v-.23554737c0-.01643353-.0055048-.02738922-.01651438-.03286707-.01100959-.00547784-.02201918-.01095569-.03853356-.01095569h-.00550479c-.04954315.00547785-.09908629.01095569-.14312465.01095569-.04403835.00547785-.10459108.00547785-.18165819.00547785-.02752397 0-.06055274-.00547785-.08257191-.01643354-.02752397-.01095569-.04954315-.02738923-.07156232-.04930061-.02201918-.02191138-.03302877-.05477846-.04403835-.09312338-.01100959-.03834492-.01651439-.08764553-.01651439-.14790183v-.21911383c0-.0602563.0055048-.10955691.01651439-.14790183.01100958-.03834492.02752396-.07121199.04403835-.09312337.02201917-.02191139.04403835-.03834492.07156232-.04930061.02752397-.0109557.05504794-.01643354.08257191-.01643354.07706711 0 .13761984 0 .18165819.00547784.04403836.00547785.0935815.00547785.14312465.0109557h.00550479c.01651438 0 .02752397-.00547785.03853356-.0109557.01100958-.00547784.01651438-.01643353.01651438-.03286707v-.23554736c0-.02191138-.0055048-.03286708-.01100959-.03834492-.01100959-.00547785-.02201918-.01643354-.04403835-.02191138-.03853356-.01095569-.08257191-.01643354-.14312464-.02738923s-.12661026-.01095569-.20918217-.01095569c-.18716299 0-.33579243.05477845-.4513931.16981321-.11009588.11503476-.17064861.27937013-.17064861.49848395v.21911383c0 .21363598.05504794.3834492.17064861.49848395.11009588.11503476.26423011.16981322.4513931.16981322.07706711 0 .14862944-.00547785.20918217-.01095569.06055273-.01095569.10459108-.01643354.14312464-.02738923.02201917-.00547785.03302876-.01095569.04403835-.02191138.00550479-.00547785.01100959-.02191139.01100959-.03834492zm-1.30463616.02191138v-.8764553c0-.08216769-.00550479-.15885753-.02201917-.23554737-.01100959-.07121199-.03853356-.13694614-.07156232-.19172459-.03302876-.05477846-.08257191-.09860122-.14312464-.12599045-.06055274-.03286708-.13761985-.04930061-.23670614-.04930061-.08257191 0-.15963902.01095569-.22569655.03286707s-.13211505.05477846-.20918217.10955691v-.06573414c0-.01643354-.00550479-.02738923-.01651438-.03834492s-.02201918-.01643354-.03853356-.01643354h-.29725887c-.01651438 0-.02752397.00547785-.03853355.01643354-.01100959.01095569-.01651439.02191138-.01651439.03834492v1.40232848c0 .01643354.0055048.02738923.01651439.03834492.01100958.01095569.02201917.01643354.03853355.01643354h.31927805c.01651438 0 .02752397-.00547785.03853356-.01643354.01100958-.01095569.01651438-.02191138.01651438-.03834492v-1.03531283c.04403835-.02191138.0880767-.04382276.13211505-.0602563.03853356-.01643354.08257191-.02191138.12110547-.02191138.03853355 0 .07156232.00547784.09908629.01095569s.04403835.02191138.06055273.03834492c.01651438.02191138.02201918.04382276.02752397.07668984.00550479.03286707.00550479.07121199.00550479.11503476v.8764553c0 .01643354.0055048.02738923.01651438.03834492.01100959.01095569.02201918.01643354.03853356.01643354h.31927805c.01651438 0 .02752397-.00547785.03853356-.01643354.02201917-.01095569.02752396-.02738923.02752396-.03834492zm-2.04778332-.30128151c-.03302877.01643354-.06605753.02738923-.10459109.03834492s-.07706711.01643354-.11560067.01643354c-.05504794 0-.09908629-.00547785-.12661026-.02191139-.02752397-.01643353-.03853356-.04930061-.03853356-.10955691v-.02191138c0-.03286708.0055048-.0602563.01100959-.08216769.00550479-.02191138.02201918-.04382276.03853356-.0602563s.04403835-.02738923.07156232-.03286707c.02752397-.00547785.06605753-.01095569.11560067-.01095569h.14862944zm.42386913-.64090794c0-.09860122-.01651439-.18076891-.04403836-.24650305-.02752397-.06573415-.07156232-.12051261-.12110546-.16433537-.05504794-.04382277-.11560067-.07668984-.19266779-.09312338-.07706711-.02191138-.16514381-.03286707-.25872531-.03286707-.0880767 0-.17615341.00547784-.25872531.01643353-.08257191.0109557-.14862944.02191139-.19817258.03834492-.03302877.01095569-.04954315.02738923-.04954315.06025631v.21363598c0 .01643353.00550479.02738922.01100959.03834491.01100959.00547785.02201917.0109557.03302876.0109557h.01100959c.02201918 0 .04954314-.00547785.07706711-.00547785.03302877 0 .06605753-.00547785.11009588-.00547785.03853356 0 .08257191-.00547784.12661026-.00547784h.12661026c.06055273 0 .11009588.01095569.14312464.03286707.03302877.02191139.05504794.071212.05504794.14790184v.09312337h-.14312464c-.22569655 0-.39634516.03286707-.49543145.10407907-.10459108.07121199-.15413423.18624675-.15413423.33962643v.02191138c0 .08764553.01100959.15885752.03853356.21363598.02752397.0602563.06055273.10407907.10459108.14242399.04403835.03286707.0880767.0602563.14312464.07668984.05504794.01643353.11009588.02191138.17064861.02191138.07706712 0 .14862944-.01095569.20367738-.03286708.05504794-.02191138.11009588-.04930061.16514381-.08764553v.04382277c0 .01643354.0055048.02738923.01651439.03834492.01100958.01095569.02201917.01643354.03853355.01643354h.29725887c.01651439 0 .02752397-.00547785.03853356-.01643354s.01651438-.02191138.01651438-.03834492v-.94218945zm-1.8936491.41631627c0 .07121199-.02752397.13146829-.07706712.16981321-.04954314.03834492-.14862943.06025631-.28074449.06025631h-.04403835c-.02201918 0-.04403835 0-.06605753 0-.02201917 0-.04403835 0-.06605752 0h-.04403835v-.49300611h.29725887c.10459108 0 .1816582.02191138.22019175.07121199.03853356.04930061.06055274.10407907.06055274.16433537zm-.01100959-.78333193c0 .02738923-.0055048.05477846-.01100959.08216769-.01100959.02738922-.02201918.04930061-.04403835.06573414-.02201918.01643354-.04954315.03286708-.08257191.04382277s-.07706711.01643354-.13211505.01643354h-.29725887v-.45466119h.03853355.06055274.06055273.04403835c.13761985 0 .23120134.01643353.28624928.04930061.05504794.03286707.08257191.08764553.08257191.15885752zm.4513931.7559427c0-.09312338-.02201918-.16981321-.06605753-.23554736s-.09908629-.12051261-.17064861-.15337968c.07156232-.03286707.12661026-.08764553.16514382-.15337968.03853355-.07121199.06055273-.14790183.06055273-.23006952v-.04930061c0-.10407906-.02201918-.19172459-.06055273-.26293659-.03853356-.07121199-.09908629-.12599045-.17064861-.16981321-.07156233-.04382277-.15963903-.07121199-.26423011-.09312338-.10459109-.01643353-.21468696-.02738923-.34129722-.02738923-.04403835 0-.08807671 0-.13211506 0s-.0880767.00547785-.13211505.00547785-.08257191.00547785-.12110547.01095569c-.03853355.00547785-.06605752.00547785-.0880767.01095569-.04954314.01095569-.0880767.02191139-.11009588.04930061-.02201917.02191139-.03302876.06573415-.03302876.12599045v1.60500878c0 .0602563.01100959.09860122.03302876.12599045.02201918.02191138.06055274.03834491.11009588.04930061.02752397.00547784.06055273.01095569.0935815.01095569.03853356.00547784.07706711.00547784.12110546.01095569.04403836.00547784.08807671.00547784.13211506.00547784h.13761984c.11560068 0 .22569655-.01095569.32478284-.02738922.09908629-.01643354.187163-.04930061.26423011-.09312338.07706712-.04382277.13211505-.10407907.1816582-.18076891.04403835-.07668983.06605753-.17529106.06605753-.29032581z" fill="#005498"/></g></g></g></svg>