<?xml version="1.0" encoding="UTF-8"?>
<svg width="107px" height="32px" viewBox="0 0 107 32" xmlns="http://www.w3.org/2000/svg" xmlns:xlink="http://www.w3.org/1999/xlink" version="1.1">
 <!-- Generated by Pixelmator Pro 2.3 -->
 <g id="incasso-bancontact/icon-107-32">
  <path id="Rectangle" d="M0.5 0.5 L50.5 0.5 50.5 31.5 0.5 31.5 Z" fill="#ffffff" fill-opacity="1" stroke="#d0d0d0" stroke-width="1" stroke-opacity="1" stroke-linejoin="round" stroke-linecap="round"/>
  <g id="Payment-method-/-Incasso">
   <path id="incasso" d="M15.529 21.686 C15.748 21.713 15.912 21.822 16.034 21.968 16.098 22.047 16.146 22.13 16.188 22.224 L16.201 22.254 C16.244 22.358 16.282 22.479 16.324 22.635 L16.334 22.672 C16.363 22.789 16.519 23.432 16.577 23.639 16.673 23.981 16.772 24.244 16.879 24.433 16.929 24.523 16.978 24.59 17.022 24.633 17.038 24.648 17.052 24.66 17.064 24.667 17.071 24.671 17.075 24.673 17.078 24.674 17.174 24.704 17.201 24.701 17.227 24.686 17.273 24.658 17.337 24.587 17.426 24.453 L17.441 24.429 17.608 24.163 C17.679 24.054 17.741 23.968 17.812 23.888 17.925 23.762 18.051 23.662 18.208 23.596 18.404 23.514 18.604 23.513 18.797 23.565 18.915 23.597 19.024 23.647 19.14 23.716 L19.166 23.731 19.194 23.748 C19.245 23.779 19.298 23.815 19.362 23.859 L19.624 24.042 19.661 24.067 19.693 24.088 C20.146 24.387 20.407 24.44 20.702 24.27 L20.717 24.261 20.732 24.252 C21.054 24.052 21.478 24.152 21.678 24.474 21.878 24.797 21.779 25.22 21.456 25.421 21.433 25.435 21.41 25.448 21.388 25.462 20.902 25.741 20.393 25.804 19.89 25.681 19.54 25.595 19.239 25.441 18.88 25.198 L18.854 25.181 C18.83 25.164 18.806 25.148 18.78 25.129 L18.672 25.054 18.607 25.158 18.585 25.192 C18.388 25.494 18.199 25.707 17.931 25.866 17.562 26.087 17.13 26.13 16.669 25.986 16.244 25.854 15.927 25.544 15.681 25.109 15.543 24.864 15.429 24.583 15.325 24.252 L15.316 24.222 15.279 24.316 C15.198 24.517 15.131 24.673 15.062 24.816 L15.047 24.847 C14.969 25.006 14.893 25.139 14.811 25.25 14.674 25.436 14.522 25.573 14.303 25.643 14.021 25.734 13.772 25.667 13.544 25.523 13.42 25.444 13.302 25.34 13.178 25.209 12.999 25.019 12.803 24.767 12.578 24.448 L12.559 24.42 C12.499 24.335 12.437 24.245 12.372 24.149 L12.318 24.067 C12.272 23.999 12.225 23.928 12.174 23.85 L11.832 23.324 11.781 23.247 11.74 23.185 C11.717 23.151 11.697 23.123 11.681 23.1 L11.669 23.083 11.668 23.082 C11.509 22.94 11.419 22.726 11.443 22.499 L11.445 22.487 C11.491 22.11 11.834 21.842 12.211 21.888 12.375 21.908 12.478 21.966 12.577 22.047 12.614 22.077 12.644 22.107 12.674 22.14 12.704 22.174 12.734 22.211 12.766 22.255 L12.778 22.272 C12.827 22.338 12.883 22.421 12.961 22.538 L13.296 23.054 13.365 23.158 C13.392 23.2 13.419 23.24 13.445 23.279 L13.513 23.381 13.557 23.447 C13.601 23.512 13.644 23.573 13.685 23.632 L13.722 23.684 13.761 23.739 C13.813 23.812 13.862 23.879 13.909 23.941 L13.933 23.973 13.951 23.93 13.966 23.895 C14.01 23.788 14.059 23.662 14.116 23.512 L14.305 23.018 C14.481 22.562 14.525 22.464 14.625 22.276 L14.629 22.269 C14.694 22.149 14.758 22.05 14.836 21.963 14.899 21.893 14.97 21.832 15.057 21.783 15.195 21.704 15.356 21.665 15.529 21.686 Z M23.767 20.546 L27.462 24.243 23.342 25.242 C23.042 25.315 22.771 25.05 22.831 24.751 L22.833 24.742 Z M11.778 23.038 L11.78 23.04 C11.849 23.088 11.93 23.122 12.043 23.138 11.949 23.125 11.862 23.092 11.784 23.042 Z M34.126 10.185 L37.823 13.882 28.464 23.242 24.768 19.545 Z M18.707 18.751 C19.113 19.633 20.595 20.338 22.504 20.571 L22.126 22.017 C20.095 21.693 18.633 20.825 18.596 19.799 L18.595 19.76 18.595 19.241 C18.595 19.073 18.634 18.909 18.707 18.751 Z M11.111 17.342 C11.61 18.428 13.732 19.245 16.275 19.245 16.765 19.245 17.239 19.214 17.689 19.157 L17.745 19.15 17.745 19.785 C17.745 20.076 17.812 20.356 17.942 20.622 17.418 20.701 16.858 20.744 16.275 20.744 13.391 20.744 11.047 19.694 11.001 18.39 L11 18.351 11 17.832 C11 17.664 11.038 17.5 11.111 17.342 Z M18.707 16.07 C19.207 17.157 21.337 17.973 23.888 17.973 24.007 17.973 24.124 17.971 24.241 17.968 L22.823 19.352 22.804 19.422 C20.429 19.199 18.637 18.255 18.596 17.119 L18.595 17.079 18.595 16.56 C18.595 16.392 18.634 16.228 18.707 16.07 Z M11.111 14.661 C11.609 15.747 13.728 16.564 16.268 16.564 16.757 16.564 17.231 16.533 17.68 16.476 L17.736 16.469 17.736 17.969 C17.27 18.03 16.778 18.063 16.268 18.063 13.388 18.063 11.047 17.013 11.001 15.71 L11 15.67 11 15.151 C11 14.983 11.038 14.819 11.111 14.661 Z M18.707 13.252 C19.207 14.338 21.337 15.155 23.888 15.155 25.592 15.155 27.108 14.791 28.076 14.225 L25.742 16.503 C25.165 16.601 24.54 16.654 23.888 16.654 20.994 16.654 18.643 15.604 18.596 14.3 L18.595 14.261 18.595 13.742 C18.595 13.574 18.634 13.41 18.707 13.252 Z M16.268 10.055 C16.757 10.055 17.231 10.086 17.68 10.142 L17.736 10.15 17.736 15.254 C17.27 15.315 16.778 15.348 16.268 15.348 13.388 15.348 11.047 14.3 11.001 13 L11 12.961 11 12.443 C11 11.124 13.359 10.055 16.268 10.055 Z M29.069 10.605 C29.139 10.757 29.178 10.914 29.181 11.075 L29.181 11.096 29.181 11.615 C29.181 12.936 26.811 14.008 23.888 14.008 20.994 14.008 18.643 12.958 18.596 11.654 L18.595 11.615 18.595 11.096 C18.595 10.927 18.634 10.764 18.707 10.605 19.207 11.692 21.337 12.508 23.888 12.508 26.44 12.508 28.569 11.692 29.069 10.605 Z M38.961 7.625 L38.98 7.644 40.629 9.293 C41.119 9.782 41.124 10.568 40.644 11.064 L40.629 11.079 38.787 12.921 35.089 9.224 36.669 7.644 C37.302 7.013 38.322 7.007 38.961 7.625 Z M23.888 6 C26.782 6 29.133 7.048 29.18 8.348 L29.181 8.387 29.181 8.905 C29.181 10.224 26.811 11.293 23.888 11.293 20.994 11.293 18.643 10.245 18.596 8.945 L18.595 8.905 18.595 8.387 C18.595 7.069 20.965 6 23.888 6 Z" fill="#2c3341" fill-opacity="1" stroke="none"/>
  </g>
  <path id="Rectangle-1" d="M56.5 0.5 L106.5 0.5 106.5 31.5 56.5 31.5 Z" fill="#ffffff" fill-opacity="1" stroke="#d0d0d0" stroke-width="1" stroke-opacity="1" stroke-linejoin="round" stroke-linecap="round"/>
  <g id="Bancontact">
   <path id="Bancontact-1" d="M70 23.771 L70 20.304 71.07 20.304 C71.847 20.304 72.347 20.597 72.347 21.201 72.347 21.542 72.189 21.78 71.966 21.919 72.288 22.067 72.476 22.355 72.476 22.746 72.476 23.444 71.966 23.771 71.174 23.771 Z M70.688 21.746 L71.199 21.746 C71.511 21.746 71.644 21.592 71.644 21.31 71.644 21.008 71.402 20.909 71.075 20.909 L70.688 20.909 Z M70.688 23.167 L71.114 23.167 C71.53 23.167 71.773 23.063 71.773 22.736 71.773 22.414 71.565 22.28 71.174 22.28 L70.688 22.28 Z M73.811 23.831 C73.133 23.831 72.791 23.499 72.791 23.053 72.791 22.563 73.192 22.275 73.786 22.27 73.934 22.273 74.081 22.286 74.227 22.31 L74.227 22.191 C74.227 21.889 74.054 21.746 73.722 21.746 73.499 21.743 73.277 21.783 73.068 21.864 L72.945 21.33 C73.157 21.24 73.499 21.181 73.801 21.181 74.529 21.181 74.891 21.567 74.891 22.236 L74.891 23.613 C74.688 23.717 74.306 23.831 73.811 23.831 Z M74.227 23.271 L74.227 22.741 C74.112 22.715 73.994 22.702 73.876 22.701 73.648 22.701 73.469 22.79 73.469 23.023 73.469 23.231 73.618 23.34 73.881 23.34 74 23.344 74.119 23.32 74.227 23.271 Z M75.372 23.771 L75.372 21.399 C75.728 21.256 76.108 21.182 76.491 21.181 77.214 21.181 77.63 21.537 77.63 22.196 L77.63 23.771 76.947 23.771 76.947 22.246 C76.947 21.904 76.788 21.746 76.486 21.746 76.336 21.743 76.188 21.774 76.051 21.835 L76.051 23.771 Z M80.019 21.33 L79.89 21.869 C79.713 21.793 79.523 21.751 79.33 21.746 78.929 21.746 78.711 22.028 78.711 22.493 78.711 23.003 78.939 23.266 79.365 23.266 79.555 23.261 79.742 23.217 79.915 23.137 L80.024 23.687 C79.799 23.787 79.556 23.836 79.311 23.83 78.488 23.83 78.013 23.32 78.013 22.513 78.013 21.711 78.483 21.181 79.271 21.181 79.528 21.18 79.782 21.23 80.019 21.33 Z M81.495 23.831 C80.733 23.831 80.257 23.301 80.257 22.503 80.257 21.711 80.733 21.181 81.495 21.181 82.263 21.181 82.728 21.711 82.728 22.503 82.728 23.301 82.263 23.831 81.495 23.831 Z M81.495 23.266 C81.847 23.266 82.03 22.974 82.03 22.503 82.03 22.038 81.847 21.746 81.495 21.746 81.149 21.746 80.955 22.038 80.955 22.503 80.955 22.974 81.149 23.266 81.495 23.266 Z M83.124 23.771 L83.124 21.399 C83.48 21.256 83.86 21.182 84.243 21.181 84.966 21.181 85.382 21.537 85.382 22.196 L85.382 23.771 84.699 23.771 84.699 22.246 C84.699 21.904 84.54 21.746 84.238 21.746 84.088 21.743 83.939 21.774 83.802 21.835 L83.802 23.771 Z M86.924 23.831 C86.334 23.831 86.032 23.509 86.032 22.855 L86.032 21.785 85.695 21.785 85.695 21.24 86.032 21.24 86.032 20.691 86.716 20.656 86.716 21.24 87.265 21.24 87.265 21.785 86.716 21.785 86.716 22.845 C86.716 23.132 86.834 23.266 87.057 23.266 87.146 23.266 87.234 23.256 87.32 23.236 L87.354 23.786 C87.213 23.817 87.068 23.832 86.924 23.83 Z M88.649 23.831 C87.97 23.831 87.628 23.499 87.628 23.053 87.628 22.563 88.03 22.275 88.624 22.27 88.771 22.273 88.919 22.286 89.065 22.31 L89.065 22.191 C89.065 21.889 88.891 21.746 88.559 21.746 88.336 21.743 88.114 21.783 87.906 21.864 L87.782 21.33 C87.995 21.24 88.337 21.181 88.639 21.181 89.367 21.181 89.728 21.567 89.728 22.236 L89.728 23.613 C89.525 23.717 89.144 23.831 88.649 23.831 Z M89.065 23.271 L89.065 22.741 C88.949 22.715 88.831 22.702 88.713 22.701 88.485 22.701 88.307 22.79 88.307 23.023 88.307 23.231 88.455 23.34 88.718 23.34 88.837 23.344 88.956 23.32 89.065 23.271 Z M92.067 21.33 L91.938 21.869 C91.761 21.793 91.571 21.751 91.378 21.746 90.977 21.746 90.759 22.028 90.759 22.493 90.759 23.003 90.987 23.266 91.413 23.266 91.603 23.261 91.79 23.217 91.963 23.137 L92.071 23.687 C91.847 23.787 91.604 23.836 91.358 23.83 90.536 23.83 90.061 23.32 90.061 22.513 90.061 21.711 90.531 21.181 91.319 21.181 91.575 21.18 91.83 21.23 92.067 21.33 Z M93.569 23.831 C92.98 23.831 92.678 23.509 92.678 22.855 L92.678 21.785 92.341 21.785 92.341 21.24 92.678 21.24 92.678 20.691 93.361 20.656 93.361 21.24 93.911 21.24 93.911 21.785 93.361 21.785 93.361 22.845 C93.361 23.132 93.48 23.266 93.703 23.266 93.791 23.266 93.879 23.256 93.965 23.236 L94 23.786 C93.859 23.817 93.714 23.832 93.569 23.83 Z" fill="#1e3764" fill-opacity="1" stroke="none"/>
   <defs>
    <linearGradient id="linear-gradient" gradientUnits="userSpaceOnUse" x1="72.427" y1="16.383" x2="81.206" y2="13.122">
     <stop offset="0" stop-color="#005ab9" stop-opacity="1"/>
     <stop offset="1" stop-color="#1e3764" stop-opacity="1"/>
    </linearGradient>
   </defs>
   <path id="blue-symbol" d="M74.767 18.571 C78.384 18.571 80.192 16.16 82 13.749 L70 13.749 70 18.571 Z" fill-opacity="1" fill="url(#linear-gradient)" stroke="none"/>
   <defs>
    <linearGradient id="linear-gradient-1" gradientUnits="userSpaceOnUse" x1="82.727" y1="14.167" x2="92.048" y2="10.987">
     <stop offset="0" stop-color="#fba900" stop-opacity="1"/>
     <stop offset="1" stop-color="#ffd800" stop-opacity="1"/>
    </linearGradient>
   </defs>
   <path id="yellow-symbol" d="M89.233 8.927 C85.616 8.927 83.808 11.338 82 13.749 L94 13.749 94 8.927 Z" fill-opacity="1" fill="url(#linear-gradient-1)" stroke="none"/>
  </g>
 </g>
</svg>
