<svg height="360" viewBox="0 0 640 360" width="640" xmlns="http://www.w3.org/2000/svg"><g fill="none" fill-rule="nonzero"><path d="m51.3291324 254.274857c2.4775172.304201 4.3407981 1.537943 5.7182386 3.200813.7329857.884874 1.274393 1.829301 1.7478479 2.898577l.1441478.334554c.4977386 1.18708.9277812 2.550829 1.3997536 4.318158l.1110552.425908c.329427 1.31767 2.0959188 8.613239 2.7545487 10.953603 1.0924175 3.881776 2.2077446 6.859826 3.4189539 9.005304.5727437 1.014531 1.1288251 1.769777 1.629645 2.259.1825657.178338.3409203.30479.4723618.387384.0752742.0473.1246846.070335.1586612.080926 1.0859122.338508 1.393376.30746 1.6885919.131461.5262461-.313734 1.2512107-1.119961 2.2554031-2.639945l.1718297-.263557 1.8931867-3.01449c.8024425-1.246073 1.501334-2.213812 2.3078104-3.118554 1.2777721-1.433464 2.7068626-2.561618 4.4871964-3.307547 2.2263704-.932811 4.4946489-.950322 6.6754991-.356423 1.3416672.365369 2.5744471.934704 3.8948493 1.708191l.2889649.171627.3128708.191086c.5772207.357477 1.1801621.757727 1.9043158 1.257398l2.9766539 2.07619.4137835.280319.3618999.240756c5.1360795 3.386052 8.0925135 3.988504 11.4405395 2.063032l.165987-.097343.167357-.101925c3.65615-2.267807 8.458467-1.142331 10.726273 2.513819 2.267807 3.656151 1.142332 8.458467-2.513819 10.726274-.258436.1603-.517906.315362-.778408.465178-5.507229 3.167243-11.26781 3.885003-16.973558 2.488104-3.9693621-.971791-7.3741554-2.722885-11.441041-5.470312l-.2987764-.202813c-.273549-.186561-.5431892-.372521-.8410067-.5798l-1.2165763-.85297-.739511 1.174847-.2457252.382295c-2.2391198 3.429303-4.385812 5.841531-7.417716 7.649069-4.1835303 2.494106-9.0803287 2.988579-14.3035914 1.36035-4.8129203-1.500314-8.4085713-5.012703-11.191477-9.942208-1.5704258-2.781777-2.8612733-5.961457-4.0400975-9.717985l-.1044963-.335647-.4213792 1.06305c-.9106751 2.277191-1.6731061 4.043295-2.456754 5.668475l-.1681287.345859c-.8854985 1.806839-1.7491866 3.310201-2.67512 4.573415-1.546713 2.110119-3.2689816 3.656028-5.7564377 4.455136-3.19257 1.025629-6.0175931.267933-8.5976255-1.365977-1.4048743-.889694-2.7446697-2.069197-4.1526082-3.558058-2.0304884-2.147193-4.2527146-5.001403-6.7985404-8.62239l-.2190092-.312249c-.6796686-.971323-1.3798024-1.99339-2.1111742-3.079773l-.619084-.923595c-.51916-.777832-1.0507199-1.582395-1.6266151-2.461004l-3.88308028-5.96393-.57595273-.873091-.4685969-.700275c-.25883673-.383305-.47843668-.701625-.6638855-.962317l-.13948384-.193677-.01085442-.009609c-1.79659569-1.615375-2.81547562-4.03902-2.54448814-6.614109l.01635253-.133181c.52432696-4.2703 4.41114042-7.307011 8.68144088-6.782684 1.8584933.228194 3.0351811.883612 4.1479861 1.794034.4206022.344109.7666026.687169 1.1037535 1.062832.344649.384018.6783928.803227 1.0438828 1.297189l.1386301.188818c.5470084.750514 1.191523 1.698247 2.0653652 3.025314l3.8027704 5.839823.7775823 1.185427c.3125561.474736.6124714.927936.9059517 1.368808l.7726755 1.154329.5049446.746909c.4989039.734768.9800999 1.43364 1.4473133 2.10134l.4136777.588148.445399.626125c.5870669.820178 1.146812 1.581522 1.6776971 2.281472l.2779108.364129.2017825-.482545.1642201-.398745c.4989574-1.218128 1.0559603-2.636368 1.7080247-4.337842l2.1405714-5.60223c1.9868194-5.167654 2.4883987-6.28048 3.6271582-8.407523l.0441171-.08232c.7308348-1.362359 1.4637213-2.485831 2.3432586-3.462345.7165141-.795516 1.5200958-1.484259 2.5053815-2.046624 1.5590723-.88986 3.3820347-1.3387 5.3485446-1.097243zm93.3620036-12.922445 41.883241 41.906611-46.69832 11.322563c-3.398047.826281-6.468996-2.179097-5.790913-5.569264l.021932-.103897zm-135.87582513 29.660129.02943209.018757c.77738772.487373 1.69152124.842563 2.97703474 1.000404-1.0675751-.131081-2.05805093-.472319-2.93506102-.977164zm253.27696913-147.085423 41.907001 41.906611-106.078192 106.078191-41.88324-41.906611zm-174.7497854 98.49696c4.6052093 10.003533 21.3952184 17.986415 43.0351074 20.630731l-4.285632 16.390008c-23.013374-3.673476-39.5863992-13.51617-40.0030047-25.13511l-.0080362-.448545v-5.882295c0-1.90302.4359444-3.760937 1.2615655-5.554789zm-86.0850772-15.970277c5.65069238 12.315045 29.7071266 21.568243 58.529347 21.568243 5.5530503 0 10.9242948-.349064 16.0257864-.991872l.6362751-.081876v7.203081c0 3.290949.7593694 6.467603 2.2314804 9.479736-5.9391708.896925-12.2903072 1.383828-18.8935419 1.383828-32.6890556 0-59.2507889-11.901696-59.77875466-26.675496l-.00800974-.448561v-5.882295c0-1.904045.43451099-3.76145 1.2574174-5.554788zm86.0850772-14.41174c5.6693336 12.315046 29.8051284 21.568243 58.7224304 21.568243 1.344681 0 2.679023-.020009 4.001649-.059406l-16.076115 15.689031-.207853.794177c-26.925138-2.533355-47.2319207-13.228741-47.6936407-26.105903l-.0080362-.448546v-5.882807c0-1.904045.4359444-3.760937 1.2615655-5.554789zm-86.08681341-15.969765c5.64289006 12.315046 29.66610781 21.568243 58.44853121 21.568243 5.5453829 0 10.9092109-.349064 16.0036585-.991871l.6353966-.081877v16.998535c-5.2821504.694477-10.8641496 1.06811-16.6390551 1.06811-32.6439194 0-59.16897696-11.901695-59.69621372-26.674998l-.00799868-.448546v-5.882295c0-1.904045.43391102-3.761449 1.25568119-5.555301zm86.08681341-15.969765c5.6693336 12.314882 29.8051284 21.567957 58.7224304 21.567957 19.312253 0 36.491878-4.12679 47.462549-10.53664l-26.454739 25.819846c-6.538039 1.105537-13.616843 1.709977-21.00781 1.709977-32.796894 0-59.4462522-11.901537-59.9759597-26.675141l-.0080362-.448555v-5.882216c0-1.904533.4359444-3.761913 1.2615655-5.555228zm-27.6382822-36.224101c5.5439093 0 10.9105077.343505 16.0038212.984375l.6352339.081655v57.851424c-5.2821504.693815-10.8641496 1.066542-16.6390551 1.066542-32.6439194 0-59.16897696-11.87382-59.69621372-26.610801l-.00799868-.447442v-5.868022c0-14.943848 26.7305565-27.057731 59.7042124-27.057731zm145.0831426 6.232103c.791221 1.718617 1.224561 3.496071 1.259299 5.317479l.002267.237822v5.882295c0 14.980196-26.856334 27.123544-59.983996 27.123544-32.796894 0-59.4462522-11.901695-59.9759597-26.674998l-.0080362-.448546v-5.882295c0-1.904557.4359444-3.761962 1.2615655-5.555301 5.6693336 12.315558 29.8051284 21.568243 58.7224304 21.568243s53.053097-9.252685 58.72243-21.568243zm112.104303-35.1937503.218021.2145118 18.688909 18.6889095c5.545864 5.545863 5.601322 14.455754.166376 20.069276l-.166376.169091-20.881831 20.881831-41.907-41.907001 17.902106-17.9021065c7.174686-7.1503923 18.741085-7.2218962 25.979795-.2145118zm-170.826733-17.000116c32.796385 0 59.446242 11.8729184 59.97596 26.6105013l.008036.447461v5.868072c0 14.943975-26.856334 27.057962-59.983996 27.057962-32.796894 0-59.4462522-11.872919-59.9759597-26.610502l-.0080362-.44746v-5.868072c0-14.9439756 26.8558199-27.0579623 59.9839959-27.0579623z" fill="#2c3341" transform="translate(40 10)"/><g transform="translate(418 69)"><g transform="translate(.247 .246)"><path d="m170.617155 21.3354262h-8.90833-41.219896-8.983824l-6.039545 6.7612266-19.4775337 21.8612994-6.0395453 6.7612267h-8.9083294-40.4649535-8.9083293l5.8885566-6.8363514 2.7932897-3.2303638 5.8885567-6.8363514h-8.9083293-11.4751361-6.41701686c-4.90713056 0-8.90832933 4.1318607-8.90832933 9.0900936v17.5791892 1.6527443c0 5.0333576 4.00119877 9.0900935 8.90832933 9.0900935h2.49131246 93.612952 6.718994c4.907131 0 11.626125-3.0049896 14.872381-6.7612266l15.551829-17.5791892z" fill="#005498"/><path d="m182.469762.82637214c4.907131 0 8.90833 4.13186071 8.90833 9.09009357v19.15680879c0 5.0333576-4.001199 9.0900935-8.90833 9.0900935h-4.831636-12.985022-8.908329l5.96405-6.7612266 2.944279-3.3806133 5.964051-6.7612266h-59.11205l-31.4811297 35.3086279h-58.6590838l42.0503342-47.32858636 1.5853806-1.80299376c3.3217499-3.68111227 10.0407441-6.76122662 14.9478747-6.76122662h2.0383465 100.4829345z" fill="#ffd800"/></g><path d="m191.625164 117.740956v-2.779615c0-.375624-.226483-.600998-.754943-.600998h-1.811864c-.52846 0-.905931-.075125-.981426-.300499-.150988-.225374-.150988-.676122-.150988-1.42737v-10.517464h2.944278c.226483 0 .377472-.075124.52846-.225374.150989-.150249.226483-.300499.226483-.525873v-2.9298648c0-.2253742-.075494-.3756237-.226483-.5258732-.150988-.1502494-.301977-.2253742-.52846-.2253742h-2.944278v-3.8313617c0-.2253742-.075495-.3756237-.150989-.4507485-.150989-.0751247-.301977-.1502494-.452966-.1502494h-.075494l-4.378671.7512474c-.226483.0751247-.377471.1502494-.52846.2253742-.150988.1502495-.226483.3004989-.226483.4507484v2.9298649h-2.944278c-.226483 0-.377472.0751247-.52846.2253742-.150989.1502495-.226483.300499-.226483.5258732v2.4039915c0 .225374.075494.375624.226483.450749.150988.150249.301977.225374.52846.300499l2.944278.450748v10.517464c0 1.27712.150989 2.328867.377472 3.155239.301977.826372.679449 1.42737 1.132415 1.878118.52846.450749 1.132414.751248 1.887357.901497.754944.15025 1.660875.225374 2.642302.225374.52846 0 .981426 0 1.434392-.075124.377471-.075125.905931-.15025 1.434392-.225375.377471 0 .603954-.225374.603954-.600998zm-15.702818-.375623v-3.230364c0-.225374-.075494-.375624-.226483-.450749-.150988-.075124-.301977-.150249-.452966-.150249h-.075494c-.679449.075125-1.358898.150249-1.962852.150249-.603955.075125-1.434392.075125-2.491313.075125-.377471 0-.830437-.075125-1.132414-.225374-.377472-.150249-.679449-.375624-.981426-.676123-.301978-.300499-.452966-.751247-.603955-1.27712s-.226483-1.201996-.226483-2.028368v-3.00499c0-.826372.075494-1.502495.226483-2.028368s.377472-.976621.603955-1.27712c.301977-.300499.603954-.525874.981426-.676123.377471-.15025.754943-.225374 1.132414-.225374 1.056921 0 1.887358 0 2.491313.075124.603954.075125 1.283403.075125 1.962852.15025h.075494c.226483 0 .377472-.075125.452966-.15025.150989-.075124.226483-.225374.226483-.450748v-3.2303638c0-.300499-.075494-.4507485-.150988-.5258732-.150989-.0751247-.301978-.2253742-.603955-.300499-.52846-.1502494-1.132415-.2253742-1.962852-.3756237-.830438-.1502494-1.736369-.1502494-2.868784-.1502494-2.566807 0-4.605153.7512474-6.190534 2.3288669-1.509886 1.5776192-2.340324 3.8313622-2.340324 6.8363512v3.00499c0 2.929865.754943 5.258732 2.340324 6.836351 1.509886 1.57762 3.623727 2.328867 6.190534 2.328867 1.05692 0 2.038346-.075125 2.868784-.150249.830437-.15025 1.509886-.225375 1.962852-.375624.301977-.075125.452966-.15025.603955-.300499.150988-.075125.150988-.300499.150988-.525873zm-23.629721-3.831362c-.452966.225374-.905931.375624-1.434392.525873-.52846.15025-1.05692.225374-1.58538.225374-.754943 0-1.358898-.075124-1.73637-.300499-.377471-.225374-.52846-.676122-.52846-1.502494v-.300499c0-.450749.075494-.826372.150989-1.126871.075494-.300499.301977-.600998.52846-.826373.226483-.225374.603955-.375623.981426-.450748.377472-.075125.905932-.150249 1.585381-.150249h2.038346zm5.737568-8.789595c0-1.352245-.226483-2.479116-.603954-3.380613-.377472-.901497-.981426-1.6527442-1.660875-2.2537421-.754943-.6009979-1.585381-1.0517464-2.642301-1.2771206-1.056921-.300499-2.26483-.4507484-3.548233-.4507484-1.207909 0-2.415818.0751247-3.548233.2253742s-2.038346.3004989-2.717795.5258732c-.452966.1502494-.679449.3756237-.679449.8263721v2.9298646c0 .225374.075494.375624.150988.525873.150989.075125.301978.15025.452966.15025h.150989c.301977 0 .679449-.075125 1.05692-.075125.452966 0 .905932-.075125 1.434392-.075125.528461 0 1.132415-.075124 1.73637-.075124h1.736369c.830437 0 1.509886.150249 1.962852.450748s.754943.976622.754943 2.028368v1.277121h-1.962852c-3.095267 0-5.435591.450748-6.794488 1.42737-1.434392.976621-2.113841 2.554241-2.113841 4.657734v.300499c0 1.201995.150988 2.178617.52846 2.929865.377472.826372.830438 1.42737 1.434392 1.953243.603955.450748 1.207909.826372 1.962852 1.051746s1.509887.300499 2.340324.300499c1.056921 0 2.038347-.150249 2.79329-.450748s1.509886-.676123 2.264829-1.201996v.600998c0 .225374.075495.375623.226483.525873.150989.150249.301977.225374.52846.225374h4.076694c.226482 0 .377471-.075125.52846-.225374.150988-.15025.226483-.300499.226483-.525873v-12.921456zm-19.402039 12.99658v-2.779615c0-.375624-.226483-.600998-.754943-.600998h-1.811864c-.52846 0-.905931-.075125-.981426-.300499-.150988-.225374-.150988-.676122-.150988-1.42737v-10.517464h2.944278c.226483 0 .377471-.075124.52846-.225374.150989-.150249.226483-.300499.226483-.525873v-2.9298648c0-.2253742-.075494-.3756237-.226483-.5258732-.150989-.1502494-.301977-.2253742-.52846-.2253742h-2.944278v-3.8313617c0-.2253742-.075495-.3756237-.150989-.4507485-.150989-.0751247-.301977-.1502494-.452966-.1502494h-.075494l-4.378671.7512474c-.226483.0751247-.377471.1502494-.52846.2253742-.150988.1502495-.226483.3004989-.226483.4507484v2.9298649h-3.019772c-.226483 0-.377472.0751247-.528461.2253742-.150988.1502495-.226483.300499-.226483.5258732v2.4039915c0 .225374.075495.375624.226483.450749.150989.150249.301978.225374.528461.300499l2.944278.450748v10.517464c0 1.27712.150989 2.328867.377471 3.155239.301978.826372.679449 1.42737 1.132415 1.878118.52846.450749 1.132415.751248 1.887358.901497.754943.15025 1.660875.225374 2.642301.225374.52846 0 .981426 0 1.434392-.075124.377472-.075125.905932-.15025 1.434392-.225375.452966 0 .679449-.225374.679449-.600998zm-15.853806-.075124v-12.019959c0-1.126871-.075495-2.178617-.301978-3.230364-.150988-.976621-.52846-1.878118-.981426-2.6293654s-1.132414-1.3522454-1.962852-1.7278691c-.830437-.4507484-1.887358-.6761226-3.246256-.6761226-1.132414 0-2.189335.1502494-3.095267.4507484-.905931.300499-1.811863.7512474-2.868784 1.5024948v-.9014969c0-.2253742-.075494-.3756237-.226482-.5258732-.150989-.1502494-.301978-.2253742-.528461-.2253742h-4.076693c-.226483 0-.377471.0751248-.52846.2253742-.150989.1502495-.226483.300499-.226483.5258732v19.2319338c0 .225374.075494.375623.226483.525873.150989.150249.301977.225374.52846.225374h4.378671c.226483 0 .377471-.075125.52846-.225374.150988-.15025.226483-.300499.226483-.525873v-14.198576c.603954-.300499 1.207909-.600998 1.811863-.826372.528461-.225375 1.132415-.300499 1.660875-.300499s.981426.075124 1.358898.150249.603955.300499.830437.525873c.226483.300499.301978.600998.377472 1.051747.075494.450748.075494.976621.075494 1.577619v12.019959c0 .225374.075495.375623.226483.525873.150989.150249.301978.225374.528461.225374h4.37867c.226483 0 .377471-.075125.52846-.225374.301977-.15025.377472-.375624.377472-.525873zm-27.4799315-8.338846c0 2.929864-1.0569204 4.432359-3.2462556 4.432359-1.0569204 0-1.8873579-.375623-2.4158181-1.126871-.5284602-.751247-.8304375-1.878118-.8304375-3.305488v-2.554242c0-1.502494.3019773-2.554241.8304375-3.305488.5284602-.751248 1.3588977-1.126871 2.4158181-1.126871 2.1138409 0 3.2462556 1.502495 3.2462556 4.432359zm5.8885565-2.554242c0-1.42737-.226483-2.779615-.603954-3.906486-.377472-1.126871-.9814265-2.103493-1.7363696-2.929865-.7549432-.8263721-1.7363693-1.42737-2.868784-1.8781185-1.1324148-.4507484-2.4158182-.6761226-3.9257045-.6761226s-2.7932897.2253742-3.9257044.6761226c-1.1324148.4507485-2.1138409 1.0517464-2.868784 1.8781185-.7549432.826372-1.3588977 1.802994-1.7363693 2.929865s-.6039546 2.479116-.6039546 3.906486v2.554242c0 1.42737.226483 2.779615.6039546 3.906486s.9814261 2.103493 1.7363693 2.929865c.7549431.826372 1.7363692 1.42737 2.868784 1.878118 1.1324147.450749 2.4158181.676123 3.9257044.676123s2.7932897-.225374 3.9257045-.676123c1.1324147-.450748 2.1138408-1.051746 2.868784-1.878118.7549431-.826372 1.3588976-1.802994 1.7363696-2.929865.377471-1.126871.603954-2.479116.603954-3.906486zm-20.1569823 10.592589v-3.230364c0-.225374-.0754943-.375624-.2264829-.450749-.1509886-.075124-.3019773-.150249-.5284602-.150249h-.0754943c-.6794489.075125-1.3588977.150249-1.9628523.150249-.6039545.075125-1.434392.075125-2.4913124.075125-.3774716 0-.8304375-.075125-1.1324147-.225374-.3774716-.150249-.6794489-.375624-.9814262-.676123-.3019772-.300499-.4529659-.751247-.6039545-1.27712s-.2264829-1.201996-.2264829-2.028368v-3.00499c0-.826372.0754943-1.502495.2264829-2.028368s.3774716-.976621.6039545-1.27712c.3019773-.300499.6039546-.525874.9814262-.676123.3774715-.15025.7549431-.225374 1.1324147-.225374 1.0569204 0 1.8873579 0 2.4913124.075124.6039546.075125 1.2834034.075125 1.9628523.15025h.0754943c.2264829 0 .3774716-.075125.5284602-.15025.1509886-.075124.2264829-.225374.2264829-.450748v-3.2303638c0-.300499-.0754943-.4507485-.1509886-.5258732-.1509886-.0751247-.3019773-.2253742-.6039545-.300499-.5284602-.1502494-1.1324148-.2253742-1.9628522-.3756237-.8304375-.1502494-1.7363693-.1502494-2.8687841-.1502494-2.5668067 0-4.6051533.7512474-6.1905339 2.3288669-1.5098863 1.5776192-2.3403238 3.8313622-2.3403238 6.8363512v3.00499c0 2.929865.7549432 5.258732 2.3403238 6.836351 1.5098863 1.57762 3.6237272 2.328867 6.1905339 2.328867 1.0569205 0 2.0383466-.075125 2.8687841-.150249.8304374-.15025 1.434392-.225375 1.9628522-.375624.3019772-.075125.4529659-.15025.6039545-.300499.0754943-.075125.1509886-.300499.1509886-.525873zm-17.8921529.300499v-12.019959c0-1.126871-.0754943-2.178617-.3019773-3.230364-.1509886-.976621-.5284602-1.878118-.9814261-2.6293654s-1.1324147-1.3522454-1.9628522-1.7278691c-.8304375-.4507484-1.8873579-.6761226-3.2462556-.6761226-1.1324148 0-2.1893352.1502494-3.095267.4507484s-1.8118636.7512474-2.868784 1.5024948v-.9014969c0-.2253742-.0754943-.3756237-.226483-.5258732-.1509886-.1502494-.3019772-.2253742-.5284602-.2253742h-4.0766931c-.2264829 0-.3774715.0751248-.5284602.2253742-.1509886.1502495-.2264829.300499-.2264829.5258732v19.2319338c0 .225374.0754943.375623.2264829.525873.1509887.150249.3019773.225374.5284602.225374h4.3786704c.2264829 0 .3774716-.075125.5284602-.225374.1509886-.15025.226483-.300499.226483-.525873v-14.198576c.6039545-.300499 1.207909-.600998 1.8118635-.826372.5284603-.225375 1.1324148-.300499 1.660875-.300499s.9814261.075124 1.3588977.150249.6039545.300499.8304375.525873c.2264829.300499.3019772.600998.3774716 1.051747.0754943.450748.0754943.976621.0754943 1.577619v12.019959c0 .225374.0754943.375623.2264829.525873.1509887.150249.3019773.225374.5284602.225374h4.3786704c.2264829 0 .3774716-.075125.5284602-.225374.3019773-.15025.3774716-.375624.3774716-.525873zm-28.0838857-4.131861c-.4529659.225374-.9059318.375624-1.434392.525873-.5284602.15025-1.0569204.225374-1.5853806.225374-.7549432 0-1.3588977-.075124-1.7363693-.300499-.3774716-.225374-.5284602-.676122-.5284602-1.502494v-.300499c0-.450749.0754943-.826372.1509886-1.126871s.3019773-.600998.5284602-.826373c.226483-.225374.6039546-.375623.9814261-.450748.3774716-.075125.9059318-.150249 1.5853807-.150249h2.0383465zm5.8130624-8.789595c0-1.352245-.226483-2.479116-.6039546-3.380613-.3774715-.901497-.9814261-1.6527442-1.6608749-2.2537421-.7549432-.6009979-1.5853807-1.0517464-2.6423011-1.2771206-1.0569204-.300499-2.2648295-.4507484-3.5482329-.4507484-1.207909 0-2.4158181.0751247-3.5482328.2253742-1.1324148.1502495-2.0383466.3004989-2.7177954.5258732-.4529659.1502494-.6794489.3756237-.6794489.8263721v2.9298646c0 .225374.0754944.375624.1509887.525873.1509886.075125.3019772.15025.4529659.15025h.1509886c.3019773 0 .6794489-.075125 1.0569204-.075125.4529659 0 .9059318-.075125 1.5098864-.075125.5284602 0 1.1324147-.075124 1.7363692-.075124h1.7363693c.8304375 0 1.5098863.150249 1.9628522.450748s.7549432.976622.7549432 2.028368v1.277121h-1.9628522c-3.095267 0-5.4355908.450748-6.7944885 1.42737-1.434392.976621-2.1138408 2.554241-2.1138408 4.657734v.300499c0 1.201995.1509886 2.178617.5284602 2.929865.3774716.826372.8304374 1.42737 1.434392 1.953243.6039545.450748 1.207909.826372 1.9628522 1.051746s1.5098863.300499 2.3403238.300499c1.0569204 0 2.0383465-.150249 2.7932897-.450748s1.5098863-.676123 2.2648295-1.201996v.600998c0 .225374.0754943.375623.2264829.525873.1509887.150249.3019773.225374.5284603.225374h4.076693c.226483 0 .3774716-.075125.5284603-.225374.1509886-.15025.2264829-.300499.2264829-.525873v-12.921456zm-25.9700448 5.709481c0 .976621-.3774716 1.802993-1.0569205 2.328867-.6794488.525873-2.0383465.826372-3.85021009.826372h-.60395453c-.30197727 0-.60395453 0-.9059318 0-.30197726 0-.60395453 0-.90593179 0h-.60395453v-6.761227h4.07669304c1.434392 0 2.4913125.300499 3.0197727.976622.5284602.676122.8304375 1.42737.8304375 2.253742zm-.1509887-10.7428382c0 .3756242-.0754943.7512472-.1509886 1.1268712-.1509886.375624-.3019773.676123-.6039545.901497-.3019773.225374-.6794489.450748-1.1324148.600998-.4529659.150249-1.0569204.225374-1.8118636.225374h-4.07669304v-6.2353535h.52846021.83043748.83043748.60395453c1.88735794 0 3.17076124.2253742 3.92570444.6761227.7549432.4507484 1.1324148 1.2019958 1.1324148 2.1786174zm6.190534 10.3672142c0-1.277121-.3019773-2.328867-.9059318-3.230364-.6039546-.901497-1.3588977-1.652744-2.3403238-2.103493.9814261-.450748 1.7363692-1.201995 2.2648295-2.103492.5284602-.976622.8304374-2.028368.8304374-3.1552394v-.6761227c0-1.42737-.3019772-2.6293659-.8304374-3.6059875-.5284603-.9766216-1.3588977-1.727869-2.3403238-2.3288669-.9814262-.600998-2.1893352-.9766217-3.6237272-1.2771206-1.434392-.2253743-2.9442784-.3756237-4.68064764-.3756237-.60395453 0-1.20790906 0-1.81186359 0s-1.20790906.0751247-1.81186359.0751247-1.13241474.0751247-1.66087496.1502495c-.52846021.0751247-.90593179.0751247-1.20790906.1502495-.67944884.1502495-1.20790906.3004989-1.50988632.6761226-.30197727.300499-.4529659.9014969-.4529659 1.7278691v22.0115484c0 .826373.15098863 1.352246.4529659 1.727869.30197726.300499.83043748.525874 1.50988632.676123.37747158.075125.83043748.15025 1.28340338.15025.52846021.075124 1.05692043.075124 1.66087496.150249s1.20790906.075125 1.81186359.075125h1.88735791c1.5853806 0 3.095267-.15025 4.4541647-.375624s2.5668067-.676123 3.6237271-1.27712c1.0569205-.600998 1.8118636-1.427371 2.4913125-2.479117.6039545-1.051746.9059318-2.403992.9059318-3.981611z" fill="#005498"/></g></g></svg>