<?xml version="1.0" encoding="UTF-8"?>
<svg width="640px" height="360px" viewBox="0 0 640 360" xmlns="http://www.w3.org/2000/svg" xmlns:xlink="http://www.w3.org/1999/xlink" version="1.1">
 <!-- Generated by Pixelmator Pro 2.3 -->
 <g id="handshake-alt-copy">
  <path id="Shape" d="M286.919 216.1 L320.354 185.836 C321.561 184.764 323.09 184.168 324.699 184.168 L365.336 184.168 C367.066 184.168 368.676 184.843 369.923 186.074 L394.345 209.547 445.282 209.547 C447.052 209.547 448.501 208.117 448.501 206.37 L448.501 200.015 C448.501 198.267 447.052 196.838 445.282 196.838 L399.616 196.838 379.016 177.019 C375.354 173.404 370.526 171.419 365.376 171.419 L324.739 171.419 C320.555 171.419 316.652 172.968 313.353 175.39 309.973 172.809 305.829 171.299 301.564 171.299 L273.601 171.299 C268.492 171.299 263.583 173.325 259.922 176.9 L239.845 196.798 194.219 196.798 C192.448 196.798 191 198.228 191 199.975 L191 206.33 C191 208.077 192.448 209.507 194.219 209.507 L245.156 209.507 269.015 185.955 C270.222 184.764 271.871 184.088 273.561 184.088 L301.524 184.088 C301.886 184.962 301.645 184.366 301.967 185.24 L278.228 206.727 C266.882 217.014 266.319 234.211 276.539 245.213 282.292 251.409 300.116 260.822 315.526 246.881 L324.699 238.58 375.234 279.052 C377.97 281.236 378.412 285.287 376.159 287.988 L372.337 292.635 C370.164 295.256 366.141 295.852 363.284 293.549 L356.122 287.829 339.425 308.085 C336.407 311.779 330.976 312.136 327.596 309.435 L315.284 299.069 311.1 304.153 C304.381 312.295 292.19 313.566 284.304 307.291 L248.133 273.094 194.219 273.094 C192.448 273.094 191 274.524 191 276.272 L191 282.626 C191 284.374 192.448 285.804 194.219 285.804 L242.983 285.804 275.774 316.783 C287.764 326.355 304.662 326.077 316.411 316.704 L319.308 319.166 C323.17 322.264 327.878 323.892 332.786 323.892 339.224 323.892 345.299 321.112 349.443 316.108 L358.255 305.424 C364.853 308.959 375.515 308.999 382.395 300.658 L386.218 296.011 C388.712 292.993 390.08 289.418 390.442 285.804 L445.282 285.804 C447.052 285.804 448.501 284.374 448.501 282.626 L448.501 276.272 C448.501 274.524 447.052 273.094 445.282 273.094 L386.862 273.094 C385.856 271.704 384.729 270.354 383.321 269.202 L334.275 229.882 345.702 219.516 C348.317 217.133 348.518 213.121 346.104 210.54 343.69 207.958 339.626 207.799 337.011 210.143 L306.795 237.468 C301.001 242.671 291.264 242.234 285.994 236.594 280.562 230.756 280.924 221.542 286.919 216.1 Z" fill="#000000" fill-opacity="1" stroke="none"/>
 </g>
 <g id="Bancontact">
  <path id="Bancontact-1" d="M226.6 151.535 L226.6 124.552 234.927 124.552 C240.978 124.552 244.872 126.826 244.872 131.529 244.872 134.189 243.638 136.039 241.903 137.118 244.409 138.274 245.874 140.51 245.874 143.555 245.874 148.991 241.903 151.535 235.736 151.535 Z M231.958 135.769 L235.929 135.769 C238.357 135.769 239.398 134.574 239.398 132.377 239.398 130.025 237.509 129.255 234.965 129.255 L231.958 129.255 Z M231.958 146.832 L235.273 146.832 C238.511 146.832 240.4 146.022 240.4 143.478 240.4 140.973 238.781 139.932 235.736 139.932 L231.958 139.932 Z M256.264 151.997 C250.983 151.997 248.324 149.415 248.324 145.945 248.324 142.129 251.446 139.893 256.072 139.855 257.221 139.876 258.367 139.979 259.502 140.163 L259.502 139.238 C259.502 136.887 258.153 135.769 255.57 135.769 253.831 135.747 252.103 136.061 250.482 136.694 L249.519 132.531 C251.176 131.837 253.836 131.375 256.187 131.375 261.853 131.375 264.667 134.381 264.667 139.585 L264.667 150.301 C263.087 151.111 260.119 151.997 256.264 151.997 Z M259.502 147.641 L259.502 143.517 C258.603 143.317 257.686 143.214 256.765 143.208 254.992 143.208 253.605 143.902 253.605 145.714 253.605 147.333 254.761 148.181 256.804 148.181 257.733 148.211 258.656 148.027 259.502 147.641 Z M268.412 151.535 L268.412 133.071 C271.182 131.958 274.139 131.382 277.124 131.375 282.752 131.375 285.99 134.15 285.99 139.277 L285.99 151.535 280.67 151.535 280.67 139.662 C280.67 137.002 279.437 135.769 277.085 135.769 275.918 135.753 274.761 135.989 273.693 136.463 L273.693 151.535 Z M304.579 132.531 L303.577 136.733 C302.2 136.136 300.721 135.809 299.221 135.769 296.099 135.769 294.403 137.966 294.403 141.59 294.403 145.56 296.176 147.603 299.491 147.603 300.971 147.562 302.426 147.221 303.77 146.601 L304.618 150.879 C302.872 151.656 300.977 152.038 299.067 151.997 292.668 151.997 288.968 148.027 288.968 141.744 288.968 135.499 292.63 131.375 298.759 131.375 300.757 131.365 302.737 131.758 304.579 132.531 Z M316.071 151.997 C310.135 151.997 306.434 147.873 306.434 141.667 306.434 135.499 310.135 131.375 316.071 131.375 322.046 131.375 325.669 135.499 325.669 141.667 325.669 147.873 322.046 151.997 316.071 151.997 Z M316.071 147.603 C318.808 147.603 320.234 145.329 320.234 141.667 320.234 138.043 318.808 135.769 316.071 135.769 313.373 135.769 311.869 138.043 311.869 141.667 311.869 145.329 313.373 147.603 316.071 147.603 Z M328.747 151.535 L328.747 133.071 C331.517 131.958 334.474 131.382 337.459 131.375 343.087 131.375 346.325 134.15 346.325 139.277 L346.325 151.535 341.005 151.535 341.005 139.662 C341.005 137.002 339.772 135.769 337.42 135.769 336.253 135.753 335.096 135.989 334.028 136.463 L334.028 151.535 Z M358.321 151.997 C353.734 151.997 351.383 149.492 351.383 144.403 L351.383 136.077 348.762 136.077 348.762 131.837 351.383 131.837 351.383 127.558 356.702 127.289 356.702 131.837 360.981 131.837 360.981 136.077 356.702 136.077 356.702 144.326 C356.702 146.562 357.627 147.603 359.362 147.603 360.049 147.601 360.734 147.524 361.405 147.372 L361.675 151.65 C360.574 151.894 359.449 152.01 358.321 151.997 Z M371.748 151.997 C366.467 151.997 363.807 149.415 363.807 145.945 363.807 142.129 366.929 139.893 371.555 139.855 372.705 139.876 373.851 139.979 374.986 140.163 L374.986 139.238 C374.986 136.887 373.637 135.769 371.054 135.769 369.314 135.747 367.587 136.061 365.966 136.694 L365.002 132.531 C366.66 131.837 369.319 131.375 371.671 131.375 377.337 131.375 380.151 134.381 380.151 139.585 L380.151 150.301 C378.571 151.111 375.602 151.997 371.748 151.997 Z M374.986 147.641 L374.986 143.517 C374.087 143.317 373.17 143.214 372.249 143.208 370.476 143.208 369.088 143.902 369.088 145.714 369.088 147.333 370.244 148.181 372.287 148.181 373.216 148.211 374.14 148.027 374.986 147.641 Z M398.351 132.531 L397.348 136.733 C395.971 136.136 394.493 135.809 392.993 135.769 389.87 135.769 388.174 137.966 388.174 141.59 388.174 145.56 389.947 147.603 393.263 147.603 394.742 147.562 396.198 147.221 397.541 146.601 L398.389 150.879 C396.644 151.656 394.748 152.038 392.839 151.997 386.44 151.997 382.739 148.027 382.739 141.744 382.739 135.499 386.401 131.375 392.53 131.375 394.528 131.365 396.508 131.758 398.351 132.531 Z M410.046 151.997 C405.459 151.997 403.108 149.492 403.108 144.403 L403.108 136.077 400.486 136.077 400.486 131.837 403.108 131.837 403.108 127.558 408.427 127.289 408.427 131.837 412.706 131.837 412.706 136.077 408.427 136.077 408.427 144.326 C408.427 146.562 409.352 147.603 411.087 147.603 411.774 147.601 412.459 147.524 413.13 147.372 L413.4 151.65 C412.299 151.894 411.173 152.01 410.046 151.997 Z" fill="#1e3764" fill-opacity="1" stroke="none"/>
  <defs>
   <linearGradient id="linear-gradient" gradientUnits="userSpaceOnUse" x1="245.492" y1="94.028" x2="313.818" y2="68.65">
    <stop offset="0" stop-color="#005ab9" stop-opacity="1"/>
    <stop offset="1" stop-color="#1e3764" stop-opacity="1"/>
   </linearGradient>
  </defs>
  <path id="blue-symbol" d="M263.705 111.061 C291.852 111.061 305.926 92.296 320 73.53 L226.6 73.53 226.6 111.061 Z" fill-opacity="1" fill="url(#linear-gradient)" stroke="none"/>
  <defs>
   <linearGradient id="linear-gradient-1" gradientUnits="userSpaceOnUse" x1="325.655" y1="76.785" x2="398.203" y2="52.034">
    <stop offset="0" stop-color="#fba900" stop-opacity="1"/>
    <stop offset="1" stop-color="#ffd800" stop-opacity="1"/>
   </linearGradient>
  </defs>
  <path id="yellow-symbol" d="M376.295 36 C348.148 36 334.074 54.765 320 73.53 L413.4 73.53 413.4 36 Z" fill-opacity="1" fill="url(#linear-gradient-1)" stroke="none"/>
 </g>
</svg>
