<svg height="32" viewBox="0 0 107 32" width="107" xmlns="http://www.w3.org/2000/svg"><g fill="none" fill-rule="evenodd"><path d="m.5.5h50v31h-50z" fill="#fff" stroke="#d0d0d0"/><path d="m4.52904109 20.6860168c.21860446.0268412.3830116.1357008.50455047.2824247.06467521.0780771.11244644.1614089.15422187.2557568l.01271893.0295195c.0439181.1047423.08186304.2250731.12350767.3810139l.00979898.0375801c.02906709.116265.18493401.7599917.24304842.9664943.09638978.3425098.194801.6052789.3016724.7945857.05053621.0895175.09960222.1561568.14379221.1993236.01610873.0157357.0300812.0268931.04167898.0341809.00664185.0041735.01100158.006206.01399952.0071405.09581578.0298683.12294494.0271289.1489934.0115995.04643348-.0276824.11040094-.09882.19900616-.2329363l.01516144-.023255.16704588-.2659844c.07080376-.1099476.13247065-.1953364.20363034-.2751666.11274459-.1264821.23884081-.2260251.39592909-.2918424.19644445-.0823068.39658667-.0838519.58901462-.0314491.11838241.0322385.2271571.0824739.34366318.1507228l.0254969.0151435.02760625.0168606c.05093123.0315421.10413195.0668583.16802786.1109469l.26264594.1831932.0365103.024734.03193235.0212432c.4531835.2987693.71404532.3519268 1.00945935.1820323l.01464592-.0085891.01476678-.0089934c.3226015-.2001006.7463353-.100794.9464359.2218076.2001006.3226015.1007939.7463353-.2218076.9464359-.0228031.0141441-.0456975.027826-.0686831.0410451-.4859319.2794626-.99421844.3427943-1.49766679.2195386-.35023786-.0857463-.6506608-.2402546-1.00950365-.4826746l-.02636263-.0178953c-.02413667-.0164613-.04792846-.0328695-.07420647-.0511588l-.10734497-.075262-.06525097.1036629-.02168163.0337319c-.19756939.3025856-.38698341.5154292-.65450435.6749178-.36913503.2200682-.80120547.2636982-1.2620816.120031-.42466944-.1323807-.74193276-.4422973-.98748326-.8772537-.13856699-.2454509-.2524653-.5260109-.35647919-.8574693l-.00922026-.0296158-.03718053.0937985c-.08035368.2009285-.147627.3567613-.21677241.5001595l-.01483488.030517c-.07813222.159427-.15434.2920766-.23604.4035366-.13647468.186187-.28843955.3225907-.50792098.3931002-.28169735.0904967-.53096409.0236412-.75861401-.1205274-.12395949-.0785023-.24217674-.1825762-.3664066-.3139462-.17916074-.1894582-.37523953-.4413003-.59987121-.7607991l-.01932435-.0275514c-.05997076-.085705-.12174727-.1758874-.18628007-.2717447l-.05462506-.0814937c-.04580824-.0686322-.09271059-.139623-.14352487-.2171474l-.34262473-.5262291-.05081935-.0770374-.04134679-.061789c-.02283853-.033821-.042215-.0619081-.05857813-.0849104l-.0123074-.0170891-.00095774-.0008478c-.15852315-.1425332-.24842432-.3563842-.22451366-.5835979l.00144287-.0117512c.04626414-.3767912.38921827-.6447364.76600948-.5984722.16398471.0201348.2678101.0779658.36599878.1582972.03711196.0303625.06764141.0606325.09739002.0937793.0304102.0338839.05985819.0708729.0921073.1144578l.01223207.0166604c.04826544.0662218.10513438.1498453.18223811.2669395l.33553856.5152784.0686102.1045966c.02757848.0418884.0540416.0818766.07993692.1207772l.06817725.1018525.04455393.0659037c.04402093.0648325.0864794.1264976.12770411.1854124l.03650098.0518954.03929992.0552463c.05180002.0723687.10118928.1395461.14803209.2013064l.02452154.032129.01780434-.0425775.01449001-.0351834c.04402565-.1074818.09317297-.2326207.15070806-.3827507l.18887395-.4943145c.17530759-.4559695.21956459-.55416.32004336-.7418402l.00389269-.0072636c.06448543-.1202081.12915188-.219338.20675812-.305501.06322182-.0701926.13412609-.130964.22106307-.1805844.1375652-.0785171.29841482-.1181207.4719304-.0968156zm8.23782381-1.1402158 3.6955801 3.6976422-4.12044.9990497c-.2998276.0729071-.5707937-.1922733-.5109629-.4914057l.0019352-.0091674zm-11.98904335 2.4920702.00259695.0018405c.06859303.047821.14925187.0826722.26267953.0981595-.0941978-.0128617-.18159273-.0463438-.25897597-.0958792zm22.34796785-12.85312549 3.6976765 3.69764219-9.3598404 9.3598404-3.69558-3.6976422zm-15.4190987 8.56590829c.406342.8826646 1.88781339 1.5870366 3.7972153 1.8203586l-.378144 1.4461771c-2.03059176-.3241302-3.49291752-1.1926032-3.52967683-2.2178038l-.00070907-.0395775v-.519026c0-.1679135.03846568-.3318474.1113146-.4901284zm-7.59574211-1.4091422c.49859051 1.0866217 2.62121706 1.9030803 5.16435415 1.9030803.48997503 0 .96390836-.0307998 1.41403998-.0875181l.05614192-.0072244v.635566c0 .2903778.06700318.5706709.19689532.8364473-.52404448.0791405-1.08443886.1221025-1.66707722.1221025-2.88432844 0-5.22801078-1.0501496-5.274596-2.3537203l-.00070674-.0395789v-.519026c0-.1680039.0383392-.3318926.11094859-.4901284zm7.59574211-1.271624c.50023532 1.0866216 2.6298642 1.9030802 5.1813909 1.9030802.1186483 0 .2363844-.0017655.3530867-.0052417l-1.4184807 1.3843263-.01834.0700744c-2.37574751-.2235313-4.16752243-1.1672419-4.20826243-2.303462l-.00070907-.0395776v-.5190712c0-.168004.03846568-.3318474.1113146-.4901284zm-7.5958953-1.409097c.49790206 1.0866217 2.61759775 1.9030803 5.15722334 1.9030803.48929849 0 .96257743-.0307998 1.41208752-.087518l.0560644-.0072245v1.4998708c-.46607209.0612773-.95860144.094245-1.46815192.094245-2.88034583 0-5.22079208-1.0501496-5.26731297-2.3536764l-.00070577-.0395775v-.519026c0-.168004.03828627-.3318927.1107954-.4901737zm7.5958953-1.4090969c.50023532 1.0866072 2.6298642 1.903055 5.1813909 1.903055 1.7040224 0 3.2198716-.3641285 4.187872-.9297035l-2.3342417 2.2782218c-.5768858.0975473-1.2014862.1508803-1.8536303.1508803-2.89384357 0-5.24525753-1.0501357-5.29199643-2.353689l-.00070907-.0395783v-.5190192c0-.1680469.03846568-.3319334.1113146-.4901671zm-2.43867196-3.19624422c.48916847 0 .96269186.03030929 1.41210187.08685668l.05605005.00720479v5.10453745c-.46607209.0612189-.95860144.0941066-1.46815192.0941066-2.88034583 0-5.22079208-1.04769-5.26731297-2.3480118l-.00070577-.0394802v-.5177666c0-1.3185748 2.35857851-2.38744692 5.26801874-2.38744692zm12.80145376.54989148c.0698136.15164262.1080495.30847687.1111146.46918924l.0002.0209844v.519026c0 1.321782-2.3696765 2.3932539-5.2927055 2.3932539-2.89384357 0-5.24525753-1.0501496-5.29199643-2.3536763l-.00070907-.0395776v-.519026c0-.16804919.03846568-.33193786.1113146-.49017364.50023532 1.08666684 2.6298642 1.90308024 5.1813909 1.90308024s4.6811556-.8164134 5.1813909-1.90308024zm9.8915561-2.98033092.0192372.01892751 1.6490214 1.64902145c.4893409.48934087.4942343 1.2755077.0146802 1.7708184l-.0146802.0149198-1.8425145 1.8425145-3.6976765-3.6976765 1.5795976-1.57959765c.6330605-.63091696 1.6536251-.63722613 2.2923348-.01892751zm-15.072947-1.62501024c2.8937987 0 5.2452567 1.04761045 5.2919964 2.34798539l.0007091.03948185v.51777104c0 1.31858605-2.3696765 2.38746722-5.2927055 2.38746722-2.89384357 0-5.24525753-1.04761043-5.29199643-2.34798537l-.00070907-.03948185v-.51777104c0-1.31858605 2.36963118-2.38746724 5.2927055-2.38746724z" fill="#2c3341" fill-rule="nonzero" transform="translate(11 1)"/><path d="m56.5.5h50v31h-50z" fill="#fff" stroke="#d0d0d0"/><g fill-rule="nonzero" transform="translate(69.5 8.5)"><g transform="translate(.030884 .030733)"><path d="m21.3271444 2.66692828h-1.1135412-5.1524871-1.122978l-.7549431.84515332-2.4346917 2.73266243-.75494318.84515333h-1.11354117-5.05811919-1.11354116l.73606958-.85454392.34916121-.40379548.73606959-.85454392h-1.11354117-1.43439201-.80212711c-.61339132 0-1.11354116.51648259-1.11354116 1.13626169v2.19739865.20659304c0 .6291697.50014984 1.1362617 1.11354116 1.1362617h.31141406 11.70161905.8398742c.6133914 0 1.4532656-.37562371 1.8590476-.84515333l1.9439786-2.19739865z" fill="#005498"/><path d="m22.8087203.10329652c.6133913 0 1.1135412.51648259 1.1135412 1.13626169v2.3946011c0 .6291697-.5001499 1.13626169-1.1135412 1.13626169h-.6039545-1.6231278-1.1135412l.7455064-.84515332.3680348-.42257667.7455064-.84515333h-7.3890063l-3.9351412 4.41357849h-7.33238546l5.25629177-5.91607329.19817258-.22537422c.41521874-.46013903 1.25509301-.84515333 1.86848433-.84515333h.25479328 12.5603669z" fill="#ffd800"/></g><path d="m23.9531455 14.7176196v-.347452c0-.0469529-.0283104-.0751247-.0943679-.0751247h-.2264829c-.0660576 0-.1132415-.0093906-.1226783-.0375624-.0188736-.0281718-.0188736-.0845153-.0188736-.1784212v-1.314683h.3680348c.0283104 0 .047184-.0093906.0660575-.0281718.0188736-.0187812.0283104-.0375623.0283104-.0657341v-.3662331c0-.0281718-.0094368-.046953-.0283104-.0657342-.0188735-.0187812-.0377471-.0281717-.0660575-.0281717h-.3680348v-.4789203c0-.0281717-.0094368-.0469529-.0188736-.0563435-.0188735-.0093906-.0377471-.0187812-.0566207-.0187812h-.0094368l-.5473338.0939059c-.0283103.0093906-.0471839.0187812-.0660575.0281718-.0188736.0187812-.0283104.0375624-.0283104.0563436v.3662331h-.3680348c-.0283103 0-.0471839.0093906-.0660575.0281717-.0188736.0187812-.0283104.0375624-.0283104.0657342v.3004989c0 .0281718.0094368.046953.0283104.0563436.0188736.0187812.0377472.0281718.0660575.0375624l.3680348.0563435v1.314683c0 .1596401.0188736.2911083.047184.3944049.0377471.1032965.0849311.1784212.1415518.2347648.0660575.0563435.1415519.0939059.2359198.1126871s.2076093.0281718.3302876.0281718c.0660575 0 .1226783 0 .179299-.0093906.0471839-.0093906.1132415-.0187812.179299-.0281718.0471839 0 .0754943-.0281718.0754943-.0751247zm-1.9628522-.046953v-.4037955c0-.0281718-.0094368-.0469529-.0283104-.0563435s-.0377471-.0187812-.0566207-.0187812h-.0094368c-.0849311.0093906-.1698622.0187812-.2453565.0187812-.0754943.0093906-.179299.0093906-.3114141.0093906-.0471839 0-.1038047-.0093906-.1415518-.0281718-.047184-.0187812-.0849311-.046953-.1226783-.0845154-.0377472-.0375623-.0566207-.0939059-.0754943-.15964-.0188736-.0657342-.0283104-.1502495-.0283104-.253546v-.3756237c0-.1032965.0094368-.1878119.0283104-.253546.0188736-.0657342.0471839-.1220777.0754943-.1596401.0377472-.0375624.0754943-.0657341.1226783-.0845153.0471839-.0187812.0943679-.0281718.1415518-.0281718.1321151 0 .2359198 0 .3114141.0093906s.1604254.0093906.2453565.0187812h.0094368c.0283104 0 .0471839-.0093906.0566207-.0187812.0188736-.0093906.0283104-.0281718.0283104-.0563436v-.4037955c0-.0375623-.0094368-.0563435-.0188736-.0657341-.0188736-.0093906-.0377471-.0281718-.0754943-.0375624-.0660575-.0187812-.1415518-.0281717-.2453565-.0469529s-.2170462-.0187812-.358598-.0187812c-.3208509 0-.5756442.0939059-.7738168.2911084-.1887358.1972024-.2925405.4789202-.2925405.8545439v.3756237c0 .3662331.0943679.6573414.2925405.8545439.1887358.1972024.4529659.2911084.7738168.2911084.132115 0 .2547933-.0093906.358598-.0187812.1038047-.0187812.1887358-.0281718.2453565-.046953.0377472-.0093906.0566207-.0187812.0754943-.0375624.0188736-.0093905.0188736-.0375623.0188736-.0657341zm-2.9537151-.4789202c-.0566208.0281718-.1132415.0469529-.179299.0657341-.0660576.0187812-.1321151.0281718-.1981726.0281718-.0943679 0-.1698622-.0093906-.2170462-.0375624-.0471839-.0281717-.0660575-.0845153-.0660575-.1878118v-.0375624c0-.0563435.0094368-.1032965.0188736-.1408589.0094368-.0375623.0377471-.0751247.0660575-.1032965s.0754943-.046953.1226783-.0563436c.0471839-.0093905.1132414-.0187811.1981725-.0187811h.2547934zm.717196-1.0986993c0-.1690307-.0283104-.3098896-.0754943-.4225767-.047184-.1126871-.1226783-.206593-.2076094-.2817178-.0943679-.0751247-.1981726-.1314683-.3302876-.1596401-.1321151-.0375623-.2831037-.0563435-.4435292-.0563435-.1509886 0-.3019772.0093906-.4435291.0281718-.1415518.0187811-.2547933.0375623-.3397244.0657341-.0566207.0187812-.0849311.046953-.0849311.1032965v.3662331c0 .0281718.0094368.046953.0188736.0657342.0188736.0093906.0377471.0187812.0566207.0187812h.0188736c.0377472 0 .0849311-.0093906.1321151-.0093906.0566207 0 .1132414-.0093906.179299-.0093906.0660575 0 .1415518-.0093906.2170461-.0093906h.2170462c.1038047 0 .1887358.0187812.2453565.0563435.0566207.0375624.0943679.1220777.0943679.253546v.1596401h-.2453565c-.3869084 0-.6794489.0563436-.8493111.1784213-.179299.1220777-.2642301.3192801-.2642301.5822167v.0375624c0 .1502495.0188736.2723272.0660575.3662331.047184.1032965.1038047.1784212.179299.2441554.0754943.0563436.1509887.1032965.2453566.1314683s.1887357.0375624.2925404.0375624c.1321151 0 .2547934-.0187812.3491612-.0563436.0943679-.0375624.1887358-.0845153.2831037-.1502495v.0751248c0 .0281717.0094368.0469529.0283104.0657341s.0377472.0281718.0660575.0281718h.5095867c.0283103 0 .0471839-.0093906.0660575-.0281718s.0283104-.0375624.0283104-.0657341v-1.6151819zm-2.4252549 1.6245725v-.347452c0-.0469529-.0283104-.0751247-.0943679-.0751247h-.226483c-.0660575 0-.1132415-.0093906-.1226782-.0375624-.0188736-.0281718-.0188736-.0845153-.0188736-.1784212v-1.314683h.3680348c.0283103 0 .0471839-.0093906.0660575-.0281718s.0283104-.0375623.0283104-.0657341v-.3662331c0-.0281718-.0094368-.046953-.0283104-.0657342s-.0377472-.0281717-.0660575-.0281717h-.3680348v-.4789203c0-.0281717-.0094368-.0469529-.0188736-.0563435-.0188736-.0093906-.0377472-.0187812-.0566207-.0187812h-.0094368l-.5473338.0939059c-.0283104.0093906-.047184.0187812-.0660576.0281718-.0188735.0187812-.0283103.0375624-.0283103.0563436v.3662331h-.3774716c-.0283104 0-.047184.0093906-.0660575.0281717-.0188736.0187812-.0283104.0375624-.0283104.0657342v.3004989c0 .0281718.0094368.046953.0283104.0563436.0188735.0187812.0377471.0281718.0660575.0375624l.3680348.0563435v1.314683c0 .1596401.0188736.2911083.0471839.3944049.0377472.1032965.0849311.1784212.1415519.2347648.0660575.0563435.1415518.0939059.2359197.1126871s.2076094.0281718.3302877.0281718c.0660575 0 .1226782 0 .179299-.0093906.0471839-.0093906.1132414-.0187812.179299-.0281718.0566207 0 .0849311-.0281718.0849311-.0751247zm-1.9817258-.0093906v-1.5024948c0-.1408589-.0094368-.2723272-.0377472-.4037955-.0188736-.1220777-.0660575-.2347648-.1226783-.3286708-.0566207-.0939059-.1415518-.1690306-.2453565-.2159836-.1038047-.0563435-.2359197-.0845153-.4057819-.0845153-.1415519 0-.2736669.0187812-.3869084.0563435-.1132415.0375624-.226483.093906-.358598.1878119v-.1126871c0-.0281718-.0094368-.046953-.0283104-.0657342s-.0377471-.0281717-.0660575-.0281717h-.5095866c-.0283104 0-.047184.0093905-.0660576.0281717s-.0283103.0375624-.0283103.0657342v2.4039917c0 .0281717.0094367.0469529.0283103.0657341s.0377472.0281718.0660576.0281718h.5473337c.0283104 0 .047184-.0093906.0660576-.0281718s.0283103-.0375624.0283103-.0657341v-1.774822c.0754944-.0375624.1509887-.0751248.226483-.1032965.0660575-.0281718.1415518-.0375624.2076094-.0375624.0660575 0 .1226782.0093906.1698622.0187812.0471839.0093906.0754943.0375623.1038047.0657341.0283103.0375624.0377471.0751248.0471839.1314683.0094368.0563436.0094368.1220777.0094368.1972025v1.5024948c0 .0281717.0094368.0469529.0283104.0657341.0188735.0187812.0377471.0281718.0660575.0281718h.5473338c.0283104 0 .0471839-.0093906.0660575-.0281718.0377472-.0187812.047184-.0469529.047184-.0657341zm-3.4349914-1.0423558c0 .3662331-.1321151.554045-.405782.554045-.132115 0-.2359197-.046953-.3019773-.1408589-.0660575-.093906-.1038046-.2347648-.1038046-.4131861v-.3192802c0-.1878118.0377471-.3192801.1038046-.413186.0660576-.0939059.1698623-.1408589.3019773-.1408589.2642301 0 .405782.1878118.405782.5540449zm.7360695-.3192802c0-.1784212-.0283103-.3474519-.0754943-.4883108-.0471839-.1408589-.1226782-.2629366-.2170461-.3662331s-.2170462-.1784212-.358598-.2347648c-.1415519-.0563435-.3019773-.0845153-.4907131-.0845153s-.3491612.0281718-.490713.0845153c-.1415519.0563436-.2642301.1314683-.358598.2347648s-.1698623.2253742-.2170462.3662331c-.047184.1408589-.0754943.3098896-.0754943.4883108v.3192802c0 .1784213.0283103.3474519.0754943.4883108.0471839.1408589.1226783.2629366.2170462.3662331s.2170461.1784213.358598.2347648c.1415518.0563436.3019772.0845154.490713.0845154s.3491612-.0281718.4907131-.0845154c.1415518-.0563435.2642301-.1314683.358598-.2347648s.1698622-.2253742.2170461-.3662331c.047184-.1408589.0754943-.3098895.0754943-.4883108zm-2.5196228 1.3240736v-.4037955c0-.0281718-.0094367-.0469529-.0283103-.0563435s-.0377472-.0187812-.0660576-.0187812h-.0094367c-.08493115.0093906-.16986225.0187812-.24535657.0187812-.07549432.0093906-.179299.0093906-.31141405.0093906-.04718395 0-.10380469-.0093906-.14155185-.0281718-.04718395-.0187812-.0849311-.046953-.12267826-.0845154-.03774716-.0375623-.05662074-.0939059-.07549432-.15964-.01887358-.0657342-.02831037-.1502495-.02831037-.253546v-.3756237c0-.1032965.00943679-.1878119.02831037-.253546.01887358-.0657342.04718395-.1220777.07549432-.1596401.03774716-.0375624.07549431-.0657341.12267826-.0845153s.0943679-.0281718.14155185-.0281718c.13211505 0 .23591973 0 .31141405.0093906s.16042542.0093906.24535657.0187812h.0094367c.0283104 0 .047184-.0093906.0660576-.0187812s.0283103-.0281718.0283103-.0563436v-.4037955c0-.0375623-.0094367-.0563435-.0188735-.0657341-.0188736-.0093906-.0377472-.0281718-.0754944-.0375624-.06605748-.0187812-.1415518-.0281717-.24535648-.0469529-.10380469-.0187812-.21704616-.0187812-.358598-.0187812-.32085085 0-.57564416.0939059-.77381675.2911084-.18873579.1972024-.29254047.4789202-.29254047.8545439v.3756237c0 .3662331.09436789.6573414.29254047.8545439.1887358.1972024.4529659.2911084.77381675.2911084.13211505 0 .25479331-.0093906.358598-.0187812.10380468-.0187812.179299-.0281718.24535648-.046953.0377472-.0093906.0566208-.0187812.0754944-.0375624.0094368-.0093905.0188735-.0375623.0188735-.0657341zm-2.23651908.0375624v-1.5024948c0-.1408589-.00943679-.2723272-.03774716-.4037955-.01887357-.1220777-.06605752-.2347648-.12267826-.3286708-.05662074-.0939059-.14155184-.1690306-.24535653-.2159836-.10380468-.0563435-.23591974-.0845153-.40578195-.0845153-.14155184 0-.27366689.0187812-.38690837.0563435-.11324147.0375624-.22648295.093906-.358598.1878119v-.1126871c0-.0281718-.00943679-.046953-.02831037-.0657342s-.03774716-.0281717-.06605753-.0281717h-.50958663c-.02831037 0-.04718395.0093905-.06605753.0281717s-.02831037.0375624-.02831037.0657342v2.4039917c0 .0281717.00943679.0469529.02831037.0657341s.03774716.0281718.06605753.0281718h.54733379c.02831037 0 .04718395-.0093906.06605753-.0281718s.02831037-.0375624.02831037-.0657341v-1.774822c.07549431-.0375624.15098863-.0751248.22648295-.1032965.06605752-.0281718.14155184-.0375624.20760937-.0375624.06605752 0 .12267826.0093906.16986221.0187812s.07549431.0375623.10380468.0657341c.02831037.0375624.03774716.0751248.04718395.1314683.00943679.0563436.00943679.1220777.00943679.1972025v1.5024948c0 .0281717.00943679.0469529.02831037.0657341s.03774716.0281718.06605752.0281718h.5473338c.02831037 0 .04718395-.0093906.06605752-.0281718.03774716-.0187812.04718395-.0469529.04718395-.0657341zm-3.51048571-.5164826c-.05662073.0281718-.11324147.0469529-.179299.0657341-.06605752.0187812-.13211505.0281718-.19817258.0281718-.09436789 0-.16986221-.0093906-.21704616-.0375624-.04718394-.0281717-.06605752-.0845153-.06605752-.1878118v-.0375624c0-.0563435.00943679-.1032965.01887358-.1408589.00943679-.0375623.03774715-.0751247.06605752-.1032965s.07549432-.046953.12267827-.0563436c.04718394-.0093905.11324147-.0187811.19817258-.0187811h.25479331zm.7266328-1.0986993c0-.1690307-.02831037-.3098896-.07549432-.4225767-.04718394-.1126871-.12267826-.206593-.20760937-.2817178-.09436789-.0751247-.19817258-.1314683-.33028763-.1596401-.13211505-.0375623-.28310369-.0563435-.44352911-.0563435-.15098863 0-.30197726.0093906-.44352911.0281718-.14155184.0187811-.25479331.0375623-.33972442.0657341-.05662074.0187812-.08493111.046953-.08493111.1032965v.3662331c0 .0281718.00943679.046953.01887358.0657342.01887358.0093906.03774716.0187812.05662074.0187812h.01887358c.03774716 0 .0849311-.0093906.13211505-.0093906.05662074 0 .11324148-.0093906.18873579-.0093906.06605753 0 .14155185-.0093906.21704616-.0093906h.21704616c.10380469 0 .18873579.0187812.24535653.0563435.05662074.0375624.0943679.1220777.0943679.253546v.1596401h-.24535653c-.38690837 0-.67944885.0563436-.84931106.1784213-.179299.1220777-.26423011.3192801-.26423011.5822167v.0375624c0 .1502495.01887358.2723272.06605753.3662331.04718395.1032965.10380468.1784212.179299.2441554.07549432.0563436.15098863.1032965.24535653.1314683.09436789.0281718.18873579.0375624.29254047.0375624.13211506 0 .25479332-.0187812.34916122-.0563436.09436789-.0375624.18873579-.0845153.28310368-.1502495v.0751248c0 .0281717.00943679.0469529.02831037.0657341s.03774716.0281718.06605753.0281718h.50958663c.02831037 0 .04718395-.0093906.06605753-.0281718s.02831037-.0375624.02831037-.0657341v-1.6151819zm-3.2462556.713685c0 .1220777-.04718395.2253742-.13211505.2911084-.08493111.0657341-.25479332.1032965-.48127627.1032965h-.07549432c-.03774716 0-.07549431 0-.11324147 0s-.07549432 0-.11324148 0h-.07549431v-.8451534h.50958663c.179299 0 .31141406.0375624.37747158.1220777.06605753.0845154.10380469.1784213.10380469.2817178zm-.01887358-1.3428547c0 .0469529-.00943679.0939059-.01887358.1408588-.01887358.046953-.03774716.0845154-.07549432.1126871-.03774715.0281718-.0849311.0563436-.14155184.0751248s-.13211505.0281718-.22648295.0281718h-.50958663v-.7794192h.06605752.10380469.10380468.07549432c.23591974 0 .39634516.0281718.49071306.0845153.09436789.0563436.14155184.1502495.14155184.2723272zm.77381674 1.2959017c0-.1596401-.03774716-.2911083-.11324147-.4037955-.07549432-.1126871-.16986221-.206593-.29254048-.2629365.12267827-.0563436.21704616-.1502495.28310369-.2629366.06605752-.1220777.10380468-.253546.10380468-.3944049v-.0845154c0-.1784212-.03774716-.3286707-.10380468-.4507484-.06605753-.1220777-.16986221-.2159836-.29254048-.2911084-.12267826-.0751247-.27366689-.1220777-.4529659-.15964-.179299-.0281718-.36803479-.046953-.58508095-.046953-.07549431 0-.15098863 0-.22648295 0-.07549431 0-.15098863.0093906-.22648294.0093906-.07549432 0-.14155185.0093906-.20760937.0187812-.06605753.0093906-.11324148.0093906-.15098864.0187812-.0849311.0187811-.15098863.0375623-.18873579.0845153-.03774716.0375624-.05662073.1126871-.05662073.2159836v2.7514436c0 .1032965.01887357.1690307.05662073.2159837.03774716.0375623.10380469.0657341.18873579.0845153.04718395.0093906.10380469.0187812.16042543.0187812.06605752.0093906.13211505.0093906.20760937.0187812.07549431.0093906.15098863.0093906.22648294.0093906h.23591974c.19817258 0 .38690837-.0187812.55677058-.046953.16986222-.0281718.32085085-.0845153.4529659-.1596401.13211506-.0751247.22648295-.1784212.31141406-.3098895.07549431-.1314683.11324147-.300499.11324147-.4977014z" fill="#005498"/></g></g></svg>