<svg xmlns="http://www.w3.org/2000/svg" width="640" height="360" viewBox="0 0 640 360">
  <g fill="none" fill-rule="evenodd">
    <path fill="#2C3341" fill-rule="nonzero" d="M51.3291324,254.274857 C53.8066496,254.579058 55.6699305,255.8128 57.047371,257.47567 C57.7803567,258.360544 58.321764,259.304971 58.7952189,260.374247 L58.9393667,260.708801 C59.4371053,261.895881 59.8671479,263.25963 60.3391203,265.026959 L60.4501755,265.452867 C60.7796025,266.770537 62.5460943,274.066106 63.2047242,276.40647 C64.2971417,280.288246 65.4124688,283.266296 66.6236781,285.411774 C67.1964218,286.426305 67.7525032,287.181551 68.2533231,287.670774 C68.4358888,287.849112 68.5942434,287.975564 68.7256849,288.058158 C68.8009591,288.105458 68.8503695,288.128493 68.8843461,288.139084 C69.9702583,288.477592 70.2777221,288.446544 70.572938,288.270545 C71.0991841,287.956811 71.8241487,287.150584 72.8283411,285.6306 L73.0001708,285.367043 L74.8933575,282.352553 C75.6958,281.10648 76.3946915,280.138741 77.2011679,279.233999 C78.47894,277.800535 79.9080305,276.672381 81.6883643,275.926452 C83.9147347,274.993641 86.1830132,274.97613 88.3638634,275.570029 C89.7055306,275.935398 90.9383105,276.504733 92.2587127,277.27822 L92.5476776,277.449847 L92.8605484,277.640933 C93.4377691,277.99841 94.0407105,278.39866 94.7648642,278.898331 L97.7415181,280.974521 L97.7415181,280.974521 L98.1553016,281.25484 L98.5172015,281.495596 C103.653281,284.881648 106.609715,285.4841 109.957741,283.558628 L110.123728,283.461285 L110.291085,283.35936 C113.947235,281.091553 118.749552,282.217029 121.017358,285.873179 C123.285165,289.52933 122.15969,294.331646 118.503539,296.599453 C118.245103,296.759753 117.985633,296.914815 117.725131,297.064631 C112.217902,300.231874 106.457321,300.949634 100.751573,299.552735 C96.7822109,298.580944 93.3774176,296.82985 89.310532,294.082423 L89.0117556,293.87961 C88.7382066,293.693049 88.4685664,293.507089 88.1707489,293.29981 L86.9541726,292.44684 L86.2146616,293.621687 L85.9689364,294.003982 C83.7298166,297.433285 81.5831244,299.845513 78.5512204,301.653051 C74.3676901,304.147157 69.4708917,304.64163 64.247629,303.013401 C59.4347087,301.513087 55.8390577,298.000698 53.056152,293.071193 C51.4857262,290.289416 50.1948787,287.109736 49.0160545,283.353208 L48.9115582,283.017561 L48.490179,284.080611 C47.5795039,286.357802 46.8170729,288.123906 46.033425,289.749086 L45.8652963,290.094945 C44.9797978,291.901784 44.1161097,293.405146 43.1901763,294.66836 C41.6434633,296.778479 39.9211947,298.324388 37.4337386,299.123496 C34.2411686,300.149125 31.4161455,299.391429 28.8361131,297.757519 C27.4312388,296.867825 26.0914434,295.688322 24.6835049,294.199461 C22.6530165,292.052268 20.4307903,289.198058 17.8849645,285.577071 L17.6659553,285.264822 C16.9862867,284.293499 16.2861529,283.271432 15.5547811,282.185049 L14.9356971,281.261454 C14.4165371,280.483622 13.8849772,279.679059 13.309082,278.80045 L9.42600172,272.83652 L8.85004899,271.963429 L8.38145209,271.263154 C8.12261536,270.879849 7.90301541,270.561529 7.71756659,270.300837 L7.57808275,270.10716 L7.56722833,270.097551 C5.77063264,268.482176 4.75175271,266.058531 5.02274019,263.483442 L5.03909272,263.350261 C5.56341968,259.079961 9.45023314,256.04325 13.7205336,256.567577 C15.5790269,256.795771 16.7557147,257.451189 17.8685197,258.361611 C18.2891219,258.70572 18.6351223,259.04878 18.9722732,259.424443 C19.3169222,259.808461 19.650666,260.22767 20.016156,260.721632 L20.1547861,260.91045 C20.7017945,261.660964 21.3463091,262.608697 22.2201513,263.935764 L26.0229217,269.775587 L26.800504,270.961014 C27.1130601,271.43575 27.4129754,271.88895 27.7064557,272.329822 L28.4791312,273.484151 L28.9840758,274.23106 C29.4829797,274.965828 29.9641757,275.6647 30.4313891,276.3324 L30.8450668,276.920548 L31.2904658,277.546673 C31.8775327,278.366851 32.4372778,279.128195 32.9681629,279.828145 L33.2460737,280.192274 L33.4478562,279.709729 L33.6120763,279.310984 C34.1110337,278.092856 34.6680366,276.674616 35.320101,274.973142 L37.4606724,269.370912 C39.4474918,264.203258 39.9490711,263.090432 41.0878306,260.963389 L41.1319477,260.881069 C41.8627825,259.51871 42.595669,258.395238 43.4752063,257.418724 C44.1917204,256.623208 44.9953021,255.934465 45.9805878,255.3721 C47.5396601,254.48224 49.3626225,254.0334 51.3291324,254.274857 Z M144.691136,241.352412 L186.574377,283.259023 L139.876057,294.581586 C136.47801,295.407867 133.407061,292.402489 134.085144,289.012322 L134.107076,288.908425 L144.691136,241.352412 Z M8.81531087,271.012541 L8.84474296,271.031298 C9.62213068,271.518671 10.5362642,271.873861 11.8217777,272.031702 C10.7542026,271.900621 9.76372677,271.559383 8.88671668,271.054538 L8.81531087,271.012541 Z M262.09228,123.927118 L303.999281,165.833729 L197.921089,271.91192 L156.037849,230.005309 L262.09228,123.927118 Z M87.3424946,222.424078 C91.9477039,232.427611 108.737713,240.410493 130.377602,243.054809 L126.09197,259.444817 C103.078596,255.771341 86.5055708,245.928647 86.0889653,234.309707 L86.0809291,233.861162 L86.0809291,227.978867 C86.0809291,226.075847 86.5168735,224.21793 87.3424946,222.424078 Z M1.2574174,206.453801 C6.90810978,218.768846 30.964544,228.022044 59.7867644,228.022044 C65.3398147,228.022044 70.7110592,227.67298 75.8125508,227.030172 L76.4488259,226.948296 L76.4488259,234.151377 C76.4488259,237.442326 77.2081953,240.61898 78.6803063,243.631113 C72.7411355,244.528038 66.3899991,245.014941 59.7867644,245.014941 C27.0977088,245.014941 0.535975499,233.113245 0.00800973911,218.339445 L0,217.890884 L0,212.008589 C0,210.104544 0.434510985,208.247139 1.2574174,206.453801 Z M87.3424946,192.042061 C93.0118282,204.357107 117.147623,213.610304 146.064925,213.610304 C147.409606,213.610304 148.743948,213.590295 150.066574,213.550898 L133.990459,229.239929 L133.782606,230.034106 C106.857468,227.500751 86.5506853,216.805365 86.0889653,203.928203 L86.0809291,203.479657 L86.0809291,197.59685 C86.0809291,195.692805 86.5168735,193.835913 87.3424946,192.042061 Z M1.25568119,176.072296 C6.89857125,188.387342 30.921789,197.640539 59.7042124,197.640539 C65.2495953,197.640539 70.6134233,197.291475 75.7078709,196.648668 L76.3432675,196.566791 L76.3432675,213.565326 C71.0611171,214.259803 65.4791179,214.633436 59.7042124,214.633436 C27.060293,214.633436 0.535235439,202.731741 0.00799867948,187.958438 L0,187.509892 L0,181.627597 C0,179.723552 0.433911024,177.866148 1.25568119,176.072296 Z M87.3424946,160.102531 C93.0118282,172.417413 117.147623,181.670488 146.064925,181.670488 C165.377178,181.670488 182.556803,177.543698 193.527474,171.133848 L167.072735,196.953694 C160.534696,198.059231 153.455892,198.663671 146.064925,198.663671 C113.268031,198.663671 86.6186728,186.762134 86.0889653,171.98853 L86.0809291,171.539975 L86.0809291,165.657759 C86.0809291,163.753226 86.5168735,161.895846 87.3424946,160.102531 Z M59.7042124,123.87843 C65.2481217,123.87843 70.6147201,124.221935 75.7080336,124.862805 L76.3432675,124.94446 L76.3432675,182.795884 C71.0611171,183.489699 65.4791179,183.862426 59.7042124,183.862426 C27.060293,183.862426 0.535235439,171.988606 0.00799867948,157.251625 L0,156.804183 L0,150.936161 C0,135.992313 26.7305565,123.87843 59.7042124,123.87843 Z M204.787355,130.110533 C205.578576,131.82915 206.011916,133.606604 206.046654,135.428012 L206.048921,135.665834 L206.048921,141.548129 C206.048921,156.528325 179.192587,168.671673 146.064925,168.671673 C113.268031,168.671673 86.6186728,156.769978 86.0889653,141.996675 L86.0809291,141.548129 L86.0809291,135.665834 C86.0809291,133.761277 86.5168735,131.903872 87.3424946,130.110533 C93.0118282,142.426091 117.147623,151.678776 146.064925,151.678776 C174.982227,151.678776 199.118022,142.426091 204.787355,130.110533 Z M316.891658,94.9167827 L317.109679,95.1312945 L335.798588,113.820204 C341.344452,119.366067 341.39991,128.275958 335.964964,133.88948 L335.798588,134.058571 L314.916757,154.940402 L273.009757,113.033401 L290.911863,95.1312945 C298.086549,87.9809022 309.652948,87.9093983 316.891658,94.9167827 Z M146.064925,77.9166667 C178.86131,77.9166667 205.511167,89.7895851 206.040885,104.527168 L206.048921,104.974629 L206.048921,110.842701 C206.048921,125.786676 179.192587,137.900663 146.064925,137.900663 C113.268031,137.900663 86.6186728,126.027744 86.0889653,111.290161 L86.0809291,110.842701 L86.0809291,104.974629 C86.0809291,90.0306534 112.936749,77.9166667 146.064925,77.9166667 Z" transform="translate(40 10)"/>
    <g fill-rule="nonzero" transform="translate(418 69)">
      <g transform="translate(.247 .246)">
        <path fill="#005498" d="M170.617155,21.3354262 L161.708825,21.3354262 L120.488929,21.3354262 L111.505105,21.3354262 L105.46556,28.0966528 L85.9880263,49.9579522 L85.9880263,49.9579522 L79.948481,56.7191789 L71.0401516,56.7191789 L30.5751981,56.7191789 L21.6668688,56.7191789 L27.5554254,49.8828275 L30.3487151,46.6524637 L36.2372718,39.8161123 L27.3289425,39.8161123 L15.8538064,39.8161123 L9.43678954,39.8161123 C4.52965898,39.8161123 0.528460214,43.947973 0.528460214,48.9062059 L0.528460214,48.9062059 L0.528460214,66.4853951 L0.528460214,68.1381394 C0.528460214,73.171497 4.52965898,77.2282329 9.43678954,77.2282329 L11.928102,77.2282329 L105.541054,77.2282329 L112.260048,77.2282329 C117.167179,77.2282329 123.886173,74.2232433 127.132429,70.4670063 L142.684258,52.8878171 L170.617155,21.3354262 Z"/>
        <path fill="#FFD800" d="M182.469762,0.826372142 C187.376893,0.826372142 191.378092,4.95823285 191.378092,9.91646571 L191.378092,29.0732745 C191.378092,34.1066321 187.376893,38.163368 182.469762,38.163368 L177.638126,38.163368 L164.653104,38.163368 L155.744775,38.163368 L161.708825,31.4021414 L161.708825,31.4021414 L164.653104,28.0215281 L170.617155,21.2603015 L111.505105,21.2603015 L80.0239753,56.5689294 L21.3648915,56.5689294 L63.4152257,9.24034304 L65.0006063,7.43734928 C68.3223562,3.75623701 75.0413504,0.676122662 79.948481,0.676122662 L81.9868275,0.676122662 L182.469762,0.676122662 L182.469762,0.826372142 Z"/>
      </g>
      <path fill="#005498" d="M191.625164,117.740956 L191.625164,114.961341 C191.625164,114.585717 191.398681,114.360343 190.870221,114.360343 L189.058357,114.360343 C188.529897,114.360343 188.152426,114.285218 188.076931,114.059844 C187.925943,113.83447 187.925943,113.383722 187.925943,112.632474 L187.925943,102.11501 L190.870221,102.11501 C191.096704,102.11501 191.247693,102.039886 191.398681,101.889636 C191.54967,101.739387 191.625164,101.589137 191.625164,101.363763 L191.625164,98.4338982 C191.625164,98.208524 191.54967,98.0582745 191.398681,97.908025 C191.247693,97.7577756 191.096704,97.6826508 190.870221,97.6826508 L187.925943,97.6826508 L187.925943,93.8512891 C187.925943,93.6259149 187.850448,93.4756654 187.774954,93.4005406 C187.623965,93.3254159 187.472977,93.2502912 187.321988,93.2502912 L187.246494,93.2502912 L182.867823,94.0015386 C182.64134,94.0766633 182.490352,94.151788 182.339363,94.2269128 C182.188375,94.3771623 182.11288,94.5274117 182.11288,94.6776612 L182.11288,97.6075261 L179.168602,97.6075261 C178.942119,97.6075261 178.79113,97.6826508 178.640142,97.8329003 C178.489153,97.9831498 178.413659,98.1333993 178.413659,98.3587735 L178.413659,100.762765 C178.413659,100.988139 178.489153,101.138389 178.640142,101.213514 C178.79113,101.363763 178.942119,101.438888 179.168602,101.514013 L182.11288,101.964761 L182.11288,112.482225 C182.11288,113.759345 182.263869,114.811092 182.490352,115.637464 C182.792329,116.463836 183.169801,117.064834 183.622767,117.515582 C184.151227,117.966331 184.755181,118.26683 185.510124,118.417079 C186.265068,118.567329 187.170999,118.642453 188.152426,118.642453 C188.680886,118.642453 189.133852,118.642453 189.586818,118.567329 C189.964289,118.492204 190.492749,118.417079 191.02121,118.341954 C191.398681,118.341954 191.625164,118.11658 191.625164,117.740956 L191.625164,117.740956 Z M175.922346,117.365333 L175.922346,114.134969 C175.922346,113.909595 175.846852,113.759345 175.695863,113.68422 C175.544875,113.609096 175.393886,113.533971 175.242897,113.533971 L175.167403,113.533971 C174.487954,113.609096 173.808505,113.68422 173.204551,113.68422 C172.600596,113.759345 171.770159,113.759345 170.713238,113.759345 C170.335767,113.759345 169.882801,113.68422 169.580824,113.533971 C169.203352,113.383722 168.901375,113.158347 168.599398,112.857848 C168.29742,112.557349 168.146432,112.106601 167.995443,111.580728 C167.844454,111.054855 167.76896,110.378732 167.76896,109.55236 L167.76896,106.54737 C167.76896,105.720998 167.844454,105.044875 167.995443,104.519002 C168.146432,103.993129 168.372915,103.542381 168.599398,103.241882 C168.901375,102.941383 169.203352,102.716008 169.580824,102.565759 C169.958295,102.415509 170.335767,102.340385 170.713238,102.340385 C171.770159,102.340385 172.600596,102.340385 173.204551,102.415509 C173.808505,102.490634 174.487954,102.490634 175.167403,102.565759 L175.242897,102.565759 C175.46938,102.565759 175.620369,102.490634 175.695863,102.415509 C175.846852,102.340385 175.922346,102.190135 175.922346,101.964761 L175.922346,98.7343972 C175.922346,98.4338982 175.846852,98.2836487 175.771358,98.208524 C175.620369,98.1333993 175.46938,97.9831498 175.167403,97.908025 C174.638943,97.7577756 174.034988,97.6826508 173.204551,97.5324013 C172.374113,97.3821519 171.468182,97.3821519 170.335767,97.3821519 C167.76896,97.3821519 165.730614,98.1333993 164.145233,99.7110188 C162.635347,101.288638 161.804909,103.542381 161.804909,106.54737 L161.804909,109.55236 C161.804909,112.482225 162.559852,114.811092 164.145233,116.388711 C165.655119,117.966331 167.76896,118.717578 170.335767,118.717578 C171.392687,118.717578 172.374113,118.642453 173.204551,118.567329 C174.034988,118.417079 174.714437,118.341954 175.167403,118.191705 C175.46938,118.11658 175.620369,118.041455 175.771358,117.891206 C175.922346,117.816081 175.922346,117.590707 175.922346,117.365333 L175.922346,117.365333 Z M152.292625,113.533971 C151.839659,113.759345 151.386694,113.909595 150.858233,114.059844 C150.329773,114.210094 149.801313,114.285218 149.272853,114.285218 C148.51791,114.285218 147.913955,114.210094 147.536483,113.984719 C147.159012,113.759345 147.008023,113.308597 147.008023,112.482225 L147.008023,112.181726 C147.008023,111.730977 147.083517,111.355354 147.159012,111.054855 C147.234506,110.754356 147.460989,110.453857 147.687472,110.228482 C147.913955,110.003108 148.291427,109.852859 148.668898,109.777734 C149.04637,109.702609 149.57483,109.627485 150.254279,109.627485 L152.292625,109.627485 L152.292625,113.533971 L152.292625,113.533971 Z M158.030193,104.744376 C158.030193,103.392131 157.80371,102.26526 157.426239,101.363763 C157.048767,100.462266 156.444813,99.7110188 155.765364,99.1100209 C155.010421,98.509023 154.179983,98.0582745 153.123063,97.8329003 C152.066142,97.5324013 150.858233,97.3821519 149.57483,97.3821519 C148.366921,97.3821519 147.159012,97.4572766 146.026597,97.6075261 C144.894182,97.7577756 143.988251,97.908025 143.308802,98.1333993 C142.855836,98.2836487 142.629353,98.509023 142.629353,98.9597714 L142.629353,101.889636 C142.629353,102.11501 142.704847,102.26526 142.780341,102.415509 C142.93133,102.490634 143.082319,102.565759 143.233307,102.565759 L143.384296,102.565759 C143.686273,102.565759 144.063745,102.490634 144.441216,102.490634 C144.894182,102.490634 145.347148,102.415509 145.875608,102.415509 C146.404069,102.415509 147.008023,102.340385 147.611978,102.340385 C148.215932,102.340385 148.819887,102.340385 149.348347,102.340385 C150.178784,102.340385 150.858233,102.490634 151.311199,102.791133 C151.764165,103.091632 152.066142,103.767755 152.066142,104.819501 L152.066142,106.096622 L150.10329,106.096622 C147.008023,106.096622 144.667699,106.54737 143.308802,107.523992 C141.87441,108.500613 141.194961,110.078233 141.194961,112.181726 L141.194961,112.482225 C141.194961,113.68422 141.345949,114.660842 141.723421,115.41209 C142.100893,116.238462 142.553859,116.83946 143.157813,117.365333 C143.761768,117.816081 144.365722,118.191705 145.120665,118.417079 C145.875608,118.642453 146.630552,118.717578 147.460989,118.717578 C148.51791,118.717578 149.499336,118.567329 150.254279,118.26683 C151.009222,117.966331 151.764165,117.590707 152.519108,117.064834 L152.519108,117.665832 C152.519108,117.891206 152.594603,118.041455 152.745591,118.191705 C152.89658,118.341954 153.047568,118.417079 153.274051,118.417079 L157.350745,118.417079 C157.577227,118.417079 157.728216,118.341954 157.879205,118.191705 C158.030193,118.041455 158.105688,117.891206 158.105688,117.665832 L158.105688,104.744376 L158.030193,104.744376 L158.030193,104.744376 Z M138.628154,117.740956 L138.628154,114.961341 C138.628154,114.585717 138.401671,114.360343 137.873211,114.360343 L136.061347,114.360343 C135.532887,114.360343 135.155416,114.285218 135.079921,114.059844 C134.928933,113.83447 134.928933,113.383722 134.928933,112.632474 L134.928933,102.11501 L137.873211,102.11501 C138.099694,102.11501 138.250682,102.039886 138.401671,101.889636 C138.55266,101.739387 138.628154,101.589137 138.628154,101.363763 L138.628154,98.4338982 C138.628154,98.208524 138.55266,98.0582745 138.401671,97.908025 C138.250682,97.7577756 138.099694,97.6826508 137.873211,97.6826508 L134.928933,97.6826508 L134.928933,93.8512891 C134.928933,93.6259149 134.853438,93.4756654 134.777944,93.4005406 C134.626955,93.3254159 134.475967,93.2502912 134.324978,93.2502912 L134.249484,93.2502912 L129.870813,94.0015386 C129.64433,94.0766633 129.493342,94.151788 129.342353,94.2269128 C129.191365,94.3771623 129.11587,94.5274117 129.11587,94.6776612 L129.11587,97.6075261 L126.096098,97.6075261 C125.869615,97.6075261 125.718626,97.6826508 125.567637,97.8329003 C125.416649,97.9831498 125.341154,98.1333993 125.341154,98.3587735 L125.341154,100.762765 C125.341154,100.988139 125.416649,101.138389 125.567637,101.213514 C125.718626,101.363763 125.869615,101.438888 126.096098,101.514013 L129.040376,101.964761 L129.040376,112.482225 C129.040376,113.759345 129.191365,114.811092 129.417847,115.637464 C129.719825,116.463836 130.097296,117.064834 130.550262,117.515582 C131.078722,117.966331 131.682677,118.26683 132.43762,118.417079 C133.192563,118.567329 134.098495,118.642453 135.079921,118.642453 C135.608381,118.642453 136.061347,118.642453 136.514313,118.567329 C136.891785,118.492204 137.420245,118.417079 137.948705,118.341954 C138.401671,118.341954 138.628154,118.11658 138.628154,117.740956 L138.628154,117.740956 Z M122.774348,117.665832 L122.774348,105.645873 C122.774348,104.519002 122.698853,103.467256 122.47237,102.415509 C122.321382,101.438888 121.94391,100.537391 121.490944,99.7861436 C121.037978,99.0348962 120.35853,98.4338982 119.528092,98.0582745 C118.697655,97.6075261 117.640734,97.3821519 116.281836,97.3821519 C115.149422,97.3821519 114.092501,97.5324013 113.186569,97.8329003 C112.280638,98.1333993 111.374706,98.5841477 110.317785,99.3353951 L110.317785,98.4338982 C110.317785,98.208524 110.242291,98.0582745 110.091303,97.908025 C109.940314,97.7577756 109.789325,97.6826508 109.562842,97.6826508 L105.486149,97.6826508 C105.259666,97.6826508 105.108678,97.7577756 104.957689,97.908025 C104.8067,98.0582745 104.731206,98.208524 104.731206,98.4338982 L104.731206,117.665832 C104.731206,117.891206 104.8067,118.041455 104.957689,118.191705 C105.108678,118.341954 105.259666,118.417079 105.486149,118.417079 L109.86482,118.417079 C110.091303,118.417079 110.242291,118.341954 110.39328,118.191705 C110.544268,118.041455 110.619763,117.891206 110.619763,117.665832 L110.619763,103.467256 C111.223717,103.166757 111.827672,102.866258 112.431626,102.640884 C112.960087,102.415509 113.564041,102.340385 114.092501,102.340385 C114.620961,102.340385 115.073927,102.415509 115.451399,102.490634 C115.828871,102.565759 116.055354,102.791133 116.281836,103.016507 C116.508319,103.317006 116.583814,103.617505 116.659308,104.068254 C116.734802,104.519002 116.734802,105.044875 116.734802,105.645873 L116.734802,117.665832 C116.734802,117.891206 116.810297,118.041455 116.961285,118.191705 C117.112274,118.341954 117.263263,118.417079 117.489746,118.417079 L121.868416,118.417079 C122.094899,118.417079 122.245887,118.341954 122.396876,118.191705 C122.698853,118.041455 122.774348,117.816081 122.774348,117.665832 L122.774348,117.665832 Z M95.2944165,109.326986 C95.2944165,112.25685 94.2374961,113.759345 92.0481609,113.759345 C90.9912405,113.759345 90.160803,113.383722 89.6323428,112.632474 C89.1038826,111.881227 88.8019053,110.754356 88.8019053,109.326986 L88.8019053,106.772744 C88.8019053,105.27025 89.1038826,104.218503 89.6323428,103.467256 C90.160803,102.716008 90.9912405,102.340385 92.0481609,102.340385 C94.1620018,102.340385 95.2944165,103.84288 95.2944165,106.772744 L95.2944165,109.326986 Z M101.182973,106.772744 C101.182973,105.345374 100.95649,103.993129 100.579019,102.866258 C100.201547,101.739387 99.5975925,100.762765 98.8426494,99.936393 C98.0877062,99.1100209 97.1062801,98.509023 95.9738654,98.0582745 C94.8414506,97.6075261 93.5580472,97.3821519 92.0481609,97.3821519 C90.5382746,97.3821519 89.2548712,97.6075261 88.1224565,98.0582745 C86.9900417,98.509023 86.0086156,99.1100209 85.2536725,99.936393 C84.4987293,100.762765 83.8947748,101.739387 83.5173032,102.866258 C83.1398316,103.993129 82.9133486,105.345374 82.9133486,106.772744 L82.9133486,109.326986 C82.9133486,110.754356 83.1398316,112.106601 83.5173032,113.233472 C83.8947748,114.360343 84.4987293,115.336965 85.2536725,116.163337 C86.0086156,116.989709 86.9900417,117.590707 88.1224565,118.041455 C89.2548712,118.492204 90.5382746,118.717578 92.0481609,118.717578 C93.5580472,118.717578 94.8414506,118.492204 95.9738654,118.041455 C97.1062801,117.590707 98.0877062,116.989709 98.8426494,116.163337 C99.5975925,115.336965 100.201547,114.360343 100.579019,113.233472 C100.95649,112.106601 101.182973,110.754356 101.182973,109.326986 L101.182973,106.772744 Z M81.0259907,117.365333 L81.0259907,114.134969 C81.0259907,113.909595 80.9504964,113.759345 80.7995078,113.68422 C80.6485192,113.609096 80.4975305,113.533971 80.2710476,113.533971 L80.1955533,113.533971 C79.5161044,113.609096 78.8366556,113.68422 78.232701,113.68422 C77.6287465,113.759345 76.798309,113.759345 75.7413886,113.759345 C75.363917,113.759345 74.9109511,113.68422 74.6089739,113.533971 C74.2315023,113.383722 73.929525,113.158347 73.6275477,112.857848 C73.3255705,112.557349 73.1745818,112.106601 73.0235932,111.580728 C72.8726046,111.054855 72.7971103,110.378732 72.7971103,109.55236 L72.7971103,106.54737 C72.7971103,105.720998 72.8726046,105.044875 73.0235932,104.519002 C73.1745818,103.993129 73.4010648,103.542381 73.6275477,103.241882 C73.929525,102.941383 74.2315023,102.716008 74.6089739,102.565759 C74.9864454,102.415509 75.363917,102.340385 75.7413886,102.340385 C76.798309,102.340385 77.6287465,102.340385 78.232701,102.415509 C78.8366556,102.490634 79.5161044,102.490634 80.1955533,102.565759 L80.2710476,102.565759 C80.4975305,102.565759 80.6485192,102.490634 80.7995078,102.415509 C80.9504964,102.340385 81.0259907,102.190135 81.0259907,101.964761 L81.0259907,98.7343972 C81.0259907,98.4338982 80.9504964,98.2836487 80.8750021,98.208524 C80.7240135,98.1333993 80.5730248,97.9831498 80.2710476,97.908025 C79.7425874,97.7577756 79.1386328,97.6826508 78.3081954,97.5324013 C77.4777579,97.3821519 76.5718261,97.3821519 75.4394113,97.3821519 C72.8726046,97.3821519 70.834258,98.1333993 69.2488774,99.7110188 C67.7389911,101.288638 66.9085536,103.542381 66.9085536,106.54737 L66.9085536,109.55236 C66.9085536,112.482225 67.6634968,114.811092 69.2488774,116.388711 C70.7587637,117.966331 72.8726046,118.717578 75.4394113,118.717578 C76.4963318,118.717578 77.4777579,118.642453 78.3081954,118.567329 C79.1386328,118.417079 79.7425874,118.341954 80.2710476,118.191705 C80.5730248,118.11658 80.7240135,118.041455 80.8750021,117.891206 C80.9504964,117.816081 81.0259907,117.590707 81.0259907,117.365333 L81.0259907,117.365333 Z M63.1338378,117.665832 L63.1338378,105.645873 C63.1338378,104.519002 63.0583435,103.467256 62.8318605,102.415509 C62.6808719,101.438888 62.3034003,100.537391 61.8504344,99.7861436 C61.3974685,99.0348962 60.7180197,98.4338982 59.8875822,98.0582745 C59.0571447,97.6075261 58.0002243,97.3821519 56.6413266,97.3821519 C55.5089118,97.3821519 54.4519914,97.5324013 53.5460596,97.8329003 C52.6401278,98.1333993 51.734196,98.5841477 50.6772756,99.3353951 L50.6772756,98.4338982 C50.6772756,98.208524 50.6017813,98.0582745 50.4507926,97.908025 C50.299804,97.7577756 50.1488154,97.6826508 49.9223324,97.6826508 L45.8456393,97.6826508 C45.6191564,97.6826508 45.4681678,97.7577756 45.3171791,97.908025 C45.1661905,98.0582745 45.0906962,98.208524 45.0906962,98.4338982 L45.0906962,117.665832 C45.0906962,117.891206 45.1661905,118.041455 45.3171791,118.191705 C45.4681678,118.341954 45.6191564,118.417079 45.8456393,118.417079 L50.2243097,118.417079 C50.4507926,118.417079 50.6017813,118.341954 50.7527699,118.191705 C50.9037585,118.041455 50.9792529,117.891206 50.9792529,117.665832 L50.9792529,103.467256 C51.5832074,103.166757 52.1871619,102.866258 52.7911164,102.640884 C53.3195767,102.415509 53.9235312,102.340385 54.4519914,102.340385 C54.9804516,102.340385 55.4334175,102.415509 55.8108891,102.490634 C56.1883607,102.565759 56.4148436,102.791133 56.6413266,103.016507 C56.8678095,103.317006 56.9433038,103.617505 57.0187982,104.068254 C57.0942925,104.519002 57.0942925,105.044875 57.0942925,105.645873 L57.0942925,117.665832 C57.0942925,117.891206 57.1697868,118.041455 57.3207754,118.191705 C57.4717641,118.341954 57.6227527,118.417079 57.8492356,118.417079 L62.227906,118.417079 C62.4543889,118.417079 62.6053776,118.341954 62.7563662,118.191705 C63.0583435,118.041455 63.1338378,117.816081 63.1338378,117.665832 L63.1338378,117.665832 Z M35.0499521,113.533971 C34.5969862,113.759345 34.1440203,113.909595 33.6155601,114.059844 C33.0870999,114.210094 32.5586397,114.285218 32.0301795,114.285218 C31.2752363,114.285218 30.6712818,114.210094 30.2938102,113.984719 C29.9163386,113.759345 29.76535,113.308597 29.76535,112.482225 L29.76535,112.181726 C29.76535,111.730977 29.8408443,111.355354 29.9163386,111.054855 C29.9918329,110.754356 30.2183159,110.453857 30.4447988,110.228482 C30.6712818,110.003108 31.0487534,109.852859 31.4262249,109.777734 C31.8036965,109.702609 32.3321567,109.627485 33.0116056,109.627485 L35.0499521,109.627485 L35.0499521,113.533971 Z M40.8630145,104.744376 C40.8630145,103.392131 40.6365315,102.26526 40.2590599,101.363763 C39.8815884,100.462266 39.2776338,99.7110188 38.598185,99.1100209 C37.8432418,98.509023 37.0128043,98.0582745 35.9558839,97.8329003 C34.8989635,97.5324013 33.6910544,97.3821519 32.407651,97.3821519 C31.199742,97.3821519 29.9918329,97.4572766 28.8594182,97.6075261 C27.7270034,97.7577756 26.8210716,97.908025 26.1416228,98.1333993 C25.6886569,98.2836487 25.4621739,98.509023 25.4621739,98.9597714 L25.4621739,101.889636 C25.4621739,102.11501 25.5376683,102.26526 25.6131626,102.415509 C25.7641512,102.490634 25.9151398,102.565759 26.0661285,102.565759 L26.2171171,102.565759 C26.5190944,102.565759 26.896566,102.490634 27.2740375,102.490634 C27.7270034,102.490634 28.1799693,102.415509 28.7839239,102.415509 C29.3123841,102.415509 29.9163386,102.340385 30.5202931,102.340385 C31.1242477,102.340385 31.7282022,102.340385 32.2566624,102.340385 C33.0870999,102.340385 33.7665487,102.490634 34.2195146,102.791133 C34.6724805,103.091632 34.9744578,103.767755 34.9744578,104.819501 L34.9744578,106.096622 L33.0116056,106.096622 C29.9163386,106.096622 27.5760148,106.54737 26.2171171,107.523992 C24.7827251,108.500613 24.1032763,110.078233 24.1032763,112.181726 L24.1032763,112.482225 C24.1032763,113.68422 24.2542649,114.660842 24.6317365,115.41209 C25.0092081,116.238462 25.4621739,116.83946 26.0661285,117.365333 C26.670083,117.816081 27.2740375,118.191705 28.0289807,118.417079 C28.7839239,118.642453 29.538867,118.717578 30.3693045,118.717578 C31.4262249,118.717578 32.407651,118.567329 33.1625942,118.26683 C33.9175374,117.966331 34.6724805,117.590707 35.4274237,117.064834 L35.4274237,117.665832 C35.4274237,117.891206 35.502918,118.041455 35.6539066,118.191705 C35.8048953,118.341954 35.9558839,118.417079 36.1823669,118.417079 L40.2590599,118.417079 C40.4855429,118.417079 40.6365315,118.341954 40.7875202,118.191705 C40.9385088,118.041455 41.0140031,117.891206 41.0140031,117.665832 L41.0140031,104.744376 L40.8630145,104.744376 L40.8630145,104.744376 Z M14.8929697,110.453857 C14.8929697,111.430478 14.5154981,112.25685 13.8360492,112.782724 C13.1566004,113.308597 11.7977027,113.609096 9.98583911,113.609096 L9.38188458,113.609096 C9.07990731,113.609096 8.77793005,113.609096 8.47595278,113.609096 C8.17397552,113.609096 7.87199825,113.609096 7.57002099,113.609096 L6.96606646,113.609096 L6.96606646,106.847869 L11.0427595,106.847869 C12.4771515,106.847869 13.534072,107.148368 14.0625322,107.824491 C14.5909924,108.500613 14.8929697,109.251861 14.8929697,110.078233 L14.8929697,110.453857 Z M14.741981,99.7110188 C14.741981,100.086643 14.6664867,100.462266 14.5909924,100.83789 C14.4400038,101.213514 14.2890151,101.514013 13.9870379,101.739387 C13.6850606,101.964761 13.307589,102.190135 12.8546231,102.340385 C12.4016572,102.490634 11.7977027,102.565759 11.0427595,102.565759 L6.96606646,102.565759 L6.96606646,96.3304055 C7.11705509,96.3304055 7.26804372,96.3304055 7.49452667,96.3304055 C7.72100962,96.3304055 8.02298689,96.3304055 8.32496415,96.3304055 L9.15540163,96.3304055 L9.75935616,96.3304055 C11.6467141,96.3304055 12.9301174,96.5557797 13.6850606,97.0065282 C14.4400038,97.4572766 14.8174754,98.208524 14.8174754,99.1851456 L14.741981,99.7110188 L14.741981,99.7110188 Z M20.932515,110.078233 C20.932515,108.801112 20.6305377,107.749366 20.0265832,106.847869 C19.4226286,105.946372 18.6676855,105.195125 17.6862594,104.744376 C18.6676855,104.293628 19.4226286,103.542381 19.9510889,102.640884 C20.4795491,101.664262 20.7815263,100.612516 20.7815263,99.4856446 L20.7815263,98.8095219 C20.7815263,97.3821519 20.4795491,96.180156 19.9510889,95.2035344 C19.4226286,94.2269128 18.5921912,93.4756654 17.6107651,92.8746675 C16.6293389,92.2736695 15.4214299,91.8980458 13.9870379,91.5975469 C12.5526459,91.3721726 11.0427595,91.2219232 9.30639026,91.2219232 C8.70243573,91.2219232 8.0984812,91.2219232 7.49452667,91.2219232 C6.89057214,91.2219232 6.28661761,91.2970479 5.68266308,91.2970479 C5.07870855,91.2970479 4.55024834,91.3721726 4.02178812,91.4472974 C3.49332791,91.5224221 3.11585633,91.5224221 2.81387906,91.5975469 C2.13443022,91.7477964 1.60597,91.8980458 1.30399274,92.2736695 C1.00201547,92.5741685 0.851026838,93.1751664 0.851026838,94.0015386 L0.851026838,116.013087 C0.851026838,116.83946 1.00201547,117.365333 1.30399274,117.740956 C1.60597,118.041455 2.13443022,118.26683 2.81387906,118.417079 C3.19135064,118.492204 3.64431654,118.567329 4.09728244,118.567329 C4.62574265,118.642453 5.15420287,118.642453 5.7581574,118.717578 C6.36211193,118.792703 6.96606646,118.792703 7.57002099,118.792703 C8.17397552,118.792703 8.85342437,118.792703 9.4573789,118.792703 C11.0427595,118.792703 12.5526459,118.642453 13.9115436,118.417079 C15.2704413,118.191705 16.4783503,117.740956 17.5352707,117.139959 C18.5921912,116.538961 19.3471343,115.712588 20.0265832,114.660842 C20.6305377,113.609096 20.932515,112.25685 20.932515,110.679231 L20.932515,110.078233 L20.932515,110.078233 Z"/>
    </g>
  </g>
</svg>
