<svg xmlns="http://www.w3.org/2000/svg" width="51" height="32" viewBox="0 0 51 32">
  <g fill="none" fill-rule="evenodd">
    <rect width="50" height="31" x=".5" y=".5" fill="#FFF" stroke="#D0D0D0"/>
    <path fill="#2C3341" fill-rule="nonzero" d="M3.92516895,19.4445479 C4.11462614,19.4678103 4.25711234,19.5621553 4.36244602,19.689316 C4.41849787,19.7569828 4.4598996,19.8292037 4.49610498,19.9109718 L4.50712804,19.9365554 C4.5451904,20.0273321 4.57807601,20.1316188 4.61416802,20.2667675 L4.62266048,20.2993369 C4.64785196,20.4000999 4.78293662,20.9579963 4.83330244,21.1369653 C4.91684025,21.4338071 5.00212997,21.6615403 5.09475185,21.8256063 C5.1385499,21.903188 5.18107377,21.9609421 5.21937177,21.9983533 C5.23333267,22.0119909 5.24544214,22.0216607 5.25549355,22.0279768 C5.26124982,22.0315939 5.26502826,22.0333553 5.26762647,22.0341653 C5.35066681,22.0600511 5.37417875,22.0576769 5.39675408,22.0442181 C5.43699643,22.0202267 5.4924349,21.9585741 5.56922608,21.84234 L5.582366,21.8221856 L5.7271391,21.5916658 C5.78850235,21.4963779 5.841947,21.4223743 5.90361872,21.3531881 C6.00133071,21.2435703 6.11061409,21.1572997 6.24675727,21.1002581 C6.41700912,21.0289255 6.59046571,21.0275864 6.75723661,21.0730022 C6.85983469,21.1009422 6.95410609,21.1444795 7.05507803,21.2036286 L7.07717535,21.216753 L7.10110076,21.2313654 C7.14524116,21.2587019 7.19134845,21.2893093 7.24672491,21.3275195 L7.47435139,21.4862869 L7.47435139,21.4862869 L7.50599365,21.507723 L7.53366835,21.5261338 C7.92642738,21.7850672 8.15250763,21.831137 8.40853312,21.6838951 L8.42122625,21.6764512 L8.43402413,21.6686569 C8.71361212,21.4952364 9.08084807,21.5813022 9.25426857,21.8608902 C9.42768907,22.1404782 9.34162332,22.5077141 9.06203533,22.6811346 C9.04227261,22.6933929 9.02243078,22.7052505 9.00251,22.7167071 C8.58136898,22.958908 8.14085398,23.0137955 7.70453209,22.9069739 C7.4009926,22.8326604 7.14062605,22.6987532 6.82962892,22.4886559 L6.80678131,22.4731467 C6.78586285,22.4588802 6.76524331,22.4446597 6.74246903,22.428809 L6.64943673,22.3635819 L6.59288589,22.4534231 L6.57409514,22.4826574 C6.40286833,22.7448983 6.23870952,22.9293627 6.00685803,23.0675862 C5.68694101,23.258312 5.31247996,23.2961247 4.91305398,23.171613 C4.54500714,23.0568831 4.27004559,22.7882887 4.05723515,22.4113265 C3.93714377,22.1986024 3.8384319,21.9554504 3.74828652,21.6681865 L3.74029563,21.6425194 L3.70807251,21.7238115 C3.63843265,21.8979495 3.58012911,22.0330046 3.52020309,22.1572831 L3.50734619,22.1837311 C3.4396316,22.3219011 3.37358486,22.4368641 3.30277819,22.5334629 C3.18450013,22.6948249 3.05279724,22.8130414 2.86258001,22.8741497 C2.6184423,22.9525802 2.40241113,22.8946387 2.20511453,22.7696926 C2.09768297,22.7016572 1.99522802,22.6114599 1.88756214,22.4976058 C1.7322895,22.3334088 1.56235456,22.1151456 1.36767376,21.8382466 L1.350926,21.8143687 C1.29895133,21.7400911 1.24541169,21.661933 1.18948326,21.5788567 L1.14214155,21.5082288 C1.10244107,21.4487476 1.06179237,21.3872222 1.01775333,21.3200344 L0.720811896,20.8639692 L0.676768452,20.7972034 L0.640934571,20.743653 C0.621141175,20.7143414 0.604348237,20.6899993 0.590166857,20.670064 L0.579500445,20.6552534 L0.578670401,20.6545186 C0.441283672,20.5309899 0.363369325,20.3456524 0.384091897,20.1487338 L0.385342385,20.1385494 C0.425437976,19.811997 0.722664887,19.5797779 1.04921727,19.6198735 C1.19133735,19.6373237 1.28131936,19.6874438 1.36641621,19.7570644 C1.39857991,19.7833786 1.42503877,19.8096126 1.45082089,19.8383398 C1.4771764,19.8677059 1.50269799,19.899763 1.53064722,19.9375366 L1.54124835,19.9519756 C1.5830784,20.0093679 1.63236481,20.0818415 1.69918804,20.1833231 L1.98998813,20.6298978 L2.04945031,20.7205481 C2.07335166,20.7568514 2.09628636,20.7915079 2.11872897,20.8252217 L2.17781592,20.9134939 L2.21642932,20.9706104 C2.2545808,21.0267986 2.29137814,21.0802417 2.32710622,21.1313012 L2.3587404,21.1762772 L2.39280033,21.2241573 C2.43769368,21.2868768 2.48049771,21.3450972 2.52109481,21.3986228 L2.54234681,21.426468 L2.55777724,21.3895675 L2.57033524,21.3590753 C2.60849081,21.2659243 2.65108515,21.1574706 2.7009489,21.0273579 L2.86463966,20.5989521 C3.0165729,20.2037785 3.05492897,20.1186801 3.14201057,19.9560239 L3.14538423,19.9497288 C3.2012716,19.8455484 3.25731587,19.7596358 3.3245746,19.6849612 C3.37936685,19.6241277 3.44081722,19.5714591 3.51616259,19.5284547 C3.63538577,19.4604066 3.77478878,19.4260835 3.92516895,19.4445479 Z M11.0646163,18.4563609 L14.2674523,21.6609841 L10.6964043,22.5268272 C10.4365537,22.5900134 10.2017164,22.3601903 10.2535698,22.1009423 L10.255247,22.0929972 L11.0646163,18.4563609 Z M0.674112008,20.7244884 L0.676362697,20.7263289 C0.735809993,20.7741498 0.805714319,20.809001 0.904018292,20.8244884 C0.822380196,20.8116267 0.746637929,20.7781445 0.679572452,20.7286091 L0.674112008,20.7244884 Z M20.0423508,9.47677961 L23.2470038,12.6814028 L15.1351421,20.7932645 L11.9323061,17.5886413 L20.0423508,9.47677961 Z M6.67913194,17.0089001 C7.03129501,17.7738761 8.31523688,18.3843319 9.97005189,18.5865443 L9.64232709,19.8398978 C7.88248088,19.5589849 6.61513188,18.8063083 6.58327382,17.9178011 L6.58265929,17.8835006 L6.58265929,17.4336781 C6.58265929,17.288153 6.61599621,17.146077 6.67913194,17.0089001 Z M0.0961554483,15.7876436 C0.528267218,16.7293824 2.36787689,17.4369798 4.57192904,17.4369798 C4.99657407,17.4369798 5.40731629,17.4102867 5.79743035,17.3611308 L5.84608669,17.3548697 L5.84608669,17.9056936 C5.84608669,18.1573543 5.90415611,18.4002749 6.0167293,18.6306145 C5.56255742,18.6992029 5.07688228,18.7364367 4.57192904,18.7364367 C2.07217773,18.7364367 0.0409863617,17.826307 0.000612509461,16.6965458 L0,16.6622441 L0,16.2124215 C0,16.0668181 0.0332273106,15.9247813 0.0961554483,15.7876436 Z M6.67913194,14.6855694 C7.11266921,15.6273082 8.95834761,16.3349056 11.1696707,16.3349056 C11.2724993,16.3349056 11.3745372,16.3333755 11.4756792,16.3303628 L10.2463292,17.5301122 L10.2304346,17.5908434 C8.17145341,17.3971162 6.61858181,16.5792338 6.58327382,15.5945096 L6.58265929,15.5602091 L6.58265929,15.1103474 C6.58265929,14.9647439 6.61599621,14.8227463 6.67913194,14.6855694 Z M0.0960226795,13.4643521 C0.527537801,14.4060908 2.36460739,15.1136883 4.56561625,15.1136883 C4.98967494,15.1136883 5.39985002,15.0869952 5.78942542,15.0378393 L5.83801457,15.0315781 L5.83801457,16.3314661 C5.43408543,16.3845732 5.00722666,16.4131451 4.56561625,16.4131451 C2.06931652,16.4131451 0.0409297689,15.5030155 0.000611663725,14.3732923 L0,14.3389918 L0,13.8891692 C0,13.7435658 0.0331814312,13.6015289 0.0960226795,13.4643521 Z M6.67913194,12.2431347 C7.11266921,13.184861 8.95834761,13.892449 11.1696707,13.892449 C12.6464901,13.892449 13.9602261,13.576871 14.7991598,13.086706 L12.7761503,15.0611649 C12.2761826,15.1457059 11.7348623,15.1919278 11.1696707,15.1919278 C8.66167296,15.1919278 6.62378086,14.2818102 6.58327382,13.152064 L6.58265929,13.1177628 L6.58265929,12.6679462 C6.58265929,12.5223055 6.61599621,12.3802706 6.67913194,12.2431347 Z M4.56561625,9.47305639 C4.98956224,9.47305639 5.39994918,9.49932444 5.78943786,9.54833218 L5.83801457,9.55457633 L5.83801457,13.9785088 C5.43408543,14.0315652 5.00722666,14.0600678 4.56561625,14.0600678 C2.06931652,14.0600678 0.0409297689,13.1520699 0.000611663725,12.0251243 L0,11.9909081 L0,11.542177 C0,10.3994122 2.04410138,9.47305639 4.56561625,9.47305639 Z M15.6602095,9.94962901 C15.7207146,10.0810526 15.7538524,10.2169756 15.7565088,10.3562597 L15.7566822,10.3744462 L15.7566822,10.8242687 C15.7566822,11.9698131 13.7029625,12.8984221 11.1696707,12.8984221 C8.66167296,12.8984221 6.62378086,11.9882924 6.58327382,10.8585692 L6.58265929,10.8242687 L6.58265929,10.3744462 C6.58265929,10.2288035 6.61599621,10.0867667 6.67913194,9.94962901 C7.11266921,10.891407 8.95834761,11.5989652 11.1696707,11.5989652 C13.3809939,11.5989652 15.2266723,10.891407 15.6602095,9.94962901 Z M24.2328915,7.25834221 L24.2495637,7.27474605 L25.6787156,8.70389797 C26.102811,9.12799339 26.107052,9.80933798 25.6914385,10.2386073 L25.6787156,10.2515378 L24.0818697,11.8483837 L20.8772167,8.64373068 L22.2462013,7.27474605 C22.7948537,6.72795135 23.6793431,6.7224834 24.2328915,7.25834221 Z M11.1696707,5.95833333 C13.6776296,5.95833333 15.7155598,6.86626239 15.7560676,7.993254 L15.7566822,8.0274716 L15.7566822,8.47620651 C15.7566822,9.61898109 13.7029625,10.5453448 11.1696707,10.5453448 C8.66167296,10.5453448 6.62378086,9.63741573 6.58327382,8.51042411 L6.58265929,8.47620651 L6.58265929,8.0274716 C6.58265929,6.88469703 8.63633965,5.95833333 11.1696707,5.95833333 Z" transform="translate(5 3)"/>
    <g fill-rule="nonzero" transform="translate(33 5.625)">
      <g transform="translate(.018 .018)">
        <path fill="#005498" d="M12.4408342,1.55570816 L11.7912685,1.55570816 L8.78565106,1.55570816 L8.13058058,1.55570816 L7.69019707,2.04871427 L6.26996025,3.64276735 L6.26996025,3.64276735 L5.82957674,4.13577346 L5.18001106,4.13577346 L2.22944153,4.13577346 L1.57987585,4.13577346 L2.00924977,3.6372895 L2.21292715,3.40174214 L2.64230107,2.90325819 L1.99273539,2.90325819 L1.15600672,2.90325819 L0.688099237,2.90325819 C0.330287634,2.90325819 0.0385335573,3.2045397 0.0385335573,3.56607751 L0.0385335573,3.56607751 L0.0385335573,4.84789339 L0.0385335573,4.968406 C0.0385335573,5.33542165 0.330287634,5.63122532 0.688099237,5.63122532 L0.869757436,5.63122532 L7.69570187,5.63122532 L8.18562852,5.63122532 C8.54344013,5.63122532 9.03336678,5.41211149 9.27007292,5.13821921 L10.4040605,3.85640333 L12.4408342,1.55570816 Z"/>
        <path fill="#FFD800" d="M13.3050868,0.060256302 C13.6628985,0.060256302 13.9546525,0.361537812 13.9546525,0.723075624 L13.9546525,2.11992626 C13.9546525,2.48694192 13.6628985,2.78274558 13.3050868,2.78274558 L12.95278,2.78274558 L12.0059555,2.78274558 L11.3563898,2.78274558 L11.7912685,2.28973948 L11.7912685,2.28973948 L12.0059555,2.04323642 L12.4408342,1.55023032 L8.13058058,1.55023032 L5.83508153,4.12481777 L1.55785667,4.12481777 L4.62402687,0.673775014 L4.73962754,0.542306718 C4.98183848,0.273892282 5.47176513,0.0493006108 5.82957674,0.0493006108 L5.97820617,0.0493006108 L13.3050868,0.0493006108 L13.3050868,0.060256302 Z"/>
      </g>
      <path fill="#005498" d="M13.9726682,8.58527808 L13.9726682,8.38259779 C13.9726682,8.35520856 13.9561538,8.33877502 13.9176203,8.33877502 L13.7855052,8.33877502 C13.7469717,8.33877502 13.7194477,8.33329718 13.7139429,8.31686364 C13.7029333,8.3004301 13.7029333,8.26756303 13.7029333,8.21278457 L13.7029333,7.44588618 L13.9176203,7.44588618 C13.9341347,7.44588618 13.9451442,7.44040834 13.9561538,7.42945265 C13.9671634,7.41849695 13.9726682,7.40754126 13.9726682,7.39110773 L13.9726682,7.17747175 C13.9726682,7.16103821 13.9671634,7.15008252 13.9561538,7.13912683 C13.9451442,7.12817114 13.9341347,7.12269329 13.9176203,7.12269329 L13.7029333,7.12269329 L13.7029333,6.84332316 C13.7029333,6.82688962 13.6974285,6.81593393 13.6919237,6.81045609 C13.6809141,6.80497824 13.6699046,6.7995004 13.658895,6.7995004 L13.6533902,6.7995004 L13.3341121,6.85427885 C13.3175977,6.8597567 13.3065882,6.86523454 13.2955786,6.87071239 C13.284569,6.88166808 13.2790642,6.89262377 13.2790642,6.90357946 L13.2790642,7.11721544 L13.0643772,7.11721544 C13.0478628,7.11721544 13.0368533,7.12269329 13.0258437,7.13364898 C13.0148341,7.14460467 13.0093293,7.15556036 13.0093293,7.1719939 L13.0093293,7.34728496 C13.0093293,7.3637185 13.0148341,7.37467419 13.0258437,7.38015203 C13.0368533,7.39110773 13.0478628,7.39658557 13.0643772,7.40206342 L13.2790642,7.43493049 L13.2790642,8.20182888 C13.2790642,8.29495226 13.2900738,8.3716421 13.3065882,8.4318984 C13.3286073,8.4921547 13.3561313,8.53597746 13.3891601,8.56884454 C13.4276936,8.60171161 13.471732,8.62362299 13.5267799,8.63457869 C13.5818278,8.64553438 13.6478854,8.65101222 13.7194477,8.65101222 C13.7579813,8.65101222 13.79101,8.65101222 13.8240388,8.64553438 C13.8515628,8.64005653 13.8900963,8.63457869 13.9286299,8.62910084 C13.9561538,8.62910084 13.9726682,8.6126673 13.9726682,8.58527808 L13.9726682,8.58527808 Z M12.8276711,8.55788885 L12.8276711,8.32234148 C12.8276711,8.30590795 12.8221663,8.29495226 12.8111567,8.28947441 C12.8001471,8.28399657 12.7891375,8.27851872 12.7781279,8.27851872 L12.7726231,8.27851872 C12.72308,8.28399657 12.6735369,8.28947441 12.6294985,8.28947441 C12.5854602,8.29495226 12.5249074,8.29495226 12.4478403,8.29495226 C12.4203163,8.29495226 12.3872876,8.28947441 12.3652684,8.27851872 C12.3377444,8.26756303 12.3157253,8.25112949 12.2937061,8.22921811 C12.2716869,8.20730673 12.2606773,8.17443965 12.2496677,8.13609473 C12.2386581,8.09774981 12.2331533,8.0484492 12.2331533,7.9881929 L12.2331533,7.76907907 C12.2331533,7.70882277 12.2386581,7.65952216 12.2496677,7.62117724 C12.2606773,7.58283232 12.2771917,7.54996525 12.2937061,7.52805387 C12.3157253,7.50614248 12.3377444,7.48970895 12.3652684,7.47875326 C12.3927924,7.46779756 12.4203163,7.46231972 12.4478403,7.46231972 C12.5249074,7.46231972 12.5854602,7.46231972 12.6294985,7.46779756 C12.6735369,7.47327541 12.72308,7.47327541 12.7726231,7.47875326 L12.7781279,7.47875326 C12.7946423,7.47875326 12.8056519,7.47327541 12.8111567,7.46779756 C12.8221663,7.46231972 12.8276711,7.45136403 12.8276711,7.43493049 L12.8276711,7.19938313 C12.8276711,7.17747175 12.8221663,7.16651605 12.8166615,7.16103821 C12.8056519,7.15556036 12.7946423,7.14460467 12.7726231,7.13912683 C12.7340896,7.12817114 12.6900512,7.12269329 12.6294985,7.1117376 C12.5689458,7.10078191 12.5028882,7.10078191 12.4203163,7.10078191 C12.2331533,7.10078191 12.0845239,7.15556036 11.9689232,7.27059512 C11.8588274,7.38562988 11.7982746,7.54996525 11.7982746,7.76907907 L11.7982746,7.9881929 C11.7982746,8.20182888 11.8533226,8.3716421 11.9689232,8.48667685 C12.0790191,8.60171161 12.2331533,8.65649007 12.4203163,8.65649007 C12.4973835,8.65649007 12.5689458,8.65101222 12.6294985,8.64553438 C12.6900512,8.63457869 12.7395944,8.62910084 12.7726231,8.61814515 C12.7946423,8.6126673 12.8056519,8.60718946 12.8166615,8.59623377 C12.8276711,8.59075592 12.8276711,8.57432238 12.8276711,8.55788885 L12.8276711,8.55788885 Z M11.1046706,8.27851872 C11.0716418,8.29495226 11.0386131,8.30590795 11.0000795,8.31686364 C10.961546,8.32781933 10.9230124,8.33329718 10.8844788,8.33329718 C10.8294309,8.33329718 10.7853926,8.32781933 10.7578686,8.31138579 C10.7303446,8.29495226 10.719335,8.26208518 10.719335,8.20182888 L10.719335,8.1799175 C10.719335,8.14705042 10.7248398,8.1196612 10.7303446,8.09774981 C10.7358494,8.07583843 10.7523638,8.05392705 10.7688782,8.03749351 C10.7853926,8.02105997 10.8129165,8.01010428 10.8404405,8.00462644 C10.8679645,7.99914859 10.906498,7.99367075 10.9560412,7.99367075 L11.1046706,7.99367075 L11.1046706,8.27851872 L11.1046706,8.27851872 Z M11.5230349,7.63761078 C11.5230349,7.53900956 11.5065206,7.45684187 11.4789966,7.39110773 C11.4514726,7.32537358 11.4074343,7.27059512 11.3578911,7.22677236 C11.3028432,7.18294959 11.2422904,7.15008252 11.1652233,7.13364898 C11.0881562,7.1117376 11.0000795,7.10078191 10.906498,7.10078191 C10.8184213,7.10078191 10.7303446,7.10625975 10.6477727,7.11721544 C10.5652008,7.12817114 10.4991433,7.13912683 10.4496001,7.15556036 C10.4165714,7.16651605 10.400057,7.18294959 10.400057,7.21581667 L10.400057,7.42945265 C10.400057,7.44588618 10.4055618,7.45684187 10.4110666,7.46779756 C10.4220762,7.47327541 10.4330857,7.47875326 10.4440953,7.47875326 L10.4551049,7.47875326 C10.4771241,7.47875326 10.5046481,7.47327541 10.532172,7.47327541 C10.5652008,7.47327541 10.5982296,7.46779756 10.6367631,7.46779756 C10.6752967,7.46779756 10.719335,7.46231972 10.7633734,7.46231972 C10.8074117,7.46231972 10.8514501,7.46231972 10.8899836,7.46231972 C10.9505364,7.46231972 11.0000795,7.47327541 11.0331083,7.49518679 C11.066137,7.51709818 11.0881562,7.56639879 11.0881562,7.64308863 L11.0881562,7.736212 L10.9450316,7.736212 C10.719335,7.736212 10.5486864,7.76907907 10.4496001,7.84029107 C10.345009,7.91150306 10.2954659,8.02653782 10.2954659,8.1799175 L10.2954659,8.20182888 C10.2954659,8.28947441 10.3064755,8.3606864 10.3339995,8.41546486 C10.3615234,8.47572116 10.3945522,8.51954393 10.4385905,8.55788885 C10.4826289,8.59075592 10.5266672,8.61814515 10.5817152,8.63457869 C10.6367631,8.65101222 10.6918111,8.65649007 10.7523638,8.65649007 C10.8294309,8.65649007 10.9009932,8.64553438 10.9560412,8.62362299 C11.0110891,8.60171161 11.066137,8.57432238 11.121185,8.53597746 L11.121185,8.57980023 C11.121185,8.59623377 11.1266898,8.60718946 11.1376994,8.61814515 C11.1487089,8.62910084 11.1597185,8.63457869 11.1762329,8.63457869 L11.4734918,8.63457869 C11.4900062,8.63457869 11.5010158,8.62910084 11.5120253,8.61814515 C11.5230349,8.60718946 11.5285397,8.59623377 11.5285397,8.57980023 L11.5285397,7.63761078 L11.5230349,7.63761078 L11.5230349,7.63761078 Z M10.1083029,8.58527808 L10.1083029,8.38259779 C10.1083029,8.35520856 10.0917885,8.33877502 10.053255,8.33877502 L9.92113991,8.33877502 C9.88260635,8.33877502 9.85508238,8.33329718 9.84957759,8.31686364 C9.838568,8.3004301 9.838568,8.26756303 9.838568,8.21278457 L9.838568,7.44588618 L10.053255,7.44588618 C10.0697693,7.44588618 10.0807789,7.44040834 10.0917885,7.42945265 C10.1027981,7.41849695 10.1083029,7.40754126 10.1083029,7.39110773 L10.1083029,7.17747175 C10.1083029,7.16103821 10.1027981,7.15008252 10.0917885,7.13912683 C10.0807789,7.12817114 10.0697693,7.12269329 10.053255,7.12269329 L9.838568,7.12269329 L9.838568,6.84332316 C9.838568,6.82688962 9.83306321,6.81593393 9.82755841,6.81045609 C9.81654882,6.80497824 9.80553924,6.7995004 9.79452965,6.7995004 L9.78902486,6.7995004 L9.46974681,6.85427885 C9.45323243,6.8597567 9.44222284,6.86523454 9.43121325,6.87071239 C9.42020366,6.88166808 9.41469887,6.89262377 9.41469887,6.90357946 L9.41469887,7.11721544 L9.19450711,7.11721544 C9.17799273,7.11721544 9.16698314,7.12269329 9.15597356,7.13364898 C9.14496397,7.14460467 9.13945918,7.15556036 9.13945918,7.1719939 L9.13945918,7.34728496 C9.13945918,7.3637185 9.14496397,7.37467419 9.15597356,7.38015203 C9.16698314,7.39110773 9.17799273,7.39658557 9.19450711,7.40206342 L9.40919408,7.43493049 L9.40919408,8.20182888 C9.40919408,8.29495226 9.42020366,8.3716421 9.43671805,8.4318984 C9.45873722,8.4921547 9.48626119,8.53597746 9.51928995,8.56884454 C9.55782351,8.60171161 9.60186186,8.62362299 9.6569098,8.63457869 C9.71195774,8.64553438 9.77801527,8.65101222 9.84957759,8.65101222 C9.88811115,8.65101222 9.92113991,8.65101222 9.95416867,8.64553438 C9.98169264,8.64005653 10.0202262,8.63457869 10.0587598,8.62910084 C10.0917885,8.62910084 10.1083029,8.6126673 10.1083029,8.58527808 L10.1083029,8.58527808 Z M8.95229618,8.57980023 L8.95229618,7.70334493 C8.95229618,7.62117724 8.94679139,7.5444874 8.93027701,7.46779756 C8.91926742,7.39658557 8.89174345,7.33085142 8.85871469,7.27607297 C8.82568592,7.22129451 8.77614278,7.17747175 8.71559005,7.15008252 C8.65503731,7.11721544 8.5779702,7.10078191 8.47888391,7.10078191 C8.396312,7.10078191 8.31924488,7.1117376 8.25318736,7.13364898 C8.18712983,7.15556036 8.1210723,7.18842744 8.04400519,7.24320589 L8.04400519,7.17747175 C8.04400519,7.16103821 8.0385004,7.15008252 8.02749081,7.13912683 C8.01648122,7.12817114 8.00547163,7.12269329 7.98895725,7.12269329 L7.69169838,7.12269329 C7.675184,7.12269329 7.66417441,7.12817114 7.65316482,7.13912683 C7.64215524,7.15008252 7.63665044,7.16103821 7.63665044,7.17747175 L7.63665044,8.57980023 C7.63665044,8.59623377 7.64215524,8.60718946 7.65316482,8.61814515 C7.66417441,8.62910084 7.675184,8.63457869 7.69169838,8.63457869 L8.01097643,8.63457869 C8.02749081,8.63457869 8.0385004,8.62910084 8.04950998,8.61814515 C8.06051957,8.60718946 8.06602437,8.59623377 8.06602437,8.57980023 L8.06602437,7.5444874 C8.11006272,7.52257602 8.15410107,7.50066464 8.19813942,7.4842311 C8.23667298,7.46779756 8.28071133,7.46231972 8.31924488,7.46231972 C8.35777844,7.46231972 8.39080721,7.46779756 8.41833117,7.47327541 C8.44585514,7.47875326 8.46236953,7.49518679 8.47888391,7.51162033 C8.49539829,7.53353171 8.50090308,7.55544309 8.50640788,7.58831017 C8.51191267,7.62117724 8.51191267,7.65952216 8.51191267,7.70334493 L8.51191267,8.57980023 C8.51191267,8.59623377 8.51741747,8.60718946 8.52842705,8.61814515 C8.53943664,8.62910084 8.55044623,8.63457869 8.56696061,8.63457869 L8.88623866,8.63457869 C8.90275304,8.63457869 8.91376263,8.62910084 8.92477221,8.61814515 C8.94679139,8.60718946 8.95229618,8.59075592 8.95229618,8.57980023 L8.95229618,8.57980023 Z M6.9485512,7.97175936 C6.9485512,8.18539534 6.87148409,8.29495226 6.71184507,8.29495226 C6.63477795,8.29495226 6.57422522,8.26756303 6.53569166,8.21278457 C6.49715811,8.15800612 6.47513893,8.07583843 6.47513893,7.97175936 L6.47513893,7.78551261 C6.47513893,7.6759557 6.49715811,7.59926586 6.53569166,7.5444874 C6.57422522,7.48970895 6.63477795,7.46231972 6.71184507,7.46231972 C6.8659793,7.46231972 6.9485512,7.57187663 6.9485512,7.78551261 L6.9485512,7.97175936 Z M7.37792513,7.78551261 C7.37792513,7.68143354 7.36141075,7.58283232 7.33388678,7.50066464 C7.30636281,7.41849695 7.26232446,7.34728496 7.20727652,7.28702866 C7.15222858,7.22677236 7.08066626,7.18294959 6.99809435,7.15008252 C6.91552244,7.11721544 6.82194095,7.10078191 6.71184507,7.10078191 C6.60174919,7.10078191 6.50816769,7.11721544 6.42559578,7.15008252 C6.34302388,7.18294959 6.27146156,7.22677236 6.21641362,7.28702866 C6.16136568,7.34728496 6.11732733,7.41849695 6.08980336,7.50066464 C6.06227939,7.58283232 6.04576501,7.68143354 6.04576501,7.78551261 L6.04576501,7.97175936 C6.04576501,8.07583843 6.06227939,8.17443965 6.08980336,8.25660734 C6.11732733,8.33877502 6.16136568,8.40998701 6.21641362,8.47024332 C6.27146156,8.53049962 6.34302388,8.57432238 6.42559578,8.60718946 C6.50816769,8.64005653 6.60174919,8.65649007 6.71184507,8.65649007 C6.82194095,8.65649007 6.91552244,8.64005653 6.99809435,8.60718946 C7.08066626,8.57432238 7.15222858,8.53049962 7.20727652,8.47024332 C7.26232446,8.40998701 7.30636281,8.33877502 7.33388678,8.25660734 C7.36141075,8.17443965 7.37792513,8.07583843 7.37792513,7.97175936 L7.37792513,7.78551261 Z M5.90814516,8.55788885 L5.90814516,8.32234148 C5.90814516,8.30590795 5.90264036,8.29495226 5.89163078,8.28947441 C5.88062119,8.28399657 5.8696116,8.27851872 5.85309722,8.27851872 L5.84759243,8.27851872 C5.79804928,8.28399657 5.74850614,8.28947441 5.70446778,8.28947441 C5.66042943,8.29495226 5.5998767,8.29495226 5.52280959,8.29495226 C5.49528562,8.29495226 5.46225685,8.28947441 5.44023768,8.27851872 C5.41271371,8.26756303 5.39069453,8.25112949 5.36867536,8.22921811 C5.34665618,8.20730673 5.33564659,8.17443965 5.32463701,8.13609473 C5.31362742,8.09774981 5.30812262,8.0484492 5.30812262,7.9881929 L5.30812262,7.76907907 C5.30812262,7.70882277 5.31362742,7.65952216 5.32463701,7.62117724 C5.33564659,7.58283232 5.35216097,7.54996525 5.36867536,7.52805387 C5.39069453,7.50614248 5.41271371,7.48970895 5.44023768,7.47875326 C5.46776165,7.46779756 5.49528562,7.46231972 5.52280959,7.46231972 C5.5998767,7.46231972 5.66042943,7.46231972 5.70446778,7.46779756 C5.74850614,7.47327541 5.79804928,7.47327541 5.84759243,7.47875326 L5.85309722,7.47875326 C5.8696116,7.47875326 5.88062119,7.47327541 5.89163078,7.46779756 C5.90264036,7.46231972 5.90814516,7.45136403 5.90814516,7.43493049 L5.90814516,7.19938313 C5.90814516,7.17747175 5.90264036,7.16651605 5.89713557,7.16103821 C5.88612598,7.15556036 5.87511639,7.14460467 5.85309722,7.13912683 C5.81456366,7.12817114 5.77052531,7.12269329 5.70997258,7.1117376 C5.64941985,7.10078191 5.58336232,7.10078191 5.50079041,7.10078191 C5.31362742,7.10078191 5.16499798,7.15556036 5.04939731,7.27059512 C4.93930143,7.38562988 4.8787487,7.54996525 4.8787487,7.76907907 L4.8787487,7.9881929 C4.8787487,8.20182888 4.93379664,8.3716421 5.04939731,8.48667685 C5.15949319,8.60171161 5.31362742,8.65649007 5.50079041,8.65649007 C5.57785752,8.65649007 5.64941985,8.65101222 5.70997258,8.64553438 C5.77052531,8.63457869 5.81456366,8.62910084 5.85309722,8.61814515 C5.87511639,8.6126673 5.88612598,8.60718946 5.89713557,8.59623377 C5.90264036,8.59075592 5.90814516,8.57432238 5.90814516,8.55788885 L5.90814516,8.55788885 Z M4.603509,8.57980023 L4.603509,7.70334493 C4.603509,7.62117724 4.59800421,7.5444874 4.58148983,7.46779756 C4.57048024,7.39658557 4.54295627,7.33085142 4.50992751,7.27607297 C4.47689875,7.22129451 4.4273556,7.17747175 4.36680287,7.15008252 C4.30625013,7.11721544 4.22918302,7.10078191 4.13009673,7.10078191 C4.04752482,7.10078191 3.97045771,7.1117376 3.90440018,7.13364898 C3.83834265,7.15556036 3.77228513,7.18842744 3.69521801,7.24320589 L3.69521801,7.17747175 C3.69521801,7.16103821 3.68971322,7.15008252 3.67870363,7.13912683 C3.66769404,7.12817114 3.65668445,7.12269329 3.64017007,7.12269329 L3.3429112,7.12269329 C3.32639682,7.12269329 3.31538723,7.12817114 3.30437765,7.13912683 C3.29336806,7.15008252 3.28786326,7.16103821 3.28786326,7.17747175 L3.28786326,8.57980023 C3.28786326,8.59623377 3.29336806,8.60718946 3.30437765,8.61814515 C3.31538723,8.62910084 3.32639682,8.63457869 3.3429112,8.63457869 L3.66218925,8.63457869 C3.67870363,8.63457869 3.68971322,8.62910084 3.70072281,8.61814515 C3.71173239,8.60718946 3.71723719,8.59623377 3.71723719,8.57980023 L3.71723719,7.5444874 C3.76127554,7.52257602 3.80531389,7.50066464 3.84935224,7.4842311 C3.8878858,7.46779756 3.93192415,7.46231972 3.97045771,7.46231972 C4.00899126,7.46231972 4.04202003,7.46779756 4.069544,7.47327541 C4.09706797,7.47875326 4.11358235,7.49518679 4.13009673,7.51162033 C4.14661111,7.53353171 4.15211591,7.55544309 4.1576207,7.58831017 C4.16312549,7.62117724 4.16312549,7.65952216 4.16312549,7.70334493 L4.16312549,8.57980023 C4.16312549,8.59623377 4.16863029,8.60718946 4.17963987,8.61814515 C4.19064946,8.62910084 4.20165905,8.63457869 4.21817343,8.63457869 L4.53745148,8.63457869 C4.55396586,8.63457869 4.56497545,8.62910084 4.57598504,8.61814515 C4.59800421,8.60718946 4.603509,8.59075592 4.603509,8.57980023 L4.603509,8.57980023 Z M2.55572568,8.27851872 C2.52269691,8.29495226 2.48966815,8.30590795 2.45113459,8.31686364 C2.41260103,8.32781933 2.37406748,8.33329718 2.33553392,8.33329718 C2.28048598,8.33329718 2.23644763,8.32781933 2.20892366,8.31138579 C2.18139969,8.29495226 2.1703901,8.26208518 2.1703901,8.20182888 L2.1703901,8.1799175 C2.1703901,8.14705042 2.1758949,8.1196612 2.18139969,8.09774981 C2.18690448,8.07583843 2.20341887,8.05392705 2.21993325,8.03749351 C2.23644763,8.02105997 2.2639716,8.01010428 2.29149557,8.00462644 C2.31901954,7.99914859 2.3575531,7.99367075 2.40709624,7.99367075 L2.55572568,7.99367075 L2.55572568,8.27851872 Z M2.97959481,7.63761078 C2.97959481,7.53900956 2.96308042,7.45684187 2.93555645,7.39110773 C2.90803248,7.32537358 2.86399413,7.27059512 2.81445099,7.22677236 C2.75940305,7.18294959 2.69885032,7.15008252 2.6217832,7.13364898 C2.54471609,7.1117376 2.45663939,7.10078191 2.36305789,7.10078191 C2.27498119,7.10078191 2.18690448,7.10625975 2.10433258,7.11721544 C2.02176067,7.12817114 1.95570314,7.13912683 1.90616,7.15556036 C1.87313123,7.16651605 1.85661685,7.18294959 1.85661685,7.21581667 L1.85661685,7.42945265 C1.85661685,7.44588618 1.86212164,7.45684187 1.86762644,7.46779756 C1.87863603,7.47327541 1.88964561,7.47875326 1.9006552,7.47875326 L1.91166479,7.47875326 C1.93368397,7.47875326 1.96120793,7.47327541 1.9887319,7.47327541 C2.02176067,7.47327541 2.05478943,7.46779756 2.09882778,7.46779756 C2.13736134,7.46779756 2.18139969,7.46231972 2.22543804,7.46231972 C2.26947639,7.46231972 2.31351474,7.46231972 2.3520483,7.46231972 C2.41260103,7.46231972 2.46214418,7.47327541 2.49517294,7.49518679 C2.52820171,7.51709818 2.55022088,7.56639879 2.55022088,7.64308863 L2.55022088,7.736212 L2.40709624,7.736212 C2.18139969,7.736212 2.01075108,7.76907907 1.91166479,7.84029107 C1.80707371,7.91150306 1.75753056,8.02653782 1.75753056,8.1799175 L1.75753056,8.20182888 C1.75753056,8.28947441 1.76854015,8.3606864 1.79606412,8.41546486 C1.82358809,8.47572116 1.85661685,8.51954393 1.9006552,8.55788885 C1.94469355,8.59075592 1.9887319,8.61814515 2.04377984,8.63457869 C2.09882778,8.65101222 2.15387572,8.65649007 2.21442845,8.65649007 C2.29149557,8.65649007 2.36305789,8.64553438 2.41810583,8.62362299 C2.47315377,8.60171161 2.52820171,8.57432238 2.58324964,8.53597746 L2.58324964,8.57980023 C2.58324964,8.59623377 2.58875444,8.60718946 2.59976403,8.61814515 C2.61077361,8.62910084 2.6217832,8.63457869 2.63829758,8.63457869 L2.93555645,8.63457869 C2.95207084,8.63457869 2.96308042,8.62910084 2.97409001,8.61814515 C2.9850996,8.60718946 2.99060439,8.59623377 2.99060439,8.57980023 L2.99060439,7.63761078 L2.97959481,7.63761078 L2.97959481,7.63761078 Z M1.08594571,8.05392705 C1.08594571,8.12513904 1.05842174,8.18539534 1.00887859,8.22374026 C0.959335445,8.26208518 0.860249155,8.28399657 0.728134102,8.28399657 L0.684095751,8.28399657 C0.662076575,8.28399657 0.640057399,8.28399657 0.618038224,8.28399657 C0.596019048,8.28399657 0.573999873,8.28399657 0.551980697,8.28399657 L0.507942346,8.28399657 L0.507942346,7.79099046 L0.805201216,7.79099046 C0.9097923,7.79099046 0.986859415,7.81290184 1.02539297,7.86220245 C1.06392653,7.91150306 1.08594571,7.96628152 1.08594571,8.02653782 L1.08594571,8.05392705 Z M1.07493612,7.27059512 C1.07493612,7.29798435 1.06943132,7.32537358 1.06392653,7.35276281 C1.05291694,7.38015203 1.04190735,7.40206342 1.01988818,7.41849695 C0.997869003,7.43493049 0.970345033,7.45136403 0.93731627,7.46231972 C0.904287506,7.47327541 0.860249155,7.47875326 0.805201216,7.47875326 L0.507942346,7.47875326 L0.507942346,7.02409207 C0.518951934,7.02409207 0.529961521,7.02409207 0.546475903,7.02409207 C0.562990285,7.02409207 0.58500946,7.02409207 0.607028636,7.02409207 L0.667581369,7.02409207 L0.71161972,7.02409207 C0.849239567,7.02409207 0.942821064,7.0405256 0.997869003,7.07339268 C1.05291694,7.10625975 1.08044091,7.16103821 1.08044091,7.2322502 L1.07493612,7.27059512 L1.07493612,7.27059512 Z M1.52632922,8.02653782 C1.52632922,7.93341444 1.50431004,7.85672461 1.46027169,7.79099046 C1.41623334,7.72525631 1.3611854,7.67047785 1.28962308,7.63761078 C1.3611854,7.60474371 1.41623334,7.54996525 1.4547669,7.4842311 C1.49330045,7.41301911 1.51531963,7.33632927 1.51531963,7.25416158 L1.51531963,7.20486097 C1.51531963,7.10078191 1.49330045,7.01313638 1.4547669,6.94192438 C1.41623334,6.87071239 1.35568061,6.81593393 1.28411829,6.77211117 C1.21255596,6.7282884 1.12447926,6.70089918 1.01988818,6.67898779 C0.915297094,6.66255426 0.805201216,6.65159856 0.678590957,6.65159856 C0.634552606,6.65159856 0.590514254,6.65159856 0.546475903,6.65159856 C0.502437552,6.65159856 0.458399201,6.65707641 0.41436085,6.65707641 C0.370322498,6.65707641 0.331788941,6.66255426 0.293255384,6.6680321 C0.254721827,6.67350995 0.227197857,6.67350995 0.205178682,6.67898779 C0.155635537,6.68994348 0.117101979,6.70089918 0.0950828037,6.7282884 C0.0730636281,6.75019979 0.0620540403,6.79402255 0.0620540403,6.85427885 L0.0620540403,8.45928763 C0.0620540403,8.51954393 0.0730636281,8.55788885 0.0950828037,8.58527808 C0.117101979,8.60718946 0.155635537,8.62362299 0.205178682,8.63457869 C0.232702651,8.64005653 0.265731414,8.64553438 0.298760178,8.64553438 C0.337293735,8.65101222 0.375827292,8.65101222 0.419865644,8.65649007 C0.463903995,8.66196791 0.507942346,8.66196791 0.551980697,8.66196791 C0.596019048,8.66196791 0.645562193,8.66196791 0.689600544,8.66196791 C0.805201216,8.66196791 0.915297094,8.65101222 1.01438338,8.63457869 C1.11346967,8.61814515 1.20154638,8.58527808 1.27861349,8.54145531 C1.35568061,8.49763254 1.41072854,8.43737624 1.46027169,8.3606864 C1.50431004,8.28399657 1.52632922,8.18539534 1.52632922,8.07036059 L1.52632922,8.02653782 L1.52632922,8.02653782 Z"/>
    </g>
  </g>
</svg>
