<svg xmlns="http://www.w3.org/2000/svg" width="512" height="512"><g fill="none" fill-rule="evenodd" transform="translate(0 22.925)scale(4.72835)"><path fill="#1c1c1c" d="M1.66 64.646a49.814 49.814 0 0 1-.044-2.075c0-13.091 5.138-25.024 13.574-34.02V4.87L20.037 0H87.67l4.847 4.871v23.076c8.777 9.063 14.15 21.237 14.15 34.624 0 .695-.015 1.387-.044 2.075zM0 71.111h108.283v27.475H0z"/><path fill="#c3dc00" d="M22.626 6.465H84.04v16.162H22.626z"/><ellipse cx="54.949" cy="84.848" fill="#fff" rx="8.081" ry="7.273"/><rect width="3.232" height="11.313" x="53.333" y="79.192" fill="#1c1c1c" rx="1"/><g fill="#fff" transform="translate(17.778 33.94)"><ellipse cx="13.304" cy="4.351" rx="4.435" ry="4.351"/><ellipse cx="28.677" cy="4.351" rx="4.435" ry="4.351"/><ellipse cx="45.233" cy="4.351" rx="4.435" ry="4.351"/><ellipse cx="60.606" cy="4.351" rx="4.435" ry="4.351"/><ellipse cx="68.293" cy="18.275" rx="4.435" ry="4.351"/><ellipse cx="51.737" cy="18.275" rx="4.435" ry="4.351"/><ellipse cx="36.364" cy="18.275" rx="4.435" ry="4.351"/><ellipse cx="19.808" cy="18.275" rx="4.435" ry="4.351"/><ellipse cx="4.435" cy="18.275" rx="4.435" ry="4.351"/></g></g></svg>