<svg xmlns="http://www.w3.org/2000/svg" xml:space="preserve" width="40" height="40"><path d="M0 0h40v40H0z" style="fill:#ca031a;stroke-width:.352765"/><path d="M20.217 23.36c0-1.958-.85-2.65-1.937-2.65-1.17 0-1.958 1.01-1.958 2.618 0 1.747.819 2.65 2.276 2.65.617 0 .977-.096 1.32-.244.116-.053.179-.159.137-.286l-.117-.338c-.042-.117-.127-.201-.285-.148-.307.084-.597.18-.999.18-.956 0-1.277-.554-1.32-1.542h2.65a.25.25 0 0 0 .233-.24m-2.882-.5c.106-1.105.585-1.373.977-1.373.66 0 .893.691.914 1.372zm-1.792.553c-.233-.5-.639-.998-1.224-1.108.01 0 .053-.01.084-.01 1.083-.148 1.553-.946 1.553-1.754 0-.69-.385-1.774-2.149-1.774h-1.841c-.127 0-.244.106-.244.233v6.688c0 .127.117.233.244.233h.511a.235.235 0 0 0 .233-.233V22.7h.501c.723 0 1.051.448 1.298.903.297.554.501 1.32.776 2.149.043.137.138.17.254.17h.702c.19 0 .223-.117.159-.287-.367-1.033-.73-1.957-.857-2.222m-1.873-1.556h-.956V19.65h1.072c.766 0 1.16.459 1.16 1.03 0 .734-.486 1.178-1.276 1.178m1.086 9.761c.86-.254 1.224-.786 1.224-1.584 0-1.05-.712-1.774-1.947-1.774h-2.064c-.127 0-.243.106-.243.233v6.688c0 .127.116.233.243.233h2.17c1.34 0 2.148-.734 2.148-2.01 0-.925-.511-1.67-1.53-1.786m-2.042-2.508h1.128c.755 0 1.13.385 1.13 1.062 0 .66-.406 1.072-1.204 1.072h-1.05V29.11zm1.34 5.433h-1.34v-2.498h1.14c.86 0 1.371.533 1.371 1.256-.003.776-.437 1.242-1.17 1.242m6.343.331c-.064-.317-.053-.606-.053-.871v-1.852c0-.86-.138-1.947-1.83-1.947-.46 0-.978.116-1.289.2-.126.033-.18.138-.148.276l.085.392c.032.137.138.211.279.169.285-.074.606-.18 1.02-.18.754 0 .923.286.923.903v.254l-1.167.074c-.861.064-1.595.512-1.595 1.648 0 .955.522 1.52 1.373 1.52.585 0 1.139-.212 1.467-.734l.074.47c.021.148.117.211.244.211h.49c.137 0 .212-.095.19-.233zm-1.009-1.16c0 .395-.434.977-1.115.977-.395 0-.67-.233-.67-.744 0-.798.47-.988 1.118-1.01l.67-.02v.797zm9.528 1.425c.074.116.021.275-.127.275h-.755c-.116 0-.211-.074-.286-.201l-1.541-2.575v2.543a.235.235 0 0 1-.233.233h-.48a.235.235 0 0 1-.233-.233v-7.083c0-.138.106-.233.233-.233h.48c.127 0 .233.095.233.233v4.318l1.287-1.969a.34.34 0 0 1 .31-.18h.682c.148 0 .2.148.116.265l-1.425 1.947Zm-.145-14.428c-1.277 0-2.074.998-2.074 2.639 0 1.647.797 2.628 2.074 2.628 1.288 0 2.064-.999 2.064-2.628-.003-1.63-.79-2.64-2.064-2.64m-.02 4.455c-.66 0-1.062-.532-1.062-1.816 0-1.267.405-1.817 1.061-1.817.67 0 1.076.554 1.076 1.817-.003 1.284-.405 1.816-1.076 1.816m-2.534-4.159v4.678a.24.24 0 0 1-.232.233h-.48c-.127 0-.244-.106-.244-.233v-4.678c0-.127.117-.233.244-.233h.48c.113 0 .232.106.232.233m.17-2.028c0 .374-.29.67-.65.67a.66.66 0 0 1-.659-.67.654.654 0 1 1 1.309 0M24.65 31.534v3.647a.235.235 0 0 1-.233.233h-.49c-.127 0-.243-.106-.243-.233v-3.436c0-.49-.17-.712-.607-.712-.65 0-1.147.543-1.147 1.256v2.892a.235.235 0 0 1-.232.233h-.49c-.128 0-.244-.106-.244-.233V30.49c0-.127.116-.222.243-.222h.318c.148 0 .222.053.254.19l.106.48c.448-.522.892-.733 1.456-.733.798 0 1.31.532 1.31 1.33m-1.407-6.516h-.882c-.381 0-.554-.063-.554-.286 0-.116.085-.232.19-.328.16.043.34.064.523.064 1.181 0 1.936-.713 1.936-1.884 0-.363-.159-.713-.38-1.02l.348-.045c.127-.01.212-.085.212-.223v-.275c0-.137-.085-.243-.233-.243H23.18c-.222 0-.437-.053-.66-.053-1.139 0-1.915.67-1.915 1.863 0 .702.296 1.23.765 1.541-.253.233-.469.512-.469.882 0 .617.544.829 1.171.829h1.03c.576 0 .798.233.798.67 0 .47-.512.755-1.16.755-.502 0-1.056-.095-1.14-.66-.021-.137-.106-.211-.233-.222l-.533-.02a.23.23 0 0 0-.233.232c.011 1.15 1.083 1.489 2.106 1.489.978 0 2.117-.448 2.117-1.68.004-.885-.61-1.386-1.58-1.386m-.713-3.573c.522 0 .945.18.945 1.114 0 .956-.458 1.16-.945 1.16-.511 0-.935-.168-.935-1.16 0-.945.427-1.114.935-1.114m-15.225-6.7c0-.645.434-1.245 1.055-1.41a1.6 1.6 0 0 1-.046-.392c0-.77.652-1.436 1.474-1.436.318 0 .579.078.766.187.208-.533.822-.949 1.439-.949.317 0 .575.081.766.198.303-.438.825-1.39 1.128-1.8.272-.363.54-.493 1.231-.592s1.507-.219 2.706-.317c.378-.032.678.091.875.338.092.113 1.058 1.238 1.118 1.316.201-.547 1.944-5.838 1.98-5.923a.2.2 0 0 1 .193-.13c.081.003.152.06.173.144l1.651 5.7s1.986-.32 2.385-.334c.346-.014.409.151.504.465.13.438.699 2.604.699 2.604.017.053.035.063.07.053a69 69 0 0 1 2.11-.582.63.63 0 0 1 .614.165 73 73 0 0 1 1.65 1.658.32.32 0 0 1 .089.223c0 .148-.124.268-.297.268a.37.37 0 0 1-.243-.11c-.222-.215-1.467-1.326-1.566-1.414-.06-.057-.127-.07-.222-.05-.092.022-2.417.66-2.491.678-.17.042-.23-.036-.25-.11-.053-.18-.642-2.32-.847-2.956-.021-.067-.035-.095-.102-.095-.537.014-2.265.335-2.547.353-.046.003-.127-.007-.163-.12l-1.245-4.47-1.947 5.606s-1.68-2.191-1.813-2.332c-.127-.13-.22-.162-.374-.148-1.323.113-2.1.24-2.78.384-.279.06-.427.113-.564.304-.265.367-1.083 1.82-1.383 2.286-.018.028-.043.031-.064.031-.025 0-.046-.017-.053-.024-.144-.16-.688-.519-1.234-.37-.537.144-.72.638-.72.948 0 .113-.06.159-.116.159-.032 0-.064-.01-.096-.053a.98.98 0 0 0-.8-.41.927.927 0 0 0-.928.907c0 .452.2.54.2.646 0 .11-.073.127-.165.127a.915.915 0 0 0-.907.924.46.46 0 0 1-.444.455c-.314-.003-.47-.254-.47-.6m25.886 2.022c-.014.078-.1.159-.177.18a.42.42 0 0 1-.282-.039c-1.122-.547-3.856-1.884-10.622-1.884-7.295 0-13.419 2.717-15.303 3.69a.467.467 0 0 1-.631-.205.45.45 0 0 1 .201-.624h.004c3.418-1.757 9.44-3.531 15.659-3.531 6.988 0 10.565 1.884 11.02 2.11.13.06.152.19.13.303" style="fill:#fff;stroke-width:.352765"/></svg>