<svg xmlns="http://www.w3.org/2000/svg" xml:space="preserve" width="512" height="512" viewBox="0 0 512 512"><path d="M0 0h512v512H0z" style="fill:#ca031a;stroke-width:4.51539"/><path d="M258.777 299.01c0-25.061-10.882-33.911-24.79-33.911-14.99 0-25.06 12.914-25.06 33.504 0 22.35 10.476 33.91 29.124 33.91 7.902 0 12.508-1.219 16.888-3.115 1.49-.678 2.303-2.032 1.76-3.658l-1.49-4.335c-.541-1.49-1.625-2.573-3.657-1.896-3.928 1.084-7.63 2.303-12.778 2.303-12.237 0-16.346-7.09-16.888-19.732h33.91c1.581-.09 2.981-1.445 2.981-3.07m-36.89-6.413c1.354-14.133 7.495-17.565 12.507-17.565 8.444 0 11.424 8.85 11.695 17.565zm-22.939 7.09c-2.98-6.412-8.173-12.78-15.668-14.179.135 0 .677-.135 1.083-.135 13.863-1.897 19.868-12.102 19.868-22.442 0-8.85-4.922-22.712-27.499-22.712h-23.57c-1.626 0-3.116 1.354-3.116 2.98v85.612c0 1.625 1.49 2.98 3.116 2.98h6.547c1.626 0 2.98-1.355 2.98-2.98v-38.246h6.412c9.257 0 13.456 5.735 16.617 11.56 3.793 7.089 6.412 16.887 9.934 27.498.542 1.761 1.76 2.168 3.25 2.168h8.987c2.438 0 2.844-1.49 2.031-3.658-4.696-13.23-9.346-25.06-10.972-28.447m-23.977-19.913h-12.236v-28.267h13.726c9.799 0 14.856 5.87 14.856 13.185 0 9.392-6.231 15.082-16.346 15.082m13.908 124.94c11.017-3.25 15.668-10.069 15.668-20.274 0-13.456-9.121-22.712-24.925-22.712h-26.415c-1.625 0-3.115 1.354-3.115 2.98v85.612c0 1.625 1.49 2.98 3.115 2.98h27.77c17.158 0 27.499-9.392 27.499-25.738 0-11.83-6.548-21.358-19.597-22.848m-26.144-32.104h14.449c9.663 0 14.45 4.922 14.45 13.591 0 8.444-5.194 13.727-15.398 13.727H162.78V372.61zm17.158 69.537h-17.158v-31.969h14.584c11.018 0 17.565 6.818 17.565 16.075-.045 9.934-5.599 15.894-14.99 15.894m81.187 4.244c-.813-4.063-.677-7.766-.677-11.153v-23.705c0-11.018-1.762-24.925-23.435-24.925-5.87 0-12.508 1.49-16.482 2.573-1.625.407-2.302 1.761-1.896 3.522l1.084 5.013c.406 1.76 1.76 2.709 3.567 2.167 3.657-.948 7.766-2.303 13.05-2.303 9.662 0 11.83 3.658 11.83 11.56v3.25l-14.946.949c-11.018.813-20.41 6.547-20.41 21.087 0 12.236 6.683 19.46 17.565 19.46 7.496 0 14.585-2.708 18.784-9.391l.948 6.005c.271 1.897 1.49 2.71 3.116 2.71h6.276c1.761 0 2.71-1.22 2.439-2.98zm-12.914-14.855c0 5.057-5.554 12.507-14.269 12.507-5.057 0-8.58-2.98-8.58-9.527 0-10.205 6.006-12.643 14.315-12.914l8.579-.271v10.205zm121.96 18.242c.949 1.49.271 3.522-1.625 3.522h-9.663c-1.49 0-2.71-.948-3.657-2.574l-19.733-32.962v32.556c0 1.625-1.354 2.98-2.98 2.98h-6.14c-1.626 0-2.981-1.355-2.981-2.98v-90.67c0-1.76 1.355-2.98 2.98-2.98h6.141c1.626 0 2.98 1.22 2.98 2.98v55.27l16.481-25.197c.813-1.354 2.032-2.303 3.974-2.303h8.715c1.896 0 2.573 1.897 1.49 3.387l-18.242 24.925Zm-1.85-184.68c-16.347 0-26.551 12.78-26.551 33.776 0 21.086 10.204 33.64 26.55 33.64 16.481 0 26.415-12.78 26.415-33.64-.045-20.861-10.114-33.775-26.415-33.775m-.272 57.03c-8.444 0-13.591-6.818-13.591-23.254 0-16.21 5.193-23.255 13.591-23.255 8.58 0 13.772 7.09 13.772 23.255-.045 16.436-5.193 23.254-13.772 23.254m-32.42-53.237v59.874c0 1.626-1.49 2.98-2.98 2.98h-6.141c-1.626 0-3.116-1.354-3.116-2.98v-59.874c0-1.625 1.49-2.98 3.116-2.98h6.14c1.446 0 2.98 1.355 2.98 2.98m2.167-25.963c0 4.786-3.702 8.58-8.308 8.58-4.741 0-8.444-3.794-8.444-8.58 0-4.606 3.657-8.444 8.444-8.444 4.606 0 8.308 3.793 8.308 8.444M315.535 403.63v46.689c0 1.625-1.354 2.98-2.98 2.98h-6.276c-1.626 0-3.116-1.355-3.116-2.98v-43.98c0-6.277-2.167-9.121-7.766-9.121-8.309 0-14.675 6.953-14.675 16.075v37.026c0 1.625-1.355 2.98-2.98 2.98h-6.277c-1.625 0-3.115-1.355-3.115-2.98v-60.055c0-1.625 1.49-2.845 3.115-2.845h4.064c1.897 0 2.845.678 3.251 2.439l1.355 6.14c5.734-6.682 11.424-9.391 18.648-9.391 10.205 0 16.752 6.818 16.752 17.023m-18.016-83.4h-11.288c-4.877 0-7.09-.812-7.09-3.657 0-1.49 1.084-2.98 2.439-4.2 2.032.542 4.334.813 6.682.813 15.127 0 24.79-9.12 24.79-24.112 0-4.65-2.032-9.12-4.877-13.05l4.47-.586c1.626-.136 2.71-1.084 2.71-2.845v-3.522c0-1.761-1.084-3.116-2.98-3.116h-15.669c-2.844 0-5.599-.677-8.444-.677-14.584 0-24.518 8.58-24.518 23.841 0 8.986 3.793 15.76 9.798 19.733-3.25 2.98-6.005 6.547-6.005 11.288 0 7.902 6.954 10.611 14.99 10.611h13.186c7.36 0 10.205 2.98 10.205 8.58 0 6.005-6.548 9.662-14.856 9.662-6.412 0-13.501-1.219-14.585-8.443-.27-1.761-1.354-2.71-2.98-2.845l-6.818-.271c-1.626 0-2.98 1.22-2.98 2.98.135 14.72 13.862 19.055 26.957 19.055 12.507 0 27.092-5.734 27.092-21.493.045-11.334-7.812-17.746-20.229-17.746m-9.121-45.74c6.683 0 12.101 2.302 12.101 14.268 0 12.237-5.87 14.856-12.101 14.856-6.547 0-11.966-2.168-11.966-14.856 0-12.101 5.464-14.268 11.966-14.268M93.514 188.743c0-8.263 5.554-15.939 13.5-18.061-.36-1.445-.586-3.116-.586-5.012 0-9.844 8.353-18.378 18.874-18.378 4.064 0 7.405.993 9.798 2.393 2.665-6.818 10.521-12.146 18.423-12.146 4.064 0 7.36 1.038 9.799 2.528 3.883-5.599 10.566-17.79 14.449-23.028 3.477-4.651 6.908-6.322 15.759-7.586s19.28-2.8 34.633-4.064c4.831-.406 8.67 1.174 11.198 4.335 1.174 1.445 13.546 15.849 14.314 16.842 2.573-6.998 24.88-74.73 25.33-75.813.407-1.084 1.4-1.716 2.484-1.67 1.039.044 1.942.767 2.213 1.85.542 1.852 21.132 72.97 21.132 72.97s25.422-4.11 30.524-4.29c4.425-.181 5.238 1.941 6.457 5.96 1.67 5.6 8.94 33.324 8.94 33.324.226.677.452.812.904.677 5.463-1.716 25.511-7.134 27.002-7.45 3.115-.678 5.553-.046 7.856 2.122 4.29 4.018 16.933 16.842 21.132 21.222a4.1 4.1 0 0 1 1.13 2.845c0 1.896-1.581 3.431-3.794 3.431-1.083 0-2.212-.541-3.115-1.4-2.845-2.754-18.784-16.977-20.049-18.106-.767-.723-1.625-.903-2.844-.632-1.174.27-30.93 8.444-31.879 8.67-2.167.541-2.935-.452-3.206-1.4-.677-2.303-8.218-29.712-10.837-37.84-.27-.857-.451-1.219-1.31-1.219-6.863.181-28.988 4.29-32.6 4.516-.587.045-1.626-.09-2.078-1.535l-15.939-57.21-24.925 71.75s-21.493-28.041-23.209-29.848c-1.625-1.67-2.8-2.077-4.786-1.896-16.933 1.445-26.867 3.07-35.581 4.922-3.568.767-5.464 1.445-7.225 3.883-3.387 4.696-13.862 23.3-17.7 29.26-.226.36-.542.406-.813.406-.316 0-.587-.226-.678-.316-1.85-2.032-8.805-6.638-15.803-4.741-6.864 1.851-9.212 8.173-9.212 12.146 0 1.445-.767 2.032-1.49 2.032-.406 0-.813-.135-1.219-.677-1.084-1.49-4.29-5.238-10.25-5.238-6.728 0-11.875 5.554-11.875 11.605 0 5.78 2.573 6.908 2.573 8.263 0 1.4-.948 1.625-2.122 1.625-5.463 0-11.604 4.38-11.604 11.83 0 3.523-3.026 5.825-5.69 5.825-4.019-.045-6.005-3.25-6.005-7.676m331.339 25.873c-.18.994-1.264 2.032-2.258 2.303-1.354.362-2.844-.09-3.612-.496-14.359-7-49.353-24.113-135.958-24.113-93.379 0-171.766 34.769-195.878 47.231a6.24 6.24 0 0 1-2.845.678c-2.303 0-4.244-1.4-5.238-3.297-1.309-2.483-1.038-6.05 2.574-7.992h.045c43.755-22.486 120.832-45.199 200.439-45.199 89.45 0 135.235 24.112 141.06 27.002 1.671.768 1.942 2.439 1.671 3.883" style="fill:#fff;stroke-width:4.51539"/></svg>