<svg xmlns="http://www.w3.org/2000/svg" xml:space="preserve" width="640" height="360"><path d="M527.851 165.56c-4.992 0-8.557 1.782-12.48 6.418l-1.069-4.279c-.356-1.07-1.07-1.783-2.14-1.783h-2.852c-1.07 0-2.139.713-2.139 1.783v40.29c0 1.07 1.07 2.14 2.14 2.14h4.278c1.07 0 2.14-1.07 2.14-2.14v-24.958c0-6.062 4.278-10.697 9.983-10.697 3.922 0 5.348 1.783 5.348 6.062v29.593c0 1.07 1.07 2.14 2.14 2.14h4.278c1.07 0 2.14-1.07 2.14-2.14v-31.376c-.714-6.775-4.992-11.053-11.767-11.053m-212.861 0c-9.984 0-16.758 8.557-16.758 22.462 0 14.976 7.13 22.82 19.61 22.82 5.348 0 8.557-.713 11.41-2.14 1.07-.356 1.426-1.426 1.07-2.495l-1.07-2.853c-.357-1.07-1.07-1.783-2.496-1.426-2.496.713-4.992 1.426-8.557 1.426-8.201 0-11.053-4.635-11.41-13.192h22.82c1.069 0 2.139-1.07 2.139-2.14 0-16.758-7.488-22.462-16.758-22.462m-8.201 18.184c1.07-9.627 4.992-11.766 8.557-11.766 5.705 0 7.844 6.061 7.844 11.766zm195.39 14.262V181.96c0-7.488-1.07-16.758-15.688-16.758-3.922 0-8.557 1.07-11.053 1.783-1.07.356-1.426 1.07-1.426 2.496l.713 3.209c.356 1.07 1.07 1.782 2.496 1.426 2.496-.713 5.348-1.426 8.914-1.426 6.417 0 7.844 2.496 7.844 7.844v2.14l-9.984.712c-7.487.713-13.549 4.279-13.549 14.262 0 8.201 4.635 13.193 11.766 13.193 4.992 0 9.627-1.783 12.48-6.418l.713 3.922c.356 1.426 1.07 1.783 2.14 1.783h4.278c1.07 0 1.783-.713 1.783-2.14l-.714-2.496c-1.07-2.852-.713-5.348-.713-7.487m-8.2-2.496c0 3.209-3.566 8.557-9.627 8.557-3.21 0-5.705-2.14-5.705-6.418 0-6.774 3.922-8.557 9.627-8.557l5.705-.356zm-88.782-29.95c-11.053 0-17.827 8.557-17.827 22.819s6.774 22.463 17.827 22.463 17.828-8.558 17.828-22.463c0-14.262-6.775-22.82-17.828-22.82m-.356 38.15c-5.705 0-9.27-4.634-9.27-15.688s3.565-15.688 9.27-15.688 9.27 4.635 9.27 15.688-3.209 15.689-9.27 15.689m170.788 3.923-14.975-22.82 12.123-16.757c.713-1.07.356-2.14-1.07-2.14h-5.705c-1.426 0-2.14.713-2.496 1.426L552.453 184.1v-36.724c0-1.07-1.07-2.14-2.14-2.14h-3.921c-1.07 0-2.14.713-2.14 2.14v60.97c0 1.07 1.07 2.14 2.14 2.14h4.278c1.07 0 2.14-1.07 2.14-2.14v-21.75l13.192 22.106c.713 1.07 1.426 1.783 2.496 1.783h6.418c1.07-.356 1.426-1.783.713-2.852m-284.172-18.897c-2.14-4.28-5.348-8.558-10.34-9.627h.713c9.27-1.427 13.193-8.201 13.193-14.976 0-6.06-3.21-15.331-18.54-15.331h-15.69c-1.069 0-2.139 1.07-2.139 2.139v57.405c0 1.07 1.07 2.14 2.14 2.14h4.278c1.07 0 2.14-1.07 2.14-2.14v-25.672h4.278c6.062 0 8.914 3.922 11.053 7.844 2.496 4.635 4.28 11.41 6.775 18.541.356 1.07 1.07 1.426 2.14 1.426h6.06c1.783 0 1.783-1.07 1.427-2.496-3.21-8.913-6.418-17.114-7.488-19.253m-16.045-13.55h-8.2V156.29h9.27c6.418 0 9.984 3.922 9.984 8.914 0 6.418-4.28 9.984-11.054 9.984M379.17 144.88c-3.209 0-5.705 2.496-5.705 5.704 0 3.21 2.496 5.705 5.705 5.705s5.705-2.496 5.705-5.705c-.357-3.208-2.496-5.704-5.705-5.704m74.876 32.802c7.487-2.139 10.34-6.774 10.34-13.549 0-8.913-6.062-15.331-16.758-15.331h-17.828c-1.07 0-2.139 1.07-2.139 2.139v57.405c0 1.07 1.07 2.14 2.14 2.14h18.54c11.41 0 18.54-6.419 18.54-17.115.357-8.558-3.921-14.975-12.835-15.689m-17.471-21.75h9.627c6.418 0 9.627 3.21 9.627 9.271 0 5.705-3.566 9.27-10.34 9.27h-8.914zm11.41 46.709h-11.41v-21.393h9.627c7.487 0 11.766 4.635 11.766 10.696 0 6.775-3.566 10.697-9.984 10.697m-66.676-36.725h-4.278c-1.07 0-2.14 1.07-2.14 2.14v40.29c0 1.07 1.07 2.14 2.14 2.14h4.278c1.07 0 2.14-1.07 2.14-2.14v-40.29c-.357-1.07-1.07-2.14-2.14-2.14m-23.532 36.368h-7.488c-3.209 0-4.635-.713-4.635-2.495 0-1.07.713-2.14 1.783-2.853 1.426.357 2.852.713 4.635.713 9.983 0 16.758-6.061 16.758-16.045 0-3.208-1.426-6.06-3.209-8.913l2.852-.357c1.07 0 1.783-.713 1.783-1.783v-2.495c0-1.07-.713-2.14-2.14-2.14h-10.34c-1.782 0-3.921-.356-5.704-.356-9.627 0-16.401 5.704-16.401 16.044 0 6.062 2.496 10.697 6.418 13.193-2.14 2.14-3.922 4.279-3.922 7.487 0 5.349 4.635 7.132 9.983 7.132h8.914c4.991 0 6.774 2.139 6.774 5.704 0 3.922-4.278 6.418-9.983 6.418-4.279 0-8.914-.713-9.627-5.705-.357-1.07-1.07-1.782-2.14-1.782h-4.991c-1.07 0-2.14.713-2.14 2.139 0 9.983 9.27 12.836 18.185 12.836 8.557 0 18.184-3.922 18.184-14.262 0-7.844-5.348-12.48-13.55-12.48m-6.062-30.663c4.636 0 8.201 1.426 8.201 9.627 0 8.2-3.922 9.983-8.2 9.983-4.28 0-8.201-1.426-8.201-9.983 0-8.2 3.565-9.627 8.2-9.627M75.387 206.207c1.783 0 3.922-1.427 3.922-3.923 0-3.208 2.496-4.991 4.992-4.991 1.07 0 1.782-.713 1.782-1.783 0-.357-.356-.713-.356-1.07-.357-.713-.713-1.426-.713-2.852 0-2.852 2.496-4.992 4.991-4.992 1.783 0 3.21.713 4.636 2.496.356.357 1.07.713 1.782.357.714-.357 1.07-1.07 1.07-1.783 0-1.783 1.07-4.635 3.922-5.348 3.922-1.07 6.062 1.782 6.062 1.782.356.357.713.357 1.07.357.356 0 .712-.357 1.069-.713 2.496-3.566 8.557-12.123 10.34-14.262.713-1.07 1.426-1.426 3.209-1.783 3.922-.713 8.557-1.783 17.827-2.496.714 0 1.07 0 1.783.713s12.836 16.402 12.836 16.402l12.123-35.299 7.487 26.385c.357 1.07 1.07 1.426 1.783 1.426s13.906-2.14 16.402-2.14c1.07 3.21 5.348 19.254 5.348 19.254.356 1.07 1.07 1.783 2.852 1.427.357 0 15.688-4.279 16.045-4.279h.713s8.914 8.2 9.984 9.27q1.07 1.07 2.139 1.07c1.426 0 2.852-1.07 2.852-2.496 0-.713-.356-1.426-.713-2.14-2.14-2.138-8.557-8.913-10.696-10.696-1.427-1.426-2.853-1.782-4.636-1.426-.713 0-13.192 3.566-13.192 3.566s-3.565-13.55-4.279-16.402c-.356-1.782-1.07-3.922-4.278-3.565-2.14 0-12.123 1.783-14.975 2.14-1.427-5.35-9.984-36.013-10.34-36.726-.357-1.07-1.07-1.783-1.783-1.783-1.07 0-1.783.714-2.14 1.783 0 .357-11.053 33.16-12.479 37.795-.713-.713-6.061-7.131-6.418-7.488-1.426-1.783-4.278-2.852-6.774-2.496-7.131.713-12.836 1.426-16.758 1.783-4.279.713-7.131 1.783-8.914 4.279s-5.705 7.844-8.2 10.696a13.3 13.3 0 0 0-4.28-.713c-3.921 0-7.487 2.496-9.27 6.061a13.3 13.3 0 0 0-4.278-.713c-5.705 0-10.34 4.636-10.34 10.34v1.783c-4.279 1.783-6.775 5.705-6.775 9.627-.356 1.783 1.427 3.566 3.566 3.566m165.083 6.774c-3.209-1.783-6.418-3.209-10.34-4.635-23.532-8.2-52.413-11.053-83.076-7.844-29.237 2.852-58.118 10.696-80.937 22.106-2.14 1.07-2.496 3.565-1.783 5.348.713 1.426 2.14 2.14 3.565 2.14.713 0 1.07 0 1.783-.357 12.123-6.418 51.7-23.889 104.47-23.889 41.003 0 60.97 10.697 63.822 12.123.714.356 1.427.356 1.783.356.713-.356 1.07-.713 1.426-1.07 1.07-1.782.357-3.565-.713-4.278" style="fill:#ca031a;stroke-width:3.56552"/></svg>