<?xml version="1.0" encoding="UTF-8" standalone="no"?>
<svg
   xmlns:dc="http://purl.org/dc/elements/1.1/"
   xmlns:cc="http://creativecommons.org/ns#"
   xmlns:rdf="http://www.w3.org/1999/02/22-rdf-syntax-ns#"
   xmlns:svg="http://www.w3.org/2000/svg"
   xmlns="http://www.w3.org/2000/svg"
   xmlns:sodipodi="http://sodipodi.sourceforge.net/DTD/sodipodi-0.dtd"
   xmlns:inkscape="http://www.inkscape.org/namespaces/inkscape"
   height="360"
   width="640"
   viewBox="0 0 639.99999 359.99999"
   version="1.1"
   id="svg30"
   sodipodi:docname="method-mastercard-640x360.svg"
   inkscape:version="1.0 (4035a4f, 2020-05-01)">
  <metadata
     id="metadata34">
    <rdf:RDF>
      <cc:Work
         rdf:about="">
        <dc:format>image/svg+xml</dc:format>
        <dc:type
           rdf:resource="http://purl.org/dc/dcmitype/StillImage" />
        <dc:title>mc_vrt_rgb_pos</dc:title>
      </cc:Work>
    </rdf:RDF>
  </metadata>
  <sodipodi:namedview
     inkscape:document-rotation="0"
     pagecolor="#ffffff"
     bordercolor="#666666"
     borderopacity="1"
     objecttolerance="10"
     gridtolerance="10"
     guidetolerance="10"
     inkscape:pageopacity="0"
     inkscape:pageshadow="2"
     inkscape:window-width="1440"
     inkscape:window-height="817"
     id="namedview32"
     showgrid="false"
     showguides="false"
     inkscape:zoom="1.496875"
     inkscape:cx="337.36952"
     inkscape:cy="266.63506"
     inkscape:window-x="0"
     inkscape:window-y="23"
     inkscape:window-maximized="1"
     inkscape:current-layer="g42" />
  <defs
     id="defs12">
    <style
       id="style10">.cls-1{fill:none;}.cls-2{fill:#231f20;}.cls-3{fill:#ff5f00;}.cls-4{fill:#eb001b;}.cls-5{fill:#f79e1b;}</style>
  </defs>
  <title
     id="title14">mc_vrt_rgb_pos</title>
  <g
     id="Layer_2"
     data-name="Layer 2">
    <g
       id="Layer_1-2"
       data-name="Layer 1">
      <rect
         y="0"
         x="0"
         class="cls-1"
         width="146.8"
         height="120.41"
         id="rect16" />
      <g
         id="g42">
        <g
           id="g50"
           transform="matrix(2.4831926,0,0,2.4831926,137.72709,29.877549)">
          <path
             class="cls-2"
             d="m 36.35,105.26 v -6 a 3.56,3.56 0 0 0 -3.76,-3.8 3.7,3.7 0 0 0 -3.36,1.7 3.51,3.51 0 0 0 -3.16,-1.7 3.16,3.16 0 0 0 -2.8,1.42 V 95.7 h -2.08 v 9.56 h 2.1 V 100 a 2.24,2.24 0 0 1 2.34,-2.54 c 1.38,0 2.08,0.9 2.08,2.52 v 5.32 h 2.1 V 100 a 2.25,2.25 0 0 1 2.34,-2.54 c 1.42,0 2.1,0.9 2.1,2.52 v 5.32 z M 67.42,95.7 H 64 v -2.9 h -2.1 v 2.9 H 60 v 1.9 h 1.94 v 4.4 c 0,2.22 0.86,3.54 3.32,3.54 a 4.88,4.88 0 0 0 2.6,-0.74 l -0.6,-1.78 a 3.84,3.84 0 0 1 -1.84,0.54 c -1,0 -1.38,-0.64 -1.38,-1.6 V 97.6 h 3.4 z m 17.74,-0.24 a 2.82,2.82 0 0 0 -2.52,1.4 V 95.7 h -2.06 v 9.56 h 2.08 V 99.9 c 0,-1.58 0.68,-2.46 2,-2.46 a 3.39,3.39 0 0 1 1.3,0.24 l 0.64,-2 a 4.45,4.45 0 0 0 -1.48,-0.26 z m -26.82,1 a 7.15,7.15 0 0 0 -3.9,-1 c -2.42,0 -4,1.16 -4,3.06 0,1.56 1.16,2.52 3.3,2.82 l 1,0.14 c 1.14,0.16 1.68,0.46 1.68,1 0,0.74 -0.76,1.16 -2.18,1.16 a 5.09,5.09 0 0 1 -3.18,-1 l -1,1.62 a 6.9,6.9 0 0 0 4.14,1.24 c 2.76,0 4.36,-1.3 4.36,-3.12 0,-1.82 -1.26,-2.56 -3.34,-2.86 l -1,-0.14 c -0.9,-0.12 -1.62,-0.3 -1.62,-0.94 0,-0.64 0.68,-1.12 1.82,-1.12 a 6.16,6.16 0 0 1 3,0.82 z m 55.71,-1 a 2.82,2.82 0 0 0 -2.52,1.4 V 95.7 h -2.06 v 9.56 h 2.08 V 99.9 c 0,-1.58 0.68,-2.46 2,-2.46 a 3.39,3.39 0 0 1 1.3,0.24 l 0.64,-2 a 4.45,4.45 0 0 0 -1.48,-0.26 z m -26.8,5 a 4.83,4.83 0 0 0 5.1,5 5,5 0 0 0 3.44,-1.14 l -1,-1.68 a 4.2,4.2 0 0 1 -2.5,0.86 3.07,3.07 0 0 1 0,-6.12 4.2,4.2 0 0 1 2.5,0.86 l 1,-1.68 a 5,5 0 0 0 -3.44,-1.14 4.83,4.83 0 0 0 -5.1,5 z m 19.48,0 V 95.7 h -2.08 v 1.16 a 3.63,3.63 0 0 0 -3,-1.4 5,5 0 0 0 0,10 3.63,3.63 0 0 0 3,-1.4 v 1.16 h 2.08 z m -7.74,0 a 2.89,2.89 0 1 1 2.9,3.06 2.87,2.87 0 0 1 -2.9,-3.06 z m -25.1,-5 a 5.00049,5.00049 0 0 0 0.14,10 5.81,5.81 0 0 0 3.97,-1.3 l -1,-1.54 a 4.55,4.55 0 0 1 -2.78,1 2.65,2.65 0 0 1 -2.86,-2.34 h 7.1 c 0,-0.26 0,-0.52 0,-0.8 0,-3 -1.86,-5 -4.54,-5 z m 0,1.86 a 2.37,2.37 0 0 1 2.42,2.32 h -5 a 2.46,2.46 0 0 1 2.54,-2.32 z m 52.11,3.16 v -8.62 h -2 v 5 a 3.63,3.63 0 0 0 -3,-1.4 5,5 0 0 0 0,10 3.63,3.63 0 0 0 3,-1.4 v 1.16 h 2 z m 3.47,3.39 a 1,1 0 0 1 0.38,0.07 1,1 0 0 1 0.31,0.2 1,1 0 0 1 0.21,0.3 0.93,0.93 0 0 1 0,0.74 1,1 0 0 1 -0.21,0.3 1,1 0 0 1 -0.31,0.2 0.94,0.94 0 0 1 -0.38,0.08 1,1 0 0 1 -0.9,-0.58 0.94,0.94 0 0 1 0,-0.74 1,1 0 0 1 0.21,-0.3 1,1 0 0 1 0.31,-0.2 1,1 0 0 1 0.41,-0.07 z m 0,1.69 a 0.71,0.71 0 0 0 0.29,-0.06 0.75,0.75 0 0 0 0.23,-0.16 0.74,0.74 0 0 0 0,-1 0.74,0.74 0 0 0 -0.23,-0.16 0.72,0.72 0 0 0 -0.29,-0.06 0.75,0.75 0 0 0 -0.29,0.06 0.73,0.73 0 0 0 -0.24,0.16 0.74,0.74 0 0 0 0,1 0.74,0.74 0 0 0 0.24,0.16 0.74,0.74 0 0 0 0.32,0.06 z m 0.06,-1.19 a 0.4,0.4 0 0 1 0.26,0.08 0.25,0.25 0 0 1 0.09,0.21 0.24,0.24 0 0 1 -0.07,0.18 0.35,0.35 0 0 1 -0.21,0.09 l 0.29,0.33 h -0.23 l -0.27,-0.33 h -0.09 v 0.33 h -0.19 v -0.88 z m -0.22,0.17 v 0.24 h 0.22 a 0.21,0.21 0 0 0 0.12,0 0.1,0.1 0 0 0 0,-0.09 0.1,0.1 0 0 0 0,-0.09 0.21,0.21 0 0 0 -0.12,0 z m -11,-4.06 a 2.89,2.89 0 1 1 2.9,3.06 2.87,2.87 0 0 1 -2.9,-3.06 z m -70.23,0 V 95.7 H 46 v 1.16 a 3.63,3.63 0 0 0 -3,-1.4 5,5 0 0 0 0,10 3.63,3.63 0 0 0 3,-1.4 v 1.16 h 2.08 z m -7.74,0 a 2.89,2.89 0 1 1 2.9,3.06 2.87,2.87 0 0 1 -2.92,-3.06 z"
             id="path18" />
          <g
             id="_Group_"
             data-name="&lt;Group&gt;">
            <rect
               class="cls-3"
               x="57.650002"
               y="22.85"
               width="31.5"
               height="56.610001"
               id="rect20" />
            <path
               id="_Path_"
               data-name="&lt;Path&gt;"
               class="cls-4"
               d="M 59.65,51.16 A 35.94,35.94 0 0 1 73.4,22.85 36,36 0 1 0 73.4,79.46 35.94,35.94 0 0 1 59.65,51.16 Z" />
            <path
               class="cls-5"
               d="m 131.65,51.16 a 36,36 0 0 1 -58.25,28.3 36,36 0 0 0 0,-56.61 36,36 0 0 1 58.25,28.3 z"
               id="path23" />
            <path
               class="cls-5"
               d="M 128.21,73.46 V 72.3 h 0.47 v -0.24 h -1.19 V 72.3 H 128 v 1.16 z m 2.31,0 v -1.4 h -0.36 l -0.42,1 -0.42,-1 H 129 v 1.4 h 0.26 v -1.05 l 0.39,0.91 h 0.27 l 0.39,-0.91 v 1.06 z"
               id="path25" />
          </g>
        </g>
      </g>
    </g>
  </g>
</svg>
