<svg height="360" viewBox="0 0 640 360" width="640" xmlns="http://www.w3.org/2000/svg"><g fill="none" transform="translate(170 65)"><path d="m54.7435897 227.694072v-15.135879c.1813849-2.57513-.7722772-5.102534-2.6176894-6.937424-1.8454121-1.834891-4.4041151-2.799826-7.0233362-2.648633-3.4517073-.222629-6.7530012 1.420664-8.6153846 4.288499-1.6979592-2.782329-4.8069787-4.427861-8.1025641-4.288499-2.8694426-.142714-5.6011242 1.220241-7.1794872 3.582158v-2.976723h-5.3333333v24.116501h5.3846154v-13.269121c-.2319017-1.669764.3058401-3.354219 1.4664801-4.59369 1.1606399-1.239471 2.8230307-1.904582 4.5335199-1.813832 3.5384615 0 5.3333333 2.270382 5.3333333 6.357069v13.42048h5.3846154v-13.370027c-.2223857-1.667865.3186441-3.346862 1.4771322-4.584035s2.8150808-1.905062 4.5228678-1.823487c3.6410256 0 5.3846154 2.270382 5.3846154 6.357069v13.42048zm79.6666663-24.116501h-8.76923v-7.315674h-5.384616v7.315674h-4.871795v4.793029h4.974359v11.099644c0 5.600275 2.205129 8.930238 8.512821 8.930238 2.35656.007719 4.667455-.639364 6.666667-1.866828l-1.538462-4.49031c-1.430248.839309-3.053511 1.307999-4.717949 1.362229-2.564102 0-3.538461-1.614494-3.538461-4.036235v-10.998738h8.717948zm45.48718-.605435c-2.64893-.076644-5.128249 1.278485-6.461539 3.531705v-2.92627h-5.282051v24.116501h5.333333v-13.521385c0-3.985782 1.74359-6.205711 5.128206-6.205711 1.140728-.015351 2.273371.190372 3.333333.605435l1.641026-5.045293c-1.218021-.428688-2.50127-.650479-3.794872-.655888zm-68.769231 2.522647c-3.01891-1.765911-6.489872-2.641512-10-2.522647-6.2051281 0-10.2564101 2.92627-10.2564101 7.719298 0 3.935329 2.9743589 6.35707 8.4615384 7.113864l2.5641027.35317c2.923077.403624 4.307692 1.160417 4.307692 2.522647 0 1.866758-1.948718 2.926269-5.589743 2.926269-2.928712.083405-5.8007613-.805153-8.1538465-2.522646l-2.5641026 4.086687c3.1067022 2.134136 6.827748 3.230632 10.6153851 3.128082 7.076923 0 11.179487-3.27944 11.179487-7.870657s-3.23077-6.457975-8.564103-7.214769l-2.564102-.353171c-2.3076927-.302717-4.1538466-.756793-4.1538466-2.371287s1.7435898-2.825364 4.6666666-2.825364c2.701732.030877 5.350246.7431 7.692308 2.06857zm142.846154-2.522647c-2.64893-.076644-5.128249 1.278485-6.461538 3.531705v-2.92627h-5.282052v24.116501h5.333334v-13.521385c0-3.985782 1.743589-6.205711 5.128205-6.205711 1.140728-.015351 2.273372.190372 3.333333.605435l1.641026-5.045293c-1.218021-.428688-2.50127-.650479-3.794872-.655888zm-68.717949 12.613233c-.128262 3.426851 1.217192 6.748237 3.706112 9.148903 2.488921 2.400667 5.890867 3.658345 9.370811 3.464329 3.202253.160289 6.349318-.865772 8.820513-2.875817l-2.564102-4.238046c-1.843665 1.383195-4.09184 2.144064-6.410257 2.169476-4.087947-.325413-7.236953-3.684302-7.236953-7.719298 0-4.034997 3.149006-7.393885 7.236953-7.719299 2.318417.025413 4.566592.786281 6.410257 2.169476l2.564102-4.238046c-2.471195-2.010044-5.61826-3.036105-8.820513-2.875817-3.479944-.194015-6.88189 1.063663-9.370811 3.464329-2.48892 2.400667-3.834374 5.722053-3.706112 9.148904zm49.948718 0v-12.007798h-5.333333v2.92627c-1.837427-2.326006-4.700061-3.640303-7.692308-3.531705-7.080574 0-12.820513 5.647137-12.820513 12.613233s5.739939 12.613232 12.820513 12.613232c2.992247.108598 5.854881-1.205699 7.692308-3.531705v2.92627h5.333333zm-19.846154 0c.237167-3.958869 3.647287-7.005116 7.675361-6.856371 4.028073.148746 7.196491 3.437921 7.131347 7.403141-.065145 3.965221-3.339955 7.151935-7.37081 7.172528-2.052464.02555-4.022502-.793428-5.434456-2.259195-1.411954-1.465768-2.137494-3.445103-2.001442-5.460103zm-64.358974-12.613233c-7.080574.097526-12.740154 5.823722-12.641026 12.789818s5.919427 12.534172 13 12.436647c3.689076.186295 7.316937-.982463 10.179488-3.27944l-2.564103-3.884876c-2.024713 1.597538-4.533072 2.485238-7.128205 2.522647-3.665727.310159-6.916461-2.30653-7.333333-5.902993h18.205128c0-.655888 0-1.311776 0-2.018117 0-7.56794-4.769231-12.613233-11.641026-12.613233zm0 4.692123c1.611803-.033808 3.171205.563886 4.334972 1.661525 1.163766 1.097639 1.83651 2.605256 1.870156 4.191015h-12.820513c.19315-3.368179 3.085842-5.967605 6.512821-5.85254zm133.615385 7.971563v-21.745213h-5.128206v12.613232c-1.837427-2.326006-4.70006-3.640303-7.692307-3.531705-7.080574 0-12.820513 5.647137-12.820513 12.613233s5.739939 12.613232 12.820513 12.613232c2.992247.108598 5.85488-1.205699 7.692307-3.531705v2.92627h5.128206zm8.897436 8.551771c.333366-.004018.664329.055963.974358.176585.294469.118222.564012.289309.794872.50453.225306.217506.407853.474071.538462.756794.262464.595463.262464 1.271294 0 1.866758-.130609.282722-.313156.539288-.538462.756794-.23086.215221-.500403.386308-.794872.504529-.306968.13326-.638835.201997-.974358.201812-.992181-.007358-1.890993-.577227-2.307693-1.463135-.259425-.596081-.259425-1.270678 0-1.866758.130609-.282723.313156-.539288.538462-.756794.23086-.215221.500403-.386308.794872-.50453.333974-.130702.692148-.190865 1.051282-.176585zm0 4.263273c.255921.001529.509295-.050045.743589-.151359.220606-.096901.420678-.233831.589744-.403624.664864-.713674.664864-1.808971 0-2.522646-.168663-.170261-.368831-.307257-.589744-.403623-.234525-.1006-.487744-.152143-.743589-.151368-.255625.001338-.508416.052794-.74359.151368-.230373.092934-.439585.230153-.615385.403623-.664864.713675-.664864 1.808972 0 2.522646.176232.172952.385332.310098.615385.403624.258691.109755.538979.161459.820513.151359zm.153846-3.00195c.239362-.01142.475233.059982.666666.201812.159237.129654.245158.326894.23077.529756.007443.169409-.057666.334124-.179488.454076-.14862.132807-.338213.212748-.538461.227038l.74359.832474h-.589744l-.692308-.832474h-.230769v.832474h-.487179v-2.219929zm-.564103.42885v.605435h.564103c.100381.029444.207311.029444.307692 0 .036571-.071402.036571-.155635 0-.227038.036571-.071403.036571-.155635 0-.227038-.100381-.029444-.207311-.029444-.307692 0zm-28.205128-10.241944c.237167-3.958869 3.647287-7.005116 7.67536-6.856371 4.028074.148746 7.196492 3.437921 7.131347 7.403141-.065144 3.965221-3.339954 7.151935-7.37081 7.172528-2.052464.02555-4.022501-.793428-5.434455-2.259195-1.411955-1.465768-2.137495-3.445103-2.001442-5.460103zm-180.0769232 0v-12.058251h-5.3333333v2.92627c-1.8374273-2.326006-4.7000608-3.640303-7.6923077-3.531705-7.0805737 0-12.8205128 5.647137-12.8205128 12.613233s5.7399391 12.613232 12.8205128 12.613232c2.9922469.108598 5.8548804-1.205699 7.6923077-3.531705v2.92627h5.3333333zm-19.8461538 0c.2371667-3.958869 3.6472869-7.005116 7.6753603-6.856371 4.0280734.148746 7.1964916 3.437921 7.1313472 7.403141-.0651444 3.965221-3.3399547 7.151935-7.3708101 7.172528-2.0613089.039813-4.0450618-.772921-5.468388-2.240374-1.4233262-1.467452-2.1556779-3.455027-2.0187915-5.478924z" fill="#231f20"/><path d="m109.359 19.803h80.769v142.807h-80.769z" fill="#ff5f00"/><path d="m114.487179 91.2188969c-.030198-27.8714792 12.971395-54.2077774 35.256411-71.416122-37.846692-29.26256859-92.1960584-25.00022242-124.8528262 9.7915762-32.65676772 34.7917986-32.65676772 88.4320669 0 123.2238649 32.6567678 34.791799 87.0061342 39.054145 124.8528262 9.791576-22.277927-17.202881-35.278725-43.528268-35.256411-71.3908951z" fill="#eb001b"/><path d="m299.102564 91.2188969c0 34.7705961-20.180972 66.4885111-51.969858 81.6830251-31.788886 15.194515-69.605553 11.198031-97.389116-10.29213 22.268206-17.217486 35.269983-43.539373 35.269983-71.4035083 0-27.8641352-13.001777-54.1860223-35.269983-71.4035088 27.783563-21.49016008 65.60023-25.4866441 97.389116-10.29212995s51.969858 46.91242945 51.969858 81.68302555zm-8.820513 56.5197241v-3.145599h1.205128v-.650814h-3.051282v.650814h1.307693v3.145599zm5.923077 0v-3.796413h-.923077l-1.076923 2.711723-1.076923-2.711723h-.820513v3.796413h.666667v-2.847309l1 2.467667h.692308l1-2.467667v2.874426z" fill="#f79e1b"/></g></svg>