<svg xmlns="http://www.w3.org/2000/svg" width="51" height="32" viewBox="0 0 51 32">
  <g fill="none" fill-rule="evenodd">
    <rect width="50" height="31" x=".5" y=".5" fill="#FFF" stroke="#D0D0D0"/>
    <g transform="translate(14 6.8)">
      <path fill="#231F20" fill-rule="nonzero" d="M4.37948718,18.2155257 L4.37948718,17.0046554 C4.39399797,16.7986451 4.317705,16.5964527 4.17007203,16.4496615 C4.02243905,16.3028703 3.81774281,16.2256755 3.60820513,16.2377709 C3.33206854,16.2199606 3.06796503,16.351424 2.91897436,16.5808508 C2.78313762,16.3582645 2.53441607,16.2266219 2.27076923,16.2377709 C2.04121382,16.2263538 1.82267929,16.3353902 1.69641026,16.5243435 L1.69641026,16.2862057 L1.26974359,16.2862057 L1.26974359,18.2155257 L1.70051282,18.2155257 L1.70051282,17.1539961 C1.68196069,17.0204149 1.72498003,16.8856586 1.81783123,16.7865009 C1.91068243,16.6873432 2.04367368,16.6341343 2.18051282,16.6413943 C2.46358974,16.6413943 2.60717949,16.8230249 2.60717949,17.1499599 L2.60717949,18.2235982 L3.03794872,18.2235982 L3.03794872,17.1539961 C3.02015786,17.0205669 3.06344025,16.8862471 3.1561193,16.7872733 C3.24879834,16.6882995 3.38132576,16.6348683 3.51794872,16.6413943 C3.80923077,16.6413943 3.94871795,16.8230249 3.94871795,17.1499599 L3.94871795,18.2235982 L4.37948718,18.2155257 Z M10.7528205,16.2862057 L10.0512821,16.2862057 L10.0512821,15.7009517 L9.62051282,15.7009517 L9.62051282,16.2862057 L9.23076923,16.2862057 L9.23076923,16.669648 L9.62871795,16.669648 L9.62871795,17.5576195 C9.62871795,18.0056416 9.80512821,18.2720386 10.3097436,18.2720386 C10.4982684,18.2726561 10.68314,18.2208895 10.8430769,18.1226924 L10.72,17.7634675 C10.6055802,17.8306122 10.4757191,17.8681074 10.3425641,17.8724458 C10.1374359,17.8724458 10.0594872,17.7432863 10.0594872,17.5495471 L10.0594872,16.669648 L10.7569231,16.669648 L10.7528205,16.2862057 Z M14.3917949,16.2377709 C14.1798805,16.2316393 13.981535,16.3400497 13.8748718,16.5203073 L13.8748718,16.2862057 L13.4523077,16.2862057 L13.4523077,18.2155257 L13.8789744,18.2155257 L13.8789744,17.1338149 C13.8789744,16.8149524 14.0184615,16.6373581 14.2892308,16.6373581 C14.3804891,16.63613 14.4711005,16.6525878 14.5558974,16.6857929 L14.6871795,16.2821695 C14.5897378,16.2478744 14.4870779,16.2301311 14.3835897,16.2296984 L14.3917949,16.2377709 Z M8.89025641,16.4395826 C8.64874359,16.2983098 8.37106664,16.2282617 8.09025641,16.2377709 C7.59384615,16.2377709 7.26974359,16.4718725 7.26974359,16.8553148 C7.26974359,17.170141 7.50769231,17.3638803 7.94666667,17.4244238 L8.15179487,17.4526774 C8.38564103,17.4849673 8.49641026,17.5455108 8.49641026,17.6544892 C8.49641026,17.8038298 8.34051282,17.8885908 8.04923077,17.8885908 C7.81493384,17.8952631 7.58516989,17.8241784 7.39692308,17.686779 L7.19179487,18.013714 C7.44033105,18.1844448 7.73801471,18.2721646 8.04102564,18.2639606 C8.60717949,18.2639606 8.93538462,18.0016053 8.93538462,17.634308 C8.93538462,17.2670107 8.67692308,17.11767 8.25025641,17.0571265 L8.04512821,17.0288728 C7.86051282,17.0046554 7.71282051,16.9683293 7.71282051,16.8391698 C7.71282051,16.7100103 7.85230769,16.6131407 8.08615385,16.6131407 C8.30229243,16.6156109 8.51417351,16.6725887 8.70153846,16.7786263 L8.89025641,16.4395826 Z M20.3179487,16.2377709 C20.1060343,16.2316393 19.9076888,16.3400497 19.8010256,16.5203073 L19.8010256,16.2862057 L19.3784615,16.2862057 L19.3784615,18.2155257 L19.8051282,18.2155257 L19.8051282,17.1338149 C19.8051282,16.8149524 19.9446154,16.6373581 20.2153846,16.6373581 C20.3066429,16.63613 20.3972544,16.6525878 20.4820513,16.6857929 L20.6133333,16.2821695 C20.5158917,16.2478744 20.4132318,16.2301311 20.3097436,16.2296984 L20.3179487,16.2377709 Z M14.8205128,17.2468295 C14.8102518,17.5209776 14.9178882,17.7866885 15.1170018,17.9787418 C15.3161154,18.1707951 15.5882711,18.2714093 15.8666667,18.2558881 C16.1228469,18.2687112 16.3746121,18.1866263 16.5723077,18.0258227 L16.3671795,17.686779 C16.2196864,17.7974346 16.0398323,17.8583041 15.854359,17.8603371 C15.5273232,17.8343041 15.2754027,17.565593 15.2754027,17.2427933 C15.2754027,16.9199935 15.5273232,16.6512824 15.854359,16.6252494 C16.0398323,16.6272824 16.2196864,16.6881519 16.3671795,16.7988075 L16.5723077,16.4597638 C16.3746121,16.2989602 16.1228469,16.2168753 15.8666667,16.2296984 C15.5882711,16.2141772 15.3161154,16.3147914 15.1170018,16.5068447 C14.9178882,16.698898 14.8102518,16.9646089 14.8205128,17.238757 L14.8205128,17.2468295 Z M18.8164103,17.2468295 L18.8164103,16.2862057 L18.3897436,16.2862057 L18.3897436,16.5203073 C18.2427494,16.3342268 18.0137387,16.2290831 17.774359,16.2377709 C17.2079131,16.2377709 16.7487179,16.6895418 16.7487179,17.2468295 C16.7487179,17.8041172 17.2079131,18.2558881 17.774359,18.2558881 C18.0137387,18.2645759 18.2427494,18.1594322 18.3897436,17.9733517 L18.3897436,18.2074533 L18.8164103,18.2074533 L18.8164103,17.2468295 Z M17.2287179,17.2468295 C17.2476913,16.93012 17.5205009,16.6864202 17.8427468,16.6983199 C18.1649926,16.7102195 18.4184661,16.9733535 18.4132546,17.2905711 C18.408043,17.6077888 18.1460582,17.862726 17.8235897,17.8643734 C17.6593926,17.8664174 17.5017896,17.8008991 17.3888333,17.6836377 C17.275877,17.5663764 17.2178337,17.4080295 17.2287179,17.2468295 L17.2287179,17.2468295 Z M12.08,16.2377709 C11.5135541,16.2455729 11.0607877,16.7036686 11.0687179,17.2609563 C11.0766482,17.818244 11.5422721,18.2636901 12.1087179,18.2558881 C12.403844,18.2707917 12.6940729,18.177291 12.9230769,17.9935329 L12.7179487,17.6827428 C12.5559717,17.8105459 12.3553029,17.8815618 12.1476923,17.8845545 C11.8544341,17.9093673 11.5943754,17.7000321 11.5610256,17.4123151 L13.0174359,17.4123151 C13.0174359,17.3598441 13.0174359,17.307373 13.0174359,17.2508657 C13.0174359,16.6454306 12.6358974,16.2418071 12.0861538,16.2418071 L12.08,16.2377709 Z M12.08,16.6131407 C12.2089442,16.6104361 12.3336964,16.6582516 12.4267977,16.7460627 C12.5198991,16.8338739 12.5737186,16.9544832 12.5764103,17.0813439 L11.5507692,17.0813439 C11.5662212,16.8118896 11.7976366,16.6039355 12.0717949,16.6131407 L12.08,16.6131407 Z M22.7692308,17.2508657 L22.7692308,15.5112487 L22.3589744,15.5112487 L22.3589744,16.5203073 C22.2119802,16.3342268 21.9829695,16.2290831 21.7435897,16.2377709 C21.1771438,16.2377709 20.7179487,16.6895418 20.7179487,17.2468295 C20.7179487,17.8041172 21.1771438,18.2558881 21.7435897,18.2558881 C21.9829695,18.2645759 22.2119802,18.1594322 22.3589744,17.9733517 L22.3589744,18.2074533 L22.7692308,18.2074533 L22.7692308,17.2508657 Z M23.4810256,17.9350075 C23.507695,17.934686 23.534172,17.9394845 23.5589744,17.9491343 C23.5825318,17.958592 23.6040953,17.972279 23.6225641,17.9894966 C23.6405886,18.0068971 23.6551923,18.0274224 23.665641,18.0500401 C23.6866382,18.0976772 23.6866382,18.1517437 23.665641,18.1993808 C23.6551923,18.2219986 23.6405886,18.2425238 23.6225641,18.2599243 C23.6040953,18.277142 23.5825318,18.290829 23.5589744,18.3002867 C23.5344169,18.3109474 23.5078675,18.3164464 23.4810256,18.3164316 C23.4016512,18.315843 23.3297462,18.2702534 23.2964103,18.1993808 C23.2756562,18.1516944 23.2756562,18.0977266 23.2964103,18.0500401 C23.3068589,18.0274224 23.3214627,18.0068971 23.3394872,17.9894966 C23.357956,17.972279 23.3795194,17.958592 23.4030769,17.9491343 C23.4297949,17.9386781 23.4584488,17.933865 23.4871795,17.9350075 L23.4810256,17.9350075 Z M23.4810256,18.2760693 C23.5014994,18.2761916 23.5217693,18.2720657 23.5405128,18.2639606 C23.5581613,18.2562085 23.574167,18.2452541 23.5876923,18.2316707 C23.6408814,18.1745767 23.6408814,18.0869529 23.5876923,18.029859 C23.5741993,18.0162381 23.5581858,18.0052784 23.5405128,17.9975691 C23.5217508,17.9895211 23.5014933,17.9853977 23.4810256,17.9854597 C23.4605757,17.9855667 23.4403524,17.9896832 23.4215385,17.9975691 C23.4031086,18.0050038 23.3863717,18.0159814 23.3723077,18.029859 C23.3191186,18.0869529 23.3191186,18.1745767 23.3723077,18.2316707 C23.3864063,18.2455068 23.4031342,18.2564785 23.4215385,18.2639606 C23.4422338,18.272741 23.4646568,18.2768773 23.4871795,18.2760693 L23.4810256,18.2760693 Z M23.4933333,18.0359133 C23.5124823,18.0349997 23.531352,18.0407119 23.5466667,18.0520583 C23.5594056,18.0624306 23.5662793,18.0782098 23.5651282,18.0944387 C23.5657237,18.1079914 23.560515,18.1211687 23.5507692,18.1307648 C23.5388796,18.1413894 23.5237121,18.1477846 23.5076923,18.1489279 L23.5671795,18.2155257 L23.52,18.2155257 L23.4646154,18.1489279 L23.4461538,18.1489279 L23.4461538,18.2155257 L23.4071795,18.2155257 L23.4071795,18.0379314 L23.4933333,18.0359133 Z M23.4482051,18.0702213 L23.4482051,18.1186561 L23.4933333,18.1186561 C23.5013638,18.1210116 23.5099182,18.1210116 23.5179487,18.1186561 C23.5208744,18.1129439 23.5208744,18.1062053 23.5179487,18.1004931 C23.5208744,18.0947808 23.5208744,18.0880422 23.5179487,18.08233 C23.5099182,18.0799745 23.5013638,18.0799745 23.4933333,18.08233 L23.4482051,18.0702213 Z M21.1917949,17.2508657 C21.2107682,16.9341563 21.4835778,16.6904565 21.8058237,16.7023561 C22.1280696,16.7142558 22.381543,16.9773897 22.3763315,17.2946074 C22.3711199,17.611825 22.1091351,17.8667622 21.7866667,17.8684096 C21.6224696,17.8704536 21.4648665,17.8049353 21.3519102,17.687674 C21.2389539,17.5704126 21.1809107,17.4120658 21.1917949,17.2508657 L21.1917949,17.2508657 Z M6.78564103,17.2508657 L6.78564103,16.2862057 L6.35897436,16.2862057 L6.35897436,16.5203073 C6.21198017,16.3342268 5.98296949,16.2290831 5.74358974,16.2377709 C5.17714385,16.2377709 4.71794872,16.6895418 4.71794872,17.2468295 C4.71794872,17.8041172 5.17714385,18.2558881 5.74358974,18.2558881 C5.98296949,18.2645759 6.21198017,18.1594322 6.35897436,17.9733517 L6.35897436,18.2074533 L6.78564103,18.2074533 L6.78564103,17.2508657 Z M5.19794872,17.2508657 C5.21692205,16.9341563 5.48973167,16.6904565 5.81197754,16.7023561 C6.13422341,16.7142558 6.38769687,16.9773897 6.38248532,17.2946074 C6.37727377,17.611825 6.11528895,17.8667622 5.79282051,17.8684096 C5.6279158,17.8715946 5.46921557,17.8065759 5.35534947,17.6891797 C5.24148338,17.5717835 5.18289524,17.4127775 5.19384615,17.2508657 L5.19794872,17.2508657 Z"/>
      <g fill-rule="nonzero">
        <polygon fill="#FF5F00" points="8.749 1.584 15.21 1.584 15.21 13.009 8.749 13.009"/>
        <path fill="#EB001B" d="M9.15897436,7.29751175 C9.15655849,5.06779342 10.1966859,2.96088956 11.9794872,1.58422199 C8.95175186,-0.756783495 4.60380253,-0.415795802 1.99126111,2.36754809 C-0.621280314,5.15089198 -0.621280314,9.44211341 1.99126111,12.2254573 C4.60380253,15.0088012 8.95175186,15.3497889 11.9794872,13.0087834 C10.1972531,11.6325529 9.1571892,9.52652189 9.15897436,7.29751175 L9.15897436,7.29751175 Z"/>
        <path fill="#F79E1B" d="M23.9282051 7.29751175C23.9282051 10.0791594 22.3137274 12.6165927 19.7706165 13.8321538 17.2275056 15.0477149 14.2021723 14.7279962 11.9794872 13.0087834 13.7609436 11.6313845 14.8010858 9.52563351 14.8010858 7.29650269 14.8010858 5.06737188 13.7609436 2.96162091 11.9794872 1.58422199 14.2021723-.134990814 17.2275056-.454709536 19.7706165.760851596 22.3137274 1.97641273 23.9282051 4.51384595 23.9282051 7.29549364L23.9282051 7.29751175zM23.2841026 11.9456367L23.2841026 11.5891355 23.4206838 11.5891355 23.4206838 11.5153767 23.0748718 11.5153767 23.0748718 11.5891355 23.2230769 11.5891355 23.2230769 11.9456367 23.2841026 11.9456367zM23.9553846 11.9456367L23.9553846 11.5153767 23.8507692 11.5153767 23.7287179 11.8227053 23.6066667 11.5153767 23.5136752 11.5153767 23.5136752 11.9456367 23.5892308 11.9456367 23.5892308 11.6229417 23.7025641 11.9026107 23.7810256 11.9026107 23.894359 11.6229417 23.894359 11.94871 23.9553846 11.9456367z"/>
      </g>
    </g>
  </g>
</svg>
