<svg xmlns="http://www.w3.org/2000/svg" width="640" height="360" viewBox="0 0 640 360">
  <g fill="none" transform="translate(170 65)">
    <path fill="#231F20" d="M54.7435897,227.694072 L54.7435897,212.558193 C54.9249746,209.983063 53.9713125,207.455659 52.1259003,205.620769 C50.2804882,203.785878 47.7217852,202.820943 45.1025641,202.972136 C41.6508568,202.749507 38.3495629,204.3928 36.4871795,207.260635 C34.7892203,204.478306 31.6802008,202.832774 28.3846154,202.972136 C25.5151728,202.829422 22.7834912,204.192377 21.2051282,206.554294 L21.2051282,203.577571 L15.8717949,203.577571 L15.8717949,227.694072 L21.2564103,227.694072 L21.2564103,214.424951 C21.0245086,212.755187 21.5622504,211.070732 22.7228904,209.831261 C23.8835303,208.59179 25.5459211,207.926679 27.2564103,208.017429 C30.7948718,208.017429 32.5897436,210.287811 32.5897436,214.374498 L32.5897436,227.794978 L37.974359,227.794978 L37.974359,214.424951 C37.7519733,212.757086 38.2930031,211.078089 39.4514912,209.840916 C40.6099793,208.603743 42.266572,207.935854 43.974359,208.017429 C47.6153846,208.017429 49.3589744,210.287811 49.3589744,214.374498 L49.3589744,227.794978 L54.7435897,227.694072 Z M134.410256,203.577571 L125.641026,203.577571 L125.641026,196.261897 L120.25641,196.261897 L120.25641,203.577571 L115.384615,203.577571 L115.384615,208.3706 L120.358974,208.3706 L120.358974,219.470244 C120.358974,225.070519 122.564103,228.400482 128.871795,228.400482 C131.228355,228.408201 133.53925,227.761118 135.538462,226.533654 L134,222.043344 C132.569752,222.882653 130.946489,223.351343 129.282051,223.405573 C126.717949,223.405573 125.74359,221.791079 125.74359,219.369338 L125.74359,208.3706 L134.461538,208.3706 L134.410256,203.577571 Z M179.897436,202.972136 C177.248506,202.895492 174.769187,204.250621 173.435897,206.503841 L173.435897,203.577571 L168.153846,203.577571 L168.153846,227.694072 L173.487179,227.694072 L173.487179,214.172687 C173.487179,210.186905 175.230769,207.966976 178.615385,207.966976 C179.756113,207.951625 180.888756,208.157348 181.948718,208.572411 L183.589744,203.527118 C182.371723,203.09843 181.088474,202.876639 179.794872,202.87123 L179.897436,202.972136 Z M111.128205,205.494783 C108.109295,203.728872 104.638333,202.853271 101.128205,202.972136 C94.9230769,202.972136 90.8717949,205.898406 90.8717949,210.691434 C90.8717949,214.626763 93.8461538,217.048504 99.3333333,217.805298 L101.897436,218.158468 C104.820513,218.562092 106.205128,219.318885 106.205128,220.681115 C106.205128,222.547873 104.25641,223.607384 100.615385,223.607384 C97.686673,223.690789 94.8146237,222.802231 92.4615385,221.084738 L89.8974359,225.171425 C93.0041381,227.305561 96.7251839,228.402057 100.512821,228.299507 C107.589744,228.299507 111.692308,225.020067 111.692308,220.42885 C111.692308,215.837633 108.461538,213.970875 103.128205,213.214081 L100.564103,212.86091 C98.2564103,212.558193 96.4102564,212.104117 96.4102564,210.489623 C96.4102564,208.875129 98.1538462,207.664259 101.076923,207.664259 C103.778655,207.695136 106.427169,208.407359 108.769231,209.732829 L111.128205,205.494783 Z M253.974359,202.972136 C251.325429,202.895492 248.84611,204.250621 247.512821,206.503841 L247.512821,203.577571 L242.230769,203.577571 L242.230769,227.694072 L247.564103,227.694072 L247.564103,214.172687 C247.564103,210.186905 249.307692,207.966976 252.692308,207.966976 C253.833036,207.951625 254.96568,208.157348 256.025641,208.572411 L257.666667,203.527118 C256.448646,203.09843 255.165397,202.876639 253.871795,202.87123 L253.974359,202.972136 Z M185.25641,215.585369 C185.128148,219.01222 186.473602,222.333606 188.962522,224.734272 C191.451443,227.134939 194.853389,228.392617 198.333333,228.198601 C201.535586,228.35889 204.682651,227.332829 207.153846,225.322784 L204.589744,221.084738 C202.746079,222.467933 200.497904,223.228802 198.179487,223.254214 C194.09154,222.928801 190.942534,219.569912 190.942534,215.534916 C190.942534,211.499919 194.09154,208.141031 198.179487,207.815617 C200.497904,207.84103 202.746079,208.601898 204.589744,209.985093 L207.153846,205.747047 C204.682651,203.737003 201.535586,202.710942 198.333333,202.87123 C194.853389,202.677215 191.451443,203.934893 188.962522,206.335559 C186.473602,208.736226 185.128148,212.057612 185.25641,215.484463 L185.25641,215.585369 Z M235.205128,215.585369 L235.205128,203.577571 L229.871795,203.577571 L229.871795,206.503841 C228.034368,204.177835 225.171734,202.863538 222.179487,202.972136 C215.098913,202.972136 209.358974,208.619273 209.358974,215.585369 C209.358974,222.551465 215.098913,228.198601 222.179487,228.198601 C225.171734,228.307199 228.034368,226.992902 229.871795,224.666896 L229.871795,227.593166 L235.205128,227.593166 L235.205128,215.585369 Z M215.358974,215.585369 C215.596141,211.6265 219.006261,208.580253 223.034335,208.728998 C227.062408,208.877744 230.230826,212.166919 230.165682,216.132139 C230.100537,220.09736 226.825727,223.284074 222.794872,223.304667 C220.742408,223.330217 218.77237,222.511239 217.360416,221.045472 C215.948462,219.579704 215.222922,217.600369 215.358974,215.585369 L215.358974,215.585369 Z M151,202.972136 C143.919426,203.069662 138.259846,208.795858 138.358974,215.761954 C138.458102,222.72805 144.278401,228.296126 151.358974,228.198601 C155.04805,228.384896 158.675911,227.216138 161.538462,224.919161 L158.974359,221.034285 C156.949646,222.631823 154.441287,223.519523 151.846154,223.556932 C148.180427,223.867091 144.929693,221.250402 144.512821,217.653939 L162.717949,217.653939 C162.717949,216.998051 162.717949,216.342163 162.717949,215.635822 C162.717949,208.067882 157.948718,203.022589 151.076923,203.022589 L151,202.972136 Z M151,207.664259 C152.611803,207.630451 154.171205,208.228145 155.334972,209.325784 C156.498738,210.423423 157.171482,211.93104 157.205128,213.516799 L144.384615,213.516799 C144.577765,210.14862 147.470457,207.549194 150.897436,207.664259 L151,207.664259 Z M284.615385,215.635822 L284.615385,193.890609 L279.487179,193.890609 L279.487179,206.503841 C277.649752,204.177835 274.787119,202.863538 271.794872,202.972136 C264.714298,202.972136 258.974359,208.619273 258.974359,215.585369 C258.974359,222.551465 264.714298,228.198601 271.794872,228.198601 C274.787119,228.307199 277.649752,226.992902 279.487179,224.666896 L279.487179,227.593166 L284.615385,227.593166 L284.615385,215.635822 Z M293.512821,224.187593 C293.846187,224.183575 294.17715,224.243556 294.487179,224.364178 C294.781648,224.4824 295.051191,224.653487 295.282051,224.868708 C295.507357,225.086214 295.689904,225.342779 295.820513,225.625502 C296.082977,226.220965 296.082977,226.896796 295.820513,227.49226 C295.689904,227.774982 295.507357,228.031548 295.282051,228.249054 C295.051191,228.464275 294.781648,228.635362 294.487179,228.753583 C294.180211,228.886843 293.848344,228.95558 293.512821,228.955395 C292.52064,228.948037 291.621828,228.378168 291.205128,227.49226 C290.945703,226.896179 290.945703,226.221582 291.205128,225.625502 C291.335737,225.342779 291.518284,225.086214 291.74359,224.868708 C291.97445,224.653487 292.243993,224.4824 292.538462,224.364178 C292.872436,224.233476 293.23061,224.173313 293.589744,224.187593 L293.512821,224.187593 Z M293.512821,228.450866 C293.768742,228.452395 294.022116,228.400821 294.25641,228.299507 C294.477016,228.202606 294.677088,228.065676 294.846154,227.895883 C295.511018,227.182209 295.511018,226.086912 294.846154,225.373237 C294.677491,225.202976 294.477323,225.06598 294.25641,224.969614 C294.021885,224.869014 293.768666,224.817471 293.512821,224.818246 C293.257196,224.819584 293.004405,224.87104 292.769231,224.969614 C292.538858,225.062548 292.329646,225.199767 292.153846,225.373237 C291.488982,226.086912 291.488982,227.182209 292.153846,227.895883 C292.330078,228.068835 292.539178,228.205981 292.769231,228.299507 C293.027922,228.409262 293.30821,228.460966 293.589744,228.450866 L293.512821,228.450866 Z M293.666667,225.448916 C293.906029,225.437496 294.1419,225.508898 294.333333,225.650728 C294.49257,225.780382 294.578491,225.977622 294.564103,226.180484 C294.571546,226.349893 294.506437,226.514608 294.384615,226.63456 C294.235995,226.767367 294.046402,226.847308 293.846154,226.861598 L294.589744,227.694072 L294,227.694072 L293.307692,226.861598 L293.076923,226.861598 L293.076923,227.694072 L292.589744,227.694072 L292.589744,225.474143 L293.666667,225.448916 Z M293.102564,225.877766 L293.102564,226.483201 L293.666667,226.483201 C293.767048,226.512645 293.873978,226.512645 293.974359,226.483201 C294.01093,226.411799 294.01093,226.327566 293.974359,226.256163 C294.01093,226.18476 294.01093,226.100528 293.974359,226.029125 C293.873978,225.999681 293.767048,225.999681 293.666667,226.029125 L293.102564,225.877766 Z M264.897436,215.635822 C265.134603,211.676953 268.544723,208.630706 272.572796,208.779451 C276.60087,208.928197 279.769288,212.217372 279.704143,216.182592 C279.638999,220.147813 276.364189,223.334527 272.333333,223.35512 C270.280869,223.38067 268.310832,222.561692 266.898878,221.095925 C265.486923,219.630157 264.761383,217.650822 264.897436,215.635822 L264.897436,215.635822 Z M84.8205128,215.635822 L84.8205128,203.577571 L79.4871795,203.577571 L79.4871795,206.503841 C77.6497522,204.177835 74.7871187,202.863538 71.7948718,202.972136 C64.7142981,202.972136 58.974359,208.619273 58.974359,215.585369 C58.974359,222.551465 64.7142981,228.198601 71.7948718,228.198601 C74.7871187,228.307199 77.6497522,226.992902 79.4871795,224.666896 L79.4871795,227.593166 L84.8205128,227.593166 L84.8205128,215.635822 Z M64.974359,215.635822 C65.2115257,211.676953 68.6216459,208.630706 72.6497193,208.779451 C76.6777927,208.928197 79.8462109,212.217372 79.7810665,216.182592 C79.7159221,220.147813 76.4411118,223.334527 72.4102564,223.35512 C70.3489475,223.394933 68.3651946,222.582199 66.9418684,221.114746 C65.5185422,219.647294 64.7861905,217.659719 64.9230769,215.635822 L64.974359,215.635822 Z"/>
    <polygon fill="#FF5F00" points="109.359 19.803 190.128 19.803 190.128 162.61 109.359 162.61"/>
    <path fill="#EB001B" d="M114.487179,91.2188969 C114.456981,63.3474177 127.458574,37.0111195 149.74359,19.8027749 C111.896898,-9.45979369 57.5475316,-5.19744752 24.8907638,29.5943511 C-7.76600392,64.3861497 -7.76600392,118.026418 24.8907638,152.818216 C57.5475316,187.610015 111.896898,191.872361 149.74359,162.609792 C127.465663,145.406911 114.464865,119.081524 114.487179,91.2188969 L114.487179,91.2188969 Z"/>
    <path fill="#F79E1B" d="M299.102564 91.2188969C299.102564 125.989493 278.921592 157.707408 247.132706 172.901922 215.34382 188.096437 177.527153 184.099953 149.74359 162.609792 172.011796 145.392306 185.013573 119.070419 185.013573 91.2062837 185.013573 63.3421485 172.011796 37.0202614 149.74359 19.8027749 177.527153-1.68738518 215.34382-5.6838692 247.132706 9.51064495 278.921592 24.7051591 299.102564 56.4230744 299.102564 91.1936705L299.102564 91.2188969zM290.282051 147.738621L290.282051 144.593022 291.487179 144.593022 291.487179 143.942208 288.435897 143.942208 288.435897 144.593022 289.74359 144.593022 289.74359 147.738621 290.282051 147.738621zM296.205128 147.738621L296.205128 143.942208 295.282051 143.942208 294.205128 146.653931 293.128205 143.942208 292.307692 143.942208 292.307692 147.738621 292.974359 147.738621 292.974359 144.891312 293.974359 147.358979 294.666667 147.358979 295.666667 144.891312 295.666667 147.765738 296.205128 147.738621z"/>
  </g>
</svg>
