<svg height="360" viewBox="0 0 639.99999 359.99999" width="640" xmlns="http://www.w3.org/2000/svg"><path d="m0 0h146.8v120.41h-146.8z" fill="none"/><g transform="translate(160.20531 52.34916)"><path d="m67.785833 238.90924v-14.89915a8.8401657 8.8401657 0 0 0 -9.336805-9.43614 9.1878127 9.1878127 0 0 0 -8.343527 4.22143 8.7160061 8.7160061 0 0 0 -7.846889-4.22143 7.8468887 7.8468887 0 0 0 -6.952939 3.52614v-2.93017h-5.165041v23.73932h5.214705v-13.06159a5.5623515 5.5623515 0 0 1 5.810671-6.30731c3.426805 0 5.16504 2.23487 5.16504 6.25765v13.21058h5.214705v-13.16092a5.5871834 5.5871834 0 0 1 5.810671-6.30731c3.526133 0 5.214704 2.23487 5.214704 6.25765v13.21058zm77.152797-23.73932h-8.49252v-7.20126h-5.21471v7.20126h-4.71806v4.71807h4.81739v10.92604c0 5.51269 2.13555 8.79051 8.2442 8.79051a12.11798 12.11798 0 0 0 6.4563-1.83757l-1.48991-4.42008a9.5354597 9.5354597 0 0 1 -4.56908 1.34093c-2.48319 0-3.4268-1.58925-3.4268-3.97311v-10.82672h8.44285zm44.05183-.59597a7.0026032 7.0026032 0 0 0 -6.25764 3.47647v-2.8805h-5.11538v23.73932h5.16504v-13.30991c0-3.92344 1.68857-6.10865 4.96639-6.10865a8.418023 8.418023 0 0 1 3.22815.59596l1.58924-4.96638a11.050207 11.050207 0 0 0 -3.67512-.64563zm-66.59922 2.4832a17.754827 17.754827 0 0 0 -9.68445-2.4832c-6.00933 0-9.93277 2.88051-9.93277 7.59857 0 3.87378 2.8805 6.25765 8.19453 7.00261l2.48319.34764c2.83084.39732 4.17177 1.14227 4.17177 2.4832 0 1.83756-1.88723 2.8805-5.41336 2.8805a12.63945 12.63945 0 0 1 -7.89655-2.48319l-2.4832 4.02277a17.134029 17.134029 0 0 0 10.28042 3.07916c6.85361 0 10.82672-3.22815 10.82672-7.74756s-3.12882-6.35698-8.29386-7.10193l-2.4832-.34765c-2.23487-.29798-4.02277-.74496-4.02277-2.3342s1.68857-2.78118 4.51941-2.78118a15.296467 15.296467 0 0 1 7.44958 2.03622zm138.33866-2.4832a7.0026032 7.0026032 0 0 0 -6.25765 3.47647v-2.8805h-5.11537v23.73932h5.16504v-13.30991c0-3.92344 1.68857-6.10865 4.96638-6.10865a8.418023 8.418023 0 0 1 3.22815.59596l1.58925-4.96638a11.050207 11.050207 0 0 0 -3.67513-.64563zm-66.54956 12.41597a11.99382 11.99382 0 0 0 12.66428 12.41596 12.415963 12.415963 0 0 0 8.54218-2.83084l-2.48319-4.17176a10.429409 10.429409 0 0 1 -6.20798 2.13554 7.6234014 7.6234014 0 0 1 0-15.19714 10.429409 10.429409 0 0 1 6.20798 2.13555l2.48319-4.17176a12.415963 12.415963 0 0 0 -8.54218-2.83084 11.99382 11.99382 0 0 0 -12.66428 12.41596zm48.37259 0v-11.82h-5.16504v2.8805a9.0139892 9.0139892 0 0 0 -7.44958-3.47647 12.415965 12.415965 0 0 0 0 24.83193 9.0139892 9.0139892 0 0 0 7.44958-3.47647v2.8805h5.16504zm-19.21991 0a7.1764267 7.1764267 0 1 1 7.20126 7.59857 7.1267628 7.1267628 0 0 1 -7.20126-7.59857zm-62.32814-12.41597a12.417182 12.417182 0 0 0 .34765 24.83193 14.427349 14.427349 0 0 0 9.85828-3.22815l-2.4832-3.82412a11.298526 11.298526 0 0 1 -6.90327 2.4832 6.5804604 6.5804604 0 0 1 -7.10193-5.81067h17.63066c0-.64563 0-1.29126 0-1.98656 0-7.44958-4.61873-12.41596-11.27369-12.41596zm0 4.61874a5.8851665 5.8851665 0 0 1 6.00933 5.76101h-12.41596a6.1086539 6.1086539 0 0 1 6.30731-5.76101zm129.39917 7.84689v-21.40512h-4.96638v12.41596a9.0139892 9.0139892 0 0 0 -7.44958-3.47647 12.415965 12.415965 0 0 0 0 24.83193 9.0139892 9.0139892 0 0 0 7.44958-3.47647v2.8805h4.96638zm8.61668 8.41802a2.4831926 2.4831926 0 0 1 .94361.17383 2.4831926 2.4831926 0 0 1 .76979.49664 2.4831926 2.4831926 0 0 1 .52147.74495 2.3093691 2.3093691 0 0 1 0 1.83757 2.4831926 2.4831926 0 0 1 -.52147.74495 2.4831926 2.4831926 0 0 1 -.76979.49664 2.3342011 2.3342011 0 0 1 -.94361.19866 2.4831926 2.4831926 0 0 1 -2.23487-1.44025 2.3342011 2.3342011 0 0 1 0-1.83757 2.4831926 2.4831926 0 0 1 .52147-.74495 2.4831926 2.4831926 0 0 1 .76979-.49664 2.4831926 2.4831926 0 0 1 1.01811-.17383zm0 4.1966a1.7630668 1.7630668 0 0 0 .72013-.14899 1.8623945 1.8623945 0 0 0 .57113-.39731 1.8375625 1.8375625 0 0 0 0-2.48319 1.8375625 1.8375625 0 0 0 -.57113-.39732 1.7878987 1.7878987 0 0 0 -.72013-.14899 1.8623945 1.8623945 0 0 0 -.72013.14899 1.8127306 1.8127306 0 0 0 -.59596.39732 1.8375625 1.8375625 0 0 0 0 2.48319 1.8375625 1.8375625 0 0 0 .59596.39731 1.8375625 1.8375625 0 0 0 .79463.14899zm.14899-2.955a.99327705.99327705 0 0 1 .64563.19866.62079816.62079816 0 0 1 .22349.52147.59596623.59596623 0 0 1 -.17382.44697.86911742.86911742 0 0 1 -.52148.22349l.72013.81945h-.57113l-.67047-.81945h-.22348v.81945h-.47181v-2.18521zm-.5463.42214v.59597h.5463a.52147045.52147045 0 0 0 .29798 0 .24831926.24831926 0 0 0 0-.22349.24831926.24831926 0 0 0 0-.22348.52147045.52147045 0 0 0 -.29798 0zm-27.31512-10.08176a7.1764267 7.1764267 0 1 1 7.20126 7.59857 7.1267628 7.1267628 0 0 1 -7.20126-7.59857zm-174.394618 0v-11.86966h-5.165041v2.8805a9.0139892 9.0139892 0 0 0 -7.449577-3.47647 12.415965 12.415965 0 0 0 0 24.83193 9.0139892 9.0139892 0 0 0 7.449577-3.47647v2.8805h5.165041zm-19.219911 0a7.1764267 7.1764267 0 1 1 7.201259 7.59857 7.1267628 7.1267628 0 0 1 -7.250923-7.59857z" fill="#231f20" stroke-width="2.48319"/><g transform="matrix(2.4831926 0 0 2.4831926 -22.478219 -22.471613)"><path d="m57.650002 22.85h31.5v56.610001h-31.5z" fill="#ff5f00"/><path d="m59.65 51.16a35.94 35.94 0 0 1 13.75-28.31 36 36 0 1 0 0 56.61 35.94 35.94 0 0 1 -13.75-28.3z" fill="#eb001b"/><g fill="#f79e1b"><path d="m131.65 51.16a36 36 0 0 1 -58.25 28.3 36 36 0 0 0 0-56.61 36 36 0 0 1 58.25 28.3z"/><path d="m128.21 73.46v-1.16h.47v-.24h-1.19v.24h.51v1.16zm2.31 0v-1.4h-.36l-.42 1-.42-1h-.32v1.4h.26v-1.05l.39.91h.27l.39-.91v1.06z"/></g></g></g></svg>