<?xml version="1.0" encoding="UTF-8" standalone="no"?>
<svg
   xmlns:dc="http://purl.org/dc/elements/1.1/"
   xmlns:cc="http://creativecommons.org/ns#"
   xmlns:rdf="http://www.w3.org/1999/02/22-rdf-syntax-ns#"
   xmlns:svg="http://www.w3.org/2000/svg"
   xmlns="http://www.w3.org/2000/svg"
   xmlns:sodipodi="http://sodipodi.sourceforge.net/DTD/sodipodi-0.dtd"
   xmlns:inkscape="http://www.inkscape.org/namespaces/inkscape"
   inkscape:version="1.0 (4035a4f, 2020-05-01)"
   height="360"
   width="640"
   sodipodi:docname="method-mastercard-640x360.svg"
   id="svg30"
   version="1.1"
   viewBox="0 0 639.99999 359.99999">
  <metadata
     id="metadata34">
    <rdf:RDF>
      <cc:Work
         rdf:about="">
        <dc:format>image/svg+xml</dc:format>
        <dc:type
           rdf:resource="http://purl.org/dc/dcmitype/StillImage" />
        <dc:title>mc_vrt_rgb_pos</dc:title>
      </cc:Work>
    </rdf:RDF>
  </metadata>
  <sodipodi:namedview
     inkscape:current-layer="Layer_1-2"
     inkscape:window-maximized="1"
     inkscape:window-y="23"
     inkscape:window-x="0"
     inkscape:cy="195.76392"
     inkscape:cx="216.95906"
     inkscape:zoom="1"
     showgrid="false"
     id="namedview32"
     inkscape:window-height="817"
     inkscape:window-width="1440"
     inkscape:pageshadow="2"
     inkscape:pageopacity="0"
     guidetolerance="10"
     gridtolerance="10"
     objecttolerance="10"
     borderopacity="1"
     bordercolor="#666666"
     pagecolor="#ffffff" />
  <defs
     id="defs12">
    <style
       id="style10">.cls-1{fill:none;}.cls-2{fill:#231f20;}.cls-3{fill:#ff5f00;}.cls-4{fill:#eb001b;}.cls-5{fill:#f79e1b;}</style>
  </defs>
  <title
     id="title14">mc_vrt_rgb_pos</title>
  <g
     id="Layer_1-2"
     data-name="Layer 1">
    <rect
       class="cls-1"
       width="146.8"
       height="120.41"
       id="rect16"
       x="0"
       y="0" />
    <g
       transform="translate(160.20531,52.34916)"
       id="g99">
      <path
         id="path18"
         d="m 67.785833,238.90924 v -14.89915 a 8.8401657,8.8401657 0 0 0 -9.336805,-9.43614 9.1878127,9.1878127 0 0 0 -8.343527,4.22143 8.7160061,8.7160061 0 0 0 -7.846889,-4.22143 7.8468887,7.8468887 0 0 0 -6.952939,3.52614 v -2.93017 h -5.165041 v 23.73932 h 5.214705 v -13.06159 a 5.5623515,5.5623515 0 0 1 5.810671,-6.30731 c 3.426805,0 5.16504,2.23487 5.16504,6.25765 v 13.21058 h 5.214705 v -13.16092 a 5.5871834,5.5871834 0 0 1 5.810671,-6.30731 c 3.526133,0 5.214704,2.23487 5.214704,6.25765 v 13.21058 z m 77.152797,-23.73932 h -8.49252 v -7.20126 h -5.21471 v 7.20126 h -4.71806 v 4.71807 h 4.81739 v 10.92604 c 0,5.51269 2.13555,8.79051 8.2442,8.79051 a 12.11798,12.11798 0 0 0 6.4563,-1.83757 l -1.48991,-4.42008 a 9.5354597,9.5354597 0 0 1 -4.56908,1.34093 c -2.48319,0 -3.4268,-1.58925 -3.4268,-3.97311 v -10.82672 h 8.44285 z m 44.05183,-0.59597 a 7.0026032,7.0026032 0 0 0 -6.25764,3.47647 v -2.8805 h -5.11538 v 23.73932 h 5.16504 v -13.30991 c 0,-3.92344 1.68857,-6.10865 4.96639,-6.10865 a 8.418023,8.418023 0 0 1 3.22815,0.59596 l 1.58924,-4.96638 a 11.050207,11.050207 0 0 0 -3.67512,-0.64563 z m -66.59922,2.4832 a 17.754827,17.754827 0 0 0 -9.68445,-2.4832 c -6.00933,0 -9.93277,2.88051 -9.93277,7.59857 0,3.87378 2.8805,6.25765 8.19453,7.00261 l 2.48319,0.34764 c 2.83084,0.39732 4.17177,1.14227 4.17177,2.4832 0,1.83756 -1.88723,2.8805 -5.41336,2.8805 a 12.63945,12.63945 0 0 1 -7.89655,-2.48319 l -2.4832,4.02277 a 17.134029,17.134029 0 0 0 10.28042,3.07916 c 6.85361,0 10.82672,-3.22815 10.82672,-7.74756 0,-4.51941 -3.12882,-6.35698 -8.29386,-7.10193 l -2.4832,-0.34765 c -2.23487,-0.29798 -4.02277,-0.74496 -4.02277,-2.3342 0,-1.58924 1.68857,-2.78118 4.51941,-2.78118 a 15.296467,15.296467 0 0 1 7.44958,2.03622 z m 138.33866,-2.4832 a 7.0026032,7.0026032 0 0 0 -6.25765,3.47647 v -2.8805 h -5.11537 v 23.73932 h 5.16504 v -13.30991 c 0,-3.92344 1.68857,-6.10865 4.96638,-6.10865 a 8.418023,8.418023 0 0 1 3.22815,0.59596 l 1.58925,-4.96638 a 11.050207,11.050207 0 0 0 -3.67513,-0.64563 z m -66.54956,12.41597 a 11.99382,11.99382 0 0 0 12.66428,12.41596 12.415963,12.415963 0 0 0 8.54218,-2.83084 l -2.48319,-4.17176 a 10.429409,10.429409 0 0 1 -6.20798,2.13554 7.6234014,7.6234014 0 0 1 0,-15.19714 10.429409,10.429409 0 0 1 6.20798,2.13555 l 2.48319,-4.17176 a 12.415963,12.415963 0 0 0 -8.54218,-2.83084 11.99382,11.99382 0 0 0 -12.66428,12.41596 z m 48.37259,0 v -11.82 h -5.16504 v 2.8805 a 9.0139892,9.0139892 0 0 0 -7.44958,-3.47647 12.415965,12.415965 0 0 0 0,24.83193 9.0139892,9.0139892 0 0 0 7.44958,-3.47647 v 2.8805 h 5.16504 z m -19.21991,0 a 7.1764267,7.1764267 0 1 1 7.20126,7.59857 7.1267628,7.1267628 0 0 1 -7.20126,-7.59857 z m -62.32814,-12.41597 a 12.417182,12.417182 0 0 0 0.34765,24.83193 14.427349,14.427349 0 0 0 9.85828,-3.22815 l -2.4832,-3.82412 a 11.298526,11.298526 0 0 1 -6.90327,2.4832 6.5804604,6.5804604 0 0 1 -7.10193,-5.81067 h 17.63066 c 0,-0.64563 0,-1.29126 0,-1.98656 0,-7.44958 -4.61873,-12.41596 -11.27369,-12.41596 z m 0,4.61874 a 5.8851665,5.8851665 0 0 1 6.00933,5.76101 h -12.41596 a 6.1086539,6.1086539 0 0 1 6.30731,-5.76101 z m 129.39917,7.84689 v -21.40512 h -4.96638 v 12.41596 a 9.0139892,9.0139892 0 0 0 -7.44958,-3.47647 12.415965,12.415965 0 0 0 0,24.83193 9.0139892,9.0139892 0 0 0 7.44958,-3.47647 v 2.8805 h 4.96638 z m 8.61668,8.41802 a 2.4831926,2.4831926 0 0 1 0.94361,0.17383 2.4831926,2.4831926 0 0 1 0.76979,0.49664 2.4831926,2.4831926 0 0 1 0.52147,0.74495 2.3093691,2.3093691 0 0 1 0,1.83757 2.4831926,2.4831926 0 0 1 -0.52147,0.74495 2.4831926,2.4831926 0 0 1 -0.76979,0.49664 2.3342011,2.3342011 0 0 1 -0.94361,0.19866 2.4831926,2.4831926 0 0 1 -2.23487,-1.44025 2.3342011,2.3342011 0 0 1 0,-1.83757 2.4831926,2.4831926 0 0 1 0.52147,-0.74495 2.4831926,2.4831926 0 0 1 0.76979,-0.49664 2.4831926,2.4831926 0 0 1 1.01811,-0.17383 z m 0,4.1966 a 1.7630668,1.7630668 0 0 0 0.72013,-0.14899 1.8623945,1.8623945 0 0 0 0.57113,-0.39731 1.8375625,1.8375625 0 0 0 0,-2.48319 1.8375625,1.8375625 0 0 0 -0.57113,-0.39732 1.7878987,1.7878987 0 0 0 -0.72013,-0.14899 1.8623945,1.8623945 0 0 0 -0.72013,0.14899 1.8127306,1.8127306 0 0 0 -0.59596,0.39732 1.8375625,1.8375625 0 0 0 0,2.48319 1.8375625,1.8375625 0 0 0 0.59596,0.39731 1.8375625,1.8375625 0 0 0 0.79463,0.14899 z m 0.14899,-2.955 a 0.99327705,0.99327705 0 0 1 0.64563,0.19866 0.62079816,0.62079816 0 0 1 0.22349,0.52147 0.59596623,0.59596623 0 0 1 -0.17382,0.44697 0.86911742,0.86911742 0 0 1 -0.52148,0.22349 l 0.72013,0.81945 h -0.57113 l -0.67047,-0.81945 h -0.22348 v 0.81945 h -0.47181 v -2.18521 z m -0.5463,0.42214 v 0.59597 h 0.5463 a 0.52147045,0.52147045 0 0 0 0.29798,0 0.24831926,0.24831926 0 0 0 0,-0.22349 0.24831926,0.24831926 0 0 0 0,-0.22348 0.52147045,0.52147045 0 0 0 -0.29798,0 z M 271.3083,227.03958 a 7.1764267,7.1764267 0 1 1 7.20126,7.59857 7.1267628,7.1267628 0 0 1 -7.20126,-7.59857 z m -174.394618,0 v -11.86966 h -5.165041 v 2.8805 a 9.0139892,9.0139892 0 0 0 -7.449577,-3.47647 12.415965,12.415965 0 0 0 0,24.83193 9.0139892,9.0139892 0 0 0 7.449577,-3.47647 v 2.8805 h 5.165041 z m -19.219911,0 a 7.1764267,7.1764267 0 1 1 7.201259,7.59857 7.1267628,7.1267628 0 0 1 -7.250923,-7.59857 z"
         class="cls-2"
         style="stroke-width:2.48319" />
      <g
         data-name="&lt;Group&gt;"
         id="_Group_"
         transform="matrix(2.4831926,0,0,2.4831926,-22.478219,-22.471613)">
        <rect
           id="rect20"
           height="56.610001"
           width="31.5"
           y="22.85"
           x="57.650002"
           class="cls-3" />
        <path
           d="M 59.65,51.16 A 35.94,35.94 0 0 1 73.4,22.85 36,36 0 1 0 73.4,79.46 35.94,35.94 0 0 1 59.65,51.16 Z"
           class="cls-4"
           data-name="&lt;Path&gt;"
           id="_Path_" />
        <path
           id="path23"
           d="m 131.65,51.16 a 36,36 0 0 1 -58.25,28.3 36,36 0 0 0 0,-56.61 36,36 0 0 1 58.25,28.3 z"
           class="cls-5" />
        <path
           id="path25"
           d="M 128.21,73.46 V 72.3 h 0.47 v -0.24 h -1.19 V 72.3 H 128 v 1.16 z m 2.31,0 v -1.4 h -0.36 l -0.42,1 -0.42,-1 H 129 v 1.4 h 0.26 v -1.05 l 0.39,0.91 h 0.27 l 0.39,-0.91 v 1.06 z"
           class="cls-5" />
      </g>
    </g>
  </g>
</svg>
