<svg height="360" viewBox="0 0 640 360" width="640" xmlns="http://www.w3.org/2000/svg"><g fill="none" transform="translate(130 34.333)"><path d="m69.3418803 288.412491v-19.172113c.2297542-3.261831-.9782178-6.46321-3.3157399-8.787404-2.337522-2.324195-5.5785458-3.546446-8.8962259-3.354935-4.3721626-.281997-8.5538015 1.799507-10.9128205 5.432099-2.1507483-3.524284-6.0888396-5.608624-10.2632478-5.432099-3.6346274-.180771-7.0947574 1.545639-9.0940171 4.5374v-3.770515h-6.7555556v30.547567h6.8205128v-16.807553c-.293742-2.115035.3873975-4.248677 1.8575415-5.818674 1.470144-1.569996 3.5758389-2.412471 5.7424585-2.29752 4.4820513 0 6.7555556 2.875817 6.7555556 8.052287v16.999274h6.8205128v-16.935367c-.2816886-2.112629.4036159-4.239358 1.8710342-5.806444 1.4674182-1.567086 3.565769-2.413079 5.7289658-2.30975 4.6119658 0 6.8205128 2.875817 6.8205128 8.052287v16.999274zm100.9111107-30.547567h-11.107692v-9.266522h-6.820513v9.266522h-6.17094v6.071169h6.300855v14.05955c0 7.093682 2.793162 11.311635 10.782906 11.311635 2.984976.009776 5.91211-.809861 8.444444-2.364649l-1.948718-5.687727c-1.811647 1.063125-3.86778 1.656799-5.976068 1.72549-3.247863 0-4.482051-2.045025-4.482051-5.112563v-13.931736h11.042735zm57.617094-.766885c-3.355311-.097083-6.495781 1.619415-8.184615 4.473493v-3.706608h-6.690598v30.547567h6.755555v-17.127088c0-5.048656 2.208547-7.860566 6.495727-7.860566 1.444923-.019445 2.879604.241137 4.222222.766884l2.078633-6.390704c-1.542827-.543006-3.168275-.823941-4.806838-.830792zm-87.107692 3.195352c-3.823953-2.23682-8.220504-3.345914-12.666667-3.195352-7.859829 0-12.991452 3.706609-12.991452 9.777778 0 4.984749 3.767521 8.052288 10.717948 9.010893l3.247863.44735c3.702565.511256 5.456411 1.469862 5.456411 3.195352 0 2.36456-2.468376 3.706608-7.080342 3.706608-3.709702.105646-7.347631-1.019861-10.328205-3.195352l-3.247864 5.176471c3.935157 2.703238 8.648481 4.092134 13.446154 3.962236 8.964103 0 14.160684-4.153957 14.160684-9.969498s-4.092308-8.180102-10.847863-9.138708l-3.247863-.447349c-2.923077-.383442-5.261539-.958606-5.261539-3.003631 0-2.045026 2.208547-3.578795 5.911111-3.578795 3.422194.039112 6.776978.94126 9.74359 2.620189zm180.938462-3.195352c-3.355311-.097083-6.495782 1.619415-8.184616 4.473493v-3.706608h-6.690598v30.547567h6.755556v-17.127088c0-5.048656 2.208547-7.860566 6.495726-7.860566 1.444923-.019445 2.879604.241137 4.222222.766884l2.078633-6.390704c-1.542826-.543006-3.168275-.823941-4.806838-.830792zm-87.042735 15.976761c-.162466 4.340678 1.541776 8.547767 4.694408 11.588612 3.152633 3.040844 7.461765 4.633902 11.869694 4.388149 4.056187.203033 8.04247-1.096645 11.17265-3.642701l-3.247863-5.368192c-2.335308 1.752047-5.182997 2.715814-8.119659 2.748003-5.178066-.41219-9.166807-4.666782-9.166807-9.777778s3.988741-9.365588 9.166807-9.777778c2.936662.03219 5.784351.995956 8.119659 2.748003l3.247863-5.368191c-3.13018-2.546057-7.116463-3.845734-11.17265-3.642702-4.407929-.245753-8.717061 1.347306-11.869694 4.38815-3.152632 3.040844-4.856874 7.247933-4.694408 11.588611zm63.268376 0v-15.209876h-6.755556v3.706608c-2.327408-2.946274-5.95341-4.61105-9.74359-4.473493-8.968726 0-16.239316 7.15304-16.239316 15.976761 0 8.823722 7.27059 15.976761 16.239316 15.976761 3.79018.137558 7.416182-1.527218 9.74359-4.473493v3.706609h6.755556zm-25.138462 0c.300411-5.014566 4.619897-8.873146 9.722123-8.684735 5.102227.188411 9.115556 4.354699 9.03304 9.377311-.082516 5.022613-4.230609 9.059118-9.336359 9.085202-2.599788.032363-5.095169-1.005009-6.883644-2.861647-1.788476-1.856639-2.707493-4.363797-2.53516-6.916131zm-81.521367-15.976761c-8.968727.123532-16.137528 7.376714-16.011966 16.200436.125562 8.823721 7.49794 15.876618 16.466667 15.753086 4.672828.235974 9.26812-1.244453 12.894017-4.153958l-3.247864-4.920842c-2.564636 2.023548-5.741891 3.147968-9.029059 3.195352-4.643255.392869-8.760851-2.921604-9.288889-7.477124h23.059829c0-.830791 0-1.661583 0-2.556282 0-9.586056-6.041026-15.976761-14.745299-15.976761zm0 5.943355c2.041616-.042823 4.016859.714257 5.490964 2.104599 1.474104 1.390343 2.326247 3.299992 2.368865 5.308618h-16.239317c.244657-4.266359 3.908733-7.558965 8.249573-7.413217zm169.246154 10.097313v-27.543936h-6.495727v15.976761c-2.327408-2.946274-5.95341-4.61105-9.74359-4.473493-8.968726 0-16.239316 7.15304-16.239316 15.976761 0 8.823722 7.27059 15.976761 16.239316 15.976761 3.79018.137558 7.416182-1.527218 9.74359-4.473493v3.706609h6.495727zm11.270085 10.832244c.422264-.005089.841485.070887 1.234188.223675.372994.149747.714415.366458 1.006838.63907.285387.275508.516613.600491.682051.958606.332455.754254.332455 1.610307 0 2.364561-.165438.358115-.396664.683098-.682051.958605-.292423.272613-.633844.489324-1.006838.639071-.388827.168795-.809191.255862-1.234188.255629-1.256762-.009321-2.395258-.731156-2.923077-1.853305-.328606-.755036-.328606-1.609525 0-2.364561.165438-.358115.396664-.683098.682051-.958606.292423-.272612.633844-.489323 1.006838-.63907.423034-.165556.876721-.241763 1.331624-.223675zm0 5.400146c.324167.001937.645108-.063391.94188-.191722.279435-.122741.532859-.296186.747009-.511256.842161-.903988.842161-2.291364 0-3.195352-.21364-.215664-.467186-.389192-.747009-.511256-.297065-.127427-.617809-.192714-.94188-.191733-.323791.001695-.643993.066872-.94188.191733-.291806.117716-.556807.291528-.779488.511256-.842161.903988-.842161 2.291364 0 3.195352.223228.219072.488088.39279.779488.511256.327676.139024.682706.204516 1.039316.191722zm.194872-3.80247c.303192-.014465.601962.075978.844444.255629.2017.164228.310533.414065.292308.671024.009428.214584-.073043.423224-.227351.575163-.188252.168222-.428404.26948-.682051.287582l.941881 1.054466h-.747009l-.876923-1.054466h-.292308v1.054466h-.617094v-2.81191zm-.71453.54321v.766885h.71453c.127149.037296.262594.037296.389743 0 .046324-.090444.046324-.197138 0-.287582.046324-.090444.046324-.197138 0-.287582-.127149-.037295-.262594-.037295-.389743 0zm-35.726496-12.97313c.300411-5.014566 4.619897-8.873146 9.722123-8.684735s9.115556 4.354699 9.03304 9.377312c-.082516 5.022612-4.230609 9.059117-9.336359 9.085201-2.599788.032364-5.095169-1.005009-6.883644-2.861647-1.788476-1.856639-2.707493-4.363797-2.53516-6.916131zm-228.097436 0v-15.273783h-6.755555v3.706608c-2.3274082-2.946274-5.9534107-4.61105-9.7435901-4.473493-8.9687267 0-16.2393162 7.15304-16.2393162 15.976761 0 8.823722 7.2705895 15.976761 16.2393162 15.976761 3.7901794.137558 7.4161819-1.527218 9.7435901-4.473493v3.706609h6.755555zm-25.1384613 0c.3004111-5.014566 4.6198968-8.873146 9.7221231-8.684735 5.1022262.188411 9.1155562 4.354699 9.0330402 9.377312-.082517 5.022612-4.2306097 9.059117-9.3363599 9.085201-2.6109913.05043-5.1237449-.979034-6.9266248-2.837807-1.8028798-1.858773-2.7305254-4.376368-2.5571359-6.939971z" fill="#231f20"/><path d="m138.521 25.084h102.308v180.888h-102.308z" fill="#ff5f00"/><path d="m145.017094 115.543936c-.038251-35.3038736 16.430433-68.6631846 44.65812-90.4604211-47.939143-37.0659202-116.781674-31.66694843-158.1469132 12.4026631-41.3652391 44.0696116-41.3652391 112.013951 0 156.083563 41.3652392 44.069611 110.2077702 49.468583 158.1469132 12.402663-28.218707-21.790317-44.686385-55.135807-44.65812-90.428468z" fill="#eb001b"/><path d="m378.863248 115.543936c0 44.042755-25.562565 84.218781-65.828487 103.465166-40.265923 19.246384-88.167034 14.184171-123.359547-13.036698 28.206394-21.808816 44.675311-55.149873 44.675311-90.444445 0-35.2945709-16.468917-68.6356279-44.675311-90.4444441 35.192513-27.22086946 83.093624-32.28308255 123.359547-13.036698 40.265922 19.2463846 65.828487 59.4224106 65.828487 103.4651661zm-11.17265 71.59165v-3.984425h1.526496v-.824364h-3.864957v.824364h1.65641v3.984425zm7.502564 0v-4.808789h-1.16923l-1.364103 3.43485-1.364103-3.43485h-1.039316v4.808789h.844445v-3.606591l1.266666 3.125712h.876923l1.266667-3.125712v3.64094z" fill="#f79e1b"/></g></svg>