<svg xmlns="http://www.w3.org/2000/svg" width="640" height="360" viewBox="0 0 640 360">
  <g fill="none" fill-rule="evenodd" transform="translate(130 34.333)">
    <path fill="#231F20" fill-rule="nonzero" d="M69.3418803,288.412491 L69.3418803,269.240378 C69.5716345,265.978547 68.3636625,262.777168 66.0261404,260.452974 C63.6886184,258.128779 60.4475946,256.906528 57.1299145,257.098039 C52.7577519,256.816042 48.576113,258.897546 46.217094,262.530138 C44.0663457,259.005854 40.1282544,256.921514 35.9538462,257.098039 C32.3192188,256.917268 28.8590888,258.643678 26.8598291,261.635439 L26.8598291,257.864924 L20.1042735,257.864924 L20.1042735,288.412491 L26.9247863,288.412491 L26.9247863,271.604938 C26.6310443,269.489903 27.3121838,267.356261 28.7823278,265.786264 C30.2524718,264.216268 32.3581667,263.373793 34.5247863,263.488744 C39.0068376,263.488744 41.2803419,266.364561 41.2803419,271.541031 L41.2803419,288.540305 L48.1008547,288.540305 L48.1008547,271.604938 C47.8191661,269.492309 48.5044706,267.36558 49.9718889,265.798494 C51.4393071,264.231408 53.5376579,263.385415 55.7008547,263.488744 C60.3128205,263.488744 62.5213675,266.364561 62.5213675,271.541031 L62.5213675,288.540305 L69.3418803,288.412491 Z M170.252991,257.864924 L159.145299,257.864924 L159.145299,248.598402 L152.324786,248.598402 L152.324786,257.864924 L146.153846,257.864924 L146.153846,263.936093 L152.454701,263.936093 L152.454701,277.995643 C152.454701,285.089325 155.247863,289.307278 163.237607,289.307278 C166.222583,289.317054 169.149717,288.497417 171.682051,286.942629 L169.733333,281.254902 C167.921686,282.318027 165.865553,282.911701 163.757265,282.980392 C160.509402,282.980392 159.275214,280.935367 159.275214,277.867829 L159.275214,263.936093 L170.317949,263.936093 L170.252991,257.864924 Z M227.870085,257.098039 C224.514774,257.000956 221.374304,258.717454 219.68547,261.571532 L219.68547,257.864924 L212.994872,257.864924 L212.994872,288.412491 L219.750427,288.412491 L219.750427,271.285403 C219.750427,266.236747 221.958974,263.424837 226.246154,263.424837 C227.691077,263.405392 229.125758,263.665974 230.468376,264.191721 L232.547009,257.801017 C231.004182,257.258011 229.378734,256.977076 227.740171,256.970225 L227.870085,257.098039 Z M140.762393,260.293391 C136.93844,258.056571 132.541889,256.947477 128.095726,257.098039 C120.235897,257.098039 115.104274,260.804648 115.104274,266.875817 C115.104274,271.860566 118.871795,274.928105 125.822222,275.88671 L129.070085,276.33406 C132.77265,276.845316 134.526496,277.803922 134.526496,279.529412 C134.526496,281.893972 132.05812,283.23602 127.446154,283.23602 C123.736452,283.341666 120.098523,282.216159 117.117949,280.040668 L113.870085,285.217139 C117.805242,287.920377 122.518566,289.309273 127.316239,289.179375 C136.280342,289.179375 141.476923,285.025418 141.476923,279.209877 C141.476923,273.394336 137.384615,271.029775 130.62906,270.071169 L127.381197,269.62382 C124.45812,269.240378 122.119658,268.665214 122.119658,266.620189 C122.119658,264.575163 124.328205,263.041394 128.030769,263.041394 C131.452963,263.080506 134.807747,263.982654 137.774359,265.661583 L140.762393,260.293391 Z M321.700855,257.098039 C318.345544,257.000956 315.205073,258.717454 313.516239,261.571532 L313.516239,257.864924 L306.825641,257.864924 L306.825641,288.412491 L313.581197,288.412491 L313.581197,271.285403 C313.581197,266.236747 315.789744,263.424837 320.076923,263.424837 C321.521846,263.405392 322.956527,263.665974 324.299145,264.191721 L326.377778,257.801017 C324.834952,257.258011 323.209503,256.977076 321.57094,256.970225 L321.700855,257.098039 Z M234.65812,273.0748 C234.495654,277.415478 236.199896,281.622567 239.352528,284.663412 C242.505161,287.704256 246.814293,289.297314 251.222222,289.051561 C255.278409,289.254594 259.264692,287.954916 262.394872,285.40886 L259.147009,280.040668 C256.811701,281.792715 253.964012,282.756482 251.02735,282.788671 C245.849284,282.376481 241.860543,278.121889 241.860543,273.010893 C241.860543,267.899897 245.849284,263.645305 251.02735,263.233115 C253.964012,263.265305 256.811701,264.229071 259.147009,265.981118 L262.394872,260.612927 C259.264692,258.06687 255.278409,256.767193 251.222222,256.970225 C246.814293,256.724472 242.505161,258.317531 239.352528,261.358375 C236.199896,264.399219 234.495654,268.606308 234.65812,272.946986 L234.65812,273.0748 Z M297.926496,273.0748 L297.926496,257.864924 L291.17094,257.864924 L291.17094,261.571532 C288.843532,258.625258 285.21753,256.960482 281.42735,257.098039 C272.458624,257.098039 265.188034,264.251079 265.188034,273.0748 C265.188034,281.898522 272.458624,289.051561 281.42735,289.051561 C285.21753,289.189119 288.843532,287.524343 291.17094,284.578068 L291.17094,288.284677 L297.926496,288.284677 L297.926496,273.0748 Z M272.788034,273.0748 C273.088445,268.060234 277.407931,264.201654 282.510157,264.390065 C287.612384,264.578476 291.625713,268.744764 291.543197,273.767376 C291.460681,278.789989 287.312588,282.826494 282.206838,282.852578 C279.60705,282.884941 277.111669,281.847569 275.323194,279.990931 C273.534718,278.134292 272.615701,275.627134 272.788034,273.0748 L272.788034,273.0748 Z M191.266667,257.098039 C182.29794,257.221571 175.129139,264.474753 175.254701,273.298475 C175.380263,282.122196 182.752641,289.175093 191.721368,289.051561 C196.394196,289.287535 200.989488,287.807108 204.615385,284.897603 L201.367521,279.976761 C198.802885,282.000309 195.62563,283.124729 192.338462,283.172113 C187.695207,283.564982 183.577611,280.250509 183.049573,275.694989 L206.109402,275.694989 C206.109402,274.864198 206.109402,274.033406 206.109402,273.138707 C206.109402,263.552651 200.068376,257.161946 191.364103,257.161946 L191.266667,257.098039 Z M191.266667,263.041394 C193.308283,262.998571 195.283526,263.755651 196.757631,265.145993 C198.231735,266.536336 199.083878,268.445985 199.126496,270.454611 L182.887179,270.454611 C183.131836,266.188252 186.795912,262.895646 191.136752,263.041394 L191.266667,263.041394 Z M360.512821,273.138707 L360.512821,245.594771 L354.017094,245.594771 L354.017094,261.571532 C351.689686,258.625258 348.063684,256.960482 344.273504,257.098039 C335.304778,257.098039 328.034188,264.251079 328.034188,273.0748 C328.034188,281.898522 335.304778,289.051561 344.273504,289.051561 C348.063684,289.189119 351.689686,287.524343 354.017094,284.578068 L354.017094,288.284677 L360.512821,288.284677 L360.512821,273.138707 Z M371.782906,283.970951 C372.20517,283.965862 372.624391,284.041838 373.017094,284.194626 C373.390088,284.344373 373.731509,284.561084 374.023932,284.833696 C374.309319,285.109204 374.540545,285.434187 374.705983,285.792302 C375.038438,286.546556 375.038438,287.402609 374.705983,288.156863 C374.540545,288.514978 374.309319,288.839961 374.023932,289.115468 C373.731509,289.388081 373.390088,289.604792 373.017094,289.754539 C372.628267,289.923334 372.207903,290.010401 371.782906,290.010168 C370.526144,290.000847 369.387648,289.279012 368.859829,288.156863 C368.531223,287.401827 368.531223,286.547338 368.859829,285.792302 C369.025267,285.434187 369.256493,285.109204 369.54188,284.833696 C369.834303,284.561084 370.175724,284.344373 370.548718,284.194626 C370.971752,284.02907 371.425439,283.952863 371.880342,283.970951 L371.782906,283.970951 Z M371.782906,289.371097 C372.107073,289.373034 372.428014,289.307706 372.724786,289.179375 C373.004221,289.056634 373.257645,288.883189 373.471795,288.668119 C374.313956,287.764131 374.313956,286.376755 373.471795,285.472767 C373.258155,285.257103 373.004609,285.083575 372.724786,284.961511 C372.427721,284.834084 372.106977,284.768797 371.782906,284.769778 C371.459115,284.771473 371.138913,284.83665 370.841026,284.961511 C370.54922,285.079227 370.284219,285.253039 370.061538,285.472767 C369.219377,286.376755 369.219377,287.764131 370.061538,288.668119 C370.284766,288.887191 370.549626,289.060909 370.841026,289.179375 C371.168702,289.318399 371.523732,289.383891 371.880342,289.371097 L371.782906,289.371097 Z M371.977778,285.568627 C372.28097,285.554162 372.57974,285.644605 372.822222,285.824256 C373.023922,285.988484 373.132755,286.238321 373.11453,286.49528 C373.123958,286.709864 373.041487,286.918504 372.887179,287.070443 C372.698927,287.238665 372.458775,287.339923 372.205128,287.358025 L373.147009,288.412491 L372.4,288.412491 L371.523077,287.358025 L371.230769,287.358025 L371.230769,288.412491 L370.613675,288.412491 L370.613675,285.600581 L371.977778,285.568627 Z M371.263248,286.111837 L371.263248,286.878722 L371.977778,286.878722 C372.104927,286.916018 372.240372,286.916018 372.367521,286.878722 C372.413845,286.788278 372.413845,286.681584 372.367521,286.59114 C372.413845,286.500696 372.413845,286.394002 372.367521,286.303558 C372.240372,286.266263 372.104927,286.266263 371.977778,286.303558 L371.263248,286.111837 Z M335.536752,273.138707 C335.837163,268.124141 340.156649,264.265561 345.258875,264.453972 C350.361101,264.642383 354.374431,268.808671 354.291915,273.831284 C354.209399,278.853896 350.061306,282.890401 344.955556,282.916485 C342.355768,282.948849 339.860387,281.911476 338.071912,280.054838 C336.283436,278.198199 335.364419,275.691041 335.536752,273.138707 L335.536752,273.138707 Z M107.439316,273.138707 L107.439316,257.864924 L100.683761,257.864924 L100.683761,261.571532 C98.3563528,258.625258 94.7303503,256.960482 90.9401709,257.098039 C81.9714442,257.098039 74.7008547,264.251079 74.7008547,273.0748 C74.7008547,281.898522 81.9714442,289.051561 90.9401709,289.051561 C94.7303503,289.189119 98.3563528,287.524343 100.683761,284.578068 L100.683761,288.284677 L107.439316,288.284677 L107.439316,273.138707 Z M82.3008547,273.138707 C82.6012658,268.124141 86.9207515,264.265561 92.0229778,264.453972 C97.125204,264.642383 101.138534,268.808671 101.056018,273.831284 C100.973501,278.853896 96.8254083,282.890401 91.7196581,282.916485 C89.1086668,282.966915 86.5959132,281.937451 84.7930333,280.078678 C82.9901535,278.219905 82.0625079,275.70231 82.2358974,273.138707 L82.3008547,273.138707 Z"/>
    <g fill-rule="nonzero">
      <polygon fill="#FF5F00" points="138.521 25.084 240.829 25.084 240.829 205.972 138.521 205.972"/>
      <path fill="#EB001B" d="M145.017094,115.543936 C144.978843,80.2400624 161.447527,46.8807514 189.675214,25.0835149 C141.736071,-11.9824053 72.89354,-6.58343353 31.5283008,37.486178 C-9.8369383,81.5557896 -9.8369383,149.500129 31.5283008,193.569741 C72.89354,237.639352 141.736071,243.038324 189.675214,205.972404 C161.456507,184.182087 144.988829,150.836597 145.017094,115.543936 L145.017094,115.543936 Z"/>
      <path fill="#F79E1B" d="M378.863248 115.543936C378.863248 159.586691 353.300683 199.762717 313.034761 219.009102 272.768838 238.255486 224.867727 233.193273 189.675214 205.972404 217.881608 184.163588 234.350525 150.822531 234.350525 115.527959 234.350525 80.2333881 217.881608 46.8923311 189.675214 25.0835149 224.867727-2.13735456 272.768838-7.19956765 313.034761 12.0468169 353.300683 31.2932015 378.863248 71.4692275 378.863248 115.511983L378.863248 115.543936zM367.690598 187.135586L367.690598 183.151161 369.217094 183.151161 369.217094 182.326797 365.352137 182.326797 365.352137 183.151161 367.008547 183.151161 367.008547 187.135586 367.690598 187.135586zM375.193162 187.135586L375.193162 182.326797 374.023932 182.326797 372.659829 185.761647 371.295726 182.326797 370.25641 182.326797 370.25641 187.135586 371.100855 187.135586 371.100855 183.528995 372.367521 186.654707 373.244444 186.654707 374.511111 183.528995 374.511111 187.169935 375.193162 187.135586z"/>
    </g>
  </g>
</svg>
