<svg xmlns="http://www.w3.org/2000/svg" width="640" height="360" viewBox="0 0 640 360">
  <g fill="none" fill-rule="evenodd" transform="translate(80 130)">
    <path fill="#1AA5DE" fill-rule="nonzero" d="M27.0776004 40.7264722L31.9207485 19.5927353C33.4617501 13.6488718 33.6818932 12.3280132 34.7826087 6.82443588L35.2228949 6.3841497C41.6070446 6.3841497 43.5883324 6.3841497 51.0731976 6.1640066L51.5134838 6.60429279C51.5134838 12.9884425 51.7336269 14.5294441 51.95377 22.8948817L52.3940561 34.7826087C53.0544854 49.0919097 53.2746285 52.3940561 53.7149147 59.8789213L53.2746285 60.3192075C47.5509081 60.3192075 45.7897633 60.3192075 41.3869015 60.5393506L40.9466153 60.0990644C40.9466153 50.6329114 40.9466153 49.3120528 40.7264722 38.7451844L40.5063291 18.2718767 34.7826087 43.1480462C32.8013209 51.5134838 32.1408916 55.4760594 31.2603192 59.8789213L30.820033 60.3192075C26.8574573 60.3192075 25.5365988 60.3192075 21.5740231 60.5393506L21.1337369 60.0990644C20.0330215 55.2559163 18.7121629 49.3120528 17.6114474 44.0286186L11.887727 18.932306 11.4474408 36.5437534C11.0071547 52.3940561 11.0071547 54.1552009 11.0071547 59.8789213L10.5668685 60.3192075C6.3841497 60.3192075 5.06329114 60.3192075.660429279 60.5393506L.220143093 60.0990644C.880572372 47.5509081.880572372 46.2300495 1.54100165 37.864612L2.20143093 21.1337369C2.42157402 13.8690149 2.42157402 10.3467254 2.64171712 6.82443588L3.0820033 6.3841497C9.90643919 6.3841497 11.887727 6.3841497 19.3725922 6.1640066L19.8128784 6.60429279C20.6934507 10.5668685 20.6934507 10.7870116 22.4545955 18.932306L27.0776004 40.7264722zM79.6917997 56.1364887C77.4903687 58.3379196 74.1882223 61.1997799 69.1249312 61.1997799 60.9796368 61.1997799 60.0990644 53.7149147 59.8789213 51.95377 59.6587782 49.752339 59.6587782 47.1106219 59.6587782 42.70776L59.6587782 38.7451844C59.6587782 27.7380297 59.6587782 25.976885 59.4386351 20.6934507L59.8789213 20.2531646C64.7220693 20.2531646 65.8227848 20.2531646 71.106219 19.8128784L71.5465052 20.2531646C71.5465052 22.8948817 71.3263621 35.8833242 71.3263621 38.9653275 71.3263621 40.7264722 71.3263621 47.1106219 71.5465052 48.4314805 71.5465052 49.3120528 71.9867914 51.95377 75.2889378 51.95377 77.4903687 51.95377 78.5910842 50.6329114 79.6917997 49.752339L79.6917997 43.5883324C79.6917997 42.0473308 79.4716566 27.0776004 79.2515135 20.9135938L79.6917997 20.4733076C84.7550908 20.4733076 86.0759494 20.2531646 90.9190974 20.0330215L91.3593836 20.4733076C91.3593836 25.3164557 91.1392405 27.9581728 91.1392405 35.2228949L91.1392405 51.0731976C91.1392405 55.2559163 91.3593836 58.1177766 91.3593836 60.3192075L90.9190974 60.7594937C85.4155201 60.7594937 84.5349477 60.7594937 79.9119428 60.9796368L79.4716566 60.7594937 79.6917997 56.1364887zM110.071547 60.3192075C105.008255 60.3192075 103.687397 60.3192075 98.1838195 60.5393506L97.7435333 60.0990644C97.9636764 55.2559163 97.9636764 50.1926252 97.9636764 39.4056136L97.9636764 18.4920198C97.7435333 10.7870116 97.5233902 8.36543753 97.3032471 4.62300495L97.7435333 4.18271877C102.806824 3.3021464 104.788112 3.0820033 109.411117 1.98128784L109.851403 2.42157402 109.851403 16.0704458C109.851403 18.4920198 109.851403 35.6631811 110.071547 45.7897633 110.29169 52.6141992 110.29169 56.3566318 110.511833 59.8789213L110.071547 60.3192075zM134.50743 28.6186021L129.223996 28.6186021 129.223996 38.3048982 129.223996 45.1293341C129.223996 49.0919097 129.223996 52.8343423 132.746285 52.8343423 134.067144 52.8343423 134.727573 52.3940561 135.167859 52.173913L135.608145 52.6141992C135.388002 55.9163456 135.388002 56.5767749 135.167859 60.0990644L134.727573 60.7594937C132.966428 61.1997799 130.764997 61.4199229 128.563566 61.4199229 126.802422 61.4199229 122.179417 61.4199229 119.5377 57.8976335 117.556412 55.2559163 117.556412 51.95377 117.776555 46.4501926L117.776555 41.8271877 117.776555 28.398459C116.455696 28.398459 115.575124 28.398459 114.034122 28.6186021L113.593836 28.1783159C113.813979 24.6560264 113.813979 24.6560264 113.813979 20.6934507L114.254265 20.2531646 117.776555 20.2531646 117.776555 11.0071547 118.216841 10.5668685C123.280132 9.24600991 124.600991 8.80572372 129.223996 7.48486516L129.664282 7.92515135C129.444139 11.2272977 129.444139 12.1078701 129.444139 20.6934507 132.085856 20.6934507 132.746285 20.6934507 134.947716 20.4733076L135.388002 20.9135938C135.167859 24.4358833 135.167859 24.8761695 134.947716 28.398459L134.50743 28.6186021zM151.458448 60.5393506C146.6153 60.5393506 144.634012 60.5393506 139.350578 60.7594937L138.910292 60.3192075C139.130435 55.4760594 139.350578 50.6329114 139.350578 42.0473308 139.350578 29.9394606 138.910292 25.7567419 138.690149 21.7941662L139.130435 21.35388C144.413869 20.6934507 145.954871 20.2531646 151.018162 19.1524491L151.458448 19.5927353 151.458448 22.6747386C151.458448 27.2977435 151.238305 31.7006054 151.238305 36.3236103 151.238305 44.2487617 151.458448 52.173913 151.898734 60.0990644L151.458448 60.5393506zM150.357733 12.7682994C145.734728 13.2085856 144.413869 13.4287287 139.790864 14.309301L139.350578 13.8690149C139.350578 9.90643919 139.350578 8.80572372 139.130435 4.62300495L139.570721 4.18271877C144.854155 3.74243258 145.734728 3.52228949 150.357733 2.86186021L150.798019 3.3021464C150.577876 7.70500826 150.798019 8.80572372 150.798019 12.3280132L150.357733 12.7682994z" transform="translate(0 2.201)"/>
    <path fill="#171113" fill-rule="nonzero" d="M28.1783159 15.6301596C26.1970281 14.089158 23.9955971 12.1078701 19.5927353 12.1078701 15.6301596 12.1078701 13.2085856 14.309301 13.2085856 17.6114474 13.2085856 20.0330215 14.5294441 21.7941662 16.9510182 23.555311 17.6114474 24.2157402 21.7941662 27.0776004 22.6747386 27.5178866 27.5178866 30.820033 31.4804623 34.3423225 31.2603192 42.0473308 31.2603192 47.1106219 29.4991745 51.0731976 27.2977435 53.4947716 23.3351679 57.8976335 17.8315905 58.9983489 12.7682994 58.9983489 9.68629609 58.9983489 5.28343423 58.5580627 1.32085856 56.5767749L.880572372 55.9163456C.880572372 54.375344 1.10071547 52.6141992 1.10071547 50.8530545 1.10071547 49.3120528 1.32085856 47.9911943 1.32085856 46.4501926L1.98128784 46.2300495C4.62300495 48.6516236 7.92515135 49.9724821 11.4474408 49.9724821 17.1711613 49.9724821 18.7121629 46.0099064 18.7121629 43.3681893 18.7121629 40.0660429 16.510732 38.0847551 12.9884425 35.6631811L9.68629609 33.4617501C5.72372042 30.5998899.660429279 27.0776004.660429279 18.7121629.660429279 13.2085856 2.64171712 9.466153 4.84314805 7.26472207 8.36543753 3.74243258 13.2085856 3.0820033 17.6114474 3.0820033 21.5740231 3.0820033 25.5365988 3.74243258 29.0588883 5.50357733L29.2790314 6.1640066C29.0588883 7.70500826 29.0588883 9.466153 28.8387452 11.0071547L28.6186021 15.4100165 28.1783159 15.6301596zM53.9350578 55.0357733C52.6141992 56.1364887 49.9724821 58.9983489 44.909191 58.9983489 39.1854706 58.9983489 34.7826087 54.5954871 34.7826087 46.4501926 34.7826087 35.0027518 44.909191 32.3610347 53.9350578 30.5998899 53.9350578 27.9581728 53.9350578 25.0963126 48.4314805 25.0963126 43.3681893 25.0963126 40.286186 27.0776004 38.7451844 28.1783159L38.3048982 27.9581728C38.5250413 24.4358833 38.5250413 23.555311 38.7451844 20.2531646L39.1854706 19.5927353C43.5883324 17.6114474 49.3120528 17.1711613 52.173913 17.1711613 55.2559163 17.1711613 61.1997799 17.6114474 64.0616401 22.4545955 65.8227848 25.5365988 65.8227848 28.8387452 65.6026417 35.2228949L65.6026417 41.1667584C65.6026417 47.5509081 65.6026417 51.95377 66.263071 57.8976335L65.8227848 58.3379196C60.7594937 58.3379196 59.6587782 58.3379196 55.0357733 58.5580627L54.5954871 58.1177766 53.9350578 55.0357733zM53.7149147 37.6444689C50.4127683 38.0847551 45.5696203 38.9653275 45.5696203 45.1293341 45.5696203 48.4314805 47.330765 50.4127683 49.752339 50.4127683 51.95377 50.4127683 53.2746285 49.0919097 53.9350578 48.4314805L53.7149147 37.6444689zM89.5982389 26.4171712L84.7550908 26.4171712C84.7550908 44.4689048 84.9752339 51.5134838 85.195377 58.1177766L84.7550908 58.5580627C79.2515135 58.5580627 78.150798 58.5580627 73.0875069 58.7782058L72.6472207 58.3379196 72.6472207 55.4760594C72.8673638 50.1926252 72.8673638 33.241607 72.8673638 26.4171712 71.106219 26.4171712 70.6659329 26.4171712 69.1249312 26.6373143L68.684645 26.1970281C68.9047881 23.3351679 68.9047881 22.2344524 69.1249312 18.7121629L69.5652174 18.2718767C71.106219 18.4920198 71.3263621 18.4920198 72.8673638 18.4920198 72.8673638 12.5481563 72.6472207 7.70500826 75.0687947 4.62300495 78.150798.660429279 83.8745184.660429279 85.4155201.660429279 88.0572372.660429279 89.8183819 1.10071547 90.6989543 1.10071547L90.9190974 1.54100165C90.6989543 4.84314805 90.4788112 5.72372042 90.4788112 9.466153L90.038525 9.90643919C89.5982389 9.68629609 88.9378096 9.466153 88.2773803 9.466153 86.7363786 9.466153 85.8558063 10.1265823 85.195377 11.0071547 84.3148046 12.3280132 84.3148046 13.8690149 84.3148046 18.4920198 86.7363786 18.4920198 87.3968079 18.4920198 89.5982389 18.2718767L90.038525 18.7121629C89.8183819 22.0143093 89.8183819 22.8948817 89.5982389 26.1970281L89.5982389 26.4171712zM104.347826 40.5063291C104.567969 47.330765 108.090259 50.6329114 113.813979 50.6329114 118.436984 50.6329114 121.078701 48.6516236 122.179417 47.9911943L122.619703 48.2113374C122.39956 51.5134838 122.39956 52.8343423 122.179417 56.1364887L121.959274 56.796918C120.418272 58.1177766 115.575124 59.218492 111.172262 59.218492 97.9636764 59.218492 92.6802422 50.8530545 92.6802422 38.0847551 92.6802422 35.443038 92.9003853 32.5811778 93.5608145 29.7193176 95.7622455 20.4733076 102.366538 16.9510182 108.970831 16.9510182 111.172262 16.9510182 113.373693 17.3913043 115.354981 18.2718767 122.619703 21.5740231 123.720418 28.6186021 123.720418 36.1034673L123.720418 40.0660429 123.280132 40.5063291 104.347826 40.5063291zM112.933407 33.241607C112.933407 31.9207485 112.933407 30.820033 112.713264 29.2790314 112.272977 26.8574573 111.172262 24.6560264 108.970831 24.6560264 107.870116 24.6560264 104.788112 25.0963126 104.567969 33.021464L112.933407 33.241607zM140.89158 17.1711613L140.89158 20.9135938C142.652724 19.3725922 145.294441 16.9510182 149.697303 16.9510182 154.320308 16.9510182 157.182168 19.8128784 158.72317 22.2344524 161.364887 26.4171712 162.025316 31.9207485 162.025316 35.6631811 162.025316 41.1667584 161.144744 52.8343423 150.577876 57.0170611 147.275729 58.3379196 145.294441 58.1177766 141.111723 58.1177766 141.111723 63.6213539 141.331866 70.6659329 141.552009 73.5277931L141.111723 73.9680793C139.570721 73.9680793 138.029719 73.7479362 136.708861 73.7479362 134.287287 73.7479362 132.305999 73.9680793 129.664282 73.9680793L129.223996 73.5277931C129.444139 67.3637865 129.444139 61.4199229 129.444139 55.2559163 129.444139 43.1480462 129.444139 30.820033 128.343423 18.932306L128.783709 18.4920198C134.287287 17.8315905 135.828288 17.3913043 140.451293 16.510732L140.89158 17.1711613zM141.331866 50.1926252L142.432581 50.1926252 143.09301 50.1926252C149.917446 49.5321959 149.917446 40.5063291 149.917446 36.7638965 149.917446 34.7826087 149.697303 31.2603192 148.596588 28.6186021 148.376445 28.1783159 147.275729 25.976885 144.854155 25.976885 143.09301 25.976885 141.992295 27.0776004 141.111723 27.9581728 141.111723 36.1034673 141.111723 39.6257567 141.331866 50.1926252L141.331866 50.1926252zM184.259769 55.0357733C182.93891 56.1364887 180.297193 58.9983489 175.233902 58.9983489 169.510182 58.9983489 165.10732 54.5954871 165.10732 46.4501926 165.10732 35.0027518 175.233902 32.3610347 184.259769 30.5998899 184.259769 27.9581728 184.259769 25.0963126 178.756192 25.0963126 173.6929 25.0963126 170.610897 27.0776004 169.069895 28.1783159L168.629609 27.9581728C168.849752 24.4358833 168.849752 23.555311 169.069895 20.2531646L169.510182 19.5927353C173.913043 17.6114474 179.636764 17.1711613 182.498624 17.1711613 185.580627 17.1711613 191.524491 17.6114474 194.386351 22.4545955 196.147496 25.5365988 196.147496 28.8387452 195.927353 35.2228949L195.927353 41.1667584C195.927353 47.5509081 195.927353 51.95377 196.587782 57.8976335L196.147496 58.3379196C191.084205 58.3379196 189.983489 58.3379196 185.360484 58.5580627L184.920198 58.1177766 184.259769 55.0357733zM184.039626 37.6444689C180.737479 38.0847551 175.894331 38.9653275 175.894331 45.1293341 175.894331 48.4314805 177.655476 50.4127683 180.07705 50.4127683 182.278481 50.4127683 183.59934 49.0919097 184.259769 48.4314805L184.259769 37.6444689 184.039626 37.6444689zM206.494221 73.9680793C208.475509 69.5652174 209.135938 66.9235003 211.777655 59.6587782 208.255366 47.5509081 202.091359 27.9581728 198.789213 18.4920198L199.229499 18.0517336C204.733076 18.0517336 205.833792 17.8315905 211.337369 17.6114474L211.997799 18.0517336C212.878371 22.0143093 213.098514 23.3351679 215.079802 31.4804623L217.941662 42.9279031 221.023665 30.5998899C222.564667 25.0963126 222.564667 24.6560264 224.105669 18.2718767L224.545955 17.8315905C228.728674 17.8315905 229.829389 17.8315905 234.012108 17.6114474L234.232251 18.0517336C232.250963 23.9955971 231.810677 25.7567419 227.187672 40.5063291L223.445239 53.0544854C220.363236 63.6213539 219.042378 68.2443588 217.941662 73.7479362L217.501376 74.1882223C212.438085 74.1882223 211.557512 74.1882223 207.154651 74.4083654L206.494221 73.9680793z" transform="translate(156.302 4.403)"/>
    <path fill="#929497" fill-rule="nonzero" d="M38.7451844 1.10071547C35.6631811 1.10071547 33.241607 3.52228949 33.241607 6.60429279 33.241607 9.68629609 35.6631811 12.1078701 38.7451844 12.1078701 41.8271877 12.1078701 44.2487617 9.68629609 44.2487617 6.60429279 44.2487617 3.52228949 41.8271877 1.10071547 38.7451844 1.10071547M12.1078701 12.3280132C9.90643919 14.5294441 9.90643919 18.0517336 12.1078701 20.2531646 14.309301 22.4545955 17.8315905 22.4545955 20.0330215 20.2531646 22.2344524 18.0517336 22.2344524 14.5294441 20.0330215 12.3280132 17.6114474 10.1265823 14.309301 10.1265823 12.1078701 12.3280132M66.7033572 20.2531646C68.9047881 18.0517336 68.9047881 14.5294441 66.7033572 12.3280132 64.5019263 10.1265823 60.9796368 10.1265823 58.7782058 12.3280132 56.5767749 14.5294441 56.5767749 18.0517336 58.7782058 20.2531646 61.1997799 22.2344524 64.7220693 22.2344524 66.7033572 20.2531646M6.1640066 34.1221794C3.0820033 34.1221794.660429279 36.5437534.660429279 39.6257567.660429279 42.70776 3.0820033 45.1293341 6.1640066 45.1293341 9.24600991 45.1293341 11.6675839 42.70776 11.6675839 39.6257567 11.6675839 36.5437534 9.24600991 34.1221794 6.1640066 34.1221794M12.1078701 59.218492C9.90643919 61.4199229 9.90643919 64.9422124 12.1078701 67.1436434 14.309301 69.3450743 17.8315905 69.3450743 20.0330215 67.1436434 22.2344524 64.9422124 22.2344524 61.4199229 20.0330215 59.218492 17.6114474 57.0170611 14.089158 57.0170611 12.1078701 59.218492M39.4056136 67.3637865C36.3236103 67.3637865 33.9020363 69.7853605 33.9020363 72.8673638 33.9020363 75.9493671 36.3236103 78.3709411 39.4056136 78.3709411 42.487617 78.3709411 44.909191 75.9493671 44.909191 72.8673638 44.909191 69.7853605 42.487617 67.3637865 39.4056136 67.3637865M58.9983489 59.218492C56.796918 61.4199229 56.796918 64.9422124 58.9983489 67.1436434 61.1997799 69.3450743 64.7220693 69.3450743 66.9235003 67.1436434 69.1249312 64.9422124 69.1249312 61.4199229 66.9235003 59.218492 64.7220693 57.0170611 61.1997799 57.0170611 58.9983489 59.218492M72.6472207 34.1221794C69.5652174 34.1221794 67.1436434 36.5437534 67.1436434 39.6257567 67.1436434 42.70776 69.5652174 45.1293341 72.6472207 45.1293341 75.729224 45.1293341 78.150798 42.70776 78.150798 39.6257567 78.150798 36.7638965 75.729224 34.1221794 72.6472207 34.1221794" transform="translate(400.66)"/>
    <g fill="#171113" fill-rule="nonzero" transform="translate(0 74.849)">
      <path d="M0 14.5294441L2.64171712 14.5294441C2.64171712 15.4100165 3.0820033 16.0704458 3.74243258 16.7308751 4.40286186 17.3913043 5.50357733 17.6114474 6.60429279 17.6114474 7.70500826 17.6114474 8.58558063 17.3913043 9.466153 16.7308751 10.1265823 16.2905889 10.5668685 15.4100165 10.5668685 14.5294441 10.5668685 13.8690149 10.3467254 13.2085856 9.90643919 12.9884425 9.466153 12.5481563 8.80572372 12.3280132 7.70500826 12.1078701L4.84314805 11.4474408C4.18271877 11.2272977 3.74243258 11.0071547 3.3021464 10.7870116 2.86186021 10.5668685 2.42157402 10.3467254 1.98128784 9.90643919 1.54100165 9.466153 1.32085856 9.02586681 1.10071547 8.58558063.880572372 8.14529444.660429279 7.48486516.660429279 6.82443588.660429279 5.72372042.880572372 4.84314805 1.54100165 3.96257567 2.20143093 3.0820033 2.86186021 2.64171712 3.74243258 2.20143093 4.62300495 1.76114474 5.72372042 1.54100165 6.82443588 1.54100165 7.92515135 1.54100165 9.02586681 1.76114474 9.90643919 2.20143093 10.7870116 2.64171712 11.6675839 3.0820033 12.1078701 3.96257567 12.7682994 4.84314805 12.9884425 5.72372042 12.9884425 6.82443588L10.3467254 6.82443588C10.3467254 5.94386351 9.90643919 5.28343423 9.24600991 4.84314805 8.58558063 4.40286186 7.70500826 3.96257567 6.60429279 3.96257567 5.50357733 3.96257567 4.62300495 4.18271877 3.96257567 4.62300495 3.3021464 5.06329114 3.0820033 5.72372042 3.0820033 6.60429279 3.0820033 7.92515135 3.96257567 8.58558063 5.50357733 9.02586681L8.36543753 9.68629609C9.02586681 9.90643919 9.466153 9.90643919 9.90643919 10.1265823 10.3467254 10.3467254 10.7870116 10.5668685 11.2272977 10.7870116 11.6675839 11.0071547 11.887727 11.4474408 12.1078701 11.6675839 12.3280132 12.1078701 12.5481563 12.3280132 12.7682994 12.7682994 12.9884425 13.2085856 12.9884425 13.6488718 12.9884425 14.309301 12.9884425 16.0704458 12.3280132 17.3913043 11.2272977 18.2718767 9.90643919 19.1524491 8.36543753 19.5927353 6.3841497 19.5927353 5.50357733 19.5927353 4.62300495 19.5927353 3.96257567 19.3725922 3.3021464 19.1524491 2.64171712 18.932306 2.20143093 18.4920198 1.76114474 18.0517336 1.32085856 17.8315905 1.10071547 17.3913043.880572372 16.9510182.440286186 16.510732.440286186 16.0704458.220143093 15.4100165 0 14.9697303 0 14.5294441zM16.2905889 19.3725922L16.2905889 5.72372042 18.932306 5.72372042 18.932306 7.48486516 19.1524491 7.48486516C19.3725922 7.04457898 19.8128784 6.3841497 20.4733076 6.1640066 21.1337369 5.72372042 21.7941662 5.50357733 22.6747386 5.50357733 23.775454 5.50357733 24.4358833 5.72372042 25.0963126 6.1640066 25.7567419 6.60429279 26.1970281 7.04457898 26.4171712 7.70500826L26.6373143 7.70500826C26.8574573 7.04457898 27.2977435 6.60429279 28.1783159 6.1640066 28.8387452 5.72372042 29.7193176 5.50357733 30.820033 5.50357733 32.1408916 5.50357733 33.241607 5.94386351 34.1221794 6.82443588 35.0027518 7.70500826 35.2228949 8.80572372 35.2228949 10.1265823L35.2228949 19.3725922 32.5811778 19.3725922 32.5811778 10.7870116C32.5811778 9.90643919 32.3610347 9.24600991 31.9207485 8.58558063 31.4804623 8.14529444 30.820033 7.70500826 29.9394606 7.70500826 29.0588883 7.70500826 28.398459 7.92515135 27.9581728 8.58558063 27.5178866 9.24600991 27.2977435 9.90643919 27.2977435 10.7870116L27.2977435 19.1524491 24.6560264 19.1524491 24.6560264 10.7870116C24.6560264 9.68629609 24.4358833 9.02586681 23.9955971 8.58558063 23.555311 8.14529444 22.8948817 7.70500826 22.0143093 7.70500826 21.1337369 7.70500826 20.4733076 7.92515135 20.0330215 8.58558063 19.5927353 9.02586681 19.1524491 9.90643919 19.1524491 10.7870116L19.1524491 19.1524491 16.2905889 19.1524491 16.2905889 19.3725922zM46.2300495 17.6114474C45.7897633 18.2718767 45.3494772 18.7121629 44.6890479 19.1524491 44.0286186 19.5927353 43.1480462 19.8128784 42.2674739 19.8128784 40.9466153 19.8128784 39.8458998 19.3725922 38.9653275 18.7121629 38.0847551 18.0517336 37.6444689 16.9510182 37.6444689 15.6301596 37.6444689 14.309301 38.0847551 13.4287287 38.9653275 12.7682994 39.8458998 12.1078701 40.9466153 11.6675839 42.487617 11.6675839L46.0099064 11.6675839 46.0099064 10.1265823C46.0099064 8.58558063 45.1293341 7.92515135 43.3681893 7.92515135 41.8271877 7.92515135 40.9466153 8.58558063 40.7264722 9.90643919L38.3048982 9.90643919C38.3048982 8.58558063 38.7451844 7.70500826 39.6257567 6.82443588 40.5063291 6.1640066 41.8271877 5.72372042 43.3681893 5.72372042 44.909191 5.72372042 46.2300495 6.1640066 47.1106219 6.82443588 47.9911943 7.48486516 48.4314805 8.58558063 48.4314805 10.1265823L48.4314805 19.3725922 46.0099064 19.3725922 46.2300495 17.6114474 46.2300495 17.6114474zM43.1480462 17.3913043C44.0286186 17.3913043 44.6890479 17.1711613 45.3494772 16.510732 46.0099064 16.0704458 46.2300495 15.4100165 46.2300495 14.5294441L46.2300495 13.2085856 43.1480462 13.2085856C42.2674739 13.2085856 41.6070446 13.4287287 41.1667584 13.6488718 40.7264722 14.089158 40.5063291 14.5294441 40.5063291 15.1898734 40.5063291 15.8503027 40.7264722 16.510732 41.1667584 16.7308751 41.8271877 17.3913043 42.487617 17.3913043 43.1480462 17.3913043zM52.6141992 19.3725922L52.6141992 5.72372042 55.2559163 5.72372042 55.2559163 7.48486516 55.2559163 7.48486516C55.4760594 7.26472207 55.4760594 7.04457898 55.6962025 6.82443588 55.9163456 6.60429279 55.9163456 6.3841497 56.3566318 6.1640066 56.5767749 5.94386351 57.0170611 5.72372042 57.2372042 5.72372042 57.6774904 5.50357733 58.1177766 5.50357733 58.5580627 5.50357733L59.4386351 5.50357733 59.4386351 7.92515135 58.3379196 7.92515135C56.3566318 7.92515135 55.2559163 9.02586681 55.2559163 11.2272977L55.2559163 19.3725922 52.6141992 19.3725922zM63.4012108 5.72372042L63.4012108 2.42157402 66.0429279 2.42157402 66.0429279 5.72372042 68.684645 5.72372042 68.684645 7.92515135 66.0429279 7.92515135 66.0429279 15.4100165C66.0429279 16.0704458 66.263071 16.7308751 66.4832141 16.9510182 66.7033572 17.1711613 67.3637865 17.3913043 68.2443588 17.3913043L68.9047881 17.3913043 68.9047881 19.3725922 67.5839296 19.3725922C66.7033572 19.3725922 66.0429279 19.3725922 65.6026417 19.1524491 65.1623555 18.932306 64.7220693 18.7121629 64.2817832 18.4920198 64.0616401 18.0517336 63.841497 17.8315905 63.6213539 17.3913043 63.4012108 16.9510182 63.4012108 16.2905889 63.4012108 15.6301596L63.4012108 7.92515135 61.640066 7.92515135 61.640066 5.72372042 63.4012108 5.72372042 63.4012108 5.72372042zM76.8299395 1.76114474L83.4342323 1.76114474C85.195377 1.76114474 86.5162356 2.20143093 87.616951 3.3021464 88.7176665 4.40286186 89.1579527 5.72372042 89.1579527 7.26472207 89.1579527 9.02586681 88.7176665 10.3467254 87.616951 11.2272977 86.5162356 12.3280132 85.195377 12.7682994 83.4342323 12.7682994L79.4716566 12.7682994 79.4716566 19.1524491 76.8299395 19.1524491 76.8299395 1.76114474zM79.4716566 3.96257567L79.4716566 10.5668685 81.8932306 10.5668685C82.5536599 10.5668685 83.2140892 10.5668685 83.8745184 10.3467254 84.3148046 10.3467254 84.7550908 10.1265823 85.195377 9.90643919 85.6356632 9.68629609 85.8558063 9.24600991 86.0759494 8.80572372 86.2960925 8.36543753 86.2960925 7.70500826 86.2960925 7.04457898 86.2960925 5.94386351 86.0759494 5.06329114 85.4155201 4.62300495 84.7550908 3.96257567 84.0946615 3.74243258 82.9939461 3.74243258L79.4716566 3.74243258 79.4716566 3.96257567zM98.8442488 17.6114474C98.4039626 18.2718767 97.9636764 18.7121629 97.3032471 19.1524491 96.6428178 19.5927353 95.7622455 19.8128784 94.8816731 19.8128784 93.5608145 19.8128784 92.4600991 19.3725922 91.5795267 18.7121629 90.6989543 18.0517336 90.2586681 16.9510182 90.2586681 15.6301596 90.2586681 14.309301 90.6989543 13.4287287 91.5795267 12.7682994 92.4600991 12.1078701 93.5608145 11.6675839 95.1018162 11.6675839L98.6241057 11.6675839 98.6241057 10.1265823C98.6241057 8.58558063 97.7435333 7.92515135 95.9823886 7.92515135 94.4413869 7.92515135 93.5608145 8.58558063 93.3406714 9.90643919L90.9190974 9.90643919C90.9190974 8.58558063 91.3593836 7.70500826 92.239956 6.82443588 93.1205283 6.1640066 94.4413869 5.72372042 95.9823886 5.72372042 97.5233902 5.72372042 98.8442488 6.1640066 99.7248211 6.82443588 100.605394 7.48486516 101.04568 8.58558063 101.04568 10.1265823L101.04568 19.3725922 98.6241057 19.3725922 98.8442488 17.6114474 98.8442488 17.6114474zM95.7622455 17.3913043C96.6428178 17.3913043 97.3032471 17.1711613 97.9636764 16.510732 98.6241057 16.0704458 98.8442488 15.4100165 98.8442488 14.5294441L98.8442488 13.2085856 95.7622455 13.2085856C94.8816731 13.2085856 94.2212438 13.4287287 93.7809576 13.6488718 93.3406714 14.089158 93.1205283 14.5294441 93.1205283 15.1898734 93.1205283 15.8503027 93.3406714 16.510732 93.7809576 16.7308751 94.4413869 17.3913043 94.8816731 17.3913043 95.7622455 17.3913043zM116.235553 5.72372042C113.15355 14.7495872 111.612548 19.1524491 111.612548 19.1524491L111.172262 20.0330215C110.952119 20.4733076 110.731976 20.9135938 110.731976 21.35388 110.731976 21.7941662 110.29169 22.0143093 110.071547 22.4545955 109.851403 22.8948817 109.411117 23.1150248 109.190974 23.3351679 108.970831 23.555311 108.530545 23.775454 108.090259 23.9955971 107.649972 24.2157402 106.989543 24.2157402 106.549257 24.2157402 106.108971 24.2157402 105.448542 24.2157402 105.008255 23.9955971L105.008255 22.0143093 106.108971 22.0143093C106.989543 22.0143093 107.429829 21.7941662 107.870116 21.5740231 108.310402 21.1337369 108.530545 20.6934507 108.750688 20.0330215L108.970831 19.3725922 104.127683 5.72372042 106.989543 5.72372042 110.29169 16.7308751 110.511833 16.7308751 114.034122 5.72372042 116.235553 5.72372042zM118.657127 19.3725922L118.657127 5.72372042 121.298844 5.72372042 121.298844 7.48486516 121.518987 7.48486516C121.73913 7.04457898 122.179417 6.3841497 122.839846 6.1640066 123.500275 5.72372042 124.160704 5.50357733 125.041277 5.50357733 126.141992 5.50357733 126.802422 5.72372042 127.462851 6.1640066 128.12328 6.60429279 128.563566 7.04457898 128.783709 7.70500826L129.003853 7.70500826C129.223996 7.04457898 129.664282 6.60429279 130.544854 6.1640066 131.205283 5.72372042 132.085856 5.50357733 133.186571 5.50357733 134.50743 5.50357733 135.608145 5.94386351 136.488718 6.82443588 137.36929 7.70500826 137.589433 8.80572372 137.589433 10.1265823L137.589433 19.3725922 134.947716 19.3725922 134.947716 10.7870116C134.947716 9.90643919 134.727573 9.24600991 134.287287 8.58558063 133.847001 8.14529444 133.186571 7.70500826 132.305999 7.70500826 131.425427 7.70500826 130.764997 7.92515135 130.324711 8.58558063 129.884425 9.24600991 129.664282 9.90643919 129.664282 10.7870116L129.664282 19.1524491 127.022565 19.1524491 127.022565 10.7870116C127.022565 9.68629609 126.802422 9.02586681 126.362135 8.58558063 125.921849 8.14529444 125.26142 7.70500826 124.380848 7.70500826 123.500275 7.70500826 122.839846 7.92515135 122.39956 8.58558063 121.959274 9.02586681 121.518987 9.90643919 121.518987 10.7870116L121.518987 19.1524491 118.657127 19.1524491 118.657127 19.3725922zM146.395157 19.5927353C144.413869 19.5927353 143.09301 18.932306 141.992295 17.8315905 140.89158 16.7308751 140.451293 15.1898734 140.451293 13.2085856L140.451293 12.1078701C140.451293 10.1265823 140.89158 8.58558063 141.992295 7.48486516 143.09301 6.3841497 144.413869 5.72372042 146.175014 5.72372042 147.936159 5.72372042 149.47716 6.3841497 150.357733 7.48486516 151.238305 8.58558063 151.898734 10.1265823 151.898734 12.1078701L151.898734 13.2085856 143.09301 13.2085856 143.09301 13.6488718C143.09301 14.7495872 143.313154 15.6301596 143.973583 16.510732 144.634012 17.1711613 145.294441 17.6114474 146.395157 17.6114474 147.275729 17.6114474 147.936159 17.3913043 148.376445 17.1711613 148.816731 16.7308751 149.036874 16.2905889 149.257017 15.8503027L151.898734 15.8503027C151.898734 16.2905889 151.678591 16.7308751 151.458448 17.1711613 151.238305 17.6114474 151.018162 18.0517336 150.577876 18.4920198 150.137589 18.932306 149.697303 19.1524491 149.036874 19.5927353 147.936159 19.3725922 147.275729 19.5927353 146.395157 19.5927353zM143.09301 11.2272977L149.47716 11.2272977 149.47716 11.2272977C149.47716 10.1265823 149.257017 9.24600991 148.596588 8.58558063 147.936159 7.92515135 147.275729 7.48486516 146.395157 7.48486516 145.514584 7.48486516 144.634012 7.92515135 144.193726 8.58558063 143.75344 9.24600991 143.09301 10.1265823 143.09301 11.2272977L143.09301 11.2272977zM154.980737 19.3725922L154.980737 5.72372042 157.622455 5.72372042 157.622455 7.48486516 157.622455 7.48486516C157.842598 6.82443588 158.282884 6.3841497 158.943313 5.94386351 159.603742 5.50357733 160.484315 5.28343423 161.364887 5.28343423 162.685746 5.28343423 164.006604 5.72372042 164.887177 6.60429279 165.767749 7.48486516 166.208035 8.58558063 166.208035 10.1265823L166.208035 19.1524491 163.566318 19.1524491 163.566318 11.0071547C163.566318 8.80572372 162.465603 7.70500826 160.484315 7.70500826 159.383599 7.70500826 158.72317 7.92515135 158.282884 8.58558063 157.842598 9.24600991 157.402312 10.1265823 157.402312 11.2272977L157.402312 19.1524491 154.980737 19.1524491 154.980737 19.3725922zM170.610897 5.72372042L170.610897 2.42157402 173.252614 2.42157402 173.252614 5.72372042 175.894331 5.72372042 175.894331 7.92515135 173.252614 7.92515135 173.252614 15.4100165C173.252614 16.0704458 173.472757 16.7308751 173.6929 16.9510182 173.913043 17.1711613 174.573473 17.3913043 175.454045 17.3913043L176.114474 17.3913043 176.114474 19.3725922 174.793616 19.3725922C173.913043 19.3725922 173.252614 19.3725922 172.812328 19.1524491 172.372042 18.932306 171.931756 18.7121629 171.491469 18.4920198 171.051183 18.2718767 171.051183 17.8315905 170.83104 17.3913043 170.610897 16.9510182 170.610897 16.2905889 170.610897 15.6301596L170.610897 7.92515135 168.849752 7.92515135 168.849752 5.72372042 170.610897 5.72372042 170.610897 5.72372042zM182.93891 14.5294441L185.580627 14.5294441C185.580627 15.4100165 186.020914 16.0704458 186.681343 16.7308751 187.341772 17.3913043 188.442488 17.6114474 189.543203 17.6114474 190.643919 17.6114474 191.524491 17.3913043 192.405063 16.7308751 193.065493 16.2905889 193.505779 15.4100165 193.505779 14.5294441 193.505779 13.8690149 193.285636 13.2085856 192.845349 12.9884425 192.405063 12.5481563 191.744634 12.3280132 190.643919 12.1078701L187.782058 11.4474408C187.121629 11.2272977 186.681343 11.0071547 186.241057 10.7870116 185.800771 10.5668685 185.360484 10.3467254 184.920198 9.90643919 184.479912 9.466153 184.259769 9.02586681 184.039626 8.58558063 183.819483 8.14529444 183.59934 7.48486516 183.59934 6.82443588 183.59934 5.72372042 183.819483 4.84314805 184.479912 3.96257567 185.140341 3.0820033 185.800771 2.64171712 186.681343 2.20143093 187.561915 1.76114474 188.662631 1.54100165 189.763346 1.54100165 190.864062 1.54100165 191.964777 1.76114474 192.845349 2.20143093 193.725922 2.64171712 194.606494 3.0820033 195.04678 3.96257567 195.70721 4.84314805 195.927353 5.72372042 195.927353 6.82443588L193.285636 6.82443588C193.285636 5.94386351 192.845349 5.28343423 192.18492 4.84314805 191.524491 4.40286186 190.643919 3.96257567 189.543203 3.96257567 188.442488 3.96257567 187.561915 4.18271877 186.901486 4.62300495 186.241057 5.06329114 186.020914 5.72372042 186.020914 6.60429279 186.020914 7.92515135 186.901486 8.58558063 188.442488 9.02586681L191.304348 9.68629609C191.964777 9.90643919 192.405063 9.90643919 192.845349 10.1265823 193.285636 10.3467254 193.725922 10.5668685 194.166208 10.7870116 194.606494 11.0071547 194.826637 11.4474408 195.04678 11.6675839 195.266924 12.1078701 195.487067 12.3280132 195.70721 12.7682994 195.927353 13.2085856 195.927353 13.6488718 195.927353 14.309301 195.927353 16.0704458 195.266924 17.3913043 194.166208 18.2718767 192.845349 19.1524491 191.304348 19.5927353 189.32306 19.5927353 188.442488 19.5927353 187.561915 19.5927353 186.901486 19.3725922 186.241057 19.1524491 185.580627 18.932306 185.140341 18.4920198 184.700055 18.0517336 184.259769 17.8315905 184.039626 17.3913043 183.819483 16.9510182 183.379196 16.510732 183.379196 16.0704458 182.93891 15.4100165 182.93891 14.9697303 182.93891 14.5294441zM204.29279 19.5927353C202.311502 19.5927353 200.990644 18.932306 199.889928 17.8315905 198.789213 16.7308751 198.348927 15.1898734 198.348927 13.2085856L198.348927 12.1078701C198.348927 10.1265823 198.789213 8.58558063 199.889928 7.48486516 200.990644 6.3841497 202.311502 5.72372042 204.072647 5.72372042 205.833792 5.72372042 207.374794 6.3841497 208.255366 7.48486516 209.135938 8.58558063 209.796368 10.1265823 209.796368 12.1078701L209.796368 13.2085856 200.990644 13.2085856 200.990644 13.6488718C200.990644 14.7495872 201.210787 15.6301596 201.871216 16.510732 202.531646 17.1711613 203.192075 17.6114474 204.29279 17.6114474 205.173363 17.6114474 205.833792 17.3913043 206.274078 17.1711613 206.714364 16.7308751 206.934507 16.2905889 207.154651 15.8503027L209.796368 15.8503027C209.796368 16.2905889 209.576225 16.7308751 209.356081 17.1711613 209.135938 17.6114474 208.915795 18.0517336 208.475509 18.4920198 208.035223 18.932306 207.594937 19.1524491 206.934507 19.5927353 205.833792 19.3725922 205.173363 19.5927353 204.29279 19.5927353zM200.990644 11.2272977L207.374794 11.2272977 207.374794 11.2272977C207.374794 10.1265823 207.154651 9.24600991 206.494221 8.58558063 205.833792 7.92515135 205.173363 7.48486516 204.29279 7.48486516 203.412218 7.48486516 202.531646 7.92515135 202.091359 8.58558063 201.651073 9.24600991 200.990644 10.1265823 200.990644 11.2272977L200.990644 11.2272977zM213.098514 19.3725922L213.098514 5.72372042 215.740231 5.72372042 215.740231 7.48486516 215.740231 7.48486516C215.960374 7.26472207 215.960374 7.04457898 216.180517 6.82443588 216.40066 6.60429279 216.40066 6.3841497 216.840947 6.1640066 217.06109 5.94386351 217.501376 5.72372042 217.721519 5.72372042 218.161805 5.50357733 218.602091 5.50357733 219.042378 5.50357733L219.92295 5.50357733 219.92295 7.92515135 218.822234 7.92515135C216.840947 7.92515135 215.740231 9.02586681 215.740231 11.2272977L215.740231 19.3725922 213.098514 19.3725922z"/>
      <polygon points="225.647 19.373 221.024 5.724 223.886 5.724 226.968 16.731 226.968 16.731 230.49 5.724 233.132 5.724 228.288 19.373"/>
      <path d="M235.993396 3.52228949C235.773253 3.3021464 235.55311 2.86186021 235.55311 2.42157402 235.55311 1.98128784 235.773253 1.54100165 235.993396 1.32085856 236.213539 1.10071547 236.653825.880572372 237.094111.880572372 237.534397.880572372 237.974684 1.10071547 238.194827 1.32085856 238.41497 1.54100165 238.635113 1.98128784 238.635113 2.42157402 238.635113 2.86186021 238.41497 3.3021464 238.194827 3.52228949 237.974684 3.74243258 237.534397 3.96257567 237.094111 3.96257567 236.653825 3.96257567 236.213539 3.74243258 235.993396 3.52228949zM235.773253 19.3725922L235.773253 5.72372042 238.41497 5.72372042 238.41497 19.3725922 235.773253 19.3725922zM241.717116 13.2085856L241.717116 11.6675839C241.717116 9.90643919 242.157402 8.36543753 243.258118 7.26472207 244.358833 6.1640066 245.679692 5.50357733 247.440837 5.50357733 248.981838 5.50357733 250.302697 5.94386351 251.183269 6.82443588 252.063841 7.70500826 252.504128 8.80572372 252.724271 9.90643919L250.302697 9.90643919C250.302697 9.24600991 249.862411 8.80572372 249.422124 8.36543753 248.981838 7.92515135 248.321409 7.70500826 247.440837 7.70500826 246.340121 7.70500826 245.679692 8.14529444 245.019263 8.80572372 244.578976 9.68629609 244.13869 10.5668685 244.13869 11.887727L244.13869 13.2085856C244.13869 14.309301 244.358833 15.4100165 245.019263 16.0704458 245.679692 16.7308751 246.340121 17.1711613 247.440837 17.1711613 248.321409 17.1711613 248.981838 16.9510182 249.422124 16.7308751 249.862411 16.2905889 250.302697 15.8503027 250.302697 15.4100165L252.724271 15.4100165C252.724271 16.510732 252.063841 17.6114474 251.183269 18.2718767 250.302697 19.1524491 248.981838 19.5927353 247.440837 19.5927353 245.679692 19.5927353 244.13869 18.932306 243.258118 17.8315905 242.157402 16.7308751 241.717116 15.1898734 241.717116 13.2085856zM261.089708 19.5927353C259.10842 19.5927353 257.787562 18.932306 256.686846 17.8315905 255.586131 16.7308751 255.145845 15.1898734 255.145845 13.2085856L255.145845 12.1078701C255.145845 10.1265823 255.586131 8.58558063 256.686846 7.48486516 257.787562 6.3841497 259.10842 5.72372042 260.869565 5.72372042 262.63071 5.72372042 264.171712 6.3841497 265.052284 7.48486516 265.932856 8.58558063 266.593286 10.1265823 266.593286 12.1078701L266.593286 13.2085856 257.787562 13.2085856 257.787562 13.6488718C257.787562 14.7495872 258.007705 15.6301596 258.668134 16.510732 259.328564 17.1711613 259.988993 17.6114474 261.089708 17.6114474 261.970281 17.6114474 262.63071 17.3913043 263.070996 17.1711613 263.511282 16.7308751 263.731425 16.2905889 263.951569 15.8503027L266.593286 15.8503027C266.593286 16.2905889 266.373143 16.7308751 266.152999 17.1711613 265.932856 17.6114474 265.712713 18.0517336 265.272427 18.4920198 264.832141 18.932306 264.391855 19.1524491 263.731425 19.5927353 262.63071 19.3725922 261.970281 19.5927353 261.089708 19.5927353zM257.787562 11.2272977L264.171712 11.2272977 264.171712 11.2272977C264.171712 10.1265823 263.951569 9.24600991 263.291139 8.58558063 262.63071 7.92515135 261.970281 7.48486516 261.089708 7.48486516 260.209136 7.48486516 259.328564 7.92515135 258.888277 8.58558063 258.447991 9.24600991 257.787562 10.1265823 257.787562 11.2272977L257.787562 11.2272977zM269.01486 9.68629609C269.01486 9.02586681 269.235003 8.36543753 269.455146 7.92515135 269.675289 7.48486516 270.115575 7.04457898 270.555861 6.60429279 270.996147 6.3841497 271.656577 5.94386351 272.096863 5.94386351 272.757292 5.72372042 273.417722 5.72372042 274.078151 5.72372042 275.619152 5.72372042 276.940011 6.1640066 277.60044 6.82443588 278.481013 7.48486516 278.921299 8.58558063 278.921299 9.68629609L276.499725 9.68629609C276.499725 9.02586681 276.279582 8.58558063 275.839296 8.14529444 275.399009 7.70500826 274.73858 7.48486516 273.858008 7.48486516 272.977435 7.48486516 272.537149 7.70500826 272.096863 7.92515135 271.656577 8.14529444 271.436434 8.80572372 271.436434 9.466153 271.436434 9.68629609 271.436434 9.90643919 271.656577 10.1265823 271.87672 10.3467254 271.87672 10.5668685 272.096863 10.5668685 272.317006 10.7870116 272.537149 10.7870116 272.757292 11.0071547 273.197578 11.2272977 273.417722 11.2272977 273.417722 11.2272977 273.637865 11.2272977 273.858008 11.2272977 274.298294 11.4474408L274.518437 11.4474408 274.518437 11.4474408 274.73858 11.4474408C275.399009 11.4474408 275.839296 11.6675839 276.279582 11.6675839 276.719868 11.887727 277.160154 11.887727 277.60044 12.1078701 278.040726 12.3280132 278.26087 12.5481563 278.701156 12.7682994 278.921299 12.9884425 279.141442 13.4287287 279.361585 13.6488718 279.581728 14.089158 279.581728 14.5294441 279.581728 14.9697303 279.581728 16.2905889 279.141442 17.3913043 278.040726 18.0517336 277.160154 18.7121629 275.619152 19.1524491 274.078151 19.1524491 272.537149 19.1524491 271.216291 18.7121629 270.335718 18.0517336 269.455146 17.3913043 269.01486 16.2905889 269.01486 15.1898734L271.436434 15.1898734C271.436434 15.8503027 271.87672 16.2905889 272.317006 16.7308751 272.757292 17.1711613 273.417722 17.1711613 274.298294 17.1711613 275.178866 17.1711613 276.059439 16.9510182 276.499725 16.510732 276.940011 16.0704458 277.160154 15.6301596 277.160154 14.9697303 277.160154 14.309301 276.719868 13.8690149 276.059439 13.4287287 275.619152 13.2085856 274.958723 12.9884425 273.858008 12.7682994 273.197578 12.5481563 272.757292 12.5481563 272.317006 12.3280132 271.87672 12.3280132 271.436434 12.1078701 270.996147 11.887727 270.555861 11.6675839 270.335718 11.4474408 269.895432 11.2272977 269.675289 11.0071547 269.455146 10.5668685 269.235003 10.3467254 269.01486 10.5668685 269.01486 10.1265823 269.01486 9.68629609z"/>
    </g>
  </g>
</svg>
