<svg height="360" viewBox="0 0 640 360" width="640" xmlns="http://www.w3.org/2000/svg"><g fill="#fff" transform="matrix(.59122402 0 0 .59122402 63.999999 136.24942)"><path d="m152 40.00642h22.79314l21.96915 54.18506 21.42-54.18506h22.51857v77.99358h-18.94856v-46.79632l-17.57545 46.79632h-15.37828l-17.30084-47.06989v47.06989h-19.49773z"/><path d="m311.82571 117.99914h-18.94711v-8.48361c-4.42834 5.81644-11.36588 9.17128-18.67487 9.03075-14.28 0-24.16628-9.85176-24.16628-26.54511v-36.12327h18.94853v33.93383c0 8.48361 4.66858 13.13577 11.80859 13.13577 7.41455 0 12.08401-4.65216 12.08401-13.13577v-33.93383h18.94711v62.12124z"/><path d="m321.16284 35.90228h18.95001v82.09772h-18.95001z"/><path d="m352.46857 71.5h-7.68857v-15.62123h7.68857v-15.87235h18.95001v15.87235h12.35568v15.59877h-12.08286v25.177c0 3.55758 1.64856 5.19958 5.76715 5.19958h6.86716v16.14588h-9.61288c-12.90714 0-21.96857-5.47316-21.96857-21.61936v-24.88064z"/><path d="m388.71713 39.45928c0-5.747 4.67004-10.39918 11.26147-10.39918 6.5885 0 11.25854 4.65216 11.25854 10.39918 0 5.74673-4.67004 10.12561-11.25854 10.12561-6.86718 0-11.26147-4.65245-11.26147-10.12561zm1.64862 16.41977h18.95001v62.12124h-18.95001z"/><path d="m447.48572 118.82188c-16.75 0-30.20569-8.20975-30.75714-24.35595h20.32288c.54855 6.02059 4.39432 8.75717 9.60999 8.75717 5.49429 0 9.06433-2.73658 9.06433-7.38874 0-14.5042-39.26999-6.568-38.99719-34.48156 0-14.77777 12.08282-23.26108 28.83572-23.26108 17.0257 0 28.83572 8.48331 29.38431 23.53494h-20.59573c-.27573-4.926-3.84573-7.93646-9.06433-8.21-4.66714 0-7.96429 2.18944-7.96429 7.11517 0 13.40962 38.72147 7.389 38.72147 33.66055-.00006 13.68317-10.43432 24.6295-28.56002 24.6295z"/><path d="m507.07858 55.05835c9.33713 0 15.65286 4.105 19.22287 9.57817v-8.75717h18.94714v62.12153h-18.94714v-8.75718c-3.57001 5.47316-9.88574 9.57818-19.22284 9.57818-15.10428 0-27.46286-12.31506-27.46286-32.29213-.27289-19.15635 12.08283-31.4714 27.46283-31.4714zm5.49143 16.41977c-7.14001 0-13.45572 5.19959-13.45572 15.05163 0 9.85175 6.31573 15.32492 13.45572 15.32492 7.13995 0 13.45569-5.47317 13.45569-15.32492 0-9.57818-6.31568-15.05163-13.45569-15.05163z"/><path d="m556.50708 71.5h-6.86426v-15.62123h6.86426v-1.642c0-16.14592 9.88861-24.35583 29.11145-23.53486v16.41968c-7.41571-.54743-9.88568 1.642-9.88568 8.21v.54715h10.15857v15.5988h-10.15851v46.52246h-18.95001v-46.5z"/><path d="m618.02142 118.821c-18.1228 0-31.57849-12.31475-31.57849-32.01855 0-19.7035 12.9071-32.01826 31.57849-32.01826 18.12579 0 31.0329 12.0409 31.0329 30.92369.0391 1.82864-.0531 3.65771-.27576 5.47316h-43.38855c.54852 8.21 5.76715 11.76763 11.80713 11.76763 4.21191.18341 8.11774-2.19461 9.88861-6.0206h20.32001c-2.47003 12.58833-13.45575 21.89293-29.38434 21.89293zm-12.35571-37.76528h24.16571c0-6.8416-5.21863-10.67275-11.5343-10.67275-6.59143.00003-11.53424 3.55758-12.63141 10.67275z"/><path d="m693.26715 55.05835c15.10431 0 27.73572 12.31505 27.73572 32.01854 0 19.42993-12.08282 32.29213-27.73572 32.29213-9.0614 0-15.65283-4.37859-19.22284-9.57818v38.20916h-18.95001v-92.12065h18.95001v8.75717c3.56995-5.47316 10.16144-9.57817 19.22284-9.57817zm-5.76715 16.41977c-7.14001 0-13.45569 5.47345-13.45569 15.3252s6.31567 15.32492 13.45569 15.32492 13.73145-5.47317 13.73145-15.32492-6.59144-15.3252-13.73145-15.3252z"/><path d="m752.03571 55.05835c9.33716 0 15.65289 4.105 19.2229 9.57817v-8.75717h18.94708v62.12153h-18.94708v-8.75718c-3.57001 5.47316-9.88574 9.57818-19.2229 9.57818-15.10425 0-27.46283-12.31506-27.46283-32.29213.27569-19.15635 12.35858-31.4714 27.46283-31.4714zm6.03997 16.41977c-7.14008 0-13.45575 5.19959-13.45575 15.05163 0 9.85175 6.31567 15.32492 13.45575 15.32492 7.14001 0 13.45569-5.47317 13.45569-15.32492 0-9.57818-6.31567-15.05163-13.45563-15.05163z"/><path d="m845.4043 55.8779h20.5957l-39.18292 91.18219h-20.31708l14.19006-30.97655-25.69006-60.20854h21.14722l14.42859 39.13632z"/><path d="m118 98.8129-118-98.8129v118h118z"/><path d="m118 0-54.70906 45.77531 54.70906 45.7756z"/></g></svg>