<svg height="360" viewBox="0 0 640 360" width="640" xmlns="http://www.w3.org/2000/svg"><g transform="matrix(.59122402 0 0 .59122402 63.999999 136.24942)"><path d="m152 40.00642h22.79314l21.96915 54.18506 21.42-54.18506h22.51857v77.99358h-18.94857v-46.79632l-17.57544 46.79632h-15.37828l-17.30085-47.06989v47.06989h-19.49772z" fill="#00abee"/><path d="m311.82571 117.99914h-18.94712v-8.48361a22.91767 22.91767 0 0 1 -18.67488 9.03075c-14.28 0-24.16628-9.85176-24.16628-26.54511v-36.12327h18.94857v33.93383c0 8.48361 4.66857 13.13577 11.80859 13.13577 7.41456 0 12.084-4.65216 12.084-13.13577v-33.93383h18.94712z" fill="#00abee"/><path d="m321.16285 35.90228h18.95v82.09772h-18.95z" fill="#00abee"/><path d="m352.46856 71.5h-7.68856v-15.62123h7.68857v-15.87235h18.95v15.87235h12.35568v15.59877h-12.08283v25.177c0 3.55758 1.64856 5.19958 5.76714 5.19958h6.86717v16.14588h-9.61287c-12.90714 0-21.96856-5.47316-21.96856-21.61936v-24.88064z" fill="#00abee"/><path d="m388.71712 39.45928c0-5.747 4.67005-10.39918 11.26148-10.39918 6.5885 0 11.25855 4.65216 11.25855 10.39918 0 5.74673-4.67005 10.12561-11.25855 10.12561-6.86717 0-11.26148-4.65245-11.26148-10.12561zm1.64861 16.41977h18.95v62.12124h-18.95z" fill="#00abee"/><g fill="#004a71"><path d="m447.48571 118.82188c-16.75 0-30.20568-8.20975-30.75715-24.35595h20.32287c.54855 6.02059 4.39432 8.75717 9.61 8.75717 5.49429 0 9.06432-2.73658 9.06432-7.38874 0-14.5042-39.27-6.568-38.99718-34.48156 0-14.77777 12.08284-23.26108 28.83572-23.26108 17.0257 0 28.83573 8.48331 29.38432 23.53494h-20.59574c-.27574-4.926-3.84572-7.93646-9.06432-8.21-4.66713 0-7.9643 2.18944-7.9643 7.11517 0 13.40962 38.72145 7.389 38.72145 33.66055 0 13.68317-10.43428 24.6295-28.55999 24.6295z"/><path d="m507.07858 55.05835c9.33713 0 15.65287 4.105 19.22285 9.57817v-8.75717h18.94713v62.12153h-18.94713v-8.75718c-3.57 5.47316-9.88572 9.57818-19.22285 9.57818-15.10428 0-27.46285-12.31506-27.46285-32.29213-.27286-19.15635 12.08284-31.4714 27.46285-31.4714zm5.49142 16.41977c-7.14 0-13.45571 5.19959-13.45571 15.05163 0 9.85175 6.31573 15.32492 13.45571 15.32492s13.4557-5.47317 13.4557-15.32492c0-9.57818-6.3157-15.05163-13.4557-15.05163z"/><path d="m556.50711 71.5h-6.86424v-15.62123h6.86424v-1.642c0-16.14592 9.8886-24.35583 29.11146-23.53486v16.41968c-7.41571-.54743-9.88568 1.642-9.88568 8.21v.54715h10.15854v15.5988h-10.15854v46.52246h-18.95v-46.5z"/><path d="m618.0214 118.821c-18.12283 0-31.5785-12.31475-31.5785-32.01855 0-19.7035 12.90712-32.01826 31.5785-32.01826 18.12577 0 31.03289 12.0409 31.03289 30.92369a38.25284 38.25284 0 0 1 -.27574 5.47316h-43.38855c.54855 8.21 5.76714 11.76763 11.8071 11.76763a10.398 10.398 0 0 0 9.8886-6.0206h20.32c-2.46995 12.58833-13.4557 21.89293-29.3843 21.89293zm-12.35569-37.76528h24.16572c0-6.8416-5.2186-10.67275-11.53429-10.67275-6.59143.00003-11.53429 3.55758-12.63143 10.67275z"/><path d="m693.26714 55.05835c15.10428 0 27.73571 12.31505 27.73571 32.01854 0 19.42993-12.08284 32.29213-27.73571 32.29213-9.06139 0-15.65286-4.37859-19.22285-9.57818v38.20916h-18.95v-92.12065h18.95v8.75717c3.56999-5.47316 10.16146-9.57817 19.22285-9.57817zm-5.76714 16.41977c-7.14 0-13.45571 5.47345-13.45571 15.3252s6.31571 15.32492 13.45571 15.32492 13.73145-5.47317 13.73145-15.32492-6.59145-15.3252-13.73145-15.3252z"/><path d="m752.03569 55.05835c9.33718 0 15.65287 4.105 19.2229 9.57817v-8.75717h18.94708v62.12153h-18.94708v-8.75718c-3.57 5.47316-9.88572 9.57818-19.2229 9.57818-15.10423 0-27.46285-12.31506-27.46285-32.29213.27573-19.15635 12.35862-31.4714 27.46285-31.4714zm6.04 16.41977c-7.14006 0-13.45575 5.19959-13.45575 15.05163 0 9.85175 6.31569 15.32492 13.45575 15.32492 7.14 0 13.45567-5.47317 13.45567-15.32492.00004-9.57818-6.31565-15.05163-13.45563-15.05163z"/><path d="m845.40427 55.8779h20.59573l-39.18293 91.1822h-20.31707l14.19005-30.97655-25.69005-60.20855h21.1472l14.42857 39.13632z"/></g><path d="m118 98.8129-118-98.8129v118h118z" fill="#00abee"/><path d="m118 0-54.70906 45.77531 54.70906 45.7756z" fill="#004a71"/></g></svg>