<?xml version="1.0" encoding="UTF-8" standalone="no"?>
<svg
   height="360"
   viewBox="0 0 640 360"
   width="640"
   version="1.1"
   id="svg1150"
   sodipodi:docname="provider-multisafepay-white-640x360.svg"
   inkscape:version="1.1.2 (b8e25be8, 2022-02-05)"
   xmlns:inkscape="http://www.inkscape.org/namespaces/inkscape"
   xmlns:sodipodi="http://sodipodi.sourceforge.net/DTD/sodipodi-0.dtd"
   xmlns="http://www.w3.org/2000/svg"
   xmlns:svg="http://www.w3.org/2000/svg">
  <defs
     id="defs1154" />
  <sodipodi:namedview
     id="namedview1152"
     pagecolor="#ffffff"
     bordercolor="#666666"
     borderopacity="1.0"
     inkscape:pageshadow="2"
     inkscape:pageopacity="0.0"
     inkscape:pagecheckerboard="0"
     showgrid="false"
     inkscape:zoom="1.9203125"
     inkscape:cx="320"
     inkscape:cy="180.17901"
     inkscape:window-width="1898"
     inkscape:window-height="1134"
     inkscape:window-x="2962"
     inkscape:window-y="469"
     inkscape:window-maximized="0"
     inkscape:current-layer="svg1150" />
  <g
     fill="none"
     fill-rule="nonzero"
     transform="translate(80 130)"
     id="g1148"
     style="fill:#ffffff">
    <path
       d="m27.0776004 40.7264722 4.8431481-21.1337369c1.5410016-5.9438635 1.7611447-7.2647221 2.8618602-12.76829942l.4402862-.44028618c6.3841497 0 8.3654375 0 15.8503027-.2201431l.4402862.44028619c0 6.38414971.2201431 7.92515131.4402862 16.29058891l.4402861 11.887727c.6604293 14.309301.8805724 17.6114474 1.3208586 25.0963126l-.4402862.4402862c-5.7237204 0-7.4848652 0-11.887727.2201431l-.4402862-.4402862c0-9.466153 0-10.7870116-.2201431-21.35388l-.2201431-20.4733077-5.7237204 24.8761695c-1.9812878 8.3654376-2.6417171 12.3280132-3.5222895 16.7308751l-.4402862.4402862c-3.9625757 0-5.2834342 0-9.2460099.2201431l-.4402862-.4402862c-1.1007154-4.8431481-2.421574-10.7870116-3.5222895-16.0704458l-5.7237204-25.0963126-.4402862 17.6114474c-.4402861 15.8503027-.4402861 17.6114475-.4402861 23.3351679l-.4402862.4402862c-4.1827188 0-5.50357736 0-9.90643922.2201431l-.44028619-.4402862c.66042928-12.5481563.66042928-13.8690149 1.32085856-22.2344524l.66042928-16.7308751c.22014309-7.264722.22014309-10.7870115.44028619-14.30930102l.44028618-.44028618c6.82443589 0 8.8057237 0 16.2905889-.2201431l.4402862.44028619c.8805723 3.96257571.8805723 4.18271881 2.6417171 12.32801321zm52.6141993 15.4100165c-2.201431 2.2014309-5.5035774 5.0632912-10.5668685 5.0632912-8.1452944 0-9.0258668-7.4848652-9.2460099-9.2460099-.2201431-2.201431-.2201431-4.8431481-.2201431-9.24601v-3.9625756c0-11.0071547 0-12.7682994-.2201431-18.0517337l.4402862-.4402861c4.843148 0 5.9438635 0 11.2272977-.4402862l.4402862.4402862c0 2.6417171-.2201431 15.6301596-.2201431 18.7121629 0 1.7611447 0 8.1452944.2201431 9.466153 0 .8805723.4402862 3.5222895 3.7424326 3.5222895 2.2014309 0 3.3021464-1.3208586 4.4028619-2.201431v-6.1640066c0-1.5410016-.2201431-16.510732-.4402862-22.6747386l.4402862-.4402862c5.0632911 0 6.3841497-.220143 11.2272977-.4402861l.4402862.4402861c0 4.8431481-.2201431 7.4848652-.2201431 14.7495873v15.8503027c0 4.1827187.2201431 7.044579.2201431 9.2460099l-.4402862.4402862c-5.5035773 0-6.3841497 0-11.0071546.2201431l-.4402862-.2201431zm30.3797473 4.1827188c-5.063292 0-6.38415 0-11.8877275.2201431l-.4402862-.4402862c.2201431-4.8431481.2201431-9.9064392.2201431-20.6934508v-20.9135938c-.2201431-7.7050082-.4402862-10.12658227-.6604293-13.86901485l.4402862-.44028618c5.0632907-.88057237 7.0445787-1.10071547 11.6675837-2.20143093l.440286.44028618v13.64887178c0 2.421574 0 19.5927353.220144 29.7193175.220143 6.8244359.220143 10.5668685.440286 14.089158zm24.435883-31.7006054h-5.283434v9.6862961 6.8244359c0 3.9625756 0 7.7050082 3.522289 7.7050082 1.320859 0 1.981288-.4402862 2.421574-.6604293l.440286.4402862c-.220143 3.3021464-.220143 3.9625757-.440286 7.4848652l-.440286.6604293c-1.761145.4402862-3.962576.6604292-6.164007.6604292-1.761144 0-6.384149 0-9.025866-3.5222894-1.981288-2.6417172-1.981288-5.9438635-1.761145-11.4474409v-4.6230049-13.4287287c-1.320859 0-2.201431 0-3.742433.2201431l-.440286-.4402862c.220143-3.5222895.220143-3.5222895.220143-7.4848652l.440286-.4402861h3.52229v-9.2460099l.440286-.4402862c5.063291-1.32085859 6.38415-1.76114478 11.007155-3.08200334l.440286.44028619c-.220143 3.30214635-.220143 4.18271875-.220143 12.76829935 2.641717 0 3.302146 0 5.503577-.2201431l.440286.4402862c-.220143 3.5222895-.220143 3.9625757-.440286 7.4848652zm16.951018 31.9207485c-4.843148 0-6.824436 0-12.10787.2201431l-.440286-.4402862c.220143-4.8431481.440286-9.6862961.440286-18.2718767 0-12.1078702-.440286-16.2905889-.660429-20.2531646l.440286-.4402862c5.283434-.6604293 6.824436-1.1007154 11.887727-2.2014309l.440286.4402862v3.0820033c0 4.6230049-.220143 9.0258668-.220143 13.6488717 0 7.9251514.220143 15.8503027.660429 23.7754541zm-1.100715-47.7710512c-4.623005.4402862-5.943864.6604293-10.566869 1.5410016l-.440286-.4402861c0-3.96257571 0-5.06329118-.220143-9.24600995l.440286-.44028618c5.283434-.44028619 6.164007-.66042928 10.787012-1.32085856l.440286.44028619c-.220143 4.40286186 0 5.50357732 0 9.0258668z"
       fill="#1aa5de"
       transform="translate(0 2.201)"
       id="path1134"
       style="fill:#ffffff" />
    <path
       d="m28.1783159 15.6301596c-1.9812878-1.5410016-4.1827188-3.5222895-8.5855806-3.5222895-3.9625757 0-6.3841497 2.2014309-6.3841497 5.5035773 0 2.4215741 1.3208585 4.1827188 3.7424326 5.9438636.6604292.6604292 4.843148 3.5222894 5.7237204 3.9625756 4.843148 3.3021464 8.8057237 6.8244359 8.5855806 14.5294442 0 5.0632911-1.7611447 9.0258668-3.9625757 11.4474408-3.9625756 4.4028619-9.466153 5.5035773-14.5294441 5.5035773-3.08200331 0-7.48486517-.4402862-11.44744084-2.421574l-.44028619-.6604293c0-1.5410016.2201431-3.3021464.2201431-5.0632911 0-1.5410017.22014309-2.8618602.22014309-4.4028619l.66042928-.2201431c2.64171711 2.4215741 5.94386351 3.7424326 9.46615296 3.7424326 5.7237205 0 7.2647221-3.9625757 7.2647221-6.6042928 0-3.3021464-2.2014309-5.2834342-5.7237204-7.7050082l-3.30214641-2.201431c-3.96257567-2.8618602-9.02586681-6.3841497-9.02586681-14.7495872 0-5.5035773 1.98128784-9.2460099 4.18271877-11.44744083 3.52228948-3.52228949 8.36543755-4.18271877 12.76829935-4.18271877 3.9625757 0 7.9251514.66042928 11.4474409 2.42157403l.2201431.66042927c-.2201431 1.54100166-.2201431 3.3021464-.4402862 4.8431481l-.2201431 4.4028618zm25.7567419 39.4056137c-1.3208586 1.1007154-3.9625757 3.9625756-9.0258668 3.9625756-5.7237204 0-10.1265823-4.4028618-10.1265823-12.5481563 0-11.4474408 10.1265823-14.0891579 19.1524491-15.8503027 0-2.6417171 0-5.5035773-5.5035773-5.5035773-5.0632912 0-8.1452945 1.9812878-9.6862961 3.0820033l-.4402862-.2201431c.2201431-3.5222895.2201431-4.4028618.4402862-7.7050082l.4402862-.6604293c4.4028618-1.9812879 10.1265822-2.421574 12.9884424-2.421574 3.0820033 0 9.0258669.4402861 11.8877271 5.2834342 1.7611447 3.0820033 1.7611447 6.3841497 1.5410016 12.7682994v5.9438635c0 6.3841497 0 10.7870116.6604293 16.7308751l-.4402862.4402861c-5.0632911 0-6.1640066 0-10.7870115.2201431l-.4402862-.4402861zm-.2201431-17.3913044c-3.3021464.4402862-8.1452944 1.3208586-8.1452944 7.4848652 0 3.3021464 1.7611447 5.2834342 4.1827187 5.2834342 2.201431 0 3.5222895-1.3208586 4.1827188-1.9812878zm35.8833242-11.2272977h-4.8431481c0 18.0517336.2201431 25.0963126.4402862 31.7006054l-.4402862.4402861c-5.5035773 0-6.6042928 0-11.6675839.2201431l-.4402862-.4402862v-2.8618602c.2201431-5.2834342.2201431-22.2344524.2201431-29.0588882-1.7611448 0-2.2014309 0-3.7424326.2201431l-.4402862-.4402862c.2201431-2.8618602.2201431-3.9625757.4402862-7.4848652l.4402862-.4402862c1.5410016.2201431 1.7611447.2201431 3.3021464.2201431 0-5.9438635-.2201431-10.78701154 2.2014309-13.86901485 3.0820033-3.96257567 8.8057237-3.96257567 10.3467254-3.96257567 2.6417171 0 4.4028618.44028619 5.2834342.44028619l.2201431.44028618c-.2201431 3.3021464-.4402862 4.18271877-.4402862 7.92515135l-.4402862.44028619c-.4402861-.2201431-1.1007154-.44028619-1.7611447-.44028619-1.5410017 0-2.421574.6604293-3.0820033 1.5410017-.8805724 1.3208585-.8805724 2.8618602-.8805724 7.4848651 2.421574 0 3.0820033 0 5.2834343-.2201431l.4402861.4402862c-.2201431 3.3021464-.2201431 4.1827188-.4402861 7.4848652zm14.7495871 14.0891579c.220143 6.8244359 3.742433 10.1265823 9.466153 10.1265823 4.623005 0 7.264722-1.9812878 8.365438-2.6417171l.440286.2201431c-.220143 3.3021464-.220143 4.6230049-.440286 7.9251513l-.220143.6604293c-1.541002 1.3208586-6.38415 2.421574-10.787012 2.421574-13.2085856 0-18.4920198-8.3654375-18.4920198-21.1337369 0-2.6417171.2201431-5.5035773.8805723-8.3654375 2.201431-9.24601 8.8057235-12.7682994 15.4100165-12.7682994 2.201431 0 4.402862.4402861 6.38415 1.3208585 7.264722 3.3021464 8.365437 10.3467254 8.365437 17.8315906v3.9625756l-.440286.4402862zm8.585581-7.2647221c0-1.3208585 0-2.421574-.220143-3.9625756-.440287-2.4215741-1.541002-4.623005-3.742433-4.623005-1.100715 0-4.182719.4402862-4.402862 8.3654376zm27.958173-16.0704457v3.7424325c1.761144-1.5410016 4.402861-3.9625756 8.805723-3.9625756 4.623005 0 7.484865 2.8618602 9.025867 5.2834342 2.641717 4.1827188 3.302146 9.6862961 3.302146 13.4287287 0 5.5035773-.880572 17.1711612-11.44744 21.35388-3.302147 1.3208585-5.283435 1.1007155-9.466153 1.1007155 0 5.5035773.220143 12.5481563.440286 15.4100165l-.440286.4402862c-1.541002 0-3.082004-.2201431-4.402862-.2201431-2.421574 0-4.402862.2201431-7.044579.2201431l-.440286-.4402862c.220143-6.1640066.220143-12.1078702.220143-18.2718768 0-12.1078701 0-24.4358833-1.100716-36.3236103l.440286-.4402862c5.503578-.6604293 7.044579-1.1007155 11.667584-1.9812878zm.440286 33.0214639h1.100715.660429c6.824436-.6604293 6.824436-9.6862961 6.824436-13.4287287 0-1.9812878-.220143-5.5035773-1.320858-8.1452944-.220143-.4402862-1.320859-2.6417171-3.742433-2.6417171-1.761145 0-2.86186 1.1007154-3.742432 1.9812878 0 8.1452945 0 11.6675839.220143 22.2344524zm42.927903 4.8431481c-1.320859 1.1007154-3.962576 3.9625756-9.025867 3.9625756-5.72372 0-10.126582-4.4028618-10.126582-12.5481563 0-11.4474408 10.126582-14.0891579 19.152449-15.8503027 0-2.6417171 0-5.5035773-5.503577-5.5035773-5.063292 0-8.145295 1.9812878-9.686297 3.0820033l-.440286-.2201431c.220143-3.5222895.220143-4.4028618.440286-7.7050082l.440287-.6604293c4.402861-1.9812879 10.126582-2.421574 12.988442-2.421574 3.082003 0 9.025867.4402861 11.887727 5.2834342 1.761145 3.0820033 1.761145 6.3841497 1.541002 12.7682994v5.9438635c0 6.3841497 0 10.7870116.660429 16.7308751l-.440286.4402861c-5.063291 0-6.164007 0-10.787012.2201431l-.440286-.4402861zm-.220143-17.3913044c-3.302147.4402862-8.145295 1.3208586-8.145295 7.4848652 0 3.3021464 1.761145 5.2834342 4.182719 5.2834342 2.201431 0 3.52229-1.3208586 4.182719-1.9812878v-10.7870116zm22.454595 36.3236104c1.981288-4.4028619 2.641717-7.044579 5.283434-14.3093011-3.522289-12.1078701-9.686296-31.7006054-12.988442-41.1667584l.440286-.4402862c5.503577 0 6.604293-.2201431 12.10787-.4402862l.66043.4402862c.880572 3.9625757 1.100715 5.2834343 3.082003 13.4287287l2.86186 11.4474408 3.082003-12.3280132c1.541002-5.5035773 1.541002-5.9438635 3.082004-12.3280132l.440286-.4402862c4.182719 0 5.283434 0 9.466153-.2201431l.220143.4402862c-1.981288 5.9438635-2.421574 7.7050083-7.044579 22.4545955l-3.742433 12.5481563c-3.082003 10.5668685-4.402861 15.1898734-5.503577 20.6934508l-.440286.4402861c-5.063291 0-5.943864 0-10.346725.2201431z"
       fill="#171113"
       transform="translate(156.302 4.403)"
       id="path1136"
       style="fill:#ffffff" />
    <path
       d="m38.7451844 1.10071547c-3.0820033 0-5.5035774 2.42157402-5.5035774 5.50357732s2.4215741 5.50357731 5.5035774 5.50357731 5.5035773-2.42157401 5.5035773-5.50357731-2.421574-5.50357732-5.5035773-5.50357732m-26.6373143 11.22729773c-2.20143091 2.2014309-2.20143091 5.7237204 0 7.9251514 2.2014309 2.2014309 5.7237204 2.2014309 7.9251514 0 2.2014309-2.201431 2.2014309-5.7237205 0-7.9251514-2.4215741-2.2014309-5.7237205-2.2014309-7.9251514 0m54.5954871 7.9251514c2.2014309-2.201431 2.2014309-5.7237205 0-7.9251514s-5.7237204-2.2014309-7.9251514 0c-2.2014309 2.2014309-2.2014309 5.7237204 0 7.9251514 2.4215741 1.9812878 5.9438635 1.9812878 7.9251514 0m-60.5393506 13.8690148c-3.0820033 0-5.50357732 2.421574-5.50357732 5.5035773s2.42157402 5.5035774 5.50357732 5.5035774c3.08200331 0 5.5035773-2.4215741 5.5035773-5.5035774s-2.42157399-5.5035773-5.5035773-5.5035773m5.9438635 25.0963126c-2.20143091 2.2014309-2.20143091 5.7237204 0 7.9251514 2.2014309 2.2014309 5.7237204 2.2014309 7.9251514 0 2.2014309-2.201431 2.2014309-5.7237205 0-7.9251514-2.4215741-2.2014309-5.9438635-2.2014309-7.9251514 0m27.2977435 8.1452945c-3.0820033 0-5.5035773 2.421574-5.5035773 5.5035773s2.421574 5.5035773 5.5035773 5.5035773c3.0820034 0 5.5035774-2.421574 5.5035774-5.5035773s-2.421574-5.5035773-5.5035774-5.5035773m19.5927353-8.1452945c-2.2014309 2.2014309-2.2014309 5.7237204 0 7.9251514 2.201431 2.2014309 5.7237204 2.2014309 7.9251514 0 2.2014309-2.201431 2.2014309-5.7237205 0-7.9251514-2.201431-2.2014309-5.7237204-2.2014309-7.9251514 0m13.6488718-25.0963126c-3.0820033 0-5.5035773 2.421574-5.5035773 5.5035773s2.421574 5.5035774 5.5035773 5.5035774 5.5035773-2.4215741 5.5035773-5.5035774c0-2.8618602-2.421574-5.5035773-5.5035773-5.5035773"
       fill="#929497"
       transform="translate(400.66)"
       id="path1138"
       style="fill:#ffffff" />
    <g
       fill="#171113"
       transform="translate(0 74.849)"
       id="g1146"
       style="fill:#ffffff">
      <path
         d="m0 14.5294441h2.64171712c0 .8805724.44028618 1.5410017 1.10071546 2.201431.66042928.6604292 1.76114475.8805723 2.86186021.8805723 1.10071547 0 1.98128784-.2201431 2.86186021-.8805723.6604293-.4402862 1.1007155-1.3208586 1.1007155-2.201431 0-.6604292-.2201431-1.3208585-.66042931-1.5410016-.44028619-.4402862-1.10071547-.6604293-2.20143093-.8805724l-2.86186021-.6604293c-.66042928-.2201431-1.10071547-.4402861-1.54100165-.6604292-.44028619-.2201431-.88057238-.4402862-1.32085856-.88057241-.44028619-.44028619-.66042928-.88057238-.88057237-1.32085856-.2201431-.44028619-.44028619-1.10071547-.44028619-1.76114475 0-1.10071546.22014309-1.98128783.88057237-2.86186021.66042928-.88057237 1.32085856-1.32085855 2.20143093-1.76114474s1.98128784-.66042928 3.0820033-.66042928c1.10071547 0 2.20143093.22014309 3.08200331.66042928.88057241.44028619 1.76114471.88057237 2.20143091 1.76114474.6604293.88057238.8805724 1.76114475.8805724 2.86186021h-2.6417171c0-.88057237-.44028621-1.54100165-1.10071549-1.98128783-.66042928-.44028619-1.54100165-.88057238-2.64171712-.88057238-1.10071546 0-1.98128784.2201431-2.64171712.66042928-.66042927.44028619-.88057237 1.10071547-.88057237 1.98128784 0 1.32085856.88057237 1.98128784 2.42157403 2.42157402l2.8618602.66042928c.66042928.2201431 1.10071547.2201431 1.54100166.44028621.44028621.2201431.88057241.4402862 1.32085851.6604293.4402862.2201431.6604293.6604292.8805724.8805723.2201431.4402862.4402862.6604293.6604293 1.1007155s.2201431.8805724.2201431 1.5410016c0 1.7611448-.6604293 3.0820033-1.7611448 3.9625757-1.32085851.8805724-2.86186017 1.3208586-4.843148 1.3208586-.88057237 0-1.76114475 0-2.42157403-.2201431-.66042927-.2201431-1.32085855-.4402862-1.76114474-.8805724s-.88057237-.6604293-1.10071546-1.1007155c-.2201431-.4402861-.66042928-.8805723-.66042928-1.3208585-.2201431-.6604293-.44028619-1.1007155-.44028619-1.5410017zm16.2905889 4.8431481v-13.64887178h2.6417171v1.76114474h.2201431c.2201431-.44028618.6604293-1.10071546 1.3208585-1.32085856.6604293-.44028618 1.3208586-.66042927 2.201431-.66042927 1.1007154 0 1.7611447.22014309 2.421574.66042927.6604293.44028619 1.1007155.88057238 1.3208586 1.54100166h.2201431c.220143-.66042928.6604292-1.10071547 1.5410016-1.54100166.6604293-.44028618 1.5410017-.66042927 2.6417171-.66042927 1.3208586 0 2.421574.44028618 3.3021464 1.32085855.8805724.88057238 1.1007155 1.98128784 1.1007155 3.30214642v9.2460099h-2.6417171v-8.5855806c0-.88057241-.2201431-1.54100169-.6604293-2.20143097-.4402862-.44028619-1.1007155-.88057237-1.9812879-.88057237-.8805723 0-1.5410016.22014309-1.9812878.88057237s-.6604293 1.32085856-.6604293 2.20143097v8.3654375h-2.6417171v-8.3654375c0-1.10071551-.2201431-1.76114479-.6604293-2.20143097-.4402861-.44028619-1.1007154-.88057237-1.9812878-.88057237s-1.5410017.22014309-1.9812878.88057237c-.4402862.44028618-.8805724 1.32085856-.8805724 2.20143097v8.3654375h-2.8618602zm29.9394606-1.7611448c-.4402862.6604293-.8805723 1.1007155-1.5410016 1.5410017s-1.5410017.6604293-2.421574.6604293c-1.3208586 0-2.4215741-.4402862-3.3021464-1.1007155-.8805724-.6604293-1.3208586-1.7611447-1.3208586-3.0820033s.4402862-2.2014309 1.3208586-2.8618602c.8805723-.6604293 1.9812878-1.1007155 3.5222895-1.1007155h3.5222894v-1.5410016c0-1.54100167-.8805723-2.20143095-2.6417171-2.20143095-1.5410016 0-2.421574.66042928-2.6417171 1.98128784h-2.421574c0-1.32085856.4402862-2.20143093 1.3208585-3.08200331.8805724-.66042928 2.201431-1.10071546 3.7424326-1.10071546 1.5410017 0 2.8618602.44028618 3.7424326 1.10071546s1.3208586 1.76114475 1.3208586 3.30214642v9.2460099h-2.4215741zm-3.0820033-.2201431c.8805724 0 1.5410017-.220143 2.201431-.8805723.6604292-.4402862.8805723-1.1007155.8805723-1.9812879v-1.3208585h-3.0820033c-.8805723 0-1.5410016.2201431-1.9812878.4402862-.4402862.4402862-.6604293.8805723-.6604293 1.5410016s.2201431 1.3208586.6604293 1.5410017c.6604293.6604292 1.3208586.6604292 1.9812878.6604292zm9.466153 1.9812879v-13.64887178h2.6417171v1.76114474c.2201431-.22014309.2201431-.44028618.4402862-.66042928.2201431-.22014309.2201431-.44028618.6604293-.66042928.2201431-.22014309.6604293-.44028618.8805724-.44028618.4402862-.22014309.8805724-.22014309 1.3208585-.22014309h.8805724v2.42157402h-1.1007155c-1.9812878 0-3.0820033 1.10071546-3.0820033 3.30214635v8.1452945zm10.7870116-13.64887178v-3.3021464h2.6417171v3.3021464h2.6417171v2.20143093h-2.6417171v7.48486515c0 .6604293.2201431 1.3208586.4402862 1.5410017s.8805724.4402861 1.7611447.4402861h.6604293v1.9812879h-1.3208585c-.8805724 0-1.5410017 0-1.9812879-.2201431s-.8805724-.4402862-1.3208585-.6604293c-.2201431-.4402862-.4402862-.6604293-.6604293-1.1007155-.2201431-.4402861-.2201431-1.1007154-.2201431-1.7611447v-7.70500825h-1.7611448v-2.20143093zm13.4287287-3.96257568h6.6042928c1.7611447 0 3.0820033.44028619 4.1827187 1.54100166 1.1007155 1.10071546 1.5410017 2.42157402 1.5410017 3.96257567 0 1.76114474-.4402862 3.08200333-1.5410017 3.96257563-1.1007154 1.1007155-2.421574 1.5410017-4.1827187 1.5410017h-3.9625757v6.3841497h-2.6417171zm2.6417171 2.20143093v6.60429283h2.421574c.6604293 0 1.3208586 0 1.9812878-.2201431.4402862 0 .8805724-.2201431 1.3208586-.44028621.4402862-.2201431.6604293-.66042928.8805724-1.10071547s.2201431-1.10071546.2201431-1.76114474c0-1.10071547-.2201431-1.98128784-.8805724-2.42157403-.6604293-.66042928-1.3208586-.88057237-2.421574-.88057237h-3.5222895zm19.3725922 13.64887173c-.4402862.6604293-.8805724 1.1007155-1.5410017 1.5410017s-1.5410016.6604293-2.421574.6604293c-1.3208586 0-2.421574-.4402862-3.3021464-1.1007155s-1.3208586-1.7611447-1.3208586-3.0820033.4402862-2.2014309 1.3208586-2.8618602 1.9812878-1.1007155 3.5222895-1.1007155h3.5222895v-1.5410016c0-1.54100167-.8805724-2.20143095-2.6417171-2.20143095-1.5410017 0-2.4215741.66042928-2.6417172 1.98128784h-2.421574c0-1.32085856.4402862-2.20143093 1.3208586-3.08200331.8805723-.66042928 2.2014309-1.10071546 3.7424326-1.10071546 1.5410016 0 2.8618602.44028618 3.7424325 1.10071546.8805729.66042928 1.3208589 1.76114475 1.3208589 3.30214642v9.2460099h-2.4215743zm-3.0820033-.2201431c.8805723 0 1.5410016-.220143 2.2014309-.8805723.6604293-.4402862.8805724-1.1007155.8805724-1.9812879v-1.3208585h-3.0820033c-.8805724 0-1.5410017.2201431-1.9812879.4402862-.4402862.4402862-.6604293.8805723-.6604293 1.5410016s.2201431 1.3208586.6604293 1.5410017c.6604293.6604292 1.1007155.6604292 1.9812879.6604292zm20.4733075-11.66758388c-3.082003 9.02586678-4.623005 13.42872868-4.623005 13.42872868l-.440286.8805724c-.220143.4402861-.440286.8805723-.440286 1.3208585s-.440286.6604293-.660429 1.1007155c-.220144.4402862-.66043.6604293-.880573.8805724s-.660429.4402861-1.100715.6604292c-.440287.2201431-1.100716.2201431-1.541002.2201431s-1.100715 0-1.541002-.2201431v-1.9812878h1.100716c.880572 0 1.320858-.2201431 1.761145-.4402862.440286-.4402862.660429-.8805724.880572-1.5410016l.220143-.6604293-4.843148-13.64887178h2.86186l3.302147 11.00715468h.220143l3.522289-11.00715468zm2.421574 13.64887178v-13.64887178h2.641717v1.76114474h.220143c.220143-.44028618.66043-1.10071546 1.320859-1.32085856.660429-.44028618 1.320858-.66042927 2.201431-.66042927 1.100715 0 1.761145.22014309 2.421574.66042927.660429.44028619 1.100715.88057238 1.320858 1.54100166h.220144c.220143-.66042928.660429-1.10071547 1.541001-1.54100166.660429-.44028618 1.541002-.66042927 2.641717-.66042927 1.320859 0 2.421574.44028618 3.302147 1.32085855.880572.88057238 1.100715 1.98128784 1.100715 3.30214642v9.2460099h-2.641717v-8.5855806c0-.88057241-.220143-1.54100169-.660429-2.20143097-.440286-.44028619-1.100716-.88057237-1.981288-.88057237s-1.541002.22014309-1.981288.88057237-.660429 1.32085856-.660429 2.20143097v8.3654375h-2.641717v-8.3654375c0-1.10071551-.220143-1.76114479-.66043-2.20143097-.440286-.44028619-1.100715-.88057237-1.981287-.88057237-.880573 0-1.541002.22014309-1.981288.88057237-.440286.44028618-.880573 1.32085856-.880573 2.20143097v8.3654375h-2.86186zm27.73803.2201431c-1.981288 0-3.302147-.6604293-4.402862-1.7611448-1.100715-1.1007154-1.541002-2.6417171-1.541002-4.6230049v-1.1007155c0-1.9812878.440287-3.52228947 1.541002-4.62300494 1.100715-1.10071546 2.421574-1.76114474 4.182719-1.76114474s3.302146.66042928 4.182719 1.76114474c.880572 1.10071547 1.541001 2.64171714 1.541001 4.62300494v1.1007155h-8.805724v.4402862c0 1.1007154.220144 1.9812878.880573 2.8618602.660429.6604293 1.320858 1.1007154 2.421574 1.1007154.880572 0 1.541002-.2201431 1.981288-.4402861.440286-.4402862.660429-.8805724.880572-1.3208586h2.641717c0 .4402862-.220143.8805724-.440286 1.3208586-.220143.4402861-.440286.8805723-.880572 1.3208585-.440287.4402862-.880573.6604293-1.541002 1.1007155-1.100715-.2201431-1.761145 0-2.641717 0zm-3.302147-8.3654376h6.38415c0-1.1007154-.220143-1.98128779-.880572-2.64171707s-1.320859-1.10071547-2.201431-1.10071547c-.880573 0-1.761145.44028619-2.201431 1.10071547s-1.100716 1.54100167-1.100716 2.64171707zm11.887727 8.1452945v-13.64887178h2.641718v1.76114474c.220143-.66042928.660429-1.10071546 1.320858-1.54100165.660429-.44028618 1.541002-.66042928 2.421574-.66042928 1.320859 0 2.641717.44028619 3.52229 1.32085856.880572.88057237 1.320858 1.98128784 1.320858 3.52228951v9.0258668h-2.641717v-8.1452944c0-2.20143098-1.100715-3.30214644-3.082003-3.30214644-1.100716 0-1.761145.22014309-2.201431.88057237s-.880572 1.54100167-.880572 2.64171707v7.9251514h-2.421575zm15.63016-13.64887178v-3.3021464h2.641717v3.3021464h2.641717v2.20143093h-2.641717v7.48486515c0 .6604293.220143 1.3208586.440286 1.5410017s.880573.4402861 1.761145.4402861h.660429v1.9812879h-1.320858c-.880573 0-1.541002 0-1.981288-.2201431s-.880572-.4402862-1.320859-.6604293c-.440286-.2201431-.440286-.6604293-.660429-1.1007155-.220143-.4402861-.220143-1.1007154-.220143-1.7611447v-7.70500825h-1.761145v-2.20143093zm12.328013 8.80572368h2.641717c0 .8805724.440287 1.5410017 1.100716 2.201431.660429.6604292 1.761145.8805723 2.86186.8805723 1.100716 0 1.981288-.2201431 2.86186-.8805723.66043-.4402862 1.100716-1.3208586 1.100716-2.201431 0-.6604292-.220143-1.3208585-.66043-1.5410016-.440286-.4402862-1.100715-.6604293-2.20143-.8805724l-2.861861-.6604293c-.660429-.2201431-1.100715-.4402861-1.541001-.6604292s-.880573-.4402862-1.320859-.88057241c-.440286-.44028619-.660429-.88057238-.880572-1.32085856-.220143-.44028619-.440286-1.10071547-.440286-1.76114475 0-1.10071546.220143-1.98128783.880572-2.86186021.660429-.88057237 1.320859-1.32085855 2.201431-1.76114474s1.981288-.66042928 3.082003-.66042928c1.100716 0 2.201431.22014309 3.082003.66042928.880573.44028619 1.761145.88057237 2.201431 1.76114474.66043.88057238.880573 1.76114475.880573 2.86186021h-2.641717c0-.88057237-.440287-1.54100165-1.100716-1.98128783-.660429-.44028619-1.541001-.88057238-2.641717-.88057238-1.100715 0-1.981288.2201431-2.641717.66042928-.660429.44028619-.880572 1.10071547-.880572 1.98128784 0 1.32085856.880572 1.98128784 2.421574 2.42157402l2.86186.66042928c.660429.2201431 1.100715.2201431 1.541001.44028621.440287.2201431.880573.4402862 1.320859.6604293s.660429.6604292.880572.8805723c.220144.4402862.440287.6604293.66043 1.1007155s.220143.8805724.220143 1.5410016c0 1.7611448-.660429 3.0820033-1.761145 3.9625757-1.320859.8805724-2.86186 1.3208586-4.843148 1.3208586-.880572 0-1.761145 0-2.421574-.2201431s-1.320859-.4402862-1.761145-.8805724-.880572-.6604293-1.100715-1.1007155c-.220143-.4402861-.66043-.8805723-.66043-1.3208585-.440286-.6604293-.440286-1.1007155-.440286-1.5410017zm21.35388 5.0632912c-1.981288 0-3.302146-.6604293-4.402862-1.7611448-1.100715-1.1007154-1.541001-2.6417171-1.541001-4.6230049v-1.1007155c0-1.9812878.440286-3.52228947 1.541001-4.62300494 1.100716-1.10071546 2.421574-1.76114474 4.182719-1.76114474s3.302147.66042928 4.182719 1.76114474c.880572 1.10071547 1.541002 2.64171714 1.541002 4.62300494v1.1007155h-8.805724v.4402862c0 1.1007154.220143 1.9812878.880572 2.8618602.66043.6604293 1.320859 1.1007154 2.421574 1.1007154.880573 0 1.541002-.2201431 1.981288-.4402861.440286-.4402862.660429-.8805724.880573-1.3208586h2.641717c0 .4402862-.220143.8805724-.440287 1.3208586-.220143.4402861-.440286.8805723-.880572 1.3208585s-.880572.6604293-1.541002 1.1007155c-1.100715-.2201431-1.761144 0-2.641717 0zm-3.302146-8.3654376h6.38415c0-1.1007154-.220143-1.98128779-.880573-2.64171707-.660429-.66042928-1.320858-1.10071547-2.201431-1.10071547-.880572 0-1.761144.44028619-2.201431 1.10071547-.440286.66042928-1.100715 1.54100167-1.100715 2.64171707zm12.10787 8.1452945v-13.64887178h2.641717v1.76114474c.220143-.22014309.220143-.44028618.440286-.66042928.220143-.22014309.220143-.44028618.66043-.66042928.220143-.22014309.660429-.44028618.880572-.44028618.440286-.22014309.880572-.22014309 1.320859-.22014309h.880572v2.42157402h-1.100716c-1.981287 0-3.082003 1.10071546-3.082003 3.30214635v8.1452945z"
         id="path1140"
         style="fill:#ffffff" />
      <path
         d="m225.647 19.373-4.623-13.649h2.862l3.082 11.007 3.522-11.007h2.642l-4.844 13.649z"
         id="path1142"
         style="fill:#ffffff" />
      <path
         d="m235.993396 3.52228949c-.220143-.22014309-.440286-.66042928-.440286-1.10071547 0-.44028618.220143-.88057237.440286-1.10071546s.660429-.44028619 1.100715-.44028619.880573.2201431 1.100716.44028619.440286.66042928.440286 1.10071546c0 .44028619-.220143.88057238-.440286 1.10071547s-.66043.44028618-1.100716.44028618-.880572-.22014309-1.100715-.44028618zm-.220143 15.85030271v-13.64887178h2.641717v13.64887178zm5.943863-6.1640066v-1.5410017c0-1.76114471.440286-3.30214637 1.541002-4.40286183 1.100715-1.10071547 2.421574-1.76114474 4.182719-1.76114474 1.541001 0 2.86186.44028618 3.742432 1.32085855.880572.88057238 1.320859 1.98128784 1.541002 3.08200331h-2.421574c0-.66042928-.440286-1.10071547-.880573-1.54100166-.440286-.44028618-1.100715-.66042927-1.981287-.66042927-1.100716 0-1.761145.44028618-2.421574 1.10071546-.440287.88057237-.880573 1.76114478-.880573 3.08200328v1.3208586c0 1.1007154.220143 2.2014309.880573 2.8618602.660429.6604293 1.320858 1.1007155 2.421574 1.1007155.880572 0 1.541001-.2201431 1.981287-.4402862.440287-.4402862.880573-.8805724.880573-1.3208586h2.421574c0 1.1007155-.66043 2.2014309-1.541002 2.8618602-.880572.8805724-2.201431 1.3208586-3.742432 1.3208586-1.761145 0-3.302147-.6604293-4.182719-1.7611448-1.100716-1.1007154-1.541002-2.6417171-1.541002-4.6230049zm19.372592 6.3841497c-1.981288 0-3.302146-.6604293-4.402862-1.7611448-1.100715-1.1007154-1.541001-2.6417171-1.541001-4.6230049v-1.1007155c0-1.9812878.440286-3.52228947 1.541001-4.62300494 1.100716-1.10071546 2.421574-1.76114474 4.182719-1.76114474s3.302147.66042928 4.182719 1.76114474c.880572 1.10071547 1.541002 2.64171714 1.541002 4.62300494v1.1007155h-8.805724v.4402862c0 1.1007154.220143 1.9812878.880572 2.8618602.66043.6604293 1.320859 1.1007154 2.421574 1.1007154.880573 0 1.541002-.2201431 1.981288-.4402861.440286-.4402862.660429-.8805724.880573-1.3208586h2.641717c0 .4402862-.220143.8805724-.440287 1.3208586-.220143.4402861-.440286.8805723-.880572 1.3208585s-.880572.6604293-1.541002 1.1007155c-1.100715-.2201431-1.761144 0-2.641717 0zm-3.302146-8.3654376h6.38415c0-1.1007154-.220143-1.98128779-.880573-2.64171707-.660429-.66042928-1.320858-1.10071547-2.201431-1.10071547-.880572 0-1.761144.44028619-2.201431 1.10071547-.440286.66042928-1.100715 1.54100167-1.100715 2.64171707zm11.227298-1.54100161c0-.66042928.220143-1.32085856.440286-1.76114474.220143-.44028619.660429-.88057237 1.100715-1.32085856.440286-.22014309 1.100716-.66042928 1.541002-.66042928.660429-.22014309 1.320859-.22014309 1.981288-.22014309 1.541001 0 2.86186.44028618 3.522289 1.10071546.880573.66042928 1.320859 1.76114475 1.320859 2.86186021h-2.421574c0-.66042928-.220143-1.10071546-.660429-1.54100165-.440287-.44028618-1.100716-.66042928-1.981288-.66042928-.880573 0-1.320859.2201431-1.761145.44028619s-.660429.88057237-.660429 1.54100165c0 .22014309 0 .44028619.220143.6604293.220143.2201431.220143.4402862.440286.4402862.220143.2201431.440286.2201431.660429.4402862.440286.220143.66043.220143.66043.220143.220143 0 .440286 0 .880572.2201431h.220143.220143c.660429 0 1.100716.2201431 1.541002.2201431.440286.2201431.880572.2201431 1.320858.4402862s.66043.4402862 1.100716.6604293c.220143.2201431.440286.6604293.660429.8805724.220143.4402862.220143.8805723.220143 1.3208585 0 1.3208586-.440286 2.421574-1.541002 3.0820033-.880572.6604293-2.421574 1.1007155-3.962575 1.1007155-1.541002 0-2.86186-.4402862-3.742433-1.1007155-.880572-.6604293-1.320858-1.7611447-1.320858-2.8618602h2.421574c0 .6604293.440286 1.1007155.880572 1.5410017s1.100716.4402862 1.981288.4402862 1.761145-.2201431 2.201431-.6604293.660429-.8805724.660429-1.5410017-.440286-1.1007154-1.100715-1.5410016c-.440287-.2201431-1.100716-.4402862-2.201431-.6604293-.66043-.2201431-1.100716-.2201431-1.541002-.4402862-.440286 0-.880572-.2201431-1.320859-.4402862-.440286-.2201431-.660429-.4402862-1.100715-.6604293-.220143-.220143-.440286-.6604292-.660429-.8805723-.220143.2201431-.220143-.2201431-.220143-.66042931z"
         id="path1144"
         style="fill:#ffffff" />
    </g>
  </g>
</svg>
