<?xml version="1.0" encoding="UTF-8" standalone="no"?>
<!-- Generator: Adobe Illustrator 26.0.2, SVG Export Plug-In . SVG Version: 6.00 Build 0)  -->

<svg
   version="1.1"
   id="Layer_1"
   x="0px"
   y="0px"
   viewBox="0 0 640 360"
   xml:space="preserve"
   sodipodi:docname="MultiSafepay-logo-white.svg"
   width="640"
   height="360"
   inkscape:version="1.1.2 (b8e25be8, 2022-02-05)"
   xmlns:inkscape="http://www.inkscape.org/namespaces/inkscape"
   xmlns:sodipodi="http://sodipodi.sourceforge.net/DTD/sodipodi-0.dtd"
   xmlns="http://www.w3.org/2000/svg"
   xmlns:svg="http://www.w3.org/2000/svg"><defs
   id="defs997" /><sodipodi:namedview
   id="namedview995"
   pagecolor="#ffffff"
   bordercolor="#666666"
   borderopacity="1.0"
   inkscape:pageshadow="2"
   inkscape:pageopacity="0.0"
   inkscape:pagecheckerboard="true"
   showgrid="false"
   inkscape:zoom="1.4191686"
   inkscape:cx="433.35232"
   inkscape:cy="74.3393"
   inkscape:window-width="1541"
   inkscape:window-height="1215"
   inkscape:window-x="3502"
   inkscape:window-y="179"
   inkscape:window-maximized="0"
   inkscape:current-layer="Layer_1" />
<style
   type="text/css"
   id="style962">
	.st0{fill:#FFFFFF;}
</style>
<g
   id="Layer_2_00000109711278080834739620000002951520633461022863_"
   transform="matrix(0.59122402,0,0,0.59122402,63.999999,136.24942)">
	<g
   id="Layer_1-2">
		<path
   class="st0"
   d="m 152,40.00642 h 22.79314 l 21.96915,54.18506 21.42,-54.18506 h 22.51857 V 118 H 221.7523 V 71.20368 L 204.17685,118 H 188.79857 L 171.49773,70.93011 V 118 H 152 Z"
   id="path964" />
		<path
   class="st0"
   d="M 311.82571,117.99914 H 292.8786 v -8.48361 c -4.42834,5.81644 -11.36588,9.17128 -18.67487,9.03075 -14.28,0 -24.16628,-9.85176 -24.16628,-26.54511 V 55.8779 h 18.94853 v 33.93383 c 0,8.48361 4.66858,13.13577 11.80859,13.13577 7.41455,0 12.08401,-4.65216 12.08401,-13.13577 V 55.8779 h 18.94711 v 62.12124 z"
   id="path966" />
		<path
   class="st0"
   d="m 321.16284,35.90228 h 18.95001 V 118 h -18.95001 z"
   id="path968" />
		<path
   class="st0"
   d="M 352.46857,71.5 H 344.78 V 55.87877 h 7.68857 V 40.00642 h 18.95001 v 15.87235 h 12.35568 V 71.47754 H 371.6914 v 25.177 c 0,3.55758 1.64856,5.19958 5.76715,5.19958 h 6.86716 V 118 h -9.61288 c -12.90714,0 -21.96857,-5.47316 -21.96857,-21.61936 V 71.5 Z"
   id="path970" />
		<path
   class="st0"
   d="m 388.71713,39.45928 c 0,-5.747 4.67004,-10.39918 11.26147,-10.39918 6.5885,0 11.25854,4.65216 11.25854,10.39918 0,5.74673 -4.67004,10.12561 -11.25854,10.12561 -6.86718,0 -11.26147,-4.65245 -11.26147,-10.12561 z m 1.64862,16.41977 h 18.95001 v 62.12124 h -18.95001 z"
   id="path972" />
		<path
   class="st0"
   d="m 447.48572,118.82188 c -16.75,0 -30.20569,-8.20975 -30.75714,-24.35595 h 20.32288 c 0.54855,6.02059 4.39432,8.75717 9.60999,8.75717 5.49429,0 9.06433,-2.73658 9.06433,-7.38874 0,-14.5042 -39.26999,-6.568 -38.99719,-34.48156 0,-14.77777 12.08282,-23.26108 28.83572,-23.26108 17.0257,0 28.83572,8.48331 29.38431,23.53494 h -20.59573 c -0.27573,-4.926 -3.84573,-7.93646 -9.06433,-8.21 -4.66714,0 -7.96429,2.18944 -7.96429,7.11517 0,13.40962 38.72147,7.389 38.72147,33.66055 -6e-5,13.68317 -10.43432,24.6295 -28.56002,24.6295 z"
   id="path974" />
		<path
   class="st0"
   d="m 507.07858,55.05835 c 9.33713,0 15.65286,4.105 19.22287,9.57817 v -8.75717 h 18.94714 v 62.12153 h -18.94714 v -8.75718 c -3.57001,5.47316 -9.88574,9.57818 -19.22284,9.57818 -15.10428,0 -27.46286,-12.31506 -27.46286,-32.29213 -0.27289,-19.15635 12.08283,-31.4714 27.46283,-31.4714 z m 5.49143,16.41977 c -7.14001,0 -13.45572,5.19959 -13.45572,15.05163 0,9.85175 6.31573,15.32492 13.45572,15.32492 7.13995,0 13.45569,-5.47317 13.45569,-15.32492 0,-9.57818 -6.31568,-15.05163 -13.45569,-15.05163 z"
   id="path976" />
		<path
   class="st0"
   d="m 556.50708,71.5 h -6.86426 V 55.87877 h 6.86426 v -1.642 c 0,-16.14592 9.88861,-24.35583 29.11145,-23.53486 v 16.41968 c -7.41571,-0.54743 -9.88568,1.642 -9.88568,8.21 v 0.54715 h 10.15857 v 15.5988 H 575.73291 V 118 H 556.7829 V 71.5 Z"
   id="path978" />
		<path
   class="st0"
   d="m 618.02142,118.821 c -18.1228,0 -31.57849,-12.31475 -31.57849,-32.01855 0,-19.7035 12.9071,-32.01826 31.57849,-32.01826 18.12579,0 31.0329,12.0409 31.0329,30.92369 0.0391,1.82864 -0.0531,3.65771 -0.27576,5.47316 h -43.38855 c 0.54852,8.21 5.76715,11.76763 11.80713,11.76763 4.21191,0.18341 8.11774,-2.19461 9.88861,-6.0206 h 20.32001 C 644.93573,109.5164 633.95001,118.821 618.02142,118.821 Z M 605.66571,81.05572 h 24.16571 c 0,-6.8416 -5.21863,-10.67275 -11.5343,-10.67275 -6.59143,3e-5 -11.53424,3.55758 -12.63141,10.67275 z"
   id="path980" />
		<path
   class="st0"
   d="m 693.26715,55.05835 c 15.10431,0 27.73572,12.31505 27.73572,32.01854 0,19.42993 -12.08282,32.29213 -27.73572,32.29213 -9.0614,0 -15.65283,-4.37859 -19.22284,-9.57818 V 148 H 655.0943 V 55.87935 h 18.95001 v 8.75717 c 3.56995,-5.47316 10.16144,-9.57817 19.22284,-9.57817 z M 687.5,71.47812 c -7.14001,0 -13.45569,5.47345 -13.45569,15.3252 0,9.85175 6.31567,15.32492 13.45569,15.32492 7.14002,0 13.73145,-5.47317 13.73145,-15.32492 0,-9.85175 -6.59144,-15.3252 -13.73145,-15.3252 z"
   id="path982" />
		<path
   class="st0"
   d="m 752.03571,55.05835 c 9.33716,0 15.65289,4.105 19.2229,9.57817 v -8.75717 h 18.94708 v 62.12153 h -18.94708 v -8.75718 c -3.57001,5.47316 -9.88574,9.57818 -19.2229,9.57818 -15.10425,0 -27.46283,-12.31506 -27.46283,-32.29213 0.27569,-19.15635 12.35858,-31.4714 27.46283,-31.4714 z m 6.03997,16.41977 c -7.14008,0 -13.45575,5.19959 -13.45575,15.05163 0,9.85175 6.31567,15.32492 13.45575,15.32492 7.14001,0 13.45569,-5.47317 13.45569,-15.32492 0,-9.57818 -6.31567,-15.05163 -13.45563,-15.05163 z"
   id="path984" />
		<path
   class="st0"
   d="M 845.4043,55.8779 H 866 l -39.18292,91.18219 H 806.5 L 820.69006,116.08354 795,55.875 h 21.14722 l 14.42859,39.13632 z"
   id="path986" />
		<path
   class="st0"
   d="M 118,98.8129 0,0 v 118 h 118 z"
   id="path988" />
		<path
   class="st0"
   d="M 118,0 63.29094,45.77531 118,91.55091 Z"
   id="path990" />
	</g>
</g>
</svg>
