<?xml version="1.0" encoding="UTF-8" standalone="no"?>
<svg
   viewBox="0 0 640 360"
   version="1.1"
   id="svg858"
   sodipodi:docname="MultiSafepay-logo-color.svg"
   width="640"
   height="360"
   inkscape:version="1.1.2 (b8e25be8, 2022-02-05)"
   xmlns:inkscape="http://www.inkscape.org/namespaces/inkscape"
   xmlns:sodipodi="http://sodipodi.sourceforge.net/DTD/sodipodi-0.dtd"
   xmlns="http://www.w3.org/2000/svg"
   xmlns:svg="http://www.w3.org/2000/svg">
  <sodipodi:namedview
     id="namedview860"
     pagecolor="#ffffff"
     bordercolor="#666666"
     borderopacity="1.0"
     inkscape:pageshadow="2"
     inkscape:pageopacity="0.0"
     inkscape:pagecheckerboard="0"
     showgrid="false"
     inkscape:zoom="1.426097"
     inkscape:cx="294.51012"
     inkscape:cy="86.950607"
     inkscape:window-width="1683"
     inkscape:window-height="1236"
     inkscape:window-x="3383"
     inkscape:window-y="162"
     inkscape:window-maximized="0"
     inkscape:current-layer="svg858" />
  <defs
     id="defs826">
    <style
       id="style824">.cls-1{fill:#00abee;}.cls-2{fill:#004a71;}</style>
  </defs>
  <g
     id="Layer_2"
     data-name="Layer 2"
     transform="matrix(0.59122402,0,0,0.59122402,63.999999,136.24942)">
    <g
       id="Layer_1-2"
       data-name="Layer 1">
      <path
         class="cls-1"
         d="m 152,40.00642 h 22.79314 l 21.96915,54.18506 21.42,-54.18506 h 22.51857 V 118 H 221.75229 V 71.20368 L 204.17685,118 H 188.79857 L 171.49772,70.93011 V 118 H 152 Z"
         id="path828" />
      <path
         class="cls-1"
         d="m 311.82571,117.99914 h -18.94712 v -8.48361 a 22.91767,22.91767 0 0 1 -18.67488,9.03075 c -14.28,0 -24.16628,-9.85176 -24.16628,-26.54511 V 55.8779 H 268.986 v 33.93383 c 0,8.48361 4.66857,13.13577 11.80859,13.13577 7.41456,0 12.084,-4.65216 12.084,-13.13577 V 55.8779 h 18.94712 z"
         id="path830" />
      <path
         class="cls-1"
         d="m 321.16285,35.90228 h 18.95 V 118 h -18.95 z"
         id="path832" />
      <path
         class="cls-1"
         d="M 352.46856,71.5 H 344.78 V 55.87877 h 7.68857 V 40.00642 h 18.95 v 15.87235 h 12.35568 v 15.59877 h -12.08283 v 25.177 c 0,3.55758 1.64856,5.19958 5.76714,5.19958 h 6.86717 V 118 h -9.61287 C 361.80572,118 352.7443,112.52684 352.7443,96.38064 V 71.5 Z"
         id="path834" />
      <path
         class="cls-1"
         d="m 388.71712,39.45928 c 0,-5.747 4.67005,-10.39918 11.26148,-10.39918 6.5885,0 11.25855,4.65216 11.25855,10.39918 0,5.74673 -4.67005,10.12561 -11.25855,10.12561 -6.86717,0 -11.26148,-4.65245 -11.26148,-10.12561 z m 1.64861,16.41977 h 18.95 v 62.12124 h -18.95 z"
         id="path836" />
      <path
         class="cls-2"
         d="m 447.48571,118.82188 c -16.75,0 -30.20568,-8.20975 -30.75715,-24.35595 h 20.32287 c 0.54855,6.02059 4.39432,8.75717 9.61,8.75717 5.49429,0 9.06432,-2.73658 9.06432,-7.38874 0,-14.5042 -39.27,-6.568 -38.99718,-34.48156 0,-14.77777 12.08284,-23.26108 28.83572,-23.26108 17.0257,0 28.83573,8.48331 29.38432,23.53494 h -20.59574 c -0.27574,-4.926 -3.84572,-7.93646 -9.06432,-8.21 -4.66713,0 -7.9643,2.18944 -7.9643,7.11517 0,13.40962 38.72145,7.389 38.72145,33.66055 0,13.68317 -10.43428,24.6295 -28.55999,24.6295 z"
         id="path838" />
      <path
         class="cls-2"
         d="m 507.07858,55.05835 c 9.33713,0 15.65287,4.105 19.22285,9.57817 v -8.75717 h 18.94713 v 62.12153 h -18.94713 v -8.75718 c -3.57,5.47316 -9.88572,9.57818 -19.22285,9.57818 -15.10428,0 -27.46285,-12.31506 -27.46285,-32.29213 -0.27286,-19.15635 12.08284,-31.4714 27.46285,-31.4714 z M 512.57,71.47812 c -7.14,0 -13.45571,5.19959 -13.45571,15.05163 0,9.85175 6.31573,15.32492 13.45571,15.32492 7.13998,0 13.4557,-5.47317 13.4557,-15.32492 0,-9.57818 -6.3157,-15.05163 -13.4557,-15.05163 z"
         id="path840" />
      <path
         class="cls-2"
         d="m 556.50711,71.5 h -6.86424 V 55.87877 h 6.86424 v -1.642 c 0,-16.14592 9.8886,-24.35583 29.11146,-23.53486 v 16.41968 c -7.41571,-0.54743 -9.88568,1.642 -9.88568,8.21 v 0.54715 h 10.15854 v 15.5988 H 575.73289 V 118 h -18.95 V 71.5 Z"
         id="path842" />
      <path
         class="cls-2"
         d="m 618.0214,118.821 c -18.12283,0 -31.5785,-12.31475 -31.5785,-32.01855 0,-19.7035 12.90712,-32.01826 31.5785,-32.01826 18.12577,0 31.03289,12.0409 31.03289,30.92369 a 38.25284,38.25284 0 0 1 -0.27574,5.47316 H 605.39 c 0.54855,8.21 5.76714,11.76763 11.8071,11.76763 a 10.398,10.398 0 0 0 9.8886,-6.0206 h 20.32 C 644.93575,109.5164 633.95,118.821 618.0214,118.821 Z M 605.66571,81.05572 h 24.16572 c 0,-6.8416 -5.2186,-10.67275 -11.53429,-10.67275 -6.59143,3e-5 -11.53429,3.55758 -12.63143,10.67275 z"
         id="path844" />
      <path
         class="cls-2"
         d="m 693.26714,55.05835 c 15.10428,0 27.73571,12.31505 27.73571,32.01854 0,19.42993 -12.08284,32.29213 -27.73571,32.29213 -9.06139,0 -15.65286,-4.37859 -19.22285,-9.57818 V 148 h -18.95 V 55.87935 h 18.95 v 8.75717 c 3.56999,-5.47316 10.16146,-9.57817 19.22285,-9.57817 z M 687.5,71.47812 c -7.14,0 -13.45571,5.47345 -13.45571,15.3252 0,9.85175 6.31571,15.32492 13.45571,15.32492 7.14,0 13.73145,-5.47317 13.73145,-15.32492 0,-9.85175 -6.59145,-15.3252 -13.73145,-15.3252 z"
         id="path846" />
      <path
         class="cls-2"
         d="m 752.03569,55.05835 c 9.33718,0 15.65287,4.105 19.2229,9.57817 v -8.75717 h 18.94708 v 62.12153 h -18.94708 v -8.75718 c -3.57,5.47316 -9.88572,9.57818 -19.2229,9.57818 -15.10423,0 -27.46285,-12.31506 -27.46285,-32.29213 0.27573,-19.15635 12.35862,-31.4714 27.46285,-31.4714 z m 6.04,16.41977 c -7.14006,0 -13.45575,5.19959 -13.45575,15.05163 0,9.85175 6.31569,15.32492 13.45575,15.32492 7.14,0 13.45567,-5.47317 13.45567,-15.32492 4e-5,-9.57818 -6.31565,-15.05163 -13.45563,-15.05163 z"
         id="path848" />
      <path
         class="cls-2"
         d="M 845.40427,55.8779 H 866 l -39.18293,91.1822 H 806.5 L 820.69005,116.08355 795,55.875 h 21.1472 l 14.42857,39.13632 z"
         id="path850" />
      <path
         class="cls-1"
         d="M 118,98.8129 0,0 v 118 h 118 z"
         id="path852" />
      <path
         class="cls-2"
         d="M 118,0 63.29094,45.77531 118,91.55091 Z"
         id="path854" />
    </g>
  </g>
</svg>
