<svg height="360" viewBox="145 145 640 360" width="640" xmlns="http://www.w3.org/2000/svg" xmlns:xlink="http://www.w3.org/1999/xlink"><linearGradient id="a" gradientUnits="userSpaceOnUse" x1="192.42169528013" x2="362.05813095817" y1="289.58656725908" y2="226.57884404955"><stop offset="0" stop-color="#005ab9"/><stop offset="1" stop-color="#1e3764"/></linearGradient><linearGradient id="b" gradientUnits="userSpaceOnUse" x1="391.44681673537" x2="571.56551566353" y1="246.77731774849" y2="185.32505002018"><stop offset="0" stop-color="#fba900"/><stop offset="1" stop-color="#ffd800"/></linearGradient><g stroke-width=".920733" transform="translate(87.59344 35.483211)"><path d="m145.518 432.36125v-66.99131h20.67164c15.02525 0 24.69119 5.64639 24.69119 17.3221 0 6.60347-3.06247 11.19717-7.36908 13.87671 6.22053 2.87076 9.85715 8.42154 9.85715 15.98208 0 13.49427-9.85715 19.81042-25.16948 19.81042zm13.30255-39.14228h9.85741c6.02909 0 8.61325-2.96686 8.61325-8.42155 0-5.83808-4.68955-7.75177-11.00595-7.75177h-7.4647zm0 27.46658h8.23032c8.03909 0 12.7284-2.00978 12.7284-8.32594 0-6.22054-4.01931-8.80446-11.57985-8.80446h-9.37889zm60.34556 12.82402c-13.11128 0-19.71481-6.41178-19.71481-15.02502 0-9.47471 7.75203-15.0255 19.23626-15.1211a59.927272 59.927272 0 0 1 8.5174.76586v-2.29709c0-5.83761-3.34954-8.61324-9.76155-8.61324a33.576169 33.576169 0 0 0 -12.63278 2.29708l-2.39248-10.3357c4.11517-1.72293 10.71864-2.87124 16.55649-2.87124 14.06818 0 21.05433 7.46494 21.05433 20.38457v26.60511c-3.9237 2.00976-11.29278 4.21077-20.86287 4.21077zm8.03886-10.81425v-10.24009a32.142048 32.142048 0 0 0 -6.7947-.76586c-4.40248 0-7.84762 1.72294-7.84762 6.22102 0 4.01955 2.87099 6.12493 7.94319 6.12493a14.981793 14.981793 0 0 0 6.69911-1.34zm22.12219 9.6659v-45.84134a58.43823 58.43823 0 0 1 21.62872-4.21077c13.97232 0 22.01141 6.89031 22.01141 19.61871v30.43343h-13.20695v-29.47636c0-6.60346-3.06247-9.66588-8.90032-9.66588a20.071827 20.071827 0 0 0 -8.42179 1.72292v37.41935zm89.79351-47.1809-2.48831 10.43132a29.151552 29.151552 0 0 0 -10.81424-2.39269c-7.75178 0-11.96278 5.45516-11.96278 14.45132 0 9.85716 4.40224 14.9294 12.63278 14.9294a27.093051 27.093051 0 0 0 10.62278-2.48831l2.10539 10.62302a32.211049 32.211049 0 0 1 -13.7811 2.7751c-15.88648 0-25.07388-9.85715-25.07388-25.4568 0-15.50356 9.09179-25.74364 24.3085-25.74364a36.888289 36.888289 0 0 1 14.45084 2.87131zm28.53108 48.32925c-14.73817 0-23.92557-10.24009-23.92557-25.64804 0-15.31233 9.1874-25.55241 23.92557-25.55241 14.8338 0 23.82972 10.24008 23.82972 25.55241 0 15.40794-8.99592 25.64804-23.82972 25.64804zm0-10.90985c6.79493 0 10.3357-5.64639 10.3357-14.73818 0-8.99616-3.54077-14.64255-10.3357-14.64255-6.69908 0-10.43155 5.64639-10.43155 14.64255 0 9.09177 3.73247 14.73816 10.43155 14.73816zm31.47237 9.76154v-45.84138a58.438294 58.438294 0 0 1 21.62872-4.21077c13.97232 0 22.01141 6.89031 22.01141 19.61871v30.43343h-13.20695v-29.47636c0-6.60346-3.06246-9.66588-8.90032-9.66588a20.071818 20.071818 0 0 0 -8.42177 1.72292v37.41935zm73.42469 1.14831c-11.3884 0-17.22625-6.22054-17.22625-18.85333v-20.67142h-6.50786v-10.5274h6.50786v-10.62302l13.20669-.66977v11.29279h10.62303v10.52739h-10.62303v20.48018c0 5.55077 2.2971 8.13471 6.60348 8.13471a23.206558 23.206558 0 0 0 5.07224-.57415l.67 10.62301a36.504185 36.504185 0 0 1 -8.32616.86101zm33.33516 0c-13.11128 0-19.71481-6.41177-19.71481-15.02501 0-9.47471 7.75202-15.0255 19.23626-15.1211a59.927401 59.927401 0 0 1 8.5174.76586v-2.29709c0-5.83761-3.34954-8.61324-9.76155-8.61324a33.576253 33.576253 0 0 0 -12.63279 2.29707l-2.39247-10.33569c4.11516-1.72293 10.71864-2.87124 16.55648-2.87124 14.06818 0 21.05434 7.46494 21.05434 20.38457v26.6051c-3.92369 2.00976-11.29278 4.21077-20.86286 4.21077zm8.03886-10.81424v-10.2401a32.142518 32.142518 0 0 0 -6.79494-.76586c-4.40224 0-7.84739 1.72294-7.84739 6.22102 0 4.01955 2.871 6.12493 7.9432 6.12493a14.981074 14.981074 0 0 0 6.69913-1.34zm58.00946-37.51498-2.48831 10.43131a29.151505 29.151505 0 0 0 -10.81424-2.39269c-7.75179 0-11.96279 5.45516-11.96279 14.45133 0 9.85716 4.40224 14.9294 12.63278 14.9294a27.093134 27.093134 0 0 0 10.62279-2.48831l2.10562 10.62302a32.21266 32.21266 0 0 1 -13.78109 2.7751c-15.88672 0-25.07412-9.85716-25.07412-25.45681 0-15.50355 9.09179-25.74363 24.30826-25.74363a36.88862 36.88862 0 0 1 14.4511 2.87128zm29.03666 48.32922c-11.38839 0-17.22624-6.22054-17.22624-18.85333v-20.67142h-6.5079v-10.5274h6.50786v-10.62302l13.2067-.66977v11.29279h10.62302v10.52739h-10.62298v20.48018c0 5.55077 2.29708 8.13471 6.60346 8.13471a23.206493 23.206493 0 0 0 5.07224-.57415l.67001 10.62301a36.504185 36.504185 0 0 1 -8.32617.86101z" fill="#1e3764"/><path d="m237.6387 331.87442c69.8839 0 104.82586-46.5894 139.76781-93.17881h-231.88851v93.17881z" fill="url(#a)"/><path d="m517.1744 145.51679c-69.8839 0-104.82586 46.58941-139.7678 93.17882h231.88852v-93.17882z" fill="url(#b)"/></g></svg>