<svg height="360" viewBox="0 0 640 360" width="640" xmlns="http://www.w3.org/2000/svg"><g fill="none" transform="translate(80 30)"><g transform="translate(.618 .615)"><path d="m426.542887 53.3385655h-22.270823-103.049742-22.459559l-15.098863 16.9030666-48.693834 54.6532489-15.098864 16.903066h-22.270823-101.1623838-22.2708233l14.7213917-17.090878 6.9832243-8.07591 14.7213917-17.0908782h-22.2708234-28.6878401-16.0425423c-12.2678264 0-22.27082326 10.3296522-22.27082326 22.7252342v43.947973 4.13186c0 12.583394 10.00299686 22.725234 22.27082326 22.725234h6.2282811 234.0323801 16.797486c12.267826 0 29.065312-7.512474 37.180951-16.903066l38.879572-43.947973z" fill="#005498"/><path d="m456.174406 2.06593036c12.267827 0 22.270824 10.32965174 22.270824 22.72523394v47.8920218c0 12.583394-10.002997 22.725234-22.270824 22.725234h-12.07909-32.462556-22.270824l14.910128-16.9030666 7.360696-8.4515333 14.910127-16.9030665h-147.780124l-78.702825 88.2715693h-146.6477092l105.1258352-118.3214654 3.963452-4.5074844c8.304375-9.20278067 25.10186-16.90306655 37.369686-16.90306655h5.095867 251.207337z" fill="#ffd800"/></g><path d="m479.06291 294.352391v-6.949038c0-.93906-.566207-1.502495-1.887358-1.502495h-4.529659c-1.32115 0-2.264829-.187812-2.453565-.751248-.377471-.563435-.377471-1.690306-.377471-3.568425v-26.293659h7.360695c.566208 0 .943679-.187812 1.321151-.563435.377471-.375624.566207-.751248.566207-1.314683v-7.324662c0-.563436-.188736-.93906-.566207-1.314683-.377472-.375624-.754943-.563436-1.321151-.563436h-7.360695v-9.578404c0-.563436-.188736-.93906-.377472-1.126871-.377472-.187812-.754943-.375624-1.132415-.375624h-.188736l-10.946675 1.878118c-.566208.187812-.943679.375624-1.321151.563436-.377472.375624-.566207.751247-.566207 1.126871v7.324662h-7.360696c-.566208 0-.943679.187812-1.321151.563436-.377471.375623-.566207.751247-.566207 1.314683v6.009979c0 .563435.188736.939059.566207 1.126871.377472.375624.754943.563436 1.321151.751247l7.360696 1.126872v26.293659c0 3.192801.377471 5.822167.943679 7.888097.754943 2.065931 1.698622 3.568425 2.831036 4.695297 1.321151 1.126871 2.831037 1.878118 4.718395 2.253742s4.152188.563435 6.605753.563435c1.32115 0 2.453565 0 3.58598-.187811.943679-.187812 2.264829-.375624 3.58598-.563436.943679 0 1.509886-.563436 1.509886-1.502495zm-39.257044-.939059v-8.07591c0-.563435-.188736-.939059-.566208-1.126871-.377471-.187812-.754943-.375623-1.132414-.375623h-.188736c-1.698622.187811-3.397244.375623-4.907131.375623-1.509886.187812-3.58598.187812-6.228281.187812-.943679 0-2.076093-.187812-2.831037-.563435-.943679-.375624-1.698622-.93906-2.453565-1.690307-.754943-.751248-1.132415-1.878119-1.509886-3.192802-.377472-1.314683-.566208-3.004989-.566208-5.07092v-7.512474c0-2.06593.188736-3.756237.566208-5.07092.377471-1.314682.943679-2.441554 1.509886-3.192801.754943-.751247 1.509886-1.314683 2.453565-1.690307.943679-.375623 1.887358-.563435 2.831037-.563435 2.642301 0 4.718395 0 6.228281.187812 1.509887.187811 3.208509.187811 4.907131.375623h.188736c.566207 0 .943679-.187812 1.132414-.375623.377472-.187812.566208-.563436.566208-1.126871v-8.07591c0-.751247-.188736-1.126871-.377472-1.314683-.377471-.187812-.754943-.563436-1.509886-.751247-1.321151-.375624-2.831037-.563436-4.907131-.93906-2.076093-.375623-4.340923-.375623-7.17196-.375623-6.417017 0-11.512883 1.878118-15.476335 5.822167-3.774715 3.944049-5.850809 9.578404-5.850809 17.090878v7.512474c0 7.324663 1.887358 13.14683 5.850809 17.090879 3.774716 3.944049 9.059318 5.822167 15.476335 5.822167 2.642301 0 5.095867-.187812 7.17196-.375623 2.076094-.375624 3.774716-.563436 4.907131-.93906.754943-.187812 1.132415-.375623 1.509886-.751247.377472-.187812.377472-.751248.377472-1.314683zm-59.074303-9.578404c-1.132414.563435-2.264829.939059-3.58598 1.314682-1.32115.375624-2.642301.563436-3.963451.563436-1.887358 0-3.397245-.187812-4.340924-.751247-.943678-.563436-1.32115-1.690307-1.32115-3.756237v-.751248c0-1.126871.188736-2.06593.377472-2.817178.188735-.751247.754943-1.502494 1.32115-2.06593.566207-.563435 1.509886-.939059 2.453565-1.126871s2.26483-.375624 3.963452-.375624h5.095866zm14.34392-21.973987c0-3.380613-.566207-6.197791-1.509886-8.451533s-2.453565-4.131861-4.152187-5.634356c-1.887358-1.502495-3.963452-2.629366-6.605753-3.192801-2.642301-.751248-5.662074-1.126871-8.870582-1.126871-3.019773 0-6.039545.187812-8.870582.563435-2.831037.375624-5.095867.751248-6.794489 1.314683-1.132415.375624-1.698622.939059-1.698622 2.065931v7.324662c0 .563435.188736.939059.377472 1.314683.377471.187811.754943.375623 1.132414.375623h.377472c.754943 0 1.698622-.187812 2.642301-.187812 1.132415 0 2.26483-.187811 3.58598-.187811 1.321151 0 2.831037-.187812 4.340923-.187812h4.340923c2.076094 0 3.774716.375623 4.907131 1.126871 1.132415.751247 1.887358 2.441554 1.887358 5.07092v3.192801h-4.907131c-7.738167 0-13.588977 1.126871-16.986221 3.568425-3.58598 2.441555-5.284602 6.385603-5.284602 11.644335v.751248c0 3.004989.377472 5.446543 1.321151 7.324662.943679 2.06593 2.076093 3.568425 3.58598 4.883108 1.509886 1.126871 3.019772 2.06593 4.90713 2.629366 1.887358.563435 3.774716.751247 5.85081.751247 2.642301 0 5.095866-.375623 6.983224-1.126871 1.887358-.751247 3.774716-1.690307 5.662074-3.00499v1.502495c0 .563436.188735.93906.566207 1.314683.377472.375624.754943.563436 1.321151.563436h10.191732c.566208 0 .943679-.187812 1.321151-.563436.377471-.375623.566207-.751247.566207-1.314683v-32.303638zm-48.505098 32.49145v-6.949038c0-.93906-.566207-1.502495-1.887358-1.502495h-4.529659c-1.32115 0-2.264829-.187812-2.453565-.751248-.377472-.563435-.377472-1.690306-.377472-3.568425v-26.293659h7.360696c.566208 0 .943679-.187812 1.321151-.563435.377471-.375624.566207-.751248.566207-1.314683v-7.324662c0-.563436-.188736-.93906-.566207-1.314683-.377472-.375624-.754943-.563436-1.321151-.563436h-7.360696v-9.578404c0-.563436-.188735-.93906-.377471-1.126871-.377472-.187812-.754943-.375624-1.132415-.375624h-.188736l-10.946676 1.878118c-.566207.187812-.943678.375624-1.32115.563436-.377472.375624-.566207.751247-.566207 1.126871v7.324662h-7.549432c-.566207 0-.943679.187812-1.321151.563436-.377471.375623-.566207.751247-.566207 1.314683v6.009979c0 .563435.188736.939059.566207 1.126871.377472.375624.754944.563436 1.321151.751247l7.360696 1.126872v26.293659c0 3.192801.377471 5.822167.943679 7.888097.754943 2.065931 1.698622 3.568425 2.831037 4.695297 1.32115 1.126871 2.831036 1.878118 4.718394 2.253742s4.152188.563435 6.605753.563435c1.321151 0 2.453565 0 3.58598-.187811.943679-.187812 2.26483-.375624 3.58598-.563436 1.132415 0 1.698622-.563436 1.698622-1.502495zm-39.634516-.187812v-30.049896c0-2.817178-.188736-5.446543-.754943-8.075909-.377472-2.441554-1.321151-4.695297-2.453565-6.573415-1.132415-1.878119-2.831037-3.380613-4.907131-4.319673-2.076094-1.126871-4.718395-1.690306-8.115639-1.690306-2.831037 0-5.473338.375623-7.738167 1.126871-2.26483.751247-4.529659 1.878118-7.17196 3.756237v-2.253742c0-.563436-.188736-.93906-.566208-1.314683-.377471-.375624-.754943-.563436-1.32115-.563436h-10.191733c-.566207 0-.943679.187812-1.32115.563436-.377472.375623-.566208.751247-.566208 1.314683v48.079833c0 .563436.188736.93906.566208 1.314683.377471.375624.754943.563436 1.32115.563436h10.946676c.566207 0 .943679-.187812 1.32115-.563436.377472-.375623.566208-.751247.566208-1.314683v-35.496439c1.509886-.751248 3.019772-1.502495 4.529659-2.065931 1.32115-.563435 2.831037-.751247 4.152187-.751247 1.321151 0 2.453565.187812 3.397244.375623.943679.187812 1.509887.751248 2.076094 1.314683.566207.751248.754943 1.502495.943679 2.629366s.188736 2.441554.188736 3.944049v30.049896c0 .563436.188736.93906.566207 1.314683.377472.375624.754943.563436 1.321151.563436h10.946676c.566207 0 .943679-.187812 1.32115-.563436.754943-.375623.943679-.939059.943679-1.314683zm-68.699828-20.847115c0 7.324662-2.642301 11.080899-8.115639 11.080899-2.642301 0-4.718394-.939059-6.039545-2.817178-1.321151-1.878118-2.076094-4.695296-2.076094-8.263721v-6.385603c0-3.756237.754943-6.385603 2.076094-8.263721 1.321151-1.878119 3.397244-2.817178 6.039545-2.817178 5.284602 0 8.115639 3.756237 8.115639 11.080899zm14.721392-6.385603c0-3.568425-.566207-6.949038-1.509886-9.766216s-2.453566-5.258732-4.340924-7.324662c-1.887357-2.065931-4.340923-3.568426-7.17196-4.695297-2.831036-1.126871-6.039545-1.690306-9.814261-1.690306s-6.983224.563435-9.814261 1.690306-5.284602 2.629366-7.17196 4.695297c-1.887358 2.06593-3.397244 4.507484-4.340923 7.324662s-1.509886 6.197791-1.509886 9.766216v6.385603c0 3.568425.566207 6.949038 1.509886 9.766216s2.453565 5.258732 4.340923 7.324662c1.887358 2.065931 4.340923 3.568425 7.17196 4.695297 2.831037 1.126871 6.039545 1.690306 9.814261 1.690306s6.983225-.563435 9.814261-1.690306c2.831037-1.126872 5.284603-2.629366 7.17196-4.695297 1.887358-2.06593 3.397245-4.507484 4.340924-7.324662s1.509886-6.197791 1.509886-9.766216zm-50.392456 26.481471v-8.07591c0-.563435-.188736-.939059-.566208-1.126871-.377471-.187812-.754943-.375623-1.32115-.375623h-.188736c-1.698622.187811-3.397244.375623-4.90713.375623-1.509887.187812-3.58598.187812-6.228281.187812-.943679 0-2.076094-.187812-2.831037-.563435-.943679-.375624-1.698622-.93906-2.453566-1.690307-.754943-.751248-1.132414-1.878119-1.509886-3.192802s-.566207-3.004989-.566207-5.07092v-7.512474c0-2.06593.188735-3.756237.566207-5.07092.377472-1.314682.943679-2.441554 1.509886-3.192801.754944-.751247 1.509887-1.314683 2.453566-1.690307.943679-.375623 1.887358-.563435 2.831037-.563435 2.642301 0 4.718394 0 6.228281.187812 1.509886.187811 3.208508.187811 4.90713.375623h.188736c.566207 0 .943679-.187812 1.32115-.375623.377472-.187812.566208-.563436.566208-1.126871v-8.07591c0-.751247-.188736-1.126871-.377472-1.314683-.377471-.187812-.754943-.563436-1.509886-.751247-1.321151-.375624-2.831037-.563436-4.907131-.93906-2.076093-.375623-4.340923-.375623-7.17196-.375623-6.417017 0-11.512883 1.878118-15.476335 5.822167-3.774715 3.944049-5.850809 9.578404-5.850809 17.090878v7.512474c0 7.324663 1.887358 13.14683 5.850809 17.090879 3.774716 3.944049 9.059318 5.822167 15.476335 5.822167 2.642301 0 5.095867-.187812 7.17196-.375623 2.076094-.375624 3.58598-.563436 4.907131-.93906.754943-.187812 1.132415-.375623 1.509886-.751247.188736-.187812.377472-.751248.377472-1.314683zm-44.730383.751247v-30.049896c0-2.817178-.188735-5.446543-.754943-8.075909-.377471-2.441554-1.32115-4.695297-2.453565-6.573415-1.132415-1.878119-2.831037-3.380613-4.907131-4.319673-2.076093-1.126871-4.718394-1.690306-8.115639-1.690306-2.831036 0-5.473337.375623-7.738167 1.126871-2.264829.751247-4.529659 1.878118-7.17196 3.756237v-2.253742c0-.563436-.188736-.93906-.566207-1.314683-.377472-.375624-.754944-.563436-1.321151-.563436h-10.191733c-.566207 0-.943679.187812-1.32115.563436-.377472.375623-.566208.751247-.566208 1.314683v48.079833c0 .563436.188736.93906.566208 1.314683.377471.375624.754943.563436 1.32115.563436h10.946676c.566208 0 .943679-.187812 1.321151-.563436.377471-.375623.566207-.751247.566207-1.314683v-35.496439c1.509886-.751248 3.019773-1.502495 4.529659-2.065931 1.321151-.563435 2.831037-.751247 4.152188-.751247 1.32115 0 2.453565.187812 3.397244.375623.943679.187812 1.509886.751248 2.076093 1.314683.566208.751248.754944 1.502495.943679 2.629366.188736 1.126871.188736 2.441554.188736 3.944049v30.049896c0 .563436.188736.93906.566208 1.314683.377471.375624.754943.563436 1.32115.563436h10.946676c.566207 0 .943679-.187812 1.32115-.563436.754944-.375623.943679-.939059.943679-1.314683zm-70.2097137-10.329651c-1.1324147.563435-2.2648295.939059-3.58598 1.314682-1.3211506.375624-2.6423011.563436-3.9634516.563436-1.8873579 0-3.3972443-.187812-4.3409232-.751247-.943679-.563436-1.3211506-1.690307-1.3211506-3.756237v-.751248c0-1.126871.1887358-2.06593.3774716-2.817178.1887358-.751247.7549432-1.502494 1.3211506-2.06593.5662073-.563435 1.5098863-.939059 2.4535652-1.126871.943679-.187812 2.2648295-.375624 3.9634516-.375624h5.0958664zm14.5326557-21.973987c0-3.380613-.566207-6.197791-1.509886-8.451533-.9436791-2.253742-2.4535654-4.131861-4.1521875-5.634356-1.8873579-1.502495-3.9634516-2.629366-6.6057527-3.192801-2.6423011-.751248-5.6620737-1.126871-8.8705822-1.126871-3.0197726 0-6.0395453.187812-8.8705821.563435-2.8310369.375624-5.0958664.751248-6.7944885 1.314683-1.1324148.375624-1.6986221.939059-1.6986221 2.065931v7.324662c0 .563435.1887358.939059.3774716 1.314683.3774715.187811.7549431.375623 1.1324147.375623h.3774716c.7549431 0 1.6986221-.187812 2.6423011-.187812 1.1324147 0 2.2648294-.187811 3.7747158-.187811 1.3211505 0 2.8310368-.187812 4.3409232-.187812h4.3409231c2.0760937 0 3.7747159.375623 4.9071306 1.126871 1.1324147.751247 1.8873579 2.441554 1.8873579 5.07092v3.192801h-4.9071306c-7.7381674 0-13.5889769 1.126871-16.9862211 3.568425-3.58598 2.441555-5.2846022 6.385603-5.2846022 11.644335v.751248c0 3.004989.3774716 5.446543 1.3211506 7.324662.9436789 2.06593 2.0760937 3.568425 3.58598 4.883108 1.5098863 1.126871 3.0197727 2.06593 4.9071306 2.629366 1.8873579.563435 3.7747158.751247 5.8508095.751247 2.642301 0 5.0958663-.375623 6.9832242-1.126871 1.8873579-.751247 3.7747158-1.690307 5.6620738-3.00499v1.502495c0 .563436.1887357.93906.5662073 1.314683.3774716.375624.7549432.563436 1.3211506.563436h10.1917328c.566207 0 .943679-.187812 1.32115-.563436.377472-.375623.566208-.751247.566208-1.314683v-32.303638zm-64.9251118 14.273701c0 2.441554-.943679 4.507484-2.6423011 5.822167s-5.0958663 2.06593-9.6255253 2.06593h-1.5098864c-.7549431 0-1.5098863 0-2.2648294 0-.7549432 0-1.5098864 0-2.2648295 0h-1.5098864v-16.903066h10.1917327c3.5859801 0 6.2282811.751247 7.5494317 2.441554 1.3211505 1.690307 2.0760937 3.568425 2.0760937 5.634355zm-.3774716-26.857095c0 .939059-.1887358 1.878119-.3774716 2.817178-.3774716.939059-.7549432 1.690306-1.5098863 2.253742-.7549432.563436-1.6986221 1.126871-2.8310369 1.502495-1.1324147.375623-2.642301.563435-4.529659.563435h-10.1917327v-15.588383h1.3211506 2.0760937 2.0760937 1.5098863c4.7183948 0 7.9269032.563435 9.8142611 1.690306 1.8873579 1.126872 2.8310369 3.00499 2.8310369 5.446544zm15.4763348 25.918035c0-3.192801-.7549431-5.822167-2.2648295-8.075909-1.5098863-2.253742-3.3972442-4.131861-5.8508095-5.258732 2.4535653-1.126871 4.3409232-3.00499 5.6620738-5.258732 1.3211505-2.441554 2.0760936-5.07092 2.0760936-7.888098v-1.690306c0-3.568425-.7549431-6.573415-2.0760936-9.014969-1.3211506-2.441554-3.3972443-4.319673-5.8508096-5.822167-2.4535652-1.502495-5.4733379-2.441554-9.0593179-3.192802-3.58598-.563435-7.3606959-.939059-11.701619-.939059-1.5098864 0-3.0197727 0-4.529659 0s-3.0197727.187812-4.529659.187812-2.8310369.187812-4.1521874.375623c-1.32115053.187812-2.26482948.187812-3.01977265.375624-1.69862211.375624-3.01977265.751248-3.77471581 1.690307-.75494316.751247-1.13241474 2.253742-1.13241474 4.319672v55.028873c0 2.06593.37747158 3.380613 1.13241474 4.319672.75494316.751248 2.0760937 1.314683 3.77471581 1.690307.94367896.187812 2.0760937.375624 3.20850845.375624 1.3211505.187811 2.6423011.187811 4.1521874.375623s3.0197726.187812 4.529659.187812h4.7183947c3.9634516 0 7.7381675-.375624 11.1354117-.939059 3.3972442-.563436 6.4170169-1.690307 9.0593179-3.192802 2.6423011-1.502494 4.529659-3.568425 6.2282811-6.197791 1.5098864-2.629366 2.2648295-6.009979 2.2648295-9.954028z" fill="#005498"/></g></svg>