<?xml version="1.0" encoding="UTF-8" standalone="no"?>
<svg
   width="51"
   height="32"
   viewBox="0 0 51 32"
   version="1.1"
   id="svg973"
   sodipodi:docname="method-bancontact-wc-51x32.svg"
   inkscape:version="1.1 (c4e8f9e, 2021-05-24)"
   xmlns:inkscape="http://www.inkscape.org/namespaces/inkscape"
   xmlns:sodipodi="http://sodipodi.sourceforge.net/DTD/sodipodi-0.dtd"
   xmlns="http://www.w3.org/2000/svg"
   xmlns:svg="http://www.w3.org/2000/svg">
  <defs
     id="defs977">
    <linearGradient
       id="Bancontact_blauw_rgb"
       x1="196.4595"
       y1="301.98911"
       x2="380.69943"
       y2="233.55724"
       gradientUnits="userSpaceOnUse"
       gradientTransform="matrix(0.92073654,0,0,0.92073654,-425.30088,-228.83977)">
      <stop
         offset="0"
         stop-color="#005ab9"
         id="stop826" />
      <stop
         offset="1"
         stop-color="#1e3764"
         id="stop828" />
    </linearGradient>
    <linearGradient
       id="Bancontact_geel_rgb"
       x1="412.6181"
       y1="255.49454"
       x2="608.24268"
       y2="188.75203"
       gradientUnits="userSpaceOnUse"
       gradientTransform="matrix(0.92073654,0,0,0.92073654,-425.30088,-228.83977)">
      <stop
         offset="0"
         stop-color="#fba900"
         id="stop831" />
      <stop
         offset="1"
         stop-color="#ffd800"
         id="stop833" />
    </linearGradient>
  </defs>
  <sodipodi:namedview
     id="namedview975"
     pagecolor="#ffffff"
     bordercolor="#666666"
     borderopacity="1.0"
     inkscape:pageshadow="2"
     inkscape:pageopacity="0.0"
     inkscape:pagecheckerboard="0"
     showgrid="false"
     inkscape:zoom="1.75"
     inkscape:cx="-109.14286"
     inkscape:cy="39.142857"
     inkscape:window-width="1481"
     inkscape:window-height="885"
     inkscape:window-x="2105"
     inkscape:window-y="321"
     inkscape:window-maximized="0"
     inkscape:current-layer="g971" />
  <g
     fill="none"
     fill-rule="evenodd"
     id="g971">
    <rect
       width="50"
       height="31"
       x=".5"
       y=".5"
       fill="#FFF"
       stroke="#D0D0D0"
       id="rect959" />
    <g
       id="g1334"
       transform="matrix(0.05116319,0,0,0.05116319,28.540555,13.485695)">
      <path
         id="Bancontact"
         class="cls-1"
         d="m -291.31713,191.98732 v -66.99131 h 20.67164 c 15.02525,0 24.69119,5.64639 24.69119,17.3221 0,6.60347 -3.06247,11.19717 -7.36908,13.87671 6.22053,2.87076 9.85715,8.42154 9.85715,15.98208 0,13.49427 -9.85715,19.81042 -25.16948,19.81042 z m 13.30255,-39.14228 h 9.85741 c 6.02909,0 8.61325,-2.96686 8.61325,-8.42155 0,-5.83808 -4.68955,-7.75177 -11.00595,-7.75177 h -7.4647 z m 0,27.46658 h 8.23032 c 8.03909,0 12.7284,-2.00978 12.7284,-8.32594 0,-6.22054 -4.01931,-8.80446 -11.57985,-8.80446 h -9.37889 z m 60.34556,12.82402 c -13.11128,0 -19.71481,-6.41178 -19.71481,-15.02502 0,-9.47471 7.75203,-15.0255 19.23626,-15.1211 a 59.927272,59.927272 0 0 1 8.5174,0.76586 v -2.29709 c 0,-5.83761 -3.34954,-8.61324 -9.76155,-8.61324 a 33.576169,33.576169 0 0 0 -12.63278,2.29708 l -2.39248,-10.3357 c 4.11517,-1.72293 10.71864,-2.87124 16.55649,-2.87124 14.06818,0 21.05433,7.46494 21.05433,20.38457 v 26.60511 c -3.9237,2.00976 -11.29278,4.21077 -20.86287,4.21077 z m 8.03886,-10.81425 V 172.0813 a 32.142048,32.142048 0 0 0 -6.7947,-0.76586 c -4.40248,0 -7.84762,1.72294 -7.84762,6.22102 0,4.01955 2.87099,6.12493 7.94319,6.12493 a 14.981793,14.981793 0 0 0 6.69911,-1.34 z m 22.12219,9.6659 v -45.84134 a 58.43823,58.43823 0 0 1 21.62872,-4.21077 c 13.97232,0 22.01141,6.89031 22.01141,19.61871 v 30.43343 h -13.20695 v -29.47636 c 0,-6.60346 -3.06247,-9.66588 -8.90032,-9.66588 a 20.071827,20.071827 0 0 0 -8.42179,1.72292 v 37.41935 z m 89.79351,-47.1809 -2.48831,10.43132 a 29.151552,29.151552 0 0 0 -10.81424,-2.39269 c -7.75178,0 -11.96278,5.45516 -11.96278,14.45132 0,9.85716 4.40224,14.9294 12.63278,14.9294 a 27.093051,27.093051 0 0 0 10.62278,-2.48831 l 2.10539,10.62302 a 32.211049,32.211049 0 0 1 -13.7811,2.7751 c -15.88648,0 -25.07388,-9.85715 -25.07388,-25.4568 0,-15.50356 9.09179,-25.74364 24.3085,-25.74364 a 36.888289,36.888289 0 0 1 14.45084,2.87131 z m 28.53108,48.32925 c -14.73817,0 -23.92557,-10.24009 -23.92557,-25.64804 0,-15.31233 9.1874,-25.55241 23.92557,-25.55241 14.8338,0 23.82972,10.24008 23.82972,25.55241 0,15.40794 -8.99592,25.64804 -23.82972,25.64804 z m 0,-10.90985 c 6.79493,0 10.3357,-5.64639 10.3357,-14.73818 0,-8.99616 -3.54077,-14.64255 -10.3357,-14.64255 -6.69908,0 -10.43155,5.64639 -10.43155,14.64255 0,9.09177 3.73247,14.73816 10.43155,14.73816 z m 31.47237,9.76154 v -45.84138 a 58.438294,58.438294 0 0 1 21.62872,-4.21077 c 13.97232,0 22.01141,6.89031 22.01141,19.61871 v 30.43343 H -7.27783 v -29.47636 c 0,-6.60346 -3.06246,-9.66588 -8.90032,-9.66588 a 20.071818,20.071818 0 0 0 -8.42177,1.72292 v 37.41935 z m 73.42469,1.14831 c -11.3884,0 -17.22625,-6.22054 -17.22625,-18.85333 v -20.67142 h -6.50786 v -10.5274 h 6.50786 v -10.62302 l 13.20669,-0.66977 v 11.29279 h 10.62303 v 10.52739 H 31.69412 v 20.48018 c 0,5.55077 2.2971,8.13471 6.60348,8.13471 a 23.206558,23.206558 0 0 0 5.07224,-0.57415 l 0.67,10.62301 a 36.504185,36.504185 0 0 1 -8.32616,0.86101 z m 33.33516,0 c -13.11128,0 -19.71481,-6.41177 -19.71481,-15.02501 0,-9.47471 7.75202,-15.0255 19.23626,-15.1211 a 59.927401,59.927401 0 0 1 8.5174,0.76586 v -2.29709 c 0,-5.83761 -3.34954,-8.61324 -9.76155,-8.61324 a 33.576253,33.576253 0 0 0 -12.63279,2.29707 l -2.39247,-10.33569 c 4.11516,-1.72293 10.71864,-2.87124 16.55648,-2.87124 14.06818,0 21.05434,7.46494 21.05434,20.38457 v 26.6051 c -3.92369,2.00976 -11.29278,4.21077 -20.86286,4.21077 z M 77.0877,182.3214 v -10.2401 a 32.142518,32.142518 0 0 0 -6.79494,-0.76586 c -4.40224,0 -7.84739,1.72294 -7.84739,6.22102 0,4.01955 2.871,6.12493 7.9432,6.12493 a 14.981074,14.981074 0 0 0 6.69913,-1.34 z m 58.00946,-37.51498 -2.48831,10.43131 a 29.151505,29.151505 0 0 0 -10.81424,-2.39269 c -7.75179,0 -11.96279,5.45516 -11.96279,14.45133 0,9.85716 4.40224,14.9294 12.63278,14.9294 a 27.093134,27.093134 0 0 0 10.62279,-2.48831 l 2.10562,10.62302 a 32.21266,32.21266 0 0 1 -13.78109,2.7751 c -15.88672,0 -25.07412,-9.85716 -25.07412,-25.45681 0,-15.50355 9.09179,-25.74363 24.30826,-25.74363 a 36.88862,36.88862 0 0 1 14.4511,2.87128 z m 29.03666,48.32922 c -11.38839,0 -17.22624,-6.22054 -17.22624,-18.85333 v -20.67142 h -6.5079 v -10.5274 h 6.50786 v -10.62302 l 13.2067,-0.66977 v 11.29279 h 10.62302 v 10.52739 h -10.62298 v 20.48018 c 0,5.55077 2.29708,8.13471 6.60346,8.13471 a 23.206493,23.206493 0 0 0 5.07224,-0.57415 l 0.67001,10.62301 a 36.504185,36.504185 0 0 1 -8.32617,0.86101 z"
         style="fill:#1e3764;stroke-width:0.920733" />
      <path
         id="blue-symbol"
         class="cls-2"
         d="m -199.19643,91.50049 c 69.8839,0 104.82586,-46.5894 139.76781,-93.17881 h -231.88851 v 93.17881 z"
         style="fill:url(#Bancontact_blauw_rgb);stroke-width:0.920733" />
      <path
         id="yellow-symbol"
         class="cls-3"
         d="m 80.33927,-94.85714 c -69.8839,0 -104.82586,46.58941 -139.7678,93.17882 h 231.88852 v -93.17882 z"
         style="fill:url(#Bancontact_geel_rgb);stroke-width:0.920733" />
    </g>
  </g>
</svg>
