<svg fill="none" height="32" viewBox="0 0 51 32" width="51" xmlns="http://www.w3.org/2000/svg" xmlns:xlink="http://www.w3.org/1999/xlink"><linearGradient id="a" gradientUnits="userSpaceOnUse" x1="11.583" x2="24.5412" y1="16.0052" y2="11.1921"><stop offset="0" stop-color="#005ab9"/><stop offset="1" stop-color="#1e3764"/></linearGradient><linearGradient id="b" gradientUnits="userSpaceOnUse" x1="26.7876" x2="40.5466" y1="12.7353" y2="8.04098"><stop offset="0" stop-color="#fba900"/><stop offset="1" stop-color="#ffd800"/></linearGradient><clipPath id="c"><path d="m0 0h51v32h-51z"/></clipPath><g clip-path="url(#c)" clip-rule="evenodd" fill-rule="evenodd"><path d="m.5.5h50v31h-50z" fill="#fff" stroke="#d0d0d0"/><path d="m8 26.9118v-5.1174h1.5791c1.1477 0 1.886.4313 1.886 1.3232 0 .5045-.2339.8553-.5628 1.0601.4751.2192.7529.6432.7529 1.2208 0 1.0308-.7529 1.5133-1.92264 1.5133zm1.01611-2.99h.75304c.46055 0 .65795-.2267.65795-.6434 0-.4459-.3583-.5921-.84075-.5921h-.57024zm0 2.0981h.62868c.61421 0 .97241-.1535.97241-.636 0-.4751-.3071-.6726-.88456-.6726h-.71653zm4.60969.9796c-1.0015 0-1.506-.4898-1.506-1.1477 0-.7238.5922-1.1478 1.4694-1.1551.2181.004.4355.0235.6507.0585v-.1755c0-.4459-.2559-.6579-.7457-.6579-.3299-.0042-.6576.0554-.965.1754l-.1827-.7895c.3143-.1316.8188-.2193 1.2647-.2193 1.0747 0 1.6083.5702 1.6083 1.5571v2.0324c-.2997.1535-.8626.3215-1.5937.3215zm.6141-.8261v-.7822c-.1704-.0379-.3444-.0575-.519-.0585-.3363 0-.5995.1316-.5995.4752 0 .307.2193.4678.6068.4678.1762.0058.3513-.0292.5117-.1023zm1.6899.7384v-3.5018c.5253-.211 1.086-.3201 1.6522-.3216 1.0673 0 1.6814.5264 1.6814 1.4986v2.3248h-1.0089v-2.2517c0-.5044-.2339-.7383-.6799-.7383-.2214-.0031-.4409.0418-.6433.1316v2.8584zm6.8592-3.604-.1901.7967c-.2612-.1131-.5416-.1752-.8261-.1827-.5922 0-.9138.4167-.9138 1.1039 0 .753.3362 1.1404.965 1.1404.2806-.0077.5566-.0724.8114-.1901l.1608.8115c-.3309.1473-.6904.2197-1.0526.212-1.2136 0-1.9154-.753-1.9154-1.9446 0-1.1843.6945-1.9665 1.8569-1.9665.3789-.0019.7544.0727 1.1038.2193zm2.1793 3.6917c-1.1258 0-1.8276-.7822-1.8276-1.9592 0-1.1697.7018-1.9519 1.8277-1.9519 1.1331 0 1.8203.7822 1.8203 1.9519 0 1.177-.6873 1.9592-1.8204 1.9592zm0-.8334c.5192 0 .7896-.4313.7896-1.1258 0-.6872-.2704-1.1185-.7895-1.1185-.5118 0-.7969.4313-.7969 1.1185 0 .6945.2851 1.1258.7968 1.1258zm2.4042.7457v-3.5018c.5254-.211 1.0861-.3201 1.6522-.3216 1.0673 0 1.6814.5264 1.6814 1.4986v2.3248h-1.0089v-2.2517c0-.5044-.2339-.7383-.6798-.7383-.2215-.0031-.4409.0418-.6434.1316v2.8584zm5.6088.0877c-.87 0-1.3159-.4751-1.3159-1.4402v-1.579h-.4971v-.8042h.4971v-.8115l1.0088-.0512v.8627h.8115v.8042h-.8115v1.5644c0 .424.1755.6214.5045.6214.1304-.0003.2603-.015.3874-.0438l.0512.8115c-.2088.0462-.4222.0682-.636.0656zm2.5464 0c-1.0015 0-1.506-.4898-1.506-1.1477 0-.7238.5922-1.1478 1.4694-1.1551.218.004.4355.0235.6507.0585v-.1755c0-.4459-.2559-.6579-.7457-.6579-.33-.0042-.6576.0554-.965.1754l-.1827-.7895c.3143-.1316.8188-.2193 1.2646-.2193 1.0747 0 1.6084.5702 1.6084 1.5571v2.0324c-.2998.1535-.8627.3215-1.5937.3215zm.6141-.8261v-.7822c-.1705-.0379-.3445-.0575-.5191-.0585-.3362 0-.5995.1316-.5995.4752 0 .307.2193.4678.6069.4678.1761.0058.3513-.0292.5117-.1023zm4.4313-2.8657-.1902.7969c-.2612-.1132-.5415-.1752-.826-.1828-.5922 0-.9139.4167-.9139 1.1039 0 .753.3363 1.1404.9651 1.1404.2805-.0077.5566-.0724.8114-.1901l.1608.8115c-.331.1473-.6904.2197-1.0527.212-1.2136 0-1.9153-.753-1.9153-1.9446 0-1.1843.6945-1.9665 1.8568-1.9665.379-.0019.7545.0727 1.104.2193zm2.218 3.6918c-.87 0-1.3159-.4751-1.3159-1.4402v-1.579h-.4971v-.8042h.4971v-.8115l1.0088-.0512v.8627h.8115v.8042h-.8115v1.5644c0 .424.1755.6214.5045.6214.1303-.0003.2603-.015.3874-.0438l.0512.8115c-.2088.0462-.4222.0682-.636.0656z" fill="#1e3764"/><path d="m15.037 19.2354c5.3382 0 8.0073-3.5589 10.6765-7.1177h-17.7135v7.1177z" fill="url(#a)"/><path d="m36.3915 5.00008c-5.3383 0-8.0075 3.55892-10.6767 7.11782h17.7136v-7.1179z" fill="url(#b)"/></g></svg>