<svg xmlns="http://www.w3.org/2000/svg" width="51" height="32" viewBox="0 0 51 32">
  <g fill="none" fill-rule="evenodd">
    <rect width="50" height="31" x=".5" y=".5" fill="#FFF" stroke="#D0D0D0"/>
    <g fill-rule="nonzero" transform="translate(14 8.5)">
      <g transform="translate(.03 .03)">
        <path fill="#005498" d="M21.3271444,2.66692828 L20.2136032,2.66692828 L15.0611161,2.66692828 L13.9381381,2.66692828 L13.183195,3.5120816 L10.7485033,6.24474403 L10.7485033,6.24474403 L9.99356012,7.08989736 L8.88001895,7.08989736 L3.82189976,7.08989736 L2.7083586,7.08989736 L3.44442818,6.23535344 L3.79358939,5.83155796 L4.52965898,4.97701404 L3.41611781,4.97701404 L1.9817258,4.97701404 L1.17959869,4.97701404 C0.566207372,4.97701404 0.0660575268,5.49349663 0.0660575268,6.11327573 L0.0660575268,6.11327573 L0.0660575268,8.31067438 L0.0660575268,8.51726742 C0.0660575268,9.14643712 0.566207372,9.65352912 1.17959869,9.65352912 L1.49101275,9.65352912 L13.1926318,9.65352912 L14.032506,9.65352912 C14.6458974,9.65352912 15.4857716,9.27790541 15.8915536,8.80837579 L17.8355322,6.61097714 L21.3271444,2.66692828 Z"/>
        <path fill="#FFD800" d="M22.8087203,0.103296518 C23.4221116,0.103296518 23.9222615,0.619779107 23.9222615,1.23955821 L23.9222615,3.63415931 C23.9222615,4.26332901 23.4221116,4.770421 22.8087203,4.770421 L22.2047658,4.770421 L20.581638,4.770421 L19.4680968,4.770421 L20.2136032,3.92526768 L20.2136032,3.92526768 L20.581638,3.50269101 L21.3271444,2.65753768 L13.9381381,2.65753768 L10.0029969,7.07111617 L2.67061144,7.07111617 L7.92690321,1.15504288 L8.12507579,0.92966866 C8.54029453,0.469529626 9.3801688,0.0845153327 9.99356012,0.0845153327 L10.2483534,0.0845153327 L22.8087203,0.0845153327 L22.8087203,0.103296518 Z"/>
      </g>
      <path fill="#005498" d="M23.9531455,14.7176196 L23.9531455,14.3701676 C23.9531455,14.3232147 23.9248351,14.2950429 23.8587776,14.2950429 L23.6322947,14.2950429 C23.5662371,14.2950429 23.5190532,14.2856523 23.5096164,14.2574805 C23.4907428,14.2293087 23.4907428,14.1729652 23.4907428,14.0790593 L23.4907428,12.7643763 L23.8587776,12.7643763 C23.887088,12.7643763 23.9059616,12.7549857 23.9248351,12.7362045 C23.9437087,12.7174233 23.9531455,12.6986422 23.9531455,12.6704704 L23.9531455,12.3042373 C23.9531455,12.2760655 23.9437087,12.2572843 23.9248351,12.2385031 C23.9059616,12.2197219 23.887088,12.2103314 23.8587776,12.2103314 L23.4907428,12.2103314 L23.4907428,11.7314111 C23.4907428,11.7032394 23.481306,11.6844582 23.4718692,11.6750676 C23.4529957,11.665677 23.4341221,11.6562864 23.4152485,11.6562864 L23.4058117,11.6562864 L22.8584779,11.7501923 C22.8301676,11.7595829 22.811294,11.7689735 22.7924204,11.7783641 C22.7735468,11.7971453 22.76411,11.8159265 22.76411,11.8347077 L22.76411,12.2009408 L22.3960752,12.2009408 C22.3677649,12.2009408 22.3488913,12.2103314 22.3300177,12.2291125 C22.3111441,12.2478937 22.3017073,12.2666749 22.3017073,12.2948467 L22.3017073,12.5953456 C22.3017073,12.6235174 22.3111441,12.6422986 22.3300177,12.6516892 C22.3488913,12.6704704 22.3677649,12.679861 22.3960752,12.6892516 L22.76411,12.7455951 L22.76411,14.0602781 C22.76411,14.2199182 22.7829836,14.3513864 22.811294,14.454683 C22.8490411,14.5579795 22.8962251,14.6331042 22.9528458,14.6894478 C23.0189033,14.7457913 23.0943977,14.7833537 23.1887656,14.8021349 C23.2831335,14.8209161 23.3963749,14.8303067 23.5190532,14.8303067 C23.5851107,14.8303067 23.6417315,14.8303067 23.6983522,14.8209161 C23.7455361,14.8115255 23.8115937,14.8021349 23.8776512,14.7927443 C23.9248351,14.7927443 23.9531455,14.7645725 23.9531455,14.7176196 L23.9531455,14.7176196 Z M21.9902933,14.6706666 L21.9902933,14.2668711 C21.9902933,14.2386993 21.9808565,14.2199182 21.9619829,14.2105276 C21.9431093,14.201137 21.9242358,14.1917464 21.9053622,14.1917464 L21.8959254,14.1917464 C21.8109943,14.201137 21.7260632,14.2105276 21.6505689,14.2105276 C21.5750746,14.2199182 21.4712699,14.2199182 21.3391548,14.2199182 C21.2919709,14.2199182 21.2353501,14.2105276 21.197603,14.1917464 C21.150419,14.1729652 21.1126719,14.1447934 21.0749247,14.107231 C21.0371775,14.0696687 21.018304,14.0133251 20.9994304,13.947591 C20.9805568,13.8818568 20.97112,13.7973415 20.97112,13.694045 L20.97112,13.3184213 C20.97112,13.2151248 20.9805568,13.1306094 20.9994304,13.0648753 C21.018304,12.9991411 21.0466143,12.9427976 21.0749247,12.9052352 C21.1126719,12.8676728 21.150419,12.8395011 21.197603,12.8207199 C21.2447869,12.8019387 21.2919709,12.7925481 21.3391548,12.7925481 C21.4712699,12.7925481 21.5750746,12.7925481 21.6505689,12.8019387 C21.7260632,12.8113293 21.8109943,12.8113293 21.8959254,12.8207199 L21.9053622,12.8207199 C21.9336726,12.8207199 21.9525461,12.8113293 21.9619829,12.8019387 C21.9808565,12.7925481 21.9902933,12.7737669 21.9902933,12.7455951 L21.9902933,12.3417996 C21.9902933,12.3042373 21.9808565,12.2854561 21.9714197,12.2760655 C21.9525461,12.2666749 21.9336726,12.2478937 21.8959254,12.2385031 C21.8298679,12.2197219 21.7543736,12.2103314 21.6505689,12.1915502 C21.5467642,12.172769 21.4335227,12.172769 21.2919709,12.172769 C20.97112,12.172769 20.7163267,12.2666749 20.5181541,12.4638774 C20.3294183,12.6610798 20.2256136,12.9427976 20.2256136,13.3184213 L20.2256136,13.694045 C20.2256136,14.0602781 20.3199815,14.3513864 20.5181541,14.5485889 C20.7068899,14.7457913 20.97112,14.8396973 21.2919709,14.8396973 C21.4240859,14.8396973 21.5467642,14.8303067 21.6505689,14.8209161 C21.7543736,14.8021349 21.8393047,14.7927443 21.8959254,14.7739631 C21.9336726,14.7645725 21.9525461,14.7551819 21.9714197,14.7364007 C21.9902933,14.7270102 21.9902933,14.6988384 21.9902933,14.6706666 L21.9902933,14.6706666 Z M19.0365782,14.1917464 C18.9799574,14.2199182 18.9233367,14.2386993 18.8572792,14.2574805 C18.7912216,14.2762617 18.7251641,14.2856523 18.6591066,14.2856523 C18.5647387,14.2856523 18.4892444,14.2762617 18.4420604,14.2480899 C18.3948765,14.2199182 18.3760029,14.1635746 18.3760029,14.0602781 L18.3760029,14.0227157 C18.3760029,13.9663722 18.3854397,13.9194192 18.3948765,13.8818568 C18.4043133,13.8442945 18.4326236,13.8067321 18.460934,13.7785603 C18.4892444,13.7503885 18.5364283,13.7316073 18.5836123,13.7222167 C18.6307962,13.7128262 18.6968537,13.7034356 18.7817848,13.7034356 L19.0365782,13.7034356 L19.0365782,14.1917464 L19.0365782,14.1917464 Z M19.7537742,13.0930471 C19.7537742,12.9240164 19.7254638,12.7831575 19.6782799,12.6704704 C19.6310959,12.5577833 19.5556016,12.4638774 19.4706705,12.3887526 C19.3763026,12.3136279 19.2724979,12.2572843 19.1403829,12.2291125 C19.0082678,12.1915502 18.8572792,12.172769 18.6968537,12.172769 C18.5458651,12.172769 18.3948765,12.1821596 18.2533246,12.2009408 C18.1117728,12.2197219 17.9985313,12.2385031 17.9136002,12.2666749 C17.8569795,12.2854561 17.8286691,12.3136279 17.8286691,12.3699714 L17.8286691,12.7362045 C17.8286691,12.7643763 17.8381059,12.7831575 17.8475427,12.8019387 C17.8664163,12.8113293 17.8852898,12.8207199 17.9041634,12.8207199 L17.923037,12.8207199 C17.9607842,12.8207199 18.0079681,12.8113293 18.0551521,12.8113293 C18.1117728,12.8113293 18.1683935,12.8019387 18.2344511,12.8019387 C18.3005086,12.8019387 18.3760029,12.7925481 18.4514972,12.7925481 C18.5269915,12.7925481 18.6024858,12.7925481 18.6685434,12.7925481 C18.7723481,12.7925481 18.8572792,12.8113293 18.9138999,12.8488916 C18.9705206,12.886454 19.0082678,12.9709693 19.0082678,13.1024376 L19.0082678,13.2620777 L18.7629113,13.2620777 C18.3760029,13.2620777 18.0834624,13.3184213 17.9136002,13.440499 C17.7343012,13.5625767 17.6493701,13.7597791 17.6493701,14.0227157 L17.6493701,14.0602781 C17.6493701,14.2105276 17.6682437,14.3326053 17.7154276,14.4265112 C17.7626116,14.5298077 17.8192323,14.6049324 17.8947266,14.6706666 C17.9702209,14.7270102 18.0457153,14.7739631 18.1400832,14.8021349 C18.2344511,14.8303067 18.3288189,14.8396973 18.4326236,14.8396973 C18.5647387,14.8396973 18.687417,14.8209161 18.7817848,14.7833537 C18.8761527,14.7457913 18.9705206,14.6988384 19.0648885,14.6331042 L19.0648885,14.708229 C19.0648885,14.7364007 19.0743253,14.7551819 19.0931989,14.7739631 C19.1120725,14.7927443 19.1309461,14.8021349 19.1592564,14.8021349 L19.6688431,14.8021349 C19.6971534,14.8021349 19.716027,14.7927443 19.7349006,14.7739631 C19.7537742,14.7551819 19.763211,14.7364007 19.763211,14.708229 L19.763211,13.0930471 L19.7537742,13.0930471 L19.7537742,13.0930471 Z M17.3285193,14.7176196 L17.3285193,14.3701676 C17.3285193,14.3232147 17.3002089,14.2950429 17.2341514,14.2950429 L17.0076684,14.2950429 C16.9416109,14.2950429 16.8944269,14.2856523 16.8849902,14.2574805 C16.8661166,14.2293087 16.8661166,14.1729652 16.8661166,14.0790593 L16.8661166,12.7643763 L17.2341514,12.7643763 C17.2624617,12.7643763 17.2813353,12.7549857 17.3002089,12.7362045 C17.3190825,12.7174233 17.3285193,12.6986422 17.3285193,12.6704704 L17.3285193,12.3042373 C17.3285193,12.2760655 17.3190825,12.2572843 17.3002089,12.2385031 C17.2813353,12.2197219 17.2624617,12.2103314 17.2341514,12.2103314 L16.8661166,12.2103314 L16.8661166,11.7314111 C16.8661166,11.7032394 16.8566798,11.6844582 16.847243,11.6750676 C16.8283694,11.665677 16.8094958,11.6562864 16.7906223,11.6562864 L16.7811855,11.6562864 L16.2338517,11.7501923 C16.2055413,11.7595829 16.1866677,11.7689735 16.1677941,11.7783641 C16.1489206,11.7971453 16.1394838,11.8159265 16.1394838,11.8347077 L16.1394838,12.2009408 L15.7620122,12.2009408 C15.7337018,12.2009408 15.7148282,12.2103314 15.6959547,12.2291125 C15.6770811,12.2478937 15.6676443,12.2666749 15.6676443,12.2948467 L15.6676443,12.5953456 C15.6676443,12.6235174 15.6770811,12.6422986 15.6959547,12.6516892 C15.7148282,12.6704704 15.7337018,12.679861 15.7620122,12.6892516 L16.130047,12.7455951 L16.130047,14.0602781 C16.130047,14.2199182 16.1489206,14.3513864 16.1772309,14.454683 C16.2149781,14.5579795 16.262162,14.6331042 16.3187828,14.6894478 C16.3848403,14.7457913 16.4603346,14.7833537 16.5547025,14.8021349 C16.6490704,14.8209161 16.7623119,14.8303067 16.8849902,14.8303067 C16.9510477,14.8303067 17.0076684,14.8303067 17.0642892,14.8209161 C17.1114731,14.8115255 17.1775306,14.8021349 17.2435882,14.7927443 C17.3002089,14.7927443 17.3285193,14.7645725 17.3285193,14.7176196 L17.3285193,14.7176196 Z M15.3467935,14.708229 L15.3467935,13.2057342 C15.3467935,13.0648753 15.3373567,12.933407 15.3090463,12.8019387 C15.2901727,12.679861 15.2429888,12.5671739 15.186368,12.4732679 C15.1297473,12.379362 15.0448162,12.3042373 14.9410115,12.2572843 C14.8372068,12.2009408 14.7050918,12.172769 14.5352296,12.172769 C14.3936777,12.172769 14.2615627,12.1915502 14.1483212,12.2291125 C14.0350797,12.2666749 13.9218382,12.3230185 13.7897232,12.4169244 L13.7897232,12.3042373 C13.7897232,12.2760655 13.7802864,12.2572843 13.7614128,12.2385031 C13.7425392,12.2197219 13.7236657,12.2103314 13.6953553,12.2103314 L13.1857687,12.2103314 C13.1574583,12.2103314 13.1385847,12.2197219 13.1197111,12.2385031 C13.1008375,12.2572843 13.0914008,12.2760655 13.0914008,12.3042373 L13.0914008,14.708229 C13.0914008,14.7364007 13.1008375,14.7551819 13.1197111,14.7739631 C13.1385847,14.7927443 13.1574583,14.8021349 13.1857687,14.8021349 L13.7331024,14.8021349 C13.7614128,14.8021349 13.7802864,14.7927443 13.79916,14.7739631 C13.8180336,14.7551819 13.8274703,14.7364007 13.8274703,14.708229 L13.8274703,12.933407 C13.9029647,12.8958446 13.978459,12.8582822 14.0539533,12.8301105 C14.1200108,12.8019387 14.1955051,12.7925481 14.2615627,12.7925481 C14.3276202,12.7925481 14.3842409,12.8019387 14.4314249,12.8113293 C14.4786088,12.8207199 14.5069192,12.8488916 14.5352296,12.8770634 C14.5635399,12.9146258 14.5729767,12.9521882 14.5824135,13.0085317 C14.5918503,13.0648753 14.5918503,13.1306094 14.5918503,13.2057342 L14.5918503,14.708229 C14.5918503,14.7364007 14.6012871,14.7551819 14.6201607,14.7739631 C14.6390342,14.7927443 14.6579078,14.8021349 14.6862182,14.8021349 L15.233552,14.8021349 C15.2618624,14.8021349 15.2807359,14.7927443 15.2996095,14.7739631 C15.3373567,14.7551819 15.3467935,14.7270102 15.3467935,14.708229 L15.3467935,14.708229 Z M11.9118021,13.6658732 C11.9118021,14.0321063 11.779687,14.2199182 11.5060201,14.2199182 C11.3739051,14.2199182 11.2701004,14.1729652 11.2040428,14.0790593 C11.1379853,13.9851533 11.1002382,13.8442945 11.1002382,13.6658732 L11.1002382,13.346593 C11.1002382,13.1587812 11.1379853,13.0273129 11.2040428,12.933407 C11.2701004,12.8395011 11.3739051,12.7925481 11.5060201,12.7925481 C11.7702502,12.7925481 11.9118021,12.9803599 11.9118021,13.346593 L11.9118021,13.6658732 Z M12.6478716,13.346593 C12.6478716,13.1681718 12.6195613,12.9991411 12.5723773,12.8582822 C12.5251934,12.7174233 12.4496991,12.5953456 12.3553312,12.4920491 C12.2609633,12.3887526 12.138285,12.3136279 11.9967332,12.2572843 C11.8551813,12.2009408 11.6947559,12.172769 11.5060201,12.172769 C11.3172843,12.172769 11.1568589,12.2009408 11.0153071,12.2572843 C10.8737552,12.3136279 10.751077,12.3887526 10.6567091,12.4920491 C10.5623412,12.5953456 10.4868468,12.7174233 10.4396629,12.8582822 C10.3924789,12.9991411 10.3641686,13.1681718 10.3641686,13.346593 L10.3641686,13.6658732 C10.3641686,13.8442945 10.3924789,14.0133251 10.4396629,14.154184 C10.4868468,14.2950429 10.5623412,14.4171206 10.6567091,14.5204171 C10.751077,14.6237136 10.8737552,14.6988384 11.0153071,14.7551819 C11.1568589,14.8115255 11.3172843,14.8396973 11.5060201,14.8396973 C11.6947559,14.8396973 11.8551813,14.8115255 11.9967332,14.7551819 C12.138285,14.6988384 12.2609633,14.6237136 12.3553312,14.5204171 C12.4496991,14.4171206 12.5251934,14.2950429 12.5723773,14.154184 C12.6195613,14.0133251 12.6478716,13.8442945 12.6478716,13.6658732 L12.6478716,13.346593 Z M10.1282488,14.6706666 L10.1282488,14.2668711 C10.1282488,14.2386993 10.1188121,14.2199182 10.0999385,14.2105276 C10.0810649,14.201137 10.0621913,14.1917464 10.0338809,14.1917464 L10.0244442,14.1917464 C9.93951305,14.201137 9.85458195,14.2105276 9.77908763,14.2105276 C9.70359331,14.2199182 9.59978863,14.2199182 9.46767358,14.2199182 C9.42048963,14.2199182 9.36386889,14.2105276 9.32612173,14.1917464 C9.27893778,14.1729652 9.24119063,14.1447934 9.20344347,14.107231 C9.16569631,14.0696687 9.14682273,14.0133251 9.12794915,13.947591 C9.10907557,13.8818568 9.09963878,13.7973415 9.09963878,13.694045 L9.09963878,13.3184213 C9.09963878,13.2151248 9.10907557,13.1306094 9.12794915,13.0648753 C9.14682273,12.9991411 9.1751331,12.9427976 9.20344347,12.9052352 C9.24119063,12.8676728 9.27893778,12.8395011 9.32612173,12.8207199 C9.37330568,12.8019387 9.42048963,12.7925481 9.46767358,12.7925481 C9.59978863,12.7925481 9.70359331,12.7925481 9.77908763,12.8019387 C9.85458195,12.8113293 9.93951305,12.8113293 10.0244442,12.8207199 L10.0338809,12.8207199 C10.0621913,12.8207199 10.0810649,12.8113293 10.0999385,12.8019387 C10.1188121,12.7925481 10.1282488,12.7737669 10.1282488,12.7455951 L10.1282488,12.3417996 C10.1282488,12.3042373 10.1188121,12.2854561 10.1093753,12.2760655 C10.0905017,12.2666749 10.0716281,12.2478937 10.0338809,12.2385031 C9.96782342,12.2197219 9.8923291,12.2103314 9.78852442,12.1915502 C9.68471973,12.172769 9.57147826,12.172769 9.42992642,12.172769 C9.10907557,12.172769 8.85428226,12.2666749 8.65610967,12.4638774 C8.46737388,12.6610798 8.3635692,12.9427976 8.3635692,13.3184213 L8.3635692,13.694045 C8.3635692,14.0602781 8.45793709,14.3513864 8.65610967,14.5485889 C8.84484547,14.7457913 9.10907557,14.8396973 9.42992642,14.8396973 C9.56204147,14.8396973 9.68471973,14.8303067 9.78852442,14.8209161 C9.8923291,14.8021349 9.96782342,14.7927443 10.0338809,14.7739631 C10.0716281,14.7645725 10.0905017,14.7551819 10.1093753,14.7364007 C10.1188121,14.7270102 10.1282488,14.6988384 10.1282488,14.6706666 L10.1282488,14.6706666 Z M7.89172972,14.708229 L7.89172972,13.2057342 C7.89172972,13.0648753 7.88229293,12.933407 7.85398256,12.8019387 C7.83510899,12.679861 7.78792504,12.5671739 7.7313043,12.4732679 C7.67468356,12.379362 7.58975246,12.3042373 7.48594777,12.2572843 C7.38214309,12.2009408 7.25002803,12.172769 7.08016582,12.172769 C6.93861398,12.172769 6.80649893,12.1915502 6.69325745,12.2291125 C6.58001598,12.2666749 6.4667745,12.3230185 6.33465945,12.4169244 L6.33465945,12.3042373 C6.33465945,12.2760655 6.32522266,12.2572843 6.30634908,12.2385031 C6.2874755,12.2197219 6.26860192,12.2103314 6.24029155,12.2103314 L5.73070492,12.2103314 C5.70239455,12.2103314 5.68352097,12.2197219 5.66464739,12.2385031 C5.64577381,12.2572843 5.63633702,12.2760655 5.63633702,12.3042373 L5.63633702,14.708229 C5.63633702,14.7364007 5.64577381,14.7551819 5.66464739,14.7739631 C5.68352097,14.7927443 5.70239455,14.8021349 5.73070492,14.8021349 L6.27803871,14.8021349 C6.30634908,14.8021349 6.32522266,14.7927443 6.34409624,14.7739631 C6.36296982,14.7551819 6.37240661,14.7364007 6.37240661,14.708229 L6.37240661,12.933407 C6.44790092,12.8958446 6.52339524,12.8582822 6.59888956,12.8301105 C6.66494708,12.8019387 6.7404414,12.7925481 6.80649893,12.7925481 C6.87255645,12.7925481 6.92917719,12.8019387 6.97636114,12.8113293 C7.02354509,12.8207199 7.05185545,12.8488916 7.08016582,12.8770634 C7.10847619,12.9146258 7.11791298,12.9521882 7.12734977,13.0085317 C7.13678656,13.0648753 7.13678656,13.1306094 7.13678656,13.2057342 L7.13678656,14.708229 C7.13678656,14.7364007 7.14622335,14.7551819 7.16509693,14.7739631 C7.18397051,14.7927443 7.20284409,14.8021349 7.23115445,14.8021349 L7.77848825,14.8021349 C7.80679862,14.8021349 7.8256722,14.7927443 7.84454577,14.7739631 C7.88229293,14.7551819 7.89172972,14.7270102 7.89172972,14.708229 L7.89172972,14.708229 Z M4.38124401,14.1917464 C4.32462328,14.2199182 4.26800254,14.2386993 4.20194501,14.2574805 C4.13588749,14.2762617 4.06982996,14.2856523 4.00377243,14.2856523 C3.90940454,14.2856523 3.83391022,14.2762617 3.78672627,14.2480899 C3.73954233,14.2199182 3.72066875,14.1635746 3.72066875,14.0602781 L3.72066875,14.0227157 C3.72066875,13.9663722 3.73010554,13.9194192 3.73954233,13.8818568 C3.74897912,13.8442945 3.77728948,13.8067321 3.80559985,13.7785603 C3.83391022,13.7503885 3.88109417,13.7316073 3.92827812,13.7222167 C3.97546206,13.7128262 4.04151959,13.7034356 4.1264507,13.7034356 L4.38124401,13.7034356 L4.38124401,14.1917464 Z M5.10787681,13.0930471 C5.10787681,12.9240164 5.07956644,12.7831575 5.03238249,12.6704704 C4.98519855,12.5577833 4.90970423,12.4638774 4.82477312,12.3887526 C4.73040523,12.3136279 4.62660054,12.2572843 4.49448549,12.2291125 C4.36237044,12.1915502 4.2113818,12.172769 4.05095638,12.172769 C3.89996775,12.172769 3.74897912,12.1821596 3.60742727,12.2009408 C3.46587543,12.2197219 3.35263396,12.2385031 3.26770285,12.2666749 C3.21108211,12.2854561 3.18277174,12.3136279 3.18277174,12.3699714 L3.18277174,12.7362045 C3.18277174,12.7643763 3.19220853,12.7831575 3.20164532,12.8019387 C3.2205189,12.8113293 3.23939248,12.8207199 3.25826606,12.8207199 L3.27713964,12.8207199 C3.3148868,12.8207199 3.36207074,12.8113293 3.40925469,12.8113293 C3.46587543,12.8113293 3.52249617,12.8019387 3.59799048,12.8019387 C3.66404801,12.8019387 3.73954233,12.7925481 3.81503664,12.7925481 C3.89053096,12.7925481 3.96602528,12.7925481 4.0320828,12.7925481 C4.13588749,12.7925481 4.22081859,12.8113293 4.27743933,12.8488916 C4.33406007,12.886454 4.37180723,12.9709693 4.37180723,13.1024376 L4.37180723,13.2620777 L4.1264507,13.2620777 C3.73954233,13.2620777 3.44700185,13.3184213 3.27713964,13.440499 C3.09784064,13.5625767 3.01290953,13.7597791 3.01290953,14.0227157 L3.01290953,14.0602781 C3.01290953,14.2105276 3.03178311,14.3326053 3.07896706,14.4265112 C3.12615101,14.5298077 3.18277174,14.6049324 3.25826606,14.6706666 C3.33376038,14.7270102 3.40925469,14.7739631 3.50362259,14.8021349 C3.59799048,14.8303067 3.69235838,14.8396973 3.79616306,14.8396973 C3.92827812,14.8396973 4.05095638,14.8209161 4.14532428,14.7833537 C4.23969217,14.7457913 4.33406007,14.6988384 4.42842796,14.6331042 L4.42842796,14.708229 C4.42842796,14.7364007 4.43786475,14.7551819 4.45673833,14.7739631 C4.47561191,14.7927443 4.49448549,14.8021349 4.52279586,14.8021349 L5.03238249,14.8021349 C5.06069286,14.8021349 5.07956644,14.7927443 5.09844002,14.7739631 C5.1173136,14.7551819 5.12675039,14.7364007 5.12675039,14.708229 L5.12675039,13.0930471 L5.10787681,13.0930471 L5.10787681,13.0930471 Z M1.86162121,13.8067321 C1.86162121,13.9288098 1.81443726,14.0321063 1.72950616,14.0978405 C1.64457505,14.1635746 1.47471284,14.201137 1.24822989,14.201137 L1.17273557,14.201137 C1.13498841,14.201137 1.09724126,14.201137 1.0594941,14.201137 C1.02174694,14.201137 0.983999782,14.201137 0.946252624,14.201137 L0.870758307,14.201137 L0.870758307,13.3559836 L1.38034494,13.3559836 C1.55964394,13.3559836 1.691759,13.393546 1.75781652,13.4780613 C1.82387405,13.5625767 1.86162121,13.6564826 1.86162121,13.7597791 L1.86162121,13.8067321 Z M1.84274763,12.4638774 C1.84274763,12.5108303 1.83331084,12.5577833 1.82387405,12.6047362 C1.80500047,12.6516892 1.78612689,12.6892516 1.74837973,12.7174233 C1.71063258,12.7455951 1.66344863,12.7737669 1.60682789,12.7925481 C1.55020715,12.8113293 1.47471284,12.8207199 1.38034494,12.8207199 L0.870758307,12.8207199 L0.870758307,12.0413007 C0.889631886,12.0413007 0.908505465,12.0413007 0.936815834,12.0413007 C0.965126203,12.0413007 1.00287336,12.0413007 1.04062052,12.0413007 L1.1444252,12.0413007 L1.21991952,12.0413007 C1.45583926,12.0413007 1.61626468,12.0694725 1.71063258,12.125816 C1.80500047,12.1821596 1.85218442,12.2760655 1.85218442,12.3981432 L1.84274763,12.4638774 L1.84274763,12.4638774 Z M2.61656437,13.7597791 C2.61656437,13.600139 2.57881721,13.4686708 2.5033229,13.3559836 C2.42782858,13.2432965 2.33346069,13.1493906 2.21078242,13.0930471 C2.33346069,13.0367035 2.42782858,12.9427976 2.49388611,12.8301105 C2.55994363,12.7080328 2.59769079,12.5765645 2.59769079,12.4357056 L2.59769079,12.3511902 C2.59769079,12.172769 2.55994363,12.0225195 2.49388611,11.9004418 C2.42782858,11.7783641 2.3240239,11.6844582 2.20134563,11.6093334 C2.07866737,11.5342087 1.92767874,11.4872557 1.74837973,11.4496934 C1.56908073,11.4215216 1.38034494,11.4027404 1.16329878,11.4027404 C1.08780447,11.4027404 1.01231015,11.4027404 0.936815834,11.4027404 C0.861321518,11.4027404 0.785827201,11.412131 0.710332885,11.412131 C0.634838569,11.412131 0.568781042,11.4215216 0.502723515,11.4309122 C0.436665989,11.4403028 0.389482041,11.4403028 0.351734883,11.4496934 C0.266803777,11.4684745 0.20074625,11.4872557 0.162999092,11.5342087 C0.125251934,11.5717711 0.106378355,11.6468958 0.106378355,11.7501923 L0.106378355,14.5016359 C0.106378355,14.6049324 0.125251934,14.6706666 0.162999092,14.7176196 C0.20074625,14.7551819 0.266803777,14.7833537 0.351734883,14.8021349 C0.39891883,14.8115255 0.455539568,14.8209161 0.512160305,14.8209161 C0.578217832,14.8303067 0.644275358,14.8303067 0.719769675,14.8396973 C0.795263991,14.8490879 0.870758307,14.8490879 0.946252624,14.8490879 C1.02174694,14.8490879 1.10667805,14.8490879 1.18217236,14.8490879 C1.38034494,14.8490879 1.56908073,14.8303067 1.73894294,14.8021349 C1.90880516,14.7739631 2.05979379,14.7176196 2.19190884,14.6424948 C2.3240239,14.5673701 2.41839179,14.4640736 2.5033229,14.3326053 C2.57881721,14.201137 2.61656437,14.0321063 2.61656437,13.8349039 L2.61656437,13.7597791 L2.61656437,13.7597791 Z"/>
    </g>
  </g>
</svg>
