<svg xmlns="http://www.w3.org/2000/svg" width="640" height="360"><g fill="none" fill-rule="evenodd"><g fill="#2A76D2"><path d="M180.616 130.23H88.23v92.386H80V122h100.616z"/><path d="M94.065 137.147v100.616H194.68V137.147zm90.36 90.341h-34.542l-9.234-30.662c5.498-2.968 9.234-8.781 9.234-15.467 0-9.703-7.866-17.567-17.567-17.567h-.016l.016 63.68H104.32v-80.238h49.454c16.928 0 30.652 13.723 30.652 30.651 0 10.854-5.646 20.382-14.156 25.829z"/></g><path fill="#222" d="M226.777 196.718V171.97h8.858q4.513 0 7.032 1.876 2.52 1.877 2.519 5.63v.135q0 2.655-1.37 4.268-1.369 1.614-3.718 2.308l6.542 10.531h-5.95l-5.917-9.55h-2.435v9.55zm5.561-13.371h3.162q4.226 0 4.226-3.55v-.152q0-1.826-1.048-2.604-1.048-.777-3.178-.777h-3.162zm15.199 4.547v-.287q0-4.209 2.645-6.813t6.652-2.603q1.81 0 3.364.54 1.556.541 2.798 1.624 1.242 1.08 1.961 2.89.718 1.809.718 4.159v1.386h-13.05q.102 2.265 1.276 3.508 1.176 1.242 3.22 1.242 3.264 0 3.77-2.535h4.75q-.438 2.925-2.687 4.513-2.249 1.59-5.968 1.59-4.192 0-6.82-2.477-2.63-2.477-2.63-6.737m5.156-2.18h8.097q-.254-4.058-3.956-4.058-1.69 0-2.772 1.065t-1.37 2.992m14.86 5.324h4.683q.168 1.286.887 1.927.719.643 2.29.643 2.84 0 2.84-1.978 0-.913-.828-1.378t-2.84-.769q-3.668-.559-5.173-1.792t-1.504-3.854q0-1.37.592-2.468a4.9 4.9 0 0 1 1.606-1.775 8.1 8.1 0 0 1 2.282-1.04 9.7 9.7 0 0 1 2.688-.363q6.863 0 7.471 5.612h-4.598q-.202-1.132-.879-1.656-.675-.525-1.96-.525-1.201 0-1.886.516t-.684 1.36.744 1.252q.743.405 2.755.71 1.826.27 3.034.634a8.1 8.1 0 0 1 2.164.997 3.75 3.75 0 0 1 1.395 1.631q.44.998.44 2.418 0 2.907-1.995 4.437t-5.63 1.53q-3.668 0-5.722-1.572t-2.172-4.497m16.889-8.858v-3.567h2.316v-3.921h4.987v3.921h3.803v3.567h-3.803v8.723q0 2.147 2.011 2.147 1.014 0 1.894-.355v3.888q-1.387.474-3.043.473-2.857 0-4.353-1.437-1.497-1.435-1.496-4.26v-9.179zm14.353 14.538v-18.105h5.02v3.466q.88-1.86 2.283-2.79t3.567-.946v4.666h-.17q-2.771 0-4.209 1.048-1.47 1.082-1.47 3.583v9.078zm14.471-21.35q-.81-.778-.811-1.944 0-1.167.82-1.953t2.02-.786q1.217 0 2.045.786.83.786.829 1.953 0 1.166-.829 1.944-.828.777-2.045.777-1.2 0-2.029-.777m-.44 21.35v-18.105h4.988v18.105zm8.234-8.824v-.287q0-2.84 1.26-5.013t3.372-3.287q2.115-1.116 4.7-1.116 1.301 0 2.46.228a8.7 8.7 0 0 1 2.222.76 7.1 7.1 0 0 1 1.86 1.328q.795.794 1.318 1.995.525 1.2.66 2.721h-4.734q-.49-3.076-3.668-3.076-1.978 0-3.153 1.42-1.174 1.419-1.174 3.972v.287q0 2.705 1.15 4.1 1.148 1.395 3.279 1.394 1.572 0 2.637-.904 1.065-.905 1.234-2.595h4.53q-.202 3.297-2.493 5.291t-6.162 1.995q-1.995 0-3.685-.617a8.7 8.7 0 0 1-2.942-1.766q-1.25-1.15-1.96-2.908t-.71-3.922m19.29-5.714v-3.567h2.316v-3.921h4.987v3.921h3.803v3.567h-3.803v8.723q0 2.147 2.011 2.147 1.014 0 1.893-.355v3.888q-1.386.474-3.042.473-2.857 0-4.353-1.437-1.496-1.435-1.496-4.26v-9.179zm22.281 2.316v-.27q0-2.772.938-5.14.939-2.365 2.57-4.006 1.63-1.64 3.905-2.57t4.877-.929q3.026 0 5.358.964a8.8 8.8 0 0 1 3.83 3.017q1.495 2.055 1.783 5.03h-5.748q-.642-4.582-5.19-4.582-2.94 0-4.674 2.18-1.732 2.182-1.732 6.002v.27q0 3.838 1.69 5.968t4.75 2.13q2.367 0 3.855-1.2t1.825-3.534h5.511q-.304 2.993-1.809 5.106a9.16 9.16 0 0 1-3.87 3.144q-2.368 1.03-5.444 1.031-5.967 0-9.196-3.39-3.23-3.389-3.229-9.22m25.358 3.364v-.287q0-2.79 1.251-4.936a8.5 8.5 0 0 1 3.415-3.297q2.163-1.15 4.885-1.15 4.142 0 6.83 2.553t2.687 6.728v.288q0 2.806-1.25 4.944a8.4 8.4 0 0 1-3.415 3.271q-2.164 1.134-4.886 1.133-2.688 0-4.843-1.124a8.45 8.45 0 0 1-3.415-3.246q-1.26-2.121-1.259-4.877m5.122-.101q0 2.62 1.158 4.074t3.271 1.454q2.097 0 3.263-1.454t1.166-4.04v-.254q0-2.603-1.166-4.065-1.167-1.463-3.263-1.463-2.079 0-3.254 1.437t-1.175 4.023zm17.041 8.96v-18.106h5.02v2.874q.728-1.453 2.24-2.375 1.514-.921 3.644-.921 2.805 0 4.454 1.75t1.648 5.248v11.53h-5.02v-10.803q0-1.86-.77-2.747-.769-.887-2.425-.887-1.674 0-2.722 1.03t-1.048 2.96v10.446zm19.475-14.539v-3.567h2.316v-3.921h4.987v3.921h3.804v3.567h-3.804v8.723q0 2.147 2.012 2.147 1.014 0 1.893-.355v3.888q-1.386.474-3.043.473-2.856 0-4.353-1.437-1.496-1.435-1.496-4.26v-9.179zm13.255 5.714v-.287q0-4.209 2.645-6.813t6.652-2.603q1.809 0 3.364.54 1.556.541 2.798 1.624 1.243 1.08 1.96 2.89.72 1.809.72 4.159v1.386H447.97q.102 2.265 1.276 3.508 1.175 1.242 3.22 1.242 3.264 0 3.77-2.535h4.75q-.439 2.925-2.687 4.513-2.249 1.59-5.968 1.59-4.192 0-6.82-2.477-2.63-2.477-2.63-6.737m5.156-2.18h8.097q-.255-4.058-3.956-4.058-1.69 0-2.772 1.065t-1.37 2.992m16.01 11.004v-18.105h5.02v2.874q.727-1.453 2.24-2.375 1.512-.921 3.643-.921 2.805 0 4.454 1.75t1.648 5.248v11.53h-5.02v-10.803q0-1.86-.77-2.747-.768-.887-2.425-.887-1.674 0-2.722 1.03t-1.048 2.96v10.446zm19.475-14.538v-3.567h2.315v-3.921h4.987v3.921h3.804v3.567h-3.804v8.723q0 2.147 2.012 2.147 1.014 0 1.893-.355v3.888q-1.386.474-3.043.473-2.856 0-4.352-1.437-1.497-1.435-1.497-4.26v-9.179zm23.566 14.538V171.97h8.553q4.565 0 7.007 2.003 2.443 2.004 2.443 5.891V180q0 3.82-2.46 5.773t-6.82 1.952h-3.162v8.993zm5.561-12.915h2.84q2.045 0 3.12-.963 1.073-.964 1.073-2.807v-.135q0-1.927-1.065-2.798-1.065-.87-3.128-.87h-2.84zm15.401 12.915v-18.105h5.021v3.466q.88-1.86 2.282-2.79 1.404-.93 3.567-.946v4.666h-.169q-2.772 0-4.21 1.048-1.47 1.082-1.47 3.583v9.078zm12.798-8.858v-.287q0-2.79 1.251-4.936a8.5 8.5 0 0 1 3.415-3.297q2.164-1.15 4.885-1.15 4.142 0 6.83 2.553t2.688 6.728v.288q0 2.806-1.251 4.944a8.4 8.4 0 0 1-3.415 3.271q-2.163 1.134-4.885 1.133-2.688 0-4.844-1.124a8.45 8.45 0 0 1-3.414-3.246q-1.26-2.121-1.26-4.877m5.122-.101q0 2.62 1.158 4.074 1.159 1.454 3.271 1.454 2.096 0 3.263-1.454t1.166-4.04v-.254q0-2.603-1.166-4.065-1.167-1.463-3.263-1.463-2.078 0-3.254 1.437-1.175 1.438-1.175 4.023z"/></g></svg>