<svg width="512" height="512" fill="none" xmlns="http://www.w3.org/2000/svg"><path d="M256 512.174c141.385 0 256-114.615 256-256s-114.615-256-256-256-256 114.615-256 256 114.615 256 256 256Z" fill="#F89C35"/><path d="M356.951 137.314c-8.601 0-16.01 5.129-22.242 13.626l-206.226 71.034c-3.947-5.495-8.937-8.466-14.387-8.466-12.924 0-22.668 16.381-22.668 38.092 0 21.716 9.739 38.097 22.668 38.097 5.45 0 10.44-2.975 14.387-8.471l39.105 13.476-7.58 12.388a25.97 25.97 0 0 0-3.817 13.536c0 10.836 6.612 20.424 16.862 24.436l47.675 18.686a30.712 30.712 0 0 0 11.181 2.114c11.257 0 22.107-6.137 27.367-16.471l10.024-19.673 65.399 22.528c6.227 8.511 13.651 13.641 22.252 13.641 29.441 0 45.336-58.882 45.336-114.287 0-55.405-15.895-114.286-45.336-114.286Zm-120.859 200.73c-.972 1.904-3.707 2.956-5.736 2.119l-47.68-18.69-.451-1.323 10.32-16.862 52.124 17.954-8.577 16.802Zm120.859 2.45c-5.816 0-19.432-30.238-19.432-88.889 0-58.651 13.616-88.888 19.432-88.888 5.811 0 19.427 30.237 19.427 88.888 0 58.651-13.611 88.889-19.427 88.889Z" fill="#fff"/></svg>