<svg xmlns="http://www.w3.org/2000/svg" width="640" height="360"><g fill="none" fill-rule="nonzero" transform="translate(80 128)"><path fill="#F89D36" d="M149.209 45.528a12.888 12.888 0 0 0-1.14-2.92 8.095 8.095 0 0 0-1.864-2.306 8.305 8.305 0 0 0-2.667-1.512c-1.018-.359-2.2-.538-3.547-.538-1.968 0-3.668.393-5.1 1.179a9.964 9.964 0 0 0-3.496 3.15c-.897 1.316-1.562 2.81-1.993 4.484a20.442 20.442 0 0 0-.648 5.124c0 1.742.216 3.45.648 5.124.431 1.674 1.096 3.168 1.993 4.483a9.964 9.964 0 0 0 3.496 3.152c1.432.785 3.132 1.178 5.1 1.178 1.45 0 2.727-.247 3.832-.743a8.527 8.527 0 0 0 2.848-2.05 9.626 9.626 0 0 0 1.864-3.048 14.47 14.47 0 0 0 .88-3.74h6.318c-.138 2.186-.612 4.184-1.424 5.994-.811 1.81-1.907 3.374-3.288 4.689-1.38 1.315-3.003 2.331-4.868 3.049-1.864.717-3.918 1.076-6.162 1.076-2.762 0-5.238-.504-7.43-1.512-2.193-1.008-4.048-2.383-5.567-4.125-1.52-1.742-2.684-3.774-3.496-6.097-.811-2.323-1.217-4.8-1.217-7.43 0-2.596.406-5.055 1.217-7.378.812-2.323 1.977-4.356 3.496-6.098s3.374-3.125 5.566-4.15c2.193-1.025 4.67-1.537 7.431-1.537 2.072 0 4.022.281 5.852.845s3.443 1.384 4.841 2.46a12.812 12.812 0 0 1 3.392 3.92c.863 1.537 1.398 3.296 1.606 5.277h-6.473m16.933-11.631h6.473v14.552h16.83V33.897h6.472v36.585h-6.473v-16.5h-16.83v16.5h-6.472V33.897m52.094 0h6.887l14.24 36.585h-6.939l-3.47-9.685h-14.757l-3.47 9.685h-6.68l14.189-36.585m-2.279 22.033h11.289l-5.54-15.73h-.156l-5.593 15.73m31.588-22.033h17.658c4.074 0 7.129.87 9.166 2.613 2.037 1.742 3.055 4.167 3.055 7.276 0 1.742-.259 3.185-.777 4.33-.518 1.144-1.122 2.066-1.812 2.767-.69.7-1.372 1.204-2.046 1.511-.673.308-1.165.512-1.475.615v.102c.552.069 1.147.24 1.786.513s1.234.709 1.787 1.306c.552.598 1.01 1.375 1.372 2.332.362.956.544 2.152.544 3.587 0 2.152.164 4.107.492 5.866.327 1.76.837 3.015 1.527 3.767h-6.939a5.934 5.934 0 0 1-.854-2.614 30.81 30.81 0 0 1-.13-2.767c0-1.673-.103-3.117-.31-4.33-.208-1.212-.587-2.22-1.14-3.022-.552-.803-1.303-1.392-2.252-1.768-.95-.376-2.166-.564-3.65-.564h-9.53v15.065h-6.472V33.897m6.473 16.652h10.616c2.07 0 3.642-.486 4.712-1.46 1.07-.973 1.605-2.434 1.605-4.38 0-1.162-.173-2.11-.518-2.845-.345-.734-.82-1.306-1.424-1.716a5.265 5.265 0 0 0-2.071-.82 13.876 13.876 0 0 0-2.408-.205h-10.512V50.55m34.643-16.652h6.473v36.585h-6.473V33.897m15.535 0h29.93v5.534h-11.754v31.05h-6.473v-31.05h-11.703v-5.534m44.016 0h6.887l14.24 36.585H362.4l-3.47-9.685h-14.757l-3.47 9.685h-6.68l14.189-36.585m-2.279 22.033h11.289l-5.54-15.73h-.156l-5.593 15.73m38.06-6.713h10.565c1.553 0 2.848-.435 3.883-1.306 1.036-.871 1.554-2.127 1.554-3.766 0-1.845-.466-3.143-1.398-3.895-.932-.751-2.279-1.127-4.04-1.127h-10.563v10.094m-6.472-15.32h17.969c3.314 0 5.972.751 7.974 2.254 2.003 1.503 3.004 3.775 3.004 6.815 0 1.845-.458 3.425-1.372 4.74-.915 1.315-2.218 2.331-3.91 3.048v.103c2.278.478 4.004 1.546 5.178 3.202 1.174 1.657 1.76 3.732 1.76 6.226 0 1.435-.258 2.775-.776 4.022-.518 1.247-1.329 2.323-2.434 3.228-1.104.906-2.52 1.623-4.246 2.152-1.726.53-3.78.795-6.162.795H377.52V33.897m6.473 31.358h11.444c1.968 0 3.495-.504 4.583-1.511 1.087-1.008 1.631-2.434 1.631-4.279 0-1.81-.544-3.202-1.631-4.176-1.088-.973-2.615-1.46-4.583-1.46h-11.444v11.426m34.643-31.358h6.473v31.05h18.797v5.535h-25.27V33.897m34.384 0h26.617v5.534h-20.144v9.581h18.642v5.227h-18.642v10.709H480v5.534h-26.98V33.897"/><circle cx="51.103" cy="51.277" r="51.103" fill="#F89C35"/><path fill="#FFF" d="M71.255 27.55c-1.717 0-3.196 1.024-4.44 2.72L25.648 44.45c-.788-1.097-1.784-1.69-2.872-1.69-2.58 0-4.525 3.27-4.525 7.604 0 4.335 1.944 7.605 4.525 7.605 1.088 0 2.084-.594 2.872-1.691l7.806 2.69-1.513 2.473a5.182 5.182 0 0 0-.762 2.702c0 2.163 1.32 4.077 3.366 4.878l9.517 3.73a6.13 6.13 0 0 0 2.232.422c2.247 0 4.413-1.225 5.463-3.288l2.001-3.927 13.055 4.497c1.243 1.699 2.725 2.723 4.442 2.723 5.877 0 9.05-11.754 9.05-22.814s-3.173-22.814-9.05-22.814M47.129 67.62c-.194.38-.74.59-1.145.423l-9.518-3.731-.09-.264 2.06-3.366 10.405 3.584-1.712 3.354m24.126.489c-1.161 0-3.879-6.036-3.879-17.744s2.718-17.744 3.879-17.744c1.16 0 3.878 6.036 3.878 17.744s-2.717 17.744-3.878 17.744"/></g></svg>