<?xml version="1.0" encoding="UTF-8" standalone="no"?>
<svg
   viewBox="0 0 640.00002 360"
   version="1.1"
   id="svg166"
   sodipodi:docname="185414152-c6af77c8-8a87-4913-a06e-7d43cc959110.svg"
   inkscape:version="1.2.1 (9c6d41e4, 2022-07-14)"
   width="640"
   height="360"
   xmlns:inkscape="http://www.inkscape.org/namespaces/inkscape"
   xmlns:sodipodi="http://sodipodi.sourceforge.net/DTD/sodipodi-0.dtd"
   xmlns="http://www.w3.org/2000/svg"
   xmlns:svg="http://www.w3.org/2000/svg"
   xmlns:rdf="http://www.w3.org/1999/02/22-rdf-syntax-ns#"
   xmlns:cc="http://creativecommons.org/ns#"
   xmlns:dc="http://purl.org/dc/elements/1.1/">
  <sodipodi:namedview
     id="namedview168"
     pagecolor="#ffffff"
     bordercolor="#666666"
     borderopacity="1.0"
     inkscape:showpageshadow="2"
     inkscape:pageopacity="0.0"
     inkscape:pagecheckerboard="true"
     inkscape:deskcolor="#d1d1d1"
     showgrid="false"
     inkscape:zoom="1"
     inkscape:cx="78.5"
     inkscape:cy="162"
     inkscape:window-width="2068"
     inkscape:window-height="628"
     inkscape:window-x="2320"
     inkscape:window-y="547"
     inkscape:window-maximized="0"
     inkscape:current-layer="Layer_1-2" />
  <defs
     id="defs134">
    <style
       id="style132">.cls-1,.cls-4{fill:#111;}.cls-2{fill:#101010;}.cls-3{fill:#010101;}.cls-4{fill-rule:evenodd;}</style>
  </defs>
  <title
     id="title136">Event_Espresso</title>
  <g
     id="Layer_2"
     data-name="Layer 2">
    <g
       id="Layer_1-2"
       data-name="Layer 1">
      <g
         id="g2120"
         transform="matrix(2.8304146,0,0,2.8304146,64.002895,91.294125)">
        <path
           class="cls-1"
           d="m 19.92,49.79 a 1.31,1.31 0 0 1 -0.23,0.54 1.65,1.65 0 0 1 -0.62,0.38 l -2.1,0.74 -2.42,0.71 a 24.56,24.56 0 0 1 -6,0.88 A 11.28,11.28 0 0 1 2.92,51.89 5.38,5.38 0 0 1 0,47 c 0,-2.31 1.11,-4.76 3.29,-7.37 a 19.72,19.72 0 0 1 3,-2.87 22.41,22.41 0 0 1 2.9,-1.79 l 1.9,-1 a 1.65,1.65 0 0 0 0.41,-0.33 0.23,0.23 0 0 0 0.08,-0.21 v -0.1 L 11.36,33 10.88,32.44 A 4.4,4.4 0 0 1 9.43,29.61 4.27,4.27 0 0 1 10,27.37 a 12.15,12.15 0 0 1 4.25,-4.26 18.39,18.39 0 0 1 5.52,-2.35 14.07,14.07 0 0 1 3.13,-0.37 q 3.84,0 3.91,2.64 a 12.57,12.57 0 0 1 -1.73,4.85 l -1,1.74 -0.31,0.43 -0.16,0.07 -0.34,-0.29 -0.51,-0.9 a 1.23,1.23 0 0 1 -0.25,-0.58 c 0,-0.1 0,-0.25 0.21,-0.46 A 31.75,31.75 0 0 0 24.48,24.65 3.89,3.89 0 0 0 24.89,23 c -0.07,-1.12 -0.78,-1.65 -2.15,-1.61 a 11.78,11.78 0 0 0 -4.38,1 12.19,12.19 0 0 0 -3.83,2.4 13.3,13.3 0 0 0 -1.87,2.21 5.89,5.89 0 0 0 -1.33,3.33 6.27,6.27 0 0 0 0.74,2.31 l 0.42,0.89 a 3.09,3.09 0 0 1 0.21,1 2.11,2.11 0 0 1 -1.13,1.67 L 9.76,37.31 A 24,24 0 0 0 7.11,39.1 14.72,14.72 0 0 0 4.29,41.91 10.14,10.14 0 0 0 1.9,48 a 3.81,3.81 0 0 0 1.47,3 4.83,4.83 0 0 0 3.24,1 15.58,15.58 0 0 0 4.2,-0.56 27.53,27.53 0 0 0 4.47,-1.54 l 3.47,-1.58 1,-0.46 a 0.72,0.72 0 0 1 0.38,-0.1 l 0.13,0.08 V 48 l -0.08,0.44 -0.32,1.35 z m 4.7,-7.67 0.56,-0.15 0.17,0.11 0.07,0.2 -0.07,0.34 -0.17,0.56 -0.62,1.64 -0.69,2.23 -0.55,2 -0.15,0.73 -0.06,0.75 c 0,0.59 0.26,0.93 0.74,1 1.32,-0.07 2.74,-2 4.25,-5.75 l 0.73,-1.81 0.42,-1.16 a 0.65,0.65 0 0 1 0.53,-0.63 l 0.84,-0.14 h 0.19 a 0.35,0.35 0 0 1 0.34,0.42 v 0.27 l -0.13,0.41 a 20.48,20.48 0 0 1 -1.75,3.51 c -0.48,0.81 -1,1.58 -1.51,2.32 q -2.56,3.52 -4.33,3.47 c -1.22,0 -1.86,-0.7 -1.9,-2 a 10.07,10.07 0 0 1 0.21,-1.89 l 0.54,-2.55 0.77,-2.61 0.16,-0.43 0.18,-0.29 a 1.18,1.18 0 0 1 0.36,-0.21 l 0.87,-0.29 z m 7.51,8.15 a 1.41,1.41 0 0 0 1.48,1.23 5.82,5.82 0 0 0 3.26,-1.61 l 1.22,-1.14 a 0.7,0.7 0 0 1 0.36,-0.19 l 0.18,0.07 a 0.28,0.28 0 0 1 0.08,0.2 l -0.08,0.25 a 7.73,7.73 0 0 1 -3.69,2.85 4.73,4.73 0 0 1 -1.09,0.35 3.88,3.88 0 0 1 -1,0.09 C 31,52.36 30,51.48 30,49.75 A 7.84,7.84 0 0 1 32.22,44.66 6.65,6.65 0 0 1 37,42 a 2.2,2.2 0 0 1 1.49,0.55 1.86,1.86 0 0 1 0.6,1.45 q 0,2.7 -4.9,5 l -2.1,1 v 0.31 z m 0,-1.19 1,-0.47 q 3.35,-1.68 3.82,-3.91 L 37,44 c 0,-0.61 -0.17,-1 -0.49,-1.1 l -0.32,-0.07 a 1.89,1.89 0 0 0 -1.35,0.86 l -0.75,1.14 -0.89,1.6 -0.6,1.33 -0.49,1.31 z m 11,-2.91 1.43,-2.08 c 1,-1.39 1.88,-2.09 2.71,-2.12 a 1.86,1.86 0 0 1 1.81,1.9 6.15,6.15 0 0 1 -0.32,1.79 l -0.61,1.68 -1,2.64 -0.1,0.44 q 0,0.54 0.48,0.54 a 1.28,1.28 0 0 0 0.67,-0.29 l 1,-0.81 0.73,-0.71 0.4,-0.41 0.22,-0.15 0.24,0.12 0.1,0.12 v 0.11 c 0,0.32 -0.61,1 -1.87,2.08 a 4.63,4.63 0 0 1 -2.36,1.35 c -1,0 -1.51,-0.47 -1.49,-1.37 a 5.92,5.92 0 0 1 0.4,-1.9 l 0.61,-1.83 0.62,-1.83 0.42,-1.22 a 3,3 0 0 0 0.13,-0.66 0.61,0.61 0 0 0 -0.55,-0.67 c -0.39,0 -0.79,0.31 -1.23,0.89 l -1,1.37 -1.57,2.48 a 20.42,20.42 0 0 0 -1.35,2.47 12.92,12.92 0 0 1 -0.83,1.58 0.59,0.59 0 0 1 -0.32,0.31 l -0.38,0.07 h -1 L 39,51.91 l 0.06,-0.41 0.09,-0.32 2.11,-8 0.11,-0.38 a 0.67,0.67 0 0 1 0.19,-0.29 l 0.34,-0.14 1.16,-0.37 0.28,-0.07 0.14,0.09 0.06,0.14 -0.08,0.44 -1.57,5.42 1.27,-1.89 z m 11.71,-13 a 1.85,1.85 0 0 1 0.27,-0.61 1.53,1.53 0 0 1 0.48,-0.23 l 0.74,-0.18 0.49,-0.07 a 0.83,0.83 0 0 1 0.38,0.17 l 0.07,0.21 a 4.62,4.62 0 0 1 -0.23,1 l -1.71,6 h 2.3 L 57.99,39.6 58,40 57.89,40.31 a 0.48,0.48 0 0 1 -0.21,0.18 h -0.35 -2.21 l -1.94,6.41 -0.62,2.27 a 3.75,3.75 0 0 0 -0.21,1.23 c 0,0.39 0.17,0.57 0.47,0.56 a 2.84,2.84 0 0 0 1.73,-1 l 1.15,-1.1 a 0.75,0.75 0 0 1 0.43,-0.25 h 0.13 l 0.13,0.12 0.08,0.22 v 0.14 l -0.12,0.25 a 4.45,4.45 0 0 1 -0.73,0.81 l -1.11,1 A 3.93,3.93 0 0 1 52,52.37 c -1.11,0 -1.65,-0.63 -1.63,-1.81 a 8.45,8.45 0 0 1 0.28,-1.93 L 51.06,47 53,40.54 h -1.17 -0.3 l -0.1,-0.17 0.1,-0.33 0.14,-0.33 a 0.39,0.39 0 0 1 0.16,-0.15 h 0.24 1.13 l 1.67,-6.28 z"
           id="path138" />
        <path
           class="cls-2"
           d="m 120.48,49.79 a 1.45,1.45 0 0 1 -0.24,0.54 1.65,1.65 0 0 1 -0.62,0.38 l -2.1,0.74 -2.42,0.71 a 24.49,24.49 0 0 1 -6,0.88 11.28,11.28 0 0 1 -5.63,-1.15 5.38,5.38 0 0 1 -2.92,-4.89 c 0,-2.31 1.11,-4.76 3.29,-7.37 a 20.2,20.2 0 0 1 3,-2.87 22.41,22.41 0 0 1 2.9,-1.79 l 1.9,-1 a 1.49,1.49 0 0 0 0.41,-0.33 0.23,0.23 0 0 0 0.09,-0.21 v -0.1 l -0.15,-0.25 -0.48,-0.56 a 4.45,4.45 0 0 1 -1.51,-2.9 4.27,4.27 0 0 1 0.55,-2.25 12.15,12.15 0 0 1 4.25,-4.26 18.5,18.5 0 0 1 5.52,-2.35 14.14,14.14 0 0 1 3.13,-0.37 q 3.84,0 3.91,2.64 a 12.57,12.57 0 0 1 -1.73,4.85 l -1,1.74 -0.32,0.43 -0.16,0.07 -0.34,-0.29 -0.51,-0.9 a 1.35,1.35 0 0 1 -0.25,-0.58 0.76,0.76 0 0 1 0.21,-0.46 29.91,29.91 0 0 0 1.74,-3.24 3.89,3.89 0 0 0 0.42,-1.62 c -0.07,-1.12 -0.78,-1.65 -2.15,-1.61 a 11.82,11.82 0 0 0 -4.38,1 12.19,12.19 0 0 0 -3.83,2.4 13.3,13.3 0 0 0 -1.85,2.18 6,6 0 0 0 -1.33,3.33 6.27,6.27 0 0 0 0.74,2.31 l 0.42,0.89 a 3.4,3.4 0 0 1 0.22,1 2.16,2.16 0 0 1 -1.13,1.67 l -1.81,1.09 a 24.14,24.14 0 0 0 -2.66,1.79 15,15 0 0 0 -2.82,2.81 10.14,10.14 0 0 0 -2.39,6.11 3.81,3.81 0 0 0 1.47,3 4.83,4.83 0 0 0 3.24,1 15.71,15.71 0 0 0 4.21,-0.56 28.21,28.21 0 0 0 4.47,-1.54 l 3.46,-1.58 1,-0.46 a 0.72,0.72 0 0 1 0.38,-0.1 l 0.13,0.08 V 48 l -0.08,0.44 -0.31,1.35 z m 2.83,-2.87 -0.44,0.44 c -0.12,0.13 -0.21,0.2 -0.3,0.2 l -0.23,-0.12 a 0.24,0.24 0 0 1 -0.08,-0.25 l 0.08,-0.25 0.32,-0.4 2.91,-3.26 0.38,-0.46 0.21,-0.46 0.28,-0.77 c 0.35,-1 0.9,-1.5 1.67,-1.51 a 0.73,0.73 0 0 1 0.8,0.83 l -0.07,0.35 a 1.55,1.55 0 0 1 -0.37,0.52 l -0.46,0.46 -0.63,0.68 0.42,0.82 0.41,0.89 a 12.32,12.32 0 0 1 0.5,1.59 7,7 0 0 1 0.2,1.57 4.83,4.83 0 0 1 -0.28,1.58 q -1,3 -4.46,3 a 3.64,3.64 0 0 1 -1.81,-0.38 c -0.75,-0.39 -1.13,-0.87 -1.11,-1.41 v -0.25 a 1,1 0 0 1 0.93,-0.56 2,2 0 0 1 1.53,0.79 l 0.57,0.6 a 1.07,1.07 0 0 0 0.85,0.34 c 0.92,0 1.45,-0.76 1.61,-2.17 V 48.4 a 13.63,13.63 0 0 0 -0.18,-2.21 l -0.31,-1.54 -0.21,-0.81 v 0 l -2.81,3.08 z m 9.52,-0.46 c 0.28,-0.61 0.57,-1.2 0.88,-1.76 a 6.9,6.9 0 0 1 1.09,-1.52 3.32,3.32 0 0 1 2.48,-1.18 2.74,2.74 0 0 1 2.18,1 3.56,3.56 0 0 1 0.83,2.35 8.2,8.2 0 0 1 -1.56,4.74 4.9,4.9 0 0 1 -4.16,2.31 4.14,4.14 0 0 1 -1.38,-0.21 q -1.14,-0.3 -1.11,-0.87 a 0.67,0.67 0 0 1 0.14,-0.4 l 0.15,-0.18 0.4,0.2 0.73,0.38 a 1.67,1.67 0 0 0 0.71,0.21 c 0.93,0 1.81,-0.77 2.65,-2.35 a 11.35,11.35 0 0 0 1.24,-3.56 6.27,6.27 0 0 0 0.1,-1.14 c 0,-1 -0.41,-1.58 -1.26,-1.61 -1.11,0 -2.22,1.13 -3.31,3.35 l -1.16,2.52 a 62.66,62.66 0 0 0 -2.39,6.78 L 129,59 l -0.85,2.62 -0.14,0.39 a 0.83,0.83 0 0 1 -0.23,0.29 l -0.28,0.11 -1.1,0.29 h -0.15 l -0.2,-0.08 -0.08,-0.12 v -0.25 l 1.26,-4.31 1.6,-5.64 1.54,-5.55 0.87,-3 a 2.64,2.64 0 0 1 0.26,-0.56 l 0.2,-0.23 0.18,-0.15 1.53,-0.72 0.22,-0.09 a 0.3,0.3 0 0 1 0.15,0.09 l 0.09,0.2 -0.05,0.29 -0.69,2.08 -1,3.43 0.67,-1.6 z m 10.76,0.27 1.11,-2 c 1,-1.83 1.93,-2.76 2.72,-2.77 0.79,-0.01 1.12,0.78 1.09,2.22 v 0.94 a 2.44,2.44 0 0 1 -0.14,0.71 l -0.2,0.25 -0.37,0.31 -0.93,0.6 a 0.68,0.68 0 0 1 -0.38,0.17 l -0.14,-0.11 v -0.08 -0.13 l 0.14,-0.41 0.27,-0.83 a 3.45,3.45 0 0 0 0.19,-0.83 v -0.25 -0.17 l -0.11,-0.18 -0.17,-0.06 -0.21,0.06 a 13,13 0 0 0 -2.46,3.52 26.19,26.19 0 0 0 -1.47,3.05 l -0.4,1 -0.1,0.19 a 0.27,0.27 0 0 1 -0.24,0.13 h -1.11 -0.34 l -0.11,-0.09 V 51.83 51.6 l 0.43,-1.5 0.74,-2.79 0.53,-2.51 0.22,-1.27 a 1,1 0 0 1 0.12,-0.52 0.52,0.52 0 0 1 0.3,-0.25 l 0.43,-0.19 1,-0.38 0.49,-0.18 0.18,0.18 -0.08,0.32 -0.27,0.77 -0.7,2.22 -0.7,2.42 0.68,-1.15 z m 6,3.54 a 1.42,1.42 0 0 0 1.49,1.23 5.8,5.8 0 0 0 3.25,-1.61 l 1.23,-1.14 a 0.7,0.7 0 0 1 0.36,-0.19 l 0.17,0.07 a 0.24,0.24 0 0 1 0.08,0.2 l -0.08,0.25 a 7.68,7.68 0 0 1 -3.69,2.85 4.58,4.58 0 0 1 -1.09,0.35 3.88,3.88 0 0 1 -1,0.09 c -1.86,0 -2.81,-0.89 -2.83,-2.62 a 7.79,7.79 0 0 1 2.22,-5.09 6.63,6.63 0 0 1 4.76,-2.66 2.23,2.23 0 0 1 1.5,0.55 1.85,1.85 0 0 1 0.64,1.45 q 0,2.7 -4.89,5 l -2.11,1 v 0.31 z m 0,-1.19 1,-0.47 c 2.24,-1.12 3.51,-2.42 3.83,-3.91 l 0.06,-0.69 c 0,-0.61 -0.18,-1 -0.5,-1.1 l -0.32,-0.07 a 1.86,1.86 0 0 0 -1.34,0.86 l -0.75,1.14 -0.9,1.6 -0.59,1.33 -0.5,1.31 z m 8.41,-2.16 -0.43,0.44 c -0.12,0.13 -0.22,0.2 -0.3,0.2 l -0.24,-0.12 a 0.28,0.28 0 0 1 -0.08,-0.25 l 0.08,-0.25 0.32,-0.4 2.91,-3.26 0.38,-0.46 0.22,-0.46 0.28,-0.77 c 0.34,-1 0.9,-1.5 1.67,-1.51 a 0.72,0.72 0 0 1 0.79,0.83 l -0.06,0.35 a 1.58,1.58 0 0 1 -0.38,0.52 l -0.45,0.46 -0.64,0.68 0.42,0.82 0.41,0.89 a 11,11 0 0 1 0.51,1.59 7.62,7.62 0 0 1 0.19,1.57 4.81,4.81 0 0 1 -0.27,1.58 q -1,3 -4.47,3 a 3.67,3.67 0 0 1 -1.81,-0.38 c -0.75,-0.39 -1.12,-0.87 -1.11,-1.41 v -0.25 a 1,1 0 0 1 0.94,-0.56 2,2 0 0 1 1.52,0.79 l 0.58,0.6 a 1.06,1.06 0 0 0 0.85,0.34 c 0.91,0 1.45,-0.76 1.61,-2.17 V 48.4 a 13.63,13.63 0 0 0 -0.18,-2.21 L 161,44.65 160.8,43.84 v 0 z m 7.36,0 -0.43,0.44 c -0.12,0.13 -0.22,0.2 -0.3,0.2 l -0.24,-0.12 a 0.28,0.28 0 0 1 -0.08,-0.25 l 0.08,-0.25 0.32,-0.4 2.91,-3.26 0.38,-0.46 0.22,-0.46 0.28,-0.77 c 0.34,-1 0.9,-1.5 1.67,-1.51 a 0.72,0.72 0 0 1 0.79,0.83 l -0.06,0.35 a 1.58,1.58 0 0 1 -0.38,0.52 l -0.45,0.46 -0.64,0.68 0.42,0.82 0.42,0.89 a 12.32,12.32 0 0 1 0.5,1.59 7,7 0 0 1 0.19,1.57 4.81,4.81 0 0 1 -0.27,1.58 q -1,3 -4.47,3 a 3.69,3.69 0 0 1 -1.81,-0.38 c -0.75,-0.39 -1.12,-0.87 -1.11,-1.41 v -0.25 a 1,1 0 0 1 0.94,-0.56 2,2 0 0 1 1.52,0.79 l 0.58,0.6 a 1.06,1.06 0 0 0 0.85,0.34 c 0.92,0 1.45,-0.76 1.61,-2.17 V 48.4 a 13.63,13.63 0 0 0 -0.18,-2.21 l -0.32,-1.54 -0.2,-0.81 v 0 l -2.82,3.08 z m 5.64,2.39 a 7,7 0 0 1 2.23,-4.9 Q 175.6,42 177.88,42 a 2.81,2.81 0 0 1 2.11,0.85 3,3 0 0 1 0.89,2.19 7.13,7.13 0 0 1 -1.31,4 8,8 0 0 1 -3,2.78 4.83,4.83 0 0 1 -2.44,0.63 3.12,3.12 0 0 1 -2.21,-0.85 2.78,2.78 0 0 1 -0.91,-2.21 z m 2.09,0.75 a 1.92,1.92 0 0 0 0.16,0.79 l 0.22,0.36 0.3,0.2 a 0.68,0.68 0 0 0 0.41,0.09 q 2.44,0 4.15,-5 a 7.16,7.16 0 0 0 0.43,-2.23 1.28,1.28 0 0 0 -1.32,-1.44 q -1.53,0 -3.1,2.93 a 9.1,9.1 0 0 0 -1.25,4.29 z"
           id="path140" />
        <path
           class="cls-1"
           d="m 0.11,45.74 a 13.26,13.26 0 0 1 3.18,-6.16 19.72,19.72 0 0 1 3,-2.87 22.41,22.41 0 0 1 2.9,-1.79 l 1.9,-1 a 1.65,1.65 0 0 0 0.41,-0.33 0.23,0.23 0 0 0 0.08,-0.21 v -0.1 L 11.36,33 10.88,32.44 A 4.4,4.4 0 0 1 9.43,29.61 4.27,4.27 0 0 1 10,27.37 a 12.15,12.15 0 0 1 4.25,-4.26 18.39,18.39 0 0 1 5.52,-2.35 14.07,14.07 0 0 1 3.13,-0.37 q 3.84,0 3.91,2.64 a 12.57,12.57 0 0 1 -1.73,4.85 l -1,1.74 -0.31,0.43 -0.16,0.07 -0.34,-0.29 -0.51,-0.9 a 1.23,1.23 0 0 1 -0.25,-0.58 c 0,-0.1 0,-0.25 0.21,-0.46 A 31.75,31.75 0 0 0 24.48,24.65 3.89,3.89 0 0 0 24.89,23 c -0.07,-1.12 -0.78,-1.65 -2.15,-1.61 a 11.78,11.78 0 0 0 -4.38,1 12.19,12.19 0 0 0 -3.83,2.4 13.3,13.3 0 0 0 -1.87,2.21 5.89,5.89 0 0 0 -1.33,3.33 6.27,6.27 0 0 0 0.74,2.31 l 0.42,0.89 a 3.09,3.09 0 0 1 0.21,1 2.11,2.11 0 0 1 -1.13,1.67 L 9.76,37.31 A 24,24 0 0 0 7.11,39.1 14.72,14.72 0 0 0 4.29,41.91 11.92,11.92 0 0 0 2.21,45.84 Z M 53,47.56 h -2.07 l 0.13,-0.52 1.94,-6.5 h -1.17 -0.3 l -0.1,-0.17 0.1,-0.33 0.14,-0.33 a 0.39,0.39 0 0 1 0.16,-0.15 h 0.24 1.13 l 1.67,-6.28 a 1.85,1.85 0 0 1 0.27,-0.61 1.53,1.53 0 0 1 0.48,-0.23 l 0.74,-0.18 0.49,-0.07 a 0.83,0.83 0 0 1 0.38,0.17 l 0.07,0.21 a 4.62,4.62 0 0 1 -0.23,1 l -1.71,6 h 2.3 L 58.02,39.71 58,40 57.89,40.31 a 0.48,0.48 0 0 1 -0.21,0.18 h -0.35 -2.21 l -1.94,6.41 z m -4.87,-0.1 h -2 l 0.05,-0.15 0.62,-1.83 0.42,-1.22 A 3,3 0 0 0 47.35,43.6 0.61,0.61 0 0 0 46.8,42.93 c -0.39,0 -0.79,0.31 -1.23,0.89 l -1,1.37 -1.44,2.2 h -0.8 l 0.77,-1.15 1.43,-2.08 c 1,-1.39 1.88,-2.09 2.71,-2.12 a 1.86,1.86 0 0 1 1.81,1.9 6.15,6.15 0 0 1 -0.32,1.79 l -0.61,1.68 v 0.12 z m -6,-0.14 h -1.94 l 1.08,-4.11 0.11,-0.38 a 0.67,0.67 0 0 1 0.19,-0.29 l 0.34,-0.14 1.15,-0.4 0.28,-0.07 0.14,0.09 0.06,0.14 -0.08,0.44 -1.35,4.68 z M 37.25,47.19 35.41,47.13 A 4.49,4.49 0 0 0 36.96,44.7 L 37,44 c 0,-0.61 -0.17,-1 -0.49,-1.1 l -0.32,-0.07 a 1.89,1.89 0 0 0 -1.35,0.86 l -0.75,1.14 -0.89,1.6 -0.28,0.62 L 30.66,47 A 10.65,10.65 0 0 1 32.22,44.67 6.65,6.65 0 0 1 37,42 a 2.2,2.2 0 0 1 1.49,0.55 1.86,1.86 0 0 1 0.6,1.45 4.14,4.14 0 0 1 -1.86,3.18 z M 29,46.94 h -1.39 c 0.16,-0.35 0.32,-0.74 0.48,-1.14 l 0.73,-1.81 0.42,-1.16 a 0.65,0.65 0 0 1 0.53,-0.63 l 0.84,-0.14 h 0.19 a 0.35,0.35 0 0 1 0.34,0.42 v 0.27 l -0.13,0.41 a 20.48,20.48 0 0 1 -1.75,3.51 c -0.07,0.12 -0.14,0.24 -0.22,0.36 z m -5,-0.17 -1.85,-0.07 0.17,-0.75 0.77,-2.61 0.16,-0.43 0.18,-0.29 a 1.18,1.18 0 0 1 0.36,-0.21 l 0.87,-0.29 0.56,-0.15 0.17,0.11 0.07,0.2 -0.07,0.34 -0.17,0.56 -0.62,1.64 -0.6,2 z"
           id="path142" />
        <path
           class="cls-3"
           d="m 100.63,47.89 a 7,7 0 0 1 -0.08,-0.94 c 0,-2.31 1.11,-4.76 3.29,-7.37 a 20.2,20.2 0 0 1 3,-2.87 22.41,22.41 0 0 1 2.9,-1.79 l 1.9,-1 a 1.49,1.49 0 0 0 0.41,-0.33 0.23,0.23 0 0 0 0.09,-0.21 v -0.1 l -0.15,-0.25 -0.48,-0.56 a 4.45,4.45 0 0 1 -1.51,-2.85 4.27,4.27 0 0 1 0.55,-2.25 12.15,12.15 0 0 1 4.25,-4.26 18.5,18.5 0 0 1 5.52,-2.35 14.14,14.14 0 0 1 3.13,-0.37 q 3.84,0 3.91,2.64 a 12.57,12.57 0 0 1 -1.73,4.85 l -1,1.74 -0.32,0.43 -0.16,0.07 -0.34,-0.29 -0.51,-0.9 a 1.35,1.35 0 0 1 -0.25,-0.58 0.76,0.76 0 0 1 0.21,-0.46 29.91,29.91 0 0 0 1.74,-3.24 3.89,3.89 0 0 0 0.42,-1.62 c -0.07,-1.12 -0.78,-1.65 -2.15,-1.61 a 11.82,11.82 0 0 0 -4.38,1 12.19,12.19 0 0 0 -3.83,2.4 13.3,13.3 0 0 0 -1.85,2.18 6,6 0 0 0 -1.33,3.33 6.27,6.27 0 0 0 0.74,2.31 l 0.42,0.89 a 3.4,3.4 0 0 1 0.22,1 2.16,2.16 0 0 1 -1.13,1.67 l -1.81,1.09 a 24.14,24.14 0 0 0 -2.66,1.79 15,15 0 0 0 -2.82,2.81 10.19,10.19 0 0 0 -2.39,6 z m 80.21,-2.16 -2.28,0.12 a 6,6 0 0 0 0.23,-1.57 1.28,1.28 0 0 0 -1.32,-1.44 q -1.53,0 -3.1,2.93 l -0.14,0.28 -2.32,0.11 a 9.57,9.57 0 0 1 1.35,-1.75 Q 175.6,42 177.88,42 a 2.81,2.81 0 0 1 2.11,0.85 3,3 0 0 1 0.89,2.19 5.79,5.79 0 0 1 0,0.72 z m -10.07,0.48 -2,0.09 v -0.11 l -0.32,-1.54 -0.2,-0.81 v 0 l -2.36,2.58 h -1 l 2.84,-3.19 0.38,-0.46 0.22,-0.46 0.28,-0.77 c 0.34,-1 0.9,-1.5 1.67,-1.51 a 0.72,0.72 0 0 1 0.79,0.83 l -0.06,0.35 a 1.58,1.58 0 0 1 -0.38,0.52 l -0.45,0.46 -0.64,0.68 0.42,0.82 0.42,0.89 a 10.79,10.79 0 0 1 0.49,1.58 z m -7.29,0.31 -2.07,0.08 -0.06,-0.41 -0.35,-1.54 -0.2,-0.81 v 0 l -2.64,2.88 h -1 l 0.17,-0.22 2.91,-3.26 0.38,-0.46 0.22,-0.46 0.28,-0.77 c 0.34,-1 0.9,-1.5 1.67,-1.51 a 0.72,0.72 0 0 1 0.79,0.83 l -0.06,0.35 a 1.58,1.58 0 0 1 -0.38,0.52 l -0.45,0.46 -0.64,0.68 0.42,0.82 0.41,0.89 a 11,11 0 0 1 0.51,1.59 l 0.06,0.3 z m -8.32,0.31 -2,0.07 a 4.38,4.38 0 0 0 1.3,-2.2 l 0.06,-0.69 c 0,-0.61 -0.18,-1 -0.5,-1.1 l -0.32,-0.07 a 1.86,1.86 0 0 0 -1.34,0.86 l -0.75,1.14 -0.9,1.6 -0.24,0.54 -2.33,0.08 a 10.55,10.55 0 0 1 1.6,-2.4 6.63,6.63 0 0 1 4.72,-2.66 2.23,2.23 0 0 1 1.5,0.55 1.85,1.85 0 0 1 0.64,1.45 3.82,3.82 0 0 1 -1.44,2.82 z m -8.49,0.27 h -0.3 -0.06 v -0.08 -0.13 l 0.14,-0.41 0.27,-0.83 a 3.45,3.45 0 0 0 0.19,-0.83 V 44.57 44.4 l -0.11,-0.18 -0.17,-0.06 -0.21,0.06 a 11.46,11.46 0 0 0 -2.09,3 h -1 l 0.28,-0.47 1.11,-2 c 1,-1.83 1.93,-2.76 2.72,-2.77 0.79,-0.01 1.12,0.78 1.09,2.22 v 0.94 a 2.44,2.44 0 0 1 -0.14,0.71 l -0.2,0.25 -0.37,0.31 -0.93,0.6 a 1,1 0 0 1 -0.16,0.1 z m -3.56,0.1 h -1.68 l 0.53,-2.49 0.22,-1.27 a 1,1 0 0 1 0.12,-0.52 0.52,0.52 0 0 1 0.3,-0.25 l 0.43,-0.19 1,-0.38 0.49,-0.18 0.18,0.18 -0.08,0.32 -0.27,0.77 -0.7,2.22 -0.5,1.74 z m -3.08,0.09 -2.38,0.06 a 10.82,10.82 0 0 0 0.45,-1.76 6.27,6.27 0 0 0 0.1,-1.14 c 0,-1 -0.41,-1.58 -1.26,-1.61 -1.11,0 -2.22,1.13 -3.31,3.35 l -0.58,1.26 h -0.64 l 0.42,-1 c 0.28,-0.61 0.57,-1.2 0.88,-1.76 a 6.9,6.9 0 0 1 1.09,-1.52 3.32,3.32 0 0 1 2.48,-1.17 2.74,2.74 0 0 1 2.18,1 3.56,3.56 0 0 1 0.83,2.35 8.51,8.51 0 0 1 -0.26,2 z m -7.69,0.18 -2.13,0.05 0.22,-0.81 0.87,-3 a 2.64,2.64 0 0 1 0.26,-0.56 l 0.2,-0.23 0.18,-0.15 1.53,-0.72 0.22,-0.09 a 0.3,0.3 0 0 1 0.15,0.09 l 0.09,0.2 -0.05,0.29 -0.69,2.08 -0.85,2.84 z m -3.44,0.07 h -2.1 a 13.46,13.46 0 0 0 -0.16,-1.39 l -0.31,-1.54 -0.21,-0.81 v 0 l -2.81,3.08 -0.44,0.44 c -0.12,0.13 -0.21,0.2 -0.3,0.2 l -0.23,-0.12 a 0.24,0.24 0 0 1 -0.08,-0.25 l 0.08,-0.25 0.32,-0.4 2.91,-3.26 0.38,-0.46 0.21,-0.46 0.28,-0.77 c 0.35,-1 0.9,-1.5 1.67,-1.51 a 0.73,0.73 0 0 1 0.8,0.83 l -0.07,0.35 a 1.55,1.55 0 0 1 -0.37,0.52 l -0.46,0.46 -0.63,0.68 0.42,0.82 0.41,0.89 a 12.32,12.32 0 0 1 0.5,1.59 7.36,7.36 0 0 1 0.19,1.32 z"
           id="path144" />
        <path
           class="cls-4"
           d="m 62.17,29 a 1.19,1.19 0 0 1 0,-0.32 H 62 v 0 C 64,42.3 71.19,49.06 78.27,49 91.1,48.78 90.16,31 97.6,30.22 a 3.31,3.31 0 0 1 3.52,3.16 3.39,3.39 0 0 1 -3,3.69 3.15,3.15 0 0 1 -2.23,-0.68 c 1.28,1.85 3.34,1.63 4.75,0.49 2.53,-2 1.94,-6.34 -0.77,-7.82 a 4.86,4.86 0 0 0 -4.62,0.1 9.06,9.06 0 0 0 -3.06,2.9 C 88.34,37.75 86.65,47.39 78.08,47.35 69.2,47.3 64.27,36.49 62.17,29 Z"
           id="path146" />
        <path
           class="cls-4"
           d="m 66.92,25.08 c -3.06,0.91 -5,2.2 -5,3.63 0,2.76 7.11,5 15.88,5 8.77,0 15.89,-2.23 15.89,-5 0,-1.43 -1.92,-2.72 -5,-3.63 l 0.5,0.21 c 2.17,0.76 3.48,1.73 3.48,2.8 0,1.84 -3.93,3.42 -9.47,4 a 40,40 0 0 1 -5.42,0.36 38.14,38.14 0 0 1 -7,-0.61 c -4.54,-0.74 -7.61,-2.16 -7.61,-3.79 0,-0.85 0.83,-1.64 2.26,-2.31 a 10.19,10.19 0 0 1 1.44,-0.7 z"
           id="path148" />
        <path
           class="cls-4"
           d="m 66.56,44.9 c -3.17,1.19 -5.14,2.88 -5.14,4.75 0,3.61 7.34,6.54 16.4,6.54 9.06,0 16.41,-2.93 16.41,-6.54 0,-1.87 -2,-3.56 -5.14,-4.75 l 0.52,0.28 c 2.24,1 3.59,2.27 3.59,3.66 0,2.41 -4.06,4.47 -9.78,5.29 a 32.8,32.8 0 0 1 -5.6,0.46 31.93,31.93 0 0 1 -7.22,-0.79 c -4.69,-1 -7.87,-2.83 -7.87,-5 0,-1.11 0.86,-2.14 2.34,-3 a 10.89,10.89 0 0 1 1.49,-0.92 z"
           id="path150" />
        <path
           class="cls-4"
           d="m 71.1,46 c -1.89,0.56 -3.07,1.36 -3.07,2.24 0,1.7 4.38,3.08 9.79,3.08 5.41,0 9.8,-1.38 9.8,-3.08 0,-0.88 -1.18,-1.68 -3.07,-2.24 l 0.31,0.13 c 1.34,0.47 2.15,1.07 2.15,1.73 0,1.13 -2.43,2.11 -5.85,2.49 a 24.75,24.75 0 0 1 -3.34,0.22 24.47,24.47 0 0 1 -4.31,-0.37 c -2.8,-0.46 -4.7,-1.34 -4.7,-2.34 0,-0.53 0.51,-1 1.4,-1.43 A 5.69,5.69 0 0 1 71.1,46 Z"
           id="path152" />
        <path
           class="cls-4"
           d="m 69.3,24.87 c 5.29,6 12.13,4.14 14.86,-0.9 2.43,-4.49 1,-8 -1.38,-11.47 C 80.94,9.74 78.55,7.22 79.11,3.72 a 4.39,4.39 0 0 1 6.78,-3 C 91,4.19 85.82,9.92 82.8,6.72 85.28,8 86.75,6 86.44,4.3 86.02,1.96 82.26,1.3 81.32,3.6 a 4.22,4.22 0 0 0 0.41,3.63 c 2.63,4.32 6.47,6.61 6.12,12.4 C 87.25,29.28 75,34 69.3,24.87 Z"
           id="path154" />
        <path
           class="cls-4"
           d="m 69.92,25.52 c 3.21,3.63 7.35,2.51 9,-0.55 1.47,-2.72 0.58,-4.83 -0.84,-6.95 -1.12,-1.67 -2.56,-3.2 -2.23,-5.32 a 2.66,2.66 0 0 1 3,-2.23 2.73,2.73 0 0 1 1.15,0.43 c 3.09,2.1 0,5.57 -1.88,3.64 a 1.42,1.42 0 0 0 2.21,-1.49 1.69,1.69 0 0 0 -3.11,-0.42 2.56,2.56 0 0 0 0.26,2.2 c 1.59,2.62 3.92,4 3.7,7.51 -0.36,5.85 -7.81,8.7 -11.24,3.18 z"
           id="path156" />
        <path
           class="cls-4"
           d="m 85.34,20.51 c 0.38,-2.92 -0.86,-5.46 -2.56,-8 C 80.94,9.75 78.55,7.23 79.11,3.73 a 4.39,4.39 0 0 1 6.78,-3 C 91,4.2 85.82,9.93 82.8,6.73 85.28,8 86.75,6 86.44,4.3 86.02,1.96 82.26,1.3 81.32,3.6 a 4.22,4.22 0 0 0 0.41,3.63 c 2.4,3.94 5.81,6.2 6.11,11 a 14,14 0 0 1 -2.5,2.33 z m -5.67,2.13 A 7.35,7.35 0 0 0 78.09,18 C 76.97,16.33 75.53,14.8 75.87,12.68 A 2.64,2.64 0 0 1 78.82,10.45 2.73,2.73 0 0 1 80,10.9 c 3.09,2.1 0,5.57 -1.88,3.64 a 1.42,1.42 0 0 0 2.21,-1.49 1.69,1.69 0 0 0 -3.11,-0.42 2.56,2.56 0 0 0 0.26,2.2 c 1.59,2.62 3.92,4 3.7,7.51 v 0.08 a 10.35,10.35 0 0 1 -1.48,0.22 z"
           id="path158" />
      </g>
    </g>
  </g>
  <metadata
     id="metadata1204">
    <rdf:RDF>
      <cc:Work
         rdf:about="">
        <dc:title>Event_Espresso</dc:title>
      </cc:Work>
    </rdf:RDF>
  </metadata>
</svg>
