<svg height="360" viewBox="0 0 640 360" width="640" xmlns="http://www.w3.org/2000/svg"><g fill="#020202" fill-rule="nonzero" transform="translate(80 118)"><path d="m42.976657 92.8819873-1.2063623 5.9130435c-4.2557994 1.9875772-8.436138 3.5113812-12.5411413 4.5714282-4.1050035 1.060047-7.8329607 1.590062-11.183984 1.590062-3.6861254 0-6.8863045-.521739-9.60063326-1.565217-2.71432877-1.043478-4.80030939-2.558996-6.25800447-4.5465838-1.45769507-1.9875876-2.18653167-4.3229681-2.18653167-7.0062112 0-4.4720721 2.04409346-8.9192327 6.13234172-13.3416149 4.08824828-4.4223824 9.91894118-8.5051572 17.49225338-12.2484474-3.619105-.5962761-5.4286304-2.45133-5.4286304-5.5652173 0-4.4389456 3.8871287-9.424403 11.6615022-14.9565217 2.4127367-1.7225759 4.8673244-3.2380888 7.3638368-4.5465839 2.4965121-1.3084951 4.8421932-2.3105555 7.0371133-3.0062111 2.1949202-.6956557 4.130107-1.0434783 5.8056187-1.0434783 1.742532 0 3.1080535.4720451 4.0966054 1.416149.9885517.9441042 1.4828202 2.2277352 1.4828202 3.8509317 0 1.4906908-.3769844 3.1966777-1.1309646 5.1180126-.7539803 1.9213346-1.8514238 3.9254553-3.2923638 6.0124222-1.4409401 2.086967-3.049407 3.975147-4.8254493 5.6645964l-2.6640501-2.8819877c5.2275962-5.6977509 7.8413551-10.2360079 7.8413551-13.6149068 0-2.2857257-1.373899-3.4285715-4.121738-3.4285715-1.742532 0-3.8871546.5134526-6.4339321 1.5403727-2.5467778 1.0269204-5.0767623 2.4016477-7.5900297 4.1242237-3.351023 2.2525993-6.0066691 4.6542315-7.9670176 7.2049688-1.9603486 2.5507375-2.9405082 4.8198759-2.9405082 6.8074534 0 .9606675.309965 1.8716314.9299043 2.7329194s1.3822855 1.4741183 2.287062 1.8385093c.9382863.3312646 2.5635083.5465833 4.8757142.6459626h.8545066l-.6534463 3.1801244c-5.0600449 2.1532198-10.1367688 5.0848675-15.230324 8.7950309-8.44457839 6.1615216-12.66680424 11.9585651-12.66680424 17.3913044 0 2.7163698 1.0639339 4.9275279 3.19183361 6.6335401 2.1278997 1.706013 4.85056513 2.559006 8.16807803 2.559006 2.3122061 0 4.8673229-.347822 7.6654272-1.043478 2.7981044-.695655 5.9061317-1.7556862 9.3241753-3.1801239 3.4180437-1.4244377 7.321927-3.2960547 11.7117673-5.6149068zm5.1136359-16.1987579 4.5238586-2.037267v1.2919255c.1005308 4.8364631.3853634 9.9212984.8545066 15.2546583.2680819 2.7826226.5026501 4.8447138.7037115 6.1863354.2010613 1.3416217.4356294 2.2443042.7037113 2.7080744.2680817.463771.6366889.695652 1.105832.695652 1.2398786 0 3.4515207-2.33538 6.6349926-7.0062108 2.8483698-4.107681 4.2725332-7.9006038 4.2725332-11.3788821 0-1.225679-.1507936-2.2443022-.4523859-3.0559005-.3015919-.8115983-.8712574-1.6314659-1.7090131-2.4596273l3.7698822-3.4782609c1.1728581 1.5238171 1.7592782 3.378871 1.7592782 5.5652175 0 4.4058191-2.6472684 10.2194255-7.9418851 17.4409936-1.608491 2.1863463-3.3174872 4.1407785-5.1270397 5.8633545-.8377558.761908-1.5163278 1.300205-2.0357366 1.614906-.5194085.314702-1.0304317.47205-1.5330853.47205-.8042455 0-1.3906657-.314696-1.7592783-.944099-.3686125-.629403-.6534452-1.821938-.8545066-3.5776399zm42.0584813 19.3291927.9047717.7453416c-2.0776342 2.7163697-4.1049729 4.6790833-6.0820765 5.8881983-1.9771036 1.209116-4.1049715 1.813665-6.3836673 1.813665-2.7143287 0-4.8924611-.894401-6.5344624-2.68323-1.6420014-1.7888286-2.4629898-4.1573349-2.4629898-7.1055898 0-2.9813815.7958562-6.0041256 2.3875922-9.068323 1.5917358-3.0641976 3.5855649-5.5983337 5.9815462-7.6024845 2.3959816-2.0041508 4.766795-3.0062112 7.1125111-3.0062112 1.3739196 0 2.5048729.3975115 3.3928941 1.1925466.8880211.795035 1.3320251 1.8219399 1.3320251 3.0807452 0 2.5507374-1.4074087 5.1014366-4.2222682 7.652174-2.8148595 2.5507373-6.6517233 4.720488-11.510707 6.5093168-.0335102.2650117-.0502649.5631452-.0502649.8944099 0 2.2857258.6366848 4.1490684 1.9100735 5.5900622 1.2733888 1.4410008 2.9153655 2.1614908 4.9259795 2.1614908 1.5749808 0 3.0996736-.488608 4.5741236-1.465839 1.4744503-.9772303 3.0494075-2.509306 4.7249191-4.5962729zm-16.0848308-3.7763976c3.6191051-1.59007 6.4004126-3.362309 8.344006-5.3167702 1.3068991-1.3250583 2.3624555-2.7494749 3.166701-4.2732918.8042456-1.5238173 1.2063623-2.8985447 1.2063623-4.1242237 0-1.5569436-.7204591-2.3354037-2.1613992-2.3354037-2.1781649 0-4.3814295 1.6977056-6.6098599 5.0931676-2.2284305 3.3954621-3.5436873 7.0475995-3.9458102 10.9565218zm17.5291145 11.9751555 5.3281002-27.5279506 4.7751839-2.037267-4.322798 18.2360249c2.781349-5.7971304 5.545902-10.2028834 8.293741-13.2173913 2.747839-3.0145078 5.378353-4.5217391 7.89162-4.5217391 1.239879 0 2.245171.405793 3.015906 1.2173913.770735.8115982 1.156096 1.8964733 1.156096 3.2546583 0 .7619087-.184303 1.8385023-.552915 3.2298136l-.502651 2.0869566-1.507953 6.0621119-.502651 1.9378881c-.502654 1.9875874-.753976 3.5113819-.753976 4.5714285 0 1.0600468.184303 1.9130404.552916 2.5590058.368613.645966.854503.968945 1.457688.968945 1.038817 0 2.697549-1.2256611 4.976244-3.6770191l.804241.6956521-.50265.5465838c-1.910083 2.2194732-3.317492 3.7184232-4.222268 4.4968942-.904777.778472-1.74252 1.167702-2.513255 1.167702-1.038817 0-1.918447-.521734-2.638918-1.565217-.72047-1.043484-1.080699-2.343678-1.080699-3.9006212 0-1.0600468.201058-2.6335301.60318-4.7204971l1.960339-10.5341614c.268082-1.6563229.402121-2.8157316.402121-3.4782608 0-.6956556-.184303-1.2256711-.552916-1.5900621-.368612-.3643911-.871258-.5465838-1.507952-.5465838-2.312206 0-5.160534 2.4513212-8.545067 7.3540372-1.642001 2.3519786-2.999145 4.6790776-4.0714728 6.9813664-1.0723275 2.3022889-2.2786776 5.4906628-3.619087 9.5652178l-.4523857 1.341615zm39.0425751-27.0310562-3.820146 16.5465839c-.402124 1.8219553-.603182 3.1138678-.603182 3.8757765 0 1.1925466.284833 2.1532054.854506 2.8819878.569675.728782 1.323643 1.093167 2.261931 1.093167.904776 0 1.734141-.256726 2.488121-.770186s1.901688-1.5817723 3.443159-3.2049688l.603182-.5962735.753977.7453419c-1.977105 2.3851054-3.627459 4.0662474-4.951113 5.0434784-1.323654.97723-2.622156 1.465838-3.895545 1.465838-1.608491 0-2.890238-.521734-3.845279-1.565217-.955043-1.043484-1.432556-2.40993-1.432556-4.0993792 0-1.2588053.251323-3.0807334.753977-5.4658383l3.26723-15.9503107h-4.825448l.351856-1.6894409h4.825448l2.814846-13.4161492 4.825449-1.8881985-3.518557 15.3043477h8.142945l-.351855 1.6894409zm195.585032 16.1191174-1.199786 5.9572977c-4.232604 2.0024631-8.390157 3.5376611-12.472785 4.6056421-4.082628 1.06798-7.790264 1.601962-11.123023 1.601962-3.666032 0-6.848768-.525639-9.548302-1.576931-2.699535-1.051294-4.774145-2.578149-6.223894-4.5806118-1.44975-2.0024629-2.174614-4.3553217-2.174614-7.0586468 0-4.5055418 2.032952-8.9859855 6.098917-13.4414657 4.065963-4.4554804 9.864874-8.5688114 17.396907-12.3401168-3.599379-.6007389-5.39904-2.4696763-5.39904-5.6068683 0-4.4721675 3.865941-9.4949369 11.597937-15.0684589 2.399587-1.735468 4.840795-3.2623232 7.323699-4.5806114 2.482905-1.3182879 4.815801-2.3278479 6.998757-3.02871 2.182957-.7008621 4.107595-1.0512879 5.773975-1.0512879 1.733032 0 3.091111.475578 4.074274 1.4267479.983163.9511698 1.474739 2.2444078 1.474739 3.8797526 0 1.5018472-.374931 3.2206023-1.1248 5.1563164-.749871 1.9357143-1.841333 3.9548343-3.274419 6.0574204-1.433085 2.1025862-3.032786 4.0048975-4.799146 5.706991l-2.649531-2.9035568c5.199103-5.7403939 7.798614-10.312616 7.798614-13.7168032 0-2.3028323-1.366408-3.4542313-4.099271-3.4542313-1.733033 0-3.865967.5172952-6.398863 1.5519011-2.532895 1.034606-5.04909 2.4196221-7.548657 4.1550899-3.332758 2.2694581-5.973929 4.6890647-7.923593 7.2588922-1.949663 2.5698275-2.92448 4.8559387-2.92448 6.8584016 0 .967857.308277 1.8856389.924837 2.7533729.61656.8677339 1.374751 1.4851508 2.274594 1.852269.933172.3337438 2.549536.5506741 4.84914.6507972h.849848l-.649885 3.2039249c-5.032464 2.1693349-10.081517 5.1229234-15.147308 8.8608544-8.39855 6.2076355-12.59776 12.0480648-12.59776 17.5214638 0 2.7366995 1.058134 4.9644061 3.174435 6.6831866 2.1163 1.718781 4.824126 2.578159 8.123557 2.578159 2.299603 0 4.840792-.350426 7.623645-1.051288 2.782852-.700862 5.873939-1.768827 9.273351-3.203925 3.399413-1.4350985 7.282018-3.320723 11.647931-5.6569298zm.986492 7.7094438 2.7995-3.3040471c1.466414 3.4709361 3.79931 5.2063781 6.998757 5.2063781 1.666379 0 3.091112-.542326 4.27424-1.626993 1.183131-1.084668 1.774685-2.344532 1.774685-3.7796305 0-1.0346059-.28328-1.9190137-.849849-2.6532503-.566569-.7342363-1.916314-1.9690701-4.04928-3.704538-1.966327-1.6019703-3.291078-2.8618344-3.974293-3.7796299-.683216-.9177957-1.024818-1.9774164-1.024818-3.1788943 0-1.568596.458247-3.0203599 1.374755-4.3553353.916507-1.3349753 2.141279-2.411283 3.674347-3.2289554s3.149432-1.2265025 4.849138-1.2265025c1.499741 0 2.757839.3754562 3.774328 1.1263798 1.016493.7509237 1.52473 1.7104228 1.52473 2.8785263 0 1.5352215-.649877 2.586499-1.949653 3.1538634-.199965-1.5685959-.791522-2.7950862-1.774685-3.6795075-.983163-.8844209-2.241261-1.326625-3.774329-1.326625-1.366431 0-2.557875.4422041-3.574364 1.326625-1.016491.8844213-1.52473 1.8939813-1.52473 3.0287103 0 1.4017241.866505 2.7867402 2.599538 4.1550899l2.899485 2.3528823c2.832843 2.2360839 4.249245 4.5221948 4.249245 6.8584015 0 1.7354681-.491575 3.3624448-1.474738 4.8809792-.983165 1.518535-2.316246 2.728338-3.999289 3.629446-1.683042.901109-3.45771 1.351656-5.324054 1.351656-2.966155 0-5.465686-1.368329-7.498666-4.105029zm17.683523 23.078271 9.44832-47.1077068 4.799147-2.0525142-3.299413 14.3676001c2.46624-4.9727831 4.790804-8.5521319 6.97376-10.7381541 2.182957-2.1860223 4.574174-3.2790168 7.173725-3.2790168 1.999654 0 3.58269.7342253 4.749157 2.2026982 1.166464 1.4684729 1.749689 3.4875929 1.749689 6.0574204 0 2.6032019-.524901 5.2731125-1.574721 8.009812-1.049819 2.7366994-2.524542 5.2230537-4.424214 7.4591376-3.432741 4.1384236-7.215363 6.2076046-11.347983 6.2076046-2.59955 0-4.732484-.684165-6.398862-2.052515l-5.149085 20.925634zm8.598472-24.2296812c1.399758 2.7366992 3.366055 4.1050282 5.89895 4.1050282 3.666034 0 6.865434-2.986962 9.598294-8.9609767 2.232949-4.8059113 3.349406-8.8441512 3.349406-12.1148407 0-1.7688423-.333272-3.1371715-.999823-4.1050287-.666552-.9678571-1.616372-1.4517785-2.849493-1.4517785-1.999654 0-4.09926 1.3182686-6.298881 3.9548447-2.099637 2.603202-3.882636 5.5067298-5.349049 8.7106706-.566568 1.2682266-1.091471 2.6198689-1.574719 4.0549673-.483251 1.4350987-.941498 2.9035494-1.374757 4.4053967zm23.732448-9.8620811c2.866173-3.4709358 4.782479-6.7082026 5.748977-9.711897-2.699532-1.5018473-4.04928-3.6544628-4.04928-6.457911 0-1.3349752.316607-2.4196265.949832-3.253986.633224-.8343597 1.433074-1.2515332 2.399574-1.2515332.999827 0 1.816341.4588909 2.449565 1.3766864.633222.9177956.949831 2.110912.949831 3.5793848 0 1.0346059-.183299 2.1860049-.549902 3.4542313.899843.2336207 1.716358.3504295 2.449563.3504295 2.066311 0 3.765991-.6007299 5.099094-1.8022079h2.399573l-.349936.7008586c-2.399587 4.4054186-4.374216 8.73568-5.923948 12.9909139-1.549733 4.2552339-2.324586 7.4340962-2.324586 9.5366825 0 .7676104.199962 1.4100584.599893 1.9273614s.883172.77595 1.449741.77595c1.366432 0 3.566019-1.451764 6.598828-4.3553353l.799858.901104c-.933172 1.0346058-2.3829 2.3195003-4.349227 3.8547223-1.766361 1.401724-3.416051 2.102575-4.949119 2.102575-1.299777 0-2.324585-.43386-3.074454-1.301594-.749872-.867734-1.1248-2.052507-1.1248-3.5543542 0-2.5030788.966485-5.6735976 2.899483-9.5116518.69988-1.4350985 1.599711-3.0704187 2.69952-4.9060098 1.09981-1.8355911 2.482885-4.0215805 4.149263-6.5580335l.499911-.7008587c-1.099809 1.0012315-2.157944 1.7104265-3.174435 2.1276063-1.016492.4171798-2.174606.6257666-3.474383.6257666-.599897 0-1.23311-.0834347-1.899662-.2503066-1.066482 3.2706896-3.066108 6.6414518-5.998934 10.1123877zm6.848783-12.7155764c.133311-.8343597.199964-1.5352112.199964-2.1025758 0-1.1681034-.19163-2.0858852-.574899-2.7533728-.383265-.6674876-.874839-1.0012266-1.474737-1.0012266-.333274 0-.624887.158526-.874843.4755826-.249959.3170567-.374934.7091998-.374934 1.1764412 0 1.568596 1.033139 2.9702992 3.099449 4.2051514zm32.330919 19.1734874.899841.7509198c-2.06631 2.7366995-4.082597 4.7141025-6.048924 5.9322675s-4.082596 1.827238-6.348873 1.827238c-2.699532 0-4.865793-.901095-6.498843-2.703312-1.633052-1.802216-2.449566-4.188449-2.449566-7.1587691 0-3.0036945.791518-6.0490612 2.374578-9.1361919 1.583061-3.0871304 3.56602-5.6402325 5.948943-7.6593825 2.382921-2.0191503 4.740812-3.0287103 7.073742-3.0287103 1.366432 0 2.491221.4004865 3.374402 1.2014718.883179.8009852 1.324764 1.8355754 1.324764 3.1038021 0 2.5698277-1.399738 5.1396165-4.199254 7.7094442-2.799517 2.5698274-6.615467 4.7558168-11.447966 6.5580336-.033327.2669948-.049991.56736-.049991.9011038 0 2.3028325.633215 4.1801133 1.899663 5.6318993 1.266448 1.451785 2.899474 2.177667 4.89913 2.177667 1.566395 0 3.082777-.492264 4.549191-1.476809 1.466412-.984544 3.032786-2.5280861 4.699163-4.6306723zm-15.997156-3.8046607c3.599379-1.6019704 6.365525-3.3874732 8.298525-5.3565617 1.299776-1.3349755 2.349579-2.7700524 3.149441-4.3052742.799862-1.5352215 1.199787-2.9202376 1.199787-4.1550898 0-1.5685961-.716532-2.3528823-2.149619-2.3528823-2.166292 0-4.357548 1.7104115-6.573831 5.1312857-2.216283 3.4208744-3.524372 7.1003451-3.924303 11.0385223zm14.184146 8.360241 2.799503-3.3040471c1.466414 3.4709361 3.799308 5.2063781 6.998756 5.2063781 1.666379 0 3.091111-.542326 4.27424-1.626993 1.183129-1.084668 1.774686-2.344532 1.774686-3.7796305 0-1.0346059-.283282-1.9190137-.849851-2.6532503-.566569-.7342363-1.916314-1.9690701-4.04928-3.704538-1.966327-1.6019703-3.291078-2.8618344-3.974293-3.7796299-.683215-.9177957-1.024818-1.9774164-1.024818-3.1788943 0-1.568596.458246-3.0203599 1.374756-4.3553353.916508-1.3349753 2.141278-2.411283 3.674346-3.2289554s3.149431-1.2265025 4.84914-1.2265025c1.499741 0 2.757836.3754562 3.774328 1.1263798 1.016491.7509237 1.524729 1.7104228 1.524729 2.8785263 0 1.5352215-.649879 2.586499-1.949654 3.1538634-.199965-1.5685959-.79152-2.7950862-1.774683-3.6795075-.983164-.8844209-2.241261-1.326625-3.774331-1.326625-1.366429 0-2.557873.4422041-3.574364 1.326625-1.016492.8844213-1.52473 1.8939813-1.52473 3.0287103 0 1.4017241.866504 2.7867402 2.599539 4.1550899l2.899484 2.3528823c2.832845 2.2360839 4.249245 4.5221948 4.249245 6.8584015 0 1.7354681-.491574 3.3624448-1.474738 4.8809792-.983163 1.518535-2.316246 2.728338-3.999288 3.629446-1.683044.901109-3.45771 1.351656-5.324054 1.351656-2.966155 0-5.465685-1.368329-7.498668-4.105029zm18.3834 0 2.799503-3.3040471c1.466412 3.4709361 3.799308 5.2063781 6.998755 5.2063781 1.666378 0 3.091111-.542326 4.274241-1.626993 1.183129-1.084668 1.774683-2.344532 1.774683-3.7796305 0-1.0346059-.283279-1.9190137-.849848-2.6532503-.566569-.7342363-1.916314-1.9690701-4.04928-3.704538-1.966327-1.6019703-3.291078-2.8618344-3.974293-3.7796299-.683217-.9177957-1.024818-1.9774164-1.024818-3.1788943 0-1.568596.458246-3.0203599 1.374754-4.3553353.91651-1.3349753 2.141279-2.411283 3.674348-3.2289554 1.533068-.8176724 3.149431-1.2265025 4.849137-1.2265025 1.499742 0 2.757839.3754562 3.774329 1.1263798 1.016493.7509237 1.524731 1.7104228 1.524731 2.8785263 0 1.5352215-.649879 2.586499-1.949654 3.1538634-.199965-1.5685959-.791522-2.7950862-1.774685-3.6795075-.983163-.8844209-2.241261-1.326625-3.774329-1.326625-1.366432 0-2.557873.4422041-3.574365 1.326625-1.016491.8844213-1.524729 1.8939813-1.524729 3.0287103 0 1.4017241.866504 2.7867402 2.599538 4.1550899l2.899485 2.3528823c2.832843 2.2360839 4.249245 4.5221948 4.249245 6.8584015 0 1.7354681-.491574 3.3624448-1.474738 4.8809792-.983163 1.518535-2.316246 2.728338-3.99929 3.629446-1.683042.901109-3.457709 1.351656-5.324053 1.351656-2.966154 0-5.465686-1.368329-7.498667-4.105029zm21.13291-6.4078493c0-3.0036944.808182-5.9990006 2.42457-8.9860079 1.616386-2.9870072 3.707661-5.4149573 6.273884-7.2839228 2.566224-1.8689656 5.1824-2.8034343 7.848605-2.8034343 2.799516 0 5.057426.9261253 6.773796 2.7784038 1.716371 1.8522782 2.574543 4.2468542 2.574543 7.1838 0 3.2039408-.791518 6.3077119-2.374578 9.3114065-1.583061 3.0036945-3.666003 5.465018-6.24889 7.384045-2.582886 1.919028-5.190731 2.878526-7.823609 2.878526-2.832845 0-5.115749-.959498-6.848782-2.878526-1.733035-1.919027-2.599539-4.4470984-2.599539-7.5842903zm21.396198-11.0134915c0-2.0024629-.491574-3.6544703-1.474737-4.9560712-.983165-1.301601-2.241261-1.9523918-3.774331-1.9523918-1.399758 0-2.741172.4505475-4.024285 1.3516559-1.283111.9011083-2.45789 2.2193766-3.524372 3.9548447-1.199794 2.0024629-2.191275 4.3386347-2.974472 7.0085855-.783198 2.6699506-1.174791 5.0394964-1.174791 7.1087081 0 2.4697044.483242 4.3720156 1.449743 5.7069906.966499 1.334976 2.349572 2.002453 4.149261 2.002453 2.8995 0 5.44902-2.019119 7.648641-6.0574198 1.133138-2.0692119 2.032969-4.3886968 2.69952-6.9585242.666552-2.5698275.999823-4.9727471.999823-7.2088308zm-297.554895-18.6308228c-13.999738 4.3114313-23.163297 11.4863435-23.163297 19.6088346 0 13.18272 24.137693 23.869426 53.913044 23.869426 29.775352 0 53.913044-10.686706 53.913044-23.869426 0-8.1224911-9.163559-15.2974033-23.163296-19.6088346 9.343627 3.8489409 15.218216 9.4259422 15.218216 15.6305969 0 11.6133486-20.580558 21.0278277-45.967964 21.0278277-25.387405 0-45.967964-9.4144791-45.967964-21.0278277 0-6.2046547 5.874589-11.781656 15.218217-15.6305969z"/><path d="m190.494535 69.2304978c-6.94133 2.4393862-11.3641 6.1266199-11.3641 10.2527124 0 7.3450549 14.015435 13.2993981 31.304348 13.2993981 17.288912 0 31.304348-5.9543432 31.304348-13.2993981 0-4.6037194-5.505975-8.661097-13.872929-11.0484279 5.713514 2.2959219 9.400878 5.5402144 9.400878 8.8318615 0 6.120879-12.013228 11.0828319-26.832297 11.0828319-14.81907 0-26.832297-4.9619529-26.832297-11.0828319 0-2.9274386 2.579364-5.8174219 6.892049-8.036146zm20.809813-26.8826721c-26.41362 0-47.826087-9.3436226-47.826087-20.8695652 0-11.52594259 21.412467-20.8695652 47.826087-20.8695652 26.413619 0 47.826086 9.34362261 47.826086 20.8695652 0 11.5259426-21.412467 20.8695652-47.826086 20.8695652zm0-6.9565217c22.594782 0 40.911471-7.7863522 40.911471-17.3913043 0-9.60495223-18.316689-17.3913044-40.911471-17.3913044s-40.911472 7.78635217-40.911472 17.3913044c0 9.6049521 18.31669 17.3913043 40.911472 17.3913043z"/><path d="m162.111297 21.5991809c-.124179-.0401341-.248235-.080441-.372167-.1209204 14.534524 38.2608696 30.766409 57.3913044 48.695653 57.3913044 17.929243 0 34.161128-19.1304348 48.695651-57.3913044-.215024.0702326-.43042.1399454-.646187.2091388-17.054997 34.3200066-33.051882 51.4800101-47.990653 51.4800101-14.951564 0-31.078998-17.1894095-48.382297-51.5682285z"/></g></svg>