<?xml version="1.0" encoding="UTF-8" standalone="no"?>
<svg
   viewBox="0 0 512.00002 512"
   version="1.1"
   id="svg166"
   sodipodi:docname="plugin-event-espresso-icon-512x512.svg"
   inkscape:version="1.2.1 (9c6d41e4, 2022-07-14)"
   width="512"
   height="512"
   xmlns:inkscape="http://www.inkscape.org/namespaces/inkscape"
   xmlns:sodipodi="http://sodipodi.sourceforge.net/DTD/sodipodi-0.dtd"
   xmlns="http://www.w3.org/2000/svg"
   xmlns:svg="http://www.w3.org/2000/svg"
   xmlns:rdf="http://www.w3.org/1999/02/22-rdf-syntax-ns#"
   xmlns:cc="http://creativecommons.org/ns#"
   xmlns:dc="http://purl.org/dc/elements/1.1/">
  <sodipodi:namedview
     id="namedview168"
     pagecolor="#ffffff"
     bordercolor="#666666"
     borderopacity="1.0"
     inkscape:showpageshadow="2"
     inkscape:pageopacity="0.0"
     inkscape:pagecheckerboard="true"
     inkscape:deskcolor="#d1d1d1"
     showgrid="false"
     inkscape:zoom="1"
     inkscape:cx="53.5"
     inkscape:cy="118"
     inkscape:window-width="2068"
     inkscape:window-height="628"
     inkscape:window-x="2320"
     inkscape:window-y="519"
     inkscape:window-maximized="0"
     inkscape:current-layer="g2120" />
  <defs
     id="defs134">
    <style
       id="style132">.cls-1,.cls-4{fill:#111;}.cls-2{fill:#101010;}.cls-3{fill:#010101;}.cls-4{fill-rule:evenodd;}</style>
  </defs>
  <title
     id="title136">Event_Espresso</title>
  <g
     id="Layer_2"
     data-name="Layer 2">
    <g
       id="Layer_1-2"
       data-name="Layer 1">
      <g
         id="g2120"
         transform="matrix(2.8304146,0,0,2.8304146,64.002895,91.294125)">
        <g
           id="g4827"
           transform="matrix(3.2181778,0,0,3.2181778,-195.53056,-32.191868)">
          <path
             class="cls-4"
             d="m 62.17,29 a 1.19,1.19 0 0 1 0,-0.32 H 62 v 0 C 64,42.3 71.19,49.06 78.27,49 91.1,48.78 90.16,31 97.6,30.22 a 3.31,3.31 0 0 1 3.52,3.16 3.39,3.39 0 0 1 -3,3.69 3.15,3.15 0 0 1 -2.23,-0.68 c 1.28,1.85 3.34,1.63 4.75,0.49 2.53,-2 1.94,-6.34 -0.77,-7.82 a 4.86,4.86 0 0 0 -4.62,0.1 9.06,9.06 0 0 0 -3.06,2.9 C 88.34,37.75 86.65,47.39 78.08,47.35 69.2,47.3 64.27,36.49 62.17,29 Z"
             id="path146" />
          <path
             class="cls-4"
             d="m 66.92,25.08 c -3.06,0.91 -5,2.2 -5,3.63 0,2.76 7.11,5 15.88,5 8.77,0 15.89,-2.23 15.89,-5 0,-1.43 -1.92,-2.72 -5,-3.63 l 0.5,0.21 c 2.17,0.76 3.48,1.73 3.48,2.8 0,1.84 -3.93,3.42 -9.47,4 a 40,40 0 0 1 -5.42,0.36 38.14,38.14 0 0 1 -7,-0.61 c -4.54,-0.74 -7.61,-2.16 -7.61,-3.79 0,-0.85 0.83,-1.64 2.26,-2.31 a 10.19,10.19 0 0 1 1.44,-0.7 z"
             id="path148" />
          <path
             class="cls-4"
             d="m 66.56,44.9 c -3.17,1.19 -5.14,2.88 -5.14,4.75 0,3.61 7.34,6.54 16.4,6.54 9.06,0 16.41,-2.93 16.41,-6.54 0,-1.87 -2,-3.56 -5.14,-4.75 l 0.52,0.28 c 2.24,1 3.59,2.27 3.59,3.66 0,2.41 -4.06,4.47 -9.78,5.29 a 32.8,32.8 0 0 1 -5.6,0.46 31.93,31.93 0 0 1 -7.22,-0.79 c -4.69,-1 -7.87,-2.83 -7.87,-5 0,-1.11 0.86,-2.14 2.34,-3 a 10.89,10.89 0 0 1 1.49,-0.92 z"
             id="path150" />
          <path
             class="cls-4"
             d="m 71.1,46 c -1.89,0.56 -3.07,1.36 -3.07,2.24 0,1.7 4.38,3.08 9.79,3.08 5.41,0 9.8,-1.38 9.8,-3.08 0,-0.88 -1.18,-1.68 -3.07,-2.24 l 0.31,0.13 c 1.34,0.47 2.15,1.07 2.15,1.73 0,1.13 -2.43,2.11 -5.85,2.49 a 24.75,24.75 0 0 1 -3.34,0.22 24.47,24.47 0 0 1 -4.31,-0.37 c -2.8,-0.46 -4.7,-1.34 -4.7,-2.34 0,-0.53 0.51,-1 1.4,-1.43 A 5.69,5.69 0 0 1 71.1,46 Z"
             id="path152" />
          <path
             class="cls-4"
             d="m 69.3,24.87 c 5.29,6 12.13,4.14 14.86,-0.9 2.43,-4.49 1,-8 -1.38,-11.47 C 80.94,9.74 78.55,7.22 79.11,3.72 a 4.39,4.39 0 0 1 6.78,-3 C 91,4.19 85.82,9.92 82.8,6.72 85.28,8 86.75,6 86.44,4.3 86.02,1.96 82.26,1.3 81.32,3.6 a 4.22,4.22 0 0 0 0.41,3.63 c 2.63,4.32 6.47,6.61 6.12,12.4 C 87.25,29.28 75,34 69.3,24.87 Z"
             id="path154" />
          <path
             class="cls-4"
             d="m 69.92,25.52 c 3.21,3.63 7.35,2.51 9,-0.55 1.47,-2.72 0.58,-4.83 -0.84,-6.95 -1.12,-1.67 -2.56,-3.2 -2.23,-5.32 a 2.66,2.66 0 0 1 3,-2.23 2.73,2.73 0 0 1 1.15,0.43 c 3.09,2.1 0,5.57 -1.88,3.64 a 1.42,1.42 0 0 0 2.21,-1.49 1.69,1.69 0 0 0 -3.11,-0.42 2.56,2.56 0 0 0 0.26,2.2 c 1.59,2.62 3.92,4 3.7,7.51 -0.36,5.85 -7.81,8.7 -11.24,3.18 z"
             id="path156" />
          <path
             class="cls-4"
             d="m 85.34,20.51 c 0.38,-2.92 -0.86,-5.46 -2.56,-8 C 80.94,9.75 78.55,7.23 79.11,3.73 a 4.39,4.39 0 0 1 6.78,-3 C 91,4.2 85.82,9.93 82.8,6.73 85.28,8 86.75,6 86.44,4.3 86.02,1.96 82.26,1.3 81.32,3.6 a 4.22,4.22 0 0 0 0.41,3.63 c 2.4,3.94 5.81,6.2 6.11,11 a 14,14 0 0 1 -2.5,2.33 z m -5.67,2.13 A 7.35,7.35 0 0 0 78.09,18 C 76.97,16.33 75.53,14.8 75.87,12.68 A 2.64,2.64 0 0 1 78.82,10.45 2.73,2.73 0 0 1 80,10.9 c 3.09,2.1 0,5.57 -1.88,3.64 a 1.42,1.42 0 0 0 2.21,-1.49 1.69,1.69 0 0 0 -3.11,-0.42 2.56,2.56 0 0 0 0.26,2.2 c 1.59,2.62 3.92,4 3.7,7.51 v 0.08 a 10.35,10.35 0 0 1 -1.48,0.22 z"
             id="path158" />
        </g>
      </g>
    </g>
  </g>
  <metadata
     id="metadata1204">
    <rdf:RDF>
      <cc:Work
         rdf:about="">
        <dc:title>Event_Espresso</dc:title>
      </cc:Work>
    </rdf:RDF>
  </metadata>
</svg>
