<svg height="80" viewBox="0 0 229 80" width="229" xmlns="http://www.w3.org/2000/svg" xmlns:xlink="http://www.w3.org/1999/xlink"><mask id="a" fill="#fff"><path d="m27.5107039.08315642h-27.24588267v42.29463688h27.24588267v-42.29335755z" fill="#fff" fill-rule="evenodd"/></mask><g fill="none" fill-rule="nonzero" transform="translate(0 17.554167)"><g fill="#525252"><path d="m169.790067 28.981933v6.6742625c0 .7906257-.36205 1.5249609-.967173 1.9701676-.805978.585933-3.669117 2.5049274-6.678101 2.5049274-2.859301 0-6.197072-1.5134469-6.197072-5.7825698 0-3.0256146 1.65929-4.2959889 6.121592-4.688743zm2.484458 10.5698212v-.0383799l.008955-15.2956648c0-5.5945084-2.302793-7.774486-8.213296-7.774486-3.285318 0-5.636726.6294301-7.029916 1.1577933l-.575698.217486v2.5330726l1.197452-.4477653c.997877-.3735643 3.129241-1.0004358 6.170207-1.0004358 4.736078 0 5.961676 1.1513966 5.961676 5.6034637v1.9701676l-7.93824.694676c-3.901956.3428603-8.384726 1.4686704-8.384726 7.1732011 0 5.721162 4.357396 8.2811005 8.673854 8.2811005 3.262291 0 6.179162-1.6426592 7.675978-2.6610055v.2878491c0 .9761285.793184 1.7693129 1.791061 1.7693129l3.617945-.1791062v-2.0558827l-2.833716-.2072514c-.051173-.0102346-.089553-.0191899-.118977-.0281452z"/><path d="m169.447207 29.3554972-7.34719.6447821c-4.288313.3774023-5.808157 1.5147263-5.808157 4.3458827 0 4.017095 3.152268 5.4422682 5.851654 5.4422682 2.907916 0 5.693017-1.8678213 6.478525-2.4409609.516849-.3786816.826447-1.0106704.826447-1.6887151v-6.3019777zm-7.304972 11.1173743c-3.014101 0-6.537375-1.6042793-6.537375-6.1279888 0-3.2111173 1.803855-4.6209386 6.435028-5.0277654l8.09176-.7087486v7.0491062c0 .8955307-.413223 1.7360502-1.107899 2.2426648-.827727.6038435-3.767626 2.5740111-6.882794 2.5740111zm1.688715-21.9123575c4.951005 0 6.304536 1.2793296 6.304536 5.9450447v2.2848826l-8.251676.7241006c-3.991508.3505363-8.07257 1.4379665-8.07257 6.8316201 0 5.4857654 4.185967 7.9407989 8.332274 7.9407989 3.189369 0 6.057626-1.6311453 7.484078-2.6034358l.53476-.3658882v.9377486c0 .7867877.649899 1.4264525 1.44948 1.4264525l3.275084-.1637542v-1.4111006l-2.558659-.1918994c-.063966-.0127933-.108743-.0230279-.143285-.0332626l-.250749-.0690838.008956-15.5950279c0-5.4179609-2.133922-7.432905-7.871715-7.432905-3.234146 0-5.542056.6191955-6.90838 1.1386033l-.354375.1330503v1.8012961l.734336-.2750559c1.023463-.3812402 3.198324-1.0234637 6.290463-1.0234637zm-1.688715 24.4096089c-4.486609 0-9.015436-2.6661229-9.015436-8.6226816 0-5.9847039 4.647804-7.1604078 8.699441-7.5173407l7.624805-.6678101v-1.6567318c0-4.2755196-1.051609-5.2580447-5.618816-5.2580447-2.983397 0-5.071263.6115195-6.051229.9774078l-1.656732.6204748v-3.2622905l.795743-.3032011c1.420056-.5373184 3.812402-1.1808212 7.151453-1.1808212 6.076815 0 8.554877 2.3514078 8.554877 8.1173464l-.006397 15.0346815 2.950134.2174861v2.6993854l-3.940335.1957375h-.002559c-1.079754 0-1.96505-.7739944-2.126245-1.7821062-1.605559 1.0170671-4.334369 2.3872291-7.356146 2.3872291zm-145.4789668-13.9881899v6.6742625c0 .7906257-.3620503 1.5249609-.9684526 1.9701676-.8059776.585933-3.6678379 2.5049274-6.67810052 2.5049274-2.85802234 0-6.19579329-1.5134469-6.19579329-5.7825698 0-3.0256146 1.6592905-4.2959889 6.12159218-4.688743zm2.4844581 10.5698212v-.0383799l.0089553-15.2956648c0-5.5945084-2.3027933-7.774486-8.2132961-7.774486-3.28531846 0-5.63672628.6294301-7.03119556 1.1577933l-.57569832.217486v2.5330726l1.19873184-.4477653c.9978771-.3735643 3.12924023-1.0004358 6.17020674-1.0004358 4.7335195 0 5.9591173 1.1513966 5.9591173 5.6034637v1.9701676l-7.93696091.694676c-3.90195531.3428603-8.38472625 1.4686704-8.38472625 7.1732011 0 5.721162 4.35611731 8.2811005 8.67385474 8.2811005 3.26229052 0 6.17916202-1.6426592 7.67597762-2.6610055v.2878491c0 .9761285.7931844 1.7693129 1.7910615 1.7693129l3.6166648-.1791062v-2.0558827l-2.8349944-.2072514c-.0511732-.0102346-.0895531-.0191899-.1189777-.0281452z"/><path d="m16.3204078 29.3554972-7.34846925.6447821c-4.28831285.3774023-5.80815643 1.5147263-5.80815643 4.3458827 0 4.017095 3.15354749 5.4422682 5.85293296 5.4422682 2.90663692 0 5.69301672-1.8678213 6.47724582-2.4409609.5181285-.3786816.8277263-1.0106704.8277263-1.6887151v-6.3019777zm-7.30497205 11.1173743c-3.01410055 0-6.5373743-1.6042793-6.5373743-6.1279888 0-3.2111173 1.80385475-4.6209386 6.43502794-5.0277654l8.09175981-.7087486v7.0491062c0 .8955307-.4132235 1.7360502-1.1078995 2.2426648-.8264469.6038435-3.7676257 2.5740111-6.88023462 2.5740111zm1.68871505-21.9123575c4.948447 0 6.303257 1.2793296 6.303257 5.9450447v2.2848826l-8.25167596.7241006c-3.99150838.3505363-8.07256983 1.4379665-8.07256983 6.8316201 0 5.4857654 4.18596648 7.9407989 8.33355307 7.9407989 3.18553072 0 6.05634642-1.6311453 7.48151952-2.6034358l.5373185-.3658882v.9377486c0 .7867877.6486201 1.4264525 1.4482011 1.4264525l3.2750838-.1637542v-1.4111006l-2.5612179-.1918994c-.0614078-.0127933-.108743-.0230279-.1407262-.0332626l-.252028-.0690838.007676-15.5950279c0-5.4179609-2.1326425-7.432905-7.8704358-7.432905-3.23414521 0-5.54205582.6191955-6.90837984 1.1386033l-.3543743.1330503v1.8012961l.73433519-.2750559c1.02346369-.3812402 3.19832402-1.0234637 6.29046365-1.0234637zm-1.68871505 24.4096089c-4.48660893 0-9.01543575-2.6661229-9.01543575-8.6226816 0-5.9847039 4.64780447-7.1604078 8.69944134-7.5173407l7.62480446-.6678101v-1.6567318c0-4.2755196-1.0516089-5.2580447-5.620095-5.2580447-2.98339661 0-5.07126253.6115195-6.05122901.9774078l-1.65801118.6204748v-3.2622905l.79830168-.3032011c1.42005587-.5373184 3.81240224-1.1808212 7.15145251-1.1808212 6.0768156 0 8.5548771 2.3514078 8.5548771 8.1173464l-.0051173 15.0346815 2.9514134.2174861v2.6993854l-3.9428939.1957375c-1.0784748 0-1.9637709-.7739944-2.1236871-1.7821062-1.606838 1.0170671-4.3369274 2.3872291-7.35870393 2.3872291zm139.07592225-13.6965028c0 3.9735978-1.138604 10.638905-8.75957 10.638905-2.72881 0-4.737358-.6179162-6.135665-1.8908491-.486145-.4400894-.762481-1.1002235-.762481-1.8115307v-13.8551397c0-.7292179.281453-1.3944693.777833-1.8294414 1.398307-1.2281564 3.400458-1.8268826 6.120313-1.8268826 5.893871 0 8.75957 3.4593072 8.75957 10.5749385zm-8.75957-12.9851955c-2.878492 0-5.148023.5884916-6.898146 1.7961788v-9.03718441c0-.92751396-.754804-1.68231843-1.705346-1.68231843l-3.371033.16631285v1.89340782l2.640536.1944581c.023028.00383799.044776.00767598.061408.0127933v32.19816757h2.043089l.161196-1.463553c1.77443 1.3125921 4.097692 1.9535363 7.067016 1.9535363 7.087486 0 11.150637-4.7539889 11.150637-13.0466034 0-8.4947486-3.855899-12.9851955-11.150637-12.9851955z"/><path d="m139.331788 19.0415419c-2.635419 0-4.56209.570581-5.893872 1.7424469-.422179.3710056-.661413.9415866-.661413 1.5697375v13.8551396c0 .6166369.236676 1.1833799.649899 1.5607821 1.330503 1.2115252 3.264849 1.8000168 5.905386 1.8000168 7.322882 0 8.417989-6.4503799 8.417989-10.2960447 0-6.8853519-2.754397-10.2320782-8.417989-10.2320782zm0 21.2138436c-2.819643 0-4.902391-.6473408-6.367224-1.9804023-.553949-.5040558-.872503-1.257581-.872503-2.0648379v-13.8551397c0-.8264469.32623-1.5863687.895531-2.0853073 1.462274-1.2882849 3.538626-1.9138771 6.345475-1.9138771 6.124151 0 9.101151 3.5693296 9.101151 10.9177989 0 9.5565922-5.701972 10.9817654-9.101151 10.9817654zm-7.343352-.5168492.479748.3543743c1.714302 1.2665363 3.960805 1.8844525 6.863604 1.8844525 6.87 0 10.810335-4.6311732 10.810335-12.703743 0-8.2708659-3.739481-12.6423352-10.810335-12.6423352-2.817084 0-5.011134.5693017-6.703687 1.734771l-.537319.3710056v-9.68964251c0-.73817318-.611519-1.3394581-1.362486-1.3394581l-3.028173.1509609v1.2486257l2.435843.18934078.266101.06012849v32.13164244h1.394469zm7.343352 2.9245475c-2.794056 0-5.023928-.5526704-6.790682-1.6887151l-.131771 1.2000112h-2.694268v-32.23398884l-2.701944-.19573743v-2.53818994l3.694704-.18294414c1.148838 0 2.067396.90832403 2.067396 2.02389944v8.41287151c1.727095-1.017067 3.878928-1.5134469 6.555285-1.5134469 7.5199 0 11.493498 4.6081452 11.493498 13.3267765 0 8.5101006-4.189805 13.3894637-11.493498 13.3894637zm88.324916-2.6750782c-1.615793 0-1.842235-.0895531-4.569765-3.2827598l-7.19623-8.465324 8.745498-8.251676c.857151-.8213296.857151-.8213296 2.99619-1.0746369l.867385-.1023463v-2.0520447h-8.998804v2.0469274l2.684033.217486-8.284938 7.8090279c-.033263.0255866-.175269.0716425-.371006.0716425h-2.040531l-.002558-17.82745812c0-.94670392-.822609-1.74628492-1.821766-1.74628492l-3.614106.17654749v1.944581l2.832436.20469274c.053732.00895531.09595.01791061.127933.02558659v29.85187712l-.033263.0089553-2.920709.2200447v2.1070558h8.394961v-2.1108938l-2.836274-.2046928c-.053732-.0102346-.093391-.0191899-.124095-.0281452v-10.1911397h1.963771c.13433 0 .260983.0588492.345419.1611956l7.325441 8.6559441c2.475503 2.9335028 3.671676 4.1283966 5.539497 4.1283966.747129 0 1.247347-.1061843 1.522403-.3198324l.358212-.2648212v-1.7091843h-.887855z"/><path d="m211.146955 28.9934469h2.306632c.235396 0 .45672.1023464.607681.2814525l7.324162 8.6546648c2.40514 2.8490671 3.553978 4.0081397 5.279793 4.0081397.818771 0 1.166749-.1330503 1.312593-.2456313l.223882-.1663128v-1.1936145h-.543715c-1.796179 0-2.110894-.2226034-4.829469-3.4030168l-7.407318-8.7160726 8.980893-8.473c.941587-.9019274 1.026023-.912162 3.193207-1.1667486l.565464-.0678045v-1.4034246h-8.313084v1.3880726l3.136916.255866-8.846564 8.3361117c-.163754.127933-.422179.1624749-.605123.1624749h-2.382112l-.002558-18.16903915c0-.76120112-.678045-1.40470391-1.480185-1.40470391l-3.271246.16119553v1.30235754l2.511324.17910614c.104906.01663129.156079.02942458.194459.03837989l.252028.07036313v30.09367043l.046055.3070391-.396592.0601285-2.603436.1944581v1.4482011h7.709241v-1.4494805l-2.562498-.1880614c-.063966-.0127933-.108743-.023028-.143284-.0319833l-.276336-.0742011.02047-.2840112v-10.5058547zm15.518268 13.6299777c-2.014944 0-3.253335-1.2281564-5.803039-4.249933l-7.324162-8.6559441c-.021748-.0255866-.051173-.0383799-.085715-.0383799h-1.62091l.002558 9.5463575 2.95781.2136481v2.7697486h-9.079402v-2.76719l2.952693-.221324.002559-29.23907819-2.960369-.20981006v-2.59064246l3.940335-.19189944c1.189777 0 2.181257.95565922 2.181257 2.08786593l.003838 17.48331842 1.69767.0025587c.085715 0 .15352-.0127933.185503-.0217486l7.675978-7.2358883-2.231151-.1829441v-2.7057822h9.684525v2.6993855l-1.170586.1381676c-2.021341.2379553-2.021341.2379553-2.801732.9812458l-8.510101 8.0290727 6.987698 8.2196927c2.701945 3.1599441 2.852905 3.1599441 4.308783 3.1599441h1.228156v2.2260335l-.492542.3671676c-.341581.2635419-.890413.3863576-1.727095.3863576zm-192.4469939-15.0026983c-4.3970559-1.2985196-5.9552794-2.4895755-5.9552794-4.5480168 0-.9761285.4759106-1.9701676 1.3049162-2.7224134.7253799-.6614134 2.08019-1.4494805 4.4008939-1.4494805 1.6477765 0 3.2367039.4093855 4.7207262 1.2115252.3326257.1791061.5078939.4029888.5245252.6614134l.2277206 3.5335084h2.2094023l.1458436-6.8405754h-2.072514l-.0575698.1842234c-1.1296481-.5693017-3.0639945-1.2754916-5.6981341-1.2754916-3.9659218 0-8.1838715 2.3475698-8.1838715 6.6972905 0 3.9787151 2.973162 5.6341676 7.7693687 7.0171229 3.8469441 1.1130168 7.0324748 2.2644134 7.0324748 5.0584693 0 2.5509832-2.8183631 4.6247765-6.2815083 4.6247765-1.8844526 0-3.5821229-.469514-5.049514-1.3919106-.5884916-.3710056-1.0106704-.9850838-1.1552346-1.6887151l-.4899833-2.394905h-2.1876536l.4810279 7.4968715 2.0213408.0255866.1151397-.7164246c.0255866-.1791061.0511732-.3428603.0716424-.4925419 1.4494805.8443575 3.5565363 1.6861564 6.1919553 1.6861564 4.9126257 0 8.7634079-3.1407542 8.7634079-7.1514525 0-4.8281899-4.2806369-6.1331061-8.8465643-7.5250167z"/><path d="m27.8420503 40.059648.4400894.255866c1.2844469.7484078 3.3723128 1.6401005 6.0205251 1.6401005 4.7207263 0 8.4179888-2.9897933 8.4179888-6.8060335 0-4.5774413-3.9851117-5.7928045-8.6009329-7.200067-4.5774414-1.3522514-6.1996313-2.6290224-6.1996313-4.8768045 0-1.0720782.5168491-2.1569497 1.4162179-2.9757207.772715-.7036313 2.2030055-1.5403128 4.6337318-1.5403128 1.7066257 0 3.3518436.4221787 4.8870391 1.253743.5462738.2942458.683162.6729274.7010726.9377486l.2046928 3.2111173h1.5543855l.1304916-6.1535754h-1.4712291l-.104905.330067-.3582123-.1791061c-1.1219721-.566743-2.9936313-1.2409497-5.5433352-1.2409497-3.8034469 0-7.8422905 2.2260335-7.8422905 6.3544301 0 3.7612291 2.875933 5.3475978 7.5198994 6.6883352 3.9825531 1.1539553 7.2793855 2.3539665 7.2793855 5.3859777 0 2.740324-2.9706033 4.9689162-6.6230894 4.9689162-1.9496983 0-3.7100558-.4861453-5.2324581-1.4456425-.66781-.4170614-1.145-1.1130167-1.3074748-1.9087597l-.4349721-2.1198492h-1.5403128l.434972 6.8162681 1.4098213.0166313.2110893-1.4162178zm6.4606145 2.5816872c-2.5164413 0-4.5544134-.7599218-5.9271341-1.4878603l-.1611955 1.0145083-2.635419-.0294245-.5245251-8.1813129h2.8349944l.5462737 2.6686816c.127933.6115195.4912626 1.1462793 1.0017151 1.4661117 1.4123799.8891341 3.0499218 1.3394581 4.8678492 1.3394581 3.2750838 0 5.938648-1.9189944 5.938648-4.2806369 0-2.5548212-3.0729497-3.6537653-6.7855642-4.7284022-4.9471676-1.4277318-8.015-3.1548268-8.015-7.3471899 0-4.5736034 4.3944972-7.0401509 8.5292905-7.0401509 2.4281676 0 4.2806368.5846536 5.4908826 1.1386034l.015352-.0473352h2.6712402l-.1586368 7.5250167h-2.8695364l-.2430726-3.8546201c-.0102346-.1330503-.1279329-.2622625-.345419-.3799609-1.4354078-.776553-2.9680447-1.1705866-4.56081-1.1705866-2.2132403 0-3.4887319.7394526-4.1706146 1.3599274-.7586424.690838-1.1936145 1.5889274-1.1936145 2.4691062 0 1.8678212 1.494257 2.9744413 5.7096481 4.2217877h.0025586c4.6733911 1.4238938 9.0870782 2.7697486 9.0870782 7.8550838 0 4.2013184-3.997905 7.4917542-9.1024301 7.4917542zm33.7116145-3.1420335v-.0345419l.0051173-15.4069665c0-2.7416034-.5053351-4.5070782-1.6349832-5.7262793-1.2742123-1.3765587-3.318581-2.0162235-6.4350279-2.0162235-3.8507821 0-6.4734078 1.1309274-8.1442123 2.2772067v-.2494693c0-.9543799-.7829497-1.7296536-1.7680335-1.7296536l-3.5092012.1791061v1.9317878l2.7505587.1995754.0742011.0166313-.0383799 20.5460335v.0166313c-.0089553.003838-.0204692.0063966-.0319832.0089553l-2.9219888.217486v2.1108939h8.3924022v-2.1108939l-2.8337151-.2046927c-.0537318-.0102347-.0946704-.0204693-.124095-.0294246v-16.5404525c0-.7573632.3543743-1.4635531.9684526-1.9381844 1.9957542-1.5377542 4.2793575-2.2541788 7.184715-2.2541788 4.6823464 0 5.511352 1.3023576 5.5778771 5.4576202l.0051174 15.2713575v.0127933c-.0089553.003838-.0204693.0063966-.0319833.0089553l-2.9219888.217486v2.1108939h8.3949609v-2.1108939l-2.8401117-.2046927c-.0511732-.0102346-.0895531-.0204693-.120257-.0281453z"/><path d="m62.9225475 41.4988939h7.7092402v-1.4456425l-2.5624972-.1893408c-.0614078-.0127933-.108743-.0255866-.1445642-.0332626l-.2737766-.0742011.0217486-.2814525.003838-15.4159218c0-2.6482123-.4759106-4.343324-1.5428715-5.4947206-1.2051285-1.2985196-3.1701788-1.9036425-6.183-1.9036425-3.9019553 0-6.4772458 1.2051285-7.9510335 2.2170782l-.5373185.3684469v-.900648c0-.7650391-.6396648-1.3867933-1.4238938-1.3867933l-3.1676201.1624749v1.2870055l2.4767821.1791062.0921117.0217486.2584246.0639665-.0383799 20.8146927.0294246.2788939-.3799609.089553-2.6047151.1944581v1.4456425h7.7092403v-1.4456425l-2.5177207-.1829441c-.1074637-.0179106-.1573576-.0307039-.1957374-.0422179l-.2609833-.0767598.015352-.2712178v-16.5225419c0-.8648268.4029888-1.6708045 1.1027821-2.2094023 2.0597207-1.5863687 4.4072905-2.3258212 7.3945251-2.3258212 4.944609 0 5.849095 1.5185643 5.9181788 5.7953631l.0051173 15.257285.0447766.2686592-.3940336.1151396-2.604715.1957375v1.4456424zm8.3949609.6857206h-9.0781229v-2.7684692l2.9501341-.2213241-.0051174-14.974553c-.0639664-3.9620838-.7573631-5.1147598-5.2324581-5.1147598-2.8273184 0-5.0443966.694676-6.9774637 2.1838156-.5296424.4093855-.8315642 1.0157877-.8315642 1.6669665l-.0025587 16.247486 2.9590894.2123688v2.7684692h-9.0819609v-2.7684692l2.9552514-.2226034.0358213-19.9447486-2.8273185-.2046927v-2.5740112l3.8341509-.1970168c1.0554469 0 1.9228324.7420112 2.0981005 1.711743 1.606838-.9825251 4.1667766-2.0111061 7.8346145-2.0111061 3.217514 0 5.3424805.675486 6.6857766 2.1236871 1.1936145 1.288285 1.727095 3.1266816 1.727095 5.961676l-.003838 15.1408659 2.9590894.2174861v2.7684693zm129.0587706-2.6853128v-.0345419l.003838-15.4069665c0-2.7416034-.505335-4.5070782-1.634983-5.7262793-1.274212-1.3765587-3.318581-2.0162235-6.435028-2.0162235-3.850782 0-6.473408 1.1309274-8.145491 2.2772067v-.2494693c0-.9543799-.780392-1.7296536-1.765475-1.7296536h-.002559l-3.507922.1791061v1.9317878l2.750559.1995754.07676.0153519-.03838 20.5485922v.015352l-.033263.0089553-2.920709.217486v2.1108939h8.39624v-2.1108939l-2.834994-.2046927c-.053732-.0102347-.094671-.0204693-.125375-.0294246v-16.5404525c0-.7573632.353095-1.4635531.968453-1.9381844 1.995754-1.5377542 4.279357-2.2541788 7.184715-2.2541788 4.682346 0 5.510072 1.3023576 5.577877 5.4576202l.003838 15.2713575v.0127933l-.033263.0089553-2.91943.217486v2.1108939h8.394961v-2.1108939l-2.840112-.2046927c-.051173-.0102346-.089553-.0204693-.120257-.0281453z"/><path d="m195.284547 41.4988939h7.709241v-1.4456425l-2.522838-.1842235c-.102347-.0179106-.149682-.0294245-.185503-.0383799l-.263542-.0729217.010235-.2776146.34286.0166313-.341581-.0230279.002559-15.4159218c0-2.6482123-.475911-4.3420447-1.542872-5.4934413-1.205128-1.2985196-3.170179-1.9036425-6.183-1.9036425-3.901955 0-6.478525 1.2051285-7.952313 2.2170782l-.537318.3684469v-.900648c0-.7650391-.639665-1.3867933-1.423894-1.3867933l-3.16762.1624749v1.2870055l2.558659.1982961.268659.0601285-.03838 20.8223687.030704.2942458-.38124.0716425-2.603436.1957374v1.4456425h7.707961v-1.4456425l-2.51772-.1829441c-.107464-.0179106-.158637-.0307039-.195738-.0422179l-.262262-.0767598.015352-.2712178v-16.5225419c0-.8648268.402988-1.6708045 1.102782-2.2094023 2.05972-1.5863687 4.40729-2.3258212 7.394525-2.3258212 4.944609 0 5.849095 1.5185643 5.918179 5.7953631l.005117 15.2751956.03838.2993631-.387637.0665251-2.602157.1957375v1.4456424zm8.392403.6857206h-9.076844v-2.7684692l2.952693-.2226034-.005117-14.9732737c-.063967-3.9620838-.757364-5.1147598-5.232459-5.1147598-2.827318 0-5.044396.694676-6.977463 2.1838156-.529643.4093855-.831564 1.0157877-.831564 1.6669665l-.002559 16.247486 2.959089.2123688v2.7684692h-9.078123v-2.7684692l2.955252-.2226034.034542-19.9447486-2.823481-.2046927v-2.5740112l3.832872-.1970168c1.054167 0 1.921553.7420112 2.095542 1.711743 1.608117-.9825251 4.168055-2.0111061 7.835893-2.0111061 3.216235 0 5.341202.675486 6.684498 2.1236871 1.193614 1.288285 1.727095 3.1266816 1.727095 5.961676l-.003838 15.1421453 2.95781.213648v2.7684693z"/></g><g transform="translate(75.986364)"><path d="m9.25722905 24.8113184c.27377654-1.2997988.72026257-2.5369106 1.31515085-3.6844692.3543743-.6818827.6396648-1.3995866.8008603-2.1492738.0742011-.3403017.127933-.690838.127933-.9978771 0-3.1190056-2.52667599-5.6482402-5.64184359-5.6482402-2.34884916 0-4.36251397 1.4354078-5.2107095 3.4797765-.25586592-1.020905-.39147486-2.0891452-.38379888-3.1893687.04989385-6.96083238 5.66359218-12.53870948 12.62058657-12.53870948 6.761257 0 12.2815643 5.32201118 12.6013967 12.01034638.1381676 2.8580223-.8699442 5.484486-2.4089777 7.8550838-2.0085475 3.0959776-4.2895922 5.9949385-4.2895922 9.8687486 0 5.6098603 3.664 10.3625698 8.725028 11.9962737-1.3381788.3837989-2.755676.5833743-4.2217877.5629051-7.6836537-.0985084-14.01633524-6.2546425-14.33616764-13.9370168-.05117318-1.2486257.05629051-2.4639888.30192179-3.6281788" fill="#ef533d" mask="url(#a)" transform="translate(.210508 .326229)"/><path d="m31.5719939 18.6948436c0-.6806034-.5501117-1.2319944-1.2319944-1.2319944-.6780447 0-1.2307151.5501117-1.2307151 1.2319944s.5526704 1.2332737 1.2319944 1.2332737c.6818827 0 1.2332738-.5501117 1.2332738-1.2332737" fill="#ef533d"/><path d="m29.8551336 5.57531844c0 .01279329-.003838.02558659-.0051173.04093854l.0191899-.03837989-.0127933-.00255865z" fill="#ea553f"/><path d="m35.1822621 33.2587318c-.1100224-2.162067 1.141162-4.0733854 2.9987486-4.9126257v-.0537318c-.5194079-.1023464-1.0567263-.1560782-1.606838-.1560782-4.6222179 0-8.3668157 3.7484357-8.3668157 8.3757709 0 1.8076928.5731397 3.4797766 1.5454302 4.8486593 2.5906425-1.2025699 4.7680615-3.1471509 6.2610391-5.5612459-.4823073-.7356145-.784229-1.599162-.8315642-2.5407486m1.7526815-19.8257709c.3223911-.8315643.5014972-1.7334916.5014972-2.6776369 0-1.35864802-.3710056-2.62646366-1.0106704-3.72029048-.2392346 1.72709497-.9300726 3.30067038-1.9522569 4.60558658l-.0690838.1151397c-.4413688-.232838-.9185587-.465676-1.4328492-.6997933-.3812402-.1944581-.7202626-.4004302-1.0260223-.6140782-1.288285-.74968718-2.2567375-1.98679891-2.6482123-3.46186595-.2430727.80341899-.3710056 1.65545251-.3710056 2.53818994 0 2.92070951 1.4226145 5.50623461 3.6141061 7.10027931l.0255866.015352c.4516034.349257.8827374.7113072 1.2921229 1.1130167 1.618352 1.5812514 2.8695363 3.5399051 3.6115475 5.7313967.7599218-1.0234637 1.2844469-2.2337095 1.4929777-3.5501397.0678044-.4196201.1023463-.8507542.1023463-1.2895642 0-2.29-.6204748-3.8635754-2.1288044-5.2068715" fill="#ef533d"/></g></g></svg>