<svg fill="none" height="24" viewBox="0 0 32 24" width="32" xmlns="http://www.w3.org/2000/svg" xmlns:xlink="http://www.w3.org/1999/xlink"><mask id="a" height="24" maskUnits="userSpaceOnUse" width="32" x="0" y="0"><rect fill="#c4c4c4" height="24" rx="4" width="32"/></mask><g mask="url(#a)"><path d="m0 0h3v24h-3z" fill="#008f42"/><path d="m0 0h3v24h-3z" fill="#00ab47" transform="translate(3)"/><path d="m0 0h3v24h-3z" fill="#52c638" transform="translate(6)"/><path d="m0 0h3v24h-3z" fill="#96c65a" transform="translate(9)"/><path d="m0 0h3v24h-3z" fill="#00c4b5" transform="translate(12)"/><path d="m0 0h2v24h-2z" fill="#00a2dc" transform="translate(15)"/><path d="m0 0h3v24h-3z" fill="#0a6cb8" transform="translate(17)"/><path d="m0 0h3v24h-3z" fill="#46597d" transform="translate(20)"/><path d="m0 0h3v24h-3z" fill="#ff001a" transform="translate(23)"/><path d="m0 0h3v24h-3z" fill="#ff6b00" transform="translate(26)"/><path d="m0 0h3v24h-3z" fill="#f7c000" transform="translate(29)"/><g clip-rule="evenodd" fill="#fff" fill-rule="evenodd"><path d="m6.99969 0h1.99991v5.24999c0 2.4835-2.01641 4.49999-4.4998 4.49999s-4.4998-2.01649-4.4998-4.49999v-5.24999h1.99991v5.24999c0 1.51775 1.1202 2.75 2.49989 2.75s2.49989-1.23225 2.49989-2.75z" transform="matrix(.499997 0 0 .499997 11.0003 10.125)"/><path d="m6.99969 0h1.99991v5.24999c0 2.4835-2.01641 4.49999-4.4998 4.49999s-4.4998-2.01649-4.4998-4.49999v-5.24999h1.99991v5.24999c0 1.51775 1.1202 2.75 2.49989 2.75s2.49989-1.23225 2.49989-2.75z" transform="matrix(.499997 0 0 -.500001 16.5057 14.875)"/><path d="m1.74992 13.75h-1.74992v-4.50002h.00750699c-.00499978-.08275-.00750699-.16625-.00750699-.25v-8.99998h1.99991v5.00074c.83496-.62825 1.87492-1.00075 2.99987-1.00075 2.75988 0 4.99978 2.2405 4.99978 4.99999 0 2.75952-2.2399 5.00002-4.99978 5.00002-1.19495 0-2.2924-.4203-3.15236-1.1208zm3.12486-8.00001c1.72493 0 3.12487 1.45625 3.12487 3.24999 0 1.79372-1.39994 3.25002-3.12487 3.25002-1.72492 0-3.12486-1.4563-3.12486-3.25002 0-1.79374 1.39994-3.24999 3.12486-3.24999z" transform="matrix(.499997 0 0 .499997 5 8)"/><path d="m1.74992 13.75h-1.74992v-4.50002h.00750699c-.00499978-.08275-.00750699-.16625-.00750699-.25v-8.99998h1.99991v5.00074c.83496-.62825 1.87492-1.00075 2.99987-1.00075 2.75988 0 4.99978 2.2405 4.99978 4.99999 0 2.75952-2.2399 5.00002-4.99978 5.00002-1.19495 0-2.2924-.4203-3.15236-1.1208zm3.12486-8.00001c1.72493 0 3.12487 1.45625 3.12487 3.24999 0 1.79372-1.39994 3.25002-3.12487 3.25002-1.72492 0-3.12486-1.4563-3.12486-3.25002 0-1.79374 1.39994-3.24999 3.12486-3.24999z" transform="matrix(-.499997 0 0 -.499997 27 17)"/></g></g></svg>