<svg width="40" height="40" viewBox="0 0 40 40" fill="none" xmlns="http://www.w3.org/2000/svg">
<rect width="40" height="40" fill="#F7D047"/>
<rect width="7" height="40" fill="#279557"/>
<rect width="40" height="40" rx="4.5" fill="#D8D8D8"/>
<mask id="mask0_373_17441" style="mask-type:alpha" maskUnits="userSpaceOnUse" x="0" y="0" width="40" height="40">
<rect width="40" height="40" rx="4.5" fill="white"/>
</mask>
<g mask="url(#mask0_373_17441)">
<path fill-rule="evenodd" clip-rule="evenodd" d="M0 40H3.33344V0H0V40Z" fill="#279557"/>
<path fill-rule="evenodd" clip-rule="evenodd" d="M3.33337 40H6.66681V0H3.33337V40Z" fill="#34A858"/>
<path fill-rule="evenodd" clip-rule="evenodd" d="M6.66711 40H10.0006V0H6.66711V40Z" fill="#6FBF60"/>
<path fill-rule="evenodd" clip-rule="evenodd" d="M10 40H13.3331V0H10V40Z" fill="#98D264"/>
<path fill-rule="evenodd" clip-rule="evenodd" d="M13.3329 40H16.6663V0H13.3329V40Z" fill="#46C2BB"/>
<path fill-rule="evenodd" clip-rule="evenodd" d="M16.6666 40H20.0001V0H16.6666V40Z" fill="#3FA5DF"/>
<path fill-rule="evenodd" clip-rule="evenodd" d="M20 40H23.3334V0H20V40Z" fill="#3387C9"/>
<path fill-rule="evenodd" clip-rule="evenodd" d="M23.3334 40H26.6668V0H23.3334V40Z" fill="#217095"/>
<path fill-rule="evenodd" clip-rule="evenodd" d="M26.6666 40H30.0001V0H26.6666V40Z" fill="#AB4542"/>
<path fill-rule="evenodd" clip-rule="evenodd" d="M30 40H33.3331V0H30V40Z" fill="#EA4740"/>
<path fill-rule="evenodd" clip-rule="evenodd" d="M33.3329 40H36.6666V0H33.3329V40Z" fill="#F69B2D"/>
<path fill-rule="evenodd" clip-rule="evenodd" d="M36.6671 40H40.0002V0H36.6671V40Z" fill="#F7D047"/>
<path fill-rule="evenodd" clip-rule="evenodd" d="M6.49406 19.9185C6.49406 18.707 7.43969 17.7232 8.60469 17.7232C8.9925 17.7245 9.36719 17.8348 9.68938 18.0345C9.69281 18.0367 9.69625 18.0385 9.69969 18.0407C9.74875 18.0717 9.79594 18.1048 9.8425 18.1401C9.86344 18.1557 9.88469 18.1717 9.905 18.1885C9.92563 18.2054 9.94656 18.222 9.96688 18.2401C10.0016 18.2707 10.0353 18.3026 10.0681 18.3357C10.0866 18.3542 10.105 18.3735 10.1228 18.3926C10.1447 18.4163 10.1656 18.441 10.1866 18.466C10.1938 18.4745 10.2016 18.4829 10.2088 18.4917C10.4178 18.7498 10.5619 19.0426 10.6409 19.3482C10.6422 19.3532 10.6434 19.3585 10.6447 19.3635C10.6588 19.4192 10.6706 19.4751 10.6803 19.5317C10.6825 19.5435 10.6838 19.5557 10.6856 19.5676C10.6938 19.6195 10.7006 19.6717 10.7053 19.7238C10.7069 19.7435 10.7072 19.7638 10.7081 19.7838C10.7125 19.8563 10.7128 19.9285 10.7103 20.001C10.7088 20.0398 10.7081 20.0785 10.7047 20.1167C10.7019 20.1504 10.6966 20.1842 10.6922 20.2179C10.6875 20.2523 10.6831 20.287 10.6769 20.3207C10.6709 20.3545 10.6631 20.3879 10.6556 20.4213C10.6478 20.4548 10.64 20.4879 10.6309 20.5207C10.6222 20.5526 10.6125 20.5845 10.6022 20.6157C10.5909 20.6507 10.5791 20.6848 10.5659 20.7188C10.5556 20.7463 10.5447 20.7738 10.5331 20.8013C10.5163 20.841 10.4981 20.8801 10.4788 20.9188C10.4691 20.9385 10.4597 20.9582 10.4494 20.9776C10.4216 21.0301 10.3919 21.081 10.36 21.1307C10.3575 21.1351 10.355 21.1392 10.3522 21.1432C9.97281 21.7254 9.33188 22.1085 8.60469 22.1085C8.31344 22.1091 8.025 22.0467 7.76 21.9251V21.9285C7.01531 21.5895 6.49406 20.8176 6.49406 19.9185ZM7.76 16.6713V16.6735C7.37094 16.7851 6.99813 16.966 6.66313 17.2173V13.8407H5.3125V19.9185C5.3125 19.9742 5.3175 20.0307 5.3175 20.0863H5.3125V23.1254H6.49406L6.56 22.5373C6.92063 22.8301 7.33 23.0379 7.76 23.1613C7.76031 23.1613 7.76031 23.1617 7.76063 23.1617C7.83344 23.1823 7.90688 23.2007 7.98063 23.2167C7.98656 23.2179 7.9925 23.2195 7.99844 23.2204C8.06688 23.2348 8.13563 23.2467 8.20469 23.257C8.21625 23.2585 8.22781 23.2601 8.23938 23.262C8.30313 23.2707 8.36719 23.2773 8.43156 23.2823L8.48188 23.2857C8.54125 23.2895 8.60063 23.2917 8.66031 23.292C8.68188 23.2923 8.70344 23.2923 8.725 23.2923C8.78 23.2917 8.835 23.2898 8.89 23.2863C8.91594 23.2848 8.94219 23.2832 8.96844 23.281C9.01906 23.2767 9.06906 23.2713 9.11938 23.2651C9.15031 23.261 9.18094 23.257 9.21187 23.252C9.25719 23.2451 9.3025 23.237 9.3475 23.2282C9.38344 23.221 9.41875 23.2132 9.45438 23.2051C9.49438 23.1957 9.53406 23.186 9.57344 23.1754C9.59188 23.1701 9.61063 23.167 9.62906 23.1613C9.66219 23.152 9.69469 23.141 9.7275 23.1304C9.73938 23.1267 9.75156 23.1229 9.76375 23.1188C11.4725 22.5498 12.4425 20.7285 11.9394 18.982C11.4234 17.1898 9.55219 16.1554 7.76 16.6713Z" fill="#F9F9F9"/>
<path fill-rule="evenodd" clip-rule="evenodd" d="M17.9742 16.7105V20.2555C17.9742 20.2599 17.9736 20.2642 17.9736 20.2689C17.9733 20.3274 17.9708 20.3858 17.9658 20.4427C17.9648 20.4511 17.9636 20.4592 17.9626 20.4674C17.9573 20.5183 17.9508 20.568 17.9417 20.6171C17.9386 20.6346 17.9348 20.6514 17.9311 20.6686C17.9233 20.7064 17.9148 20.7436 17.9048 20.7805C17.8976 20.8067 17.8898 20.8327 17.8817 20.8586C17.8736 20.8839 17.8655 20.9096 17.8567 20.9342C17.8442 20.968 17.8311 21.0014 17.817 21.0349C17.8108 21.0499 17.8042 21.0649 17.7976 21.0792C17.7795 21.1186 17.7608 21.1577 17.7401 21.1958C17.7358 21.2039 17.7314 21.2121 17.7267 21.2202C17.7039 21.2611 17.6801 21.3011 17.6542 21.3402C17.6492 21.348 17.6439 21.3552 17.6389 21.363C17.6148 21.3989 17.5892 21.4339 17.5626 21.4686C17.5589 21.4727 17.5555 21.4771 17.5517 21.4814V21.4802C17.5183 21.5236 17.4817 21.5646 17.4442 21.6039C17.4314 21.6174 17.4183 21.6302 17.4051 21.643C17.3776 21.6699 17.3495 21.6958 17.3205 21.7208C17.3039 21.7346 17.2876 21.7483 17.2708 21.7614C17.2367 21.7886 17.2017 21.8142 17.1655 21.8383C17.1564 21.8446 17.1476 21.8505 17.1386 21.8564C16.8864 22.0164 16.5917 22.1067 16.2858 22.1096C15.3545 22.1096 14.5973 21.2855 14.5973 20.2555V16.7105H13.2467V20.2555C13.2467 20.6924 13.3411 21.1242 13.523 21.5217C13.8523 22.2399 14.4264 22.7686 15.1011 23.0539V23.0555C15.367 23.168 15.6473 23.2408 15.933 23.2742C15.9345 23.2746 15.9361 23.2749 15.9373 23.2749C15.9811 23.2799 16.0251 23.2839 16.0689 23.2871C16.0758 23.2877 16.0826 23.288 16.0895 23.2886C16.1292 23.2911 16.1692 23.2927 16.2089 23.2936C16.2201 23.2939 16.2311 23.2942 16.242 23.2946C16.257 23.2946 16.272 23.2955 16.2873 23.2955C16.3089 23.2955 16.3305 23.2942 16.3523 23.2939C16.3664 23.2936 16.3805 23.2933 16.3948 23.2927C16.432 23.2917 16.4689 23.2896 16.5055 23.2871C16.5173 23.2861 16.5292 23.2852 16.5411 23.2842C16.582 23.2808 16.6226 23.2767 16.6633 23.2714C16.6695 23.2708 16.6761 23.2699 16.6823 23.2689C18.0948 23.0849 19.2014 21.9317 19.3142 20.4983C19.3155 20.4849 19.3164 20.4714 19.3173 20.458C19.3217 20.3911 19.3248 20.3239 19.3245 20.2558L19.3248 20.2555V16.7105H17.9742Z" fill="#F9F9F9"/>
<path fill-rule="evenodd" clip-rule="evenodd" d="M25.1088 16.8811C25.1038 16.8786 25.0991 16.8761 25.0941 16.8736C25.03 16.8408 24.965 16.8098 24.8988 16.782V16.7808C24.6329 16.668 24.3525 16.5948 24.0669 16.5617C24.0654 16.5614 24.0638 16.5614 24.0625 16.5611C24.0185 16.5558 23.9747 16.5517 23.9304 16.5489C23.9238 16.5486 23.9172 16.548 23.9107 16.5473C23.8707 16.5448 23.8307 16.543 23.7904 16.542L23.7579 16.5411C23.7429 16.5411 23.7279 16.5402 23.7125 16.5402C23.6907 16.5402 23.6694 16.5414 23.6475 16.5417C23.6332 16.542 23.6191 16.5423 23.605 16.543C23.5679 16.5442 23.531 16.5464 23.4941 16.5492C23.4822 16.5495 23.4707 16.5505 23.4588 16.5514C23.4179 16.5552 23.3769 16.5595 23.3366 16.5642C23.3304 16.5652 23.3238 16.5658 23.3175 16.5667C21.826 16.7611 20.6744 18.0361 20.675 19.5808V23.1252H22.0257V19.5773C22.0257 19.1008 22.1929 18.6664 22.4638 18.3373C22.4891 18.3061 22.5157 18.2761 22.5429 18.2467C22.5679 18.2198 22.5938 18.1942 22.6204 18.1692C22.6338 18.1567 22.6472 18.1442 22.661 18.132C22.6894 18.107 22.7188 18.0833 22.7485 18.0598C22.7685 18.0448 22.7888 18.0302 22.8094 18.0158C22.8313 18.0002 22.8538 17.9852 22.8766 17.9708C22.9172 17.9455 22.9585 17.9214 23.0013 17.8998C23.0047 17.898 23.0082 17.8961 23.0116 17.8942C23.2275 17.7873 23.4672 17.7286 23.7141 17.7261C24.1754 17.7261 24.5935 17.9289 24.8985 18.258C25.1007 18.4814 25.2466 18.747 25.3279 19.0323C25.376 19.2052 25.4025 19.3892 25.4025 19.5808V23.1252H26.75H26.7532V19.5808C26.7532 19.1433 26.6588 18.7114 26.4766 18.3142C26.1825 17.6717 25.6916 17.182 25.1088 16.8811Z" fill="#F9F9F9"/>
<path fill-rule="evenodd" clip-rule="evenodd" d="M31.397 22.1127C30.9388 22.1108 30.4992 21.9577 30.1423 21.6846C30.1301 21.6755 30.1176 21.6658 30.1057 21.6562C30.071 21.6287 30.0376 21.5993 30.0048 21.5696C29.9823 21.549 29.9601 21.5283 29.9385 21.5071C29.9157 21.4843 29.8932 21.4612 29.8713 21.4374C29.862 21.4271 29.8532 21.4162 29.8438 21.4055C29.826 21.3852 29.8082 21.3649 29.791 21.3443V21.3452C29.4763 20.9618 29.2851 20.4655 29.2851 19.9224C29.2851 18.7112 30.231 17.7274 31.3951 17.7274C31.6863 17.7274 31.9745 17.7899 32.2398 17.9108V17.9068V17.9108C32.6938 18.1299 33.0604 18.4965 33.2795 18.9505C33.8148 20.0599 33.3492 21.393 32.2398 21.9283V21.9293C31.9813 22.0465 31.6967 22.1127 31.397 22.1127ZM34.6873 16.7105H33.5057L33.4398 17.299C33.381 17.2505 33.3198 17.2055 33.2582 17.1615C33.2463 17.1533 33.2348 17.1452 33.2232 17.1374C33.0967 17.0502 32.9645 16.9715 32.8273 16.9024C32.8226 16.8996 32.8173 16.8977 32.8123 16.8949C32.7432 16.8605 32.6732 16.8283 32.6017 16.7987C32.6017 16.7987 32.6013 16.7987 32.6013 16.7983C32.4835 16.7496 32.3629 16.7065 32.2398 16.6715V16.6746H32.2392C32.1663 16.6533 32.0929 16.6352 32.0188 16.6193C32.0132 16.618 32.0073 16.6165 32.0017 16.6152C31.9329 16.6008 31.8642 16.589 31.7948 16.579C31.7835 16.5771 31.772 16.5755 31.7607 16.574C31.6967 16.5652 31.6326 16.5587 31.5682 16.5537L31.5179 16.5499C31.4585 16.5465 31.3992 16.5446 31.3395 16.544C31.3179 16.5437 31.2963 16.5437 31.2748 16.5437C31.2198 16.5443 31.1648 16.5465 31.1098 16.5493C31.0838 16.5508 31.0576 16.5527 31.0313 16.5549C30.9807 16.5593 30.9307 16.5643 30.8804 16.5708C30.8495 16.5746 30.8188 16.579 30.7879 16.584C30.7426 16.5908 30.6973 16.5987 30.6523 16.6077C30.6163 16.6146 30.581 16.6227 30.5454 16.6308C30.5057 16.6399 30.466 16.6499 30.4263 16.6608C30.4076 16.6655 30.3892 16.6693 30.3707 16.6746C30.3376 16.684 30.3051 16.6949 30.2723 16.7055C30.2604 16.7093 30.2482 16.713 30.236 16.7168C28.5273 17.2862 27.5573 19.1074 28.0604 20.854C28.5763 22.6462 30.4476 23.6805 32.2398 23.1643V23.1621V23.1643C32.2563 23.1599 32.2723 23.1543 32.2888 23.149C32.2901 23.1487 32.2917 23.148 32.2929 23.148C32.4398 23.1033 32.5832 23.0487 32.7223 22.9846C32.7257 22.983 32.7292 22.9812 32.7326 22.9796C32.8688 22.9162 33.001 22.844 33.1279 22.7627C33.137 22.7571 33.146 22.7508 33.1551 22.7449C33.2167 22.7049 33.2776 22.663 33.3367 22.6187L33.337 22.6183V25.9965H34.6873V16.7105Z" fill="#F9F9F9"/>
</g>
</svg>
