<?xml version="1.0" encoding="UTF-8" standalone="no"?>
<svg
   width="640"
   height="360"
   fill="none"
   version="1.1"
   id="svg1"
   sodipodi:docname="ideal-issuer-bunq-640x360.svg"
   inkscape:version="1.3.2 (091e20e, 2023-11-25)"
   xmlns:inkscape="http://www.inkscape.org/namespaces/inkscape"
   xmlns:sodipodi="http://sodipodi.sourceforge.net/DTD/sodipodi-0.dtd"
   xmlns="http://www.w3.org/2000/svg"
   xmlns:svg="http://www.w3.org/2000/svg">
  <defs
     id="defs1" />
  <sodipodi:namedview
     id="namedview1"
     pagecolor="#ffffff"
     bordercolor="#666666"
     borderopacity="1.0"
     inkscape:showpageshadow="2"
     inkscape:pageopacity="0.0"
     inkscape:pagecheckerboard="true"
     inkscape:deskcolor="#d1d1d1"
     inkscape:zoom="1"
     inkscape:cx="392"
     inkscape:cy="74"
     inkscape:window-width="1256"
     inkscape:window-height="791"
     inkscape:window-x="1926"
     inkscape:window-y="424"
     inkscape:window-maximized="0"
     inkscape:current-layer="svg1" />
  <path
     fill="#ffffff"
     fill-rule="evenodd"
     d="m 284.68971,123.80102 h 23.53908 v 62.11536 c 0,29.38226 -23.7354,53.24079 -52.96459,53.24079 -29.23252,0 -52.9646,-23.85853 -52.9646,-53.24079 V 123.7977 h 23.53908 v 62.11536 c 0,17.95545 13.18708,32.53677 29.42552,32.53677 16.23844,0 29.42551,-14.58132 29.42551,-32.53677 V 123.7977 Z m 129.47161,112.39796 h 23.53908 v -62.11536 c 0,-29.38226 -23.7354,-53.24079 -52.9646,-53.24079 -29.23251,0 -52.96792,23.85853 -52.96792,53.24079 v 62.11869 h 23.54241 v -62.11869 c 0,-17.95546 13.18375,-32.53678 29.42551,-32.53678 16.23844,0 29.42552,14.58132 29.42552,32.53678 v 62.11869 z m -329.563791,0 H 64 v -53.24079 h 0.08984 A 49.330916,49.330916 0 0 1 64,180 V 73.51843 h 23.539082 v 59.16382 a 58.358556,58.358556 0 0 1 35.311948,-11.83942 c 32.48354,0 58.85104,26.50726 58.85104,59.15717 0,32.64991 -26.3675,59.15717 -58.85104,59.15717 A 58.371867,58.371867 0 0 1 85.745533,225.89689 Z m 36.782731,-94.65214 c 20.30137,0 36.7794,17.23005 36.7794,38.45316 0,21.22311 -16.47803,38.45316 -36.7794,38.45316 -20.30471,0 -36.782731,-17.23005 -36.782731,-38.45316 0,-21.22311 16.478021,-38.44983 36.782731,-38.44983 z M 555.40247,123.80102 H 576 v 53.24079 h -0.0898 C 575.9701,178.02011 576,179.00839 576,180 v 106.48157 h -23.53908 v -59.16382 a 58.371867,58.371867 0 0 1 -35.31195,11.83942 c -32.48354,0 -58.85104,-26.50726 -58.85104,-59.15717 0,-32.64991 26.3675,-59.15717 58.85104,-59.15717 a 58.365212,58.365212 0 0 1 37.10217,13.26029 z m -36.78273,94.65214 c -20.3047,0 -36.78272,-17.23005 -36.78272,-38.45316 0,-21.22311 16.47802,-38.45316 36.78272,-38.45316 20.30138,0 36.78273,17.23005 36.78273,38.45316 0,21.22311 -16.48135,38.45316 -36.78273,38.45316 z"
     clip-rule="evenodd"
     id="path1"
     style="fill:#1a1a1a;stroke-width:3.32755" />
</svg>
