<?xml version="1.0" encoding="UTF-8" standalone="no"?>
<svg
   width="512"
   height="512"
   viewBox="0 0 512 512"
   version="1.1"
   xml:space="preserve"
   style="clip-rule:evenodd;fill-rule:evenodd;stroke-linejoin:round;stroke-miterlimit:1.41421"
   id="svg24"
   sodipodi:docname="ideal-issuer-bunq-icon-512x512.svg"
   inkscape:version="1.3.2 (091e20e, 2023-11-25)"
   xmlns:inkscape="http://www.inkscape.org/namespaces/inkscape"
   xmlns:sodipodi="http://sodipodi.sourceforge.net/DTD/sodipodi-0.dtd"
   xmlns="http://www.w3.org/2000/svg"
   xmlns:svg="http://www.w3.org/2000/svg"><defs
   id="defs24">
        
    
            
            
            
        
                
                
            <clipPath
   clipPathUnits="userSpaceOnUse"
   id="clipPath24"><g
     id="g25"
     transform="matrix(0.46342381,0,0,0.46874737,550.36272,16.000141)"><rect
       x="0.00315556"
       y="0.0013295"
       width="512"
       height="512.0025"
       id="rect24"
       style="stroke-width:1.69391" /></g></clipPath><clipPath
   clipPathUnits="userSpaceOnUse"
   id="clipPath25"><g
     id="g26"
     transform="matrix(1.7324219,0,0,0.2011709,1195.9945,604.99973)"><rect
       x="0.00315556"
       y="0.0013295"
       width="512"
       height="512.0025"
       id="rect25"
       style="stroke-width:1.69391" /></g></clipPath></defs><sodipodi:namedview
   id="namedview24"
   pagecolor="#ffffff"
   bordercolor="#666666"
   borderopacity="1.0"
   inkscape:showpageshadow="2"
   inkscape:pageopacity="0.0"
   inkscape:pagecheckerboard="true"
   inkscape:deskcolor="#d1d1d1"
   inkscape:zoom="1.9666667"
   inkscape:cx="144.40678"
   inkscape:cy="51.610169"
   inkscape:window-width="2184"
   inkscape:window-height="820"
   inkscape:window-x="2263"
   inkscape:window-y="346"
   inkscape:window-maximized="0"
   inkscape:current-layer="svg24" />
    <g
   id="g15"
   transform="matrix(0.57722661,0,0,4.9708842,-690.35987,-3007.3849)"
   clip-path="url(#clipPath25)"
   style="display:inline">
                    <g
   transform="matrix(2.46389,0,0,0.858333,-1583.27,144.075)"
   id="g3">
                        <rect
   x="1128"
   y="537"
   width="60"
   height="120"
   style="fill:#238647"
   id="rect3" />
                    </g>
                    <g
   transform="matrix(2.46389,0,0,0.858333,-1509.35,144.075)"
   id="g4">
                        <rect
   x="1128"
   y="537"
   width="60"
   height="120"
   style="fill:#2f9b47"
   id="rect4" />
                    </g>
                    <g
   transform="matrix(2.46389,0,0,0.858333,-1435.43,144.075)"
   id="g5">
                        <rect
   x="1128"
   y="537"
   width="60"
   height="120"
   style="fill:#62b64f"
   id="rect5" />
                    </g>
                    <g
   transform="matrix(2.46389,0,0,0.858333,-1361.52,144.075)"
   id="g6">
                        <rect
   x="1128"
   y="537"
   width="60"
   height="120"
   style="fill:#89cc53"
   id="rect6" />
                    </g>
                    <g
   transform="matrix(2.46389,0,0,0.858333,-1287.6,144.075)"
   id="g7">
                        <rect
   x="1128"
   y="537"
   width="60"
   height="120"
   style="fill:#3db8ad"
   id="rect7" />
                    </g>
                    <g
   transform="matrix(2.46389,0,0,0.858333,-1213.68,144.075)"
   id="g8">
                        <rect
   x="1128"
   y="537"
   width="60"
   height="120"
   style="fill:#3394d7"
   id="rect8" />
                    </g>
                    <g
   transform="matrix(2.46389,0,0,0.858333,-1139.77,144.075)"
   id="g9">
                        <rect
   x="1128"
   y="537"
   width="60"
   height="120"
   style="fill:#2872bc"
   id="rect9" />
                    </g>
                    <g
   transform="matrix(2.46389,0,0,0.858333,-1065.85,144.075)"
   id="g10">
                        <rect
   x="1128"
   y="537"
   width="60"
   height="120"
   style="fill:#1d5c84"
   id="rect10" />
                    </g>
                    <g
   transform="matrix(2.46389,0,0,0.858333,-991.933,144.075)"
   id="g11">
                        <rect
   x="1128"
   y="537"
   width="60"
   height="120"
   style="fill:#993233"
   id="rect11" />
                    </g>
                    <g
   transform="matrix(2.46389,0,0,0.858333,-918.017,144.075)"
   id="g12">
                        <rect
   x="1128"
   y="537"
   width="60"
   height="120"
   style="fill:#e13030"
   id="rect12" />
                    </g>
                    <g
   transform="matrix(2.46389,0,0,0.858333,-844.1,144.075)"
   id="g13">
                        <rect
   x="1128"
   y="537"
   width="60"
   height="120"
   style="fill:#f28825"
   id="rect13" />
                    </g>
                    <g
   transform="matrix(1.23194,0,0,0.858333,619.45,144.075)"
   id="g14">
                        <rect
   x="1128"
   y="537"
   width="60"
   height="120"
   style="fill:#f5c836"
   id="rect14" />
                    </g>
                </g><g
   transform="matrix(2.157852,0,0,2.1333453,-1187.6013,-34.133826)"
   id="g22"
   clip-path="url(#clipPath24)"
   style="display:inline">
                    <g
   id="g21">
                        <g
   id="g20">
                            <g
   transform="matrix(0.988636,0,0,1,311.114,0)"
   id="g16">
                                <path
   d="m 350,117 h 8 v 21 c 0,9.934 -8.066,18 -18,18 -9.934,0 -18,-8.066 -18,-18 v -21 h 8 v 21 c 0,6.071 4.481,11 10,11 5.519,0 10,-4.929 10,-11 z"
   style="fill:#ffffff"
   id="path15" />
                            </g>
                            <g
   transform="matrix(0.988636,0,0,-1,354.659,272)"
   id="g17">
                                <path
   d="m 350,117 h 8 v 21 c 0,9.934 -8.066,18 -18,18 -9.934,0 -18,-8.066 -18,-18 v -21 h 8 v 21 c 0,6.071 4.481,11 10,11 5.519,0 10,-4.929 10,-11 z"
   style="fill:#ffffff"
   id="path16" />
                            </g>
                            <g
   transform="matrix(0.988636,0,0,1,-1320.14,-98)"
   id="g18">
                                <path
   d="m 1931,253 h -7 v -18 h 0.03 c -0.02,-0.331 -0.03,-0.665 -0.03,-1 v -36 h 8 v 20.003 c 3.34,-2.513 7.5,-4.003 12,-4.003 11.04,0 20,8.962 20,20 0,11.038 -8.96,20 -20,20 -4.78,0 -9.17,-1.681 -12.61,-4.483 z m 12.5,-32 c 6.9,0 12.5,5.825 12.5,13 0,7.175 -5.6,13 -12.5,13 -6.9,0 -12.5,-5.825 -12.5,-13 0,-7.175 5.6,-13 12.5,-13 z"
   style="fill:#ffffff"
   id="path17" />
                            </g>
                            <g
   transform="matrix(-0.988636,0,0,-1,2658.14,370)"
   id="g19">
                                <path
   d="m 1931,253 h -7 v -18 h 0.03 c -0.02,-0.331 -0.03,-0.665 -0.03,-1 v -36 h 8 v 20.003 c 3.34,-2.513 7.5,-4.003 12,-4.003 11.04,0 20,8.962 20,20 0,11.038 -8.96,20 -20,20 -4.78,0 -9.17,-1.681 -12.61,-4.483 z m 12.5,-32 c 6.9,0 12.5,5.825 12.5,13 0,7.175 -5.6,13 -12.5,13 -6.9,0 -12.5,-5.825 -12.5,-13 0,-7.175 5.6,-13 12.5,-13 z"
   style="fill:#ffffff"
   id="path18" />
                            </g>
                        </g>
                    </g>
                </g>
                
            
</svg>
