<svg fill="none" height="24" viewBox="0 0 32 24" width="32" xmlns="http://www.w3.org/2000/svg"><path d="m4.12903.5h23.74197c1.9991 0 3.629 1.63976 3.629 3.67391v15.65219c0 2.0341-1.6299 3.6739-3.629 3.6739h-23.74197c-1.99917 0-3.62903-1.6398-3.62903-3.6739v-15.65219c0-2.03415 1.62986-3.67391 3.62903-3.67391z" fill="#fff" stroke="#e6e6e6"/><g clip-rule="evenodd" fill-rule="evenodd"><path d="m4.4319 7.36096c-1.5868 0-2.87317-1.30035-2.87317-2.9044 0-1.60406 1.28637-2.90441 2.87317-2.90441 1.58681 0 2.87318 1.30035 2.87318 2.90441 0 1.60405-1.28637 2.9044-2.87318 2.9044zm-.01745-7.36096c-2.43803 0-4.41445 1.9979-4.41445 4.46244 0 2.46453 1.97642 4.46244 4.41445 4.46244 2.43804 0 4.41446-1.99791 4.41446-4.46244 0-2.46454-1.97642-4.46244-4.41446-4.46244z" fill="#d30d48" transform="translate(8.77417 9.84601)"/><path d="m5.89757 10.3947c-2.40912 0-4.36211-1.97418-4.36211-4.40951 0-2.43532 1.95299-4.40952 4.36211-4.40952s4.36213 1.9742 4.36213 4.40952c0 2.43533-1.95301 4.40951-4.36213 4.40951zm.01163-10.3947c-3.26355 0-5.9092 2.6744-5.9092 5.97343s2.64565 5.97347 5.9092 5.97347c3.26356 0 5.9092-2.67444 5.9092-5.97347s-2.64564-5.97343-5.9092-5.97343z" fill="#2aaacd" transform="translate(10.8912 4.69568)"/><path d="m.0729341 1.64074c.2260149-.05778.4626629-.08859.7064289-.08859 1.586807 0 2.873177 1.30035 2.873177 2.90441 0 .24644-.03048.48566-.08762.71413.2585.04826.52488.0737.79719.0737.2584 0 .51147-.02286.75752-.06641.03713-.23299.05674-.47193.05674-.71554 0-2.46452-1.97642-4.46244-4.414455-4.46244-.236113 0-.467827.0189544-.6938893.0550302-.0446914.2531418-.0680257.5137388-.0680257.7798388 0 .275271.0251951.544571.0729341.805871z" fill="#f9ba30" transform="translate(12.4268 9.84601)"/><path d="m5.93247 5.22088c-.0117 0-.02331.00037-.0349.00089v-.00089c-2.40912 0-4.36211-1.9742-4.36211-4.409528h-.00088c.00051-.011711.00088-.023446.00088-.035275 0-.42863-.34371-.776077-.767729-.776077-.424021 0-.767731.347447-.767731.776077 0 .007902.00037148.015685.00058082.023517h-.00058082c0 3.299026 2.64565 5.973436 5.9092 5.973436v-.00059c.00775.00021.01547.00059.02327.00059.42402 0 .76773-.34745.76773-.77608s-.34371-.77607-.76773-.77607z" fill="#55548f" transform="translate(10.8912 9.86951)"/></g></svg>