<svg xmlns="http://www.w3.org/2000/svg" width="640" height="360" viewBox="0 0 49.346 27.757"><path fill="#fff" fill-rule="evenodd" d="M24.99 16.833v1.71c-.488.377-1.665.81-2.963.81-1.99 0-3.899-1.332-3.899-3.65 0-2.262 1.938-3.706 3.87-3.706 1.21 0 1.845.401 2.275.401.23 0 .374-.259.402-.345h.171c0 .808.086 1.765.173 2.258l-.2.029c-.402-1.276-1.726-1.884-2.734-1.856-1.644.03-2.537 1.479-2.537 3.102 0 1.768.98 3.247 2.595 3.247.576 0 1.354-.146 1.614-.464v-1.537c0-.868-.462-1.072-.808-1.072v-.202h2.873v.202c-.344 0-.832.204-.832 1.073m-8.999-2.55v5.098h-.285l-4.909-5.94c.028.086.057.232.057.464V17.5c0 1.247.29 1.594.924 1.594v.202H9.322v-.202c.666 0 .956-.347.956-1.594V13.18c0-.608-.521-.925-1.13-.925v-.202h2.11l4.191 4.982c-.028-.204-.028-.261-.028-.434v-2.32c0-.869 0-2.026-.896-2.026v-.202h2.323v.202c-.885 0-.857 1.157-.857 2.027m-8.981-.986v4.58c0 .406-.087 1.217.806 1.217v.201H4.963v-.201c.894 0 .808-.81.808-1.218v-4.58c0-.869-.49-1.04-.836-1.04v-.202h2.938v.201c-.374 0-.863.172-.863 1.042m29.16-1.286c.058 0 0-.086 0-.114-.116-.172-.203-.487-.23-.487-.087-.03-.146 0-.26-.058-.059-.058-.231-.145-.29-.175-.028 0-.115-.03-.23-.058h-.144c.028.087.115.175.143.233 0 .029 0 .116.03.173.057 0 .144.029.201.057.029 0 .202.029.26.086.058 0 .26.229.29.257.085.058.172.115.23.086m8.241 3.419a.32.32 0 0 0-.205-.088c0-.086-.03-.202 0-.317.059 0 .175.029.175 0 0-.174-.03-.346-.058-.433a2 2 0 0 0-.235-.086.5.5 0 0 0-.058-.23c.087-.03.146-.03.205-.03 0 0-.059-.26-.088-.377-.059-.028-.146-.028-.205-.028-.03-.053-.06-.105-.088-.187.06-.029.118-.029.177-.058a1.5 1.5 0 0 0-.147-.298h-.202c-.03-.06-.058-.118-.058-.175.028-.027.086-.055.115-.084a.65.65 0 0 0-.144-.227c-.058 0-.115.029-.173 0-.028 0-.115-.114-.086-.114.029-.057.086-.086.115-.114-.086-.114-.115-.2-.202-.258-.057 0-.116 0-.172.029 0 0-.058-.086-.087-.114-.086 0 .059-.143.059-.143a3 3 0 0 0-.289-.315c-.058 0-.115.058-.144.058 0 0-.115-.086-.115-.115 0-.057.115-.086.115-.086s-.202-.23-.345-.317c-.058.03-.087.03-.145.03-.086-.088-.202-.146-.202-.146s.087-.058.087-.087c-.145-.087-.201-.145-.317-.233a.6.6 0 0 1-.23-.231c-.204-.317-.467-.78-1.104-.865 0 0 .145.202.232.346 0 .03 0 .03-.116.03h-.203c-.058-.087-.087-.117-.116-.174-.058-.115-.086-.144-.145-.202-.115-.087-.691.23-1.147.346.117.145.224.23.248.289.12.144.323.404.467.607.03-.03.058-.058.116-.087.374-.058.374-.145.374-.145s-.288-.23-.086-.23c0 0 .144.029.201-.03.145-.028.32-.058.406 0 .116.087.174.202.26.29-.059 0-.116-.03-.174-.03-.173-.028-.347 0-.492.03 0 0 .231.203.29.29-.059-.029-.232 0-.232 0a1.3 1.3 0 0 1-.231.058c-.087.03-.173 0-.23.03.115.057.634.26.894.26.232 0 .377-.028.582-.116.03-.029.088-.058.117-.029a.44.44 0 0 1 .231.116c.748.459 1.584 1.544 1.842 2.127.26.536.403 1.142.403 1.719.03.787-.23 1.534-.748 2.198-.288.377-.834.7-1.411.76.172.207.259.532.345.82 0 0 .202-.028.317-.082 0-.237-.143-.502-.143-.56 0 0 .172-.12.317-.12.028.09.114.237.23.443.115-.059.201-.117.288-.205 0-.148-.087-.326-.145-.503.202-.088.317-.118.317-.118.058.088.202.178.23.266 0 0 .145-.148.201-.295-.056-.116-.143-.204-.201-.32l.23-.259s.144.116.202.174c.088-.117.177-.231.205-.375-.146-.145-.205-.145-.234-.23.06-.086.088-.202.147-.289.087.03.146.087.205.116.06-.116.118-.288.118-.403-.059-.058-.147-.086-.206-.144l.06-.289s.147.03.205.03c.031-.178.031-.354.031-.471m-9.223-5.266c.03-.086-.029-.172-.029-.26-.057-.202-.143-.403-.172-.635v-.114c-.116-.058-.23-.087-.375-.145 0 0 0 .173.058.26.058.144.145.375.145.49 0 .087.028.173.057.26.144.086.316.144.316.144m.693 1.1a1.1 1.1 0 0 0-.144-.523q0-.043-.087-.087c-.086-.086-.172-.173-.201-.173-.087-.086-.145-.173-.231-.26-.086 0-.144.087-.202.116-.028.058-.144.116-.086.144.028.058.086.058.144.086.058.058.115.087.202.145.115.116.173.26.318.377.057.029.086.058.114.058a.6.6 0 0 1 .173.117m4.77 5.815c0-.03 0-.26-.058-.26-.029-.028-.058-.115-.087-.144-.028.086 0 .144 0 .231 0 .057-.115.114-.087.144.087.03.145.23.203.287.086.116.057-.201.029-.258m-6.068-8.184a4.8 4.8 0 0 0-.836-.461c-.173.143-.288.26-.375.26-.086 0-.029-.173-.029-.29-.086 0-.144 0-.23-.028-.058.202-.087.461-.23.52-.059.028-.087.028-.116.028v-.23c0-.03.115-.23.086-.26 0 0-.26.058-.317.087a.9.9 0 0 1-.23.115s-.087-.029-.116-.029c-.086-.058-.145-.058-.23-.115-.116.346-.144.432-.144.375 0 0-.404-.26-.549-.433-.374.057-.374.115-.692.23-.115.116-.288.26-.403.432-.058.116-.116.173-.173.29l.288.115a3 3 0 0 0 .202-.289c.202-.116.548-.317.663-.432.029.057.375.26.52.346.115.086.23.115.346.173.058-.086.115-.173.173-.375.086.058.201.058.288.086 0 .116 0 .231.029.346 0 .058.057.03.173-.028.173-.058.346-.086.432-.115.202-.116.317-.346.49-.346.144 0 .404.086.462.143.086.03.144.058.23.058.116 0 .202-.115.288-.173m3.816 5.06c0-.086-.03-.194-.116-.247-.261.08-.55.105-.753.105-.29 0-.578-.052-.983-.218-.03.058 0 .166 0 .166.173.137.173.052.318.195.058.058.087.174.116.376.029.115.087.145.145.318.086-.058.23-.03.23-.03 0-.143-.086-.288-.086-.316l-.145-.29c.028 0 .116.116.26.116.03 0 .116.029.174 0 0 0 .087.058.087.116.057.087.057.145.086.23.058 0 .086 0 .116-.028.116 0 .173-.03.173-.03-.028-.057-.058-.114-.058-.172a4 4 0 0 1-.087-.203zm-1.91-.39s-.058-.357-.116-.753c-.058-.343-.087-.458-.175-.6a.27.27 0 0 1-.145.028 1 1 0 0 0-.144.057c.058.23.144.515.173.855 0 .084-.029.176 0 .268zm4.919 3.341c0-1.476-.525-2.718-1.163-3.399-.374-.384-.778-.609-1.154-.609-.34 0-.604.253-.604.521 0 1.029.41 1.692.652 2.274a.84.84 0 0 1 .097.406c.029.375-.252 1.064-.457 1.44-.029-.029-.175-.057-.292-.057-.29 0-.406.201-.465.376-.087 0-.145-.059-.232-.059-.346-.028-.636.295-.636.649 0 .384.087.585.231.831h.29c-.029-.082-.116-.506-.145-.624a.41.41 0 0 1 .116-.384c.115-.177.405-.118.405-.118-.087.147-.203.384-.203.62.029.147.058.37.145.506h.232c.058-.163 0-.3 0-.447 0-.089 0-.177.03-.266 0-.059.144.118.144.118s.117-.147.117-.265c0-.09-.175-.06-.204-.148-.03-.088.057-.295.057-.295.176-.118.322-.09.38-.09.088 0 .118.03.234.03.084 0 .108-.174.108-.261.024.028.096.087.12.087.082.03.111.03.198.058.116.06.23.116.346.234v-.03c-.029-.117.03-.262-.057-.321 0 0-.145-.115-.26-.173-.058-.058-.144-.058-.172-.116-.03-.03-.03-.058-.03-.114 0-.06.03-.145.059-.145.058-.028.086 0 .201.058s.231.144.317.202c0 0 .029.058.029.03.116-.06.116-.088.116-.26-.116-.145 0-.173-.173-.288-.058 0-.375-.116-.375-.116 0-.057.086-.2.086-.2.03-.03.087-.03.116.028.173.115.288.115.461.172.028-.086.028-.144-.028-.2a.7.7 0 0 0-.203-.201c-.115-.03-.172-.058-.26-.087 0-.086-.028-.173-.057-.288 0-.058.058-.029.116-.029.114-.028.605.144.605.144q0-.173-.086-.26c-.058-.059-.115-.117-.26-.176-.201-.058-.374-.029-.52-.117-.114-.117-.143-.146-.168-.263.082-.028.226-.058.313-.058.144 0 .23-.028.404.03.058.028.26.203.346.203 0 0-.058-.233-.116-.319-.086 0-.23-.173-.288-.202-.289-.114-.346-.058-.519-.028-.086.028-.164 0-.237 0-.024-.059.049-.145.024-.203 0-.028-.097-.057-.097-.115 0 0 .425-.058.598-.028.058.028.23.144.288.144 0 0 .058-.202-.028-.375-.145-.028-.288 0-.404-.028-.116-.03-.23 0-.308 0-.073 0-.145-.03-.233-.03a.46.46 0 0 1-.088-.26s.687-.029.745-.059c-.03-.029-.087-.058-.116-.116-.116-.186-.202-.216-.332-.216-.073 0-.268.085-.385.059 0-.234.117-.447.288-.447.313 0 .659.154.947.472.723.74 1.1 2.16 1.1 3.168 0 .46-.059.896-.116 1.247a.6.6 0 0 0 .233.03c.088-.352.177-.816.177-1.247m-6.392-4.78s-.087-.373-.145-.544c-.028-.115-.086-.173-.143-.26a.22.22 0 0 0-.058.116c-.058.086-.145.144-.087.23.029.114.029.228.116.314.086.087.2.058.317.143m3.267 2.812c-.03-.086-.117-.114-.174-.172 0 0-.377-.145-.435-.145-.058.03.145.145.174.203.116.114.406.374.406.374zm-2.546-1.843c0-.085-.03-.141-.058-.225-.03-.144-.086-.23-.116-.315 0-.085 0-.143-.028-.2-.029 0-.058 0-.086-.029-.087 0-.203-.028-.203-.028 0 .086.03.229.03.314 0 .03.115.287.143.314.03.057.058.085.116.113.086 0 .144.056.202.056m4.798 4.648c0-.03-.087-.087-.117-.087 0-.03-.028-.145-.057-.174-.058-.03-.058-.058-.116-.058 0 .029 0 .058-.03.116 0 .058-.057.085-.028.143.029.06.058.06.116.089.029.028.115.262.144.293.03-.03.03-.206.088-.322m-2.02-1.933c.03-.087-.029-.264-.059-.322-.087 0-.144-.058-.202-.058s-.088-.146-.174-.117c.028.059.086.35.115.41a.8.8 0 0 1 .145.434c.116-.086.146-.259.176-.347m3.122 3.334c.058-.027 0-.082 0-.11-.028 0-.143-.26-.23-.377 0 0-.029.087-.058.146-.06.148-.088.205-.088.287.088.055.117.027.233.027.056 0 .115.027.143.027m-5.09-4.782s-.349-.203-.407-.29c-.086 0-.086 0-.173.087-.057 0-.086.029-.115.087.087.058.115.086.202.145.029.028.058.028.145 0h.232c.058 0 .116.028.116-.03m-.694-.522c.057-.078-.058-.078-.088-.104-.028-.053-.085-.17-.115-.2a.6.6 0 0 0-.086-.145c-.028-.032-.144 0-.202 0s-.086 0-.144.029c.058.058.116.263.144.263.029.053.029.08.087.105.144.026.259 0 .404.052m2.11 2.173a.34.34 0 0 0-.086-.232 1.1 1.1 0 0 1-.058-.264 5 5 0 0 0-.203-.319c-.058-.058-.058-.202-.086-.288l-.347.057c.173.231.317.463.405.697.028.088.289.954.289.954.087-.029-.029-.46 0-.489.029-.058.029-.087.087-.116m-1.127-1.017c0-.26-.058-.26-.174-.375 0 0-.086.173-.144.26.115.116.144.26.144.26.116-.116.116-.087.174-.145m4.075 4.094c0-.028 0-.083-.058-.11h-.145c-.057-.03-.086-.03-.115 0-.087.083-.087.219-.145.3h.347c.058-.054.116-.081.116-.19m-3.728-3.367v-.088s-.058-.118-.058-.146c-.029-.059-.058-.146-.144-.175 0-.03-.03.116-.058.175-.03.058-.03.028-.087.146.058.088.087.146.145.234 0 .03.087.144.087.144s.115-.232.115-.29m-2.34-3.082c-.462-.23-.808-.315-1.096-.315 0-.029-.058-.057 0-.086a1 1 0 0 0 .145-.115 1 1 0 0 0 .173-.343c.086-.171.172-.115.23-.489-.086 0-.115.058-.202.087.028-.087.058-.175.058-.261.029-.175.086-.291.086-.494.087-.028.231-.115.26-.23 0-.029 0-.115.028-.23 0-.173.03-.318-.028-.434 0-.029-.202-.317-.346-.403-.202-.086-.289-.059-.432-.029-.173 0-.404.173-.404.49-.173 0-.52.03-.722.203a1.7 1.7 0 0 0-.462-.145h-.259a.55.55 0 0 0-.201-.317c-.145-.087-.317-.202-.52-.202-.086 0-.172-.029-.26.028-.086.058-.23.116-.259.231-.058.144-.115.26-.115.404s.087.26.174.403c.028.058.057.058.114.086.03 0 .145.058.174.087.028.03-.03.116-.03.289 0 .145 0 .145.03.262 0 .116.028.232.058.32-.087 0-.145-.088-.203-.03 0 .059.058.202.116.316.143.143.288.287.374.458 0 .03 0 .086.029.086-.202.028-.403.028-.606.086q-.281.096-.547.229c0 .114.029.2.029.2.029 0 .288-.144.519-.2.375-.115.577-.086.577-.086.029.057.058.143.029.171q-.525.215-1.01.51c.029.057 0 .149.058.21q.469-.286.98-.491c.116-.029.116 0 .173 0 .029.028.087.14.144.14.086 0 .173-.085.26-.112.172-.057.317-.114.49-.144.058-.027.058-.085.058-.142.029-.057.029-.057.029-.143 0-.029-.115-.058-.173-.172-.058-.086 0-.171-.029-.171-.086.057-.202.114-.23 0-.03-.086-.03-.2.058-.23a1.2 1.2 0 0 1 .893 0c.058 0 .087.058.087.115.028.058 0 .115-.058.172-.087.028-.173-.086-.173 0s-.057.2-.202.257c-.028.029 0 .115.029.2 0 .029 0 .086.03.086.115.028.287.057.374.115.115.056.317.225.346.198.086-.057.116-.142.173-.198.317.14.577.225.98.488.058 0 .058-.122.058-.179q-.315-.174-.634-.338c-.116-.029-.173-.086-.29-.114v-.23c.203.058.606.087 1.01.315.029-.084.086-.14.058-.17m.692 1.46c-.116-.058-.26-.116-.375-.174a1.2 1.2 0 0 1-.288-.192c-.057 0-.086.026-.115.026-.058.026-.087.052-.145.079.087.116.173.203.26.29.028.058.116.058.173.058h.289c.085-.03.143-.03.201-.087m.49.722c.058 0 .058-.116 0-.116-.202-.057-.375-.115-.49-.288-.029.029-.202.086-.26.145 0 0 .058.144.202.288.086.086.26.029.404-.028zm4.133 4.098h-.173a.22.22 0 0 0-.201.141.44.44 0 0 1-.116.19c.03.028.086.028.116.028h.288c.028-.028.028-.11.058-.163 0-.055.028-.11.028-.196M37.5 16.503c-.028-.058-.057-.144-.086-.202 0-.028 0-.086-.03-.172 0 0-.202.144-.23.172.115.144.057.23.086.345 0 .058.116.087.145.173 0 .029-.058.288-.058.288.173-.23.173-.518.173-.604m2.14 1.946a.75.75 0 0 0-.628-.414c-.145 0-.32.178-.438.739-.03.205-.059.37-.03.478l.264.028c.059-.082.059-.218.117-.33 0-.059.058-.059.117-.059.048.03.145.171.193.226a.6.6 0 0 0 .087-.255c0-.03-.087-.088-.11-.088-.073-.06-.122-.117-.23-.117-.028-.12.132-.266.132-.266.179 0 .38.235.38.235.059-.03.087-.118.145-.177m-2.717-1.803c-.03-.029-.058-.258-.087-.431 0-.058-.087-.144-.145-.202-.028.086-.115.144-.115.26 0 0 .144.143.173.23.03.058 0 .316.03.374.086-.086.144-.116.144-.231m-2.369-2.255v-.059c-.085-.086-.201-.29-.201-.347-.058-.03-.058-.03-.144-.03-.03-.028-.087-.028-.116-.028 0 0 .028.145.086.29.03.058.087.115.115.115.059.03.174.059.26.059m.923.835c-.058-.057-.115-.115-.202-.172-.116-.03-.173-.087-.23-.203a.6.6 0 0 0-.115-.172c-.058 0-.086.028-.145.058-.057.057-.173.057-.23.143.028.058.057.116.115.174.029.029.058.086.173.144.202.115.26.144.26.144.172.03.374-.116.374-.116m-5.162-4.745a.4.4 0 0 0-.057-.173 1.2 1.2 0 0 1-.087-.23c0-.23.029-.29.058-.49-.116-.029-.26-.029-.318.086-.057.086-.057.173-.057.26 0 .144.028.26.057.432-.115.087-.172.145-.288.202.029.173.058.493.058.493.058-.087.058-.087.115-.145.115-.088.172-.145.317-.261.029-.058.058-.03.145-.087.028-.03.057-.058.057-.087m3.778 4.342a.9.9 0 0 1-.144-.375c-.058-.057.058-.26-.087-.26a3 3 0 0 0-.23-.087.7.7 0 0 0 0 .347c0 .087.144.347.202.376.029.028.173.028.202.028.029-.03.057-.03.057-.03m-.72-1.643c-.231-.141-.52-.17-.81-.17-.258 0-.546.028-.834.226.028.122.057.213.114.33.03 0 .058.058.087.058.058-.059.115-.146.201-.175v.117c0 .088 0 .143.03.222 0 .08.086.08.202.08.115 0 .144-.185.144-.215 0 0 .03.108.202.187 0 0 .202 0 .202-.027.028-.13.057-.16.028-.277 0 0 .173.117.26.224a.45.45 0 0 0 .116-.195c.057-.116.057-.268.057-.385m1.498 2.484c-.115-.088-.143-.147-.201-.205-.087-.058-.145-.087-.26-.204h-.375c.058.145.086.233.289.38.115.088.346.058.547.029m1.357 2.049s-.058-.348-.058-.779c0-.028-.087-.202-.145-.23a.6.6 0 0 0-.144-.087v.116c0 .115.029.144.029.202 0 .057.086.46.086.576.145.029.145.145.232.202m-5.855-6.74c-.029-.058-.26 0-.318 0-.144.029-.403.117-.403.174-.03.088-.03.291-.03.32.03.086.03.172.059.258.086-.086.115-.114.173-.143.028-.029.346-.26.374-.29.058-.058.086-.029.116-.087 0-.173.057-.173.029-.232m3.086 4.08s-.058-.259-.087-.374v-.462c-.115.03-.144.058-.173.058-.086.058-.144.087-.144.145 0 .115.028.23.028.288 0 .086 0 .144.03.173.086.03.115.03.23.086 0 .03.116.087.116.087m-.606-.346c.03-.086 0-.23-.029-.374-.115.029-.346.058-.346.144-.028.087 0 .173 0 .23.03.059.03.117.03.203 0 .058-.03.115 0 .202.028-.058.172-.115.2-.173.059-.088.116-.145.145-.232m1.096 1.22c-.087-.058-.23-.234-.317-.322-.058-.059-.029-.146-.087-.205-.058 0-.116 0-.173.03-.086 0-.144 0-.23.029.028.058.028.116.086.146.115.116.115.145.23.322.03.057.174.085.289.085a.4.4 0 0 0 .202-.085m-3.634-4.288c-.288.086-.49.143-.548.2-.144.086-.202.144-.346.23 0 .171 0 .171.029.257l.03.343c.056-.086.23-.257.316-.372.058-.057.172-.2.462-.343.028-.114.057-.2.057-.315m1.932 3.473c.087-.087 0-.231 0-.318-.03-.086 0-.173-.03-.26a.16.16 0 0 0-.143-.086c-.058 0-.202-.086-.202-.03-.144 0-.03.146-.03.232 0 .115.289.403.289.403.058.03.058 0 .116.059m-.663-.837s-.029-.145-.058-.203a.4.4 0 0 0-.144-.174c-.029 0-.086-.058-.116-.03 0 0-.029.233-.057.262.057.087.114.145.143.231.03.086.058.202.116.289.03-.116.116-.173.116-.375m-.577.173s-.086-.26-.115-.405c-.029-.087.028-.203-.029-.281-.029-.053-.116-.08-.172-.108-.059 0-.116.108-.116.215 0 .059.03.261.058.349 0 .029.058.058.115.087.086.057.173.086.259.143m2.48 2.37c-.028-.114-.058-.257-.086-.373 0 0-.087-.058-.173-.058-.058 0-.115-.028-.173 0 .028.087.028.144.058.23.086.115.201.173.317.259.029 0 .057-.057.057-.057m-3.576-3.37c-.028-.212-.086-.38-.086-.438 0-.227.03-.284.057-.427-.115.058-.26.143-.374.2v.143c0 .057.028.371.028.464.03.088.03.176.058.264.029.055.058.108.058.16 0 0 .058-.026.087-.078.086-.083.115-.17.172-.287m2.769 2.04s-.174.029-.202.058c-.029 0-.144 0-.202.06 0 .087 0 .174-.029.292-.058.086-.202.144-.202.288 0 0 .115.028.144.028a.6.6 0 0 0 .145-.115c.086-.029.144-.087.23-.116.058-.027.116-.495.116-.495m3.028 3.404c-.087.03-.26-.06-.26.115-.057.11-.115.219-.115.273h.317c.087-.109.115-.218.058-.388m.317-.768a.67.67 0 0 0-.346-.469c-.058-.03-.605-.29-.692-.29-.172.03-.462.03-.634.117-.029-.087-.058-.231 0-.319.028-.056.317-.056.404-.056.317.028.49.085.577.085.086.087.172.087.202.087 0 0-.03-.173-.058-.23-.116-.058-.232-.087-.318-.116-.144-.058-.202-.086-.432-.115-.087 0-.087.029-.26.029 0-.029.029-.057.058-.086.058-.086.115-.144.173-.2h.461c.116.028.174.056.318.114.086 0 0-.144 0-.23a.4.4 0 0 0-.116-.086 1.4 1.4 0 0 1-.317-.116c-.087-.028-.26-.086-.404-.057-.144.057-.144.028-.26.086-.144.202-.23.431-.316.661 0 .058-.145.403-.145.461a.3.3 0 0 1-.029.087c-.116-.03-.635-.116-.779.029-.058.058-.116.115-.202.29a.48.48 0 0 0-.317-.117.5.5 0 0 0-.404.233c0 .03-.23.473-.202.885.03.232.115.315.23.478h.318c-.03-.11-.086-.246-.145-.418-.028-.149.03-.414.058-.65 0 0 .086-.06.173-.088.058-.06.087-.03.173-.03.028 0 .028.03.028.03-.115.117-.115.235-.143.413 0 .088.115.525.23.743h.23s-.058-.567-.029-.624c0-.119.03-.207.058-.297.058.03.116.03.174.06.086.06.086.118.086.206 0 .149 0 .177-.03.266v.143c0 .137.03.246.03.246h.23c0-.246.03-.218.058-.36.029-.118 0-.177.029-.264 0-.06.028-.119.058-.148.086-.06.143-.06.26-.03 0 .088 0 .178-.03.265a2 2 0 0 1-.115.428c0 .027-.029.081-.058.109h.347s.057-.11.085-.246c.087.083.203.028.26.028.086-.028.144-.112.202-.17-.116-.09-.375-.06-.375-.179-.057-.205 0-.235 0-.354 0-.177-.172-.235-.346-.265-.057-.03-.173-.03-.23-.03-.058.03-.116.118-.173.118 0 0-.116-.088-.202-.117-.058 0-.23-.06-.23-.06.028-.06.057-.118.086-.147.028-.03.115-.116.144-.116.057-.03.144 0 .202.03.144.028.26.057.288.057.029 0 .115.058.115.058.087-.058.087-.115.145-.115.172-.06.23-.088.404-.088.144 0 .26.262.346.35.028.06.23.326.346.562.058-.03.086-.088.143-.088 0-.059-.028-.296-.057-.325-.086-.266-.26-.324-.26-.383.058 0 .174.06.232.06.057.028.143.057.23.117.03.029.086.058.116.088.028.118.028.206.085.325 0 .03 0 .06.03.089.088-.177.174-.207.232-.354m-4.008-2.752c0-.03-.087-.03-.145-.03s-.115.03-.173.03a.9.9 0 0 0-.115.292c-.029.088-.087.146-.115.205 0 0 .26-.058.316-.058.087-.059.145-.088.203-.205.029-.089.057-.118.029-.234M30.2 13.898c-.058-.137-.087-.163-.173-.245-.03.03-.173.108-.202.16a.5.5 0 0 0-.145.085c0 .058.029.087.058.145 0 .058.029.203.029.318 0 0 .086-.057.086-.115.145-.174.318-.319.347-.348m2.567 3.21c-.03-.03-.03-.088-.058-.146-.058-.172-.029-.258-.058-.43h-.23c-.058.029-.087 0-.145.029 0 .114.029.2.115.345.087.173.376.201.376.201m-1.442-1.649v-.204c-.029-.058 0-.172 0-.26-.029-.057-.087-.028-.115 0h-.173s-.058.23-.058.405c-.03.088-.058.146-.058.175-.058.117-.087.146-.144.293.086.03.173-.029.23-.029.058-.03.144-.059.173-.088.03-.028.116-.234.145-.292m-.924-.925c-.057-.057-.086-.143-.115-.201-.115 0-.548.173-.548.173.087.144.144.288.202.461.058-.029.115-.057.173-.115.058-.087.231-.26.288-.318m.116.462c-.058-.029-.173.029-.26.029-.086 0-.289 0-.289.029.03.058.03.115.059.172.028.058.058.116.058.262 0 .088.028.175 0 .292 0 0 .374-.205.374-.263.03-.087 0-.146.03-.233 0-.058 0-.201.028-.288m1.01 1.621c-.317-.114-.29-.23-.404-.287-.144-.115-.375-.23-.722-.345-.086-.029-.288 0-.374 0-.231.403-.318.776-.491 1.209l-.086.259a.85.85 0 0 0-.433-.144c-.23 0-.403.086-.49.317-.086-.028-.202-.086-.346-.058a.6.6 0 0 0-.462.32q-.13.176-.086.354c-.144.059-.23.207-.289.325-.058.235.145.632.231.713h.288c-.058-.246-.173-.36-.086-.624.058-.148.259-.207.317-.236 0-.12-.145-.207-.116-.326.058-.148.231-.148.404-.117a18 18 0 0 0-.086.648c-.028.266.115.655.115.655h.317c-.029-.082-.058-.163-.058-.246-.028-.084-.028-.143-.028-.232.028-.118.028-.235.028-.324.29-.148.203.06.26.118 0 0 .116-.266-.029-.384-.029-.03-.202 0-.202-.03s.029-.117.057-.205c.058-.118.087-.148.145-.234.029-.03.115-.03.23 0 .03 0 .174.03.26.058-.029.086-.144.264-.172.353-.116.354-.116.767-.087 1.126h.317c0-.19-.028-.418 0-.624.058-.266.145-.297.173-.297.058 0 .116.06.145.12.058.295-.116.555-.116.8h.23s.087-.027.116-.108c.058-.164.174-.339.202-.516.029-.148-.028-.266-.115-.444a1.5 1.5 0 0 0-.375-.353c-.057-.116 0-.26 0-.26 0 .027.116-.03.173-.03.23.057.29.057.404.115.086.03.202.088.288.146s.173.235.26.442c0 0 .058-.384.058-.5a1.5 1.5 0 0 0-.404-.319c-.144-.115-.461-.202-.606-.259 0 0 .058-.086.058-.144.173-.03.374-.03.46 0 .29.086.635.26.78.375 0 0 .057-.116.057-.174 0 0-.403-.259-.374-.345-.116-.087-.203-.173-.318-.202-.173-.03-.519-.058-.519-.058s.087-.114.173-.201h.23c.116 0 .404.086.577.172q.39.173.433.26c.03-.085.058-.201.087-.259m-.693 2.363c-.029-.06-.115-.206-.23-.266-.202 0-.145.32-.202.457-.029.028-.058.082-.029.11h.433c0-.001.028-.246.028-.3m10.427-8.21-.35-.26-.117-.144.319-.087zm-1.247-.52h-.144l-.173.116-.23-.173.259-.144zm-5.748-.086a.22.22 0 0 1-.202.144c-.145-.173-.29-.288-.49-.346-.029-.115.058-.23.115-.316.086-.087.202-.116.317-.087.144.029.173.058.23.116.088.114.059.345.03.49m-.894.317c-.057.058-.202.03-.346.03 0-.058 0-.174-.058-.174-.058-.058-.144-.058-.144-.116-.116-.115.172-.028.317 0 .058 0 .548.116.231.26m.548.318s-.029.058-.058.058c-.03.059-.087.088-.144.116-.03 0-.058.059-.058.087-.057.087-.144.116-.26.116-.057 0-.172 0-.23-.116 0 0 .03.35.03.436 0 .028.028.028.028.028.115.03.144.143.202.2 0 0 .029.03.058.03.116.085.374.2.26.2 0 .057-.087.2-.116.2-.086-.086-.23-.143-.346-.2l-.086-.172c-.058-.057-.087-.057-.174-.115 0-.2-.029-.2-.029-.404 0-.029-.057-.349-.057-.349 0-.03.086-.116.173-.144 0 0 .547 0 .807.029m-1.557-.577c0 .116-.087.173-.173.29-.058.085-.086.027-.23.027h-.144c0-.086.057-.114.143-.201.087-.058.173-.116.231-.116.057-.03.173-.058.173 0m-.75-.317c0 .028 0 .057-.029.057 0 0-.172.116-.23.173-.144.087-.174.231-.26.231-.057-.058-.173-.144-.23-.26-.087-.114-.058-.23-.058-.259.058-.173.26-.23.374-.26a.3.3 0 0 1 .203.059c.114.056.172.056.23.259m1.96 2.564c0 .028-.028.172-.028.172-.116-.03-.202-.115-.346-.115 0-.085 0-.085.03-.114.172-.029.258.028.345.057m-1.384-1.554c0 .029-.028.204-.028.232-.03.175-.03.233-.058.492v.086c-.029.057-.145.086-.202.143-.03.086-.03.143-.116.172s-.143.114-.201.085c-.087-.057-.058-.2 0-.285a.5.5 0 0 1 .26-.172c.115-.028.086-.258.086-.287.028-.058 0-.145 0-.204-.058.029-.058 0-.174.029-.114 0-.172-.058-.23-.116s-.202-.175-.26-.291c.144-.029.26-.029.404-.029h.375c.086.029.144.087.144.145m-.23 1.554a1 1 0 0 1-.144.085c-.058.03-.086.058-.173.086-.03-.057-.058-.172-.058-.172s.116-.028.202-.028c.057 0 .115 0 .173.03" clip-rule="evenodd" style="stroke-width:.579632"/></svg>