<svg xmlns="http://www.w3.org/2000/svg" width="640" height="360" viewBox="0 0 640 360">
  <g fill="none" fill-rule="evenodd" transform="translate(140 79.5)">
    <rect width="360" height="200" fill="#FFB3C7" fill-rule="nonzero" rx="4.321"/>
    <path fill="#0A0B09" fill-rule="nonzero" d="M291.04,49.9704 C286.33,49.9704 282.512,53.82304 282.512,58.576 C282.512,63.328 286.33,67.1816 291.04,67.1816 C295.74992,67.1816 299.5688,63.32824 299.5688,58.576 C299.5688,53.82272 295.75008,49.9704 291.04,49.9704 Z M262.9816,43.31712 C262.9816,36.81008 257.46984,31.53632 250.6704,31.53632 C243.87096,31.53632 238.3584,36.81032 238.3584,43.31712 C238.3584,49.82424 243.87024,55.09952 250.6704,55.09952 C257.47056,55.09952 262.9816,49.82424 262.9816,43.31712 Z M263.027318,20.41952 L276.614518,20.41952 L276.614518,66.21312 L263.027318,66.21312 L263.027318,63.2864 C259.188758,65.928 254.555318,67.48088 249.557718,67.48088 C236.332918,67.48088 225.611318,56.66248 225.611318,43.31688 C225.611318,29.97128 236.332918,19.15368 249.557718,19.15368 C254.555318,19.15368 259.188918,20.70648 263.027318,23.34888 L263.027318,20.41936 L263.027318,20.41952 Z M154.291318,26.38448 L154.291318,20.42016 L140.380118,20.42016 L140.380118,66.21296 L154.322518,66.21296 L154.322518,44.83296 C154.322518,37.6196 162.070438,33.74256 167.446518,33.74256 C167.501573,33.74256 167.552966,33.7479017 167.608022,33.7485816 L167.608022,20.4237816 C162.090182,20.4237816 157.015222,22.8077816 154.291222,26.3853816 L154.291318,26.38448 Z M119.638518,43.31728 C119.638518,36.81024 114.126118,31.53648 107.326518,31.53648 C100.527238,31.53648 95.0145184,36.81048 95.0145184,43.31728 C95.0145184,49.8244 100.526918,55.09968 107.326518,55.09968 C114.126358,55.09968 119.638518,49.8244 119.638518,43.31728 Z M119.683467,20.41968 L133.271467,20.41968 L133.271467,66.21328 L119.683467,66.21328 L119.683467,63.28656 C115.844907,65.92816 111.211467,67.48104 106.214667,67.48104 C92.9890672,67.48104 82.2674672,56.66264 82.2674672,43.31704 C82.2674672,29.97144 92.9890672,19.15384 106.214667,19.15384 C111.211787,19.15384 115.845067,20.70664 119.683467,23.34904 L119.683467,20.41952 L119.683467,20.41968 Z M201.467467,19.188 C196.039787,19.188 190.902667,20.8884 187.468267,25.5796 L187.468267,20.4224 L173.939467,20.4224 L173.939467,66.2136 L187.634667,66.2136 L187.634667,42.1488 C187.634667,35.18512 192.262427,31.7752 197.834667,31.7752 C203.806347,31.7752 207.239467,35.37488 207.239467,42.0544 L207.239467,66.2136 L220.810667,66.2136 L220.810667,37.0928 C220.810667,26.436 212.413867,19.1888 201.467467,19.1888 L201.467467,19.188 Z M62.4754672,66.2136 L76.6970672,66.2136 L76.6970672,0.0128 L62.4754672,0.0128 L62.4754672,66.2136 L62.4754672,66.2136 Z M0.0026672,66.2316648 L15.0618672,66.2316648 L15.0618672,0.0004648 L0.0026672,0.0004648 L0.0026672,66.2316648 Z M52.6746672,0.0003048 C52.6746672,14.3388648 47.1371472,27.6772648 37.2698672,37.5916648 L58.0858672,66.2340648 L39.4858672,66.2340648 L16.8634672,35.1060648 L22.7019472,30.6939048 C32.3843472,23.3751848 37.9379472,12.1883048 37.9379472,0.0003048 L52.6747472,0.0003048 L52.6746672,0.0003048 Z" transform="translate(35.309 67.2)"/>
  </g>
</svg>
