<svg xmlns="http://www.w3.org/2000/svg" width="640" height="360" viewBox="0 0 640 360">
  <g fill="none" fill-rule="evenodd" transform="translate(80 122)">
    <g fill="#2A76D2">
      <polygon points="100.616 8.23 8.23 8.23 8.23 100.616 0 100.616 0 0 100.616 0"/>
      <path d="M14.0646131,15.1465064 L14.0646131,115.762585 L114.680691,115.762585 L114.680691,15.1465064 L14.0646131,15.1465064 Z M104.425834,105.48844 L69.8828427,105.48844 L60.6489502,74.8262371 C66.1467078,71.8576189 69.8828427,66.0445126 69.8828427,59.3586392 C69.8828427,49.6562774 62.0172397,41.7916 52.3155491,41.7916 C52.3102302,41.7916 52.3055762,41.7922649 52.3002573,41.7922649 L52.3155491,105.472483 L24.320135,105.472483 L24.320135,25.2338245 L73.7742897,25.2338245 C90.7023833,25.2338245 104.425834,38.9566195 104.425834,55.8853892 C104.425834,66.7388302 98.7798119,76.2669976 90.2702219,81.7135643 L104.425834,105.48844 Z"/>
    </g>
    <path fill="#222" d="M146.77686,74.7182569 L146.77686,49.9699474 L155.634861,49.9699474 C158.643892,49.9699474 160.987971,50.5954107 162.667168,51.8463561 C164.346365,53.0973015 165.18595,54.9736915 165.18595,57.4755823 L165.18595,57.6108189 C165.18595,59.3801741 164.729531,60.8029623 163.816679,61.8792261 C162.903827,62.95549 161.66417,63.7246408 160.097671,64.1867017 L166.639745,74.7182569 L160.689331,74.7182569 L154.772727,65.1671675 L152.338467,65.1671675 L152.338467,74.7182569 L146.77686,74.7182569 Z M152.338467,61.3467318 L155.499624,61.3467318 C158.317069,61.3467318 159.72577,60.1634228 159.72577,57.7967693 L159.72577,57.6446281 C159.72577,56.427492 159.376412,55.5597321 158.677686,55.0413223 C157.97896,54.5229125 156.919616,54.2637115 155.499624,54.2637115 L152.338467,54.2637115 L152.338467,61.3467318 Z M167.536814,65.8940646 L167.536814,65.6066867 C167.536814,62.8005119 168.418661,60.5296856 170.182382,58.7941397 C171.946102,57.0585939 174.163398,56.190834 176.834335,56.190834 C178.040201,56.190834 179.161528,56.3711477 180.198347,56.7317806 C181.235167,57.0924135 182.167727,57.6333548 182.996056,58.3546206 C183.824384,59.0758864 184.478022,60.039438 184.956987,61.2453043 C185.435953,62.4511706 185.675432,63.8373325 185.675432,65.4038317 L185.675432,66.7900075 L172.625094,66.7900075 C172.692713,68.3001578 173.11814,69.4693798 173.90139,70.2977085 C174.68464,71.1260372 175.75807,71.5401953 177.121713,71.5401953 C179.29678,71.5401953 180.553342,70.6949746 180.891435,69.0045079 L185.641623,69.0045079 C185.348609,70.9541795 184.452675,72.4586724 182.953794,73.5180316 C181.454914,74.5773907 179.465828,75.1070624 176.986476,75.1070624 C174.191571,75.1070624 171.917928,74.2815635 170.165477,72.6305409 C168.413027,70.9795184 167.536814,68.7340488 167.536814,65.8940646 Z M172.692712,63.7133734 L180.790008,63.7133734 C180.620961,61.0086266 179.302417,59.6562735 176.834335,59.6562735 C175.707357,59.6562735 174.783249,60.0112662 174.061983,60.7212622 C173.340718,61.4312582 172.884298,62.4286187 172.692712,63.7133734 Z M187.552968,69.0383171 L192.235537,69.0383171 C192.348235,69.8948202 192.644062,70.5371879 193.123028,70.9654395 C193.601993,71.3936911 194.365509,71.6078137 195.413599,71.6078137 C197.306922,71.6078137 198.253569,70.9485415 198.253569,69.6299775 C198.253569,69.0214094 197.977463,68.5621728 197.425244,68.2522539 C196.873025,67.942335 195.926378,67.6859514 194.585274,67.4830954 C192.139732,67.1111927 190.415482,66.5139034 189.412472,65.6912096 C188.409462,64.8685158 187.907964,63.5837803 187.907964,61.8369647 C187.907964,60.9241126 188.105182,60.1014312 188.499624,59.3688956 C188.894067,58.63636 189.429373,58.0447055 190.10556,57.5939144 C190.781746,57.1431232 191.542445,56.7965827 192.387678,56.5542825 C193.232912,56.3119823 194.128846,56.190834 195.075507,56.190834 C199.651037,56.190834 202.141621,58.0615891 202.547333,61.8031555 L197.949286,61.8031555 C197.814049,61.0480804 197.521039,60.4958695 197.070248,60.1465064 C196.619457,59.7971433 195.965819,59.6224643 195.109316,59.6224643 C194.309162,59.6224643 193.680881,59.7943259 193.224455,60.1380541 C192.768029,60.4817823 192.53982,60.9353841 192.53982,61.498873 C192.53982,62.0623619 192.787751,62.4793375 193.283621,62.7498122 C193.779492,63.0202869 194.697965,63.2569486 196.039068,63.4598047 C197.256204,63.6401211 198.267652,63.8514263 199.073441,64.0937265 C199.87923,64.3360268 200.600485,64.6684802 201.237228,65.0910969 C201.87397,65.5137136 202.338842,66.0574723 202.631856,66.7223892 C202.92487,67.3873061 203.071375,68.1930832 203.071375,69.1397446 C203.071375,71.0781464 202.406468,72.5572827 201.076634,73.5771976 C199.7468,74.5971125 197.87041,75.1070624 195.447408,75.1070624 C193.001866,75.1070624 191.094485,74.5830255 189.725207,73.5349361 C188.355929,72.4868468 187.631856,70.9879887 187.552968,69.0383171 Z M204.441773,60.1803156 L204.441773,56.6134485 L206.757701,56.6134485 L206.757701,52.6915853 L211.744553,52.6915853 L211.744553,56.6134485 L215.548084,56.6134485 L215.548084,60.1803156 L211.744553,60.1803156 L211.744553,68.9030804 C211.744553,70.3343422 212.415095,71.0499624 213.756198,71.0499624 C214.432385,71.0499624 215.063483,70.9316315 215.649512,70.6949662 L215.649512,74.5830203 C214.72539,74.8985741 213.711125,75.0563486 212.606687,75.0563486 C210.702094,75.0563486 209.251132,74.5773902 208.253757,73.6194591 C207.256381,72.6615279 206.757701,71.2415571 206.757701,69.3595041 L206.757701,60.1803156 L204.441773,60.1803156 Z M218.794891,74.7182569 L218.794891,56.6134485 L223.815552,56.6134485 L223.815552,60.0788881 C224.401581,58.8392124 225.162279,57.9094697 226.097671,57.2896319 C227.033063,56.669794 228.222006,56.354245 229.664538,56.3429752 L229.664538,61.0086401 L229.495492,61.0086401 C227.647248,61.0086401 226.244182,61.357998 225.286251,62.0567243 C224.30578,62.7779901 223.815552,63.9725687 223.815552,65.6404959 L223.815552,74.7182569 L218.794891,74.7182569 Z M233.266341,53.3677686 C232.725392,52.8493588 232.454921,52.2013563 232.454921,51.4237415 C232.454921,50.6461268 232.728209,49.9953069 233.274793,49.4712622 C233.821378,48.9472175 234.494737,48.6851991 235.294891,48.6851991 C236.106315,48.6851991 236.788126,48.9472175 237.340346,49.4712622 C237.892565,49.9953069 238.16867,50.6461268 238.16867,51.4237415 C238.16867,52.2013563 237.892565,52.8493588 237.340346,53.3677686 C236.788126,53.8861784 236.106315,54.1453794 235.294891,54.1453794 C234.494737,54.1453794 233.81856,53.8861784 233.266341,53.3677686 Z M232.826822,74.7182569 L232.826822,56.6134485 L237.813674,56.6134485 L237.813674,74.7182569 L232.826822,74.7182569 Z M241.060481,65.8940646 L241.060481,65.6066867 C241.060481,63.7133639 241.480274,62.0426444 242.319872,60.5944778 C243.159471,59.1463113 244.283614,58.0503418 245.692337,57.3065364 C247.101059,56.5627311 248.667535,56.190834 250.391811,56.190834 C251.259584,56.190834 252.079448,56.2669038 252.851428,56.4190458 C253.623407,56.5711878 254.364384,56.824754 255.07438,57.1797521 C255.784376,57.5347501 256.404205,57.9770823 256.933884,58.5067618 C257.463564,59.0364414 257.903079,59.7013484 258.252442,60.5015026 C258.601805,61.3016569 258.821562,62.2088604 258.911721,63.2231405 L254.178437,63.2231405 C253.851614,61.1720408 252.628861,60.1465064 250.510143,60.1465064 C249.191579,60.1465064 248.140688,60.61983 247.357438,61.5664914 C246.574188,62.5131527 246.18257,63.8373318 246.18257,65.5390684 L246.18257,65.8264463 C246.18257,67.6296108 246.565736,68.9960509 247.332081,69.9258077 C248.098426,70.8555644 249.191578,71.3204358 250.61157,71.3204358 C251.65966,71.3204358 252.538689,71.0189737 253.248685,70.4160406 C253.958681,69.8131074 254.370022,68.9481649 254.48272,67.8211871 L259.013148,67.8211871 C258.877911,70.0187939 258.046777,71.7824877 256.519722,73.1123216 C254.992667,74.4421554 252.938781,75.1070624 250.358002,75.1070624 C249.028168,75.1070624 247.79978,74.901392 246.672802,74.4900451 C245.545825,74.0786982 244.565369,73.4898611 243.731405,72.7235162 C242.897441,71.9571712 242.243804,70.9879848 241.770473,69.8159279 C241.297143,68.6438709 241.060481,67.3365962 241.060481,65.8940646 Z M260.349737,60.1803156 L260.349737,56.6134485 L262.665665,56.6134485 L262.665665,52.6915853 L267.652517,52.6915853 L267.652517,56.6134485 L271.456048,56.6134485 L271.456048,60.1803156 L267.652517,60.1803156 L267.652517,68.9030804 C267.652517,70.3343422 268.323059,71.0499624 269.664162,71.0499624 C270.340349,71.0499624 270.971447,70.9316315 271.557476,70.6949662 L271.557476,74.5830203 C270.633354,74.8985741 269.619089,75.0563486 268.514651,75.0563486 C266.610058,75.0563486 265.159096,74.5773902 264.161721,73.6194591 C263.164345,72.6615279 262.665665,71.2415571 262.665665,69.3595041 L262.665665,60.1803156 L260.349737,60.1803156 Z M282.631104,62.4962434 L282.631104,62.2257701 C282.631104,60.3775264 282.943836,58.6645458 283.569309,57.0867769 C284.194782,55.5090079 285.051272,54.1735592 286.138805,53.0803907 C287.226339,51.9872222 288.527979,51.1307319 290.043764,50.5108941 C291.559549,49.8910563 293.18519,49.581142 294.920736,49.581142 C296.938027,49.581142 298.72426,49.9023259 300.279489,50.5447032 C301.834719,51.1870806 303.111002,52.1928932 304.108377,53.5621713 C305.105753,54.9314494 305.700224,56.6078038 305.891811,58.5912847 L300.144252,58.5912847 C299.716001,55.5371748 297.986116,54.0101427 294.954545,54.0101427 C292.993604,54.0101427 291.435581,54.7370326 290.280428,56.190834 C289.125276,57.6446354 288.547709,59.644991 288.547709,62.1919609 L288.547709,62.4624343 C288.547709,65.0206739 289.111189,67.00976 290.238167,68.4297521 C291.365145,69.8497441 292.948525,70.5597295 294.988355,70.5597295 C296.566124,70.5597295 297.850859,70.1596584 298.8426,69.3595041 C299.83434,68.5593499 300.442899,67.3816757 300.668295,65.8264463 L306.179189,65.8264463 C305.976333,67.8211971 305.373409,69.5229081 304.370398,70.9316304 C303.367388,72.3403526 302.077018,73.3884263 300.499249,74.0758828 C298.92148,74.7633393 297.107073,75.1070624 295.055973,75.1070624 C291.077741,75.1070624 288.012407,73.977284 285.85988,71.7176935 C283.707352,69.4581029 282.631104,66.384317 282.631104,62.4962434 Z M307.989106,65.8602554 L307.989106,65.5728775 C307.989106,63.7133641 308.406082,62.0680011 309.240045,60.6367393 C310.074009,59.2054774 311.212239,58.1066905 312.654771,57.3403456 C314.097303,56.5740007 315.725761,56.190834 317.540195,56.190834 C320.301291,56.190834 322.577752,57.0416895 324.369647,58.743426 C326.161542,60.4451625 327.057476,62.6878148 327.057476,65.47145 L327.057476,65.7588279 C327.057476,67.6296112 326.6405,69.2777915 325.806536,70.7034185 C324.972573,72.1290454 323.834342,73.2193801 322.391811,73.9744553 C320.949279,74.7295304 319.320821,75.1070624 317.506386,75.1070624 C315.714491,75.1070624 314.10012,74.7323478 312.663223,73.9829076 C311.226326,73.2334673 310.088096,72.1515848 309.248497,70.7372276 C308.408899,69.3228705 307.989106,67.6972293 307.989106,65.8602554 Z M313.111195,65.7588279 C313.111195,67.5056436 313.497179,68.8636315 314.269159,69.8328325 C315.041138,70.8020334 316.131473,71.2866266 317.540195,71.2866266 C318.937648,71.2866266 320.025165,70.8020334 320.80278,69.8328325 C321.580395,68.8636315 321.969196,67.5169132 321.969196,65.7926371 L321.969196,65.5390684 C321.969196,63.8035225 321.580395,62.448352 320.80278,61.4735162 C320.025165,60.4986803 318.937648,60.0112697 317.540195,60.0112697 C316.154013,60.0112697 315.069313,60.4902281 314.286063,61.4481593 C313.502814,62.4060904 313.111195,63.7471739 313.111195,65.47145 L313.111195,65.7588279 Z M330.152141,74.7182569 L330.152141,56.6134485 L335.172802,56.6134485 L335.172802,59.4872276 C335.657403,58.5180267 336.404015,57.7263367 337.41266,57.1121337 C338.421305,56.4979308 339.635605,56.190834 341.055597,56.190834 C342.926381,56.190834 344.411152,56.7740362 345.509955,57.9404583 C346.608758,59.1068804 347.158152,60.8564872 347.158152,63.1893313 L347.158152,74.7182569 L342.137491,74.7182569 L342.137491,63.9162284 C342.137491,62.6765528 341.881107,61.760897 341.368332,61.1692337 C340.855557,60.5775703 340.046963,60.2817431 338.942524,60.2817431 C337.826816,60.2817431 336.919613,60.6254661 336.220887,61.3129226 C335.52216,62.0003791 335.172802,62.9864699 335.172802,64.2712246 L335.172802,74.7182569 L330.152141,74.7182569 Z M349.627348,60.1803156 L349.627348,56.6134485 L351.943276,56.6134485 L351.943276,52.6915853 L356.930128,52.6915853 L356.930128,56.6134485 L360.733659,56.6134485 L360.733659,60.1803156 L356.930128,60.1803156 L356.930128,68.9030804 C356.930128,70.3343422 357.60067,71.0499624 358.941773,71.0499624 C359.61796,71.0499624 360.249058,70.9316315 360.835086,70.6949662 L360.835086,74.5830203 C359.910965,74.8985741 358.8967,75.0563486 357.792262,75.0563486 C355.887669,75.0563486 354.436707,74.5773902 353.439331,73.6194591 C352.441956,72.6615279 351.943276,71.2415571 351.943276,69.3595041 L351.943276,60.1803156 L349.627348,60.1803156 Z M362.881668,65.8940646 L362.881668,65.6066867 C362.881668,62.8005119 363.763515,60.5296856 365.527235,58.7941397 C367.290956,57.0585939 369.508251,56.190834 372.179189,56.190834 C373.385055,56.190834 374.506381,56.3711477 375.543201,56.7317806 C376.58002,57.0924135 377.51258,57.6333548 378.340909,58.3546206 C379.169238,59.0758864 379.822875,60.039438 380.301841,61.2453043 C380.780806,62.4511706 381.020286,63.8373325 381.020286,65.4038317 L381.020286,66.7900075 L367.969947,66.7900075 C368.037566,68.3001578 368.462994,69.4693798 369.246243,70.2977085 C370.029493,71.1260372 371.102923,71.5401953 372.466567,71.5401953 C374.641634,71.5401953 375.898195,70.6949746 376.236289,69.0045079 L380.986476,69.0045079 C380.693462,70.9541795 379.797528,72.4586724 378.298648,73.5180316 C376.799767,74.5773907 374.810681,75.1070624 372.33133,75.1070624 C369.536425,75.1070624 367.262781,74.2815635 365.510331,72.6305409 C363.75788,70.9795184 362.881668,68.7340488 362.881668,65.8940646 Z M368.037566,63.7133734 L376.134861,63.7133734 C375.965814,61.0086266 374.64727,59.6562735 372.179189,59.6562735 C371.052211,59.6562735 370.128103,60.0112662 369.406837,60.7212622 C368.685571,61.4312582 368.229152,62.4286187 368.037566,63.7133734 Z M384.047333,74.7182569 L384.047333,56.6134485 L389.067994,56.6134485 L389.067994,59.4872276 C389.552595,58.5180267 390.299206,57.7263367 391.307851,57.1121337 C392.316496,56.4979308 393.530797,56.190834 394.950789,56.190834 C396.821572,56.190834 398.306343,56.7740362 399.405147,57.9404583 C400.50395,59.1068804 401.053343,60.8564872 401.053343,63.1893313 L401.053343,74.7182569 L396.032682,74.7182569 L396.032682,63.9162284 C396.032682,62.6765528 395.776299,61.760897 395.263524,61.1692337 C394.750749,60.5775703 393.942154,60.2817431 392.837716,60.2817431 C391.722008,60.2817431 390.814804,60.6254661 390.116078,61.3129226 C389.417352,62.0003791 389.067994,62.9864699 389.067994,64.2712246 L389.067994,74.7182569 L384.047333,74.7182569 Z M403.52254,60.1803156 L403.52254,56.6134485 L405.838467,56.6134485 L405.838467,52.6915853 L410.825319,52.6915853 L410.825319,56.6134485 L414.628851,56.6134485 L414.628851,60.1803156 L410.825319,60.1803156 L410.825319,68.9030804 C410.825319,70.3343422 411.495861,71.0499624 412.836965,71.0499624 C413.513151,71.0499624 414.14425,70.9316315 414.730278,70.6949662 L414.730278,74.5830203 C413.806156,74.8985741 412.791891,75.0563486 411.687453,75.0563486 C409.782861,75.0563486 408.331898,74.5773902 407.334523,73.6194591 C406.337148,72.6615279 405.838467,71.2415571 405.838467,69.3595041 L405.838467,60.1803156 L403.52254,60.1803156 Z M427.088655,74.7182569 L427.088655,49.9699474 L435.642374,49.9699474 C438.685214,49.9699474 441.020841,50.6376718 442.649324,51.9731405 C444.277807,53.3086092 445.092036,55.2723387 445.092036,57.8643877 L445.092036,57.9996243 C445.092036,60.5465943 444.272172,62.47088 442.632419,63.7725394 C440.992667,65.0741988 438.719023,65.7250188 435.81142,65.7250188 L432.650263,65.7250188 L432.650263,74.7182569 L427.088655,74.7182569 Z M432.650263,61.8031555 L435.490233,61.8031555 C436.853876,61.8031555 437.893498,61.4819717 438.609129,60.8395943 C439.324759,60.1972169 439.68257,59.2618394 439.68257,58.0334335 L439.68257,57.8981968 C439.68257,56.6134421 439.327577,55.6808819 438.617581,55.1004884 C437.907585,54.5200948 436.865146,54.2299023 435.490233,54.2299023 L432.650263,54.2299023 L432.650263,61.8031555 Z M448.051465,74.7182569 L448.051465,56.6134485 L453.072126,56.6134485 L453.072126,60.0788881 C453.658155,58.8392124 454.418853,57.9094697 455.354245,57.2896319 C456.289637,56.669794 457.47858,56.354245 458.921112,56.3429752 L458.921112,61.0086401 L458.752066,61.0086401 C456.903823,61.0086401 455.500756,61.357998 454.542825,62.0567243 C453.562354,62.7779901 453.072126,63.9725687 453.072126,65.6404959 L453.072126,74.7182569 L448.051465,74.7182569 Z M460.849361,65.8602554 L460.849361,65.5728775 C460.849361,63.7133641 461.266337,62.0680011 462.100301,60.6367393 C462.934264,59.2054774 464.072495,58.1066905 465.515026,57.3403456 C466.957558,56.5740007 468.586017,56.190834 470.400451,56.190834 C473.161547,56.190834 475.438008,57.0416895 477.229902,58.743426 C479.021797,60.4451625 479.917731,62.6878148 479.917731,65.47145 L479.917731,65.7588279 C479.917731,67.6296112 479.500756,69.2777915 478.666792,70.7034185 C477.832828,72.1290454 476.694598,73.2193801 475.252066,73.9744553 C473.809535,74.7295304 472.181076,75.1070624 470.366642,75.1070624 C468.574747,75.1070624 466.960375,74.7323478 465.523479,73.9829076 C464.086582,73.2334673 462.948351,72.1515848 462.108753,70.7372276 C461.269154,69.3228705 460.849361,67.6972293 460.849361,65.8602554 Z M465.97145,65.7588279 C465.97145,67.5056436 466.357434,68.8636315 467.129414,69.8328325 C467.901394,70.8020334 468.991729,71.2866266 470.400451,71.2866266 C471.797903,71.2866266 472.885421,70.8020334 473.663035,69.8328325 C474.44065,68.8636315 474.829452,67.5169132 474.829452,65.7926371 L474.829452,65.5390684 C474.829452,63.8035225 474.44065,62.448352 473.663035,61.4735162 C472.885421,60.4986803 471.797903,60.0112697 470.400451,60.0112697 C469.014268,60.0112697 467.929568,60.4902281 467.146319,61.4481593 C466.363069,62.4060904 465.97145,63.7471739 465.97145,65.47145 L465.97145,65.7588279 Z"/>
  </g>
</svg>
