<svg height="360" viewBox="0 0 640 360" width="640" xmlns="http://www.w3.org/2000/svg"><g fill="none" fill-rule="evenodd" transform="translate(80 122)"><g fill="#2a76d2"><path d="m100.616 8.23h-92.386v92.386h-8.23v-100.616h100.616z"/><path d="m14.0646131 15.1465064v100.6160786h100.6160779v-100.6160786zm90.3612209 90.3419336h-34.5429913l-9.2338925-30.6622029c5.4977576-2.9686182 9.2338925-8.7817245 9.2338925-15.4675979 0-9.7023618-7.865603-17.5670392-17.5672936-17.5670392-.0053189 0-.0099729.0006649-.0152918.0006649l.0152918 63.6802181h-27.9954141v-80.2386585h49.4541547c16.9280936 0 30.6515443 13.722795 30.6515443 30.6515647 0 10.853441-5.6460221 20.3816084-14.1556121 25.8281751z"/></g><path d="m146.77686 74.7182569v-24.7483095h8.858001c3.009031 0 5.35311.6254633 7.032307 1.8764087s2.518782 3.1273354 2.518782 5.6292262v.1352366c0 1.7693552-.456419 3.1921434-1.369271 4.2684072-.912852 1.0762639-2.152509 1.8454147-3.719008 2.3074756l6.542074 10.5315552h-5.950414l-5.916604-9.5510894h-2.43426v9.5510894zm5.561607-13.3715251h3.161157c2.817445 0 4.226146-1.183309 4.226146-3.5499625v-.1521412c0-1.2171361-.349358-2.084896-1.048084-2.6033058s-1.75807-.7776108-3.178062-.7776108h-3.161157zm15.198347 4.5473328v-.2873779c0-2.8061748.881847-5.0770011 2.645568-6.812547 1.76372-1.7355458 3.981016-2.6033057 6.651953-2.6033057 1.205866 0 2.327193.1803137 3.364012.5409466 1.03682.3606329 1.96938.9015742 2.797709 1.62284.828328.7212658 1.481966 1.6848174 1.960931 2.8906837.478966 1.2058663.718445 2.5920282.718445 4.1585274v1.3861758h-13.050338c.067619 1.5101503.493046 2.6793723 1.276296 3.507701s1.85668 1.2424868 3.220323 1.2424868c2.175067 0 3.431629-.8452207 3.769722-2.5356874h4.750188c-.293014 1.9496716-1.188948 3.4541645-2.687829 4.5135237-1.49888 1.0593591-3.487966 1.5890308-5.967318 1.5890308-2.794905 0-5.068548-.8254989-6.820999-2.4765215-1.75245-1.6510225-2.628663-3.8964921-2.628663-6.7364763zm5.155898-2.1806912h8.097296c-.169047-2.7047468-1.487591-4.0570999-3.955673-4.0570999-1.126978 0-2.051086.3549927-2.772352 1.0649887-.721265.709996-1.177685 1.7073565-1.369271 2.9921112zm14.860256 5.3249437h4.682569c.112698.8565031.408525 1.4988708.887491 1.9271224.478965.4282516 1.242481.6423742 2.290571.6423742 1.893323 0 2.83997-.6592722 2.83997-1.9778362 0-.6085681-.276106-1.0678047-.828325-1.3777236s-1.498866-.5663025-2.83997-.7691585c-2.445542-.3719027-4.169792-.969192-5.172802-1.7918858s-1.504508-2.1074293-1.504508-3.8542449c0-.9128521.197218-1.7355335.59166-2.4680691.394443-.7325356.929749-1.3241901 1.605936-1.7749812.676186-.4507912 1.436885-.7973317 2.282118-1.0396319.845234-.2423002 1.741168-.3634485 2.687829-.3634485 4.57553 0 7.066114 1.8707551 7.471826 5.6123215h-4.598047c-.135237-.7550751-.428247-1.307286-.879038-1.6566491s-1.104429-.5240421-1.960932-.5240421c-.800154 0-1.428435.1718616-1.884861.5155898s-.684635.79733-.684635 1.3608189.247931.9804645.743801 1.2509392c.495871.2704747 1.414344.5071364 2.755447.7099925 1.217136.1803164 2.228584.3916216 3.034373.6339218.805789.2423003 1.527044.5747537 2.163787.9973704.636742.4226167 1.101614.9663754 1.394628 1.6312923s.439519 1.470694.439519 2.4173554c0 1.9384018-.664907 3.4175381-1.994741 4.437453s-3.206224 1.5298648-5.629226 1.5298648c-2.445542 0-4.352923-.5240369-5.722201-1.5721263-1.369278-1.0480893-2.093351-2.5469474-2.172239-4.496619zm16.888805-8.8580015v-3.5668671h2.315928v-3.9218632h4.986852v3.9218632h3.803531v3.5668671h-3.803531v8.7227648c0 1.4312618.670542 2.146882 2.011645 2.146882.676187 0 1.307285-.1183309 1.893314-.3549962v3.8880541c-.924122.3155538-1.938387.4733283-3.042825.4733283-1.904593 0-3.355555-.4789584-4.35293-1.4368895-.997376-.9579312-1.496056-2.377902-1.496056-4.259955v-9.1791885zm14.353118 14.5379413v-18.1048084h5.020661v3.4654396c.586029-1.2396757 1.346727-2.1694184 2.282119-2.7892562.935392-.6198379 2.124335-.9353869 3.566867-.9466567v4.6656649h-.169046c-1.848244 0-3.25131.3493579-4.209241 1.0480842-.980471.7212658-1.470699 1.9158444-1.470699 3.5837716v9.077761zm14.47145-21.3504883c-.540949-.5184098-.81142-1.1664123-.81142-1.9440271 0-.7776147.273288-1.4284346.819872-1.9524793.546585-.5240447 1.219944-.7860631 2.020098-.7860631.811424 0 1.493235.2620184 2.045455.7860631.552219.5240447.828324 1.1748646.828324 1.9524793 0 .7776148-.276105 1.4256173-.828324 1.9440271-.55222.5184098-1.234031.7776108-2.045455.7776108-.800154 0-1.476331-.259201-2.02855-.7776108zm-.439519 21.3504883v-18.1048084h4.986852v18.1048084zm8.233659-8.8241923v-.2873779c0-1.8933228.419793-3.5640423 1.259391-5.0122089.839599-1.4481665 1.963742-2.544136 3.372465-3.2879414 1.408722-.7438053 2.975198-1.1157024 4.699474-1.1157024.867773 0 1.687637.0760698 2.459617.2282118.771979.152142 1.512956.4057082 2.222952.7607063.709996.354998 1.329825.7973302 1.859504 1.3270097.52968.5296796.969195 1.1945866 1.318558 1.9947408.349363.8001543.56912 1.7073578.659279 2.7216379h-4.733284c-.326823-2.0510997-1.549576-3.0766341-3.668294-3.0766341-1.318564 0-2.369455.4733236-3.152705 1.419985-.78325.9466613-1.174868 2.2708404-1.174868 3.972577v.2873779c0 1.8031645.383166 3.1696046 1.149511 4.0993614.766345.9297567 1.859497 1.3946281 3.279489 1.3946281 1.04809 0 1.927119-.3014621 2.637115-.9043952.709996-.6029332 1.121337-1.4678757 1.234035-2.5948535h4.530428c-.135237 2.1976068-.966371 3.9613006-2.493426 5.2911345-1.527055 1.3298338-3.580941 1.9947408-6.16172 1.9947408-1.329834 0-2.558222-.2056704-3.6852-.6170173-1.126977-.4113469-2.107433-1.000184-2.941397-1.7665289-.833964-.766345-1.487601-1.7355314-1.960932-2.9075883-.47333-1.172057-.709992-2.4793317-.709992-3.9218633zm19.289256-5.713749v-3.5668671h2.315928v-3.9218632h4.986852v3.9218632h3.803531v3.5668671h-3.803531v8.7227648c0 1.4312618.670542 2.146882 2.011645 2.146882.676187 0 1.307285-.1183309 1.893314-.3549962v3.8880541c-.924122.3155538-1.938387.4733283-3.042825.4733283-1.904593 0-3.355555-.4789584-4.35293-1.4368895-.997376-.9579312-1.496056-2.377902-1.496056-4.259955v-9.1791885zm22.281367 2.3159278v-.2704733c0-1.8482437.312732-3.5612243.938205-5.1389932.625473-1.577769 1.481963-2.9132177 2.569496-4.0063862 1.087534-1.0931685 2.389174-1.9496588 3.904959-2.5694966s3.141426-.9297521 4.876972-.9297521c2.017291 0 3.803524.3211839 5.358753.9635612 1.55523.6423774 2.831513 1.64819 3.828888 3.0174681.997376 1.3692781 1.591847 3.0456325 1.783434 5.0291134h-5.747559c-.428251-3.0541099-2.158136-4.581142-5.189707-4.581142-1.960941 0-3.518964.7268899-4.674117 2.1806913-1.155152 1.4538014-1.732719 3.454157-1.732719 6.0011269v.2704734c0 2.5582396.56348 4.5473257 1.690458 5.9673178 1.126978 1.419992 2.710358 2.1299774 4.750188 2.1299774 1.577769 0 2.862504-.4000711 3.854245-1.2002254.99174-.8001542 1.600299-1.9778284 1.825695-3.5330578h5.510894c-.202856 1.9947508-.80578 3.6964618-1.808791 5.1051841-1.00301 1.4087222-2.29338 2.4567959-3.871149 3.1442524s-3.392176 1.0311796-5.443276 1.0311796c-3.978232 0-7.043566-1.1297784-9.196093-3.3893689-2.152528-2.2595906-3.228776-5.3333765-3.228776-9.2214501zm25.358002 3.364012v-.2873779c0-1.8595134.416976-3.5048764 1.250939-4.9361382.833964-1.4312619 1.972194-2.5300488 3.414726-3.2963937s3.07099-1.1495116 4.885424-1.1495116c2.761096 0 5.037557.8508555 6.829452 2.552592s2.687829 3.9443888 2.687829 6.728024v.2873779c0 1.8707833-.416976 3.5189636-1.25094 4.9445906-.833963 1.4256269-1.972194 2.5159616-3.414725 3.2710368-1.442532.7550751-3.07099 1.1326071-4.885425 1.1326071-1.791895 0-3.406266-.3747146-4.843163-1.1241548-1.436897-.7494403-2.575127-1.8313228-3.414726-3.24568-.839598-1.4143571-1.259391-3.0399983-1.259391-4.8769722zm5.122089-.1014275c0 1.7468157.385984 3.1048036 1.157964 4.0740046.771979.9692009 1.862314 1.4537941 3.271036 1.4537941 1.397453 0 2.48497-.4845932 3.262585-1.4537941.777615-.969201 1.166416-2.3159193 1.166416-4.0401954v-.2535687c0-1.7355459-.388801-3.0907164-1.166416-4.0655522-.777615-.9748359-1.865132-1.4622465-3.262585-1.4622465-1.386182 0-2.470882.4789584-3.254132 1.4368896-.783249.9579311-1.174868 2.2990146-1.174868 4.0232907zm17.040946 8.959429v-18.1048084h5.020661v2.8737791c.484601-.9692009 1.231213-1.7608909 2.239858-2.3750939 1.008645-.6142029 2.222945-.9212997 3.642937-.9212997 1.870784 0 3.355555.5832022 4.454358 1.7496243s1.648197 2.9160289 1.648197 5.248873v11.5289256h-5.020661v-10.8020285c0-1.2396756-.256384-2.1553314-.769159-2.7469947-.512775-.5916634-1.321369-.8874906-2.425808-.8874906-1.115708 0-2.022911.343723-2.721637 1.0311795-.698727.6874565-1.048085 1.6735473-1.048085 2.958302v10.4470323zm19.475207-14.5379413v-3.5668671h2.315928v-3.9218632h4.986852v3.9218632h3.803531v3.5668671h-3.803531v8.7227648c0 1.4312618.670542 2.146882 2.011645 2.146882.676187 0 1.307285-.1183309 1.893313-.3549962v3.8880541c-.924121.3155538-1.938386.4733283-3.042824.4733283-1.904593 0-3.355555-.4789584-4.352931-1.4368895-.997375-.9579312-1.496055-2.377902-1.496055-4.259955v-9.1791885zm13.25432 5.713749v-.2873779c0-2.8061748.881847-5.0770011 2.645567-6.812547 1.763721-1.7355458 3.981016-2.6033057 6.651954-2.6033057 1.205866 0 2.327192.1803137 3.364012.5409466 1.036819.3606329 1.969379.9015742 2.797708 1.62284s1.481966 1.6848174 1.960932 2.8906837c.478965 1.2058663.718445 2.5920282.718445 4.1585274v1.3861758h-13.050339c.067619 1.5101503.493047 2.6793723 1.276296 3.507701.78325.8283287 1.85668 1.2424868 3.220324 1.2424868 2.175067 0 3.431628-.8452207 3.769722-2.5356874h4.750187c-.293014 1.9496716-1.188948 3.4541645-2.687828 4.5135237-1.498881 1.0593591-3.487967 1.5890308-5.967318 1.5890308-2.794905 0-5.068549-.8254989-6.820999-2.4765215-1.752451-1.6510225-2.628663-3.8964921-2.628663-6.7364763zm5.155898-2.1806912h8.097295c-.169047-2.7047468-1.487591-4.0570999-3.955672-4.0570999-1.126978 0-2.051086.3549927-2.772352 1.0649887s-1.177685 1.7073565-1.369271 2.9921112zm16.009767 11.0048835v-18.1048084h5.020661v2.8737791c.484601-.9692009 1.231212-1.7608909 2.239857-2.3750939 1.008645-.6142029 2.222946-.9212997 3.642938-.9212997 1.870783 0 3.355554.5832022 4.454358 1.7496243 1.098803 1.1664221 1.648196 2.9160289 1.648196 5.248873v11.5289256h-5.020661v-10.8020285c0-1.2396756-.256383-2.1553314-.769158-2.7469947-.512775-.5916634-1.32137-.8874906-2.425808-.8874906-1.115708 0-2.022912.343723-2.721638 1.0311795s-1.048084 1.6735473-1.048084 2.958302v10.4470323zm19.475207-14.5379413v-3.5668671h2.315927v-3.9218632h4.986852v3.9218632h3.803532v3.5668671h-3.803532v8.7227648c0 1.4312618.670542 2.146882 2.011646 2.146882.676186 0 1.307285-.1183309 1.893313-.3549962v3.8880541c-.924122.3155538-1.938387.4733283-3.042825.4733283-1.904592 0-3.355555-.4789584-4.35293-1.4368895-.997375-.9579312-1.496056-2.377902-1.496056-4.259955v-9.1791885zm23.566115 14.5379413v-24.7483095h8.553719c3.04284 0 5.378467.6677244 7.00695 2.0031931s2.442712 3.2991982 2.442712 5.8912472v.1352366c0 2.54697-.819864 4.4712557-2.459617 5.7729151-1.639752 1.3016594-3.913396 1.9524794-6.820999 1.9524794h-3.161157v8.9932381zm5.561608-12.9151014h2.83997c1.363643 0 2.403265-.3211838 3.118896-.9635612.71563-.6423774 1.073441-1.5777549 1.073441-2.8061608v-.1352367c0-1.2847547-.354993-2.2173149-1.064989-2.7977084-.709996-.5803936-1.752435-.8705861-3.127348-.8705861h-2.83997zm15.401202 12.9151014v-18.1048084h5.020661v3.4654396c.586029-1.2396757 1.346727-2.1694184 2.282119-2.7892562.935392-.6198379 2.124335-.9353869 3.566867-.9466567v4.6656649h-.169046c-1.848243 0-3.25131.3493579-4.209241 1.0480842-.980471.7212658-1.470699 1.9158444-1.470699 3.5837716v9.077761zm12.797896-8.8580015v-.2873779c0-1.8595134.416976-3.5048764 1.25094-4.9361382.833963-1.4312619 1.972194-2.5300488 3.414725-3.2963937 1.442532-.7663449 3.070991-1.1495116 4.885425-1.1495116 2.761096 0 5.037557.8508555 6.829451 2.552592 1.791895 1.7017365 2.687829 3.9443888 2.687829 6.728024v.2873779c0 1.8707833-.416975 3.5189636-1.250939 4.9445906-.833964 1.4256269-1.972194 2.5159616-3.414726 3.2710368-1.442531.7550751-3.07099 1.1326071-4.885424 1.1326071-1.791895 0-3.406267-.3747146-4.843163-1.1241548-1.436897-.7494403-2.575128-1.8313228-3.414726-3.24568-.839599-1.4143571-1.259392-3.0399983-1.259392-4.8769722zm5.122089-.1014275c0 1.7468157.385984 3.1048036 1.157964 4.0740046.77198.9692009 1.862315 1.4537941 3.271037 1.4537941 1.397452 0 2.48497-.4845932 3.262584-1.4537941.777615-.969201 1.166417-2.3159193 1.166417-4.0401954v-.2535687c0-1.7355459-.388802-3.0907164-1.166417-4.0655522-.777614-.9748359-1.865132-1.4622465-3.262584-1.4622465-1.386183 0-2.470883.4789584-3.254132 1.4368896-.78325.9579311-1.174869 2.2990146-1.174869 4.0232907z" fill="#222"/></g></svg>