<svg xmlns="http://www.w3.org/2000/svg" xml:space="preserve" width="512" height="512" viewBox="0 0 512 512"><title>Triodos Bank logo</title><path fill="#00937b" d="M512 267.833c0-68.36-25.112-132.534-71.15-182.757-23.716-25.112-50.223-46.038-80.915-61.384l-6.976 11.16c16.741 9.766 32.087 22.322 46.038 36.273 47.434 48.828 73.94 113.003 75.335 181.362 0 9.766 0 26.507-1.395 40.458-8.37-29.297-23.716-55.804-44.643-78.125-6.975-8.37-13.95-15.346-23.716-19.532-1.395 20.927-5.58 41.853-11.161 62.78 8.37 5.58 15.346 12.556 22.321 19.531 18.137 16.741 29.297 40.458 30.693 65.57 0 12.555-5.58 25.111-15.347 33.482-13.95 11.16-30.692 16.74-48.828 16.74-26.507-1.394-53.013-9.765-75.335-25.11 34.877-34.878 59.99-78.126 71.15-125.56 5.58-20.926 8.37-41.852 8.37-64.174 0-36.272-8.37-72.545-26.506-104.632C336.218 29.272 290.18 1.37 239.956 1.37c-62.779 1.395-122.768 29.297-164.62 75.335C27.901 122.743 0 186.918 0 253.882c0 11.161 0 22.322 1.395 33.483h12.556c0-66.965 26.507-129.744 75.335-175.782 25.112-23.717 53.014-44.643 85.1-58.594-22.32 20.926-37.667 48.828-46.037 78.125q-4.186 14.649-4.186 29.297c19.532-9.766 39.063-16.741 59.99-20.926 2.79-29.297 15.346-55.804 34.877-78.126 9.766-9.765 22.321-16.74 36.272-16.74 22.322 1.394 41.853 15.345 51.619 34.876 12.556 23.717 18.136 51.619 15.346 78.126-47.433-15.346-97.657-15.346-145.09 0-40.458 9.765-76.73 30.692-106.027 59.989-30.692 29.297-48.828 68.36-51.619 110.212 1.395 41.853 19.532 80.916 50.224 108.818 50.223 47.433 115.793 75.335 185.547 73.94 54.41 0 106.028-16.741 150.67-47.433l-2.79-8.37c-34.877 19.53-73.94 29.296-114.397 29.296-61.384 1.395-119.978-18.136-168.807-54.409 12.556 4.186 26.507 6.976 40.458 6.976 26.507 0 53.014-5.58 76.73-16.741-18.136-12.556-34.877-26.507-48.828-41.853-18.136 6.975-39.063 12.556-58.594 12.556-19.531 1.395-37.668-5.58-51.619-18.137-8.37-8.37-12.556-19.53-12.556-32.087 1.396-23.716 12.556-47.433 30.693-62.779 11.16-12.556 25.111-22.322 40.457-29.297 12.556 47.433 37.668 92.076 72.545 126.954 40.458 41.853 96.262 66.964 154.856 69.754 37.667 1.396 73.94-12.555 100.447-37.667C495.259 368.28 512 318.057 512 267.833M318.082 225.98c-12.556 39.063-34.878 73.94-64.175 103.238-27.902-30.693-46.038-66.965-55.803-107.423 16.74-4.185 33.482-5.58 50.223-5.58 23.717 0 47.433 4.185 69.755 9.765" style="stroke-width:13.951"/></svg>