<svg xmlns="http://www.w3.org/2000/svg" width="40" height="40" fill="none" viewBox="0 0 40 40"><path fill="url(#a)" d="M0 0h40v40H0z"/><rect width="40" height="40" fill="url(#b)" rx="4.5"/><mask id="c" width="40" height="40" x="0" y="0" maskUnits="userSpaceOnUse" style="mask-type:alpha"><rect width="40" height="40" fill="#fff" rx="4.5"/></mask><g mask="url(#c)"><path fill="#fff" fill-rule="evenodd" d="M23.419 18.165c-.687 2.112-1.915 4.026-3.486 5.647-1.522-1.67-2.504-3.683-3.045-5.893.933-.245 1.817-.295 2.75-.295 1.228 0 2.553.246 3.78.54m10.558 2.308c0-3.732-1.375-7.268-3.88-9.969a15.5 15.5 0 0 0-4.419-3.339l-.393.59c.933.54 1.768 1.227 2.504 1.964 2.603 2.651 4.027 6.187 4.126 9.919 0 .54 0 1.473-.099 2.21-.442-1.621-1.277-3.045-2.455-4.272-.393-.443-.786-.835-1.277-1.08a21 21 0 0 1-.589 3.437c.442.294.834.687 1.228 1.08.982.933 1.62 2.21 1.669 3.585 0 .687-.294 1.374-.835 1.817-.786.588-1.669.932-2.651.932-1.473-.098-2.898-.54-4.125-1.375 1.915-1.915 3.29-4.272 3.88-6.875.293-1.128.44-2.307.44-3.485 0-1.965-.44-3.979-1.472-5.697a7.42 7.42 0 0 0-6.58-3.977c-3.437.098-6.728 1.62-8.986 4.124-2.603 2.505-4.126 6.04-4.126 9.674 0 .59 0 1.227.1 1.817h.686c0-3.683 1.473-7.071 4.125-9.624 1.375-1.278 2.898-2.456 4.665-3.192-1.228 1.13-2.062 2.651-2.504 4.272-.148.54-.245 1.08-.245 1.62 1.08-.54 2.111-.933 3.29-1.13.147-1.62.834-3.043 1.914-4.271.54-.54 1.228-.934 1.965-.934 1.227.1 2.308.836 2.799 1.916a7.53 7.53 0 0 1 .835 4.272 12.96 12.96 0 0 0-7.955 0c-2.21.54-4.174 1.67-5.795 3.29-1.67 1.62-2.652 3.732-2.799 6.04.099 2.308 1.08 4.42 2.75 5.942 2.75 2.602 6.335 4.124 10.165 4.027 2.995 0 5.794-.934 8.25-2.604l-.148-.441a12.57 12.57 0 0 1-6.236 1.62c-3.34.099-6.58-.982-9.232-2.995a6.8 6.8 0 0 0 2.21.393c1.473 0 2.897-.295 4.173-.934-.982-.687-1.915-1.473-2.651-2.308-.982.394-2.112.688-3.192.688-1.08.099-2.062-.294-2.799-.982-.442-.442-.688-1.08-.688-1.767.1-1.278.688-2.604 1.67-3.438.59-.688 1.375-1.228 2.21-1.62a15.37 15.37 0 0 0 3.977 6.924 12.52 12.52 0 0 0 8.447 3.83c2.062.098 4.026-.688 5.5-2.063 1.669-2.112 2.553-4.861 2.553-7.611" clip-rule="evenodd"/></g><defs><linearGradient id="a" x1="20" x2="20" y1="0" y2="40" gradientUnits="userSpaceOnUse"><stop stop-color="#01957c"/><stop offset="1" stop-color="#01046e"/></linearGradient><linearGradient id="b" x1="2.18" x2="2.18" y1="4.36" y2="40" gradientUnits="userSpaceOnUse"><stop stop-color="#00947b"/><stop offset=".717" stop-color="#004774"/><stop offset="1" stop-color="#00006d"/></linearGradient></defs></svg>