<svg xmlns="http://www.w3.org/2000/svg" id="svg166" width="512" height="512" version="1.1"><defs id="defs134"><style id="style132">.cls-4{fill:#111;fill-rule:evenodd}</style></defs><g id="Layer_2" data-name="Layer 2"><g id="Layer_1-2" data-name="Layer 1"><g id="g2120" transform="matrix(2.83041 0 0 2.83041 64.003 91.294)"><g id="g4827" transform="matrix(3.21818 0 0 3.21818 -195.53 -32.192)"><path id="path146" d="M62.17 29a1.19 1.19 0 0 1 0-.32H62C64 42.3 71.19 49.06 78.27 49c12.83-.22 11.89-18 19.33-18.78a3.31 3.31 0 0 1 3.52 3.16 3.39 3.39 0 0 1-3 3.69 3.15 3.15 0 0 1-2.23-.68c1.28 1.85 3.34 1.63 4.75.49 2.53-2 1.94-6.34-.77-7.82a4.86 4.86 0 0 0-4.62.1 9.06 9.06 0 0 0-3.06 2.9c-3.85 5.69-5.54 15.33-14.11 15.29C69.2 47.3 64.27 36.49 62.17 29" class="cls-4"/><path id="path148" d="M66.92 25.08c-3.06.91-5 2.2-5 3.63 0 2.76 7.11 5 15.88 5s15.89-2.23 15.89-5c0-1.43-1.92-2.72-5-3.63l.5.21c2.17.76 3.48 1.73 3.48 2.8 0 1.84-3.93 3.42-9.47 4a40 40 0 0 1-5.42.36 38.14 38.14 0 0 1-7-.61c-4.54-.74-7.61-2.16-7.61-3.79 0-.85.83-1.64 2.26-2.31a10.19 10.19 0 0 1 1.44-.7z" class="cls-4"/><path id="path150" d="M66.56 44.9c-3.17 1.19-5.14 2.88-5.14 4.75 0 3.61 7.34 6.54 16.4 6.54 9.06 0 16.41-2.93 16.41-6.54 0-1.87-2-3.56-5.14-4.75l.52.28c2.24 1 3.59 2.27 3.59 3.66 0 2.41-4.06 4.47-9.78 5.29a32.8 32.8 0 0 1-5.6.46 31.93 31.93 0 0 1-7.22-.79c-4.69-1-7.87-2.83-7.87-5 0-1.11.86-2.14 2.34-3a10.89 10.89 0 0 1 1.49-.92z" class="cls-4"/><path id="path152" d="M71.1 46c-1.89.56-3.07 1.36-3.07 2.24 0 1.7 4.38 3.08 9.79 3.08 5.41 0 9.8-1.38 9.8-3.08 0-.88-1.18-1.68-3.07-2.24l.31.13c1.34.47 2.15 1.07 2.15 1.73 0 1.13-2.43 2.11-5.85 2.49a24.75 24.75 0 0 1-3.34.22 24.47 24.47 0 0 1-4.31-.37c-2.8-.46-4.7-1.34-4.7-2.34 0-.53.51-1 1.4-1.43a5.69 5.69 0 0 1 .89-.43" class="cls-4"/><path id="path154" d="M69.3 24.87c5.29 6 12.13 4.14 14.86-.9 2.43-4.49 1-8-1.38-11.47-1.84-2.76-4.23-5.28-3.67-8.78a4.39 4.39 0 0 1 6.78-3c5.11 3.47-.07 9.2-3.09 6C85.28 8 86.75 6 86.44 4.3c-.42-2.34-4.18-3-5.12-.7a4.22 4.22 0 0 0 .41 3.63c2.63 4.32 6.47 6.61 6.12 12.4C87.25 29.28 75 34 69.3 24.87" class="cls-4"/><path id="path156" d="M69.92 25.52c3.21 3.63 7.35 2.51 9-.55 1.47-2.72.58-4.83-.84-6.95-1.12-1.67-2.56-3.2-2.23-5.32a2.66 2.66 0 0 1 3-2.23 2.73 2.73 0 0 1 1.15.43c3.09 2.1 0 5.57-1.88 3.64a1.42 1.42 0 0 0 2.21-1.49 1.69 1.69 0 0 0-3.11-.42 2.56 2.56 0 0 0 .26 2.2c1.59 2.62 3.92 4 3.7 7.51-.36 5.85-7.81 8.7-11.24 3.18z" class="cls-4"/><path id="path158" d="M85.34 20.51c.38-2.92-.86-5.46-2.56-8-1.84-2.76-4.23-5.28-3.67-8.78a4.39 4.39 0 0 1 6.78-3c5.11 3.47-.07 9.2-3.09 6C85.28 8 86.75 6 86.44 4.3c-.42-2.34-4.18-3-5.12-.7a4.22 4.22 0 0 0 .41 3.63c2.4 3.94 5.81 6.2 6.11 11a14 14 0 0 1-2.5 2.33zm-5.67 2.13A7.35 7.35 0 0 0 78.09 18c-1.12-1.67-2.56-3.2-2.22-5.32a2.64 2.64 0 0 1 2.95-2.23 2.73 2.73 0 0 1 1.18.45c3.09 2.1 0 5.57-1.88 3.64a1.42 1.42 0 0 0 2.21-1.49 1.69 1.69 0 0 0-3.11-.42 2.56 2.56 0 0 0 .26 2.2c1.59 2.62 3.92 4 3.7 7.51v.08a10.35 10.35 0 0 1-1.48.22z" class="cls-4"/></g></g></g></g></svg>