<svg xmlns="http://www.w3.org/2000/svg" width="640" height="360"><g fill="#020202" fill-rule="nonzero"><path d="M122.977 210.882l-1.207 5.913c-4.256 1.988-8.436 3.511-12.54 4.571-4.106 1.06-7.834 1.59-11.185 1.59-3.686 0-6.886-.521-9.6-1.565-2.715-1.043-4.8-2.559-6.258-4.546-1.458-1.988-2.187-4.323-2.187-7.006 0-4.473 2.044-8.92 6.132-13.342 4.089-4.422 9.92-8.505 17.493-12.249-3.62-.596-5.429-2.45-5.429-5.565 0-4.439 3.887-9.424 11.661-14.956a63.054 63.054 0 017.364-4.547c2.497-1.308 4.842-2.31 7.037-3.006 2.195-.696 4.13-1.044 5.806-1.044 1.743 0 3.108.472 4.097 1.417.988.944 1.482 2.227 1.482 3.85 0 1.491-.377 3.197-1.13 5.119-.754 1.92-1.852 3.925-3.293 6.012a36.082 36.082 0 01-4.825 5.665l-2.664-2.882c5.227-5.698 7.841-10.236 7.841-13.615 0-2.286-1.374-3.429-4.122-3.429-1.742 0-3.887.514-6.434 1.54-2.546 1.027-5.076 2.402-7.59 4.125-3.35 2.252-6.006 4.654-7.967 7.205-1.96 2.55-2.94 4.82-2.94 6.807 0 .96.31 1.872.93 2.733.62.861 1.382 1.474 2.287 1.839.938.33 2.563.546 4.875.645h.855l-.653 3.18c-5.06 2.154-10.137 5.085-15.23 8.796-8.445 6.161-12.668 11.958-12.668 17.39 0 2.717 1.064 4.928 3.192 6.634 2.128 1.707 4.85 2.56 8.168 2.56 2.312 0 4.868-.348 7.666-1.044 2.798-.696 5.906-1.756 9.324-3.18 3.418-1.425 7.322-3.296 11.712-5.615zm5.113-16.199l4.524-2.037v1.292c.1 4.836.386 9.921.855 15.255.268 2.782.502 4.844.703 6.186.201 1.342.436 2.244.704 2.708.268.464.637.696 1.106.696 1.24 0 3.451-2.336 6.635-7.007 2.848-4.107 4.272-7.9 4.272-11.378 0-1.226-.15-2.245-.452-3.056-.302-.812-.871-1.632-1.709-2.46l3.77-3.478c1.173 1.524 1.76 3.379 1.76 5.565 0 4.406-2.648 10.22-7.943 17.44-1.608 2.187-3.317 4.142-5.127 5.864-.837.762-1.516 1.3-2.035 1.615-.52.315-1.03.472-1.534.472-.804 0-1.39-.314-1.759-.944-.368-.63-.653-1.822-.854-3.577l-2.916-23.156zm42.059 19.33l.905.745c-2.078 2.716-4.105 4.679-6.083 5.888-1.977 1.21-4.105 1.814-6.383 1.814-2.715 0-4.893-.895-6.535-2.684-1.642-1.788-2.463-4.157-2.463-7.105 0-2.982.796-6.004 2.388-9.069 1.592-3.064 3.586-5.598 5.981-7.602 2.396-2.004 4.767-3.006 7.113-3.006 1.374 0 2.505.397 3.393 1.192.888.795 1.332 1.822 1.332 3.081 0 2.55-1.407 5.102-4.222 7.652-2.815 2.551-6.652 4.72-11.511 6.51-.034.265-.05.563-.05.894 0 2.286.636 4.149 1.91 5.59 1.273 1.441 2.915 2.162 4.926 2.162 1.575 0 3.1-.49 4.574-1.466 1.474-.978 3.05-2.51 4.725-4.597zm-16.085-3.777c3.619-1.59 6.4-3.362 8.344-5.317 1.307-1.325 2.362-2.75 3.167-4.273.804-1.524 1.206-2.899 1.206-4.124 0-1.557-.72-2.336-2.161-2.336-2.179 0-4.382 1.698-6.61 5.094-2.229 3.395-3.544 7.047-3.946 10.956zm17.53 11.975l5.327-27.528 4.775-2.037-4.322 18.236c2.78-5.797 5.545-10.203 8.293-13.217 2.748-3.015 5.379-4.522 7.892-4.522 1.24 0 2.245.406 3.016 1.217.77.812 1.156 1.897 1.156 3.255 0 .762-.184 1.838-.553 3.23l-.503 2.087-1.508 6.062-.502 1.938c-.503 1.987-.754 3.511-.754 4.571 0 1.06.184 1.913.553 2.56.368.645.854.968 1.457.968 1.04 0 2.698-1.226 4.977-3.677l.804.696-.503.546c-1.91 2.22-3.317 3.719-4.222 4.497-.905.779-1.743 1.168-2.513 1.168-1.04 0-1.919-.522-2.64-1.565-.72-1.044-1.08-2.344-1.08-3.901 0-1.06.201-2.633.603-4.72l1.96-10.535c.269-1.656.403-2.815.403-3.478 0-.696-.185-1.226-.553-1.59-.369-.364-.871-.547-1.508-.547-2.312 0-5.16 2.452-8.545 7.355-1.642 2.351-3 4.679-4.072 6.98-1.072 2.303-2.278 5.492-3.619 9.566l-.452 1.342-3.368 1.043zm39.042-27.03l-3.82 16.546c-.403 1.822-.604 3.114-.604 3.875 0 1.193.285 2.154.855 2.882.57.73 1.323 1.094 2.262 1.094.905 0 1.734-.257 2.488-.77.754-.514 1.902-1.582 3.443-3.206l.603-.596.754.746c-1.977 2.385-3.627 4.066-4.95 5.043-1.325.977-2.623 1.466-3.896 1.466-1.609 0-2.89-.522-3.846-1.565-.955-1.044-1.432-2.41-1.432-4.1 0-1.259.251-3.08.754-5.466l3.267-15.95h-4.826l.352-1.69h4.826l2.815-13.415 4.825-1.889-3.519 15.305h8.143l-.351 1.69h-8.143zm195.585 16.118l-1.2 5.958c-4.233 2.002-8.39 3.537-12.473 4.605-4.083 1.068-7.79 1.602-11.123 1.602-3.666 0-6.849-.525-9.548-1.577-2.7-1.051-4.774-2.578-6.224-4.58-1.45-2.003-2.175-4.356-2.175-7.059 0-4.506 2.033-8.986 6.1-13.442 4.065-4.455 9.864-8.568 17.396-12.34-3.6-.6-5.399-2.47-5.399-5.606 0-4.473 3.866-9.495 11.598-15.069a62.578 62.578 0 017.324-4.58c2.483-1.319 4.815-2.328 6.998-3.03 2.183-.7 4.108-1.05 5.774-1.05 1.733 0 3.092.475 4.075 1.426.983.951 1.474 2.245 1.474 3.88 0 1.502-.375 3.22-1.124 5.156-.75 1.936-1.842 3.955-3.275 6.058a36.233 36.233 0 01-4.799 5.707l-2.65-2.904c5.2-5.74 7.8-10.313 7.8-13.717 0-2.303-1.367-3.454-4.1-3.454-1.733 0-3.866.517-6.399 1.552-2.533 1.035-5.05 2.42-7.549 4.155-3.332 2.27-5.974 4.69-7.923 7.259-1.95 2.57-2.925 4.856-2.925 6.858 0 .968.309 1.886.925 2.754.617.867 1.375 1.485 2.275 1.852.933.334 2.55.55 4.849.65h.85l-.65 3.205c-5.033 2.17-10.082 5.123-15.147 8.86-8.399 6.208-12.598 12.049-12.598 17.522 0 2.737 1.058 4.964 3.174 6.683 2.116 1.719 4.824 2.578 8.124 2.578 2.3 0 4.84-.35 7.623-1.05 2.783-.702 5.874-1.77 9.274-3.205 3.4-1.435 7.282-3.32 11.648-5.657zm.986 7.71l2.8-3.304c1.466 3.47 3.799 5.206 6.998 5.206 1.667 0 3.092-.542 4.275-1.627 1.183-1.085 1.774-2.345 1.774-3.78 0-1.034-.283-1.919-.85-2.653-.566-.734-1.916-1.969-4.049-3.704-1.966-1.602-3.29-2.862-3.974-3.78-.683-.918-1.025-1.977-1.025-3.179 0-1.569.458-3.02 1.375-4.355.916-1.335 2.141-2.412 3.674-3.23a10.16 10.16 0 014.85-1.226c1.5 0 2.757.376 3.774 1.127 1.016.75 1.524 1.71 1.524 2.878 0 1.535-.65 2.587-1.95 3.154-.2-1.569-.79-2.795-1.774-3.68-.983-.884-2.241-1.326-3.774-1.326-1.367 0-2.558.442-3.575 1.327-1.016.884-1.524 1.894-1.524 3.028 0 1.402.866 2.787 2.6 4.155l2.899 2.353c2.833 2.236 4.249 4.522 4.249 6.859 0 1.735-.492 3.362-1.475 4.88-.983 1.52-2.316 2.729-4 3.63-1.682.901-3.457 1.352-5.323 1.352-2.966 0-5.466-1.369-7.499-4.105zm17.684 23.078l9.448-47.108 4.8-2.052-3.3 14.367c2.466-4.972 4.79-8.552 6.973-10.738s4.575-3.279 7.174-3.279c2 0 3.583.734 4.75 2.203 1.166 1.468 1.75 3.487 1.75 6.057 0 2.603-.526 5.273-1.576 8.01a25.603 25.603 0 01-4.424 7.46c-3.433 4.138-7.215 6.207-11.348 6.207-2.6 0-4.732-.684-6.399-2.053l-5.149 20.926h-2.7zm8.598-24.23c1.4 2.737 3.366 4.105 5.9 4.105 3.665 0 6.865-2.987 9.597-8.96 2.233-4.807 3.35-8.845 3.35-12.116 0-1.768-.333-3.137-1-4.105-.667-.967-1.616-1.451-2.85-1.451-2 0-4.099 1.318-6.298 3.955-2.1 2.603-3.883 5.506-5.35 8.71a45.686 45.686 0 00-1.574 4.055 105.013 105.013 0 00-1.375 4.406l-.4 1.401zm23.733-9.862c2.866-3.47 4.782-6.708 5.749-9.712-2.7-1.502-4.05-3.654-4.05-6.458 0-1.335.317-2.42.95-3.254.633-.834 1.433-1.251 2.4-1.251 1 0 1.816.459 2.45 1.377.632.917.95 2.11.95 3.579 0 1.035-.184 2.186-.55 3.454.899.234 1.716.35 2.449.35 2.066 0 3.766-.6 5.099-1.802h2.4l-.35.701c-2.4 4.406-4.375 8.736-5.924 12.991-1.55 4.255-2.325 7.434-2.325 9.537 0 .767.2 1.41.6 1.927.4.518.883.776 1.45.776 1.366 0 3.566-1.452 6.598-4.355l.8.9c-.933 1.036-2.383 2.32-4.349 3.856-1.766 1.401-3.416 2.102-4.95 2.102-1.299 0-2.324-.434-3.074-1.301-.75-.868-1.124-2.053-1.124-3.555 0-2.503.966-5.673 2.9-9.511.699-1.435 1.599-3.07 2.699-4.906 1.1-1.836 2.483-4.022 4.149-6.558l.5-.701c-1.1 1.001-2.158 1.71-3.175 2.127-1.016.418-2.174.626-3.474.626-.6 0-1.233-.083-1.9-.25-1.066 3.27-3.066 6.641-5.999 10.112l-.9-.8zm6.848-12.715c.134-.835.2-1.536.2-2.103 0-1.168-.191-2.086-.575-2.753-.383-.668-.874-1.002-1.474-1.002-.334 0-.625.159-.875.476-.25.317-.375.71-.375 1.176 0 1.57 1.033 2.97 3.1 4.206zm32.331 19.173l.9.751c-2.066 2.737-4.082 4.714-6.049 5.932-1.966 1.218-4.082 1.828-6.349 1.828-2.7 0-4.865-.902-6.498-2.704-1.634-1.802-2.45-4.188-2.45-7.159 0-3.003.791-6.049 2.375-9.136 1.583-3.087 3.566-5.64 5.948-7.66 2.383-2.018 4.741-3.028 7.074-3.028 1.367 0 2.491.4 3.375 1.202.883.8 1.324 1.835 1.324 3.103 0 2.57-1.4 5.14-4.199 7.71-2.8 2.57-6.615 4.756-11.448 6.558-.033.267-.05.567-.05.901 0 2.303.633 4.18 1.9 5.632 1.266 1.452 2.9 2.178 4.899 2.178 1.566 0 3.083-.493 4.55-1.477 1.466-.985 3.032-2.528 4.698-4.63zm-15.997-3.805c3.6-1.602 6.366-3.387 8.299-5.356 1.3-1.335 2.35-2.77 3.15-4.305.799-1.536 1.199-2.92 1.199-4.155 0-1.57-.717-2.353-2.15-2.353-2.166 0-4.357 1.71-6.574 5.13-2.216 3.422-3.524 7.101-3.924 11.04zm14.184 8.36l2.8-3.303c1.466 3.47 3.8 5.206 6.999 5.206 1.666 0 3.09-.542 4.274-1.627 1.183-1.085 1.774-2.345 1.774-3.78 0-1.034-.283-1.919-.85-2.653-.566-.734-1.916-1.969-4.049-3.704-1.966-1.602-3.29-2.862-3.974-3.78-.683-.918-1.025-1.977-1.025-3.179 0-1.569.458-3.02 1.375-4.355.916-1.335 2.141-2.412 3.674-3.23a10.16 10.16 0 014.85-1.226c1.5 0 2.757.376 3.774 1.127 1.016.75 1.525 1.71 1.525 2.878 0 1.535-.65 2.587-1.95 3.154-.2-1.569-.792-2.795-1.775-3.68-.983-.884-2.241-1.326-3.774-1.326-1.367 0-2.558.442-3.574 1.327-1.017.884-1.525 1.894-1.525 3.028 0 1.402.866 2.787 2.6 4.155l2.899 2.353c2.833 2.236 4.249 4.522 4.249 6.859 0 1.735-.492 3.362-1.475 4.88-.983 1.52-2.316 2.729-3.999 3.63-1.683.901-3.458 1.352-5.324 1.352-2.966 0-5.466-1.369-7.499-4.105zm18.384 0l2.8-3.303c1.466 3.47 3.799 5.206 6.998 5.206 1.666 0 3.091-.542 4.274-1.627 1.183-1.085 1.775-2.345 1.775-3.78 0-1.034-.283-1.919-.85-2.653s-1.916-1.969-4.05-3.704c-1.966-1.602-3.29-2.862-3.974-3.78-.683-.918-1.024-1.977-1.024-3.179 0-1.569.458-3.02 1.374-4.355.917-1.335 2.142-2.412 3.675-3.23a10.16 10.16 0 014.849-1.226c1.5 0 2.758.376 3.774 1.127 1.017.75 1.525 1.71 1.525 2.878 0 1.535-.65 2.587-1.95 3.154-.2-1.569-.791-2.795-1.774-3.68-.984-.884-2.242-1.326-3.775-1.326-1.366 0-2.558.442-3.574 1.327-1.017.884-1.525 1.894-1.525 3.028 0 1.402.867 2.787 2.6 4.155l2.9 2.353c2.832 2.236 4.248 4.522 4.248 6.859 0 1.735-.491 3.362-1.474 4.88-.983 1.52-2.317 2.729-4 3.63-1.683.901-3.457 1.352-5.324 1.352-2.966 0-5.465-1.369-7.498-4.105zm21.133-6.407c0-3.004.808-6 2.424-8.986 1.617-2.987 3.708-5.415 6.274-7.284 2.566-1.87 5.182-2.804 7.849-2.804 2.8 0 5.057.927 6.773 2.779 1.717 1.852 2.575 4.247 2.575 7.184 0 3.204-.792 6.307-2.375 9.311-1.583 3.004-3.666 5.465-6.248 7.384-2.583 1.92-5.191 2.879-7.824 2.879-2.833 0-5.116-.96-6.849-2.879-1.733-1.919-2.6-4.447-2.6-7.584zm21.396-11.014c0-2.002-.492-3.654-1.475-4.956-.983-1.301-2.241-1.952-3.774-1.952-1.4 0-2.741.45-4.025 1.352-1.283.9-2.457 2.219-3.524 3.954-1.2 2.003-2.191 4.339-2.974 7.009-.784 2.67-1.175 5.04-1.175 7.109 0 2.47.483 4.372 1.45 5.707.966 1.335 2.35 2.002 4.149 2.002 2.9 0 5.449-2.019 7.648-6.057 1.134-2.07 2.033-4.389 2.7-6.959.667-2.57 1-4.973 1-7.209zm-297.555-18.63c-14 4.311-23.163 11.486-23.163 19.608 0 13.183 24.137 23.87 53.913 23.87 29.775 0 53.913-10.687 53.913-23.87 0-8.122-9.164-15.297-23.164-19.608 9.344 3.848 15.219 9.425 15.219 15.63 0 11.613-20.58 21.028-45.968 21.028-25.388 0-45.968-9.415-45.968-21.028 0-6.205 5.874-11.782 15.218-15.63z"/><path d="M270.495 187.23c-6.942 2.44-11.365 6.127-11.365 10.253 0 7.345 14.016 13.3 31.305 13.3s31.304-5.955 31.304-13.3c0-4.604-5.506-8.66-13.873-11.048 5.714 2.296 9.401 5.54 9.401 8.832 0 6.12-12.013 11.082-26.832 11.082-14.82 0-26.833-4.961-26.833-11.082 0-2.928 2.58-5.818 6.893-8.037zm20.81-26.882c-26.414 0-47.827-9.344-47.827-20.87 0-11.526 21.413-20.87 47.826-20.87 26.414 0 47.826 9.344 47.826 20.87 0 11.526-21.412 20.87-47.826 20.87zm0-6.957c22.594 0 40.91-7.786 40.91-17.391 0-9.605-18.316-17.391-40.91-17.391-22.595 0-40.912 7.786-40.912 17.391 0 9.605 18.317 17.391 40.911 17.391z"/><path d="M242.111 139.6l-.372-.122c14.535 38.261 30.767 57.392 48.696 57.392s34.16-19.13 48.695-57.392l-.646.21c-17.055 34.32-33.052 51.48-47.99 51.48-14.952 0-31.08-17.19-48.383-51.569z"/></g></svg>