<?xml version="1.0" encoding="UTF-8"?>
<svg width="640" height="360" viewBox="0 0 640 360" xmlns="http://www.w3.org/2000/svg" xmlns:xlink="http://www.w3.org/1999/xlink">
    <g id="SprayPay">
        <g id="Gespreid-betalen">
            <path id="Path" fill="#00358e" stroke="none" d="M 168.037003 282.023987 C 166.154007 282.023987 164.518005 281.677002 163.229004 280.93399 C 161.940002 280.191986 160.949005 279.152008 160.255997 277.815002 C 159.561996 276.479004 159.214996 274.944 159.164993 273.26001 C 159.164993 272.269989 159.115005 271.230988 159.115005 270.09201 C 159.115005 269.002014 159.115005 267.963013 159.164993 266.923004 C 159.214996 265.19101 159.610992 263.656006 160.255997 262.319 C 160.949005 260.981995 161.940002 259.992004 163.229004 259.248993 C 164.518005 258.506989 166.104004 258.160004 167.988007 258.160004 C 169.524002 258.160004 170.813004 258.40799 171.903 258.854004 C 172.992996 259.299011 173.886002 259.893005 174.580002 260.536987 C 175.272995 261.230011 175.768997 261.873993 176.115997 262.56601 C 176.462997 263.26001 176.612 263.803986 176.660995 264.299011 C 176.660995 264.497009 176.612 264.645996 176.513 264.794006 C 176.363998 264.894012 176.214996 264.992004 175.966995 264.992004 L 175.223999 264.992004 C 175.026001 264.992004 174.876999 264.942993 174.778 264.843994 C 174.679001 264.744995 174.580002 264.596985 174.529999 264.348999 C 174.330994 263.656006 173.934998 263.011993 173.440002 262.368011 C 172.944 261.725006 172.199997 261.230011 171.358002 260.834015 C 170.466003 260.437012 169.375 260.23999 168.037003 260.23999 C 166.054001 260.23999 164.468002 260.783997 163.229004 261.824005 C 161.990005 262.863007 161.345993 264.695007 161.246994 267.17099 C 161.197998 269.151001 161.197998 271.131012 161.246994 273.112 C 161.345993 275.587006 161.990005 277.369995 163.229004 278.459015 C 164.468002 279.548004 166.054001 280.092987 168.037003 280.092987 C 169.326004 280.092987 170.514999 279.845001 171.556 279.350006 C 172.597 278.855011 173.389999 278.112 174.033997 277.072998 C 174.628998 276.03299 174.927002 274.744995 174.927002 273.161987 L 174.927002 271.378998 L 169.128006 271.378998 C 168.929001 271.378998 168.731003 271.329987 168.582001 271.181 C 168.434006 271.03299 168.384003 270.834015 168.384003 270.635986 L 168.384003 270.19101 C 168.384003 269.942993 168.434006 269.744995 168.582001 269.645996 C 168.731003 269.497986 168.878998 269.447998 169.128006 269.447998 L 176.214996 269.447998 C 176.462997 269.447998 176.660995 269.497986 176.759995 269.645996 C 176.908997 269.795013 176.957993 269.942993 176.957993 270.19101 L 176.957993 273.112 C 176.957993 274.894012 176.612 276.428986 175.917999 277.765991 C 175.223999 279.10199 174.182999 280.141998 172.845001 280.93399 C 171.556 281.627014 169.921005 282.023987 168.037003 282.023987 Z"/>
            <path id="path1" fill="#00358e" stroke="none" d="M 184.496002 281.678009 C 184.298004 281.678009 184.100006 281.628998 183.951996 281.480011 C 183.802994 281.332001 183.753006 281.183014 183.753006 280.936005 L 183.753006 259.251007 C 183.753006 259.002991 183.802994 258.804993 183.951996 258.705994 C 184.100006 258.558014 184.248993 258.507996 184.496002 258.507996 L 197.432999 258.507996 C 197.681 258.507996 197.878998 258.558014 197.977997 258.705994 C 198.126999 258.855011 198.175995 259.002991 198.175995 259.251007 L 198.175995 259.746002 C 198.175995 259.944 198.126999 260.141998 197.977997 260.290009 C 197.828995 260.438995 197.681 260.489014 197.432999 260.489014 L 185.835007 260.489014 L 185.835007 268.95401 L 196.688995 268.95401 C 196.938004 268.95401 197.136002 269.003998 197.235001 269.152008 C 197.382996 269.300995 197.432999 269.449005 197.432999 269.696991 L 197.432999 270.191986 C 197.432999 270.390015 197.382996 270.588013 197.235001 270.737 C 197.085999 270.88501 196.938004 270.93399 196.688995 270.93399 L 185.835007 270.93399 L 185.835007 279.697998 L 197.681 279.697998 C 197.929001 279.697998 198.126999 279.747009 198.225998 279.895996 C 198.375 280.044006 198.425003 280.192993 198.425003 280.440002 L 198.425003 280.936005 C 198.425003 281.132996 198.375 281.332001 198.225998 281.480011 C 198.078003 281.628998 197.929001 281.678009 197.681 281.678009 Z"/>
            <path id="path2" fill="#00358e" stroke="none" d="M 212.003998 282.023987 C 210.218994 282.023987 208.682999 281.72699 207.444 281.183014 C 206.205002 280.588989 205.214005 279.846985 204.569 278.954987 C 203.925003 278.063995 203.528 277.074005 203.528 276.084015 C 203.528 275.88501 203.578003 275.737 203.727005 275.638 C 203.875 275.48999 204.024002 275.440002 204.222 275.440002 L 204.865997 275.440002 C 205.065002 275.440002 205.263 275.48999 205.362 275.638 C 205.460999 275.786987 205.559998 275.934998 205.559998 276.084015 C 205.658997 276.678009 205.906998 277.321014 206.403 277.915985 C 206.848999 278.51001 207.542999 279.053986 208.485001 279.450012 C 209.376999 279.846985 210.565994 280.044006 212.003998 280.044006 C 214.184006 280.044006 215.770996 279.64801 216.761993 278.855988 C 217.753006 278.063995 218.248993 277.023987 218.248993 275.687988 C 218.248993 274.79599 218.001007 274.102997 217.455994 273.55899 C 216.960007 273.014008 216.167007 272.519012 215.076004 272.122986 C 214.035995 271.677002 212.647995 271.231995 211.013 270.687012 C 209.425995 270.191986 208.136993 269.64801 207.145996 269.102997 C 206.104996 268.55899 205.362 267.915009 204.916 267.122986 C 204.419998 266.330994 204.222 265.339996 204.222 264.152008 C 204.222 263.014008 204.518997 262.02301 205.113998 261.131989 C 205.709 260.240997 206.600998 259.548004 207.740997 259.002991 C 208.880997 258.459015 210.268997 258.210999 211.904007 258.210999 C 213.192993 258.210999 214.332993 258.408997 215.324005 258.756012 C 216.315994 259.102997 217.108994 259.596985 217.753006 260.141998 C 218.397003 260.735992 218.893005 261.329987 219.190002 262.02301 C 219.537003 262.71701 219.686005 263.359985 219.735992 264.002991 C 219.735992 264.152008 219.686005 264.299988 219.587006 264.449005 C 219.488007 264.596985 219.289993 264.647003 219.042007 264.647003 L 218.397003 264.647003 C 218.298004 264.647003 218.149994 264.596985 218.001007 264.498993 C 217.852005 264.399994 217.753006 264.251007 217.703003 263.95401 C 217.554993 262.86499 217.009003 261.924011 215.968994 261.230988 C 214.927994 260.489014 213.589996 260.141998 211.953995 260.141998 C 210.319 260.141998 208.979996 260.438995 207.938995 261.083008 C 206.899002 261.726013 206.403 262.71701 206.403 264.102997 C 206.403 264.993988 206.649994 265.687012 207.097 266.281006 C 207.542999 266.875 208.285995 267.321014 209.276993 267.765991 C 210.268997 268.212006 211.557007 268.657013 213.143997 269.153015 C 214.779007 269.696991 216.167007 270.191986 217.257996 270.737 C 218.348007 271.282013 219.141006 271.924988 219.686005 272.667999 C 220.231995 273.410004 220.479004 274.399994 220.479004 275.638 C 220.479004 276.975006 220.132004 278.113007 219.488007 279.053986 C 218.794006 279.994995 217.852005 280.687988 216.613007 281.183014 C 215.225006 281.777008 213.738007 282.023987 212.003998 282.023987 Z"/>
            <path id="path3" fill="#00358e" stroke="none" d="M 227.513 281.678009 C 227.315002 281.678009 227.117004 281.628998 226.968002 281.480011 C 226.820007 281.332001 226.770004 281.183014 226.770004 280.936005 L 226.770004 259.251007 C 226.770004 259.002991 226.820007 258.804993 226.968002 258.705994 C 227.117004 258.558014 227.264999 258.507996 227.513 258.507996 L 235.591995 258.507996 C 237.128998 258.507996 238.466995 258.755005 239.606995 259.299988 C 240.746994 259.845001 241.639008 260.587006 242.283005 261.627014 C 242.927002 262.617004 243.225006 263.904999 243.225006 265.390015 C 243.225006 266.875 242.927002 268.161987 242.283005 269.152008 C 241.639008 270.191986 240.746994 270.93399 239.606995 271.429993 C 238.466995 271.973999 237.128998 272.221985 235.591995 272.221985 L 228.901001 272.221985 L 228.901001 280.984985 C 228.901001 281.183014 228.852005 281.381012 228.703003 281.529999 C 228.554001 281.678009 228.404999 281.72699 228.158005 281.72699 L 227.513 281.72699 Z M 228.852005 270.191986 L 235.393997 270.191986 C 237.326996 270.191986 238.764008 269.79599 239.705994 268.95401 C 240.647995 268.113007 241.093994 266.924988 241.093994 265.339996 C 241.093994 263.756012 240.647995 262.567993 239.705994 261.726013 C 238.764008 260.884003 237.326996 260.489014 235.393997 260.489014 L 228.852005 260.489014 Z"/>
            <path id="path4" fill="#00358e" stroke="none" d="M 249.970993 281.678009 C 249.772995 281.678009 249.574997 281.628998 249.425995 281.480011 C 249.276993 281.332001 249.227997 281.183014 249.227997 280.936005 L 249.227997 259.251007 C 249.227997 259.002991 249.276993 258.804993 249.425995 258.705994 C 249.574997 258.558014 249.723007 258.507996 249.970993 258.507996 L 257.703003 258.507996 C 260.032013 258.507996 261.865997 259.052002 263.253998 260.141998 C 264.641998 261.230988 265.335999 262.914001 265.335999 265.191986 C 265.335999 266.973999 264.890015 268.359985 263.997986 269.449005 C 263.105988 270.489014 261.865997 271.230988 260.329987 271.57901 L 265.683014 280.638 C 265.733002 280.786987 265.782013 280.885986 265.782013 280.984985 C 265.782013 281.183014 265.733002 281.332001 265.584015 281.429993 C 265.434998 281.57901 265.286011 281.628998 265.138 281.628998 L 264.740997 281.628998 C 264.394012 281.628998 264.145996 281.529999 263.947998 281.332001 C 263.75 281.132996 263.60199 280.936005 263.502014 280.738007 L 258.199005 271.876007 L 251.358994 271.876007 L 251.358994 280.936005 C 251.358994 281.132996 251.309006 281.332001 251.160004 281.480011 C 251.011993 281.628998 250.863007 281.678009 250.615005 281.678009 Z M 251.358994 269.894989 L 257.553986 269.894989 C 259.488007 269.894989 260.924988 269.498993 261.865997 268.707001 C 262.808014 267.914001 263.253998 266.726013 263.253998 265.191986 C 263.253998 263.608002 262.808014 262.468994 261.865997 261.677002 C 260.924988 260.884003 259.488007 260.489014 257.553986 260.489014 L 251.358994 260.489014 Z"/>
            <path id="path5" fill="#00358e" stroke="none" d="M 272.865997 281.678009 C 272.666992 281.678009 272.468994 281.628998 272.320007 281.480011 C 272.17099 281.332001 272.122009 281.183014 272.122009 280.936005 L 272.122009 259.251007 C 272.122009 259.002991 272.17099 258.804993 272.320007 258.705994 C 272.468994 258.558014 272.618011 258.507996 272.865997 258.507996 L 285.802002 258.507996 C 286.049988 258.507996 286.247986 258.558014 286.346985 258.705994 C 286.496002 258.855011 286.545013 259.002991 286.545013 259.251007 L 286.545013 259.746002 C 286.545013 259.944 286.496002 260.141998 286.346985 260.290009 C 286.197998 260.438995 286.049988 260.489014 285.802002 260.489014 L 274.20401 260.489014 L 274.20401 268.95401 L 285.058014 268.95401 C 285.306 268.95401 285.503998 269.003998 285.604004 269.152008 C 285.752991 269.300995 285.802002 269.449005 285.802002 269.696991 L 285.802002 270.191986 C 285.802002 270.390015 285.752991 270.588013 285.604004 270.737 C 285.454987 270.88501 285.306 270.93399 285.058014 270.93399 L 274.20401 270.93399 L 274.20401 279.697998 L 286.049988 279.697998 C 286.296997 279.697998 286.496002 279.747009 286.595001 279.895996 C 286.743988 280.044006 286.792999 280.192993 286.792999 280.440002 L 286.792999 280.936005 C 286.792999 281.132996 286.743988 281.332001 286.595001 281.480011 C 286.446014 281.628998 286.296997 281.678009 286.049988 281.678009 Z"/>
            <path id="path6" fill="#00358e" stroke="none" d="M 294.178009 281.674988 C 293.980011 281.674988 293.782013 281.625 293.632996 281.47699 C 293.484985 281.328003 293.434998 281.179993 293.434998 280.932007 L 293.434998 259.197998 C 293.434998 259 293.484985 258.802002 293.632996 258.653015 C 293.782013 258.503998 293.929993 258.454987 294.178009 258.454987 L 294.822998 258.454987 C 295.020996 258.454987 295.218994 258.503998 295.368011 258.653015 C 295.515991 258.802002 295.56601 258.950012 295.56601 259.197998 L 295.56601 280.932007 C 295.56601 281.130005 295.515991 281.328003 295.368011 281.47699 C 295.218994 281.625 295.070007 281.674988 294.822998 281.674988 Z"/>
            <path id="path7" fill="#00358e" stroke="none" d="M 304.140015 281.678009 C 303.941986 281.678009 303.743988 281.628998 303.595001 281.480011 C 303.446991 281.332001 303.395996 281.183014 303.395996 280.936005 L 303.395996 259.251007 C 303.395996 259.002991 303.446991 258.804993 303.595001 258.705994 C 303.743988 258.558014 303.891998 258.507996 304.140015 258.507996 L 311.227997 258.507996 C 313.558014 258.507996 315.390991 258.855011 316.729004 259.548004 C 318.067993 260.240997 319.01001 261.230988 319.554993 262.567993 C 320.100006 263.904999 320.397003 265.537994 320.446991 267.468994 C 320.446991 268.459015 320.496002 269.351013 320.496002 270.092987 C 320.496002 270.835999 320.497009 271.72699 320.446991 272.71701 C 320.397003 274.747009 320.100006 276.429993 319.554993 277.766998 C 319.01001 279.104004 318.067993 280.092987 316.778992 280.738007 C 315.490997 281.381012 313.705994 281.72699 311.425995 281.72699 L 304.140015 281.72699 Z M 305.528015 279.697998 L 311.227997 279.697998 C 313.011993 279.697998 314.399994 279.450012 315.44101 279.005005 C 316.481995 278.51001 317.225006 277.766998 317.67099 276.72699 C 318.118011 275.687988 318.36499 274.302002 318.36499 272.567993 C 318.36499 271.924988 318.415009 271.330994 318.415009 270.835999 C 318.415009 270.339996 318.415009 269.845001 318.415009 269.351013 C 318.415009 268.855011 318.415009 268.311005 318.36499 267.617004 C 318.31601 265.191986 317.769989 263.408997 316.679993 262.221008 C 315.588989 261.083008 313.705994 260.489014 311.07901 260.489014 L 305.528015 260.489014 Z"/>
            <path id="path8" fill="#00358e" stroke="none" d="M 338.488007 281.678009 C 338.289001 281.678009 338.091003 281.628998 337.941986 281.480011 C 337.794006 281.332001 337.743988 281.183014 337.743988 280.936005 L 337.743988 259.251007 C 337.743988 259.002991 337.794006 258.804993 337.941986 258.705994 C 338.091003 258.558014 338.23999 258.507996 338.488007 258.507996 L 347.161987 258.507996 C 348.697998 258.507996 349.987 258.804993 350.977997 259.348999 C 351.968994 259.894012 352.662994 260.636993 353.158997 261.528015 C 353.605011 262.420013 353.852997 263.408997 353.852997 264.449005 C 353.852997 265.390015 353.70401 266.230988 353.407013 266.875 C 353.109009 267.567993 352.713013 268.113007 352.266998 268.509003 C 351.820007 268.904999 351.375 269.251007 350.928986 269.449005 C 351.820007 269.894989 352.614014 270.588013 353.257996 271.57901 C 353.902008 272.567993 354.299011 273.707001 354.299011 275.143005 C 354.299011 276.231995 354.050995 277.321014 353.506012 278.311005 C 353.01001 279.302002 352.21701 280.144012 351.175995 280.786987 C 350.13501 281.429993 348.897003 281.72699 347.359985 281.72699 L 338.488007 281.72699 Z M 339.825989 268.558014 L 346.714996 268.558014 C 348.351013 268.558014 349.589996 268.210999 350.433014 267.468994 C 351.274994 266.726013 351.721985 265.737 351.721985 264.399994 C 351.721985 263.112 351.274994 262.122009 350.433014 261.428986 C 349.589996 260.735992 348.351013 260.438995 346.714996 260.438995 L 339.825989 260.438995 Z M 339.825989 279.697998 L 347.013 279.697998 C 348.64801 279.697998 349.937012 279.252014 350.82901 278.410004 C 351.721985 277.569 352.166992 276.479004 352.166992 275.143005 C 352.166992 273.806 351.721985 272.71701 350.82901 271.825989 C 349.937012 270.984985 348.64801 270.539001 347.013 270.539001 L 339.825989 270.539001 Z"/>
            <path id="path9" fill="#00358e" stroke="none" d="M 361.786987 281.678009 C 361.588989 281.678009 361.390991 281.628998 361.242004 281.480011 C 361.092987 281.332001 361.044006 281.183014 361.044006 280.936005 L 361.044006 259.251007 C 361.044006 259.002991 361.092987 258.804993 361.242004 258.705994 C 361.390991 258.558014 361.540009 258.507996 361.786987 258.507996 L 374.723999 258.507996 C 374.971008 258.507996 375.170013 258.558014 375.269012 258.705994 C 375.417999 258.855011 375.46701 259.002991 375.46701 259.251007 L 375.46701 259.746002 C 375.46701 259.944 375.417999 260.141998 375.269012 260.290009 C 375.119995 260.438995 374.971008 260.489014 374.723999 260.489014 L 363.126007 260.489014 L 363.126007 268.95401 L 373.980011 268.95401 C 374.227997 268.95401 374.425995 269.003998 374.526001 269.152008 C 374.674011 269.300995 374.723999 269.449005 374.723999 269.696991 L 374.723999 270.191986 C 374.723999 270.390015 374.674011 270.588013 374.526001 270.737 C 374.377014 270.88501 374.227997 270.93399 373.980011 270.93399 L 363.126007 270.93399 L 363.126007 279.697998 L 374.971008 279.697998 C 375.220001 279.697998 375.417999 279.747009 375.516998 279.895996 C 375.665985 280.044006 375.714996 280.192993 375.714996 280.440002 L 375.714996 280.936005 C 375.714996 281.132996 375.665985 281.332001 375.516998 281.480011 C 375.368011 281.628998 375.220001 281.678009 374.971008 281.678009 Z"/>
            <path id="path10" fill="#00358e" stroke="none" d="M 388.152008 281.678009 C 387.95401 281.678009 387.755005 281.628998 387.606995 281.480011 C 387.458008 281.332001 387.408997 281.183014 387.408997 280.936005 L 387.408997 260.489014 L 380.816986 260.489014 C 380.618988 260.489014 380.420013 260.438995 380.270996 260.290009 C 380.122986 260.141998 380.072998 259.993011 380.072998 259.746002 L 380.072998 259.251007 C 380.072998 259.002991 380.122986 258.804993 380.270996 258.705994 C 380.420013 258.558014 380.567993 258.507996 380.816986 258.507996 L 396.03299 258.507996 C 396.281006 258.507996 396.479004 258.558014 396.578003 258.705994 C 396.726013 258.855011 396.776001 259.002991 396.776001 259.251007 L 396.776001 259.746002 C 396.776001 259.944 396.726013 260.141998 396.578003 260.290009 C 396.428986 260.438995 396.281006 260.489014 396.03299 260.489014 L 389.48999 260.489014 L 389.48999 280.984985 C 389.48999 281.183014 389.440002 281.381012 389.291992 281.529999 C 389.143005 281.678009 388.993988 281.72699 388.747009 281.72699 L 388.152008 281.72699 Z"/>
            <path id="path11" fill="#00358e" stroke="none" d="M 398.36499 281.678986 C 398.166992 281.678986 398.018005 281.630005 397.919006 281.480988 C 397.770996 281.333008 397.721008 281.18399 397.721008 281.036011 C 397.721008 280.936005 397.721008 280.787994 397.770996 280.688995 L 406.147003 259.203003 C 406.246002 259.003998 406.345001 258.806 406.493988 258.707001 C 406.643005 258.609009 406.841003 258.55899 407.088013 258.55899 L 408.227997 258.55899 C 408.47699 258.55899 408.674988 258.609009 408.822998 258.707001 C 408.971985 258.806 409.071014 259.003998 409.170013 259.203003 L 417.546997 280.688995 C 417.596008 280.838013 417.596008 280.936005 417.596008 281.036011 C 417.596008 281.233002 417.546997 281.381989 417.39801 281.480988 C 417.248993 281.630005 417.101013 281.678986 416.951996 281.678986 L 416.307007 281.678986 C 416.109009 281.678986 415.911011 281.630005 415.812012 281.480988 C 415.713013 281.381989 415.614014 281.233002 415.563995 281.18399 L 413.481995 275.886993 L 401.735992 275.886993 L 399.653992 281.18399 C 399.653992 281.28299 399.554993 281.381989 399.455994 281.480988 C 399.356995 281.580994 399.15799 281.678986 398.959991 281.678986 Z M 402.627991 273.907013 L 412.789001 273.907013 L 407.733002 260.835999 Z"/>
            <path id="path12" fill="#00358e" stroke="none" d="M 423.937012 281.674988 C 423.739014 281.674988 423.540009 281.625 423.391998 281.47699 C 423.243011 281.328003 423.192993 281.179993 423.192993 280.932007 L 423.192993 259.197998 C 423.192993 259 423.243011 258.802002 423.391998 258.653015 C 423.540009 258.503998 423.688995 258.454987 423.937012 258.454987 L 424.580994 258.454987 C 424.778992 258.454987 424.977997 258.503998 425.126007 258.653015 C 425.274994 258.802002 425.324005 258.950012 425.324005 259.197998 L 425.324005 279.694 L 436.773987 279.694 C 437.022003 279.694 437.220001 279.743988 437.319 279.893005 C 437.467987 280.040985 437.516998 280.190002 437.516998 280.437012 L 437.516998 280.932007 C 437.516998 281.130005 437.467987 281.328003 437.319 281.47699 C 437.170013 281.625 437.022003 281.674988 436.773987 281.674988 Z"/>
            <path id="path13" fill="#00358e" stroke="none" d="M 443.81601 281.678009 C 443.618011 281.678009 443.419006 281.628998 443.269989 281.480011 C 443.122009 281.332001 443.071991 281.183014 443.071991 280.936005 L 443.071991 259.251007 C 443.071991 259.002991 443.122009 258.804993 443.269989 258.705994 C 443.419006 258.558014 443.566986 258.507996 443.81601 258.507996 L 456.752014 258.507996 C 457 258.507996 457.197998 258.558014 457.296997 258.705994 C 457.446014 258.855011 457.494995 259.002991 457.494995 259.251007 L 457.494995 259.746002 C 457.494995 259.944 457.446014 260.141998 457.296997 260.290009 C 457.148987 260.438995 457 260.489014 456.752014 260.489014 L 445.153992 260.489014 L 445.153992 268.95401 L 456.009003 268.95401 C 456.256012 268.95401 456.45401 269.003998 456.553009 269.152008 C 456.701996 269.300995 456.752014 269.449005 456.752014 269.696991 L 456.752014 270.191986 C 456.752014 270.390015 456.701996 270.588013 456.553009 270.737 C 456.404999 270.88501 456.256012 270.93399 456.009003 270.93399 L 445.153992 270.93399 L 445.153992 279.697998 L 457 279.697998 C 457.247009 279.697998 457.446014 279.747009 457.545013 279.895996 C 457.692993 280.044006 457.743011 280.192993 457.743011 280.440002 L 457.743011 280.936005 C 457.743011 281.132996 457.692993 281.332001 457.545013 281.480011 C 457.395996 281.628998 457.247009 281.678009 457 281.678009 Z"/>
            <path id="path14" fill="#00358e" stroke="none" d="M 465.075989 281.678009 C 464.877991 281.678009 464.679993 281.628998 464.531006 281.480011 C 464.381989 281.332001 464.333008 281.183014 464.333008 280.936005 L 464.333008 259.251007 C 464.333008 259.002991 464.381989 258.804993 464.531006 258.705994 C 464.679993 258.558014 464.82901 258.507996 465.075989 258.507996 L 465.770996 258.507996 C 465.968994 258.507996 466.166992 258.558014 466.265991 258.657013 C 466.36499 258.755005 466.463989 258.855011 466.463989 258.903992 L 478.705994 277.569 L 478.705994 259.251007 C 478.705994 259.002991 478.756012 258.804993 478.904999 258.705994 C 479.053009 258.558014 479.201996 258.507996 479.450012 258.507996 L 480.045013 258.507996 C 480.292999 258.507996 480.490997 258.558014 480.589996 258.705994 C 480.739014 258.855011 480.787994 259.002991 480.787994 259.251007 L 480.787994 280.936005 C 480.787994 281.132996 480.739014 281.332001 480.589996 281.480011 C 480.441986 281.628998 480.292999 281.678009 480.045013 281.678009 L 479.302002 281.678009 C 479.102997 281.678009 478.904999 281.628998 478.806 281.529999 C 478.705994 281.429993 478.657013 281.330994 478.608002 281.282013 L 466.415009 262.665985 L 466.415009 280.936005 C 466.415009 281.132996 466.36499 281.332001 466.216003 281.480011 C 466.067993 281.628998 465.919006 281.678009 465.67099 281.678009 Z"/>
        </g>
        <path id="path15" fill="#00a9ce" stroke="none" d="M 537.88501 236.128006 C 537.23999 236.128006 536.64502 235.880005 536.198975 235.384995 C 535.703979 234.889999 535.455994 234.345001 535.455994 233.701996 L 535.455994 212.759003 L 512.804993 171.024002 C 512.755005 170.826004 512.656006 170.677002 512.606995 170.479004 C 512.557007 170.330994 512.507996 170.132996 512.507996 169.934006 C 512.507996 169.389999 512.705994 168.945007 513.151978 168.498993 C 513.598022 168.052994 514.093994 167.854996 514.687988 167.854996 L 526.880981 167.854996 C 527.872009 167.854996 528.616028 168.102997 529.161011 168.598007 C 529.705994 169.093002 530.103027 169.539001 530.301025 169.934006 L 544.278015 195.085007 L 558.304993 169.934006 C 558.502991 169.539001 558.849976 169.093002 559.445007 168.598007 C 559.98999 168.102997 560.78302 167.854996 561.724976 167.854996 L 573.916992 167.854996 C 574.513 167.854996 575.007996 168.052994 575.403992 168.498993 C 575.801025 168.895004 576 169.389999 576 169.934006 C 576 170.132996 576 170.281998 575.950012 170.479004 C 575.900024 170.628006 575.851013 170.826004 575.801025 171.024002 L 553.150024 212.759003 L 553.150024 233.701996 C 553.150024 234.345001 552.903015 234.940002 552.406982 235.384995 C 551.911011 235.880005 551.315979 236.128006 550.622009 236.128006 Z"/>
        <path id="path16" fill="#00a9ce" stroke="none" d="M 451.945007 236.128006 C 451.450012 236.128006 450.95401 235.929001 450.507996 235.483994 C 450.062012 235.087997 449.863007 234.593002 449.863007 234.048004 C 449.863007 233.701996 449.912994 233.453995 449.963013 233.156998 L 472.911011 170.578995 C 473.109009 169.884995 473.506012 169.242004 474.149994 168.697006 C 474.744995 168.151993 475.636993 167.854996 476.72699 167.854996 L 491.149994 167.854996 C 492.240997 167.854996 493.132996 168.102997 493.727997 168.697006 C 494.322998 169.242004 494.769012 169.884995 494.96701 170.578995 L 517.815979 233.156998 C 517.965027 233.404999 518.013977 233.701996 518.013977 234.048004 C 518.013977 234.542999 517.815979 235.037994 517.369995 235.483994 C 516.973022 235.880005 516.429016 236.128006 515.882996 236.128006 L 503.889008 236.128006 C 502.89801 236.128006 502.203003 235.880005 501.708008 235.384995 C 501.212006 234.889999 500.915009 234.444 500.765991 234.048004 L 496.950012 224.097 L 470.878998 224.097 L 467.161011 234.048004 C 467.013 234.444 466.714996 234.889999 466.269989 235.384995 C 465.822998 235.880005 465.029999 236.128006 463.940002 236.128006 Z M 474.843994 210.085999 L 492.984985 210.085999 L 483.914001 184.341003 Z"/>
        <path id="path17" fill="#00a9ce" stroke="none" d="M 396.977997 236.128998 C 396.283997 236.128998 395.690002 235.880997 395.243988 235.386002 C 394.796997 234.891006 394.549988 234.345993 394.549988 233.703003 L 394.549988 170.332001 C 394.549988 169.639008 394.796997 169.044998 395.243988 168.598999 C 395.690002 168.154007 396.283997 167.906006 396.977997 167.906006 L 424.287994 167.906006 C 429.69101 167.906006 434.398987 168.748001 438.364014 170.382004 C 442.378998 172.065002 445.502014 174.539993 447.731995 177.856995 C 449.963013 181.175003 451.102997 185.382996 451.102997 190.432007 C 451.102997 195.432999 449.963013 199.542007 447.731995 202.809998 C 445.502014 206.076996 442.378998 208.453995 438.364014 210.037994 C 434.350006 211.572998 429.69101 212.365005 424.287994 212.365005 L 412.690002 212.365005 L 412.690002 233.703003 C 412.690002 234.345993 412.441986 234.940002 411.946014 235.386002 C 411.450989 235.880997 410.856995 236.128998 410.161987 236.128998 Z M 412.393005 198.897995 L 423.791992 198.897995 C 426.567993 198.897995 428.798004 198.205994 430.484009 196.768997 C 432.119995 195.334 432.962006 193.154999 432.962006 190.235001 C 432.962006 187.759003 432.268005 185.679993 430.830994 183.996002 C 429.393005 182.313004 427.063995 181.472 423.791992 181.472 L 412.393005 181.472 Z"/>
        <path id="path18" fill="#00358e" stroke="none" d="M 348.104004 236.128006 C 347.459991 236.128006 346.86499 235.880005 346.419006 235.384995 C 345.923004 234.889999 345.675995 234.345993 345.675995 233.701996 L 345.675995 212.759995 L 323.024994 171.024002 C 322.975006 170.826004 322.876007 170.677002 322.825989 170.479996 C 322.777008 170.281998 322.727997 170.132996 322.727997 169.934998 C 322.727997 169.391006 322.925995 168.945007 323.372009 168.498993 C 323.816986 168.054001 324.312988 167.854996 324.90799 167.854996 L 337.101013 167.854996 C 338.09201 167.854996 338.834991 168.102997 339.381012 168.598007 C 339.925995 169.093994 340.321991 169.539001 340.520996 169.934998 L 354.497986 195.085007 L 368.523987 169.934998 C 368.722992 169.539001 369.070007 169.093994 369.664001 168.598007 C 370.209991 168.102997 371.002014 167.854996 371.944 167.854996 L 384.136993 167.854996 C 384.731995 167.854996 385.227997 168.054001 385.623993 168.498993 C 386.019989 168.895004 386.218994 169.391006 386.218994 169.934998 C 386.218994 170.132996 386.218994 170.281998 386.169006 170.479996 C 386.119995 170.628006 386.071014 170.826004 386.019989 171.024002 L 363.369995 212.759995 L 363.369995 233.701996 C 363.369995 234.345993 363.122009 234.940002 362.627014 235.384995 C 362.131012 235.880005 361.536011 236.128006 360.84201 236.128006 Z"/>
        <path id="path19" fill="#00358e" stroke="none" d="M 262.15799 236.128006 C 261.661987 236.128006 261.166992 235.929001 260.720001 235.483994 C 260.273987 235.087997 260.075989 234.593002 260.075989 234.048996 C 260.075989 233.701996 260.126007 233.455002 260.174988 233.156998 L 283.123993 170.578995 C 283.321991 169.886002 283.717987 169.242004 284.362 168.697006 C 284.957001 168.151993 285.848999 167.854996 286.940002 167.854996 L 301.363007 167.854996 C 302.453003 167.854996 303.346008 168.102997 303.940002 168.697006 C 304.535004 169.242004 304.980988 169.886002 305.179993 170.578995 L 328.028992 233.156998 C 328.177002 233.404999 328.22699 233.701996 328.22699 234.048996 C 328.22699 234.542999 328.028992 235.037994 327.582001 235.483994 C 327.186005 235.880005 326.640991 236.128006 326.095001 236.128006 L 314.101013 236.128006 C 313.109985 236.128006 312.415985 235.880005 311.920013 235.384995 C 311.424988 234.889999 311.127991 234.444 310.979004 234.048996 L 307.161987 224.097 L 281.09201 224.097 L 277.373993 234.048996 C 277.225006 234.444 276.928009 234.889999 276.481995 235.384995 C 276.036011 235.880005 275.243011 236.128006 274.152008 236.128006 Z M 285.105988 210.085999 L 303.247009 210.085999 L 294.175995 184.341995 Z"/>
        <path id="path20" fill="#00358e" stroke="none" d="M 201.095001 236.128998 C 200.401001 236.128998 199.806 235.880997 199.360001 235.386002 C 198.914001 234.891006 198.666 234.345993 198.666 233.703003 L 198.666 170.332001 C 198.666 169.639008 198.914001 169.044998 199.360001 168.598999 C 199.806 168.154007 200.350998 167.906006 201.095001 167.906006 L 227.610992 167.906006 C 236.087006 167.906006 242.679001 169.837006 247.535995 173.699005 C 252.343994 177.559998 254.772995 183.056 254.772995 190.134995 C 254.772995 194.740005 253.682007 198.651001 251.451996 201.820007 C 249.220993 204.988007 246.298004 207.414001 242.679001 209.048004 L 256.062012 233.009995 C 256.26001 233.406006 256.359009 233.751999 256.359009 234.098999 C 256.359009 234.593994 256.161011 235.089005 255.714996 235.535004 C 255.268005 235.931 254.822006 236.177994 254.276993 236.177994 L 241.291 236.177994 C 240.052002 236.177994 239.160004 235.880997 238.565994 235.237 C 237.970001 234.643005 237.574005 234.048996 237.276993 233.554001 L 226.175003 212.117004 L 216.212006 212.117004 L 216.212006 233.751999 C 216.212006 234.395996 215.964005 234.990005 215.468994 235.436005 C 214.973007 235.880997 214.378006 236.177994 213.684006 236.177994 L 201.095001 236.177994 Z M 216.212006 198.205002 L 227.412994 198.205002 C 230.487 198.205002 232.766998 197.462997 234.302994 195.977005 C 235.839005 194.492004 236.582993 192.462997 236.582993 189.938004 C 236.582993 187.412003 235.839005 185.382996 234.401993 183.798004 C 232.964996 182.264008 230.634995 181.472 227.412994 181.472 L 216.212006 181.472 Z"/>
        <path id="path21" fill="#00358e" stroke="none" d="M 135.125 236.128998 C 134.431 236.128998 133.835999 235.880997 133.389999 235.386002 C 132.944 234.891006 132.695999 234.345993 132.695999 233.703003 L 132.695999 170.332001 C 132.695999 169.639008 132.944 169.044998 133.389999 168.598999 C 133.835999 168.154007 134.431 167.906006 135.125 167.906006 L 162.434998 167.906006 C 167.837006 167.906006 172.546005 168.748001 176.511002 170.382004 C 180.524994 172.065002 183.647995 174.539993 185.878998 177.856995 C 188.108994 181.175003 189.248993 185.382996 189.248993 190.432007 C 189.248993 195.432999 188.108994 199.542007 185.878998 202.809998 C 183.647995 206.076996 180.524994 208.453995 176.511002 210.037994 C 172.496002 211.572998 167.837006 212.365005 162.434998 212.365005 L 150.835999 212.365005 L 150.835999 233.703003 C 150.835999 234.345993 150.589005 234.940002 150.093002 235.386002 C 149.598007 235.832001 149.003006 236.128998 148.309006 236.128998 Z M 150.539001 198.897995 L 161.938995 198.897995 C 164.714996 198.897995 166.945007 198.205994 168.630005 196.768997 C 170.266006 195.334 171.108002 193.154999 171.108002 190.235001 C 171.108002 187.759003 170.414993 185.679993 168.977005 183.996002 C 167.539993 182.313004 165.210007 181.472 161.938995 181.472 L 150.539001 181.472 Z"/>
        <path id="path22" fill="#00358e" stroke="none" d="M 93.4907 237.117996 C 86.998199 237.117996 81.595497 236.177002 77.283401 234.345001 C 72.971298 232.513 69.749702 230.087997 67.519203 227.067993 C 65.288803 224.097 64.148804 220.878998 64 217.511993 C 64 216.968002 64.198196 216.522003 64.644699 216.076996 C 65.0905 215.630997 65.586403 215.432999 66.181099 215.432999 L 78.472702 215.432999 C 79.365097 215.432999 80.059196 215.580994 80.554398 215.927994 C 81.050301 216.225006 81.496101 216.671005 81.893204 217.166 C 82.388397 218.156006 83.131897 219.097 84.073601 219.988007 C 85.015297 220.878998 86.2547 221.621994 87.8405 222.166 C 89.376801 222.710999 91.310303 223.007996 93.4907 223.007996 C 97.257599 223.007996 100.133003 222.414001 102.015999 221.274994 C 103.900002 220.136993 104.890999 218.503006 104.890999 216.522003 C 104.890999 215.037003 104.394997 213.848999 103.353996 212.908005 C 102.313004 212.016998 100.627998 211.175003 98.348099 210.432999 C 96.018898 209.690002 92.945503 208.897995 89.129204 208.154999 C 84.173103 207.115997 79.959702 205.779007 76.490501 204.095993 C 73.020699 202.462006 70.344398 200.283997 68.560402 197.559998 C 66.726402 194.886993 65.834 191.520004 65.834 187.460007 C 65.834 183.5 66.973999 179.934998 69.204399 176.815994 C 71.434898 173.697998 74.607101 171.272003 78.621597 169.488998 C 82.636703 167.755997 87.444 166.865005 92.945503 166.865005 C 97.455803 166.865005 101.371002 167.459 104.791 168.647003 C 108.211998 169.835999 111.085999 171.369995 113.416 173.350998 C 115.745003 175.330994 117.528999 177.360992 118.719002 179.539993 C 119.908997 181.718002 120.553001 183.845993 120.602997 185.925995 C 120.602997 186.470993 120.404999 186.916 120.057999 187.362 C 119.710999 187.757004 119.214996 188.005005 118.521004 188.005005 L 105.634003 188.005005 C 104.940002 188.005005 104.295998 187.856995 103.800003 187.608994 C 103.254997 187.362 102.808998 186.916 102.413002 186.322006 C 102.015999 184.886002 100.974998 183.649002 99.339203 182.559998 C 97.704102 181.520004 95.523003 180.975006 92.846703 180.975006 C 89.972198 180.975006 87.741699 181.470001 86.155296 182.460007 C 84.569504 183.5 83.776604 185.035004 83.776604 187.113998 C 83.776604 188.401001 84.222504 189.539993 85.114799 190.529999 C 86.006401 191.520004 87.444 192.362 89.525703 193.054993 C 91.557899 193.748001 94.383102 194.490997 97.951698 195.283005 C 103.849998 196.371994 108.657997 197.759003 112.276001 199.442001 C 115.893997 201.125 118.620003 203.253998 120.305 205.878006 C 122.040001 208.501999 122.883003 211.819 122.883003 215.779999 C 122.883003 220.186005 121.594002 223.998001 119.066002 227.166 C 116.538002 230.335007 113.068001 232.809998 108.657997 234.542999 C 104.345001 236.227005 99.289803 237.117996 93.4907 237.117996 Z"/>
        <linearGradient id="linearGradient1" x1="217.446" y1="107.047" x2="422.374" y2="107.047" gradientUnits="userSpaceOnUse">
            <stop offset="1e-05" stop-color="#00358e" stop-opacity="1"/>
            <stop offset="1" stop-color="#00a9ce" stop-opacity="1"/>
        </linearGradient>
        <path id="path23" fill="url(#linearGradient1)" stroke="none" d="M 221.468994 136.123001 C 218.990005 136.123001 217.007996 134.093002 217.007996 131.667007 L 217.007996 82.455688 C 217.007996 79.980194 219.039993 78 221.468994 78 C 223.947006 78 225.929001 80.029602 225.929001 82.455688 L 225.929001 131.667007 C 225.929001 134.093002 223.897003 136.123001 221.468994 136.123001 Z"/>
        <linearGradient id="linearGradient2" x1="217.444" y1="114.824" x2="422.372" y2="114.824" gradientUnits="userSpaceOnUse">
            <stop offset="1e-05" stop-color="#00358e" stop-opacity="1"/>
            <stop offset="1" stop-color="#00a9ce" stop-opacity="1"/>
        </linearGradient>
        <path id="path24" fill="url(#linearGradient2)" stroke="none" d="M 239.358994 141.660995 C 236.880997 141.660995 234.897995 139.632004 234.897995 137.205994 L 234.897995 92.449799 C 234.897995 89.974396 236.931 87.99411 239.358994 87.99411 C 241.837006 87.99411 243.820007 90.023682 243.820007 92.449799 L 243.820007 137.205994 C 243.820007 139.632004 241.837006 141.660995 239.358994 141.660995 Z"/>
        <linearGradient id="linearGradient3" x1="217.443" y1="120.195" x2="422.371" y2="120.195" gradientUnits="userSpaceOnUse">
            <stop offset="1e-05" stop-color="#00358e" stop-opacity="1"/>
            <stop offset="1" stop-color="#00a9ce" stop-opacity="1"/>
        </linearGradient>
        <path id="path25" fill="url(#linearGradient3)" stroke="none" d="M 257.251007 144.781998 C 254.772995 144.781998 252.789993 142.753006 252.789993 140.326996 L 252.789993 100.076996 C 252.789993 97.601318 254.822006 95.621094 257.251007 95.621094 C 259.729004 95.621094 261.712006 97.650696 261.712006 100.076996 L 261.712006 140.326996 C 261.760986 142.802002 259.729004 144.781998 257.251007 144.781998 Z"/>
        <linearGradient id="linearGradient4" x1="217.443" y1="123.504" x2="422.371" y2="123.504" gradientUnits="userSpaceOnUse">
            <stop offset="1e-05" stop-color="#00358e" stop-opacity="1"/>
            <stop offset="1" stop-color="#00a9ce" stop-opacity="1"/>
        </linearGradient>
        <path id="path26" fill="url(#linearGradient4)" stroke="none" d="M 275.192993 145.869995 C 272.714996 145.869995 270.731995 143.841003 270.731995 141.414993 L 270.731995 105.619995 C 270.731995 103.143982 272.765015 101.164001 275.192993 101.164001 C 277.67099 101.164001 279.653992 103.194 279.653992 105.619995 L 279.653992 141.414993 C 279.653992 143.841003 277.67099 145.869995 275.192993 145.869995 Z"/>
        <linearGradient id="linearGradient5" x1="217.448" y1="124.763" x2="422.376" y2="124.763" gradientUnits="userSpaceOnUse">
            <stop offset="1e-05" stop-color="#00358e" stop-opacity="1"/>
            <stop offset="1" stop-color="#00a9ce" stop-opacity="1"/>
        </linearGradient>
        <path id="path27" fill="url(#linearGradient5)" stroke="none" d="M 293.091003 144.886993 C 290.612 144.886993 288.630005 142.856995 288.630005 140.431 L 288.630005 109.09201 C 288.630005 106.617004 290.661987 104.636993 293.091003 104.636993 C 295.569 104.636993 297.550995 106.666 297.550995 109.09201 L 297.550995 140.431 C 297.601013 142.856995 295.569 144.886993 293.091003 144.886993 Z"/>
        <linearGradient id="linearGradient6" x1="217.449" y1="124.218" x2="422.378" y2="124.218" gradientUnits="userSpaceOnUse">
            <stop offset="1e-05" stop-color="#00358e" stop-opacity="1"/>
            <stop offset="1" stop-color="#00a9ce" stop-opacity="1"/>
        </linearGradient>
        <path id="path28" fill="url(#linearGradient6)" stroke="none" d="M 311.033997 142.106003 C 308.556 142.106003 306.572998 140.076996 306.572998 137.651001 L 306.572998 110.817001 C 306.572998 108.34201 308.605011 106.360992 311.033997 106.360992 C 313.511993 106.360992 315.494995 108.390991 315.494995 110.817001 L 315.494995 137.651001 C 315.494995 140.076996 313.463013 142.106003 311.033997 142.106003 Z"/>
        <linearGradient id="linearGradient7" x1="217.447" y1="121.981" x2="422.375" y2="121.981" gradientUnits="userSpaceOnUse">
            <stop offset="1e-05" stop-color="#00358e" stop-opacity="1"/>
            <stop offset="1" stop-color="#00a9ce" stop-opacity="1"/>
        </linearGradient>
        <path id="path29" fill="url(#linearGradient7)" stroke="none" d="M 328.924988 137.651001 C 326.446014 137.651001 324.463989 135.621002 324.463989 133.195007 L 324.463989 110.817001 C 324.463989 108.34201 326.496002 106.360992 328.924988 106.360992 C 331.403015 106.360992 333.38501 108.390991 333.38501 110.817001 L 333.38501 133.195007 C 333.38501 135.621002 331.403015 137.651001 328.924988 137.651001 Z"/>
        <linearGradient id="linearGradient8" x1="217.448" y1="118.043" x2="422.376" y2="118.043" gradientUnits="userSpaceOnUse">
            <stop offset="1e-05" stop-color="#00358e" stop-opacity="1"/>
            <stop offset="1" stop-color="#00a9ce" stop-opacity="1"/>
        </linearGradient>
        <path id="path30" fill="url(#linearGradient8)" stroke="none" d="M 346.868011 131.460007 C 344.390015 131.460007 342.407013 129.429993 342.407013 127.003998 L 342.407013 109.132004 C 342.407013 106.656998 344.438995 104.675995 346.868011 104.675995 C 349.346008 104.675995 351.32901 106.705994 351.32901 109.132004 L 351.32901 127.003998 C 351.32901 129.429993 349.296997 131.460007 346.868011 131.460007 Z"/>
        <linearGradient id="linearGradient9" x1="217.446" y1="112.32" x2="422.375" y2="112.32" gradientUnits="userSpaceOnUse">
            <stop offset="1e-05" stop-color="#00358e" stop-opacity="1"/>
            <stop offset="1" stop-color="#00a9ce" stop-opacity="1"/>
        </linearGradient>
        <path id="path31" fill="url(#linearGradient9)" stroke="none" d="M 364.759003 123.492996 C 362.281006 123.492996 360.298004 121.462997 360.298004 119.037003 L 360.298004 105.619995 C 360.298004 103.143982 362.329987 101.164001 364.759003 101.164001 C 367.237 101.164001 369.220001 103.194 369.220001 105.619995 L 369.220001 119.037003 C 369.220001 121.511993 367.237 123.492996 364.759003 123.492996 Z"/>
        <linearGradient id="linearGradient10" x1="217.445" y1="104.538" x2="422.373" y2="104.538" gradientUnits="userSpaceOnUse">
            <stop offset="1e-05" stop-color="#00358e" stop-opacity="1"/>
            <stop offset="1" stop-color="#00a9ce" stop-opacity="1"/>
        </linearGradient>
        <path id="path32" fill="url(#linearGradient10)" stroke="none" d="M 382.649994 113.492996 C 380.171997 113.492996 378.188995 111.463989 378.188995 109.037994 L 378.188995 100.076996 C 378.188995 97.601318 380.221985 95.621094 382.649994 95.621094 C 385.127991 95.621094 387.110992 97.650696 387.110992 100.076996 L 387.110992 109.037994 C 387.161011 111.463989 385.127991 113.492996 382.649994 113.492996 Z"/>
        <linearGradient id="linearGradient11" x1="217.445" y1="94.6949" x2="422.373" y2="94.6949" gradientUnits="userSpaceOnUse">
            <stop offset="1e-05" stop-color="#00358e" stop-opacity="1"/>
            <stop offset="1" stop-color="#00a9ce" stop-opacity="1"/>
        </linearGradient>
        <path id="path33" fill="url(#linearGradient11)" stroke="none" d="M 400.592987 101.411987 C 398.11499 101.411987 396.131989 99.382294 396.131989 96.956299 L 396.131989 92.50061 C 396.131989 90.025085 398.164001 88.044891 400.592987 88.044891 C 403.071014 88.044891 405.053986 90.074493 405.053986 92.50061 L 405.053986 96.956299 C 405.053986 99.382294 403.071014 101.411987 400.592987 101.411987 Z"/>
        <linearGradient id="linearGradient12" x1="217.444" y1="82.4425" x2="422.372" y2="82.4425" gradientUnits="userSpaceOnUse">
            <stop offset="1e-05" stop-color="#00358e" stop-opacity="1"/>
            <stop offset="1" stop-color="#00a9ce" stop-opacity="1"/>
        </linearGradient>
        <path id="path34" fill="url(#linearGradient12)" stroke="none" d="M 418.484009 86.911407 C 416.006012 86.911407 414.02301 84.881104 414.02301 82.455688 C 414.02301 79.980194 416.056 78 418.484009 78 C 420.962006 78 422.945007 80.029602 422.945007 82.455688 C 422.994995 84.881104 420.962006 86.911407 418.484009 86.911407 Z"/>
    </g>
</svg>
