<svg fill="none" height="512" viewBox="0 0 512 512" width="512" xmlns="http://www.w3.org/2000/svg"><g fill="#fff"><path d="m29.4907 313.118c-6.4925 0-11.8952-.941-16.2073-2.773-4.31211-1.832-7.53369-4.257-9.76416-7.277-2.23048-2.971-3.37041-6.189-3.51924-9.556 0-.544.198223-.99.644713-1.435.445827-.446.941717-.644 1.536377-.644h12.29161c.8924 0 1.5865.148 2.0817.495.4959.297.9417.743 1.3388 1.238.4952.99 1.2387 1.931 2.1804 2.822s2.1811 1.634 3.7669 2.178c1.5363.545 3.4698.842 5.6502.842 3.7669 0 6.6421-.594 8.5255-1.733 1.8834-1.138 2.8745-2.772 2.8745-4.753 0-1.485-.4959-2.673-1.5363-3.614-1.0412-.891-2.7264-1.733-5.0063-2.475-2.3292-.743-5.4026-1.535-9.2189-2.278-4.9561-1.039-9.1695-2.376-12.6387-4.059-3.46982-1.634-6.14612-3.812-7.93011-6.536-1.83403-2.673-2.72635-6.04-2.72635-10.1 0-3.96 1.13993-7.525 3.3704-10.644 2.23048-3.118 5.40266-5.544 9.41716-7.327 4.0151-1.733 8.8224-2.624 14.3239-2.624 4.5103 0 8.426.594 11.8458 1.782 3.4204 1.189 6.295 2.723 8.6242 4.704 2.3299 1.98 4.1139 4.01 5.3039 6.189 1.1893 2.178 1.8334 4.306 1.8834 6.386 0 .545-.1982.99-.5452 1.436-.3471.395-.843.643-1.5364.643h-12.887c-.6941 0-1.3381-.148-1.834-.396-.5453-.247-.9911-.693-1.3876-1.287-.3964-1.436-1.4376-2.673-3.0734-3.762-1.6351-1.04-3.8162-1.585-6.4925-1.585-2.8745 0-5.105.495-6.6914 1.485-1.5858 1.04-2.3787 2.575-2.3787 4.654 0 1.287.4459 2.426 1.3382 3.416.8916.99 2.3292 1.832 4.4109 2.525 2.0322.693 4.8574 1.436 8.426 2.228 5.8979 1.089 10.7059 2.476 14.3239 4.159 3.6187 1.683 6.3444 3.812 8.0296 6.436 1.7346 2.624 2.5775 5.941 2.5775 9.902 0 4.406-1.2888 8.218-3.8169 11.386-2.5275 3.169-5.9973 5.644-10.4082 7.377-4.3121 1.684-9.3678 2.575-15.1669 2.575z"/><path d="m71.125 312.129c-.6941 0-1.2888-.248-1.7353-.743-.4458-.495-.6934-1.04-.6934-1.683v-63.371c0-.693.2476-1.287.6934-1.733.4465-.445 1.0412-.693 1.7353-.693h27.3096c5.4024 0 10.1114.842 14.0764 2.476 4.014 1.683 7.137 4.158 9.368 7.475 2.23 3.318 3.37 7.526 3.37 12.575 0 5.001-1.14 9.11-3.37 12.378-2.231 3.267-5.354 5.644-9.368 7.228-4.015 1.535-8.674 2.327-14.0764 2.327h-11.5982v21.338c0 .643-.2476 1.237-.7435 1.683-.4952.446-1.0898.743-1.7839.743zm15.4144-37.231h11.3994c2.7762 0 5.0062-.692 6.6912-2.129 1.636-1.435 2.478-3.614 2.478-6.534 0-2.476-.693-4.555-2.131-6.239-1.437-1.683-3.767-2.524-7.0382-2.524h-11.3994z"/><path d="m137.095 312.129c-.694 0-1.289-.248-1.735-.743s-.694-1.04-.694-1.683v-63.371c0-.693.248-1.287.694-1.733.446-.445.991-.693 1.735-.693h26.516c8.476 0 15.068 1.931 19.925 5.793 4.808 3.861 7.237 9.357 7.237 16.436 0 4.605-1.091 8.516-3.321 11.685-2.231 3.168-5.154 5.594-8.773 7.228l13.383 23.962c.198.396.297.742.297 1.089 0 .495-.198.99-.644 1.436-.447.396-.893.643-1.438.643h-12.986c-1.239 0-2.131-.297-2.725-.941-.596-.594-.992-1.188-1.289-1.683l-11.102-21.437h-9.963v21.635c0 .644-.248 1.238-.743 1.684-.496.445-1.091.742-1.785.742h-12.589zm15.117-37.924h11.201c3.074 0 5.354-.742 6.89-2.228 1.536-1.485 2.28-3.514 2.28-6.039 0-2.526-.744-4.555-2.181-6.14-1.437-1.534-3.767-2.326-6.989-2.326h-11.201z"/><path d="m198.158 312.128c-.496 0-.991-.199-1.438-.644-.446-.396-.644-.891-.644-1.435 0-.347.05-.594.099-.892l22.949-62.578c.198-.693.594-1.337 1.238-1.882.595-.545 1.487-.842 2.578-.842h14.423c1.09 0 1.983.248 2.577.842.595.545 1.041 1.189 1.24 1.882l22.849 62.578c.148.248.198.545.198.892 0 .494-.198.989-.645 1.435-.396.396-.941.644-1.487.644h-11.994c-.991 0-1.685-.248-2.181-.743-.495-.495-.792-.941-.941-1.336l-3.817-9.952h-26.07l-3.718 9.952c-.149.395-.446.841-.892 1.336s-1.239.743-2.33.743zm22.948-26.042h18.141l-9.071-25.744z"/><path d="m284.104 312.128c-.644 0-1.239-.248-1.685-.743-.496-.495-.743-1.039-.743-1.683v-20.942l-22.651-41.736c-.05-.198-.149-.347-.199-.544-.049-.198-.098-.347-.098-.545 0-.544.198-.99.644-1.436.445-.445.941-.644 1.536-.644h12.193c.991 0 1.734.248 2.28.743.545.496.941.941 1.14 1.337l13.977 25.15 14.026-25.15c.199-.396.546-.841 1.14-1.337.546-.495 1.338-.743 2.28-.743h12.193c.595 0 1.091.199 1.487.644.396.396.595.892.595 1.436 0 .198 0 .347-.05.545-.049.148-.098.346-.149.544l-22.65 41.736v20.942c0 .644-.248 1.238-.743 1.683-.496.495-1.091.743-1.785.743z"/><path d="m332.978 312.129c-.694 0-1.288-.248-1.734-.743-.447-.495-.694-1.04-.694-1.683v-63.371c0-.693.247-1.287.694-1.733.446-.445 1.04-.693 1.734-.693h27.31c5.403 0 10.111.842 14.076 2.476 4.015 1.683 7.138 4.158 9.368 7.475 2.231 3.318 3.371 7.526 3.371 12.575 0 5.001-1.14 9.11-3.371 12.378-2.23 3.267-5.353 5.644-9.368 7.228-4.014 1.535-8.673 2.327-14.076 2.327h-11.598v21.338c0 .643-.248 1.237-.744 1.683-.495.495-1.089.743-1.784.743zm15.415-37.231h11.399c2.776 0 5.006-.692 6.692-2.129 1.636-1.435 2.478-3.614 2.478-6.534 0-2.476-.694-4.555-2.131-6.239-1.438-1.683-3.767-2.524-7.039-2.524h-11.399z"/><path d="m387.945 312.128c-.495 0-.991-.199-1.437-.644-.446-.396-.645-.891-.645-1.436 0-.346.05-.594.1-.891l22.948-62.578c.198-.694.595-1.337 1.239-1.882.595-.545 1.487-.842 2.577-.842h14.423c1.091 0 1.983.248 2.578.842.595.545 1.041 1.188 1.239 1.882l22.849 62.578c.149.248.198.545.198.891 0 .495-.198.99-.644 1.436-.397.396-.941.644-1.487.644h-11.994c-.991 0-1.686-.248-2.181-.743-.496-.495-.793-.941-.942-1.337l-3.816-9.951h-26.071l-3.718 9.951c-.148.396-.446.842-.891 1.337-.447.495-1.24.743-2.33.743zm22.899-26.042h18.141l-9.071-25.745z"/><path d="m473.885 312.128c-.645 0-1.24-.248-1.686-.743-.495-.495-.743-1.04-.743-1.683v-20.943l-22.651-41.735c-.05-.198-.149-.347-.198-.545-.05-.148-.099-.346-.099-.545 0-.544.198-.989.644-1.435s.942-.644 1.536-.644h12.193c.991 0 1.735.248 2.28.743s.942.941 1.14 1.336l13.977 25.151 14.027-25.151c.198-.395.545-.841 1.14-1.336.545-.495 1.338-.743 2.28-.743h12.192c.596 0 1.091.198 1.487.644.397.396.596.891.596 1.435 0 .199 0 .348-.05.545-.05.149-.099.347-.149.545l-22.651 41.735v20.943c0 .643-.247 1.238-.743 1.683-.496.495-1.091.743-1.785.743z"/><path d="m104.037 358.024c-1.883 0-3.519-.347-4.8079-1.09-1.2887-.742-2.2798-1.782-2.9733-3.119-.6941-1.336-1.0411-2.871-1.0905-4.555 0-.99-.0501-2.029-.0501-3.168 0-1.09 0-2.129.0501-3.169.0494-1.732.4458-3.267 1.0905-4.604.6935-1.337 1.6846-2.327 2.9733-3.07 1.2889-.742 2.8749-1.089 4.7589-1.089 1.536 0 2.825.248 3.915.694 1.09.445 1.983 1.039 2.677 1.683.693.693 1.189 1.337 1.536 2.029.347.694.496 1.238.545 1.733 0 .198-.049.347-.148.495-.149.1-.298.198-.546.198h-.743c-.198 0-.347-.049-.446-.148s-.198-.247-.248-.495c-.199-.693-.595-1.337-1.09-1.981-.496-.643-1.24-1.138-2.082-1.534-.892-.397-1.983-.594-3.321-.594-1.983 0-3.569.544-4.8079 1.584-1.2387 1.039-1.8834 2.871-1.9822 5.347-.0494 1.98-.0494 3.96 0 5.941.0988 2.475.7435 4.258 1.9822 5.347 1.2389 1.089 2.8249 1.634 4.8079 1.634 1.289 0 2.478-.248 3.519-.743s1.834-1.238 2.478-2.277c.595-1.04.893-2.328.893-3.911v-1.783h-5.799c-.199 0-.397-.049-.546-.198-.148-.148-.198-.347-.198-.545v-.445c0-.248.05-.446.198-.545.149-.148.297-.198.546-.198h7.087c.248 0 .446.05.545.198.149.149.198.297.198.545v2.921c0 1.782-.346 3.317-1.04 4.654-.694 1.336-1.735 2.376-3.073 3.168-1.289.693-2.924 1.09-4.808 1.09z"/><path d="m120.496 357.678c-.198 0-.396-.049-.544-.198-.149-.148-.199-.297-.199-.544v-21.685c0-.248.05-.446.199-.545.148-.148.297-.198.544-.198h12.937c.248 0 .446.05.545.198.149.149.198.297.198.545v.495c0 .198-.049.396-.198.544-.149.149-.297.199-.545.199h-11.598v8.465h10.854c.249 0 .447.05.546.198.148.149.198.297.198.545v.495c0 .198-.05.396-.198.545-.149.148-.297.197-.546.197h-10.854v8.764h11.846c.248 0 .446.049.545.198.149.148.199.297.199.544v.496c0 .197-.05.396-.199.544-.148.149-.297.198-.545.198z"/><path d="m148.004 358.024c-1.785 0-3.321-.297-4.56-.841-1.239-.594-2.23-1.336-2.875-2.228-.644-.891-1.041-1.881-1.041-2.871 0-.199.05-.347.199-.446.148-.148.297-.198.495-.198h.644c.199 0 .397.05.496.198.099.149.198.297.198.446.099.594.347 1.237.843 1.832.446.594 1.14 1.138 2.082 1.534.892.397 2.081.594 3.519.594 2.18 0 3.767-.396 4.758-1.188s1.487-1.832 1.487-3.168c0-.892-.248-1.585-.793-2.129-.496-.545-1.289-1.04-2.38-1.436-1.04-.446-2.428-.891-4.063-1.436-1.587-.495-2.876-1.039-3.867-1.584-1.041-.544-1.784-1.188-2.23-1.98-.496-.792-.694-1.783-.694-2.971 0-1.138.297-2.129.892-3.02s1.487-1.584 2.627-2.129c1.14-.544 2.528-.792 4.163-.792 1.289 0 2.429.198 3.42.545.992.347 1.785.841 2.429 1.386.644.594 1.14 1.188 1.437 1.881.347.694.496 1.337.546 1.98 0 .149-.05.297-.149.446-.099.148-.297.198-.545.198h-.645c-.099 0-.247-.05-.396-.148-.149-.099-.248-.248-.298-.545-.148-1.089-.694-2.03-1.734-2.723-1.041-.742-2.379-1.089-4.015-1.089-1.635 0-2.974.297-4.015.941-1.04.643-1.536 1.634-1.536 3.02 0 .891.247 1.584.694 2.178.446.594 1.189 1.04 2.18 1.485.992.446 2.28.891 3.867 1.387 1.635.544 3.023 1.039 4.114 1.584 1.09.545 1.883 1.188 2.428 1.931.546.742.793 1.732.793 2.97 0 1.337-.347 2.475-.991 3.416-.694.941-1.636 1.634-2.875 2.129-1.388.594-2.875.841-4.609.841z"/><path d="m163.513 357.678c-.198 0-.396-.049-.545-.198-.148-.148-.198-.297-.198-.544v-21.685c0-.248.05-.446.198-.545.149-.148.297-.198.545-.198h8.079c1.537 0 2.875.247 4.015.792s2.032 1.287 2.676 2.327c.644.99.942 2.278.942 3.763s-.298 2.772-.942 3.762c-.644 1.04-1.536 1.782-2.676 2.278-1.14.544-2.478.792-4.015.792h-6.691v8.763c0 .198-.049.396-.198.545-.149.148-.298.197-.545.197h-.645zm1.339-11.486h6.542c1.933 0 3.37-.396 4.312-1.238.942-.841 1.388-2.029 1.388-3.614 0-1.584-.446-2.772-1.388-3.614s-2.379-1.237-4.312-1.237h-6.542z"/><path d="m185.971 357.678c-.198 0-.396-.049-.545-.198-.149-.148-.198-.297-.198-.544v-21.685c0-.248.049-.446.198-.545.149-.148.297-.198.545-.198h7.732c2.329 0 4.163.544 5.551 1.634 1.388 1.089 2.082 2.772 2.082 5.05 0 1.782-.446 3.168-1.338 4.257-.892 1.04-2.132 1.782-3.668 2.13l5.353 9.059c.05.149.099.248.099.347 0 .198-.049.347-.198.445-.149.149-.298.199-.446.199h-.397c-.347 0-.595-.099-.793-.297-.198-.199-.346-.396-.446-.594l-5.303-8.862h-6.84v9.06c0 .197-.05.396-.199.544-.148.149-.297.198-.545.198zm1.388-11.783h6.195c1.934 0 3.371-.396 4.312-1.188.942-.793 1.388-1.981 1.388-3.515 0-1.584-.446-2.723-1.388-3.515-.941-.793-2.378-1.188-4.312-1.188h-6.195z"/><path d="m208.866 357.678c-.199 0-.397-.049-.546-.198-.149-.148-.198-.297-.198-.544v-21.685c0-.248.049-.446.198-.545.149-.148.298-.198.546-.198h12.936c.248 0 .446.05.545.198.149.149.198.297.198.545v.495c0 .198-.049.396-.198.544-.149.149-.297.199-.545.199h-11.598v8.465h10.854c.248 0 .446.05.546.198.149.149.198.297.198.545v.495c0 .198-.049.396-.198.545-.149.148-.298.197-.546.197h-10.854v8.764h11.846c.247 0 .446.049.545.198.149.148.198.297.198.544v.496c0 .197-.049.396-.198.544-.149.149-.298.198-.545.198z"/><path d="m230.178 357.675c-.198 0-.396-.05-.545-.198-.148-.149-.198-.297-.198-.545v-21.734c0-.198.05-.396.198-.545.149-.149.297-.198.545-.198h.645c.198 0 .396.049.545.198.148.149.198.297.198.545v21.734c0 .198-.05.396-.198.545-.149.148-.298.198-.545.198z"/><path d="m240.14 357.678c-.198 0-.396-.049-.545-.198-.148-.148-.199-.297-.199-.544v-21.685c0-.248.051-.446.199-.545.149-.148.297-.198.545-.198h7.088c2.33 0 4.163.347 5.501 1.04 1.339.693 2.281 1.683 2.826 3.02s.842 2.97.892 4.901c0 .99.049 1.882.049 2.624 0 .743.001 1.634-.049 2.624-.05 2.03-.347 3.713-.892 5.05s-1.487 2.326-2.776 2.971c-1.288.643-3.073.989-5.353.989h-7.286zm1.388-1.98h5.7c1.784 0 3.172-.248 4.213-.693 1.041-.495 1.784-1.238 2.23-2.278.447-1.039.694-2.425.694-4.159 0-.643.05-1.237.05-1.732 0-.496 0-.991 0-1.485 0-.496 0-1.04-.05-1.734-.049-2.425-.595-4.208-1.685-5.396-1.091-1.138-2.974-1.732-5.601-1.732h-5.551z"/><path d="m274.488 357.678c-.199 0-.397-.049-.546-.198-.148-.148-.198-.297-.198-.544v-21.685c0-.248.05-.446.198-.545.149-.148.298-.198.546-.198h8.674c1.536 0 2.825.297 3.816.841.991.545 1.685 1.288 2.181 2.179.446.892.694 1.881.694 2.921 0 .941-.149 1.782-.446 2.426-.298.693-.694 1.238-1.14 1.634-.447.396-.892.742-1.338.94.891.446 1.685 1.139 2.329 2.13.644.989 1.041 2.128 1.041 3.564 0 1.089-.248 2.178-.793 3.168-.496.991-1.289 1.833-2.33 2.476s-2.279.94-3.816.94h-8.872zm1.338-13.12h6.889c1.636 0 2.875-.347 3.718-1.089.842-.743 1.289-1.732 1.289-3.069 0-1.288-.447-2.278-1.289-2.971-.843-.693-2.082-.99-3.718-.99h-6.889zm0 11.14h7.187c1.635 0 2.924-.446 3.816-1.288.893-.841 1.338-1.931 1.338-3.267 0-1.337-.445-2.426-1.338-3.317-.892-.841-2.181-1.287-3.816-1.287h-7.187z"/><path d="m297.787 357.678c-.198 0-.396-.049-.545-.198-.149-.148-.198-.297-.198-.544v-21.685c0-.248.049-.446.198-.545.149-.148.298-.198.545-.198h12.937c.247 0 .446.05.545.198.149.149.198.297.198.545v.495c0 .198-.049.396-.198.544-.149.149-.298.199-.545.199h-11.598v8.465h10.854c.248 0 .446.05.546.198.148.149.198.297.198.545v.495c0 .198-.05.396-.198.545-.149.148-.298.197-.546.197h-10.854v8.764h11.845c.249 0 .447.049.546.198.149.148.198.297.198.544v.496c0 .197-.049.396-.198.544-.149.149-.297.198-.546.198z"/><path d="m324.152 357.678c-.198 0-.397-.049-.545-.198-.149-.148-.198-.297-.198-.544v-20.447h-6.592c-.198 0-.397-.05-.546-.199-.148-.148-.198-.297-.198-.544v-.495c0-.248.05-.446.198-.545.149-.148.297-.198.546-.198h15.216c.248 0 .446.05.545.198.148.149.198.297.198.545v.495c0 .198-.05.396-.198.544-.149.149-.297.199-.545.199h-6.543v20.496c0 .198-.05.396-.198.545-.149.148-.298.197-.545.197h-.595z"/><path d="m334.365 357.679c-.198 0-.347-.049-.446-.198-.148-.148-.198-.297-.198-.445 0-.1 0-.248.05-.347l8.376-21.486c.099-.199.198-.397.347-.496.149-.098.347-.148.594-.148h1.14c.249 0 .447.05.595.148.149.099.248.297.347.496l8.377 21.486c.049.149.049.247.049.347 0 .197-.049.346-.198.445-.149.149-.297.198-.446.198h-.645c-.198 0-.396-.049-.495-.198-.099-.099-.198-.248-.248-.297l-2.082-5.297h-11.746l-2.082 5.297c0 .099-.099.198-.198.297-.099.1-.298.198-.496.198zm4.263-7.772h10.161l-5.056-13.071z"/><path d="m359.937 357.675c-.198 0-.397-.05-.545-.198-.149-.149-.199-.297-.199-.545v-21.734c0-.198.05-.396.199-.545.148-.149.297-.198.545-.198h.644c.198 0 .397.049.545.198.149.149.198.297.198.545v20.496h11.45c.248 0 .446.05.545.199.149.148.198.297.198.544v.495c0 .198-.049.396-.198.545-.149.148-.297.198-.545.198z"/><path d="m379.816 357.678c-.198 0-.397-.049-.546-.198-.148-.148-.198-.297-.198-.544v-21.685c0-.248.05-.446.198-.545.149-.148.297-.198.546-.198h12.936c.248 0 .446.05.545.198.149.149.198.297.198.545v.495c0 .198-.049.396-.198.544-.148.149-.297.199-.545.199h-11.598v8.465h10.855c.247 0 .445.05.544.198.149.149.199.297.199.545v.495c0 .198-.05.396-.199.545-.148.148-.297.197-.544.197h-10.855v8.764h11.846c.247 0 .446.049.545.198.148.148.198.297.198.544v.496c0 .197-.05.396-.198.544-.149.149-.298.198-.545.198z"/><path d="m401.076 357.678c-.198 0-.396-.049-.545-.198-.149-.148-.198-.297-.198-.544v-21.685c0-.248.049-.446.198-.545.149-.148.298-.198.545-.198h.695c.198 0 .396.05.495.149.099.098.198.198.198.247l12.242 18.665v-18.318c0-.248.05-.446.199-.545.148-.148.297-.198.545-.198h.595c.248 0 .446.05.545.198.149.149.198.297.198.545v21.685c0 .197-.049.396-.198.544-.148.149-.297.198-.545.198h-.743c-.199 0-.397-.049-.496-.148-.1-.1-.149-.199-.198-.248l-12.193-18.616v18.27c0 .197-.05.396-.199.544-.148.149-.297.198-.545.198z"/><path d="m157.469 212.123c-2.479 0-4.461-2.03-4.461-4.456v-49.211c0-2.476 2.032-4.456 4.461-4.456 2.478 0 4.46 2.03 4.46 4.456v49.211c0 2.426-2.032 4.456-4.46 4.456z"/><path d="m175.359 217.661c-2.478 0-4.461-2.029-4.461-4.455v-44.756c0-2.476 2.033-4.456 4.461-4.456 2.478 0 4.461 2.03 4.461 4.456v44.756c0 2.426-1.983 4.455-4.461 4.455z"/><path d="m193.251 220.782c-2.478 0-4.461-2.029-4.461-4.455v-40.25c0-2.476 2.032-4.456 4.461-4.456 2.478 0 4.461 2.03 4.461 4.456v40.25c.049 2.475-1.983 4.455-4.461 4.455z"/><path d="m211.193 221.87c-2.478 0-4.461-2.029-4.461-4.455v-35.795c0-2.476 2.033-4.456 4.461-4.456 2.478 0 4.461 2.03 4.461 4.456v35.795c0 2.426-1.983 4.455-4.461 4.455z"/><path d="m229.091 220.887c-2.479 0-4.461-2.03-4.461-4.456v-31.339c0-2.475 2.032-4.455 4.461-4.455 2.478 0 4.46 2.029 4.46 4.455v31.339c.05 2.426-1.982 4.456-4.46 4.456z"/><path d="m247.034 218.106c-2.478 0-4.461-2.029-4.461-4.455v-26.834c0-2.475 2.032-4.456 4.461-4.456 2.478 0 4.461 2.03 4.461 4.456v26.834c0 2.426-2.032 4.455-4.461 4.455z"/><path d="m264.925 213.651c-2.479 0-4.461-2.03-4.461-4.456v-22.378c0-2.475 2.032-4.456 4.461-4.456 2.478 0 4.46 2.03 4.46 4.456v22.378c0 2.426-1.982 4.456-4.46 4.456z"/><path d="m282.868 207.46c-2.478 0-4.461-2.03-4.461-4.456v-17.872c0-2.475 2.032-4.456 4.461-4.456 2.478 0 4.461 2.03 4.461 4.456v17.872c0 2.426-2.032 4.456-4.461 4.456z"/><path d="m300.759 199.493c-2.478 0-4.461-2.03-4.461-4.456v-13.417c0-2.476 2.032-4.456 4.461-4.456 2.478 0 4.461 2.03 4.461 4.456v13.417c0 2.475-1.983 4.456-4.461 4.456z"/><path d="m318.65 189.493c-2.478 0-4.461-2.029-4.461-4.455v-8.961c0-2.476 2.033-4.456 4.461-4.456 2.478 0 4.461 2.03 4.461 4.456v8.961c.05 2.426-1.983 4.455-4.461 4.455z"/><path d="m336.593 177.412c-2.478 0-4.461-2.03-4.461-4.456v-4.455c0-2.476 2.032-4.456 4.461-4.456 2.478 0 4.461 2.03 4.461 4.456v4.455c0 2.426-1.983 4.456-4.461 4.456z"/><path d="m354.484 162.911c-2.478 0-4.461-2.03-4.461-4.455 0-2.476 2.033-4.456 4.461-4.456 2.478 0 4.461 2.03 4.461 4.456.05 2.425-1.983 4.455-4.461 4.455z"/></g></svg>