<?xml version="1.0" encoding="UTF-8"?>
<svg width="51" height="32" viewBox="0 0 51 32" xmlns="http://www.w3.org/2000/svg" xmlns:xlink="http://www.w3.org/1999/xlink">
    <path id="Path" fill="#ffffff" stroke="#d0d0d0" stroke-linecap="round" stroke-linejoin="round" d="M 0.5 0.5 L 50.5 0.5 L 50.5 31.5 L 0.5 31.5 Z"/>
    <path id="Path-copy-20" fill="#00a9ce" stroke="none" d="M 40.242367 21.937645 C 40.197243 21.937645 40.155621 21.920296 40.124416 21.885668 C 40.08979 21.85104 40.072441 21.812914 40.072441 21.767933 L 40.072441 20.302843 L 38.487869 17.38323 C 38.484371 17.369379 38.477448 17.358955 38.474018 17.345104 C 38.47052 17.334749 38.467091 17.320898 38.467091 17.306978 C 38.467091 17.268921 38.480942 17.237791 38.512142 17.206591 C 38.543346 17.17539 38.578041 17.161539 38.619595 17.161539 L 39.472569 17.161539 C 39.541897 17.161539 39.593945 17.178888 39.632069 17.213516 C 39.670197 17.248144 39.697971 17.279345 39.711823 17.306978 L 40.689594 19.066441 L 41.670868 17.306978 C 41.684719 17.279345 41.708992 17.248144 41.750618 17.213516 C 41.788742 17.178888 41.844219 17.161539 41.910114 17.161539 L 42.76302 17.161539 C 42.804714 17.161539 42.839344 17.17539 42.867046 17.206591 C 42.894821 17.234293 42.908737 17.268921 42.908737 17.306978 C 42.908737 17.320898 42.908737 17.331322 42.905243 17.345104 C 42.901745 17.355528 42.898315 17.369379 42.894821 17.38323 L 41.310246 20.302843 L 41.310246 21.767933 C 41.310246 21.812914 41.292965 21.854538 41.258266 21.885668 C 41.223568 21.920296 41.181942 21.937645 41.133396 21.937645 Z"/>
    <path id="Path-copy-19" fill="#00a9ce" stroke="none" d="M 34.230347 21.937645 C 34.195717 21.937645 34.161018 21.923725 34.129818 21.892593 C 34.098621 21.864891 34.084698 21.830263 34.084698 21.792137 C 34.084698 21.767933 34.088196 21.750584 34.091694 21.729805 L 35.697044 17.352098 C 35.710896 17.303549 35.738667 17.258568 35.783718 17.220442 C 35.825344 17.182316 35.887745 17.161539 35.963997 17.161539 L 36.972969 17.161539 C 37.049294 17.161539 37.111694 17.178888 37.153316 17.220442 C 37.194942 17.258568 37.226143 17.303549 37.239994 17.352098 L 38.838417 21.729805 C 38.848843 21.747154 38.852268 21.767933 38.852268 21.792137 C 38.852268 21.826765 38.838417 21.861393 38.807217 21.892593 C 38.779446 21.920296 38.74139 21.937645 38.703194 21.937645 L 37.864143 21.937645 C 37.794815 21.937645 37.746197 21.920296 37.711567 21.885668 C 37.676868 21.85104 37.656094 21.819839 37.645668 21.792137 L 37.378716 21.096004 L 35.554893 21.096004 L 35.294796 21.792137 C 35.284443 21.819839 35.263596 21.85104 35.232464 21.885668 C 35.201195 21.920296 35.145721 21.937645 35.069469 21.937645 Z M 35.832268 20.11585 L 37.101341 20.11585 L 36.46677 18.314835 Z"/>
    <path id="Path-copy-18" fill="#00a9ce" stroke="none" d="M 30.385073 21.937716 C 30.336525 21.937716 30.294971 21.920366 30.263769 21.885738 C 30.2325 21.85111 30.215219 21.812984 30.215219 21.768002 L 30.215219 17.33482 C 30.215219 17.286341 30.2325 17.244785 30.263769 17.213585 C 30.294971 17.182455 30.336525 17.165108 30.385073 17.165108 L 32.29557 17.165108 C 32.673546 17.165108 33.002895 17.224009 33.280273 17.338318 C 33.561146 17.456053 33.779621 17.629194 33.935619 17.861237 C 34.091694 18.093353 34.171444 18.387728 34.171444 18.740936 C 34.171444 19.090786 34.091694 19.378235 33.935619 19.60685 C 33.779621 19.835396 33.561146 20.001682 33.280273 20.112492 C 32.99947 20.219875 32.673546 20.27528 32.29557 20.27528 L 31.484222 20.27528 L 31.484222 21.768002 C 31.484222 21.812984 31.466873 21.854538 31.432177 21.885738 C 31.397547 21.920366 31.355993 21.937716 31.307373 21.937716 Z M 31.463446 19.333183 L 32.260872 19.333183 C 32.45507 19.333183 32.611073 19.284773 32.729019 19.184246 C 32.843468 19.083858 32.90237 18.931427 32.90237 18.727154 C 32.90237 18.553944 32.853821 18.408504 32.753296 18.290699 C 32.652699 18.172962 32.489769 18.11413 32.260872 18.11413 L 31.463446 18.11413 Z"/>
    <path id="Path-copy-17" fill="#00358e" stroke="none" d="M 26.966043 21.937645 C 26.920992 21.937645 26.879368 21.920296 26.848167 21.885668 C 26.813471 21.85104 26.79619 21.812984 26.79619 21.767933 L 26.79619 20.302914 L 25.211617 17.38323 C 25.20812 17.369379 25.201195 17.358955 25.197695 17.345173 C 25.194269 17.331322 25.19084 17.320898 25.19084 17.307047 C 25.19084 17.268991 25.204691 17.237791 25.235893 17.206591 C 25.267021 17.175461 25.30172 17.161539 25.343344 17.161539 L 26.19632 17.161539 C 26.265644 17.161539 26.317621 17.178888 26.355818 17.213516 C 26.393944 17.248213 26.421646 17.279345 26.435568 17.307047 L 27.413342 19.066441 L 28.394545 17.307047 C 28.408466 17.279345 28.432741 17.248213 28.474295 17.213516 C 28.512491 17.178888 28.567898 17.161539 28.633795 17.161539 L 29.486769 17.161539 C 29.528393 17.161539 29.563091 17.175461 29.590794 17.206591 C 29.618496 17.234293 29.632416 17.268991 29.632416 17.307047 C 29.632416 17.320898 29.632416 17.331322 29.62892 17.345173 C 29.62549 17.355528 29.622065 17.369379 29.618496 17.38323 L 28.033993 20.302914 L 28.033993 21.767933 C 28.033993 21.812984 28.016644 21.854538 27.982016 21.885668 C 27.947317 21.920296 27.905693 21.937645 27.857143 21.937645 Z"/>
    <path id="Path-copy-16" fill="#00358e" stroke="none" d="M 20.953604 21.937645 C 20.918905 21.937645 20.884277 21.923725 20.853008 21.892593 C 20.821806 21.864891 20.807955 21.830263 20.807955 21.792206 C 20.807955 21.767933 20.811455 21.750652 20.81488 21.729805 L 22.420301 17.352098 C 22.434153 17.303619 22.461855 17.258568 22.506908 17.220442 C 22.548532 17.182316 22.610931 17.161539 22.687254 17.161539 L 23.69623 17.161539 C 23.772482 17.161539 23.834953 17.178888 23.876507 17.220442 C 23.918131 17.258568 23.949329 17.303619 23.963251 17.352098 L 25.561676 21.729805 C 25.572031 21.747154 25.575527 21.767933 25.575527 21.792206 C 25.575527 21.826765 25.561676 21.861393 25.530407 21.892593 C 25.502705 21.920296 25.464577 21.937645 25.426382 21.937645 L 24.58733 21.937645 C 24.518002 21.937645 24.469452 21.920296 24.434757 21.885668 C 24.400126 21.85104 24.379349 21.819839 24.368927 21.792206 L 24.101904 21.096004 L 22.278152 21.096004 L 22.018055 21.792206 C 22.007631 21.819839 21.986855 21.85104 21.955654 21.885668 C 21.924454 21.920296 21.86898 21.937645 21.792658 21.937645 Z M 22.558954 20.11585 L 23.828028 20.11585 L 23.193455 18.314903 Z"/>
    <path id="Path-copy-15" fill="#00358e" stroke="none" d="M 16.681881 21.937716 C 16.633331 21.937716 16.591707 21.920366 16.560507 21.885738 C 16.529306 21.85111 16.511957 21.812984 16.511957 21.768002 L 16.511957 17.33482 C 16.511957 17.286341 16.529306 17.244785 16.560507 17.213585 C 16.591707 17.182455 16.629833 17.165108 16.681881 17.165108 L 18.536833 17.165108 C 19.129782 17.165108 19.590931 17.300192 19.930708 17.570362 C 20.267056 17.840462 20.436979 18.224941 20.436979 18.720158 C 20.436979 19.042305 20.360659 19.315903 20.204655 19.537594 C 20.048582 19.759216 19.844103 19.928928 19.590931 20.043236 L 20.527153 21.719522 C 20.541004 21.747227 20.54793 21.771431 20.54793 21.795704 C 20.54793 21.830334 20.534079 21.864962 20.502878 21.896162 C 20.471607 21.923864 20.440407 21.941143 20.402281 21.941143 L 19.493832 21.941143 C 19.407158 21.941143 19.344757 21.920366 19.303202 21.875315 C 19.261509 21.833761 19.233807 21.792206 19.213028 21.75758 L 18.436377 20.257931 L 17.739407 20.257931 L 17.739407 21.771431 C 17.739407 21.816483 17.722057 21.858036 17.687428 21.889236 C 17.652731 21.920366 17.611107 21.941143 17.562557 21.941143 L 16.681881 21.941143 Z M 17.739407 19.284702 L 18.522982 19.284702 C 18.738028 19.284702 18.897528 19.232796 19.00498 19.128841 C 19.112432 19.024958 19.164478 18.883015 19.164478 18.706377 C 19.164478 18.529669 19.112432 18.387728 19.011906 18.276848 C 18.911379 18.169537 18.748381 18.11413 18.522982 18.11413 L 17.739407 18.11413 Z"/>
    <path id="Path-copy-14" fill="#00358e" stroke="none" d="M 12.066882 21.937716 C 12.018332 21.937716 11.976709 21.920366 11.945509 21.885738 C 11.914309 21.85111 11.896959 21.812984 11.896959 21.768002 L 11.896959 17.33482 C 11.896959 17.286341 11.914309 17.244785 11.945509 17.213585 C 11.976709 17.182455 12.018332 17.165108 12.066882 17.165108 L 13.977381 17.165108 C 14.355284 17.165108 14.684707 17.224009 14.962082 17.338318 C 15.242885 17.456053 15.461358 17.629194 15.61743 17.861237 C 15.773431 18.093353 15.853181 18.387728 15.853181 18.740936 C 15.853181 19.090786 15.773431 19.378235 15.61743 19.60685 C 15.461358 19.835396 15.242885 20.001682 14.962082 20.112492 C 14.681209 20.219875 14.355284 20.27528 13.977381 20.27528 L 13.165961 20.27528 L 13.165961 21.768002 C 13.165961 21.812984 13.148683 21.854538 13.113984 21.885738 C 13.079356 21.916939 13.037732 21.937716 12.989182 21.937716 Z M 13.145185 19.333183 L 13.942682 19.333183 C 14.136881 19.333183 14.292883 19.284773 14.410759 19.184246 C 14.525208 19.083858 14.584109 18.931427 14.584109 18.727154 C 14.584109 18.553944 14.535629 18.408504 14.435034 18.290699 C 14.334506 18.172962 14.17151 18.11413 13.942682 18.11413 L 13.145185 18.11413 Z"/>
    <path id="Path-copy-13" fill="#00358e" stroke="none" d="M 9.154313 22.006901 C 8.700124 22.006901 8.322172 21.941074 8.020514 21.812914 C 7.718857 21.684753 7.493487 21.51511 7.337451 21.303844 C 7.181421 21.096004 7.101671 20.870886 7.091261 20.635344 C 7.091261 20.597288 7.105126 20.566088 7.136362 20.534958 C 7.167548 20.503757 7.20224 20.489906 7.243842 20.489906 L 8.103714 20.489906 C 8.166142 20.489906 8.214699 20.500259 8.249341 20.524532 C 8.284032 20.545311 8.315219 20.576511 8.342999 20.611139 C 8.37764 20.680397 8.429652 20.746223 8.49553 20.808556 C 8.561407 20.870886 8.648111 20.922863 8.759048 20.960918 C 8.866521 20.999046 9.001781 21.019821 9.154313 21.019821 C 9.41783 21.019821 9.618982 20.978268 9.750709 20.898588 C 9.882506 20.818977 9.951833 20.70467 9.951833 20.566088 C 9.951833 20.462204 9.917134 20.379095 9.84431 20.313267 C 9.771486 20.250935 9.65361 20.192032 9.494117 20.140125 C 9.331176 20.088148 9.116173 20.032742 8.8492 19.980766 C 8.502491 19.908081 8.207738 19.814552 7.965047 19.696814 C 7.722313 19.582508 7.53509 19.430141 7.410289 19.239582 C 7.28199 19.052589 7.219561 18.817047 7.219561 18.533028 C 7.219561 18.256001 7.29931 18.006607 7.45534 17.788414 C 7.611377 17.570293 7.833292 17.400579 8.11413 17.275845 C 8.395011 17.154613 8.73131 17.092283 9.116173 17.092283 C 9.431696 17.092283 9.705587 17.133837 9.944837 17.216944 C 10.184156 17.300121 10.38521 17.407434 10.548207 17.546017 C 10.711135 17.68453 10.835937 17.82654 10.919185 17.978973 C 11.002432 18.13134 11.047483 18.280205 11.050981 18.425713 C 11.050981 18.46384 11.037129 18.49497 11.012856 18.526171 C 10.988581 18.553802 10.953882 18.571152 10.905334 18.571152 L 10.00381 18.571152 C 9.95526 18.571152 9.910209 18.560799 9.87551 18.543449 C 9.837384 18.526171 9.806184 18.49497 9.778481 18.453417 C 9.750709 18.352959 9.677884 18.266424 9.563451 18.190243 C 9.449065 18.117489 9.296485 18.079361 9.109262 18.079361 C 8.908173 18.079361 8.752135 18.113991 8.641157 18.183247 C 8.530222 18.256001 8.474753 18.363384 8.474753 18.508821 C 8.474753 18.598854 8.505947 18.678535 8.568368 18.747791 C 8.630741 18.817047 8.73131 18.87595 8.876938 18.924431 C 9.019102 18.97291 9.216742 19.024887 9.466387 19.080292 C 9.879008 19.156475 10.215357 19.253504 10.468457 19.371239 C 10.721559 19.488976 10.912259 19.637913 11.030134 19.821476 C 11.151508 20.005039 11.210482 20.237083 11.210482 20.514179 C 11.210482 20.822407 11.120308 21.089079 10.943459 21.310699 C 10.76661 21.532391 10.523863 21.705532 10.215357 21.826765 C 9.913636 21.944572 9.559995 22.006901 9.154313 22.006901 Z"/>
    <linearGradient id="linearGradient1" x1="17.825731" y1="12.907654" x2="32.161677" y2="12.907654" gradientUnits="userSpaceOnUse">
        <stop offset="1e-05" stop-color="#00358e" stop-opacity="1"/>
        <stop offset="1" stop-color="#00a9ce" stop-opacity="1"/>
    </linearGradient>
    <path id="Path-copy-12" fill="url(#linearGradient1)" stroke="none" d="M 18.107164 14.941694 C 17.933744 14.941694 17.79509 14.799685 17.79509 14.629971 L 17.79509 11.187344 C 17.79509 11.014168 17.937241 10.875641 18.107164 10.875641 C 18.280516 10.875641 18.419168 11.017624 18.419168 11.187344 L 18.419168 14.629971 C 18.419168 14.799685 18.277018 14.941694 18.107164 14.941694 Z"/>
    <linearGradient id="linearGradient2" x1="17.825591" y1="13.451701" x2="32.161537" y2="13.451701" gradientUnits="userSpaceOnUse">
        <stop offset="1e-05" stop-color="#00358e" stop-opacity="1"/>
        <stop offset="1" stop-color="#00a9ce" stop-opacity="1"/>
    </linearGradient>
    <path id="Path-copy-11" fill="url(#linearGradient2)" stroke="none" d="M 19.358677 15.329111 C 19.185326 15.329111 19.046602 15.18717 19.046602 15.017456 L 19.046602 11.886492 C 19.046602 11.713322 19.188824 11.574789 19.358677 11.574789 C 19.532028 11.574789 19.670752 11.71677 19.670752 11.886492 L 19.670752 15.017456 C 19.670752 15.18717 19.532028 15.329111 19.358677 15.329111 Z"/>
    <linearGradient id="linearGradient3" x1="17.825521" y1="13.827435" x2="32.161467" y2="13.827435" gradientUnits="userSpaceOnUse">
        <stop offset="1e-05" stop-color="#00358e" stop-opacity="1"/>
        <stop offset="1" stop-color="#00a9ce" stop-opacity="1"/>
    </linearGradient>
    <path id="Path-copy-10" fill="url(#linearGradient3)" stroke="none" d="M 20.610331 15.547443 C 20.436979 15.547443 20.298256 15.405502 20.298256 15.235788 L 20.298256 12.420059 C 20.298256 12.246872 20.440407 12.108343 20.610331 12.108343 C 20.783682 12.108343 20.922405 12.250326 20.922405 12.420059 L 20.922405 15.235788 C 20.925831 15.408932 20.783682 15.547443 20.610331 15.547443 Z"/>
    <linearGradient id="linearGradient4" x1="17.825521" y1="14.05892" x2="32.161467" y2="14.05892" gradientUnits="userSpaceOnUse">
        <stop offset="1e-05" stop-color="#00358e" stop-opacity="1"/>
        <stop offset="1" stop-color="#00a9ce" stop-opacity="1"/>
    </linearGradient>
    <path id="Path-copy-9" fill="url(#linearGradient4)" stroke="none" d="M 21.86548 15.623556 C 21.692129 15.623556 21.553408 15.481615 21.553408 15.311901 L 21.553408 12.807825 C 21.553408 12.634613 21.695629 12.496103 21.86548 12.496103 C 22.038832 12.496103 22.177555 12.638113 22.177555 12.807825 L 22.177555 15.311901 C 22.177555 15.481615 22.038832 15.623556 21.86548 15.623556 Z"/>
    <linearGradient id="linearGradient5" x1="17.825871" y1="14.146994" x2="32.161817" y2="14.146994" gradientUnits="userSpaceOnUse">
        <stop offset="1e-05" stop-color="#00358e" stop-opacity="1"/>
        <stop offset="1" stop-color="#00a9ce" stop-opacity="1"/>
    </linearGradient>
    <path id="Path-copy-8" fill="url(#linearGradient5)" stroke="none" d="M 23.117554 15.554789 C 22.944132 15.554789 22.805481 15.412777 22.805481 15.243065 L 22.805481 13.050713 C 22.805481 12.877573 22.94763 12.739059 23.117554 12.739059 C 23.290905 12.739059 23.429558 12.881001 23.429558 13.050713 L 23.429558 15.243065 C 23.433056 15.412777 23.290905 15.554789 23.117554 15.554789 Z"/>
    <linearGradient id="linearGradient6" x1="17.825941" y1="14.108868" x2="32.161957" y2="14.108868" gradientUnits="userSpaceOnUse">
        <stop offset="1e-05" stop-color="#00358e" stop-opacity="1"/>
        <stop offset="1" stop-color="#00a9ce" stop-opacity="1"/>
    </linearGradient>
    <path id="path1" fill="url(#linearGradient6)" stroke="none" d="M 24.372774 15.360241 C 24.199423 15.360241 24.060701 15.2183 24.060701 15.048588 L 24.060701 13.171389 C 24.060701 12.998247 24.202852 12.859663 24.372774 12.859663 C 24.546125 12.859663 24.684847 13.001675 24.684847 13.171389 L 24.684847 15.048588 C 24.684847 15.2183 24.542698 15.360241 24.372774 15.360241 Z"/>
    <linearGradient id="linearGradient7" x1="17.825801" y1="13.952377" x2="32.161747" y2="13.952377" gradientUnits="userSpaceOnUse">
        <stop offset="1e-05" stop-color="#00358e" stop-opacity="1"/>
        <stop offset="1" stop-color="#00a9ce" stop-opacity="1"/>
    </linearGradient>
    <path id="path2" fill="url(#linearGradient7)" stroke="none" d="M 25.624357 15.048588 C 25.450937 15.048588 25.312283 14.906576 25.312283 14.736864 L 25.312283 13.171389 C 25.312283 12.998247 25.454435 12.859663 25.624357 12.859663 C 25.797709 12.859663 25.936361 13.001675 25.936361 13.171389 L 25.936361 14.736864 C 25.936361 14.906576 25.797709 15.048588 25.624357 15.048588 Z"/>
    <linearGradient id="linearGradient8" x1="17.825871" y1="13.67689" x2="32.161817" y2="13.67689" gradientUnits="userSpaceOnUse">
        <stop offset="1e-05" stop-color="#00358e" stop-opacity="1"/>
        <stop offset="1" stop-color="#00a9ce" stop-opacity="1"/>
    </linearGradient>
    <path id="path3" fill="url(#linearGradient8)" stroke="none" d="M 26.87958 14.61549 C 26.706228 14.61549 26.567505 14.473478 26.567505 14.303766 L 26.567505 13.053513 C 26.567505 12.880371 26.709654 12.741787 26.87958 12.741787 C 27.052929 12.741787 27.191652 12.883799 27.191652 13.053513 L 27.191652 14.303766 C 27.191652 14.473478 27.049501 14.61549 26.87958 14.61549 Z"/>
    <linearGradient id="linearGradient9" x1="17.825731" y1="13.276532" x2="32.161747" y2="13.276532" gradientUnits="userSpaceOnUse">
        <stop offset="1e-05" stop-color="#00358e" stop-opacity="1"/>
        <stop offset="1" stop-color="#00a9ce" stop-opacity="1"/>
    </linearGradient>
    <path id="path4" fill="url(#linearGradient9)" stroke="none" d="M 28.131161 14.058149 C 27.957811 14.058149 27.819088 13.91614 27.819088 13.746426 L 27.819088 12.807825 C 27.819088 12.634613 27.961237 12.496103 28.131161 12.496103 C 28.304512 12.496103 28.443235 12.638113 28.443235 12.807825 L 28.443235 13.746426 C 28.443235 13.919567 28.304512 14.058149 28.131161 14.058149 Z"/>
    <linearGradient id="linearGradient10" x1="17.825661" y1="12.732134" x2="32.161607" y2="12.732134" gradientUnits="userSpaceOnUse">
        <stop offset="1e-05" stop-color="#00358e" stop-opacity="1"/>
        <stop offset="1" stop-color="#00a9ce" stop-opacity="1"/>
    </linearGradient>
    <path id="path5" fill="url(#linearGradient10)" stroke="none" d="M 29.382744 13.358589 C 29.209393 13.358589 29.070669 13.216648 29.070669 13.046936 L 29.070669 12.420059 C 29.070669 12.246872 29.212891 12.108343 29.382744 12.108343 C 29.556095 12.108343 29.694817 12.250326 29.694817 12.420059 L 29.694817 13.046936 C 29.698317 13.216648 29.556095 13.358589 29.382744 13.358589 Z"/>
    <linearGradient id="linearGradient11" x1="17.825661" y1="12.04355" x2="32.161607" y2="12.04355" gradientUnits="userSpaceOnUse">
        <stop offset="1e-05" stop-color="#00358e" stop-opacity="1"/>
        <stop offset="1" stop-color="#00a9ce" stop-opacity="1"/>
    </linearGradient>
    <path id="path6" fill="url(#linearGradient11)" stroke="none" d="M 30.637964 12.513451 C 30.464613 12.513451 30.32589 12.371462 30.32589 12.201748 L 30.32589 11.890045 C 30.32589 11.716867 30.468042 11.578342 30.637964 11.578342 C 30.811317 11.578342 30.950037 11.720325 30.950037 11.890045 L 30.950037 12.201748 C 30.950037 12.371462 30.811317 12.513451 30.637964 12.513451 Z"/>
    <linearGradient id="linearGradient12" x1="17.825591" y1="11.186421" x2="32.161537" y2="11.186421" gradientUnits="userSpaceOnUse">
        <stop offset="1e-05" stop-color="#00358e" stop-opacity="1"/>
        <stop offset="1" stop-color="#00a9ce" stop-opacity="1"/>
    </linearGradient>
    <path id="path7" fill="url(#linearGradient12)" stroke="none" d="M 31.889549 11.499048 C 31.716198 11.499048 31.577475 11.357016 31.577475 11.187344 C 31.577475 11.014168 31.719694 10.875641 31.889549 10.875641 C 32.062901 10.875641 32.201622 11.017624 32.201622 11.187344 C 32.20512 11.357016 32.062901 11.499048 31.889549 11.499048 Z"/>
</svg>
