<svg xmlns="http://www.w3.org/2000/svg" width="51" height="32"><g fill="none" fill-rule="evenodd"><path fill="#FFF" stroke="#D0D0D0" d="M.5.5h50v31H.5z"/><path d="M-137.871 17.965c39.738-17.61 86.93-17.512 126.57.36 23.938 10.66 45.04 27.53 60.848 48.421-1.93 2.93-3.918 5.82-5.89 8.719-15.618 23.46-24.2 51.34-25.329 79.45-1.219 32.8 7.93 66.1 26.531 93.222 1.59 2.289 3.168 4.566 4.73 6.867-18.112 24.062-43.331 42.7-71.69 52.84-29.82 10.75-62.942 12.062-93.551 3.84-32.399-8.61-61.73-28.141-82.32-54.57-18.86-23.989-30.43-53.637-32.641-84.071-2.52-31.008 4.562-62.738 20.101-89.707 16.438-28.77 42.27-52.09 72.64-65.371m767.988-8.469c37.93-9.512 79.45-4.422 113.64 14.7 24.7 13.577 45.532 34.038 59.673 58.41 13.636 23.64 21.34 50.949 20.707 78.308.601 24.129-5.418 48.223-16.11 69.79-13.879 27.862-36.359 51.331-63.52 66.53-28.737 16.2-62.71 22.649-95.417 18.61-41.383-4.918-80.55-27.34-105.262-60.957 9.762-13.492 17.969-28.184 23.149-44.051 12.14-36 10.62-76.39-4.41-111.3-4.708-11.75-11.637-22.391-18.77-32.79 21.152-28.16 52.152-48.742 86.32-57.25m-508.23 4.258c28.14-10.02 59.18-11.559 88.25-4.8 33.93 7.952 64.98 27.722 86.48 55.151 21.84-27.628 53.18-47.62 87.57-55.37 36.141-8.25 75.211-3.36 107.961 14.12 20.09 10.711 37.961 25.73 51.57 44.008-17.902 24.032-29.1 53.16-30.902 83.133-2.988 37.238 8.582 75.16 30.93 105.02-19.93 26.43-48.437 46.277-80.219 55.597-43.328 12.992-92.23 5.992-129.918-19.11-14.062-9.128-26.472-20.698-36.941-33.757-20.75 26.277-50.11 45.629-82.512 54.129-25.386 6.691-52.468 6.809-77.949.508-34.258-8.547-65.52-29.078-86.55-57.469 22.78-30.34 34.19-69.11 30.679-106.937-2.098-29.274-13.227-57.633-30.707-81.122 18.09-24.351 43.707-42.93 72.258-53.101m0 0" style="fill:#0cbd8f;fill-opacity:1;fill-rule:evenodd;stroke:none" transform="matrix(.02828 0 0 .02828 17.115 11.45)"/><path d="M288.246 76.047c2.602-4.024 5.242-8.063 8.57-11.531 19.91 25.097 31.543 56.488 33.121 88.46 1.993 37.239-9.847 75.188-33.18 104.36-6.32-7.242-11.25-15.633-15.82-24.05-16.94-32.032-21.94-70.083-14.21-105.43 3.89-18.403 11.25-36.063 21.52-51.81m-238.7-9.3.083.108c17.48 23.489 28.61 51.848 30.707 81.122 3.512 37.828-7.899 76.597-30.68 106.937l-.066.09c-1.563-2.3-3.14-4.578-4.73-6.867-18.602-27.121-27.75-60.422-26.532-93.223 1.129-28.11 9.711-55.988 25.328-79.45 1.973-2.898 3.961-5.788 5.89-8.718m494.173.116.078-.117c7.133 10.399 14.062 21.04 18.77 32.79 15.03 34.91 16.55 75.3 4.41 111.3-5.18 15.867-13.387 30.559-23.149 44.05l-.082.13c-22.348-29.86-33.918-67.782-30.93-105.02 1.801-29.973 13-59.101 30.903-83.133m0 0" style="fill:#008f66;fill-opacity:1;fill-rule:evenodd;stroke:none" transform="matrix(.02828 0 0 .02828 17.115 11.45)"/><path d="M599.648 85.984c14.63.051 29.27-.191 43.91.121 20.399 34.872 41.09 69.579 61.829 104.258.03-34.789.043-69.566 0-104.347 10.761-.121 21.511 0 32.27-.051-.118 50.101.113 100.2-.118 150.3-14.031-.19-28.07.02-42.101-.109-21.141-35.613-42.27-71.222-63.508-106.77-.192 35.618.027 71.227-.114 106.848-10.718-.101-21.437-.03-32.16-.039 0-50.07.031-100.14-.008-150.21zm-182.242 44.16c-5.597 15.422-11.668 30.68-17.347 46.083 11.668-.012 23.34-.051 35.02.008-5.802-15.399-11.731-30.75-17.673-46.09zm-12.379-44.16c8.93-.02 17.86-.078 26.79.051 21 50.102 42.222 100.102 63.3 150.16-12.199-.07-24.398.11-36.597-.082-4.012-10.59-8.301-21.066-12.364-31.648-18.758-.05-37.527-.031-56.297-.012-4.023 10.563-8.14 21.09-12.02 31.703-11.921.09-23.843 0-35.75.04 20.958-50.083 42-100.122 62.938-150.212m-252.87 88.22c-.06 11.273-.09 22.53.01 33.8 9.661-.09 19.33-.02 29-.027 5.38.008 10.981-1.313 15.24-4.711 6.581-5.25 7.87-16.352 1.96-22.551-5.058-4.95-12.469-6.14-19.25-6.48-8.988-.11-17.98-.02-26.96-.032zm-.079-59.97c.102 10.563-.039 21.13.078 31.692 7.653.07 15.313.027 22.973.05 4.93.02 10.07-.96 14.18-3.84 7.52-5.113 8.27-17.792.949-23.41-4.531-3.53-10.5-4.421-16.09-4.53-7.36-.012-14.73-.032-22.09.038m-32.219-28.23c14.41-.098 28.829-.008 43.25-.04 12.93.04 26.13-.359 38.668 3.34 7.653 2.29 15.18 6.36 19.782 13.09 4.968 7.06 6.437 16 5.988 24.47-.5 7.87-3.59 15.652-9.238 21.222-4.391 4.488-10.082 7.398-15.93 9.5 10.96 1.309 21.367 7.527 26.96 17.148 8.477 14.97 6.5 36.07-6.562 47.852-10.73 9.66-25.597 13-39.66 13.59-21.07.058-42.148-.031-63.219.039-.039-50.07.04-100.14-.039-150.211m-211.23-.02c11.078-.039 22.16-.02 33.238-.007-.027 50.078.04 100.16-.027 150.226-11.063-.027-22.121-.02-33.184 0-.058-50.066.012-100.148-.027-150.219m0 0" style="fill:#fdfdfd;fill-opacity:1;fill-rule:evenodd;stroke:none" transform="matrix(.02828 0 0 .02828 17.115 11.45)"/></g></svg>