<svg xmlns="http://www.w3.org/2000/svg" width="640" height="360" viewBox="0 0 640 360">
  <g fill="none" transform="translate(80 30)">
    <g transform="translate(.618 .615)">
      <path fill="#005498" d="M426.542887,53.3385655 L404.272064,53.3385655 L301.222322,53.3385655 L278.762763,53.3385655 L263.6639,70.2416321 L214.970066,124.894881 L214.970066,124.894881 L199.871202,141.797947 L177.600379,141.797947 L76.4379952,141.797947 L54.1671719,141.797947 L68.8885636,124.707069 L75.8717879,116.631159 L90.5931796,99.5402808 L68.3223562,99.5402808 L39.6345161,99.5402808 L23.5919738,99.5402808 C11.3241474,99.5402808 1.32115054,109.869933 1.32115054,122.265515 L1.32115054,122.265515 L1.32115054,166.213488 L1.32115054,170.345348 C1.32115054,182.928742 11.3241474,193.070582 23.5919738,193.070582 L29.8202549,193.070582 L263.852635,193.070582 L280.650121,193.070582 C292.917947,193.070582 309.715433,185.558108 317.831072,176.167516 L356.710644,132.219543 L426.542887,53.3385655 Z"/>
      <path fill="#FFD800" d="M456.174406,2.06593036 C468.442233,2.06593036 478.44523,12.3955821 478.44523,24.7911643 L478.44523,72.6831861 C478.44523,85.2665801 468.442233,95.4084201 456.174406,95.4084201 L444.095316,95.4084201 L411.63276,95.4084201 L389.361936,95.4084201 L404.272064,78.5053535 L404.272064,78.5053535 L411.63276,70.0538202 L426.542887,53.1507537 L278.762763,53.1507537 L200.059938,141.422323 L53.4122288,141.422323 L158.538064,23.1008576 L162.501516,18.5933732 C170.805891,9.39059253 187.603376,1.69030665 199.871202,1.69030665 L204.967069,1.69030665 L456.174406,1.69030665 L456.174406,2.06593036 Z"/>
    </g>
    <path fill="#005498" d="M479.06291,294.352391 L479.06291,287.403353 C479.06291,286.464293 478.496703,285.900858 477.175552,285.900858 L472.645893,285.900858 C471.324743,285.900858 470.381064,285.713046 470.192328,285.14961 C469.814857,284.586175 469.814857,283.459304 469.814857,281.581185 L469.814857,255.287526 L477.175552,255.287526 C477.74176,255.287526 478.119231,255.099714 478.496703,254.724091 C478.874174,254.348467 479.06291,253.972843 479.06291,253.409408 L479.06291,246.084746 C479.06291,245.52131 478.874174,245.145686 478.496703,244.770063 C478.119231,244.394439 477.74176,244.206627 477.175552,244.206627 L469.814857,244.206627 L469.814857,234.628223 C469.814857,234.064787 469.626121,233.689163 469.437385,233.501352 C469.059913,233.31354 468.682442,233.125728 468.30497,233.125728 L468.116234,233.125728 L457.169559,235.003846 C456.603351,235.191658 456.22588,235.37947 455.848408,235.567282 C455.470936,235.942906 455.282201,236.318529 455.282201,236.694153 L455.282201,244.018815 L447.921505,244.018815 C447.355297,244.018815 446.977826,244.206627 446.600354,244.582251 C446.222883,244.957874 446.034147,245.333498 446.034147,245.896934 L446.034147,251.906913 C446.034147,252.470348 446.222883,252.845972 446.600354,253.033784 C446.977826,253.409408 447.355297,253.59722 447.921505,253.785031 L455.282201,254.911903 L455.282201,281.205562 C455.282201,284.398363 455.659672,287.027729 456.22588,289.093659 C456.980823,291.15959 457.924502,292.662084 459.056916,293.788956 C460.378067,294.915827 461.887953,295.667074 463.775311,296.042698 C465.662669,296.418322 467.927499,296.606133 470.381064,296.606133 C471.702214,296.606133 472.834629,296.606133 473.967044,296.418322 C474.910723,296.23051 476.231873,296.042698 477.553024,295.854886 C478.496703,295.854886 479.06291,295.29145 479.06291,294.352391 L479.06291,294.352391 Z M439.805866,293.413332 L439.805866,285.337422 C439.805866,284.773987 439.61713,284.398363 439.239658,284.210551 C438.862187,284.022739 438.484715,283.834928 438.107244,283.834928 L437.918508,283.834928 C436.219886,284.022739 434.521264,284.210551 433.011377,284.210551 C431.501491,284.398363 429.425397,284.398363 426.783096,284.398363 C425.839417,284.398363 424.707003,284.210551 423.952059,283.834928 C423.00838,283.459304 422.253437,282.895868 421.498494,282.144621 C420.743551,281.393373 420.366079,280.266502 419.988608,278.951819 C419.611136,277.637136 419.4224,275.94683 419.4224,273.880899 L419.4224,266.368425 C419.4224,264.302495 419.611136,262.612188 419.988608,261.297505 C420.366079,259.982823 420.932287,258.855951 421.498494,258.104704 C422.253437,257.353457 423.00838,256.790021 423.952059,256.414397 C424.895738,256.038774 425.839417,255.850962 426.783096,255.850962 C429.425397,255.850962 431.501491,255.850962 433.011377,256.038774 C434.521264,256.226585 436.219886,256.226585 437.918508,256.414397 L438.107244,256.414397 C438.673451,256.414397 439.050923,256.226585 439.239658,256.038774 C439.61713,255.850962 439.805866,255.475338 439.805866,254.911903 L439.805866,246.835993 C439.805866,246.084746 439.61713,245.709122 439.428394,245.52131 C439.050923,245.333498 438.673451,244.957874 437.918508,244.770063 C436.597357,244.394439 435.087471,244.206627 433.011377,243.831003 C430.935284,243.45538 428.670454,243.45538 425.839417,243.45538 C419.4224,243.45538 414.326534,245.333498 410.363082,249.277547 C406.588367,253.221596 404.512273,258.855951 404.512273,266.368425 L404.512273,273.880899 C404.512273,281.205562 406.399631,287.027729 410.363082,290.971778 C414.137798,294.915827 419.4224,296.793945 425.839417,296.793945 C428.481718,296.793945 430.935284,296.606133 433.011377,296.418322 C435.087471,296.042698 436.786093,295.854886 437.918508,295.479262 C438.673451,295.29145 439.050923,295.103639 439.428394,294.728015 C439.805866,294.540203 439.805866,293.976767 439.805866,293.413332 L439.805866,293.413332 Z M380.731563,283.834928 C379.599149,284.398363 378.466734,284.773987 377.145583,285.14961 C375.824433,285.525234 374.503282,285.713046 373.182132,285.713046 C371.294774,285.713046 369.784887,285.525234 368.841208,284.961799 C367.89753,284.398363 367.520058,283.271492 367.520058,281.205562 L367.520058,280.454314 C367.520058,279.327443 367.708794,278.388384 367.89753,277.637136 C368.086265,276.885889 368.652473,276.134642 369.21868,275.571206 C369.784887,275.007771 370.728566,274.632147 371.672245,274.444335 C372.615924,274.256523 373.937075,274.068711 375.635697,274.068711 L380.731563,274.068711 L380.731563,283.834928 L380.731563,283.834928 Z M395.075483,261.860941 C395.075483,258.480328 394.509276,255.66315 393.565597,253.409408 C392.621918,251.155666 391.112032,249.277547 389.41341,247.775052 C387.526052,246.272557 385.449958,245.145686 382.807657,244.582251 C380.165356,243.831003 377.145583,243.45538 373.937075,243.45538 C370.917302,243.45538 367.89753,243.643192 365.066493,244.018815 C362.235456,244.394439 359.970626,244.770063 358.272004,245.333498 C357.139589,245.709122 356.573382,246.272557 356.573382,247.399429 L356.573382,254.724091 C356.573382,255.287526 356.762118,255.66315 356.950854,256.038774 C357.328325,256.226585 357.705797,256.414397 358.083268,256.414397 L358.46074,256.414397 C359.215683,256.414397 360.159362,256.226585 361.103041,256.226585 C362.235456,256.226585 363.367871,256.038774 364.689021,256.038774 C366.010172,256.038774 367.520058,255.850962 369.029944,255.850962 C370.539831,255.850962 372.049717,255.850962 373.370867,255.850962 C375.446961,255.850962 377.145583,256.226585 378.277998,256.977833 C379.410413,257.72908 380.165356,259.419387 380.165356,262.048753 L380.165356,265.241554 L375.258225,265.241554 C367.520058,265.241554 361.669248,266.368425 358.272004,268.809979 C354.686024,271.251534 352.987402,275.195582 352.987402,280.454314 L352.987402,281.205562 C352.987402,284.210551 353.364874,286.652105 354.308553,288.530224 C355.252232,290.596154 356.384646,292.098649 357.894533,293.413332 C359.404419,294.540203 360.914305,295.479262 362.801663,296.042698 C364.689021,296.606133 366.576379,296.793945 368.652473,296.793945 C371.294774,296.793945 373.748339,296.418322 375.635697,295.667074 C377.523055,294.915827 379.410413,293.976767 381.297771,292.662084 L381.297771,294.164579 C381.297771,294.728015 381.486506,295.103639 381.863978,295.479262 C382.24145,295.854886 382.618921,296.042698 383.185129,296.042698 L393.376861,296.042698 C393.943069,296.042698 394.32054,295.854886 394.698012,295.479262 C395.075483,295.103639 395.264219,294.728015 395.264219,294.164579 L395.264219,261.860941 L395.075483,261.860941 L395.075483,261.860941 Z M346.570385,294.352391 L346.570385,287.403353 C346.570385,286.464293 346.004178,285.900858 344.683027,285.900858 L340.153368,285.900858 C338.832218,285.900858 337.888539,285.713046 337.699803,285.14961 C337.322331,284.586175 337.322331,283.459304 337.322331,281.581185 L337.322331,255.287526 L344.683027,255.287526 C345.249235,255.287526 345.626706,255.099714 346.004178,254.724091 C346.381649,254.348467 346.570385,253.972843 346.570385,253.409408 L346.570385,246.084746 C346.570385,245.52131 346.381649,245.145686 346.004178,244.770063 C345.626706,244.394439 345.249235,244.206627 344.683027,244.206627 L337.322331,244.206627 L337.322331,234.628223 C337.322331,234.064787 337.133596,233.689163 336.94486,233.501352 C336.567388,233.31354 336.189917,233.125728 335.812445,233.125728 L335.623709,233.125728 L324.677033,235.003846 C324.110826,235.191658 323.733355,235.37947 323.355883,235.567282 C322.978411,235.942906 322.789676,236.318529 322.789676,236.694153 L322.789676,244.018815 L315.240244,244.018815 C314.674037,244.018815 314.296565,244.206627 313.919093,244.582251 C313.541622,244.957874 313.352886,245.333498 313.352886,245.896934 L313.352886,251.906913 C313.352886,252.470348 313.541622,252.845972 313.919093,253.033784 C314.296565,253.409408 314.674037,253.59722 315.240244,253.785031 L322.60094,254.911903 L322.60094,281.205562 C322.60094,284.398363 322.978411,287.027729 323.544619,289.093659 C324.299562,291.15959 325.243241,292.662084 326.375656,293.788956 C327.696806,294.915827 329.206692,295.667074 331.09405,296.042698 C332.981408,296.418322 335.246238,296.606133 337.699803,296.606133 C339.020954,296.606133 340.153368,296.606133 341.285783,296.418322 C342.229462,296.23051 343.550613,296.042698 344.871763,295.854886 C346.004178,295.854886 346.570385,295.29145 346.570385,294.352391 L346.570385,294.352391 Z M306.935869,294.164579 L306.935869,264.114683 C306.935869,261.297505 306.747133,258.66814 306.180926,256.038774 C305.803454,253.59722 304.859775,251.343477 303.727361,249.465359 C302.594946,247.58724 300.896324,246.084746 298.82023,245.145686 C296.744136,244.018815 294.101835,243.45538 290.704591,243.45538 C287.873554,243.45538 285.231253,243.831003 282.966424,244.582251 C280.701594,245.333498 278.436765,246.460369 275.794464,248.338488 L275.794464,246.084746 C275.794464,245.52131 275.605728,245.145686 275.228256,244.770063 C274.850785,244.394439 274.473313,244.206627 273.907106,244.206627 L263.715373,244.206627 C263.149166,244.206627 262.771694,244.394439 262.394223,244.770063 C262.016751,245.145686 261.828015,245.52131 261.828015,246.084746 L261.828015,294.164579 C261.828015,294.728015 262.016751,295.103639 262.394223,295.479262 C262.771694,295.854886 263.149166,296.042698 263.715373,296.042698 L274.662049,296.042698 C275.228256,296.042698 275.605728,295.854886 275.983199,295.479262 C276.360671,295.103639 276.549407,294.728015 276.549407,294.164579 L276.549407,258.66814 C278.059293,257.916892 279.569179,257.165645 281.079066,256.602209 C282.400216,256.038774 283.910103,255.850962 285.231253,255.850962 C286.552404,255.850962 287.684818,256.038774 288.628497,256.226585 C289.572176,256.414397 290.138384,256.977833 290.704591,257.541268 C291.270798,258.292516 291.459534,259.043763 291.64827,260.170634 C291.837006,261.297505 291.837006,262.612188 291.837006,264.114683 L291.837006,294.164579 C291.837006,294.728015 292.025742,295.103639 292.403213,295.479262 C292.780685,295.854886 293.158156,296.042698 293.724364,296.042698 L304.67104,296.042698 C305.237247,296.042698 305.614719,295.854886 305.99219,295.479262 C306.747133,295.103639 306.935869,294.540203 306.935869,294.164579 L306.935869,294.164579 Z M238.236041,273.317464 C238.236041,280.642126 235.59374,284.398363 230.120402,284.398363 C227.478101,284.398363 225.402008,283.459304 224.080857,281.581185 C222.759706,279.703067 222.004763,276.885889 222.004763,273.317464 L222.004763,266.931861 C222.004763,263.175624 222.759706,260.546258 224.080857,258.66814 C225.402008,256.790021 227.478101,255.850962 230.120402,255.850962 C235.405004,255.850962 238.236041,259.607199 238.236041,266.931861 L238.236041,273.317464 Z M252.957433,266.931861 C252.957433,263.363436 252.391226,259.982823 251.447547,257.165645 C250.503868,254.348467 248.993981,251.906913 247.106623,249.840983 C245.219266,247.775052 242.7657,246.272557 239.934663,245.145686 C237.103627,244.018815 233.895118,243.45538 230.120402,243.45538 C226.345686,243.45538 223.137178,244.018815 220.306141,245.145686 C217.475104,246.272557 215.021539,247.775052 213.134181,249.840983 C211.246823,251.906913 209.736937,254.348467 208.793258,257.165645 C207.849579,259.982823 207.283372,263.363436 207.283372,266.931861 L207.283372,273.317464 C207.283372,276.885889 207.849579,280.266502 208.793258,283.08368 C209.736937,285.900858 211.246823,288.342412 213.134181,290.408342 C215.021539,292.474273 217.475104,293.976767 220.306141,295.103639 C223.137178,296.23051 226.345686,296.793945 230.120402,296.793945 C233.895118,296.793945 237.103627,296.23051 239.934663,295.103639 C242.7657,293.976767 245.219266,292.474273 247.106623,290.408342 C248.993981,288.342412 250.503868,285.900858 251.447547,283.08368 C252.391226,280.266502 252.957433,276.885889 252.957433,273.317464 L252.957433,266.931861 Z M202.564977,293.413332 L202.564977,285.337422 C202.564977,284.773987 202.376241,284.398363 201.998769,284.210551 C201.621298,284.022739 201.243826,283.834928 200.677619,283.834928 L200.488883,283.834928 C198.790261,284.022739 197.091639,284.210551 195.581753,284.210551 C194.071866,284.398363 191.995773,284.398363 189.353472,284.398363 C188.409793,284.398363 187.277378,284.210551 186.522435,283.834928 C185.578756,283.459304 184.823813,282.895868 184.068869,282.144621 C183.313926,281.393373 182.936455,280.266502 182.558983,278.951819 C182.181511,277.637136 181.992776,275.94683 181.992776,273.880899 L181.992776,266.368425 C181.992776,264.302495 182.181511,262.612188 182.558983,261.297505 C182.936455,259.982823 183.502662,258.855951 184.068869,258.104704 C184.823813,257.353457 185.578756,256.790021 186.522435,256.414397 C187.466114,256.038774 188.409793,255.850962 189.353472,255.850962 C191.995773,255.850962 194.071866,255.850962 195.581753,256.038774 C197.091639,256.226585 198.790261,256.226585 200.488883,256.414397 L200.677619,256.414397 C201.243826,256.414397 201.621298,256.226585 201.998769,256.038774 C202.376241,255.850962 202.564977,255.475338 202.564977,254.911903 L202.564977,246.835993 C202.564977,246.084746 202.376241,245.709122 202.187505,245.52131 C201.810034,245.333498 201.432562,244.957874 200.677619,244.770063 C199.356468,244.394439 197.846582,244.206627 195.770488,243.831003 C193.694395,243.45538 191.429565,243.45538 188.598528,243.45538 C182.181511,243.45538 177.085645,245.333498 173.122193,249.277547 C169.347478,253.221596 167.271384,258.855951 167.271384,266.368425 L167.271384,273.880899 C167.271384,281.205562 169.158742,287.027729 173.122193,290.971778 C176.896909,294.915827 182.181511,296.793945 188.598528,296.793945 C191.240829,296.793945 193.694395,296.606133 195.770488,296.418322 C197.846582,296.042698 199.356468,295.854886 200.677619,295.479262 C201.432562,295.29145 201.810034,295.103639 202.187505,294.728015 C202.376241,294.540203 202.564977,293.976767 202.564977,293.413332 L202.564977,293.413332 Z M157.834594,294.164579 L157.834594,264.114683 C157.834594,261.297505 157.645859,258.66814 157.079651,256.038774 C156.70218,253.59722 155.758501,251.343477 154.626086,249.465359 C153.493671,247.58724 151.795049,246.084746 149.718955,245.145686 C147.642862,244.018815 145.000561,243.45538 141.603316,243.45538 C138.77228,243.45538 136.129979,243.831003 133.865149,244.582251 C131.60032,245.333498 129.33549,246.460369 126.693189,248.338488 L126.693189,246.084746 C126.693189,245.52131 126.504453,245.145686 126.126982,244.770063 C125.74951,244.394439 125.372038,244.206627 124.805831,244.206627 L114.614098,244.206627 C114.047891,244.206627 113.670419,244.394439 113.292948,244.770063 C112.915476,245.145686 112.72674,245.52131 112.72674,246.084746 L112.72674,294.164579 C112.72674,294.728015 112.915476,295.103639 113.292948,295.479262 C113.670419,295.854886 114.047891,296.042698 114.614098,296.042698 L125.560774,296.042698 C126.126982,296.042698 126.504453,295.854886 126.881925,295.479262 C127.259396,295.103639 127.448132,294.728015 127.448132,294.164579 L127.448132,258.66814 C128.958018,257.916892 130.467905,257.165645 131.977791,256.602209 C133.298942,256.038774 134.808828,255.850962 136.129979,255.850962 C137.451129,255.850962 138.583544,256.038774 139.527223,256.226585 C140.470902,256.414397 141.037109,256.977833 141.603316,257.541268 C142.169524,258.292516 142.35826,259.043763 142.546995,260.170634 C142.735731,261.297505 142.735731,262.612188 142.735731,264.114683 L142.735731,294.164579 C142.735731,294.728015 142.924467,295.103639 143.301939,295.479262 C143.67941,295.854886 144.056882,296.042698 144.623089,296.042698 L155.569765,296.042698 C156.135972,296.042698 156.513444,295.854886 156.890915,295.479262 C157.645859,295.103639 157.834594,294.540203 157.834594,294.164579 L157.834594,294.164579 Z M87.6248803,283.834928 C86.4924656,284.398363 85.3600508,284.773987 84.0389003,285.14961 C82.7177497,285.525234 81.3965992,285.713046 80.0754487,285.713046 C78.1880908,285.713046 76.6782044,285.525234 75.7345255,284.961799 C74.7908465,284.398363 74.4133749,283.271492 74.4133749,281.205562 L74.4133749,280.454314 C74.4133749,279.327443 74.6021107,278.388384 74.7908465,277.637136 C74.9795823,276.885889 75.5457897,276.134642 76.1119971,275.571206 C76.6782044,275.007771 77.6218834,274.632147 78.5655623,274.444335 C79.5092413,274.256523 80.8303918,274.068711 82.5290139,274.068711 L87.6248803,274.068711 L87.6248803,283.834928 Z M102.157536,261.860941 C102.157536,258.480328 101.591329,255.66315 100.64765,253.409408 C99.7039709,251.155666 98.1940846,249.277547 96.4954625,247.775052 C94.6081046,246.272557 92.5320109,245.145686 89.8897098,244.582251 C87.2474087,243.831003 84.2276361,243.45538 81.0191276,243.45538 C77.999355,243.45538 74.9795823,243.643192 72.1485455,244.018815 C69.3175086,244.394439 67.0526791,244.770063 65.354057,245.333498 C64.2216422,245.709122 63.6554349,246.272557 63.6554349,247.399429 L63.6554349,254.724091 C63.6554349,255.287526 63.8441707,255.66315 64.0329065,256.038774 C64.410378,256.226585 64.7878496,256.414397 65.1653212,256.414397 L65.5427928,256.414397 C66.2977359,256.414397 67.2414149,256.226585 68.1850939,256.226585 C69.3175086,256.226585 70.4499233,256.038774 71.9598097,256.038774 C73.2809602,256.038774 74.7908465,255.850962 76.3007329,255.850962 C77.8106192,255.850962 79.3205055,255.850962 80.641656,255.850962 C82.7177497,255.850962 84.4163719,256.226585 85.5487866,256.977833 C86.6812013,257.72908 87.4361445,259.419387 87.4361445,262.048753 L87.4361445,265.241554 L82.5290139,265.241554 C74.7908465,265.241554 68.940037,266.368425 65.5427928,268.809979 C61.9568128,271.251534 60.2581906,275.195582 60.2581906,280.454314 L60.2581906,281.205562 C60.2581906,284.210551 60.6356622,286.652105 61.5793412,288.530224 C62.5230201,290.596154 63.6554349,292.098649 65.1653212,293.413332 C66.6752075,294.540203 68.1850939,295.479262 70.0724518,296.042698 C71.9598097,296.606133 73.8471676,296.793945 75.9232613,296.793945 C78.5655623,296.793945 81.0191276,296.418322 82.9064855,295.667074 C84.7938434,294.915827 86.6812013,293.976767 88.5685593,292.662084 L88.5685593,294.164579 C88.5685593,294.728015 88.757295,295.103639 89.1347666,295.479262 C89.5122382,295.854886 89.8897098,296.042698 90.4559172,296.042698 L100.64765,296.042698 C101.213857,296.042698 101.591329,295.854886 101.9688,295.479262 C102.346272,295.103639 102.535008,294.728015 102.535008,294.164579 L102.535008,261.860941 L102.157536,261.860941 L102.157536,261.860941 Z M37.2324242,276.134642 C37.2324242,278.576196 36.2887452,280.642126 34.5901231,281.956809 C32.891501,283.271492 29.4942568,284.022739 24.9645978,284.022739 L23.4547114,284.022739 C22.6997683,284.022739 21.9448251,284.022739 21.189882,284.022739 C20.4349388,284.022739 19.6799956,284.022739 18.9250525,284.022739 L17.4151661,284.022739 L17.4151661,267.119673 L27.6068988,267.119673 C31.1928789,267.119673 33.8351799,267.87092 35.1563305,269.561227 C36.477481,271.251534 37.2324242,273.129652 37.2324242,275.195582 L37.2324242,276.134642 Z M36.8549526,249.277547 C36.8549526,250.216606 36.6662168,251.155666 36.477481,252.094725 C36.1000094,253.033784 35.7225378,253.785031 34.9675947,254.348467 C34.2126515,254.911903 33.2689726,255.475338 32.1365578,255.850962 C31.0041431,256.226585 29.4942568,256.414397 27.6068988,256.414397 L17.4151661,256.414397 L17.4151661,240.826014 C17.7926377,240.826014 18.1701093,240.826014 18.7363167,240.826014 C19.3025241,240.826014 20.0574672,240.826014 20.8124104,240.826014 L22.8885041,240.826014 L24.3983904,240.826014 C29.1167852,240.826014 32.3252936,241.389449 34.2126515,242.51632 C36.1000094,243.643192 37.0436884,245.52131 37.0436884,247.962864 L36.8549526,249.277547 L36.8549526,249.277547 Z M52.3312874,275.195582 C52.3312874,272.002781 51.5763443,269.373415 50.0664579,267.119673 C48.5565716,264.865931 46.6692137,262.987812 44.2156484,261.860941 C46.6692137,260.73407 48.5565716,258.855951 49.8777222,256.602209 C51.1988727,254.160655 51.9538158,251.531289 51.9538158,248.714111 L51.9538158,247.023805 C51.9538158,243.45538 51.1988727,240.45039 49.8777222,238.008836 C48.5565716,235.567282 46.4804779,233.689163 44.0269126,232.186669 C41.5733474,230.684174 38.5535747,229.745115 34.9675947,228.993867 C31.3816147,228.430432 27.6068988,228.054808 23.2659757,228.054808 C21.7560893,228.054808 20.246203,228.054808 18.7363167,228.054808 C17.2264304,228.054808 15.716544,228.24262 14.2066577,228.24262 C12.6967714,228.24262 11.3756208,228.430432 10.0544703,228.618243 C8.73331977,228.806055 7.78964082,228.806055 7.03469765,228.993867 C5.33607554,229.369491 4.014925,229.745115 3.25998184,230.684174 C2.50503868,231.435421 2.1275671,232.937916 2.1275671,235.003846 L2.1275671,290.032719 C2.1275671,292.098649 2.50503868,293.413332 3.25998184,294.352391 C4.014925,295.103639 5.33607554,295.667074 7.03469765,296.042698 C7.97837661,296.23051 9.11079135,296.418322 10.2432061,296.418322 C11.5643566,296.606133 12.8855072,296.606133 14.3953935,296.793945 C15.9052798,296.981757 17.4151661,296.981757 18.9250525,296.981757 C20.4349388,296.981757 22.1335609,296.981757 23.6434472,296.981757 C27.6068988,296.981757 31.3816147,296.606133 34.7788589,296.042698 C38.1761031,295.479262 41.1958758,294.352391 43.8381768,292.849896 C46.4804779,291.347402 48.3678358,289.281471 50.0664579,286.652105 C51.5763443,284.022739 52.3312874,280.642126 52.3312874,276.698077 L52.3312874,275.195582 L52.3312874,275.195582 Z"/>
  </g>
</svg>
