<svg xmlns="http://www.w3.org/2000/svg" width="640" height="360" viewBox="0 0 640 360">
  <g fill="none" fill-rule="evenodd" transform="translate(80 114)">
    <path fill="#238EC2" d="M327.516524,36.1630316 C325.481471,49.8189655 315.272736,49.8189655 305.398713,49.8189655 L299.780561,49.8189655 L303.721802,24.3228736 C303.959448,22.7823707 305.259807,21.6470833 306.78777,21.6470833 L309.363384,21.6470833 C316.08274,21.6470833 322.432239,21.6470833 325.705729,25.5590374 C327.663798,27.8997126 328.256239,31.3688362 327.516524,36.1630316 Z M323.218814,0.536551724 L285.980359,0.536551724 C283.434869,0.536551724 281.267605,2.42926724 280.87097,4.99905172 L265.813922,102.546566 C265.516028,104.470057 266.972028,106.210603 268.87989,106.210603 L287.985287,106.210603 C289.767632,106.210603 291.285554,104.885532 291.561692,103.086853 L295.832625,75.4330316 C296.22926,72.8632471 298.396524,70.9705316 300.942014,70.9705316 L312.725572,70.9705316 C337.253315,70.9705316 351.408313,58.8431322 355.108561,34.8088937 C356.773756,24.297227 355.175503,16.0373276 350.357315,10.2548851 C345.062161,3.89795977 335.676818,0.536551724 323.218814,0.536551724 L323.218814,0.536551724 Z"/>
    <path fill="#253667" d="M61.9270621 36.1630316C59.8920092 49.8189655 49.6832736 49.8189655 39.8109241 49.8189655L34.1927724 49.8189655 38.1323402 24.3228736C38.3716598 22.7823707 39.6720184 21.6470833 41.198308 21.6470833L43.7739218 21.6470833C50.4949517 21.6470833 56.8444506 21.6470833 60.1162667 25.5590374 62.0760092 27.8997126 62.6684506 31.3688362 61.9270621 36.1630316zM57.6310253.536551724L20.3925701.536551724C17.8470805.536551724 15.6798161 2.42926724 15.2831816 4.99905172L.22445977 102.546566C-.0717609195 104.470057 1.38423908 106.210603 3.29042759 106.210603L21.0703632 106.210603C23.6158529 106.210603 25.7847908 104.317888 26.1814253 101.749813L30.2448368 75.4330316C30.6397977 72.8632471 32.8087356 70.9705316 35.3542253 70.9705316L47.1377839 70.9705316C71.6638529 70.9705316 85.8205241 58.8431322 89.5207724 34.8088937 91.1859678 24.297227 89.5877149 16.0373276 84.7695264 10.2548851 79.4726989 3.89795977 70.0873563.536551724 57.6310253.536551724L57.6310253.536551724zM144.078933 71.1825431C142.356837 81.5916236 134.268506 88.579454 123.952662 88.579454 118.781352 88.579454 114.640956 86.8799425 111.979991 83.6621552 109.342455 80.4717241 108.350032 75.9271552 109.18514 70.8662356 110.791761 60.5511925 119.008956 53.3376724 129.167485 53.3376724 134.231687 53.3376724 138.341959 55.0542816 141.056478 58.3011351 143.787733 61.5719253 144.860487 66.1472701 144.078933 71.1825431zM168.928 35.7270402L151.097857 35.7270402C149.569894 35.7270402 148.269536 36.8606178 148.03189 38.4045402L147.246989 43.4979454 146.000184 41.6513937C142.139274 35.9253736 133.533811 34.0121408 124.940064 34.0121408 105.240552 34.0121408 88.4128736 49.2632902 85.1377103 70.6542241 83.4323494 81.3248994 85.8523218 91.5219684 91.7750621 98.6397414 97.2158161 105.179612 104.981149 107.901566 114.232607 107.901566 130.111375 107.901566 138.917664 97.4805172 138.917664 97.4805172L138.121048 102.543147C137.823154 104.468348 139.279154 106.210603 141.187016 106.210603L157.244855 106.210603C159.790345 106.210603 161.957609 104.319598 162.354244 101.749813L171.993968 39.3910776C172.291862 37.4658764 170.835862 35.7270402 168.928 35.7270402L168.928 35.7270402z"/>
    <path fill="#238EC2" d="M409.666722,71.1825431 C407.944625,81.5916236 399.857968,88.579454 389.542124,88.579454 C384.36914,88.579454 380.230418,86.8799425 377.567779,83.6621552 C374.930244,80.4717241 373.937821,75.9271552 374.774602,70.8662356 C376.379549,60.5511925 384.596745,53.3376724 394.756947,53.3376724 C399.819476,53.3376724 403.931421,55.0542816 406.644267,58.3011351 C409.375522,61.5719253 410.448276,66.1472701 409.666722,71.1825431 Z M434.515789,35.7270402 L416.685646,35.7270402 C415.157683,35.7270402 413.857324,36.8606178 413.619678,38.4045402 L412.834777,43.4979454 L411.589646,41.6513937 C407.727062,35.9253736 399.1216,34.0121408 390.527853,34.0121408 C370.830014,34.0121408 354.000662,49.2632902 350.725499,70.6542241 C349.021811,81.3248994 351.441784,91.5219684 357.362851,98.6397414 C362.805278,105.179612 370.568938,107.901566 379.820395,107.901566 C395.699163,107.901566 404.505453,97.4805172 404.505453,97.4805172 L403.71051,102.543147 C403.410943,104.468348 404.866943,106.210603 406.776478,106.210603 L422.832644,106.210603 C425.378133,106.210603 427.545398,104.319598 427.943706,101.749813 L437.581756,39.3910776 C437.879651,37.4658764 436.423651,35.7270402 434.515789,35.7270402 L434.515789,35.7270402 Z"/>
    <path fill="#253667" d="M263.894345,35.7270402 L245.972156,35.7270402 C244.258428,35.7270402 242.655154,36.5956034 241.692855,38.0437787 L216.970979,75.2432471 L206.4928,39.4970833 C205.838437,37.260704 203.823467,35.7270402 201.537379,35.7270402 L183.919779,35.7270402 C181.79268,35.7270402 180.294841,37.8642529 180.981002,39.9211063 L200.71566,99.0996695 L182.15417,125.857572 C180.696497,127.95717 182.167559,130.862069 184.686271,130.862069 L202.591724,130.862069 C204.288717,130.862069 205.876929,130.012313 206.844248,128.586365 L266.446529,40.7058908 C267.872405,38.6028736 266.399669,35.7270402 263.894345,35.7270402"/>
    <path fill="#238EC2" d="M455.532395,3.21576149 L440.249416,102.546566 C439.953195,104.471767 441.409195,106.210603 443.315384,106.210603 L458.687062,106.210603 C461.232552,106.210603 463.399816,104.317888 463.796451,101.749813 L478.865214,4.20229885 C479.163108,2.2770977 477.707108,0.536551724 475.799246,0.536551724 L458.598363,0.536551724 C457.0704,0.536551724 455.770041,1.67354885 455.532395,3.21576149"/>
  </g>
</svg>
