<svg xmlns="http://www.w3.org/2000/svg" width="640" height="360" viewBox="0 0 640 360">
  <g fill="none" fill-rule="evenodd" transform="translate(80 46)">
    <rect width="480" height="266.139" fill="#FFB3C7" fill-rule="nonzero" rx="4.321"/>
    <path fill="#0A0B09" fill-rule="nonzero" d="M56.4880087 170.032598L62.9810467 170.032598 62.9810467 149.94745C64.4736991 150.319397 66.264882 150.393787 68.2053302 150.393787 74.549103 150.393787 80.1465496 148.534051 83.5796501 144.888968 86.1171593 142.285338 87.4605464 138.714645 87.4605464 134.176889 87.4605464 129.713523 85.8186288 126.06844 83.0572218 123.687978 80.071917 121.009958 75.3700618 119.522169 68.9516564 119.522169 63.7273729 119.522169 59.6225788 119.968506 56.4880087 120.489232L56.4880087 170.032598zM62.9810467 125.175767C64.100536 124.878209 66.264882 124.655041 69.1009216 124.655041 76.2656533 124.655041 80.9675084 127.853787 80.9675084 134.474447 80.9675084 141.392664 76.1910207 145.186526 68.3545954 145.186526 66.1902494 145.186526 64.3990665 145.037747 62.9810467 144.6658L62.9810467 125.175767zM121.940817 170.032598C121.493022 167.577747 121.343756 164.52778 121.343756 161.403423L121.343756 147.938935C121.343756 140.723159 118.656982 133.209826 107.611354 133.209826 103.058764 133.209826 98.7300722 134.474447 95.7447674 136.408572L97.2374198 140.723159C99.7749289 139.086592 103.282662 138.04514 106.64113 138.04514 114.02976 138.04514 114.850718 143.401179 114.850718 146.376757L114.850718 147.120651C100.894418 147.046262 93.1326257 151.807186 93.1326257 160.51075 93.1326257 165.718011 96.8642567 170.850882 104.178254 170.850882 109.327904 170.850882 113.208801 168.321641 115.223882 165.494843L115.447779 165.494843 115.970208 170.032598 121.940817 170.032598zM114.999984 157.90712C114.999984 158.576625 114.850718 159.320519 114.626821 159.990024 113.581964 163.039991 110.596659 166.015569 105.894804 166.015569 102.536336 166.015569 99.7002963 164.007054 99.7002963 159.766856 99.7002963 152.774249 107.835252 151.509628 114.999984 151.658407L114.999984 157.90712zM127.165101 134.02811L140.52434 167.2058C140.822871 168.024084 140.972136 168.54481 140.972136 168.916757 140.972136 169.288704 140.748238 169.80943 140.449707 170.478935 138.957055 173.82646 136.718076 176.355701 134.926894 177.7691 132.986445 179.405668 130.822099 180.44712 129.180182 180.967846L130.822099 186.472664C132.464017 186.175107 135.67322 185.059265 138.882422 182.232466 143.040526 178.640519 146.104652 172.931889 150.285738 162.247679L161.122944 134.02811 154.18211 134.02811 147.017378 155.154711C146.121787 157.758341 145.37546 160.51075 144.703767 162.668044L144.554502 162.668044 143.481658 159.069455C143.080507 157.795536 142.65137 156.493721 142.24089 155.303489L134.329833 134.02811 127.165101 134.02811zM182.915669 170.032598L189.48334 170.032598 189.48334 117.216097 182.915669 117.216097 182.915669 170.032598zM226.50112 170.032598C226.053324 167.577747 225.904059 164.52778 225.904059 161.403423L225.904059 147.938935C225.904059 140.723159 223.217284 133.209826 212.171656 133.209826 207.619067 133.209826 203.290374 134.474447 200.30507 136.408572L201.797722 140.723159C204.335231 139.086592 207.842964 138.04514 211.201432 138.04514 218.590062 138.04514 219.411021 143.401179 219.411021 146.376757L219.411021 147.120651C205.45472 147.046262 197.692928 151.807186 197.692928 160.51075 197.692928 165.718011 201.424559 170.850882 208.738556 170.850882 213.888207 170.850882 217.769103 168.321641 219.784184 165.494843L220.008082 165.494843 220.53051 170.032598 226.50112 170.032598zM219.560286 157.90712C219.560286 158.576625 219.411021 159.320519 219.187123 159.990024 218.142266 163.039991 215.156961 166.015569 210.455106 166.015569 207.096638 166.015569 204.260599 164.007054 204.260599 159.766856 204.260599 152.774249 212.395554 151.509628 219.560286 151.658407L219.560286 157.90712zM237.994543 125.398935L237.994543 134.02811 232.397097 134.02811 232.397097 139.012202 237.994543 139.012202 237.994543 158.651014C237.994543 162.891212 238.666237 166.089958 240.532052 168.024084 242.099337 169.80943 244.562214 170.776493 247.622151 170.776493 250.159661 170.776493 252.174741 170.404546 253.443496 169.88382L253.144965 164.974117C252.324007 165.197285 251.055252 165.420453 249.338702 165.420453 245.681703 165.420453 244.412949 162.891212 244.412949 158.427846L244.412949 139.012202 253.816659 139.012202 253.816659 134.02811 244.412949 134.02811 244.412949 123.687978 237.994543 125.398935zM264.862287 153.220585L290.237378 153.220585 290.377314 151.946666C290.42396 151.435239 290.461276 150.840123 290.461276 150.170618 290.461276 143.549958 287.326706 133.209826 275.534752 133.209826 265.011552 133.209826 258.593147 141.764612 258.593147 152.62547 258.593147 163.486328 265.23545 170.776493 276.355711 170.776493 282.102422 170.776493 286.057951 169.586262 288.371563 168.54481L287.252073 163.858275C284.789197 164.899727 281.953157 165.718011 277.251302 165.718011 270.683631 165.718011 265.011552 162.072928 264.862287 153.220585zM264.93692 148.534051C265.459348 143.996295 268.37002 137.896361 275.012323 137.896361 282.400953 137.896361 284.192136 144.368242 284.117503 148.534051L264.93692 148.534051zM298.596232 170.032598L305.08927 170.032598 305.08927 150.840123C305.08927 149.724282 305.238535 148.682829 305.3878 147.790156 306.283392 142.880453 309.567227 139.38415 314.19445 139.38415 315.090041 139.38415 315.761735 139.458539 316.433428 139.607318L316.433428 133.432994C315.836367 133.284216 315.313939 133.209826 314.567613 133.209826 310.164288 133.209826 306.208759 136.259793 304.566841 141.095107L304.268311 141.095107 304.044413 134.02811 298.297701 134.02811C298.521599 137.375635 298.596232 141.020717 298.596232 145.260915L298.596232 170.032598zM325.837138 170.850882C323.224997 170.850882 321.433814 168.842367 321.433814 166.164348 321.433814 163.411938 323.299629 161.477813 325.911771 161.477813 328.523913 161.477813 330.315096 163.411938 330.315096 166.164348 330.315096 168.842367 328.598545 170.850882 325.837138 170.850882zM387.872839 66.3794169C381.595703 66.3794169 376.507357 71.4971977 376.507357 77.8109482 376.507357 84.1234235 381.595703 89.2424796 387.872839 89.2424796 394.149869 89.2424796 399.239388 84.1237423 399.239388 77.8109482 399.239388 71.4967727 394.150082 66.3794169 387.872839 66.3794169zM350.478698 57.5413139C350.478698 48.8974737 343.133035 41.8919014 334.071249 41.8919014 325.009463 41.8919014 317.662734 48.8977925 317.662734 57.5413139 317.662734 66.1852605 325.008503 73.1928519 334.071249 73.1928519 343.133995 73.1928519 350.478698 66.1852605 350.478698 57.5413139zM350.539628 27.124535L368.647634 27.124535 368.647634 87.9559674 350.539628 87.9559674 350.539628 84.0681628C345.423881 87.5772189 339.248778 89.640038 332.58835 89.640038 314.963323 89.640038 300.674375 75.2690611 300.674375 57.5409951 300.674375 39.8129291 314.963323 25.4430149 332.58835 25.4430149 339.248778 25.4430149 345.424095 27.5057278 350.539628 31.0158466L350.539628 27.1243225 350.539628 27.124535zM205.624401 35.0482855L205.624401 27.1253852 187.084592 27.1253852 187.084592 87.9557548 205.665982 87.9557548 205.665982 59.5549298C205.665982 49.9728261 215.991832 44.8226327 223.15667 44.8226327 223.230042 44.8226327 223.298536 44.8297285 223.37191 44.8306317L223.37191 27.1301961C216.018145 27.1301961 209.254617 30.2970608 205.624273 35.0494832L205.624401 35.0482855zM159.441735 57.5415265C159.441735 48.8976862 152.09522 41.8921139 143.03322 41.8921139 133.971647 41.8921139 126.624705 48.898005 126.624705 57.5415265 126.624705 66.185473 133.971221 73.1930644 143.03322 73.1930644 152.095539 73.1930644 159.441735 66.185473 159.441735 57.5415265zM159.501639 27.1247476L177.610712 27.1247476 177.610712 87.9561799 159.501639 87.9561799 159.501639 84.0683753C154.385893 87.5774314 148.21079 89.6402506 141.551428 89.6402506 123.925335 89.6402506 109.636387 75.2692737 109.636387 57.5412077 109.636387 39.8131416 123.925335 25.4432275 141.551428 25.4432275 148.211216 25.4432275 154.386106 27.5059403 159.501639 31.0160591L159.501639 27.124535 159.501639 27.1247476zM268.497252 25.488605C261.263645 25.488605 254.417275 27.7473872 249.840163 33.9790968L249.840163 27.1283608 231.809987 27.1283608 231.809987 87.956605 250.061928 87.956605 250.061928 55.9893377C250.061928 46.7389047 256.229461 42.2092255 263.655727 42.2092255 271.614336 42.2092255 276.189743 46.9909786 276.189743 55.8639383L276.189743 87.956605 294.276425 87.956605 294.276425 49.2730341C294.276425 35.1167238 283.085797 25.4896677 268.497252 25.4896677L268.497252 25.488605zM83.259086 87.956605L102.212573 87.956605 102.212573.0165984092 83.259086.0165984092 83.259086 87.956605 83.259086 87.956605zM0 87.980602L20.069778 87.980602 20.069778.000212541254 0 .000212541254 0 87.980602zM70.1973111 0C70.1973111 19.047097 62.8173177 36.7655987 49.6669432 49.9357175L77.4089547 87.9837901 52.6202626 87.9837901 22.4708161 46.6338891 30.2519065 40.7728515C43.1558867 31.0507894 50.5573104 16.19033 50.5573104 0L70.1974177 0 70.1973111 0z" transform="translate(47.525 42.772)"/>
  </g>
</svg>
