<svg xmlns="http://www.w3.org/2000/svg" width="640" height="360" viewBox="0 0 640 360">
  <g fill="none" fill-rule="evenodd" transform="translate(125 11)">
    <path fill="#FFF" d="M0.16809854,0.308143995 L0.16809854,335.353599 L200.114266,335.353599 C332.011128,335.353599 389.201639,263.191139 389.201639,167.497835 C389.201639,72.184151 332.011128,0.308143995 200.114266,0.308143995 L0.16809854,0.308143995 Z"/>
    <path fill="#000" d="M200.168069,25.0105318 C342.789931,25.0105318 364.084785,114.804111 364.084785,168.317753 C364.084785,261.164822 305.87515,312.297161 200.168069,312.297161 L25.3527044,312.297161 L25.3527044,25.0105318 L200.168069,25.0105318 Z M39.1151496,38.5185583 L39.1151496,298.782147 L200.168069,298.782147 C297.421828,298.782147 350.326609,254.304601 350.326609,168.317753 C350.326609,79.9537939 292.979529,38.5185583 200.168069,38.5185583 L39.1151496,38.5185583 Z"/>
    <polygon fill="#000" points="60.722 277.567 112.279 277.567 112.279 187.455 60.722 187.455"/>
    <path fill="#000" d="M118.537938,142.065841 C118.537938,159.442088 104.196186,173.530068 86.4967336,173.530068 C68.8072445,173.530068 54.4512591,159.442088 54.4512591,142.065841 C54.4512591,124.702171 68.8072445,110.607204 86.4967336,110.607204 C104.196186,110.607204 118.537938,124.702171 118.537938,142.065841"/>
    <path fill="#C06" d="M219.696821,156.789534 L219.696821,171.369426 L182.957113,171.369426 L182.957113,112.83744 L218.511164,112.83744 L218.511164,127.411742 L197.80985,127.411742 L197.80985,134.197898 L217.388135,134.197898 L217.388135,148.768008 L197.80985,148.768008 L197.80985,156.789534 L219.696821,156.789534 Z M226.829266,171.387594 L244.814814,112.813683 L265.941712,112.813683 L283.921566,171.387594 L268.461055,171.387594 L265.091967,160.056838 L245.664558,160.056838 L242.284084,171.387594 L226.829266,171.387594 Z M250.005799,145.488126 L260.749303,145.488126 L255.837296,128.934994 L254.94485,128.934994 L250.005799,145.488126 Z M291.38423,112.81508 L306.23412,112.81508 L306.23412,156.789534 L328.242077,156.789534 C322.20704,76.9977078 258.272661,59.7598113 200.179741,59.7598113 L138.243755,59.7598113 L138.243755,112.845825 L147.411602,112.845825 C164.126091,112.845825 174.510909,123.973945 174.510909,141.875644 C174.510909,160.344719 164.375179,171.369426 147.411602,171.369426 L138.243755,171.369426 L138.243755,277.59316 L200.179741,277.59316 C294.633755,277.59316 327.503354,234.527067 328.663391,171.369426 L291.38423,171.369426 L291.38423,112.81508 Z M138.230945,127.422922 L138.230945,156.789534 L147.411602,156.789534 C153.772588,156.789534 159.648208,154.983992 159.648208,141.875644 C159.648208,129.064959 153.109303,127.422922 147.411602,127.422922 L138.230945,127.422922 Z"/>
  </g>
</svg>
