<svg xmlns="http://www.w3.org/2000/svg" width="640" height="360" viewBox="0 0 640 360">
  <g fill="none" fill-rule="evenodd" transform="translate(80 128.736)">
    <path fill="#C11E47" d="M100.554191,101.837107 L100.554191,19.85027 C100.554191,9.65724532 92.2596688,1.31777734 82.1185223,1.31777734 L19.0122803,1.31777734 C8.87419108,1.31777734 0.576611465,9.65724532 0.576611465,19.85027 L0.576611465,83.3015409 C0.576611465,93.4976394 8.87419108,101.837107 19.0122803,101.837107 L100.554191,101.837107 Z"/>
    <path fill="#FFFFFE" d="M23.5340637 37.5380571C23.5340637 34.0676335 26.0166115 30.394333 30.6484586 30.394333L70.4792866 30.394333C75.0989045 30.394333 77.5906242 34.0676335 77.5906242 37.5380571 77.5906242 41.0115547 75.0989045 44.6940768 70.4792866 44.6940768L30.6484586 44.6940768C26.0166115 44.6940768 23.5340637 41.0115547 23.5340637 37.5380571M23.5340637 65.6048394C23.5340637 62.128268 26.0166115 58.4488197 30.6484586 58.4488197L70.4792866 58.4488197C75.0989045 58.4488197 77.5906242 62.128268 77.5906242 65.6048394 77.5906242 69.0691153 75.0989045 72.7485635 70.4792866 72.7485635L30.6484586 72.7485635C26.0166115 72.7485635 23.5340637 69.0691153 23.5340637 65.6048394"/>
    <path fill="#3E535D" d="M160.788994 101.817434L135.926828 101.817434C132.166318 101.817434 128.989758 98.6236611 128.989758 94.8427744L128.989758 8.31272512C128.989758 4.53183842 132.166318 1.33806502 135.926828 1.33806502L160.788994 1.33806502C176.014471 1.33806502 188.405809 13.7412177 188.405809 28.9815724 188.405809 36.82307 185.131414 44.2342227 179.386701 49.4967251 186.177019 55.088134 190.197401 63.510597 190.197401 72.2496709 190.197401 88.5535921 177.005045 101.817434 160.788994 101.817434L160.788994 101.817434zM142.860841 87.8711882L160.788994 87.8711882C169.355618 87.8711882 176.326318 80.9149714 176.326318 72.3695527 176.326318 63.7565084 169.355618 56.7480355 160.788994 56.7480355L142.860841 56.7480355 142.860841 87.8711882zM142.860841 42.7987153L160.788994 42.7987153C168.300841 42.7987153 174.412433 36.6017498 174.412433 28.9815724L174.412433 27.2786365C173.519694 20.5191488 167.750522 15.2873852 160.788994 15.2873852L142.860841 15.2873852 142.860841 42.7987153zM226.113325 103.019326C211.016255 103.019326 198.258038 90.7452768 198.258038 76.2149911L198.258038 53.981533C198.258038 39.1991882 210.218293 27.177198 224.917911 27.177198 239.620586 27.177198 251.580841 39.1991882 251.580841 53.981533L251.580841 62.3947744C251.580841 66.1756611 248.40428 69.3694345 244.643771 69.3694345L212.132178 69.3694345 212.132178 76.2149911C212.132178 82.9437399 218.797146 89.0700059 226.113325 89.0700059 230.668739 89.0700059 234.218293 87.6929025 236.966828 84.8557005 238.385427 82.8146365 240.293197 81.7387744 242.491414 81.7387744 246.245809 81.7387744 249.666955 85.0616512 249.666955 88.7134345 249.666955 90.1274246 249.229758 91.4123113 248.297274 92.7525281L248.297274 92.7525281C248.303389 92.7525281 247.768357 93.6685478 246.637146 94.8058877 241.797401 100.016134 234.310013 103.019326 226.113325 103.019326L226.113325 103.019326zM212.132178 55.4201143L237.706701 55.4201143 237.706701 53.981533C237.706701 46.7732571 232.090395 41.1265182 224.917911 41.1265182 217.748484 41.1265182 212.132178 46.7732571 212.132178 53.981533L212.132178 55.4201143zM269.211822 101.817434C265.766217 101.817434 262.274752 99.4228729 262.274752 94.8427744L262.274752 8.31272512C262.274752 3.7326266 265.766217 1.33806502 269.211822 1.33806502 272.657427 1.33806502 276.145834 3.7326266 276.145834 8.31272512L276.145834 94.8427744C276.145834 99.4228729 272.657427 101.817434 269.211822 101.817434M303.118471 101.817434C299.669809 101.817434 296.181401 99.4228729 296.181401 94.8427744L296.181401 42.3284099 290.916688 42.3284099C286.361274 42.3284099 283.979618 38.8180256 283.979618 35.3537498 283.979618 31.8864 286.361274 28.3790897 290.916688 28.3790897L296.181401 28.3790897 296.181401 20.4484493C296.181401 8.86909951 305.432866.136173399 317.701911.136173399 328.353631.136173399 333.123057 5.20809458 333.123057 10.2339074 333.123057 14.0055724 330.554904 16.8489222 327.14293 16.8489222 325.681529 16.8489222 324.339363 16.4462424 323.043057 15.6162916 322.278726 15.1705773 320.163057 14.0854936 317.701911 14.0854936 312.058089 14.0854936 310.052484 17.5128828 310.052484 20.4484493L310.052484 28.3790897 324.632866 28.3790897C329.18828 28.3790897 331.572994 31.8864 331.572994 35.3537498 331.572994 38.8180256 329.18828 42.3284099 324.632866 42.3284099L310.052484 42.3284099 310.052484 94.8427744C310.052484 99.4228729 306.564076 101.817434 303.118471 101.817434M347.227414 101.817434C343.781809 101.817434 340.293401 99.4228729 340.293401 94.8427744L340.293401 35.3537498C340.293401 30.7736512 343.781809 28.3790897 347.227414 28.3790897 350.676076 28.3790897 354.164484 30.7736512 354.164484 35.3537498L354.164484 94.8427744C354.164484 99.4228729 350.676076 101.817434 347.227414 101.817434M347.227414 20.2916808C343.781809 20.2916808 340.293401 17.8940453 340.293401 13.3170207L340.293401 8.31272512C340.293401 3.7326266 343.781809 1.33806502 347.227414 1.33806502 350.676076 1.33806502 354.164484 3.7326266 354.164484 8.31272512L354.164484 13.3170207C354.164484 17.8940453 350.676076 20.2916808 347.227414 20.2916808M393.469452 103.019326C378.769834 103.019326 366.812637 90.9942621 366.812637 76.2149911L366.812637 35.3537498C366.812637 30.7736512 370.301045 28.3790897 373.74665 28.3790897 377.195312 28.3790897 380.68372 30.7736512 380.68372 35.3537498L380.68372 76.2149911C380.68372 83.423267 386.303083 89.0700059 393.469452 89.0700059 400.638879 89.0700059 406.258242 83.423267 406.258242 76.2149911L406.258242 35.3537498C406.258242 30.7736512 409.743592 28.3790897 413.192255 28.3790897 416.63786 28.3790897 420.129325 30.7736512 420.129325 35.3537498L420.129325 76.2149911C420.129325 90.9942621 408.16907 103.019326 393.469452 103.019326M451.646675 103.019326C444.397758 103.019326 434.858904 99.6933754 430.642854 93.3365675 429.747057 92.0486069 429.288459 90.6499862 429.288459 89.1960355 429.288459 85.5442522 432.709605 82.2213754 436.460943 82.2213754 438.582726 82.2213754 440.61279 83.3279764 442.019159 85.2583803L442.242344 85.5903606C444.284637 87.8035626 447.705783 89.0700059 451.646675 89.0700059 459.33279 89.0700059 463.353172 84.840331 463.353172 80.6629123 463.353172 74.7948532 457.217121 72.3879961 450.111898 69.5999764 441.043873 66.0434837 429.765401 61.6170798 429.765401 47.7323113 429.765401 34.2379271 441.193682 27.177198 452.481325 27.177198 460.668841 27.177198 469.305783 31.7081143 473.488204 38.1909517 474.221962 39.3006266 474.598013 40.6131783 474.598013 42.0824985 474.598013 45.8633852 471.311389 49.0571586 467.422471 49.0571586 465.105019 49.0571586 463.133045 47.8952276 461.864255 45.7803901 459.008713 42.5620256 456.113427 41.1265182 452.481325 41.1265182 447.112662 41.1265182 443.639541 43.7178089 443.639541 47.7323113 443.639541 52.2017498 449.158013 54.3872867 455.544764 56.9170995 465.205911 60.7410207 477.230369 65.5024788 477.230369 80.6629123 477.230369 95.1839764 464.047185 103.019326 451.646675 103.019326"/>
  </g>
</svg>
