<svg xmlns="http://www.w3.org/2000/svg" width="640" height="360" viewBox="0 0 640 360">
  <g fill="none" fill-rule="evenodd" transform="translate(160 53.333)">
    <path fill="#00AEEF" fill-rule="nonzero" d="M161.576355,110.99676 C192,110.99676 216.748768,86.1017724 216.748768,55.49838 C216.748768,24.8949876 192,0 161.576355,0 C131.152709,0 106.403941,24.8949876 106.403941,55.49838 C106.403941,86.1017724 131.152709,110.99676 161.576355,110.99676"/>
    <path fill="#00AEEF" fill-rule="nonzero" d="M202.246305,100.372784 C191.684729,111.789594 173.241379,123.36497 149.438424,123.36497 C130.995074,123.36497 115.073892,116.229464 104.985222,108.142558 C44.7684729,114.48523 0,123.36497 0,123.36497 L0,147.942824 L319.527094,147.942824 L319.527094,97.3600152 C319.527094,97.3600152 264.827586,97.0428816 202.246305,100.372784"/>
    <polyline fill="#003665" fill-rule="nonzero" points="37.99 219.774 37.99 249.584 0 249.584 0 170.142 37.99 170.142 37.99 205.82 38.148 205.82 60.532 170.142 106.089 170.142 72.67 211.211 104.197 249.584 60.69 249.584 38.148 219.774 37.99 219.774"/>
    <path fill="#003665" fill-rule="nonzero" d="M112.236453 170.142176L189.004926 170.142176C208.866995 170.142176 215.487685 177.91195 215.487685 190.121593 215.487685 203.758338 203.349754 209.62531 191.054187 210.259577L191.054187 210.418144C203.82266 211.369545 216.118227 212.796646 216.118227 228.970459 216.118227 239.435868 209.655172 249.74271 187.586207 249.74271L112.236453 249.74271 112.236453 170.142176 112.236453 170.142176zM150.226601 233.41033L170.08867 233.41033C177.497537 233.41033 180.019704 230.397561 180.019704 225.799123 180.019704 221.200686 177.497537 218.02935 170.08867 218.02935L150.226601 218.02935 150.226601 233.41033zM150.226601 203.758338L169.142857 203.758338C176.394089 203.758338 179.389163 200.745569 179.389163 196.147132 179.389163 190.914427 176.551724 188.377358 169.773399 188.377358L150.226601 188.377358 150.226601 203.758338zM319.527094 246.254241C310.541872 248.949876 298.719212 250.694111 288.315271 250.694111 250.79803 250.694111 223.211823 239.911569 223.211823 208.673909 223.211823 180.449018 250.009852 168.239375 286.423645 168.239375 296.512315 168.239375 309.438424 169.349342 319.527094 172.679245L319.527094 199.952735C312.118227 195.354298 304.551724 192.500095 293.832512 192.500095 279.960591 192.500095 265.931034 199.477034 265.931034 209.466743 265.931034 219.456451 279.802956 226.433391 293.832512 226.433391 304.394089 226.433391 311.960591 223.579188 319.527094 219.139318L319.527094 246.254241"/>
  </g>
</svg>
