<svg xmlns="http://www.w3.org/2000/svg" width="640" height="360" viewBox="0 0 640 360">
  <g fill="none" fill-rule="evenodd" transform="translate(160 53.333)">
    <path fill="#000" fill-rule="nonzero" d="M96.7931624,250.015584 L96.7931624,233.392208 C96.9866981,230.571349 95.9723609,227.802571 94.0090342,225.792533 C92.0457076,223.782494 89.3233423,222.725665 86.5367521,222.891775 C82.854931,222.647267 79.3335508,224.452056 77.3470085,227.601732 C75.5358521,224.545965 72.2195647,222.738717 68.7042735,222.891775 C65.6435347,222.735036 62.729741,224.231936 61.0461538,226.825974 L61.0461538,223.55671 L55.357265,223.55671 L55.357265,250.015584 L61.1008547,250.015584 L61.1008547,235.359307 C60.8431507,233.523356 61.413164,231.667238 62.6535314,230.303371 C63.8938988,228.939503 65.6734313,228.212138 67.5008547,228.322078 C71.2752137,228.322078 73.1897436,230.815584 73.1897436,235.303896 L73.1897436,250.015584 L78.9333333,250.015584 L78.9333333,235.359307 C78.6961219,233.52753 79.2732204,231.683528 80.508941,230.32477 C81.7446617,228.966013 83.5116939,228.232486 85.3333333,228.322078 C89.217094,228.322078 91.0769231,230.815584 91.0769231,235.303896 L91.0769231,250.015584 L96.7931624,250.015584 Z M128.793162,236.8 L128.793162,223.584416 L123.049573,223.584416 L123.049573,226.798268 C121.092553,224.239987 118.037097,222.79559 114.844444,222.919481 C107.291832,222.919481 101.169231,229.121597 101.169231,236.772294 C101.169231,244.422992 107.291832,250.625108 114.844444,250.625108 C118.037097,250.748999 121.092553,249.304601 123.049573,246.74632 L123.049573,249.960173 L128.738462,249.960173 L128.793162,236.8 Z M107.651282,236.8 C107.90426,232.452069 111.541721,229.106448 115.838333,229.269811 C120.134945,229.433175 123.514591,233.045598 123.445103,237.400505 C123.375616,241.755413 119.882485,245.255306 115.582906,245.277922 C113.381621,245.330219 111.26052,244.440272 109.740415,242.826598 C108.220311,241.212924 107.441998,239.024983 107.596581,236.8 L107.651282,236.8 Z M250.338462,222.947186 C252.21135,222.942283 254.067944,223.299617 255.808547,224 C257.469979,224.67399 258.984652,225.671785 260.266667,226.936797 C261.532109,228.190387 262.536528,229.688319 263.220513,231.341991 C264.649458,234.894276 264.649458,238.871957 263.220513,242.424242 C262.537184,244.078275 261.532682,245.576331 260.266667,246.829437 C258.984652,248.094449 257.469979,249.092243 255.808547,249.766234 C252.202008,251.185839 248.20141,251.185839 244.594872,249.766234 C242.94119,249.092913 241.435355,248.094817 240.164103,246.829437 C238.910752,245.571421 237.916075,244.074154 237.237607,242.424242 C235.811567,238.871381 235.811567,234.894852 237.237607,231.341991 C237.916075,229.69208 238.910752,228.194813 240.164103,226.936797 C241.435355,225.671417 242.94119,224.673321 244.594872,224 C246.398022,223.242882 248.331858,222.856743 250.283761,222.863967 L250.338462,222.947186 Z M250.338462,228.488312 C249.224567,228.472921 248.118597,228.680041 247.083761,229.097835 C246.109038,229.493721 245.224749,230.08776 244.48547,230.84329 C243.731288,231.638658 243.145003,232.581355 242.762393,233.613853 C241.926854,235.825989 241.926854,238.272712 242.762393,240.484848 C243.144311,241.517694 243.73068,242.460526 244.48547,243.255411 C245.224254,244.011552 246.108675,244.605681 247.083761,245.000866 C249.167421,245.827365 251.482152,245.827365 253.565812,245.000866 C254.587521,244.6183 255.519091,244.023789 256.300855,243.255411 C257.056873,242.4615 257.643411,241.518396 258.023932,240.484848 C258.859471,238.272712 258.859471,235.825989 258.023932,233.613853 C257.643411,232.580305 257.056873,231.637201 256.300855,230.84329 C255.519091,230.074913 254.587521,229.480402 253.565812,229.097835 C252.534063,228.619379 251.418001,228.355583 250.283761,228.322078 L250.338462,228.488312 Z M159.699145,236.8 C159.699145,228.488312 154.611966,222.947186 147.309402,222.947186 C139.75679,223.054296 133.719905,229.343242 133.825642,236.993939 C133.931379,244.644637 140.139696,250.759923 147.692308,250.652814 C151.586091,250.78758 155.392665,249.466083 158.386325,246.94026 L155.651282,242.673593 C153.491588,244.428131 150.816005,245.403071 148.047863,245.444156 C144.137754,245.784797 140.670305,242.910949 140.225641,238.961039 L159.617094,238.961039 C159.699145,238.268398 159.699145,237.575758 159.699145,236.8 Z M140.252991,234.472727 C140.472522,230.817662 143.50396,227.991541 147.117949,228.072727 C148.837205,228.035597 150.500567,228.69203 151.741919,229.897541 C152.98327,231.103052 153.700863,232.758832 153.736752,234.500433 L140.252991,234.472727 Z M183.630769,230.316883 C181.133044,228.859998 178.30766,228.077697 175.425641,228.045022 C172.307692,228.045022 170.447863,229.208658 170.447863,231.148052 C170.447863,233.087446 172.417094,233.419913 174.878632,233.752381 L177.613675,234.14026 C183.302564,234.971429 186.748718,237.409524 186.748718,242.064069 C186.748718,246.718615 182.37265,250.708225 174.851282,250.708225 C170.820155,250.816848 166.86094,249.612687 163.555556,247.272727 L166.290598,242.784416 C168.800556,244.670697 171.864075,245.646579 174.988034,245.554978 C178.871795,245.554978 180.950427,244.391342 180.950427,242.341126 C180.950427,240.845022 179.473504,240.013853 176.355556,239.570563 L173.620513,239.182684 C167.767521,238.351515 164.594872,235.691775 164.594872,231.369697 C164.594872,226.105628 168.861538,222.891775 175.535043,222.891775 C179.270129,222.765007 182.962688,223.726579 186.174359,225.662338 L183.630769,230.316883 Z M210.981197,228.820779 L201.709402,228.820779 L201.709402,240.761905 C201.709402,243.532468 202.639316,245.194805 205.483761,245.194805 C207.259161,245.135246 208.990641,244.620494 210.516239,243.698701 L212.157265,248.630303 C210.024773,249.978398 207.559818,250.689073 205.046154,250.680596 C198.317949,250.680596 195.965812,247.023377 195.965812,240.872727 L195.965812,228.820779 L190.659829,228.820779 L190.659829,223.55671 L195.965812,223.55671 L195.965812,215.522078 L201.709402,215.522078 L201.709402,223.55671 L210.981197,223.55671 L210.981197,228.820779 Z M230.646154,222.891775 C232.026044,222.897176 233.394932,223.14078 234.694017,223.612121 L232.94359,229.153247 C231.813163,228.696692 230.604872,228.470726 229.388034,228.488312 C225.668376,228.488312 223.917949,230.926407 223.917949,235.303896 L223.917949,250.126407 L218.22906,250.126407 L218.22906,223.667532 L223.863248,223.667532 L223.863248,226.881385 C225.285424,224.406727 227.93003,222.918421 230.755556,223.002597 L230.646154,222.891775 Z M269.976068,246.164502 C270.331659,246.160089 270.684687,246.225965 271.015385,246.358442 C271.329484,246.488281 271.616997,246.676182 271.863248,246.912554 C272.103574,247.151436 272.298291,247.433216 272.437607,247.743723 C272.717569,248.397707 272.717569,249.139956 272.437607,249.793939 C272.298291,250.104447 272.103574,250.386226 271.863248,250.625108 C271.616997,250.86148 271.329484,251.049381 271.015385,251.179221 C270.687952,251.325576 270.33396,251.401069 269.976068,251.400866 C268.917743,251.392785 267.959009,250.766911 267.51453,249.793939 C267.237809,249.139278 267.237809,248.398384 267.51453,247.743723 C267.653846,247.433216 267.848563,247.151436 268.088889,246.912554 C268.33514,246.676182 268.622652,246.488281 268.936752,246.358442 C269.224594,246.242486 269.52979,246.176907 269.839316,246.164502 L269.976068,246.164502 Z M269.976068,250.84679 C270.249052,250.848433 270.519317,250.79179 270.769231,250.680519 C271.004544,250.574095 271.217954,250.423708 271.398291,250.237229 C271.869242,249.756755 272.075644,249.071725 271.949822,248.406741 C271.824001,247.741756 271.382184,247.182582 270.769231,246.912554 C270.51907,246.802068 270.248971,246.745459 269.976068,246.746311 C269.703402,246.74778 269.433759,246.804293 269.182906,246.912554 C268.937175,247.014622 268.714016,247.165326 268.526496,247.355844 C267.817307,248.139656 267.817307,249.342595 268.526496,250.126407 C268.909084,250.518819 269.431613,250.738535 269.976068,250.735931 L269.976068,250.84679 Z M270.140171,247.549784 C270.395491,247.537241 270.647086,247.61566 270.851282,247.771429 C271.021135,247.913824 271.112784,248.130449 271.097436,248.353247 C271.105376,248.539304 271.035926,248.720208 270.905983,248.851948 C270.747455,248.997807 270.545222,249.085604 270.331624,249.101299 L271.124786,250.015584 L270.495726,250.015584 L269.757265,249.101299 L269.511111,249.101299 L269.511111,250.015584 L268.991453,250.015584 L268.991453,247.466667 L270.140171,247.549784 Z M269.538462,248.020779 L269.538462,248.685714 L270.140171,248.685714 C270.247244,248.718052 270.361303,248.718052 270.468376,248.685714 C270.507386,248.607294 270.507386,248.514784 270.468376,248.436364 C270.507386,248.357944 270.507386,248.265433 270.468376,248.187013 C270.361303,248.154675 270.247244,248.154675 270.140171,248.187013 L269.538462,248.020779 Z"/>
    <g fill-rule="nonzero">
      <polygon fill="#7673C0" points="116.622 21.694 202.776 21.694 202.776 178.535 116.622 178.535"/>
      <path fill="#EB001B" d="M122.092308,100.128139 C122.060096,69.5175543 135.928462,40.593023 159.699145,21.6935065 C119.329341,-10.4448782 61.3566832,-5.76364453 26.5227976,32.4473622 C-8.31108794,70.658369 -8.31108794,129.570202 26.5227976,167.781209 C61.3566832,205.992216 119.329341,210.67345 159.699145,178.535065 C135.936024,159.641548 122.068506,130.729 122.092308,100.128139 L122.092308,100.128139 Z"/>
      <path fill="#00A1DF" d="M309.606838 162.746705L309.606838 158.975661 310.892308 158.975661 310.892308 158.167581 307.637607 158.167581 307.637607 158.975661 308.923077 158.975661 308.923077 162.881385 309.606838 162.746705zM315.924786 162.746705L315.924786 158.0329 314.940171 158.0329 313.791453 161.399904 312.642735 158.0329 311.630769 158.0329 311.630769 162.746705 312.34188 162.746705 312.34188 159.211352 313.408547 162.275325 314.147009 162.275325 315.213675 159.211352 315.213675 162.780375 315.924786 162.746705zM318.988034 100.128139C318.978929 138.305574 297.4574 173.128356 263.559498 189.813953 229.661596 206.499551 189.335192 202.120238 159.699145 178.535065 183.451898 159.625508 197.32046 130.716804 197.32046 100.114286 197.32046 69.5117672 183.451898 40.6030633 159.699145 21.6935065 189.334946-1.90862636 229.672724-6.29786992 263.580869 10.3899044 297.489014 27.0776787 319.015385 61.9127124 319.015385 100.100433L318.988034 100.128139z"/>
    </g>
  </g>
</svg>
