<svg width="512" height="512" viewBox="0 0 512 512" fill="none" xmlns="http://www.w3.org/2000/svg">
<g clip-path="url(#clip0_28_10922)">
<mask id="mask0_28_10922" style="mask-type:alpha" maskUnits="userSpaceOnUse" x="7" y="12" width="498" height="497">
<path d="M7.64258 260.455C7.64258 397.626 118.844 508.811 255.998 508.811C393.157 508.811 504.353 397.626 504.353 260.455C504.353 123.301 393.157 12.1116 255.998 12.1116C118.844 12.1116 7.64258 123.301 7.64258 260.455Z" fill="white"/>
</mask>
<g mask="url(#mask0_28_10922)">
<path fill-rule="evenodd" clip-rule="evenodd" d="M504.352 260.461C504.352 397.626 393.157 508.816 255.997 508.816C118.832 508.816 7.64795 397.626 7.64795 260.461C7.64795 123.296 118.838 12.1061 255.997 12.1061C393.157 12.1061 504.352 123.296 504.352 260.461Z" fill="white"/>
<mask id="mask1_28_10922" style="mask-type:alpha" maskUnits="userSpaceOnUse" x="7" y="12" width="498" height="497">
<path d="M7.64258 260.455C7.64258 397.626 118.844 508.811 255.998 508.811C393.157 508.811 504.353 397.626 504.353 260.455C504.358 123.301 393.163 12.1116 256.003 12.1116C118.844 12.1116 7.64258 123.301 7.64258 260.455Z" fill="white"/>
</mask>
<g mask="url(#mask1_28_10922)">
<path fill-rule="evenodd" clip-rule="evenodd" d="M511.708 363.234C397.503 311.923 279.996 167.672 270.063 161.052C260.135 154.426 246.89 162.708 246.89 162.708C238.624 149.457 225.378 164.359 225.378 164.359C164.14 268.626 0.291992 368.192 0.291992 368.192C0.291992 368.192 78.9874 512.898 260.871 512.898C445.765 512.898 511.708 363.228 511.708 363.228" fill="#1D5992"/>
</g>
</g>
<mask id="mask2_28_10922" style="mask-type:alpha" maskUnits="userSpaceOnUse" x="7" y="12" width="498" height="497">
<path d="M7.64258 260.455C7.64258 397.626 118.844 508.811 255.998 508.811C393.157 508.811 504.353 397.626 504.353 260.455C504.353 123.301 393.157 12.1116 255.998 12.1116C118.844 12.1116 7.64258 123.301 7.64258 260.455Z" fill="white"/>
</mask>
<g mask="url(#mask2_28_10922)">
<path fill-rule="evenodd" clip-rule="evenodd" d="M144.28 253.734C144.28 253.734 177.381 238.838 170.761 263.662C164.135 288.492 137.66 324.9 145.936 326.551C154.213 328.207 177.381 305.045 184.007 308.352C190.615 311.66 195.579 310.003 192.272 321.587C188.97 333.171 185.663 341.453 192.272 341.453C198.898 341.453 203.861 326.551 212.138 311.66C220.415 296.768 233.649 303.383 238.613 308.347C243.583 313.316 258.474 341.453 270.069 338.135C281.653 334.827 288.267 319.936 283.304 286.835C278.34 253.734 286.617 243.801 286.617 243.801C286.617 243.801 296.544 238.838 314.754 262.005C332.958 285.173 366.064 319.936 371.017 318.28C375.986 316.623 347.855 280.209 354.469 276.897C361.095 273.589 387.576 281.866 400.816 293.461C400.816 293.461 405.342 312.429 405.342 294.225L270.069 161.052L246.89 162.708L225.378 164.353C225.378 164.353 172.411 243.807 144.28 253.734Z" fill="#FFFFFE"/>
<mask id="mask3_28_10922" style="mask-type:alpha" maskUnits="userSpaceOnUse" x="7" y="12" width="498" height="497">
<path d="M7.64258 260.455C7.64258 397.626 118.844 508.811 255.998 508.811C393.157 508.811 504.353 397.626 504.353 260.455C504.358 123.301 393.163 12.1116 256.003 12.1116C118.844 12.1116 7.64258 123.301 7.64258 260.455Z" fill="white"/>
</mask>
<g mask="url(#mask3_28_10922)">
<path d="M238.579 149.569L240.218 149.676C243.116 150.001 245.789 151.074 248.153 152.837L248.759 153.331L250.387 152.736C254.481 151.321 258.67 150.602 262.864 150.883L264.964 151.107C268.306 151.591 271.497 152.813 274.308 154.684L289.199 170.951C311.378 194.899 353.458 239.646 381.528 265.852L383.268 267.469C425.92 306.943 466.742 337.5 504.885 356.496C507.115 357.608 509.333 358.68 511.539 359.708L514.841 361.218L508.569 375.172C505.036 373.581 501.535 371.921 498.069 370.191C459.931 351.195 419.727 321.463 377.906 283.315L372.875 278.693C332.766 241.578 265.498 168.031 265.762 167.391C264.843 166.778 263.796 166.384 262.701 166.24C260.219 165.87 257.165 166.437 254.054 167.689C253.114 168.061 252.197 168.491 251.308 168.975L244.458 173.248L240.398 166.757C239.483 165.286 238.961 164.926 238.517 164.876C237.652 164.78 235.912 165.476 233.924 166.948C233.127 167.532 232.436 168.127 231.903 168.621L231.493 169.014L229.584 172.215C208.42 206.803 175.561 242.678 134.015 278.924L129.186 283.107C101.857 306.589 72.6083 328.78 43.3649 349.005C36.0541 354.059 29.1139 358.736 22.6284 362.998L12.8975 369.31L4.2615 374.728L-3.67822 361.656L2.64998 357.698C3.94706 356.878 5.33399 355.991 6.80514 355.047L14.2339 350.213C21.0965 345.695 27.9062 341.098 34.6616 336.422C63.495 316.483 92.3285 294.606 119.213 271.506C161.922 234.806 195.494 198.6 216.5 164.292L218.78 160.485L219.662 159.277C220.779 158.02 222.542 156.335 224.839 154.639C229.151 151.456 233.705 149.485 238.579 149.569Z" fill="#1A1919"/>
</g>
</g>
<path d="M255.992 0C114.615 0 0 114.615 0 256.003C0 397.391 114.609 512.006 255.992 512.006C397.379 512.006 512 397.391 512 256.003C512 114.615 397.379 0 255.992 0ZM255.992 15.2955C388.934 15.2955 496.705 123.066 496.705 256.003C496.705 388.945 388.934 496.71 255.997 496.71C123.06 496.71 15.2955 388.945 15.2955 256.003C15.2955 123.06 123.06 15.2955 255.997 15.2955H255.992Z" fill="#1A1919"/>
</g>
<defs>
<clipPath id="clip0_28_10922">
<rect width="512" height="512" fill="white"/>
</clipPath>
</defs>
</svg>
