<svg height="360" viewBox="0 0 640 360" width="640" xmlns="http://www.w3.org/2000/svg" xmlns:xlink="http://www.w3.org/1999/xlink"><mask id="a" fill="#fff"><path d="m.67830509 45.6164068c0 24.428339 19.80338981 44.2301695 44.23016951 44.2301695 24.4267796 0 44.2301695-19.8018305 44.2301695-44.2301695 0-24.4267797-19.8033899-44.22861019-44.2301695-44.22861019-24.4267797 0-44.23016951 19.80183049-44.23016951 44.22861019" fill="#fff" fill-rule="evenodd"/></mask><mask id="b" fill="#fff"><path d="m.67830509 44.4664068c0 24.428339 19.80338981 44.2301695 44.23016951 44.2301695 24.4267796 0 44.2301695-19.8018305 44.2301695-44.2301695 0-24.4267797-19.8033899-44.22861019-44.2301695-44.22861019-24.4267797 0-44.23016951 19.80183049-44.23016951 44.22861019" fill="#fff" fill-rule="evenodd"/></mask><mask id="c" fill="#fff"><path d="m.67830509 45.6164068c0 24.428339 19.80338981 44.2301695 44.23016951 44.2301695 24.4267796 0 44.2301695-19.8018305 44.2301695-44.2301695 0-24.4267797-19.8033899-44.22861019-44.2301695-44.22861019-24.4267797 0-44.23016951 19.80183049-44.23016951 44.22861019" fill="#fff" fill-rule="evenodd"/></mask><mask id="d" fill="#fff"><path d="m.67830509 44.4664068c0 24.428339 19.80338981 44.2301695 44.23016951 44.2301695 24.4267796 0 44.2301695-19.8018305 44.2301695-44.2301695 0-24.4267797-19.8033899-44.22861019-44.2301695-44.22861019-24.4267797 0-44.23016951 19.80183049-44.23016951 44.22861019" fill="#fff" fill-rule="evenodd"/></mask><g fill="none" fill-rule="evenodd" transform="translate(76 134)"><path d="m129.42981 62.410578c1.90861 0 3.870237-.3092656 5.884882-.9277966 2.014644-.6185311 3.711186-1.3872769 5.089627-2.3062373.494825-.2827571.742237-.7068927.742237-1.2724068 0-.388791-.123706-.724565-.371119-1.007322-.318101-.4241356-.724565-.6362034-1.21939-.6362034-.318101 0-.618531.0883615-.901288.2650847-2.792226 1.8379209-5.867209 2.7568814-9.224949 2.7568814-2.82757 0-5.398892-.6627119-7.713966-1.9881356-2.315073-1.3254238-4.144158-3.1986893-5.487254-5.6197966-1.343096-2.4211074-2.014644-5.2044972-2.014644-8.3501695 0-3.0749831.662712-5.8230283 1.988135-8.2441356 1.325424-2.4211074 3.145673-4.3032091 5.460746-5.6463051 2.315074-1.3430961 4.904068-2.0146441 7.766983-2.0146441 3.35774 0 6.450396.9366328 9.277966 2.8098983.282757.1767232.565514.2650848.848271.2650848.494825 0 .901289-.1943955 1.21939-.5831865.247413-.3887909.371119-.7422373.371119-1.0603389 0-.5655142-.265085-1.0073221-.795254-1.3254238-1.51982-1.0249943-3.225198-1.8202486-5.116136-2.3857627s-3.826056-.8482712-5.805356-.8482712c-3.428429 0-6.556429.8217627-9.384 2.4652882-2.82757 1.6435254-5.071955 3.9232542-6.733152 6.8391864-1.661198 2.9159322-2.491797 6.1588023-2.491797 9.7286102 0 3.7111864.839435 7.0159096 2.518305 9.9141695 1.67887 2.8982598 3.940927 5.1514802 6.78617 6.759661s5.946734 2.4122712 9.304474 2.4122712zm29.577221 0c2.509468 0 4.789197-.6096949 6.839186-1.8290848 2.049989-1.2193898 3.658169-2.907096 4.824542-5.0631186s1.74956-4.5594577 1.74956-7.2103051c0-2.6508475-.583187-5.0542825-1.74956-7.2103051s-2.774553-3.852565-4.824542-5.0896271c-2.049989-1.2370622-4.329718-1.8555932-6.839186-1.8555932-2.509469 0-4.789198.618531-6.839187 1.8555932-2.049989 1.2370621-3.658169 2.9336045-4.824542 5.0896271s-1.74956 4.5594576-1.74956 7.2103051c0 2.6508474.583187 5.0542825 1.74956 7.2103051s2.774553 3.8437288 4.824542 5.0631186c2.049989 1.2193899 4.329718 1.8290848 6.839187 1.8290848zm0-2.9689492c-1.908611 0-3.640498-.4859887-5.195662-1.4579661-1.555163-.9719774-2.783389-2.3062373-3.684677-4.0027796-.901289-1.6965424-1.351933-3.5874803-1.351933-5.6728136 0-2.120678.450644-4.0292881 1.351933-5.7258305.901288-1.6965424 2.129514-3.0308023 3.684677-4.0027797 1.555164-.9719774 3.287051-1.4579661 5.195662-1.4579661 1.90861 0 3.649333.4859887 5.222169 1.4579661s2.801062 2.3062373 3.684678 4.0027797 1.325424 3.6051525 1.325424 5.7258305-.441808 4.0292881-1.325424 5.7258305-2.111842 3.0219661-3.684678 3.9762712-3.313559 1.4314576-5.222169 1.4314576zm40.975864 2.4387797c.424136 0 .795254-.1502147 1.113356-.4506441s.477152-.6803842.477152-1.1398644v-15.5869831c0-3.1810169-.768745-5.7346666-2.306237-7.6609491-1.537491-1.9262825-3.949763-2.8894237-7.236813-2.8894237-1.873266 0-3.702351.503661-5.487255 1.510983-1.784904 1.0073221-3.154508 2.2708927-4.108813 3.7907119v-2.9159322c0-.4594802-.150215-.839435-.450644-1.1398644-.30043-.3004294-.680385-.4506441-1.139865-.4506441s-.839435.1502147-1.139864.4506441c-.30043.3004294-.450644.6803842-.450644 1.1398644v23.7515932c0 .4594802.150214.839435.450644 1.1398644.300429.3004294.680384.4506441 1.139864.4506441s.839435-.1502147 1.139865-.4506441c.300429-.3004294.450644-.6803842.450644-1.1398644v-15.4279322c0-1.3784407.424135-2.6596836 1.272407-3.8437288.848271-1.1840452 1.95279-2.1295141 3.313559-2.8364068 1.360768-.7068927 2.801062-1.060339 4.320881-1.060339 2.403435 0 4.179503.7157288 5.328204 2.1471865 1.1487 1.4314576 1.72305 3.295887 1.72305 5.5932881v15.4279322c0 .4594802.150215.839435.450645 1.1398644.300429.3004294.680384.4506441 1.139864.4506441zm18.072542 0c.777582 0 1.44913-.167887 2.014644-.503661.565514-.3357741.848272-.7510735.848272-1.2458983 0-.3534464-.114871-.6627119-.344611-.9277967-.22974-.2650847-.503661-.3976271-.821762-.3976271-.176724 0-.424136.0441808-.742238.1325424-.318101.0883616-.583186.1325424-.795254.1325424-.812926 0-1.466802-.2385763-1.961627-.7157288-.494825-.4771526-.742237-1.3872769-.742237-2.7303729v-17.760678h5.301695c.424135 0 .777582-.1325424 1.060339-.3976271.282757-.2650848.424135-.6096949.424135-1.0338305 0-.388791-.150214-.7422373-.450644-1.060339-.300429-.3181017-.645039-.4771525-1.03383-.4771525h-5.301695v-5.8848814c0-.4594802-.150215-.839435-.450644-1.1398644-.30043-.3004294-.680385-.4506441-1.139865-.4506441s-.839435.1502147-1.139864.4506441c-.30043.3004294-.450644.6803842-.450644 1.1398644v5.8848814h-3.870238c-.424135 0-.786418.1413785-1.086847.4241355-.300429.2827571-.450644.6362034-.450644 1.060339s.150215.777582.450644 1.060339c.300429.2827571.662712.4241356 1.086847.4241356h3.870238v17.9197288c0 1.9439548.34461 3.3577401 1.03383 4.241356.689221.8836158 1.404949 1.4137853 2.147187 1.5905084.742237.1767232 1.590508.2650848 2.544813.2650848zm21.094509.5301695c2.085333 0 4.011616-.5478418 5.778847-1.6435255 1.767232-1.0956836 3.092656-2.4387796 3.976271-4.0292881v3.5521356c0 .4594802.150215.839435.450644 1.1398644.30043.3004294.680385.4506441 1.139865.4506441s.839435-.1502147 1.139864-.4506441c.30043-.3004294.450644-.6803842.450644-1.1398644v-23.8576271c0-.4594802-.150214-.8482712-.450644-1.1663729-.300429-.3181017-.680384-.4771525-1.139864-.4771525s-.839435.1590508-1.139865.4771525c-.300429.3181017-.450644.7068927-.450644 1.1663729v3.2870508c-.883615-1.6611977-2.209039-3.0042938-3.976271-4.0292881-1.767231-1.0249944-3.711186-1.5374915-5.831864-1.5374915-2.297401 0-4.391571.6008587-6.282509 1.8025762-1.890938 1.2017176-3.384248 2.8717515-4.479932 5.0101017-1.095683 2.1383503-1.643525 4.5506215-1.643525 7.2368136s.539005 5.1072994 1.617017 7.263322c1.078011 2.1560226 2.562486 3.852565 4.453423 5.0896271 1.890938 1.2370622 4.020452 1.8555933 6.388543 1.8555933zm.318101-2.9689492c-1.873265 0-3.543299-.4859887-5.010101-1.4579661s-2.606667-2.3150734-3.419593-4.0292881c-.812927-1.7142147-1.21939-3.631661-1.21939-5.752339s.415299-4.020452 1.245898-5.699322c.830599-1.6788701 1.979299-2.9954577 3.446102-3.9497628 1.466802-.954305 3.119164-1.4314576 4.957084-1.4314576 1.837921 0 3.490283.4859887 4.957085 1.4579661s2.615503 2.3062373 3.446102 4.0027797 1.245898 3.5698079 1.245898 5.6197966c0 2.120678-.415299 4.0381243-1.245898 5.752339s-1.9793 3.0573107-3.446102 4.0292881-3.119164 1.4579661-4.957085 1.4579661zm32.705221 2.9689492c1.802576 0 3.446101-.2474125 4.930576-.7422373 1.484475-.4948249 2.650848-1.0868475 3.499119-1.7760678.848271-.6892204 1.272406-1.3342599 1.272406-1.9351187 0-.4241356-.123706-.7687457-.371118-1.0338305-.247413-.2650847-.583187-.3976271-1.007322-.3976271-.247413 0-.477153.0618531-.689221.1855593-.212067.1237062-.45948.3092656-.742237.556678-.600859.4948249-1.024994.8129266-1.272407.9543051-.742237.3887909-1.49331.6892203-2.25322.9012881s-1.776068.3181017-3.048475.3181017c-2.014644 0-3.808384-.4859887-5.38122-1.4579661s-2.801062-2.3062373-3.684678-4.0027796c-.883616-1.6965424-1.325424-3.6051526-1.325424-5.7258306 0-2.0499887.459481-3.9232542 1.378441-5.6197966.918961-1.6965423 2.182531-3.0396384 3.790712-4.0292881s3.384249-1.4844746 5.328203-1.4844746c.98965 0 1.917447.0795254 2.78339.2385763.865944.1590508 1.564.3622825 2.09417.6096949.424135.2120678.865943.5478418 1.325423 1.007322.282758.2827571.539006.4948249.768746.6362034.22974.1413786.521334.2120678.87478.2120678.388791 0 .715729-.1590508.980813-.4771525.265085-.3181017.397628-.671548.397628-1.060339 0-.7422373-.432972-1.4314576-1.298916-2.067661-.865943-.6362034-2.014644-1.1398644-3.446101-1.5109831-1.431458-.3711186-2.977786-.5566779-4.638983-.5566779-2.650848 0-5.001266.6362034-7.051255 1.9086101-2.049988 1.2724068-3.640497 2.9777853-4.771525 5.1161356s-1.696542 4.4976046-1.696542 7.0777627c0 2.6861921.556677 5.1072995 1.670033 7.2633221s2.677356 3.8437288 4.692 5.0631186c2.014644 1.2193899 4.312046 1.8290848 6.892204 1.8290848zm23.957424-.5301695c.777581 0 1.449129-.167887 2.014644-.503661.565514-.3357741.848271-.7510735.848271-1.2458983 0-.3534464-.11487-.6627119-.34461-.9277967-.229741-.2650847-.503661-.3976271-.821763-.3976271-.176723 0-.424136.0441808-.742237.1325424-.318102.0883616-.583187.1325424-.795255.1325424-.812926 0-1.466802-.2385763-1.961627-.7157288-.494825-.4771526-.742237-1.3872769-.742237-2.7303729v-17.760678h5.301695c.424135 0 .777582-.1325424 1.060339-.3976271.282757-.2650848.424135-.6096949.424135-1.0338305 0-.388791-.150214-.7422373-.450644-1.060339-.300429-.3181017-.645039-.4771525-1.03383-.4771525h-5.301695v-5.8848814c0-.4594802-.150215-.839435-.450644-1.1398644s-.680384-.4506441-1.139865-.4506441c-.45948 0-.839435.1502147-1.139864.4506441s-.450644.6803842-.450644 1.1398644v5.8848814h-3.870237c-.424136 0-.786418.1413785-1.086848.4241355-.300429.2827571-.450644.6362034-.450644 1.060339s.150215.777582.450644 1.060339c.30043.2827571.662712.4241356 1.086848.4241356h3.870237v17.9197288c0 1.9439548.34461 3.3577401 1.033831 4.241356.68922.8836158 1.404949 1.4137853 2.147186 1.5905084.742237.1767232 1.590508.2650848 2.544814.2650848zm27.662372 0c.459481 0 .839435-.1502147 1.139865-.4506441.300429-.3004294.450644-.6803842.450644-1.1398644v-16.0111186h15.268881c.45948 0 .839435-.1413786 1.139865-.4241356.300429-.2827571.450644-.6538757.450644-1.113356 0-.4594802-.150215-.8305988-.450644-1.1133559-.30043-.2827571-.680385-.4241356-1.139865-.4241356h-15.268881v-13.3072542h17.654644c.45948 0 .839435-.1502147 1.139864-.4506441.30043-.3004294.450644-.6627119.450644-1.0868475 0-.4594802-.150214-.839435-.450644-1.1398644-.300429-.3004293-.680384-.450644-1.139864-.450644h-19.29817c-.45948 0-.839435.1502147-1.139864.450644-.300429.3004294-.450644.6803842-.450644 1.1398644v33.9308475c0 .4594802.150215.839435.450644 1.1398644s.698057.4506441 1.192881.4506441zm37.900882.5301695c2.509469 0 4.789198-.6096949 6.839186-1.8290848 2.049989-1.2193898 3.65817-2.907096 4.824543-5.0631186 1.166372-2.1560226 1.749559-4.5594577 1.749559-7.2103051 0-2.6508475-.583187-5.0542825-1.749559-7.2103051-1.166373-2.1560226-2.774554-3.852565-4.824543-5.0896271-2.049988-1.2370622-4.329717-1.8555932-6.839186-1.8555932s-4.789198.618531-6.839187 1.8555932c-2.049988 1.2370621-3.658169 2.9336045-4.824542 5.0896271s-1.749559 4.5594576-1.749559 7.2103051c0 2.6508474.583186 5.0542825 1.749559 7.2103051s2.774554 3.8437288 4.824542 5.0631186c2.049989 1.2193899 4.329718 1.8290848 6.839187 1.8290848zm0-2.9689492c-1.90861 0-3.640497-.4859887-5.195661-1.4579661s-2.78339-2.3062373-3.684678-4.0027796c-.901288-1.6965424-1.351932-3.5874803-1.351932-5.6728136 0-2.120678.450644-4.0292881 1.351932-5.7258305s2.129514-3.0308023 3.684678-4.0027797 3.287051-1.4579661 5.195661-1.4579661 3.649333.4859887 5.222169 1.4579661 2.801062 2.3062373 3.684678 4.0027797 1.325424 3.6051525 1.325424 5.7258305-.441808 4.0292881-1.325424 5.7258305-2.111842 3.0219661-3.684678 3.9762712-3.313559 1.4314576-5.222169 1.4314576zm21.836746 2.4387797c.45948 0 .839435-.1502147 1.139864-.4506441s.450644-.6803842.450644-1.1398644v-13.0951864c0-1.6258531.415299-3.2340339 1.245898-4.8245424s1.890938-2.8894237 3.181017-3.8967458c1.290079-1.007322 2.588995-1.510983 3.896746-1.510983.45948 0 .945469.0883616 1.457966.2650847.512497.1767232.857107.2650848 1.033831.2650848.388791 0 .724565-.1502147 1.007322-.4506441s.424135-.6980565.424135-1.1928814c0-.5655141-.282757-.9896497-.848271-1.2724067-.565514-.2827571-1.201717-.4241356-1.90861-.4241356-2.226712.0353446-4.161831.7157288-5.805356 2.0411525s-2.871751 2.9954576-3.684678 5.0101017v-4.6654915c0-.4594802-.150215-.839435-.450644-1.1398644s-.680384-.4506441-1.139864-.4506441c-.459481 0-.839436.1502147-1.139865.4506441s-.450644.6803842-.450644 1.1398644v23.7515932c0 .4594802.150215.839435.450644 1.1398644s.680384.4506441 1.139865.4506441zm57.570169 0c.45948 0 .839435-.1502147 1.139864-.4506441.30043-.3004294.450644-.6803842.450644-1.1398644v-15.0037966c0-3.2163616-.751073-5.8053559-2.25322-7.7669831-1.502147-1.9616271-3.843729-2.9424406-7.024746-2.9424406-2.014644 0-4.011615.5831864-5.990915 1.7495593-1.979299 1.1663729-3.340068 2.5271412-4.082305 4.0823051-.636203-1.9086102-1.696542-3.3577401-3.181017-4.3473899-1.484474-.9896497-3.251706-1.4844745-5.301695-1.4844745-1.802576 0-3.516791.4771525-5.142644 1.4314576s-2.915932 2.1560226-3.870237 3.6051525v-3.074983c0-.4594802-.150215-.839435-.450644-1.1398644-.30043-.3004294-.680384-.4506441-1.139865-.4506441-.45948 0-.839435.1502147-1.139864.4506441s-.450644.6803842-.450644 1.1398644v23.7515932c0 .4594802.150215.839435.450644 1.1398644s.680384.4506441 1.139864.4506441c.459481 0 .839435-.1502147 1.139865-.4506441.300429-.3004294.450644-.6803842.450644-1.1398644v-15.0037966c0-1.3784407.397627-2.6596836 1.192881-3.8437288s1.837921-2.1295141 3.128-2.8364068 2.659684-1.060339 4.108814-1.060339c2.262056 0 3.923254.7157288 4.983593 2.1471865 1.060339 1.4314576 1.590508 3.295887 1.590508 5.5932881v15.0037966c0 .4594802.150215.839435.450645 1.1398644.300429.3004294.680384.4506441 1.139864.4506441s.839435-.1502147 1.139864-.4506441c.30043-.3004294.450644-.6803842.450644-1.1398644v-14.8447458c0-1.4137853.406464-2.7303728 1.21939-3.9497627.812927-1.2193898 1.882102-2.182531 3.207526-2.8894237 1.325423-.7068927 2.730373-1.060339 4.214847-1.060339 2.332746 0 4.055797.7334011 5.169153 2.2002034s1.670034 3.3665763 1.670034 5.699322v14.8447458c0 .4594802.150214.839435.450644 1.1398644.300429.3004294.680384.4506441 1.139864.4506441zm30.31322.1590508c.318102 0 .618531-.0971977.901288-.2915932.282758-.1943955.494825-.4506441.636204-.7687458l14.579661-33.9838644c.106034-.3181017.159051-.5655141.159051-.7422373 0-.4241355-.132543-.7775819-.397627-1.0603389-.265085-.2827571-.64504-.4241356-1.139865-.4241356h-19.510237c-.424136 0-.786418.1413785-1.086848.4241356-.300429.282757-.450644.6362034-.450644 1.0603389 0 .4594803.150215.8305989.450644 1.113356.30043.282757.662712.4241356 1.086848.4241356h17.018441l-13.73139 31.9692203c-.106034.2474124-.159051.5124972-.159051.7952542 0 .4241356.167887.777582.503661 1.060339.335774.2827571.715729.4241356 1.139864.4241356z" fill="#000" fill-rule="nonzero"/><g transform="translate(.683 .769)"><path d="m89.1380203 45.6170305c0 24.428339-19.8033898 44.2301695-44.2301695 44.2301695-24.4267796 0-44.22861012-19.8018305-44.22861012-44.2301695s19.80183052-44.23016948 44.22861012-44.23016948c24.4267797 0 44.2301695 19.80183048 44.2301695 44.23016948" fill="#3ad0f6" mask="url(#a)"/><path d="m90.447539 62.769261c-20.3382373-9.1376271-41.2658983-34.8274576-43.0341695-36.0063051-1.7682712-1.1804067-4.1275254.2947119-4.1275254.2947119-1.472-2.3592542-3.8312543.2947119-3.8312543.2947119-10.9058983 18.5684067-40.0854915 36.3010169-40.0854915 36.3010169s14.0151864 25.7709153 46.4069831 25.7709153c32.9282033 0 44.6714576-26.6550509 44.6714576-26.6550509" fill="#1d5992" mask="url(#b)" transform="translate(0 1.15)"/><path d="m25.0123051 44.4185356s5.8942373-2.6524068 4.7153898 1.7682712c-1.1788474 4.4222373-5.8942373 10.9058983-4.420678 11.2006101 1.4735594.2947119 5.5995255-3.8312542 6.7799323-3.2418305 1.1772881.5894238 2.0614237.2947119 1.472 2.357695-.5878645 2.062983-1.1772882 3.5381017 0 3.5381017 1.1804067 0 2.0645423-2.6539662 3.5381016-5.3063729 1.4735594-2.6524068 3.8312543-1.4735594 4.7153899-.5894238s3.5365424 5.8957967 5.6010847 5.3048136c2.0629831-.5894237 3.2418305-3.2418305 2.3576949-9.1360678-.8841356-5.8957966.5894238-7.6640678.5894238-7.6640678s1.7682712-.8841356 5.011661 3.2418305c3.2418305 4.1259661 9.1376271 10.3164746 10.0202034 10.0217627.8841356-.2947118-4.1259661-6.7799322-2.9471187-7.3693559 1.1788475-.5894237 5.8957966.8841356 8.2534916 2.948678 0 0 .8061694 3.3790508.8061694.1372203l-24.0915254-23.7172881-4.1275254.2947118-3.8312542.2931526s-9.432339 14.1492881-14.4424407 15.9175593" fill="#fffffe" mask="url(#c)"/><path d="m41.8059997 24.7181753.2916621.0188566c.5164158.0576927.9923644.2489505 1.4134535.563232l.1078.0878378.2896827-.1061735c.7290564-.2515735 1.4749417-.3801469 2.2224278-.329574l.3738059.0404752c.5944605.0889372 1.1561816.2976165 1.6640771.6366617l2.6525067 2.8963923c3.9491046 4.265402 11.4440695 12.233912 16.4428165 16.9014899l.3091167.2873622c7.5968143 7.0298364 14.8666925 12.4719025 21.6594247 15.8557114.3974274.197979.7925855.3885082 1.1854339.5715112l.5875354.2688506-1.1164075 2.484864c-.6192723-.2782287-1.2430378-.5739522-1.8712249-.8868845-6.7906815-3.3827874-13.9511593-8.6775525-21.3997501-15.4721117l-.8952086-.8225198c-7.1432281-6.610103-19.1236175-19.7080801-19.0757257-19.8218054-.1546525-.1064255-.3369329-.1741427-.545666-.2053712-.4420988-.0661424-.9857109.0351185-1.5390644.2578408-.2152537.0866386-.3853337.1710211-.4894023.2292239l-1.2210068.7609423-.7218168-1.1561303c-.1635615-.2619756-.2567977-.325766-.3352603-.3345316-.1545066-.0172611-.4646379.1071689-.8184979.3682689-.1419529.1047417-.2650595.2101235-.3588836.2979646l-.0738956.0702888-.3404052.5708921c-3.7684017 6.1596618-9.6207174 12.5483086-17.0195706 19.0031312l-.8605466.7450716c-4.8664849 4.1819612-10.0752885 8.1338069-15.28375037 11.7358939-1.30211675.9005227-2.53809361 1.7330069-3.69227193 2.4919136l-1.73348783 1.1243728-1.53743919.9651057-1.41472435-2.3279755 1.1276013-.70479c.23105508-.1466146.47758473-.3041453.73891404-.4723508l1.32360709-.8612704c1.13646601-.7472736 2.35448168-1.5676648 3.63829253-2.4555273 5.13524861-3.551454 10.27015541-7.4472352 15.05780031-11.5614461 7.6057889-6.5359524 13.5854208-12.9840312 17.3258116-19.0939771l.4063528-.6774786.156749-.2154316c.1991206-.2238626.512939-.5242421.9224427-.8263995.768142-.5667832 1.578254-.9176733 2.4466922-.9024062z" fill="#1a1919" fill-rule="nonzero" mask="url(#d)" transform="translate(0 1.15)"/></g><path d="m45.590678 0c-25.1792775 0-45.590678 20.4118976-45.590678 45.5922373s20.4114005 45.5922373 45.590678 45.5922373c25.17956 0 45.5922373-20.4121802 45.5922373-45.5922373 0-25.1800572-20.4126773-45.5922373-45.5922373-45.5922373zm0 2.72413559c23.6750763 0 42.8681017 19.19255791 42.8681017 42.86810171 0 23.6755437-19.1930254 42.8681017-42.8681017 42.8681017-23.6747641 0-42.86654241-19.1922457-42.86654241-42.8681017s19.19177831-42.86810171 42.86654241-42.86810171z" fill="#1a1919" fill-rule="nonzero"/></g></svg>