<svg xmlns="http://www.w3.org/2000/svg" xmlns:xlink="http://www.w3.org/1999/xlink" width="640" height="360" viewBox="0 0 640 360">
  <defs>
    <path id="plugin-contactform7-640x360-a" d="M0.678305085,45.6164068 C0.678305085,70.0447458 20.4816949,89.8465763 44.9084746,89.8465763 L44.9084746,89.8465763 C69.3352542,89.8465763 89.1386441,70.0447458 89.1386441,45.6164068 L89.1386441,45.6164068 C89.1386441,21.1896271 69.3352542,1.38779661 44.9084746,1.38779661 L44.9084746,1.38779661 C20.4816949,1.38779661 0.678305085,21.1896271 0.678305085,45.6164068"/>
    <path id="plugin-contactform7-640x360-c" d="M0.678305085,44.4664068 C0.678305085,68.8947458 20.4816949,88.6965763 44.9084746,88.6965763 L44.9084746,88.6965763 C69.3352542,88.6965763 89.1386441,68.8947458 89.1386441,44.4664068 L89.1386441,44.4664068 C89.1386441,20.0396271 69.3352542,0.23779661 44.9084746,0.23779661 L44.9084746,0.23779661 C20.4816949,0.23779661 0.678305085,20.0396271 0.678305085,44.4664068"/>
    <path id="plugin-contactform7-640x360-e" d="M0.678305085,45.6164068 C0.678305085,70.0447458 20.4816949,89.8465763 44.9084746,89.8465763 L44.9084746,89.8465763 C69.3352542,89.8465763 89.1386441,70.0447458 89.1386441,45.6164068 L89.1386441,45.6164068 C89.1386441,21.1896271 69.3352542,1.38779661 44.9084746,1.38779661 L44.9084746,1.38779661 C20.4816949,1.38779661 0.678305085,21.1896271 0.678305085,45.6164068"/>
    <path id="plugin-contactform7-640x360-g" d="M0.678305085,44.4664068 C0.678305085,68.8947458 20.4816949,88.6965763 44.9084746,88.6965763 L44.9084746,88.6965763 C69.3352542,88.6965763 89.1386441,68.8947458 89.1386441,44.4664068 L89.1386441,44.4664068 C89.1386441,20.0396271 69.3352542,0.23779661 44.9084746,0.23779661 L44.9084746,0.23779661 C20.4816949,0.23779661 0.678305085,20.0396271 0.678305085,44.4664068"/>
  </defs>
  <g fill="none" fill-rule="evenodd" transform="translate(76 134)">
    <path fill="#000" fill-rule="nonzero" d="M129.42981,62.410578 C131.33842,62.410578 133.300047,62.1013124 135.314692,61.4827814 C137.329336,60.8642503 139.025878,60.0955045 140.404319,59.1765441 C140.899144,58.893787 141.146556,58.4696514 141.146556,57.9041373 C141.146556,57.5153463 141.02285,57.1795723 140.775437,56.8968153 C140.457336,56.4726797 140.050872,56.2606119 139.556047,56.2606119 C139.237946,56.2606119 138.937516,56.3489734 138.654759,56.5256966 C135.862533,58.3636175 132.78755,59.282578 129.42981,59.282578 C126.60224,59.282578 124.030918,58.6198661 121.715844,57.2944424 C119.400771,55.9690186 117.571686,54.0957531 116.22859,51.6746458 C114.885494,49.2535384 114.213946,46.4701486 114.213946,43.3244763 C114.213946,40.2494932 114.876658,37.501448 116.202081,35.0803407 C117.527505,32.6592333 119.347754,30.7771316 121.662827,29.4340356 C123.977901,28.0909395 126.566895,27.4193915 129.42981,27.4193915 C132.78755,27.4193915 135.880206,28.3560243 138.707776,30.2292898 C138.990533,30.406013 139.27329,30.4943746 139.556047,30.4943746 C140.050872,30.4943746 140.457336,30.2999791 140.775437,29.9111881 C141.02285,29.5223972 141.146556,29.1689508 141.146556,28.8508492 C141.146556,28.285335 140.881471,27.8435271 140.351302,27.5254254 C138.831482,26.5004311 137.126104,25.7051768 135.235166,25.1396627 C133.344228,24.5741486 131.40911,24.2913915 129.42981,24.2913915 C126.001381,24.2913915 122.873381,25.1131542 120.04581,26.7566797 C117.21824,28.4002051 114.973855,30.6799339 113.312658,33.5958661 C111.65146,36.5117983 110.820861,39.7546684 110.820861,43.3244763 C110.820861,47.0356627 111.660296,50.3403859 113.339166,53.2386458 C115.018036,56.1369056 117.280093,58.390126 120.125336,59.9983068 C122.970579,61.6064876 126.07207,62.410578 129.42981,62.410578 Z M159.007031,62.410578 C161.516499,62.410578 163.796228,61.8008831 165.846217,60.5814932 C167.896206,59.3621034 169.504386,57.6743972 170.670759,55.5183746 C171.837132,53.362352 172.420319,50.9589169 172.420319,48.3080695 C172.420319,45.657222 171.837132,43.253787 170.670759,41.0977644 C169.504386,38.9417418 167.896206,37.2451994 165.846217,36.0081373 C163.796228,34.7710751 161.516499,34.1525441 159.007031,34.1525441 C156.497562,34.1525441 154.217833,34.7710751 152.167844,36.0081373 C150.117855,37.2451994 148.509675,38.9417418 147.343302,41.0977644 C146.176929,43.253787 145.593742,45.657222 145.593742,48.3080695 C145.593742,50.9589169 146.176929,53.362352 147.343302,55.5183746 C148.509675,57.6743972 150.117855,59.3621034 152.167844,60.5814932 C154.217833,61.8008831 156.497562,62.410578 159.007031,62.410578 Z M159.007031,59.4416288 C157.09842,59.4416288 155.366533,58.9556401 153.811369,57.9836627 C152.256206,57.0116853 151.02798,55.6774254 150.126692,53.9808831 C149.225403,52.2843407 148.774759,50.3934028 148.774759,48.3080695 C148.774759,46.1873915 149.225403,44.2787814 150.126692,42.582239 C151.02798,40.8856966 152.256206,39.5514367 153.811369,38.5794593 C155.366533,37.6074819 157.09842,37.1214932 159.007031,37.1214932 C160.915641,37.1214932 162.656364,37.6074819 164.2292,38.5794593 C165.802036,39.5514367 167.030262,40.8856966 167.913878,42.582239 C168.797494,44.2787814 169.239302,46.1873915 169.239302,48.3080695 C169.239302,50.4287475 168.797494,52.3373576 167.913878,54.0339 C167.030262,55.7304424 165.802036,57.0558661 164.2292,58.0101712 C162.656364,58.9644763 160.915641,59.4416288 159.007031,59.4416288 Z M199.982895,61.8804085 C200.407031,61.8804085 200.778149,61.7301938 201.096251,61.4297644 C201.414353,61.129335 201.573403,60.7493802 201.573403,60.2899 L201.573403,60.2899 L201.573403,44.7029169 C201.573403,41.5219 200.804658,38.9682503 199.267166,37.0419678 C197.729675,35.1156853 195.317403,34.1525441 192.030353,34.1525441 C190.157087,34.1525441 188.328002,34.6562051 186.543098,35.6635271 C184.758194,36.6708492 183.38859,37.9344198 182.434285,39.454239 L182.434285,39.454239 L182.434285,36.5383068 C182.434285,36.0788266 182.28407,35.6988718 181.983641,35.3984424 C181.683211,35.098013 181.303256,34.9477983 180.843776,34.9477983 C180.384296,34.9477983 180.004341,35.098013 179.703912,35.3984424 C179.403482,35.6988718 179.253268,36.0788266 179.253268,36.5383068 L179.253268,36.5383068 L179.253268,60.2899 C179.253268,60.7493802 179.403482,61.129335 179.703912,61.4297644 C180.004341,61.7301938 180.384296,61.8804085 180.843776,61.8804085 C181.303256,61.8804085 181.683211,61.7301938 181.983641,61.4297644 C182.28407,61.129335 182.434285,60.7493802 182.434285,60.2899 L182.434285,60.2899 L182.434285,44.8619678 C182.434285,43.4835271 182.85842,42.2022842 183.706692,41.018239 C184.554963,39.8341938 185.659482,38.8887249 187.020251,38.1818322 C188.381019,37.4749395 189.821313,37.1214932 191.341132,37.1214932 C193.744567,37.1214932 195.520635,37.837222 196.669336,39.2686797 C197.818036,40.7001373 198.392386,42.5645667 198.392386,44.8619678 L198.392386,44.8619678 L198.392386,60.2899 C198.392386,60.7493802 198.542601,61.129335 198.843031,61.4297644 C199.14346,61.7301938 199.523415,61.8804085 199.982895,61.8804085 Z M218.055437,61.8804085 C218.833019,61.8804085 219.504567,61.7125215 220.070081,61.3767475 C220.635595,61.0409734 220.918353,60.625674 220.918353,60.1308492 C220.918353,59.7774028 220.803482,59.4681373 220.573742,59.2030525 C220.344002,58.9379678 220.070081,58.8054254 219.75198,58.8054254 C219.575256,58.8054254 219.327844,58.8496062 219.009742,58.9379678 C218.691641,59.0263294 218.426556,59.0705102 218.214488,59.0705102 C217.401562,59.0705102 216.747686,58.8319339 216.252861,58.3547814 C215.758036,57.8776288 215.510624,56.9675045 215.510624,55.6244085 L215.510624,55.6244085 L215.510624,37.8637305 L220.812319,37.8637305 C221.236454,37.8637305 221.589901,37.7311881 221.872658,37.4661034 C222.155415,37.2010186 222.296793,36.8564085 222.296793,36.4322729 C222.296793,36.0434819 222.146579,35.6900356 221.846149,35.3719339 C221.54572,35.0538322 221.20111,34.8947814 220.812319,34.8947814 L220.812319,34.8947814 L215.510624,34.8947814 L215.510624,29.0099 C215.510624,28.5504198 215.360409,28.170465 215.05998,27.8700356 C214.75955,27.5696062 214.379595,27.4193915 213.920115,27.4193915 C213.460635,27.4193915 213.08068,27.5696062 212.780251,27.8700356 C212.479821,28.170465 212.329607,28.5504198 212.329607,29.0099 L212.329607,29.0099 L212.329607,34.8947814 L208.459369,34.8947814 C208.035234,34.8947814 207.672951,35.0361599 207.372522,35.3189169 C207.072093,35.601674 206.921878,35.9551203 206.921878,36.3792559 C206.921878,36.8033915 207.072093,37.1568379 207.372522,37.4395949 C207.672951,37.722352 208.035234,37.8637305 208.459369,37.8637305 L208.459369,37.8637305 L212.329607,37.8637305 L212.329607,55.7834593 C212.329607,57.7274141 212.674217,59.1411994 213.363437,60.0248153 C214.052658,60.9084311 214.768386,61.4386006 215.510624,61.6153237 C216.252861,61.7920469 217.101132,61.8804085 218.055437,61.8804085 Z M239.149946,62.410578 C241.235279,62.410578 243.161562,61.8627362 244.928793,60.7670525 C246.696025,59.6713689 248.021449,58.3282729 248.905064,56.7377644 L248.905064,56.7377644 L248.905064,60.2899 C248.905064,60.7493802 249.055279,61.129335 249.355708,61.4297644 C249.656138,61.7301938 250.036093,61.8804085 250.495573,61.8804085 C250.955053,61.8804085 251.335008,61.7301938 251.635437,61.4297644 C251.935867,61.129335 252.086081,60.7493802 252.086081,60.2899 L252.086081,60.2899 L252.086081,36.4322729 C252.086081,35.9727927 251.935867,35.5840017 251.635437,35.2659 C251.335008,34.9477983 250.955053,34.7887475 250.495573,34.7887475 C250.036093,34.7887475 249.656138,34.9477983 249.355708,35.2659 C249.055279,35.5840017 248.905064,35.9727927 248.905064,36.4322729 L248.905064,36.4322729 L248.905064,39.7193237 C248.021449,38.058126 246.696025,36.7150299 244.928793,35.6900356 C243.161562,34.6650412 241.217607,34.1525441 239.096929,34.1525441 C236.799528,34.1525441 234.705358,34.7534028 232.81442,35.9551203 C230.923482,37.1568379 229.430172,38.8268718 228.334488,40.965222 C227.238805,43.1035723 226.690963,45.5158435 226.690963,48.2020356 C226.690963,50.8882277 227.229968,53.309335 228.30798,55.4653576 C229.385991,57.6213802 230.870466,59.3179226 232.761403,60.5549847 C234.652341,61.7920469 236.781855,62.410578 239.149946,62.410578 Z M239.468047,59.4416288 C237.594782,59.4416288 235.924748,58.9556401 234.457946,57.9836627 C232.991144,57.0116853 231.851279,55.6685893 231.038353,53.9543746 C230.225426,52.2401599 229.818963,50.3227136 229.818963,48.2020356 C229.818963,46.0813576 230.234262,44.1815836 231.064861,42.5027136 C231.89546,40.8238435 233.04416,39.5072559 234.510963,38.5529508 C235.977765,37.5986458 237.630127,37.1214932 239.468047,37.1214932 C241.305968,37.1214932 242.95833,37.6074819 244.425132,38.5794593 C245.891934,39.5514367 247.040635,40.8856966 247.871234,42.582239 C248.701833,44.2787814 249.117132,46.1520469 249.117132,48.2020356 C249.117132,50.3227136 248.701833,52.2401599 247.871234,53.9543746 C247.040635,55.6685893 245.891934,57.0116853 244.425132,57.9836627 C242.95833,58.9556401 241.305968,59.4416288 239.468047,59.4416288 Z M272.173268,62.410578 C273.975844,62.410578 275.619369,62.1631655 277.103844,61.6683407 C278.588319,61.1735158 279.754692,60.5814932 280.602963,59.8922729 C281.451234,59.2030525 281.875369,58.558013 281.875369,57.9571542 C281.875369,57.5330186 281.751663,57.1884085 281.504251,56.9233237 C281.256838,56.658239 280.921064,56.5256966 280.496929,56.5256966 C280.249516,56.5256966 280.019776,56.5875497 279.807708,56.7112559 C279.595641,56.8349621 279.348228,57.0205215 279.065471,57.2679339 C278.464612,57.7627588 278.040477,58.0808605 277.793064,58.222239 C277.050827,58.6110299 276.299754,58.9114593 275.539844,59.1235271 C274.779934,59.3355949 273.763776,59.4416288 272.491369,59.4416288 C270.476725,59.4416288 268.682985,58.9556401 267.110149,57.9836627 C265.537313,57.0116853 264.309087,55.6774254 263.425471,53.9808831 C262.541855,52.2843407 262.100047,50.3757305 262.100047,48.2550525 C262.100047,46.2050638 262.559528,44.3317983 263.478488,42.6352559 C264.397449,40.9387136 265.661019,39.5956175 267.2692,38.6059678 C268.877381,37.6163181 270.653449,37.1214932 272.597403,37.1214932 C273.587053,37.1214932 274.51485,37.2010186 275.380793,37.3600695 C276.246737,37.5191203 276.944793,37.722352 277.474963,37.9697644 C277.899098,38.1818322 278.340906,38.5176062 278.800386,38.9770864 C279.083144,39.2598435 279.339392,39.4719113 279.569132,39.6132898 C279.798872,39.7546684 280.090466,39.8253576 280.443912,39.8253576 C280.832703,39.8253576 281.159641,39.6663068 281.424725,39.3482051 C281.68981,39.0301034 281.822353,38.6766571 281.822353,38.2878661 C281.822353,37.5456288 281.389381,36.8564085 280.523437,36.2202051 C279.657494,35.5840017 278.508793,35.0803407 277.077336,34.709222 C275.645878,34.3381034 274.09955,34.1525441 272.438353,34.1525441 C269.787505,34.1525441 267.437087,34.7887475 265.387098,36.0611542 C263.33711,37.333561 261.746601,39.0389395 260.615573,41.1772898 C259.484545,43.3156401 258.919031,45.6748944 258.919031,48.2550525 C258.919031,50.9412446 259.475708,53.362352 260.589064,55.5183746 C261.70242,57.6743972 263.26642,59.3621034 265.281064,60.5814932 C267.295708,61.8008831 269.59311,62.410578 272.173268,62.410578 Z M296.130692,61.8804085 C296.908273,61.8804085 297.579821,61.7125215 298.145336,61.3767475 C298.71085,61.0409734 298.993607,60.625674 298.993607,60.1308492 C298.993607,59.7774028 298.878737,59.4681373 298.648997,59.2030525 C298.419256,58.9379678 298.145336,58.8054254 297.827234,58.8054254 C297.650511,58.8054254 297.403098,58.8496062 297.084997,58.9379678 C296.766895,59.0263294 296.50181,59.0705102 296.289742,59.0705102 C295.476816,59.0705102 294.82294,58.8319339 294.328115,58.3547814 C293.83329,57.8776288 293.585878,56.9675045 293.585878,55.6244085 L293.585878,55.6244085 L293.585878,37.8637305 L298.887573,37.8637305 C299.311708,37.8637305 299.665155,37.7311881 299.947912,37.4661034 C300.230669,37.2010186 300.372047,36.8564085 300.372047,36.4322729 C300.372047,36.0434819 300.221833,35.6900356 299.921403,35.3719339 C299.620974,35.0538322 299.276364,34.8947814 298.887573,34.8947814 L298.887573,34.8947814 L293.585878,34.8947814 L293.585878,29.0099 C293.585878,28.5504198 293.435663,28.170465 293.135234,27.8700356 C292.834805,27.5696062 292.45485,27.4193915 291.995369,27.4193915 C291.535889,27.4193915 291.155934,27.5696062 290.855505,27.8700356 C290.555076,28.170465 290.404861,28.5504198 290.404861,29.0099 L290.404861,29.0099 L290.404861,34.8947814 L286.534624,34.8947814 C286.110488,34.8947814 285.748206,35.0361599 285.447776,35.3189169 C285.147347,35.601674 284.997132,35.9551203 284.997132,36.3792559 C284.997132,36.8033915 285.147347,37.1568379 285.447776,37.4395949 C285.748206,37.722352 286.110488,37.8637305 286.534624,37.8637305 L286.534624,37.8637305 L290.404861,37.8637305 L290.404861,55.7834593 C290.404861,57.7274141 290.749471,59.1411994 291.438692,60.0248153 C292.127912,60.9084311 292.843641,61.4386006 293.585878,61.6153237 C294.328115,61.7920469 295.176386,61.8804085 296.130692,61.8804085 Z M323.793064,61.8804085 C324.252545,61.8804085 324.632499,61.7301938 324.932929,61.4297644 C325.233358,61.129335 325.383573,60.7493802 325.383573,60.2899 L325.383573,60.2899 L325.383573,44.2787814 L340.652454,44.2787814 C341.111934,44.2787814 341.491889,44.1374028 341.792319,43.8546458 C342.092748,43.5718887 342.242963,43.2007701 342.242963,42.7412898 C342.242963,42.2818096 342.092748,41.910691 341.792319,41.6279339 C341.491889,41.3451768 341.111934,41.2037983 340.652454,41.2037983 L340.652454,41.2037983 L325.383573,41.2037983 L325.383573,27.8965441 L343.038217,27.8965441 C343.497697,27.8965441 343.877652,27.7463294 344.178081,27.4459 C344.478511,27.1454706 344.628725,26.7831881 344.628725,26.3590525 C344.628725,25.8995723 344.478511,25.5196175 344.178081,25.2191881 C343.877652,24.9187588 343.497697,24.7685441 343.038217,24.7685441 L343.038217,24.7685441 L323.740047,24.7685441 C323.280567,24.7685441 322.900612,24.9187588 322.600183,25.2191881 C322.299754,25.5196175 322.149539,25.8995723 322.149539,26.3590525 L322.149539,26.3590525 L322.149539,60.2899 C322.149539,60.7493802 322.299754,61.129335 322.600183,61.4297644 C322.900612,61.7301938 323.29824,61.8804085 323.793064,61.8804085 Z M361.693946,62.410578 C364.203415,62.410578 366.483144,61.8008831 368.533132,60.5814932 C370.583121,59.3621034 372.191302,57.6743972 373.357675,55.5183746 C374.524047,53.362352 375.107234,50.9589169 375.107234,48.3080695 C375.107234,45.657222 374.524047,43.253787 373.357675,41.0977644 C372.191302,38.9417418 370.583121,37.2451994 368.533132,36.0081373 C366.483144,34.7710751 364.203415,34.1525441 361.693946,34.1525441 C359.184477,34.1525441 356.904748,34.7710751 354.854759,36.0081373 C352.804771,37.2451994 351.19659,38.9417418 350.030217,41.0977644 C348.863844,43.253787 348.280658,45.657222 348.280658,48.3080695 C348.280658,50.9589169 348.863844,53.362352 350.030217,55.5183746 C351.19659,57.6743972 352.804771,59.3621034 354.854759,60.5814932 C356.904748,61.8008831 359.184477,62.410578 361.693946,62.410578 Z M361.693946,59.4416288 C359.785336,59.4416288 358.053449,58.9556401 356.498285,57.9836627 C354.943121,57.0116853 353.714895,55.6774254 352.813607,53.9808831 C351.912319,52.2843407 351.461675,50.3934028 351.461675,48.3080695 C351.461675,46.1873915 351.912319,44.2787814 352.813607,42.582239 C353.714895,40.8856966 354.943121,39.5514367 356.498285,38.5794593 C358.053449,37.6074819 359.785336,37.1214932 361.693946,37.1214932 C363.602556,37.1214932 365.343279,37.6074819 366.916115,38.5794593 C368.488951,39.5514367 369.717177,40.8856966 370.600793,42.582239 C371.484409,44.2787814 371.926217,46.1873915 371.926217,48.3080695 C371.926217,50.4287475 371.484409,52.3373576 370.600793,54.0339 C369.717177,55.7304424 368.488951,57.0558661 366.916115,58.0101712 C365.343279,58.9644763 363.602556,59.4416288 361.693946,59.4416288 Z M383.530692,61.8804085 C383.990172,61.8804085 384.370127,61.7301938 384.670556,61.4297644 C384.970985,61.129335 385.1212,60.7493802 385.1212,60.2899 L385.1212,60.2899 L385.1212,47.1947136 C385.1212,45.5688605 385.536499,43.9606797 386.367098,42.3701712 C387.197697,40.7796627 388.258036,39.4807475 389.548115,38.4734254 C390.838194,37.4661034 392.13711,36.9624424 393.444861,36.9624424 C393.904341,36.9624424 394.39033,37.050804 394.902827,37.2275271 C395.415324,37.4042503 395.759934,37.4926119 395.936658,37.4926119 C396.325449,37.4926119 396.661223,37.3423972 396.94398,37.0419678 C397.226737,36.7415384 397.368115,36.3439113 397.368115,35.8490864 C397.368115,35.2835723 397.085358,34.8594367 396.519844,34.5766797 C395.95433,34.2939226 395.318127,34.1525441 394.611234,34.1525441 C392.384522,34.1878887 390.449403,34.8682729 388.805878,36.1936966 C387.162353,37.5191203 385.934127,39.1891542 385.1212,41.2037983 L385.1212,41.2037983 L385.1212,36.5383068 C385.1212,36.0788266 384.970985,35.6988718 384.670556,35.3984424 C384.370127,35.098013 383.990172,34.9477983 383.530692,34.9477983 C383.071211,34.9477983 382.691256,35.098013 382.390827,35.3984424 C382.090398,35.6988718 381.940183,36.0788266 381.940183,36.5383068 L381.940183,36.5383068 L381.940183,60.2899 C381.940183,60.7493802 382.090398,61.129335 382.390827,61.4297644 C382.691256,61.7301938 383.071211,61.8804085 383.530692,61.8804085 Z M441.100861,61.8804085 C441.560341,61.8804085 441.940296,61.7301938 442.240725,61.4297644 C442.541155,61.129335 442.691369,60.7493802 442.691369,60.2899 L442.691369,60.2899 L442.691369,45.2861034 C442.691369,42.0697418 441.940296,39.4807475 440.438149,37.5191203 C438.936002,35.5574932 436.59442,34.5766797 433.413403,34.5766797 C431.398759,34.5766797 429.401788,35.1598661 427.422488,36.326239 C425.443189,37.4926119 424.08242,38.8533802 423.340183,40.4085441 C422.70398,38.4999339 421.643641,37.050804 420.159166,36.0611542 C418.674692,35.0715045 416.90746,34.5766797 414.857471,34.5766797 C413.054895,34.5766797 411.34068,35.0538322 409.714827,36.0081373 C408.088974,36.9624424 406.798895,38.1641599 405.84459,39.6132898 L405.84459,39.6132898 L405.84459,36.5383068 C405.84459,36.0788266 405.694375,35.6988718 405.393946,35.3984424 C405.093516,35.098013 404.713562,34.9477983 404.254081,34.9477983 C403.794601,34.9477983 403.414646,35.098013 403.114217,35.3984424 C402.813788,35.6988718 402.663573,36.0788266 402.663573,36.5383068 L402.663573,36.5383068 L402.663573,60.2899 C402.663573,60.7493802 402.813788,61.129335 403.114217,61.4297644 C403.414646,61.7301938 403.794601,61.8804085 404.254081,61.8804085 C404.713562,61.8804085 405.093516,61.7301938 405.393946,61.4297644 C405.694375,61.129335 405.84459,60.7493802 405.84459,60.2899 L405.84459,60.2899 L405.84459,45.2861034 C405.84459,43.9076627 406.242217,42.6264198 407.037471,41.4423746 C407.832725,40.2583294 408.875392,39.3128605 410.165471,38.6059678 C411.45555,37.8990751 412.825155,37.5456288 414.274285,37.5456288 C416.536341,37.5456288 418.197539,38.2613576 419.257878,39.6928153 C420.318217,41.1242729 420.848386,42.9887023 420.848386,45.2861034 L420.848386,45.2861034 L420.848386,60.2899 C420.848386,60.7493802 420.998601,61.129335 421.299031,61.4297644 C421.59946,61.7301938 421.979415,61.8804085 422.438895,61.8804085 C422.898375,61.8804085 423.27833,61.7301938 423.578759,61.4297644 C423.879189,61.129335 424.029403,60.7493802 424.029403,60.2899 L424.029403,60.2899 L424.029403,45.4451542 C424.029403,44.0313689 424.435867,42.7147814 425.248793,41.4953915 C426.06172,40.2760017 427.130895,39.3128605 428.456319,38.6059678 C429.781742,37.8990751 431.186692,37.5456288 432.671166,37.5456288 C435.003912,37.5456288 436.726963,38.2790299 437.840319,39.7458322 C438.953675,41.2126345 439.510353,43.1124085 439.510353,45.4451542 L439.510353,45.4451542 L439.510353,60.2899 C439.510353,60.7493802 439.660567,61.129335 439.960997,61.4297644 C440.261426,61.7301938 440.641381,61.8804085 441.100861,61.8804085 Z M471.414081,62.0394593 C471.732183,62.0394593 472.032612,61.9422616 472.315369,61.7478661 C472.598127,61.5534706 472.810194,61.297222 472.951573,60.9791203 L472.951573,60.9791203 L487.531234,26.9952559 C487.637268,26.6771542 487.690285,26.4297418 487.690285,26.2530186 C487.690285,25.8288831 487.557742,25.4754367 487.292658,25.1926797 C487.027573,24.9099226 486.647618,24.7685441 486.152793,24.7685441 L486.152793,24.7685441 L466.642556,24.7685441 C466.21842,24.7685441 465.856138,24.9099226 465.555708,25.1926797 C465.255279,25.4754367 465.105064,25.8288831 465.105064,26.2530186 C465.105064,26.7124989 465.255279,27.0836175 465.555708,27.3663746 C465.856138,27.6491316 466.21842,27.7905102 466.642556,27.7905102 L466.642556,27.7905102 L483.660997,27.7905102 L469.929607,59.7597305 C469.823573,60.0071429 469.770556,60.2722277 469.770556,60.5549847 C469.770556,60.9791203 469.938443,61.3325667 470.274217,61.6153237 C470.609991,61.8980808 470.989946,62.0394593 471.414081,62.0394593 Z"/>
    <g transform="translate(.683 .769)">
      <mask id="plugin-contactform7-640x360-b" fill="#fff">
        <use xlink:href="#plugin-contactform7-640x360-a"/>
      </mask>
      <path fill="#3AD0F6" d="M89.1380203,45.6170305 C89.1380203,70.0453695 69.3346305,89.8472 44.9078508,89.8472 C20.4810712,89.8472 0.679240678,70.0453695 0.679240678,45.6170305 C0.679240678,21.1886915 20.4810712,1.38686102 44.9078508,1.38686102 C69.3346305,1.38686102 89.1380203,21.1886915 89.1380203,45.6170305" mask="url(#plugin-contactform7-640x360-b)"/>
      <g transform="translate(0 1.15)">
        <mask id="plugin-contactform7-640x360-d" fill="#fff">
          <use xlink:href="#plugin-contactform7-640x360-c"/>
        </mask>
        <path fill="#1D5992" d="M90.447539,62.769261 C70.1093017,53.6316339 49.1816407,27.9418034 47.4133695,26.7629559 C45.6450983,25.5825492 43.2858441,27.0576678 43.2858441,27.0576678 C41.8138441,24.6984136 39.4545898,27.3523797 39.4545898,27.3523797 C28.5486915,45.9207864 -0.630901695,63.6533966 -0.630901695,63.6533966 C-0.630901695,63.6533966 13.3842847,89.4243119 45.7760814,89.4243119 C78.7042847,89.4243119 90.447539,62.769261 90.447539,62.769261" mask="url(#plugin-contactform7-640x360-d)"/>
      </g>
      <mask id="plugin-contactform7-640x360-f" fill="#fff">
        <use xlink:href="#plugin-contactform7-640x360-e"/>
      </mask>
      <path fill="#FFFFFE" d="M25.0123051,44.4185356 C25.0123051,44.4185356 30.9065424,41.7661288 29.7276949,46.1868068 C28.5488475,50.6090441 23.8334576,57.0927051 25.3070169,57.3874169 C26.7805763,57.6821288 30.9065424,53.5561627 32.0869492,54.1455864 C33.2642373,54.7350102 34.1483729,54.4402983 33.5589492,56.5032814 C32.9710847,58.5662644 32.381661,60.0413831 33.5589492,60.0413831 C34.7393559,60.0413831 35.6234915,57.3874169 37.0970508,54.7350102 C38.5706102,52.0826034 40.9283051,53.2614508 41.8124407,54.1455864 C42.6965763,55.029722 45.3489831,60.0413831 47.4135254,59.4504 C49.4765085,58.8609763 50.6553559,56.2085695 49.7712203,50.3143322 C48.8870847,44.4185356 50.3606441,42.6502644 50.3606441,42.6502644 C50.3606441,42.6502644 52.1289153,41.7661288 55.3723051,45.8920949 C58.6141356,50.018061 64.5099322,56.2085695 65.3925085,55.9138576 C66.2766441,55.6191458 61.2665424,49.1339254 62.4453898,48.5445017 C63.6242373,47.955078 68.3411864,49.4286373 70.6988814,51.4931797 C70.6988814,51.4931797 71.5050508,54.8722305 71.5050508,51.6304 L47.4135254,27.9131119 L43.286,28.2078237 L39.4547458,28.5009763 C39.4547458,28.5009763 30.0224068,42.6502644 25.0123051,44.4185356" mask="url(#plugin-contactform7-640x360-f)"/>
      <g transform="translate(0 1.15)">
        <mask id="plugin-contactform7-640x360-h" fill="#fff">
          <use xlink:href="#plugin-contactform7-640x360-g"/>
        </mask>
        <path fill="#1A1919" fill-rule="nonzero" d="M41.8059997,24.7181753 L42.0976618,24.7370319 C42.6140776,24.7947246 43.0900262,24.9859824 43.5111153,25.3002639 L43.6189153,25.3881017 L43.908598,25.2819282 C44.6376544,25.0303547 45.3835397,24.9017813 46.1310258,24.9523542 L46.5048317,24.9928294 C47.0992922,25.0817666 47.6610133,25.2904459 48.1689088,25.6294911 L50.8214155,28.5258834 C54.7705201,32.7912854 62.265485,40.7597954 67.264232,45.4273733 L67.5733487,45.7147355 C75.170163,52.7445719 82.4400412,58.186638 89.2327734,61.5704469 C89.6302008,61.7684259 90.0253589,61.9589551 90.4182073,62.1419581 L91.0057427,62.4108087 L89.8893352,64.8956727 C89.2700629,64.617444 88.6462974,64.3217205 88.0181103,64.0087882 C81.2274288,60.6260008 74.066951,55.3312357 66.6183602,48.5366765 L65.7231516,47.7141567 C58.5799235,41.1040537 46.5995341,28.0060766 46.6474259,27.8923513 C46.4927734,27.7859258 46.310493,27.7182086 46.1017599,27.6869801 C45.6596611,27.6208377 45.116049,27.7220986 44.5626955,27.9448209 C44.3474418,28.0314595 44.1773618,28.115842 44.0732932,28.1740448 L42.8522864,28.9349871 L42.1304696,27.7788568 C41.9669081,27.5168812 41.8736719,27.4530908 41.7952093,27.4443252 C41.6407027,27.4270641 41.3305714,27.5514941 40.9767114,27.8125941 C40.8347585,27.9173358 40.7116519,28.0227176 40.6178278,28.1105587 L40.5439322,28.1808475 L40.203527,28.7517396 C36.4351253,34.9114014 30.5828096,41.3000482 23.1839564,47.7548708 L22.3234098,48.4999424 C17.4569249,52.6819036 12.2481213,56.6337493 7.03965943,60.2358363 C5.73754268,61.136359 4.50156582,61.9688432 3.3473875,62.7277499 L1.61389967,63.8521227 L0.0764604835,64.8172284 L-1.33826387,62.4892529 L-0.210662569,61.7844629 C0.0203925084,61.6378483 0.266922155,61.4803176 0.528251466,61.3121121 L1.85185856,60.4508417 C2.98832457,59.7035681 4.20634024,58.8831769 5.49015109,57.9953144 C10.6253997,54.4438604 15.7603065,50.5480792 20.5479514,46.4338683 C28.1537403,39.8979159 34.1333722,33.4498371 37.873763,27.3398912 L38.2801158,26.6624126 L38.4368648,26.446981 C38.6359854,26.2231184 38.9498038,25.9227389 39.3593075,25.6205815 C40.1274495,25.0537983 40.9375615,24.7029082 41.8059997,24.7181753 Z" mask="url(#plugin-contactform7-640x360-h)"/>
      </g>
    </g>
    <path fill="#1A1919" fill-rule="nonzero" d="M45.590678,-7.35411732e-14 C20.4114005,-7.35411732e-14 -2.45137244e-14,20.4118976 -2.45137244e-14,45.5922373 C-2.45137244e-14,70.772577 20.4114005,91.1844746 45.590678,91.1844746 C70.770238,91.1844746 91.1829153,70.7722944 91.1829153,45.5922373 C91.1829153,20.4121801 70.770238,-7.35411732e-14 45.590678,-7.35411732e-14 Z M45.590678,2.72413559 C69.2657543,2.72413559 88.4587797,21.9166935 88.4587797,45.5922373 C88.4587797,69.267781 69.2657543,88.460339 45.590678,88.460339 C21.9159139,88.460339 2.72413559,69.2680933 2.72413559,45.5922373 C2.72413559,21.9163813 21.9159139,2.72413559 45.590678,2.72413559 Z"/>
  </g>
</svg>
