<svg fill="none" height="512" viewBox="0 0 512 512" width="512" xmlns="http://www.w3.org/2000/svg" xmlns:xlink="http://www.w3.org/1999/xlink"><clipPath id="a"><path d="m0 0h512v512h-512z"/></clipPath><mask id="b" height="497" maskUnits="userSpaceOnUse" width="498" x="7" y="12"><path d="m7.64258 260.455c0 137.171 111.20142 248.356 248.35542 248.356 137.159 0 248.355-111.185 248.355-248.356 0-137.154-111.196-248.3434-248.355-248.3434-137.154 0-248.35542 111.1894-248.35542 248.3434z" fill="#fff"/></mask><mask id="c" height="497" maskUnits="userSpaceOnUse" width="498" x="7" y="12"><path d="m7.64258 260.455c0 137.171 111.20142 248.356 248.35542 248.356 137.159 0 248.355-111.185 248.355-248.356.005-137.154-111.19-248.3434-248.35-248.3434-137.159 0-248.36042 111.1894-248.36042 248.3434z" fill="#fff"/></mask><mask id="d" height="497" maskUnits="userSpaceOnUse" width="498" x="7" y="12"><path d="m7.64258 260.455c0 137.171 111.20142 248.356 248.35542 248.356 137.159 0 248.355-111.185 248.355-248.356 0-137.154-111.196-248.3434-248.355-248.3434-137.154 0-248.35542 111.1894-248.35542 248.3434z" fill="#fff"/></mask><mask id="e" height="497" maskUnits="userSpaceOnUse" width="498" x="7" y="12"><path d="m7.64258 260.455c0 137.171 111.20142 248.356 248.35542 248.356 137.159 0 248.355-111.185 248.355-248.356.005-137.154-111.19-248.3434-248.35-248.3434-137.159 0-248.36042 111.1894-248.36042 248.3434z" fill="#fff"/></mask><g clip-path="url(#a)"><g mask="url(#b)"><path clip-rule="evenodd" d="m504.352 260.461c0 137.165-111.195 248.355-248.355 248.355-137.165 0-248.34905-111.19-248.34905-248.355s111.19005-248.3549 248.34905-248.3549c137.16 0 248.355 111.1899 248.355 248.3549z" fill="#fff" fill-rule="evenodd"/><g mask="url(#c)"><path clip-rule="evenodd" d="m511.708 363.234c-114.205-51.311-231.712-195.562-241.645-202.182-9.928-6.626-23.173 1.656-23.173 1.656-8.266-13.251-21.512 1.651-21.512 1.651-61.238 104.267-225.086008 203.833-225.086008 203.833s78.695408 144.706 260.579008 144.706c184.894 0 250.837-149.67 250.837-149.67" fill="#1d5992" fill-rule="evenodd"/></g></g><g mask="url(#d)"><path clip-rule="evenodd" d="m144.28 253.734s33.101-14.896 26.481 9.928c-6.626 24.83-33.101 61.238-24.825 62.889 8.277 1.656 31.445-21.506 38.071-18.199 6.608 3.308 11.572 1.651 8.265 13.235-3.302 11.584-6.609 19.866 0 19.866 6.626 0 11.589-14.902 19.866-29.793 8.277-14.892 21.511-8.277 26.475-3.313 4.97 4.969 19.861 33.106 31.456 29.788 11.584-3.308 18.198-18.199 13.235-51.3-4.964-33.101 3.313-43.034 3.313-43.034s9.927-4.963 28.137 18.204c18.204 23.168 51.31 57.931 56.263 56.275 4.969-1.657-23.162-38.071-16.548-41.383 6.626-3.308 33.107 4.969 46.347 16.564 0 0 4.526 18.968 4.526.764l-135.273-133.173-23.179 1.656-21.512 1.645s-52.967 79.454-81.098 89.381z" fill="#fffffe" fill-rule="evenodd"/><g mask="url(#e)"><path d="m238.579 149.569 1.639.107c2.898.325 5.571 1.398 7.935 3.161l.606.494 1.628-.595c4.094-1.415 8.283-2.134 12.477-1.853l2.1.224c3.342.484 6.533 1.706 9.344 3.577l14.891 16.267c22.179 23.948 64.259 68.695 92.329 94.901l1.74 1.617c42.652 39.474 83.474 70.031 121.617 89.027 2.23 1.112 4.448 2.184 6.654 3.212l3.302 1.51-6.272 13.954c-3.533-1.591-7.034-3.251-10.5-4.981-38.138-18.996-78.342-48.728-120.163-86.876l-5.031-4.622c-40.109-37.115-107.377-110.662-107.113-111.302-.919-.613-1.966-1.007-3.061-1.151-2.482-.37-5.536.197-8.647 1.449-.94.372-1.857.802-2.746 1.286l-6.85 4.273-4.06-6.491c-.915-1.471-1.437-1.831-1.881-1.881-.865-.096-2.605.6-4.593 2.072-.797.584-1.488 1.179-2.021 1.673l-.41.393-1.909 3.201c-21.164 34.588-54.023 70.463-95.569 106.709l-4.829 4.183c-27.329 23.482-56.5777 45.673-85.8211 65.898-7.3108 5.054-14.251 9.731-20.7365 13.993l-9.7309 6.312-8.636 5.418-7.93972-13.072 6.3282-3.958c1.29708-.82 2.68401-1.707 4.15516-2.651l7.42876-4.834c6.8626-4.518 13.6723-9.115 20.4277-13.791 28.8334-19.939 57.6669-41.816 84.5514-64.916 42.709-36.7 76.281-72.906 97.287-107.214l2.28-3.807.882-1.208c1.117-1.257 2.88-2.942 5.177-4.638 4.312-3.183 8.866-5.154 13.74-5.07z" fill="#1a1919"/></g></g><path d="m255.992 0c-141.377 0-255.992 114.615-255.992 256.003s114.609 256.003 255.992 256.003c141.387 0 256.008-114.615 256.008-256.003s-114.621-256.003-256.008-256.003zm0 15.2955c132.942 0 240.713 107.7705 240.713 240.7075 0 132.942-107.771 240.707-240.708 240.707s-240.7015-107.765-240.7015-240.707c0-132.943 107.7645-240.7075 240.7015-240.7075z" fill="#1a1919"/></g></svg>