<svg height="32" viewBox="0 0 51 32" width="51" xmlns="http://www.w3.org/2000/svg"><g fill="none" fill-rule="evenodd"><path d="m.5.5h50v31h-50z" fill="#fff" stroke="#d0d0d0"/><g fill-rule="nonzero" transform="translate(14 6.5)"><path d="m12.1182266 8.324757c2.2817734 0 4.137931-1.86712407 4.137931-4.1623785s-1.8561576-4.1623785-4.137931-4.1623785-4.13793103 1.86712407-4.13793103 4.1623785 1.85615763 4.1623785 4.13793103 4.1623785" fill="#00aeef"/><path d="m15.1684729 7.52795883c-.7921182.85626072-2.1753695 1.72441395-3.9605911 1.72441395-1.38325126 0-2.57733993-.53516295-3.33399017-1.14168096-4.51625616.4757004-7.87389163 1.14168096-7.87389163 1.14168096v1.84333902h23.964532v-3.79371066s-4.102463-.02378502-8.7960591.22595769" fill="#00aeef"/><g fill="#003665"><path d="m2.849 16.483v2.236h-2.849v-5.958h2.849v2.675h.012l1.679-2.675h3.417l-2.507 3.08 2.365 2.878h-3.263l-1.691-2.236z"/><path d="m8.41773399 12.7606632h5.75763551c1.4896551 0 1.9862069.582733 1.9862069 1.4984563 0 1.0227559-.9103449 1.4627787-1.8325124 1.5103488v.0118925c.9576355.071355 1.879803.1783876 1.879803 1.3914236 0 .7849057-.4847291 1.5579189-2.1399015 1.5579189h-5.65123151zm2.84926111 4.7451115h1.4896551c.5556651 0 .7448276-.2259577.7448276-.5708405 0-.3448827-.1891625-.5827329-.7448276-.5827329h-1.4896551zm0-2.2238993h1.4187192c.5438424 0 .7684729-.2259577.7684729-.5708405 0-.3924529-.2128079-.582733-.7211823-.582733h-1.4660098zm12.6975369 3.1871926c-.6738916.2021727-1.5605911.3329903-2.3408867.3329903-2.8137931 0-4.8827586-.8086907-4.8827586-3.1515151 0-2.1168668 2.0098522-3.0325901 4.7408867-3.0325901.7566502 0 1.7261084.0832476 2.4827586.3329903v2.0455117c-.555665-.3448828-1.1231527-.558948-1.9270936-.558948-1.0403941 0-2.0926108.5232705-2.0926108 1.2724986s1.0403941 1.2724986 2.0926108 1.2724986c.7921183 0 1.3596059-.2140652 1.9270936-.5470555z"/></g></g></g></svg>