<svg xmlns="http://www.w3.org/2000/svg" width="51" height="32" viewBox="0 0 51 32">
  <g fill="none" fill-rule="evenodd">
    <rect width="50" height="31" x=".5" y=".5" fill="#FFF" stroke="#D0D0D0"/>
    <g transform="translate(14 6.5)">
      <path fill="#00AEEF" fill-rule="nonzero" d="M12.1182266,8.324757 C14.4,8.324757 16.2561576,6.45763293 16.2561576,4.1623785 C16.2561576,1.86712407 14.4,0 12.1182266,0 C9.8364532,0 7.98029557,1.86712407 7.98029557,4.1623785 C7.98029557,6.45763293 9.8364532,8.324757 12.1182266,8.324757"/>
      <path fill="#00AEEF" fill-rule="nonzero" d="M15.1684729,7.52795883 C14.3763547,8.38421955 12.9931034,9.25237278 11.2078818,9.25237278 C9.82463054,9.25237278 8.63054187,8.71720983 7.87389163,8.11069182 C3.35763547,8.58639222 0,9.25237278 0,9.25237278 L0,11.0957118 L23.964532,11.0957118 L23.964532,7.30200114 C23.964532,7.30200114 19.862069,7.27821612 15.1684729,7.52795883"/>
      <polyline fill="#003665" fill-rule="nonzero" points="2.849 16.483 2.849 18.719 0 18.719 0 12.761 2.849 12.761 2.849 15.436 2.861 15.436 4.54 12.761 7.957 12.761 5.45 15.841 7.815 18.719 4.552 18.719 2.861 16.483 2.849 16.483"/>
      <path fill="#003665" fill-rule="nonzero" d="M8.41773399 12.7606632L14.1753695 12.7606632C15.6650246 12.7606632 16.1615764 13.3433962 16.1615764 14.2591195 16.1615764 15.2818754 15.2512315 15.7218982 14.329064 15.7694683L14.329064 15.7813608C15.2866995 15.8527158 16.208867 15.9597484 16.208867 17.1727844 16.208867 17.9576901 15.7241379 18.7307033 14.0689655 18.7307033L8.41773399 18.7307033 8.41773399 12.7606632 8.41773399 12.7606632zM11.2669951 17.5057747L12.7566502 17.5057747C13.3123153 17.5057747 13.5014778 17.279817 13.5014778 16.9349342 13.5014778 16.5900515 13.3123153 16.3522013 12.7566502 16.3522013L11.2669951 16.3522013 11.2669951 17.5057747zM11.2669951 15.2818754L12.6857143 15.2818754C13.2295567 15.2818754 13.4541872 15.0559177 13.4541872 14.7110349 13.4541872 14.318582 13.2413793 14.1283019 12.7330049 14.1283019L11.2669951 14.1283019 11.2669951 15.2818754zM23.964532 18.469068C23.2906404 18.6712407 22.4039409 18.8020583 21.6236453 18.8020583 18.8098522 18.8020583 16.7408867 17.9933676 16.7408867 15.6505432 16.7408867 13.5336764 18.7507389 12.6179531 21.4817734 12.6179531 22.2384236 12.6179531 23.2078818 12.7012007 23.964532 12.9509434L23.964532 14.9964551C23.408867 14.6515723 22.8413793 14.4375071 22.0374384 14.4375071 20.9970443 14.4375071 19.9448276 14.9607776 19.9448276 15.7100057 19.9448276 16.4592338 20.9852217 16.9825043 22.0374384 16.9825043 22.8295567 16.9825043 23.3970443 16.7684391 23.964532 16.4354488L23.964532 18.469068"/>
    </g>
  </g>
</svg>
