<svg height="360" viewBox="0 0 640 360" width="640" xmlns="http://www.w3.org/2000/svg"><g fill="none" transform="translate(160 53.333)"><path d="m161.576355 110.99676c30.423645 0 55.172413-24.8949876 55.172413-55.49838s-24.748768-55.49838-55.172413-55.49838c-30.423646 0-55.172414 24.8949876-55.172414 55.49838s24.748768 55.49838 55.172414 55.49838" fill="#00aeef"/><path d="m202.246305 100.372784c-10.561576 11.41681-29.004926 22.992186-52.807881 22.992186-18.44335 0-34.364532-7.135506-44.453202-15.222412-60.2167491 6.342672-104.985222 15.222412-104.985222 15.222412v24.577854h319.527094v-50.5828088s-54.699508-.3171336-117.280789 3.0127688" fill="#00aeef"/><g fill="#003665"><path d="m37.99 219.774v29.81h-37.99v-79.442h37.99v35.678h.158l22.384-35.678h45.557l-33.419 41.069 31.527 38.373h-43.507l-22.542-29.81z"/><path d="m112.236453 170.142176h76.768473c19.862069 0 26.482759 7.769774 26.482759 19.979417 0 13.636745-12.137931 19.503717-24.433498 20.137984v.158567c12.768473.951401 25.06404 2.378502 25.06404 18.552315 0 10.465409-6.463055 20.772251-28.53202 20.772251h-75.349754zm37.990148 63.268154h19.862069c7.408867 0 9.931034-3.012769 9.931034-7.611207 0-4.598437-2.522167-7.769773-9.931034-7.769773h-19.862069zm0-29.651992h18.916256c7.251232 0 10.246306-3.012769 10.246306-7.611206 0-5.232705-2.837439-7.769774-9.615764-7.769774h-19.546798zm169.300493 42.495903c-8.985222 2.695635-20.807882 4.43987-31.211823 4.43987-37.517241 0-65.103448-10.782542-65.103448-42.020202 0-28.224891 26.798029-40.434534 63.211822-40.434534 10.08867 0 23.014779 1.109967 33.103449 4.43987v27.27349c-7.408867-4.598437-14.97537-7.45264-25.694582-7.45264-13.871921 0-27.901478 6.976939-27.901478 16.966648 0 9.989708 13.871922 16.966648 27.901478 16.966648 10.561577 0 18.128079-2.854203 25.694582-7.294073z"/></g></g></svg>