<svg xmlns="http://www.w3.org/2000/svg" width="640" height="360"><defs><linearGradient id="a" x1="36.63%" x2="66.97%" y1="58.442%" y2="40.743%"><stop offset="0%" stop-color="#66BC6B"/><stop offset="100%" stop-color="#368F43"/></linearGradient><linearGradient id="b" x1="40.114%" x2="64.889%" y1="71.647%" y2="10.294%"><stop offset="0%" stop-color="#66BC6B"/><stop offset="100%" stop-color="#368F43"/></linearGradient><linearGradient id="c" x1="53.452%" x2="45.588%" y1="80.538%" y2="14.684%"><stop offset="0%" stop-color="#66BC6B"/><stop offset="100%" stop-color="#368F43"/></linearGradient><linearGradient id="d" x1="50.061%" x2="50.061%" y1="59.367%" y2="142.762%"><stop offset="0%" stop-color="#66BC6B"/><stop offset="100%" stop-color="#368F43"/></linearGradient><linearGradient id="e" x1="50.067%" x2="50.067%" y1="80.536%" y2="4.209%"><stop offset="0%" stop-color="#66BC6B"/><stop offset="100%" stop-color="#368F43"/></linearGradient><linearGradient id="f" x1="49.696%" x2="43.711%" y1="37.766%" y2="63.311%"><stop offset="0%" stop-color="#66BC6B"/><stop offset="100%" stop-color="#368F43"/></linearGradient><linearGradient id="g" x1="48.108%" x2="42.537%" y1="47.337%" y2="87.275%"><stop offset="0%" stop-color="#66BC6B"/><stop offset="100%" stop-color="#368F43"/></linearGradient></defs><g fill="none" fill-rule="evenodd"><g fill="#66BC6B"><path fill-rule="nonzero" d="M538.414 181.053h-1.799l.38 1.704c2.745 13.728.188 34.273-10.131 46.864-6.06 7.385-13.917 11.172-23.29 11.172-15.148 0-20.64-17.988-21.396-38.343 24.804-5.87 41.183-21.397 41.183-39.385 0-12.876-3.882-34.461-29.539-34.461-24.236 0-36.544 36.26-39.005 61.443-12.497-.189-21.492-6.154-26.983-11.36 2.178-8.71 3.314-16.947 3.314-24.332 0-10.13-7.1-14.77-13.633-14.77-9.562 0-19.22 9.184-19.22 26.794 0 10.603 4.072 19.219 12.025 25.657-7.101 16.568-18.935 30.58-23.006 35.124-3.125-6.817-13.444-31.053-16.568-57.468 3.881-10.698 6.059-19.313 6.059-23.479 0-6.722-4.071-10.414-11.456-10.414-9.562 0-24.52 6.059-25.089 6.248l-.852.379.095.947c0 .19 4.544 21.49 9.089 44.686-8.71 14.485-24.142 38.154-32 38.154-14.107 0 9.183-72.237-1.042-74.414-.284-.095-.662 0-.852.19-4.923 3.029-60.023 33.703-133.49 33.703 0 0 .094 1.42.662 2.746.473 1.041 1.515 1.988 1.515 1.988 20.828 2.556 50.366-.284 72.804-3.408-12.875 27.74-35.881 46.2-57.088 46.2-39.574 0-70.249-48.094-70.249-48.094 12.402-10.793 32.757-46.2 61.917-46.2 29.16 0 42.036 16.094 42.036 16.094l3.313-5.207S222.485 102 183.763 102c-38.722 0-79.716 63.337-103.763 77.917 0 0 33.041 78.296 105.183 78.296 60.592 0 75.835-57.94 78.675-72.237 14.77-2.177 24.994-4.26 24.994-4.26s-3.692 29.633-3.692 41.94c0 12.214 13.538 25.468 24.9 25.468 9.656 0 28.78-19.692 42.887-43.645l.662 2.84c7.385 27.267 16.569 40.995 27.456 40.995 10.982 0 28.97-22.722 40.426-50.84 11.74 5.112 25.278 6.343 33.23 6.532 3.125 48.757 44.025 50.177 48.758 50.177 30.296 0 55.858-21.775 55.858-47.526 0-26.13-20.733-26.604-20.923-26.604zm-36.923-20.45c0 .19-.284 16.19-18.84 24.427 1.704-21.397 7.006-40.71 10.698-40.71 3.882 0 8.142 6.248 8.142 16.284z"/><path d="M290.556 141.29c-.094.568.379 1.136.947 1.23 14.39 1.989 23.763-2.366 23.763-25.845 0-21.87-22.532-4.64-26.698-1.326-.379.284-.473.852-.284 1.326 4.166 8.615 2.84 20.923 2.272 24.615z"/></g><path fill="url(#a)" d="M268.876 86.06c-5.586 9.372-14.012 22.437-21.397 30.674 1.61 4.165 3.882 9.373 5.87 13.728 6.627-7.385 13.539-16.758 19.503-26.888l-3.976-17.515z" transform="translate(80 102)"/><path fill="url(#b)" d="M335.621 93.444c-2.65-1.61-5.112-3.503-5.112-3.503-4.734 11.077-11.645 21.018-16.852 27.74 2.461 3.502 6.722 8.141 9.846 11.455 6.438-8.805 12.876-20.26 17.988-32.757-.095.094-3.124-1.231-5.87-2.935z" transform="translate(80 102)"/><path fill="url(#c)" d="M402.272 100.45s-7.006 1.61-13.917 2.177c-6.911.663-13.728.379-13.728.379.947 14.012 4.923 24.047 10.32 31.337l25.657-2.083c-5.492-7.006-7.858-18.935-8.332-31.81z" transform="translate(80 102)"/><path fill="url(#d)" d="M381.917 57.562a84.273 84.273 0 00-2.272 6.911c-.19.568-.284 1.042-.473 1.61a125.63 125.63 0 00-3.125 13.822c-.094.568-.189 1.136-.284 1.61a80.213 80.213 0 00-.852 6.438c16.379 0 27.74-4.829 27.74-4.829.095-1.61.284-3.219.473-4.733 0-.38.095-.853.095-1.231.095-1.231.284-2.462.473-3.693 0-.284.095-.662.095-.946.473-3.22.947-6.249 1.515-9.089l-23.385-5.87z" transform="translate(80 102)"/><path fill="url(#e)" d="M150.817 118.627l15.526 6.533c7.48-10.414 11.93-21.491 14.58-30.012l2.84-11.172-7.384 1.042c-6.438 13.917-15.527 25.562-25.562 33.61z" transform="translate(80 102)"/><path fill="url(#f)" d="M290.935 67.598c3.882-10.699 6.06-19.314 6.06-23.48 0-.378-.096-.757-.096-1.136l-9.088 2.84c.094 0 .378 6.249 3.124 21.776z" transform="translate(80 102)"/><path fill="url(#g)" d="M340.26 60.024s-2.461 7.195 7.764 16.568c1.893-7.574 2.935-14.675 3.219-21.207l-10.983 4.639z" transform="translate(80 102)"/></g></svg>