<svg xmlns="http://www.w3.org/2000/svg" width="640" height="360"><g fill="#1D2428" fill-rule="evenodd"><path fill-rule="nonzero" d="M372.55 89.774C359.1 76.32 340.51 68 319.983 68c-20.532 0-39.12 8.32-52.573 21.774-13.457 13.454-21.777 32.044-21.777 52.574s8.32 39.119 21.774 52.573c13.454 13.457 32.044 21.774 52.576 21.774 20.53 0 39.12-8.324 52.57-21.774 13.454-13.457 21.774-32.044 21.774-52.573 0-20.53-8.323-39.12-21.777-52.574zm-2.453 102.689c-12.824 12.825-30.544 20.759-50.117 20.759-19.572 0-37.294-7.934-50.12-20.759-12.825-12.825-20.758-30.544-20.758-50.115 0-19.573 7.933-37.292 20.759-50.117 12.825-12.826 30.544-20.76 50.117-20.76 19.572 0 37.29 7.934 50.116 20.76 12.826 12.825 20.758 30.544 20.758 50.117.003 19.57-7.93 37.29-20.755 50.115z"/><path fill-rule="nonzero" d="M383.938 141.727c-.334-35.038-28.838-63.34-63.955-63.34-35.12 0-63.626 28.305-63.954 63.343l29.326-29.326 9.835 9.835-21.46 21.46h92.506l-21.461-21.46 9.835-9.835 29.328 29.323zm-63.958-10.99l-27.25-28.596h18.11V88.045c0-3.658 4.114-6.657 9.14-6.657 5.027 0 9.142 2.996 9.142 6.657v14.096h18.11l-27.252 28.596z"/><path d="M327.93 178.343c-1.453-.944-3.294-1.794-5.514-2.531-1.698-.585-3.095-1.137-4.186-1.67-1.081-.526-1.88-1.111-2.391-1.729-.524-.628-.77-1.381-.77-2.245 0-.691.21-1.348.655-1.97.438-.62 1.122-1.137 2.05-1.528.94-.396 2.134-.61 3.618-.617 1.195.006 2.287.102 3.274.273.975.177 1.84.391 2.58.636.751.254 1.357.493 1.835.718l1.65-4.978c-.998-.502-2.248-.918-3.766-1.255-1.288-.285-2.764-.449-4.439-.505v-5.152h-4.538v5.41c-.728.117-1.426.275-2.085.467-1.67.492-3.104 1.176-4.29 2.07-1.177.889-2.09 1.93-2.715 3.122-.629 1.192-.939 2.506-.952 3.92.009 1.634.438 3.076 1.283 4.32.846 1.246 2.05 2.327 3.607 3.253 1.549.923 3.398 1.719 5.536 2.389 1.604.514 2.912 1.05 3.91 1.6.998.549 1.728 1.154 2.183 1.813.464.66.693 1.425.685 2.28 0 .939-.276 1.753-.814 2.457-.533.693-1.32 1.239-2.355 1.625-1.035.39-2.298.582-3.779.595a21.637 21.637 0 01-3.513-.307 22.562 22.562 0 01-3.172-.796c-.988-.329-1.852-.686-2.602-1.085l-1.596 5.185c.722.397 1.623.754 2.726 1.082 1.103.331 2.316.595 3.646.796 1.32.195 2.676.294 4.055.307l.242-.003v5.326h4.538v-5.753a17.6 17.6 0 001.646-.4c1.82-.548 3.333-1.295 4.53-2.252 1.204-.95 2.096-2.048 2.688-3.287a9.063 9.063 0 00.883-3.946c0-1.635-.35-3.082-1.071-4.327-.73-1.256-1.814-2.356-3.273-3.308z"/><g><path fill-rule="nonzero" d="M85.662 267.902c0 .993.14 1.954.422 2.88.28.928.703 1.739 1.266 2.434a6.092 6.092 0 002.135 1.664c.861.415 1.888.621 3.08.621 1.655 0 2.988-.355 3.999-1.067 1.01-.711 1.762-1.779 2.26-3.203h5.363c-.297 1.39-.811 2.632-1.54 3.725a10.71 10.71 0 01-2.631 2.756 11.378 11.378 0 01-3.452 1.689 13.95 13.95 0 01-3.999.57c-2.02 0-3.807-.33-5.364-.992-1.557-.663-2.873-1.59-3.949-2.782-1.076-1.193-1.887-2.616-2.434-4.27-.545-1.657-.818-3.478-.818-5.465 0-1.82.29-3.551.87-5.19.578-1.638 1.407-3.079 2.483-4.32a11.863 11.863 0 013.9-2.956c1.522-.728 3.243-1.093 5.165-1.093 2.019 0 3.831.422 5.438 1.266 1.606.844 2.938 1.962 3.999 3.353 1.059 1.39 1.83 2.989 2.31 4.793.48 1.805.604 3.667.372 5.587H85.662zm13.21-3.725a9.159 9.159 0 00-.571-2.583 6.917 6.917 0 00-1.291-2.16 6.42 6.42 0 00-1.987-1.49c-.779-.381-1.647-.572-2.607-.572-.994 0-1.896.174-2.707.522a6.185 6.185 0 00-2.086 1.44 7.133 7.133 0 00-1.39 2.161 7.513 7.513 0 00-.57 2.682h13.21zm31.488 9.387c0 .696.091 1.193.274 1.49.18.297.538.447 1.067.447h.596c.231 0 .497-.032.795-.099v3.924c-.199.066-.456.14-.77.224-.316.082-.638.157-.97.223a10.46 10.46 0 01-1.837.198c-1.16 0-2.12-.232-2.88-.695-.762-.463-1.259-1.274-1.49-2.434-1.125 1.092-2.507 1.888-4.147 2.383-1.638.497-3.22.745-4.743.745-1.16 0-2.268-.157-3.328-.471-1.06-.315-1.995-.778-2.806-1.39a6.662 6.662 0 01-1.937-2.336c-.48-.943-.72-2.044-.72-3.303 0-1.589.288-2.88.869-3.874a6.452 6.452 0 012.284-2.335c.943-.562 2.002-.968 3.178-1.216a37.221 37.221 0 013.552-.572 29.434 29.434 0 012.93-.422 13.75 13.75 0 002.457-.422c.712-.198 1.274-.504 1.69-.92.413-.413.62-1.033.62-1.861 0-.728-.175-1.324-.522-1.788a3.51 3.51 0 00-1.29-1.068 5.623 5.623 0 00-1.714-.497 13.86 13.86 0 00-1.788-.125c-1.59 0-2.899.332-3.924.994-1.027.663-1.607 1.69-1.739 3.08h-5.662c.1-1.655.497-3.03 1.192-4.122a8.235 8.235 0 012.658-2.632c1.076-.661 2.292-1.126 3.65-1.39a21.734 21.734 0 014.171-.398c1.258 0 2.5.133 3.726.398 1.225.266 2.326.695 3.303 1.29a7.172 7.172 0 012.36 2.31c.595.943.893 2.094.893 3.452v13.212h.002zm-5.66-7.153c-.861.564-1.92.903-3.18 1.018-1.258.116-2.515.29-3.774.523-.596.099-1.175.24-1.739.422-.563.182-1.06.43-1.49.744-.43.316-.77.73-1.018 1.242-.247.514-.372 1.134-.372 1.862 0 .63.181 1.16.547 1.59.364.43.802.769 1.316 1.018a6.081 6.081 0 001.69.521c.611.1 1.166.149 1.663.149.629 0 1.309-.082 2.036-.248a6.805 6.805 0 002.062-.844 5.391 5.391 0 001.614-1.515c.43-.611.646-1.365.646-2.26v-4.222h-.002z"/><path d="M140.74 271.03c.166 1.657.795 2.815 1.888 3.477 1.093.663 2.4.993 3.924.993.53 0 1.134-.041 1.812-.125a7.852 7.852 0 001.913-.471 3.584 3.584 0 001.465-1.018c.38-.448.554-1.035.521-1.763-.034-.728-.297-1.324-.794-1.788-.497-.463-1.134-.836-1.911-1.118a18.619 18.619 0 00-2.658-.72 120.96 120.96 0 01-3.03-.646 28.017 28.017 0 01-3.054-.844 9.829 9.829 0 01-2.633-1.34 6.173 6.173 0 01-1.862-2.161c-.464-.877-.695-1.963-.695-3.254 0-1.39.339-2.557 1.018-3.502a7.796 7.796 0 012.583-2.284 11.234 11.234 0 013.476-1.216c1.274-.23 2.49-.347 3.65-.347 1.324 0 2.59.142 3.8.422 1.207.282 2.3.738 3.277 1.366a8.048 8.048 0 012.434 2.459c.646 1.01 1.05 2.227 1.218 3.65h-5.91c-.267-1.357-.887-2.267-1.864-2.732-.977-.463-2.094-.695-3.353-.695-.397 0-.869.034-1.414.1a6.58 6.58 0 00-1.54.372c-.48.182-.886.447-1.216.794-.33.348-.497.803-.497 1.366 0 .696.24 1.26.721 1.69.48.43 1.109.787 1.888 1.067a18.42 18.42 0 002.656.72c.994.198 2.019.414 3.08.645 1.025.232 2.036.514 3.03.844a9.821 9.821 0 012.657 1.341 6.514 6.514 0 011.888 2.135c.48.863.72 1.92.72 3.179 0 1.524-.35 2.815-1.044 3.874a8.22 8.22 0 01-2.708 2.583 12.287 12.287 0 01-3.7 1.44 18.768 18.768 0 01-4.022.447c-1.623 0-3.12-.183-4.494-.547-1.375-.363-2.566-.918-3.576-1.663a8.014 8.014 0 01-2.384-2.781c-.58-1.11-.886-2.426-.919-3.95h5.66zm18.674-17.432h6.209l6.704 19.17h.1l6.505-19.17h5.91l-9.982 27.067a201.515 201.515 0 01-1.366 3.328 11.963 11.963 0 01-1.638 2.806 7.08 7.08 0 01-2.409 1.937c-.96.48-2.185.72-3.676.72-1.325 0-2.632-.098-3.923-.297v-4.768c.463.066.91.141 1.34.223.431.082.877.125 1.342.125.66 0 1.207-.082 1.638-.248.43-.167.786-.406 1.067-.72.28-.316.521-.689.721-1.12.198-.43.38-.927.547-1.489l.645-1.986-9.734-25.578z"/><path fill-rule="nonzero" d="M207.688 279.275v-4.868h-.099a7.363 7.363 0 01-1.465 2.285 9.459 9.459 0 01-2.21 1.763c-.829.48-1.714.852-2.658 1.117-.943.265-1.879.398-2.806.398-1.954 0-3.65-.355-5.09-1.068a10.182 10.182 0 01-3.601-2.93c-.962-1.24-1.673-2.68-2.136-4.32-.464-1.64-.695-3.369-.695-5.191 0-1.821.23-3.551.695-5.19.463-1.638 1.176-3.08 2.136-4.321a10.436 10.436 0 013.6-2.955c1.44-.728 3.137-1.093 5.09-1.093.96 0 1.896.116 2.807.347.91.232 1.763.587 2.559 1.067a9.014 9.014 0 012.11 1.763 7.426 7.426 0 011.417 2.434h.099v-14.7h3.129v35.46h-2.882v.002zm-17.16-8.865c.315 1.308.812 2.475 1.49 3.501a8.189 8.189 0 002.609 2.508c1.059.646 2.334.968 3.824.968 1.655 0 3.054-.322 4.197-.968 1.142-.646 2.068-1.481 2.78-2.508.713-1.026 1.225-2.193 1.54-3.501.314-1.309.471-2.624.471-3.95 0-1.323-.157-2.639-.471-3.947-.316-1.307-.829-2.475-1.54-3.502a8.293 8.293 0 00-2.78-2.509c-1.143-.645-2.542-.968-4.197-.968-1.49 0-2.765.323-3.824.968a8.193 8.193 0 00-2.609 2.51c-.68 1.026-1.175 2.193-1.49 3.501a16.84 16.84 0 00-.47 3.948c0 1.325.157 2.642.47 3.949zm29.179-26.596v5.017h-3.13v-5.017h3.13zm0 9.834v25.627h-3.13v-25.627h3.13zm27.043 28.657c-.415 1.523-1.068 2.815-1.963 3.874-.895 1.059-2.061 1.87-3.501 2.434-1.44.562-3.205.844-5.29.844-1.292 0-2.55-.149-3.775-.448-1.225-.297-2.326-.761-3.302-1.39a8.256 8.256 0 01-2.434-2.409c-.646-.977-1.018-2.143-1.117-3.501h3.129c.166.96.488 1.763.968 2.41a5.8 5.8 0 001.74 1.564 7.716 7.716 0 002.26.87c.826.18 1.67.273 2.532.273 2.913 0 5.017-.828 6.308-2.484 1.291-1.656 1.937-4.04 1.937-7.151v-3.478h-.099c-.73 1.59-1.797 2.864-3.203 3.824-1.407.96-3.054 1.44-4.941 1.44-2.054 0-3.808-.34-5.265-1.018-1.457-.678-2.658-1.614-3.6-2.806-.944-1.192-1.632-2.59-2.062-4.197-.43-1.605-.646-3.319-.646-5.14 0-1.754.256-3.418.77-4.99.513-1.572 1.258-2.947 2.235-4.123.975-1.175 2.185-2.102 3.626-2.78 1.44-.679 3.087-1.018 4.942-1.018.96 0 1.862.133 2.707.397a8.576 8.576 0 012.31 1.118 9.948 9.948 0 011.863 1.663c.546.63.968 1.292 1.265 1.987h.1v-4.42h3.129v23.54c-.002 1.887-.21 3.591-.623 5.115zm-7.176-6.83a8.16 8.16 0 002.582-2.283c.696-.943 1.217-2.028 1.565-3.252.348-1.225.521-2.484.521-3.775 0-1.258-.149-2.516-.447-3.775a10.915 10.915 0 00-1.44-3.427 7.835 7.835 0 00-2.557-2.483c-1.044-.629-2.31-.943-3.8-.943-1.489 0-2.765.306-3.824.919a8.157 8.157 0 00-2.632 2.408c-.695.993-1.2 2.128-1.515 3.403a16.152 16.152 0 00-.472 3.9c0 1.29.166 2.55.497 3.774.33 1.225.844 2.31 1.54 3.252a7.952 7.952 0 002.632 2.284c1.059.58 2.316.87 3.775.87 1.356-.002 2.548-.29 3.575-.871zm16.936-31.66v5.016h-3.13v-5.017h3.13zm0 9.833v25.627h-3.13v-25.627h3.13z"/><path d="M272.7 253.648v2.632h-5.215v17.284c0 1.027.14 1.83.422 2.409.28.58.985.903 2.11.968.894 0 1.789-.05 2.682-.148v2.632c-.464 0-.927.015-1.39.05-.464.032-.927.049-1.39.049-2.086 0-3.544-.405-4.371-1.218-.829-.811-1.225-2.31-1.193-4.494V256.28h-4.47v-2.632h4.47v-7.698h3.13v7.698h5.214z"/><path fill-rule="nonzero" d="M277.865 257.621c.53-1.093 1.25-1.987 2.16-2.682.91-.695 1.979-1.208 3.203-1.539 1.225-.33 2.583-.497 4.074-.497 1.124 0 2.251.108 3.377.323a8.19 8.19 0 013.03 1.216c.893.596 1.623 1.433 2.185 2.51.562 1.075.844 2.474.844 4.196v13.609c0 1.257.613 1.886 1.838 1.886.363 0 .695-.067.992-.199v2.633c-.364.066-.688.116-.968.148-.282.034-.638.05-1.068.05-.794 0-1.431-.106-1.911-.323a2.575 2.575 0 01-1.12-.919 3.443 3.443 0 01-.52-1.416 12.047 12.047 0 01-.125-1.814h-.099a20.983 20.983 0 01-1.713 2.21 8.468 8.468 0 01-1.937 1.615 8.908 8.908 0 01-2.434.992c-.91.231-1.995.349-3.252.349-1.193 0-2.31-.142-3.352-.422-1.044-.28-1.954-.728-2.731-1.341a6.4 6.4 0 01-1.838-2.335c-.448-.943-.671-2.06-.671-3.352 0-1.788.398-3.187 1.192-4.196.796-1.01 1.845-1.779 3.153-2.31 1.308-.53 2.782-.902 4.42-1.117 1.639-.215 3.304-.422 4.992-.62a18.482 18.482 0 001.739-.248c.497-.099.91-.273 1.241-.521.33-.248.587-.588.77-1.018.18-.43.272-.994.272-1.69 0-1.058-.174-1.928-.522-2.606a4.132 4.132 0 00-1.44-1.614c-.613-.398-1.325-.671-2.135-.82a14.48 14.48 0 00-2.608-.224c-1.987 0-3.61.472-4.867 1.416-1.259.943-1.92 2.458-1.988 4.544h-3.13c.101-1.49.416-2.78.947-3.874zm15.644 7.649c-.2.365-.58.63-1.142.794a11.41 11.41 0 01-1.49.347c-1.325.232-2.69.44-4.098.622-1.407.182-2.69.456-3.848.82-1.16.365-2.111.886-2.856 1.564-.745.68-1.117 1.647-1.117 2.906 0 .795.157 1.5.471 2.11a5.121 5.121 0 001.266 1.59c.53.448 1.143.788 1.838 1.019a6.7 6.7 0 002.135.348c1.193 0 2.335-.181 3.427-.546a8.427 8.427 0 002.856-1.59 7.724 7.724 0 001.937-2.534c.48-.993.72-2.118.72-3.377v-4.072h-.099v-.001z"/><path d="M306.173 243.814v35.461h-3.129v-35.461z"/><path fill-rule="nonzero" d="M336.37 279.275h-5.364v-3.476h-.1c-.76 1.49-1.87 2.557-3.327 3.203a11.277 11.277 0 01-4.618.968c-2.02 0-3.784-.355-5.29-1.068-1.507-.71-2.757-1.679-3.75-2.905-.994-1.225-1.738-2.673-2.234-4.346-.497-1.67-.745-3.467-.745-5.389 0-2.316.315-4.321.943-6.009.629-1.689 1.466-3.08 2.51-4.171 1.043-1.093 2.234-1.895 3.575-2.409 1.34-.512 2.707-.77 4.097-.77.796 0 1.606.074 2.434.224.827.149 1.621.39 2.383.72a9.428 9.428 0 012.111 1.266 7.034 7.034 0 011.615 1.813h.1v-13.112h5.661v35.46h-.001zm-19.767-12.565c0 1.093.14 2.17.422 3.228a8.828 8.828 0 001.291 2.83 6.538 6.538 0 002.21 1.989c.896.495 1.953.744 3.18.744 1.257 0 2.341-.264 3.253-.794a6.738 6.738 0 002.235-2.086c.579-.86 1.01-1.829 1.291-2.905.28-1.076.422-2.178.422-3.303 0-2.846-.637-5.065-1.913-6.655-1.276-1.59-3.005-2.385-5.19-2.385-1.325 0-2.442.274-3.352.82a6.885 6.885 0 00-2.235 2.135 8.894 8.894 0 00-1.241 2.98 15.549 15.549 0 00-.373 3.402zm37.696 13.26c-2.053 0-3.882-.34-5.488-1.018-1.607-.678-2.963-1.614-4.072-2.806-1.11-1.193-1.954-2.616-2.533-4.272-.58-1.655-.868-3.476-.868-5.464 0-1.953.289-3.757.868-5.413.58-1.656 1.424-3.08 2.533-4.272 1.109-1.192 2.467-2.127 4.072-2.807 1.606-.678 3.435-1.018 5.488-1.018 2.054 0 3.883.34 5.489 1.018 1.605.68 2.963 1.615 4.073 2.807 1.109 1.192 1.953 2.616 2.533 4.272.58 1.656.87 3.46.87 5.413 0 1.988-.29 3.809-.87 5.464-.579 1.656-1.424 3.08-2.533 4.272-1.11 1.192-2.468 2.128-4.073 2.806-1.606.678-3.437 1.018-5.489 1.018zm0-4.47c1.258 0 2.35-.265 3.278-.794a6.905 6.905 0 002.286-2.086 9.11 9.11 0 001.316-2.906 13.053 13.053 0 000-6.58c-.281-1.094-.72-2.062-1.316-2.906a7.035 7.035 0 00-2.286-2.062c-.927-.53-2.02-.794-3.278-.794s-2.35.266-3.277.794a6.999 6.999 0 00-2.284 2.062c-.596.844-1.035 1.812-1.317 2.905a12.99 12.99 0 000 6.581 9.08 9.08 0 001.317 2.906 6.9 6.9 0 002.284 2.086c.926.53 2.019.794 3.277.794z"/><path d="M369.645 253.598h6.01l5.016 19.171h.101l4.817-19.171h5.712l4.618 19.171h.101l5.215-19.171h5.761l-8.045 25.677h-5.811l-4.768-19.071h-.099l-4.718 19.071h-5.959zM410.618 253.598h5.364v3.775l.099.1c.86-1.424 1.986-2.542 3.377-3.354 1.39-.81 2.93-1.216 4.618-1.216 2.814 0 5.033.73 6.655 2.185 1.623 1.457 2.434 3.643 2.434 6.556v17.63h-5.66v-16.14c-.067-2.02-.498-3.485-1.292-4.396-.796-.91-2.036-1.366-3.725-1.366-.96 0-1.821.174-2.583.522a5.597 5.597 0 00-1.937 1.44 6.806 6.806 0 00-1.242 2.161 7.7 7.7 0 00-.447 2.632v15.148h-5.66v-25.677zM439.275 243.814h5.662v35.461h-5.662v-35.461z"/><path fill-rule="nonzero" d="M462.866 279.97c-2.053 0-3.883-.34-5.488-1.018-1.607-.678-2.964-1.614-4.073-2.806-1.11-1.193-1.953-2.616-2.533-4.272-.579-1.655-.868-3.476-.868-5.464 0-1.953.29-3.757.868-5.413.58-1.656 1.425-3.08 2.533-4.272 1.11-1.192 2.467-2.127 4.073-2.807 1.605-.678 3.435-1.018 5.488-1.018 2.053 0 3.882.34 5.488 1.018 1.606.68 2.964 1.615 4.074 2.807 1.108 1.192 1.952 2.616 2.533 4.272.579 1.656.87 3.46.87 5.413 0 1.988-.291 3.809-.87 5.464-.58 1.656-1.425 3.08-2.533 4.272-1.11 1.192-2.468 2.128-4.074 2.806-1.607.678-3.436 1.018-5.488 1.018zm0-4.47c1.257 0 2.35-.265 3.278-.794a6.905 6.905 0 002.285-2.086 9.11 9.11 0 001.317-2.906 13.053 13.053 0 000-6.58c-.282-1.094-.72-2.062-1.317-2.906a7.035 7.035 0 00-2.285-2.062c-.928-.53-2.02-.794-3.278-.794-1.259 0-2.35.266-3.278.794a6.999 6.999 0 00-2.284 2.062c-.596.844-1.035 1.812-1.317 2.905a12.99 12.99 0 000 6.581 9.08 9.08 0 001.317 2.906 6.9 6.9 0 002.284 2.086c.926.53 2.02.794 3.278.794zm39.184-1.936c0 .696.09 1.193.274 1.49.18.297.538.447 1.067.447h.596a3.7 3.7 0 00.795-.099v3.924a13.1 13.1 0 01-.77.224c-.315.082-.638.157-.968.223a10.46 10.46 0 01-1.838.198c-1.158 0-2.12-.232-2.88-.695-.761-.463-1.258-1.274-1.49-2.434-1.125 1.092-2.508 1.888-4.146 2.383-1.64.497-3.22.745-4.742.745-1.16 0-2.269-.157-3.328-.471-1.06-.315-1.995-.778-2.806-1.39a6.662 6.662 0 01-1.937-2.336c-.48-.943-.72-2.044-.72-3.303 0-1.589.29-2.88.868-3.874.58-.993 1.341-1.771 2.286-2.335a10.31 10.31 0 013.177-1.216 37.221 37.221 0 013.551-.572 29.434 29.434 0 012.93-.422 13.727 13.727 0 002.458-.422c.712-.198 1.274-.504 1.69-.92.413-.413.62-1.033.62-1.861 0-.728-.173-1.324-.522-1.788a3.51 3.51 0 00-1.291-1.068 5.623 5.623 0 00-1.713-.497 13.86 13.86 0 00-1.789-.125c-1.59 0-2.898.332-3.923.994-1.027.663-1.607 1.69-1.739 3.08h-5.662c.1-1.655.497-3.03 1.192-4.122a8.22 8.22 0 012.658-2.632c1.074-.661 2.29-1.126 3.65-1.39a21.749 21.749 0 014.173-.398c1.257 0 2.499.133 3.725.398 1.225.266 2.326.695 3.303 1.29a7.172 7.172 0 012.36 2.31c.595.943.893 2.094.893 3.452v13.212h-.002zm-5.66-7.153c-.863.564-1.922.903-3.18 1.018-1.258.116-2.515.29-3.774.523-.596.099-1.175.24-1.739.422-.564.182-1.06.43-1.491.744-.43.316-.769.73-1.018 1.242-.248.514-.372 1.134-.372 1.862 0 .63.18 1.16.546 1.59.364.43.802.769 1.316 1.018a6.11 6.11 0 001.689.521c.611.1 1.166.149 1.663.149.63 0 1.307-.082 2.037-.248a6.79 6.79 0 002.061-.844 5.408 5.408 0 001.614-1.515c.43-.611.646-1.365.646-2.26v-4.222h.001zm35.957 12.864h-5.364v-3.476h-.099c-.762 1.49-1.87 2.557-3.327 3.203a11.277 11.277 0 01-4.619.968c-2.02 0-3.783-.355-5.29-1.068-1.506-.71-2.757-1.679-3.75-2.905-.993-1.225-1.738-2.673-2.234-4.346-.497-1.67-.744-3.467-.744-5.389 0-2.316.314-4.321.943-6.009.628-1.689 1.465-3.08 2.509-4.171 1.043-1.093 2.234-1.895 3.575-2.409 1.34-.512 2.707-.77 4.098-.77.795 0 1.605.074 2.434.224.826.149 1.62.39 2.383.72a9.428 9.428 0 012.11 1.266 7.034 7.034 0 011.615 1.813h.1v-13.112h5.661v35.46h-.001zM512.58 266.71c0 1.093.14 2.17.421 3.228a8.828 8.828 0 001.292 2.83 6.538 6.538 0 002.21 1.989c.895.495 1.953.744 3.179.744 1.257 0 2.342-.264 3.254-.794a6.738 6.738 0 002.234-2.086c.58-.86 1.01-1.829 1.291-2.905.28-1.076.422-2.178.422-3.303 0-2.846-.637-5.065-1.913-6.655-1.275-1.59-3.004-2.385-5.19-2.385-1.324 0-2.442.274-3.352.82a6.885 6.885 0 00-2.234 2.135 8.894 8.894 0 00-1.242 2.98 15.463 15.463 0 00-.372 3.402z"/><path d="M542.777 271.03c.165 1.657.794 2.815 1.887 3.477 1.093.663 2.4.993 3.924.993.528 0 1.134-.041 1.812-.125a7.852 7.852 0 001.913-.471 3.58 3.58 0 001.464-1.018c.38-.448.555-1.035.522-1.763-.034-.728-.298-1.324-.794-1.788-.497-.463-1.134-.836-1.913-1.118a18.649 18.649 0 00-2.656-.72 120.96 120.96 0 01-3.03-.646 28.017 28.017 0 01-3.054-.844 9.829 9.829 0 01-2.633-1.34 6.173 6.173 0 01-1.861-2.161c-.465-.877-.696-1.963-.696-3.254 0-1.39.34-2.557 1.018-3.502a7.78 7.78 0 012.583-2.284 11.234 11.234 0 013.476-1.216 20.51 20.51 0 013.65-.347c1.324 0 2.592.142 3.8.422 1.209.282 2.302.738 3.279 1.366a8.048 8.048 0 012.434 2.459c.645 1.01 1.05 2.227 1.217 3.65h-5.91c-.265-1.357-.886-2.267-1.862-2.732-.977-.463-2.094-.695-3.351-.695-.398 0-.87.034-1.416.1a6.58 6.58 0 00-1.54.372 3.26 3.26 0 00-1.217.794c-.331.347-.496.803-.496 1.366 0 .696.24 1.26.72 1.69.48.43 1.11.787 1.887 1.067.778.282 1.664.521 2.658.72.992.198 2.019.414 3.078.645 1.027.232 2.036.514 3.03.844a9.812 9.812 0 012.656 1.341 6.514 6.514 0 011.888 2.135c.48.863.72 1.92.72 3.179 0 1.524-.348 2.815-1.043 3.874a8.247 8.247 0 01-2.707 2.583 12.301 12.301 0 01-3.7 1.44 18.768 18.768 0 01-4.023.447c-1.622 0-3.12-.183-4.494-.547-1.375-.363-2.567-.918-3.576-1.663a7.995 7.995 0 01-2.383-2.781c-.581-1.11-.887-2.426-.92-3.95h5.659z"/></g></g></svg>