<svg width="51" height="32" xmlns="http://www.w3.org/2000/svg"><defs><linearGradient id="a" x1="196.459" y1="301.989" x2="380.699" y2="233.557" gradientUnits="userSpaceOnUse" gradientTransform="matrix(.92074 0 0 .92074 -425.3 -228.84)"><stop offset="0" stop-color="#005ab9"/><stop offset="1" stop-color="#1e3764"/></linearGradient><linearGradient id="b" x1="412.618" y1="255.495" x2="608.243" y2="188.752" gradientUnits="userSpaceOnUse" gradientTransform="matrix(.92074 0 0 .92074 -425.3 -228.84)"><stop offset="0" stop-color="#fba900"/><stop offset="1" stop-color="#ffd800"/></linearGradient></defs><g fill="none" fill-rule="evenodd"><path fill="#FFF" stroke="#D0D0D0" d="M.5.5h50v31H.5z"/><path class="cls-1" d="M-291.317 191.987v-66.991h20.672c15.025 0 24.69 5.646 24.69 17.322 0 6.604-3.062 11.197-7.368 13.877 6.22 2.87 9.857 8.421 9.857 15.982 0 13.494-9.857 19.81-25.17 19.81zm13.302-39.142h9.858c6.029 0 8.613-2.967 8.613-8.422 0-5.838-4.69-7.751-11.006-7.751h-7.465zm0 27.467h8.23c8.04 0 12.73-2.01 12.73-8.326 0-6.22-4.02-8.805-11.58-8.805h-9.38zm60.346 12.824c-13.111 0-19.715-6.412-19.715-15.025 0-9.475 7.752-15.026 19.236-15.121a59.927 59.927 0 0 1 8.518.765v-2.297c0-5.837-3.35-8.613-9.762-8.613a33.576 33.576 0 0 0-12.633 2.297l-2.392-10.336c4.115-1.723 10.719-2.87 16.557-2.87 14.068 0 21.054 7.464 21.054 20.384v26.605c-3.924 2.01-11.293 4.21-20.863 4.21zm8.039-10.815v-10.24a32.142 32.142 0 0 0-6.795-.766c-4.402 0-7.847 1.723-7.847 6.221 0 4.02 2.87 6.125 7.943 6.125a14.982 14.982 0 0 0 6.699-1.34zm22.122 9.666v-45.841a58.438 58.438 0 0 1 21.629-4.21c13.972 0 22.011 6.89 22.011 19.618v30.433h-13.207v-29.476c0-6.603-3.062-9.666-8.9-9.666a20.072 20.072 0 0 0-8.422 1.723v37.42zm89.794-47.18-2.489 10.43a29.152 29.152 0 0 0-10.814-2.392c-7.752 0-11.963 5.455-11.963 14.451 0 9.858 4.402 14.93 12.633 14.93a27.093 27.093 0 0 0 10.623-2.489l2.105 10.623a32.211 32.211 0 0 1-13.78 2.776c-15.887 0-25.075-9.858-25.075-25.457 0-15.504 9.092-25.744 24.309-25.744a36.888 36.888 0 0 1 14.45 2.871zm28.53 48.329c-14.738 0-23.925-10.24-23.925-25.648 0-15.313 9.187-25.553 23.926-25.553 14.833 0 23.83 10.24 23.83 25.553 0 15.408-8.997 25.648-23.83 25.648zm0-10.91c6.796 0 10.336-5.647 10.336-14.738 0-8.997-3.54-14.643-10.335-14.643-6.7 0-10.432 5.646-10.432 14.643 0 9.091 3.733 14.738 10.432 14.738zm31.473 9.761v-45.841a58.438 58.438 0 0 1 21.629-4.21c13.972 0 22.011 6.89 22.011 19.618v30.433H-7.278v-29.476c0-6.604-3.062-9.666-8.9-9.666a20.072 20.072 0 0 0-8.422 1.723v37.42zm73.425 1.149c-11.389 0-17.227-6.22-17.227-18.854v-20.671H11.98v-10.528h6.507V132.46l13.207-.67v11.293h10.623v10.528H31.694v20.48c0 5.55 2.297 8.135 6.604 8.135a23.207 23.207 0 0 0 5.072-.574l.67 10.623a36.504 36.504 0 0 1-8.326.86zm33.335 0c-13.111 0-19.715-6.412-19.715-15.025 0-9.475 7.752-15.026 19.236-15.121a59.927 59.927 0 0 1 8.518.765v-2.297c0-5.837-3.35-8.613-9.762-8.613a33.576 33.576 0 0 0-12.633 2.297l-2.392-10.336c4.115-1.722 10.719-2.87 16.556-2.87 14.069 0 21.055 7.464 21.055 20.384v26.605c-3.924 2.01-11.293 4.21-20.863 4.21zm8.039-10.815v-10.24a32.143 32.143 0 0 0-6.795-.766c-4.402 0-7.848 1.723-7.848 6.221 0 4.02 2.871 6.125 7.944 6.125a14.981 14.981 0 0 0 6.699-1.34zm58.01-37.515-2.49 10.432a29.152 29.152 0 0 0-10.813-2.393c-7.752 0-11.963 5.455-11.963 14.451 0 9.858 4.402 14.93 12.633 14.93a27.093 27.093 0 0 0 10.622-2.489l2.106 10.623a32.213 32.213 0 0 1-13.781 2.776c-15.887 0-25.074-9.858-25.074-25.457 0-15.504 9.092-25.744 24.308-25.744a36.889 36.889 0 0 1 14.451 2.871zm29.036 48.33c-11.389 0-17.226-6.22-17.226-18.854v-20.671H140.4v-10.528h6.508V132.46l13.206-.67v11.293h10.623v10.528h-10.623v20.48c0 5.55 2.297 8.135 6.604 8.135a23.206 23.206 0 0 0 5.072-.574l.67 10.623a36.504 36.504 0 0 1-8.326.86z" style="fill:#1e3764;stroke-width:.920733" transform="matrix(.05116 0 0 .05116 28.54 13.486)"/><path class="cls-2" d="M-199.196 91.5c69.883 0 104.825-46.589 139.767-93.178h-231.888V91.5z" style="fill:url(#a);stroke-width:.920733" transform="matrix(.05116 0 0 .05116 28.54 13.486)"/><path class="cls-3" d="M80.34-94.857c-69.885 0-104.827 46.59-139.769 93.179H172.46v-93.18z" style="fill:url(#b);stroke-width:.920733" transform="matrix(.05116 0 0 .05116 28.54 13.486)"/></g></svg>