<svg height="360" viewBox="0 0 640 360" width="640" xmlns="http://www.w3.org/2000/svg" xmlns:xlink="http://www.w3.org/1999/xlink"><linearGradient id="a" x1="0%" x2="0%" y1="0%" y2="100%"><stop offset="0" stop-color="#39adff"/><stop offset="1" stop-color="#1b67de"/></linearGradient><path d="m109.99997 219.99994c-60.7199835 0-109.99997-49.279987-109.99997-109.99997 0-60.7199835 49.2799865-109.99997 109.99997-109.99997 30.359991 0 57.903984 12.3199966 77.791978 32.2079911l-18.303995 18.303995c-15.223995-15.2239958-36.25599-24.6399932-59.487983-24.6399932-46.4639875 0-84.1279771 37.6639896-84.1279771 84.1279771 0 46.463987 37.6639896 84.127977 84.1279771 84.127977 42.063988 0 76.823979-30.887992 82.983977-71.191981h-82.983977v-25.8719927h109.20797c.532147 4.2913897.796658 8.6117417.79206 12.9359967 0 60.719983-49.280047 109.99997-110.00003 109.99997" fill="url(#a)" transform="translate(210 70)"/></svg>