<svg xmlns="http://www.w3.org/2000/svg" width="640" height="360" viewBox="0 0 640 360">
  <defs>
    <linearGradient id="method-gulden-a" x1="0%" x2="0%" y1="0%" y2="100%">
      <stop offset="0%" stop-color="#39ADFF"/>
      <stop offset="100%" stop-color="#1B67DE"/>
    </linearGradient>
  </defs>
  <path fill="url(#method-gulden-a)" d="M109.99997,219.99994 C49.2799865,219.99994 0,170.719953 0,109.99997 C0,49.2799865 49.2799865,0 109.99997,0 C140.359961,0 167.903954,12.3199966 187.791948,32.2079911 L169.487953,50.5119861 C154.263958,35.2879903 133.231963,25.8719929 109.99997,25.8719929 C63.5359825,25.8719929 25.8719929,63.5359825 25.8719929,109.99997 C25.8719929,156.463957 63.5359825,194.127947 109.99997,194.127947 C152.063958,194.127947 186.823949,163.239955 192.983947,122.935966 L109.99997,122.935966 L109.99997,97.0639733 L219.20794,97.0639733 C219.740087,101.355363 220.004598,105.675715 220,109.99997 C220,170.719953 170.719953,219.99994 109.99997,219.99994" transform="translate(210 70)"/>
</svg>
