<svg height="32" viewBox="0 0 51 32" width="51" xmlns="http://www.w3.org/2000/svg" xmlns:xlink="http://www.w3.org/1999/xlink"><linearGradient id="a" x1="0%" x2="0%" y1="0%" y2="100%"><stop offset="0" stop-color="#39adff"/><stop offset="1" stop-color="#1b67de"/></linearGradient><g fill="none" fill-rule="evenodd"><path d="m.5.5h50v31h-50z" fill="#fff" stroke="#d0d0d0"/><path d="m12 24c-6.62400148 0-12-5.3760051-12-12 0-6.62400148 5.37599852-12 12-12 3.3119958 0 6.316795 1.34399963 8.4863944 3.51359903l-1.9967995 1.99679946c-1.6607995-1.66079955-3.9551989-2.68799927-6.4895949-2.68799927-5.06880191 0-9.17760078 4.10879887-9.17760078 9.17760078 0 5.0687953 4.10879887 9.1775942 9.17760078 9.1775942 4.5887954 0 8.3807944-3.3695991 9.0527942-7.7663979h-9.0527942v-2.8223992h11.9135934c.0580525.4681515.0869082.9394627.0864066 1.4112029 0 6.6239949-5.3760051 12-12 12" fill="url(#a)" fill-rule="nonzero" transform="translate(14 4)"/></g></svg>