<svg xmlns="http://www.w3.org/2000/svg" width="51" height="32" viewBox="0 0 51 32">
  <defs>
    <linearGradient id="icon-51x32-a" x1="0%" x2="0%" y1="0%" y2="100%">
      <stop offset="0%" stop-color="#39ADFF"/>
      <stop offset="100%" stop-color="#1B67DE"/>
    </linearGradient>
  </defs>
  <g fill="none" fill-rule="evenodd">
    <rect width="50" height="31" x=".5" y=".5" fill="#FFF" stroke="#D0D0D0"/>
    <path fill="url(#icon-51x32-a)" fill-rule="nonzero" d="M12,24 C5.37599852,24 0,18.6239949 0,12 C0,5.37599852 5.37599852,0 12,0 C15.3119958,0 18.316795,1.34399963 20.4863944,3.51359903 L18.4895949,5.51039849 C16.8287954,3.84959894 14.534396,2.82239922 12,2.82239922 C6.93119809,2.82239922 2.82239922,6.93119809 2.82239922,12 C2.82239922,17.0687953 6.93119809,21.1775942 12,21.1775942 C16.5887954,21.1775942 20.3807944,17.8079951 21.0527942,13.4111963 L12,13.4111963 L12,10.5887971 L23.9135934,10.5887971 C23.9716459,11.0569486 24.0005016,11.5282598 24,12 C24,18.6239949 18.6239949,24 12,24" transform="translate(14 4)"/>
  </g>
</svg>
