<svg xmlns="http://www.w3.org/2000/svg" width="640" height="360"><g fill="none" fill-rule="evenodd"><path fill="#273674" fill-rule="nonzero" d="M316.756 126.907h-4.89v10.32h4.89c3.728 0 5.444-1.022 5.444-5.155 0-3.934-1.556-5.165-5.444-5.165m0 14.853h-4.89v10.467h-5.528v-30.044h10.418c7.897 0 11.133 3.12 11.133 9.924 0 6.258-3.2 9.653-11.133 9.653m27.364-.155c-.6-.28-2.084-.68-4.084-.68-3.29 0-4.765 1.315-4.765 3.769 0 2.804 1.671 3.8 4.04 3.8 2.525 0 4.809-1.605 4.809-3.36v-3.53m.724 8.058-.124-.04c-1.48 1.875-3.924 3-6.813 3-4.485 0-7.445-2.49-7.445-7.845 0-4.529 3.04-7.462 8.65-7.462 1.888 0 3.644.316 5.008.773v-1.809c0-3.004-1.444-4.213-5.049-4.213-2.595 0-4.489.4-6.689 1.378l-.44-4.222c2.365-1.05 5.045-1.56 8.054-1.56 6.728 0 9.173 2.88 9.173 9.373v15.187h-3.893l-.432-2.56" style="fill:#fff" transform="translate(80 80)"/><path fill="#273674" d="m363.036 152.263.115-.356-10.458-23.813h5.85l5.968 16.026 1.085 3.058h.115l.805-3.138 4.688-15.946h5.445l-8.533 24.209c-1.756 4.724-4.32 6.497-8.134 6.497-1.4 0-2.76-.244-3.924-.768l.435-3.72a5.727 5.727 0 0 0 2.614.595c1.724 0 3.004-.595 3.929-2.644m44.342-.036v-15.671c0-2.88-1.596-4.209-4.245-4.209-2.324 0-4.084 1.298-4.084 3.933v15.947h-5.089V136.28c0-2.84-1.684-3.968-4.089-3.968-1.72 0-3.444.888-4.28 2.2v17.715l-5.093-.009v-24l3.644-.235.885 2.395c1.64-1.662 3.884-2.67 6.209-2.67 3.12 0 5.204 1.124 6.448 3.448 1.52-2.36 3.925-3.449 6.814-3.449 4.675 0 7.969 2.88 7.969 8.773v15.747h-5.09" style="fill:#fff" transform="translate(80 80)"/><path fill="#273674" fill-rule="nonzero" d="M432.058 137.89c-.08-4.245-2.005-5.858-5-5.858-3.49 0-4.974 1.768-5.214 5.857h10.214m-15.382 1.83c0-7.644 3.368-12.013 10.333-12.013 5.929 0 9.738 3.489 9.738 11.173 0 .756-.036 1.725-.125 2.445h-14.658c.236 5.044 2.36 6.809 6.978 6.809 2.356 0 4.445-.436 6.485-1.325l.6 4.205c-2.045 1.013-4.69 1.649-7.694 1.649-8.133 0-11.657-4.29-11.657-12.943" style="fill:#fff" transform="translate(80 80)"/><path fill="#273674" d="M455.738 152.227v-15.591c0-3.036-1.65-4.324-4.61-4.324-1.8 0-3.808.8-4.804 2.2v17.715h-5.093v-24.009l3.653-.28.792 2.325c1.808-1.671 4.248-2.6 6.857-2.6 5.09 0 8.294 3.084 8.294 8.942v15.622h-5.09m16.832-20.195v13.426c0 2.12 1.12 2.996 3.164 2.996.636 0 1.52-.12 1.956-.28l.324 3.813c-.8.356-2.28.636-3.764.636-4.525 0-6.773-2.6-6.773-7.05v-13.541h-3v-3.934h3.16l.924-5.64 4.009-.395v6.035h5.644v3.934h-5.644m-158.653 65.746c-2.89 0-5.494-.613-7.494-1.809l.596-4.333c1.898 1.253 4.693 1.893 6.898 1.893 2.924 0 4.168-1.329 4.168-3.089 0-4.568-11.746-2.208-11.746-10.533 0-4.209 2.933-7.129 8.813-7.124 2.405 0 4.693.47 6.693 1.35l-.44 4.25c-2-.836-4.484-1.231-6.324-1.231-2.404 0-3.849.95-3.849 2.56 0 4.244 11.582 1.884 11.582 10.248 0 4.69-2.653 7.818-8.897 7.818" style="fill:#fff" transform="translate(80 80)"/><path fill="#273674" fill-rule="nonzero" d="M341.316 182.947c-.085-4.249-2-5.84-5.01-5.84-3.484 0-4.968 1.751-5.208 5.84h10.218m-15.383 1.845c0-7.64 3.365-12.014 10.334-12.014 5.937 0 9.733 3.485 9.733 11.178 0 .756-.04 1.716-.12 2.449h-14.667c.245 5.035 2.374 6.813 6.974 6.813 2.364 0 4.453-.458 6.493-1.329l.604 4.205c-2.044.995-4.688 1.64-7.688 1.64-8.138 0-11.663-4.276-11.663-12.942" style="fill:#fff" transform="translate(80 80)"/><path fill="#273674" d="M350.493 197.29v-23.952l4.09-.24.44 4.53h.115c1.484-3.125 3.969-4.805 6.929-4.805 1.004 0 1.889.115 2.524.315l-.32 5.165a8.648 8.648 0 0 0-2.52-.4c-3.489 0-6.173 2.724-6.173 7.249v12.137h-5.085M390.596 173.174l-8.983 24.115h-5.964l-8.973-24.115h5.613l5.369 16.502.955 3.084h.125l.92-3.084 5.369-16.502z" style="fill:#fff" transform="translate(80 80)"/><path fill="#273674" fill-rule="nonzero" d="M395.32 197.29v-23.952l5.169-.275v24.226h-5.169m2.613-27.312c-2.049 0-3.049-.604-3.049-2.369 0-1.56 1-2.449 3.05-2.449 2.075 0 3.04.89 3.04 2.45 0 1.595-.965 2.368-3.04 2.368" style="fill:#fff" transform="translate(80 80)"/><path fill="#273674" d="M422.164 178.383c-1.324-.556-2.924-.92-4.448-.92-4.845 0-6.525 2.169-6.525 7.733 0 5.889 2.28 8.133 6.405 8.133 1.72 0 3.404-.404 4.728-1.12l.36 4.08c-1.404.92-3.608 1.53-6.164 1.53-6.973 0-10.622-4.005-10.622-12.623 0-8.044 3.244-12.378 10.738-12.378 2.08 0 4.288.44 5.848 1.076l-.32 4.489" style="fill:#fff" transform="translate(80 80)"/><path fill="#273674" fill-rule="nonzero" d="M440.547 182.947c-.08-4.244-2.005-5.84-5.01-5.84-3.48 0-4.964 1.751-5.204 5.84h10.214m-15.383 1.845c0-7.64 3.36-12.014 10.334-12.014 5.933 0 9.738 3.485 9.738 11.178 0 .756-.045 1.716-.125 2.449h-14.658c.236 5.035 2.36 6.813 6.97 6.813 2.36 0 4.453-.458 6.493-1.329l.59 4.205c-2.04.995-4.68 1.64-7.684 1.64-8.138 0-11.658-4.276-11.658-12.942" style="fill:#fff" transform="translate(80 80)"/><path fill="#273674" d="M456.129 197.778c-2.885 0-5.485-.613-7.493-1.809l.6-4.324c1.884 1.244 4.688 1.884 6.893 1.884 2.92 0 4.155-1.329 4.155-3.089 0-4.568-11.728-2.2-11.728-10.528 0-4.214 2.924-7.13 8.813-7.13 2.404 0 4.689.48 6.689 1.352l-.44 4.253c-2.005-.84-4.49-1.235-6.325-1.235-2.404 0-3.857.95-3.857 2.56 0 4.244 11.582 1.884 11.582 10.248 0 4.69-2.645 7.818-8.89 7.818" style="fill:#fff" transform="translate(80 80)"/><path fill="#3E4346" d="M1.084 101.938h14.325V37.792H1.084zM33.431 15.889h254.893V4.24H33.431z" style="fill:#fff" transform="translate(80 80)"/><path fill="#3E4346" fill-rule="nonzero" d="M140.613 50.245c-2.404-.231-5.137-.702-9.297-.702-12.018 0-16.836 8.813-16.836 20.79 0 15.276 6.124 20.56 15.529 20.56 4.262 0 7.871-1.764 10.604-3.173V50.245m-13.449 78.129c-9.075 0-17.382-1.885-22.524-3.41l2.191-12.217c5.462 1.289 13.445 2.467 17.929 2.467 9.511 0 15.96-1.64 15.96-12.925.218-.23 0-3.173 0-3.524-2.951 2.347-7.107 4.231-11.476 4.231-13.666 0-28.977-3.76-28.977-32.778 0-21.853 14.106-33.484 31.164-33.484 6.778 0 14.209.938 23.507 2.475v64.725c0 17.973-15.09 24.44-27.774 24.44m68.88-80.36c-6.124 0-12.462 4.466-13.115 15.27h23.831c.111-9.861-4.596-15.27-10.716-15.27M182.6 74.209c.102 13.978 8.204 15.983 18.911 15.983 4.156 0 11.476-.592 16.182-1.64l2.191 11.977c-4.702 1.64-13.773 2.467-20.995 2.467-18.698 0-30.618-6.938-30.618-32.071 0-26.08 12.253-34.662 29.089-34.662 17.271 0 24.271 12.217 24.271 32.306v5.64H182.6" style="fill:#fff" transform="translate(80 80)"/><path fill="#3E4346" d="M306.356 101.938h14.324V37.792h-14.324zM379.071 51.658c-3.933-1.644-7.649-2.822-13.662-2.822-9.187 0-16.182 5.64-16.182 20.68 0 14.453 3.609 20.907 19.35 20.907 4.92 0 8.196-.938 12.134-1.52l1.969 11.977c-4.702 1.058-8.636 2.116-15.084 2.116-24.054 0-33.13-9.747-33.13-33.716 0-20.324 12.027-33.133 30.943-33.133 8.524 0 13.884 1.765 17.818 4.116l-4.156 11.395" style="fill:#fff" transform="translate(80 80)"/><path fill="#3E4346" fill-rule="nonzero" d="M420.08 48.485c-11.702 0-14.871 10.342-14.871 21.498 0 11.986 3.6 20.91 15.084 20.91 11.703 0 14.543-9.395 14.543-21.026 0-10.929-2.84-21.382-14.756-21.382m-.662 54.862c-18.37 0-28.645-12.329-28.645-32.893 0-21.614 11.916-34.307 29.631-34.307 19.89 0 29.187 12.338 29.187 33.72 0 22.089-12.898 33.48-30.173 33.48" style="fill:#fff" transform="translate(80 80)"/><path fill="#3E4346" d="M16.484 10.063c0 4.55-3.688 8.244-8.24 8.244A8.242 8.242 0 0 1 0 10.063a8.242 8.242 0 0 1 8.244-8.245c4.552 0 8.24 3.694 8.24 8.245m305.272 0c0 4.55-3.694 8.244-8.24 8.244-4.556 0-8.25-3.693-8.25-8.244s3.694-8.245 8.25-8.245c4.546 0 8.24 3.694 8.24 8.245M67.906 36.032c-9.07 0-15.964 5.4-20.008 8.457v-.129l-.431.463c-1.41-5.17-5.111-6.663-8.48-7.031h-5.52v64.146h14.43V54.943c2.85-1.645 9.405-5.525 15.419-5.525 8.088 0 9.728 4.236 9.728 13.511v39.01H87.37v-40.77c0-13.155-1.2-25.137-19.462-25.137m201 0c-9.071 0-15.97 5.4-20.01 8.457v-.129c-.146.152-.293.312-.435.463-1.404-5.17-5.11-6.663-8.48-7.031h-5.515v64.146h14.43V54.943c2.84-1.645 9.4-5.525 15.419-5.525 8.084 0 9.724 4.236 9.724 13.511v39.01h14.329v-40.77c0-13.155-1.209-25.137-19.462-25.137" style="fill:#fff" transform="translate(80 80)"/></g></svg>