<?xml version="1.0" encoding="UTF-8" standalone="no"?>
<svg
   viewBox="0 0 640 360"
   xml:space="preserve"
   version="1.1"
   id="svg1"
   sodipodi:docname="ideal-issuer-regiobank-640x360.svg"
   width="640"
   height="360"
   inkscape:version="1.3.2 (091e20e, 2023-11-25)"
   xmlns:inkscape="http://www.inkscape.org/namespaces/inkscape"
   xmlns:sodipodi="http://sodipodi.sourceforge.net/DTD/sodipodi-0.dtd"
   xmlns="http://www.w3.org/2000/svg"
   xmlns:svg="http://www.w3.org/2000/svg"><defs
   id="defs1" /><sodipodi:namedview
   id="namedview1"
   pagecolor="#ffffff"
   bordercolor="#666666"
   borderopacity="1.0"
   inkscape:showpageshadow="2"
   inkscape:pageopacity="0.0"
   inkscape:pagecheckerboard="true"
   inkscape:deskcolor="#d1d1d1"
   inkscape:zoom="1"
   inkscape:cx="336"
   inkscape:cy="165"
   inkscape:window-width="1464"
   inkscape:window-height="807"
   inkscape:window-x="2540"
   inkscape:window-y="351"
   inkscape:window-maximized="0"
   inkscape:current-layer="svg1" />
    <path
   d="m 527.85107,165.55965 c -4.99173,0 -8.55725,1.78276 -12.47932,6.41793 l -1.06965,-4.27862 c -0.35655,-1.06965 -1.06966,-1.78276 -2.13931,-1.78276 h -2.85242 c -1.06965,0 -2.13931,0.71311 -2.13931,1.78276 v 40.29035 c 0,1.06966 1.06966,2.13931 2.13931,2.13931 h 4.27862 c 1.06966,0 2.13932,-1.06965 2.13932,-2.13931 v -24.95862 c 0,-6.06138 4.27862,-10.69655 9.98345,-10.69655 3.92206,0 5.34827,1.78275 5.34827,6.06138 v 29.59379 c 0,1.06966 1.06966,2.13931 2.13931,2.13931 h 4.27862 c 1.06966,0 2.13931,-1.06965 2.13931,-2.13931 v -31.37655 c -0.7131,-6.77449 -4.99172,-11.05311 -11.7662,-11.05311 z m -212.86141,0 c -9.98345,0 -16.75793,8.55724 -16.75793,22.46276 0,14.97518 7.13103,22.81932 19.61034,22.81932 5.34828,0 8.55725,-0.71311 11.40966,-2.13931 1.06965,-0.35656 1.42621,-1.42621 1.06965,-2.49587 l -1.06965,-2.85241 c -0.35655,-1.06966 -1.06966,-1.78276 -2.49586,-1.42621 -2.49587,0.71311 -4.99173,1.42621 -8.55725,1.42621 -8.20069,0 -11.0531,-4.63517 -11.40965,-13.19242 h 22.81931 c 1.06966,0 2.13931,-1.06965 2.13931,-2.13931 0,-16.75793 -7.48759,-22.46276 -16.75793,-22.46276 z m -8.20069,18.18414 c 1.06965,-9.6269 4.99172,-11.76621 8.55724,-11.76621 5.70483,0 7.84414,6.06138 7.84414,11.76621 z m 195.39037,14.26207 v -16.04483 c 0,-7.48758 -1.06966,-16.75793 -15.68828,-16.75793 -3.92207,0 -8.55724,1.06966 -11.0531,1.78276 -1.06966,0.35655 -1.42621,1.06965 -1.42621,2.49586 l 0.7131,3.20897 c 0.35655,1.06965 1.06966,1.78276 2.49586,1.4262 2.49587,-0.7131 5.34828,-1.4262 8.9138,-1.4262 6.41793,0 7.84414,2.49586 7.84414,7.84414 v 2.13931 l -9.98345,0.7131 c -7.48759,0.7131 -13.54897,4.27862 -13.54897,14.26207 0,8.20069 4.63517,13.19242 11.76621,13.19242 4.99172,0 9.6269,-1.78276 12.47931,-6.41794 l 0.7131,3.92207 c 0.35656,1.42621 1.06966,1.78276 2.13932,1.78276 h 4.27862 c 1.06965,0 1.78276,-0.7131 1.78276,-2.13931 l -0.71311,-2.49586 c -1.06965,-2.85241 -0.7131,-5.34828 -0.7131,-7.48759 z M 493.97865,195.51 c 0,3.20897 -3.56552,8.55724 -9.6269,8.55724 -3.20897,0 -5.70483,-2.13931 -5.70483,-6.41793 0,-6.77448 3.92207,-8.55724 9.6269,-8.55724 l 5.70483,-0.35655 z m -88.78139,-29.95035 c -11.05311,0 -17.82759,8.55724 -17.82759,22.81931 0,14.26208 6.77448,22.46277 17.82759,22.46277 11.0531,0 17.82759,-8.55725 17.82759,-22.46277 0,-14.26207 -6.77449,-22.81931 -17.82759,-22.81931 z m -0.35656,38.15104 c -5.70482,0 -9.27034,-4.63517 -9.27034,-15.68828 0,-11.0531 3.56552,-15.68827 9.27034,-15.68827 5.70483,0 9.27035,4.63517 9.27035,15.68827 0,11.05311 -3.20897,15.68828 -9.27035,15.68828 z m 170.7883,3.92207 -14.97517,-22.81931 12.12276,-16.75794 c 0.7131,-1.06965 0.35655,-2.13931 -1.06966,-2.13931 h -5.70482 c -1.42621,0 -2.13932,0.71311 -2.49587,1.42621 l -11.0531,16.75793 v -36.72483 c 0,-1.06965 -1.06966,-2.13931 -2.13931,-2.13931 h -3.92207 c -1.06966,0 -2.13931,0.7131 -2.13931,2.13931 v 60.97035 c 0,1.06966 1.06965,2.13931 2.13931,2.13931 h 4.27862 c 1.06965,0 2.13931,-1.06965 2.13931,-2.13931 v -21.74965 l 13.19242,22.10621 c 0.7131,1.06965 1.4262,1.78275 2.49586,1.78275 h 6.41793 c 1.06965,-0.35655 1.42621,-1.78275 0.7131,-2.85241 z M 291.45724,188.73552 c -2.13931,-4.27862 -5.34827,-8.55725 -10.34,-9.6269 h 0.7131 c 9.27035,-1.42621 13.19242,-8.20069 13.19242,-14.97518 0,-6.06138 -3.20897,-15.33172 -18.54069,-15.33172 h -15.68828 c -1.06966,0 -2.13931,1.06965 -2.13931,2.13931 v 57.40483 c 0,1.06966 1.06965,2.13931 2.13931,2.13931 h 4.27862 c 1.06966,0 2.13931,-1.06965 2.13931,-2.13931 v -25.67172 h 4.27862 c 6.06138,0 8.9138,3.92207 11.05311,7.84414 2.49586,4.63517 4.27862,11.40965 6.77448,18.54069 0.35655,1.06965 1.06966,1.4262 2.13931,1.4262 h 6.06138 c 1.78276,0 1.78276,-1.06965 1.42621,-2.49586 -3.20897,-8.91379 -6.41793,-17.11448 -7.48759,-19.25379 z m -16.04483,-13.54897 h -8.20069 v -18.89724 h 9.27035 c 6.41793,0 9.98345,3.92207 9.98345,8.91379 0,6.41793 -4.27862,9.98345 -11.05311,9.98345 z m 103.75657,-30.3069 c -3.20897,0 -5.70483,2.49586 -5.70483,5.70483 0,3.20896 2.49586,5.70483 5.70483,5.70483 3.20896,0 5.70483,-2.49587 5.70483,-5.70483 -0.35656,-3.20897 -2.49587,-5.70483 -5.70483,-5.70483 z m 74.87587,32.80276 c 7.48759,-2.13931 10.34,-6.77448 10.34,-13.54897 0,-8.91379 -6.06138,-15.33172 -16.75793,-15.33172 h -17.82759 c -1.06966,0 -2.13931,1.06965 -2.13931,2.13931 v 57.40483 c 0,1.06966 1.06965,2.13931 2.13931,2.13931 h 18.54069 c 11.40966,0 18.54069,-6.41793 18.54069,-17.11448 0.35655,-8.55724 -3.92207,-14.97517 -12.83586,-15.68828 z m -17.47104,-21.74966 h 9.6269 c 6.41793,0 9.6269,3.20897 9.6269,9.27035 0,5.70483 -3.56552,9.27035 -10.34,9.27035 h -8.9138 z m 11.40966,46.70829 h -11.40966 v -21.39311 h 9.6269 c 7.48759,0 11.76621,4.63517 11.76621,10.69655 0,6.77449 -3.56552,10.69656 -9.98345,10.69656 z M 381.30829,165.9162 h -4.27862 c -1.06966,0 -2.13931,1.06966 -2.13931,2.13931 v 40.29035 c 0,1.06966 1.06965,2.13931 2.13931,2.13931 h 4.27862 c 1.06965,0 2.13931,-1.06965 2.13931,-2.13931 v -40.29035 c -0.35655,-1.06965 -1.06966,-2.13931 -2.13931,-2.13931 z m -23.53242,36.36828 h -7.48759 c -3.20896,0 -4.63517,-0.7131 -4.63517,-2.49586 0,-1.06965 0.7131,-2.13931 1.78276,-2.85241 1.42621,0.35655 2.85241,0.7131 4.63517,0.7131 9.98345,0 16.75794,-6.06138 16.75794,-16.04483 0,-3.20896 -1.42621,-6.06138 -3.20897,-8.91379 l 2.85241,-0.35655 c 1.06966,0 1.78276,-0.71311 1.78276,-1.78276 v -2.49587 c 0,-1.06965 -0.7131,-2.13931 -2.13931,-2.13931 h -10.34 c -1.78276,0 -3.92207,-0.35655 -5.70483,-0.35655 -9.6269,0 -16.40138,5.70483 -16.40138,16.04483 0,6.06138 2.49586,10.69655 6.41793,13.19242 -2.13931,2.13931 -3.92207,4.27862 -3.92207,7.48758 0,5.34828 4.63518,7.13104 9.98345,7.13104 h 8.9138 c 4.99172,0 6.77448,2.13931 6.77448,5.70483 0,3.92207 -4.27862,6.41793 -9.98345,6.41793 -4.27862,0 -8.91379,-0.7131 -9.6269,-5.70483 -0.35655,-1.06965 -1.06965,-1.78276 -2.13931,-1.78276 h -4.99172 c -1.06966,0 -2.13931,0.71311 -2.13931,2.13931 0,9.98345 9.27034,12.83586 18.18414,12.83586 8.55724,0 18.18414,-3.92206 18.18414,-14.26206 0,-7.84414 -5.34828,-12.47932 -13.54897,-12.47932 z m -6.06138,-30.66345 c 4.63517,0 8.20069,1.42621 8.20069,9.6269 0,8.20069 -3.92207,9.98345 -8.20069,9.98345 -4.27862,0 -8.20069,-1.42621 -8.20069,-9.98345 0,-8.20069 3.56552,-9.6269 8.20069,-9.6269 z M 75.386868,206.20655 c 1.782759,0 3.922069,-1.4262 3.922069,-3.92207 0,-3.20896 2.495863,-4.99172 4.991725,-4.99172 1.069655,0 1.782759,-0.7131 1.782759,-1.78276 0,-0.35655 -0.356552,-0.7131 -0.356552,-1.06966 -0.356552,-0.7131 -0.713103,-1.4262 -0.713103,-2.85241 0,-2.85241 2.495862,-4.99172 4.991724,-4.99172 1.782759,0 3.208966,0.7131 4.635173,2.49586 0.356552,0.35655 1.069656,0.7131 1.782759,0.35655 0.713104,-0.35655 1.069656,-1.06966 1.069656,-1.78276 0,-1.78276 1.069655,-4.63517 3.922072,-5.34828 3.92207,-1.06965 6.06138,1.78276 6.06138,1.78276 0.35655,0.35656 0.7131,0.35656 1.06965,0.35656 0.35655,0 0.71311,-0.35656 1.06966,-0.71311 2.49586,-3.56552 8.55724,-12.12276 10.34,-14.26207 0.7131,-1.06965 1.42621,-1.42621 3.20896,-1.78276 3.92207,-0.7131 8.55725,-1.78276 17.82759,-2.49586 0.71311,0 1.06966,0 1.78276,0.7131 0.71311,0.71311 12.83587,16.40138 12.83587,16.40138 l 12.12276,-35.29862 7.48758,26.38483 c 0.35656,1.06966 1.06966,1.42621 1.78276,1.42621 0.71311,0 13.90552,-2.13931 16.40138,-2.13931 1.06966,3.20896 5.34828,19.25379 5.34828,19.25379 0.35655,1.06966 1.06966,1.78276 2.85242,1.42621 0.35655,0 15.68827,-4.27862 16.04483,-4.27862 h 0.7131 c 0,0 8.91379,8.20069 9.98345,9.27034 0.7131,0.71311 1.42621,1.06966 2.13931,1.06966 1.42621,0 2.85241,-1.06966 2.85241,-2.49586 0,-0.71311 -0.35655,-1.42621 -0.7131,-2.13931 -2.13931,-2.13931 -8.55724,-8.9138 -10.69655,-10.69656 -1.42621,-1.4262 -2.85242,-1.78276 -4.63518,-1.4262 -0.7131,0 -13.19241,3.56551 -13.19241,3.56551 0,0 -3.56552,-13.54896 -4.27862,-16.40138 -0.35656,-1.78276 -1.06966,-3.92207 -4.27862,-3.56551 -2.13932,0 -12.12276,1.78275 -14.97518,2.13931 -1.42621,-5.34828 -9.98345,-36.01173 -10.34,-36.72484 -0.35655,-1.06965 -1.06966,-1.78276 -1.78276,-1.78276 -1.06965,0 -1.78276,0.71311 -2.13931,1.78276 0,0.35656 -11.05311,33.15932 -12.47931,37.79449 -0.71311,-0.7131 -6.06138,-7.13103 -6.41794,-7.48759 -1.4262,-1.78275 -4.27862,-2.85241 -6.77448,-2.49586 -7.13103,0.71311 -12.83586,1.42621 -16.75793,1.78276 -4.27862,0.7131 -7.13104,1.78276 -8.9138,4.27862 -1.78276,2.49586 -5.70482,7.84414 -8.20069,10.69655 -1.06965,-0.35655 -2.49586,-0.7131 -4.27862,-0.7131 -3.922067,0 -7.487585,2.49586 -9.270344,6.06138 -1.069655,-0.35655 -2.495862,-0.7131 -4.278621,-0.7131 -5.704828,0 -10.340001,4.63517 -10.340001,10.34 v 1.78276 c -4.278622,1.78276 -6.774484,5.70483 -6.774484,9.6269 -0.356552,1.78275 1.426207,3.56551 3.565518,3.56551 z m 165.083472,6.77449 c -3.20897,-1.78276 -6.41793,-3.20897 -10.34,-4.63518 -23.53242,-8.20069 -52.41311,-11.0531 -83.07657,-7.84413 -29.23724,2.85241 -58.117935,10.69655 -80.937249,22.1062 -2.13931,1.06966 -2.495862,3.56552 -1.782759,5.34828 0.713104,1.4262 2.139311,2.13931 3.565518,2.13931 0.713104,0 1.069655,0 1.782759,-0.35655 C 81.8048,223.32104 121.38205,205.85 174.15171,205.85 c 41.00345,0 60.97035,10.69655 63.82277,12.12276 0.7131,0.35655 1.4262,0.35655 1.78276,0.35655 0.7131,-0.35655 1.06965,-0.7131 1.4262,-1.06965 1.06966,-1.78276 0.35655,-3.56552 -0.7131,-4.27862 z"
   style="fill:#ca031a;stroke-width:3.56552"
   id="path1" />
</svg>
