<?xml version="1.0" encoding="UTF-8" standalone="no"?>
<!-- Generator: Adobe Illustrator 27.7.0, SVG Export Plug-In . SVG Version: 6.00 Build 0)  -->

<svg
   version="1.1"
   id="Laag_1"
   x="0px"
   y="0px"
   viewBox="0 0 40 40"
   xml:space="preserve"
   sodipodi:docname="ideal-issuer-regiobank-ideal-hub-40x40.svg"
   width="40"
   height="40"
   inkscape:version="1.3.2 (091e20e, 2023-11-25)"
   xmlns:inkscape="http://www.inkscape.org/namespaces/inkscape"
   xmlns:sodipodi="http://sodipodi.sourceforge.net/DTD/sodipodi-0.dtd"
   xmlns="http://www.w3.org/2000/svg"
   xmlns:svg="http://www.w3.org/2000/svg"><defs
   id="defs1" /><sodipodi:namedview
   id="namedview1"
   pagecolor="#ffffff"
   bordercolor="#666666"
   borderopacity="1.0"
   inkscape:showpageshadow="2"
   inkscape:pageopacity="0.0"
   inkscape:pagecheckerboard="true"
   inkscape:deskcolor="#d1d1d1"
   inkscape:zoom="2.0813123"
   inkscape:cx="53.812203"
   inkscape:cy="56.935233"
   inkscape:window-width="1480"
   inkscape:window-height="976"
   inkscape:window-x="2648"
   inkscape:window-y="402"
   inkscape:window-maximized="0"
   inkscape:current-layer="Laag_1" />
<style
   type="text/css"
   id="style1">
	.st0{fill:#CA031A;}
	.st1{fill:#FFFFFF;}
</style>
<rect
   class="st0"
   width="40"
   height="40"
   id="rect1"
   x="0"
   y="0"
   style="stroke-width:0.352765" />
<path
   class="st1"
   d="m 20.21695,23.360085 c 0,-1.957845 -0.850163,-2.649264 -1.936678,-2.649264 -1.171179,0 -1.957845,1.008907 -1.957845,2.617515 0,1.746186 0.818414,2.649264 2.275333,2.649264 0.617338,0 0.977159,-0.09525 1.31934,-0.243408 0.116413,-0.05291 0.17991,-0.158744 0.137579,-0.28574 l -0.116413,-0.338654 c -0.04233,-0.116412 -0.126995,-0.201076 -0.285739,-0.148161 -0.306906,0.08466 -0.596173,0.17991 -0.998325,0.17991 -0.955992,0 -1.277008,-0.553841 -1.31934,-1.541582 h 2.649264 c 0.123467,-0.0071 0.232824,-0.112885 0.232824,-0.23988 z m -2.882088,-0.500926 c 0.10583,-1.104154 0.58559,-1.372255 0.977159,-1.372255 0.65967,0 0.892494,0.691419 0.91366,1.372255 z M 15.542817,23.413 c -0.232825,-0.500927 -0.638504,-0.998325 -1.224094,-1.107682 0.01058,0 0.05292,-0.01058 0.08466,-0.01058 1.082988,-0.148161 1.552165,-0.94541 1.552165,-1.753241 0,-0.691419 -0.384514,-1.774407 -2.148338,-1.774407 h -1.841432 c -0.126995,0 -0.243408,0.10583 -0.243408,0.232825 v 6.68842 c 0,0.126996 0.116413,0.232825 0.243408,0.232825 h 0.511509 c 0.126995,0 0.232825,-0.105829 0.232825,-0.232825 v -2.987917 h 0.500926 c 0.723167,0 1.051239,0.448011 1.298174,0.903077 0.296322,0.553841 0.500926,1.319341 0.776083,2.148338 0.04233,0.137578 0.137578,0.169327 0.25399,0.169327 h 0.702002 c 0.190493,0 0.222242,-0.116412 0.158744,-0.285739 C 16.03316,24.601817 15.669812,23.677573 15.542817,23.413 Z m -1.873181,-1.555693 h -0.955993 v -2.208308 h 1.072405 c 0.7655,0 1.160596,0.458594 1.160596,1.030073 0,0.733751 -0.486815,1.178235 -1.277008,1.178235 z m 1.086515,9.761002 c 0.860747,-0.253991 1.224094,-0.786666 1.224094,-1.583914 0,-1.051239 -0.712585,-1.774407 -1.947261,-1.774407 H 11.96931 c -0.126996,0 -0.243408,0.105829 -0.243408,0.232825 v 6.68842 c 0,0.126995 0.116412,0.232825 0.243408,0.232825 h 2.169503 c 1.340506,0 2.148338,-0.733751 2.148338,-2.010759 0,-0.924244 -0.511509,-1.668578 -1.531,-1.78499 z m -2.042508,-2.508158 h 1.128848 c 0.754916,0 1.128847,0.384514 1.128847,1.061822 0,0.65967 -0.40568,1.072405 -1.202928,1.072405 h -1.051239 v -2.134227 z m 1.340506,5.432578 h -1.340506 v -2.497575 h 1.139431 c 0.860746,0 1.372255,0.532675 1.372255,1.255843 -0.0035,0.776082 -0.437429,1.241732 -1.17118,1.241732 z m 6.342712,0.331599 c -0.0635,-0.317489 -0.05292,-0.606756 -0.05292,-0.871329 v -1.852015 c 0,-0.860747 -0.137578,-1.947262 -1.83085,-1.947262 -0.458594,0 -0.977158,0.116412 -1.287591,0.201076 -0.126995,0.03175 -0.17991,0.137578 -0.148161,0.275156 l 0.08466,0.391569 c 0.03175,0.137578 0.137579,0.211659 0.278685,0.169327 0.285739,-0.07408 0.606755,-0.17991 1.01949,-0.17991 0.754916,0 0.924244,0.28574 0.924244,0.903078 v 0.253991 l -1.167652,0.07408 c -0.860746,0.0635 -1.594497,0.511509 -1.594497,1.647412 0,0.955993 0.522092,1.520416 1.372255,1.520416 0.58559,0 1.139431,-0.211659 1.467502,-0.73375 l 0.07408,0.469177 c 0.02117,0.148161 0.116413,0.211659 0.243408,0.211659 h 0.490343 c 0.137578,0 0.211659,-0.09525 0.190493,-0.232825 z m -1.008908,-1.160596 c 0,0.395096 -0.433901,0.977158 -1.114737,0.977158 -0.395096,0 -0.670253,-0.232825 -0.670253,-0.744334 0,-0.797248 0.469177,-0.987741 1.118265,-1.008907 l 0.670253,-0.02117 v 0.797249 z m 9.528177,1.425169 c 0.07408,0.116413 0.02117,0.275157 -0.126995,0.275157 h -0.754917 c -0.116412,0 -0.211659,-0.07408 -0.285739,-0.201076 l -1.541582,-2.575183 v 2.543434 c 0,0.126995 -0.10583,0.232825 -0.232825,0.232825 h -0.47976 c -0.126996,0 -0.232825,-0.10583 -0.232825,-0.232825 v -7.083517 c 0,-0.137578 0.105829,-0.232825 0.232825,-0.232825 h 0.47976 c 0.126995,0 0.232825,0.09525 0.232825,0.232825 v 4.317841 l 1.287591,-1.968427 c 0.0635,-0.10583 0.158744,-0.179911 0.310433,-0.179911 h 0.680836 c 0.148161,0 0.201076,0.148162 0.116413,0.264574 L 27.177,32.479055 Z m -0.144633,-14.42808 c -1.277009,0 -2.074257,0.998325 -2.074257,2.638681 0,1.647411 0.797248,2.628098 2.074257,2.628098 1.287591,0 2.063674,-0.998325 2.063674,-2.628098 -0.0035,-1.629774 -0.790193,-2.638681 -2.063674,-2.638681 z m -0.02117,4.45542 c -0.65967,0 -1.061822,-0.532675 -1.061822,-1.816739 0,-1.266426 0.405679,-1.816739 1.061822,-1.816739 0.670253,0 1.075932,0.553841 1.075932,1.816739 -0.0035,1.284064 -0.405679,1.816739 -1.075932,1.816739 z M 26.21748,21.007144 v 4.677661 c 0,0.126995 -0.116413,0.232825 -0.232825,0.232825 h -0.47976 c -0.126996,0 -0.243408,-0.10583 -0.243408,-0.232825 v -4.677661 c 0,-0.126996 0.116412,-0.232825 0.243408,-0.232825 h 0.47976 c 0.112885,0 0.232825,0.105829 0.232825,0.232825 z m 0.169327,-2.028398 c 0,0.373931 -0.289267,0.670253 -0.649087,0.670253 -0.370404,0 -0.659671,-0.296322 -0.659671,-0.670253 0,-0.35982 0.28574,-0.65967 0.659671,-0.65967 0.35982,0 0.649087,0.296322 0.649087,0.65967 z m -1.735603,12.554899 v 3.647588 c 0,0.126995 -0.105829,0.232825 -0.232825,0.232825 h -0.490343 c -0.126995,0 -0.243408,-0.10583 -0.243408,-0.232825 v -3.435929 c 0,-0.490343 -0.169327,-0.712585 -0.606755,-0.712585 -0.649087,0 -1.146486,0.543258 -1.146486,1.255843 v 2.892671 c 0,0.126995 -0.105829,0.232825 -0.232824,0.232825 H 21.20822 c -0.126996,0 -0.243408,-0.10583 -0.243408,-0.232825 v -4.691772 c 0,-0.126995 0.116412,-0.222242 0.243408,-0.222242 h 0.317488 c 0.148161,0 0.222242,0.05291 0.253991,0.190493 l 0.105829,0.479761 c 0.448011,-0.522092 0.892495,-0.733751 1.456919,-0.733751 0.797248,0 1.308757,0.532675 1.308757,1.329923 z M 23.243672,25.018079 H 22.36176 c -0.380986,0 -0.55384,-0.0635 -0.55384,-0.285739 0,-0.116413 0.08466,-0.232825 0.190493,-0.328071 0.158744,0.04233 0.338654,0.0635 0.522092,0.0635 1.181762,0 1.936678,-0.712585 1.936678,-1.883764 0,-0.363348 -0.158744,-0.712585 -0.380986,-1.01949 l 0.349237,-0.04586 c 0.126996,-0.01058 0.211659,-0.08466 0.211659,-0.222242 v -0.275157 c 0,-0.137578 -0.08466,-0.243408 -0.232824,-0.243408 h -1.224094 c -0.222242,0 -0.437429,-0.05291 -0.65967,-0.05291 -1.139431,0 -1.915513,0.670253 -1.915513,1.862598 0,0.702002 0.296322,1.231149 0.765499,1.541582 -0.25399,0.232825 -0.469177,0.511509 -0.469177,0.881912 0,0.617338 0.543258,0.828997 1.171179,0.828997 h 1.030073 c 0.575007,0 0.797249,0.232825 0.797249,0.670253 0,0.469178 -0.511509,0.754917 -1.160596,0.754917 -0.500926,0 -1.054767,-0.09525 -1.139431,-0.65967 -0.02116,-0.137578 -0.105829,-0.211659 -0.232824,-0.222242 l -0.532675,-0.02117 c -0.126995,0 -0.232825,0.09525 -0.232825,0.232825 0.01058,1.150013 1.082988,1.488667 2.106006,1.488667 0.977158,0 2.116589,-0.448011 2.116589,-1.67916 0.0035,-0.88544 -0.610283,-1.386366 -1.580387,-1.386366 z m -0.712584,-3.573507 c 0.522091,0 0.945409,0.17991 0.945409,1.114737 0,0.955992 -0.458594,1.160596 -0.945409,1.160596 -0.511509,0 -0.934827,-0.169327 -0.934827,-1.160596 0,-0.94541 0.426845,-1.114737 0.934827,-1.114737 z M 7.3057589,14.745568 c 0,-0.645559 0.4339007,-1.245259 1.0547668,-1.411059 -0.028221,-0.112884 -0.04586,-0.243407 -0.04586,-0.391569 0,-0.769027 0.6526149,-1.435752 1.4745569,-1.435752 0.3174884,0 0.5785344,0.07761 0.7655004,0.186965 0.208131,-0.532675 0.821942,-0.948937 1.43928,-0.948937 0.317488,0 0.575007,0.08114 0.7655,0.197548 0.303376,-0.437428 0.825469,-1.3898933 1.128847,-1.7991005 0.271629,-0.3633477 0.53973,-0.4938707 1.231149,-0.5926448 0.691419,-0.098774 1.506305,-0.2187142 2.705706,-0.3174884 0.377458,-0.031749 0.677309,0.091719 0.874856,0.3386542 0.09172,0.1128848 1.058294,1.2382045 1.118264,1.3158127 0.201076,-0.5467854 1.943734,-5.8382573 1.979011,-5.9229209 0.03175,-0.084664 0.109357,-0.1340506 0.19402,-0.130523 0.08114,0.00353 0.151689,0.05997 0.172855,0.1446336 0.04233,0.1446336 1.650939,5.7006791 1.650939,5.7006791 0,0 1.986066,-0.321016 2.38469,-0.3351266 0.34571,-0.01411 0.409208,0.1516889 0.504454,0.4656496 0.130523,0.437428 0.698474,2.603404 0.698474,2.603404 0.01764,0.05292 0.03528,0.0635 0.07055,0.05292 0.426846,-0.134051 1.993121,-0.557368 2.109534,-0.582062 0.243407,-0.05292 0.4339,-0.0035 0.613811,0.165799 0.335126,0.313961 1.322868,1.315813 1.650939,1.657995 0.0635,0.06703 0.08819,0.148161 0.08819,0.222242 0,0.148161 -0.123468,0.268101 -0.296322,0.268101 -0.08466,0 -0.172855,-0.04233 -0.243408,-0.109357 -0.222242,-0.215187 -1.467502,-1.326396 -1.566276,-1.414587 -0.05997,-0.05644 -0.126995,-0.07055 -0.222242,-0.04939 -0.09172,0.02117 -2.416439,0.65967 -2.490519,0.677308 -0.169326,0.04233 -0.229296,-0.03528 -0.250463,-0.109357 -0.05291,-0.17991 -0.642032,-2.321192 -0.846636,-2.956169 -0.02117,-0.06703 -0.03528,-0.09525 -0.102301,-0.09525 -0.536203,0.01411 -2.26475,0.335126 -2.546962,0.352765 -0.04586,0.0035 -0.126996,-0.0071 -0.162272,-0.11994 L 21.963131,5.9052807 20.01587,11.510713 c 0,0 -1.679161,-2.1906691 -1.813212,-2.331775 -0.126995,-0.130523 -0.218714,-0.1622718 -0.37393,-0.1481612 -1.322868,0.1128847 -2.098951,0.23988 -2.779787,0.3845136 -0.278684,0.05997 -0.426845,0.1128847 -0.564423,0.3033777 -0.264574,0.3668759 -1.082988,1.8202659 -1.382838,2.2859159 -0.01764,0.02822 -0.04233,0.03175 -0.0635,0.03175 -0.02469,0 -0.04586,-0.01764 -0.05292,-0.02469 -0.144633,-0.158744 -0.687891,-0.518564 -1.234677,-0.370403 -0.536202,0.144634 -0.71964,0.638505 -0.71964,0.948938 0,0.112884 -0.05997,0.158744 -0.116412,0.158744 -0.03175,0 -0.0635,-0.01058 -0.09525,-0.05292 -0.08466,-0.116412 -0.335126,-0.409207 -0.800776,-0.409207 -0.5256188,0 -0.9277707,0.433901 -0.9277707,0.906605 0,0.451539 0.2010759,0.539731 0.2010759,0.64556 0,0.109357 -0.074081,0.126995 -0.1657994,0.126995 -0.4268454,0 -0.9066056,0.342182 -0.9066056,0.924244 0,0.275157 -0.2363524,0.455067 -0.4444836,0.455067 -0.3139607,-0.0035 -0.4691772,-0.253991 -0.4691772,-0.599701 z M 33.19164,16.766911 c -0.01411,0.07761 -0.09877,0.158744 -0.176383,0.17991 -0.105829,0.02822 -0.222242,-0.0071 -0.282212,-0.0388 -1.121792,-0.546786 -3.855719,-1.883764 -10.621748,-1.883764 -7.295176,0 -13.4191724,2.716289 -15.3029364,3.689919 -0.077608,0.0388 -0.1516889,0.05291 -0.2222419,0.05291 -0.17991,0 -0.3315989,-0.109357 -0.4092071,-0.257518 -0.1023018,-0.194021 -0.081136,-0.472705 0.2010759,-0.624394 h 0.00353 C 9.799806,16.128406 15.821501,14.354 22.040744,14.354 c 6.988271,0 10.565306,1.883764 11.020373,2.109533 0.130523,0.05997 0.151689,0.190493 0.130523,0.303378 z"
   id="path1"
   style="stroke-width:0.352765" />
</svg>
