<svg width="32" height="24" fill="none" xmlns="http://www.w3.org/2000/svg"><mask id="a" maskUnits="userSpaceOnUse" x="0" y="0" width="32" height="24"><path d="M28 0H4a4 4 0 0 0-4 4v16a4 4 0 0 0 4 4h24a4 4 0 0 0 4-4V4a4 4 0 0 0-4-4z" fill="#fff"/></mask><g mask="url(#a)"><path d="M28 0H4a4 4 0 0 0-4 4v16a4 4 0 0 0 4 4h24a4 4 0 0 0 4-4V4a4 4 0 0 0-4-4z" fill="#D01A21"/><path fill-rule="evenodd" clip-rule="evenodd" d="M11.647 9.164c-.193-.385-.526-.769-1.008-.85.009 0 .044-.009.07-.009.894-.114 1.28-.727 1.28-1.348 0-.53-.316-1.364-1.77-1.364H8.701c-.106 0-.202.082-.202.18v5.139c0 .098.096.18.202.18h.42c.105 0 .193-.082.193-.18V8.616h.412c.596 0 .868.343 1.07.694.245.425.412 1.013.64 1.65.035.107.114.132.21.132h.578c.158 0 .185-.09.132-.22-.307-.793-.605-1.504-.71-1.708zm-.49-2.1c0 .564-.404.906-1.053.906h-.789V6.271h.886c.63 0 .955.352.955.793zm4.341 2.058c0-1.503-.701-2.034-1.595-2.034-.964 0-1.613.776-1.613 2.01 0 1.34.675 2.034 1.876 2.034.508 0 .806-.073 1.087-.188.096-.04.149-.122.114-.22l-.097-.262c-.035-.09-.105-.154-.236-.114-.255.065-.491.139-.824.139-.79 0-1.052-.425-1.087-1.185h2.182c.106 0 .193-.081.193-.18zm-.815-.384h-1.56c.087-.849.482-1.053.806-1.053.544 0 .736.53.754 1.053zm3.312 1.659h-.727c-.316 0-.456-.049-.456-.22 0-.09.07-.18.158-.254.131.033.28.05.43.05.972 0 1.595-.548 1.595-1.447 0-.278-.132-.547-.316-.784l.29-.033c.104-.008.175-.065.175-.171v-.213c0-.106-.07-.188-.193-.188h-1.008c-.184 0-.36-.04-.544-.04-.938 0-1.578.514-1.578 1.43 0 .538.246.947.631 1.184-.21.18-.385.392-.385.678 0 .474.447.637.964.637h.85c.473 0 .658.18.658.515 0 .36-.421.58-.956.58-.412 0-.868-.074-.938-.506-.017-.107-.087-.164-.193-.172l-.438-.017c-.105 0-.193.074-.193.18.01.882.894 1.144 1.736 1.144.806 0 1.744-.343 1.744-1.29 0-.679-.508-1.063-1.306-1.063zm.193-1.887c0 .735-.377.89-.78.89-.42 0-.772-.13-.772-.89 0-.727.351-.858.772-.858.43 0 .78.139.78.858zm2.396-2.754a.52.52 0 0 0-.534-.506c-.307 0-.544.229-.544.506 0 .287.237.515.543.515a.522.522 0 0 0 .535-.515zm-.14 5.156V7.317c0-.098-.096-.18-.193-.18h-.394c-.105 0-.202.082-.202.18v3.595c0 .098.097.18.202.18h.394c.097 0 .193-.082.193-.18zm3.806-1.798c0-1.25-.649-2.026-1.7-2.026-1.052 0-1.71.768-1.71 2.026 0 1.267.658 2.018 1.71 2.018 1.06 0 1.7-.768 1.7-2.018zm-.833 0c0 .989-.333 1.398-.885 1.398-.543 0-.877-.409-.877-1.398 0-.972.333-1.397.877-1.397.552 0 .885.425.885 1.397zM10.991 16.462c.708-.201 1.006-.62 1.006-1.25 0-.83-.586-1.402-1.6-1.402H8.7c-.105 0-.201.084-.201.185v5.279c0 .1.096.184.201.184h1.783c1.102 0 1.766-.579 1.766-1.586 0-.73-.42-1.317-1.259-1.41zm.192-1.14c0 .52-.334.847-.994.847h-.87v-1.687h.932c.624 0 .932.302.932.84zm.211 2.466c0 .613-.36.982-.967.982H9.318v-1.972h.941c.714 0 1.135.42 1.135.99zm4.335 1.486l-.053-.244c-.052-.252-.043-.478-.043-.688v-1.46c0-.68-.115-1.536-1.514-1.536-.378 0-.81.092-1.064.16-.106.025-.15.109-.123.218l.07.31c.026.11.114.168.229.135.237-.06.501-.143.844-.143.625 0 .765.226.765.713v.202l-.967.058c-.713.05-1.32.403-1.32 1.301 0 .755.432 1.2 1.135 1.2.484 0 .941-.168 1.214-.58l.062.37c.017.118.097.168.202.168h.405c.115 0 .176-.075.158-.184zm-.889-1.159c0 .31-.36.773-.923.773-.325 0-.554-.185-.554-.588 0-.63.387-.78.924-.797l.553-.017v.63zm4.353-1.72c0-.63-.422-1.049-1.082-1.049-.466 0-.835.168-1.205.58l-.088-.378c-.027-.11-.088-.152-.211-.152h-.264c-.106 0-.202.076-.202.177v3.7c0 .101.096.185.202.185h.405a.191.191 0 0 0 .193-.184V16.99c0-.562.414-.99.95-.99.36 0 .502.176.502.562v2.71c0 .101.096.185.202.185H19a.191.191 0 0 0 .193-.184v-2.879zm3.53 2.845l-1.443-2.098 1.178-1.536c.07-.092.027-.21-.097-.21H21.8a.284.284 0 0 0-.255.143l-1.065 1.553v-3.407c0-.11-.088-.185-.193-.185h-.397c-.105 0-.193.075-.193.185v5.589c0 .1.088.184.193.184h.397a.19.19 0 0 0 .193-.184v-2.006l1.276 2.03c.061.101.14.16.237.16h.625c.123 0 .167-.126.105-.218z" fill="#fff"/></g></svg>