<?xml version="1.0" encoding="utf-8"?>
<!-- Generator: Adobe Illustrator 27.7.0, SVG Export Plug-In . SVG Version: 6.00 Build 0)  -->
<svg version="1.1" id="Laag_1" xmlns="http://www.w3.org/2000/svg" xmlns:xlink="http://www.w3.org/1999/xlink" x="0px" y="0px"
	 viewBox="0 0 113.39 113.39" style="enable-background:new 0 0 113.39 113.39;" xml:space="preserve">
<style type="text/css">
	.st0{fill:#CA031A;}
	.st1{fill:#FFFFFF;}
</style>
<rect class="st0" width="113.39" height="113.39"/>
<path class="st1" d="M57.31,66.22c0-5.55-2.41-7.51-5.49-7.51c-3.32,0-5.55,2.86-5.55,7.42c0,4.95,2.32,7.51,6.45,7.51
	c1.75,0,2.77-0.27,3.74-0.69c0.33-0.15,0.51-0.45,0.39-0.81l-0.33-0.96c-0.12-0.33-0.36-0.57-0.81-0.42
	c-0.87,0.24-1.69,0.51-2.83,0.51c-2.71,0-3.62-1.57-3.74-4.37h7.51C57,66.88,57.31,66.58,57.31,66.22z M49.14,64.8
	c0.3-3.13,1.66-3.89,2.77-3.89c1.87,0,2.53,1.96,2.59,3.89H49.14z M44.06,66.37c-0.66-1.42-1.81-2.83-3.47-3.14
	c0.03,0,0.15-0.03,0.24-0.03c3.07-0.42,4.4-2.68,4.4-4.97c0-1.96-1.09-5.03-6.09-5.03h-5.22c-0.36,0-0.69,0.3-0.69,0.66v18.96
	c0,0.36,0.33,0.66,0.69,0.66h1.45c0.36,0,0.66-0.3,0.66-0.66v-8.47h1.42c2.05,0,2.98,1.27,3.68,2.56c0.84,1.57,1.42,3.74,2.2,6.09
	c0.12,0.39,0.39,0.48,0.72,0.48h1.99c0.54,0,0.63-0.33,0.45-0.81C45.45,69.74,44.42,67.12,44.06,66.37z M38.75,61.96h-2.71V55.7
	h3.04c2.17,0,3.29,1.3,3.29,2.92C42.37,60.7,40.99,61.96,38.75,61.96z M41.83,89.63c2.44-0.72,3.47-2.23,3.47-4.49
	c0-2.98-2.02-5.03-5.52-5.03h-5.85c-0.36,0-0.69,0.3-0.69,0.66v18.96c0,0.36,0.33,0.66,0.69,0.66h6.15c3.8,0,6.09-2.08,6.09-5.7
	C46.17,92.07,44.72,89.96,41.83,89.63z M36.04,82.52h3.2c2.14,0,3.2,1.09,3.2,3.01c0,1.87-1.15,3.04-3.41,3.04h-2.98V82.52z
	 M39.84,97.92h-3.8v-7.08h3.23c2.44,0,3.89,1.51,3.89,3.56C43.15,96.6,41.92,97.92,39.84,97.92z M57.82,98.86
	c-0.18-0.9-0.15-1.72-0.15-2.47v-5.25c0-2.44-0.39-5.52-5.19-5.52c-1.3,0-2.77,0.33-3.65,0.57c-0.36,0.09-0.51,0.39-0.42,0.78
	l0.24,1.11c0.09,0.39,0.39,0.6,0.79,0.48c0.81-0.21,1.72-0.51,2.89-0.51c2.14,0,2.62,0.81,2.62,2.56v0.72l-3.31,0.21
	c-2.44,0.18-4.52,1.45-4.52,4.67c0,2.71,1.48,4.31,3.89,4.31c1.66,0,3.23-0.6,4.16-2.08l0.21,1.33c0.06,0.42,0.33,0.6,0.69,0.6h1.39
	c0.39,0,0.6-0.27,0.54-0.66L57.82,98.86z M54.96,95.57c0,1.12-1.23,2.77-3.16,2.77c-1.12,0-1.9-0.66-1.9-2.11
	c0-2.26,1.33-2.8,3.17-2.86l1.9-0.06V95.57z M81.97,99.61c0.21,0.33,0.06,0.78-0.36,0.78h-2.14c-0.33,0-0.6-0.21-0.81-0.57
	l-4.37-7.3v7.21c0,0.36-0.3,0.66-0.66,0.66h-1.36c-0.36,0-0.66-0.3-0.66-0.66V79.65c0-0.39,0.3-0.66,0.66-0.66h1.36
	c0.36,0,0.66,0.27,0.66,0.66v12.24l3.65-5.58c0.18-0.3,0.45-0.51,0.88-0.51h1.93c0.42,0,0.57,0.42,0.33,0.75l-4.04,5.52L81.97,99.61
	z M81.56,58.71c-3.62,0-5.88,2.83-5.88,7.48c0,4.67,2.26,7.45,5.88,7.45c3.65,0,5.85-2.83,5.85-7.45
	C87.4,61.57,85.17,58.71,81.56,58.71z M81.5,71.34c-1.87,0-3.01-1.51-3.01-5.15c0-3.59,1.15-5.15,3.01-5.15
	c1.9,0,3.05,1.57,3.05,5.15C84.54,69.83,83.4,71.34,81.5,71.34z M74.32,59.55v13.26c0,0.36-0.33,0.66-0.66,0.66h-1.36
	c-0.36,0-0.69-0.3-0.69-0.66V59.55c0-0.36,0.33-0.66,0.69-0.66h1.36C73.98,58.89,74.32,59.19,74.32,59.55z M74.8,53.8
	c0,1.06-0.82,1.9-1.84,1.9c-1.05,0-1.87-0.84-1.87-1.9c0-1.02,0.81-1.87,1.87-1.87C73.98,51.93,74.8,52.77,74.8,53.8z M69.88,89.39
	v10.34c0,0.36-0.3,0.66-0.66,0.66h-1.39c-0.36,0-0.69-0.3-0.69-0.66v-9.74c0-1.39-0.48-2.02-1.72-2.02c-1.84,0-3.25,1.54-3.25,3.56
	v8.2c0,0.36-0.3,0.66-0.66,0.66h-1.39c-0.36,0-0.69-0.3-0.69-0.66v-13.3c0-0.36,0.33-0.63,0.69-0.63h0.9c0.42,0,0.63,0.15,0.72,0.54
	l0.3,1.36c1.27-1.48,2.53-2.08,4.13-2.08C68.43,85.62,69.88,87.13,69.88,89.39z M65.89,70.92h-2.5c-1.08,0-1.57-0.18-1.57-0.81
	c0-0.33,0.24-0.66,0.54-0.93c0.45,0.12,0.96,0.18,1.48,0.18c3.35,0,5.49-2.02,5.49-5.34c0-1.03-0.45-2.02-1.08-2.89L69.24,61
	c0.36-0.03,0.6-0.24,0.6-0.63v-0.78c0-0.39-0.24-0.69-0.66-0.69h-3.47c-0.63,0-1.24-0.15-1.87-0.15c-3.23,0-5.43,1.9-5.43,5.28
	c0,1.99,0.84,3.49,2.17,4.37c-0.72,0.66-1.33,1.45-1.33,2.5c0,1.75,1.54,2.35,3.32,2.35h2.92c1.63,0,2.26,0.66,2.26,1.9
	c0,1.33-1.45,2.14-3.29,2.14c-1.42,0-2.99-0.27-3.23-1.87c-0.06-0.39-0.3-0.6-0.66-0.63l-1.51-0.06c-0.36,0-0.66,0.27-0.66,0.66
	c0.03,3.26,3.07,4.22,5.97,4.22c2.77,0,6-1.27,6-4.76C70.38,72.34,68.64,70.92,65.89,70.92z M63.87,60.79
	c1.48,0,2.68,0.51,2.68,3.16c0,2.71-1.3,3.29-2.68,3.29c-1.45,0-2.65-0.48-2.65-3.29C61.22,61.27,62.43,60.79,63.87,60.79z
	 M20.71,41.8c0-1.83,1.23-3.53,2.99-4c-0.08-0.32-0.13-0.69-0.13-1.11c0-2.18,1.85-4.07,4.18-4.07c0.9,0,1.64,0.22,2.17,0.53
	c0.59-1.51,2.33-2.69,4.08-2.69c0.9,0,1.63,0.23,2.17,0.56c0.86-1.24,2.34-3.94,3.2-5.1c0.77-1.03,1.53-1.4,3.49-1.68
	c1.96-0.28,4.27-0.62,7.67-0.9c1.07-0.09,1.92,0.26,2.48,0.96c0.26,0.32,3,3.51,3.17,3.73c0.57-1.55,5.51-16.55,5.61-16.79
	c0.09-0.24,0.31-0.38,0.55-0.37c0.23,0.01,0.43,0.17,0.49,0.41c0.12,0.41,4.68,16.16,4.68,16.16s5.63-0.91,6.76-0.95
	c0.98-0.04,1.16,0.43,1.43,1.32c0.37,1.24,1.98,7.38,1.98,7.38c0.05,0.15,0.1,0.18,0.2,0.15c1.21-0.38,5.65-1.58,5.98-1.65
	c0.69-0.15,1.23-0.01,1.74,0.47c0.95,0.89,3.75,3.73,4.68,4.7c0.18,0.19,0.25,0.42,0.25,0.63c0,0.42-0.35,0.76-0.84,0.76
	c-0.24,0-0.49-0.12-0.69-0.31c-0.63-0.61-4.16-3.76-4.44-4.01c-0.17-0.16-0.36-0.2-0.63-0.14c-0.26,0.06-6.85,1.87-7.06,1.92
	c-0.48,0.12-0.65-0.1-0.71-0.31c-0.15-0.51-1.82-6.58-2.4-8.38c-0.06-0.19-0.1-0.27-0.29-0.27c-1.52,0.04-6.42,0.95-7.22,1
	c-0.13,0.01-0.36-0.02-0.46-0.34l-3.53-12.67l-5.52,15.89c0,0-4.76-6.21-5.14-6.61c-0.36-0.37-0.62-0.46-1.06-0.42
	c-3.75,0.32-5.95,0.68-7.88,1.09c-0.79,0.17-1.21,0.32-1.6,0.86c-0.75,1.04-3.07,5.16-3.92,6.48c-0.05,0.08-0.12,0.09-0.18,0.09
	c-0.07,0-0.13-0.05-0.15-0.07c-0.41-0.45-1.95-1.47-3.5-1.05c-1.52,0.41-2.04,1.81-2.04,2.69c0,0.32-0.17,0.45-0.33,0.45
	c-0.09,0-0.18-0.03-0.27-0.15c-0.24-0.33-0.95-1.16-2.27-1.16c-1.49,0-2.63,1.23-2.63,2.57c0,1.28,0.57,1.53,0.57,1.83
	c0,0.31-0.21,0.36-0.47,0.36c-1.21,0-2.57,0.97-2.57,2.62c0,0.78-0.67,1.29-1.26,1.29C21.15,43.49,20.71,42.78,20.71,41.8z
	 M94.09,47.53c-0.04,0.22-0.28,0.45-0.5,0.51c-0.3,0.08-0.63-0.02-0.8-0.11c-3.18-1.55-10.93-5.34-30.11-5.34
	c-20.68,0-38.04,7.7-43.38,10.46c-0.22,0.11-0.43,0.15-0.63,0.15c-0.51,0-0.94-0.31-1.16-0.73c-0.29-0.55-0.23-1.34,0.57-1.77
	l0.01,0c9.69-4.98,26.76-10.01,44.39-10.01c19.81,0,29.95,5.34,31.24,5.98C94.09,46.84,94.15,47.21,94.09,47.53z"/>
</svg>
