<?xml version="1.0" encoding="UTF-8" standalone="no"?>
<svg
   width="640"
   height="360"
   viewBox="0 0 640 360"
   version="1.1"
   id="svg842"
   sodipodi:docname="provider-abn-amro-white-640x360.svg"
   inkscape:version="1.1.2 (b8e25be8, 2022-02-05)"
   xmlns:inkscape="http://www.inkscape.org/namespaces/inkscape"
   xmlns:sodipodi="http://sodipodi.sourceforge.net/DTD/sodipodi-0.dtd"
   xmlns="http://www.w3.org/2000/svg"
   xmlns:svg="http://www.w3.org/2000/svg">
  <defs
     id="defs846" />
  <sodipodi:namedview
     id="namedview844"
     pagecolor="#ffffff"
     bordercolor="#666666"
     borderopacity="1.0"
     inkscape:pageshadow="2"
     inkscape:pageopacity="0.0"
     inkscape:pagecheckerboard="0"
     showgrid="false"
     inkscape:zoom="1.9296875"
     inkscape:cx="240.45344"
     inkscape:cy="185.26316"
     inkscape:window-width="2031"
     inkscape:window-height="995"
     inkscape:window-x="2585"
     inkscape:window-y="404"
     inkscape:window-maximized="0"
     inkscape:current-layer="g840" />
  <g
     fill="none"
     fill-rule="evenodd"
     transform="translate(80 122)"
     id="g840">
    <path
       fill="#979898"
       d="M461.886792 58.8679245C480 58.8679245 480 45.4578382 480 31.7016307 480 17.7948745 480 4.52830189 461.886792 4.52830189 443.773585 4.52830189 443.773585 17.7948745 443.773585 31.7016307 443.773585 45.4578382 443.773585 58.8679245 461.886792 58.8679245M461.889527 49.8113208C453.860281 49.8113208 452.830189 44.3425597 452.830189 31.7053767 452.830189 19.056308 453.860281 13.5849057 461.889527 13.5849057 469.913304 13.5849057 470.943396 19.056308 470.943396 31.7053767 470.943396 44.3425597 469.913304 49.8113208 461.889527 49.8113208M410.329244 36.3770475L413.384338 36.3770475C422.490547 36.3770475 421.861958 41.8696145 421.861958 48.3437762 421.861958 51.8731541 421.545392 55.5566788 423.105504 58.8679245L434.716981 58.8679245C433.617329 56.6109841 433.390128 46.3834955 433.390128 42.9108319 433.390128 33.1283329 425.701652 32.5335593 423.105504 32.2296285L423.105504 32.0783902C430.798524 30.8772093 433.617329 25.6798477 433.617329 18.7490627 433.617329 9.49008079 428.443209 4.52830189 420.371521 4.52830189L398.490566 4.52830189 398.490566 58.8679245 410.329244 58.8679245 410.329244 36.3770475zM410.329244 12.8769457L415.594245 12.8769457C419.347602 12.8769457 421.62264 14.8401349 421.62264 20.0287712 421.62264 23.4898011 420.282155 28.0153157 415.594245 28.0153157L410.329244 28.0153157 410.329244 12.8769457z"
       id="path824"
       style="fill:#ffffff" />
    <polyline
       fill="#979898"
       points="346.293 58.868 346.293 16.95 356.504 58.868 367.478 58.868 378.072 16.95 378.223 58.868 389.434 58.868 389.434 4.528 371.517 4.528 362.375 41.489 353.605 4.528 335.094 4.528 335.094 58.868"
       id="polyline826"
       style="fill:#ffffff" />
    <path
       fill="#979898"
       d="M308.454952,38.4725701 L297.493645,38.4725701 L302.753779,14.989919 L302.905202,14.989919 L308.454952,38.4725701 Z M292.099729,58.8679245 L295.214939,46.8313935 L310.896842,46.8313935 L313.937076,58.8679245 L326.037736,58.8679245 L311.121772,4.52830189 L295.982349,4.52830189 L280.754717,58.8679245 L292.099729,58.8679245 Z"
       id="path828"
       style="fill:#ffffff" />
    <polyline
       fill="#979898"
       points="264.895 36.226 271.698 29.424 264.895 22.642 258.113 29.424"
       id="polyline830"
       style="fill:#ffffff" />
    <polyline
       fill="#979898"
       points="218.967 58.868 218.967 19.129 219.108 19.129 234.008 58.868 249.057 58.868 249.057 4.528 238.395 4.528 238.395 42.163 238.252 42.163 223.726 4.528 208.302 4.528 208.302 58.868"
       id="polyline832"
       style="fill:#ffffff" />
    <path
       fill="#979898"
       d="M182.756136 58.8679245C187.488339 58.8679245 199.245283 58.2673341 199.245283 44.5031965 199.245283 37.0488944 197.172713 31.8486244 189.26095 30.7186999 195.334396 29.3619181 198.365405 24.8465829 198.365405 18.6021871 198.365405 7.00919134 191.333521 4.52830189 182.834697 4.52830189L163.018868 4.52830189 163.018868 58.8679245 182.756136 58.8679245zM174.174467 12.8740373L181.056372 12.8740373C184.828707 12.8740373 187.488339 15.8173669 187.488339 19.8019138 187.488339 25.0792572 184.094523 26.7326988 181.64629 26.7326988L174.174467 26.7326988 174.174467 12.8740373zM174.174467 35.0857052L180.680709 35.0857052C186.308502 35.0857052 188.081114 38.0290348 188.081114 42.8512091 188.081114 50.4451158 182.756136 50.5236434 180.395035 50.5236434L174.174467 50.5236434 174.174467 35.0857052zM136.387818 38.4725701L125.424375 38.4725701 130.6723 14.989919 130.820812 14.989919 136.387818 38.4725701zM120.017645 58.8679245L123.145226 46.8313935 138.81842 46.8313935 141.868069 58.8679245 153.962264 58.8679245 139.043395 4.52830189 123.902492 4.52830189 108.679245 58.8679245 120.017645 58.8679245z"
       id="path834"
       style="fill:#ffffff" />
    <polyline
       fill="#178C82"
       points="42.909 117.736 0 73.681 0 0 86.038 0 86.038 73.459 42.909 29.153 42.909 117.736"
       id="polyline838"
       style="fill:#ffffff;fill-opacity:1" />
  </g>
</svg>
