<svg height="360" viewBox="0 0 640 360" width="640" xmlns="http://www.w3.org/2000/svg"><g fill="#fff" fill-rule="evenodd" transform="translate(80 122)"><path d="m461.886792 58.8679245c18.113208 0 18.113208-13.4100863 18.113208-27.1662938 0-13.9067562 0-27.17332881-18.113208-27.17332881-18.113207 0-18.113207 13.26657261-18.113207 27.17332881 0 13.7562075 0 27.1662938 18.113207 27.1662938m.002735-9.0566037c-8.029246 0-9.059338-5.4687611-9.059338-18.1059441 0-12.6490687 1.030092-18.120471 9.059338-18.120471 8.023777 0 9.053869 5.4714023 9.053869 18.120471 0 12.637183-1.030092 18.1059441-9.053869 18.1059441m-51.560283-13.4342733h3.055094c9.106209 0 8.47762 5.492567 8.47762 11.9667287 0 3.5293779-.316566 7.2129026 1.243546 10.5241483h11.611477c-1.099652-2.2569404-1.326853-12.484429-1.326853-15.9570926 0-9.782499-7.688476-10.3772726-10.284624-10.6812034v-.1512383c7.69302-1.2011809 10.511825-6.3985425 10.511825-13.3293275 0-9.25898191-5.17412-14.22076081-13.245808-14.22076081h-21.880955v54.33962261h11.838678zm0-23.5001018h5.265001c3.753357 0 6.028395 1.9631892 6.028395 7.1518255 0 3.4610299-1.340485 7.9865445-6.028395 7.9865445h-5.265001z"/><path d="m346.293 58.868v-41.918l10.211 41.918h10.974l10.594-41.918.151 41.918h11.211v-54.34h-17.917l-9.142 36.961-8.77-36.961h-18.511v54.34"/><path d="m308.454952 38.4725701h-10.961307l5.260134-23.4826511h.151423zm-16.355223 20.3953544 3.11521-12.036531h15.681903l3.040234 12.036531h12.10066l-14.915964-54.33962261h-15.139423l-15.227632 54.33962261z"/><path d="m264.895 36.226 6.803-6.802-6.803-6.782-6.782 6.782"/><path d="m218.967 58.868v-39.739h.141l14.9 39.739h15.049v-54.34h-10.662v37.635h-.143l-14.526-37.635h-15.424v54.34"/><path d="m182.756136 58.8679245c4.732203 0 16.489147-.6005904 16.489147-14.364728 0-7.4543021-2.07257-12.6545721-9.984333-13.7844966 6.073446-1.3567818 9.104455-5.872117 9.104455-12.1165128 0-11.59299576-7.031884-14.07388521-15.530708-14.07388521h-19.815829v54.33962261zm-8.581669-45.9938872h6.881905c3.772335 0 6.431967 2.9433296 6.431967 6.9278765 0 5.2773434-3.393816 6.930785-5.842049 6.930785h-7.471823zm0 22.2116679h6.506242c5.627793 0 7.400405 2.9433296 7.400405 7.7655039 0 7.5939067-5.324978 7.6724343-7.686079 7.6724343h-6.220568zm-37.786649 3.3868649h-10.963443l5.247925-23.4826511h.148512zm-16.370173 20.3953544 3.127581-12.036531h15.673194l3.049649 12.036531h12.094195l-14.918869-54.33962261h-15.140903l-15.223247 54.33962261z"/><path d="m42.909 117.736-42.909-44.055v-73.681h86.038v73.459l-43.129-44.306z"/></g></svg>