<svg xmlns="http://www.w3.org/2000/svg" width="640" height="360"><g fill="none" fill-rule="evenodd"><path d="M308.947 241.8c-.48.451-.772 1.383-.772 2.283 0 1.732.673 2.794 2.022 2.794 1.254 0 2.092-1.062 2.092-2.604v-3.086h-1.477c-.806 0-1.351.13-1.865.613zm153.803 0c-.485.451-.77 1.383-.77 2.283 0 1.732.677 2.794 2.023 2.794 1.252 0 2.09-1.062 2.09-2.604v-3.086h-1.475c-.806 0-1.356.13-1.868.613zm-79.215-13.304h-2.447v8.423h2.447c2.118 0 2.603-1.703 2.603-4.21.003-2.507-.482-4.213-2.603-4.213zm12.203 5.817c-.673 0-1.124.318-1.445.707-.514.608-.676 1.962-.676 4.208h4.242c0-2.246-.128-3.6-.642-4.208-.32-.389-.8-.707-1.479-.707zm28.589 0c-.608 0-1.122.256-1.448.707-.608.835-.673 2.57-.673 5.56 0 2.989.063 4.69.673 5.524.326.452.838.707 1.448.707.613 0 1.158-.255 1.48-.707.61-.834.638-2.538.638-5.525 0-2.987-.028-4.724-.639-5.559-.318-.451-.863-.707-1.479-.707zm-75.48 0c-.608 0-1.124.256-1.443.707-.61.835-.678 2.57-.678 5.56 0 2.989.065 4.69.678 5.524.319.452.833.707 1.443.707.61 0 1.158-.255 1.482-.707.608-.834.639-2.538.639-5.525 0-2.987-.031-4.724-.64-5.559-.323-.451-.87-.707-1.481-.707zm70.307-72.49c-1.852-1.375-5.168-2.077-9.856-2.077H393.92V177.7h16.244c4.015 0 7.013-.754 8.901-2.24 1.85-1.456 2.752-3.66 2.752-6.736-.002-3.261-.894-5.583-2.663-6.9zm81.571 72.49c-.675 0-1.13.318-1.448.707-.516.608-.675 1.962-.675 4.208h4.239c0-2.246-.128-3.6-.642-4.208a1.85 1.85 0 0 0-1.474-.707zM459.602 185.053h17.319l-8.82-22.39zM272.676 241.8c-.48.451-.77 1.383-.77 2.283 0 1.732.673 2.794 2.027 2.794 1.252 0 2.087-1.062 2.087-2.604v-3.086h-1.48c-.803 0-1.348.13-1.864.613Z"/><path fill="#636666" d="M250.225 228.496h3.856v20.405h2.762v-20.405h3.825v-2.471h-10.443zM264.1 234.026v-1.771h-2.503V248.9h2.603v-11.345c0-1.897 1.255-3.053 3.02-3.053h.773V232c-1.06 0-1.96.287-2.731.832-.423.292-.903.744-1.161 1.195Z"/><path fill="#636666" fill-rule="nonzero" d="M274.056 232.002c-1.284 0-2.473.482-3.212 1.218-.996 1-1.286 2.251-1.286 3.537h2.601c0-.902.162-1.447.613-1.93.321-.32.707-.545 1.284-.545 1.286 0 1.961.835 1.961 2.379v2.635h-1.703c-1.737 0-2.697.38-3.535 1.121-.962.872-1.476 2.22-1.476 3.76 0 1.737.417 2.99 1.061 3.73.77.866 1.639 1.25 2.862 1.25.9 0 1.448-.222 1.96-.608.32-.259.706-.679.962-1.125v1.477h2.475v-12.084c0-1.7-.513-2.827-1.317-3.66-.777-.774-1.899-1.155-3.25-1.155Zm1.964 12.271c0 1.542-.835 2.604-2.087 2.604-1.354 0-2.027-1.062-2.027-2.794 0-.9.29-1.832.77-2.283.516-.483 1.061-.61 1.865-.61h1.479v3.083Z"/><path fill="#636666" d="M287.485 232.002c-.673 0-1.286.19-1.797.514-.355.219-.806.641-1.03 1.027v-1.286h-2.508v16.646h2.604v-12.242c0-1.544.869-2.317 1.959-2.317 1.093 0 1.993.773 1.993 2.317v12.24h2.601v-12.24c0-1.8-.32-2.703-.997-3.441-.704-.803-1.573-1.218-2.825-1.218zm13.012 7.808-2.118-1.062c-.676-.321-1.158-.707-1.382-1.09-.194-.358-.29-.739-.29-1.224 0-.61.193-1.19.61-1.607.355-.355.838-.545 1.446-.545.516 0 1.03.161 1.414.579.417.451.613 1.028.613 1.99h2.564c0-1.635-.48-2.822-1.349-3.662-.803-.804-1.928-1.185-3.245-1.185-1.283 0-2.442.415-3.277 1.253-.834.832-1.38 1.925-1.38 3.373 0 .868.16 1.575.514 2.183.418.707 1.187 1.385 2.28 1.928l2.153 1.093c.675.352 1.155.707 1.479 1.187.287.451.417.934.417 1.508 0 .68-.258 1.286-.644 1.677-.418.415-.9.605-1.576.605-.514 0-1.093-.19-1.476-.576-.483-.514-.707-1.158-.707-2.022h-2.57c0 1.508.449 2.664 1.414 3.657.803.838 1.99 1.287 3.342 1.287 1.348 0 2.504-.384 3.404-1.315.835-.835 1.414-1.996 1.414-3.472 0-1.06-.258-1.993-.707-2.664-.477-.775-1.216-1.351-2.343-1.896z"/><path fill="#636666" fill-rule="nonzero" d="M310.327 232.002c-1.284 0-2.473.482-3.211 1.218-.997 1-1.286 2.251-1.286 3.537h2.603c0-.902.162-1.447.613-1.93.318-.32.707-.545 1.284-.545 1.286 0 1.961.835 1.961 2.379v2.635h-1.7c-1.74 0-2.703.38-3.538 1.121-.963.872-1.48 2.22-1.48 3.76 0 1.737.42 2.99 1.063 3.73.77.866 1.638 1.25 2.861 1.25.898 0 1.448-.222 1.96-.608a4.33 4.33 0 0 0 .965-1.125v1.477h2.473v-12.084c0-1.7-.514-2.827-1.318-3.66-.777-.774-1.901-1.155-3.25-1.155Zm1.962 12.271c0 1.542-.835 2.604-2.092 2.604-1.352 0-2.022-1.062-2.022-2.794 0-.9.292-1.832.772-2.283.516-.483 1.062-.61 1.865-.61h1.477v3.083Z"/><path fill="#636666" d="M322.635 234.313c.639 0 1.09.224 1.445.642.449.548.517 1.25.517 1.925h2.566c-.036-1.377-.323-2.794-1.32-3.79-.834-.835-1.893-1.09-3.242-1.09-1.414 0-2.669.414-3.506 1.54-1.028 1.318-1.216 3.663-1.216 7.037 0 3.375.188 5.718 1.216 7.035.835 1.127 2.092 1.542 3.506 1.542 1.351 0 2.507-.352 3.274-1.156.871-.868 1.252-2.152 1.288-3.725h-2.566c0 .772-.1 1.414-.55 1.928-.356.383-.804.605-1.412.605-.61 0-1.158-.256-1.48-.707-.61-.835-.675-2.538-.675-5.525 0-2.987.063-4.724.676-5.56.318-.445.866-.701 1.479-.701zm10.63 9.736v-9.767h2.567v-2.025h-2.567v-4.562h-2.6v4.562h-1.897v2.025h1.896v9.863c0 1.738.514 2.956 1.446 3.725 1.059.903 2.342 1.033 3.824 1.033v-2.345c-1.737-.002-2.669-.743-2.669-2.51zM338.183 226.281h3.05v3.018h-3.05zM338.407 232.547h2.601v16.357h-2.601z"/><path fill="#636666" fill-rule="nonzero" d="M348.847 232.002c-1.474 0-2.664.415-3.5 1.541-1.031 1.318-1.224 3.663-1.224 7.036 0 3.376.193 5.718 1.223 7.036.835 1.127 2.024 1.542 3.501 1.542 1.482 0 2.697-.415 3.535-1.542 1.025-1.318 1.19-3.66 1.19-7.036 0-3.373-.165-5.718-1.19-7.036-.838-1.126-2.053-1.541-3.535-1.541Zm1.482 14.102c-.324.452-.872.707-1.482.707-.608 0-1.124-.255-1.443-.707-.61-.834-.678-2.538-.678-5.525 0-2.987.065-4.724.678-5.559.319-.451.833-.707 1.443-.707.61 0 1.158.256 1.482.707.608.835.639 2.57.639 5.56 0 2.989-.031 4.69-.64 5.524Z"/><path fill="#636666" d="M362.047 232.002c-.67 0-1.278.19-1.795.514-.355.219-.803.641-1.03 1.027v-1.286h-2.505v16.646h2.601v-12.242c0-1.544.869-2.317 1.962-2.317s1.993.773 1.993 2.317v12.24h2.604v-12.24c0-1.8-.327-2.703-.997-3.441-.707-.803-1.576-1.218-2.833-1.218Z"/><path fill="#636666" fill-rule="nonzero" d="M383.47 226.025h-5.142v22.878h2.762v-9.51h2.38c3.79 0 5.43-1.994 5.43-6.718 0-5.077-1.96-6.65-5.43-6.65zm.065 10.892h-2.447v-8.421h2.447c2.118 0 2.603 1.706 2.603 4.21.003 2.507-.482 4.21-2.603 4.21zm15.48-3.632c-.866-.931-1.923-1.283-3.277-1.283-1.315 0-2.408.38-3.276 1.283-1.284 1.318-1.448 3.79-1.448 7.294 0 3.504.193 5.977 1.479 7.291.866.903 1.831 1.287 3.28 1.287 1.317 0 2.506-.353 3.304-1.219.903-.965 1.292-2.188 1.32-3.665h-2.57c0 .775-.224 1.477-.578 1.9a1.91 1.91 0 0 1-1.474.638c-.678 0-1.13-.318-1.448-.707-.58-.735-.707-2.28-.707-4.917h6.845c0-3.564-.068-6.391-1.45-7.902zm-5.395 5.943c0-2.246.162-3.6.676-4.208.32-.386.772-.707 1.445-.707.678 0 1.156.318 1.479.707.514.608.642 1.962.642 4.208h-4.242z"/><path fill="#636666" d="M406.02 234.026v-1.771h-2.503V248.9h2.601v-11.345c0-1.897 1.25-3.053 3.016-3.053h.775V232c-1.06 0-1.962.287-2.734.832-.418.292-.9.744-1.156 1.195zm6.842-3.376v1.605h-1.897v2.024h1.897v14.62h2.603v-14.62h2.57v-2.024h-2.57v-1.508c0-1.675.866-2.507 2.57-2.507v-2.345c-1.414 0-2.7.19-3.725 1.062-.934.766-1.448 1.959-1.448 3.693z"/><path fill="#636666" fill-rule="nonzero" d="M424.327 232.002c-1.48 0-2.666.415-3.5 1.541-1.031 1.318-1.224 3.663-1.224 7.036 0 3.376.193 5.718 1.223 7.036.832 1.127 2.02 1.542 3.501 1.542 1.482 0 2.7-.415 3.532-1.542 1.033-1.318 1.192-3.66 1.192-7.036 0-3.373-.161-5.718-1.192-7.036-.832-1.126-2.05-1.541-3.532-1.541Zm1.482 14.102c-.321.452-.866.707-1.48.707-.607 0-1.121-.255-1.447-.707-.608-.834-.673-2.538-.673-5.525 0-2.987.062-4.724.673-5.559.326-.451.837-.707 1.448-.707.613 0 1.158.256 1.479.707.61.835.639 2.57.639 5.56 0 2.989-.029 4.69-.64 5.524Z"/><path fill="#636666" d="M434.707 234.026v-1.771H432.2V248.9h2.6v-11.345c0-1.897 1.253-3.053 3.022-3.053h.772V232c-1.06 0-1.96.287-2.731.832-.418.292-.9.744-1.156 1.195zm17.956-2.024c-.608 0-1.38.19-1.897.514-.483.287-.965.77-1.317 1.218-.676-1.028-1.9-1.732-3.183-1.732-.673 0-1.283.19-1.797.514-.352.219-.804.641-1.03 1.027v-1.286h-2.502v16.646h2.598v-12.242c0-1.544.868-2.317 1.959-2.317 1.096 0 1.996.773 1.996 2.317v12.24h2.6v-12.24c0-1.544.87-2.317 1.962-2.317 1.09 0 1.96.773 1.96 2.317v12.24h2.603v-12.24c0-1.8-.287-2.703-.965-3.441-.705-.803-1.537-1.218-2.987-1.218z"/><path fill="#636666" fill-rule="nonzero" d="M464.13 232.002c-1.283 0-2.473.482-3.208 1.218-.994 1-1.286 2.251-1.286 3.537h2.603c0-.902.162-1.447.608-1.93.32-.32.707-.545 1.283-.545 1.287 0 1.962.835 1.962 2.379v2.635h-1.7c-1.735 0-2.7.38-3.533 1.121-.965.872-1.479 2.22-1.479 3.76 0 1.737.417 2.99 1.06 3.73.771.866 1.637 1.25 2.863 1.25.898 0 1.443-.222 1.957-.608.323-.259.707-.679.965-1.125v1.477h2.47v-12.084c0-1.7-.513-2.827-1.32-3.66-.769-.774-1.89-1.155-3.245-1.155Zm1.962 12.271c0 1.542-.835 2.604-2.09 2.604-1.348 0-2.021-1.062-2.021-2.794 0-.9.284-1.832.77-2.283.51-.483 1.061-.61 1.867-.61h1.474v3.083Z"/><path fill="#636666" d="M477.563 232.002c-.679 0-1.284.19-1.798.514-.355.219-.803.641-1.033 1.027v-1.286h-2.507v16.646h2.604v-12.242c0-1.544.868-2.317 1.959-2.317 1.095 0 1.995.773 1.995 2.317v12.24h2.604v-12.24c0-1.8-.324-2.703-1-3.441-.704-.803-1.57-1.218-2.824-1.218zm11.564 2.311c.642 0 1.09.224 1.445.642.454.548.517 1.25.517 1.925h2.567c-.034-1.377-.321-2.794-1.318-3.79-.832-.835-1.894-1.09-3.242-1.09-1.417 0-2.669.414-3.506 1.54-1.028 1.318-1.224 3.663-1.224 7.037 0 3.375.196 5.718 1.224 7.035.834 1.127 2.09 1.542 3.506 1.542 1.351 0 2.504-.352 3.276-1.156.869-.868 1.25-2.152 1.284-3.725h-2.567c0 .772-.1 1.414-.548 1.928-.355.383-.804.605-1.414.605-.61 0-1.158-.256-1.474-.707-.613-.835-.68-2.538-.68-5.525 0-2.987.064-4.724.68-5.56.316-.445.864-.701 1.474-.701z"/><path fill="#636666" fill-rule="nonzero" d="M504.002 233.285c-.866-.931-1.928-1.283-3.277-1.283-1.32 0-2.413.38-3.279 1.283-1.289 1.318-1.45 3.79-1.45 7.294 0 3.504.195 5.977 1.479 7.291.871.903 1.834 1.287 3.279 1.287 1.317 0 2.504-.353 3.31-1.219.898-.965 1.284-2.188 1.32-3.665h-2.572c0 .775-.227 1.477-.579 1.9a1.92 1.92 0 0 1-1.476.638c-.676 0-1.125-.318-1.446-.707-.581-.735-.707-2.28-.707-4.917h6.843c0-3.564-.063-6.391-1.445-7.902Zm-5.398 5.943c0-2.246.16-3.6.676-4.208.318-.386.772-.707 1.448-.707.673 0 1.155.318 1.474.707.514.608.641 1.962.641 4.208h-4.239Z"/><path fill="#658399" d="M96.367 154.933 80 146.27v68.765l60.95 36.326v-19.738l-44.583-24.122z"/><path fill="#6D8EA7" d="m187.804 207.501-44.838 24.122v19.738l59.833-36.496v-68.449l-14.995 8.517z"/><path fill="#7092AB" d="m80 143.455 16.367 8.363 45.587-25.453 45.85 25.354 14.995-8.123L141.954 108z"/><path fill="#231F20" d="M142.969 202.518v-22.437l26.131-14.729v-2.189l-27.154 14.834-25.821-14.834v2.187l24.825 14.634v22.534zM225.897 146.1h16.411v68.481h-16.411zM282.153 214.583h24.613v-13.372h-23.932c-5.716 0-9.77-1.403-12.037-4.171-2.3-2.823-3.48-7.847-3.48-14.927 0-8.223 1.245-14.18 3.686-17.7 2.403-3.475 6.272-5.165 11.83-5.165h23.933V146.1h-24.209c-10.946 0-19.168 2.932-24.433 8.708-5.238 5.755-7.899 14.742-7.899 26.71 0 6.17.89 11.554 2.627 16.005 1.756 4.497 4.438 8.204 7.962 11.008 2.71 2.186 5.653 3.752 8.747 4.678 3.055.913 7.294 1.374 12.592 1.374zm36.843-59.773c-5.239 5.755-7.892 14.742-7.892 26.71 0 6.17.874 11.555 2.62 16.005 1.758 4.498 4.437 8.205 7.959 11.009 2.707 2.186 5.642 3.751 8.736 4.677 3.055.913 7.294 1.372 12.587 1.372h24.584v-13.372h-23.898c-5.415 0-9.302-1.19-11.546-3.54-2.139-2.238-3.297-5.948-3.436-11.048h38.88v-13.37l-38.741-.043c.365-4.53 1.7-7.947 3.96-10.167 2.4-2.366 6.062-3.566 10.883-3.566h23.898v-13.372h-24.174c-10.944-.005-19.156 2.927-24.42 8.705z"/><path fill="#231F20" fill-rule="nonzero" d="M437.2 179.36c1.318-2.957 1.98-6.537 1.98-10.637 0-4.203-.813-7.978-2.43-11.215-1.62-3.258-4.041-5.94-7.19-7.957-1.91-1.202-4.471-2.094-7.623-2.637-3.101-.543-7.288-.811-12.456-.811h-31.333v68.48h15.772V191.25h16.15c5.883 0 10.323-.332 13.203-.997 2.927-.67 5.56-1.829 7.826-3.43 2.721-1.962 4.774-4.472 6.102-7.461zm-18.135-3.902c-1.891 1.487-4.886 2.241-8.9 2.241H393.92v-17.953h15.378c4.688 0 8.004.702 9.856 2.077 1.769 1.317 2.663 3.641 2.663 6.9-.002 3.075-.902 5.28-2.752 6.735zm41.538-29.358-28.972 68.48h16.819l5.942-15.886h27.796l6.128 15.887h17.546L476.655 146.1h-16.052zm-1.001 38.953 8.501-22.39 8.82 22.39h-17.321z"/><path fill="#231F20" d="m541.559 146.1-16.229 24.743-16.009-24.743h-17.927l26.251 38.421v30.062h15.775v-30.06L560 146.1z"/></g></svg>