<svg xmlns="http://www.w3.org/2000/svg" xml:space="preserve" width="512" height="512"><path fill="#85d5f6" d="M147.406 15.111 37.26 70.183l126.303-28.316zM175.723 43.951 37.782 73.485l137.941-.174z" style="fill:#fff" transform="matrix(2.7173 0 0 2.7173 -17.005 -17.15)"/><path fill="#1896d3" d="M270.692 212.098c0 7.344 5.953 13.299 13.302 13.299 7.344 0 13.3-5.953 13.3-13.299s-5.954-13.3-13.3-13.3c-7.35.002-13.302 5.954-13.302 13.3M31.62 107.79c0-8.213 6.72-14.93 14.932-14.93h25.53l31.435-15.718H41.673c-12.535 0-22.79 10.254-22.79 22.79s10.255 22.788 22.79 22.788h4.881c-8.212-.002-14.934-6.718-14.934-14.93" style="fill:#fff;stroke-width:1.68596" transform="matrix(1.61173 0 0 1.61173 -10.086 -.444)"/><path fill="#48a1d9" d="M132.691 229.984q.018-.054.039-.106zM133.927 197.398l.057.172zM131.752 232.284c.032-.07.06-.145.09-.216q-.043.108-.09.216" style="stroke-width:1.68596" transform="matrix(1.61173 0 0 1.61173 -10.086 -.444)"/><path fill="#48a1d9" d="M113.694 198.644c-.21-.442-.425-.875-.656-1.3-.14-.261-.278-.52-.425-.772a26 26 0 0 0-1.124-1.782c-.127-.182-.267-.357-.398-.534a25 25 0 0 0-1.545-1.922 24 24 0 0 0-1.305-1.36c-.114-.107-.224-.227-.342-.333a24 24 0 0 0-1.662-1.4c-.196-.151-.396-.296-.597-.443a25 25 0 0 0-1.536-1.023c-.162-.103-.317-.21-.482-.305a25 25 0 0 0-2.113-1.095c-.197-.094-.4-.172-.598-.254a25 25 0 0 0-1.851-.713c-.213-.076-.422-.152-.64-.218a28 28 0 0 0-2.521-.666c-.152-.032-.312-.052-.466-.082a28 28 0 0 0-2.315-.353 33.234 33.234 0 0 0-3.707-.223h-9.133v55.966h9.133c23.678 0 31.886-23.851 24.647-40.414-.113-.263-.241-.516-.364-.774" style="fill:#fff;stroke-width:1.68596" transform="matrix(1.61173 0 0 1.61173 -10.086 -.444)"/><path fill="#48a1d9" d="M135.417 219.466c.012-.081.032-.166.042-.246-.01.082-.03.165-.042.246M134.967 222.065" style="stroke-width:1.68596" transform="matrix(1.61173 0 0 1.61173 -10.086 -.444)"/><path fill="#48a1d9" d="M208.743 348.507v-.009.009"/><path fill="#48a1d9" d="M282.396 189.309h41.533v-40.176c0-14.53-11.888-26.418-26.415-26.418H41.586c-12.495-.047-22.702-10.277-22.702-22.784 0-8.635 4.867-16.186 11.996-20.052C16.507 85.577 6.258 99.613 6.258 115.95V276.7c0 14.524 11.888 26.412 26.416 26.412h264.84c14.527 0 26.415-11.888 26.415-26.412v-41.814h-41.533c-12.534 0-22.791-10.255-22.791-22.79 0-12.53 10.257-22.786 22.79-22.786m-103.057 70.746h-3.39l-17.09-41.355-16.962 41.743h-3.26l-9.364-23.325c-7.31 12.388-20.592 21.37-39.861 21.37H61.625v-93.276H89.41c1.012 0 2.006.03 2.984.076.122.007.24.02.361.029q1.311.073 2.583.199.037.006.07.01a52 52 0 0 1 5.485.866q1.386.297 2.72.664.054.015.11.027.061.023.124.042 1.225.34 2.407.744c.04.013.086.025.127.037q.011.002.023.007.04.014.078.035a43 43 0 0 1 4.402 1.787 42 42 0 0 1 3.972 2.142q.045.026.09.05a42 42 0 0 1 3.624 2.494c.027.022.054.04.08.064a42 42 0 0 1 3.292 2.827l.02.02.043.044a42.5 42.5 0 0 1 4.697 5.33v.001a45.3 45.3 0 0 1 5.106 8.845 47 47 0 0 1 1.353 3.433v-.007l7.042 17.85 14.757-23.326h7.927l14.754 23.326 18.788-47.616h21.004z" style="fill:#fff;stroke-width:1.68596" transform="matrix(1.61173 0 0 1.61173 -10.086 -.444)"/><path fill="#48a1d9" d="M135.962 210.775q.005.132.012.266c-.002-.09-.01-.179-.012-.266M135.87 208.574v.007l-.013-.227z" style="stroke-width:1.68596" transform="matrix(1.61173 0 0 1.61173 -10.086 -.444)"/></svg>