<svg xmlns="http://www.w3.org/2000/svg" xml:space="preserve" width="512" height="512" viewBox="0 -7.5 512 512"><linearGradient id="a" x1="42.843" x2="22.517" y1="16.724" y2="24.122" gradientUnits="userSpaceOnUse"><stop offset=".337" style="stop-color:#f4aa1c"/><stop offset=".847" style="stop-color:#ed8722"/></linearGradient><linearGradient id="b" x1="38.762" x2="38.762" y1="48.928" y2="7.9" gradientUnits="userSpaceOnUse"><stop offset=".006" style="stop-color:#ec7e23"/><stop offset=".252" style="stop-color:#f09220"/><stop offset=".779" style="stop-color:#f09220"/><stop offset=".994" style="stop-color:#f19c1f"/></linearGradient><linearGradient id="c" x1="10.314" x2="31.16" y1="43.762" y2="26.27" gradientUnits="userSpaceOnUse"><stop offset=".215" style="stop-color:#e66124"/><stop offset=".54" style="stop-color:#e86c24"/><stop offset=".816" style="stop-color:#ed8722"/></linearGradient><linearGradient id="d" x1="31.221" x2="46.162" y1="18.19" y2="-.573" gradientUnits="userSpaceOnUse"><stop offset=".515" style="stop-color:#f4aa1c"/><stop offset=".859" style="stop-color:#fcc90a"/></linearGradient><linearGradient id="e" x1="20.649" x2="20.649" y1="5.986" y2="-5.932" gradientUnits="userSpaceOnUse"><stop offset=".006" style="stop-color:#ec7e23"/><stop offset=".252" style="stop-color:#f09220"/><stop offset=".779" style="stop-color:#f09220"/><stop offset=".994" style="stop-color:#f19c1f"/></linearGradient><linearGradient id="g" x1="29.407" x2="29.407" y1="37.97" y2="23.123" gradientUnits="userSpaceOnUse"><stop offset="0" style="stop-color:#f19c1f"/><stop offset=".294" style="stop-color:#e8721b"/></linearGradient><g transform="matrix(8.67797 0 0 8.67797 0 53.746)"><circle cx="29.5" cy="22.5" r="29.5" fill="#fff"/><path fill="url(#a)" d="M26.9 16.3c.5 0 1.1.3 1.4.7l9.4 14.1 3.7-18.5H19.7v3.6h7.2z" style="fill:url(#a)"/><path fill="url(#b)" d="M53.9 7.9c2.1 5.9 1.2 12.5-2.3 16.9-1.4 1.7-3.6 3.4-6.2 4.7l-1.6 7.6c-.1.5-.6.9-1.1.9h-7.6c-.5 0-1.1-.3-1.4-.7l-9.3-14.1-.7 3.3-2.2 10.7c0 .4-.5.8-1 .8h-.9c0 6.5 8.6 13.8 22.9 9.8C51.7 43.1 58 33.5 58 22.5c-.1-5.3-1.5-10.3-4.1-14.6" style="fill:url(#b)"/><path fill="url(#c)" d="M2.2 26.7c0-10.6 7.3-14.1 15-14.1h2.6v3.6h-.4c-.5 0-1 .4-1.1.9l-.3 1.1-3.8 18.9c-.1.5.2.9.7.9h4.7c0 6.5 8.6 13.8 22.9 9.8-3.9 2-8.3 3.1-13 3.1-16.3 0-27.3-13.4-27.3-24.2" style="fill:url(#c)"/><path fill="url(#d)" d="M45.4 29.5c2.6-1.2 4.8-2.9 6.2-4.7 3.6-4.4 4.4-11 2.3-16.9C49.7 1 42.7-4.1 34.4-5.5c-5.6-.4-10.9 1.1-13.7 4.8-1.3 1.7-1.5 4-.9 6.7h22.1c.5 0 1.1.3 1.4.7L48 14c.3.4.4 1.1.3 1.6z" style="fill:url(#d)"/><path fill="url(#e)" d="M34.4-5.5c-5.6-.4-10.9 1.1-13.7 4.8-1.3 1.7-1.5 4-.9 6.7h-12c-1.3 0-1.1-.5-.1-1.8C12.9-2 20.7-5.9 29.5-5.9c1.7 0 3.3.1 4.9.4" style="fill:url(#e)"/><linearGradient id="f" x1="14.168" x2="14.168" y1="37.993" y2="18.186" gradientUnits="userSpaceOnUse"><stop offset=".307" style="stop-color:#e76524"/><stop offset=".626" style="stop-color:#df541a"/></linearGradient><path fill="url(#f)" d="M14.2 37.1 18 18.2h-2.8c-.5 0-1 .4-1.1.9l-3.8 18c-.1.5.2.9.7.9h3.8c-.4 0-.7-.4-.6-.9" style="fill:url(#f)"/><path fill="url(#g)" d="M32.1 38h3c-.5 0-1.1-.3-1.4-.7l-9.3-14.1-.7 3.3 6.9 10.7c.3.4 1 .8 1.5.8" style="fill:url(#g)"/></g></svg>