<svg xmlns="http://www.w3.org/2000/svg" width="32" height="24" fill="none"><defs><linearGradient id="b" x1="19.568" x2="12.313" y1="12.966" y2="15.654" gradientTransform="translate(30 -40)" gradientUnits="userSpaceOnUse"><stop offset=".337" stop-color="#F4AA1C"/><stop offset=".847" stop-color="#ED8722"/></linearGradient><linearGradient id="d" x1="18.105" x2="18.105" y1="24.306" y2="9.859" gradientTransform="translate(30 -40)" gradientUnits="userSpaceOnUse"><stop offset=".006" stop-color="#EC7E23"/><stop offset=".252" stop-color="#F09220"/><stop offset=".779" stop-color="#F09220"/><stop offset=".994" stop-color="#F19C1F"/></linearGradient><linearGradient id="f" x1="7.908" x2="15.27" y1="22.486" y2="16.199" gradientTransform="translate(30 -40)" gradientUnits="userSpaceOnUse"><stop offset=".215" stop-color="#E66124"/><stop offset=".54" stop-color="#E86C24"/><stop offset=".816" stop-color="#ED8722"/></linearGradient><linearGradient id="h" x1="15.402" x2="20.641" y1="13.482" y2="6.785" gradientTransform="translate(30 -40)" gradientUnits="userSpaceOnUse"><stop offset=".515" stop-color="#F4AA1C"/><stop offset=".859" stop-color="#FCC90A"/></linearGradient><linearGradient id="j" x1="11.612" x2="11.612" y1="9.185" y2="4.989" gradientTransform="translate(30 -40)" gradientUnits="userSpaceOnUse"><stop offset=".006" stop-color="#EC7E23"/><stop offset=".252" stop-color="#F09220"/><stop offset=".779" stop-color="#F09220"/><stop offset=".994" stop-color="#F19C1F"/></linearGradient><linearGradient id="l" x1="9.29" x2="9.29" y1="20.455" y2="13.481" gradientTransform="translate(30 -40)" gradientUnits="userSpaceOnUse"><stop offset=".307" stop-color="#E76524"/><stop offset=".626" stop-color="#DF541A"/></linearGradient><linearGradient id="n" x1="14.752" x2="14.752" y1="20.447" y2="15.219" gradientTransform="translate(30 -40)" gradientUnits="userSpaceOnUse"><stop stop-color="#F19C1F"/><stop offset=".294" stop-color="#E8721B"/></linearGradient><clipPath id="o" clipPathUnits="userSpaceOnUse"/><clipPath id="m" clipPathUnits="userSpaceOnUse"/><clipPath id="k" clipPathUnits="userSpaceOnUse"/><clipPath id="i" clipPathUnits="userSpaceOnUse"/><clipPath id="g" clipPathUnits="userSpaceOnUse"/><clipPath id="e" clipPathUnits="userSpaceOnUse"/><clipPath id="c" clipPathUnits="userSpaceOnUse"/><mask id="a" maskUnits="userSpaceOnUse"><path fill="#fff" d="M28 0H4a4 4 0 0 0-4 4v16a4 4 0 0 0 4 4h24a4 4 0 0 0 4-4V4a4 4 0 0 0-4-4"/></mask></defs><path fill="#fff" stroke="#e6e6e6" d="M4.5 1h23A3.5 3.5 0 0 1 31 4.5v15a3.5 3.5 0 0 1-3.5 3.5h-23A3.5 3.5 0 0 1 1 19.5v-15A3.5 3.5 0 0 1 4.5 1Z" mask="url(#a)" style="display:inline"/><path fill="url(#b)" d="M43.833-27.218c.18 0 .414.14.522.281l3.37 4.965 1.325-6.514h-7.778v1.268h2.581z" clip-path="url(#c)" style="fill:url(#b)" transform="translate(-13.878 28.599)scale(.66395)"/><path fill="url(#d)" d="M53.53-30.14c.753 2.077.43 4.4-.824 5.95-.502.598-1.29 1.197-2.222 1.655l-.574 2.676a.42.42 0 0 1-.394.317h-2.724a.7.7 0 0 1-.502-.247l-3.333-4.965-.25 1.162-.79 3.768c0 .14-.179.282-.358.282h-.322c0 2.288 3.082 4.859 8.207 3.45C52.743-17.747 55-21.127 55-25c-.036-1.866-.538-3.627-1.47-5.14" clip-path="url(#e)" style="fill:url(#d)" transform="translate(-13.878 28.599)scale(.66395)"/><path fill="url(#f)" d="M35-23.521c0-3.732 2.616-4.965 5.376-4.965h.932v1.268h-.143c-.18 0-.359.14-.394.317l-.108.387-1.362 6.655c-.036.176.072.317.251.317h1.685c0 2.289 3.082 4.859 8.207 3.45A10.3 10.3 0 0 1 44.784-15C38.944-15 35-19.718 35-23.521" clip-path="url(#g)" style="fill:url(#f)" transform="translate(-13.878 28.599)scale(.66395)"/><path fill="url(#h)" d="M50.484-22.535c.932-.423 1.72-1.021 2.222-1.655 1.29-1.55 1.577-3.873.824-5.95-1.505-2.43-4.014-4.226-6.989-4.72-2.007-.14-3.907.388-4.91 1.691-.466.599-.538 1.408-.323 2.36h7.921c.18 0 .395.105.502.246l1.685 2.57c.107.14.143.387.107.563z" clip-path="url(#i)" style="fill:url(#h)" transform="translate(-13.878 28.599)scale(.66395)"/><path fill="url(#j)" d="M46.541-34.86c-2.007-.14-3.907.388-4.91 1.691-.466.599-.538 1.408-.323 2.36h-4.3c-.467 0-.395-.177-.037-.635C38.835-33.627 41.631-35 44.785-35c.61 0 1.183.035 1.756.14" clip-path="url(#k)" style="fill:url(#j)" transform="translate(-13.878 28.599)scale(.66395)"/><path fill="url(#l)" d="m39.301-19.86 1.362-6.654H39.66c-.18 0-.359.14-.395.317l-1.362 6.338c-.036.176.072.317.251.317h1.362c-.143 0-.25-.141-.215-.317" clip-path="url(#m)" style="fill:url(#l)" transform="translate(-13.878 28.599)scale(.66395)"/><path fill="url(#n)" d="M45.717-19.542h1.075a.69.69 0 0 1-.502-.247l-3.333-4.965-.25 1.162 2.472 3.768c.108.14.359.282.538.282" clip-path="url(#o)" style="fill:url(#n)" transform="translate(-13.878 28.599)scale(.66395)"/></svg>