<svg xmlns="http://www.w3.org/2000/svg" xmlns:xlink="http://www.w3.org/1999/xlink" width="32" height="24"><defs><linearGradient id="c" x1="106.652%" x2="13.378%" y1="30.565%" y2="59.508%"><stop offset="33.74%" stop-color="#F4AA1C"/><stop offset="84.66%" stop-color="#ED8722"/></linearGradient><linearGradient id="f" x1="49.902%" x2="49.902%" y1="99.969%" y2=".001%"><stop offset=".61%" stop-color="#EC7E23"/><stop offset="25.15%" stop-color="#F09220"/><stop offset="77.91%" stop-color="#F09220"/><stop offset="99.39%" stop-color="#F19C1F"/></linearGradient><linearGradient id="i" x1="20.134%" x2="71.1%" y1="77.338%" y2="36.695%"><stop offset="21.47%" stop-color="#E66124"/><stop offset="53.99%" stop-color="#E86C24"/><stop offset="81.6%" stop-color="#ED8722"/></linearGradient><linearGradient id="l" x1="33.019%" x2="74.115%" y1="66.641%" y2="15.765%"><stop offset="51.53%" stop-color="#F4AA1C"/><stop offset="85.89%" stop-color="#FCC90A"/></linearGradient><linearGradient id="o" x1="50.019%" x2="50.019%" y1="99.881%" y2="-.266%"><stop offset=".61%" stop-color="#EC7E23"/><stop offset="25.15%" stop-color="#F09220"/><stop offset="77.91%" stop-color="#F09220"/><stop offset="99.39%" stop-color="#F19C1F"/></linearGradient><linearGradient id="r" x1="50.364%" x2="50.364%" y1="99.967%" y2="-.069%"><stop offset="30.67%" stop-color="#E76524"/><stop offset="62.58%" stop-color="#DF541A"/></linearGradient><linearGradient id="u" x1="50.059%" x2="50.059%" y1="99.8%" y2="-.522%"><stop offset="0%" stop-color="#F19C1F"/><stop offset="29.45%" stop-color="#E8721B"/></linearGradient><rect id="b" width="19.919" height="19.919" x="6.041" y="2.041" rx="8"/><rect id="e" width="19.919" height="19.919" x="6.041" y="2.041" rx="8"/><rect id="h" width="19.919" height="19.919" x="6.041" y="2.041" rx="8"/><rect id="k" width="19.919" height="19.919" x="6.041" y="2.041" rx="8"/><rect id="n" width="19.919" height="19.919" x="6.041" y="2.041" rx="8"/><rect id="q" width="19.919" height="19.919" x="6.041" y="2.041" rx="8"/><rect id="t" width="19.919" height="19.919" x="6.041" y="2.041" rx="8"/><path id="a" d="M28 0H4a4 4 0 0 0-4 4v16a4 4 0 0 0 4 4h24a4 4 0 0 0 4-4V4a4 4 0 0 0-4-4"/></defs><g fill="none" fill-rule="evenodd"><path fill="#FFF" fill-rule="nonzero" stroke="#E6E6E6" d="M4.5 1h23A3.5 3.5 0 0 1 31 4.5v15a3.5 3.5 0 0 1-3.5 3.5h-23A3.5 3.5 0 0 1 1 19.5v-15A3.5 3.5 0 0 1 4.5 1Z"/><mask id="d" fill="#fff"><use xlink:href="#b"/></mask><path fill="url(#c)" fill-rule="nonzero" d="M15.225 10.527c.12 0 .275.094.347.187l2.237 3.297.88-4.325h-5.164v.841h1.714z" mask="url(#d)"/><mask id="g" fill="#fff"><use xlink:href="#e"/></mask><path fill="url(#f)" fill-rule="nonzero" d="M21.664 8.587c.5 1.38.285 2.922-.548 3.95-.333.398-.856.796-1.475 1.1l-.38 1.776a.28.28 0 0 1-.263.21H17.19a.46.46 0 0 1-.333-.163l-2.213-3.296-.167.771-.524 2.502c0 .093-.119.187-.238.187h-.214c0 1.52 2.047 3.226 5.45 2.29 2.19-1.098 3.689-3.342 3.689-5.914-.024-1.24-.357-2.408-.976-3.413" mask="url(#g)"/><mask id="j" fill="#fff"><use xlink:href="#h"/></mask><path fill="url(#i)" fill-rule="nonzero" d="M9.36 12.982c0-2.478 1.738-3.296 3.57-3.296h.619v.841h-.095a.28.28 0 0 0-.262.21l-.071.258-.905 4.418c-.024.117.048.21.167.21H13.5c0 1.52 2.047 3.227 5.45 2.292a6.84 6.84 0 0 1-3.094.725c-3.879 0-6.496-3.133-6.496-5.658" mask="url(#j)"/><mask id="m" fill="#fff"><use xlink:href="#k"/></mask><path fill="url(#l)" fill-rule="nonzero" d="M19.641 13.637c.619-.281 1.142-.678 1.475-1.1.857-1.028 1.048-2.57.548-3.95-1-1.613-2.666-2.806-4.64-3.133-1.333-.093-2.595.257-3.261 1.122-.31.398-.357.935-.214 1.567h5.26c.118 0 .26.07.332.163l1.119 1.707c.071.093.095.257.071.374z" mask="url(#m)"/><mask id="p" fill="#fff"><use xlink:href="#n"/></mask><path fill="url(#o)" fill-rule="nonzero" d="M17.023 5.454c-1.332-.093-2.594.257-3.26 1.122-.31.398-.357.935-.214 1.567h-2.856c-.31 0-.262-.117-.024-.421 1.238-1.45 3.094-2.362 5.188-2.362.405 0 .786.024 1.166.094" mask="url(#p)"/><mask id="s" fill="#fff"><use xlink:href="#q"/></mask><path fill="url(#r)" fill-rule="nonzero" d="m12.216 15.413.905-4.418h-.667a.28.28 0 0 0-.262.21l-.904 4.208c-.024.117.048.21.167.21h.904c-.095 0-.167-.093-.143-.21" mask="url(#s)"/><mask id="v" fill="#fff"><use xlink:href="#t"/></mask><path fill="url(#u)" fill-rule="nonzero" d="M16.476 15.624h.714a.46.46 0 0 1-.333-.164l-2.213-3.296-.167.771 1.642 2.502a.54.54 0 0 0 .357.187" mask="url(#v)"/></g></svg>