<svg xmlns="http://www.w3.org/2000/svg" width="640" height="360"><g fill-rule="nonzero" transform="translate(80 122)"><path d="M57.831.435c31.94 0 57.832 25.892 57.832 57.831 0 31.94-25.892 57.831-57.832 57.831C25.892 116.097 0 90.205 0 58.267 0 26.326 25.892.434 57.831.434Zm0 10.41c-26.19 0-47.421 21.23-47.421 47.421 0 26.19 21.231 47.422 47.421 47.422 26.19 0 47.422-21.232 47.422-47.422 0-26.19-21.231-47.422-47.422-47.422Z"/><circle cx="41.639" cy="92.965" r="5.783"/><circle cx="74.024" cy="94.122" r="5.783"/><path d="M38.169 79.64a3.47 3.47 0 0 0 3.399 3.47l35.724.729a3.47 3.47 0 1 0 .142-6.939l-32.326-.66V41.036a3.47 3.47 0 0 0-3.47-3.47H30.73a3.47 3.47 0 0 0 0 6.94h7.439V79.64Z"/><path d="M42.795 47.856c0-.638.518-1.156 1.157-1.156h47.421c.87 0 1.428.923 1.025 1.693l-12.723 24.29c-.2.38-.594.62-1.024.62h-34.7a1.157 1.157 0 0 1-1.156-1.157v-24.29zM130.7 30.023h3.701l8.214 31.689h.101l8.822-31.689h4.31l8.873 31.689h.101l8.265-31.689h3.447l-9.988 36.201h-3.65l-9.177-32.398h-.102l-9.126 32.398h-3.752l-10.04-36.2zm52.163 17.746h11.864c2.4 0 4.344-.609 5.831-1.825 1.487-1.217 2.231-3.076 2.231-5.578 0-2.501-.744-4.36-2.23-5.577-1.488-1.217-3.432-1.825-5.832-1.825h-11.864v14.805zm-3.448-17.746h16.073c1.622 0 3.093.228 4.41.685 1.32.456 2.452 1.132 3.398 2.028.946.895 1.673 1.985 2.18 3.27.507 1.284.76 2.738.76 4.36 0 1.623-.253 3.076-.76 4.36-.507 1.285-1.234 2.375-2.18 3.271-.946.896-2.079 1.572-3.397 2.028-1.318.456-2.789.685-4.411.685h-12.625v15.514h-3.448v-36.2zm62.396 21.295a11.54 11.54 0 0 0-.634-3.498 9.577 9.577 0 0 0-1.647-2.967 8.166 8.166 0 0 0-2.586-2.078c-1.014-.524-2.164-.786-3.448-.786-1.318 0-2.484.262-3.498.786a8.166 8.166 0 0 0-2.586 2.078c-.71.862-1.276 1.86-1.699 2.992a14.663 14.663 0 0 0-.836 3.473h16.934zm-16.934 2.687c0 1.15.16 2.34.481 3.575a9.822 9.822 0 0 0 1.547 3.32 8.853 8.853 0 0 0 2.687 2.434c1.082.643 2.383.964 3.904.964 2.332 0 4.158-.609 5.476-1.826 1.318-1.216 2.23-2.839 2.738-4.867h3.194c-.676 2.975-1.918 5.273-3.727 6.895-1.808 1.623-4.368 2.434-7.681 2.434-2.062 0-3.845-.363-5.35-1.09-1.503-.727-2.729-1.724-3.675-2.991-.946-1.268-1.648-2.738-2.104-4.411-.456-1.674-.685-3.44-.685-5.299 0-1.724.229-3.414.685-5.07.456-1.656 1.158-3.135 2.104-4.436.946-1.302 2.172-2.35 3.676-3.144s3.287-1.191 5.349-1.191c2.096 0 3.887.422 5.374 1.267 1.488.845 2.696 1.952 3.626 3.321.93 1.37 1.597 2.94 2.002 4.715.406 1.775.575 3.575.507 5.4h-20.128zm50.591-13.03c-.304-1.386-.803-2.628-1.496-3.727a10.186 10.186 0 0 0-2.535-2.763 11.296 11.296 0 0 0-3.295-1.699 12.18 12.18 0 0 0-3.778-.583c-2.4 0-4.461.457-6.185 1.37-1.724.912-3.135 2.12-4.234 3.624-1.098 1.505-1.91 3.203-2.434 5.096a21.757 21.757 0 0 0-.786 5.83c0 1.961.262 3.896.786 5.806.524 1.91 1.336 3.617 2.434 5.121 1.099 1.504 2.51 2.713 4.234 3.625 1.724.913 3.785 1.37 6.185 1.37 1.69 0 3.211-.305 4.564-.913a10.807 10.807 0 0 0 3.498-2.485c.98-1.048 1.775-2.273 2.383-3.676a15.322 15.322 0 0 0 1.166-4.538h3.448c-.237 2.231-.76 4.242-1.572 6.034-.811 1.791-1.859 3.312-3.143 4.563-1.285 1.25-2.797 2.214-4.538 2.89-1.741.676-3.676 1.014-5.806 1.014-2.839 0-5.332-.515-7.478-1.546-2.147-1.031-3.93-2.409-5.35-4.132-1.419-1.724-2.484-3.719-3.194-5.983-.71-2.265-1.064-4.648-1.064-7.15 0-2.5.355-4.884 1.064-7.148.71-2.265 1.775-4.268 3.195-6.008 1.42-1.741 3.202-3.127 5.349-4.158 2.146-1.031 4.639-1.546 7.478-1.546 1.724 0 3.406.253 5.045.76 1.64.507 3.127 1.26 4.462 2.256a13.148 13.148 0 0 1 3.346 3.676c.896 1.454 1.462 3.127 1.699 5.02h-3.448zm18.75 1.014c-1.52 0-2.856.32-4.005.963a8.794 8.794 0 0 0-2.864 2.535c-.761 1.048-1.336 2.24-1.724 3.575a14.529 14.529 0 0 0-.583 4.081c0 1.386.194 2.747.583 4.082.388 1.335.963 2.526 1.724 3.574a8.794 8.794 0 0 0 2.864 2.535c1.15.643 2.485.964 4.006.964 1.52 0 2.856-.321 4.005-.964a8.794 8.794 0 0 0 2.865-2.535c.76-1.048 1.335-2.24 1.724-3.574.388-1.335.583-2.696.583-4.082 0-1.386-.195-2.746-.583-4.081-.39-1.335-.964-2.527-1.724-3.575a8.794 8.794 0 0 0-2.865-2.535c-1.15-.642-2.484-.963-4.005-.963zm0-2.687c1.995 0 3.761.371 5.299 1.115 1.538.744 2.83 1.74 3.879 2.991 1.048 1.251 1.842 2.713 2.383 4.386.54 1.673.811 3.456.811 5.35 0 1.892-.27 3.675-.811 5.348s-1.335 3.135-2.383 4.386c-1.048 1.25-2.341 2.24-3.879 2.966-1.538.727-3.304 1.09-5.298 1.09-1.995 0-3.76-.363-5.299-1.09-1.538-.727-2.83-1.715-3.878-2.966-1.048-1.25-1.843-2.713-2.383-4.386-.541-1.673-.812-3.456-.812-5.349 0-1.893.27-3.676.812-5.349.54-1.673 1.335-3.135 2.383-4.386 1.047-1.25 2.34-2.247 3.878-2.991 1.538-.744 3.304-1.115 5.299-1.115zm16.216.76h2.94v4.411h.153c.845-1.622 1.952-2.89 3.32-3.802 1.37-.913 3.12-1.37 5.249-1.37 1.723 0 3.287.423 4.69 1.268 1.402.845 2.34 2.13 2.813 3.853.778-1.723 1.927-3.008 3.448-3.853a9.868 9.868 0 0 1 4.868-1.267c5.78 0 8.67 3.059 8.67 9.177v17.745h-3.195V48.631c0-2.164-.456-3.811-1.368-4.944-.913-1.132-2.519-1.698-4.817-1.698-1.386 0-2.535.262-3.448.786a6.055 6.055 0 0 0-2.18 2.104c-.54.879-.921 1.884-1.14 3.017a18.463 18.463 0 0 0-.33 3.523v14.805h-3.195V48.48c0-.88-.093-1.716-.279-2.51-.185-.794-.49-1.487-.912-2.079-.423-.591-.989-1.056-1.699-1.394-.71-.338-1.571-.507-2.586-.507-1.352 0-2.526.245-3.523.735a6.486 6.486 0 0 0-2.434 2.028c-.625.862-1.09 1.876-1.394 3.042-.305 1.166-.457 2.442-.457 3.828v14.602h-3.194V40.062zm41.313 0h2.94v4.411h.153c.845-1.622 1.952-2.89 3.32-3.802 1.37-.913 3.12-1.37 5.249-1.37 1.723 0 3.287.423 4.69 1.268 1.402.845 2.34 2.13 2.813 3.853.778-1.723 1.927-3.008 3.448-3.853a9.868 9.868 0 0 1 4.868-1.267c5.78 0 8.67 3.059 8.67 9.177v17.745h-3.195V48.631c0-2.164-.456-3.811-1.369-4.944-.912-1.132-2.518-1.698-4.816-1.698-1.386 0-2.535.262-3.448.786a6.055 6.055 0 0 0-2.18 2.104c-.541.879-.921 1.884-1.14 3.017a18.463 18.463 0 0 0-.33 3.523v14.805h-3.195V48.48c0-.88-.093-1.716-.279-2.51-.185-.794-.49-1.487-.912-2.079-.423-.591-.989-1.056-1.699-1.394-.71-.338-1.572-.507-2.586-.507-1.352 0-2.526.245-3.523.735a6.486 6.486 0 0 0-2.434 2.028c-.625.862-1.09 1.876-1.394 3.042-.305 1.166-.457 2.442-.457 3.828v14.602h-3.194V40.062zm60.124 11.256a11.54 11.54 0 0 0-.634-3.498 9.577 9.577 0 0 0-1.648-2.967 8.166 8.166 0 0 0-2.586-2.078c-1.014-.524-2.163-.786-3.448-.786-1.318 0-2.484.262-3.498.786a8.166 8.166 0 0 0-2.586 2.078c-.71.862-1.276 1.86-1.698 2.992a14.663 14.663 0 0 0-.837 3.473h16.935zm-16.935 2.687c0 1.15.16 2.34.482 3.575a9.822 9.822 0 0 0 1.546 3.32 8.853 8.853 0 0 0 2.687 2.434c1.082.643 2.383.964 3.904.964 2.333 0 4.158-.609 5.476-1.826 1.319-1.216 2.231-2.839 2.738-4.867h3.194c-.676 2.975-1.918 5.273-3.726 6.895-1.809 1.623-4.369 2.434-7.682 2.434-2.061 0-3.844-.363-5.349-1.09-1.504-.727-2.73-1.724-3.676-2.991-.946-1.268-1.647-2.738-2.104-4.411-.456-1.674-.684-3.44-.684-5.299 0-1.724.228-3.414.684-5.07.457-1.656 1.158-3.135 2.104-4.436.947-1.302 2.172-2.35 3.676-3.144 1.505-.794 3.288-1.191 5.35-1.191 2.095 0 3.887.422 5.374 1.267 1.487.845 2.695 1.952 3.625 3.321.93 1.37 1.597 2.94 2.003 4.715.405 1.775.574 3.575.507 5.4h-20.129zm23.517-13.943h2.94v6.135h.102c.811-2.13 2.07-3.769 3.777-4.918 1.707-1.15 3.744-1.673 6.11-1.572v3.194c-1.454-.067-2.772.127-3.955.583a8.9 8.9 0 0 0-3.068 1.953 8.809 8.809 0 0 0-2.002 3.016c-.474 1.166-.71 2.442-.71 3.828v13.943h-3.194V40.062zm32.592 8.214c-.44-1.96-1.25-3.499-2.434-4.614-1.183-1.116-2.84-1.673-4.969-1.673-1.52 0-2.856.32-4.005.963a8.794 8.794 0 0 0-2.865 2.535c-.76 1.048-1.335 2.24-1.724 3.575a14.529 14.529 0 0 0-.583 4.081c0 1.386.195 2.747.583 4.082.389 1.335.964 2.526 1.724 3.574a8.794 8.794 0 0 0 2.865 2.535c1.15.643 2.484.964 4.005.964.98 0 1.91-.186 2.789-.558a7.491 7.491 0 0 0 2.332-1.546 8.263 8.263 0 0 0 1.673-2.358c.44-.913.71-1.91.812-2.992h3.194c-.44 3.178-1.606 5.654-3.499 7.428-1.892 1.775-4.326 2.662-7.3 2.662-1.995 0-3.761-.363-5.299-1.09-1.538-.727-2.83-1.715-3.879-2.966-1.048-1.25-1.842-2.713-2.383-4.386-.54-1.673-.811-3.456-.811-5.349 0-1.893.27-3.676.811-5.349s1.335-3.135 2.383-4.386c1.048-1.25 2.341-2.247 3.879-2.991 1.538-.744 3.304-1.115 5.298-1.115 2.806 0 5.18.743 7.124 2.23 1.944 1.488 3.101 3.735 3.473 6.744h-3.194zm25.747 3.042a11.54 11.54 0 0 0-.633-3.498 9.577 9.577 0 0 0-1.648-2.967 8.166 8.166 0 0 0-2.586-2.078c-1.014-.524-2.163-.786-3.448-.786-1.318 0-2.484.262-3.498.786a8.166 8.166 0 0 0-2.586 2.078c-.71.862-1.276 1.86-1.699 2.992a14.663 14.663 0 0 0-.836 3.473h16.934zm-16.934 2.687c0 1.15.16 2.34.481 3.575a9.822 9.822 0 0 0 1.547 3.32 8.853 8.853 0 0 0 2.687 2.434c1.082.643 2.383.964 3.904.964 2.332 0 4.158-.609 5.476-1.826 1.318-1.216 2.23-2.839 2.738-4.867h3.194c-.676 2.975-1.918 5.273-3.726 6.895-1.809 1.623-4.37 2.434-7.682 2.434-2.062 0-3.845-.363-5.349-1.09-1.504-.727-2.73-1.724-3.676-2.991-.946-1.268-1.648-2.738-2.104-4.411-.456-1.674-.684-3.44-.684-5.299 0-1.724.228-3.414.684-5.07.456-1.656 1.158-3.135 2.104-4.436.947-1.302 2.172-2.35 3.676-3.144s3.287-1.191 5.35-1.191c2.095 0 3.886.422 5.374 1.267 1.487.845 2.695 1.952 3.625 3.321.93 1.37 1.597 2.94 2.002 4.715.406 1.775.575 3.575.508 5.4h-20.13zM132.435 89.317c-.017.931.127 1.71.432 2.337a3.831 3.831 0 0 0 1.257 1.498c.533.372 1.164.64 1.892.8.728.16 1.507.241 2.336.241.474 0 .99-.068 1.55-.203a5.394 5.394 0 0 0 1.561-.648 3.985 3.985 0 0 0 1.207-1.142c.321-.466.482-1.029.482-1.69 0-.507-.114-.947-.343-1.32a3.134 3.134 0 0 0-.889-.94 5.24 5.24 0 0 0-1.206-.621c-.44-.161-.872-.293-1.295-.394l-4.038-.99a12.091 12.091 0 0 1-1.536-.508 4.374 4.374 0 0 1-1.308-.813 3.86 3.86 0 0 1-.902-1.244c-.228-.491-.342-1.092-.342-1.803 0-.44.084-.957.254-1.55.169-.592.486-1.15.952-1.676.465-.524 1.105-.969 1.917-1.333.813-.364 1.854-.546 3.124-.546.897 0 1.752.119 2.565.356a6.314 6.314 0 0 1 2.133 1.066 5.286 5.286 0 0 1 1.46 1.765c.364.703.546 1.52.546 2.45h-1.727c-.034-.693-.19-1.299-.47-1.815a4.054 4.054 0 0 0-1.092-1.295 4.78 4.78 0 0 0-1.549-.787 6.289 6.289 0 0 0-1.84-.267 7.6 7.6 0 0 0-1.715.19c-.55.127-1.033.33-1.447.61-.415.28-.75.648-1.004 1.105-.254.457-.38 1.024-.38 1.701 0 .423.071.792.215 1.105.144.313.343.58.597.8.254.22.546.398.876.533.33.136.682.246 1.054.33l4.419 1.092c.643.17 1.248.377 1.816.622a6.01 6.01 0 0 1 1.498.915c.432.364.77.808 1.016 1.333.245.525.368 1.16.368 1.904 0 .204-.021.475-.064.813a4.098 4.098 0 0 1-.304 1.08c-.161.38-.39.766-.686 1.155-.296.39-.703.74-1.219 1.054-.516.313-1.155.567-1.917.762-.762.194-1.676.292-2.743.292-1.066 0-2.057-.123-2.971-.369-.914-.245-1.693-.622-2.336-1.13a4.978 4.978 0 0 1-1.486-1.955c-.347-.796-.495-1.752-.444-2.87h1.726zm28.574-1.498a5.78 5.78 0 0 0-.317-1.752 4.797 4.797 0 0 0-.825-1.486 4.09 4.09 0 0 0-1.295-1.041c-.508-.262-1.084-.394-1.727-.394-.66 0-1.245.132-1.753.394a4.09 4.09 0 0 0-1.295 1.041c-.355.432-.639.931-.85 1.498a7.344 7.344 0 0 0-.42 1.74h8.482zm-8.481 1.346a7.1 7.1 0 0 0 .24 1.79 4.92 4.92 0 0 0 .775 1.664c.356.49.805.897 1.346 1.219.542.321 1.194.482 1.956.482 1.168 0 2.082-.305 2.742-.914.66-.61 1.118-1.422 1.372-2.438h1.6c-.339 1.49-.961 2.641-1.867 3.454-.906.812-2.188 1.219-3.847 1.219-1.033 0-1.926-.182-2.68-.546a4.932 4.932 0 0 1-1.84-1.499 6.517 6.517 0 0 1-1.055-2.209 10.044 10.044 0 0 1-.342-2.654c0-.863.114-1.71.342-2.54a6.82 6.82 0 0 1 1.054-2.221 5.292 5.292 0 0 1 1.842-1.575c.753-.398 1.646-.597 2.679-.597 1.05 0 1.947.212 2.692.635a5.36 5.36 0 0 1 1.815 1.664c.466.685.8 1.473 1.003 2.361.204.89.288 1.79.254 2.705h-10.081zm16.536-12.012h1.6v18.132h-1.6V77.153zm8.97 0h1.6v18.132h-1.6V77.153zm20.122 9.04c.05-.761.211-1.421.482-1.98.271-.559.64-1.016 1.105-1.371a4.676 4.676 0 0 1 1.638-.788 7.975 7.975 0 0 1 2.082-.254c.576 0 1.151.055 1.727.165.576.11 1.092.318 1.55.623.456.304.829.732 1.117 1.282.287.55.431 1.266.431 2.146v6.958c0 .644.313.965.94.965.186 0 .355-.034.508-.101v1.346a4.821 4.821 0 0 1-1.041.102c-.407 0-.733-.056-.978-.166a1.312 1.312 0 0 1-.572-.47 1.763 1.763 0 0 1-.266-.723 6.214 6.214 0 0 1-.064-.927h-.05c-.288.423-.58.8-.877 1.13-.296.33-.626.605-.99.825-.364.22-.779.39-1.244.508-.466.118-1.02.178-1.664.178-.61 0-1.18-.072-1.714-.216a3.85 3.85 0 0 1-1.397-.686 3.28 3.28 0 0 1-.94-1.193c-.228-.483-.342-1.054-.342-1.715 0-.914.203-1.63.61-2.145.406-.517.943-.91 1.612-1.181a9.199 9.199 0 0 1 2.26-.572c.838-.11 1.689-.216 2.552-.317.339-.034.635-.076.89-.127.253-.05.465-.14.634-.267.17-.127.3-.3.394-.52.093-.22.14-.508.14-.864 0-.542-.09-.986-.267-1.333a2.108 2.108 0 0 0-.737-.825 2.97 2.97 0 0 0-1.092-.42 7.38 7.38 0 0 0-1.333-.114c-1.016 0-1.845.242-2.489.724-.643.483-.982 1.257-1.016 2.324h-1.6zm8.532 1.93h-.05c-.102.187-.297.322-.585.407a5.96 5.96 0 0 1-.761.178 47.59 47.59 0 0 1-2.095.317 11.49 11.49 0 0 0-1.969.42c-.592.186-1.079.452-1.46.8-.38.346-.571.842-.571 1.485 0 .406.08.766.241 1.08.16.312.377.583.648.812.27.228.584.402.94.52.355.119.719.178 1.091.178.61 0 1.194-.093 1.752-.28a4.311 4.311 0 0 0 1.46-.812c.416-.355.746-.787.991-1.295.246-.508.368-1.084.368-1.727v-2.082zm9.046-5.942h1.6v2.26h.05c.305-.795.847-1.434 1.626-1.917a4.776 4.776 0 0 1 2.565-.724c.914 0 1.68.119 2.298.356.618.237 1.113.571 1.485 1.003.373.432.635.96.788 1.587.152.627.228 1.33.228 2.108v8.431h-1.6v-8.177c0-.559-.05-1.08-.152-1.562a3.306 3.306 0 0 0-.533-1.257 2.588 2.588 0 0 0-1.029-.838c-.432-.203-.97-.305-1.612-.305-.644 0-1.215.115-1.715.343a3.71 3.71 0 0 0-1.27.94 4.338 4.338 0 0 0-.812 1.422c-.195.55-.3 1.147-.317 1.79v7.644h-1.6V82.181zm16.46 0h1.702l4.317 11.174 4.038-11.174h1.6l-5.689 15.085c-.237.559-.457 1.02-.66 1.384a3.155 3.155 0 0 1-.673.863 2.23 2.23 0 0 1-.864.458c-.33.093-.749.14-1.257.14-.321-.018-.571-.03-.749-.039a1.546 1.546 0 0 1-.47-.089v-1.346c.187.034.369.064.546.09.178.025.36.037.546.037.356 0 .648-.05.877-.152.228-.102.427-.241.596-.42.17-.177.314-.393.432-.647.119-.254.246-.533.381-.838l.559-1.473-5.232-13.053zm20.042 0h2.666v1.346h-2.666v8.838c0 .525.072.935.215 1.231.144.297.504.462 1.08.496.457 0 .914-.026 1.371-.077v1.346c-.237 0-.474.009-.711.026a9.977 9.977 0 0 1-.711.025c-1.067 0-1.812-.207-2.235-.622-.423-.415-.626-1.18-.61-2.298v-8.965h-2.285v-1.346h2.286v-3.936h1.6v3.936zm9.223-5.028h1.6v7.288h.05c.305-.795.847-1.434 1.626-1.917a4.776 4.776 0 0 1 2.565-.724c.914 0 1.68.119 2.298.356.618.237 1.113.571 1.485 1.003.373.432.635.96.788 1.587.152.627.228 1.33.228 2.108v8.431h-1.6v-8.177c0-.559-.05-1.08-.152-1.562a3.306 3.306 0 0 0-.533-1.257 2.588 2.588 0 0 0-1.029-.838c-.432-.203-.97-.305-1.612-.305-.644 0-1.215.115-1.715.343a3.71 3.71 0 0 0-1.27.94 4.338 4.338 0 0 0-.812 1.422c-.195.55-.3 1.147-.317 1.79v7.644h-1.6V77.153zm17.959 0h1.6v2.565h-1.6v-2.565zm0 5.028h1.6v13.104h-1.6V82.181zm8.918 0h1.6v2.26h.05c.305-.795.847-1.434 1.626-1.917a4.776 4.776 0 0 1 2.565-.724c.914 0 1.68.119 2.298.356.618.237 1.113.571 1.486 1.003.372.432.635.96.787 1.587.152.627.228 1.33.228 2.108v8.431h-1.6v-8.177c0-.559-.05-1.08-.152-1.562a3.306 3.306 0 0 0-.533-1.257 2.588 2.588 0 0 0-1.029-.838c-.431-.203-.969-.305-1.612-.305-.644 0-1.215.115-1.714.343a3.71 3.71 0 0 0-1.27.94 4.338 4.338 0 0 0-.813 1.422c-.194.55-.3 1.147-.317 1.79v7.644h-1.6V82.181zm29.006 12.038c0 .965-.106 1.836-.318 2.615-.211.779-.546 1.44-1.003 1.981-.457.542-1.054.957-1.79 1.244-.737.288-1.638.432-2.705.432-.66 0-1.303-.076-1.93-.228a5.487 5.487 0 0 1-1.689-.711 4.21 4.21 0 0 1-1.244-1.232c-.33-.5-.52-1.096-.571-1.79h1.6c.084.49.25.901.495 1.231.245.33.542.597.889.8.347.203.732.351 1.155.445.423.093.855.14 1.295.14 1.49 0 2.565-.424 3.225-1.27.66-.847.99-2.066.99-3.657V92.44h-.05a4.678 4.678 0 0 1-1.638 1.955c-.72.491-1.562.737-2.527.737-1.05 0-1.947-.174-2.692-.52a5 5 0 0 1-1.84-1.436 5.852 5.852 0 0 1-1.055-2.146c-.22-.82-.33-1.697-.33-2.628 0-.897.131-1.748.394-2.552a6.333 6.333 0 0 1 1.143-2.108 5.327 5.327 0 0 1 1.853-1.422c.737-.347 1.58-.52 2.527-.52.491 0 .953.067 1.384.203.432.135.826.325 1.181.57.356.246.673.53.952.852.28.321.496.66.648 1.015h.05v-2.26h1.6V94.22zm-5.816-.432c.694 0 1.304-.148 1.829-.445a4.164 4.164 0 0 0 1.32-1.168 5.141 5.141 0 0 0 .8-1.663c.178-.627.267-1.27.267-1.93 0-.643-.076-1.287-.229-1.93a5.574 5.574 0 0 0-.736-1.752 3.989 3.989 0 0 0-1.308-1.27c-.533-.322-1.18-.483-1.943-.483-.762 0-1.413.157-1.955.47a4.17 4.17 0 0 0-1.346 1.232 5.155 5.155 0 0 0-.775 1.74 8.29 8.29 0 0 0-.24 1.993c0 .66.084 1.303.253 1.93.17.626.432 1.18.787 1.663.356.483.804.872 1.346 1.168.542.297 1.185.445 1.93.445zm16.207-1.194v2.692c0 .373-.047.74-.14 1.105a3.836 3.836 0 0 1-.419 1.016 3.262 3.262 0 0 1-.698.825 2.51 2.51 0 0 1-.978.508v-1.092a1.16 1.16 0 0 0 .533-.381c.153-.186.28-.394.381-.622a2.999 2.999 0 0 0 .254-1.359H325.6v-2.692h2.133zm19.436-6.4c.051-.761.212-1.421.483-1.98.27-.559.64-1.016 1.105-1.371a4.676 4.676 0 0 1 1.638-.788 7.975 7.975 0 0 1 2.082-.254c.576 0 1.151.055 1.727.165.576.11 1.092.318 1.549.623.457.304.83.732 1.117 1.282.288.55.432 1.266.432 2.146v6.958c0 .644.313.965.94.965.186 0 .355-.034.508-.101v1.346a4.821 4.821 0 0 1-1.041.102c-.407 0-.733-.056-.978-.166a1.312 1.312 0 0 1-.572-.47 1.763 1.763 0 0 1-.266-.723 6.214 6.214 0 0 1-.064-.927h-.05c-.288.423-.58.8-.877 1.13-.296.33-.626.605-.99.825-.364.22-.779.39-1.245.508-.465.118-1.02.178-1.663.178-.61 0-1.18-.072-1.714-.216a3.85 3.85 0 0 1-1.397-.686 3.28 3.28 0 0 1-.94-1.193c-.228-.483-.342-1.054-.342-1.715 0-.914.203-1.63.61-2.145.406-.517.943-.91 1.612-1.181a9.199 9.199 0 0 1 2.26-.572c.838-.11 1.689-.216 2.552-.317.339-.034.635-.076.889-.127.254-.05.466-.14.635-.267.17-.127.3-.3.394-.52.093-.22.14-.508.14-.864 0-.542-.09-.986-.267-1.333a2.108 2.108 0 0 0-.737-.825 2.97 2.97 0 0 0-1.092-.42 7.38 7.38 0 0 0-1.333-.114c-1.016 0-1.846.242-2.489.724-.643.483-.982 1.257-1.016 2.324h-1.6zm8.533 1.93h-.05c-.102.187-.297.322-.585.407a5.96 5.96 0 0 1-.762.178 47.59 47.59 0 0 1-2.095.317 11.49 11.49 0 0 0-1.968.42c-.592.186-1.079.452-1.46.8-.38.346-.571.842-.571 1.485 0 .406.08.766.24 1.08.162.312.378.583.648.812.271.228.585.402.94.52.356.119.72.178 1.092.178.61 0 1.194-.093 1.752-.28a4.311 4.311 0 0 0 1.46-.812c.415-.355.745-.787.991-1.295.245-.508.368-1.084.368-1.727v-2.082zm9.045-5.942h1.6v2.26h.051c.305-.795.847-1.434 1.625-1.917a4.776 4.776 0 0 1 2.565-.724c.915 0 1.68.119 2.299.356.618.237 1.113.571 1.485 1.003.373.432.635.96.787 1.587.153.627.229 1.33.229 2.108v8.431h-1.6v-8.177c0-.559-.05-1.08-.152-1.562a3.306 3.306 0 0 0-.534-1.257 2.588 2.588 0 0 0-1.028-.838c-.432-.203-.97-.305-1.613-.305s-1.214.115-1.714.343a3.71 3.71 0 0 0-1.27.94 4.338 4.338 0 0 0-.812 1.422c-.195.55-.3 1.147-.318 1.79v7.644h-1.6V82.181zm16.461 0h1.702l4.317 11.174 4.038-11.174h1.6l-5.689 15.085c-.237.559-.457 1.02-.66 1.384a3.155 3.155 0 0 1-.673.863 2.23 2.23 0 0 1-.864.458c-.33.093-.749.14-1.257.14-.321-.018-.571-.03-.749-.039a1.546 1.546 0 0 1-.47-.089v-1.346c.186.034.368.064.546.09.178.025.36.037.546.037.356 0 .648-.05.876-.152.229-.102.428-.241.597-.42.17-.177.313-.393.432-.647.118-.254.245-.533.38-.838l.56-1.473-5.232-13.053zm16.181 0h1.702l3.352 11.225h.05l3.2-11.225h1.804l3.2 11.225h.05L414.1 82.18h1.702l-4.216 13.104h-1.752l-3.225-11.021h-.051l-3.2 11.021h-1.752l-4.216-13.104zm24.384-5.028h1.6v7.288h.051c.305-.795.847-1.434 1.625-1.917a4.776 4.776 0 0 1 2.565-.724c.914 0 1.68.119 2.298.356.618.237 1.114.571 1.486 1.003.373.432.635.96.787 1.587.153.627.229 1.33.229 2.108v8.431h-1.6v-8.177c0-.559-.05-1.08-.152-1.562a3.306 3.306 0 0 0-.534-1.257 2.588 2.588 0 0 0-1.028-.838c-.432-.203-.97-.305-1.613-.305s-1.215.115-1.714.343a3.71 3.71 0 0 0-1.27.94 4.338 4.338 0 0 0-.812 1.422c-.195.55-.3 1.147-.318 1.79v7.644h-1.6V77.153zm27.355 10.666a5.78 5.78 0 0 0-.317-1.752 4.797 4.797 0 0 0-.825-1.486 4.09 4.09 0 0 0-1.295-1.041c-.508-.262-1.084-.394-1.727-.394-.66 0-1.245.132-1.753.394a4.09 4.09 0 0 0-1.295 1.041c-.355.432-.639.931-.85 1.498a7.344 7.344 0 0 0-.42 1.74h8.482zm-8.482 1.346a7.1 7.1 0 0 0 .242 1.79 4.92 4.92 0 0 0 .774 1.664c.356.49.804.897 1.346 1.219.542.321 1.194.482 1.956.482 1.168 0 2.082-.305 2.742-.914.66-.61 1.118-1.422 1.372-2.438h1.6c-.339 1.49-.961 2.641-1.867 3.454-.906.812-2.188 1.219-3.847 1.219-1.033 0-1.926-.182-2.68-.546a4.932 4.932 0 0 1-1.84-1.499 6.517 6.517 0 0 1-1.055-2.209 10.044 10.044 0 0 1-.342-2.654c0-.863.114-1.71.342-2.54a6.82 6.82 0 0 1 1.054-2.221 5.292 5.292 0 0 1 1.841-1.575c.754-.398 1.647-.597 2.68-.597 1.05 0 1.947.212 2.692.635a5.36 5.36 0 0 1 1.815 1.664c.466.685.8 1.473 1.003 2.361.204.89.288 1.79.254 2.705h-10.082zm16.512-6.984h1.473v3.073h.05c.407-1.067 1.038-1.888 1.893-2.463.855-.576 1.875-.838 3.06-.787v1.6c-.728-.034-1.389.063-1.981.291a4.457 4.457 0 0 0-1.537.978 4.412 4.412 0 0 0-1.003 1.511 5.052 5.052 0 0 0-.355 1.918v6.983h-1.6V82.181zm21.235 5.638a5.78 5.78 0 0 0-.318-1.752 4.797 4.797 0 0 0-.825-1.486 4.09 4.09 0 0 0-1.295-1.041c-.508-.262-1.084-.394-1.727-.394-.66 0-1.244.132-1.752.394a4.09 4.09 0 0 0-1.295 1.041c-.356.432-.64.931-.851 1.498a7.344 7.344 0 0 0-.42 1.74h8.483zm-8.482 1.346a7.1 7.1 0 0 0 .241 1.79 4.92 4.92 0 0 0 .775 1.664c.355.49.804.897 1.346 1.219.541.321 1.193.482 1.955.482 1.168 0 2.082-.305 2.743-.914.66-.61 1.117-1.422 1.371-2.438h1.6c-.339 1.49-.96 2.641-1.867 3.454-.905.812-2.188 1.219-3.847 1.219-1.033 0-1.926-.182-2.68-.546a4.932 4.932 0 0 1-1.84-1.499 6.517 6.517 0 0 1-1.054-2.209 10.045 10.045 0 0 1-.343-2.654c0-.863.114-1.71.343-2.54a6.82 6.82 0 0 1 1.054-2.221 5.292 5.292 0 0 1 1.84-1.575c.754-.398 1.647-.597 2.68-.597 1.05 0 1.947.212 2.692.635a5.36 5.36 0 0 1 1.816 1.664c.465.685.8 1.473 1.003 2.361.203.89.288 1.79.254 2.705H469.91z"/></g></svg>