<svg fill="none" height="24" width="32" xmlns="http://www.w3.org/2000/svg"><mask id="a" height="24" maskUnits="userSpaceOnUse" width="32" x="0" y="0"><rect fill="#c4c4c4" height="24" rx="4" width="32"/></mask><g mask="url(#a)"><path d="M0 0h3v24H0z" fill="#008f42"/><path d="M3 0h3v24H3z" fill="#00ab47"/><path d="M6 0h3v24H6z" fill="#52c638"/><path d="M9 0h3v24H9z" fill="#96c65a"/><path d="M12 0h3v24h-3z" fill="#00c4b5"/><path d="M15 0h2v24h-2z" fill="#00a2dc"/><path d="M17 0h3v24h-3z" fill="#0a6cb8"/><path d="M20 0h3v24h-3z" fill="#46597d"/><path d="M23 0h3v24h-3z" fill="#ff001a"/><path d="M26 0h3v24h-3z" fill="#ff6b00"/><path d="M29 0h3v24h-3z" fill="#f7c000"/><g clip-rule="evenodd" fill="#fff" fill-rule="evenodd"><path d="M14.5 10.125h1v2.625a2.251 2.251 0 0 1-4.5 0v-2.625h1v2.625c0 .759.56 1.375 1.25 1.375s1.25-.616 1.25-1.375zM20.006 14.875h1V12.25a2.251 2.251 0 0 0-4.5 0v2.625h1V12.25c0-.759.56-1.375 1.25-1.375s1.25.616 1.25 1.375zM5.875 14.875H5v-2.25h.004A2.074 2.074 0 0 1 5 12.5V8h1v2.5A2.501 2.501 0 1 1 7.5 15c-.598 0-1.146-.21-1.576-.56zm1.562-4C8.3 10.875 9 11.603 9 12.5s-.7 1.625-1.563 1.625c-.862 0-1.562-.728-1.562-1.625s.7-1.625 1.562-1.625zM26.125 10.125H27v2.25h-.004c.003.041.004.083.004.125V17h-1v-2.5a2.501 2.501 0 1 1-1.5-4.5c.598 0 1.146.21 1.576.56zm-1.562 4C23.7 14.125 23 13.397 23 12.5s.7-1.625 1.563-1.625c.862 0 1.562.728 1.562 1.625s-.7 1.625-1.562 1.625z"/></g></g></svg>