<svg xmlns="http://www.w3.org/2000/svg" width="32" height="24" fill="none"><mask id="a" width="32" height="24" x="0" y="0" maskUnits="userSpaceOnUse"><rect width="32" height="24" fill="#c4c4c4" rx="4"/></mask><g mask="url(#a)"><path fill="#008f42" d="M0 0h3v24H0z"/><path fill="#00ab47" d="M3 0h3v24H3z"/><path fill="#52c638" d="M6 0h3v24H6z"/><path fill="#96c65a" d="M9 0h3v24H9z"/><path fill="#00c4b5" d="M12 0h3v24h-3z"/><path fill="#00a2dc" d="M15 0h2v24h-2z"/><path fill="#0a6cb8" d="M17 0h3v24h-3z"/><path fill="#46597d" d="M20 0h3v24h-3z"/><path fill="#ff001a" d="M23 0h3v24h-3z"/><path fill="#ff6b00" d="M26 0h3v24h-3z"/><path fill="#f7c000" d="M29 0h3v24h-3z"/><g fill="#fff" fill-rule="evenodd" clip-rule="evenodd"><path d="M14.5 10.125h1v2.625a2.251 2.251 0 0 1-4.5 0v-2.625h1v2.625c0 .759.56 1.375 1.25 1.375s1.25-.616 1.25-1.375zM20.006 14.875h1V12.25a2.251 2.251 0 0 0-4.5 0v2.625h1V12.25c0-.759.56-1.375 1.25-1.375s1.25.616 1.25 1.375zM5.875 14.875H5v-2.25h.004L5 12.5V8h1v2.5A2.501 2.501 0 1 1 7.5 15c-.598 0-1.146-.21-1.576-.56zm1.562-4C8.3 10.875 9 11.603 9 12.5s-.7 1.625-1.563 1.625c-.862 0-1.562-.728-1.562-1.625s.7-1.625 1.562-1.625M26.125 10.125H27v2.25h-.004q.004.062.004.125V17h-1v-2.5a2.501 2.501 0 1 1-1.5-4.5c.598 0 1.146.21 1.576.56zm-1.562 4C23.7 14.125 23 13.397 23 12.5s.7-1.625 1.563-1.625c.862 0 1.562.728 1.562 1.625s-.7 1.625-1.562 1.625"/></g></g></svg>