<?xml version="1.0" encoding="UTF-8"?>
<svg width="640px" height="360px" viewBox="0 0 640 360" version="1.1" xmlns="http://www.w3.org/2000/svg" xmlns:xlink="http://www.w3.org/1999/xlink">
    <defs>
        <linearGradient x1="-0.0502729156%" y1="50.0642857%" x2="100.007039%" y2="50.0642857%" id="linearGradient-1">
            <stop stop-color="#CA581A" offset="0%"></stop>
            <stop stop-color="#6E2E2B" offset="100%"></stop>
        </linearGradient>
        <linearGradient x1="-18.0061898%" y1="60.7432908%" x2="99.7886903%" y2="42.162927%" id="linearGradient-2">
            <stop stop-color="#FFE07D" offset="0%"></stop>
            <stop stop-color="#EE7203" offset="100%"></stop>
        </linearGradient>
        <linearGradient x1="42.4652012%" y1="33.8623444%" x2="59.1637423%" y2="72.4481141%" id="linearGradient-3">
            <stop stop-color="#2D2C86" offset="0%"></stop>
            <stop stop-color="#282674" offset="100%"></stop>
        </linearGradient>
    </defs>
    <g id="issuer-rabobank" stroke="none" stroke-width="1" fill="none" fill-rule="evenodd">
        <g id="Issuer-/-Rabobank" transform="translate(90.000000, -50.000000)">
            <g id="rabobank" transform="translate(0.000000, 176.333333)">
                <path d="M314.459016,61.8360656 C312.95082,71.4885246 307.97377,76.4655738 302.091803,76.4655738 C298.321311,76.4655738 296.209836,73.7508197 296.813115,69.6786885 L298.92459,56.7081967 C299.678689,51.8819672 302.695082,48.1114754 307.822951,48.1114754 C313.252459,48.1114754 315.967213,52.0327869 314.459016,61.8360656 Z M293.947541,80.9901639 C294.701639,80.9901639 296.662295,84.3081967 302.996721,84.3081967 C316.268852,84.3081967 323.960656,74.6557377 326.072131,62.1377049 C328.786885,46.7540984 321.245902,39.8163934 311.895082,39.8163934 C307.521311,39.8163934 304.203279,40.2688525 301.790164,41.4754098 L305.409836,20.3606557 L294.24918,20.3606557 L283.239344,83.5540984 L291.534426,83.5540984 C291.534426,83.704918 292.740984,80.9901639 293.947541,80.9901639 L293.947541,80.9901639 Z M412.039344,54.1442623 C413.698361,44.642623 410.229508,39.9672131 399.822951,39.9672131 C392.131148,39.9672131 389.114754,43.4360656 386.24918,46.3016393 L386.55082,41.0229508 L376.295082,41.0229508 L375.540984,48.8655738 L369.659016,83.704918 L380.970492,83.704918 L384.590164,61.0819672 C385.947541,53.2393443 391.22623,47.357377 396.354098,47.357377 C401.934426,47.357377 401.934426,50.5245902 401.029508,55.5016393 L396.203279,83.704918 L407.363934,83.704918 L412.039344,54.1442623 Z M458.793443,39.9672131 L445.672131,39.9672131 L430.590164,55.9540984 L430.439344,55.9540984 L436.472131,20.6622951 L425.613115,20.6622951 L414.603279,83.704918 L425.763934,83.704918 L426.819672,77.3704918 L429.081967,63.495082 C434.963934,63.495082 438.281967,64.0983607 440.845902,75.8622951 L442.655738,83.704918 L453.967213,83.704918 C453.967213,83.704918 451.101639,71.7901639 449.291803,67.1147541 C447.331148,62.1377049 445.219672,58.9704918 440.695082,58.0655738 L458.793443,39.9672131 Z M136.642623,55.5016393 C144.786885,53.6918033 149.009836,47.2065574 150.065574,42.8327869 C152.931148,31.0688525 147.803279,21.8688525 132.721311,22.0196721 L115.527869,22.0196721 L104.819672,83.5540984 L116.131148,83.5540984 L120.655738,58.9704918 C130.911475,58.6688525 132.268852,61.2327869 134.229508,73.147541 L136.039344,83.704918 L147.652459,83.704918 C146.295082,77.3704918 145.390164,71.3377049 144.334426,66.5114754 C143.127869,61.3836066 141.318033,57.4622951 136.491803,55.652459 L136.642623,55.5016393 Z M138.904918,40.7213115 C138,46.1508197 133.777049,50.0721311 128.498361,50.0721311 L121.862295,50.0721311 L125.331148,30.6163934 L131.363934,30.6163934 C138.452459,30.6163934 139.809836,35.2918033 138.904918,40.7213115 Z M189.429508,52.3344262 C191.088525,42.9836066 186.111475,39.8163934 176.006557,39.8163934 C163.488525,39.8163934 158.059016,45.6983607 158.059016,45.6983607 L161.980328,52.1836066 C161.980328,52.1836066 166.052459,47.5081967 174.196721,47.5081967 C178.721311,47.5081967 178.872131,49.7704918 178.419672,52.1836066 L177.514754,57.7639344 C161.377049,57.3114754 153.081967,60.7803279 151.272131,71.4885246 C149.763934,80.2360656 156.24918,84.3081967 163.639344,84.3081967 C167.409836,84.3081967 170.42623,83.704918 174.196721,80.5377049 C174.95082,82.6491803 176.157377,83.704918 177.665574,84.0065574 C179.927869,84.4590164 184,84.0065574 185.206557,83.1016393 C185.055738,81.7442623 185.206557,78.5770492 186.563934,70.7344262 L189.429508,52.3344262 Z M176.157377,63.7967213 C174.347541,76.4655738 172.688525,77.8229508 166.504918,77.8229508 C162.281967,77.8229508 160.77377,74.957377 161.527869,71.1868852 C162.583607,65.9081967 166.504918,63.7967213 176.157377,63.7967213 Z M366.793443,52.3344262 C368.452459,42.9836066 363.47541,39.8163934 353.370492,39.8163934 C340.852459,39.8163934 335.422951,45.6983607 335.422951,45.6983607 L339.344262,52.1836066 C339.344262,52.1836066 343.416393,47.5081967 351.560656,47.5081967 C356.085246,47.5081967 356.236066,49.7704918 355.783607,52.1836066 L354.878689,57.7639344 C338.740984,57.3114754 330.445902,60.7803279 328.636066,71.4885246 C327.127869,80.2360656 333.613115,84.3081967 341.003279,84.3081967 C344.77377,84.3081967 347.790164,83.704918 351.560656,80.5377049 C352.314754,82.6491803 353.521311,83.704918 355.029508,84.0065574 C357.291803,84.4590164 361.363934,84.0065574 362.570492,83.1016393 C362.419672,81.7442623 362.570492,78.5770492 363.927869,70.7344262 L366.793443,52.3344262 Z M353.521311,63.7967213 C351.711475,76.4655738 350.052459,77.8229508 343.868852,77.8229508 C339.645902,77.8229508 338.137705,74.957377 338.891803,71.1868852 C339.796721,65.9081967 343.718033,63.7967213 353.521311,63.7967213 Z M211.901639,84.4590164 C225.17377,84.4590164 232.865574,74.8065574 234.977049,62.2885246 C237.691803,46.904918 230.15082,39.9672131 220.8,39.9672131 C216.42623,39.9672131 213.259016,40.4196721 210.695082,41.6262295 L214.314754,20.5114754 L203.154098,20.5114754 L192.144262,83.704918 L200.439344,83.704918 C200.439344,83.704918 201.645902,81.1409836 202.852459,81.1409836 C203.757377,80.9901639 205.567213,84.4590164 211.901639,84.4590164 Z M216.577049,48.1114754 C222.308197,48.1114754 224.721311,52.0327869 223.363934,61.8360656 C222.006557,71.9409836 216.878689,76.4655738 210.845902,76.4655738 C207.07541,76.4655738 204.963934,73.7508197 205.567213,69.6786885 L207.678689,56.7081967 C208.583607,51.8819672 211.44918,48.1114754 216.577049,48.1114754 L216.577049,48.1114754 Z M239.652459,65.757377 C241.311475,49.6196721 248.55082,39.6655738 265.895082,39.6655738 C278.714754,39.6655738 282.937705,49.4688525 281.127869,59.8754098 C278.413115,76.6163934 271.777049,84.6098361 255.488525,84.6098361 C244.931148,84.6098361 238.596721,76.0131148 239.652459,65.757377 Z M269.514754,60.7803279 C270.268852,56.4065574 271.17377,47.6590164 263.632787,47.6590164 C258.504918,47.6590164 253.678689,51.1278689 251.567213,63.3442623 C250.209836,70.7344262 251.718033,76.7672131 257.6,76.7672131 C261.822951,76.7672131 267.252459,73.147541 269.514754,60.7803279 Z" id="Shape" fill="#2D2C86" fill-rule="nonzero"></path>
                <g id="Group">
                    <path d="M75.4098361,74.957377 C75.5606557,75.1081967 75.8622951,75.2590164 76.0131148,75.4098361 C75.8622951,75.5606557 75.8622951,75.7114754 75.7114754,75.8622951 C73.7508197,75.5606557 71.7901639,75.4098361 69.8295082,75.1081967 C69.6786885,74.957377 69.3770492,74.6557377 69.2262295,74.504918 C69.3770492,74.3540984 69.5278689,74.2032787 69.5278689,74.2032787 C71.4885246,74.3540984 73.4491803,74.6557377 75.4098361,74.957377 Z" id="Path" fill="#FFFFFF"></path>
                    <path d="M75.2590164,75.1081967 C75.4098361,75.2590164 75.7114754,75.4098361 75.7114754,75.4098361 C75.7114754,75.4098361 75.7114754,75.2590164 75.8622951,75.2590164 C75.7114754,75.1081967 75.4098361,74.957377 75.2590164,74.8065574 C73.2983607,74.504918 71.3377049,74.3540984 69.3770492,74.052459 C69.2262295,74.2032787 69.0754098,74.3540984 69.0754098,74.3540984 C69.0754098,74.3540984 69.2262295,74.3540984 69.2262295,74.504918 C69.2262295,74.504918 69.3770492,74.3540984 69.3770492,74.3540984 C71.4885246,74.6557377 73.2983607,74.957377 75.2590164,75.1081967 Z" id="Path" fill="#A81815"></path>
                    <path d="M71.4885246,71.6393443 C71.0360656,71.6393443 70.4327869,71.7901639 70.4327869,71.7901639 L69.0754098,72.5442623 C68.9245902,72.8459016 69.5278689,73.147541 69.5278689,73.147541 C69.5278689,73.147541 71.1868852,73.2983607 71.1868852,73.7508197 C72.3934426,74.3540984 74.957377,74.504918 76.1639344,74.504918 L76.1639344,74.504918 C76.0131148,74.052459 75.8622951,73.6 75.5606557,73.147541 C75.4098361,72.695082 75.1081967,72.242623 74.957377,71.9409836 L74.957377,71.9409836 C74.957377,71.7901639 74.052459,71.6393443 71.4885246,71.6393443 Z" id="Path" fill="#4F2644" fill-rule="nonzero" opacity="0.45"></path>
                    <g>
                        <path d="M71.7901639,66.8131148 C73.4491803,68.4721311 74.8065574,70.2819672 75.7114754,72.242623 C78.7278689,78.4262295 77.6721311,85.2131148 71.6393443,91.095082 C64.7016393,97.8819672 52.9377049,102.104918 39.2131148,102.104918 C25.4885246,102.104918 13.7245902,97.8819672 6.78688525,91.095082 C0.754098361,85.2131148 -0.301639344,78.4262295 2.7147541,72.242623 C3.61967213,70.2819672 4.97704918,68.4721311 6.63606557,66.8131148 C4.67540984,68.6229508 3.16721311,70.2819672 1.80983607,73.147541 C-1.20655738,79.0295082 -0.150819672,87.4754098 6.03278689,93.6590164 C13.1213115,100.596721 24.2819672,104.819672 39.3639344,104.819672 C54.5967213,104.819672 65.6065574,100.445902 72.3934426,93.6590164 C79.0295082,87.0229508 79.3311475,78.2754098 76.6163934,72.9967213 C75.4098361,70.7344262 73.9016393,68.7737705 71.7901639,66.8131148 Z" id="Path" fill="url(#linearGradient-1)" fill-rule="nonzero"></path>
                        <g id="SVGID_2_-link" transform="translate(0.000000, 54.295082)" fill="#EE7203" fill-rule="nonzero">
                            <path d="M60.6295082,5.4295082 C54.295082,2.7147541 46.7540984,1.35737705 39.2131148,1.35737705 C31.6721311,1.35737705 24.1311475,2.7147541 17.7967213,5.4295082 C10.7081967,8.29508197 5.27868852,12.6688525 2.7147541,17.947541 C-0.301639344,24.1311475 0.754098361,30.9180328 6.78688525,36.8 C13.7245902,43.5868852 25.4885246,47.8098361 39.2131148,47.8098361 C52.9377049,47.8098361 64.7016393,43.5868852 71.6393443,36.8 C77.6721311,30.9180328 78.7278689,24.1311475 75.7114754,17.947541 C73.147541,12.6688525 67.7180328,8.29508197 60.6295082,5.4295082 Z" id="SVGID_2_"></path>
                        </g>
                        <path d="M40.4196721,62.7409836 C39.2131148,60.1770492 39.3639344,57.7639344 39.6655738,55.8032787 C39.5147541,55.8032787 39.3639344,55.8032787 39.2131148,55.8032787 C31.6721311,55.8032787 24.1311475,57.1606557 17.7967213,59.8754098 C10.7081967,62.7409836 5.27868852,67.1147541 2.7147541,72.3934426 C-0.301639344,78.5770492 0.754098361,85.3639344 6.78688525,91.2459016 C7.23934426,91.6983607 7.69180328,92 8.1442623,92.452459 C33.6327869,90.7934426 46.904918,75.8622951 40.4196721,62.7409836 Z" id="Path" fill="url(#linearGradient-2)" fill-rule="nonzero"></path>
                        <path d="M22.7737705,63.1934426 C27.4491803,64.4 31.9737705,65.757377 36.6491803,67.5672131 C37.5540984,64.852459 38.4590164,62.1377049 39.6655738,59.4229508 C40.7213115,62.1377049 41.7770492,64.852459 42.6819672,67.5672131 C47.2065574,65.9081967 51.7311475,64.5508197 56.4065574,63.3442623 C53.0885246,65.4557377 50.0721311,67.5672131 47.0557377,69.9803279 C53.3901639,70.7344262 59.1213115,71.7901639 65.304918,73.147541 C59.1213115,72.9967213 53.3901639,73.2983607 47.2065574,73.6 C51.5803279,77.2196721 55.2,80.8393443 59.2721311,84.7606557 C53.6918033,81.5934426 48.5639344,79.0295082 42.8327869,76.3147541 C41.7770492,81.1409836 40.7213115,85.9672131 39.6655738,90.7934426 C38.6098361,85.9672131 37.704918,81.442623 36.6491803,76.6163934 C30.9180328,79.3311475 25.6393443,81.895082 19.9081967,84.9114754 C23.9803279,80.9901639 27.7508197,77.5213115 32.1245902,73.7508197 C25.9409836,73.2983607 20.0590164,73.2983607 13.8754098,73.147541 C20.0590164,71.7901639 26.0918033,70.7344262 32.4262295,69.9803279 C29.1081967,67.4163934 26.0918033,65.1540984 22.7737705,63.1934426 Z M39.5147541,71.4885246 C39.5147541,68.0196721 39.5147541,64.4 39.5147541,60.9311475 C38.4590164,63.947541 37.5540984,66.8131148 36.6491803,69.8295082 C37.704918,70.4327869 38.6098361,71.0360656 39.5147541,71.4885246 Z M25.4885246,64.2491803 C29.2590164,65.9081967 33.0295082,67.8688525 36.6491803,69.8295082 C35.7442623,69.9803279 34.8393443,69.9803279 33.9344262,70.1311475 C31.2196721,68.1704918 28.504918,66.0590164 25.4885246,64.2491803 Z M39.5147541,71.4885246 C46.7540984,71.4885246 54.1442623,71.7901639 61.3836066,72.5442623 C55.0491803,71.3377049 48.8655738,70.5836066 42.3803279,69.8295082 C41.4754098,70.4327869 40.5704918,71.0360656 39.5147541,71.4885246 Z M53.6918033,64.2491803 C49.9213115,65.9081967 46.1508197,67.8688525 42.5311475,69.8295082 C42.3803279,69.3770492 42.2295082,68.7737705 42.0786885,68.3213115 C45.8491803,66.8131148 49.7704918,65.4557377 53.6918033,64.2491803 Z M39.2131148,71.4885246 C39.3639344,76.6163934 39.5147541,82.0459016 39.6655738,87.0229508 C40.5704918,82.4983607 41.6262295,77.8229508 42.6819672,73.2983607 C41.6262295,72.695082 40.2688525,72.0918033 39.2131148,71.4885246 Z M55.652459,82.0459016 C51.4295082,79.0295082 47.0557377,76.0131148 42.5311475,73.2983607 C43.4360656,73.2983607 44.3409836,73.147541 45.2459016,73.147541 C48.8655738,76.0131148 52.3344262,79.0295082 55.652459,82.0459016 Z M39.5147541,71.4885246 C32.1245902,71.6393443 26.3934426,71.9409836 19.1540984,72.5442623 C25.3377049,72.5442623 30.1639344,72.8459016 36.4983607,73.2983607 C37.5540984,72.695082 38.6098361,72.0918033 39.5147541,71.4885246 Z M23.5278689,82.0459016 C27.7508197,79.0295082 32.1245902,76.0131148 36.6491803,73.2983607 C36.8,73.9016393 36.9508197,74.504918 37.1016393,74.957377 C32.4262295,77.2196721 27.9016393,79.6327869 23.5278689,82.0459016 Z" id="Shape" fill="#FFFFFF"></path>
                        <path d="M39.5147541,59.5737705 C40.5704918,62.2885246 41.6262295,65.0032787 42.5311475,67.7180328 C46.904918,66.0590164 51.2786885,64.7016393 55.8032787,63.6459016 C55.9540984,63.495082 56.104918,63.495082 56.2557377,63.3442623 C51.5803279,64.5508197 47.0557377,65.9081967 42.5311475,67.5672131 C41.6262295,64.852459 40.7213115,62.1377049 39.5147541,59.4229508 C38.4590164,62.1377049 37.4032787,64.852459 36.4983607,67.5672131 C31.9737705,65.9081967 27.4491803,64.4 22.6229508,63.1934426 C22.7737705,63.3442623 22.9245902,63.3442623 23.0754098,63.495082 C27.6,64.7016393 31.9737705,66.0590164 36.4983607,67.7180328 C37.5540984,64.852459 38.4590164,62.1377049 39.5147541,59.5737705 Z" id="Path" fill="#C51A1B"></path>
                        <path d="M31.9737705,73.6 C27.7508197,77.2196721 23.8295082,80.8393443 19.757377,84.7606557 C19.9081967,84.6098361 20.2098361,84.4590164 20.3606557,84.4590164 C24.2819672,80.6885246 27.7508197,77.5213115 31.8229508,73.9016393 L31.8229508,73.6 L31.9737705,73.6 Z" id="Path" fill="#C8411B"></path>
                        <path d="M39.5147541,71.4885246 L39.5147541,71.4885246 C39.5147541,71.4885246 39.5147541,71.6393443 39.5147541,71.6393443 L39.5147541,71.6393443 C39.5147541,71.6393443 39.5147541,71.6393443 39.5147541,71.4885246 Z" id="Path" fill="#C00D0D"></path>
                        <path d="M39.3639344,71.6393443 C39.3639344,71.6393443 39.3639344,71.6393443 39.3639344,71.6393443 C38.3081967,72.242623 37.4032787,72.8459016 36.4983607,73.2983607 L36.4983607,73.4491803 C37.4032787,72.8459016 38.4590164,72.242623 39.3639344,71.6393443 L39.3639344,71.4885246 C39.5147541,71.6393443 39.5147541,71.6393443 39.3639344,71.6393443 Z" id="Path" fill="#C00D0D"></path>
                        <path d="M36.6491803,69.8295082 C36.4983607,69.8295082 36.4983607,69.8295082 36.347541,69.8295082 C35.5934426,69.9803279 34.6885246,69.9803279 33.9344262,70.1311475 C31.2196721,68.0196721 28.3540984,66.0590164 25.4885246,64.2491803 L25.4885246,64.4 C28.3540984,66.2098361 31.2196721,68.1704918 33.9344262,70.2819672 C34.8393443,70.1311475 35.7442623,70.1311475 36.6491803,69.9803279 C37.5540984,70.4327869 38.3081967,70.8852459 39.2131148,71.4885246 C39.3639344,71.4885246 39.5147541,71.4885246 39.5147541,71.4885246 C38.6098361,71.0360656 37.5540984,70.4327869 36.6491803,69.8295082 Z" id="Path" fill="#C8411B"></path>
                        <path d="M23.5278689,82.347541 C27.9016393,79.7836066 32.4262295,77.5213115 37.1016393,75.2590164 L37.1016393,74.957377 C32.5770492,77.2196721 28.052459,79.4819672 23.5278689,82.0459016 L23.5278689,82.347541 Z" id="Path" fill="#C8411B"></path>
                        <path d="M42.5311475,73.2983607 C41.4754098,77.8229508 40.4196721,82.4983607 39.5147541,87.0229508 L39.5147541,87.1737705 C40.4196721,82.6491803 41.4754098,77.9737705 42.5311475,73.4491803 C45.547541,75.2590164 50.0721311,78.2754098 55.652459,82.347541 L55.652459,82.0459016 C51.4295082,79.0295082 47.0557377,76.0131148 42.5311475,73.2983607 Z" id="Path" fill="#A81815"></path>
                        <path d="M47.357377,73.7508197 L47.2065574,73.6 L47.2065574,73.9016393 C51.4295082,77.3704918 54.747541,80.5377049 58.6688525,84.4590164 C58.8196721,84.6098361 59.1213115,84.7606557 59.2721311,84.7606557 C55.2,80.6885246 51.4295082,77.2196721 47.357377,73.7508197 Z" id="Path" fill="#A81815"></path>
                        <path d="M31.9737705,69.9803279 C25.7901639,70.7344262 19.757377,71.7901639 13.5737705,73.147541 C13.8754098,73.147541 14.1770492,73.147541 14.4786885,73.147541 C20.3606557,71.9409836 26.0918033,70.8852459 31.9737705,70.1311475 L31.9737705,69.9803279 L31.9737705,69.9803279 Z" id="Path" fill="#C8411B"></path>
                        <path d="M36.6491803,73.2983607 C30.9180328,72.8459016 25.1868852,72.5442623 19.304918,72.5442623 L19.304918,72.695082 C25.0360656,72.695082 30.6163934,72.9967213 36.347541,73.4491803 C36.4983607,73.4491803 36.4983607,73.4491803 36.6491803,73.2983607" id="Path" fill="#C8411B"></path>
                        <path d="M46.904918,69.8295082 C53.2393443,70.5836066 58.9704918,71.6393443 65.1540984,72.9967213 C64.852459,72.9967213 64.4,72.9967213 64.0983607,72.9967213 C58.2163934,71.7901639 52.7868852,70.8852459 46.904918,70.1311475 L46.904918,69.8295082 Z" id="Path" fill="#A81815"></path>
                        <path d="M39.5147541,71.4885246 C46.7540984,71.4885246 54.1442623,71.7901639 61.3836066,72.5442623 L61.3836066,72.695082 C54.1442623,71.9409836 47.0557377,71.6393443 39.8163934,71.6393443 C39.8163934,71.6393443 39.6655738,71.6393443 39.6655738,71.4885246 C39.6655738,71.6393443 39.6655738,71.6393443 39.5147541,71.4885246 C39.6655738,71.4885246 39.6655738,71.4885246 39.8163934,71.4885246" id="Path" fill="#A81815"></path>
                        <path d="M42.5311475,69.8295082 C42.6819672,69.8295082 42.6819672,69.8295082 42.8327869,69.8295082 C46.3016393,67.8688525 49.9213115,66.0590164 53.6918033,64.4 L53.6918033,64.2491803 C49.7704918,65.9081967 46.1508197,67.8688525 42.5311475,69.8295082" id="Path" fill="#A81815"></path>
                        <path d="M42.5311475,69.8295082 C42.3803279,69.3770492 42.2295082,68.7737705 42.0786885,68.3213115 L42.0786885,68.4721311 C42.2295082,68.9245902 42.3803279,69.3770492 42.5311475,69.8295082 C42.5311475,69.8295082 42.5311475,69.8295082 42.5311475,69.8295082" id="Path" fill="#C00D0D"></path>
                        <path d="M40.2688525,100.747541 C40.1180328,100.898361 39.8163934,101.04918 39.5147541,101.2 C39.3639344,101.04918 39.0622951,100.898361 38.7606557,100.747541 C38.7606557,98.7868852 38.7606557,96.8262295 38.7606557,94.7147541 C38.9114754,94.5639344 39.2131148,94.4131148 39.5147541,94.2622951 C39.6655738,94.4131148 39.9672131,94.5639344 40.2688525,94.7147541 C40.2688525,96.6754098 40.2688525,98.6360656 40.2688525,100.747541 Z" id="Path" fill="#FFFFFF"></path>
                        <path d="M4.82622951,86.2688525 C4.67540984,86.4196721 4.52459016,86.7213115 4.52459016,86.8721311 C4.67540984,87.0229508 5.12786885,87.0229508 5.27868852,87.1737705 C7.39016393,86.1180328 9.50163934,84.9114754 11.4622951,83.8557377 C11.6131148,83.5540984 11.6131148,83.4032787 11.6131148,83.1016393 C11.4622951,83.1016393 11.1606557,82.9508197 11.0098361,82.9508197 C9.04918033,84.0065574 6.93770492,85.2131148 4.82622951,86.2688525 Z" id="Path" fill="#FFFFFF"></path>
                        <path d="M3.31803279,74.052459 C3.16721311,74.2032787 2.86557377,74.3540984 2.7147541,74.504918 C2.86557377,74.6557377 2.86557377,74.8065574 3.01639344,74.957377 C4.97704918,74.6557377 6.93770492,74.504918 8.89836066,74.2032787 C9.04918033,74.052459 9.35081967,73.7508197 9.50163934,73.6 C9.35081967,73.4491803 9.2,73.2983607 9.2,73.2983607 C7.23934426,73.4491803 5.27868852,73.7508197 3.31803279,74.052459 Z" id="Path" fill="#FFFFFF"></path>
                        <path d="M10.8590164,64.0983607 C10.7081967,64.2491803 10.4065574,64.2491803 10.2557377,64.4 C10.2557377,64.5508197 10.2557377,64.7016393 10.2557377,64.852459 C11.7639344,65.0032787 13.1213115,65.304918 14.6295082,65.6065574 C14.7803279,65.4557377 15.0819672,65.304918 15.2327869,65.304918 C15.2327869,65.1540984 15.2327869,65.0032787 15.2327869,65.0032787 C13.7245902,64.5508197 12.2163934,64.4 10.8590164,64.0983607 Z" id="Path" fill="#FFFFFF"></path>
                        <path d="M54.747541,58.0655738 C54.8983607,58.0655738 55.0491803,58.0655738 55.3508197,58.0655738 C55.3508197,58.0655738 55.5016393,58.2163934 55.5016393,58.2163934 C54.747541,58.6688525 53.9934426,59.1213115 53.2393443,59.7245902 C53.0885246,59.7245902 52.7868852,59.7245902 52.6360656,59.7245902 C52.6360656,59.5737705 52.4852459,59.5737705 52.4852459,59.4229508 C53.2393443,58.9704918 53.9934426,58.5180328 54.747541,58.0655738 Z" id="Path" fill="#FFFFFF"></path>
                        <path d="M39.0622951,55.9540984 C39.2131148,55.9540984 39.3639344,55.8032787 39.5147541,55.8032787 C39.6655738,55.8032787 39.8163934,55.9540984 39.9672131,55.9540984 C39.9672131,56.557377 39.9672131,57.1606557 39.9672131,57.7639344 C39.8163934,57.7639344 39.6655738,57.9147541 39.5147541,57.9147541 C39.3639344,57.9147541 39.2131148,57.7639344 39.0622951,57.7639344 C39.0622951,57.1606557 39.0622951,56.557377 39.0622951,55.9540984 Z" id="Path" fill="#FFFFFF"></path>
                        <path d="M23.3770492,58.3672131 C23.3770492,58.3672131 23.6786885,58.2163934 23.6786885,58.0655738 C23.8295082,58.0655738 23.9803279,58.0655738 24.2819672,58.0655738 C25.0360656,58.5180328 25.7901639,58.9704918 26.5442623,59.5737705 C26.5442623,59.7245902 26.3934426,59.7245902 26.3934426,59.8754098 C26.242623,59.8754098 25.9409836,59.8754098 25.7901639,59.8754098 C24.8852459,59.2721311 24.1311475,58.8196721 23.3770492,58.3672131 Z" id="Path" fill="#FFFFFF"></path>
                        <path d="M18.852459,96.9770492 C18.5508197,96.9770492 18.2491803,96.9770492 17.947541,97.1278689 C17.947541,96.9770492 17.7967213,96.6754098 17.6459016,96.5245902 C19.1540984,94.7147541 20.5114754,93.0557377 22.0196721,91.3967213 C22.3213115,91.3967213 22.6229508,91.2459016 22.9245902,91.2459016 C22.9245902,91.3967213 23.0754098,91.6983607 23.2262295,91.8491803 C21.7180328,93.5081967 20.2098361,95.3180328 18.852459,96.9770492 Z" id="Path" fill="#FFFFFF"></path>
                        <path d="M73.7508197,86.2688525 C73.9016393,86.4196721 74.052459,86.7213115 74.052459,86.8721311 C73.9016393,87.0229508 73.4491803,87.0229508 73.2983607,87.1737705 C71.1868852,86.1180328 69.0754098,84.9114754 67.1147541,83.8557377 C66.9639344,83.5540984 66.9639344,83.4032787 66.9639344,83.1016393 C67.1147541,83.1016393 67.4163934,82.9508197 67.5672131,82.9508197 C69.6786885,84.0065574 71.7901639,85.2131148 73.7508197,86.2688525 Z" id="Path" fill="#FFFFFF"></path>
                        <path d="M67.8688525,64.0983607 C68.0196721,64.2491803 68.3213115,64.2491803 68.4721311,64.4 C68.4721311,64.5508197 68.4721311,64.7016393 68.4721311,64.852459 C66.9639344,65.0032787 65.6065574,65.304918 64.0983607,65.6065574 C63.947541,65.4557377 63.6459016,65.304918 63.495082,65.304918 C63.495082,65.1540984 63.495082,65.0032787 63.6459016,65.0032787 C65.0032787,64.5508197 66.3606557,64.4 67.8688525,64.0983607 Z" id="Path" fill="#FFFFFF"></path>
                        <path d="M59.8754098,96.9770492 C60.1770492,96.9770492 60.4786885,97.1278689 60.7803279,97.1278689 C60.9311475,96.9770492 60.9311475,96.6754098 61.0819672,96.5245902 C59.5737705,94.7147541 58.2163934,93.0557377 56.7081967,91.3967213 C56.4065574,91.3967213 56.104918,91.2459016 55.8032787,91.2459016 C55.8032787,91.3967213 55.652459,91.6983607 55.5016393,91.8491803 C57.0098361,93.5081967 58.5180328,95.3180328 59.8754098,96.9770492 Z" id="Path" fill="#FFFFFF"></path>
                        <path d="M4.82622951,86.5704918 C4.82622951,86.7213115 4.67540984,86.8721311 4.67540984,86.8721311 C4.67540984,86.8721311 4.52459016,86.8721311 4.52459016,86.8721311 C4.67540984,86.7213115 4.82622951,86.4196721 4.82622951,86.2688525 C6.93770492,85.2131148 9.04918033,84.157377 11.0098361,83.1016393 C11.1606557,83.1016393 11.4622951,83.252459 11.6131148,83.252459 C11.6131148,83.4032787 11.4622951,83.5540984 11.4622951,83.5540984 C11.3114754,83.5540984 11.0098361,83.4032787 10.8590164,83.4032787 C9.04918033,84.4590164 6.93770492,85.5147541 4.82622951,86.5704918 Z" id="Path" fill="#CA581A"></path>
                        <path d="M3.46885246,74.3540984 C3.31803279,74.504918 3.01639344,74.6557377 3.01639344,74.6557377 C3.01639344,74.6557377 3.01639344,74.504918 2.86557377,74.504918 C3.01639344,74.3540984 3.31803279,74.2032787 3.46885246,74.052459 C5.4295082,73.7508197 7.39016393,73.6 9.35081967,73.2983607 C9.50163934,73.4491803 9.65245902,73.6 9.65245902,73.6 C9.65245902,73.6 9.65245902,73.6 9.50163934,73.7508197 C9.50163934,73.7508197 9.35081967,73.6 9.35081967,73.6 C7.23934426,73.7508197 5.4295082,74.052459 3.46885246,74.3540984 Z" id="Path" fill="#CA581A"></path>
                        <path d="M10.2557377,64.7016393 C10.2557377,64.5508197 10.2557377,64.5508197 10.2557377,64.4 C10.4065574,64.2491803 10.7081967,64.2491803 10.8590164,64.0983607 C12.3672131,64.2491803 13.7245902,64.5508197 15.0819672,64.852459 C15.0819672,65.0032787 15.0819672,65.1540984 15.0819672,65.1540984 C15.0819672,65.1540984 12.2163934,64.5508197 10.7081967,64.4 C10.7081967,64.5508197 10.4065574,64.5508197 10.2557377,64.7016393 Z" id="Path" fill="#CA581A"></path>
                        <path d="M55.2,58.3672131 C55.3508197,58.3672131 55.3508197,58.3672131 55.2,58.3672131 C55.3508197,58.3672131 55.3508197,58.3672131 55.3508197,58.2163934 C55.3508197,58.2163934 55.2,58.0655738 55.2,58.0655738 C55.0491803,58.0655738 54.8983607,58.0655738 54.5967213,58.0655738 C53.842623,58.5180328 53.0885246,58.9704918 52.3344262,59.5737705 C52.3344262,59.5737705 52.4852459,59.7245902 52.4852459,59.7245902 C53.2393443,59.2721311 53.842623,58.8196721 54.5967213,58.3672131 C54.8983607,58.3672131 55.0491803,58.3672131 55.2,58.3672131 Z" id="Path" fill="#A81815"></path>
                        <path d="M39.0622951,56.2557377 C39.2131148,56.2557377 39.3639344,56.104918 39.5147541,56.104918 C39.6655738,56.104918 39.8163934,56.2557377 39.9672131,56.2557377 L39.9672131,55.9540984 C39.8163934,55.9540984 39.6655738,55.8032787 39.5147541,55.8032787 C39.3639344,55.8032787 39.2131148,55.9540984 39.0622951,55.9540984 L39.0622951,56.2557377 Z" id="Path" fill="#B6110E"></path>
                        <path d="M24.2819672,58.3672131 C25.0360656,58.8196721 25.6393443,59.2721311 26.3934426,59.7245902 C26.3934426,59.7245902 26.5442623,59.5737705 26.5442623,59.5737705 C25.7901639,59.1213115 25.0360656,58.5180328 24.2819672,58.0655738 C24.1311475,58.0655738 23.9803279,58.0655738 23.6786885,58.0655738 C23.6786885,58.0655738 23.3770492,58.2163934 23.3770492,58.3672131 C23.3770492,58.3672131 23.5278689,58.5180328 23.5278689,58.5180328 C23.5278689,58.5180328 23.6786885,58.3672131 23.6786885,58.3672131 C23.8295082,58.3672131 23.9803279,58.3672131 24.2819672,58.3672131 Z" id="Path" fill="#C8411B"></path>
                        <path d="M22.9245902,91.3967213 C23.0754098,91.547541 23.0754098,91.6983607 23.2262295,91.8491803 C23.2262295,91.8491803 23.2262295,91.8491803 23.3770492,91.6983607 C23.3770492,91.547541 23.2262295,91.2459016 23.0754098,91.095082 C22.7737705,91.095082 22.4721311,91.2459016 22.1704918,91.2459016 C20.6622951,92.904918 19.1540984,94.7147541 17.7967213,96.3737705 C17.7967213,96.5245902 17.947541,96.5245902 17.947541,96.6754098 C18.852459,95.6196721 20.9639344,93.2065574 22.3213115,91.3967213 C22.3213115,91.547541 22.6229508,91.547541 22.9245902,91.3967213 Z" id="Path" fill="#A81815"></path>
                        <path d="M73.7508197,86.5704918 C73.7508197,86.7213115 73.9016393,86.8721311 73.9016393,86.8721311 C73.9016393,86.8721311 74.052459,86.8721311 74.052459,86.8721311 C73.9016393,86.7213115 73.7508197,86.4196721 73.7508197,86.2688525 C71.6393443,85.2131148 69.5278689,84.157377 67.5672131,83.1016393 C67.4163934,83.1016393 67.1147541,83.252459 66.9639344,83.252459 C66.9639344,83.4032787 67.1147541,83.5540984 67.1147541,83.5540984 C67.2655738,83.5540984 67.5672131,83.4032787 67.7180328,83.4032787 C69.6786885,84.4590164 71.7901639,85.5147541 73.7508197,86.5704918 Z" id="Path" fill="#A81815"></path>
                        <path d="M68.4721311,64.7016393 C68.4721311,64.5508197 68.4721311,64.5508197 68.4721311,64.4 C68.3213115,64.2491803 68.0196721,64.2491803 67.8688525,64.0983607 C66.3606557,64.2491803 65.0032787,64.5508197 63.6459016,64.852459 C63.6459016,65.0032787 63.6459016,65.1540984 63.495082,65.1540984 C63.495082,65.1540984 66.3606557,64.5508197 67.8688525,64.4 C68.0196721,64.5508197 68.3213115,64.5508197 68.4721311,64.7016393 Z" id="Path" fill="#A81815"></path>
                        <path d="M55.8032787,91.3967213 C55.652459,91.547541 55.652459,91.6983607 55.5016393,91.8491803 C55.5016393,91.8491803 55.5016393,91.8491803 55.3508197,91.6983607 C55.3508197,91.547541 55.5016393,91.2459016 55.652459,91.095082 C55.9540984,91.095082 56.2557377,91.2459016 56.557377,91.2459016 C58.0655738,92.904918 59.5737705,94.7147541 60.9311475,96.3737705 C60.9311475,96.5245902 60.9311475,96.5245902 60.7803279,96.6754098 C59.8754098,95.6196721 57.7639344,93.2065574 56.4065574,91.3967213 C56.4065574,91.547541 56.104918,91.547541 55.8032787,91.3967213 Z" id="Path" fill="#A81815"></path>
                        <path d="M40.1180328,94.8655738 L40.2688525,100.596721 L40.2688525,94.5639344 C40.1180328,94.4131148 39.8163934,94.2622951 39.5147541,94.1114754 C39.3639344,94.2622951 39.0622951,94.4131148 38.7606557,94.5639344 L38.7606557,100.596721 L38.9114754,94.8655738 C39.0622951,94.7147541 39.3639344,94.5639344 39.5147541,94.5639344 C39.8163934,94.7147541 39.9672131,94.8655738 40.1180328,94.8655738 Z" id="Path" fill="#A81815"></path>
                        <path d="M10.7081967,73.4491803 C13.2721311,61.8360656 29.4098361,58.3672131 39.5147541,58.3672131 C49.6196721,58.3672131 65.757377,61.8360656 68.3213115,73.4491803 C71.4885246,87.9278689 50.0721311,93.2065574 39.5147541,93.2065574 C28.957377,93.2065574 7.39016393,87.7770492 10.7081967,73.4491803 Z M11.7639344,73.2983607 C14.1770492,62.1377049 29.7114754,58.8196721 39.5147541,58.8196721 C49.1672131,58.8196721 64.852459,62.1377049 67.2655738,73.2983607 C70.2819672,87.1737705 49.6196721,92.3016393 39.5147541,92.3016393 C29.4098361,92.3016393 8.74754098,87.1737705 11.7639344,73.2983607 Z" id="Shape" fill="#C8411B"></path>
                        <path d="M10.7081967,73.7508197 C13.2721311,62.1377049 28.6557377,58.6688525 39.5147541,58.6688525 C50.2229508,58.6688525 65.757377,62.1377049 68.3213115,73.7508197 C71.4885246,88.2295082 49.9213115,93.5081967 39.5147541,93.5081967 C29.1081967,93.5081967 7.54098361,88.2295082 10.7081967,73.7508197 Z M11.7639344,73.6 C14.1770492,62.4393443 29.7114754,59.1213115 39.5147541,59.1213115 C49.1672131,59.1213115 64.852459,62.4393443 67.2655738,73.6 C70.2819672,87.4754098 49.6196721,92.6032787 39.5147541,92.6032787 C29.5606557,92.6032787 8.74754098,87.4754098 11.7639344,73.6 Z" id="Shape" fill="#FFFFFF"></path>
                        <path d="M73.9016393,76.1639344 L69.2262295,75.4098361 L68.6229508,75.2590164 C67.8688525,75.1081967 66.3606557,74.2032787 65.6065574,73.2983607 C64.852459,72.242623 63.3442623,70.4327869 62.4393443,69.3770492 C61.2327869,67.8688525 58.5180328,66.5114754 58.0655738,65.9081967 C57.6131148,65.304918 57.0098361,64.2491803 56.8590164,63.7967213 C56.7081967,63.3442623 56.2557377,63.042623 55.5016393,63.042623 C54.747541,63.042623 54.747541,63.3442623 54.1442623,63.3442623 C53.5409836,63.3442623 52.6360656,63.1934426 52.6360656,63.1934426 C52.3344262,63.042623 52.0327869,63.042623 51.7311475,63.042623 C51.4295082,63.6459016 50.8262295,64.0983607 49.3180328,64.0983607 C49.1672131,64.0983607 49.1672131,64.0983607 49.0163934,64.0983607 C49.1672131,64.4 50.5245902,64.5508197 50.6754098,64.5508197 C50.8262295,64.5508197 52.1836066,64.852459 52.3344262,65.0032787 C52.9377049,65.1540984 52.7868852,64.852459 53.6918033,65.4557377 C55.2,66.3606557 57.4622951,68.7737705 57.9147541,70.7344262 C58.2163934,71.9409836 60.1770492,73.7508197 60.3278689,74.8065574 C57.7639344,74.6557377 54.1442623,72.8459016 54.1442623,72.8459016 L53.6918033,72.695082 C53.6918033,72.695082 52.1836066,71.9409836 49.7704918,71.7901639 C45.2459016,71.3377049 43.5868852,70.7344262 43.1344262,70.5836066 C42.2295082,70.2819672 42.3803279,70.1311475 41.6262295,70.1311475 C41.4754098,70.1311475 41.3245902,70.1311475 41.1737705,70.1311475 C41.0229508,70.2819672 41.0229508,70.4327869 40.7213115,70.5836066 C39.8163934,71.3377049 39.3639344,71.9409836 38.6098361,73.147541 C38.4590164,73.4491803 38.157377,73.6 37.704918,73.7508197 C38.6098361,73.6 40.2688525,73.147541 40.2688525,73.147541 C41.9278689,72.9967213 44.3409836,73.6 44.3409836,73.6 C45.2459016,73.7508197 46.7540984,74.3540984 46.7540984,74.3540984 C46.7540984,74.3540984 53.2393443,76.3147541 54.747541,77.5213115 C55.8032787,78.2754098 61.0819672,80.2360656 62.5901639,80.8393443 C63.947541,81.2918033 67.4163934,83.252459 67.4163934,83.252459 C68.3213115,84.0065574 73.4491803,86.2688525 74.957377,86.7213115 C76.7672131,83.5540984 77.3704918,80.2360656 76.9180328,77.0688525 L76.9180328,77.0688525 L73.9016393,76.1639344 Z" id="Path" fill="#4F2644" fill-rule="nonzero" opacity="0.45"></path>
                        <path d="M61.8360656,86.5704918 C61.8360656,86.5704918 61.5344262,86.1180328 59.8754098,86.1180328 C58.8196721,86.1180328 60.3278689,88.5311475 60.3278689,88.5311475 C61.2327869,89.1344262 64.7016393,90.1901639 65.304918,90.1901639 C66.0590164,90.3409836 68.3213115,90.9442623 68.3213115,90.9442623 C68.3213115,90.9442623 69.5278689,91.095082 70.8852459,91.547541 C71.0360656,91.3967213 71.3377049,91.2459016 71.4885246,90.9442623 C72.242623,90.1901639 72.8459016,89.4360656 73.4491803,88.6819672 C70.5836066,88.6819672 66.5114754,88.5311475 63.495082,87.0229508 C63.3442623,86.2688525 61.8360656,86.5704918 61.8360656,86.5704918 Z" id="Path" fill="#4F2644" fill-rule="nonzero" opacity="0.45"></path>
                        <path d="M53.2393443,41.6262295 C53.2393443,41.6262295 52.3344262,40.7213115 52.3344262,40.7213115 C52.3344262,40.4196721 52.6360656,39.9672131 52.6360656,39.5147541 C52.4852459,39.5147541 52.4852459,39.3639344 52.3344262,39.3639344 C52.0327869,38.4590164 51.8819672,36.9508197 52.3344262,36.0459016 C52.4852459,35.5934426 52.7868852,35.1409836 52.6360656,34.5377049 C51.8819672,31.8229508 50.2229508,29.5606557 49.1672131,26.9967213 C48.8655738,26.242623 48.8655738,25.7901639 48.8655738,25.0360656 C47.9606557,24.1311475 47.0557377,21.7180328 46.6032787,20.2098361 C45.547541,22.7737705 44.9442623,25.6393443 44.9442623,26.242623 C44.9442623,29.1081967 47.8098361,30.4655738 46.7540984,35.1409836 C46.6032787,36.0459016 46.1508197,37.252459 45.8491803,38.6098361 C46.452459,41.9278689 46.452459,44.1901639 47.357377,47.9606557 C48.5639344,49.1672131 49.6196721,50.6754098 50.0721311,52.6360656 C50.3737705,53.842623 51.4295082,56.7081967 52.7868852,57.1606557 C53.5409836,57.4622951 50.0721311,58.0655738 49.0163934,56.8590164 C48.1114754,55.652459 46.3016393,54.5967213 45.547541,53.3901639 C44.9442623,52.3344262 43.8885246,50.2229508 43.2852459,49.1672131 L42.5311475,53.2393443 C43.5868852,57.4622951 42.9836066,58.5180328 42.0786885,61.9868852 C41.6262295,63.495082 38.6098361,56.4065574 38.6098361,55.9540984 C38.6098361,54.4459016 38.4590164,53.842623 38.157377,52.4852459 C37.5540984,51.2786885 37.5540984,49.4688525 37.704918,48.1114754 C37.8557377,45.8491803 37.8557377,41.6262295 37.8557377,40.5704918 C37.1016393,38.7606557 35.1409836,35.2918033 34.9901639,33.3311475 C34.6885246,30.3147541 35.1409836,27.2983607 34.8393443,24.4327869 C34.3868852,25.9409836 33.7836066,27.7508197 32.5770492,28.957377 C30.9180328,30.6163934 29.2590164,32.5770492 27.7508197,34.3868852 C27.147541,35.1409836 27.7508197,35.5934426 26.8459016,36.8 C25.9409836,38.0065574 26.3934426,37.4032787 26.242623,38.6098361 C26.242623,38.7606557 26.0918033,38.9114754 26.0918033,39.0622951 C25.6393443,39.2131148 25.1868852,39.5147541 24.4327869,39.2131148 C23.2262295,38.6098361 23.0754098,37.5540984 22.9245902,36.347541 C22.7737705,34.0852459 24.4327869,33.9344262 25.4885246,32.5770492 C27.4491803,29.8622951 28.3540984,25.1868852 30.4655738,23.0754098 C30.6163934,22.6229508 31.0688525,21.1147541 31.9737705,19.0032787 C31.9737705,16.2885246 32.7278689,13.8754098 35.442623,12.6688525 C36.6491803,12.2163934 38.157377,12.0655738 38.157377,10.557377 C38.157377,10.4065574 38.157377,9.80327869 38.0065574,9.65245902 C37.5540984,9.35081967 37.252459,9.2 36.9508197,9.04918033 C36.6491803,8.44590164 36.1967213,4.67540984 36.1967213,4.52459016 C36.8,1.35737705 38.4590164,0.301639344 40.2688525,0.301639344 C42.6819672,0.452459016 44.4918033,1.50819672 44.4918033,4.52459016 C44.3409836,6.93770492 41.7770492,10.2557377 45.6983607,11.4622951 C47.2065574,11.9147541 47.5081967,11.6131148 48.7147541,12.8196721 C50.0721311,14.1770492 50.5245902,16.7409836 50.6754098,19.1540984 L52.1836066,22.4721311 C54.747541,26.8459016 53.842623,28.3540984 54.8983607,32.8786885 C55.2,34.0852459 55.652459,35.1409836 55.652459,37.704918 C55.5016393,38.7606557 54.5967213,41.4754098 53.2393443,41.6262295 Z" id="Path" fill="#FAB650" fill-rule="nonzero"></path>
                        <path d="M25.7901639,38.3081967 C25.9409836,37.1016393 25.7901639,37.252459 26.5442623,36.1967213 C27.2983607,35.1409836 26.8459016,34.6885246 27.6,33.7836066 C29.1081967,31.8229508 30.6163934,30.0131148 32.2754098,28.2032787 C33.4819672,26.9967213 34.9901639,23.0754098 35.2918033,21.7180328 C35.2918033,21.5672131 35.442623,21.4163934 35.5934426,21.5672131 C35.895082,24.1311475 36.1967213,26.3934426 36.0459016,28.957377 C35.895082,34.3868852 36.0459016,33.7836066 38.3081967,38.9114754 C38.4590164,36.9508197 38.9114754,33.9344262 40.1180328,32.8786885 C38.7606557,38.157377 38.6098361,45.6983607 38.4590164,47.9606557 C38.4590164,49.1672131 38.0065574,50.9770492 38.6098361,52.0327869 C38.7606557,52.7868852 38.7606557,53.842623 38.7606557,54.747541 C38.7606557,55.2 38.7606557,63.947541 38.7606557,63.947541 L38.0065574,67.8688525 C37.704918,69.0754098 36.1967213,71.0360656 35.1409836,71.6393443 C34.8393443,71.7901639 33.9344262,72.242623 33.9344262,72.695082 C33.9344262,73.2983607 38.0065574,74.504918 39.0622951,73.147541 C39.8163934,72.0918033 40.4196721,71.4885246 41.1737705,70.5836066 C42.5311475,69.3770492 41.0229508,68.0196721 41.1737705,66.3606557 C41.4754098,63.495082 42.6819672,60.9311475 43.1344262,58.0655738 C43.4360656,56.4065574 43.2852459,54.8983607 42.5311475,53.0885246 L43.1344262,47.8098361 C43.7377049,48.7147541 44.3409836,50.2229508 44.9442623,51.4295082 C46,53.5409836 46,53.842623 47.8098361,55.5016393 C48.4131148,56.104918 49.0163934,56.8590164 49.4688525,57.4622951 C50.3737705,58.8196721 50.8262295,60.1770492 50.8262295,61.6852459 C50.2229508,62.7409836 49.9213115,62.7409836 49.1672131,63.3442623 C49.1672131,63.3442623 49.0163934,63.947541 49.7704918,63.947541 C52.4852459,63.947541 52.1836066,62.5901639 53.0885246,60.7803279 C53.6918033,59.5737705 55.652459,57.7639344 53.5409836,57.1606557 C52.9377049,57.0098361 52.3344262,56.557377 51.8819672,55.9540984 C50.5245902,53.5409836 50.3737705,53.6918033 49.6196721,51.4295082 C49.1672131,50.0721311 48.2622951,49.0163934 47.2065574,48.1114754 C46.6032787,46.6032787 46.3016393,45.547541 46,43.8885246 C45.6983607,41.7770492 45.547541,40.1180328 45.095082,38.0065574 C46.1508197,33.9344262 46.6032787,33.0295082 44.9442623,28.957377 C44.4918033,28.052459 44.3409836,26.9967213 44.3409836,25.9409836 C44.3409836,24.5836066 45.095082,21.5672131 45.8491803,20.0590164 C46.1508197,19.4557377 46.452459,18.852459 46.904918,18.7016393 C47.357377,20.3606557 48.8655738,23.6786885 49.6196721,24.4327869 C49.6196721,25.0360656 49.6196721,25.7901639 49.9213115,26.3934426 C50.9770492,28.957377 52.6360656,31.3704918 53.3901639,34.0852459 C53.6918033,34.9901639 53.2393443,35.442623 53.0885246,36.1967213 C52.9377049,36.4983607 52.9377049,37.5540984 53.0885246,38.4590164 L53.3901639,38.6098361 C53.3901639,38.9114754 53.0885246,39.5147541 53.0885246,39.8163934 C53.0885246,40.1180328 53.5409836,40.4196721 53.5409836,40.4196721 C54.1442623,40.2688525 55.0491803,38.157377 54.8983607,37.252459 C54.747541,34.5377049 54.295082,33.4819672 54.1442623,32.5770492 C53.2393443,28.052459 53.842623,26.8459016 51.2786885,22.4721311 L49.7704918,19.304918 C49.6196721,17.495082 48.8655738,13.4229508 46.6032787,12.6688525 C46.1508197,12.5180328 45.8491803,12.5180328 45.2459016,12.3672131 C42.2295082,11.3114754 42.2295082,9.04918033 42.9836066,6.4852459 C43.7377049,4.22295082 43.7377049,1.50819672 40.4196721,1.35737705 C38.3081967,1.20655738 37.704918,2.86557377 37.252459,4.67540984 C37.252459,4.82622951 37.4032787,7.84262295 37.8557377,8.59672131 C38.7606557,9.2 39.2131148,9.04918033 39.2131148,10.7081967 C39.2131148,12.0655738 38.3081967,12.9704918 37.1016393,13.2721311 C35.1409836,14.0262295 34.2360656,14.3278689 33.4819672,16.2885246 C33.3311475,16.8918033 33.0295082,17.7967213 33.0295082,19.1540984 L33.0295082,19.304918 C32.4262295,20.6622951 31.8229508,22.3213115 31.3704918,23.6786885 C28.957377,26.0918033 27.7508197,31.5213115 25.3377049,33.7836066 C23.6786885,35.2918033 23.2262295,35.442623 23.8295082,37.704918 C23.8295082,38.0065574 24.5836066,38.6098361 24.8852459,38.6098361 C25.0360656,38.7606557 25.7901639,38.3081967 25.7901639,38.3081967 Z" id="Path" fill="url(#linearGradient-3)" fill-rule="nonzero"></path>
                    </g>
                </g>
            </g>
        </g>
    </g>
</svg>