<svg height="360" viewBox="0 0 640 360" width="640" xmlns="http://www.w3.org/2000/svg"><g fill="#fff" transform="matrix(2.1402301 0 0 2.1402301 63.692071 121.14248)"><path d="m164.06557 31.262295c-.78688 5.036066-3.3836 7.632787-6.45246 7.632787-1.96721 0-3.06885-1.416394-2.75409-3.540984l1.10164-6.767213c.39344-2.518033 1.96721-4.485246 4.64262-4.485246 2.83279 0 4.24918 2.045902 3.46229 7.160656zm-10.70164 9.993443c.39345 0 1.4164 1.731147 4.72132 1.731147 6.92459 0 10.9377-5.036065 12.03934-11.567213 1.41639-8.026229-2.51803-11.645902-7.39672-11.645902-2.28197 0-4.01312.236066-5.27213.865574l1.88852-11.0163932h-5.82295l-5.74426 32.9704922h4.32787c0 .07869.62951-1.337705 1.25901-1.337705zm61.61312-14.006558c.86557-4.957377-.94426-7.396721-6.37377-7.396721-4.01312 0-5.58689 1.809836-7.08197 3.304918l.15738-2.754098h-5.35082l-.39344 4.091803-3.06886 18.177049h5.90164l1.88853-11.803279c.70819-4.091803 3.46229-7.160655 6.1377-7.160655 2.91148 0 2.91148 1.652459 2.43935 4.24918l-2.51804 14.714754h5.82295zm24.39344-7.396721h-6.8459l-7.86885 8.340984h-.0787l3.14754-18.4131151h-5.66557l-5.74427 32.8918031h5.82295l.55082-3.304918 1.18033-7.239344c3.06885 0 4.8.314754 6.13771 6.452459l.94426 4.091803h5.90164s-1.49508-6.216393-2.43935-8.655738c-1.02295-2.596721-2.12459-4.24918-4.48524-4.721311zm-168.078687 8.104918c4.249181-.944262 6.452459-4.327869 7.003279-6.609836 1.495082-6.137705-1.180328-10.937705-9.04918-10.859016h-8.970492l-5.586885 32.104918h5.901639l2.360656-12.82623c5.350819-.157377 6.059016 1.180328 7.081967 7.396721l.944262 5.508197h6.059017c-.708197-3.304918-1.180328-6.452459-1.731148-8.970492-.629508-2.67541-1.57377-4.721311-4.091803-5.665573zm1.180328-7.711475c-.472131 2.832786-2.67541 4.878688-5.429508 4.878688h-3.462295l1.809836-10.150819h3.147541c3.698361 0 4.406557 2.439344 3.934426 5.272131zm26.360656 6.059016c.865574-4.878688-1.731148-6.531148-7.003279-6.531148-6.531147 0-9.363934 3.068853-9.363934 3.068853l2.045901 3.383606s2.124591-2.439344 6.373771-2.439344c2.360656 0 2.439344 1.180328 2.203279 2.439344l-.472132 2.911476c-8.419672-.236066-12.74754 1.57377-13.691803 7.160656-.786885 4.563934 2.596721 6.688524 6.452459 6.688524 1.967213 0 3.540984-.314754 5.508197-1.967213.393442 1.101639 1.022951 1.652459 1.809836 1.809836 1.180328.236066 3.304918 0 3.934426-.472131-.07869-.708197 0-2.360656.708197-6.452459zm-6.92459 5.980328c-.944263 6.609836-1.809836 7.318033-5.036066 7.318033-2.203279 0-2.990164-1.495082-2.596721-3.462295.550819-2.754099 2.596721-3.855738 7.632787-3.855738zm99.462293-5.980328c.86558-4.878688-1.73115-6.531148-7.00328-6.531148-6.53114 0-9.36393 3.068853-9.36393 3.068853l2.0459 3.383606s2.12459-2.439344 6.37377-2.439344c2.36066 0 2.43934 1.180328 2.20328 2.439344l-.47213 2.911476c-8.41967-.236066-12.74754 1.57377-13.69181 7.160656-.78688 4.563934 2.59673 6.688524 6.45246 6.688524 1.96722 0 3.54099-.314754 5.5082-1.967213.39344 1.101639 1.02295 1.652459 1.80984 1.809836 1.18032.236066 3.30491 0 3.93442-.472131-.0787-.708197 0-2.360656.7082-6.452459zm-6.92459 5.980328c-.94426 6.609836-1.80983 7.318033-5.03606 7.318033-2.20328 0-2.99017-1.495082-2.59673-3.462295.47214-2.754099 2.51804-3.855738 7.63279-3.855738zm-73.88852 10.780328c6.92459 0 10.9377-5.036066 12.03934-11.567213 1.4164-8.02623-2.51803-11.645902-7.39672-11.645902-2.28197 0-3.93443.236066-5.27213.865574l1.88852-11.0163937h-5.82295l-5.74426 32.9704917h4.32787s.62951-1.337705 1.25902-1.337705c.47213-.07869 1.41639 1.731148 4.72131 1.731148zm2.43934-18.963935c2.99017 0 4.24918 2.045902 3.54099 7.160656-.7082 5.272131-3.38361 7.632787-6.53115 7.632787-1.96722 0-3.06886-1.416394-2.7541-3.540984l1.10164-6.767213c.47213-2.518033 1.96721-4.485246 4.64262-4.485246zm12.03935 9.206558c.86557-8.419672 4.64262-13.613115 13.6918-13.613115 6.68852 0 8.8918 5.114754 7.94754 10.544262-1.41639 8.734426-4.87869 12.904918-13.37705 12.904918-5.5082 0-8.81311-4.485246-8.26229-9.836065zm15.58032-2.596722c.39345-2.281967.86558-6.845901-3.06885-6.845901-2.67541 0-5.19344 1.809836-6.29508 8.183606-.7082 3.855738.0787 7.003279 3.14754 7.003279 2.20328 0 5.03607-1.888525 6.21639-8.340984z"/><path d="m21.715765.04613312c.05438 0 .110205.0025049.167463.0074303.610951.0506903 1.037817.25304105 1.305429.56169776.266996.30865672.364683.70658582.364067 1.11929102 0 .4141418-.09605.8498321-.228825 1.2592538-.148992.4562127-.244216.8949813-.244216 1.2863432.00041.3735075.08496.6998135.286698.9758396.202761.2756157.527835.5085448 1.036585.6735448.296959.097276.497053.1075373.725877.1793657.682985.2228731 1.09528.9099626 1.363302 1.639944.234047.6435821.354749 1.3345126.412842 1.8237258l.01895.173513.74763 1.8468099c.668209 1.154589.940952 1.911455 1.100411 2.67263.160074.762612.208507 1.51722.441436 2.700747.07491.38972.381101 1.054645.429328 2.474589 0 .0072.000411.01642.000411.02709-.0049.406959-.254888 1.109645-.529272 1.50819-.07634.10409-.149403.193206-.249126.243813l-.08026.03037-.04433.0096-.04145-.01888-.03402-.01778c-.02871-.01603-.07237-.04293-.119288-.08134-.06107-.05122-.133838-.125433-.171114-.230718l-.02057-.08492-.0051-.03653.01457-.03386c.05649-.120826.144259-.25435.200285-.381264l.04311-.123997-.241754-.09481-.01498-.07101c-.04925-.238676-.06711-.512034-.06752-.747836.000308-.152687.0075-.286788.02136-.390702l.01599-.09342.0012-.0076c.118209-.328152.23765-.522705.235392-.776772 0-.0864-.01252-.182444-.04556-.29778-.404291-1.433694-1.230318-2.688638-1.81418-4.088675-.143246-.344366-.133395-.690989-.156996-1.010933-.250783-.262481-.540354-.785597-.815559-1.363302-.250784-.532967-.479198-1.104105-.611568-1.5332278-.113776.096045-.220328.2586808-.307363.4474538l-.06142.145848-.0014.0035c-.367761.795038-.756455 2.385523-.753376 3.050859.000615.555335.119029 1.053208.328563 1.524608.446772 1.001492.62778 1.653489.62778 2.298302-.000821.720336-.220411 1.400653-.509571 2.546007.1925 1.160747.295933 1.980206.448004 3.117146.111641.829515.243395 1.370895.579757 2.142127.575653.470373 1.069627 1.053414 1.31569 1.780933.19681.582835.300448.858451.447183 1.144944.14612.287108.342929.596175.722799 1.230727.08992.149727.208178.271785.34408.368389 1.435509.336081 2.816225.776322 4.117077 1.315678 3.771604 1.565038 6.703227 3.888993 8.115988 6.753508l.02237.04579c.06277.112223.124127.225575.183468.339821 1.453601 2.796176 1.317127 7.433004-2.225858 10.99528-3.613993 3.633489-9.50987 5.929534-17.561829 5.929534-8.028974 0-13.9250556-2.229142-17.6954287-5.929534-3.3176763-3.255839-3.82006436-7.749627-2.2488703-10.894477.047743-.09554.095795-.188576.1441936-.279303l.09756-.207078c1.4123509-2.864515 4.3433583-5.18847 8.1153732-6.753508 3.4481722-1.429589 7.4572202-2.162854 11.5268102-2.163265l-.0647-.0065c-.000192-.05152-.000353-.09514-.000479-.129862l-.00029-.08327c-.0088-.437743-.01847-1.011138-.109589-1.372537-.143247-.287109-.180597-.636605-.181418-.991027.00041-.447182.06321-.906884.08414-1.244272.07265-1.139198.115131-4.697164.72362-7.45681-.141399.252221-.267202.580579-.36653.935821-.148445.51973-.250003 1.096323-.307522 1.581445l-.02925.27891-.0472.511623-.208713-.469142c-.449235-1.009291-.725671-1.61819-.892518-2.148899-.167053-.530914-.218974-.981176-.218564-1.640355 0-.431175.02155-.955317.047-1.661287.0051-.146325.0078-.290187.0078-.431791.000205-1.034534-.130728-1.976306-.239701-3.041623-.128471.38931-.331027.915709-.56334 1.437388-.310914.693862-.665131 1.369049-.994515 1.707052-.897854.911605-1.658004 1.926231-2.467201 2.93737-.146735.210559-.176493.362425-.219795.558209-.04248.195578-.09912.429328-.297369.71582-.200299.290392-.266997.410448-.293881.518601-.02533.09358-.02548.214304-.04465.449013l-.01137.127256-.0045.04761-.01088.01047c-.01395.03263-.03366.04946-.04884.06937-.02689.02812-.05685.05274-.09009.07655-.06588.04782-.142835.09256-.213843.123956-.04946.02052-.0866.03858-.150634.04084l-.02591-.0016-.03237-.0081-.0092-.0035c-.06116-.03407-.134832-.08907-.226567-.163564-.08948-.07347-.187164-.160279-.26125-.242369-.04884-.05767-.0905-.101996-.113694-.181623-.08619-.344981-.131801-.604795-.131801-.825616-.0024-.295112.09199-.52291.259861-.72444.167257-.203582.39916-.396903.70597-.689142.611977-.579552 1.089739-1.594589 1.563395-2.626866.470579-1.019552.937463-2.054701 1.583508-2.718806.180925-.621253.448012-1.266937.694293-1.863708l.17914-.4372617v-.022575c.0027-.7244403.09789-1.2175933.211585-1.5652425.177314-.5450747.413116-.8953918.740653-1.1433023.326717-.2479104.727724-.3927985 1.24181-.5742164.601922-.2179478 1.004571-.5939179 1.03125-1.2623321.0012-.043713.0023-.084347.0021-.1221082.000411-.1758769-.0156-.296959-.04125-.3790485-.02647-.082295-.05746-.1270336-.101791-.1705411-.07285-.072854-.210554-.1343076-.391602-.2534799l-.113659-.078983-.01785-.01334-.01252-.018265c-.08168-.1235448-.125392-.295112-.167257-.5044403-.04022-.208097-.06998-.4486194-.09194-.6807276-.04026-.4165019-.05709-.8122249-.0626-.9211655l-.0014-.025327-.0014-.020728.0047-.019701c.112502-.4762236.246718-.93141017.491345-1.28254823.241959-.35175373.617314-.59063433 1.141045-.58698255zm-.895435 28.95020788-.573036.006c-3.817529.07254-7.556951.796896-10.7870888 2.136079-3.7326119 1.547594-6.6080037 3.841586-7.9780783 6.625038-.5651866 1.148432-.85557839 2.335653-.85557839 3.528619.00001409.07476.001166.149553.003462.224371.0860705 2.104362 1.06939079 4.220308 3.04698539 6.160965 3.6778171 3.607836 9.9379671 5.826921 17.2072021 5.827537 7.103423-.000602 13.244283-2.120176 16.951882-5.583724l.08824-.08503c-.652937-.188816-1.26497-.269604-1.26497-.269604s-1.279776-.381922-1.662519-.432202c-.382537-.05048-2.216828-.573806-2.725988-.915298 0 0-.01033-.01703-.02786-.04724-3.436224 2.007181-8.173866 2.868859-11.181883 2.868859-5.550484-.000207-16.9894582-2.934704-15.2733761-10.597763 1.3600436-6.073634 9.3418411-7.966757 15.0392741-8.016864-.0033-.553861-.0053-1.070645-.0067-1.429743zm.266013 20.357334c.111642.07757.265765.15515.377612.23334.0025 1.056287.0043 2.112369.0066 3.168246-.114515.08578-.27069.171157-.384589.256325-.115952-.08517-.274385-.170541-.390952-.256325v-3.168246c.113489-.07778.277258-.155765.391362-.23334zm8.584515-1.64097c.154329.03263.352575.06526.507314.09851.79319.910168 1.576324 1.827518 2.350224 2.751641-.04536.1139-.09584.224105-.145915.332463-.157201-.02463-.385205-.05541-.513265-.0747-.772462-.928023-1.554776-1.848862-2.34735-2.762519.04166-.08845.112668-.250784.148992-.345392zm-17.430074 0c.03591.09461.106921.25694.148787.345392-.792575.913657-1.574888 1.834496-2.347556 2.762519-.1563807.03735-.3566792.03694-.5130598.0747-.034067-.11082-.1120522-.221846-.1459142-.332462.773284-.924123 1.556623-1.841473 2.350634-2.751641.154124-.03325.35278-.06588.507109-.09851zm8.586326-16.93585-.02029-.000288c-5.116944.05658-13.0496799 1.841602-14.3125133 7.634366-1.5892537 7.286679 9.2857653 9.981474 14.5672013 9.981474 2.933349.000228 7.593248-.831152 10.883532-2.819501-.13801-.340951-.207843-.688299.08035-.687776.401911.000556.656128.04451.814112.09259.823472-.606291 1.522936-1.30257 2.033017-2.095119-.524096-.264678-1.104722-.543317-1.453864-.66374-.75584-.261045-3.607426-1.328004-4.158657-1.730243-.529518-.38555-2.083515-.943484-3.163256-1.304269 1.889725 1.650778 3.589289 3.288085 5.411484 5.096807-2.929982-1.673191-5.679982-3.078153-8.731866-4.520672-.592276 2.552575-1.15069 5.112332-1.690224 7.676399-.539534-2.56263-1.035149-5.001921-1.627015-7.553059-3.0525 1.440877-5.829179 2.813824-8.855 4.419496 2.138843-2.120784 4.164403-3.96 6.465373-5.907369-3.261212-.21056-6.387593-.253862-9.7263803-.30168 3.2745523-.707612 6.5119593-1.26069 9.8357653-1.684477-1.638918-1.290243-3.247873-2.487724-5.015672-3.598601 2.516455.639272 4.908545 1.400858 7.3425 2.299534.385164-1.157463.789898-2.309147 1.235743-3.445489l.08816-.218139c-.000477-.128778-.00096-.259468-.0014-.39057-.000354-.0932-.000709-.186601-.0011-.279674zm14.698821 12.443809-.106443.158613c-.452902.655954-1.029503 1.248492-1.6954 1.780858.113722.05243.211967.142813.261602.288951 1.667444.869944 3.865187.896007 5.412575.927817l-.145962-.0032c.264722-.344159.500881-.692256.708966-1.04335-.802694-.27529-3.478723-1.450024-3.944068-1.847476 0 0-.198201-.107921-.49127-.262172zm-13.944177-4.90516s-.161671.04674-.384126.09505l-.08466.0194-.0033.0039c.03156 2.447236-.04322 5.168096-.02252 7.440681.443002-2.134021.747576-4.532167 1.193092-6.723696l.18176-.840324c-.354804-.01644-.693737-.01992-.880262.005zm-15.5974256 5.067183.3357462.08804c-.046791.126212-.071623.218153-.113694.385615-1.0885075.569702-2.1839925 1.15972-3.2911754 1.75056-.1001492-.04125-.3232276-.112258-.4391791-.156586.061772-.119851.12375-.23847.1853172-.357705 1.1030783-.588172 2.2108769-1.158284 3.3229851-1.709924zm12.8171796-4.835234-.395256.249649c-2.091855 1.347893-4.200758 2.901697-6.185375 4.330902 2.352276-1.325131 5.055075-2.814235 7.490056-3.984217-.0307-.134661-.101129-.269443-.176061-.404257-.179336-.02804-.353795-.06916-.513286-.117217-.07757-.02419-.151157-.04903-.220078-.07486zm3.830792-.228171.574041.355556c2.211086 1.373839 4.695672 2.970362 6.734592 4.441878-1.510623-1.396734-3.268291-2.918539-4.918792-4.280095-.02227-.0057-.03347-.0091-.03347-.0091s-.788265-.305578-1.265205-.403059c-.09268-.02687-.58601-.07659-1.09117-.105196zm6.592744-8.232722.01503.02221c.06402.09553.09344.205303.09278.312183-.0033.266586-.148992.5225-.310093.77431-.08173.125489-.169641.24937-.250495.366135 3.609924 1.148053 6.753144 3.28023 7.56057 6.882783.07154.319338.120233.630463.14746.933504l.289256.06655 2.504552.379254 1.765131.367145.02081.0072c-.08969-.602544-.25309-1.200988-.488223-1.791084l-.103587-.0054c-.725794-.03405-1.909473-.09374-2.491145-.402452.0021-.223899-.860709-.281156-.860709-.281156s-.235687-.140156-.237416-.269646l.01495-.0544.681548-.404291s.278079-.06485.521269-.06177c1.028209-.02232 1.573078.05989 1.78627.104108-1.486352-2.454515-4.175733-4.48338-7.57502-5.893269-.984517-.408048-2.016232-.759015-3.082941-1.051854zm2.386526 7.972714-.522215.0064c-.673979.01188-1.345724.03061-2.018801.05529.367738.176268 1.951884.901698 3.180789.993042-.06186-.278506-.349271-.663231-.639773-1.054756zm-3.069681-6.129239-.08219.156684c-.128979.269247-.212645.520606-.315093.747665-.02005.04513-.04127.08959-.06412.133008.124741.0173.467373.05881.726169.04266.322407-.01991.402239-.155149.77903-.188601.42625-.03817.559646.179776.656306.409627.09748.229235.449441.809813.662463 1.140634.212201.331232 1.669701 1.065523 2.307948 1.868153.461548.578937 1.303992 1.508191 1.653899 2.047519.19633.303607.535885.579853.870194.778919-.02447-.213982-.06136-.431927-.10984-.654143-.733816-3.361917-3.713253-5.374162-7.084771-6.482129zm-23.6021502 6.277316c.060951.06136.1214925.122929.182444.185317-.091735.08742-.2083022.199067-.3045522.291623-1.0361754.10569-2.0721455.232519-3.1070896.380485l-.082013-.114463-.08586-.116003.3033209-.243396c1.0306343-.149608 2.0625-.277257 3.0937499-.383563zm14.1461172-.885384-.497442.01166c-2.943985.09589-5.992433.287144-9.1142536.555623 2.8792396.0095 5.6855736.06319 8.5806826.253672l.191208.01385c-.007-.02157-.01136-.04517-.0117-.07113.0012-.101175.04864-.179776.102612-.245858.05562-.06567.123545-.123955.196194-.176698.143862-.10528.305989-.192295.399776-.244011.0487-.02641.09995-.05909.152927-.09712zm3.539872-.936389-.02035.01175c-.0059.08424-.02307.169174-.0537.253222.130369.04323.214093.116885.537027.225509.194728.0653.830133.288517 2.342926.4855 1.985041.07514 3.966795.199437 5.944896.374508l-.0446-.06188-.04306-.0611-.02583-.0046c-2.886495-.490362-5.723083-.883387-8.63732-1.222886zm5.678181-2.474465-.326324.227433c-1.006889.708741-1.965509 1.443427-2.990346 2.2497 2.099033.267852 4.113134.586058 6.137076.962461-.08659-.147256-.149108-.284145-.175323-.405688-.237444-1.104515-1.433899-2.377314-2.233451-2.838657-.223314-.129072-.330803-.176334-.411632-.195249zm-7.471-1.570138.250972-.705303c-.571959 1.567705-1.07681 3.158395-1.552109 4.757089l.303171.169709c.240613-.311101.441727-.651294.536926-.915046l.03847-.125017.426045-2.132892-.000361-.154697c-.000078-.02593-.000167-.05459-.000268-.08579l-.000725-.216165c-.000421-.12182-.000925-.263123-.0015-.418846zm-7.406752.982253c1.536101.970914 3.224477 2.126735 4.672537 3.222425l.716154-.0786.716924-.07429-.73178-.403136c-1.730589-.942247-3.610269-1.887598-5.373835-2.666397zm14.068825.431984-1.029067.33892c-1.372051.463016-2.730268.966042-4.07599 1.50154l.06216-.02358c.07324.247474.151611.493292.155579.74925l.000022.003.01804.06125c1.605021-.891697 3.237121-1.732944 4.904256-2.502244l.171072-.07665c-.06597-.01663-.136585-.03443-.206074-.05147zm-4.210966-2.877422-.111574.474667c-.291515 1.125043-.721634 2.203586-.84039 3.390509-.0045.04618-.0072.09235-.0072.1375l-.000026.003c.02006.07446.04431.149187.06919.22394 1.483836-.547289 3.000551-1.017681 4.52889-1.446106-.0226-.0019-.04817-.0054-.07488-.0095l-.0072-.000252-.175656.0039c-.148992.00041-.265354-.0353-.346623-.107332-.08168-.07265-.110205-.171772-.108974-.249347.000411-.04433.0074-.08435.0197-.119851.01354-.03591.02668-.06629.06075-.100765.205634-.194347.355653-.281977.475709-.380895.116567-.09584.221231-.206866.372687-.474273.0012-.03612.0016-.07162.0016-.107127 0-.210473-.02253-.412051-.06421-.607815-1.278912-.317924-2.573893-.520525-3.791808-.63029zm12.67285 2.510288.295112.127444c-.0094.05869-.0195.166232-.02894.224926-.718489.10138-1.435131.222668-2.150541.362015-.09194-.05397-.216306-.12765-.30291-.17403.01252-.06218.02504-.124571.03735-.187164.715411-.136064 1.432053-.254478 2.149926-.353191zm-30.0474444-.0433c.7619963.104459 1.5227612.230261 2.2814739.374739l.040224.198451c-.09153.04946-.223694.127444-.3209702.184907-.759944-.147966-1.5213246-.276847-2.2835261-.383974-.00965-.06218-.020933-.176492-.030578-.23888.1042537-.04536.2089179-.0905.3133764-.135243zm17.5263424-4.250873.0111.16213.0047.213706c0 .299627-.02729.59638-.07367.903395-.0076.05027-.01566.100367-.0242.150309 1.168917.09637 2.388706.272624 3.592159.543692-.119826-.333041-.292997-.654926-.499041-.982956-.151719-.241132-.343319-.481821-.54568-.706285-.812102-.125161-1.635116-.220161-2.465347-.283991zm-9.910074.988019c.402444.250373.797706.512033 1.187426.782313l-.116157.12806c-.09994-.0016-.246474.02627-.346418.02504-.386231-.272332-.778209-.535634-1.177164-.78806.03735-.03838.121287-.105485.159048-.143246.09789-.0014.195374-.0031.293265-.0041zm9.808265-4.790131-.245858 2.369515c.163923.41468.265156.795371.317879 1.161361l.510799.04234c.56535.05142 1.127012.117251 1.68358.197375l-.02064-.02032c-.473446-.467101-.71951-.735534-.916935-1.035366-.196399-.300038-.336362-.615877-.608489-1.182911-.241549-.504029-.480634-1.08194-.720336-1.531996z"/></g></svg>