<svg height="360" viewBox="0 0 640 360" width="640" xmlns="http://www.w3.org/2000/svg" xmlns:xlink="http://www.w3.org/1999/xlink"><mask id="a" fill="#fff"><path d="m49.4206907 46.5479876c-19.0506262 0-33.0459507-5.1380805-41.99744971-13.669969-7.87272866-7.5009288-9.06626186-17.8606811-5.33647059-25.11083594 1.74566983-3.39071207 3.6628463-5.4123839 6.09262998-7.68978328-1.1406148 1.11331269-2.15945351 2.28173375-3.04440228 3.50216718-.40485768.55665635-.78102467 1.12383901-1.12850095 1.70154799-.02040227.03405573-.04016698.06749226-.06056926.10154799-.02614041.04334365-.05164326.08668731-.07714611.13065015-.03187855.05448917-.06375711.10897833-.0949981.16408669-.01785199.03095975-.03570398.06191951-.05355598.09287926-.0484554.08544891-.09627324.17089783-.14345351.25634675-.01275142.02352941-.02550284.04705882-.03825427.07058823-.03761669.06934985-.07459582.1380805-.11157495.20743034-.01338899.025387-.02677799.050774-.04016698.07616099-.04781784.09040248-.0949981.18080496-.14090323.27182663-1.34336243 2.65077399-2.04150284 5.39876162-2.05170398 8.16284832 0 .0012384.00063757.0024768 0 .003096-.01785199 5.0978328 2.30673245 10.2501548 7.24472106 14.9554179 8.73344976 8.3145511 23.58949526 13.4303406 40.84408346 13.4303406 17.2488501 0 32.1048957-5.1157895 40.8326072-13.4303406.1670437-.1591331.331537-.3188854.492205-.479257.0063757-.0061919.013389-.0130031.0197647-.019195.0318785-.031579.0631195-.0631579.0949981-.0947368.026778-.0272446.053556-.05387.080334-.0811146.0165768-.0167183.0331537-.0340557.0497305-.050774.0427173-.0433436.084797-.0860681.1268767-.1294118.0012751-.0012383.0019127-.0024767.0031878-.0037151.4418368-.4532508.8594459-.9102167 1.2528273-1.3715171.0121139-.0142414.0242277-.0284829.035704-.0427244.0274156-.031579.0541936-.0625387.080334-.0941177 1.2955446-1.5349845 2.3322353-3.1058823 3.1189981-4.698452 1.7055028-3.4260062 2.2557267-6.9139319 1.6914763-10.444582l-.0006376-.0006192c-.2531157-1.6136223-.738945-3.21300311-1.4491992-4.78142416-.0121139-.02662539-.0242277-.05386997-.0363416-.08049535-.0114763-.02414861-.022315-.04829722-.0337913-.07244583-.1045616-.22662538-.2135863-.45201238-.3277115-.67678018-.0733207-.14613003-.1491917-.29040248-.2269754-.43467492-.0070133-.0123839-.013389-.02476781-.0204022-.03715171-.0140266-.02538699-.0280532-.05139319-.0420797-.07739938-.0184896-.03405572-.0369792-.06811145-.0561063-.10278637-.008926-.01609908-.0184896-.03281734-.0274156-.04891641-1.1272258-2.03095976-2.6095787-3.94055728-4.3973282-5.71083592 2.5713244 2.27244582 4.4445085 4.67863777 5.8433396 7.29226006 3.4486224 6.44767807 3.1215484 17.13622287-5.2848273 25.34489167-8.5785199 8.3758514-22.5681063 13.669969-41.681852 13.669969z" fill="#fff" fill-rule="evenodd"/></mask><mask id="b" fill="#fff"><path d="m10.2301291 42.0558904c-.62599711-.4542788-1.22720227-.9190008-1.80361547-1.394166-5.33371593-4.4087671-7.8445911-9.2364222-7.82541866-14.0130217.01112885-2.588751.7652178-5.1629976 2.21623645-7.6461564.57916786-.9921031 1.26232425-1.954037 2.0405165-2.8846414.95586801-1.1435294 2.05635581-2.2383239 3.28837877-3.2814827 2.73400291-2.3143271 6.11190821-4.37163574 9.98496411-6.12551164 1.6404017-.7432071 3.37033-1.43187752 5.1767002-2.06253022 8.7391678-3.05463336 18.9100717-4.62111201 29.2297274-4.62111201.2417216 0 .4772453 0 .718967.0052216-.1432425.95671233-.286485 1.96738114-.2913056 3.02852538-.033056 0-.0668006 0-.0991679 0-13.7285509 0-35.6136585 3.95274778-39.1527116 17.24692989-.6542324 2.4640129-.5612626 4.6976954.1177618 6.715552 1.6555524 5.652087 7.8652511 9.6466076 15.2360402 12.2788719-5.5534003 1.4463819-11.8595122 2.4112167-18.8370732 2.7535213m21.3224677-3.4474134c-7.6910186-2.4599516-14.4185939-6.3709266-16.291076-12.0769702-.508924-1.7933279-.5426686-3.7607091.0137733-5.9102659 3.3221234-12.84512486 24.50066-16.65688957 37.7147776-16.65688957h.0068867c.008264.11023368.018594.22104754.0303013.3318614-1.4895839 3.02852538-2.7897848 6.11332797-4.0224964 9.22365837-6.2351794-1.9424335-12.3711908-3.58723613-18.8171019-4.96573734.2107317.1148751.4276614.2297502.6383931.34462531.004132.00116035.008264.00174053.012396.00290088 4.2766141 2.29866235 8.2033859 4.77311845 12.2038451 7.42220785-8.5222382.9190009-16.8213487 2.1095246-25.213429 3.6394521 8.5594261.1044319 16.573429.1984206 24.9345193.6526994-5.9004878 4.2033844-11.0944046 8.1770186-16.5734289 12.7563578 7.7536872-3.4671394 14.8751793-6.4330056 22.6970444-9.5450765.4510761 1.6366801.8801148 3.2524738 1.2974462 4.8595648-4.2518221 4.0391942-10.5586226 7.5098147-18.6318508 9.9216116m-.4228407-8.2802901c5.8199139-3.5297985 11.7637877-6.9029492 17.8688092-10.0672361.1797417.6579211.3594835 1.3158421.5330272 1.9685415-6.2413773 2.5272523-12.3711908 5.2372603-18.4018364 8.0986946m21.6750646-4.5340854c-.0633573-1.852506-.1315352-3.7079129-.1990244-5.5383722.9255667-.2007414 1.7664275-.3916197 1.7664275-.3916197.2830416-.0319098.5860545-.045834.8980201-.045834.207977 0 .4200861.0063819.6342611.0174053-.5915638 2.0480258-1.633515 4.0478969-3.0996843 5.9584206m-3.8062554-5.5331507c-8.5656241-.5691539-15.116901-.8354552-23.5523673-.8563416 9.5965567-.6973731 17.3137446-1.0779694 27.0852224-1.2050282.0027546.0847059.006198.1682514.0089526.2529573-1.1879483.5946817-2.3676327 1.1974859-3.5418077 1.8084125m3.5755523-.8836099c-.0082639-.2285899-.0165279-.4565996-.0247919-.6840291.1666571-.0835455.3340029-.167091.50066-.2506365.0888378.0400322.179053.0806446.2699569.121257-.249297.2494762-.494462.5151974-.745825.8134086m-.0337446-.9207414c0-.0011603 0-.0029009 0-.0040612.0853946-.042353.1701005-.0852861.2548063-.127639h.0006887c-.0488953.0255278-.0964132.0498952-.1466858.0771636-.0358106.0179854-.0723099.0365511-.1088092.0545366m.2548063-.1317002c-.0888378-.0417728-.1756097-.0835456-.2610043-.1253183.1742325-.0023207.3484649-.0040613.5240746-.006382-.0592252.0295891-.1177618.0591781-.176987.0887672-.0110187.0052216-.022726.0104431-.0337447.0156647-.0130846.0069622-.0254806.0133441-.0378766.0197261-.0048206.0029009-.0096413.0052216-.014462.0075423m-.2637589-.1253183s0-.0005802 0-.0011604c.0006886.0005802.002066.0011604.0027546.0011604-.0006886 0-.002066 0-.0027546 0m1.1714203-.0040613c-.2148637-.0011603-.4297274-.0017405-.6445911-.0023207.4951507-.2448348.9916787-.4890894 1.4882066-.7321837-.2988809.2483159-.5764132.4873489-.8436155.7345044m-.6445911-.0023207c-.9682639-.4740048-1.9744045-.9567123-2.9674605-1.4260757-.012396-.006382-.024792-.0121837-.037188-.0179855-.3291822-.1554875-.656987-.3098147-.9806599-.4618211 1.2210043-3.4514746 2.5163845-6.88728447 3.9791104-10.27087834.006198 4.05717964.006198 8.11958094.006198 12.17676064m-7.6607173-1.5717002c-3.7063989-2.3706044-7.5119656-4.6315552-11.4538881-6.725415 5.1691248 1.9215471 10.2018938 4.0780661 15.129297 6.3912329-1.2210043.1044319-2.4482066.2140854-3.6754089.3341821m11.0331133-1.9650604c-.0110186-.0290089-.0213486-.0580178-.0316786-.0870266.0075753-.0023207.0158393-.0052216.0234146-.0075423.0027547.0319097.0055094.0626591.008264.0945689" fill="#fff" fill-rule="evenodd"/></mask><mask id="c" fill="#fff"><path d="m.43588235 9.24183007c1.18529412-2.19503268 1.75647059-4.43660131 1.7482353-6.66562092-.00294118-.72-.06588236-1.43947712-.1882353-2.15477124l.00058824.00052287c.52058823 2.98143791.01294117 5.92679739-1.56058824 8.81986929z" fill="#fff" fill-rule="evenodd"/></mask><mask id="d" fill="#fff"><path d="m.30431372 2.30176471c-.0117647-.29764706-.02431372-.59411765-.03607843-.89058824.28627451-.30235294.5654902-.5717647.84941177-.82470588.95215686.37529412 2.01411765.75294117 2.99294118 1.13470588-.01647059.05117647-.03294118.10352941-.04941177.15470588-.24392157-.01117647-.4854902-.01764706-.72235294-.01764706-.35529412 0-.70039216.01411765-1.0227451.04647059 0 0-.95764706.19352941-2.01176471.39705883" fill="#fff" fill-rule="evenodd"/></mask><mask id="e" fill="#fff"><path d="m4.44047059 1.99647059c-1.17176471-.00941177-2.34447059-.01588235-3.51717647-.01882353.36517647-.25058824.74447059-.49294118 1.15294117-.74470588.86964706-.31588236 1.74211765-.63 2.61835295-.94117647-.03858824.57-.1242353 1.13882353-.25411765 1.70470588" fill="#fff" fill-rule="evenodd"/></mask><mask id="f" fill="#fff"><path d="m1.31764706 1.81411765c-.02235294-.02588236-.04470588-.05058824-.06705882-.07647059.02235294.02529412.04470588.05117647.06705882.07647059zm-.12941177-.14529412c-.19294117-.21470588-.39411764-.42941177-.60470588-.64294118.21058824.21352941.41176471.42764706.60470588.64294118zm-.60470588-.64294118c-.08352941-.08470588-.16941176-.17-.25529412-.25411764-.02941176-.02882353-.06-.0582353-.08941176-.08705883-.02470588-.02352941-.04941176-.04823529-.07411765-.0717647.14352941.13705882.28352941.27411764.41882353.41294117zm-.45647059-.44823529c-.01647058-.01588235-.03411764-.03176471-.05058823-.04823529-.00941177-.0082353-.01764706-.01705883-.02705883-.02529412.02588236.02470588.05176471.04941176.07764706.07352941z" fill="#fff" fill-rule="evenodd"/></mask><mask id="g" fill="#fff"><path d="m.08941176 1.94764706c.00862746-.00647059.01568628-.01176471.02431373-.0182353-.00784314.00588236-.01647059.01235295-.02431373.0182353zm.14117648-.1082353c.03215686-.02588235.06588235-.05117647.09882353-.07705882-.03294118.02588235-.06588236.05117647-.09882353.07705882zm.16-.12529411c.05254902-.04117647.10431372-.08176471.15607843-.12294118-.05176471.04117647-.10352941.08176471-.15607843.12294118zm.16-.12647059c.54274509-.43058824 1.05647058-.86529412 1.54117647-1.30294118-.48392157.4382353-.99764706.87235294-1.54117647 1.30294118zm1.58509803-1.34352941c.03294118-.02941177.06666667-.06.09882353-.08941177-.03215686.03-.06509804.05941177-.09882353.08941177z" fill="#fff" fill-rule="evenodd"/></mask><mask id="h" fill="#fff"><path d="m2.76436975 48.0673203c.13923436-1.5287582-.06154996-1.3993464.83002801-2.8163399.82644258-1.3150327.42726424-1.9843137 1.15929038-3.1130719 1.7969001-2.4555556 3.49460318-4.9359477 5.51200746-7.1771242 1.349916-1.5 3.1844631-6.5464052 3.6153128-8.3189542.082465-.2601308.2121382-.3888889.2671148-.1640523.2826518 3.3810457.7188796 6.2006536.6095239 9.5228758-.2300654 6.9784314-.0561718 6.2470588 2.5970494 12.7640523.2193091-2.6202615.7977591-6.4222222 2.1960785-7.7104575-1.6301774 6.7921568-1.7305696 16.472549-1.9026704 19.4535947-.0878432 1.5156863-.4655089 3.9071896.1995891 5.3026144.2234921.9437909.2396266 2.3673203.259944 3.4490196.0035855.6588236.0418301 11.9143791.0418301 11.9143791l-.9555182 5.2254902c-.3412138 1.5078431-2.1207843 4.0437909-3.434846 4.8320261-.4183006.2522876-1.400112.8248367-1.400112 1.3366014 0 .824183 4.864239 2.3666666 5.9727358.490196.834211-1.4111111 1.520224-2.1875817 2.5139869-3.2287581 1.531578-1.6045752-.1661251-3.2568628.0352568-5.4287582.3507749-3.7856209 1.8399253-7.0712418 2.3281419-10.6464052.2940056-2.1509804.2444071-4.0509804-.6531466-6.503268l.6459757-6.8313726c.7152941 1.1784314 1.3911485 3.0490197 2.0741737 4.606536 1.2154622 2.7666667 1.2327918 3.0372549 3.3332586 5.3065359.7081233.7633987 1.4395518 1.6679739 1.9719888 2.5934641.9883847 1.7169935 1.6690196 3.4196078 1.5817741 5.4686274-.7290383 1.4411765-1.0421662 1.351634-1.9767694 2.2254902.0304762.0483661-.2593464.8431373.6286461.8431373 3.1641457 0 2.7721382-1.8071895 3.9690756-4.1503268.7732587-1.5150327 2.9920449-3.8189543.5581326-4.6169935-.7636975-.2509804-1.4819794-.751634-1.9259757-1.5614379-1.6875444-3.0836601-1.7520822-3.0045751-2.6293184-5.8437908-.5312418-1.7183007-1.6116527-3.1058824-2.8892624-4.2346405-.7792343-1.9366014-1.0887768-3.3137255-1.3403548-5.3712419-.3406162-2.7895425-.5718767-4.7875817-1.0051167-7.6405229 1.2357797-5.3562091 1.8692064-6.4895424-.2306629-11.6398692-.4828385-1.1836602-.7559291-2.4450981-.7559291-3.8424837 0-1.7137255.8616994-5.5575163 1.6988983-7.5503268.2916153-.8111111.7009523-1.5738562 1.2764145-1.8169935.511522 2.0777778 2.2647993 6.3490196 3.2836602 7.3954249.0639402.8398693.0322689 1.6862745.3346405 2.4803921 1.284183 3.3686275 3.130084 6.4320262 4.0491503 9.9830066.3167134 1.2202614-.1039776 1.8084967-.4224836 2.7928104-.0974043.4738562-.1231 1.8424837.0693183 2.8594772l.4398133.2620915c-.0758917.3091503-.2718954 1.1679738-.4284594 1.566013.057367.4810458.5987675.754902.5987675.754902.7051354-.1712418 1.7120448-2.9633987 1.6767881-4.079085-.1093558-3.4163398-.7666854-4.945098-.9495425-5.9633987-1.0415686-5.7941176-.4398133-7.3869281-3.4055649-12.9941176l-1.6875443-4.5568628c-.2067601-2.3359477-1.0577031-7.6620915-3.7909991-8.6183006-.4601307-.1601307-.9220542-.1895425-1.6164333-.4359477-3.5776657-1.2692811-3.5669094-4.272549-2.5916713-7.5542484.8676751-2.92156862.982409-6.36470588-2.9466293-6.72745098-2.431522-.22352941-3.1695238 1.86993464-3.6894118 4.28039216.0173296.2627451.1386368 4.18169935.6668908 5.0248366 1.0403735.84575162 1.6236041.59738562 1.5578711 2.71437912-.0555742 1.7777777-1.0881792 2.8281045-2.4930719 3.3686274-2.2857143.8803922-3.4539682 1.3941177-4.2248366 3.9738562-.2426143.8091504-.449972 1.972549-.4559477 3.7084968l-.0005976.1169934c-.6531465 1.7712419-1.4771988 3.8006536-1.97557418 5.7039216-2.81396825 3.0856209-4.21049487 10.1078431-7.06031746 13.072549-1.89310924 1.9692811-2.464986 2.0954248-1.77120448 5.1326798.06931839.3078431.97762838 1.0973856 1.17124183 1.2104575.13923436.0562091.88918767-.4235294.88560224-.5993464" fill="#fff" fill-rule="evenodd"/></mask><g fill="none" fill-rule="evenodd" transform="translate(80 114)"><path d="m333.248186 98.5221221c-1.52818 9.7471319-6.564531 14.8565699-12.610809 14.8565699-3.827095 0-6.03299-2.684282-5.381852-6.850234l2.112875-13.23537c.823889-4.9034653 3.747364-8.7372045 8.989687-8.7372045 5.80044 0 8.444857 3.9400474 6.890099 13.9662386zm-20.70352 19.4344659c.817244 0 2.777301 3.441728 9.142504 3.441728 13.560939 0 21.314793-9.813575 23.440957-22.4642496 2.684281-15.6073713-4.903466-22.7034431-14.464559-22.7034431-4.498165 0-7.853517.4053-10.30525 1.700931l3.687565-21.4609661h-11.248735l-11.188937 64.1503488h8.478078s1.235833-2.644416 2.538108-2.644416h-.079731zm119.842553-27.3610704c1.720864-9.7205552-1.880326-14.457914-12.411481-14.457914-7.84023 0-10.936456 3.4616605-13.866575 6.3984243l.285703-5.401785-10.431491.0664426-.803956 8.0063357-6.03299 35.4205608h11.421487l3.680921-22.995791c1.302275-7.9199602 6.783791-13.9728828 11.919806-13.9728828 5.720709 0 5.654267 3.2689768 4.750647 8.2521733l-4.976552 28.7165005h11.328466zm47.612781-14.3582501h-13.315101l-15.295091 16.2119992-.219261-.0465098 6.132654-35.8989474h-11.109206l-11.202225 64.1171275h11.268668l1.149457-6.425001 2.29227-14.039325c5.953259 0 9.301967.651137 11.913162 12.484568l1.800595 7.979758h11.507862s-2.863677-12.132422-4.737359-16.869781c-1.973346-4.9831962-4.106154-8.2787501-8.690695-9.1757255zm-327.24319 15.7203238c8.238885-1.800595 12.524434-8.4647897 13.673891-12.7968485 2.936764-11.9198059-2.358713-21.2284169-17.560784-21.0623104l-17.414611-.0199328-10.936455 62.5424374h11.3484l4.491521-25.121954c10.464712-.2857033 11.747055 2.259049 13.707112 14.457914l1.800595 10.66404h11.766988c-1.388651-6.464866-2.278982-12.55101-3.421795-17.441187-1.235833-5.1559475-3.136091-9.175726-8.032913-11.0892734zm2.278982-14.889791c-.976706 5.554603-5.282188 9.4547848-10.584309 9.4547848h-6.690772l3.455016-19.7533908 6.086144-.0132886c7.222313 0 8.630896 4.7506473 7.733921 10.3118946zm51.313635 11.8134977c1.627844-9.4813618-3.435083-12.7436944-13.64067-12.7436944-12.743694 0-18.291653 6.0462784-18.291653 6.0462784l3.91347 6.6110406s4.119443-4.8303784 12.338395-4.8303784c4.577896 0 4.67756 2.3387802 4.239039 4.8303784l-.896975 5.6343342c-16.417972-.4053-24.822963 3.1161588-26.703289 13.8865072-1.534825 8.82358 5.08286 13.082552 12.504501 13.082552 3.833739 0 6.936609-.584695 10.683973-3.840383.737513 2.112875 2.053077 3.242399 3.514815 3.474949 2.365357.491675 6.451578-.066443 7.674122-.963418-.093019-1.30892 0-4.644339 1.388651-12.484569zm-13.467919 11.52115c-1.820528 12.896513-3.534747 14.1855-9.753776 14.1855-4.252328 0-5.820374-2.910187-5.102794-6.723994.989995-5.202457 4.916754-7.461506 14.85657-7.461506zm193.547351-11.52115c1.634488-9.4813618-3.435084-12.7436944-13.647314-12.7436944-12.73705 0-18.291653 6.0462784-18.291653 6.0462784l3.926759 6.6110406s4.112798-4.8303784 12.318461-4.8303784c4.591185 0 4.684205 2.3387802 4.252328 4.8303784l-.896976 5.6343342c-16.424615-.4053-24.822962 3.1161588-26.709933 13.8865072-1.554757 8.82358 5.062928 13.082552 12.491213 13.082552 3.833739 0 6.943254-.584695 10.703906-3.840383.71758 2.112875 2.033144 3.242399 3.501526 3.474949 2.365357.491675 6.451578-.066443 7.667478-.963418-.079731-1.30892 0-4.644339 1.388651-12.484569zm-13.474563 11.52115c-1.80724 12.896513-3.528103 14.1855-9.753777 14.1855-4.245683 0-5.820373-2.910187-5.109437-6.723994.996639-5.202457 4.923398-7.461506 14.863214-7.461506zm-143.808406 20.995868c13.560939 0 21.314792-9.813575 23.427668-22.4642496 2.690926-15.6073713-4.890177-22.7034431-14.457914-22.7034431-4.491522 0-7.733921.4053-10.265385 1.700931l3.680921-21.4609661h-11.295245l-11.195582 64.1503488h8.498011s1.222544-2.644416 2.451733-2.644416c.823888-.019933 2.783946 3.421795 9.155793 3.421795zm4.737359-36.8424325c5.80044 0 8.258817 3.9201146 6.890099 13.9662386-1.395295 10.2653849-6.56453 14.8698579-12.69054 14.8698579-3.833739 0-6.039634-2.69757-5.308765-6.863522l2.119519-13.2220815c.8106-4.9101096 3.747364-8.7372045 8.903311-8.7372045h.086376zm23.4476 17.8597765c1.747441-16.3315962 9.109283-26.4375187 26.616914-26.4375187 12.989532 0 17.295013 9.9198831 15.547572 20.5839236-2.79059 17.0491761-9.428207 25.0820891-26.092016 25.0820891-10.783637 0-17.188706-8.797003-16.07247-19.228494zm30.304479-5.062928c.837177-4.5180981 1.720864-13.2885239-6.052923-13.2885239-5.22239 0-10.099278 3.5413917-12.291884 15.9528729-1.335497 7.594391.126241 13.680535 6.179163 13.680535 4.425079-.006644 9.826864-3.654344 12.165644-16.344884z" fill="#283a93" fill-rule="nonzero"/><g transform="translate(0 84.706)"><path d="m-1.643 46.548h2.448v-46.471h-2.448z" fill="#ba5c30" mask="url(#a)"/><path d="m.441 46.548h1.235v-46.471h-1.235z" fill="#ba5b30" mask="url(#a)"/><path d="m1.209 46.548h1.236v-46.471h-1.236z" fill="#b95b30" mask="url(#a)"/><path d="m1.978 46.548h1.236v-46.471h-1.236z" fill="#b85b30" mask="url(#a)"/><path d="m2.747 46.548h1.235v-46.471h-1.235z" fill="#b75b30" mask="url(#a)"/><path d="m3.516 46.548h1.235v-46.471h-1.235z" fill="#b65a30" mask="url(#a)"/><path d="m4.284 46.548h1.235v-46.471h-1.235z" fill="#b65a31" mask="url(#a)"/><path d="m5.053 46.548h1.235v-46.471h-1.235z" fill="#b55931" mask="url(#a)"/><path d="m5.822 46.548h1.235v-46.471h-1.235z" fill="#b45931" mask="url(#a)"/><path d="m6.59 46.548h1.235v-46.471h-1.235z" fill="#b45831" mask="url(#a)"/><path d="m7.359 46.548h1.235v-46.471h-1.235z" fill="#b35831" mask="url(#a)"/><path d="m8.128 46.548h1.235v-46.471h-1.235z" fill="#b25731" mask="url(#a)"/><path d="m8.896 46.548h1.235v-46.471h-1.235z" fill="#b15731" mask="url(#a)"/><path d="m9.665 46.548h1.235v-46.471h-1.235z" fill="#b15631" mask="url(#a)"/><path d="m10.434 46.548h1.235v-46.471h-1.235z" fill="#b05631" mask="url(#a)"/><path d="m11.202 46.548h1.235v-46.471h-1.235z" fill="#af5531" mask="url(#a)"/><path d="m11.971 46.548h1.235v-46.471h-1.235z" fill="#ae5531" mask="url(#a)"/><path d="m12.74 46.548h1.235v-46.471h-1.235z" fill="#ae5532" mask="url(#a)"/><path d="m13.508 46.548h1.236v-46.471h-1.236z" fill="#ad5532" mask="url(#a)"/><path d="m14.277 46.548h1.235v-46.471h-1.235z" fill="#ac5432" mask="url(#a)"/><path d="m15.046 46.548h1.235v-46.471h-1.235z" fill="#ac5432" mask="url(#a)"/><path d="m15.814 46.548h1.236v-46.471h-1.236z" fill="#ab5332" mask="url(#a)"/><path d="m16.583 46.548h1.236v-46.471h-1.236z" fill="#aa5332" mask="url(#a)"/><path d="m17.351 46.548h1.236v-46.471h-1.236z" fill="#aa5232" mask="url(#a)"/><path d="m18.12 46.548h1.236v-46.471h-1.236z" fill="#a95232" mask="url(#a)"/><path d="m18.889 46.548h1.236v-46.471h-1.236z" fill="#a85132" mask="url(#a)"/><path d="m19.658 46.548h1.235v-46.471h-1.235z" fill="#a75132" mask="url(#a)"/><path d="m20.427 46.548h1.235v-46.471h-1.235z" fill="#a75032" mask="url(#a)"/><path d="m21.195 46.548h1.236v-46.471h-1.236z" fill="#a65032" mask="url(#a)"/><path d="m21.964 46.548h1.235v-46.471h-1.235z" fill="#a55033" mask="url(#a)"/><path d="m22.733 46.548h1.235v-46.471h-1.235z" fill="#a45033" mask="url(#a)"/><path d="m23.502 46.548h1.235v-46.471h-1.235z" fill="#a44f33" mask="url(#a)"/><path d="m24.27 46.548h1.354v-46.471h-1.354z" fill="#a34f33" mask="url(#a)"/><path d="m25.423 46.548h1.235v-46.471h-1.235z" fill="#a24e33" mask="url(#a)"/><path d="m26.191 46.548h1.236v-46.471h-1.236z" fill="#a24e33" mask="url(#a)"/><path d="m26.96 46.548h1.236v-46.471h-1.236z" fill="#a14d33" mask="url(#a)"/><path d="m27.729 46.548h1.236v-46.471h-1.236z" fill="#a04d33" mask="url(#a)"/><path d="m28.498 46.548h1.235v-46.471h-1.235z" fill="#9f4c33" mask="url(#a)"/><path d="m29.266 46.548h1.236v-46.471h-1.236z" fill="#9f4c33" mask="url(#a)"/><path d="m30.035 46.548h1.236v-46.471h-1.236z" fill="#9e4c33" mask="url(#a)"/><path d="m30.804 46.548h1.235v-46.471h-1.235z" fill="#9d4c33" mask="url(#a)"/><path d="m31.573 46.548h1.235v-46.471h-1.235z" fill="#9c4b33" mask="url(#a)"/><path d="m32.341 46.548h1.236v-46.471h-1.236z" fill="#9c4b34" mask="url(#a)"/><path d="m33.11 46.548h.745v-46.471h-.745z" fill="#9b4a34" mask="url(#a)"/><path d="m33.494 46.548h.745v-46.471h-.745z" fill="#9a4a34" mask="url(#a)"/><path d="m33.879 46.548h.745v-46.471h-.745z" fill="#9a4a34" mask="url(#a)"/><path d="m34.263 46.548h.745v-46.471h-.745z" fill="#994a34" mask="url(#a)"/><path d="m34.648 46.548h1.235v-46.471h-1.235z" fill="#994934" mask="url(#a)"/><path d="m35.416 46.548h1.235v-46.471h-1.235z" fill="#984934" mask="url(#a)"/><path d="m36.185 46.548h1.235v-46.471h-1.235z" fill="#974834" mask="url(#a)"/><path d="m36.954 46.548h1.235v-46.471h-1.235z" fill="#974834" mask="url(#a)"/><path d="m37.722 46.548h1.235v-46.471h-1.235z" fill="#964834" mask="url(#a)"/><path d="m38.491 46.548h1.235v-46.471h-1.235z" fill="#954834" mask="url(#a)"/><path d="m39.259 46.548h1.235v-46.471h-1.235z" fill="#944734" mask="url(#a)"/><path d="m40.028 46.548h1.235v-46.471h-1.235z" fill="#944734" mask="url(#a)"/><path d="m40.797 46.548h1.235v-46.471h-1.235z" fill="#934634" mask="url(#a)"/><path d="m41.565 46.548h1.235v-46.471h-1.235z" fill="#924634" mask="url(#a)"/><path d="m42.334 46.548h1.235v-46.471h-1.235z" fill="#914534" mask="url(#a)"/><path d="m43.103 46.548h1.235v-46.471h-1.235z" fill="#914534" mask="url(#a)"/><path d="m43.871 46.548h1.236v-46.471h-1.236z" fill="#904534" mask="url(#a)"/><path d="m44.64 46.548h1.235v-46.471h-1.235z" fill="#8f4534" mask="url(#a)"/><path d="m45.409 46.548h1.235v-46.471h-1.235z" fill="#8f4434" mask="url(#a)"/><path d="m46.177 46.548h1.236v-46.471h-1.236z" fill="#8e4434" mask="url(#a)"/><path d="m46.946 46.548h1.236v-46.471h-1.236z" fill="#8d4334" mask="url(#a)"/><path d="m47.715 46.548h1.235v-46.471h-1.235z" fill="#8c4334" mask="url(#a)"/><path d="m48.483 46.548h1.355v-46.471h-1.355z" fill="#8c4234" mask="url(#a)"/><path d="m49.637 46.548h1.235v-46.471h-1.235z" fill="#8b4234" mask="url(#a)"/><path d="m50.405 46.548h1.235v-46.471h-1.235z" fill="#8a4234" mask="url(#a)"/><path d="m51.174 46.548h1.235v-46.471h-1.235z" fill="#894234" mask="url(#a)"/><path d="m51.943 46.548h1.235v-46.471h-1.235z" fill="#894134" mask="url(#a)"/><path d="m52.711 46.548h1.235v-46.471h-1.235z" fill="#884134" mask="url(#a)"/><path d="m53.48 46.548h1.235v-46.471h-1.235z" fill="#874034" mask="url(#a)"/><path d="m54.249 46.548h1.235v-46.471h-1.235z" fill="#864034" mask="url(#a)"/><path d="m55.017 46.548h1.236v-46.471h-1.236z" fill="#864034" mask="url(#a)"/><path d="m55.786 46.548h1.235v-46.471h-1.235z" fill="#854034" mask="url(#a)"/><path d="m56.555 46.548h1.235v-46.471h-1.235z" fill="#843f34" mask="url(#a)"/><path d="m57.323 46.548h1.236v-46.471h-1.236z" fill="#843f34" mask="url(#a)"/><path d="m58.092 46.548h1.236v-46.471h-1.236z" fill="#833f34" mask="url(#a)"/><path d="m58.861 46.548h1.236v-46.471h-1.236z" fill="#823f34" mask="url(#a)"/><path d="m59.629 46.548h1.236v-46.471h-1.236z" fill="#823e34" mask="url(#a)"/><path d="m60.398 46.548h1.236v-46.471h-1.236z" fill="#813e34" mask="url(#a)"/><path d="m61.167 46.548h1.235v-46.471h-1.235z" fill="#803d34" mask="url(#a)"/><path d="m61.936 46.548h1.235v-46.471h-1.235z" fill="#803d34" mask="url(#a)"/><path d="m62.704 46.548h1.236v-46.471h-1.236z" fill="#7f3d34" mask="url(#a)"/><path d="m63.473 46.548h1.235v-46.471h-1.235z" fill="#7e3d34" mask="url(#a)"/><path d="m64.242 46.548h1.235v-46.471h-1.235z" fill="#7e3c34" mask="url(#a)"/><path d="m65.011 46.548h1.235v-46.471h-1.235z" fill="#7d3c34" mask="url(#a)"/><path d="m65.779 46.548h1.235v-46.471h-1.235z" fill="#7d3c34" mask="url(#a)"/><path d="m66.548 46.548h1.235v-46.471h-1.235z" fill="#7c3c34" mask="url(#a)"/><path d="m67.317 46.548h1.235v-46.471h-1.235z" fill="#7b3b34" mask="url(#a)"/><path d="m68.085 46.548h1.235v-46.471h-1.235z" fill="#7b3b34" mask="url(#a)"/><path d="m68.854 46.548h1.235v-46.471h-1.235z" fill="#7a3b34" mask="url(#a)"/><path d="m69.623 46.548h1.235v-46.471h-1.235z" fill="#793b34" mask="url(#a)"/><path d="m70.391 46.548h1.235v-46.471h-1.235z" fill="#793a34" mask="url(#a)"/><path d="m71.16 46.548h1.235v-46.471h-1.235z" fill="#783a34" mask="url(#a)"/><path d="m71.929 46.548h1.235v-46.471h-1.235z" fill="#773934" mask="url(#a)"/><path d="m72.697 46.548h1.235v-46.471h-1.235z" fill="#773934" mask="url(#a)"/><path d="m73.466 46.548h1.355v-46.471h-1.355z" fill="#763934" mask="url(#a)"/><path d="m74.619 46.548h1.235v-46.471h-1.235z" fill="#763934" mask="url(#a)"/><path d="m75.388 46.548h1.235v-46.471h-1.235z" fill="#753834" mask="url(#a)"/><path d="m76.157 46.548h1.235v-46.471h-1.235z" fill="#743834" mask="url(#a)"/><path d="m76.925 46.548h1.235v-46.471h-1.235z" fill="#743834" mask="url(#a)"/><path d="m77.694 46.548h1.235v-46.471h-1.235z" fill="#733834" mask="url(#a)"/><path d="m78.463 46.548h1.235v-46.471h-1.235z" fill="#723734" mask="url(#a)"/><path d="m79.231 46.548h1.235v-46.471h-1.235z" fill="#723734" mask="url(#a)"/><path d="m80 46.548h1.235v-46.471h-1.235z" fill="#713634" mask="url(#a)"/><path d="m80.768 46.548h1.235v-46.471h-1.235z" fill="#713634" mask="url(#a)"/><path d="m81.537 46.548h1.235v-46.471h-1.235z" fill="#703634" mask="url(#a)"/><path d="m82.306 46.548h1.235v-46.471h-1.235z" fill="#6f3634" mask="url(#a)"/><path d="m83.074 46.548h1.236v-46.471h-1.236z" fill="#6f3534" mask="url(#a)"/><path d="m83.843 46.548h1.235v-46.471h-1.235z" fill="#6e3534" mask="url(#a)"/><path d="m84.612 46.548h1.235v-46.471h-1.235z" fill="#6e3434" mask="url(#a)"/><path d="m85.38 46.548h1.236v-46.471h-1.236z" fill="#6d3434" mask="url(#a)"/><path d="m86.149 46.548h1.236v-46.471h-1.236z" fill="#6c3434" mask="url(#a)"/><path d="m86.918 46.548h1.235v-46.471h-1.235z" fill="#6b3434" mask="url(#a)"/><path d="m87.686 46.548h1.236v-46.471h-1.236z" fill="#6b3334" mask="url(#a)"/><path d="m88.455 46.548h1.236v-46.471h-1.236z" fill="#6a3434" mask="url(#a)"/><path d="m89.224 46.548h1.236v-46.471h-1.236z" fill="#693334" mask="url(#a)"/><path d="m89.993 46.548h1.235v-46.471h-1.235z" fill="#693334" mask="url(#a)"/><path d="m90.761 46.548h1.236v-46.471h-1.236z" fill="#683334" mask="url(#a)"/><path d="m91.53 46.548h1.236v-46.471h-1.236z" fill="#673334" mask="url(#a)"/><path d="m92.299 46.548h1.235v-46.471h-1.235z" fill="#663234" mask="url(#a)"/><path d="m93.068 46.548h1.235v-46.471h-1.235z" fill="#663234" mask="url(#a)"/><path d="m93.836 46.548h1.235v-46.471h-1.235z" fill="#653234" mask="url(#a)"/><path d="m94.605 46.548h1.235v-46.471h-1.235z" fill="#653234" mask="url(#a)"/><path d="m95.374 46.548h1.235v-46.471h-1.235z" fill="#643134" mask="url(#a)"/><path d="m96.142 46.548h1.235v-46.471h-1.235z" fill="#633134" mask="url(#a)"/><g fill="#623133"><path d="m96.911 46.548h1.235v-46.471h-1.235z" mask="url(#a)"/><path d="m97.68 46.548h2.47v-46.471h-2.47z" mask="url(#a)"/></g></g><path d="m77.2163897 75.4912541c-8.3080335-3.2354384-17.9840329-4.8974787-27.8074424-4.9030188-9.8175131.0055401-19.4935125 1.6675804-27.8015461 4.9030188-9.0922553 3.5456859-16.12666562 8.8032733-19.49940885 15.229829-3.92700524 7.4958016-2.4882826 15.7727619 5.33624585 22.9860169 8.9743273 8.26588 24.2401179 13.351724 41.9706055 13.351724 17.7245912 0 32.9903818-5.085844 41.9588127-13.351724 7.8304248-7.213255 9.2691476-15.4902153 5.3421422-22.9860169-3.3727432-6.4265557-10.4071535-11.6841431-19.4994089-15.229829" fill="#e5702a"/><g transform="translate(0 70.588)"><path d="m-9.653 1.548 10.216 48.807.513-.076-10.215-48.808" fill="#fad276" mask="url(#b)"/><path d="m-9.139 1.471 10.215 48.808.513-.076-10.215-48.808" fill="#fad175" mask="url(#b)"/><path d="m-8.626 1.395 10.215 48.808.513-.077-10.215-48.807" fill="#fad075" mask="url(#b)"/><path d="m-8.113 1.319 10.215 48.807.514-.076-10.216-48.807" fill="#facf74" mask="url(#b)"/><path d="m-7.6 1.243 10.216 48.807.513-.076-10.216-48.807" fill="#facf73" mask="url(#b)"/><path d="m-7.087 1.167 10.216 48.807.513-.076-10.216-48.808" fill="#face73" mask="url(#b)"/><path d="m-6.574 1.09 10.216 48.808.513-.076-10.216-48.808" fill="#f9cd72" mask="url(#b)"/><path d="m-6.061 1.014 10.216 48.808.513-.077-10.215-48.807" fill="#f9cc71" mask="url(#b)"/><path d="m-5.547.938 10.215 48.807.513-.076-10.215-48.807" fill="#f9cc71" mask="url(#b)"/><path d="m-5.034.862 10.215 48.807.513-.076-10.215-48.807" fill="#f9cb70" mask="url(#b)"/><path d="m-4.521.786 10.215 48.807.514-.077-10.216-48.807" fill="#f9ca6f" mask="url(#b)"/><path d="m-4.008.709 10.216 48.807.256-.037-10.215-48.808" fill="#f9c96e" mask="url(#b)"/><path d="m-3.751.671 10.215 48.808.513-.077-10.215-48.807" fill="#f8c86e" mask="url(#b)"/><path d="m-3.238.595 10.215 48.807.257-.038-10.216-48.808" fill="#f8c86e" mask="url(#b)"/><path d="m-2.982.556 10.216 48.808.513-.076-10.216-48.808" fill="#f8c76d" mask="url(#b)"/><path d="m-2.469.48 10.216 48.808.513-.076-10.215-48.808" fill="#f8c66c" mask="url(#b)"/><path d="m-1.955.404 10.215 48.808.513-.077-10.215-48.807" fill="#f8c56b" mask="url(#b)"/><path d="m-1.442.328 10.215 48.807.513-.076-10.215-48.807" fill="#f8c46a" mask="url(#b)"/><path d="m-.929.252 10.215 48.807.514-.076-10.216-48.808" fill="#f7c469" mask="url(#b)"/><path d="m-.416.175 10.216 48.808.513-.076-10.216-48.808" fill="#f7c369" mask="url(#b)"/><path d="m.097.099 10.216 48.808.513-.076-10.216-48.808" fill="#f7c268" mask="url(#b)"/><path d="m.61.023 10.216 48.808.513-.077-10.216-48.807" fill="#f7c167" mask="url(#b)"/><path d="m1.123-.053 10.216 48.807.513-.076-10.215-48.807" fill="#f7c066" mask="url(#b)"/><path d="m1.637-.129 10.215 48.807.77-.114-10.216-48.808" fill="#f6c066" mask="url(#b)"/><path d="m2.406-.244 10.216 48.808.513-.076-10.216-48.808" fill="#f6bf65" mask="url(#b)"/><path d="m2.919-.32 10.216 48.808.513-.077-10.215-48.807" fill="#f6be65" mask="url(#b)"/><path d="m3.433-.396 10.215 48.807.513-.076-10.215-48.807" fill="#f6bd64" mask="url(#b)"/><path d="m3.946-.472 10.215 48.807.513-.076-10.215-48.808" fill="#f6bc63" mask="url(#b)"/><path d="m4.459-.549 10.215 48.808.257-.038-10.215-48.808" fill="#f5bb62" mask="url(#b)"/><path d="m4.716-.587 10.215 48.808.257-.038-10.216-48.808" fill="#f5ba62" mask="url(#b)"/><path d="m4.972-.625 10.216 48.808.513-.076-10.216-48.808" fill="#f5ba62" mask="url(#b)"/><path d="m5.485-.701 10.216 48.808.513-.077-10.216-48.807" fill="#f5b961" mask="url(#b)"/><path d="m5.998-.777 10.216 48.807.513-.076-10.215-48.807" fill="#f5b860" mask="url(#b)"/><path d="m6.512-.853 10.215 48.807.513-.077-10.215-48.807" fill="#f5b75f" mask="url(#b)"/><path d="m7.025-.93 10.215 48.807.513-.076-10.215-48.807" fill="#f4b65f" mask="url(#b)"/><path d="m7.538-1.006 10.215 48.807.514-.076-10.216-48.807" fill="#f4b55e" mask="url(#b)"/><path d="m8.051-1.082 10.216 48.807.513-.076-10.216-48.808" fill="#f4b55d" mask="url(#b)"/><path d="m8.564-1.159 10.216 48.808.513-.076-10.216-48.808" fill="#f4b45d" mask="url(#b)"/><path d="m9.077-1.235 10.216 48.808.513-.077-10.216-48.807" fill="#f4b35c" mask="url(#b)"/><path d="m9.59-1.311 10.216 48.807.513-.076-10.215-48.807" fill="#f3b25b" mask="url(#b)"/><path d="m10.104-1.387 10.215 48.807.513-.076-10.215-48.807" fill="#f3b15b" mask="url(#b)"/><path d="m10.617-1.463 10.215 48.807.513-.076-10.215-48.808" fill="#f3b05a" mask="url(#b)"/><path d="m11.13-1.54 10.215 48.808.514-.076-10.216-48.808" fill="#f3af59" mask="url(#b)"/><path d="m11.643-1.616 10.216 48.808.256-.039-10.215-48.807" fill="#f3af59" mask="url(#b)"/><path d="m11.9-1.654 10.215 48.807.257-.037-10.216-48.808" fill="#f2ae58" mask="url(#b)"/><path d="m12.156-1.692 10.216 48.808.256-.039-10.215-48.807" fill="#f2ae58" mask="url(#b)"/><path d="m12.413-1.73 10.215 48.807.257-.038-10.216-48.807" fill="#f2ad58" mask="url(#b)"/><path d="m12.669-1.768 10.216 48.807.513-.076-10.216-48.807" fill="#f2ac57" mask="url(#b)"/><path d="m13.182-1.844 10.216 48.807.513-.077-10.215-48.807" fill="#f2ac57" mask="url(#b)"/><path d="m13.696-1.921 10.215 48.807.513-.076-10.215-48.807" fill="#f2ab56" mask="url(#b)"/><path d="m14.209-1.997 10.215 48.807.513-.076-10.215-48.808" fill="#f1aa55" mask="url(#b)"/><path d="m14.722-2.074 10.215 48.808.514-.076-10.216-48.808" fill="#f1a955" mask="url(#b)"/><path d="m15.235-2.15 10.216 48.808.513-.076-10.216-48.808" fill="#f1a855" mask="url(#b)"/><path d="m15.748-2.226 10.216 48.808.513-.077-10.216-48.807" fill="#f1a754" mask="url(#b)"/><path d="m16.261-2.302 10.216 48.807.513-.076-10.215-48.807" fill="#f0a753" mask="url(#b)"/><path d="m16.775-2.378 10.215 48.807.513-.076-10.215-48.807" fill="#f0a652" mask="url(#b)"/><path d="m17.288-2.454 10.215 48.807.513-.076-10.215-48.808" fill="#f0a552" mask="url(#b)"/><path d="m17.801-2.531 10.215 48.808.513-.076-10.215-48.808" fill="#f0a451" mask="url(#b)"/><path d="m18.314-2.607 10.215 48.808.257-.039-10.215-48.807" fill="#f0a451" mask="url(#b)"/><path d="m18.571-2.645 10.215 48.807.513-.076-10.215-48.807" fill="#f0a351" mask="url(#b)"/><path d="m19.084-2.721 10.215 48.807.513-.076-10.215-48.808" fill="#efa250" mask="url(#b)"/><path d="m19.597-2.798 10.215 48.808.513-.076-10.215-48.808" fill="#efa14f" mask="url(#b)"/><path d="m20.11-2.874 10.215 48.808.514-.076-10.216-48.808" fill="#efa14e" mask="url(#b)"/><path d="m20.623-2.95 10.216 48.808.513-.077-10.215-48.807" fill="#efa04e" mask="url(#b)"/><path d="m21.137-3.026 10.215 48.807.513-.076-10.215-48.807" fill="#ef9f4d" mask="url(#b)"/><path d="m21.65-3.102 10.215 48.807.513-.076-10.215-48.808" fill="#ef9e4d" mask="url(#b)"/><path d="m22.163-3.179 10.215 48.808.513-.076-10.215-48.808" fill="#ee9e4c" mask="url(#b)"/><path d="m22.676-3.255 10.215 48.808.513-.076-10.215-48.808" fill="#ee9d4b" mask="url(#b)"/><path d="m23.189-3.331 10.215 48.808.514-.077-10.216-48.807" fill="#ee9c4b" mask="url(#b)"/><path d="m23.702-3.407 10.216 48.807.513-.076-10.215-48.807" fill="#ee9b4a" mask="url(#b)"/><path d="m24.216-3.483 10.215 48.807.513-.077-10.215-48.807" fill="#ee9b4a" mask="url(#b)"/><path d="m24.729-3.56 10.215 48.807.513-.076-10.215-48.807" fill="#ee9a49" mask="url(#b)"/><path d="m25.242-3.636 10.215 48.807.257-.038-10.215-48.807" fill="#ed9948" mask="url(#b)"/><path d="m25.499-3.674 10.215 48.807.256-.038-10.215-48.807" fill="#ed9848" mask="url(#b)"/><path d="m25.755-3.712 10.215 48.807.257-.038-10.215-48.807" fill="#ed9848" mask="url(#b)"/><path d="m26.012-3.75 10.215 48.807.256-.038-10.215-48.808" fill="#ed9847" mask="url(#b)"/><path d="m26.268-3.789 10.215 48.808.513-.076-10.214-48.808" fill="#ed9747" mask="url(#b)"/><path d="m26.782-3.865 10.214 48.808.514-.076-10.215-48.808" fill="#ed9647" mask="url(#b)"/><path d="m27.295-3.941 10.215 48.808.513-.077-10.215-48.807" fill="#ed9546" mask="url(#b)"/><path d="m27.808-4.017 10.215 48.807.513-.076-10.215-48.807" fill="#ec9545" mask="url(#b)"/><path d="m28.321-4.093 10.215 48.807.513-.076-10.215-48.808" fill="#ec9444" mask="url(#b)"/><path d="m28.834-4.17 10.215 48.808.513-.076-10.215-48.808" fill="#ec9344" mask="url(#b)"/><path d="m29.347-4.246 10.215 48.808.514-.076-10.215-48.808" fill="#ec9243" mask="url(#b)"/><path d="m29.861-4.322 10.215 48.808.513-.077-10.215-48.807" fill="#ec9143" mask="url(#b)"/><path d="m30.374-4.398 10.215 48.807.513-.076-10.215-48.807" fill="#ec9142" mask="url(#b)"/><path d="m30.887-4.474 10.215 48.807.513-.076-10.215-48.808" fill="#ec9042" mask="url(#b)"/><path d="m31.4-4.551 10.215 48.808.513-.077-10.215-48.807" fill="#eb8f41" mask="url(#b)"/><path d="m31.913-4.627 10.215 48.807.257-.038-10.215-48.807" fill="#eb8e41" mask="url(#b)"/><path d="m32.17-4.665 10.215 48.807.256-.038-10.215-48.807" fill="#eb8e41" mask="url(#b)"/><path d="m32.426-4.703 10.215 48.807.514-.076-10.215-48.808" fill="#eb8d40" mask="url(#b)"/><path d="m32.94-4.78 10.215 48.808.513-.076-10.215-48.808" fill="#eb8c40" mask="url(#b)"/><path d="m33.453-4.856 10.215 48.808.513-.077-10.215-48.807" fill="#eb8b3f" mask="url(#b)"/><path d="m33.966-4.932 10.215 48.807.513-.076-10.215-48.807" fill="#ea8b3e" mask="url(#b)"/><path d="m34.479-5.008 10.215 48.807.77-.114-10.215-48.807" fill="#ea8a3d" mask="url(#b)"/><path d="m35.249-5.122 10.215 48.807.513-.076-10.215-48.807" fill="#ea893d" mask="url(#b)"/><path d="m35.762-5.198 10.215 48.807.513-.077-10.215-48.807" fill="#ea883c" mask="url(#b)"/><path d="m36.275-5.275 10.215 48.807.514-.076-10.216-48.807" fill="#ea883c" mask="url(#b)"/><path d="m36.788-5.351 10.216 48.807.513-.076-10.216-48.808" fill="#ea873b" mask="url(#b)"/><path d="m37.301-5.428 10.216 48.808.513-.076-10.216-48.808" fill="#ea863a" mask="url(#b)"/><path d="m37.814-5.504 10.216 48.808.256-.038-10.215-48.808" fill="#e98639" mask="url(#b)"/><path d="m38.071-5.542 10.215 48.808.257-.038-10.215-48.808" fill="#e98539" mask="url(#b)"/><path d="m38.328-5.58 10.215 48.808.513-.077-10.215-48.807" fill="#e98439" mask="url(#b)"/><path d="m38.841-5.656 10.215 48.807.513-.076-10.215-48.807" fill="#e98338" mask="url(#b)"/><path d="m39.354-5.732 10.215 48.807.514-.076-10.216-48.808" fill="#e98338" mask="url(#b)"/><path d="m39.867-5.809 10.216 48.808.513-.076-10.216-48.808" fill="#e98237" mask="url(#b)"/><path d="m40.38-5.885 10.216 48.808.513-.076-10.216-48.808" fill="#e88136" mask="url(#b)"/><path d="m40.893-5.961 10.216 48.808.513-.077-10.215-48.807" fill="#e88035" mask="url(#b)"/><path d="m41.407-6.037 10.215 48.807.513-.076-10.215-48.807" fill="#e88035" mask="url(#b)"/><path d="m41.92-6.113 10.215 48.807.513-.076-10.215-48.808" fill="#e87f35" mask="url(#b)"/><path d="m42.433-6.19 10.215 48.808.514-.077-10.216-48.807" fill="#e87e34" mask="url(#b)"/><path d="m42.946-6.266 10.216 48.807.256-.038-10.215-48.807" fill="#e87e33" mask="url(#b)"/><path d="m43.203-6.304 10.215 48.807.513-.076-10.215-48.807" fill="#e77d33" mask="url(#b)"/><path d="m43.716-6.38 10.215 48.807.257-.038-10.216-48.808" fill="#e77c33" mask="url(#b)"/><path d="m43.972-6.419 10.216 48.808.513-.076-10.216-48.808" fill="#e77b32" mask="url(#b)"/><path d="m44.485-6.495 10.216 48.808.513-.076-10.215-48.808" fill="#e77a32" mask="url(#b)"/><path d="m44.999-6.571 10.215 48.808.513-.077-10.215-48.807" fill="#e77a31" mask="url(#b)"/><path d="m45.512-6.647 10.215 48.807.513-.076-10.215-48.807" fill="#e77930" mask="url(#b)"/><path d="m46.025-6.723 10.215 48.807.514-.076-10.216-48.808" fill="#e67830" mask="url(#b)"/><path d="m46.538-6.8 10.216 48.808.513-.076-10.216-48.808" fill="#e6772f" mask="url(#b)"/><path d="m47.051-6.876 10.216 48.808.513-.076-10.216-48.808" fill="#e6772f" mask="url(#b)"/><path d="m47.564-6.952 10.216 48.808.513-.077-10.216-48.807" fill="#e6762e" mask="url(#b)"/><path d="m48.077-7.028 10.216 48.807.513-.076-10.215-48.807" fill="#e6752e" mask="url(#b)"/><path d="m48.591-7.104 10.215 48.807.513-.076-10.215-48.808" fill="#e6752d" mask="url(#b)"/><path d="m49.104-7.181 10.215 48.808.513-.076-10.215-48.808" fill="#e5742c" mask="url(#b)"/><path d="m49.617-7.257 10.215 48.808.257-.039-10.216-48.807" fill="#e5732c" mask="url(#b)"/><path d="m49.873-7.295 10.216 48.807.257-.037-10.216-48.808" fill="#e5722c" mask="url(#b)"/><path d="m50.13-7.333 10.216 48.808.513-.077-10.216-48.807" fill="#e5722c" mask="url(#b)"/><path d="m50.643-7.409 10.216 48.807 4.103-.609-10.215-48.808" fill="#e5712b" mask="url(#b)"/></g><path d="m26.611773 102.650396c5.4669079-3.7022709 11.0502568-7.2402401 16.7849791-10.5591399.1688396.6900682.3376791 1.3801365.5006966 2.0647281-5.8628075 2.6507385-11.620818 5.4931626-17.2856757 8.4944118m20.5984239-12.727926c-9.4142599.1259649-16.7616909.5257663-25.9372466 1.2706019 7.9238143.021907 14.0777244.3012203 22.1238018.8981842 1.2633855-.7338822 2.5325931-1.4568109 3.8134448-2.1687861m20.604246 12.722449c-5.4552638-3.7077474-11.0327907-7.2457165-16.7616909-10.5700931 1.1702326-.0876278 2.3462874-.1697787 3.51652-.2409763 4.5470235 3.4612949 8.9543177 7.0759383 13.2451709 10.8110694m-21.0991205-12.7169723c.1979498 6.1668008.436654 12.7114963.4948745 18.6811343 1.2226312-5.520546 2.4918387-11.0356158 3.8425551-16.5342551-1.2750297-.7284055-3.0449338-1.4403807-4.3374296-2.1468792m18.4326201-8.7134813c-4.8614143 2.0099608-9.5947435 4.2718513-14.2290978 6.6925671-.1863057-.5969639-.3784334-1.1939277-.5705612-1.7854148 4.8614144-1.8237519 9.7926934-3.4777251 14.799659-4.9071523m-17.9377456 8.7080046c9.3502173.0219069 18.6887905.4545688 27.9924313 1.330846-8.1625184-1.3856133-16.0979768-2.4480994-24.2837835-3.3462835-1.2459193.6626846-2.4801946 1.3363227-3.7086478 2.0154375m-17.9552118-8.7025278c4.8555923 2.0154375 9.5830994 4.277328 14.2116317 6.7035205-1.1469445.1095346-2.299711.224546-3.4524775.3505108-3.4815878-2.4864365-7.0563284-4.8578616-10.7591542-7.0540313m17.9552118 8.7025278c0-4.2554211 0-8.5163189-.005822-12.7717401-1.3740046 3.5489227-2.5908137 7.1526126-3.7377581 10.7727328 1.2575634.6572079 2.5034828 1.3253692 3.7435801 1.9990073m-21.4833759-10.1100481c6.0549352 1.4458574 11.8187678 3.1710281 17.6757532 5.2083726 1.1644106-3.2805628 2.3928638-6.5337418 3.8018007-9.7266769 1.4089368 3.1874583 2.6432121 6.4461141 3.8018006 9.7212001 5.8628075-2.0318677 11.5160211-3.6913176 17.5767784-5.137175-4.2617429 2.5192969-8.0286113 5.1152681-11.9817853 8.0343665 8.011145.9639049 15.5099494 2.2125999 23.3988314 3.8172825-7.8655937-.164302-15.2712453.0985812-23.1135508.5750569 5.5309504 4.4142464 10.2759237 8.6806214 15.4226186 13.4891924-7.0563283-3.789899-13.6760027-6.9718808-21.0292558-10.24149-1.426403 5.783429-2.7712972 11.583289-4.0696151 17.388625-1.2983178-5.805336-2.4918387-11.331359-3.9182417-17.1093117-7.347431 3.2641326-14.0369701 6.3749167-21.3203585 10.0114667 5.1466949-4.803094 10.0255754-8.9708875 15.56817-13.3796571-7.8539496-.4764758-15.3818643-.5750569-23.4221196-.6845916 7.8830599-1.6046826 15.678789-2.8533776 23.684112-3.8172825-3.947352-2.9190984-7.8190173-5.6355577-12.0749381-8.1493779" fill="#fffffe"/><path d="m49.4606711 75.4963539c1.3923939 3.0231729 2.6121771 6.1033868 3.7571622 9.2043429 5.5983442-1.8616108 10.9895554-3.37579 16.7720178-4.7188462.1956256-.114082.3970049-.2333495.5983842-.3474315-5.9895954 1.3689839-11.5764322 2.9402041-17.370402 4.8640414-1.1449851-3.100956-2.3647683-6.1863555-3.7571622-9.2043429-1.3923939 3.023173-2.6064234 6.1033869-3.7571621 9.2095285-5.7882162-1.9290229-11.4843732-3.5624696-17.4682149-4.9314536.1956256.114082.3970049.228164.5926305.342246 5.7824624 1.3482418 11.2772401 2.9298331 16.8755844 4.7914439 1.1507387-3.1009561 2.3647682-6.1863556 3.7571621-9.2095285" fill="#b5272d"/><path d="m37.6470588 94.1176471c-4.9494284 4.5920389-9.5118065 9.1256579-14.117647 14.1176469.1650396-.102074.5697099-.353727.7341622-.455801 4.5224397-4.879002 8.5292038-8.8309927 13.3834848-13.3209578z" fill="#b7482f"/><path d="m47.0588235 89.4117647v.4129412c0-.1376471 0-.2752941 0-.4129412m-.2442748.1081812c-.0790301.0378634-.1508756.0703178-.2299057.1081812-1.415357.6328601-2.8307139 1.2765382-4.2317018 1.9256254l.064661.2109534c1.5374943-.719405 3.0821733-1.4009466 4.6412213-2.0987154v-.2542258c-.0790301.0378634-.1652447.0757268-.2442748.1081812" fill="#af2127"/><path d="m39.4094759 87.245283c-.0915542.0118387-.1831083.0295968-.2746624.0414355-.8102541.1065482-1.6250859.2190159-2.4399176.3374028-2.7374686-2.6873843-5.5481804-5.2504624-8.4596018-7.6241213v.2782094c2.9114214 2.3736589 5.7221332 4.936737 8.4596018 7.6241213.9063859-.136145 1.8127718-.2604513 2.71458-.3788383.8834973.6333703 1.7120622 1.2312246 2.5864042 1.8882723.1052872 0 .2517738-.0059193.3570611-.0059193-.9613184-.7221606-1.9729916-1.4620792-2.9434653-2.1605624m-11.1741818 16.284129c4.6261037-3.213027 9.3288161-6.2554043 14.1176471-9.089355v-.3224099c-4.788831 2.8352534-9.4915434 5.8763281-14.1176471 9.0893549z" fill="#b7482f"/><path d="m50.5692868 94.1176471c-1.2180244 4.5796945-2.4041355 9.3348209-3.5104633 13.9375989v.180048c1.1169656-4.65356 2.2658445-9.270188 3.4998255-13.9006654 3.5742898 1.9112838 8.7602015 4.8520755 15.3237039 8.9654904v-.272381c-4.983794-3.1254566-10.0792846-6.107798-15.3130661-8.9100909m10.8310196.2120799-.2238358-.2120799v.3611091c4.8870828 4.4536791 8.7935514 8.4430748 13.3448804 13.2865228.1705416.097442.6075545.366841.7727666.470015-4.7911531-5.112846-9.065352-9.497743-13.8938112-13.905567" fill="#932226"/><path d="m37.3989884 89.4505982c-7.8682013 1.1747136-15.5294631 2.6966883-23.2813413 4.6450848.3785322 0 .8393262.0276316 1.2281412.0209104 7.4511089-1.8333896 14.7441211-3.267989 22.3012705-4.3881863v-.3166424z" fill="#b7482f"/><path d="m42.3529412 91.3466091c-6.2776308-1.2964959-12.5266218-2.0390464-18.8235294-1.9229817v.4668968c6.2115389-.1147458 12.3746103.6106588 18.5674232 1.8741817.0853687-.1384863.1707374-.2796105.2561062-.4180968" fill="#b7482f"/><path d="m61.1764706 89.4117647c8.0558523 1.1882859 15.5965048 2.7276563 23.5294118 4.7058824-.3922545-.0135033-.9308725-.0202549-1.3289815-.0270065-7.546507-1.8499452-14.5426869-3.2340282-22.2004303-4.3547979z" fill="#932226"/><path d="m47.0588235 89.4117647c9.43134.0329083 18.8509347.6828466 28.2352941 1.9991773v.3537639c-9.2492904-1.2998766-18.5044533-1.958042-27.8065968-1.9991773-.0704708-.0575895-.1644318-.1316331-.2349026-.1892226-.0645982-.0493624-.1291965-.1069518-.1937947-.1645413.1291965 0 .2583929.0082271.3875893.0082271zm9.4117647-4.7327074c.1156237.0076643.219685.0191607.3353086.0268251 4.4977598-1.6478253 9.0822373-3.1845182 13.7823385-4.5564285v-.1494539c-4.821506 1.4063997-9.515826 2.9852462-14.1176471 4.6790573" fill="#932226"/><path d="m57.5047059 91.7245989c-.3411765-.771469-.6847059-1.5421516-1.0341177-2.3128342v.277603c.3129412.6912551.6211765 1.3832967.9282353 2.0753382z" fill="#af2127"/><path d="m49.4117647 126.400083c-.3453873.218428-.8202948.43893-1.1656821.658741-.3510894-.219811-.8316991-.440313-1.1844177-.658741.0073313-2.717219-.0081459-5.43582-.0008146-8.152347.3453873-.200456.8422888-.400221 1.1868615-.600677.3388705.200456.8072613.39953 1.1461319.600677.0057021 2.716527.0122189 5.435128.017921 8.152347m-44.25269164-19.253866c-.15128282.251806-.30256564.504181-.45319071.757125.28349085.094924.83008226.244985 1.07410803.331952 2.711909-1.250506 5.39356142-2.498739 8.05942782-3.703772.1026092-.354689.1637801-.549654.2782289-.81624-.2736246-.062525-.547907-.125619-.8215315-.18587-2.7237486 1.167518-5.43631531 2.37312-8.13704254 3.616805m-4.36163348-11.9755311c-.26557775.2218087-.5311555.4436174-.79743958.6669.14691535.2004385.3086635.4384591.4421587.6330023 2.72146562-.4060352 5.44434389-.7538549 8.16792849-1.0419852.25357024-.2549695.56011477-.5637332.80167752-.8010169-.16033551-.1702253-.31996469-.3404506-.47959387-.509939-2.71228341.2925517-5.42456682.6425821-8.13473126 1.0530388m13.88007742-15.1706859c-.1866233.1400759-.3732466.279318-.5598699.4202276.017271.1934381.0374206.5477967.0546916.7404011 1.3615348.3343477 2.7211505.7337307 4.0774079 1.1923125.1741498-.1775962.4101876-.4202276.5737828-.5728103-.0239876-.2051111-.0474954-.411056-.071483-.6170009-1.3557777-.4485763-2.7139541-.8379539-4.0745294-1.16313m54.7132322-4.7058824c.2847004.0013899.5701937.0041695.8548941.0069491.1149903.0986762.2283946.1987422.342592.2981133-1.1792462.6539036-2.3362874 1.3356034-3.4766748 2.0388451-.299768.0027796-.598743.0062541-.897718.0090337-.1110252-.1097946-.2212574-.2188944-.3314896-.3279941 1.1506969-.6997672 2.3196337-1.3766027 3.5083963-2.0249471m-22.2903298-4.5602911c.3757496-.0493132.7514992-.0974522 1.1272488-.1455912.3826822.048139.7653645.096278 1.1466602.1455912.0124788.6786427.0263441 1.3578725.0374363 2.0382764-.395161.0557708-.7917085.1121286-1.1882561.1690736-.3882283-.056945-.7764567-.1133028-1.1646851-.1690736.0124788-.6798169.0263441-1.3596337.0415959-2.0382764m-18.8651253 4.9307851c.1071797-.0960039.3485268-.2657009.4564775-.3610288.280672-.0033804.561344-.0067608.842016-.0094652 1.1550732.6301103 2.2893274 1.288616 3.4073889 1.9687565-.1110351.1068212-.2220702.2143186-.3323342.3218159-.2876117-.0040565-.7086197.0662562-.9954603.0621997-1.1072664-.6841969-2.2322676-1.3474352-3.3780879-1.9822781m-8.3804478 51.1710114c-.2446908.111203-.5583322.109614-.8030229.223201-.0529743-.328844-.1748993-.656894-.228294-.984149 1.2108408-2.731628 2.4363967-5.444987 3.6787698-8.136899.2417478-.096906.5520257-.194606.7941939-.290717.0559173.280391.1673315.759359.2329187 1.021481-1.2411119 2.703033-2.4654065 5.425129-3.6745655 8.167083m73.8070109-19.689843c.1539031.255755.3018868.506394.4557899.757033-.2841288.097187-.8346282.245525-1.0773215.332481-2.7110618-1.248082-5.3925269-2.496164-8.0562339-3.703325-.1065482-.352941-.1657417-.547314-.2782093-.813299.27229-.061381.54458-.127877.8227894-.189258 2.7229005 1.171355 5.4339623 2.373401 8.1331854 3.616368m-.3409434-11.9750941c.2655778.2218087.5311555.4436174.7967333.6669-.1462091.2004385-.3086635.4384591-.4414524.6330023-2.7214656-.4060352-5.4450502-.7538549-8.1686348-1.0419852-.252864-.2549695-.5601148-.5637332-.8016775-.8010169.1603355-.1702253.3199646-.3404506.4795938-.509939 2.7122834.2925517 5.4245668.6425821 8.1354376 1.0530388m-9.1748444-15.1706859c.1861246.1400759.3732086.279318.559813.4202276-.0172693.1934381-.0374168.5477967-.0546861.7404011-1.3618757.3343477-2.7208731.7337307-4.0769923 1.1923125-.1746117-.1775962-.4101457-.4202276-.574204-.5728103.0244648-.2051111.0479703-.411056.0719554-.6170009 1.3556395-.4485763 2.7131978-.8379539 4.074114-1.16313m-9.8829403 46.835623c.1997225.058779.5567002.150124.8026742.223201.0790481-.320901.1572552-.648156.2283143-.984149-1.2105285-2.731628-2.4366143-5.444987-3.6790985-8.136899-.2413488-.096906-.552075-.194606-.7938443-.290717-.0559223.280391-.1673464.759359-.2329395 1.021481 1.2408022 2.703033 2.4652062 5.425129 3.6748938 8.167083" fill="#fffffe"/><path d="m5.13144751 107.792835c-.0703794.124347-.1841704.316905-.25520755.442459-.05656662-.022334-.10129371-.036218-.17035761-.060966.15062507-.268615.30190789-.536625.45319071-.804033 2.70072723-1.320737 5.41329394-2.601032 8.13704254-3.840883.2736245.063984.5479069.130987.8215315.197386-.0578822.150303-.0999783.286723-.1499674.42435-.2196889-.057948-.5163348-.101409-.7347083-.153925-2.7237485 1.239852-5.40079667 2.474271-8.10152389 3.795612m-4.24430481-11.9689362c-.14762168.1451575-.5488136.5006628-.69572895.6466894-.07840194-.1234272-.09182209-.1599339-.19141375-.3242139.26628408-.2633695.53186183-.5250005.79743958-.7866316 2.71016444-.4841478 5.42244785-.8970208 8.13473126-1.2420956.15962918.1999174.31925836.400704.47959387.6014906l-.16174816.1981791c-.07275135-.0912667-.22461097-.2598927-.28464849-.3294292-2.71228341.3450749-5.3673546.7527326-8.07822536 1.2360112m13.2669655-14.6109726c-.0143926-.2522798-.0201496-.3701573-.0364611-.6576902.1866233-.1861803.3732466-.3701573.5598699-.555236 1.3605753.4296469 2.7187517.9441215 4.0745294 1.5368139.0239876.2721097.0474954.5442194.071483.8152274-.0311838.0396598-2.7835181-1.242671-4.1354578-1.6690129-.146804.1454189-.3871595.3844789-.5339634.5298978" fill="#b95b30"/><path d="m70.2456433 75.7312253.0507543.0457854c.0975436-.055801.1935011-.1130327.2918377-.1688337-.1141974-.1023018-.2276017-.205319-.342592-.3069054-.2847004-.0028616-.5701937-.0057232-.8548941-.007154-1.1887626.6674656-2.3576994 1.3642624-3.5083963 2.0846673.0872341.0894246.1744682.1788493.2624953.2682739 1.0658419-.6631731 2.1467516-1.3055997 3.245901-1.9222721.2847004.0014308.5701937.003577.8548941.0064386" fill="#932226"/><path d="m47.0588235 71.5870588c.1944046-.097647.3888092-.1941176.5832138-.2917647.1979914.0976471.3959828.1941177.5932568.2917647v-.7070588c-.197274-.0988235-.3952654-.1952941-.5932568-.2917647-.1944046.0964706-.3888092.1929412-.5832138.2917647z" fill="#a31f25"/><path d="m29.5609165 75.6689541c1.0646548.616366 2.0892793 1.3158697 3.121602 1.9781047.0862193-.0888713.1724386-.1777427.258658-.2658974-1.1162326-.7210048-2.2486312-1.4190751-3.4018149-2.0870438-.2802128.0028669-.5604257.0064504-.8406385.0100339-.1077742.1010554-.3564246.2809482-.463429.3827203.0931477.0544695.1862954.1110892.2794431.1669921l.2055407-.1748759c.2802129-.0035835.5604257-.007167.8406386-.0100339" fill="#b7482f"/><path d="m23.2502457 117.857415c.0664281.090759.1442078.301116.2161014.408839l.0630647-.073795c-.021442-.065312-.1685928-.395691-.2329187-.5454-.2421682.051317-.5524461.103482-.7941939.155223-1.2423731 1.437296-2.467929 2.886042-3.6787698 4.344544.0193398.063191.073155.142499.0924948.206115.777797-.934306 2.4561569-2.957716 3.6787698-4.372111.1921369-.044107.4544857-.079307.6554517-.123415m70.4412082-10.067199c.0710322.124839.1834999.320239.254532.445078.0532742-.021711.100629-.037994.1716612-.065133-.1539031-.265961-.3018868-.531922-.4557899-.803311-2.6992231-1.31895-5.4102849-2.594477-8.1331854-3.837438-.2782094.065133-.5504994.135694-.8227894.200828.0532741.146549.1006289.287672.1479837.423366.2190159-.059705.5149833-.103128.7339992-.151978 2.7229005 1.237533 5.3984462 2.469639 8.1035886 3.788588m-.4609495-11.9663172c.148328.1451575.5488136.5006628.6964352.6466894.078402-.1234272.0911158-.1599339.1907075-.3242139-.2655778-.2633695-.5311555-.5250005-.7967333-.7866316-2.7108708-.4841478-5.4231542-.8970208-8.1354376-1.2420956-.1596292.1999174-.3192583.400704-.4795938.6014906l.1624544.1981791c.0727514-.0912667.2239047-.2598927.2839422-.3294292 2.7129897.3450749 5.3680609.7527326 8.0782254 1.2360112m-8.5610794-14.6109726c.014391-.2522798.0201475-.3701573.0364574-.6576902-.1866044-.1861803-.3736884-.3701573-.559813-.555236-1.3609162.4296469-2.7184745.9441215-4.074114 1.5368139-.0239851.2721097-.0474906.5442194-.0719554.8152274.0316604.0396598 2.7837141-1.242671 4.1350363-1.6690129.146789.1454189.3875997.3844789.5343887.5298978m-13.8019987 36.6445458c-.066434.090784-.1442206.301197-.2161207.408949l-.0630703-.073814c.0214439-.06533.1686078-.395798.2329395-.545548.2417693.051331.5524955.10351.7938443.155265 1.2424842 1.437684 2.46857 2.886823 3.6790985 4.345718-.0269099.0683-.0525585.135327-.0824118.204899-.7778665-.934134-2.4656267-2.957244-3.6891897-4.37202-.1921541-.044119-.4541059-.07933-.6550898-.123449m-21.6798677.752095.2242061 8.449257-.0179365-8.765882c-.3391627-.216285-.8079573-.430341-1.14712-.645883-.3448697.215542-.8421996.430341-1.1878847.645883l.0008153 8.765882.2201297-8.452974c.2796461-.170204.6930006-.340408.9669397-.511355.270678.170947.6701725.343381.9408504.515072" fill="#932226"/><path d="m15.906988 93.4714644c3.1584935-13.6122597 23.2938896-17.6516701 35.8571511-17.6516701 12.5691542 0 32.6986576 4.0394104 35.8630439 17.6516701 3.9127606 16.8493216-22.857829 23.0744396-35.8571512 23.0744396-13.0052149 0-39.7758044-6.225118-35.8630438-23.0744396m-1.3671091.0996019c3.3647384-14.0881354 24.1719036-18.2769487 37.2242602-18.2769487s33.8654146 4.1888133 37.2242603 18.2824821c4.1838253 17.5354683-23.6945941 24.0704593-37.2183676 24.0704593-13.5296662 0-41.4080856-6.534991-37.2301529-24.0759927" fill="#b7482f"/><path d="m15.9023398 93.512456c3.1586932-13.589179 23.2953626-17.6217403 35.8594186-17.6217403 12.569949 0 32.7007254 4.0325613 35.8653117 17.6217403 3.913008 16.820752-22.8592744 23.035316-35.8594186 23.035316-13.0060373 0-39.7783198-6.220088-35.8653117-23.035316m-1.3613025.099433c3.3590581-14.0642478 23.3012557-18.3177714 37.2207211-18.3177714 13.8723207 0 33.8675561 4.2535236 37.2266142 18.3232955 4.1840899 17.5057349-23.6960924 24.0296459-37.2207211 24.0296459-13.5305218-.005524-41.4107042-6.523911-37.2266142-24.03517" fill="#fffffe"/><g transform="translate(94.118 98.824)"><path d="m.346 9.242h1.419v-8.821h-1.419z" fill="#542d38" mask="url(#c)"/><path d="m1.765 9.242h1.176v-8.821h-1.176z" fill="#542c38" mask="url(#c)"/></g><path d="m95.9636779 108.235294c-1.2548021-.393603-4.6894992-1.752802-7.244745-2.910757-.4782145-.227274-.9577914-.453278-1.4366871-.678647-.6594182-.32758-1.1648814-.610085-1.4162505-.81006 0 0-.4645902-.235527-1.1601129-.577708 1.7759332-2.615555 2.6608344-5.6507409 2.258235-9.1404749l.8147358.1707728 6.3455383.8970337 4.475597.8684658.0054498.0050787c.1416931.8684658.2145834 1.7420102.2180911 2.6161896.0094354 2.7063373-.6520265 5.4279113-2.0246792 8.0929833-.254094.490734-.5327118.979563-.8351723 1.467123" fill="#90483e"/><path d="m87.0588235 104.705882c-.860179-.4127-1.6589964-.809992-2.3529411-1.17647.7843137.390689 1.5697431.782479 2.3529411 1.17647" fill="#6e2531"/><path d="m82.7235978 103.529412c-1.0977776-.631211-2.3296602-1.304503-3.0628049-1.592159-1.5610497-.610485-7.4411697-3.1032976-8.5832795-4.0416352-1.1698175-.9703692-4.7828966-2.4061388-7.001172-3.234564-.528108-.5200425-1.0628659-1.0413412-1.6070444-1.564524 2.9392288-.2154283 5.8058635-.3881477 8.6664025-.5005724 1.1986334.6142531 3.9300547 1.8992857 6.1161892 2.0833105-.1163721-.5916426-.6162183-1.3874082-1.1559636-2.2133211.7048829-.008793 1.4114283-.0138176 2.1207444-.0138176.9647808 0 1.9356573.008793 2.9126294.026379.0027708.0006281.0049874.0012561.0077582.0018842.1424174.0025123.3058926.0050246.4726927.0075369.2194447.0043965.4388894.009421.6594424.0150737-2.4260829-.594783-4.809496-1.1418325-7.1851509-1.6449171-.2554647-.4547232-.4510807-.8818113-.5203499-1.2492326-.4887632-2.5832547-2.9575158-5.5565413-4.6083383-6.6361948-.2770766-.1821405-.4677053-.2951932-.6117852-.3655371.8522877-.6594742 1.7200917-1.3088993 2.6117242-1.9532998.0049874-.0012562.0099748-.0031404.0149622-.0043965.1695708-.124358.3441291-.2543686.5186874-.3787266-1.9029622.5470495-3.7588214 1.1236184-5.5941769 1.7378715-.1429716-.0332877-.2576813-.0540141-.3203006-.0540141-.0055415 0-.0105289 0-.0155163.0006281-.0083123.0006281-.0182871.0006281-.0293701.0006281-.3086634 0-1.6469434-.2235932-1.800998-.5998075.0748106.0226105.1645835.0395684.2693184.0395684 1.5361128 0 2.1645226-.480474 2.578475-1.2548852.2842807.0056527.5635739.0565264.9675516.1526212 0 0 .7026663.1231019 1.3216555.1231019.0958685 0 .1900745-.0031404.2792932-.0100492.6633214-.0452211.7331447-.3448108 1.5111759-.4013371.0454405-.0031404.0892186-.0050246.1329967-.0050246.6993414 0 1.1304726.4208074 1.3183306.9264042.1994952.5370005.9226651 1.8936331 1.3615545 2.6623916.4388894.7744112 3.446279 2.4928126 4.7629471 4.3694877.9525894 1.3566327 2.6881973 3.527245 3.4113673 4.7877828.4460933.7781796 1.2473989 1.4803626 1.9988307 1.9520437.2959178 3.385929-.4532973 6.315879-1.9184785 8.831302m-20.960292-9.7357238c-.5596948-.2286177-1.4657353-.5790812-2.1019032-.7254216 0 0-.4460934-.1482247-1.0927902-.3052424.6389387-.0540141 1.2784315-.1061439 1.9157077-.1526212.4278063.3925442.8539502.7869726 1.2789857 1.1832852m-4.9275306-1.3453274c-.1219137-.0131895-.2438274-.0244947-.365187-.0326597.0116373-.0546421.0232745-.1105404.0349117-.1651825.1119389.0659474.2216613.1318948.3302753.1978422m21.3238166-.4371372c-.8456379-.0960948-1.6918299-.186537-2.5380219-.2719546-.0576319-.0898141-.1141555-.1783721-.1695709-.26693.8999449.1739756 1.8021064.3536038 2.7075928.5388846m-10.0035743-9.6565866c-.1008559-.0288913-.2155656-.061551-.3369251-.0967229.5746569-.2066353 1.1504221-.4095021 1.7272956-.6079724-.4649346.231758-.9282067.4666565-1.3903705.7046953" fill="#90483e"/><g transform="translate(47.059 89.412)"><path d="m-.243.654.746 2.157.43-.039-.747-2.157" fill="#914c40" mask="url(#d)"/><path d="m.049.615.507 2.157 1.169-.155-.507-2.156" fill="#914c40" mask="url(#d)"/><path d="m1.218.461.507 2.156 1.168-.154-.506-2.157" fill="#914b3f" mask="url(#d)"/><path d="m2.387.306.546 2.157.63-.078-.547-2.156" fill="#914a3f" mask="url(#d)"/><path d="m2.971.229.547 2.156.629-.077-.546-2.156" fill="#914a3f" mask="url(#d)"/><path d="m3.555.152.547 2.156.63-.077-.547-2.156" fill="#91493e" mask="url(#d)"/></g><path d="m55.2034821 94.1176471c-.0030598-.0006331-.0055077-.0018991-.0079555-.0025321-.5067026-.4551425-1.0176889-.909019-1.5354068-1.3635285l-.2313208-.2107962v.3589233c.3843107.3367674.7618898.6703698 1.1351852 1.0020731-.8218618-.2747314-1.3554906-.4437481-1.3554906-.4437481s-.2227534-.0892561-.5593312-.2145943c-.469373-.3994366-.93997-.7969742-1.4124029-1.1926127-.7037536.0468436-1.409955.0993844-2.1155445.1538243-.5477039-.1215402-1.2269791-.2481445-1.9135979-.3171438-.119944-.0664673-.2411121-.1329346-.3647279-.1994018-.7637257-.410831-1.592319-.8172309-2.3352381-1.2210986.0477329-.058871.0960777-.117109.1444225-.174714.0085674.0050642.0171349.0101284.0250904.0151925 5.1398491.0170916 10.2656232.1823102 15.3828299.498821 1.0966317.3051164 1.729398.6349207 1.729398.6349207l.5342408.2677681s.2502915.1291364.6756034.3272721c-3.1589357.1133109-6.324603.2873918-9.5704371.5045182.6009444.527307 1.1914855 1.0527149 1.7746831 1.5768568m-12.8505409-1.4173353c.4681491-.1253383.8536837-.3589233 1.0850045-.7235437.1389148-.2221906.2741579-.4285556.4069531-.6222602.0091794.3190429.0189708.6380857.0281502.9583947-.5373006.1430628-1.1064231.2905569-1.5201078.3874092m32.9411764-.7577269c-2.6791593-.5994714-5.3111978-1.1508332-7.9346689-1.6578834 2.6234711.5070502 5.2555096 1.058412 7.9346689 1.6578834m0 0c-.2435599-.0056972-.4858959-.0107613-.7282319-.0151925.2539632.0037982.5140461.0088623.7282319.0151925m-1.258801-.0246878c-1.0788848-.0177246-2.1510382-.0265869-3.2164599-.0265869-.7833084 0-1.563557.0050642-2.3419697.0139265-.1119886-.1563564-.2252011-.3139787-.3378017-.4709681.8720425.0810268 1.744697.1671177 2.6167395.2576398v-.2449793c-.9338504-.0968523-1.8683128-.1880075-2.8027752-.2740984.9344624.0860909 1.8689248.1772461 2.8027752.2740984-.9999421-.1867414-1.9962124-.3677856-2.9900349-.5431326-.0764949-.1107787-.1505421-.2209245-.2221413-.3298042 2.1369631.4133631 4.2892252.8596433 6.491668 1.3439048m-13.015158-9.9492c-.4130728-.1848423-.4797764-.0822928-.9766876-.1728149-.0067316-.001266-.014687-.0031651-.0226425-.0044312.4032814-.1886404.8077867-.3753817 1.2122921-.559591v-.2221906c-.5091505.2316859-1.017077.4671699-1.5231676.704553-.000612 0-.0012239 0-.0012239 0 .5103743-.2399152 1.0219726-.4766652 1.5354067-.7102502-.63705.2000348-1.272876.4045008-1.9074782.6127649-.1921553-.0500087-.3989977-.1038155-.5942128-.1519252 1.6951282-.5114814 3.4098392-.997642 5.1618797-1.4648119-.9846431.6494801-1.9429719 1.3040244-2.8841659 1.9686971" fill="#937d86"/><path d="m70.5882353 91.7647059c-4.7010794-.2234525-9.4074673-.3599324-14.1176471-.412116.1046538-.6435966.1736647-1.2905384.2047575-1.9388181.0007583-.0006691.0022751-.0013381.0030334-.0020071.7234764.0802823.7424354.2863403 1.9542961.6462727.6756996.20472 3.2556435 1.0055362 10.0535909 1.5414207.6817665.0274298 1.3180313.0869725 1.9019692.1652478" fill="#90483e"/><g transform="translate(47.059 89.412)"><path d="m.003.393.581 2.056 1.402-.154-.58-2.056" fill="#914b3f" mask="url(#e)"/><path d="m1.406.239.58 2.056.701-.077-.58-2.057" fill="#914a3f" mask="url(#e)"/><path d="m2.107.161.58 2.057.701-.077-.58-2.057" fill="#914a3f" mask="url(#e)"/><path d="m2.808.084.58 2.057 1.773-.196-.58-2.056" fill="#91493e" mask="url(#e)"/></g><path d="m47.0588235 91.7647059c.1824248-.2981419.371606-.6018827.5692327-.9168212.3040413-.4787067.5168701-.9574133.6612897-1.43612.2128288.0125975.4408598.0377926.6840927.0503902.1706009.0139973.3133314.0335934.4383261.0587885-.0008446.0013997-.0025337.0027995-.0033782.0041992-.7862844.7404556-1.5691905 1.4879099-2.349563 2.2395633" fill="#937d86"/><path d="m66.2072663 82.3529412c-.1170061-.048282-.2284183-.0925405-.3249134-.1263378 1.543921-.7869961 3.1050899-1.5257102 4.7058824-2.2266034-.1468403.1593305-.2936806.3259033-.4363255.4852338-.0041954.0016094-.0083909.0040235-.0125863.0056329-1.3346153.5938682-2.6407948 1.2118773-3.9320572 1.8620745" fill="#7b2b38"/><path d="m63.5294118 96.4705882c-.2999246-.1144776-.581104-.2213865-.841093-.3188344-.4971576-.4957544-1.0000203-.994347-1.5118482-1.4976702v-.5364365l.3080747.31505c.6895006.679297 1.3700361 1.357648 2.0448665 2.0378911m21.1764706-4.7058823c-.2540582-.0089841-.5625573-.0161714-.8637977-.0215619-.21849-.0035937-.4326247-.0071873-.6191759-.010781-.0036294-.0008984-.0065329-.0017968-.0101623-.0026952-2.6124434-.6872852-5.1653647-1.3206657-7.7001389-1.9073288-.0754915-.1383554-.1488054-.2758125-.21849-.4105743 3.1118491.7196281 6.2338606 1.502145 9.4117648 2.3529412m-9.4117648 0c-.9432505-.1309224-1.8871629-.255436-2.8304134-.3726253-.0675169-.1263447-.1343719-.2526894-.2012268-.3781186 1.0107674.1245136 2.0215348.2563516 3.0316402.3964294zm-11.5692158-1.2808423c-5.5350602-.4577707-11.0793875-.696727-16.6389391-.7214466-.0086051-.0073243-.0178721-.0146486-.0271392-.021973.0701646-.1107805.1409912-.2206454.2118177-.3286793 4.9366753.0302129 9.870041.2261387 14.7961255.5932708.625524.1318379 1.1822073.3021286 1.6581351.4788281m2.6376818-9.307393c-.1087136-.0238152-.2769834-.0647773-.4802307-.1162182.7817929-.3572279 1.5664217-.711598 2.3529412-1.0602524v.3343653c-.624867.2772089-1.2497341.5582282-1.8727105.8421053" fill="#6e2531"/><path d="m85.0039664 103.529412c-.0983177-.052639-.1972615-.105935-.298084-.15989 1.6557439-2.635215 2.5024026-5.7046977 2.1679974-9.2518749.0225442.0131596.0450884.0263192.0676326.0388209.4289654 3.589946-.3412937 6.700224-1.937546 9.372944" fill="#7d373b"/><path d="m86.4089249 103.529412c-.4935348-.18498-1.078304-.401406-1.7030425-.628314 2.2148242-2.504625 3.2835703-5.4192877 2.6883743-8.7834509.6959883.2682205 1.3589585.4544333 1.8551.5278086l.0399693.006166c.5135195 3.3894438-.6151806 6.3374033-2.8804011 8.8777903m8.215781-13.1247061c-.0835294-.1705883-.1694118-.3388235-.2552941-.5082353.0858823.1682353.1717647.3388235.2552941.5082353m-.3447059-.682353c-.0541176-.1035294-.1082353-.2058823-.1623529-.3105882.0164705.0329412.0341176.0647059.0505882.0964706.0129412.0235294.0247059.0470588.0376471.0705882.0247058.0470589.0494117.0964706.0741176.1435294" fill="#937d86"/><g transform="translate(94.118 89.412)"><path d="m-.016 1.814h.709v-1.31h-.709z" fill="#552d38" mask="url(#f)"/><path d="m.693 1.814h.709v-1.31h-.709z" fill="#542d38" mask="url(#f)"/></g><path d="m94.1176471 94.1176471c-1.7239608-.1072033-5.0935206-.2373787-6.6728134-1.3017538.0060279-.7121359-2.1459092-.8882555-2.1459092-.8882555s-.7715629-.5819605-.5545608-1.0337456l1.6998494-1.2787816s.6443086-.1922852 1.2310179-.1922852c.0221021 0 .0435344 0 .0649667.0008508.2967034-.0085082.5773326-.0119115.8418876-.0119115 2.7024793 0 3.7901687.3896753 3.8779071.4177524v.0076573c.2042767.4364704.4018557.8763441.5880488 1.3204718.0053581.0119115.0100464.0246738.0154045.0365852.0308089.075723.0616179.1497443.0924268.2246164.016744.0416901.0341577.0842311.0509017.1259213.0488925.122518.0977849.2441851.1453378.367554.119887.3088474.2344158.6193965.3442564.9299456.0120556.033182.0234416.0663639.0354972.0995459.0127254.037436.0254509.0731705.0381763.1106065.1218962.3530901.2377646.7087326.3476052 1.065226" fill="#90483e"/><g transform="translate(89.412 112.941)"><path d="m-.195 1.948h.71v-1.793h-.71z" fill="#572e39" mask="url(#g)"/><path d="m.278 1.948h1.891v-1.793h-1.891z" fill="#572d38" mask="url(#g)"/><path d="m2.169 1.948h.71v-1.793h-.71z" fill="#562d38" mask="url(#g)"/></g><path d="m86.8241207 112.941176c-1.2754699-.326959-2.5188237-.467085-2.5188237-.467085s-2.3857711-.603318-3.0969144-.681165c-.7157313-.08174-4.1338072-.906924-5.0835276-1.447964 0 0-.0555661-.077848-.1376407-.202836.9752095-.464058 1.896892-.966607 2.7502639-1.512404.2523412.081307.4786836.230515.5852276.496926 3.1106785 1.374009 7.2031935 1.416825 10.0890589 1.467426-.0683105.07309-.1376406.14618-.2079903.21927-.020901.021625-.0428215.044114-.0642323.065738-.009176.009947-.0188619.019895-.0285477.029842-.3150441.32177-.6489501.641377-1.001718.957957-.0005097.000865-.0015293.00173-.0025489.002595-.0336455.030274-.0672909.060115-.1014462.090389-.0132543.011677-.0265086.023787-.0397629.035464-.0214107.01903-.0433313.037626-.0642323.056656-.025489.022057-.0504682.044113-.0759572.06617-.0056076.004758-.0101956.00865-.0158032.013407-.1289744.112014-.2599879.223596-.3935503.334745-.1926969.159587-.3899818.319174-.5918547.474869m-11.405821-3.843937c-.180972-.45584-.2135979-.861945.2446945-.861945h.0030586c.5373083 0 .9328977.035464 1.2229626.08347-.4725662.271169-.9639942.530661-1.4707157.778475" fill="#90483e"/><path d="m75.4526157 110.588235c-.0584933-.210425-.111955-.42372-.1584981-.631277.6251868-.548063 1.2315047-1.121951 1.814551-1.721664.2295706.06791.4050506.147298.5383902.224773-.6981461.747967-1.432143 1.457676-2.1944431 2.128168" fill="#7d373b"/><g transform="translate(28.235)"><g><path d="m47.4372193 112.558908c-.1501605-.271877-.3721926-.693866-.5544386-1.131317.7777541-.451625 1.5266311-.929664 2.2389305-1.433473.3080214.117899.3946524.228711.3946524.228711s.2425669-.049608.5666311-.049608c.2483422 0 .5441711.028992.8162566.132717-1.0742246.813054-2.2344385 1.561681-3.462032 2.25297" fill="#937d86"/><path d="m38.482139 52.9354342s-1.2083422-1.1003922-1.2275935-1.164818c-.0879145-.3884873.3413903-.9038935.4459893-1.5507282-.1251337-.0444538-.2502674-.1043698-.3696257-.1571989-.293262-1.1177871-.5351872-3.134958.0012834-4.2140897.2611765-.5263585.5717647-1.2189355.3927273-1.8342016-.9952941-3.4261625-2.9679145-6.4110084-4.3597861-9.6651541-.3773262-.8813445-.3150802-1.5178712-.3696257-2.4204762-1.0761497-1.1892997-2.3223529-4.3062185-2.9229946-6.2306162-1.2532621 3.1832773-2.0849198 6.8407283-2.0849198 7.6872829 0 3.5827171 3.6166845 5.3189916 2.3640642 11.2745098-.2419252 1.1487115-.6725134 2.7387395-1.1011765 4.3790196.7501604 4.1503081.7501604 7.1622129 1.8571123 11.9703081 1.546524 1.5365546 2.8395722 3.5079832 3.5274866 6.0115686.4254546 1.5487956 1.7274866 5.1882073 3.3895187 5.7338936 1.03123.337591-3.495401 1.1706162-4.7781818-.4419608-1.2346524-1.5533053-3.3651337-2.7928571-4.3739037-4.4434454-.8059893-1.3155742-2.0560428-4.1193837-2.8459893-5.4510644l-.9683423 5.1038095c1.3174332 5.4484874.5319786 6.6513166-.6391444 11.0722129-.5056684 1.9102241-4.3469518-7.0236975-4.3508021-7.7207843 0-1.9417927-.1238503-2.6594958-.5762567-4.37-.8053476-1.5745658-.7187166-3.8094958-.6089839-5.5064706.1841711-2.842465.1610695-8.194958.284278-9.6039496-.9696256-2.3908403-3.451123-6.7099439-3.7001069-9.1407283-.3863102-3.7882353.2515508-7.6209243-.2740107-11.3969187-.6474867 1.8921848-1.3354011 4.2914005-2.7997861 5.7396919-2.193369 2.1705042-4.21860964 4.5761624-6.17518718 6.9554061-.7142246.9792717-.08342246 1.4573109-1.18973262 3.0247899-1.08834225 1.5417087-.50502674.8465547-.73219252 2.3193278-.03914438.255126-.1662032.4548459-.25090909.5424649-.58267379.4902802-1.20064171.9103362-2.03550802.5585715-1.61326203-.8130532-1.72877005-2.0171709-1.83978609-3.5659664-.21176471-2.9558544 1.96556149-3.0956583 3.19828877-4.8834734 2.42117647-3.512493 3.64684492-9.4029412 6.23935828-12.0540616.16299466-.5250701.76877007-2.4153222 1.92898397-5.2294398.0346524-3.4963866.8958289-6.6068627 4.4759358-8.0416247 1.4669519-.587563 3.3895187-.7370308 3.4607487-2.7722408.0089839-.2422409-.0410695-.8678152-.1950802-1.0900841-.5922995-.4793277-1.0055615-.4915686-1.2904813-.8310924-.580107-.747339-1.060107-5.55414568-.9959358-5.86081234.8425668-4.07815126 2.7831016-5.43689076 5.2453476-5.3144818 2.9095187.14495799 5.2164705 1.54686275 5.0906951 5.47168068-.1007486 3.16008403-3.3497326 7.21310926 1.5118717 8.74966386 1.8558289.5869188 2.2094118.1803922 3.8059893 1.7910364 1.7890909 1.8052101 2.2235294 5.0116807 2.5219251 7.9836415l1.8250268 4.2527451c3.3458823 5.6527171 2.1343315 7.4405322 3.3651337 13.1956862.3182887 1.4895239.8675935 2.8070309.984385 6.062465.0551872 1.5539496-1.1704813 5.0194118-2.860107 5.0761065" fill="#f2ac59"/></g><g><path d="m18.895-20.515-62.218 68.05 17.174 18.785 62.218-68.051" fill="#27327c" mask="url(#h)"/><path d="m36.069-1.731-62.218 68.051 1.032 1.128 62.217-68.051" fill="#27327b" mask="url(#h)"/><path d="m37.1-.603-62.217 68.051.516.564 62.217-68.051" fill="#27317b" mask="url(#h)"/><path d="m37.616-.039-62.217 68.051.515.564 62.218-68.051" fill="#27317b" mask="url(#h)"/><path d="m38.132.525-62.218 68.051.516.564 62.217-68.051" fill="#27317a" mask="url(#h)"/><path d="m38.647 1.089-62.217 68.051 1.031 1.127 62.218-68.05" fill="#27317a" mask="url(#h)"/><path d="m39.679 2.217-62.218 68.05.515.564 62.219-68.05" fill="#273179" mask="url(#h)"/><path d="m40.195 2.781-62.219 68.05.516.564 62.218-68.05" fill="#273179" mask="url(#h)"/><path d="m40.71 3.345-62.218 68.05.516.564 62.218-68.05" fill="#273079" mask="url(#h)"/><path d="m41.226 3.909-62.218 68.05.516.565 62.218-68.051" fill="#273078" mask="url(#h)"/><path d="m41.742 4.473-62.218 68.051 1.031 1.128 62.218-68.051" fill="#273078" mask="url(#h)"/><path d="m42.773 5.601-62.218 68.051.516.564 62.217-68.051" fill="#273077" mask="url(#h)"/><path d="m43.288 6.165-62.217 68.051.644.705 62.218-68.05" fill="#273077" mask="url(#h)"/><path d="m43.933 6.871-62.218 68.05.516.564 62.218-68.051" fill="#273076" mask="url(#h)"/><path d="m44.449 7.434-62.218 68.051 1.031 1.127 62.218-68.05" fill="#262f76" mask="url(#h)"/><path d="m45.48 8.562-62.218 68.05.516.564 62.218-68.05" fill="#262f76" mask="url(#h)"/><path d="m45.996 9.126-62.218 68.05.515.565 62.218-68.051" fill="#262f75" mask="url(#h)"/><path d="m46.511 9.69-62.218 68.051.516.564 62.218-68.051" fill="#262f75" mask="url(#h)"/><g fill="#262f74"><path d="m47.027 10.254-62.218 68.051 1.032 1.128 62.218-68.051" mask="url(#h)"/><path d="m48.059 11.382-62.218 68.051.515.564 62.218-68.051" mask="url(#h)"/><path d="m48.574 11.946-62.218 68.051.516.564 62.218-68.051" mask="url(#h)"/></g><path d="m49.09 12.51-62.218 68.051.516.564 62.217-68.05" fill="#262e73" mask="url(#h)"/><path d="m49.605 13.075-62.217 68.05 1.031 1.128 62.217-68.05" fill="#262e73" mask="url(#h)"/><path d="m50.636 14.203-62.217 68.05.516.564 62.217-68.05" fill="#262e72" mask="url(#h)"/><path d="m51.152 14.767-62.217 68.05.515.564 62.218-68.05" fill="#262e72" mask="url(#h)"/><path d="m51.668 15.331-62.218 68.05.645.705 62.218-68.051" fill="#262e71" mask="url(#h)"/><path d="m52.313 16.035-62.218 68.051.515.564 62.218-68.051" fill="#262e71" mask="url(#h)"/><path d="m52.828 16.599-62.218 68.051 1.032 1.128 62.218-68.051" fill="#262d71" mask="url(#h)"/><path d="m53.86 17.727-62.218 68.051.515.564 62.218-68.05" fill="#262d70" mask="url(#h)"/><path d="m54.375 18.292-62.218 68.05.516.564 62.218-68.05" fill="#262d70" mask="url(#h)"/><path d="m54.891 18.856-62.218 68.05.516.564 62.218-68.05" fill="#262d6f" mask="url(#h)"/><path d="m55.407 19.42-62.218 68.05 1.031 1.128 62.218-68.05" fill="#262d6f" mask="url(#h)"/><path d="m56.438 20.548-62.218 68.05.516.564 62.217-68.05" fill="#262d6f" mask="url(#h)"/><path d="m56.953 21.112-62.217 68.05.516.564 62.217-68.05" fill="#262c6e" mask="url(#h)"/><path d="m57.469 21.676-62.217 68.05.515.564 62.218-68.05" fill="#252c6e" mask="url(#h)"/><path d="m57.985 22.24-62.218 68.05 1.032 1.128 62.217-68.05" fill="#252c6d" mask="url(#h)"/><path d="m59.016 23.368-62.217 68.05.516.564 62.217-68.051" fill="#252c6d" mask="url(#h)"/><path d="m59.532 23.931-62.217 68.051.515.564 62.218-68.051" fill="#242b6c" mask="url(#h)"/><path d="m60.048 24.495-62.218 68.051.644.705 62.218-68.05" fill="#242b6c" mask="url(#h)"/><path d="m60.692 25.201-62.218 68.05 1.032 1.128 62.217-68.05" fill="#242b6b" mask="url(#h)"/><path d="m61.723 26.329-62.217 68.05.516.564 62.217-68.05" fill="#242b6b" mask="url(#h)"/><path d="m62.239 26.893-62.217 68.05.515.564 62.218-68.05" fill="#232a6b" mask="url(#h)"/><path d="m62.755 27.457-62.218 68.05.516.564 62.217-68.05" fill="#232a6a" mask="url(#h)"/><path d="m63.27 28.021-62.217 68.05.516.564 62.217-68.05" fill="#232a6a" mask="url(#h)"/><path d="m63.786 28.585-62.217 68.05 1.031 1.128 62.217-68.05" fill="#222a69" mask="url(#h)"/><path d="m64.817 29.713-62.217 68.05.516.564 62.217-68.05" fill="#222a69" mask="url(#h)"/><path d="m65.333 30.277-62.217 68.05.515.565 62.218-68.051" fill="#222968" mask="url(#h)"/><path d="m65.849 30.841-62.218 68.051.516.564 62.218-68.051" fill="#222968" mask="url(#h)"/><path d="m66.365 31.405-62.218 68.051 1.031 1.127 62.218-68.05" fill="#212968" mask="url(#h)"/><path d="m67.396 32.533-62.218 68.05.516.564 62.218-68.05" fill="#212967" mask="url(#h)"/><path d="m67.912 33.097-62.218 68.05 13.201 14.439 62.218-68.051" fill="#212867" mask="url(#h)"/></g></g></g></svg>