<svg height="360" viewBox="0 0 640 360" width="640" xmlns="http://www.w3.org/2000/svg" xmlns:xlink="http://www.w3.org/1999/xlink"><linearGradient id="a" gradientTransform="scale(1.4329338 .69786892)" gradientUnits="userSpaceOnUse" x1=".101148" x2="54.593246" y1="123.00422" y2="123.00422"><stop offset="0" stop-color="#ca581a"/><stop offset="1" stop-color="#6e2e2b"/></linearGradient><linearGradient id="b" gradientTransform="scale(1.0572923 .94581223)" gradientUnits="userSpaceOnUse" x1="-5.953519" x2="39.690697" y1="82.537732" y2="75.338046"><stop offset="0" stop-color="#ffe07d"/><stop offset="1" stop-color="#ee7203"/></linearGradient><linearGradient id="c" gradientTransform="scale(.65784819 1.5201076)" gradientUnits="userSpaceOnUse" x1="56.066517" x2="64.021903" y1="17.019093" y2="35.401816"><stop offset="0" stop-color="#2d2c86"/><stop offset="1" stop-color="#282674"/></linearGradient><g fill="none" fill-rule="evenodd" transform="matrix(1.1164188 0 0 1.1164188 63.794384 121.3202966786)"><path d="m314.45902 61.836066c-1.5082 9.652459-6.48525 14.629508-12.36722 14.629508-3.77049 0-5.88196-2.714754-5.27869-6.786885l2.11148-12.970492c.7541-4.82623 3.77049-8.596722 8.89836-8.596722 5.42951 0 8.14426 3.921312 6.63607 13.724591zm-20.51148 19.154098c.7541 0 2.71475 3.318033 9.04918 3.318033 13.27213 0 20.96394-9.652459 23.07541-22.170492 2.71475-15.383607-4.82623-22.321312-14.17705-22.321312-4.37377 0-7.6918.45246-10.10492 1.659017l3.61968-21.114754h-11.16066l-11.00984 63.193442h8.29509c0 .15082 1.20655-2.563934 2.41311-2.563934zm118.0918-26.845902c1.65902-9.501639-1.80983-14.177049-12.21639-14.177049-7.6918 0-10.7082 3.468853-13.57377 6.334426l.30164-5.278688h-10.25574l-.7541 7.842623-5.88196 34.839344h11.31147l3.61967-22.622951c1.35738-7.842623 6.63607-13.72459 11.76394-13.72459 5.58033 0 5.58033 3.167213 4.67541 8.144262l-4.82623 28.203279h11.16065zm46.7541-14.177049h-13.12131l-15.08197 15.986885h-.15082l6.03279-35.291803h-10.85902l-11.00983 63.042623h11.16065l1.05574-6.334426 2.2623-13.87541c5.88196 0 9.2.603279 11.76393 12.367213l1.80984 7.842623h11.31147s-2.86557-11.914754-4.67541-16.590164c-1.96065-4.977049-4.07213-8.144262-8.59672-9.04918zm-322.15082 15.534426c8.14426-1.809836 12.36722-8.295082 13.42295-12.668852 2.86558-11.763935-2.26229-20.963935-17.34426-20.813115h-17.19344l-10.7082 61.534426h11.31148l4.52459-24.583606c10.25573-.30164 11.61311 2.262295 13.57377 14.177049l1.80983 10.557377h11.61312c-1.35738-6.334426-2.2623-12.367213-3.31803-17.193443-1.20656-5.127868-3.0164-9.04918-7.84263-10.859016zm2.2623-14.780328c-.90492 5.429509-5.12787 9.35082-10.40656 9.35082h-6.63606l3.46885-19.455738h6.03278c7.08853 0 8.44591 4.67541 7.54099 10.104918zm50.52459 11.613115c1.65901-9.350819-3.31803-12.518033-13.42295-12.518033-12.51804 0-17.94754 5.881968-17.94754 5.881968l3.92131 6.485246s4.07213-4.67541 12.21639-4.67541c4.52459 0 4.67541 2.262295 4.22295 4.67541l-.90492 5.580327c-16.1377-.452459-24.43278 3.016394-26.24262 13.724591-1.5082 8.747541 4.97705 12.819672 12.36721 12.819672 3.7705 0 6.78689-.603279 10.55738-3.770492.7541 2.111475 1.96066 3.167213 3.46885 3.468852 2.2623.452459 6.33443 0 7.54099-.904918-.15082-1.357377 0-4.52459 1.35737-12.367213zm-13.27213 11.462295c-1.80984 12.668853-3.46886 14.02623-9.65246 14.02623-4.22295 0-5.73115-2.865574-4.97705-6.636066 1.05574-5.278688 4.97705-7.390164 14.62951-7.390164zm190.63606-11.462295c1.65902-9.350819-3.31803-12.518033-13.42295-12.518033-12.51803 0-17.94754 5.881968-17.94754 5.881968l3.92131 6.485246s4.07213-4.67541 12.2164-4.67541c4.52459 0 4.67541 2.262295 4.22295 4.67541l-.90492 5.580327c-16.13771-.452459-24.43279 3.016394-26.24262 13.724591-1.5082 8.747541 4.97704 12.819672 12.36721 12.819672 3.77049 0 6.78688-.603279 10.55738-3.770492.75409 2.111475 1.96065 3.167213 3.46885 3.468852 2.26229.452459 6.33442 0 7.54098-.904918-.15082-1.357377 0-4.52459 1.35738-12.367213zm-13.27213 11.462295c-1.80984 12.668853-3.46885 14.02623-9.65246 14.02623-4.22295 0-5.73115-2.865574-4.97705-6.636066.90492-5.278688 4.82623-7.390164 14.62951-7.390164zm-141.61967 20.662295c13.27213 0 20.96393-9.652459 23.07541-22.170491 2.71475-15.383607-4.82623-22.321312-14.17705-22.321312-4.37377 0-7.54098.452459-10.10492 1.659016l3.61967-21.114754h-11.16065l-11.00984 63.193443h8.29508s1.20656-2.563934 2.41312-2.563934c.90492-.15082 2.71475 3.318032 9.04918 3.318032zm4.67541-36.347541c5.73115 0 8.14426 3.921312 6.78688 13.724591-1.35737 10.104918-6.48524 14.629508-12.51803 14.629508-3.77049 0-5.88197-2.714754-5.27869-6.786885l2.11148-12.970492c.90492-4.82623 3.77049-8.596722 8.89836-8.596722zm23.07541 17.645902c1.65901-16.137705 8.89836-26.091803 26.24262-26.091803 12.81967 0 17.04262 9.803278 15.23279 20.209836-2.71476 16.740983-9.35082 24.734426-25.63935 24.734426-10.55737 0-16.8918-8.596721-15.83606-18.852459zm29.86229-4.977049c.7541-4.373771 1.65902-13.121312-5.88196-13.121312-5.12787 0-9.9541 3.468853-12.06558 15.685246-1.35737 7.390164.15082 13.422951 6.03279 13.422951 4.22295 0 9.65246-3.619672 11.91475-15.986885z" fill="#2d2c86" fill-rule="nonzero"/><path d="m75.409836 74.957377c.15082.15082.452459.301639.603279.452459-.15082.15082-.15082.301639-.30164.452459-1.960655-.301639-3.921311-.452459-5.881967-.754098-.150819-.15082-.452459-.452459-.603278-.603279.150819-.15082.301639-.301639.301639-.301639 1.960656.150819 3.921311.452459 5.881967.754098z" fill="#fff"/><path d="m75.259016 75.108197c.15082.150819.452459.301639.452459.301639s0-.15082.15082-.15082c-.15082-.150819-.452459-.301639-.603279-.452459-1.960655-.301639-3.921311-.452459-5.881967-.754098-.150819.15082-.301639.301639-.301639.301639s.15082 0 .15082.15082c0 0 .150819-.15082.150819-.15082 2.111476.30164 3.921312.603279 5.881967.754099z" fill="#a81815"/><path d="m71.488525 71.639344c-.452459 0-1.055738.15082-1.055738.15082l-1.357377.754098c-.15082.30164.452459.603279.452459.603279s1.659016.15082 1.659016.603279c1.206558.603278 3.770492.754098 4.977049.754098-.150819-.452459-.301639-.904918-.603278-1.357377-.15082-.452459-.452459-.904918-.603279-1.206557 0-.15082-.904918-.30164-3.468852-.30164z" fill="#4f2644" fill-rule="nonzero" opacity=".45"/><path d="m71.790164 66.813115c1.659016 1.659016 3.016393 3.468852 3.921311 5.429508 3.016394 6.183607 1.960656 12.970492-4.072131 18.852459-6.937705 6.786885-18.701639 11.009838-32.426229 11.009838s-25.488525-4.222953-32.4262298-11.009838c-6.03278684-5.881967-7.08852454-12.668852-4.0721311-18.852459.904918-1.960656 2.2622951-3.770492 3.9213115-5.429508-1.9606558 1.809836-3.4688525 3.468852-4.8262295 6.334426-3.0163935 5.881967-1.96065577 14.327869 4.2229508 20.511475 7.0885241 6.937704 18.2491801 11.160654 33.3311471 11.160654 15.232787 0 26.242623-4.37377 33.029509-11.160654 6.636065-6.636065 6.937704-15.383606 4.22295-20.662295-1.206557-2.262295-2.714754-4.222951-4.826229-6.183606z" fill="url(#a)" fill-rule="nonzero"/><path d="m60.629508 5.4295082c-6.334426-2.7147541-13.87541-4.0721312-21.416393-4.0721312-7.540984 0-15.081968 1.3573771-21.416394 4.0721312-7.088524 2.8655738-12.5180325 7.2393448-15.0819669 12.5180328-3.01639344 6.183606-1.96065574 12.970492 4.0721311 18.852459 6.9377048 6.786885 18.7016398 11.009836 32.4262298 11.009836s25.488524-4.222951 32.426229-11.009836c6.032787-5.881967 7.088525-12.668853 4.072131-18.852459-2.563934-5.278688-7.993442-9.652459-15.081967-12.5180328z" fill="#ee7203" fill-rule="nonzero" transform="translate(0 54.295082)"/><path d="m40.419672 62.740984c-1.206557-2.563935-1.055738-4.97705-.754098-6.937705-.15082 0-.30164 0-.452459 0-7.540984 0-15.081968 1.357377-21.416394 4.072131-7.088524 2.865574-12.5180325 7.239344-15.0819669 12.518033-3.01639344 6.183606-1.96065574 12.970491 4.0721311 18.852459.4524591.452459.9049181.754098 1.3573771 1.206557 25.4885247-1.659016 38.7606557-16.590164 32.2754097-29.711475z" fill="url(#b)" fill-rule="nonzero"/><path d="m22.77377 63.193443c4.67541 1.206557 9.2 2.563934 13.87541 4.37377.904918-2.714754 1.809836-5.429508 3.016394-8.144262 1.055737 2.714754 2.111475 5.429508 3.016393 8.144262 4.52459-1.659016 9.04918-3.016393 13.72459-4.222951-3.318032 2.111476-6.334426 4.222951-9.350819 6.636066 6.334426.754098 12.065573 1.809836 18.24918 3.167213-6.183607-.15082-11.914754.15082-18.098361.452459 4.373771 3.619672 7.993443 7.239344 12.065574 11.160656-5.580328-3.167213-10.708197-5.731148-16.439344-8.445902-1.055738 4.82623-2.111476 9.652459-3.167213 14.478689-1.055738-4.82623-1.960656-9.35082-3.016394-14.17705-5.731147 2.714754-11.009836 5.278689-16.740983 8.295082 4.072131-3.921311 7.842623-7.390164 12.216393-11.160655-6.183606-.452459-12.065574-.452459-18.24918-.603279 6.183606-1.357377 12.216393-2.413115 18.550819-3.167213-3.318032-2.563935-6.334426-4.82623-9.652459-6.786885zm16.740984 8.295082c0-3.468853 0-7.088525 0-10.557377-1.055738 3.016393-1.960656 5.881967-2.865574 8.89836 1.055738.603279 1.960656 1.206558 2.865574 1.659017zm-14.026229-7.239345c3.770491 1.659017 7.540983 3.619673 11.160655 5.580328-.904918.15082-1.809836.15082-2.714754.301639-2.714754-1.960655-5.429508-4.072131-8.445901-5.881967zm14.026229 7.239345c7.239344 0 14.629508.301639 21.868853 1.055737-6.334427-1.206557-12.518033-1.960655-19.003279-2.714754-.904918.603279-1.809836 1.206558-2.865574 1.659017zm14.177049-7.239345c-3.770491 1.659017-7.540983 3.619673-11.160655 5.580328-.15082-.452459-.30164-1.055738-.45246-1.508197 3.770492-1.508196 7.691804-2.865573 11.613115-4.072131zm-14.478688 7.239345c.150819 5.127868.301639 10.557377.452459 15.534426.904918-4.52459 1.960655-9.2 3.016393-13.72459-1.055738-.603279-2.413114-1.206558-3.468852-1.809836zm16.439344 10.557377c-4.222951-3.016394-8.596721-6.032787-13.121311-8.747541.904918 0 1.809836-.15082 2.714754-.15082 3.619672 2.865574 7.088524 5.881967 10.406557 8.898361zm-16.137705-10.557377c-7.390164.150819-13.121311.452459-20.360656 1.055737 6.183607 0 11.009836.30164 17.344263.754099 1.055737-.603279 2.111475-1.206558 3.016393-1.809836zm-15.986885 10.557377c4.222951-3.016394 8.596721-6.032787 13.121311-8.747541.15082.603278.30164 1.206557.452459 1.659016-4.67541 2.262295-9.2 4.67541-13.57377 7.088525z" fill="#fff"/><path d="m39.514754 59.573771c1.055738 2.714754 2.111475 5.429508 3.016394 8.144262 4.37377-1.659017 8.74754-3.016394 13.272131-4.072131.150819-.15082.301639-.15082.452459-.30164-4.67541 1.206558-9.2 2.563935-13.72459 4.222951-.904919-2.714754-1.809837-5.429508-3.016394-8.144262-1.055738 2.714754-2.111475 5.429508-3.016393 8.144262-4.524591-1.659016-9.049181-3.167213-13.87541-4.37377.150819.150819.301639.150819.452459.301639 4.52459 1.206557 8.89836 2.563934 13.422951 4.222951 1.055737-2.865574 1.960655-5.580328 3.016393-8.144262z" fill="#c51a1b"/><path d="m31.97377 73.6c-4.22295 3.619672-8.144262 7.239344-12.216393 11.160656.15082-.15082.452459-.30164.603279-.30164 3.921311-3.770491 7.390164-6.937705 11.462295-10.557377v-.301639z" fill="#c8411b"/><path d="m39.514754 71.488525v.150819s0 0 0-.150819z" fill="#c00d0d"/><path d="m39.363934 71.639344c-1.055737.603279-1.960655 1.206558-2.865573 1.659017v.150819c.904918-.603278 1.960655-1.206557 2.865573-1.809836v-.150819c.15082.150819.15082.150819 0 .150819z" fill="#c00d0d"/><path d="m36.64918 69.829508c-.150819 0-.150819 0-.301639 0-.754098.15082-1.659016.15082-2.413115.301639-2.714754-2.111475-5.580328-4.072131-8.445901-5.881967v.15082c2.865573 1.809836 5.731147 3.770492 8.445901 5.881967.904918-.15082 1.809836-.15082 2.714754-.301639.904918.452459 1.659017.904918 2.563935 1.508197h.301639c-.904918-.452459-1.960656-1.055738-2.865574-1.659017z" fill="#c8411b"/><path d="m23.527869 82.347541c4.37377-2.563934 8.89836-4.82623 13.57377-7.088525v-.301639c-4.52459 2.262295-9.04918 4.52459-13.57377 7.088525z" fill="#c8411b"/><path d="m42.531148 73.298361c-1.055738 4.52459-2.111476 9.2-3.016394 13.72459v.15082c.904918-4.524591 1.960656-9.200001 3.016394-13.724591 3.016393 1.809836 7.540983 4.82623 13.121311 8.898361v-.301639c-4.222951-3.016394-8.596721-6.032787-13.121311-8.747541z" fill="#a81815"/><path d="m47.357377 73.75082-.15082-.15082v.301639c4.222951 3.468853 7.540984 6.636066 11.462295 10.557377.15082.15082.452459.30164.603279.30164-4.072131-4.072131-7.842623-7.540984-11.914754-11.009836z" fill="#a81815"/><path d="m31.97377 69.980328c-6.183606.754098-12.216393 1.809836-18.399999 3.167213h.904918c5.881967-1.206557 11.613114-2.262295 17.495081-3.016394z" fill="#c8411b"/><path d="m36.64918 73.298361c-5.731147-.452459-11.462295-.754099-17.344262-.754099v.15082c5.731148 0 11.311475.301639 17.042623.754098.15082 0 .15082 0 .301639-.150819" fill="#c8411b"/><path d="m46.904918 69.829508c6.334426.754099 12.065574 1.809836 18.24918 3.167213-.301639 0-.754098 0-1.055737 0-5.881968-1.206557-11.311476-2.111475-17.193443-2.865574z" fill="#a81815"/><path d="m39.514754 71.488525c7.239344 0 14.629508.301639 21.868853 1.055737v.15082c-7.239345-.754098-14.327869-1.055738-21.567214-1.055738 0 0-.150819 0-.150819-.150819 0 .150819 0 .150819-.15082 0h.301639" fill="#a81815"/><path d="m42.531148 69.829508h.301639c3.468852-1.960655 7.088525-3.770492 10.859016-5.429508v-.15082c-3.921311 1.659017-7.540983 3.619673-11.160655 5.580328" fill="#a81815"/><path d="m42.531148 69.829508c-.15082-.452459-.30164-1.055738-.45246-1.508197v.15082c.15082.452459.30164.904918.45246 1.357377z" fill="#c00d0d"/><g fill="#fff"><path d="m40.268853 100.74754c-.15082.15082-.45246.30164-.754099.45246-.15082-.15082-.452459-.30164-.754098-.45246 0-1.960655 0-3.921311 0-6.032786.150819-.15082.452459-.301639.754098-.452459.15082.15082.452459.301639.754099.452459z"/><path d="m4.8262295 86.268852c-.1508197.15082-.3016393.452459-.3016393.603279.1508196.15082.6032786.15082.7540983.30164 2.1114754-1.055738 4.2229508-2.262296 6.1836065-3.318033.15082-.30164.15082-.452459.15082-.754099-.15082 0-.452459-.150819-.603279-.150819-1.9606557 1.055737-4.0721311 2.262295-6.1836065 3.318032z"/><path d="m3.3180328 74.052459c-.1508197.15082-.452459.301639-.6032787.452459.1508197.15082.1508197.301639.3016393.452459 1.9606558-.301639 3.9213115-.452459 5.8819673-.754098.1508196-.15082.452459-.452459.6032786-.603279-.1508196-.15082-.3016393-.301639-.3016393-.301639-1.9606557.150819-3.9213115.452459-5.8819672.754098z"/><path d="m10.859016 64.098361c-.150819.150819-.452459.150819-.603278.301639v.452459c1.508196.15082 2.865573.452459 4.37377.754098.15082-.150819.452459-.301639.603279-.301639 0-.15082 0-.301639 0-.301639-1.508197-.452459-3.016394-.603279-4.373771-.904918z"/><path d="m54.747541 58.065574h.603279s.150819.150819.150819.150819c-.754098.452459-1.508196.904918-2.262295 1.508197-.150819 0-.452459 0-.603278 0 0-.150819-.15082-.150819-.15082-.301639.754098-.452459 1.508197-.904918 2.262295-1.357377z"/><path d="m39.062295 55.954098c.15082 0 .301639-.150819.452459-.150819s.301639.150819.452459.150819v1.809836c-.15082 0-.301639.15082-.452459.15082s-.301639-.15082-.452459-.15082c0-.603278 0-1.206557 0-1.809836z"/><path d="m23.377049 58.367213s.301639-.15082.301639-.301639h.603279c.754099.452459 1.508197.904918 2.262295 1.508197 0 .150819-.150819.150819-.150819.301639-.15082 0-.452459 0-.603279 0-.904918-.603279-1.659017-1.055738-2.413115-1.508197z"/><path d="m18.852459 96.977049c-.301639 0-.603279 0-.904918.15082 0-.15082-.15082-.452459-.301639-.603279 1.508196-1.809836 2.865573-3.468852 4.37377-5.127869.301639 0 .603279-.150819.904918-.150819 0 .150819.15082.452459.301639.603278-1.508196 1.659017-3.016393 3.468853-4.37377 5.127869z"/><path d="m73.75082 86.268852c.150819.15082.301639.452459.301639.603279-.15082.15082-.603279.15082-.754098.30164-2.111476-1.055738-4.222951-2.262296-6.183607-3.318033-.15082-.30164-.15082-.452459-.15082-.754099.15082 0 .452459-.150819.603279-.150819 2.111476 1.055737 4.222951 2.262295 6.183607 3.318032z"/><path d="m67.868853 64.098361c.150819.150819.452458.150819.603278.301639v.452459c-1.508197.15082-2.865574.452459-4.37377.754098-.15082-.150819-.452459-.301639-.603279-.301639 0-.15082 0-.301639.15082-.301639 1.357377-.452459 2.714754-.603279 4.222951-.904918z"/><path d="m59.87541 96.977049c.301639 0 .603278.15082.904918.15082.15082-.15082.15082-.452459.301639-.603279-1.508196-1.809836-2.865574-3.468852-4.37377-5.127869-.30164 0-.603279-.150819-.904918-.150819 0 .150819-.15082.452459-.30164.603278 1.508197 1.659017 3.016394 3.468853 4.373771 5.127869z"/></g><path d="m4.8262295 86.570492c0 .150819-.1508197.301639-.1508197.301639h-.1508196c.1508196-.15082.3016393-.452459.3016393-.603279 2.1114754-1.055737 4.2229508-2.111475 6.1836065-3.167213.15082 0 .452459.15082.603279.15082 0 .15082-.15082.301639-.15082.301639-.15082 0-.452459-.150819-.603279-.150819-1.8098357 1.055737-3.9213111 2.111475-6.0327865 3.167213z" fill="#ca581a"/><path d="m3.4688525 74.354098c-.1508197.15082-.4524591.30164-.4524591.30164s0-.15082-.1508196-.15082c.1508196-.15082.452459-.301639.6032787-.452459 1.9606557-.301639 3.9213114-.452459 5.8819672-.754098.1508196.150819.3016393.301639.3016393.301639s0 0-.1508197.15082c0 0-.1508196-.15082-.1508196-.15082-2.1114754.15082-3.9213115.452459-5.8819672.754098z" fill="#ca581a"/><path d="m10.255738 64.701639c0-.150819 0-.150819 0-.301639.150819-.15082.452459-.15082.603278-.301639 1.508197.150819 2.865574.452459 4.222951.754098v.301639s-2.865574-.603278-4.37377-.754098c0 .15082-.30164.15082-.452459.301639z" fill="#ca581a"/><path d="m55.2 58.367213c.15082 0 .15082 0 0 0 .15082 0 .15082 0 .15082-.15082 0 0-.15082-.150819-.15082-.150819-.15082 0-.301639 0-.603279 0-.754098.452459-1.508196.904918-2.262295 1.508197 0 0 .15082.150819.15082.150819.754098-.452459 1.357377-.904918 2.111475-1.357377z" fill="#a81815"/><path d="m39.062295 56.255738c.15082 0 .301639-.15082.452459-.15082s.301639.15082.452459.15082v-.30164c-.15082 0-.301639-.150819-.452459-.150819s-.301639.150819-.452459.150819z" fill="#b6110e"/><path d="m24.281967 58.367213c.754099.452459 1.357377.904918 2.111476 1.357377 0 0 .150819-.150819.150819-.150819-.754098-.45246-1.508196-1.055738-2.262295-1.508197-.15082 0-.301639 0-.603279 0 0 0-.301639.150819-.301639.301639 0 0 .15082.15082.15082.15082s.150819-.15082.150819-.15082z" fill="#c8411b"/><path d="m22.92459 91.396721c.15082.15082.15082.30164.301639.452459 0 0 0 0 .15082-.150819 0-.15082-.15082-.452459-.301639-.603279-.30164 0-.603279.15082-.904918.15082-1.508197 1.659016-3.016394 3.468852-4.373771 5.127869 0 .150819.15082.150819.15082.301639.904918-1.055738 3.016393-3.468853 4.37377-5.278689 0 .15082.30164.15082.603279 0z" fill="#a81815"/><path d="m73.75082 86.570492c0 .150819.150819.301639.150819.301639h.15082c-.15082-.15082-.301639-.452459-.301639-.603279-2.111476-1.055737-4.222951-2.111475-6.183607-3.167213-.15082 0-.452459.15082-.603279.15082 0 .15082.15082.301639.15082.301639.15082 0 .452459-.150819.603279-.150819 1.960656 1.055737 4.072131 2.111475 6.032787 3.167213z" fill="#a81815"/><path d="m68.472131 64.701639c0-.150819 0-.150819 0-.301639-.15082-.15082-.452459-.15082-.603278-.301639-1.508197.150819-2.865574.452459-4.222951.754098 0 .15082 0 .301639-.15082.301639 0 0 2.865574-.603278 4.373771-.754098.150819.15082.452458.15082.603278.301639z" fill="#a81815"/><path d="m55.803279 91.396721c-.15082.15082-.15082.30164-.30164.452459 0 0 0 0-.150819-.150819 0-.15082.150819-.452459.301639-.603279.301639 0 .603279.15082.904918.15082 1.508197 1.659016 3.016394 3.468852 4.373771 5.127869 0 .150819 0 .150819-.15082.301639-.904918-1.055738-3.016394-3.468853-4.373771-5.278689 0 .15082-.301639.15082-.603278 0z" fill="#a81815"/><path d="m40.118033 94.865574.15082 5.731146v-6.032786c-.15082-.150819-.45246-.301639-.754099-.452459-.15082.15082-.452459.30164-.754098.452459v6.032786l.150819-5.731146c.15082-.15082.452459-.30164.603279-.30164.301639.15082.452459.30164.603279.30164z" fill="#a81815"/><path d="m10.708197 73.44918c2.563934-11.613114 18.701639-15.081967 28.806557-15.081967s26.242623 3.468853 28.806557 15.081967c3.167214 14.478689-18.24918 19.757377-28.806557 19.757377s-32.1245901-5.429508-28.806557-19.757377zm1.055737-.150819c2.413115-11.160656 17.947541-14.478689 27.75082-14.478689 9.652459 0 25.337705 3.318033 27.75082 14.478689 3.016393 13.87541-17.645902 19.003278-27.75082 19.003278s-30.767213-5.127868-27.75082-19.003278z" fill="#c8411b"/><path d="m10.708197 73.75082c2.563934-11.613115 17.947541-15.081968 28.806557-15.081968 10.708197 0 26.242623 3.468853 28.806557 15.081968 3.167214 14.478688-18.399999 19.757377-28.806557 19.757377-10.406557 0-31.9737704-5.278689-28.806557-19.757377zm1.055737-.15082c2.413115-11.160656 17.947541-14.478689 27.75082-14.478689 9.652459 0 25.337705 3.318033 27.75082 14.478689 3.016393 13.87541-17.645902 19.003279-27.75082 19.003279-9.954098 0-30.767213-5.127869-27.75082-19.003279z" fill="#fff"/><path d="m73.901639 76.163934-4.675409-.754098-.603279-.15082c-.754098-.150819-2.262295-1.055737-3.016394-1.960655-.754098-1.055738-2.262295-2.865574-3.167213-3.921312-1.206557-1.508196-3.921311-2.865574-4.37377-3.468852-.452459-.603279-1.055738-1.659017-1.206558-2.111476-.150819-.452459-.603278-.754098-1.357377-.754098-.754098 0-.754098.301639-1.357377.301639-.603278 0-1.508196-.150819-1.508196-.150819-.30164-.15082-.603279-.15082-.904919-.15082-.301639.603279-.904918 1.055738-2.413114 1.055738-.15082 0-.15082 0-.30164 0 .15082.301639 1.508197.452459 1.659017.452459.150819 0 1.508197.301639 1.659016.452459.603279.150819.452459-.15082 1.357377.452459 1.508197.904918 3.770492 3.318032 4.222951 5.278688.301639 1.206558 2.262295 3.016394 2.413115 4.072131-2.563935-.150819-6.183607-1.960655-6.183607-1.960655l-.452459-.15082s-1.508196-.754098-3.921311-.904918c-4.52459-.452459-6.183607-1.055738-6.636066-1.206557-.904918-.30164-.754098-.45246-1.508197-.45246-.150819 0-.301639 0-.452458 0-.15082.15082-.15082.30164-.45246.45246-.904918.754098-1.357377 1.357377-2.111475 2.563934-.15082.301639-.452459.452459-.904918.603279.904918-.15082 2.563935-.603279 2.563935-.603279 1.659016-.15082 4.072131.452459 4.072131.452459.904918.15082 2.413114.754098 2.413114.754098s6.485246 1.960656 7.993443 3.167213c1.055738.754099 6.334426 2.714755 7.842623 3.318033 1.357377.452459 4.826229 2.413115 4.826229 2.413115.904918.754098 6.032787 3.016393 7.540984 3.468852 1.809836-3.167213 2.413115-6.485245 1.960656-9.652458z" fill="#4f2644" fill-rule="nonzero" opacity=".45"/><path d="m61.836066 86.570492s-.30164-.452459-1.960656-.452459c-1.055738 0 .452459 2.413115.452459 2.413115.904918.603278 4.37377 1.659016 4.977049 1.659016.754098.15082 3.016393.754098 3.016393.754098s1.206558.15082 2.563935.603279c.15082-.15082.452459-.301639.603279-.603279.754098-.754098 1.357377-1.508196 1.960655-2.262295-2.865573 0-6.937705-.150819-9.954098-1.659016-.15082-.754099-1.659016-.452459-1.659016-.452459z" fill="#4f2644" fill-rule="nonzero" opacity=".45"/><path d="m53.239344 41.626229s-.904918-.904918-.904918-.904918c0-.301639.30164-.754098.30164-1.206557-.15082 0-.15082-.15082-.30164-.15082-.301639-.904918-.452459-2.413114 0-3.318032.15082-.452459.452459-.904918.30164-1.508197-.754099-2.714754-2.413115-4.977049-3.468853-7.540984-.301639-.754098-.301639-1.206557-.301639-1.960655-.904918-.904919-1.809836-3.318033-2.262295-4.82623-1.055738 2.563934-1.659017 5.429508-1.659017 6.032787 0 2.865574 2.865574 4.222951 1.809836 8.898361-.150819.904918-.603278 2.111475-.904918 3.468852.603279 3.318033.603279 5.580328 1.508197 9.35082 1.206557 1.206557 2.262295 2.714754 2.714754 4.67541.301639 1.206557 1.357377 4.072131 2.714754 4.52459.754099.301639-2.714754.904918-3.770492-.30164-.904918-1.206557-2.714754-2.262295-3.468852-3.468852-.603279-1.055738-1.659016-3.167213-2.262295-4.222951l-.754098 4.072131c1.055737 4.222951.452459 5.278689-.45246 8.747541-.452459 1.508197-3.468852-5.580328-3.468852-6.032787 0-1.508196-.15082-2.111475-.452459-3.468852-.603279-1.206558-.603279-3.016394-.452459-4.373771.15082-2.262295.15082-6.485246.15082-7.540983-.754099-1.809836-2.714754-5.278689-2.865574-7.239345-.301639-3.016393.15082-6.032786-.15082-8.89836-.452459 1.508197-1.055737 3.318033-2.262295 4.52459-1.659016 1.659016-3.318033 3.619672-4.826229 5.429508-.603279.754099 0 1.206558-.904918 2.413115s-.452459.603279-.603279 1.809836c0 .15082-.15082.301639-.15082.452459-.452459.15082-.904918.452459-1.659016.15082-1.206558-.603279-1.357377-1.659017-1.508197-2.865574-.15082-2.262295 1.508197-2.413115 2.563935-3.770492 1.960655-2.714754 2.865573-7.390164 4.977049-9.501639.150819-.452459.603278-1.960656 1.508196-4.072131 0-2.714754.754099-5.127869 3.468853-6.334426 1.206557-.45246 2.714754-.603279 2.714754-2.111476 0-.15082 0-.7540983-.15082-.904918-.452459-.3016393-.754098-.452459-1.055737-.6032787-.30164-.6032787-.754099-4.3737705-.754099-4.5245901.603279-3.1672132 2.262295-4.22295086 4.072132-4.22295086 2.413114.15081968 4.22295 1.20655736 4.22295 4.22295086-.150819 2.4131147-2.714754 5.7311478 1.206558 6.9377048 1.508196.452459 1.809836.15082 3.016393 1.357377 1.357377 1.357377 1.809836 3.921312 1.960656 6.334426l1.508197 3.318033c2.563934 4.373771 1.659016 5.881967 2.714754 10.406558.301639 1.206557.754098 2.262295.754098 4.826229-.15082 1.055738-1.055738 3.770492-2.413115 3.921311z" fill="#fab650" fill-rule="nonzero"/><path d="m25.790164 38.308197c.15082-1.206558 0-1.055738.754098-2.111476.754099-1.055737.30164-1.508196 1.055738-2.413114 1.508197-1.960656 3.016393-3.770492 4.67541-5.580328 1.206557-1.206558 2.714754-5.127869 3.016393-6.485246 0-.15082.15082-.30164.30164-.15082.301639 2.563934.603278 4.82623.452459 7.390164-.15082 5.429508 0 4.82623 2.262295 9.954098.150819-1.960655.603278-4.977049 1.809836-6.032786-1.357377 5.278688-1.508197 12.819672-1.659017 15.081967 0 1.206557-.452459 3.016393.15082 4.072131.15082.754098.15082 1.809836.15082 2.714754v9.2l-.754099 3.921312c-.301639 1.206557-1.809836 3.167213-2.865573 3.770491-.30164.15082-1.206558.603279-1.206558 1.055738 0 .603279 4.072131 1.809836 5.127869.452459.754098-1.055738 1.357377-1.659016 2.111476-2.563934 1.357377-1.206558-.15082-2.563935 0-4.222951.301639-2.865574 1.508196-5.429508 1.960655-8.295082.30164-1.659017.15082-3.167213-.603278-4.977049l.603278-5.278689c.603279.904918 1.206558 2.413115 1.809836 3.619672 1.055738 2.111476 1.055738 2.413115 2.865574 4.072131.603279.603279 1.206557 1.357377 1.659016 1.960656.904918 1.357377 1.357377 2.714754 1.357377 4.222951-.603278 1.055738-.904917 1.055738-1.659016 1.659016 0 0-.15082.603279.603279.603279 2.714754 0 2.413115-1.357377 3.318033-3.167213.603278-1.206557 2.563934-3.016394.452459-3.619672-.603279-.15082-1.206558-.603279-1.659017-1.206558-1.357377-2.413114-1.508197-2.262295-2.262295-4.52459-.452459-1.357377-1.357377-2.413115-2.413115-3.318033-.603278-1.508196-.904918-2.563934-1.206557-4.22295-.301639-2.111476-.452459-3.770492-.904918-5.881968 1.055738-4.072131 1.508197-4.977049-.15082-9.04918-.452459-.904918-.603278-1.960656-.603278-3.016393 0-1.357377.754098-4.373771 1.508196-5.881968.30164-.603278.603279-1.206557 1.055738-1.357377.452459 1.659017 1.960656 4.977049 2.714754 5.731148 0 .603279 0 1.357377.30164 1.960656 1.055737 2.563934 2.714754 4.977049 3.468852 7.691803.301639.904918-.15082 1.357377-.301639 2.111475-.15082.30164-.15082 1.357377 0 2.262295l.301639.15082c0 .301639-.301639.904918-.301639 1.206557 0 .30164.452459.603279.452459.603279.603278-.150819 1.508196-2.262295 1.357377-3.167213-.15082-2.714754-.603279-3.770492-.754099-4.67541-.904918-4.52459-.301639-5.731147-2.865574-10.104918l-1.508196-3.167213c-.15082-1.809836-.904918-5.881967-3.167213-6.636065-.452459-.15082-.754099-.15082-1.357377-.30164-3.016394-1.055738-3.016394-3.3180327-2.262295-5.8819671.754098-2.2622951.754098-4.9770492-2.563935-5.1278689-2.111475-.1508196-2.714754 1.5081968-3.167213 3.3180328 0 .1508197.15082 3.1672131.603279 3.9213115.904918.6032787 1.357377.452459 1.357377 2.1114757 0 1.357377-.904918 2.262295-2.111476 2.563934-1.960655.754098-2.865573 1.055738-3.619672 3.016394-.15082.603278-.452459 1.508196-.452459 2.865573v.15082c-.603279 1.357377-1.206557 3.016393-1.659016 4.37377-2.413115 2.413115-3.619672 7.842623-6.032787 10.104919-1.659017 1.508196-2.111476 1.659016-1.508197 3.921311 0 .301639.754099.904918 1.055738.904918.15082.15082.904918-.301639.904918-.301639z" fill="url(#c)" fill-rule="nonzero"/></g></svg>