<?xml version="1.0" encoding="UTF-8" standalone="no"?>
<svg
   width="640px"
   height="360px"
   viewBox="0 0 640 360"
   version="1.1"
   id="svg1040"
   sodipodi:docname="provider-rabobank-640x360.svg"
   inkscape:version="1.1.2 (b8e25be8, 2022-02-05)"
   xmlns:inkscape="http://www.inkscape.org/namespaces/inkscape"
   xmlns:sodipodi="http://sodipodi.sourceforge.net/DTD/sodipodi-0.dtd"
   xmlns="http://www.w3.org/2000/svg"
   xmlns:svg="http://www.w3.org/2000/svg">
  <sodipodi:namedview
     id="namedview1042"
     pagecolor="#ffffff"
     bordercolor="#666666"
     borderopacity="1.0"
     inkscape:pageshadow="2"
     inkscape:pageopacity="0.0"
     inkscape:pagecheckerboard="0"
     showgrid="false"
     inkscape:zoom="1.9203125"
     inkscape:cx="285.63059"
     inkscape:cy="189.29211"
     inkscape:window-width="2196"
     inkscape:window-height="1015"
     inkscape:window-x="2799"
     inkscape:window-y="95"
     inkscape:window-maximized="0"
     inkscape:current-layer="svg1040" />
  <defs
     id="defs934">
    <linearGradient
       x1="0.10114752"
       y1="123.00422"
       x2="54.593246"
       y2="123.00422"
       id="linearGradient-1"
       gradientTransform="scale(1.4329338,0.69786892)"
       gradientUnits="userSpaceOnUse">
      <stop
         stop-color="#CA581A"
         offset="0%"
         id="stop919" />
      <stop
         stop-color="#6E2E2B"
         offset="100%"
         id="stop921" />
    </linearGradient>
    <linearGradient
       x1="-5.9535187"
       y1="82.537732"
       x2="39.690697"
       y2="75.338046"
       id="linearGradient-2"
       gradientTransform="scale(1.0572923,0.94581223)"
       gradientUnits="userSpaceOnUse">
      <stop
         stop-color="#FFE07D"
         offset="0%"
         id="stop924" />
      <stop
         stop-color="#EE7203"
         offset="100%"
         id="stop926" />
    </linearGradient>
    <linearGradient
       x1="56.066517"
       y1="17.019093"
       x2="64.021903"
       y2="35.401816"
       id="linearGradient-3"
       gradientTransform="scale(0.65784819,1.5201076)"
       gradientUnits="userSpaceOnUse">
      <stop
         stop-color="#2D2C86"
         offset="0%"
         id="stop929" />
      <stop
         stop-color="#282674"
         offset="100%"
         id="stop931" />
    </linearGradient>
  </defs>
  <g
     id="issuer-rabobank"
     stroke="none"
     stroke-width="1"
     fill="none"
     fill-rule="evenodd"
     transform="matrix(1.1164188,0,0,1.1164188,-36.683308,-19.720608)">
    <g
       id="Issuer-/-Rabobank"
       transform="translate(90,-50)">
      <g
         id="rabobank"
         transform="translate(0,176.33333)">
        <path
           d="m 314.45902,61.836066 c -1.5082,9.652459 -6.48525,14.629508 -12.36722,14.629508 -3.77049,0 -5.88196,-2.714754 -5.27869,-6.786885 l 2.11148,-12.970492 c 0.7541,-4.82623 3.77049,-8.596722 8.89836,-8.596722 5.42951,0 8.14426,3.921312 6.63607,13.724591 z m -20.51148,19.154098 c 0.7541,0 2.71475,3.318033 9.04918,3.318033 13.27213,0 20.96394,-9.652459 23.07541,-22.170492 2.71475,-15.383607 -4.82623,-22.321312 -14.17705,-22.321312 -4.37377,0 -7.6918,0.45246 -10.10492,1.659017 l 3.61968,-21.114754 h -11.16066 l -11.00984,63.193442 h 8.29509 c 0,0.15082 1.20655,-2.563934 2.41311,-2.563934 z m 118.0918,-26.845902 c 1.65902,-9.501639 -1.80983,-14.177049 -12.21639,-14.177049 -7.6918,0 -10.7082,3.468853 -13.57377,6.334426 l 0.30164,-5.278688 h -10.25574 l -0.7541,7.842623 -5.88196,34.839344 h 11.31147 l 3.61967,-22.622951 c 1.35738,-7.842623 6.63607,-13.72459 11.76394,-13.72459 5.58033,0 5.58033,3.167213 4.67541,8.144262 l -4.82623,28.203279 h 11.16065 z m 46.7541,-14.177049 h -13.12131 l -15.08197,15.986885 h -0.15082 l 6.03279,-35.291803 h -10.85902 l -11.00983,63.042623 h 11.16065 l 1.05574,-6.334426 2.2623,-13.87541 c 5.88196,0 9.2,0.603279 11.76393,12.367213 l 1.80984,7.842623 h 11.31147 c 0,0 -2.86557,-11.914754 -4.67541,-16.590164 -1.96065,-4.977049 -4.07213,-8.144262 -8.59672,-9.04918 z M 136.64262,55.501639 c 8.14426,-1.809836 12.36722,-8.295082 13.42295,-12.668852 2.86558,-11.763935 -2.26229,-20.963935 -17.34426,-20.813115 h -17.19344 l -10.7082,61.534426 h 11.31148 l 4.52459,-24.583606 c 10.25573,-0.30164 11.61311,2.262295 13.57377,14.177049 l 1.80983,10.557377 h 11.61312 c -1.35738,-6.334426 -2.2623,-12.367213 -3.31803,-17.193443 -1.20656,-5.127868 -3.0164,-9.04918 -7.84263,-10.859016 z m 2.2623,-14.780328 c -0.90492,5.429509 -5.12787,9.35082 -10.40656,9.35082 h -6.63606 l 3.46885,-19.455738 h 6.03278 c 7.08853,0 8.44591,4.67541 7.54099,10.104918 z m 50.52459,11.613115 c 1.65901,-9.350819 -3.31803,-12.518033 -13.42295,-12.518033 -12.51804,0 -17.94754,5.881968 -17.94754,5.881968 l 3.92131,6.485246 c 0,0 4.07213,-4.67541 12.21639,-4.67541 4.52459,0 4.67541,2.262295 4.22295,4.67541 l -0.90492,5.580327 c -16.1377,-0.452459 -24.43278,3.016394 -26.24262,13.724591 -1.5082,8.747541 4.97705,12.819672 12.36721,12.819672 3.7705,0 6.78689,-0.603279 10.55738,-3.770492 0.7541,2.111475 1.96066,3.167213 3.46885,3.468852 2.2623,0.452459 6.33443,0 7.54099,-0.904918 -0.15082,-1.357377 0,-4.52459 1.35737,-12.367213 z m -13.27213,11.462295 c -1.80984,12.668853 -3.46886,14.02623 -9.65246,14.02623 -4.22295,0 -5.73115,-2.865574 -4.97705,-6.636066 1.05574,-5.278688 4.97705,-7.390164 14.62951,-7.390164 z M 366.79344,52.334426 c 1.65902,-9.350819 -3.31803,-12.518033 -13.42295,-12.518033 -12.51803,0 -17.94754,5.881968 -17.94754,5.881968 l 3.92131,6.485246 c 0,0 4.07213,-4.67541 12.2164,-4.67541 4.52459,0 4.67541,2.262295 4.22295,4.67541 l -0.90492,5.580327 c -16.13771,-0.452459 -24.43279,3.016394 -26.24262,13.724591 -1.5082,8.747541 4.97704,12.819672 12.36721,12.819672 3.77049,0 6.78688,-0.603279 10.55738,-3.770492 0.75409,2.111475 1.96065,3.167213 3.46885,3.468852 2.26229,0.452459 6.33442,0 7.54098,-0.904918 -0.15082,-1.357377 0,-4.52459 1.35738,-12.367213 z m -13.27213,11.462295 c -1.80984,12.668853 -3.46885,14.02623 -9.65246,14.02623 -4.22295,0 -5.73115,-2.865574 -4.97705,-6.636066 0.90492,-5.278688 4.82623,-7.390164 14.62951,-7.390164 z M 211.90164,84.459016 c 13.27213,0 20.96393,-9.652459 23.07541,-22.170491 C 237.6918,46.904918 230.15082,39.967213 220.8,39.967213 c -4.37377,0 -7.54098,0.452459 -10.10492,1.659016 l 3.61967,-21.114754 H 203.1541 l -11.00984,63.193443 h 8.29508 c 0,0 1.20656,-2.563934 2.41312,-2.563934 0.90492,-0.15082 2.71475,3.318032 9.04918,3.318032 z m 4.67541,-36.347541 c 5.73115,0 8.14426,3.921312 6.78688,13.724591 -1.35737,10.104918 -6.48524,14.629508 -12.51803,14.629508 -3.77049,0 -5.88197,-2.714754 -5.27869,-6.786885 l 2.11148,-12.970492 c 0.90492,-4.82623 3.77049,-8.596722 8.89836,-8.596722 z m 23.07541,17.645902 c 1.65901,-16.137705 8.89836,-26.091803 26.24262,-26.091803 12.81967,0 17.04262,9.803278 15.23279,20.209836 -2.71476,16.740983 -9.35082,24.734426 -25.63935,24.734426 -10.55737,0 -16.8918,-8.596721 -15.83606,-18.852459 z m 29.86229,-4.977049 c 0.7541,-4.373771 1.65902,-13.121312 -5.88196,-13.121312 -5.12787,0 -9.9541,3.468853 -12.06558,15.685246 -1.35737,7.390164 0.15082,13.422951 6.03279,13.422951 4.22295,0 9.65246,-3.619672 11.91475,-15.986885 z"
           id="Shape"
           fill="#2d2c86"
           fill-rule="nonzero" />
        <g
           id="Group">
          <path
             d="m 75.409836,74.957377 c 0.15082,0.15082 0.452459,0.301639 0.603279,0.452459 -0.15082,0.15082 -0.15082,0.301639 -0.30164,0.452459 -1.960655,-0.301639 -3.921311,-0.452459 -5.881967,-0.754098 -0.150819,-0.15082 -0.452459,-0.452459 -0.603278,-0.603279 0.150819,-0.15082 0.301639,-0.301639 0.301639,-0.301639 1.960656,0.150819 3.921311,0.452459 5.881967,0.754098 z"
             id="Path"
             fill="#ffffff" />
          <path
             d="m 75.259016,75.108197 c 0.15082,0.150819 0.452459,0.301639 0.452459,0.301639 0,0 0,-0.15082 0.15082,-0.15082 -0.15082,-0.150819 -0.452459,-0.301639 -0.603279,-0.452459 -1.960655,-0.301639 -3.921311,-0.452459 -5.881967,-0.754098 -0.150819,0.15082 -0.301639,0.301639 -0.301639,0.301639 0,0 0.15082,0 0.15082,0.15082 0,0 0.150819,-0.15082 0.150819,-0.15082 2.111476,0.30164 3.921312,0.603279 5.881967,0.754099 z"
             id="path938"
             fill="#a81815" />
          <path
             d="m 71.488525,71.639344 c -0.452459,0 -1.055738,0.15082 -1.055738,0.15082 l -1.357377,0.754098 c -0.15082,0.30164 0.452459,0.603279 0.452459,0.603279 0,0 1.659016,0.15082 1.659016,0.603279 1.206558,0.603278 3.770492,0.754098 4.977049,0.754098 v 0 C 76.013115,74.052459 75.862295,73.6 75.560656,73.147541 75.409836,72.695082 75.108197,72.242623 74.957377,71.940984 v 0 c 0,-0.15082 -0.904918,-0.30164 -3.468852,-0.30164 z"
             id="path940"
             fill="#4f2644"
             fill-rule="nonzero"
             opacity="0.45" />
          <g
             id="g1034">
            <path
               d="m 71.790164,66.813115 c 1.659016,1.659016 3.016393,3.468852 3.921311,5.429508 3.016394,6.183607 1.960656,12.970492 -4.072131,18.852459 -6.937705,6.786885 -18.701639,11.009838 -32.426229,11.009838 -13.72459,0 -25.488525,-4.222953 -32.4262298,-11.009838 C 0.75409836,85.213115 -0.30163934,78.42623 2.7147541,72.242623 c 0.904918,-1.960656 2.2622951,-3.770492 3.9213115,-5.429508 -1.9606558,1.809836 -3.4688525,3.468852 -4.8262295,6.334426 -3.0163935,5.881967 -1.96065577,14.327869 4.2229508,20.511475 7.0885241,6.937704 18.2491801,11.160654 33.3311471,11.160654 15.232787,0 26.242623,-4.37377 33.029509,-11.160654 6.636065,-6.636065 6.937704,-15.383606 4.22295,-20.662295 -1.206557,-2.262295 -2.714754,-4.222951 -4.826229,-6.183606 z"
               id="path942"
               fill="url(#linearGradient-1)"
               fill-rule="nonzero"
               style="fill:url(#linearGradient-1)" />
            <g
               id="SVGID_2_-link"
               transform="translate(0,54.295082)"
               fill="#ee7203"
               fill-rule="nonzero">
              <path
                 d="M 60.629508,5.4295082 C 54.295082,2.7147541 46.754098,1.357377 39.213115,1.357377 c -7.540984,0 -15.081968,1.3573771 -21.416394,4.0721312 C 10.708197,8.295082 5.2786885,12.668853 2.7147541,17.947541 -0.30163934,24.131147 0.75409836,30.918033 6.7868852,36.8 13.72459,43.586885 25.488525,47.809836 39.213115,47.809836 52.937705,47.809836 64.701639,43.586885 71.639344,36.8 77.672131,30.918033 78.727869,24.131147 75.711475,17.947541 73.147541,12.668853 67.718033,8.295082 60.629508,5.4295082 Z"
                 id="SVGID_2_" />
            </g>
            <path
               d="m 40.419672,62.740984 c -1.206557,-2.563935 -1.055738,-4.97705 -0.754098,-6.937705 -0.15082,0 -0.30164,0 -0.452459,0 -7.540984,0 -15.081968,1.357377 -21.416394,4.072131 C 10.708197,62.740984 5.2786885,67.114754 2.7147541,72.393443 -0.30163934,78.577049 0.75409836,85.363934 6.7868852,91.245902 7.2393443,91.698361 7.6918033,92 8.1442623,92.452459 33.632787,90.793443 46.904918,75.862295 40.419672,62.740984 Z"
               id="path946"
               fill="url(#linearGradient-2)"
               fill-rule="nonzero"
               style="fill:url(#linearGradient-2)" />
            <path
               d="m 22.77377,63.193443 c 4.67541,1.206557 9.2,2.563934 13.87541,4.37377 0.904918,-2.714754 1.809836,-5.429508 3.016394,-8.144262 1.055737,2.714754 2.111475,5.429508 3.016393,8.144262 4.52459,-1.659016 9.04918,-3.016393 13.72459,-4.222951 -3.318032,2.111476 -6.334426,4.222951 -9.350819,6.636066 6.334426,0.754098 12.065573,1.809836 18.24918,3.167213 C 59.121311,72.996721 53.390164,73.298361 47.206557,73.6 51.580328,77.219672 55.2,80.839344 59.272131,84.760656 53.691803,81.593443 48.563934,79.029508 42.832787,76.314754 c -1.055738,4.82623 -2.111476,9.652459 -3.167213,14.478689 -1.055738,-4.82623 -1.960656,-9.35082 -3.016394,-14.17705 -5.731147,2.714754 -11.009836,5.278689 -16.740983,8.295082 C 23.980328,80.990164 27.75082,77.521311 32.12459,73.75082 25.940984,73.298361 20.059016,73.298361 13.87541,73.147541 20.059016,71.790164 26.091803,70.734426 32.426229,69.980328 29.108197,67.416393 26.091803,65.154098 22.77377,63.193443 Z m 16.740984,8.295082 c 0,-3.468853 0,-7.088525 0,-10.557377 -1.055738,3.016393 -1.960656,5.881967 -2.865574,8.89836 1.055738,0.603279 1.960656,1.206558 2.865574,1.659017 z M 25.488525,64.24918 c 3.770491,1.659017 7.540983,3.619673 11.160655,5.580328 -0.904918,0.15082 -1.809836,0.15082 -2.714754,0.301639 -2.714754,-1.960655 -5.429508,-4.072131 -8.445901,-5.881967 z m 14.026229,7.239345 c 7.239344,0 14.629508,0.301639 21.868853,1.055737 -6.334427,-1.206557 -12.518033,-1.960655 -19.003279,-2.714754 -0.904918,0.603279 -1.809836,1.206558 -2.865574,1.659017 z M 53.691803,64.24918 c -3.770491,1.659017 -7.540983,3.619673 -11.160655,5.580328 -0.15082,-0.452459 -0.30164,-1.055738 -0.45246,-1.508197 3.770492,-1.508196 7.691804,-2.865573 11.613115,-4.072131 z m -14.478688,7.239345 c 0.150819,5.127868 0.301639,10.557377 0.452459,15.534426 0.904918,-4.52459 1.960655,-9.2 3.016393,-13.72459 -1.055738,-0.603279 -2.413114,-1.206558 -3.468852,-1.809836 z m 16.439344,10.557377 c -4.222951,-3.016394 -8.596721,-6.032787 -13.121311,-8.747541 0.904918,0 1.809836,-0.15082 2.714754,-0.15082 3.619672,2.865574 7.088524,5.881967 10.406557,8.898361 z M 39.514754,71.488525 c -7.390164,0.150819 -13.121311,0.452459 -20.360656,1.055737 6.183607,0 11.009836,0.30164 17.344263,0.754099 1.055737,-0.603279 2.111475,-1.206558 3.016393,-1.809836 z M 23.527869,82.045902 c 4.222951,-3.016394 8.596721,-6.032787 13.121311,-8.747541 0.15082,0.603278 0.30164,1.206557 0.452459,1.659016 -4.67541,2.262295 -9.2,4.67541 -13.57377,7.088525 z"
               id="path948"
               fill="#ffffff" />
            <path
               d="m 39.514754,59.573771 c 1.055738,2.714754 2.111475,5.429508 3.016394,8.144262 4.37377,-1.659017 8.74754,-3.016394 13.272131,-4.072131 0.150819,-0.15082 0.301639,-0.15082 0.452459,-0.30164 -4.67541,1.206558 -9.2,2.563935 -13.72459,4.222951 -0.904919,-2.714754 -1.809837,-5.429508 -3.016394,-8.144262 -1.055738,2.714754 -2.111475,5.429508 -3.016393,8.144262 C 31.97377,65.908197 27.44918,64.4 22.622951,63.193443 c 0.150819,0.150819 0.301639,0.150819 0.452459,0.301639 4.52459,1.206557 8.89836,2.563934 13.422951,4.222951 1.055737,-2.865574 1.960655,-5.580328 3.016393,-8.144262 z"
               id="path950"
               fill="#c51a1b" />
            <path
               d="m 31.97377,73.6 c -4.22295,3.619672 -8.144262,7.239344 -12.216393,11.160656 0.15082,-0.15082 0.452459,-0.30164 0.603279,-0.30164 3.921311,-3.770491 7.390164,-6.937705 11.462295,-10.557377 V 73.6 Z"
               id="path952"
               fill="#c8411b" />
            <path
               d="m 39.514754,71.488525 v 0 c 0,0 0,0.150819 0,0.150819 v 0 c 0,0 0,0 0,-0.150819 z"
               id="path954"
               fill="#c00d0d" />
            <path
               d="m 39.363934,71.639344 c 0,0 0,0 0,0 -1.055737,0.603279 -1.960655,1.206558 -2.865573,1.659017 v 0.150819 c 0.904918,-0.603278 1.960655,-1.206557 2.865573,-1.809836 v -0.150819 c 0.15082,0.150819 0.15082,0.150819 0,0.150819 z"
               id="path956"
               fill="#c00d0d" />
            <path
               d="m 36.64918,69.829508 c -0.150819,0 -0.150819,0 -0.301639,0 -0.754098,0.15082 -1.659016,0.15082 -2.413115,0.301639 -2.714754,-2.111475 -5.580328,-4.072131 -8.445901,-5.881967 V 64.4 c 2.865573,1.809836 5.731147,3.770492 8.445901,5.881967 0.904918,-0.15082 1.809836,-0.15082 2.714754,-0.301639 0.904918,0.452459 1.659017,0.904918 2.563935,1.508197 0.150819,0 0.301639,0 0.301639,0 -0.904918,-0.452459 -1.960656,-1.055738 -2.865574,-1.659017 z"
               id="path958"
               fill="#c8411b" />
            <path
               d="m 23.527869,82.347541 c 4.37377,-2.563934 8.89836,-4.82623 13.57377,-7.088525 v -0.301639 c -4.52459,2.262295 -9.04918,4.52459 -13.57377,7.088525 z"
               id="path960"
               fill="#c8411b" />
            <path
               d="m 42.531148,73.298361 c -1.055738,4.52459 -2.111476,9.2 -3.016394,13.72459 v 0.15082 c 0.904918,-4.524591 1.960656,-9.200001 3.016394,-13.724591 3.016393,1.809836 7.540983,4.82623 13.121311,8.898361 V 82.045902 C 51.429508,79.029508 47.055738,76.013115 42.531148,73.298361 Z"
               id="path962"
               fill="#a81815" />
            <path
               d="M 47.357377,73.75082 47.206557,73.6 v 0.301639 c 4.222951,3.468853 7.540984,6.636066 11.462295,10.557377 0.15082,0.15082 0.452459,0.30164 0.603279,0.30164 C 55.2,80.688525 51.429508,77.219672 47.357377,73.75082 Z"
               id="path964"
               fill="#a81815" />
            <path
               d="m 31.97377,69.980328 c -6.183606,0.754098 -12.216393,1.809836 -18.399999,3.167213 0.301639,0 0.603278,0 0.904918,0 5.881967,-1.206557 11.613114,-2.262295 17.495081,-3.016394 z"
               id="path966"
               fill="#c8411b" />
            <path
               d="M 36.64918,73.298361 C 30.918033,72.845902 25.186885,72.544262 19.304918,72.544262 v 0.15082 c 5.731148,0 11.311475,0.301639 17.042623,0.754098 0.15082,0 0.15082,0 0.301639,-0.150819"
               id="path968"
               fill="#c8411b" />
            <path
               d="m 46.904918,69.829508 c 6.334426,0.754099 12.065574,1.809836 18.24918,3.167213 -0.301639,0 -0.754098,0 -1.055737,0 -5.881968,-1.206557 -11.311476,-2.111475 -17.193443,-2.865574 z"
               id="path970"
               fill="#a81815" />
            <path
               d="m 39.514754,71.488525 c 7.239344,0 14.629508,0.301639 21.868853,1.055737 v 0.15082 c -7.239345,-0.754098 -14.327869,-1.055738 -21.567214,-1.055738 0,0 -0.150819,0 -0.150819,-0.150819 0,0.150819 0,0.150819 -0.15082,0 0.15082,0 0.15082,0 0.301639,0"
               id="path972"
               fill="#a81815" />
            <path
               d="m 42.531148,69.829508 c 0.150819,0 0.150819,0 0.301639,0 C 46.301639,67.868853 49.921312,66.059016 53.691803,64.4 v -0.15082 c -3.921311,1.659017 -7.540983,3.619673 -11.160655,5.580328"
               id="path974"
               fill="#a81815" />
            <path
               d="m 42.531148,69.829508 c -0.15082,-0.452459 -0.30164,-1.055738 -0.45246,-1.508197 v 0.15082 c 0.15082,0.452459 0.30164,0.904918 0.45246,1.357377 0,0 0,0 0,0"
               id="path976"
               fill="#c00d0d" />
            <path
               d="m 40.268853,100.74754 c -0.15082,0.15082 -0.45246,0.30164 -0.754099,0.45246 -0.15082,-0.15082 -0.452459,-0.30164 -0.754098,-0.45246 0,-1.960655 0,-3.921311 0,-6.032786 0.150819,-0.15082 0.452459,-0.301639 0.754098,-0.452459 0.15082,0.15082 0.452459,0.301639 0.754099,0.452459 0,1.960656 0,3.921312 0,6.032786 z"
               id="path978"
               fill="#ffffff" />
            <path
               d="m 4.8262295,86.268852 c -0.1508197,0.15082 -0.3016393,0.452459 -0.3016393,0.603279 0.1508196,0.15082 0.6032786,0.15082 0.7540983,0.30164 2.1114754,-1.055738 4.2229508,-2.262296 6.1836065,-3.318033 0.15082,-0.30164 0.15082,-0.452459 0.15082,-0.754099 -0.15082,0 -0.452459,-0.150819 -0.603279,-0.150819 -1.9606557,1.055737 -4.0721311,2.262295 -6.1836065,3.318032 z"
               id="path980"
               fill="#ffffff" />
            <path
               d="m 3.3180328,74.052459 c -0.1508197,0.15082 -0.452459,0.301639 -0.6032787,0.452459 0.1508197,0.15082 0.1508197,0.301639 0.3016393,0.452459 C 4.9770492,74.655738 6.9377049,74.504918 8.8983607,74.203279 9.0491803,74.052459 9.3508197,73.75082 9.5016393,73.6 9.3508197,73.44918 9.2,73.298361 9.2,73.298361 7.2393443,73.44918 5.2786885,73.75082 3.3180328,74.052459 Z"
               id="path982"
               fill="#ffffff" />
            <path
               d="M 10.859016,64.098361 C 10.708197,64.24918 10.406557,64.24918 10.255738,64.4 c 0,0.15082 0,0.301639 0,0.452459 1.508196,0.15082 2.865573,0.452459 4.37377,0.754098 0.15082,-0.150819 0.452459,-0.301639 0.603279,-0.301639 0,-0.15082 0,-0.301639 0,-0.301639 C 13.72459,64.55082 12.216393,64.4 10.859016,64.098361 Z"
               id="path984"
               fill="#ffffff" />
            <path
               d="m 54.747541,58.065574 c 0.15082,0 0.301639,0 0.603279,0 0,0 0.150819,0.150819 0.150819,0.150819 -0.754098,0.452459 -1.508196,0.904918 -2.262295,1.508197 -0.150819,0 -0.452459,0 -0.603278,0 0,-0.150819 -0.15082,-0.150819 -0.15082,-0.301639 0.754098,-0.452459 1.508197,-0.904918 2.262295,-1.357377 z"
               id="path986"
               fill="#ffffff" />
            <path
               d="m 39.062295,55.954098 c 0.15082,0 0.301639,-0.150819 0.452459,-0.150819 0.15082,0 0.301639,0.150819 0.452459,0.150819 0,0.603279 0,1.206558 0,1.809836 -0.15082,0 -0.301639,0.15082 -0.452459,0.15082 -0.15082,0 -0.301639,-0.15082 -0.452459,-0.15082 0,-0.603278 0,-1.206557 0,-1.809836 z"
               id="path988"
               fill="#ffffff" />
            <path
               d="m 23.377049,58.367213 c 0,0 0.301639,-0.15082 0.301639,-0.301639 0.15082,0 0.30164,0 0.603279,0 0.754099,0.452459 1.508197,0.904918 2.262295,1.508197 0,0.150819 -0.150819,0.150819 -0.150819,0.301639 -0.15082,0 -0.452459,0 -0.603279,0 -0.904918,-0.603279 -1.659017,-1.055738 -2.413115,-1.508197 z"
               id="path990"
               fill="#ffffff" />
            <path
               d="m 18.852459,96.977049 c -0.301639,0 -0.603279,0 -0.904918,0.15082 0,-0.15082 -0.15082,-0.452459 -0.301639,-0.603279 1.508196,-1.809836 2.865573,-3.468852 4.37377,-5.127869 0.301639,0 0.603279,-0.150819 0.904918,-0.150819 0,0.150819 0.15082,0.452459 0.301639,0.603278 -1.508196,1.659017 -3.016393,3.468853 -4.37377,5.127869 z"
               id="path992"
               fill="#ffffff" />
            <path
               d="m 73.75082,86.268852 c 0.150819,0.15082 0.301639,0.452459 0.301639,0.603279 -0.15082,0.15082 -0.603279,0.15082 -0.754098,0.30164 -2.111476,-1.055738 -4.222951,-2.262296 -6.183607,-3.318033 -0.15082,-0.30164 -0.15082,-0.452459 -0.15082,-0.754099 0.15082,0 0.452459,-0.150819 0.603279,-0.150819 2.111476,1.055737 4.222951,2.262295 6.183607,3.318032 z"
               id="path994"
               fill="#ffffff" />
            <path
               d="m 67.868853,64.098361 c 0.150819,0.150819 0.452458,0.150819 0.603278,0.301639 0,0.15082 0,0.301639 0,0.452459 -1.508197,0.15082 -2.865574,0.452459 -4.37377,0.754098 -0.15082,-0.150819 -0.452459,-0.301639 -0.603279,-0.301639 0,-0.15082 0,-0.301639 0.15082,-0.301639 C 65.003279,64.55082 66.360656,64.4 67.868853,64.098361 Z"
               id="path996"
               fill="#ffffff" />
            <path
               d="m 59.87541,96.977049 c 0.301639,0 0.603278,0.15082 0.904918,0.15082 0.15082,-0.15082 0.15082,-0.452459 0.301639,-0.603279 -1.508196,-1.809836 -2.865574,-3.468852 -4.37377,-5.127869 -0.30164,0 -0.603279,-0.150819 -0.904918,-0.150819 0,0.150819 -0.15082,0.452459 -0.30164,0.603278 1.508197,1.659017 3.016394,3.468853 4.373771,5.127869 z"
               id="path998"
               fill="#ffffff" />
            <path
               d="m 4.8262295,86.570492 c 0,0.150819 -0.1508197,0.301639 -0.1508197,0.301639 0,0 -0.1508196,0 -0.1508196,0 0.1508196,-0.15082 0.3016393,-0.452459 0.3016393,-0.603279 2.1114754,-1.055737 4.2229508,-2.111475 6.1836065,-3.167213 0.15082,0 0.452459,0.15082 0.603279,0.15082 0,0.15082 -0.15082,0.301639 -0.15082,0.301639 -0.15082,0 -0.452459,-0.150819 -0.603279,-0.150819 -1.8098357,1.055737 -3.9213111,2.111475 -6.0327865,3.167213 z"
               id="path1000"
               fill="#ca581a" />
            <path
               d="m 3.4688525,74.354098 c -0.1508197,0.15082 -0.4524591,0.30164 -0.4524591,0.30164 0,0 0,-0.15082 -0.1508196,-0.15082 0.1508196,-0.15082 0.452459,-0.301639 0.6032787,-0.452459 C 5.4295082,73.75082 7.3901639,73.6 9.3508197,73.298361 9.5016393,73.44918 9.652459,73.6 9.652459,73.6 c 0,0 0,0 -0.1508197,0.15082 0,0 -0.1508196,-0.15082 -0.1508196,-0.15082 -2.1114754,0.15082 -3.9213115,0.452459 -5.8819672,0.754098 z"
               id="path1002"
               fill="#ca581a" />
            <path
               d="m 10.255738,64.701639 c 0,-0.150819 0,-0.150819 0,-0.301639 0.150819,-0.15082 0.452459,-0.15082 0.603278,-0.301639 1.508197,0.150819 2.865574,0.452459 4.222951,0.754098 0,0.15082 0,0.301639 0,0.301639 0,0 -2.865574,-0.603278 -4.37377,-0.754098 0,0.15082 -0.30164,0.15082 -0.452459,0.301639 z"
               id="path1004"
               fill="#ca581a" />
            <path
               d="m 55.2,58.367213 c 0.15082,0 0.15082,0 0,0 0.15082,0 0.15082,0 0.15082,-0.15082 0,0 -0.15082,-0.150819 -0.15082,-0.150819 -0.15082,0 -0.301639,0 -0.603279,0 -0.754098,0.452459 -1.508196,0.904918 -2.262295,1.508197 0,0 0.15082,0.150819 0.15082,0.150819 0.754098,-0.452459 1.357377,-0.904918 2.111475,-1.357377 0.30164,0 0.452459,0 0.603279,0 z"
               id="path1006"
               fill="#a81815" />
            <path
               d="m 39.062295,56.255738 c 0.15082,0 0.301639,-0.15082 0.452459,-0.15082 0.15082,0 0.301639,0.15082 0.452459,0.15082 v -0.30164 c -0.15082,0 -0.301639,-0.150819 -0.452459,-0.150819 -0.15082,0 -0.301639,0.150819 -0.452459,0.150819 z"
               id="path1008"
               fill="#b6110e" />
            <path
               d="m 24.281967,58.367213 c 0.754099,0.452459 1.357377,0.904918 2.111476,1.357377 0,0 0.150819,-0.150819 0.150819,-0.150819 -0.754098,-0.45246 -1.508196,-1.055738 -2.262295,-1.508197 -0.15082,0 -0.301639,0 -0.603279,0 0,0 -0.301639,0.150819 -0.301639,0.301639 0,0 0.15082,0.15082 0.15082,0.15082 0,0 0.150819,-0.15082 0.150819,-0.15082 0.15082,0 0.30164,0 0.603279,0 z"
               id="path1010"
               fill="#c8411b" />
            <path
               d="m 22.92459,91.396721 c 0.15082,0.15082 0.15082,0.30164 0.301639,0.452459 0,0 0,0 0.15082,-0.150819 0,-0.15082 -0.15082,-0.452459 -0.301639,-0.603279 -0.30164,0 -0.603279,0.15082 -0.904918,0.15082 -1.508197,1.659016 -3.016394,3.468852 -4.373771,5.127869 0,0.150819 0.15082,0.150819 0.15082,0.301639 0.904918,-1.055738 3.016393,-3.468853 4.37377,-5.278689 0,0.15082 0.30164,0.15082 0.603279,0 z"
               id="path1012"
               fill="#a81815" />
            <path
               d="m 73.75082,86.570492 c 0,0.150819 0.150819,0.301639 0.150819,0.301639 0,0 0.15082,0 0.15082,0 -0.15082,-0.15082 -0.301639,-0.452459 -0.301639,-0.603279 -2.111476,-1.055737 -4.222951,-2.111475 -6.183607,-3.167213 -0.15082,0 -0.452459,0.15082 -0.603279,0.15082 0,0.15082 0.15082,0.301639 0.15082,0.301639 0.15082,0 0.452459,-0.150819 0.603279,-0.150819 1.960656,1.055737 4.072131,2.111475 6.032787,3.167213 z"
               id="path1014"
               fill="#a81815" />
            <path
               d="m 68.472131,64.701639 c 0,-0.150819 0,-0.150819 0,-0.301639 -0.15082,-0.15082 -0.452459,-0.15082 -0.603278,-0.301639 -1.508197,0.150819 -2.865574,0.452459 -4.222951,0.754098 0,0.15082 0,0.301639 -0.15082,0.301639 0,0 2.865574,-0.603278 4.373771,-0.754098 0.150819,0.15082 0.452458,0.15082 0.603278,0.301639 z"
               id="path1016"
               fill="#a81815" />
            <path
               d="m 55.803279,91.396721 c -0.15082,0.15082 -0.15082,0.30164 -0.30164,0.452459 0,0 0,0 -0.150819,-0.150819 0,-0.15082 0.150819,-0.452459 0.301639,-0.603279 0.301639,0 0.603279,0.15082 0.904918,0.15082 1.508197,1.659016 3.016394,3.468852 4.373771,5.127869 0,0.150819 0,0.150819 -0.15082,0.301639 -0.904918,-1.055738 -3.016394,-3.468853 -4.373771,-5.278689 0,0.15082 -0.301639,0.15082 -0.603278,0 z"
               id="path1018"
               fill="#a81815" />
            <path
               d="m 40.118033,94.865574 0.15082,5.731146 v -6.032786 c -0.15082,-0.150819 -0.45246,-0.301639 -0.754099,-0.452459 -0.15082,0.15082 -0.452459,0.30164 -0.754098,0.452459 v 6.032786 l 0.150819,-5.731146 c 0.15082,-0.15082 0.452459,-0.30164 0.603279,-0.30164 0.301639,0.15082 0.452459,0.30164 0.603279,0.30164 z"
               id="path1020"
               fill="#a81815" />
            <path
               d="m 10.708197,73.44918 c 2.563934,-11.613114 18.701639,-15.081967 28.806557,-15.081967 10.104918,0 26.242623,3.468853 28.806557,15.081967 3.167214,14.478689 -18.24918,19.757377 -28.806557,19.757377 -10.557377,0 -32.1245901,-5.429508 -28.806557,-19.757377 z m 1.055737,-0.150819 c 2.413115,-11.160656 17.947541,-14.478689 27.75082,-14.478689 9.652459,0 25.337705,3.318033 27.75082,14.478689 3.016393,13.87541 -17.645902,19.003278 -27.75082,19.003278 -10.104918,0 -30.767213,-5.127868 -27.75082,-19.003278 z"
               id="path1022"
               fill="#c8411b" />
            <path
               d="m 10.708197,73.75082 c 2.563934,-11.613115 17.947541,-15.081968 28.806557,-15.081968 10.708197,0 26.242623,3.468853 28.806557,15.081968 3.167214,14.478688 -18.399999,19.757377 -28.806557,19.757377 -10.406557,0 -31.9737704,-5.278689 -28.806557,-19.757377 z M 11.763934,73.6 c 2.413115,-11.160656 17.947541,-14.478689 27.75082,-14.478689 9.652459,0 25.337705,3.318033 27.75082,14.478689 3.016393,13.87541 -17.645902,19.003279 -27.75082,19.003279 -9.954098,0 -30.767213,-5.127869 -27.75082,-19.003279 z"
               id="path1024"
               fill="#ffffff" />
            <path
               d="m 73.901639,76.163934 -4.675409,-0.754098 -0.603279,-0.15082 c -0.754098,-0.150819 -2.262295,-1.055737 -3.016394,-1.960655 -0.754098,-1.055738 -2.262295,-2.865574 -3.167213,-3.921312 -1.206557,-1.508196 -3.921311,-2.865574 -4.37377,-3.468852 -0.452459,-0.603279 -1.055738,-1.659017 -1.206558,-2.111476 -0.150819,-0.452459 -0.603278,-0.754098 -1.357377,-0.754098 -0.754098,0 -0.754098,0.301639 -1.357377,0.301639 -0.603278,0 -1.508196,-0.150819 -1.508196,-0.150819 -0.30164,-0.15082 -0.603279,-0.15082 -0.904919,-0.15082 -0.301639,0.603279 -0.904918,1.055738 -2.413114,1.055738 -0.15082,0 -0.15082,0 -0.30164,0 0.15082,0.301639 1.508197,0.452459 1.659017,0.452459 0.150819,0 1.508197,0.301639 1.659016,0.452459 0.603279,0.150819 0.452459,-0.15082 1.357377,0.452459 1.508197,0.904918 3.770492,3.318032 4.222951,5.278688 0.301639,1.206558 2.262295,3.016394 2.413115,4.072131 -2.563935,-0.150819 -6.183607,-1.960655 -6.183607,-1.960655 l -0.452459,-0.15082 c 0,0 -1.508196,-0.754098 -3.921311,-0.904918 -4.52459,-0.452459 -6.183607,-1.055738 -6.636066,-1.206557 -0.904918,-0.30164 -0.754098,-0.45246 -1.508197,-0.45246 -0.150819,0 -0.301639,0 -0.452458,0 -0.15082,0.15082 -0.15082,0.30164 -0.45246,0.45246 -0.904918,0.754098 -1.357377,1.357377 -2.111475,2.563934 C 38.459016,73.44918 38.157377,73.6 37.704918,73.75082 38.609836,73.6 40.268853,73.147541 40.268853,73.147541 41.927869,72.996721 44.340984,73.6 44.340984,73.6 c 0.904918,0.15082 2.413114,0.754098 2.413114,0.754098 0,0 6.485246,1.960656 7.993443,3.167213 1.055738,0.754099 6.334426,2.714755 7.842623,3.318033 1.357377,0.452459 4.826229,2.413115 4.826229,2.413115 0.904918,0.754098 6.032787,3.016393 7.540984,3.468852 1.809836,-3.167213 2.413115,-6.485245 1.960656,-9.652458 v 0 z"
               id="path1026"
               fill="#4f2644"
               fill-rule="nonzero"
               opacity="0.45" />
            <path
               d="m 61.836066,86.570492 c 0,0 -0.30164,-0.452459 -1.960656,-0.452459 -1.055738,0 0.452459,2.413115 0.452459,2.413115 0.904918,0.603278 4.37377,1.659016 4.977049,1.659016 0.754098,0.15082 3.016393,0.754098 3.016393,0.754098 0,0 1.206558,0.15082 2.563935,0.603279 0.15082,-0.15082 0.452459,-0.301639 0.603279,-0.603279 0.754098,-0.754098 1.357377,-1.508196 1.960655,-2.262295 -2.865573,0 -6.937705,-0.150819 -9.954098,-1.659016 -0.15082,-0.754099 -1.659016,-0.452459 -1.659016,-0.452459 z"
               id="path1028"
               fill="#4f2644"
               fill-rule="nonzero"
               opacity="0.45" />
            <path
               d="m 53.239344,41.626229 c 0,0 -0.904918,-0.904918 -0.904918,-0.904918 0,-0.301639 0.30164,-0.754098 0.30164,-1.206557 -0.15082,0 -0.15082,-0.15082 -0.30164,-0.15082 -0.301639,-0.904918 -0.452459,-2.413114 0,-3.318032 0.15082,-0.452459 0.452459,-0.904918 0.30164,-1.508197 -0.754099,-2.714754 -2.413115,-4.977049 -3.468853,-7.540984 -0.301639,-0.754098 -0.301639,-1.206557 -0.301639,-1.960655 -0.904918,-0.904919 -1.809836,-3.318033 -2.262295,-4.82623 -1.055738,2.563934 -1.659017,5.429508 -1.659017,6.032787 0,2.865574 2.865574,4.222951 1.809836,8.898361 -0.150819,0.904918 -0.603278,2.111475 -0.904918,3.468852 0.603279,3.318033 0.603279,5.580328 1.508197,9.35082 1.206557,1.206557 2.262295,2.714754 2.714754,4.67541 0.301639,1.206557 1.357377,4.072131 2.714754,4.52459 0.754099,0.301639 -2.714754,0.904918 -3.770492,-0.30164 -0.904918,-1.206557 -2.714754,-2.262295 -3.468852,-3.468852 -0.603279,-1.055738 -1.659016,-3.167213 -2.262295,-4.222951 l -0.754098,4.072131 c 1.055737,4.222951 0.452459,5.278689 -0.45246,8.747541 -0.452459,1.508197 -3.468852,-5.580328 -3.468852,-6.032787 0,-1.508196 -0.15082,-2.111475 -0.452459,-3.468852 -0.603279,-1.206558 -0.603279,-3.016394 -0.452459,-4.373771 0.15082,-2.262295 0.15082,-6.485246 0.15082,-7.540983 -0.754099,-1.809836 -2.714754,-5.278689 -2.865574,-7.239345 -0.301639,-3.016393 0.15082,-6.032786 -0.15082,-8.89836 -0.452459,1.508197 -1.055737,3.318033 -2.262295,4.52459 -1.659016,1.659016 -3.318033,3.619672 -4.826229,5.429508 -0.603279,0.754099 0,1.206558 -0.904918,2.413115 -0.904918,1.206557 -0.452459,0.603279 -0.603279,1.809836 0,0.15082 -0.15082,0.301639 -0.15082,0.452459 -0.452459,0.15082 -0.904918,0.452459 -1.659016,0.15082 -1.206558,-0.603279 -1.357377,-1.659017 -1.508197,-2.865574 -0.15082,-2.262295 1.508197,-2.413115 2.563935,-3.770492 1.960655,-2.714754 2.865573,-7.390164 4.977049,-9.501639 0.150819,-0.452459 0.603278,-1.960656 1.508196,-4.072131 0,-2.714754 0.754099,-5.127869 3.468853,-6.334426 1.206557,-0.45246 2.714754,-0.603279 2.714754,-2.111476 0,-0.15082 0,-0.7540983 -0.15082,-0.904918 C 37.554098,9.3508197 37.252459,9.2 36.95082,9.0491803 36.64918,8.4459016 36.196721,4.6754098 36.196721,4.5245902 36.8,1.357377 38.459016,0.30163934 40.268853,0.30163934 c 2.413114,0.15081968 4.22295,1.20655736 4.22295,4.22295086 -0.150819,2.4131147 -2.714754,5.7311478 1.206558,6.9377048 1.508196,0.452459 1.809836,0.15082 3.016393,1.357377 1.357377,1.357377 1.809836,3.921312 1.960656,6.334426 l 1.508197,3.318033 c 2.563934,4.373771 1.659016,5.881967 2.714754,10.406558 0.301639,1.206557 0.754098,2.262295 0.754098,4.826229 -0.15082,1.055738 -1.055738,3.770492 -2.413115,3.921311 z"
               id="path1030"
               fill="#fab650"
               fill-rule="nonzero" />
            <path
               d="m 25.790164,38.308197 c 0.15082,-1.206558 0,-1.055738 0.754098,-2.111476 0.754099,-1.055737 0.30164,-1.508196 1.055738,-2.413114 1.508197,-1.960656 3.016393,-3.770492 4.67541,-5.580328 1.206557,-1.206558 2.714754,-5.127869 3.016393,-6.485246 0,-0.15082 0.15082,-0.30164 0.30164,-0.15082 0.301639,2.563934 0.603278,4.82623 0.452459,7.390164 -0.15082,5.429508 0,4.82623 2.262295,9.954098 0.150819,-1.960655 0.603278,-4.977049 1.809836,-6.032786 -1.357377,5.278688 -1.508197,12.819672 -1.659017,15.081967 0,1.206557 -0.452459,3.016393 0.15082,4.072131 0.15082,0.754098 0.15082,1.809836 0.15082,2.714754 0,0.452459 0,9.2 0,9.2 l -0.754099,3.921312 c -0.301639,1.206557 -1.809836,3.167213 -2.865573,3.770491 -0.30164,0.15082 -1.206558,0.603279 -1.206558,1.055738 0,0.603279 4.072131,1.809836 5.127869,0.452459 0.754098,-1.055738 1.357377,-1.659016 2.111476,-2.563934 1.357377,-1.206558 -0.15082,-2.563935 0,-4.222951 0.301639,-2.865574 1.508196,-5.429508 1.960655,-8.295082 0.30164,-1.659017 0.15082,-3.167213 -0.603278,-4.977049 l 0.603278,-5.278689 c 0.603279,0.904918 1.206558,2.413115 1.809836,3.619672 C 46,53.540984 46,53.842623 47.809836,55.501639 c 0.603279,0.603279 1.206557,1.357377 1.659016,1.960656 0.904918,1.357377 1.357377,2.714754 1.357377,4.222951 -0.603278,1.055738 -0.904917,1.055738 -1.659016,1.659016 0,0 -0.15082,0.603279 0.603279,0.603279 2.714754,0 2.413115,-1.357377 3.318033,-3.167213 0.603278,-1.206557 2.563934,-3.016394 0.452459,-3.619672 -0.603279,-0.15082 -1.206558,-0.603279 -1.659017,-1.206558 C 50.52459,53.540984 50.37377,53.691803 49.619672,51.429508 49.167213,50.072131 48.262295,49.016393 47.206557,48.111475 46.603279,46.603279 46.301639,45.547541 46,43.888525 c -0.301639,-2.111476 -0.452459,-3.770492 -0.904918,-5.881968 1.055738,-4.072131 1.508197,-4.977049 -0.15082,-9.04918 -0.452459,-0.904918 -0.603278,-1.960656 -0.603278,-3.016393 0,-1.357377 0.754098,-4.373771 1.508196,-5.881968 0.30164,-0.603278 0.603279,-1.206557 1.055738,-1.357377 0.452459,1.659017 1.960656,4.977049 2.714754,5.731148 0,0.603279 0,1.357377 0.30164,1.960656 1.055737,2.563934 2.714754,4.977049 3.468852,7.691803 0.301639,0.904918 -0.15082,1.357377 -0.301639,2.111475 -0.15082,0.30164 -0.15082,1.357377 0,2.262295 l 0.301639,0.15082 c 0,0.301639 -0.301639,0.904918 -0.301639,1.206557 0,0.30164 0.452459,0.603279 0.452459,0.603279 0.603278,-0.150819 1.508196,-2.262295 1.357377,-3.167213 -0.15082,-2.714754 -0.603279,-3.770492 -0.754099,-4.67541 -0.904918,-4.52459 -0.301639,-5.731147 -2.865574,-10.104918 L 49.770492,19.304918 C 49.619672,17.495082 48.865574,13.422951 46.603279,12.668853 46.15082,12.518033 45.84918,12.518033 45.245902,12.367213 42.229508,11.311475 42.229508,9.0491803 42.983607,6.4852459 43.737705,4.2229508 43.737705,1.5081967 40.419672,1.357377 38.308197,1.2065574 37.704918,2.8655738 37.252459,4.6754098 c 0,0.1508197 0.15082,3.1672131 0.603279,3.9213115 0.904918,0.6032787 1.357377,0.452459 1.357377,2.1114757 0,1.357377 -0.904918,2.262295 -2.111476,2.563934 -1.960655,0.754098 -2.865573,1.055738 -3.619672,3.016394 -0.15082,0.603278 -0.452459,1.508196 -0.452459,2.865573 v 0.15082 c -0.603279,1.357377 -1.206557,3.016393 -1.659016,4.37377 -2.413115,2.413115 -3.619672,7.842623 -6.032787,10.104919 -1.659017,1.508196 -2.111476,1.659016 -1.508197,3.921311 0,0.301639 0.754099,0.904918 1.055738,0.904918 0.15082,0.15082 0.904918,-0.301639 0.904918,-0.301639 z"
               id="path1032"
               fill="url(#linearGradient-3)"
               fill-rule="nonzero"
               style="fill:url(#linearGradient-3)" />
          </g>
        </g>
      </g>
    </g>
  </g>
</svg>
