<?xml version="1.0" encoding="UTF-8" standalone="no"?>
<svg
   width="640"
   height="360"
   viewBox="0 0 640 360"
   version="1.1"
   id="svg831"
   sodipodi:docname="logo-rabobank-white.svg"
   inkscape:version="1.1.2 (b8e25be8, 2022-02-05)"
   xmlns:inkscape="http://www.inkscape.org/namespaces/inkscape"
   xmlns:sodipodi="http://sodipodi.sourceforge.net/DTD/sodipodi-0.dtd"
   xmlns="http://www.w3.org/2000/svg"
   xmlns:svg="http://www.w3.org/2000/svg"
   xmlns:rdf="http://www.w3.org/1999/02/22-rdf-syntax-ns#"
   xmlns:cc="http://creativecommons.org/ns#"
   xmlns:dc="http://purl.org/dc/elements/1.1/">
  <defs
     id="defs835" />
  <sodipodi:namedview
     id="namedview833"
     pagecolor="#ffffff"
     bordercolor="#666666"
     borderopacity="1.0"
     inkscape:pageshadow="2"
     inkscape:pageopacity="0.0"
     inkscape:pagecheckerboard="true"
     showgrid="false"
     inkscape:zoom="5.1458333"
     inkscape:cx="109.89474"
     inkscape:cy="225.81377"
     inkscape:window-width="2136"
     inkscape:window-height="1038"
     inkscape:window-x="2518"
     inkscape:window-y="570"
     inkscape:window-maximized="0"
     inkscape:current-layer="svg831" />
  <title
     id="title824">rabobank</title>
  <g
     id="Symbols"
     stroke="none"
     stroke-width="1"
     fill="none"
     fill-rule="evenodd"
     transform="matrix(2.1402301,0,0,2.1402301,63.692071,121.14248)">
    <g
       id="Issuer-/-Rabobank-(white)"
       transform="translate(0,-93)"
       fill="#ffffff"
       fill-rule="nonzero">
      <g
         id="rabobank"
         transform="translate(0,93)">
        <path
           d="m 164.06557,31.262295 c -0.78688,5.036066 -3.3836,7.632787 -6.45246,7.632787 -1.96721,0 -3.06885,-1.416394 -2.75409,-3.540984 l 1.10164,-6.767213 c 0.39344,-2.518033 1.96721,-4.485246 4.64262,-4.485246 2.83279,0 4.24918,2.045902 3.46229,7.160656 z m -10.70164,9.993443 c 0.39345,0 1.4164,1.731147 4.72132,1.731147 6.92459,0 10.9377,-5.036065 12.03934,-11.567213 1.41639,-8.026229 -2.51803,-11.645902 -7.39672,-11.645902 -2.28197,0 -4.01312,0.236066 -5.27213,0.865574 l 1.88852,-11.0163932 h -5.82295 l -5.74426,32.9704922 h 4.32787 c 0,0.07869 0.62951,-1.337705 1.25901,-1.337705 z M 214.97705,27.24918 c 0.86557,-4.957377 -0.94426,-7.396721 -6.37377,-7.396721 -4.01312,0 -5.58689,1.809836 -7.08197,3.304918 l 0.15738,-2.754098 h -5.35082 l -0.39344,4.091803 -3.06886,18.177049 h 5.90164 l 1.88853,-11.803279 c 0.70819,-4.091803 3.46229,-7.160655 6.1377,-7.160655 2.91148,0 2.91148,1.652459 2.43935,4.24918 l -2.51804,14.714754 h 5.82295 z m 24.39344,-7.396721 h -6.8459 l -7.86885,8.340984 h -0.0787 l 3.14754,-18.4131151 h -5.66557 l -5.74427,32.8918031 h 5.82295 l 0.55082,-3.304918 1.18033,-7.239344 c 3.06885,0 4.8,0.314754 6.13771,6.452459 l 0.94426,4.091803 h 5.90164 c 0,0 -1.49508,-6.216393 -2.43935,-8.655738 -1.02295,-2.596721 -2.12459,-4.24918 -4.48524,-4.721311 z M 71.291803,27.957377 c 4.249181,-0.944262 6.452459,-4.327869 7.003279,-6.609836 1.495082,-6.137705 -1.180328,-10.937705 -9.04918,-10.859016 H 60.27541 l -5.586885,32.104918 h 5.901639 l 2.360656,-12.82623 c 5.350819,-0.157377 6.059016,1.180328 7.081967,7.396721 l 0.944262,5.508197 h 6.059017 c -0.708197,-3.304918 -1.180328,-6.452459 -1.731148,-8.970492 -0.629508,-2.67541 -1.57377,-4.721311 -4.091803,-5.665573 z m 1.180328,-7.711475 C 72,23.078688 69.796721,25.12459 67.042623,25.12459 h -3.462295 l 1.809836,-10.150819 h 3.147541 c 3.698361,0 4.406557,2.439344 3.934426,5.272131 z m 26.360656,6.059016 c 0.865574,-4.878688 -1.731148,-6.531148 -7.003279,-6.531148 -6.531147,0 -9.363934,3.068853 -9.363934,3.068853 l 2.045901,3.383606 c 0,0 2.124591,-2.439344 6.373771,-2.439344 2.360656,0 2.439344,1.180328 2.203279,2.439344 l -0.472132,2.911476 c -8.419672,-0.236066 -12.74754,1.57377 -13.691803,7.160656 -0.786885,4.563934 2.596721,6.688524 6.452459,6.688524 1.967213,0 3.540984,-0.314754 5.508197,-1.967213 0.393442,1.101639 1.022951,1.652459 1.809836,1.809836 1.180328,0.236066 3.304918,0 3.934426,-0.472131 -0.07869,-0.708197 0,-2.360656 0.708197,-6.452459 z m -6.92459,5.980328 c -0.944263,6.609836 -1.809836,7.318033 -5.036066,7.318033 -2.203279,0 -2.990164,-1.495082 -2.596721,-3.462295 0.550819,-2.754099 2.596721,-3.855738 7.632787,-3.855738 z m 99.462293,-5.980328 c 0.86558,-4.878688 -1.73115,-6.531148 -7.00328,-6.531148 -6.53114,0 -9.36393,3.068853 -9.36393,3.068853 l 2.0459,3.383606 c 0,0 2.12459,-2.439344 6.37377,-2.439344 2.36066,0 2.43934,1.180328 2.20328,2.439344 l -0.47213,2.911476 c -8.41967,-0.236066 -12.74754,1.57377 -13.69181,7.160656 -0.78688,4.563934 2.59673,6.688524 6.45246,6.688524 1.96722,0 3.54099,-0.314754 5.5082,-1.967213 0.39344,1.101639 1.02295,1.652459 1.80984,1.809836 1.18032,0.236066 3.30491,0 3.93442,-0.472131 -0.0787,-0.708197 0,-2.360656 0.7082,-6.452459 z m -6.92459,5.980328 c -0.94426,6.609836 -1.80983,7.318033 -5.03606,7.318033 -2.20328,0 -2.99017,-1.495082 -2.59673,-3.462295 0.47214,-2.754099 2.51804,-3.855738 7.63279,-3.855738 z m -73.88852,10.780328 c 6.92459,0 10.9377,-5.036066 12.03934,-11.567213 1.4164,-8.02623 -2.51803,-11.645902 -7.39672,-11.645902 -2.28197,0 -3.93443,0.236066 -5.27213,0.865574 l 1.88852,-11.0163937 h -5.82295 l -5.74426,32.9704917 h 4.32787 c 0,0 0.62951,-1.337705 1.25902,-1.337705 0.47213,-0.07869 1.41639,1.731148 4.72131,1.731148 z m 2.43934,-18.963935 c 2.99017,0 4.24918,2.045902 3.54099,7.160656 -0.7082,5.272131 -3.38361,7.632787 -6.53115,7.632787 -1.96722,0 -3.06886,-1.416394 -2.7541,-3.540984 l 1.10164,-6.767213 c 0.47213,-2.518033 1.96721,-4.485246 4.64262,-4.485246 z m 12.03935,9.206558 c 0.86557,-8.419672 4.64262,-13.613115 13.6918,-13.613115 6.68852,0 8.8918,5.114754 7.94754,10.544262 -1.41639,8.734426 -4.87869,12.904918 -13.37705,12.904918 -5.5082,0 -8.81311,-4.485246 -8.26229,-9.836065 z m 15.58032,-2.596722 c 0.39345,-2.281967 0.86558,-6.845901 -3.06885,-6.845901 -2.67541,0 -5.19344,1.809836 -6.29508,8.183606 -0.7082,3.855738 0.0787,7.003279 3.14754,7.003279 2.20328,0 5.03607,-1.888525 6.21639,-8.340984 z"
           id="Shape" />
        <path
           d="m 21.715765,0.04613312 c 0.05438,0 0.110205,0.0025049 0.167463,0.0074303 0.610951,0.0506903 1.037817,0.25304105 1.305429,0.56169776 0.266996,0.30865672 0.364683,0.70658582 0.364067,1.11929102 0,0.4141418 -0.09605,0.8498321 -0.228825,1.2592538 -0.148992,0.4562127 -0.244216,0.8949813 -0.244216,1.2863432 4.1e-4,0.3735075 0.08496,0.6998135 0.286698,0.9758396 0.202761,0.2756157 0.527835,0.5085448 1.036585,0.6735448 0.296959,0.097276 0.497053,0.1075373 0.725877,0.1793657 0.682985,0.2228731 1.09528,0.9099626 1.363302,1.639944 0.234047,0.6435821 0.354749,1.3345126 0.412842,1.8237258 l 0.01895,0.173513 0.74763,1.8468099 c 0.668209,1.154589 0.940952,1.911455 1.100411,2.67263 0.160074,0.762612 0.208507,1.51722 0.441436,2.700747 0.07491,0.38972 0.381101,1.054645 0.429328,2.474589 0,0.0072 4.11e-4,0.01642 4.11e-4,0.02709 -0.0049,0.406959 -0.254888,1.109645 -0.529272,1.50819 -0.07634,0.10409 -0.149403,0.193206 -0.249126,0.243813 l -0.08026,0.03037 -0.04433,0.0096 -0.04145,-0.01888 -0.03402,-0.01778 c -0.02871,-0.01603 -0.07237,-0.04293 -0.119288,-0.08134 -0.06107,-0.05122 -0.133838,-0.125433 -0.171114,-0.230718 l -0.02057,-0.08492 -0.0051,-0.03653 0.01457,-0.03386 c 0.05649,-0.120826 0.144259,-0.25435 0.200285,-0.381264 l 0.04311,-0.123997 -0.241754,-0.09481 -0.01498,-0.07101 c -0.04925,-0.238676 -0.06711,-0.512034 -0.06752,-0.747836 3.08e-4,-0.152687 0.0075,-0.286788 0.02136,-0.390702 l 0.01599,-0.09342 0.0012,-0.0076 c 0.118209,-0.328152 0.23765,-0.522705 0.235392,-0.776772 0,-0.0864 -0.01252,-0.182444 -0.04556,-0.29778 -0.404291,-1.433694 -1.230318,-2.688638 -1.81418,-4.088675 C 26.55329,13.337661 26.563141,12.991038 26.53954,12.671094 26.288757,12.408613 25.999186,11.885497 25.723981,11.307792 25.473197,10.774825 25.244783,10.203687 25.112413,9.7745642 24.998637,9.8706092 24.892085,10.033245 24.80505,10.222018 l -0.06142,0.145848 -0.0014,0.0035 c -0.367761,0.795038 -0.756455,2.385523 -0.753376,3.050859 6.15e-4,0.555335 0.119029,1.053208 0.328563,1.524608 0.446772,1.001492 0.62778,1.653489 0.62778,2.298302 -8.21e-4,0.720336 -0.220411,1.400653 -0.509571,2.546007 0.1925,1.160747 0.295933,1.980206 0.448004,3.117146 0.111641,0.829515 0.243395,1.370895 0.579757,2.142127 0.575653,0.470373 1.069627,1.053414 1.31569,1.780933 0.19681,0.582835 0.300448,0.858451 0.447183,1.144944 0.14612,0.287108 0.342929,0.596175 0.722799,1.230727 0.08992,0.149727 0.208178,0.271785 0.34408,0.368389 1.435509,0.336081 2.816225,0.776322 4.117077,1.315678 3.771604,1.565038 6.703227,3.888993 8.115988,6.753508 l 0.02237,0.04579 v 0 c 0.06277,0.112223 0.124127,0.225575 0.183468,0.339821 1.453601,2.796176 1.317127,7.433004 -2.225858,10.99528 -3.613993,3.633489 -9.50987,5.929534 -17.561829,5.929534 -8.028974,0 -13.9250556,-2.229142 -17.6954287,-5.929534 C -0.06875,45.769646 -0.57113806,41.275858 1.000056,38.131008 1.047799,38.035468 1.095851,37.942432 1.1442496,37.851705 l 0.09756,-0.207078 C 2.6541605,34.780112 5.5851679,32.456157 9.3571828,30.891119 12.805355,29.46153 16.814403,28.728265 20.883993,28.727854 l -0.0647,-0.0065 c -1.92e-4,-0.05152 -3.53e-4,-0.09514 -4.79e-4,-0.129862 l -2.9e-4,-0.08327 c -0.0088,-0.437743 -0.01847,-1.011138 -0.109589,-1.372537 -0.143247,-0.287109 -0.180597,-0.636605 -0.181418,-0.991027 4.1e-4,-0.447182 0.06321,-0.906884 0.08414,-1.244272 0.07265,-1.139198 0.115131,-4.697164 0.72362,-7.45681 -0.141399,0.252221 -0.267202,0.580579 -0.36653,0.935821 -0.148445,0.51973 -0.250003,1.096323 -0.307522,1.581445 l -0.02925,0.27891 -0.0472,0.511623 -0.208713,-0.469142 c -0.449235,-1.009291 -0.725671,-1.61819 -0.892518,-2.148899 -0.167053,-0.530914 -0.218974,-0.981176 -0.218564,-1.640355 0,-0.431175 0.02155,-0.955317 0.047,-1.661287 0.0051,-0.146325 0.0078,-0.290187 0.0078,-0.431791 2.05e-4,-1.034534 -0.130728,-1.976306 -0.239701,-3.041623 -0.128471,0.38931 -0.331027,0.915709 -0.56334,1.437388 -0.310914,0.693862 -0.665131,1.369049 -0.994515,1.707052 -0.897854,0.911605 -1.658004,1.926231 -2.467201,2.93737 -0.146735,0.210559 -0.176493,0.362425 -0.219795,0.558209 -0.04248,0.195578 -0.09912,0.429328 -0.297369,0.71582 -0.200299,0.290392 -0.266997,0.410448 -0.293881,0.518601 -0.02533,0.09358 -0.02548,0.214304 -0.04465,0.449013 l -0.01137,0.127256 -0.0045,0.04761 -0.01088,0.01047 c -0.01395,0.03263 -0.03366,0.04946 -0.04884,0.06937 -0.02689,0.02812 -0.05685,0.05274 -0.09009,0.07655 -0.06588,0.04782 -0.142835,0.09256 -0.213843,0.123956 -0.04946,0.02052 -0.0866,0.03858 -0.150634,0.04084 l -0.02591,-0.0016 v 0 l -0.03237,-0.0081 -0.0092,-0.0035 c -0.06116,-0.03407 -0.134832,-0.08907 -0.226567,-0.163564 -0.08948,-0.07347 -0.187164,-0.160279 -0.26125,-0.242369 -0.04884,-0.05767 -0.0905,-0.101996 -0.113694,-0.181623 -0.08619,-0.344981 -0.131801,-0.604795 -0.131801,-0.825616 -0.0024,-0.295112 0.09199,-0.52291 0.259861,-0.72444 0.167257,-0.203582 0.39916,-0.396903 0.70597,-0.689142 0.611977,-0.579552 1.089739,-1.594589 1.563395,-2.626866 0.470579,-1.019552 0.937463,-2.054701 1.583508,-2.718806 0.180925,-0.621253 0.448012,-1.266937 0.694293,-1.863708 l 0.17914,-0.4372617 v -0.022575 c 0.0027,-0.7244403 0.09789,-1.2175933 0.211585,-1.5652425 0.177314,-0.5450747 0.413116,-0.8953918 0.740653,-1.1433023 0.326717,-0.2479104 0.727724,-0.3927985 1.24181,-0.5742164 0.601922,-0.2179478 1.004571,-0.5939179 1.03125,-1.2623321 0.0012,-0.043713 0.0023,-0.084347 0.0021,-0.1221082 4.11e-4,-0.1758769 -0.0156,-0.296959 -0.04125,-0.3790485 -0.02647,-0.082295 -0.05746,-0.1270336 -0.101791,-0.1705411 -0.07285,-0.072854 -0.210554,-0.1343076 -0.391602,-0.2534799 l -0.113659,-0.078983 -0.01785,-0.01334 -0.01252,-0.018265 C 20.321592,3.9642085 20.27788,3.7926413 20.236015,3.583313 20.195795,3.375216 20.166035,3.1346936 20.144075,2.9025854 20.103815,2.4860835 20.086985,2.0903605 20.081475,1.9814199 l -0.0014,-0.025327 -0.0014,-0.020728 0.0047,-0.019701 C 20.195877,1.4394403 20.330093,0.98425373 20.57472,0.63311567 20.816679,0.28136194 21.192034,0.04248134 21.715765,0.04613312 Z M 20.82033,28.996341 l -0.573036,0.006 c -3.817529,0.07254 -7.556951,0.796896 -10.7870888,2.136079 -3.7326119,1.547594 -6.6080037,3.841586 -7.9780783,6.625038 -0.5651866,1.148432 -0.85557839,2.335653 -0.85557839,3.528619 1.409e-5,0.07476 0.001166,0.149553 0.003462,0.224371 0.0860705,2.104362 1.06939079,4.220308 3.04698539,6.160965 3.6778171,3.607836 9.9379671,5.826921 17.2072021,5.827537 7.103423,-6.02e-4 13.244283,-2.120176 16.951882,-5.583724 l 0.08824,-0.08503 c -0.652937,-0.188816 -1.26497,-0.269604 -1.26497,-0.269604 0,0 -1.279776,-0.381922 -1.662519,-0.432202 -0.382537,-0.05048 -2.216828,-0.573806 -2.725988,-0.915298 0,0 -0.01033,-0.01703 -0.02786,-0.04724 C 28.806759,48.179033 24.069117,49.040711 21.0611,49.040711 15.510616,49.040504 4.0716418,46.106007 5.7877239,38.442948 7.1477675,32.369314 15.129565,30.476191 20.826998,30.426084 c -0.0033,-0.553861 -0.0053,-1.070645 -0.0067,-1.429743 z m 0.266013,20.357334 c 0.111642,0.07757 0.265765,0.15515 0.377612,0.23334 0.0025,1.056287 0.0043,2.112369 0.0066,3.168246 -0.114515,0.08578 -0.27069,0.171157 -0.384589,0.256325 -0.115952,-0.08517 -0.274385,-0.170541 -0.390952,-0.256325 v -3.168246 c 0.113489,-0.07778 0.277258,-0.155765 0.391362,-0.23334 z m 8.584515,-1.64097 c 0.154329,0.03263 0.352575,0.06526 0.507314,0.09851 0.79319,0.910168 1.576324,1.827518 2.350224,2.751641 -0.04536,0.1139 -0.09584,0.224105 -0.145915,0.332463 -0.157201,-0.02463 -0.385205,-0.05541 -0.513265,-0.0747 -0.772462,-0.928023 -1.554776,-1.848862 -2.34735,-2.762519 0.04166,-0.08845 0.112668,-0.250784 0.148992,-0.345392 z m -17.430074,0 c 0.03591,0.09461 0.106921,0.25694 0.148787,0.345392 -0.792575,0.913657 -1.574888,1.834496 -2.347556,2.762519 -0.1563807,0.03735 -0.3566792,0.03694 -0.5130598,0.0747 -0.034067,-0.11082 -0.1120522,-0.221846 -0.1459142,-0.332462 0.773284,-0.924123 1.556623,-1.841473 2.350634,-2.751641 0.154124,-0.03325 0.35278,-0.06588 0.507109,-0.09851 z m 8.586326,-16.93585 -0.02029,-2.88e-4 c -5.116944,0.05658 -13.0496799,1.841602 -14.3125133,7.634366 -1.5892537,7.286679 9.2857653,9.981474 14.5672013,9.981474 2.933349,2.28e-4 7.593248,-0.831152 10.883532,-2.819501 -0.13801,-0.340951 -0.207843,-0.688299 0.08035,-0.687776 0.401911,5.56e-4 0.656128,0.04451 0.814112,0.09259 0.823472,-0.606291 1.522936,-1.30257 2.033017,-2.095119 -0.524096,-0.264678 -1.104722,-0.543317 -1.453864,-0.66374 -0.75584,-0.261045 -3.607426,-1.328004 -4.158657,-1.730243 -0.529518,-0.38555 -2.083515,-0.943484 -3.163256,-1.304269 1.889725,1.650778 3.589289,3.288085 5.411484,5.096807 -2.929982,-1.673191 -5.679982,-3.078153 -8.731866,-4.520672 -0.592276,2.552575 -1.15069,5.112332 -1.690224,7.676399 -0.539534,-2.56263 -1.035149,-5.001921 -1.627015,-7.553059 -3.0525,1.440877 -5.829179,2.813824 -8.855,4.419496 2.138843,-2.120784 4.164403,-3.96 6.465373,-5.907369 -3.261212,-0.21056 -6.387593,-0.253862 -9.7263803,-0.30168 3.2745523,-0.707612 6.5119593,-1.26069 9.8357653,-1.684477 -1.638918,-1.290243 -3.247873,-2.487724 -5.015672,-3.598601 2.516455,0.639272 4.908545,1.400858 7.3425,2.299534 0.385164,-1.157463 0.789898,-2.309147 1.235743,-3.445489 l 0.08816,-0.218139 c -4.77e-4,-0.128778 -9.6e-4,-0.259468 -0.0014,-0.39057 -3.54e-4,-0.0932 -7.09e-4,-0.186601 -0.0011,-0.279674 z m 14.698821,12.443809 -0.106443,0.158613 c -0.452902,0.655954 -1.029503,1.248492 -1.6954,1.780858 0.113722,0.05243 0.211967,0.142813 0.261602,0.288951 1.667444,0.869944 3.865187,0.896007 5.412575,0.927817 l -0.145962,-0.0032 c 0.264722,-0.344159 0.500881,-0.692256 0.708966,-1.04335 -0.802694,-0.27529 -3.478723,-1.450024 -3.944068,-1.847476 0,0 -0.198201,-0.107921 -0.49127,-0.262172 z m -13.944177,-4.90516 c 0,0 -0.161671,0.04674 -0.384126,0.09505 l -0.08466,0.0194 -0.0033,0.0039 c 0.03156,2.447236 -0.04322,5.168096 -0.02252,7.440681 0.443002,-2.134021 0.747576,-4.532167 1.193092,-6.723696 L 22.462,38.310515 c -0.354804,-0.01644 -0.693737,-0.01992 -0.880262,0.005 z m -15.5974256,5.067183 0.3357462,0.08804 c -0.046791,0.126212 -0.071623,0.218153 -0.113694,0.385615 -1.0885075,0.569702 -2.1839925,1.15972 -3.2911754,1.75056 -0.1001492,-0.04125 -0.3232276,-0.112258 -0.4391791,-0.156586 0.061772,-0.119851 0.12375,-0.23847 0.1853172,-0.357705 1.1030783,-0.588172 2.2108769,-1.158284 3.3229851,-1.709924 z m 12.8171796,-4.835234 -0.395256,0.249649 c -2.091855,1.347893 -4.200758,2.901697 -6.185375,4.330902 2.352276,-1.325131 5.055075,-2.814235 7.490056,-3.984217 -0.0307,-0.134661 -0.101129,-0.269443 -0.176061,-0.404257 -0.179336,-0.02804 -0.353795,-0.06916 -0.513286,-0.117217 -0.07757,-0.02419 -0.151157,-0.04903 -0.220078,-0.07486 z m 3.830792,-0.228171 0.574041,0.355556 c 2.211086,1.373839 4.695672,2.970362 6.734592,4.441878 -1.510623,-1.396734 -3.268291,-2.918539 -4.918792,-4.280095 -0.02227,-0.0057 -0.03347,-0.0091 -0.03347,-0.0091 0,0 -0.788265,-0.305578 -1.265205,-0.403059 -0.09268,-0.02687 -0.58601,-0.07659 -1.09117,-0.105196 z m 6.592744,-8.232722 0.01503,0.02221 c 0.06402,0.09553 0.09344,0.205303 0.09278,0.312183 -0.0033,0.266586 -0.148992,0.5225 -0.310093,0.77431 -0.08173,0.125489 -0.169641,0.24937 -0.250495,0.366135 3.609924,1.148053 6.753144,3.28023 7.56057,6.882783 0.07154,0.319338 0.120233,0.630463 0.14746,0.933504 l 0.289256,0.06655 2.504552,0.379254 1.765131,0.367145 0.02081,0.0072 c -0.08969,-0.602544 -0.25309,-1.200988 -0.488223,-1.791084 l -0.103587,-0.0054 c -0.725794,-0.03405 -1.909473,-0.09374 -2.491145,-0.402452 0.0021,-0.223899 -0.860709,-0.281156 -0.860709,-0.281156 0,0 -0.235687,-0.140156 -0.237416,-0.269646 l 0.01495,-0.0544 0.681548,-0.404291 c 0,0 0.278079,-0.06485 0.521269,-0.06177 1.028209,-0.02232 1.573078,0.05989 1.78627,0.104108 -1.486352,-2.454515 -4.175733,-4.48338 -7.57502,-5.893269 -0.984517,-0.408048 -2.016232,-0.759015 -3.082941,-1.051854 z m 2.386526,7.972714 -0.522215,0.0064 c -0.673979,0.01188 -1.345724,0.03061 -2.018801,0.05529 0.367738,0.176268 1.951884,0.901698 3.180789,0.993042 C 32.189483,38.8355 31.902072,38.450775 31.61157,38.05925 Z m -3.069681,-6.129239 -0.08219,0.156684 c -0.128979,0.269247 -0.212645,0.520606 -0.315093,0.747665 -0.02005,0.04513 -0.04127,0.08959 -0.06412,0.133008 0.124741,0.0173 0.467373,0.05881 0.726169,0.04266 0.322407,-0.01991 0.402239,-0.155149 0.77903,-0.188601 0.42625,-0.03817 0.559646,0.179776 0.656306,0.409627 0.09748,0.229235 0.449441,0.809813 0.662463,1.140634 0.212201,0.331232 1.669701,1.065523 2.307948,1.868153 0.461548,0.578937 1.303992,1.508191 1.653899,2.047519 0.19633,0.303607 0.535885,0.579853 0.870194,0.778919 -0.02447,-0.213982 -0.06136,-0.431927 -0.10984,-0.654143 -0.733816,-3.361917 -3.713253,-5.374162 -7.084771,-6.482129 z M 4.9397388,38.207351 c 0.060951,0.06136 0.1214925,0.122929 0.182444,0.185317 -0.091735,0.08742 -0.2083022,0.199067 -0.3045522,0.291623 -1.0361754,0.10569 -2.0721455,0.232519 -3.1070896,0.380485 L 1.628528,38.950313 v 0 L 1.542668,38.83431 1.8459889,38.590914 c 1.0306343,-0.149608 2.0625,-0.277257 3.0937499,-0.383563 z m 14.1461172,-0.885384 -0.497442,0.01166 c -2.943985,0.09589 -5.992433,0.287144 -9.1142536,0.555623 2.8792396,0.0095 5.6855736,0.06319 8.5806826,0.253672 l 0.191208,0.01385 c -0.007,-0.02157 -0.01136,-0.04517 -0.0117,-0.07113 0.0012,-0.101175 0.04864,-0.179776 0.102612,-0.245858 0.05562,-0.06567 0.123545,-0.123955 0.196194,-0.176698 0.143862,-0.10528 0.305989,-0.192295 0.399776,-0.244011 0.0487,-0.02641 0.09995,-0.05909 0.152927,-0.09712 z m 3.539872,-0.936389 -0.02035,0.01175 c -0.0059,0.08424 -0.02307,0.169174 -0.0537,0.253222 0.130369,0.04323 0.214093,0.116885 0.537027,0.225509 0.194728,0.0653 0.830133,0.288517 2.342926,0.4855 1.985041,0.07514 3.966795,0.199437 5.944896,0.374508 l -0.0446,-0.06188 v 0 l -0.04306,-0.0611 -0.02583,-0.0046 C 28.376542,37.118125 25.539954,36.7251 22.625717,36.385601 Z m 5.678181,-2.474465 -0.326324,0.227433 c -1.006889,0.708741 -1.965509,1.443427 -2.990346,2.2497 2.099033,0.267852 4.113134,0.586058 6.137076,0.962461 -0.08659,-0.147256 -0.149108,-0.284145 -0.175323,-0.405688 -0.237444,-1.104515 -1.433899,-2.377314 -2.233451,-2.838657 -0.223314,-0.129072 -0.330803,-0.176334 -0.411632,-0.195249 z m -7.471,-1.570138 0.250972,-0.705303 c -0.571959,1.567705 -1.07681,3.158395 -1.552109,4.757089 l 0.303171,0.169709 c 0.240613,-0.311101 0.441727,-0.651294 0.536926,-0.915046 l 0.03847,-0.125017 0.426045,-2.132892 -3.61e-4,-0.154697 c -7.8e-5,-0.02593 -1.67e-4,-0.05459 -2.68e-4,-0.08579 l -7.25e-4,-0.216165 c -4.21e-4,-0.12182 -9.25e-4,-0.263123 -0.0015,-0.418846 z m -7.406752,0.982253 c 1.536101,0.970914 3.224477,2.126735 4.672537,3.222425 l 0.716154,-0.0786 v 0 l 0.716924,-0.07429 v 0 l -0.73178,-0.403136 C 17.069403,35.04738 15.189723,34.102029 13.426157,33.32323 Z m 14.068825,0.431984 -1.029067,0.33892 c -1.372051,0.463016 -2.730268,0.966042 -4.07599,1.50154 l 0.06216,-0.02358 c 0.07324,0.247474 0.151611,0.493292 0.155579,0.74925 l 2.2e-5,0.003 0.01804,0.06125 c 1.605021,-0.891697 3.237121,-1.732944 4.904256,-2.502244 l 0.171072,-0.07665 c -0.06597,-0.01663 -0.136585,-0.03443 -0.206074,-0.05147 z m -4.210966,-2.877422 -0.111574,0.474667 c -0.291515,1.125043 -0.721634,2.203586 -0.84039,3.390509 -0.0045,0.04618 -0.0072,0.09235 -0.0072,0.1375 l -2.6e-5,0.003 c 0.02006,0.07446 0.04431,0.149187 0.06919,0.22394 1.483836,-0.547289 3.000551,-1.017681 4.52889,-1.446106 -0.0226,-0.0019 -0.04817,-0.0054 -0.07488,-0.0095 l -0.0072,-2.52e-4 -0.175656,0.0039 c -0.148992,4.1e-4 -0.265354,-0.0353 -0.346623,-0.107332 -0.08168,-0.07265 -0.110205,-0.171772 -0.108974,-0.249347 4.11e-4,-0.04433 0.0074,-0.08435 0.0197,-0.119851 0.01354,-0.03591 0.02668,-0.06629 0.06075,-0.100765 0.205634,-0.194347 0.355653,-0.281977 0.475709,-0.380895 0.116567,-0.09584 0.221231,-0.206866 0.372687,-0.474273 0.0012,-0.03612 0.0016,-0.07162 0.0016,-0.107127 0,-0.210473 -0.02253,-0.412051 -0.06421,-0.607815 -1.278912,-0.317924 -2.573893,-0.520525 -3.791808,-0.63029 z m 12.67285,2.510288 0.295112,0.127444 v 0 c -0.0094,0.05869 -0.0195,0.166232 -0.02894,0.224926 -0.718489,0.10138 -1.435131,0.222668 -2.150541,0.362015 -0.09194,-0.05397 -0.216306,-0.12765 -0.30291,-0.17403 0.01252,-0.06218 0.02504,-0.124571 0.03735,-0.187164 0.715411,-0.136064 1.432053,-0.254478 2.149926,-0.353191 z m -30.0474444,-0.0433 c 0.7619963,0.104459 1.5227612,0.230261 2.2814739,0.374739 v 0 l 0.040224,0.198451 c -0.09153,0.04946 -0.223694,0.127444 -0.3209702,0.184907 -0.759944,-0.147966 -1.5213246,-0.276847 -2.2835261,-0.383974 -0.00965,-0.06218 -0.020933,-0.176492 -0.030578,-0.23888 0.1042537,-0.04536 0.2089179,-0.0905 0.3133764,-0.135243 z m 17.5263424,-4.250873 0.0111,0.16213 0.0047,0.213706 c 0,0.299627 -0.02729,0.59638 -0.07367,0.903395 -0.0076,0.05027 -0.01566,0.100367 -0.0242,0.150309 1.168917,0.09637 2.388706,0.272624 3.592159,0.543692 -0.119826,-0.333041 -0.292997,-0.654926 -0.499041,-0.982956 -0.151719,-0.241132 -0.343319,-0.481821 -0.54568,-0.706285 -0.812102,-0.125161 -1.635116,-0.220161 -2.465347,-0.283991 z m -9.910074,0.988019 c 0.402444,0.250373 0.797706,0.512033 1.187426,0.782313 l -0.116157,0.12806 v 0 c -0.09994,-0.0016 -0.246474,0.02627 -0.346418,0.02504 -0.386231,-0.272332 -0.778209,-0.535634 -1.177164,-0.78806 0.03735,-0.03838 0.121287,-0.105485 0.159048,-0.143246 0.09789,-0.0014 0.195374,-0.0031 0.293265,-0.0041 z m 9.808265,-4.790131 -0.245858,2.369515 c 0.163923,0.41468 0.265156,0.795371 0.317879,1.161361 l 0.510799,0.04234 c 0.56535,0.05142 1.127012,0.117251 1.68358,0.197375 l -0.02064,-0.02032 C 25.106269,28.574963 24.860205,28.30653 24.66278,28.006698 24.466381,27.70666 24.326418,27.390821 24.054291,26.823787 23.812742,26.319758 23.573657,25.741847 23.333955,25.291791 Z"
           id="Combined-Shape" />
      </g>
    </g>
  </g>
  <metadata
     id="metadata917">
    <rdf:RDF>
      <cc:Work
         rdf:about="">
        <dc:title>rabobank</dc:title>
      </cc:Work>
    </rdf:RDF>
  </metadata>
</svg>
