<svg height="360" viewBox="0 0 640 360" width="640" xmlns="http://www.w3.org/2000/svg" xmlns:xlink="http://www.w3.org/1999/xlink"><linearGradient id="a" x1="-.050273%" x2="100.007039%" y1="50.064286%" y2="50.064286%"><stop offset="0" stop-color="#ca581a"/><stop offset="1" stop-color="#6e2e2b"/></linearGradient><linearGradient id="b" x1="-18.00619%" x2="99.78869%" y1="60.743291%" y2="42.162927%"><stop offset="0" stop-color="#ffe07d"/><stop offset="1" stop-color="#ee7203"/></linearGradient><linearGradient id="c" x1="42.465201%" x2="59.163742%" y1="33.862344%" y2="72.448114%"><stop offset="0" stop-color="#2d2c86"/><stop offset="1" stop-color="#282674"/></linearGradient><g fill="none" fill-rule="evenodd" transform="translate(90 126.333333)"><path d="m314.459016 61.8360656c-1.508196 9.652459-6.485246 14.6295082-12.367213 14.6295082-3.770492 0-5.881967-2.7147541-5.278688-6.7868853l2.111475-12.9704918c.754099-4.8262295 3.770492-8.5967213 8.898361-8.5967213 5.429508 0 8.144262 3.9213115 6.636065 13.7245902zm-20.511475 19.1540983c.754098 0 2.714754 3.3180328 9.04918 3.3180328 13.272131 0 20.963935-9.652459 23.07541-22.1704918 2.714754-15.3836065-4.826229-22.3213115-14.177049-22.3213115-4.373771 0-7.691803.4524591-10.104918 1.6590164l3.619672-21.1147541h-11.160656l-11.009836 63.1934427h8.295082c0 .1508196 1.206558-2.5639345 2.413115-2.5639345zm118.091803-26.8459016c1.659017-9.5016393-1.809836-14.1770492-12.216393-14.1770492-7.691803 0-10.708197 3.4688525-13.573771 6.3344262l.30164-5.2786885h-10.255738l-.754098 7.842623-5.881968 34.8393442h11.311476l3.619672-22.6229508c1.357377-7.8426229 6.636066-13.7245902 11.763934-13.7245902 5.580328 0 5.580328 3.1672132 4.67541 8.1442623l-4.826229 28.2032787h11.160655zm46.754099-14.1770492h-13.121312l-15.081967 15.9868853h-.15082l6.032787-35.2918033h-10.859016l-11.009836 63.0426229h11.160655l1.055738-6.3344262 2.262295-13.8754098c5.881967 0 9.2.6032787 11.763935 12.3672131l1.809836 7.8426229h11.311475s-2.865574-11.9147541-4.67541-16.5901639c-1.960655-4.9770492-4.072131-8.1442623-8.596721-9.0491803zm-322.15082 15.5344262c8.144262-1.809836 12.367213-8.2950819 13.422951-12.6688524 2.865574-11.7639344-2.262295-20.9639344-17.344263-20.8131148h-17.193442l-10.708197 61.5344263h11.311476l4.52459-24.5836066c10.255737-.3016393 11.613114 2.2622951 13.57377 14.1770492l1.809836 10.557377h11.613115c-1.357377-6.3344262-2.262295-12.3672131-3.318033-17.1934426-1.206557-5.1278688-3.016393-9.0491803-7.842623-10.8590164zm2.262295-14.7803278c-.904918 5.4295082-5.127869 9.3508196-10.406557 9.3508196h-6.636066l3.468853-19.4557377h6.032786c7.088525 0 8.445902 4.6754099 7.540984 10.1049181zm50.52459 11.6131147c1.659017-9.3508196-3.318033-12.5180328-13.422951-12.5180328-12.518032 0-17.947541 5.8819673-17.947541 5.8819673l3.921312 6.4852459s4.072131-4.6754099 12.216393-4.6754099c4.52459 0 4.67541 2.2622951 4.222951 4.6754099l-.904918 5.5803278c-16.137705-.452459-24.432787 3.0163935-26.242623 13.7245902-1.508197 8.747541 4.977049 12.8196721 12.367213 12.8196721 3.770492 0 6.786886-.6032787 10.557377-3.7704918.754099 2.1114754 1.960656 3.1672131 3.468853 3.4688525 2.262295.452459 6.334426 0 7.540983-.9049181-.150819-1.357377 0-4.5245901 1.357377-12.3672131zm-13.272131 11.4622951c-1.809836 12.6688525-3.468852 14.0262295-9.652459 14.0262295-4.222951 0-5.731148-2.8655738-4.977049-6.6360656 1.055738-5.2786885 4.977049-7.3901639 14.629508-7.3901639zm190.636066-11.4622951c1.659016-9.3508196-3.318033-12.5180328-13.422951-12.5180328-12.518033 0-17.947541 5.8819673-17.947541 5.8819673l3.921311 6.4852459s4.072131-4.6754099 12.216394-4.6754099c4.52459 0 4.67541 2.2622951 4.222951 4.6754099l-.904918 5.5803278c-16.137705-.452459-24.432787 3.0163935-26.242623 13.7245902-1.508197 8.747541 4.977049 12.8196721 12.367213 12.8196721 3.770491 0 6.786885-.6032787 10.557377-3.7704918.754098 2.1114754 1.960655 3.1672131 3.468852 3.4688525 2.262295.452459 6.334426 0 7.540984-.9049181-.15082-1.357377 0-4.5245901 1.357377-12.3672131zm-13.272132 11.4622951c-1.809836 12.6688525-3.468852 14.0262295-9.652459 14.0262295-4.22295 0-5.731147-2.8655738-4.977049-6.6360656.904918-5.2786885 4.82623-7.3901639 14.629508-7.3901639zm-141.619672 20.6622951c13.272131 0 20.963935-9.652459 23.07541-22.1704918 2.714754-15.3836066-4.826229-22.3213115-14.177049-22.3213115-4.37377 0-7.540984.452459-10.104918 1.6590164l3.619672-21.1147541h-11.160656l-11.009836 63.1934426h8.295082s1.206558-2.5639344 2.413115-2.5639344c.904918-.1508197 2.714754 3.3180328 9.04918 3.3180328zm4.67541-36.347541c5.731148 0 8.144262 3.9213115 6.786885 13.7245902-1.357377 10.104918-6.485245 14.6295082-12.518032 14.6295082-3.770492 0-5.881968-2.7147541-5.278689-6.7868853l2.111476-12.9704918c.904918-4.8262295 3.770491-8.5967213 8.89836-8.5967213zm23.07541 17.6459016c1.659016-16.1377049 8.898361-26.0918032 26.242623-26.0918032 12.819672 0 17.042623 9.8032787 15.232787 20.209836-2.714754 16.7409836-9.35082 24.7344263-25.639344 24.7344263-10.557377 0-16.891804-8.5967213-15.836066-18.8524591zm29.862295-4.9770491c.754098-4.3737705 1.659016-13.1213115-5.881967-13.1213115-5.127869 0-9.954098 3.4688525-12.065574 15.6852459-1.357377 7.3901639.15082 13.4229508 6.032787 13.4229508 4.222951 0 9.652459-3.6196721 11.914754-15.9868852z" fill="#2d2c86" fill-rule="nonzero"/><path d="m75.4098361 74.957377c.1508196.1508197.452459.3016394.6032787.4524591-.1508197.1508196-.1508197.3016393-.3016394.452459-1.9606557-.3016394-3.9213115-.452459-5.8819672-.7540984-.1508197-.1508197-.452459-.452459-.6032787-.6032787.1508197-.1508196.3016394-.3016393.3016394-.3016393 1.9606557.1508197 3.9213114.452459 5.8819672.7540983z" fill="#fff"/><path d="m75.2590164 75.1081967c.1508197.1508197.452459.3016394.452459.3016394s0-.1508197.1508197-.1508197c-.1508197-.1508197-.452459-.3016394-.6032787-.452459-1.9606557-.3016394-3.9213115-.452459-5.8819672-.7540984-.1508197.1508197-.3016394.3016394-.3016394.3016394s.1508197 0 .1508197.1508196c0 0 .1508197-.1508196.1508197-.1508196 2.1114754.3016393 3.9213115.6032786 5.8819672.7540983z" fill="#a81815"/><path d="m71.4885246 71.6393443c-.452459 0-1.0557377.1508196-1.0557377.1508196l-1.3573771.7540984c-.1508196.3016393.4524591.6032787.4524591.6032787s1.6590163.1508197 1.6590163.6032787c1.2065574.6032787 3.7704918.7540983 4.9770492.7540983-.1508196-.452459-.3016393-.904918-.6032787-1.357377-.1508196-.452459-.452459-.904918-.6032787-1.2065574 0-.1508197-.904918-.3016393-3.4688524-.3016393z" fill="#4f2644" fill-rule="nonzero" opacity=".45"/><path d="m71.7901639 66.8131148c1.6590164 1.6590163 3.0163935 3.4688524 3.9213115 5.4295082 3.0163935 6.1836065 1.9606557 12.9704918-4.0721311 18.852459-6.937705 6.7868852-18.7016394 11.009836-32.4262295 11.009836-13.7245902 0-25.4885246-4.2229508-32.42622955-11.009836-6.03278689-5.8819672-7.08852459-12.6688525-4.07213115-18.852459.90491803-1.9606558 2.26229508-3.7704919 3.92131147-5.4295082-1.96065573 1.809836-3.46885246 3.4688524-4.8262295 6.3344262-3.01639345 5.8819672-1.96065574 14.3278688 4.22295082 20.5114754 7.08852461 6.9377046 18.24918031 11.1606556 33.33114751 11.1606556 15.2327869 0 26.242623-4.37377 33.0295082-11.1606556 6.6360656-6.6360656 6.9377049-15.3836066 4.2229508-20.6622951-1.2065573-2.2622951-2.7147541-4.2229508-4.8262295-6.1836065z" fill="url(#a)" fill-rule="nonzero"/><path d="m60.6295082 5.4295082c-6.3344262-2.7147541-13.8754098-4.07213115-21.4163934-4.07213115-7.5409837 0-15.0819673 1.35737705-21.4163935 4.07213115-7.0885246 2.86557377-12.51803278 7.2393443-15.0819672 12.5180328-3.01639344 6.1836065-1.96065574 12.9704918 4.07213115 18.852459 6.93770495 6.7868852 18.70163935 11.0098361 32.42622955 11.0098361 13.7245901 0 25.4885245-4.2229509 32.4262295-11.0098361 6.0327868-5.8819672 7.0885246-12.6688525 4.0721311-18.852459-2.5639344-5.2786885-7.9934426-9.65245903-15.0819672-12.5180328z" fill="#ee7203" fill-rule="nonzero" transform="translate(0 54.295082)"/><path d="m40.4196721 62.7409836c-1.2065573-2.5639344-1.0557377-4.9770492-.7540983-6.9377049-.1508197 0-.3016394 0-.452459 0-7.5409837 0-15.0819673 1.357377-21.4163935 4.0721311-7.0885246 2.8655738-12.51803278 7.2393443-15.0819672 12.5180328-3.01639344 6.1836066-1.96065574 12.9704918 4.07213115 18.852459.45245901.4524591.90491803.7540984 1.35737705 1.2065574 25.4885246-1.6590164 38.7606557-16.5901639 32.2754098-29.7114754z" fill="url(#b)" fill-rule="nonzero"/><path d="m22.7737705 63.1934426c4.6754098 1.2065574 9.2 2.5639344 13.8754098 4.3737705.9049181-2.7147541 1.8098361-5.4295082 3.0163935-8.1442623 1.0557377 2.7147541 2.1114754 5.4295082 3.0163934 8.1442623 4.5245902-1.6590164 9.0491803-3.0163934 13.7245902-4.2229508-3.3180328 2.1114754-6.3344263 4.2229508-9.3508197 6.6360656 6.3344262.7540983 12.0655738 1.809836 18.2491803 3.1672131-6.1836065-.1508197-11.9147541.1508197-18.0983606.452459 4.3737705 3.6196721 7.9934426 7.2393443 12.0655737 11.1606557-5.5803278-3.1672131-10.7081967-5.7311475-16.4393442-8.4459016-1.0557377 4.8262295-2.1114754 9.652459-3.1672131 14.4786885-1.0557377-4.8262295-1.9606558-9.3508196-3.0163935-14.1770492-5.7311475 2.7147541-11.009836 5.2786886-16.7409836 8.295082 4.0721312-3.9213115 7.842623-7.3901639 12.2163935-11.1606557-6.1836066-.452459-12.0655738-.452459-18.2491804-.6032787 6.1836066-1.3573771 12.2163935-2.4131148 18.5508197-3.1672131-3.3180328-2.5639345-6.3344262-4.8262295-9.652459-6.7868853zm16.7409836 8.295082c0-3.4688525 0-7.0885246 0-10.5573771-1.0557377 3.0163935-1.9606557 5.8819673-2.8655738 8.8983607 1.0557377.6032787 1.9606558 1.2065574 2.8655738 1.6590164zm-14.0262295-7.2393443c3.7704918 1.6590164 7.5409836 3.6196722 11.1606557 5.5803279-.904918.1508197-1.809836.1508197-2.7147541.3016393-2.7147541-1.9606557-5.4295082-4.0721311-8.4459016-5.8819672zm14.0262295 7.2393443c7.2393443 0 14.6295082.3016393 21.8688525 1.0557377-6.3344263-1.2065574-12.5180328-1.9606557-19.0032787-2.7147541-.9049181.6032787-1.8098361 1.2065574-2.8655738 1.6590164zm14.1770492-7.2393443c-3.7704918 1.6590164-7.5409836 3.6196722-11.1606558 5.5803279-.1508196-.452459-.3016393-1.0557377-.452459-1.5081967 3.7704918-1.5081967 7.6918033-2.8655738 11.6131148-4.0721312zm-14.4786885 7.2393443c.1508196 5.1278688.3016393 10.557377.452459 15.5344262.904918-4.5245901 1.9606557-9.2 3.0163934-13.7245901-1.0557377-.6032787-2.4131147-1.2065574-3.4688524-1.8098361zm16.4393442 10.557377c-4.2229508-3.0163934-8.5967213-6.0327868-13.1213115-8.7475409.9049181 0 1.8098361-.1508197 2.7147541-.1508197 3.6196722 2.8655738 7.0885246 5.8819672 10.4065574 8.8983606zm-16.1377049-10.557377c-7.3901639.1508197-13.1213115.452459-20.3606557 1.0557377 6.1836065 0 11.009836.3016393 17.3442623.7540984 1.0557377-.6032787 2.1114754-1.2065574 3.0163934-1.8098361zm-15.9868852 10.557377c4.2229508-3.0163934 8.5967213-6.0327868 13.1213114-8.7475409.1508197.6032786.3016394 1.2065573.452459 1.6590163-4.6754098 2.2622951-9.2 4.6754099-13.5737704 7.0885246z" fill="#fff"/><path d="m39.5147541 59.5737705c1.0557377 2.7147541 2.1114754 5.4295082 3.0163934 8.1442623 4.3737705-1.6590164 8.747541-3.0163935 13.2721312-4.0721312.1508197-.1508196.3016393-.1508196.452459-.3016393-4.6754098 1.2065574-9.2 2.5639344-13.7245902 4.2229508-.904918-2.7147541-1.809836-5.4295082-3.0163934-8.1442623-1.0557377 2.7147541-2.1114754 5.4295082-3.0163934 8.1442623-4.5245902-1.6590164-9.0491804-3.1672131-13.8754099-4.3737705.1508197.1508197.3016394.1508197.452459.3016394 4.5245902 1.2065573 8.8983607 2.5639344 13.4229509 4.2229508 1.0557377-2.8655738 1.9606557-5.5803279 3.0163934-8.1442623z" fill="#c51a1b"/><path d="m31.9737705 73.6c-4.2229508 3.6196721-8.1442623 7.2393443-12.2163935 11.1606557.1508197-.1508196.4524591-.3016393.6032787-.3016393 3.9213115-3.7704918 7.390164-6.9377049 11.4622951-10.5573771v-.3016393z" fill="#c8411b"/><path d="m39.5147541 71.4885246v.1508197s0 0 0-.1508197z" fill="#c00d0d"/><path d="m39.3639344 71.6393443c-1.0557377.6032787-1.9606557 1.2065573-2.8655737 1.6590164v.1508196c.904918-.6032787 1.9606557-1.2065573 2.8655737-1.809836v-.1508197c.1508197.1508197.1508197.1508197 0 .1508197z" fill="#c00d0d"/><path d="m36.6491803 69.8295082c-.1508196 0-.1508196 0-.3016393 0-.7540984.1508197-1.6590164.1508197-2.4131148.3016393-2.7147541-2.1114754-5.5803278-4.0721311-8.4459016-5.8819672v.1508197c2.8655738 1.8098361 5.7311475 3.7704918 8.4459016 5.8819672.9049181-.1508197 1.8098361-.1508197 2.7147541-.3016393.9049181.452459 1.6590164.904918 2.5639345 1.5081967h.3016393c-.904918-.452459-1.9606557-1.0557377-2.8655738-1.6590164z" fill="#c8411b"/><path d="m23.5278689 82.347541c4.3737704-2.5639344 8.8983606-4.8262295 13.5737704-7.0885246v-.3016394c-4.5245901 2.2622951-9.0491803 4.5245902-13.5737704 7.0885246z" fill="#c8411b"/><path d="m42.5311475 73.2983607c-1.0557377 4.5245901-2.1114754 9.2-3.0163934 13.7245901v.1508197c.904918-4.5245902 1.9606557-9.2 3.0163934-13.7245902 3.0163935 1.8098361 7.5409836 4.8262295 13.1213115 8.8983607v-.3016394c-4.2229508-3.0163934-8.5967213-6.0327868-13.1213115-8.7475409z" fill="#a81815"/><path d="m47.357377 73.7508197-.1508196-.1508197v.3016393c4.2229508 3.4688525 7.5409836 6.6360656 11.4622951 10.5573771.1508196.1508197.452459.3016393.6032786.3016393-4.0721311-4.0721311-7.8426229-7.5409836-11.9147541-11.009836z" fill="#a81815"/><path d="m31.9737705 69.9803279c-6.1836066.7540983-12.2163935 1.809836-18.4 3.1672131h.904918c5.8819672-1.2065574 11.6131148-2.2622951 17.495082-3.0163935z" fill="#c8411b"/><path d="m36.6491803 73.2983607c-5.7311475-.4524591-11.4622951-.7540984-17.3442623-.7540984v.1508197c5.7311476 0 11.3114754.3016393 17.042623.7540983.1508197 0 .1508197 0 .3016393-.1508196" fill="#c8411b"/><path d="m46.904918 69.8295082c6.3344263.7540984 12.0655738 1.8098361 18.2491804 3.1672131-.3016394 0-.7540984 0-1.0557377 0-5.8819673-1.2065574-11.3114755-2.1114754-17.1934427-2.8655738z" fill="#a81815"/><path d="m39.5147541 71.4885246c7.2393443 0 14.6295082.3016393 21.8688525 1.0557377v.1508197c-7.2393443-.7540984-14.3278689-1.0557377-21.5672132-1.0557377 0 0-.1508196 0-.1508196-.1508197 0 .1508197 0 .1508197-.1508197 0h.3016393" fill="#a81815"/><path d="m42.5311475 69.8295082h.3016394c3.4688524-1.9606557 7.0885246-3.7704918 10.8590164-5.4295082v-.1508197c-3.9213115 1.6590164-7.5409836 3.6196722-11.1606558 5.5803279" fill="#a81815"/><path d="m42.5311475 69.8295082c-.1508196-.452459-.3016393-1.0557377-.452459-1.5081967v.1508196c.1508197.4524591.3016394.9049181.452459 1.3573771z" fill="#c00d0d"/><g fill="#fff"><path d="m40.2688525 100.747541c-.1508197.15082-.4524591.301639-.7540984.452459-.1508197-.15082-.452459-.301639-.7540984-.452459 0-1.9606558 0-3.9213115 0-6.0327869.1508197-.1508197.4524591-.3016393.7540984-.452459.1508197.1508197.452459.3016393.7540984.452459z"/><path d="m4.82622951 86.2688525c-.15081967.1508196-.30163935.452459-.30163935.6032786.15081968.1508197.60327869.1508197.75409836.3016394 2.11147541-1.0557377 4.22295082-2.2622951 6.18360658-3.3180328.1508197-.3016393.1508197-.452459.1508197-.7540984-.1508197 0-.4524591-.1508196-.6032787-.1508196-1.96065577 1.0557377-4.07213118 2.2622951-6.18360659 3.3180328z"/><path d="m3.31803279 74.052459c-.15081968.1508197-.45245902.3016394-.60327869.452459.15081967.1508197.15081967.3016394.30163934.452459 1.96065574-.3016393 3.92131148-.452459 5.88196722-.7540983.15081967-.1508197.45245901-.452459.60327868-.6032787-.15081967-.1508197-.30163934-.3016393-.30163934-.3016393-1.96065574.1508196-3.92131148.452459-5.88196721.7540983z"/><path d="m10.8590164 64.0983607c-.1508197.1508196-.452459.1508196-.6032787.3016393v.452459c1.5081967.1508197 2.8655738.452459 4.3737705.7540984.1508197-.1508197.452459-.3016394.6032787-.3016394 0-.1508196 0-.3016393 0-.3016393-1.5081967-.452459-3.0163935-.6032787-4.3737705-.904918z"/><path d="m54.747541 58.0655738h.6032787s.1508196.1508196.1508196.1508196c-.7540983.4524591-1.5081967.9049181-2.262295 1.5081968-.1508197 0-.4524591 0-.6032787 0 0-.1508197-.1508197-.1508197-.1508197-.3016394.7540984-.452459 1.5081967-.904918 2.2622951-1.357377z"/><path d="m39.0622951 55.9540984c.1508197 0 .3016393-.1508197.452459-.1508197s.3016393.1508197.452459.1508197v1.809836c-.1508197 0-.3016393.1508197-.452459.1508197s-.3016393-.1508197-.452459-.1508197c0-.6032787 0-1.2065574 0-1.809836z"/><path d="m23.3770492 58.3672131s.3016393-.1508197.3016393-.3016393h.6032787c.7540984.452459 1.5081967.904918 2.2622951 1.5081967 0 .1508197-.1508197.1508197-.1508197.3016393-.1508196 0-.452459 0-.6032787 0-.904918-.6032787-1.6590164-1.0557377-2.4131147-1.5081967z"/><path d="m18.852459 96.9770492c-.3016393 0-.6032787 0-.904918.1508197 0-.1508197-.1508197-.4524591-.3016394-.6032787 1.5081968-1.8098361 2.8655738-3.4688525 4.3737705-5.1278689.3016394 0 .6032787-.1508197.9049181-.1508197 0 .1508197.1508196.4524591.3016393.6032787-1.5081967 1.6590164-3.0163934 3.4688525-4.3737705 5.1278689z"/><path d="m73.7508197 86.2688525c.1508196.1508196.3016393.452459.3016393.6032786-.1508197.1508197-.6032787.1508197-.7540983.3016394-2.1114755-1.0557377-4.2229509-2.2622951-6.1836066-3.3180328-.1508197-.3016393-.1508197-.452459-.1508197-.7540984.1508197 0 .452459-.1508196.6032787-.1508196 2.1114754 1.0557377 4.2229508 2.2622951 6.1836066 3.3180328z"/><path d="m67.8688525 64.0983607c.1508196.1508196.452459.1508196.6032786.3016393v.452459c-1.5081967.1508197-2.8655737.452459-4.3737704.7540984-.1508197-.1508197-.4524591-.3016394-.6032787-.3016394 0-.1508196 0-.3016393.1508196-.3016393 1.3573771-.452459 2.7147541-.6032787 4.2229509-.904918z"/><path d="m59.8754098 96.9770492c.3016394 0 .6032787.1508197.9049181.1508197.1508196-.1508197.1508196-.4524591.3016393-.6032787-1.5081967-1.8098361-2.8655738-3.4688525-4.3737705-5.1278689-.3016393 0-.6032787-.1508197-.904918-.1508197 0 .1508197-.1508197.4524591-.3016394.6032787 1.5081968 1.6590164 3.0163935 3.4688525 4.3737705 5.1278689z"/></g><path d="m4.82622951 86.5704918c0 .1508197-.15081967.3016393-.15081967.3016393h-.15081968c.15081968-.1508196.30163935-.452459.30163935-.6032786 2.11147541-1.0557377 4.22295082-2.1114755 6.18360659-3.1672132.1508196 0 .452459.1508197.6032787.1508197 0 .1508197-.1508197.3016394-.1508197.3016394-.1508197 0-.452459-.1508197-.6032787-.1508197-1.80983607 1.0557377-3.92131148 2.1114754-6.03278689 3.1672131z" fill="#ca581a"/><path d="m3.46885246 74.3540984c-.15081967.1508196-.45245902.3016393-.45245902.3016393s0-.1508197-.15081967-.1508197c.15081967-.1508196.45245902-.3016393.60327869-.452459 1.96065574-.3016393 3.92131147-.452459 5.88196721-.7540983.15081967.1508196.30163935.3016393.30163935.3016393s0 0-.15081968.1508197c0 0-.15081967-.1508197-.15081967-.1508197-2.11147541.1508197-3.92131147.452459-5.88196721.7540984z" fill="#ca581a"/><path d="m10.2557377 64.7016393c0-.1508196 0-.1508196 0-.3016393.1508197-.1508197.452459-.1508197.6032787-.3016393 1.5081967.1508196 2.8655738.452459 4.2229508.7540983v.3016394s-2.8655738-.6032787-4.3737705-.7540984c0 .1508197-.3016393.1508197-.452459.3016393z" fill="#ca581a"/><path d="m55.2 58.3672131c.1508197 0 .1508197 0 0 0 .1508197 0 .1508197 0 .1508197-.1508197 0 0-.1508197-.1508196-.1508197-.1508196-.1508197 0-.3016393 0-.6032787 0-.7540983.452459-1.5081967.904918-2.2622951 1.5081967 0 0 .1508197.1508197.1508197.1508197.7540984-.4524591 1.3573771-.9049181 2.1114754-1.3573771z" fill="#a81815"/><path d="m39.0622951 56.2557377c.1508197 0 .3016393-.1508197.452459-.1508197s.3016393.1508197.452459.1508197v-.3016393c-.1508197 0-.3016393-.1508197-.452459-.1508197s-.3016393.1508197-.452459.1508197z" fill="#b6110e"/><path d="m24.2819672 58.3672131c.7540984.452459 1.3573771.904918 2.1114754 1.3573771 0 0 .1508197-.1508197.1508197-.1508197-.7540984-.452459-1.5081967-1.0557377-2.2622951-1.5081967-.1508197 0-.3016393 0-.6032787 0 0 0-.3016393.1508196-.3016393.3016393 0 0 .1508197.1508197.1508197.1508197s.1508196-.1508197.1508196-.1508197z" fill="#c8411b"/><path d="m22.9245902 91.3967213c.1508196.1508197.1508196.3016394.3016393.452459 0 0 0 0 .1508197-.1508196 0-.1508197-.1508197-.4524591-.3016394-.6032787-.3016393 0-.6032787.1508196-.904918.1508196-1.5081967 1.6590164-3.0163934 3.4688525-4.3737705 5.1278689 0 .1508197.1508197.1508197.1508197.3016393.904918-1.0557377 3.0163934-3.4688524 4.3737705-5.2786885 0 .1508197.3016393.1508197.6032787 0z" fill="#a81815"/><path d="m73.7508197 86.5704918c0 .1508197.1508196.3016393.1508196.3016393h.1508197c-.1508197-.1508196-.3016393-.452459-.3016393-.6032786-2.1114754-1.0557377-4.2229508-2.1114755-6.1836066-3.1672132-.1508197 0-.452459.1508197-.6032787.1508197 0 .1508197.1508197.3016394.1508197.3016394.1508197 0 .452459-.1508197.6032787-.1508197 1.9606557 1.0557377 4.0721311 2.1114754 6.0327869 3.1672131z" fill="#a81815"/><path d="m68.4721311 64.7016393c0-.1508196 0-.1508196 0-.3016393-.1508196-.1508197-.452459-.1508197-.6032786-.3016393-1.5081968.1508196-2.8655738.452459-4.2229509.7540983 0 .1508197 0 .3016394-.1508196.3016394 0 0 2.8655737-.6032787 4.3737705-.7540984.1508196.1508197.452459.1508197.6032786.3016393z" fill="#a81815"/><path d="m55.8032787 91.3967213c-.1508197.1508197-.1508197.3016394-.3016394.452459 0 0 0 0-.1508196-.1508196 0-.1508197.1508196-.4524591.3016393-.6032787.3016394 0 .6032787.1508196.904918.1508196 1.5081968 1.6590164 3.0163935 3.4688525 4.3737705 5.1278689 0 .1508197 0 .1508197-.1508196.3016393-.9049181-1.0557377-3.0163935-3.4688524-4.3737705-5.2786885 0 .1508197-.3016394.1508197-.6032787 0z" fill="#a81815"/><path d="m40.1180328 94.8655738.1508197 5.7311472v-6.0327866c-.1508197-.1508196-.4524591-.3016393-.7540984-.452459-.1508197.1508197-.452459.3016394-.7540984.452459v6.0327866l.1508197-5.7311472c.1508197-.1508197.452459-.3016394.6032787-.3016394.3016393.1508197.452459.3016394.6032787.3016394z" fill="#a81815"/><path d="m10.7081967 73.4491803c2.5639344-11.6131147 18.7016394-15.0819672 28.8065574-15.0819672s26.2426229 3.4688525 28.8065574 15.0819672c3.1672131 14.4786886-18.2491804 19.7573771-28.8065574 19.7573771-10.5573771 0-32.12459017-5.4295082-28.8065574-19.7573771zm1.0557377-.1508196c2.4131148-11.1606558 17.947541-14.4786886 27.7508197-14.4786886 9.652459 0 25.3377049 3.3180328 27.7508197 14.4786886 3.0163934 13.8754098-17.6459017 19.0032786-27.7508197 19.0032786s-30.76721312-5.1278688-27.7508197-19.0032786z" fill="#c8411b"/><path d="m10.7081967 73.7508197c2.5639344-11.6131148 17.947541-15.0819672 28.8065574-15.0819672 10.7081967 0 26.2426229 3.4688524 28.8065574 15.0819672 3.1672131 14.4786885-18.4 19.757377-28.8065574 19.757377s-31.97377049-5.2786885-28.8065574-19.757377zm1.0557377-.1508197c2.4131148-11.1606557 17.947541-14.4786885 27.7508197-14.4786885 9.652459 0 25.3377049 3.3180328 27.7508197 14.4786885 3.0163934 13.8754098-17.6459017 19.0032787-27.7508197 19.0032787-9.9540984 0-30.76721312-5.1278689-27.7508197-19.0032787z" fill="#fff"/><path d="m73.9016393 76.1639344-4.6754098-.7540983-.6032787-.1508197c-.7540983-.1508197-2.2622951-1.0557377-3.0163934-1.9606557-.7540984-1.0557377-2.2622951-2.8655738-3.1672131-3.9213115-1.2065574-1.5081967-3.9213115-2.8655738-4.3737705-3.4688525s-1.0557377-1.6590164-1.2065574-2.1114754-.6032787-.7540983-1.3573771-.7540983c-.7540983 0-.7540983.3016393-1.357377.3016393s-1.5081967-.1508197-1.5081967-.1508197c-.3016394-.1508196-.6032787-.1508196-.9049181-.1508196-.3016393.6032786-.904918 1.0557377-2.4131147 1.0557377-.1508197 0-.1508197 0-.3016394 0 .1508197.3016393 1.5081968.452459 1.6590164.452459.1508197 0 1.5081968.3016393 1.6590164.452459.6032787.1508197.452459-.1508197 1.3573771.452459 1.5081967.904918 3.7704918 3.3180328 4.2229508 5.2786885.3016393 1.2065574 2.2622951 3.0163935 2.4131148 4.0721312-2.5639345-.1508197-6.1836066-1.9606558-6.1836066-1.9606558l-.452459-.1508196s-1.5081967-.7540984-3.9213115-.9049181c-4.5245902-.452459-6.1836066-1.0557377-6.6360656-1.2065573-.904918-.3016394-.7540983-.4524591-1.5081967-.4524591-.1508197 0-.3016393 0-.452459 0-.1508197.1508197-.1508197.3016394-.452459.4524591-.9049181.7540983-1.3573771 1.357377-2.1114754 2.5639344-.1508197.3016393-.4524591.452459-.9049181.6032787.9049181-.1508197 2.5639345-.6032787 2.5639345-.6032787 1.6590164-.1508197 4.0721311.452459 4.0721311.452459.904918.1508197 2.4131148.7540984 2.4131148.7540984s6.4852459 1.9606557 7.9934426 3.1672131c1.0557377.7540983 6.3344262 2.7147541 7.8426229 3.3180328 1.3573771.452459 4.8262295 2.4131147 4.8262295 2.4131147.9049181.7540984 6.0327869 3.0163935 7.5409836 3.4688525 1.8098361-3.1672131 2.4131148-6.4852459 1.9606558-9.652459z" fill="#4f2644" fill-rule="nonzero" opacity=".45"/><path d="m61.8360656 86.5704918s-.3016394-.452459-1.9606558-.452459c-1.0557377 0 .4524591 2.4131147.4524591 2.4131147.904918.6032787 4.3737704 1.6590164 4.9770491 1.6590164.7540984.1508197 3.0163935.7540984 3.0163935.7540984s1.2065574.1508197 2.5639344.6032787c.1508197-.1508197.452459-.3016394.6032787-.6032787.7540984-.7540984 1.357377-1.5081967 1.9606557-2.2622951-2.8655737 0-6.9377049-.1508197-9.9540983-1.6590164-.1508197-.7540983-1.6590164-.452459-1.6590164-.452459z" fill="#4f2644" fill-rule="nonzero" opacity=".45"/><path d="m53.2393443 41.6262295s-.9049181-.904918-.9049181-.904918c0-.3016394.3016394-.7540984.3016394-1.2065574-.1508197 0-.1508197-.1508197-.3016394-.1508197-.3016393-.904918-.452459-2.4131147 0-3.3180328.1508197-.452459.452459-.904918.3016394-1.5081967-.7540984-2.7147541-2.4131148-4.9770492-3.4688525-7.5409836-.3016393-.7540983-.3016393-1.2065574-.3016393-1.9606557-.9049181-.9049181-1.8098361-3.3180328-2.2622951-4.8262295-1.0557377 2.5639344-1.6590164 5.4295082-1.6590164 6.0327869 0 2.8655737 2.8655738 4.2229508 1.8098361 8.8983606-.1508197.904918-.6032787 2.1114754-.9049181 3.4688525.6032787 3.3180328.6032787 5.5803278 1.5081967 9.3508196 1.2065574 1.2065574 2.2622951 2.7147541 2.7147541 4.6754099.3016394 1.2065574 1.3573771 4.0721311 2.7147541 4.5245901.7540984.3016394-2.7147541.9049181-3.7704918-.3016393-.904918-1.2065574-2.7147541-2.2622951-3.4688524-3.4688525-.6032787-1.0557377-1.6590164-3.1672131-2.2622951-4.2229508l-.7540984 4.0721312c1.0557377 4.2229508.4524591 5.2786885-.452459 8.7475409-.452459 1.5081968-3.4688524-5.5803278-3.4688524-6.0327868 0-1.5081968-.1508197-2.1114754-.4524591-3.4688525-.6032786-1.2065574-.6032786-3.0163934-.452459-4.3737705.1508197-2.2622951.1508197-6.4852459.1508197-7.5409836-.7540984-1.8098361-2.7147541-5.2786885-2.8655738-7.2393443-.3016393-3.0163934.1508197-6.0327868-.1508196-8.8983606-.4524591 1.5081967-1.0557377 3.3180328-2.2622951 4.5245901-1.6590164 1.6590164-3.3180328 3.6196722-4.8262295 5.4295082-.6032787.7540984 0 1.2065574-.9049181 2.4131148-.904918 1.2065574-.452459.6032787-.6032786 1.8098361 0 .1508196-.1508197.3016393-.1508197.452459-.452459.1508197-.9049181.452459-1.6590164.1508197-1.2065574-.6032787-1.3573771-1.6590164-1.5081967-2.8655738-.1508197-2.2622951 1.5081967-2.4131148 2.5639344-3.7704918 1.9606557-2.7147541 2.8655738-7.390164 4.9770492-9.5016394.1508196-.452459.6032787-1.9606557 1.5081967-4.0721311 0-2.7147541.7540984-5.1278689 3.4688525-6.3344262 1.2065573-.4524591 2.714754-.6032787 2.714754-2.1114755 0-.1508196 0-.75409831-.1508196-.90491798-.452459-.30163935-.7540984-.45245902-1.0557377-.60327869-.3016394-.60327869-.7540984-4.37377049-.7540984-4.52459017.6032787-3.16721311 2.2622951-4.22295082 4.0721312-4.22295082 2.4131147.15081968 4.2229508 1.20655738 4.2229508 4.22295082-.1508197 2.41311476-2.7147541 5.73114754 1.2065574 6.93770494 1.5081967.452459 1.809836.1508197 3.0163934 1.357377 1.357377 1.3573771 1.8098361 3.9213115 1.9606557 6.3344263l1.5081968 3.3180327c2.5639344 4.3737705 1.6590164 5.8819673 2.7147541 10.4065574.3016393 1.2065574.7540983 2.2622951.7540983 4.8262295-.1508197 1.0557377-1.0557377 3.7704918-2.4131147 3.9213115z" fill="#fab650" fill-rule="nonzero"/><path d="m25.7901639 38.3081967c.1508197-1.2065574 0-1.0557377.7540984-2.1114754s.3016393-1.5081967 1.0557377-2.4131147c1.5081967-1.9606558 3.0163934-3.7704918 4.6754098-5.5803279 1.2065574-1.2065574 2.7147541-5.1278689 3.0163935-6.4852459 0-.1508197.1508197-.3016394.3016393-.1508197.3016394 2.5639344.6032787 4.8262295.452459 7.3901639-.1508196 5.4295082 0 4.8262296 2.2622951 9.9540984.1508197-1.9606557.6032787-4.9770492 1.8098361-6.0327869-1.3573771 5.2786885-1.5081967 12.8196722-1.6590164 15.0819672 0 1.2065574-.452459 3.0163935.1508197 4.0721312.1508196.7540983.1508196 1.8098361.1508196 2.7147541v9.2l-.7540983 3.9213115c-.3016394 1.2065573-1.8098361 3.1672131-2.8655738 3.7704918-.3016393.1508196-1.2065574.6032787-1.2065574 1.0557377 0 .6032787 4.0721312 1.809836 5.1278689.452459.7540983-1.0557377 1.357377-1.6590164 2.1114754-2.5639344 1.357377-1.2065574-.1508197-2.5639345 0-4.2229509.3016393-2.8655737 1.5081967-5.4295082 1.9606557-8.2950819.3016394-1.6590164.1508197-3.1672131-.6032787-4.9770492l.6032787-5.2786885c.6032787.904918 1.2065574 2.4131147 1.8098361 3.6196721 1.0557377 2.1114754 1.0557377 2.4131148 2.8655738 4.0721311.6032787.6032787 1.2065573 1.3573771 1.6590164 1.9606558.904918 1.357377 1.357377 2.7147541 1.357377 4.2229508-.6032787 1.0557377-.904918 1.0557377-1.6590164 1.6590164 0 0-.1508197.6032787.6032787.6032787 2.7147541 0 2.4131148-1.3573771 3.3180328-3.1672131.6032787-1.2065574 2.5639344-3.0163935.452459-3.6196722-.6032787-.1508196-1.2065574-.6032787-1.6590164-1.2065573-1.357377-2.4131148-1.5081967-2.2622951-2.2622951-4.5245902-.452459-1.3573771-1.357377-2.4131148-2.4131147-3.3180328-.6032787-1.5081967-.9049181-2.5639344-1.2065574-4.2229508-.3016393-2.1114754-.452459-3.7704918-.904918-5.8819672 1.0557377-4.0721312 1.5081967-4.9770492-.1508197-9.0491804-.452459-.904918-.6032787-1.9606557-.6032787-3.0163934 0-1.357377.7540984-4.3737705 1.5081967-5.8819672.3016394-.6032787.6032787-1.2065574 1.0557377-1.3573771.452459 1.6590164 1.9606558 4.9770492 2.7147541 5.7311476 0 .6032787 0 1.357377.3016394 1.9606557 1.0557377 2.5639344 2.7147541 4.9770492 3.4688524 7.6918033.3016394.904918-.1508196 1.3573771-.3016393 2.1114754-.1508197.3016394-.1508197 1.3573771 0 2.2622951l.3016393.1508197c0 .3016393-.3016393.904918-.3016393 1.2065573 0 .3016394.452459.6032787.452459.6032787.6032787-.1508196 1.5081967-2.2622951 1.3573771-3.1672131-.1508197-2.7147541-.6032787-3.7704918-.7540984-4.6754098-.904918-4.5245902-.3016393-5.7311476-2.8655738-10.1049181l-1.5081967-3.1672131c-.1508197-1.809836-.904918-5.8819672-3.1672131-6.6360655-.452459-.1508197-.7540984-.1508197-1.3573771-.3016394-3.0163934-1.0557377-3.0163934-3.31803277-2.262295-5.8819672.7540983-2.26229508.7540983-4.97704918-2.5639345-5.12786885-2.1114754-.15081967-2.7147541 1.50819672-3.1672131 3.31803279 0 .15081967.1508197 3.16721311.6032787 3.92131147.904918.60327869 1.3573771.45245902 1.3573771 2.11147539 0 1.3573771-.9049181 2.2622951-2.1114755 2.5639344-1.9606557.7540984-2.8655737 1.0557378-3.6196721 3.0163935-.1508197.6032787-.452459 1.5081967-.452459 2.8655738v.1508196c-.6032787 1.3573771-1.2065574 3.0163935-1.6590164 4.3737705-2.4131148 2.4131148-3.6196721 7.842623-6.0327869 10.1049181-1.6590164 1.5081967-2.1114754 1.6590164-1.5081967 3.9213114 0 .3016394.7540984.9049181 1.0557377.9049181.1508197.1508196.904918-.3016394.904918-.3016394z" fill="url(#c)" fill-rule="nonzero"/></g></svg>