<?xml version="1.0" encoding="utf-8"?>
<!-- Generator: Adobe Illustrator 22.1.0, SVG Export Plug-In . SVG Version: 6.00 Build 0)  -->
<svg version="1.1" id="Layer_2" xmlns="http://www.w3.org/2000/svg" xmlns:xlink="http://www.w3.org/1999/xlink" x="0px" y="0px"
	 viewBox="0 0 322.9 77.5" style="enable-background:new 0 0 322.9 77.5;" xml:space="preserve">
<style type="text/css">
	.st0{fill:#2D2C86;}
	.st1{fill-rule:evenodd;clip-rule:evenodd;fill:#FFFFFF;}
	.st2{fill-rule:evenodd;clip-rule:evenodd;fill:#A81815;}
	.st3{opacity:0.45;fill:#4F2644;}
	.st4{fill:url(#SVGID_1_);}
	.st5{fill:url(#SVGID_4_);}
	.st6{fill-rule:evenodd;clip-rule:evenodd;fill:#C51A1B;}
	.st7{fill-rule:evenodd;clip-rule:evenodd;fill:#C8411B;}
	.st8{fill-rule:evenodd;clip-rule:evenodd;fill:#C00D0D;}
	.st9{fill-rule:evenodd;clip-rule:evenodd;fill:#CA581A;}
	.st10{fill-rule:evenodd;clip-rule:evenodd;fill:#B6110E;}
	.st11{fill:#FAB650;}
	.st12{fill:url(#SVGID_5_);}
</style>
<path class="st0" d="M217.5,46c-1,6.4-4.3,9.7-8.2,9.7c-2.5,0-3.9-1.8-3.5-4.5l1.4-8.6c0.5-3.2,2.5-5.7,5.9-5.7
	C216.7,36.9,218.5,39.5,217.5,46z M203.9,58.7c0.5,0,1.8,2.2,6,2.2c8.8,0,13.9-6.4,15.3-14.7c1.8-10.2-3.2-14.8-9.4-14.8
	c-2.9,0-5.1,0.3-6.7,1.1l2.4-14h-7.4l-7.3,41.9h5.5C202.3,60.5,203.1,58.7,203.9,58.7L203.9,58.7z M282.2,40.9
	c1.1-6.3-1.2-9.4-8.1-9.4c-5.1,0-7.1,2.3-9,4.2l0.2-3.5l-6.8,0l-0.5,5.2l-3.9,23.1h7.5l2.4-15c0.9-5.2,4.4-9.1,7.8-9.1
	c3.7,0,3.7,2.1,3.1,5.4l-3.2,18.7h7.4L282.2,40.9z M313.2,31.5h-8.7l-10,10.6l-0.1,0l4-23.4h-7.2l-7.3,41.8h7.4l0.7-4.2l1.5-9.2
	c3.9,0,6.1,0.4,7.8,8.2l1.2,5.2h7.5c0,0-1.9-7.9-3.1-11c-1.3-3.3-2.7-5.4-5.7-6L313.2,31.5z M99.6,41.8c5.4-1.2,8.2-5.5,8.9-8.4
	c1.9-7.8-1.5-13.9-11.5-13.8l-11.4,0l-7.1,40.8H86L89,44.1c6.8-0.2,7.7,1.5,9,9.4l1.2,7h7.7c-0.9-4.2-1.5-8.2-2.2-11.4
	c-0.8-3.4-2-6-5.2-7.2L99.6,41.8z M101.1,32c-0.6,3.6-3.4,6.2-6.9,6.2h-4.4l2.3-12.9l4,0C100.8,25.3,101.7,28.4,101.1,32z
	 M134.6,39.7c1.1-6.2-2.2-8.3-8.9-8.3c-8.3,0-11.9,3.9-11.9,3.9l2.6,4.3c0,0,2.7-3.1,8.1-3.1c3,0,3.1,1.5,2.8,3.1l-0.6,3.7
	c-10.7-0.3-16.2,2-17.4,9.1c-1,5.8,3.3,8.5,8.2,8.5c2.5,0,4.5-0.4,7-2.5c0.5,1.4,1.3,2.1,2.3,2.3c1.5,0.3,4.2,0,5-0.6
	c-0.1-0.9,0-3,0.9-8.2L134.6,39.7z M125.8,47.3c-1.2,8.4-2.3,9.3-6.4,9.3c-2.8,0-3.8-1.9-3.3-4.4C116.8,48.7,119.4,47.3,125.8,47.3z
	 M252.2,39.7c1.1-6.2-2.2-8.3-8.9-8.3c-8.3,0-11.9,3.9-11.9,3.9l2.6,4.3c0,0,2.7-3.1,8.1-3.1c3,0,3.1,1.5,2.8,3.1l-0.6,3.7
	c-10.7-0.3-16.2,2-17.4,9.1c-1,5.8,3.3,8.5,8.2,8.5c2.5,0,4.5-0.4,7-2.5c0.5,1.4,1.3,2.1,2.3,2.3c1.5,0.3,4.2,0,5-0.6
	c-0.1-0.9,0-3,0.9-8.2L252.2,39.7z M243.4,47.3c-1.2,8.4-2.3,9.3-6.4,9.3c-2.8,0-3.8-1.9-3.3-4.4C234.3,48.7,236.9,47.3,243.4,47.3z
	 M149.5,61c8.8,0,13.9-6.4,15.3-14.7c1.8-10.2-3.2-14.8-9.4-14.8c-2.9,0-5,0.3-6.7,1.1l2.4-14h-7.4l-7.3,41.9h5.5
	c0,0,0.8-1.7,1.6-1.7C144.1,58.7,145.3,61,149.5,61z M152.6,36.9c3.8,0,5.4,2.6,4.5,9.1c-0.9,6.7-4.3,9.7-8.3,9.7
	c-2.5,0-3.9-1.8-3.5-4.5l1.4-8.6C147.3,39.4,149.2,36.9,152.6,36.9L152.6,36.9z M167.9,48.6c1.1-10.7,5.9-17.3,17.4-17.3
	c8.5,0,11.3,6.5,10.1,13.4c-1.8,11.1-6.2,16.4-17,16.4C171.4,61.1,167.2,55.4,167.9,48.6z M187.7,45.3c0.5-2.9,1.1-8.7-3.9-8.7
	c-3.4,0-6.6,2.3-8,10.4c-0.9,4.9,0.1,8.9,4,8.9C182.6,55.9,186.2,53.5,187.7,45.3z"/>
<g>
	<path class="st1" d="M59,54.7c0.1,0.1,0.3,0.2,0.4,0.3c-0.1,0.1-0.1,0.2-0.2,0.3c-1.3-0.2-2.6-0.3-3.9-0.5
		c-0.1-0.1-0.3-0.3-0.4-0.4c0.1-0.1,0.2-0.2,0.2-0.2C56.4,54.3,57.7,54.5,59,54.7z"/>
	<g>
		<path class="st2" d="M58.9,54.8c0.1,0.1,0.3,0.2,0.3,0.2c0,0,0-0.1,0.1-0.1c-0.1-0.1-0.3-0.2-0.4-0.3c-1.3-0.2-2.6-0.3-3.9-0.5
			c-0.1,0.1-0.2,0.2-0.2,0.2c0,0,0.1,0,0.1,0.1c0,0,0.1-0.1,0.1-0.1C56.4,54.5,57.6,54.7,58.9,54.8z"/>
	</g>
	<path class="st3" d="M56.4,52.5c-0.3,0-0.7,0.1-0.7,0.1l-0.9,0.5c-0.1,0.2,0.3,0.4,0.3,0.4s1.1,0.1,1.1,0.4
		c0.8,0.4,2.5,0.5,3.3,0.5v0c-0.1-0.3-0.2-0.6-0.4-0.9c-0.1-0.3-0.3-0.6-0.4-0.8l0,0C58.7,52.6,58.1,52.5,56.4,52.5z"/>
	<g>
		<g>
			<linearGradient id="SVGID_1_" gradientUnits="userSpaceOnUse" x1="9.0961" y1="61.9162" x2="60.8689" y2="61.9162">
				<stop  offset="0" style="stop-color:#CA581A"/>
				<stop  offset="1" style="stop-color:#6E2E2B"/>
			</linearGradient>
			<path class="st4" d="M56.6,49.3c1.1,1.1,2,2.3,2.6,3.6c2,4.1,1.3,8.6-2.7,12.5c-4.6,4.5-12.4,7.3-21.5,7.3
				c-9.1,0-16.9-2.8-21.5-7.3c-4-3.9-4.7-8.4-2.7-12.5c0.6-1.3,1.5-2.5,2.6-3.6c-1.3,1.2-2.3,2.3-3.2,4.2c-2,3.9-1.3,9.5,2.8,13.6
				c4.7,4.6,12.1,7.4,22.1,7.4c10.1,0,17.4-2.9,21.9-7.4c4.4-4.4,4.6-10.2,2.8-13.7C59,51.9,58,50.6,56.6,49.3z"/>
		</g>
		<g>
			<defs>
				<path id="SVGID_2_" d="M49.2,44.6C45,42.8,40,41.9,35,41.9c-5,0-10,0.9-14.2,2.7c-4.7,1.9-8.3,4.8-10,8.3
					c-2,4.1-1.3,8.6,2.7,12.5c4.6,4.5,12.4,7.3,21.5,7.3c9.1,0,16.9-2.8,21.5-7.3c4-3.9,4.7-8.4,2.7-12.5
					C57.5,49.4,53.9,46.5,49.2,44.6z"/>
			</defs>
			<use xlink:href="#SVGID_2_"  style="overflow:visible;fill:#EE7203;"/>
			<clipPath id="SVGID_3_">
				<use xlink:href="#SVGID_2_"  style="overflow:visible;"/>
			</clipPath>
		</g>
		<g>
			<linearGradient id="SVGID_4_" gradientUnits="userSpaceOnUse" x1="4.8264" y1="57.4123" x2="36.8244" y2="51.7702">
				<stop  offset="0" style="stop-color:#FFE07D"/>
				<stop  offset="1" style="stop-color:#EE7203"/>
			</linearGradient>
			<path class="st5" d="M35.8,46.6c-0.8-1.7-0.7-3.3-0.5-4.6c-0.1,0-0.2,0-0.3,0c-5,0-10,0.9-14.2,2.7c-4.7,1.9-8.3,4.8-10,8.3
				c-2,4.1-1.3,8.6,2.7,12.5c0.3,0.3,0.6,0.5,0.9,0.8C31.3,65.2,40.1,55.3,35.8,46.6z"/>
		</g>
		<path class="st1" d="M24.1,46.9c3.1,0.8,6.1,1.7,9.2,2.9c0.6-1.8,1.2-3.6,2-5.4c0.7,1.8,1.4,3.6,2,5.4c3-1.1,6-2,9.1-2.8
			c-2.2,1.4-4.2,2.8-6.2,4.4c4.2,0.5,8,1.2,12.1,2.1c-4.1-0.1-7.9,0.1-12,0.3c2.9,2.4,5.3,4.8,8,7.4c-3.7-2.1-7.1-3.8-10.9-5.6
			c-0.7,3.2-1.4,6.4-2.1,9.6c-0.7-3.2-1.3-6.2-2-9.4c-3.8,1.8-7.3,3.5-11.1,5.5c2.7-2.6,5.2-4.9,8.1-7.4c-4.1-0.3-8-0.3-12.1-0.4
			c4.1-0.9,8.1-1.6,12.3-2.1C28.3,49.7,26.3,48.2,24.1,46.9z M35.2,52.4c0-2.3,0-4.7,0-7c-0.7,2-1.3,3.9-1.9,5.9
			C34,51.7,34.6,52.1,35.2,52.4z M25.9,47.6c2.5,1.1,5,2.4,7.4,3.7c-0.6,0.1-1.2,0.1-1.8,0.2C29.7,50.2,27.9,48.8,25.9,47.6z
			 M35.2,52.4c4.8,0,9.7,0.2,14.5,0.7c-4.2-0.8-8.3-1.3-12.6-1.8C36.5,51.7,35.9,52.1,35.2,52.4z M44.6,47.6c-2.5,1.1-5,2.4-7.4,3.7
			c-0.1-0.3-0.2-0.7-0.3-1C39.4,49.3,42,48.4,44.6,47.6z M35,52.4c0.1,3.4,0.2,7,0.3,10.3c0.6-3,1.3-6.1,2-9.1
			C36.6,53.2,35.7,52.8,35,52.4z M45.9,59.4c-2.8-2-5.7-4-8.7-5.8c0.6,0,1.2-0.1,1.8-0.1C41.4,55.4,43.7,57.4,45.9,59.4z M35.2,52.4
			c-4.9,0.1-8.7,0.3-13.5,0.7c4.1,0,7.3,0.2,11.5,0.5C33.9,53.2,34.6,52.8,35.2,52.4z M24.6,59.4c2.8-2,5.7-4,8.7-5.8
			c0.1,0.4,0.2,0.8,0.3,1.1C30.5,56.2,27.5,57.8,24.6,59.4z"/>
		<path class="st6" d="M35.2,44.5c0.7,1.8,1.4,3.6,2,5.4c2.9-1.1,5.8-2,8.8-2.7c0.1-0.1,0.2-0.1,0.3-0.2c-3.1,0.8-6.1,1.7-9.1,2.8
			c-0.6-1.8-1.2-3.6-2-5.4c-0.7,1.8-1.4,3.6-2,5.4c-3-1.1-6-2.1-9.2-2.9c0.1,0.1,0.2,0.1,0.3,0.2c3,0.8,5.9,1.7,8.9,2.8
			C33.9,48,34.5,46.2,35.2,44.5z"/>
		<path class="st7" d="M30.2,53.8c-2.8,2.4-5.4,4.8-8.1,7.4c0.1-0.1,0.3-0.2,0.4-0.2c2.6-2.5,4.9-4.6,7.6-7V53.8z"/>
		<polygon class="st8" points="35.2,52.5 35.2,52.5 35.2,52.5 		"/>
		<polygon class="st8" points="35.2,52.4 35.2,52.4 35.2,52.4 		"/>
		<path class="st8" d="M35.2,52.4L35.2,52.4c0,0,0,0.1,0,0.1l0,0C35.2,52.5,35.2,52.5,35.2,52.4z"/>
		<path class="st8" d="M35.1,52.5C35.1,52.5,35.1,52.5,35.1,52.5c-0.7,0.4-1.3,0.8-1.9,1.1l0,0.1c0.6-0.4,1.3-0.8,1.9-1.2v-0.1
			C35.2,52.5,35.2,52.5,35.1,52.5z"/>
		<polygon class="st8" points="35.2,52.5 35.2,52.5 35.2,52.5 		"/>
		<polygon class="st8" points="35.2,52.4 35.2,52.4 35.2,52.4 		"/>
		<path class="st7" d="M33.3,51.3c-0.1,0-0.1,0-0.2,0c-0.5,0.1-1.1,0.1-1.6,0.2c-1.8-1.4-3.7-2.7-5.6-3.9v0.1
			c1.9,1.2,3.8,2.5,5.6,3.9c0.6-0.1,1.2-0.1,1.8-0.2c0.6,0.3,1.1,0.6,1.7,1c0.1,0,0.2,0,0.2,0C34.6,52.1,33.9,51.7,33.3,51.3z"/>
		<path class="st7" d="M24.6,59.6c2.9-1.7,5.9-3.2,9-4.7v-0.2c-3,1.5-6,3-9,4.7V59.6z"/>
		<path class="st2" d="M37.2,53.6c-0.7,3-1.4,6.1-2,9.1v0.1c0.6-3,1.3-6.1,2-9.1c2,1.2,5,3.2,8.7,5.9v-0.2
			C43.1,57.4,40.2,55.4,37.2,53.6z"/>
		<path class="st2" d="M40.4,53.9l-0.1-0.1v0.2c2.8,2.3,5,4.4,7.6,7c0.1,0.1,0.3,0.2,0.4,0.2C45.6,58.5,43.1,56.2,40.4,53.9z"/>
		<path class="st7" d="M30.2,51.4c-4.1,0.5-8.1,1.2-12.2,2.1c0.2,0,0.4,0,0.6,0c3.9-0.8,7.7-1.5,11.6-2v-0.1L30.2,51.4z"/>
		<path class="st7" d="M33.3,53.6c-3.8-0.3-7.6-0.5-11.5-0.5v0.1c3.8,0,7.5,0.2,11.3,0.5C33.2,53.7,33.2,53.7,33.3,53.6"/>
		<path class="st2" d="M40.1,51.3c4.2,0.5,8,1.2,12.1,2.1c-0.2,0-0.5,0-0.7,0c-3.9-0.8-7.5-1.4-11.4-1.9V51.3z"/>
		<path class="st2" d="M35.2,52.4c4.8,0,9.7,0.2,14.5,0.7v0.1c-4.8-0.5-9.5-0.7-14.3-0.7c0,0-0.1,0-0.1-0.1
			C35.3,52.5,35.3,52.5,35.2,52.4c0.1,0,0.1,0,0.2,0"/>
		<path class="st2" d="M37.2,51.3c0.1,0,0.1,0,0.2,0c2.3-1.3,4.7-2.5,7.2-3.6v-0.1C42,48.7,39.6,50,37.2,51.3"/>
		<path class="st8" d="M37.2,51.3c-0.1-0.3-0.2-0.7-0.3-1v0.1C37,50.7,37.1,51,37.2,51.3C37.2,51.3,37.2,51.3,37.2,51.3"/>
		<path class="st1" d="M35.7,71.8c-0.1,0.1-0.3,0.2-0.5,0.3c-0.1-0.1-0.3-0.2-0.5-0.3c0-1.3,0-2.6,0-4c0.1-0.1,0.3-0.2,0.5-0.3
			c0.1,0.1,0.3,0.2,0.5,0.3C35.7,69.1,35.7,70.4,35.7,71.8z"/>
		<path class="st1" d="M12.2,62.2c-0.1,0.1-0.2,0.3-0.2,0.4c0.1,0.1,0.4,0.1,0.5,0.2c1.4-0.7,2.8-1.5,4.1-2.2
			c0.1-0.2,0.1-0.3,0.1-0.5c-0.1,0-0.3-0.1-0.4-0.1C15,60.7,13.6,61.5,12.2,62.2z"/>
		<path class="st1" d="M11.2,54.1c-0.1,0.1-0.3,0.2-0.4,0.3c0.1,0.1,0.1,0.2,0.2,0.3c1.3-0.2,2.6-0.3,3.9-0.5
			c0.1-0.1,0.3-0.3,0.4-0.4c-0.1-0.1-0.2-0.2-0.2-0.2C13.8,53.7,12.5,53.9,11.2,54.1z"/>
		<path class="st1" d="M16.2,47.5c-0.1,0.1-0.3,0.1-0.4,0.2c0,0.1,0,0.2,0,0.3c1,0.1,1.9,0.3,2.9,0.5c0.1-0.1,0.3-0.2,0.4-0.2
			c0-0.1,0-0.2,0-0.2C18.1,47.8,17.1,47.7,16.2,47.5z"/>
		<path class="st1" d="M45.3,43.5c0.1,0,0.2,0,0.4,0c0,0,0.1,0.1,0.1,0.1c-0.5,0.3-1,0.6-1.5,1c-0.1,0-0.3,0-0.4,0
			c0-0.1-0.1-0.1-0.1-0.2C44.3,44.1,44.8,43.8,45.3,43.5z"/>
		<path class="st1" d="M34.9,42.1c0.1,0,0.2-0.1,0.3-0.1c0.1,0,0.2,0.1,0.3,0.1c0,0.4,0,0.8,0,1.2c-0.1,0-0.2,0.1-0.3,0.1
			c-0.1,0-0.2-0.1-0.3-0.1C34.9,42.9,34.9,42.5,34.9,42.1z"/>
		<path class="st1" d="M24.5,43.7c0,0,0.2-0.1,0.2-0.2c0.1,0,0.2,0,0.4,0c0.5,0.3,1,0.6,1.5,1c0,0.1-0.1,0.1-0.1,0.2
			c-0.1,0-0.3,0-0.4,0C25.5,44.3,25,44,24.5,43.7z"/>
		<path class="st1" d="M21.5,69.3c-0.2,0-0.4,0-0.6,0.1c0-0.1-0.1-0.3-0.2-0.4c1-1.2,1.9-2.3,2.9-3.4c0.2,0,0.4-0.1,0.6-0.1
			c0,0.1,0.1,0.3,0.2,0.4C23.4,67,22.4,68.2,21.5,69.3z"/>
		<path class="st1" d="M57.9,62.2c0.1,0.1,0.2,0.3,0.2,0.4c-0.1,0.1-0.4,0.1-0.5,0.2c-1.4-0.7-2.8-1.5-4.1-2.2
			c-0.1-0.2-0.1-0.3-0.1-0.5c0.1,0,0.3-0.1,0.4-0.1C55.2,60.7,56.6,61.5,57.9,62.2z"/>
		<path class="st1" d="M54,47.5c0.1,0.1,0.3,0.1,0.4,0.2c0,0.1,0,0.2,0,0.3c-1,0.1-1.9,0.3-2.9,0.5c-0.1-0.1-0.3-0.2-0.4-0.2
			c0-0.1,0-0.2,0.1-0.2C52.1,47.8,53,47.7,54,47.5z"/>
		<path class="st1" d="M48.7,69.3c0.2,0,0.4,0.1,0.6,0.1c0.1-0.1,0.1-0.3,0.2-0.4c-1-1.2-1.9-2.3-2.9-3.4c-0.2,0-0.4-0.1-0.6-0.1
			c0,0.1-0.1,0.3-0.2,0.4C46.8,67,47.8,68.2,48.7,69.3z"/>
		<g>
			<path class="st9" d="M12.2,62.4c0,0.1-0.1,0.2-0.1,0.2c0,0-0.1,0-0.1,0c0.1-0.1,0.2-0.3,0.2-0.4c1.4-0.7,2.8-1.4,4.1-2.1
				c0.1,0,0.3,0.1,0.4,0.1c0,0.1-0.1,0.2-0.1,0.2c-0.1,0-0.3-0.1-0.4-0.1C15,61,13.6,61.7,12.2,62.4z"/>
		</g>
		<g>
			<path class="st9" d="M11.3,54.3c-0.1,0.1-0.3,0.2-0.3,0.2c0,0,0-0.1-0.1-0.1c0.1-0.1,0.3-0.2,0.4-0.3c1.3-0.2,2.6-0.3,3.9-0.5
				c0.1,0.1,0.2,0.2,0.2,0.2c0,0,0,0-0.1,0.1c0,0-0.1-0.1-0.1-0.1C13.8,53.9,12.6,54.1,11.3,54.3z"/>
		</g>
		<g>
			<path class="st9" d="M15.8,47.9c0-0.1,0-0.1,0-0.2c0.1-0.1,0.3-0.1,0.4-0.2c1,0.1,1.9,0.3,2.8,0.5c0,0.1,0,0.2,0,0.2
				c0,0-1.9-0.4-2.9-0.5C16.1,47.8,15.9,47.8,15.8,47.9z"/>
		</g>
		<g>
			<path class="st2" d="M45.6,43.7C45.7,43.7,45.7,43.7,45.6,43.7c0.1,0,0.1,0,0.1-0.1c0,0-0.1-0.1-0.1-0.1c-0.1,0-0.2,0-0.4,0
				c-0.5,0.3-1,0.6-1.5,1c0,0,0.1,0.1,0.1,0.1c0.5-0.3,0.9-0.6,1.4-0.9C45.4,43.7,45.5,43.7,45.6,43.7z"/>
		</g>
		<g>
			<path class="st10" d="M34.9,42.3c0.1,0,0.2-0.1,0.3-0.1c0.1,0,0.2,0.1,0.3,0.1v-0.2c-0.1,0-0.2-0.1-0.3-0.1
				c-0.1,0-0.2,0.1-0.3,0.1V42.3z"/>
		</g>
		<g>
			<path class="st7" d="M25.1,43.7c0.5,0.3,0.9,0.6,1.4,0.9c0,0,0.1-0.1,0.1-0.1c-0.5-0.3-1-0.7-1.5-1c-0.1,0-0.2,0-0.4,0
				c0,0-0.2,0.1-0.2,0.2c0,0,0.1,0.1,0.1,0.1c0,0,0.1-0.1,0.1-0.1C24.8,43.7,24.9,43.7,25.1,43.7z"/>
		</g>
		<g>
			<path class="st2" d="M24.2,65.6c0.1,0.1,0.1,0.2,0.2,0.3c0,0,0,0,0.1-0.1c0-0.1-0.1-0.3-0.2-0.4c-0.2,0-0.4,0.1-0.6,0.1
				c-1,1.1-2,2.3-2.9,3.4c0,0.1,0.1,0.1,0.1,0.2c0.6-0.7,2-2.3,2.9-3.5C23.8,65.7,24,65.7,24.2,65.6z"/>
		</g>
		<g>
			<path class="st2" d="M57.9,62.4c0,0.1,0.1,0.2,0.1,0.2c0,0,0.1,0,0.1,0c-0.1-0.1-0.2-0.3-0.2-0.4c-1.4-0.7-2.8-1.4-4.1-2.1
				c-0.1,0-0.3,0.1-0.4,0.1c0,0.1,0.1,0.2,0.1,0.2c0.1,0,0.3-0.1,0.4-0.1C55.2,61,56.6,61.7,57.9,62.4z"/>
		</g>
		<g>
			<path class="st2" d="M54.4,47.9c0-0.1,0-0.1,0-0.2c-0.1-0.1-0.3-0.1-0.4-0.2c-1,0.1-1.9,0.3-2.8,0.5c0,0.1,0,0.2-0.1,0.2
				c0,0,1.9-0.4,2.9-0.5C54.1,47.8,54.3,47.8,54.4,47.9z"/>
		</g>
		<g>
			<path class="st2" d="M46,65.6c-0.1,0.1-0.1,0.2-0.2,0.3c0,0,0,0-0.1-0.1c0-0.1,0.1-0.3,0.2-0.4c0.2,0,0.4,0.1,0.6,0.1
				c1,1.1,2,2.3,2.9,3.4c0,0.1,0,0.1-0.1,0.2c-0.6-0.7-2-2.3-2.9-3.5C46.4,65.7,46.2,65.7,46,65.6z"/>
		</g>
		<path class="st2" d="M35.6,67.9l0.1,3.8l0-4c-0.1-0.1-0.3-0.2-0.5-0.3c-0.1,0.1-0.3,0.2-0.5,0.3l0,4l0.1-3.8
			c0.1-0.1,0.3-0.2,0.4-0.2C35.4,67.8,35.5,67.9,35.6,67.9z"/>
		<path class="st7" d="M16.1,53.7c1.7-7.7,12.4-10,19.1-10c6.7,0,17.4,2.3,19.1,10c2.1,9.6-12.1,13.1-19.1,13.1
			C28.2,66.8,13.9,63.2,16.1,53.7z M16.8,53.6c1.6-7.4,11.9-9.6,18.4-9.6c6.4,0,16.8,2.2,18.4,9.6c2,9.2-11.7,12.6-18.4,12.6
			C28.5,66.2,14.8,62.8,16.8,53.6z"/>
		<path class="st1" d="M16.1,53.9c1.7-7.7,11.9-10,19.1-10c7.1,0,17.4,2.3,19.1,10C56.4,63.5,42.1,67,35.2,67
			C28.3,67,14,63.5,16.1,53.9z M16.8,53.8c1.6-7.4,11.9-9.6,18.4-9.6c6.4,0,16.8,2.2,18.4,9.6c2,9.2-11.7,12.6-18.4,12.6
			C28.6,66.4,14.8,63,16.8,53.8z"/>
		<path class="st3" d="M58,55.5L54.9,55l-0.4-0.1c-0.5-0.1-1.5-0.7-2-1.3C52,52.9,51,51.7,50.4,51c-0.8-1-2.6-1.9-2.9-2.3
			c-0.3-0.4-0.7-1.1-0.8-1.4c-0.1-0.3-0.4-0.5-0.9-0.5c-0.5,0-0.5,0.2-0.9,0.2c-0.4,0-1-0.1-1-0.1c-0.2-0.1-0.4-0.1-0.6-0.1
			c-0.2,0.4-0.6,0.7-1.6,0.7c-0.1,0-0.1,0-0.2,0c0.1,0.2,1,0.3,1.1,0.3c0.1,0,1,0.2,1.1,0.3c0.4,0.1,0.3-0.1,0.9,0.3
			c1,0.6,2.5,2.2,2.8,3.5c0.2,0.8,1.5,2,1.6,2.7c-1.7-0.1-4.1-1.3-4.1-1.3l-0.3-0.1c0,0-1-0.5-2.6-0.6c-3-0.3-4.1-0.7-4.4-0.8
			c-0.6-0.2-0.5-0.3-1-0.3c-0.1,0-0.2,0-0.3,0c-0.1,0.1-0.1,0.2-0.3,0.3c-0.6,0.5-0.9,0.9-1.4,1.7c-0.1,0.2-0.3,0.3-0.6,0.4
			c0.6-0.1,1.7-0.4,1.7-0.4c1.1-0.1,2.7,0.3,2.7,0.3c0.6,0.1,1.6,0.5,1.6,0.5s4.3,1.3,5.3,2.1c0.7,0.5,4.2,1.8,5.2,2.2
			c0.9,0.3,3.2,1.6,3.2,1.6c0.6,0.5,4,2,5,2.3c1.2-2.1,1.6-4.3,1.3-6.4l0,0L58,55.5z"/>
		<path class="st3" d="M50,62.4c0,0-0.2-0.3-1.3-0.3c-0.7,0,0.3,1.6,0.3,1.6c0.6,0.4,2.9,1.1,3.3,1.1c0.5,0.1,2,0.5,2,0.5
			s0.8,0.1,1.7,0.4c0.1-0.1,0.3-0.2,0.4-0.4c0.5-0.5,0.9-1,1.3-1.5c-1.9,0-4.6-0.1-6.6-1.1C51,62.2,50,62.4,50,62.4z"/>
		<path class="st11" d="M44.3,32.6c0,0-0.6-0.6-0.6-0.6c0-0.2,0.2-0.5,0.2-0.8c-0.1,0-0.1-0.1-0.2-0.1c-0.2-0.6-0.3-1.6,0-2.2
			c0.1-0.3,0.3-0.6,0.2-1c-0.5-1.8-1.6-3.3-2.3-5c-0.2-0.5-0.2-0.8-0.2-1.3c-0.6-0.6-1.2-2.2-1.5-3.2c-0.7,1.7-1.1,3.6-1.1,4
			c0,1.9,1.9,2.8,1.2,5.9c-0.1,0.6-0.4,1.4-0.6,2.3c0.4,2.2,0.4,3.7,1,6.2c0.8,0.8,1.5,1.8,1.8,3.1c0.2,0.8,0.9,2.7,1.8,3
			c0.5,0.2-1.8,0.6-2.5-0.2c-0.6-0.8-1.8-1.5-2.3-2.3c-0.4-0.7-1.1-2.1-1.5-2.8l-0.5,2.7c0.7,2.8,0.3,3.5-0.3,5.8
			c-0.3,1-2.3-3.7-2.3-4c0-1-0.1-1.4-0.3-2.3c-0.4-0.8-0.4-2-0.3-2.9c0.1-1.5,0.1-4.3,0.1-5c-0.5-1.2-1.8-3.5-1.9-4.8
			c-0.2-2,0.1-4-0.1-5.9c-0.3,1-0.7,2.2-1.5,3c-1.1,1.1-2.2,2.4-3.2,3.6c-0.4,0.5,0,0.8-0.6,1.6c-0.6,0.8-0.3,0.4-0.4,1.2
			c0,0.1-0.1,0.2-0.1,0.3C26,31,25.7,31.2,25.2,31c-0.8-0.4-0.9-1.1-1-1.9c-0.1-1.5,1-1.6,1.7-2.5c1.3-1.8,1.9-4.9,3.3-6.3
			c0.1-0.3,0.4-1.3,1-2.7c0-1.8,0.5-3.4,2.3-4.2c0.8-0.3,1.8-0.4,1.8-1.4c0-0.1,0-0.5-0.1-0.6c-0.3-0.2-0.5-0.3-0.7-0.4
			C33.3,10.6,33,8.1,33,8c0.4-2.1,1.5-2.8,2.7-2.8C37.3,5.3,38.5,6,38.5,8c-0.1,1.6-1.8,3.8,0.8,4.6c1,0.3,1.2,0.1,2,0.9
			c0.9,0.9,1.2,2.6,1.3,4.2l1,2.2c1.7,2.9,1.1,3.9,1.8,6.9c0.2,0.8,0.5,1.5,0.5,3.2C45.8,30.7,45.2,32.5,44.3,32.6z"/>
		<linearGradient id="SVGID_5_" gradientUnits="userSpaceOnUse" x1="26.6607" y1="22.1535" x2="45.1886" y2="40.6814">
			<stop  offset="0" style="stop-color:#2D2C86"/>
			<stop  offset="1" style="stop-color:#282674"/>
		</linearGradient>
		<path class="st12" d="M26.1,30.4c0.1-0.8,0-0.7,0.5-1.4c0.5-0.7,0.2-1,0.7-1.6c1-1.3,2-2.5,3.1-3.7c0.8-0.8,1.8-3.4,2-4.3
			c0-0.1,0.1-0.2,0.2-0.1c0.2,1.7,0.4,3.2,0.3,4.9c-0.1,3.6,0,3.2,1.5,6.6c0.1-1.3,0.4-3.3,1.2-4c-0.9,3.5-1,8.5-1.1,10
			c0,0.8-0.3,2,0.1,2.7c0.1,0.5,0.1,1.2,0.1,1.8c0,0.3,0,6.1,0,6.1L34.2,50c-0.2,0.8-1.2,2.1-1.9,2.5c-0.2,0.1-0.8,0.4-0.8,0.7
			c0,0.4,2.7,1.2,3.4,0.3c0.5-0.7,0.9-1.1,1.4-1.7c0.9-0.8-0.1-1.7,0-2.8c0.2-1.9,1-3.6,1.3-5.5c0.2-1.1,0.1-2.1-0.4-3.3l0.4-3.5
			c0.4,0.6,0.8,1.6,1.2,2.4c0.7,1.4,0.7,1.6,1.9,2.7c0.4,0.4,0.8,0.9,1.1,1.3c0.6,0.9,0.9,1.8,0.9,2.8c-0.4,0.7-0.6,0.7-1.1,1.1
			c0,0-0.1,0.4,0.4,0.4c1.8,0,1.6-0.9,2.2-2.1c0.4-0.8,1.7-2,0.3-2.4c-0.4-0.1-0.8-0.4-1.1-0.8c-0.9-1.6-1-1.5-1.5-3
			c-0.3-0.9-0.9-1.6-1.6-2.2c-0.4-1-0.6-1.7-0.8-2.8c-0.2-1.4-0.3-2.5-0.6-3.9c0.7-2.7,1-3.3-0.1-6c-0.3-0.6-0.4-1.3-0.4-2
			c0-0.9,0.5-2.9,1-3.9c0.2-0.4,0.4-0.8,0.7-0.9c0.3,1.1,1.3,3.3,1.8,3.8c0,0.4,0,0.9,0.2,1.3c0.7,1.7,1.8,3.3,2.3,5.1
			c0.2,0.6-0.1,0.9-0.2,1.4c-0.1,0.2-0.1,0.9,0,1.5l0.2,0.1c0,0.2-0.2,0.6-0.2,0.8c0,0.2,0.3,0.4,0.3,0.4c0.4-0.1,1-1.5,0.9-2.1
			c-0.1-1.8-0.4-2.5-0.5-3.1c-0.6-3-0.2-3.8-1.9-6.7L42,17.8c-0.1-1.2-0.6-3.9-2.1-4.4c-0.3-0.1-0.5-0.1-0.9-0.2
			c-2-0.7-2-2.2-1.5-3.9C38,7.8,38,6,35.8,5.9c-1.4-0.1-1.8,1-2.1,2.2c0,0.1,0.1,2.1,0.4,2.6c0.6,0.4,0.9,0.3,0.9,1.4
			c0,0.9-0.6,1.5-1.4,1.7c-1.3,0.5-1.9,0.7-2.4,2c-0.1,0.4-0.3,1-0.3,1.9l0,0.1c-0.4,0.9-0.8,2-1.1,2.9c-1.6,1.6-2.4,5.2-4,6.7
			c-1.1,1-1.4,1.1-1,2.6c0,0.2,0.5,0.6,0.7,0.6C25.6,30.7,26.1,30.4,26.1,30.4z"/>
	</g>
</g>
</svg>
