<svg xmlns="http://www.w3.org/2000/svg" width="640" height="360" viewBox="0 0 640 360">
  <g fill="none" fill-rule="evenodd" transform="translate(90 84.167)">
    <path fill="#89CC53" d="M191.664657,143.341839 C185.637134,146.110329 178.922262,147.652773 171.837279,147.652773 C145.58583,147.652773 124.251571,126.3855 124.251571,100.192953 L124.251571,44.8231632 L145.400774,44.8231632 L145.400774,100.192953 C145.400774,116.200096 157.244328,129.196176 171.837279,129.196176 C179.741794,129.196176 186.826777,125.394117 191.664657,119.369357 L191.664657,143.341839 Z"/>
    <path fill="#238647" d="M21.1492035,0 L21.1492035,52.7410431 C29.978996,46.1151249 40.9765819,42.1865065 52.8730088,42.1865065 C61.4384363,42.1865065 69.5015701,44.2167322 76.6658628,47.8236785 L76.6658628,72.6504375 C70.6119033,65.3020754 61.5970553,60.6431031 51.5511836,60.6431031 C33.3099956,60.6431031 18.5055531,76.0016282 18.5055531,94.9196397 C18.5055531,113.837651 33.3099956,129.196176 51.5511836,129.196176 C61.5970553,129.196176 70.6119033,124.537204 76.6658628,117.188842 L76.6658628,142.015601 C69.5015701,145.622547 61.4384363,147.652773 52.8730088,147.652773 C40.2363597,147.652773 28.6307343,143.220553 19.5365768,135.832641 L18.5055531,145.016116 L0,145.016116 L0,97.5562963 L0.0793095133,97.5562963 C0.0264365044,96.683563 0,95.8029197 0,94.9196397 L0,0 L21.1492035,0 Z"/>
    <path fill="#2F9B47" d="M38.3329314,44.2088222 C42.9593197,42.8931305 47.8236365,42.1865065 52.8730088,42.1865065 C82.0589097,42.1865065 105.746018,65.8162235 105.746018,94.9196397 C105.746018,124.023056 82.0589097,147.652773 52.8730088,147.652773 C47.8236365,147.652773 42.9593197,146.946149 38.3329314,145.630457 L38.3329314,126.340677 C42.3777166,128.17579 46.8454858,129.196176 51.5511836,129.196176 C69.7923717,129.196176 84.5968141,113.837651 84.5968141,94.9196397 C84.5968141,76.0016282 69.7923717,60.6431031 51.5511836,60.6431031 C46.8454858,60.6431031 42.3777166,61.6634893 38.3329314,63.4986023 L38.3329314,44.2088222 Z"/>
    <path fill="#62B64F" d="M76.6658628,47.8236785 C93.9024637,56.5140988 105.746018,74.3484444 105.746018,94.9196397 C105.746018,115.490835 93.9024637,133.325181 76.6658628,142.015601 L76.6658628,117.188842 C81.6094891,111.195721 84.5968141,103.417584 84.5968141,94.9196397 C84.5968141,86.4216953 81.6094891,78.6435581 76.6658628,72.6504375 L76.6658628,47.8236785 Z"/>
    <path fill="#3DB8AD" d="M153.331726,120.895981 C158.090296,126.029552 164.64655,129.196176 171.837279,129.196176 C186.430229,129.196176 198.273783,116.200096 198.273783,100.192953 L198.273783,44.8231632 L219.422987,44.8231632 L219.422987,100.192953 C219.422987,126.3855 198.088728,147.652773 171.837279,147.652773 C165.281026,147.652773 159.015574,146.323898 153.331726,143.92454 L153.331726,120.895981 Z"/>
    <path fill="#3394D7" d="M191.664657,119.369357 C195.788752,114.254243 198.273783,107.541315 198.273783,100.192953 L198.273783,44.8231632 L219.422987,44.8231632 L219.422987,100.192953 C219.422987,119.332444 208.028853,135.837914 191.664657,143.341839 L191.664657,119.369357 Z"/>
    <path fill="#2872BC" d="M306.663451,68.9432983 C301.90488,63.8097278 295.348627,60.6431031 288.157898,60.6431031 C273.564948,60.6431031 261.721394,73.6391838 261.721394,89.6463264 L261.721394,145.016116 L240.57219,145.016116 L240.57219,89.6463264 C240.57219,63.4537791 261.906449,42.1865065 288.157898,42.1865065 C294.714151,42.1865065 300.979603,43.5153815 306.663451,45.914739 L306.663451,68.9432983 Z"/>
    <path fill="#1D5C84" d="M268.33052,46.4974402 C274.358043,43.7289507 281.072915,42.1865065 288.157898,42.1865065 C314.409347,42.1865065 335.743606,63.4537791 335.743606,89.6463264 L335.743606,145.016116 L314.594403,145.016116 L314.594403,89.6463264 C314.594403,73.6391838 302.750849,60.6431031 288.157898,60.6431031 C280.253383,60.6431031 273.1684,64.445162 268.33052,70.4699225 L268.33052,46.4974402 Z"/>
    <path fill="#993233" d="M306.663451,45.914739 C323.741433,53.1207217 335.743606,69.9979609 335.743606,89.6463264 L335.743606,145.016116 L314.594403,145.016116 L314.594403,89.6463264 C314.594403,81.5412438 311.554205,74.206065 306.663451,68.9432983 L306.663451,45.914739 Z"/>
    <path fill="#E13030" d="M421.662245,145.630457 C417.035857,146.946149 412.17154,147.652773 407.122168,147.652773 C377.936267,147.652773 354.249159,124.023056 354.249159,94.9196397 C354.249159,65.8162235 377.936267,42.1865065 407.122168,42.1865065 C412.17154,42.1865065 417.035857,42.8931305 421.662245,44.2088222 L421.662245,63.4986023 C417.61746,61.6634893 413.149691,60.6431031 408.443993,60.6431031 C390.202805,60.6431031 375.398363,76.0016282 375.398363,94.9196397 C375.398363,113.837651 390.202805,129.196176 408.443993,129.196176 C413.149691,129.196176 417.61746,128.17579 421.662245,126.340677 L421.662245,145.630457 Z"/>
    <path fill="#F28825" d="M383.329314,47.8236785 C390.493607,44.2167322 398.556741,42.1865065 407.122168,42.1865065 C419.758817,42.1865065 431.364443,46.6187264 440.4586,54.0066383 L441.489624,44.8231632 L459.995177,44.8231632 L459.995177,92.282983 L459.942304,92.282983 C459.96874,93.1557164 459.995177,94.0363597 459.995177,94.9196397 L459.995177,189.839279 L438.845973,189.839279 L438.845973,137.098236 C430.016181,143.724154 419.018595,147.652773 407.122168,147.652773 C398.556741,147.652773 390.493607,145.622547 383.329314,142.015601 L383.329314,117.188842 C389.383274,124.537204 398.398122,129.196176 408.443993,129.196176 C426.685181,129.196176 441.489624,113.837651 441.489624,94.9196397 C441.489624,76.0016282 426.685181,60.6431031 408.443993,60.6431031 C398.398122,60.6431031 389.383274,65.3020754 383.329314,72.6504375 L383.329314,47.8236785 Z"/>
    <path fill="#F5C836" d="M421.662245,44.2088222 C428.615046,46.1942246 434.986244,49.5665085 440.4586,54.0066383 L441.489624,44.8231632 L459.995177,44.8231632 L459.995177,92.282983 L459.942304,92.282983 C459.96874,93.1557164 459.995177,94.0363597 459.995177,94.9196397 L459.995177,189.839279 L438.845973,189.839279 L438.845973,137.098236 C433.743728,140.916115 427.954134,143.840167 421.662245,145.630457 L421.662245,126.340677 C433.320744,121.046271 441.489624,108.962473 441.489624,94.9196397 C441.489624,80.8768063 433.320744,68.7930089 421.662245,63.4986023 L421.662245,44.2088222 Z"/>
  </g>
</svg>
