<svg xmlns="http://www.w3.org/2000/svg" width="51" height="32" viewBox="0 0 51 32">
  <g fill="none" fill-rule="evenodd">
    <rect width="50" height="31" x=".5" y=".5" fill="#FFF" stroke="#D0D0D0"/>
    <g transform="translate(8 9)">
      <path fill="#89CC53" d="M5.12931034,7.51594828 C4.67068966,7.72715517 4.15977011,7.84482759 3.62068966,7.84482759 C1.62327586,7.84482759 0,6.22235632 0,4.22413793 L0,0 L1.6091954,0 L1.6091954,4.22413793 C1.6091954,5.44531609 2.51034483,6.43678161 3.62068966,6.43678161 C4.22212644,6.43678161 4.7612069,6.14672414 5.12931034,5.6870977 L5.12931034,7.51594828 Z" transform="translate(9.454 3.42)"/>
      <path fill="#238647" d="M1.6091954,0 L1.6091954,4.02359195 C2.28103448,3.51810345 3.11781609,3.2183908 4.02298851,3.2183908 C4.67471264,3.2183908 5.28821839,3.37327586 5.83333333,3.64844828 L5.83333333,5.54247126 C5.37270115,4.98186782 4.68678161,4.62643678 3.92241379,4.62643678 C2.53448276,4.62643678 1.40804598,5.79813218 1.40804598,7.24137931 C1.40804598,8.68462644 2.53448276,9.85632184 3.92241379,9.85632184 C4.68678161,9.85632184 5.37270115,9.5008908 5.83333333,8.94028736 L5.83333333,10.8343103 C5.28821839,11.1094828 4.67471264,11.2643678 4.02298851,11.2643678 C3.06149425,11.2643678 2.17844828,10.9262356 1.48649425,10.3626149 L1.40804598,11.0632184 L0,11.0632184 L0,7.44252874 L0.00603448276,7.44252874 C0.00201149425,7.37594828 0,7.30876437 0,7.24137931 L0,0 L1.6091954,0 Z"/>
      <path fill="#2F9B47" d="M0.100574713,0.154281609 C0.452586207,0.053908046 0.822701149,0 1.20689655,0 C3.42758621,0 5.22988506,1.80270115 5.22988506,4.02298851 C5.22988506,6.24327586 3.42758621,8.04597701 1.20689655,8.04597701 C0.822701149,8.04597701 0.452586207,7.99206897 0.100574713,7.8916954 L0.100574713,6.42008621 C0.408333333,6.56008621 0.748275862,6.63793103 1.10632184,6.63793103 C2.49425287,6.63793103 3.62068966,5.46623563 3.62068966,4.02298851 C3.62068966,2.57974138 2.49425287,1.40804598 1.10632184,1.40804598 C0.748275862,1.40804598 0.408333333,1.4858908 0.100574713,1.6258908 L0.100574713,0.154281609 Z" transform="translate(2.816 3.218)"/>
      <path fill="#62B64F" d="M0,0.0277586207 C1.31149425,0.690747126 2.21264368,2.05132184 2.21264368,3.62068966 C2.21264368,5.19005747 1.31149425,6.55063218 0,7.21362069 L0,5.3195977 C0.376149425,4.86238506 0.603448276,4.26899425 0.603448276,3.62068966 C0.603448276,2.97238506 0.376149425,2.37899425 0,1.92178161 L0,0.0277586207 Z" transform="translate(5.833 3.62)"/>
      <path fill="#3DB8AD" d="M0,5.80356322 C0.362068966,6.19520115 0.86091954,6.43678161 1.40804598,6.43678161 C2.5183908,6.43678161 3.41954023,5.44531609 3.41954023,4.22413793 L3.41954023,0 L5.02873563,0 L5.02873563,4.22413793 C5.02873563,6.22235632 3.40545977,7.84482759 1.40804598,7.84482759 C0.909195402,7.84482759 0.432471264,7.74344828 0,7.5604023 L0,5.80356322 Z" transform="translate(11.667 3.42)"/>
      <path fill="#3394D7" d="M0.100574713,5.6870977 C0.414367816,5.29686782 0.603448276,4.78474138 0.603448276,4.22413793 L0.603448276,0 L2.21264368,0 L2.21264368,4.22413793 C2.21264368,5.68428161 1.34568966,6.94347701 0.100574713,7.51594828 L0.100574713,5.6870977 Z" transform="translate(14.483 3.42)"/>
      <path fill="#2872BC" d="M5.02873563,2.04126437 C4.66666667,1.64962644 4.16781609,1.40804598 3.62068966,1.40804598 C2.51034483,1.40804598 1.6091954,2.39951149 1.6091954,3.62068966 L1.6091954,7.84482759 L0,7.84482759 L0,3.62068966 C0,1.62247126 1.62327586,0 3.62068966,0 C4.11954023,0 4.59626437,0.10137931 5.02873563,0.284425287 L5.02873563,2.04126437 Z" transform="translate(18.305 3.218)"/>
      <path fill="#1D5C84" d="M0.100574713,0.32887931 C0.559195402,0.117672414 1.07011494,0 1.6091954,0 C3.6066092,0 5.22988506,1.62247126 5.22988506,3.62068966 L5.22988506,7.84482759 L3.62068966,7.84482759 L3.62068966,3.62068966 C3.62068966,2.39951149 2.71954023,1.40804598 1.6091954,1.40804598 C1.00775862,1.40804598 0.468678161,1.69810345 0.100574713,2.15772989 L0.100574713,0.32887931 Z" transform="translate(20.316 3.218)"/>
      <path fill="#993233" d="M0,0.0832758621 C1.29942529,0.633017241 2.21264368,1.92057471 2.21264368,3.41954023 L2.21264368,7.64367816 L0.603448276,7.64367816 L0.603448276,3.41954023 C0.603448276,2.8012069 0.372126437,2.2416092 0,1.84011494 L0,0.0832758621 Z" transform="translate(23.333 3.42)"/>
      <path fill="#E13030" d="M5.12931034,7.8916954 C4.77729885,7.99206897 4.40718391,8.04597701 4.02298851,8.04597701 C1.80229885,8.04597701 0,6.24327586 0,4.02298851 C0,1.80270115 1.80229885,0 4.02298851,0 C4.40718391,0 4.77729885,0.053908046 5.12931034,0.154281609 L5.12931034,1.6258908 C4.82155172,1.4858908 4.4816092,1.40804598 4.12356322,1.40804598 C2.73563218,1.40804598 1.6091954,2.57974138 1.6091954,4.02298851 C1.6091954,5.46623563 2.73563218,6.63793103 4.12356322,6.63793103 C4.4816092,6.63793103 4.82155172,6.56008621 5.12931034,6.42008621 L5.12931034,7.8916954 Z" transform="translate(26.954 3.218)"/>
      <path fill="#F28825" d="M0,0.430057471 C0.545114943,0.154885057 1.15862069,0 1.81034483,0 C2.77183908,0 3.65488506,0.338132184 4.34683908,0.901752874 L4.42528736,0.201149425 L5.83333333,0.201149425 L5.83333333,3.82183908 L5.82931034,3.82183908 C5.83132184,3.88841954 5.83333333,3.95560345 5.83333333,4.02298851 L5.83333333,11.2643678 L4.22413793,11.2643678 L4.22413793,7.24077586 C3.55229885,7.74626437 2.71551724,8.04597701 1.81034483,8.04597701 C1.15862069,8.04597701 0.545114943,7.89109195 0,7.61591954 L0,5.72189655 C0.460632184,6.2825 1.14655172,6.63793103 1.91091954,6.63793103 C3.29885057,6.63793103 4.42528736,5.46623563 4.42528736,4.02298851 C4.42528736,2.57974138 3.29885057,1.40804598 1.91091954,1.40804598 C1.14655172,1.40804598 0.460632184,1.76347701 0,2.32408046 L0,0.430057471 Z" transform="translate(29.167 3.218)"/>
      <path fill="#F5C836" d="M0.100574713,0.154281609 C0.629597701,0.305747126 1.11436782,0.563017241 1.53074713,0.901752874 L1.6091954,0.201149425 L3.01724138,0.201149425 L3.01724138,3.82183908 L3.01321839,3.82183908 C3.01522989,3.88841954 3.01724138,3.95560345 3.01724138,4.02298851 L3.01724138,11.2643678 L1.40804598,11.2643678 L1.40804598,7.24077586 C1.01982759,7.53204023 0.579310345,7.75511494 0.100574713,7.8916954 L0.100574713,6.42008621 C0.987643678,6.01617816 1.6091954,5.09431034 1.6091954,4.02298851 C1.6091954,2.95166667 0.987643678,2.02979885 0.100574713,1.6258908 L0.100574713,0.154281609 Z" transform="translate(31.983 3.218)"/>
    </g>
  </g>
</svg>
