<svg height="360" viewBox="0 0 640 360" width="640" xmlns="http://www.w3.org/2000/svg"><g fill="none" fill-rule="evenodd" transform="translate(90 84.167)"><path d="m191.664657 143.341839c-6.027523 2.76849-12.742395 4.310934-19.827378 4.310934-26.251449 0-47.585708-21.267273-47.585708-47.45982v-55.3697898h21.149203v55.3697898c0 16.007143 11.843554 29.003223 26.436505 29.003223 7.904515 0 14.989498-3.802059 19.827378-9.826819z" fill="#89cc53"/><path d="m21.1492035 0v52.7410431c8.8297925-6.6259182 19.8273784-10.5545366 31.7238053-10.5545366 8.5654275 0 16.6285613 2.0302257 23.792854 5.637172v24.826759c-6.0539595-7.3483621-15.0688075-12.0073344-25.1146792-12.0073344-18.241188 0-33.0456305 15.3585251-33.0456305 34.2765366 0 18.9180113 14.8044425 34.2765363 33.0456305 34.2765363 10.0458717 0 19.0607197-4.658972 25.1146792-12.007334v24.826759c-7.1642927 3.606946-15.2274265 5.637172-23.792854 5.637172-12.6366491 0-24.2422745-4.43222-33.336432-11.820132l-1.0310237 9.183475h-18.5055531v-47.4598197h.07930951c-.05287301-.8727333-.07930951-1.7533766-.07930951-2.6366566v-94.9196397z" fill="#238647"/><path d="m38.3329314 44.2088222c4.6263883-1.3156917 9.4907051-2.0223157 14.5400774-2.0223157 29.1859009 0 52.8730092 23.629717 52.8730092 52.7331332 0 29.1034163-23.6871083 52.7331333-52.8730092 52.7331333-5.0493723 0-9.9136891-.706624-14.5400774-2.022316v-19.28978c4.0447852 1.835113 8.5125544 2.855499 13.2182522 2.855499 18.2411881 0 33.0456305-15.358525 33.0456305-34.2765363 0-18.9180115-14.8044424-34.2765366-33.0456305-34.2765366-4.7056978 0-9.173467 1.0203862-13.2182522 2.8554992z" fill="#2f9b47"/><path d="m76.6658628 47.8236785c17.2366009 8.6904203 29.0801552 26.5247659 29.0801552 47.0959612s-11.8435543 38.4055413-29.0801552 47.0959613v-24.826759c4.9436263-5.993121 7.9309513-13.771258 7.9309513-22.2692023 0-8.4979444-2.987325-16.2760816-7.9309513-22.2692022z" fill="#62b64f"/><path d="m153.331726 120.895981c4.75857 5.133571 11.314824 8.300195 18.505553 8.300195 14.59295 0 26.436504-12.99608 26.436504-29.003223v-55.3697898h21.149204v55.3697898c0 26.192547-21.334259 47.45982-47.585708 47.45982-6.556253 0-12.821705-1.328875-18.505553-3.728233z" fill="#3db8ad"/><path d="m191.664657 119.369357c4.124095-5.115114 6.609126-11.828042 6.609126-19.176404v-55.3697898h21.149204v55.3697898c0 19.139491-11.394134 35.644961-27.75833 43.148886z" fill="#3394d7"/><path d="m306.663451 68.9432983c-4.758571-5.1335705-11.314824-8.3001952-18.505553-8.3001952-14.59295 0-26.436504 12.9960807-26.436504 29.0032233v55.3697896h-21.149204v-55.3697896c0-26.1925473 21.334259-47.4598199 47.585708-47.4598199 6.556253 0 12.821705 1.328875 18.505553 3.7282325z" fill="#2872bc"/><path d="m268.33052 46.4974402c6.027523-2.7684895 12.742395-4.3109337 19.827378-4.3109337 26.251449 0 47.585708 21.2672726 47.585708 47.4598199v55.3697896h-21.149203v-55.3697896c0-16.0071426-11.843554-29.0032233-26.436505-29.0032233-7.904515 0-14.989498 3.8020589-19.827378 9.8268194z" fill="#1d5c84"/><path d="m306.663451 45.914739c17.077982 7.2059827 29.080155 24.0832219 29.080155 43.7315874v55.3697896h-21.149203v-55.3697896c0-8.1050826-3.040198-15.4402614-7.930952-20.7030281z" fill="#993233"/><path d="m421.662245 145.630457c-4.626388 1.315692-9.490705 2.022316-14.540077 2.022316-29.185901 0-52.873009-23.629717-52.873009-52.7331333 0-29.1034162 23.687108-52.7331332 52.873009-52.7331332 5.049372 0 9.913689.706624 14.540077 2.0223157v19.2897801c-4.044785-1.835113-8.512554-2.8554992-13.218252-2.8554992-18.241188 0-33.04563 15.3585251-33.04563 34.2765366 0 18.9180113 14.804442 34.2765363 33.04563 34.2765363 4.705698 0 9.173467-1.020386 13.218252-2.855499z" fill="#e13030"/><path d="m383.329314 47.8236785c7.164293-3.6069463 15.227427-5.637172 23.792854-5.637172 12.636649 0 24.242275 4.4322199 33.336432 11.8201318l1.031024-9.1834751h18.505553v47.4598198h-.052873c.026436.8727334.052873 1.7533767.052873 2.6366567v94.9196393h-21.149204v-52.741043c-8.829792 6.625918-19.827378 10.554537-31.723805 10.554537-8.565427 0-16.628561-2.030226-23.792854-5.637172v-24.826759c6.05396 7.348362 15.068808 12.007334 25.114679 12.007334 18.241188 0 33.045631-15.358525 33.045631-34.2765363 0-18.9180115-14.804443-34.2765366-33.045631-34.2765366-10.045871 0-19.060719 4.6589723-25.114679 12.0073344z" fill="#f28825"/><path d="m421.662245 44.2088222c6.952801 1.9854024 13.323999 5.3576863 18.796355 9.7978161l1.031024-9.1834751h18.505553v47.4598198h-.052873c.026436.8727334.052873 1.7533767.052873 2.6366567v94.9196393h-21.149204v-52.741043c-5.102245 3.817879-10.891839 6.741931-17.183728 8.532221v-19.28978c11.658499-5.294406 19.827379-17.378204 19.827379-31.4210373 0-14.0428334-8.16888-26.1266308-19.827379-31.4210374z" fill="#f5c836"/></g></svg>