<svg height="32" viewBox="0 0 51 32" width="51" xmlns="http://www.w3.org/2000/svg"><g fill="none" fill-rule="evenodd"><path d="m.5.5h50v31h-50z" fill="#fff" stroke="#d0d0d0"/><g transform="translate(8 9)"><path d="m5.12931034 7.51594828c-.45862068.21120689-.96954023.32887931-1.50862068.32887931-1.9974138 0-3.62068966-1.62247127-3.62068966-3.62068966v-4.22413793h1.6091954v4.22413793c0 1.22117816.90114943 2.21264368 2.01149426 2.21264368.60143678 0 1.14051724-.29005747 1.50862068-.74968391z" fill="#89cc53" transform="translate(9.454 3.42)"/><path d="m1.6091954 0v4.02359195c.67183908-.5054885 1.50862069-.80520115 2.41379311-.80520115.65172413 0 1.26522988.15488506 1.81034482.43005748v1.89402298c-.46063218-.56060344-1.14655172-.91603448-1.91091954-.91603448-1.38793103 0-2.51436781 1.1716954-2.51436781 2.61494253s1.12643678 2.61494253 2.51436781 2.61494253c.76436782 0 1.45028736-.35543104 1.91091954-.91603448v1.89402294c-.54511494.2751725-1.15862069.4300575-1.81034482.4300575-.96149426 0-1.84454023-.3381322-2.53649426-.9017529l-.07844827.7006035h-1.40804598v-3.62068966h.00603448c-.00402299-.06658046-.00603448-.13376437-.00603448-.20114943v-7.24137931z" fill="#238647"/><path d="m.10057471.15428161c.3520115-.10037356.72212644-.15428161 1.10632184-.15428161 2.22068966 0 4.02298851 1.80270115 4.02298851 4.02298851 0 2.22028735-1.80229885 4.0229885-4.02298851 4.0229885-.3841954 0-.75431034-.05390804-1.10632184-.15428161v-1.47160919c.30775862.14.64770115.21784482 1.00574713.21784482 1.38793103 0 2.51436782-1.1716954 2.51436782-2.61494252 0-1.44324713-1.12643679-2.61494253-2.51436782-2.61494253-.35804598 0-.69798851.07784482-1.00574713.21784482z" fill="#2f9b47" transform="translate(2.816 3.218)"/><path d="m0 .02775862c1.31149425.66298851 2.21264368 2.02356322 2.21264368 3.59293104 0 1.56936781-.90114943 2.92994252-2.21264368 3.59293103v-1.89402299c.37614943-.45721264.60344828-1.05060345.60344828-1.69890804 0-.6483046-.22729885-1.24169541-.60344828-1.69890805z" fill="#62b64f" transform="translate(5.833 3.62)"/><path d="m0 5.80356322c.36206897.39163793.86091954.63321839 1.40804598.63321839 1.11034482 0 2.01149425-.99146552 2.01149425-2.21264368v-4.22413793h1.6091954v4.22413793c0 1.99821839-1.62327586 3.62068966-3.62068965 3.62068966-.49885058 0-.97557472-.10137931-1.40804598-.28442529z" fill="#3db8ad" transform="translate(11.667 3.42)"/><path d="m.10057471 5.6870977c.31379311-.39022988.50287357-.90235632.50287357-1.46295977v-4.22413793h1.6091954v4.22413793c0 1.46014368-.86695402 2.71933908-2.11206897 3.29181035z" fill="#3394d7" transform="translate(14.483 3.42)"/><path d="m5.02873563 2.04126437c-.36206896-.39163793-.86091954-.63321839-1.40804597-.63321839-1.11034483 0-2.01149426.99146551-2.01149426 2.21264368v4.22413793h-1.6091954v-4.22413793c0-1.9982184 1.62327586-3.62068966 3.62068966-3.62068966.49885057 0 .97557471.10137931 1.40804597.28442529z" fill="#2872bc" transform="translate(18.305 3.218)"/><path d="m.10057471.32887931c.45862069-.2112069.96954023-.32887931 1.50862069-.32887931 1.9974138 0 3.62068966 1.62247126 3.62068966 3.62068966v4.22413793h-1.6091954v-4.22413793c0-1.22117817-.90114943-2.21264368-2.01149426-2.21264368-.60143678 0-1.14051724.29005747-1.50862069.74968391z" fill="#1d5c84" transform="translate(20.316 3.218)"/><path d="m0 .08327586c1.29942529.54974138 2.21264368 1.83729885 2.21264368 3.33626437v4.22413793h-1.6091954v-4.22413793c0-.61833333-.23132184-1.17793103-.60344828-1.57942529z" fill="#993233" transform="translate(23.333 3.42)"/><path d="m5.12931034 7.8916954c-.35201149.10037357-.72212643.15428161-1.10632183.15428161-2.22068966 0-4.02298851-1.80270115-4.02298851-4.0229885 0-2.22028736 1.80229885-4.02298851 4.02298851-4.02298851.3841954 0 .75431034.05390805 1.10632183.15428161v1.47160919c-.30775862-.14-.64770114-.21784482-1.00574712-.21784482-1.38793104 0-2.51436782 1.1716954-2.51436782 2.61494253 0 1.44324712 1.12643678 2.61494252 2.51436782 2.61494252.35804598 0 .6979885-.07784482 1.00574712-.21784482z" fill="#e13030" transform="translate(26.954 3.218)"/><path d="m0 .43005747c.54511494-.27517241 1.15862069-.43005747 1.81034483-.43005747.96149425 0 1.84454023.33813218 2.53649425.90175287l.07844828-.70060344h1.40804597v3.62068965h-.00402299c.0020115.06658046.00402299.13376437.00402299.20114943v7.24137929h-1.6091954v-4.02359194c-.67183908.50548851-1.50862069.80520115-2.4137931.80520115-.65172414 0-1.26522989-.15488506-1.81034483-.43005747v-1.89402299c.46063218.56060345 1.14655172.91603448 1.91091954.91603448 1.38793103 0 2.51436782-1.1716954 2.51436782-2.61494252 0-1.44324713-1.12643679-2.61494253-2.51436782-2.61494253-.76436782 0-1.45028736.35543103-1.91091954.91603448z" fill="#f28825" transform="translate(29.167 3.218)"/><path d="m.10057471.15428161c.52902299.15146552 1.01379311.40873563 1.43017242.74747126l.07844827-.70060344h1.40804598v3.62068965h-.00402299c.0020115.06658046.00402299.13376437.00402299.20114943v7.24137929h-1.6091954v-4.02359194c-.38821839.29126437-.82873563.51433908-1.30747127.65091954v-1.47160919c.88706897-.40390805 1.50862069-1.32577587 1.50862069-2.3970977 0-1.07132184-.62155172-1.99318966-1.50862069-2.39709771z" fill="#f5c836" transform="translate(31.983 3.218)"/></g></g></svg>