<svg xmlns="http://www.w3.org/2000/svg" width="640" height="360" viewBox="0 0 640 360">
  <path fill="#32AA52" fill-rule="evenodd" d="M67.6351515 35.4936562L1.21212121 35.4936562 1.21212121 56.759625 44.5042424 56.759625C47.1818182 56.7608437 49.3527273 58.9424062 49.3527273 61.634625L49.3527273 99.294 40.1006061 99.294C37.4230303 99.294 35.2521212 97.1112187 35.2521212 94.419L35.2521212 67.3932187 16.969697 67.3932187C7.59757576 67.3932187 0 75.0323437 0 84.4557187L0 103.497469C0 112.920844 7.59757576 120.559969 16.969697 120.559969L84.6048485 120.559969 84.6048485 52.5561562C84.6048485 43.1327812 77.0072727 35.4936562 67.6351515 35.4936562M148.055758 99.294L138.803636 99.294C136.126061 99.294 133.955152 97.1112188 133.955152 94.419L133.955152 35.4936563 115.675152 35.4936563C106.30303 35.4936563 98.7054545 43.1327813 98.7054545 52.5561563L98.7054545 103.497469C98.7054545 112.920844 106.30303 120.559969 115.675152 120.559969L183.309091 120.559969 183.309091.04875 148.05697.04875 148.055758 99.294M246.761212 99.294L237.509091 99.294C234.831515 99.294 232.660606 97.1112188 232.660606 94.419L232.660606 35.4936562 197.409697 35.4936562 197.409697 103.497469C197.409697 112.920844 205.007273 120.559969 214.379394 120.559969L246.762424 120.559969 246.762424 131.193563 198.621818 131.193563 198.621818 156 265.044848 156C274.41697 156 282.014545 148.360875 282.014545 138.9375L282.014545 35.4936562 246.761212 35.4936562 246.761212 99.294M363.749091 35.4936562L296.115152 35.4936562 296.115152 103.497469C296.115152 112.920844 303.712727 120.559969 313.084848 120.559969L379.506667 120.559969 379.506667 99.294 336.214545 99.294C333.53697 99.294 331.366061 97.1112187 331.366061 94.419L331.366061 56.7608437 340.618182 56.7608437C343.29697 56.7608437 345.466667 58.943625 345.466667 61.6358437L345.466667 88.6604062 363.749091 88.6604062C373.121212 88.6604062 380.718788 81.0212812 380.718788 71.5979062L380.718788 52.5561562C380.718788 43.1327812 373.121212 35.4936562 363.749091 35.4936562M462.454545 35.4936562L394.819394 35.4936562 394.819394 120.559969 430.071515 120.559969 430.071515 56.759625 439.323636 56.759625C441.990303 56.759625 444.172121 58.953375 444.172121 61.634625L444.172121 120.559969 479.424242 120.559969 479.424242 52.5561562C479.424242 43.1327812 471.826667 35.4936562 462.454545 35.4936562" transform="translate(80 102)"/>
</svg>
