<svg height="360" viewBox="0 0 640 360" width="640" xmlns="http://www.w3.org/2000/svg"><path d="m67.6351515 35.4936562h-66.42303029v21.2659688h43.29212119c2.6775758.0012187 4.8484849 2.1827812 4.8484849 4.875v37.659375h-9.2521212c-2.6775758 0-4.8484849-2.1827813-4.8484849-4.875v-27.0257813h-18.2824242c-9.37212124 0-16.969697 7.639125-16.969697 17.0625v19.0417503c0 9.423375 7.59757576 17.0625 16.969697 17.0625h67.6351515v-68.0038128c0-9.423375-7.5975758-17.0625-16.969697-17.0625m80.4206065 63.8003438h-9.252122c-2.677575 0-4.848484-2.1827812-4.848484-4.875v-58.9253437h-18.28c-9.372122 0-16.9696975 7.639125-16.9696975 17.0625v50.9413127c0 9.423375 7.5975755 17.0625 16.9696975 17.0625h67.633939v-120.511219h-35.252121zm98.705454 0h-9.252121c-2.677576 0-4.848485-2.1827812-4.848485-4.875v-58.9253438h-35.250909v68.0038128c0 9.423375 7.597576 17.0625 16.969697 17.0625h32.38303v10.633594h-48.140606v24.806437h66.42303c9.372122 0 16.969697-7.639125 16.969697-17.0625v-103.4438438h-35.253333zm116.987879-63.8003438h-67.633939v68.0038128c0 9.423375 7.597575 17.0625 16.969696 17.0625h66.421819v-21.265969h-43.292122c-2.677575 0-4.848484-2.1827813-4.848484-4.875v-37.6581563h9.252121c2.678788 0 4.848485 2.1827813 4.848485 4.875v27.0245625h18.282424c9.372121 0 16.969697-7.639125 16.969697-17.0625v-19.04175c0-9.423375-7.597576-17.0625-16.969697-17.0625m98.705454 0h-67.635151v85.0663128h35.252121v-63.800344h9.252121c2.666667 0 4.848485 2.19375 4.848485 4.875v58.925344h35.252121v-68.0038128c0-9.423375-7.597575-17.0625-16.969697-17.0625" fill="#fff" fill-rule="evenodd" transform="translate(80 102)"/></svg>