<?xml version="1.0" encoding="UTF-8" standalone="no"?>
<svg
   width="512"
   height="512"
   viewBox="0 0 512 512"
   fill="none"
   version="1.1"
   id="svg1084"
   sodipodi:docname="plugin-woocommerce-icon-white-512x512.svg"
   inkscape:version="1.2 (dc2aeda, 2022-05-15)"
   xmlns:inkscape="http://www.inkscape.org/namespaces/inkscape"
   xmlns:sodipodi="http://sodipodi.sourceforge.net/DTD/sodipodi-0.dtd"
   xmlns="http://www.w3.org/2000/svg"
   xmlns:svg="http://www.w3.org/2000/svg">
  <defs
     id="defs1088" />
  <sodipodi:namedview
     id="namedview1086"
     pagecolor="#ffffff"
     bordercolor="#666666"
     borderopacity="1.0"
     inkscape:showpageshadow="2"
     inkscape:pageopacity="0.0"
     inkscape:pagecheckerboard="true"
     inkscape:deskcolor="#d1d1d1"
     showgrid="false"
     inkscape:zoom="0.4609375"
     inkscape:cx="285.28814"
     inkscape:cy="215.86441"
     inkscape:window-width="1136"
     inkscape:window-height="897"
     inkscape:window-x="3425"
     inkscape:window-y="396"
     inkscape:window-maximized="0"
     inkscape:current-layer="svg1084" />
  <path
     id="path1080"
     d="M 47.515625 104 C 21.140451 104 -0.20647097 125.55868 0.001953125 151.72266 L 0.001953125 310.80859 C 0.001953125 337.18357 21.353342 358.5332 47.728516 358.5332 L 245.11523 358.5332 L 335.33203 408.77148 L 314.82031 358.5332 L 464.27344 358.5332 C 490.64841 358.5332 512 337.18357 512 310.80859 L 512 151.72266 C 512 125.34768 490.64841 104 464.27344 104 L 47.519531 104 L 47.515625 104 z M 218.11133 132.04883 C 222.92732 131.62883 227.32283 133.09538 231.29883 136.23438 C 235.27782 139.37637 237.37206 143.35207 237.78906 148.16406 C 237.99706 151.93506 237.37231 155.07389 235.69531 158.21289 C 227.53232 173.28288 220.83367 198.61338 215.38867 233.77734 C 210.15968 267.89831 208.27425 294.48227 209.53125 313.53125 C 209.94725 318.76324 209.11058 323.36875 207.01758 327.34375 C 204.50658 331.95175 200.73982 334.46191 195.92383 334.87891 C 190.48283 335.29891 184.82967 332.78776 179.38867 327.13477 C 159.92269 307.24879 144.43089 277.5248 133.12891 237.96484 C 119.52492 264.75682 109.47437 284.85206 102.98438 298.24805 C 90.637187 321.90102 80.169451 334.04092 71.380859 334.66992 C 65.728165 335.08992 60.912711 330.27351 56.728516 320.22852 C 46.054626 292.80454 34.540141 239.84848 22.189453 161.35156 C 21.560954 155.91057 22.606512 151.09407 25.537109 147.33008 L 25.539062 147.32812 C 28.46656 143.34913 32.866615 141.25789 38.724609 140.83789 C 49.398499 140.00089 55.470248 145.02417 56.935547 155.91016 C 63.42514 199.65711 70.540033 236.70658 78.078125 267.06055 L 123.91992 179.77539 C 128.10492 171.8174 133.33919 167.63289 139.61719 167.21289 C 148.82818 166.58489 154.47925 172.44589 156.78125 184.79688 C 162.01424 212.63685 168.71298 236.28974 176.66797 256.38672 C 182.11196 203.21677 191.31984 164.91079 204.29883 141.25781 C 207.43782 135.39682 212.04133 132.46583 218.11133 132.04883 z M 299.53516 154.6543 C 303.33715 154.6803 307.1268 155.1002 310.8418 155.9082 C 325.49478 159.0502 336.79795 167.00442 344.33594 180.19141 C 351.03393 191.49439 354.38086 205.1027 354.38086 221.42969 C 354.38086 242.98867 348.93968 262.66503 338.05469 280.66602 C 325.4957 301.59699 309.16721 312.06445 288.86523 312.06445 C 285.30624 312.06445 281.53954 311.64559 277.56055 310.80859 C 262.69956 307.6696 251.6053 299.71533 244.07031 286.52734 C 237.36932 275.01336 234.02148 261.20002 234.02148 245.08203 C 234.02148 223.52305 239.46267 203.84567 250.34766 186.05469 C 263.11564 165.12071 279.44418 154.6543 299.53516 154.6543 z M 430.78125 154.6543 C 434.58225 154.6803 438.37094 155.1002 442.08594 155.9082 C 456.94692 159.0502 468.04013 167.00442 475.57812 180.19141 L 475.57617 180.19141 C 482.27717 191.49439 485.625 205.1027 485.625 221.42969 C 485.625 242.98867 480.18482 262.66503 469.29883 280.66602 C 456.73984 301.59699 440.41135 312.06445 420.10938 312.06445 C 416.54738 312.06445 412.78368 311.64559 408.80469 310.80859 C 393.9427 307.6696 382.84945 299.71533 375.31445 286.52734 C 368.61346 275.01336 365.26562 261.20002 365.26562 245.08203 C 365.26562 223.52305 370.70681 203.84567 381.5918 186.05469 C 394.35978 165.12071 410.68727 154.6543 430.78125 154.6543 z M 300.49219 189.74609 C 293.94762 189.7065 287.5814 194.0349 281.53516 203.00977 C 275.88516 210.96076 272.3264 219.33593 270.44141 227.91992 C 269.39641 232.73192 268.97656 237.96427 268.97656 243.19727 C 268.97656 249.26626 270.2331 255.75515 272.74609 262.24414 C 275.88509 270.40813 280.07471 274.80761 285.0957 275.84961 C 290.3287 276.89761 295.98079 274.59634 302.05078 269.15234 C 309.79677 262.24535 315.02994 251.98786 317.96094 238.17188 C 319.00594 233.35688 319.42578 228.12759 319.42578 222.68359 C 319.42578 216.6166 318.16829 210.12371 315.6543 203.63672 C 312.5153 195.47373 308.32764 191.0783 303.30664 190.0293 C 302.36477 189.84617 301.42713 189.75175 300.49219 189.74609 z M 431.73633 189.74609 C 425.19176 189.7065 418.82554 194.0349 412.7793 203.00977 C 407.1303 210.96076 403.57154 219.33593 401.68555 227.91992 C 400.64055 232.73192 400.2207 237.96427 400.2207 243.19727 C 400.2207 249.26626 401.47819 255.75515 403.99219 262.24414 C 407.13118 270.40813 411.31885 274.80761 416.33984 275.84961 C 421.57284 276.89761 427.22593 274.59634 433.29492 269.15234 C 441.04191 262.24535 446.27313 251.98786 449.20312 238.17188 C 450.03712 233.35688 450.66992 228.12759 450.66992 222.68359 C 450.66992 216.6166 449.41243 210.12371 446.89844 203.63672 C 443.75944 195.47373 439.57178 191.0783 434.55078 190.0293 C 433.60891 189.84617 432.67127 189.75175 431.73633 189.74609 z "
     style="fill:#ffffff" />
</svg>
