<svg width="512" height="512" viewBox="0 0 512 512" fill="none" xmlns="http://www.w3.org/2000/svg">
<rect width="512" height="512" fill="white"/>
<path fill-rule="evenodd" clip-rule="evenodd" d="M47.5192 104H464.274C490.649 104 512 125.348 512 151.723V310.808C512 337.183 490.649 358.534 464.274 358.534H314.821L335.332 408.771L245.115 358.534H47.7276C21.3524 358.534 0.0015133 337.183 0.0015133 310.808V151.723C-0.206911 125.559 21.1408 104 47.516 104H47.5192Z" fill="#9B5C8F"/>
<path d="M25.5398 147.328C28.4673 143.349 32.8663 141.258 38.7243 140.838C49.3982 140.001 55.4709 145.025 56.9362 155.911C63.4258 199.658 70.5406 236.707 78.0787 267.061L123.919 179.776C128.104 171.818 133.34 167.633 139.618 167.213C148.829 166.585 154.479 172.446 156.781 184.797C162.014 212.637 168.712 236.29 176.667 256.387C182.111 203.217 191.32 164.911 204.299 141.258C207.438 135.397 212.042 132.466 218.112 132.049C222.928 131.629 227.323 133.095 231.299 136.234C235.278 139.376 237.372 143.352 237.789 148.164C237.997 151.935 237.372 155.074 235.695 158.213C227.532 173.283 220.834 198.613 215.389 233.777C210.16 267.898 208.275 294.482 209.532 313.531C209.948 318.763 209.111 323.368 207.018 327.343C204.507 331.951 200.74 334.461 195.924 334.878C190.483 335.298 184.83 332.788 179.389 327.135C159.923 307.249 144.43 277.524 133.128 237.964C119.524 264.756 109.475 284.853 102.985 298.249C90.6378 321.902 80.1692 334.041 71.3806 334.67C65.7279 335.09 60.912 330.274 56.7278 320.229C46.0539 292.805 34.54 239.849 22.1893 161.352C21.5608 155.911 22.6061 151.095 25.5367 147.331L25.5398 147.328ZM475.579 180.192C468.041 167.005 456.947 159.05 442.086 155.908C438.371 155.1 434.582 154.68 430.781 154.654C410.687 154.654 394.36 165.12 381.592 186.054C370.707 203.845 365.266 223.523 365.266 245.082C365.266 261.2 368.613 275.013 375.314 286.527C382.849 299.715 393.943 307.669 408.805 310.808C412.784 311.645 416.548 312.065 420.11 312.065C440.412 312.065 456.739 301.597 469.298 280.666C480.184 262.665 485.625 242.988 485.625 221.429C485.625 205.102 482.277 191.495 475.576 180.192H475.579ZM449.204 238.172C446.274 251.988 441.041 262.245 433.294 269.152C427.225 274.596 421.572 276.898 416.339 275.85C411.318 274.808 407.131 270.409 403.992 262.245C401.478 255.756 400.221 249.266 400.221 243.197C400.221 237.964 400.641 232.731 401.686 227.919C403.572 219.335 407.131 210.96 412.78 203.009C419.69 192.752 427.016 188.564 434.551 190.029C439.572 191.078 443.76 195.474 446.899 203.637C449.413 210.124 450.669 216.616 450.669 222.683C450.669 228.127 450.038 233.357 449.204 238.172ZM344.335 180.192C336.797 167.005 325.495 159.05 310.842 155.908C307.127 155.1 303.338 154.68 299.536 154.654C279.445 154.654 263.116 165.12 250.348 186.054C239.463 203.845 234.021 223.523 234.021 245.082C234.021 261.2 237.369 275.013 244.07 286.527C251.605 299.715 262.699 307.669 277.56 310.808C281.539 311.645 285.307 312.065 288.866 312.065C309.168 312.065 325.495 301.597 338.054 280.666C348.939 262.665 354.38 242.988 354.38 221.429C354.38 205.102 351.033 191.495 344.335 180.192ZM317.96 238.172C315.029 251.988 309.796 262.245 302.05 269.152C295.98 274.596 290.328 276.898 285.095 275.85C280.074 274.808 275.886 270.409 272.747 262.245C270.234 255.756 268.977 249.266 268.977 243.197C268.977 237.964 269.397 232.731 270.442 227.919C272.327 219.335 275.886 210.96 281.536 203.009C288.446 192.752 295.772 188.564 303.307 190.029C308.328 191.078 312.515 195.474 315.654 203.637C318.168 210.124 319.425 216.616 319.425 222.683C319.425 228.127 319.005 233.357 317.96 238.172Z" fill="white"/>
</svg>
