<svg fill="none" height="512" viewBox="0 0 512 512" width="512" xmlns="http://www.w3.org/2000/svg"><path d="m47.515625 104c-26.375174 0-47.72209597 21.55868-47.51367187 47.72266v159.08593c0 26.37498 21.35138887 47.72461 47.72656287 47.72461h197.386714l90.2168 50.23828-20.51172-50.23828h149.45313c26.37497 0 47.72656-21.34963 47.72656-47.72461v-159.08593c0-26.37498-21.35159-47.72266-47.72656-47.72266h-416.753909zm170.595705 28.04883c4.81599-.42 9.2115 1.04655 13.1875 4.18555 3.97899 3.14199 6.07323 7.11769 6.49023 11.92968.208 3.771-.41675 6.90983-2.09375 10.04883-8.16299 15.06999-14.86164 40.40049-20.30664 75.56445-5.22899 34.12097-7.11442 60.70493-5.85742 79.75391.416 5.23199-.42067 9.8375-2.51367 13.8125-2.511 4.608-6.27776 7.11816-11.09375 7.53516-5.441.42-11.09416-2.09115-16.53516-7.74414-19.46598-19.88598-34.95778-49.60997-46.25976-89.16993-13.60399 26.79198-23.65454 46.88722-30.14453 60.28321-12.347193 23.65297-22.814929 35.79287-31.603521 36.42187-5.652694.42-10.468148-4.39641-14.652343-14.4414-10.67389-27.42398-22.188375-80.38004-34.539063-158.87696-.628499-5.44099.417059-10.25749 3.347656-14.02148l.001953-.00196c2.927498-3.97899 7.327553-6.07023 13.185547-6.49023 10.67389-.837 16.745639 4.18628 18.210938 15.07227 6.489593 43.74695 13.604486 80.79642 21.142578 111.15039l45.841795-87.28516c4.185-7.95799 9.41927-12.1425 15.69727-12.5625 9.21099-.628 14.86206 5.233 17.16406 17.58399 5.23299 27.83997 11.93173 51.49286 19.88672 71.58984 5.44399-53.16995 14.65187-91.47593 27.63086-115.12891 3.13899-5.86099 7.7425-8.79198 13.8125-9.20898zm81.42383 22.60547c3.80199.026 7.59164.4459 11.30664 1.2539 14.65298 3.142 25.95615 11.09622 33.49414 24.28321 6.69799 11.30298 10.04492 24.91129 10.04492 41.23828 0 21.55898-5.44118 41.23534-16.32617 59.23633-12.55899 20.93097-28.88748 31.39843-49.18946 31.39843-3.55899 0-7.32569-.41886-11.30468-1.25586-14.86099-3.13899-25.95525-11.09326-33.49024-24.28125-6.70099-11.51398-10.04883-25.32732-10.04883-41.44531 0-21.55898 5.44119-41.23636 16.32618-59.02734 12.76798-20.93398 29.09652-31.40039 49.1875-31.40039zm131.24609 0c3.801.026 7.58969.4459 11.30469 1.2539 14.86098 3.142 25.95419 11.09622 33.49218 24.28321h-.00195c6.701 11.30298 10.04883 24.91129 10.04883 41.23828 0 21.55898-5.44018 41.23534-16.32617 59.23633-12.55899 20.93097-28.88748 31.39843-49.18945 31.39843-3.562 0-7.3257-.41886-11.30469-1.25586-14.86199-3.13899-25.95524-11.09326-33.49024-24.28125-6.70099-11.51398-10.04883-25.32732-10.04883-41.44531 0-21.55898 5.44119-41.23636 16.32618-59.02734 12.76798-20.93398 29.09547-31.40039 49.18945-31.40039zm-130.28906 35.09179c-6.54457-.03959-12.91079 4.28881-18.95703 13.26368-5.65 7.95099-9.20876 16.32616-11.09375 24.91015-1.045 4.812-1.46485 10.04435-1.46485 15.27735 0 6.06899 1.25654 12.55788 3.76953 19.04687 3.139 8.16399 7.32862 12.56347 12.34961 13.60547 5.233 1.048 10.88509-1.25327 16.95508-6.69727 7.74599-6.90699 12.97916-17.16448 15.91016-30.98046 1.045-4.815 1.46484-10.04429 1.46484-15.48829 0-6.06699-1.25749-12.55988-3.77148-19.04687-3.139-8.16299-7.32666-12.55842-12.34766-13.60742-.94187-.18313-1.87951-.27755-2.81445-.28321zm131.24414 0c-6.54457-.03959-12.91079 4.28881-18.95703 13.26368-5.649 7.95099-9.20776 16.32616-11.09375 24.91015-1.045 4.812-1.46485 10.04435-1.46485 15.27735 0 6.06899 1.25749 12.55788 3.77149 19.04687 3.13899 8.16399 7.32666 12.56347 12.34765 13.60547 5.233 1.048 10.88609-1.25327 16.95508-6.69727 7.74699-6.90699 12.97821-17.16448 15.9082-30.98046.834-4.815 1.4668-10.04429 1.4668-15.48829 0-6.06699-1.25749-12.55988-3.77148-19.04687-3.139-8.16299-7.32666-12.55842-12.34766-13.60742-.94187-.18313-1.87951-.27755-2.81445-.28321z" fill="#fff"/></svg>