<svg fill="none" height="512" viewBox="0 0 512 512" width="512" xmlns="http://www.w3.org/2000/svg"><path d="m0 0h512v512h-512z" fill="#fff"/><path clip-rule="evenodd" d="m47.5192 104h416.7548c26.375 0 47.726 21.348 47.726 47.723v159.085c0 26.375-21.351 47.726-47.726 47.726h-149.453l20.511 50.237-90.217-50.237h-197.3874c-26.3752 0-47.7260867-21.351-47.7260867-47.726v-159.085c-.2084243-26.164 21.1392867-47.723 47.5144867-47.723z" fill="#9b5c8f" fill-rule="evenodd"/><path d="m25.5398 147.328c2.9275-3.979 7.3265-6.07 13.1845-6.49 10.6739-.837 16.7466 4.187 18.2119 15.073 6.4896 43.747 13.6044 80.796 21.1425 111.15l45.8403-87.285c4.185-7.958 9.421-12.143 15.699-12.563 9.211-.628 14.861 5.233 17.163 17.584 5.233 27.84 11.931 51.493 19.886 71.59 5.444-53.17 14.653-91.476 27.632-115.129 3.139-5.861 7.743-8.792 13.813-9.209 4.816-.42 9.211 1.046 13.187 4.185 3.979 3.142 6.073 7.118 6.49 11.93.208 3.771-.417 6.91-2.094 10.049-8.163 15.07-14.861 40.4-20.306 75.564-5.229 34.121-7.114 60.705-5.857 79.754.416 5.232-.421 9.837-2.514 13.812-2.511 4.608-6.278 7.118-11.094 7.535-5.441.42-11.094-2.09-16.535-7.743-19.466-19.886-34.959-49.611-46.261-89.171-13.604 26.792-23.653 46.889-30.143 60.285-12.3472 23.653-22.8158 35.792-31.6044 36.421-5.6527.42-10.4686-4.396-14.6528-14.441-10.6739-27.424-22.1878-80.38-34.5385-158.877-.6285-5.441.4168-10.257 3.3474-14.021zm450.0392 32.864c-7.538-13.187-18.632-21.142-33.493-24.284-3.715-.808-7.504-1.228-11.305-1.254-20.094 0-36.421 10.466-49.189 31.4-10.885 17.791-16.326 37.469-16.326 59.028 0 16.118 3.347 29.931 10.048 41.445 7.535 13.188 18.629 21.142 33.491 24.281 3.979.837 7.743 1.257 11.305 1.257 20.302 0 36.629-10.468 49.188-31.399 10.886-18.001 16.327-37.678 16.327-59.237 0-16.327-3.348-29.934-10.049-41.237zm-26.375 57.98c-2.93 13.816-8.163 24.073-15.91 30.98-6.069 5.444-11.722 7.746-16.955 6.698-5.021-1.042-9.208-5.441-12.347-13.605-2.514-6.489-3.771-12.979-3.771-19.048 0-5.233.42-10.466 1.465-15.278 1.886-8.584 5.445-16.959 11.094-24.91 6.91-10.257 14.236-14.445 21.771-12.98 5.021 1.049 9.209 5.445 12.348 13.608 2.514 6.487 3.77 12.979 3.77 19.046 0 5.444-.631 10.674-1.465 15.489zm-104.869-57.98c-7.538-13.187-18.84-21.142-33.493-24.284-3.715-.808-7.504-1.228-11.306-1.254-20.091 0-36.42 10.466-49.188 31.4-10.885 17.791-16.327 37.469-16.327 59.028 0 16.118 3.348 29.931 10.049 41.445 7.535 13.188 18.629 21.142 33.49 24.281 3.979.837 7.747 1.257 11.306 1.257 20.302 0 36.629-10.468 49.188-31.399 10.885-18.001 16.326-37.678 16.326-59.237 0-16.327-3.347-29.934-10.045-41.237zm-26.375 57.98c-2.931 13.816-8.164 24.073-15.91 30.98-6.07 5.444-11.722 7.746-16.955 6.698-5.021-1.042-9.209-5.441-12.348-13.605-2.513-6.489-3.77-12.979-3.77-19.048 0-5.233.42-10.466 1.465-15.278 1.885-8.584 5.444-16.959 11.094-24.91 6.91-10.257 14.236-14.445 21.771-12.98 5.021 1.049 9.208 5.445 12.347 13.608 2.514 6.487 3.771 12.979 3.771 19.046 0 5.444-.42 10.674-1.465 15.489z" fill="#fff"/></svg>