<svg xmlns="http://www.w3.org/2000/svg" width="640" height="360" viewBox="0 0 640 360">
  <g fill="none" fill-rule="evenodd" transform="translate(80 124)">
    <path fill="#9B5C8F" d="M15.7092355,0.132567388 L147.680071,0.132567388 C156.031816,0.132567388 162.792753,6.8935042 162.792753,15.2452497 L162.792753,65.6208573 C162.792753,73.9726027 156.031816,80.7335395 147.680071,80.7335395 L100.353513,80.7335395 L106.849315,96.6416262 L78.2810429,80.7335395 L15.7755192,80.7335395 C7.42377375,80.7335395 0.662836942,73.9726027 0.662836942,65.6208573 L0.662836942,15.2452497 C0.596553248,6.95978789 7.35749006,0.132567388 15.7092355,0.132567388 Z"/>
    <path fill="#FFF" fill-rule="nonzero" d="M8.74944764 13.8532921C9.67741935 12.5939019 11.0693769 11.931065 12.9253204 11.7984976 16.3057888 11.5333628 18.2280159 13.1241715 18.6920018 16.5709236 20.7467963 30.4242156 23.0004419 42.1564295 25.3866549 51.7675652L39.9027839 24.1272647C41.2284578 21.6084843 42.8855502 20.2828104 44.874061 20.150243 47.7905435 19.951392 49.5802033 21.8073354 50.3093239 25.7180734 51.9664163 34.5338047 54.0874945 42.0238621 56.6062749 48.3870968 58.3296509 31.5510384 61.2461335 19.4211224 65.3557225 11.931065 66.3499779 10.0751215 67.8082192 9.1471498 69.7304463 9.01458241 71.2549713 8.88201502 72.6469289 9.34600088 73.906319 10.3402563 75.1657092 11.3345117 75.8285462 12.5939019 75.9611136 14.1184269 76.0273973 15.3115334 75.8285462 16.3057888 75.2982766 17.3000442 72.7132125 22.0724702 70.5921343 30.0927972 68.8687583 41.2284578 67.2116659 52.0327 66.6151127 60.4507291 67.0128148 66.4825453 67.1453822 68.1396376 66.8802475 69.5978789 66.2174105 70.8572691 65.4220062 72.3155104 64.2288997 73.1109147 62.7043747 73.2434821 60.9809987 73.3760495 59.1913389 72.5806452 57.4679629 70.7909854 51.3035793 64.4940345 46.3985859 55.0817499 42.8192665 42.5541317 38.5108263 51.0384445 35.329209 57.4016792 33.2744145 61.6438356 29.3636765 69.1338931 26.0494918 72.9783473 23.2655767 73.1771984 21.4759169 73.3097658 19.951392 71.7852408 18.6257181 68.6036235 15.2452497 59.9204596 11.5996465 43.1506849 7.68890853 18.2942996 7.49005745 16.5709236 7.82147592 15.0463986 8.74944764 13.8532921zM151.25939 24.2598321C148.873177 20.0839593 145.360141 17.565179 140.653999 16.5709236 139.394609 16.3057888 138.201502 16.1732214 137.07468 16.1732214 130.711445 16.1732214 125.541317 19.4874061 121.498011 26.1157755 118.051259 31.7498895 116.327883 37.9805568 116.327883 44.8077773 116.327883 49.9116217 117.388422 54.2863456 119.509501 57.9319487 121.895714 62.1078215 125.408749 64.6266019 130.114892 65.6208573 131.374282 65.885992 132.567388 66.0185594 133.694211 66.0185594 140.12373 66.0185594 145.293858 62.7043747 149.270879 56.0760053 152.717631 50.3756076 154.441008 44.1449403 154.441008 37.3177198 154.441008 32.1475917 153.380468 27.8391516 151.25939 24.2598321L151.25939 24.2598321zM142.907645 42.6204154C141.979673 46.9951392 140.322581 50.2430402 137.870084 52.4304021 135.947857 54.1537782 134.158197 54.8828988 132.501105 54.5514803 130.910296 54.2200619 129.584622 52.8281043 128.590367 50.2430402 127.794962 48.1882457 127.39726 46.1334512 127.39726 44.211224 127.39726 42.5541317 127.529828 40.8970393 127.861246 39.3725144 128.457799 36.6548829 129.584622 34.0035351 131.374282 31.4847548 133.561644 28.2368537 135.881573 26.9111798 138.267786 27.3751657 139.858595 27.7065842 141.184269 29.0985418 142.178524 31.6836058 142.973928 33.7384004 143.371631 35.7931949 143.371631 37.715422 143.371631 39.4387981 143.172779 41.0958904 142.907645 42.6204154L142.907645 42.6204154zM109.699514 24.2598321C107.313301 20.0839593 103.733981 17.565179 99.0941228 16.5709236 97.8347327 16.3057888 96.6416262 16.1732214 95.5148034 16.1732214 89.1515687 16.1732214 83.9814406 19.4874061 79.9381352 26.1157755 76.4913831 31.7498895 74.7680071 37.9805568 74.7680071 44.8077773 74.7680071 49.9116217 75.8285462 54.2863456 77.9496244 57.9319487 80.3358374 62.1078215 83.8488732 64.6266019 88.5550155 65.6208573 89.8144057 65.885992 91.0075122 66.0185594 92.134335 66.0185594 98.5638533 66.0185594 103.733981 62.7043747 107.711003 56.0760053 111.157755 50.3756076 112.881131 44.1449403 112.881131 37.3177198 112.881131 32.1475917 111.820592 27.8391516 109.699514 24.2598321L109.699514 24.2598321zM101.347768 42.6204154C100.419797 46.9951392 98.7627044 50.2430402 96.3102077 52.4304021 94.3879806 54.1537782 92.5983208 54.8828988 90.9412285 54.5514803 89.3504198 54.2200619 88.0247459 52.8281043 87.0304905 50.2430402 86.2350862 48.1882457 85.837384 46.1334512 85.837384 44.211224 85.837384 42.5541317 85.9699514 40.8970393 86.3013699 39.3725144 86.8979231 36.6548829 88.0247459 34.0035351 89.8144057 31.4847548 92.0017676 28.2368537 94.3216969 26.9111798 96.7079099 27.3751657 98.2987185 27.7065842 99.6243924 29.0985418 100.618648 31.6836058 101.414052 33.7384004 101.811754 35.7931949 101.811754 37.715422 101.811754 39.4387981 101.679187 41.0958904 101.347768 42.6204154L101.347768 42.6204154z"/>
    <path fill="#000" fill-rule="nonzero" d="M179.562528,23.6632788 C175.12152,28.0380027 172.934158,33.605833 172.934158,40.3667698 C172.934158,47.5916924 175.12152,53.4909412 179.496244,57.9319487 C183.870968,62.3729563 189.571365,64.6266019 196.663721,64.6266019 C198.718515,64.6266019 201.038445,64.2951834 203.557225,63.5660627 L203.557225,52.8281043 C201.237296,53.4909412 199.248785,53.8223597 197.525409,53.8223597 C194.012373,53.8223597 191.228458,52.6292532 189.10738,50.3093239 C186.986301,47.9231109 185.925762,44.7414936 185.925762,40.6981882 C185.925762,36.9200177 186.986301,33.804684 189.041096,31.4184711 C191.162174,28.9659744 193.747238,27.7728679 196.928856,27.7728679 C198.98365,27.7728679 201.171012,28.1042863 203.557225,28.7671233 L203.557225,18.0291648 C201.369863,17.4326116 198.917366,17.1674768 196.332302,17.1674768 C189.571365,17.1011931 184.003535,19.288555 179.562528,23.6632788 Z M225.563411,17.1011931 C219.465312,17.1011931 214.692886,19.1559876 211.246133,23.199293 C207.799381,27.2425983 206.142289,32.942996 206.142289,40.2342024 C206.142289,48.121962 207.865665,54.1537782 211.246133,58.3296509 C214.626602,62.5055236 219.597879,64.6266019 226.093681,64.6266019 C232.390632,64.6266019 237.229342,62.5055236 240.60981,58.3296509 C243.990278,54.1537782 245.713654,48.2545294 245.713654,40.6981882 C245.713654,33.1418471 243.990278,27.308882 240.543526,23.199293 C237.03049,19.1559876 232.059213,17.1011931 225.563411,17.1011931 Z M230.799823,51.5687141 C229.606717,53.4246575 227.817057,54.3526293 225.563411,54.3526293 C223.442333,54.3526293 221.851525,53.4246575 220.724702,51.5687141 C219.597879,49.7127707 219.067609,46.0008838 219.067609,40.3667698 C219.067609,31.6836058 221.254971,27.3751657 225.695979,27.3751657 C230.335837,27.3751657 232.72205,31.7498895 232.72205,40.5656209 C232.655767,46.0008838 231.99293,49.7127707 230.799823,51.5687141 Z M278.457799,18.3605833 L276.071586,28.5019885 C275.475033,31.0870526 274.87848,33.7384004 274.34821,36.4560318 L273.022536,43.4821034 C271.763146,36.4560318 270.03977,28.1042863 267.852408,18.3605833 L252.474591,18.3605833 L246.70791,63.4997791 L258.241273,63.4997791 L261.356606,32.4127265 L269.244366,63.4997791 L277.463544,63.4997791 L285.019885,32.4790102 L288.267786,63.4997791 L300.331418,63.4997791 L294.233319,18.3605833 L278.457799,18.3605833 L278.457799,18.3605833 Z M333.672117,18.3605833 L331.285904,28.5019885 C330.68935,31.0870526 330.092797,33.7384004 329.562528,36.4560318 L328.236854,43.4821034 C326.977464,36.4560318 325.254087,28.1042863 323.066726,18.3605833 L307.688909,18.3605833 L301.922227,63.4997791 L313.45559,63.4997791 L316.570924,32.4127265 L324.458683,63.4997791 L332.677861,63.4997791 L340.167919,32.4790102 L343.41582,63.4997791 L355.479452,63.4997791 L349.381352,18.3605833 L333.672117,18.3605833 L333.672117,18.3605833 Z M371.188688,45.6694653 L381.99293,45.6694653 L381.99293,36.3234644 L371.188688,36.3234644 L371.188688,28.0380027 L383.650022,28.0380027 L383.650022,18.426867 L358.992488,18.426867 L358.992488,63.5660627 L383.716306,63.5660627 L383.716306,53.9549271 L371.188688,53.9549271 L371.188688,45.6694653 Z M418.051259,38.5108263 C419.31065,36.4560318 419.973487,34.3349536 419.973487,32.1475917 C419.973487,27.9054353 418.316394,24.5249669 415.002209,22.0724702 C411.688025,19.6199735 407.11445,18.3605833 401.414052,18.3605833 L387.229342,18.3605833 L387.229342,63.4997791 L399.425541,63.4997791 L399.425541,42.9518338 L399.624392,42.9518338 L409.500663,63.4997791 L422.3597,63.4997791 L412.615996,43.1506849 C414.935926,42.0901458 416.791869,40.5656209 418.051259,38.5108263 Z M399.359258,37.7817057 L399.359258,27.0437472 C402.27574,27.1100309 404.330535,27.5740168 405.589925,28.5019885 C406.849315,29.4299602 407.445868,30.8882015 407.445868,33.0092797 C407.445868,36.1246133 404.728237,37.715422 399.359258,37.7817057 Z M427.132125,23.6632788 C422.691118,28.0380027 420.503756,33.605833 420.503756,40.3667698 C420.503756,47.5916924 422.691118,53.4909412 427.065842,57.9319487 C431.440566,62.3729563 437.140963,64.6266019 444.233319,64.6266019 C446.288113,64.6266019 448.608042,64.2951834 451.126823,63.5660627 L451.126823,52.8281043 C448.806894,53.4909412 446.818383,53.8223597 445.095007,53.8223597 C441.581971,53.8223597 438.798056,52.6292532 436.676977,50.3093239 C434.555899,47.9231109 433.49536,44.7414936 433.49536,40.6981882 C433.49536,36.9200177 434.555899,33.804684 436.610694,31.4184711 C438.731772,28.9659744 441.316836,27.7728679 444.498453,27.7728679 C446.553248,27.7728679 448.74061,28.1042863 451.126823,28.7671233 L451.126823,18.0291648 C448.939461,17.4326116 446.486964,17.1674768 443.9019,17.1674768 C437.207247,17.1011931 431.573133,19.288555 427.132125,23.6632788 Z M466.703491,53.8223597 L466.703491,45.6031816 L477.507733,45.6031816 L477.507733,36.2571807 L466.703491,36.2571807 L466.703491,27.971719 L479.231109,27.971719 L479.231109,18.3605833 L454.573575,18.3605833 L454.573575,63.4997791 L479.297393,63.4997791 L479.297393,53.8886434 L466.703491,53.8886434 L466.703491,53.8223597 Z"/>
  </g>
</svg>
