<?xml version="1.0" encoding="UTF-8" standalone="no"?>
<svg
   width="512"
   height="512"
   fill="none"
   version="1.1"
   id="svg3"
   sodipodi:docname="plugin-woocommerce-icon-512x512.svg"
   inkscape:version="1.4 (e7c3feb1, 2024-10-09)"
   xmlns:inkscape="http://www.inkscape.org/namespaces/inkscape"
   xmlns:sodipodi="http://sodipodi.sourceforge.net/DTD/sodipodi-0.dtd"
   xmlns="http://www.w3.org/2000/svg"
   xmlns:svg="http://www.w3.org/2000/svg">
  <defs
     id="defs3" />
  <sodipodi:namedview
     id="namedview3"
     pagecolor="#ffffff"
     bordercolor="#666666"
     borderopacity="1.0"
     inkscape:showpageshadow="2"
     inkscape:pageopacity="0.0"
     inkscape:pagecheckerboard="true"
     inkscape:deskcolor="#d1d1d1"
     inkscape:zoom="1"
     inkscape:cx="246.5"
     inkscape:cy="246.5"
     inkscape:window-width="1792"
     inkscape:window-height="1006"
     inkscape:window-x="0"
     inkscape:window-y="25"
     inkscape:window-maximized="1"
     inkscape:current-layer="svg3" />
  <g
     id="g3"
     transform="matrix(2.788671,0,0,2.788671,2.2e-6,189.76906)">
	<path
   class="st0"
   d="M 77.4,0 C 73.1,0 70.3,1.4 67.8,6.1 L 56.4,27.6 V 8.5 C 56.4,2.8 53.7,0 48.7,0 43.7,0 41.6,1.7 39.1,6.5 L 28.3,27.6 V 8.7 C 28.3,2.6 25.8,0 19.7,0 H 7.3 C 2.6,0 0,2.2 0,6.2 c 0,4 2.5,6.4 7.1,6.4 h 5.1 v 24.1 c 0,6.8 4.6,10.8 11.2,10.8 6.6,0 9.6,-2.6 12.9,-8.7 l 7.2,-13.5 v 11.4 c 0,6.7 4.4,10.8 11.1,10.8 6.7,0 9.2,-2.3 13,-8.7 l 16.6,-28 C 87.8,4.7 85.3,0 77.3,0 Z"
   id="path1"
   style="clip-rule:evenodd;fill:#873eff;fill-rule:evenodd" />

	<path
   class="st0"
   d="M 108.6,0 C 95,0 84.7,10.1 84.7,23.8 c 0,13.7 10.4,23.7 23.9,23.7 13.5,0 23.8,-10.1 23.9,-23.7 C 132.5,10.1 122.1,0 108.6,0 Z m 0,32.9 c -5.1,0 -8.6,-3.8 -8.6,-9.1 0,-5.3 3.5,-9.2 8.6,-9.2 5.1,0 8.6,3.9 8.6,9.2 0,5.3 -3.4,9.1 -8.6,9.1 z"
   id="path2"
   style="clip-rule:evenodd;fill:#873eff;fill-rule:evenodd" />

	<path
   class="st0"
   d="m 159.7,0 c -13.5,0 -23.9,10.1 -23.9,23.8 0,13.7 10.4,23.7 23.9,23.7 13.5,0 23.9,-10.1 23.9,-23.7 C 183.6,10.2 173.2,0 159.7,0 Z m 0,32.9 c -5.2,0 -8.5,-3.8 -8.5,-9.1 0,-5.3 3.4,-9.2 8.5,-9.2 5.1,0 8.6,3.9 8.6,9.2 0,5.3 -3.4,9.1 -8.6,9.1 z"
   id="path3"
   style="clip-rule:evenodd;fill:#873eff;fill-rule:evenodd" />

</g>
</svg>
