<svg height="360" viewBox="0 0 640 360" width="640" xmlns="http://www.w3.org/2000/svg"><g fill="none" fill-rule="evenodd" transform="translate(80 124)"><path d="m15.7092355.13256739h131.9708355c8.351745 0 15.112682 6.76093681 15.112682 15.11268231v50.3756076c0 8.3517454-6.760937 15.1126822-15.112682 15.1126822h-47.326558l6.495802 15.9080867-28.5682721-15.9080867h-62.5055237c-8.35174545 0-15.11268226-6.7609368-15.11268226-15.1126822v-50.3756076c-.06628369-8.28546181 6.69465312-15.11268231 15.04639856-15.11268231z" fill="#9b5c8f"/><g fill-rule="nonzero"><path d="m8.74944764 13.8532921c.92797171-1.2593902 2.31992926-1.9222271 4.17587276-2.0547945 3.3804684-.2651348 5.3026955 1.3256739 5.7666814 4.772426 2.0547945 13.853292 4.3084401 25.5855059 6.6946531 35.1966416l14.516129-27.6403005c1.3256739-2.5187804 2.9827663-3.8444543 4.9712771-3.9770217 2.9164825-.198851 4.7061423 1.6570924 5.4352629 5.5678304 1.6570924 8.8157313 3.7781706 16.3057887 6.296951 22.6690234 1.723376-16.8360584 4.6398586-28.9659744 8.7494476-36.4560318.9942554-1.8559435 2.4524967-2.7839152 4.3747238-2.91648259 1.524525-.13256739 2.9164826.33141847 4.1758727 1.32567389 1.2593902.9942554 1.9222272 2.2536456 2.0547946 3.7781706.0662837 1.1931065-.1325674 2.1873619-.662837 3.1816173-2.5850641 4.772426-4.7061423 12.792753-6.4295183 23.9284136-1.6570924 10.8042422-2.2536456 19.2222713-1.8559435 25.2540875.1325674 1.6570923-.1325673 3.1153336-.7954043 4.3747238-.7954043 1.4582413-1.9885108 2.2536456-3.5130358 2.386213-1.723376.1325674-3.5130358-.6628369-5.2364118-2.4524967-6.1643836-6.2969509-11.069377-15.7092355-14.6486964-28.2368537-4.3084402 8.4843128-7.4900575 14.8475475-9.544852 19.0897039-3.910738 7.4900575-7.2249227 11.3345117-10.0088378 11.5333628-1.7896598.1325674-3.3141847-1.3919576-4.6398586-4.5735749-3.3804684-8.6831639-7.0260716-25.4529386-10.93680957-50.3093239-.19885108-1.723376.13256739-3.247901 1.06053911-4.4410075zm142.50994236 10.40654c-2.386213-4.1758728-5.899249-6.6946531-10.605391-7.6889085-1.25939-.2651348-2.452497-.3977022-3.579319-.3977022-6.363235 0-11.533363 3.3141847-15.576669 9.9425541-3.446752 5.634114-5.170128 11.8647813-5.170128 18.6920018 0 5.1038444 1.060539 9.4785683 3.181618 13.1241714 2.386213 4.1758728 5.899248 6.6946532 10.605391 7.6889086 1.25939.2651347 2.452496.3977021 3.579319.3977021 6.429519 0 11.599647-3.3141847 15.576668-9.9425541 3.446752-5.7003977 5.170129-11.931065 5.170129-18.7582855 0-5.1701281-1.06054-9.4785682-3.181618-13.0578877zm-8.351745 18.3605833c-.927972 4.3747238-2.585064 7.6226248-5.037561 9.8099867-1.922227 1.7233761-3.711887 2.4524967-5.368979 2.1210782-1.590809-.3314184-2.916483-1.723376-3.910738-4.3084401-.795405-2.0547945-1.193107-4.109589-1.193107-6.0318162 0-1.6570923.132568-3.3141847.463986-4.8387096.596553-2.7176315 1.723376-5.3689793 3.513036-7.8877596 2.187362-3.2479011 4.507291-4.573575 6.893504-4.1095891 1.590809.3314185 2.916483 1.7233761 3.910738 4.3084401.795404 2.0547946 1.193107 4.1095891 1.193107 6.0318162 0 1.7233761-.198852 3.3804684-.463986 4.9049934zm-33.208131-18.3605833c-2.386213-4.1758728-5.965533-6.6946531-10.6053912-7.6889085-1.2593901-.2651348-2.4524966-.3977022-3.5793194-.3977022-6.3632347 0-11.5333628 3.3141847-15.5766682 9.9425541-3.4467521 5.634114-5.1701281 11.8647813-5.1701281 18.6920018 0 5.1038444 1.0605391 9.4785683 3.1816173 13.1241714 2.386213 4.1758728 5.8992488 6.6946532 10.6053911 7.6889086 1.2593902.2651347 2.4524967.3977021 3.5793195.3977021 6.4295183 0 11.599646-3.3141847 15.576668-9.9425541 3.446752-5.7003977 5.170128-11.931065 5.170128-18.7582855 0-5.1701281-1.060539-9.4785682-3.181617-13.0578877zm-8.351746 18.3605833c-.927971 4.3747238-2.5850636 7.6226248-5.0375603 9.8099867-1.9222271 1.7233761-3.7118869 2.4524967-5.3689792 2.1210782-1.5908087-.3314184-2.9164826-1.723376-3.910738-4.3084401-.7954043-2.0547945-1.1931065-4.109589-1.1931065-6.0318162 0-1.6570923.1325674-3.3141847.4639859-4.8387096.5965532-2.7176315 1.723376-5.3689793 3.5130358-7.8877596 2.1873619-3.2479011 4.5072912-4.573575 6.8935042-4.1095891 1.5908086.3314185 2.9164825 1.7233761 3.9107381 4.3084401.795404 2.0547946 1.193106 4.1095891 1.193106 6.0318162 0 1.7233761-.132567 3.3804684-.463986 4.9049934z" fill="#fff"/><path d="m179.562528 23.6632788c-4.441008 4.3747239-6.62837 9.9425542-6.62837 16.703491 0 7.2249226 2.187362 13.1241714 6.562086 17.5651789 4.374724 4.4410076 10.075121 6.6946532 17.167477 6.6946532 2.054794 0 4.374724-.3314185 6.893504-1.0605392v-10.7379584c-2.319929.6628369-4.30844.9942554-6.031816.9942554-3.513036 0-6.296951-1.1931065-8.418029-3.5130358-2.121079-2.386213-3.181618-5.5678303-3.181618-9.6111357 0-3.7781705 1.060539-6.8935042 3.115334-9.2797171 2.121078-2.4524967 4.706142-3.6456032 7.88776-3.6456032 2.054794 0 4.242156.3314184 6.628369.9942554v-10.7379585c-2.187362-.5965532-4.639859-.861688-7.224923-.861688-6.760937-.0662837-12.328767 2.1210782-16.769774 6.495802zm46.000883-6.5620857c-6.098099 0-10.870525 2.0547945-14.317278 6.0980999-3.446752 4.0433053-5.103844 9.743703-5.103844 17.0349094 0 7.8877596 1.723376 13.9195758 5.103844 18.0954485 3.380469 4.1758727 8.351746 6.296951 14.847548 6.296951 6.296951 0 11.135661-2.1210783 14.516129-6.296951s5.103844-10.0751215 5.103844-17.6314627c0-7.5563411-1.723376-13.3893062-5.170128-17.4988952-3.513036-4.0433054-8.484313-6.0980999-14.980115-6.0980999zm5.236412 34.467521c-1.193106 1.8559434-2.982766 2.7839152-5.236412 2.7839152-2.121078 0-3.711886-.9279718-4.838709-2.7839152s-1.657093-5.5678303-1.657093-11.2019443c0-8.683164 2.187362-12.9916041 6.62837-12.9916041 4.639858 0 7.026071 4.3747238 7.026071 13.1904552-.066283 5.4352629-.72912 9.1471498-1.922227 11.0030932zm47.657976-33.2081308-2.386213 10.1414052c-.596553 2.5850641-1.193106 5.2364119-1.723376 7.9540433l-1.325674 7.0260716c-1.25939-7.0260716-2.982766-15.3778171-5.170128-25.1215201h-15.377817l-5.766681 45.1391958h11.533363l3.115333-31.0870526 7.88776 31.0870526h8.219178l7.556341-31.0207689 3.247901 31.0207689h12.063632l-6.098099-45.1391958zm55.214318 0-2.386213 10.1414052c-.596554 2.5850641-1.193107 5.2364119-1.723376 7.9540433l-1.325674 7.0260716c-1.25939-7.0260716-2.982767-15.3778171-5.170128-25.1215201h-15.377817l-5.766682 45.1391958h11.533363l3.115334-31.0870526 7.887759 31.0870526h8.219178l7.490058-31.0207689 3.247901 31.0207689h12.063632l-6.0981-45.1391958zm37.516571 27.308882h10.804242v-9.3460009h-10.804242v-8.2854617h12.461334v-9.6111357h-24.657534v45.1391957h24.723818v-9.6111356h-12.527618zm46.862571-7.158639c1.259391-2.0547945 1.922228-4.1758727 1.922228-6.3632346 0-4.2421564-1.657093-7.6226248-4.971278-10.0751215-3.314184-2.4524967-7.887759-3.7118869-13.588157-3.7118869h-14.18471v45.1391958h12.196199v-20.5479453h.198851l9.876271 20.5479453h12.859037l-9.743704-20.3490942c2.31993-1.0605391 4.175873-2.585064 5.435263-4.6398586zm-18.692001-.7291206v-10.7379585c2.916482.0662837 4.971277.5302696 6.230667 1.4582413s1.855943 2.386213 1.855943 4.5072912c0 3.1153336-2.717631 4.7061423-8.08661 4.772426zm27.772867-14.1184269c-4.441007 4.3747239-6.628369 9.9425542-6.628369 16.703491 0 7.2249226 2.187362 13.1241714 6.562086 17.5651789 4.374724 4.4410076 10.075121 6.6946532 17.167477 6.6946532 2.054794 0 4.374723-.3314185 6.893504-1.0605392v-10.7379584c-2.319929.6628369-4.30844.9942554-6.031816.9942554-3.513036 0-6.296951-1.1931065-8.41803-3.5130358-2.121078-2.386213-3.181617-5.5678303-3.181617-9.6111357 0-3.7781705 1.060539-6.8935042 3.115334-9.2797171 2.121078-2.4524967 4.706142-3.6456032 7.887759-3.6456032 2.054795 0 4.242157.3314184 6.62837.9942554v-10.7379585c-2.187362-.5965532-4.639859-.861688-7.224923-.861688-6.694653-.0662837-12.328767 2.1210782-16.769775 6.495802zm39.571366 30.1590809v-8.2191781h10.804242v-9.3460009h-10.804242v-8.2854617h12.527618v-9.6111357h-24.657534v45.1391958h24.723818v-9.6111357h-12.593902z" fill="#000"/></g></g></svg>