<svg xmlns="http://www.w3.org/2000/svg" width="512" height="512"><g fill="none" fill-rule="evenodd"><path d="m100.037 130-4.848 4.871v23.68c-8.435 8.996-13.574 20.928-13.574 34.02 0 .695.016 1.387.045 2.075h104.963c.029-.688.043-1.38.043-2.076 0-13.386-5.371-25.56-14.148-34.623v-23.076L167.67 130Zm2.59 6.465h61.412v16.162h-61.412zm8.455 27.474a4.435 4.351 0 0 1 4.436 4.352 4.435 4.351 0 0 1-4.436 4.352 4.435 4.351 0 0 1-4.436-4.352 4.435 4.351 0 0 1 4.436-4.352m15.373 0a4.435 4.351 0 0 1 4.436 4.352 4.435 4.351 0 0 1-4.436 4.352 4.435 4.351 0 0 1-4.435-4.352 4.435 4.351 0 0 1 4.435-4.352m16.557 0a4.435 4.351 0 0 1 4.433 4.352 4.435 4.351 0 0 1-4.433 4.352 4.435 4.351 0 0 1-4.436-4.352 4.435 4.351 0 0 1 4.436-4.352m15.373 0a4.435 4.351 0 0 1 4.433 4.352 4.435 4.351 0 0 1-4.433 4.352 4.435 4.351 0 0 1-4.436-4.352 4.435 4.351 0 0 1 4.436-4.352m-56.172 13.924a4.435 4.351 0 0 1 4.435 4.352 4.435 4.351 0 0 1-4.435 4.351 4.435 4.351 0 0 1-4.436-4.351 4.435 4.351 0 0 1 4.436-4.352m15.373 0a4.435 4.351 0 0 1 4.435 4.352 4.435 4.351 0 0 1-4.435 4.351 4.435 4.351 0 0 1-4.436-4.351 4.435 4.351 0 0 1 4.436-4.352m16.557 0a4.435 4.351 0 0 1 4.433 4.352 4.435 4.351 0 0 1-4.433 4.351 4.435 4.351 0 0 1-4.436-4.351 4.435 4.351 0 0 1 4.436-4.352m15.373 0a4.435 4.351 0 0 1 4.433 4.352 4.435 4.351 0 0 1-4.433 4.351 4.435 4.351 0 0 1-4.436-4.351 4.435 4.351 0 0 1 4.436-4.352m16.554 0a4.435 4.351 0 0 1 4.436 4.352 4.435 4.351 0 0 1-4.436 4.351 4.435 4.351 0 0 1-4.433-4.351 4.435 4.351 0 0 1 4.433-4.352M80 201.111v27.475h108.283V201.11zm54.95 6.463a8.081 7.273 0 0 1 8.08 7.274 8.081 7.273 0 0 1-8.08 7.273 8.081 7.273 0 0 1-8.083-7.273 8.081 7.273 0 0 1 8.082-7.274m-.618 1.617c-.554 0-1 .446-1 1v9.315c0 .554.446 1 1 1h1.232c.554 0 1-.446 1-1v-9.315c0-.554-.446-1-1-1z" style="fill:#fff" transform="translate(-378.267 -591.758)scale(4.72834)"/></g></svg>