<svg xmlns="http://www.w3.org/2000/svg" width="640" height="360"><g fill="none" fill-rule="evenodd"><path fill="#222" fill-rule="nonzero" d="M144.77 48.782V15.735h-12.245v-4.422h29.46v4.422h-12.296v33.047zm39.245-3.348q-2.535 2.172-4.88 3.067-2.344.894-5.032.895-4.437 0-6.82-2.186t-2.383-5.584q0-1.994.9-3.642.9-1.65 2.358-2.646a11 11 0 0 1 3.283-1.508q1.343-.357 4.056-.69 5.526-.664 8.138-1.584a61 61 0 0 0 .025-1.202q0-2.81-1.293-3.961-1.749-1.56-5.197-1.56-3.219 0-4.753 1.138t-2.27 4.026l-4.461-.614q.608-2.888 2.003-4.664 1.395-1.777 4.03-2.735 2.637-.96 6.11-.959 3.448 0 5.603.818t3.17 2.058q1.012 1.24 1.419 3.13.228 1.177.228 4.243v6.135q0 6.414.292 8.114.29 1.7 1.153 3.26h-4.766q-.71-1.432-.913-3.349m-.38-10.275q-2.483 1.023-7.454 1.738-2.814.41-3.98.92c-1.166.51-1.377.84-1.8 1.496a3.95 3.95 0 0 0-.634 2.185q0 1.841 1.382 3.067t4.044 1.227q2.635 0 4.69-1.163 2.053-1.163 3.017-3.182.735-1.56.735-4.6zm11.636 13.623V21.64h4.108v4.115q1.571-2.889 2.902-3.808a5.04 5.04 0 0 1 2.928-.92q2.308 0 4.69 1.482l-1.571 4.268q-1.673-.997-3.347-.997-1.496 0-2.687.908t-1.699 2.517q-.76 2.454-.76 5.368v14.21zm16.505 2.25 4.436.664q.28 2.07 1.547 3.016 1.698 1.278 4.64 1.278 3.168 0 4.892-1.278t2.332-3.578q.356-1.407.33-5.904-2.992 3.552-7.453 3.552-5.553 0-8.595-4.038t-3.042-9.687q0-3.885 1.394-7.17 1.395-3.284 4.044-5.072 2.649-1.79 6.224-1.79 4.766 0 7.859 3.885V21.64h4.208v23.463q0 6.338-1.28 8.984t-4.056 4.178q-2.775 1.534-6.832 1.534-4.818 0-7.784-2.185t-2.864-6.582m3.777-16.307q0 5.342 2.104 7.795t5.274 2.454q3.143 0 5.273-2.44 2.13-2.442 2.13-7.656 0-4.983-2.194-7.514-2.193-2.53-5.286-2.53-3.042 0-5.171 2.492c-2.13 2.492-2.13 4.127-2.13 7.399m44.366 5.316 4.716.588q-1.115 4.166-4.133 6.466t-7.707 2.3q-5.907 0-9.367-3.667-3.46-3.668-3.46-10.287 0-6.85 3.498-10.633t9.076-3.783q5.4 0 8.822 3.706 3.423 3.707 3.423 10.428 0 .41-.026 1.227h-20.078q.253 4.473 2.51 6.85t5.628 2.377q2.51 0 4.284-1.33 1.774-1.328 2.814-4.242m-14.983-7.437h15.034q-.305-3.425-1.724-5.138-2.18-2.658-5.654-2.658-3.143 0-5.285 2.121-2.144 2.122-2.37 5.675m35.392 12.063.659 4.064q-1.927.41-3.448.409-2.485 0-3.854-.792-1.369-.793-1.926-2.083-.558-1.29-.558-5.432V25.217h-3.347V21.64h3.347v-6.722l4.538-2.76v9.482h4.589v3.578h-4.59V41.09q0 1.968.242 2.53.24.562.786.895.545.332 1.559.332.76 0 2.003-.179m5.045 4.115V11.313h14.02q3.7 0 5.653.358 2.738.46 4.588 1.75 1.85 1.292 2.98 3.617 1.127 2.326 1.127 5.112 0 4.78-3.016 8.09t-10.902 3.31h-9.532v15.232zm4.918-19.654h9.608q4.767 0 6.77-1.79c2.002-1.79 2.002-2.87 2.002-5.035q0-2.352-1.179-4.025c-1.179-1.673-1.82-1.853-3.105-2.211q-1.243-.332-4.59-.332h-9.506zm46.698 16.306q-2.535 2.172-4.88 3.067t-5.032.895q-4.437 0-6.82-2.186t-2.383-5.584q0-1.994.9-3.642.9-1.65 2.358-2.646a11 11 0 0 1 3.283-1.508q1.343-.357 4.056-.69 5.527-.664 8.138-1.584.025-.945.025-1.202 0-2.81-1.293-3.961-1.749-1.56-5.197-1.56-3.219 0-4.753 1.138t-2.27 4.026l-4.461-.614q.608-2.888 2.003-4.664 1.395-1.777 4.03-2.735 2.637-.96 6.11-.959 3.449 0 5.603.818t3.17 2.058q1.012 1.24 1.419 3.13.228 1.177.228 4.243v6.135q0 6.414.292 8.114.29 1.7 1.153 3.26h-4.766q-.71-1.432-.913-3.349m-.38-10.275q-2.483 1.023-7.454 1.738-2.813.41-3.98.92c-1.167.51-1.377.84-1.8 1.496a3.95 3.95 0 0 0-.634 2.185q0 1.841 1.382 3.067t4.044 1.227q2.636 0 4.69-1.163t3.017-3.182q.735-1.56.735-4.6zm11.484 24.077-.507-4.32q1.496.41 2.612.41 1.521 0 2.433-.512a4.16 4.16 0 0 0 1.496-1.431q.431-.69 1.395-3.425.127-.383.405-1.125L345.71 21.64h4.919l5.602 15.718a70 70 0 0 1 1.953 6.288 62 62 0 0 1 1.876-6.185l5.755-15.821h4.563l-10.242 27.603q-1.648 4.473-2.56 6.16-1.218 2.274-2.79 3.335t-3.752 1.061q-1.318 0-2.94-.562m27.457-10.454v-5.24h5.197v5.24zm30.701-9.942 4.487.588q-.735 4.677-3.764 7.322t-7.441 2.646q-5.527 0-8.886-3.643-3.36-3.642-3.36-10.44 0-4.396 1.446-7.693t4.398-4.946q2.955-1.65 6.427-1.649 4.386 0 7.175 2.237t3.574 6.351l-4.436.69q-.634-2.735-2.244-4.115t-3.891-1.38q-3.45 0-5.603 2.492-2.155 2.492-2.155 7.885 0 5.47 2.079 7.949t5.425 2.479q2.687 0 4.487-1.661t2.282-5.112m6.693-3.63q0-7.54 4.158-11.169 3.473-3.016 8.467-3.016 5.553 0 9.076 3.668t3.524 10.134q0 5.239-1.559 8.243-1.56 3.003-4.538 4.664-2.978 1.662-6.503 1.662-5.653 0-9.14-3.655-3.485-3.656-3.485-10.53m4.69 0q0 5.215 2.256 7.809 2.257 2.595 5.68 2.594 3.396 0 5.653-2.607t2.256-7.949q0-5.035-2.269-7.63-2.27-2.593-5.64-2.593-3.423 0-5.68 2.581t-2.256 7.796m25.884 13.572V21.64h4.082v3.808a9.6 9.6 0 0 1 3.372-3.208q2.104-1.214 4.791-1.214 2.992 0 4.906 1.253t2.7 3.501q3.194-4.754 8.316-4.754 4.005 0 6.16 2.237T480 30.15v18.632h-4.538V31.683q0-2.76-.444-3.974-.443-1.215-1.61-1.955-1.166-.741-2.738-.741-2.839 0-4.715 1.904t-1.876 6.095v15.77h-4.563V31.147q0-3.068-1.116-4.6-1.115-1.534-3.65-1.534-1.927 0-3.563 1.022-1.635 1.023-2.37 2.99t-.735 5.674v14.083z" style="fill:#fff" transform="translate(80 130)"/><path d="m100.037 130-4.848 4.871v23.68c-8.435 8.996-13.574 20.928-13.574 34.02q0 1.043.045 2.075h104.963q.043-1.032.043-2.076c0-13.386-5.371-25.56-14.148-34.623v-23.076L167.67 130zm2.59 6.465h61.412v16.162h-61.412zm8.455 27.474a4.435 4.351 0 0 1 4.436 4.352 4.435 4.351 0 0 1-4.436 4.352 4.435 4.351 0 0 1-4.436-4.352 4.435 4.351 0 0 1 4.436-4.352m15.373 0a4.435 4.351 0 0 1 4.436 4.352 4.435 4.351 0 0 1-4.436 4.352 4.435 4.351 0 0 1-4.435-4.352 4.435 4.351 0 0 1 4.435-4.352m16.557 0a4.435 4.351 0 0 1 4.433 4.352 4.435 4.351 0 0 1-4.433 4.352 4.435 4.351 0 0 1-4.436-4.352 4.435 4.351 0 0 1 4.436-4.352m15.373 0a4.435 4.351 0 0 1 4.433 4.352 4.435 4.351 0 0 1-4.433 4.352 4.435 4.351 0 0 1-4.436-4.352 4.435 4.351 0 0 1 4.436-4.352m-56.172 13.924a4.435 4.351 0 0 1 4.435 4.352 4.435 4.351 0 0 1-4.435 4.351 4.435 4.351 0 0 1-4.436-4.351 4.435 4.351 0 0 1 4.436-4.352m15.373 0a4.435 4.351 0 0 1 4.435 4.352 4.435 4.351 0 0 1-4.435 4.351 4.435 4.351 0 0 1-4.436-4.351 4.435 4.351 0 0 1 4.436-4.352m16.557 0a4.435 4.351 0 0 1 4.433 4.352 4.435 4.351 0 0 1-4.433 4.351 4.435 4.351 0 0 1-4.436-4.351 4.435 4.351 0 0 1 4.436-4.352m15.373 0a4.435 4.351 0 0 1 4.433 4.352 4.435 4.351 0 0 1-4.433 4.351 4.435 4.351 0 0 1-4.436-4.351 4.435 4.351 0 0 1 4.436-4.352m16.554 0a4.435 4.351 0 0 1 4.436 4.352 4.435 4.351 0 0 1-4.436 4.351 4.435 4.351 0 0 1-4.433-4.351 4.435 4.351 0 0 1 4.433-4.352M80 201.111v27.475h108.283V201.11zm54.95 6.463a8.081 7.273 0 0 1 8.08 7.274 8.081 7.273 0 0 1-8.08 7.273 8.081 7.273 0 0 1-8.083-7.273 8.081 7.273 0 0 1 8.082-7.274m-.618 1.617c-.554 0-1 .446-1 1v9.315c0 .554.446 1 1 1h1.232c.554 0 1-.446 1-1v-9.315c0-.554-.446-1-1-1z" style="fill:#fff"/><path fill="#919191" fill-rule="nonzero" d="M137.374 84.989q0-2.637.813-4.426a8.1 8.1 0 0 1 1.656-2.367q1.05-1.047 2.3-1.554 1.66-.682 3.833-.682 3.932 0 6.291 2.366c2.36 2.366 2.36 3.77 2.36 6.58q0 4.18-2.342 6.54t-6.26 2.36q-3.967 0-6.31-2.348-2.34-2.349-2.341-6.47m3.7-.118q0 2.931 1.396 4.444 1.394 1.513 3.543 1.513 2.147 0 3.524-1.501t1.377-4.503q0-2.967-1.34-4.426t-3.561-1.46-3.58 1.477-1.359 4.456m28.052 8.641h-3.41v-6.38q0-2.025-.217-2.62a1.84 1.84 0 0 0-.71-.924q-.492-.33-1.183-.33-.885 0-1.59.471-.703.471-.964 1.248t-.261 2.873v5.662h-3.41V81.01h3.167v1.836q1.687-2.119 4.247-2.119 1.129 0 2.062.395c.933.395 1.094.598 1.414 1.006q.48.612.667 1.39.188.776.188 2.224zm3.458 0V76.254h3.41v17.258zm6.904-14.197v-3.061h3.41v3.06zm0 14.197V81.01h3.41v12.502zm18.625 0h-3.41v-6.38q0-2.025-.218-2.62a1.84 1.84 0 0 0-.71-.924q-.492-.33-1.183-.33-.885 0-1.59.471-.703.471-.964 1.248t-.261 2.873v5.662h-3.41V81.01h3.167v1.836q1.687-2.119 4.247-2.119 1.128 0 2.063.395.934.394 1.413 1.006c.48.612.542.871.667 1.39s.189 1.259.189 2.224zm10.92-3.979 3.397.553q-.656 1.814-2.069 2.76c-1.413.947-2.121.949-3.537.949q-3.36 0-4.974-2.131-1.275-1.707-1.274-4.309 0-3.108 1.674-4.868 1.675-1.76 4.234-1.76 2.876 0 4.538 1.843t1.59 5.645h-8.542q.037 1.47.825 2.29.789.817 1.966.817.8 0 1.346-.423.547-.424.825-1.366m.194-3.343q-.038-1.437-.765-2.184a2.38 2.38 0 0 0-1.771-.748q-1.117 0-1.845.79-.727.788-.715 2.142zm13.103-9.936h7.11q2.111 0 3.15.17 1.036.171 1.855.713a4.5 4.5 0 0 1 1.365 1.442q.546.9.546 2.019 0 1.212-.673 2.225c-.673 1.013-1.058 1.181-1.826 1.518q1.626.46 2.5 1.566.873 1.107.873 2.602 0 1.177-.564 2.29a4.65 4.65 0 0 1-1.541 1.777q-.977.666-2.409.818-.897.094-4.331.118h-6.055zm3.592 2.872v3.991h2.354q2.1 0 2.608-.059.922-.105 1.45-.618.528-.511.528-1.348 0-.8-.455-1.3-.454-.5-1.353-.607-.534-.059-3.07-.059zm0 6.864v4.614h3.324q1.943 0 2.463-.106.801-.14 1.305-.688t.503-1.466q0-.777-.388-1.318-.389-.542-1.122-.79-.734-.246-3.185-.246zm21.779 3.543 3.397.553q-.655 1.814-2.068 2.76-1.415.95-3.537.949-3.361 0-4.975-2.131-1.274-1.707-1.274-4.309 0-3.108 1.675-4.868 1.674-1.76 4.234-1.76 2.876 0 4.538 1.843t1.59 5.645h-8.543q.037 1.47.826 2.29.787.817 1.965.817.801 0 1.347-.423.546-.424.825-1.366m.194-3.343q-.036-1.437-.764-2.184a2.38 2.38 0 0 0-1.772-.748q-1.116 0-1.844.79-.728.788-.716 2.142zm12.073-5.18v2.637h-2.33v5.038q0 1.53.067 1.784a.73.73 0 0 0 .303.418q.237.165.576.165.474 0 1.372-.318l.29 2.566q-1.188.495-2.693.495-.923 0-1.662-.3-.741-.3-1.086-.778-.345-.476-.48-1.289-.108-.576-.109-2.33v-5.451h-1.565V81.01h1.565v-2.484l3.422-1.93v4.414zm4.914 3.814-3.094-.541q.521-1.814 1.795-2.684 1.274-.872 3.786-.872 2.28 0 3.397.524 1.116.525 1.571 1.33.456.807.455 2.961l-.036 3.862q0 1.648.164 2.43.163.783.613 1.678h-3.373q-.135-.33-.328-.977a6 6 0 0 0-.121-.389 6.2 6.2 0 0 1-1.869 1.237 5.5 5.5 0 0 1-2.123.412q-1.99 0-3.137-1.048-1.146-1.048-1.146-2.649 0-1.059.521-1.89a3.38 3.38 0 0 1 1.463-1.27q.94-.442 2.711-.772 2.39-.435 3.313-.812v-.33q0-.953-.486-1.36-.485-.406-1.832-.406-.91 0-1.42.348-.51.347-.824 1.218m4.562 2.684q-.656.212-2.075.506t-1.856.577q-.668.46-.668 1.166 0 .694.534 1.2.534.507 1.359.507.922 0 1.76-.589.618-.447.812-1.095.134-.423.134-1.613zm6.71 6.004V76.254h3.409v17.258zm6.903-14.197v-3.061h3.41v3.06zm0 14.197V81.01h3.41v12.502zm18.625 0h-3.41v-6.38q0-2.026-.218-2.62a1.84 1.84 0 0 0-.71-.924q-.492-.33-1.183-.33-.885 0-1.59.471-.703.471-.964 1.248-.26.777-.26 2.873v5.662h-3.41V81.01h3.166v1.836q1.687-2.118 4.247-2.119 1.128 0 2.063.395.935.394 1.413 1.006.48.612.668 1.39c.188.777.188 1.259.188 2.224zm3.142.824 3.895.46q.097.658.449.906.485.353 1.529.353 1.335 0 2.002-.389.448-.258.679-.835.158-.412.158-1.52v-1.824q-1.53 2.025-3.859 2.025-2.596 0-4.113-2.13-1.188-1.684-1.189-4.192 0-3.142 1.56-4.803 1.558-1.66 3.876-1.66 2.39 0 3.943 2.037V81.01h3.191v11.219q0 2.213-.376 3.308t-1.056 1.719-1.813.977-2.87.353q-3.276 0-4.647-1.09-1.371-1.088-1.371-2.76 0-.165.012-.4m3.046-7.334q0 1.99.794 2.914.795.924 1.96.924 1.25 0 2.11-.948c.86-.948.862-1.568.862-2.808q0-1.942-.825-2.884t-2.087-.942q-1.225 0-2.02.925-.794.924-.794 2.819m19.91 2.531 3.397.553q-.654 1.814-2.068 2.76-1.415.95-3.537.949-3.36 0-4.975-2.131-1.274-1.707-1.274-4.309 0-3.108 1.675-4.868 1.674-1.76 4.234-1.76 2.876 0 4.538 1.843t1.59 5.645h-8.542q.036 1.47.825 2.29.788.817 1.965.817.801 0 1.347-.423.547-.424.825-1.366m.194-3.343q-.036-1.437-.764-2.184a2.38 2.38 0 0 0-1.772-.748q-1.116 0-1.844.79-.728.788-.716 2.142zm17.885 7.322h-3.41v-6.38q0-2.025-.218-2.62a1.84 1.84 0 0 0-.71-.924q-.492-.33-1.183-.33-.885 0-1.59.471-.703.471-.964 1.248-.26.777-.26 2.873v5.662h-3.41V81.01h3.166v1.836q1.687-2.119 4.247-2.119 1.128 0 2.063.395.934.394 1.413 1.006.48.612.668 1.39c.188.777.188 1.259.188 2.224z" style="fill:#fff" transform="translate(80 130)"/></g></svg>