<svg height="360" width="640" xmlns="http://www.w3.org/2000/svg"><g fill="none" style="fill:#fff"><path d="m27.078 40.726 4.843-21.133c1.54-5.944 1.76-7.265 2.862-12.769l.44-.44c6.384 0 8.365 0 15.85-.22l.44.44c0 6.384.22 7.925.44 16.29l.441 11.889c.66 14.309.88 17.611 1.32 25.096l-.44.44c-5.723 0-7.484 0-11.887.22l-.44-.44c0-9.466 0-10.787-.22-21.354l-.22-20.473-5.724 24.876c-1.982 8.365-2.642 12.328-3.523 16.73l-.44.441c-3.963 0-5.283 0-9.246.22l-.44-.44a956.776 956.776 0 0 1-3.523-16.07l-5.723-25.097-.44 17.612c-.44 15.85-.44 17.611-.44 23.335l-.441.44c-4.183 0-5.504 0-9.907.22l-.44-.44C.88 47.551.88 46.23 1.541 37.865l.66-16.731c.22-7.265.22-10.787.44-14.31l.441-.44c6.824 0 8.806 0 16.29-.22l.44.44c.881 3.963.881 4.183 2.643 12.328zm52.614 15.41C77.49 58.338 74.188 61.2 69.125 61.2c-8.145 0-9.026-7.485-9.246-9.246-.22-2.202-.22-4.843-.22-9.246v-3.963c0-11.007 0-12.768-.22-18.052l.44-.44c4.843 0 5.944 0 11.227-.44l.44.44c0 2.642-.22 15.63-.22 18.712 0 1.761 0 8.146.22 9.466 0 .881.44 3.523 3.743 3.523 2.201 0 3.302-1.321 4.403-2.202v-6.164c0-1.54-.22-16.51-.44-22.674l.44-.44c5.063 0 6.384-.22 11.227-.441l.44.44c0 4.843-.22 7.485-.22 14.75v15.85c0 4.183.22 7.045.22 9.246l-.44.44c-5.503 0-6.384 0-11.007.22l-.44-.22zm30.38 4.183c-5.064 0-6.385 0-11.888.22l-.44-.44c.22-4.843.22-9.906.22-20.693V18.492c-.22-7.705-.44-10.127-.66-13.869l.44-.44c5.063-.88 7.044-1.101 11.667-2.202l.44.44v13.65c0 2.421 0 19.592.22 29.719.22 6.824.22 10.567.44 14.089zm24.435-31.7h-5.283V45.129c0 3.963 0 7.705 3.522 7.705 1.321 0 1.982-.44 2.422-.66l.44.44c-.22 3.302-.22 3.963-.44 7.485l-.44.66c-1.762.44-3.963.66-6.164.66-1.762 0-6.385 0-9.026-3.521-1.982-2.642-1.982-5.944-1.761-11.448V28.398c-1.321 0-2.202 0-3.743.22l-.44-.44c.22-3.522.22-3.522.22-7.485l.44-.44h3.523v-9.246l.44-.44c5.063-1.321 6.384-1.761 11.007-3.082l.44.44c-.22 3.302-.22 4.183-.22 12.768 2.642 0 3.302 0 5.504-.22l.44.44c-.22 3.523-.22 3.963-.44 7.485zm16.951 31.92c-4.843 0-6.824 0-12.107.22l-.44-.44c.22-4.843.44-9.686.44-18.272 0-12.108-.44-16.29-.66-20.253l.44-.44c5.283-.66 6.824-1.1 11.887-2.202l.44.44v3.083c0 4.623-.22 9.026-.22 13.649 0 7.925.22 15.85.66 23.775zm-1.1-47.77c-4.623.44-5.944.66-10.567 1.54l-.44-.44c0-3.963 0-5.063-.22-9.246l.44-.44c5.283-.44 6.164-.66 10.787-1.321l.44.44c-.22 4.403 0 5.504 0 9.026z" fill="#1aa5de" transform="translate(80 132.201)" style="fill:#fff"/><path d="M28.178 15.63c-1.981-1.54-4.182-3.522-8.585-3.522-3.963 0-6.384 2.201-6.384 5.503 0 2.422 1.32 4.183 3.742 5.944.66.66 4.843 3.523 5.724 3.963 4.843 3.302 8.805 6.824 8.585 14.53 0 5.063-1.76 9.025-3.962 11.447-3.963 4.403-9.466 5.503-14.53 5.503-3.082 0-7.485-.44-11.447-2.421l-.44-.66c0-1.542.22-3.303.22-5.064 0-1.54.22-2.862.22-4.403l.66-.22c2.642 2.422 5.944 3.742 9.466 3.742 5.724 0 7.265-3.962 7.265-6.604 0-3.302-2.201-5.283-5.724-7.705l-3.302-2.201C5.724 30.6.66 27.078.66 18.712c0-5.503 1.982-9.246 4.183-11.447 3.522-3.523 8.366-4.183 12.768-4.183 3.963 0 7.926.66 11.448 2.422l.22.66c-.22 1.541-.22 3.302-.44 4.843l-.22 4.403zm25.757 39.406c-1.32 1.1-3.963 3.962-9.026 3.962-5.724 0-10.126-4.403-10.126-12.548 0-11.447 10.126-14.089 19.152-15.85 0-2.642 0-5.504-5.504-5.504-5.063 0-8.145 1.982-9.686 3.082l-.44-.22c.22-3.522.22-4.403.44-7.705l.44-.66c4.403-1.982 10.127-2.422 12.989-2.422 3.082 0 9.026.44 11.888 5.284 1.76 3.082 1.76 6.384 1.54 12.768v5.944c0 6.384 0 10.787.661 16.73l-.44.44c-5.064 0-6.164 0-10.787.221l-.44-.44zm-.22-17.392c-3.302.44-8.145 1.321-8.145 7.485 0 3.302 1.76 5.284 4.182 5.284 2.202 0 3.523-1.321 4.183-1.982zm35.883-11.227h-4.843c0 18.052.22 25.096.44 31.7l-.44.441c-5.503 0-6.604 0-11.667.22l-.44-.44v-2.862c.22-5.283.22-22.234.22-29.059-1.762 0-2.202 0-3.743.22l-.44-.44c.22-2.862.22-3.963.44-7.485l.44-.44c1.541.22 1.761.22 3.302.22 0-5.944-.22-10.787 2.202-13.869C78.15.66 83.875.66 85.416.66c2.641 0 4.402.44 5.283.44l.22.441c-.22 3.302-.44 4.183-.44 7.925l-.44.44c-.44-.22-1.101-.44-1.762-.44-1.54 0-2.421.66-3.082 1.541-.88 1.321-.88 2.862-.88 7.485 2.421 0 3.082 0 5.283-.22l.44.44c-.22 3.302-.22 4.183-.44 7.485zm14.75 14.09c.22 6.824 3.742 10.126 9.466 10.126 4.623 0 7.265-1.981 8.365-2.642l.44.22c-.22 3.302-.22 4.623-.44 7.925l-.22.66c-1.54 1.322-6.384 2.422-10.787 2.422-13.208 0-18.492-8.365-18.492-21.133 0-2.642.22-5.504.88-8.366 2.202-9.246 8.807-12.768 15.41-12.768 2.202 0 4.404.44 6.385 1.32 7.265 3.303 8.365 10.348 8.365 17.832v3.963l-.44.44zm8.585-7.265c0-1.321 0-2.422-.22-3.963-.44-2.422-1.54-4.623-3.742-4.623-1.1 0-4.183.44-4.403 8.365zm27.959-16.07v3.742c1.76-1.541 4.402-3.963 8.805-3.963 4.623 0 7.485 2.862 9.026 5.283 2.642 4.183 3.302 9.687 3.302 13.43 0 5.503-.88 17.17-11.447 21.353-3.302 1.32-5.284 1.1-9.466 1.1 0 5.504.22 12.549.44 15.41l-.44.441c-1.541 0-3.082-.22-4.403-.22-2.422 0-4.403.22-7.045.22l-.44-.44c.22-6.164.22-12.108.22-18.272 0-12.108 0-24.436-1.1-36.324l.44-.44c5.503-.66 7.044-1.1 11.667-1.981zm.44 33.02H143.093c6.824-.66 6.824-9.686 6.824-13.428 0-1.981-.22-5.504-1.32-8.145-.22-.44-1.321-2.642-3.743-2.642-1.761 0-2.862 1.1-3.742 1.981 0 8.145 0 11.668.22 22.235zm42.928 4.844c-1.321 1.1-3.963 3.962-9.026 3.962-5.724 0-10.127-4.403-10.127-12.548 0-11.447 10.127-14.089 19.153-15.85 0-2.642 0-5.504-5.504-5.504-5.063 0-8.145 1.982-9.686 3.082l-.44-.22c.22-3.522.22-4.403.44-7.705l.44-.66c4.403-1.982 10.127-2.422 12.989-2.422 3.082 0 9.025.44 11.887 5.284 1.761 3.082 1.761 6.384 1.541 12.768v5.944c0 6.384 0 10.787.66 16.73l-.44.44c-5.063 0-6.164 0-10.787.221l-.44-.44zm-.22-17.392c-3.303.44-8.146 1.321-8.146 7.485 0 3.302 1.761 5.284 4.183 5.284 2.201 0 3.522-1.321 4.183-1.982V37.644zm22.454 36.324c1.982-4.403 2.642-7.044 5.284-14.31-3.523-12.107-9.687-31.7-12.989-41.166l.44-.44c5.504 0 6.605-.22 12.108-.44l.66.44c.881 3.962 1.102 5.283 3.083 13.428l2.862 11.448 3.082-12.328c1.54-5.504 1.54-5.944 3.082-12.328l.44-.44c4.183 0 5.283 0 9.466-.22l.22.44c-1.981 5.944-2.421 7.705-7.044 22.454l-3.743 12.548c-3.082 10.567-4.403 15.19-5.503 20.694l-.44.44c-5.064 0-5.944 0-10.347.22z" fill="#171113" transform="translate(236.302 134.403)" style="fill:#fff"/><path d="M38.745 1.1c-3.082 0-5.503 2.422-5.503 5.504s2.421 5.504 5.503 5.504 5.504-2.422 5.504-5.504-2.422-5.503-5.504-5.503M12.108 12.328a5.58 5.58 0 0 0 0 7.925 5.58 5.58 0 0 0 7.925 0 5.58 5.58 0 0 0 0-7.925c-2.422-2.201-5.724-2.201-7.925 0m54.595 7.925c2.202-2.201 2.202-5.724 0-7.925s-5.723-2.201-7.925 0a5.58 5.58 0 0 0 0 7.925c2.422 1.981 5.944 1.981 7.925 0M6.164 34.123c-3.082 0-5.504 2.42-5.504 5.503s2.422 5.503 5.504 5.503c3.082 0 5.504-2.421 5.504-5.503s-2.422-5.504-5.504-5.504m5.944 25.096a5.58 5.58 0 0 0 0 7.926 5.58 5.58 0 0 0 7.925 0 5.58 5.58 0 0 0 0-7.926c-2.422-2.2-5.944-2.2-7.925 0m27.298 8.146c-3.082 0-5.504 2.421-5.504 5.503s2.422 5.504 5.504 5.504c3.082 0 5.503-2.422 5.503-5.504s-2.421-5.503-5.503-5.503m19.592-8.146a5.58 5.58 0 0 0 0 7.926 5.58 5.58 0 0 0 7.926 0 5.58 5.58 0 0 0 0-7.926 5.58 5.58 0 0 0-7.926 0m13.65-25.096c-3.083 0-5.504 2.422-5.504 5.504s2.421 5.503 5.503 5.503 5.504-2.421 5.504-5.503c0-2.862-2.422-5.504-5.504-5.504" fill="#929497" transform="translate(480.66 130)" style="fill:#fff"/><g fill="#171113" style="fill:#fff"><path d="M0 14.53h2.642c0 .88.44 1.54 1.1 2.2.66.661 1.762.881 2.862.881 1.101 0 1.982-.22 2.862-.88.66-.44 1.1-1.321 1.1-2.202 0-.66-.22-1.32-.66-1.54-.44-.44-1.1-.661-2.201-.881l-2.862-.66c-.66-.22-1.1-.44-1.54-.661-.441-.22-.881-.44-1.322-.88-.44-.44-.66-.881-.88-1.321-.22-.44-.44-1.101-.44-1.762 0-1.1.22-1.98.88-2.861.66-.881 1.32-1.321 2.201-1.762s1.982-.66 3.082-.66c1.101 0 2.202.22 3.082.66.881.44 1.762.881 2.202 1.762.66.88.88 1.76.88 2.861h-2.641c0-.88-.44-1.54-1.101-1.98-.66-.441-1.541-.881-2.642-.881-1.1 0-1.981.22-2.641.66-.66.44-.881 1.1-.881 1.981 0 1.321.88 1.982 2.422 2.422l2.861.66c.66.22 1.101.22 1.541.44l1.321.661c.44.22.66.66.88.88.221.44.441.661.661 1.101s.22.88.22 1.541c0 1.761-.66 3.082-1.76 3.963-1.322.88-2.863 1.32-4.844 1.32-.88 0-1.761 0-2.421-.22-.66-.22-1.321-.44-1.762-.88s-.88-.66-1.1-1.1C.88 16.95.44 16.51.44 16.07.22 15.41 0 14.97 0 14.53zm16.29 4.843V5.723h2.642v1.762h.22c.22-.44.66-1.1 1.321-1.321.66-.44 1.321-.66 2.202-.66 1.1 0 1.76.22 2.421.66.66.44 1.101.88 1.321 1.541h.22c.22-.66.66-1.1 1.541-1.541.66-.44 1.541-.66 2.642-.66 1.32 0 2.422.44 3.302 1.32.88.881 1.1 1.982 1.1 3.303v9.246h-2.64v-8.586c0-.88-.221-1.541-.661-2.201-.44-.44-1.101-.881-1.982-.881-.88 0-1.54.22-1.98.88s-.661 1.321-.661 2.202v8.365h-2.642v-8.365c0-1.1-.22-1.761-.66-2.201-.44-.44-1.101-.881-1.982-.881s-1.54.22-1.981.88c-.44.44-.88 1.321-.88 2.202v8.365H16.29zm29.94-1.762c-.44.66-.88 1.101-1.541 1.541s-1.541.66-2.422.66c-1.32 0-2.421-.44-3.302-1.1-.88-.66-1.32-1.761-1.32-3.082s.44-2.201 1.32-2.862c.88-.66 1.982-1.1 3.523-1.1h3.522v-1.541c0-1.541-.88-2.202-2.642-2.202-1.54 0-2.421.66-2.642 1.981h-2.421c0-1.32.44-2.201 1.32-3.082.881-.66 2.202-1.1 3.743-1.1s2.862.44 3.743 1.1 1.32 1.762 1.32 3.303v9.246H46.01zm-3.082-.22c.88 0 1.541-.22 2.201-.88.66-.44.881-1.101.881-1.982v-1.32h-3.082c-.88 0-1.541.22-1.981.44-.44.44-.66.88-.66 1.54s.22 1.322.66 1.542c.66.66 1.32.66 1.981.66zm9.466 1.982V5.723h2.642v1.762c.22-.22.22-.44.44-.66.22-.22.22-.44.66-.661.22-.22.661-.44.881-.44.44-.22.88-.22 1.321-.22h.88v2.421h-1.1c-1.981 0-3.082 1.1-3.082 3.302v8.146zm10.787-13.65V2.423h2.642v3.302h2.642v2.201h-2.642v7.485c0 .66.22 1.32.44 1.541s.88.44 1.761.44h.66v1.982h-1.32c-.88 0-1.541 0-1.981-.22l-1.321-.661c-.22-.44-.44-.66-.66-1.1-.22-.441-.22-1.101-.22-1.762V7.925H61.64V5.724zM76.83 1.762h6.604c1.761 0 3.082.44 4.183 1.541 1.1 1.1 1.541 2.422 1.541 3.963 0 1.76-.44 3.082-1.541 3.962-1.1 1.101-2.422 1.541-4.183 1.541h-3.962v6.384H76.83zm2.642 2.202v6.604h2.421c.66 0 1.321 0 1.982-.22.44 0 .88-.22 1.32-.44.44-.22.66-.661.88-1.101s.221-1.101.221-1.761c0-1.101-.22-1.982-.88-2.422-.66-.66-1.321-.88-2.422-.88h-3.522zM98.844 17.61c-.44.66-.88 1.101-1.54 1.541s-1.542.66-2.422.66c-1.321 0-2.422-.44-3.302-1.1s-1.321-1.761-1.321-3.082.44-2.201 1.32-2.862 1.982-1.1 3.523-1.1h3.522v-1.541c0-1.541-.88-2.202-2.642-2.202-1.54 0-2.421.66-2.641 1.981h-2.422c0-1.32.44-2.201 1.321-3.082.88-.66 2.201-1.1 3.742-1.1s2.862.44 3.743 1.1c.88.66 1.32 1.762 1.32 3.303v9.246h-2.42zm-3.082-.22c.88 0 1.541-.22 2.202-.88.66-.44.88-1.101.88-1.982v-1.32h-3.082c-.88 0-1.54.22-1.981.44-.44.44-.66.88-.66 1.54s.22 1.322.66 1.542c.66.66 1.1.66 1.981.66zm20.474-11.667a2100.687 2100.687 0 0 1-4.623 13.428l-.44.881c-.22.44-.441.88-.441 1.32s-.44.661-.66 1.102c-.22.44-.66.66-.881.88s-.66.44-1.1.66c-.441.22-1.101.22-1.542.22s-1.1 0-1.54-.22v-1.98h1.1c.88 0 1.32-.22 1.761-.441.44-.44.66-.88.88-1.541l.22-.66-4.842-13.65h2.862l3.302 11.008h.22l3.522-11.007zm2.421 13.649V5.723h2.642v1.762h.22c.22-.44.66-1.1 1.32-1.321.661-.44 1.322-.66 2.202-.66 1.101 0 1.761.22 2.422.66.66.44 1.1.88 1.32 1.541h.22c.221-.66.661-1.1 1.542-1.541.66-.44 1.54-.66 2.642-.66 1.32 0 2.421.44 3.302 1.32.88.881 1.1 1.982 1.1 3.303v9.246h-2.641v-8.586c0-.88-.22-1.541-.66-2.201-.441-.44-1.101-.881-1.982-.881s-1.541.22-1.981.88-.66 1.321-.66 2.202v8.365h-2.642v-8.365c0-1.1-.22-1.761-.66-2.201-.441-.44-1.102-.881-1.982-.881-.88 0-1.541.22-1.981.88-.44.44-.881 1.321-.881 2.202v8.365h-2.862zm27.738.22c-1.981 0-3.302-.66-4.403-1.761-1.1-1.101-1.54-2.642-1.54-4.623v-1.101c0-1.981.44-3.522 1.54-4.623 1.101-1.1 2.422-1.761 4.183-1.761s3.302.66 4.183 1.76c.88 1.102 1.54 2.643 1.54 4.624v1.1h-8.805v.44c0 1.102.22 1.982.88 2.863.661.66 1.321 1.1 2.422 1.1.88 0 1.541-.22 1.981-.44.44-.44.66-.88.881-1.32h2.642c0 .44-.22.88-.44 1.32-.22.44-.44.88-.881 1.321-.44.44-.88.66-1.541 1.1-1.1-.22-1.761 0-2.642 0zm-3.302-8.366h6.384c0-1.1-.22-1.981-.88-2.641s-1.321-1.101-2.202-1.101c-.88 0-1.761.44-2.201 1.1s-1.101 1.542-1.101 2.642zm11.888 8.146V5.723h2.641v1.762c.22-.66.66-1.1 1.321-1.541.66-.44 1.541-.66 2.422-.66 1.32 0 2.642.44 3.522 1.32.88.88 1.321 1.982 1.321 3.523v9.025h-2.642v-8.145c0-2.201-1.1-3.302-3.082-3.302-1.1 0-1.76.22-2.201.88s-.88 1.542-.88 2.642v7.925h-2.422zm15.63-13.65V2.423h2.642v3.302h2.641v2.201h-2.641v7.485c0 .66.22 1.32.44 1.541s.88.44 1.761.44h.66v1.982h-1.32c-.881 0-1.541 0-1.982-.22l-1.32-.661c-.44-.22-.44-.66-.661-1.1-.22-.441-.22-1.101-.22-1.762V7.925h-1.761V5.724zm12.328 8.806h2.642c0 .881.44 1.541 1.1 2.202.66.66 1.761.88 2.862.88 1.1 0 1.981-.22 2.862-.88.66-.44 1.1-1.321 1.1-2.202 0-.66-.22-1.32-.66-1.54-.44-.44-1.1-.661-2.201-.881l-2.862-.66c-.66-.22-1.1-.44-1.54-.661s-.882-.44-1.322-.88c-.44-.44-.66-.881-.88-1.321-.22-.44-.44-1.101-.44-1.762 0-1.1.22-1.98.88-2.861.66-.881 1.32-1.321 2.201-1.762s1.982-.66 3.082-.66c1.101 0 2.202.22 3.082.66.88.44 1.761.881 2.202 1.762.66.88.88 1.76.88 2.861h-2.641c0-.88-.44-1.54-1.101-1.98-.66-.441-1.541-.881-2.642-.881-1.1 0-1.981.22-2.642.66-.66.44-.88 1.1-.88 1.981 0 1.321.88 1.982 2.421 2.422l2.862.66c.66.22 1.101.22 1.541.44l1.321.661c.441.221.66.66.88.88.22.44.441.661.661 1.101s.22.88.22 1.541c0 1.761-.66 3.082-1.76 3.963-1.322.88-2.863 1.32-4.844 1.32-.88 0-1.761 0-2.422-.22s-1.32-.44-1.76-.88-.881-.66-1.101-1.1c-.22-.441-.66-.881-.66-1.322-.441-.66-.441-1.1-.441-1.54zm21.354 5.064c-1.981 0-3.302-.66-4.403-1.761-1.1-1.101-1.541-2.642-1.541-4.623v-1.101c0-1.981.44-3.522 1.54-4.623 1.102-1.1 2.423-1.761 4.184-1.761s3.302.66 4.182 1.76c.88 1.102 1.541 2.643 1.541 4.624v1.1h-8.805v.44c0 1.102.22 1.982.88 2.863.66.66 1.321 1.1 2.422 1.1.88 0 1.54-.22 1.981-.44.44-.44.66-.88.88-1.32h2.642c0 .44-.22.88-.44 1.32-.22.44-.44.88-.88 1.321s-.881.66-1.541 1.1c-1.101-.22-1.762 0-2.642 0zm-3.302-8.366h6.384c0-1.1-.22-1.981-.88-2.641-.661-.66-1.322-1.101-2.202-1.101-.88 0-1.761.44-2.202 1.1-.44.661-1.1 1.542-1.1 2.642zm12.108 8.146V5.723h2.641v1.762c.22-.22.22-.44.44-.66.22-.22.22-.44.66-.661.221-.22.661-.44.882-.44.44-.22.88-.22 1.32-.22h.881v2.421h-1.1c-1.982 0-3.083 1.1-3.083 3.302v8.146zM225.647 19.373l-4.623-13.649h2.862l3.082 11.007 3.522-11.007h2.642l-4.844 13.649zM235.993 3.522c-.22-.22-.44-.66-.44-1.1 0-.44.22-.881.44-1.101s.66-.44 1.101-.44.88.22 1.1.44.441.66.441 1.1c0 .44-.22.881-.44 1.101s-.66.44-1.1.44-.881-.22-1.102-.44zm-.22 15.85V5.725h2.642v13.649zm5.944-6.163v-1.541c0-1.762.44-3.303 1.541-4.403 1.1-1.101 2.422-1.761 4.183-1.761 1.54 0 2.862.44 3.742 1.32.88.881 1.321 1.982 1.541 3.082h-2.421c0-.66-.44-1.1-.88-1.54-.441-.44-1.102-.661-1.982-.661-1.1 0-1.761.44-2.422 1.1-.44.881-.88 1.762-.88 3.083v1.32c0 1.101.22 2.202.88 2.862.66.66 1.321 1.101 2.422 1.101.88 0 1.54-.22 1.981-.44.44-.44.88-.88.88-1.321h2.422c0 1.1-.66 2.201-1.54 2.862-.881.88-2.202 1.32-3.743 1.32-1.761 0-3.302-.66-4.183-1.76-1.1-1.101-1.54-2.642-1.54-4.623zm19.373 6.384c-1.982 0-3.302-.66-4.403-1.761-1.1-1.101-1.541-2.642-1.541-4.623v-1.101c0-1.981.44-3.522 1.54-4.623 1.102-1.1 2.422-1.761 4.184-1.761s3.302.66 4.182 1.76c.88 1.102 1.541 2.643 1.541 4.624v1.1h-8.805v.44c0 1.102.22 1.982.88 2.863.66.66 1.321 1.1 2.422 1.1.88 0 1.54-.22 1.981-.44.44-.44.66-.88.88-1.32h2.642c0 .44-.22.88-.44 1.32-.22.44-.44.88-.88 1.321s-.881.66-1.542 1.1c-1.1-.22-1.76 0-2.641 0zm-3.302-8.366h6.384c0-1.1-.22-1.981-.88-2.641-.661-.66-1.322-1.101-2.202-1.101-.88 0-1.761.44-2.202 1.1-.44.661-1.1 1.542-1.1 2.642zm11.227-1.54c0-.661.22-1.322.44-1.762.22-.44.66-.88 1.1-1.32.441-.22 1.102-.661 1.542-.661.66-.22 1.32-.22 1.981-.22 1.541 0 2.862.44 3.522 1.1.881.66 1.321 1.762 1.321 2.862H276.5c0-.66-.22-1.1-.66-1.54-.441-.441-1.101-.661-1.982-.661-.88 0-1.32.22-1.761.44s-.66.88-.66 1.541c0 .22 0 .44.22.66.22.22.22.44.44.44.22.221.44.221.66.441.44.22.66.22.66.22.22 0 .441 0 .881.22h.44c.661 0 1.101.22 1.542.22.44.22.88.22 1.32.44s.66.441 1.101.661c.22.22.44.66.66.88.22.441.22.881.22 1.322 0 1.32-.44 2.421-1.54 3.082-.88.66-2.422 1.1-3.963 1.1-1.54 0-2.862-.44-3.742-1.1-.88-.66-1.321-1.761-1.321-2.862h2.421c0 .66.44 1.1.881 1.54s1.1.441 1.981.441 1.761-.22 2.202-.66.66-.88.66-1.541-.44-1.101-1.1-1.541c-.44-.22-1.101-.44-2.202-.66-.66-.22-1.1-.22-1.541-.441-.44 0-.88-.22-1.32-.44-.441-.22-.661-.44-1.102-.66-.22-.22-.44-.661-.66-.881-.22.22-.22-.22-.22-.66z" style="fill:#fff" transform="translate(80 204.849)"/></g></g></svg>