<svg xmlns="http://www.w3.org/2000/svg" width="640" height="360" viewBox="0 0 640 360"><defs><clipPath id="a" clipPathUnits="userSpaceOnUse"><path d="M-283.906 0H19.942v127.788h-303.848Z"/></clipPath><clipPath id="b" clipPathUnits="userSpaceOnUse"><path d="M-14.12-105.975h303.847V21.813H-14.12Z"/></clipPath><clipPath id="c" clipPathUnits="userSpaceOnUse"><path d="M-47.939-92.645h303.848V35.143H-47.939Z"/></clipPath><clipPath id="d" clipPathUnits="userSpaceOnUse"><path d="M-23.356-99.53h303.848V28.26H-23.356Z"/></clipPath><clipPath id="e" clipPathUnits="userSpaceOnUse"><path d="M-59.844-61.425h303.848V66.363H-59.844Z"/></clipPath><clipPath id="k" clipPathUnits="userSpaceOnUse"><path d="M-78.348-73.45H225.5V54.34H-78.348Z"/></clipPath><clipPath id="l" clipPathUnits="userSpaceOnUse"><path d="M-87.706-69.75h303.848V58.038H-87.706Z"/></clipPath><clipPath id="m" clipPathUnits="userSpaceOnUse"><path d="M-100.054-73.45h303.848V54.338h-303.848Z"/></clipPath><clipPath id="n" clipPathUnits="userSpaceOnUse"><path d="M-35.304-58.208h303.848V69.58H-35.304Z"/></clipPath><clipPath id="o" clipPathUnits="userSpaceOnUse"><path d="M-39.505-29.955h303.848V97.833H-39.505Z"/></clipPath><clipPath id="p" clipPathUnits="userSpaceOnUse"><path d="M-140.358-30.619H163.49V97.17h-303.848Z"/></clipPath><clipPath id="q"><path fill="#fff" d="M0 0h177.91v41H0z"/></clipPath><linearGradient id="r" x1="92.744" x2="74.755" y1="18.026" y2="40.31" gradientUnits="userSpaceOnUse"><stop offset=".02" stop-color="#1d1c1c" stop-opacity="0"/><stop offset=".39" stop-color="#1d1c1c" stop-opacity=".66"/><stop offset=".68" stop-color="#1d1c1c"/></linearGradient><linearGradient id="s" x1="61.27" x2="79.755" y1="23.018" y2="4.534" gradientUnits="userSpaceOnUse"><stop offset=".02" stop-color="#1d1c1c" stop-opacity="0"/><stop offset=".39" stop-color="#1d1c1c" stop-opacity=".66"/><stop offset=".68" stop-color="#1d1c1c"/></linearGradient></defs><path d="M0 0h-263.964c-11.013 0-19.942 8.929-19.942 19.942v83.034c0 13.703 11.109 24.813 24.812 24.813H0c11.014 0 19.942-8.929 19.942-19.943V19.942C19.942 8.929 11.014 0 0 0" clip-path="url(#a)" style="fill:#fff48d;fill-opacity:1;fill-rule:nonzero;stroke:none" transform="matrix(1.68506 0 0 -1.68506 542.397 287.665)"/><path d="M0 0v-84.161c0-4.028 3.311-7.324 7.36-7.324h50.525c38.197 0 54.757 21.278 54.757 49.514 0 28.09-16.56 49.295-54.757 49.295H7.36C3.311 7.324 0 4.028 0 0" clip-path="url(#b)" style="fill:#fff;fill-opacity:1;fill-rule:nonzero;stroke:none" transform="matrix(1.68506 0 0 -1.68506 87.794 109.091)"/><path d="M0 0v-62.187h27.195c24.691 0 35.401 13.88 35.401 33.511 0 18.787-10.71 33.364-35.401 33.364H4.711C2.098 4.688 0 2.563 0 0" clip-path="url(#c)" style="fill:#c06;fill-opacity:1;fill-rule:nonzero;stroke:none" transform="matrix(1.68506 0 0 -1.68506 144.78 131.554)"/><path d="M0 0a4.685 4.685 0 0 0 4.711 4.688h43.937c17.001 0 45.557-5.238 45.557-40.25 0-26.075-16.191-40.432-45.557-40.432H4.711A4.685 4.685 0 0 0 0-71.306Zm4.712-78.338H48.65c30.875 0 47.912 15.2 47.912 42.776 0 15.895-6.219 42.593-47.912 42.593H4.712C.811 7.031-2.353 3.882-2.353 0v-71.306c0-3.883 3.164-7.032 7.065-7.032" clip-path="url(#d)" style="fill:#232323;fill-opacity:1;fill-rule:evenodd;stroke:none" transform="matrix(1.68506 0 0 -1.68506 103.356 119.953)"/><path d="M0 0a4.4 4.4 0 0 0-1.367-.221V-.26h-2.844v9.472h2.303c.792 0 1.44-.111 1.98-.333.54-.221.972-.592 1.296-.999s.576-.962.72-1.554.216-1.295.216-2.034c0-.852-.108-1.517-.324-2.109A4.3 4.3 0 0 0 1.152.777 2.7 2.7 0 0 0 0 0m1.477 11.581a7.7 7.7 0 0 1-2.627.443v.038h-6.228V-2.959h6.301c1.115 0 2.087.222 2.915.591.827.408 1.512.925 2.052 1.592.539.665.935 1.479 1.223 2.404.252.926.396 1.924.396 3.034 0 1.258-.18 2.331-.504 3.256-.359.888-.828 1.665-1.403 2.294-.613.592-1.296 1.073-2.125 1.369" clip-path="url(#e)" style="fill:#fff;fill-opacity:1;fill-rule:evenodd;stroke:none" transform="matrix(1.68506 0 0 -1.68506 164.84 184.161)"/><path d="M0 0v-2.775h-7.703v-3.218h7.091v-2.553h-7.091v-3.664H.18v-2.774h-11.087V.037H0Z" clip-path="url(#k)" style="fill:#fff;fill-opacity:1;fill-rule:nonzero;stroke:none" transform="matrix(1.68506 0 0 -1.68506 196.02 163.899)"/><path d="m0 0 1.836-5.512h-3.78L-.035 0Zm7.127-11.32L1.656 3.7h-3.348l-5.507-15.02h3.239l1.152 3.329h5.472l1.115-3.329z" clip-path="url(#l)" style="fill:#fff;fill-opacity:1;fill-rule:evenodd;stroke:none" transform="matrix(1.68506 0 0 -1.68506 211.79 170.133)"/><path d="M0 0v-12.246h7.127v-2.775H-3.204V0Z" clip-path="url(#m)" style="fill:#fff;fill-opacity:1;fill-rule:nonzero;stroke:none" transform="matrix(1.68506 0 0 -1.68506 232.596 163.898)"/><path d="M0 0a7.06 7.06 0 0 1 7.061 7.063A7.06 7.06 0 0 1 0 14.126a7.06 7.06 0 0 1-7.061-7.063A7.06 7.06 0 0 1 0 0" clip-path="url(#n)" style="fill:#232323;fill-opacity:1;fill-rule:nonzero;stroke:none" transform="matrix(1.68506 0 0 -1.68506 123.489 189.582)"/><path d="M0 0c-5.464 0-9.85 4.721-9.85 10.52v8.215c0 2.9 2.193 5.279 4.942 5.279 2.715 0 4.943-2.341 4.943-5.279V0Z" clip-path="url(#o)" style="fill:#232323;fill-opacity:1;fill-rule:nonzero;stroke:none" transform="matrix(1.68506 0 0 -1.68506 130.569 237.19)"/><path d="M0 0c-.681 0-1.234.553-1.234 1.234v64.17a1.235 1.235 0 0 0 2.468 0V1.234C1.234.553.681 0 0 0" clip-path="url(#p)" style="fill:#1d1c1c;fill-opacity:1;fill-rule:nonzero;stroke:none" transform="matrix(1.68506 0 0 -1.68506 300.51 236.07)"/><g clip-path="url(#q)" transform="translate(323.807 153.694)scale(1.28321)"><path fill="#1d1c1c" d="M135.783 20.52c0-10.712 7.716-20.48 21.037-20.48s21.09 9.768 21.09 20.48S170.196 41 156.82 41s-21.035-9.768-21.035-20.48Zm30.416 0c0-5.163-3.442-9.935-9.379-9.935-5.938 0-9.38 4.774-9.38 9.935 0 5.16 3.498 9.935 9.38 9.935s9.379-4.775 9.379-9.935m-38.607 7.603c4.441-2.498 7.104-7.27 7.104-12.544 0-7.825-5.718-14.487-14.598-14.487H101.45v38.853h11.545V30.01h2.165l6.603 9.935h13.599zm-9.823-7.048h-4.774v-10.99h4.829c3.109 0 5.107 2.498 5.107 5.496s-2.054 5.496-5.162 5.496zM48.75 1.052 41.824 24.21 35.066 1.052H25.87L19.057 24.21l-6.87-23.157H0l13.96 38.78h10.026l6.481-21.107 6.428 21.107h10.08l13.962-38.78Zm29.655 29.305h-.028c-4.318 0-7.346-2.577-8.646-5.988H99.07c.236-1.284.358-2.598.358-3.928C99.428 9.757 91.738.014 78.405 0v10.527c4.344.012 7.342 2.584 8.628 5.989H57.736a22 22 0 0 0-.354 3.927c0 10.692 7.7 20.444 20.995 20.444h.028V30.36z"/><path fill="url(#r)" d="M78.377 40.884c.451 0 .895-.014 1.335-.034 2.702-.137 5.153-.68 7.34-1.557a19.5 19.5 0 0 0 5.738-3.54 19.3 19.3 0 0 0 4.027-5.044c.95-1.71 1.644-3.56 2.08-5.491H86.671a10 10 0 0 1-.874 1.469c-.456.629-.99 1.2-1.596 1.693a8.6 8.6 0 0 1-2.036 1.23 9 9 0 0 1-2.45.662c-.43.055-.874.088-1.334.088-2.75 0-4.978-1.048-6.567-2.688l-7.947 7.948c3.536 3.229 8.442 5.264 14.516 5.264z" style="fill:url(#r)"/><path fill="url(#s)" d="M78.378 0C67.102 0 59.85 7.013 57.908 15.67h12.189c1.457-2.983 4.328-5.143 8.28-5.143 3.151 0 5.596 1.346 7.194 3.382l8.02-8.02C90.008 2.302 84.857.002 78.375.002Z" style="fill:url(#s)"/></g></svg>