<svg height="80" viewBox="0 0 102 80" width="102" xmlns="http://www.w3.org/2000/svg"><g fill="none" fill-rule="nonzero"><g fill="#000" transform="translate(0 50.011919)"><path d="m19.4189046 1.28485086c-.5159853-.26709536-2.4784254-1.13920783-6.0698728-1.13920783-7.98443033 0-13.3490318 5.35736919-13.3490318 13.33132517 0 7.8313056 4.95011736 12.8914034 12.6108411 12.8914034 3.2238484 0 5.6416723-.6528997 6.7327481-1.2117799.1456431-.0748166.2209585-.2396626.1820538-.3987726l-.6277115-2.5662103c-.0254376-.1034963-.096264-.1902836-.1925281-.2356724-.0965134-.0453887-.2082396-.0448899-.3042543.0014964-1.2681418.6115012-3.2323276.9915696-5.1261858.9915696-5.74292418 0-9.17177015-3.5819706-9.17177015-9.5817652 0-6.06862595 3.58521272-9.83838634 9.35656725-9.83838634 2.465956 0 4.0824939.61998044 4.8266699.98982396.0927726.04613692.2015061.04912958.2962739.00847921.0952665-.04065036.1678386-.12095354.1985134-.21996088l.8122592-2.6031198c.0513741-.16384841-.0221956-.34041565-.1745722-.41922249z"/><path d="m35.9985183 21.3588998v-6.635736c0-3.4557799-1.2399608-7.57543275-7.1464841-7.57543275-2.2085868 0-4.4862542.59554034-6.0935648 1.59284597-.1401564.08678728-.2015061.25861613-.1481369.4144841l.7384401 2.16294868c.0354132.1039951.1174621.1855452.2214572.220709.1049927.0354132.2189634.0197017.3099902-.0413985 1.1743717-.7888166 2.8532568-1.259912 4.4952323-1.259912l.0700783-.0002494c2.4113398 0 3.6340929 1.2504352 3.6340929 3.7161418v.013467c-6.9302641.0453888-10.7436675 2.5103472-10.7436675 6.9522103 0 2.7078631 1.9983521 5.4493936 5.8174914 5.4493936 2.0931198 0 4.0261321-.8247286 5.3062445-2.2357701l.1755697 1.519775c.0206993.178313.1718289.3127335.3511394.3127335h2.9166014c.0019952.0002494.0039903.0002494.0049878 0 .1952714 0 .3536333-.1581124.3536333-.3533838 0-.0386553-.0062347-.0758142-.0177066-.1104793-.160357-1.0840929-.2453986-2.5145868-.2453986-4.1423471zm-8.0325623 1.9195452c-1.6743961 0-2.6741956-1.0192518-2.6741956-2.7260685 0-2.4208166 2.2514817-3.6480587 6.691599-3.6480587.0566113 0 .1134719.0002494.1703325.0004988v2.7308069c0 .2214572-.0231931.5613741-.1286846.9115159-.4331882 1.2601613-1.7561956 2.7313056-4.0590513 2.7313056z"/><path d="m48.725824 7.22379462-.0755648-.00947677c-.2718338-.03441565-.5284548-.0665868-.8541565-.0665868-1.9818924 0-3.7627775 1.12599022-4.7949976 2.95301225l-.0942689-2.24799024c-.0079805-.18928607-.163599-.33842054-.3531345-.33842054h-2.8430318c-.0980098 0-.1915305.04040098-.2581173.11197555-.0670856.07132518-.1010025.16733985-.0945184.26510024.1015013 1.51154524.14689 3.21137899.14689 5.51223959v12.2080783c0 .1952714.1581125.3533838.3533839.3533838h3.2490366c.1952714 0 .3533839-.1581124.3533839-.3533838v-9.4585673c0-.5174816.0386553-1.0439413.1049927-1.4392225.4309437-2.3539804 1.9671785-3.8163961 4.0086748-3.8163961.4279511 0 .7369438 0 1.0314719.0650905.1049926.0234425.2139755-.0024939.2975208-.0695795.0835452-.0670855.131927-.1683374.131927-.2753251v-3.04279221c.000249-.17856235-.1324258-.32919316-.3094918-.35113937z"/><path d="m60.9762983 7.51433252h-4.2984646v-3.89944254c0-.11172617-.0528704-.21696822-.1424009-.28355502-.0895306-.06708557-.2057458-.08703667-.3124841-.05511491l-3.1749683.95316381c-.1496332.04488998-.2518826.18230318-.2518826.33842054v2.94602934h-2.4155795c-.1952714 0-.3533838.15811247-.3533838.35338386v2.4562298c0 .1952714.1581124.3533839.3533838.3533839h2.4155795v9.3253936c0 2.2801614.4401711 3.880489 1.348445 4.8950025.8721125.9486748 2.2100831 1.4706455 3.7675159 1.4706455 1.4664058 0 2.5068557-.288044 2.9966552-.4598729.1491345-.0523716.2453986-.1972665.2359218-.3548802l-.1476381-2.4562298c-.0064842-.1082347-.0623472-.2072421-.1511296-.2690905-.0890318-.0618484-.2015061-.0793056-.3050025-.0476332-.4017653.1226992-.8581467.2044987-1.7798875.2044987-1.4798729 0-2.0831443-.8960538-2.0831443-3.0926699v-9.2151638h4.2984646c.1952714 0 .3533839-.1581125.3533839-.3533839v-2.4562298c0-.19477261-.1581125-.35288508-.3533839-.35288508z"/><path d="m77.8796186 21.3588998v-6.635736c0-3.4557799-1.2399609-7.57543275-7.1464841-7.57543275-2.2083374 0-4.4862543.59554034-6.0935648 1.59284597-.1399071.08678728-.2015061.25861613-.1481369.4144841l.7384401 2.16294868c.0354132.1039951.1174621.1855452.2214572.220709.1049926.0354132.2189633.0197017.3099902-.0413985 1.1743716-.7888166 2.8532567-1.259912 4.4952323-1.259912l.0700782-.0002494c2.4113399 0 3.6340929 1.2504352 3.6340929 3.7161418v.013467c-6.930264.0453888-10.7436675 2.5103472-10.7436675 6.9522103 0 2.7078631 1.9983521 5.4493936 5.8174915 5.4493936 2.0931198 0 4.026132-.8247286 5.3062445-2.2357701l.1755697 1.519775c.0206992.178313.1718288.3127335.3511393.3127335h2.9166015c.0019951.0002494.0037408.0002494.0049878 0 .1952714 0 .3536332-.1581124.3536332-.3533838 0-.0386553-.0062347-.0758142-.0177066-.1104793-.160357-1.0840929-.2453985-2.5145868-.2453985-4.1423471zm-8.0325624 1.9195452c-1.6743961 0-2.6741956-1.0192518-2.6741956-2.7260685 0-2.4208166 2.2514817-3.6480587 6.6915991-3.6480587.0568606 0 .1134718.0002494.1703325.0004988v2.7308069c0 .2214572-.0231932.5613741-.1286846.9115159-.4331883 1.2601613-1.7559462 2.7313056-4.0590514 2.7313056z"/><path d="m89.3103521 11.27711c-3.5737409-1.37363323-4.7209291-2.45149142-4.7209291-4.43587773 0-1.66716381 1.3407139-3.34954034 4.3356235-3.34954034 2.4874034 0 4.0760097.85789731 4.5037114 1.12075306.0912763.05661124.2035013.06783374.3050025.03142298.1010024-.03616137.1803081-.11671394.2147237-.21846455l.8863276-2.60287041c.0543668-.15935942-.0114718-.3349291-.1568655-.41947189-.6496577-.37832273-2.5003716-1.25791687-5.6419218-1.25791687-4.9471246 0-8.401907 2.90413203-8.401907 7.06219071 0 3.30664544 2.226044 5.71798534 6.8020782 7.37043524 3.2497848 1.2055452 4.4583227 2.4372763 4.4583227 4.5446112 0 2.3826602-1.8591931 3.862533-4.8521075 3.862533-1.9606944 0-3.9775013-.5678582-5.5329389-1.5576821-.0925232-.0586064-.2077408-.0720734-.3102396-.0341663-.103247.0374083-.1830514.1204548-.2162201.2251981l-.8491687 2.6759413c-.0476332.1503814.0099756.3144792.1416528.4015159 1.4631638.9688753 4.2159169 1.6719022 6.5452079 1.6719022 6.6649144 0 9.0296185-4.0413448 9.0296185-7.5023619 0-3.5617702-1.955956-5.8312078-6.5399706-7.5881516z"/><path d="m101.412939 7.51433252h-3.2490368c-.1952714 0-.3533839.15811247-.3533839.35338386v17.74376042c0 .1952714.1581125.3533838.3533839.3533838h3.2490368c.195271 0 .353384-.1581124.353384-.3533838v-17.74376042c0-.19527139-.158113-.35338386-.353384-.35338386z"/><path d="m101.412939.1573643h-3.2490368c-.1952714 0-.3533839.15811247-.3533839.35338387v3.15451833c0 .1952714.1581125.35338387.3533839.35338387h3.2490368c.195271 0 .353384-.15811247.353384-.35338387v-3.15451833c0-.1952714-.158113-.35338387-.353384-.35338387z"/></g><path d="m33.2786846 21.2794279c3.068978.1533741 13.5919364 2.3936332 13.5919364 10.8484107 0 8.7500538-15.5434034 11.7212714-23.4427921 11.7212714-5.611247 0-19.1084157-1.4886014-23.19315408-10.4743276-.62347189-1.3716381.82896821-1.751956 1.74572127-.6234719 4.86308068 5.9848313 27.68215161 9.2273839 27.68215161-.8728606v-6.4841076c0-3.3667482 1.1222494-4.2396088 3.6161369-4.1149144zm-8.8792372-9.1141614c5.6109976 0 19.1084157 1.4886015 23.1929047 10.4743276.6234719 1.3716382-.8287188 1.751956-1.7457213.6234719-4.8628313-5.9853301-27.6819022-9.2273838-27.6819022.8728607v6.4841075c0 3.3667482-1.1222494 4.2396088-3.6161369 4.1149145-3.068978-.1533741-13.59168705-2.3936333-13.59168705-10.8484108 0-8.7503032 15.54315405-11.7212714 23.44254275-11.7212714zm-.3162249-12.11331051c3.5122069 0 6.3594132 1.75856858 6.3594132 3.92787286s-2.8472063 3.92787286-6.3594132 3.92787286-6.3594132-1.75856858-6.3594132-3.92787286 2.8472063-3.92787286 6.3594132-3.92787286z" fill="#fff" transform="translate(26.684597 3.823044)"/></g></svg>