<svg xmlns="http://www.w3.org/2000/svg" width="32" height="24"><g fill="none" fill-rule="nonzero"><path fill="#006568" d="M28 0H4a4 4 0 0 0-4 4v16a4 4 0 0 0 4 4h24a4 4 0 0 0 4-4V4a4 4 0 0 0-4-4"/><path fill="#FFF" d="M18.947 5h-6.622S11 5 11 6.325v11.92c0 1.325 1.325 1.325 1.325 1.325h2.98v-3.311c0-.663-1.25-.876-1.49-1.151-.319-.364-.592-.82-.683-1.412-.046-.364-.046-.774.09-1.047.046-.136.137-.227.228-.318.091-.092.091-.228.046-.365a2.3 2.3 0 0 1-.228-.592c-.045-.182-.09-.41-.045-.592.045-.227.136-.41.227-.5.091-.137.228-.137.32-.32-.092-.318-.183-.591-.183-1 0-.137 0-.32.046-.456.09-.273.273-.319.41-.41.09-.045.136-.045.227-.09.091-.046.091-.046.091-.229 0-.728.091-1.366.455-1.73.182-.182.41-.227.638-.227.227 0 .455.045.683.227.41.364.5 1.047.5 1.73 0 .137 0 .183.092.228.09.046.136.046.227.091.137.091.32.137.41.41.046.136.046.273.046.455 0 .41-.091.638-.182 1.002.09.182.227.182.364.319.09.136.227.273.227.5.046.183 0 .41-.045.592-.046.228-.137.41-.228.592-.045.137-.045.273.046.365.09.09.182.182.227.318.137.273.183.683.137 1.047-.182.592-.41 1.048-.728 1.412-.217.247-1.263.488-1.263 1.15v3.312h2.98s1.325 0 1.325-1.325V6.325C20.272 5 18.947 5 18.947 5"/></g></svg>