<svg xmlns="http://www.w3.org/2000/svg" width="512" height="512"><path fill="#00585b" fill-rule="nonzero" d="M162.759 0H349.24c21.761 0 21.761 18.997 21.761 18.997v474.006c0 18.997-21.76 18.997-21.76 18.997h-84.005l-.011-86.674q0-.247-.012-.497c-.015-.391-.03-.783.038-1.121.128-.625.21-1.296.297-1.97.241-1.893.479-3.798 1.71-4.668 1.743-1.23 3.508-2.375 5.27-3.52 1.149-.745 2.297-1.487 3.438-2.255 10.312-6.924 20.83-14.596 29.964-25.537 8.448-10.12 15.8-23.869 19.125-40.709 2.033-10.315.813-22.1-3.328-30.555a32.9 32.9 0 0 0-6.679-9.118c-2.703-2.598-2.951-6.555-1.065-10.41 2.511-5.14 5.045-10.662 6.739-16.754 1.483-5.32 2.262-11.426 1.506-17.182-.874-6.6-3.682-11.792-6.969-15.161-1.208-1.235-2.549-2.09-3.885-2.94-2.297-1.465-4.582-2.922-6.186-6.307l.015-.052c2.948-9.826 5.196-17.326 5.343-28.688.056-4.367.048-8.945-1.145-12.79-2.03-6.531-6.445-8.658-10.383-10.552q-.828-.394-1.646-.81a34 34 0 0 0-3.587-1.505 40 40 0 0 1-3.069-1.247c-2.5-1.178-2.756-1.935-2.752-6.475.015-20.673-2.812-40.268-14.223-50.426-5.922-5.274-12.673-6.991-19.374-6.897-6.393-.09-12.834 1.619-18.485 6.893-10.892 10.158-13.591 29.742-13.576 50.419 0 4.54-.245 5.297-2.632 6.475q-1.422.68-2.899 1.235-1.772.654-3.452 1.517c-.505.271-1.028.535-1.562.802-3.765 1.898-7.982 4.025-9.917 10.557-1.145 3.84-1.152 8.422-1.092 12.785.136 11.359 2.282 18.862 5.098 28.688l.011.045c-1.528 3.38-3.712 4.842-5.9 6.302-1.28.855-2.56 1.71-3.712 2.948-3.14 3.366-5.82 8.554-6.648 15.15-.727 5.76.019 11.867 1.434 17.186 1.62 6.08 4.036 11.607 6.43 16.742 1.804 3.856 1.567 7.812-1.016 10.414a32.7 32.7 0 0 0-6.37 9.11c-3.957 8.453-5.12 20.237-3.178 30.552 3.174 16.837 10.192 30.578 18.256 40.702 8.716 10.936 18.756 18.605 28.594 25.525 1.084.764 2.172 1.502 3.26 2.244 1.694 1.148 3.385 2.297 5.056 3.535 1.171.866 1.405 2.775 1.63 4.669.083.673.166 1.344.287 1.965.067.335.052.726.037 1.114q-.012.252-.015.505L244 493.278V512h-81.241c-21.761 0-21.761-18.997-21.761-18.997V18.997C140.998 0 162.758 0 162.758 0M301.36 83.906l18.256-35.246v-5.398h-28.424v6.272h20.333L293.39 83.906zm-33.458.697c8.377 0 14.156-5.342 14.156-12.834v-.113c0-7.552-5.779-10.632-11.904-11.445l11.264-11.607v-5.342h-26.741v6.211h17.499l-10.918 11.671 1.155 4.47h3.295c5.662 0 9.299 2.266 9.299 6.268v.113c0 3.72-3.005 6.159-6.988 6.159-4.506 0-7.74-1.916-10.628-5.339l-4.97 4.642c3.411 4.18 8.434 7.146 15.481 7.146m-40.735-.697L245.42 48.66v-5.398h-28.42v6.272h20.333l-18.135 34.372zm-29.584 0h7.048V42.968h-4.97l-10.857 3.486 1.502 5.805 7.277-2.033z"/></svg>