<svg xmlns="http://www.w3.org/2000/svg" width="30" height="30" fill="none" viewBox="0 0 30 30"><g clip-path="url(#a)"><rect width="32" height="32" x="-1" y="-1" fill="#006568" rx="8"/><path fill="#fff" d="M20 4H10S8 4 8 6v18c0 2 2 2 2 2h4.5v-5c0-1-1.887-1.323-2.25-1.738-.481-.55-.894-1.237-1.031-2.13-.069-.55-.069-1.17.137-1.582.069-.206.207-.344.344-.481.138-.138.138-.344.069-.55-.138-.275-.275-.55-.344-.894-.069-.275-.138-.619-.069-.894.069-.344.207-.618.344-.756.138-.206.344-.206.481-.481-.137-.482-.275-.894-.275-1.513 0-.206 0-.481.069-.687.138-.413.412-.481.619-.619.137-.069.206-.069.344-.137.137-.07.137-.07.137-.344 0-1.1.138-2.063.688-2.613.274-.275.618-.343.962-.343s.688.068 1.031.343c.619.55.756 1.582.756 2.613 0 .206 0 .275.138.344s.206.068.344.137c.206.138.481.206.619.619.068.206.068.412.068.687 0 .619-.137.963-.275 1.513.138.275.344.275.55.481.138.206.344.412.344.756.069.275 0 .619-.069.894-.069.344-.206.619-.344.894-.068.206-.068.412.07.55.137.137.274.275.343.481.206.412.275 1.031.206 1.581-.275.894-.619 1.581-1.1 2.131C17.08 19.636 15.5 20 15.5 21v5H20s2 0 2-2V6c0-2-2-2-2-2"/></g><defs><clipPath id="a"><rect width="30" height="30" fill="#fff" rx="8"/></clipPath></defs></svg>