<svg xmlns="http://www.w3.org/2000/svg" width="1024" height="1024" style="shape-rendering:geometricPrecision;text-rendering:geometricPrecision;image-rendering:optimizeQuality;fill-rule:evenodd;clip-rule:evenodd"><path fill="#00a28b" d="M0 0h1024v1024H0z"/><path fill="#fefffe" d="M171.5 273.5h216v34h-216z" style="opacity:1"/><path fill="#fefefe" d="M523.5 375.5q114.26-3.446 94.5 109-11.598 35.207-37 62-34.869 35.262-74.5 64.5 59.498.75 119 .5v34h-178q-.25-16.008.5-32 54.944-37.414 102-85 20.44-22.464 28-52 3.798-21.781-2-43-7.118-18.44-26.5-22.5-30.388-7.22-51.5 15.5-14.482 23.775-4.5 50l-2.5 1a6318 6318 0 0 0-39.5-4q-10.55-83.424 72-98" style="opacity:1"/><path fill="#fdfefe" d="M766.5 375.5q26.122-1.297 51 6.5 39.181 18.048 42 60a1076 1076 0 0 0-35.5 7.5q-11.454-52.848-63.5-38.5-23.652 11.652-32.5 36.5-9.7 27.699-8 57 18.238-32.273 55.5-36.5 78.502-2.512 89.5 75.5 2.86 32.985-11 63-22.248 38.024-66.5 42.5-78.516 4.88-100.5-70.5-12.586-53.084-4-107 6.078-38.138 30-68 22.137-22.942 53.5-28" style="opacity:1"/><path fill="#fefefe" d="M173.5 377.5a645 645 0 0 1 50.5 1l121 210q.75-105.5.5-211h38v268a595 595 0 0 1-48.5-1l-123-210q-.75 105.5-.5 211h-38z" style="opacity:1"/><path fill="#00a28b" d="M765.5 499.5q50.58-3.647 59.5 46 4.235 29.754-13 54-23.304 23.014-54.5 12.5-21.235-11.16-30.5-33.5a98.7 98.7 0 0 1-7.5-30.5q9.342-37.592 46-48.5" style="opacity:1"/><path fill="#fefffe" d="M171.5 715.5h216v34h-216z" style="opacity:1"/></svg>