<svg height="32" viewBox="0 0 51 32" width="51" xmlns="http://www.w3.org/2000/svg"><g fill="none" fill-rule="evenodd"><path d="m.5.5h50v31h-50z" fill="#fff" stroke="#d0d0d0"/><g fill-rule="nonzero" transform="translate(10 4.933)"><path d="m29.1264 11.4288h-2.9392c-.3264 0-.5872-.2608-.5872-.5872s.2608-.5872.5872-.5872h4.5056v-2.2224h-4.5056c-1.6 0-2.8736 1.2736-2.8736 2.8736s1.2736 2.8736 2.8736 2.8736h2.9056c.3264 0 .5872.2608.5872.5872s-.2608.5552-.5872.5552h-6.2368c-.5232 1.0128-1.0128 1.8944-2.0896 2.3184h8.392c1.5344-.032 2.8416-1.3392 2.8416-2.8736-.0976-1.664-1.3392-2.9376-2.8736-2.9376zm-11.3632-3.4288c-2.5136 0-4.5392 2.0576-4.5392 4.5712v.0976 9.4048h2.2528v-4.8976h2.2528c2.5136 0 4.5392-2.0896 4.5392-4.6368.0336-2.4816-1.9584-4.5392-4.5056-4.5392zm0 6.8576h-2.2528v-2.2528c0-1.2736 1.0128-2.3184 2.2528-2.3184 1.2416 0 2.2528 1.0128 2.2528 2.3184.0336 1.208-1.0112 2.2528-2.2528 2.2528z" fill="#71706f"/><path d="m6.0416 17.176c-2.1552 0-3.9504-1.5344-4.4416-3.4944 0 0-.1312-.6528-.1312-1.1104s.1312-1.1104.1312-1.1104c.4576-2.024 2.3184-3.4608 4.4416-3.4608 2.5136 0 4.5712 2.0576 4.5712 4.5712v1.1104h-6.6624c.392.784 1.208 1.208 2.0896 1.208h6.0416v-6.5952c0-.9792-.816-1.7632-1.7632-1.7632h-8.5552c-.9792 0-1.7632.7824-1.7632 1.7632v8.5216c0 .9792.816 1.7952 1.7632 1.7952h8.5232c.8496 0 1.6-.6528 1.7632-1.4688 0 .0336-6.008.0336-6.008.0336zm0-7.0208c-.9136 0-1.6976.5552-2.0896 1.2736h4.2448c-.4256-.7184-1.2416-1.2736-2.1552-1.2736zm3.8528-6.4c0-2.0896-1.6992-3.7552-3.8528-3.7552-2.0912 0-3.8208 1.632-3.8544 3.6896v.032 1.1104c0 .1312.1312.2608.2608.2608h1.4048c.1312 0 .2608-.1312.2608-.2608v-1.0768c0-1.0128.8496-1.8944 1.9264-1.8944s1.928.8496 1.928 1.8944v1.0768c0 .1312.1312.2608.2608.2608h1.4032c.1312 0 .2608-.1312.2608-.2608z" fill="#b90466"/></g></g></svg>