<svg height="360" viewBox="0 0 640 360" width="640" xmlns="http://www.w3.org/2000/svg"><g fill="none" fill-rule="nonzero" transform="translate(140 55.5)"><path d="m327.672 128.574h-33.066c-3.672 0-6.606-2.934-6.606-6.606s2.934-6.606 6.606-6.606h50.688v-25.002h-50.688c-18 0-32.328 14.328-32.328 32.328s14.328 32.328 32.328 32.328h32.688c3.672 0 6.606 2.934 6.606 6.606s-2.934 6.246-6.606 6.246h-70.164c-5.886 11.394-11.394 21.312-23.508 26.082h94.41c17.262-.36 31.968-15.066 31.968-32.328-1.098-18.72-15.066-33.048-32.328-33.048zm-127.836-38.574c-28.278 0-51.066 23.148-51.066 51.426v1.098 105.804h25.344v-55.098h25.344c28.278 0 51.066-23.508 51.066-52.164.378-27.918-22.032-51.066-50.688-51.066zm0 77.148h-25.344v-25.344c0-14.328 11.394-26.082 25.344-26.082 13.968 0 25.344 11.394 25.344 26.082.378 13.59-11.376 25.344-25.344 25.344z" fill="#71706f"/><path d="m67.968 193.23c-24.246 0-44.442-17.262-49.968-39.312 0 0-1.476-7.344-1.476-12.492s1.476-12.492 1.476-12.492c5.148-22.77 26.082-38.934 49.968-38.934 28.278 0 51.426 23.148 51.426 51.426v12.492h-74.952c4.41 8.82 13.59 13.59 23.508 13.59h67.968v-74.196c0-11.016-9.18-19.836-19.836-19.836h-96.246c-11.016 0-19.836 8.802-19.836 19.836v95.868c0 11.016 9.18 20.196 19.836 20.196h95.886c9.558 0 18-7.344 19.836-16.524 0 .378-67.59.378-67.59.378zm0-78.984c-10.278 0-19.098 6.246-23.508 14.328h47.754c-4.788-8.082-13.968-14.328-24.246-14.328zm43.344-72c0-23.508-19.116-42.246-43.344-42.246-23.526 0-42.984 18.36-43.362 41.508v.36 12.492c0 1.476 1.476 2.934 2.934 2.934h15.804c1.476 0 2.934-1.476 2.934-2.934v-12.114c0-11.394 9.558-21.312 21.672-21.312s21.69 9.558 21.69 21.312v12.114c0 1.476 1.476 2.934 2.934 2.934h15.786c1.476 0 2.934-1.476 2.934-2.934z" fill="#b90466"/></g></svg>