<svg xmlns="http://www.w3.org/2000/svg" width="640" height="360" viewBox="0 0 640 360">
  <g fill="none" fill-rule="evenodd" transform="translate(140 55.5)">
    <path fill="#71706F" fill-rule="nonzero" d="M327.672,128.574 L327.672,128.574 L294.606,128.574 C290.934,128.574 288,125.64 288,121.968 C288,118.296 290.934,115.362 294.606,115.362 L345.294,115.362 L345.294,90.36 L294.606,90.36 C276.606,90.36 262.278,104.688 262.278,122.688 C262.278,140.688 276.606,155.016 294.606,155.016 L327.294,155.016 C330.966,155.016 333.9,157.95 333.9,161.622 C333.9,165.294 330.966,167.868 327.294,167.868 L257.13,167.868 C251.244,179.262 245.736,189.18 233.622,193.95 L328.032,193.95 L328.032,193.95 C345.294,193.59 360,178.884 360,161.622 C358.902,142.902 344.934,128.574 327.672,128.574 L327.672,128.574 Z M199.836,90 C171.558,90 148.77,113.148 148.77,141.426 C148.77,141.786 148.77,142.524 148.77,142.524 L148.77,248.328 L174.114,248.328 L174.114,193.23 L199.458,193.23 C227.736,193.23 250.524,169.722 250.524,141.066 C250.902,113.148 228.492,90 199.836,90 Z M199.836,167.148 L174.492,167.148 L174.492,141.804 C174.492,127.476 185.886,115.722 199.836,115.722 C213.804,115.722 225.18,127.116 225.18,141.804 C225.558,155.394 213.804,167.148 199.836,167.148 L199.836,167.148 Z"/>
    <path fill="#B90466" fill-rule="nonzero" d="M67.968,193.23 C43.722,193.23 23.526,175.968 18,153.918 C18,153.918 16.524,146.574 16.524,141.426 C16.524,136.278 18,128.934 18,128.934 C23.148,106.164 44.082,90 67.968,90 C96.246,90 119.394,113.148 119.394,141.426 L119.394,153.918 L44.442,153.918 C48.852,162.738 58.032,167.508 67.95,167.508 L135.918,167.508 L135.918,93.312 C135.918,82.296 126.738,73.476 116.082,73.476 L19.836,73.476 C8.82,73.476 0,82.278 0,93.312 L0,189.18 C0,200.196 9.18,209.376 19.836,209.376 L115.722,209.376 C125.28,209.376 133.722,202.032 135.558,192.852 C135.558,193.23 67.968,193.23 67.968,193.23 Z M67.968,114.246 C57.69,114.246 48.87,120.492 44.46,128.574 L92.214,128.574 C87.426,120.492 78.246,114.246 67.968,114.246 Z M111.312,42.246 C111.312,18.738 92.196,0 67.968,0 C44.442,0 24.984,18.36 24.606,41.508 C24.606,41.508 24.606,41.508 24.606,41.868 L24.606,54.36 C24.606,55.836 26.082,57.294 27.54,57.294 L43.344,57.294 C44.82,57.294 46.278,55.818 46.278,54.36 L46.278,42.246 L46.278,42.246 C46.278,30.852 55.836,20.934 67.95,20.934 C80.064,20.934 89.64,30.492 89.64,42.246 L89.64,54.36 C89.64,55.836 91.116,57.294 92.574,57.294 L108.36,57.294 C109.836,57.294 111.294,55.818 111.294,54.36 L111.312,42.246 Z"/>
  </g>
</svg>
