<svg xmlns="http://www.w3.org/2000/svg" viewBox="0 0 1111.25 721.25"><path d="M828.75 368.75h-76.565c-8.515 0-15.444-6.785-15.444-15.279s6.929-15.971 15.444-15.971H868.75V280H752.185c-40.684 0-73.785 33.167-73.785 73.75s33.101 73.75 73.785 73.75h75.525c8.516 0 15.445 6.756 15.445 15.25 0 8.495-6.929 14.75-15.445 14.75H665.756c-13.748 26.25-27.118 48.75-54.26 60H828.75c40-.576 72.721-34.428 72.721-74.651 0-40.221-32.721-73.523-72.721-74.099" fill="#616364"/><path d="M535.246 280C470.354 280 417.5 333.169 417.5 398.5V645h58.75V517.5h58.873c64.894 0 117.562-53.876 117.562-119.207C652.685 332.96 600.14 280 535.246 280zm0 177.5H476.25v-59.208c0-33.084 26.341-60.002 58.996-60.002s59.222 26.918 59.222 60.002c0 33.086-26.567 59.208-59.222 59.208" fill="#616364"/><path d="M231.504 517.5c-55.55 0-102.253-39.584-114.89-91.296 0 0-3.653-17.099-3.653-28.356 0-11.26 3.458-28.533 3.458-28.533 12.728-51.585 59.373-89.997 114.832-89.997C296.476 279.318 350 332.34 350 397.565v28.685H176.706c10.234 20 30.93 31.25 54.798 31.25h155.782l.214-169.15c0-25.218-20.633-45.85-45.85-45.85H120.852C95.632 242.5 75 262.508 75 287.725v220.799C75 533.743 95.633 555 120.852 555H341.65c22.631 0 41.51-16.25 45.156-37.5H231.504" fill="#c60c78"/><path d="M231.251 335.445c-23.776 0-44.451 14.555-54.726 33.305H285.98c-10.275-18.75-30.951-33.305-54.729-33.305M331.25 170.699c0-53.889-44.785-97.574-100.029-97.574-54.329 0-98.515 42.256-99.966 94.91-.024.221-.005.439-.005.668v29.322c0 3.507 2.856 6.975 6.451 6.975h36.801c3.597 0 6.748-3.467 6.748-6.975v-27.326c0-26.91 22.413-48.804 50-48.804s50 21.894 50 48.804v27.326c0 3.508 2.916 6.975 6.511 6.975h36.803c3.595 0 6.686-3.467 6.686-6.975v-27.326" fill="#c60c78"/><path d="M601.16 593.75l-5.32 30.123c-2.659 15.225-12.636 22.197-26.159 22.197-11.454 0-20.321-7.464-17.732-22.172l5.318-30.148h8.204l-5.322 30.123c-1.625 9.389 2.587 14.734 10.567 14.734 8.203 0 15.221-4.879 16.921-14.709l5.32-30.148h8.203zm-32.218-9.43c0 2.511 1.923 3.692 3.992 3.692 2.586 0 5.394-1.846 5.394-5.32 0-2.436-1.627-3.692-3.77-3.692-2.658 0-5.615 1.698-5.615 5.32zm17.735-.075c0 2.586 1.995 3.768 4.14 3.768 2.29 0 5.32-1.847 5.32-5.247 0-2.436-1.776-3.766-3.77-3.766-2.66 0-5.69 1.698-5.69 5.245M620.985 593.75l-3.695 20.814c3.176-4.283 9.53-6.55 13.964-6.55 9.163 0 15.517 5.37 15.517 15.344 0 14.114-9.827 22.601-22.387 22.601-4.879 0-9.017-1.811-11.528-6.392L611.451 645h-7.167l9.088-51.25h7.613zm-5.764 35.127c-.296 6.059 3.62 9.975 9.309 9.975 7.169 0 14.113-5.543 14.558-13.965.295-6.133-3.695-9.756-9.238-9.756-7.094 0-14.187 5.692-14.629 13.746M661.714 630c-.297 5 3.62 9.082 10.271 9.082 3.695 0 8.571-1.445 11.23-3.956l4.139 4.783c-4.505 4.134-11.158 6.193-16.773 6.193-10.492 0-16.626-6.283-16.626-15.89 0-12.783 10.049-22.31 22.906-22.31 11.75 0 18.4 7.098 14.41 22.098h-29.557zm23.35-6.25c.59-6.25-3.104-8.793-9.238-8.793-5.54 0-10.638 2.543-12.857 8.793h22.095M711.604 608.75l-.37 4.818c3.547-4.66 7.833-5.61 11.748-5.61 3.548 0 6.724 1.26 8.424 3.106l-4.58 6.65c-1.626-1.473-3.251-2.212-6.06-2.212-5.247 0-10.418 3.147-11.601 9.872L705.693 645h-7.612l6.429-36.25h7.094M768.069 608.75l3.841 28.668 13.891-28.668h8.499L775.236 645h-8.941l-3.621-23.914-5.838 11.88L750.482 645h-8.868l-6.429-36.25h8.572l3.77 28.668 13.964-28.668h6.578M804.074 630c-.296 5 3.62 9.082 10.271 9.082 3.695 0 8.57-1.445 11.23-3.956l4.139 4.783c-4.507 4.134-11.158 6.193-16.774 6.193-10.492 0-16.625-6.283-16.625-15.89 0-12.783 10.049-22.31 22.906-22.31 11.75 0 18.4 7.098 14.41 22.098h-29.557zm23.35-6.25c.59-6.25-3.105-8.793-9.238-8.793-5.541 0-10.64 2.543-12.857 8.793h22.095M854.481 608.75L848.055 645h-7.612l6.428-36.25h7.61zm-6.723-9.876c0 2.586 1.922 3.92 3.992 3.92 2.955 0 5.689-1.924 5.689-5.542 0-2.442-1.849-3.846-3.843-3.846-2.735 0-5.838 1.777-5.838 5.469M888.256 617.717c-2.363-2.66-5.393-3.4-9.013-3.4-5.027 0-8.573 1.703-8.573 4.878 0 2.66 2.881 3.772 7.169 4.139 6.649.59 15.147 2.809 13.374 12.193-1.257 6.798-8.054 10.788-17.513 10.788-5.91 0-11.602-1.33-15.444-6.724l4.952-5.394c2.733 3.766 7.537 5.32 11.822 5.394 3.62 0 7.907-1.33 8.572-4.73.665-3.25-2.218-4.505-7.537-5.026-6.209-.59-13.005-2.878-13.005-9.752 0-9.09 9.826-12.266 17.218-12.266 5.614 0 9.753 1.255 13.152 4.878l-5.174 5.022M912.281 608.75l-3.471 19.521c-1.109 6.208 1.699 10.498 8.054 10.498 5.985 0 11.083-4.958 12.116-11.017l3.324-19.002h7.612L933.49 645h-6.872l.516-5.253c-4.285 4.064-8.499 5.981-13.595 5.981-8.943 0-14.263-6.41-12.341-17.418l3.473-19.56h7.61M973.331 645l3.474-19.403c1.106-6.282-1.032-10.443-7.98-10.443-6.06 0-11.16 4.874-12.193 10.859L953.308 645h-7.613l6.431-36.25h6.943l-.516 5.297c4.212-3.915 8.57-5.847 13.3-5.847 8.867 0 14.633 6.168 12.638 17.328L981.018 645h-7.687M999.129 650c-.517 5 3.325 7.023 9.756 7.023 5.617 0 11.676-3.136 13.08-11.116l1.107-6.225c-3.325 4.655-9.385 6.493-13.89 6.493-9.313 0-15.815-5.543-15.815-15.596 0-14.332 10.64-22.611 22.684-22.611 5.1 0 9.681 2.42 11.309 6.56l1.255-5.778h7.389l-6.356 37.327c-2.363 13.82-12.634 18.109-22.018 18.109-11.235 0-17.439-5.436-15.89-14.186h7.389zm2.143-20.9c0 6.204 4.065 9.975 9.905 9.975 15.735 0 19.95-24.162 4.21-24.162-7.465 0-14.115 5.538-14.115 14.187" fill="#616364"/></svg>