<svg width="88" height="88" viewBox="0 0 88 88" fill="none" xmlns="http://www.w3.org/2000/svg">
<mask id="mask0" mask-type="alpha" maskUnits="userSpaceOnUse" x="0" y="0" width="88" height="88">
<circle cx="44" cy="44" r="44" fill="#222222"/>
</mask>
<g mask="url(#mask0)">
<circle cx="44" cy="44" r="44" fill="#DE378C"/>
<path fill-rule="evenodd" clip-rule="evenodd" d="M34.892 53.3929C34.892 53.3929 34.5973 51.9625 34.5973 51.0208C34.5973 50.079 34.8762 48.634 34.8762 48.634C35.903 44.3188 39.6657 41.1055 44.1393 41.1055C49.4007 41.1055 53.7183 45.541 53.7183 50.9972V53.3967H39.7394C40.5649 55.0698 42.2344 56.0109 44.1597 56.0109H56.726L56.7432 41.8612C56.7432 39.7516 55.0789 38.0256 53.0446 38.0256H35.2338C33.1996 38.0256 31.5352 39.6993 31.5352 41.8089V60.2791C31.5352 62.3887 33.1996 64.167 35.2338 64.167H53.0446C54.8703 64.167 56.3931 62.8076 56.6873 61.03H44.1597C39.6787 61.03 35.9114 57.7187 34.892 53.3929Z" fill="white"/>
<path fill-rule="evenodd" clip-rule="evenodd" d="M43.7725 45.4927C41.8951 45.4927 40.2625 46.7983 39.4512 48.4803H48.0939C47.2826 46.7983 45.65 45.4927 43.7725 45.4927" fill="white"/>
<path fill-rule="evenodd" clip-rule="evenodd" d="M51.7005 32.1229C51.7005 27.5447 48.1526 23.8335 43.776 23.8335C39.4719 23.8335 35.9714 27.4234 35.8564 31.8966C35.8545 31.9155 35.856 31.9338 35.856 31.9533V34.4444C35.856 34.7423 36.0823 35.0369 36.3671 35.0369H39.2826C39.5674 35.0369 39.8172 34.7423 39.8172 34.4444V32.1229C39.8172 29.8367 41.5927 27.9767 43.7783 27.9767C45.9638 27.9767 47.7394 29.8367 47.7394 32.1229V34.4444C47.7394 34.7423 47.9704 35.0369 48.2552 35.0369H51.1708C51.4556 35.0369 51.7005 34.7423 51.7005 34.4444V32.1229" fill="white"/>
</g>
</svg>
