<?xml version="1.0" encoding="UTF-8" standalone="no"?>
<svg
   xmlns:dc="http://purl.org/dc/elements/1.1/"
   xmlns:cc="http://creativecommons.org/ns#"
   xmlns:rdf="http://www.w3.org/1999/02/22-rdf-syntax-ns#"
   xmlns:svg="http://www.w3.org/2000/svg"
   xmlns="http://www.w3.org/2000/svg"
   height="1379.6"
   width="2000"
   xml:space="preserve"
   viewBox="0 0 2000 1379.6"
   y="0px"
   x="0px"
   id="zalando_x5F_logo_x5F_vector_xA0_Bild_1_"
   version="1.1"><metadata
   id="metadata15"><rdf:RDF><cc:Work
       rdf:about=""><dc:format>image/svg+xml</dc:format><dc:type
         rdf:resource="http://purl.org/dc/dcmitype/StillImage" /></cc:Work></rdf:RDF></metadata><defs
   id="defs13" />
<style
   id="style2"
   type="text/css">
	.st0{fill:#71706F;}
	.st1{fill:#B90466;}
</style>
<g
   id="g8">
	<path
   style="fill:#71706f"
   id="path4"
   d="m 1820.4,714.3 v 0 h -183.7 c -20.4,0 -36.7,-16.3 -36.7,-36.7 0,-20.4 16.3,-36.7 36.7,-36.7 h 281.6 V 502 h -281.6 c -100,0 -179.6,79.6 -179.6,179.6 0,100 79.6,179.6 179.6,179.6 h 181.6 c 20.4,0 36.7,16.3 36.7,36.7 0,20.4 -16.3,34.7 -36.7,34.7 h -389.8 c -32.7,63.3 -63.3,118.4 -130.6,144.9 h 524.5 v 0 c 95.9,-2 177.6,-83.7 177.6,-179.6 -6.1,-104 -83.7,-183.6 -179.6,-183.6 z M 1110.2,500 c -157.1,0 -283.7,128.6 -283.7,285.7 0,2 0,6.1 0,6.1 v 587.8 h 140.8 v -306.1 h 140.8 c 157.1,0 283.7,-130.6 283.7,-289.8 C 1393.9,628.6 1269.4,500 1110.2,500 Z m 0,428.6 H 969.4 V 787.8 c 0,-79.6 63.3,-144.9 140.8,-144.9 77.6,0 140.8,63.3 140.8,144.9 2.1,75.5 -63.2,140.8 -140.8,140.8 z"
   class="st0" />
	<path
   style="fill:#b90466"
   id="path6"
   d="m 377.6,1073.5 c -134.7,0 -246.9,-95.9 -277.6,-218.4 0,0 -8.2,-40.8 -8.2,-69.4 0,-28.6 8.2,-69.4 8.2,-69.4 C 128.6,589.8 244.9,500 377.6,500 c 157.1,0 285.7,128.6 285.7,285.7 v 69.4 H 246.9 c 24.5,49 75.5,75.5 130.6,75.5 H 755.1 V 518.4 c 0,-61.2 -51,-110.2 -110.2,-110.2 H 110.2 C 49,408.2 0,457.1 0,518.4 V 1051 c 0,61.2 51,112.2 110.2,112.2 h 532.7 c 53.1,0 100,-40.8 110.2,-91.8 0,2.1 -375.5,2.1 -375.5,2.1 z m 0,-438.8 c -57.1,0 -106.1,34.7 -130.6,79.6 H 512.3 C 485.7,669.4 434.7,634.7 377.6,634.7 Z m 240.8,-400 C 618.4,104.1 512.2,0 377.6,0 246.9,0 138.8,102 136.7,230.6 c 0,0 0,0 0,2 V 302 c 0,8.2 8.2,16.3 16.3,16.3 h 87.8 c 8.2,0 16.3,-8.2 16.3,-16.3 v -67.3 0 c 0,-63.3 53.1,-118.4 120.4,-118.4 67.3,0 120.5,53.1 120.5,118.4 V 302 c 0,8.2 8.2,16.3 16.3,16.3 H 602 c 8.2,0 16.3,-8.2 16.3,-16.3 z"
   class="st1" />
</g>
</svg>