<svg enable-background="new 0 0 200 200" height="360" viewBox="0 0 640 360" width="640" xmlns="http://www.w3.org/2000/svg"><g transform="translate(154.63668 20.889)"><path d="m49.657871 156.54413h274.81076v116.33094h-274.81076z" fill="#fff" stroke-width="1.68596"/><path d="m163.563 41.867-16.157-26.756-110.146 55.072z" fill="#85d5f6" transform="matrix(1.6859556 0 0 1.6859556 -4.29271 -10.365476)"/><path d="m175.723 73.311v-29.36l-137.941 29.534z" fill="#85d5f6" transform="matrix(1.6859556 0 0 1.6859556 -4.29271 -10.365476)"/><path d="m270.69171 212.09806c0 7.34402 5.95311 13.29881 13.30219 13.29881 7.34402 0 13.30051-5.9531 13.30051-13.29881s-5.9548-13.30051-13.30051-13.30051c-7.34908.002-13.30219 5.9548-13.30219 13.30051" fill="#1896d3" stroke-width="1.68596"/><path d="m31.619831 107.78967c0-8.212293 6.720219-14.92914 14.932509-14.92914h25.530426l31.434644-15.718164h-61.844226c-12.53508 0-22.790748 10.253982-22.790748 22.789062 0 12.535082 10.255668 22.789062 22.790748 22.789062h4.880842c-8.21229-.002-14.934195-6.71853-14.934195-14.93082" fill="#1896d3" stroke-width="1.68596"/><g fill="#48a1d9"><path d="m132.69119 229.98436c.0118-.0354.0253-.0725.0388-.10622-.0118.0337-.0253.0691-.0388.10622" stroke-width="1.68596"/><path d="m133.92699 197.39821c.0186.0556.0371.11296.0573.17197-.0185-.0573-.0371-.11465-.0573-.17197z" stroke-width="1.68596"/><path d="m131.75211 232.284c.032-.0708.059-.14499.0894-.2158-.0303.0708-.0573.14499-.0894.2158" stroke-width="1.68596"/><path d="m113.69384 198.64413c-.20906-.44172-.42486-.87501-.65584-1.29987-.13993-.26132-.27818-.52096-.42486-.77217-.35405-.61031-.72496-1.20546-1.12453-1.78205-.12645-.18209-.26638-.35743-.39789-.53445-.32202-.44341-.65584-.87501-1.00483-1.29482-.17534-.21074-.35573-.42148-.5395-.62717-.41643-.4687-.85141-.9239-1.30493-1.35888-.11465-.1079-.22424-.22761-.34225-.33382-.52771-.49061-1.08576-.95257-1.66235-1.39934-.19558-.15174-.3962-.29673-.59683-.44341-.49567-.35742-1.0082-.69967-1.53591-1.02338-.16185-.10284-.31696-.20905-.48218-.30515-.67607-.39283-1.38249-.75868-2.1125-1.09419-.19726-.0944-.39958-.17197-.59852-.25458-.6002-.25963-1.218944-.49735-1.851178-.71316-.21243-.0759-.421489-.15173-.638977-.21749-.814317-.25626-1.652237-.48049-2.52219-.66595-.151736-.032-.311901-.0523-.465323-.0826-.750251-.14836-1.522418-.26301-2.314818-.35236-.252893-.0287-.507472-.0556-.765423-.0809-.954251-.0843-1.928734-.14162-2.941993-.14162h-9.132822v55.9653h9.132822c23.677562 0 31.886482-23.85122 24.646982-40.41405-.11296-.263-.24109-.5159-.36416-.77385" stroke-width="1.68596"/><path d="m135.41738 219.46568c.0118-.0809.032-.16522.0421-.24615-.0101.0826-.0303.16523-.0421.24615z" stroke-width="1.68596"/><path d="m134.96723 222.06543c.007-.0303.0118-.0573.0152-.086-.003.0287-.008.0573-.0152.086" stroke-width="1.68596"/><path d="m83.078 134.566v-.003.001z" transform="matrix(1.6859556 0 0 1.6859556 -4.29271 -10.365476)"/><path d="m282.39562 189.30899h41.53351v-40.17632c0-14.52956-11.88767-26.41724-26.41555-26.41724h-255.928066c-12.494617-.0472-22.701392-10.27758-22.701392-22.784002 0-8.635465 4.867354-16.18686 11.995574-20.052756-14.372772 5.69853-24.621696 19.734111-24.621696 36.072708v33.17961 69.59624 57.97159c0 14.52451 11.887673 26.41218 26.415553 26.41218h264.840027c14.52788 0 26.41555-11.88767 26.41555-26.41218v-41.81339h-41.53351c-12.5334 0-22.79075-10.25566-22.79075-22.79075 0-12.53002 10.25735-22.78569 22.79075-22.78569m-103.05741 70.74607h-3.39046l-17.09053-41.3548-16.96072 41.74257h-3.26064l-9.36379-23.32519c-7.31031 12.3884-20.59226 21.37117-39.861052 21.37117h-27.786235v-93.27381-.003h27.786235c1.011573 0 2.006287.0303 2.984142.0759.121388.007.239405.0202.360794.0287.873325.0506 1.736534.11464 2.582884.19894.02529.003.04721.008.07081.0101 1.891642.19726 3.715846.48724 5.474302.86321.003 0 .007 0 .0101.003.92391.19726 1.83095.4198 2.71945.66427.0354.0101.0742.0185.10959.027.0421.0135.0826.0303.12476.0421.81768.22592 1.61851.47544 2.40754.74351.0405.0135.086.0253.12645.0371.008.002.0152.003.0236.007.027.008.0523.0219.0776.0354 1.4887.51421 2.92177 1.09081 4.29582 1.73653.0354.0186.0708.0354.10622.0506 1.37911.65415 2.70595 1.36562 3.97211 2.14116.0303.0169.059.0354.0893.0506 1.26447.77723 2.47499 1.61009 3.62481 2.49353.027.0219.054.0405.0792.0641 1.15488.89018 2.25243 1.836 3.29267 2.82734.007.008.0135.0135.0202.0202.0152.0152.0287.0303.0422.0438 1.72473 1.65224 3.29098 3.43935 4.69707 5.32931v.002c2.03832 2.74642 3.73945 5.72045 5.10676 8.84453.49399 1.12621.94751 2.27098 1.35214 3.4326 0-.005 0-.007 0-.007l7.04223 17.8509 14.75717-23.32689h7.92737l14.75379 23.32689 18.78829-47.61645h21.00364z" stroke-width="1.68596"/><path d="m135.96194 210.77458c.002.0894.008.17534.0118.26638-.002-.0894-.0101-.17871-.0118-.26638z" stroke-width="1.68596"/><path d="m135.8709 208.57441v.007c-.003-.0759-.008-.15342-.0135-.2276.005.0725.0101.14499.0135.22086" stroke-width="1.68596"/></g></g></svg>