<?xml version="1.0" encoding="UTF-8" standalone="no"?>
<svg
   version="1.1"
   id="Layer_1"
   x="0px"
   y="0px"
   width="512"
   height="512"
   viewBox="0 0 512 512"
   enable-background="new 0 0 200 200"
   xml:space="preserve"
   sodipodi:docname="provider-digiwallet-icon-white-512x512.svg"
   inkscape:version="1.2.1 (9c6d41e4, 2022-07-14)"
   xmlns:inkscape="http://www.inkscape.org/namespaces/inkscape"
   xmlns:sodipodi="http://sodipodi.sourceforge.net/DTD/sodipodi-0.dtd"
   xmlns="http://www.w3.org/2000/svg"
   xmlns:svg="http://www.w3.org/2000/svg"
   xmlns:rdf="http://www.w3.org/1999/02/22-rdf-syntax-ns#"
   xmlns:cc="http://creativecommons.org/ns#"
   xmlns:dc="http://purl.org/dc/elements/1.1/"><metadata
   id="metadata1476"><rdf:RDF><cc:Work
       rdf:about=""><dc:format>image/svg+xml</dc:format><dc:type
         rdf:resource="http://purl.org/dc/dcmitype/StillImage" /></cc:Work></rdf:RDF></metadata><defs
   id="defs1474" /><sodipodi:namedview
   pagecolor="#ffffff"
   bordercolor="#666666"
   borderopacity="1"
   objecttolerance="10"
   gridtolerance="10"
   guidetolerance="10"
   inkscape:pageopacity="0"
   inkscape:pageshadow="2"
   inkscape:window-width="2342"
   inkscape:window-height="1257"
   id="namedview1472"
   showgrid="false"
   inkscape:zoom="1"
   inkscape:cx="429.5"
   inkscape:cy="45.5"
   inkscape:window-x="2240"
   inkscape:window-y="488"
   inkscape:window-maximized="0"
   inkscape:current-layer="g2054"
   inkscape:pagecheckerboard="true"
   inkscape:showpageshadow="2"
   inkscape:deskcolor="#d1d1d1" />














<g
   id="g2054"
   transform="translate(154.63668,20.889)"><g
     id="g2083"
     transform="matrix(1.6117297,0,0,1.6117297,-164.72288,-21.332924)"><polygon
       fill="#85d5f6"
       points="147.406,15.111 37.26,70.183 163.563,41.867 "
       id="polygon1443"
       transform="matrix(1.6859556,0,0,1.6859556,-4.2927104,-10.365476)"
       style="fill:#ffffff" /><polygon
       fill="#85d5f6"
       points="175.723,43.951 37.782,73.485 175.723,73.311 "
       id="polygon1445"
       transform="matrix(1.6859556,0,0,1.6859556,-4.2927104,-10.365476)"
       style="fill:#ffffff" /><path
       fill="#1896d3"
       d="m 270.69171,212.09806 c 0,7.34402 5.95311,13.29881 13.30219,13.29881 7.34402,0 13.30051,-5.9531 13.30051,-13.29881 0,-7.34571 -5.9548,-13.30051 -13.30051,-13.30051 -7.34908,0.002 -13.30219,5.9548 -13.30219,13.30051"
       id="path1447"
       style="fill:#ffffff;stroke-width:1.68596" /><path
       fill="#1896d3"
       d="m 31.619831,107.78967 c 0,-8.212293 6.720219,-14.92914 14.932509,-14.92914 H 72.082766 L 103.51741,77.142366 H 41.673184 c -12.53508,0 -22.790748,10.253982 -22.790748,22.789062 0,12.535082 10.255668,22.789062 22.790748,22.789062 h 4.880842 c -8.21229,-0.002 -14.934195,-6.71853 -14.934195,-14.93082"
       id="path1449"
       style="fill:#ffffff;stroke-width:1.68596" /><path
       fill="#48a1d9"
       d="m 132.69119,229.98436 v 0 c 0.0118,-0.0354 0.0253,-0.0725 0.0388,-0.10622 -0.0118,0.0337 -0.0253,0.0691 -0.0388,0.10622"
       id="path1451"
       style="stroke-width:1.68596" /><path
       fill="#48a1d9"
       d="m 133.92699,197.39821 c 0.0186,0.0556 0.0371,0.11296 0.0573,0.17197 -0.0185,-0.0573 -0.0371,-0.11465 -0.0573,-0.17197 z"
       id="path1453"
       style="stroke-width:1.68596" /><path
       fill="#48a1d9"
       d="m 131.75211,232.284 c 0.032,-0.0708 0.059,-0.14499 0.0894,-0.2158 v 0 c -0.0303,0.0708 -0.0573,0.14499 -0.0894,0.2158"
       id="path1455"
       style="stroke-width:1.68596" /><path
       fill="#48a1d9"
       d="m 113.69384,198.64413 c -0.20906,-0.44172 -0.42486,-0.87501 -0.65584,-1.29987 -0.13993,-0.26132 -0.27818,-0.52096 -0.42486,-0.77217 -0.35405,-0.61031 -0.72496,-1.20546 -1.12453,-1.78205 -0.12645,-0.18209 -0.26638,-0.35743 -0.39789,-0.53445 -0.32202,-0.44341 -0.65584,-0.87501 -1.00483,-1.29482 -0.17534,-0.21074 -0.35573,-0.42148 -0.5395,-0.62717 -0.41643,-0.4687 -0.85141,-0.9239 -1.30493,-1.35888 -0.11465,-0.1079 -0.22424,-0.22761 -0.34225,-0.33382 -0.52771,-0.49061 -1.08576,-0.95257 -1.66235,-1.39934 -0.19558,-0.15174 -0.3962,-0.29673 -0.59683,-0.44341 -0.49567,-0.35742 -1.0082,-0.69967 -1.53591,-1.02338 -0.16185,-0.10284 -0.31696,-0.20905 -0.48218,-0.30515 -0.67607,-0.39283 -1.38249,-0.75868 -2.1125,-1.09419 -0.19726,-0.0944 -0.39958,-0.17197 -0.59852,-0.25458 -0.6002,-0.25963 -1.218944,-0.49735 -1.851178,-0.71316 -0.21243,-0.0759 -0.421489,-0.15173 -0.638977,-0.21749 -0.814317,-0.25626 -1.652237,-0.48049 -2.52219,-0.66595 -0.151736,-0.032 -0.311901,-0.0523 -0.465323,-0.0826 -0.750251,-0.14836 -1.522418,-0.26301 -2.314818,-0.35236 -0.252893,-0.0287 -0.507472,-0.0556 -0.765423,-0.0809 -0.954251,-0.0843 -1.928734,-0.14162 -2.941993,-0.14162 h -9.132822 v 55.9653 h 9.132822 c 23.677562,0 31.886482,-23.85122 24.646982,-40.41405 -0.11296,-0.263 -0.24109,-0.5159 -0.36416,-0.77385"
       id="path1457"
       style="fill:#ffffff;stroke-width:1.68596" /><path
       fill="#48a1d9"
       d="m 135.41738,219.46568 c 0.0118,-0.0809 0.032,-0.16522 0.0421,-0.24615 -0.0101,0.0826 -0.0303,0.16523 -0.0421,0.24615 z"
       id="path1459"
       style="stroke-width:1.68596" /><path
       fill="#48a1d9"
       d="m 134.96723,222.06543 v 0 c 0.007,-0.0303 0.0118,-0.0573 0.0152,-0.086 -0.003,0.0287 -0.008,0.0573 -0.0152,0.086"
       id="path1461"
       style="stroke-width:1.68596" /><polyline
       fill="#48a1d9"
       points="83.078,134.566 83.078,134.563 83.078,134.564 83.078,134.566 "
       id="polyline1463"
       transform="matrix(1.6859556,0,0,1.6859556,-4.2927104,-10.365476)" /><path
       fill="#48a1d9"
       d="m 282.39562,189.30899 h 41.53351 v -40.17632 c 0,-14.52956 -11.88767,-26.41724 -26.41555,-26.41724 H 41.585514 c -12.494617,-0.0472 -22.701392,-10.27758 -22.701392,-22.784002 0,-8.635465 4.867354,-16.18686 11.995574,-20.052756 C 16.506924,85.577202 6.258,99.612783 6.258,115.95138 v 33.17961 69.59624 57.97159 c 0,14.52451 11.887673,26.41218 26.415553,26.41218 H 297.51358 c 14.52788,0 26.41555,-11.88767 26.41555,-26.41218 v -41.81339 h -41.53351 c -12.5334,0 -22.79075,-10.25566 -22.79075,-22.79075 0,-12.53002 10.25735,-22.78569 22.79075,-22.78569 m -103.05741,70.74607 h -3.39046 l -17.09053,-41.3548 -16.96072,41.74257 h -3.26064 l -9.36379,-23.32519 c -7.31031,12.3884 -20.59226,21.37117 -39.861052,21.37117 H 61.624783 V 165.215 165.212 h 27.786235 c 1.011573,0 2.006287,0.0303 2.984142,0.0759 0.121388,0.007 0.239405,0.0202 0.360794,0.0287 0.873325,0.0506 1.736534,0.11464 2.582884,0.19894 0.02529,0.003 0.04721,0.008 0.07081,0.0101 1.891642,0.19726 3.715846,0.48724 5.474302,0.86321 0.003,0 0.007,0 0.0101,0.003 0.92391,0.19726 1.83095,0.4198 2.71945,0.66427 0.0354,0.0101 0.0742,0.0185 0.10959,0.027 0.0421,0.0135 0.0826,0.0303 0.12476,0.0421 0.81768,0.22592 1.61851,0.47544 2.40754,0.74351 0.0405,0.0135 0.086,0.0253 0.12645,0.0371 0.008,0.002 0.0152,0.003 0.0236,0.007 0.027,0.008 0.0523,0.0219 0.0776,0.0354 1.4887,0.51421 2.92177,1.09081 4.29582,1.73653 0.0354,0.0186 0.0708,0.0354 0.10622,0.0506 1.37911,0.65415 2.70595,1.36562 3.97211,2.14116 0.0303,0.0169 0.059,0.0354 0.0893,0.0506 1.26447,0.77723 2.47499,1.61009 3.62481,2.49353 0.027,0.0219 0.054,0.0405 0.0792,0.0641 1.15488,0.89018 2.25243,1.836 3.29267,2.82734 0.007,0.008 0.0135,0.0135 0.0202,0.0202 0.0152,0.0152 0.0287,0.0303 0.0422,0.0438 1.72473,1.65224 3.29098,3.43935 4.69707,5.32931 v 0.002 c 2.03832,2.74642 3.73945,5.72045 5.10676,8.84453 v 0 c 0.49399,1.12621 0.94751,2.27098 1.35214,3.4326 0,-0.005 0,-0.007 0,-0.007 l 7.04223,17.8509 14.75717,-23.32689 h 7.92737 l 14.75379,23.32689 18.78829,-47.61645 h 21.00364 z"
       id="path1465"
       style="fill:#ffffff;stroke-width:1.68596" /><path
       fill="#48a1d9"
       d="m 135.96194,210.77458 c 0.002,0.0894 0.008,0.17534 0.0118,0.26638 -0.002,-0.0894 -0.0101,-0.17871 -0.0118,-0.26638 z"
       id="path1467"
       style="stroke-width:1.68596" /><path
       fill="#48a1d9"
       d="m 135.8709,208.57441 c 0,0.002 0,0.005 0,0.007 -0.003,-0.0759 -0.008,-0.15342 -0.0135,-0.2276 0.005,0.0725 0.0101,0.14499 0.0135,0.22086"
       id="path1469"
       style="stroke-width:1.68596" /></g></g>
</svg>
