<svg height="80" viewBox="0 0 240 80" width="240" xmlns="http://www.w3.org/2000/svg" xmlns:xlink="http://www.w3.org/1999/xlink"><linearGradient id="a" x1="75.55512%" x2="40.99215%" y1="90.011945%" y2="35.896416%"><stop offset="0" stop-color="#f89f20"/><stop offset=".2502" stop-color="#f79a20"/><stop offset=".5331" stop-color="#f68d20"/><stop offset=".6196" stop-color="#f58720"/><stop offset=".7232" stop-color="#f48120"/><stop offset="1" stop-color="#f37521"/></linearGradient><linearGradient id="b" x1="70.098464%" x2="19.583618%" y1="89.283618%" y2="-9.450512%"><stop offset="0" stop-color="#f58720"/><stop offset=".3587" stop-color="#e16f27"/><stop offset=".703" stop-color="#d4602c"/><stop offset=".9816" stop-color="#d05b2e"/></linearGradient><g fill="none" fill-rule="nonzero" transform="translate(0 20)"><g fill="#231f20"><path d="m11.1724138 1.24137931h-10.82758621v37.93103449h10.82758621c5.7241379 0 9.862069-1.3793104 13.5172414-4.3448276 4.3448276-3.5862069 6.8965517-8.9655172 6.8965517-14.5517241-.0689655-11.24137934-8.4137931-19.03448279-20.4137931-19.03448279zm8.6896552 28.55172409c-2.3448276 2.0689656-5.3103449 3.0344828-10.13793107 3.0344828h-2v-25.10344827h2c4.75862067 0 7.65517237.82758621 10.13793107 3.03448277 2.5517241 2.2758621 4.0689655 5.7931034 4.0689655 9.4482759 0 3.6551724-1.5172414 7.3103448-4.0689655 9.5862068z"/><path d="m34.965517 1.241379h7.37931v37.931035h-7.37931z"/><path d="m60.4137931 15.7931034c-4.4137931-1.6551724-5.7241379-2.7586206-5.7241379-4.7586206 0-2.41379314 2.3448276-4.20689659 5.5172414-4.20689659 2.2068965 0 4.0689655.89655172 5.9310344 3.10344827l3.862069-5.03448276c-3.1724138-2.75862069-6.9655172-4.20689655-11.1724138-4.20689655-6.6896552 0-11.862069 4.68965517-11.862069 10.89655173 0 5.2413793 2.4137931 7.9310345 9.3103449 10.4137931 2.8965517 1.0344828 4.3448276 1.7241379 5.1034482 2.137931 1.4482759.9655173 2.2068966 2.3448276 2.2068966 3.9310345 0 3.1034483-2.4137931 5.3793104-5.7241379 5.3793104-3.5172414 0-6.3448276-1.7931035-8.0689656-5.0344828l-4.7586206 4.6206897c3.3793103 5.0344827 7.5172413 7.2413793 13.1034482 7.2413793 7.6551724 0 13.1034483-5.1034483 13.1034483-12.4827587.137931-6.137931-2.4137931-8.8965517-10.8275862-12z"/><path d="m73.6551724 20.2758621c0 11.1724138 8.7586207 19.7931034 20 19.7931034 3.1724138 0 5.9310345-.6206896 9.2413796-2.2068965v-8.6896552c-2.9655175 2.9655172-5.5862072 4.137931-8.896552 4.137931-7.4482759 0-12.7586207-5.3793103-12.7586207-13.1034482 0-7.3103449 5.4482759-13.03448281 12.4137931-13.03448281 3.5172414 0 6.2068966 1.24137931 9.2413796 4.27586211v-8.68965521c-3.2413796-1.65517241-5.9310348-2.34482759-9.1034486-2.34482759-11.1034482 0-20.137931 8.82758621-20.137931 19.862069z"/><path d="m161.655172 26.7586207-10.137931-25.51724139h-8.068965l16.068965 38.89655169h4l16.344828-38.89655169h-8z"/><path d="m183.241379 39.1724138h20.965518v-6.4137931h-13.586207v-10.2068966h13.103448v-6.4137931h-13.103448v-8.41379307h13.586207v-6.48275862h-20.965518z"/><path d="m233.517241 12.4827586c0-7.10344826-4.896551-11.17241377-13.448275-11.17241377h-10.965518v37.93103447h7.379311v-15.2413793h.965517l10.206896 15.2413793h9.103449l-11.931035-16c5.586207-1.1724138 8.689655-4.9655172 8.689655-10.7586207zm-14.896551 6.2758621h-2.137931v-11.51724139h2.275862c4.620689 0 7.103448 1.93103448 7.103448 5.65517239 0 3.7931035-2.482759 5.862069-7.241379 5.862069z"/></g><circle cx="125.586207" cy="20.344828" fill="url(#a)" r="20.206897"/><circle cx="125.586207" cy="20.344828" fill="url(#b)" opacity=".65" r="20.206897"/><g fill="#231f20" transform="translate(233.793103)"><path d="m4.4137931 2.68965517c0-.68965517-.48275862-1.03448276-1.24137931-1.03448276h-1.10344827v3.31034483h.8275862v-1.31034483l.96551725 1.31034483h.96551724l-1.10344828-1.37931034c.4137931-.06896552.68965517-.41379311.68965517-.89655173zm-1.37931034.48275862h-.13793104v-.89655172h.13793104c.4137931 0 .62068965.13793103.62068965.4137931 0 .34482759-.20689655.48275862-.62068965.48275862z"/><path d="m3.31034483.4137931c-1.5862069 0-2.89655173 1.31034483-2.89655173 2.89655173 0 1.58620689 1.31034483 2.89655172 2.89655173 2.89655172 1.58620689 0 2.89655172-1.31034483 2.89655172-2.89655172 0-1.5862069-1.31034483-2.89655173-2.89655172-2.89655173zm0 5.31034483c-1.24137931 0-2.34482759-1.03448276-2.34482759-2.4137931 0-1.31034483 1.03448276-2.41379311 2.34482759-2.41379311 1.24137931 0 2.27586207 1.10344828 2.27586207 2.41379311s-1.03448276 2.4137931-2.27586207 2.4137931z"/></g></g></svg>