<svg fill="none" height="24" width="32" xmlns="http://www.w3.org/2000/svg"><path d="m28 0h-24a4 4 0 0 0 -4 4v16a4 4 0 0 0 4 4h24a4 4 0 0 0 4-4v-16a4 4 0 0 0 -4-4z" fill="#8ace00"/><g clip-rule="evenodd" fill="#fff" fill-rule="evenodd"><path d="m16.711 10.651v.552h.552v-.552h.746v.998h-3.84v-.998h.736v.552h.552v-.552m.391-.199v-.015a.191.191 0 0 0 -.107-.174c-.124-.068-.799-.52-.921-1.159-.068-.336-.065-.626.069-.798.042-.052.117-.138.117-.175-.002-.083-.13-.324-.16-.489-.022-.146-.037-.396.085-.532.12-.135.228-.118.187-.25-.03-.097-.099-.257-.099-.485 0-.149.033-.396.209-.45.139-.04.175-.07.185-.095s0-.39.026-.554c.023-.14.104-.564.487-.606l.062-.006.063.006c.383.042.465.466.487.606.027.163.015.529.027.554.01.025.045.055.184.096.176.053.211.3.211.449 0 .228-.069.388-.1.485-.041.132.067.115.187.25.12.136.109.386.085.532-.03.165-.158.406-.161.489 0 .037.076.123.117.175.134.172.137.462.07.798-.123.639-.799 1.09-.922 1.159a.192.192 0 0 0 -.107.174v.015m-.14 1.796h1.606l.212-.4h-3.637l.213.4m1.607 4.191h2.21l.415 2.794h-1.708l-.257-1.208s-.082-.355-.661-.355-.66.355-.66.355l-.26 1.208h-1.708l.414-2.794h2.214zm2.02-.199-.183-.4h-3.678l-.181.4m-1.618-6.786.06.003c.385.044.465.494.486.644.03.167.02.553.03.577.01.026.047.06.185.103.173.055.21.315.21.473 0 .24-.067.409-.098.505-.043.142.065.123.182.267.125.142.112.405.087.557-.028.173-.159.431-.162.513 0 .04.075.128.118.181.135.186.141.492.073.844-.128.673-.777 1.144-.905 1.22-.093.054-.084.19-.084.233v2.66h-.361v-2.66c0-.043.01-.179-.084-.233-.127-.076-.776-.547-.905-1.22-.068-.352-.064-.658.073-.844.04-.053.118-.142.116-.18-.003-.083-.133-.341-.162-.514-.022-.152-.037-.415.087-.557.118-.144.228-.125.182-.267-.028-.096-.096-.266-.096-.504 0-.16.037-.419.21-.474.14-.043.175-.077.184-.103.01-.024 0-.41.028-.577.022-.15.104-.6.489-.644m7.332-.003-.06.003c-.383.044-.463.494-.485.644-.03.167-.02.553-.03.577-.009.026-.045.06-.181.103-.176.055-.21.315-.21.473 0 .24.064.409.093.505.047.142-.063.123-.183.267-.122.142-.108.405-.085.557.029.173.158.431.163.513 0 .04-.078.128-.117.181-.136.186-.143.492-.073.844.128.673.776 1.144.905 1.22.092.054.08.19.08.233v2.66h.366v-2.66c0-.043-.01-.179.081-.233.13-.076.779-.547.906-1.22.07-.352.063-.658-.074-.844-.04-.053-.117-.142-.117-.18.004-.083.135-.341.162-.514.024-.152.04-.415-.085-.557-.119-.144-.228-.125-.182-.267.03-.096.096-.266.096-.504 0-.16-.037-.419-.21-.474-.137-.043-.175-.077-.184-.103-.01-.024 0-.41-.028-.577-.024-.15-.103-.6-.489-.644m-2.467 4.974h-.517v-.988h.518v.988zm-1.737 0h-.518v-.988h.518zm2.035-1.984h-2.85l-.293 3.193h3.435z"/><path d="m16.711 10.651v.552h.552v-.552h.746v.998h-3.84v-.998h.736v.552h.552v-.552m.391-.199v-.015a.191.191 0 0 0 -.107-.174c-.124-.068-.799-.52-.921-1.159-.068-.336-.065-.626.069-.798.042-.052.117-.138.117-.175-.002-.083-.13-.324-.16-.489-.022-.146-.037-.396.085-.532.12-.135.228-.118.187-.25-.03-.097-.099-.257-.099-.485 0-.149.033-.396.209-.45.139-.04.175-.07.185-.095s0-.39.026-.554c.023-.14.104-.564.487-.606l.062-.006.063.006c.383.042.465.466.487.606.027.163.015.529.027.554.01.025.045.055.184.096.176.053.211.3.211.449 0 .228-.069.388-.1.485-.041.132.067.115.187.25.12.136.109.386.085.532-.03.165-.158.406-.161.489 0 .037.076.123.117.175.134.172.137.462.07.798-.123.639-.799 1.09-.922 1.159a.192.192 0 0 0 -.107.174v.015m-.14 1.796h1.606l.212-.4h-3.637l.213.4m1.607 4.191h2.21l.415 2.794h-1.708l-.257-1.208s-.082-.355-.661-.355-.66.355-.66.355l-.26 1.208h-1.708l.414-2.794h2.214zm2.02-.199-.183-.4h-3.678l-.181.4m-1.618-6.786.06.003c.385.044.465.494.486.644.03.167.02.553.03.577.01.026.047.06.185.103.173.055.21.315.21.473 0 .24-.067.409-.098.505-.043.142.065.123.182.267.125.142.112.405.087.557-.028.173-.159.431-.162.513 0 .04.075.128.118.181.135.186.141.492.073.844-.128.673-.777 1.144-.905 1.22-.093.054-.084.19-.084.233v2.66h-.361v-2.66c0-.043.01-.179-.084-.233-.127-.076-.776-.547-.905-1.22-.068-.352-.064-.658.073-.844.04-.053.118-.142.116-.18-.003-.083-.133-.341-.162-.514-.022-.152-.037-.415.087-.557.118-.144.228-.125.182-.267-.028-.096-.096-.266-.096-.504 0-.16.037-.419.21-.474.14-.043.175-.077.184-.103.01-.024 0-.41.028-.577.022-.15.104-.6.489-.644m7.332-.003-.06.003c-.383.044-.463.494-.485.644-.03.167-.02.553-.03.577-.009.026-.045.06-.181.103-.176.055-.21.315-.21.473 0 .24.064.409.093.505.047.142-.063.123-.183.267-.122.142-.108.405-.085.557.029.173.158.431.163.513 0 .04-.078.128-.117.181-.136.186-.143.492-.073.844.128.673.776 1.144.905 1.22.092.054.08.19.08.233v2.66h.366v-2.66c0-.043-.01-.179.081-.233.13-.076.779-.547.906-1.22.07-.352.063-.658-.074-.844-.04-.053-.117-.142-.117-.18.004-.083.135-.341.162-.514.024-.152.04-.415-.085-.557-.119-.144-.228-.125-.182-.267.03-.096.096-.266.096-.504 0-.16-.037-.419-.21-.474-.137-.043-.175-.077-.184-.103-.01-.024 0-.41-.028-.577-.024-.15-.103-.6-.489-.644m-2.467 4.974h-.517v-.988h.518v.988zm-1.737 0h-.518v-.988h.518zm2.035-1.984h-2.85l-.293 3.193h3.435z"/></g></svg>