<?xml version="1.0" encoding="UTF-8" standalone="no"?>
<svg
   viewBox="0 0 512 512"
   version="1.1"
   id="svg11"
   sodipodi:docname="ideal-issuer-van-lanschot-icon-512x512.svg"
   width="512"
   height="512"
   inkscape:version="1.3.2 (091e20e, 2023-11-25)"
   xmlns:inkscape="http://www.inkscape.org/namespaces/inkscape"
   xmlns:sodipodi="http://sodipodi.sourceforge.net/DTD/sodipodi-0.dtd"
   xmlns="http://www.w3.org/2000/svg"
   xmlns:svg="http://www.w3.org/2000/svg"
   xmlns:rdf="http://www.w3.org/1999/02/22-rdf-syntax-ns#"
   xmlns:cc="http://creativecommons.org/ns#"
   xmlns:dc="http://purl.org/dc/elements/1.1/">
  <sodipodi:namedview
     id="namedview11"
     pagecolor="#ffffff"
     bordercolor="#666666"
     borderopacity="1.0"
     inkscape:showpageshadow="2"
     inkscape:pageopacity="0.0"
     inkscape:pagecheckerboard="true"
     inkscape:deskcolor="#d1d1d1"
     inkscape:zoom="1.0221519"
     inkscape:cx="225.99381"
     inkscape:cy="343.88235"
     inkscape:window-width="1224"
     inkscape:window-height="1064"
     inkscape:window-x="2009"
     inkscape:window-y="441"
     inkscape:window-maximized="0"
     inkscape:current-layer="svg11" />
  <title
     id="title1">Van Lanschot Kempen Logo</title>
  <path
     fill-rule="evenodd"
     d="m 5.78,0.005 h 49.533 c 5.78,0 5.78,5.046 5.78,5.046 v 125.904 c 0,5.046 -5.78,5.046 -5.78,5.046 H 33 l -0.003,-23.022 a 3.23,3.23 0 0 0 -0.003,-0.132 c -0.004,-0.104 -0.008,-0.208 0.01,-0.298 0.034,-0.166 0.056,-0.344 0.079,-0.523 0.064,-0.503 0.127,-1.009 0.454,-1.24 0.463,-0.327 0.932,-0.631 1.4,-0.935 0.305,-0.198 0.61,-0.395 0.913,-0.599 2.739,-1.839 5.533,-3.877 7.959,-6.783 2.244,-2.688 4.197,-6.34 5.08,-10.813 0.54,-2.74 0.216,-5.87 -0.884,-8.116 a 8.747,8.747 0 0 0 -1.774,-2.422 c -0.718,-0.69 -0.784,-1.741 -0.283,-2.765 0.667,-1.365 1.34,-2.832 1.79,-4.45 0.394,-1.413 0.601,-3.035 0.4,-4.564 -0.232,-1.753 -0.978,-3.132 -1.851,-4.027 -0.321,-0.328 -0.677,-0.555 -1.032,-0.781 -0.61,-0.389 -1.217,-0.776 -1.643,-1.675 l 0.004,-0.014 c 0.783,-2.61 1.38,-4.602 1.419,-7.62 0.015,-1.16 0.013,-2.376 -0.304,-3.397 -0.539,-1.735 -1.712,-2.3 -2.758,-2.803 a 20.09,20.09 0 0 1 -0.437,-0.215 9.073,9.073 0 0 0 -0.953,-0.4 10.534,10.534 0 0 1 -0.815,-0.331 C 39.104,47.763 39.036,47.562 39.037,46.356 39.041,40.865 38.29,35.66 35.259,32.962 33.686,31.561 31.893,31.105 30.113,31.13 c -1.698,-0.024 -3.409,0.43 -4.91,1.831 -2.893,2.698 -3.61,7.9 -3.606,13.392 0,1.206 -0.065,1.407 -0.699,1.72 a 9.818,9.818 0 0 1 -0.77,0.328 8.19,8.19 0 0 0 -0.917,0.403 c -0.134,0.072 -0.273,0.142 -0.415,0.213 -1,0.504 -2.12,1.069 -2.634,2.804 -0.304,1.02 -0.306,2.237 -0.29,3.396 0.036,3.017 0.606,5.01 1.354,7.62 l 0.003,0.012 c -0.406,0.898 -0.986,1.286 -1.567,1.674 -0.34,0.227 -0.68,0.454 -0.986,0.783 -0.834,0.894 -1.546,2.272 -1.766,4.024 -0.193,1.53 0.005,3.152 0.381,4.565 0.43,1.615 1.072,3.083 1.708,4.447 0.479,1.024 0.416,2.075 -0.27,2.766 a 8.683,8.683 0 0 0 -1.692,2.42 c -1.051,2.245 -1.36,5.375 -0.844,8.115 0.843,4.472 2.707,8.122 4.849,10.811 2.315,2.905 4.982,4.942 7.595,6.78 0.288,0.203 0.577,0.399 0.866,0.596 0.45,0.305 0.899,0.61 1.343,0.939 0.311,0.23 0.373,0.737 0.433,1.24 0.022,0.179 0.044,0.357 0.076,0.522 0.018,0.089 0.014,0.193 0.01,0.296 a 3.09,3.09 0 0 0 -0.004,0.134 l -0.002,18.067 v 4.973 H 5.78 C 0,136.001 0,130.955 0,130.955 V 5.051 C 0,0.005 5.78,0.005 5.78,0.005 Z m 36.815,22.287 4.849,-9.362 v -1.434 h -7.55 v 1.666 h 5.401 l -4.817,9.13 z m -8.887,0.185 c 2.225,0 3.76,-1.419 3.76,-3.409 v -0.03 c 0,-2.006 -1.535,-2.824 -3.162,-3.04 l 2.992,-3.083 v -1.419 h -7.103 v 1.65 h 4.648 l -2.9,3.1 0.307,1.187 h 0.875 c 1.504,0 2.47,0.602 2.47,1.665 v 0.03 c 0,0.988 -0.798,1.636 -1.856,1.636 -1.197,0 -2.056,-0.509 -2.823,-1.418 l -1.32,1.233 c 0.906,1.11 2.24,1.898 4.112,1.898 z m -10.82,-0.185 4.848,-9.362 v -1.434 h -7.549 v 1.666 h 5.401 l -4.817,9.13 z m -7.858,0 h 1.872 V 11.418 h -1.32 l -2.884,0.926 0.399,1.542 1.933,-0.54 z"
     clip-rule="evenodd"
     id="path1"
     style="fill:#00585b"
     clip-path="url(#clipPath20)"
     transform="matrix(3.7648443,0,0,3.7648443,140.99718,-0.01882451)" />
  <defs
     id="defs11">
    <clipPath
       clipPathUnits="userSpaceOnUse"
       id="clipPath11">
      <g
         id="g12">
        <path
           fill="#ffffff"
           d="M 0,0 H 632 V 136 H 0 Z"
           id="path12" />
      </g>
    </clipPath>
    <clipPath
       clipPathUnits="userSpaceOnUse"
       id="clipPath12">
      <g
         id="g13">
        <path
           fill="#ffffff"
           d="M 0,0 H 632 V 136 H 0 Z"
           id="path13" />
      </g>
    </clipPath>
    <clipPath
       clipPathUnits="userSpaceOnUse"
       id="clipPath13">
      <g
         id="g14">
        <path
           fill="#ffffff"
           d="M 0,0 H 632 V 136 H 0 Z"
           id="path14" />
      </g>
    </clipPath>
    <clipPath
       clipPathUnits="userSpaceOnUse"
       id="clipPath14">
      <g
         id="g15">
        <path
           fill="#ffffff"
           d="M 0,0 H 632 V 136 H 0 Z"
           id="path15" />
      </g>
    </clipPath>
    <clipPath
       clipPathUnits="userSpaceOnUse"
       id="clipPath15">
      <g
         id="g16">
        <path
           fill="#ffffff"
           d="M 0,0 H 632 V 136 H 0 Z"
           id="path16" />
      </g>
    </clipPath>
    <clipPath
       clipPathUnits="userSpaceOnUse"
       id="clipPath16">
      <g
         id="g17">
        <path
           fill="#ffffff"
           d="M 0,0 H 632 V 136 H 0 Z"
           id="path17" />
      </g>
    </clipPath>
    <clipPath
       clipPathUnits="userSpaceOnUse"
       id="clipPath17">
      <g
         id="g18">
        <path
           fill="#ffffff"
           d="M 0,0 H 632 V 136 H 0 Z"
           id="path18" />
      </g>
    </clipPath>
    <clipPath
       clipPathUnits="userSpaceOnUse"
       id="clipPath18">
      <g
         id="g19">
        <path
           fill="#ffffff"
           d="M 0,0 H 632 V 136 H 0 Z"
           id="path19" />
      </g>
    </clipPath>
    <clipPath
       clipPathUnits="userSpaceOnUse"
       id="clipPath19">
      <g
         id="g20">
        <path
           fill="#ffffff"
           d="M 0,0 H 632 V 136 H 0 Z"
           id="path20" />
      </g>
    </clipPath>
    <clipPath
       clipPathUnits="userSpaceOnUse"
       id="clipPath20">
      <g
         id="g21">
        <path
           fill="#ffffff"
           d="M 0,0 H 632 V 136 H 0 Z"
           id="path21" />
      </g>
    </clipPath>
  </defs>
  <metadata
     id="metadata11">
    <rdf:RDF>
      <cc:Work
         rdf:about="">
        <dc:title>Van Lanschot Kempen Logo</dc:title>
      </cc:Work>
    </rdf:RDF>
  </metadata>
</svg>
