<svg width="30" height="30" viewBox="0 0 30 30" fill="none" xmlns="http://www.w3.org/2000/svg">
<g clip-path="url(#clip0_2892_45)">
<rect x="-1" y="-1" width="32" height="32" rx="8" fill="#006568"/>
<path d="M20 4.00006H10C10 4.00006 8 4 8 6C8 6 8 16.4824 8 24C8 26 10 26 10 26H14.5V21C14.5 20 12.6129 19.6773 12.25 19.2625C11.7688 18.7125 11.3563 18.025 11.2188 17.1312C11.15 16.5813 11.15 15.9625 11.3563 15.55C11.425 15.3438 11.5625 15.2063 11.7 15.0688C11.8375 14.9313 11.8375 14.725 11.7688 14.5188C11.6313 14.2438 11.4938 13.9688 11.425 13.625C11.3563 13.35 11.2875 13.0063 11.3563 12.7313C11.425 12.3875 11.5625 12.1125 11.7 11.975C11.8375 11.7688 12.0438 11.7688 12.1813 11.4938C12.0438 11.0125 11.9063 10.6 11.9063 9.98128C11.9063 9.77503 11.9063 9.50004 11.975 9.29379C12.1125 8.88129 12.3875 8.81254 12.5938 8.67504C12.7313 8.60629 12.8 8.60629 12.9375 8.53754C13.075 8.46879 13.075 8.46879 13.075 8.19379C13.075 7.0938 13.2125 6.1313 13.7625 5.5813C14.0375 5.3063 14.3813 5.23756 14.725 5.23756C15.0688 5.23756 15.4125 5.3063 15.7563 5.5813C16.375 6.1313 16.5125 7.16255 16.5125 8.19379C16.5125 8.40004 16.5125 8.46879 16.65 8.53754C16.7875 8.60629 16.8563 8.60629 16.9938 8.67504C17.2 8.81254 17.475 8.88129 17.6125 9.29379C17.6812 9.50004 17.6812 9.70628 17.6812 9.98128C17.6812 10.6 17.5438 10.9438 17.4063 11.4938C17.5438 11.7688 17.75 11.7688 17.9562 11.975C18.0937 12.1813 18.3 12.3875 18.3 12.7313C18.3687 13.0063 18.3 13.35 18.2312 13.625C18.1625 13.9688 18.025 14.2438 17.8875 14.5188C17.8187 14.725 17.8187 14.9313 17.9562 15.0688C18.0937 15.2063 18.2312 15.3438 18.3 15.55C18.5062 15.9625 18.575 16.5813 18.5062 17.1312C18.2312 18.025 17.8875 18.7125 17.4063 19.2625C17.0797 19.6357 15.5 20 15.5 21V26H20C20 26 22 26 22 24V6C22 4 20 4.00006 20 4.00006Z" fill="white"/>
</g>
<defs>
<clipPath id="clip0_2892_45">
<rect width="30" height="30" rx="8" fill="white"/>
</clipPath>
</defs>
</svg>
