<svg height="360" viewBox="0 0 640 360" width="640" xmlns="http://www.w3.org/2000/svg"><path d="m66.1738978 19.6416504c4.0824393-5.1030491 6.850589-11.95654574 6.1207512-18.95833614-5.9724574.29658747-13.2621121 3.93996096-17.4812143 9.04882547-3.7887595 4.37321127-7.1413609 11.51166457-6.2690449 18.21977517 6.705203.5815441 13.4045905-3.3496937 17.629508-8.3102645m6.0422427 9.6216464c-9.7350474-.5815441-18.013327 5.5246685-22.6627717 5.5246685-4.6523524 0-11.7733594-5.2338965-19.4759104-5.0914182-10.0229117.145386-19.3218011 5.8125328-24.4103116 14.8264656-10.46197752 18.0336811-2.75942653 44.7817998 7.4146867 59.4657873 4.9402167 7.266393 10.8952278 15.265531 18.7402571 14.980575 7.411779-.290772 10.3194992-4.800646 19.3276166-4.800646 9.0052097 0 11.6221579 4.800646 19.4700949 4.65526 8.1358013-.145386 13.2243118-7.269301 18.1645285-14.544417 5.6671468-8.2811874 7.9875076-16.2774181 8.1358013-16.7164839-.1482937-.1482937-15.6929663-6.1091203-15.8354445-23.9915999-.1482938-14.9747594 12.2037019-22.0957663 12.785246-22.5377398-6.975621-10.3165915-17.8737565-11.4796796-21.6537929-11.7704516m73.1204415 37.3293127h19.423571c14.739234 0 23.128007-7.9351686 23.128007-21.6915931 0-13.7535169-8.388773-21.6159925-23.052406-21.6159925h-19.499172zm23.959615-57.59321528c21.162388 0 35.901622 14.58803258 35.901622 35.82602138 0 21.3135896-15.041637 35.9772229-36.430827 35.9772229h-23.43041v37.2624355h-16.928747v-109.06567978zm91.494326 79.43891768v-6.1236589l-18.818766 1.2096117c-10.581194.6804065-16.097139 4.6087366-16.097139 11.4884027 0 6.6499566 5.742748 10.9591976 14.736326 10.9591976 11.488403 0 20.179579-7.3332704 20.179579-17.5335531zm-51.393956 7.0279599c0-13.9832268 10.656795-21.9939961 30.307169-23.2036077l21.086787-1.2852124v-6.0451504c0-8.8452851-5.818348-13.6808239-16.17274-13.6808239-8.542882 0-14.739234 4.3819345-16.024447 11.1103992h-15.268439c.456512-14.1344283 13.756425-24.4132194 31.74649-24.4132194 19.347971 0 31.970385 10.1275897 31.970385 25.8496332v54.2667836h-15.646443v-13.076018h-.378004c-4.457535 8.539974-14.28563 13.904718-24.942424 13.904718-15.719136 0-26.678334-9.368675-26.678334-23.4275022zm82.029697 51.7719592v-13.07311c1.05841.148294 3.625927.299495 4.98674.299495 7.481564 0 11.715205-3.172323 14.28563-11.337201l1.512014-4.835539-28.64686-79.3604094h17.684755l19.955684 64.3943734h.378004l19.952776-64.3943734h17.234058l-29.705277 83.3672474c-6.801151 19.121169-14.588026 25.396029-31.063169 25.396029-1.285212 0-5.443252-.151201-6.574355-.456512" fill="#1a1919" fill-rule="evenodd" transform="translate(140 105)"/></svg>