<svg xmlns="http://www.w3.org/2000/svg" width="640" height="360" viewBox="0 0 640 360">
  <path fill="#1A1919" fill-rule="evenodd" d="M66.1738978 19.6416504C70.2563371 14.5386013 73.0244868 7.68510466 72.294649.683314263 66.3221916.97990173 59.0325369 4.62327522 54.8134347 9.73213973 51.0246752 14.105351 47.6720738 21.2438043 48.5443898 27.9519149 55.2495928 28.533459 61.9489803 24.6022212 66.1738978 19.6416504M72.2161405 29.2632968C62.4810931 28.6817527 54.2028135 34.7879653 49.5533688 34.7879653 44.9010164 34.7879653 37.7800094 29.5540688 30.0774584 29.6965471 20.0545467 29.8419331 10.7556573 35.5090799 5.6671468 44.5230127-4.79483072 62.5566938 2.90772027 89.3048125 13.0818335 103.9888 18.0220502 111.255193 23.9770613 119.254331 31.8220906 118.969375 39.2338696 118.678603 42.1415898 114.168729 51.1497072 114.168729 60.1549169 114.168729 62.7718651 118.969375 70.6198021 118.823989 78.7556034 118.678603 83.8441139 111.554688 88.7843306 104.279572 94.4514774 95.9983846 96.7718382 88.0021539 96.9201319 87.5630881 96.7718382 87.4147944 81.2271656 81.4539678 81.0846874 63.5714882 80.9363936 48.5967288 93.2883893 41.4757219 93.8699334 41.0337484 86.8943124 30.7171569 75.9961769 29.5540688 72.2161405 29.2632968M145.336582 66.5926095L164.760153 66.5926095C179.499387 66.5926095 187.88816 58.6574409 187.88816 44.9010164 187.88816 31.1474995 179.499387 23.2850239 164.835754 23.2850239L145.336582 23.2850239 145.336582 66.5926095zM169.296197 8.99939422C190.458585 8.99939422 205.197819 23.5874268 205.197819 44.8254156 205.197819 66.1390052 190.156182 80.8026385 168.766992 80.8026385L145.336582 80.8026385 145.336582 118.065074 128.407835 118.065074 128.407835 8.99939422 169.296197 8.99939422 169.296197 8.99939422zM260.790523 88.4383119L260.790523 82.314653 241.971757 83.5242647C231.390563 84.2046712 225.874618 88.1330013 225.874618 95.0126674 225.874618 101.662624 231.617366 105.971865 240.610944 105.971865 252.099347 105.971865 260.790523 98.6385946 260.790523 88.4383119zM209.396567 95.4662718C209.396567 81.483045 220.053362 73.4722757 239.703736 72.2626641L260.790523 70.9774517 260.790523 64.9323013C260.790523 56.0870162 254.972175 51.2514774 244.617783 51.2514774 236.074901 51.2514774 229.878549 55.6334119 228.593336 62.3618766L213.324897 62.3618766C213.781409 48.2274483 227.081322 37.9486572 245.071387 37.9486572 264.419358 37.9486572 277.041772 48.0762469 277.041772 63.7982904L277.041772 118.065074 261.395329 118.065074 261.395329 104.989056 261.017325 104.989056C256.55979 113.52903 246.731695 118.893774 236.074901 118.893774 220.355765 118.893774 209.396567 109.525099 209.396567 95.4662718L209.396567 95.4662718zM291.426264 147.238231L291.426264 134.165121C292.484674 134.313415 295.052191 134.464616 296.413004 134.464616 303.894568 134.464616 308.128209 131.292293 310.698634 123.127415L312.210648 118.291876 283.563788 38.9314666 301.248543 38.9314666 321.204227 103.32584 321.582231 103.32584 341.535007 38.9314666 358.769065 38.9314666 329.063788 122.298714C322.262637 141.419883 314.475762 147.694743 298.000619 147.694743 296.715407 147.694743 292.557367 147.543542 291.426264 147.238231" transform="translate(140 105)"/>
</svg>
