<svg height="32" viewBox="0 0 51 32" width="51" xmlns="http://www.w3.org/2000/svg"><g fill="none" fill-rule="evenodd"><path d="m.5.5h50v31h-50z" fill="#fff" stroke="#d0d0d0"/><path d="m5.51449149 1.6368042c.34020327-.42525409.57088241-.99637881.51006259-1.57986134-.49770478.02471562-1.10517601.32833008-1.45676785.75406878-.31572996.36443428-.59511342.95930538-.52242041 1.5183146.55876691.04846201 1.1170492-.27914114 1.46912567-.69252204m.50352022.80180386c-.81125395-.048462-1.50111059.46038905-1.88856431.46038905-.38769604 0-.98111328-.43615804-1.62299253-.42428485-.83524265.0121155-1.6101501.48437773-2.03419264 1.2355388-.87183146 1.50280676-.22995221 3.73181665.61789056 4.95548226.41168473.60553275.90793565 1.27212762 1.56168809 1.24838124.61764825-.024231.85995827-.40005385 1.61063472-.40005385.75043414 0 .96851316.40005385 1.62250791.38793835.67798344-.0121155 1.10202598-.60577506 1.51371071-1.21203473.47226223-.69009895.66562563-1.35645151.67798344-1.39304032-.01235781-.01235781-1.30774719-.50909336-1.31962038-1.99929999-.01235781-1.24789662 1.01697516-1.84131386 1.06543717-1.87814499-.58130175-.85971596-1.48947971-.95663996-1.80448274-.98087097m6.09337009 3.11077607h1.618631c1.2282695 0 1.9273339-.66126405 1.9273339-1.80763277 0-1.1461264-.6990644-1.8013327-1.9210339-1.8013327h-1.624931zm1.9966346-4.79943461c1.7635324 0 2.9918019 1.21566938 2.9918019 2.98550178 0 1.77613247-1.2534698 2.99810191-3.0359023 2.99810191h-1.9525342v3.10520293h-1.4107289v-9.08880662zm7.6245272 6.61990981v-.51030491l-1.5682305.10080097c-.8817662.05670054-1.3414283.38406138-1.3414283.9573669 0 .55416302.4785623.91326647 1.2280272.91326647.9573669 0 1.6816316-.61110588 1.6816316-1.46112943zm-4.2828297.58566332c0-1.1652689.8880663-1.83283301 2.5255974-1.93363398l1.7572323-.10710103v-.50376253c0-.73710709-.4848624-1.14006866-1.3477284-1.14006866-.7119068 0-1.2282695.3651612-1.3353705.9258666h-1.2723699c.0380427-1.17786902 1.1463687-2.03443495 2.6455408-2.03443495 1.6123309 0 2.6641987.84396581 2.6641987 2.1541361v4.52223194h-1.3038702v-1.08966817h-.0315003c-.3714613.71166454-1.1904692 1.15872653-2.0785354 1.15872653-1.309928 0-2.2231945-.78072289-2.2231945-1.95229185zm6.8358081 4.31432995v-1.0894259c.0882008.0123578.3021606.024958.4155617.024958.6234637 0 .976267-.2643603 1.1904691-.9447668l.1260012-.40296158-2.3872383-6.61336743h1.4737295l1.6629737 5.36619775h.0315003l1.6627314-5.36619775h1.4361715l-2.4754392 6.94727061c-.5667631 1.5934307-1.2156694 2.1163358-2.588598 2.1163358-.107101 0-.4536043-.0126002-.5478629-.0380427" fill="#1a1919" transform="translate(11 9.75)"/></g></svg>