<svg xmlns="http://www.w3.org/2000/svg" width="51" height="32" viewBox="0 0 51 32">
  <g fill="none" fill-rule="evenodd">
    <rect width="50" height="31" x=".5" y=".5" fill="#FFF" stroke="#D0D0D0"/>
    <path fill="#1A1919" d="M5.51449149 1.6368042C5.85469476 1.21155011 6.0853739.640425389 6.02455408.0569428552 5.5268493.0816584775 4.91937807.385272935 4.56778623.811011644 4.25205627 1.17544592 3.97267281 1.77031702 4.04536582 2.32932624 4.60413273 2.37778825 5.16241502 2.0501851 5.51449149 1.6368042M6.01801171 2.43860806C5.20675776 2.39014606 4.51690112 2.89899711 4.1294474 2.89899711 3.74175136 2.89899711 3.14833412 2.46283907 2.50645487 2.47471226 1.67121222 2.48682776.896304772 2.95908999.472262233 3.71025106-.399569227 5.21305782.242310022 7.44206771 1.09015279 8.66573332 1.50183752 9.27126607 1.99808844 9.93786094 2.65184088 9.91411456 3.26948913 9.88988356 3.51179915 9.51406071 4.2624756 9.51406071 5.01290974 9.51406071 5.23098876 9.91411456 5.88498351 9.90199906 6.56296695 9.88988356 6.98700949 9.296224 7.39869422 8.68996433 7.87095645 7.99986538 8.06431985 7.33351282 8.07667766 7.29692401 8.06431985 7.2845662 6.76893047 6.78783065 6.75705728 5.29762402 6.74469947 4.0497274 7.77403244 3.45631016 7.82249445 3.41947903 7.2411927 2.55976307 6.33301474 2.46283907 6.01801171 2.43860806M12.1113818 5.54938413L13.7300128 5.54938413C14.9582823 5.54938413 15.6573467 4.88812008 15.6573467 3.74175136 15.6573467 2.59562496 14.9582823 1.94041866 13.7363128 1.94041866L12.1113818 1.94041866 12.1113818 5.54938413zM14.1080164.749949519C15.8715488.749949519 17.0998183 1.9656189 17.0998183 3.7354513 17.0998183 5.51158377 15.8463485 6.73355321 14.063916 6.73355321L12.1113818 6.73355321 12.1113818 9.83875614 10.7006529 9.83875614 10.7006529.749949519 14.1080164.749949519 14.1080164.749949519zM21.7325436 7.36985933L21.7325436 6.85955442 20.1643131 6.96035539C19.2825469 7.01705593 18.8228848 7.34441677 18.8228848 7.91772229 18.8228848 8.47188531 19.3014471 8.83098876 20.050912 8.83098876 21.0082789 8.83098876 21.7325436 8.21988288 21.7325436 7.36985933zM17.4497139 7.95552265C17.4497139 6.79025375 18.3377802 6.12268964 19.9753113 6.02188867L21.7325436 5.91478764 21.7325436 5.41102511C21.7325436 4.67391802 21.2476812 4.27095645 20.3848152 4.27095645 19.6729084 4.27095645 19.1565457 4.63611765 19.0494447 5.19682305L17.7770748 5.19682305C17.8151175 4.01895403 18.9234435 3.1623881 20.4226156 3.1623881 22.0349465 3.1623881 23.0868143 4.00635391 23.0868143 5.3165242L23.0868143 9.83875614 21.7829441 9.83875614 21.7829441 8.74908797 21.7514438 8.74908797C21.3799825 9.46075251 20.5609746 9.9078145 19.6729084 9.9078145 18.3629804 9.9078145 17.4497139 9.12709161 17.4497139 7.95552265L17.4497139 7.95552265zM24.285522 12.2698526L24.285522 11.1804267C24.3737228 11.1927845 24.5876826 11.2053847 24.7010837 11.2053847 25.3245474 11.2053847 25.6773507 10.9410244 25.8915528 10.2606179L26.017554 9.85765632 23.6303157 3.24428889 25.1040452 3.24428889 26.7670189 8.61048664 26.7985192 8.61048664 28.4612506 3.24428889 29.8974221 3.24428889 27.4219829 10.1915595C26.8552198 11.7849902 26.2063135 12.3078953 24.8333849 12.3078953 24.7262839 12.3078953 24.3797806 12.2952951 24.285522 12.2698526" transform="translate(11 9.75)"/>
  </g>
</svg>
