<svg xmlns="http://www.w3.org/2000/svg" width="640" height="360"><g fill="none" fill-rule="evenodd" transform="translate(80 130)"><path fill="#222" fill-rule="nonzero" d="M144.77 48.782V15.735h-12.245v-4.422h29.46v4.422h-12.296v33.047h-4.919Zm39.245-3.348c-1.69 1.448-3.317 2.47-4.88 3.067-1.563.596-3.24.895-5.032.895-2.958 0-5.231-.729-6.82-2.186-1.589-1.457-2.383-3.318-2.383-5.584 0-1.33.3-2.543.9-3.642.6-1.1 1.386-1.981 2.358-2.646a11.044 11.044 0 0 1 3.283-1.508c.895-.238 2.247-.468 4.056-.69 3.684-.443 6.397-.971 8.138-1.584a61.4 61.4 0 0 0 .025-1.202c0-1.874-.43-3.194-1.293-3.961-1.166-1.04-2.898-1.56-5.197-1.56-2.146 0-3.73.38-4.753 1.138-1.023.758-1.78 2.1-2.27 4.026l-4.461-.614c.405-1.925 1.073-3.48 2.003-4.664.93-1.185 2.273-2.096 4.03-2.735 1.758-.64 3.795-.959 6.11-.959 2.299 0 4.166.273 5.603.818 1.437.546 2.493 1.231 3.17 2.058.675.826 1.148 1.87 1.419 3.13.152.785.228 2.199.228 4.243v6.135c0 4.276.097 6.981.292 8.114.194 1.134.578 2.22 1.153 3.26h-4.766c-.473-.955-.778-2.071-.913-3.349Zm-.38-10.275c-1.656.682-4.14 1.261-7.454 1.738-1.876.273-3.202.58-3.98.92-.777.341-1.377.84-1.8 1.496a3.951 3.951 0 0 0-.634 2.185c0 1.227.46 2.25 1.382 3.067.921.818 2.269 1.227 4.044 1.227 1.757 0 3.32-.388 4.69-1.163 1.369-.775 2.374-1.836 3.017-3.182.49-1.04.735-2.573.735-4.6v-1.688Zm11.636 13.623V21.64h4.108v4.115c1.047-1.926 2.015-3.195 2.902-3.808a5.039 5.039 0 0 1 2.928-.92c1.539 0 3.102.494 4.69 1.482l-1.571 4.268c-1.116-.664-2.231-.997-3.347-.997-.997 0-1.893.303-2.687.908-.794.605-1.36 1.444-1.699 2.517-.507 1.636-.76 3.425-.76 5.368v14.21h-4.564Zm16.505 2.25 4.436.664c.186 1.38.702 2.385 1.547 3.016 1.132.852 2.679 1.278 4.64 1.278 2.112 0 3.743-.426 4.892-1.278 1.15-.852 1.927-2.045 2.332-3.578.237-.938.347-2.906.33-5.904-1.994 2.368-4.479 3.552-7.453 3.552-3.702 0-6.567-1.346-8.595-4.038-2.028-2.692-3.042-5.921-3.042-9.687 0-2.59.465-4.98 1.394-7.17.93-2.189 2.278-3.88 4.044-5.072 1.766-1.193 3.84-1.79 6.224-1.79 3.177 0 5.797 1.295 7.859 3.885V21.64h4.208v23.463c0 4.225-.426 7.22-1.28 8.984-.853 1.763-2.205 3.156-4.056 4.178-1.85 1.023-4.128 1.534-6.832 1.534-3.212 0-5.806-.728-7.784-2.185-1.977-1.457-2.932-3.65-2.864-6.582Zm3.777-16.307c0 3.561.702 6.16 2.104 7.795 1.403 1.636 3.16 2.454 5.274 2.454 2.095 0 3.853-.814 5.273-2.44 1.42-1.628 2.13-4.18 2.13-7.656 0-3.322-.732-5.827-2.194-7.514-1.462-1.687-3.224-2.53-5.286-2.53-2.028 0-3.752.83-5.171 2.492-1.42 1.661-2.13 4.127-2.13 7.399Zm44.366 5.316 4.716.588c-.744 2.777-2.121 4.933-4.133 6.466-2.011 1.534-4.58 2.3-7.707 2.3-3.938 0-7.06-1.222-9.367-3.667-2.307-2.445-3.46-5.874-3.46-10.287 0-4.567 1.165-8.111 3.498-10.633 2.332-2.522 5.357-3.783 9.076-3.783 3.6 0 6.54 1.236 8.822 3.706 2.282 2.471 3.423 5.947 3.423 10.428 0 .273-.009.682-.026 1.227h-20.078c.169 2.982 1.005 5.265 2.51 6.85 1.504 1.585 3.38 2.377 5.628 2.377 1.673 0 3.101-.443 4.284-1.33 1.183-.885 2.121-2.3 2.814-4.242Zm-14.983-7.437h15.034c-.203-2.284-.778-3.996-1.724-5.138-1.454-1.772-3.338-2.658-5.654-2.658-2.095 0-3.857.707-5.285 2.121-1.429 1.415-2.219 3.306-2.37 5.675Zm35.392 12.063.659 4.064c-1.285.273-2.434.409-3.448.409-1.657 0-2.941-.264-3.854-.792-.912-.529-1.555-1.223-1.926-2.083-.372-.86-.558-2.671-.558-5.432V25.217h-3.347V21.64h3.347v-6.722l4.538-2.76v9.482h4.589v3.578h-4.59V41.09c0 1.312.081 2.155.242 2.53.16.375.422.673.786.895.363.221.883.332 1.559.332.507 0 1.174-.06 2.003-.179Zm5.045 4.115V11.313h14.02c2.467 0 4.351.12 5.653.358 1.825.307 3.355.89 4.588 1.75 1.234.861 2.227 2.067 2.98 3.617.751 1.55 1.127 3.255 1.127 5.112 0 3.186-1.005 5.883-3.016 8.09-2.012 2.206-5.645 3.31-10.902 3.31h-9.532v15.232h-4.918Zm4.918-19.654h9.608c3.178 0 5.434-.597 6.77-1.79 1.334-1.192 2.002-2.87 2.002-5.035 0-1.567-.393-2.91-1.179-4.025-.786-1.116-1.82-1.853-3.105-2.211-.829-.221-2.358-.332-4.59-.332h-9.506v13.393Zm46.698 16.306c-1.69 1.448-3.317 2.47-4.88 3.067-1.563.596-3.24.895-5.032.895-2.958 0-5.231-.729-6.82-2.186-1.589-1.457-2.383-3.318-2.383-5.584 0-1.33.3-2.543.9-3.642.6-1.1 1.386-1.981 2.358-2.646a11.044 11.044 0 0 1 3.283-1.508c.895-.238 2.248-.468 4.056-.69 3.685-.443 6.397-.971 8.138-1.584.017-.63.025-1.031.025-1.202 0-1.874-.43-3.194-1.293-3.961-1.166-1.04-2.898-1.56-5.197-1.56-2.146 0-3.73.38-4.753 1.138-1.023.758-1.78 2.1-2.27 4.026l-4.461-.614c.405-1.925 1.073-3.48 2.003-4.664.93-1.185 2.273-2.096 4.03-2.735 1.758-.64 3.795-.959 6.11-.959 2.299 0 4.167.273 5.603.818 1.437.546 2.493 1.231 3.17 2.058.675.826 1.148 1.87 1.419 3.13.152.785.228 2.199.228 4.243v6.135c0 4.276.097 6.981.292 8.114.194 1.134.578 2.22 1.153 3.26h-4.766c-.473-.955-.778-2.071-.913-3.349Zm-.38-10.275c-1.656.682-4.14 1.261-7.454 1.738-1.876.273-3.202.58-3.98.92-.777.341-1.377.84-1.8 1.496a3.951 3.951 0 0 0-.634 2.185c0 1.227.461 2.25 1.382 3.067.921.818 2.27 1.227 4.044 1.227 1.758 0 3.32-.388 4.69-1.163 1.369-.775 2.375-1.836 3.017-3.182.49-1.04.735-2.573.735-4.6v-1.688Zm11.484 24.077-.507-4.32c.998.273 1.868.41 2.612.41 1.014 0 1.825-.171 2.433-.512a4.16 4.16 0 0 0 1.496-1.431c.288-.46.752-1.602 1.395-3.425.084-.256.22-.63.405-1.125L345.71 21.64h4.919l5.602 15.718a70.186 70.186 0 0 1 1.953 6.288 62.275 62.275 0 0 1 1.876-6.185l5.755-15.821h4.563l-10.242 27.603c-1.099 2.982-1.952 5.035-2.56 6.16-.812 1.516-1.742 2.628-2.79 3.335-1.048.707-2.298 1.061-3.752 1.061-.879 0-1.859-.187-2.94-.562Zm27.457-10.454v-5.24h5.197v5.24h-5.197Zm30.701-9.942 4.487.588c-.49 3.118-1.745 5.559-3.764 7.322-2.02 1.764-4.5 2.646-7.441 2.646-3.685 0-6.647-1.214-8.886-3.643-2.24-2.428-3.36-5.908-3.36-10.44 0-2.931.482-5.495 1.446-7.693.963-2.198 2.43-3.847 4.398-4.946 1.97-1.1 4.112-1.649 6.427-1.649 2.924 0 5.316.746 7.175 2.237 1.859 1.49 3.05 3.608 3.574 6.351l-4.436.69c-.423-1.823-1.17-3.195-2.244-4.115-1.073-.92-2.37-1.38-3.891-1.38-2.3 0-4.167.83-5.603 2.492-1.437 1.661-2.155 4.29-2.155 7.885 0 3.646.693 6.296 2.079 7.949 1.386 1.653 3.194 2.479 5.425 2.479 1.792 0 3.287-.554 4.487-1.661 1.2-1.108 1.96-2.812 2.282-5.112Zm6.693-3.63c0-5.026 1.386-8.75 4.158-11.169 2.315-2.01 5.138-3.016 8.467-3.016 3.702 0 6.727 1.223 9.076 3.668 2.35 2.445 3.524 5.823 3.524 10.134 0 3.493-.52 6.24-1.559 8.243-1.04 2.002-2.552 3.557-4.538 4.664-1.986 1.108-4.153 1.662-6.503 1.662-3.769 0-6.815-1.219-9.14-3.655-2.323-2.437-3.485-5.947-3.485-10.53Zm4.69 0c0 3.477.752 6.08 2.256 7.809 1.505 1.73 3.398 2.594 5.68 2.594 2.264 0 4.148-.87 5.653-2.607 1.504-1.738 2.256-4.388 2.256-7.949 0-3.357-.756-5.9-2.269-7.63-1.513-1.729-3.393-2.593-5.64-2.593-2.282 0-4.175.86-5.68 2.581-1.504 1.721-2.256 4.32-2.256 7.796Zm25.884 13.572V21.64h4.082v3.808a9.63 9.63 0 0 1 3.372-3.208c1.403-.809 3-1.214 4.791-1.214 1.995 0 3.63.418 4.906 1.253 1.276.835 2.176 2.002 2.7 3.501 2.13-3.169 4.901-4.754 8.316-4.754 2.67 0 4.723.746 6.16 2.237 1.437 1.49 2.155 3.787 2.155 6.888v18.632h-4.538V31.683c0-1.84-.148-3.165-.444-3.974-.295-.81-.832-1.461-1.61-1.955-.777-.494-1.69-.741-2.738-.741-1.893 0-3.464.634-4.715 1.904-1.25 1.27-1.876 3.301-1.876 6.095v15.77h-4.563V31.147c0-2.045-.372-3.579-1.116-4.6-.744-1.023-1.96-1.534-3.65-1.534-1.285 0-2.472.34-3.563 1.022-1.09.682-1.88 1.678-2.37 2.99-.49 1.312-.735 3.204-.735 5.674v14.083h-4.564Z"/><path fill="#1C1C1C" d="M1.66 64.646a49.814 49.814 0 0 1-.044-2.075c0-13.091 5.138-25.024 13.574-34.02V4.87L20.037 0H87.67l4.847 4.871v23.076c8.777 9.063 14.15 21.237 14.15 34.624 0 .695-.015 1.387-.044 2.075H1.66ZM0 71.111h108.283v27.475H0z"/><path fill="#C3DC00" d="M22.626 6.465H84.04v16.162H22.626z"/><ellipse cx="54.949" cy="84.848" fill="#FFF" rx="8.081" ry="7.273"/><rect width="3.232" height="11.313" x="53.333" y="79.192" fill="#1C1C1C" rx="1"/><g fill="#FFF" transform="translate(17.778 33.94)"><ellipse cx="13.304" cy="4.351" rx="4.435" ry="4.351"/><ellipse cx="28.677" cy="4.351" rx="4.435" ry="4.351"/><ellipse cx="45.233" cy="4.351" rx="4.435" ry="4.351"/><ellipse cx="60.606" cy="4.351" rx="4.435" ry="4.351"/><ellipse cx="68.293" cy="18.275" rx="4.435" ry="4.351"/><ellipse cx="51.737" cy="18.275" rx="4.435" ry="4.351"/><ellipse cx="36.364" cy="18.275" rx="4.435" ry="4.351"/><ellipse cx="19.808" cy="18.275" rx="4.435" ry="4.351"/><ellipse cx="4.435" cy="18.275" rx="4.435" ry="4.351"/></g><path fill="#919191" fill-rule="nonzero" d="M137.374 84.989c0-1.758.27-3.234.813-4.426a8.115 8.115 0 0 1 1.656-2.367c.7-.698 1.466-1.216 2.3-1.554 1.107-.455 2.385-.682 3.833-.682 2.621 0 4.718.788 6.291 2.366 1.574 1.577 2.36 3.77 2.36 6.58 0 2.787-.78 4.966-2.342 6.54-1.56 1.574-3.648 2.36-6.26 2.36-2.645 0-4.748-.783-6.31-2.348-1.56-1.566-2.341-3.722-2.341-6.47Zm3.7-.118c0 1.954.465 3.436 1.396 4.444.93 1.009 2.11 1.513 3.543 1.513 1.431 0 2.606-.5 3.524-1.501.918-1 1.377-2.502 1.377-4.503 0-1.978-.447-3.453-1.34-4.426-.894-.973-2.081-1.46-3.561-1.46s-2.674.492-3.58 1.477c-.906.985-1.359 2.47-1.359 4.456Zm28.052 8.641h-3.41v-6.38c0-1.35-.072-2.224-.217-2.62a1.843 1.843 0 0 0-.71-.924c-.328-.22-.722-.33-1.183-.33-.59 0-1.12.157-1.59.471-.469.314-.79.73-.964 1.248-.174.518-.261 1.476-.261 2.873v5.662h-3.41V81.01h3.167v1.836c1.125-1.412 2.54-2.119 4.247-2.119.752 0 1.44.132 2.062.395.623.263 1.094.598 1.414 1.006.32.408.542.871.667 1.39.126.517.188 1.259.188 2.224v7.77Zm3.458 0V76.254h3.41v17.258h-3.41Zm6.904-14.197v-3.061h3.41v3.06h-3.41Zm0 14.197V81.01h3.41v12.502h-3.41Zm18.625 0h-3.41v-6.38c0-1.35-.073-2.224-.218-2.62a1.843 1.843 0 0 0-.71-.924c-.328-.22-.722-.33-1.183-.33-.59 0-1.12.157-1.59.471-.469.314-.79.73-.964 1.248-.174.518-.261 1.476-.261 2.873v5.662h-3.41V81.01h3.167v1.836c1.125-1.412 2.54-2.119 4.247-2.119.752 0 1.44.132 2.063.395.622.263 1.094.598 1.413 1.006.32.408.542.871.667 1.39.126.517.189 1.259.189 2.224v7.77Zm10.92-3.979 3.397.553c-.437 1.209-1.127 2.13-2.069 2.76-.942.633-2.121.949-3.537.949-2.24 0-3.899-.71-4.974-2.131-.85-1.138-1.274-2.574-1.274-4.309 0-2.072.558-3.694 1.674-4.868 1.116-1.173 2.528-1.76 4.234-1.76 1.918 0 3.43.614 4.538 1.843 1.108 1.228 1.638 3.11 1.59 5.645h-8.542c.024.98.3 1.744.825 2.29.526.545 1.181.817 1.966.817.533 0 .982-.14 1.346-.423.364-.283.64-.738.825-1.366Zm.194-3.343c-.025-.958-.28-1.686-.765-2.184a2.38 2.38 0 0 0-1.771-.748c-.744 0-1.36.263-1.845.79-.485.525-.723 1.24-.715 2.142h5.096Zm13.103-9.936h7.11c1.408 0 2.457.057 3.15.17.69.114 1.31.352 1.855.713a4.483 4.483 0 0 1 1.365 1.442c.364.6.546 1.273.546 2.019 0 .808-.224 1.55-.673 2.225a4.14 4.14 0 0 1-1.826 1.518c1.084.307 1.917.828 2.5 1.566.582.738.873 1.605.873 2.602 0 .785-.188 1.548-.564 2.29a4.65 4.65 0 0 1-1.541 1.777c-.651.444-1.454.716-2.409.818-.598.063-2.042.102-4.331.118h-6.055V76.254Zm3.592 2.872v3.991h2.354c1.4 0 2.269-.02 2.608-.059.615-.07 1.098-.276 1.45-.618.352-.341.528-.79.528-1.348 0-.533-.152-.967-.455-1.3-.303-.334-.754-.536-1.353-.607-.356-.039-1.379-.059-3.07-.059h-2.062Zm0 6.864v4.614h3.324c1.295 0 2.116-.035 2.463-.106.534-.094.969-.323 1.305-.688.335-.365.503-.854.503-1.466 0-.518-.13-.957-.388-1.318-.259-.362-.633-.624-1.122-.79-.49-.164-1.551-.246-3.185-.246h-2.9Zm21.779 3.543 3.397.553c-.437 1.209-1.126 2.13-2.068 2.76-.943.633-2.122.949-3.537.949-2.24 0-3.9-.71-4.975-2.131-.85-1.138-1.274-2.574-1.274-4.309 0-2.072.558-3.694 1.675-4.868 1.116-1.173 2.527-1.76 4.234-1.76 1.917 0 3.43.614 4.538 1.843 1.108 1.228 1.638 3.11 1.59 5.645h-8.543c.025.98.3 1.744.826 2.29.525.545 1.18.817 1.965.817.534 0 .983-.14 1.347-.423s.639-.738.825-1.366Zm.194-3.343c-.024-.958-.279-1.686-.764-2.184a2.38 2.38 0 0 0-1.772-.748c-.744 0-1.359.263-1.844.79-.485.525-.724 1.24-.716 2.142h5.096Zm12.073-5.18v2.637h-2.33v5.038c0 1.02.022 1.615.067 1.784a.727.727 0 0 0 .303.418c.158.11.35.165.576.165.316 0 .773-.106 1.372-.318l.29 2.566c-.792.33-1.69.495-2.693.495-.615 0-1.169-.1-1.662-.3-.494-.2-.856-.46-1.086-.778-.23-.317-.39-.747-.48-1.289-.072-.384-.109-1.161-.109-2.33v-5.451h-1.565V81.01h1.565v-2.484l3.422-1.93v4.414h2.33Zm4.914 3.814-3.094-.541c.347-1.209.946-2.104 1.795-2.684.85-.581 2.111-.872 3.786-.872 1.52 0 2.653.175 3.397.524.744.35 1.268.793 1.571 1.33.304.538.455 1.525.455 2.961l-.036 3.862c0 1.098.055 1.909.164 2.43.109.522.313 1.082.613 1.678h-3.373c-.09-.22-.199-.545-.328-.977a5.816 5.816 0 0 0-.121-.389 6.159 6.159 0 0 1-1.869 1.237 5.494 5.494 0 0 1-2.123.412c-1.327 0-2.372-.35-3.137-1.048-.764-.699-1.146-1.582-1.146-2.649 0-.706.174-1.336.521-1.89a3.376 3.376 0 0 1 1.463-1.27c.626-.295 1.53-.552 2.711-.772 1.594-.29 2.698-.561 3.313-.812v-.33c0-.635-.162-1.089-.486-1.36-.323-.27-.934-.406-1.832-.406-.606 0-1.08.116-1.42.348-.34.231-.614.637-.824 1.218Zm4.562 2.684c-.437.141-1.129.31-2.075.506-.947.197-1.565.389-1.856.577-.445.306-.668.695-.668 1.166 0 .463.178.863.534 1.2.356.338.809.507 1.359.507.615 0 1.201-.197 1.76-.589.412-.298.683-.663.812-1.095.09-.282.134-.82.134-1.613v-.659Zm6.71 6.004V76.254h3.409v17.258h-3.41Zm6.903-14.197v-3.061h3.41v3.06h-3.41Zm0 14.197V81.01h3.41v12.502h-3.41Zm18.625 0h-3.41v-6.38c0-1.35-.073-2.224-.218-2.62a1.843 1.843 0 0 0-.71-.924c-.328-.22-.722-.33-1.183-.33-.59 0-1.12.157-1.59.471-.469.314-.79.73-.964 1.248-.174.518-.26 1.476-.26 2.873v5.662h-3.41V81.01h3.166v1.836c1.125-1.412 2.54-2.119 4.247-2.119.752 0 1.44.132 2.063.395.623.263 1.094.598 1.413 1.006.32.408.542.871.668 1.39.125.517.188 1.259.188 2.224v7.77Zm3.142.824 3.895.46c.065.439.214.74.449.906.323.235.833.353 1.529.353.89 0 1.557-.13 2.002-.389.299-.172.525-.45.679-.835.105-.275.158-.781.158-1.52v-1.824c-1.02 1.35-2.306 2.025-3.859 2.025-1.73 0-3.102-.71-4.113-2.13-.792-1.123-1.189-2.52-1.189-4.192 0-2.095.52-3.696 1.56-4.803 1.039-1.106 2.33-1.66 3.876-1.66 1.593 0 2.908.68 3.943 2.037V81.01h3.191v11.219c0 1.475-.125 2.578-.376 3.308-.25.73-.603 1.303-1.056 1.719-.453.416-1.057.741-1.813.977-.757.235-1.713.353-2.87.353-2.184 0-3.733-.363-4.647-1.09-.914-.725-1.371-1.645-1.371-2.76 0-.11.004-.243.012-.4Zm3.046-7.334c0 1.326.264 2.298.794 2.914.53.616 1.183.924 1.96.924.833 0 1.537-.316 2.11-.948.575-.632.862-1.568.862-2.808 0-1.295-.275-2.256-.825-2.884-.55-.628-1.245-.942-2.087-.942-.817 0-1.49.308-2.02.925-.53.616-.794 1.555-.794 2.819Zm19.91 2.531 3.397.553c-.436 1.209-1.126 2.13-2.068 2.76-.943.633-2.122.949-3.537.949-2.24 0-3.899-.71-4.975-2.131-.85-1.138-1.274-2.574-1.274-4.309 0-2.072.558-3.694 1.675-4.868 1.116-1.173 2.527-1.76 4.234-1.76 1.917 0 3.43.614 4.538 1.843 1.108 1.228 1.638 3.11 1.59 5.645h-8.542c.024.98.299 1.744.825 2.29.525.545 1.18.817 1.965.817.534 0 .983-.14 1.347-.423s.64-.738.825-1.366Zm.194-3.343c-.024-.958-.279-1.686-.764-2.184a2.38 2.38 0 0 0-1.772-.748c-.744 0-1.359.263-1.844.79-.485.525-.724 1.24-.716 2.142h5.096Zm17.885 7.322h-3.41v-6.38c0-1.35-.073-2.224-.218-2.62a1.843 1.843 0 0 0-.71-.924c-.328-.22-.722-.33-1.183-.33-.59 0-1.12.157-1.59.471-.469.314-.79.73-.964 1.248-.174.518-.26 1.476-.26 2.873v5.662h-3.41V81.01h3.166v1.836c1.125-1.412 2.54-2.119 4.247-2.119.752 0 1.44.132 2.063.395.623.263 1.094.598 1.413 1.006.32.408.542.871.668 1.39.125.517.188 1.259.188 2.224v7.77Z"/></g></svg>