<?xml version="1.0" encoding="UTF-8" standalone="no"?>
<svg
   width="51"
   height="32"
   viewBox="0 0 51 32"
   version="1.1"
   id="svg688"
   sodipodi:docname="method-sofort-wc-51x32.svg"
   inkscape:version="1.2.2 (b0a8486, 2022-12-01)"
   xmlns:inkscape="http://www.inkscape.org/namespaces/inkscape"
   xmlns:sodipodi="http://sodipodi.sourceforge.net/DTD/sodipodi-0.dtd"
   xmlns="http://www.w3.org/2000/svg"
   xmlns:svg="http://www.w3.org/2000/svg">
  <defs
     id="defs692" />
  <sodipodi:namedview
     id="namedview690"
     pagecolor="#ffffff"
     bordercolor="#666666"
     borderopacity="1.0"
     inkscape:showpageshadow="2"
     inkscape:pageopacity="0.0"
     inkscape:pagecheckerboard="0"
     inkscape:deskcolor="#d1d1d1"
     showgrid="false"
     inkscape:zoom="7.375"
     inkscape:cx="22.711864"
     inkscape:cy="16.271186"
     inkscape:window-width="1624"
     inkscape:window-height="836"
     inkscape:window-x="3520"
     inkscape:window-y="503"
     inkscape:window-maximized="0"
     inkscape:current-layer="g686" />
  <g
     fill="none"
     fill-rule="evenodd"
     id="g686">
    <rect
       width="50"
       height="31"
       x=".5"
       y=".5"
       fill="#FFF"
       stroke="#D0D0D0"
       id="rect682" />
    <g
       id="g870"
       transform="matrix(0.29899948,0,0,0.29899948,18.242928,17.621692)">
      <path
         fill-rule="evenodd"
         clip-rule="evenodd"
         d="M 71.095985,14.468557 H -29.240613 l 6.687518,-39.784571 h 100.33608 z"
         fill="#2e3235"
         id="path307" />
      <path
         fill-rule="evenodd"
         clip-rule="evenodd"
         d="m 2.759985,-2.138543 c -1.7132,0 -2.9166,-1.1146 -2.9166,-2.8547 0,-1.9258 1.496,-3.7333 3.6458,-3.7333 1.7131,0 2.9166,1.1656 2.9166,2.9059 0,1.9261 -1.4961,3.6821 -3.6458,3.6821 z m 1.0029,-9.9158 c -4.5024,0 -7.9099,3.2941 -7.9099,7.23 0,3.5644 2.8058,6.0316 6.6333,6.0316 4.5024,0 7.9098,-3.3965 7.9098,-7.3324 0,-3.564 -2.8057,-5.9292 -6.6332,-5.9292 z"
         fill="#e5e5e0"
         id="path309" />
      <path
         fill-rule="evenodd"
         clip-rule="evenodd"
         d="m 29.889985,-2.138543 c -1.7132,0 -2.9143,-1.1146 -2.9143,-2.8547 0,-1.9258 1.4937,-3.7333 3.6435,-3.7333 1.7132,0 2.9166,1.1656 2.9166,2.9059 0,1.9261 -1.4937,3.6821 -3.6458,3.6821 z m 1.0029,-9.9158 c -4.5024,0 -7.9099,3.2941 -7.9099,7.23 0,3.5644 2.8058,6.0316 6.6333,6.0316 4.5024,0 7.9122,-3.3965 7.9122,-7.3324 0,-3.564 -2.8081,-5.9292 -6.6356,-5.9292 z"
         fill="#e5e5e0"
         id="path311" />
      <path
         fill-rule="evenodd"
         clip-rule="evenodd"
         d="m 44.366985,-5.772743 h -0.5876 l 0.4413,-2.6559 h 0.5333 c 1.2483,0 1.909,0.3747 1.909,1.1916 0,0.9705 -0.9368,1.4643 -2.296,1.4643 z m 6.409,-2.094 c 0,-2.3834 -1.8713,-3.9156 -5.2504,-3.9156 h -4.7761 l -2.0931,12.717 h 4.021 l 0.6607,-4.0007 h 0.1841 l 2.1308,4.0007 h 4.6086 l -2.9568,-4.4435 c 2.1686,-0.7493 3.4712,-2.3661 3.4712,-4.3579 z"
         fill="#e5e5e0"
         id="path313" />
      <path
         fill-rule="evenodd"
         clip-rule="evenodd"
         d="m -8.755615,-6.709043 c -1.5244,-0.7663 -1.8713,-0.9705 -1.8713,-1.3789 0,-0.5109 0.6041,-0.7664 1.4489,-0.7664 0.9699,0 2.4353,0.1081 3.87,1.4688 0.3563,-1.0903 0.9344,-2.083 1.6919,-2.938 -2.0341,-1.1366 -3.9077,-1.7308 -5.635,-1.7308 -3.4335,0 -5.3991,1.8216 -5.3991,4.0174 0,1.8895 1.4323,2.8769 3.1408,3.7447 1.5244,0.7834 1.909,1.022 1.909,1.499 0,0.5106 -0.6418,0.7995 -1.4866,0.7995 -1.4702,0 -3.1786,-0.919 -4.1886,-1.8554 l -0.5876,3.541 c 1.0478,0.7486 2.5533,1.5144 4.8304,1.5144 3.5444,0 5.4558,-1.7696 5.4558,-4.0507 0,-1.8562 -1.2318,-2.8772 -3.1786,-3.8646 z"
         fill="#e5e5e0"
         id="path315" />
      <path
         fill-rule="evenodd"
         clip-rule="evenodd"
         d="m 20.977085,-6.198743 h -4.7077 l 0.3682,-2.2299 h 5.0498 c 0.6537,-1.3413 1.666,-2.4884 2.9285,-3.3537 h -8.2639 c -1.8335,0 -3.3909,1.2407 -3.667,2.92 l -1.6141,9.797 h 4.0234 l 0.6607,-4.0007 h 4.7761 l 0.3446,-2.1743 c 0.0165,-0.3251 0.0495,-0.6444 0.1014,-0.9584 z"
         fill="#e5e5e0"
         id="path317" />
      <path
         fill-rule="evenodd"
         clip-rule="evenodd"
         d="m 50.863385,-11.782343 c 1.0737,0.8192 1.7368,1.9645 1.8784,3.3537 h 3.3626 l -1.5433,9.3633 h 4.021 l 1.5457,-9.3633 h 3.726 l 0.5522,-3.3537 z"
         fill="#e5e5e0"
         id="path319" />
    </g>
  </g>
</svg>
