<?xml version="1.0" encoding="UTF-8" standalone="no"?>
<svg
   width="640"
   height="360"
   viewBox="0 0 640 360"
   version="1.1"
   id="svg184"
   sodipodi:docname="method-sofort-640x360.svg"
   inkscape:version="1.2.2 (b0a8486, 2022-12-01)"
   xmlns:inkscape="http://www.inkscape.org/namespaces/inkscape"
   xmlns:sodipodi="http://sodipodi.sourceforge.net/DTD/sodipodi-0.dtd"
   xmlns="http://www.w3.org/2000/svg"
   xmlns:svg="http://www.w3.org/2000/svg">
  <defs
     id="defs188" />
  <sodipodi:namedview
     id="namedview186"
     pagecolor="#ffffff"
     bordercolor="#666666"
     borderopacity="1.0"
     inkscape:showpageshadow="2"
     inkscape:pageopacity="0.0"
     inkscape:pagecheckerboard="true"
     inkscape:deskcolor="#d1d1d1"
     showgrid="false"
     inkscape:zoom="0.65555556"
     inkscape:cx="131.18644"
     inkscape:cy="182.28814"
     inkscape:window-width="1361"
     inkscape:window-height="863"
     inkscape:window-x="3417"
     inkscape:window-y="845"
     inkscape:window-maximized="0"
     inkscape:current-layer="svg184" />
  <g
     id="g658"
     transform="translate(-280.62379,-55.441735)">
    <path
       fill-rule="evenodd"
       clip-rule="evenodd"
       d="M 824.63324,330.60626 H 344.62379 l 31.99304,-190.32905 h 480.00696 z"
       fill="#2e3235"
       id="path307"
       style="stroke-width:4.78399" />
    <path
       fill-rule="evenodd"
       clip-rule="evenodd"
       d="m 497.71439,251.15803 c -8.19593,0 -13.95299,-5.33224 -13.95299,-13.65686 0,-9.21301 7.15685,-17.86008 17.44148,-17.86008 8.19545,0 13.95299,5.57623 13.95299,13.90181 0,9.21444 -7.15733,17.61513 -17.44148,17.61513 z m 4.79787,-47.4371 c -21.53945,0 -37.8409,15.75894 -37.8409,34.58826 0,17.05206 13.42292,28.85512 31.73365,28.85512 21.53945,0 37.84042,-16.24883 37.84042,-35.07814 0,-17.05015 -13.42245,-28.36524 -31.73317,-28.36524 z"
       fill="#e5e5e0"
       id="path309"
       style="stroke-width:4.78399" />
    <path
       fill-rule="evenodd"
       clip-rule="evenodd"
       d="m 627.50408,251.15803 c -8.19593,0 -13.94198,-5.33224 -13.94198,-13.65686 0,-9.21301 7.14584,-17.86008 17.43047,-17.86008 8.19593,0 13.95299,5.57623 13.95299,13.90181 0,9.21444 -7.14585,17.61513 -17.44148,17.61513 z m 4.79787,-47.4371 c -21.53945,0 -37.8409,15.75894 -37.8409,34.58826 0,17.05206 13.42293,28.85512 31.73365,28.85512 21.53945,0 37.8519,-16.24883 37.8519,-35.07814 0,-17.05015 -13.43393,-28.36524 -31.74465,-28.36524 z"
       fill="#e5e5e0"
       id="path311"
       style="stroke-width:4.78399" />
    <path
       fill-rule="evenodd"
       clip-rule="evenodd"
       d="m 696.76193,233.77205 h -2.81108 l 2.11118,-12.7058 h 2.5513 c 5.97186,0 9.13264,1.79256 9.13264,5.7006 0,4.64286 -4.48164,7.0052 -10.98404,7.0052 z m 30.6606,-10.01768 c 0,-11.40216 -8.95228,-18.7322 -25.11787,-18.7322 h -22.84882 l -10.01337,60.83802 h 19.23643 l 3.16078,-19.13931 h 0.88073 l 10.19373,19.13931 h 22.0475 l -14.1453,-21.25766 c 10.37456,-3.58465 16.60619,-11.31941 16.60619,-20.84816 z"
       fill="#e5e5e0"
       id="path313"
       style="stroke-width:4.78399" />
    <path
       fill-rule="evenodd"
       clip-rule="evenodd"
       d="m 442.62386,229.2928 c -7.29272,-3.66598 -8.95229,-4.64287 -8.95229,-6.59665 0,-2.44414 2.89001,-3.66645 6.93153,-3.66645 4.63999,0 11.65045,0.51715 18.51405,7.02673 1.70453,-5.21599 4.47016,-9.96506 8.09403,-14.05537 -9.73112,-5.43748 -18.6944,-8.28013 -26.95779,-8.28013 -16.42584,0 -25.82925,8.71452 -25.82925,19.21921 0,9.03935 6.85211,13.76306 15.02556,17.91461 7.29272,3.74778 9.13264,4.88924 9.13264,7.1712 0,2.44271 -3.07036,3.8248 -7.11188,3.8248 -7.03343,0 -15.2064,-4.39649 -20.03823,-8.87621 l -2.81107,16.94011 c 5.01267,3.5813 12.21496,7.24488 23.10859,7.24488 16.95638,0 26.1005,-8.46576 26.1005,-19.37852 0,-8.88004 -5.89292,-13.7645 -15.20639,-18.48821 z"
       fill="#e5e5e0"
       id="path315"
       style="stroke-width:4.78399" />
    <path
       fill-rule="evenodd"
       clip-rule="evenodd"
       d="m 584.86484,231.73407 h -22.52159 l 1.76146,-10.66782 h 24.1582 c 3.1273,-6.41677 7.97013,-11.90449 14.00992,-16.04408 H 562.7384 c -8.77144,0 -16.22203,5.9355 -17.54289,13.96926 l -7.72184,46.86876 h 19.24791 l 3.16078,-19.13931 h 22.84882 l 1.64857,-10.40183 c 0.0789,-1.55528 0.2368,-3.08281 0.48509,-4.58498 z"
       fill="#e5e5e0"
       id="path317"
       style="stroke-width:4.78399" />
    <path
       fill-rule="evenodd"
       clip-rule="evenodd"
       d="m 727.84065,205.02217 c 5.13657,3.91905 8.30884,9.39815 8.98625,16.04408 h 16.08665 l -7.38313,44.79394 h 19.23643 l 7.39461,-44.79394 h 17.82515 l 2.64172,-16.04408 z"
       fill="#e5e5e0"
       id="path319"
       style="stroke-width:4.78399" />
  </g>
</svg>
