<svg xmlns="http://www.w3.org/2000/svg" width="640" height="360" viewBox="0 0 640 360">
  <path fill="#EE7F00" d="M158.747355,196 C152.182062,196 145.815596,197.504135 139.835721,200.31105 C131.296502,204.342975 123.54993,211.06629 117.226542,219.988599 C113.119009,225.78087 109.602122,232.494968 106.849248,240.004182 C101.657984,254.178607 101.716063,265.676009 107.023443,273.252745 C110.032735,277.535458 116.288513,282.652199 129.007846,282.666667 L129.056602,282.666667 C152.226209,282.666667 169.521659,267.52764 180.475091,237.669225 C183.368264,229.769361 187.185683,215.025477 180.209159,205.075892 C175.995184,199.061769 168.78637,196.009643 158.747337,196 L158.747355,196 Z M298.549401,196 C291.988948,196 285.617452,197.504135 279.642417,200.31105 C271.098352,204.342975 263.357786,211.06629 257.034397,219.988599 C252.922025,225.78087 249.408811,232.494968 246.655942,240.004182 C241.459833,254.178607 241.522561,265.676009 246.83478,273.252745 C249.839229,277.535458 256.090173,282.652199 268.819186,282.666667 L268.858666,282.666667 C292.033113,282.666667 309.333402,267.52764 320.277161,237.669225 C323.180008,229.769361 326.987556,215.025477 320.015867,205.075892 C315.797058,199.061769 308.588434,196.009643 298.549401,196 L298.549401,196 Z M84.3376163,197.200472 C76.7127912,197.200472 69.305779,197.200472 62.6679229,200.556468 C56.0349007,203.913194 50.1757199,210.631601 45.6666188,224.068124 C44.6893296,226.957029 44.1724127,229.446019 44.1046839,231.606671 C44.036973,233.772142 44.4144667,235.614242 45.2369388,237.215433 C46.2529353,239.168696 47.8979153,241.00632 49.9541076,242.554465 C52.0151339,244.107428 54.4770922,245.366667 57.133211,246.17209 C57.2348071,246.201014 58.6287787,246.596228 60.322116,247.078518 C62.0057676,247.560807 63.9745387,248.138967 65.2227607,248.515149 C65.9533106,248.737001 66.7557573,249.026689 67.4814733,249.465574 C68.2120232,249.894809 68.8655987,250.473207 69.2768288,251.273806 C69.5477676,251.804318 69.6931545,252.388115 69.7076683,253.01026 C69.7269921,253.637236 69.6199616,254.313087 69.3732164,255.026871 C68.7539482,256.849915 67.8153068,258.026601 66.0252133,258.74521 C64.2447936,259.463814 61.6179878,259.694473 57.6314046,259.723415 L7.86658772,259.723415 L0,281.26708 L53.2672682,281.26708 C58.2795277,281.26708 67.4427363,281.26708 76.2480606,277.534853 C85.053379,273.80677 93.5016335,266.355334 97.0769806,251.438188 C98.4219707,245.834008 98.0055379,241.26671 95.8042084,237.678489 C93.593199,234.095093 89.596936,231.491264 83.7767122,229.827376 C83.7767122,229.827376 82.4756736,229.450121 80.9419991,229.011242 C79.4179985,228.572363 77.6519439,228.071207 76.7520633,227.81077 C75.26193,227.386359 74.1150662,226.527775 73.4377373,225.432978 C72.7652422,224.343012 72.5619787,223.016624 72.9441874,221.66139 C73.3457437,220.253114 74.3135374,219.129339 75.7069026,218.352857 C77.1099476,217.581189 78.9483448,217.157015 81.0964535,217.157015 L112.059959,217.157015 C112.277671,216.84353 112.476315,216.501553 112.694027,216.188068 C118.349748,208.211033 125.195909,201.75809 132.694945,197.200472 L84.3376163,197.200472 L84.3376163,197.200472 Z M223.510243,197.20046 C209.731367,197.20046 199.474182,204.149728 194.631253,217.157015 L171.224265,281.26708 L196.866736,281.26708 L208.894232,248.31256 L231.555669,248.327615 L238.004317,230.675931 L215.416044,230.660876 L219.054369,220.44124 C219.809106,218.608547 221.623096,217.152386 224.274375,217.152386 C225.749988,217.152386 242.387569,217.157128 250.994524,217.161632 C251.217081,216.843328 251.415523,216.501541 251.633234,216.188056 C257.288956,208.211021 265.296411,201.758078 272.795447,197.20046 L223.510243,197.20046 L223.510243,197.20046 Z M342.469438,197.246762 L311.76141,281.319161 L337.844013,281.319161 L349.005181,251.72643 C349.551886,252.946615 356.13667,281.319161 356.13667,281.319161 L383.559406,281.319161 C383.559406,281.319161 378.571571,260.470149 374.904302,252.04941 C373.96088,249.883939 372.977931,247.458143 371.661974,245.427716 C379.407755,242.558104 390.632079,236.399211 395.281477,223.917617 C398.135948,216.244429 397.972165,210.041758 394.79838,205.493789 C390.952094,199.971593 383.124077,197.261236 370.859521,197.246762 L342.469438,197.246762 Z M395.967802,197.247948 C397.617592,198.550123 399.039759,200.034989 400.225092,201.732639 C403.258574,206.092523 404.419398,211.273318 403.72755,217.210276 L419.258657,217.210276 L395.851675,281.340025 L419.238917,281.340025 L442.659842,217.210276 L472.709413,217.210276 L480,197.247948 L395.967802,197.247948 L395.967802,197.247948 Z M359.654224,214.60432 L363.960293,214.60432 C371.831852,214.609767 374.767893,216.905006 372.102107,224.066974 C369.600811,230.790063 365.101503,234.942996 356.547769,234.942996 L356.514116,234.942996 L352.087275,234.938254 L359.654248,214.60432 L359.654224,214.60432 Z M152.593672,215.02118 L152.598429,215.02118 C160.610297,215.030841 162.44449,219.661167 155.409912,238.846557 L155.408723,238.846557 C148.180614,258.56729 142.936599,263.529742 135.040835,263.529742 L135.025733,263.529742 C127.333179,263.525001 124.634268,258.672455 131.833343,239.043355 C137.208464,224.391466 144.170634,215.02118 152.59375,215.02118 L152.593672,215.02118 Z M292.395719,215.02118 L292.404994,215.02118 C300.412028,215.030841 302.250092,219.661167 295.210674,238.846557 C287.987405,258.56729 282.738359,263.529742 274.847436,263.529742 L274.828885,263.529742 C267.131485,263.525001 264.445738,258.672455 271.63998,239.043355 C277.010254,224.391466 283.977461,215.02118 292.395736,215.02118 L292.395719,215.02118 Z" transform="translate(80 -60)"/>
</svg>
