<svg xmlns="http://www.w3.org/2000/svg" width="51" height="32" viewBox="0 0 51 32">
  <g fill="none" fill-rule="evenodd">
    <rect width="50" height="31" x=".5" y=".5" fill="#FFF" stroke="#D0D0D0"/>
    <path fill="#EE7F00" fill-rule="nonzero" d="M10.583157,13.0666667 C10.1454708,13.0666667 9.72103975,13.1669424 9.32238143,13.35407 C8.75310013,13.622865 8.23666203,14.071086 7.81510282,14.6659066 C7.54126729,15.052058 7.3068081,15.4996645 7.12328323,16.0002788 C6.77719896,16.9452404 6.78107087,17.711734 7.13489619,18.2168497 C7.33551567,18.5023639 7.75256755,18.8434799 8.60052308,18.8444444 L8.60377346,18.8444444 C10.148414,18.8444444 11.3014439,17.835176 12.0316728,15.844615 C12.2245509,15.3179574 12.4790455,14.3350318 12.0139439,13.6717262 C11.7330123,13.2707846 11.2524247,13.0673096 10.5831558,13.0666667 L10.583157,13.0666667 Z M19.9032934,13.0666667 C19.4659298,13.0666667 19.0411635,13.1669424 18.6428278,13.35407 C18.0732235,13.622865 17.5571857,14.071086 17.1356265,14.6659066 C16.8614683,15.052058 16.6272541,15.4996645 16.4437295,16.0002788 C16.0973222,16.9452404 16.1015041,17.711734 16.455652,18.2168497 C16.6559486,18.5023639 17.0726782,18.8434799 17.921279,18.8444444 L17.9239111,18.8444444 C19.4688742,18.8444444 20.6222268,17.835176 21.3518108,15.844615 C21.5453338,15.3179574 21.7991704,14.3350318 21.3343911,13.6717262 C21.0531372,13.2707846 20.5725623,13.0673096 19.9032934,13.0666667 L19.9032934,13.0666667 Z M5.62250775,13.1466981 C5.11418608,13.1466981 4.62038527,13.1466981 4.17786153,13.3704312 C3.73566005,13.5942129 3.34504799,14.0421067 3.04444125,14.9378749 C2.97928864,15.1304686 2.94482751,15.2964013 2.94031226,15.4404448 C2.9357982,15.5848095 2.96096444,15.7076161 3.01579592,15.8143622 C3.08352902,15.9445797 3.19319435,16.067088 3.33027384,16.1702976 C3.46767559,16.2738285 3.63180615,16.3577778 3.80888073,16.4114727 C3.8156538,16.413401 3.90858525,16.4397486 4.0214744,16.4719012 C4.13371784,16.5040538 4.26496925,16.5425978 4.34818405,16.5676766 C4.39688737,16.5824667 4.45038382,16.6017792 4.49876489,16.6310382 C4.54746821,16.6596539 4.59103991,16.6982138 4.61845526,16.751587 C4.63651784,16.7869545 4.6462103,16.8258743 4.64717788,16.8673507 C4.64846614,16.9091491 4.64133077,16.9542058 4.62488109,17.0017914 C4.58359655,17.1233277 4.52102045,17.2017734 4.40168089,17.2496807 C4.28298624,17.2975876 4.10786585,17.3129649 3.84209364,17.3148944 L0.524439181,17.3148944 L0,18.7511386 L3.55115122,18.7511386 C3.88530185,18.7511386 4.49618242,18.7511386 5.08320404,18.5023236 C5.67022526,18.2537847 6.23344223,17.7570222 6.47179871,16.7625459 C6.56146471,16.3889338 6.53370253,16.0844474 6.38694722,15.8452326 C6.2395466,15.6063395 5.97312907,15.432751 5.58511415,15.321825 C5.58511415,15.321825 5.49837824,15.2966747 5.39613328,15.2674161 C5.29453324,15.2381575 5.17679626,15.2047472 5.11680422,15.1873847 C5.017462,15.1590906 4.94100442,15.1018517 4.89584915,15.0288652 C4.85101615,14.9562008 4.83746525,14.867775 4.86294582,14.777426 C4.88971624,14.6835409 4.95423583,14.6086226 5.04712684,14.5568572 C5.14066317,14.5054126 5.26322299,14.4771343 5.40643023,14.4771343 L7.47066396,14.4771343 C7.48517808,14.4562353 7.49842099,14.4334369 7.51293511,14.4125379 C7.88998318,13.8807355 8.34639395,13.4505393 8.84632966,13.1466981 L5.62250775,13.1466981 L5.62250775,13.1466981 Z M14.9006829,13.1466973 C13.9820911,13.1466973 13.2982788,13.6099818 12.9754169,14.4771343 L11.414951,18.7511386 L13.1244491,18.7511386 L13.9262821,16.5541707 L15.4370446,16.5551744 L15.8669545,15.3783954 L14.3610696,15.3773917 L14.6036246,14.6960827 C14.6539404,14.5739031 14.7748731,14.4768257 14.951625,14.4768257 C15.0499992,14.4768257 16.1591713,14.4771418 16.7329682,14.4774421 C16.7478054,14.4562219 16.7610348,14.4334361 16.775549,14.4125371 C17.152597,13.8807347 17.6864274,13.4505385 18.1863631,13.1466973 L14.9006829,13.1466973 L14.9006829,13.1466973 Z M22.8312959,13.1497842 L20.784094,18.7546107 L22.5229342,18.7546107 L23.2670121,16.781762 C23.3034591,16.8631076 23.7424447,18.7546107 23.7424447,18.7546107 L25.570627,18.7546107 C25.570627,18.7546107 25.2381048,17.3646766 24.9936201,16.803294 C24.9307254,16.6589293 24.8651954,16.4972096 24.7774649,16.3618477 C25.2938503,16.1705403 26.0421386,15.7599474 26.3520985,14.9278411 C26.5423965,14.4162953 26.5314777,14.0027839 26.319892,13.699586 C26.0634729,13.3314395 25.5416051,13.1507491 24.7239681,13.1497842 L22.8312959,13.1497842 Z M26.3978535,13.1498632 C26.5078395,13.2366748 26.6026506,13.3356659 26.6816728,13.4488426 C26.8839049,13.7395015 26.9612932,14.0848878 26.91517,14.4806851 L27.9505771,14.4806851 L26.3901116,18.7560016 L27.9492611,18.7560016 L29.5106561,14.4806851 L31.5139608,14.4806851 L32,13.1498632 L26.3978535,13.1498632 L26.3978535,13.1498632 Z M23.9769483,14.3069547 L24.2640196,14.3069547 C24.7887901,14.3073178 24.9845262,14.4603337 24.8068071,14.9377983 C24.6400541,15.3860042 24.3401002,15.6628664 23.7698513,15.6628664 L23.7676077,15.6628664 L23.472485,15.6625503 L23.9769498,14.3069547 L23.9769483,14.3069547 Z M10.1729115,14.3347453 L10.1732286,14.3347453 C10.7073531,14.3353894 10.8296327,14.6440778 10.3606608,15.9231038 L10.3605815,15.9231038 C9.8787076,17.2378194 9.52910658,17.5686495 9.00272233,17.5686495 L9.0017155,17.5686495 C8.48887858,17.5683334 8.3089512,17.2448303 8.78888955,15.9362237 C9.14723091,14.9594311 9.6113756,14.3347453 10.1729166,14.3347453 L10.1729115,14.3347453 Z M19.4930479,14.3347453 L19.4936663,14.3347453 C20.0274685,14.3353894 20.1500061,14.6440778 19.6807116,15.9231038 C19.1991603,17.2378194 18.849224,17.5686495 18.3231624,17.5686495 L18.3219256,17.5686495 C17.8087657,17.5683334 17.6297159,17.2448303 18.109332,15.9362237 C18.4673503,14.9594311 18.9318307,14.3347453 19.4930491,14.3347453 L19.4930479,14.3347453 Z" transform="translate(10)"/>
  </g>
</svg>
