<svg height="32" viewBox="0 0 51 32" width="51" xmlns="http://www.w3.org/2000/svg"><g fill="none" fill-rule="evenodd"><path d="m.5.5h50v31h-50z" fill="#fff" stroke="#d0d0d0"/><path d="m10.583157 13.0666667c-.4376862 0-.86211725.1002757-1.26077557.2874033-.5692813.268795-1.0857194.717016-1.50727861 1.3118366-.27383553.3861514-.50829472.8337579-.69181959 1.3343722-.34608427.9449616-.34221236 1.7114552.01161296 2.2165709.20061948.2855142.61767136.6266302 1.46562689.6275947h.00325038c1.54464054 0 2.69767044-1.0092684 3.42789934-2.9998294.1928781-.5266576.4473727-1.5095832-.0177289-2.1728888-.2809316-.4009416-.7615192-.6044166-1.4307881-.6050595zm9.3201364 0c-.4373636 0-.8621299.1002757-1.2604656.2874033-.5696043.268795-1.0856421.717016-1.5072013 1.3118366-.2741582.3861514-.5083724.8337579-.691897 1.3343722-.3464073.9449616-.3422254 1.7114552.0119225 2.2165709.2002966.2855142.6170262.6266302 1.465627.6275947h.0026321c1.5449631 0 2.6983157-1.0092684 3.4278997-2.9998294.193523-.5266576.4473596-1.5095832-.0174197-2.1728888-.2812539-.4009416-.7618288-.6044166-1.4310977-.6050595zm-14.28078565.0800314c-.50832167 0-1.00212248 0-1.44464622.2237331-.44220148.2237817-.83281354.6716755-1.13342028 1.5674437-.06515261.1925937-.09961374.3585264-.10412899.5025699-.00451406.1443647.02065218.2671713.07548366.3739174.0677331.1302175.17739843.2527258.31447792.3559354.13740175.1035309.30153231.1874802.47860689.2411751.00677307.0019283.09970452.0282759.21259367.0604285.11224344.0321526.24349485.0706966.32670965.0957754.04870332.0147901.10219977.0341026.15058084.0633616.04870332.0286157.09227502.0671756.11969037.1205488.01806258.0353675.02775504.0742873.02872262.1157637.00128826.0417984-.00584711.0868551-.02229679.1344407-.04128454.1215363-.10386064.199982-.2232002.2478893-.11869465.0479069-.29381504.0632842-.55958725.0652137h-3.31765446l-.52443918 1.4362442h3.55115122c.33415063 0 .9450312 0 1.53205282-.248815.58702122-.2485389 1.15023819-.7453014 1.38859467-1.7397777.089666-.3736121.06190382-.6780985-.08485149-.9173133-.14740062-.2388931-.41381815-.4124816-.80183307-.5234076 0 0-.08673591-.0251503-.18898087-.0544089-.10160004-.0292586-.21933702-.0626689-.27932906-.0800314-.09934222-.0282941-.1757998-.085533-.22095507-.1585195-.044833-.0726644-.0583839-.1610902-.03290333-.2514392.02677042-.0938851.09129001-.1688034.18418102-.2205688.09353633-.0514446.21609615-.0797229.35930339-.0797229h2.06423373c.01451412-.020899.02775703-.0436974.04227115-.0645964.37704807-.5318024.83345884-.9619986 1.33339455-1.2658398zm9.27817515-.0000008c-.9185918 0-1.6024041.4632845-1.925266 1.330437l-1.5604659 4.2740043h1.7094981l.801833-2.1969679 1.5107625.0010037.4299099-1.176779-1.5058849-.0010037.242555-.681309c.0503158-.1221796.1712485-.219257.3480004-.219257.0983742 0 1.2075463.0003161 1.7813432.0006164.0148372-.0212202.0280666-.044006.0425808-.064905.377048-.5318024.9108784-.9619986 1.4108141-1.2658398zm7.930613.0030869-2.0472019 5.6048265h1.7388402l.7440779-1.9728487c.036447.0813456.4754326 1.9728487.4754326 1.9728487h1.8281823s-.3325222-1.3899341-.5770069-1.9513167c-.0628947-.1443647-.1284247-.3060844-.2161552-.4414463.5163854-.1913074 1.2646737-.6019003 1.5746336-1.4340066.190298-.5115458.1793792-.9250572-.0322065-1.2282551-.2564191-.3681465-.7782869-.5488369-1.5959239-.5498018zm3.5665576.000079c.109986.0868116.2047971.1858027.2838193.2989794.2022321.2906589.2796204.6360452.2334972 1.0318425h1.0354071l-1.5604655 4.2753165h1.5591495l1.561395-4.2753165h2.0033047l.4860392-1.3308219zm-2.4209052 1.1570915h.2870713c.5247705.0003631.7205066.153379.5427875.6308436-.166753.4482059-.4667069.7250681-1.0369558.7250681h-.0022436l-.2951227-.0003161.5044648-1.3555956zm-13.8040368.0277906h.0003171c.5341245.0006441.6564041.3093325.1874322 1.5883585h-.0000793c-.4818739 1.3147156-.83147492 1.6455457-1.35785917 1.6455457h-.00100683c-.51283692-.0003161-.6927643-.3238192-.21282595-1.6324258.35834136-.9767926.82248605-1.6014784 1.38402705-1.6014784zm9.3201364 0h.0006184c.5338022.0006441.6563398.3093325.1870453 1.5883585-.4815513 1.3147156-.8314876 1.6455457-1.3575492 1.6455457h-.0012368c-.5131599-.0003161-.6922097-.3238192-.2125936-1.6324258.3580183-.9767926.8224987-1.6014784 1.3837171-1.6014784z" fill="#ee7f00" fill-rule="nonzero" transform="translate(10)"/></g></svg>