<svg xmlns="http://www.w3.org/2000/svg" xmlns:xlink="http://www.w3.org/1999/xlink" width="40" height="40"><defs><linearGradient id="b" x1="52.13" x2="30.22" y1="31.53" y2="39.5" gradientUnits="userSpaceOnUse"><stop offset=".34" stop-color="#f7ac00"/><stop offset=".85" stop-color="#f08800"/></linearGradient><linearGradient id="a" x1="47.73" x2="47.73" y1="66.23" y2="22.02" gradientUnits="userSpaceOnUse"><stop offset="0" stop-color="#ee7d00"/><stop offset=".25" stop-color="#f29200"/><stop offset=".78" stop-color="#f29200"/><stop offset=".99" stop-color="#f49d00"/></linearGradient><linearGradient id="d" x1="17.08" x2="39.54" y1="60.66" y2="41.81" gradientUnits="userSpaceOnUse"><stop offset=".21" stop-color="#e9600f"/><stop offset=".54" stop-color="#eb6b0a"/><stop offset=".82" stop-color="#f08800"/></linearGradient><linearGradient id="e" x1="39.6" x2="55.7" y1="33.11" y2="12.89" gradientUnits="userSpaceOnUse"><stop offset=".52" stop-color="#f7ab00"/><stop offset=".86" stop-color="#feca00"/></linearGradient><linearGradient xlink:href="#a" id="f" x1="28.21" x2="28.21" y1="19.95" y2="7.11"/><linearGradient id="g" x1="21.23" x2="21.23" y1="54.45" y2="33.1" gradientUnits="userSpaceOnUse"><stop offset=".31" stop-color="#fff"/><stop offset=".63" stop-color="#f2a8c7"/></linearGradient><linearGradient id="h" x1="37.65" x2="37.65" y1="54.42" y2="38.42" gradientUnits="userSpaceOnUse"><stop offset="0" stop-color="#fff"/><stop offset=".29" stop-color="#f7c7dc"/></linearGradient><linearGradient xlink:href="#a" id="c" x1="47.73" x2="47.73" y1="66.23" y2="22.02" gradientUnits="userSpaceOnUse"/><radialGradient id="i" cx="40.11" cy="35.53" r="32.03" fx="40.11" fy="35.53" gradientUnits="userSpaceOnUse"><stop offset=".83" stop-color="#fff"/><stop offset=".95" stop-color="#f7cadd"/></radialGradient></defs><g data-name="Layer 1" style="isolation:isolate"><path d="M69.54 37.75c0 17.56-14.23 31.79-31.79 31.79S5.96 55.31 5.96 37.75 20.19 5.96 37.75 5.96s31.79 14.23 31.79 31.79" style="stroke-width:0;fill:#fff" transform="scale(.5298)"/><path d="M34.99 31.03c.53 0 1.19.36 1.47.8l10.08 15.22 4-19.92H27.15v3.9z" style="stroke-width:0;fill:url(#b)" transform="scale(.5298)"/><path d="M64.04 22.02c2.27 6.34 1.33 13.46-2.52 18.21-1.51 1.87-3.86 3.68-6.66 5.02l-1.68 8.23c-.11.52-.63.94-1.15.94h-8.24c-.52 0-1.19-.36-1.47-.8l-10.07-15.2-.73 3.61-2.33 11.48c-.11.51-.62.93-1.15.93h-.97c0 6.96 9.26 14.86 24.67 10.56 9.89-5.08 16.65-15.38 16.65-27.26 0-5.75-1.59-11.14-4.35-15.73z" style="stroke-width:0;fill:url(#c)" transform="scale(.5298)"/><path d="M8.32 42.28c0-11.42 7.85-15.15 16.11-15.15h2.79v3.9h-.46c-.53 0-1.04.42-1.15.93l-.23 1.13-4.15 20.41c-.1.51.24.94.77.94h5.07c0 6.96 9.26 14.86 24.67 10.56-4.2 2.16-8.95 3.38-13.99 3.38-17.59 0-29.43-14.5-29.43-26.11z" style="stroke-width:0;fill:url(#d)" transform="scale(.5298)"/><path d="M54.86 45.25c2.8-1.34 5.16-3.15 6.66-5.02 3.85-4.76 4.79-11.87 2.52-18.21-4.49-7.49-12.09-12.89-21.01-14.44-6.02-.43-11.75 1.18-14.79 5.15-1.41 1.84-1.6 4.36-.98 7.23h23.81c.52 0 1.19.36 1.47.8l5.03 7.84c.28.44.43 1.22.33 1.74l-3.05 14.91z" style="stroke-width:0;fill:url(#e)" transform="scale(.5298)"/><path d="M43.03 7.58c-6.02-.43-11.75 1.18-14.79 5.15-1.41 1.84-1.6 4.36-.98 7.23h-12.9c-1.36 0-1.2-.56-.1-1.88 5.62-6.7 14.05-10.96 23.48-10.96 1.8 0 3.57.17 5.28.46z" style="stroke-width:0;fill:url(#f)" transform="scale(.5298)"/><path d="m21.23 53.51 4.15-20.41h-3.04c-.54 0-1.06.43-1.17.95l-4.06 19.44c-.11.53.24.95.77.95H22c-.52 0-.87-.42-.77-.94z" style="stroke-width:0;mix-blend-mode:multiply;fill:url(#g)" transform="scale(.5298)"/><path d="M40.59 54.42h3.2c-.52 0-1.19-.36-1.47-.8l-10.07-15.2-.73 3.61 7.4 11.48c.33.5 1.08.91 1.67.91" style="stroke-width:0;mix-blend-mode:multiply;fill:url(#h)" transform="scale(.5298)"/><path d="M8.32 42.28c0-11.42 7.85-15.15 16.11-15.15h26.09l-4 19.92-10.08-15.22c-.28-.44-.94-.8-1.47-.8h-8.23c-.53 0-1.04.42-1.15.93l-.23 1.13-4.15 20.41c-.1.51.24.94.77.94h6.04c.52 0 1.04-.42 1.15-.93l2.33-11.48.73-3.61 10.07 15.2c.28.44.94.8 1.47.8h8.24c.52 0 1.04-.42 1.15-.94l1.68-8.23 3.05-14.91c.1-.51-.05-1.3-.33-1.74l-5.03-7.84c-.28-.44-.95-.8-1.47-.8h-36.7c-1.36 0-1.2-.56-.1-1.88 5.62-6.7 14.05-10.96 23.48-10.96 1.8 0 3.57.17 5.28.46 8.92 1.55 16.52 6.96 21.01 14.44 2.76 4.6 4.35 9.98 4.35 15.73 0 11.88-6.77 22.18-16.65 27.26-4.2 2.16-8.95 3.38-13.99 3.38-17.59 0-29.43-14.5-29.43-26.11z" style="stroke-width:0;mix-blend-mode:multiply;fill:url(#i)" transform="scale(.5298)"/></g></svg>