<svg xmlns="http://www.w3.org/2000/svg" width="32" height="24" fill="none" viewBox="0 0 32 24"><clipPath id="a"><rect width="32" height="24" fill="#fff" rx="4"/></clipPath><rect width="32" height="24" fill="#fff" stroke="#e6e6e6" stroke-width="2" clip-path="url(#a)" rx="4"/><path fill="url(#b)" d="M13.833 12.782c.18 0 .414.14.522.281l3.37 4.965 1.325-6.514h-7.777v1.268h2.58z" transform="translate(4)scale(.8)"/><path fill="url(#c)" d="M23.53 9.86c.753 2.077.43 4.4-.824 5.95-.502.598-1.29 1.197-2.222 1.655l-.574 2.676a.42.42 0 0 1-.394.317h-2.724a.7.7 0 0 1-.502-.247l-3.333-4.964-.25 1.161-.79 3.768c0 .14-.179.282-.358.282h-.322c0 2.289 3.082 4.859 8.208 3.45C22.742 22.253 25 18.873 25 15c-.036-1.866-.538-3.627-1.47-5.14" transform="translate(4)scale(.8)"/><path fill="url(#d)" d="M5 16.479c0-3.732 2.616-4.965 5.376-4.965h.932v1.268h-.143c-.18 0-.358.14-.394.317l-.108.387-1.362 6.655c-.036.176.072.317.251.317h1.685c0 2.289 3.082 4.859 8.207 3.45A10.3 10.3 0 0 1 14.784 25C8.944 25 5 20.282 5 16.479" transform="translate(4)scale(.8)"/><path fill="url(#e)" d="M20.484 17.465c.932-.423 1.72-1.021 2.222-1.655 1.29-1.55 1.577-3.873.824-5.95-1.505-2.43-4.014-4.226-6.989-4.72-2.007-.14-3.907.388-4.91 1.691-.466.599-.538 1.408-.323 2.36h7.921c.18 0 .395.105.502.246l1.685 2.57c.107.14.143.387.107.563z" transform="translate(4)scale(.8)"/><path fill="url(#f)" d="M16.541 5.14c-2.007-.14-3.907.388-4.91 1.691-.466.599-.538 1.408-.323 2.36h-4.3c-.467 0-.395-.177-.037-.635C8.835 6.373 11.631 5 14.785 5c.61 0 1.183.035 1.756.14" transform="translate(4)scale(.8)"/><path fill="url(#g)" d="m9.301 20.14 1.362-6.654H9.66c-.179 0-.358.14-.394.317L7.903 20.14c-.036.176.072.317.251.317h1.362c-.143 0-.25-.141-.215-.317" transform="translate(4)scale(.8)"/><path fill="url(#h)" d="M15.717 20.458h1.075a.69.69 0 0 1-.502-.247l-3.333-4.964-.25 1.161 2.472 3.768c.108.14.359.282.538.282" transform="translate(4)scale(.8)"/><defs><linearGradient id="b" x1="19.568" x2="12.313" y1="12.966" y2="15.654" gradientUnits="userSpaceOnUse"><stop offset=".337" stop-color="#f4aa1c"/><stop offset=".847" stop-color="#ed8722"/></linearGradient><linearGradient id="c" x1="18.105" x2="18.105" y1="24.306" y2="9.859" gradientUnits="userSpaceOnUse"><stop offset=".006" stop-color="#ec7e23"/><stop offset=".252" stop-color="#f09220"/><stop offset=".779" stop-color="#f09220"/><stop offset=".994" stop-color="#f19c1f"/></linearGradient><linearGradient id="d" x1="7.908" x2="15.27" y1="22.486" y2="16.199" gradientUnits="userSpaceOnUse"><stop offset=".215" stop-color="#e66124"/><stop offset=".54" stop-color="#e86c24"/><stop offset=".816" stop-color="#ed8722"/></linearGradient><linearGradient id="e" x1="15.402" x2="20.641" y1="13.482" y2="6.785" gradientUnits="userSpaceOnUse"><stop offset=".515" stop-color="#f4aa1c"/><stop offset=".859" stop-color="#fcc90a"/></linearGradient><linearGradient id="f" x1="11.612" x2="11.612" y1="9.185" y2="4.989" gradientUnits="userSpaceOnUse"><stop offset=".006" stop-color="#ec7e23"/><stop offset=".252" stop-color="#f09220"/><stop offset=".779" stop-color="#f09220"/><stop offset=".994" stop-color="#f19c1f"/></linearGradient><linearGradient id="g" x1="9.29" x2="9.29" y1="20.455" y2="13.481" gradientUnits="userSpaceOnUse"><stop offset=".307" stop-color="#e76524"/><stop offset=".626" stop-color="#df541a"/></linearGradient><linearGradient id="h" x1="14.752" x2="14.752" y1="20.447" y2="15.219" gradientUnits="userSpaceOnUse"><stop stop-color="#f19c1f"/><stop offset=".294" stop-color="#e8721b"/></linearGradient></defs></svg>