<svg xmlns="http://www.w3.org/2000/svg" xml:space="preserve" width="640" height="360" viewBox="0 -7.5 640 360"><linearGradient id="a" x1="42.843" x2="22.517" y1="16.724" y2="24.122" gradientUnits="userSpaceOnUse"><stop offset=".337" style="stop-color:#f4aa1c"/><stop offset=".847" style="stop-color:#ed8722"/></linearGradient><linearGradient id="b" x1="38.762" x2="38.762" y1="48.928" y2="7.9" gradientUnits="userSpaceOnUse"><stop offset=".006" style="stop-color:#ec7e23"/><stop offset=".252" style="stop-color:#f09220"/><stop offset=".779" style="stop-color:#f09220"/><stop offset=".994" style="stop-color:#f19c1f"/></linearGradient><linearGradient id="c" x1="10.314" x2="31.16" y1="43.762" y2="26.27" gradientUnits="userSpaceOnUse"><stop offset=".215" style="stop-color:#e66124"/><stop offset=".54" style="stop-color:#e86c24"/><stop offset=".816" style="stop-color:#ed8722"/></linearGradient><linearGradient id="d" x1="31.221" x2="46.162" y1="18.19" y2="-.573" gradientUnits="userSpaceOnUse"><stop offset=".515" style="stop-color:#f4aa1c"/><stop offset=".859" style="stop-color:#fcc90a"/></linearGradient><linearGradient id="e" x1="20.649" x2="20.649" y1="5.986" y2="-5.932" gradientUnits="userSpaceOnUse"><stop offset=".006" style="stop-color:#ec7e23"/><stop offset=".252" style="stop-color:#f09220"/><stop offset=".779" style="stop-color:#f09220"/><stop offset=".994" style="stop-color:#f19c1f"/></linearGradient><linearGradient id="g" x1="29.407" x2="29.407" y1="37.97" y2="23.123" gradientUnits="userSpaceOnUse"><stop offset="0" style="stop-color:#f19c1f"/><stop offset=".294" style="stop-color:#e8721b"/></linearGradient><g transform="matrix(2.68063 0 0 2.68063 64 112.186)"><circle cx="29.5" cy="22.5" r="29.5" fill="#fff"/><path fill="url(#a)" d="M26.9 16.3c.5 0 1.1.3 1.4.7l9.4 14.1 3.7-18.5H19.7v3.6h7.2z" style="fill:url(#a)"/><path fill="url(#b)" d="M53.9 7.9c2.1 5.9 1.2 12.5-2.3 16.9-1.4 1.7-3.6 3.4-6.2 4.7l-1.6 7.6c-.1.5-.6.9-1.1.9h-7.6c-.5 0-1.1-.3-1.4-.7l-9.3-14.1-.7 3.3-2.2 10.7c0 .4-.5.8-1 .8h-.9c0 6.5 8.6 13.8 22.9 9.8C51.7 43.1 58 33.5 58 22.5c-.1-5.3-1.5-10.3-4.1-14.6" style="fill:url(#b)"/><path fill="url(#c)" d="M2.2 26.7c0-10.6 7.3-14.1 15-14.1h2.6v3.6h-.4c-.5 0-1 .4-1.1.9l-.3 1.1-3.8 18.9c-.1.5.2.9.7.9h4.7c0 6.5 8.6 13.8 22.9 9.8-3.9 2-8.3 3.1-13 3.1-16.3 0-27.3-13.4-27.3-24.2" style="fill:url(#c)"/><path fill="url(#d)" d="M45.4 29.5c2.6-1.2 4.8-2.9 6.2-4.7 3.6-4.4 4.4-11 2.3-16.9C49.7 1 42.7-4.1 34.4-5.5c-5.6-.4-10.9 1.1-13.7 4.8-1.3 1.7-1.5 4-.9 6.7h22.1c.5 0 1.1.3 1.4.7L48 14c.3.4.4 1.1.3 1.6z" style="fill:url(#d)"/><path fill="url(#e)" d="M34.4-5.5c-5.6-.4-10.9 1.1-13.7 4.8-1.3 1.7-1.5 4-.9 6.7h-12c-1.3 0-1.1-.5-.1-1.8C12.9-2 20.7-5.9 29.5-5.9c1.7 0 3.3.1 4.9.4" style="fill:url(#e)"/><linearGradient id="f" x1="14.168" x2="14.168" y1="37.993" y2="18.186" gradientUnits="userSpaceOnUse"><stop offset=".307" style="stop-color:#e76524"/><stop offset=".626" style="stop-color:#df541a"/></linearGradient><path fill="url(#f)" d="M14.2 37.1 18 18.2h-2.8c-.5 0-1 .4-1.1.9l-3.8 18c-.1.5.2.9.7.9h3.8c-.4 0-.7-.4-.6-.9" style="fill:url(#f)"/><path fill="url(#g)" d="M32.1 38h3c-.5 0-1.1-.3-1.4-.7l-9.3-14.1-.7 3.3 6.9 10.7c.3.4 1 .8 1.5.8" style="fill:url(#g)"/><path d="M107.2 12.2c0-3.3 2-5.9 5.4-5.9s5.4 2.6 5.4 5.9c0 3.5-2.2 5.9-5.4 5.9-3.3 0-5.4-2.5-5.4-5.9m8.1 0c0-2.2-1.1-3.7-2.8-3.7s-2.7 1.6-2.7 3.7c0 2 .9 3.8 2.8 3.8 1.6-.1 2.7-1.6 2.7-3.8M70.3 17.8q-.3 0-.3-.3V6.9q0-.3.3-.3h1.6c.2 0 .3.2.3.3l.2 1.1c.7-.9 2-1.7 3.4-1.7 2.1 0 3.8 1.3 3.8 4.4v6.9q0 .3-.3.3h-1.9q-.3 0-.3-.3V11c0-1.8-1-2.4-2-2.4-1.3 0-2.5 1.1-2.5 3.3v5.6q0 .3-.3.3zM70.3 38.5q-.3 0-.3-.3V27.5q0-.3.3-.3h1.6c.2 0 .3.2.3.3l.1 1.1c.7-.9 2-1.7 3.4-1.7 2.1 0 3.8 1.3 3.8 4.4v6.9q0 .3-.3.3h-1.9q-.3 0-.3-.3v-6.5c0-1.9-1-2.4-2-2.4-1.3 0-2.5 1.1-2.5 3.3v5.6q0 .3-.3.3zM120.4 17.8q-.3 0-.3-.3V6.9q0-.3.3-.3h1.6c.2 0 .3.2.3.3l.1 1.1c.7-.9 2-1.7 3.4-1.7 2.1 0 3.8 1.3 3.8 4.4v6.9q0 .3-.3.3h-1.9q-.3 0-.3-.3V11c0-1.8-1-2.4-2-2.4-1.3 0-2.5 1.1-2.5 3.3v5.6q0 .3-.3.3zM86.9 8.4c1.2 0 2.4.9 2.4 3.4v.5c0 2.9-1.4 3.6-2.3 3.6-1.7 0-2.6-1.8-2.6-3.8-.1-2.2 1-3.7 2.5-3.7m-.5-2.1c-2.4 0-4.7 2-4.7 5.9 0 3.2 1.7 5.9 4.7 5.9 1.3 0 2.5-.8 3-1.7l.2 1.1c0 .2.2.3.3.3h1.6q.3 0 .3-.3V6.9q0-.3-.3-.3H90c-.2 0-.3.2-.3.3l-.1 1c-.8-.9-1.8-1.6-3.2-1.6M137 29.1c1.2 0 2.4.9 2.4 3.3v.6c0 2.9-1.4 3.6-2.3 3.6-1.7 0-2.6-1.8-2.6-3.8-.1-2.2 1-3.7 2.5-3.7m-.5-2.2c-2.4 0-4.7 2-4.7 5.9 0 3.3 1.7 5.9 4.7 5.9 1.3 0 2.5-.8 3-1.7l.2 1.1c0 .2.2.3.3.3h1.6q.3 0 .3-.3V27.5q0-.3-.3-.3h-1.4c-.2 0-.3.2-.3.3l-.1 1c-.9-.9-1.9-1.6-3.3-1.6M136.9 8.4c1.1 0 2.4.9 2.4 3.4v.5c0 2.9-1.4 3.6-2.3 3.6-1.7 0-2.6-1.8-2.6-3.8-.1-2.2 1-3.7 2.5-3.7m-.4-2.1c-2.4 0-4.7 2-4.7 5.9 0 3.2 1.7 5.9 4.7 5.9 1.3 0 2.5-.8 3-1.7l.2 1.1c0 .2.2.3.3.3h1.6q.3 0 .3-.3V6.9q0-.3-.3-.3h-1.5c-.2 0-.3.2-.3.3l-.1 1c-.8-.9-1.8-1.6-3.2-1.6M104.6 6.6q.3 0 .3.3v10.6q0 .3-.3.3h-1.9q-.3 0-.3-.3V7.1q0-.3.3-.3zM146.8 1.9q.3 0 .3.3v15.3q0 .3-.3.3h-1.9q-.3 0-.3-.3V2.4q0-.3.3-.3z"/><circle cx="103.7" cy="3.6" r="1.5"/><path d="M99.9 16c0-.2-.2-.3-.5-.2-.2.1-.7.2-1.1.2-.7 0-1.1-.3-1.1-1.3V8.6h2.4q.3 0 .3-.3V6.9q0-.3-.3-.3h-2.4v-3c0-.2-.1-.4-.3-.3l-1.9.1c-.2 0-.3.2-.3.3v11.2c0 1.8.8 3.2 3.1 3.2.7 0 1.5-.1 2.1-.4.1-.1.2-.1.2-.3zM152 11.2c.2-1.3.8-2.9 2.5-2.9 1.8 0 2.4 1.4 2.5 2.9zm2.7 6.9c1.6 0 2.9-.4 3.9-1 .2-.1.2-.3.2-.4l-.5-1.3c-.1-.2-.3-.2-.4-.2-.9.4-1.9.7-3 .7-1.9 0-2.7-1.3-2.9-2.9h7.3q.3 0 .3-.3V12c0-2.8-1.4-5.8-5-5.8-3.3 0-5.2 2.5-5.2 6-.1 3.6 2 5.9 5.3 5.9M181.8 38.5q-.3 0-.3-.3V27.5q0-.3.3-.3h1.6c.2 0 .3.2.3.3l.1 1.1c.7-.9 2-1.7 3.4-1.7 2.1 0 3.8 1.3 3.8 4.4v6.9q0 .3-.3.3h-1.9q-.3 0-.3-.3v-6.5c0-1.9-1-2.4-2-2.4-1.3 0-2.5 1.1-2.5 3.3v5.6q0 .3-.3.3zM145.1 38.5q-.3 0-.3-.3V27.5q0-.3.3-.3h1.6c.2 0 .3.2.3.3l.1 1.1c.7-.9 2-1.7 3.4-1.7 2.1 0 3.8 1.3 3.8 4.4v6.9q0 .3-.3.3h-1.9q-.3 0-.3-.3v-6.5c0-1.9-1-2.4-2-2.4-1.3 0-2.5 1.1-2.5 3.3v5.6q0 .3-.3.3zM129.3 22.5q.3 0 .3.3v15.3q0 .3-.3.3h-1.9q-.3 0-.3-.3V23q0-.3.3-.3zM84.4 31.9c.2-1.3.8-2.9 2.5-2.9 1.8 0 2.4 1.4 2.5 2.9zm2.7 6.8c1.6 0 2.9-.4 3.9-1 .2-.1.2-.3.2-.4l-.5-1.3c-.1-.2-.3-.2-.4-.2-.9.4-1.9.7-3 .7-1.9 0-2.7-1.3-2.9-2.9h7.3q.3 0 .3-.3v-.7c0-2.8-1.4-5.8-5-5.8-3.3 0-5.2 2.5-5.2 6-.1 3.6 2 5.9 5.3 5.9M109.1 31.9c.2-1.3.8-2.9 2.5-2.9 1.8 0 2.4 1.4 2.5 2.9zm2.8 6.8c1.6 0 2.9-.4 3.9-1 .2-.1.2-.3.2-.4l-.5-1.3c-.1-.2-.3-.2-.4-.2-.9.4-1.9.7-3 .7-1.9 0-2.7-1.3-2.9-2.9h7.3q.3 0 .3-.3v-.7c0-2.8-1.4-5.8-5-5.8-3.3 0-5.2 2.5-5.2 6-.1 3.6 2 5.9 5.3 5.9M103.8 22.5l-1.9.2c-.2 0-.3.2-.3.3v5.2c-.7-.7-1.8-1.3-3.1-1.3-2.4 0-4.7 2-4.7 5.9 0 3.3 1.7 5.9 4.7 5.9 1.3 0 2.7-.8 3.3-1.7l.2 1.1c0 .2.2.3.3.3h1.5q.3 0 .3-.3V22.8c0-.1-.1-.3-.3-.3M101.6 33c0 2.9-1.6 3.6-2.6 3.6-1.7 0-2.6-1.8-2.6-3.8 0-2.2 1.1-3.7 2.6-3.7 1.1 0 2.6.9 2.6 3.3zM171.7 31.9c.2-1.3.8-2.9 2.5-2.9 1.8 0 2.4 1.4 2.5 2.9zm2.8 6.8c1.6 0 2.9-.4 3.9-1 .2-.1.2-.3.2-.4l-.5-1.3c-.1-.2-.3-.2-.4-.2-.9.4-1.9.7-3 .7-1.9 0-2.7-1.3-2.9-2.9h7.3q.3 0 .3-.3v-.7c0-2.8-1.4-5.8-5-5.8-3.3 0-5.2 2.5-5.2 6-.1 3.6 2 5.9 5.3 5.9M166.6 22.5l-1.9.2c-.2 0-.3.2-.3.3v5.2c-.7-.7-1.8-1.3-3.1-1.3-2.4 0-4.7 2-4.7 5.9 0 3.3 1.7 5.9 4.7 5.9 1.3 0 2.7-.8 3.2-1.7l.2 1.1c0 .2.2.3.3.3h1.5q.3 0 .3-.3V22.8c.1-.1-.1-.3-.2-.3M164.4 33c0 2.9-1.6 3.6-2.6 3.6-1.7 0-2.6-1.8-2.6-3.8 0-2.2 1.1-3.7 2.6-3.7 1.1 0 2.6.9 2.6 3.3zM125.1 27.3q0-.3-.3-.3c-1.4 0-2.7.8-3.5 1.7l-.1-1.1c0-.2-.2-.3-.3-.3h-1.6q-.3 0-.3.3v10.6q0 .3.3.3h1.9q.3 0 .3-.3v-5.5c0-2.3 1.4-3.2 2.7-3.2.2 0 .4 0 .5.1.3 0 .4-.1.4-.3z"/></g></svg>