<?xml version="1.0" encoding="UTF-8" standalone="no"?>
<svg
   xmlns:dc="http://purl.org/dc/elements/1.1/"
   xmlns:cc="http://creativecommons.org/ns#"
   xmlns:rdf="http://www.w3.org/1999/02/22-rdf-syntax-ns#"
   xmlns:svg="http://www.w3.org/2000/svg"
   xmlns="http://www.w3.org/2000/svg"
   xmlns:sodipodi="http://sodipodi.sourceforge.net/DTD/sodipodi-0.dtd"
   xmlns:inkscape="http://www.inkscape.org/namespaces/inkscape"
   inkscape:version="1.0 (4035a4f, 2020-05-01)"
   sodipodi:docname="method-ideal-qr-wc-51x32.svg"
   id="svg1291"
   version="1.1"
   viewBox="0 0 51 32"
   height="32"
   width="51">
  <metadata
     id="metadata1297">
    <rdf:RDF>
      <cc:Work
         rdf:about="">
        <dc:format>image/svg+xml</dc:format>
        <dc:type
           rdf:resource="http://purl.org/dc/dcmitype/StillImage" />
      </cc:Work>
    </rdf:RDF>
  </metadata>
  <defs
     id="defs1295">
    <style
       id="style1373">.a{fill:#fff;}.b{fill:#c06;}</style>
  </defs>
  <sodipodi:namedview
     inkscape:current-layer="svg1291"
     inkscape:window-maximized="1"
     inkscape:window-y="23"
     inkscape:window-x="0"
     inkscape:cy="-3"
     inkscape:cx="-20.5"
     inkscape:zoom="1"
     showgrid="false"
     id="namedview1293"
     inkscape:window-height="817"
     inkscape:window-width="1440"
     inkscape:pageshadow="2"
     inkscape:pageopacity="0"
     guidetolerance="10"
     gridtolerance="10"
     objecttolerance="10"
     borderopacity="1"
     bordercolor="#666666"
     pagecolor="#ffffff" />
  <rect
     width="50"
     height="31"
     x="0.5"
     y="0.5"
     fill="#ffffff"
     stroke="#d0d0d0"
     id="rect1249"
     style="fill-rule:evenodd" />
  <g
     transform="matrix(0.06510857,0,0,0.06510857,13.521,4.0209997)"
     id="g1453">
    <rect
       y="0"
       x="0"
       class="a"
       width="367.97"
       height="367.97"
       id="rect1377" />
    <path
       class="b"
       d="m 350.31,231.9 v -37.65 h -17.67 v 20 h -38.41 a 101.46,101.46 0 0 1 -6,17.66 z"
       id="path1379" />
    <path
       class="b"
       d="m 332.64,153.69 v 20 h 17.67 V 136 h -62 a 99.74,99.74 0 0 1 6,17.66 z"
       id="path1381" />
    <polygon
       class="b"
       points="35.32,214.24 35.32,173.13 17.65,173.13 17.65,231.9 64.8,231.9 64.8,214.24 "
       id="polygon1383" />
    <polygon
       points="17.65,17.65 17.65,114.5 64.8,114.5 64.8,96.84 35.32,96.84 35.32,35.32 96.84,35.32 96.84,80.82 114.5,80.82 114.5,17.65 "
       id="polygon1385" />
    <polygon
       points="17.65,350.31 114.5,350.31 114.5,287.15 96.84,287.15 96.84,332.64 35.32,332.64 35.32,271.13 64.8,271.13 64.8,253.46 17.65,253.46 "
       id="polygon1387" />
    <path
       d="m 274.53,114.5 h 75.78 V 17.65 h -96.85 v 79.46 a 86.58,86.58 0 0 1 21.07,17.39 z m -3.4,-79.18 h 61.52 v 61.52 h -61.52 z"
       id="path1389" />
    <rect
       x="287.14999"
       y="51.34"
       width="29.48"
       height="29.48"
       id="rect1391" />
    <rect
       x="51.34"
       y="51.34"
       width="29.48"
       height="29.48"
       id="rect1393" />
    <rect
       x="51.34"
       y="287.14999"
       width="29.48"
       height="29.48"
       id="rect1395" />
    <path
       class="b"
       d="M 231.14,17.65 H 137 v 17.67 h 76.44 v 47.82 a 133.58,133.58 0 0 1 17.66,4.17 z"
       id="path1397" />
    <path
       class="b"
       d="m 213.48,332.65 h -34.61 v -45.51 h -17.66 v 45.5 H 137 v 17.66 h 94.1 v -69.68 a 135.15,135.15 0 0 1 -17.66,4.19 z"
       id="path1399" />
    <rect
       class="b"
       x="161.24001"
       y="51.34"
       width="17.67"
       height="29.469999"
       id="rect1401" />
    <rect
       class="b"
       x="17.65"
       y="136.03"
       width="47.150002"
       height="17.66"
       id="rect1403" />
    <path
       class="b"
       d="m 274.4,253.46 a 86.45,86.45 0 0 1 -20.94,17.32 v 0.35 h 38.71 v 30.76 h 17.66 v -30.76 h 22.81 v 61.52 h -61.51 v -30.76 h -17.67 v 48.42 h 96.85 v -96.85 z"
       id="path1405" />
    <path
       d="M 184.4,271.14 H 95.54 A 14.74,14.74 0 0 1 80.82,256.42 V 111.56 A 14.73,14.73 0 0 1 95.54,96.84 h 88.86 c 84.67,0 97.31,54.48 97.31,86.95 0,56.33 -34.56,87.35 -97.31,87.35 z M 95.54,102.48 a 9.09,9.09 0 0 0 -9.08,9.08 v 144.86 a 9.09,9.09 0 0 0 9.08,9.08 h 88.86 c 59.12,0 91.67,-29 91.67,-81.71 0,-70.75 -57.43,-81.31 -91.67,-81.31 z"
       id="path1407" />
    <path
       class="b"
       d="m 135.73,125.6 v 126.31 h 55 c 49.95,0 71.61,-28.23 71.61,-68 0,-38.14 -21.66,-67.79 -71.61,-67.79 h -45.47 a 9.53,9.53 0 0 0 -9.53,9.48 z"
       id="path1409" />
    <path
       class="a"
       d="m 156.63,167.41 a 15,15 0 0 1 5.21,0.89 11.41,11.41 0 0 1 4.16,2.7 12.45,12.45 0 0 1 2.76,4.46 18.17,18.17 0 0 1 1,6.29 20.18,20.18 0 0 1 -0.81,5.85 13,13 0 0 1 -2.45,4.62 11.53,11.53 0 0 1 -4.1,3.06 13.77,13.77 0 0 1 -5.78,1.12 H 144.4 v -29 z M 156.18,191 a 8.41,8.41 0 0 0 2.68,-0.44 6,6 0 0 0 2.31,-1.48 7.31,7.31 0 0 0 1.62,-2.7 11.77,11.77 0 0 0 0.61,-4.06 17.18,17.18 0 0 0 -0.42,-4 8,8 0 0 0 -1.4,-3 6.22,6.22 0 0 0 -2.58,-1.92 10.22,10.22 0 0 0 -3.95,-0.67 h -4.28 V 191 Z"
       id="path1411" />
    <path
       class="a"
       d="m 196,167.41 v 5.36 H 181 V 179 h 13.76 v 4.95 H 180.93 V 191 h 15.34 v 5.35 h -21.71 v -29 z"
       id="path1413" />
    <path
       class="a"
       d="m 217.5,167.41 10.83,29 h -6.62 l -2.19,-6.45 h -10.83 l -2.27,6.45 H 200 l 11,-29 z m 0.36,17.77 -3.65,-10.63 h -0.08 l -3.77,10.63 z"
       id="path1415" />
    <path
       class="a"
       d="m 238.43,167.46 v 23.61 h 13.84 v 5.36 h -20.21 v -29 z"
       id="path1417" />
    <path
       d="m 110.88,203.82 v 0 a 10.55,10.55 0 0 1 10.55,10.55 v 37.54 0 a 21.09,21.09 0 0 1 -21.09,-21.09 v -16.46 a 10.55,10.55 0 0 1 10.54,-10.54 z"
       id="path1419" />
    <circle
       cx="110.88"
       cy="181.89999"
       r="13.92"
       id="circle1421" />
  </g>
</svg>
