<svg xmlns="http://www.w3.org/2000/svg" width="640" height="360" viewBox="0 0 640 360">
  <g fill="none" fill-rule="evenodd" transform="translate(180 40)">
    <path fill="#CD2073" d="M279.350586 148.570111L279.350586 179.924455 227.780165 179.924455C228.398818 178.578557 228.980242 177.208484 229.524436 175.814237 230.87828 172.339448 232.000351 168.778754 232.883274 165.155564L264.581695 165.155564 264.581695 148.570111 279.350586 148.570111zM279.350586 99.7066344L279.350586 131.058131 264.581695 131.058131 264.581695 114.475525 232.87415 114.475525C231.636066 109.407314 229.93495 104.463572 227.792252 99.7066344L279.350586 99.7066344zM179.152039 220.905705L179.152039 279.507545 100.104988 279.507545 100.104988 264.738596 120.502082 264.738596 120.502082 226.162634 135.270973 226.162634 135.270973 264.738596 164.383148 264.738596 164.383148 224.327942C169.378039 223.523522 174.312402 222.380135 179.152039 220.905705L179.152039 220.905705zM279.350586 198.052242L279.350586 279.507545 197.578692 279.507545 197.578692 238.779661 212.347584 238.779661 212.347584 264.738596 264.581695 264.738596 264.581695 212.821308 245.25908 212.821308 245.25908 238.779661 230.487167 238.779661 230.487167 212.821308 197.8954 212.821308 197.8954 212.791148C202.298298 210.236113 206.43152 207.242363 210.231981 203.855593 212.268613 202.034263 214.198171 200.096634 216.010983 198.052242L279.350586 198.052242z"/>
    <rect width="39.928" height="14.769" y="99.707" fill="#CD2073" fill-rule="nonzero"/>
    <polygon fill="#CD2073" points="39.928 165.158 39.928 179.924 0 179.924 0 130.756 14.766 130.756 14.766 165.158"/>
    <polygon fill="#000" fill-rule="nonzero" points="66.614 226.163 66.614 264.739 14.769 264.739 14.769 212.821 39.928 212.821 39.928 198.052 0 198.052 0 279.508 81.383 279.508 81.383 226.163"/>
    <rect width="24.58" height="24.58" x="28.439" y="226.489" fill="#000" fill-rule="nonzero"/>
    <polygon fill="#000" fill-rule="nonzero" points="28.439 28.44 53.018 28.44 53.018 53.019 28.439 53.019" transform="rotate(90 40.729 40.73)"/>
    <polygon fill="#000" fill-rule="nonzero" points="0 0 0 81.458 39.928 81.458 39.928 66.689 14.769 66.689 14.769 14.772 66.614 14.772 66.614 53.345 81.383 53.345 81.383 0"/>
    <rect width="1" height="14.772" x="197.144" fill="#000" fill-rule="nonzero"/>
    <polygon fill="#000" fill-rule="nonzero" points="226.333 28.44 250.912 28.44 250.912 53.019 226.333 53.019" transform="rotate(90 238.622 40.73)"/>
    <path fill="#000" fill-rule="nonzero" d="M197.219332,0 L197.219332,66.2125714 C204.301684,70.2126585 210.66785,75.3651422 216.056194,81.4582663 L278.602169,81.4582663 L278.602169,0 L197.219332,0 Z M263.830257,66.6893753 L211.988223,66.6893753 L211.988223,14.7719128 L263.830257,14.7719128 L263.830257,66.6893753 Z"/>
    <path fill="#CD2073" d="M179.152039,0 L179.152039,58.5233317 C174.310805,57.0661553 169.376589,55.9379651 164.383148,55.1464794 L164.383148,14.7719128 L100.104988,14.7719128 L100.104988,0 L179.152039,0 Z"/>
    <rect width="14.769" height="24.854" x="120.502" y="28.491" fill="#CD2073" fill-rule="nonzero"/>
    <g transform="translate(52.3 63.923)">
      <path fill="#FFF" d="M163.369685,75.6610169 C163.369685,119.448639 136.91907,142.099758 88.2909443,142.099758 L7.76815496,142.099758 L7.76815496,9.55984504 L88.2909443,9.55984504 C134.697995,9.55984504 163.369685,30.6629927 163.369685,75.6610169 Z"/>
      <path fill="#000" fill-rule="nonzero" d="M88.2909443,2.6823632 L0.887709443,2.6823632 L0.887709443,148.980145 L88.2909443,148.980145 C141.143942,148.980145 170.247109,122.942935 170.247109,75.6610169 C170.247109,48.4103826 159.600523,2.6823632 88.2909443,2.6823632 Z M7.76815496,142.099758 L7.76815496,9.55984504 L88.2909443,9.55984504 C134.697995,9.55984504 163.369685,30.6629927 163.369685,75.6607264 C163.369685,119.448349 136.91907,142.099758 88.2909443,142.099758 L7.76815496,142.099758 Z"/>
      <polygon fill="#0A0C0B" points="18.857 131.564 44.635 131.564 44.635 85.674 18.857 85.674"/>
      <path fill="#0A0C0B" d="M47.7301889,62.5759031 C47.7308,69.0561974 43.8275514,74.8987104 37.8406549,77.3788885 C31.8537583,79.8590666 24.9623374,78.4884369 20.3800857,73.9061686 C15.797834,69.3239003 14.4272293,62.4324744 16.9074291,56.4455868 C19.3876289,50.4586993 25.2301561,46.5554719 31.7104504,46.5561065 C40.5577442,46.5565558 47.7297717,53.7286093 47.7301889,62.5759031 L47.7301889,62.5759031 Z"/>
      <path fill="#D50A73" d="M57.4474576,55.1120194 L57.4474576,70.0672155 L62.0378499,70.0672155 C65.2184019,70.0672155 68.1558741,69.1479516 68.1558741,62.4720581 C68.1558741,55.9480678 64.8869927,55.1117869 62.0378499,55.1117869 L57.4474576,55.1120194 Z M134.022044,47.6737627 L141.447341,47.6737627 L141.447341,70.0672155 L152.450673,70.0672155 C149.432891,29.4337046 117.467622,20.6547022 88.4218692,20.6547022 L57.4537918,20.6547022 L57.4537918,47.6889298 L62.0378499,47.6889298 C65.8937526,47.5512951 69.6162913,49.1103541 72.2232725,51.9547482 C74.8302536,54.7991424 76.0597827,58.643127 75.5874479,62.4724649 C75.5874479,71.8778499 70.5197288,77.4921065 62.0378499,77.4921065 L57.4537918,77.4921065 L57.4537918,131.585666 L88.4218692,131.585666 C135.647012,131.585666 152.081201,109.655128 152.661559,77.4919322 L134.022276,77.4919322 L134.022044,47.6737627 Z M113.333172,64.3118644 L118.705337,64.3118644 L116.248969,55.8822857 L115.802789,55.8822857 L113.333172,64.3118644 Z M101.745763,77.5009395 L110.737743,47.672368 L121.301695,47.672368 L130.291061,77.5009395 L122.561492,77.5009395 L120.876262,71.7304794 L111.163293,71.7304794 L109.473356,77.5009395 L101.745763,77.5009395 Z M98.179816,70.0672736 L98.179816,77.4919903 L79.8101695,77.4919903 L79.8101695,47.6846877 L97.5870218,47.6846877 L97.5870218,55.1070218 L87.2362228,55.1070218 L87.2362228,58.5624988 L97.0253753,58.5624988 L97.0253753,65.9824504 L87.2362228,65.9824504 L87.2362228,70.0676804 L98.179816,70.0672736 Z"/>
    </g>
  </g>
</svg>
