<svg height="360" viewBox="0 0 640 360" width="640" xmlns="http://www.w3.org/2000/svg"><g fill="none" fill-rule="evenodd" transform="translate(180 40)"><path d="m279.350586 148.570111v31.354344h-51.570421c.618653-1.345898 1.200077-2.715971 1.744271-4.110218 1.353844-3.474789 2.475915-7.035483 3.358838-10.658673h31.698421v-16.585453zm0-48.8634766v31.3514966h-14.768891v-16.582606h-31.707545c-1.238084-5.068211-2.9392-10.011953-5.081898-14.7688906zm-100.198547 121.1990706v58.60184h-79.047051v-14.768949h20.397094v-38.575962h14.768891v38.575962h29.112175v-40.410654c4.994891-.80442 9.929254-1.947807 14.768891-3.422237zm100.198547-22.853463v81.455303h-81.771894v-40.727884h14.768892v25.958935h52.234111v-51.917288h-19.322615v25.958353h-14.771913v-25.958353h-32.591767v-.03016c4.402898-2.555035 8.53612-5.548785 12.336581-8.935555 2.036632-1.82133 3.96619-3.758959 5.779002-5.803351z" fill="#cd2073"/><path d="m0 99.707h39.928v14.769h-39.928z" fill="#cd2073" fill-rule="nonzero"/><path d="m39.928 165.158v14.766h-39.928v-49.168h14.766v34.402z" fill="#cd2073"/><g fill="#000" fill-rule="nonzero"><path d="m66.614 226.163v38.576h-51.845v-51.918h25.159v-14.769h-39.928v81.456h81.383v-53.345z"/><path d="m28.439 226.489h24.58v24.58h-24.58z"/><path d="m28.439 28.44h24.579v24.579h-24.579z" transform="matrix(0 1 -1 0 81.459 .001)"/><path d="m0 0v81.458h39.928v-14.769h-25.159v-51.917h51.845v38.573h14.769v-53.345z"/><path d="m197.144 0h1v14.772h-1z"/><path d="m226.333 28.44h24.579v24.579h-24.579z" transform="matrix(0 1 -1 0 279.352 -197.892)"/><path d="m197.219332 0v66.2125714c7.082352 4.0000871 13.448518 9.1525708 18.836862 15.2456949h62.545975v-81.4582663zm66.610925 66.6893753h-51.842034v-51.9174625h51.842034z"/></g><path d="m179.152039 0v58.5233317c-4.841234-1.4571764-9.77545-2.5853666-14.768891-3.3768523v-40.3745666h-64.27816v-14.7719128z" fill="#cd2073"/><path d="m120.502 28.491h14.769v24.854h-14.769z" fill="#cd2073" fill-rule="nonzero"/><g transform="translate(52.3 63.923)"><path d="m163.369685 75.6610169c0 43.7876221-26.450615 66.4387411-75.0787407 66.4387411h-80.52278934v-132.53991296h80.52278934c46.4070507 0 75.0787407 21.10314766 75.0787407 66.10117186z" fill="#fff"/><path d="m88.2909443 2.6823632h-87.40323486v146.2977818h87.40323486c52.8529977 0 81.9561647-26.03721 81.9561647-73.3191281 0-27.2506343-10.646586-72.9786537-81.9561647-72.9786537zm-80.52278934 139.4173948v-132.53991296h80.52278934c46.4070507 0 75.0787407 21.10314766 75.0787407 66.10088136 0 43.7876226-26.450615 66.4390316-75.0787407 66.4390316z" fill="#000" fill-rule="nonzero"/><path d="m18.857 131.564h25.778v-45.89h-25.778z" fill="#0a0c0b"/><path d="m47.7301889 62.5759031c.0006111 6.4802943-3.9026375 12.3228073-9.889534 14.8029854-5.9868966 2.4801781-12.8783175 1.1095484-17.4605692-3.4727199s-5.9528564-11.4736942-3.4726566-17.4605818c2.4801998-5.9868875 8.322727-9.8901149 14.8030213-9.8894803 8.8472938.0004493 16.0193213 7.1725028 16.0197385 16.0197966z" fill="#0a0c0b"/><path d="m57.4474576 55.1120194v14.9551961h4.5903923c3.180552 0 6.1180242-.9192639 6.1180242-7.5951574 0-6.5239903-3.2688814-7.3602712-6.1180242-7.3602712zm76.5745864-7.4382567h7.425297v22.3934528h11.003332c-3.017782-40.6335109-34.983051-49.4125133-64.0288038-49.4125133h-30.9680774v27.0342276h4.5840581c3.8559027-.1376347 7.5784414 1.4214243 10.1854226 4.2658184 2.6069811 2.8443942 3.8365102 6.6883788 3.3641754 10.5177167 0 9.405385-5.0677191 15.0196416-13.549598 15.0196416h-4.5840581v54.0935595h30.9680774c47.2251428 0 63.6593318-21.930538 64.2396898-54.0937338h-18.639283zm-20.688872 16.6381017h5.372165l-2.456368-8.4295787h-.44618zm-11.587409 13.1890751 8.99198-29.8285715h10.563952l8.989366 29.8285715h-7.729569l-1.68523-5.7704601h-9.712969l-1.689937 5.7704601zm-3.565947-7.4336659v7.4247167h-18.3696465v-29.8073026h17.7768523v7.4223341h-10.350799v3.455477h9.7891525v7.4199516h-9.7891525v4.08523z" fill="#d50a73"/></g></g></svg>