<svg height="32" viewBox="0 0 51 32" width="51" xmlns="http://www.w3.org/2000/svg"><g fill="none" fill-rule="evenodd"><path d="m.5.5h50v31h-50z" fill="#fff" stroke="#d0d0d0"/><g transform="translate(14 4)"><path d="m23.9443359 12.734581v2.6875152h-4.4203218c.0530275-.1153628.1028638-.2327975.149509-.3523044.1160437-.2978392.2122213-.6030414.2879004-.9136006h2.7170075v-1.4216102zm0-4.18829805v2.68727115h-1.2659049v-1.42136621h-2.7177896c-.1061214-.43441809-.2519314-.85816741-.4355912-1.26590494zm-8.5884469 10.38849175v5.0230149h-6.77546147v-1.26591h1.74832237v-3.3065109h1.265905v3.3065109h2.4953292v-3.4637703c.4281336-.0689502.8510789-.1669548 1.2659049-.2933346zm8.5884469-1.9588682v6.9818831h-7.0090194v-3.4909615h1.2659049v2.2250515h4.4772096v-4.4500532h-1.6562242v2.2250017h-1.2661639v-2.2250017h-2.7935801v-.0025852c.3773913-.219003.7316675-.4756101 1.0574213-.7659046.1745684-.156114.3399591-.3221966.495343-.4974301z" fill="#cd2073"/><path d="m0 8.546h3.422v1.266h-3.422z" fill="#cd2073" fill-rule="nonzero"/><path d="m3.422 14.156v1.266h-3.422v-4.214h1.266v2.948z" fill="#cd2073"/><g fill="#000" fill-rule="nonzero"><path d="m5.71 19.385v3.307h-4.444v-4.45h2.156v-1.266h-3.422v6.982h6.976v-4.573z"/><path d="m2.438 19.413h2.107v2.107h-2.107z"/><path d="m2.438 2.438h2.106v2.106h-2.106z" transform="matrix(0 1 -1 0 6.982 0)"/><path d="m0 0v6.982h3.422v-1.266h-2.156v-4.45h4.444v3.306h1.266v-4.572z"/><path d="m16.898 0h1v1.266h-1z"/><path d="m19.4 2.438h2.107v2.106h-2.107z" transform="matrix(0 1 -1 0 23.944 -16.962)"/><path d="m16.9045141 0v5.67536327c.6070588.3428646 1.1527302.78450607 1.6145882 1.30677385h5.3610837v-6.98213712zm5.7095079 5.71623217h-4.4436029v-4.45006821h4.4436029z"/></g><path d="m15.355889 0v5.01628558c-.4149629-.12490084-.8378956-.22160286-1.2659049-.28944449v-3.46067713h-5.50955657v-1.26616396z" fill="#cd2073"/><path d="m10.329 2.442h1.266v2.13h-1.266z" fill="#cd2073" fill-rule="nonzero"/><g transform="translate(4.483 5.48)"><path d="m14.0031159 6.48523002c0 3.75322478-2.2671956 5.69474918-6.43532067 5.69474918h-6.90195338v-11.36056391h6.90195338c3.97774717 0 6.43532067 1.80884123 6.43532067 5.66581473z" fill="#fff"/><path d="m7.56779523.22991685h-7.49170585v12.53980985h7.49170585c4.53025697 0 7.02481407-2.2317609 7.02481407-6.28449668 0-2.33576866-.9125645-6.25531317-7.02481407-6.25531317zm-6.90195338 11.95006235v-11.36056391h6.90195338c3.97774717 0 6.43532067 1.80884123 6.43532067 5.66578983 0 3.75322478-2.2671956 5.69477408-6.43532067 5.69477408z" fill="#000" fill-rule="nonzero"/><path d="m1.616 11.277h2.21v-3.934h-2.21z" fill="#0a0c0b"/><path d="m4.09115905 5.36364884c.00005237.55545379-.33451179 1.05624062-.84767435 1.26882732-.51316256.21258669-1.10385578.09510415-1.49662021-.29766171s-.51024484-.9834595-.29765628-1.49662129.7133766-.84772414 1.26883039-.84766974c.75833948.00003851 1.37308469.61478595 1.37312045 1.37312542z" fill="#0a0c0b"/><path d="m4.9240678 4.72388737v1.28187396h.39346219c.27261875 0 .52440208-.07879405.52440208-.65101349 0-.55919917-.28018984-.63088039-.52440208-.63088039zm6.5635359-.63756485h.6364541v1.91943881h.9431428c-.2586671-3.48287236-2.9985473-4.23535829-5.48818324-4.23535829h-2.65440664v2.31721951h.39291927c.33050594-.01179726.6495807.12183637.87303622.36564158.22345553.24380522.32884374.57328961.2883579.90151857 0 .80617586-.43437593 1.28739786-1.16139412 1.28739786h-.39291927v4.63659084h2.65440664c4.04786944 0 5.45651414-1.8797604 5.50625914-4.63660578h-1.5976528zm-1.77333182 1.426123h.46047122l-.2105458-.72253532h-.03824393zm-.9932065 1.13049215.77074119-2.5567347h.90548153l.7705171 2.5567347h-.6625345l-.1444483-.49461086h-.83254014l-.14485175.49461086zm-.30565258-.63717136v.63640429h-1.57454113v-2.55491166h1.5237302v.63620007h-.88721135v.29618374h.83907022v.63599585h-.83907022v.35016258z" fill="#d50a73"/></g></g></g></svg>