<svg xmlns="http://www.w3.org/2000/svg" width="51" height="32" viewBox="0 0 51 32">
  <g fill="none" fill-rule="evenodd">
    <rect width="50" height="31" x=".5" y=".5" fill="#FFF" stroke="#D0D0D0"/>
    <g transform="translate(14 4)">
      <path fill="#CD2073" d="M23.9443359 12.734581L23.9443359 15.4220962 19.5240141 15.4220962C19.5770416 15.3067334 19.6268779 15.1892987 19.6735231 15.0697918 19.7895668 14.7719526 19.8857444 14.4667504 19.9614235 14.1561912L22.678431 14.1561912 22.678431 12.734581 23.9443359 12.734581zM23.9443359 8.54628295L23.9443359 11.2335541 22.678431 11.2335541 22.678431 9.81218789 19.9606414 9.81218789C19.85452 9.3777698 19.70871 8.95402048 19.5250502 8.54628295L23.9443359 8.54628295zM15.355889 18.9347747L15.355889 23.9577896 8.58042753 23.9577896 8.58042753 22.6918796 10.3287499 22.6918796 10.3287499 19.3853687 11.5946549 19.3853687 11.5946549 22.6918796 14.0899841 22.6918796 14.0899841 19.2281093C14.5181177 19.1591591 14.941063 19.0611545 15.355889 18.9347747L15.355889 18.9347747zM23.9443359 16.9759065L23.9443359 23.9577896 16.9353165 23.9577896 16.9353165 20.4668281 18.2012214 20.4668281 18.2012214 22.6918796 22.678431 22.6918796 22.678431 18.2418264 21.0222068 18.2418264 21.0222068 20.4668281 19.7560429 20.4668281 19.7560429 18.2418264 16.9624628 18.2418264 16.9624628 18.2392412C17.3398541 18.0202382 17.6941303 17.7636311 18.0198841 17.4733366 18.1944525 17.3172226 18.3598432 17.15114 18.5152271 16.9759065L23.9443359 16.9759065z"/>
      <rect width="3.422" height="1.266" y="8.546" fill="#CD2073" fill-rule="nonzero"/>
      <polygon fill="#CD2073" points="3.422 14.156 3.422 15.422 0 15.422 0 11.208 1.266 11.208 1.266 14.156"/>
      <polygon fill="#000" fill-rule="nonzero" points="5.71 19.385 5.71 22.692 1.266 22.692 1.266 18.242 3.422 18.242 3.422 16.976 0 16.976 0 23.958 6.976 23.958 6.976 19.385"/>
      <rect width="2.107" height="2.107" x="2.438" y="19.413" fill="#000" fill-rule="nonzero"/>
      <polygon fill="#000" fill-rule="nonzero" points="2.438 2.438 4.544 2.438 4.544 4.544 2.438 4.544" transform="rotate(90 3.491 3.491)"/>
      <polygon fill="#000" fill-rule="nonzero" points="0 0 0 6.982 3.422 6.982 3.422 5.716 1.266 5.716 1.266 1.266 5.71 1.266 5.71 4.572 6.976 4.572 6.976 0"/>
      <rect width="1" height="1.266" x="16.898" fill="#000" fill-rule="nonzero"/>
      <polygon fill="#000" fill-rule="nonzero" points="19.4 2.438 21.507 2.438 21.507 4.544 19.4 4.544" transform="rotate(90 20.453 3.491)"/>
      <path fill="#000" fill-rule="nonzero" d="M16.9045141,0 L16.9045141,5.67536327 C17.5115729,6.01822787 18.0572443,6.45986934 18.5191023,6.98213712 L23.880186,6.98213712 L23.880186,0 L16.9045141,0 Z M22.614022,5.71623217 L18.1704191,5.71623217 L18.1704191,1.26616396 L22.614022,1.26616396 L22.614022,5.71623217 Z"/>
      <path fill="#CD2073" d="M15.355889,0 L15.355889,5.01628558 C14.9409261,4.89138474 14.5179934,4.79468272 14.0899841,4.72684109 L14.0899841,1.26616396 L8.58042753,1.26616396 L8.58042753,0 L15.355889,0 Z"/>
      <rect width="1.266" height="2.13" x="10.329" y="2.442" fill="#CD2073" fill-rule="nonzero"/>
      <g transform="translate(4.483 5.48)">
        <path fill="#FFF" d="M14.0031159,6.48523002 C14.0031159,10.2384548 11.7359203,12.1799792 7.56779523,12.1799792 L0.665841854,12.1799792 L0.665841854,0.819415289 L7.56779523,0.819415289 C11.5455424,0.819415289 14.0031159,2.62825652 14.0031159,6.48523002 Z"/>
        <path fill="#000" fill-rule="nonzero" d="M7.56779523,0.229916845 L0.0760893808,0.229916845 L0.0760893808,12.7697267 L7.56779523,12.7697267 C12.0980522,12.7697267 14.5926093,10.5379658 14.5926093,6.48523002 C14.5926093,4.14946136 13.6800448,0.229916845 7.56779523,0.229916845 Z M0.665841854,12.1799792 L0.665841854,0.819415289 L7.56779523,0.819415289 C11.5455424,0.819415289 14.0031159,2.62825652 14.0031159,6.48520512 C14.0031159,10.2384299 11.7359203,12.1799792 7.56779523,12.1799792 L0.665841854,12.1799792 Z"/>
        <polygon fill="#0A0C0B" points="1.616 11.277 3.826 11.277 3.826 7.343 1.616 7.343"/>
        <path fill="#0A0C0B" d="M4.09115905,5.36364884 C4.09121142,5.91910263 3.75664726,6.41988946 3.2434847,6.63247616 C2.73032214,6.84506285 2.13962892,6.72758031 1.74686449,6.33481445 C1.35410006,5.94204859 1.23661965,5.35135495 1.44920821,4.83819316 C1.66179677,4.32503137 2.16258481,3.99046902 2.7180386,3.99052342 C3.47637808,3.99056193 4.09112329,4.60530937 4.09115905,5.36364884 L4.09115905,5.36364884 Z"/>
        <path fill="#D50A73" d="M4.9240678,4.72388737 L4.9240678,6.00576133 L5.31752999,6.00576133 C5.59014874,6.00576133 5.84193207,5.92696728 5.84193207,5.35474784 C5.84193207,4.79554867 5.56174223,4.72386745 5.31752999,4.72386745 L4.9240678,4.72388737 Z M11.4876037,4.08632252 L12.1240578,4.08632252 L12.1240578,6.00576133 L13.0672006,6.00576133 C12.8085335,2.52288897 10.0686533,1.77040304 7.57901736,1.77040304 L4.92461072,1.77040304 L4.92461072,4.08762255 L5.31752999,4.08762255 C5.64803593,4.07582529 5.96711069,4.20945892 6.19056621,4.45326413 C6.41402174,4.69706935 6.51940995,5.02655374 6.47892411,5.3547827 C6.47892411,6.16095856 6.04454818,6.64218056 5.31752999,6.64218056 L4.92461072,6.64218056 L4.92461072,11.2787714 L7.57901736,11.2787714 C11.6268868,11.2787714 13.0355315,9.399011 13.0852765,6.64216562 L11.4876237,6.64216562 L11.4876037,4.08632252 Z M9.71427188,5.51244552 L10.1747431,5.51244552 L9.9641973,4.7899102 L9.92595337,4.7899102 L9.71427188,5.51244552 Z M8.72106538,6.64293767 L9.49180657,4.08620297 L10.3972881,4.08620297 L11.1678052,6.64293767 L10.5052707,6.64293767 L10.3608224,6.14832681 L9.52828226,6.14832681 L9.38343051,6.64293767 L8.72106538,6.64293767 Z M8.4154128,6.00576631 L8.4154128,6.6421706 L6.84087167,6.6421706 L6.84087167,4.08725894 L8.36460187,4.08725894 L8.36460187,4.72345901 L7.47739052,4.72345901 L7.47739052,5.01964275 L8.31646074,5.01964275 L8.31646074,5.6556386 L7.47739052,5.6556386 L7.47739052,6.00580118 L8.4154128,6.00576631 Z"/>
      </g>
    </g>
  </g>
</svg>
