<svg xmlns="http://www.w3.org/2000/svg" viewBox="0 0 48.07158 48.09859"><defs><style>.cls-1,.cls-2{fill:#cd2073;}.cls-1,.cls-3,.cls-4,.cls-5,.cls-6{fill-rule:evenodd;}.cls-4{fill:#fff;}.cls-5{fill:#0a0c0b;}.cls-6{fill:#d50a73;}</style></defs><title>Asset 21</title><g id="Layer_2" data-name="Layer 2"><g id="Layer_1-2" data-name="Layer 1"><path class="cls-1" d="M48.07158,25.56644V30.962H39.19717q.15969-.34741.30016-.7073a14.52483,14.52483,0,0,0,.578-1.83418H45.5301V25.56644Z"/><path class="cls-1" d="M48.07158,17.15785v5.39507H45.5301V19.69933H40.07376a14.65764,14.65764,0,0,0-.87451-2.54148Z"/><path class="cls-1" d="M30.82908,38.01419v10.0844H17.2264V45.5571h3.51V38.91882h2.54148V45.5571H28.2876v-6.954A19.19071,19.19071,0,0,0,30.82908,38.01419Z"/><path class="cls-1" d="M48.07158,34.08149v14.0171H34V41.09h2.54148V45.5571H45.5301V36.623H42.205V41.09H39.663V36.623h-5.6085v-.00519a12.99312,12.99312,0,0,0,2.12292-1.53766,12.19059,12.19059,0,0,0,.99447-.99863Z"/><rect class="cls-2" y="17.15785" width="6.87093" height="2.54148"/><polygon class="cls-1" points="6.871 28.421 6.871 30.962 0 30.962 0 22.501 2.541 22.501 2.541 28.421 6.871 28.421"/><path class="cls-3" d="M11.46315,38.91882V45.5571H2.54148V36.623H6.87093V34.08149H0v14.0171H14.00463V38.91882Z"/><rect x="4.89393" y="38.97491" width="4.22974" height="4.22974"/><rect x="4.89394" y="4.89402" width="4.22964" height="4.22962" transform="translate(14.01759 0.00007) rotate(90)"/><path class="cls-3" d="M0,0V14.01761H6.87093V11.47613H2.54148V2.542h8.92167V9.17976h2.54148V0Z"/><rect x="33.92518" width="0.01298" height="2.542"/><rect x="38.94808" y="4.89402" width="4.22964" height="4.22962" transform="translate(48.07174 -34.05407) rotate(90)"/><path class="cls-3" d="M33.93816,0V11.39408a12.59707,12.59707,0,0,1,3.24151,2.62353H47.94279V0ZM45.40079,11.47613H36.47964V2.542h8.92115Z"/><path class="cls-1" d="M30.82908,0V10.07089a19.302,19.302,0,0,0-2.54148-.5811V2.542H17.2264V0Z"/><rect class="cls-2" x="20.73638" y="4.90276" width="2.54148" height="4.277"/><g id="Page-1"><g id="Logo-iDeal"><path class="cls-4" d="M37.1132,24.02c0,7.53512-4.55171,11.433-12.9198,11.433H10.33677V12.64509H24.1934C32.17928,12.64509,37.1132,16.27659,37.1132,24.02Z"/><path class="cls-3" d="M24.1934,11.46159H9.15276V36.637H24.1934c9.09512,0,14.10329-4.48057,14.10329-12.617C38.29669,19.33062,36.46459,11.46159,24.1934,11.46159ZM10.33677,35.453V12.64509H24.1934c7.98588,0,12.9198,3.6315,12.9198,11.37486,0,7.53512-4.55171,11.433-12.9198,11.433Z"/><polygon id="Fill-5" class="cls-5" points="12.245 33.64 16.681 33.64 16.681 25.743 12.245 25.743 12.245 33.64"/><path id="Fill-6" class="cls-5" d="M17.21357,21.76827a2.757,2.757,0,1,1-2.75673-2.75674,2.75687,2.75687,0,0,1,2.75673,2.75674Z"/><path id="Fill-7" class="cls-6" d="M18.88575,20.48386V23.0574h.78993c.54732,0,1.05281-.15819,1.05281-1.307,0-1.12267-.56252-1.26658-1.05281-1.26658Zm13.17721-1.28h1.27777V23.0574h1.89349c-.51931-6.99235-6.02-8.50307-11.01829-8.50307H18.88684v4.65214h.78884a2.26782,2.26782,0,0,1,2.33166,2.544c0,1.61851-.87207,2.58463-2.33166,2.58463h-.78884V33.6437h5.32909c8.12666,0,10.95471-3.77388,11.05458-9.30863H32.063ZM28.50275,22.067h.92446l-.4227-1.45059h-.07678Zm-1.994,2.26962,1.54737-5.133H29.874l1.54692,5.133H30.09079l-.29-.993H28.12935l-.29081.993Zm-.61364-1.27921v1.27767H22.734V19.20574h3.0591V20.483H24.0119v.59463h1.68455v1.27685H24.0119v.703Z"/></g></g></g></g></svg>