<svg xmlns="http://www.w3.org/2000/svg" width="640" height="360" viewBox="0 0 640 360">
  <g fill-rule="evenodd" transform="translate(80 122)">
    <path fill-rule="nonzero" d="M57.8313253,0.434782957 C89.7706843,0.434782957 115.66265,26.3267492 115.66265,58.2661082 C115.66265,90.2054672 89.7706843,116.097433 57.8313253,116.097433 C25.8919662,116.097433 0,90.2054672 0,58.2661082 C0,26.3267492 25.8919662,0.434782957 57.8313253,0.434782957 Z M57.8313253,10.8444215 C31.6410509,10.8444215 10.4096385,32.0758339 10.4096385,58.2661082 C10.4096385,84.4563826 31.6410509,105.687795 57.8313253,105.687795 C84.0215997,105.687795 105.253012,84.4563826 105.253012,58.2661082 C105.253012,32.0758339 84.0215997,10.8444215 57.8313253,10.8444215 Z"/>
    <circle cx="41.639" cy="92.965" r="5.783" fill-rule="nonzero"/>
    <circle cx="74.024" cy="94.122" r="5.783" fill-rule="nonzero"/>
    <path fill-rule="nonzero" d="M38.1686747,79.6399787 C38.1686747,81.5287357 39.6793609,83.0705805 41.5677243,83.1091352 L77.2921219,83.8385215 C79.2080841,83.8776399 80.7929901,82.3561571 80.8321083,80.4401949 C80.8712266,78.5242327 79.3497439,76.9393268 77.4337817,76.9002086 L45.1084338,76.2402208 L45.1084338,41.0364395 C45.1084338,39.1200781 43.5549158,37.56656 41.6385543,37.56656 L30.7296687,37.56656 C28.8133072,37.56656 27.2597891,39.1200781 27.2597891,41.0364395 C27.2597891,42.9528011 28.8133072,44.5063191 30.7296687,44.5063191 L38.1686747,44.5063191 L38.1686747,79.6399787 Z"/>
    <path fill-rule="nonzero" d="M42.7951807 47.8564697C42.7951807 47.2176825 43.3130201 46.6998432 43.9518072 46.6998432L91.373494 46.6998432C92.242869 46.6998432 92.8014663 47.6230326 92.3980702 48.3931525L79.6751786 72.6823091C79.4755407 73.0634361 79.0808502 73.3022528 78.6506024 73.3022528L43.9518072 73.3022528C43.3130201 73.3022528 42.7951807 72.7844135 42.7951807 72.1456264L42.7951807 47.8564697zM130.698795 30.0230734L134.400048 30.0230734 142.613787 61.7118815 142.715191 61.7118815 151.537355 30.0230734 155.847033 30.0230734 164.719899 61.7118815 164.821303 61.7118815 173.085745 30.0230734 176.533487 30.0230734 166.545175 66.2243678 162.894624 66.2243678 153.717546 33.8257303 153.616142 33.8257303 144.489765 66.2243678 140.737809 66.2243678 130.698795 30.0230734zM182.86203 47.7688059L194.72632 47.7688059C197.126231 47.7688059 199.069792 47.1603869 200.557061 45.9435306 202.04433 44.7266742 202.787953 42.8676161 202.787953 40.3663004 202.787953 37.8649846 202.04433 36.0059264 200.557061 34.7890701 199.069792 33.5722138 197.126231 32.9637947 194.72632 32.9637947L182.86203 32.9637947 182.86203 47.7688059zM179.414288 30.0230734L195.486851 30.0230734C197.109327 30.0230734 198.579672 30.2512305 199.897934 30.7075516 201.216194 31.1638728 202.34853 31.8398939 203.294974 32.7356354 204.241417 33.6313768 204.96814 34.7214609 205.475164 36.0059204 205.982187 37.2903798 206.235695 38.7438253 206.235695 40.3663004 206.235695 41.9887754 205.982187 43.4422209 205.475164 44.7266804 204.96814 46.0111398 204.241417 47.1012239 203.294974 47.9969654 202.34853 48.8927068 201.216194 49.568728 199.897934 50.025049 198.579672 50.4813701 197.109327 50.7095273 195.486851 50.7095273L182.86203 50.7095273 182.86203 66.2243678 179.414288 66.2243678 179.414288 30.0230734zM241.810127 51.3179524C241.776326 50.1010961 241.565069 48.9349597 241.176351 47.819508 240.787633 46.7040563 240.238366 45.7153755 239.528534 44.8534355 238.8187 43.9914957 237.956774 43.2985741 236.942727 42.7746498 235.92868 42.2507255 234.779444 41.9887673 233.494984 41.9887673 232.176723 41.9887673 231.010586 42.2507255 229.996539 42.7746498 228.982492 43.2985741 228.120566 43.9914957 227.410733 44.8534355 226.7009 45.7153755 226.134733 46.7125066 225.712213 47.8448591 225.289694 48.9772114 225.010834 50.1348977 224.875628 51.3179524L241.810127 51.3179524zM224.875628 54.0051633C224.875628 55.1544165 225.036184 56.3459038 225.357298 57.5796609 225.678413 58.813418 226.193879 59.9204026 226.903712 60.900648 227.613545 61.8808934 228.509273 62.6921187 229.590922 63.3343485 230.672573 63.9765782 231.973914 64.2976882 233.494984 64.2976882 235.827292 64.2976882 237.652549 63.6892691 238.97081 62.4724129 240.289071 61.2555566 241.2017 59.6331058 241.708723 57.6050119L244.902955 57.6050119C244.226924 60.5795496 242.984735 62.8780215 241.176351 64.5004966 239.367967 66.1229717 236.807538 66.9341971 233.494984 66.9341971 231.433088 66.9341971 229.650082 66.5708357 228.145913 65.8441021 226.641744 65.1173684 225.416455 64.1202373 224.470011 62.8526786 223.523568 61.5851199 222.822196 60.1147739 222.365875 58.4415965 221.909553 56.7684191 221.681396 55.0023138 221.681396 53.1432278 221.681396 51.419348 221.909553 49.7292952 222.365875 48.0730184 222.822196 46.4167418 223.523568 44.9379456 224.470011 43.6365854 225.416455 42.3352251 226.641744 41.2873923 228.145913 40.4930555 229.650082 39.6987188 231.433088 39.3015563 233.494984 39.3015563 235.590681 39.3015563 237.382137 39.7240696 238.869406 40.5691087 240.356674 41.4141478 241.565063 42.5211325 242.494606 43.8900958 243.424149 45.2590591 244.091719 46.8308083 244.497338 48.6053904 244.902957 50.3799726 245.071962 52.1798789 245.004359 54.0051633L224.875628 54.0051633zM275.467099 40.9747254C275.162884 39.5888613 274.664319 38.3466725 273.971386 37.2481217 273.278454 36.1495708 272.433428 35.2284919 271.436282 34.4848576 270.439136 33.7412232 269.340601 33.1750555 268.140646 32.7863375 266.940691 32.3976195 265.681601 32.2032633 264.36334 32.2032633 261.963429 32.2032633 259.901565 32.6595776 258.177685 33.5722199 256.453805 34.4848622 255.04261 35.6932499 253.944059 37.1974196 252.84551 38.7015891 252.034283 40.4000923 251.510359 42.2929799 250.986435 44.1858675 250.724477 46.1294283 250.724477 48.1237205 250.724477 50.0842113 250.986435 52.0193218 251.510359 53.9291103 252.034283 55.8388986 252.84551 57.545852 253.944059 59.0500216 255.04261 60.5541912 256.453805 61.762579 258.177685 62.6752213 259.901565 63.5878635 261.963429 64.0441777 264.36334 64.0441777 266.053418 64.0441777 267.574466 63.7399682 268.926528 63.13154 270.278591 62.523112 271.444727 61.694986 272.424973 60.6471376 273.405218 59.599289 274.199543 58.3740007 274.807971 56.9712358 275.416399 55.5684709 275.805112 54.0558736 275.97412 52.4333984L279.421862 52.4333984C279.185251 54.6643017 278.661334 56.6754646 277.850096 58.4669475 277.038859 60.2584304 275.991026 61.779478 274.706567 63.0301359 273.422108 64.2807938 271.90951 65.2441239 270.168729 65.9201552 268.427949 66.5961865 266.492838 66.9341971 264.36334 66.9341971 261.524009 66.9341971 259.031181 66.4187309 256.884782 65.3877832 254.738382 64.3568355 252.955376 62.9794424 251.535711 61.2555626 250.116045 59.5316829 249.051312 57.5374205 248.341479 55.2727157 247.631646 53.0080108 247.276734 50.6250363 247.276734 48.1237205 247.276734 45.6224048 247.631646 43.2394302 248.341479 40.9747254 249.051312 38.7100206 250.116045 36.707308 251.535711 34.9665274 252.955376 33.2257469 254.738382 31.8399035 256.884782 30.8089558 259.031181 29.7780081 261.524009 29.262542 264.36334 29.262542 266.087219 29.262542 267.768822 29.5160499 269.408199 30.0230734 271.047574 30.5300969 272.534821 31.2821704 273.869982 32.2793165 275.205144 33.2764627 276.320579 34.501751 277.216321 35.9552183 278.112062 37.4086855 278.67823 39.0818379 278.914841 40.9747254L275.467099 40.9747254zM294.217654 41.9887673C292.696584 41.9887673 291.361442 42.3098774 290.212189 42.9521071 289.062936 43.5943368 288.108055 44.4393632 287.34752 45.4872117 286.586985 46.5350602 286.012367 47.7265475 285.623649 49.0617093 285.234932 50.396871 285.040576 51.7573636 285.040576 53.1432278 285.040576 54.5290919 285.234932 55.8895845 285.623649 57.2247462 286.012367 58.5599081 286.586985 59.7513953 287.34752 60.7992438 288.108055 61.8470923 289.062936 62.6921187 290.212189 63.3343485 291.361442 63.9765782 292.696584 64.2976882 294.217654 64.2976882 295.738725 64.2976882 297.073867 63.9765782 298.223119 63.3343485 299.372373 62.6921187 300.327253 61.8470923 301.087787 60.7992438 301.848323 59.7513953 302.422941 58.5599081 302.811659 57.2247462 303.200377 55.8895845 303.394733 54.5290919 303.394733 53.1432278 303.394733 51.7573636 303.200377 50.396871 302.811659 49.0617093 302.422941 47.7265475 301.848323 46.5350602 301.087787 45.4872117 300.327253 44.4393632 299.372373 43.5943368 298.223119 42.9521071 297.073867 42.3098774 295.738725 41.9887673 294.217654 41.9887673zM294.217654 39.3015563C296.211946 39.3015563 297.978052 39.673368 299.516023 40.4170025 301.053994 41.1606368 302.346885 42.1577681 303.394733 43.4084259 304.442582 44.6590838 305.236906 46.1209796 305.777732 47.794157 306.318556 49.4673344 306.588965 51.2503401 306.588965 53.1432278 306.588965 55.0361154 306.318556 56.8191212 305.777732 58.4922986 305.236906 60.165476 304.442582 61.6273718 303.394733 62.8780296 302.346885 64.1286874 301.053994 65.1173684 299.516023 65.8441021 297.978052 66.5708357 296.211946 66.9341971 294.217654 66.9341971 292.223362 66.9341971 290.457257 66.5708357 288.919286 65.8441021 287.381314 65.1173684 286.088424 64.1286874 285.040576 62.8780296 283.992727 61.6273718 283.198402 60.165476 282.657577 58.4922986 282.116752 56.8191212 281.846344 55.0361154 281.846344 53.1432278 281.846344 51.2503401 282.116752 49.4673344 282.657577 47.794157 283.198402 46.1209796 283.992727 44.6590838 285.040576 43.4084259 286.088424 42.1577681 287.381314 41.1606368 288.919286 40.4170025 290.457257 39.673368 292.223362 39.3015563 294.217654 39.3015563zM310.433106 40.0620878L313.373827 40.0620878 313.373827 44.4731698 313.525934 44.4731698C314.370973 42.8506948 315.477957 41.5831552 316.84692 40.6705129 318.215883 39.7578706 319.965089 39.3015563 322.094587 39.3015563 323.818466 39.3015563 325.381766 39.7240696 326.78453 40.5691087 328.187296 41.4141478 329.125275 42.698588 329.598497 44.4224678 330.375933 42.698588 331.525169 41.4141478 333.046239 40.5691087 334.56731 39.7240696 336.18976 39.3015563 337.91364 39.3015563 343.693707 39.3015563 346.583697 42.3605521 346.583697 48.4786352L346.583697 66.2243678 343.389465 66.2243678 343.389465 48.6307415C343.389465 46.4674414 342.933151 44.8196398 342.02051 43.6872874 341.107867 42.554935 339.502317 41.9887673 337.203811 41.9887673 335.817946 41.9887673 334.668711 42.2507255 333.756068 42.7746498 332.843426 43.2985741 332.116703 43.999946 331.575879 44.8787866 331.035053 45.7576273 330.654791 46.7632087 330.435081 47.8955612 330.215371 49.0279135 330.105518 50.2025002 330.105518 51.4193566L330.105518 66.2243678 326.911286 66.2243678 326.911286 48.4786352C326.911286 47.5997946 326.818333 46.7632183 326.632424 45.9688817 326.446515 45.1745449 326.142306 44.4816232 325.719787 43.8900958 325.297267 43.2985684 324.731099 42.8338039 324.021266 42.4957882 323.311434 42.1577726 322.449506 41.9887673 321.435459 41.9887673 320.083397 41.9887673 318.90881 42.233825 317.911664 42.7239477 316.914518 43.2140704 316.103293 43.8900915 315.477963 44.7520314 314.852635 45.6139712 314.387871 46.628003 314.083656 47.794157 313.779442 48.960311 313.627338 50.2363008 313.627338 51.6221649L313.627338 66.2243678 310.433106 66.2243678 310.433106 40.0620878zM351.746092 40.0620878L354.686814 40.0620878 354.686814 44.4731698 354.83892 44.4731698C355.683959 42.8506948 356.790944 41.5831552 358.159907 40.6705129 359.528871 39.7578706 361.278075 39.3015563 363.407574 39.3015563 365.131454 39.3015563 366.694753 39.7240696 368.097518 40.5691087 369.500282 41.4141478 370.438262 42.698588 370.911484 44.4224678 371.688919 42.698588 372.838155 41.4141478 374.359226 40.5691087 375.880296 39.7240696 377.502747 39.3015563 379.226626 39.3015563 385.006695 39.3015563 387.896685 42.3605521 387.896685 48.4786352L387.896685 66.2243678 384.702453 66.2243678 384.702453 48.6307415C384.702453 46.4674414 384.246139 44.8196398 383.333496 43.6872874 382.420854 42.554935 380.815304 41.9887673 378.516797 41.9887673 377.130934 41.9887673 375.981698 42.2507255 375.069055 42.7746498 374.156414 43.2985741 373.42969 43.999946 372.888865 44.8787866 372.348041 45.7576273 371.967778 46.7632087 371.748068 47.8955612 371.528358 49.0279135 371.418505 50.2025002 371.418505 51.4193566L371.418505 66.2243678 368.224273 66.2243678 368.224273 48.4786352C368.224273 47.5997946 368.13132 46.7632183 367.945411 45.9688817 367.759503 45.1745449 367.455293 44.4816232 367.032773 43.8900958 366.610254 43.2985684 366.044086 42.8338039 365.334254 42.4957882 364.62442 42.1577726 363.762494 41.9887673 362.748447 41.9887673 361.396384 41.9887673 360.221798 42.233825 359.224651 42.7239477 358.227505 43.2140704 357.41628 43.8900915 356.790951 44.7520314 356.165622 45.6139712 355.700857 46.628003 355.396643 47.794157 355.092429 48.960311 354.940324 50.2363008 354.940324 51.6221649L354.940324 66.2243678 351.746092 66.2243678 351.746092 40.0620878zM411.869557 51.3179524C411.835755 50.1010961 411.624498 48.9349597 411.23578 47.819508 410.847063 46.7040563 410.297794 45.7153755 409.587962 44.8534355 408.878129 43.9914957 408.016202 43.2985741 407.002155 42.7746498 405.988108 42.2507255 404.838872 41.9887673 403.554413 41.9887673 402.236152 41.9887673 401.070016 42.2507255 400.055969 42.7746498 399.041922 43.2985741 398.179995 43.9914957 397.470162 44.8534355 396.760329 45.7153755 396.194161 46.7125066 395.771642 47.8448591 395.349122 48.9772114 395.070263 50.1348977 394.935057 51.3179524L411.869557 51.3179524zM394.935057 54.0051633C394.935057 55.1544165 395.095612 56.3459038 395.416727 57.5796609 395.737842 58.813418 396.253309 59.9204026 396.963141 60.900648 397.672974 61.8808934 398.568702 62.6921187 399.650352 63.3343485 400.732002 63.9765782 402.033342 64.2976882 403.554413 64.2976882 405.886721 64.2976882 407.711978 63.6892691 409.030239 62.4724129 410.3485 61.2555566 411.261128 59.6331058 411.768152 57.6050119L414.962384 57.6050119C414.286352 60.5795496 413.044163 62.8780215 411.23578 64.5004966 409.427397 66.1229717 406.866966 66.9341971 403.554413 66.9341971 401.492518 66.9341971 399.709512 66.5708357 398.205342 65.8441021 396.701173 65.1173684 395.475884 64.1202373 394.529441 62.8526786 393.582997 61.5851199 392.881625 60.1147739 392.425303 58.4415965 391.968983 56.7684191 391.740825 55.0023138 391.740825 53.1432278 391.740825 51.419348 391.968983 49.7292952 392.425303 48.0730184 392.881625 46.4167418 393.582997 44.9379456 394.529441 43.6365854 395.475884 42.3352251 396.701173 41.2873923 398.205342 40.4930555 399.709512 39.6987188 401.492518 39.3015563 403.554413 39.3015563 405.65011 39.3015563 407.441566 39.7240696 408.928834 40.5691087 410.416104 41.4141478 411.624491 42.5211325 412.554034 43.8900958 413.483577 45.2590591 414.151149 46.8308083 414.556768 48.6053904 414.962386 50.3799726 415.131391 52.1798789 415.063789 54.0051633L394.935057 54.0051633zM418.45161 40.0620878L421.392331 40.0620878 421.392331 46.197041 421.493735 46.197041C422.304973 44.0675425 423.564063 42.4281912 425.271042 41.2789381 426.97802 40.1296848 429.014534 39.6057685 431.380643 39.7071731L431.380643 42.901405C429.927176 42.8338018 428.608935 43.0281579 427.425881 43.4844791 426.242826 43.9408002 425.220343 44.5914705 424.358403 45.4365096 423.496464 46.2815488 422.828893 47.2871302 422.355671 48.4532841 421.882449 49.6194382 421.645842 50.895428 421.645842 52.2812922L421.645842 66.2243678 418.45161 66.2243678 418.45161 40.0620878zM451.043837 48.2758269C450.604417 46.3153361 449.793191 44.777388 448.610136 43.6619363 447.427082 42.5464848 445.77083 41.9887673 443.641331 41.9887673 442.120261 41.9887673 440.78512 42.3098774 439.635866 42.9521071 438.486613 43.5943368 437.531733 44.4393632 436.771198 45.4872117 436.010663 46.5350602 435.436045 47.7265475 435.047327 49.0617093 434.658608 50.396871 434.464252 51.7573636 434.464252 53.1432278 434.464252 54.5290919 434.658608 55.8895845 435.047327 57.2247462 435.436045 58.5599081 436.010663 59.7513953 436.771198 60.7992438 437.531733 61.8470923 438.486613 62.6921187 439.635866 63.3343485 440.78512 63.9765782 442.120261 64.2976882 443.641331 64.2976882 444.621577 64.2976882 445.551105 64.1117824 446.429947 63.7399652 447.308787 63.368148 448.086212 62.8526818 448.762243 62.1935514 449.438274 61.5344209 449.995992 60.7485462 450.435412 59.8359041 450.874832 58.9232618 451.14524 57.9261306 451.246646 56.8444805L454.440878 56.8444805C454.001456 60.0218276 452.83532 62.497755 450.942433 64.2723371 449.049545 66.0469193 446.61587 66.9341971 443.641331 66.9341971 441.647039 66.9341971 439.880934 66.5708357 438.342963 65.8441021 436.804992 65.1173684 435.512102 64.1286874 434.464252 62.8780296 433.416404 61.6273718 432.622079 60.165476 432.081255 58.4922986 431.540429 56.8191212 431.270021 55.0361154 431.270021 53.1432278 431.270021 51.2503401 431.540429 49.4673344 432.081255 47.794157 432.622079 46.1209796 433.416404 44.6590838 434.464252 43.4084259 435.512102 42.1577681 436.804992 41.1606368 438.342963 40.4170025 439.880934 39.673368 441.647039 39.3015563 443.641331 39.3015563 446.446862 39.3015563 448.821385 40.0451797 450.764975 41.5324485 452.708566 43.0197173 453.866252 45.2674876 454.238069 48.2758269L451.043837 48.2758269zM476.791281 51.3179524C476.75748 50.1010961 476.546224 48.9349597 476.157505 47.819508 475.768787 46.7040563 475.21952 45.7153755 474.509687 44.8534355 473.799855 43.9914957 472.937928 43.2985741 471.923881 42.7746498 470.909834 42.2507255 469.760598 41.9887673 468.476138 41.9887673 467.157878 41.9887673 465.991741 42.2507255 464.977694 42.7746498 463.963647 43.2985741 463.10172 43.9914957 462.391888 44.8534355 461.682054 45.7153755 461.115887 46.7125066 460.693367 47.8448591 460.270848 48.9772114 459.991989 50.1348977 459.856782 51.3179524L476.791281 51.3179524zM459.856782 54.0051633C459.856782 55.1544165 460.017338 56.3459038 460.338453 57.5796609 460.659568 58.813418 461.175033 59.9204026 461.884867 60.900648 462.594699 61.8808934 463.490427 62.6921187 464.572077 63.3343485 465.653728 63.9765782 466.955068 64.2976882 468.476138 64.2976882 470.808447 64.2976882 472.633703 63.6892691 473.951965 62.4724129 475.270225 61.2555566 476.182854 59.6331058 476.689877 57.6050119L479.884109 57.6050119C479.208078 60.5795496 477.965889 62.8780215 476.157505 64.5004966 474.349122 66.1229717 471.788692 66.9341971 468.476138 66.9341971 466.414243 66.9341971 464.631237 66.5708357 463.127067 65.8441021 461.622898 65.1173684 460.39761 64.1202373 459.451166 62.8526786 458.504722 61.5851199 457.803351 60.1147739 457.347029 58.4415965 456.890708 56.7684191 456.66255 55.0023138 456.66255 53.1432278 456.66255 51.419348 456.890708 49.7292952 457.347029 48.0730184 457.803351 46.4167418 458.504722 44.9379456 459.451166 43.6365854 460.39761 42.3352251 461.622898 41.2873923 463.127067 40.4930555 464.631237 39.6987188 466.414243 39.3015563 468.476138 39.3015563 470.571836 39.3015563 472.363292 39.7240696 473.85056 40.5691087 475.337829 41.4141478 476.546216 42.5211325 477.47576 43.8900958 478.405303 45.2590591 479.072874 46.8308083 479.478493 48.6053904 479.884111 50.3799726 480.053116 52.1798789 479.985513 54.0051633L459.856782 54.0051633zM132.435388 89.3173124C132.418458 90.2484707 132.562362 91.0272461 132.867104 91.6536617 133.171847 92.2800773 133.590863 92.7795093 134.124162 93.1519727 134.657462 93.524436 135.288101 93.7910819 136.016097 93.9519184 136.744094 94.1127548 137.52287 94.1931718 138.352446 94.1931718 138.826491 94.1931718 139.342853 94.1254522 139.901548 93.9900111 140.460243 93.8545698 140.980838 93.6387136 141.463346 93.342436 141.945856 93.0461583 142.347941 92.6652356 142.669614 92.1996563 142.991286 91.7340772 143.152121 91.1711581 143.152121 90.5108822 143.152121 90.0029776 143.037844 89.5628002 142.809287 89.1903368 142.58073 88.8178735 142.284457 88.5046704 141.920458 88.2507182 141.55646 87.9967658 141.154375 87.7893746 140.714191 87.6285382 140.274007 87.4677017 139.842294 87.336495 139.419041 87.2349141L135.38122 86.2445051C134.856385 86.109064 134.344255 85.9397649 133.844816 85.7366031 133.345376 85.5334413 132.909432 85.2625629 132.536969 84.9239598 132.164505 84.5853569 131.863999 84.1705744 131.635442 83.6795999 131.406885 83.1886255 131.292608 82.5876141 131.292608 81.8765477 131.292608 81.4363637 131.377258 80.9200018 131.54656 80.3274465 131.715861 79.7348912 132.033296 79.1762045 132.498875 78.6513698 132.964455 78.1265351 133.603559 77.6821253 134.416206 77.318127 135.228854 76.9541287 136.270042 76.7721323 137.539803 76.7721323 138.437102 76.7721323 139.292061 76.8906416 140.104708 77.1276638 140.917355 77.3646859 141.628412 77.7202137 142.237897 78.194258 142.847382 78.6683023 143.334117 79.2566162 143.698115 79.9592176 144.062114 80.6618189 144.24411 81.4786865 144.24411 82.4098448L142.517243 82.4098448C142.483383 81.7157086 142.326782 81.1104647 142.047434 80.5940951 141.768087 80.0777255 141.404093 79.6460131 140.955445 79.2989449 140.506796 78.9518768 139.990434 78.6894633 139.406344 78.5116968 138.822254 78.3339302 138.208544 78.2450482 137.565198 78.2450482 136.972643 78.2450482 136.401259 78.3085353 135.85103 78.4355115 135.300799 78.5624876 134.818297 78.7656464 134.403508 79.0449939 133.988719 79.3243414 133.654354 79.6925667 133.400402 80.1496808 133.14645 80.606795 133.019475 81.1739466 133.019475 81.8511526 133.019475 82.2744064 133.091427 82.6426317 133.235333 82.9558395 133.37924 83.2690473 133.578166 83.5356932 133.832118 83.7557852 134.086071 83.9758772 134.378112 84.1536411 134.70825 84.2890823 135.038387 84.4245236 135.389683 84.5345679 135.762146 84.6192187L140.180894 85.711208C140.82424 85.8805096 141.429483 86.0879008 141.996644 86.333388 142.563803 86.5788752 143.063236 86.8836134 143.494954 87.2476117 143.926674 87.6116099 144.265271 88.0560197 144.510759 88.5808544 144.756246 89.1056891 144.878987 89.7405603 144.878987 90.485487 144.878987 90.6886489 144.857826 90.9595272 144.8155 91.2981303 144.773175 91.6367333 144.671595 91.9964936 144.510759 92.3774221 144.349922 92.7583505 144.121369 93.1435057 143.825091 93.5328992 143.528813 93.9222927 143.122495 94.2735881 142.606126 94.5867959 142.089757 94.9000037 141.450653 95.1539522 140.688796 95.348649 139.926939 95.5433457 139.012725 95.6406926 137.946125 95.6406926 136.879526 95.6406926 135.889126 95.5179508 134.974898 95.2724637 134.06067 95.0269765 133.281894 94.6502862 132.638549 94.1423816 131.995203 93.634477 131.500004 92.982676 131.152936 92.1869588 130.805867 91.3912417 130.657731 90.4347024 130.708521 89.3173124L132.435388 89.3173124zM161.009494 87.8190015C160.992565 87.2095159 160.886753 86.6254344 160.692055 86.0667394 160.497359 85.5080444 160.222248 85.0128449 159.866715 84.581126 159.511181 84.1494071 159.079469 83.8023442 158.571565 83.5399269 158.06366 83.2775095 157.488044 83.1463028 156.844698 83.1463028 156.184421 83.1463028 155.600341 83.2775095 155.092436 83.5399269 154.584531 83.8023442 154.152819 84.1494071 153.797285 84.581126 153.441752 85.0128449 153.158177 85.5122768 152.94655 86.079437 152.734923 86.6465971 152.595251 87.2264461 152.527531 87.8190015L161.009494 87.8190015zM152.527531 89.1649418C152.527531 89.740567 152.607947 90.3373459 152.768784 90.9552964 152.929621 91.573247 153.187801 92.1277011 153.543335 92.6186756 153.898868 93.1096499 154.34751 93.5159675 154.889275 93.8376404 155.431039 94.1593133 156.082841 94.3201473 156.844698 94.3201473 158.012878 94.3201473 158.927092 94.0154092 159.587369 93.4059237 160.247644 92.7964383 160.704751 91.9838031 160.958704 90.967994L162.558596 90.967994C162.219992 92.4578474 161.597818 93.6090805 160.692055 94.4217278 159.786292 95.2343751 158.503852 95.6406926 156.844698 95.6406926 155.811958 95.6406926 154.918906 95.4586962 154.165514 95.0946979 153.412123 94.7306997 152.798414 94.2312676 152.32437 93.596387 151.850325 92.9615063 151.49903 92.2250557 151.270473 91.3870131 151.041916 90.5489706 150.927639 89.6643835 150.927639 88.733225 150.927639 87.8697873 151.041916 87.0232924 151.270473 86.1937149 151.49903 85.3641375 151.850325 84.6234545 152.32437 83.9716436 152.798414 83.3198327 153.412123 82.7950059 154.165514 82.3971473 154.918906 81.9992887 155.811958 81.8003624 156.844698 81.8003624 157.894367 81.8003624 158.791652 82.0119861 159.536578 82.43524 160.281505 82.8584937 160.886749 83.4129479 161.352328 84.098619 161.817907 84.7842903 162.152273 85.5715305 162.355435 86.4603634 162.558597 87.3491965 162.643246 88.2507136 162.609386 89.1649418L152.527531 89.1649418zM169.064358 77.1530589L170.66425 77.1530589 170.66425 95.2851611 169.064358 95.2851611 169.064358 77.1530589zM178.033446 77.1530589L179.633338 77.1530589 179.633338 95.2851611 178.033446 95.2851611 178.033446 77.1530589zM198.155601 86.1937149C198.206392 85.4318581 198.367226 84.7715921 198.638109 84.212897 198.908991 83.6542021 199.277216 83.1970947 199.742795 82.8415615 200.208375 82.4860283 200.754364 82.223615 201.38078 82.0543134 202.007195 81.8850119 202.70132 81.8003624 203.463177 81.8003624 204.038803 81.8003624 204.61442 81.8553846 205.190044 81.9654306 205.76567 82.0754765 206.282032 82.2828678 206.739146 82.5876105 207.196259 82.8923533 207.568718 83.3198332 207.85653 83.8700632 208.144343 84.4202931 208.288247 85.1355813 208.288247 86.0159492L208.288247 92.974207C208.288247 93.6175528 208.60145 93.9392208 209.227866 93.9392208 209.414097 93.9392208 209.583397 93.905361 209.735767 93.8376404L209.735767 95.1835808C209.549536 95.2174411 209.38447 95.2428359 209.240563 95.2597661 209.096657 95.2766962 208.914661 95.2851611 208.694568 95.2851611 208.288245 95.2851611 207.962345 95.2301391 207.716857 95.120093 207.471369 95.0100471 207.280909 94.8534455 207.145467 94.6502836 207.010026 94.4471218 206.921144 94.2058708 206.878819 93.9265232 206.836493 93.6471758 206.815331 93.3382051 206.815331 92.9996021L206.764541 92.9996021C206.476728 93.4228559 206.184688 93.7995461 205.88841 94.1296841 205.592132 94.459822 205.261999 94.7349329 204.898001 94.9550249 204.534002 95.1751169 204.119221 95.3444158 203.653641 95.4629269 203.188061 95.5814379 202.633608 95.6406926 201.990262 95.6406926 201.380777 95.6406926 200.809392 95.5687406 200.276092 95.4248343 199.742792 95.280928 199.277221 95.0523743 198.879362 94.7391665 198.481504 94.4259587 198.168301 94.0281061 197.939743 93.5455968 197.711186 93.0630874 197.59691 92.4917034 197.59691 91.8314274 197.59691 90.9171992 197.800069 90.201911 198.206392 89.6855414 198.612716 89.1691718 199.15024 88.7755516 199.818981 88.5046691 200.487722 88.2337867 201.241102 88.0433254 202.079144 87.9332793 202.917187 87.8232334 203.767915 87.7174216 204.631352 87.6158406 204.969956 87.5819803 205.266229 87.5396555 205.520181 87.4888651 205.774133 87.4380746 205.985757 87.3491927 206.155058 87.2222165 206.32436 87.0952403 206.455566 86.921709 206.548682 86.701617 206.641798 86.481525 206.688356 86.1937167 206.688356 85.8381835 206.688356 85.2964186 206.599473 84.8520088 206.421706 84.5049407 206.243941 84.1578726 205.998457 83.8827618 205.685249 83.6795999 205.372041 83.4764381 205.008048 83.3367664 204.593259 83.2605808 204.178471 83.1843951 203.734061 83.1463028 203.260016 83.1463028 202.244208 83.1463028 201.414643 83.3875538 200.771297 83.8700632 200.127951 84.3525725 199.789353 85.1271153 199.755493 86.1937149L198.155601 86.1937149zM206.688356 88.1237426L206.637566 88.1237426C206.535984 88.3099743 206.341291 88.4454135 206.053478 88.5300643 205.765665 88.614715 205.511717 88.6739696 205.291625 88.70783 204.614419 88.826341 203.916061 88.9321529 203.196529 89.0252687 202.476998 89.1183845 201.820964 89.2580562 201.228409 89.4442879 200.635853 89.6305196 200.149119 89.8971654 199.768191 90.2442336 199.387262 90.5913017 199.196801 91.0865012 199.196801 91.7298471 199.196801 92.1361707 199.277217 92.495931 199.438054 92.8091389 199.59889 93.1223467 199.814746 93.393225 200.085629 93.6217821 200.356512 93.8503391 200.669715 94.0238706 201.025248 94.1423816 201.380781 94.2608927 201.744774 94.3201473 202.117238 94.3201473 202.726723 94.3201473 203.310805 94.2270329 203.869499 94.0408012 204.428194 93.8545696 204.914929 93.5836912 205.329718 93.228158 205.744507 92.8726248 206.074639 92.4409124 206.320127 91.9330078 206.565614 91.4251033 206.688356 90.8494867 206.688356 90.2061409L206.688356 88.1237426zM215.733629 82.181289L217.33352 82.181289 217.33352 84.441453 217.384311 84.441453C217.689053 83.6457358 218.23081 83.0066322 219.009597 82.5241228 219.788384 82.0416135 220.643344 81.8003624 221.574502 81.8003624 222.488731 81.8003624 223.254809 81.9188717 223.872759 82.1558938 224.49071 82.392916 224.985909 82.7272815 225.358372 83.1590003 225.730835 83.5907192 225.993249 84.1197786 226.14562 84.7461941 226.297992 85.3726098 226.374176 86.0752006 226.374176 86.8539875L226.374176 95.2851611 224.774285 95.2851611 224.774285 87.1079385C224.774285 86.5492436 224.723495 86.0286491 224.621914 85.5461399 224.520333 85.0636305 224.342569 84.6446155 224.088617 84.2890823 223.834665 83.9335491 223.491835 83.6542058 223.060115 83.451044 222.628396 83.2478822 222.090872 83.1463028 221.447526 83.1463028 220.804181 83.1463028 220.232797 83.2605796 219.733358 83.4891366 219.233918 83.7176937 218.81067 84.0308968 218.463602 84.4287554 218.116534 84.8266139 217.845655 85.3006511 217.650959 85.850881 217.456263 86.401111 217.350451 86.9978899 217.33352 87.6412357L217.33352 95.2851611 215.733629 95.2851611 215.733629 82.181289zM232.194271 82.181289L233.895744 82.181289 238.212911 93.3551335 242.250731 82.181289 243.850624 82.181289 238.162121 97.2659791C237.925099 97.8246741 237.705009 98.2860139 237.501848 98.6500121 237.298686 99.0140104 237.074365 99.3018187 236.828878 99.5134456 236.58339 99.7250725 236.295582 99.8774416 235.965445 99.9705574 235.635307 100.063673 235.216292 100.11023 234.708387 100.11023 234.386714 100.0933 234.136998 100.080603 233.959231 100.072138 233.781464 100.063673 233.624863 100.034045 233.489422 99.983255L233.489422 98.6373146C233.675654 98.6711749 233.85765 98.7008022 234.035417 98.7261975 234.213184 98.7515926 234.39518 98.7642901 234.581411 98.7642901 234.936944 98.7642901 235.228986 98.7135004 235.457542 98.6119195 235.686099 98.5103385 235.885026 98.3706669 236.054327 98.1929002 236.223628 98.0151337 236.367533 97.7992775 236.486044 97.5453253 236.604555 97.2913729 236.731529 97.0120296 236.86697 96.7072869L237.425663 95.234371 232.194271 82.181289zM252.235624 82.181289L254.902109 82.181289 254.902109 83.5272293 252.235624 83.5272293 252.235624 92.3647246C252.235624 92.8895593 252.307576 93.3001093 252.451483 93.596387 252.595389 93.8926647 252.955149 94.0577311 253.530774 94.0915915 253.987889 94.0915915 254.444996 94.0661966 254.902109 94.0154061L254.902109 95.3613465C254.665087 95.3613465 254.428069 95.3698114 254.191047 95.3867416 253.954025 95.4036718 253.717006 95.4121367 253.479984 95.4121367 252.413384 95.4121367 251.668469 95.2047454 251.245215 94.7899567 250.821961 94.375168 250.618802 93.6090901 250.635733 92.4917L250.635733 83.5272293 248.350174 83.5272293 248.350174 82.181289 250.635733 82.181289 250.635733 78.2450482 252.235624 78.2450482 252.235624 82.181289zM261.458663 77.1530589L263.058554 77.1530589 263.058554 84.441453 263.109344 84.441453C263.414087 83.6457358 263.955844 83.0066322 264.734631 82.5241228 265.513418 82.0416135 266.368378 81.8003624 267.299537 81.8003624 268.213765 81.8003624 268.979842 81.9188717 269.597793 82.1558938 270.215743 82.392916 270.710943 82.7272815 271.083406 83.1590003 271.45587 83.5907192 271.718283 84.1197786 271.870655 84.7461941 272.023026 85.3726098 272.09921 86.0752006 272.09921 86.8539875L272.09921 95.2851611 270.499319 95.2851611 270.499319 87.1079385C270.499319 86.5492436 270.44853 86.0286491 270.346948 85.5461399 270.245368 85.0636305 270.067604 84.6446155 269.813651 84.2890823 269.559699 83.9335491 269.216869 83.6542058 268.78515 83.451044 268.353431 83.2478822 267.815906 83.1463028 267.172561 83.1463028 266.529215 83.1463028 265.957831 83.2605796 265.458391 83.4891366 264.958952 83.7176937 264.535705 84.0308968 264.188637 84.4287554 263.841569 84.8266139 263.57069 85.3006511 263.375993 85.850881 263.181296 86.401111 263.075485 86.9978899 263.058554 87.6412357L263.058554 95.2851611 261.458663 95.2851611 261.458663 77.1530589zM279.417617 77.1530589L281.017508 77.1530589 281.017508 79.7179641 279.417617 79.7179641 279.417617 77.1530589zM279.417617 82.181289L281.017508 82.181289 281.017508 95.2851611 279.417617 95.2851611 279.417617 82.181289zM288.335914 82.181289L289.935807 82.181289 289.935807 84.441453 289.986597 84.441453C290.291339 83.6457358 290.833096 83.0066322 291.611883 82.5241228 292.39067 82.0416135 293.24563 81.8003624 294.176788 81.8003624 295.091016 81.8003624 295.857094 81.9188717 296.475045 82.1558938 297.092995 82.392916 297.588195 82.7272815 297.960658 83.1590003 298.333122 83.5907192 298.595535 84.1197786 298.747906 84.7461941 298.900277 85.3726098 298.976463 86.0752006 298.976463 86.8539875L298.976463 95.2851611 297.37657 95.2851611 297.37657 87.1079385C297.37657 86.5492436 297.325781 86.0286491 297.224201 85.5461399 297.122619 85.0636305 296.944855 84.6446155 296.690903 84.2890823 296.436951 83.9335491 296.09412 83.6542058 295.662402 83.451044 295.230682 83.2478822 294.693159 83.1463028 294.049813 83.1463028 293.406466 83.1463028 292.835083 83.2605796 292.335643 83.4891366 291.836204 83.7176937 291.412957 84.0308968 291.065888 84.4287554 290.71882 84.8266139 290.447942 85.3006511 290.253245 85.850881 290.058548 86.401111 289.952736 86.9978899 289.935807 87.6412357L289.935807 95.2851611 288.335914 95.2851611 288.335914 82.181289zM317.341737 94.2185669C317.341737 95.1835856 317.235926 96.0554754 317.024299 96.8342623 316.812672 97.6130494 316.478306 98.2733154 316.021193 98.8150803 315.564078 99.3568451 314.967299 99.7716277 314.230838 100.05944 313.494377 100.347253 312.592859 100.491157 311.52626 100.491157 310.865983 100.491157 310.222648 100.414972 309.596232 100.262601 308.969816 100.11023 308.406897 99.8732111 307.907457 99.5515382 307.408018 99.2298653 306.993236 98.8193153 306.663098 98.3198758 306.332959 97.8204363 306.142498 97.2236574 306.091708 96.5295212L307.691599 96.5295212C307.77625 97.0204955 307.941316 97.4310456 308.186804 97.7611835 308.43229 98.0913215 308.728564 98.3579674 309.075632 98.5611292 309.422701 98.7642911 309.807856 98.9124277 310.231109 99.0055435 310.654363 99.0986594 311.086076 99.1452166 311.52626 99.1452166 313.016113 99.1452166 314.091162 98.7219691 314.751437 97.8754615 315.411714 97.0289539 315.741846 95.8100013 315.741846 94.2185669L315.741846 92.4409099 315.691056 92.4409099C315.318593 93.2535572 314.772603 93.9053583 314.053072 94.3963326 313.33354 94.8873071 312.491278 95.1327906 311.52626 95.1327906 310.476591 95.1327906 309.579306 94.9592591 308.834379 94.612191 308.089453 94.2651229 307.475743 93.7868533 306.993234 93.1773678 306.510724 92.5678823 306.159429 91.8525941 305.939337 91.0314817 305.719245 90.2103694 305.609201 89.3342471 305.609201 88.4030887 305.609201 87.5057907 305.740408 86.6550633 306.002825 85.850881 306.265243 85.0466989 306.646166 84.344108 307.145605 83.7430876 307.645045 83.1420673 308.262985 82.6680301 308.999447 82.320962 309.735909 81.9738939 310.578171 81.8003624 311.52626 81.8003624 312.017234 81.8003624 312.478574 81.868082 312.910293 82.0035233 313.342011 82.1389645 313.735632 82.3294257 314.091165 82.574913 314.446698 82.8204002 314.764133 83.103976 315.043481 83.4256489 315.322828 83.7473217 315.538685 84.0859198 315.691056 84.441453L315.741846 84.441453 315.741846 82.181289 317.341737 82.181289 317.341737 94.2185669zM311.52626 93.7868502C312.220396 93.7868502 312.829872 93.6387136 313.354707 93.342436 313.879541 93.0461583 314.319719 92.6567706 314.675252 92.1742613 315.030786 91.691752 315.297431 91.1372978 315.475198 90.5108822 315.652965 89.8844665 315.741846 89.2411304 315.741846 88.5808544 315.741846 87.9375087 315.665662 87.2941725 315.51329 86.6508267 315.360919 86.0074809 315.115436 85.4233995 314.776832 84.8985648 314.43823 84.3737301 314.002285 83.9504826 313.468985 83.6288097 312.935685 83.3071368 312.288117 83.1463028 311.52626 83.1463028 310.764403 83.1463028 310.112601 83.3029043 309.570837 83.6161122 309.029072 83.92932 308.58043 84.3398699 308.224896 84.8477745 307.869363 85.3556791 307.611183 85.9355281 307.450346 86.587339 307.28951 87.2391499 307.209092 87.9036483 307.209092 88.5808544 307.209092 89.2411304 307.293742 89.8844665 307.463043 90.5108822 307.632344 91.1372978 307.894758 91.691752 308.250291 92.1742613 308.605825 92.6567706 309.054467 93.0461583 309.596232 93.342436 310.137997 93.6387136 310.781333 93.7868502 311.52626 93.7868502zM327.732952 92.5932805L327.732952 95.2851611C327.732952 95.6576246 327.686394 96.0258498 327.593278 96.3898481 327.500162 96.7538464 327.36049 97.0924443 327.174259 97.4056521 326.988027 97.71886 326.755242 97.9939708 326.475894 98.2309929 326.196547 98.4680151 325.870646 98.6373141 325.498182 98.7388949L325.498182 97.6469056C325.701344 97.579185 325.879108 97.4522108 326.03148 97.2659791 326.183851 97.0797474 326.310825 96.8723562 326.412406 96.6437991 326.513987 96.4152421 326.585939 96.1782235 326.628265 95.9327362 326.67059 95.6872491 326.683288 95.4713929 326.666357 95.2851611L325.599763 95.2851611 325.599763 92.5932805 327.732952 92.5932805zM347.169438 86.1937149C347.220229 85.4318581 347.381063 84.7715921 347.651946 84.212897 347.922827 83.6542021 348.291053 83.1970947 348.756632 82.8415615 349.222211 82.4860283 349.768201 82.223615 350.394617 82.0543134 351.021032 81.8850119 351.715158 81.8003624 352.477014 81.8003624 353.05264 81.8003624 353.628257 81.8553846 354.203881 81.9654306 354.779506 82.0754765 355.295869 82.2828678 355.752983 82.5876105 356.210096 82.8923533 356.582554 83.3198332 356.870368 83.8700632 357.15818 84.4202931 357.302084 85.1355813 357.302084 86.0159492L357.302084 92.974207C357.302084 93.6175528 357.615287 93.9392208 358.241703 93.9392208 358.427934 93.9392208 358.597233 93.905361 358.749604 93.8376404L358.749604 95.1835808C358.563373 95.2174411 358.398307 95.2428359 358.254401 95.2597661 358.110494 95.2766962 357.928497 95.2851611 357.708406 95.2851611 357.302082 95.2851611 356.976182 95.2301391 356.730694 95.120093 356.485207 95.0100471 356.294745 94.8534455 356.159304 94.6502836 356.023864 94.4471218 355.934981 94.2058708 355.892656 93.9265232 355.85033 93.6471758 355.829168 93.3382051 355.829168 92.9996021L355.778378 92.9996021C355.490565 93.4228559 355.198525 93.7995461 354.902247 94.1296841 354.605969 94.459822 354.275836 94.7349329 353.911838 94.9550249 353.54784 95.1751169 353.133057 95.3444158 352.667478 95.4629269 352.201899 95.5814379 351.647445 95.6406926 351.004099 95.6406926 350.394614 95.6406926 349.823229 95.5687406 349.289929 95.4248343 348.756629 95.280928 348.291057 95.0523743 347.893199 94.7391665 347.495341 94.4259587 347.182137 94.0281061 346.95358 93.5455968 346.725023 93.0630874 346.610746 92.4917034 346.610746 91.8314274 346.610746 90.9171992 346.813905 90.201911 347.220229 89.6855414 347.626553 89.1691718 348.164077 88.7755516 348.832818 88.5046691 349.501559 88.2337867 350.254939 88.0433254 351.092981 87.9332793 351.931025 87.8232334 352.781752 87.7174216 353.645189 87.6158406 353.983793 87.5819803 354.280065 87.5396555 354.534018 87.4888651 354.78797 87.4380746 354.999594 87.3491927 355.168895 87.2222165 355.338197 87.0952403 355.469403 86.921709 355.56252 86.701617 355.655636 86.481525 355.702193 86.1937167 355.702193 85.8381835 355.702193 85.2964186 355.61331 84.8520088 355.435544 84.5049407 355.257777 84.1578726 355.012294 83.8827618 354.699086 83.6795999 354.385878 83.4764381 354.021886 83.3367664 353.607097 83.2605808 353.192308 83.1843951 352.747898 83.1463028 352.273854 83.1463028 351.258045 83.1463028 350.42848 83.3875538 349.785134 83.8700632 349.141789 84.3525725 348.80319 85.1271153 348.769329 86.1937149L347.169438 86.1937149zM355.702193 88.1237426L355.651402 88.1237426C355.549822 88.3099743 355.355128 88.4454135 355.067315 88.5300643 354.779502 88.614715 354.525554 88.6739696 354.305462 88.70783 353.628256 88.826341 352.929897 88.9321529 352.210366 89.0252687 351.490834 89.1183845 350.834801 89.2580562 350.242246 89.4442879 349.64969 89.6305196 349.162955 89.8971654 348.782027 90.2442336 348.401099 90.5913017 348.210638 91.0865012 348.210638 91.7298471 348.210638 92.1361707 348.291054 92.495931 348.451891 92.8091389 348.612727 93.1223467 348.828583 93.393225 349.099466 93.6217821 349.370349 93.8503391 349.683552 94.0238706 350.039085 94.1423816 350.394618 94.2608927 350.758611 94.3201473 351.131074 94.3201473 351.74056 94.3201473 352.324641 94.2270329 352.883336 94.0408012 353.442031 93.8545696 353.928766 93.5836912 354.343555 93.228158 354.758344 92.8726248 355.088476 92.4409124 355.333964 91.9330078 355.57945 91.4251033 355.702193 90.8494867 355.702193 90.2061409L355.702193 88.1237426zM364.747466 82.181289L366.347357 82.181289 366.347357 84.441453 366.398147 84.441453C366.70289 83.6457358 367.244647 83.0066322 368.023434 82.5241228 368.802221 82.0416135 369.657181 81.8003624 370.588339 81.8003624 371.502568 81.8003624 372.268646 81.9188717 372.886595 82.1558938 373.504546 82.392916 373.999746 82.7272815 374.372209 83.1590003 374.744672 83.5907192 375.007086 84.1197786 375.159457 84.7461941 375.311829 85.3726098 375.388013 86.0752006 375.388013 86.8539875L375.388013 95.2851611 373.788122 95.2851611 373.788122 87.1079385C373.788122 86.5492436 373.737332 86.0286491 373.635751 85.5461399 373.534171 85.0636305 373.356407 84.6446155 373.102455 84.2890823 372.848502 83.9335491 372.505672 83.6542058 372.073952 83.451044 371.642234 83.2478822 371.104709 83.1463028 370.461364 83.1463028 369.818018 83.1463028 369.246633 83.2605796 368.747194 83.4891366 368.247754 83.7176937 367.824507 84.0308968 367.477439 84.4287554 367.130371 84.8266139 366.859493 85.3006511 366.664796 85.850881 366.470099 86.401111 366.364288 86.9978899 366.347357 87.6412357L366.347357 95.2851611 364.747466 95.2851611 364.747466 82.181289zM381.208109 82.181289L382.909581 82.181289 387.226748 93.3551335 391.264569 82.181289 392.864461 82.181289 387.175958 97.2659791C386.938936 97.8246741 386.718847 98.2860139 386.515685 98.6500121 386.312523 99.0140104 386.088202 99.3018187 385.842715 99.5134456 385.597227 99.7250725 385.309419 99.8774416 384.979281 99.9705574 384.649144 100.063673 384.230129 100.11023 383.722224 100.11023 383.400551 100.0933 383.150835 100.080603 382.973068 100.072138 382.795302 100.063673 382.6387 100.034045 382.503259 99.983255L382.503259 98.6373146C382.68949 98.6711749 382.871487 98.7008022 383.049254 98.7261975 383.227021 98.7515926 383.409017 98.7642901 383.595248 98.7642901 383.950781 98.7642901 384.242823 98.7135004 384.47138 98.6119195 384.699936 98.5103385 384.898863 98.3706669 385.068164 98.1929002 385.237466 98.0151337 385.38137 97.7992775 385.499881 97.5453253 385.618392 97.2913729 385.745367 97.0120296 385.880807 96.7072869L386.4395 95.234371 381.208109 82.181289zM397.389406 82.181289L399.090878 82.181289 402.443031 93.4059237 402.493821 93.4059237 405.693604 82.181289 407.496656 82.181289 410.696439 93.4059237 410.747229 93.4059237 414.099382 82.181289 415.800854 82.181289 411.585267 95.2851611 409.833005 95.2851611 406.607828 84.2636873 406.557038 84.2636873 403.357254 95.2851611 401.604992 95.2851611 397.389406 82.181289zM421.77332 77.1530589L423.373211 77.1530589 423.373211 84.441453 423.424002 84.441453C423.728744 83.6457358 424.270502 83.0066322 425.049288 82.5241228 425.828075 82.0416135 426.683035 81.8003624 427.614193 81.8003624 428.528422 81.8003624 429.2945 81.9188717 429.91245 82.1558938 430.530401 82.392916 431.0256 82.7272815 431.398063 83.1590003 431.770527 83.5907192 432.032941 84.1197786 432.185311 84.7461941 432.337683 85.3726098 432.413867 86.0752006 432.413867 86.8539875L432.413867 95.2851611 430.813976 95.2851611 430.813976 87.1079385C430.813976 86.5492436 430.763186 86.0286491 430.661606 85.5461399 430.560025 85.0636305 430.382261 84.6446155 430.128309 84.2890823 429.874357 83.9335491 429.531526 83.6542058 429.099807 83.451044 428.668088 83.2478822 428.130563 83.1463028 427.487218 83.1463028 426.843872 83.1463028 426.272488 83.2605796 425.773049 83.4891366 425.273609 83.7176937 424.850361 84.0308968 424.503293 84.4287554 424.156225 84.8266139 423.885347 85.3006511 423.69065 85.850881 423.495954 86.401111 423.390142 86.9978899 423.373211 87.6412357L423.373211 95.2851611 421.77332 95.2851611 421.77332 77.1530589zM449.128462 87.8190015C449.111531 87.2095159 449.00572 86.6254344 448.811022 86.0667394 448.616326 85.5080444 448.341215 85.0128449 447.985682 84.581126 447.630149 84.1494071 447.198436 83.8023442 446.690531 83.5399269 446.182627 83.2775095 445.607011 83.1463028 444.963665 83.1463028 444.303389 83.1463028 443.719307 83.2775095 443.211403 83.5399269 442.703498 83.8023442 442.271786 84.1494071 441.916253 84.581126 441.560719 85.0128449 441.277144 85.5122768 441.065517 86.079437 440.85389 86.6465971 440.714218 87.2264461 440.646498 87.8190015L449.128462 87.8190015zM440.646498 89.1649418C440.646498 89.740567 440.726914 90.3373459 440.887751 90.9552964 441.048587 91.573247 441.306769 92.1277011 441.662302 92.6186756 442.017835 93.1096499 442.466477 93.5159675 443.008242 93.8376404 443.550007 94.1593133 444.201808 94.3201473 444.963665 94.3201473 446.131846 94.3201473 447.04606 94.0154092 447.706336 93.4059237 448.366612 92.7964383 448.823719 91.9838031 449.077672 90.967994L450.677563 90.967994C450.338959 92.4578474 449.716785 93.6090805 448.811022 94.4217278 447.905259 95.2343751 446.62282 95.6406926 444.963665 95.6406926 443.930926 95.6406926 443.037873 95.4586962 442.284482 95.0946979 441.53109 94.7306997 440.917382 94.2312676 440.443337 93.596387 439.969293 92.9615063 439.617998 92.2250557 439.38944 91.3870131 439.160883 90.5489706 439.046607 89.6643835 439.046607 88.733225 439.046607 87.8697873 439.160883 87.0232924 439.38944 86.1937149 439.617998 85.3641375 439.969293 84.6234545 440.443337 83.9716436 440.917382 83.3198327 441.53109 82.7950059 442.284482 82.3971473 443.037873 81.9992887 443.930926 81.8003624 444.963665 81.8003624 446.013334 81.8003624 446.910619 82.0119861 447.655545 82.43524 448.400472 82.8584937 449.005717 83.4129479 449.471296 84.098619 449.936875 84.7842903 450.27124 85.5715305 450.474402 86.4603634 450.677564 87.3491965 450.762213 88.2507136 450.728353 89.1649418L440.646498 89.1649418zM457.157931 82.181289L458.630847 82.181289 458.630847 85.2540962 458.681637 85.2540962C459.087961 84.1874966 459.7186 83.3663966 460.573571 82.7907714 461.428544 82.2151462 462.448571 81.9527328 463.633682 82.0035233L463.633682 83.6034146C462.905685 83.5695543 462.245419 83.6669012 461.652864 83.8954583 461.060308 84.1240153 460.548179 84.4499159 460.11646 84.8731697 459.684741 85.2964234 459.350376 85.800088 459.113354 86.3841782 458.876331 86.9682685 458.757822 87.6073721 458.757822 88.3015083L458.757822 95.2851611 457.157931 95.2851611 457.157931 82.181289zM478.392853 87.8190015C478.375923 87.2095159 478.27011 86.6254344 478.075414 86.0667394 477.880718 85.5080444 477.605607 85.0128449 477.250073 84.581126 476.89454 84.1494071 476.462828 83.8023442 475.954923 83.5399269 475.447018 83.2775095 474.871402 83.1463028 474.228056 83.1463028 473.56778 83.1463028 472.983699 83.2775095 472.475794 83.5399269 471.96789 83.8023442 471.536177 84.1494071 471.180644 84.581126 470.825111 85.0128449 470.541535 85.5122768 470.329909 86.079437 470.118281 86.6465971 469.978609 87.2264461 469.910889 87.8190015L478.392853 87.8190015zM469.910889 89.1649418C469.910889 89.740567 469.991306 90.3373459 470.152143 90.9552964 470.312979 91.573247 470.57116 92.1277011 470.926693 92.6186756 471.282226 93.1096499 471.730869 93.5159675 472.272633 93.8376404 472.814398 94.1593133 473.466199 94.3201473 474.228056 94.3201473 475.396237 94.3201473 476.310451 94.0154092 476.970727 93.4059237 477.631003 92.7964383 478.08811 91.9838031 478.342062 90.967994L479.941954 90.967994C479.603351 92.4578474 478.981177 93.6090805 478.075414 94.4217278 477.169651 95.2343751 475.887211 95.6406926 474.228056 95.6406926 473.195317 95.6406926 472.302265 95.4586962 471.548873 95.0946979 470.795481 94.7306997 470.181772 94.2312676 469.707728 93.596387 469.233683 92.9615063 468.882388 92.2250557 468.653831 91.3870131 468.425275 90.5489706 468.310997 89.6643835 468.310997 88.733225 468.310997 87.8697873 468.425275 87.0232924 468.653831 86.1937149 468.882388 85.3641375 469.233683 84.6234545 469.707728 83.9716436 470.181772 83.3198327 470.795481 82.7950059 471.548873 82.3971473 472.302265 81.9992887 473.195317 81.8003624 474.228056 81.8003624 475.277726 81.8003624 476.17501 82.0119861 476.919937 82.43524 477.664864 82.8584937 478.270107 83.4129479 478.735686 84.098619 479.201265 84.7842903 479.535631 85.5715305 479.738793 86.4603634 479.941955 87.3491965 480.026605 88.2507136 479.992744 89.1649418L469.910889 89.1649418z"/>
  </g>
</svg>
