<svg xmlns="http://www.w3.org/2000/svg" width="640" height="360" viewBox="0 0 640 360">
  <g fill="none" fill-rule="evenodd" transform="translate(80 128)">
    <path fill="#F89D36" fill-rule="nonzero" d="M149.208654,45.5280136 C148.932476,44.4690628 148.552735,43.4955257 148.069423,42.6073734 C147.58611,41.7192213 146.964718,40.9506394 146.205226,40.3016049 C145.445735,39.6525706 144.556798,39.1487225 143.538389,38.7900457 C142.519981,38.4313687 141.337608,38.252033 139.991237,38.252033 C138.023465,38.252033 136.323265,38.6448638 134.890588,39.4305369 C133.457911,40.21621 132.2928,41.2666052 131.39522,42.5817538 C130.497639,43.8969024 129.833093,45.3913671 129.401565,47.0651926 C128.970035,48.7390181 128.754274,50.4469777 128.754274,52.1891225 C128.754274,53.9312673 128.970035,55.6392269 129.401565,57.3130525 C129.833093,58.986878 130.497639,60.4813426 131.39522,61.7964912 C132.2928,63.1116399 133.457911,64.162035 134.890588,64.9477081 C136.323265,65.7333813 138.023465,66.1262119 139.991237,66.1262119 C141.441175,66.1262119 142.718482,65.8785579 143.823197,65.3832423 C144.927912,64.8879264 145.877262,64.2047426 146.671275,63.3336701 C147.465289,62.4625977 148.086681,61.4463618 148.535472,60.284932 C148.984263,59.1235021 149.277698,57.8766914 149.415788,56.5444629 L155.733343,56.5444629 C155.595254,58.730684 155.120578,60.7289967 154.309303,62.5394611 C153.498029,64.3499254 152.401962,65.9127083 151.021067,67.227857 C149.640174,68.5430056 148.017649,69.5592415 146.153443,70.2765953 C144.289238,70.9939491 142.235189,71.3526207 139.991237,71.3526207 C137.229451,71.3526207 134.75251,70.8487725 132.560343,69.8410612 C130.368174,68.8333499 128.512627,67.4584424 126.993644,65.7162977 C125.474661,63.9741528 124.30955,61.941681 123.498275,59.6188209 C122.687,57.2959611 122.281369,54.8194198 122.281369,52.1891225 C122.281369,49.5929851 122.687,47.1335232 123.498275,44.8106635 C124.30955,42.4878034 125.474661,40.4553316 126.993644,38.7131867 C128.512627,36.9710418 130.368174,35.5875944 132.560343,34.5628034 C134.75251,33.5380124 137.229451,33.0256244 139.991237,33.0256244 C142.062577,33.0256244 144.01306,33.3074377 145.842744,33.8710729 C147.672428,34.434708 149.286322,35.2545285 150.684477,36.3305593 C152.082631,37.4065899 153.213221,38.7131789 154.076279,40.2503656 C154.939338,41.7875524 155.474425,43.5467509 155.68156,45.5280136 L149.208654,45.5280136 Z M166.141774,33.8966925 L172.614679,33.8966925 L172.614679,48.4486537 L189.444234,48.4486537 L189.444234,33.8966925 L195.917138,33.8966925 L195.917138,70.4815526 L189.444234,70.4815526 L189.444234,53.9824979 L172.614679,53.9824979 L172.614679,70.4815526 L166.141774,70.4815526 L166.141774,33.8966925 Z M218.235716,33.8966925 L225.122885,33.8966925 L239.363277,70.4815526 L232.424323,70.4815526 L228.954846,60.7973248 L214.196622,60.7973248 L210.727146,70.4815526 L204.047108,70.4815526 L218.235716,33.8966925 Z M215.957253,55.9295913 L227.245998,55.9295913 L221.705192,40.1991264 L221.549842,40.1991264 L215.957253,55.9295913 Z M247.545029,33.8966925 L265.203116,33.8966925 C269.27675,33.8966925 272.331931,34.7677519 274.368748,36.5098968 C276.405568,38.2520417 277.42396,40.6773443 277.42396,43.7858774 C277.42396,45.5280223 277.165046,46.971248 276.647211,48.1155981 C276.129376,49.2599482 275.525246,50.1822465 274.834797,50.8825203 C274.144351,51.5827944 273.462545,52.0866424 272.78936,52.3940798 C272.116174,52.701517 271.624238,52.9064721 271.313538,53.0089514 L271.313538,53.1114299 C271.865895,53.1797493 272.461396,53.3505453 273.100059,53.623823 C273.738722,53.8971005 274.334223,54.3326302 274.886581,54.930425 C275.438938,55.5282199 275.896352,56.3053415 276.258837,57.2618133 C276.62132,58.218285 276.802562,59.4138566 276.802562,60.8485641 C276.802562,63.0006256 276.966539,64.9562392 277.294502,66.715464 C277.622464,68.4746888 278.131662,69.730039 278.822108,70.4815526 L271.883153,70.4815526 C271.399841,69.6958793 271.115037,68.8248199 271.02873,67.8683482 C270.942425,66.9118766 270.899272,65.9895785 270.899272,65.101426 C270.899272,63.4276005 270.795706,61.9843747 270.588571,60.7717052 C270.381437,59.5590358 270.001698,58.5513397 269.449342,57.7485865 C268.896984,56.9458335 268.146135,56.3565874 267.196769,55.9808307 C266.247406,55.6050739 265.030511,55.4171984 263.546051,55.4171984 L254.017935,55.4171984 L254.017935,70.4815526 L247.545029,70.4815526 L247.545029,33.8966925 Z M254.017935,50.549465 L264.6335,50.549465 C266.70484,50.549465 268.275582,50.0626964 269.345775,49.0891449 C270.415967,48.1155934 270.951055,46.6552879 270.951055,44.7081847 C270.951055,43.5467548 270.778445,42.5988374 270.433223,41.8644035 C270.087999,41.1299699 269.613325,40.5578036 269.009183,40.147887 C268.405042,39.7379707 267.714607,39.4646971 266.937854,39.3280584 C266.161101,39.1914195 265.358469,39.1231011 264.529933,39.1231011 L254.017935,39.1231011 L254.017935,50.549465 Z M288.660923,33.8966925 L295.133829,33.8966925 L295.133829,70.4815526 L288.660923,70.4815526 L288.660923,33.8966925 Z M304.195895,33.8966925 L334.126609,33.8966925 L334.126609,39.4305369 L322.371813,39.4305369 L322.371813,70.4815526 L315.898909,70.4815526 L315.898909,39.4305369 L304.195895,39.4305369 L304.195895,33.8966925 Z M348.211651,33.8966925 L355.098822,33.8966925 L369.339214,70.4815526 L362.400259,70.4815526 L358.930781,60.7973248 L344.172558,60.7973248 L340.70308,70.4815526 L334.023043,70.4815526 L348.211651,33.8966925 Z M345.933188,55.9295913 L357.221935,55.9295913 L351.681127,40.1991264 L351.525778,40.1991264 L345.933188,55.9295913 Z M383.993872,49.2172432 L394.557651,49.2172432 C396.111158,49.2172432 397.405725,48.7817135 398.441395,47.910641 C399.477066,47.0395684 399.994892,45.7842183 399.994892,44.1445525 C399.994892,42.2999283 399.528847,41.0018791 398.596746,40.2503656 C397.664642,39.4988522 396.318291,39.1231011 394.557651,39.1231011 L383.993872,39.1231011 L383.993872,49.2172432 Z M377.520965,33.8966925 L395.489751,33.8966925 C398.803894,33.8966925 401.462073,34.6481947 403.464368,36.1512216 C405.466664,37.6542487 406.467798,39.9258349 406.467798,42.9660486 C406.467798,44.8106726 406.010383,46.3905353 405.095542,47.7056838 C404.180701,49.0208323 402.877501,50.0370682 401.185907,50.7544221 L401.185907,50.8569007 C403.464382,51.3351366 405.190472,52.4026113 406.364231,54.0593569 C407.53799,55.7161027 408.124861,57.7912735 408.124861,60.284932 C408.124861,61.7196395 407.865946,63.0603878 407.348113,64.307217 C406.830279,65.5540461 406.019015,66.6300606 404.914301,67.5352928 C403.809585,68.4405248 402.394192,69.1578679 400.668075,69.6873433 C398.941959,70.2168187 396.887909,70.4815526 394.505867,70.4815526 L377.520965,70.4815526 L377.520965,33.8966925 Z M383.993872,65.2551439 L395.437967,65.2551439 C397.405739,65.2551439 398.933331,64.751296 400.020783,63.7435847 C401.108236,62.7358734 401.651956,61.3097272 401.651956,59.465103 C401.651956,57.6546387 401.108236,56.2626517 400.020783,55.2891001 C398.933331,54.3155487 397.405739,53.82878 395.437967,53.82878 L383.993872,53.82878 L383.993872,65.2551439 Z M418.636858,33.8966925 L425.109764,33.8966925 L425.109764,64.9477081 L443.90708,64.9477081 L443.90708,70.4815526 L418.636858,70.4815526 L418.636858,33.8966925 Z M453.020932,33.8966925 L479.637518,33.8966925 L479.637518,39.4305369 L459.493837,39.4305369 L459.493837,49.012286 L478.135804,49.012286 L478.135804,54.2386946 L459.493837,54.2386946 L459.493837,64.9477081 L480,64.9477081 L480,70.4815526 L453.020932,70.4815526 L453.020932,33.8966925 Z"/>
    <circle cx="51.103" cy="51.277" r="51.103" fill="#F89C35" fill-rule="nonzero"/>
    <path fill="#FFF" fill-rule="nonzero" d="M71.2547123,27.5503392 C69.5379467,27.5503392 68.058971,28.5744599 66.8153612,30.2702775 L25.6482534,44.4501728 C24.8596198,43.3526206 23.8642229,42.7594647 22.775625,42.7594647 C20.1953256,42.7594647 18.2509506,46.0294267 18.2509506,50.3640274 C18.2509506,54.6986282 20.1953256,57.9685902 22.775625,57.9685902 C23.8641018,57.9685902 24.8596198,57.3754344 25.6481322,56.2778821 L33.4538712,58.967402 L31.9413237,61.44138 C31.4423527,62.2575637 31.1786265,63.1929248 31.1786265,64.1434951 C31.1786265,66.3056861 32.4998027,68.2195407 34.5450143,69.0205151 L44.0624287,72.7518602 C44.789009,73.0357242 45.5464948,73.1726063 46.2937998,73.1726063 C48.5406844,73.1726063 50.707336,71.9482718 51.7570295,69.8849399 L53.7582462,65.9584903 L66.8126949,70.4552822 C68.0564258,72.153595 69.5379467,73.1777157 71.2547123,73.1777157 C77.131711,73.1777157 80.3041825,61.4235569 80.3041825,50.3640274 C80.3041825,39.304498 77.131711,27.5503392 71.2547123,27.5503392 Z M47.1289734,67.6187804 C46.9350571,67.9990084 46.3895462,68.209441 45.9835337,68.0421406 L36.4661192,64.3107956 L36.3755847,64.0471311 L38.4363094,60.6808051 L48.8405277,64.2650494 L47.1289734,67.6187804 Z M71.2547123,68.1079676 C70.0937596,68.1079676 67.3763854,62.0724401 67.3763854,50.3640274 C67.3763854,38.6556148 70.0937596,32.6200874 71.2547123,32.6200874 C72.4156654,32.6200874 75.1330394,38.6556148 75.1330394,50.3640274 C75.1330394,62.0724401 72.4156654,68.1079676 71.2547123,68.1079676 Z"/>
  </g>
</svg>
