<svg xmlns="http://www.w3.org/2000/svg" width="640" height="360" viewBox="0 0 640 360">
  <defs>
    <linearGradient id="plugin-give-a" x1="36.63%" x2="66.97%" y1="58.442%" y2="40.743%">
      <stop offset="0%" stop-color="#66BC6B"/>
      <stop offset="100%" stop-color="#368F43"/>
    </linearGradient>
    <linearGradient id="plugin-give-b" x1="40.114%" x2="64.889%" y1="71.647%" y2="10.294%">
      <stop offset="0%" stop-color="#66BC6B"/>
      <stop offset="100%" stop-color="#368F43"/>
    </linearGradient>
    <linearGradient id="plugin-give-c" x1="53.452%" x2="45.588%" y1="80.538%" y2="14.684%">
      <stop offset="0%" stop-color="#66BC6B"/>
      <stop offset="100%" stop-color="#368F43"/>
    </linearGradient>
    <linearGradient id="plugin-give-d" x1="50.061%" x2="50.061%" y1="59.367%" y2="142.762%">
      <stop offset="0%" stop-color="#66BC6B"/>
      <stop offset="100%" stop-color="#368F43"/>
    </linearGradient>
    <linearGradient id="plugin-give-e" x1="50.067%" x2="50.067%" y1="80.536%" y2="4.209%">
      <stop offset="0%" stop-color="#66BC6B"/>
      <stop offset="100%" stop-color="#368F43"/>
    </linearGradient>
    <linearGradient id="plugin-give-f" x1="49.696%" x2="43.711%" y1="37.766%" y2="63.311%">
      <stop offset="0%" stop-color="#66BC6B"/>
      <stop offset="100%" stop-color="#368F43"/>
    </linearGradient>
    <linearGradient id="plugin-give-g" x1="48.108%" x2="42.537%" y1="47.337%" y2="87.275%">
      <stop offset="0%" stop-color="#66BC6B"/>
      <stop offset="100%" stop-color="#368F43"/>
    </linearGradient>
  </defs>
  <g fill="none" fill-rule="evenodd" transform="translate(80 102)">
    <g fill="#66BC6B">
      <path fill-rule="nonzero" d="M458.414201,79.0532544 L456.615384,79.0532544 L456.994082,80.7573964 C459.739645,94.4852071 457.183431,115.029586 446.863905,127.621302 C440.804734,135.005917 432.946745,138.792899 423.573964,138.792899 C408.426035,138.792899 402.934911,120.804734 402.177515,100.449704 C426.982248,94.5798816 443.360948,79.0532544 443.360948,61.0650888 C443.360948,48.1893491 439.47929,26.6035503 413.822485,26.6035503 C389.585799,26.6035503 377.278106,62.8639054 374.816568,88.0473373 C362.319526,87.8579882 353.325443,81.8934912 347.834319,76.6863905 C350.011835,67.9763313 351.147929,59.7396449 351.147929,52.3550295 C351.147929,42.2248521 344.047337,37.5857989 337.514793,37.5857989 C327.952663,37.5857989 318.295859,46.7692307 318.295859,64.3786983 C318.295859,74.9822485 322.366863,83.5976332 330.319527,90.035503 C323.218935,106.60355 311.384616,120.615385 307.313609,125.159763 C304.189348,118.343195 293.869822,94.1065089 290.745563,67.6923076 C294.627218,56.9940829 296.804734,48.3786982 296.804734,44.2130177 C296.804734,37.4911244 292.733727,33.7988167 285.349113,33.7988167 C275.786983,33.7988167 260.828402,39.8579882 260.260355,40.0473373 L259.408285,40.4260355 L259.502959,41.3727812 C259.502959,41.5621303 264.047337,62.8639054 268.591715,86.0591716 C259.881657,100.544379 244.449705,124.213018 236.591716,124.213018 C222.485208,124.213018 245.775148,51.9763313 235.550295,49.7988166 C235.266273,49.704142 234.887575,49.7988166 234.698225,49.9881657 C229.775147,53.0177516 174.674556,83.6923078 101.207101,83.6923078 C101.207101,83.6923078 101.301775,85.112426 101.869822,86.4378698 C102.343195,87.47929 103.384615,88.4260355 103.384615,88.4260355 C124.213018,90.9822484 153.751479,88.1420119 176.189349,85.0177514 C163.313609,112.757397 140.307692,131.218935 119.100592,131.218935 C79.5266271,131.218935 48.8520709,83.1242603 48.8520709,83.1242603 C61.2544379,72.331361 81.6094676,36.9230769 110.769231,36.9230769 C139.928994,36.9230769 152.804734,53.0177516 152.804734,53.0177516 L156.118343,47.8106509 C156.118343,47.8106509 142.485207,0 103.763314,0 C65.0414201,0 24.0473374,63.3372781 0,77.9171599 C0,77.9171599 33.0414201,156.213018 105.183432,156.213018 C165.775148,156.213018 181.017751,98.2721893 183.857988,83.9763314 C198.627219,81.7988167 208.852071,79.7159764 208.852071,79.7159764 C208.852071,79.7159764 205.159763,109.349112 205.159763,121.656805 C205.159763,133.869823 218.698224,147.12426 230.059172,147.12426 C239.715975,147.12426 258.840236,127.431953 272.946746,103.47929 L273.609467,106.319527 C280.994084,133.585799 290.177516,147.31361 301.065089,147.31361 C312.047337,147.31361 330.035503,124.591716 341.491124,96.4733727 C353.230769,101.585799 366.769231,102.816568 374.721895,103.005917 C377.846153,151.763314 418.745561,153.183432 423.479291,153.183432 C453.775148,153.183432 479.337277,131.408284 479.337277,105.656805 C479.337277,79.5266271 458.603551,79.0532544 458.414201,79.0532544 Z M421.491124,58.6035504 C421.491124,58.7928995 421.2071,74.7928994 402.650887,83.0295857 C404.355031,61.6331361 409.656805,42.3195266 413.349113,42.3195266 C417.230769,42.3195266 421.491124,48.5680473 421.491124,58.6035504 Z"/>
      <path d="M210.556213,39.2899407 C210.461539,39.8579882 210.934911,40.4260355 211.502959,40.52071 C225.893492,42.5088757 235.266273,38.1538462 235.266273,14.6745562 C235.266273,-7.19526626 212.733728,10.035503 208.568047,13.3491124 C208.189349,13.6331361 208.094674,14.2011834 208.284024,14.6745562 C212.449704,23.2899408 211.12426,35.5976332 210.556213,39.2899407 Z"/>
    </g>
    <path fill="url(#plugin-give-a)" d="M268.87574,86.0591716 C263.28994,95.4319527 254.863905,108.497042 247.47929,116.733728 C249.088756,120.899408 251.360948,126.106509 253.349112,130.461538 C259.976332,123.076923 266.887573,113.704142 272.852071,103.573965 L268.87574,86.0591716 Z"/>
    <path fill="url(#plugin-give-b)" d="M335.621302,93.4437871 C332.970415,91.8343196 330.508876,89.9408284 330.508876,89.9408284 C325.775147,101.017752 318.863906,110.95858 313.656805,117.680473 C316.118343,121.183432 320.378699,125.822485 323.502958,129.136095 C329.940829,120.331361 336.378698,108.87574 341.491124,96.3786982 C341.39645,96.4733727 338.366865,95.1479291 335.621302,93.4437871 Z"/>
    <path fill="url(#plugin-give-c)" d="M402.272188,100.449704 C402.272188,100.449704 395.266272,102.059172 388.355029,102.627219 C381.443786,103.289941 374.627219,103.005917 374.627219,103.005917 C375.573964,117.017751 379.550295,127.053254 384.946745,134.343195 L410.603551,132.260355 C405.112427,125.254438 402.745562,113.325444 402.272188,100.449704 Z"/>
    <path fill="url(#plugin-give-d)" d="M381.91716,57.5621302 L381.91716,57.5621302 C381.065088,59.8343195 380.307692,62.1065088 379.644971,64.4733729 C379.455622,65.0414201 379.360946,65.5147929 379.171597,66.0828401 C377.846153,70.7218935 376.804735,75.3609467 376.047338,79.9053255 C375.952663,80.4733728 375.857989,81.0414201 375.763313,81.5147928 C375.384615,83.6923078 375.100593,85.8698225 374.911244,87.9526628 C391.289941,87.9526628 402.650887,83.1242603 402.650887,83.1242603 C402.745562,81.5147928 402.934911,79.9053255 403.12426,78.3905326 C403.12426,78.0118344 403.218936,77.5384615 403.218936,77.1597633 C403.313609,75.9289942 403.502959,74.6982249 403.692308,73.4674556 C403.692308,73.1834319 403.786983,72.8047337 403.786983,72.5207101 C404.260355,69.3017751 404.733729,66.2721895 405.301776,63.4319527 L381.91716,57.5621302 Z"/>
    <path fill="url(#plugin-give-e)" d="M150.816568,118.627219 L166.343195,125.159763 C173.822485,114.745562 178.272189,103.668639 180.923077,95.1479291 L183.763314,83.9763314 L176.378698,85.0177514 C169.940829,98.9349113 160.852071,110.579882 150.816568,118.627219 Z"/>
    <path fill="url(#plugin-give-f)" d="M290.934912,67.5976331 C294.816567,56.8994084 296.994083,48.2840236 296.994083,44.1183432 C296.994083,43.739645 296.899407,43.3609468 296.899407,42.9822484 L287.810651,45.8224852 C287.905324,45.8224852 288.189349,52.0710059 290.934912,67.5976331 Z"/>
    <path fill="url(#plugin-give-g)" d="M340.260356,60.0236686 C340.260356,60.0236686 337.798817,67.2189349 348.023668,76.591716 C349.917159,69.0177515 350.95858,61.9171597 351.242603,55.3846154 L340.260356,60.0236686 Z"/>
  </g>
</svg>
