<svg xmlns="http://www.w3.org/2000/svg" width="640" height="360"><g fill="none" fill-rule="evenodd"><path fill="#979898" d="M541.887 180.868c18.113 0 18.113-13.41 18.113-27.166 0-13.907 0-27.174-18.113-27.174s-18.113 13.267-18.113 27.174c0 13.756 0 27.166 18.113 27.166m.003-9.057c-8.03 0-9.06-5.468-9.06-18.106 0-12.649 1.03-18.12 9.06-18.12 8.023 0 9.053 5.471 9.053 18.12 0 12.638-1.03 18.106-9.053 18.106m-51.56-13.434h3.054c9.107 0 8.478 5.493 8.478 11.967 0 3.53-.317 7.213 1.244 10.524h11.611c-1.1-2.257-1.327-12.485-1.327-15.957 0-9.783-7.688-10.377-10.284-10.681v-.152c7.693-1.2 10.511-6.398 10.511-13.329 0-9.259-5.174-14.22-13.245-14.22H478.49v54.339h11.838v-22.491m0-23.5h5.264c3.754 0 6.029 1.963 6.029 7.152 0 3.46-1.34 7.986-6.029 7.986h-5.265v-15.138M426.293 180.868V138.95l10.211 41.918h10.974l10.594-41.918.151 41.918h11.211v-54.34h-17.917l-9.142 36.961-8.77-36.961h-18.511v54.34M388.455 160.473h-10.961l5.26-23.483h.151l5.55 23.483M372.1 180.868l3.115-12.037h15.682l3.04 12.037h12.1l-14.915-54.34h-15.14l-15.227 54.34H372.1M344.895 158.226l6.803-6.802-6.803-6.782-6.782 6.782M298.967 180.868v-39.739h.141l14.9 39.739h15.049v-54.34h-10.662v37.635h-.143l-14.526-37.635h-15.424v54.34M262.756 180.868c4.732 0 16.49-.6 16.49-14.365 0-7.454-2.073-12.654-9.985-13.784 6.073-1.357 9.104-5.872 9.104-12.117 0-11.593-7.031-14.074-15.53-14.074h-19.816v54.34h19.737m-8.582-45.994h6.882c3.773 0 6.432 2.943 6.432 6.928 0 5.277-3.393 6.93-5.842 6.93h-7.472v-13.858m0 22.212h6.507c5.628 0 7.4 2.943 7.4 7.765 0 7.594-5.325 7.673-7.686 7.673h-6.22v-15.438m-37.786 3.387h-10.964l5.248-23.483h.149l5.567 23.483m-16.37 20.395 3.127-12.037h15.673l3.05 12.037h12.094l-14.919-54.34h-15.14l-15.224 54.34h11.339"/><path fill="#F6BF37" d="m121.661 148.182 44.377 47.289-43.493 44.347z"/><path fill="#178C82" d="M122.909 239.736 80 195.681V122h86.038v73.459l-43.129-44.306v88.583"/></g></svg>