<svg xmlns="http://www.w3.org/2000/svg" width="640" height="360"><g fill="none" fill-rule="nonzero"><path fill="#336594" d="M190.383 146.435h16.757l18.757 52.653h.19l18.28-52.653h16.567v67.253h-11.33v-51.9h-.19l-18.852 51.9h-9.807l-18.851-51.9h-.19v51.9h-11.33v-67.253zm119.225 38.618a17.158 17.158 0 00-1.095-4.898c-.603-1.57-1.428-2.935-2.476-4.097-1.047-1.162-2.317-2.104-3.808-2.826-1.492-.722-3.158-1.083-4.999-1.083-1.904 0-3.634.33-5.189.99-1.555.658-2.888 1.569-3.998 2.73-1.111 1.162-2 2.528-2.666 4.098-.667 1.57-1.032 3.265-1.095 5.086h25.326zm-25.326 7.065c0 1.884.27 3.705.809 5.463.54 1.758 1.349 3.296 2.428 4.615 1.079 1.319 2.444 2.37 4.094 3.156 1.65.785 3.618 1.177 5.903 1.177 3.174 0 5.728-.675 7.664-2.025 1.936-1.35 3.38-3.375 4.332-6.075h10.283c-.571 2.637-1.555 4.992-2.951 7.064a20.413 20.413 0 01-5.047 5.227c-1.967 1.413-4.173 2.48-6.617 3.203-2.443.722-4.998 1.083-7.664 1.083-3.872 0-7.3-.628-10.283-1.884-2.983-1.256-5.506-3.014-7.569-5.274-2.063-2.261-3.618-4.961-4.665-8.1-1.048-3.14-1.571-6.594-1.571-10.362 0-3.454.555-6.735 1.666-9.843 1.11-3.108 2.698-5.84 4.76-8.195 2.063-2.354 4.555-4.222 7.474-5.604 2.92-1.381 6.22-2.072 9.902-2.072 3.872 0 7.347.8 10.426 2.402 3.078 1.601 5.633 3.72 7.664 6.358 2.031 2.637 3.507 5.667 4.428 9.09.92 3.421 1.158 6.954.714 10.596h-36.18zm46.579-27.127h10.282v6.781h.286a27.628 27.628 0 012.666-3.296 14.517 14.517 0 013.19-2.544c1.174-.69 2.523-1.24 4.046-1.648 1.523-.408 3.269-.612 5.236-.612 2.984 0 5.76.66 8.331 1.978 2.571 1.319 4.396 3.36 5.475 6.122 1.84-2.511 3.967-4.49 6.379-5.934 2.412-1.444 5.427-2.166 9.045-2.166 5.205 0 9.251 1.256 12.14 3.767 2.887 2.512 4.331 6.72 4.331 12.622v33.627h-10.854v-28.446c0-1.947-.063-3.72-.19-5.322-.127-1.601-.492-2.983-1.095-4.145-.603-1.161-1.507-2.056-2.713-2.684-1.206-.628-2.857-.942-4.951-.942-3.682 0-6.348 1.13-7.998 3.391-1.65 2.26-2.475 5.463-2.475 9.607v28.54h-10.854v-31.271c0-3.391-.62-5.95-1.857-7.677-1.238-1.727-3.507-2.59-6.808-2.59-1.396 0-2.745.283-4.046.848a10.082 10.082 0 00-3.428 2.449c-.983 1.067-1.777 2.386-2.38 3.956-.603 1.57-.904 3.36-.904 5.369v28.917H330.86V164.99zm85.234-18.556h10.854V171.3h.19a14.814 14.814 0 012.761-3.202 17.285 17.285 0 013.57-2.402 18.805 18.805 0 014.095-1.507 17.977 17.977 0 014.237-.518c3.872 0 7.252.675 10.14 2.025 2.888 1.35 5.284 3.202 7.188 5.557 1.904 2.355 3.332 5.102 4.285 8.242.952 3.14 1.428 6.5 1.428 10.079 0 3.265-.429 6.436-1.286 9.513s-2.158 5.793-3.903 8.147c-1.746 2.355-3.952 4.239-6.617 5.652-2.666 1.413-5.808 2.12-9.426 2.12-1.65 0-3.317-.11-4.999-.33a19.027 19.027 0 01-4.808-1.272 16.517 16.517 0 01-4.142-2.449c-1.237-1.005-2.269-2.323-3.094-3.956h-.19v6.688h-10.283v-67.253zm37.894 42.951a23.99 23.99 0 00-.857-6.405c-.571-2.072-1.428-3.909-2.57-5.51a13.223 13.223 0 00-4.285-3.862c-1.714-.973-3.682-1.46-5.903-1.46-4.57 0-8.014 1.57-10.33 4.71-2.317 3.14-3.476 7.315-3.476 12.527 0 2.45.302 4.725.905 6.829s1.507 3.909 2.713 5.416a13.517 13.517 0 004.332 3.58c1.682.878 3.634 1.318 5.856 1.318 2.475 0 4.57-.502 6.284-1.507a13.231 13.231 0 004.236-3.909c1.111-1.601 1.905-3.422 2.38-5.463.477-2.041.715-4.129.715-6.264zm55.91-4.333a17.158 17.158 0 00-1.096-4.898c-.603-1.57-1.428-2.935-2.475-4.097-1.047-1.162-2.317-2.104-3.809-2.826-1.491-.722-3.157-1.083-4.998-1.083-1.904 0-3.634.33-5.189.99-1.555.658-2.888 1.569-3.999 2.73-1.11 1.162-2 2.528-2.666 4.098-.666 1.57-1.031 3.265-1.095 5.086h25.326zm-25.327 7.065c0 1.884.27 3.705.81 5.463s1.348 3.296 2.427 4.615c1.08 1.319 2.444 2.37 4.095 3.156 1.65.785 3.618 1.177 5.903 1.177 3.173 0 5.728-.675 7.664-2.025 1.936-1.35 3.38-3.375 4.332-6.075h10.283c-.572 2.637-1.555 4.992-2.952 7.064a20.413 20.413 0 01-5.046 5.227c-1.968 1.413-4.173 2.48-6.617 3.203-2.444.722-4.999 1.083-7.664 1.083-3.872 0-7.3-.628-10.283-1.884-2.983-1.256-5.506-3.014-7.57-5.274-2.062-2.261-3.617-4.961-4.665-8.1-1.047-3.14-1.57-6.594-1.57-10.362 0-3.454.555-6.735 1.666-9.843 1.11-3.108 2.697-5.84 4.76-8.195 2.063-2.354 4.554-4.222 7.474-5.604 2.92-1.381 6.22-2.072 9.902-2.072 3.872 0 7.347.8 10.425 2.402 3.079 1.601 5.634 3.72 7.665 6.358 2.031 2.637 3.507 5.667 4.427 9.09.92 3.421 1.159 6.954.714 10.596h-36.18zm46.58-27.127h10.187v9.419h.19c.318-1.319.936-2.606 1.857-3.862a17.995 17.995 0 013.332-3.438 16.883 16.883 0 014.332-2.496 13.091 13.091 0 014.856-.942c1.27 0 2.142.031 2.618.094s.968.126 1.476.188v10.361a52.071 52.071 0 00-2.333-.33 19.78 19.78 0 00-2.332-.14c-1.841 0-3.57.36-5.19 1.083-1.618.722-3.03 1.79-4.236 3.202-1.206 1.413-2.158 3.156-2.856 5.228-.699 2.072-1.048 4.458-1.048 7.158v23.172h-10.854V164.99z"/><path fill="#000" d="M91.191 197.883c.327 3.17 1.57 5.39 3.73 6.659 2.16 1.268 4.745 1.902 7.756 1.902 1.047 0 2.241-.079 3.583-.237a16.002 16.002 0 003.78-.904c1.177-.444 2.142-1.094 2.895-1.95.753-.857 1.096-1.982 1.03-3.378-.065-1.395-.588-2.536-1.57-3.424-.982-.888-2.241-1.602-3.78-2.14-1.537-.54-3.288-1-5.251-1.38-1.964-.38-3.96-.793-5.988-1.237a57.619 57.619 0 01-6.038-1.617c-1.93-.634-3.665-1.49-5.203-2.569a11.984 11.984 0 01-3.68-4.138c-.917-1.68-1.375-3.758-1.375-6.231 0-2.664.67-4.9 2.012-6.707 1.342-1.807 3.043-3.266 5.105-4.376 2.061-1.11 4.352-1.887 6.872-2.33 2.52-.445 4.924-.666 7.215-.666 2.618 0 5.12.27 7.51.808 2.388.54 4.548 1.411 6.479 2.616a15.611 15.611 0 014.81 4.71c1.276 1.934 2.078 4.264 2.405 6.991h-11.682c-.523-2.6-1.75-4.344-3.681-5.232-1.93-.888-4.14-1.332-6.626-1.332-.786 0-1.718.064-2.798.19a13.28 13.28 0 00-3.043.714c-.95.349-1.751.856-2.405 1.522-.655.666-.982 1.538-.982 2.616 0 1.332.474 2.41 1.423 3.235.95.824 2.193 1.506 3.73 2.045 1.539.54 3.29.999 5.253 1.38 1.963.38 3.992.792 6.086 1.236 2.029.444 4.025.983 5.988 1.617 1.963.635 3.714 1.49 5.252 2.569a12.615 12.615 0 013.73 4.09c.95 1.65 1.424 3.68 1.424 6.09 0 2.916-.687 5.39-2.062 7.42-1.374 2.029-3.157 3.678-5.35 4.946-2.192 1.269-4.63 2.188-7.313 2.759-2.683.57-5.334.856-7.952.856-3.207 0-6.168-.349-8.884-1.046-2.716-.698-5.072-1.76-7.068-3.187a15.542 15.542 0 01-4.712-5.328c-1.145-2.124-1.75-4.645-1.816-7.562h11.191zm87.387 15.45h-46.731c.065-5.434 1.434-10.18 4.106-14.241 2.672-4.06 6.322-7.59 10.95-10.588a123.716 123.716 0 016.94-4.544 54.877 54.877 0 006.649-4.732c2.02-1.686 3.682-3.513 4.986-5.48 1.303-1.968 1.988-4.233 2.053-6.794 0-1.187-.147-2.451-.44-3.794a9.833 9.833 0 00-1.711-3.748c-.847-1.156-2.02-2.124-3.52-2.905-1.499-.78-3.454-1.171-5.865-1.171-2.216 0-4.058.422-5.524 1.265a9.657 9.657 0 00-3.52 3.467c-.88 1.467-1.531 3.2-1.955 5.2-.424 1.999-.668 4.154-.733 6.465h-11.145c0-3.623.505-6.98 1.515-10.073 1.01-3.092 2.526-5.762 4.546-8.01 2.02-2.25 4.48-4.014 7.381-5.294 2.9-1.281 6.273-1.921 10.119-1.921 4.171 0 7.658.656 10.46 1.967 2.803 1.312 5.068 2.967 6.795 4.966 1.728 2 2.95 4.17 3.667 6.512.716 2.343 1.075 4.576 1.075 6.7 0 2.623-.424 4.997-1.271 7.12a22.684 22.684 0 01-3.422 5.856 33.798 33.798 0 01-4.888 4.92 72.99 72.99 0 01-5.67 4.216 153.434 153.434 0 01-5.866 3.748 87.21 87.21 0 00-5.426 3.56c-1.662 1.187-3.112 2.42-4.35 3.701-1.239 1.28-2.086 2.64-2.543 4.076h33.338v9.557z"/></g></svg>