<svg width="512" height="512" viewBox="0 0 512 512" fill="none" xmlns="http://www.w3.org/2000/svg">
<rect width="512" height="512" fill="white"/>
<mask id="mask0_27_10899" style="mask-type:alpha" maskUnits="userSpaceOnUse" x="21" y="0" width="471" height="512">
<path d="M21 0H491.037V512H21V0Z" fill="white"/>
</mask>
<g mask="url(#mask0_27_10899)">
<path d="M421.538 377.653L208.275 498.412L79.8882 425.336V163.671L257.867 62.3452L421.538 161.288V377.653Z" fill="white"/>
</g>
<mask id="mask1_27_10899" style="mask-type:alpha" maskUnits="userSpaceOnUse" x="21" y="0" width="471" height="512">
<path d="M21 0H491.037V512H21V0Z" fill="white"/>
</mask>
<g mask="url(#mask1_27_10899)">
<path d="M444.903 94.0527L301.618 11.2051C287.633 3.66787 271.96 -0.18948 256.074 -0.00438122C240.197 -0.132734 224.542 3.72213 210.535 11.2051L66.5354 94.0527C53.263 102.631 42.2151 114.235 34.2993 127.913C26.3835 141.591 21.8256 156.951 21 172.733V339.027C21.6491 354.849 26.1326 370.277 34.0647 383.983C41.9967 397.689 53.1398 409.262 66.5354 417.708L101.105 437.615V245.09L101.584 245.329V245.09L229.728 320.668C254.525 335.215 259.292 334.496 285.873 318.645C297.797 311.491 310.072 304.577 322.351 297.783L334.99 290.63L354.418 279.305L360.498 275.608L379.216 264.527L380.885 263.568V216.005C380.405 197.766 378.146 185.842 355.137 172.613L278.844 128.503C257.388 116.348 251.667 117.657 226.754 132.559L224.846 133.628C204.065 146.054 183.081 158.137 161.902 169.871C150.936 176.07 144.018 180.361 139.851 185.367C133.771 192.641 135.914 196.812 142.709 203.012C145.93 205.874 150.221 208.732 155.942 212.069C180.5 226.496 205.413 240.324 230.087 254.866C254.885 269.413 259.651 268.694 286.237 252.842C297.562 246.044 309.362 239.489 321.046 232.931C318.424 223.634 312.344 218.628 298.636 210.76L246.302 180.481C239.508 176.43 238.674 165.105 246.182 160.454L252.857 156.163C260.25 151.512 260.01 151.392 264.661 154.135L324.144 188.824C340.595 198.365 348.463 204.56 351.92 215.291C353.926 223.073 354.808 231.099 354.542 239.13V250.695C344.052 256.774 333.321 262.614 322.711 268.694C313.04 274.161 303.425 279.725 293.866 285.384C260.365 305.407 254.29 306.366 223.177 288.007C193.374 270.363 163.335 253.677 133.651 236.272L133.412 236.152L129.955 234.124C127.024 232.493 124.161 230.743 121.372 228.879C111.955 222.56 106.825 217.079 104.207 208.971C100.63 198.126 101.105 180.836 106.83 171.064C110.766 164.27 117.556 159.025 129 152.346L133.412 149.843L133.651 149.724L137.463 147.58L138.657 146.866V146.506C164.803 131.983 190.713 117.041 216.379 101.685C249.879 81.534 256.673 79.275 284.329 95.011C315.801 113.01 347.393 131.485 378.861 149.604L380.41 150.558C403.659 163.911 409.499 170.709 410.573 192.76V309.463L410.692 309.343V309.823C410.928 339.267 408.07 347.49 387.088 360.368C374.276 368.263 361.279 375.854 348.108 383.134C329.869 393.504 311.27 403.64 293.386 414.366C262.154 433.204 254.765 435.108 228.658 420.446L222.698 416.989C191.705 398.75 160.353 381.23 129.36 363.106L126.972 361.677V452.872L210.184 500.79C222.578 507.948 239.149 512 255.719 512C272.289 512 288.86 507.828 301.259 500.79L445.142 417.943C458.415 409.365 469.463 397.76 477.378 384.082C485.294 370.405 489.852 355.044 490.678 339.262V172.857C490.275 156.935 485.871 141.37 477.871 127.598C469.871 113.825 458.534 102.287 444.903 94.0484" fill="#F15A29"/>
<path d="M339.88 351.426C344.706 348.702 349.476 345.88 354.187 342.963L356.455 341.65L380.649 327.347V300.881L378.981 301.835C370.743 306.757 362.438 311.565 354.067 316.257L322.236 334.261C312.584 339.742 302.927 345.227 293.51 350.831C260.01 370.854 253.935 371.809 222.818 353.454C192.899 335.81 162.856 319 133.056 301.599L129.595 299.571L127.212 298.138V324.485L148.553 337.119C150.576 338.552 152.96 339.986 155.586 341.53L174.66 352.62C193.014 363.106 211.373 373.597 229.612 384.327C254.41 398.874 259.176 398.155 285.762 382.179C296.488 375.745 307.574 369.545 318.663 363.346C318.543 363.705 339.884 351.426 339.884 351.426" fill="#F15A29"/>
</g>
</svg>
