<svg xmlns="http://www.w3.org/2000/svg" xmlns:xlink="http://www.w3.org/1999/xlink" width="640" height="360" viewBox="0 0 640 360">
  <defs>
    <polygon id="plugin-gravity-forms-a" points=".084 .028 109.946 .028 109.946 119.698 .084 119.698"/>
    <polygon id="plugin-gravity-forms-c" points=".084 .028 109.946 .028 109.946 119.698 .084 119.698"/>
  </defs>
  <g fill="none" fill-rule="evenodd" transform="translate(80 120)">
    <g fill="#404040" fill-rule="nonzero" transform="matrix(1 0 0 -1 125.196 84.527)">
      <path d="M27.8625705,19.3180489 L46.7348184,19.3180489 L46.7348184,14.1541859 C43.42846,8.99032276 36.9643436,6.9099175 29.0142235,6.9099175 C16.0116906,6.9099175 8.06157042,12.7424822 8.06157042,24.110411 C8.06157042,35.4783399 15.9002403,41.3109046 28.6055724,41.3109046 C36.1841916,41.3109046 41.459505,39.1190491 45.4717152,34.5867376 L51.8243813,39.1190491 C47.3292199,43.9485612 39.6763004,48.0722218 28.5684224,48.0722218 C10.8478275,48.0722218 0.185750471,39.0075988 0.185750471,24.0732609 C0.185750471,9.13892314 10.8478275,0.0743001881 28.6798727,0.0743001881 C41.0880041,0.0743001881 50.0783268,4.94096252 54.2019872,11.5908294 L54.2019872,25.9307656 L27.8625705,25.9307656 L27.8625705,19.3180489 Z" transform="translate(0 .074)"/>
      <path d="M7.80151976,23.4045593 L7.80151976,38.7846982 L30.3516269,38.7846982 C36.8157432,38.7846982 41.1999162,36.704293 41.1999162,31.0946288 C41.2366045,25.4849645 36.8157432,23.4045593 30.3516269,23.4045593 L7.80151976,23.4045593 Z M49.1867245,31.1689289 C49.1867245,40.5307526 41.4223549,45.5831654 30.9088782,45.5831654 L0.148600376,45.5831654 L0.148600376,0.334350847 L7.87581995,0.334350847 L7.87581995,16.7546925 L26.9338182,16.7546925 L40.9765538,0.334350847 L50.5241279,0.334350847 L35.8498408,17.1261933 C43.7628108,18.537897 49.1867245,23.3302591 49.1867245,31.1689289" transform="translate(64.641 1.226)"/>
      <path d="M17.8320452,17.8320452 L28.9027732,38.7846982 L39.9363511,17.8320452 L17.8320452,17.8320452 Z M24.6676625,45.5831654 L0.148600376,0.334350847 L8.54452164,0.334350847 L14.3027863,11.2564785 L43.3170097,11.2564785 L49.1495745,0.334350847 L57.6197959,0.334350847 L33.2121841,45.5831654 L24.6676625,45.5831654 Z" transform="translate(117.877 1.226)"/>
      <polygon points="27.863 8.173 8.805 45.472 .223 45.472 23.702 .223 31.949 .223 55.428 45.472 46.921 45.472" transform="translate(171.15 1.337)"/>
      <polygon points="233.971 1.56 241.736 1.56 241.736 46.809 233.971 46.809"/>
      <polygon points="0 38.636 20.507 38.636 20.507 .186 28.234 .186 28.234 38.636 48.852 38.636 48.852 45.435 0 45.435" transform="translate(249.797 1.375)"/>
      <polygon points="43.466 45.323 26.339 22.364 9.065 45.323 .074 45.323 22.364 15.714 22.364 .074 30.129 .074 30.129 15.714 52.382 45.323" transform="translate(300.619 1.486)"/>
    </g>
    <g transform="translate(0 .52)">
      <mask id="plugin-gravity-forms-b" fill="#fff">
        <use xlink:href="#plugin-gravity-forms-a"/>
      </mask>
      <polygon fill="#FFF" fill-rule="nonzero" points="93.702 88.297 43.856 116.522 13.848 99.442 13.848 38.283 55.447 14.6 93.702 37.726" mask="url(#plugin-gravity-forms-b)"/>
      <mask id="plugin-gravity-forms-d" fill="#fff">
        <use xlink:href="#plugin-gravity-forms-c"/>
      </mask>
      <g fill="#F15A29" fill-rule="nonzero" mask="url(#plugin-gravity-forms-d)">
        <path d="M99.1631365,22.0114858 L65.672243,2.64695082 C62.4037664,0.885828512 58.7412092,-0.0154290367 55.0287144,0.0278626402 C51.3177598,-0.00217729461 47.6584476,0.898281728 44.3851859,2.64695082 L10.7271165,22.0114858 C4.43418759,26.0784264 0.475323581,32.9183486 0.0835879206,40.4008284 L0.0835879206,79.2692114 C0.391977443,86.7761709 4.37144382,93.6516887 10.7271165,97.658554 L18.8072821,102.311615 L18.8072821,57.3134509 L18.9187327,57.3691762 L18.9187327,57.3134509 L48.8710709,74.9783648 C54.6665001,78.3776069 55.7810057,78.2104311 61.9943745,74.5047 C64.7806385,72.8329415 67.6504904,71.2169084 70.5203424,69.6287378 L73.4737822,67.9569795 L78.0153926,65.3100286 L79.4363873,64.4462869 L83.8108218,61.8550613 L84.2008987,61.6321601 L84.2008987,50.5149667 C84.0894482,46.2519828 83.560058,43.4657187 78.1825685,40.3729657 L60.3504787,30.0637888 C55.3352035,27.2217995 53.9977967,27.5282885 48.1745049,31.0111185 L47.7287026,31.2618823 C42.8717616,34.1659553 37.9672704,36.9897532 33.0172287,39.7321249 C30.4538657,41.1809822 28.8378326,42.1840373 27.8626402,43.3542681 C26.4416456,45.0538892 26.9431731,46.0290816 28.5313436,47.4779389 C29.2836349,48.1466423 30.2866899,48.8153457 31.6240967,49.5954996 C37.3638006,52.966879 43.1870924,56.1989453 48.9546589,59.5981874 C54.750088,62.9974296 55.8645936,62.8302537 62.0779624,59.1245225 C64.7249132,57.536352 67.4833146,56.0039068 70.2138534,54.4714616 C69.6008752,52.2981757 68.1798806,51.1279448 64.975677,49.2890105 L52.743978,42.2118999 C51.1558075,41.2645701 50.9607689,38.6176193 52.7161153,37.5309763 L54.2764231,36.5279213 C56.0039068,35.4412783 55.9481815,35.4134157 57.0348245,36.0542565 L70.938282,44.1622847 C74.7833263,46.3912959 76.6222606,47.8401532 77.4302772,50.3477909 C77.8988497,52.1666464 78.1052596,54.0430999 78.0432552,55.9203189 L78.0432552,58.6229951 C75.5913429,60.0439897 73.0837053,61.4092591 70.6039303,62.8302537 C68.3470564,64.1119351 66.0623199,65.4214792 63.8611713,66.7310233 C56.0317695,71.4119469 54.6107748,71.634848 47.3386257,67.3440014 C40.3729657,63.2203306 33.3515803,59.3195611 26.4137829,55.2516155 L26.3580577,55.2237529 L25.5500411,54.750088 C24.8650283,54.368743 24.1957742,53.9597543 23.543931,53.5241319 C21.3427824,52.047412 20.1446888,50.7657304 19.5317108,48.8710709 C18.6958315,46.3355706 18.8072821,42.2954878 20.1446888,40.0107513 C21.064156,38.4225808 22.6523265,37.1966247 25.3271399,35.6363168 L26.3580577,35.0512014 L26.4137829,35.0233388 L27.3053875,34.5218113 L27.5840138,34.3546354 L27.5840138,34.2710475 C33.7416573,30.8439427 39.7042624,27.4168379 45.7504552,23.7946947 C53.5798571,19.0859086 55.1680276,18.5565184 61.6321601,22.2343868 C68.9878971,26.4416456 76.3714968,30.7603548 83.7272338,34.9954761 L84.0894482,35.2183773 C89.522663,38.3389929 90.8879323,39.9271634 91.1386961,45.0817519 L91.1386961,72.3592767 L91.1665588,72.331414 L91.1665588,72.4428646 C91.2222841,79.3249367 90.5535807,81.2474588 85.649756,84.256624 C82.6551455,86.1021887 79.6172668,87.8766071 76.5386727,89.5783883 C72.2756887,92.002438 67.9291169,94.3707624 63.7497209,96.8784 C56.449709,101.280697 54.7222254,101.726499 48.6203071,98.2993947 L47.2271751,97.4913781 C39.9828887,93.2283941 32.6550143,89.1325861 25.4107279,84.8974647 L24.8534751,84.5631131 L24.8534751,105.878032 L44.3015979,117.078814 C47.1993125,118.750572 51.0722195,119.697902 54.9451265,119.697902 C58.8180335,119.697902 62.6909405,118.72271 65.5886551,117.078814 L99.2188618,97.7142792 C105.51179,93.6473385 109.470654,86.8074165 109.862391,79.3249367 L109.862391,40.428691 C109.670077,32.8667465 105.636934,25.9242775 99.1631365,22.0114858"/>
        <path d="M74.6161505,82.166926 C75.7585187,81.5260853 76.8730243,80.8573819 77.9596673,80.1886785 L78.4890575,79.8821895 L84.1451734,76.5386727 L84.1451734,70.3531665 L83.7550965,70.5760676 C81.8296728,71.7267182 79.8883889,72.8506193 77.9318047,73.9474471 L70.4924797,78.1547058 C68.2356058,79.4363873 65.978732,80.7180687 63.7775834,82.0276127 C55.9481815,86.7085363 54.5271869,86.9314375 47.2550378,82.6405909 C40.2615151,78.5169201 33.2401297,74.5882879 26.2744697,70.5203424 L25.4664532,70.0466775 L24.9092004,69.7123258 L24.9092004,75.8699693 L29.896613,78.8234092 C30.3702778,79.1577608 30.9275307,79.4921125 31.5405088,79.8543268 L35.9985312,82.4455524 C40.2893778,84.8974647 44.5802244,87.3493771 48.8432083,89.8570147 C54.6386375,93.2562568 55.753143,93.0890809 61.9665118,89.3554871 C64.4741494,87.8509045 67.065375,86.4020473 69.6566005,84.95319 C69.6287378,85.0367779 74.6161505,82.166926 74.6161505,82.166926"/>
      </g>
    </g>
  </g>
</svg>
