<svg height="512" viewBox="0 0 512 512" width="512" xmlns="http://www.w3.org/2000/svg"><path d="m254.28125.00195313a84.330555 84.330555 0 0 0 -37.375 9.00390627l-160.867188 92.8906206a81.269115 81.269115 0 0 0 -37.019531 64.00782l1.310547 183.42578a81.470522 81.470522 0 0 0 37.84375 63.58398l162.115232 90.53516a84.088856 84.088856 0 0 0 74.86524-.48438l160.88672-92.70898a81.490668 81.490668 0 0 0 36.93945-64.08789v-.01953l-1.25-183.48633c-1.67173-25.90135-15.77067-49.46565-37.92578-63.503907l-162.03516-90.6347655a84.330555 84.330555 0 0 0 -37.48828-8.52148437zm-43.2168 154.14062687h212.38867v59.375h-212.89062a39.677857 39.677857 0 0 0 -30.75586 11.92383c-16.99902 17.92552-25.98186 52.56904-27.29102 71.96484h209.40626v-52.00391h59.8789v111.54102h-333.173827s1.249859-123.22346 47.574217-172.22656a99.093936 99.093936 0 0 1 74.86328-30.57422z" fill="#fff" stroke-width="20.1411"/></svg>