<?xml version="1.0" encoding="UTF-8" standalone="no"?>
<svg
   width="512"
   height="512"
   viewBox="0 0 512 512"
   version="1.1"
   id="svg19"
   sodipodi:docname="gravityforms.svg"
   inkscape:version="1.2 (dc2aeda, 2022-05-15)"
   xmlns:inkscape="http://www.inkscape.org/namespaces/inkscape"
   xmlns:sodipodi="http://sodipodi.sourceforge.net/DTD/sodipodi-0.dtd"
   xmlns="http://www.w3.org/2000/svg"
   xmlns:svg="http://www.w3.org/2000/svg">
  <defs
     id="defs23" />
  <sodipodi:namedview
     id="namedview21"
     pagecolor="#ffffff"
     bordercolor="#666666"
     borderopacity="1.0"
     inkscape:showpageshadow="2"
     inkscape:pageopacity="0.0"
     inkscape:pagecheckerboard="true"
     inkscape:deskcolor="#d1d1d1"
     showgrid="false"
     inkscape:zoom="1"
     inkscape:cx="220.5"
     inkscape:cy="152.5"
     inkscape:window-width="1610"
     inkscape:window-height="1033"
     inkscape:window-x="2734"
     inkscape:window-y="252"
     inkscape:window-maximized="0"
     inkscape:current-layer="svg19" />
  <path
     id="path11"
     style="stroke-width:20.1411;fill:#ffffff"
     d="M 254.28125 0.001953125 A 84.330555 84.330555 0 0 0 216.90625 9.0058594 L 56.039062 101.89648 A 81.269115 81.269115 0 0 0 19.019531 165.9043 L 20.330078 349.33008 A 81.470522 81.470522 0 0 0 58.173828 412.91406 L 220.28906 503.44922 A 84.088856 84.088856 0 0 0 295.1543 502.96484 L 456.04102 410.25586 A 81.490668 81.490668 0 0 0 492.98047 346.16797 L 492.98047 346.14844 L 491.73047 162.66211 C 490.05874 136.76076 475.9598 113.19646 453.80469 99.158203 L 291.76953 8.5234375 A 84.330555 84.330555 0 0 0 254.28125 0.001953125 z M 211.06445 154.14258 L 423.45312 154.14258 L 423.45312 213.51758 L 210.5625 213.51758 A 39.677857 39.677857 0 0 0 179.80664 225.44141 C 162.80762 243.36693 153.82478 278.01045 152.51562 297.40625 L 361.92188 297.40625 L 361.92188 245.40234 L 421.80078 245.40234 L 421.80078 356.94336 L 88.626953 356.94336 C 88.626953 356.94336 89.876812 233.7199 136.20117 184.7168 A 99.093936 99.093936 0 0 1 211.06445 154.14258 z " />
</svg>
