<svg height="512" viewBox="0 0 512 512" width="512" xmlns="http://www.w3.org/2000/svg"><g stroke-width="2.55935" transform="matrix(7.8696015 0 0 7.8696015 -484.634 -1160.5283)"><path d="m124.22656 191.4577a10.35512 10.35512 0 0 1 -4.69384 8.14384l-20.44407 11.78067a10.685275 10.685275 0 0 1 -9.513094.0614l-20.600188-11.50424a10.35256 10.35256 0 0 1 -4.809013-8.07986l-.166358-23.30797a10.326967 10.326967 0 0 1 4.704081-8.13361l20.441507-11.80371a10.715988 10.715988 0 0 1 9.513095-.0614l20.58995 11.51706c2.81528 1.78386 4.60682 4.7783 4.81925 8.06962l.15868 23.31566z" fill="#f15a2b"/><path d="m88.339391 174.60183h27.052299v-7.54495h-26.988315a12.591989 12.591989 0 0 0 -9.513095 3.88509c-5.886499 6.22689-6.045178 21.88498-6.045178 21.88498h42.336728v-14.17367h-7.60894v6.60823h-26.609538c.166357-2.46465 1.307826-6.86672 3.467915-9.14454a5.0419144 5.0419144 0 0 1 3.908124-1.51514z" fill="#fff"/></g></svg>