<svg fill="none" height="512" viewBox="0 0 512 512" width="512" xmlns="http://www.w3.org/2000/svg" xmlns:xlink="http://www.w3.org/1999/xlink"><mask id="a" height="512" maskUnits="userSpaceOnUse" width="471" x="21" y="0"><path d="m21 0h470.037v512h-470.037z" fill="#fff"/></mask><mask id="b" height="512" maskUnits="userSpaceOnUse" width="471" x="21" y="0"><path d="m21 0h470.037v512h-470.037z" fill="#fff"/></mask><path d="m0 0h512v512h-512z" fill="#fff"/><g mask="url(#a)"><path d="m421.538 377.653-213.263 120.759-128.3868-73.076v-261.665l177.9788-101.3258 163.671 98.9428z" fill="#fff"/></g><g fill="#f15a29" mask="url(#b)"><path d="m444.903 94.0527-143.285-82.8476c-13.985-7.53723-29.658-11.39458-45.544-11.20948122-15.877-.12835278-31.532 3.72651122-45.539 11.20948122l-143.9996 82.8476c-13.2724 8.5783-24.3203 20.1823-32.2361 33.8603s-12.4737 29.038-13.2993 44.82v166.294c.6491 15.822 5.1326 31.25 13.0647 44.956 7.932 13.706 19.0751 25.279 32.4707 33.725l34.5696 19.907v-192.525l.479.239v-.239l128.144 75.578c24.797 14.547 29.564 13.828 56.145-2.023 11.924-7.154 24.199-14.068 36.478-20.862l12.639-7.153 19.428-11.325 6.08-3.697 18.718-11.081 1.669-.959v-47.563c-.48-18.239-2.739-30.163-25.748-43.392l-76.293-44.11c-21.456-12.155-27.177-10.846-52.09 4.056l-1.908 1.069c-20.781 12.426-41.765 24.509-62.944 36.243-10.966 6.199-17.884 10.49-22.051 15.496-6.08 7.274-3.937 11.445 2.858 17.645 3.221 2.862 7.512 5.72 13.233 9.057 24.558 14.427 49.471 28.255 74.145 42.797 24.798 14.547 29.564 13.828 56.15-2.024 11.325-6.798 23.125-13.353 34.809-19.911-2.622-9.297-8.702-14.303-22.41-22.171l-52.334-30.279c-6.794-4.051-7.628-15.376-.12-20.027l6.675-4.291c7.393-4.651 7.153-4.771 11.804-2.028l59.483 34.689c16.451 9.541 24.319 15.736 27.776 26.467 2.006 7.782 2.888 15.808 2.622 23.839v11.565c-10.49 6.079-21.221 11.919-31.831 17.999-9.671 5.467-19.286 11.031-28.845 16.69-33.501 20.023-39.576 20.982-70.689 2.623-29.803-17.644-59.842-34.33-89.526-51.735l-.239-.12-3.457-2.028c-2.931-1.631-5.794-3.381-8.583-5.245-9.417-6.319-14.547-11.8-17.165-19.908-3.577-10.845-3.102-28.135 2.623-37.907 3.936-6.794 10.726-12.039 22.17-18.718l4.412-2.503.239-.119 3.812-2.144 1.194-.714v-.36c26.146-14.523 52.056-29.465 77.722-44.821 33.5-20.151 40.294-22.41 67.95-6.674 31.472 17.999 63.064 36.474 94.532 54.593l1.549.954c23.249 13.353 29.089 20.151 30.163 42.202v116.703l.119-.12v.48c.236 29.444-2.622 37.667-23.604 50.545-12.812 7.895-25.809 15.486-38.98 22.766-18.239 10.37-36.838 20.506-54.722 31.232-31.232 18.838-38.621 20.742-64.728 6.08l-5.96-3.457c-30.993-18.239-62.345-35.759-93.338-53.883l-2.388-1.429v91.195l83.212 47.918c12.394 7.158 28.965 11.21 45.535 11.21s33.141-4.172 45.54-11.21l143.883-82.847c13.273-8.578 24.321-20.183 32.236-33.861 7.916-13.677 12.474-29.038 13.3-44.82v-166.405c-.403-15.922-4.807-31.487-12.807-45.259-8-13.773-19.337-25.311-32.968-33.5496"/><path d="m339.88 351.426c4.826-2.724 9.596-5.546 14.307-8.463l2.268-1.313 24.194-14.303v-26.466l-1.668.954c-8.238 4.922-16.543 9.73-24.914 14.422l-31.831 18.004c-9.652 5.481-19.309 10.966-28.726 16.57-33.5 20.023-39.575 20.978-70.692 2.623-29.919-17.644-59.962-34.454-89.762-51.855l-3.461-2.028-2.383-1.433v26.347l21.341 12.634c2.023 1.433 4.407 2.867 7.033 4.411l19.074 11.09c18.354 10.486 36.713 20.977 54.952 31.707 24.798 14.547 29.564 13.828 56.15-2.148 10.726-6.434 21.812-12.634 32.901-18.833-.12.359 21.221-11.92 21.221-11.92"/></g></svg>