<?xml version="1.0" encoding="UTF-8" standalone="no"?>
<svg
   width="640"
   height="360"
   viewBox="0 0 640 360"
   version="1.1"
   id="svg19"
   sodipodi:docname="gravityforms.svg"
   inkscape:version="1.2 (dc2aeda, 2022-05-15)"
   xmlns:inkscape="http://www.inkscape.org/namespaces/inkscape"
   xmlns:sodipodi="http://sodipodi.sourceforge.net/DTD/sodipodi-0.dtd"
   xmlns="http://www.w3.org/2000/svg"
   xmlns:svg="http://www.w3.org/2000/svg">
  <defs
     id="defs23" />
  <sodipodi:namedview
     id="namedview21"
     pagecolor="#ffffff"
     bordercolor="#666666"
     borderopacity="1.0"
     inkscape:showpageshadow="2"
     inkscape:pageopacity="0.0"
     inkscape:pagecheckerboard="true"
     inkscape:deskcolor="#d1d1d1"
     showgrid="false"
     inkscape:zoom="1"
     inkscape:cx="218.5"
     inkscape:cy="152.5"
     inkscape:window-width="1610"
     inkscape:window-height="1033"
     inkscape:window-x="2734"
     inkscape:window-y="252"
     inkscape:window-maximized="0"
     inkscape:current-layer="svg19" />
  <g
     fill="none"
     id="g17"
     transform="matrix(2.5593474,0,0,2.5593474,62.45927,145.90643)">
    <path
       d="m 39.146,6.053 c 2.866,0 5.732,1.34 6.55,4.611 h -3.029 c -0.72,-1.36 -1.875,-1.905 -3.52,-1.905 -2.699,0 -4.222,1.986 -4.222,4.495 0,2.67 1.638,4.475 4.221,4.475 1.978,0 3.419,-0.58 4.037,-2.686 h -3.934 v -2.53 h 6.755 a 9.471,9.471 0 0 1 -0.43,3.931 c -1.093,2.82 -3.685,4.028 -6.428,4.028 -3.811,0 -7.369,-2.55 -7.369,-7.206 0,-4.656 3.578,-7.213 7.37,-7.213 z M 61.43,19.836 v 0.423 H 58.134 L 55.17,15.623 h -2.575 v 4.636 h -3.09 V 6.209 c 2.046,0 4.093,-0.02 6.14,0 3.296,0 5.085,2.329 5.085,4.834 a 4.463,4.463 0 0 1 -2.571,4.137 l 3.27,4.656 z m -5.785,-6.682 c 0.584,0.01 1.145,-0.22 1.548,-0.636 0.403,-0.416 0.61,-0.978 0.573,-1.551 A 1.996,1.996 0 0 0 57.183,9.442 2.065,2.065 0 0 0 55.645,8.84 h -3.09 v 4.314 z m 12.368,4.796 -1.114,2.329 H 63.686 V 19.876 L 70.318,6.113 h 1.42 l 6.592,13.763 v 0.403 h -3.19 l -1.133,-2.328 h -5.994 z m 1.007,-2.529 h 3.996 L 71.018,10.785 Z M 84.5,14.16 86.022,10.72 87.959,6.25 h 3.275 v 0.403 l -6.141,13.59 H 83.816 L 77.617,6.653 V 6.25 h 3.276 l 1.936,4.47 1.605,3.46 z m 9.657,6.123 V 6.186 h 3.091 V 20.283 Z M 100.192,8.84 V 6.25 h 12.134 v 2.61 h -4.565 v 11.439 h -2.988 V 8.839 Z m 20.568,3.069 1.433,-2.787 1.715,-2.872 h 3.275 v 0.443 l -4.941,7.967 v 5.619 h -3.091 V 14.66 L 114.189,6.673 V 6.25 h 3.316 l 1.789,2.993 1.36,2.686 z"
       fill="#414141"
       id="path9" />
    <path
       d="M 24.134,17.798 A 4.046,4.046 0 0 1 22.3,20.98 l -7.988,4.603 a 4.175,4.175 0 0 1 -3.717,0.024 L 2.546,21.112 A 4.045,4.045 0 0 1 0.667,17.955 L 0.602,8.848 A 4.035,4.035 0 0 1 2.44,5.67 l 7.987,-4.612 a 4.187,4.187 0 0 1 3.717,-0.024 l 8.045,4.5 c 1.1,0.697 1.8,1.867 1.883,3.153 l 0.062,9.11 z"
       fill="#f15a2b"
       id="path11" />
    <path
       d="m 10.112,11.212 h 10.57 V 8.264 H 10.137 A 4.92,4.92 0 0 0 6.42,9.782 c -2.3,2.433 -2.362,8.551 -2.362,8.551 H 20.6 v -5.538 h -2.973 v 2.582 H 7.23 c 0.065,-0.963 0.511,-2.683 1.355,-3.573 a 1.97,1.97 0 0 1 1.527,-0.592 z"
       fill="#ffffff"
       id="path13" />
    <path
       fill="#848484"
       d="m 136.264,7.825 v 5.018 h 6.19 v 1.285 h -6.19 v 6.042 h -1.38 V 6.544 h 7.885 v 1.28 z m 8.687,5.526 c -0.028,-2.881 1.714,-5.495 4.412,-6.617 a 7.313,7.313 0 0 1 7.898,1.497 7.026,7.026 0 0 1 1.598,7.756 c -1.114,2.665 -3.753,4.404 -6.682,4.405 a 7.198,7.198 0 0 1 -5.112,-2.032 6.964,6.964 0 0 1 -2.114,-5.009 z m 13.056,0 c 0.006,-2.321 -1.41,-4.418 -3.588,-5.31 a 5.9,5.9 0 0 0 -6.359,1.233 5.668,5.668 0 0 0 -1.27,6.252 c 0.9,2.145 3.027,3.544 5.387,3.544 a 5.806,5.806 0 0 0 4.138,-1.652 5.616,5.616 0 0 0 1.692,-4.067 z m 9.703,1.357 h -3.914 v 5.45 h -1.397 V 6.544 h 5.589 c 2.077,-0.028 3.854,1.464 4.152,3.487 0.299,2.023 -0.973,3.95 -2.973,4.504 l 3.414,5.639 h -1.596 l -3.276,-5.466 z m -3.914,-1.285 h 4.192 c 1.448,-0.162 2.541,-1.367 2.541,-2.8 0,-1.434 -1.093,-2.64 -2.541,-2.802 h -4.192 z m 24.158,6.735 h -1.396 V 8.606 l -4.913,7.975 h -0.2 l -4.889,-7.975 v 11.552 h -1.4 V 6.544 h 1.74 l 4.66,7.584 4.65,-7.584 h 1.736 z m 2.796,-3.093 1.2,-0.681 c 0.5,1.635 1.818,2.686 4.012,2.686 2.116,0 3.296,-0.994 3.296,-2.453 0,-1.574 -1.38,-2.082 -3.435,-2.742 -2.277,-0.738 -4.47,-1.322 -4.47,-3.83 0,-2.393 1.972,-3.735 4.29,-3.735 2.002,-0.038 3.828,1.124 4.613,2.937 l -1.179,0.628 c -0.532,-1.4 -1.916,-2.309 -3.434,-2.256 -1.679,0 -2.895,0.858 -2.895,2.353 0,1.494 1.2,1.945 3.095,2.55 2.534,0.805 4.81,1.518 4.81,4.027 0,2.332 -1.915,3.81 -4.712,3.81 -2.575,0.033 -4.47,-1.22 -5.19,-3.294 z"
       id="path15" />
  </g>
</svg>
