<svg height="360" viewBox="0 0 640 360" width="640" xmlns="http://www.w3.org/2000/svg" xmlns:xlink="http://www.w3.org/1999/xlink"><mask id="a" fill="#fff"><path d="m.084.028h109.862v119.67h-109.862z" fill="#fff" fill-rule="evenodd"/></mask><mask id="b" fill="#fff"><path d="m.084.028h109.862v119.67h-109.862z" fill="#fff" fill-rule="evenodd"/></mask><g fill="none" fill-rule="nonzero" transform="translate(80 120)"><g fill="#404040" transform="matrix(1 0 0 -1 125.196 84.527)"><path d="m27.8625705 19.3180489h18.8722479v-5.163863c-3.3063584-5.16386314-9.7704748-7.2442684-17.7205949-7.2442684-13.0025329 0-20.95265308 5.8325647-20.95265308 17.2004935 0 11.3679289 7.83866988 17.2004936 20.54400198 17.2004936 7.5786192 0 12.8539326-2.1918555 16.8661428-6.724167l6.3526661 4.5323115c-4.4951614 4.8295121-12.1480809 8.9531727-23.2559589 8.9531727-17.7205949 0-28.38267193-9.064623-28.38267193-23.9989609 0-14.93433776 10.66207703-23.99896071 28.49412223-23.99896071 12.4081314 0 21.3984541 4.86666233 25.5221145 11.51652921v14.3399362h-26.3394167z" transform="translate(0 .074)"/><path d="m7.80151976 23.4045593v15.3801389h22.55010714c6.4641163 0 10.8482893-2.0804052 10.8482893-7.6900694.0366883-5.6096643-4.384173-7.6900695-10.8482893-7.6900695zm41.38520474 7.7643696c0 9.3618237-7.7643696 14.4142365-18.2778463 14.4142365h-30.76027782v-45.24881455h7.72721957v16.42034165h19.05799825l14.0427356-16.42034165h9.5475741l-14.6742871 16.79184245c7.91297 1.4117037 13.3368837 6.2040658 13.3368837 14.0427356" transform="translate(64.641 1.226)"/><path d="m17.8320452 17.8320452 11.070728 20.952653 11.0335779-20.952653zm6.8356173 27.7511202-24.51906212-45.24881455h8.39592126l5.75826466 10.92212765h29.0142234l5.8325648-10.92212765h8.4702214l-24.4076118 45.24881455z" transform="translate(117.877 1.226)"/><path d="m27.863 8.173-19.058 37.299h-8.582l23.479-45.249h8.247l23.479 45.249h-8.507z" transform="translate(171.15 1.337)"/><path d="m233.971 1.56h7.765v45.249h-7.765z"/><path d="m0 38.636h20.507v-38.45h7.727v38.45h20.618v6.799h-48.852z" transform="translate(249.797 1.375)"/><path d="m43.466 45.323-17.127-22.959-17.274 22.959h-8.991l22.29-29.609v-15.64h7.765v15.64l22.253 29.609z" transform="translate(300.619 1.486)"/></g><g transform="translate(0 .52)"><path d="m93.702 88.297-49.846 28.225-30.008-17.08v-61.159l41.599-23.683 38.255 23.126z" fill="#fff" mask="url(#a)"/><g fill="#f15a29" mask="url(#b)"><path d="m99.1631365 22.0114858-33.4908935-19.36453498c-3.2684766-1.76112231-6.9310338-2.66237986-10.6435286-2.61908818-3.7109546-.03003993-7.3702668.87041909-10.6435285 2.61908818l-33.6580694 19.36453498c-6.29292891 4.0669406-10.25179292 10.9068628-10.64352858 18.3893426v38.868383c.30838952 7.5069595 4.2878559 14.3824773 10.64352858 18.3893426l8.0801656 4.653061v-44.9981641l.1114506.0557253v-.0557253l29.9523382 17.6649139c5.7954292 3.3992421 6.9099348 3.2320663 13.1233036-.4736648 2.786264-1.6717585 5.6561159-3.2877916 8.5259679-4.8759622l2.9534398-1.6717583 4.5416104-2.6469509 1.4209947-.8637417 4.3744345-2.5912256.3900769-.2229012v-11.1171934c-.1114505-4.2629839-.6408407-7.049248-6.0183302-10.142001l-17.8320898-10.3091769c-5.0152752-2.8419893-6.352682-2.5355003-12.1759738.9473297l-.4458023.2507638c-4.856941 2.904073-9.7614322 5.7278709-14.7114739 8.4702426-2.563363 1.4488573-4.1793961 2.4519124-5.1545885 3.6221432-1.4209946 1.6996211-.9194671 2.6748135.6687034 4.1236708.7522913.6687034 1.7553463 1.3374068 3.0927531 2.1175607 5.7397039 3.3713794 11.5629957 6.6034457 17.3305622 10.0026878 5.7954291 3.3992422 6.9099347 3.2320663 13.1233035-.4736649 2.6469508-1.5881705 5.4053522-3.1206157 8.135891-4.6530609-.6129782-2.1732859-2.0339728-3.3435168-5.2381764-5.1824511l-12.231699-7.0771106c-1.5881705-.9473298-1.7832091-3.5942806-.0278627-4.6809236l1.5603078-1.003055c1.7274837-1.086643 1.6717584-1.1145056 2.7584014-.4736648l13.9034575 8.1080282c3.8450443 2.2290112 5.6839786 3.6778685 6.4919952 6.1855062.4685725 1.8188555.6749824 3.695309.612978 5.572528v2.7026762c-2.4519123 1.4209946-4.9595499 2.786264-7.4393249 4.2072586-2.2568739 1.2816814-4.5416104 2.5912255-6.742759 3.9007696-7.8294018 4.6809236-9.2503965 4.9038247-16.5225456.6129781-6.96566-4.1236708-13.9870454-8.0244403-20.9248428-12.0923859l-.0557252-.0278626-.8080166-.4736649c-.6850128-.381345-1.3542669-.7903337-2.0061101-1.2259561-2.2011486-1.4767199-3.3992422-2.7584015-4.0122202-4.653061-.8358793-2.5355003-.7244287-6.5755831.612978-8.8603196.9194672-1.5881705 2.5076377-2.8141266 5.1824511-4.3744345l1.0309178-.5851154.0557252-.0278626.8916046-.5015275.2786263-.1671759v-.0835879c6.1576435-3.4271048 12.1202486-6.8542096 18.1664414-10.4763528 7.8294019-4.7087861 9.4175724-5.2381763 15.8817049-1.5603079 7.355737 4.2072588 14.7393367 8.525968 22.0950737 12.7610893l.3622144.2229012c5.4332148 3.1206156 6.7984841 4.7087861 7.0492479 9.8633746v27.2775248l.0278627-.0278627v.1114506c.0557253 6.8820721-.6129781 8.8045942-5.5168028 11.8137594-2.9946105 1.8455647-6.0324892 3.6199831-9.1110833 5.3217643-4.262984 2.4240497-8.6095558 4.7923741-12.7889518 7.3000117-7.3000119 4.402297-9.0274955 4.848099-15.1294138 1.4209947l-1.393132-.8080166c-7.2442864-4.262984-14.5721608-8.358792-21.8164472-12.5939134l-.5572528-.3343516v21.3149189l19.4481228 11.200782c2.8977146 1.671758 6.7706216 2.619088 10.6435286 2.619088s7.745814-.975192 10.6435286-2.619088l33.6302067-19.3645348c6.2929282-4.0669407 10.2517922-10.9068627 10.6435292-18.3893425v-38.8962457c-.192314-7.5619445-4.225457-14.5044135-10.6992545-18.4172052"/><path d="m74.6161505 82.166926c1.1423682-.6408407 2.2568738-1.3095441 3.3435168-1.9782475l.5293902-.306489 5.6561159-3.3435168v-6.1855062l-.3900769.2229011c-1.9254237 1.1506506-3.8667076 2.2745517-5.8232918 3.3713795l-7.439325 4.2072587c-2.2568739 1.2816815-4.5137477 2.5633629-6.7148963 3.8729069-7.8294019 4.6809236-9.2503965 4.9038248-16.5225456.6129782-6.9935227-4.1236708-14.0149081-8.052303-20.9805681-12.1202485l-.8080165-.4736649-.5572528-.3343517v6.1576435l4.9874126 2.9534399c.4736648.3343516 1.0309177.6687033 1.6438958 1.0309176l4.4580224 2.5912256c4.2908466 2.4519123 8.5816932 4.9038247 12.8446771 7.4114623 5.7954292 3.3992421 6.9099347 3.2320662 13.1233035-.5015276 2.5076376-1.5045826 5.0988632-2.9534398 7.6900887-4.4022971-.0278627.0835879 4.95955-2.786264 4.95955-2.786264"/></g></g></g></svg>