<svg xmlns="http://www.w3.org/2000/svg" width="640" height="360"><g fill="none" fill-rule="nonzero"><path fill="#231F20" d="M199.342 322.745v-19.172a11.271 11.271 0 00-3.316-8.787 11.668 11.668 0 00-8.896-3.355c-4.372-.282-8.554 1.8-10.913 5.432-2.15-3.524-6.089-5.608-10.263-5.432-3.635-.18-7.095 1.546-9.094 4.537v-3.77h-6.756v30.547h6.82v-16.807a7.082 7.082 0 011.858-5.819 7.336 7.336 0 015.743-2.297c4.482 0 6.755 2.876 6.755 8.052v17h6.82v-16.936a7.114 7.114 0 011.872-5.807 7.368 7.368 0 015.729-2.31c4.612 0 6.82 2.877 6.82 8.053v17l6.82-.129zm100.911-30.547h-11.108v-9.267h-6.82v9.267h-6.171v6.071h6.3v14.06c0 7.093 2.794 11.311 10.784 11.311 2.985.01 5.912-.81 8.444-2.364l-1.949-5.688a12.623 12.623 0 01-5.976 1.725c-3.248 0-4.482-2.045-4.482-5.112v-13.932h11.043l-.065-6.071zm57.617-.767c-3.355-.097-6.496 1.62-8.185 4.474v-3.707h-6.69v30.547h6.755v-17.127c0-5.048 2.209-7.86 6.496-7.86a11.17 11.17 0 014.222.767l2.079-6.391a14.666 14.666 0 00-4.807-.83l.13.127zm-87.108 3.195a23.52 23.52 0 00-12.666-3.195c-7.86 0-12.992 3.707-12.992 9.778 0 4.985 3.768 8.052 10.718 9.01l3.248.448c3.703.511 5.456 1.47 5.456 3.195 0 2.365-2.468 3.707-7.08 3.707a16.718 16.718 0 01-10.328-3.195l-3.248 5.176a22.673 22.673 0 0013.446 3.962c8.964 0 14.16-4.154 14.16-9.97 0-5.815-4.091-8.18-10.847-9.138l-3.248-.447c-2.923-.384-5.261-.959-5.261-3.004s2.208-3.579 5.91-3.579c3.423.04 6.778.942 9.744 2.62l2.988-5.368zm180.939-3.195c-3.355-.097-6.496 1.62-8.185 4.474v-3.707h-6.69v30.547h6.755v-17.127c0-5.048 2.209-7.86 6.496-7.86a11.17 11.17 0 014.222.767l2.079-6.391a14.666 14.666 0 00-4.807-.83l.13.127zm-87.043 15.977a15.303 15.303 0 004.695 11.588c3.152 3.041 7.461 4.634 11.87 4.389a16.413 16.413 0 0011.172-3.643l-3.248-5.368a13.786 13.786 0 01-8.12 2.748c-5.178-.413-9.166-4.667-9.166-9.778 0-5.111 3.988-9.366 9.166-9.778 2.937.032 5.785.996 8.12 2.748l3.248-5.368a16.413 16.413 0 00-11.173-3.643c-4.408-.246-8.717 1.348-11.87 4.388a15.303 15.303 0 00-4.694 11.589v.128zm63.268 0v-15.21h-6.755v3.707c-2.327-2.947-5.953-4.612-9.744-4.474-8.968 0-16.239 7.153-16.239 15.977 0 8.824 7.27 15.977 16.24 15.977 3.79.137 7.416-1.528 9.743-4.474v3.707h6.755v-15.21zm-25.138 0c.3-5.015 4.62-8.873 9.722-8.685 5.102.188 9.116 4.355 9.033 9.377-.082 5.023-4.23 9.06-9.336 9.086a9.397 9.397 0 01-6.884-2.862 9.084 9.084 0 01-2.535-6.916zm-81.521-15.977c-8.97.124-16.138 7.377-16.012 16.2.125 8.824 7.498 15.877 16.466 15.754a19.074 19.074 0 0012.894-4.154l-3.247-4.921a14.928 14.928 0 01-9.03 3.195c-4.643.393-8.76-2.921-9.288-7.477h23.06v-2.556c0-9.586-6.042-15.977-14.746-15.977l-.097-.064zm0 5.943a7.767 7.767 0 015.49 2.105 7.517 7.517 0 012.37 5.309h-16.24c.245-4.267 3.909-7.56 8.25-7.414h.13zm169.246 10.098v-27.544h-6.496v15.977c-2.327-2.947-5.953-4.612-9.743-4.474-8.97 0-16.24 7.153-16.24 15.977 0 8.824 7.27 15.977 16.24 15.977 3.79.137 7.416-1.528 9.743-4.474v3.707h6.496v-15.146zm11.27 10.832c.422-.005.841.07 1.234.224.373.15.715.366 1.007.639.285.275.517.6.682.958.332.755.332 1.61 0 2.365a3.196 3.196 0 01-.682.958c-.292.273-.634.49-1.007.64-.389.168-.81.255-1.234.255a3.251 3.251 0 01-2.923-1.853 2.959 2.959 0 010-2.365c.165-.358.396-.683.682-.958.292-.273.634-.49 1.007-.64a3.296 3.296 0 011.331-.223h-.097zm0 5.4a2.338 2.338 0 001.689-.703 2.336 2.336 0 000-3.195 2.404 2.404 0 00-.747-.511 2.372 2.372 0 00-.942-.192 2.47 2.47 0 00-.942.192 2.374 2.374 0 00-.78.51 2.336 2.336 0 000 3.196c.224.22.489.393.78.511.328.14.683.205 1.04.192h-.098zm.195-3.802c.303-.015.602.076.844.255.202.164.31.414.293.671a.76.76 0 01-.228.575c-.188.169-.428.27-.682.288l.942 1.054h-.747l-.877-1.054h-.292v1.054h-.617v-2.811l1.364-.032zm-.715.543v.767h.715a.693.693 0 00.39 0 .315.315 0 000-.288.315.315 0 000-.287.693.693 0 00-.39 0l-.715-.192zm-35.726-12.973c.3-5.015 4.62-8.873 9.722-8.685 5.102.188 9.115 4.355 9.033 9.377-.083 5.023-4.23 9.06-9.336 9.085a9.397 9.397 0 01-6.884-2.861 9.084 9.084 0 01-2.535-6.916zm-228.098 0v-15.274h-6.755v3.707c-2.328-2.947-5.954-4.612-9.744-4.474-8.969 0-16.24 7.153-16.24 15.977 0 8.824 7.271 15.977 16.24 15.977 3.79.137 7.416-1.528 9.744-4.474v3.707h6.755v-15.146zm-25.138 0c.3-5.015 4.62-8.873 9.722-8.685 5.102.188 9.116 4.355 9.033 9.377-.082 5.023-4.23 9.06-9.336 9.085a9.398 9.398 0 01-6.927-2.837 9.084 9.084 0 01-2.557-6.94h.065z"/><path fill="#FF5F00" d="M268.521 59.417h102.308v180.888H268.521z"/><path fill="#EB001B" d="M275.017 149.877c-.038-35.304 16.43-68.663 44.658-90.46C271.736 22.35 202.894 27.75 161.528 71.819c-41.365 44.07-41.365 112.014 0 156.084 41.366 44.07 110.208 49.468 158.147 12.402-28.218-21.79-44.686-55.135-44.658-90.428z"/><path fill="#F79E1B" d="M508.863 149.877c0 44.043-25.562 84.219-65.828 103.465-40.266 19.246-88.167 14.184-123.36-13.037 28.207-21.808 44.676-55.15 44.676-90.444 0-35.295-16.47-68.636-44.676-90.444 35.193-27.221 83.094-32.284 123.36-13.037 40.266 19.246 65.828 59.422 65.828 103.465v.032zm-11.172 71.592v-3.985h1.526v-.824h-3.865v.824h1.657v3.985h.682zm7.502 0v-4.81h-1.17l-1.363 3.436-1.364-3.435h-1.04v4.809h.845v-3.607l1.267 3.126h.876l1.267-3.126v3.64l.682-.033z"/></g></svg>