<svg xmlns="http://www.w3.org/2000/svg" height="32" width="51"><g fill-rule="evenodd" fill="none"><path stroke="#D0D0D0" fill="#FFF" d="M.5.5h50v31H.5z"/><path class="cls-2" d="M-259.009-200.742v-14.899a8.84 8.84 0 00-9.337-9.436 9.188 9.188 0 00-8.343 4.222 8.716 8.716 0 00-7.847-4.222 7.847 7.847 0 00-6.953 3.526v-2.93h-5.165v23.74h5.215v-13.062a5.562 5.562 0 015.81-6.307c3.427 0 5.165 2.234 5.165 6.257v13.21h5.215v-13.16a5.587 5.587 0 015.81-6.307c3.527 0 5.215 2.234 5.215 6.257v13.21zm77.153-23.739h-8.493v-7.201h-5.214v7.201h-4.718v4.718h4.817v10.926c0 5.513 2.136 8.79 8.244 8.79a12.118 12.118 0 006.457-1.837l-1.49-4.42a9.535 9.535 0 01-4.57 1.341c-2.483 0-3.426-1.59-3.426-3.973v-10.827h8.443zm44.052-.596a7.003 7.003 0 00-6.258 3.477v-2.88h-5.115v23.738h5.165v-13.31c0-3.923 1.688-6.108 4.966-6.108a8.418 8.418 0 013.228.596l1.59-4.967a11.05 11.05 0 00-3.676-.645zm-66.6 2.483a17.755 17.755 0 00-9.684-2.483c-6.01 0-9.933 2.88-9.933 7.599 0 3.873 2.88 6.257 8.195 7.002l2.483.348c2.83.397 4.172 1.142 4.172 2.483 0 1.838-1.887 2.88-5.414 2.88a12.64 12.64 0 01-7.896-2.483l-2.483 4.023a17.134 17.134 0 0010.28 3.08c6.854 0 10.827-3.229 10.827-7.748 0-4.52-3.129-6.357-8.294-7.102l-2.483-.348c-2.235-.298-4.023-.745-4.023-2.334 0-1.59 1.689-2.781 4.52-2.781a15.296 15.296 0 017.449 2.036zm138.34-2.483a7.003 7.003 0 00-6.258 3.477v-2.88h-5.116v23.738h5.165v-13.31c0-3.923 1.689-6.108 4.967-6.108a8.418 8.418 0 013.228.596l1.589-4.967a11.05 11.05 0 00-3.675-.645zm-66.55 12.416a11.994 11.994 0 0012.664 12.416 12.416 12.416 0 008.542-2.83l-2.483-4.173a10.43 10.43 0 01-6.208 2.136 7.623 7.623 0 010-15.197 10.43 10.43 0 016.208 2.135l2.483-4.171a12.416 12.416 0 00-8.542-2.831 11.994 11.994 0 00-12.664 12.416zm48.372 0v-11.82h-5.165v2.88a9.014 9.014 0 00-7.45-3.476 12.416 12.416 0 000 24.832 9.014 9.014 0 007.45-3.476v2.88h5.165zm-19.22 0a7.176 7.176 0 117.202 7.599 7.127 7.127 0 01-7.202-7.599zm-62.328-12.416a12.417 12.417 0 00.348 24.832 14.427 14.427 0 009.858-3.228l-2.483-3.824a11.299 11.299 0 01-6.903 2.483 6.58 6.58 0 01-7.102-5.81h17.63v-1.987c0-7.45-4.618-12.416-11.273-12.416zm0 4.619a5.885 5.885 0 016.01 5.76h-12.416a6.109 6.109 0 016.307-5.76zm129.4 7.847v-21.405h-4.967v12.416a9.014 9.014 0 00-7.45-3.477 12.416 12.416 0 000 24.832 9.014 9.014 0 007.45-3.476v2.88h4.966zm8.616 8.418a2.483 2.483 0 01.944.174 2.483 2.483 0 01.77.496 2.483 2.483 0 01.52.745 2.31 2.31 0 010 1.838 2.483 2.483 0 01-.52.745 2.483 2.483 0 01-.77.496 2.334 2.334 0 01-.944.199 2.483 2.483 0 01-2.235-1.44 2.334 2.334 0 010-1.838 2.483 2.483 0 01.522-.745 2.483 2.483 0 01.77-.496 2.483 2.483 0 011.018-.174zm0 4.196a1.763 1.763 0 00.72-.149 1.862 1.862 0 00.571-.397 1.838 1.838 0 000-2.483 1.838 1.838 0 00-.57-.397 1.788 1.788 0 00-.721-.15 1.862 1.862 0 00-.72.15 1.813 1.813 0 00-.596.397 1.838 1.838 0 000 2.483 1.838 1.838 0 00.596.397 1.838 1.838 0 00.795.15zm.149-2.955a.993.993 0 01.646.199.62.62 0 01.223.521.596.596 0 01-.174.447.87.87 0 01-.521.224l.72.82h-.571l-.67-.82h-.224v.82h-.472v-2.186zm-.546.423v.595h.546a.521.521 0 00.298 0 .248.248 0 000-.223.248.248 0 000-.224.521.521 0 00-.298 0zm-27.315-10.082a7.176 7.176 0 117.2 7.598 7.127 7.127 0 01-7.2-7.598zm-174.395 0v-11.87h-5.165v2.88a9.014 9.014 0 00-7.45-3.476 12.416 12.416 0 000 24.832 9.014 9.014 0 007.45-3.476v2.88h5.165zm-19.22 0a7.176 7.176 0 117.201 7.598 7.127 7.127 0 01-7.25-7.598z"/><g data-name="&lt;Group&gt;"><path class="cls-3" d="M-206.117-405.381h78.22v140.573h-78.22z"/><path data-name="&lt;Path&gt;" class="cls-4" d="M-201.15-335.082a89.246 89.246 0 0134.143-70.3 89.395 89.395 0 100 140.574 89.246 89.246 0 01-34.143-70.274z"/><path class="cls-5" d="M-22.36-335.082a89.395 89.395 0 01-144.647 70.274 89.395 89.395 0 000-140.573A89.395 89.395 0 01-22.36-335.107zM-30.903-279.707v-2.88h1.167v-.597h-2.955v.596h1.267v2.88zm5.736 0v-3.477h-.894l-1.043 2.484-1.042-2.484h-.795v3.477h.646v-2.607l.968 2.26h.67l.969-2.26v2.632z"/></g><g><path class="cls-3" fill="#ff5f00" d="M21.381 8.6h8.236v14.8h-8.236z"/><path d="M21.904 16.001A9.397 9.397 0 0125.5 8.6a9.413 9.413 0 100 14.802 9.397 9.397 0 01-3.595-7.4z" class="cls-4" data-name="&lt;Path&gt;" fill="#eb001b"/><path d="M40.73 16.001a9.413 9.413 0 01-15.23 7.4 9.413 9.413 0 000-14.802A9.413 9.413 0 0140.73 16z" class="cls-5" fill="#f79e1b"/></g></g></svg>