<svg xmlns="http://www.w3.org/2000/svg" width="51" height="32"><g fill="none" fill-rule="evenodd"><path fill="#FFF" stroke="#D0D0D0" d="M.5.5h50v31H.5z"/><g fill-rule="nonzero"><path fill="#231F20" d="M18.38 25.016v-1.211a.712.712 0 00-.21-.555.737.737 0 00-.562-.212.763.763 0 00-.689.343.723.723 0 00-.648-.343.652.652 0 00-.575.286v-.238h-.426v1.93h.43v-1.062a.447.447 0 01.118-.367.463.463 0 01.363-.146c.283 0 .426.182.426.509v1.074h.43v-1.07a.45.45 0 01.12-.367.465.465 0 01.36-.146c.292 0 .432.182.432.509v1.074l.43-.008zm6.373-1.93h-.702v-.585h-.43v.585h-.39v.384h.398v.888c0 .448.176.714.68.714.19 0 .374-.051.534-.15l-.123-.359a.797.797 0 01-.377.11c-.206 0-.284-.13-.284-.323v-.88h.698l-.004-.384zm3.639-.048a.58.58 0 00-.517.282v-.234h-.423v1.93h.427v-1.082c0-.319.14-.497.41-.497a.705.705 0 01.267.049l.131-.404a.926.926 0 00-.303-.052l.008.008zm-5.502.202a1.485 1.485 0 00-.8-.202c-.496 0-.82.234-.82.617 0 .315.238.509.677.57l.205.028c.234.032.344.093.344.201 0 .15-.155.235-.447.235a1.056 1.056 0 01-.652-.202l-.205.327c.248.17.546.258.849.25.566 0 .894-.262.894-.63 0-.367-.258-.516-.685-.577l-.205-.028c-.184-.024-.332-.06-.332-.19 0-.129.14-.226.373-.226.216.003.428.06.616.166l.188-.34zm11.428-.202a.58.58 0 00-.517.282v-.234h-.423v1.93h.427v-1.082c0-.319.14-.497.41-.497a.705.705 0 01.267.049l.131-.404a.926.926 0 00-.303-.052l.008.008zm-5.497 1.009c-.01.274.097.54.296.732a1 1 0 00.75.277c.256.013.508-.07.705-.23l-.205-.34a.87.87 0 01-.513.174.624.624 0 01-.579-.617c0-.323.252-.592.58-.618a.87.87 0 01.512.174l.205-.34a1.037 1.037 0 00-.705-.23 1 1 0 00-.75.278.967.967 0 00-.296.732v.008zm3.995 0v-.96h-.426v.233a.75.75 0 00-.616-.282c-.566 0-1.025.452-1.025 1.009 0 .557.459 1.009 1.025 1.009a.75.75 0 00.616-.283v.234h.426v-.96zm-1.587 0a.59.59 0 01.614-.549.587.587 0 01.57.593.588.588 0 01-.59.573.593.593 0 01-.434-.18.574.574 0 01-.16-.437zm-5.149-1.01a1.017 1.017 0 00-1.011 1.024 1.018 1.018 0 001.04.995c.295.015.585-.079.814-.262l-.205-.311a.943.943 0 01-.57.202.541.541 0 01-.587-.473h1.456v-.161c0-.606-.381-1.01-.93-1.01l-.007-.003zm0 .376a.49.49 0 01.347.133.475.475 0 01.15.335H25.55a.501.501 0 01.52-.468h.009zm10.69.638v-1.74h-.411v1.01a.75.75 0 00-.615-.283c-.567 0-1.026.452-1.026 1.009 0 .557.46 1.009 1.026 1.009a.75.75 0 00.615-.283v.234h.41v-.956zm.711.684a.208.208 0 01.142.054.185.185 0 010 .27.206.206 0 01-.064.041.205.205 0 01-.263-.1.187.187 0 01.107-.25.208.208 0 01.084-.015h-.006zm0 .341a.148.148 0 00.107-.044.148.148 0 000-.202.152.152 0 00-.107-.045.156.156 0 00-.109.045.148.148 0 000 .202c.014.014.031.024.05.032.02.009.043.013.065.012h-.006zm.012-.24c.02-.001.038.005.054.016a.05.05 0 01.018.042.048.048 0 01-.014.037.072.072 0 01-.043.018l.06.067h-.048l-.055-.067h-.019v.067h-.039v-.178l.086-.002zm-.045.034v.049h.045a.044.044 0 00.025 0 .02.02 0 000-.019.02.02 0 000-.018.044.044 0 00-.025 0l-.045-.012zm-2.256-.82a.59.59 0 01.614-.548.587.587 0 01.57.593.588.588 0 01-.59.573.593.593 0 01-.434-.18.574.574 0 01-.16-.437zm-14.406 0v-.964h-.427v.234a.75.75 0 00-.615-.282c-.567 0-1.026.452-1.026 1.009 0 .557.46 1.009 1.026 1.009a.75.75 0 00.615-.283v.234h.427v-.956zm-1.588 0a.59.59 0 01.614-.548.587.587 0 01.57.593.588.588 0 01-.59.573.594.594 0 01-.437-.179.574.574 0 01-.161-.438h.004z"/><path fill="#FF5F00" d="M22.749 8.384h6.461v11.425h-6.461z"/><path fill="#EB001B" d="M23.159 14.098a7.21 7.21 0 012.82-5.714c-3.027-2.34-7.375-2-9.988.784a7.18 7.18 0 000 9.857c2.613 2.784 6.96 3.125 9.988.784a7.211 7.211 0 01-2.82-5.711z"/><path fill="#F79E1B" d="M37.928 14.098c0 2.781-1.614 5.319-4.157 6.534a7.484 7.484 0 01-7.792-.823 7.223 7.223 0 002.822-5.712c0-2.23-1.04-4.335-2.822-5.713a7.484 7.484 0 017.792-.823c2.543 1.215 4.157 3.753 4.157 6.534v.003zm-.644 4.648v-.357h.137v-.074h-.346v.074h.148v.357h.061zm.671 0v-.43h-.104l-.122.307-.122-.308h-.093v.43h.075v-.322l.114.28h.078l.113-.28v.326l.061-.003z"/></g></g></svg>