<svg xmlns="http://www.w3.org/2000/svg" width="640" height="360"><g fill="none"><path fill="#231F20" d="M224.744 292.694v-15.136a8.898 8.898 0 00-2.618-6.937 9.211 9.211 0 00-7.023-2.649c-3.452-.222-6.753 1.42-8.616 4.289-1.698-2.783-4.807-4.428-8.102-4.289-2.87-.143-5.602 1.22-7.18 3.582v-2.976h-5.333v24.116h5.384v-13.269a5.591 5.591 0 011.467-4.594 5.792 5.792 0 014.533-1.814c3.539 0 5.334 2.27 5.334 6.357v13.421h5.384v-13.37a5.617 5.617 0 011.477-4.584 5.817 5.817 0 014.523-1.824c3.641 0 5.385 2.27 5.385 6.357v13.421l5.385-.1zm79.666-24.116h-8.769v-7.316h-5.385v7.316h-4.871v4.793h4.974v11.1c0 5.6 2.205 8.93 8.513 8.93 2.356.007 4.667-.64 6.666-1.867l-1.538-4.49a9.966 9.966 0 01-4.718 1.362c-2.564 0-3.538-1.615-3.538-4.037v-10.998h8.718l-.052-4.793zm45.487-.606c-2.648-.077-5.128 1.279-6.461 3.532v-2.926h-5.282v24.116h5.333v-13.521c0-3.986 1.744-6.206 5.128-6.206a8.819 8.819 0 013.334.605l1.64-5.045a11.579 11.579 0 00-3.794-.656l.102.101zm-68.769 2.523a18.569 18.569 0 00-10-2.523c-6.205 0-10.256 2.926-10.256 7.72 0 3.935 2.974 6.357 8.461 7.113l2.564.353c2.924.404 4.308 1.16 4.308 2.523 0 1.867-1.949 2.926-5.59 2.926-2.928.084-5.8-.805-8.153-2.522l-2.565 4.086a17.9 17.9 0 0010.616 3.129c7.077 0 11.18-3.28 11.18-7.871 0-4.591-3.231-6.458-8.565-7.215l-2.564-.353c-2.308-.303-4.154-.757-4.154-2.371 0-1.615 1.744-2.826 4.667-2.826 2.702.031 5.35.743 7.692 2.069l2.36-4.238zm142.846-2.523c-2.649-.077-5.128 1.279-6.461 3.532v-2.926h-5.282v24.116h5.333v-13.521c0-3.986 1.744-6.206 5.128-6.206a8.819 8.819 0 013.334.605l1.64-5.045a11.579 11.579 0 00-3.794-.656l.102.101zm-68.718 12.613a12.081 12.081 0 003.707 9.15 12.5 12.5 0 009.37 3.464c3.203.16 6.35-.866 8.82-2.876l-2.563-4.238a10.883 10.883 0 01-6.41 2.17c-4.088-.326-7.237-3.685-7.237-7.72s3.149-7.394 7.236-7.72c2.319.026 4.567.787 6.41 2.17l2.565-4.238a12.958 12.958 0 00-8.82-2.876 12.5 12.5 0 00-9.371 3.465 12.081 12.081 0 00-3.707 9.148v.101zm49.95 0v-12.007h-5.334v2.926c-1.838-2.326-4.7-3.64-7.693-3.532-7.08 0-12.82 5.647-12.82 12.613 0 6.966 5.74 12.614 12.82 12.614 2.993.108 5.855-1.206 7.693-3.532v2.926h5.333v-12.008zm-19.847 0c.237-3.958 3.647-7.005 7.675-6.856 4.028.149 7.197 3.438 7.132 7.403-.065 3.965-3.34 7.152-7.371 7.173a7.418 7.418 0 01-5.435-2.26 7.171 7.171 0 01-2.001-5.46zM321 267.972c-7.08.098-12.74 5.824-12.641 12.79.1 6.966 5.92 12.534 13 12.437 3.689.186 7.317-.983 10.18-3.28l-2.565-3.885a11.785 11.785 0 01-7.128 2.523c-3.666.31-6.916-2.307-7.333-5.903h18.205v-2.018c0-7.568-4.77-12.613-11.641-12.613l-.077-.05zm0 4.692a6.132 6.132 0 014.335 1.662 5.934 5.934 0 011.87 4.19h-12.82c.193-3.367 3.085-5.967 6.512-5.852H321zm133.615 7.972V258.89h-5.128v12.613c-1.837-2.326-4.7-3.64-7.692-3.532-7.08 0-12.82 5.647-12.82 12.613 0 6.966 5.74 12.614 12.82 12.614 2.992.108 5.855-1.206 7.692-3.532v2.926h5.128v-11.957zm8.898 8.552c.333-.004.664.056.974.176.295.118.564.29.795.505.225.217.408.474.539.757a2.311 2.311 0 010 1.866c-.131.283-.314.54-.539.757-.23.215-.5.386-.795.505a2.444 2.444 0 01-.974.201 2.567 2.567 0 01-2.308-1.463 2.336 2.336 0 010-1.866c.13-.283.313-.54.539-.757.23-.216.5-.387.794-.505.334-.13.693-.19 1.052-.176h-.077zm0 4.263a1.846 1.846 0 001.333-.555 1.845 1.845 0 000-2.523 1.872 1.872 0 00-1.333-.555 1.95 1.95 0 00-.744.152c-.23.093-.44.23-.615.403a1.845 1.845 0 000 2.523 1.9 1.9 0 00.615.404c.259.11.54.161.82.15h-.076zm.154-3.002c.239-.012.475.06.666.202.16.13.245.327.231.53a.6.6 0 01-.18.454.905.905 0 01-.538.227l.744.832H464l-.692-.832h-.231v.832h-.487v-2.22l1.077-.025zm-.564.429v.605h.564c.1.03.207.03.307 0a.249.249 0 000-.227.249.249 0 000-.227.547.547 0 00-.307 0l-.564-.151zm-28.206-10.242c.238-3.959 3.648-7.005 7.676-6.857 4.028.15 7.196 3.438 7.131 7.404-.065 3.965-3.34 7.152-7.37 7.172a7.418 7.418 0 01-5.435-2.26 7.171 7.171 0 01-2.002-5.46zm-180.076 0v-12.058h-5.334v2.926c-1.837-2.326-4.7-3.64-7.692-3.532-7.08 0-12.82 5.647-12.82 12.613 0 6.966 5.74 12.614 12.82 12.614 2.992.108 5.855-1.206 7.692-3.532v2.926h5.334v-11.957zm-19.847 0c.238-3.959 3.648-7.005 7.676-6.857 4.028.15 7.196 3.438 7.131 7.404-.065 3.965-3.34 7.152-7.37 7.172a7.42 7.42 0 01-5.47-2.24 7.172 7.172 0 01-2.018-5.48h.051z"/><path fill="#FF5F00" d="M279.359 84.803h80.769V227.61h-80.769z"/><path fill="#EB001B" d="M284.487 156.219c-.03-27.872 12.972-54.208 35.257-71.416-37.847-29.263-92.196-25-124.853 9.791-32.657 34.792-32.657 88.432 0 123.224s87.006 39.054 124.853 9.792c-22.278-17.203-35.28-43.528-35.257-71.391z"/><path fill="#F79E1B" d="M469.103 156.219c0 34.77-20.181 66.488-51.97 81.683-31.79 15.194-69.606 11.198-97.39-10.292 22.269-17.218 35.27-43.54 35.27-71.404 0-27.864-13.001-54.186-35.27-71.403 27.784-21.49 65.6-25.487 97.39-10.292 31.789 15.194 51.97 46.912 51.97 81.683v.025zm-8.82 56.52v-3.146h1.204v-.65h-3.051v.65h1.308v3.146h.538zm5.922 0v-3.797h-.923l-1.077 2.712-1.077-2.712h-.82v3.797h.666v-2.848l1 2.468h.693l1-2.468v2.875l.538-.027z"/></g></svg>