<?xml version="1.0" encoding="UTF-8"?>
<svg width="640px" height="360px" viewBox="0 0 640 360" xmlns="http://www.w3.org/2000/svg" xmlns:xlink="http://www.w3.org/1999/xlink" version="1.1">
 <!-- Generated by Pixelmator Pro 2.3 -->
 <g id="V-PAY">
  <path id="path8681" d="M452.837 35.85 L187 35.85 187 323.85 452.837 323.85 Z M452.837 35.85" fill="#1c3378" fill-opacity="1" stroke="none"/>
  <path id="path8683" d="M446.185 222.88 L193.653 222.88 193.653 42.503 446.185 42.503 Z M446.185 222.88" fill="#ffffff" fill-opacity="1" stroke="none"/>
  <path id="path8685" d="M383.796 75.244 L334.249 193.523 301.875 193.523 277.488 99.109 C276.019 93.307 274.723 91.18 270.236 88.705 262.849 84.74 250.703 80.988 240.028 78.648 L240.744 75.244 292.805 75.244 C299.438 75.244 305.414 79.654 306.923 87.273 L319.822 155.715 351.654 75.244 Z" fill="#1c3378" fill-opacity="1" stroke="none"/>
  <path id="path8687" d="M264.028 269.101 C265.208 269.43 266.774 269.526 268.728 269.526 275.922 269.526 280.312 265.832 280.312 259.393 280.312 253.281 276.251 250.013 269.579 250.013 266.948 250.013 265.053 250.264 264.028 250.516 Z M254.494 243.496 C257.936 242.838 262.713 242.355 269.211 242.355 276.251 242.355 281.395 243.902 284.76 246.842 287.893 249.53 289.923 253.842 289.923 259.006 289.923 264.208 288.357 268.521 285.379 271.48 281.55 275.464 275.535 277.34 268.728 277.34 266.948 277.34 265.285 277.243 264.028 277.011 L264.028 297.742 254.494 297.742 Z M254.494 243.496" fill="#ffffff" fill-opacity="1" stroke="none"/>
  <path id="path8689" d="M326.127 274.574 L321.988 261.037 C320.963 257.691 320.112 253.939 319.319 250.748 L319.164 250.748 C318.391 253.939 317.598 257.788 316.669 261.037 L312.608 274.574 Z M311.042 282.155 L306.497 297.742 296.576 297.742 313.459 242.761 325.74 242.761 342.874 297.742 332.547 297.742 327.77 282.155 Z M311.042 282.155" fill="#ffffff" fill-opacity="1" stroke="none"/>
  <path id="path8691" d="M363.123 297.742 L363.123 274.806 346.471 242.761 357.398 242.761 363.741 256.859 C365.54 260.959 366.855 264.034 368.286 267.805 L368.421 267.805 C369.756 264.286 371.264 260.862 373.043 256.859 L379.387 242.761 390.255 242.761 372.734 274.574 372.734 297.742 Z M363.123 297.742" fill="#ffffff" fill-opacity="1" stroke="none"/>
 </g>
</svg>
