<?xml version="1.0" encoding="UTF-8"?>
<svg width="51px" height="32px" viewBox="0 0 51 32" xmlns="http://www.w3.org/2000/svg" xmlns:xlink="http://www.w3.org/1999/xlink" version="1.1">
 <!-- Generated by Pixelmator Pro 2.3 -->
 <g id="group">
  <path id="Path" d="M0.5 0.5 L50.5 0.5 50.5 31.5 0.5 31.5 Z" fill="#ffffff" fill-opacity="1" stroke="#d0d0d0" stroke-width="1" stroke-opacity="1" stroke-linejoin="round" stroke-linecap="round"/>
  <g id="V-PAY">
   <path id="path8681" d="M34.852 6.012 L15.837 6.012 15.837 26.612 34.852 26.612 Z M34.852 6.012" fill="#1c3378" fill-opacity="1" stroke="none"/>
   <path id="path8683" d="M34.376 19.39 L16.313 19.39 16.313 6.488 34.376 6.488 Z M34.376 19.39" fill="#ffffff" fill-opacity="1" stroke="none"/>
   <path id="path8685" d="M29.914 8.83 L26.37 17.29 24.054 17.29 22.31 10.537 C22.205 10.122 22.112 9.97 21.791 9.792 21.263 9.509 20.394 9.241 19.63 9.073 L19.681 8.83 23.405 8.83 C23.88 8.83 24.307 9.145 24.415 9.69 L25.338 14.586 27.615 8.83 Z" fill="#1c3378" fill-opacity="1" stroke="none"/>
   <path id="path8687" d="M21.347 22.696 C21.431 22.719 21.543 22.726 21.683 22.726 22.198 22.726 22.512 22.462 22.512 22.001 22.512 21.564 22.221 21.33 21.744 21.33 21.556 21.33 21.42 21.348 21.347 21.366 Z M20.665 20.864 C20.911 20.817 21.253 20.783 21.718 20.783 22.221 20.783 22.589 20.893 22.83 21.104 23.054 21.296 23.199 21.604 23.199 21.974 23.199 22.346 23.087 22.654 22.874 22.866 22.6 23.151 22.17 23.285 21.683 23.285 21.556 23.285 21.437 23.278 21.347 23.262 L21.347 24.744 20.665 24.744 Z M20.665 20.864" fill="#ffffff" fill-opacity="1" stroke="none"/>
   <path id="path8689" d="M25.789 23.087 L25.493 22.119 C25.419 21.88 25.358 21.611 25.302 21.383 L25.291 21.383 C25.235 21.611 25.179 21.887 25.112 22.119 L24.822 23.087 Z M24.71 23.63 L24.385 24.744 23.675 24.744 24.883 20.812 25.761 20.812 26.987 24.744 26.248 24.744 25.906 23.63 Z M24.71 23.63" fill="#ffffff" fill-opacity="1" stroke="none"/>
   <path id="path8691" d="M28.435 24.744 L28.435 23.104 27.244 20.812 28.025 20.812 28.479 21.82 C28.608 22.113 28.702 22.333 28.804 22.603 L28.814 22.603 C28.909 22.351 29.017 22.107 29.145 21.82 L29.598 20.812 30.376 20.812 29.122 23.087 29.122 24.744 Z M28.435 24.744" fill="#ffffff" fill-opacity="1" stroke="none"/>
  </g>
 </g>
</svg>
