<svg xmlns="http://www.w3.org/2000/svg" width="32" height="24" fill="none"><linearGradient id="a" x1="0" x2="22.992" y1="24.084" y2="-7.19" gradientUnits="userSpaceOnUse"><stop offset="0" stop-color="#0063a5"/><stop offset="1" stop-color="#008dc7"/></linearGradient><rect width="32" height="24" fill="#fff" rx="4"/><path fill="url(#a)" fill-rule="evenodd" d="M28 0H4a4 4 0 0 0-4 4v16a4 4 0 0 0 4 4h24c1.883 0 3.462-1.3 3.887-3.053h-.324c-.047-.202-.06-.27-.08-.373l-.028-.145c-.011-.108-.016-.238-.022-.368s-.01-.26-.022-.367c-.583.583-1.253 1.016-2.032 1.253s-1.578.346-2.378.346c-.626 0-1.21-.086-1.75-.237s-1.017-.39-1.427-.714c-.411-.324-.714-.735-.951-1.21-.238-.498-.346-1.081-.346-1.751 0-.735.13-1.362.389-1.838.26-.475.605-.865 1.016-1.167.41-.281.886-.497 1.427-.649.54-.151 1.059-.26 1.6-.346a21.49 21.49 0 0 1 1.599-.194c.519-.043.994-.13 1.405-.238s.735-.26.973-.454.346-.475.324-.843c0-.39-.065-.692-.194-.93a1.508 1.508 0 0 0-.498-.54 1.982 1.982 0 0 0-.735-.26 5.897 5.897 0 0 0-.886-.064c-.713 0-1.254.151-1.665.454-.41.302-.648.821-.713 1.535h-3.653c.065-.8.28-1.514.648-2.076a4.035 4.035 0 0 1 1.427-1.34 6.163 6.163 0 0 1 1.946-.735 10.476 10.476 0 0 1 2.161-.216c.649 0 1.319.043 2.01.13.308.04.605.101.892.182V4a4 4 0 0 0-4-4zM9.124 2.854v6.96h7.328v-6.96h4v18.115h-4v-7.825H9.124v7.825H5.146V2.854zm21.007 12.163c.18-.042.352-.082.524-.144.238-.086.432-.195.562-.281v1.34c0 .216-.022.476-.065.822a2.61 2.61 0 0 1-.346.994 2.49 2.49 0 0 1-.865.843c-.389.238-.93.346-1.643.346-.302 0-.583-.043-.843-.087a1.75 1.75 0 0 1-.713-.259 1.375 1.375 0 0 1-.476-.519 1.918 1.918 0 0 1-.172-.821c0-.346.064-.627.172-.843.13-.216.282-.39.476-.54.195-.152.432-.26.692-.347.26-.086.54-.15.8-.194a79.562 79.562 0 0 1 .864-.13c.281-.043.562-.086.822-.13l.211-.05z" clip-rule="evenodd"/></svg>