<svg xmlns="http://www.w3.org/2000/svg" width="40" height="40" fill="none"><path fill="#FE6901" d="M0 0h40v40H0z"/><rect width="40" height="40" fill="#FE6901" rx="4.5"/><mask id="a" width="40" height="40" x="0" y="0" maskUnits="userSpaceOnUse" style="mask-type:alpha"><rect width="40" height="40" fill="#fff" rx="4.5"/></mask><g fill="#fff" fill-rule="evenodd" clip-rule="evenodd" mask="url(#a)"><path d="M3.317 24.629v2.715h-.63v-3.54h.835l1.715 2.63h.01v-2.63h.63v3.54h-.8l-1.75-2.715zm5.374 2.145v.57H6.556v-3.54h.63v2.97zM25.292 25.727l-.016-.073c-.697-.233-1.388-.128-2.113.041l.335 1.005zm7.35.266c.485.015.893.195 1.297.39q.263.128.538.225c.046.016.158-.02.164-.047q.079-.38.128-.766c.005-.043-.032-.119-.07-.136-.563-.259-1.149-.406-1.775-.329-.179.023-.28.125-.281.312zm-8.114-11.688c.038.008.068.018.1.02.523.039 1.046.073 1.569.115a.44.44 0 0 0 .41-.168c.245-.305.513-.592.733-.912.146-.214.23-.471.33-.714.089-.215-.048-.385-.342-.32-.359.08-.722.171-1.058.317-.59.257-1.09.652-1.521 1.132a.76.76 0 0 0-.22.53m7.124-.152c.219.015.432.025.644.045.604.055 1.175-.004 1.676-.4.324-.255.336-.49-.012-.719a2.3 2.3 0 0 0-.501-.255c-.935-.32-1.906-.48-2.877-.637-.095-.015-.196.01-.362.02.15.216.233.411.378.53.203.166.444.293.685.401a.43.43 0 0 1 .274.345c.036.216.062.435.095.67m7.374-3.455-.036-.003c0-.137.012-.275-.002-.41-.048-.438-.125-.871-.502-1.165-.626-.487-1.345-.656-2.11-.485-.919.207-1.263.965-1.54 1.757-.038.113-.031.243-.04.366-.008.134.05.207.184.256.268.097.535.204.788.333.708.36 1.277.893 1.788 1.49.092.106.179.144.318.124.474-.066.92-.473.992-.949.067-.436.108-.875.16-1.314m-20.443-.05c-.008.423.114.767.31 1.103.322.555.763.999 1.238 1.418.199.175.277.18.477.001a1 1 0 0 0 .122-.126c.334-.452.713-.859 1.176-1.184.41-.288.8-.602 1.218-.878.123-.082.191-.156.165-.288-.099-.508-.26-.989-.742-1.266-.309-.178-.623-.358-.956-.48-.254-.095-.554-.177-.81-.132-.604.106-1.182.317-1.657.731-.34.299-.575.655-.541 1.1m6.6 7.452c.01.037.031.086.03.135q-.002.901-.011 1.803c0 .045-.01.09-.017.136-.053.4-.213.69-.635.843-.36.13-.712.328-1.014.565-.505.396-.75.941-.654 1.597.067.452.372.581.754.343.203-.127.398-.282.62-.364.354-.133.561-.37.63-.728.052-.276.214-.443.45-.57.223-.12.444-.245.65-.39a.45.45 0 0 0 .183-.276c.044-.387.045-.778.088-1.165.104-.936.223-1.869.334-2.804.029-.237.087-.478.072-.713-.024-.378-.516-.792-.924-.79q-1.727.003-3.455.037c-.312.007-.624.075-.972.12.076.121.125.211.185.293.49.667 1.122 1.194 1.74 1.732.182.158.463.265.706.28.401.022.808-.05 1.24-.084m10.743 4.417c-.048-.038-.121-.11-.206-.162-.287-.179-.58-.349-.867-.526-.189-.116-.358-.281-.561-.349-.273-.09-.431-.275-.58-.49-.103-.15-.187-.321-.317-.444-.166-.157-.354-.312-.562-.398-.183-.077-.243-.163-.253-.352-.037-.707-.093-1.413-.14-2.12-.006-.077-.001-.155-.001-.232.23.317.51.54.88.562.384.024.781.02 1.158-.051.417-.079.747-.32.872-.77a.48.48 0 0 1 .325-.336c.434-.15.698-.521 1.024-.811.033-.03.044-.083.076-.147-.212-.021-.397-.051-.583-.057q-1.941-.061-3.882-.112c-.101-.003-.223 0-.301.05-.264.174-.517.364-.765.56-.121.096-.136.232-.1.39.29 1.283.35 2.596.47 3.9.023.246.082.4.305.496.478.205.818.546.983 1.045.114.346.355.538.684.682.53.23 1.054.483 1.486.883.095.087.164.034.206-.04.17-.297.329-.6.493-.9.044-.081.092-.16.156-.271m4.17 7.796c-.036-.012-.076-.016-.108-.035-1.269-.748-2.62-1.327-3.968-1.908-.232-.1-.462-.204-.714-.315-.125.173-.238.347-.37.507-.167.205-.347.4-.526.597-.104.116-.226.111-.352.037l-.42-.246a.4.4 0 0 1-.05-.033 7.13 7.13 0 0 0-3.433-1.518c-.157-.025-.221-.113-.252-.253q-.107-.493-.217-.984c-.085-.387-.06-.436.274-.618.559-.304.9-.755.944-1.406.013-.188.075-.228.253-.166.171.058.34.132.515.175.08.02.188.006.26-.036.273-.157.432-.595.347-.906-.022-.08-.03-.166-.046-.249-.047-.241-.164-.41-.424-.474-.534-.133-1.057-.325-1.597-.416-1.278-.216-2.524-.054-3.724.437-.255.104-.359.325-.36.576 0 .238.026.48.081.712.087.362.305.471.664.343.181-.066.35-.168.525-.253l.203-.098c0 .103.012.167-.002.226-.121.513.119.896.45 1.242.11.116.247.21.38.303.317.22.389.406.296.789q-.093.383-.178.768c-.06.274-.206.423-.477.472-.996.18-1.938.536-2.88.885-.26.096-.49.27-.735.402-.603.326-.81.276-1.212-.273-.098-.134-.192-.322-.326-.365a1.49 1.49 0 0 0-1.048.033 47 47 0 0 0-5.153 2.546c-.119.067-.24.131-.352.209-.126.087-.21.046-.261-.075a2 2 0 0 1-.119-.367 4.4 4.4 0 0 1-.085-.596c-.004-.06.055-.15.11-.183.717-.422 1.422-.87 2.164-1.245 1.13-.573 2.284-1.096 3.43-1.637.23-.109.293-.18.229-.42-.187-.702-.123-.692-.845-.646-1.884.12-3.633.721-5.324 1.517-.112.053-.227.098-.34.146-.03.012-.062.02-.134.042-.042-.2-.086-.392-.122-.585-.115-.613-.12-.628.447-.873.829-.357 1.652-.737 2.505-1.024.602-.204 1.247-.293 1.88-.392.588-.092 1.185-.13 1.778-.192-.112-.984-.796-1.598-1.365-2.28a6 6 0 0 0-.542-.562c-.597-.556-.792-1.31-1.009-2.05-.067-.229.12-.371.366-.294.198.061.387.15.582.223.046.017.098.024.177.042-.01-.07-.014-.117-.023-.163q-.139-.824-.282-1.646c-.036-.205-.095-.405-.12-.61a6 6 0 0 1 .125-2.207c.088-.357.068-.422-.26-.589-.307-.154-.628-.28-.945-.411a.97.97 0 0 1-.498-.443c-.173-.312-.362-.617-.55-.92-.52-.841-.568-1.723-.23-2.637q.247-.666.512-1.326c.121-.303.361-.508.624-.681.304-.2.609-.402.932-.568.178-.091.394-.153.593-.154.681-.003 1.366-.003 2.022.232a8.2 8.2 0 0 1 1.892 1c.57.393.917.97 1.11 1.63.045.158.115.197.27.197.474 0 .956-.033 1.42.038.849.13 1.672.371 2.453.742.06.029.172.027.221-.01.691-.527 1.49-.792 2.33-.933.574-.097 1.157-.139 1.758-.208.04-.242.059-.522.131-.788.27-.99.85-1.71 1.87-1.983a6.7 6.7 0 0 1 1.362-.218c.822-.043 1.587.162 2.159.793.47.52.89 1.083 1.334 1.627v4.532c-.264.357-.587.657-.995.825-.302.125-.47.281-.406.621.005.03-.005.065-.01.097-.189.992-.373 1.986-.568 2.978-.054.27-.142.534-.227.849.21-.125.382-.228.555-.327.18-.101.36-.205.595-.156-.125.832-.293 1.624-.907 2.245-.249.251-.407.559-.521.901-.328.983-.822 1.854-1.744 2.414-.075.045-.173.166-.157.225.035.132.09.272.295.276.742.014 1.478.11 2.194.304.638.173 1.264.389 1.896.586v1.172c-.845-.224-1.687-.457-2.536-.668-.507-.125-1.023-.215-1.553-.325 0 .41-.005.806.007 1.202 0 .047.09.109.15.134.553.239 1.123.443 1.662.71.768.381 1.514.806 2.27 1.212z"/><path d="M40.096 5.27c-.033.02-.07.038-.098.063-.523.464-1.115.522-1.748.284a7 7 0 0 1-.76-.337 6.5 6.5 0 0 0-2.375-.7c-.407-.04-.756.119-1.058.37-.28.234-.56.472-.807.738a3.78 3.78 0 0 1-2.214 1.2c-.684.114-1.357.3-1.975.636l-.035.017c-.38.157-.459.134-.513-.266a21 21 0 0 1-.14-1.649c-.008-.166-.051-.236-.215-.272-.485-.109-.965-.234-1.467-.358-.048.143-.093.341-.179.52-.234.491-.486.974-.73 1.461-.055.112-.12.116-.234.07-1.634-.647-3.06-1.653-4.52-2.602-.146-.096-.275-.219-.427-.34-.114.091-.231.191-.354.285-1.033.786-2.162 1.42-3.274 2.083-.127.076-.24.193-.328.314-.332.45-.65.91-.975 1.366-.056.08-.108.152-.237.099-.497-.208-1-.404-1.5-.605-.022-.01-.042-.028-.084-.056.053-.103.097-.21.16-.305.467-.688.805-1.465 1.38-2.076.583-.622 1.2-1.212 1.803-1.814a.4.4 0 0 1 .134-.076c.567-.242 1.138-.476 1.703-.725.678-.299 1.393-.452 2.118-.571.066-.011.166.01.209.055.9.937 1.968 1.659 3.034 2.384.051.035.1.074.171.129l.775-2.237c.425.2.827.41 1.246.582.414.17.836.354 1.286.062.266-.173.55-.32.834-.465.154-.078.322-.137.49-.183.413-.113.829-.214 1.244-.317.048-.013.1-.01.185-.019-.013.113-.006.213-.038.297-.114.303-.253.598-.36.904a2 2 0 0 0-.116.543c-.018.361-.005.725-.005 1.115.447-.033.808-.18 1.074-.513.33-.411.456-.913.587-1.41.11-.42.212-.84.31-1.232.447.037.87.069 1.292.116.04.004.098.112.094.168-.021.31-.078.62-.084.93-.004.178.008.41.114.522.145.151.38.051.54-.058a25 25 0 0 0 1.094-.813q.286-.221.549-.47c.101-.096.188-.099.313-.047 1.445.605 2.796 1.381 4.11 2.227zM13.376 40.04a11.6 11.6 0 0 0-.928-2.14q-.06-.109-.12-.223c.027-.023.044-.046.067-.054.921-.311 1.836-.644 2.767-.921.432-.13.345-.15.545.253.15.3.322.59.5.914l-.124.134c-.506.559-1.009 1.12-1.52 1.675-.122.133-.27.242-.406.362zM32.556 40.04c-.096-.035-.19-.082-.29-.102-.195-.042-.29-.169-.306-.352-.027-.316-.035-.634-.062-.95-.041-.471-.093-.942-.14-1.413-.019-.197.066-.351.209-.48.468-.417 1.04-.612 1.654-.785.009.101.022.182.022.263.001.598.026 1.197-.006 1.793-.034.624.142 1.206.27 1.8q.026.114.056.226zM28.533 40.04c-.01-.4-.037-.79-.14-1.19-.103-.403-.153-.836-.05-1.27.064-.268.208-.436.446-.515.362-.12.732-.216 1.1-.315.162-.043.33-.07.534-.112.042.215.094.425.122.638q.068.52.113 1.042c.03.349-.07.67-.258.96-.17.26-.359.509-.54.762zM25.564 40.04c-.193-.253-.395-.5-.578-.761a1.87 1.87 0 0 1-.353-.853c-.036-.28-.154-.549-.221-.826-.062-.254.042-.337.264-.457.32-.174.588-.048.88.04.216.064.44.108.662.149.366.068.682.343.713.704.055.671.08 1.345.235 2.004zM40.096 36.954c-1.01-.134-1.575-.348-1.865-1.247-.13-.407-.245-.819-.365-1.23-.016-.054-.016-.113-.033-.235.218.047.407.087.595.13.092.02.182.053.275.068.101.016.208.007.309.027.212.042.339.146.434.374.175.422.429.812.65 1.214zM32.643 33.258l-1.45-1.287-.06.031c.143.533-.066 1.02-.178 1.517-.018.078-.123.184-.199.195-.314.046-.632.063-.949.083a.33.33 0 0 1-.165-.048c-.402-.215-.747-.495-.987-.89-.019-.032-.044-.059-.063-.084-.089.249-.162.497-.266.73-.14.312-.376.49-.739.458-.22-.02-.441-.017-.659-.047-.235-.033-.36-.174-.424-.416-.146-.554-.182-1.114-.169-1.682.003-.11 0-.22 0-.405-.202.143-.373.242-.516.373-.187.17-.356.361-.523.553-.108.125-.193.098-.314.012a1.55 1.55 0 0 1-.593-.81q-.187-.585-.38-1.166c-.038-.112-.005-.176.093-.24a7.3 7.3 0 0 1 3.09-1.165c.983-.139 1.97-.14 2.957-.07 1.108.08 2.187.281 3.187.805.244.128.324.27.305.546-.033.513-.041 1.026-.21 1.519-.162.474-.33.946-.656 1.339-.048.06-.1.114-.132.15M11.981 17.357q-.046-.46-.1-.92c-.069-.587-.138-1.173-.217-1.758-.015-.112 0-.17.1-.239.497-.341.988-.693 1.477-1.048.043-.033.077-.122.068-.177-.086-.55-.196-1.098-.271-1.65-.072-.53-.12-1.07.02-1.59.083-.306.222-.615.405-.873.293-.414.76-.474 1.228-.43.535.052.54.067.454.601-.113.705-.267 1.406-.24 2.125.009.223.038.455.11.665.128.367.297.72.449 1.078.06.143.133.283.184.43.17.492.062.842-.416 1.043-.401.168-.705.44-1.026.707-.49.408-.994.8-1.475 1.218-.203.177-.365.403-.543.61-.058.067-.103.145-.154.218zM15.765 20.758c-.06.382-.104.728-.17 1.068-.05.261-.066.563-.212.761-.145.197-.432.291-.66.423-.955.552-1.745 1.285-2.432 2.142-.447.558-.93 1.089-1.397 1.631-.015.018-.038.03-.088.066l-.059-.654c-.041-.466-.027-.945-.14-1.394-.11-.445-.131-.883-.138-1.33-.002-.125.036-.198.142-.269.66-.44 1.306-.903 1.975-1.328.287-.183.61-.321.933-.432.681-.233 1.373-.436 2.06-.65.037-.01.075-.014.186-.034M11.962 21.267c-.06-.303-.1-.61-.183-.906-.21-.754-.132-1.505-.019-2.26a.67.67 0 0 1 .394-.54 7.1 7.1 0 0 1 2.197-.701c.34-.047.68-.098 1.023-.13a2 2 0 0 1 .483.02c.207.035.293.205.248.41-.076.348-.13.7-.221 1.043-.03.11-.138.21-.233.285-.162.127-.349.222-.514.345q-1.177.87-2.344 1.753c-.206.157-.395.338-.585.516-.06.057-.095.14-.142.211zM11.875 33.626c-.165-.448-.354-.843-.455-1.26-.18-.743-.316-1.494-.332-2.266-.015-.792-.068-1.584-.114-2.375-.01-.164.058-.24.193-.312.585-.311 1.165-.633 1.747-.95.079-.043.16-.08.287-.145-.054.253-.091.46-.142.662a5.8 5.8 0 0 0-.179 1.913c.043.488.19.965.287 1.448q.099.486.181.974a.4.4 0 0 1-.03.205 6.6 6.6 0 0 1-1.108 1.801c-.1.114-.225.205-.335.305M35.116 35.265l1.21.449c.073.027.143.062.218.08.332.084.422.199.416.546-.001.071-.014.142-.016.214-.03 1.004.318 1.9.793 2.76q.052.09.106.18c-.301.289-.663.207-1.012.195-.408-.014-.676-.233-.9-.56-.652-.951-1.007-1.985-.921-3.148.017-.229.066-.455.106-.716M19.782 37.338c-.49-.26-.947-.502-1.402-.748-.189-.102-.373-.211-.56-.316a.57.57 0 0 1-.295-.39c-.157-.684-.306-1.369-.29-2.076.007-.35.107-.68.305-.97.18-.266.301-.296.585-.159.292.14.593.262.791.546.212.304.207.645.166.977-.054.44.036.852.154 1.265.175.61.355 1.219.546 1.871M12.5 36.845c-.026-.29-.044-.534-.07-.776q-.055-.533-.121-1.064c-.007-.055-.036-.11-.062-.16-.05-.1-.11-.193-.158-.292-.172-.35-.153-.486.195-.657.628-.309 1.043-.891 1.64-1.235.033-.019.063-.043.105-.073.361.311.65.67.848 1.103.194.424.19.413-.14.734a89 89 0 0 0-1.558 1.56.9.9 0 0 0-.177.294c-.096.232-.263.393-.502.565M22.42 38.506c-.128-.294-.265-.586-.381-.885-.105-.272-.153-.57-.286-.827-.202-.39-.45-.756-.69-1.125a.39.39 0 0 1-.057-.368c.108-.392.172-.797.245-1.199.04-.216.101-.25.317-.175.692.241 1.096.748 1.353 1.412.348.9.304 1.762-.186 2.6-.1.172-.166.363-.248.545z"/></g></svg>