<svg fill="none" height="24" viewBox="0 0 32 24" width="32" xmlns="http://www.w3.org/2000/svg"><path d="m28 0h-24c-2.20914 0-4 1.79086-4 4v16c0 2.2091 1.79086 4 4 4h24c2.2091 0 4-1.7909 4-4v-16c0-2.20914-1.7909-4-4-4z" fill="#d10600"/><path clip-rule="evenodd" d="m0 3.3741c0-1.98261 1.57741-3.3741 3.40799-3.3741 2.41053 0 3.26175 2.25391 3.26175 5.03412 0 .02316-1.67666 1.42415-1.67666 3.85976 0 1.88782.82544 2.49012 1.6543 2.83072l.04827.1886s-4.53031.9601-4.53031-3.50505c0-1.60931.86659-2.39615.86659-3.82106 0-.4577-.39542-1.09872-1.25631-1.09872-.819322 0-1.270559.61066-1.270559 1.08913l-.173005.00303c-.199632-.35347-.332056-.77022-.332056-1.20643zm10.6046 6.47611s-.0501-.85404-.5664-.85404c-.46253 0-.71759.42216-.71759.42216s.53432.42996.53432 1.09817c0 .6904-1.3901 1.3685-1.98664 1.4835-.13637-.3347-.21612-.7069-.21612-1.0717 0-1.51552 1.00659-2.9283 2.63433-2.9283 1.2048 0 .5193 1.89321.5193 1.89321zm-1.99798-4.32797c0 .28699-.22034.52321-.49967.52321-.27673 0-.50033-.23622-.50033-.52321 0-.28881.2236-.52224.50033-.52224.27933 0 .49967.23343.49967.52224zm1.43878-1.83282s.4763.52171.4763 1.35265c0 .8295-.57245 1.95793-.57245 1.95793l-.27622-.06126s.49937-1.06948-.66237-2.03241c-1.07012-.88597-1.18863-.6091-1.33962-1.61688-.07943-.54546.10119-1.28901.36897-1.78715l.17675.06612c-.00515.92954.32031 1.59554.32031 1.59554s.54114-.04049.80391.06193c0 .00417.29126-.68915.22986-1.65378l.17933-.07211c.58593 1.09619.29523 2.18942.29523 2.18942z" fill="#fff" fill-rule="evenodd" transform="translate(10 6)"/></svg>