<?xml version="1.0" encoding="UTF-8" standalone="no"?>
<!-- Generator: Adobe Illustrator 27.0.0, SVG Export Plug-In . SVG Version: 6.00 Build 0)  -->

<svg
   version="1.1"
   id="Laag_1"
   x="0px"
   y="0px"
   viewBox="0 0 40 40"
   xml:space="preserve"
   sodipodi:docname="ideal-issuer-asn-bank-ideal-hub-40x40.svg"
   width="40"
   height="40"
   inkscape:version="1.3.2 (091e20e, 2023-11-25)"
   xmlns:inkscape="http://www.inkscape.org/namespaces/inkscape"
   xmlns:sodipodi="http://sodipodi.sourceforge.net/DTD/sodipodi-0.dtd"
   xmlns="http://www.w3.org/2000/svg"
   xmlns:svg="http://www.w3.org/2000/svg"><defs
   id="defs6" /><sodipodi:namedview
   id="namedview6"
   pagecolor="#ffffff"
   bordercolor="#666666"
   borderopacity="1.0"
   inkscape:showpageshadow="2"
   inkscape:pageopacity="0.0"
   inkscape:pagecheckerboard="true"
   inkscape:deskcolor="#d1d1d1"
   inkscape:zoom="1.3798749"
   inkscape:cx="126.09839"
   inkscape:cy="69.209173"
   inkscape:window-width="1488"
   inkscape:window-height="990"
   inkscape:window-x="3195"
   inkscape:window-y="299"
   inkscape:window-maximized="0"
   inkscape:current-layer="g7" />
<style
   type="text/css"
   id="style1">
	.st0{fill:#E84632;}
</style>

<g
   id="g7"
   transform="scale(0.23308665)"><g
     id="g6">
	<path
   class="st0"
   d="M 135.16,90.86"
   id="path1" />
	<path
   class="st0"
   d="M 125.09,74.89"
   id="path2" />
	<path
   class="st0"
   d="m 57.08,95.49 c 0.76,-3.62 2.01,-7.07 3.67,-10.27 0.99,-1.9 1.78,-3.9 2.23,-5.99 0.21,-0.95 0.35,-1.92 0.35,-2.78 0,-8.69 -7.05,-15.73 -15.73,-15.73 -6.55,0 -12.16,4 -14.53,9.69 C 32.35,67.57 31.98,64.6 32,61.53 32.13,42.13 47.78,26.59 67.18,26.59 c 18.85,0 34.24,14.82 35.14,33.45 0.39,7.96 -2.43,15.28 -6.72,21.88 -5.6,8.63 -11.96,16.71 -11.95,27.49 0,15.63 10.22,28.87 24.33,33.42 -3.73,1.07 -7.68,1.63 -11.77,1.57 C 74.8,144.12 57.13,126.97 56.24,105.57 56.1,102.12 56.4,98.73 57.08,95.49"
   id="path3" />
	<path
   class="st0"
   d="M 94.61,84.44"
   id="path4" />
	<circle
   class="st0"
   cx="115.28"
   cy="77.529999"
   r="3.4300001"
   id="circle4" />
	<path
   class="st0"
   d="m 128.79,118.1 c -0.3,-6.02 3.18,-11.35 8.36,-13.69 0,-0.05 0,-0.1 0,-0.15 -1.45,-0.28 -2.95,-0.43 -4.49,-0.43 -12.89,0 -23.33,10.45 -23.33,23.34 0,5.04 1.6,9.69 4.32,13.51 7.23,-3.35 13.29,-8.77 17.46,-15.5 -1.35,-2.05 -2.19,-4.46 -2.32,-7.08 z"
   id="path5" />
	<path
   class="st0"
   d="m 133.67,62.87 c 0.9,-2.32 1.39,-4.83 1.39,-7.46 0,-3.78 -1.04,-7.31 -2.81,-10.36 -0.67,4.81 -2.6,9.2 -5.45,12.84 -0.07,0.1 -0.12,0.21 -0.19,0.31 -1.23,-0.65 -2.56,-1.29 -4,-1.94 -1.06,-0.54 -2.01,-1.12 -2.86,-1.71 -3.59,-2.08 -6.29,-5.53 -7.38,-9.64 -0.68,2.24 -1.04,4.61 -1.04,7.07 0,8.13 3.97,15.33 10.08,19.77 l 0.06,0.04 c 1.26,0.97 2.47,1.98 3.61,3.1 4.51,4.41 8,9.87 10.07,15.97 2.12,-2.86 3.58,-6.23 4.16,-9.9 0.19,-1.17 0.29,-2.37 0.29,-3.59 0.01,-6.37 -1.73,-10.76 -5.93,-14.5 z"
   id="path6" />
</g></g></svg>
