<?xml version="1.0" encoding="UTF-8"?><svg
   width="640"
   height="360"
   viewBox="0 0 640 360"
   version="1.1"
   id="svg1"
   sodipodi:docname="ideal-issuer-asn-bank-640x360.svg"
   inkscape:version="1.3.2 (091e20e, 2023-11-25)"
   xmlns:inkscape="http://www.inkscape.org/namespaces/inkscape"
   xmlns:sodipodi="http://sodipodi.sourceforge.net/DTD/sodipodi-0.dtd"
   xmlns="http://www.w3.org/2000/svg"
   xmlns:svg="http://www.w3.org/2000/svg"
   xmlns:rdf="http://www.w3.org/1999/02/22-rdf-syntax-ns#"
   xmlns:cc="http://creativecommons.org/ns#"
   xmlns:dc="http://purl.org/dc/elements/1.1/">
  <defs
     id="defs1" />
  <sodipodi:namedview
     id="namedview1"
     pagecolor="#ffffff"
     bordercolor="#666666"
     borderopacity="1.0"
     inkscape:showpageshadow="2"
     inkscape:pageopacity="0.0"
     inkscape:pagecheckerboard="true"
     inkscape:deskcolor="#d1d1d1"
     inkscape:zoom="1"
     inkscape:cx="62"
     inkscape:cy="40"
     inkscape:window-width="1896"
     inkscape:window-height="1057"
     inkscape:window-x="2059"
     inkscape:window-y="336"
     inkscape:window-maximized="0"
     inkscape:current-layer="svg1" />
  <title
     id="title1">00_Logos/Logo-ASN</title>
  <g
     id="00_Logos/Logo-ASN"
     stroke="none"
     stroke-width="1"
     fill="none"
     fill-rule="evenodd"
     transform="matrix(4.0980421,0,0,4.0980421,63.999635,132.35652)">
    <g
       id="logo">
      <path
         d="m 92.679875,15.534154 v 3.577143 c 0,0.423077 -0.197004,0.817143 -0.527952,1.054725 -0.439624,0.314945 -2.002236,1.343736 -3.645572,1.343736 -1.560152,0 -3.381709,-0.811648 -3.381709,-3.10022 0,-1.621098 0.905412,-2.302197 3.341458,-2.512527 z m 1.35644,5.665494 c 0,-0.0059 2.24e-4,-0.01231 6.71e-4,-0.02 l 0.004,-8.19912 c 0,-2.9989016 -1.257156,-4.1672533 -4.483229,-4.1672533 -1.792934,0 -3.076476,0.3378022 -3.837209,0.6210989 l -0.313954,0.1167033 v 1.3575821 l 0.653399,-0.240439 c 0.545393,-0.2 1.70796,-0.535824 3.367844,-0.535824 2.58475,0 3.253578,0.617143 3.253578,3.002857 v 1.055824 l -4.332961,0.372747 c -2.13059,0.184176 -4.576923,0.787693 -4.576923,3.845714 0,3.066154 2.377907,4.438682 4.734795,4.438682 1.780635,0 3.372763,-0.88066 4.189177,-1.427033 v 0.154945 c 0,0.522857 0.432692,0.948132 0.978309,0.948132 h 2.24e-4 l 1.974284,-0.09692 v -1.101099 l -1.547406,-0.111429 c -0.02773,-0.0057 -0.04897,-0.01077 -0.06462,-0.01516 z"
         id="Fill-1"
         fill="#525252" />
      <path
         d="M 92.492934,15.734725 88.482424,16.08 c -2.341011,0.202198 -3.170841,0.811868 -3.170841,2.32967 0,2.152528 1.72093,2.916484 3.194768,2.916484 1.586538,0 3.10711,-1.001758 3.535331,-1.308572 0.282647,-0.202857 0.451252,-0.541758 0.451252,-0.906373 z m -3.986583,5.958901 c -1.646244,0 -3.56865,-0.86 -3.56865,-3.283956 0,-1.721758 0.984571,-2.477582 3.512075,-2.695824 l 4.41704,-0.38022 v 3.777583 c 0,0.481538 -0.226074,0.931209 -0.604651,1.203077 -0.451476,0.323736 -2.056351,1.37934 -3.755814,1.37934 z M 89.427862,9.9485714 c 2.701029,0 3.440519,0.6850546 3.440519,3.1865936 v 1.224176 l -4.503578,0.387472 c -2.178891,0.188352 -4.406306,0.770769 -4.406306,3.662857 0,2.939121 2.284213,4.254945 4.547854,4.254945 1.739937,0 3.305679,-0.874285 4.084078,-1.395384 l 0.29204,-0.195605 v 0.502638 c 0,0.421538 0.355098,0.764176 0.791368,0.764176 l 1.787567,-0.08769 v -0.755604 l -1.398032,-0.102418 c -0.0331,-0.0066 -0.05836,-0.01275 -0.07715,-0.01802 l -0.136851,-0.03736 0.0047,-8.358901 c 0,-2.903737 -1.164356,-3.9835169 -4.296288,-3.9835169 -1.765206,0 -3.024821,0.3314286 -3.77102,0.6092308 L 85.59356,9.678022 v 0.965495 l 0.400939,-0.147473 c 0.557916,-0.204396 1.745528,-0.5474726 3.433363,-0.5474726 z M 88.506351,23.032088 c -2.449911,0 -4.921736,-1.429231 -4.921736,-4.622418 0,-3.207252 2.53712,-3.837802 4.747541,-4.029011 l 4.162343,-0.358022 v -0.887472 c 0,-2.292088 -0.573345,-2.819121 -3.066637,-2.819121 -1.629025,0 -2.768336,0.328571 -3.302549,0.524176 l -0.905635,0.333406 V 9.4241758 l 0.434705,-0.1617582 c 0.775268,-0.2885714 2.081842,-0.632967 3.903399,-0.632967 3.317084,0 4.67017,1.2606593 4.67017,4.3512084 l -0.0038,8.058682 1.611136,0.116263 v 1.446594 l -2.151833,0.105494 h -4.48e-4 c -0.589222,0 -1.072898,-0.414945 -1.160331,-0.955384 -0.877012,0.544835 -2.366502,1.27978 -4.016323,1.27978 z"
         id="Fill-3"
         fill="#525252" />
      <path
         d="m 9.0953265,15.534154 v 3.577143 c 0,0.423077 -0.1972272,0.817143 -0.5279517,1.054725 -0.4396243,0.314945 -2.0022362,1.343736 -3.6457961,1.343736 -1.5599284,0 -3.3814848,-0.811648 -3.3814848,-3.10022 0,-1.621098 0.9054115,-2.302197 3.341458,-2.512527 z m 1.3564405,5.665494 c 0,-0.0059 2.23e-4,-0.01231 6.7e-4,-0.02 l 0.004,-8.19912 c 0,-2.9989016 -1.2571552,-4.1672533 -4.4832285,-4.1672533 -1.7929339,0 -3.0764759,0.3378022 -3.837433,0.6210989 L 1.821847,9.5510769 V 10.908659 L 2.4754696,10.66822 c 0.5453935,-0.2 1.7079606,-0.535824 3.3678443,-0.535824 2.584526,0 3.2533543,0.617143 3.2533543,3.002857 v 1.055824 L 4.7639311,14.563824 C 2.6333408,14.748 0.18700805,15.351517 0.18700805,18.409538 c 0,3.066154 2.37790695,4.438682 4.73457065,4.438682 1.7808587,0 3.3729875,-0.88066 4.1894007,-1.427033 v 0.154945 c 0,0.522857 0.4326923,0.948132 0.9780856,0.948132 h 4.48e-4 l 1.97406,-0.09692 v -1.101099 l -1.547406,-0.111429 c -0.02773,-0.0057 -0.04875,-0.01077 -0.0644,-0.01516 z"
         id="Fill-5"
         fill="#525252" />
      <path
         d="M 8.9084079,15.734725 4.8976744,16.08 c -2.3407871,0.202198 -3.1706171,0.811868 -3.1706171,2.32967 0,2.152528 1.7209302,2.916484 3.1945438,2.916484 1.5865384,0 3.1073345,-1.001758 3.5355545,-1.308572 0.282424,-0.203077 0.4512523,-0.541758 0.4512523,-0.906373 z m -3.9868068,5.958901 c -1.6460197,0 -3.5684258,-0.86 -3.5684258,-3.283956 0,-1.721758 0.9845707,-2.477582 3.5118515,-2.695824 l 4.417263,-0.38022 v 3.777583 c 0,0.481538 -0.2260733,0.931209 -0.6046512,1.203077 -0.4514758,0.323736 -2.0565742,1.37934 -3.7560375,1.37934 z M 5.8431127,9.9485714 c 2.7010286,0 3.4405188,0.6850546 3.4405188,3.1865936 v 1.224176 l -4.5033542,0.387472 c -2.1788909,0.188352 -4.40652954,0.770769 -4.40652954,3.662857 0,2.939121 2.28421284,4.254945 4.54785334,4.254945 1.7399374,0 3.3059034,-0.874285 4.0843023,-1.395384 l 0.2920394,-0.195605 v 0.502638 c 0,0.421538 0.3550983,0.764176 0.7911452,0.764176 l 1.787567,-0.08769 v -0.755604 l -1.397809,-0.102418 c -0.03332,-0.0068 -0.05881,-0.01297 -0.07737,-0.01824 l -0.136628,-0.03736 0.0047,-8.358681 c 0,-2.903737 -1.1643562,-3.9835169 -4.2962882,-3.9835169 -1.7649821,0 -3.0248211,0.3314286 -3.7710197,0.6092308 L 2.0088104,9.678022 v 0.965495 L 2.4099732,10.496044 C 2.9681127,10.291648 4.1557245,9.9485714 5.8431127,9.9485714 Z M 4.9216011,23.032088 c -2.449687,0 -4.921511654562,-1.429231 -4.921511654562,-4.622418 0,-3.207252 2.537119854562,-3.837802 4.747540254562,-4.029011 l 4.1621199,-0.358022 v -0.887472 c 0,-2.292088 -0.5731217,-2.819121 -3.0666369,-2.819121 -1.6288014,0 -2.7681127,0.328571 -3.3023256,0.524176 L 1.6349284,11.173626 V 9.4241758 L 2.0698569,9.2624176 c 0.7752683,-0.2885714 2.0818426,-0.632967 3.9033989,-0.632967 3.3170841,0 4.6701702,1.2606593 4.6701702,4.3512084 l -0.004,8.058682 1.611136,0.116263 v 1.446594 l -2.151834,0.105494 h -4.47e-4 c -0.5889984,0 -1.0726746,-0.414945 -1.1601075,-0.955384 -0.8770125,0.544835 -2.3665027,1.27978 -4.0165474,1.27978 z"
         id="Fill-7"
         fill="#525252" />
      <path
         d="m 80.835555,15.690615 c 0,2.12989 -0.620975,5.702418 -4.780859,5.702418 -1.489938,0 -2.586091,-0.331429 -3.349732,-1.013626 -0.264087,-0.235825 -0.415698,-0.58989 -0.415698,-0.970989 v -7.427253 c 0,-0.389011 0.154517,-0.745714 0.424419,-0.978901 0.76297,-0.659561 1.856217,-0.98 3.341011,-0.98 3.217129,0 4.780859,1.854285 4.780859,5.668351 M 76.054696,8.7314945 c -1.57178,0 -2.810152,0.3153846 -3.76543,0.9615385 V 4.8490769 c 0,-0.4967033 -0.411672,-0.9010989 -0.93135,-0.9010989 h -6.71e-4 l -1.838998,0.08967 v 1.014945 l 1.441413,0.1032967 c 0.01275,0.00242 0.02415,0.00462 0.03354,0.00681 L 70.992753,22.4216 h 1.115608 l 0.08833,-0.784615 c 0.968694,0.703516 2.23703,1.046813 3.858005,1.046813 3.868068,0 6.086538,-2.548791 6.086538,-6.993187 0,-4.552747 -2.104874,-6.9591201 -6.086538,-6.9591201"
         id="Fill-9"
         fill="#525252" />
      <path
         d="m 76.054718,10.205978 c -1.437835,0 -2.490384,0.305714 -3.217576,0.934286 -0.229427,0.198022 -0.360912,0.504615 -0.360912,0.840879 v 7.427253 c 0,0.32967 0.129249,0.633846 0.354427,0.834945 0.727415,0.650109 1.782201,0.965934 3.224061,0.965934 3.997093,0 4.593918,-3.457583 4.593918,-5.518682 0,-3.690549 -1.502683,-5.484615 -4.593918,-5.484615 z m 0,11.370769 c -1.539132,0 -2.675984,-0.347252 -3.475626,-1.061318 -0.302773,-0.27055 -0.476744,-0.674066 -0.476744,-1.107033 v -7.427253 c 0,-0.441758 0.177773,-0.849011 0.487701,-1.116923 0.798748,-0.69033 1.932022,-1.0257145 3.464669,-1.0257145 3.3428,0 4.9678,1.9142855 4.9678,5.8520875 0,5.121539 -3.112478,5.886154 -4.9678,5.886154 z m -4.008273,-0.277143 0.26118,0.189671 c 0.936718,0.680219 2.162567,1.010769 3.747093,1.010769 3.749329,0 5.899598,-2.481758 5.899598,-6.809451 0,-4.432527 -2.040027,-6.7753842 -5.899598,-6.7753842 -1.538238,0 -2.735241,0.303956 -3.659436,0.9292308 L 72.102348,10.042681 V 4.8490549 c 0,-0.3956043 -0.333855,-0.7173626 -0.74441,-0.7173626 l -1.652951,0.080659 v 0.6692308 l 1.330277,0.101978 0.144901,0.032747 -4.47e-4,17.2215379 h 0.761181 z m 4.008273,1.567912 c -1.525715,0 -2.742397,-0.296483 -3.706619,-0.905055 l -0.07245,0.642858 H 70.805836 L 70.806284,5.3283956 69.331328,5.2233407 V 3.8629011 l 2.016548,-0.098461 h 4.47e-4 c 0.626565,0 1.127907,0.4865934 1.127907,1.0846153 V 9.358506 c 0.942531,-0.5450549 2.117397,-0.8107692 3.578488,-0.8107692 4.104204,0 6.27348,2.4698902 6.27348,7.1428572 0,4.561098 -2.286673,7.176922 -6.27348,7.176922 z"
         id="Fill-11"
         fill="#525252" />
      <path
         d="m 124.26682,21.43345 c -0.88171,0 -1.00582,-0.04901 -2.49441,-1.75956 l -3.92822,-4.538461 4.77415,-4.421978 c 0.46914,-0.441099 0.46914,-0.441099 1.63573,-0.575825 l 0.47361,-0.05516 V 8.9826813 h -4.91189 v 1.0973627 l 1.46489,0.116703 -4.52236,4.185275 c -0.0179,0.01319 -0.0959,0.03824 -0.20304,0.03824 l -1.11315,-2.2e-4 -0.002,-9.5551649 c 0,-0.5074725 -0.44946,-0.9360439 -0.99486,-0.9360439 h -4.4e-4 l -1.9725,0.094725 v 1.0428572 l 1.54584,0.1083516 c 0.0293,0.00549 0.0523,0.010769 0.0698,0.015604 l -6.7e-4,15.990109 c 0,0.0026 0,0.0057 4.5e-4,0.0086 -0.006,0.0015 -0.0116,0.0031 -0.0183,0.0046 l -1.59392,0.117363 v 1.13033 h 4.58207 v -1.13077 l -1.54808,-0.11011 c -0.0291,-0.0057 -0.0512,-0.01077 -0.0675,-0.01516 4.5e-4,-0.0055 4.5e-4,-0.01187 6.7e-4,-0.01824 L 115.44213,15.724 h 1.072 c 0.0729,0 0.142,0.03121 0.18896,0.08593 l 3.99776,4.639121 c 1.35152,1.572967 2.0038,2.213406 3.02504,2.213406 0.40698,0 0.67979,-0.0567 0.8305,-0.170989 l 0.19433,-0.142197 V 21.43345 Z"
         id="Fill-13"
         fill="#525252" />
      <path
         d="m 115.25512,15.540264 h 1.25895 c 0.12835,0 0.2491,0.05495 0.33184,0.150989 l 3.99754,4.638901 c 1.31194,1.526813 1.93985,2.148571 2.88238,2.148571 0.44745,0 0.63662,-0.07209 0.71645,-0.132747 l 0.12143,-0.08901 v -0.63978 h -0.29696 c -0.98055,0 -1.15295,-0.119341 -2.63641,-1.823737 l -4.0436,-4.671868 4.9034,-4.541978 c 0.51342,-0.482637 0.55948,-0.487912 1.74217,-0.6243952 l 0.30836,-0.036044 V 9.1664176 h -4.53801 v 0.7441758 l 1.71243,0.1362636 -4.82871,4.468791 c -0.0903,0.06857 -0.23233,0.08835 -0.33117,0.08835 l -1.30009,-2.2e-4 -0.002,-9.7389009 c 0,-0.4076923 -0.37008,-0.7523077 -0.80791,-0.7523077 l -1.78578,0.085934 v 0.6969231 l 1.37209,0.096044 c 0.0568,0.00923 0.0847,0.016044 0.10599,0.021758 l 0.13753,0.037143 -9e-4,16.1301095 0.0257,0.164176 -0.21646,0.03231 -1.42107,0.104615 v 0.776044 h 4.20819 v -0.776044 l -1.39803,-0.100879 c -0.034,-0.0068 -0.0593,-0.01275 -0.0785,-0.01758 l -0.15049,-0.03934 0.0119,-0.152527 z m 8.47071,7.305934 c -1.1004,0 -1.77639,-0.659341 -3.16794,-2.278462 l -3.99731,-4.639121 c -0.0114,-0.01319 -0.0284,-0.02088 -0.0465,-0.02088 H 115.629 l 6.7e-4,5.117363 1.61494,0.114725 v 1.485275 h -4.95595 v -1.484396 l 1.61181,-0.118681 8.9e-4,-15.6723077 -1.6156,-0.1120879 v -1.389011 l 2.15004,-0.1032967 h 4.5e-4 c 0.64982,0 1.19096,0.5127472 1.19096,1.1195604 l 0.002,9.3714289 0.92643,2.19e-4 c 0.0465,0 0.0825,-0.0066 0.1013,-0.01143 l 4.1894,-3.878681 -1.21735,-0.09692 V 8.7989451 h 5.28578 v 1.4468129 l -0.63842,0.07451 c -1.10465,0.127472 -1.10465,0.127472 -1.52862,0.525934 l -4.64602,4.303296 3.81328,4.405495 c 1.47496,1.694725 1.55792,1.694725 2.35197,1.694725 h 0.67084 v 1.191868 l -0.26945,0.197143 c -0.18605,0.141099 -0.48614,0.207473 -0.94231,0.207473 z"
         id="Fill-15"
         fill="#525252" />
      <path
         d="m 18.678175,14.805055 c -2.400268,-0.696484 -3.250894,-1.334725 -3.250894,-2.438462 0,-0.522857 0.259615,-1.054725 0.711986,-1.458681 0.39669,-0.354505 1.135733,-0.776923 2.40228,-0.776923 0.899821,0 1.767219,0.218242 2.578042,0.649231 0.180456,0.09538 0.276386,0.214945 0.286001,0.353626 l 0.122764,1.894066 h 1.20729 l 0.07938,-3.6657142 h -1.131261 l -0.0322,0.098901 C 21.034613,9.1556043 19.979381,8.776923 18.541545,8.776923 c -2.166145,0 -4.468246,1.258242 -4.468246,3.58967 0,2.132308 1.622987,3.02 4.240831,3.761539 2.100179,0.597362 3.838551,1.213846 3.838551,2.711428 0,1.366814 -1.538014,2.478682 -3.428443,2.478682 -1.028623,0 -1.955725,-0.250989 -2.756262,-0.745715 -0.321779,-0.198241 -0.551654,-0.528351 -0.63059,-0.905274 l -0.267889,-1.283077 h -1.193202 l 0.262075,4.019121 1.10331,0.01231 0.06261,-0.384615 c 0.01454,-0.0956 0.02773,-0.183077 0.03936,-0.263077 0.790922,0.452088 1.941414,0.903956 3.380591,0.903956 2.68135,0 4.781753,-1.683516 4.781753,-3.832308 0,-2.588791 -2.335868,-3.288351 -4.827818,-4.034505"
         id="Fill-17"
         fill="#525252" />
      <path
         d="m 15.197965,21.472066 0.239714,0.136923 c 0.701252,0.401099 1.840787,0.879121 3.286449,0.879121 2.576699,0 4.595036,-1.602638 4.595036,-3.648572 0,-2.452747 -2.175537,-3.104395 -4.694768,-3.858461 -2.498435,-0.725275 -3.384168,-1.409451 -3.384168,-2.614506 0,-0.574505 0.281977,-1.155824 0.773032,-1.594725 0.421288,-0.376264 1.201923,-0.8246152 2.528399,-0.8246152 0.931574,0 1.828936,0.2257142 2.666816,0.6712092 0.299419,0.158461 0.373882,0.361099 0.383497,0.503077 l 0.111807,1.722637 h 0.848837 l 0.07133,-3.2982419 H 21.820282 L 21.763037,9.721956 21.567598,9.625033 C 20.955344,9.321956 19.933207,8.9606374 18.541659,8.9606374 c -2.075581,0 -4.281306,1.1936266 -4.281306,3.4059336 0,2.017143 1.570886,2.867033 4.105546,3.585055 2.174195,0.618462 3.973614,1.262638 3.973614,2.887912 0,1.468132 -1.62187,2.662418 -3.615385,2.662418 -1.063954,0 -2.024821,-0.26044 -2.855546,-0.774066 -0.364937,-0.224615 -0.625223,-0.597802 -0.714222,-1.023736 L 14.917106,18.56789 h -0.841681 l 0.238372,3.653626 0.768784,0.0086 z m 3.526163,1.383516 c -1.373882,0 -2.485912,-0.407912 -3.235018,-0.798241 v 8.79e-4 l -0.0881,0.542857 -1.438059,-0.01604 -0.286002,-4.384615 h 1.544947 l 0.298524,1.42989 c 0.06865,0.327912 0.267889,0.614725 0.546735,0.786373 0.770573,0.476264 1.66458,0.717803 2.656977,0.717803 1.787343,0 3.241503,-1.029451 3.241503,-2.294946 0,-1.36989 -1.677102,-1.958461 -3.703489,-2.534945 -2.701252,-0.765054 -4.375671,-1.690769 -4.375671,-3.938022 0,-2.4509886 2.39848,-3.7734062 4.655188,-3.7734062 1.325582,0 2.336539,0.3134066 2.997317,0.6107693 l 0.0083,-0.025494 h 1.458631 l -0.08721,4.0331869 h -1.565966 l -0.133721,-2.065934 c -0.0049,-0.07165 -0.0682,-0.140439 -0.188059,-0.203956 -0.783095,-0.416044 -1.620528,-0.627033 -2.489267,-0.627033 -1.207066,0 -1.904293,0.396484 -2.276833,0.729011 -0.413462,0.369451 -0.650716,0.851649 -0.650716,1.322857 0,1.002418 0.815742,1.594506 3.11695,2.262198 l 0.0016,4.4e-4 c 2.550984,0.763736 4.960421,1.485274 4.960421,4.210328 0,2.252088 -2.182693,4.016044 -4.968918,4.016044 z"
         id="Fill-19"
         fill="#525252" />
      <path
         d="m 37.125537,21.171385 c 4.47e-4,-0.0057 4.47e-4,-0.01187 6.7e-4,-0.01824 l 0.002,-8.258242 c 0,-1.469231 -0.275492,-2.415824 -0.891995,-3.0694505 -0.695662,-0.7367032 -1.811717,-1.08 -3.512075,-1.08 -2.101968,0 -3.535107,0.6063737 -4.446556,1.2208792 V 9.8327033 c 0,-0.510989 -0.427102,-0.9268132 -0.964669,-0.9268132 h -8.95e-4 l -1.915026,0.096483 v 1.0349459 l 1.501565,0.107032 c 0.01588,0.0031 0.02974,0.0059 0.04159,0.0088 l -0.02124,11.013405 c 0,0.0026 0,0.0055 2.23e-4,0.0086 -0.0054,0.0015 -0.01163,0.0031 -0.01789,0.0046 L 25.306874,21.2969 v 1.13011 h 4.58229 v -1.13033 l -1.54784,-0.11035 c -0.02929,-0.0055 -0.05143,-0.01055 -0.06776,-0.01539 2.23e-4,-0.0053 2.23e-4,-0.01143 6.71e-4,-0.0178 l 2.23e-4,-8.84967 c 0,-0.405934 0.192532,-0.784396 0.527952,-1.038242 1.089445,-0.824616 2.335644,-1.208572 3.921735,-1.208572 2.555904,0 3.007827,0.698022 3.044052,2.925055 l 0.0027,8.185275 c 0,0.0026 0,0.0055 4.48e-4,0.0081 -0.0054,0.0015 -0.01163,0.0031 -0.01789,0.0046 l -1.594142,0.117143 v 1.13011 h 4.58229 v -1.13033 L 37.191279,21.18611 c -0.02818,-0.0053 -0.04964,-0.01033 -0.06574,-0.01472"
         id="Fill-21"
         fill="#525252" />
      <path
         d="m 34.34631,22.243231 h 4.208408 v -0.775605 l -1.39915,-0.101099 c -0.03354,-0.0066 -0.05948,-0.01275 -0.07894,-0.0178 l -0.148926,-0.03956 0.0114,-0.15055 0.002,-8.263736 c 0,-1.419121 -0.259615,-2.327253 -0.841905,-2.9443955 -0.658095,-0.6969231 -1.730322,-1.0213187 -3.375,-1.0213187 -2.130143,0 -3.536449,0.6463737 -4.34101,1.1885712 l -0.292711,0.197363 V 9.8326813 c 0,-0.4096703 -0.348837,-0.7430769 -0.777728,-0.7430769 l -1.728756,0.087253 v 0.6896704 l 1.351744,0.097582 c 0.01945,0.00396 0.036,0.00747 0.05009,0.010989 l 0.141548,0.034945 -0.02147,11.156923 0.0161,0.148571 -0.206619,0.04747 -1.421512,0.104396 v 0.775824 h 4.208185 v -0.775605 l -1.37433,-0.09802 c -0.05859,-0.0099 -0.08631,-0.01648 -0.106887,-0.02242 l -0.142889,-0.04132 0.0089,-0.145934 6.7e-4,-8.856483 c 0,-0.463517 0.219142,-0.895165 0.60085,-1.183737 1.123882,-0.850549 2.406082,-1.2468145 4.035778,-1.2468145 2.699911,0 3.19365,0.8138475 3.23077,3.1059355 l 0.0029,8.178462 0.02437,0.144395 -0.214892,0.06132 -1.421065,0.104396 z m 4.58229,0.367472 h -4.956172 v -1.484175 l 1.611584,-0.118462 -0.0029,-8.026374 c -0.03444,-2.123077 -0.413462,-2.741318 -2.856888,-2.741318 -1.54271,0 -2.752683,0.372088 -3.807692,1.170329 -0.289132,0.218901 -0.455054,0.544176 -0.455054,0.892748 l -4.47e-4,8.708351 1.614937,0.114066 v 1.484835 H 25.12002 v -1.484175 l 1.612254,-0.118682 0.02057,-10.68967 -1.54271,-0.11011 V 8.8276264 l 2.092352,-0.1052747 h 4.47e-4 c 0.575805,0 1.048972,0.3967033 1.144007,0.9173626 0.877907,-0.5268132 2.275045,-1.078022 4.277281,-1.078022 1.755814,0 2.915474,0.361978 3.648927,1.1389011 0.65161,0.6903296 0.94186,1.6753846 0.94186,3.1942856 l -0.0018,8.115824 1.615384,0.115165 z"
         id="Fill-23"
         fill="#525252" />
      <path
         d="m 109.37554,21.171385 c 2.2e-4,-0.0057 2.2e-4,-0.01187 6.7e-4,-0.01824 l 0.002,-8.258242 c 0,-1.469231 -0.27527,-2.415824 -0.892,-3.0694505 -0.69544,-0.7367032 -1.81172,-1.08 -3.51185,-1.08 -2.10197,0 -3.53511,0.6063737 -4.44678,1.2208792 V 9.8327033 c 0,-0.510989 -0.42688,-0.9268132 -0.964669,-0.9268132 h -6.71e-4 l -1.915026,0.096483 v 1.0349459 l 1.501341,0.107032 c 0.0161,0.0031 0.02952,0.0059 0.04137,0.0086 l -0.02102,11.013626 c 0,0.0026 0,0.0055 4.47e-4,0.0086 -0.0058,0.0013 -0.01163,0.0031 -0.01834,0.0046 l -1.593918,0.117143 v 1.13011 h 4.582066 V 21.2967 l -1.54763,-0.110329 c -0.0293,-0.0055 -0.0516,-0.01055 -0.068,-0.01539 4.4e-4,-0.0053 4.4e-4,-0.01143 8.9e-4,-0.0178 l 2.2e-4,-8.84967 c 0,-0.405934 0.19231,-0.784396 0.52795,-1.038242 1.08945,-0.824616 2.33565,-1.208572 3.92174,-1.208572 2.55568,0 3.00783,0.698022 3.04383,2.925055 l 0.003,8.185275 c 0,0.0026 0,0.0055 4.4e-4,0.0081 -0.006,0.0013 -0.0116,0.0031 -0.0183,0.0046 l -1.5937,0.117143 v 1.13011 h 4.58229 v -1.13033 l -1.55031,-0.110549 c -0.0282,-0.0053 -0.0496,-0.01033 -0.0657,-0.01472"
         id="Fill-25"
         fill="#525252" />
      <path
         d="m 106.59631,22.243231 h 4.20819 v -0.775605 l -1.37679,-0.09824 c -0.0559,-0.0095 -0.0819,-0.01561 -0.1013,-0.02066 l -0.14446,-0.03868 0.007,-0.148791 0.18671,0.0086 -0.18649,-0.01231 0.002,-8.262637 c 0,-1.41934 -0.25984,-2.327472 -0.84213,-2.9443955 -0.65787,-0.6969231 -1.7301,-1.0213187 -3.37477,-1.0213187 -2.13015,0 -3.53645,0.6463737 -4.34101,1.1885712 l -0.29271,0.197363 V 9.8326813 c 0,-0.4096703 -0.348841,-0.7430769 -0.777732,-0.7430769 l -1.72898,0.087253 v 0.6896704 l 1.396914,0.1070329 0.146243,0.032308 -0.02124,11.161099 0.01722,0.156703 -0.20796,0.03934 -1.421065,0.104396 v 0.775824 h 4.20818 v -0.775605 l -1.37433,-0.09802 c -0.0586,-0.0099 -0.0865,-0.01648 -0.10711,-0.02242 l -0.14289,-0.04132 0.009,-0.145934 8.9e-4,-8.856483 c 0,-0.463517 0.21892,-0.895165 0.60085,-1.183737 1.12388,-0.850549 2.40608,-1.2468153 4.03578,-1.2468153 2.69991,0 3.19342,0.8138483 3.23078,3.1059363 l 0.003,8.188352 0.0203,0.16 -0.21109,0.03582 -1.42084,0.104396 z m 4.58207,0.367472 h -4.95595 v -1.484175 l 1.61158,-0.118682 -0.003,-8.026154 c -0.0344,-2.123077 -0.41368,-2.741318 -2.85688,-2.741318 -1.54271,0 -2.75269,0.372088 -3.8077,1.170549 -0.28935,0.218681 -0.45505,0.543956 -0.45505,0.892528 l -4.5e-4,8.708351 1.61494,0.114066 v 1.484835 h -4.955947 v -1.484175 l 1.612254,-0.118682 0.02013,-10.68967 -1.542263,-0.11011 V 8.8276264 l 2.092352,-0.1052747 h 4.47e-4 c 0.575797,0 1.048967,0.3967033 1.144007,0.9173626 0.8779,-0.5268132 2.27527,-1.078022 4.27728,-1.078022 1.75581,0 2.91547,0.361978 3.64892,1.1389011 0.65139,0.6901096 0.94186,1.6753846 0.94186,3.1942856 l -0.002,8.116923 1.61516,0.114066 z"
         id="Fill-27"
         fill="#525252" />
      <path
         d="m 46.644946,13.474022 c 0.149374,-0.697363 0.39356,-1.36022 0.718471,-1.975385 0.193202,-0.365274 0.347943,-0.74989 0.436941,-1.152087 0.04047,-0.182418 0.06932,-0.3703302 0.06932,-0.5349456 0,-1.6716484 -1.378801,-3.0268132 -3.079606,-3.0268132 -1.281977,0 -2.380367,0.7698901 -2.844142,1.8648352 -0.140206,-0.5461539 -0.213103,-1.1186814 -0.208855,-1.7087912 0.02639,-3.7318682 3.09034,-6.72131872 6.887746,-6.72109894 3.690072,2.1978e-4 6.70237,2.85318684 6.878354,6.43758244 0.07514,1.5318681 -0.476297,2.9395604 -1.315518,4.2096703 -1.097049,1.66 -2.341011,3.213846 -2.341011,5.28967 0,3.006813 1.999329,5.554506 4.762298,6.42989 -0.730545,0.206594 -1.504025,0.312967 -2.304785,0.302638 -4.192084,-0.05429 -7.649597,-3.354066 -7.823121,-7.471209 -0.02818,-0.669011 0.03019,-1.32022 0.163908,-1.943956"
         id="Fill-29"
         fill="#ef533d" />
      <path
         d="m 58.710912,10.02055 c 0,-0.3650555 -0.300984,-0.6606599 -0.672406,-0.6606599 -0.371198,0 -0.672406,0.2956044 -0.672406,0.6606599 0,0.365054 0.301208,0.660879 0.672406,0.660879 0.371422,0 0.672406,-0.295825 0.672406,-0.660879"
         id="Fill-32"
         fill="#ef533d" />
      <path
         d="m 57.773817,2.9886374 c -9.4e-4,0.00738 -0.0019,0.014308 -0.0028,0.021692 0.0033,-0.00692 0.0066,-0.013846 0.01034,-0.020769 z"
         id="Fill-34"
         fill="#e95540" />
      <path
         d="m 60.681283,17.826483 c -0.05948,-1.158461 0.623212,-2.183076 1.637076,-2.634065 2.23e-4,-0.0092 8.94e-4,-0.01868 8.94e-4,-0.02791 -0.284213,-0.05451 -0.577594,-0.08374 -0.878131,-0.08374 -2.522584,0 -4.567754,2.00989 -4.567754,4.489231 0,0.969011 0.313506,1.865275 0.844588,2.598901 1.414356,-0.644615 2.602415,-1.687033 3.417263,-2.980659 -0.262746,-0.393846 -0.427996,-0.857583 -0.453936,-1.361759"
         id="Fill-36"
         fill="#ef533d" />
      <path
         d="m 61.638417,7.2005275 c 0.17576,-0.4454945 0.273256,-0.9294506 0.273256,-1.436044 0,-0.7279121 -0.203041,-1.4074725 -0.550537,-1.9938461 -0.131261,0.9254945 -0.508274,1.7705494 -1.066413,2.4698901 -0.01275,0.02 -0.02437,0.040879 -0.03757,0.06044 C 60.015877,6.1765714 59.755814,6.0523956 59.474284,5.9269011 59.266547,5.8222857 59.081395,5.7121758 58.91458,5.597011 58.211315,5.1959121 57.682916,4.5323956 57.469812,3.7416264 57.337433,4.1726154 57.2661,4.6293187 57.2661,5.1027253 c 0,1.5643956 0.777505,2.9501099 1.973614,3.8043956 l 0.01252,0.00857 c 0.247317,0.1874725 0.483229,0.3813187 0.706396,0.5958242 0.88305,0.8485719 1.565518,1.8982419 1.970706,3.0736269 0.414803,-0.549451 0.701029,-1.198462 0.815072,-1.903736 0.03667,-0.225275 0.05613,-0.455825 0.05613,-0.6912096 0,-1.2265934 -0.338775,-2.0703297 -1.16212,-2.7896703"
         id="Fill-38"
         fill="#ef533d" />
    </g>
  </g>
  <metadata
     id="metadata1">
    <rdf:RDF>
      <cc:Work
         rdf:about="">
        <dc:title>00_Logos/Logo-ASN</dc:title>
      </cc:Work>
    </rdf:RDF>
  </metadata>
</svg>
