<?xml version="1.0" encoding="utf-8"?>
<!-- Generator: Adobe Illustrator 27.0.0, SVG Export Plug-In . SVG Version: 6.00 Build 0)  -->
<svg version="1.1" id="Laag_1" xmlns="http://www.w3.org/2000/svg" xmlns:xlink="http://www.w3.org/1999/xlink" x="0px" y="0px"
	 viewBox="0 0 171.61 171.03" style="enable-background:new 0 0 171.61 171.03;" xml:space="preserve">
<style type="text/css">
	.st0{fill:#E84632;}
</style>
<g>
	<path class="st0" d="M135.16,90.86"/>
	<path class="st0" d="M125.09,74.89"/>
	<path class="st0" d="M57.08,95.49c0.76-3.62,2.01-7.07,3.67-10.27c0.99-1.9,1.78-3.9,2.23-5.99c0.21-0.95,0.35-1.92,0.35-2.78
		c0-8.69-7.05-15.73-15.73-15.73c-6.55,0-12.16,4-14.53,9.69c-0.72-2.84-1.09-5.81-1.07-8.88c0.13-19.4,15.78-34.94,35.18-34.94
		c18.85,0,34.24,14.82,35.14,33.45c0.39,7.96-2.43,15.28-6.72,21.88c-5.6,8.63-11.96,16.71-11.95,27.49
		c0,15.63,10.22,28.87,24.33,33.42c-3.73,1.07-7.68,1.63-11.77,1.57c-21.41-0.28-39.08-17.43-39.97-38.83
		C56.1,102.12,56.4,98.73,57.08,95.49"/>
	<path class="st0" d="M94.61,84.44"/>
	<circle class="st0" cx="115.28" cy="77.53" r="3.43"/>
	<path class="st0" d="M128.79,118.1c-0.3-6.02,3.18-11.35,8.36-13.69c0-0.05,0-0.1,0-0.15c-1.45-0.28-2.95-0.43-4.49-0.43
		c-12.89,0-23.33,10.45-23.33,23.34c0,5.04,1.6,9.69,4.32,13.51c7.23-3.35,13.29-8.77,17.46-15.5
		C129.76,123.13,128.92,120.72,128.79,118.1z"/>
	<path class="st0" d="M133.67,62.87c0.9-2.32,1.39-4.83,1.39-7.46c0-3.78-1.04-7.31-2.81-10.36c-0.67,4.81-2.6,9.2-5.45,12.84
		c-0.07,0.1-0.12,0.21-0.19,0.31c-1.23-0.65-2.56-1.29-4-1.94c-1.06-0.54-2.01-1.12-2.86-1.71c-3.59-2.08-6.29-5.53-7.38-9.64
		c-0.68,2.24-1.04,4.61-1.04,7.07c0,8.13,3.97,15.33,10.08,19.77l0.06,0.04c1.26,0.97,2.47,1.98,3.61,3.1
		c4.51,4.41,8,9.87,10.07,15.97c2.12-2.86,3.58-6.23,4.16-9.9c0.19-1.17,0.29-2.37,0.29-3.59C139.61,71,137.87,66.61,133.67,62.87z"
		/>
</g>
</svg>
