<?xml version="1.0" encoding="UTF-8" standalone="no"?>
<svg
   fill="var(--rui-color-white)"
   viewBox="0 0 640 360"
   class="sc-81786132-0 bmMKuq"
   version="1.1"
   id="svg1"
   sodipodi:docname="ideal-issuer-revolut-640x360.svg"
   width="640"
   height="360"
   inkscape:version="1.3.2 (091e20e, 2023-11-25)"
   xmlns:inkscape="http://www.inkscape.org/namespaces/inkscape"
   xmlns:sodipodi="http://sodipodi.sourceforge.net/DTD/sodipodi-0.dtd"
   xmlns="http://www.w3.org/2000/svg"
   xmlns:svg="http://www.w3.org/2000/svg">
  <defs
     id="defs1" />
  <sodipodi:namedview
     id="namedview1"
     pagecolor="#ffffff"
     bordercolor="#666666"
     borderopacity="1.0"
     inkscape:showpageshadow="2"
     inkscape:pageopacity="0.0"
     inkscape:pagecheckerboard="true"
     inkscape:deskcolor="#d1d1d1"
     inkscape:zoom="1"
     inkscape:cx="281"
     inkscape:cy="71"
     inkscape:window-width="1352"
     inkscape:window-height="1091"
     inkscape:window-x="2751"
     inkscape:window-y="379"
     inkscape:window-maximized="0"
     inkscape:current-layer="svg1" />
  <path
     clip-rule="evenodd"
     d="m 413.21474,123.44924 h 20.10062 V 235.60071 H 413.21474 Z M 576,170.69917 V 153.29539 H 555.21406 V 130.60454 H 535.1138 v 82.72436 c 0,7.60113 1.91212,13.3937 5.68335,17.21759 3.76769,3.82707 9.64191,5.76712 17.45651,5.76712 H 576 v -17.4035 h -12.98547 c -2.824,0 -4.84923,-0.621 -6.02266,-1.84709 -1.07799,-1.12218 -1.77781,-3.95679 -1.77781,-7.22083 v -39.14302 z m -299.32778,43.07224 20.78382,-60.47839 h 21.11782 L 288.5705,235.60177 H 264.77429 L 234.77058,153.29302 H 255.8884 Z M 502.3497,194.52613 c 0,5.21079 -0.79171,9.74405 -2.34686,13.47357 -1.54454,3.70937 -3.75709,6.55317 -6.57756,8.4501 -2.82047,1.89692 -6.28773,2.85899 -10.30637,2.85899 -5.74697,0 -10.08371,-1.8888 -12.88651,-5.61196 -2.8346,-3.76274 -4.27311,-9.46553 -4.27311,-16.94897 v -43.45261 h -20.10027 v 45.67435 c 0,7.11197 0.88714,13.14417 2.64375,17.92695 1.75661,4.79727 4.17062,8.69963 7.17135,11.59644 3.00072,2.89363 6.50333,4.98353 10.4124,6.21387 3.88787,1.22397 8.07263,1.8439 12.4341,1.8439 6.28421,0 11.48688,-1.13985 15.45603,-3.38809 3.61925,-2.05668 6.65532,-4.46115 9.03045,-7.15756 l 1.79902,9.59525 h 17.64384 V 153.29525 H 502.3497 Z M 382.48683,157.63577 c -6.33475,-3.51223 -13.85706,-5.2916 -22.35487,-5.2916 -8.3939,0 -15.88829,1.77937 -22.27535,5.29046 -6.39448,3.52018 -11.41901,8.49135 -14.93435,14.7752 -3.51003,6.27819 -5.28962,13.71957 -5.28962,22.1163 0,8.29387 1.77959,15.68329 5.28962,21.96148 3.51322,6.28173 8.53881,11.25184 14.93435,14.77142 6.38706,3.51145 13.8818,5.29067 22.27535,5.29067 8.49745,0 16.01977,-1.77922 22.35487,-5.29173 6.34146,-3.51781 11.33913,-8.48757 14.85376,-14.77036 3.5111,-6.28172 5.29138,-13.67114 5.29138,-21.96148 0,-8.39355 -1.78028,-15.83492 -5.29138,-22.11665 -3.51675,-6.28456 -8.51336,-11.25608 -14.85376,-14.77371 z m -10.61988,58.80943 c -3.23824,2.10864 -7.18619,3.17851 -11.73393,3.17851 -4.44348,0 -8.36598,-1.06952 -11.65865,-3.17922 -3.29832,-2.11217 -5.88481,-5.0931 -7.68984,-8.8615 -1.81246,-3.77194 -2.73282,-8.16416 -2.73282,-13.05686 0,-4.99344 0.9193,-9.41111 2.73282,-13.1318 1.80397,-3.7175 4.39258,-6.6995 7.69408,-8.86468 3.29161,-2.16307 7.21305,-3.25945 11.65405,-3.25945 4.54562,0 8.49145,1.09638 11.73075,3.25697 3.24849,2.1666 5.81165,5.14966 7.61986,8.86822 1.81139,3.72952 2.73034,8.14755 2.73034,13.13109 0,4.88139 -0.91895,9.27503 -2.73034,13.05651 -1.80785,3.76911 -4.36996,6.75039 -7.61632,8.86221 z M 84.890382,151.12783 H 64 v 84.47394 h 20.890382 z m 65.511408,4.83053 c 0,-17.92475 -14.59646,-32.50791 -32.53896,-32.50791 H 64 v 18.03997 h 51.30179 c 8.11998,0 14.84599,6.37921 14.99479,14.21955 0.0742,3.92575 -1.39928,7.63088 -4.14871,10.43262 -2.75048,2.80244 -6.42558,4.34699 -10.34808,4.34699 H 95.814964 c -0.7095,0 -1.286989,0.57646 -1.286989,1.28617 v 16.03321 c 0,0.27285 0.08423,0.53334 0.242673,0.75283 l 33.907162,47.04034 h 24.82049 l -33.98595,-47.169 c 17.11544,-0.85921 30.88944,-15.23972 30.88944,-32.47477 z m 64.23636,1.19842 c -6.0177,-3.19399 -13.16289,-4.81261 -21.23728,-4.81261 -8.08464,0 -15.31289,1.7805 -21.4847,5.29386 -6.18206,3.51678 -11.04542,8.48901 -14.45473,14.77604 -3.40577,6.27289 -5.13198,13.76622 -5.13198,22.27287 0,8.2907 1.75272,15.67764 5.21186,21.9569 3.46656,6.29374 8.46671,11.2384 14.85907,14.69613 6.38034,3.45807 14.03378,5.21079 22.74542,5.21079 6.91121,0 13.11766,-1.29465 18.44686,-3.8504 5.33026,-2.5621 9.68185,-6.05093 12.93457,-10.37035 3.0898,-4.10523 5.1744,-8.7484 6.19408,-13.79909 l 0.10992,-0.539 H 212.8409 l -0.0944,0.32376 c -1.10062,3.76734 -3.23612,6.74403 -6.34924,8.84948 -3.34144,2.2638 -7.44561,3.41213 -12.20047,3.41213 -4.02995,0 -7.6697,-0.86345 -10.8171,-2.56634 -3.13221,-1.69299 -5.58121,-4.11407 -7.27738,-7.19856 -1.70288,-3.09509 -2.67202,-6.81931 -2.87914,-11.04648 v -0.66094 h 60.38279 l 0.0675,-0.36899 c 0.21066,-1.15859 0.34602,-2.35252 0.4047,-3.55316 0.0498,-1.16989 0.0788,-2.33837 0.0788,-3.51781 -0.1078,-7.97472 -1.89021,-14.98913 -5.29704,-20.85062 -3.42026,-5.8682 -8.20516,-10.46366 -14.22181,-13.65761 z m -7.32473,15.50011 c 3.43439,2.89045 5.57095,6.9978 6.35453,12.21637 h -39.75059 c 0.45418,-3.38597 1.57848,-6.31848 3.34463,-8.72401 1.85274,-2.52323 4.22611,-4.50568 7.05541,-5.89259 2.83249,-1.39115 5.94243,-2.09733 9.24181,-2.09733 5.57767,-3.5e-4 10.20529,1.51309 13.75421,4.49756 z"
     fill-rule="evenodd"
     id="path1"
     style="fill:#1a1a1a;stroke-width:3.53442" />
</svg>
