<?xml version="1.0" encoding="UTF-8" standalone="no"?>
<!-- Generator: Adobe Illustrator 27.9.0, SVG Export Plug-In . SVG Version: 6.00 Build 0)  -->

<svg
   version="1.1"
   id="Layer_1"
   x="0px"
   y="0px"
   width="40"
   height="40"
   viewBox="0 0 40 40"
   xml:space="preserve"
   sodipodi:docname="ideal-issuer-revolut-ideal-hub-40x40.svg"
   inkscape:version="1.3.2 (091e20e, 2023-11-25)"
   xmlns:inkscape="http://www.inkscape.org/namespaces/inkscape"
   xmlns:sodipodi="http://sodipodi.sourceforge.net/DTD/sodipodi-0.dtd"
   xmlns="http://www.w3.org/2000/svg"
   xmlns:svg="http://www.w3.org/2000/svg"><defs
   id="defs2" /><sodipodi:namedview
   id="namedview2"
   pagecolor="#ffffff"
   bordercolor="#666666"
   borderopacity="1.0"
   inkscape:showpageshadow="2"
   inkscape:pageopacity="0.0"
   inkscape:pagecheckerboard="true"
   inkscape:deskcolor="#d1d1d1"
   inkscape:zoom="0.295"
   inkscape:cx="379.66102"
   inkscape:cy="462.71186"
   inkscape:window-width="1536"
   inkscape:window-height="848"
   inkscape:window-x="2775"
   inkscape:window-y="360"
   inkscape:window-maximized="0"
   inkscape:current-layer="Layer_1" />
<style
   type="text/css"
   id="style1">
	.st0{fill:#FFFFFF;}
</style>
<rect
   class="st0"
   width="40"
   height="40"
   id="rect1"
   x="0"
   y="0"
   style="stroke-width:0.05" />
<g
   id="g2"
   transform="scale(0.05)">
	<rect
   x="209.05099"
   y="262.09698"
   width="101.445"
   height="410.20999"
   id="rect2" />
	<path
   d="m 628.623,285.554 c 0,-87.043 -70.882,-157.86 -158.011,-157.86 H 209.051 v 87.603 h 249.125 c 39.43,0 72.093,30.978 72.814,69.051 0.361,19.064 -6.794,37.056 -20.146,50.66 -13.357,13.61 -31.204,21.109 -50.251,21.109 h -97.046 c -3.446,0 -6.25,2.8 -6.25,6.245 v 77.859 c 0,1.324 0.409,2.59 1.179,3.656 l 164.655,228.43 h 120.53 L 478.623,443.253 c 83.113,-4.173 150,-74.005 150,-157.699 z"
   id="path2" />
</g>
</svg>
