<svg width="32" height="24" viewBox="0 0 32 24" fill="none" xmlns="http://www.w3.org/2000/svg">
<path d="M28 0H4C1.79086 0 0 1.79086 0 4V20C0 22.2091 1.79086 24 4 24H28C30.2091 24 32 22.2091 32 20V4C32 1.79086 30.2091 0 28 0Z" fill="#21262E"/>
<path d="M15.5915 7.41928C15.3825 8.82364 15.215 10.0069 14.914 11.8487C15.7277 11.8319 17.5761 12.1408 17.9825 9.62368C18.3195 7.52912 16.8187 7.33581 15.5915 7.41928Z" fill="white"/>
<path d="M22.6432 17.5472C22.9596 18.2197 22.6408 19.0696 21.9798 19.4121C21.6004 19.6087 21.1675 19.7919 20.7342 19.8941C20.298 19.9967 19.5888 20.1262 18.6841 20.1617C18.6413 20.1631 18.5984 20.1641 18.5565 20.1641C17.3827 20.1641 16.2069 19.5233 15.6995 18.7429C15.5685 19.0125 15.0948 19.5531 14.2662 19.8077C13.7423 19.9689 13.1106 20.1641 11.7923 20.1627C10.6113 20.1617 9.93822 19.6514 9.58145 19.2221C9.01476 18.5405 8.93147 17.6748 9.04221 17.0916L9.04798 17.0638C9.49286 14.9299 10.1034 11.0521 10.3836 9.10855L10.3865 9.08938C10.4635 8.55077 10.5415 8.01166 10.5877 7.4692C10.6109 7.1958 10.6262 6.92143 10.6291 6.6471C10.632 6.38761 10.6065 6.12861 10.6094 5.86913C10.6123 5.625 10.6532 5.37702 10.7736 5.16119C10.9685 4.81154 11.3263 4.53623 11.7042 4.41632C12.1188 4.2849 12.5526 4.23118 12.9835 4.18418C13.4241 4.13622 13.8651 4.08873 14.3085 4.05707C14.4857 4.04461 14.6629 4.03405 14.8401 4.02542C15.2026 4.00863 15.5661 4 15.9292 4C16.855 4 17.7867 4.01535 18.6981 4.19425C19.6278 4.37651 20.5662 4.72616 21.2995 5.33818C21.8016 5.75737 22.2008 6.28689 22.4998 6.86582C22.7631 7.37614 22.8696 7.91283 22.9326 8.3239C23.0034 8.78384 23.0183 9.25149 22.9779 9.71386C22.9509 10.0208 22.9076 10.2899 22.8455 10.536C22.7131 11.0597 22.4868 11.5614 22.1724 12.0271C21.8233 12.5447 21.3755 13.0137 20.8041 13.4612C21.1521 14.4234 22.0582 16.3045 22.6432 17.5472ZM12.2493 5.96698C12.2709 6.32382 12.2743 6.68451 12.2584 7.04278C12.242 7.40874 12.2088 7.77374 12.1665 8.13732C12.1246 8.49993 12.0735 8.86109 12.022 9.22224C12.0162 9.26157 12.011 9.3009 12.0052 9.3407C11.8424 10.4698 11.672 11.5979 11.4924 12.724C11.3042 13.9068 11.0928 15.0843 10.8814 16.2632C10.7832 16.8124 10.5632 17.5165 10.8641 18.0413C11.1328 18.5094 11.8208 18.566 12.3003 18.5189C14.0476 18.3487 14.3249 17.9784 14.3249 17.9784C13.9768 17.6105 14.2792 15.9323 14.6301 13.6761H15.8719L17.1714 17.4254C17.1714 17.4254 17.5546 18.5871 18.6196 18.531C19.9836 18.4595 20.987 18.1616 21.1314 17.9971C20.7111 17.7731 19.5108 14.9088 18.856 12.8051C19.1728 12.6214 19.48 12.4209 19.7694 12.1964C20.1656 11.889 20.532 11.5341 20.8132 11.1173C21.0149 10.818 21.169 10.488 21.2571 10.1379C21.3038 9.9532 21.3298 9.76039 21.3462 9.57092C21.3755 9.23759 21.3645 8.90088 21.3134 8.57044C21.2648 8.25289 21.1916 7.8994 21.0433 7.6121C20.7665 7.07588 20.375 6.60823 19.8416 6.30895C18.9412 5.80438 17.9037 5.70797 16.8921 5.65473C15.7958 5.5967 14.6942 5.63123 13.6036 5.75785C13.4819 5.77224 12.2444 5.87584 12.2493 5.96698Z" fill="white"/>
</svg>
