<svg xmlns="http://www.w3.org/2000/svg" width="640" height="360"><path fill="#2C3341" d="M201.33 264.275c2.477.304 4.34 1.538 5.717 3.2.733.886 1.275 1.83 1.748 2.9l.144.334c.498 1.187.928 2.55 1.4 4.318l.111.426c.33 1.318 2.096 8.613 2.755 10.953 1.092 3.882 2.207 6.86 3.419 9.006.572 1.014 1.129 1.77 1.63 2.259.182.178.34.305.472.387.075.047.124.07.158.081 1.086.339 1.394.308 1.689.132.526-.314 1.251-1.12 2.255-2.64l.172-.264 1.893-3.014c.803-1.247 1.502-2.214 2.308-3.119 1.278-1.433 2.707-2.562 4.487-3.308 2.227-.932 4.495-.95 6.676-.356 1.342.365 2.574.935 3.895 1.708l.289.172.313.19c.577.358 1.18.759 1.904 1.258l2.977 2.077.413.28.362.24c5.136 3.387 8.093 3.99 11.44 2.064l.167-.098.167-.102a7.79 7.79 0 118.213 13.24c-.259.16-.518.316-.779.466-5.507 3.167-11.268 3.885-16.973 2.488-3.97-.972-7.375-2.723-11.441-5.47l-.3-.203c-.273-.187-.542-.373-.84-.58l-1.217-.853-.74 1.175-.245.382c-2.24 3.43-4.386 5.842-7.418 7.65-4.183 2.493-9.08 2.988-14.303 1.36-4.813-1.5-8.409-5.013-11.192-9.943-1.57-2.782-2.861-5.961-4.04-9.718l-.104-.335-.422 1.063c-.91 2.277-1.673 4.043-2.457 5.668l-.168.346c-.885 1.807-1.749 3.31-2.675 4.573-1.547 2.11-3.269 3.656-5.756 4.455-3.193 1.026-6.018.268-8.598-1.365-1.405-.89-2.745-2.07-4.152-3.559-2.031-2.147-4.253-5-6.799-8.622l-.219-.312c-.68-.972-1.38-1.994-2.111-3.08l-.62-.924c-.518-.777-1.05-1.582-1.626-2.46l-3.883-5.964-.576-.874-.469-.7a49.005 49.005 0 00-.663-.962l-.14-.194-.01-.01a7.785 7.785 0 01-2.545-6.614l.016-.133a7.79 7.79 0 018.682-6.782c1.858.228 3.035.883 4.148 1.794.42.344.766.687 1.103 1.062.345.384.679.804 1.044 1.298l.139.188c.547.751 1.191 1.699 2.065 3.026l3.803 5.84.778 1.185c.312.475.612.928.905 1.369l.773 1.154.505.747c.499.735.98 1.434 1.447 2.101l.414.589.445.626c.588.82 1.147 1.581 1.678 2.281l.278.364.202-.482.164-.399a207.867 207.867 0 001.708-4.338l2.14-5.602c1.987-5.168 2.49-6.28 3.628-8.408l.044-.082c.73-1.362 1.464-2.486 2.343-3.462.717-.796 1.52-1.485 2.506-2.047 1.559-.89 3.382-1.339 5.348-1.097zm93.361-12.923l41.883 41.907-46.698 11.323c-3.398.826-6.469-2.18-5.79-5.57l.021-.104 10.584-47.556zm-135.876 29.66l.03.02c.777.487 1.691.842 2.977 1a7.766 7.766 0 01-2.935-.977l-.072-.042zm253.277-147.085L454 175.834 347.921 281.912l-41.883-41.907 106.054-106.078zm-174.75 98.497c4.606 10.004 21.396 17.986 43.036 20.63l-4.286 16.39c-23.013-3.673-39.586-13.515-40.003-25.134l-.008-.449v-5.882c0-1.903.436-3.761 1.261-5.555zm-86.085-15.97c5.651 12.315 29.708 21.568 58.53 21.568 5.553 0 10.924-.349 16.026-.992l.636-.082v7.203c0 3.291.76 6.468 2.231 9.48-5.939.897-12.29 1.384-18.893 1.384-32.69 0-59.251-11.902-59.779-26.676l-.008-.448v-5.882c0-1.904.435-3.762 1.257-5.555zm86.085-14.412c5.67 12.315 29.806 21.568 58.723 21.568 1.345 0 2.679-.02 4.002-.06l-16.077 15.69-.207.794c-26.926-2.533-47.232-13.229-47.694-26.106l-.008-.448v-5.883c0-1.904.436-3.761 1.261-5.555zm-86.086-15.97c5.643 12.315 29.666 21.569 58.448 21.569 5.546 0 10.91-.35 16.004-.992l.635-.082v16.998a127.967 127.967 0 01-16.639 1.068c-32.644 0-59.169-11.901-59.696-26.675l-.008-.448v-5.882c0-1.904.434-3.762 1.256-5.556zm86.086-15.97c5.67 12.315 29.806 21.568 58.723 21.568 19.312 0 36.492-4.126 47.462-10.536l-26.454 25.82c-6.538 1.105-13.617 1.71-21.008 1.71-32.797 0-59.446-11.902-59.976-26.675l-.008-.449v-5.882c0-1.905.436-3.762 1.261-5.555zm-27.638-36.224c5.544 0 10.91.344 16.004.985l.635.081v57.852a128.09 128.09 0 01-16.639 1.066c-32.644 0-59.169-11.873-59.696-26.61l-.008-.448v-5.868c0-14.944 26.73-27.058 59.704-27.058zm145.083 6.233c.792 1.718 1.225 3.496 1.26 5.317l.002.238v5.882c0 14.98-26.856 27.124-59.984 27.124-32.797 0-59.446-11.902-59.976-26.675l-.008-.449v-5.882c0-1.905.436-3.762 1.261-5.555 5.67 12.315 29.806 21.568 58.723 21.568 28.917 0 53.053-9.253 58.722-21.568zm112.105-35.194l.218.214 18.689 18.69a14.286 14.286 0 01.166 20.068l-.166.17-20.882 20.881-41.907-41.907 17.902-17.902c7.175-7.15 18.74-7.222 25.98-.214zm-170.827-17c32.796 0 59.446 11.873 59.976 26.61l.008.448v5.868c0 14.944-26.856 27.058-59.984 27.058-32.797 0-59.446-11.873-59.976-26.61l-.008-.448v-5.868c0-14.944 26.856-27.058 59.984-27.058z"/></svg>