<svg height="80" viewBox="0 0 140 80" width="140" xmlns="http://www.w3.org/2000/svg"><path d="m136.911032 40.5053381c1.494662 0 2.640569 1.1459075 2.640569 2.6405694s-1.195729 2.6405694-2.640569 2.6405694c-1.494662 0-2.640569-1.1459075-2.640569-2.6405694s1.145907-2.6405694 2.640569-2.6405694zm-24.6121-40.05693952-.000778 11.88723312c-.002335 1.209742-.011677 2.3494217-.049044 3.2088523 1.69395-1.544484 4.533808-3.0391459 8.669039-3.0391459 9.117438 0 14.896798 7.1245551 14.94662 16.3914591 0 9.3167259-5.829182 16.4911032-14.996442 16.4911032-3.537366 0-6.725978-1.0462634-9.067615-3.2882563l.049822 2.5907474h-8.220641c-.797153 0-1.544484-.8469751-1.544484-1.8434164v-40.55516015c0-.84697509.697509-1.84341637 1.494662-1.84341637zm-29.6939498 12.05693952c5.8790036 0 9.316726 1.3451957 11.8078292 3.6868327 2.4412811 2.291815 3.7366548 5.3807829 3.7864769 10.7117438v17.7366548h-8.4697509c-.7971531 0-1.3451958-.5480427-1.3950178-1.1459075l-.1494662-2.1423487c-1.3451957 1.3451957-3.9359431 4.0355872-9.0676157 4.0355872-5.5800712 0-11.5088968-3.039146-11.5088968-10.064057s6.4768684-9.4163701 12.3060498-9.6654804l7.9715303-.2989324v-.6975089c0-3.3380783-2.341637-5.0818505-6.4768683-5.0818505-4.0355872 0-8.0213523 1.7935943-9.6654805 2.8398576l-2.0925266-5.2313167c-.2989324-.747331 0-1.7437722.7473309-2.0925267 2.8398577-1.1957295 7.1743772-2.5907473 12.2064057-2.5907473zm54.3060498 28.3985765c-1.245552 0-2.241993.9964413-2.241993 2.2419929s.996441 2.2419929 2.241993 2.2419929 2.241993-.9964413 2.241993-2.2419929-.996441-2.2419929-2.241993-2.2419929zm-83.6512455-28.3985765c9.1672598 0 11.5587188 5.8790035 11.5088968 13.5516014v18.683274h-8.7686833c-.747331 0-1.4946619-.8469751-1.4946619-1.8434163v-14.5978648c0-4.1850534-.6476869-7.3238434-4.8825623-7.3238434-4.3843416 0-5.6298932 3.5871886-5.6298932 8.1209964v15.6441281h-8.7188612c-.7971531 0-1.544484-.9466192-1.544484-1.8434163v-27.9003559c0-.8967972.6975089-1.8932385 1.4946619-1.8932385h8.7686833l-.0498221 4.5338079h.1494662c1.7437722-2.7900356 4.6334519-5.1316726 9.1672598-5.1316726zm-42.747331-12.10676159v23.11743769l8.7188612-9.4163701c.4982207-.5978647 1.3451958-1.0462633 2.1423488-1.0462633h10.5622776l-11.5587189 11.8576512 12.5053381 19.7793595h-9.9145908c-1.0462633 0-1.9430605-.2989324-2.5907473-1.1957296l-7.024911-11.1103203-2.8398577 2.7402136v9.5658363h-8.76868326c-.89679715 0-1.49466192-.9466193-1.49466192-1.8434164v-40.60498222c0-.84697509.6975089-1.84341637 1.49466192-1.84341637zm126.4483985 41.20284699c.647687 0 1.096086.3487544 1.096086.9466192s-.398577.797153-.647687.8967972l.797153 1.2455516h-.747331l-.647687-1.2455516h-.298932v1.2455516h-.647687v-3.088968zm-.099644.5480427h-.348754v.8469751h.348754c.298932 0 .548043-.0498221.548043-.3985765 0-.3985765-.249111-.4483986-.548043-.4483986zm-48.8754449-11.2597865-5.0818505.2989324c-3.13879.0996441-4.9822064 1.4946619-4.9822064 3.8362989 0 2.3914591 1.9928825 3.886121 4.8327402 3.886121 2.7402135 0 4.5836299-1.7935943 5.2313167-2.8896797zm30.7402139-10.4626334c-4.33452 0-7.274022 3.3380783-7.274022 8.2206405 0 4.8825623 2.989324 8.2206406 7.274022 8.2206406 4.334519 0 7.174377-3.3380783 7.174377-8.2206406 0-4.8825622-2.88968-8.2206405-7.174377-8.2206405z" fill="#003b5a" transform="translate(0 17.25)"/></svg>