<svg height="270" viewBox="0 0 480 270" width="480" xmlns="http://www.w3.org/2000/svg" xmlns:xlink="http://www.w3.org/1999/xlink"><defs><path id="a" d="m0 0h480v270h-480z"/><mask id="b" fill="#fff"><use fill="#fff" fill-rule="evenodd" xlink:href="#a"/></mask></defs><g fill="none" fill-rule="evenodd"><use fill="#ededed" xlink:href="#a"/><g fill-rule="nonzero" mask="url(#b)"><g transform="translate(255 27)"><path d="m281.509475 32.3491044c-2.684054-2.7039461-6.32472-4.2230506-10.120908-4.2230506-3.796187 0-7.436853 1.5191045-10.120907 4.2230506-5.919578 5.9623121-6.652978 8.347237-9.523711 8.347237-4.74614 0-7.910233-9.6557798-17.151062-18.4251273-11.441025-10.858795-29.136898-11.1964835-40.253133 0-5.339706 5.3754648-8.339754 12.6678337-8.339754 20.2718611 0 7.6040275 3.000048 14.8963964 8.339754 20.2718611 11.116235 11.1964835 28.592088 10.6266343 40.253133 0 7.774031-7.0914578 11.619137-18.1402026 17.161539-18.1402026 3.457453 0 5.060454 3.5562818 9.523711 8.0517595 3.576995 3.8185553 8.932277 5.3764639 13.979797 4.0668718 5.047519-1.3095921 8.989058-5.2795855 10.289264-10.363543 1.300206-5.0839577-.246537-10.4779002-4.037723-14.0807176z" fill="#e74f59"/><path d="m205.686722 51.5064328c-11.09294-11.0194541-29.039696-11.0194541-40.132636 0-9.544888 9.418587-18.690761 17.0371774-29.401197 17.0371774-8.715355 0-15.309624-7.901148-34.3574-27.0941353-12.1954527-12.1549316-30.5367805-15.7912739-46.4713136-9.2133789-15.934533 6.577895-26.3241754 22.0745977-26.3241754 39.263904 0 17.1893062 10.3896424 32.686009 26.3241754 39.263904 15.9345331 6.577895 34.2758609 2.941553 46.4713136-9.213379 16.601176-16.5453178 23.961976-27.5755297 34.462404-27.5755297s17.630218 5.9127797 29.306694 17.5290369c11.082321 11.0421428 29.047963 11.0397998 40.127384-.0052325 11.079422-11.0450321 11.077071-28.9502246-.005249-39.9923669z" fill="#003852"/><circle cx="71.5" cy="71.5" fill="#e9e8e2" r="28.5"/><circle cx="14" cy="114" fill="#00b1ac" r="7"/><path d="m71.6684255 56.4842526c-8.6116088 0-9.8674684 2.834776-13.6350472-.9134279-5.561664-5.5435621-.6965272-11.3601027-.6965272-27.5918205-.2996829-15.5384486-13.0467821-27.9790042-28.6684256-27.9790042-15.6216434 0-28.36874263 12.4405556-28.6684255 27.9790042.05212616 15.7272821 12.8545706 28.4638894 28.6631489 28.5157475 16.0201251 0 22.0883543-4.8296185 27.7238924.7769387 3.8836668 3.8636947.9498098 5.0606001.9498098 13.4704359 0 7.8744062 6.4164644 14.2578737 14.3315744 14.2578737s14.3315745-6.3834675 14.3315745-14.2578737c0-7.8744063-6.4164645-14.2578737-14.3315745-14.2578737z" fill="#00b1ac"/><circle cx="128.5" cy="128.5" fill="#fcc11f" r="14.5"/></g></g></g></svg>