<svg height="80" viewBox="0 0 98 80" width="98" xmlns="http://www.w3.org/2000/svg"><g fill="none" fill-rule="nonzero" transform="translate(0 2.433333)"><path d="m17.882906 74.3800634v-4.9443871c.0592524-.841209-.2522773-1.6668276-.8551119-2.2662252-.6028346-.5993975-1.4386776-.9146096-2.2942898-.8652199-1.1275578-.0727255-2.2059804.4640833-2.814359 1.4009096-.5546667-.9088942-1.5702797-1.4464346-2.64683761-1.4009096-.93735126-.0466199-1.82970058.398612-2.34529914 1.1701716v-.9723961h-1.74222223v7.8780567h1.75897436v-4.3345793c-.07575452-.5454564.09990778-1.0957115.47905017-1.5006054.37914239-.4048938.92219003-.6221637 1.48094983-.5925185 1.15589742 0 1.74222222.7416581 1.74222222 2.0766426v4.3840232h1.7589744v-4.3675419c-.072646-.5448361.1040904-1.0933083.4825298-1.4974515.3784395-.4041432.9195931-.6223204 1.4774702-.5956724 1.1894017 0 1.7589743.7416581 1.7589743 2.0766426v4.3840232zm26.0244444-7.8780567h-2.8646154v-2.3897872h-1.7589743v2.3897872h-1.591453v1.5657225h1.6249573v3.6258839c0 1.8294232.7203418 2.9172111 2.7808547 2.9172111.7698097.0025214 1.5247021-.2088589 2.1777777-.6098304l-.5025641-1.4668349c-.4672143.2741743-.9974801.4272797-1.5411965.4449949-.8376069 0-1.1558975-.5274013-1.1558975-1.3185033v-3.5929213h2.8478633zm14.8591453-.1977755c-.8653171-.0250372-1.6752279.4176385-2.1107692 1.1536903v-.9559148h-1.7254701v7.8780567h1.7422222v-4.4169858c0-1.3020219.5695727-2.0271987 1.6752137-2.0271987.372638-.0050148.7426348.062188 1.0888889.1977755l.5360684-1.648129c-.3978868-.1400383-.8170813-.2124899-1.2396581-.2142568zm-22.4646154.8240645c-.9861773-.5768641-2.1200248-.8628938-3.2666666-.8240645-2.0270086 0-3.3504274.9559148-3.3504274 2.5216374 0 1.2855406.971624 2.0766426 2.7641026 2.3238619l.8376068.1153691c.9548718.1318503 1.4071795.3790696 1.4071795.8240645 0 .6098077-.6365812.9559148-1.8259829.9559148-.9567124.0272454-1.8949152-.2630169-2.6635897-.8240645l-.8376069 1.3349845c1.0148561.6971509 2.2303977 1.0553398 3.4676923 1.02184 2.3117949 0 3.6519658-1.0712838 3.6519658-2.5710813 0-1.4997974-1.0553846-2.1096051-2.7976068-2.3568245l-.8376068-.115369c-.7538462-.0988878-1.3569231-.2472194-1.3569231-.7746207s.5695726-.9229522 1.5244444-.9229522c.8825659.0100866 1.747747.242746 2.5128206.6757329zm46.663077-.8240645c-.8653171-.0250372-1.675228.4176385-2.1107693 1.1536903v-.9559148h-1.7254701v7.8780567h1.7422223v-4.4169858c0-1.3020219.5695726-2.0271987 1.6752136-2.0271987.3726381-.0050148.7426348.062188 1.0888889.1977755l.5360684-1.648129c-.3978867-.1400383-.8170813-.2124899-1.2396581-.2142568zm-22.4478633 4.1203226c-.041899 1.119438.397616 2.2044241 1.2106633 2.9886418s1.9243499 1.1950591 3.0611316 1.1316808c1.0460693.0523609 2.0741105-.282819 2.8813675-.9394336l-.8376068-1.3844284c-.6022637.4518437-1.3366675.7003941-2.0940171.7086955-1.335396-.1063016-2.3640713-1.2035385-2.3640713-2.5216374 0-1.318099 1.0286753-2.4153358 2.3640713-2.5216375.7573496.0083014 1.4917534.2568518 2.0940171.7086955l.8376068-1.3844284c-.807257-.6566146-1.8352982-.9917945-2.8813675-.9394335-1.1367817-.0633784-2.2480843.347463-3.0611316 1.1316807s-1.2525623 1.8692039-1.2106633 2.9886419zm16.3165812 0v-3.9225471h-1.7422222v.9559148c-.6002263-.7598287-1.5353532-1.1891657-2.5128205-1.1536903-2.3129874 0-4.1880342 1.8447312-4.1880342 4.1203226 0 2.2755913 1.8750468 4.1203226 4.1880342 4.1203226.9774673.0354753 1.9125942-.3938617 2.5128205-1.1536904v.9559149h1.7422222zm-6.4830769 0c.0774744-1.2932304 1.1914471-2.2883379 2.5072844-2.2397476 1.3158373.0485902 2.3508539 1.1230539 2.3295734 2.4183593s-1.0910519 2.3362988-2.407798 2.3430257c-.6704715.0083463-1.3140172-.2591865-1.7752555-.7380038-.4612384-.4788173-.6982481-1.1254001-.6538043-1.7836336zm-21.0239316-4.1203226c-2.3129874.0318582-4.1617836 1.9024157-4.1294017 4.1780071.0323818 2.2755913 1.9336792 4.0944963 4.2466666 4.0626381 1.205098.0608562 2.3901995-.3209381 3.3252992-1.0712839l-.8376069-1.2690594c-.6614062.5218625-1.4808036.8118443-2.328547.8240645-1.1974709.1013189-2.2593772-.7534664-2.3955555-1.9283109h5.9470085c0-.2142568 0-.4285136 0-.6592517 0-2.4721935-1.5579487-4.1203225-3.802735-4.1203225zm0 1.53276c.5265221-.0110438 1.0359269.1842029 1.4160907.542765s.5999269.8510504.6109178 1.3690647h-4.1880342c.0630956-1.1002717 1.0080416-1.9494175 2.1275214-1.9118297zm43.6476923 2.6040438v-7.1034361h-1.6752137v4.1203226c-.6002263-.7598287-1.5353532-1.1891657-2.5128205-1.1536903-2.3129874 0-4.1880342 1.8447312-4.1880342 4.1203226 0 2.2755913 1.8750468 4.1203226 4.1880342 4.1203226.9774673.0354753 1.9125942-.3938617 2.5128205-1.1536904v.9559149h1.6752137zm2.9064957 2.7935788c.1088997-.0013127.2170144.0182812.3182906.0576845.0961931.038619.1842438.0945075.2596581.1648129.0735999.071052.133232.1548634.1758975.2472193.0857383.1945182.0857383.4152896 0 .6098078-.0426655.0923559-.1022976.1761674-.1758975.2472193-.0754143.0703054-.163465.126194-.2596581.1648129-.1002764.0435315-.2086862.0659856-.3182906.0659253-.3241122-.0024036-.6177244-.1885611-.7538462-.4779575-.0847456-.1947197-.0847456-.4150881 0-.6098078.0426655-.0923559.1022977-.1761673.1758975-.2472193.0754143-.0703054.163465-.1261939.2596581-.1648129.1090982-.0426962.2261017-.0623494.3434188-.0576845zm0 1.392669c.0836011.0004997.1663699-.0163481.242906-.0494439.0720646-.0316543.1374214-.0763848.1926496-.1318503.2171889-.2331337.2171889-.5909308 0-.8240645-.0550966-.0556185-.1204849-.1003706-.1926496-.1318503-.0766116-.0328626-.1593297-.0497-.242906-.0494468-.0835041.000437-.1660823.017246-.242906.0494468-.0752551.0303585-.1435975.0751835-.2010256.1318503-.2171889.2331337-.2171889.5909308 0 .8240645.0575691.0564975.1258751.1012985.2010256.1318503.084506.0358534.1760665.0527434.2680342.0494439zm.0502564-.9806368c.0781917-.0037306.1552428.0195941.2177778.0659252.0520174.0423536.0800848.1067854.0753846.1730535.0024315.0553403-.0188374.1091474-.0586325.1483317-.0485492.0433836-.1104831.0694976-.1758974.0741658l.242906.2719412h-.1926496l-.2261538-.2719412h-.0753847v.2719412h-.1591453v-.7251767zm-.1842735.140091v.1977755h.1842735c.0327911.0096183.0677217.0096183.1005128 0 .0119467-.023325.0119467-.0508409 0-.0741658.0119467-.023325.0119467-.0508409 0-.0741658-.0327911-.0096184-.0677217-.0096184-.1005128 0zm-9.2136752-3.345702c.0774744-1.2932303 1.1914471-2.2883378 2.5072844-2.2397475 1.3158373.0485902 2.3508539 1.1230539 2.3295734 2.4183593s-1.0910519 2.3362988-2.407798 2.3430257c-.6704715.0083463-1.3140172-.2591865-1.7752555-.7380038-.4612384-.4788173-.6982481-1.1254001-.6538043-1.7836337zm-58.8251282 0v-3.9390283h-1.7422222v.9559148c-.6002263-.7598287-1.5353532-1.1891657-2.5128205-1.1536903-2.3129875 0-4.1880342 1.8447312-4.1880342 4.1203226 0 2.2755913 1.8750467 4.1203226 4.1880342 4.1203226.9774673.0354753 1.9125942-.3938617 2.5128205-1.1536904v.9559149h1.7422222zm-6.4830769 0c.0774744-1.2932303 1.191447-2.2883378 2.5072843-2.2397475 1.3158373.0485902 2.350854 1.1230539 2.3295735 2.4183593s-1.0910519 2.3362988-2.407798 2.3430257c-.6733609.0130056-1.3213869-.2524876-1.7863401-.7318554s-.7041881-1.1286424-.6594719-1.7897821z" fill="#231f20"/><g><path d="m35.7239316 6.46890647h26.3846154v46.65029243h-26.3846154z" fill="#ff5f00"/><path d="m37.3991453 29.798173c-.0098648-9.1046832 4.2373222-17.7078739 11.517094-23.32926653-12.3632525-9.55910574-30.117379-8.16673933-40.78525645 3.19858155-10.66787746 11.36532088-10.66787746 28.88780838 0 40.25312928 10.66787745 11.3653209 28.42200395 12.7576873 40.78525645 3.1985816-7.2774559-5.6196081-11.5243834-14.2192345-11.517094-23.3210259z" fill="#eb001b"/><g fill="#f79e1b"><path d="m97.7068376 29.798173c0 11.3583947-6.5924509 21.7195804-16.9768203 26.6831217-10.3843695 4.9635412-22.7378139 3.6580231-31.813778-3.3620958 7.2742806-5.624379 11.5215278-14.2228621 11.5215278-23.3251462 0-9.1022842-4.2472472-17.7007673-11.5215278-23.32514623 9.0759641-7.02011896 21.4294085-8.32563708 31.813778-3.36209579 10.3843694 4.96354129 16.9768203 15.32472692 16.9768203 26.68312162z"/><path d="m94.8254701 48.2612827v-1.0275622h.3936752v-.2125991h-.9967521v.2125991h.4271794v1.0275622zm1.9348718 0v-1.2401613h-.3015385l-.3517949.8858295-.3517948-.8858295h-.2680342v1.2401613h.2177778v-.9301209l.3266666.8061048h.2261539l.3266666-.8061048v.9389792z"/></g></g></g></svg>