<svg xmlns="http://www.w3.org/2000/svg" width="51" height="32" viewBox="0 0 51 32">
  <g fill="none" fill-rule="evenodd">
    <rect width="50" height="31" x=".5" y=".5" fill="#FFF" stroke="#D0D0D0"/>
    <path fill="#2C3341" fill-rule="nonzero" d="M4.52904109,22.4360168 C4.74764555,22.462858 4.91205269,22.5717176 5.03359156,22.7184415 C5.09826677,22.7965186 5.146038,22.8798504 5.18781343,22.9741983 L5.20053236,23.0037178 C5.24445046,23.1084601 5.2823954,23.2287909 5.32404003,23.3847317 L5.33383901,23.4223118 C5.3629061,23.5385768 5.51877302,24.1823035 5.57688743,24.3888061 C5.67327721,24.7313159 5.77168843,24.994085 5.87855983,25.1833918 C5.92909604,25.2729093 5.97816205,25.3395486 6.02235204,25.3827154 C6.03846077,25.3984511 6.05243324,25.4096085 6.06403102,25.4168963 C6.07067287,25.4210698 6.0750326,25.4231023 6.07803054,25.4240368 C6.17384632,25.4539051 6.20097548,25.4511657 6.22702394,25.4356363 C6.27345742,25.4079539 6.33742488,25.3368163 6.4260301,25.2027 L6.44119154,25.179445 L6.60823742,24.9134606 C6.67904118,24.803513 6.74070807,24.7181242 6.81186776,24.638294 C6.92461235,24.5118119 7.05070857,24.4122689 7.20779685,24.3464516 C7.4042413,24.2641448 7.60438352,24.2625997 7.79681147,24.3150025 C7.91519388,24.347241 8.02396857,24.3974764 8.14047465,24.4657253 L8.16597155,24.4808688 L8.1935778,24.4977294 C8.24450903,24.5292715 8.29770975,24.5645877 8.36160566,24.6086763 L8.6242516,24.7918695 L8.6242516,24.7918695 L8.6607619,24.8166035 L8.69269425,24.8378467 C9.14587775,25.136616 9.40673957,25.1897735 9.7021536,25.019879 L9.71679952,25.0112899 L9.7315663,25.0022965 C10.0541678,24.8021959 10.4779016,24.9015025 10.6780022,25.2241041 C10.8781028,25.5467056 10.7787961,25.9704394 10.4561946,26.17054 C10.4333915,26.1846841 10.4104971,26.198366 10.3875115,26.2115851 C9.9015796,26.4910477 9.39329306,26.5543794 8.88984471,26.4311237 C8.53960685,26.3453774 8.23918391,26.1908691 7.88034106,25.9484491 L7.85397843,25.9305538 C7.82984176,25.9140925 7.80604997,25.8976843 7.77977196,25.879395 L7.67242699,25.804133 L7.60717602,25.9077959 L7.58549439,25.9415278 C7.387925,26.2441134 7.19851098,26.456957 6.93099004,26.6164456 C6.56185501,26.8365138 6.12978457,26.8801438 5.66890844,26.7364766 C5.244239,26.6040959 4.92697568,26.2941793 4.68142518,25.8592229 C4.54285819,25.613772 4.42895988,25.333212 4.32494599,25.0017536 L4.31572573,24.9721378 L4.2785452,25.0659363 C4.19819152,25.2668648 4.1309182,25.4226976 4.06177279,25.5660958 L4.04693791,25.5966128 C3.96880569,25.7560398 3.89259791,25.8886894 3.81089791,26.0001494 C3.67442323,26.1863364 3.52245836,26.3227401 3.30297693,26.3932496 C3.02127958,26.4837463 2.77201284,26.4168908 2.54436292,26.2727222 C2.42040343,26.1942199 2.30218618,26.090146 2.17795632,25.958776 C1.99879558,25.7693178 1.80271679,25.5174757 1.57808511,25.1979769 L1.55876076,25.1704255 C1.49879,25.0847205 1.43701349,24.9945381 1.37248069,24.8986808 L1.31785563,24.8171871 C1.27204739,24.7485549 1.22514504,24.6775641 1.17433076,24.6000397 L0.831706034,24.0738106 L0.780886676,23.9967732 L0.73953989,23.9349842 C0.716701356,23.9011632 0.697324889,23.8730761 0.680961758,23.8500738 L0.66865436,23.8329847 L0.667696617,23.8321369 C0.509173468,23.6896037 0.419272298,23.4757527 0.443182958,23.248539 L0.444625828,23.2367878 C0.490889972,22.8599966 0.833844101,22.5920514 1.21063531,22.6383156 C1.37462002,22.6584504 1.47844541,22.7162814 1.57663409,22.7966128 C1.61374605,22.8269753 1.6442755,22.8572453 1.67402411,22.8903921 C1.70443431,22.924276 1.7338823,22.961265 1.76613141,23.0048499 L1.77836348,23.0215103 C1.82662892,23.0877321 1.88349786,23.1713556 1.96060159,23.2884498 L2.29614015,23.8037282 L2.36475035,23.9083248 C2.39232883,23.9502132 2.41879195,23.9902014 2.44468727,24.029102 L2.51286452,24.1309545 L2.55741845,24.1968582 C2.60143938,24.2616907 2.64389785,24.3233558 2.68512256,24.3822706 L2.72162354,24.434166 L2.76092346,24.4894123 C2.81272348,24.561781 2.86211274,24.6289584 2.90895555,24.6907187 L2.93347709,24.7228477 L2.95128143,24.6802702 L2.96577144,24.6450868 C3.00979709,24.537605 3.05894441,24.4124661 3.1164795,24.2623361 L3.30535345,23.7680216 C3.48066104,23.3120521 3.52491804,23.2138616 3.62539681,23.0261814 L3.6292895,23.0189178 C3.69377493,22.8987097 3.75844138,22.7995798 3.83604762,22.7134168 C3.89926944,22.6432242 3.97017371,22.5824528 4.05711069,22.5328324 C4.19467589,22.4543153 4.35552551,22.4147117 4.52904109,22.4360168 Z M12.7668649,21.295801 L16.462445,24.9934432 L12.342005,25.9924929 C12.0421774,26.0654 11.7712113,25.8002196 11.8310421,25.5010872 L11.8329773,25.4919198 L12.7668649,21.295801 Z M0.777821547,23.9128712 L0.780418496,23.9147117 C0.849011531,23.9625327 0.929670368,23.9973839 1.04309803,24.0128712 C0.948900226,24.0000095 0.861505303,23.9665274 0.78412206,23.916992 L0.777821547,23.9128712 Z M23.1257894,10.9347457 L26.8234659,14.6323879 L17.4636255,23.9922283 L13.7680455,20.2945861 L23.1257894,10.9347457 Z M7.7066907,19.625654 C8.1130327,20.5083186 9.59450409,21.2126906 11.503906,21.4460126 L11.125762,22.8921897 C9.09517024,22.5680595 7.63284448,21.6995865 7.59608517,20.6743859 L7.5953761,20.6348084 L7.5953761,20.1157824 C7.5953761,19.9478689 7.63384178,19.783935 7.7066907,19.625654 Z M0.110948594,18.2165118 C0.609539098,19.3031335 2.73216565,20.1195921 5.27530274,20.1195921 C5.76527777,20.1195921 6.2392111,20.0887923 6.68934272,20.032074 L6.74548464,20.0248496 L6.74548464,20.6604156 C6.74548464,20.9507934 6.81248782,21.2310865 6.94237996,21.4968629 C6.41833548,21.5760034 5.8579411,21.6189654 5.27530274,21.6189654 C2.3909743,21.6189654 0.0472919558,20.5688158 0.000706741686,19.2652451 L0,19.2256662 L0,18.7066402 C0,18.5386363 0.0383392045,18.3747476 0.110948594,18.2165118 Z M7.7066907,16.9448878 C8.20692602,18.0315094 10.3365549,18.847968 12.8880816,18.847968 C13.0067299,18.847968 13.124466,18.8462025 13.2411683,18.8427263 L11.8226876,20.2270526 L11.8043476,20.297127 C9.42860009,20.0735957 7.63682517,19.1298851 7.59608517,17.993665 L7.5953761,17.9540874 L7.5953761,17.4350162 C7.5953761,17.2670122 7.63384178,17.1031688 7.7066907,16.9448878 Z M0.110795399,15.5357908 C0.608697463,16.6224125 2.72839315,17.4388711 5.26801874,17.4388711 C5.75731723,17.4388711 6.23059617,17.4080713 6.68010626,17.3513531 L6.73617066,17.3441286 L6.73617066,18.8439994 C6.27009857,18.9052767 5.77756922,18.9382444 5.26801874,18.9382444 C2.38767291,18.9382444 0.0472266564,17.8880948 0.000705765836,16.584568 L0,16.5449905 L0,16.0259645 C0,15.8579605 0.0382862668,15.6940718 0.110795399,15.5357908 Z M7.7066907,14.1266939 C8.20692602,15.2133011 10.3365549,16.0297489 12.8880816,16.0297489 C14.592104,16.0297489 16.1079532,15.6656204 17.0759536,15.1000454 L14.7417119,17.3782672 C14.1648261,17.4758145 13.5402257,17.5291475 12.8880816,17.5291475 C9.99423803,17.5291475 7.64282407,16.4790118 7.59608517,15.1754585 L7.5953761,15.1358802 L7.5953761,14.616861 C7.5953761,14.4488141 7.63384178,14.2849276 7.7066907,14.1266939 Z M5.26801874,10.9304497 C5.75718721,10.9304497 6.2307106,10.960759 6.68012061,11.0173064 L6.73617066,11.0245111 L6.73617066,16.1290486 C6.27009857,16.1902675 5.77756922,16.2231552 5.26801874,16.2231552 C2.38767291,16.2231552 0.0472266564,15.1754652 0.000705765836,13.8751434 L0,13.8356632 L0,13.3178966 C0,11.9993218 2.35857851,10.9304497 5.26801874,10.9304497 Z M18.0694725,11.4803412 C18.1392861,11.6319838 18.177522,11.788818 18.1805871,11.9495304 L18.1807871,11.9705148 L18.1807871,12.4895408 C18.1807871,13.8113228 15.8111106,14.8827947 12.8880816,14.8827947 C9.99423803,14.8827947 7.64282407,13.8326451 7.59608517,12.5291184 L7.5953761,12.4895408 L7.5953761,11.9705148 C7.5953761,11.8024656 7.63384178,11.6385769 7.7066907,11.4803412 C8.20692602,12.567008 10.3365549,13.3834214 12.8880816,13.3834214 C15.4396083,13.3834214 17.5692372,12.567008 18.0694725,11.4803412 Z M27.9610286,8.37501024 L27.9802658,8.39393775 L29.6292872,10.0429592 C30.1186281,10.5323001 30.1235215,11.3184669 29.6439674,11.8137776 L29.6292872,11.8286974 L27.7867727,13.6712119 L24.0890962,9.9735354 L25.6686938,8.39393775 C26.3017543,7.76302079 27.3223189,7.75671162 27.9610286,8.37501024 Z M12.8880816,6.875 C15.7818803,6.875 18.1333383,7.92261045 18.180078,9.22298539 L18.1807871,9.26246724 L18.1807871,9.78023828 C18.1807871,11.0988243 15.8111106,12.1677055 12.8880816,12.1677055 C9.99423803,12.1677055 7.64282407,11.1200951 7.59608517,9.81972013 L7.5953761,9.78023828 L7.5953761,9.26246724 C7.5953761,7.94388119 9.96500728,6.875 12.8880816,6.875 Z" transform="translate(11 1)"/>
  </g>
</svg>
