<svg height="32" viewBox="0 0 51 32" width="51" xmlns="http://www.w3.org/2000/svg"><g fill="none" fill-rule="evenodd"><path d="m.5.5h50v31h-50z" fill="#fff" stroke="#d0d0d0"/><path d="m4.52904109 22.4360168c.21860446.0268412.3830116.1357008.50455047.2824247.06467521.0780771.11244644.1614089.15422187.2557568l.01271893.0295195c.0439181.1047423.08186304.2250731.12350767.3810139l.00979898.0375801c.02906709.116265.18493401.7599917.24304842.9664943.09638978.3425098.194801.6052789.3016724.7945857.05053621.0895175.09960222.1561568.14379221.1993236.01610873.0157357.0300812.0268931.04167898.0341809.00664185.0041735.01100158.006206.01399952.0071405.09581578.0298683.12294494.0271289.1489934.0115995.04643348-.0276824.11040094-.09882.19900616-.2329363l.01516144-.023255.16704588-.2659844c.07080376-.1099476.13247065-.1953364.20363034-.2751666.11274459-.1264821.23884081-.2260251.39592909-.2918424.19644445-.0823068.39658667-.0838519.58901462-.0314491.11838241.0322385.2271571.0824739.34366318.1507228l.0254969.0151435.02760625.0168606c.05093123.0315421.10413195.0668583.16802786.1109469l.26264594.1831932.0365103.024734.03193235.0212432c.4531835.2987693.71404532.3519268 1.00945935.1820323l.01464592-.0085891.01476678-.0089934c.3226015-.2001006.7463353-.100794.9464359.2218076.2001006.3226015.1007939.7463353-.2218076.9464359-.0228031.0141441-.0456975.027826-.0686831.0410451-.4859319.2794626-.99421844.3427943-1.49766679.2195386-.35023786-.0857463-.6506608-.2402546-1.00950365-.4826746l-.02636263-.0178953c-.02413667-.0164613-.04792846-.0328695-.07420647-.0511588l-.10734497-.075262-.06525097.1036629-.02168163.0337319c-.19756939.3025856-.38698341.5154292-.65450435.6749178-.36913503.2200682-.80120547.2636982-1.2620816.120031-.42466944-.1323807-.74193276-.4422973-.98748326-.8772537-.13856699-.2454509-.2524653-.5260109-.35647919-.8574693l-.00922026-.0296158-.03718053.0937985c-.08035368.2009285-.147627.3567613-.21677241.5001595l-.01483488.030517c-.07813222.159427-.15434.2920766-.23604.4035366-.13647468.186187-.28843955.3225907-.50792098.3931002-.28169735.0904967-.53096409.0236412-.75861401-.1205274-.12395949-.0785023-.24217674-.1825762-.3664066-.3139462-.17916074-.1894582-.37523953-.4413003-.59987121-.7607991l-.01932435-.0275514c-.05997076-.085705-.12174727-.1758874-.18628007-.2717447l-.05462506-.0814937c-.04580824-.0686322-.09271059-.139623-.14352487-.2171474l-.34262473-.5262291-.05081935-.0770374-.04134679-.061789c-.02283853-.033821-.042215-.0619081-.05857813-.0849104l-.0123074-.0170891-.00095774-.0008478c-.15852315-.1425332-.24842432-.3563842-.22451366-.5835979l.00144287-.0117512c.04626414-.3767912.38921827-.6447364.76600948-.5984722.16398471.0201348.2678101.0779658.36599878.1582972.03711196.0303625.06764141.0606325.09739002.0937793.0304102.0338839.05985819.0708729.0921073.1144578l.01223207.0166604c.04826544.0662218.10513438.1498453.18223811.2669395l.33553856.5152784.0686102.1045966c.02757848.0418884.0540416.0818766.07993692.1207772l.06817725.1018525.04455393.0659037c.04402093.0648325.0864794.1264976.12770411.1854124l.03650098.0518954.03929992.0552463c.05180002.0723687.10118928.1395461.14803209.2013064l.02452154.032129.01780434-.0425775.01449001-.0351834c.04402565-.1074818.09317297-.2326207.15070806-.3827507l.18887395-.4943145c.17530759-.4559695.21956459-.55416.32004336-.7418402l.00389269-.0072636c.06448543-.1202081.12915188-.219338.20675812-.305501.06322182-.0701926.13412609-.130964.22106307-.1805844.1375652-.0785171.29841482-.1181207.4719304-.0968156zm8.23782381-1.1402158 3.6955801 3.6976422-4.12044.9990497c-.2998276.0729071-.5707937-.1922733-.5109629-.4914057l.0019352-.0091674zm-11.98904335 2.6170702.00259695.0018405c.06859303.047821.14925187.0826722.26267953.0981595-.0941978-.0128617-.18159273-.0463438-.25897597-.0958792zm22.34796785-12.9781255 3.6976765 3.6976422-9.3598404 9.3598404-3.69558-3.6976422zm-15.4190987 8.6909083c.406342.8826646 1.88781339 1.5870366 3.7972153 1.8203586l-.378144 1.4461771c-2.03059176-.3241302-3.49291752-1.1926032-3.52967683-2.2178038l-.00070907-.0395775v-.519026c0-.1679135.03846568-.3318474.1113146-.4901284zm-7.59574211-1.4091422c.49859051 1.0866217 2.62121706 1.9030803 5.16435415 1.9030803.48997503 0 .96390836-.0307998 1.41403998-.0875181l.05614192-.0072244v.635566c0 .2903778.06700318.5706709.19689532.8364473-.52404448.0791405-1.08443886.1221025-1.66707722.1221025-2.88432844 0-5.22801078-1.0501496-5.274596-2.3537203l-.00070674-.0395789v-.519026c0-.1680039.0383392-.3318926.11094859-.4901284zm7.59574211-1.271624c.50023532 1.0866216 2.6298642 1.9030802 5.1813909 1.9030802.1186483 0 .2363844-.0017655.3530867-.0052417l-1.4184807 1.3843263-.01834.0700744c-2.37574751-.2235313-4.16752243-1.1672419-4.20826243-2.303462l-.00070907-.0395776v-.5190712c0-.168004.03846568-.3318474.1113146-.4901284zm-7.5958953-1.409097c.49790206 1.0866217 2.61759775 1.9030803 5.15722334 1.9030803.48929849 0 .96257743-.0307998 1.41208752-.087518l.0560644-.0072245v1.4998708c-.46607209.0612773-.95860144.094245-1.46815192.094245-2.88034583 0-5.22079208-1.0501496-5.26731297-2.3536764l-.00070577-.0395775v-.519026c0-.168004.03828627-.3318927.1107954-.4901737zm7.5958953-1.4090969c.50023532 1.0866072 2.6298642 1.903055 5.1813909 1.903055 1.7040224 0 3.2198716-.3641285 4.187872-.9297035l-2.3342417 2.2782218c-.5768858.0975473-1.2014862.1508803-1.8536303.1508803-2.89384357 0-5.24525753-1.0501357-5.29199643-2.353689l-.00070907-.0395783v-.5190192c0-.1680469.03846568-.3319334.1113146-.4901671zm-2.43867196-3.1962442c.48916847 0 .96269186.0303093 1.41210187.0868567l.05605005.0072047v5.1045375c-.46607209.0612189-.95860144.0941066-1.46815192.0941066-2.88034583 0-5.22079208-1.04769-5.26731297-2.3480118l-.00070577-.0394802v-.5177666c0-1.3185748 2.35857851-2.3874469 5.26801874-2.3874469zm12.80145376.5498915c.0698136.1516426.1080495.3084768.1111146.4691892l.0002.0209844v.519026c0 1.321782-2.3696765 2.3932539-5.2927055 2.3932539-2.89384357 0-5.24525753-1.0501496-5.29199643-2.3536763l-.00070907-.0395776v-.519026c0-.1680492.03846568-.3319379.1113146-.4901736.50023532 1.0866668 2.6298642 1.9030802 5.1813909 1.9030802s4.6811556-.8164134 5.1813909-1.9030802zm9.8915561-3.10533096.0192372.01892751 1.6490214 1.64902145c.4893409.4893409.4942343 1.2755077.0146802 1.7708184l-.0146802.0149198-1.8425145 1.8425145-3.6976765-3.6976765 1.5795976-1.57959765c.6330605-.63091696 1.6536251-.63722613 2.2923348-.01892751zm-15.072947-1.50001024c2.8937987 0 5.2452567 1.04761045 5.2919964 2.34798539l.0007091.03948185v.51777104c0 1.31858602-2.3696765 2.38746722-5.2927055 2.38746722-2.89384357 0-5.24525753-1.0476104-5.29199643-2.34798537l-.00070907-.03948185v-.51777104c0-1.31858605 2.36963118-2.38746724 5.2927055-2.38746724z" fill="#2c3341" fill-rule="nonzero" transform="translate(11 1)"/></g></svg>