<svg xmlns="http://www.w3.org/2000/svg" width="640" height="360" viewBox="0 0 640 360">
  <path fill="#2C3341" d="M51.3291324,234.441523 C53.8066496,234.745724 55.6699305,235.979466 57.047371,237.642337 C57.7803567,238.527211 58.321764,239.471638 58.7952189,240.540914 L58.9393667,240.875468 C59.4371053,242.062548 59.8671479,243.426297 60.3391203,245.193626 L60.4501755,245.619534 C60.7796025,246.937203 62.5460943,254.232773 63.2047242,256.573136 C64.2971417,260.454913 65.4124688,263.432963 66.6236781,265.578441 C67.1964218,266.592972 67.7525032,267.348218 68.2533231,267.837441 C68.4358888,268.015779 68.5942434,268.14223 68.7256849,268.224825 C68.8009591,268.272125 68.8503695,268.295159 68.8843461,268.305751 C69.9702583,268.644258 70.2777221,268.613211 70.572938,268.437211 C71.0991841,268.123478 71.8241487,267.317251 72.8283411,265.797267 L73.0001708,265.53371 L74.8933575,262.51922 C75.6958,261.273147 76.3946915,260.305408 77.2011679,259.400665 C78.47894,257.967201 79.9080305,256.839048 81.6883643,256.093118 C83.9147347,255.160308 86.1830132,255.142796 88.3638634,255.736695 C89.7055306,256.102065 90.9383105,256.671399 92.2587127,257.444887 L92.5476776,257.616513 L92.8605484,257.807599 C93.4377691,258.165077 94.0407105,258.565327 94.7648642,259.064998 L97.7415181,261.141187 L97.7415181,261.141187 L98.1553016,261.421506 L98.5172015,261.662262 C103.653281,265.048314 106.609715,265.650766 109.957741,263.725295 L110.123728,263.627952 L110.291085,263.526027 C113.947235,261.25822 118.749552,262.383695 121.017358,266.039846 C123.285165,269.695997 122.15969,274.498313 118.503539,276.766119 C118.245103,276.92642 117.985633,277.081481 117.725131,277.231298 C112.217902,280.398541 106.457321,281.1163 100.751573,279.719402 C96.7822109,278.74761 93.3774176,276.996516 89.310532,274.249089 L89.0117556,274.046277 C88.7382066,273.859715 88.4685664,273.673756 88.1707489,273.466477 L86.9541726,272.613507 L86.2146616,273.788354 L85.9689364,274.170648 C83.7298166,277.599952 81.5831244,280.012179 78.5512204,281.819717 C74.3676901,284.313823 69.4708917,284.808297 64.247629,283.180068 C59.4347087,281.679754 55.8390577,278.167365 53.056152,273.23786 C51.4857262,270.456083 50.1948787,267.276402 49.0160545,263.519875 L48.9115582,263.184228 L48.490179,264.247278 C47.5795039,266.524468 46.8170729,268.290573 46.033425,269.915753 L45.8652963,270.261611 C44.9797978,272.068451 44.1161097,273.571813 43.1901763,274.835027 C41.6434633,276.945146 39.9211947,278.491055 37.4337386,279.290162 C34.2411686,280.315792 31.4161455,279.558095 28.8361131,277.924185 C27.4312388,277.034492 26.0914434,275.854988 24.6835049,274.366127 C22.6530165,272.218935 20.4307903,269.364724 17.8849645,265.743738 L17.6659553,265.431489 C16.9862867,264.460166 16.2861529,263.438099 15.5547811,262.351716 L14.9356971,261.428121 C14.4165371,260.650289 13.8849772,259.845726 13.309082,258.967117 L9.42600172,253.003187 L8.85004899,252.130096 L8.38145209,251.429821 C8.12261536,251.046516 7.90301541,250.728196 7.71756659,250.467503 L7.57808275,250.273826 L7.56722833,250.264218 C5.77063264,248.648842 4.75175271,246.225198 5.02274019,243.650109 L5.03909272,243.516928 C5.56341968,239.246628 9.45023314,236.209916 13.7205336,236.734243 C15.5790269,236.962437 16.7557147,237.617855 17.8685197,238.528278 C18.2891219,238.872386 18.6351223,239.215447 18.9722732,239.59111 C19.3169222,239.975128 19.650666,240.394337 20.016156,240.888299 L20.1547861,241.077116 C20.7017945,241.827631 21.3463091,242.775364 22.2201513,244.102431 L26.0229217,249.942253 L26.800504,251.127681 C27.1130601,251.602416 27.4129754,252.055616 27.7064557,252.496489 L28.4791312,253.650818 L28.9840758,254.397726 C29.4829797,255.132495 29.9641757,255.831366 30.4313891,256.499067 L30.8450668,257.087215 L31.2904658,257.71334 C31.8775327,258.533518 32.4372778,259.294861 32.9681629,259.994811 L33.2460737,260.358941 L33.4478562,259.876396 L33.6120763,259.477651 C34.1110337,258.259523 34.6680366,256.841283 35.320101,255.139809 L37.4606724,249.537578 C39.4474918,244.369924 39.9490711,243.257099 41.0878306,241.130056 L41.1319477,241.047735 C41.8627825,239.685377 42.595669,238.561904 43.4752063,237.58539 C44.1917204,236.789875 44.9953021,236.101131 45.9805878,235.538767 C47.5396601,234.648907 49.3626225,234.200066 51.3291324,234.441523 Z M144.691136,221.519078 L186.574377,263.425689 L139.876057,274.748253 C136.47801,275.574534 133.407061,272.569155 134.085144,269.178988 L134.107076,269.075091 L144.691136,221.519078 Z M8.81531087,249.762541 L8.84474296,249.781298 C9.62213068,250.268671 10.5362642,250.623861 11.8217777,250.781702 C10.7542026,250.650621 9.76372677,250.309383 8.88671668,249.804538 L8.81531087,249.762541 Z M262.09228,104.093785 L303.999281,146.000396 L197.921089,252.078587 L156.037849,210.171976 L262.09228,104.093785 Z M87.3424946,201.174078 C91.9477039,211.177611 108.737713,219.160493 130.377602,221.804809 L126.09197,238.194817 C103.078596,234.521341 86.5055708,224.678647 86.0889653,213.059707 L86.0809291,212.611162 L86.0809291,206.728867 C86.0809291,204.825847 86.5168735,202.96793 87.3424946,201.174078 Z M1.2574174,185.203801 C6.90810978,197.518846 30.964544,206.772044 59.7867644,206.772044 C65.3398147,206.772044 70.7110592,206.42298 75.8125508,205.780172 L76.4488259,205.698296 L76.4488259,212.901377 C76.4488259,216.192326 77.2081953,219.36898 78.6803063,222.381113 C72.7411355,223.278038 66.3899991,223.764941 59.7867644,223.764941 C27.0977088,223.764941 0.535975499,211.863245 0.00800973911,197.089445 L0,196.640884 L0,190.758589 C0,188.854544 0.434510985,186.997139 1.2574174,185.203801 Z M87.3424946,170.792061 C93.0118282,183.107107 117.147623,192.360304 146.064925,192.360304 C147.409606,192.360304 148.743948,192.340295 150.066574,192.300898 L133.990459,207.989929 L133.782606,208.784106 C106.857468,206.250751 86.5506853,195.555365 86.0889653,182.678203 L86.0809291,182.229657 L86.0809291,176.34685 C86.0809291,174.442805 86.5168735,172.585913 87.3424946,170.792061 Z M1.25568119,154.822296 C6.89857125,167.137342 30.921789,176.390539 59.7042124,176.390539 C65.2495953,176.390539 70.6134233,176.041475 75.7078709,175.398668 L76.3432675,175.316791 L76.3432675,192.315326 C71.0611171,193.009803 65.4791179,193.383436 59.7042124,193.383436 C27.060293,193.383436 0.535235439,181.481741 0.00799867948,166.708438 L0,166.259892 L0,160.377597 C0,158.473552 0.433911024,156.616148 1.25568119,154.822296 Z M87.3424946,138.852531 C93.0118282,151.167413 117.147623,160.420488 146.064925,160.420488 C165.377178,160.420488 182.556803,156.293698 193.527474,149.883848 L167.072735,175.703694 C160.534696,176.809231 153.455892,177.413671 146.064925,177.413671 C113.268031,177.413671 86.6186728,165.512134 86.0889653,150.73853 L86.0809291,150.289975 L86.0809291,144.407759 C86.0809291,142.503226 86.5168735,140.645846 87.3424946,138.852531 Z M59.7042124,102.62843 C65.2481217,102.62843 70.6147201,102.971935 75.7080336,103.612805 L76.3432675,103.69446 L76.3432675,161.545884 C71.0611171,162.239699 65.4791179,162.612426 59.7042124,162.612426 C27.060293,162.612426 0.535235439,150.738606 0.00799867948,136.001625 L0,135.554183 L0,129.686161 C0,114.742313 26.7305565,102.62843 59.7042124,102.62843 Z M204.787355,108.860533 C205.578576,110.57915 206.011916,112.356604 206.046654,114.178012 L206.048921,114.415834 L206.048921,120.298129 C206.048921,135.278325 179.192587,147.421673 146.064925,147.421673 C113.268031,147.421673 86.6186728,135.519978 86.0889653,120.746675 L86.0809291,120.298129 L86.0809291,114.415834 C86.0809291,112.511277 86.5168735,110.653872 87.3424946,108.860533 C93.0118282,121.176091 117.147623,130.428776 146.064925,130.428776 C174.982227,130.428776 199.118022,121.176091 204.787355,108.860533 Z M316.891658,75.0834494 L317.109679,75.2979611 L335.798588,93.9868709 C341.344452,99.5327341 341.39991,108.442625 335.964964,114.056147 L335.798588,114.225237 L314.916757,135.107069 L273.009757,93.2000678 L290.911863,75.2979611 C298.086549,68.1475689 309.652948,68.076065 316.891658,75.0834494 Z M146.064925,56.6666667 C178.86131,56.6666667 205.511167,68.5395851 206.040885,83.2771677 L206.048921,83.7246287 L206.048921,89.5927005 C206.048921,104.536676 179.192587,116.650663 146.064925,116.650663 C113.268031,116.650663 86.6186728,104.777744 86.0889653,90.0401615 L86.0809291,89.5927005 L86.0809291,83.7246287 C86.0809291,68.7806534 112.936749,56.6666667 146.064925,56.6666667 Z" transform="translate(150 10)"/>
</svg>
