<svg height="360" viewBox="0 0 640 360" width="640" xmlns="http://www.w3.org/2000/svg"><path d="m51.3291324 234.441523c2.4775172.304201 4.3407981 1.537943 5.7182386 3.200814.7329857.884874 1.274393 1.829301 1.7478479 2.898577l.1441478.334554c.4977386 1.18708.9277812 2.550829 1.3997536 4.318158l.1110552.425908c.329427 1.317669 2.0959188 8.613239 2.7545487 10.953602 1.0924175 3.881777 2.2077446 6.859827 3.4189539 9.005305.5727437 1.014531 1.1288251 1.769777 1.629645 2.259.1825657.178338.3409203.304789.4723618.387384.0752742.0473.1246846.070334.1586612.080926 1.0859122.338507 1.393376.30746 1.6885919.13146.5262461-.313733 1.2512107-1.11996 2.2554031-2.639944l.1718297-.263557 1.8931867-3.01449c.8024425-1.246073 1.501334-2.213812 2.3078104-3.118555 1.2777721-1.433464 2.7068626-2.561617 4.4871964-3.307547 2.2263704-.93281 4.4946489-.950322 6.6754991-.356423 1.3416672.36537 2.5744471.934704 3.8948493 1.708192l.2889649.171626.3128708.191086c.5772207.357478 1.1801621.757728 1.9043158 1.257399l2.9766539 2.076189.4137835.280319.3618999.240756c5.1360795 3.386052 8.0925135 3.988504 11.4405395 2.063033l.165987-.097343.167357-.101925c3.65615-2.267807 8.458467-1.142332 10.726273 2.513819 2.267807 3.656151 1.142332 8.458467-2.513819 10.726273-.258436.160301-.517906.315362-.778408.465179-5.507229 3.167243-11.26781 3.885002-16.973558 2.488104-3.9693621-.971792-7.3741554-2.722886-11.441041-5.470313l-.2987764-.202812c-.273549-.186562-.5431892-.372521-.8410067-.5798l-1.2165763-.85297-.739511 1.174847-.2457252.382294c-2.2391198 3.429304-4.385812 5.841531-7.417716 7.649069-4.1835303 2.494106-9.0803287 2.98858-14.3035914 1.360351-4.8129203-1.500314-8.4085713-5.012703-11.191477-9.942208-1.5704258-2.781777-2.8612733-5.961458-4.0400975-9.717985l-.1044963-.335647-.4213792 1.06305c-.9106751 2.27719-1.6731061 4.043295-2.456754 5.668475l-.1681287.345858c-.8854985 1.80684-1.7491866 3.310202-2.67512 4.573416-1.546713 2.110119-3.2689816 3.656028-5.7564377 4.455135-3.19257 1.02563-6.0175931.267933-8.5976255-1.365977-1.4048743-.889693-2.7446697-2.069197-4.1526082-3.558058-2.0304884-2.147192-4.2527146-5.001403-6.7985404-8.622389l-.2190092-.312249c-.6796686-.971323-1.3798024-1.99339-2.1111742-3.079773l-.619084-.923595c-.51916-.777832-1.0507199-1.582395-1.6266151-2.461004l-3.88308028-5.96393-.57595273-.873091-.4685969-.700275c-.25883673-.383305-.47843668-.701625-.6638855-.962318l-.13948384-.193677-.01085442-.009608c-1.79659569-1.615376-2.81547562-4.03902-2.54448814-6.614109l.01635253-.133181c.52432696-4.2703 4.41114042-7.307012 8.68144088-6.782685 1.8584933.228194 3.0351811.883612 4.1479861 1.794035.4206022.344108.7666026.687169 1.1037535 1.062832.344649.384018.6783928.803227 1.0438828 1.297189l.1386301.188817c.5470084.750515 1.191523 1.698248 2.0653652 3.025315l3.8027704 5.839822.7775823 1.185428c.3125561.474735.6124714.927935.9059517 1.368808l.7726755 1.154329.5049446.746908c.4989039.734769.9800999 1.43364 1.4473133 2.101341l.4136777.588148.445399.626125c.5870669.820178 1.146812 1.581521 1.6776971 2.281471l.2779108.36413.2017825-.482545.1642201-.398745c.4989574-1.218128 1.0559603-2.636368 1.7080247-4.337842l2.1405714-5.602231c1.9868194-5.167654 2.4883987-6.280479 3.6271582-8.407522l.0441171-.082321c.7308348-1.362358 1.4637213-2.485831 2.3432586-3.462345.7165141-.795515 1.5200958-1.484259 2.5053815-2.046623 1.5590723-.88986 3.3820347-1.338701 5.3485446-1.097244zm93.3620036-12.922445 41.883241 41.906611-46.69832 11.322564c-3.398047.826281-6.468996-2.179098-5.790913-5.569265l.021932-.103897zm-135.87582513 28.243463.02943209.018757c.77738772.487373 1.69152124.842563 2.97703474 1.000404-1.0675751-.131081-2.05805093-.472319-2.93506102-.977164zm253.27696913-145.668756 41.907001 41.906611-106.078192 106.078191-41.88324-41.906611zm-174.7497854 97.080293c4.6052093 10.003533 21.3952184 17.986415 43.0351074 20.630731l-4.285632 16.390008c-23.013374-3.673476-39.5863992-13.51617-40.0030047-25.13511l-.0080362-.448545v-5.882295c0-1.90302.4359444-3.760937 1.2615655-5.554789zm-86.0850772-15.970277c5.65069238 12.315045 29.7071266 21.568243 58.529347 21.568243 5.5530503 0 10.9242948-.349064 16.0257864-.991872l.6362751-.081876v7.203081c0 3.290949.7593694 6.467603 2.2314804 9.479736-5.9391708.896925-12.2903072 1.383828-18.8935419 1.383828-32.6890556 0-59.2507889-11.901696-59.77875466-26.675496l-.00800974-.448561v-5.882295c0-1.904045.43451099-3.76145 1.2574174-5.554788zm86.0850772-14.41174c5.6693336 12.315046 29.8051284 21.568243 58.7224304 21.568243 1.344681 0 2.679023-.020009 4.001649-.059406l-16.076115 15.689031-.207853.794177c-26.925138-2.533355-47.2319207-13.228741-47.6936407-26.105903l-.0080362-.448546v-5.882807c0-1.904045.4359444-3.760937 1.2615655-5.554789zm-86.08681341-15.969765c5.64289006 12.315046 29.66610781 21.568243 58.44853121 21.568243 5.5453829 0 10.9092109-.349064 16.0036585-.991871l.6353966-.081877v16.998535c-5.2821504.694477-10.8641496 1.06811-16.6390551 1.06811-32.6439194 0-59.16897696-11.901695-59.69621372-26.674998l-.00799868-.448546v-5.882295c0-1.904045.43391102-3.761449 1.25568119-5.555301zm86.08681341-15.969765c5.6693336 12.314882 29.8051284 21.567957 58.7224304 21.567957 19.312253 0 36.491878-4.12679 47.462549-10.53664l-26.454739 25.819846c-6.538039 1.105537-13.616843 1.709977-21.00781 1.709977-32.796894 0-59.4462522-11.901537-59.9759597-26.675141l-.0080362-.448555v-5.882216c0-1.904533.4359444-3.761913 1.2615655-5.555228zm-27.6382822-36.224101c5.5439093 0 10.9105077.343505 16.0038212.984375l.6352339.081655v57.851424c-5.2821504.693815-10.8641496 1.066542-16.6390551 1.066542-32.6439194 0-59.16897696-11.87382-59.69621372-26.610801l-.00799868-.447442v-5.868022c0-14.943848 26.7305565-27.057731 59.7042124-27.057731zm145.0831426 6.232103c.791221 1.718617 1.224561 3.496071 1.259299 5.317479l.002267.237822v5.882295c0 14.980196-26.856334 27.123544-59.983996 27.123544-32.796894 0-59.4462522-11.901695-59.9759597-26.674998l-.0080362-.448546v-5.882295c0-1.904557.4359444-3.761962 1.2615655-5.555301 5.6693336 12.315558 29.8051284 21.568243 58.7224304 21.568243s53.053097-9.252685 58.72243-21.568243zm112.104303-33.7770836.218021.2145117 18.688909 18.6889098c5.545864 5.5458632 5.601322 14.4557541.166376 20.0692761l-.166376.16909-20.881831 20.881832-41.907-41.9070012 17.902106-17.9021067c7.174686-7.1503922 18.741085-7.2218961 25.979795-.2145117zm-170.826733-18.4167827c32.796385 0 59.446242 11.8729184 59.97596 26.610501l.008036.447461v5.8680718c0 14.9439755-26.856334 27.0579625-59.983996 27.0579625-32.796894 0-59.4462522-11.872919-59.9759597-26.6105015l-.0080362-.447461v-5.8680718c0-14.9439753 26.8558199-27.057962 59.9839959-27.057962z" fill="#2c3341" transform="translate(150 10)"/></svg>