<svg xmlns="http://www.w3.org/2000/svg" width="640" height="360" viewBox="0 0 640 360">
  <path fill="#2C3341" d="M51.3291324,254.274857 C53.8066496,254.579058 55.6699305,255.8128 57.047371,257.47567 C57.7803567,258.360544 58.321764,259.304971 58.7952189,260.374247 L58.9393667,260.708801 C59.4371053,261.895881 59.8671479,263.25963 60.3391203,265.026959 L60.4501755,265.452867 C60.7796025,266.770537 62.5460943,274.066106 63.2047242,276.40647 C64.2971417,280.288246 65.4124688,283.266296 66.6236781,285.411774 C67.1964218,286.426305 67.7525032,287.181551 68.2533231,287.670774 C68.4358888,287.849112 68.5942434,287.975564 68.7256849,288.058158 C68.8009591,288.105458 68.8503695,288.128493 68.8843461,288.139084 C69.9702583,288.477592 70.2777221,288.446544 70.572938,288.270545 C71.0991841,287.956811 71.8241487,287.150584 72.8283411,285.6306 L73.0001708,285.367043 L74.8933575,282.352553 C75.6958,281.10648 76.3946915,280.138741 77.2011679,279.233999 C78.47894,277.800535 79.9080305,276.672381 81.6883643,275.926452 C83.9147347,274.993641 86.1830132,274.97613 88.3638634,275.570029 C89.7055306,275.935398 90.9383105,276.504733 92.2587127,277.27822 L92.5476776,277.449847 L92.8605484,277.640933 C93.4377691,277.99841 94.0407105,278.39866 94.7648642,278.898331 L97.7415181,280.974521 L97.7415181,280.974521 L98.1553016,281.25484 L98.5172015,281.495596 C103.653281,284.881648 106.609715,285.4841 109.957741,283.558628 L110.123728,283.461285 L110.291085,283.35936 C113.947235,281.091553 118.749552,282.217029 121.017358,285.873179 C123.285165,289.52933 122.15969,294.331646 118.503539,296.599453 C118.245103,296.759753 117.985633,296.914815 117.725131,297.064631 C112.217902,300.231874 106.457321,300.949634 100.751573,299.552735 C96.7822109,298.580944 93.3774176,296.82985 89.310532,294.082423 L89.0117556,293.87961 C88.7382066,293.693049 88.4685664,293.507089 88.1707489,293.29981 L86.9541726,292.44684 L86.2146616,293.621687 L85.9689364,294.003982 C83.7298166,297.433285 81.5831244,299.845513 78.5512204,301.653051 C74.3676901,304.147157 69.4708917,304.64163 64.247629,303.013401 C59.4347087,301.513087 55.8390577,298.000698 53.056152,293.071193 C51.4857262,290.289416 50.1948787,287.109736 49.0160545,283.353208 L48.9115582,283.017561 L48.490179,284.080611 C47.5795039,286.357802 46.8170729,288.123906 46.033425,289.749086 L45.8652963,290.094945 C44.9797978,291.901784 44.1161097,293.405146 43.1901763,294.66836 C41.6434633,296.778479 39.9211947,298.324388 37.4337386,299.123496 C34.2411686,300.149125 31.4161455,299.391429 28.8361131,297.757519 C27.4312388,296.867825 26.0914434,295.688322 24.6835049,294.199461 C22.6530165,292.052268 20.4307903,289.198058 17.8849645,285.577071 L17.6659553,285.264822 C16.9862867,284.293499 16.2861529,283.271432 15.5547811,282.185049 L14.9356971,281.261454 C14.4165371,280.483622 13.8849772,279.679059 13.309082,278.80045 L9.42600172,272.83652 L8.85004899,271.963429 L8.38145209,271.263154 C8.12261536,270.879849 7.90301541,270.561529 7.71756659,270.300837 L7.57808275,270.10716 L7.56722833,270.097551 C5.77063264,268.482176 4.75175271,266.058531 5.02274019,263.483442 L5.03909272,263.350261 C5.56341968,259.079961 9.45023314,256.04325 13.7205336,256.567577 C15.5790269,256.795771 16.7557147,257.451189 17.8685197,258.361611 C18.2891219,258.70572 18.6351223,259.04878 18.9722732,259.424443 C19.3169222,259.808461 19.650666,260.22767 20.016156,260.721632 L20.1547861,260.91045 C20.7017945,261.660964 21.3463091,262.608697 22.2201513,263.935764 L26.0229217,269.775587 L26.800504,270.961014 C27.1130601,271.43575 27.4129754,271.88895 27.7064557,272.329822 L28.4791312,273.484151 L28.9840758,274.23106 C29.4829797,274.965828 29.9641757,275.6647 30.4313891,276.3324 L30.8450668,276.920548 L31.2904658,277.546673 C31.8775327,278.366851 32.4372778,279.128195 32.9681629,279.828145 L33.2460737,280.192274 L33.4478562,279.709729 L33.6120763,279.310984 C34.1110337,278.092856 34.6680366,276.674616 35.320101,274.973142 L37.4606724,269.370912 C39.4474918,264.203258 39.9490711,263.090432 41.0878306,260.963389 L41.1319477,260.881069 C41.8627825,259.51871 42.595669,258.395238 43.4752063,257.418724 C44.1917204,256.623208 44.9953021,255.934465 45.9805878,255.3721 C47.5396601,254.48224 49.3626225,254.0334 51.3291324,254.274857 Z M144.691136,241.352412 L186.574377,283.259023 L139.876057,294.581586 C136.47801,295.407867 133.407061,292.402489 134.085144,289.012322 L134.107076,288.908425 L144.691136,241.352412 Z M8.81531087,271.012541 L8.84474296,271.031298 C9.62213068,271.518671 10.5362642,271.873861 11.8217777,272.031702 C10.7542026,271.900621 9.76372677,271.559383 8.88671668,271.054538 L8.81531087,271.012541 Z M262.09228,123.927118 L303.999281,165.833729 L197.921089,271.91192 L156.037849,230.005309 L262.09228,123.927118 Z M87.3424946,222.424078 C91.9477039,232.427611 108.737713,240.410493 130.377602,243.054809 L126.09197,259.444817 C103.078596,255.771341 86.5055708,245.928647 86.0889653,234.309707 L86.0809291,233.861162 L86.0809291,227.978867 C86.0809291,226.075847 86.5168735,224.21793 87.3424946,222.424078 Z M1.2574174,206.453801 C6.90810978,218.768846 30.964544,228.022044 59.7867644,228.022044 C65.3398147,228.022044 70.7110592,227.67298 75.8125508,227.030172 L76.4488259,226.948296 L76.4488259,234.151377 C76.4488259,237.442326 77.2081953,240.61898 78.6803063,243.631113 C72.7411355,244.528038 66.3899991,245.014941 59.7867644,245.014941 C27.0977088,245.014941 0.535975499,233.113245 0.00800973911,218.339445 L0,217.890884 L0,212.008589 C0,210.104544 0.434510985,208.247139 1.2574174,206.453801 Z M87.3424946,192.042061 C93.0118282,204.357107 117.147623,213.610304 146.064925,213.610304 C147.409606,213.610304 148.743948,213.590295 150.066574,213.550898 L133.990459,229.239929 L133.782606,230.034106 C106.857468,227.500751 86.5506853,216.805365 86.0889653,203.928203 L86.0809291,203.479657 L86.0809291,197.59685 C86.0809291,195.692805 86.5168735,193.835913 87.3424946,192.042061 Z M1.25568119,176.072296 C6.89857125,188.387342 30.921789,197.640539 59.7042124,197.640539 C65.2495953,197.640539 70.6134233,197.291475 75.7078709,196.648668 L76.3432675,196.566791 L76.3432675,213.565326 C71.0611171,214.259803 65.4791179,214.633436 59.7042124,214.633436 C27.060293,214.633436 0.535235439,202.731741 0.00799867948,187.958438 L0,187.509892 L0,181.627597 C0,179.723552 0.433911024,177.866148 1.25568119,176.072296 Z M87.3424946,160.102531 C93.0118282,172.417413 117.147623,181.670488 146.064925,181.670488 C165.377178,181.670488 182.556803,177.543698 193.527474,171.133848 L167.072735,196.953694 C160.534696,198.059231 153.455892,198.663671 146.064925,198.663671 C113.268031,198.663671 86.6186728,186.762134 86.0889653,171.98853 L86.0809291,171.539975 L86.0809291,165.657759 C86.0809291,163.753226 86.5168735,161.895846 87.3424946,160.102531 Z M59.7042124,123.87843 C65.2481217,123.87843 70.6147201,124.221935 75.7080336,124.862805 L76.3432675,124.94446 L76.3432675,182.795884 C71.0611171,183.489699 65.4791179,183.862426 59.7042124,183.862426 C27.060293,183.862426 0.535235439,171.988606 0.00799867948,157.251625 L0,156.804183 L0,150.936161 C0,135.992313 26.7305565,123.87843 59.7042124,123.87843 Z M204.787355,130.110533 C205.578576,131.82915 206.011916,133.606604 206.046654,135.428012 L206.048921,135.665834 L206.048921,141.548129 C206.048921,156.528325 179.192587,168.671673 146.064925,168.671673 C113.268031,168.671673 86.6186728,156.769978 86.0889653,141.996675 L86.0809291,141.548129 L86.0809291,135.665834 C86.0809291,133.761277 86.5168735,131.903872 87.3424946,130.110533 C93.0118282,142.426091 117.147623,151.678776 146.064925,151.678776 C174.982227,151.678776 199.118022,142.426091 204.787355,130.110533 Z M316.891658,94.9167827 L317.109679,95.1312945 L335.798588,113.820204 C341.344452,119.366067 341.39991,128.275958 335.964964,133.88948 L335.798588,134.058571 L314.916757,154.940402 L273.009757,113.033401 L290.911863,95.1312945 C298.086549,87.9809022 309.652948,87.9093983 316.891658,94.9167827 Z M146.064925,77.9166667 C178.86131,77.9166667 205.511167,89.7895851 206.040885,104.527168 L206.048921,104.974629 L206.048921,110.842701 C206.048921,125.786676 179.192587,137.900663 146.064925,137.900663 C113.268031,137.900663 86.6186728,126.027744 86.0889653,111.290161 L86.0809291,110.842701 L86.0809291,104.974629 C86.0809291,90.0306534 112.936749,77.9166667 146.064925,77.9166667 Z" transform="translate(150 10)"/>
</svg>
