<svg xmlns="http://www.w3.org/2000/svg" width="640" height="360" viewBox="0 0 169.333 95.25"><defs><clipPath id="a" clipPathUnits="userSpaceOnUse"><path d="M0 0h595.276v841.89H0Z"/></clipPath><clipPath id="b" clipPathUnits="userSpaceOnUse"><path d="M0 0h595.276v841.89H0Z"/></clipPath><clipPath id="c" clipPathUnits="userSpaceOnUse"><path d="M0 0h595.276v841.89H0Z"/></clipPath><clipPath id="d" clipPathUnits="userSpaceOnUse"><path d="M0 0h595.276v841.89H0Z"/></clipPath><clipPath id="e" clipPathUnits="userSpaceOnUse"><path d="M0 0h595.276v841.89H0Z"/></clipPath><clipPath id="f" clipPathUnits="userSpaceOnUse"><path d="M0 0h595.276v841.89H0Z"/></clipPath></defs><g clip-path="url(#a)" transform="matrix(.96236 0 0 -.96236 -226.704 785.788)"><path d="m0 0 1.443.141q.131-.727.53-1.068.398-.341 1.075-.341.716 0 1.081.303.363.303.363.71a.67.67 0 0 1-.153.443q-.154.184-.534.318-.262.092-1.188.321-1.193.297-1.675.727-.676.607-.676 1.479 0 .562.318 1.05.318.489.918.745.598.256 1.445.255 1.384 0 2.084-.606.699-.606.735-1.619l-1.485-.065q-.094.567-.408.814-.313.249-.94.249-.647 0-1.013-.266a.54.54 0 0 1-.236-.457q0-.26.22-.445.282-.237 1.365-.492 1.082-.256 1.601-.529.52-.273.812-.747.294-.474.294-1.17a2.17 2.17 0 0 0-.351-1.183 2.1 2.1 0 0 0-.992-.82q-.643-.268-1.6-.268-1.393 0-2.14.644T0 0" style="fill:#273e6d;fill-opacity:1;fill-rule:nonzero;stroke:none" transform="translate(253.401 746.256)"/></g><path d="M86.913 178.239h1.324v1.225h-1.324zm0 1.904h1.324v5.003h-1.324z" style="fill:#273e6d;fill-opacity:1;fill-rule:nonzero;stroke:none;stroke-width:.939803" transform="translate(-64.602 -119.666)scale(1.024)"/><g clip-path="url(#b)" transform="matrix(.96236 0 0 -.96236 -226.704 785.788)"><path d="M0 0h-1.409v2.717q0 .862-.091 1.116a.78.78 0 0 1-.781.534q-.366 0-.657-.201a1 1 0 0 1-.398-.531q-.108-.332-.108-1.224V0h-1.41v5.324h1.309v-.782q.697.903 1.755.902.466 0 .853-.168.385-.167.583-.428.198-.26.276-.592Q0 3.926 0 3.309Z" style="fill:#273e6d;fill-opacity:1;fill-rule:nonzero;stroke:none" transform="translate(268.926 743.865)"/><path d="m0 0 1.609-.195q.041-.28.186-.387.202-.15.633-.15.55 0 .826.166a.68.68 0 0 1 .281.355q.065.177.065.647v.777Q2.969.352 2.006.351q-1.072 0-1.699.907-.493.717-.493 1.785 0 1.338.645 2.045t1.602.707q.988 0 1.629-.867v.747h1.319V.897q0-.942-.156-1.408-.155-.467-.435-.732a1.94 1.94 0 0 0-.75-.416q-.47-.15-1.186-.151-1.354 0-1.92.464A1.46 1.46 0 0 0-.004-.17zm1.259 3.123q0-.846.329-1.24.328-.394.808-.394.516 0 .874.403.355.405.355 1.196 0 .828-.341 1.228a1.08 1.08 0 0 1-.862.402 1.04 1.04 0 0 1-.834-.394q-.33-.393-.329-1.201" style="fill:#273e6d;fill-opacity:1;fill-rule:nonzero;stroke:none" transform="translate(270.532 743.514)"/></g><path d="M102.25 178.239h1.324v6.907h-1.324z" style="fill:#273e6d;fill-opacity:1;fill-rule:nonzero;stroke:none;stroke-width:.939803" transform="translate(-64.602 -119.666)scale(1.024)"/><g clip-path="url(#c)" transform="matrix(.96236 0 0 -.96236 -226.704 785.788)"><path d="m0 0 1.402-.235q-.27-.772-.853-1.176-.585-.403-1.462-.403-1.388 0-2.056.907-.525.726-.526 1.835 0 1.323.692 2.073.692.749 1.749.749 1.188 0 1.875-.785T1.478.562h-3.529q.015-.627.34-.976.326-.348.813-.348.33 0 .556.18Q-.116-.4 0 0m.08 1.424q-.015.612-.316.93a.97.97 0 0 1-.733.318.98.98 0 0 1-.761-.336q-.301-.336-.295-.912Z" style="fill:#273e6d;fill-opacity:1;fill-rule:nonzero;stroke:none" transform="translate(283.487 745.56)"/></g><path d="M0 0v7.35h5.449V6.106H1.483V4.477h3.69V3.239h-3.69V1.238H5.59V0Z" style="fill:#273e6d;fill-opacity:1;fill-rule:nonzero;stroke:none" transform="matrix(.96236 0 0 -.96236 51.988 69.923)"/><g clip-path="url(#d)" transform="matrix(.96236 0 0 -.96236 -226.704 785.788)"><path d="M0 0v.797A2.04 2.04 0 0 0-.765.126a2.14 2.14 0 0 0-1-.246q-.535 0-.963.235a1.4 1.4 0 0 0-.616.662q-.19.426-.19 1.178v3.369h1.408V2.878q0-1.124.078-1.376a.75.75 0 0 1 .283-.401.87.87 0 0 1 .522-.148q.36 0 .646.197.286.199.391.492t.105 1.436v2.246h1.41V0Z" style="fill:#273e6d;fill-opacity:1;fill-rule:nonzero;stroke:none" transform="translate(300.242 743.865)"/><path d="M0 0h-1.409v5.324h1.308v-.757q.337.536.605.707.269.17.608.17.483 0 .928-.265L1.605 3.95q-.357.231-.663.231a.78.78 0 0 1-.501-.163q-.206-.163-.323-.589T0 1.645Z" style="fill:#273e6d;fill-opacity:1;fill-rule:nonzero;stroke:none" transform="translate(304.666 743.865)"/><path d="M0 0q0 .702.346 1.358.344.657.98 1.003.634.346 1.416.346 1.207 0 1.98-.785.771-.784.772-1.982 0-1.208-.779-2.003-.78-.794-1.963-.794-.731 0-1.397.33a2.27 2.27 0 0 0-1.009.97Q0-.917 0 0m1.443-.075q0-.792.376-1.213.377-.421.927-.421.552 0 .926.421.372.42.373 1.223 0 .782-.373 1.203a1.19 1.19 0 0 1-.926.421q-.55 0-.927-.421-.376-.421-.376-1.213" style="fill:#273e6d;fill-opacity:1;fill-rule:nonzero;stroke:none" transform="translate(307.296 746.602)"/><path d="M0 0v7.35h2.381q1.354 0 1.765-.111.632-.165 1.058-.719.425-.555.426-1.432 0-.676-.246-1.138a2 2 0 0 0-.624-.724 2.2 2.2 0 0 0-.77-.348q-.531-.105-1.539-.105h-.968V0Zm1.483 6.106V4.021h.813q.877 0 1.173.115a1 1 0 0 1 .464.361 1 1 0 0 1 .168.571.95.95 0 0 1-.236.662 1.02 1.02 0 0 1-.597.326q-.265.05-1.067.05Z" style="fill:#273e6d;fill-opacity:1;fill-rule:nonzero;stroke:none" transform="translate(317.37 743.865)"/><path d="m0 0-1.278.231q.214.772.741 1.143.527.37 1.564.371.943 0 1.404-.223.461-.224.649-.567.189-.343.189-1.261L3.253-1.95q0-.702.068-1.035.067-.333.253-.715H2.181a5 5 0 0 0-.136.416l-.05.166a2.5 2.5 0 0 0-.772-.526 2.2 2.2 0 0 0-.877-.176q-.823 0-1.296.446-.475.446-.474 1.128 0 .451.215.805.217.353.605.541.387.189 1.12.329.988.185 1.369.346v.14q-.001.407-.2.579-.201.173-.758.173-.376 0-.586-.148Q.13.372 0 0m1.885-1.143a9 9 0 0 0-.858-.215q-.585-.126-.766-.246-.277-.195-.277-.496.001-.296.221-.512a.78.78 0 0 1 .562-.216q.381 0 .726.251a.88.88 0 0 1 .336.467q.056.18.056.686z" style="fill:#273e6d;fill-opacity:1;fill-rule:nonzero;stroke:none" transform="translate(325.57 747.565)"/><path d="M0 0h1.499l1.273-3.78L4.016 0h1.459l-1.88-5.124-.336-.927a3.8 3.8 0 0 0-.354-.712 1.6 1.6 0 0 0-.386-.399 1.7 1.7 0 0 0-.537-.238 2.8 2.8 0 0 0-.718-.085q-.407 0-.798.085L.341-6.297a3 3 0 0 1 .596-.065q.492 0 .727.288.235.289.361.735z" style="fill:#273e6d;fill-opacity:1;fill-rule:nonzero;stroke:none" transform="translate(329.868 749.19)"/><path d="M0 0h1.298v-.727q.697.847 1.66.847.512 0 .887-.21.376-.211.617-.637.35.426.757.637.405.21.867.21.587 0 .992-.238.407-.239.608-.699.144-.34.144-1.104v-3.403H6.422v3.043q0 .792-.146 1.023-.195.3-.601.3a.96.96 0 0 1-.557-.18 1 1 0 0 1-.376-.529q-.115-.349-.115-1.101v-2.556H3.219v2.917q0 .778-.075 1.003a.65.65 0 0 1-.234.336.74.74 0 0 1-.428.11q-.327 0-.587-.175a.96.96 0 0 1-.373-.507q-.114-.33-.114-1.097v-2.587H0Z" style="fill:#273e6d;fill-opacity:1;fill-rule:nonzero;stroke:none" transform="translate(336.448 749.19)"/><path d="m0 0 1.403-.235q-.27-.772-.854-1.176-.585-.403-1.462-.403-1.388 0-2.055.907-.526.726-.526 1.835 0 1.323.691 2.073.692.749 1.75.749 1.188 0 1.875-.785.686-.785.657-2.403h-3.53q.015-.627.341-.976.326-.348.813-.348.33 0 .556.18Q-.115-.4 0 0m.08 1.424q-.015.612-.316.93a.97.97 0 0 1-.732.318.98.98 0 0 1-.761-.336q-.302-.336-.296-.912z" style="fill:#273e6d;fill-opacity:1;fill-rule:nonzero;stroke:none" transform="translate(349.073 745.56)"/><path d="M0 0h-1.409v2.717q0 .862-.09 1.116a.8.8 0 0 1-.294.393.83.83 0 0 1-.488.141q-.366 0-.657-.201a1 1 0 0 1-.399-.531q-.107-.332-.107-1.224V0h-1.41v5.324h1.309v-.782q.697.903 1.755.902.466 0 .853-.168.385-.167.583-.428.198-.26.276-.592Q0 3.926 0 3.309Z" style="fill:#273e6d;fill-opacity:1;fill-rule:nonzero;stroke:none" transform="translate(356.851 743.865)"/><path d="M0 0v-1.123h-.963v-2.146q0-.652.027-.759l.126-.178a.4.4 0 0 1 .238-.07q.196 0 .567.135l.12-1.093a2.8 2.8 0 0 0-1.113-.21q-.38 0-.687.127a1 1 0 0 0-.449.331 1.3 1.3 0 0 0-.197.549q-.045.246-.046.993v2.321h-.646V0h.646v1.058l1.414.822V0Z" style="fill:#273e6d;fill-opacity:1;fill-rule:nonzero;stroke:none" transform="translate(361.03 749.19)"/><path d="m0 0 1.414.215q.092-.411.366-.624.277-.213.772-.213.546 0 .822.201a.45.45 0 0 1 .186.376.38.38 0 0 1-.1.266q-.106.1-.472.185-1.704.376-2.161.687a1.37 1.37 0 0 0-.631 1.198q0 .692.546 1.163.547.471 1.695.471 1.092 0 1.625-.356.53-.356.731-1.052l-1.328-.246a.83.83 0 0 1-.323.476q-.24.165-.68.166-.557 0-.797-.156a.33.33 0 0 1-.161-.285q0-.151.141-.256.19-.141 1.316-.396 1.124-.257 1.571-.627.441-.377.442-1.047 0-.733-.612-1.259t-1.81-.526q-1.087 0-1.722.441A2.03 2.03 0 0 0 0 0" style="fill:#273e6d;fill-opacity:1;fill-rule:nonzero;stroke:none" transform="translate(361.818 745.384)"/></g><path d="M0 0h-1.614l-.642 1.669h-2.937L-5.8 0h-1.574l2.862 7.35h1.57zm-2.732 2.908-1.012 2.727-.993-2.727Z" style="fill:#273e6d;fill-opacity:1;fill-rule:nonzero;stroke:none" transform="matrix(.96236 0 0 -.96236 136.826 69.923)"/><g clip-path="url(#e)" transform="matrix(.96236 0 0 -.96236 -226.704 785.788)"><path d="M0 0h-1.409v5.324h1.308v-.757q.336.536.604.707.27.17.609.17.482 0 .928-.265L1.603 3.95q-.355.231-.661.231a.8.8 0 0 1-.502-.163q-.204-.163-.323-.589Q0 3.003 0 1.645Z" style="fill:#273e6d;fill-opacity:1;fill-rule:nonzero;stroke:none" transform="translate(380.183 743.865)"/><path d="m0 0 1.403-.235q-.27-.772-.854-1.176-.585-.403-1.462-.403-1.388 0-2.055.907-.526.726-.526 1.835 0 1.323.691 2.073.692.749 1.75.749 1.188 0 1.875-.785.686-.785.657-2.403h-3.53q.015-.627.341-.976.326-.348.813-.348.33 0 .556.18Q-.115-.4 0 0m.08 1.424q-.015.612-.316.93a.97.97 0 0 1-.732.318.98.98 0 0 1-.761-.336q-.302-.336-.296-.912z" style="fill:#273e6d;fill-opacity:1;fill-rule:nonzero;stroke:none" transform="translate(386.221 745.56)"/><path d="m0 0-1.278.231q.214.772.741 1.143.527.37 1.564.371.943 0 1.404-.223.461-.224.649-.567.189-.343.189-1.261L3.253-1.95q0-.702.068-1.035.067-.333.253-.715H2.181a5 5 0 0 0-.136.416l-.05.166a2.5 2.5 0 0 0-.772-.526 2.2 2.2 0 0 0-.877-.176q-.823 0-1.296.446-.475.446-.474 1.128 0 .451.215.805.217.353.605.541.387.189 1.12.329.988.185 1.369.346v.14q-.001.407-.2.579-.201.173-.758.173-.376 0-.586-.148Q.13.372 0 0m1.885-1.143a9 9 0 0 0-.858-.215q-.585-.126-.766-.246-.277-.195-.277-.496.001-.296.221-.512a.78.78 0 0 1 .562-.216q.381 0 .726.251a.88.88 0 0 1 .336.467q.056.18.056.686z" style="fill:#273e6d;fill-opacity:1;fill-rule:nonzero;stroke:none" transform="translate(390.21 747.565)"/><path d="M0 0h-9.632q0 2.37-.555 3.181-.86 1.197-4.745 1.198c-2.513 0-4.181-.23-4.994-.69q-1.22-.693-1.221-3.014 0-2.102 1.083-2.765.777-.47 2.054-.553l1.943-.136q6.244-.417 7.799-.582 4.939-.498 7.161-2.626Q.64-7.647.975-10.327q.193-1.606.193-3.622 0-4.647-.887-6.802-1.608-3.956-7.23-5.003-2.357-.444-7.204-.443-8.092-.001-11.276.965-3.906 1.188-5.153 4.804-.693 2.015-.692 6.709h9.63l.001-.8q0-2.505 1.44-3.222.995-.493 2.408-.525h3.541q2.71 0 3.457.28 1.328.52 1.744 1.683.221.717.221 1.852 0 2.54-1.854 3.093-.692.22-6.441.608-4.619.33-6.414.637-4.731.881-6.304 3.644-1.384 2.348-1.383 7.099 0 3.618.748 5.8.746 2.183 2.41 3.315 2.436 1.74 6.229 2.044 3.156.276 7.007.277 6.065 0 8.641-.693Q.093 9.686.093 1.91.093 1.272 0 0" style="fill:#273e6d;fill-opacity:1;fill-rule:nonzero;stroke:none" transform="translate(284.441 780.098)"/><path d="M0 0v38.467h19.289q3.969 0 6.051-.647 4.757-1.491 6.391-6.105.844-2.422.844-7.291-.002-5.851-.929-8.413c-1.238-3.376-3.784-5.321-7.629-5.824q-.678-.116-5.773-.199l-1.719-.056h-6.172V0Zm10.353 18.856h6.454q3.069.108 3.739.476.919.506 1.226 2.02.198 1.009.197 3.002c0 1.627-.13 2.831-.391 3.62q-.558 1.654-2.677 2.019-.419.056-2.006.057h-6.542z" style="fill:#273e6d;fill-opacity:1;fill-rule:nonzero;stroke:none" transform="translate(326.796 753.9)"/></g><path d="M0 0h-13.842l-1.859-6.648h-10.712l11.558 38.466H.762l11.7-38.466H1.976Zm-2.056 7.494-4.85 16.674-4.708-16.674z" style="fill:#273e6d;fill-opacity:1;fill-rule:nonzero;stroke:none" transform="matrix(.96236 0 0 -.96236 140.407 53.868)"/><g clip-path="url(#f)" transform="matrix(.96236 0 0 -.96236 -226.704 785.788)"><path d="M0 0c4.271 0 8.082-1.968 10.586-5.048l2.232 4.784c-3.491 3.3-8.24 5.333-13.48 5.333-8.157 0-15.136-4.927-18-11.9h-4.352l-2.57-5.51h5.599a19 19 0 0 1-.07-1.544q.002-.947.096-1.872h-2.813l-2.569-5.51h6.813c2.946-6.798 9.837-11.57 17.866-11.57a19.6 19.6 0 0 1 10.911 3.283v6.754C7.745-25.651 4.083-27.452 0-27.452c-4.772 0-8.97 2.461-11.414 6.185H2.853l2.569 5.51h-18.936a14 14 0 0 0-.08 3.416H7.015l2.569 5.51h-21.395C-9.445-2.748-5.043 0 0 0" style="fill:#f47216;fill-opacity:1;fill-rule:nonzero;stroke:none" transform="translate(312.506 786.956)"/><path d="M0 0a13.43 13.43 0 0 0 10.458-4.988l.167-.205.112.239 2.231 4.786.051.107-.086.083C9.264 3.49 4.436 5.399-.662 5.399A19.75 19.75 0 0 1-11.74 2.035c-3.19-2.148-5.635-5.137-7.074-8.639l.152.103h-4.457l-.045-.096-2.568-5.509-.11-.236h5.857l-.164.18c-.048-.572-.07-1.08-.07-1.558 0-.618.032-1.255.096-1.887l.164.18h-2.918l-.044-.095-2.57-5.509-.109-.237h7.072l-.152.101c3.073-7.089 10.145-11.671 18.018-11.671 3.947 0 7.751 1.145 11.002 3.312l.073.048v7.282l-.289-.33A13.48 13.48 0 0 0 0-27.121c-4.551 0-8.767 2.285-11.277 6.111l-.137-.258H2.958l.045.095 2.569 5.511.11.235h-19.196l.164-.14a14 14 0 0 0-.079 3.375l-.165-.15H7.121l.044.096 2.568 5.51.112.235h-21.656l.141-.249C-9.257-2.586-4.785 0 0 0m-11.811-6.832H9.584l-.15.235-2.569-5.509.15.095h-20.758l-.016-.149a14.21 14.21 0 0 1 .082-3.456l.023-.142H5.422l-.149.236-2.569-5.509.149.094h-14.574l.169-.254C-8.981-25.112-4.662-27.45 0-27.45c3.964 0 7.745 1.714 10.374 4.706l-.291.109v-6.754l.073.137A19.44 19.44 0 0 0-.662-32.507c-7.742 0-14.695 4.503-17.713 11.472l-.044.098h-6.922l.151-.236 2.568 5.511-.15-.096h2.996l-.019.184a19 19 0 0 0-.095 1.854c0 .468.023.968.07 1.531l.014.178h-5.778l.15-.235 2.569 5.51-.149-.096h4.463l.041.103c1.415 3.442 3.82 6.377 6.955 8.491A19.43 19.43 0 0 0-.662 5.068c5.013 0 9.759-1.877 13.367-5.286l-.038.191-2.229-4.787.277.035A13.76 13.76 0 0 1 0 .33c-4.903 0-9.484-2.648-11.955-6.914l-.145-.248Z" style="fill:#273e6d;fill-opacity:1;fill-rule:nonzero;stroke:none" transform="translate(312.506 786.79)"/></g></svg>