<svg xmlns="http://www.w3.org/2000/svg" width="640" height="360" viewBox="0 0 169.333 95.25"><defs><clipPath id="a" clipPathUnits="userSpaceOnUse"><path d="M0 0h595.276v841.89H0Z"/></clipPath><clipPath id="b" clipPathUnits="userSpaceOnUse"><path d="M0 0h595.276v841.89H0Z"/></clipPath><clipPath id="c" clipPathUnits="userSpaceOnUse"><path d="M0 0h595.276v841.89H0Z"/></clipPath><clipPath id="d" clipPathUnits="userSpaceOnUse"><path d="M0 0h595.276v841.89H0Z"/></clipPath><clipPath id="e" clipPathUnits="userSpaceOnUse"><path d="M0 0h595.276v841.89H0Z"/></clipPath><clipPath id="f" clipPathUnits="userSpaceOnUse"><path d="M0 0h595.276v841.89H0Z"/></clipPath></defs><g clip-path="url(#a)" transform="matrix(.96236 0 0 -.96236 -226.704 785.788)"><path d="m0 0 1.443.141c.088-.485.264-.841.53-1.068.265-.228.624-.341 1.075-.341.477 0 .838.101 1.081.303.242.202.363.439.363.71a.667.667 0 0 1-.153.443c-.103.122-.28.229-.534.318-.174.061-.571.168-1.188.321-.796.198-1.353.44-1.675.727-.451.404-.676.898-.676 1.479 0 .374.105.725.318 1.05.212.326.518.574.918.745.398.171.881.255 1.445.255.923 0 1.617-.202 2.084-.606.466-.404.711-.944.735-1.619l-1.485-.065c-.063.378-.199.649-.408.814-.209.166-.522.249-.94.249-.431 0-.769-.089-1.013-.266a.537.537 0 0 1-.236-.457c0-.173.074-.322.22-.445.188-.158.643-.322 1.365-.492.721-.171 1.255-.347 1.601-.529.347-.182.616-.431.812-.747.196-.316.294-.706.294-1.17a2.17 2.17 0 0 0-.351-1.183 2.095 2.095 0 0 0-.992-.82c-.429-.179-.961-.268-1.6-.268-.929 0-1.642.214-2.14.644C.395-1.448.097-.822 0 0" style="fill:#273e6d;fill-opacity:1;fill-rule:nonzero;stroke:none" transform="translate(253.401 746.256)"/></g><path d="M86.913 178.239h1.324v1.225h-1.324zm0 1.904h1.324v5.003h-1.324z" style="fill:#273e6d;fill-opacity:1;fill-rule:nonzero;stroke:none;stroke-width:.939803" transform="translate(-64.602 -119.666) scale(1.024)"/><g clip-path="url(#b)" transform="matrix(.96236 0 0 -.96236 -226.704 785.788)"><path d="M0 0h-1.409v2.717c0 .575-.03.947-.091 1.116a.777.777 0 0 1-.781.534c-.244 0-.463-.067-.657-.201a1.007 1.007 0 0 1-.398-.531c-.072-.221-.108-.629-.108-1.224V0h-1.41v5.324h1.309v-.782c.465.602 1.05.902 1.755.902.311 0 .595-.056.853-.168.256-.111.451-.254.583-.428.132-.174.224-.371.276-.592.052-.22.078-.536.078-.947Z" style="fill:#273e6d;fill-opacity:1;fill-rule:nonzero;stroke:none" transform="translate(268.926 743.865)"/><path d="m0 0 1.609-.195c.028-.187.089-.316.186-.387.135-.1.345-.15.633-.15.367 0 .642.055.826.166a.681.681 0 0 1 .281.355c.043.118.065.333.065.647v.777C3.18.639 2.647.351 2.006.351c-.715 0-1.281.302-1.699.907-.329.478-.493 1.073-.493 1.785 0 .892.215 1.574.645 2.045.43.471.964.707 1.602.707.658 0 1.202-.289 1.629-.867v.747h1.319V.897c0-.628-.052-1.097-.156-1.408-.103-.311-.249-.555-.435-.732a1.94 1.94 0 0 0-.75-.416c-.313-.1-.708-.151-1.186-.151-.902 0-1.543.155-1.92.464A1.456 1.456 0 0 0-.004-.17zm1.259 3.123c0-.564.109-.978.329-1.24.219-.263.488-.394.808-.394.345 0 .635.134.874.403.236.27.355.668.355 1.196 0 .552-.113.961-.341 1.228a1.08 1.08 0 0 1-.862.402 1.04 1.04 0 0 1-.834-.394c-.22-.263-.329-.662-.329-1.201" style="fill:#273e6d;fill-opacity:1;fill-rule:nonzero;stroke:none" transform="translate(270.532 743.514)"/></g><path d="M102.25 178.239h1.324v6.907h-1.324z" style="fill:#273e6d;fill-opacity:1;fill-rule:nonzero;stroke:none;stroke-width:.939803" transform="translate(-64.602 -119.666) scale(1.024)"/><g clip-path="url(#c)" transform="matrix(.96236 0 0 -.96236 -226.704 785.788)"><path d="m0 0 1.402-.235C1.223-.75.937-1.142.549-1.411c-.391-.269-.877-.403-1.462-.403-.926 0-1.61.302-2.056.907-.35.484-.526 1.096-.526 1.835 0 .882.231 1.573.692 2.073.461.499 1.044.749 1.749.749.792 0 1.417-.262 1.875-.785.458-.523.677-1.324.657-2.403h-3.529c.01-.418.123-.743.34-.976.218-.232.488-.348.813-.348.22 0 .406.06.556.18.151.121.264.315.342.582m.08 1.424c-.011.408-.115.718-.316.93a.972.972 0 0 1-.733.318.979.979 0 0 1-.761-.336c-.201-.224-.299-.528-.295-.912Z" style="fill:#273e6d;fill-opacity:1;fill-rule:nonzero;stroke:none" transform="translate(283.487 745.56)"/></g><path d="M0 0v7.35h5.449V6.106H1.483V4.477h3.69V3.239h-3.69V1.238H5.59V0Z" style="fill:#273e6d;fill-opacity:1;fill-rule:nonzero;stroke:none" transform="matrix(.96236 0 0 -.96236 51.988 69.923)"/><g clip-path="url(#d)" transform="matrix(.96236 0 0 -.96236 -226.704 785.788)"><path d="M0 0v.797A2.038 2.038 0 0 0-.765.126a2.138 2.138 0 0 0-1-.246c-.357 0-.678.078-.963.235a1.4 1.4 0 0 0-.616.662c-.127.284-.19.677-.19 1.178v3.369h1.408V2.878c0-.749.026-1.208.078-1.376a.753.753 0 0 1 .283-.401.869.869 0 0 1 .522-.148c.24 0 .456.066.646.197.191.133.321.296.391.492.07.195.105.674.105 1.436v2.246h1.41V0Z" style="fill:#273e6d;fill-opacity:1;fill-rule:nonzero;stroke:none" transform="translate(300.242 743.865)"/><path d="M0 0h-1.409v5.324h1.308v-.757c.225.358.426.593.605.707.179.114.382.17.608.17.322 0 .631-.088.928-.265L1.605 3.95c-.239.154-.458.231-.663.231a.78.78 0 0 1-.501-.163C.304 3.91.196 3.713.118 3.429.039 3.145 0 2.55 0 1.645Z" style="fill:#273e6d;fill-opacity:1;fill-rule:nonzero;stroke:none" transform="translate(304.666 743.865)"/><path d="M0 0c0 .468.115.921.346 1.358.23.438.556.772.98 1.003.422.231.895.346 1.416.346.805 0 1.465-.262 1.98-.785.514-.522.772-1.184.772-1.982 0-.806-.26-1.473-.779-2.003-.52-.53-1.174-.794-1.963-.794-.488 0-.953.11-1.397.33a2.266 2.266 0 0 0-1.009.97C.115-1.13 0-.612 0 0m1.443-.075c0-.528.125-.933.376-1.213.251-.281.56-.421.927-.421.368 0 .677.14.926.421.248.28.373.688.373 1.223 0 .521-.125.922-.373 1.203a1.188 1.188 0 0 1-.926.421c-.367 0-.676-.14-.927-.421-.251-.281-.376-.685-.376-1.213" style="fill:#273e6d;fill-opacity:1;fill-rule:nonzero;stroke:none" transform="translate(307.296 746.602)"/><path d="M0 0v7.35h2.381c.902 0 1.491-.038 1.765-.111.421-.11.774-.35 1.058-.719.283-.37.426-.847.426-1.432 0-.451-.082-.83-.246-1.138a2 2 0 0 0-.624-.724 2.158 2.158 0 0 0-.77-.348c-.354-.07-.867-.105-1.539-.105h-.968V0Zm1.483 6.106V4.021h.813c.585 0 .975.038 1.173.115a.98.98 0 0 1 .464.361.987.987 0 0 1 .168.571.95.95 0 0 1-.236.662 1.022 1.022 0 0 1-.597.326c-.176.033-.533.05-1.067.05Z" style="fill:#273e6d;fill-opacity:1;fill-rule:nonzero;stroke:none" transform="translate(317.37 743.865)"/><path d="m0 0-1.278.231c.143.514.39.896.741 1.143s.873.371 1.564.371c.628 0 1.097-.074 1.404-.223.307-.149.524-.338.649-.567.126-.229.189-.649.189-1.261L3.253-1.95c0-.468.022-.813.068-1.035.045-.222.129-.461.253-.715H2.181a5.424 5.424 0 0 0-.136.416l-.05.166a2.525 2.525 0 0 0-.772-.526 2.195 2.195 0 0 0-.877-.176c-.548 0-.981.149-1.296.446-.317.297-.474.674-.474 1.128 0 .301.072.569.215.805.145.235.346.416.605.541.258.126.632.235 1.12.329.659.123 1.115.239 1.369.346v.14c0 .271-.068.464-.2.579-.134.115-.387.173-.758.173C.677.667.48.618.341.519.2.421.087.248 0 0m1.885-1.143a8.796 8.796 0 0 0-.858-.215c-.39-.084-.646-.166-.766-.246-.185-.13-.277-.296-.277-.496 0-.198.075-.368.221-.512a.775.775 0 0 1 .562-.216c.254 0 .496.084.726.251a.878.878 0 0 1 .336.467c.037.12.056.349.056.686z" style="fill:#273e6d;fill-opacity:1;fill-rule:nonzero;stroke:none" transform="translate(325.57 747.565)"/><path d="M0 0h1.499l1.273-3.78L4.016 0h1.459l-1.88-5.124-.336-.927a3.8 3.8 0 0 0-.354-.712 1.549 1.549 0 0 0-.386-.399 1.692 1.692 0 0 0-.537-.238 2.773 2.773 0 0 0-.718-.085c-.272 0-.537.028-.798.085L.341-6.297a3.15 3.15 0 0 1 .596-.065c.328 0 .57.096.727.288.157.193.277.437.361.735z" style="fill:#273e6d;fill-opacity:1;fill-rule:nonzero;stroke:none" transform="translate(329.868 749.19)"/><path d="M0 0h1.298v-.727c.465.565 1.018.847 1.66.847.341 0 .637-.07.887-.21.251-.141.456-.353.617-.637.233.284.486.496.757.637.27.14.559.21.867.21.391 0 .722-.08.992-.238.272-.159.474-.392.608-.699.096-.227.144-.595.144-1.104v-3.403H6.422v3.043c0 .528-.049.869-.146 1.023-.129.2-.331.3-.601.3a.964.964 0 0 1-.557-.18 1 1 0 0 1-.376-.529c-.077-.233-.115-.599-.115-1.101v-2.556H3.219v2.917c0 .518-.026.853-.075 1.003a.646.646 0 0 1-.234.336.74.74 0 0 1-.428.11c-.218 0-.414-.058-.587-.175a.96.96 0 0 1-.373-.507c-.076-.22-.114-.586-.114-1.097v-2.587H0Z" style="fill:#273e6d;fill-opacity:1;fill-rule:nonzero;stroke:none" transform="translate(336.448 749.19)"/><path d="m0 0 1.403-.235C1.223-.75.939-1.142.549-1.411c-.39-.269-.877-.403-1.462-.403-.926 0-1.61.302-2.055.907-.351.484-.526 1.096-.526 1.835 0 .882.23 1.573.691 2.073.461.499 1.045.749 1.75.749.792 0 1.417-.262 1.875-.785.457-.523.677-1.324.657-2.403h-3.53c.01-.418.124-.743.341-.976.218-.232.488-.348.813-.348.22 0 .406.06.556.18.151.121.264.315.341.582m.08 1.424c-.01.408-.115.718-.316.93a.97.97 0 0 1-.732.318.976.976 0 0 1-.761-.336c-.202-.224-.3-.528-.296-.912z" style="fill:#273e6d;fill-opacity:1;fill-rule:nonzero;stroke:none" transform="translate(349.073 745.56)"/><path d="M0 0h-1.409v2.717c0 .575-.03.947-.09 1.116a.784.784 0 0 1-.294.393.833.833 0 0 1-.488.141c-.244 0-.463-.067-.657-.201a1.014 1.014 0 0 1-.399-.531c-.071-.221-.107-.629-.107-1.224V0h-1.41v5.324h1.309v-.782c.465.602 1.05.902 1.755.902.31 0 .595-.056.853-.168.256-.111.451-.254.583-.428.132-.174.224-.371.276-.592.052-.22.078-.536.078-.947Z" style="fill:#273e6d;fill-opacity:1;fill-rule:nonzero;stroke:none" transform="translate(356.851 743.865)"/><path d="M0 0v-1.123h-.963v-2.146c0-.434.009-.688.027-.759l.126-.178a.396.396 0 0 1 .238-.07c.131 0 .319.044.567.135l.12-1.093a2.793 2.793 0 0 0-1.113-.21c-.254 0-.482.042-.687.127a1.008 1.008 0 0 0-.449.331 1.295 1.295 0 0 0-.197.549c-.03.164-.046.495-.046.993v2.321h-.646V0h.646v1.058l1.414.822V0Z" style="fill:#273e6d;fill-opacity:1;fill-rule:nonzero;stroke:none" transform="translate(361.03 749.19)"/><path d="m0 0 1.414.215c.061-.274.183-.482.366-.624.184-.142.442-.213.772-.213.364 0 .638.067.822.201a.447.447 0 0 1 .186.376.375.375 0 0 1-.1.266c-.07.067-.228.128-.472.185-1.136.251-1.856.48-2.161.687a1.37 1.37 0 0 0-.631 1.198c0 .461.182.849.546 1.163.365.314.93.471 1.695.471.728 0 1.27-.118 1.625-.356.353-.237.597-.588.731-1.052l-1.328-.246a.829.829 0 0 1-.323.476c-.16.11-.386.166-.68.166-.371 0-.637-.052-.797-.156a.334.334 0 0 1-.161-.285c0-.101.047-.186.141-.256.126-.094.565-.226 1.316-.396.75-.171 1.273-.38 1.571-.627.294-.251.442-.6.442-1.047 0-.489-.204-.908-.612-1.259-.408-.351-1.011-.526-1.81-.526-.725 0-1.299.147-1.722.441A2.033 2.033 0 0 0 0 0" style="fill:#273e6d;fill-opacity:1;fill-rule:nonzero;stroke:none" transform="translate(361.818 745.384)"/></g><path d="M0 0h-1.614l-.642 1.669h-2.937L-5.8 0h-1.574l2.862 7.35h1.57zm-2.732 2.908-1.012 2.727-.993-2.727Z" style="fill:#273e6d;fill-opacity:1;fill-rule:nonzero;stroke:none" transform="matrix(.96236 0 0 -.96236 136.826 69.923)"/><g clip-path="url(#e)" transform="matrix(.96236 0 0 -.96236 -226.704 785.788)"><path d="M0 0h-1.409v5.324h1.308v-.757c.224.358.425.593.604.707.18.114.382.17.609.17.322 0 .63-.088.928-.265L1.603 3.95c-.237.154-.457.231-.661.231a.784.784 0 0 1-.502-.163C.304 3.91.196 3.713.117 3.429.039 3.145 0 2.55 0 1.645Z" style="fill:#273e6d;fill-opacity:1;fill-rule:nonzero;stroke:none" transform="translate(380.183 743.865)"/><path d="m0 0 1.403-.235C1.223-.75.938-1.142.549-1.411c-.39-.269-.877-.403-1.462-.403-.926 0-1.61.302-2.055.907-.351.484-.526 1.096-.526 1.835 0 .882.23 1.573.691 2.073.461.499 1.045.749 1.75.749.792 0 1.417-.262 1.875-.785.457-.523.677-1.324.657-2.403h-3.53c.01-.418.124-.743.341-.976.218-.232.488-.348.813-.348.22 0 .406.06.556.18.151.121.264.315.341.582m.08 1.424c-.01.408-.115.718-.316.93a.971.971 0 0 1-.732.318.976.976 0 0 1-.761-.336c-.202-.224-.3-.528-.296-.912z" style="fill:#273e6d;fill-opacity:1;fill-rule:nonzero;stroke:none" transform="translate(386.221 745.56)"/><path d="m0 0-1.278.231c.143.514.39.896.741 1.143s.873.371 1.564.371c.628 0 1.097-.074 1.404-.223.307-.149.524-.338.649-.567.126-.229.189-.649.189-1.261L3.253-1.95c0-.468.022-.813.068-1.035.045-.222.129-.461.253-.715H2.181a5.424 5.424 0 0 0-.136.416l-.05.166a2.525 2.525 0 0 0-.772-.526 2.195 2.195 0 0 0-.877-.176c-.548 0-.981.149-1.296.446-.317.297-.474.674-.474 1.128 0 .301.071.569.215.805.145.235.346.416.605.541.258.126.632.235 1.12.329.659.123 1.115.239 1.369.346v.14c0 .271-.068.464-.2.579-.134.115-.387.173-.758.173C.677.667.48.618.341.519.2.421.087.248 0 0m1.885-1.143a8.796 8.796 0 0 0-.858-.215c-.39-.084-.646-.166-.766-.246-.185-.13-.277-.296-.277-.496 0-.198.075-.368.221-.512a.775.775 0 0 1 .562-.216c.254 0 .496.084.726.251a.878.878 0 0 1 .336.467c.037.12.056.349.056.686z" style="fill:#273e6d;fill-opacity:1;fill-rule:nonzero;stroke:none" transform="translate(390.21 747.565)"/><path d="M0 0h-9.632c0 1.58-.185 2.641-.555 3.181-.573.798-2.155 1.198-4.745 1.198-2.513 0-4.181-.23-4.994-.69-.813-.462-1.221-1.466-1.221-3.014 0-1.401.362-2.323 1.083-2.765.518-.313 1.203-.498 2.054-.553l1.943-.136c4.163-.278 6.762-.472 7.799-.582 3.293-.332 5.679-1.207 7.161-2.626C.057-7.094.752-8.541.975-10.327c.128-1.07.193-2.279.193-3.622 0-3.097-.296-5.366-.887-6.802-1.072-2.638-3.482-4.304-7.23-5.003-1.571-.296-3.973-.443-7.204-.443-5.394 0-9.154.32-11.276.965-2.604.792-4.322 2.393-5.153 4.804-.463 1.344-.692 3.579-.692 6.709h9.63l.001-.8c0-1.67.481-2.744 1.44-3.222.664-.33 1.465-.503 2.408-.525h3.541c1.807 0 2.959.093 3.457.28.885.347 1.467.908 1.744 1.683.148.478.221 1.096.221 1.852 0 1.693-.618 2.724-1.854 3.093-.461.147-2.608.35-6.441.608-3.079.22-5.217.432-6.414.637-3.154.588-5.256 1.802-6.304 3.644-.923 1.565-1.383 3.932-1.383 7.099 0 2.412.249 4.345.748 5.8.498 1.455 1.3 2.56 2.41 3.315 1.623 1.16 3.701 1.841 6.229 2.044 2.105.184 4.439.277 7.007.277 4.043 0 6.924-.232 8.641-.693C-2.002 10.248.093 7.094.093 1.91.093 1.484.062.849 0 0" style="fill:#273e6d;fill-opacity:1;fill-rule:nonzero;stroke:none" transform="translate(284.441 780.098)"/><path d="M0 0v38.467H19.289c2.645 0 4.664-.215 6.051-.647 3.172-.994 5.301-3.029 6.391-6.105.563-1.615.844-4.045.844-7.291 0-3.901-.312-6.705-.929-8.413-1.238-3.376-3.784-5.321-7.629-5.824-.453-.077-2.376-.144-5.773-.199l-1.719-.056h-6.172V0Zm10.353 18.856h6.454c2.046.073 3.292.23 3.739.476.612.337 1.022 1.011 1.226 2.02.132.673.197 1.673.197 3.002 0 1.627-.13 2.831-.391 3.62-.372 1.103-1.264 1.775-2.677 2.019-.279.036-.948.057-2.006.057h-6.542z" style="fill:#273e6d;fill-opacity:1;fill-rule:nonzero;stroke:none" transform="translate(326.796 753.9)"/></g><path d="M0 0h-13.842l-1.859-6.648h-10.712l11.558 38.466H.762l11.7-38.466H1.976Zm-2.056 7.494-4.85 16.674-4.708-16.674z" style="fill:#273e6d;fill-opacity:1;fill-rule:nonzero;stroke:none" transform="matrix(.96236 0 0 -.96236 140.407 53.868)"/><g clip-path="url(#f)" transform="matrix(.96236 0 0 -.96236 -226.704 785.788)"><path d="M0 0c4.271 0 8.082-1.968 10.586-5.048l2.232 4.784c-3.491 3.3-8.24 5.333-13.48 5.333-8.157 0-15.136-4.927-18-11.9h-4.352l-2.57-5.51h5.599a18.743 18.743 0 0 1-.07-1.544c0-.632.034-1.255.096-1.872h-2.813l-2.569-5.51h6.813c2.946-6.798 9.837-11.57 17.866-11.57a19.62 19.62 0 0 1 10.911 3.283v6.754C7.745-25.651 4.083-27.452 0-27.452c-4.772 0-8.97 2.461-11.414 6.185H2.853l2.569 5.51h-18.936a14.032 14.032 0 0 0-.08 3.416H7.015l2.569 5.51h-21.395C-9.445-2.748-5.043 0 0 0" style="fill:#f47216;fill-opacity:1;fill-rule:nonzero;stroke:none" transform="translate(312.506 786.956)"/><path d="M0 0a13.43 13.43 0 0 0 10.458-4.988l.167-.205.112.239 2.231 4.786.051.107-.086.083C9.264 3.49 4.436 5.399-.662 5.399A19.746 19.746 0 0 1-11.74 2.035c-3.19-2.148-5.635-5.137-7.074-8.639l.152.103H-23.119l-.045-.096-2.568-5.509-.11-.236h5.857l-.164.18c-.048-.572-.07-1.08-.07-1.558 0-.618.032-1.255.096-1.887l.164.18h-2.918l-.044-.095-2.57-5.509-.109-.237h7.072l-.152.101c3.073-7.089 10.145-11.671 18.018-11.671 3.947 0 7.751 1.145 11.002 3.312l.073.048v7.282l-.289-.33A13.483 13.483 0 0 0 0-27.121c-4.551 0-8.767 2.285-11.277 6.111l-.137-.258H2.958l.045.095 2.569 5.511.11.235h-19.196l.164-.14a13.979 13.979 0 0 0-.079 3.375l-.165-.15H7.121l.044.096 2.568 5.51.112.235h-21.656l.141-.249C-9.257-2.586-4.785 0 0 0m-11.811-6.832H9.584l-.15.235-2.569-5.509.15.095H-13.743l-.016-.149a14.21 14.21 0 0 1 .082-3.456l.023-.142H5.422l-.149.236-2.569-5.509.149.094h-14.574l.169-.254C-8.981-25.112-4.662-27.45 0-27.45c3.964 0 7.745 1.714 10.374 4.706l-.291.109v-6.754l.073.137A19.442 19.442 0 0 0-.662-32.507c-7.742 0-14.695 4.503-17.713 11.472l-.044.098h-6.922l.151-.236 2.568 5.511-.15-.096h2.996l-.019.184a19.124 19.124 0 0 0-.095 1.854c0 .468.023.968.07 1.531l.014.178H-25.584l.15-.235 2.569 5.51-.149-.096h4.463l.041.103c1.415 3.442 3.82 6.377 6.955 8.491A19.43 19.43 0 0 0-.662 5.068c5.013 0 9.759-1.877 13.367-5.286l-.038.191-2.229-4.787.277.035A13.762 13.762 0 0 1 0 .33c-4.903 0-9.484-2.648-11.955-6.914l-.145-.248Z" style="fill:#273e6d;fill-opacity:1;fill-rule:nonzero;stroke:none" transform="translate(312.506 786.79)"/></g></svg>