<svg xmlns="http://www.w3.org/2000/svg" width="640" height="360" viewBox="0 0 169.333 95.25"><path d="m100.306 49.662 1.091-.11q.099.552.4.81.3.26.813.26.54 0 .816-.23t.275-.538a.5.5 0 0 0-.115-.336q-.115-.139-.403-.242-.196-.067-.895-.24-.9-.223-1.263-.548a1.44 1.44 0 0 1-.51-1.116q0-.423.24-.792.241-.369.694-.561t1.093-.193q1.046 0 1.574.46.529.46.555 1.226l-1.124.045q-.072-.428-.309-.617-.237-.188-.71-.188-.489 0-.766.201a.4.4 0 0 0-.178.345q0 .196.167.337.212.179 1.03.37.817.194 1.21.4.39.207.613.566.222.36.222.888a1.64 1.64 0 0 1-1.017 1.518q-.484.204-1.21.204-1.053 0-1.619-.49-.564-.49-.674-1.429M105.99 51.481v-4.024h1.07v4.024zm0-4.575v-.981h1.07v.981zM112.05 51.481h-1.069v-2.058q0-.653-.068-.844a.6.6 0 0 0-.22-.299.63.63 0 0 0-.368-.106.85.85 0 0 0-.495.152.76.76 0 0 0-.3.403q-.081.25-.081.926v1.826h-1.07v-4.024h.993v.592q.526-.69 1.326-.69.353 0 .644.127t.442.324.208.448q.06.25.059.718zM114.213 49.383q0 .642.247.94.246.3.607.299a.84.84 0 0 0 .654-.306q.267-.306.267-.907 0-.627-.256-.931a.81.81 0 0 0-.646-.304q-.38 0-.626.298-.247.3-.247.91m-.959 2.363 1.213.132q.03.225.14.31.153.12.48.12.418 0 .628-.125a.52.52 0 0 0 .213-.269q.05-.132.05-.49l.002-.587q-.472.645-1.2.644-.812 0-1.287-.687-.372-.543-.371-1.351 0-1.014.487-1.55a1.57 1.57 0 0 1 1.212-.535q.747 0 1.233.657v-.558h.992v3.618q0 .713-.117 1.066a1.3 1.3 0 0 1-.33.554 1.5 1.5 0 0 1-.568.315q-.355.114-.898.114-1.025 0-1.454-.353a1.11 1.11 0 0 1-.429-.895q0-.055.004-.13M118.327 51.481h1.07v-5.556h-1.07zM123.12 49.133q-.012-.47-.241-.714a.73.73 0 0 0-.557-.245.74.74 0 0 0-.58.258q-.228.258-.224.701zm-.056 1.08 1.059.177q-.206.582-.649.886t-1.108.305q-1.054 0-1.56-.689-.399-.55-.399-1.392 0-1.005.525-1.573.525-.57 1.326-.569.9 0 1.422.597.52.596.498 1.829h-2.679q.01.474.26.739a.82.82 0 0 0 .62.264q.252 0 .425-.136.173-.135.26-.437M127.676 51.481v-5.556h4.113v.937H128.8v1.235h2.778v.937h-2.778v1.51h3.098v.937zM135.72 51.481v-.602a1.6 1.6 0 0 1-.579.512q-.36.19-.758.19-.406 0-.73-.179a1.06 1.06 0 0 1-.467-.5q-.144-.323-.144-.893v-2.552h1.07v1.851q-.001.85.058 1.041.059.193.214.304a.66.66 0 0 0 .395.112q.273 0 .489-.15a.76.76 0 0 0 .296-.372q.08-.221.08-1.086v-1.7h1.069v4.024zM139.063 51.481h-1.07v-4.024h.992v.573q.254-.405.458-.539a.82.82 0 0 1 .461-.133q.364 0 .702.202l-.325.932q-.27-.175-.503-.175a.6.6 0 0 0-.38.124q-.156.123-.246.445-.09.323-.09 1.35zM142.129 49.47q0 .6.285.92t.703.32a.9.9 0 0 0 .701-.32q.284-.32.284-.928 0-.594-.284-.913a.9.9 0 0 0-.7-.32.9.9 0 0 0-.704.32q-.285.32-.285.92m-1.092-.058q0-.532.262-1.03.261-.499.741-.761.48-.263 1.072-.263.913 0 1.497.595.584.596.584 1.505 0 .917-.59 1.52t-1.484.603q-.554 0-1.056-.251a1.7 1.7 0 0 1-.764-.736q-.262-.485-.262-1.182M149.8 46.862v1.588h.612q.661 0 .885-.088a.74.74 0 0 0 .476-.71.73.73 0 0 0-.178-.504.77.77 0 0 0-.45-.248q-.2-.038-.805-.038zm-1.124 4.62v-5.557h1.8q1.022 0 1.333.084.477.125.8.544.321.419.322 1.082 0 .512-.186.861-.184.348-.471.548-.285.199-.581.263-.402.08-1.162.08h-.731v2.094zM156.29 49.552q-.205.069-.647.164t-.578.186a.45.45 0 0 0-.208.377q0 .225.166.388a.58.58 0 0 0 .424.164.9.9 0 0 0 .548-.19.67.67 0 0 0 .253-.354q.042-.138.042-.522zm-1.433-.87-.96-.177q.164-.584.562-.866.398-.28 1.183-.28.713 0 1.062.168.348.17.49.43.144.26.143.954l-.01 1.245q0 .532.05.784.051.253.192.541h-1.059a4 4 0 0 1-.102-.31l-.038-.123q-.273.265-.583.4a1.7 1.7 0 0 1-.663.133q-.62 0-.979-.338a1.13 1.13 0 0 1-.358-.855q0-.341.163-.61a1.07 1.07 0 0 1 .457-.41q.294-.142.848-.249.747-.14 1.035-.261v-.108q0-.31-.152-.444-.153-.132-.576-.132-.286 0-.446.112-.16.114-.26.395M158.105 47.457h1.135l.965 2.857.943-2.857h1.102l-1.418 3.873-.259.707a3 3 0 0 1-.268.54 1.2 1.2 0 0 1-.292.301 1.3 1.3 0 0 1-.406.181q-.242.066-.545.065a3 3 0 0 1-.604-.064l-.1-.835q.252.05.454.05.374 0 .553-.22.179-.221.274-.563zM163.084 47.457h.981v.55q.529-.648 1.259-.649.387 0 .673.16.285.16.467.482.266-.322.573-.483.308-.159.657-.159.444 0 .752.18.307.18.46.53.108.258.109.835v2.578h-1.07v-2.304q0-.6-.11-.775-.148-.228-.453-.228-.225 0-.421.137a.76.76 0 0 0-.284.4q-.087.264-.087.834v1.936h-1.07v-2.21q0-.588-.057-.76a.5.5 0 0 0-.176-.253.56.56 0 0 0-.323-.084.78.78 0 0 0-.443.133.73.73 0 0 0-.283.383q-.085.252-.085.832v1.96h-1.069zM172.698 49.133q-.011-.47-.24-.714a.73.73 0 0 0-.557-.245.74.74 0 0 0-.58.258q-.228.258-.224.701zm-.055 1.08 1.059.177q-.207.582-.649.886t-1.109.305q-1.053 0-1.559-.689-.399-.55-.399-1.392 0-1.005.525-1.573.524-.57 1.326-.569.9 0 1.422.597.52.596.498 1.829h-2.68q.013.474.261.739a.82.82 0 0 0 .62.264q.252 0 .425-.136.173-.135.26-.437M178.515 51.481h-1.069v-2.058q0-.653-.068-.844a.6.6 0 0 0-.22-.299.63.63 0 0 0-.369-.106.85.85 0 0 0-.494.152.77.77 0 0 0-.3.403q-.081.25-.081.926v1.826h-1.07v-4.024h.992v.592q.528-.69 1.326-.69.352 0 .645.127.291.127.441.324.15.198.208.448.06.25.06.718zM181.67 47.457v.85h-.728v1.627q0 .495.02.576.02.082.094.136a.3.3 0 0 0 .176.053q.146 0 .422-.103l.093.825q-.37.16-.837.16-.287 0-.517-.097a.76.76 0 0 1-.337-.251 1 1 0 0 1-.149-.416q-.034-.186-.034-.752v-1.759h-.485v-.849h.485v-.804l1.07-.629v1.433zM182.272 50.346l1.069-.165a.78.78 0 0 0 .276.468q.209.16.583.16.413 0 .621-.153a.34.34 0 0 0 .14-.286.28.28 0 0 0-.076-.202q-.08-.076-.358-.141-1.296-.287-1.643-.522-.48-.327-.48-.908 0-.525.415-.881.415-.357 1.288-.358.83 0 1.235.268.404.267.556.79l-1.003.188a.62.62 0 0 0-.247-.36q-.183-.125-.52-.125-.425 0-.61.118a.25.25 0 0 0-.122.217q0 .115.106.195.145.107 1 .302.854.194 1.194.476.335.285.335.797 0 .556-.463.956-.462.4-1.368.4-.822 0-1.302-.332a1.53 1.53 0 0 1-.626-.902M192.539 49.288l-.777-2.062-.751 2.062zm2.061 2.193h-1.21l-.48-1.256h-2.24l-.458 1.256h-1.19l2.152-5.556h1.183zM196.436 51.481h-1.069v-4.024h.992v.573q.254-.405.458-.539a.82.82 0 0 1 .46-.133q.364 0 .703.202l-.326.932q-.27-.175-.502-.175a.6.6 0 0 0-.38.124q-.157.123-.246.445-.09.323-.09 1.35zM201.068 49.133q-.012-.47-.24-.714a.74.74 0 0 0-.557-.245.74.74 0 0 0-.58.258q-.23.258-.225.701zm-.055 1.08 1.058.177q-.206.582-.648.886t-1.109.305q-1.053 0-1.56-.689-.399-.55-.399-1.392 0-1.005.525-1.573.525-.57 1.327-.569.9 0 1.421.597.52.596.498 1.829h-2.679q.012.474.26.739a.82.82 0 0 0 .62.264q.253 0 .425-.136.173-.135.26-.437M205.44 49.552q-.204.069-.647.164-.442.095-.578.186a.45.45 0 0 0-.208.377q0 .225.166.388.166.165.424.164a.9.9 0 0 0 .548-.19.67.67 0 0 0 .254-.354q.04-.138.041-.522zm-1.433-.87-.959-.177q.163-.584.561-.866.399-.28 1.183-.28.713 0 1.062.168.35.17.491.43.143.26.143.954l-.011 1.245q0 .532.05.784.052.253.192.541h-1.058a4 4 0 0 1-.103-.31 2 2 0 0 0-.037-.123q-.273.265-.583.4a1.7 1.7 0 0 1-.663.133q-.621 0-.98-.338a1.13 1.13 0 0 1-.357-.855q0-.341.163-.61.162-.267.457-.41.294-.142.847-.249.747-.14 1.035-.261v-.108q0-.31-.152-.444-.153-.132-.576-.132-.285 0-.446.112-.16.114-.259.395M123.918 24.093h-7.28q0-1.793-.42-2.405-.65-.907-3.586-.907-2.852 0-3.776.523t-.923 2.278q0 1.588.82 2.09.585.355 1.551.418l1.469.103q4.72.315 5.896.44 3.732.376 5.412 1.985 1.321 1.255 1.574 3.28.146 1.214.146 2.739 0 3.511-.67 5.141-1.216 2.99-5.466 3.782-1.781.336-5.445.335-6.118.001-8.524-.73-2.953-.897-3.896-3.632-.524-1.523-.523-5.07h7.28l.002.604q0 1.893 1.087 2.436.753.373 1.82.396h2.677q2.05 0 2.614-.21 1.003-.395 1.318-1.274.168-.541.167-1.4 0-1.919-1.4-2.338-.525-.166-4.87-.459-3.492-.249-4.85-.48-3.574-.668-4.764-2.756-1.045-1.774-1.045-5.366 0-2.735.564-4.385.565-1.65 1.822-2.505 1.842-1.315 4.71-1.546 2.385-.21 5.296-.21 4.584.001 6.532.524 4.752 1.277 4.752 7.154 0 .482-.07 1.445M163.761 29.642h4.879q2.32-.082 2.826-.36.695-.382.928-1.528.148-.762.148-2.268 0-1.845-.295-2.737-.422-1.25-2.024-1.526-.315-.042-1.517-.043h-4.945Zm-7.826 14.253V14.817h14.58q3.001 0 4.575.49 3.596 1.127 4.831 4.614.639 1.83.639 5.511-.001 4.425-.703 6.36c-.935 2.552-2.86 4.022-5.767 4.403q-.513.086-4.364.15l-1.3.043h-4.665v7.508zM195.711 33.205 192.044 20.6l-3.558 12.605zm1.554 5.665h-10.463l-1.406 5.026h-8.097l8.737-29.08h11.805l8.844 29.08h-7.927z" style="fill:#10298f;fill-opacity:1;fill-rule:nonzero;stroke:none;stroke-width:.0352778" transform="translate(-110.688 4.391)scale(1.27268)"/><path d="M145.133 18.908c3.228 0 6.109 1.487 8.003 3.816l1.687-3.617a14.8 14.8 0 0 0-10.19-4.031c-6.167 0-11.442 3.724-13.607 8.996h-3.29l-1.942 4.164h4.232a14 14 0 0 0-.052 1.167q0 .717.072 1.415h-2.127l-1.942 4.166h5.15c2.227 5.138 7.436 8.746 13.506 8.746a14.83 14.83 0 0 0 8.247-2.482v-5.105a10.28 10.28 0 0 1-7.747 3.516c-3.607 0-6.78-1.86-8.628-4.675h10.785l1.942-4.166h-14.314a10.6 10.6 0 0 1-.061-2.582h15.578l1.942-4.164h-16.173c1.789-3.087 5.117-5.164 8.93-5.164" style="fill:#fbbc09;fill-opacity:1;fill-rule:nonzero;stroke:none;stroke-width:.0352778" transform="translate(-110.688 4.391)scale(1.27268)"/><path d="M136.204 24.197h16.173l-.113-.178-1.941 4.164.112-.072h-15.691l-.012.114a10.8 10.8 0 0 0 .062 2.612l.017.107h14.42l-.112-.178-1.943 4.165.113-.072h-11.016l.127.192a10.42 10.42 0 0 0 8.733 4.731c2.996 0 5.855-1.295 7.842-3.557l-.22-.082v5.105l.055-.103a14.7 14.7 0 0 1-8.177 2.46c-5.853 0-11.11-3.404-13.39-8.671l-.034-.075h-5.232l.114.178 1.941-4.166-.113.073h2.264l-.014-.138c-.047-.471-.071-.944-.071-1.403 0-.353.017-.731.052-1.156l.011-.136h-4.367l.112.179 1.943-4.166-.113.073h3.374l.031-.078a14.27 14.27 0 0 1 5.257-6.418 14.7 14.7 0 0 1 8.234-2.5c3.79 0 7.377 1.419 10.104 3.996l-.028-.144-1.685 3.618.21-.026a10.4 10.4 0 0 0-8.1-3.862c-3.707 0-7.17 2.002-9.038 5.226l-.109.188zm8.93-5.165c3.075 0 5.956 1.375 7.904 3.77l.126.156.086-.18 1.686-3.618.038-.082-.065-.063c-2.773-2.62-6.423-4.064-10.276-4.064-3.01 0-5.905.88-8.374 2.543a14.5 14.5 0 0 0-5.348 6.53l.115-.077h-3.37l-.033.072-1.942 4.164-.083.179h4.428l-.125-.136c-.035.432-.052.816-.052 1.177 0 .468.023.949.072 1.428l.125-.137h-2.207l-.033.072-1.942 4.165-.083.178h5.346l-.114-.076c2.321 5.359 7.668 8.822 13.62 8.822 2.984 0 5.859-.865 8.316-2.503l.056-.037v-5.504l-.219.25a10.2 10.2 0 0 1-7.653 3.472c-3.44 0-6.627-1.726-8.524-4.618l-.104.194h10.864l.034-.072 1.942-4.166.083-.177h-14.51l.124.106a10.5 10.5 0 0 1-.06-2.551l-.125.113h15.659l.033-.072 1.942-4.166.083-.177h-16.37l.107.188c1.824-3.148 5.205-5.103 8.822-5.103" style="fill:#10298f;fill-opacity:1;fill-rule:nonzero;stroke:none;stroke-width:.0352778" transform="translate(-110.688 4.391)scale(1.27268)"/></svg>