<svg height="80" viewBox="0 0 270 80" width="270" xmlns="http://www.w3.org/2000/svg" xmlns:xlink="http://www.w3.org/1999/xlink"><mask id="a" fill="#fff"><path d="m.29766374.43475473h269.08523826v29.28952707h-269.08523826z" fill="#fff" fill-rule="evenodd"/></mask><g fill="none" fill-rule="evenodd" transform="translate(0 22)"><path d="m197.691612 22.1920115c0 3.1471419-1.594796 5.4191554-5.263776 5.4191554-1.075063 0-2.192844-.2395338-3.229936-.6379662v-11.0375271h1.71583c4.824731 0 6.777882 3.109196 6.777882 6.2563379zm-1.276786-12.91110812c0 4.30449322-2.710204 5.14167572-5.74079 5.14167572h-1.476136v-9.80428383c.678738-.19921622 1.355102-.27747973 2.033839-.27747973 3.070932 0 5.183087 1.87120946 5.183087 4.94008784zm19.498277 17.17528382c-.31801.2395337-1.075064.9557635-2.432539.9557635-1.794145 0-2.949897-1.4348311-2.949897-3.3463581 0-2.9502973 2.513227-4.1455946 4.784387-4.1455946.161378 0 .280039.0403175.439044.0403175v4.3448109c0 .7565472.121033 1.7526283.159005 2.1510608zm-13.038405-4.8215068c0-4.9021419-4.267028-6.4958716-6.737538-6.8539865v-.0806351c2.112155-.6355946 5.463125-2.1107433 5.463125-6.37491894 0-5.49979054-6.62125-5.49979054-8.534056-5.49979054h-11.882652v1.03639865l.956403.12095271c1.874834.23716216 1.874834.23716216 1.874834 4.6626081v14.58310132c0 4.5037095.040344 4.5037095-1.874834 4.7408717l-.956403.1209527v1.0363986h10.368545c5.94014 0 11.322576-1.6743649 11.322576-7.4919527zm20.656402 7.0935203-.121033-.5193852c-.118661.0403176-.19935.0403176-.31801.0403176-2.553572 0-2.553572-2.9479257-2.553572-5.8175878v-4.9021419c0-4.5416554-.875714-7.1314662-5.899795-7.1314662-4.027334 0-6.777882 2.2696419-8.574401 4.2238581.320383.9557635.519733 1.2735608 1.077437 2.0324797h.398699c.519732-1.1952973 1.675485-3.9463784 4.744042-3.9463784 2.831238 0 3.469631 2.1131149 3.469631 4.4633919v.9557635c-3.308252.8775-10.325828 2.231696-10.325828 7.2524189 0 2.5518649 2.112155 4.3448109 5.22343 4.3448109 2.790893 0 4.426033-1.2356149 5.541441-2.0324798.638393.9960811 1.355102 2.0324798 3.908674 2.0324798 1.7538 0 2.909553-.7186014 3.429285-.9960811zm23.205228.3984324v-1.0363986l-.837743-.0806352c-1.43579-.1185811-1.63514-.5573311-1.63514-2.6704459v-7.8500676c0-5.3788378-2.430165-7.0911486-6.020829-7.0911486-3.388941 0-5.301746 1.434831-6.298494 2.3099594v-2.3099594c-2.074183.118581-4.186338.43875-7.17658 1.434831v1.1549798c.159004-.0403176.676364-.2395338 1.274412-.2395338 1.196097 0 1.196097 1.7929459 1.196097 3.1874594v9.4034798c0 2.1131148-.199349 2.5518648-1.554451 2.6704459l-.837743.0806352v1.0363986h9.649464v-1.0363986l-.837742-.0806352c-1.435791-.1185811-1.635141-.5573311-1.635141-2.6704459v-11.1157906c.638393-.6782837 1.675485-1.5154662 3.310626-1.5154662 4.145994 0 4.145994 3.8254257 4.145994 6.9749392v5.6563176c0 2.1131148-.19935 2.5518648-1.63514 2.6704459l-.83537.0806352v1.0363986zm22.649897 0v-1.0363986c-1.594796 0-1.955523-.3984325-8.294362-10.4398784 4.426033-4.544027 4.466377-5.1416757 6.858571-5.4997906l.757053-.118581v-1.0363987h-8.811721v1.0363987l1.276786.1588986c.557704.0782635 1.234068.1992162 1.234068.5170135 0 .5976487-.398699 1.1573514-1.794145 2.789027l-1.314757 1.5154663c-1.476136 1.6719932-2.313878 1.7526283-3.747296 1.7526283v-18.33026347c-2.154872 0-3.949018.23953378-7.25727.91781757v1.03639865c.159005 0 .63602-.08063514 1.115408-.08063514 1.355102 0 1.355102 1.55341216 1.355102 5.06104054v17.96977705c0 2.1131148-.239694 2.5518648-1.63514 2.6704459l-.83537.0806352v1.0363986h9.72778v-1.0363986l-.837743-.0806352c-1.433417-.1185811-1.632767-.5573311-1.632767-2.6704459v-5.0586689h.436671c1.675484 0 1.715829 1.0743446 3.78764 4.1835405 2.074183 3.1874595 2.313877 4.6626081 6.580905 4.6626081zm-202.8570727-8.6089865c0 3.1495135-.8780869 7.6911689-4.587411 7.6911689-3.8279845 0-5.2637753-4.5819729-5.2637753-8.7655135 0-3.3084121.9991205-7.5322702 4.6253823-7.5322702 4.0297072 0 5.225804 4.4230743 5.225804 8.6066148zm22.4481744 6.1780743c-.4390435.3581149-1.2767859.7162298-2.3138778.7162298-3.1895915 0-6.6568484-3.1068243-6.6568484-8.4880338 0-4.0246419 2.0314661-7.0128851 5.5414407-7.0128851 1.9128056 0 2.6722322.7186013 3.4292855 1.3945135zm23.1672563-6.1780743c0 3.1495135-.878087 7.6911689-4.585038 7.6911689-3.827984 0-5.263775-4.5819729-5.263775-8.7655135 0-3.3084121.996747-7.5322702 4.625382-7.5322702 4.027334 0 5.223431 4.4230743 5.223431 8.6066148zm-88.6416915-10.83831079c0-.63559459-.3583544-5.97648649-.5173594-6.85398649h-22.17050902c-.15900494.8775-.51735934 6.2183919-.51735934 6.85398649h1.43579083c1.03471868-4.30212162 1.47376216-5.33852027 5.98048414-5.33852027h1.59479577v19.00617566c0 4.0649595 0 4.3044933-2.59154313 4.6222906l-.95640282.1209527v1.0363986h12.28135137v-1.0363986l-.958776-.1209527c-2.5915432-.3177973-2.5915432-.5573311-2.5915432-4.6222906v-19.00617566h1.5947958c4.506722 0 4.9457655 1.03639865 5.9804841 5.33852027zm14.0375252 2.47122969c-.5600771-.5976486-1.5568244-1.7526283-3.229936-1.7526283-2.0338393 0-3.7093241 1.911527-4.506722 2.7487094 0-1.1952973-.1993495-2.0324797-.3180099-2.7487094-2.8715817.43875-3.7093241.7162297-6.6995661 1.7123108v1.0363986c.239694-.0806351.6787374-.2395338 1.2767859-.2395338 1.1960968 0 1.1960968 1.792946 1.1960968 3.1874595v9.2445811c0 2.1131148-.1993495 2.5518648-1.6351403 2.6704459l-.8377424.0806352v1.0363986h10.5275506v-1.0363986l-1.5947958-.1992163c-1.6754848-.1992162-1.6754848-.7186013-1.6754848-3.5479459v-9.6809595c.5173593-.6379662.9967473-.7968648 1.5947958-.7968648.5577038 0 2.8715816.9557635 3.5099746 1.1146621 1.2744127-.8775 1.8321165-1.5534121 2.3921936-2.8293446zm11.6429584 16.9760676v-1.0363986l-.8377424-.0806352c-1.4357908-.1185811-1.6351403-.5573311-1.6351403-2.6704459v-14.9412162c-2.0741838.118581-4.267028.43875-7.25727 1.434831v1.1549798c.1590049-.0403176.6787375-.2395338 1.2767859-.2395338 1.1960968 0 1.1960968 1.7929459 1.1960968 3.1874594v9.4034798c0 2.1131148-.1993495 2.5518648-1.6351403 2.6704459l-.8377424.0806352v1.0363986zm-2.3542223-24.86645269c0-1.5130946-1.2744127-2.74870946-2.7908926-2.74870946-1.5947958 0-2.7908926 1.23561486-2.7908926 2.74870946 0 1.63404729 1.1960968 2.82934459 2.7908926 2.82934459 1.5164799 0 2.7908926-1.15497973 2.7908926-2.82934459zm24.8023967 15.42265539c0-6.4176081-4.7036982-9.2848986-9.9295022-9.2848986-5.0240813 0-10.1264785 3.0285608-10.1264785 9.8825473 0 6.6927162 4.7440428 9.4437973 9.8488132 9.4437973 5.1047703 0 10.2071675-2.9502973 10.2071675-10.041446zm24.8807126 8.3670811-.1186604-1.0767162h-.8377424c-1.7941453 0-1.7941453-.915446-1.7941453-4.1029054v-22.43554057c-2.1524996 0-3.9466449.23953378-7.25727.91781757v1.03639865c.1590049 0 .6383929-.08063514 1.117781-.08063514 1.3551017 0 1.3551017 1.55341216 1.3551017 5.06104054v3.26809455c-.7570533-.1209527-1.4761353-.2395337-2.6318876-.2395337-3.308252 0-11.443609 1.3138783-11.443609 10.4398783 0 6.0571217 4.3856884 8.8864663 8.8117213 8.8864663 2.5511986 0 4.4663774-1.2759325 5.4631248-1.8332636l1.0370919 1.8332636c2.1121551-.3984325 4.3049993-.8775 6.298494-1.6743649zm20.7347179-8.3670811c0-6.4176081-4.703698-9.2848986-9.927129-9.2848986-5.024081 0-10.1288514 3.0285608-10.1288514 9.8825473 0 6.6927162 4.7464164 9.4437973 9.8488134 9.4437973 5.10477 0 10.207167-2.9502973 10.207167-10.041446zm16.389375 4.3021216c0-6.0974392-8.970727-5.4191554-8.970727-9.6026959 0-1.3945135.996748-2.4712297 2.233189-2.4712297 2.949898 0 3.825611 3.227777 3.946645 4.544027h1.594796c0-1.6340473-.040345-3.3890473-.439044-4.9424595-.956402-.5170135-2.672232-1.1146621-4.784387-1.1146621-7.098265 0-7.098265 4.8997702-7.098265 5.2199392 0 6.3749189 8.973099 5.2199391 8.973099 9.9608108 0 1.434831-.958776 2.6301283-2.631887 2.6301283-2.992616 0-4.786761-3.1874594-5.024082-5.3788378h-1.597169c0 2.3905946.320384 4.0649595.719082 5.6586892 1.435791.7162297 3.149247 1.2356149 5.50347 1.2356149 5.382436 0 7.57528-2.670446 7.57528-5.7393244z" fill="#00255c" mask="url(#a)"/><path d="m162.334135 15.4179486c-.837742 2.5898109-2.392194 4.9424595-4.267028 6.7733514-1.832117-1.9518446-3.070931-4.5013378-3.706951-7.0532027 1.075063-.2371622 2.192844-.3581149 3.308252-.3581149 1.594796 0 3.15162.2395338 4.665727.6379662m13.159438 2.7890271c0-4.8618243-2.074183-9.5623784-4.824732-12.35140543-1.756173-1.755-3.350969-2.82934459-5.702818-3.86574324l-.239694.43875c1.115407.67591216 2.033839 1.39451351 3.111275 2.46885811 3.068558 2.95029729 5.062053 8.04928376 5.062053 12.23282436 0 .6379662 0 1.4751486-.11866 2.1534324-.598049-1.755-1.635141-3.2680946-2.949898-4.581973-.439043-.4790675-.996747-1.0363986-1.476135-1.2759324 0 .9154459-.398699 2.9882432-.878087 4.1835405.598048.4790676.918431.8371825 1.476135 1.354196 1.276786 1.31625 2.114528 2.9906148 2.114528 4.3851284 0 .7968648-.360727 1.6340472-.996747 2.2696418-.638393.6379663-1.955523 1.1170338-3.270281 1.1170338-1.556824 0-3.868329-.8371824-5.064425-1.7146824 2.432538-2.4688581 3.9063-5.1393041 4.824731-8.4880338.398699-1.4324594.598049-2.8672905.598049-4.3021216 0-2.58981082-.638393-5.06104055-1.753801-7.01288515-1.794145-3.10919594-4.506722-4.86182432-8.054668-4.86182432-4.226683 0-8.173328 2.0727973-11.125599 5.06104054-3.388941 3.42699324-5.064426 7.61053383-5.064426 11.91265543 0 .7589189.040345 1.4751486.159005 2.3123311h.479388c.040345-1.2759325.19935-2.4712298.557704-3.9440068.678738-2.6704459 2.513227-5.6183716 4.824732-7.9307027 1.675485-1.67436487 3.509975-2.86966216 5.223431-3.54557433-1.234068 1.43483108-2.071811 3.06650676-2.591543 4.85945271-.159005.60002027-.31801 1.39688512-.31801 1.95421622.797398-.4790676 2.790892-1.19529731 4.067678-1.39451352.277666-1.83326352.956403-3.86574324 2.311505-5.21993919.678737-.67828378 1.476135-1.11703378 2.472883-1.11703378 1.514106 0 2.710203 1.11703378 3.46963 2.39059459.757053 1.31625 1.234068 3.66652703 1.034718 5.2602568-1.673111-.476696-3.267907-.7162298-4.862703-.7162298s-3.191965.2395338-4.905421.7162298c-2.790892.7565473-5.342091 2.1913783-7.176581 4.0246418-1.955523 1.9518446-3.46963 4.6626082-3.46963 7.4516352 0 2.9099797 1.476136 5.3408919 3.429286 7.333054 3.27028 3.265723 7.933634 4.9400879 12.521045 4.9400879 3.706951 0 7.017576-1.2759325 10.007818-3.4673108l-.239694-.3984325c-2.392193 1.31625-4.905421 1.9542162-7.734285 1.9542162-3.868329 0-8.054668-1.1952972-10.885905-3.4269932.757054.1185811 1.514107.1992162 2.233189.1992162 1.395446 0 3.827985-.3604865 5.064426-1.1170338-.759427-.43875-2.354222-1.8332635-3.191965-2.8293446-1.196097.4790676-2.669859.8371825-3.986989.8371825-1.236442 0-2.591543-.2774798-3.46963-1.1952973-.51736-.5976487-.837743-1.354196-.837743-2.1510608 0-1.6743649.918432-3.0688784 2.033839-4.2238581.797398-.8371825 1.874835-1.5937298 2.712577-1.9921622.916058 3.3866757 2.472883 6.0950676 4.903048 8.5259797 3.03296 2.9882433 6.979605 4.6626081 10.446861 4.6626081 2.631888.0403176 4.865077-.7162297 6.739911-2.5898108 1.993495-2.0324797 3.310625-5.6183716 3.310625-9.2848986" fill="#009b83"/></g></svg>