<svg height="80" viewBox="0 0 240 80" width="240" xmlns="http://www.w3.org/2000/svg"><g fill="none" fill-rule="nonzero" transform="translate(0 9)"><path d="m45.987455 62.1905864c16.9974293.0809612 32.511671-13.8624836 32.511671-30.8252394 0-18.5497172-15.5142417-31.37151667-32.511671-31.36534923h-14.6282776c-17.2010283-.00616744-31.3591774 12.81945723-31.3591774 31.36534923 0 16.9664576 14.1581491 30.906324 31.3591774 30.8252394z" fill="#0079be"/><path d="m31.428401 2.57028278c-15.7178406.00493573-28.45449869 12.74529562-28.45820049 28.46942932.0037018 15.721419 12.74023649 28.460545 28.45820049 28.4654807 15.7215424-.0049357 28.4607918-12.7440617 28.4630129-28.4654807-.0023445-15.7241337-12.7414705-28.46449359-28.4630129-28.46942932zm-18.0388689 28.46942932c.0148072-7.6837018 4.8135733-14.2358869 11.5804628-16.8396093v33.67527c-6.7668895-2.6022417-11.565779-9.1508484-11.5804628-16.8356607zm24.4948072 16.8430642v-33.683784c6.7693574 2.5974293 11.575527 9.1533162 11.5878664 16.8407198-.0123394 7.6897481-4.818509 14.2406992-11.5878664 16.8430642z" fill="#fff"/><g fill="#211e1f" transform="translate(85.264781 7.526992)"><path d="m3.20242674 5.85266838c0-2.94182005-1.53390232-2.74809254-3.00487404-2.78005141v-.85017995c1.27477635.06293059 2.58151157.06293059 3.85875578.06293059 1.37336761 0 3.23784062-.06293059 5.65869409-.06293059 8.46724933 0 13.07845763 5.65634961 13.07845763 11.44830848 0 3.2390746-1.895198 11.3817995-13.47208231 11.3817995-1.6670437 0-3.20575835-.0642879-4.74200514-.0642879-1.47084833 0-2.91084833.0322056-4.38182005.0642879v-.848946c1.96084319-.1975527 2.91097172-.2628278 3.00475064-2.4876093v-15.86332132zm3.20575835 15.34136762c0 2.5184576 1.80030848 2.8121337 3.40195373 2.8121337 7.06550128 0 9.38529558-5.3318252 9.38529558-10.2058612 0-6.11413883-3.9251413-10.52915169-10.23535214-10.52915169-1.34251928 0-1.95948586.09624679-2.55189717.13092031zm17.53283291 3.0096864h.6194344c.9143445 0 1.5696864 0 1.5696864-1.0822828v-8.8619846c0-1.4374087-.4899948-1.6374293-1.7003599-2.2877121v-.5244216c1.5362468-.461491 3.3699949-1.0784575 3.4982005-1.1771722.2307455-.1307969.425707-.165347.5898201-.165347.1617686 0 .2295116.1974293.2295116.460257v12.5563805c0 1.0822828.719383 1.0822828 1.6349614 1.0822828h.5552699v.8501799c-1.1131311 0-2.2580977-.0652751-3.432802-.0652751-1.1771723 0-2.3555784.0320823-3.563599.0652751v-.8501799zm3.4982005-19.13472497c-.8512905 0-1.6015218-.7846581-1.6015218-1.63496144 0-.81933162.7847814-1.57326478 1.6015218-1.57326478.8477121 0 1.6028792.68989203 1.6028792 1.57326478 0 .88349614-.7217275 1.63496144-1.6028792 1.63496144zm6.6051208 9.38541907c0-1.2092545-.3616658-1.5350129-1.8953213-2.1569152v-.620545c1.4054499-.4577892 2.7443907-.8834961 4.3149409-1.5721542.0976041 0 .1937275.0667557.1937275.3271156v2.1271774c1.8670642-1.339928 3.4699434-2.454293 5.6637532-2.454293 2.7763496 0 3.7572031 2.0284627 3.7572031 4.5790025v8.4377584c0 1.0821594.719383 1.0821594 1.6361953 1.0821594h.5887096v.8501799c-1.1476813 0-2.2914139-.0652751-3.4661183-.0652751-1.1785296 0-2.3570591.0320823-3.532874.0652751v-.8501799h.5873522c.9179228 0 1.5684524 0 1.5684524-1.0821594v-8.4686067c0-1.8669409-1.1389203-2.7812853-3.0059846-2.7812853-1.045018 0-2.713419.8503033-3.7968123 1.5707969v9.6788483c0 1.0822828.7229614 1.0822828 1.6400205 1.0822828h.5873522v.8503033c-1.1439794 0-2.2903033-.0655218-3.4673522-.0655218-1.1760616 0-2.3555784.0322056-3.5316401.0655218v-.8503033h.5898201c.9155784 0 1.568329 0 1.568329-1.0822828v-8.6668997zm16.7455836 1.5719074c-.0679897.2950334-.0679897.7847815 0 1.8977892.1926169 3.1058098 2.1926992 5.656473 4.8048123 5.656473 1.8003085 0 3.2094602-.9809768 4.4176041-2.1902313l.4564319.4590231c-1.5052751 1.994036-3.3687609 3.6942725-6.0487404 3.6942725-5.2010282 0-6.2475269-5.0381491-6.2475269-7.1295424 0-6.4116401 4.3162982-8.3094293 6.6040102-8.3094293 2.6504885 0 5.4972957 1.6671671 5.528144 5.1343959 0 .1986632 0 .3923907-.0308483.5910539l-.296144.1961954zm5.7896144-1.0474859c.8155064 0 .912-.4257069.912-.8168637 0-1.668401-1.0131825-3.0096864-2.8455733-3.0096864-1.992802 0-3.366293 1.4696144-3.7586838 3.8265501zm4.4780668 9.2248844h.8834962c.9128637 0 1.5669717 0 1.5669717-1.0822828v-9.1891003c0-1.0130591-1.2078972-1.2104884-1.7002365-1.4720822v-.4886376c2.3876606-1.015527 3.6967403-1.8669408 3.9941182-1.8669408.1937275 0 .2899743.0987146.2899743.4269408v2.9429306h.0692237c.8155064-1.2746529 2.1914653-3.3698714 4.1842673-3.3698714.8179743 0 1.8632391.5552699 1.8632391 1.7336761 0 .8834961-.6194344 1.6707455-1.5348895 1.6707455-1.0179948 0-1.0179948-.7872494-2.1606169-.7872494-.5565039 0-2.3864268.7526992-2.3864268 2.7158869v7.6837018c0 1.0821594.6526273 1.0821594 1.5694396 1.0821594h1.8299229v.8503033c-1.7990745-.0334396-3.1675064-.0653984-4.5766581-.0653984-1.339928 0-2.714653.0320822-3.8917018.0653984v-.8501799zm12.5909306-3.6982211c.4258303 2.159383 1.7325656 3.9918972 4.1213368 3.9918972 1.9249357 0 2.6454293-1.1771723 2.6454293-2.3222623 0-3.8597429-7.127198-2.6171722-7.127198-7.882365 0-1.8323907 1.4731928-4.1879691 5.0689975-4.1879691 1.0452647 0 2.4504678.2961439 3.7251208.9513624l.2321028 3.3329769h-.7538098c-.3258817-2.0583239-1.4696144-3.2366067-3.5649563-3.2366067-1.3079691 0-2.5493059.7528226-2.5493059 2.1581491 0 3.8301285 7.5862211 2.6492545 7.5862211 7.7836504 0 2.1581491-1.7337995 4.449563-5.6255013 4.449563-1.3079691 0-2.8443393-.4577892-3.988072-1.1105399l-.3603084-3.7621388zm38.9134393-12.36277636h-.815753c-.621779-3.82519281-3.336432-5.36390746-6.997511-5.36390746-3.763497 0-9.2248848 2.51710026-9.2248848 10.36627252 0 6.6114139 4.7122678 11.3520617 9.7468378 11.3520617 3.236484 0 5.920288-2.2235476 6.574273-5.6586941l.750231.1949614-.750231 4.775198c-1.373491.8526478-5.068998 1.7350334-7.229615 1.7350334-7.6503853 0-12.4887606-4.9393111-12.4887606-12.2986118 0-6.70519284 5.9833419-11.51506431 12.3923906-11.51506431 2.648144 0 5.198684.85388175 7.717142 1.7373779zm1.179764 16.06099746h.619434c.916813 0 1.573265 0 1.573265-1.0822828v-18.21519795c0-2.12730078-.491105-2.19282263-1.735033-2.55189718v-.52318766c1.307969-.42434961 2.681336-1.01429306 3.368761-1.40779434.356483-.19496144.620545-.36043188.716791-.36043188.200021 0 .265296.1975527.265296.46025707v22.59825194c0 1.0822828.718149 1.0822828 1.634961 1.0822828h.551692v.8501799c-1.106962 0-2.251928-.0653984-3.430458-.0653984-1.175815 0-2.35311.0322056-3.564956.0653984v-.8501799zm20.997347-.9513625c0 .591054.35784.6231362.91311.6231362.393502 0 .882263-.0320822 1.30908-.0320822v.6885347c-1.407671.129563-4.089131.8168637-4.711157 1.0118252l-.164113-.0988381v-2.6466632c-1.959362 1.6015218-3.466118 2.7455013-5.789614 2.7455013-1.765635 0-3.596669-1.1439795-3.596669-3.8894807v-8.3759383c0-.85018-.129686-1.6684011-1.958375-1.8311569v-.6219023c1.17853-.0320822 3.789532-.2285244 4.21635-.2285244.362899 0 .362899.2285244.362899.9479075v8.4362776c0 .9835681 0 3.7955784 2.842859 3.7955784 1.111774 0 2.582622-.8501799 3.954879-1.9915681v-8.8028792c0-.6515167-1.568452-1.0105913-2.743033-1.3389409v-.5885861c2.939229-.1974293 4.773964-.4577892 5.098612-.4577892.265048 0 .265048.2282776.265048.5898201v12.0657686zm6.507023-10.7919794c1.306735-1.1118972 3.072247-2.3555784 4.872555-2.3555784 3.794345 0 6.080946 3.3069408 6.080946 6.8691825 0 4.2843393-3.137892 8.5696658-7.817213 8.5696658-2.418509 0-3.693162-.7860154-4.544576-1.1439794l-.979619.7502313-.68471-.3577172c.289974-1.9298715.456432-3.8276607.456432-5.8216967v-14.06437015c0-2.12717738-.493573-2.19269923-1.735034-2.55177378v-.52318766c1.311795-.42434961 2.681337-1.01429306 3.368761-1.40791773.360309-.19496144.620545-.36030849.721851-.36030849.194962 0 .260237.1975527.260237.46025707v11.93706944h.00037zm0 8.8954241c0 1.2438047 1.175815 3.3390232 3.36728 3.3390232 3.499311 0 4.97016-3.4365039 4.97016-6.3484628 0-3.5315167-2.678746-6.4744473-5.23052-6.4744473-1.212956 0-2.224905.7860155-3.107043 1.5398252v7.9440617zm-141.08582008 22.7141183h.25048843c.63917738 0 1.31537275-.0862519 1.31537275-1.0130591v-9.323599c0-.9280411-.67619537-1.015527-1.31537275-1.015527h-.25048843v-.5342931c.69470437 0 1.76205655.0703342 2.63691516.0703342.88843188 0 1.95455013-.0703342 2.79115682-.0703342v.5342931h-.25048843c-.63794345 0-1.31524936.0876092-1.31524936 1.015527v9.323599c0 .9268072.67730591 1.0130591 1.31524936 1.0130591h.25048843v.5368843c-.85388175 0-1.9237018-.0703342-2.81089975-.0703342-.87226735 0-1.92246786.0703342-2.61717223.0703342z"/><path d="m5.58885347 44.6820771c-.86005141 0-1.92604627-.0715681-2.81213368-.0715681-.86992287 0-1.9161748.0715681-2.6159383.0715681h-.07638046v-.6885347h.32575835c.64522365-.0148072 1.23269923-.0666324 1.2388689-.9365553v-9.3237223c-.00616967-.8699229-.59352185-.9280411-1.2388689-.9402571h-.32575835v-.6885347h.07638046c.6997635 0 1.76588175.0703342 2.63568123.0703342.88596402 0 1.95097173-.0703342 2.79239075-.0703342h.07909512v.6885347h-.32834962c-.64534704.0123393-1.23652442.0703342-1.24010283.9402571v9.3237223c.00357841.8699229.59463239.9217481 1.24010283.9365553h.32822622v.6885347zm-.07650386-.1518972v-.3800514h-.17262724c-.63547558 0-1.39187661-.10982-1.3957018-1.0931414v-9.3237223c.0037018-.9834447.76010282-1.0944987 1.3957018-1.0944987h.17262724v-.3775836c-.82179948 0-1.85213367.0691003-2.71588689.0691003-.84524421 0-1.8681748-.0641645-2.55670951-.0691003v.3775836h.17028278c.63424164 0 1.39311054.111054 1.39311054 1.0944987v9.3237223c0 .9834448-.7588689 1.0931414-1.39311054 1.0931414h-.17028278v.3800514c.68853471-.0074036 1.69406684-.0715681 2.53696658-.0715681.86622108 0 1.89655527.0666324 2.73562982.0715681zm12.30107969-3.4315681.0356607-.0345501v-6.6731105c0-1.4609769-1.0154036-1.6732134-1.5484628-1.6732134h-.3925141v-.5344165c.8378406 0 1.6559383.0703342 2.4913111.0703342.7291311 0 1.4622108-.0703342 2.1902313-.0703342v.5344165h-.2665295c-.7489975 0-1.5856041.1417789-1.5856041 2.2593316v8.0995373c0 .6220257.0183856 1.2438046.1059948 1.7954961h-.6773059l-9.16195373-10.2157326v7.3332648c0 1.5485861.29984576 2.0804113 1.67197943 2.0804113h.3009563v.5367609c-.7636812 0-1.52760925-.0703342-2.29388175-.0703342-.79835475 0-1.61756298.0703342-2.41961953.0703342v-.5367609h.2492545c1.22776349 0 1.6005347-.8342622 1.6005347-2.2568638v-7.4961439c0-.9957841-.82056555-1.5991774-1.61768638-1.5991774h-.23210282v-.5342931c.67619537 0 1.3697892.0702108 2.04475064.0702108.53416967 0 1.05131105-.0702108 1.58424679-.0702108z"/><path d="m18.8431465 44.9498406-.7340668-.0272699-9.03004628-10.0650694v7.1321337c.02097686 1.5473521.2566581 1.9867557 1.59670948 2.0039074h.3812854v.6885347h-.0789717c-.7699743 0-1.53624683-.0715681-2.29523912-.0715681-.79712082 0-1.61398458.0715681-2.42097686.0715681h-.07786119v-.6885347h.32834962c1.1759383-.0061696 1.51156812-.7613367 1.52514139-2.1803599v-7.49491c-.00259126-.9476607-.77984576-1.5226735-1.54241646-1.5251414h-.31107455v-.6860668h.07773779c.68002057 0 1.37706941.0678663 2.04462725.0678663.52935733 0 1.04526478-.0678663 1.64483291-.0419537l7.82066842 8.8042365v-6.5447815c-.0098715-1.4165553-.953707-1.5868381-1.4720823-1.5993008h-.4713625v-.6860668h.0789718c.8404318 0 1.6596401.0678663 2.491311.0678663.7243188 0 1.4535733-.0678663 2.1889974-.0678663h.0777378v.6859434h-.3430334c-.7341902.0211003-1.4881234.0851414-1.5089769 2.1840617v8.0983034c0 .6219023.0183856 1.2438046.1048844 1.7830334l.017275.0914344zm-.6760719-.1568329h.5885861c-.0800823-.534293-.093779-1.126581-.093779-1.7176349v-8.0983034c0-2.1359383.8946016-2.3381799 1.6608741-2.3381799h.1875578v-.377707c-.700874.0049358-1.4042159.0691003-2.1111362.0691003-.8143959 0-1.606581-.0641645-2.4123394-.0691003l-.0012339.377707h.314653c.5466324 0 1.6263239.2441953 1.6263239 1.753419l-.0246787 6.7248123-.035784.0371414-.0603394.055527-7.91333674-8.9486067c-.528 0-1.04390746.0691003-1.58560411.0691003-.65275065 0-1.32030849-.0641645-1.96565553-.0691003l-.0037018.3775836h.15794344c.83537276 0 1.6929563.6379434 1.6929563 1.679383v7.49491c0 1.4226016-.39609254 2.3332442-1.67568123 2.33818l-.17151671-.0049358v.3837533c.77120823-.0074036 1.56339332-.0715682 2.34188175-.0715682.74295115 0 1.48207713.0642879 2.21737793.0715682v-.3788175h-.2244525c-1.40063751-.0049358-1.74848327-.6143753-1.7498406-2.1618509v-7.533162zm-.3542623-3.6956298.056761-.0518252zm-.0407198-.0344267v-.0061697l-.0148072-.0124627zm5.4812545-7.9910746c-1.3363496 0-1.3869408.320946-1.6534704 1.6189203h-.5342931c.0703342-.497275.1591774-.9945501.2134705-1.512802.0714447-.498509.1059948-.9946736.1059948-1.5103342h.4281749c.1431362.534293.5874755.515784 1.0699434.515784h9.1792288c.4811105 0 .9254499-.017275.9624679-.5526786l.4243496.0715681c-.0691003.4811105-.1406684.9612339-.1949615 1.4423445-.0320822.4801234-.0320822.9612339-.0320822 1.44l-.535527.1986632c-.037018-.6576864-.1258612-1.7114653-1.3166067-1.7114653h-2.9182519v9.4692031c0 1.3721337.6232596 1.5289666 1.4745501 1.5289666h.3393316v.5367609c-.6934704 0-1.9408535-.0703342-2.8997429-.0703342-1.0672288 0-2.3148586.0703342-3.009563.0703342v-.5367609h.3393316c.9809769 0 1.477018-.0877327 1.477018-1.4919486v-9.5062211z"/><path d="m30.2685039 44.6820771c-.7009975 0-1.946036-.0715681-2.9023342-.0715681-1.0661183 0-2.3110335.0715681-3.009563.0715681h-.074036v-.6885347h.4133676c.9809769-.0234447 1.3757121-.035784 1.3980463-1.4154447v-9.4283599h-2.8405142v-.1568329h2.9948792v9.5851928c0 1.4276607-.5750128 1.5720308-1.5522879 1.5732648h-.2615938v.3751156c.7021079-.0035784 1.8990231-.0678663 2.9318252-.0678663.9280411 0 2.1174293.0642879 2.8207712.0678663v-.3751156h-.2603599c-.8600514-.001234-1.5522879-.2122365-1.5522879-1.6102828v-9.5481748h2.9959897c1.1944473.0049357 1.3499228 1.0204627 1.3894087 1.680617l.3837532-.1419024c0-.4639588.0024679-.9291516.0345502-1.3980462.0518251-.4577892.1172236-.9118766.183856-1.365964l-.2715887-.0456556c-.0825501.518252-.5824164.5441646-1.0303342.5392288h-9.2693059c-.4183033 0-.8760925-.0197429-1.0352699-.5168946h-.2936761c-.0018195.4830329-.0369051.965367-.1050077 1.4435784-.0518252.4887609-.1332648.9588895-.1998972 1.429018h.3814087c.2343239-1.2402262.3874551-1.6424884 1.7150437-1.623856v.1567095c-1.3153727.0234447-1.2881028.2455527-1.5782005 1.5609254l-.0134498.0604628h-.6848329l.0098714-.092545c.0715681-.498509.1617687-.9946735.2147044-1.5129255.074036-.4935732.1085861-.9871465.1085861-1.4979948v-.0777378h.5639075l.0123393.055527c.1221594.4491516.4516195.4516195.904473.4590231h9.2693059c.4961645-.0074036.8563496-.0148072.887198-.4801234l.0074036-.0839074.0802056.017275.5022108.0790951-.0112288.0777378c-.0715681.4762982-.1417789.9575322-.1936041 1.4350643-.0357841.4738303-.0357841.9550643-.0357841 1.4350643v.055527l-.0493573.0197429-.6305398.2293882-.0048124-.1036504c-.0470128-.6687918-.117347-1.6361954-1.2414601-1.6361954h-2.8405142v9.3914653c.0160412 1.3425193.5489769 1.4350643 1.396689 1.4523393h.4170694v.6885347zm3.7499228-.6121542h.2504885c.6393007 0 1.3164833-.0862519 1.3164833-1.0130591v-9.323599c0-.9280411-.6771826-1.015527-1.3164833-1.015527h-.2504885v-.5342931c1.0833934 0 2.9368844.0703342 4.4284628.0703342 1.4981182 0 3.3453162-.0703342 4.5544473-.0703342-.0293676.7638047-.0134499 1.9409769.0394858 2.72218l-.5367609.1430128c-.085018-1.1560719-.2986118-2.0802879-2.1680206-2.0802879h-2.4714447v4.6605656h2.1150848c1.0671054 0 1.3004422-.6033933 1.4053265-1.5669718h.5330591c-.0344267.6970489-.0530591 1.3906427-.0530591 2.0841132 0 .6774293.018509 1.3523907.0530591 2.0285861l-.5330591.1059948c-.1048843-1.0672288-.159054-1.7608226-1.3881748-1.7608226h-2.1321131v4.1447815c0 1.1586632 1.0278663 1.1586632 2.1680206 1.1586632 2.1358149 0 3.0773059-.1443701 3.6117223-2.1704884l.4986324.1221594c-.2333367.9451928-.4455732 1.8866838-.6035167 2.8318766-1.1401542 0-3.1872494-.0703342-4.7865501-.0703342-1.6041131 0-3.7200617.0703342-4.7346016.0703342z"/><path d="m43.5378509 44.6820771c-1.1426221 0-3.1884833-.0729254-4.7863033-.0729254-1.6028792 0-3.7179641.0729254-4.733491.0729254h-.0751466v-.6885347h.3245244c.6452237-.0098714 1.230108-.0666324 1.2388689-.9365553v-9.3237223c-.0086375-.868689-.5936452-.9266838-1.2388689-.9402571h-.3245244v-.6859434h.0751466c1.0858611 0 2.9367609.0678663 4.4285861.0678663 1.4966375 0 3.3427249-.0678663 4.5544473-.0678663h.0802056l-.0038252.0789717c-.0123393.2677635-.0171516.583527-.0171516.9192802 0 .6156092.0171516 1.2881028.0530591 1.7953727l.0024679.0641646-.0592288.0173984-.6256041.1628792-.0035785-.091311c-.1048843-1.1549615-.2591259-1.9928021-2.0913933-2.0100772h-2.3975321l-.0025913 4.50509h2.0435167c1.024288-.0098715 1.2078972-.5342931 1.3289461-1.4930591l.006293-.0703342h.6823651l-.001234.0800823c-.0344267.6934704-.0568843 1.3869408-.0568843 2.0804113 0 .6737275.0224576 1.3486889.0568843 2.0261182l.001234.063054-.0641646.0146838-.6182005.1233933-.006293-.0839074c-.1221594-1.0858612-.1309203-1.680617-1.3130283-1.6940669l-2.0569666-.0013573v4.0707455c.0014807 1.0809255.9340874 1.0747558 2.094108 1.0809255 2.1419845-.0123394 3.0009254-.1158664 3.5376863-2.1149615l.0173985-.0715681.0751465.0135733.5702005.1467146-.0173984.0741594c-.2293882.9427249-.442982 1.882982-.6022828 2.8255835l-.0146838.063054zm-.0652751-.1554756c.1542417-.8971928.3575939-1.7978406.5762468-2.6937994l-.3516709-.0888432c-.5330592 1.9916915-1.5648741 2.1692545-3.6649049 2.1558046-1.1204113 0-2.2432905 0-2.2483496-1.2352905v-4.2225193h2.211455c1.2423239-.0135732 1.3696658.7366581 1.4571517 1.7497173l.3851105-.0800823c-.0341528-.6547005-.0510224-1.3101883-.0505913-1.9657789 0-.6700257.0159178-1.3362263.0505913-2.0063754h-.3851105c-.0985913.9266839-.388689 1.5782006-1.4731928 1.5658612h-2.1952905v-4.817275h2.5520205c1.8508998-.0124628 2.1579023.9427249 2.2369975 2.0619023l.3838766-.1036504c-.0308484-.5022108-.052072-1.1463239-.052072-1.7410797 0-.3047815.007527-.5922879.0173984-.8440103-1.2091311.0049358-3.0107969.0691003-4.4754755.0691003-1.4622108 0-3.2623959-.0641645-4.3520823-.0691003v.3775836h.1726273c.6342416 0 1.392.111054 1.3943444 1.0944987v9.3237223c-.0024678.9809769-.7601028 1.089563-1.3943444 1.0944988h-.1726273v.3751156c1.0378612-.0013573 3.0935938-.0678663 4.6567404-.0678663 1.5695629 0 3.5734704.066509 4.7211516.0678663zm3.0716299-10.4577069c0-1.2980977-.7107455-1.3511568-1.2647815-1.3511568h-.3195887v-.535527c.5699537 0 1.671856.0715681 2.7578406.0715681 1.0673522 0 1.9224679-.0715681 2.8640823-.0715681 2.2405758 0 4.2360925.6058612 4.2360925 3.1354242 0 1.5979434-1.0673522 2.5776863-2.4729255 3.1317223l3.0416453 4.5532134c.4983856.7526992.8526478.9637018 1.7262725 1.0672288v.5370077c-.5873522 0-1.1575527-.0704576-1.743671-.0704576-.5514447 0-1.1228791.0704576-1.6721028.0704576-1.3696658-1.797964-2.5467146-3.7204319-3.7030334-5.7687609h-1.1707558v3.8103856c0 1.3721337.6379435 1.421491 1.4559177 1.421491h.3208227v.5368843c-1.016761 0-2.0443805-.0703342-3.0600309-.0703342-.8551157 0-1.6918457.0703342-2.5801542.0703342v-.5368843h.3195887c.6612647 0 1.2647815-.2986118 1.2647815-.9587661zm2.2788277 4.1287404h.8688124c1.7805655 0 2.7392082-.676072 2.7392082-2.7763497 0-1.5819023-1.0129357-2.5974293-2.5985399-2.5974293-.534293 0-.7613367.055527-1.0096041.0715682v5.3022108z"/><path d="m57.1128432 44.6822005c-.5959897 0-1.1623651-.0716915-1.7472494-.0716915-.5429306 0-1.1105398.0716915-1.7310848.0419537-1.3648535-1.790437-2.5346221-3.7017995-3.6846478-5.7353213h-1.0513111v3.7290694c.018509 1.3388175.5565039 1.3277121 1.3795373 1.347455h.3985604v.6885347h-.0790951c-1.0167609 0-2.0494396-.0715681-3.0600308-.0715681-.8503034 0-1.6843188.0715681-2.5778098.0715681h-.0778612v-.6885347h.3974499c.6415218-.0037018 1.1821079-.2825707 1.1845758-.8822622v-9.0421388c-.0134499-1.2635476-.6316504-1.2562674-1.1845758-1.274653h-.3974499v-.6897686h.0778612c.5762468 0 1.6744473.0702108 2.7578406.0702108 1.0622931 0 1.9176555-.0702108 2.8653162-.0702108 2.2420565.0049357 4.3076607.6243702 4.3137069 3.2082262 0 1.6078149-1.062293 2.6108792-2.435784 3.1712082l2.98982 4.4765862c.4973985.737892.8071157.9218714 1.6733368 1.032802l.0652751.0098715v.6786632zm-8.2919075-5.9206581h1.2165347l.0209769.0394859c1.1598972 2.0446272 2.3283085 3.9646272 3.6388689 5.7291516.5429306 0 1.1141182-.072802 1.6682776-.072802.5687198 0 1.1165861.0616967 1.6706221.0703342v-.3899229c-.8353727-.1036504-1.2264061-.3529049-1.7125758-1.0920308l-3.0959383-4.6335425.0874859-.035784c1.392-.547743 2.4223342-1.4991054 2.4235681-3.0638561-.0012339-2.4691002-1.9188895-3.0415218-4.1558869-3.0513933-.9391465 0-1.7930283.0703342-2.8653162.0703342-1.045018 0-2.1001542-.0653984-2.6825707-.0703342v.3775836h.2443188c.552802.0013573 1.339928.092545 1.339928 1.4302519v9.0421388c0 .7144473-.6700257 1.0402057-1.339928 1.0414396h-.2443188v.3749923c.856473-.0024679 1.6670437-.0702108 2.5025399-.0702108.9955372 0 1.9988483.0678663 2.9836503.0702108v-.3749923h-.2432082c-.811928-.0013573-1.5348894-.1024165-1.5348894-1.5066324v-3.8844216h.0776143zm0-.4886375h-.0778611v-5.4490489l.0677429-.0061696c.2432082-.0183856.4839486-.0691003 1.02182-.0691003 1.6215116 0 2.6751671 1.0537789 2.6775116 2.6762777-.0048123 2.1248329-1.0240411 2.8466838-2.8183033 2.8479177h-.8709101zm.8709101-.1528843c1.7619331-.0149306 2.6481439-.6268381 2.6666529-2.6950335-.0098715-1.5547557-.9760411-2.5196915-2.5259846-2.5258611-.4812339 0-.7070437.0444216-.9340874.0642879v5.1566067zm19.502437 2.9785912.0320822-.0345501v-6.6731105c0-1.4609769-1.0129357-1.6732134-1.5459948-1.6732134h-.3899229v-.5344165c.8353728 0 1.6523599.0703342 2.4900771.0703342.7304885 0 1.4573985-.0703342 2.1914653-.0703342v.5344165h-.2677635c-.7476401 0-1.5843702.1417789-1.5843702 2.2593316v8.0995373c0 .6220257.0173985 1.2438046.1048844 1.7954961h-.6748381l-9.1631876-10.2157326v7.3332648c0 1.5485861.3021902 2.0804113 1.671856 2.0804113h.302437v.5367609c-.763928 0-1.5300771-.0703342-2.2938817-.0703342-.8035373 0-1.6215116.0703342-2.4211003.0703342v-.5367609h.2467866c1.2291209 0 1.6028792-.8342622 1.6028792-2.2568638v-7.4961439c0-.9957841-.8182211-1.5991774-1.617563-1.5991774h-.2321028v-.5342931c.6738509 0 1.3710231.0702108 2.0458612.0702108.5307146 0 1.0488432-.0702108 1.5831362-.0702108z"/><path d="m70.2253573 44.9484833-.7328329-.0246787-9.0310334-10.0663033v7.1308997c.0209769 1.5485861.2554242 1.987743 1.5978201 2.0051414h.376473v.6885347h-.0778612c-.7697275 0-1.532545-.0729254-2.2951157-.0729254-.7945296 0-1.6164524.0729254-2.4172751.0729254h-.0802056v-.6885347h.3269923c1.1747043-.0049357 1.5115681-.7613367 1.5226735-2.1852956v-7.4912082c-.0012339-.9477841-.7772545-1.5226736-1.5373573-1.5240309h-.3123085v-.6884113h.0802056c.6786633 0 1.374725.0702108 2.0458612.0702108.5231877 0 1.0389717-.0702108 1.6361954-.0456555l7.8220257 8.8079383v-6.5473728c-.0050591-1.4140874-.9527198-1.5893059-1.4696144-1.5965861h-.4702519v-.6885347h.0778612c.8415424 0 1.6607506.0702108 2.4924215.0702108.7256761 0 1.4549306-.0702108 2.1877635-.0702108h.0776144v.6885347h-.3417994c-.7340669.0197429-1.4905913.085018-1.5091003 2.1840617v8.09818c0 .6219023.0161645 1.2388688.1062416 1.7867352l.0098715.0863753zm-.676072-.1554756h.5848844c-.0778612-.534293-.0951363-1.126581-.0951363-1.7176349v-8.0983034c.001234-2.1360617.9021286-2.3333676 1.6645759-2.3395373h.1863239v-.3763496c-.6984062.0049358-1.4028586.0691003-2.1100257.0691003-.8167404 0-1.6104062-.0641645-2.4160412-.0691003v.3763496h.3160103c.5477429.0061697 1.6263239.2455527 1.6263239 1.7521851l-.0245553 6.7274036-.0346735.037018-.0541696.0567609-7.9193831-8.9497172c-.5282468 0-1.0440308.0692237-1.5819023.0692237-.6589203 0-1.3240103-.0641646-1.9718252-.0692237v.376473h.1578201c.8354961.0061697 1.6930797.6367095 1.6930797 1.6793831v7.4910848c0 1.4288946-.4022623 2.3383033-1.6781491 2.3432391l-.1727507-.001234v.3763496c.7687404-.0037018 1.5621594-.0678663 2.3432391-.0678663.7466529 0 1.4857789.0641645 2.2210797.0678663v-.3751156h-.2245759c-1.4016246-.001234-1.7520616-.6143754-1.7545295-2.1630849v-7.5294601zm-.3554961-3.6956298.0541697-.0505913zm-.0442982-.0333162v-.0062931l-.0136967-.0134498zm5.6837429.997018c-.1800308.6033933-.3947352 1.06982-.3947352 1.3869409 0 .535527.7489974.6219023 1.3340052.6219023h.1985398v.5367609c-.71309-.0383753-1.44-.0703342-2.1569152-.0703342-.6402879 0-1.2771208.0322057-1.9186426.0703342v-.5367609h.1072288c.693347 0 1.2821799-.4085553 1.5448843-1.1574293l2.8503856-8.1662931c.2296349-.6589203.552802-1.5485861.660401-2.208617.5663753-.1937275 1.2794653-.5491002 1.6164524-.7638046.0554036-.0183856.086252-.037018.1419024-.037018.0530591 0 .0874858 0 .1269717.055527.0518252.1406684.1036504.3023136.1605347.444216l3.2735013 9.3087917c.2134704.6219023.4243496 1.2795887.6553419 1.8151157.2147043.498509.5896966.7095116 1.1782828.7095116h.1048843v.5367609c-.8005759-.0382519-1.6026324-.0702108-2.4541697-.0702108-.8723907 0-1.7646478.0320823-2.6714653.0702108v-.5367609h.1974293c.4073214 0 1.1032597-.0691003 1.1032597-.5145501 0-.2307456-.1605348-.7107456-.3590746-1.2820566l-.6923599-2.0643702h-4.0385398zm2.5963188-7.8848329h-.0359075l-1.6547043 5.0369152h3.3255732z"/><path d="m84.3111979 44.6820771c-.8008226-.035784-1.6016452-.0729254-2.4493573-.0729254-.8723907 0-1.7583547.0371414-2.6691208.0729254l-.0802057.0049358v-.6959383h.2740566c.4121337 0 1.0240411-.093779 1.0240411-.4354551.0050592-.2024884-.1554756-.6911259-.3516709-1.2573779l-.6774293-2.0125449h-3.925018l-.5528021 1.7977172c-.1802776.6070951-.3935013 1.0772236-.3923907 1.3671979.0060462.4344679.6711362.5404628 1.2609563.5404628h.2740565v.6959383l-.0802056-.0049358c-.7119795-.035784-1.4387661-.0729254-2.1482777-.0729254-.6379434 0-1.2794653.0371414-1.9174087.0729254l-.0826735.0049358v-.6959383h.183856c.6624987-.0024679 1.2154242-.3786941 1.4720823-1.1030129l2.8491516-8.1674036c.2333368-.6601542.554036-1.5473522.7082777-2.2568638.5577378-.1887917 1.2720617-.5466323 1.6152185-.7638046.0493573-.0160411.098838-.040805.1716401-.040805.0431877-.0011487.139311.0099567.1961954.103859.0505912.1467147.1059948.3047815.1602879.4491517l3.2774499 9.3076812c.209892.6243702.4220051 1.2820566.6541079 1.8075887.2060669.4751877.5330592.6613882 1.1054807.663856h.1815116v.6959383zm-5.0432082-.1591774c.8811517-.0308483 1.743671-.0653984 2.5938509-.0653984.8266118 0 1.6002879.0345501 2.3738406.0653984v-.3715372h-.0245552c-.6094396.0037018-1.0303342-.2355579-1.2488638-.7599795-.231856-.5404627-.4490283-1.2006169-.6574396-1.8237532l-3.2762159-9.3063239c-.0541697-.1419023-.1059949-.3035475-.1530077-.4294087-.0146838-.0172751-.0111054-.0172751-.0257892-.0172751h-.0323291c-.0368946 0-.0578714.0111054-.1036504.0234447-.34291.2233419-1.0572339.572545-1.5843701.7119795-.1096967.6737275-.4292854 1.5621594-.6612648 2.2210797l-2.8479178 8.1686375c-.2713419.7724422-.8946015 1.2129563-1.6187969 1.211599h-.0283804v.3715372c.6094395-.0308483 1.2264061-.0653984 1.8446066-.0653984.6873008 0 1.3906427.0345501 2.069306.0653984v-.3715372h-.1147558c-.5785913-.0074036-1.3881748-.0728021-1.4103856-.7008741.0012339-.3553727.2197635-.8105707.3935013-1.4114961l.0778611.0233213-.0778611-.0259126.5861182-1.9027249h4.1486067l.7143239 2.1150848c.2000206.5713111.3615424 1.0451414.3615424 1.3067352-.0245553.5466324-.7760206.5848844-1.1795167.5959898h-.118581v.3714138zm-3.6375116-5.2332339 1.7039384-5.1911568h.0963701v.0777378l-.0197429.0037018.0197429-.0037018v-.0777378h.0530592l1.6891311 5.1911568zm.2133471-.1542416h3.1144473l-1.5487095-4.7691517zm1.5091002-4.9368432.0407198-.0135733zm7.7456453-1.1267044c-1.3351157 0-1.3881748.320946-1.6561851 1.6189203h-.5342931c.0703342-.497275.1605347-.9945501.2161851-1.512802.0713214-.498509.1036504-.9946736.1036504-1.5103342h.4292854c.1419023.534293.5887095.515784 1.0662416.515784h9.1841645c.4776556 0 .9218715-.017275.9588895-.5526786l.4255835.0715681c-.0679897.4811105-.1380771.9612339-.1926169 1.4423445-.0381286.4801234-.0381286.9612339-.0381286 1.44l-.5330591.1986632c-.0334396-.6576864-.1221594-1.7114653-1.3153727-1.7114653h-2.918252v9.4692031c0 1.3721337.6244936 1.5289666 1.4759075 1.5289666h.3378509v.5367609c-.693347 0-1.9371517-.0703342-2.8997429-.0703342-1.0659949 0-2.3136247.0703342-3.0069718.0703342v-.5367609h.3368638c.9808535 0 1.4794859-.0877327 1.4794859-1.4919486v-9.5062211z"/><path d="m92.108545 44.6820771c-.6984062 0-1.9446787-.0715681-2.8997429-.0715681-1.0637738 0-2.3100463.0715681-3.0072186.0715681h-.0788483v-.6885347h.4157121c.9808535-.0234447 1.3747249-.035784 1.3992802-1.4154447l-.0024679-9.4283599h-2.8368123v-.1568329h2.9935219v9.5851928c0 1.4276607-.5762468 1.568329-1.5535219 1.5720308h-.2614704v.3800514c.7044524-.0075269 1.8988997-.0715681 2.9318252-.0715681.9290282 0 2.1186632.0642879 2.8218817.0715681v-.3800514h-.2627044c-.8553624-.0037018-1.5487095-.2097686-1.551054-1.6090488v-9.5481748h2.9958664c1.1944473.0049357 1.3510334 1.0204627 1.3845964 1.680617l.3886889-.1419024c0-.4639588.001234-.9291516.0356607-1.3955784.0493573-.4577892.1158663-.9143444.1815116-1.3685552l-.2689975-.0456556c-.0814396.518252-.5836504.5467558-1.0266324.5392288h-9.274365c-.4195373.0049358-.8736247-.0197429-1.0353933-.5194858h-.2910849c-.0050591.4935732-.0383753.9724627-.1087095 1.446293-.046766.4898715-.1344987.961234-.2010077 1.4288946h.3812854c.2356812-1.2402262.3899229-1.6424884 1.7199794-1.623856v.1567095c-1.3189511.0223342-1.2893368.2455527-1.5807918 1.5609254l-.0134498.0604628h-.6861903l.0111054-.0889666c.074036-.5020874.1628792-.9982519.2147044-1.5128021.0728021-.497275.1074756-.9908483.1074756-1.5016966v-.0777378h.5624267l.0149306.055527c.1246273.4491516.4490283.4516195.904473.4590231l.0899537.0024679h9.1844114c.4911053-.0097481.8500565-.0172751.8809048-.4811106l.0050592-.0851413.0839074.0173984.5046787.0789717-.0134499.0777378c-.072802.4762982-.1407918.9575322-.1949614 1.4350643-.0359075.4738303-.0359075.9562982-.0359075 1.4350643v.0555269l-.0503445.019743-.6306632.2295115-.0035784-.1037737c-.0457789-.6686684-.1161131-1.6361954-1.2402262-1.6361954h-2.8416247v9.3914653c.018509 1.3425193.5502108 1.4350643 1.3968123 1.4523393h.416946v.6886581zm3.840617-.6121542h.2493778c.6427558 0 1.315126-.0862519 1.315126-1.0130591v-9.323599c0-.9280411-.6723702-1.015527-1.315126-1.015527h-.2493778v-.5342931c.6948277 0 1.760946.0703342 2.6307455.0703342.8933676 0 1.9608435-.0703342 2.7973265-.0703342v.5342931h-.249255c-.640287 0-1.3189507.0876092-1.3189507 1.015527v9.323599c0 .9268072.6786637 1.0130591 1.3189507 1.0130591h.249255v.5368843c-.855116 0-1.9237019-.0703342-2.8107764-.0703342-.8736247 0-1.9224679.0703342-2.6172956.0703342z"/><path d="m101.377851 44.6820771c-.859928 0-1.9249358-.0729254-2.8120104-.0729254-.8700463 0-1.9212339.0729254-2.6160617.0729254h-.0776144v-.6885347h.3269923c.6427558-.0098714 1.2326992-.0653984 1.2351671-.9365553v-9.3237223c-.0024679-.868689-.5924113-.9280411-1.2351671-.9402571h-.3269923v-.6859434h.0776144c.6948278 0 1.7634139.0678663 2.6307455.0678663.8873214 0 1.9545506-.0678663 2.7973266-.0678663h.075393v.6859434h-.324648c-.650282.0123393-1.2339328.0715681-1.2425703.9402571v9.3237223c.0086375.8711569.5924113.9266839 1.2425703.9365553h.324648v.6885347zm-.080082-.1554756v-.376473h-.169173c-.637943 0-1.3929867-.1121645-1.3929867-1.0931414v-9.3237223c0-.9834447.7550437-1.0944987 1.3929867-1.0944987h.169173v-.3775836c-.8218.0049358-1.8496662.0691003-2.7172446.0691003-.8427763 0-1.8632391-.0641645-2.5528843-.0691003v.3775836h.1716401c.6328843 0 1.3906427.111054 1.3929872 1.0944987v9.3237223c-.0024679.9808535-.7601029 1.0931414-1.3929872 1.0931414h-.1716401v.376473c.6861902-.0075269 1.6930797-.0679897 2.5382005-.0679897.8625193 0 1.8928534.0642879 2.7318044.0679897zm7.175815-12.6096863c3.79311 0 6.816246 2.3518766 6.816246 6.1412853 0 4.0943136-2.93565 6.8150129-6.723701 6.8150129-3.775836 0-6.655713-2.5630026-6.655713-6.3893059 0-3.7005656 2.862602-6.5669923 6.563168-6.5669923zm.268997 12.1727506c3.452545 0 4.05347-3.045347 4.05347-5.6403085 0-2.6011311-1.401624-5.7501285-4.356894-5.7501285-3.114447 0-4.038663 2.7763496-4.038663 5.1590745 0 3.1860155 1.458509 6.2313625 4.342087 6.2313625z"/><path d="m101.830581 38.4839075c.007527-3.7437533 2.904802-6.6397944 6.642262-6.6447301v.1528843c-3.657254 0-6.48802 2.8295321-6.491599 6.4917224.008638 3.783239 2.847918 6.3078663 6.584391 6.3091002 3.75091-.0012339 6.64473-2.6838046 6.650653-6.7383856-.003578-3.7412853-2.981183-6.0575013-6.743198-6.062437v-.1528843c3.822602.0024678 6.886458 2.3777892 6.893861 6.2153213-.003578 4.1372545-2.977604 6.886581-6.801316 6.8938612-3.805697-.0074036-6.727527-2.5961954-6.734807-6.4645758h-.000247zm2.492792-.6256042c.004812-2.3937069.940133-5.2392802 4.116277-5.2392802 3.020669.007527 4.431054 3.2157532 4.435867 5.8303342-.004813 2.5949615-.615486 5.7144679-4.132196 5.7144679v-.1506632c3.383445-.0048124 3.969563-2.9688432 3.977954-5.5638047 0-2.5800308-1.389409-5.6685655-4.281625-5.6723907-3.05275.0037018-3.956113 2.7109511-3.962036 5.0813367.002468 3.1699743 1.447404 6.1474551 4.265707 6.1548587v.1506632c-2.954159-.0038252-4.415136-3.100874-4.419948-6.3055219zm22.95782 3.2403085.035907-.0345501v-6.6731105c0-1.4609769-1.016761-1.6732134-1.551054-1.6732134h-.38511v-.5344165c.834139 0 1.65236.0703342 2.486375.0703342.731722 0 1.460977-.0703342 2.191465-.0703342v.5344165h-.268997c-.745419 0-1.583136.1417789-1.583136 2.2593316v8.0995373c0 .6220257.017398 1.2438046.107475 1.7954961h-.675085l-9.165779-10.2157326v7.3332648c0 1.5485861.301204 2.0804113 1.670869 2.0804113h.304658v.5367609c-.766149 0-1.52983-.0703342-2.295115-.0703342-.800823 0-1.621265.0703342-2.422088.0703342v-.5367609h.250365c1.230355 0 1.599301-.8342622 1.599301-2.2568638v-7.4961439c0-.9957841-.814642-1.5991774-1.61781-1.5991774h-.231856v-.5342931c.676072 0 1.370777.0702108 2.045862.0702108.534293 0 1.048843-.0702108 1.58437-.0702108z"/><path d="m128.315352 44.9486067-.736535-.026036-9.028688-10.0651928v7.1322571c.019496 1.5473521.255177 1.9853984 1.591527 2.0014396h.38511v.6910025h-.077861c-.771208 0-1.53489-.0715681-2.295116-.0715681-.798478 0-1.615218.0715681-2.423568.0715681h-.074036v-.6910025h.325882c1.17347-.0035785 1.510334-.7587456 1.525018-2.1778921v-7.4961439c-.002468-.9476607-.778735-1.5226736-1.543651-1.5239075h-.307249v-.6860668h.074036c.682489 0 1.375836.0679897 2.047095.0679897.528247 0 1.041563-.0679897 1.643599-.0419537l7.818324 8.8041131v-6.5447815c-.005059-1.4164319-.95272-1.5868381-1.47344-1.5991774h-.467537v-.6859434h.080206c.837717 0 1.658283.0678663 2.486128.0678663.730489 0 1.456165-.0678663 2.194057-.0678663h.07638v.6859434h-.345624c-.731723.0209769-1.489111.0876093-1.504041 2.1840617v8.0983033c0 .6219024.013449 1.2424473.100072 1.7866119l.014683.0863753zm-.675948-.155599h.582293c-.077615-.534293-.091311-1.126581-.091311-1.7176349v-8.0983034c0-2.1396401.897192-2.3333676 1.659763-2.3395373h.19237v-.3763496c-.701984.0049358-1.405326.0691003-2.117182.0691003-.809584 0-1.605594-.0641645-2.411229-.0691003v.3763496h.312062c.551691.0061697 1.62509.2493779 1.62509 1.754653l-.019497 6.7249357-.033439.0371414-.056638.0566375-7.919383-8.9497172c-.524421 0-1.044031.0692237-1.58437.0692237-.655342 0-1.3229-.0641646-1.970714-.0692237v.376473h.156709c.835496.0061697 1.695424.6367095 1.695424 1.6793831v7.4961439c0 1.422725-.397203 2.3333676-1.676915 2.3383034l-.175218-.0013574v.376473c.772442-.0037018 1.564627-.0678663 2.34694-.0678663.741594 0 1.478252.0641645 2.217502.0678663v-.3751156h-.229635c-1.396566-.0013574-1.745769-.6144988-1.745769-2.1619743v-7.533162zm-.357964-3.6956298.056637-.0505913zm-.041954-.0333162v-.0062931l-.014931-.0134498zm5.678807.997018c-.173985.6033933-.389923 1.06982-.389923 1.3869409 0 .535527.748998.6219023 1.332771.6219023h.19854v.5367609c-.711979-.0383753-1.442344-.0703342-2.154324-.0703342-.643002 0-1.280946.0322057-1.918889.0703342v-.5367609h.101182c.697173 0 1.286993-.4085553 1.549944-1.1574293l2.850385-8.1662931c.229389-.6589203.551445-1.5485861.655342-2.208617.569954-.1937275 1.2807-.5491002 1.622376-.7638046.050591-.0183856.086498-.037018.140791-.037018.05306 0 .086252 0 .12216.055527.054169.1406684.109943.3023136.162879.444216l3.272391 9.3087917c.21347.6219023.42583 1.2795887.660154 1.8151157.21347.498509.588586.7095116 1.17347.7095116h.10871v.5367609c-.802057-.0382519-1.602879-.0702108-2.457995-.0702108-.870046 0-1.760823.0320823-2.669121.0702108v-.5367609h.197676c.405841 0 1.104247-.0691003 1.104247-.5145501 0-.2307456-.161769-.7107456-.360308-1.2820566l-.691003-2.0643702h-4.039897zm2.601131-7.8848329h-.035661l-1.657172 5.0369152h3.330139z"/><path d="m142.398602 44.6820771c-.800823-.0320822-1.600288-.0715681-2.450468-.0715681-.867579 0-1.758355.0394859-2.666653.0715681l-.078849.0049358v-.6934705h.270108c.414479 0 1.027867-.0962468 1.029101-.4380463.003578-.2024884-.15671-.6873007-.35525-1.2573778l-.676195-2.012545h-3.927609l-.550458 1.7977172c-.177563.609563-.389923 1.0772236-.386098 1.3648535 0 .4368123.666077.5453984 1.25491.5453984h.271342v.6934705l-.078848-.0049358c-.712103-.0320822-1.440247-.0715681-2.148278-.0715681-.637943 0-1.277367.0394859-1.918889.0715681l-.077861.0049358v-.6934705h.179043c.663733-.0025912 1.219003-.3837532 1.478252-1.1056041l2.847918-8.1674036c.227044-.6601542.547743-1.5473522.705686-2.2543959.559096-.1937275 1.273419-.5491002 1.619044-.7663959.046766-.0160411.095013-.037018.167692-.037018.047012-.0049357.138077.0061697.194961.1036504.053059.1395579.104884.3010797.164113.4454499l3.272391 9.3076812c.21236.6243702.42583 1.2820566.656452 1.8114139.208412.4713625.53306.6576864 1.100669.6626221h.18509v.6934705zm-5.042962-.1568329c.879671-.0333162 1.746016-.0678663 2.592494-.0678663.827845 0 1.604113.0345501 2.378899.0653984l-.002467-.3715372h-.029615c-.602283.0013573-1.022807-.2355579-1.243804-.7599795-.234448-.5404627-.446561-1.2006169-.658921-1.8214087l-3.274982-9.3086684c-.053059-.1419023-.107229-.3035475-.150416-.424473-.014931-.0222108-.01345-.0222108-.02727-.0222108h-.033316c-.036895 0-.056885.0123393-.100072.0246787-.346612.2184061-1.059949.5736555-1.586715.7107455-.109943.6737275-.433111 1.5609254-.662499 2.2210797l-2.849151 8.1686375c-.270355.7724422-.892134 1.2129563-1.620278 1.211599h-.026036v.3715372c.612154-.0308483 1.224062-.0653984 1.84362-.0653984.689768 0 1.391753.0345501 2.076709.0653984v-.3715372h-.120925c-.578592-.0074036-1.390643-.0702108-1.411497-.7032185.003579-.3529049.22433-.8057584.39597-1.4091517l.072802.0233213-.072802-.0259126.586118-1.9027249h4.14984l.71309 2.1149614c.196196.5726684.357841 1.0452648.357841 1.3068587-.026036.5466323-.772442.5847609-1.179763.5958663h-.117101v.3740051zm-3.63529-5.2366889 1.706529-5.1900463h.092545v.0777378l-.018509.0037018.018509-.0037018v-.0777378h.055651l1.681727 5.1900463zm.21347-.1531311h3.112103l-1.547476-4.7666838zm1.511568-4.9368432.035661-.0135733zm11.444483 8.6633213c0 .7121028.493574.924216 1.063774.997018.729255.0542931 1.530077.0542931 2.352-.0357841.745172-.0899537 1.386941-.5168946 1.705049-.9612339.283928-.3923907.444463-.8908997.551692-1.2820565h.515784c-.194962 1.014293-.444216 2.0137789-.658921 3.026838-1.562159 0-3.131599-.0703342-4.695239-.0703342-1.568205 0-3.131599.0703342-4.697336.0703342v-.5368843h.244195c.644236 0 1.340175-.0862519 1.340175-1.1906221v-9.1459126c0-.9280411-.696062-1.015527-1.340175-1.015527h-.244195v-.5342931c.940133 0 1.866817.0703342 2.808431.0703342.91052 0 1.799075-.0703342 2.707126-.0703342v.5342931h-.448041c-.673604 0-1.204319.0197429-1.204319.96z"/><path d="m152.419249 44.6820771c-1.568205 0-3.133943-.0715681-4.694992-.0715681-1.567218 0-3.13308.0715681-4.701285.0715681h-.075394v-.6885347h.323414c.645347-.0148072 1.25491-.0592288 1.262314-1.1142416v-9.149491c-.007527-.8649872-.613388-.924216-1.262314-.9366787h-.323414v-.6859434h.075394c.946426 0 1.87311.0678663 2.813244.0678663.903239 0 1.791794-.0678663 2.706015-.0678663h.073049v.6859434h-.519609c-.689769.0197429-1.119177-.0123393-1.132751.8848535v9.1841645c.004813.6626221.439404.8415424.994674.9192802.314529.0222108.64399.0357841.987146.0357841.435455 0 .888309-.0209769 1.347455-.0703342.72543-.085018 1.3498-.5034448 1.655939-.9279178.273809-.3800514.431876-.8686889.537871-1.2573779l.016165-.0591054h.670025l-.016164.093779c-.201008 1.0179948-.445327 2.012545-.661265 3.0256041l-.014684.0604627h-.060833zm-.064164-.1554756c.206067-.9649357.439403-1.909018.630663-2.8714858h-.365368c-.111054.387455-.268997.8649871-.548976 1.2536761-.332052.461491-.990972.8958354-1.76218.9908483-.466304.0481234-.927918.0728021-1.364607.0728021-.344391 0-.678663-.0160412-1.000843-.0383754-.578591-.0641645-1.140154-.3109511-1.137563-1.0721645v-9.1841645c0-.9883805.625357-1.0389717 1.289337-1.0389717h.367712v-.3775836c-.877203.0049358-1.740957.0702108-2.627167.0702108-.921625 0-1.82252-.065275-2.73563-.0702108v.3775836h.170406c.635475 0 1.41273.111054 1.41273 1.0907969v9.1496144c0 1.1512596-.773676 1.2709511-1.41273 1.2709511h-.170406v.3763496c1.538838-.0012339 3.077552-.0678663 4.623671-.0678663 1.546118 0 3.091249.0666324 4.630951.0679897zm.507146-12.8490694c1.072165 0 1.873111.8242674 1.873111 1.8805142 0 1.051311-.800823 1.8681748-1.873111 1.8681748-1.072411 0-1.874468-.8168638-1.874468-1.8681748-.000123-1.0561234.801934-1.8805142 1.874468-1.8805142zm0 3.3994859c.837718 0 1.481954-.7156812 1.481954-1.5189717 0-.8082262-.634365-1.5300771-1.481954-1.5300771-.842776 0-1.487012.7219742-1.487012 1.5300771 0 .8032905.644236 1.5189717 1.487012 1.5189717zm-.932977-.5318252v-.092545c.230623-.0320822.272576-.0246786.272576-.1678149v-1.3869409c0-.194838-.020977-.2614704-.263938-.2517223v-.0950129h.958766c.330694 0 .632884.1567095.632884.4972751 0 .2788689-.18509.4849357-.442982.5651414l.30725.4292853c.14437.1949615.306015.377707.413367.4417481v.0604627h-.36512c-.175219 0-.328227-.368946-.673851-.8637532h-.207301v.6231362c0 .1233934.043188.1159898.274056.148072v.092545h-.905707zm.631651-.9871465h.220997c.241728 0 .35525-.1838561.35525-.4787661 0-.2986118-.175219-.4036195-.367589-.4036195h-.208658z"/></g><path d="m45.987455 62.1905864c16.9974293.0809612 32.511671-13.8624836 32.511671-30.8252394 0-18.5497172-15.5142417-31.37151667-32.511671-31.36534923h-14.6282776c-17.2010283-.00616744-31.3591774 12.81945723-31.3591774 31.36534923 0 16.9664576 14.1581491 30.906324 31.3591774 30.8252394z" fill="#0079be"/><path d="m31.428401 2.57028278c-15.7178406.00493573-28.45449869 12.74529562-28.45820049 28.46942932.0037018 15.721419 12.74023649 28.460545 28.45820049 28.4654807 15.7215424-.0049357 28.4607918-12.7440617 28.4630129-28.4654807-.0023445-15.7241337-12.7414705-28.46449359-28.4630129-28.46942932zm-18.0388689 28.46942932c.0148072-7.6837018 4.8135733-14.2358869 11.5804628-16.8396093v33.67527c-6.7668895-2.6022417-11.565779-9.1508484-11.5804628-16.8356607zm24.4948072 16.8430642v-33.683784c6.7693574 2.5974293 11.575527 9.1533162 11.5878664 16.8407198-.0123394 7.6897481-4.818509 14.2406992-11.5878664 16.8430642z" fill="#fff"/><g fill="#211e1f" transform="translate(85.264781 7.526992)"><path d="m3.20242674 5.85266838c0-2.94182005-1.53390232-2.74809254-3.00487404-2.78005141v-.85017995c1.27477635.06293059 2.58151157.06293059 3.85875578.06293059 1.37336761 0 3.23784062-.06293059 5.65869409-.06293059 8.46724933 0 13.07845763 5.65634961 13.07845763 11.44830848 0 3.2390746-1.895198 11.3817995-13.47208231 11.3817995-1.6670437 0-3.20575835-.0642879-4.74200514-.0642879-1.47084833 0-2.91084833.0322056-4.38182005.0642879v-.848946c1.96084319-.1975527 2.91097172-.2628278 3.00475064-2.4876093v-15.86332132zm3.20575835 15.34136762c0 2.5184576 1.80030848 2.8121337 3.40195373 2.8121337 7.06550128 0 9.38529558-5.3318252 9.38529558-10.2058612 0-6.11413883-3.9251413-10.52915169-10.23535214-10.52915169-1.34251928 0-1.95948586.09624679-2.55189717.13092031zm17.53283291 3.0096864h.6194344c.9143445 0 1.5696864 0 1.5696864-1.0822828v-8.8619846c0-1.4374087-.4899948-1.6374293-1.7003599-2.2877121v-.5244216c1.5362468-.461491 3.3699949-1.0784575 3.4982005-1.1771722.2307455-.1307969.425707-.165347.5898201-.165347.1617686 0 .2295116.1974293.2295116.460257v12.5563805c0 1.0822828.719383 1.0822828 1.6349614 1.0822828h.5552699v.8501799c-1.1131311 0-2.2580977-.0652751-3.432802-.0652751-1.1771723 0-2.3555784.0320823-3.563599.0652751v-.8501799zm3.4982005-19.13472497c-.8512905 0-1.6015218-.7846581-1.6015218-1.63496144 0-.81933162.7847814-1.57326478 1.6015218-1.57326478.8477121 0 1.6028792.68989203 1.6028792 1.57326478 0 .88349614-.7217275 1.63496144-1.6028792 1.63496144zm6.6051208 9.38541907c0-1.2092545-.3616658-1.5350129-1.8953213-2.1569152v-.620545c1.4054499-.4577892 2.7443907-.8834961 4.3149409-1.5721542.0976041 0 .1937275.0667557.1937275.3271156v2.1271774c1.8670642-1.339928 3.4699434-2.454293 5.6637532-2.454293 2.7763496 0 3.7572031 2.0284627 3.7572031 4.5790025v8.4377584c0 1.0821594.719383 1.0821594 1.6361953 1.0821594h.5887096v.8501799c-1.1476813 0-2.2914139-.0652751-3.4661183-.0652751-1.1785296 0-2.3570591.0320823-3.532874.0652751v-.8501799h.5873522c.9179228 0 1.5684524 0 1.5684524-1.0821594v-8.4686067c0-1.8669409-1.1389203-2.7812853-3.0059846-2.7812853-1.045018 0-2.713419.8503033-3.7968123 1.5707969v9.6788483c0 1.0822828.7229614 1.0822828 1.6400205 1.0822828h.5873522v.8503033c-1.1439794 0-2.2903033-.0655218-3.4673522-.0655218-1.1760616 0-2.3555784.0322056-3.5316401.0655218v-.8503033h.5898201c.9155784 0 1.568329 0 1.568329-1.0822828v-8.6668997zm16.7455836 1.5719074c-.0679897.2950334-.0679897.7847815 0 1.8977892.1926169 3.1058098 2.1926992 5.656473 4.8048123 5.656473 1.8003085 0 3.2094602-.9809768 4.4176041-2.1902313l.4564319.4590231c-1.5052751 1.994036-3.3687609 3.6942725-6.0487404 3.6942725-5.2010282 0-6.2475269-5.0381491-6.2475269-7.1295424 0-6.4116401 4.3162982-8.3094293 6.6040102-8.3094293 2.6504885 0 5.4972957 1.6671671 5.528144 5.1343959 0 .1986632 0 .3923907-.0308483.5910539l-.296144.1961954zm5.7896144-1.0474859c.8155064 0 .912-.4257069.912-.8168637 0-1.668401-1.0131825-3.0096864-2.8455733-3.0096864-1.992802 0-3.366293 1.4696144-3.7586838 3.8265501zm4.4780668 9.2248844h.8834962c.9128637 0 1.5669717 0 1.5669717-1.0822828v-9.1891003c0-1.0130591-1.2078972-1.2104884-1.7002365-1.4720822v-.4886376c2.3876606-1.015527 3.6967403-1.8669408 3.9941182-1.8669408.1937275 0 .2899743.0987146.2899743.4269408v2.9429306h.0692237c.8155064-1.2746529 2.1914653-3.3698714 4.1842673-3.3698714.8179743 0 1.8632391.5552699 1.8632391 1.7336761 0 .8834961-.6194344 1.6707455-1.5348895 1.6707455-1.0179948 0-1.0179948-.7872494-2.1606169-.7872494-.5565039 0-2.3864268.7526992-2.3864268 2.7158869v7.6837018c0 1.0821594.6526273 1.0821594 1.5694396 1.0821594h1.8299229v.8503033c-1.7990745-.0334396-3.1675064-.0653984-4.5766581-.0653984-1.339928 0-2.714653.0320822-3.8917018.0653984v-.8501799zm12.5909306-3.6982211c.4258303 2.159383 1.7325656 3.9918972 4.1213368 3.9918972 1.9249357 0 2.6454293-1.1771723 2.6454293-2.3222623 0-3.8597429-7.127198-2.6171722-7.127198-7.882365 0-1.8323907 1.4731928-4.1879691 5.0689975-4.1879691 1.0452647 0 2.4504678.2961439 3.7251208.9513624l.2321028 3.3329769h-.7538098c-.3258817-2.0583239-1.4696144-3.2366067-3.5649563-3.2366067-1.3079691 0-2.5493059.7528226-2.5493059 2.1581491 0 3.8301285 7.5862211 2.6492545 7.5862211 7.7836504 0 2.1581491-1.7337995 4.449563-5.6255013 4.449563-1.3079691 0-2.8443393-.4577892-3.988072-1.1105399l-.3603084-3.7621388zm38.9134393-12.36277636h-.815753c-.621779-3.82519281-3.336432-5.36390746-6.997511-5.36390746-3.763497 0-9.2248848 2.51710026-9.2248848 10.36627252 0 6.6114139 4.7122678 11.3520617 9.7468378 11.3520617 3.236484 0 5.920288-2.2235476 6.574273-5.6586941l.750231.1949614-.750231 4.775198c-1.373491.8526478-5.068998 1.7350334-7.229615 1.7350334-7.6503853 0-12.4887606-4.9393111-12.4887606-12.2986118 0-6.70519284 5.9833419-11.51506431 12.3923906-11.51506431 2.648144 0 5.198684.85388175 7.717142 1.7373779zm1.179764 16.06099746h.619434c.916813 0 1.573265 0 1.573265-1.0822828v-18.21519795c0-2.12730078-.491105-2.19282263-1.735033-2.55189718v-.52318766c1.307969-.42434961 2.681336-1.01429306 3.368761-1.40779434.356483-.19496144.620545-.36043188.716791-.36043188.200021 0 .265296.1975527.265296.46025707v22.59825194c0 1.0822828.718149 1.0822828 1.634961 1.0822828h.551692v.8501799c-1.106962 0-2.251928-.0653984-3.430458-.0653984-1.175815 0-2.35311.0322056-3.564956.0653984v-.8501799zm20.997347-.9513625c0 .591054.35784.6231362.91311.6231362.393502 0 .882263-.0320822 1.30908-.0320822v.6885347c-1.407671.129563-4.089131.8168637-4.711157 1.0118252l-.164113-.0988381v-2.6466632c-1.959362 1.6015218-3.466118 2.7455013-5.789614 2.7455013-1.765635 0-3.596669-1.1439795-3.596669-3.8894807v-8.3759383c0-.85018-.129686-1.6684011-1.958375-1.8311569v-.6219023c1.17853-.0320822 3.789532-.2285244 4.21635-.2285244.362899 0 .362899.2285244.362899.9479075v8.4362776c0 .9835681 0 3.7955784 2.842859 3.7955784 1.111774 0 2.582622-.8501799 3.954879-1.9915681v-8.8028792c0-.6515167-1.568452-1.0105913-2.743033-1.3389409v-.5885861c2.939229-.1974293 4.773964-.4577892 5.098612-.4577892.265048 0 .265048.2282776.265048.5898201v12.0657686zm6.507023-10.7919794c1.306735-1.1118972 3.072247-2.3555784 4.872555-2.3555784 3.794345 0 6.080946 3.3069408 6.080946 6.8691825 0 4.2843393-3.137892 8.5696658-7.817213 8.5696658-2.418509 0-3.693162-.7860154-4.544576-1.1439794l-.979619.7502313-.68471-.3577172c.289974-1.9298715.456432-3.8276607.456432-5.8216967v-14.06437015c0-2.12717738-.493573-2.19269923-1.735034-2.55177378v-.52318766c1.311795-.42434961 2.681337-1.01429306 3.368761-1.40791773.360309-.19496144.620545-.36030849.721851-.36030849.194962 0 .260237.1975527.260237.46025707v11.93706944h.00037zm0 8.8954241c0 1.2438047 1.175815 3.3390232 3.36728 3.3390232 3.499311 0 4.97016-3.4365039 4.97016-6.3484628 0-3.5315167-2.678746-6.4744473-5.23052-6.4744473-1.212956 0-2.224905.7860155-3.107043 1.5398252v7.9440617zm-141.08582008 22.7141183h.25048843c.63917738 0 1.31537275-.0862519 1.31537275-1.0130591v-9.323599c0-.9280411-.67619537-1.015527-1.31537275-1.015527h-.25048843v-.5342931c.69470437 0 1.76205655.0703342 2.63691516.0703342.88843188 0 1.95455013-.0703342 2.79115682-.0703342v.5342931h-.25048843c-.63794345 0-1.31524936.0876092-1.31524936 1.015527v9.323599c0 .9268072.67730591 1.0130591 1.31524936 1.0130591h.25048843v.5368843c-.85388175 0-1.9237018-.0703342-2.81089975-.0703342-.87226735 0-1.92246786.0703342-2.61717223.0703342z"/><path d="m5.58885347 44.6820771c-.86005141 0-1.92604627-.0715681-2.81213368-.0715681-.86992287 0-1.9161748.0715681-2.6159383.0715681h-.07638046v-.6885347h.32575835c.64522365-.0148072 1.23269923-.0666324 1.2388689-.9365553v-9.3237223c-.00616967-.8699229-.59352185-.9280411-1.2388689-.9402571h-.32575835v-.6885347h.07638046c.6997635 0 1.76588175.0703342 2.63568123.0703342.88596402 0 1.95097173-.0703342 2.79239075-.0703342h.07909512v.6885347h-.32834962c-.64534704.0123393-1.23652442.0703342-1.24010283.9402571v9.3237223c.00357841.8699229.59463239.9217481 1.24010283.9365553h.32822622v.6885347zm-.07650386-.1518972v-.3800514h-.17262724c-.63547558 0-1.39187661-.10982-1.3957018-1.0931414v-9.3237223c.0037018-.9834447.76010282-1.0944987 1.3957018-1.0944987h.17262724v-.3775836c-.82179948 0-1.85213367.0691003-2.71588689.0691003-.84524421 0-1.8681748-.0641645-2.55670951-.0691003v.3775836h.17028278c.63424164 0 1.39311054.111054 1.39311054 1.0944987v9.3237223c0 .9834448-.7588689 1.0931414-1.39311054 1.0931414h-.17028278v.3800514c.68853471-.0074036 1.69406684-.0715681 2.53696658-.0715681.86622108 0 1.89655527.0666324 2.73562982.0715681zm12.30107969-3.4315681.0356607-.0345501v-6.6731105c0-1.4609769-1.0154036-1.6732134-1.5484628-1.6732134h-.3925141v-.5344165c.8378406 0 1.6559383.0703342 2.4913111.0703342.7291311 0 1.4622108-.0703342 2.1902313-.0703342v.5344165h-.2665295c-.7489975 0-1.5856041.1417789-1.5856041 2.2593316v8.0995373c0 .6220257.0183856 1.2438046.1059948 1.7954961h-.6773059l-9.16195373-10.2157326v7.3332648c0 1.5485861.29984576 2.0804113 1.67197943 2.0804113h.3009563v.5367609c-.7636812 0-1.52760925-.0703342-2.29388175-.0703342-.79835475 0-1.61756298.0703342-2.41961953.0703342v-.5367609h.2492545c1.22776349 0 1.6005347-.8342622 1.6005347-2.2568638v-7.4961439c0-.9957841-.82056555-1.5991774-1.61768638-1.5991774h-.23210282v-.5342931c.67619537 0 1.3697892.0702108 2.04475064.0702108.53416967 0 1.05131105-.0702108 1.58424679-.0702108z"/><path d="m18.8431465 44.9498406-.7340668-.0272699-9.03004628-10.0650694v7.1321337c.02097686 1.5473521.2566581 1.9867557 1.59670948 2.0039074h.3812854v.6885347h-.0789717c-.7699743 0-1.53624683-.0715681-2.29523912-.0715681-.79712082 0-1.61398458.0715681-2.42097686.0715681h-.07786119v-.6885347h.32834962c1.1759383-.0061696 1.51156812-.7613367 1.52514139-2.1803599v-7.49491c-.00259126-.9476607-.77984576-1.5226735-1.54241646-1.5251414h-.31107455v-.6860668h.07773779c.68002057 0 1.37706941.0678663 2.04462725.0678663.52935733 0 1.04526478-.0678663 1.64483291-.0419537l7.82066842 8.8042365v-6.5447815c-.0098715-1.4165553-.953707-1.5868381-1.4720823-1.5993008h-.4713625v-.6860668h.0789718c.8404318 0 1.6596401.0678663 2.491311.0678663.7243188 0 1.4535733-.0678663 2.1889974-.0678663h.0777378v.6859434h-.3430334c-.7341902.0211003-1.4881234.0851414-1.5089769 2.1840617v8.0983034c0 .6219023.0183856 1.2438046.1048844 1.7830334l.017275.0914344zm-.6760719-.1568329h.5885861c-.0800823-.534293-.093779-1.126581-.093779-1.7176349v-8.0983034c0-2.1359383.8946016-2.3381799 1.6608741-2.3381799h.1875578v-.377707c-.700874.0049358-1.4042159.0691003-2.1111362.0691003-.8143959 0-1.606581-.0641645-2.4123394-.0691003l-.0012339.377707h.314653c.5466324 0 1.6263239.2441953 1.6263239 1.753419l-.0246787 6.7248123-.035784.0371414-.0603394.055527-7.91333674-8.9486067c-.528 0-1.04390746.0691003-1.58560411.0691003-.65275065 0-1.32030849-.0641645-1.96565553-.0691003l-.0037018.3775836h.15794344c.83537276 0 1.6929563.6379434 1.6929563 1.679383v7.49491c0 1.4226016-.39609254 2.3332442-1.67568123 2.33818l-.17151671-.0049358v.3837533c.77120823-.0074036 1.56339332-.0715682 2.34188175-.0715682.74295115 0 1.48207713.0642879 2.21737793.0715682v-.3788175h-.2244525c-1.40063751-.0049358-1.74848327-.6143753-1.7498406-2.1618509v-7.533162zm-.3542623-3.6956298.056761-.0518252zm-.0407198-.0344267v-.0061697l-.0148072-.0124627zm5.4812545-7.9910746c-1.3363496 0-1.3869408.320946-1.6534704 1.6189203h-.5342931c.0703342-.497275.1591774-.9945501.2134705-1.512802.0714447-.498509.1059948-.9946736.1059948-1.5103342h.4281749c.1431362.534293.5874755.515784 1.0699434.515784h9.1792288c.4811105 0 .9254499-.017275.9624679-.5526786l.4243496.0715681c-.0691003.4811105-.1406684.9612339-.1949615 1.4423445-.0320822.4801234-.0320822.9612339-.0320822 1.44l-.535527.1986632c-.037018-.6576864-.1258612-1.7114653-1.3166067-1.7114653h-2.9182519v9.4692031c0 1.3721337.6232596 1.5289666 1.4745501 1.5289666h.3393316v.5367609c-.6934704 0-1.9408535-.0703342-2.8997429-.0703342-1.0672288 0-2.3148586.0703342-3.009563.0703342v-.5367609h.3393316c.9809769 0 1.477018-.0877327 1.477018-1.4919486v-9.5062211z"/><path d="m30.2685039 44.6820771c-.7009975 0-1.946036-.0715681-2.9023342-.0715681-1.0661183 0-2.3110335.0715681-3.009563.0715681h-.074036v-.6885347h.4133676c.9809769-.0234447 1.3757121-.035784 1.3980463-1.4154447v-9.4283599h-2.8405142v-.1568329h2.9948792v9.5851928c0 1.4276607-.5750128 1.5720308-1.5522879 1.5732648h-.2615938v.3751156c.7021079-.0035784 1.8990231-.0678663 2.9318252-.0678663.9280411 0 2.1174293.0642879 2.8207712.0678663v-.3751156h-.2603599c-.8600514-.001234-1.5522879-.2122365-1.5522879-1.6102828v-9.5481748h2.9959897c1.1944473.0049357 1.3499228 1.0204627 1.3894087 1.680617l.3837532-.1419024c0-.4639588.0024679-.9291516.0345502-1.3980462.0518251-.4577892.1172236-.9118766.183856-1.365964l-.2715887-.0456556c-.0825501.518252-.5824164.5441646-1.0303342.5392288h-9.2693059c-.4183033 0-.8760925-.0197429-1.0352699-.5168946h-.2936761c-.0018195.4830329-.0369051.965367-.1050077 1.4435784-.0518252.4887609-.1332648.9588895-.1998972 1.429018h.3814087c.2343239-1.2402262.3874551-1.6424884 1.7150437-1.623856v.1567095c-1.3153727.0234447-1.2881028.2455527-1.5782005 1.5609254l-.0134498.0604628h-.6848329l.0098714-.092545c.0715681-.498509.1617687-.9946735.2147044-1.5129255.074036-.4935732.1085861-.9871465.1085861-1.4979948v-.0777378h.5639075l.0123393.055527c.1221594.4491516.4516195.4516195.904473.4590231h9.2693059c.4961645-.0074036.8563496-.0148072.887198-.4801234l.0074036-.0839074.0802056.017275.5022108.0790951-.0112288.0777378c-.0715681.4762982-.1417789.9575322-.1936041 1.4350643-.0357841.4738303-.0357841.9550643-.0357841 1.4350643v.055527l-.0493573.0197429-.6305398.2293882-.0048124-.1036504c-.0470128-.6687918-.117347-1.6361954-1.2414601-1.6361954h-2.8405142v9.3914653c.0160412 1.3425193.5489769 1.4350643 1.396689 1.4523393h.4170694v.6885347zm3.7499228-.6121542h.2504885c.6393007 0 1.3164833-.0862519 1.3164833-1.0130591v-9.323599c0-.9280411-.6771826-1.015527-1.3164833-1.015527h-.2504885v-.5342931c1.0833934 0 2.9368844.0703342 4.4284628.0703342 1.4981182 0 3.3453162-.0703342 4.5544473-.0703342-.0293676.7638047-.0134499 1.9409769.0394858 2.72218l-.5367609.1430128c-.085018-1.1560719-.2986118-2.0802879-2.1680206-2.0802879h-2.4714447v4.6605656h2.1150848c1.0671054 0 1.3004422-.6033933 1.4053265-1.5669718h.5330591c-.0344267.6970489-.0530591 1.3906427-.0530591 2.0841132 0 .6774293.018509 1.3523907.0530591 2.0285861l-.5330591.1059948c-.1048843-1.0672288-.159054-1.7608226-1.3881748-1.7608226h-2.1321131v4.1447815c0 1.1586632 1.0278663 1.1586632 2.1680206 1.1586632 2.1358149 0 3.0773059-.1443701 3.6117223-2.1704884l.4986324.1221594c-.2333367.9451928-.4455732 1.8866838-.6035167 2.8318766-1.1401542 0-3.1872494-.0703342-4.7865501-.0703342-1.6041131 0-3.7200617.0703342-4.7346016.0703342z"/><path d="m43.5378509 44.6820771c-1.1426221 0-3.1884833-.0729254-4.7863033-.0729254-1.6028792 0-3.7179641.0729254-4.733491.0729254h-.0751466v-.6885347h.3245244c.6452237-.0098714 1.230108-.0666324 1.2388689-.9365553v-9.3237223c-.0086375-.868689-.5936452-.9266838-1.2388689-.9402571h-.3245244v-.6859434h.0751466c1.0858611 0 2.9367609.0678663 4.4285861.0678663 1.4966375 0 3.3427249-.0678663 4.5544473-.0678663h.0802056l-.0038252.0789717c-.0123393.2677635-.0171516.583527-.0171516.9192802 0 .6156092.0171516 1.2881028.0530591 1.7953727l.0024679.0641646-.0592288.0173984-.6256041.1628792-.0035785-.091311c-.1048843-1.1549615-.2591259-1.9928021-2.0913933-2.0100772h-2.3975321l-.0025913 4.50509h2.0435167c1.024288-.0098715 1.2078972-.5342931 1.3289461-1.4930591l.006293-.0703342h.6823651l-.001234.0800823c-.0344267.6934704-.0568843 1.3869408-.0568843 2.0804113 0 .6737275.0224576 1.3486889.0568843 2.0261182l.001234.063054-.0641646.0146838-.6182005.1233933-.006293-.0839074c-.1221594-1.0858612-.1309203-1.680617-1.3130283-1.6940669l-2.0569666-.0013573v4.0707455c.0014807 1.0809255.9340874 1.0747558 2.094108 1.0809255 2.1419845-.0123394 3.0009254-.1158664 3.5376863-2.1149615l.0173985-.0715681.0751465.0135733.5702005.1467146-.0173984.0741594c-.2293882.9427249-.442982 1.882982-.6022828 2.8255835l-.0146838.063054zm-.0652751-.1554756c.1542417-.8971928.3575939-1.7978406.5762468-2.6937994l-.3516709-.0888432c-.5330592 1.9916915-1.5648741 2.1692545-3.6649049 2.1558046-1.1204113 0-2.2432905 0-2.2483496-1.2352905v-4.2225193h2.211455c1.2423239-.0135732 1.3696658.7366581 1.4571517 1.7497173l.3851105-.0800823c-.0341528-.6547005-.0510224-1.3101883-.0505913-1.9657789 0-.6700257.0159178-1.3362263.0505913-2.0063754h-.3851105c-.0985913.9266839-.388689 1.5782006-1.4731928 1.5658612h-2.1952905v-4.817275h2.5520205c1.8508998-.0124628 2.1579023.9427249 2.2369975 2.0619023l.3838766-.1036504c-.0308484-.5022108-.052072-1.1463239-.052072-1.7410797 0-.3047815.007527-.5922879.0173984-.8440103-1.2091311.0049358-3.0107969.0691003-4.4754755.0691003-1.4622108 0-3.2623959-.0641645-4.3520823-.0691003v.3775836h.1726273c.6342416 0 1.392.111054 1.3943444 1.0944987v9.3237223c-.0024678.9809769-.7601028 1.089563-1.3943444 1.0944988h-.1726273v.3751156c1.0378612-.0013573 3.0935938-.0678663 4.6567404-.0678663 1.5695629 0 3.5734704.066509 4.7211516.0678663zm3.0716299-10.4577069c0-1.2980977-.7107455-1.3511568-1.2647815-1.3511568h-.3195887v-.535527c.5699537 0 1.671856.0715681 2.7578406.0715681 1.0673522 0 1.9224679-.0715681 2.8640823-.0715681 2.2405758 0 4.2360925.6058612 4.2360925 3.1354242 0 1.5979434-1.0673522 2.5776863-2.4729255 3.1317223l3.0416453 4.5532134c.4983856.7526992.8526478.9637018 1.7262725 1.0672288v.5370077c-.5873522 0-1.1575527-.0704576-1.743671-.0704576-.5514447 0-1.1228791.0704576-1.6721028.0704576-1.3696658-1.797964-2.5467146-3.7204319-3.7030334-5.7687609h-1.1707558v3.8103856c0 1.3721337.6379435 1.421491 1.4559177 1.421491h.3208227v.5368843c-1.016761 0-2.0443805-.0703342-3.0600309-.0703342-.8551157 0-1.6918457.0703342-2.5801542.0703342v-.5368843h.3195887c.6612647 0 1.2647815-.2986118 1.2647815-.9587661zm2.2788277 4.1287404h.8688124c1.7805655 0 2.7392082-.676072 2.7392082-2.7763497 0-1.5819023-1.0129357-2.5974293-2.5985399-2.5974293-.534293 0-.7613367.055527-1.0096041.0715682v5.3022108z"/><path d="m57.1128432 44.6822005c-.5959897 0-1.1623651-.0716915-1.7472494-.0716915-.5429306 0-1.1105398.0716915-1.7310848.0419537-1.3648535-1.790437-2.5346221-3.7017995-3.6846478-5.7353213h-1.0513111v3.7290694c.018509 1.3388175.5565039 1.3277121 1.3795373 1.347455h.3985604v.6885347h-.0790951c-1.0167609 0-2.0494396-.0715681-3.0600308-.0715681-.8503034 0-1.6843188.0715681-2.5778098.0715681h-.0778612v-.6885347h.3974499c.6415218-.0037018 1.1821079-.2825707 1.1845758-.8822622v-9.0421388c-.0134499-1.2635476-.6316504-1.2562674-1.1845758-1.274653h-.3974499v-.6897686h.0778612c.5762468 0 1.6744473.0702108 2.7578406.0702108 1.0622931 0 1.9176555-.0702108 2.8653162-.0702108 2.2420565.0049357 4.3076607.6243702 4.3137069 3.2082262 0 1.6078149-1.062293 2.6108792-2.435784 3.1712082l2.98982 4.4765862c.4973985.737892.8071157.9218714 1.6733368 1.032802l.0652751.0098715v.6786632zm-8.2919075-5.9206581h1.2165347l.0209769.0394859c1.1598972 2.0446272 2.3283085 3.9646272 3.6388689 5.7291516.5429306 0 1.1141182-.072802 1.6682776-.072802.5687198 0 1.1165861.0616967 1.6706221.0703342v-.3899229c-.8353727-.1036504-1.2264061-.3529049-1.7125758-1.0920308l-3.0959383-4.6335425.0874859-.035784c1.392-.547743 2.4223342-1.4991054 2.4235681-3.0638561-.0012339-2.4691002-1.9188895-3.0415218-4.1558869-3.0513933-.9391465 0-1.7930283.0703342-2.8653162.0703342-1.045018 0-2.1001542-.0653984-2.6825707-.0703342v.3775836h.2443188c.552802.0013573 1.339928.092545 1.339928 1.4302519v9.0421388c0 .7144473-.6700257 1.0402057-1.339928 1.0414396h-.2443188v.3749923c.856473-.0024679 1.6670437-.0702108 2.5025399-.0702108.9955372 0 1.9988483.0678663 2.9836503.0702108v-.3749923h-.2432082c-.811928-.0013573-1.5348894-.1024165-1.5348894-1.5066324v-3.8844216h.0776143zm0-.4886375h-.0778611v-5.4490489l.0677429-.0061696c.2432082-.0183856.4839486-.0691003 1.02182-.0691003 1.6215116 0 2.6751671 1.0537789 2.6775116 2.6762777-.0048123 2.1248329-1.0240411 2.8466838-2.8183033 2.8479177h-.8709101zm.8709101-.1528843c1.7619331-.0149306 2.6481439-.6268381 2.6666529-2.6950335-.0098715-1.5547557-.9760411-2.5196915-2.5259846-2.5258611-.4812339 0-.7070437.0444216-.9340874.0642879v5.1566067zm19.502437 2.9785912.0320822-.0345501v-6.6731105c0-1.4609769-1.0129357-1.6732134-1.5459948-1.6732134h-.3899229v-.5344165c.8353728 0 1.6523599.0703342 2.4900771.0703342.7304885 0 1.4573985-.0703342 2.1914653-.0703342v.5344165h-.2677635c-.7476401 0-1.5843702.1417789-1.5843702 2.2593316v8.0995373c0 .6220257.0173985 1.2438046.1048844 1.7954961h-.6748381l-9.1631876-10.2157326v7.3332648c0 1.5485861.3021902 2.0804113 1.671856 2.0804113h.302437v.5367609c-.763928 0-1.5300771-.0703342-2.2938817-.0703342-.8035373 0-1.6215116.0703342-2.4211003.0703342v-.5367609h.2467866c1.2291209 0 1.6028792-.8342622 1.6028792-2.2568638v-7.4961439c0-.9957841-.8182211-1.5991774-1.617563-1.5991774h-.2321028v-.5342931c.6738509 0 1.3710231.0702108 2.0458612.0702108.5307146 0 1.0488432-.0702108 1.5831362-.0702108z"/><path d="m70.2253573 44.9484833-.7328329-.0246787-9.0310334-10.0663033v7.1308997c.0209769 1.5485861.2554242 1.987743 1.5978201 2.0051414h.376473v.6885347h-.0778612c-.7697275 0-1.532545-.0729254-2.2951157-.0729254-.7945296 0-1.6164524.0729254-2.4172751.0729254h-.0802056v-.6885347h.3269923c1.1747043-.0049357 1.5115681-.7613367 1.5226735-2.1852956v-7.4912082c-.0012339-.9477841-.7772545-1.5226736-1.5373573-1.5240309h-.3123085v-.6884113h.0802056c.6786633 0 1.374725.0702108 2.0458612.0702108.5231877 0 1.0389717-.0702108 1.6361954-.0456555l7.8220257 8.8079383v-6.5473728c-.0050591-1.4140874-.9527198-1.5893059-1.4696144-1.5965861h-.4702519v-.6885347h.0778612c.8415424 0 1.6607506.0702108 2.4924215.0702108.7256761 0 1.4549306-.0702108 2.1877635-.0702108h.0776144v.6885347h-.3417994c-.7340669.0197429-1.4905913.085018-1.5091003 2.1840617v8.09818c0 .6219023.0161645 1.2388688.1062416 1.7867352l.0098715.0863753zm-.676072-.1554756h.5848844c-.0778612-.534293-.0951363-1.126581-.0951363-1.7176349v-8.0983034c.001234-2.1360617.9021286-2.3333676 1.6645759-2.3395373h.1863239v-.3763496c-.6984062.0049358-1.4028586.0691003-2.1100257.0691003-.8167404 0-1.6104062-.0641645-2.4160412-.0691003v.3763496h.3160103c.5477429.0061697 1.6263239.2455527 1.6263239 1.7521851l-.0245553 6.7274036-.0346735.037018-.0541696.0567609-7.9193831-8.9497172c-.5282468 0-1.0440308.0692237-1.5819023.0692237-.6589203 0-1.3240103-.0641646-1.9718252-.0692237v.376473h.1578201c.8354961.0061697 1.6930797.6367095 1.6930797 1.6793831v7.4910848c0 1.4288946-.4022623 2.3383033-1.6781491 2.3432391l-.1727507-.001234v.3763496c.7687404-.0037018 1.5621594-.0678663 2.3432391-.0678663.7466529 0 1.4857789.0641645 2.2210797.0678663v-.3751156h-.2245759c-1.4016246-.001234-1.7520616-.6143754-1.7545295-2.1630849v-7.5294601zm-.3554961-3.6956298.0541697-.0505913zm-.0442982-.0333162v-.0062931l-.0136967-.0134498zm5.6837429.997018c-.1800308.6033933-.3947352 1.06982-.3947352 1.3869409 0 .535527.7489974.6219023 1.3340052.6219023h.1985398v.5367609c-.71309-.0383753-1.44-.0703342-2.1569152-.0703342-.6402879 0-1.2771208.0322057-1.9186426.0703342v-.5367609h.1072288c.693347 0 1.2821799-.4085553 1.5448843-1.1574293l2.8503856-8.1662931c.2296349-.6589203.552802-1.5485861.660401-2.208617.5663753-.1937275 1.2794653-.5491002 1.6164524-.7638046.0554036-.0183856.086252-.037018.1419024-.037018.0530591 0 .0874858 0 .1269717.055527.0518252.1406684.1036504.3023136.1605347.444216l3.2735013 9.3087917c.2134704.6219023.4243496 1.2795887.6553419 1.8151157.2147043.498509.5896966.7095116 1.1782828.7095116h.1048843v.5367609c-.8005759-.0382519-1.6026324-.0702108-2.4541697-.0702108-.8723907 0-1.7646478.0320823-2.6714653.0702108v-.5367609h.1974293c.4073214 0 1.1032597-.0691003 1.1032597-.5145501 0-.2307456-.1605348-.7107456-.3590746-1.2820566l-.6923599-2.0643702h-4.0385398zm2.5963188-7.8848329h-.0359075l-1.6547043 5.0369152h3.3255732z"/><path d="m84.3111979 44.6820771c-.8008226-.035784-1.6016452-.0729254-2.4493573-.0729254-.8723907 0-1.7583547.0371414-2.6691208.0729254l-.0802057.0049358v-.6959383h.2740566c.4121337 0 1.0240411-.093779 1.0240411-.4354551.0050592-.2024884-.1554756-.6911259-.3516709-1.2573779l-.6774293-2.0125449h-3.925018l-.5528021 1.7977172c-.1802776.6070951-.3935013 1.0772236-.3923907 1.3671979.0060462.4344679.6711362.5404628 1.2609563.5404628h.2740565v.6959383l-.0802056-.0049358c-.7119795-.035784-1.4387661-.0729254-2.1482777-.0729254-.6379434 0-1.2794653.0371414-1.9174087.0729254l-.0826735.0049358v-.6959383h.183856c.6624987-.0024679 1.2154242-.3786941 1.4720823-1.1030129l2.8491516-8.1674036c.2333368-.6601542.554036-1.5473522.7082777-2.2568638.5577378-.1887917 1.2720617-.5466323 1.6152185-.7638046.0493573-.0160411.098838-.040805.1716401-.040805.0431877-.0011487.139311.0099567.1961954.103859.0505912.1467147.1059948.3047815.1602879.4491517l3.2774499 9.3076812c.209892.6243702.4220051 1.2820566.6541079 1.8075887.2060669.4751877.5330592.6613882 1.1054807.663856h.1815116v.6959383zm-5.0432082-.1591774c.8811517-.0308483 1.743671-.0653984 2.5938509-.0653984.8266118 0 1.6002879.0345501 2.3738406.0653984v-.3715372h-.0245552c-.6094396.0037018-1.0303342-.2355579-1.2488638-.7599795-.231856-.5404627-.4490283-1.2006169-.6574396-1.8237532l-3.2762159-9.3063239c-.0541697-.1419023-.1059949-.3035475-.1530077-.4294087-.0146838-.0172751-.0111054-.0172751-.0257892-.0172751h-.0323291c-.0368946 0-.0578714.0111054-.1036504.0234447-.34291.2233419-1.0572339.572545-1.5843701.7119795-.1096967.6737275-.4292854 1.5621594-.6612648 2.2210797l-2.8479178 8.1686375c-.2713419.7724422-.8946015 1.2129563-1.6187969 1.211599h-.0283804v.3715372c.6094395-.0308483 1.2264061-.0653984 1.8446066-.0653984.6873008 0 1.3906427.0345501 2.069306.0653984v-.3715372h-.1147558c-.5785913-.0074036-1.3881748-.0728021-1.4103856-.7008741.0012339-.3553727.2197635-.8105707.3935013-1.4114961l.0778611.0233213-.0778611-.0259126.5861182-1.9027249h4.1486067l.7143239 2.1150848c.2000206.5713111.3615424 1.0451414.3615424 1.3067352-.0245553.5466324-.7760206.5848844-1.1795167.5959898h-.118581v.3714138zm-3.6375116-5.2332339 1.7039384-5.1911568h.0963701v.0777378l-.0197429.0037018.0197429-.0037018v-.0777378h.0530592l1.6891311 5.1911568zm.2133471-.1542416h3.1144473l-1.5487095-4.7691517zm1.5091002-4.9368432.0407198-.0135733zm7.7456453-1.1267044c-1.3351157 0-1.3881748.320946-1.6561851 1.6189203h-.5342931c.0703342-.497275.1605347-.9945501.2161851-1.512802.0713214-.498509.1036504-.9946736.1036504-1.5103342h.4292854c.1419023.534293.5887095.515784 1.0662416.515784h9.1841645c.4776556 0 .9218715-.017275.9588895-.5526786l.4255835.0715681c-.0679897.4811105-.1380771.9612339-.1926169 1.4423445-.0381286.4801234-.0381286.9612339-.0381286 1.44l-.5330591.1986632c-.0334396-.6576864-.1221594-1.7114653-1.3153727-1.7114653h-2.918252v9.4692031c0 1.3721337.6244936 1.5289666 1.4759075 1.5289666h.3378509v.5367609c-.693347 0-1.9371517-.0703342-2.8997429-.0703342-1.0659949 0-2.3136247.0703342-3.0069718.0703342v-.5367609h.3368638c.9808535 0 1.4794859-.0877327 1.4794859-1.4919486v-9.5062211z"/><path d="m92.108545 44.6820771c-.6984062 0-1.9446787-.0715681-2.8997429-.0715681-1.0637738 0-2.3100463.0715681-3.0072186.0715681h-.0788483v-.6885347h.4157121c.9808535-.0234447 1.3747249-.035784 1.3992802-1.4154447l-.0024679-9.4283599h-2.8368123v-.1568329h2.9935219v9.5851928c0 1.4276607-.5762468 1.568329-1.5535219 1.5720308h-.2614704v.3800514c.7044524-.0075269 1.8988997-.0715681 2.9318252-.0715681.9290282 0 2.1186632.0642879 2.8218817.0715681v-.3800514h-.2627044c-.8553624-.0037018-1.5487095-.2097686-1.551054-1.6090488v-9.5481748h2.9958664c1.1944473.0049357 1.3510334 1.0204627 1.3845964 1.680617l.3886889-.1419024c0-.4639588.001234-.9291516.0356607-1.3955784.0493573-.4577892.1158663-.9143444.1815116-1.3685552l-.2689975-.0456556c-.0814396.518252-.5836504.5467558-1.0266324.5392288h-9.274365c-.4195373.0049358-.8736247-.0197429-1.0353933-.5194858h-.2910849c-.0050591.4935732-.0383753.9724627-.1087095 1.446293-.046766.4898715-.1344987.961234-.2010077 1.4288946h.3812854c.2356812-1.2402262.3899229-1.6424884 1.7199794-1.623856v.1567095c-1.3189511.0223342-1.2893368.2455527-1.5807918 1.5609254l-.0134498.0604628h-.6861903l.0111054-.0889666c.074036-.5020874.1628792-.9982519.2147044-1.5128021.0728021-.497275.1074756-.9908483.1074756-1.5016966v-.0777378h.5624267l.0149306.055527c.1246273.4491516.4490283.4516195.904473.4590231l.0899537.0024679h9.1844114c.4911053-.0097481.8500565-.0172751.8809048-.4811106l.0050592-.0851413.0839074.0173984.5046787.0789717-.0134499.0777378c-.072802.4762982-.1407918.9575322-.1949614 1.4350643-.0359075.4738303-.0359075.9562982-.0359075 1.4350643v.0555269l-.0503445.019743-.6306632.2295115-.0035784-.1037737c-.0457789-.6686684-.1161131-1.6361954-1.2402262-1.6361954h-2.8416247v9.3914653c.018509 1.3425193.5502108 1.4350643 1.3968123 1.4523393h.416946v.6886581zm3.840617-.6121542h.2493778c.6427558 0 1.315126-.0862519 1.315126-1.0130591v-9.323599c0-.9280411-.6723702-1.015527-1.315126-1.015527h-.2493778v-.5342931c.6948277 0 1.760946.0703342 2.6307455.0703342.8933676 0 1.9608435-.0703342 2.7973265-.0703342v.5342931h-.249255c-.640287 0-1.3189507.0876092-1.3189507 1.015527v9.323599c0 .9268072.6786637 1.0130591 1.3189507 1.0130591h.249255v.5368843c-.855116 0-1.9237019-.0703342-2.8107764-.0703342-.8736247 0-1.9224679.0703342-2.6172956.0703342z"/><path d="m101.377851 44.6820771c-.859928 0-1.9249358-.0729254-2.8120104-.0729254-.8700463 0-1.9212339.0729254-2.6160617.0729254h-.0776144v-.6885347h.3269923c.6427558-.0098714 1.2326992-.0653984 1.2351671-.9365553v-9.3237223c-.0024679-.868689-.5924113-.9280411-1.2351671-.9402571h-.3269923v-.6859434h.0776144c.6948278 0 1.7634139.0678663 2.6307455.0678663.8873214 0 1.9545506-.0678663 2.7973266-.0678663h.075393v.6859434h-.324648c-.650282.0123393-1.2339328.0715681-1.2425703.9402571v9.3237223c.0086375.8711569.5924113.9266839 1.2425703.9365553h.324648v.6885347zm-.080082-.1554756v-.376473h-.169173c-.637943 0-1.3929867-.1121645-1.3929867-1.0931414v-9.3237223c0-.9834447.7550437-1.0944987 1.3929867-1.0944987h.169173v-.3775836c-.8218.0049358-1.8496662.0691003-2.7172446.0691003-.8427763 0-1.8632391-.0641645-2.5528843-.0691003v.3775836h.1716401c.6328843 0 1.3906427.111054 1.3929872 1.0944987v9.3237223c-.0024679.9808535-.7601029 1.0931414-1.3929872 1.0931414h-.1716401v.376473c.6861902-.0075269 1.6930797-.0679897 2.5382005-.0679897.8625193 0 1.8928534.0642879 2.7318044.0679897zm7.175815-12.6096863c3.79311 0 6.816246 2.3518766 6.816246 6.1412853 0 4.0943136-2.93565 6.8150129-6.723701 6.8150129-3.775836 0-6.655713-2.5630026-6.655713-6.3893059 0-3.7005656 2.862602-6.5669923 6.563168-6.5669923zm.268997 12.1727506c3.452545 0 4.05347-3.045347 4.05347-5.6403085 0-2.6011311-1.401624-5.7501285-4.356894-5.7501285-3.114447 0-4.038663 2.7763496-4.038663 5.1590745 0 3.1860155 1.458509 6.2313625 4.342087 6.2313625z"/><path d="m101.830581 38.4839075c.007527-3.7437533 2.904802-6.6397944 6.642262-6.6447301v.1528843c-3.657254 0-6.48802 2.8295321-6.491599 6.4917224.008638 3.783239 2.847918 6.3078663 6.584391 6.3091002 3.75091-.0012339 6.64473-2.6838046 6.650653-6.7383856-.003578-3.7412853-2.981183-6.0575013-6.743198-6.062437v-.1528843c3.822602.0024678 6.886458 2.3777892 6.893861 6.2153213-.003578 4.1372545-2.977604 6.886581-6.801316 6.8938612-3.805697-.0074036-6.727527-2.5961954-6.734807-6.4645758h-.000247zm2.492792-.6256042c.004812-2.3937069.940133-5.2392802 4.116277-5.2392802 3.020669.007527 4.431054 3.2157532 4.435867 5.8303342-.004813 2.5949615-.615486 5.7144679-4.132196 5.7144679v-.1506632c3.383445-.0048124 3.969563-2.9688432 3.977954-5.5638047 0-2.5800308-1.389409-5.6685655-4.281625-5.6723907-3.05275.0037018-3.956113 2.7109511-3.962036 5.0813367.002468 3.1699743 1.447404 6.1474551 4.265707 6.1548587v.1506632c-2.954159-.0038252-4.415136-3.100874-4.419948-6.3055219zm22.95782 3.2403085.035907-.0345501v-6.6731105c0-1.4609769-1.016761-1.6732134-1.551054-1.6732134h-.38511v-.5344165c.834139 0 1.65236.0703342 2.486375.0703342.731722 0 1.460977-.0703342 2.191465-.0703342v.5344165h-.268997c-.745419 0-1.583136.1417789-1.583136 2.2593316v8.0995373c0 .6220257.017398 1.2438046.107475 1.7954961h-.675085l-9.165779-10.2157326v7.3332648c0 1.5485861.301204 2.0804113 1.670869 2.0804113h.304658v.5367609c-.766149 0-1.52983-.0703342-2.295115-.0703342-.800823 0-1.621265.0703342-2.422088.0703342v-.5367609h.250365c1.230355 0 1.599301-.8342622 1.599301-2.2568638v-7.4961439c0-.9957841-.814642-1.5991774-1.61781-1.5991774h-.231856v-.5342931c.676072 0 1.370777.0702108 2.045862.0702108.534293 0 1.048843-.0702108 1.58437-.0702108z"/><path d="m128.315352 44.9486067-.736535-.026036-9.028688-10.0651928v7.1322571c.019496 1.5473521.255177 1.9853984 1.591527 2.0014396h.38511v.6910025h-.077861c-.771208 0-1.53489-.0715681-2.295116-.0715681-.798478 0-1.615218.0715681-2.423568.0715681h-.074036v-.6910025h.325882c1.17347-.0035785 1.510334-.7587456 1.525018-2.1778921v-7.4961439c-.002468-.9476607-.778735-1.5226736-1.543651-1.5239075h-.307249v-.6860668h.074036c.682489 0 1.375836.0679897 2.047095.0679897.528247 0 1.041563-.0679897 1.643599-.0419537l7.818324 8.8041131v-6.5447815c-.005059-1.4164319-.95272-1.5868381-1.47344-1.5991774h-.467537v-.6859434h.080206c.837717 0 1.658283.0678663 2.486128.0678663.730489 0 1.456165-.0678663 2.194057-.0678663h.07638v.6859434h-.345624c-.731723.0209769-1.489111.0876093-1.504041 2.1840617v8.0983033c0 .6219024.013449 1.2424473.100072 1.7866119l.014683.0863753zm-.675948-.155599h.582293c-.077615-.534293-.091311-1.126581-.091311-1.7176349v-8.0983034c0-2.1396401.897192-2.3333676 1.659763-2.3395373h.19237v-.3763496c-.701984.0049358-1.405326.0691003-2.117182.0691003-.809584 0-1.605594-.0641645-2.411229-.0691003v.3763496h.312062c.551691.0061697 1.62509.2493779 1.62509 1.754653l-.019497 6.7249357-.033439.0371414-.056638.0566375-7.919383-8.9497172c-.524421 0-1.044031.0692237-1.58437.0692237-.655342 0-1.3229-.0641646-1.970714-.0692237v.376473h.156709c.835496.0061697 1.695424.6367095 1.695424 1.6793831v7.4961439c0 1.422725-.397203 2.3333676-1.676915 2.3383034l-.175218-.0013574v.376473c.772442-.0037018 1.564627-.0678663 2.34694-.0678663.741594 0 1.478252.0641645 2.217502.0678663v-.3751156h-.229635c-1.396566-.0013574-1.745769-.6144988-1.745769-2.1619743v-7.533162zm-.357964-3.6956298.056637-.0505913zm-.041954-.0333162v-.0062931l-.014931-.0134498zm5.678807.997018c-.173985.6033933-.389923 1.06982-.389923 1.3869409 0 .535527.748998.6219023 1.332771.6219023h.19854v.5367609c-.711979-.0383753-1.442344-.0703342-2.154324-.0703342-.643002 0-1.280946.0322057-1.918889.0703342v-.5367609h.101182c.697173 0 1.286993-.4085553 1.549944-1.1574293l2.850385-8.1662931c.229389-.6589203.551445-1.5485861.655342-2.208617.569954-.1937275 1.2807-.5491002 1.622376-.7638046.050591-.0183856.086498-.037018.140791-.037018.05306 0 .086252 0 .12216.055527.054169.1406684.109943.3023136.162879.444216l3.272391 9.3087917c.21347.6219023.42583 1.2795887.660154 1.8151157.21347.498509.588586.7095116 1.17347.7095116h.10871v.5367609c-.802057-.0382519-1.602879-.0702108-2.457995-.0702108-.870046 0-1.760823.0320823-2.669121.0702108v-.5367609h.197676c.405841 0 1.104247-.0691003 1.104247-.5145501 0-.2307456-.161769-.7107456-.360308-1.2820566l-.691003-2.0643702h-4.039897zm2.601131-7.8848329h-.035661l-1.657172 5.0369152h3.330139z"/><path d="m142.398602 44.6820771c-.800823-.0320822-1.600288-.0715681-2.450468-.0715681-.867579 0-1.758355.0394859-2.666653.0715681l-.078849.0049358v-.6934705h.270108c.414479 0 1.027867-.0962468 1.029101-.4380463.003578-.2024884-.15671-.6873007-.35525-1.2573778l-.676195-2.012545h-3.927609l-.550458 1.7977172c-.177563.609563-.389923 1.0772236-.386098 1.3648535 0 .4368123.666077.5453984 1.25491.5453984h.271342v.6934705l-.078848-.0049358c-.712103-.0320822-1.440247-.0715681-2.148278-.0715681-.637943 0-1.277367.0394859-1.918889.0715681l-.077861.0049358v-.6934705h.179043c.663733-.0025912 1.219003-.3837532 1.478252-1.1056041l2.847918-8.1674036c.227044-.6601542.547743-1.5473522.705686-2.2543959.559096-.1937275 1.273419-.5491002 1.619044-.7663959.046766-.0160411.095013-.037018.167692-.037018.047012-.0049357.138077.0061697.194961.1036504.053059.1395579.104884.3010797.164113.4454499l3.272391 9.3076812c.21236.6243702.42583 1.2820566.656452 1.8114139.208412.4713625.53306.6576864 1.100669.6626221h.18509v.6934705zm-5.042962-.1568329c.879671-.0333162 1.746016-.0678663 2.592494-.0678663.827845 0 1.604113.0345501 2.378899.0653984l-.002467-.3715372h-.029615c-.602283.0013573-1.022807-.2355579-1.243804-.7599795-.234448-.5404627-.446561-1.2006169-.658921-1.8214087l-3.274982-9.3086684c-.053059-.1419023-.107229-.3035475-.150416-.424473-.014931-.0222108-.01345-.0222108-.02727-.0222108h-.033316c-.036895 0-.056885.0123393-.100072.0246787-.346612.2184061-1.059949.5736555-1.586715.7107455-.109943.6737275-.433111 1.5609254-.662499 2.2210797l-2.849151 8.1686375c-.270355.7724422-.892134 1.2129563-1.620278 1.211599h-.026036v.3715372c.612154-.0308483 1.224062-.0653984 1.84362-.0653984.689768 0 1.391753.0345501 2.076709.0653984v-.3715372h-.120925c-.578592-.0074036-1.390643-.0702108-1.411497-.7032185.003579-.3529049.22433-.8057584.39597-1.4091517l.072802.0233213-.072802-.0259126.586118-1.9027249h4.14984l.71309 2.1149614c.196196.5726684.357841 1.0452648.357841 1.3068587-.026036.5466323-.772442.5847609-1.179763.5958663h-.117101v.3740051zm-3.63529-5.2366889 1.706529-5.1900463h.092545v.0777378l-.018509.0037018.018509-.0037018v-.0777378h.055651l1.681727 5.1900463zm.21347-.1531311h3.112103l-1.547476-4.7666838zm1.511568-4.9368432.035661-.0135733zm11.444483 8.6633213c0 .7121028.493574.924216 1.063774.997018.729255.0542931 1.530077.0542931 2.352-.0357841.745172-.0899537 1.386941-.5168946 1.705049-.9612339.283928-.3923907.444463-.8908997.551692-1.2820565h.515784c-.194962 1.014293-.444216 2.0137789-.658921 3.026838-1.562159 0-3.131599-.0703342-4.695239-.0703342-1.568205 0-3.131599.0703342-4.697336.0703342v-.5368843h.244195c.644236 0 1.340175-.0862519 1.340175-1.1906221v-9.1459126c0-.9280411-.696062-1.015527-1.340175-1.015527h-.244195v-.5342931c.940133 0 1.866817.0703342 2.808431.0703342.91052 0 1.799075-.0703342 2.707126-.0703342v.5342931h-.448041c-.673604 0-1.204319.0197429-1.204319.96z"/><path d="m152.419249 44.6820771c-1.568205 0-3.133943-.0715681-4.694992-.0715681-1.567218 0-3.13308.0715681-4.701285.0715681h-.075394v-.6885347h.323414c.645347-.0148072 1.25491-.0592288 1.262314-1.1142416v-9.149491c-.007527-.8649872-.613388-.924216-1.262314-.9366787h-.323414v-.6859434h.075394c.946426 0 1.87311.0678663 2.813244.0678663.903239 0 1.791794-.0678663 2.706015-.0678663h.073049v.6859434h-.519609c-.689769.0197429-1.119177-.0123393-1.132751.8848535v9.1841645c.004813.6626221.439404.8415424.994674.9192802.314529.0222108.64399.0357841.987146.0357841.435455 0 .888309-.0209769 1.347455-.0703342.72543-.085018 1.3498-.5034448 1.655939-.9279178.273809-.3800514.431876-.8686889.537871-1.2573779l.016165-.0591054h.670025l-.016164.093779c-.201008 1.0179948-.445327 2.012545-.661265 3.0256041l-.014684.0604627h-.060833zm-.064164-.1554756c.206067-.9649357.439403-1.909018.630663-2.8714858h-.365368c-.111054.387455-.268997.8649871-.548976 1.2536761-.332052.461491-.990972.8958354-1.76218.9908483-.466304.0481234-.927918.0728021-1.364607.0728021-.344391 0-.678663-.0160412-1.000843-.0383754-.578591-.0641645-1.140154-.3109511-1.137563-1.0721645v-9.1841645c0-.9883805.625357-1.0389717 1.289337-1.0389717h.367712v-.3775836c-.877203.0049358-1.740957.0702108-2.627167.0702108-.921625 0-1.82252-.065275-2.73563-.0702108v.3775836h.170406c.635475 0 1.41273.111054 1.41273 1.0907969v9.1496144c0 1.1512596-.773676 1.2709511-1.41273 1.2709511h-.170406v.3763496c1.538838-.0012339 3.077552-.0678663 4.623671-.0678663 1.546118 0 3.091249.0666324 4.630951.0679897zm.507146-12.8490694c1.072165 0 1.873111.8242674 1.873111 1.8805142 0 1.051311-.800823 1.8681748-1.873111 1.8681748-1.072411 0-1.874468-.8168638-1.874468-1.8681748-.000123-1.0561234.801934-1.8805142 1.874468-1.8805142zm0 3.3994859c.837718 0 1.481954-.7156812 1.481954-1.5189717 0-.8082262-.634365-1.5300771-1.481954-1.5300771-.842776 0-1.487012.7219742-1.487012 1.5300771 0 .8032905.644236 1.5189717 1.487012 1.5189717zm-.932977-.5318252v-.092545c.230623-.0320822.272576-.0246786.272576-.1678149v-1.3869409c0-.194838-.020977-.2614704-.263938-.2517223v-.0950129h.958766c.330694 0 .632884.1567095.632884.4972751 0 .2788689-.18509.4849357-.442982.5651414l.30725.4292853c.14437.1949615.306015.377707.413367.4417481v.0604627h-.36512c-.175219 0-.328227-.368946-.673851-.8637532h-.207301v.6231362c0 .1233934.043188.1159898.274056.148072v.092545h-.905707zm.631651-.9871465h.220997c.241728 0 .35525-.1838561.35525-.4787661 0-.2986118-.175219-.4036195-.367589-.4036195h-.208658z"/></g></g></svg>