<svg xmlns="http://www.w3.org/2000/svg" xml:space="preserve" width="512" height="512" style="clip-rule:evenodd;fill-rule:evenodd;stroke-linejoin:round;stroke-miterlimit:1.41421"><defs><clipPath id="b" clipPathUnits="userSpaceOnUse"/><clipPath id="a" clipPathUnits="userSpaceOnUse"/></defs><g clip-path="url(#a)" style="display:inline" transform="matrix(.57723 0 0 4.97088 -690.36 -3007.385)"><path d="M1128 537h60v120h-60z" style="fill:#238647" transform="matrix(2.46389 0 0 .85833 -1583.27 144.075)"/><path d="M1128 537h60v120h-60z" style="fill:#2f9b47" transform="matrix(2.46389 0 0 .85833 -1509.35 144.075)"/><path d="M1128 537h60v120h-60z" style="fill:#62b64f" transform="matrix(2.46389 0 0 .85833 -1435.43 144.075)"/><path d="M1128 537h60v120h-60z" style="fill:#89cc53" transform="matrix(2.46389 0 0 .85833 -1361.52 144.075)"/><path d="M1128 537h60v120h-60z" style="fill:#3db8ad" transform="matrix(2.46389 0 0 .85833 -1287.6 144.075)"/><path d="M1128 537h60v120h-60z" style="fill:#3394d7" transform="matrix(2.46389 0 0 .85833 -1213.68 144.075)"/><path d="M1128 537h60v120h-60z" style="fill:#2872bc" transform="matrix(2.46389 0 0 .85833 -1139.77 144.075)"/><path d="M1128 537h60v120h-60z" style="fill:#1d5c84" transform="matrix(2.46389 0 0 .85833 -1065.85 144.075)"/><path d="M1128 537h60v120h-60z" style="fill:#993233" transform="matrix(2.46389 0 0 .85833 -991.933 144.075)"/><path d="M1128 537h60v120h-60z" style="fill:#e13030" transform="matrix(2.46389 0 0 .85833 -918.017 144.075)"/><path d="M1128 537h60v120h-60z" style="fill:#f28825" transform="matrix(2.46389 0 0 .85833 -844.1 144.075)"/><path d="M1128 537h60v120h-60z" style="fill:#f5c836" transform="matrix(1.23194 0 0 .85833 619.45 144.075)"/></g><g clip-path="url(#b)" style="display:inline" transform="matrix(2.15785 0 0 2.13335 -1187.601 -34.134)"><path d="M350 117h8v21c0 9.934-8.066 18-18 18s-18-8.066-18-18v-21h8v21c0 6.071 4.481 11 10 11s10-4.929 10-11z" style="fill:#fff" transform="matrix(.98864 0 0 1 311.114 0)"/><path d="M350 117h8v21c0 9.934-8.066 18-18 18s-18-8.066-18-18v-21h8v21c0 6.071 4.481 11 10 11s10-4.929 10-11z" style="fill:#fff" transform="matrix(.98864 0 0 -1 354.659 272)"/><path d="M1931 253h-7v-18h.03q-.03-.497-.03-1v-36h8v20.003a19.9 19.9 0 0 1 12-4.003c11.04 0 20 8.962 20 20s-8.96 20-20 20a19.9 19.9 0 0 1-12.61-4.483zm12.5-32c6.9 0 12.5 5.825 12.5 13s-5.6 13-12.5 13-12.5-5.825-12.5-13 5.6-13 12.5-13" style="fill:#fff" transform="matrix(.98864 0 0 1 -1320.14 -98)"/><path d="M1931 253h-7v-18h.03q-.03-.497-.03-1v-36h8v20.003a19.9 19.9 0 0 1 12-4.003c11.04 0 20 8.962 20 20s-8.96 20-20 20a19.9 19.9 0 0 1-12.61-4.483zm12.5-32c6.9 0 12.5 5.825 12.5 13s-5.6 13-12.5 13-12.5-5.825-12.5-13 5.6-13 12.5-13" style="fill:#fff" transform="matrix(-.98864 0 0 -1 2658.14 370)"/></g></svg>