<svg xmlns="http://www.w3.org/2000/svg" width="512" height="512" viewBox="0 0 512 512"><title>Untitled 10</title><defs><path id="a" d="M0 0h100v100H0z"/></defs><g fill="none" fill-rule="evenodd"><path d="M0 0h512v511.998H0z"/><path fill="#238647" d="M0 0h85.335v511.998H0z"/><path fill="#2f9b47" d="M42.67 0h85.335v511.998H42.67z"/><path fill="#62b64f" d="M85.335 0h85.335v511.998H85.335z"/><path fill="#89cc53" d="M128 0h85.335v511.998H128z"/><path fill="#3db8ad" d="M170.67 0h85.335v511.998H170.67z"/><path fill="#3394d7" d="M213.335 0h85.335v511.998h-85.335z"/><path fill="#2872bc" d="M256 0h85.335v511.998H256z"/><path fill="#1d5c84" d="M298.67 0h85.335v511.998H298.67z"/><path fill="#993233" d="M341.335 0h85.335v511.998h-85.335z"/><path fill="#e13030" d="M384 0h85.335v511.998H384z"/><path fill="#f28825" d="M426.665 0H512v511.998h-85.335z"/><path fill="#f5c836" d="M469.33 0h42.665v511.998H469.33z"/><g fill="#fff"><path d="M230.4 215.466h17.066v44.8c0 21.192-17.208 38.4-38.4 38.4-21.193 0-38.4-17.208-38.4-38.4v-44.8h17.067v44.8c0 12.951 9.56 23.466 21.333 23.466 11.774 0 21.333-10.515 21.333-23.466zM324.362 296.532h17.067v-44.8c0-21.192-17.207-38.4-38.4-38.4s-38.4 17.208-38.4 38.4v44.8h17.067v-44.8c0-12.951 9.56-23.466 21.333-23.466 11.774 0 21.333 10.515 21.333 23.466zM83.19 296.532H68.257v-38.4h.064a35 35 0 0 1-.064-2.133v-76.8h17.066v42.673c7.126-5.361 16-8.54 25.6-8.54 23.552 0 42.667 19.12 42.667 42.667s-19.115 42.667-42.667 42.667a42.46 42.46 0 0 1-26.901-9.564zm26.667-68.266c14.72 0 26.666 12.426 26.666 27.733s-11.947 27.733-26.666 27.733S83.19 271.306 83.19 256s11.947-27.733 26.667-27.733M428.807 215.466h14.934v38.4h-.064q.063 1.06.064 2.133v76.8h-17.067v-42.673a42.45 42.45 0 0 1-25.6 8.54c-23.552 0-42.666-19.12-42.666-42.667s19.114-42.666 42.666-42.666a42.46 42.46 0 0 1 26.902 9.563zm-26.666 68.266c-14.72 0-26.667-12.426-26.667-27.733 0-15.306 11.947-27.733 26.667-27.733s26.666 12.427 26.666 27.733-11.946 27.733-26.666 27.733"/></g></g></svg>