<svg xmlns="http://www.w3.org/2000/svg" width="40" height="40" fill="none" viewBox="0 0 40 40"><path fill="#f7d047" d="M0 0h40v40H0z"/><path fill="#279557" d="M0 0h7v40H0z"/><rect width="40" height="40" fill="#d8d8d8" rx="4.5"/><mask id="a" width="40" height="40" x="0" y="0" maskUnits="userSpaceOnUse" style="mask-type:alpha"><rect width="40" height="40" fill="#fff" rx="4.5"/></mask><g fill-rule="evenodd" clip-rule="evenodd" mask="url(#a)"><path fill="#279557" d="M0 40h3.333V0H0z"/><path fill="#34a858" d="M3.333 40h3.334V0H3.333z"/><path fill="#6fbf60" d="M6.667 40h3.334V0H6.667z"/><path fill="#98d264" d="M10 40h3.333V0H10z"/><path fill="#46c2bb" d="M13.333 40h3.333V0h-3.333z"/><path fill="#3fa5df" d="M16.667 40H20V0h-3.333z"/><path fill="#3387c9" d="M20 40h3.333V0H20z"/><path fill="#217095" d="M23.333 40h3.334V0h-3.334z"/><path fill="#ab4542" d="M26.667 40H30V0h-3.333z"/><path fill="#ea4740" d="M30 40h3.333V0H30z"/><path fill="#f69b2d" d="M33.333 40h3.334V0h-3.334z"/><path fill="#f7d047" d="M36.667 40H40V0h-3.333z"/><path fill="#f9f9f9" d="M6.494 19.919c0-1.212.946-2.196 2.11-2.196.389.002.763.112 1.085.312q.006.002.01.006a2 2 0 0 1 .206.148q.031.024.062.051a2 2 0 0 1 .22.226l.022.026c.209.258.353.55.432.856l.004.015q.021.084.035.169l.006.036q.012.077.02.156l.002.06q.007.108.002.217-.001.058-.005.116-.005.05-.013.1-.007.053-.015.104-.01.05-.021.1a2.4 2.4 0 0 1-.09.298 2 2 0 0 1-.087.2l-.03.059a2 2 0 0 1-.097.165c-.38.582-1.02.965-1.747.965-.292.001-.58-.061-.845-.183v.003a2.2 2.2 0 0 1-1.266-2.01M7.76 16.67v.003c-.39.111-.762.292-1.097.543v-3.376h-1.35v6.078c0 .055.005.112.005.167h-.005v3.04h1.181l.066-.589c.36.293.77.5 1.2.624q.11.032.22.056.01.001.018.003a4 4 0 0 0 .434.062l.05.004a3 3 0 0 0 .408 0 3 3 0 0 0 .23-.02l.092-.014a3 3 0 0 0 .361-.077q.029-.006.056-.014.05-.014.098-.03l.037-.012A3.376 3.376 0 0 0 7.76 16.67M17.974 16.71v3.559q0 .088-.008.174l-.003.024q-.008.076-.021.15l-.01.052a2 2 0 0 1-.05.19l-.025.075a2 2 0 0 1-.117.262l-.013.024q-.034.062-.073.12l-.015.023q-.037.053-.076.106l-.011.012a1.6 1.6 0 0 1-.232.24q-.023.02-.05.04a2 2 0 0 1-.131.095c-.253.16-.547.25-.853.254-.932 0-1.689-.825-1.689-1.854V16.71h-1.35v3.546a3.04 3.04 0 0 0 1.854 2.798v.002a3 3 0 0 0 .968.231l.02.002.153.006h.045l.065-.001a2 2 0 0 0 .154-.007l.035-.003.141-.015a3.04 3.04 0 0 0 2.632-2.77l.003-.041a3 3 0 0 0 .008-.202V16.71zM25.109 16.881l-.015-.007a3 3 0 0 0-.195-.092v-.001a3 3 0 0 0-.832-.22h-.005a2 2 0 0 0-.272-.019h-.032l-.046-.002-.064.002-.043.001-.11.006-.036.002-.122.013-.02.003a3.04 3.04 0 0 0-2.642 3.014v3.544h1.35v-3.548a1.95 1.95 0 0 1 .636-1.445 2 2 0 0 1 .148-.116 1.5 1.5 0 0 1 .203-.122 1.6 1.6 0 0 1 .702-.168c.461 0 .88.203 1.185.532a1.95 1.95 0 0 1 .503 1.323v3.544h1.351v-3.544a3.04 3.04 0 0 0-1.644-2.7M31.397 22.113a2.08 2.08 0 0 1-1.526-.676l-.027-.032-.053-.06a2.24 2.24 0 0 1-.506-1.423c0-1.21.946-2.195 2.11-2.195.291 0 .58.063.845.184v-.004.004a2.232 2.232 0 0 1 0 4.017v.001a2 2 0 0 1-.843.184m3.29-5.402h-1.181l-.066.588a3 3 0 0 0-.182-.137l-.035-.025a3 3 0 0 0-.396-.235l-.015-.007a3.335 3.335 0 0 0-.572-.223v.003a3 3 0 0 0-.221-.056l-.017-.004a3 3 0 0 0-.434-.061l-.05-.004a4 4 0 0 0-.178-.006h-.065a4 4 0 0 0-.244.01 4 4 0 0 0-.379.054l-.107.023q-.06.014-.119.03-.027.006-.055.014l-.099.03-.036.012a3.377 3.377 0 0 0 2.004 6.447v-.002.002l.049-.015.004-.001q.22-.068.43-.163l.01-.005q.204-.096.395-.217l.027-.018q.093-.06.182-.126v3.378h1.35z"/></g></svg>