<svg xmlns="http://www.w3.org/2000/svg" width="640" height="360" viewBox="0 0 640 360"><title>Worldline logo turquoise</title><defs><clipPath id="a"><path d="M0 0h955.502v97.364H0z" class="cls-1"/></clipPath></defs><g class="cls-2" clip-path="url(#a)" transform="translate(64 153.914)scale(.53584)"><path d="M796.058 22.797a96 96 0 0 0-9.65 9.762c14.444 14.505 24.866 36.645 28.372 62.283h13.895c-2.798-22.594-10.553-43.453-22.521-60.088a99 99 0 0 0-10.096-11.957M779.128 42.235a95 95 0 0 0-7.08 12.777c8.27 10.31 14.356 24.133 17.129 39.832h13.942c-2.631-16.868-8.71-32.41-17.778-44.985a82 82 0 0 0-6.213-7.624M763.397 94.842h13.986a80.1 80.1 0 0 0-10.368-26.164 96 96 0 0 0-3.618 26.164M915.19 17.108q-2.716-1.96-5.578-3.734-1.3 1.355-2.573 2.758a134.96 134.96 0 0 0-30.428 57.907 192.3 192.3 0 0 0-8.583-30.98 146.7 146.7 0 0 1 24.554-38.035q-3.354-1.247-6.823-2.247a153.2 153.2 0 0 0-21.084 31.891 160.5 160.5 0 0 0-16.9-30.13 141 141 0 0 0-3.277-4.374 95 95 0 0 0-14.846 3.528c11.493 13.303 20.874 30.163 27.297 49.393a170 170 0 0 0-6.013 21.883c-4.525-20.634-12.662-39.574-23.973-55.32a119 119 0 0 0-9.127-11.24 95.4 95.4 0 0 0-12.265 7.037c18.17 18.395 31.045 46.734 34.685 79.398h14.392a173 173 0 0 1 5.662-30.461 191 191 0 0 1 5.349 30.461h13.902c4.108-35.723 19.317-59.772 32.392-74.288a119 119 0 0 1 3.237-3.447M933.238 34.05q-2.123-2.58-4.416-5.007c-14.766 15.125-27.108 37.062-30.962 65.8h6.677c3.941-27.896 16.062-46.853 26.531-58.466a97 97 0 0 1 2.17-2.326M922.937 94.842h6.71A86.7 86.7 0 0 1 946.85 56.14q-1.48-3.342-3.197-6.547c-9.62 11.236-17.484 26.325-20.717 45.25M954.157 79.356a69.7 69.7 0 0 0-5.912 15.484h7.258a90 90 0 0 0-1.346-15.485" class="cls-3" style="fill:#46beaa"/></g><path d="M385.364 76.679H349.3V2.776h-20.685v92.066h56.749zM541.7 88.125h-41.954V2.776h-7.483v92.066H541.7z" class="cls-3" style="fill:#46beaa" transform="translate(64 153.914)scale(.53584)"/><path d="M787.323 70.776h7.479v92.066h-7.479z" class="cls-3" style="fill:#46beaa" transform="translate(-62.995 117.477)scale(.53584)"/><path d="M678.75 9.493h43.736V2.776h-51.211v92.066h52.732v-6.717H678.75V50.961h40.695v-6.576H678.75zM640.585 94.842h13.159V2.776h-7.458v85.349h-1.52L591.435 2.776h-13.449v92.066h7.45V9.49h1.815zM22.706 94.842h31.713l11.406-56.074 12.284 56.074h32.356l20.173-92.066h-21.266L93.42 76.679h-1.543L76.708 5.302H55.185L41.631 76.679h-1.999L21.171 2.776H0z" class="cls-3" style="fill:#46beaa" transform="translate(64 153.914)scale(.53584)"/><g class="cls-2" clip-path="url(#a)" transform="translate(64 153.914)scale(.53584)"><path d="M454.567 61.042a23.77 23.77 0 0 1-14.312 14.25 33 33 0 0 1-11.733 1.956h-13.895V20.114h13.895a36.3 36.3 0 0 1 11.733 1.768 22.77 22.77 0 0 1 14.312 13.87c2.577 7.145 2.638 18.04 0 25.29m11.01-45.402C455.765 6.045 442.89 1.977 428.12 2.017h-34.178v93.329h34.178a57 57 0 0 0 21.817-3.847 44.12 44.12 0 0 0 25.036-25.032 48.4 48.4 0 0 0 3.092-19.299c-.018-11.797-4.028-23.163-12.487-31.528M180.27 78.529c-17.527 0-27.601-13.79-27.601-29.797 0-16.603 9.45-29.801 27.601-29.801 15.39 0 27.606 10.614 27.606 29.8 0 16.102-10.274 29.798-27.606 29.798m21.259-74.43c-11.769-5.469-30.984-5.461-42.691 0a45.8 45.8 0 0 0-24.72 26.107 51 51 0 0 0-3.088 19.737c.163 17.623 10.756 35.386 27.431 43.007 11.827 5.886 31.68 5.883 43.507 0 16.675-7.613 27.272-25.388 27.431-43.006a48.7 48.7 0 0 0-12.487-34.936A45.35 45.35 0 0 0 201.53 4.099M290.217 42.063c-2.718 4.757-7.338 7.022-12.988 6.996h-16.552V20.115h16.552c3.022 0 5.632.043 7.816 1.263a13.27 13.27 0 0 1 5.172 5.17c2.482 4.243 2.565 11.192 0 15.515m18.83 9.834c3.429-4.797 4.862-11.91 4.601-18.98q0-10.217-4.54-17.088C301.945 5.254 289.483 2.123 276.19 2.017h-36.198v92.825h20.685V66.337c.41-.004 15.223.01 15.666-.004l19.524 28.509h23.958l-23.512-32.965a27.58 27.58 0 0 0 12.734-9.98" class="cls-3" style="fill:#46beaa"/></g></svg>