<svg xmlns="http://www.w3.org/2000/svg" width="512" height="512" fill="none" viewBox="0 0 512 512"><title>Worldline icon white</title><defs><clipPath id="a"><path d="M0 0h955.502v97.364H0z" class="cls-1"/></clipPath></defs><g class="cls-2" clip-path="url(#a)" transform="translate(-2034.613 129.393)scale(2.66521)"><path d="M796.058 22.797a96 96 0 0 0-9.65 9.762c14.444 14.505 24.866 36.645 28.372 62.283h13.895c-2.798-22.594-10.553-43.453-22.521-60.088a99 99 0 0 0-10.096-11.957M779.128 42.235a95 95 0 0 0-7.08 12.777c8.27 10.31 14.356 24.133 17.129 39.832h13.942c-2.631-16.868-8.71-32.41-17.778-44.985a82 82 0 0 0-6.213-7.624M763.397 94.842h13.986a80.1 80.1 0 0 0-10.368-26.164 96 96 0 0 0-3.618 26.164M915.19 17.108q-2.716-1.96-5.578-3.734-1.3 1.355-2.573 2.758a134.96 134.96 0 0 0-30.428 57.907 192.3 192.3 0 0 0-8.583-30.98 146.7 146.7 0 0 1 24.554-38.035q-3.354-1.247-6.823-2.247a153.2 153.2 0 0 0-21.084 31.891 160.5 160.5 0 0 0-16.9-30.13 141 141 0 0 0-3.277-4.374 95 95 0 0 0-14.846 3.528c11.493 13.303 20.874 30.163 27.297 49.393a170 170 0 0 0-6.013 21.883c-4.525-20.634-12.662-39.574-23.973-55.32a119 119 0 0 0-9.127-11.24 95.4 95.4 0 0 0-12.265 7.037c18.17 18.395 31.045 46.734 34.685 79.398h14.392a173 173 0 0 1 5.662-30.461 191 191 0 0 1 5.349 30.461h13.902c4.108-35.723 19.317-59.772 32.392-74.288a119 119 0 0 1 3.237-3.447M933.238 34.05q-2.123-2.58-4.416-5.007c-14.766 15.125-27.108 37.062-30.962 65.8h6.677c3.941-27.896 16.062-46.853 26.531-58.466a97 97 0 0 1 2.17-2.326M922.937 94.842h6.71A86.7 86.7 0 0 1 946.85 56.14q-1.48-3.342-3.197-6.547c-9.62 11.236-17.484 26.325-20.717 45.25M954.157 79.356a69.7 69.7 0 0 0-5.912 15.484h7.258a90 90 0 0 0-1.346-15.485" class="cls-3" style="fill:#46beaa"/></g></svg>