<svg xmlns="http://www.w3.org/2000/svg" width="51" height="32"><g fill="none" fill-rule="evenodd"><path fill="#FFF" stroke="#D0D0D0" d="M.5.5h50v31H.5z"/><path fill="#FFF" d="M14.01 5.619v20.618h12.305c8.116 0 11.636-4.44 11.636-10.33 0-5.865-3.52-10.288-11.636-10.288H14.01z"/><path fill="#000" d="M26.318 7.14c8.777 0 10.087 5.525 10.087 8.818 0 5.714-3.582 8.86-10.087 8.86H15.56V7.14h10.758zm-9.91.83v16.017h9.91c5.985 0 9.24-2.737 9.24-8.029 0-5.438-3.528-7.988-9.24-7.988h-9.91z"/><path fill="#000" d="M17.737 22.681h3.172v-5.545h-3.172zM21.295 14.343c0 1.069-.883 1.936-1.972 1.936s-1.972-.867-1.972-1.936.883-1.936 1.972-1.936c1.09 0 1.972.867 1.972 1.936"/><path fill="#C06" d="M27.52 15.249v.897h-2.261v-3.602h2.188v.897h-1.274v.417h1.205v.897h-1.205v.494h1.347zm.439.898l1.107-3.605h1.3l1.106 3.605h-.951l-.208-.697h-1.195l-.208.697h-.951zm1.426-1.594h.661l-.302-1.019h-.055l-.304 1.02zm2.546-2.01h.914v2.706H34.2c-.372-4.91-4.306-5.971-7.881-5.971h-3.812v3.266h.564c1.03 0 1.668.685 1.668 1.787 0 1.136-.624 1.815-1.668 1.815h-.564v6.537h3.812c5.812 0 7.835-2.65 7.906-6.537h-2.294v-3.604zm-9.424.898v1.808h.564c.392 0 .754-.112.754-.918 0-.789-.403-.89-.754-.89h-.564z"/></g></svg>