<svg xmlns="http://www.w3.org/2000/svg" width="640" height="360"><g fill="none" fill-rule="evenodd"><path fill="#FFF" d="M125.168 11.308v335.046h199.946c131.897 0 189.088-72.163 189.088-167.856 0-95.314-57.19-167.19-189.088-167.19H125.168z"/><path fill="#000" d="M325.168 36.01c142.622 0 163.917 89.794 163.917 143.308 0 92.847-58.21 143.98-163.917 143.98H150.353V36.01h174.815zM164.115 49.52v260.263h161.053c97.254 0 150.159-44.477 150.159-130.464 0-88.364-57.347-129.8-150.159-129.8H164.115z"/><path fill="#000" d="M185.722 288.567h51.557v-90.112h-51.557zM243.538 153.066c0 17.376-14.342 31.464-32.041 31.464-17.69 0-32.046-14.088-32.046-31.464 0-17.364 14.356-31.459 32.046-31.459 17.7 0 32.04 14.095 32.04 31.459"/><path fill="#C06" d="M344.697 167.79v14.58h-36.74v-58.533h35.554v14.575H322.81v6.786h19.578v14.57H322.81v8.022h21.887zm7.132 14.598l17.986-58.574h21.127l17.98 58.574h-15.46l-3.37-11.331h-19.427l-3.38 11.33h-15.456zm23.177-25.9h10.743l-4.912-16.553h-.892l-4.94 16.553zm41.378-32.673h14.85v43.975h22.008c-6.035-79.792-69.97-97.03-128.062-97.03h-61.936v53.086h9.168c16.714 0 27.099 11.128 27.099 29.03 0 18.469-10.136 29.493-27.1 29.493h-9.167v106.224h61.936c94.454 0 127.323-43.066 128.483-106.224h-37.279v-58.554zm-153.153 14.608v29.367h9.18c6.362 0 12.237-1.806 12.237-14.914 0-12.811-6.539-14.453-12.236-14.453h-9.181z"/></g></svg>