<?xml version="1.0" encoding="UTF-8"?>
<svg width="51px" height="32px" viewBox="0 0 51 32" xmlns="http://www.w3.org/2000/svg" xmlns:xlink="http://www.w3.org/1999/xlink" version="1.1">
 <g id="group">
  <path id="Path" d="M0.5 0.5 L50.5 0.5 50.5 31.5 0.5 31.5 Z" fill="#ffffff" fill-opacity="1" stroke="#d0d0d0" stroke-width="1" stroke-opacity="1" stroke-linejoin="round"/>
  <g id="group-1">
   <path id="Path-1" d="M14.771 17.079 L17.777 17.075 17.667 17.759 15.153 20.16 17.263 20.156 17.14 20.894 14.033 20.896 14.163 20.133 16.573 17.825 14.65 17.825 Z" fill="#d13239" fill-opacity="1" stroke="none"/>
   <path id="Path-2" d="M11.482 15.908 C11.417 15.839 11.323 15.785 11.219 15.743 11.109 15.701 10.988 15.67 10.869 15.649 10.719 15.622 10.573 15.61 10.469 15.607 10.373 15.603 10.312 15.603 10.312 15.603 L8.997 15.603 8.019 15.603 7.142 20.896 7.961 20.896 8.284 18.935 9.872 18.943 C9.872 18.943 10.49 18.968 10.929 18.736 11.367 18.503 11.484 17.974 11.484 17.974 11.484 17.974 11.532 17.778 11.572 17.54 11.617 17.277 11.661 16.962 11.684 16.794 11.694 16.721 11.699 16.675 11.699 16.675 11.699 16.675 11.711 16.621 11.711 16.537 11.713 16.42 11.695 16.243 11.603 16.074 11.571 16.014 11.532 15.96 11.482 15.908 Z M10.852 16.842 C10.852 16.852 10.779 17.277 10.683 17.78 10.646 17.973 10.498 18.076 10.329 18.113 10.048 18.172 9.747 18.161 9.747 18.161 L8.42 18.157 8.713 16.398 9.914 16.402 C9.914 16.402 9.995 16.4 10.108 16.402 10.237 16.404 10.408 16.41 10.548 16.429 10.669 16.445 10.765 16.47 10.796 16.508 10.836 16.558 10.852 16.623 10.857 16.681 10.865 16.766 10.852 16.837 10.852 16.842 Z" fill="#d13239" fill-opacity="1" stroke="none"/>
   <path id="Path-3" d="M21.853 15.603 L22.641 15.603 21.759 20.896 20.969 20.894 Z" fill="#d13239" fill-opacity="1" stroke="none"/>
   <path id="Path-4" d="M26.058 17.079 L26.814 17.077 27.081 19.764 28.244 17.073 29.176 17.075 29.451 19.773 30.611 17.077 31.396 17.077 29.731 20.892 28.801 20.892 28.532 18.22 27.357 20.892 26.443 20.896 Z" fill="#d13239" fill-opacity="1" stroke="none"/>
   <g id="group-2">
    <path id="Path-5" d="M20.398 17.11 C20.177 17.038 19.795 17.023 19.47 17.027 19.157 17.031 19.012 17.046 18.895 17.071 18.895 17.071 18.338 17.152 18.021 17.544 17.704 17.936 17.609 18.793 17.609 18.793 17.609 18.793 17.421 19.741 17.477 20.058 17.532 20.373 17.63 20.667 17.988 20.804 18.345 20.942 18.649 20.934 18.649 20.934 18.649 20.934 19.287 20.984 19.768 20.871 20.248 20.757 20.502 20.419 20.502 20.419 20.502 20.419 20.615 20.273 20.696 20.1 20.777 19.927 20.802 19.806 20.806 19.791 L20.856 19.585 20.039 19.587 C20.039 19.587 19.994 20.127 19.552 20.177 19.112 20.227 18.876 20.208 18.789 20.204 18.705 20.2 18.232 20.221 18.27 19.825 18.27 19.82 18.27 19.812 18.272 19.8 18.294 19.351 18.344 19.233 18.344 19.233 L20.909 19.226 21.019 18.591 C21.146 17.873 21.055 17.325 20.398 17.11 Z M20.227 18.501 L18.468 18.499 18.538 18.22 C18.538 18.22 18.599 18.001 18.72 17.909 18.843 17.817 18.999 17.8 19.145 17.786 19.291 17.773 19.681 17.744 19.998 17.809 20.104 17.83 20.204 17.89 20.231 17.978 20.292 18.186 20.227 18.501 20.227 18.501 Z" fill="#d13239" fill-opacity="1" stroke="none"/>
    <path id="Path-6" d="M18.276 19.808 C18.276 19.814 18.274 19.82 18.274 19.825 18.272 19.856 18.276 19.806 18.276 19.808 Z" fill="#d13239" fill-opacity="1" stroke="none"/>
   </g>
   <g id="group-3">
    <path id="Path-7" d="M23.116 19.81 C23.116 19.816 23.114 19.821 23.114 19.827 23.114 19.858 23.116 19.808 23.116 19.81 Z" fill="#d13239" fill-opacity="1" stroke="none"/>
    <path id="Path-8" d="M25.24 17.112 C25.018 17.04 24.636 17.025 24.311 17.029 23.998 17.033 23.854 17.048 23.737 17.073 23.737 17.073 23.179 17.154 22.862 17.546 22.545 17.938 22.451 18.795 22.451 18.795 22.451 18.795 22.262 19.743 22.318 20.06 22.374 20.375 22.472 20.669 22.829 20.806 23.187 20.944 23.491 20.936 23.491 20.936 23.491 20.936 24.129 20.986 24.609 20.873 25.09 20.759 25.343 20.421 25.343 20.421 25.343 20.421 25.457 20.275 25.537 20.102 25.618 19.929 25.643 19.808 25.647 19.793 L25.697 19.587 24.88 19.589 C24.88 19.589 24.836 20.129 24.394 20.179 23.954 20.229 23.717 20.21 23.631 20.208 23.546 20.204 23.073 20.223 23.112 19.829 23.112 19.823 23.112 19.816 23.114 19.804 23.135 19.354 23.185 19.237 23.185 19.237 L25.751 19.23 25.86 18.595 C25.987 17.875 25.897 17.325 25.24 17.112 Z M25.061 18.501 L23.302 18.499 23.371 18.22 C23.371 18.22 23.433 18.001 23.554 17.909 23.675 17.817 23.833 17.8 23.979 17.786 24.125 17.773 24.515 17.744 24.832 17.809 24.938 17.83 25.038 17.89 25.065 17.978 25.126 18.184 25.061 18.501 25.061 18.501 Z" fill="#d13239" fill-opacity="1" stroke="none"/>
   </g>
   <path id="Path-9" d="M32.303 17.079 L32.808 19.87 34.236 17.077 35.04 17.085 32.981 21.073 C32.981 21.073 32.608 21.795 32.378 21.978 32.147 22.161 32.005 22.243 31.816 22.262 31.628 22.282 31.551 22.295 31.371 22.262 L31.178 22.228 31.298 21.515 C31.298 21.515 31.617 21.574 31.805 21.499 31.995 21.424 32.147 21.102 32.147 21.102 L32.243 20.94 31.499 17.077 Z" fill="#d13239" fill-opacity="1" stroke="none"/>
   <path id="Path-10" d="M35.332 17.457 L36.16 17.459 36.21 17.138 C36.21 17.138 36.298 16.558 36.496 16.447 36.56 16.41 36.662 16.377 36.779 16.356 36.996 16.318 37.271 16.314 37.496 16.322 37.84 16.333 37.971 16.337 38.32 16.377 38.67 16.418 38.582 16.756 38.582 16.756 L38.513 17.261 C38.513 17.261 38.482 17.488 38.401 17.629 38.33 17.753 38.134 17.838 38.021 17.875 37.748 17.963 36.814 18.201 36.814 18.201 L36.079 18.413 C36.079 18.413 35.628 18.543 35.376 18.822 35.122 19.103 35.022 19.42 34.988 19.585 34.953 19.75 34.759 20.894 34.759 20.894 L38.722 20.896 38.855 20.104 35.72 20.108 35.776 19.785 C35.776 19.785 35.812 19.452 35.947 19.343 35.989 19.308 36.01 19.262 36.26 19.174 36.41 19.12 36.921 18.984 36.921 18.984 L38.103 18.661 C38.103 18.661 38.749 18.495 39.003 18.142 39.256 17.79 39.354 17.115 39.354 17.115 39.354 17.115 39.424 16.46 39.37 16.254 39.318 16.049 39.124 15.803 38.887 15.697 38.651 15.591 38.405 15.53 37.692 15.539 36.979 15.549 36.625 15.582 36.264 15.716 35.903 15.849 35.693 16.091 35.56 16.433 35.416 16.758 35.332 17.457 35.332 17.457 Z" fill="#b3b2b1" fill-opacity="1" stroke="none"/>
   <path id="Path-11" d="M42.793 18.93 L43.348 15.601 42.364 15.601 39.301 18.891 39.162 19.725 41.841 19.725 41.645 20.894 42.468 20.896 42.662 19.725 43.421 19.727 43.558 18.93 Z M41.974 18.932 L40.242 18.93 42.351 16.683 Z" fill="#b3b2b1" fill-opacity="1" stroke="none"/>
   <path id="Path-12" d="M13.22 16.039 L15.743 16.039 C15.743 16.039 16.308 15.582 16.71 15.288 17.112 14.994 17.842 14.53 17.842 14.53 L16.416 13.863 C16.416 13.863 15.211 14.609 14.699 14.961 14.204 15.286 13.22 16.039 13.22 16.039 Z" fill="#b3b2b1" fill-opacity="1" stroke="none"/>
   <path id="Path-13" d="M18.643 14.059 L17.473 13.271 C17.473 13.271 18.532 12.67 19.941 12.109 21.348 11.547 22.099 11.313 22.099 11.313 L22.337 12.43 C22.337 12.43 20.982 12.883 20.206 13.25 19.403 13.592 18.643 14.059 18.643 14.059 Z" fill="#b3b2b1" fill-opacity="1" stroke="none"/>
   <path id="Path-14" d="M23.202 12.186 L22.998 11.042 C22.998 11.042 24.444 10.658 25.766 10.412 27.09 10.166 28.845 10.048 28.845 10.048 L28.265 11.815 C28.265 11.815 26.721 11.603 25.272 11.801 24.144 11.936 23.202 12.186 23.202 12.186 Z" fill="#b3b2b1" fill-opacity="1" stroke="none"/>
   <path id="Path-15" d="M29.183 11.965 L30.16 10.002 C30.16 10.002 32.299 9.96 34.144 10.246 35.989 10.531 37.676 10.969 37.64 10.988 L32.962 13.435 C32.962 13.435 31.868 12.743 30.511 12.318 29.743 12.091 29.183 11.965 29.183 11.965 Z" fill="#b3b2b1" fill-opacity="1" stroke="none"/>
   <path id="Path-16" d="M33.8 13.967 L34.828 14.748 43.279 14.748 C43.279 14.748 43.262 14.475 43.037 14.086 42.897 13.844 42.641 13.587 42.374 13.319 42.276 13.223 41.888 12.92 41.595 12.729 40.85 12.245 40.433 12.059 39.658 11.707 Z" fill="#b3b2b1" fill-opacity="1" stroke="none"/>
   <path id="Path-17" d="M13.767 17.075 C13.45 17.075 13.15 17.2 12.895 17.34 L12.939 17.075 12.099 17.075 11.426 20.875 12.268 20.875 12.641 18.77 C12.718 18.343 13.037 17.815 13.66 17.815 L14.094 17.813 14.225 17.075 Z" fill="#d13239" fill-opacity="1" stroke="none"/>
  </g>
 </g>
</svg>
