<?xml version="1.0" encoding="UTF-8"?>
<svg width="640px" height="360px" viewBox="0 0 640 360" xmlns="http://www.w3.org/2000/svg" xmlns:xlink="http://www.w3.org/1999/xlink" version="1.1">
 <g id="-copy">
  <path id="Path" d="M170.854 193.285 L213.439 193.231 211.887 202.924 176.273 236.932 206.169 236.878 204.427 247.333 160.399 247.361 162.25 236.551 196.394 203.85 169.139 203.85 Z" fill="#d13239" fill-opacity="1" stroke="none"/>
  <path id="Path-1" d="M124.267 176.703 C123.341 175.723 122.007 174.961 120.536 174.362 118.984 173.763 117.269 173.327 115.581 173.028 113.457 172.646 111.388 172.483 109.917 172.429 108.556 172.374 107.685 172.374 107.685 172.374 L89.061 172.374 75.202 172.374 62.785 247.361 74.385 247.361 78.959 219.588 101.45 219.697 C101.45 219.697 110.217 220.051 116.425 216.756 122.633 213.461 124.294 205.974 124.294 205.974 124.294 205.974 124.975 203.196 125.546 199.82 126.173 196.09 126.799 191.624 127.126 189.256 127.262 188.221 127.344 187.567 127.344 187.567 127.344 187.567 127.507 186.805 127.507 185.607 127.534 183.946 127.289 181.441 125.982 179.045 125.519 178.201 124.975 177.439 124.267 176.703 Z M115.336 189.936 C115.336 190.072 114.301 196.09 112.94 203.224 112.422 205.946 110.326 207.417 107.93 207.934 103.954 208.778 99.68 208.615 99.68 208.615 L80.892 208.56 85.031 183.647 102.049 183.701 C102.049 183.701 103.192 183.674 104.799 183.701 106.623 183.728 109.046 183.81 111.034 184.082 112.749 184.3 114.111 184.654 114.546 185.199 115.118 185.907 115.336 186.832 115.418 187.649 115.526 188.847 115.336 189.855 115.336 189.936 Z" fill="#d13239" fill-opacity="1" stroke="none"/>
  <path id="Path-2" d="M271.19 172.374 L282.354 172.374 269.856 247.361 258.665 247.333 Z" fill="#d13239" fill-opacity="1" stroke="none"/>
  <path id="Path-3" d="M330.765 193.285 L341.466 193.258 345.251 231.323 361.724 193.204 374.93 193.231 378.823 231.459 395.269 193.258 406.378 193.258 382.799 247.306 369.62 247.306 365.808 209.459 349.172 247.306 336.211 247.361 Z" fill="#d13239" fill-opacity="1" stroke="none"/>
  <g id="group">
   <path id="Path-4" d="M250.578 193.721 C247.447 192.714 242.029 192.496 237.427 192.55 232.989 192.605 230.947 192.822 229.286 193.176 229.286 193.176 221.39 194.32 216.897 199.875 212.404 205.429 211.07 217.573 211.07 217.573 211.07 217.573 208.402 230.996 209.192 235.489 209.981 239.954 211.37 244.12 216.434 246.054 221.499 248.014 225.801 247.905 225.801 247.905 225.801 247.905 234.84 248.613 241.648 247.007 248.455 245.4 252.049 240.608 252.049 240.608 252.049 240.608 253.655 238.539 254.799 236.088 255.942 233.638 256.296 231.922 256.351 231.704 L257.059 228.791 245.487 228.818 C245.487 228.818 244.86 236.469 238.598 237.177 232.363 237.885 229.014 237.613 227.788 237.558 226.59 237.504 219.892 237.803 220.437 232.194 220.437 232.113 220.437 232.004 220.464 231.84 220.763 225.469 221.471 223.808 221.471 223.808 L257.821 223.699 259.373 214.714 C261.17 204.531 259.89 196.771 250.578 193.721 Z M248.155 213.434 L223.241 213.407 224.221 209.459 C224.221 209.459 225.093 206.355 226.808 205.048 228.551 203.741 230.756 203.496 232.826 203.305 234.895 203.115 240.422 202.706 244.915 203.632 246.412 203.932 247.828 204.776 248.21 206.028 249.081 208.969 248.155 213.434 248.155 213.434 Z" fill="#d13239" fill-opacity="1" stroke="none"/>
   <path id="Path-5" d="M220.518 231.949 C220.518 232.031 220.491 232.113 220.491 232.194 220.464 232.63 220.518 231.922 220.518 231.949 Z" fill="#d13239" fill-opacity="1" stroke="none"/>
  </g>
  <g id="group-1">
   <path id="Path-6" d="M289.079 231.977 C289.079 232.058 289.052 232.14 289.052 232.222 289.052 232.657 289.079 231.949 289.079 231.977 Z" fill="#d13239" fill-opacity="1" stroke="none"/>
   <path id="Path-7" d="M319.166 193.748 C316.035 192.741 310.617 192.523 306.015 192.577 301.577 192.632 299.535 192.85 297.874 193.204 297.874 193.204 289.978 194.347 285.485 199.902 280.992 205.456 279.658 217.6 279.658 217.6 279.658 217.6 276.99 231.024 277.779 235.516 278.569 239.982 279.958 244.148 285.022 246.081 290.086 248.041 294.389 247.932 294.389 247.932 294.389 247.932 303.428 248.64 310.235 247.034 317.042 245.427 320.637 240.635 320.637 240.635 320.637 240.635 322.243 238.566 323.387 236.115 324.53 233.665 324.884 231.949 324.939 231.732 L325.647 228.818 314.075 228.845 C314.075 228.845 313.448 236.497 307.186 237.204 300.951 237.912 297.601 237.64 296.376 237.613 295.178 237.558 288.48 237.831 289.025 232.249 289.025 232.167 289.025 232.058 289.052 231.895 289.351 225.524 290.059 223.863 290.059 223.863 L326.409 223.754 327.961 214.768 C329.758 204.558 328.478 196.771 319.166 193.748 Z M316.634 213.434 L291.72 213.407 292.7 209.459 C292.7 209.459 293.572 206.355 295.287 205.048 297.002 203.741 299.235 203.496 301.305 203.305 303.374 203.115 308.901 202.706 313.394 203.632 314.891 203.932 316.307 204.776 316.688 206.028 317.56 208.942 316.634 213.434 316.634 213.434 Z" fill="#d13239" fill-opacity="1" stroke="none"/>
  </g>
  <path id="Path-8" d="M419.23 193.285 L426.391 232.821 446.621 193.258 458.003 193.367 428.841 249.866 C428.841 249.866 423.559 260.103 420.292 262.69 417.024 265.277 415.009 266.448 412.341 266.72 409.673 266.992 408.584 267.183 406.024 266.72 L403.301 266.23 404.99 256.128 C404.99 256.128 409.509 256.972 412.178 255.91 414.873 254.848 417.024 250.274 417.024 250.274 L418.386 247.987 407.848 193.258 Z" fill="#d13239" fill-opacity="1" stroke="none"/>
  <path id="Path-9" d="M462.142 198.649 L473.877 198.677 474.585 194.129 C474.585 194.129 475.837 185.907 478.642 184.327 479.54 183.81 480.983 183.347 482.644 183.048 485.721 182.503 489.615 182.449 492.8 182.557 497.674 182.721 499.526 182.775 504.481 183.347 509.437 183.919 508.184 188.711 508.184 188.711 L507.204 195.872 C507.204 195.872 506.769 199.085 505.625 201.073 504.617 202.842 501.84 204.041 500.234 204.558 496.367 205.81 483.134 209.187 483.134 209.187 L472.733 212.182 C472.733 212.182 466.335 214.033 462.768 217.981 459.174 221.957 457.758 226.449 457.268 228.791 456.778 231.133 454.027 247.333 454.027 247.333 L510.172 247.361 512.051 236.143 467.642 236.197 468.431 231.623 C468.431 231.623 468.949 226.912 470.855 225.36 471.454 224.87 471.753 224.217 475.293 222.964 477.417 222.202 484.659 220.269 484.659 220.269 L501.405 215.694 C501.405 215.694 510.553 213.353 514.147 208.343 517.741 203.36 519.13 193.803 519.13 193.803 519.13 193.803 520.11 184.518 519.348 181.604 518.613 178.691 515.863 175.206 512.514 173.708 509.165 172.211 505.679 171.339 495.578 171.476 485.476 171.612 480.466 172.075 475.347 173.981 470.228 175.859 467.26 179.29 465.382 184.137 463.34 188.738 462.142 198.649 462.142 198.649 Z" fill="#b3b2b1" fill-opacity="1" stroke="none"/>
  <path id="Path-10" d="M567.841 219.506 L575.71 172.347 561.769 172.347 518.368 218.962 516.407 230.779 554.363 230.779 551.586 247.333 563.24 247.361 565.99 230.779 576.745 230.806 578.678 219.506 Z M556.242 219.533 L531.71 219.506 561.579 187.676 Z" fill="#b3b2b1" fill-opacity="1" stroke="none"/>
  <path id="Path-11" d="M148.881 178.555 L184.632 178.555 C184.632 178.555 192.637 172.075 198.327 167.909 204.018 163.743 214.365 157.181 214.365 157.181 L194.162 147.733 C194.162 147.733 177.089 158.297 169.847 163.28 162.822 167.881 148.881 178.555 148.881 178.555 Z" fill="#b3b2b1" fill-opacity="1" stroke="none"/>
  <path id="Path-12" d="M225.719 150.51 L209.137 139.346 C209.137 139.346 224.14 130.824 244.098 122.873 264.029 114.923 274.675 111.601 274.675 111.601 L278.052 127.42 C278.052 127.42 258.856 133.846 247.856 139.047 236.474 143.893 225.719 150.51 225.719 150.51 Z" fill="#b3b2b1" fill-opacity="1" stroke="none"/>
  <path id="Path-13" d="M290.304 123.962 L287.418 107.762 C287.418 107.762 307.894 102.316 326.627 98.831 345.387 95.346 370.246 93.685 370.246 93.685 L362.023 118.707 C362.023 118.707 340.159 115.712 319.629 118.517 303.646 120.423 290.304 123.962 290.304 123.962 Z" fill="#b3b2b1" fill-opacity="1" stroke="none"/>
  <path id="Path-14" d="M375.038 120.831 L388.87 93.031 C388.87 93.031 419.175 92.432 445.314 96.489 471.454 100.519 495.36 106.727 494.843 106.999 L428.569 141.661 C428.569 141.661 413.076 131.859 393.853 125.841 382.962 122.628 375.038 120.831 375.038 120.831 Z" fill="#b3b2b1" fill-opacity="1" stroke="none"/>
  <path id="Path-15" d="M440.441 149.203 L455.008 160.258 574.73 160.258 C574.73 160.258 574.485 156.391 571.299 150.891 569.312 147.46 565.69 143.812 561.906 140.027 560.517 138.666 555.017 134.364 550.878 131.668 540.314 124.806 534.405 122.165 523.432 117.183 Z" fill="#b3b2b1" fill-opacity="1" stroke="none"/>
  <path id="Path-16" d="M156.641 193.231 C152.148 193.231 147.901 195.001 144.279 196.988 L144.906 193.231 133.007 193.231 123.477 247.061 135.403 247.061 140.685 217.246 C141.774 211.202 146.294 203.714 155.116 203.714 L161.27 203.687 163.121 193.231 Z" fill="#d13239" fill-opacity="1" stroke="none"/>
 </g>
</svg>
