<svg width="40" height="40" viewBox="0 0 40 40" fill="none" xmlns="http://www.w3.org/2000/svg">
<rect width="40" height="40" fill="white"/>
<path d="M28.6303 23.2957C29.0667 23.7325 29.4238 24.2068 29.6763 24.7171C30.4806 26.3443 30.1852 28.1397 28.5806 29.7041C26.7411 31.4969 23.6125 32.6004 19.9791 32.599C16.3457 32.5977 13.2172 31.4929 11.379 29.6974C9.77576 28.1317 9.48036 26.3362 10.286 24.7091C10.5384 24.1988 10.8916 23.7272 11.3293 23.2863C10.8164 23.7793 10.4109 24.2161 10.043 24.9496C9.25747 26.5139 9.50721 28.7476 11.1655 30.368C13.0493 32.2089 15.9966 33.3191 20.0087 33.3204C24.0328 33.3217 26.9801 32.1809 28.7874 30.3747C30.5598 28.6033 30.6283 26.2988 29.9019 24.9068C29.5997 24.3297 29.1929 23.798 28.6303 23.2957Z" fill="#FF6600"/>
<g opacity="0.85">
<path d="M28.6303 23.2957C29.0667 23.7325 29.4238 24.2068 29.6763 24.7171C30.4806 26.3443 30.1852 28.1397 28.5806 29.7041C26.7411 31.4969 23.6125 32.6004 19.9791 32.599C16.3457 32.5977 13.2172 31.4929 11.379 29.6974C9.77576 28.1317 9.48036 26.3362 10.286 24.7091C10.5384 24.1988 10.8916 23.7272 11.3293 23.2863C10.8164 23.7793 10.4109 24.2161 10.043 24.9496C9.25747 26.5139 9.50721 28.7476 11.1655 30.368C13.0493 32.2089 15.9966 33.3191 20.0087 33.3204C24.0328 33.3217 26.9801 32.1809 28.7874 30.3747C30.5598 28.6033 30.6283 26.2988 29.9019 24.9068C29.5997 24.3297 29.1929 23.798 28.6303 23.2957Z" fill="url(#paint0_linear_373_17446)"/>
</g>
<path d="M25.6803 21.4121C23.9778 20.7094 21.9946 20.3473 19.9818 20.346C17.9691 20.346 15.9859 20.7054 14.2819 21.408C12.4182 22.1762 10.9762 23.3171 10.2847 24.7118C9.47902 26.3389 9.77442 28.1344 11.3776 29.7001C13.2158 31.4942 16.3444 32.599 19.9778 32.6017C23.6112 32.603 26.7397 31.4996 28.5793 29.7068C30.1838 28.1424 30.4792 26.3469 29.6749 24.7198C28.9848 23.3224 27.544 22.1815 25.6803 21.4121Z" fill="#FF6600"/>
<path d="M20.3202 22.1936C19.9845 21.5096 20.053 20.8897 20.1228 20.346C20.0758 20.346 20.0288 20.3447 19.9831 20.3447C17.9691 20.346 15.9859 20.7067 14.2833 21.4081C12.4196 22.1762 10.9775 23.3171 10.286 24.7118C9.48036 26.3389 9.77576 28.1344 11.379 29.7001C11.4918 29.8096 11.6086 29.9165 11.7308 30.022C18.4981 29.6306 22.0348 25.6923 20.3202 22.1936Z" fill="url(#paint1_linear_373_17446)"/>
<path fill-rule="evenodd" clip-rule="evenodd" d="M15.6233 22.3085C16.8815 22.6264 18.0765 23.0058 19.293 23.4533C19.5333 22.7333 19.7898 22.0186 20.0825 21.3185C20.3739 22.0199 20.6303 22.7333 20.8707 23.4533C22.0872 23.0071 23.2607 22.6451 24.5189 22.3272C23.634 22.8789 22.8526 23.4493 22.0321 24.0906C23.6944 24.3016 25.2507 24.5768 26.8874 24.9295C25.2547 24.8935 23.7186 24.9509 22.0899 25.0538C23.2393 26.0223 24.2221 26.9615 25.2909 28.0168C23.8274 27.1845 22.4524 26.4845 20.9271 25.7671C20.6303 27.0363 20.3511 28.3094 20.0812 29.5839C19.8126 28.3094 19.5656 27.0964 19.2688 25.8273C17.7435 26.5433 16.3551 27.226 14.8419 28.0235C15.9107 26.9695 16.9244 26.0557 18.0751 25.0872C16.4437 24.9816 14.8808 24.9589 13.2131 24.9349C14.8499 24.5835 16.4679 24.3097 18.1302 24.0986C17.3098 23.4573 16.5055 22.8615 15.6233 22.3085ZM20.0812 24.5301C20.0812 23.5949 20.0812 22.6598 20.0812 21.726C19.7952 22.5048 19.5427 23.297 19.3051 24.0919C19.5656 24.2348 19.8247 24.3805 20.0812 24.5301ZM16.3565 22.6171C17.3635 23.0606 18.345 23.5575 19.3051 24.0906C19.0661 24.1146 18.8271 24.14 18.5881 24.1667C17.8657 23.6217 17.1231 23.1007 16.3565 22.6171ZM20.0812 24.5301C22.0227 24.5354 23.9603 24.6303 25.8925 24.824C24.198 24.5194 22.5518 24.2856 20.8519 24.0879C20.5927 24.2322 20.3363 24.3805 20.0812 24.5301ZM23.8059 22.6197C22.7975 23.0606 21.8146 23.5562 20.8519 24.0879C20.813 23.957 20.774 23.8261 20.7337 23.6951C21.7435 23.2957 22.7653 22.9323 23.8059 22.6197ZM19.9791 24.5301C20.0194 25.8847 20.0691 27.3208 20.0812 28.6313C20.3349 27.4183 20.5981 26.208 20.8801 25.0017C20.6142 24.8427 20.2463 24.6851 19.9791 24.5301ZM24.3577 27.3235C23.2258 26.5099 22.0684 25.7324 20.8787 25.003C21.1218 24.9843 21.3648 24.9656 21.6078 24.9496C22.5531 25.7097 23.4662 26.5032 24.3577 27.3235ZM20.0812 24.5301C18.1275 24.5568 16.6022 24.6436 14.6982 24.8066C16.343 24.812 17.62 24.8748 19.2903 25.007C19.5521 24.844 19.8167 24.6864 20.0812 24.5301ZM15.8059 27.3221C16.9405 26.5099 18.0993 25.7337 19.2903 25.0057C19.3252 25.1566 19.3601 25.3076 19.3937 25.4585C18.1772 26.0397 16.9822 26.6635 15.8059 27.3221Z" fill="white"/>
<path fill-rule="evenodd" clip-rule="evenodd" d="M20.2705 32.2276C20.2141 32.2704 20.1349 32.3131 20.0785 32.3545C20.0208 32.3118 19.9415 32.269 19.8838 32.2276C19.8852 31.7026 19.8825 31.1776 19.8838 30.6526C19.9402 30.6138 20.0221 30.5751 20.0798 30.5364C20.1362 30.5751 20.2128 30.6138 20.2692 30.6526C20.2692 31.1776 20.2705 31.7026 20.2705 32.2276Z" fill="white"/>
<path fill-rule="evenodd" clip-rule="evenodd" d="M10.8715 28.4136C10.8406 28.4724 10.8097 28.5325 10.7788 28.5913C10.8365 28.614 10.948 28.6487 10.9977 28.6688C11.5509 28.3749 12.0987 28.0823 12.6425 27.7991C12.664 27.7162 12.6761 27.6695 12.6989 27.608C12.6425 27.5933 12.5875 27.5786 12.5311 27.5639C11.9765 27.8378 11.422 28.1224 10.8715 28.4136Z" fill="white"/>
<path fill-rule="evenodd" clip-rule="evenodd" d="M10.4646 25.1807C10.4136 25.2208 10.3639 25.2608 10.3129 25.3022C10.3411 25.3383 10.3719 25.3811 10.3961 25.4171C10.9131 25.3437 11.4314 25.2809 11.9496 25.2288C11.998 25.182 12.0557 25.1272 12.1027 25.0832C12.0718 25.0524 12.0423 25.0217 12.0114 24.991C11.4958 25.0431 10.9802 25.1059 10.4646 25.1807Z" fill="white"/>
<path fill-rule="evenodd" clip-rule="evenodd" d="M12.4518 22.573C12.3994 22.5957 12.347 22.6171 12.2947 22.6398C12.3 22.6705 12.3054 22.7279 12.3094 22.7587C12.6908 22.8121 13.0708 22.8762 13.4508 22.9497C13.4991 22.9216 13.5649 22.8829 13.6119 22.8575C13.6052 22.8241 13.5985 22.7921 13.5917 22.7587C13.2131 22.6865 12.8331 22.6251 12.4518 22.573Z" fill="white"/>
<path fill-rule="evenodd" clip-rule="evenodd" d="M24.1 20.9699C24.1483 20.9699 24.1966 20.9712 24.245 20.9712C24.2651 20.9899 24.2839 21.0099 24.3027 21.0286C24.1026 21.1542 23.9066 21.2851 23.7146 21.4201C23.6636 21.4201 23.6125 21.4214 23.5629 21.4214C23.5441 21.4 23.5253 21.3787 23.5065 21.3586C23.6998 21.225 23.8985 21.0941 24.1 20.9699Z" fill="white"/>
<path fill-rule="evenodd" clip-rule="evenodd" d="M19.9469 20.4221C19.9832 20.4115 20.0194 20.3994 20.0557 20.3887C20.0933 20.3994 20.1295 20.4115 20.1671 20.4221C20.1684 20.5771 20.1698 20.7307 20.1711 20.8857C20.1322 20.8991 20.0946 20.9111 20.0557 20.9245C20.0181 20.9111 19.9805 20.8991 19.9429 20.8857C19.9442 20.7307 19.9456 20.5758 19.9469 20.4221Z" fill="white"/>
<path fill-rule="evenodd" clip-rule="evenodd" d="M15.7764 21.0353C15.7952 21.0166 15.8368 20.9832 15.8556 20.9645C15.9039 20.9645 15.9536 20.9632 16.0019 20.9632C16.2034 21.0874 16.4007 21.2184 16.5954 21.3519C16.5766 21.3733 16.5565 21.3947 16.5377 21.4161C16.488 21.4147 16.4142 21.4294 16.3645 21.4281C16.1725 21.2918 15.9764 21.1609 15.7764 21.0353Z" fill="white"/>
<path fill-rule="evenodd" clip-rule="evenodd" d="M14.5599 31.2631C14.482 31.2818 14.3813 31.2818 14.3035 31.3005C14.286 31.2457 14.2471 31.191 14.231 31.1349C14.6177 30.6753 15.0097 30.2198 15.4058 29.7669C15.4824 29.7509 15.5817 29.7335 15.6596 29.7175C15.6771 29.7642 15.7133 29.8457 15.7335 29.8898C15.3374 30.3453 14.9453 30.8022 14.5599 31.2631Z" fill="white"/>
<path fill-rule="evenodd" clip-rule="evenodd" d="M29.1594 28.4203C29.1902 28.4791 29.2211 28.5392 29.252 28.5979C29.1943 28.6207 29.0828 28.6554 29.0331 28.6754C28.4799 28.3815 27.9321 28.0876 27.3883 27.8044C27.3668 27.7216 27.3547 27.6748 27.3319 27.6134C27.3883 27.5987 27.4434 27.584 27.4997 27.5693C28.0543 27.8445 28.6088 28.1277 29.1594 28.4203Z" fill="white"/>
<path fill-rule="evenodd" clip-rule="evenodd" d="M29.5689 25.1874C29.6186 25.2274 29.6696 25.2675 29.7206 25.3089C29.6924 25.345 29.6616 25.3877 29.636 25.4238C29.1191 25.3503 28.6008 25.2862 28.0839 25.2341C28.0355 25.1874 27.9778 25.1326 27.9321 25.0885C27.963 25.0578 27.9926 25.027 28.0234 24.9963C28.5377 25.0498 29.0533 25.1125 29.5689 25.1874Z" fill="white"/>
<path fill-rule="evenodd" clip-rule="evenodd" d="M27.583 22.5783C27.6353 22.601 27.6877 22.6224 27.7401 22.6451C27.736 22.6758 27.7293 22.7333 27.7253 22.764C27.344 22.8174 26.964 22.8816 26.584 22.955C26.5356 22.927 26.4685 22.8882 26.4229 22.8629C26.4296 22.8295 26.4363 22.7974 26.443 22.764C26.8216 22.6919 27.2016 22.6291 27.583 22.5783Z" fill="white"/>
<path fill-rule="evenodd" clip-rule="evenodd" d="M25.4696 31.2671C25.5327 31.2765 25.6468 31.2925 25.726 31.3045C25.7515 31.2511 25.7757 31.1963 25.7985 31.1389C25.4118 30.6793 25.0211 30.2224 24.6236 29.7696C24.5471 29.7535 24.4477 29.7362 24.3699 29.7201C24.3524 29.7669 24.3162 29.8484 24.296 29.8925C24.6921 30.348 25.0829 30.8062 25.4696 31.2671Z" fill="white"/>
<path fill-rule="evenodd" clip-rule="evenodd" d="M19.2917 23.5001C18.1154 23.0673 16.962 22.7012 15.7482 22.3886C15.7066 22.3619 15.665 22.3352 15.6233 22.3085C16.8815 22.6264 18.0765 23.0058 19.293 23.4533C19.5334 22.7333 19.7898 22.0186 20.0825 21.3185C20.3739 22.0199 20.6304 22.7333 20.8707 23.4533C22.0872 23.0071 23.2608 22.6451 24.5189 22.3272C24.4773 22.3539 24.4356 22.3806 24.3927 22.4073C23.1775 22.7186 22.0456 23.0686 20.8694 23.5001C20.629 22.7814 20.3739 22.0667 20.0812 21.3653C19.7898 22.0653 19.5334 22.78 19.2917 23.5001ZM18.0698 25.0858C16.9379 26.041 15.8946 26.9842 14.8419 28.0222C14.8795 28.0008 14.9721 27.9487 15.0097 27.9273C16.0436 26.912 16.9607 26.0904 18.0698 25.1566V25.0858ZM20.0812 24.5301C20.0812 24.5461 20.0812 24.5622 20.0812 24.5768C20.0812 24.5608 20.0812 24.5461 20.0812 24.5301ZM20.0409 24.5541C20.0275 24.5622 20.014 24.5702 20.002 24.5782C19.763 24.7185 19.5266 24.8614 19.2903 25.007L19.3011 25.0538C19.5602 24.8948 19.8194 24.7425 20.0812 24.5875V24.5314C20.0678 24.5381 20.0543 24.5461 20.0409 24.5541ZM19.3051 24.0906C19.2809 24.0932 19.2568 24.0959 19.2326 24.0973C19.0177 24.1186 18.8029 24.1413 18.5881 24.1654C17.8643 23.6203 17.1232 23.0993 16.3551 22.6157V22.6718C17.1232 23.1554 17.8643 23.6764 18.5881 24.2215C18.8271 24.1948 19.0661 24.1694 19.3051 24.1453C19.5374 24.2736 19.7576 24.3952 19.9872 24.5274C20.014 24.5274 20.0543 24.5274 20.0812 24.5274C19.8288 24.3831 19.5616 24.2322 19.3051 24.0906ZM15.806 27.3876C16.9822 26.729 18.1772 26.1051 19.3951 25.5253V25.4586C18.1772 26.0397 16.9822 26.6635 15.806 27.3222V27.3876ZM20.8788 25.003C20.6008 26.196 20.3309 27.433 20.0798 28.6327V28.6794C20.3336 27.4664 20.5941 26.2654 20.8761 25.0591C21.6871 25.5574 22.8647 26.3229 24.3564 27.3956V27.3248C23.2258 26.5099 22.0684 25.7324 20.8788 25.003ZM22.1409 25.0979L22.0899 25.0538V25.1299C23.1976 26.0651 24.0825 26.9027 25.1164 27.918C25.154 27.9393 25.2534 27.9955 25.291 28.0168C24.2047 26.9428 23.2352 26.0223 22.1409 25.0979ZM18.0765 24.1053C16.433 24.315 14.8311 24.5862 13.2118 24.9349C13.291 24.9349 13.3877 24.9402 13.4683 24.9389C15.0245 24.6116 16.5485 24.3551 18.1275 24.156V24.0999L18.0765 24.1053ZM19.2903 25.0057C17.7596 24.8734 16.237 24.7973 14.7009 24.8093V24.8561C16.2155 24.8454 17.718 24.9188 19.2272 25.0471C19.2487 25.0337 19.2688 25.019 19.2903 25.0057ZM22.0322 24.1467C23.6125 24.3484 25.0573 24.5955 26.6135 24.9242C26.6954 24.9255 26.8055 24.9282 26.8875 24.9295C25.2493 24.5768 23.6945 24.3016 22.0322 24.0906V24.1467ZM20.1617 24.5301C20.1349 24.5301 20.108 24.5301 20.0812 24.5301C20.0946 24.5381 20.108 24.5461 20.1215 24.5541C20.1349 24.5622 20.155 24.5742 20.1698 24.5809C22.0832 24.5875 23.9885 24.6851 25.8925 24.8761V24.824C23.9617 24.6303 22.0228 24.5354 20.0812 24.5301M20.8519 24.0879C20.8761 24.0906 20.8989 24.0932 20.9217 24.0959C21.8616 23.5789 22.8203 23.0967 23.8032 22.6665V22.6197C22.7948 23.0606 21.8146 23.5562 20.8519 24.0879ZM20.8519 24.0879C20.813 23.957 20.774 23.8261 20.7337 23.6951V23.7419C20.7687 23.8595 20.8049 23.977 20.8398 24.0946C20.8439 24.0919 20.8479 24.0892 20.8519 24.0879ZM12.5203 27.6682C12.5646 27.6802 12.625 27.6895 12.6707 27.7029C12.6814 27.6722 12.6895 27.6414 12.7016 27.6094C12.6452 27.5947 12.5901 27.58 12.5337 27.5653C11.9778 27.8392 11.4233 28.1224 10.8728 28.4149C10.8419 28.4737 10.811 28.5338 10.7801 28.5926C10.7949 28.598 10.803 28.6006 10.815 28.606C10.8298 28.5779 10.8526 28.5352 10.8674 28.5084C11.4166 28.2145 11.9631 27.942 12.5203 27.6682ZM12.0181 25.0618C12.0302 25.0725 12.0584 25.0992 12.0718 25.1125C12.0826 25.1019 12.092 25.0912 12.1027 25.0818C12.0718 25.0511 12.0423 25.0204 12.0114 24.9896C11.4958 25.0431 10.9802 25.1059 10.4646 25.1807C10.4136 25.2208 10.3639 25.2608 10.3129 25.3022C10.3317 25.3276 10.3343 25.333 10.3491 25.3517C10.3773 25.329 10.4539 25.2742 10.482 25.2528C10.9977 25.178 11.5025 25.1152 12.0181 25.0618ZM12.4545 22.6558C12.8332 22.7079 13.6025 22.8629 13.6119 22.8589C13.6052 22.8255 13.5985 22.7934 13.5918 22.76C13.2118 22.6879 12.8318 22.6251 12.4518 22.573C12.3995 22.5957 12.3471 22.6171 12.2947 22.6398C12.2988 22.6745 12.3014 22.6892 12.3055 22.7199C12.3471 22.7012 12.4142 22.6732 12.4545 22.6558ZM24.2436 21.0514C24.2463 21.054 24.249 21.0567 24.253 21.0594C24.2691 21.0487 24.2853 21.038 24.3027 21.0273C24.2839 21.0086 24.2638 20.9886 24.245 20.9699C24.1966 20.9699 24.1483 20.9685 24.1 20.9685C23.8986 21.0928 23.7012 21.2237 23.5051 21.3573C23.5199 21.3733 23.5347 21.3907 23.5494 21.4067C23.7307 21.2825 23.9133 21.1636 24.0986 21.0474C24.147 21.0514 24.1966 21.0514 24.2436 21.0514ZM19.9469 20.5023C19.9832 20.4916 20.0194 20.4809 20.0557 20.4689C20.0933 20.4796 20.1295 20.4916 20.1671 20.5023V20.4221C20.1309 20.4115 20.0933 20.3994 20.0557 20.3887C20.0194 20.3994 19.9832 20.4115 19.9469 20.4221V20.5023ZM16.006 21.0327C16.1913 21.1475 16.3699 21.2785 16.5498 21.4014C16.5646 21.3853 16.5794 21.368 16.5955 21.3519C16.4008 21.217 16.2034 21.0874 16.002 20.9632C15.9537 20.9632 15.904 20.9645 15.8556 20.9645C15.8368 20.9832 15.7939 21.0166 15.7751 21.0353C15.7912 21.046 15.8073 21.0567 15.8234 21.0661C15.8261 21.0634 15.857 21.0367 15.8597 21.034C15.9093 21.0327 15.9577 21.0327 16.006 21.0327ZM15.6448 29.7842C15.6663 29.8123 15.6905 29.8791 15.7133 29.9125C15.72 29.9045 15.7267 29.8965 15.7334 29.8898C15.7267 29.8684 15.6797 29.7655 15.6596 29.7174C15.5817 29.7335 15.4837 29.7495 15.4058 29.7669C15.0084 30.2198 14.6176 30.6753 14.2309 31.1349C14.2376 31.1549 14.2538 31.1803 14.2605 31.2003C14.5089 30.9064 15.0446 30.2692 15.4354 29.823C15.4958 29.8096 15.5804 29.7989 15.6448 29.7842ZM29.1647 28.5138C29.1795 28.5418 29.2023 28.5846 29.2171 28.6113C29.2292 28.606 29.2372 28.6033 29.252 28.598C29.2211 28.5392 29.1902 28.4791 29.1593 28.4203C28.6075 28.1277 28.0543 27.8445 27.4984 27.5693C27.4433 27.584 27.3869 27.5987 27.3306 27.6134C27.3426 27.6468 27.3507 27.6762 27.3614 27.7069C27.4057 27.6935 27.4662 27.6842 27.5118 27.6735C28.0677 27.9474 28.6142 28.2212 29.1647 28.5138ZM29.5514 25.2582C29.5796 25.2809 29.6562 25.3356 29.6843 25.3584C29.6991 25.3397 29.7018 25.3343 29.7206 25.3089C29.6696 25.2688 29.6199 25.2274 29.5689 25.1874C29.0533 25.1125 28.5377 25.0498 28.0221 24.9963C27.9912 25.027 27.9616 25.0578 27.9308 25.0885C27.9415 25.0979 27.9509 25.1072 27.9616 25.1192C27.9751 25.1059 28.0046 25.0791 28.0153 25.0685C28.531 25.1219 29.0358 25.1847 29.5514 25.2582ZM27.7293 22.7253C27.7334 22.6945 27.7347 22.6798 27.7401 22.6451C27.6877 22.6224 27.6354 22.5997 27.583 22.5783C27.2017 22.6304 26.8217 22.6919 26.443 22.764C26.4363 22.7974 26.4296 22.8295 26.4229 22.8629C26.4323 22.8682 27.2017 22.7119 27.5803 22.6611C27.6206 22.6785 27.6877 22.7079 27.7293 22.7253ZM24.5941 29.827C24.9848 30.2732 25.5232 30.9104 25.7717 31.2043C25.7811 31.1816 25.7891 31.1616 25.7985 31.1402C25.4118 30.6806 25.0211 30.2238 24.6236 29.7709C24.5471 29.7549 24.4477 29.7375 24.3698 29.7215C24.3497 29.7682 24.3014 29.8724 24.296 29.8938C24.3027 29.9018 24.3094 29.9098 24.3161 29.9165C24.339 29.8831 24.3645 29.8163 24.386 29.7883C24.4491 29.8016 24.5337 29.8136 24.5941 29.827ZM20.2343 30.7087L20.2705 32.2276L20.2678 30.6526C20.2114 30.6138 20.1349 30.5751 20.0785 30.5364C20.0221 30.5751 19.9402 30.6138 19.8825 30.6526V32.2276L19.9187 30.7087C19.9644 30.678 20.0328 30.6472 20.0785 30.6165C20.1242 30.6472 20.1899 30.678 20.2343 30.7087ZM20.0436 30.2478C22.8177 30.2491 28.535 28.8317 27.6783 25.0204C26.9895 21.9584 22.7223 21.0474 20.0463 21.046C17.3702 21.0447 13.1017 21.9531 12.4115 25.015C11.5509 28.8251 17.2682 30.2465 20.0436 30.2478ZM20.0436 30.0087C22.7089 30.01 28.2006 28.6581 27.399 24.9977C26.7518 22.0399 22.623 21.1596 20.0463 21.1596C17.4696 21.1582 13.3407 22.0346 12.6908 24.9923C11.8865 28.6527 17.3769 30.0073 20.0436 30.0087Z" fill="url(#paint2_linear_373_17446)"/>
<path fill-rule="evenodd" clip-rule="evenodd" d="M12.4357 25.1072C13.1259 22.0453 17.2172 21.1222 20.0705 21.1222C22.9157 21.1235 27.015 22.0506 27.7025 25.1125C28.5592 28.9239 22.8418 30.34 20.0678 30.34C17.2924 30.34 11.5764 28.9186 12.4357 25.1072ZM12.715 25.0858C13.3649 22.1281 17.4938 21.2517 20.0705 21.2531C22.6471 21.2544 26.776 22.1335 27.4232 25.0912C28.2248 28.7516 22.7344 30.1035 20.0678 30.1022C17.4011 30.1009 11.9107 28.7462 12.715 25.0858Z" fill="white"/>
<path opacity="0.66" d="M29.1808 25.7458L27.9294 25.5574L27.7642 25.5187C27.5548 25.4759 27.1533 25.2501 26.9787 24.9816C26.8042 24.7131 26.3826 24.2509 26.153 23.9637C25.8334 23.5642 25.1056 23.1995 24.9996 23.0339C24.8935 22.8695 24.7176 22.581 24.6692 22.4661C24.6209 22.3512 24.5068 22.259 24.3175 22.2697C24.1281 22.2817 24.112 22.3459 23.9509 22.3552C23.7898 22.3646 23.5642 22.3312 23.5642 22.3312C23.4662 22.3111 23.3977 22.2991 23.3292 22.2991C23.2285 22.4634 23.0754 22.565 22.7048 22.565C22.6793 22.565 22.6578 22.5623 22.6391 22.5569C22.678 22.6398 23.0244 22.6879 23.0822 22.6839C23.1412 22.6798 23.4675 22.772 23.5427 22.7854C23.6931 22.8121 23.6636 22.7613 23.9052 22.9003C24.3054 23.13 24.9029 23.7633 25.021 24.3123C25.0868 24.6156 25.6092 25.1112 25.6723 25.3918C24.9727 25.3397 24.0422 24.8788 24.0422 24.8788L23.9254 24.8227C23.9254 24.8227 23.5105 24.6143 22.8727 24.5849C21.6696 24.4767 21.2131 24.3177 21.0936 24.2776C20.8452 24.1948 20.8801 24.152 20.6773 24.1427C20.6384 24.1413 20.6021 24.1387 20.5672 24.1373C20.5444 24.1828 20.5108 24.2295 20.4638 24.2749C20.2409 24.4873 20.0865 24.6463 19.8986 24.9349C19.8475 25.0124 19.7629 25.0604 19.6595 25.0885C19.8892 25.0364 20.339 24.9175 20.339 24.9175C20.7633 24.8614 21.4091 25.0498 21.4091 25.0498C21.6481 25.0979 22.0415 25.2501 22.0415 25.2501C22.0415 25.2501 23.7562 25.7725 24.1765 26.0771C24.4517 26.2775 25.8777 26.8078 26.255 26.9387C26.6323 27.0697 27.5534 27.568 27.5534 27.568C27.7897 27.7684 29.166 28.3682 29.5433 28.4951C30.0294 27.6575 30.1986 26.8011 30.0643 25.9328L29.1808 25.7458Z" fill="#3B2E4F"/>
<path opacity="0.66" d="M28.5511 24.327C28.4303 24.3257 28.2906 24.3578 28.2906 24.3578L27.9496 24.5595C27.9066 24.6289 28.061 24.7211 28.061 24.7211C28.061 24.7211 28.492 24.7492 28.4907 24.8614C28.8076 25.0297 29.483 25.0498 29.828 25.0658C29.7824 24.9496 29.7314 24.8347 29.675 24.7198C29.6199 24.6089 29.5608 24.5007 29.4964 24.3925C29.4776 24.3858 29.2171 24.3123 28.5511 24.327Z" fill="#3B2E4F"/>
<path opacity="0.66" d="M26.0039 28.5031C26.0039 28.5031 25.922 28.3989 25.4856 28.3976C25.209 28.3962 25.6064 29.0495 25.6064 29.0495C25.8562 29.2165 26.7571 29.4716 26.9451 29.497C27.1331 29.5211 27.7615 29.7081 27.7615 29.7081C27.7615 29.7081 28.0891 29.7509 28.4248 29.8524C28.4772 29.8043 28.5309 29.7549 28.5806 29.7054C28.7753 29.5157 28.9498 29.3234 29.1056 29.127C28.3456 29.1109 27.2674 29.0976 26.4483 28.6728C26.3637 28.4296 26.0039 28.5031 26.0039 28.5031Z" fill="#3B2E4F"/>
<path d="M23.6999 16.6228C23.6999 16.6228 23.4474 16.3944 23.4434 16.381C23.4246 16.3008 23.5146 16.194 23.536 16.059C23.5105 16.0497 23.4837 16.0377 23.4595 16.027C23.3977 15.7945 23.3481 15.3764 23.4595 15.1533C23.5146 15.0437 23.579 14.9008 23.5414 14.7726C23.3333 14.0619 22.9211 13.4433 22.6297 12.7687C22.5505 12.5857 22.5639 12.4534 22.5532 12.2664C22.3276 12.0192 22.0685 11.3727 21.9422 10.9745C21.6791 11.6345 21.5058 12.3933 21.5058 12.5683C21.5058 13.3111 22.2631 13.6718 22 14.9061C21.9489 15.1439 21.859 15.4739 21.769 15.8146C21.9261 16.6749 21.9261 17.3001 22.1571 18.2967C22.4807 18.616 22.7506 19.0248 22.8942 19.5431C22.9828 19.8637 23.2554 20.6185 23.6032 20.7321C23.8194 20.8015 22.8714 20.9752 22.6042 20.6399C22.3464 20.3179 21.9006 20.0601 21.6898 19.7181C21.522 19.4456 21.2601 18.8645 21.095 18.5879L20.8922 19.646C21.1675 20.7762 21.0037 21.0246 20.758 21.9424C20.6519 22.3392 19.8489 20.4863 19.8476 20.3407C19.8476 19.9385 19.8221 19.7889 19.7267 19.4349C19.5589 19.1089 19.5764 18.6454 19.5992 18.2927C19.6381 17.7036 19.6341 16.5934 19.6596 16.3008C19.4569 15.8052 18.9386 14.9088 18.8862 14.4052C18.8056 13.6197 18.9399 12.8248 18.8298 12.0419C18.6942 12.4347 18.5505 12.9317 18.243 13.2322C17.7838 13.6825 17.3595 14.1807 16.95 14.6737C16.8009 14.8768 16.9325 14.9756 16.7002 15.3016C16.472 15.6209 16.5942 15.4766 16.5472 15.7825C16.5391 15.8359 16.5123 15.8774 16.4948 15.8947C16.3726 15.9963 16.2437 16.0831 16.0692 16.011C15.7321 15.8426 15.708 15.5928 15.6838 15.2709C15.6395 14.6577 16.0947 14.6296 16.3538 14.2582C16.86 13.5302 17.1178 12.3091 17.6603 11.7587C17.6939 11.6505 17.8214 11.2578 18.0644 10.674C18.0712 9.94857 18.2524 9.30465 19.0017 9.00674C19.3092 8.88518 19.7106 8.85445 19.7267 8.4323C19.7281 8.38154 19.7187 8.25195 19.6865 8.20653C19.5629 8.10767 19.4757 8.105 19.4166 8.0342C19.2957 7.87923 19.195 6.88264 19.2084 6.81851C19.3843 5.97288 19.7912 5.691 20.3068 5.71638C20.9151 5.74711 21.3984 6.037 21.3716 6.85191C21.3501 7.50785 20.6707 8.3468 21.6871 8.66609C22.0752 8.78765 22.149 8.70349 22.4834 9.03747C22.858 9.41153 22.9479 10.0768 23.011 10.6927L23.3924 11.5744C24.0919 12.7473 23.8382 13.1174 24.096 14.3103C24.1618 14.6189 24.2772 14.8928 24.3014 15.5674C24.3095 15.8934 24.053 16.6108 23.6999 16.6228Z" fill="#FFA55C"/>
<path d="M16.4035 15.7358C16.4344 15.4231 16.3901 15.4499 16.5901 15.16C16.7754 14.8915 16.6868 14.7539 16.8506 14.5241C17.2548 14.0218 17.6361 13.5155 18.09 13.0572C18.3934 12.7513 18.8056 11.72 18.9023 11.358C18.9211 11.3045 18.9506 11.2778 18.9627 11.3246C19.0258 12.0152 19.1239 12.5923 19.0983 13.271C19.046 14.6977 19.0849 14.5481 19.6811 15.88C19.7308 15.3443 19.861 14.5668 20.1752 14.3037C19.8086 15.6917 19.7845 17.6702 19.7455 18.2793C19.7254 18.5893 19.6408 19.0782 19.7899 19.3628C19.8395 19.5551 19.8436 19.8464 19.8476 20.0681C19.8489 20.2031 19.8556 22.5035 19.8556 22.5035L19.6408 23.5709C19.5643 23.8795 19.1641 24.3978 18.8687 24.5581C18.7748 24.6089 18.5545 24.7265 18.5545 24.8307C18.5545 24.999 19.6475 25.3156 19.8959 24.9309C20.0839 24.6423 20.237 24.4833 20.4612 24.2709C20.805 23.9436 20.4236 23.6056 20.4693 23.1608C20.5485 22.3873 20.8828 21.7153 20.9929 20.9846C21.0587 20.5451 21.048 20.1563 20.8466 19.6553L20.9916 18.2593C21.1527 18.4998 21.3044 18.8832 21.4575 19.2011C21.7301 19.7662 21.7341 19.8223 22.2054 20.2859C22.3639 20.4422 22.529 20.6265 22.6485 20.8162C22.8701 21.1676 23.0231 21.5149 23.003 21.9344C22.8392 22.2283 22.7694 22.2109 22.5585 22.3886C22.5653 22.398 22.4995 22.5609 22.6995 22.5609C23.4112 22.5609 23.3226 22.1922 23.5924 21.7126C23.767 21.4027 24.2652 20.9325 23.7187 20.7695C23.5468 20.7187 23.3857 20.6159 23.2863 20.4502C22.9077 19.8196 22.8929 19.8357 22.6955 19.2559C22.576 18.9045 22.333 18.6213 22.047 18.3902C21.8711 17.9948 21.8026 17.7129 21.7462 17.2921C21.6697 16.7217 21.6186 16.3129 21.5206 15.7304C21.7986 14.6363 21.9409 14.4038 21.4696 13.3511C21.3608 13.1093 21.3004 12.8515 21.3004 12.5656C21.3004 12.2156 21.4938 11.4301 21.6831 11.0226C21.7489 10.857 21.8402 10.7007 21.9704 10.6513C22.0846 11.0761 22.4793 11.9498 22.7076 12.1635C22.7224 12.3345 22.7143 12.5082 22.7828 12.6698C23.0701 13.3592 23.485 13.9844 23.6918 14.7111C23.763 14.9609 23.6676 15.0812 23.5965 15.2815C23.575 15.3777 23.5683 15.6583 23.6112 15.8653L23.7106 15.9188C23.6931 15.9816 23.6502 16.1579 23.6139 16.2394C23.626 16.3383 23.7482 16.3944 23.7482 16.3944C23.9066 16.3596 24.1336 15.7892 24.1255 15.5607C24.1013 14.8621 23.9536 14.5495 23.912 14.3424C23.6784 13.1574 23.814 12.8328 23.148 11.6866L22.7694 10.7555C22.7224 10.2785 22.533 9.18976 21.9181 8.99338C21.8147 8.95999 21.7113 8.95464 21.5555 8.90388C20.7512 8.64471 20.7553 8.03019 20.9741 7.35956C21.1688 6.7624 21.1957 6.05838 20.3122 5.9849C19.7657 5.93948 19.5992 6.36697 19.4824 6.85993C19.4864 6.91336 19.5132 7.71491 19.6314 7.88725C19.865 8.05958 19.9966 8.00881 19.9819 8.44165C19.9684 8.80502 19.7375 9.0201 19.4219 9.12965C18.9077 9.31 18.6458 9.4142 18.4726 9.94188C18.4176 10.1075 18.3719 10.3453 18.3692 10.6993V10.7234C18.2229 11.0854 18.0376 11.4996 17.9248 11.8897C17.2924 12.5202 16.9782 13.955 16.3377 14.5615C15.9121 14.9636 15.7832 14.989 15.9389 15.6102C15.955 15.673 16.1591 15.8346 16.2021 15.8573C16.2357 15.8693 16.4048 15.7718 16.4035 15.7358Z" fill="#000FAA"/>
<defs>
<linearGradient id="paint0_linear_373_17446" x1="11.3444" y1="24.2138" x2="25.7568" y2="29.4151" gradientUnits="userSpaceOnUse">
<stop stop-color="#FF6600"/>
<stop offset="0.1519" stop-color="#DD5C0E"/>
<stop offset="0.5665" stop-color="#874430"/>
<stop offset="0.8588" stop-color="#503446"/>
<stop offset="1" stop-color="#3B2E4F"/>
</linearGradient>
<linearGradient id="paint1_linear_373_17446" x1="7.90469" y1="26.5088" x2="20.7084" y2="24.2446" gradientUnits="userSpaceOnUse">
<stop stop-color="#FFC980"/>
<stop offset="1" stop-color="#FF6600"/>
</linearGradient>
<linearGradient id="paint2_linear_373_17446" x1="10.3129" y1="26.3046" x2="29.7193" y2="26.3118" gradientUnits="userSpaceOnUse">
<stop stop-color="#B06500"/>
<stop offset="1" stop-color="#7C0000"/>
</linearGradient>
</defs>
</svg>
