<svg fill="none" height="24" width="32" xmlns="http://www.w3.org/2000/svg" xmlns:xlink="http://www.w3.org/1999/xlink"><linearGradient id="a" gradientTransform="matrix(9.27404 0 0 4.82471 0 .002)" gradientUnits="userSpaceOnUse" x2="1"><stop offset="0" stop-color="#cc612c"/><stop offset="1" stop-color="#743237"/></linearGradient><linearGradient id="b" gradientTransform="matrix(5.73197 -1.08109 1.13105 5.47875 -1.44 .228)" gradientUnits="userSpaceOnUse" x2="1"><stop offset="0" stop-color="#ffdd7f"/><stop offset="1" stop-color="#f47920"/></linearGradient><linearGradient id="c" gradientTransform="matrix(3.31912377 3.54977485 -1.42436146 8.27187648 1.058746 -1.011622)" gradientUnits="userSpaceOnUse" x2="1"><stop offset="0" stop-color="#2a3795"/><stop offset="1" stop-color="#222a7e"/></linearGradient><mask id="d" height="24" maskUnits="userSpaceOnUse" width="32" x="0" y="0"><path d="m28 0h-24a4 4 0 0 0 -4 4v16a4 4 0 0 0 4 4h24a4 4 0 0 0 4-4v-16a4 4 0 0 0 -4-4z" fill="#fff"/></mask><g mask="url(#d)"><path d="m4.5 1h23a3.5 3.5 0 0 1 3.5 3.5v15a3.5 3.5 0 0 1 -3.5 3.5h-23a3.5 3.5 0 0 1 -3.5-3.5v-15a3.5 3.5 0 0 1 3.5-3.5z" fill="#fff" stroke="#e6e6e6"/><path d="m8.51 0c.19.2.349.43.469.685.36.782.228 1.646-.49 2.399-.823.863-2.223 1.394-3.85 1.394-1.625 0-3.026-.53-3.845-1.394-.718-.753-.85-1.617-.49-2.4.119-.252.275-.484.463-.684-.23.237-.41.45-.575.8-.351.752-.24 1.828.503 2.607.841.885 2.163 1.418 3.959 1.418 1.795 0 3.12-.549 3.928-1.418.793-.853.824-1.962.498-2.631a2.677 2.677 0 0 0 -.57-.776z" fill="url(#a)" transform="translate(11.372 13.266)"/><path d="m18.563 12.362c-.762-.337-1.65-.514-2.551-.514-.9 0-1.788.174-2.55.514-.835.37-1.48.92-1.789 1.591-.36.783-.228 1.646.49 2.4.823.863 2.223 1.394 3.849 1.394s3.026-.531 3.85-1.394c.717-.754.85-1.617.489-2.4-.309-.671-.954-1.22-1.788-1.59z" fill="#f47920"/><path d="m4.682.889c-.15-.33-.12-.627-.09-.889h-.06c-.901 0-1.788.174-2.55.514-.834.37-1.48.919-1.788 1.59-.361.783-.229 1.647.49 2.4.05.053.102.104.157.155 3.026-.192 4.609-2.087 3.839-3.77z" fill="url(#b)" transform="translate(11.482 11.852)"/><g clip-rule="evenodd" fill-rule="evenodd"><path d="m14.061 12.796c.556.152 1.105.336 1.643.55.107-.346.222-.69.353-1.028.13.336.245.68.353 1.028a15.183 15.183 0 0 1 1.63-.542 12.63 12.63 0 0 0 -1.11.848c.744.101 1.442.233 2.173.403-.73-.017-1.418.01-2.147.06.515.466.955.918 1.433 1.425-.656-.4-1.27-.736-1.953-1.081-.133.61-.258 1.22-.379 1.837-.12-.614-.231-1.197-.363-1.808-.683.345-1.305.674-1.984 1.057.481-.507.932-.947 1.447-1.414-.73-.05-1.43-.06-2.176-.072.733-.17 1.457-.301 2.2-.403a13.031 13.031 0 0 0 -1.12-.86zm1.996 1.068v-1.35c-.128.375-.24.755-.347 1.139.116.069.232.14.347.211zm-1.668-.92c.451.214.89.45 1.323.708-.107.012-.214.023-.321.037a14.8 14.8 0 0 0 -1.002-.744zm1.668.92c.87 0 1.736.047 2.601.14a34.98 34.98 0 0 0 -2.256-.353c-.116.07-.23.141-.345.213zm1.667-.92c-.452.213-.892.45-1.323.708a12.337 12.337 0 0 0 -.052-.189c.452-.193.91-.368 1.375-.518zm-1.713.92c.02.652.041 1.343.047 1.974.113-.584.231-1.166.356-1.746-.116-.078-.283-.153-.403-.228zm1.96 1.343a25.999 25.999 0 0 0 -1.557-1.115c.109-.01.218-.018.327-.026a25.3 25.3 0 0 1 1.23 1.141zm-1.914-1.343c-.874.013-1.557.055-2.41.134a22.4 22.4 0 0 1 2.056.095c.117-.077.234-.154.354-.229zm-1.913 1.344c.507-.39 1.026-.764 1.56-1.115l.046.218c-.545.28-1.08.58-1.606.897z" fill="#fff"/><path d="m16.057 12.341c.13.337.245.681.353 1.029.517-.204 1.043-.38 1.576-.527l.057-.038c-.553.149-1.098.33-1.633.542-.108-.346-.223-.69-.353-1.029-.13.337-.246.682-.353 1.029a15.536 15.536 0 0 0 -1.643-.55l.056.038c.537.15 1.067.328 1.587.535.107-.347.222-.691.353-1.029z" fill="#c9252c"/><path d="m15.156 14.132c-.507.46-.973.914-1.443 1.414l.075-.046c.463-.488.874-.883 1.37-1.333zm.554-.48h-.033l-.288.033a14.171 14.171 0 0 0 -1-.745v.027c.346.235.676.488 1 .75l.32-.038c.105.065.203.12.306.184h.042c-.113-.07-.232-.142-.347-.211zm-1.566 1.588a28.484 28.484 0 0 1 1.606-.9v-.031c-.545.28-1.08.58-1.606.9z" fill="#cb4d2c"/><path d="m16.414 14.091a87.56 87.56 0 0 0 -.357 1.746v.023c.113-.584.23-1.162.356-1.742.36.239.89.607 1.558 1.123v-.034a26.068 26.068 0 0 0 -1.557-1.115zm.565.046-.023-.022v.037c.496.45.893.852 1.355 1.34l.078.048c-.486-.516-.92-.958-1.41-1.403z" fill="#a71c20"/><path d="m15.16 13.66c-.736.112-1.452.256-2.177.44h.115c.696-.173 1.379-.31 2.085-.415v-.03l-.023.006z" fill="#cb4d2c"/><path d="m16.93 13.652c.744.112 1.442.257 2.173.443h-.12a21.288 21.288 0 0 0 -2.05-.41zm-.528 0 .031.004c.42-.249.85-.481 1.29-.688v-.023c-.451.213-.89.45-1.322.707" fill="#a71c20"/><path d="m11.936 15.734-.042.086c.026.01.076.028.098.038.248-.142.493-.283.737-.42a.687.687 0 0 1 .025-.092l-.075-.02a28.31 28.31 0 0 0 -.743.408zm1.651 1.371c-.035.009-.08.009-.115.018-.007-.027-.025-.054-.033-.08.173-.221.349-.44.526-.658l.114-.024a.954.954 0 0 0 .033.083c-.177.218-.352.439-.525.66zm6.533-1.371.042.086c-.026.01-.076.028-.098.038-.248-.142-.493-.283-.737-.42a.79.79 0 0 0 -.025-.092l.075-.02c.25.132.497.268.744.408zm-1.65 1.371.115.018c.01-.026.022-.052.032-.08-.173-.221-.348-.44-.526-.658l-.113-.024a.954.954 0 0 1 -.033.083c.177.218.352.439.525.66z" fill="#fff"/><path d="m11.933 15.78-.023.046-.016-.006.042-.086c.246-.14.494-.276.743-.408l.075.02-.014.046c-.02-.007-.047-.011-.067-.017-.249.132-.493.264-.74.404z" fill="#cc612c"/><path d="m14.074 16.393c.01.014.02.046.03.064l.01-.01c0-.01-.024-.06-.033-.083l-.114.023a42.37 42.37 0 0 0 -.526.659c0 .01.01.021.013.031.111-.141.351-.45.526-.663.026-.009.063-.014.094-.02zm6.049-.613.024.046.015-.006-.041-.086c-.247-.14-.495-.276-.744-.408l-.075.02c.006.016.01.031.014.046.02-.007.047-.011.067-.017.25.132.494.264.74.404zm-2.139.613c-.01.014-.02.046-.03.064l-.01-.01.034-.083.113.023c.178.218.353.437.526.659l-.012.031c-.111-.142-.352-.45-.527-.663-.028-.009-.065-.014-.094-.02z" fill="#a71c20"/><path d="m12.624 14.102c.309-1.473 2.219-1.911 3.417-1.911s3.107.432 3.416 1.91c.384 1.834-2.175 2.517-3.416 2.517-1.242 0-3.8-.686-3.417-2.516zm.125-.011c.29-1.423 2.139-1.845 3.292-1.845s3.001.422 3.291 1.845c.36 1.762-2.098 2.412-3.291 2.412-1.194 0-3.65-.654-3.29-2.415z" fill="#cb4d2c"/><path d="m12.635 14.144c.309-1.474 2.14-1.919 3.417-1.919s3.107.445 3.416 1.919c.384 1.833-2.175 2.516-3.416 2.516-1.242 0-3.8-.683-3.417-2.516zm.125-.011c.29-1.423 2.138-1.846 3.292-1.846 1.153 0 3 .423 3.291 1.846.36 1.761-2.098 2.413-3.291 2.413-1.194 0-3.651-.652-3.292-2.413z" fill="#fff"/></g><path d="m20.13 14.447-.56-.088-.074-.018a.673.673 0 0 1 -.352-.257c-.078-.129-.267-.352-.37-.49-.142-.193-.469-.368-.516-.447a2.876 2.876 0 0 1 -.148-.273.148.148 0 0 0 -.158-.094c-.084.005-.092.036-.164.04a.914.914 0 0 1 -.173-.01.496.496 0 0 0 -.105-.016c-.045.079-.113.128-.28.128a.095.095 0 0 1 -.029-.004c.018.04.173.065.199.065.025 0 .173.042.206.049a.25.25 0 0 1 .162.054c.18.11.446.415.5.68.029.146.263.385.29.518-.312-.025-.728-.246-.728-.246l-.052-.027a1.201 1.201 0 0 0 -.472-.114c-.54-.052-.743-.129-.796-.148-.112-.04-.096-.06-.187-.064h-.048a.227.227 0 0 1 -.047.064 1.55 1.55 0 0 0 -.253.317.18.18 0 0 1 -.107.074c.103-.025.304-.083.304-.083.19-.027.481.065.481.065.096.025.19.057.283.096 0 0 .768.25.956.397.123.097.761.352.93.414.199.09.393.191.581.303.106.096.721.386.891.445.21-.369.293-.805.233-1.232z" fill="#4f264a" opacity=".45"/><path d="m19.848 13.765a.456.456 0 0 0 -.117.016l-.152.106c-.02.038.05.086.05.086s.192.015.192.07c.142.09.444.1.6.109a2.39 2.39 0 0 0 -.148-.356c-.01 0-.13-.039-.425-.031zm-1.139 2.008s-.037-.05-.232-.05c-.125 0 .053.313.053.313.112.08.515.203.601.215s.364.1.364.1c.1.016.2.04.296.07a3.05 3.05 0 0 0 .305-.348c-.34-.008-.823-.015-1.189-.22-.037-.114-.198-.08-.198-.08z" fill="#4f264a" opacity=".45"/><path d="m17.675 10.06s-.115-.11-.115-.117c-.008-.039.032-.09.042-.155-.012-.004-.024-.01-.035-.015-.027-.112-.05-.313 0-.42a.283.283 0 0 0 .037-.184c-.093-.342-.278-.642-.409-.964a.654.654 0 0 1 -.034-.241c-.1-.12-.217-.43-.274-.622-.117.318-.195.683-.195.767 0 .357.339.53.221 1.125-.022.114-.06.273-.103.437.07.414.07.714.174 1.194.158.165.272.372.33.6.04.154.162.517.318.572.096.033-.327.117-.447-.045-.12-.161-.316-.278-.41-.443-.075-.129-.193-.41-.267-.544l-.09.51c.123.543.05.663-.06 1.104-.048.193-.407-.7-.408-.771a1.427 1.427 0 0 0 -.054-.436c-.075-.158-.067-.38-.06-.55.017-.283.016-.817.027-.958-.09-.238-.323-.669-.347-.912-.036-.378.024-.76-.026-1.137-.06.189-.125.428-.262.573-.203.22-.396.452-.578.694-.066.098-.008.145-.112.301-.103.156-.046.085-.068.232a.106.106 0 0 1 -.023.054c-.055.05-.113.09-.191.056-.15-.081-.162-.202-.172-.356-.02-.295.184-.309.3-.487.227-.351.341-.938.584-1.203.015-.052.072-.24.18-.522.003-.349.084-.658.421-.802.138-.058.317-.074.324-.276a.263.263 0 0 0 -.018-.11c-.055-.047-.094-.048-.12-.082-.054-.075-.1-.554-.093-.584.078-.407.26-.543.49-.53.273.013.49.154.477.545-.009.316-.313.72.142.873.174.058.207.018.356.178.168.18.209.5.237.797l.17.424c.314.564.2.742.316 1.317.054.197.085.4.092.605.006.156-.108.5-.267.508z" fill="#fbb257"/><path d="m.237 4.696c.015-.15-.006-.137.084-.277.083-.128.043-.193.116-.306.174-.246.359-.482.555-.707.136-.147.32-.643.364-.818.008-.026.02-.038.026-.016.029.332.073.61.06.936-.023.687-.005.615.261 1.256.023-.257.081-.632.222-.759-.164.669-.175 1.62-.192 1.914-.01.149-.047.385.02.52.02.113.028.227.026.34l.004 1.172-.096.514a.972.972 0 0 1 -.345.475c-.042.025-.14.082-.14.129 0 .08.488.232.6.048a1.55 1.55 0 0 1 .252-.318c.155-.158-.016-.32.004-.534.036-.372.185-.695.234-1.047a1.202 1.202 0 0 0 -.066-.64l.066-.67c.077.146.147.297.208.452.12.272.124.3.335.522.075.077.142.164.198.257.1.169.169.336.16.538-.074.142-.105.133-.2.219.004.004-.025.083.064.083.318 0 .279-.178.4-.409.077-.149.3-.375.055-.453a.338.338 0 0 1 -.193-.154c-.17-.303-.176-.296-.265-.575a.922.922 0 0 0 -.29-.416 1.841 1.841 0 0 1 -.135-.528c-.034-.275-.06-.471-.101-.752.124-.527.188-.638-.023-1.144a.963.963 0 0 1 -.076-.378 2.56 2.56 0 0 1 .17-.743.296.296 0 0 1 .13-.178c.05.204.227.624.33.727-.002.082.01.165.033.244.129.33.315.632.407.981.032.12-.01.178-.043.275a.924.924 0 0 0 .008.281l.044.026a1.49 1.49 0 0 1 -.043.154c.005.047.06.074.06.074.07-.017.172-.291.168-.401-.007-.2-.04-.396-.095-.586-.105-.57-.044-.726-.342-1.278l-.17-.45c-.02-.23-.107-.753-.381-.847-.047-.016-.093-.019-.163-.043-.36-.125-.36-.42-.26-.743.087-.287.098-.626-.297-.661-.244-.022-.319.183-.371.42 0 .026.014.412.067.495.105.083.163.058.156.267-.005.174-.109.278-.25.33-.23.087-.347.138-.425.391a1.27 1.27 0 0 0 -.046.365v.017c-.075.183-.141.37-.199.56-.283.304-.42.995-.71 1.286-.19.193-.248.206-.18.505.008.03.099.108.12.119.022.01.09-.043.09-.06z" fill="url(#c)" transform="translate(14.172 4.937)"/></g></svg>