<?xml version="1.0" encoding="UTF-8" standalone="no"?>
<!-- Generator: Adobe Illustrator 18.1.0, SVG Export Plug-In . SVG Version: 6.00 Build 0)  -->

<svg
   version="1.1"
   id="_x30_8_-_Mens_copy"
   x="0px"
   y="0px"
   viewBox="0 0 512 512"
   enable-background="new 0 0 235 284"
   xml:space="preserve"
   preserveAspectRatio="none"
   sodipodi:docname="rabobank-logo-icon.svg"
   width="512"
   height="512"
   inkscape:version="1.2.1 (9c6d41e4, 2022-07-14)"
   xmlns:inkscape="http://www.inkscape.org/namespaces/inkscape"
   xmlns:sodipodi="http://sodipodi.sourceforge.net/DTD/sodipodi-0.dtd"
   xmlns:xlink="http://www.w3.org/1999/xlink"
   xmlns="http://www.w3.org/2000/svg"
   xmlns:svg="http://www.w3.org/2000/svg"><defs
   id="defs460">
	
	
	
	
	
	
	
	
	
	
	
	
	
	
	
	
	
	
	<linearGradient
   id="SVGID_5_"
   gradientUnits="userSpaceOnUse"
   x1="44.3755"
   y1="154.4142"
   x2="189.16451"
   y2="154.4142"
   gradientTransform="matrix(1.0140358,0,0,1.0140358,200.85079,36.113951)">
		<stop
   offset="0"
   style="stop-color:#CA6500"
   id="stop431" />
		<stop
   offset="1"
   style="stop-color:#7C0000"
   id="stop433" />
	</linearGradient>
	
	
	
	
	
	
	<linearGradient
   id="SVGID_6_"
   gradientUnits="userSpaceOnUse"
   x1="91.608704"
   y1="50.664101"
   x2="146.9353"
   y2="105.9909"
   gradientTransform="matrix(1.0140358,0,0,1.0140358,200.85079,36.113951)">
		<stop
   offset="0"
   style="stop-color:#000099"
   id="stop448" />
		<stop
   offset="1"
   style="stop-color:#00007C"
   id="stop450" />
	</linearGradient>
	
</defs><sodipodi:namedview
   id="namedview458"
   pagecolor="#ffffff"
   bordercolor="#666666"
   borderopacity="1.0"
   inkscape:showpageshadow="2"
   inkscape:pageopacity="0.0"
   inkscape:pagecheckerboard="true"
   inkscape:deskcolor="#d1d1d1"
   showgrid="false"
   inkscape:zoom="0.83098592"
   inkscape:cx="61.372881"
   inkscape:cy="295.4322"
   inkscape:window-width="1453"
   inkscape:window-height="801"
   inkscape:window-x="2976"
   inkscape:window-y="291"
   inkscape:window-maximized="0"
   inkscape:current-layer="_x30_8_-_Mens_copy" />
<pattern
   x="-44.4"
   y="-46"
   width="69"
   height="69"
   patternUnits="userSpaceOnUse"
   id="Unnamed_Pattern"
   viewBox="2.1 -70.9 69 69"
   overflow="visible">
	<g
   id="g362">
		<polygon
   fill="none"
   points="71.1,-1.9 2.1,-1.9 2.1,-70.9 71.1,-70.9   "
   id="polygon132" />
		<polygon
   fill="#E7BE60"
   points="71.1,-1.9 2.1,-1.9 2.1,-70.9 71.1,-70.9   "
   id="polygon134" />
		<g
   id="g154">
			<path
   fill="#FFFFFF"
   d="M61.8-71.7c0,0.1,0,0.1,0,0.2c-0.1,0.1-0.1,0.1-0.2,0.1c-0.1,0.1-0.1,0.3-0.1,0.4c-0.2,0.1,0,0.2,0,0.3     c0,0,0,0.1,0,0.2c0,0.1,0,0.3,0.1,0.4c0.1,0.2,0.3,0.4,0.4,0.5c0.2,0.1,0.4,0.6,0.6,0.6c0.2,0,0.4-0.1,0.5-0.1     c0.2,0,0.4,0,0.6-0.1c0.2-0.1,0.1-0.3,0.3-0.5c0.1-0.1,0.3,0,0.4-0.1c0.2-0.1,0.3-0.3,0.4-0.5c0-0.1,0-0.1,0-0.2     c0-0.1,0.1-0.2,0.1-0.3c0-0.1-0.1-0.1-0.1-0.2c0-0.1,0-0.2,0-0.3c0-0.2,0-0.4-0.1-0.5c-0.4-0.7-1.2-0.9-2-0.8     c-0.2,0-0.3,0.1-0.4,0.2c-0.2,0.1-0.1,0.2-0.3,0.2c-0.1,0-0.2,0.1-0.2,0.2C61.8-71.7,61.8-71.7,61.8-71.7     C61.8-71.6,61.8-71.6,61.8-71.7"
   id="path136" />
			<path
   fill="#FFFFFF"
   d="M54.1-71.7c0,0.1,0,0.1,0,0.2c-0.1,0.1-0.1,0.1-0.2,0.1c-0.1,0.1-0.1,0.3-0.1,0.4c-0.2,0.1,0,0.2,0,0.3     c0,0,0,0.1,0,0.2c0,0.1,0,0.3,0.1,0.4c0.1,0.2,0.3,0.4,0.4,0.5c0.2,0.1,0.4,0.6,0.6,0.6c0.2,0,0.4-0.1,0.5-0.1     c0.2,0,0.4,0,0.6-0.1c0.2-0.1,0.1-0.3,0.3-0.5c0.1-0.1,0.3,0,0.4-0.1c0.2-0.1,0.3-0.3,0.4-0.5c0-0.1,0-0.1,0-0.2     c0-0.1,0.1-0.2,0.1-0.3c0-0.1-0.1-0.1-0.1-0.2c0-0.1,0-0.2,0-0.3c0-0.2,0-0.4-0.1-0.5c-0.4-0.7-1.2-0.9-2-0.8     c-0.2,0-0.3,0.1-0.4,0.2c-0.2,0.1-0.1,0.2-0.3,0.2c-0.1,0-0.2,0.1-0.2,0.2C54.1-71.7,54.1-71.7,54.1-71.7     C54.1-71.6,54.1-71.6,54.1-71.7"
   id="path138" />
			<path
   fill="#FFFFFF"
   d="M46.4-71.7c0,0.1,0,0.1,0,0.2c-0.1,0.1-0.1,0.1-0.2,0.1c-0.1,0.1-0.1,0.3-0.1,0.4c-0.2,0.1,0,0.2,0,0.3     c0,0,0,0.1,0,0.2c0,0.1,0,0.3,0.1,0.4c0.1,0.2,0.3,0.4,0.4,0.5c0.2,0.1,0.4,0.6,0.6,0.6c0.2,0,0.4-0.1,0.5-0.1     c0.2,0,0.4,0,0.6-0.1c0.2-0.1,0.1-0.3,0.3-0.5c0.1-0.1,0.3,0,0.4-0.1c0.2-0.1,0.3-0.3,0.4-0.5c0-0.1,0-0.1,0-0.2     c0-0.1,0.1-0.2,0.1-0.3c0-0.1-0.1-0.1-0.1-0.2c0-0.1,0-0.2,0-0.3c0-0.2,0-0.4-0.1-0.5c-0.4-0.7-1.2-0.9-2-0.8     c-0.2,0-0.3,0.1-0.4,0.2c-0.2,0.1-0.1,0.2-0.3,0.2c-0.1,0-0.2,0.1-0.2,0.2C46.4-71.7,46.4-71.7,46.4-71.7     C46.4-71.6,46.4-71.6,46.4-71.7"
   id="path140" />
			<path
   fill="#FFFFFF"
   d="M38.8-71.7c0,0.1,0,0.1,0,0.2c-0.1,0.1-0.1,0.1-0.2,0.1c-0.1,0.1-0.1,0.3-0.1,0.4c-0.2,0.1,0,0.2,0,0.3     c0,0,0,0.1,0,0.2c0,0.1,0,0.3,0.1,0.4c0.1,0.2,0.3,0.4,0.4,0.5c0.2,0.1,0.4,0.6,0.6,0.6c0.2,0,0.4-0.1,0.5-0.1     c0.2,0,0.4,0,0.6-0.1c0.2-0.1,0.1-0.3,0.3-0.5c0.1-0.1,0.3,0,0.4-0.1c0.2-0.1,0.3-0.3,0.4-0.5c0-0.1,0-0.1,0-0.2     c0-0.1,0.1-0.2,0.1-0.3c0-0.1-0.1-0.1-0.1-0.2c0-0.1,0-0.2,0-0.3c0-0.2,0-0.4-0.1-0.5c-0.4-0.7-1.2-0.9-2-0.8     c-0.2,0-0.3,0.1-0.4,0.2c-0.2,0.1-0.1,0.2-0.3,0.2c-0.1,0-0.2,0.1-0.2,0.2C38.8-71.7,38.8-71.7,38.8-71.7     C38.8-71.6,38.8-71.6,38.8-71.7"
   id="path142" />
			<path
   fill="#FFFFFF"
   d="M31.1-71.7c0,0.1,0,0.1,0,0.2c-0.1,0.1-0.1,0.1-0.2,0.1c-0.1,0.1-0.1,0.3-0.1,0.4c-0.2,0.1,0,0.2,0,0.3     c0,0,0,0.1,0,0.2c0,0.1,0,0.3,0.1,0.4c0.1,0.2,0.3,0.4,0.4,0.5c0.2,0.1,0.4,0.6,0.6,0.6c0.2,0,0.4-0.1,0.5-0.1     c0.2,0,0.4,0,0.6-0.1c0.2-0.1,0.1-0.3,0.3-0.5c0.1-0.1,0.3,0,0.4-0.1c0.2-0.1,0.3-0.3,0.4-0.5c0-0.1,0-0.1,0-0.2     c0-0.1,0.1-0.2,0.1-0.3c0-0.1-0.1-0.1-0.1-0.2c0-0.1,0-0.2,0-0.3c0-0.2,0-0.4-0.1-0.5c-0.4-0.7-1.2-0.9-2-0.8     c-0.2,0-0.3,0.1-0.4,0.2c-0.2,0.1-0.1,0.2-0.3,0.2c-0.1,0-0.2,0.1-0.2,0.2C31.1-71.7,31.1-71.7,31.1-71.7     C31.1-71.6,31.1-71.6,31.1-71.7"
   id="path144" />
			<path
   fill="#FFFFFF"
   d="M23.4-71.7c0,0.1,0,0.1,0,0.2c-0.1,0.1-0.1,0.1-0.2,0.1c-0.1,0.1-0.1,0.3-0.1,0.4c-0.2,0.1,0,0.2,0,0.3     c0,0,0,0.1,0,0.2c0,0.1,0,0.3,0.1,0.4c0.1,0.2,0.3,0.4,0.4,0.5c0.2,0.1,0.4,0.6,0.6,0.6c0.2,0,0.4-0.1,0.5-0.1     c0.2,0,0.4,0,0.6-0.1c0.2-0.1,0.1-0.3,0.3-0.5c0.1-0.1,0.3,0,0.4-0.1c0.2-0.1,0.3-0.3,0.4-0.5c0-0.1,0-0.1,0-0.2     c0-0.1,0.1-0.2,0.1-0.3c0-0.1-0.1-0.1-0.1-0.2c0-0.1,0-0.2,0-0.3c0-0.2,0-0.4-0.1-0.5c-0.4-0.7-1.2-0.9-2-0.8     c-0.2,0-0.3,0.1-0.4,0.2c-0.2,0.1-0.1,0.2-0.3,0.2c-0.1,0-0.2,0.1-0.2,0.2C23.4-71.7,23.4-71.7,23.4-71.7     C23.4-71.6,23.4-71.6,23.4-71.7"
   id="path146" />
			<path
   fill="#FFFFFF"
   d="M15.8-71.7c0,0.1,0,0.1,0,0.2c-0.1,0.1-0.1,0.1-0.2,0.1c-0.1,0.1-0.1,0.3-0.1,0.4c-0.2,0.1,0,0.2,0,0.3     c0,0,0,0.1,0,0.2c0,0.1,0,0.3,0.1,0.4c0.1,0.2,0.3,0.4,0.4,0.5c0.2,0.1,0.4,0.6,0.6,0.6c0.2,0,0.4-0.1,0.5-0.1     c0.2,0,0.4,0,0.6-0.1c0.2-0.1,0.1-0.3,0.3-0.5c0.1-0.1,0.3,0,0.4-0.1c0.2-0.1,0.3-0.3,0.4-0.5c0-0.1,0-0.1,0-0.2     c0-0.1,0.1-0.2,0.1-0.3c0-0.1-0.1-0.1-0.1-0.2c0-0.1,0-0.2,0-0.3c0-0.2,0-0.4-0.1-0.5c-0.4-0.7-1.2-0.9-2-0.8     c-0.2,0-0.3,0.1-0.4,0.2c-0.2,0.1-0.1,0.2-0.3,0.2c-0.1,0-0.2,0.1-0.2,0.2C15.8-71.7,15.8-71.7,15.8-71.7     C15.8-71.6,15.8-71.6,15.8-71.7"
   id="path148" />
			<path
   fill="#FFFFFF"
   d="M8.1-71.7c0,0.1,0,0.1,0,0.2C8-71.4,8-71.4,7.9-71.3c-0.1,0.1-0.1,0.3-0.1,0.4c-0.2,0.1,0,0.2,0,0.3     c0,0,0,0.1,0,0.2c0,0.1,0,0.3,0.1,0.4c0.1,0.2,0.3,0.4,0.4,0.5c0.2,0.1,0.4,0.6,0.6,0.6c0.2,0,0.4-0.1,0.5-0.1     c0.2,0,0.4,0,0.6-0.1c0.2-0.1,0.1-0.3,0.3-0.5c0.1-0.1,0.3,0,0.4-0.1c0.2-0.1,0.3-0.3,0.4-0.5c0-0.1,0-0.1,0-0.2     c0-0.1,0.1-0.2,0.1-0.3c0-0.1-0.1-0.1-0.1-0.2c0-0.1,0-0.2,0-0.3c0-0.2,0-0.4-0.1-0.5c-0.4-0.7-1.2-0.9-2-0.8     c-0.2,0-0.3,0.1-0.4,0.2c-0.2,0.1-0.1,0.2-0.3,0.2c-0.1,0-0.2,0.1-0.2,0.2C8.1-71.7,8.1-71.7,8.1-71.7     C8.1-71.6,8.1-71.6,8.1-71.7"
   id="path150" />
			<path
   fill="#FFFFFF"
   d="M0.4-71.7c0,0.1,0,0.1,0,0.2c-0.1,0.1-0.1,0.1-0.2,0.1c-0.1,0.1-0.1,0.3-0.1,0.4c-0.2,0.1,0,0.2,0,0.3     c0,0,0,0.1,0,0.2c0,0.1,0,0.3,0.1,0.4c0.1,0.2,0.3,0.4,0.4,0.5C0.8-69.4,1-69,1.2-68.9c0.2,0,0.4-0.1,0.5-0.1     c0.2,0,0.4,0,0.6-0.1c0.2-0.1,0.1-0.3,0.3-0.5c0.1-0.1,0.3,0,0.4-0.1c0.2-0.1,0.3-0.3,0.4-0.5c0-0.1,0-0.1,0-0.2     c0-0.1,0.1-0.2,0.1-0.3c0-0.1-0.1-0.1-0.1-0.2c0-0.1,0-0.2,0-0.3c0-0.2,0-0.4-0.1-0.5c-0.4-0.7-1.2-0.9-2-0.8     c-0.2,0-0.3,0.1-0.4,0.2c-0.2,0.1-0.1,0.2-0.3,0.2c-0.1,0-0.2,0.1-0.2,0.2C0.4-71.7,0.4-71.7,0.4-71.7     C0.4-71.6,0.4-71.6,0.4-71.7"
   id="path152" />
		</g>
		<g
   id="g158">
			<path
   fill="#FFFFFF"
   d="M69.4-71.7c0,0.1,0,0.1,0,0.2c-0.1,0.1-0.1,0.1-0.2,0.1c-0.1,0.1-0.1,0.3-0.1,0.4c-0.2,0.1,0,0.2,0,0.3     c0,0,0,0.1,0,0.2c0,0.1,0,0.3,0.1,0.4c0.1,0.2,0.3,0.4,0.4,0.5c0.2,0.1,0.4,0.6,0.6,0.6c0.2,0,0.4-0.1,0.5-0.1     c0.2,0,0.4,0,0.6-0.1c0.2-0.1,0.1-0.3,0.3-0.5c0.1-0.1,0.3,0,0.4-0.1c0.2-0.1,0.3-0.3,0.4-0.5c0-0.1,0-0.1,0-0.2     c0-0.1,0.1-0.2,0.1-0.3c0-0.1-0.1-0.1-0.1-0.2c0-0.1,0-0.2,0-0.3c0-0.2,0-0.4-0.1-0.5c-0.4-0.7-1.2-0.9-2-0.8     c-0.2,0-0.3,0.1-0.4,0.2c-0.2,0.1-0.1,0.2-0.3,0.2c-0.1,0-0.2,0.1-0.2,0.2C69.4-71.7,69.4-71.7,69.4-71.7     C69.4-71.6,69.4-71.6,69.4-71.7"
   id="path156" />
		</g>
		<path
   fill="#FFFFFF"
   d="M0.5-71.7c0,0.1,0,0.1,0,0.2c-0.1,0.1-0.1,0.1-0.2,0.1c-0.1,0.1-0.1,0.3-0.1,0.4c-0.2,0.1,0,0.2,0,0.3    c0,0,0,0.1,0,0.2c0,0.1,0,0.3,0.1,0.4c0.1,0.2,0.3,0.4,0.4,0.5C0.9-69.4,1-69,1.3-68.9c0.2,0,0.4-0.1,0.5-0.1c0.2,0,0.4,0,0.6-0.1    c0.2-0.1,0.1-0.3,0.3-0.5c0.1-0.1,0.3,0,0.4-0.1c0.2-0.1,0.3-0.3,0.4-0.5c0-0.1,0-0.1,0-0.2c0-0.1,0.1-0.2,0.1-0.3    c0-0.1-0.1-0.1-0.1-0.2c0-0.1,0-0.2,0-0.3c0-0.2,0-0.4-0.1-0.5c-0.4-0.7-1.2-0.9-2-0.8c-0.2,0-0.3,0.1-0.4,0.2    c-0.2,0.1-0.1,0.2-0.3,0.2c-0.1,0-0.2,0.1-0.2,0.2C0.5-71.7,0.5-71.7,0.5-71.7C0.5-71.6,0.5-71.6,0.5-71.7"
   id="path160" />
		<g
   id="g338">
			<g
   id="g182">
				<path
   fill="#FFFFFF"
   d="M69.4-64c0,0.1,0,0.1,0,0.2c-0.1,0.1-0.1,0.1-0.2,0.1c-0.1,0.1-0.1,0.3-0.1,0.4c-0.2,0.1,0,0.2,0,0.3      c0,0,0,0.1,0,0.2c0,0.1,0,0.3,0.1,0.4c0.1,0.2,0.3,0.4,0.4,0.5c0.2,0.1,0.4,0.6,0.6,0.6c0.2,0,0.4-0.1,0.5-0.1      c0.2,0,0.4,0,0.6-0.1c0.2-0.1,0.1-0.3,0.3-0.5c0.1-0.1,0.3,0,0.4-0.1c0.2-0.1,0.3-0.3,0.4-0.5c0-0.1,0-0.1,0-0.2      c0-0.1,0.1-0.2,0.1-0.3c0-0.1-0.1-0.1-0.1-0.2c0-0.1,0-0.2,0-0.3c0-0.2,0-0.4-0.1-0.5c-0.4-0.7-1.2-0.9-2-0.8      c-0.2,0-0.3,0.1-0.4,0.2c-0.2,0.1-0.1,0.2-0.3,0.2c-0.1,0-0.2,0.1-0.2,0.2C69.4-64,69.4-64.1,69.4-64C69.4-64,69.4-64,69.4-64"
   id="path162" />
				<path
   fill="#FFFFFF"
   d="M61.8-64c0,0.1,0,0.1,0,0.2c-0.1,0.1-0.1,0.1-0.2,0.1c-0.1,0.1-0.1,0.3-0.1,0.4c-0.2,0.1,0,0.2,0,0.3      c0,0,0,0.1,0,0.2c0,0.1,0,0.3,0.1,0.4c0.1,0.2,0.3,0.4,0.4,0.5c0.2,0.1,0.4,0.6,0.6,0.6c0.2,0,0.4-0.1,0.5-0.1      c0.2,0,0.4,0,0.6-0.1c0.2-0.1,0.1-0.3,0.3-0.5c0.1-0.1,0.3,0,0.4-0.1c0.2-0.1,0.3-0.3,0.4-0.5c0-0.1,0-0.1,0-0.2      c0-0.1,0.1-0.2,0.1-0.3c0-0.1-0.1-0.1-0.1-0.2c0-0.1,0-0.2,0-0.3c0-0.2,0-0.4-0.1-0.5c-0.4-0.7-1.2-0.9-2-0.8      c-0.2,0-0.3,0.1-0.4,0.2c-0.2,0.1-0.1,0.2-0.3,0.2c-0.1,0-0.2,0.1-0.2,0.2C61.8-64,61.8-64.1,61.8-64C61.8-64,61.8-64,61.8-64"
   id="path164" />
				<path
   fill="#FFFFFF"
   d="M54.1-64c0,0.1,0,0.1,0,0.2c-0.1,0.1-0.1,0.1-0.2,0.1c-0.1,0.1-0.1,0.3-0.1,0.4c-0.2,0.1,0,0.2,0,0.3      c0,0,0,0.1,0,0.2c0,0.1,0,0.3,0.1,0.4c0.1,0.2,0.3,0.4,0.4,0.5c0.2,0.1,0.4,0.6,0.6,0.6c0.2,0,0.4-0.1,0.5-0.1      c0.2,0,0.4,0,0.6-0.1c0.2-0.1,0.1-0.3,0.3-0.5c0.1-0.1,0.3,0,0.4-0.1c0.2-0.1,0.3-0.3,0.4-0.5c0-0.1,0-0.1,0-0.2      c0-0.1,0.1-0.2,0.1-0.3c0-0.1-0.1-0.1-0.1-0.2c0-0.1,0-0.2,0-0.3c0-0.2,0-0.4-0.1-0.5c-0.4-0.7-1.2-0.9-2-0.8      c-0.2,0-0.3,0.1-0.4,0.2c-0.2,0.1-0.1,0.2-0.3,0.2c-0.1,0-0.2,0.1-0.2,0.2C54.1-64,54.1-64.1,54.1-64C54.1-64,54.1-64,54.1-64"
   id="path166" />
				<path
   fill="#FFFFFF"
   d="M46.5-64c0,0.1,0,0.1,0,0.2c-0.1,0.1-0.1,0.1-0.2,0.1c-0.1,0.1-0.1,0.3-0.1,0.4c-0.2,0.1,0,0.2,0,0.3      c0,0,0,0.1,0,0.2c0,0.1,0,0.3,0.1,0.4c0.1,0.2,0.3,0.4,0.4,0.5c0.2,0.1,0.4,0.6,0.6,0.6c0.2,0,0.4-0.1,0.5-0.1      c0.2,0,0.4,0,0.6-0.1c0.2-0.1,0.1-0.3,0.3-0.5c0.1-0.1,0.3,0,0.4-0.1c0.2-0.1,0.3-0.3,0.4-0.5c0-0.1,0-0.1,0-0.2      c0-0.1,0.1-0.2,0.1-0.3c0-0.1-0.1-0.1-0.1-0.2c0-0.1,0-0.2,0-0.3c0-0.2,0-0.4-0.1-0.5c-0.4-0.7-1.2-0.9-2-0.8      c-0.2,0-0.3,0.1-0.4,0.2c-0.2,0.1-0.1,0.2-0.3,0.2c-0.1,0-0.2,0.1-0.2,0.2C46.5-64,46.5-64.1,46.5-64C46.5-64,46.5-64,46.5-64"
   id="path168" />
				<path
   fill="#FFFFFF"
   d="M38.8-64c0,0.1,0,0.1,0,0.2c-0.1,0.1-0.1,0.1-0.2,0.1c-0.1,0.1-0.1,0.3-0.1,0.4c-0.2,0.1,0,0.2,0,0.3      c0,0,0,0.1,0,0.2c0,0.1,0,0.3,0.1,0.4c0.1,0.2,0.3,0.4,0.4,0.5c0.2,0.1,0.4,0.6,0.6,0.6c0.2,0,0.4-0.1,0.5-0.1      c0.2,0,0.4,0,0.6-0.1c0.2-0.1,0.1-0.3,0.3-0.5c0.1-0.1,0.3,0,0.4-0.1c0.2-0.1,0.3-0.3,0.4-0.5c0-0.1,0-0.1,0-0.2      c0-0.1,0.1-0.2,0.1-0.3c0-0.1-0.1-0.1-0.1-0.2c0-0.1,0-0.2,0-0.3c0-0.2,0-0.4-0.1-0.5c-0.4-0.7-1.2-0.9-2-0.8      c-0.2,0-0.3,0.1-0.4,0.2c-0.2,0.1-0.1,0.2-0.3,0.2c-0.1,0-0.2,0.1-0.2,0.2C38.8-64,38.8-64.1,38.8-64C38.8-64,38.8-64,38.8-64"
   id="path170" />
				<path
   fill="#FFFFFF"
   d="M31.1-64c0,0.1,0,0.1,0,0.2c-0.1,0.1-0.1,0.1-0.2,0.1c-0.1,0.1-0.1,0.3-0.1,0.4c-0.2,0.1,0,0.2,0,0.3      c0,0,0,0.1,0,0.2c0,0.1,0,0.3,0.1,0.4c0.1,0.2,0.3,0.4,0.4,0.5c0.2,0.1,0.4,0.6,0.6,0.6c0.2,0,0.4-0.1,0.5-0.1      c0.2,0,0.4,0,0.6-0.1c0.2-0.1,0.1-0.3,0.3-0.5c0.1-0.1,0.3,0,0.4-0.1c0.2-0.1,0.3-0.3,0.4-0.5c0-0.1,0-0.1,0-0.2      c0-0.1,0.1-0.2,0.1-0.3c0-0.1-0.1-0.1-0.1-0.2c0-0.1,0-0.2,0-0.3c0-0.2,0-0.4-0.1-0.5c-0.4-0.7-1.2-0.9-2-0.8      c-0.2,0-0.3,0.1-0.4,0.2c-0.2,0.1-0.1,0.2-0.3,0.2c-0.1,0-0.2,0.1-0.2,0.2C31.1-64,31.1-64.1,31.1-64C31.1-64,31.1-64,31.1-64"
   id="path172" />
				<path
   fill="#FFFFFF"
   d="M23.5-64c0,0.1,0,0.1,0,0.2c-0.1,0.1-0.1,0.1-0.2,0.1c-0.1,0.1-0.1,0.3-0.1,0.4c-0.2,0.1,0,0.2,0,0.3      c0,0,0,0.1,0,0.2c0,0.1,0,0.3,0.1,0.4c0.1,0.2,0.3,0.4,0.4,0.5c0.2,0.1,0.4,0.6,0.6,0.6c0.2,0,0.4-0.1,0.5-0.1      c0.2,0,0.4,0,0.6-0.1c0.2-0.1,0.1-0.3,0.3-0.5c0.1-0.1,0.3,0,0.4-0.1c0.2-0.1,0.3-0.3,0.4-0.5c0-0.1,0-0.1,0-0.2      c0-0.1,0.1-0.2,0.1-0.3c0-0.1-0.1-0.1-0.1-0.2c0-0.1,0-0.2,0-0.3c0-0.2,0-0.4-0.1-0.5c-0.4-0.7-1.2-0.9-2-0.8      c-0.2,0-0.3,0.1-0.4,0.2c-0.2,0.1-0.1,0.2-0.3,0.2c-0.1,0-0.2,0.1-0.2,0.2C23.5-64,23.5-64.1,23.5-64C23.5-64,23.5-64,23.5-64"
   id="path174" />
				<path
   fill="#FFFFFF"
   d="M15.8-64c0,0.1,0,0.1,0,0.2c-0.1,0.1-0.1,0.1-0.2,0.1c-0.1,0.1-0.1,0.3-0.1,0.4c-0.2,0.1,0,0.2,0,0.3      c0,0,0,0.1,0,0.2c0,0.1,0,0.3,0.1,0.4c0.1,0.2,0.3,0.4,0.4,0.5c0.2,0.1,0.4,0.6,0.6,0.6c0.2,0,0.4-0.1,0.5-0.1      c0.2,0,0.4,0,0.6-0.1c0.2-0.1,0.1-0.3,0.3-0.5c0.1-0.1,0.3,0,0.4-0.1c0.2-0.1,0.3-0.3,0.4-0.5c0-0.1,0-0.1,0-0.2      c0-0.1,0.1-0.2,0.1-0.3c0-0.1-0.1-0.1-0.1-0.2c0-0.1,0-0.2,0-0.3c0-0.2,0-0.4-0.1-0.5c-0.4-0.7-1.2-0.9-2-0.8      c-0.2,0-0.3,0.1-0.4,0.2c-0.2,0.1-0.1,0.2-0.3,0.2c-0.1,0-0.2,0.1-0.2,0.2C15.8-64,15.8-64.1,15.8-64C15.8-64,15.8-64,15.8-64"
   id="path176" />
				<path
   fill="#FFFFFF"
   d="M8.2-64c0,0.1,0,0.1,0,0.2C8.1-63.7,8-63.7,8-63.7c-0.1,0.1-0.1,0.3-0.1,0.4c-0.2,0.1,0,0.2,0,0.3      c0,0,0,0.1,0,0.2c0,0.1,0,0.3,0.1,0.4C8-62.2,8.2-62,8.3-61.9c0.2,0.1,0.4,0.6,0.6,0.6c0.2,0,0.4-0.1,0.5-0.1      c0.2,0,0.4,0,0.6-0.1c0.2-0.1,0.1-0.3,0.3-0.5c0.1-0.1,0.3,0,0.4-0.1c0.2-0.1,0.3-0.3,0.4-0.5c0-0.1,0-0.1,0-0.2      c0-0.1,0.1-0.2,0.1-0.3c0-0.1-0.1-0.1-0.1-0.2c0-0.1,0-0.2,0-0.3c0-0.2,0-0.4-0.1-0.5c-0.4-0.7-1.2-0.9-2-0.8      c-0.2,0-0.3,0.1-0.4,0.2c-0.2,0.1-0.1,0.2-0.3,0.2c-0.1,0-0.2,0.1-0.2,0.2C8.2-64,8.2-64.1,8.2-64C8.1-64,8.1-64,8.2-64"
   id="path178" />
				<path
   fill="#FFFFFF"
   d="M0.5-64c0,0.1,0,0.1,0,0.2c-0.1,0.1-0.1,0.1-0.2,0.1c-0.1,0.1-0.1,0.3-0.1,0.4c-0.2,0.1,0,0.2,0,0.3      c0,0,0,0.1,0,0.2c0,0.1,0,0.3,0.1,0.4c0.1,0.2,0.3,0.4,0.4,0.5c0.2,0.1,0.4,0.6,0.6,0.6c0.2,0,0.4-0.1,0.5-0.1      c0.2,0,0.4,0,0.6-0.1c0.2-0.1,0.1-0.3,0.3-0.5C2.8-62,3-61.9,3.1-62c0.2-0.1,0.3-0.3,0.4-0.5c0-0.1,0-0.1,0-0.2      c0-0.1,0.1-0.2,0.1-0.3c0-0.1-0.1-0.1-0.1-0.2c0-0.1,0-0.2,0-0.3c0-0.2,0-0.4-0.1-0.5c-0.4-0.7-1.2-0.9-2-0.8      c-0.2,0-0.3,0.1-0.4,0.2c-0.2,0.1-0.1,0.2-0.3,0.2c-0.1,0-0.2,0.1-0.2,0.2C0.5-64,0.5-64.1,0.5-64C0.5-64,0.5-64,0.5-64"
   id="path180" />
			</g>
			<g
   id="g204">
				<path
   fill="#FFFFFF"
   d="M69.4-56.3c0,0.1,0,0.1,0,0.2c-0.1,0.1-0.1,0.1-0.2,0.1c-0.1,0.1-0.1,0.3-0.1,0.4c-0.2,0.1,0,0.2,0,0.3      c0,0,0,0.1,0,0.2c0,0.1,0,0.3,0.1,0.4c0.1,0.2,0.3,0.4,0.4,0.5c0.2,0.1,0.4,0.6,0.6,0.6c0.2,0,0.4-0.1,0.5-0.1      c0.2,0,0.4,0,0.6-0.1c0.2-0.1,0.1-0.3,0.3-0.5c0.1-0.1,0.3,0,0.4-0.1c0.2-0.1,0.3-0.3,0.4-0.5c0-0.1,0-0.1,0-0.2      c0-0.1,0.1-0.2,0.1-0.3c0-0.1-0.1-0.1-0.1-0.2c0-0.1,0-0.2,0-0.3c0-0.2,0-0.4-0.1-0.5c-0.4-0.7-1.2-0.9-2-0.8      c-0.2,0-0.3,0.1-0.4,0.2c-0.2,0.1-0.1,0.2-0.3,0.2c-0.1,0-0.2,0.1-0.2,0.2C69.4-56.4,69.4-56.4,69.4-56.3      C69.4-56.3,69.4-56.3,69.4-56.3"
   id="path184" />
				<path
   fill="#FFFFFF"
   d="M61.8-56.3c0,0.1,0,0.1,0,0.2c-0.1,0.1-0.1,0.1-0.2,0.1c-0.1,0.1-0.1,0.3-0.1,0.4c-0.2,0.1,0,0.2,0,0.3      c0,0,0,0.1,0,0.2c0,0.1,0,0.3,0.1,0.4c0.1,0.2,0.3,0.4,0.4,0.5c0.2,0.1,0.4,0.6,0.6,0.6c0.2,0,0.4-0.1,0.5-0.1      c0.2,0,0.4,0,0.6-0.1c0.2-0.1,0.1-0.3,0.3-0.5c0.1-0.1,0.3,0,0.4-0.1c0.2-0.1,0.3-0.3,0.4-0.5c0-0.1,0-0.1,0-0.2      c0-0.1,0.1-0.2,0.1-0.3c0-0.1-0.1-0.1-0.1-0.2c0-0.1,0-0.2,0-0.3c0-0.2,0-0.4-0.1-0.5c-0.4-0.7-1.2-0.9-2-0.8      c-0.2,0-0.3,0.1-0.4,0.2c-0.2,0.1-0.1,0.2-0.3,0.2c-0.1,0-0.2,0.1-0.2,0.2C61.8-56.4,61.8-56.4,61.8-56.3      C61.8-56.3,61.8-56.3,61.8-56.3"
   id="path186" />
				<path
   fill="#FFFFFF"
   d="M54.1-56.3c0,0.1,0,0.1,0,0.2C54-56.1,54-56.1,53.9-56c-0.1,0.1-0.1,0.3-0.1,0.4c-0.2,0.1,0,0.2,0,0.3      c0,0,0,0.1,0,0.2c0,0.1,0,0.3,0.1,0.4c0.1,0.2,0.3,0.4,0.4,0.5c0.2,0.1,0.4,0.6,0.6,0.6c0.2,0,0.4-0.1,0.5-0.1      c0.2,0,0.4,0,0.6-0.1c0.2-0.1,0.1-0.3,0.3-0.5c0.1-0.1,0.3,0,0.4-0.1c0.2-0.1,0.3-0.3,0.4-0.5c0-0.1,0-0.1,0-0.2      c0-0.1,0.1-0.2,0.1-0.3c0-0.1-0.1-0.1-0.1-0.2c0-0.1,0-0.2,0-0.3c0-0.2,0-0.4-0.1-0.5c-0.4-0.7-1.2-0.9-2-0.8      c-0.2,0-0.3,0.1-0.4,0.2c-0.2,0.1-0.1,0.2-0.3,0.2c-0.1,0-0.2,0.1-0.2,0.2C54.1-56.4,54.1-56.4,54.1-56.3      C54.1-56.3,54.1-56.3,54.1-56.3"
   id="path188" />
				<path
   fill="#FFFFFF"
   d="M46.5-56.3c0,0.1,0,0.1,0,0.2c-0.1,0.1-0.1,0.1-0.2,0.1c-0.1,0.1-0.1,0.3-0.1,0.4c-0.2,0.1,0,0.2,0,0.3      c0,0,0,0.1,0,0.2c0,0.1,0,0.3,0.1,0.4c0.1,0.2,0.3,0.4,0.4,0.5c0.2,0.1,0.4,0.6,0.6,0.6c0.2,0,0.4-0.1,0.5-0.1      c0.2,0,0.4,0,0.6-0.1c0.2-0.1,0.1-0.3,0.3-0.5c0.1-0.1,0.3,0,0.4-0.1c0.2-0.1,0.3-0.3,0.4-0.5c0-0.1,0-0.1,0-0.2      c0-0.1,0.1-0.2,0.1-0.3c0-0.1-0.1-0.1-0.1-0.2c0-0.1,0-0.2,0-0.3c0-0.2,0-0.4-0.1-0.5c-0.4-0.7-1.2-0.9-2-0.8      c-0.2,0-0.3,0.1-0.4,0.2c-0.2,0.1-0.1,0.2-0.3,0.2c-0.1,0-0.2,0.1-0.2,0.2C46.5-56.4,46.5-56.4,46.5-56.3      C46.5-56.3,46.5-56.3,46.5-56.3"
   id="path190" />
				<path
   fill="#FFFFFF"
   d="M38.8-56.3c0,0.1,0,0.1,0,0.2c-0.1,0.1-0.1,0.1-0.2,0.1c-0.1,0.1-0.1,0.3-0.1,0.4c-0.2,0.1,0,0.2,0,0.3      c0,0,0,0.1,0,0.2c0,0.1,0,0.3,0.1,0.4c0.1,0.2,0.3,0.4,0.4,0.5c0.2,0.1,0.4,0.6,0.6,0.6c0.2,0,0.4-0.1,0.5-0.1      c0.2,0,0.4,0,0.6-0.1c0.2-0.1,0.1-0.3,0.3-0.5c0.1-0.1,0.3,0,0.4-0.1c0.2-0.1,0.3-0.3,0.4-0.5c0-0.1,0-0.1,0-0.2      c0-0.1,0.1-0.2,0.1-0.3c0-0.1-0.1-0.1-0.1-0.2c0-0.1,0-0.2,0-0.3c0-0.2,0-0.4-0.1-0.5c-0.4-0.7-1.2-0.9-2-0.8      c-0.2,0-0.3,0.1-0.4,0.2c-0.2,0.1-0.1,0.2-0.3,0.2c-0.1,0-0.2,0.1-0.2,0.2C38.8-56.4,38.8-56.4,38.8-56.3      C38.8-56.3,38.8-56.3,38.8-56.3"
   id="path192" />
				<path
   fill="#FFFFFF"
   d="M31.1-56.3c0,0.1,0,0.1,0,0.2c-0.1,0.1-0.1,0.1-0.2,0.1c-0.1,0.1-0.1,0.3-0.1,0.4c-0.2,0.1,0,0.2,0,0.3      c0,0,0,0.1,0,0.2c0,0.1,0,0.3,0.1,0.4c0.1,0.2,0.3,0.4,0.4,0.5c0.2,0.1,0.4,0.6,0.6,0.6c0.2,0,0.4-0.1,0.5-0.1      c0.2,0,0.4,0,0.6-0.1c0.2-0.1,0.1-0.3,0.3-0.5c0.1-0.1,0.3,0,0.4-0.1c0.2-0.1,0.3-0.3,0.4-0.5c0-0.1,0-0.1,0-0.2      c0-0.1,0.1-0.2,0.1-0.3c0-0.1-0.1-0.1-0.1-0.2c0-0.1,0-0.2,0-0.3c0-0.2,0-0.4-0.1-0.5c-0.4-0.7-1.2-0.9-2-0.8      c-0.2,0-0.3,0.1-0.4,0.2c-0.2,0.1-0.1,0.2-0.3,0.2c-0.1,0-0.2,0.1-0.2,0.2C31.1-56.4,31.1-56.4,31.1-56.3      C31.1-56.3,31.1-56.3,31.1-56.3"
   id="path194" />
				<path
   fill="#FFFFFF"
   d="M23.5-56.3c0,0.1,0,0.1,0,0.2c-0.1,0.1-0.1,0.1-0.2,0.1c-0.1,0.1-0.1,0.3-0.1,0.4c-0.2,0.1,0,0.2,0,0.3      c0,0,0,0.1,0,0.2c0,0.1,0,0.3,0.1,0.4c0.1,0.2,0.3,0.4,0.4,0.5c0.2,0.1,0.4,0.6,0.6,0.6c0.2,0,0.4-0.1,0.5-0.1      c0.2,0,0.4,0,0.6-0.1c0.2-0.1,0.1-0.3,0.3-0.5c0.1-0.1,0.3,0,0.4-0.1c0.2-0.1,0.3-0.3,0.4-0.5c0-0.1,0-0.1,0-0.2      c0-0.1,0.1-0.2,0.1-0.3c0-0.1-0.1-0.1-0.1-0.2c0-0.1,0-0.2,0-0.3c0-0.2,0-0.4-0.1-0.5c-0.4-0.7-1.2-0.9-2-0.8      c-0.2,0-0.3,0.1-0.4,0.2c-0.2,0.1-0.1,0.2-0.3,0.2c-0.1,0-0.2,0.1-0.2,0.2C23.5-56.4,23.5-56.4,23.5-56.3      C23.5-56.3,23.5-56.3,23.5-56.3"
   id="path196" />
				<path
   fill="#FFFFFF"
   d="M15.8-56.3c0,0.1,0,0.1,0,0.2c-0.1,0.1-0.1,0.1-0.2,0.1c-0.1,0.1-0.1,0.3-0.1,0.4c-0.2,0.1,0,0.2,0,0.3      c0,0,0,0.1,0,0.2c0,0.1,0,0.3,0.1,0.4c0.1,0.2,0.3,0.4,0.4,0.5c0.2,0.1,0.4,0.6,0.6,0.6c0.2,0,0.4-0.1,0.5-0.1      c0.2,0,0.4,0,0.6-0.1c0.2-0.1,0.1-0.3,0.3-0.5c0.1-0.1,0.3,0,0.4-0.1c0.2-0.1,0.3-0.3,0.4-0.5c0-0.1,0-0.1,0-0.2      c0-0.1,0.1-0.2,0.1-0.3c0-0.1-0.1-0.1-0.1-0.2c0-0.1,0-0.2,0-0.3c0-0.2,0-0.4-0.1-0.5c-0.4-0.7-1.2-0.9-2-0.8      c-0.2,0-0.3,0.1-0.4,0.2c-0.2,0.1-0.1,0.2-0.3,0.2c-0.1,0-0.2,0.1-0.2,0.2C15.8-56.4,15.8-56.4,15.8-56.3      C15.8-56.3,15.8-56.3,15.8-56.3"
   id="path198" />
				<path
   fill="#FFFFFF"
   d="M8.2-56.3c0,0.1,0,0.1,0,0.2C8.1-56.1,8-56.1,8-56c-0.1,0.1-0.1,0.3-0.1,0.4c-0.2,0.1,0,0.2,0,0.3      c0,0,0,0.1,0,0.2c0,0.1,0,0.3,0.1,0.4c0.1,0.2,0.3,0.4,0.4,0.5c0.2,0.1,0.4,0.6,0.6,0.6c0.2,0,0.4-0.1,0.5-0.1      c0.2,0,0.4,0,0.6-0.1c0.2-0.1,0.1-0.3,0.3-0.5c0.1-0.1,0.3,0,0.4-0.1c0.2-0.1,0.3-0.3,0.4-0.5c0-0.1,0-0.1,0-0.2      c0-0.1,0.1-0.2,0.1-0.3c0-0.1-0.1-0.1-0.1-0.2c0-0.1,0-0.2,0-0.3c0-0.2,0-0.4-0.1-0.5c-0.4-0.7-1.2-0.9-2-0.8      c-0.2,0-0.3,0.1-0.4,0.2c-0.2,0.1-0.1,0.2-0.3,0.2c-0.1,0-0.2,0.1-0.2,0.2C8.2-56.4,8.2-56.4,8.2-56.3      C8.1-56.3,8.1-56.3,8.2-56.3"
   id="path200" />
				<path
   fill="#FFFFFF"
   d="M0.5-56.3c0,0.1,0,0.1,0,0.2c-0.1,0.1-0.1,0.1-0.2,0.1c-0.1,0.1-0.1,0.3-0.1,0.4c-0.2,0.1,0,0.2,0,0.3      c0,0,0,0.1,0,0.2c0,0.1,0,0.3,0.1,0.4c0.1,0.2,0.3,0.4,0.4,0.5c0.2,0.1,0.4,0.6,0.6,0.6c0.2,0,0.4-0.1,0.5-0.1      c0.2,0,0.4,0,0.6-0.1c0.2-0.1,0.1-0.3,0.3-0.5c0.1-0.1,0.3,0,0.4-0.1c0.2-0.1,0.3-0.3,0.4-0.5c0-0.1,0-0.1,0-0.2      c0-0.1,0.1-0.2,0.1-0.3c0-0.1-0.1-0.1-0.1-0.2c0-0.1,0-0.2,0-0.3c0-0.2,0-0.4-0.1-0.5c-0.4-0.7-1.2-0.9-2-0.8      c-0.2,0-0.3,0.1-0.4,0.2c-0.2,0.1-0.1,0.2-0.3,0.2c-0.1,0-0.2,0.1-0.2,0.2C0.5-56.4,0.5-56.4,0.5-56.3      C0.5-56.3,0.5-56.3,0.5-56.3"
   id="path202" />
			</g>
			<g
   id="g226">
				<path
   fill="#FFFFFF"
   d="M69.4-48.7c0,0.1,0,0.1,0,0.2c-0.1,0.1-0.1,0.1-0.2,0.1c-0.1,0.1-0.1,0.3-0.1,0.4c-0.2,0.1,0,0.2,0,0.3      c0,0,0,0.1,0,0.2c0,0.1,0,0.3,0.1,0.4c0.1,0.2,0.3,0.4,0.4,0.5c0.2,0.1,0.4,0.6,0.6,0.6c0.2,0,0.4-0.1,0.5-0.1      c0.2,0,0.4,0,0.6-0.1c0.2-0.1,0.1-0.3,0.3-0.5c0.1-0.1,0.3,0,0.4-0.1c0.2-0.1,0.3-0.3,0.4-0.5c0-0.1,0-0.1,0-0.2      c0-0.1,0.1-0.2,0.1-0.3c0-0.1-0.1-0.1-0.1-0.2c0-0.1,0-0.2,0-0.3c0-0.2,0-0.4-0.1-0.5c-0.4-0.7-1.2-0.9-2-0.8      c-0.2,0-0.3,0.1-0.4,0.2c-0.2,0.1-0.1,0.2-0.3,0.2c-0.1,0-0.2,0.1-0.2,0.2C69.4-48.7,69.4-48.8,69.4-48.7      C69.4-48.7,69.4-48.7,69.4-48.7"
   id="path206" />
				<path
   fill="#FFFFFF"
   d="M61.8-48.7c0,0.1,0,0.1,0,0.2c-0.1,0.1-0.1,0.1-0.2,0.1c-0.1,0.1-0.1,0.3-0.1,0.4c-0.2,0.1,0,0.2,0,0.3      c0,0,0,0.1,0,0.2c0,0.1,0,0.3,0.1,0.4c0.1,0.2,0.3,0.4,0.4,0.5c0.2,0.1,0.4,0.6,0.6,0.6c0.2,0,0.4-0.1,0.5-0.1      c0.2,0,0.4,0,0.6-0.1c0.2-0.1,0.1-0.3,0.3-0.5c0.1-0.1,0.3,0,0.4-0.1c0.2-0.1,0.3-0.3,0.4-0.5c0-0.1,0-0.1,0-0.2      c0-0.1,0.1-0.2,0.1-0.3c0-0.1-0.1-0.1-0.1-0.2c0-0.1,0-0.2,0-0.3c0-0.2,0-0.4-0.1-0.5c-0.4-0.7-1.2-0.9-2-0.8      c-0.2,0-0.3,0.1-0.4,0.2c-0.2,0.1-0.1,0.2-0.3,0.2c-0.1,0-0.2,0.1-0.2,0.2C61.8-48.7,61.8-48.8,61.8-48.7      C61.8-48.7,61.8-48.7,61.8-48.7"
   id="path208" />
				<path
   fill="#FFFFFF"
   d="M54.1-48.7c0,0.1,0,0.1,0,0.2c-0.1,0.1-0.1,0.1-0.2,0.1c-0.1,0.1-0.1,0.3-0.1,0.4c-0.2,0.1,0,0.2,0,0.3      c0,0,0,0.1,0,0.2c0,0.1,0,0.3,0.1,0.4c0.1,0.2,0.3,0.4,0.4,0.5c0.2,0.1,0.4,0.6,0.6,0.6c0.2,0,0.4-0.1,0.5-0.1      c0.2,0,0.4,0,0.6-0.1c0.2-0.1,0.1-0.3,0.3-0.5c0.1-0.1,0.3,0,0.4-0.1c0.2-0.1,0.3-0.3,0.4-0.5c0-0.1,0-0.1,0-0.2      c0-0.1,0.1-0.2,0.1-0.3c0-0.1-0.1-0.1-0.1-0.2c0-0.1,0-0.2,0-0.3c0-0.2,0-0.4-0.1-0.5c-0.4-0.7-1.2-0.9-2-0.8      c-0.2,0-0.3,0.1-0.4,0.2c-0.2,0.1-0.1,0.2-0.3,0.2c-0.1,0-0.2,0.1-0.2,0.2C54.1-48.7,54.1-48.8,54.1-48.7      C54.1-48.7,54.1-48.7,54.1-48.7"
   id="path210" />
				<path
   fill="#FFFFFF"
   d="M46.5-48.7c0,0.1,0,0.1,0,0.2c-0.1,0.1-0.1,0.1-0.2,0.1c-0.1,0.1-0.1,0.3-0.1,0.4c-0.2,0.1,0,0.2,0,0.3      c0,0,0,0.1,0,0.2c0,0.1,0,0.3,0.1,0.4c0.1,0.2,0.3,0.4,0.4,0.5c0.2,0.1,0.4,0.6,0.6,0.6c0.2,0,0.4-0.1,0.5-0.1      c0.2,0,0.4,0,0.6-0.1c0.2-0.1,0.1-0.3,0.3-0.5c0.1-0.1,0.3,0,0.4-0.1c0.2-0.1,0.3-0.3,0.4-0.5c0-0.1,0-0.1,0-0.2      c0-0.1,0.1-0.2,0.1-0.3c0-0.1-0.1-0.1-0.1-0.2c0-0.1,0-0.2,0-0.3c0-0.2,0-0.4-0.1-0.5c-0.4-0.7-1.2-0.9-2-0.8      c-0.2,0-0.3,0.1-0.4,0.2c-0.2,0.1-0.1,0.2-0.3,0.2c-0.1,0-0.2,0.1-0.2,0.2C46.5-48.7,46.5-48.8,46.5-48.7      C46.5-48.7,46.5-48.7,46.5-48.7"
   id="path212" />
				<path
   fill="#FFFFFF"
   d="M38.8-48.7c0,0.1,0,0.1,0,0.2c-0.1,0.1-0.1,0.1-0.2,0.1c-0.1,0.1-0.1,0.3-0.1,0.4c-0.2,0.1,0,0.2,0,0.3      c0,0,0,0.1,0,0.2c0,0.1,0,0.3,0.1,0.4c0.1,0.2,0.3,0.4,0.4,0.5c0.2,0.1,0.4,0.6,0.6,0.6c0.2,0,0.4-0.1,0.5-0.1      c0.2,0,0.4,0,0.6-0.1c0.2-0.1,0.1-0.3,0.3-0.5c0.1-0.1,0.3,0,0.4-0.1c0.2-0.1,0.3-0.3,0.4-0.5c0-0.1,0-0.1,0-0.2      c0-0.1,0.1-0.2,0.1-0.3c0-0.1-0.1-0.1-0.1-0.2c0-0.1,0-0.2,0-0.3c0-0.2,0-0.4-0.1-0.5c-0.4-0.7-1.2-0.9-2-0.8      c-0.2,0-0.3,0.1-0.4,0.2c-0.2,0.1-0.1,0.2-0.3,0.2c-0.1,0-0.2,0.1-0.2,0.2C38.8-48.7,38.8-48.8,38.8-48.7      C38.8-48.7,38.8-48.7,38.8-48.7"
   id="path214" />
				<path
   fill="#FFFFFF"
   d="M31.1-48.7c0,0.1,0,0.1,0,0.2c-0.1,0.1-0.1,0.1-0.2,0.1c-0.1,0.1-0.1,0.3-0.1,0.4c-0.2,0.1,0,0.2,0,0.3      c0,0,0,0.1,0,0.2c0,0.1,0,0.3,0.1,0.4c0.1,0.2,0.3,0.4,0.4,0.5c0.2,0.1,0.4,0.6,0.6,0.6c0.2,0,0.4-0.1,0.5-0.1      c0.2,0,0.4,0,0.6-0.1c0.2-0.1,0.1-0.3,0.3-0.5c0.1-0.1,0.3,0,0.4-0.1c0.2-0.1,0.3-0.3,0.4-0.5c0-0.1,0-0.1,0-0.2      c0-0.1,0.1-0.2,0.1-0.3c0-0.1-0.1-0.1-0.1-0.2c0-0.1,0-0.2,0-0.3c0-0.2,0-0.4-0.1-0.5c-0.4-0.7-1.2-0.9-2-0.8      c-0.2,0-0.3,0.1-0.4,0.2c-0.2,0.1-0.1,0.2-0.3,0.2c-0.1,0-0.2,0.1-0.2,0.2C31.1-48.7,31.1-48.8,31.1-48.7      C31.1-48.7,31.1-48.7,31.1-48.7"
   id="path216" />
				<path
   fill="#FFFFFF"
   d="M23.5-48.7c0,0.1,0,0.1,0,0.2c-0.1,0.1-0.1,0.1-0.2,0.1c-0.1,0.1-0.1,0.3-0.1,0.4c-0.2,0.1,0,0.2,0,0.3      c0,0,0,0.1,0,0.2c0,0.1,0,0.3,0.1,0.4c0.1,0.2,0.3,0.4,0.4,0.5c0.2,0.1,0.4,0.6,0.6,0.6c0.2,0,0.4-0.1,0.5-0.1      c0.2,0,0.4,0,0.6-0.1c0.2-0.1,0.1-0.3,0.3-0.5c0.1-0.1,0.3,0,0.4-0.1c0.2-0.1,0.3-0.3,0.4-0.5c0-0.1,0-0.1,0-0.2      c0-0.1,0.1-0.2,0.1-0.3c0-0.1-0.1-0.1-0.1-0.2c0-0.1,0-0.2,0-0.3c0-0.2,0-0.4-0.1-0.5c-0.4-0.7-1.2-0.9-2-0.8      c-0.2,0-0.3,0.1-0.4,0.2c-0.2,0.1-0.1,0.2-0.3,0.2c-0.1,0-0.2,0.1-0.2,0.2C23.5-48.7,23.5-48.8,23.5-48.7      C23.5-48.7,23.5-48.7,23.5-48.7"
   id="path218" />
				<path
   fill="#FFFFFF"
   d="M15.8-48.7c0,0.1,0,0.1,0,0.2c-0.1,0.1-0.1,0.1-0.2,0.1c-0.1,0.1-0.1,0.3-0.1,0.4c-0.2,0.1,0,0.2,0,0.3      c0,0,0,0.1,0,0.2c0,0.1,0,0.3,0.1,0.4c0.1,0.2,0.3,0.4,0.4,0.5c0.2,0.1,0.4,0.6,0.6,0.6c0.2,0,0.4-0.1,0.5-0.1      c0.2,0,0.4,0,0.6-0.1c0.2-0.1,0.1-0.3,0.3-0.5c0.1-0.1,0.3,0,0.4-0.1c0.2-0.1,0.3-0.3,0.4-0.5c0-0.1,0-0.1,0-0.2      c0-0.1,0.1-0.2,0.1-0.3c0-0.1-0.1-0.1-0.1-0.2c0-0.1,0-0.2,0-0.3c0-0.2,0-0.4-0.1-0.5c-0.4-0.7-1.2-0.9-2-0.8      c-0.2,0-0.3,0.1-0.4,0.2c-0.2,0.1-0.1,0.2-0.3,0.2c-0.1,0-0.2,0.1-0.2,0.2C15.8-48.7,15.8-48.8,15.8-48.7      C15.8-48.7,15.8-48.7,15.8-48.7"
   id="path220" />
				<path
   fill="#FFFFFF"
   d="M8.2-48.7c0,0.1,0,0.1,0,0.2C8.1-48.4,8-48.4,8-48.4c-0.1,0.1-0.1,0.3-0.1,0.4c-0.2,0.1,0,0.2,0,0.3      c0,0,0,0.1,0,0.2c0,0.1,0,0.3,0.1,0.4c0.1,0.2,0.3,0.4,0.4,0.5C8.5-46.4,8.7-46,8.9-46c0.2,0,0.4-0.1,0.5-0.1      c0.2,0,0.4,0,0.6-0.1c0.2-0.1,0.1-0.3,0.3-0.5c0.1-0.1,0.3,0,0.4-0.1c0.2-0.1,0.3-0.3,0.4-0.5c0-0.1,0-0.1,0-0.2      c0-0.1,0.1-0.2,0.1-0.3c0-0.1-0.1-0.1-0.1-0.2c0-0.1,0-0.2,0-0.3c0-0.2,0-0.4-0.1-0.5c-0.4-0.7-1.2-0.9-2-0.8      c-0.2,0-0.3,0.1-0.4,0.2c-0.2,0.1-0.1,0.2-0.3,0.2c-0.1,0-0.2,0.1-0.2,0.2C8.2-48.7,8.2-48.8,8.2-48.7      C8.1-48.7,8.1-48.7,8.2-48.7"
   id="path222" />
				<path
   fill="#FFFFFF"
   d="M0.5-48.7c0,0.1,0,0.1,0,0.2c-0.1,0.1-0.1,0.1-0.2,0.1c-0.1,0.1-0.1,0.3-0.1,0.4c-0.2,0.1,0,0.2,0,0.3      c0,0,0,0.1,0,0.2c0,0.1,0,0.3,0.1,0.4c0.1,0.2,0.3,0.4,0.4,0.5C0.9-46.4,1-46,1.3-46c0.2,0,0.4-0.1,0.5-0.1c0.2,0,0.4,0,0.6-0.1      c0.2-0.1,0.1-0.3,0.3-0.5c0.1-0.1,0.3,0,0.4-0.1c0.2-0.1,0.3-0.3,0.4-0.5c0-0.1,0-0.1,0-0.2c0-0.1,0.1-0.2,0.1-0.3      c0-0.1-0.1-0.1-0.1-0.2c0-0.1,0-0.2,0-0.3c0-0.2,0-0.4-0.1-0.5c-0.4-0.7-1.2-0.9-2-0.8c-0.2,0-0.3,0.1-0.4,0.2      c-0.2,0.1-0.1,0.2-0.3,0.2c-0.1,0-0.2,0.1-0.2,0.2C0.5-48.7,0.5-48.8,0.5-48.7C0.5-48.7,0.5-48.7,0.5-48.7"
   id="path224" />
			</g>
			<g
   id="g248">
				<path
   fill="#FFFFFF"
   d="M69.4-41c0,0.1,0,0.1,0,0.2c-0.1,0.1-0.1,0.1-0.2,0.1c-0.1,0.1-0.1,0.3-0.1,0.4c-0.2,0.1,0,0.2,0,0.3      c0,0,0,0.1,0,0.2c0,0.1,0,0.3,0.1,0.4c0.1,0.2,0.3,0.4,0.4,0.5c0.2,0.1,0.4,0.6,0.6,0.6c0.2,0,0.4-0.1,0.5-0.1      c0.2,0,0.4,0,0.6-0.1c0.2-0.1,0.1-0.3,0.3-0.5c0.1-0.1,0.3,0,0.4-0.1c0.2-0.1,0.3-0.3,0.4-0.5c0-0.1,0-0.1,0-0.2      c0-0.1,0.1-0.2,0.1-0.3c0-0.1-0.1-0.1-0.1-0.2c0-0.1,0-0.2,0-0.3c0-0.2,0-0.4-0.1-0.5c-0.4-0.7-1.2-0.9-2-0.8      c-0.2,0-0.3,0.1-0.4,0.2c-0.2,0.1-0.1,0.2-0.3,0.2c-0.1,0-0.2,0.1-0.2,0.2C69.4-41.1,69.4-41.1,69.4-41C69.4-41,69.4-41,69.4-41      "
   id="path228" />
				<path
   fill="#FFFFFF"
   d="M61.8-41c0,0.1,0,0.1,0,0.2c-0.1,0.1-0.1,0.1-0.2,0.1c-0.1,0.1-0.1,0.3-0.1,0.4c-0.2,0.1,0,0.2,0,0.3      c0,0,0,0.1,0,0.2c0,0.1,0,0.3,0.1,0.4c0.1,0.2,0.3,0.4,0.4,0.5c0.2,0.1,0.4,0.6,0.6,0.6c0.2,0,0.4-0.1,0.5-0.1      c0.2,0,0.4,0,0.6-0.1c0.2-0.1,0.1-0.3,0.3-0.5c0.1-0.1,0.3,0,0.4-0.1c0.2-0.1,0.3-0.3,0.4-0.5c0-0.1,0-0.1,0-0.2      c0-0.1,0.1-0.2,0.1-0.3c0-0.1-0.1-0.1-0.1-0.2c0-0.1,0-0.2,0-0.3c0-0.2,0-0.4-0.1-0.5c-0.4-0.7-1.2-0.9-2-0.8      c-0.2,0-0.3,0.1-0.4,0.2c-0.2,0.1-0.1,0.2-0.3,0.2c-0.1,0-0.2,0.1-0.2,0.2C61.8-41.1,61.8-41.1,61.8-41C61.8-41,61.8-41,61.8-41      "
   id="path230" />
				<path
   fill="#FFFFFF"
   d="M54.1-41c0,0.1,0,0.1,0,0.2c-0.1,0.1-0.1,0.1-0.2,0.1c-0.1,0.1-0.1,0.3-0.1,0.4c-0.2,0.1,0,0.2,0,0.3      c0,0,0,0.1,0,0.2c0,0.1,0,0.3,0.1,0.4c0.1,0.2,0.3,0.4,0.4,0.5c0.2,0.1,0.4,0.6,0.6,0.6c0.2,0,0.4-0.1,0.5-0.1      c0.2,0,0.4,0,0.6-0.1c0.2-0.1,0.1-0.3,0.3-0.5c0.1-0.1,0.3,0,0.4-0.1c0.2-0.1,0.3-0.3,0.4-0.5c0-0.1,0-0.1,0-0.2      c0-0.1,0.1-0.2,0.1-0.3c0-0.1-0.1-0.1-0.1-0.2c0-0.1,0-0.2,0-0.3c0-0.2,0-0.4-0.1-0.5c-0.4-0.7-1.2-0.9-2-0.8      c-0.2,0-0.3,0.1-0.4,0.2c-0.2,0.1-0.1,0.2-0.3,0.2c-0.1,0-0.2,0.1-0.2,0.2C54.1-41.1,54.1-41.1,54.1-41C54.1-41,54.1-41,54.1-41      "
   id="path232" />
				<path
   fill="#FFFFFF"
   d="M46.5-41c0,0.1,0,0.1,0,0.2c-0.1,0.1-0.1,0.1-0.2,0.1c-0.1,0.1-0.1,0.3-0.1,0.4c-0.2,0.1,0,0.2,0,0.3      c0,0,0,0.1,0,0.2c0,0.1,0,0.3,0.1,0.4c0.1,0.2,0.3,0.4,0.4,0.5c0.2,0.1,0.4,0.6,0.6,0.6c0.2,0,0.4-0.1,0.5-0.1      c0.2,0,0.4,0,0.6-0.1c0.2-0.1,0.1-0.3,0.3-0.5c0.1-0.1,0.3,0,0.4-0.1c0.2-0.1,0.3-0.3,0.4-0.5c0-0.1,0-0.1,0-0.2      c0-0.1,0.1-0.2,0.1-0.3c0-0.1-0.1-0.1-0.1-0.2c0-0.1,0-0.2,0-0.3c0-0.2,0-0.4-0.1-0.5c-0.4-0.7-1.2-0.9-2-0.8      c-0.2,0-0.3,0.1-0.4,0.2c-0.2,0.1-0.1,0.2-0.3,0.2c-0.1,0-0.2,0.1-0.2,0.2C46.5-41.1,46.5-41.1,46.5-41C46.5-41,46.5-41,46.5-41      "
   id="path234" />
				<path
   fill="#FFFFFF"
   d="M38.8-41c0,0.1,0,0.1,0,0.2c-0.1,0.1-0.1,0.1-0.2,0.1c-0.1,0.1-0.1,0.3-0.1,0.4c-0.2,0.1,0,0.2,0,0.3      c0,0,0,0.1,0,0.2c0,0.1,0,0.3,0.1,0.4c0.1,0.2,0.3,0.4,0.4,0.5c0.2,0.1,0.4,0.6,0.6,0.6c0.2,0,0.4-0.1,0.5-0.1      c0.2,0,0.4,0,0.6-0.1c0.2-0.1,0.1-0.3,0.3-0.5c0.1-0.1,0.3,0,0.4-0.1c0.2-0.1,0.3-0.3,0.4-0.5c0-0.1,0-0.1,0-0.2      c0-0.1,0.1-0.2,0.1-0.3c0-0.1-0.1-0.1-0.1-0.2c0-0.1,0-0.2,0-0.3c0-0.2,0-0.4-0.1-0.5c-0.4-0.7-1.2-0.9-2-0.8      c-0.2,0-0.3,0.1-0.4,0.2c-0.2,0.1-0.1,0.2-0.3,0.2c-0.1,0-0.2,0.1-0.2,0.2C38.8-41.1,38.8-41.1,38.8-41C38.8-41,38.8-41,38.8-41      "
   id="path236" />
				<path
   fill="#FFFFFF"
   d="M31.1-41c0,0.1,0,0.1,0,0.2c-0.1,0.1-0.1,0.1-0.2,0.1c-0.1,0.1-0.1,0.3-0.1,0.4c-0.2,0.1,0,0.2,0,0.3      c0,0,0,0.1,0,0.2c0,0.1,0,0.3,0.1,0.4c0.1,0.2,0.3,0.4,0.4,0.5c0.2,0.1,0.4,0.6,0.6,0.6c0.2,0,0.4-0.1,0.5-0.1      c0.2,0,0.4,0,0.6-0.1c0.2-0.1,0.1-0.3,0.3-0.5c0.1-0.1,0.3,0,0.4-0.1c0.2-0.1,0.3-0.3,0.4-0.5c0-0.1,0-0.1,0-0.2      c0-0.1,0.1-0.2,0.1-0.3c0-0.1-0.1-0.1-0.1-0.2c0-0.1,0-0.2,0-0.3c0-0.2,0-0.4-0.1-0.5c-0.4-0.7-1.2-0.9-2-0.8      c-0.2,0-0.3,0.1-0.4,0.2c-0.2,0.1-0.1,0.2-0.3,0.2c-0.1,0-0.2,0.1-0.2,0.2C31.1-41.1,31.1-41.1,31.1-41C31.1-41,31.1-41,31.1-41      "
   id="path238" />
				<path
   fill="#FFFFFF"
   d="M23.5-41c0,0.1,0,0.1,0,0.2c-0.1,0.1-0.1,0.1-0.2,0.1c-0.1,0.1-0.1,0.3-0.1,0.4c-0.2,0.1,0,0.2,0,0.3      c0,0,0,0.1,0,0.2c0,0.1,0,0.3,0.1,0.4c0.1,0.2,0.3,0.4,0.4,0.5c0.2,0.1,0.4,0.6,0.6,0.6c0.2,0,0.4-0.1,0.5-0.1      c0.2,0,0.4,0,0.6-0.1c0.2-0.1,0.1-0.3,0.3-0.5c0.1-0.1,0.3,0,0.4-0.1c0.2-0.1,0.3-0.3,0.4-0.5c0-0.1,0-0.1,0-0.2      c0-0.1,0.1-0.2,0.1-0.3c0-0.1-0.1-0.1-0.1-0.2c0-0.1,0-0.2,0-0.3c0-0.2,0-0.4-0.1-0.5c-0.4-0.7-1.2-0.9-2-0.8      c-0.2,0-0.3,0.1-0.4,0.2c-0.2,0.1-0.1,0.2-0.3,0.2c-0.1,0-0.2,0.1-0.2,0.2C23.5-41.1,23.5-41.1,23.5-41C23.5-41,23.5-41,23.5-41      "
   id="path240" />
				<path
   fill="#FFFFFF"
   d="M15.8-41c0,0.1,0,0.1,0,0.2c-0.1,0.1-0.1,0.1-0.2,0.1c-0.1,0.1-0.1,0.3-0.1,0.4c-0.2,0.1,0,0.2,0,0.3      c0,0,0,0.1,0,0.2c0,0.1,0,0.3,0.1,0.4c0.1,0.2,0.3,0.4,0.4,0.5c0.2,0.1,0.4,0.6,0.6,0.6c0.2,0,0.4-0.1,0.5-0.1      c0.2,0,0.4,0,0.6-0.1c0.2-0.1,0.1-0.3,0.3-0.5c0.1-0.1,0.3,0,0.4-0.1c0.2-0.1,0.3-0.3,0.4-0.5c0-0.1,0-0.1,0-0.2      c0-0.1,0.1-0.2,0.1-0.3c0-0.1-0.1-0.1-0.1-0.2c0-0.1,0-0.2,0-0.3c0-0.2,0-0.4-0.1-0.5c-0.4-0.7-1.2-0.9-2-0.8      c-0.2,0-0.3,0.1-0.4,0.2c-0.2,0.1-0.1,0.2-0.3,0.2c-0.1,0-0.2,0.1-0.2,0.2C15.8-41.1,15.8-41.1,15.8-41C15.8-41,15.8-41,15.8-41      "
   id="path242" />
				<path
   fill="#FFFFFF"
   d="M8.2-41c0,0.1,0,0.1,0,0.2C8.1-40.8,8-40.8,8-40.7c-0.1,0.1-0.1,0.3-0.1,0.4c-0.2,0.1,0,0.2,0,0.3      c0,0,0,0.1,0,0.2c0,0.1,0,0.3,0.1,0.4c0.1,0.2,0.3,0.4,0.4,0.5c0.2,0.1,0.4,0.6,0.6,0.6c0.2,0,0.4-0.1,0.5-0.1      c0.2,0,0.4,0,0.6-0.1c0.2-0.1,0.1-0.3,0.3-0.5c0.1-0.1,0.3,0,0.4-0.1c0.2-0.1,0.3-0.3,0.4-0.5c0-0.1,0-0.1,0-0.2      c0-0.1,0.1-0.2,0.1-0.3c0-0.1-0.1-0.1-0.1-0.2c0-0.1,0-0.2,0-0.3c0-0.2,0-0.4-0.1-0.5c-0.4-0.7-1.2-0.9-2-0.8      c-0.2,0-0.3,0.1-0.4,0.2c-0.2,0.1-0.1,0.2-0.3,0.2c-0.1,0-0.2,0.1-0.2,0.2C8.2-41.1,8.2-41.1,8.2-41C8.1-41,8.1-41,8.2-41"
   id="path244" />
				<path
   fill="#FFFFFF"
   d="M0.5-41c0,0.1,0,0.1,0,0.2c-0.1,0.1-0.1,0.1-0.2,0.1c-0.1,0.1-0.1,0.3-0.1,0.4c-0.2,0.1,0,0.2,0,0.3      c0,0,0,0.1,0,0.2c0,0.1,0,0.3,0.1,0.4c0.1,0.2,0.3,0.4,0.4,0.5c0.2,0.1,0.4,0.6,0.6,0.6c0.2,0,0.4-0.1,0.5-0.1      c0.2,0,0.4,0,0.6-0.1c0.2-0.1,0.1-0.3,0.3-0.5C2.8-39,3-39,3.1-39c0.2-0.1,0.3-0.3,0.4-0.5c0-0.1,0-0.1,0-0.2      c0-0.1,0.1-0.2,0.1-0.3c0-0.1-0.1-0.1-0.1-0.2c0-0.1,0-0.2,0-0.3c0-0.2,0-0.4-0.1-0.5c-0.4-0.7-1.2-0.9-2-0.8      c-0.2,0-0.3,0.1-0.4,0.2c-0.2,0.1-0.1,0.2-0.3,0.2c-0.1,0-0.2,0.1-0.2,0.2C0.5-41.1,0.5-41.1,0.5-41C0.5-41,0.5-41,0.5-41"
   id="path246" />
			</g>
			<g
   id="g270">
				<path
   fill="#FFFFFF"
   d="M69.4-33.4c0,0.1,0,0.1,0,0.2c-0.1,0.1-0.1,0.1-0.2,0.1c-0.1,0.1-0.1,0.3-0.1,0.4c-0.2,0.1,0,0.2,0,0.3      c0,0,0,0.1,0,0.2c0,0.1,0,0.3,0.1,0.4c0.1,0.2,0.3,0.4,0.4,0.5c0.2,0.1,0.4,0.6,0.6,0.6c0.2,0,0.4-0.1,0.5-0.1      c0.2,0,0.4,0,0.6-0.1c0.2-0.1,0.1-0.3,0.3-0.5c0.1-0.1,0.3,0,0.4-0.1c0.2-0.1,0.3-0.3,0.4-0.5c0-0.1,0-0.1,0-0.2      c0-0.1,0.1-0.2,0.1-0.3c0-0.1-0.1-0.1-0.1-0.2c0-0.1,0-0.2,0-0.3c0-0.2,0-0.4-0.1-0.5c-0.4-0.7-1.2-0.9-2-0.8      c-0.2,0-0.3,0.1-0.4,0.2c-0.2,0.1-0.1,0.2-0.3,0.2c-0.1,0-0.2,0.1-0.2,0.2C69.4-33.4,69.4-33.5,69.4-33.4      C69.4-33.4,69.4-33.4,69.4-33.4"
   id="path250" />
				<path
   fill="#FFFFFF"
   d="M61.8-33.4c0,0.1,0,0.1,0,0.2c-0.1,0.1-0.1,0.1-0.2,0.1c-0.1,0.1-0.1,0.3-0.1,0.4c-0.2,0.1,0,0.2,0,0.3      c0,0,0,0.1,0,0.2c0,0.1,0,0.3,0.1,0.4c0.1,0.2,0.3,0.4,0.4,0.5c0.2,0.1,0.4,0.6,0.6,0.6c0.2,0,0.4-0.1,0.5-0.1      c0.2,0,0.4,0,0.6-0.1c0.2-0.1,0.1-0.3,0.3-0.5c0.1-0.1,0.3,0,0.4-0.1c0.2-0.1,0.3-0.3,0.4-0.5c0-0.1,0-0.1,0-0.2      c0-0.1,0.1-0.2,0.1-0.3c0-0.1-0.1-0.1-0.1-0.2c0-0.1,0-0.2,0-0.3c0-0.2,0-0.4-0.1-0.5c-0.4-0.7-1.2-0.9-2-0.8      c-0.2,0-0.3,0.1-0.4,0.2c-0.2,0.1-0.1,0.2-0.3,0.2c-0.1,0-0.2,0.1-0.2,0.2C61.8-33.4,61.8-33.5,61.8-33.4      C61.8-33.4,61.8-33.4,61.8-33.4"
   id="path252" />
				<path
   fill="#FFFFFF"
   d="M54.1-33.4c0,0.1,0,0.1,0,0.2c-0.1,0.1-0.1,0.1-0.2,0.1c-0.1,0.1-0.1,0.3-0.1,0.4c-0.2,0.1,0,0.2,0,0.3      c0,0,0,0.1,0,0.2c0,0.1,0,0.3,0.1,0.4c0.1,0.2,0.3,0.4,0.4,0.5c0.2,0.1,0.4,0.6,0.6,0.6c0.2,0,0.4-0.1,0.5-0.1      c0.2,0,0.4,0,0.6-0.1c0.2-0.1,0.1-0.3,0.3-0.5c0.1-0.1,0.3,0,0.4-0.1c0.2-0.1,0.3-0.3,0.4-0.5c0-0.1,0-0.1,0-0.2      c0-0.1,0.1-0.2,0.1-0.3c0-0.1-0.1-0.1-0.1-0.2c0-0.1,0-0.2,0-0.3c0-0.2,0-0.4-0.1-0.5c-0.4-0.7-1.2-0.9-2-0.8      c-0.2,0-0.3,0.1-0.4,0.2c-0.2,0.1-0.1,0.2-0.3,0.2c-0.1,0-0.2,0.1-0.2,0.2C54.1-33.4,54.1-33.5,54.1-33.4      C54.1-33.4,54.1-33.4,54.1-33.4"
   id="path254" />
				<path
   fill="#FFFFFF"
   d="M46.5-33.4c0,0.1,0,0.1,0,0.2c-0.1,0.1-0.1,0.1-0.2,0.1c-0.1,0.1-0.1,0.3-0.1,0.4c-0.2,0.1,0,0.2,0,0.3      c0,0,0,0.1,0,0.2c0,0.1,0,0.3,0.1,0.4c0.1,0.2,0.3,0.4,0.4,0.5c0.2,0.1,0.4,0.6,0.6,0.6c0.2,0,0.4-0.1,0.5-0.1      c0.2,0,0.4,0,0.6-0.1c0.2-0.1,0.1-0.3,0.3-0.5c0.1-0.1,0.3,0,0.4-0.1c0.2-0.1,0.3-0.3,0.4-0.5c0-0.1,0-0.1,0-0.2      c0-0.1,0.1-0.2,0.1-0.3c0-0.1-0.1-0.1-0.1-0.2c0-0.1,0-0.2,0-0.3c0-0.2,0-0.4-0.1-0.5c-0.4-0.7-1.2-0.9-2-0.8      c-0.2,0-0.3,0.1-0.4,0.2c-0.2,0.1-0.1,0.2-0.3,0.2c-0.1,0-0.2,0.1-0.2,0.2C46.5-33.4,46.5-33.5,46.5-33.4      C46.5-33.4,46.5-33.4,46.5-33.4"
   id="path256" />
				<path
   fill="#FFFFFF"
   d="M38.8-33.4c0,0.1,0,0.1,0,0.2c-0.1,0.1-0.1,0.1-0.2,0.1c-0.1,0.1-0.1,0.3-0.1,0.4c-0.2,0.1,0,0.2,0,0.3      c0,0,0,0.1,0,0.2c0,0.1,0,0.3,0.1,0.4c0.1,0.2,0.3,0.4,0.4,0.5c0.2,0.1,0.4,0.6,0.6,0.6c0.2,0,0.4-0.1,0.5-0.1      c0.2,0,0.4,0,0.6-0.1c0.2-0.1,0.1-0.3,0.3-0.5c0.1-0.1,0.3,0,0.4-0.1c0.2-0.1,0.3-0.3,0.4-0.5c0-0.1,0-0.1,0-0.2      c0-0.1,0.1-0.2,0.1-0.3c0-0.1-0.1-0.1-0.1-0.2c0-0.1,0-0.2,0-0.3c0-0.2,0-0.4-0.1-0.5c-0.4-0.7-1.2-0.9-2-0.8      c-0.2,0-0.3,0.1-0.4,0.2c-0.2,0.1-0.1,0.2-0.3,0.2c-0.1,0-0.2,0.1-0.2,0.2C38.8-33.4,38.8-33.5,38.8-33.4      C38.8-33.4,38.8-33.4,38.8-33.4"
   id="path258" />
				<path
   fill="#FFFFFF"
   d="M31.1-33.4c0,0.1,0,0.1,0,0.2c-0.1,0.1-0.1,0.1-0.2,0.1c-0.1,0.1-0.1,0.3-0.1,0.4c-0.2,0.1,0,0.2,0,0.3      c0,0,0,0.1,0,0.2c0,0.1,0,0.3,0.1,0.4c0.1,0.2,0.3,0.4,0.4,0.5c0.2,0.1,0.4,0.6,0.6,0.6c0.2,0,0.4-0.1,0.5-0.1      c0.2,0,0.4,0,0.6-0.1c0.2-0.1,0.1-0.3,0.3-0.5c0.1-0.1,0.3,0,0.4-0.1c0.2-0.1,0.3-0.3,0.4-0.5c0-0.1,0-0.1,0-0.2      c0-0.1,0.1-0.2,0.1-0.3c0-0.1-0.1-0.1-0.1-0.2c0-0.1,0-0.2,0-0.3c0-0.2,0-0.4-0.1-0.5c-0.4-0.7-1.2-0.9-2-0.8      c-0.2,0-0.3,0.1-0.4,0.2c-0.2,0.1-0.1,0.2-0.3,0.2c-0.1,0-0.2,0.1-0.2,0.2C31.1-33.4,31.1-33.5,31.1-33.4      C31.1-33.4,31.1-33.4,31.1-33.4"
   id="path260" />
				<path
   fill="#FFFFFF"
   d="M23.5-33.4c0,0.1,0,0.1,0,0.2c-0.1,0.1-0.1,0.1-0.2,0.1c-0.1,0.1-0.1,0.3-0.1,0.4c-0.2,0.1,0,0.2,0,0.3      c0,0,0,0.1,0,0.2c0,0.1,0,0.3,0.1,0.4c0.1,0.2,0.3,0.4,0.4,0.5c0.2,0.1,0.4,0.6,0.6,0.6c0.2,0,0.4-0.1,0.5-0.1      c0.2,0,0.4,0,0.6-0.1c0.2-0.1,0.1-0.3,0.3-0.5c0.1-0.1,0.3,0,0.4-0.1c0.2-0.1,0.3-0.3,0.4-0.5c0-0.1,0-0.1,0-0.2      c0-0.1,0.1-0.2,0.1-0.3c0-0.1-0.1-0.1-0.1-0.2c0-0.1,0-0.2,0-0.3c0-0.2,0-0.4-0.1-0.5c-0.4-0.7-1.2-0.9-2-0.8      c-0.2,0-0.3,0.1-0.4,0.2c-0.2,0.1-0.1,0.2-0.3,0.2c-0.1,0-0.2,0.1-0.2,0.2C23.5-33.4,23.5-33.5,23.5-33.4      C23.5-33.4,23.5-33.4,23.5-33.4"
   id="path262" />
				<path
   fill="#FFFFFF"
   d="M15.8-33.4c0,0.1,0,0.1,0,0.2c-0.1,0.1-0.1,0.1-0.2,0.1c-0.1,0.1-0.1,0.3-0.1,0.4c-0.2,0.1,0,0.2,0,0.3      c0,0,0,0.1,0,0.2c0,0.1,0,0.3,0.1,0.4c0.1,0.2,0.3,0.4,0.4,0.5c0.2,0.1,0.4,0.6,0.6,0.6c0.2,0,0.4-0.1,0.5-0.1      c0.2,0,0.4,0,0.6-0.1c0.2-0.1,0.1-0.3,0.3-0.5c0.1-0.1,0.3,0,0.4-0.1c0.2-0.1,0.3-0.3,0.4-0.5c0-0.1,0-0.1,0-0.2      c0-0.1,0.1-0.2,0.1-0.3c0-0.1-0.1-0.1-0.1-0.2c0-0.1,0-0.2,0-0.3c0-0.2,0-0.4-0.1-0.5c-0.4-0.7-1.2-0.9-2-0.8      c-0.2,0-0.3,0.1-0.4,0.2c-0.2,0.1-0.1,0.2-0.3,0.2c-0.1,0-0.2,0.1-0.2,0.2C15.8-33.4,15.8-33.5,15.8-33.4      C15.8-33.4,15.8-33.4,15.8-33.4"
   id="path264" />
				<path
   fill="#FFFFFF"
   d="M8.2-33.4c0,0.1,0,0.1,0,0.2C8.1-33.1,8-33.1,8-33.1c-0.1,0.1-0.1,0.3-0.1,0.4c-0.2,0.1,0,0.2,0,0.3      c0,0,0,0.1,0,0.2c0,0.1,0,0.3,0.1,0.4c0.1,0.2,0.3,0.4,0.4,0.5c0.2,0.1,0.4,0.6,0.6,0.6c0.2,0,0.4-0.1,0.5-0.1      c0.2,0,0.4,0,0.6-0.1c0.2-0.1,0.1-0.3,0.3-0.5c0.1-0.1,0.3,0,0.4-0.1c0.2-0.1,0.3-0.3,0.4-0.5c0-0.1,0-0.1,0-0.2      c0-0.1,0.1-0.2,0.1-0.3c0-0.1-0.1-0.1-0.1-0.2c0-0.1,0-0.2,0-0.3c0-0.2,0-0.4-0.1-0.5c-0.4-0.7-1.2-0.9-2-0.8      c-0.2,0-0.3,0.1-0.4,0.2c-0.2,0.1-0.1,0.2-0.3,0.2c-0.1,0-0.2,0.1-0.2,0.2C8.2-33.4,8.2-33.5,8.2-33.4      C8.1-33.4,8.1-33.4,8.2-33.4"
   id="path266" />
				<path
   fill="#FFFFFF"
   d="M0.5-33.4c0,0.1,0,0.1,0,0.2c-0.1,0.1-0.1,0.1-0.2,0.1c-0.1,0.1-0.1,0.3-0.1,0.4c-0.2,0.1,0,0.2,0,0.3      c0,0,0,0.1,0,0.2c0,0.1,0,0.3,0.1,0.4c0.1,0.2,0.3,0.4,0.4,0.5c0.2,0.1,0.4,0.6,0.6,0.6c0.2,0,0.4-0.1,0.5-0.1      c0.2,0,0.4,0,0.6-0.1c0.2-0.1,0.1-0.3,0.3-0.5c0.1-0.1,0.3,0,0.4-0.1c0.2-0.1,0.3-0.3,0.4-0.5c0-0.1,0-0.1,0-0.2      c0-0.1,0.1-0.2,0.1-0.3c0-0.1-0.1-0.1-0.1-0.2c0-0.1,0-0.2,0-0.3c0-0.2,0-0.4-0.1-0.5c-0.4-0.7-1.2-0.9-2-0.8      c-0.2,0-0.3,0.1-0.4,0.2c-0.2,0.1-0.1,0.2-0.3,0.2c-0.1,0-0.2,0.1-0.2,0.2C0.5-33.4,0.5-33.5,0.5-33.4      C0.5-33.4,0.5-33.4,0.5-33.4"
   id="path268" />
			</g>
			<g
   id="g292">
				<path
   fill="#FFFFFF"
   d="M69.4-25.7c0,0.1,0,0.1,0,0.2c-0.1,0.1-0.1,0.1-0.2,0.1c-0.1,0.1-0.1,0.3-0.1,0.4c-0.2,0.1,0,0.2,0,0.3      c0,0,0,0.1,0,0.2c0,0.1,0,0.3,0.1,0.4c0.1,0.2,0.3,0.4,0.4,0.5c0.2,0.1,0.4,0.6,0.6,0.6c0.2,0,0.4-0.1,0.5-0.1      c0.2,0,0.4,0,0.6-0.1c0.2-0.1,0.1-0.3,0.3-0.5c0.1-0.1,0.3,0,0.4-0.1c0.2-0.1,0.3-0.3,0.4-0.5c0-0.1,0-0.1,0-0.2      c0-0.1,0.1-0.2,0.1-0.3c0-0.1-0.1-0.1-0.1-0.2c0-0.1,0-0.2,0-0.3c0-0.2,0-0.4-0.1-0.5c-0.4-0.7-1.2-0.9-2-0.8      c-0.2,0-0.3,0.1-0.4,0.2c-0.2,0.1-0.1,0.2-0.3,0.2c-0.1,0-0.2,0.1-0.2,0.2C69.4-25.8,69.4-25.8,69.4-25.7      C69.4-25.7,69.4-25.7,69.4-25.7"
   id="path272" />
				<path
   fill="#FFFFFF"
   d="M61.8-25.7c0,0.1,0,0.1,0,0.2c-0.1,0.1-0.1,0.1-0.2,0.1c-0.1,0.1-0.1,0.3-0.1,0.4c-0.2,0.1,0,0.2,0,0.3      c0,0,0,0.1,0,0.2c0,0.1,0,0.3,0.1,0.4c0.1,0.2,0.3,0.4,0.4,0.5c0.2,0.1,0.4,0.6,0.6,0.6c0.2,0,0.4-0.1,0.5-0.1      c0.2,0,0.4,0,0.6-0.1c0.2-0.1,0.1-0.3,0.3-0.5c0.1-0.1,0.3,0,0.4-0.1c0.2-0.1,0.3-0.3,0.4-0.5c0-0.1,0-0.1,0-0.2      c0-0.1,0.1-0.2,0.1-0.3c0-0.1-0.1-0.1-0.1-0.2c0-0.1,0-0.2,0-0.3c0-0.2,0-0.4-0.1-0.5c-0.4-0.7-1.2-0.9-2-0.8      c-0.2,0-0.3,0.1-0.4,0.2c-0.2,0.1-0.1,0.2-0.3,0.2c-0.1,0-0.2,0.1-0.2,0.2C61.8-25.8,61.8-25.8,61.8-25.7      C61.8-25.7,61.8-25.7,61.8-25.7"
   id="path274" />
				<path
   fill="#FFFFFF"
   d="M54.1-25.7c0,0.1,0,0.1,0,0.2c-0.1,0.1-0.1,0.1-0.2,0.1c-0.1,0.1-0.1,0.3-0.1,0.4c-0.2,0.1,0,0.2,0,0.3      c0,0,0,0.1,0,0.2c0,0.1,0,0.3,0.1,0.4c0.1,0.2,0.3,0.4,0.4,0.5c0.2,0.1,0.4,0.6,0.6,0.6c0.2,0,0.4-0.1,0.5-0.1      c0.2,0,0.4,0,0.6-0.1c0.2-0.1,0.1-0.3,0.3-0.5c0.1-0.1,0.3,0,0.4-0.1c0.2-0.1,0.3-0.3,0.4-0.5c0-0.1,0-0.1,0-0.2      c0-0.1,0.1-0.2,0.1-0.3c0-0.1-0.1-0.1-0.1-0.2c0-0.1,0-0.2,0-0.3c0-0.2,0-0.4-0.1-0.5c-0.4-0.7-1.2-0.9-2-0.8      c-0.2,0-0.3,0.1-0.4,0.2c-0.2,0.1-0.1,0.2-0.3,0.2c-0.1,0-0.2,0.1-0.2,0.2C54.1-25.8,54.1-25.8,54.1-25.7      C54.1-25.7,54.1-25.7,54.1-25.7"
   id="path276" />
				<path
   fill="#FFFFFF"
   d="M46.5-25.7c0,0.1,0,0.1,0,0.2c-0.1,0.1-0.1,0.1-0.2,0.1c-0.1,0.1-0.1,0.3-0.1,0.4c-0.2,0.1,0,0.2,0,0.3      c0,0,0,0.1,0,0.2c0,0.1,0,0.3,0.1,0.4c0.1,0.2,0.3,0.4,0.4,0.5c0.2,0.1,0.4,0.6,0.6,0.6c0.2,0,0.4-0.1,0.5-0.1      c0.2,0,0.4,0,0.6-0.1c0.2-0.1,0.1-0.3,0.3-0.5c0.1-0.1,0.3,0,0.4-0.1c0.2-0.1,0.3-0.3,0.4-0.5c0-0.1,0-0.1,0-0.2      c0-0.1,0.1-0.2,0.1-0.3c0-0.1-0.1-0.1-0.1-0.2c0-0.1,0-0.2,0-0.3c0-0.2,0-0.4-0.1-0.5c-0.4-0.7-1.2-0.9-2-0.8      c-0.2,0-0.3,0.1-0.4,0.2c-0.2,0.1-0.1,0.2-0.3,0.2c-0.1,0-0.2,0.1-0.2,0.2C46.5-25.8,46.5-25.8,46.5-25.7      C46.5-25.7,46.5-25.7,46.5-25.7"
   id="path278" />
				<path
   fill="#FFFFFF"
   d="M38.8-25.7c0,0.1,0,0.1,0,0.2c-0.1,0.1-0.1,0.1-0.2,0.1c-0.1,0.1-0.1,0.3-0.1,0.4c-0.2,0.1,0,0.2,0,0.3      c0,0,0,0.1,0,0.2c0,0.1,0,0.3,0.1,0.4c0.1,0.2,0.3,0.4,0.4,0.5c0.2,0.1,0.4,0.6,0.6,0.6c0.2,0,0.4-0.1,0.5-0.1      c0.2,0,0.4,0,0.6-0.1c0.2-0.1,0.1-0.3,0.3-0.5c0.1-0.1,0.3,0,0.4-0.1c0.2-0.1,0.3-0.3,0.4-0.5c0-0.1,0-0.1,0-0.2      c0-0.1,0.1-0.2,0.1-0.3c0-0.1-0.1-0.1-0.1-0.2c0-0.1,0-0.2,0-0.3c0-0.2,0-0.4-0.1-0.5c-0.4-0.7-1.2-0.9-2-0.8      c-0.2,0-0.3,0.1-0.4,0.2c-0.2,0.1-0.1,0.2-0.3,0.2c-0.1,0-0.2,0.1-0.2,0.2C38.8-25.8,38.8-25.8,38.8-25.7      C38.8-25.7,38.8-25.7,38.8-25.7"
   id="path280" />
				<path
   fill="#FFFFFF"
   d="M31.1-25.7c0,0.1,0,0.1,0,0.2c-0.1,0.1-0.1,0.1-0.2,0.1c-0.1,0.1-0.1,0.3-0.1,0.4c-0.2,0.1,0,0.2,0,0.3      c0,0,0,0.1,0,0.2c0,0.1,0,0.3,0.1,0.4c0.1,0.2,0.3,0.4,0.4,0.5c0.2,0.1,0.4,0.6,0.6,0.6c0.2,0,0.4-0.1,0.5-0.1      c0.2,0,0.4,0,0.6-0.1c0.2-0.1,0.1-0.3,0.3-0.5c0.1-0.1,0.3,0,0.4-0.1c0.2-0.1,0.3-0.3,0.4-0.5c0-0.1,0-0.1,0-0.2      c0-0.1,0.1-0.2,0.1-0.3c0-0.1-0.1-0.1-0.1-0.2c0-0.1,0-0.2,0-0.3c0-0.2,0-0.4-0.1-0.5c-0.4-0.7-1.2-0.9-2-0.8      c-0.2,0-0.3,0.1-0.4,0.2c-0.2,0.1-0.1,0.2-0.3,0.2c-0.1,0-0.2,0.1-0.2,0.2C31.1-25.8,31.1-25.8,31.1-25.7      C31.1-25.7,31.1-25.7,31.1-25.7"
   id="path282" />
				<path
   fill="#FFFFFF"
   d="M23.5-25.7c0,0.1,0,0.1,0,0.2c-0.1,0.1-0.1,0.1-0.2,0.1c-0.1,0.1-0.1,0.3-0.1,0.4c-0.2,0.1,0,0.2,0,0.3      c0,0,0,0.1,0,0.2c0,0.1,0,0.3,0.1,0.4c0.1,0.2,0.3,0.4,0.4,0.5c0.2,0.1,0.4,0.6,0.6,0.6c0.2,0,0.4-0.1,0.5-0.1      c0.2,0,0.4,0,0.6-0.1c0.2-0.1,0.1-0.3,0.3-0.5c0.1-0.1,0.3,0,0.4-0.1c0.2-0.1,0.3-0.3,0.4-0.5c0-0.1,0-0.1,0-0.2      c0-0.1,0.1-0.2,0.1-0.3c0-0.1-0.1-0.1-0.1-0.2c0-0.1,0-0.2,0-0.3c0-0.2,0-0.4-0.1-0.5c-0.4-0.7-1.2-0.9-2-0.8      c-0.2,0-0.3,0.1-0.4,0.2c-0.2,0.1-0.1,0.2-0.3,0.2c-0.1,0-0.2,0.1-0.2,0.2C23.5-25.8,23.5-25.8,23.5-25.7      C23.5-25.7,23.5-25.7,23.5-25.7"
   id="path284" />
				<path
   fill="#FFFFFF"
   d="M15.8-25.7c0,0.1,0,0.1,0,0.2c-0.1,0.1-0.1,0.1-0.2,0.1c-0.1,0.1-0.1,0.3-0.1,0.4c-0.2,0.1,0,0.2,0,0.3      c0,0,0,0.1,0,0.2c0,0.1,0,0.3,0.1,0.4c0.1,0.2,0.3,0.4,0.4,0.5c0.2,0.1,0.4,0.6,0.6,0.6c0.2,0,0.4-0.1,0.5-0.1      c0.2,0,0.4,0,0.6-0.1c0.2-0.1,0.1-0.3,0.3-0.5c0.1-0.1,0.3,0,0.4-0.1c0.2-0.1,0.3-0.3,0.4-0.5c0-0.1,0-0.1,0-0.2      c0-0.1,0.1-0.2,0.1-0.3c0-0.1-0.1-0.1-0.1-0.2c0-0.1,0-0.2,0-0.3c0-0.2,0-0.4-0.1-0.5c-0.4-0.7-1.2-0.9-2-0.8      c-0.2,0-0.3,0.1-0.4,0.2c-0.2,0.1-0.1,0.2-0.3,0.2c-0.1,0-0.2,0.1-0.2,0.2C15.8-25.8,15.8-25.8,15.8-25.7      C15.8-25.7,15.8-25.7,15.8-25.7"
   id="path286" />
				<path
   fill="#FFFFFF"
   d="M8.2-25.7c0,0.1,0,0.1,0,0.2C8.1-25.4,8-25.5,8-25.4c-0.1,0.1-0.1,0.3-0.1,0.4c-0.2,0.1,0,0.2,0,0.3      c0,0,0,0.1,0,0.2c0,0.1,0,0.3,0.1,0.4C8-24,8.2-23.8,8.3-23.6c0.2,0.1,0.4,0.6,0.6,0.6c0.2,0,0.4-0.1,0.5-0.1      c0.2,0,0.4,0,0.6-0.1c0.2-0.1,0.1-0.3,0.3-0.5c0.1-0.1,0.3,0,0.4-0.1c0.2-0.1,0.3-0.3,0.4-0.5c0-0.1,0-0.1,0-0.2      c0-0.1,0.1-0.2,0.1-0.3c0-0.1-0.1-0.1-0.1-0.2c0-0.1,0-0.2,0-0.3c0-0.2,0-0.4-0.1-0.5c-0.4-0.7-1.2-0.9-2-0.8      c-0.2,0-0.3,0.1-0.4,0.2c-0.2,0.1-0.1,0.2-0.3,0.2c-0.1,0-0.2,0.1-0.2,0.2C8.2-25.8,8.2-25.8,8.2-25.7      C8.1-25.7,8.1-25.7,8.2-25.7"
   id="path288" />
				<path
   fill="#FFFFFF"
   d="M0.5-25.7c0,0.1,0,0.1,0,0.2c-0.1,0.1-0.1,0.1-0.2,0.1c-0.1,0.1-0.1,0.3-0.1,0.4c-0.2,0.1,0,0.2,0,0.3      c0,0,0,0.1,0,0.2c0,0.1,0,0.3,0.1,0.4c0.1,0.2,0.3,0.4,0.4,0.5C0.9-23.5,1-23.1,1.3-23c0.2,0,0.4-0.1,0.5-0.1      c0.2,0,0.4,0,0.6-0.1c0.2-0.1,0.1-0.3,0.3-0.5c0.1-0.1,0.3,0,0.4-0.1c0.2-0.1,0.3-0.3,0.4-0.5c0-0.1,0-0.1,0-0.2      c0-0.1,0.1-0.2,0.1-0.3c0-0.1-0.1-0.1-0.1-0.2c0-0.1,0-0.2,0-0.3c0-0.2,0-0.4-0.1-0.5c-0.4-0.7-1.2-0.9-2-0.8      c-0.2,0-0.3,0.1-0.4,0.2c-0.2,0.1-0.1,0.2-0.3,0.2c-0.1,0-0.2,0.1-0.2,0.2C0.5-25.8,0.5-25.8,0.5-25.7      C0.5-25.7,0.5-25.7,0.5-25.7"
   id="path290" />
			</g>
			<g
   id="g314">
				<path
   fill="#FFFFFF"
   d="M69.4-18.1c0,0.1,0,0.1,0,0.2c-0.1,0.1-0.1,0.1-0.2,0.1c-0.1,0.1-0.1,0.3-0.1,0.4c-0.2,0.1,0,0.2,0,0.3      c0,0,0,0.1,0,0.2c0,0.1,0,0.3,0.1,0.4c0.1,0.2,0.3,0.4,0.4,0.5c0.2,0.1,0.4,0.6,0.6,0.6c0.2,0,0.4-0.1,0.5-0.1      c0.2,0,0.4,0,0.6-0.1c0.2-0.1,0.1-0.3,0.3-0.5c0.1-0.1,0.3,0,0.4-0.1c0.2-0.1,0.3-0.3,0.4-0.5c0-0.1,0-0.1,0-0.2      c0-0.1,0.1-0.2,0.1-0.3c0-0.1-0.1-0.1-0.1-0.2c0-0.1,0-0.2,0-0.3c0-0.2,0-0.4-0.1-0.5c-0.4-0.7-1.2-0.9-2-0.8      c-0.2,0-0.3,0.1-0.4,0.2c-0.2,0.1-0.1,0.2-0.3,0.2c-0.1,0-0.2,0.1-0.2,0.2C69.4-18.1,69.4-18.2,69.4-18.1      C69.4-18,69.4-18.1,69.4-18.1"
   id="path294" />
				<path
   fill="#FFFFFF"
   d="M61.8-18.1c0,0.1,0,0.1,0,0.2c-0.1,0.1-0.1,0.1-0.2,0.1c-0.1,0.1-0.1,0.3-0.1,0.4c-0.2,0.1,0,0.2,0,0.3      c0,0,0,0.1,0,0.2c0,0.1,0,0.3,0.1,0.4c0.1,0.2,0.3,0.4,0.4,0.5c0.2,0.1,0.4,0.6,0.6,0.6c0.2,0,0.4-0.1,0.5-0.1      c0.2,0,0.4,0,0.6-0.1c0.2-0.1,0.1-0.3,0.3-0.5c0.1-0.1,0.3,0,0.4-0.1c0.2-0.1,0.3-0.3,0.4-0.5c0-0.1,0-0.1,0-0.2      c0-0.1,0.1-0.2,0.1-0.3c0-0.1-0.1-0.1-0.1-0.2c0-0.1,0-0.2,0-0.3c0-0.2,0-0.4-0.1-0.5c-0.4-0.7-1.2-0.9-2-0.8      c-0.2,0-0.3,0.1-0.4,0.2c-0.2,0.1-0.1,0.2-0.3,0.2c-0.1,0-0.2,0.1-0.2,0.2C61.8-18.1,61.8-18.2,61.8-18.1      C61.8-18,61.8-18.1,61.8-18.1"
   id="path296" />
				<path
   fill="#FFFFFF"
   d="M54.1-18.1c0,0.1,0,0.1,0,0.2c-0.1,0.1-0.1,0.1-0.2,0.1c-0.1,0.1-0.1,0.3-0.1,0.4c-0.2,0.1,0,0.2,0,0.3      c0,0,0,0.1,0,0.2c0,0.1,0,0.3,0.1,0.4c0.1,0.2,0.3,0.4,0.4,0.5c0.2,0.1,0.4,0.6,0.6,0.6c0.2,0,0.4-0.1,0.5-0.1      c0.2,0,0.4,0,0.6-0.1c0.2-0.1,0.1-0.3,0.3-0.5c0.1-0.1,0.3,0,0.4-0.1c0.2-0.1,0.3-0.3,0.4-0.5c0-0.1,0-0.1,0-0.2      c0-0.1,0.1-0.2,0.1-0.3c0-0.1-0.1-0.1-0.1-0.2c0-0.1,0-0.2,0-0.3c0-0.2,0-0.4-0.1-0.5c-0.4-0.7-1.2-0.9-2-0.8      c-0.2,0-0.3,0.1-0.4,0.2c-0.2,0.1-0.1,0.2-0.3,0.2c-0.1,0-0.2,0.1-0.2,0.2C54.1-18.1,54.1-18.2,54.1-18.1      C54.1-18,54.1-18.1,54.1-18.1"
   id="path298" />
				<path
   fill="#FFFFFF"
   d="M46.5-18.1c0,0.1,0,0.1,0,0.2c-0.1,0.1-0.1,0.1-0.2,0.1c-0.1,0.1-0.1,0.3-0.1,0.4c-0.2,0.1,0,0.2,0,0.3      c0,0,0,0.1,0,0.2c0,0.1,0,0.3,0.1,0.4c0.1,0.2,0.3,0.4,0.4,0.5c0.2,0.1,0.4,0.6,0.6,0.6c0.2,0,0.4-0.1,0.5-0.1      c0.2,0,0.4,0,0.6-0.1c0.2-0.1,0.1-0.3,0.3-0.5c0.1-0.1,0.3,0,0.4-0.1c0.2-0.1,0.3-0.3,0.4-0.5c0-0.1,0-0.1,0-0.2      c0-0.1,0.1-0.2,0.1-0.3c0-0.1-0.1-0.1-0.1-0.2c0-0.1,0-0.2,0-0.3c0-0.2,0-0.4-0.1-0.5c-0.4-0.7-1.2-0.9-2-0.8      c-0.2,0-0.3,0.1-0.4,0.2c-0.2,0.1-0.1,0.2-0.3,0.2c-0.1,0-0.2,0.1-0.2,0.2C46.5-18.1,46.5-18.2,46.5-18.1      C46.5-18,46.5-18.1,46.5-18.1"
   id="path300" />
				<path
   fill="#FFFFFF"
   d="M38.8-18.1c0,0.1,0,0.1,0,0.2c-0.1,0.1-0.1,0.1-0.2,0.1c-0.1,0.1-0.1,0.3-0.1,0.4c-0.2,0.1,0,0.2,0,0.3      c0,0,0,0.1,0,0.2c0,0.1,0,0.3,0.1,0.4c0.1,0.2,0.3,0.4,0.4,0.5c0.2,0.1,0.4,0.6,0.6,0.6c0.2,0,0.4-0.1,0.5-0.1      c0.2,0,0.4,0,0.6-0.1c0.2-0.1,0.1-0.3,0.3-0.5c0.1-0.1,0.3,0,0.4-0.1c0.2-0.1,0.3-0.3,0.4-0.5c0-0.1,0-0.1,0-0.2      c0-0.1,0.1-0.2,0.1-0.3c0-0.1-0.1-0.1-0.1-0.2c0-0.1,0-0.2,0-0.3c0-0.2,0-0.4-0.1-0.5c-0.4-0.7-1.2-0.9-2-0.8      c-0.2,0-0.3,0.1-0.4,0.2c-0.2,0.1-0.1,0.2-0.3,0.2c-0.1,0-0.2,0.1-0.2,0.2C38.8-18.1,38.8-18.2,38.8-18.1      C38.8-18,38.8-18.1,38.8-18.1"
   id="path302" />
				<path
   fill="#FFFFFF"
   d="M31.1-18.1c0,0.1,0,0.1,0,0.2c-0.1,0.1-0.1,0.1-0.2,0.1c-0.1,0.1-0.1,0.3-0.1,0.4c-0.2,0.1,0,0.2,0,0.3      c0,0,0,0.1,0,0.2c0,0.1,0,0.3,0.1,0.4c0.1,0.2,0.3,0.4,0.4,0.5c0.2,0.1,0.4,0.6,0.6,0.6c0.2,0,0.4-0.1,0.5-0.1      c0.2,0,0.4,0,0.6-0.1c0.2-0.1,0.1-0.3,0.3-0.5c0.1-0.1,0.3,0,0.4-0.1c0.2-0.1,0.3-0.3,0.4-0.5c0-0.1,0-0.1,0-0.2      c0-0.1,0.1-0.2,0.1-0.3c0-0.1-0.1-0.1-0.1-0.2c0-0.1,0-0.2,0-0.3c0-0.2,0-0.4-0.1-0.5c-0.4-0.7-1.2-0.9-2-0.8      c-0.2,0-0.3,0.1-0.4,0.2c-0.2,0.1-0.1,0.2-0.3,0.2c-0.1,0-0.2,0.1-0.2,0.2C31.1-18.1,31.1-18.2,31.1-18.1      C31.1-18,31.1-18.1,31.1-18.1"
   id="path304" />
				<path
   fill="#FFFFFF"
   d="M23.5-18.1c0,0.1,0,0.1,0,0.2c-0.1,0.1-0.1,0.1-0.2,0.1c-0.1,0.1-0.1,0.3-0.1,0.4c-0.2,0.1,0,0.2,0,0.3      c0,0,0,0.1,0,0.2c0,0.1,0,0.3,0.1,0.4c0.1,0.2,0.3,0.4,0.4,0.5c0.2,0.1,0.4,0.6,0.6,0.6c0.2,0,0.4-0.1,0.5-0.1      c0.2,0,0.4,0,0.6-0.1c0.2-0.1,0.1-0.3,0.3-0.5c0.1-0.1,0.3,0,0.4-0.1c0.2-0.1,0.3-0.3,0.4-0.5c0-0.1,0-0.1,0-0.2      c0-0.1,0.1-0.2,0.1-0.3c0-0.1-0.1-0.1-0.1-0.2c0-0.1,0-0.2,0-0.3c0-0.2,0-0.4-0.1-0.5c-0.4-0.7-1.2-0.9-2-0.8      c-0.2,0-0.3,0.1-0.4,0.2c-0.2,0.1-0.1,0.2-0.3,0.2c-0.1,0-0.2,0.1-0.2,0.2C23.5-18.1,23.5-18.2,23.5-18.1      C23.5-18,23.5-18.1,23.5-18.1"
   id="path306" />
				<path
   fill="#FFFFFF"
   d="M15.8-18.1c0,0.1,0,0.1,0,0.2c-0.1,0.1-0.1,0.1-0.2,0.1c-0.1,0.1-0.1,0.3-0.1,0.4c-0.2,0.1,0,0.2,0,0.3      c0,0,0,0.1,0,0.2c0,0.1,0,0.3,0.1,0.4c0.1,0.2,0.3,0.4,0.4,0.5c0.2,0.1,0.4,0.6,0.6,0.6c0.2,0,0.4-0.1,0.5-0.1      c0.2,0,0.4,0,0.6-0.1c0.2-0.1,0.1-0.3,0.3-0.5c0.1-0.1,0.3,0,0.4-0.1c0.2-0.1,0.3-0.3,0.4-0.5c0-0.1,0-0.1,0-0.2      c0-0.1,0.1-0.2,0.1-0.3c0-0.1-0.1-0.1-0.1-0.2c0-0.1,0-0.2,0-0.3c0-0.2,0-0.4-0.1-0.5c-0.4-0.7-1.2-0.9-2-0.8      c-0.2,0-0.3,0.1-0.4,0.2c-0.2,0.1-0.1,0.2-0.3,0.2c-0.1,0-0.2,0.1-0.2,0.2C15.8-18.1,15.8-18.2,15.8-18.1      C15.8-18,15.8-18.1,15.8-18.1"
   id="path308" />
				<path
   fill="#FFFFFF"
   d="M8.2-18.1c0,0.1,0,0.1,0,0.2C8.1-17.8,8-17.8,8-17.8c-0.1,0.1-0.1,0.3-0.1,0.4c-0.2,0.1,0,0.2,0,0.3      c0,0,0,0.1,0,0.2c0,0.1,0,0.3,0.1,0.4C8-16.3,8.2-16.1,8.3-16c0.2,0.1,0.4,0.6,0.6,0.6c0.2,0,0.4-0.1,0.5-0.1      c0.2,0,0.4,0,0.6-0.1c0.2-0.1,0.1-0.3,0.3-0.5c0.1-0.1,0.3,0,0.4-0.1c0.2-0.1,0.3-0.3,0.4-0.5c0-0.1,0-0.1,0-0.2      c0-0.1,0.1-0.2,0.1-0.3c0-0.1-0.1-0.1-0.1-0.2c0-0.1,0-0.2,0-0.3c0-0.2,0-0.4-0.1-0.5c-0.4-0.7-1.2-0.9-2-0.8      c-0.2,0-0.3,0.1-0.4,0.2c-0.2,0.1-0.1,0.2-0.3,0.2c-0.1,0-0.2,0.1-0.2,0.2C8.2-18.1,8.2-18.2,8.2-18.1C8.1-18,8.1-18.1,8.2-18.1      "
   id="path310" />
				<path
   fill="#FFFFFF"
   d="M0.5-18.1c0,0.1,0,0.1,0,0.2c-0.1,0.1-0.1,0.1-0.2,0.1c-0.1,0.1-0.1,0.3-0.1,0.4c-0.2,0.1,0,0.2,0,0.3      c0,0,0,0.1,0,0.2c0,0.1,0,0.3,0.1,0.4c0.1,0.2,0.3,0.4,0.4,0.5c0.2,0.1,0.4,0.6,0.6,0.6c0.2,0,0.4-0.1,0.5-0.1      c0.2,0,0.4,0,0.6-0.1c0.2-0.1,0.1-0.3,0.3-0.5C2.8-16.1,3-16,3.1-16c0.2-0.1,0.3-0.3,0.4-0.5c0-0.1,0-0.1,0-0.2      c0-0.1,0.1-0.2,0.1-0.3c0-0.1-0.1-0.1-0.1-0.2c0-0.1,0-0.2,0-0.3c0-0.2,0-0.4-0.1-0.5c-0.4-0.7-1.2-0.9-2-0.8      c-0.2,0-0.3,0.1-0.4,0.2c-0.2,0.1-0.1,0.2-0.3,0.2c-0.1,0-0.2,0.1-0.2,0.2C0.5-18.1,0.5-18.2,0.5-18.1C0.5-18,0.5-18.1,0.5-18.1      "
   id="path312" />
			</g>
			<g
   id="g336">
				<path
   fill="#FFFFFF"
   d="M69.4-10.4c0,0.1,0,0.1,0,0.2c-0.1,0.1-0.1,0.1-0.2,0.1c-0.1,0.1-0.1,0.3-0.1,0.4c-0.2,0.1,0,0.2,0,0.3      c0,0,0,0.1,0,0.2c0,0.1,0,0.3,0.1,0.4c0.1,0.2,0.3,0.4,0.4,0.5c0.2,0.1,0.4,0.6,0.6,0.6c0.2,0,0.4-0.1,0.5-0.1      c0.2,0,0.4,0,0.6-0.1c0.2-0.1,0.1-0.3,0.3-0.5c0.1-0.1,0.3,0,0.4-0.1c0.2-0.1,0.3-0.3,0.4-0.5c0-0.1,0-0.1,0-0.2      c0-0.1,0.1-0.2,0.1-0.3c0-0.1-0.1-0.1-0.1-0.2c0-0.1,0-0.2,0-0.3c0-0.2,0-0.4-0.1-0.5c-0.4-0.7-1.2-0.9-2-0.8      c-0.2,0-0.3,0.1-0.4,0.2c-0.2,0.1-0.1,0.2-0.3,0.2c-0.1,0-0.2,0.1-0.2,0.2C69.4-10.5,69.4-10.5,69.4-10.4      C69.4-10.4,69.4-10.4,69.4-10.4"
   id="path316" />
				<path
   fill="#FFFFFF"
   d="M61.8-10.4c0,0.1,0,0.1,0,0.2c-0.1,0.1-0.1,0.1-0.2,0.1c-0.1,0.1-0.1,0.3-0.1,0.4c-0.2,0.1,0,0.2,0,0.3      c0,0,0,0.1,0,0.2c0,0.1,0,0.3,0.1,0.4c0.1,0.2,0.3,0.4,0.4,0.5c0.2,0.1,0.4,0.6,0.6,0.6c0.2,0,0.4-0.1,0.5-0.1      c0.2,0,0.4,0,0.6-0.1C63.9-8,63.8-8.2,64-8.3c0.1-0.1,0.3,0,0.4-0.1c0.2-0.1,0.3-0.3,0.4-0.5c0-0.1,0-0.1,0-0.2      c0-0.1,0.1-0.2,0.1-0.3c0-0.1-0.1-0.1-0.1-0.2c0-0.1,0-0.2,0-0.3c0-0.2,0-0.4-0.1-0.5c-0.4-0.7-1.2-0.9-2-0.8      c-0.2,0-0.3,0.1-0.4,0.2c-0.2,0.1-0.1,0.2-0.3,0.2c-0.1,0-0.2,0.1-0.2,0.2C61.8-10.5,61.8-10.5,61.8-10.4      C61.8-10.4,61.8-10.4,61.8-10.4"
   id="path318" />
				<path
   fill="#FFFFFF"
   d="M54.1-10.4c0,0.1,0,0.1,0,0.2c-0.1,0.1-0.1,0.1-0.2,0.1c-0.1,0.1-0.1,0.3-0.1,0.4c-0.2,0.1,0,0.2,0,0.3      c0,0,0,0.1,0,0.2c0,0.1,0,0.3,0.1,0.4c0.1,0.2,0.3,0.4,0.4,0.5c0.2,0.1,0.4,0.6,0.6,0.6c0.2,0,0.4-0.1,0.5-0.1      c0.2,0,0.4,0,0.6-0.1c0.2-0.1,0.1-0.3,0.3-0.5c0.1-0.1,0.3,0,0.4-0.1c0.2-0.1,0.3-0.3,0.4-0.5c0-0.1,0-0.1,0-0.2      c0-0.1,0.1-0.2,0.1-0.3c0-0.1-0.1-0.1-0.1-0.2c0-0.1,0-0.2,0-0.3c0-0.2,0-0.4-0.1-0.5c-0.4-0.7-1.2-0.9-2-0.8      c-0.2,0-0.3,0.1-0.4,0.2c-0.2,0.1-0.1,0.2-0.3,0.2c-0.1,0-0.2,0.1-0.2,0.2C54.1-10.5,54.1-10.5,54.1-10.4      C54.1-10.4,54.1-10.4,54.1-10.4"
   id="path320" />
				<path
   fill="#FFFFFF"
   d="M46.5-10.4c0,0.1,0,0.1,0,0.2c-0.1,0.1-0.1,0.1-0.2,0.1c-0.1,0.1-0.1,0.3-0.1,0.4c-0.2,0.1,0,0.2,0,0.3      c0,0,0,0.1,0,0.2c0,0.1,0,0.3,0.1,0.4c0.1,0.2,0.3,0.4,0.4,0.5c0.2,0.1,0.4,0.6,0.6,0.6c0.2,0,0.4-0.1,0.5-0.1      c0.2,0,0.4,0,0.6-0.1c0.2-0.1,0.1-0.3,0.3-0.5c0.1-0.1,0.3,0,0.4-0.1c0.2-0.1,0.3-0.3,0.4-0.5c0-0.1,0-0.1,0-0.2      c0-0.1,0.1-0.2,0.1-0.3c0-0.1-0.1-0.1-0.1-0.2c0-0.1,0-0.2,0-0.3c0-0.2,0-0.4-0.1-0.5c-0.4-0.7-1.2-0.9-2-0.8      c-0.2,0-0.3,0.1-0.4,0.2c-0.2,0.1-0.1,0.2-0.3,0.2c-0.1,0-0.2,0.1-0.2,0.2C46.5-10.5,46.5-10.5,46.5-10.4      C46.5-10.4,46.5-10.4,46.5-10.4"
   id="path322" />
				<path
   fill="#FFFFFF"
   d="M38.8-10.4c0,0.1,0,0.1,0,0.2c-0.1,0.1-0.1,0.1-0.2,0.1c-0.1,0.1-0.1,0.3-0.1,0.4c-0.2,0.1,0,0.2,0,0.3      c0,0,0,0.1,0,0.2c0,0.1,0,0.3,0.1,0.4c0.1,0.2,0.3,0.4,0.4,0.5c0.2,0.1,0.4,0.6,0.6,0.6c0.2,0,0.4-0.1,0.5-0.1      c0.2,0,0.4,0,0.6-0.1C40.9-8,40.8-8.2,41-8.3c0.1-0.1,0.3,0,0.4-0.1c0.2-0.1,0.3-0.3,0.4-0.5c0-0.1,0-0.1,0-0.2      c0-0.1,0.1-0.2,0.1-0.3c0-0.1-0.1-0.1-0.1-0.2c0-0.1,0-0.2,0-0.3c0-0.2,0-0.4-0.1-0.5c-0.4-0.7-1.2-0.9-2-0.8      c-0.2,0-0.3,0.1-0.4,0.2c-0.2,0.1-0.1,0.2-0.3,0.2c-0.1,0-0.2,0.1-0.2,0.2C38.8-10.5,38.8-10.5,38.8-10.4      C38.8-10.4,38.8-10.4,38.8-10.4"
   id="path324" />
				<path
   fill="#FFFFFF"
   d="M31.1-10.4c0,0.1,0,0.1,0,0.2c-0.1,0.1-0.1,0.1-0.2,0.1c-0.1,0.1-0.1,0.3-0.1,0.4c-0.2,0.1,0,0.2,0,0.3      c0,0,0,0.1,0,0.2c0,0.1,0,0.3,0.1,0.4c0.1,0.2,0.3,0.4,0.4,0.5c0.2,0.1,0.4,0.6,0.6,0.6c0.2,0,0.4-0.1,0.5-0.1      c0.2,0,0.4,0,0.6-0.1c0.2-0.1,0.1-0.3,0.3-0.5c0.1-0.1,0.3,0,0.4-0.1c0.2-0.1,0.3-0.3,0.4-0.5c0-0.1,0-0.1,0-0.2      c0-0.1,0.1-0.2,0.1-0.3c0-0.1-0.1-0.1-0.1-0.2c0-0.1,0-0.2,0-0.3c0-0.2,0-0.4-0.1-0.5c-0.4-0.7-1.2-0.9-2-0.8      c-0.2,0-0.3,0.1-0.4,0.2c-0.2,0.1-0.1,0.2-0.3,0.2c-0.1,0-0.2,0.1-0.2,0.2C31.1-10.5,31.1-10.5,31.1-10.4      C31.1-10.4,31.1-10.4,31.1-10.4"
   id="path326" />
				<path
   fill="#FFFFFF"
   d="M23.5-10.4c0,0.1,0,0.1,0,0.2c-0.1,0.1-0.1,0.1-0.2,0.1c-0.1,0.1-0.1,0.3-0.1,0.4c-0.2,0.1,0,0.2,0,0.3      c0,0,0,0.1,0,0.2c0,0.1,0,0.3,0.1,0.4c0.1,0.2,0.3,0.4,0.4,0.5c0.2,0.1,0.4,0.6,0.6,0.6c0.2,0,0.4-0.1,0.5-0.1      c0.2,0,0.4,0,0.6-0.1c0.2-0.1,0.1-0.3,0.3-0.5c0.1-0.1,0.3,0,0.4-0.1c0.2-0.1,0.3-0.3,0.4-0.5c0-0.1,0-0.1,0-0.2      c0-0.1,0.1-0.2,0.1-0.3c0-0.1-0.1-0.1-0.1-0.2c0-0.1,0-0.2,0-0.3c0-0.2,0-0.4-0.1-0.5c-0.4-0.7-1.2-0.9-2-0.8      c-0.2,0-0.3,0.1-0.4,0.2c-0.2,0.1-0.1,0.2-0.3,0.2c-0.1,0-0.2,0.1-0.2,0.2C23.5-10.5,23.5-10.5,23.5-10.4      C23.5-10.4,23.5-10.4,23.5-10.4"
   id="path328" />
				<path
   fill="#FFFFFF"
   d="M15.8-10.4c0,0.1,0,0.1,0,0.2c-0.1,0.1-0.1,0.1-0.2,0.1c-0.1,0.1-0.1,0.3-0.1,0.4c-0.2,0.1,0,0.2,0,0.3      c0,0,0,0.1,0,0.2c0,0.1,0,0.3,0.1,0.4c0.1,0.2,0.3,0.4,0.4,0.5c0.2,0.1,0.4,0.6,0.6,0.6c0.2,0,0.4-0.1,0.5-0.1      c0.2,0,0.4,0,0.6-0.1C17.9-8,17.8-8.2,18-8.3c0.1-0.1,0.3,0,0.4-0.1c0.2-0.1,0.3-0.3,0.4-0.5c0-0.1,0-0.1,0-0.2      c0-0.1,0.1-0.2,0.1-0.3c0-0.1-0.1-0.1-0.1-0.2c0-0.1,0-0.2,0-0.3c0-0.2,0-0.4-0.1-0.5c-0.4-0.7-1.2-0.9-2-0.8      c-0.2,0-0.3,0.1-0.4,0.2c-0.2,0.1-0.1,0.2-0.3,0.2c-0.1,0-0.2,0.1-0.2,0.2C15.8-10.5,15.8-10.5,15.8-10.4      C15.8-10.4,15.8-10.4,15.8-10.4"
   id="path330" />
				<path
   fill="#FFFFFF"
   d="M8.2-10.4c0,0.1,0,0.1,0,0.2C8.1-10.1,8-10.2,8-10.1C7.9-10,7.9-9.8,7.9-9.8c-0.2,0.1,0,0.2,0,0.3      c0,0,0,0.1,0,0.2c0,0.1,0,0.3,0.1,0.4C8-8.7,8.2-8.5,8.3-8.3c0.2,0.1,0.4,0.6,0.6,0.6c0.2,0,0.4-0.1,0.5-0.1      c0.2,0,0.4,0,0.6-0.1c0.2-0.1,0.1-0.3,0.3-0.5c0.1-0.1,0.3,0,0.4-0.1c0.2-0.1,0.3-0.3,0.4-0.5c0-0.1,0-0.1,0-0.2      c0-0.1,0.1-0.2,0.1-0.3c0-0.1-0.1-0.1-0.1-0.2c0-0.1,0-0.2,0-0.3c0-0.2,0-0.4-0.1-0.5c-0.4-0.7-1.2-0.9-2-0.8      c-0.2,0-0.3,0.1-0.4,0.2c-0.2,0.1-0.1,0.2-0.3,0.2c-0.1,0-0.2,0.1-0.2,0.2C8.2-10.5,8.2-10.5,8.2-10.4      C8.1-10.4,8.1-10.4,8.2-10.4"
   id="path332" />
				<path
   fill="#FFFFFF"
   d="M0.5-10.4c0,0.1,0,0.1,0,0.2c-0.1,0.1-0.1,0.1-0.2,0.1C0.3-10,0.2-9.8,0.2-9.8c-0.2,0.1,0,0.2,0,0.3      c0,0,0,0.1,0,0.2c0,0.1,0,0.3,0.1,0.4c0.1,0.2,0.3,0.4,0.4,0.5C0.9-8.2,1-7.8,1.3-7.7c0.2,0,0.4-0.1,0.5-0.1      c0.2,0,0.4,0,0.6-0.1C2.6-8,2.5-8.2,2.7-8.3c0.1-0.1,0.3,0,0.4-0.1c0.2-0.1,0.3-0.3,0.4-0.5c0-0.1,0-0.1,0-0.2      c0-0.1,0.1-0.2,0.1-0.3c0-0.1-0.1-0.1-0.1-0.2c0-0.1,0-0.2,0-0.3c0-0.2,0-0.4-0.1-0.5c-0.4-0.7-1.2-0.9-2-0.8      c-0.2,0-0.3,0.1-0.4,0.2c-0.2,0.1-0.1,0.2-0.3,0.2c-0.1,0-0.2,0.1-0.2,0.2C0.5-10.5,0.5-10.5,0.5-10.4      C0.5-10.4,0.5-10.4,0.5-10.4"
   id="path334" />
			</g>
		</g>
		<g
   id="g360">
			<path
   fill="#FFFFFF"
   d="M69.4-2.8c0,0.1,0,0.1,0,0.2c-0.1,0.1-0.1,0.1-0.2,0.1c-0.1,0.1-0.1,0.3-0.1,0.4c-0.2,0.1,0,0.2,0,0.3     c0,0,0,0.1,0,0.2c0,0.1,0,0.3,0.1,0.4c0.1,0.2,0.3,0.4,0.4,0.5C69.8-0.5,70-0.1,70.2,0c0.2,0,0.4-0.1,0.5-0.1     c0.2,0,0.4,0,0.6-0.1c0.2-0.1,0.1-0.3,0.3-0.5c0.1-0.1,0.3,0,0.4-0.1c0.2-0.1,0.3-0.3,0.4-0.5c0-0.1,0-0.1,0-0.2     c0-0.1,0.1-0.2,0.1-0.3c0-0.1-0.1-0.1-0.1-0.2c0-0.1,0-0.2,0-0.3c0-0.2,0-0.4-0.1-0.5c-0.4-0.7-1.2-0.9-2-0.8     c-0.2,0-0.3,0.1-0.4,0.2c-0.2,0.1-0.1,0.2-0.3,0.2c-0.1,0-0.2,0.1-0.2,0.2C69.4-2.8,69.4-2.9,69.4-2.8     C69.4-2.7,69.4-2.8,69.4-2.8"
   id="path340" />
			<path
   fill="#FFFFFF"
   d="M61.8-2.8c0,0.1,0,0.1,0,0.2c-0.1,0.1-0.1,0.1-0.2,0.1c-0.1,0.1-0.1,0.3-0.1,0.4c-0.2,0.1,0,0.2,0,0.3     c0,0,0,0.1,0,0.2c0,0.1,0,0.3,0.1,0.4C61.6-1,61.8-0.8,62-0.7c0.2,0.1,0.4,0.6,0.6,0.6c0.2,0,0.4-0.1,0.5-0.1     c0.2,0,0.4,0,0.6-0.1c0.2-0.1,0.1-0.3,0.3-0.5c0.1-0.1,0.3,0,0.4-0.1c0.2-0.1,0.3-0.3,0.4-0.5c0-0.1,0-0.1,0-0.2     c0-0.1,0.1-0.2,0.1-0.3c0-0.1-0.1-0.1-0.1-0.2c0-0.1,0-0.2,0-0.3c0-0.2,0-0.4-0.1-0.5c-0.4-0.7-1.2-0.9-2-0.8     c-0.2,0-0.3,0.1-0.4,0.2c-0.2,0.1-0.1,0.2-0.3,0.2c-0.1,0-0.2,0.1-0.2,0.2C61.8-2.8,61.8-2.9,61.8-2.8     C61.8-2.7,61.8-2.8,61.8-2.8"
   id="path342" />
			<path
   fill="#FFFFFF"
   d="M54.1-2.8c0,0.1,0,0.1,0,0.2C54-2.5,54-2.5,53.9-2.5c-0.1,0.1-0.1,0.3-0.1,0.4c-0.2,0.1,0,0.2,0,0.3     c0,0,0,0.1,0,0.2c0,0.1,0,0.3,0.1,0.4C54-1,54.1-0.8,54.3-0.7c0.2,0.1,0.4,0.6,0.6,0.6c0.2,0,0.4-0.1,0.5-0.1     c0.2,0,0.4,0,0.6-0.1c0.2-0.1,0.1-0.3,0.3-0.5c0.1-0.1,0.3,0,0.4-0.1C56.9-0.8,57-1,57.1-1.2c0-0.1,0-0.1,0-0.2     c0-0.1,0.1-0.2,0.1-0.3c0-0.1-0.1-0.1-0.1-0.2c0-0.1,0-0.2,0-0.3c0-0.2,0-0.4-0.1-0.5c-0.4-0.7-1.2-0.9-2-0.8     c-0.2,0-0.3,0.1-0.4,0.2c-0.2,0.1-0.1,0.2-0.3,0.2c-0.1,0-0.2,0.1-0.2,0.2C54.1-2.8,54.1-2.9,54.1-2.8     C54.1-2.7,54.1-2.8,54.1-2.8"
   id="path344" />
			<path
   fill="#FFFFFF"
   d="M46.5-2.8c0,0.1,0,0.1,0,0.2c-0.1,0.1-0.1,0.1-0.2,0.1c-0.1,0.1-0.1,0.3-0.1,0.4c-0.2,0.1,0,0.2,0,0.3     c0,0,0,0.1,0,0.2c0,0.1,0,0.3,0.1,0.4c0.1,0.2,0.3,0.4,0.4,0.5C46.8-0.5,47-0.1,47.2,0c0.2,0,0.4-0.1,0.5-0.1     c0.2,0,0.4,0,0.6-0.1c0.2-0.1,0.1-0.3,0.3-0.5c0.1-0.1,0.3,0,0.4-0.1c0.2-0.1,0.3-0.3,0.4-0.5c0-0.1,0-0.1,0-0.2     c0-0.1,0.1-0.2,0.1-0.3c0-0.1-0.1-0.1-0.1-0.2c0-0.1,0-0.2,0-0.3c0-0.2,0-0.4-0.1-0.5c-0.4-0.7-1.2-0.9-2-0.8     c-0.2,0-0.3,0.1-0.4,0.2c-0.2,0.1-0.1,0.2-0.3,0.2c-0.1,0-0.2,0.1-0.2,0.2C46.5-2.8,46.5-2.9,46.5-2.8     C46.5-2.7,46.5-2.8,46.5-2.8"
   id="path346" />
			<path
   fill="#FFFFFF"
   d="M38.8-2.8c0,0.1,0,0.1,0,0.2c-0.1,0.1-0.1,0.1-0.2,0.1c-0.1,0.1-0.1,0.3-0.1,0.4c-0.2,0.1,0,0.2,0,0.3     c0,0,0,0.1,0,0.2c0,0.1,0,0.3,0.1,0.4C38.6-1,38.8-0.8,39-0.7c0.2,0.1,0.4,0.6,0.6,0.6c0.2,0,0.4-0.1,0.5-0.1     c0.2,0,0.4,0,0.6-0.1c0.2-0.1,0.1-0.3,0.3-0.5c0.1-0.1,0.3,0,0.4-0.1c0.2-0.1,0.3-0.3,0.4-0.5c0-0.1,0-0.1,0-0.2     c0-0.1,0.1-0.2,0.1-0.3c0-0.1-0.1-0.1-0.1-0.2c0-0.1,0-0.2,0-0.3c0-0.2,0-0.4-0.1-0.5c-0.4-0.7-1.2-0.9-2-0.8     c-0.2,0-0.3,0.1-0.4,0.2c-0.2,0.1-0.1,0.2-0.3,0.2c-0.1,0-0.2,0.1-0.2,0.2C38.8-2.8,38.8-2.9,38.8-2.8     C38.8-2.7,38.8-2.8,38.8-2.8"
   id="path348" />
			<path
   fill="#FFFFFF"
   d="M31.1-2.8c0,0.1,0,0.1,0,0.2c-0.1,0.1-0.1,0.1-0.2,0.1c-0.1,0.1-0.1,0.3-0.1,0.4c-0.2,0.1,0,0.2,0,0.3     c0,0,0,0.1,0,0.2c0,0.1,0,0.3,0.1,0.4C31-1,31.1-0.8,31.3-0.7c0.2,0.1,0.4,0.6,0.6,0.6c0.2,0,0.4-0.1,0.5-0.1     c0.2,0,0.4,0,0.6-0.1c0.2-0.1,0.1-0.3,0.3-0.5c0.1-0.1,0.3,0,0.4-0.1c0.2-0.1,0.3-0.3,0.4-0.5c0-0.1,0-0.1,0-0.2     c0-0.1,0.1-0.2,0.1-0.3c0-0.1-0.1-0.1-0.1-0.2c0-0.1,0-0.2,0-0.3c0-0.2,0-0.4-0.1-0.5c-0.4-0.7-1.2-0.9-2-0.8     c-0.2,0-0.3,0.1-0.4,0.2c-0.2,0.1-0.1,0.2-0.3,0.2c-0.1,0-0.2,0.1-0.2,0.2C31.1-2.8,31.1-2.9,31.1-2.8     C31.1-2.7,31.1-2.8,31.1-2.8"
   id="path350" />
			<path
   fill="#FFFFFF"
   d="M23.5-2.8c0,0.1,0,0.1,0,0.2c-0.1,0.1-0.1,0.1-0.2,0.1c-0.1,0.1-0.1,0.3-0.1,0.4c-0.2,0.1,0,0.2,0,0.3     c0,0,0,0.1,0,0.2c0,0.1,0,0.3,0.1,0.4c0.1,0.2,0.3,0.4,0.4,0.5C23.8-0.5,24-0.1,24.3,0c0.2,0,0.4-0.1,0.5-0.1     c0.2,0,0.4,0,0.6-0.1c0.2-0.1,0.1-0.3,0.3-0.5c0.1-0.1,0.3,0,0.4-0.1c0.2-0.1,0.3-0.3,0.4-0.5c0-0.1,0-0.1,0-0.2     c0-0.1,0.1-0.2,0.1-0.3c0-0.1-0.1-0.1-0.1-0.2c0-0.1,0-0.2,0-0.3c0-0.2,0-0.4-0.1-0.5c-0.4-0.7-1.2-0.9-2-0.8     c-0.2,0-0.3,0.1-0.4,0.2c-0.2,0.1-0.1,0.2-0.3,0.2c-0.1,0-0.2,0.1-0.2,0.2C23.5-2.8,23.5-2.9,23.5-2.8     C23.5-2.7,23.5-2.8,23.5-2.8"
   id="path352" />
			<path
   fill="#FFFFFF"
   d="M15.8-2.8c0,0.1,0,0.1,0,0.2c-0.1,0.1-0.1,0.1-0.2,0.1c-0.1,0.1-0.1,0.3-0.1,0.4c-0.2,0.1,0,0.2,0,0.3     c0,0,0,0.1,0,0.2c0,0.1,0,0.3,0.1,0.4C15.7-1,15.8-0.8,16-0.7c0.2,0.1,0.4,0.6,0.6,0.6c0.2,0,0.4-0.1,0.5-0.1     c0.2,0,0.4,0,0.6-0.1c0.2-0.1,0.1-0.3,0.3-0.5c0.1-0.1,0.3,0,0.4-0.1c0.2-0.1,0.3-0.3,0.4-0.5c0-0.1,0-0.1,0-0.2     c0-0.1,0.1-0.2,0.1-0.3c0-0.1-0.1-0.1-0.1-0.2c0-0.1,0-0.2,0-0.3c0-0.2,0-0.4-0.1-0.5c-0.4-0.7-1.2-0.9-2-0.8     c-0.2,0-0.3,0.1-0.4,0.2c-0.2,0.1-0.1,0.2-0.3,0.2c-0.1,0-0.2,0.1-0.2,0.2C15.8-2.8,15.8-2.9,15.8-2.8     C15.8-2.7,15.8-2.8,15.8-2.8"
   id="path354" />
			<path
   fill="#FFFFFF"
   d="M8.2-2.8c0,0.1,0,0.1,0,0.2C8.1-2.5,8-2.5,8-2.5C7.9-2.4,7.9-2.2,7.9-2.1c-0.2,0.1,0,0.2,0,0.3     c0,0,0,0.1,0,0.2c0,0.1,0,0.3,0.1,0.4C8-1,8.2-0.8,8.3-0.7C8.5-0.5,8.7-0.1,8.9,0c0.2,0,0.4-0.1,0.5-0.1c0.2,0,0.4,0,0.6-0.1     c0.2-0.1,0.1-0.3,0.3-0.5c0.1-0.1,0.3,0,0.4-0.1c0.2-0.1,0.3-0.3,0.4-0.5c0-0.1,0-0.1,0-0.2c0-0.1,0.1-0.2,0.1-0.3     c0-0.1-0.1-0.1-0.1-0.2c0-0.1,0-0.2,0-0.3c0-0.2,0-0.4-0.1-0.5c-0.4-0.7-1.2-0.9-2-0.8C9-3.5,8.8-3.4,8.7-3.4     C8.5-3.3,8.6-3.2,8.4-3.1C8.3-3.1,8.2-3,8.2-2.9C8.2-2.8,8.2-2.9,8.2-2.8C8.1-2.7,8.1-2.8,8.2-2.8"
   id="path356" />
			<path
   fill="#FFFFFF"
   d="M0.5-2.8c0,0.1,0,0.1,0,0.2C0.4-2.5,0.4-2.5,0.3-2.5C0.3-2.4,0.2-2.2,0.2-2.1c-0.2,0.1,0,0.2,0,0.3     c0,0,0,0.1,0,0.2c0,0.1,0,0.3,0.1,0.4C0.3-1,0.5-0.8,0.7-0.7C0.9-0.5,1-0.1,1.3,0c0.2,0,0.4-0.1,0.5-0.1c0.2,0,0.4,0,0.6-0.1     c0.2-0.1,0.1-0.3,0.3-0.5c0.1-0.1,0.3,0,0.4-0.1C3.3-0.8,3.4-1,3.5-1.2c0-0.1,0-0.1,0-0.2c0-0.1,0.1-0.2,0.1-0.3     c0-0.1-0.1-0.1-0.1-0.2c0-0.1,0-0.2,0-0.3c0-0.2,0-0.4-0.1-0.5c-0.4-0.7-1.2-0.9-2-0.8C1.3-3.5,1.2-3.4,1-3.4     C0.9-3.3,0.9-3.2,0.7-3.1C0.6-3.1,0.5-3,0.5-2.9C0.5-2.8,0.5-2.9,0.5-2.8C0.5-2.7,0.5-2.8,0.5-2.8"
   id="path358" />
		</g>
	</g>
</pattern>
<g
   id="g5322"
   transform="matrix(2.4378704,0,0,2.4378704,-521.16884,-87.763319)"><g
     id="g369"
     transform="matrix(1.0140358,0,0,1.0140358,200.85079,36.113951)">
		<path
   fill="#ff6600"
   d="m 181,131.8 c 3.3,3.3 5.9,6.8 7.8,10.7 6,12.2 3.8,25.7 -8.2,37.4 -13.7,13.5 -37.1,21.7 -64.2,21.7 -27.1,0 -50.5,-8.3 -64.2,-21.7 -12,-11.7 -14.2,-25.2 -8.2,-37.4 1.9,-3.8 4.5,-7.4 7.8,-10.7 -3.8,3.7 -6.9,7 -9.6,12.5 -5.9,11.7 -4,28.5 8.4,40.6 14.1,13.8 36,22.1 66,22.1 30,0 52,-8.6 65.5,-22.1 13.2,-13.3 13.7,-30.6 8.3,-41 -2.1,-4.3 -5.2,-8.3 -9.4,-12.1 z"
   id="path367" />
	</g><g
     opacity="0.85"
     id="g384"
     transform="matrix(1.0140358,0,0,1.0140358,200.85079,36.113951)">
		<linearGradient
   id="SVGID_1_"
   gradientUnits="userSpaceOnUse"
   x1="52.066101"
   y1="138.7323"
   x2="159.7341"
   y2="177.34731">
			<stop
   offset="0"
   style="stop-color:#FF6600"
   id="stop371" />
			<stop
   offset="0.1519"
   style="stop-color:#DD5C0E"
   id="stop373" />
			<stop
   offset="0.5665"
   style="stop-color:#874430"
   id="stop375" />
			<stop
   offset="0.8588"
   style="stop-color:#503446"
   id="stop377" />
			<stop
   offset="1"
   style="stop-color:#3B2E4F"
   id="stop379" />
		</linearGradient>
		<path
   fill="url(#SVGID_1_)"
   d="m 181,131.8 c 3.3,3.3 5.9,6.8 7.8,10.7 6,12.2 3.8,25.7 -8.2,37.4 -13.7,13.5 -37.1,21.7 -64.2,21.7 -27.1,0 -50.5,-8.3 -64.2,-21.7 -12,-11.7 -14.2,-25.2 -8.2,-37.4 1.9,-3.8 4.5,-7.4 7.8,-10.7 -3.8,3.7 -6.9,7 -9.6,12.5 -5.9,11.7 -4,28.5 8.4,40.6 14.1,13.8 36,22.1 66,22.1 30,0 52,-8.6 65.5,-22.1 13.2,-13.3 13.7,-30.6 8.3,-41 -2.1,-4.3 -5.2,-8.3 -9.4,-12.1 z"
   id="path382"
   style="fill:url(#SVGID_1_)" />
	</g><g
     id="g394"
     transform="matrix(1.0140358,0,0,1.0140358,200.85079,36.113951)">
		<defs
   id="defs387">
			<path
   id="SVGID_2_"
   d="m 159,117.7 c -12.7,-5.3 -27.5,-8 -42.5,-8 -15,0 -29.8,2.7 -42.5,8 -13.9,5.8 -24.7,14.3 -29.8,24.8 -6,12.2 -3.8,25.7 8.2,37.4 13.7,13.5 37.1,21.7 64.2,21.7 27.1,0 50.5,-8.3 64.2,-21.7 12,-11.7 14.2,-25.2 8.2,-37.4 -5.3,-10.5 -16.1,-19.1 -30,-24.8 z" />
		</defs>
		<use
   xlink:href="#SVGID_2_"
   overflow="visible"
   fill="#ff6600"
   id="use389" />
		<clipPath
   id="SVGID_3_">
			<use
   xlink:href="#SVGID_2_"
   overflow="visible"
   id="use391" />
		</clipPath>
	</g><g
     id="g403"
     transform="matrix(1.0140358,0,0,1.0140358,200.85079,36.113951)">
		<linearGradient
   id="SVGID_4_"
   gradientUnits="userSpaceOnUse"
   x1="26.408701"
   y1="155.952"
   x2="121.9584"
   y2="139.104">
			<stop
   offset="0"
   style="stop-color:#FFE386"
   id="stop396" />
			<stop
   offset="1"
   style="stop-color:#FF6600"
   id="stop398" />
		</linearGradient>
		<path
   fill="url(#SVGID_4_)"
   d="m 119,123.6 c -2.5,-5.1 -2,-9.8 -1.5,-13.8 -0.3,0 -0.7,0 -1,0 -15,0 -29.8,2.7 -42.5,8 -13.9,5.8 -24.7,14.3 -29.8,24.8 -6,12.2 -3.8,25.7 8.2,37.4 0.8,0.8 1.7,1.6 2.6,2.4 50.5,-3.1 76.8,-32.6 64,-58.8 z"
   id="path401"
   style="fill:url(#SVGID_4_)" />
	</g><path
     fill-rule="evenodd"
     clip-rule="evenodd"
     fill="#ffffff"
     d="m 286.0298,162.26 c 9.53193,2.43369 18.55685,5.27299 27.78458,8.72071 1.82526,-5.47579 3.75193,-10.95158 5.98281,-16.22457 2.23088,5.37439 4.15755,10.74878 5.98281,16.22457 9.22773,-3.34632 18.04984,-6.18562 27.58177,-8.6193 -6.69263,4.15754 -12.57404,8.5179 -18.75966,13.38527 12.57405,1.62246 24.33686,3.65053 36.7081,6.38843 -12.37124,-0.30421 -23.93125,0.2028 -36.30248,0.91263 8.7207,7.40246 16.12317,14.50071 24.23545,22.51159 -11.05299,-6.28702 -21.49756,-11.66141 -33.05757,-17.1372 -2.23087,9.63334 -4.36035,19.36808 -6.38842,29.00142 -2.02807,-9.73474 -3.95474,-18.96247 -6.18562,-28.59581 -11.56001,5.4758 -22.00458,10.64738 -33.46318,16.73159 8.11229,-8.01088 15.71755,-15.00773 24.43826,-22.30878 -12.37123,-0.81123 -24.13405,-0.91264 -36.8095,-1.11544 12.37124,-2.6365 24.64107,-4.76597 37.21512,-6.38843 -6.18562,-4.76597 -12.26984,-9.22773 -18.96247,-13.48668 z m 33.76739,16.9344 c 0,-7.09825 0,-14.1965 0,-21.29475 -2.12948,5.88141 -4.05614,11.96562 -5.88141,17.94843 1.92667,1.11544 3.85334,2.23088 5.88141,3.34632 z m -28.1902,-14.60211 c 7.60527,3.34631 15.00773,7.09825 22.30879,11.15439 -1.82526,0.20281 -3.65053,0.40561 -5.37439,0.60842 -5.57719,-4.05614 -11.15439,-8.01088 -16.9344,-11.76281 z m 28.1902,14.60211 c 14.70352,0 29.30563,0.70983 44.00915,2.23088 -12.77685,-2.33228 -25.24949,-4.05614 -38.12774,-5.5772 -2.02807,1.01404 -3.95474,2.23088 -5.88141,3.34632 z m 28.08879,-14.60211 c -7.60527,3.34631 -15.10913,7.09825 -22.30879,11.15439 -0.30421,-1.01404 -0.60842,-2.02807 -0.91263,-2.9407 7.60527,-3.04211 15.41335,-5.78001 23.22142,-8.21369 z m -28.90002,14.60211 c 0.30421,10.34317 0.70983,21.19335 0.81123,31.23231 1.92667,-9.22773 3.85334,-18.45546 5.98281,-27.58178 -2.02807,-1.31825 -4.76597,-2.53509 -6.79404,-3.65053 z m 33.15897,21.19335 c -8.5179,-6.18562 -17.34001,-12.06703 -26.36493,-17.64422 1.82526,-0.10141 3.65053,-0.30421 5.47579,-0.40562 7.19966,5.78001 14.0951,11.86422 20.88914,18.04984 z M 319.79719,179.1944 c -14.80492,0.20281 -26.36493,0.91263 -40.76424,2.12948 12.47264,0 22.10598,0.50702 34.78143,1.52105 1.92667,-1.31825 3.95474,-2.53509 5.98281,-3.65053 z m -32.34774,21.19335 c 8.6193,-6.18562 17.34001,-12.06703 26.36493,-17.64422 0.30421,1.11544 0.50702,2.33228 0.81123,3.44772 -9.32913,4.46176 -18.35405,9.22773 -27.17616,14.1965 z"
     id="path405"
     style="stroke-width:1.01404" /><path
     fill-rule="evenodd"
     clip-rule="evenodd"
     fill="#ffffff"
     d="m 321.21684,237.70427 c -0.40561,0.30421 -1.01404,0.60842 -1.41965,1.01403 -0.40561,-0.30421 -1.01404,-0.60842 -1.52105,-1.01403 0,-3.95474 0,-8.01088 0,-11.96562 0.40561,-0.30422 1.01403,-0.60843 1.52105,-0.91264 0.40561,0.30421 1.01404,0.60842 1.41965,0.91264 0,3.95474 0,8.01088 0,11.96562 z"
     id="path407"
     style="stroke-width:1.01404" /><path
     fill-rule="evenodd"
     clip-rule="evenodd"
     fill="#ffffff"
     d="m 250.03153,208.70284 c -0.20281,0.40562 -0.50702,0.91264 -0.70983,1.31825 0.40562,0.20281 1.31825,0.40562 1.62246,0.60842 4.15755,-2.23088 8.31509,-4.46176 12.47264,-6.59123 0.20281,-0.60842 0.20281,-1.01404 0.40561,-1.41965 -0.40561,-0.1014 -0.81123,-0.20281 -1.31824,-0.30421 -4.05615,2.02807 -8.21369,4.15755 -12.47264,6.38842 z"
     id="path409"
     style="stroke-width:1.01404" /><path
     fill-rule="evenodd"
     clip-rule="evenodd"
     fill="#ffffff"
     d="m 246.98942,184.16318 c -0.40562,0.30421 -0.81123,0.60842 -1.11544,0.91263 0.20281,0.30421 0.40561,0.60842 0.60842,0.91263 3.95474,-0.60842 7.80808,-1.01403 11.76282,-1.41965 0.40561,-0.30421 0.81122,-0.81123 1.11544,-1.11544 -0.20281,-0.2028 -0.50702,-0.50702 -0.70983,-0.70982 -3.85334,0.40561 -7.70667,0.81123 -11.66141,1.41965 z"
     id="path411"
     style="stroke-width:1.01404" /><path
     fill-rule="evenodd"
     clip-rule="evenodd"
     fill="#ffffff"
     d="m 261.99715,164.28808 c -0.40562,0.2028 -0.81123,0.30421 -1.21684,0.50701 0,0.20281 0.1014,0.70983 0.1014,0.91264 2.8393,0.40561 5.78,0.91263 8.6193,1.41965 0.40562,-0.20281 0.91264,-0.50702 1.21685,-0.70983 -0.10141,-0.20281 -0.10141,-0.50702 -0.10141,-0.70982 -2.8393,-0.50702 -5.6786,-1.01404 -8.6193,-1.41965 z"
     id="path413"
     style="stroke-width:1.01404" /><path
     fill-rule="evenodd"
     clip-rule="evenodd"
     fill="#ffffff"
     d="m 350.11686,152.11965 c 0.40561,0 0.70982,0 1.11544,0 0.1014,0.1014 0.30421,0.30421 0.40561,0.40561 -1.52105,0.91263 -3.0421,1.92667 -4.46175,2.9407 -0.40562,0 -0.81123,0 -1.11544,0 -0.10141,-0.2028 -0.30421,-0.30421 -0.40562,-0.50701 1.41965,-0.91264 2.94071,-1.92667 4.46176,-2.8393 z"
     id="path415"
     style="stroke-width:1.01404" /><path
     fill-rule="evenodd"
     clip-rule="evenodd"
     fill="#ffffff"
     d="m 318.68175,147.9621 c 0.30421,-0.1014 0.50702,-0.20281 0.81123,-0.20281 0.30421,0.10141 0.60842,0.20281 0.81123,0.20281 0,1.21684 0,2.33228 0,3.54913 -0.30421,0.1014 -0.60842,0.2028 -0.91263,0.30421 -0.30422,-0.10141 -0.60843,-0.20281 -0.81123,-0.30421 0.1014,-1.21685 0.1014,-2.43369 0.1014,-3.54913 z"
     id="path417"
     style="stroke-width:1.01404" /><path
     fill-rule="evenodd"
     clip-rule="evenodd"
     fill="#ffffff"
     d="m 287.14524,152.62666 c 0.1014,-0.1014 0.50701,-0.40561 0.60842,-0.50701 0.40561,0 0.70982,0 1.11544,0 1.52105,0.91263 3.0421,1.92666 4.46175,2.9407 -0.1014,0.20281 -0.30421,0.30421 -0.40561,0.50702 -0.40561,0 -0.91263,0.1014 -1.31825,0.1014 -1.41965,-1.11544 -2.9407,-2.12947 -4.46175,-3.04211 z"
     id="path419"
     style="stroke-width:1.01404" /><path
     fill-rule="evenodd"
     clip-rule="evenodd"
     fill="#ffffff"
     d="m 278.01891,230.40321 c -0.60842,0.1014 -1.31824,0.1014 -1.92666,0.30421 -0.10141,-0.40561 -0.40562,-0.81123 -0.50702,-1.21684 2.9407,-3.44772 5.88141,-6.99685 8.92351,-10.44457 0.60842,-0.1014 1.31825,-0.20281 1.92667,-0.40562 0.10141,0.40562 0.40562,1.01404 0.60842,1.31825 -3.14351,3.44772 -6.08421,6.89544 -9.02492,10.44457 z"
     id="path421"
     style="stroke-width:1.01404" /><path
     fill-rule="evenodd"
     clip-rule="evenodd"
     fill="#ffffff"
     d="m 388.44741,208.70284 c 0.20281,0.40562 0.50702,0.91264 0.70983,1.31825 -0.40562,0.20281 -1.31825,0.40562 -1.62246,0.60842 -4.15755,-2.23088 -8.31509,-4.46176 -12.47264,-6.59123 -0.20281,-0.60842 -0.30421,-1.01404 -0.40561,-1.41965 0.40561,-0.1014 0.81122,-0.20281 1.31824,-0.30421 4.05615,2.02807 8.3151,4.15755 12.47264,6.38842 z"
     id="path423"
     style="stroke-width:1.01404" /><path
     fill-rule="evenodd"
     clip-rule="evenodd"
     fill="#ffffff"
     d="m 391.48952,184.16318 c 0.40561,0.30421 0.81123,0.60842 1.11544,0.91263 -0.20281,0.30421 -0.40561,0.60842 -0.60842,0.91263 -3.95474,-0.60842 -7.80808,-1.01403 -11.76282,-1.41965 -0.40561,-0.30421 -0.81123,-0.81123 -1.11544,-1.11544 0.20281,-0.2028 0.50702,-0.50702 0.70983,-0.70982 3.85333,0.40561 7.80807,0.81123 11.66141,1.41965 z"
     id="path425"
     style="stroke-width:1.01404" /><path
     fill-rule="evenodd"
     clip-rule="evenodd"
     fill="#ffffff"
     d="m 376.48179,164.28808 c 0.40561,0.2028 0.81123,0.30421 1.21684,0.50701 0,0.20281 -0.1014,0.70983 -0.1014,0.91264 -2.8393,0.40561 -5.78,0.91263 -8.6193,1.41965 -0.40562,-0.20281 -0.91264,-0.50702 -1.21685,-0.70983 0.10141,-0.20281 0.10141,-0.50702 0.20281,-0.70982 2.7379,-0.50702 5.6786,-1.01404 8.5179,-1.41965 z"
     id="path427"
     style="stroke-width:1.01404" /><path
     fill-rule="evenodd"
     clip-rule="evenodd"
     fill="#ffffff"
     d="m 360.56143,230.40321 c 0.50702,0.1014 1.31825,0.20281 1.92667,0.30421 0.2028,-0.40561 0.40561,-0.81123 0.50701,-1.21684 -2.9407,-3.44772 -5.8814,-6.99685 -8.92351,-10.44457 -0.60842,-0.1014 -1.31825,-0.20281 -1.92667,-0.40562 -0.1014,0.40562 -0.40561,1.01404 -0.60842,1.31825 3.14351,3.44772 6.08421,6.89544 9.02492,10.44457 z"
     id="path429"
     style="stroke-width:1.01404" /><path
     fill-rule="evenodd"
     clip-rule="evenodd"
     fill="url(#SVGID_5_)"
     d="m 313.81438,171.38633 c -8.92352,-3.24492 -17.64422,-6.08422 -26.77055,-8.4165 -0.30421,-0.20281 -0.60842,-0.40561 -0.91263,-0.60842 9.53194,2.43368 18.55686,5.27298 27.78458,8.72071 1.82527,-5.4758 3.75193,-10.95159 5.98281,-16.22458 2.23088,5.37439 4.15755,10.74878 5.98281,16.22458 9.22773,-3.34632 18.04984,-6.18562 27.58178,-8.61931 -0.30421,0.20281 -0.60842,0.40562 -0.91263,0.60842 -9.22773,2.33229 -17.74563,5.07018 -26.66915,8.3151 -1.82526,-5.4758 -3.75193,-10.85019 -5.98281,-16.22458 -2.33228,5.27299 -4.25895,10.74878 -6.08421,16.22458 z m -9.32913,12.06702 c -8.5179,7.30106 -16.42738,14.39931 -24.43826,22.30879 0.30421,-0.20281 1.01403,-0.60842 1.31824,-0.70982 7.80808,-7.70668 14.70352,-13.9937 23.12002,-21.09195 z m 15.31194,-3.95474 z m 0,-0.30421 z m 0,0 v 0 c 0,0.10141 0,0.20281 0,0.40562 v 0 c 0,-0.20281 0,-0.30421 0,-0.40562 z m -0.30421,0.20281 c -0.1014,0.1014 -0.20281,0.1014 -0.30421,0.20281 -1.82527,1.11544 -3.54913,2.12947 -5.37439,3.24491 l 0.1014,0.30421 c 1.92667,-1.21684 3.95474,-2.33228 5.88141,-3.54912 v -0.40562 c -0.1014,0 -0.20281,0.10141 -0.30421,0.20281 z m 0.30421,0.1014 z m 0,-0.30421 z m -5.88141,-3.34632 c -0.20281,0 -0.40561,0 -0.50702,0.10141 -1.62245,0.2028 -3.24491,0.30421 -4.86737,0.50702 -5.47579,-4.15755 -11.05299,-8.11229 -16.9344,-11.76282 v 0.40561 c 5.78001,3.65053 11.45861,7.60527 16.9344,11.76282 1.82527,-0.20281 3.65053,-0.40561 5.37439,-0.60842 1.72386,1.01403 3.44772,1.92667 5.17158,2.9407 0.20281,0 0.50702,0 0.70983,0 -1.92667,-1.11544 -3.95474,-2.33228 -5.88141,-3.34632 z m -26.46633,25.04669 c 8.92351,-4.96878 17.94843,-9.73475 27.17616,-14.1965 v -0.50702 c -9.22773,4.46176 -18.25265,9.12632 -27.17616,14.1965 z M 325.78,182.74353 c -2.12947,9.02492 -4.15755,18.45545 -5.98281,27.58177 v 0.40562 c 1.92667,-9.22773 3.85334,-18.35405 5.98281,-27.58178 6.18562,3.75193 15.00773,9.63334 26.36493,17.74563 v -0.50702 c -8.6193,-6.18562 -17.34001,-12.06703 -26.36493,-17.64422 z m 9.53194,0.70982 -0.40562,-0.30421 v 0.60842 c 8.4165,7.09825 15.10914,13.48668 22.91721,21.19335 0.30421,0.20281 1.01404,0.60842 1.31825,0.70983 -8.21369,-8.11229 -15.51475,-15.10914 -23.82984,-22.20739 z m -30.72529,-7.50386 c -12.47264,1.62246 -24.53966,3.65053 -36.8095,6.28702 0.60842,0 1.31825,0 1.92667,0 11.76282,-2.53509 23.32282,-4.46176 35.28845,-5.98281 v -0.40562 z m 9.22773,6.79404 c -11.56001,-1.01404 -23.12002,-1.62246 -34.68003,-1.52106 v 0.40562 c 11.45861,-0.10141 22.81581,0.50702 34.27441,1.41965 0,0 0.20281,-0.10141 0.40562,-0.30421 m 20.68633,-6.48983 c 11.96562,1.52105 22.91721,3.44772 34.68002,5.88141 0.60842,0 1.41965,0 2.02807,0 -12.37123,-2.6365 -24.13405,-4.76597 -36.70809,-6.38843 z m -14.0951,2.9407 c -0.20281,0 -0.40561,0 -0.60842,0 0.1014,0.10141 0.20281,0.10141 0.30421,0.20281 0.1014,0.1014 0.30421,0.1014 0.40561,0.20281 14.50072,0 28.90002,0.81123 43.29933,2.23088 v -0.40562 c -14.60211,-1.41965 -29.30563,-2.23088 -44.00915,-2.23088 m 5.78,-3.34632 c 0.20281,0 0.30421,0 0.50702,0.10141 7.09825,-3.95474 14.39931,-7.60527 21.80177,-10.85019 v -0.40561 c -7.60527,3.34632 -15.00773,7.09825 -22.30879,11.15439 m 0,0 c -0.30421,-1.01403 -0.60842,-2.02807 -0.91263,-2.9407 v 0.40561 c 0.30421,0.70983 0.50702,1.62246 0.91263,2.53509 -0.1014,0 0,0 0,0 m -63.07302,27.17616 c 0.30421,0.10141 0.81123,0.20281 1.11544,0.30421 0.1014,-0.2028 0.1014,-0.50701 0.2028,-0.70982 -0.40561,-0.1014 -0.81123,-0.20281 -1.31824,-0.30421 -4.15755,2.12947 -8.4165,4.25895 -12.57405,6.48983 -0.2028,0.40561 -0.50702,0.91263 -0.70982,1.31824 0.1014,0 0.2028,0.10141 0.30421,0.10141 0.1014,-0.20281 0.30421,-0.50702 0.40561,-0.70983 4.25895,-2.33228 8.4165,-4.36035 12.57405,-6.48983 z m -3.75194,-19.77369 c 0.10141,0.1014 0.30421,0.30421 0.40562,0.40561 0.1014,-0.1014 0.1014,-0.20281 0.20281,-0.20281 -0.20281,-0.2028 -0.50702,-0.50702 -0.70983,-0.70982 -3.85334,0.40561 -7.80808,0.91263 -11.66141,1.41965 -0.40562,0.30421 -0.81123,0.60842 -1.11544,0.91263 0.1014,0.20281 0.20281,0.20281 0.30421,0.40561 0.20281,-0.2028 0.81123,-0.60842 1.01404,-0.70982 3.85333,-0.60842 7.60526,-1.11544 11.56,-1.52105 z m 3.24492,-18.35405 c 2.8393,0.40561 8.72071,1.62245 8.72071,1.52105 -0.10141,-0.20281 -0.10141,-0.50702 -0.10141,-0.70982 -2.8393,-0.50702 -5.78,-1.01404 -8.6193,-1.41965 -0.40562,0.2028 -0.81123,0.30421 -1.21684,0.50701 0,0.30421 0,0.40562 0.1014,0.60843 0.30421,-0.10141 0.81123,-0.30422 1.11544,-0.50702 z m 89.23515,-12.16843 c 0,0 0,0 0,0 0.20281,0 0.30421,-0.10141 0.40561,-0.20281 -0.1014,-0.1014 -0.30421,-0.30421 -0.40561,-0.40561 -0.40562,0 -0.70983,0 -1.11544,0 -1.52105,0.91263 -3.04211,1.92666 -4.46176,2.9407 0.10141,0.1014 0.20281,0.20281 0.30421,0.40561 1.31825,-0.91263 2.7379,-1.82526 4.15755,-2.73789 0.40561,0 0.70982,0 1.11544,0 z m -32.55055,-4.15755 c 0.30421,-0.1014 0.50702,-0.20281 0.81123,-0.20281 0.30421,0.10141 0.60842,0.20281 0.81123,0.20281 v -0.60842 c -0.30421,-0.1014 -0.60842,-0.20281 -0.81123,-0.20281 -0.30421,0.10141 -0.50702,0.20281 -0.81123,0.20281 z m -29.81265,4.05614 c 1.41965,0.91264 2.73789,1.82527 4.15754,2.8393 0.10141,-0.1014 0.20281,-0.2028 0.30421,-0.40561 -1.52105,-1.01404 -2.9407,-2.02807 -4.46175,-2.9407 -0.40562,0 -0.70983,0 -1.11544,0 -0.10141,0.1014 -0.50702,0.40561 -0.60842,0.50701 0.1014,0.10141 0.2028,0.20281 0.40561,0.20281 0,0 0.20281,-0.20281 0.30421,-0.20281 0.30421,0 0.70983,0 1.01404,0 z m -2.6365,66.52075 c 0.20281,0.20281 0.30422,0.70983 0.50702,1.01404 0.10141,-0.1014 0.10141,-0.1014 0.20281,-0.20281 -0.1014,-0.20281 -0.40561,-0.91263 -0.60842,-1.31825 -0.60842,0.10141 -1.31825,0.20281 -1.92667,0.40562 -3.04211,3.44772 -5.98281,6.89544 -8.92352,10.44457 0,0.20281 0.20281,0.30421 0.20281,0.50702 1.92667,-2.23088 5.98281,-7.09825 8.92352,-10.44457 0.50701,-0.20281 1.11544,-0.30421 1.62245,-0.40562 z m 102.21481,-9.73474 c 0.10141,0.20281 0.30421,0.50702 0.40562,0.70982 0.1014,0 0.2028,-0.1014 0.30421,-0.1014 -0.20281,-0.40561 -0.50702,-0.91263 -0.70983,-1.31825 -4.15754,-2.23087 -8.31509,-4.36035 -12.57404,-6.48982 -0.40562,0.1014 -0.81123,0.2028 -1.31825,0.30421 0.10141,0.2028 0.20281,0.50701 0.20281,0.70982 0.30421,-0.1014 0.81123,-0.20281 1.11544,-0.30421 4.25895,2.23088 8.4165,4.25895 12.57404,6.48983 z m 2.94071,-24.74247 c 0.2028,0.2028 0.81123,0.60842 1.01403,0.70982 0.10141,-0.1014 0.10141,-0.20281 0.30421,-0.40561 -0.40561,-0.30421 -0.81123,-0.60843 -1.11544,-0.91264 -3.85333,-0.60842 -7.80807,-1.01403 -11.66141,-1.41965 -0.2028,0.20281 -0.50702,0.50702 -0.70982,0.70983 0.1014,0.1014 0.2028,0.1014 0.2028,0.20281 0.10141,-0.10141 0.30422,-0.30421 0.40562,-0.40562 3.85333,0.50702 7.70667,1.01404 11.56001,1.52106 z m -13.79089,-19.26668 c 0,-0.20281 0,-0.30422 0.1014,-0.60843 -0.40561,-0.2028 -0.81123,-0.30421 -1.21684,-0.50701 -2.8393,0.40561 -5.78,0.91263 -8.6193,1.41965 0,0.2028 -0.10141,0.50701 -0.20281,0.70982 0.1014,0 5.88141,-1.11544 8.72071,-1.52105 0.40561,0.2028 0.91263,0.40561 1.21684,0.50702 z m -23.72844,54.0481 c 2.94071,3.34632 6.99685,8.21369 8.92352,10.44457 0.1014,-0.2028 0.1014,-0.30421 0.2028,-0.50702 -2.9407,-3.44772 -5.8814,-6.99684 -8.92351,-10.44456 -0.60842,-0.10141 -1.31825,-0.20281 -1.92667,-0.40562 -0.20281,0.40562 -0.50702,1.11544 -0.60842,1.31825 0,0.1014 0.1014,0.1014 0.20281,0.20281 0.2028,-0.30422 0.40561,-0.81123 0.50701,-1.01404 0.60843,0.20281 1.21685,0.30421 1.62246,0.40561 z m -32.95616,6.69264 0.30421,11.56001 v -11.96562 c -0.40561,-0.30422 -1.01404,-0.60843 -1.41965,-0.91264 -0.40561,0.30421 -1.01404,0.60842 -1.52105,0.91264 v 11.96562 l 0.30421,-11.56001 c 0.30421,-0.20281 0.91263,-0.50702 1.21684,-0.70983 0.30421,0.30422 0.81123,0.50702 1.11544,0.70983 z m -1.41965,-3.44772 c 20.99054,0 64.28987,-10.74878 57.69864,-39.75021 -5.17159,-23.32282 -37.51933,-30.21826 -57.80004,-30.21826 -20.28072,0 -52.52706,6.89544 -57.80005,30.21826 -6.38842,28.90003 36.91091,39.75021 57.90145,39.75021 z m 0,-1.82527 c 20.17931,0 61.75478,-10.24176 55.67056,-38.12774 -4.86737,-22.5116 -36.09967,-29.20423 -55.67056,-29.20423 -19.46949,0 -50.70179,6.69263 -55.67057,29.20423 -6.08421,27.78458 35.49126,38.12774 55.67057,38.12774 z"
     id="path436"
     style="fill:url(#SVGID_5_);stroke-width:1.01404" /><path
     fill-rule="evenodd"
     clip-rule="evenodd"
     fill="#ffffff"
     d="m 261.89575,183.55476 c 5.17158,-23.32283 36.20107,-30.31967 57.80004,-30.31967 21.49755,0 52.52705,6.99684 57.80004,30.31967 6.48983,29.00142 -36.8095,39.7502 -57.80004,39.7502 -20.99055,0.1014 -64.28987,-10.74878 -57.80004,-39.7502 z m 2.12947,-0.10141 c 4.86737,-22.51159 36.09967,-29.20423 55.67057,-29.20423 19.46948,0 50.70179,6.69264 55.67056,29.20423 6.08422,27.78458 -35.49125,38.12775 -55.67056,38.12775 -20.17932,0 -61.75478,-10.34317 -55.67057,-38.12775 z"
     id="path438"
     style="stroke-width:1.01404" /><path
     opacity="0.66"
     fill="#3b2e4f"
     d="m 388.54882,188.42213 -9.43054,-1.41965 -1.21684,-0.30421 c -1.62246,-0.30421 -4.66456,-2.02807 -5.98281,-4.05615 -1.31825,-2.02807 -4.46176,-5.57719 -6.28702,-7.70667 -2.43369,-3.04211 -7.90948,-5.78 -8.72071,-7.09825 -0.81123,-1.21684 -2.12948,-3.44772 -2.53509,-4.36035 -0.40561,-0.91263 -1.21684,-1.62246 -2.63649,-1.52106 -1.41965,0.10141 -1.52106,0.60843 -2.7379,0.60843 -1.21684,0.1014 -2.9407,-0.20281 -2.9407,-0.20281 -0.70983,-0.10141 -1.21685,-0.20281 -1.82527,-0.20281 -0.70982,1.21684 -1.92667,2.02807 -4.76597,2.02807 -0.2028,0 -0.40561,0 -0.50701,-0.1014 0.30421,0.60842 2.9407,1.01403 3.34631,1.01403 0.40562,0 2.94071,0.70983 3.44773,0.81123 1.11544,0.20281 0.91263,-0.2028 2.73789,0.91264 3.04211,1.72386 7.50387,6.59123 8.4165,10.74878 0.50702,2.33228 4.46176,6.08421 4.96878,8.21369 -5.27299,-0.40562 -12.37124,-3.85334 -12.37124,-3.85334 l -0.91263,-0.40562 c 0,0 -3.14351,-1.62245 -8.01089,-1.82526 -9.12632,-0.81123 -12.57404,-2.02807 -13.48667,-2.33228 -1.92667,-0.60842 -1.62246,-0.91263 -3.14351,-1.01404 -0.30421,0 -0.60843,0 -0.81123,0 -0.20281,0.30421 -0.40562,0.70983 -0.81123,1.01404 -1.72386,1.62246 -2.8393,2.8393 -4.25895,4.96877 -0.40562,0.60842 -1.01404,0.91264 -1.82527,1.21685 1.72386,-0.40562 5.17159,-1.31825 5.17159,-1.31825 3.24491,-0.40561 8.11228,1.01404 8.11228,1.01404 1.82527,0.40561 4.76597,1.52105 4.76597,1.52105 0,0 12.97966,3.95474 16.12317,6.28702 2.12948,1.52105 12.87826,5.5772 15.71756,6.59123 2.8393,1.01404 9.83614,4.76597 9.83614,4.76597 1.82527,1.52106 12.16843,6.08422 15.10914,6.99685 3.65052,-6.38843 4.96877,-12.87826 3.95474,-19.46949 v 0 z"
     id="path440"
     style="stroke-width:1.01404" /><path
     opacity="0.66"
     fill="#3b2e4f"
     d="m 383.78285,177.57195 c -0.91263,0 -1.92667,0.2028 -1.92667,0.2028 l -2.53509,1.52106 c -0.30421,0.50701 0.81123,1.21684 0.81123,1.21684 0,0 3.24491,0.20281 3.24491,1.01403 2.43369,1.31825 7.50387,1.41965 10.14036,1.52106 v 0 c -0.30421,-0.91263 -0.70982,-1.72386 -1.11544,-2.63649 -0.40561,-0.81123 -0.91263,-1.62246 -1.31824,-2.53509 v 0 c -0.20281,0.2028 -2.23088,-0.40562 -7.30106,-0.30421 z"
     id="path442"
     style="stroke-width:1.01404" /><path
     opacity="0.66"
     fill="#3b2e4f"
     d="m 364.51617,209.41267 c 0,0 -0.60842,-0.81123 -3.95474,-0.81123 -2.12948,0 0.91263,4.96878 0.91263,4.96878 1.92667,1.31824 8.72071,3.24491 10.14036,3.44772 1.41965,0.2028 6.18562,1.62245 6.18562,1.62245 0,0 2.43368,0.30422 5.07018,1.11544 0.40561,-0.40561 0.81122,-0.70982 1.21684,-1.11544 1.41965,-1.41965 2.8393,-2.9407 3.95474,-4.36035 -5.78001,-0.1014 -13.89229,-0.20281 -20.07791,-3.44772 -0.70983,-2.02807 -3.44772,-1.41965 -3.44772,-1.41965 z"
     id="path444"
     style="stroke-width:1.01404" /><path
     fill="#ffbf5c"
     d="m 347.07475,119.06208 c 0,0 -1.92667,-1.72386 -1.92667,-1.82526 -0.1014,-0.60843 0.50702,-1.41966 0.70983,-2.43369 -0.20281,-0.1014 -0.40561,-0.20281 -0.60842,-0.20281 -0.50702,-1.72386 -0.81123,-4.96877 0,-6.69263 0.40561,-0.81123 0.91263,-1.92667 0.60842,-2.94071 -1.62246,-5.374388 -4.66457,-10.140356 -6.89544,-15.210535 -0.60843,-1.41965 -0.50702,-2.433686 -0.60843,-3.853336 -1.72386,-1.926668 -3.65052,-6.79404 -4.66456,-9.836147 -2.02807,5.070179 -3.34632,10.748779 -3.34632,12.168429 0,5.678601 5.6786,8.416497 3.75193,17.745629 -0.40561,1.82526 -1.11544,4.36035 -1.72386,6.89544 1.21685,6.59123 1.21685,11.2558 2.94071,18.86107 2.43368,2.43368 4.46175,5.57719 5.57719,9.43053 0.70983,2.43369 2.7379,8.21369 5.37439,9.02492 1.62246,0.50702 -5.57719,1.82526 -7.60526,-0.70983 -1.92667,-2.43368 -5.37439,-4.36035 -6.89545,-6.99684 -1.31824,-2.02808 -3.24491,-6.48983 -4.46176,-8.61931 l -1.52105,8.01088 c 2.12948,8.61931 0.81123,10.44457 -1.01404,17.44142 -0.81122,3.04211 -6.89544,-11.05299 -6.89544,-12.16843 0,-3.04211 -0.20281,-4.15755 -0.91263,-6.89544 -1.31825,-2.43369 -1.11544,-5.98281 -0.91263,-8.72071 0.30421,-4.46176 0.30421,-12.87825 0.40561,-15.10913 -1.52105,-3.75194 -5.47579,-10.54598 -5.88141,-14.39931 -0.60842,-5.982813 0.40562,-12.067028 -0.40561,-17.948436 -1.01404,2.940704 -2.12948,6.79404 -4.46176,9.024919 -3.44772,3.447722 -6.69263,7.199657 -9.73474,10.951587 -1.11544,1.52105 -0.10141,2.33228 -1.92667,4.76597 -1.72386,2.43368 -0.81123,1.31824 -1.11544,3.65053 -0.1014,0.40561 -0.30421,0.70982 -0.40561,0.81123 -0.91264,0.81122 -1.92667,1.41965 -3.24492,0.91263 -2.53509,-1.31825 -2.73789,-3.14351 -2.9407,-5.5772 -0.30421,-4.66456 3.14351,-4.86737 5.07018,-7.70667 3.85333,-5.577198 5.78,-14.804924 9.83614,-18.962471 0.30421,-0.811228 1.21685,-3.853336 3.04211,-8.21369 0.10141,-5.475793 1.41965,-10.444569 7.09825,-12.675447 2.33228,-0.912633 5.37439,-1.11544 5.4758,-4.360354 0,-0.405615 -0.10141,-1.318247 -0.30422,-1.723861 -0.91263,-0.709825 -1.62245,-0.811229 -2.02807,-1.318247 -0.91263,-1.216843 -1.72386,-8.720708 -1.62245,-9.227725 1.31824,-6.388426 4.36035,-8.619305 8.31509,-8.416498 4.56316,0.202808 8.21369,2.433686 8.01088,8.619305 -0.2028,4.968775 -5.27298,11.357201 2.43369,13.790887 2.9407,0.912632 3.54912,0.30421 5.98281,2.8393 2.8393,2.8393 3.54912,7.909479 3.95474,12.574044 l 2.8393,6.692636 c 5.27299,8.923515 3.34632,11.762815 5.37439,20.787731 0.50702,2.33229 1.41965,4.46176 1.52105,9.53194 0.40562,2.63649 -1.52105,8.11229 -4.25895,8.21369 z"
     id="path446"
     style="stroke-width:1.01404" /><path
     fill="url(#SVGID_6_)"
     d="m 291.9112,112.26804 c 0.20281,-2.33228 -0.1014,-2.12948 1.41965,-4.36035 1.41966,-2.02808 0.70983,-3.04211 1.92667,-4.86738 3.04211,-3.853332 5.98281,-7.706668 9.32913,-11.15439 2.33228,-2.332282 5.37439,-10.140358 6.18562,-12.878255 0.1014,-0.405614 0.40562,-0.608421 0.40562,-0.30421 0.50701,5.272986 1.21684,9.63334 1.01403,14.804922 -0.40561,10.850183 -0.1014,9.734743 4.46176,19.875103 0.40561,-4.05614 1.31824,-9.93755 3.75193,-11.96562 -2.7379,10.54597 -2.9407,25.5537 -3.24491,30.21826 -0.10141,2.33229 -0.81123,6.08422 0.30421,8.21369 0.40561,1.41965 0.40561,3.65053 0.40561,5.37439 0,1.01404 0.1014,18.55686 0.1014,18.55686 l -1.62245,8.11228 c -0.60842,2.33229 -3.65053,6.28703 -5.88141,7.50387 -0.70983,0.40561 -2.33228,1.31825 -2.33228,2.02807 0,1.31825 8.31509,3.65053 10.14036,0.81123 1.41965,-2.23088 2.53509,-3.44772 4.25895,-4.96878 2.63649,-2.53509 -0.30421,-5.07017 0.1014,-8.41649 0.60842,-5.88141 3.14351,-10.95159 3.95474,-16.52879 0.50702,-3.34631 0.40561,-6.28702 -1.11544,-10.14035 l 1.11544,-10.64738 c 1.21684,1.82526 2.33228,4.76597 3.54912,7.19965 2.02808,4.25895 2.12948,4.76597 5.6786,8.21369 1.21685,1.21685 2.43369,2.6365 3.34632,4.05615 1.72386,2.63649 2.8393,5.27298 2.6365,8.5179 -1.21685,2.23088 -1.72386,2.12947 -3.34632,3.44772 0.1014,0.1014 -0.40562,1.31825 1.11544,1.31825 5.37439,0 4.66456,-2.8393 6.79404,-6.48983 1.31824,-2.33229 5.07018,-5.98281 0.91263,-7.19966 -1.31825,-0.40561 -2.53509,-1.21684 -3.24492,-2.43368 -2.8393,-4.76597 -2.9407,-4.66457 -4.46175,-9.12633 -0.91263,-2.63649 -2.7379,-4.86737 -4.86737,-6.59123 -1.31825,-3.04211 -1.82527,-5.17158 -2.23088,-8.31509 -0.60842,-4.36036 -1.01404,-7.40246 -1.72386,-11.86422 2.12947,-8.31509 3.14351,-10.03895 -0.40562,-18.049838 -0.81123,-1.825264 -1.31824,-3.751932 -1.31824,-5.982811 0,-2.636493 1.41965,-8.619304 2.8393,-11.762815 0.50701,-1.216843 1.21684,-2.433686 2.12947,-2.8393 0.91263,3.244914 3.85334,9.836147 5.5772,11.458604 0.1014,1.318247 0.1014,2.636493 0.60842,3.853336 2.23088,5.272986 5.27299,10.038955 6.89544,15.514744 0.50702,1.92667 -0.2028,2.8393 -0.70982,4.36036 -0.20281,0.70982 -0.20281,2.8393 0.1014,4.46176 l 0.70983,0.40561 c -0.10141,0.50702 -0.50702,1.82526 -0.70983,2.43369 0.1014,0.70982 1.01404,1.21684 1.01404,1.21684 1.21684,-0.30421 2.9407,-4.56316 2.8393,-6.38843 -0.20281,-5.27298 -1.31825,-7.70667 -1.62246,-9.22772 -1.72386,-9.024921 -0.70983,-11.458607 -5.78,-20.179315 l -2.8393,-7.098251 c -0.30422,-3.650529 -1.82527,-11.864219 -6.48983,-13.385272 -0.81123,-0.202807 -1.52106,-0.304211 -2.7379,-0.709825 -6.08422,-1.926668 -6.08422,-6.591233 -4.36035,-11.762816 1.52105,-4.563161 1.62245,-9.93755 -4.96878,-10.444568 -4.15755,-0.304211 -5.37439,2.940703 -6.28702,6.692636 0,0.405614 0.20281,6.489829 1.11544,7.808076 1.72386,1.318246 2.73789,0.912632 2.63649,4.25895 -0.1014,2.737897 -1.82526,4.360354 -4.25895,5.272986 -3.85334,1.318247 -5.88141,2.129475 -7.19965,6.185618 -0.40562,1.216843 -0.81123,3.042108 -0.81123,5.780005 v 0.202807 c -1.11544,2.737896 -2.53509,5.881407 -3.34632,8.822111 -4.76597,4.765968 -7.19965,15.717555 -11.96562,20.280718 -3.24492,3.04211 -4.15755,3.24491 -3.04211,8.01088 0.1014,0.50702 1.62246,1.72386 2.02807,1.92667 0.20281,-0.1014 1.52105,-0.81123 1.52105,-1.11544 z"
     id="path453"
     style="fill:url(#SVGID_6_);stroke-width:1.01404" /></g>
</svg>
