<svg xmlns="http://www.w3.org/2000/svg" width="640" height="360"><path fill="#EE7F00" d="M238.747 136c-6.565 0-12.931 1.504-18.911 4.311-8.54 4.032-16.286 10.755-22.61 19.678-4.107 5.792-7.624 12.506-10.377 20.015-5.191 14.175-5.133 25.672.174 33.249 3.01 4.282 9.266 9.4 21.985 9.414h.049c23.17 0 40.465-15.14 51.418-44.998 2.893-7.9 6.71-22.644-.266-32.593-4.214-6.014-11.423-9.066-21.462-9.076Zm139.802 0c-6.56 0-12.932 1.504-18.907 4.311-8.544 4.032-16.284 10.755-22.608 19.678-4.112 5.792-7.625 12.506-10.378 20.015-5.196 14.175-5.133 25.672.179 33.249 3.004 4.282 9.255 9.4 21.984 9.414h.04c23.174 0 40.474-15.14 51.418-44.998 2.903-7.9 6.71-22.644-.261-32.593-4.219-6.014-11.428-9.066-21.467-9.076Zm-214.211 1.2c-7.625 0-15.032 0-21.67 3.356-6.633 3.357-12.492 10.076-17.001 23.512-.978 2.889-1.495 5.378-1.562 7.539-.068 2.165.31 4.007 1.132 5.608 1.016 1.954 2.66 3.791 4.717 5.34 2.061 1.552 4.523 2.812 7.18 3.617.1.029 1.495.424 3.188.907 1.684.482 3.653 1.06 4.9 1.436.731.222 1.534.512 2.26.95.73.43 1.384 1.008 1.795 1.809.27.53.416 1.114.43 1.736.02.627-.087 1.303-.334 2.017-.62 1.823-1.558 3-3.348 3.718-1.78.719-4.407.95-8.394.978H87.867L80 221.267h53.267c5.013 0 14.176 0 22.981-3.732 8.805-3.728 17.254-11.18 20.829-26.097 1.345-5.604.929-10.171-1.273-13.76-2.21-3.583-6.207-6.187-12.027-7.85 0 0-1.301-.378-2.835-.817-1.524-.439-3.29-.94-4.19-1.2-1.49-.425-2.637-1.283-3.314-2.378-.673-1.09-.876-2.416-.494-3.772.402-1.408 1.37-2.532 2.763-3.308 1.403-.772 3.241-1.196 5.39-1.196h30.963c.218-.313.416-.655.634-.969 5.656-7.977 12.502-14.43 20-18.988h-48.356Zm139.172 0c-13.779 0-24.036 6.95-28.879 19.957l-23.407 64.11h25.643l12.027-32.954 22.662.015 6.448-17.652-22.588-.015 3.638-10.22c.755-1.832 2.57-3.289 5.22-3.289 1.476 0 18.114.005 26.72.01.223-.319.422-.66.64-.974 5.655-7.977 13.662-14.43 21.161-18.988H303.51Zm118.96.047-30.709 84.072h26.083l11.161-29.593c.547 1.22 7.132 29.593 7.132 29.593h27.422s-4.987-20.849-8.655-29.27c-.943-2.165-1.926-4.59-3.242-6.621 7.746-2.87 18.97-9.029 23.62-21.51 2.854-7.674 2.69-13.876-.484-18.424-3.846-5.522-11.674-8.233-23.938-8.247h-28.39Zm53.498 0a21.038 21.038 0 0 1 4.257 4.486c3.034 4.36 4.194 9.54 3.503 15.477h15.53l-23.406 64.13h23.387l23.42-64.13h30.05L560 137.248h-84.032Zm-36.314 17.357h4.306c7.872.006 10.808 2.301 8.142 9.463-2.501 6.723-7 10.876-15.554 10.876h-.034l-4.427-.005 7.567-20.334Zm-207.06.417h.004c8.012.01 9.846 4.64 2.812 23.826h-.001c-7.228 19.72-12.472 24.683-20.368 24.683h-.015c-7.693-.005-10.392-4.858-3.193-24.487 5.375-14.652 12.338-24.022 20.76-24.022Zm139.802 0h.009c8.007.01 9.845 4.64 2.806 23.826-7.224 19.72-12.473 24.683-20.364 24.683h-.018c-7.698-.005-10.383-4.858-3.189-24.487 5.37-14.652 12.337-24.022 20.756-24.022Z"/></svg>