<?xml version="1.0" encoding="UTF-8" standalone="no"?>
<svg
   xmlns:dc="http://purl.org/dc/elements/1.1/"
   xmlns:cc="http://creativecommons.org/ns#"
   xmlns:rdf="http://www.w3.org/1999/02/22-rdf-syntax-ns#"
   xmlns:svg="http://www.w3.org/2000/svg"
   xmlns="http://www.w3.org/2000/svg"
   xmlns:sodipodi="http://sodipodi.sourceforge.net/DTD/sodipodi-0.dtd"
   xmlns:inkscape="http://www.inkscape.org/namespaces/inkscape"
   width="640"
   height="360"
   viewBox="0 0 169.33333 95.250003"
   version="1.1"
   id="svg8"
   inkscape:version="1.0.1 (c497b03c, 2020-09-10)"
   sodipodi:docname="provider-payvision-640x360.svg">
  <defs
     id="defs2" />
  <sodipodi:namedview
     id="base"
     pagecolor="#ffffff"
     bordercolor="#666666"
     borderopacity="1.0"
     inkscape:pageopacity="0.0"
     inkscape:pageshadow="2"
     inkscape:zoom="0.89230722"
     inkscape:cx="291.06933"
     inkscape:cy="287.85446"
     inkscape:document-units="mm"
     inkscape:current-layer="layer1"
     inkscape:document-rotation="0"
     showgrid="false"
     units="px"
     inkscape:window-width="1252"
     inkscape:window-height="817"
     inkscape:window-x="0"
     inkscape:window-y="23"
     inkscape:window-maximized="0"
     showguides="true"
     inkscape:guide-bbox="true">
    <sodipodi:guide
       position="0,47.625"
       orientation="0,1"
       id="guide262"
       inkscape:label=""
       inkscape:locked="false"
       inkscape:color="rgb(0,0,255)" />
  </sodipodi:namedview>
  <metadata
     id="metadata5">
    <rdf:RDF>
      <cc:Work
         rdf:about="">
        <dc:format>image/svg+xml</dc:format>
        <dc:type
           rdf:resource="http://purl.org/dc/dcmitype/StillImage" />
        <dc:title />
      </cc:Work>
    </rdf:RDF>
  </metadata>
  <g
     inkscape:label="Layer 1"
     inkscape:groupmode="layer"
     id="layer1">
    <g
       id="g260"
       transform="matrix(0.70887842,0,0,0.70887842,16.508007,33.085517)">
      <g
         id="g206">
	<g
   id="g192">
		<path
   class="st84"
   d="m 140,7.1 6.9,20.6 h -8.1 L 131.9,7.1 Z"
   id="path190" />

	</g>

	<g
   id="g196">
		<path
   class="st85"
   d="m 153.7,7.1 -10.4,31.3 h 8.1 L 161.8,7.1 Z"
   id="path194" />

	</g>

	<g
   id="g200">
		<path
   class="st84"
   d="m 161.8,7.1 6.9,20.6 h 8 L 169.8,7.1 Z"
   id="path198" />

	</g>

	<g
   id="g204">
		<path
   class="st85"
   d="m 183.6,7.1 -6.9,20.6 h 8.1 l 6.9,-20.6 z"
   id="path202" />

	</g>

</g>
      <g
         id="payvision-word">
	<path
   class="st84"
   d="M 10.8,23.7 C 10.1,24.6 9.2,25 7.9,25 5.4,25 4,23 4,20.4 c 0,-2.6 1.4,-4.6 3.9,-4.6 1.2,0 2.2,0.4 2.9,1.3 0.7,0.9 1.1,2 1.1,3.3 0,1.3 -0.4,2.4 -1.1,3.3 z M 8.2,12.7 C 6.5,12.7 5.1,13.4 4,14.5 V 13 H 0.6 V 33.4 H 4 v -6.9 c 1.2,1 2.6,1.5 4.2,1.5 2.1,0 3.8,-0.7 5.2,-2.1 1.4,-1.5 2,-3.3 2,-5.5 0,-2.2 -0.7,-4 -2,-5.5 -1.3,-1.5 -3.1,-2.2 -5.2,-2.2 z"
   id="path208" />

	<path
   class="st84"
   d="M 38.9,24.7 34.9,13 h -3.7 l 5.1,14.7 h 1.6 l -2,5.7 h 3.7 L 46.7,13 H 43 Z"
   id="path210" />

	<path
   class="st84"
   d="M 54.4,24.5 50.4,13 h -3.7 l 5.1,14.7 h 5.1 L 62,13.1 h -3.7 z"
   id="path212" />

	<path
   class="st84"
   d="m 85.4,27.7 h 3.4 V 13 h -3.4 z"
   id="path214" />

	<path
   class="st84"
   d="m 116.4,12.7 c -1.6,0 -2.9,0.7 -3.8,1.7 V 13 h -3.4 v 14.6 h 3.4 v -8.1 c 0,-2.4 1.2,-3.8 3.3,-3.8 1.8,0 2.9,1.3 2.9,3.4 v 8.5 h 3.4 v -8.5 c 0,-4 -2.2,-6.4 -5.8,-6.4 z"
   id="path216" />

	<path
   class="st84"
   d="m 64.1,27.7 h 3.4 V 13 h -3.4 z"
   id="path218" />

	<path
   class="st84"
   d="m 64.1,7.1 v 3.4 h 3.4 V 7.1 Z"
   id="path220" />

	<path
   class="st84"
   d="m 88.8,7.1 h -3.4 v 3.4 h 3.4 z"
   id="path222" />

	<path
   class="st84"
   d="m 26.4,23.8 c -0.9,0.8 -2,1.3 -3.5,1.3 -1.4,0 -2.2,-0.7 -2.2,-1.6 0,-1.2 1,-1.8 2.6,-1.8 h 3.1 z M 23.5,12.7 c -2.4,0 -4.6,1 -5.7,2.9 l 2.6,1.7 c 0.7,-0.9 1.6,-1.5 3.1,-1.5 1.7,0 2.9,1 2.9,2.4 v 0.6 h -3.1 c -3.6,0 -6,1.5 -6,4.7 0,1.3 0.5,2.4 1.4,3.3 1,0.8 2.1,1.2 3.6,1.2 1.7,0 3.1,-0.5 4.2,-1.5 v 1.1 h 3.4 v -9.5 c -0.1,-3.5 -2.5,-5.4 -6.4,-5.4 z"
   id="path224" />

	<path
   class="st84"
   d="M 78,18.9 75.5,18.4 C 74.5,18.2 74,17.7 74,17 c 0,-0.7 0.8,-1.4 2.1,-1.4 1.5,0 2.7,0.6 3.7,1.9 l 2.3,-2.3 c -1.7,-1.6 -3.6,-2.4 -5.9,-2.4 -3.4,0 -5.7,1.7 -5.7,4.4 0,2.4 1.6,3.9 4.8,4.6 l 2.1,0.5 c 1.4,0.4 1.9,0.8 1.9,1.4 0,0.8 -0.7,1.5 -2.4,1.5 -1.8,0 -3.3,-0.7 -4.5,-2.1 l -2.3,2.2 c 1.6,1.9 3.8,2.8 6.5,2.8 4,0 6.2,-1.9 6.2,-4.5 0,-2.5 -1.6,-4 -4.8,-4.7 z"
   id="path226" />

	<path
   class="st84"
   d="m 99.1,24.6 c -2.4,0 -4.3,-1.9 -4.3,-4.3 0,-2.4 1.9,-4.3 4.3,-4.3 2.4,0 4.3,1.9 4.3,4.3 0,2.4 -1.9,4.3 -4.3,4.3 z m 0,-12 c -4.2,0 -7.7,3.4 -7.7,7.7 0,4.3 3.4,7.7 7.7,7.7 4.2,0 7.7,-3.4 7.7,-7.7 0,-4.3 -3.5,-7.7 -7.7,-7.7 z"
   id="path228" />

</g>
    </g>
  </g>
  <style
     type="text/css"
     id="style188">
	.st0{fill:#E91B58;}
	.st1{fill:#27282A;}
	.st2{fill:#232D5A;}
	.st3{fill:#117CBF;}
	.st4{fill:#68747A;}
	.st5{fill:#6D767B;}
	.st6{fill:url(#SVGID_9_);}
	.st7{fill:url(#SVGID_10_);stroke:url(#SVGID_11_);stroke-width:0.1685;stroke-miterlimit:10;}
	.st8{opacity:0.9;fill:url(#SVGID_12_);}
	.st9{clip-path:url(#SVGID_13_);}
	.st10{fill:#FDB913;}
	.st11{fill:#FFFFFF;}
	.st12{fill:#231F20;}
	.st13{fill:none;stroke:#00E59E;stroke-width:2.6173;stroke-linecap:round;stroke-linejoin:round;stroke-miterlimit:10;}
	.st14{fill:#013A51;}
	.st15{fill:#EE2E24;}
	.st16{fill:#62CE02;}
	.st17{fill-rule:evenodd;clip-rule:evenodd;fill:#75767A;}
	.st18{fill:#75767A;}
	.st19{fill-rule:evenodd;clip-rule:evenodd;fill:#56A633;}
	.st20{fill:#56A633;}
	.st21{fill:#BD0027;}
	.st22{fill:#43557E;}
	.st23{fill:#737374;}
	.st24{fill:#EF5125;}
	.st25{fill:#7FBA42;}
	.st26{fill:#329FD9;}
	.st27{fill:#FCB713;}
	.st28{fill:#23408F;}
	.st29{fill:#2B223F;}
	.st30{fill:#EF5274;}
	.st31{fill:#7983BF;}
	.st32{fill:#004062;}
	.st33{fill:#344E75;}
	.st34{fill:#198A83;}
	.st35{fill:url(#SVGID_14_);}
	.st36{clip-path:url(#SVGID_15_);fill:url(#SVGID_16_);}
	.st37{clip-path:url(#SVGID_17_);fill:url(#SVGID_18_);}
	.st38{clip-path:url(#SVGID_19_);fill:url(#SVGID_20_);}
	.st39{fill:url(#SVGID_21_);}
	.st40{fill:url(#SVGID_22_);stroke:url(#SVGID_23_);stroke-width:0.1398;stroke-miterlimit:10;}
	.st41{opacity:0.9;fill:url(#SVGID_24_);}
	.st42{clip-path:url(#SVGID_25_);}
	.st43{fill:none;stroke:#00E59E;stroke-width:1.4381;stroke-linecap:round;stroke-linejoin:round;stroke-miterlimit:10;}
	.st44{fill:url(#SVGID_26_);}
	.st45{clip-path:url(#SVGID_27_);fill:url(#SVGID_28_);}
	.st46{clip-path:url(#SVGID_29_);fill:url(#SVGID_30_);}
	.st47{clip-path:url(#SVGID_31_);fill:url(#SVGID_32_);}
	.st48{fill:#ECECED;}
	.st49{fill:#0082C8;}
	.st50{fill:#878787;}
	.st51{fill:#2D8BCB;}
	.st52{fill:#283980;}
	.st53{fill:#292B69;}
	.st54{fill-rule:evenodd;clip-rule:evenodd;fill:#00C5B4;}
	.st55{fill:#F69220;}
	.st56{fill:#606060;}
	.st57{fill:#ED1C24;}
	.st58{fill-rule:evenodd;clip-rule:evenodd;fill:#231F20;}
	.st59{filter:url(#Adobe_OpacityMaskFilter);}
	.st60{fill-rule:evenodd;clip-rule:evenodd;fill:#FFFFFF;}
	.st61{mask:url(#b_1_);fill-rule:evenodd;clip-rule:evenodd;fill:#231F20;}
	.st62{filter:url(#Adobe_OpacityMaskFilter_1_);}
	.st63{mask:url(#d_1_);fill-rule:evenodd;clip-rule:evenodd;fill:#006E00;}
	.st64{filter:url(#Adobe_OpacityMaskFilter_2_);}
	.st65{mask:url(#g_1_);fill-rule:evenodd;clip-rule:evenodd;fill:url(#SVGID_33_);}
	.st66{fill-rule:evenodd;clip-rule:evenodd;fill:#69D720;}
	.st67{filter:url(#Adobe_OpacityMaskFilter_3_);}
	.st68{mask:url(#i_1_);fill-rule:evenodd;clip-rule:evenodd;fill:#69D720;}
	.st69{fill:#D24A00;}
	.st70{fill:#555555;}
	.st71{fill:#707070;}
	.st72{enable-background:new    ;}
	.st73{fill:#565656;}
	.st74{fill-rule:evenodd;clip-rule:evenodd;fill:#1A1A1A;}
	.st75{fill-rule:evenodd;clip-rule:evenodd;fill:#FE5407;}
	.st76{fill:#1F2A44;}
	.st77{fill:#EAEAEA;}
	.st78{fill:#003454;}
	.st79{fill:#A5C54B;}
	.st80{fill:#7FB642;}
	.st81{fill:#31393C;}
	.st82{fill:#00BCDD;}
	.st83{fill:#003E69;}
	.st84{fill:#323CBB;}
	.st85{fill:#AF9FFB;}
</style>
</svg>
