<svg height="360" viewBox="0 0 169.33333 95.250003" width="640" xmlns="http://www.w3.org/2000/svg"><g transform="matrix(.70887842 0 0 .70887842 16.508007 33.085517)"><path d="m140 7.1 6.9 20.6h-8.1l-6.9-20.6z" fill="#323cbb"/><path d="m153.7 7.1-10.4 31.3h8.1l10.4-31.3z" fill="#af9ffb"/><path d="m161.8 7.1 6.9 20.6h8l-6.9-20.6z" fill="#323cbb"/><path d="m183.6 7.1-6.9 20.6h8.1l6.9-20.6z" fill="#af9ffb"/><g fill="#323cbb"><path d="m10.8 23.7c-.7.9-1.6 1.3-2.9 1.3-2.5 0-3.9-2-3.9-4.6s1.4-4.6 3.9-4.6c1.2 0 2.2.4 2.9 1.3s1.1 2 1.1 3.3-.4 2.4-1.1 3.3zm-2.6-11c-1.7 0-3.1.7-4.2 1.8v-1.5h-3.4v20.4h3.4v-6.9c1.2 1 2.6 1.5 4.2 1.5 2.1 0 3.8-.7 5.2-2.1 1.4-1.5 2-3.3 2-5.5s-.7-4-2-5.5-3.1-2.2-5.2-2.2z"/><path d="m38.9 24.7-4-11.7h-3.7l5.1 14.7h1.6l-2 5.7h3.7l7.1-20.4h-3.7z"/><path d="m54.4 24.5-4-11.5h-3.7l5.1 14.7h5.1l5.1-14.6h-3.7z"/><path d="m85.4 27.7h3.4v-14.7h-3.4z"/><path d="m116.4 12.7c-1.6 0-2.9.7-3.8 1.7v-1.4h-3.4v14.6h3.4v-8.1c0-2.4 1.2-3.8 3.3-3.8 1.8 0 2.9 1.3 2.9 3.4v8.5h3.4v-8.5c0-4-2.2-6.4-5.8-6.4z"/><path d="m64.1 27.7h3.4v-14.7h-3.4z"/><path d="m64.1 7.1v3.4h3.4v-3.4z"/><path d="m88.8 7.1h-3.4v3.4h3.4z"/><path d="m26.4 23.8c-.9.8-2 1.3-3.5 1.3-1.4 0-2.2-.7-2.2-1.6 0-1.2 1-1.8 2.6-1.8h3.1zm-2.9-11.1c-2.4 0-4.6 1-5.7 2.9l2.6 1.7c.7-.9 1.6-1.5 3.1-1.5 1.7 0 2.9 1 2.9 2.4v.6h-3.1c-3.6 0-6 1.5-6 4.7 0 1.3.5 2.4 1.4 3.3 1 .8 2.1 1.2 3.6 1.2 1.7 0 3.1-.5 4.2-1.5v1.1h3.4v-9.5c-.1-3.5-2.5-5.4-6.4-5.4z"/><path d="m78 18.9-2.5-.5c-1-.2-1.5-.7-1.5-1.4s.8-1.4 2.1-1.4c1.5 0 2.7.6 3.7 1.9l2.3-2.3c-1.7-1.6-3.6-2.4-5.9-2.4-3.4 0-5.7 1.7-5.7 4.4 0 2.4 1.6 3.9 4.8 4.6l2.1.5c1.4.4 1.9.8 1.9 1.4 0 .8-.7 1.5-2.4 1.5-1.8 0-3.3-.7-4.5-2.1l-2.3 2.2c1.6 1.9 3.8 2.8 6.5 2.8 4 0 6.2-1.9 6.2-4.5 0-2.5-1.6-4-4.8-4.7z"/><path d="m99.1 24.6c-2.4 0-4.3-1.9-4.3-4.3s1.9-4.3 4.3-4.3 4.3 1.9 4.3 4.3-1.9 4.3-4.3 4.3zm0-12c-4.2 0-7.7 3.4-7.7 7.7s3.4 7.7 7.7 7.7c4.2 0 7.7-3.4 7.7-7.7s-3.5-7.7-7.7-7.7z"/></g></g></svg>