<?xml version="1.0" encoding="UTF-8" standalone="no"?>
<svg
   inkscape:version="1.3.2 (091e20e, 2023-11-25)"
   sodipodi:docname="method-ideal-in3-on-white-640x360.svg"
   id="svg928"
   version="1.1"
   viewBox="0 0 480.00606 270.00342"
   height="360"
   width="640"
   xmlns:inkscape="http://www.inkscape.org/namespaces/inkscape"
   xmlns:sodipodi="http://sodipodi.sourceforge.net/DTD/sodipodi-0.dtd"
   xmlns="http://www.w3.org/2000/svg"
   xmlns:svg="http://www.w3.org/2000/svg"
   xmlns:rdf="http://www.w3.org/1999/02/22-rdf-syntax-ns#"
   xmlns:cc="http://creativecommons.org/ns#"
   xmlns:dc="http://purl.org/dc/elements/1.1/">
  <metadata
     id="metadata932">
    <rdf:RDF>
      <cc:Work
         rdf:about="">
        <dc:format>image/svg+xml</dc:format>
        <dc:type
           rdf:resource="http://purl.org/dc/dcmitype/StillImage" />
      </cc:Work>
    </rdf:RDF>
  </metadata>
  <sodipodi:namedview
     inkscape:current-layer="svg928"
     inkscape:window-maximized="0"
     inkscape:window-y="216"
     inkscape:window-x="3006"
     inkscape:cy="245.5"
     inkscape:cx="227.5"
     inkscape:zoom="1"
     units="px"
     showgrid="false"
     id="namedview930"
     inkscape:window-height="914"
     inkscape:window-width="1920"
     inkscape:pageshadow="2"
     inkscape:pageopacity="0"
     guidetolerance="10"
     gridtolerance="10"
     objecttolerance="10"
     borderopacity="1"
     bordercolor="#666666"
     pagecolor="#ffffff"
     inkscape:showpageshadow="2"
     inkscape:pagecheckerboard="true"
     inkscape:deskcolor="#d1d1d1" />
  <defs
     id="defs880">
    <style
       id="style878">.a{fill:#fff;}.b{fill:#c06;}</style>
  </defs>
  <g
     id="g1"
     transform="matrix(4.7703345,0,0,4.7703345,-728.38116,-182.95703)">
    <g
       id="g4"
       transform="matrix(0.75000948,0,0,0.75000948,162.75206,48.750616)">
      <path
         class="cls-2"
         d="M 90.32,7.72 H 48.66 c 3.7,4.18 5.43,9.78 5.43,16.1 0,6.32 -1.74,12.01 -5.46,16.21 h 41.68 c 11.87,0 17.02,-6.71 17.02,-16.19 0,-9.48 -5.15,-16.12 -17.02,-16.12 z"
         id="path1"
         style="stroke-width:0px" />
      <path
         class="cls-3"
         d="M 0,3.54 V 44.2 c 0,1.95 1.59,3.54 3.54,3.54 h 24.3 C 46.21,47.74 54.17,37.46 54.17,23.82 54.17,10.18 46.2,0 27.83,0 H 3.54 C 1.59,0 0,1.59 0,3.54 Z"
         id="path2"
         style="fill:#ffffff;stroke-width:0px" />
      <path
         class="cls-1"
         d="m 16.26,9.98 v 30.05 h 13.08 c 11.87,0 17.02,-6.71 17.02,-16.19 0,-9.48 -5.15,-16.12 -17.02,-16.12 H 18.53 c -1.26,0 -2.27,1.03 -2.27,2.26 z"
         id="path3"
         style="fill:#cc0066;stroke-width:0px" />
      <path
         class="cls-2"
         d="M 27.83,44.5 H 6.71 c -1.88,0 -3.4,-1.52 -3.4,-3.4 V 6.65 c 0,-1.88 1.52,-3.4 3.4,-3.4 h 21.13 c 20.05,0 23.04,12.9 23.04,20.58 0,13.32 -8.19,20.67 -23.04,20.67 z M 6.71,4.39 C 5.45,4.39 4.45,5.4 4.45,6.65 V 41.1 c 0,1.26 1.01,2.27 2.26,2.27 h 21.13 c 14.12,0 21.91,-6.94 21.91,-19.54 C 49.75,6.91 36.02,4.38 27.84,4.38 H 6.71 Z"
         id="path4"
         style="stroke-width:0px" />
    </g>
    <g
       id="g8"
       transform="matrix(0.75000948,0,0,0.75000948,162.75206,48.750616)">
      <path
         class="cls-3"
         d="m 20.86,19.78 c 0.46,0 0.88,0.07 1.29,0.21 0.41,0.14 0.74,0.37 1.04,0.65 0.28,0.3 0.51,0.67 0.69,1.1 0.16,0.44 0.25,0.96 0.25,1.56 0,0.53 -0.07,1.01 -0.19,1.45 -0.14,0.44 -0.34,0.83 -0.6,1.15 -0.26,0.32 -0.6,0.57 -1.01,0.76 -0.41,0.18 -0.88,0.28 -1.43,0.28 h -3.1 v -7.18 h 3.06 z m -0.11,5.86 c 0.23,0 0.44,-0.04 0.67,-0.11 0.21,-0.07 0.41,-0.19 0.57,-0.37 0.16,-0.18 0.3,-0.39 0.41,-0.67 0.11,-0.28 0.16,-0.6 0.16,-1.01 0,-0.35 -0.04,-0.69 -0.11,-0.97 -0.07,-0.28 -0.19,-0.55 -0.35,-0.74 -0.16,-0.19 -0.37,-0.37 -0.64,-0.48 -0.27,-0.11 -0.58,-0.16 -0.97,-0.16 h -1.13 v 4.53 h 1.4 v -0.02 z"
         id="path5"
         style="fill:#ffffff;stroke-width:0px" />
      <path
         class="cls-3"
         d="m 30.52,19.78 v 1.33 h -3.79 v 1.54 h 3.49 v 1.22 h -3.49 v 1.75 h 3.88 v 1.33 h -5.45 v -7.18 h 5.36 v 0.02 z"
         id="path6"
         style="fill:#ffffff;stroke-width:0px" />
      <path
         class="cls-3"
         d="m 35.94,19.78 2.69,7.18 h -1.65 l -0.55,-1.59 h -2.69 l -0.57,1.59 h -1.59 l 2.71,-7.18 z m 0.09,4.41 -0.9,-2.64 h -0.02 l -0.94,2.64 z"
         id="path7"
         style="fill:#ffffff;stroke-width:0px" />
      <path
         class="cls-3"
         d="m 41.19,19.78 v 5.86 h 3.5 v 1.33 h -5.08 v -7.18 h 1.57 z"
         id="path8"
         style="fill:#ffffff;stroke-width:0px" />
    </g>
    <circle
       class="cls-2"
       cx="170.51466"
       cy="66.285835"
       r="2.4825313"
       id="circle8"
       style="stroke-width:0px" />
    <path
       class="cls-2"
       d="m 172.38968,78.773495 v 0 c -2.08502,0 -3.75755,-1.687521 -3.75755,-3.757547 v -2.932537 c 0,-1.035013 0.83251,-1.882524 1.88253,-1.882524 v 0 c 1.03501,0 1.88252,0.832511 1.88252,1.882524 v 6.690084 h -0.015 z"
       id="path9"
       style="stroke-width:0px" />
    <g
       id="g12"
       transform="matrix(0.75000948,0,0,0.75000948,162.75206,48.750616)">
      <path
         class="cls-3"
         d="m 63.3,15.7 c -0.8,0 -1.42,-0.19 -1.88,-0.57 -0.45,-0.38 -0.68,-0.93 -0.68,-1.64 0,-0.64 0.23,-1.16 0.69,-1.57 0.46,-0.41 1.08,-0.61 1.86,-0.61 0.78,0 1.42,0.19 1.86,0.57 0.44,0.38 0.67,0.92 0.67,1.61 0,0.69 -0.23,1.19 -0.68,1.6 -0.45,0.41 -1.07,0.61 -1.85,0.61 z M 61.17,32.62 V 18.49 h 4.26 v 14.13 z"
         id="path10"
         style="fill:#ffffff;stroke-width:0px" />
      <path
         class="cls-3"
         d="M 69.41,32.61 V 18.48 h 4.04 l 0.13,2.87 -0.85,0.32 c 0.2,-0.64 0.55,-1.22 1.05,-1.74 0.5,-0.52 1.11,-0.94 1.82,-1.26 0.71,-0.32 1.45,-0.48 2.23,-0.48 1.06,0 1.96,0.22 2.69,0.65 0.73,0.43 1.28,1.08 1.65,1.94 0.37,0.86 0.56,1.91 0.56,3.15 v 8.67 h -4.28 v -8.33 c 0,-0.57 -0.08,-1.04 -0.24,-1.41 -0.16,-0.37 -0.4,-0.65 -0.73,-0.84 -0.33,-0.19 -0.73,-0.27 -1.21,-0.25 -0.37,0 -0.72,0.06 -1.04,0.17 -0.32,0.12 -0.59,0.28 -0.82,0.51 -0.23,0.22 -0.41,0.47 -0.55,0.76 -0.14,0.29 -0.2,0.59 -0.2,0.93 V 32.6 H 69.4 Z"
         id="path11"
         style="fill:#ffffff;stroke-width:0px" />
      <path
         class="cls-3"
         d="M 98.01,24.11 C 97.69,23.39 97.25,22.77 96.68,22.23 96.11,21.7 95.46,21.28 94.74,20.98 94.25,20.78 93.72,20.67 93.18,20.6 l 4.78,-5.13 -0.82,-1.65 H 85.7 v 3.8 l 5.97,0.12 -3.95,4.29 0.98,2.63 c 0.35,-0.18 0.7,-0.32 1.04,-0.43 0.34,-0.11 0.66,-0.19 0.96,-0.25 0.3,-0.06 0.59,-0.09 0.85,-0.09 0.59,0 1.09,0.1 1.5,0.29 0.41,0.19 0.74,0.48 0.96,0.86 0.22,0.38 0.33,0.85 0.33,1.4 0,0.51 -0.13,0.98 -0.39,1.38 -0.26,0.41 -0.59,0.72 -1.01,0.94 -0.42,0.22 -0.87,0.33 -1.37,0.33 -0.5,0 -0.97,-0.08 -1.42,-0.25 -0.45,-0.17 -0.89,-0.44 -1.3,-0.81 -0.42,-0.37 -0.82,-0.87 -1.21,-1.49 l -3.25,2.1 c 0.92,1.54 1.95,2.63 3.07,3.26 1.13,0.63 2.44,0.94 3.95,0.94 1.31,0 2.5,-0.28 3.58,-0.85 1.07,-0.57 1.92,-1.33 2.55,-2.3 0.63,-0.97 0.94,-2.07 0.94,-3.31 0,-0.82 -0.16,-1.58 -0.48,-2.3 z"
         id="path12"
         style="fill:#ffffff;stroke-width:0px" />
    </g>
  </g>
</svg>
