<?xml version="1.0" encoding="UTF-8"?>
<svg id="Layer_1" data-name="Layer 1" xmlns="http://www.w3.org/2000/svg" viewBox="0 0 110.63 47.74">
  <defs>
    <style>
      .cls-1 {
        fill: #c06;
      }

      .cls-1, .cls-2, .cls-3 {
        stroke-width: 0px;
      }

      .cls-3 {
        fill: #fff;
      }
    </style>
  </defs>
  <g>
    <path class="cls-2" d="m93.61,7.72h-41.23c3.7,4.18,5.01,9.78,5.01,16.1s-1.31,12.01-5.04,16.21h41.26c11.87,0,17.02-6.71,17.02-16.19s-5.15-16.12-17.02-16.12Z"/>
    <path class="cls-3" d="m0,3.54v40.66c0,1.95,1.59,3.54,3.54,3.54h24.3c18.37,0,26.33-10.28,26.33-23.92S46.2,0,27.83,0H3.54C1.59,0,0,1.59,0,3.54Z"/>
    <path class="cls-1" d="m16.26,9.98v30.05h13.08c11.87,0,17.02-6.71,17.02-16.19S41.21,7.72,29.34,7.72h-10.81c-1.26,0-2.27,1.03-2.27,2.26Z"/>
    <path class="cls-2" d="m27.83,44.5H6.71c-1.88,0-3.4-1.52-3.4-3.4V6.65c0-1.88,1.52-3.4,3.4-3.4h21.13c20.05,0,23.04,12.9,23.04,20.58,0,13.32-8.19,20.67-23.04,20.67ZM6.71,4.39c-1.26,0-2.26,1.01-2.26,2.26v34.45c0,1.26,1.01,2.27,2.26,2.27h21.13c14.12,0,21.91-6.94,21.91-19.54,0-16.92-13.73-19.45-21.91-19.45H6.71Z"/>
  </g>
  <g>
    <path class="cls-3" d="m20.86,19.78c.46,0,.88.07,1.29.21.41.14.74.37,1.04.65.28.3.51.67.69,1.1.16.44.25.96.25,1.56,0,.53-.07,1.01-.19,1.45-.14.44-.34.83-.6,1.15s-.6.57-1.01.76c-.41.18-.88.28-1.43.28h-3.1v-7.18h3.06v.02Zm-.11,5.86c.23,0,.44-.04.67-.11.21-.07.41-.19.57-.37.16-.18.3-.39.41-.67.11-.28.16-.6.16-1.01,0-.35-.04-.69-.11-.97-.07-.28-.19-.55-.35-.74s-.37-.37-.64-.48-.58-.16-.97-.16h-1.13v4.53h1.4v-.02Z"/>
    <path class="cls-3" d="m30.52,19.78v1.33h-3.79v1.54h3.49v1.22h-3.49v1.75h3.88v1.33h-5.45v-7.18h5.36v.02Z"/>
    <path class="cls-3" d="m35.94,19.78l2.69,7.18h-1.65l-.55-1.59h-2.69l-.57,1.59h-1.59l2.71-7.18h1.65Zm.09,4.41l-.9-2.64h-.02l-.94,2.64h1.86Z"/>
    <path class="cls-3" d="m41.19,19.78v5.86h3.5v1.33h-5.08v-7.18h1.57Z"/>
  </g>
  <circle class="cls-2" cx="10.35" cy="23.38" r="3.31"/>
  <path class="cls-2" d="m12.85,40.03h0c-2.78,0-5.01-2.25-5.01-5.01v-3.91c0-1.38,1.11-2.51,2.51-2.51h0c1.38,0,2.51,1.11,2.51,2.51v8.92h-.02Z"/>
  <g>
    <path class="cls-3" d="m66.59,15.7c-.8,0-1.42-.19-1.88-.57-.45-.38-.68-.93-.68-1.64,0-.64.23-1.16.69-1.57.46-.41,1.08-.61,1.86-.61s1.42.19,1.86.57.67.92.67,1.61-.23,1.19-.68,1.6c-.45.41-1.07.61-1.85.61Zm-2.13,16.92v-14.13h4.26v14.13h-4.26Z"/>
    <path class="cls-3" d="m72.71,32.61v-14.13h4.04l.13,2.87-.85.32c.2-.64.55-1.22,1.05-1.74s1.11-.94,1.82-1.26c.71-.32,1.45-.48,2.23-.48,1.06,0,1.96.22,2.69.65.73.43,1.28,1.08,1.65,1.94.37.86.56,1.91.56,3.15v8.67h-4.28v-8.33c0-.57-.08-1.04-.24-1.41-.16-.37-.4-.65-.73-.84s-.73-.27-1.21-.25c-.37,0-.72.06-1.04.17-.32.12-.59.28-.82.51-.23.22-.41.47-.55.76s-.2.59-.2.93v8.46h-4.26Z"/>
    <path class="cls-3" d="m101.3,24.11c-.32-.72-.76-1.34-1.33-1.88-.57-.53-1.22-.95-1.94-1.25-.49-.2-1.02-.31-1.56-.38l4.78-5.13-.82-1.65h-11.44v3.8l5.97.12-3.95,4.29.98,2.63c.35-.18.7-.32,1.04-.43s.66-.19.96-.25c.3-.06.59-.09.85-.09.59,0,1.09.1,1.5.29s.74.48.96.86.33.85.33,1.4c0,.51-.13.98-.39,1.38-.26.41-.59.72-1.01.94-.42.22-.87.33-1.37.33s-.97-.08-1.42-.25c-.45-.17-.89-.44-1.3-.81-.42-.37-.82-.87-1.21-1.49l-3.25,2.1c.92,1.54,1.95,2.63,3.07,3.26,1.13.63,2.44.94,3.95.94,1.31,0,2.5-.28,3.58-.85,1.07-.57,1.92-1.33,2.55-2.3.63-.97.94-2.07.94-3.31,0-.82-.16-1.58-.48-2.3Z"/>
  </g>
</svg>