<?xml version="1.0" encoding="utf-8"?>
<!-- Generator: Adobe Illustrator 28.0.0, SVG Export Plug-In . SVG Version: 6.00 Build 0)  -->
<svg version="1.1" id="Laag_1" xmlns="http://www.w3.org/2000/svg" xmlns:xlink="http://www.w3.org/1999/xlink" x="0px" y="0px"
	 viewBox="0 0 100 100" style="enable-background:new 0 0 100 100;" xml:space="preserve">
<style type="text/css">
	.st0{fill:#CC0066;}
	.st1{fill:#FFFFFF;}
	.st2{fill:#E3E3E3;}
	.st3{fill:#CB0767;}
</style>
<g>
	<g>
		<path class="st1" d="M10.03,99.5c-5.24,0-9.5-4.26-9.5-9.51V10.01c0-5.24,4.26-9.51,9.5-9.51h79.93c5.24,0,9.5,4.26,9.5,9.51
			v79.99c0,2.53-0.98,4.92-2.77,6.71c-1.79,1.8-4.18,2.79-6.72,2.79H10.03z"/>
		<path class="st2" d="M89.96,1c4.96,0,9,4.04,9,9.01v79.99c0,2.4-0.93,4.66-2.63,6.36S92.37,99,89.97,99H10.03
			c-4.96,0-9-4.04-9-9.01V10.01c0-4.96,4.04-9.01,9-9.01L89.96,1 M89.96,0H10.03c-5.52,0-10,4.48-10,10.01v79.99
			c0,5.52,4.48,10.01,10,10.01h79.94c5.52,0,10-4.48,9.99-10.01V10.01C99.96,4.48,95.48,0,89.96,0L89.96,0z"/>
	</g>
</g>
<g>
	<path d="M80.48,36.56H45.83c3.08,3.48,4.52,8.14,4.52,13.4c0,5.3-1.45,9.99-4.54,13.48h34.68c9.88,0,14.16-5.58,14.16-13.47
		C94.64,42.42,90.36,36.56,80.48,36.56L80.48,36.56z"/>
	<path class="st1" d="M5.35,33.09v33.83c0,1.62,1.32,2.94,2.94,2.94H28.5c15.28,0,21.91-8.55,21.91-19.9
		c0-11.29-6.62-19.81-21.91-19.81H8.29C6.67,30.14,5.35,31.47,5.35,33.09L5.35,33.09z"/>
	<path class="st3" d="M18.87,38.44v25h10.88c9.88,0,14.16-5.58,14.16-13.47c0-7.55-4.28-13.41-14.16-13.41h-8.99
		C19.71,36.56,18.87,37.41,18.87,38.44L18.87,38.44z"/>
	<path d="M10.92,33.79c-1.05,0-1.88,0.84-1.88,1.88v28.66c0,1.05,0.84,1.88,1.88,1.88H28.5c11.75,0,18.22-5.77,18.22-16.25
		c0-14.07-11.42-16.18-18.22-16.18H10.92L10.92,33.79L10.92,33.79z M28.5,67.17H10.92c-1.56,0-2.83-1.27-2.83-2.83V35.68
		c0-1.56,1.27-2.83,2.83-2.83H28.5c16.68,0,19.17,10.73,19.17,17.12C47.67,61.06,40.85,67.17,28.5,67.17L28.5,67.17z"/>
	<path class="st1" d="M22.61,51.47c0.19,0,0.37-0.03,0.56-0.09c0.18-0.06,0.34-0.16,0.47-0.31c0.13-0.15,0.25-0.32,0.34-0.56
		c0.09-0.24,0.13-0.5,0.13-0.84c0-0.29-0.03-0.57-0.09-0.81c-0.06-0.24-0.16-0.46-0.29-0.62c-0.13-0.16-0.31-0.31-0.53-0.4
		c-0.22-0.09-0.49-0.13-0.81-0.13h-0.94v3.77h1.16V51.47L22.61,51.47z M22.7,46.6c0.38,0,0.74,0.06,1.07,0.18
		c0.34,0.12,0.62,0.31,0.87,0.54c0.24,0.25,0.43,0.56,0.57,0.91c0.13,0.37,0.21,0.79,0.21,1.3c0,0.44-0.06,0.84-0.16,1.21
		c-0.12,0.37-0.28,0.69-0.5,0.96c-0.22,0.27-0.5,0.47-0.84,0.63c-0.34,0.15-0.74,0.24-1.19,0.24h-2.58v-5.98h2.55V46.6L22.7,46.6z"
		/>
	<polygon class="st1" points="30.74,46.6 30.74,47.7 27.59,47.7 27.59,48.98 30.49,48.98 30.49,50 27.59,50 27.59,51.46 
		30.81,51.46 30.81,52.56 26.28,52.56 26.28,46.58 30.74,46.58 30.74,46.6 	"/>
	<path class="st1" d="M35.32,50.26l-0.75-2.19h-0.01l-0.78,2.19H35.32L35.32,50.26z M35.24,46.6l2.24,5.98h-1.37l-0.46-1.32h-2.24
		l-0.47,1.32h-1.32l2.25-5.98H35.24L35.24,46.6z"/>
	<polygon class="st1" points="39.62,46.6 39.62,51.47 42.53,51.47 42.53,52.58 38.31,52.58 38.31,46.6 39.62,46.6 	"/>
	<path d="M13.96,46.83c1.52,0,2.75,1.23,2.75,2.75c0,1.52-1.23,2.75-2.75,2.75c-1.52,0-2.75-1.23-2.75-2.75
		C11.2,48.07,12.44,46.83,13.96,46.83L13.96,46.83z"/>
	<path d="M16.03,63.44L16.03,63.44c-2.31,0-4.17-1.87-4.17-4.17v-3.25c0-1.15,0.93-2.09,2.09-2.09l0,0c1.15,0,2.09,0.93,2.09,2.09
		v7.42H16.03L16.03,63.44z"/>
	<path class="st1" d="M56.23,57.27V45.52h3.54v11.75H56.23L56.23,57.27z M58,43.2c-0.66,0-1.18-0.16-1.56-0.48
		c-0.38-0.32-0.56-0.77-0.56-1.36c0-0.53,0.19-0.97,0.58-1.31c0.38-0.34,0.9-0.51,1.55-0.51c0.66,0,1.18,0.16,1.55,0.48
		c0.37,0.32,0.55,0.76,0.55,1.34c0,0.55-0.19,0.99-0.56,1.33C59.17,43.03,58.65,43.2,58,43.2L58,43.2z"/>
	<path class="st1" d="M63.09,57.27V45.52h3.36l0.11,2.39l-0.71,0.27c0.16-0.53,0.45-1.02,0.87-1.45c0.42-0.44,0.93-0.79,1.52-1.05
		c0.59-0.27,1.21-0.4,1.86-0.4c0.88,0,1.63,0.18,2.23,0.54c0.6,0.36,1.06,0.9,1.37,1.61c0.31,0.72,0.46,1.59,0.46,2.62v7.21h-3.56
		v-6.93c0-0.47-0.07-0.86-0.2-1.17c-0.13-0.31-0.34-0.54-0.61-0.7c-0.27-0.15-0.61-0.23-1.01-0.21c-0.31,0-0.6,0.05-0.86,0.14
		c-0.27,0.1-0.49,0.24-0.69,0.42c-0.19,0.19-0.34,0.39-0.45,0.63c-0.11,0.24-0.17,0.49-0.17,0.77v7.04h-1.75c-0.41,0-0.77,0-1.06,0
		C63.53,57.27,63.28,57.27,63.09,57.27L63.09,57.27z"/>
	<path class="st1" d="M86.88,50.2c-0.27-0.6-0.63-1.12-1.11-1.56c-0.47-0.44-1.01-0.79-1.62-1.04c-0.41-0.17-0.85-0.26-1.3-0.31
		l3.97-4.27l-0.69-1.37h-9.52v3.16l4.96,0.1l-3.28,3.57l0.82,2.19c0.29-0.15,0.58-0.27,0.86-0.35c0.28-0.09,0.55-0.16,0.8-0.21
		c0.25-0.05,0.49-0.08,0.71-0.08c0.49,0,0.9,0.08,1.25,0.24c0.35,0.16,0.61,0.4,0.8,0.72c0.18,0.32,0.28,0.7,0.28,1.16
		c0,0.43-0.11,0.81-0.32,1.15c-0.21,0.34-0.49,0.6-0.84,0.79c-0.35,0.19-0.73,0.28-1.14,0.28c-0.41,0-0.81-0.07-1.18-0.21
		c-0.38-0.14-0.74-0.37-1.08-0.68c-0.35-0.31-0.68-0.72-1.01-1.24L75.55,54c0.77,1.28,1.62,2.19,2.56,2.71
		c0.94,0.52,2.03,0.79,3.29,0.79c1.09,0,2.08-0.24,2.98-0.71c0.89-0.47,1.6-1.11,2.12-1.91c0.52-0.8,0.79-1.72,0.79-2.76
		C87.28,51.44,87.15,50.8,86.88,50.2L86.88,50.2z"/>
</g>
</svg>
