<?xml version="1.0" encoding="utf-8"?>
<!-- Generator: Adobe Illustrator 28.0.0, SVG Export Plug-In . SVG Version: 6.00 Build 0)  -->
<svg version="1.1" id="Laag_1" xmlns="http://www.w3.org/2000/svg" xmlns:xlink="http://www.w3.org/1999/xlink" x="0px" y="0px"
	 viewBox="0 0 100 100" style="enable-background:new 0 0 100 100;" xml:space="preserve">
<style type="text/css">
	.st0{fill:#FFFFFF;}
	.st1{fill:#CC0066;}
</style>
<g>
	<g>
		<path d="M82.9,34.46H45.93c3.29,3.71,4.82,8.68,4.82,14.29c0,5.65-1.54,10.66-4.84,14.38H82.9c10.54,0,15.1-5.95,15.1-14.37
			C98,40.71,93.43,34.46,82.9,34.46z"/>
	</g>
	<path class="st0" d="M2.76,30.75v36.08c0,1.73,1.41,3.14,3.14,3.14h21.56c16.3,0,23.36-9.12,23.36-21.23
		c0-12.04-7.07-21.13-23.36-21.13H5.9C4.17,27.61,2.76,29.02,2.76,30.75z"/>
	<path class="st1" d="M17.19,36.47v26.66h11.6c10.54,0,15.1-5.95,15.1-14.37c0-8.05-4.57-14.3-15.1-14.3H19.2
		C18.08,34.46,17.19,35.37,17.19,36.47z"/>
	<g>
		<g>
			<path d="M27.45,67.1H8.71c-1.66,0-3.01-1.35-3.01-3.01V33.51c0-1.66,1.35-3.01,3.01-3.01h18.75c17.79,0,20.44,11.45,20.44,18.26
				C47.9,60.58,40.63,67.1,27.45,67.1z M8.71,31.5c-1.11,0-2.01,0.89-2.01,2.01v30.57c0,1.11,0.89,2.01,2.01,2.01h18.75
				c12.53,0,19.44-6.15,19.44-17.33c0-15.01-12.18-17.26-19.44-17.26L8.71,31.5L8.71,31.5z"/>
		</g>
	</g>
</g>
<g>
	<path class="st0" d="M21.27,45.16c0.41,0,0.79,0.06,1.15,0.19c0.36,0.13,0.66,0.33,0.93,0.58c0.25,0.27,0.46,0.6,0.61,0.97
		c0.14,0.39,0.22,0.85,0.22,1.38c0,0.47-0.06,0.89-0.17,1.29c-0.13,0.39-0.3,0.74-0.53,1.02c-0.24,0.28-0.53,0.5-0.89,0.68
		c-0.36,0.16-0.79,0.25-1.27,0.25h-2.75v-6.37h2.72V45.16z M21.17,50.36c0.2,0,0.39-0.03,0.6-0.09c0.19-0.06,0.36-0.17,0.5-0.33
		c0.14-0.16,0.27-0.35,0.36-0.6c0.09-0.25,0.14-0.53,0.14-0.89c0-0.31-0.03-0.61-0.09-0.86c-0.06-0.25-0.17-0.49-0.31-0.66
		c-0.14-0.17-0.33-0.33-0.57-0.42s-0.52-0.14-0.86-0.14h-1v4.02h1.24V50.36z"/>
	<path class="st0" d="M29.84,45.16v1.18h-3.36v1.37h3.09v1.08h-3.09v1.55h3.44v1.18h-4.84v-6.37h4.76V45.16z"/>
	<path class="st0" d="M34.65,45.16l2.39,6.37h-1.46l-0.49-1.41H32.7l-0.5,1.41h-1.41l2.4-6.37L34.65,45.16z M34.72,49.07l-0.8-2.34
		h-0.02l-0.83,2.34H34.72z"/>
	<path class="st0" d="M39.31,45.16v5.2h3.11v1.18h-4.51v-6.37L39.31,45.16z"/>
</g>
<g>
	<circle cx="11.94" cy="48.35" r="2.94"/>
</g>
<path d="M14.16,63.13L14.16,63.13c-2.47,0-4.44-1.99-4.44-4.44v-3.47c0-1.22,0.99-2.23,2.23-2.23l0,0c1.22,0,2.23,0.99,2.23,2.23
	v7.91H14.16z"/>
<g>
	<g>
		<path class="st0" d="M58.92,41.54c-0.71,0-1.26-0.17-1.66-0.51c-0.4-0.34-0.6-0.82-0.6-1.45c0-0.57,0.2-1.03,0.61-1.39
			c0.41-0.36,0.96-0.54,1.65-0.54c0.71,0,1.26,0.17,1.65,0.51c0.39,0.34,0.59,0.81,0.59,1.43c0,0.58-0.2,1.06-0.6,1.42
			C60.16,41.36,59.61,41.54,58.92,41.54z M57.03,56.55V44.01h3.78v12.53H57.03z"/>
		<path class="st0" d="M64.35,56.55V44.01h3.59l0.12,2.55l-0.76,0.28c0.17-0.57,0.48-1.08,0.93-1.55s0.99-0.84,1.62-1.12
			c0.63-0.28,1.29-0.43,1.98-0.43c0.94,0,1.74,0.19,2.38,0.58c0.64,0.38,1.13,0.96,1.46,1.72c0.33,0.76,0.5,1.7,0.5,2.8v7.69h-3.8
			v-7.39c0-0.5-0.07-0.92-0.21-1.25c-0.14-0.33-0.36-0.58-0.65-0.74c-0.29-0.17-0.65-0.24-1.07-0.22c-0.33,0-0.64,0.05-0.92,0.15
			c-0.28,0.1-0.53,0.25-0.73,0.45c-0.2,0.2-0.37,0.42-0.48,0.67s-0.18,0.53-0.18,0.83v7.51h-1.87c-0.44,0-0.82,0-1.13,0
			S64.55,56.55,64.35,56.55z"/>
		<path class="st0" d="M89.72,49.01c-0.28-0.64-0.68-1.19-1.18-1.66c-0.5-0.47-1.08-0.84-1.72-1.11c-0.44-0.18-0.9-0.28-1.38-0.34
			l4.24-4.55l-0.73-1.46H78.79v3.37l5.29,0.11l-3.5,3.81l0.87,2.34c0.31-0.16,0.62-0.28,0.92-0.38s0.58-0.17,0.85-0.22
			c0.27-0.05,0.52-0.08,0.76-0.08c0.52,0,0.96,0.09,1.33,0.26c0.37,0.17,0.65,0.43,0.85,0.77c0.2,0.34,0.3,0.75,0.3,1.24
			c0,0.46-0.11,0.87-0.34,1.23c-0.23,0.36-0.53,0.64-0.9,0.84c-0.37,0.2-0.78,0.3-1.22,0.3c-0.44,0-0.86-0.07-1.26-0.22
			c-0.4-0.15-0.79-0.39-1.16-0.72c-0.37-0.33-0.73-0.77-1.07-1.32l-2.88,1.86c0.82,1.37,1.73,2.33,2.73,2.89
			c1,0.56,2.17,0.84,3.5,0.84c1.16,0,2.22-0.25,3.17-0.76c0.95-0.5,1.71-1.18,2.27-2.04c0.56-0.86,0.84-1.84,0.84-2.94
			C90.15,50.33,90,49.64,89.72,49.01z"/>
	</g>
</g>
</svg>
