<svg height="360" width="640" xmlns="http://www.w3.org/2000/svg"><g fill="none" fill-rule="evenodd"><path d="M72.5 13.814v52.963h52.954c0-29.257-23.711-52.963-52.953-52.963m0 110.654c29.242 0 52.953-23.71 52.953-52.953H72.5ZM14.8 71.515h52.957v52.953c-29.251 0-52.957-23.71-52.957-52.953zm52.957-57.7C38.506 13.814 14.8 37.52 14.8 66.776h52.957zm71.086 55.233c0-38.006-30.809-68.82-68.81-68.82C32.02.229 1.21 31.043 1.21 69.049c0 38 30.81 68.82 68.824 68.82 38.001 0 68.81-30.82 68.81-68.82" style="fill:#fff" transform="translate(80 110)"/><g fill="#532a6e" style="fill:#fff"><path d="M73.553 83.287h11.128v7.84H53.834v-7.84h11.37v-50.7H54.087v-7.83h19.467zM65.2 13.885h8.348V.864H65.2zm59.296 27.684c-.117-3.414-1.768-6.193-4.3-8.091-2.528-1.899-5.811-3.036-9.351-3.036-6.702 0-13.021 4.048-13.021 11.249 0 8.348 7.96 10.372 14.658 11.762 5.186 1.012 10.494 2.15 15.05 4.934 5.312 3.032 8.213 8.465 8.213 14.533 0 4.309-1.39 7.336-2.9 10.241-3.168 6.073-11.632 9.734-19.351 9.734-7.961 0-14.411-2.901-18.455-9.734v7.97h-6.828V72.165h6.828c.76 8.092 7.966 14.033 16.944 14.033 7.331 0 14.411-4.925 14.411-12.639 0-9.103-7.84-10.75-15.171-12.26-5.186-1.143-10.359-2.155-14.92-4.935-4.93-3.162-7.835-8.222-7.835-14.033 0-4.552.881-8.092 3.41-11.38 3.921-5.06 11.379-7.332 17.572-7.332s11.763 2.155 15.046 7.332v-6.198h6.828v16.817zm-87.48 0c-.116-3.414-1.762-6.193-4.295-8.091-2.527-1.899-5.81-3.036-9.355-3.036-6.698 0-13.017 4.048-13.017 11.249 0 8.348 7.961 10.372 14.658 11.762 5.187 1.012 10.494 2.15 15.05 4.934 5.313 3.032 8.214 8.465 8.214 14.533 0 4.309-1.39 7.336-2.901 10.241-3.167 6.073-11.632 9.734-19.35 9.734-7.962 0-14.412-2.901-18.455-9.734v7.97H.737V72.165h6.828c.76 8.092 7.966 14.033 16.943 14.033 7.332 0 14.412-4.925 14.412-12.639 0-9.103-7.84-10.75-15.172-12.26-5.19-1.143-10.363-2.155-14.92-4.935C3.9 53.201.994 48.141.994 42.33c0-4.552.882-8.092 3.405-11.38 3.927-5.06 11.384-7.332 17.578-7.332s11.762 2.155 15.04 7.332v-6.198h6.833v16.817zm102.525 16.813c0-19.34 15.675-34.759 35.016-34.759 18.842 0 34.527 15.419 34.527 34.13 0 19.34-15.307 35.142-34.774 35.142-19.22 0-34.769-15.554-34.769-34.513m61.194-.125c0-14.416-11.636-26.426-26.299-26.426s-26.546 11.762-26.546 26.3c0 14.415 11.631 26.55 26.42 26.55 14.668 0 26.425-11.883 26.425-26.424M292.258 91.127h-8.726L268.743 45.24 251.93 91.127h-8.6l-20.101-58.531h-11.123v-7.84h30.086v7.84h-10.494L248.39 80.26l17.065-49.054h6.959l15.544 48.415 16.934-47.025h-10.736v-7.84h30.212v7.84h-11.123z" style="fill:#fff" transform="translate(234 124)"/></g></g></svg>