<svg xmlns="http://www.w3.org/2000/svg" width="51" height="32"><g fill="none" fill-rule="evenodd"><path fill="#FFF" stroke="#D0D0D0" d="M.5.5h50v31H.5z"/><path fill="#2C3341" fill-rule="nonzero" d="M8.925 22.445a.66.66 0 01.437.244c.056.068.098.14.134.222l.011.026c.038.09.071.195.107.33l.009.032c.025.101.16.659.21.838.084.297.17.525.262.689a.785.785 0 00.124.172.226.226 0 00.049.036c.083.026.106.024.129.01a.687.687 0 00.172-.202l.013-.02.145-.23c.062-.096.115-.17.177-.239a.942.942 0 01.343-.253.77.77 0 01.51-.027c.103.028.197.071.298.13l.022.014.024.014c.044.028.09.058.146.097l.227.158.032.022.028.018c.392.26.619.305.875.158l.012-.008.013-.007a.596.596 0 01.628 1.012l-.06.036a1.715 1.715 0 01-1.297.19c-.304-.074-.564-.208-.875-.418l-.023-.016a8.102 8.102 0 01-.065-.044l-.093-.065-.056.09-.019.029c-.171.262-.335.446-.567.585-.32.19-.695.228-1.094.104-.368-.115-.643-.384-.856-.76a3.837 3.837 0 01-.309-.744l-.008-.025-.032.08c-.07.175-.128.31-.188.434l-.013.027a2.308 2.308 0 01-.204.35.86.86 0 01-.44.34c-.245.079-.46.02-.658-.104a1.684 1.684 0 01-.317-.272 5.997 5.997 0 01-.52-.66l-.017-.024a15.849 15.849 0 01-.162-.235l-.047-.07-.124-.189-.297-.456-.044-.067-.036-.053a3.747 3.747 0 00-.05-.074l-.011-.015h-.001a.595.595 0 01-.195-.506l.001-.01a.596.596 0 01.664-.52.575.575 0 01.317.138.743.743 0 01.085.081c.026.03.052.062.08.1l.01.014c.042.057.091.13.158.231l.291.447.06.09c.023.037.046.072.069.105l.059.088.038.058c.039.056.075.11.111.16l.032.045.034.048c.045.063.087.121.128.175l.021.027.016-.036.012-.03c.038-.094.081-.203.13-.333l.165-.428c.152-.395.19-.48.277-.643l.003-.006c.056-.104.112-.19.18-.265a.766.766 0 01.191-.157.655.655 0 01.41-.083zm7.14-.989l3.202 3.205-3.57.866a.365.365 0 01-.443-.426l.001-.008.81-3.637zm-10.39 2.268l.001.002a.46.46 0 00.004.003l-.006-.005zm19.367-11.247l3.205 3.204-8.112 8.112-3.203-3.204 8.11-8.112zM11.68 20.009c.352.765 1.636 1.375 3.291 1.578l-.328 1.253c-1.76-.281-3.027-1.034-3.059-1.922v-.484c0-.146.033-.288.096-.425zm-6.583-1.221c.432.941 2.272 1.649 4.476 1.649.425 0 .835-.027 1.225-.076l.05-.006v.55c0 .252.057.495.17.726-.454.068-.94.105-1.445.105-2.5 0-4.531-.91-4.571-2.04L5 19.663v-.45c0-.145.033-.287.096-.424zm6.583-1.102c.434.941 2.28 1.649 4.49 1.649.103 0 .206-.002.307-.005l-1.23 1.2-.016.06c-2.059-.193-3.611-1.01-3.647-1.995v-.485c0-.145.033-.287.096-.424zm-6.583-1.222c.432.942 2.269 1.65 4.47 1.65.424 0 .834-.027 1.223-.076l.049-.006v1.3c-.404.053-.83.081-1.272.081-2.497 0-4.525-.91-4.565-2.04L5 17.34v-.45c0-.145.033-.287.096-.425zm6.583-1.22c.434.94 2.28 1.648 4.49 1.648 1.477 0 2.791-.315 3.63-.805l-2.023 1.974a9.68 9.68 0 01-1.606.13c-2.508 0-4.546-.91-4.587-2.039v-.484c0-.146.033-.288.096-.425zm-2.113-2.77c.424 0 .834.025 1.223.074l.049.007v4.424c-.404.053-.83.081-1.272.081-2.497 0-4.525-.908-4.565-2.035L5 14.991v-.449c0-1.143 2.044-2.069 4.566-2.069zm11.094.476c.06.131.094.267.097.406v.468c0 1.146-2.054 2.074-4.587 2.074-2.508 0-4.546-.91-4.587-2.04v-.484c0-.145.033-.287.096-.424.434.941 2.28 1.649 4.49 1.649 2.212 0 4.058-.708 4.491-1.65zm8.573-2.692l.017.017 1.429 1.429c.424.424.428 1.105.012 1.535l-.012.013-1.597 1.596-3.205-3.204 1.37-1.37a1.418 1.418 0 011.986-.016zm-13.063-1.3c2.508 0 4.546.908 4.586 2.035v.484c0 1.142-2.053 2.068-4.586 2.068-2.508 0-4.546-.908-4.587-2.035v-.483c0-1.142 2.053-2.069 4.587-2.069z"/><path fill="#EE7F00" fill-rule="nonzero" d="M38.63 8.717c-.191 0-.377.044-.551.125-.25.118-.475.314-.66.574-.12.17-.222.365-.303.584-.151.414-.15.749.006.97.087.125.27.274.64.274h.002c.676 0 1.18-.441 1.5-1.312.084-.23.196-.66-.008-.95-.123-.176-.333-.265-.626-.265zm4.078 0c-.192 0-.377.044-.552.125-.249.118-.475.314-.66.574-.12.17-.222.365-.302.584-.151.414-.15.749.005.97.088.125.27.274.642.274.677 0 1.181-.441 1.5-1.312.085-.23.196-.66-.007-.95-.123-.176-.334-.265-.626-.265zm-6.248.035c-.223 0-.439 0-.632.098-.194.097-.365.293-.496.685a.774.774 0 00-.046.22.328.328 0 00.033.164c.03.057.078.11.138.156.06.045.132.082.21.105l.092.026.143.042a.29.29 0 01.066.028c.022.013.04.03.053.053a.116.116 0 01.012.05.165.165 0 01-.01.06.16.16 0 01-.097.108.718.718 0 01-.245.028h-1.452l-.229.629h1.554c.146 0 .413 0 .67-.11.257-.108.503-.325.607-.76.04-.164.027-.297-.037-.402-.064-.104-.18-.18-.35-.229l-.083-.024-.122-.035a.164.164 0 01-.097-.069.136.136 0 01-.014-.11.161.161 0 01.08-.096.327.327 0 01.157-.035h.903l.019-.029c.165-.232.365-.42.583-.553h-1.41zm4.059 0c-.402 0-.701.202-.842.582l-.683 1.87h.748l.35-.962h.662l.188-.514h-.659l.106-.298a.158.158 0 01.152-.096h.78l.018-.029a2.1 2.1 0 01.618-.553h-1.438zm3.47.001l-.896 2.452h.76l.326-.863c.016.036.208.863.208.863h.8s-.145-.608-.252-.854c-.028-.063-.056-.133-.095-.193.226-.083.553-.263.689-.627.083-.224.079-.405-.014-.537-.112-.161-.34-.24-.698-.241h-.828zm1.56 0c.048.038.09.081.124.13a.636.636 0 01.102.452h.453l-.682 1.87h.682l.683-1.87h.876L48 8.753h-2.45zm-1.06.506h.127c.23 0 .315.067.237.276-.073.196-.204.318-.454.318h-.13l.22-.594zm-6.038.012c.233 0 .287.136.082.695-.211.576-.364.72-.594.72-.225 0-.304-.141-.094-.714.157-.427.36-.7.606-.7zm4.077 0c.234 0 .288.136.082.695-.21.576-.363.72-.594.72-.225 0-.303-.141-.093-.714.156-.427.36-.7.605-.7z"/></g></svg>