<?xml version="1.0" encoding="UTF-8" standalone="no"?>
<svg
   height="360"
   viewBox="0 0 640 360"
   width="640"
   version="1.1"
   id="svg2928"
   sodipodi:docname="provider-targetpay-white-640x360.svg"
   inkscape:version="1.1.2 (b8e25be8, 2022-02-05)"
   xmlns:inkscape="http://www.inkscape.org/namespaces/inkscape"
   xmlns:sodipodi="http://sodipodi.sourceforge.net/DTD/sodipodi-0.dtd"
   xmlns="http://www.w3.org/2000/svg"
   xmlns:svg="http://www.w3.org/2000/svg">
  <defs
     id="defs2932" />
  <sodipodi:namedview
     id="namedview2930"
     pagecolor="#ffffff"
     bordercolor="#666666"
     borderopacity="1.0"
     inkscape:pageshadow="2"
     inkscape:pageopacity="0.0"
     inkscape:pagecheckerboard="0"
     showgrid="false"
     inkscape:zoom="2.7223046"
     inkscape:cx="177.60687"
     inkscape:cy="169.34181"
     inkscape:window-width="1842"
     inkscape:window-height="1044"
     inkscape:window-x="2699"
     inkscape:window-y="399"
     inkscape:window-maximized="0"
     inkscape:current-layer="g2926" />
  <g
     fill="none"
     fill-rule="evenodd"
     transform="translate(80 130)"
     id="g2926">
    <path
       d="m144.770277 48.7821813v-33.0473954h-12.245024v-4.4216546h29.459043v4.4216546h-12.295728v33.0473954zm39.244923-3.3481892c-1.690143 1.4483334-3.316882 2.470671-4.880263 3.0670435-1.563383.5963726-3.240825.8945544-5.032377.8945544-2.957749 0-5.230958-.7284155-6.819691-2.1852685-1.588736-1.4568531-2.38309-3.3183596-2.38309-5.5845754 0-1.3290589.299995-2.5430848.899996-3.6421143.600004-1.0990295 1.385906-1.9807958 2.357738-2.6453252.971832-.6645295 2.066183-1.1671788 3.283087-1.5079632.895775-.238549 2.247869-.4685748 4.056321-.6900847 3.684513-.4430196 6.397151-.9712274 8.137998-1.5846393.016902-.6304509.025353-1.0308666.025353-1.2012587 0-1.8743138-.430981-3.1948333-1.292954-3.961598-1.166198-1.0393924-2.898568-1.5590806-5.197164-1.5590806-2.14648 0-3.730965.3791169-4.753503 1.1373621-1.022535.758245-1.778864 2.1000632-2.269005 4.0254948l-4.461955-.6134088c.405635-1.9254315 1.073231-3.4802366 2.00281-4.6644622.929577-1.1842257 2.273222-2.09581 4.030971-2.7347806 1.757748-.6389707 3.79434-.9584511 6.109835-.9584511 2.298594 0 4.166174.2726233 5.602796.8178783 1.436621.5452549 2.492944 1.2310731 3.169002 2.0574751.676057.8264019 1.14929 1.8700383 1.419713 3.1309404.152113.783804.228168 2.1980377.228168 4.2427438v6.1340872c0 4.2768433.097181 6.9817785.291549 8.1148863.194366 1.1331079.578867 2.2193418 1.153516 3.2587339h-4.766179c-.473239-.9541962-.777461-2.070248-.912672-3.3481892zm-.380281-10.2745964c-1.65634.6815687-4.140813 1.2608934-7.453494 1.7379915-1.876058.2726273-3.2028.5793288-3.980266.9201131s-1.377456.839174-1.799992 1.4951837c-.422536.6560098-.633801 1.3844255-.633801 2.1852686 0 1.2268236.460556 2.2491613 1.381685 3.0670438.921128.8178823 2.268997 1.2268174 4.043647 1.2268174 1.757749 0 3.321107-.3876363 4.690122-1.1629207 1.369017-.7752844 2.374636-1.8359598 3.016891-3.1820579.490141-1.0393921.735208-2.5728987.735208-4.6005655zm11.636577 13.6227856v-27.1433364h4.107025v4.1149503c1.047889-1.9254314 2.015481-3.1948341 2.902807-3.8082459.887325-.6134118 1.863367-.920113 2.928157-.920113 1.53803 0 3.10139.4941298 4.690124 1.4824043l-1.571826 4.2683024c-1.115494-.6645294-2.230972-.9967891-3.346466-.9967891-.997184 0-1.892945.3024415-2.687313.9073338-.794368.6048921-1.360558 1.4440609-1.698586 2.5175316-.507041 1.6357649-.760561 3.4248558-.760561 5.3673264v14.2106356zm16.504163 2.2491654 4.436603.6645261c.185915 1.3801765.701401 2.3854752 1.546473 3.0159263 1.132396.8519607 2.678852 1.2779349 4.639418 1.2779349 2.112679 0 3.743643-.4259742 4.89294-1.2779349 1.149296-.8519609 1.926751-2.0446882 2.332385-3.5782177.236621-.9371568.346478-2.9051568.329577-5.904059-1.994369 2.3684511-4.478842 3.5526589-7.453493 3.5526589-3.701414 0-6.566162-1.3460779-8.594334-4.0382741-2.028173-2.6921962-3.042243-5.9210794-3.042243-9.6867463 0-2.5899609.464782-4.9796752 1.394361-7.1692146.929579-2.1895392 2.277448-3.8806561 4.043648-5.0734013 1.766198-1.1927451 3.840818-1.7891087 6.223919-1.7891087 3.177469 0 5.797151 1.294961 7.859126 3.8849218v-3.2715132h4.208435v23.4628841c0 4.2257257-.426754 7.220323-1.280277 8.983882-.853522 1.7635589-2.205616 3.1564941-4.056323 4.178847-1.850707 1.022353-4.128141 1.5335218-6.832369 1.5335218-3.211271 0-5.805601-.7284155-7.783069-2.1852685-1.977467-1.4568532-2.932384-3.6506193-2.864777-6.5813646zm3.77745-16.3064488c0 3.5611963.701399 6.1596379 2.104218 7.7954027 1.402818 1.6357647 3.16054 2.4536349 5.273218 2.4536349 2.095777 0 3.8535-.8136105 5.273221-2.4408556 1.41972-1.6272452 2.129569-4.1788296 2.129569-7.6548299 0-3.3226471-.730975-5.8273744-2.19295-7.5142569-1.461974-1.6868825-3.223921-2.530311-5.285894-2.530311-2.028173 0-3.752093.8306494-5.171813 2.491973s-2.129569 4.1277131-2.129569 7.3992428zm44.36603 5.316209 4.715474.58785c-.743662 2.7773924-2.121108 4.9328209-4.132378 6.4663504-2.011269 1.5335295-4.580249 2.3002827-7.707012 2.3002827-3.938034 0-7.060526-1.2225455-9.367572-3.6676729-2.307045-2.4451276-3.46055-5.8742185-3.46055-10.2873757 0-4.56651 1.166182-8.110614 3.498578-10.6324179 2.332398-2.5218041 5.357708-3.7826872 9.076023-3.7826872 3.600005 0 6.54081 1.2353246 8.822502 3.706011 2.281693 2.4706864 3.422522 5.9466345 3.422522 10.4279484 0 .2726276-.00845.6815625-.025352 1.2268175h-20.078798c.169015 2.9818629 1.005623 5.2650838 2.509851 6.8497309 1.504226 1.5846471 3.380257 2.3769588 5.628147 2.3769588 1.673241 0 3.101391-.443013 4.284491-1.3290522 1.1831-.8860393 2.121115-2.3002732 2.814074-4.2427438zm-14.983042-7.4375809h15.033745c-.202817-2.283255-.777456-3.9956706-1.723937-5.1372981-1.453522-1.7720786-3.338004-2.6581044-5.653499-2.6581044-2.095777 0-3.857725.7071167-5.285896 2.1213718-1.42817 1.414255-2.2183 3.3055796-2.370413 5.6740307zm35.391415 12.063705.659153 4.0638329c-1.284509.2726276-2.433789.4089392-3.447874.4089392-1.656341 0-2.940829-.2641039-3.853506-.7923195-.912677-.5282158-1.554922-1.2225536-1.926754-2.0830339-.371832-.8604805-.557744-2.6708701-.557744-5.4312231v-15.616364h-3.346466v-3.5782177h3.346466v-6.7219373l4.538011-2.7603393v9.4822766h4.588714v3.5782177h-4.588714v15.8719509c0 1.3120197.080281 2.1554482.240843 2.5303109.160564.3748629.422533.6730447.785914.8945545.363381.2215099.883091.332263 1.559148.332263.507043 0 1.174639-.0596364 2.002809-.1789109zm5.045052 4.1149503v-37.46905h14.019665c2.467609 0 4.352091.1192727 5.6535.3578218 1.825355.3067059 3.354911.8902903 4.588716 1.7507707 1.233804.8604805 2.226748 2.065987 2.978861 3.6165556.752115 1.5505688 1.128165 3.2544648 1.128165 5.1117395 0 3.1863336-1.00562 5.8827491-3.016889 8.0893277-2.011271 2.2065786-5.645023 3.3098513-10.901367 3.3098513h-9.532359v15.2329834zm4.918292-19.654638h9.608413c3.17747 0 5.433777-.5963637 6.76899-1.7891089s2.002808-2.8710828 2.002808-5.0350632c0-1.567608-.392951-2.9094261-1.178868-4.0254948s-1.821114-1.8530038-3.105621-2.2108274c-.828172-.2215098-2.357728-.3322631-4.588716-.3322631h-9.507006zm46.698414 16.3064488c-1.690141 1.4483334-3.316881 2.470671-4.880262 3.0670435-1.563382.5963726-3.240824.8945544-5.032376.8945544-2.95775 0-5.230958-.7284155-6.819693-2.1852685-1.588734-1.4568531-2.383088-3.3183596-2.383088-5.5845754 0-1.3290589.299995-2.5430848.899996-3.6421143.600004-1.0990295 1.385906-1.9807958 2.357738-2.6453252.971832-.6645295 2.066183-1.1671788 3.283085-1.5079632.895777-.238549 2.247871-.4685748 4.056323-.6900847 3.684512-.4430196 6.397151-.9712274 8.137998-1.5846393.016902-.6304509.025352-1.0308666.025352-1.2012587 0-1.8743138-.43098-3.1948333-1.292953-3.961598-1.166198-1.0393924-2.89857-1.5590806-5.197164-1.5590806-2.146481 0-3.730967.3791169-4.753503 1.1373621-1.022536.758245-1.778864 2.1000632-2.269005 4.0254948l-4.461956-.6134088c.405634-1.9254315 1.073232-3.4802366 2.002809-4.6644622.929579-1.1842257 2.273224-2.09581 4.030972-2.7347806 1.757749-.6389707 3.794341-.9584511 6.109836-.9584511 2.298594 0 4.166174.2726233 5.602796.8178783 1.436621.5452549 2.492944 1.2310731 3.169002 2.0574751.676057.8264019 1.14929 1.8700383 1.419713 3.1309404.152113.783804.228168 2.1980377.228168 4.2427438v6.1340872c0 4.2768433.097181 6.9817785.291549 8.1148863.194366 1.1331079.578867 2.2193418 1.153516 3.2587339h-4.766179c-.473241-.9541962-.777461-2.070248-.912674-3.3481892zm-.380279-10.2745964c-1.65634.6815687-4.140813 1.2608934-7.453494 1.7379915-1.876058.2726273-3.2028.5793288-3.980266.9201131s-1.377458.839174-1.799994 1.4951837c-.422536.6560098-.6338 1.3844255-.6338 2.1852686 0 1.2268236.460557 2.2491613 1.381685 3.0670438.921129.8178823 2.268998 1.2268174 4.043646 1.2268174 1.757749 0 3.321109-.3876363 4.690124-1.1629207 1.369017-.7752844 2.374636-1.8359598 3.016891-3.1820579.490141-1.0393921.735208-2.5728987.735208-4.6005655zm11.484464 24.0762927-.50704-4.3194198c.997184.2726276 1.867594.4089392 2.611258.4089392 1.014085 0 1.825341-.1703895 2.433792-.511174.608453-.3407843 1.107037-.8178753 1.495769-1.431287.287324-.4600588.752107-1.6016691 1.394361-3.4248654.084508-.2555882.219717-.6304454.405632-1.1245827l-10.216863-27.1944538h4.918292l5.602796 15.7185988c.726762 1.9935884 1.377456 4.0893805 1.952105 6.2874395.523945-2.1128628 1.149288-4.1745771 1.87605-6.1852047l5.754908-15.8208336h4.563363l-10.242216 27.603393c-1.098592 2.9818629-1.952102 5.0350576-2.560553 6.1596461-.811269 1.5164901-1.740833 2.6282823-2.788722 3.3354099-1.047888.7071274-2.298576 1.0606859-3.752099 1.0606859-.878873 0-1.859141-.1874285-2.940833-.5622914zm27.456234-10.4535071v-5.2395329h5.197164v5.2395329zm30.701293-9.9423332 4.487306.58785c-.490141 3.1181766-1.745053 5.5590078-3.764774 7.3225668-2.01972 1.7635589-4.499967 2.6453251-7.440816 2.6453251-3.684512 0-6.646443-1.2140259-8.885883-3.6421143-2.239439-2.4280884-3.359141-5.9082962-3.359141-10.4407277 0-2.9307453.481682-5.4951089 1.445065-7.6931679.963381-2.198059 2.429558-3.8465784 4.398574-4.9456079 1.969017-1.0990295 4.111241-1.6485359 6.426736-1.6485359 2.923947 0 5.315464.7454545 7.174622 2.2363859 1.859156 1.4909314 3.050689 3.6080223 3.574634 6.3513363l-4.436603.6900848c-.422536-1.8231961-1.170413-3.1948325-2.243654-4.1149503-1.073241-.9201176-2.370406-1.3801695-3.891534-1.3801695-2.298594 0-4.166174.8306492-5.602796 2.4919728-1.436621 1.6613237-2.154922 4.2895834-2.154922 7.8848582 0 3.6463922.692948 6.2959507 2.078865 7.9487548 1.385918 1.652804 3.194343 2.4791936 5.425332 2.4791936 1.791552 0 3.287306-.5537663 4.487308-1.6613153 1.200002-1.1075491 1.960554-2.8114452 2.281681-5.1117395zm6.692932-3.629335c0-5.0265689 1.385898-8.7495819 4.157731-11.1691507 2.315496-2.0106275 5.137993-3.0159261 8.467574-3.0159261 3.701414 0 6.726723 1.2225454 9.076022 3.667673 2.3493 2.4451276 3.523931 5.8231016 3.523931 10.1340235 0 3.4930393-.519711 6.2405718-1.55915 8.2426797-1.039438 2.002108-2.552092 3.5569132-4.538011 4.6644622-1.985918 1.1075491-4.153493 1.6613153-6.502792 1.6613153-3.769019 0-6.815456-1.2182856-9.139402-3.6548936-2.323947-2.436608-3.485903-5.946634-3.485903-10.5301833zm4.690124 0c0 3.4760002.752102 6.0787016 2.25633 7.808182 1.504226 1.7294806 3.397158 2.5942078 5.678851 2.5942078 2.264792 0 4.149273-.8689871 5.653499-2.6069871 1.504228-1.7380002 2.25633-4.3875586 2.25633-7.9487549 0-3.3567257-.756326-5.8997906-2.269005-7.629271-1.512677-1.7294805-3.392934-2.5942078-5.640824-2.5942078-2.281693 0-4.174625.8604676-5.678851 2.5814284-1.504228 1.7209609-2.25633 4.3194025-2.25633 7.7954026zm25.884409 13.5716682v-27.1433364h4.081676v3.808246c.84507-1.3290589 1.968999-2.3982537 3.371817-3.2076166 1.402819-.8093628 2.999981-1.214038 4.791532-1.214038 1.994369 0 3.629557.4174545 4.905616 1.2523761 1.276056.8349217 2.176045 2.0020905 2.699988 3.5015415 2.129581-3.1692943 4.901374-4.7539176 8.315462-4.7539176 2.670426 0 4.723919.7454545 6.16054 2.2363859 1.436622 1.4909314 2.154922 3.7869314 2.154922 6.8880689v18.6322902h-4.538011v-17.0987683c0-1.8402355-.147885-3.1650146-.44366-3.9743775-.295775-.8093628-.832388-1.4611031-1.609854-1.9552403-.777466-.4941373-1.690128-.7412022-2.738017-.7412022-1.89296 0-3.464769.6347012-4.715476 1.904123-1.250706 1.2694215-1.876049 3.3013176-1.876049 6.0957491v15.7697162h-4.563363v-17.6355011c0-2.0447059-.371825-3.5782123-1.115489-4.6005655-.743662-1.0223529-1.960546-1.5335217-3.650689-1.5335217-1.28451 0-2.471818.3407793-3.561959 1.0223479-1.090143.6815687-1.880273 1.6783478-2.370415 2.9903675-.490141 1.3120198-.735208 3.2033444-.735208 5.6740308v14.0828421z"
       fill="#222"
       fill-rule="nonzero"
       id="path2892"
       style="fill:#ffffff" />
    <path
       id="path2894"
       style="fill:#ffffff"
       d="M 100.03711 130 L 95.189453 134.87109 L 95.189453 158.55078 C 86.753772 167.54732 81.615234 179.47938 81.615234 192.57031 C 81.615234 193.2656 81.631443 193.958 81.660156 194.64648 L 186.62305 194.64648 C 186.65176 193.958 186.66602 193.2656 186.66602 192.57031 C 186.66602 179.18414 181.29464 167.01037 172.51758 157.94727 L 172.51758 134.87109 L 167.66992 130 L 100.03711 130 z M 102.62695 136.46484 L 164.03906 136.46484 L 164.03906 152.62695 L 102.62695 152.62695 L 102.62695 136.46484 z M 111.08203 163.93945 A 4.4349999 4.3509998 0 0 1 115.51758 168.29102 A 4.4349999 4.3509998 0 0 1 111.08203 172.64258 A 4.4349999 4.3509998 0 0 1 106.64648 168.29102 A 4.4349999 4.3509998 0 0 1 111.08203 163.93945 z M 126.45508 163.93945 A 4.4349999 4.3509998 0 0 1 130.89062 168.29102 A 4.4349999 4.3509998 0 0 1 126.45508 172.64258 A 4.4349999 4.3509998 0 0 1 122.01953 168.29102 A 4.4349999 4.3509998 0 0 1 126.45508 163.93945 z M 143.01172 163.93945 A 4.4349999 4.3509998 0 0 1 147.44531 168.29102 A 4.4349999 4.3509998 0 0 1 143.01172 172.64258 A 4.4349999 4.3509998 0 0 1 138.57617 168.29102 A 4.4349999 4.3509998 0 0 1 143.01172 163.93945 z M 158.38477 163.93945 A 4.4349999 4.3509998 0 0 1 162.81836 168.29102 A 4.4349999 4.3509998 0 0 1 158.38477 172.64258 A 4.4349999 4.3509998 0 0 1 153.94922 168.29102 A 4.4349999 4.3509998 0 0 1 158.38477 163.93945 z M 102.21289 177.86328 A 4.4349999 4.3509998 0 0 1 106.64844 182.21484 A 4.4349999 4.3509998 0 0 1 102.21289 186.56641 A 4.4349999 4.3509998 0 0 1 97.777344 182.21484 A 4.4349999 4.3509998 0 0 1 102.21289 177.86328 z M 117.58594 177.86328 A 4.4349999 4.3509998 0 0 1 122.02148 182.21484 A 4.4349999 4.3509998 0 0 1 117.58594 186.56641 A 4.4349999 4.3509998 0 0 1 113.15039 182.21484 A 4.4349999 4.3509998 0 0 1 117.58594 177.86328 z M 134.14258 177.86328 A 4.4349999 4.3509998 0 0 1 138.57617 182.21484 A 4.4349999 4.3509998 0 0 1 134.14258 186.56641 A 4.4349999 4.3509998 0 0 1 129.70703 182.21484 A 4.4349999 4.3509998 0 0 1 134.14258 177.86328 z M 149.51562 177.86328 A 4.4349999 4.3509998 0 0 1 153.94922 182.21484 A 4.4349999 4.3509998 0 0 1 149.51562 186.56641 A 4.4349999 4.3509998 0 0 1 145.08008 182.21484 A 4.4349999 4.3509998 0 0 1 149.51562 177.86328 z M 166.07031 177.86328 A 4.4349999 4.3509998 0 0 1 170.50586 182.21484 A 4.4349999 4.3509998 0 0 1 166.07031 186.56641 A 4.4349999 4.3509998 0 0 1 161.63672 182.21484 A 4.4349999 4.3509998 0 0 1 166.07031 177.86328 z "
       transform="translate(-80,-130)" />
    <path
       id="path2896"
       d="M 80 201.11133 L 80 228.58594 L 188.2832 228.58594 L 188.2832 201.11133 L 80 201.11133 z M 134.94922 207.57422 A 8.0810003 7.2729998 0 0 1 143.0293 214.84766 A 8.0810003 7.2729998 0 0 1 134.94922 222.12109 A 8.0810003 7.2729998 0 0 1 126.86719 214.84766 A 8.0810003 7.2729998 0 0 1 134.94922 207.57422 z M 134.33203 209.19141 C 133.77803 209.19141 133.33203 209.63741 133.33203 210.19141 L 133.33203 219.50586 C 133.33203 220.05986 133.77803 220.50586 134.33203 220.50586 L 135.56445 220.50586 C 136.11845 220.50586 136.56445 220.05986 136.56445 219.50586 L 136.56445 210.19141 C 136.56445 209.63741 136.11845 209.19141 135.56445 209.19141 L 134.33203 209.19141 z "
       transform="translate(-80,-130)"
       style="fill:#ffffff" />
    <path
       d="m137.373737 84.988911c0-1.757998.270972-3.2334385.812925-4.4263657.404442-.878999.956497-1.6677317 1.656182-2.3662221.699685-.6984901 1.466092-1.216464 2.299243-1.5539368 1.108171-.4551959 2.386189-.6827904 3.834092-.6827904 2.620785 0 4.717787.7887327 6.291067 2.366222s2.359908 3.7710297 2.359908 6.5806872c0 2.7861128-.780562 4.9659192-2.341709 6.5394843-1.561146 1.5735652-3.648037 2.360336-6.260733 2.360336-2.645052 0-4.74812-.7828467-6.309266-2.3485637-1.561147-1.5657169-2.341709-3.721979-2.341709-6.4688508zm3.700628-.1177225c0 1.954203.465101 3.4355296 1.395318 4.4440239.930217 1.0084944 2.11117 1.5127341 3.542896 1.5127341 1.431725 0 2.606612-.5003156 3.524696-1.5009618.918083-1.0006461 1.377118-2.5015929 1.377118-4.5028851 0-1.9777479-.446902-3.4531882-1.340719-4.4263658-.893817-.9731774-2.080837-1.4597589-3.561095-1.4597589-1.480259 0-2.673345.4924676-3.579295 1.4774173-.905951.9849498-1.358919 2.4702004-1.358919 4.4557963zm28.051967 8.6408307h-3.40943v-6.3805588c0-1.3498914-.072799-2.2229912-.218397-2.6193255-.1456-.3963343-.382195-.7043718-.709792-.9241216-.327599-.2197497-.721924-.329623-1.182989-.329623-.590485 0-1.120295.1569618-1.589449.47089-.469153.3139283-.790679.7298769-.96459 1.2478584-.17391.5179816-.260864 1.4754483-.260864 2.8724288v5.6624517h-3.40943v-12.5021285h3.166766v1.836471c1.12435-1.412677 2.539875-2.1190049 4.246621-2.1190049.752264 0 1.439805.1314555 2.062646.3943704s1.094009.5984205 1.413517 1.0065272c.319511.4081067.54195.8711439.667326 1.3891255.125379.5179816.188065 1.2596257.188065 2.224955zm3.457964 0v-17.258117h3.40943v17.258117zm6.903793-14.1973323v-3.0607847h3.40943v3.0607847zm0 14.1973323v-12.5021285h3.40943v12.5021285zm18.624469 0h-3.409431v-6.3805588c0-1.3498914-.072798-2.2229912-.218396-2.6193255-.1456-.3963343-.382195-.7043718-.709794-.9241216-.327598-.2197497-.721924-.329623-1.182987-.329623-.590486 0-1.120297.1569618-1.58945.47089-.469152.3139283-.790679.7298769-.96459 1.2478584-.17391.5179816-.260863 1.4754483-.260863 2.8724288v5.6624517h-3.409432v-12.5021285h3.166767v1.836471c1.124349-1.412677 2.539876-2.1190049 4.246622-2.1190049.752263 0 1.439804.1314555 2.062645.3943704.62284.2629149 1.094009.5984205 1.413518 1.0065272s.541949.8711439.667326 1.3891255.188065 1.2596257.188065 2.224955zm10.919883-3.9790201 3.397298.5532957c-.436798 1.2086237-1.126361 2.1288118-2.068711 2.7605923s-2.121282.9476661-3.536829.9476661c-2.24061 0-3.898798-.7102519-4.974614-2.130777-.849328-1.1379899-1.273987-2.5741898-1.273987-4.3086431 0-2.0719263.558122-3.6945183 1.674382-4.867825 1.116262-1.1733068 2.527743-1.7599513 4.234489-1.7599513 1.917055 0 3.429647.6141129 4.537818 1.842357 1.108171 1.2282442 1.637983 3.1098232 1.58945 5.6447934h-8.541777c.024267.9810257.299284 1.7442522.825059 2.2897024.525775.5454504 1.180962.8181713 1.965579.8181713.533863 0 .982788-.1412656 1.346786-.4238009.363997-.2825354.639014-.7377246.825057-1.3655809zm.194132-3.3433188c-.024267-.957481-.279061-1.6853912-.764391-2.1837521-.485332-.498361-1.075808-.7475379-1.771449-.7475379-.744173 0-1.358916.262911-1.844247.7887407-.48533.5258298-.723947 1.2400058-.715858 2.1425493zm13.103861-9.9357781h7.110057c1.407459 0 2.45697.0568986 3.148566.1706976.691598.1137989 1.310384.3512037 1.856381.712221.545996.3610176 1.000988.8417129 1.364985 1.4421006.363998.6003877.545994 1.2733611.545994 2.0189407 0 .8083651-.224462 1.5500094-.673392 2.224955s-1.057608 1.1811473-1.826047 1.5186202c1.083904.30608 1.917042.8279778 2.499439 1.565709.582397.7377314.873592 1.604945.873592 2.6016671 0 .7848205-.188063 1.548047-.564194 2.2897025-.376133.7416554-.889767 1.334186-1.540918 1.7776095-.651152.4434237-1.453957.7161447-2.408441.8181713-.598575.0627856-2.042412.1020262-4.331554.1177225h-6.054468zm3.591428 2.8724288v3.9907924h2.353842c1.39937 0 2.268907-.0196202 2.608639-.0588613.614752-.0706338 1.098052-.2766461 1.449918-.6180431.351864-.3413969.527793-.7907.527793-1.3479224 0-.5336781-.151662-.9672849-.454995-1.3008337-.303331-.3335486-.754277-.5356368-1.352851-.6062707-.35591-.039241-1.379132-.0588612-3.069702-.0588612zm0 6.8632212v4.6147216h3.324498c1.294215 0 2.115221-.0353164 2.46304-.1059502.533865-.0941786.968633-.3237352 1.30432-.6886767.335686-.3649414.503528-.853485.503528-1.465645 0-.5179815-.129419-.9574744-.388262-1.3184919-.258843-.3610174-.632947-.6239283-1.122323-.7887407-.489375-.1648123-1.551019-.2472171-3.184966-.2472171zm21.779101 3.5434469 3.397298.5532957c-.436798 1.2086237-1.126361 2.1288118-2.068711 2.7605923-.942352.6317805-2.121282.9476661-3.536829.9476661-2.240609 0-3.898798-.7102519-4.974615-2.130777-.849329-1.1379899-1.273986-2.5741898-1.273986-4.3086431 0-2.0719263.558122-3.6945183 1.674382-4.867825 1.11626-1.1733068 2.527743-1.7599513 4.234489-1.7599513 1.917055 0 3.429647.6141129 4.537818 1.842357 1.108171 1.2282442 1.637983 3.1098232 1.58945 5.6447934h-8.541777c.024267.9810257.299284 1.7442522.825059 2.2897024.525775.5454504 1.180962.8181713 1.965579.8181713.533863 0 .982788-.1412656 1.346786-.4238009.363997-.2825354.639014-.7377246.825057-1.3655809zm.194132-3.3433188c-.024267-.957481-.279061-1.6853912-.764393-2.1837521-.48533-.498361-1.075806-.7475379-1.771447-.7475379-.744173 0-1.358916.262911-1.844247.7887407-.48533.5258298-.723949 1.2400058-.71586 2.1425493zm12.072538-5.1797896v2.6369838h-2.329576v5.0385227c0 1.0202666.022245 1.6147592.066733 1.7834957.044488.1687364.145599.3080399.303331.4179149.157733.1098749.349839.1648114.576327.1648114.315465 0 .772478-.1059492 1.371053-.3178506l.291196 2.5663502c-.792708.3296246-1.690555.4944344-2.693572.4944344-.614752 0-1.168829-.100063-1.662248-.3001923-.493421-.2001293-.855391-.4591161-1.085922-.7769684-.230532-.3178523-.390285-.7475352-.479261-1.2890613-.0728-.3845621-.109199-1.1615228-.109199-2.3309053v-5.4505514h-1.565183v-2.6369838h1.565183v-2.4839445l3.421562-1.9306487v4.4145932zm4.913948 3.8142089-3.093967-.5415236c.34782-1.2086235.946385-2.1033055 1.795714-2.6840727.849328-.5807672 2.111169-.8711465 3.785559-.8711465 1.520703 0 2.653124.1746199 3.397298.523865.744173.3492453 1.267918.7926622 1.57125 1.3302643.303331.5376021.454995 1.524499.454995 2.9607206l-.036399 3.8612976c0 1.0987488.054598 1.9090638.163798 2.4309694.109199.5219058.31344 1.081082.612727 1.6775455h-3.373031c-.088978-.2197496-.198176-.5454453-.327598-.9770965-.05662-.1962053-.097065-.3256986-.121331-.3884844-.582397.5493744-1.205229.961399-1.868513 1.2360861-.663285.2746872-1.371049.4120288-2.123311.4120288-1.32657 0-2.372037-.3492399-3.136433-1.0477301-.764396-.6984903-1.146588-1.5814001-1.146588-2.648756 0-.7063386.173907-1.3361476.521728-1.889446.34782-.5532984.835166-.9770953 1.462051-1.271403.626885-.2943076 1.530799-.5513325 2.71177-.7710822 1.593503-.2903837 2.697613-.5611426 3.312365-.8122852v-.329623c0-.6357045-.161774-1.0889317-.485328-1.3596947-.323554-.2707631-.934251-.4061427-1.832113-.4061427-.606664 0-1.079855.1157594-1.419585.3472815-.339732.2315219-.614749.6376606-.825058 1.2184278zm4.562084 2.6840727c-.436796.1412677-1.128383.3100016-2.074778.5062067-.946393.1962051-1.565181.3884832-1.85638.5768402-.444887.30608-.667326.6945604-.667326 1.1654526 0 .4630441.177953.8632965.533861 1.2007695.355909.3374728.808877.5062067 1.358918.5062067.614753 0 1.201185-.1962023 1.759315-.5886125.412532-.2982318.683504-.6631679.812925-1.0948193.088977-.2825352.133465-.8201293.133465-1.612798zm6.709662 6.0038469v-17.258117h3.40943v17.258117zm6.903793-14.1973323v-3.0607847h3.40943v3.0607847zm0 14.1973323v-12.5021285h3.40943v12.5021285zm18.624469 0h-3.409431v-6.3805588c0-1.3498914-.072798-2.2229912-.218396-2.6193255-.1456-.3963343-.382195-.7043718-.709793-.9241216-.327599-.2197497-.721923-.329623-1.182988-.329623-.590486 0-1.120297.1569618-1.58945.47089-.469152.3139283-.790679.7298769-.96459 1.2478584-.17391.5179816-.260863 1.4754483-.260863 2.8724288v5.6624517h-3.40943v-12.5021285h3.166765v1.836471c1.124349-1.412677 2.539876-2.1190049 4.246622-2.1190049.752263 0 1.439804.1314555 2.062645.3943704.622842.2629149 1.094009.5984205 1.413518 1.0065272.31951.4081067.541949.8711439.667326 1.3891255s.188065 1.2596257.188065 2.224955zm3.1425.8240576 3.894759.4591175c.064711.4394995.214351.741651.448929.9064632.323552.2354462.833143.3531676 1.528782.3531676.889773 0 1.557093-.1294935 2.00198-.3884843.299287-.1726605.525771-.4512677.679459-.8358296.105155-.2746872.157732-.7808889.157732-1.5186201v-1.8246987c-1.019195 1.3498914-2.305301 2.0248268-3.858359 2.0248268-1.731013 0-3.102051-.7102519-4.113156-2.130777-.792706-1.1222934-1.189054-2.519253-1.189054-4.1909207 0-2.0954708.5197-3.6964807 1.559116-4.8030775 1.039417-1.1065971 2.33159-1.6598872 3.876559-1.6598872 1.593502 0 2.90792.6788596 3.943291 2.0365991v-1.7540652h3.191033v11.2189534c0 1.4754626-.125375 2.578119-.376129 3.308002-.250754.7298831-.602613 1.3027935-1.055589 1.7187484-.452975.4159548-1.057607.7416504-1.813914.9770966-.756307.2354461-1.712798.3531675-2.869503.3531675-2.183987 0-3.732978-.3629741-4.647017-1.088933-.91404-.725959-1.371052-1.6461473-1.371052-2.7605925 0-.1098748.004044-.2432923.012133-.4002563zm3.045435-7.3341112c0 1.3263466.264905 2.2975475.794725 2.9136317.529818.616084 1.182983.9241215 1.959512.9241215.833151 0 1.536869-.3158856 2.111177-.9476661s.861458-1.567665.861458-2.8076815c0-1.2949538-.275017-2.2563445-.825059-2.8842009-.550041-.6278564-1.245671-.94178-2.08691-.94178-.816973 0-1.49036.3080375-2.020178.9241215-.52982.6160842-.794725 1.5558927-.794725 2.8194538zm19.910588 2.5310335 3.397297.5532957c-.436798 1.2086237-1.126361 2.1288118-2.068711 2.7605923-.942351.6317805-2.121281.9476661-3.536829.9476661-2.240611 0-3.898797-.7102519-4.974615-2.130777-.849328-1.1379899-1.273986-2.5741898-1.273986-4.3086431 0-2.0719263.558122-3.6945183 1.674382-4.867825 1.11626-1.1733068 2.527743-1.7599513 4.234489-1.7599513 1.917055 0 3.429647.6141129 4.537818 1.842357 1.108171 1.2282442 1.637983 3.1098232 1.58945 5.6447934h-8.541776c.024266.9810257.299284 1.7442522.825058 2.2897024.525775.5454504 1.180962.8181713 1.965579.8181713.533864 0 .982788-.1412656 1.346785-.4238009.363998-.2825354.639016-.7377246.825059-1.3655809zm.194131-3.3433188c-.024266-.957481-.279061-1.6853912-.764392-2.1837521-.485331-.498361-1.075807-.7475379-1.771448-.7475379-.744173 0-1.358917.262911-1.844247.7887407-.48533.5258298-.723948 1.2400058-.715859 2.1425493zm17.884343 7.3223389h-3.40943v-6.3805588c0-1.3498914-.072799-2.2229912-.218399-2.6193255-.145598-.3963343-.382193-.7043718-.709792-.9241216-.327598-.2197497-.721923-.329623-1.182987-.329623-.590485 0-1.120297.1569618-1.58945.47089-.469153.3139283-.790679.7298769-.964589 1.2478584-.173911.5179816-.260865 1.4754483-.260865 2.8724288v5.6624517h-3.40943v-12.5021285h3.166767v1.836471c1.124349-1.412677 2.539875-2.1190049 4.246621-2.1190049.752262 0 1.439804.1314555 2.062644.3943704.622841.2629149 1.094009.5984205 1.413519 1.0065272.319509.4081067.541949.8711439.667326 1.3891255s.188065 1.2596257.188065 2.224955z"
       fill="#919191"
       fill-rule="nonzero"
       id="path2924"
       style="fill:#ffffff" />
  </g>
</svg>
