<?xml version="1.0" encoding="UTF-8" standalone="no"?>
<svg
   width="512"
   height="512"
   viewBox="0 0 512 512"
   version="1.1"
   id="svg168"
   sodipodi:docname="provider-targetpay-icon-512x512.svg"
   inkscape:version="1.2.1 (9c6d41e4, 2022-07-14)"
   xmlns:inkscape="http://www.inkscape.org/namespaces/inkscape"
   xmlns:sodipodi="http://sodipodi.sourceforge.net/DTD/sodipodi-0.dtd"
   xmlns="http://www.w3.org/2000/svg"
   xmlns:svg="http://www.w3.org/2000/svg">
  <defs
     id="defs172" />
  <sodipodi:namedview
     id="namedview170"
     pagecolor="#ffffff"
     bordercolor="#666666"
     borderopacity="1.0"
     inkscape:showpageshadow="2"
     inkscape:pageopacity="0.0"
     inkscape:pagecheckerboard="true"
     inkscape:deskcolor="#d1d1d1"
     showgrid="false"
     inkscape:zoom="0.65555556"
     inkscape:cx="270.76271"
     inkscape:cy="302.79661"
     inkscape:window-width="1438"
     inkscape:window-height="909"
     inkscape:window-x="2358"
     inkscape:window-y="287"
     inkscape:window-maximized="0"
     inkscape:current-layer="g166" />
  <g
     fill="none"
     fill-rule="evenodd"
     transform="matrix(4.7283508,0,0,4.7283508,1.9437973e-6,22.925403)"
     id="g166">
    <path
       fill="#1c1c1c"
       d="m 1.6593699,64.646465 c -0.028714,-0.688489 -0.043208,-1.380513 -0.043208,-2.075804 0,-13.09093 5.1382603,-25.023254 13.5739411,-34.01979 V 4.8711428 L 20.037301,0 h 67.632463 l 4.847198,4.8711428 V 27.946672 c 8.777068,9.063103 14.149708,21.237818 14.149708,34.623989 0,0.695291 -0.0145,1.387315 -0.0432,2.075804 z"
       id="path134" />
    <rect
       width="108.283"
       height="27.475"
       y="71.111"
       fill="#1c1c1c"
       id="rect136"
       x="0" />
    <rect
       width="61.414001"
       height="16.162001"
       x="22.625999"
       y="6.4650002"
       fill="#c3dc00"
       id="rect138" />
    <ellipse
       cx="54.949001"
       cy="84.848"
       fill="#ffffff"
       rx="8.0810003"
       ry="7.2729998"
       id="ellipse140" />
    <rect
       width="3.2320001"
       height="11.313"
       x="53.333"
       y="79.192001"
       fill="#1c1c1c"
       rx="1"
       id="rect142" />
    <g
       fill="#ffffff"
       transform="translate(17.778,33.94)"
       id="g162">
      <ellipse
         cx="13.304"
         cy="4.3509998"
         rx="4.4349999"
         ry="4.3509998"
         id="ellipse144" />
      <ellipse
         cx="28.677"
         cy="4.3509998"
         rx="4.4349999"
         ry="4.3509998"
         id="ellipse146" />
      <ellipse
         cx="45.233002"
         cy="4.3509998"
         rx="4.4349999"
         ry="4.3509998"
         id="ellipse148" />
      <ellipse
         cx="60.605999"
         cy="4.3509998"
         rx="4.4349999"
         ry="4.3509998"
         id="ellipse150" />
      <ellipse
         cx="68.292999"
         cy="18.275"
         rx="4.4349999"
         ry="4.3509998"
         id="ellipse152" />
      <ellipse
         cx="51.737"
         cy="18.275"
         rx="4.4349999"
         ry="4.3509998"
         id="ellipse154" />
      <ellipse
         cx="36.363998"
         cy="18.275"
         rx="4.4349999"
         ry="4.3509998"
         id="ellipse156" />
      <ellipse
         cx="19.808001"
         cy="18.275"
         rx="4.4349999"
         ry="4.3509998"
         id="ellipse158" />
      <ellipse
         cx="4.4349999"
         cy="18.275"
         rx="4.4349999"
         ry="4.3509998"
         id="ellipse160" />
    </g>
  </g>
</svg>
