<svg xmlns="http://www.w3.org/2000/svg" width="640" height="360" viewBox="0 0 640 360">
  <g fill="none" fill-rule="evenodd" transform="translate(80 130)">
    <path fill="#222" fill-rule="nonzero" d="M144.770277,48.7821813 L144.770277,15.7347859 L132.525253,15.7347859 L132.525253,11.3131313 L161.984296,11.3131313 L161.984296,15.7347859 L149.688568,15.7347859 L149.688568,48.7821813 L144.770277,48.7821813 Z M184.0152,45.4339921 C182.325057,46.8823255 180.698318,47.9046631 179.134937,48.5010356 C177.571554,49.0974082 175.894112,49.39559 174.10256,49.39559 C171.144811,49.39559 168.871602,48.6671745 167.282869,47.2103215 C165.694133,45.7534684 164.899779,43.8919619 164.899779,41.6257461 C164.899779,40.2966872 165.199774,39.0826613 165.799775,37.9836318 C166.399779,36.8846023 167.185681,36.002836 168.157513,35.3383066 C169.129345,34.6737771 170.223696,34.1711278 171.4406,33.8303434 C172.336375,33.5917944 173.688469,33.3617686 175.496921,33.1402587 C179.181434,32.6972391 181.894072,32.1690313 183.634919,31.5556194 C183.651821,30.9251685 183.660272,30.5247528 183.660272,30.3543607 C183.660272,28.4800469 183.229291,27.1595274 182.367318,26.3927627 C181.20112,25.3533703 179.46875,24.8336821 177.170154,24.8336821 C175.023674,24.8336821 173.439189,25.212799 172.416651,25.9710442 C171.394116,26.7292892 170.637787,28.0711074 170.147646,29.996539 L165.685691,29.3831302 C166.091326,27.4576987 166.758922,25.9028936 167.688501,24.718668 C168.618078,23.5344423 169.961723,22.622858 171.719472,21.9838874 C173.47722,21.3449167 175.513812,21.0254363 177.829307,21.0254363 C180.127901,21.0254363 181.995481,21.2980596 183.432103,21.8433146 C184.868724,22.3885695 185.925047,23.0743877 186.601105,23.9007897 C187.277162,24.7271916 187.750395,25.770828 188.020818,27.0317301 C188.172931,27.8155341 188.248986,29.2297678 188.248986,31.2744739 L188.248986,37.4085611 C188.248986,41.6854044 188.346167,44.3903396 188.540535,45.5234474 C188.734901,46.6565553 189.119402,47.7427892 189.694051,48.7821813 L184.927872,48.7821813 C184.454633,47.8279851 184.150411,46.7119333 184.0152,45.4339921 Z M183.634919,35.1593957 C181.978579,35.8409644 179.494106,36.4202891 176.181425,36.8973872 C174.305367,37.1700145 172.978625,37.476716 172.201159,37.8175003 C171.423693,38.1582846 170.823703,38.6566743 170.401167,39.312684 C169.978631,39.9686938 169.767366,40.6971095 169.767366,41.4979526 C169.767366,42.7247762 170.227922,43.7471139 171.149051,44.5649964 C172.070179,45.3828787 173.418048,45.7918138 175.192698,45.7918138 C176.950447,45.7918138 178.513805,45.4041775 179.88282,44.6288931 C181.251837,43.8536087 182.257456,42.7929333 182.899711,41.4468352 C183.389852,40.4074431 183.634919,38.8739365 183.634919,36.8462697 L183.634919,35.1593957 Z M195.271496,48.7821813 L195.271496,21.6388449 L199.378521,21.6388449 L199.378521,25.7537952 C200.42641,23.8283638 201.394002,22.5589611 202.281328,21.9455493 C203.168653,21.3321375 204.144695,21.0254363 205.209485,21.0254363 C206.747515,21.0254363 208.310875,21.5195661 209.899609,22.5078406 L208.327783,26.776143 C207.212289,26.1116136 206.096811,25.7793539 204.981317,25.7793539 C203.984133,25.7793539 203.088372,26.0817954 202.294004,26.6866877 C201.499636,27.2915798 200.933446,28.1307486 200.595418,29.2042193 C200.088377,30.8399842 199.834857,32.6290751 199.834857,34.5715457 L199.834857,48.7821813 L195.271496,48.7821813 Z M211.775659,51.0313467 L216.212262,51.6958728 C216.398177,53.0760493 216.913663,54.081348 217.758735,54.7117991 C218.891131,55.5637598 220.437587,55.989734 222.398153,55.989734 C224.510832,55.989734 226.141796,55.5637598 227.291093,54.7117991 C228.440389,53.8598382 229.217844,52.6671109 229.623478,51.1335814 C229.860099,50.1964246 229.969956,48.2284246 229.953055,45.2295224 C227.958686,47.5979735 225.474213,48.7821813 222.499562,48.7821813 C218.798148,48.7821813 215.9334,47.4361034 213.905228,44.7439072 C211.877055,42.051711 210.862985,38.8228278 210.862985,35.0571609 C210.862985,32.4672 211.327767,30.0774857 212.257346,27.8879463 C213.186925,25.6984071 214.534794,24.0072902 216.300994,22.814545 C218.067192,21.6217999 220.141812,21.0254363 222.524913,21.0254363 C225.702382,21.0254363 228.322064,22.3203973 230.384039,24.9103581 L230.384039,21.6388449 L234.592474,21.6388449 L234.592474,45.101729 C234.592474,49.3274547 234.16572,52.322052 233.312197,54.085611 C232.458675,55.8491699 231.106581,57.2421051 229.255874,58.264458 C227.405167,59.286811 225.127733,59.7979798 222.423505,59.7979798 C219.212234,59.7979798 216.617904,59.0695643 214.640436,57.6127113 C212.662969,56.1558581 211.708052,53.962092 211.775659,51.0313467 Z M215.553109,34.7248979 C215.553109,38.2860942 216.254508,40.8845358 217.657327,42.5203006 C219.060145,44.1560653 220.817867,44.9739355 222.930545,44.9739355 C225.026322,44.9739355 226.784045,44.160325 228.203766,42.5330799 C229.623486,40.9058347 230.333335,38.3542503 230.333335,34.87825 C230.333335,31.5556029 229.60236,29.0508756 228.140385,27.3639931 C226.678411,25.6771106 224.916464,24.8336821 222.854491,24.8336821 C220.826318,24.8336821 219.102398,25.6643315 217.682678,27.3256551 C216.262958,28.9869787 215.553109,31.4533682 215.553109,34.7248979 Z M259.919139,40.0411069 L264.634613,40.6289569 C263.890951,43.4063493 262.513505,45.5617778 260.502235,47.0953073 C258.490966,48.6288368 255.921986,49.39559 252.795223,49.39559 C248.857189,49.39559 245.734697,48.1730445 243.427651,45.7279171 C241.120606,43.2827895 239.967101,39.8536986 239.967101,35.4405414 C239.967101,30.8740314 241.133283,27.3299274 243.465679,24.8081235 C245.798077,22.2863194 248.823387,21.0254363 252.541702,21.0254363 C256.141707,21.0254363 259.082512,22.2607609 261.364204,24.7314473 C263.645897,27.2021337 264.786726,30.6780818 264.786726,35.1593957 C264.786726,35.4320233 264.778276,35.8409582 264.761374,36.3862132 L244.682576,36.3862132 C244.851591,39.3680761 245.688199,41.651297 247.192427,43.2359441 C248.696653,44.8205912 250.572684,45.6129029 252.820574,45.6129029 C254.493815,45.6129029 255.921965,45.1698899 257.105065,44.2838507 C258.288165,43.3978114 259.22618,41.9835775 259.919139,40.0411069 Z M244.936097,32.603526 L259.969842,32.603526 C259.767025,30.320271 259.192386,28.6078554 258.245905,27.4662279 C256.792383,25.6941493 254.907901,24.8081235 252.592406,24.8081235 C250.496629,24.8081235 248.734681,25.5152402 247.30651,26.9294953 C245.87834,28.3437503 245.08821,30.2350749 244.936097,32.603526 Z M280.327512,44.667231 L280.986665,48.7310639 C279.702156,49.0036915 278.552876,49.1400031 277.538791,49.1400031 C275.88245,49.1400031 274.597962,48.8758992 273.685285,48.3476836 C272.772608,47.8194678 272.130363,47.12513 271.758531,46.2646497 C271.386699,45.4041692 271.200787,43.5937796 271.200787,40.8334266 L271.200787,25.2170626 L267.854321,25.2170626 L267.854321,21.6388449 L271.200787,21.6388449 L271.200787,14.9169076 L275.738798,12.1565683 L275.738798,21.6388449 L280.327512,21.6388449 L280.327512,25.2170626 L275.738798,25.2170626 L275.738798,41.0890135 C275.738798,42.4010332 275.819079,43.2444617 275.979641,43.6193244 C276.140205,43.9941873 276.402174,44.2923691 276.765555,44.5138789 C277.128936,44.7353888 277.648646,44.8461419 278.324703,44.8461419 C278.831746,44.8461419 279.499342,44.7865055 280.327512,44.667231 Z M285.372564,48.7821813 L285.372564,11.3131313 L299.392229,11.3131313 C301.859838,11.3131313 303.74432,11.432404 305.045729,11.6709531 C306.871084,11.977659 308.40064,12.5612434 309.634445,13.4217238 C310.868249,14.2822043 311.861193,15.4877108 312.613306,17.0382794 C313.365421,18.5888482 313.741471,20.2927442 313.741471,22.1500189 C313.741471,25.3363525 312.735851,28.032768 310.724582,30.2393466 C308.713311,32.4459252 305.079559,33.5491979 299.823215,33.5491979 L290.290856,33.5491979 L290.290856,48.7821813 L285.372564,48.7821813 Z M290.290856,29.1275433 L299.899269,29.1275433 C303.076739,29.1275433 305.333046,28.5311796 306.668259,27.3384344 C308.003472,26.1456892 308.671067,24.4673516 308.671067,22.3033712 C308.671067,20.7357632 308.278116,19.3939451 307.492199,18.2778764 C306.706282,17.1618077 305.671085,16.4248726 304.386578,16.067049 C303.558406,15.8455392 302.02885,15.7347859 299.797862,15.7347859 L290.290856,15.7347859 L290.290856,29.1275433 Z M336.98927,45.4339921 C335.299129,46.8823255 333.672389,47.9046631 332.109008,48.5010356 C330.545626,49.0974082 328.868184,49.39559 327.076632,49.39559 C324.118882,49.39559 321.845674,48.6671745 320.256939,47.2103215 C318.668205,45.7534684 317.873851,43.8919619 317.873851,41.6257461 C317.873851,40.2966872 318.173846,39.0826613 318.773847,37.9836318 C319.373851,36.8846023 320.159753,36.002836 321.131585,35.3383066 C322.103417,34.6737771 323.197768,34.1711278 324.41467,33.8303434 C325.310447,33.5917944 326.662541,33.3617686 328.470993,33.1402587 C332.155505,32.6972391 334.868144,32.1690313 336.608991,31.5556194 C336.625893,30.9251685 336.634343,30.5247528 336.634343,30.3543607 C336.634343,28.4800469 336.203363,27.1595274 335.34139,26.3927627 C334.175192,25.3533703 332.44282,24.8336821 330.144226,24.8336821 C327.997745,24.8336821 326.413259,25.212799 325.390723,25.9710442 C324.368187,26.7292892 323.611859,28.0711074 323.121718,29.996539 L318.659762,29.3831302 C319.065396,27.4576987 319.732994,25.9028936 320.662571,24.718668 C321.59215,23.5344423 322.935795,22.622858 324.693543,21.9838874 C326.451292,21.3449167 328.487884,21.0254363 330.803379,21.0254363 C333.101973,21.0254363 334.969553,21.2980596 336.406175,21.8433146 C337.842796,22.3885695 338.899119,23.0743877 339.575177,23.9007897 C340.251234,24.7271916 340.724467,25.770828 340.99489,27.0317301 C341.147003,27.8155341 341.223058,29.2297678 341.223058,31.2744739 L341.223058,37.4085611 C341.223058,41.6854044 341.320239,44.3903396 341.514607,45.5234474 C341.708973,46.6565553 342.093474,47.7427892 342.668123,48.7821813 L337.901944,48.7821813 C337.428703,47.8279851 337.124483,46.7119333 336.98927,45.4339921 Z M336.608991,35.1593957 C334.952651,35.8409644 332.468178,36.4202891 329.155497,36.8973872 C327.279439,37.1700145 325.952697,37.476716 325.175231,37.8175003 C324.397765,38.1582846 323.797773,38.6566743 323.375237,39.312684 C322.952701,39.9686938 322.741437,40.6971095 322.741437,41.4979526 C322.741437,42.7247762 323.201994,43.7471139 324.123122,44.5649964 C325.044251,45.3828787 326.39212,45.7918138 328.166768,45.7918138 C329.924517,45.7918138 331.487877,45.4041775 332.856892,44.6288931 C334.225909,43.8536087 335.231528,42.7929333 335.873783,41.4468352 C336.363924,40.4074431 336.608991,38.8739365 336.608991,36.8462697 L336.608991,35.1593957 Z M348.093455,59.2356884 L347.586415,54.9162686 C348.583599,55.1888962 349.454009,55.3252078 350.197673,55.3252078 C351.211758,55.3252078 352.023014,55.1548183 352.631465,54.8140338 C353.239918,54.4732495 353.738502,53.9961585 354.127234,53.3827468 C354.414558,52.922688 354.879341,51.7810777 355.521595,49.9578814 C355.606103,49.7022932 355.741312,49.327436 355.927227,48.8332987 L345.710364,21.6388449 L350.628656,21.6388449 L356.231452,37.3574437 C356.958214,39.3510321 357.608908,41.4468242 358.183557,43.6448832 C358.707502,41.5320204 359.332845,39.4703061 360.059607,37.4596785 L365.814515,21.6388449 L370.377878,21.6388449 L360.135662,49.2422379 C359.03707,52.2241008 358.18356,54.2772955 357.575109,55.401884 C356.76384,56.9183741 355.834276,58.0301663 354.786387,58.7372939 C353.738499,59.4444213 352.487811,59.7979798 351.034288,59.7979798 C350.155415,59.7979798 349.175147,59.6105513 348.093455,59.2356884 Z M375.549689,48.7821813 L375.549689,43.5426484 L380.746853,43.5426484 L380.746853,48.7821813 L375.549689,48.7821813 Z M406.250982,38.8398481 L410.738288,39.4276981 C410.248147,42.5458747 408.993235,44.9867059 406.973514,46.7502649 C404.953794,48.5138238 402.473547,49.39559 399.532698,49.39559 C395.848186,49.39559 392.886255,48.1815641 390.646815,45.7534757 C388.407376,43.3253873 387.287674,39.8451795 387.287674,35.312748 C387.287674,32.3820027 387.769356,29.8176391 388.732739,27.6195801 C389.69612,25.4215211 391.162297,23.7730017 393.131313,22.6739722 C395.10033,21.5749427 397.242554,21.0254363 399.558049,21.0254363 C402.481996,21.0254363 404.873513,21.7708908 406.732671,23.2618222 C408.591827,24.7527536 409.78336,26.8698445 410.307305,29.6131585 L405.870702,30.3032433 C405.448166,28.4800472 404.700289,27.1084108 403.627048,26.188293 C402.553807,25.2681754 401.256642,24.8081235 399.735514,24.8081235 C397.43692,24.8081235 395.56934,25.6387727 394.132718,27.3000963 C392.696097,28.96142 391.977796,31.5896797 391.977796,35.1849545 C391.977796,38.8313467 392.670744,41.4809052 394.056661,43.1337093 C395.442579,44.7865133 397.251004,45.6129029 399.481993,45.6129029 C401.273545,45.6129029 402.769299,45.0591366 403.969301,43.9515876 C405.169303,42.8440385 405.929855,41.1401424 406.250982,38.8398481 Z M412.943914,35.2105131 C412.943914,30.1839442 414.329812,26.4609312 417.101645,24.0413624 C419.417141,22.0307349 422.239638,21.0254363 425.569219,21.0254363 C429.270633,21.0254363 432.295942,22.2479817 434.645241,24.6931093 C436.994541,27.1382369 438.169172,30.5162109 438.169172,34.8271328 C438.169172,38.3201721 437.649461,41.0677046 436.610022,43.0698125 C435.570584,45.0719205 434.05793,46.6267257 432.072011,47.7342747 C430.086093,48.8418238 427.918518,49.39559 425.569219,49.39559 C421.8002,49.39559 418.753763,48.1773044 416.429817,45.7406964 C414.10587,43.3040884 412.943914,39.7940624 412.943914,35.2105131 Z M417.634038,35.2105131 C417.634038,38.6865133 418.38614,41.2892147 419.890368,43.0186951 C421.394594,44.7481757 423.287526,45.6129029 425.569219,45.6129029 C427.834011,45.6129029 429.718492,44.7439158 431.222718,43.0059158 C432.726946,41.2679156 433.479048,38.6183572 433.479048,35.0571609 C433.479048,31.7004352 432.722722,29.1573703 431.210043,27.4278899 C429.697366,25.6984094 427.817109,24.8336821 425.569219,24.8336821 C423.287526,24.8336821 421.394594,25.6941497 419.890368,27.4151105 C418.38614,29.1360714 417.634038,31.734513 417.634038,35.2105131 Z M443.518447,48.7821813 L443.518447,21.6388449 L447.600123,21.6388449 L447.600123,25.4470909 C448.445193,24.118032 449.569122,23.0488372 450.97194,22.2394743 C452.374759,21.4301115 453.971921,21.0254363 455.763472,21.0254363 C457.757841,21.0254363 459.393029,21.4428908 460.669088,22.2778124 C461.945144,23.1127341 462.845133,24.2799029 463.369076,25.7793539 C465.498657,22.6100596 468.27045,21.0254363 471.684538,21.0254363 C474.354964,21.0254363 476.408457,21.7708908 477.845078,23.2618222 C479.2817,24.7527536 480,27.0487536 480,30.1498911 L480,48.7821813 L475.461989,48.7821813 L475.461989,31.683413 C475.461989,29.8431775 475.314104,28.5183984 475.018329,27.7090355 C474.722554,26.8996727 474.185941,26.2479324 473.408475,25.7537952 C472.631009,25.2596579 471.718347,25.012593 470.670458,25.012593 C468.777498,25.012593 467.205689,25.6472942 465.954982,26.916716 C464.704276,28.1861375 464.078933,30.2180336 464.078933,33.0124651 L464.078933,48.7821813 L459.51557,48.7821813 L459.51557,31.1466802 C459.51557,29.1019743 459.143745,27.5684679 458.400081,26.5461147 C457.656419,25.5237618 456.439535,25.012593 454.749392,25.012593 C453.464882,25.012593 452.277574,25.3533723 451.187433,26.0349409 C450.09729,26.7165096 449.30716,27.7132887 448.817018,29.0253084 C448.326877,30.3373282 448.08181,32.2286528 448.08181,34.6993392 L448.08181,48.7821813 L443.518447,48.7821813 Z"/>
    <path fill="#1C1C1C" d="M1.65936991,64.6464646 C1.63065632,63.9579759 1.61616162,63.2659525 1.61616162,62.5706607 C1.61616162,49.4797314 6.75442193,37.5474072 15.1901033,28.5508711 L15.1901033,4.8711428 L20.0373008,0 L87.6697645,0 L92.5169621,4.8711428 L92.5169621,27.946672 C101.294025,37.0097747 106.666667,49.1844902 106.666667,62.5706607 C106.666667,63.2659525 106.652172,63.9579759 106.623458,64.6464646 L1.65936991,64.6464646 L1.65936991,64.6464646 Z"/>
    <rect width="108.283" height="27.475" y="71.111" fill="#1C1C1C"/>
    <rect width="61.414" height="16.162" x="22.626" y="6.465" fill="#C3DC00"/>
    <ellipse cx="54.949" cy="84.848" fill="#FFF" rx="8.081" ry="7.273"/>
    <rect width="3.232" height="11.313" x="53.333" y="79.192" fill="#1C1C1C" rx="1"/>
    <g fill="#FFF" transform="translate(17.778 33.94)">
      <ellipse cx="13.304" cy="4.351" rx="4.435" ry="4.351"/>
      <ellipse cx="28.677" cy="4.351" rx="4.435" ry="4.351"/>
      <ellipse cx="45.233" cy="4.351" rx="4.435" ry="4.351"/>
      <ellipse cx="60.606" cy="4.351" rx="4.435" ry="4.351"/>
      <ellipse cx="68.293" cy="18.275" rx="4.435" ry="4.351"/>
      <ellipse cx="51.737" cy="18.275" rx="4.435" ry="4.351"/>
      <ellipse cx="36.364" cy="18.275" rx="4.435" ry="4.351"/>
      <ellipse cx="19.808" cy="18.275" rx="4.435" ry="4.351"/>
      <ellipse cx="4.435" cy="18.275" rx="4.435" ry="4.351"/>
    </g>
    <path fill="#919191" fill-rule="nonzero" d="M137.373737,84.988911 C137.373737,83.230913 137.644709,81.7554725 138.186662,80.5625453 C138.591104,79.6835463 139.143159,78.8948136 139.842844,78.1963232 C140.542529,77.4978331 141.308936,76.9798592 142.142087,76.6423864 C143.250258,76.1871905 144.528276,75.959596 145.976179,75.959596 C148.596964,75.959596 150.693966,76.7483287 152.267246,78.325818 C153.840526,79.9033073 154.627154,82.0968477 154.627154,84.9065052 C154.627154,87.692618 153.846592,89.8724244 152.285445,91.4459895 C150.724299,93.0195547 148.637408,93.8063255 146.024712,93.8063255 C143.37966,93.8063255 141.276592,93.0234788 139.715446,91.4577618 C138.154299,89.8920449 137.373737,87.7357828 137.373737,84.988911 Z M141.074365,84.8711885 C141.074365,86.8253915 141.539466,88.3067181 142.469683,89.3152124 C143.3999,90.3237068 144.580853,90.8279465 146.012579,90.8279465 C147.444304,90.8279465 148.619191,90.3276309 149.537275,89.3269847 C150.455358,88.3263386 150.914393,86.8253918 150.914393,84.8240996 C150.914393,82.8463517 150.467491,81.3709114 149.573674,80.3977338 C148.679857,79.4245564 147.492837,78.9379749 146.012579,78.9379749 C144.53232,78.9379749 143.339234,79.4304425 142.433284,80.4153922 C141.527333,81.400342 141.074365,82.8855926 141.074365,84.8711885 Z M169.126332,93.5120192 L165.716902,93.5120192 L165.716902,87.1314604 C165.716902,85.781569 165.644103,84.9084692 165.498505,84.5121349 C165.352905,84.1158006 165.11631,83.8077631 164.788713,83.5880133 C164.461114,83.3682636 164.066789,83.2583903 163.605724,83.2583903 C163.015239,83.2583903 162.485429,83.4153521 162.016275,83.7292803 C161.547122,84.0432086 161.225596,84.4591572 161.051685,84.9771387 C160.877775,85.4951203 160.790821,86.452587 160.790821,87.8495675 L160.790821,93.5120192 L157.381391,93.5120192 L157.381391,81.0098907 L160.548157,81.0098907 L160.548157,82.8463617 C161.672507,81.4336847 163.088032,80.7273568 164.794778,80.7273568 C165.547042,80.7273568 166.234583,80.8588123 166.857424,81.1217272 C167.480265,81.3846421 167.951433,81.7201477 168.270941,82.1282544 C168.590452,82.5363611 168.812891,82.9993983 168.938267,83.5173799 C169.063646,84.0353615 169.126332,84.7770056 169.126332,85.7423349 L169.126332,93.5120192 Z M172.584296,93.5120192 L172.584296,76.2539022 L175.993726,76.2539022 L175.993726,93.5120192 L172.584296,93.5120192 Z M179.488089,79.3146869 L179.488089,76.2539022 L182.897519,76.2539022 L182.897519,79.3146869 L179.488089,79.3146869 Z M179.488089,93.5120192 L179.488089,81.0098907 L182.897519,81.0098907 L182.897519,93.5120192 L179.488089,93.5120192 Z M198.112558,93.5120192 L194.703127,93.5120192 L194.703127,87.1314604 C194.703127,85.781569 194.630329,84.9084692 194.484731,84.5121349 C194.339131,84.1158006 194.102536,83.8077631 193.774937,83.5880133 C193.447339,83.3682636 193.053013,83.2583903 192.59195,83.2583903 C192.001464,83.2583903 191.471653,83.4153521 191.0025,83.7292803 C190.533348,84.0432086 190.211821,84.4591572 190.03791,84.9771387 C189.864,85.4951203 189.777047,86.452587 189.777047,87.8495675 L189.777047,93.5120192 L186.367615,93.5120192 L186.367615,81.0098907 L189.534382,81.0098907 L189.534382,82.8463617 C190.658731,81.4336847 192.074258,80.7273568 193.781004,80.7273568 C194.533267,80.7273568 195.220808,80.8588123 195.843649,81.1217272 C196.466489,81.3846421 196.937658,81.7201477 197.257167,82.1282544 C197.576676,82.5363611 197.799116,82.9993983 197.924493,83.5173799 C198.04987,84.0353615 198.112558,84.7770056 198.112558,85.7423349 L198.112558,93.5120192 Z M209.032441,89.5329991 L212.429739,90.0862948 C211.992941,91.2949185 211.303378,92.2151066 210.361028,92.8468871 C209.418678,93.4786676 208.239746,93.7945532 206.824199,93.7945532 C204.583589,93.7945532 202.925401,93.0843013 201.849585,91.6637762 C201.000257,90.5257863 200.575598,89.0895864 200.575598,87.3551331 C200.575598,85.2832068 201.13372,83.6606148 202.24998,82.4873081 C203.366242,81.3140013 204.777723,80.7273568 206.484469,80.7273568 C208.401524,80.7273568 209.914116,81.3414697 211.022287,82.5697138 C212.130458,83.797958 212.66027,85.679537 212.611737,88.2145072 L204.06996,88.2145072 C204.094227,89.1955329 204.369244,89.9587594 204.895019,90.5042096 C205.420794,91.04966 206.075981,91.3223809 206.860598,91.3223809 C207.394461,91.3223809 207.843386,91.1811153 208.207384,90.89858 C208.571381,90.6160446 208.846398,90.1608554 209.032441,89.5329991 Z M209.226573,86.1896803 C209.202306,85.2321993 208.947512,84.5042891 208.462182,84.0059282 C207.97685,83.5075672 207.386374,83.2583903 206.690733,83.2583903 C205.94656,83.2583903 205.331817,83.5213013 204.846486,84.047131 C204.361156,84.5729608 204.122539,85.2871368 204.130628,86.1896803 L209.226573,86.1896803 Z M222.330434,76.2539022 L229.440491,76.2539022 C230.84795,76.2539022 231.897461,76.3108008 232.589057,76.4245998 C233.280655,76.5383987 233.899441,76.7758035 234.445438,77.1368208 C234.991434,77.4978384 235.446426,77.9785337 235.810423,78.5789214 C236.174421,79.1793091 236.356417,79.8522825 236.356417,80.5978621 C236.356417,81.4062272 236.131955,82.1478715 235.683025,82.8228171 C235.234095,83.4977627 234.625417,84.0039644 233.856978,84.3414373 C234.940882,84.6475173 235.77402,85.1694151 236.356417,85.9071463 C236.938814,86.6448777 237.230009,87.5120913 237.230009,88.5088134 C237.230009,89.2936339 237.041946,90.0568604 236.665815,90.7985159 C236.289682,91.5401713 235.776048,92.1327019 235.124897,92.5761254 C234.473745,93.0195491 233.67094,93.2922701 232.716456,93.3942967 C232.117881,93.4570823 230.674044,93.4963229 228.384902,93.5120192 L222.330434,93.5120192 L222.330434,76.2539022 Z M225.921862,79.126331 L225.921862,83.1171234 L228.275704,83.1171234 C229.675074,83.1171234 230.544611,83.0975032 230.884343,83.0582621 C231.499095,82.9876283 231.982395,82.781616 232.334261,82.440219 C232.686125,82.0988221 232.862054,81.649519 232.862054,81.0922966 C232.862054,80.5586185 232.710392,80.1250117 232.407059,79.7914629 C232.103728,79.4579143 231.652782,79.2558261 231.054208,79.1851922 C230.698298,79.1459512 229.675076,79.126331 227.984506,79.126331 L225.921862,79.126331 Z M225.921862,85.9895522 L225.921862,90.6042738 L229.24636,90.6042738 C230.540575,90.6042738 231.361581,90.5689574 231.7094,90.4983236 C232.243265,90.404145 232.678033,90.1745884 233.01372,89.8096469 C233.349406,89.4447055 233.517248,88.9561619 233.517248,88.3440019 C233.517248,87.8260204 233.387829,87.3865275 233.128986,87.02551 C232.870143,86.6644926 232.496039,86.4015817 232.006663,86.2367693 C231.517288,86.071957 230.455644,85.9895522 228.821697,85.9895522 L225.921862,85.9895522 Z M247.700963,89.5329991 L251.098261,90.0862948 C250.661463,91.2949185 249.9719,92.2151066 249.02955,92.8468871 C248.087198,93.4786676 246.908268,93.7945532 245.492721,93.7945532 C243.252112,93.7945532 241.593923,93.0843013 240.518106,91.6637762 C239.668777,90.5257863 239.24412,89.0895864 239.24412,87.3551331 C239.24412,85.2832068 239.802242,83.6606148 240.918502,82.4873081 C242.034762,81.3140013 243.446245,80.7273568 245.152991,80.7273568 C247.070046,80.7273568 248.582638,81.3414697 249.690809,82.5697138 C250.79898,83.797958 251.328792,85.679537 251.280259,88.2145072 L242.738482,88.2145072 C242.762749,89.1955329 243.037766,89.9587594 243.563541,90.5042096 C244.089316,91.04966 244.744503,91.3223809 245.52912,91.3223809 C246.062983,91.3223809 246.511908,91.1811153 246.875906,90.89858 C247.239903,90.6160446 247.51492,90.1608554 247.700963,89.5329991 Z M247.895095,86.1896803 C247.870828,85.2321993 247.616034,84.5042891 247.130702,84.0059282 C246.645372,83.5075672 246.054896,83.2583903 245.359255,83.2583903 C244.615082,83.2583903 244.000339,83.5213013 243.515008,84.047131 C243.029678,84.5729608 242.791059,85.2871368 242.799148,86.1896803 L247.895095,86.1896803 Z M259.967633,81.0098907 L259.967633,83.6468745 L257.638057,83.6468745 L257.638057,88.6853972 C257.638057,89.7056638 257.660302,90.3001564 257.70479,90.4688929 C257.749278,90.6376293 257.850389,90.7769328 258.008121,90.8868078 C258.165854,90.9966827 258.35796,91.0516192 258.584448,91.0516192 C258.899913,91.0516192 259.356926,90.94567 259.955501,90.7337686 L260.246697,93.3001188 C259.453989,93.6297434 258.556142,93.7945532 257.553125,93.7945532 C256.938373,93.7945532 256.384296,93.6944902 255.890877,93.4943609 C255.397456,93.2942316 255.035486,93.0352448 254.804955,92.7173925 C254.574423,92.3995402 254.41467,91.9698573 254.325694,91.4283312 C254.252894,91.0437691 254.216495,90.2668084 254.216495,89.0974259 L254.216495,83.6468745 L252.651312,83.6468745 L252.651312,81.0098907 L254.216495,81.0098907 L254.216495,78.5259462 L257.638057,76.5952975 L257.638057,81.0098907 L259.967633,81.0098907 Z M264.881581,84.8240996 L261.787614,84.282576 C262.135434,83.0739525 262.733999,82.1792705 263.583328,81.5985033 C264.432656,81.0177361 265.694497,80.7273568 267.368887,80.7273568 C268.88959,80.7273568 270.022011,80.9019767 270.766185,81.2512218 C271.510358,81.6004671 272.034103,82.043884 272.337435,82.5814861 C272.640766,83.1190882 272.79243,84.1059851 272.79243,85.5422067 L272.756031,89.4035043 C272.756031,90.5022531 272.810629,91.3125681 272.919829,91.8344737 C273.029028,92.3563795 273.233269,92.9155557 273.532556,93.5120192 L270.159525,93.5120192 C270.070547,93.2922696 269.961349,92.9665739 269.831927,92.5349227 C269.775307,92.3387174 269.734862,92.2092241 269.710596,92.1464383 C269.128199,92.6958127 268.505367,93.1078373 267.842083,93.3825244 C267.178798,93.6572116 266.471034,93.7945532 265.718772,93.7945532 C264.392202,93.7945532 263.346735,93.4453133 262.582339,92.7468231 C261.817943,92.0483328 261.435751,91.165423 261.435751,90.0980671 C261.435751,89.3917285 261.609658,88.7619195 261.957479,88.2086211 C262.305299,87.6553227 262.792645,87.2315258 263.41953,86.9372181 C264.046415,86.6429105 264.950329,86.3858856 266.1313,86.1661359 C267.724803,85.8757522 268.828913,85.6049933 269.443665,85.3538507 L269.443665,85.0242277 C269.443665,84.3885232 269.281891,83.935296 268.958337,83.664533 C268.634783,83.3937699 268.024086,83.2583903 267.126224,83.2583903 C266.51956,83.2583903 266.046369,83.3741497 265.706639,83.6056718 C265.366907,83.8371937 265.09189,84.2433324 264.881581,84.8240996 Z M269.443665,87.5081723 C269.006869,87.64944 268.315282,87.8181739 267.368887,88.014379 C266.422494,88.2105841 265.803706,88.4028622 265.512507,88.5912192 C265.06762,88.8972992 264.845181,89.2857796 264.845181,89.7566718 C264.845181,90.2197159 265.023134,90.6199683 265.379042,90.9574413 C265.734951,91.2949141 266.187919,91.463648 266.73796,91.463648 C267.352713,91.463648 267.939145,91.2674457 268.497275,90.8750355 C268.909807,90.5768037 269.180779,90.2118676 269.3102,89.7802162 C269.399177,89.497681 269.443665,88.9600869 269.443665,88.1674182 L269.443665,87.5081723 Z M276.153327,93.5120192 L276.153327,76.2539022 L279.562757,76.2539022 L279.562757,93.5120192 L276.153327,93.5120192 Z M283.05712,79.3146869 L283.05712,76.2539022 L286.46655,76.2539022 L286.46655,79.3146869 L283.05712,79.3146869 Z M283.05712,93.5120192 L283.05712,81.0098907 L286.46655,81.0098907 L286.46655,93.5120192 L283.05712,93.5120192 Z M301.681589,93.5120192 L298.272158,93.5120192 L298.272158,87.1314604 C298.272158,85.781569 298.19936,84.9084692 298.053762,84.5121349 C297.908162,84.1158006 297.671567,83.8077631 297.343969,83.5880133 C297.01637,83.3682636 296.622046,83.2583903 296.160981,83.2583903 C295.570495,83.2583903 295.040684,83.4153521 294.571531,83.7292803 C294.102379,84.0432086 293.780852,84.4591572 293.606941,84.9771387 C293.433031,85.4951203 293.346078,86.452587 293.346078,87.8495675 L293.346078,93.5120192 L289.936648,93.5120192 L289.936648,81.0098907 L293.103413,81.0098907 L293.103413,82.8463617 C294.227762,81.4336847 295.643289,80.7273568 297.350035,80.7273568 C298.102298,80.7273568 298.789839,80.8588123 299.41268,81.1217272 C300.035522,81.3846421 300.506689,81.7201477 300.826198,82.1282544 C301.145708,82.5363611 301.368147,82.9993983 301.493524,83.5173799 C301.618901,84.0353615 301.681589,84.7770056 301.681589,85.7423349 L301.681589,93.5120192 Z M304.824089,94.3360768 L308.718848,94.7951943 C308.783559,95.2346938 308.933199,95.5368453 309.167777,95.7016575 C309.491329,95.9371037 310.00092,96.0548251 310.696559,96.0548251 C311.586332,96.0548251 312.253652,95.9253316 312.698539,95.6663408 C312.997826,95.4936803 313.22431,95.2150731 313.377998,94.8305112 C313.483153,94.555824 313.53573,94.0496223 313.53573,93.3118911 L313.53573,91.4871924 C312.516535,92.8370838 311.230429,93.5120192 309.677371,93.5120192 C307.946358,93.5120192 306.57532,92.8017673 305.564215,91.3812422 C304.771509,90.2589488 304.375161,88.8619892 304.375161,87.1903215 C304.375161,85.0948507 304.894861,83.4938408 305.934277,82.387244 C306.973694,81.2806469 308.265867,80.7273568 309.810836,80.7273568 C311.404338,80.7273568 312.718756,81.4062164 313.754127,82.7639559 L313.754127,81.0098907 L316.94516,81.0098907 L316.94516,92.2288441 C316.94516,93.7043067 316.819785,94.8069631 316.569031,95.5368461 C316.318277,96.2667292 315.966418,96.8396396 315.513442,97.2555945 C315.060467,97.6715493 314.455835,97.9972449 313.699528,98.2326911 C312.943221,98.4681372 311.98673,98.5858586 310.830025,98.5858586 C308.646038,98.5858586 307.097047,98.2228845 306.183008,97.4969256 C305.268968,96.7709666 304.811956,95.8507783 304.811956,94.7363331 C304.811956,94.6264583 304.816,94.4930408 304.824089,94.3360768 Z M307.869524,87.0019656 C307.869524,88.3283122 308.134429,89.2995131 308.664249,89.9155973 C309.194067,90.5316813 309.847232,90.8397188 310.623761,90.8397188 C311.456912,90.8397188 312.16063,90.5238332 312.734938,89.8920527 C313.309246,89.2602722 313.596396,88.3243877 313.596396,87.0843712 C313.596396,85.7894174 313.321379,84.8280267 312.771337,84.2001703 C312.221296,83.5723139 311.525666,83.2583903 310.684427,83.2583903 C309.867454,83.2583903 309.194067,83.5664278 308.664249,84.1825118 C308.134429,84.798596 307.869524,85.7384045 307.869524,87.0019656 Z M327.780112,89.5329991 L331.177409,90.0862948 C330.740611,91.2949185 330.051048,92.2151066 329.108698,92.8468871 C328.166347,93.4786676 326.987417,93.7945532 325.571869,93.7945532 C323.331258,93.7945532 321.673072,93.0843013 320.597254,91.6637762 C319.747926,90.5257863 319.323268,89.0895864 319.323268,87.3551331 C319.323268,85.2832068 319.88139,83.6606148 320.99765,82.4873081 C322.11391,81.3140013 323.525393,80.7273568 325.232139,80.7273568 C327.149194,80.7273568 328.661786,81.3414697 329.769957,82.5697138 C330.878128,83.797958 331.40794,85.679537 331.359407,88.2145072 L322.817631,88.2145072 C322.841897,89.1955329 323.116915,89.9587594 323.642689,90.5042096 C324.168464,91.04966 324.823651,91.3223809 325.608268,91.3223809 C326.142132,91.3223809 326.591056,91.1811153 326.955053,90.89858 C327.319051,90.6160446 327.594069,90.1608554 327.780112,89.5329991 Z M327.974243,86.1896803 C327.949977,85.2321993 327.695182,84.5042891 327.209851,84.0059282 C326.72452,83.5075672 326.134044,83.2583903 325.438403,83.2583903 C324.69423,83.2583903 324.079486,83.5213013 323.594156,84.047131 C323.108826,84.5729608 322.870208,85.2871368 322.878297,86.1896803 L327.974243,86.1896803 Z M345.858586,93.5120192 L342.449156,93.5120192 L342.449156,87.1314604 C342.449156,85.781569 342.376357,84.9084692 342.230757,84.5121349 C342.085159,84.1158006 341.848564,83.8077631 341.520965,83.5880133 C341.193367,83.3682636 340.799042,83.2583903 340.337978,83.2583903 C339.747493,83.2583903 339.217681,83.4153521 338.748528,83.7292803 C338.279375,84.0432086 337.957849,84.4591572 337.783939,84.9771387 C337.610028,85.4951203 337.523074,86.452587 337.523074,87.8495675 L337.523074,93.5120192 L334.113644,93.5120192 L334.113644,81.0098907 L337.280411,81.0098907 L337.280411,82.8463617 C338.40476,81.4336847 339.820286,80.7273568 341.527032,80.7273568 C342.279294,80.7273568 342.966836,80.8588123 343.589676,81.1217272 C344.212517,81.3846421 344.683685,81.7201477 345.003195,82.1282544 C345.322704,82.5363611 345.545144,82.9993983 345.670521,83.5173799 C345.795898,84.0353615 345.858586,84.7770056 345.858586,85.7423349 L345.858586,93.5120192 Z"/>
  </g>
</svg>
