<svg xmlns="http://www.w3.org/2000/svg" width="51" height="32"><g fill="none" fill-rule="evenodd"><path fill="#FFF" stroke="#D0D0D0" d="M.5.5h50v31H.5z"/><path fill="#EE7F00" fill-rule="nonzero" d="M20.583 13.067c-.438 0-.862.1-1.26.287-.57.269-1.086.717-1.508 1.312A5.688 5.688 0 0017.123 16c-.346.945-.342 1.712.012 2.217.2.285.618.626 1.466.627h.003c1.544 0 2.697-1.009 3.428-3 .193-.526.447-1.509-.018-2.172-.281-.401-.762-.605-1.43-.605zm9.32 0c-.437 0-.862.1-1.26.287-.57.269-1.086.717-1.507 1.312A5.676 5.676 0 0026.444 16c-.347.945-.342 1.712.012 2.217.2.285.617.626 1.465.627h.003c1.545 0 2.698-1.009 3.428-3 .193-.526.447-1.509-.018-2.172-.28-.401-.761-.605-1.43-.605zm-14.28.08c-.509 0-1.003 0-1.445.223-.442.224-.833.672-1.134 1.568-.065.192-.1.358-.104.502a.75.75 0 00.076.374c.068.13.177.253.314.356.138.104.302.188.479.241l.212.06.327.097a.663.663 0 01.15.063.302.302 0 01.12.12.266.266 0 01.03.116.376.376 0 01-.023.135.366.366 0 01-.223.248c-.119.048-.294.063-.56.065h-3.318L10 18.75h3.551c.334 0 .945 0 1.532-.249.587-.248 1.15-.745 1.389-1.74.09-.373.062-.678-.085-.917-.147-.239-.414-.412-.802-.523l-.189-.055-.28-.08a.375.375 0 01-.22-.158.311.311 0 01-.033-.252.368.368 0 01.184-.22.748.748 0 01.36-.08h2.064c.014-.02.027-.044.042-.064a4.552 4.552 0 011.333-1.266h-3.223zm9.278 0c-.919 0-1.603.463-1.926 1.33l-1.56 4.274h1.71l.801-2.197 1.511.001.43-1.177h-1.506l.243-.682a.36.36 0 01.348-.22l1.781.001c.015-.02.028-.044.043-.064.377-.532.91-.962 1.41-1.266h-3.285zm7.93.003l-2.047 5.605h1.739l.744-1.973c.036.081.475 1.973.475 1.973h1.829s-.333-1.39-.577-1.952c-.063-.144-.129-.306-.217-.441.517-.191 1.265-.602 1.575-1.434.19-.512.18-.925-.032-1.228-.257-.369-.778-.55-1.596-.55h-1.893zm3.567 0c.11.087.205.186.284.299.202.29.28.636.233 1.032h1.036l-1.56 4.275h1.558l1.562-4.275h2.003L42 13.15h-5.602zm-2.421 1.157h.287c.525 0 .72.153.543.63-.167.449-.467.726-1.037.726h-.298l.505-1.356zm-13.804.028c.534 0 .657.31.188 1.588-.482 1.315-.832 1.646-1.358 1.646h-.001c-.513 0-.693-.324-.213-1.633.358-.977.822-1.601 1.384-1.601zm9.32 0c.534 0 .657.31.188 1.588-.482 1.315-.832 1.646-1.358 1.646h-.001c-.513 0-.692-.324-.213-1.633.358-.977.823-1.601 1.384-1.601z"/></g></svg>