<svg xmlns="http://www.w3.org/2000/svg" width="32" height="24" fill="none" viewBox="0 0 32 24"><rect width="32" height="24" fill="#21262e" rx="4"/><path fill="#fff" d="M15.592 7.42c-.21 1.404-.377 2.587-.678 4.429.814-.017 2.662.292 3.069-2.225.337-2.095-1.164-2.288-2.392-2.205"/><path fill="#fff" d="M22.643 17.547c.317.673-.002 1.523-.663 1.865-.38.197-.812.38-1.246.482a11 11 0 0 1-2.178.27c-1.173 0-2.35-.64-2.857-1.421-.13.27-.604.81-1.433 1.065-.524.16-1.155.356-2.474.355-1.18-.001-1.854-.512-2.21-.94-.567-.682-.65-1.548-.54-2.131l.006-.028c.445-2.134 1.055-6.012 1.336-7.955l.002-.02c.078-.538.155-1.077.202-1.62q.035-.41.041-.822c.003-.26-.022-.518-.02-.778a1.5 1.5 0 0 1 .165-.708c.195-.35.552-.625.93-.745.415-.131.849-.185 1.28-.232a24.727 24.727 0 0 1 1.857-.159q.543-.024 1.088-.025c.926 0 1.858.015 2.77.194.929.183 1.867.532 2.6 1.144.503.42.902.949 1.2 1.528.264.51.37 1.047.434 1.458a5.8 5.8 0 0 1-.087 2.212 4.7 4.7 0 0 1-.674 1.491c-.349.518-.797.987-1.368 1.434.348.962 1.254 2.844 1.84 4.086M12.25 5.967q.033.537.01 1.076-.027.548-.093 1.094a41 41 0 0 1-.144 1.085l-.017.119a229 229 0 0 1-.513 3.383c-.188 1.183-.4 2.36-.61 3.54-.099.548-.319 1.253-.018 1.777.269.468.957.525 1.436.478 1.748-.17 2.025-.54 2.025-.54-.348-.369-.046-2.047.305-4.303h1.242l1.3 3.75s.383 1.161 1.448 1.105c1.364-.072 2.367-.37 2.511-.534-.42-.224-1.62-3.088-2.275-5.192a8 8 0 0 0 .913-.609 4.8 4.8 0 0 0 1.044-1.079c.202-.299.356-.629.444-.98a4.167 4.167 0 0 0 .056-1.567c-.048-.317-.121-.67-.27-.958-.276-.536-.668-1.004-1.201-1.303-.9-.505-1.938-.601-2.95-.654a19.6 19.6 0 0 0-3.288.103c-.122.014-1.36.118-1.355.209"/></svg>