<svg xmlns="http://www.w3.org/2000/svg" width="640" height="360" viewBox="0 0 640 360">
  <g fill="none" fill-rule="evenodd" transform="translate(80 32)">
    <path fill="#FFF" fill-rule="nonzero" d="M350.402957,183.645996 C349.717946,161.734538 337.738645,140.65692 316.985298,129.198029 C262.476222,99.1019306 190.754662,98.7204932 134.262998,128.444026 C112.874908,139.699877 100.396879,159.543984 99.6970842,183.645996 L350.402957,183.645996 L350.402957,183.645996 Z"/>
    <path fill="#414242" fill-rule="nonzero" d="M99.6960985,183.645996 C100.395893,159.543984 112.874908,139.833923 134.262012,128.579056 C190.755154,98.855524 262.474744,98.9673926 316.987268,129.062999 C337.738645,140.52189 349.71844,161.734045 350.401972,183.645996 L400.233265,183.645996 C400.285504,183.645996 400.321972,180.331828 400.321972,178.52764 C400.321972,152.029076 394.406735,127.055278 383.880739,104.536674 C382.229815,100.252649 379.972732,95.8927314 377.396797,91.528871 C398.35614,84.476715 418.876879,80.5342098 434.080164,77.4393433 C452.590226,73.6693228 463.20542,71.2298977 456.995975,66.1489943 C443.497824,55.1001236 426.313429,43.1296924 426.313429,43.1296924 C426.313429,43.1296924 495.361478,-13.9331413 426.313429,3.33995933 C413.298234,6.59252606 401.879754,11.4713762 391.860863,17.2077211 C372.601724,28.2368792 358.61076,42.4988916 349.050185,54.9374953 C317.317453,23.1909655 273.491581,3.52279301 225.052978,3.52279301 C128.252648,3.52279301 49.7800411,81.7273105 49.7800411,178.525668 C49.7800411,180.327886 49.814538,183.643039 49.8687474,183.643039 L99.6960985,183.643039 L99.6960985,183.645996 Z"/>
    <path fill="#414242" fill-rule="nonzero" d="M176.44189,183.645996 C176.239836,169.919672 168.443532,158.877208 158.834662,158.877208 C149.22579,158.877208 141.428501,169.919672 141.226447,183.645996 L176.442875,183.645996 L176.44189,183.645996 Z M308.950966,183.645996 C308.748912,169.919672 300.952608,158.877208 291.342751,158.877208 C281.735359,158.877208 273.93807,169.919672 273.735523,183.645996 L308.950966,183.645996 Z M44.8425462,282.175606 L32.9149897,282.175606 L11.137577,248.542588 C11.137577,248.542588 11.3544148,254.508091 11.3544148,259.754087 L11.3544148,282.175606 L0,282.175606 L0,232.588255 L12.4326899,232.588255 L33.7039836,265.934456 C33.7039836,265.934456 33.4920739,260.329692 33.4920739,255.082711 L33.4920739,232.588255 L44.8459958,232.588255 L44.8459958,282.175606 L44.8425462,282.175606 Z M61.089117,232.588255 L72.730349,232.588255 L72.730349,282.174127 L61.089117,282.174127 L61.089117,232.588255 Z M133.815031,282.175606 L121.885996,282.175606 L100.111047,248.542588 C100.111047,248.542588 100.325914,254.508091 100.325914,259.754087 L100.325914,282.175606 L88.971499,282.175606 L88.971499,232.588255 L101.405175,232.588255 L122.67499,265.934456 C122.67499,265.934456 122.460124,260.329692 122.460124,255.082711 L122.460124,232.588255 L133.814538,232.588255 L133.814538,282.175606 L133.815031,282.175606 Z M161.63039,281.169774 C161.63039,286.413306 160.552115,290.079836 158.540452,292.379303 C156.67269,294.534866 153.582751,296.04386 149.556468,296.04386 C146.108255,296.04386 142.802957,295.32731 142.155893,294.966078 L142.585626,286.413799 C143.52,286.774538 144.886078,287.061355 146.466529,287.061355 C149.269651,287.061355 150.059137,284.904805 150.059137,281.312197 L150.059137,232.59269 L161.63039,232.59269 L161.63039,281.17421 L161.63039,281.169774 Z M222.498727,282.175114 L209.849692,282.175114 L206.329528,272.18579 L188.650842,272.18579 L185.129692,282.175114 L173.05577,282.175114 L191.738316,232.516798 L203.80731,232.516798 L222.489857,282.175114 L222.498727,282.175114 Z M203.6708,263.131336 L197.489939,245.306284 L191.310061,263.131336 L203.6708,263.131336 Z M260.661191,236.110391 L239.39039,236.110391 L239.39039,255.581437 L259.367556,255.581437 L259.367556,259.100124 L239.39039,259.100124 L239.39039,282.168707 L235.510472,282.168707 L235.510472,232.587269 L260.661191,232.587269 L260.661191,236.110391 Z M297.816838,283.03655 C284.378809,283.03655 272.663656,273.263081 272.663656,257.453635 C272.663656,241.642218 284.378809,231.866777 297.816838,231.866777 C311.325832,231.866777 322.968542,241.641725 322.968542,257.452649 C322.968542,273.262094 311.325832,283.03655 297.816344,283.03655 L297.816838,283.03655 Z M297.816344,235.316962 C286.530924,235.316962 276.75844,243.438522 276.75844,257.380206 C276.75844,271.178974 286.604846,279.369528 297.811417,279.369528 C309.165832,279.369528 318.938316,271.174045 318.938316,257.375278 C318.938316,243.507516 309.160903,235.312033 297.806489,235.312033 L297.816344,235.316962 Z M367.371991,282.168707 L362.414784,282.168707 L347.75655,259.169118 L341.433757,259.169118 L341.433757,282.163778 L337.555319,282.163778 L337.555319,232.586777 L349.057577,232.586777 C358.396386,232.586777 364.504312,237.618398 364.504312,245.877947 C364.504312,254.142424 358.541273,258.094784 352.289446,259.026202 L367.38037,282.163778 L367.371991,282.168707 Z M356.737084,238.190062 C354.075893,236.174456 350.843039,236.105462 346.890678,236.105462 L341.430308,236.105462 L341.430308,255.650431 L346.890678,255.650431 C350.843039,255.650431 354.075893,255.57651 356.732156,253.634826 C359.462341,251.624148 360.398686,249.110801 360.398686,245.873018 C360.398686,242.640164 359.462341,240.126817 356.732156,238.185134 L356.737084,238.190062 Z M434.92189,282.168707 L431.038522,282.168707 L426.795401,239.121479 L408.472608,283.03113 L408.112854,283.03113 L389.721067,239.052485 L385.62579,282.168707 L381.742423,282.168707 L386.769118,232.581848 L391.224148,232.581848 L408.260698,274.90957 L425.366243,232.581848 L429.890267,232.581848 L434.92189,282.168707 Z M464.101355,283.03113 C454.471787,283.03113 450.016756,276.131746 448.937495,274.121068 L451.953511,271.962547 C453.752279,275.264395 458.064395,279.650431 464.461109,279.650431 C470.857824,279.650431 476.030882,275.69807 476.030882,269.232361 C476.030882,262.766653 469.417331,260.317372 466.54423,259.169118 C463.668665,258.015935 460.435319,256.650842 458.422669,255.57651 C456.480985,254.497249 451.237453,251.264395 451.237453,244.079179 C451.237453,236.893963 457.489774,231.862342 465.824723,231.862342 C474.163121,231.862342 478.33232,237.608543 478.761067,238.32805 L476.030882,240.69848 C474.164599,238.323121 471.290021,235.302176 465.538891,235.302176 C459.787762,235.302176 455.192772,238.323121 455.192772,243.931336 C455.192772,249.539549 459.071212,251.767064 462.594826,253.275072 C466.113511,254.783081 471.647803,257.084518 472.798522,257.730103 C473.946776,258.380616 479.983738,261.682464 479.983738,269.227434 C479.983738,276.772403 473.729939,283.026202 464.10037,283.026202 L464.101355,283.03113 Z"/>
  </g>
</svg>
