<svg width="512" height="512" viewBox="0 0 512 512" fill="none" xmlns="http://www.w3.org/2000/svg">
<rect width="512" height="512" fill="white"/>
<path d="M376.334 511.793C375.477 484.364 360.481 457.976 334.5 443.632C266.263 405.957 176.479 405.478 105.76 442.688C78.9851 456.779 63.3646 481.621 62.4883 511.793H376.334Z" fill="white"/>
<path d="M62.4873 511.793C63.3635 481.621 78.9854 456.947 105.759 442.857C176.479 405.648 266.262 405.787 334.503 443.463C360.481 457.808 375.477 484.362 376.333 511.793H438.714C438.78 511.793 438.825 507.644 438.825 505.386C438.825 472.213 431.421 440.949 418.244 412.76C416.177 407.397 413.352 401.939 410.127 396.476C436.366 387.648 462.053 382.712 481.085 378.838C504.257 374.118 517.545 371.064 509.773 364.704C492.875 350.873 471.362 335.887 471.362 335.887C471.362 335.887 557.8 264.454 471.362 286.077C456.254 289.846 441.74 295.688 428.233 303.438C404.123 317.244 386.61 335.097 374.642 350.67C334.916 310.927 280.052 286.306 219.415 286.306C98.2363 286.306 0 384.206 0 505.383C0 507.639 0.0438203 511.789 0.11142 511.789H62.4873V511.793Z" fill="#414242"/>
<path d="M158.562 511.793C158.309 494.61 148.549 480.786 136.52 480.786C124.49 480.786 114.731 494.61 114.477 511.793H158.563H158.562ZM324.443 511.793C324.19 494.61 314.431 480.786 302.4 480.786C290.372 480.786 280.612 494.61 280.359 511.793H324.443Z" fill="#414242"/>
</svg>
