<svg fill="none" height="512" viewBox="0 0 512 512" width="512" xmlns="http://www.w3.org/2000/svg"><path d="m0 0h512v512h-512z" fill="#fff"/><path d="m376.334 511.793c-.857-27.429-15.853-53.817-41.834-68.161-68.237-37.675-158.021-38.154-228.74-.944-26.7749 14.091-42.3954 38.933-43.2717 69.105z" fill="#fff"/><g fill="#414242"><path d="m62.4873 511.793c.8762-30.172 16.4981-54.846 43.2717-68.936 70.72-37.209 160.503-37.07 228.744.606 25.978 14.345 40.974 40.899 41.83 68.33h62.381c.066 0 .111-4.149.111-6.407 0-33.173-7.404-64.437-20.581-92.626-2.067-5.363-4.892-10.821-8.117-16.284 26.239-8.828 51.926-13.764 70.958-17.638 23.172-4.72 36.46-7.774 28.688-14.134-16.898-13.831-38.411-28.817-38.411-28.817s86.438-71.433 0-49.81c-15.108 3.769-29.622 9.611-43.129 17.361-24.11 13.806-41.623 31.659-53.591 47.232-39.726-39.743-94.59-64.364-155.227-64.364-121.1787 0-219.415 97.9-219.415 219.077 0 2.256.0438203 6.406.11142 6.406h62.37588z"/><path d="m158.562 511.793c-.253-17.183-10.013-31.007-22.042-31.007-12.03 0-21.789 13.824-22.043 31.007h44.086zm165.881 0c-.253-17.183-10.012-31.007-22.043-31.007-12.028 0-21.788 13.824-22.041 31.007z"/></g></svg>