<svg height="360" viewBox="0 0 640 360" width="640" xmlns="http://www.w3.org/2000/svg"><g fill="none" transform="translate(80 32)"><path d="m350.402957 183.645996c-.685011-21.911458-12.664312-42.989076-33.417659-54.447967-54.509076-30.0960984-126.230636-30.4775358-182.7223-.754003-21.38809 11.255851-33.866119 31.099958-34.5659138 55.20197z" fill="#fff"/><g fill="#414242"><path d="m99.6960985 183.645996c.6997945-24.102012 13.1788095-43.812073 34.5659135-55.06694 56.493142-29.723532 128.212732-29.6116634 182.725256.483943 20.751377 11.458891 32.731172 32.671046 33.414704 54.582997h49.831293c.052239 0 .088707-3.314168.088707-5.118356 0-26.498564-5.915237-51.472362-16.441233-73.990966-1.650924-4.284025-3.908007-8.6439426-6.483942-13.007803 20.959343-7.052156 41.480082-10.9946612 56.683367-14.0895277 18.510062-3.7700205 29.125256-6.2094456 22.915811-11.290349-13.498151-11.0488707-30.682546-23.0193019-30.682546-23.0193019s69.048049-57.0628337 0-39.78973307c-13.015195 3.25256673-24.433675 8.13141687-34.452566 13.86776177-19.259139 11.0291581-33.250103 25.2911705-42.810678 37.7297742-31.732732-31.7465298-75.558604-51.41470229-123.997207-51.41470229-96.80033 0-175.2729369 78.20451749-175.2729369 175.00287499 0 1.802218.0344969 5.117371.0887063 5.117371h49.8273511z"/><path d="m176.44189 183.645996c-.202054-13.726324-7.998358-24.768788-17.607228-24.768788-9.608872 0-17.406161 11.042464-17.608215 24.768788h35.216428zm132.509076 0c-.202054-13.726324-7.998358-24.768788-17.608215-24.768788-9.607392 0-17.404681 11.042464-17.607228 24.768788zm-264.1084198 98.52961h-11.9275565l-21.7774127-33.633018s.2168378 5.965503.2168378 11.211499v22.421519h-11.3544148v-49.587351h12.4326899l21.2712937 33.346201s-.2119097-5.604764-.2119097-10.851745v-22.494456h11.3539219v49.587351zm16.2465708-49.587351h11.641232v49.585872h-11.641232zm72.725914 49.587351h-11.929035l-21.774949-33.633018s.214867 5.965503.214867 11.211499v22.421519h-11.354415v-49.587351h12.433676l21.269815 33.346201s-.214866-5.604764-.214866-10.851745v-22.494456h11.354414v49.587351zm27.815359-1.005832c0 5.243532-1.078275 8.910062-3.089938 11.209529-1.867762 2.155563-4.957701 3.664557-8.983984 3.664557-3.448213 0-6.753511-.71655-7.400575-1.077782l.429733-8.552279c.934374.360739 2.300452.647556 3.880903.647556 2.803122 0 3.592608-2.15655 3.592608-5.749158v-48.719507h11.571253v48.58152zm60.868337 1.00534h-12.649035l-3.520164-9.989324h-17.678686l-3.52115 9.989324h-12.073922l18.682546-49.658316h12.068994l18.682547 49.658316zm-18.827927-19.043778-6.180861-17.825052-6.179878 17.825052zm56.990391-27.020945h-21.270801v19.471046h19.977166v3.518687h-19.977166v23.068583h-3.879918v-49.581438h25.150719zm37.155647 46.926159c-13.438029 0-25.153182-9.773469-25.153182-25.582915 0-15.811417 11.715153-25.586858 25.153182-25.586858 13.508994 0 25.151704 9.774948 25.151704 25.585872 0 15.809445-11.64271 25.583901-25.152198 25.583901zm-.000494-47.719588c-11.28542 0-21.057904 8.12156-21.057904 22.063244 0 13.798768 9.846406 21.989322 21.052977 21.989322 11.354415 0 21.126899-8.195483 21.126899-21.99425 0-13.867762-9.777413-22.063245-21.131827-22.063245zm69.555647 46.851745h-4.957207l-14.658234-22.999589h-6.322793v22.99466h-3.878438v-49.577001h11.502258c9.338809 0 15.446735 5.031621 15.446735 13.29117 0 8.264477-5.963039 12.216837-12.214866 13.148255l15.090924 23.137576zm-10.634907-43.978645c-2.661191-2.015606-5.894045-2.0846-9.846406-2.0846h-5.46037v19.544969h5.46037c3.952361 0 7.185215-.073921 9.841478-2.015605 2.730185-2.010678 3.66653-4.524025 3.66653-7.761808 0-3.232854-.936345-5.746201-3.66653-7.687884zm78.184806 43.978645h-3.883368l-4.243121-43.047228-18.322793 43.909651h-.359754l-18.391787-43.978645-4.095277 43.116222h-3.883367l5.026695-49.586859h4.45503l17.03655 42.327722 17.105545-42.327722h4.524024zm29.179465.862423c-9.629568 0-14.084599-6.899384-15.16386-8.910062l3.016016-2.158521c1.798768 3.301848 6.110884 7.687884 12.507598 7.687884 6.396715 0 11.569773-3.952361 11.569773-10.41807 0-6.465708-6.613551-8.914989-9.486652-10.063243-2.875565-1.153183-6.108911-2.518276-8.121561-3.592608-1.941684-1.079261-7.185216-4.312115-7.185216-11.497331s6.252321-12.216837 14.58727-12.216837c8.338398 0 12.507597 5.746201 12.936344 6.465708l-2.730185 2.37043c-1.866283-2.375359-4.740861-5.396304-10.491991-5.396304-5.751129 0-10.346119 3.020945-10.346119 8.62916 0 5.608213 3.87844 7.835728 7.402054 9.343736 3.518685 1.508009 9.052977 3.809446 10.203696 4.455031 1.148254.650513 7.185216 3.952361 7.185216 11.497331 0 7.544969-6.253799 13.798768-15.883368 13.798768z"/></g></g></svg>