<svg xmlns="http://www.w3.org/2000/svg" width="512" height="512" fill="none"><path d="M243.446 2.605 19.472 98.593c-13.999 6-21.798 20.998-18.698 35.796 3.1 14.799 16.098 25.597 31.296 25.597v8a23.94 23.94 0 0 0 23.998 23.997H456.02a23.94 23.94 0 0 0 23.997-23.998v-7.999c15.198 0 28.296-10.698 31.296-25.597 3-14.898-4.8-29.896-18.698-35.796L268.643 2.605c-8-3.4-17.198-3.4-25.197 0M128.059 223.979H64.067v196.277c-.6.3-1.2.7-1.8 1.1l-47.995 31.996C2.574 461.15-2.726 475.749 1.374 489.248c4.1 13.498 16.598 22.697 30.696 22.697h447.948a31.95 31.95 0 0 0 30.596-22.697c4.1-13.499-1.1-28.097-12.898-35.896l-47.995-31.996c-.6-.4-1.2-.7-1.8-1.1V223.979H384.03v191.977h-39.995V223.98H280.04v191.977h-47.994V223.98h-63.993v191.977H128.06zM256.044 63.998a31.996 31.996 0 1 1 0 63.992 31.996 31.996 0 1 1 0-63.992" style="fill:#f9f9f9;stroke-width:.999883"/></svg>