<svg xmlns="http://www.w3.org/2000/svg" width="640" height="360"><path d="M312.937 37.435 186.924 91.44c-7.875 3.375-12.263 11.813-10.52 20.14 1.744 8.325 9.058 14.4 17.608 14.4v4.501c0 7.482 6.02 13.501 13.502 13.501h225.022c7.482 0 13.501-6.019 13.501-13.5v-4.501c8.55 0 15.92-6.02 17.608-14.402s-2.7-16.82-10.52-20.14L327.113 37.436a18.23 18.23 0 0 0-14.176 0m-64.92 124.55h-36.003v110.429c-.337.168-.675.394-1.012.619l-27.003 18.001c-6.582 4.388-9.563 12.602-7.257 20.196S186.08 324 194.012 324h252.025a17.975 17.975 0 0 0 17.214-12.77c2.307-7.594-.619-15.808-7.257-20.196l-27.002-18.001c-.338-.225-.675-.394-1.013-.62V161.985h-35.947v108.01H369.53v-108.01h-36.004v108.01h-27.003v-108.01H270.52v108.01h-22.502zm72.008-90.01a18.002 18.002 0 1 1 0 36.004 18.002 18.002 0 1 1 0-36.004" style="stroke-width:.562555"/></svg>