<svg fill="none" height="512" viewBox="0 0 512 512" width="512" xmlns="http://www.w3.org/2000/svg"><path d="m0 0h512v512h-512z" fill="#fff"/><path d="m501.765 196.081c21.782 4.638 2.024 56.878 2.024 56.878-29.822 4.261-57.515 7.456-57.515 7.456s-23.159 3.832-54.622 8.47c-6.05 30.455-38.52 153.878-167.593 153.878-153.6755 0-224.059-166.785-224.059-166.785 51.2246-31.058 138.549-165.978 221.035-165.978 82.485 0 111.525 101.846 111.525 101.846l-7.057 11.092s-27.428-34.283-89.544-34.283c-62.117 0-105.477 75.424-131.895 98.415 0 0 65.343 102.449 149.643 102.449 45.175 0 94.182-39.323 121.608-98.415-47.797 6.655-110.718 12.705-155.086 7.26 0 0-2.219-2.017-3.227-4.235-1.21-2.825-1.41-5.849-1.41-5.849 156.498 0 273.872-65.342 284.359-71.794.404-.405 1.209-.607 1.814-.405z" fill="#66bc6b"/></svg>