<svg height="360" viewBox="0 0 640 360" width="640" xmlns="http://www.w3.org/2000/svg" xmlns:xlink="http://www.w3.org/1999/xlink"><linearGradient id="a"><stop offset="0" stop-color="#66bc6b"/><stop offset="1" stop-color="#368f43"/></linearGradient><linearGradient id="b" x1="36.63%" x2="66.97%" xlink:href="#a" y1="58.442%" y2="40.743%"/><linearGradient id="c" x1="40.114%" x2="64.889%" xlink:href="#a" y1="71.647%" y2="10.294%"/><linearGradient id="d" x1="53.452%" x2="45.588%" xlink:href="#a" y1="80.538%" y2="14.684%"/><linearGradient id="e" x1="50.061%" x2="50.061%" xlink:href="#a" y1="59.367%" y2="142.762%"/><linearGradient id="f" x1="50.067%" x2="50.067%" xlink:href="#a" y1="80.536%" y2="4.209%"/><linearGradient id="g" x1="49.696%" x2="43.711%" xlink:href="#a" y1="37.766%" y2="63.311%"/><linearGradient id="h" x1="48.108%" x2="42.537%" xlink:href="#a" y1="47.337%" y2="87.275%"/><g fill="none" fill-rule="evenodd" transform="translate(80 102)"><g fill="#66bc6b"><path d="m458.414201 79.0532544h-1.798817l.378698 1.704142c2.745563 13.7278107.189349 34.2721896-10.130177 46.8639056-6.059171 7.384615-13.91716 11.171597-23.289941 11.171597-15.147929 0-20.639053-17.988165-21.396449-38.343195 24.804733-5.8698224 41.183433-21.3964496 41.183433-39.3846152 0-12.8757397-3.881658-34.4615385-29.538463-34.4615385-24.236686 0-36.544379 36.2603551-39.005917 61.443787-12.497042-.1893491-21.491125-6.1538461-26.982249-11.3609468 2.177516-8.7100592 3.31361-16.9467456 3.31361-24.331361 0-10.1301774-7.100592-14.7692306-13.633136-14.7692306-9.56213 0-19.218934 9.1834318-19.218934 26.7928994 0 10.6035502 4.071004 19.2189349 12.023668 25.6568047-7.100592 16.568047-18.934911 30.579882-23.005918 35.12426-3.124261-6.816568-13.443787-31.0532541-16.568046-57.4674554 3.881655-10.6982247 6.059171-19.3136094 6.059171-23.4792899 0-6.7218933-4.071007-10.414201-11.455621-10.414201-9.56213 0-24.520711 6.0591715-25.088758 6.2485206l-.85207.3786982.094674.9467457c0 .1893491 4.544378 21.4911242 9.088756 44.6863904-8.710058 14.4852074-24.14201 38.1538464-31.999999 38.1538464-14.106508 0 9.183432-72.2366867-1.041421-74.4142014-.284022-.0946746-.66272 0-.85207.1893491-4.923078 3.0295859-60.023669 33.7041421-133.491124 33.7041421 0 0 .094674 1.4201182.662721 2.745562.473373 1.0414202 1.514793 1.9881657 1.514793 1.9881657 20.828403 2.5562129 50.366864-.2840236 72.804734-3.4082841-12.87574 27.7396456-35.881657 46.2011836-57.088757 46.2011836-39.5739649 0-70.2485211-48.0946747-70.2485211-48.0946747 12.402367-10.7928993 32.7573967-46.2011834 61.9171601-46.2011834 29.159763 0 42.035503 16.0946747 42.035503 16.0946747l3.313609-5.2071007s-13.633136-47.8106509-52.355029-47.8106509c-38.7218939 0-79.7159766 63.3372781-103.763314 77.9171599 0 0 33.0414201 78.2958581 105.183432 78.2958581 60.591716 0 75.834319-57.9408287 78.674556-72.2366866 14.769231-2.1775147 24.994083-4.260355 24.994083-4.260355s-3.692308 29.6331356-3.692308 41.9408286c0 12.213018 13.538461 25.467455 24.899409 25.467455 9.656803 0 28.781064-19.692307 42.887574-43.64497l.662721 2.840237c7.384617 27.266272 16.568049 40.994083 27.455622 40.994083 10.982248 0 28.970414-22.721894 40.426035-50.8402373 11.739645 5.1124263 25.278107 6.3431953 33.230771 6.5325443 3.124258 48.757397 44.023666 50.177515 48.757396 50.177515 30.295857 0 55.857986-21.775148 55.857986-47.526627 0-26.1301779-20.733726-26.6035506-20.923076-26.6035506zm-36.923077-20.449704c0 .1893491-.284024 16.189349-18.840237 24.4260353 1.704144-21.3964496 7.005918-40.7100591 10.698226-40.7100591 3.881656 0 8.142011 6.2485207 8.142011 16.2840238z" fill-rule="nonzero"/><path d="m210.556213 39.2899407c-.094674.5680475.378698 1.1360948.946746 1.2307693 14.390533 1.9881657 23.763314-2.3668638 23.763314-25.8461538 0-21.86982246-22.532545-4.6390532-26.698226-1.3254438-.378698.2840237-.473373.852071-.284023 1.3254438 4.16568 8.6153846 2.840236 20.923077 2.272189 24.6153845z"/></g><path d="m268.87574 86.0591716c-5.5858 9.3727811-14.011835 22.4378704-21.39645 30.6745564 1.609466 4.16568 3.881658 9.372781 5.869822 13.72781 6.62722-7.384615 13.538461-16.757396 19.502959-26.887573z" fill="url(#b)"/><path d="m335.621302 93.4437871c-2.650887-1.6094675-5.112426-3.5029587-5.112426-3.5029587-4.733729 11.0769236-11.64497 21.0177516-16.852071 27.7396446 2.461538 3.502959 6.721894 8.142012 9.846153 11.455622 6.437871-8.804734 12.87574-20.260355 17.988166-32.7573968-.094674.0946745-3.124259-1.2307691-5.869822-2.9349111z" fill="url(#c)"/><path d="m402.272188 100.449704s-7.005916 1.609468-13.917159 2.177515c-6.911243.662722-13.72781.378698-13.72781.378698.946745 14.011834 4.923076 24.047337 10.319526 31.337278l25.656806-2.08284c-5.491124-7.005917-7.857989-18.934911-8.331363-31.810651z" fill="url(#d)"/><path d="m381.91716 57.5621302c-.852072 2.2721893-1.609468 4.5443786-2.272189 6.9112427-.189349.5680472-.284025 1.04142-.473374 1.6094672-1.325444 4.6390534-2.366862 9.2781066-3.124259 13.8224854-.094675.5680473-.189349 1.1360946-.284025 1.6094673-.378698 2.177515-.66272 4.3550297-.852069 6.43787 16.378697 0 27.739643-4.8284025 27.739643-4.8284025.094675-1.6094675.284024-3.2189348.473373-4.7337277 0-.3786982.094676-.8520711.094676-1.2307693.094673-1.2307691.284023-2.4615384.473372-3.6923077 0-.2840237.094675-.6627219.094675-.9467455.473372-3.218935.946746-6.2485206 1.514793-9.0887574z" fill="url(#e)"/><path d="m150.816568 118.627219 15.526627 6.532544c7.47929-10.414201 11.928994-21.491124 14.579882-30.0118339l2.840237-11.1715977-7.384616 1.04142c-6.437869 13.9171599-15.526627 25.5621306-25.56213 33.6094676z" fill="url(#f)"/><path d="m290.934912 67.5976331c3.881655-10.6982247 6.059171-19.3136095 6.059171-23.4792899 0-.3786982-.094676-.7573964-.094676-1.1360948l-9.088756 2.8402368c.094673 0 .378698 6.2485207 3.124261 21.7751479z" fill="url(#g)"/><path d="m340.260356 60.0236686s-2.461539 7.1952663 7.763312 16.5680474c1.893491-7.5739645 2.934912-14.6745563 3.218935-21.2071006z" fill="url(#h)"/></g></svg>