<svg height="360" viewBox="0 0 640 360" width="640" xmlns="http://www.w3.org/2000/svg"><g fill="none" fill-rule="evenodd" transform="translate(80 114)"><path d="m327.516524 36.1630316c-2.035053 13.6559339-12.243788 13.6559339-22.117811 13.6559339h-5.618152l3.941241-25.4960919c.237646-1.5405029 1.538005-2.6757903 3.065968-2.6757903h2.575614c6.719356 0 13.068855 0 16.342345 3.9119541 1.958069 2.3406752 2.55051 5.8097988 1.810795 10.6039942zm-4.29771-35.62647988h-37.238455c-2.54549 0-4.712754 1.89271552-5.109389 4.4625l-15.057048 97.54751428c-.297894 1.923491 1.158106 3.664037 3.065968 3.664037h19.105397c1.782345 0 3.300267-1.325071 3.576405-3.12375l4.270933-27.6538214c.396635-2.5697845 2.563899-4.4625 5.109389-4.4625h11.783558c24.527743 0 38.682741-12.1273994 42.382989-36.1616379 1.665195-10.5116667.066942-18.7715661-4.751246-24.5540086-5.295154-6.35692533-14.680497-9.71833338-27.138501-9.71833338z" fill="#238ec2"/><path d="m61.9270621 36.1630316c-2.0350529 13.6559339-12.2437885 13.6559339-22.116138 13.6559339h-5.6181517l3.9395678-25.4960919c.2393196-1.5405029 1.5396782-2.6757903 3.0659678-2.6757903h2.5756138c6.7210299 0 13.0705288 0 16.3423449 3.9119541 1.9597425 2.3406752 2.5521839 5.8097988 1.8107954 10.6039942zm-4.2960368-35.62647988h-37.2384552c-2.5454896 0-4.712754 1.89271552-5.1093885 4.4625l-15.05872183 97.54751428c-.29622069 1.923491 1.15977931 3.664037 3.06596782 3.664037h17.77993561c2.5454897 0 4.7144276-1.892715 5.1110621-4.46079l4.0634115-26.3167814c.3949609-2.5697845 2.5638988-4.4625 5.1093885-4.4625h11.7835586c24.526069 0 38.6827402-12.1273994 42.3829885-36.1616379 1.6651954-10.5116667.0669425-18.7715661-4.751246-24.5540086-5.2968275-6.35692533-14.6821701-9.71833338-27.1385011-9.71833338zm86.4479077 70.64599138c-1.722096 10.4090805-9.810427 17.3969109-20.126271 17.3969109-5.17131 0-9.311706-1.6995115-11.972671-4.9172988-2.637536-3.1904311-3.629959-7.735-2.794851-12.7959196 1.606621-10.3150431 9.823816-17.5285632 19.982345-17.5285632 5.064202 0 9.174474 1.7166092 11.888993 4.9634627 2.731255 3.2707902 3.804009 7.846135 3.022455 12.881408zm24.849067-35.4555029h-17.830143c-1.527963 0-2.828321 1.1335776-3.065967 2.6775l-.784901 5.0934052-1.246805-1.8465517c-3.86091-5.7260201-12.466373-7.6392529-21.06012-7.6392529-19.699512 0-36.5271904 15.2511494-39.8023537 36.6420833-1.7053609 10.6706753.7146115 20.8677443 6.6373518 27.9855173 5.440754 6.5398706 13.2060869 9.2618246 22.4575449 9.2618246 15.878768 0 24.685057-10.4210488 24.685057-10.4210488l-.796616 5.0626298c-.297894 1.925201 1.158106 3.667456 3.065968 3.667456h16.057839c2.54549 0 4.712754-1.891005 5.109389-4.46079l9.639724-62.3587354c.297894-1.9252012-1.158106-3.6640374-3.065968-3.6640374z" fill="#253667"/><path d="m409.666722 71.1825431c-1.722097 10.4090805-9.808754 17.3969109-20.124598 17.3969109-5.172984 0-9.311706-1.6995115-11.974345-4.9172988-2.637535-3.1904311-3.629958-7.735-2.793177-12.7959196 1.604947-10.3150431 9.822143-17.5285632 19.982345-17.5285632 5.062529 0 9.174474 1.7166092 11.88732 4.9634627 2.731255 3.2707902 3.804009 7.846135 3.022455 12.881408zm24.849067-35.4555029h-17.830143c-1.527963 0-2.828322 1.1335776-3.065968 2.6775l-.784901 5.0934052-1.245131-1.8465517c-3.862584-5.7260201-12.468046-7.6392529-21.061793-7.6392529-19.697839 0-36.527191 15.2511494-39.802354 36.6420833-1.703688 10.6706753.716285 20.8677443 6.637352 27.9855173 5.442427 6.5398706 13.206087 9.2618246 22.457544 9.2618246 15.878768 0 24.685058-10.4210488 24.685058-10.4210488l-.794943 5.0626298c-.299567 1.925201 1.156433 3.667456 3.065968 3.667456h16.056166c2.545489 0 4.712754-1.891005 5.111062-4.46079l9.63805-62.3587354c.297895-1.9252012-1.158105-3.6640374-3.065967-3.6640374z" fill="#238ec2"/><path d="m263.894345 35.7270402h-17.922189c-1.713728 0-3.317002.8685632-4.279301 2.3167385l-24.721876 37.1994684-10.478179-35.7461638c-.654363-2.2363793-2.669333-3.7700431-4.955421-3.7700431h-17.6176c-2.127099 0-3.624938 2.1372127-2.938777 4.1940661l19.734658 59.1785632-18.56149 26.7579025c-1.457673 2.099598.013389 5.004497 2.532101 5.004497h17.905453c1.696993 0 3.285205-.849756 4.252524-2.275704l59.602281-87.8804742c1.425876-2.1030172-.04686-4.9788506-2.552184-4.9788506" fill="#253667"/><path d="m455.532395 3.21576149-15.282979 99.33080451c-.296221 1.925201 1.159779 3.664037 3.065968 3.664037h15.371678c2.54549 0 4.712754-1.892715 5.109389-4.46079l15.068763-97.54751415c.297894-1.92520115-1.158106-3.66574713-3.065968-3.66574713h-17.200883c-1.527963 0-2.828322 1.13699713-3.065968 2.67920977" fill="#238ec2"/></g></svg>