<svg xmlns="http://www.w3.org/2000/svg" width="51" height="32" viewBox="0 0 51 32">
  <g fill="none" fill-rule="evenodd">
    <rect width="50" height="31" x=".5" y=".5" fill="#FFF" stroke="#D0D0D0"/>
    <g transform="translate(15.8 4)">
      <path fill="#238EC2" d="M18.1150678,6.22011523 C18.4044991,4.37634019 18.113135,3.12164609 17.1151043,1.98525103 C16.0163282,0.734178326 14.0313801,0.198211248 11.4917288,0.198211248 L4.11944387,0.198211248 C3.60049687,0.198211248 3.1586188,0.575561043 3.07768433,1.08786831 L0.00797264957,20.5403347 C-0.0526678063,20.924203 0.244252991,21.2711331 0.632980057,21.2711331 L5.18415499,21.2711331 L4.87008091,23.2616955 C4.81717151,23.5975199 5.07664501,23.9012346 5.4168114,23.9012346 L9.25286382,23.9012346 C9.70706325,23.9012346 10.093616,23.570963 10.1644034,23.1228752 L10.2020923,22.9280439 L10.9247043,18.3486639 L10.9713322,18.0956488 C11.0421197,17.6473196 11.4286724,17.3172894 11.8826302,17.3172894 L12.4564194,17.3172894 C16.1728821,17.3172894 19.0828991,15.8083731 19.9330735,11.4448285 C20.2884604,9.62157476 20.1048479,8.0996214 19.1652832,7.02961866 C18.8809254,6.706107 18.5274712,6.43836488 18.1150678,6.22011523"/>
      <path fill="#20274F" d="M18.1150678,6.22011523 C18.4044991,4.37634019 18.113135,3.12164609 17.1151043,1.98525103 C16.0163282,0.734178326 14.0313801,0.198211248 11.4917288,0.198211248 L4.11944387,0.198211248 C3.60049687,0.198211248 3.1586188,0.575561043 3.07768433,1.08786831 L0.00797264957,20.5403347 C-0.0526678063,20.924203 0.244252991,21.2711331 0.632980057,21.2711331 L5.18415499,21.2711331 L6.32738462,14.0268861 L6.29187009,14.2540686 C6.37280456,13.7417613 6.81105869,13.3641701 7.3300057,13.3641701 L9.49325128,13.3641701 C13.7414655,13.3641701 17.0677516,11.6394184 18.03969,6.65154458 C18.0684399,6.50403292 18.0930826,6.36086694 18.1150678,6.22011523"/>
      <path fill="#253667" d="M7.55541425,6.24474074 C7.60421652,5.93643896 7.80208319,5.68414815 8.06856296,5.55643347 C8.18984387,5.49849108 8.32513732,5.46613992 8.46695385,5.46613992 L14.2456752,5.46613992 C14.9303567,5.46613992 15.5686519,5.51104527 16.1521048,5.60496022 C16.3190473,5.63175857 16.4811578,5.66266118 16.6389197,5.69766804 C16.7964399,5.73243347 16.9496114,5.77154458 17.0977094,5.81500137 C17.1718792,5.83648834 17.2445994,5.85918244 17.3163533,5.88308368 C17.6028855,5.97796433 17.8696068,6.09022771 18.1150678,6.22011523 C18.4044991,4.37634019 18.113135,3.12164609 17.1151043,1.98525103 C16.0163282,0.734178326 14.0313801,0.198211248 11.4917288,0.198211248 L4.11944387,0.198211248 C3.60049687,0.198211248 3.1586188,0.575561043 3.07768433,1.08786831 L0.00797264957,20.5403347 C-0.0526678063,20.924203 0.244252991,21.2711331 0.632980057,21.2711331 L5.18415499,21.2711331 L7.55541425,6.24474074"/>
    </g>
  </g>
</svg>
