<svg height="32" viewBox="0 0 51 32" width="51" xmlns="http://www.w3.org/2000/svg"><g fill="none" fill-rule="evenodd"><path d="m.5.5h50v31h-50z" fill="#fff" stroke="#d0d0d0"/><g transform="translate(15.8 4)"><path d="m18.1150678 6.22011523c.2894313-1.84377504-.0019328-3.09846914-.9999635-4.2348642-1.0987761-1.2510727-3.0837242-1.78703978-5.6233755-1.78703978h-7.37228493c-.518947 0-.96082507.37734979-1.04175954.88965706l-3.06971168 19.45246639c-.06064046.3838683.23628034.7307984.62500741.7307984h4.55117493l-.31407408 1.9905624c-.0529094.3358244.2065641.6395391.54673049.6395391h3.83605242c.45419943 0 .84075218-.3302716.91153958-.7783594l.0376889-.1948313.722612-4.57938.0466279-.2530151c.0707875-.4483292.4573402-.7783594.911298-.7783594h.5737892c3.7164627 0 6.6264797-1.5089163 7.4766541-5.8724609.3553869-1.82325374.1717744-3.3452071-.7677903-4.41520984-.2843578-.32351166-.637812-.59125378-1.0502154-.80950343" fill="#238ec2"/><path d="m18.1150678 6.22011523c.2894313-1.84377504-.0019328-3.09846914-.9999635-4.2348642-1.0987761-1.2510727-3.0837242-1.78703978-5.6233755-1.78703978h-7.37228493c-.518947 0-.96082507.37734979-1.04175954.88965706l-3.06971168 19.45246639c-.06064046.3838683.23628034.7307984.62500741.7307984h4.55117493l1.14322963-7.244247-.03551453.2271825c.08093447-.5123073.5191886-.8898985 1.03813561-.8898985h2.16324558c4.24821422 0 7.57450032-1.7247517 8.54643872-6.71262552.0287499-.14751166.0533926-.29067764.0753778-.43142935" fill="#20274f"/><path d="m7.55541425 6.24474074c.04880227-.30830178.24666894-.56059259.51314871-.68830727.12128091-.05794239.25657436-.09029355.39839089-.09029355h5.77872135c.6846815 0 1.3229767.04490535 1.9064296.1388203.1669425.02679835.329053.05770096.4868149.09270782.1575202.03476543.3106917.07387654.4587897.11733333.0741698.02148697.14689.04418107.2186439.06808231.2865322.09488065.5532535.20714403.7987145.33703155.2894313-1.84377504-.0019328-3.09846914-.9999635-4.2348642-1.0987761-1.2510727-3.0837242-1.78703978-5.6233755-1.78703978h-7.37228493c-.518947 0-.96082507.37734979-1.04175954.88965706l-3.06971168 19.45246639c-.06064046.3838683.23628034.7307984.62500741.7307984h4.55117493z" fill="#253667"/></g></g></svg>