<svg xmlns="http://www.w3.org/2000/svg" xml:space="preserve" width="640" height="360"><path fill="#00937b" d="M396.006 181.531c0-8.846-3.25-17.15-9.208-23.65-3.069-3.25-6.499-5.958-10.47-7.943l-.903 1.444c2.166 1.264 4.152 2.888 5.957 4.694 6.138 6.319 9.569 14.623 9.75 23.47 0 1.263 0 3.43-.181 5.235-1.084-3.791-3.07-7.221-5.778-10.11-.902-1.083-1.805-1.986-3.069-2.528-.18 2.708-.722 5.417-1.444 8.125 1.083.722 1.986 1.624 2.889 2.527 2.347 2.167 3.79 5.236 3.971 8.485 0 1.625-.722 3.25-1.985 4.333-1.806 1.444-3.972 2.167-6.32 2.167-3.43-.181-6.86-1.264-9.748-3.25 4.513-4.513 7.763-10.11 9.207-16.248a31.8 31.8 0 0 0 1.083-8.305c0-4.694-1.083-9.388-3.43-13.54-3.069-5.777-9.027-9.388-15.526-9.388-8.124.18-15.887 3.791-21.303 9.749-6.138 5.958-9.75 14.262-9.75 22.928 0 1.444 0 2.889.181 4.333h1.625c0-8.666 3.43-16.79 9.75-22.748 3.249-3.069 6.86-5.777 11.012-7.582-2.889 2.708-4.875 6.319-5.958 10.11a13.7 13.7 0 0 0-.541 3.791c2.527-1.264 5.055-2.166 7.763-2.708.36-3.791 1.986-7.221 4.513-10.11 1.264-1.264 2.889-2.166 4.694-2.166 2.889.18 5.416 1.985 6.68 4.513 1.625 3.07 2.347 6.68 1.986 10.11a30.33 30.33 0 0 0-18.776 0c-5.236 1.264-9.93 3.972-13.72 7.763a21.63 21.63 0 0 0-6.68 14.262 19.88 19.88 0 0 0 6.499 14.082c6.499 6.138 14.984 9.75 24.011 9.569 7.04 0 13.72-2.167 19.498-6.139l-.361-1.083c-4.514 2.528-9.569 3.791-14.804 3.791-7.944.18-15.526-2.347-21.845-7.04 1.625.541 3.43.902 5.236.902 3.43 0 6.86-.722 9.93-2.166-2.348-1.625-4.514-3.43-6.32-5.416-2.347.902-5.055 1.624-7.582 1.624-2.528.181-4.875-.722-6.68-2.346-1.083-1.084-1.625-2.528-1.625-4.153.18-3.069 1.625-6.138 3.972-8.124 1.444-1.625 3.25-2.889 5.235-3.791 1.625 6.138 4.875 11.915 9.388 16.429 5.236 5.416 12.457 8.665 20.04 9.026 4.874.18 9.568-1.624 12.998-4.874 3.972-5.055 6.139-11.554 6.139-18.054m-25.095-5.416c-1.625 5.055-4.513 9.569-8.305 13.36-3.61-3.972-5.957-8.666-7.22-13.901 2.165-.542 4.332-.723 6.498-.723 3.07 0 6.139.542 9.027 1.264"/><path fill="#00006b" d="M81.15 154.993h-3.068c-1.806 0-3.43.18-5.055.36-1.083.362-2.167.903-3.07 1.625-.902.903-1.444 1.986-1.805 3.07-.36 1.444-.902 3.069-1.444 5.055H64c0-.362 0-1.084.18-2.347.181-1.264.181-2.528.362-3.972.18-1.444.18-2.889.36-4.153 0-.902.181-1.805.362-2.527h42.245c0 .361.18 1.264.18 2.527s.181 2.709.362 4.153c.18 1.444.18 2.708.18 3.972s.18 1.985.18 2.347h-2.888c-.541-1.986-.902-3.611-1.444-5.055-.361-1.084-.903-2.167-1.805-3.07-.903-.722-1.986-1.444-3.07-1.624-1.624-.361-3.43-.542-5.054-.361h-3.07v40.62c0 .903.18 1.625.542 2.528.361.541.903 1.083 1.444 1.263.903.18 1.806.361 2.889.542l1.805.18v1.986H74.471v-1.985l1.805-.181c.903-.18 1.986-.361 2.889-.542.722-.18 1.264-.541 1.444-1.263.361-.723.542-1.625.542-2.528V191.1zM111.661 177.379v-1.986c0-.722-.18-1.264-.18-1.986-.18-.541-.361-1.083-.722-1.444s-.722-.542-1.264-.542-.903 0-1.444.18c-.361 0-.722.181-.903.362v-1.986c1.444-.542 2.708-.903 3.61-1.264.903-.36 1.987-.541 2.89-.902l2.707-.723c.903-.18 2.167-.36 3.43-.541.181.722.181 1.444.362 2.347.18.902.18 1.986.18 2.888l1.445-1.444c.541-.542 1.263-1.264 1.985-1.625a16.5 16.5 0 0 1 2.347-1.444c.903-.361 1.806-.542 2.889-.542.722 0 1.444.18 2.166.361.542.181 1.264.542 1.806.903.541.361.902.722 1.263 1.083.362.361.723.722.903 1.084-.541 1.083-1.083 1.985-1.805 2.888-.903.903-1.806 1.805-2.708 2.347-.542-.18-.903-.18-1.445-.361-.541-.18-1.263-.542-1.985-.722l-1.806-.903c-.36-.18-.902-.18-1.264-.36-.541 0-1.083.18-1.624.36-.542.361-1.084.722-1.445 1.264v21.665c0 .721.18 1.263.361 1.985.181.542.542.903.903 1.083.542.18 1.264.361 1.805.361l3.07.362v1.985h-20.22v-1.985l1.624-.181c.542 0 1.084-.18 1.625-.361.361-.18.722-.361.903-.903.18-.541.361-.902.361-1.444 0-.903.18-1.625.18-2.528zM138.38 200.127l1.626-.181c.541 0 1.083-.18 1.624-.361.362-.18.723-.361.903-.722.18-.542.361-.903.361-1.445 0-.902.18-1.624.18-2.527v-19.859c0-.722-.18-1.264-.36-1.986-.18-.541-.361-1.083-.722-1.444-.362-.361-.723-.542-1.264-.542-.542 0-1.083 0-1.445.18l-.902.181v-2.166c4.513-1.625 9.027-2.528 13.72-2.708v28.525c0 .902 0 1.624.181 2.527 0 .542.18 1.083.361 1.444.18.361.542.722.903.722.541.181 1.083.362 1.625.362l1.624.18v1.986h-18.414Zm8.847-39.899c-1.444 0-2.708-.542-3.791-1.444-1.083-1.083-1.625-2.347-1.444-3.791 0-1.445.541-2.709 1.444-3.792 1.083-1.083 2.347-1.625 3.791-1.444 1.444 0 2.708.542 3.791 1.444.903.903 1.445 2.167 1.445 3.611a5.6 5.6 0 0 1-1.625 3.972c-.903.902-2.347 1.444-3.61 1.444M178.28 203.196q-3.522 0-7.042-1.084a19.2 19.2 0 0 1-5.957-3.25c-1.806-1.444-3.25-3.43-4.153-5.596-1.083-2.527-1.624-5.416-1.444-8.124 0-2.889.542-5.777 1.625-8.485 1.083-2.167 2.527-4.333 4.333-5.777 1.805-1.625 3.972-2.708 6.138-3.43q3.52-1.084 7.04-1.084c2.348 0 4.875.361 7.222 1.084 2.167.722 4.333 1.805 5.958 3.25 1.805 1.443 3.25 3.249 4.152 5.415a20.2 20.2 0 0 1 1.625 7.944q0 4.604-1.625 8.666-1.624 3.52-4.333 5.957c-1.805 1.625-3.971 2.708-6.138 3.43-2.527.723-4.874 1.084-7.402 1.084m-9.028-19.498q0 2.98.542 5.957c.361 1.806.903 3.792 1.805 5.417.723 1.444 1.806 2.888 3.07 3.79 1.263 1.084 2.888 1.626 4.693 1.445 1.625 0 3.07-.361 4.333-1.444 1.084-.903 1.986-2.167 2.708-3.61.723-1.445 1.084-3.07 1.264-4.695s.361-3.25.361-4.874q0-2.979-.541-5.958c-.361-1.805-.903-3.61-1.625-5.236-.722-1.444-1.806-2.708-3.07-3.79-1.444-1.084-3.068-1.445-4.874-1.445-1.625 0-3.069.36-4.333 1.444-1.083.903-2.166 1.986-2.708 3.43-.722 1.445-1.083 3.07-1.444 4.694 0 1.625-.18 3.25-.18 4.875M229.37 160.77c0-2.528 0-4.875-.36-7.402-.18-1.445-.903-2.347-2.167-2.347h-2.166v-1.806c1.625-.36 3.07-.541 4.152-.722 1.084-.18 2.528-.36 3.43-.541.903-.18 2.167-.18 3.07-.361.902-.181 1.986 0 3.069 0v46.397c0 .722.18 1.625.36 2.347.181.542.542.903 1.084 1.264s1.264.361 1.986.361h1.625l.18 1.986c-1.986.722-3.972 1.264-5.957 1.805-1.986.542-3.972.903-6.139 1.264l-1.986-3.43-1.805.903c-.722.36-1.625.902-2.347 1.083-.903.36-1.986.722-2.888.902-1.084.181-2.347.362-3.43.362a17.6 17.6 0 0 1-6.139-1.084c-4.152-1.444-7.402-4.333-9.207-8.304-1.083-2.347-1.444-4.875-1.444-7.583 0-2.527.36-5.055 1.263-7.402.722-1.986 1.806-3.791 3.07-5.416 1.263-1.444 2.707-2.708 4.332-3.61q2.167-1.354 4.875-2.167c1.444-.542 3.069-.903 4.694-1.083 1.263-.18 2.527-.18 3.79-.18.904 0 1.806 0 2.89.18l2.166.36zm0 11.193c-.721-.722-1.624-1.264-2.346-1.805-1.264-.723-2.708-.903-3.972-.903-1.625 0-3.069.36-4.513 1.083-1.264.722-2.347 1.625-3.25 2.889s-1.625 2.708-1.986 4.152c-.541 1.805-.722 3.43-.722 5.236 0 2.347.361 4.693 1.083 6.86.722 1.805 1.625 3.61 2.889 5.055 1.083 1.264 2.527 2.347 3.972 3.069s2.888 1.083 4.513 1.083c.903 0 1.805-.18 2.708-.36.722-.181 1.264-.542 1.805-.904zM265.298 203.196q-3.52 0-7.041-1.084a19.2 19.2 0 0 1-5.958-3.25c-1.805-1.444-3.25-3.43-4.152-5.596-1.084-2.527-1.625-5.416-1.625-8.124 0-2.889.541-5.777 1.625-8.485 1.083-2.167 2.527-4.333 4.333-5.777 1.805-1.625 3.971-2.708 6.138-3.43q3.52-1.084 7.04-1.084c2.528 0 4.875.361 7.222 1.084 2.167.722 4.152 1.805 5.777 3.25 1.806 1.443 3.25 3.249 4.153 5.415a20.2 20.2 0 0 1 1.624 7.944q0 4.604-1.624 8.666-1.626 3.52-4.333 5.957c-1.806 1.625-3.972 2.708-6.138 3.43q-3.52 1.084-7.041 1.084m-9.027-19.498q0 2.98.541 5.957c.361 1.806.903 3.792 1.806 5.417.722 1.444 1.805 2.888 3.069 3.79 1.264 1.084 2.888 1.626 4.694 1.445 1.625 0 3.069-.361 4.333-1.444 1.083-.903 1.986-2.167 2.708-3.61.722-1.445 1.083-3.07 1.263-4.695.181-1.625.362-3.25.362-4.874q0-2.979-.542-5.958c-.361-1.805-.903-3.61-1.625-5.236-.722-1.444-1.805-2.888-3.069-3.79-1.444-1.084-3.07-1.445-4.874-1.445-1.625 0-3.07.36-4.333 1.444-1.084.903-2.167 2.167-2.708 3.43-.723 1.445-1.084 3.07-1.445 4.694-.18 1.625-.18 3.25-.18 4.875M310.793 177.92c0-.722-.18-1.624-.542-2.346-.361-1.084-.722-1.986-1.264-2.889-.541-.903-1.263-1.805-2.166-2.347-1.083-.722-2.347-1.083-3.43-.903-1.084 0-2.167.542-3.07 1.445-.902.902-1.263 2.166-1.263 3.43s.36 2.347 1.264 3.25c.902.902 1.985 1.805 3.069 2.346 1.263.723 2.708 1.445 4.152 1.986 1.444.723 2.889 1.445 4.152 2.347a13.9 13.9 0 0 1 3.25 3.25c.903 1.444 1.264 3.07 1.264 4.874 0 1.445-.18 2.89-.722 4.153-.542 1.264-1.445 2.527-2.528 3.43-1.264 1.083-2.888 1.986-4.513 2.347-2.167.542-4.333.903-6.68.903-1.986 0-3.972-.18-5.958-.723-1.625-.36-3.069-.902-4.513-1.624-.903-3.611-1.445-7.222-1.445-10.832h3.07c.18 1.083.36 2.346.902 3.43.542 1.263 1.084 2.347 1.986 3.25.722 1.083 1.806 1.985 2.889 2.707 1.083.723 2.527 1.084 3.791 1.084 1.444.18 2.708-.542 3.791-1.445.903-.902 1.264-2.166 1.264-3.61 0-1.264-.361-2.708-1.264-3.792-.902-1.083-1.986-1.805-3.069-2.527-1.264-.722-2.708-1.444-4.152-2.167-1.444-.541-2.889-1.444-4.152-2.347-1.264-.902-2.347-1.985-3.07-3.43-.902-1.444-1.263-3.25-1.263-5.055 0-.18 0-.722.18-1.805.18-1.264.722-2.347 1.444-3.43 1.084-1.445 2.347-2.528 3.972-3.25 2.528-1.083 5.055-1.625 7.763-1.444 1.806 0 3.611.18 5.416.722 1.264.361 2.528.903 3.792 1.444.36 1.444.722 3.07.722 4.694s.18 3.25.18 4.694zM409.365 200.127l1.806-.181c.902-.18 1.624-.361 1.986-.542q.811-.27 1.083-1.083c.36-.903.36-1.625.36-2.527v-37.552c0-.902-.18-1.625-.36-2.527a1.63 1.63 0 0 0-1.083-1.084c-.723-.18-1.264-.36-1.986-.541l-1.806-.18v-1.806h25.095c1.083 0 2.166.18 3.25.361 1.263.18 2.346.542 3.61.903 1.264.36 2.347 1.083 3.43 1.805s1.806 1.805 2.528 2.889c.722 1.444 1.083 2.888.903 4.333 0 1.805-.362 3.61-1.084 5.235-.722 1.444-1.444 2.528-2.527 3.61-1.083.903-2.167 1.626-3.43 2.167-1.084.542-2.167.903-3.43 1.264v.18c1.444.181 2.707.542 3.971.903 1.445.542 2.889 1.264 4.153 2.347s2.527 2.347 3.25 3.972c.902 1.805 1.444 3.791 1.263 5.777 0 2.347-.542 4.875-1.805 6.86-1.264 1.806-2.889 3.25-4.694 4.333-2.167 1.084-4.514 1.986-6.86 2.347-2.709.542-5.417.722-8.125.722h-19.678v-1.985zm15.165-25.998h2.889c1.444 0 2.708-.18 4.152-.36 1.264-.181 2.528-.723 3.43-1.445 1.084-.722 1.806-1.805 2.347-2.889.723-1.624.903-3.25.903-5.055.18-2.527-.903-5.055-2.708-6.86-1.986-1.805-4.513-2.527-7.04-2.527-1.265 0-2.709.18-3.792.541zm0 23.831c.903.361 1.986.722 3.07.903 1.083.18 1.985.36 3.069.36 2.888.181 5.596-.721 7.582-2.888 1.625-2.166 2.528-4.694 2.347-7.402 0-1.444-.18-2.888-.722-4.333-.542-1.444-1.264-2.708-2.347-3.79-1.083-1.265-2.528-2.167-3.972-2.709-1.805-.722-3.791-1.083-5.777-1.083h-3.25zM488.26 201.21c-.542.18-1.264.722-2.347 1.083-1.264.542-2.708.903-4.153.722-1.083 0-1.986 0-3.069-.361-.722-.18-1.444-.542-1.986-.903-.541-.36-1.083-.722-1.444-1.263-.361-.542-.722-.903-.903-1.445l-1.805 1.264c-.722.542-1.444.903-2.347 1.264-.903.36-1.805.722-2.889.902-1.263.181-2.347.362-3.61.362-2.528.18-5.236-.723-7.222-2.347-1.805-1.445-2.708-3.611-2.708-5.958 0-2.167.722-4.333 2.167-5.958s3.25-2.888 5.235-3.972c1.986-1.083 4.152-1.805 6.5-2.347l5.777-1.444v-1.805c0-1.083 0-2.167-.181-3.25-.18-.903-.542-1.986-1.083-2.708-.542-.722-1.264-1.444-1.986-1.805-1.083-.542-2.167-.722-3.25-.722-1.263 0-2.527.18-3.791.902a13.6 13.6 0 0 0-2.527 1.986c-.723.722-1.264 1.625-1.625 2.528q-.541 1.354-1.084 2.166h-.722c-.541-.541-.902-1.083-1.263-1.805s-.542-1.445-.903-2.167l2.888-2.888a26 26 0 0 1 3.611-2.528c1.444-.722 2.889-1.444 4.514-1.986 1.805-.541 3.43-.722 5.235-.722 1.986 0 3.972.18 5.777.903 1.445.542 2.528 1.444 3.43 2.708q1.355 1.896 1.625 4.333c.361 1.986.542 3.791.361 5.777v13.36c0 1.263.18 2.347.542 3.61.361.903.903 1.806 1.625 2.347.722.722 1.805 1.084 2.888.903h.542zm-14.804-16.61h-.723c-1.083 0-2.166.181-3.25.362-1.082.36-1.985.722-2.888 1.444-.902.541-1.625 1.444-2.166 2.347-.542 1.083-.903 2.347-.722 3.61a7.9 7.9 0 0 0 1.444 4.514c1.083 1.264 2.527 1.805 4.152 1.805 1.083 0 2.167-.18 3.07-.722l1.624-1.083c0-.361-.18-1.083-.18-1.805 0-.723-.18-1.625-.18-2.347zM496.203 177.018v-1.986c0-.722-.18-1.264-.18-1.986-.181-.541-.362-1.083-.723-1.444-.36-.361-.722-.542-1.263-.542-.542 0-1.084 0-1.445.18l-.902.181v-2.166c2.527-.903 4.874-1.444 7.402-1.986 1.986-.361 4.152-.542 6.138-.722v4.333c.542-.542 1.264-.903 1.805-1.445.722-.541 1.625-1.083 2.528-1.444a10.9 10.9 0 0 1 3.43-1.083c1.444-.361 2.889-.542 4.333-.361 1.625 0 3.25.18 4.694.722 1.444.361 2.527 1.264 3.61 2.166 1.084 1.264 1.986 2.528 2.347 4.153.542 2.166.903 4.333.903 6.499v14.985c0 .902 0 1.624.18 2.527 0 .542.181 1.083.362 1.444.18.361.541.722.902.903.542.18 1.084.361 1.625.361l1.625.18v1.986H514.98v-1.985l1.625-.18c.541 0 1.083-.181 1.624-.362.362-.18.723-.361.903-.903.18-.541.361-.902.361-1.444 0-.903.18-1.625.18-2.527v-10.833c0-1.444 0-3.069-.18-4.694 0-1.444-.36-2.888-.902-4.332-.542-1.264-1.264-2.347-2.347-3.07-1.264-.902-2.889-1.263-4.514-1.263-1.444 0-2.708.18-3.791.902-.903.542-1.625 1.264-2.347 1.986v21.304c0 .902 0 1.624.18 2.527 0 .542.181 1.083.362 1.444.18.361.541.722.902.903.542.18 1.083.361 1.625.361l1.625.18v1.986H491.87v-1.985l1.625-.18c.542 0 1.083-.181 1.625-.362.361-.18.722-.361.903-.903.18-.541.36-.902.36-1.444 0-.903.181-1.625.181-2.527v-18.054zM535.74 200.127l1.625-.181c.542 0 1.084-.18 1.625-.361.361-.18.722-.361.903-.722.18-.542.36-.903.36-1.445 0-.902.181-1.624.181-2.527V160.77c0-2.528 0-4.875-.36-7.402-.181-1.445-.903-2.347-2.167-2.347h-2.167v-1.806c1.625-.36 2.89-.541 4.333-.722 1.445-.18 2.347-.36 3.43-.541 1.084-.18 2.167-.18 3.07-.361.902-.181 1.986 0 3.069 0v34.843h1.805c.542 0 1.083-.18 1.625-.361.542-.18 1.083-.542 1.625-.903a8.6 8.6 0 0 0 1.805-1.805l2.528-2.889c.902-1.083 1.805-2.166 2.708-3.43.36-.541.541-1.264.722-1.986 0-.36-.18-.541-.722-.722l-1.625-.361-2.347-.361v-2.166h16.79v1.985l-1.445.18c-.902.181-1.985.362-2.708.723-.902.361-1.624.903-2.347 1.444-1.083.903-1.985 1.986-3.069 3.07-1.263 1.263-2.888 3.069-5.055 5.235l5.236 8.124c1.444 2.167 2.708 3.972 3.61 5.597.903 1.625 1.806 2.708 2.528 3.43a8.6 8.6 0 0 0 1.805 1.805c.362.361.903.542 1.445.722.541.181.902.181 1.444.181v1.986h-5.777c-1.625 0-3.25-.18-4.694-.542-1.083-.36-2.167-.902-2.889-1.625-.902-.722-1.624-1.805-2.166-2.708-.722-1.083-1.444-2.347-2.528-3.971-1.083-1.625-1.624-2.708-2.166-3.792-.542-.902-.903-1.624-1.625-2.527-.36-.542-.903-.903-1.444-1.264-.542-.361-1.264-.361-1.986-.361h-1.083v9.568c0 .903 0 1.625.18 2.528 0 .542.18 1.083.361 1.444.18.361.542.722.903.903.542.18 1.083.361 1.625.361l1.625.18v1.986H535.74z"/></svg>