<svg xmlns="http://www.w3.org/2000/svg" width="32" height="24" fill="none"><path fill="#00927b" d="M28 0H4a4 4 0 0 0-4 4v16a4 4 0 0 0 4 4h24a4 4 0 0 0 4-4V4a4 4 0 0 0-4-4"/><path fill="#fff" fill-rule="evenodd" d="M23.548 11.625c0 2.197-.939 4.322-2.186 5.582-.794.792-1.516 1.278-2.583 1.747l-.108-.198a7.14 7.14 0 0 0 1.41-1.117c1.39-1.332 2.312-3.637 2.312-5.528 0-.288 0-.864-.037-1.278-.162.81-.669 1.674-1.373 2.377-.198.198-.487.504-.704.612 0-.414-.162-1.369-.361-1.927.27-.216.415-.378.668-.612.578-.594.957-1.351.957-1.981 0-.36-.163-.738-.451-1.026-.29-.288-.885-.504-1.481-.504-.705 0-1.752.378-2.294.774 1.101 1.116 1.77 2.323 2.186 3.835.18.65.27 1.297.27 1.945 0 1.17-.288 2.287-.795 3.17-.813 1.404-2.04 2.196-3.648 2.196-1.915 0-3.703-.936-5.04-2.287-1.535-1.548-2.294-3.439-2.294-5.384 0-.342.018-.666.072-1.044h.218a8.29 8.29 0 0 0 .253 1.782c.307 1.207 1.137 2.54 2.184 3.584.76.756 1.88 1.494 2.656 1.8-.596-.486-1.174-1.386-1.463-2.395-.072-.27-.144-.63-.144-.882.36.216 1.264.54 1.841.63.127.83.435 1.747 1.049 2.36.307.305.668.503 1.12.503.685 0 1.228-.504 1.571-1.08.343-.594.56-1.657.47-2.377a7.97 7.97 0 0 1-2.204.324 8.2 8.2 0 0 1-2.222-.324c-1.264-.342-2.42-.99-3.251-1.818-.885-.883-1.571-2.107-1.571-3.368 0-1.314.668-2.413 1.553-3.313 1.481-1.476 3.594-2.233 5.671-2.233 1.68 0 3.179.577 4.534 1.567l-.108.18c-1.085-.594-2.222-.882-3.504-.882-1.933 0-3.776.594-5.202 1.674.433-.144.92-.216 1.282-.216.632 0 1.788.18 2.348.522-.397.234-1.12.81-1.5 1.26-.541-.215-1.21-.377-1.805-.377-.56 0-1.175.126-1.572.54a1.49 1.49 0 0 0-.38.972c0 .756.416 1.387.922 1.909.362.378.85.72 1.229.9.415-1.53 1.119-2.755 2.221-3.853 1.373-1.351 3.161-2.107 4.732-2.107 1.193-.018 2.204.324 3.052 1.17.904.919 1.5 2.539 1.5 4.196zm-5.96 1.26c-.38-1.17-1.085-2.232-1.933-3.061-.83.883-1.39 2.035-1.68 3.187.488.11.994.163 1.5.163.721 0 1.427-.108 2.113-.289z" clip-rule="evenodd"/></svg>