<svg fill="none" height="512" viewBox="0 0 512 512" width="512" xmlns="http://www.w3.org/2000/svg"><g fill="#fff"><path d="m264.377 237.688v107.427c6.16-13.552 19.958-22.915 35.727-22.915s29.321 9.363 35.727 22.915v-107.673c0-33.756-13.552-64.554-35.727-86.73-22.175 22.668-35.727 53.221-35.727 86.976z"/><path d="m511.754 361.624c0-19.712-16.016-35.727-35.727-35.727s-35.727 16.015-35.727 35.727c0 16.261 10.842 29.813 25.625 34.248 3.203.985 6.652 1.478 10.102 1.478 19.711 0 35.727-16.015 35.727-35.726z"/><path d="m88.2085 237.441v.247 107.426c6.1598-13.305 19.9575-22.668 35.7265-22.668s29.321 9.363 35.727 22.914v-107.672-.247c0-33.755-13.798-64.308-35.727-86.483-21.929 22.175-35.4801 52.728-35.7265 86.483z"/><path d="m300.104 326.143c-19.711 0-35.727 16.015-35.727 35.726 0 3.696.493 7.146 1.725 10.595.247.986.739 2.218 1.232 3.203 0 .247.247.246.247.493.492.985.739 1.725 1.232 2.71.246.247.246.493.492.739.493.74.986 1.479 1.479 2.218.246.246.246.493.492.493.493.739.986 1.478 1.725 2.217.739.986 1.478 1.725 2.218 2.464 5.667 5.667 13.058 9.363 21.682 10.348 1.232 0 2.464.247 3.696.247s2.217 0 3.203-.247h.986c.739 0 1.478-.246 2.463-.246.247 0 .74 0 .986-.246.986-.247 1.971-.493 2.957-.739.985-.247 1.971-.74 2.956-.986.247-.246.74-.246.986-.493.493-.246 1.232-.493 1.725-.739s.739-.493 1.232-.739c.492-.247.985-.493 1.478-.986.493-.246.739-.492 1.232-.739.493-.246.985-.739 1.478-.985.739-.493 1.232-.986 1.971-1.725.493-.493.74-.739 1.232-1.232.493-.493.74-.986 1.232-1.232.247-.246.493-.493.739-.986.493-.492.74-.985 1.232-1.478.247-.246.493-.493.74-.986.492-.492.739-.985 1.232-1.724.246-.247.246-.493.492-.739 1.232-2.218 2.464-4.436 3.203-6.899v-.247c.247-.739.493-1.478.74-2.217 0-.247 0-.493.246-.493.246-.739.246-1.478.493-2.464 0-.246 0-.246 0-.493.246-1.725.493-3.696.493-5.667-.74-19.711-16.755-35.726-36.22-35.726z"/><path d="m159.662 361.624c0-19.712-16.016-35.727-35.727-35.727s-35.4801 15.769-35.7265 35.48v.247c0 6.159 1.4784 11.826 4.1887 17.001.9855 1.971 2.4639 3.942 3.9422 5.667 1.4784 1.724 2.9567 3.449 4.9276 4.927 1.725 1.479 3.696 2.711 5.667 3.943.986.492 1.971.985 3.203 1.478 4.189 1.725 8.87 2.71 13.798 2.71h.247.246c.986 0 1.971 0 2.957-.246h.739c.985 0 1.971-.246 2.956-.493h.247c.985-.246 1.971-.493 2.957-.739h.246c.986-.246 1.971-.739 3.203-1.232h.246c1.972-.986 3.943-1.971 5.914-3.203 9.363-6.653 15.769-17.494 15.769-29.813z"/><path d="m297.394 148.248c-22.176-21.189-52.235-34.248-85.498-34.248-33.016 0-63.076 13.059-85.498 34.248 19.712 19.958 32.031 45.583 35.727 73.178 6.899-20.943 26.61-35.973 49.771-35.973s42.872 15.277 49.771 35.973c3.449-27.595 15.769-52.974 35.727-73.178z"/><path d="m71.4533 149.727c0-19.712-16.0154-35.727-35.7266-35.727-19.7113 0-35.7267 16.015-35.7267 35.727 0 19.711 16.0154 35.726 35.7267 35.726 19.7112-.246 35.7266-16.015 35.7266-35.726z"/><path d="m440.546 345.36c6.16-13.551 19.958-22.914 35.727-22.914s29.321 9.363 35.727 22.914v-107.426c0-68.251-55.438-123.688-123.688-123.688-33.017 0-63.076 13.058-85.498 34.248 19.711 20.204 32.031 45.582 35.727 73.178 6.899-20.943 26.61-35.973 49.771-35.973 28.827 0 52.481 23.407 52.481 52.481v107.18z"/><path d="m121.224 148.247c-17.74-17-40.408-28.827-65.7862-32.769 11.8268 6.898 19.7113 19.464 19.7113 34.001 0 17.248-11.334 32.031-26.8566 37.205 17.4937 4.435 31.5379 17.494 37.2049 34.495 3.6959-27.349 16.0156-52.727 35.7266-72.932z"/></g></svg>