<svg height="360" viewBox="0 0 640 360" width="640" xmlns="http://www.w3.org/2000/svg"><g fill="none" fill-rule="evenodd" transform="translate(80 140)"><path d="m91.0148675 33.1825038c0-7.7741866 6.2572722-14.0314588 14.0314585-14.0314588 7.774187 0 14.031459 6.2572722 14.031459 14.0314588v33.1825038c0 5.3092005 4.361129 9.4807153 9.480715 9.4807153 5.309201 0 9.480716-4.3611291 9.480716-9.4807153v-33.1825038c.189614-18.3925878-14.600302-33.1825038-32.99289-33.1825038-9.1014865 0-17.4445161 3.79228615-23.512174 9.85994398 5.8780435 6.06765782 9.4807155 14.22107302 9.4807155 23.32255982z" fill="#20d1cc"/><path d="m72.0534368 33.1825038c0-9.1014868 3.6026717-17.254902 9.4807152-23.32255982-6.0676578-6.06765783-14.4106872-9.85994398-23.512174-9.85994398-9.2911011 0-17.6341305 3.79228615-23.5121741 9.85994398 5.8780436 5.87804352 9.4807155 14.22107302 9.4807155 23.13294552 0-7.7741867 6.2572719-14.0314588 14.0314586-14.0314588 7.7741866.1896143 14.0314588 6.4468865 14.0314588 14.2210731z" fill="#05d0e0"/><path d="m91.0148675 66.3650076v-33.1825038c0-9.1014868-3.602672-17.254902-9.4807155-23.32255982-5.8780435 6.06765782-9.4807152 14.22107302-9.4807152 23.32255982v33.1825038c0 2.6546003 1.1376858 4.9299719 2.8442146 6.826115 1.7065288 1.7065288 4.1715147 2.8442146 6.826115 2.8442146 5.1195864-.1896143 9.2911011-4.5507434 9.2911011-9.6703296z" fill="#01a9b2"/><path d="m10.8080155 0c-5.30920059 0-9.48071535 4.36112907-9.48071535 9.48071537 0 5.30920063 4.36112907 9.48071533 9.48071535 9.48071533 7.7741866 0 14.0314587 6.2572721 14.0314587 14.0314588 0-9.1014868 3.6026719-17.254902 9.4807154-23.13294552-5.8780435-6.06765783-14.221073-9.85994398-23.5121741-9.85994398z" fill="#0282c9"/><path d="m24.8394742 32.9928895v33.1825038c0 5.3092005 4.361129 9.4807152 9.4807154 9.4807152 1.7065288 0 3.2234433-.3792284 4.5507434-1.1376858 3.0338289-1.7065288 4.929972-4.7403577 4.929972-8.3430294v-32.9928895c0-9.1014868-3.6026719-17.254902-9.4807154-23.1329455-5.8780435 5.8780435-9.4807154 14.0314587-9.4807154 22.9433312z" fill="#016bb1"/><circle cx="10.808" cy="9.481" fill="#06429e" r="9.481"/><circle cx="34.32" cy="66.365" fill="#01569a" r="9.481"/><circle cx="81.534" cy="66.365" fill="#008c9d" r="9.481"/><circle cx="128.748" cy="66.365" fill="#03aba3" r="9.481"/><g fill="#06429e" transform="translate(163.068 18.961)"><path d="m28.4421461 10.6184012c-3.4130576 0-6.8261151 1.5169145-8.5326438 5.3092006-1.1376859-3.9819004-4.3611291-5.3092006-8.1534153-5.3092006-2.84421457 0-5.68842918 1.1376858-7.20534362 3.9819005v-1.5169145c0-1.1376858-.94807154-2.0857574-2.0857574-2.0857574-1.13768583 0-2.08575736.9480716-2.08575736 2.0857574v20.6679594c0 1.137686.94807153 2.0857575 2.08575736 2.0857575 1.13768586 0 2.0857574-.9480715 2.0857574-2.0857575v-12.3249299c0-3.9819004 2.6546003-7.0157294 6.63650072-7.0157294 4.3611291 0 6.6365008 3.033829 6.6365008 7.0157294v12.3249299c0 1.137686.9480715 2.0857575 2.0857574 2.0857575 1.1376858 0 2.0857573-.9480715 2.0857573-2.0857575v-12.3249299c0-3.9819004 2.6546002-7.0157294 6.6365008-7.0157294 4.3611291 0 6.4468866 2.8442147 6.4468866 7.0157294v12.3249299c0 1.137686.9480714 2.0857575 2.0857572 2.0857575s2.0857575-.9480715 2.0857575-2.0857575v-12.3249299c-.568843-6.6365007-4.1715147-10.8080155-10.8080156-10.8080155zm70.7261367 0c-3.4130576 0-6.8261152 1.5169145-8.532644 5.3092006-1.1376858-3.9819004-4.361129-5.3092006-8.1534151-5.3092006-2.8442146 0-5.6884292 1.1376858-7.2053436 3.9819005v-1.5169145c0-1.1376858-.9480717-2.0857574-2.0857575-2.0857574s-2.0857575.9480716-2.0857575 2.0857574v20.6679594c0 1.137686.9480717 2.0857575 2.0857575 2.0857575s2.0857575-.9480715 2.0857575-2.0857575v-12.3249299c0-3.9819004 2.6546002-7.0157294 6.6365006-7.0157294 4.3611291 0 6.6365009 3.033829 6.6365009 7.0157294v12.3249299c0 1.137686.9480714 2.0857575 2.0857572 2.0857575 1.137686 0 2.0857575-.9480715 2.0857575-2.0857575v-12.3249299c0-3.9819004 2.6546002-7.0157294 6.6365006-7.0157294 4.3611291 0 6.4468861 2.8442147 6.4468861 7.0157294v12.3249299c0 1.137686.948072 2.0857575 2.085758 2.0857575s2.085757-.9480715 2.085757-2.0857575v-12.3249299c-.568843-6.6365007-3.9819-10.8080155-10.8080152-10.8080155z"/><path d="m65.416936 24.8394742c.9480716 0 1.8961431-.7584572 1.8961431-1.8961429 0-8.532644-5.3092007-12.5145444-12.32493-12.5145444-7.394958 0-12.7041585 5.3092006-12.7041585 12.7041587 0 7.7741864 5.3092005 12.7041585 12.8937728 12.7041585 3.6026719 0 7.5845723-1.3273002 10.0495582-3.7922861.3792287-.3792286.568843-.7584573.568843-1.3273003 0-.9480715-.7584573-1.8961429-1.8961431-1.8961429-.5688428 0-.9480715.1896143-1.3273001.5688428-1.7065288 1.7065288-4.7403577 2.6546004-7.394958 2.6546004-4.7403577 0-8.3430294-2.8442148-8.9118724-7.2053438zm-18.9614307-3.4130575c.7584571-4.7403577 4.3611291-7.2053437 8.5326438-7.2053437 4.7403577 0 7.9638009 2.464986 8.1534153 7.2053437zm119.2673997 3.4130575c.948071 0 1.896143-.7584572 1.896143-1.8961429 0-8.532644-5.309201-12.5145444-12.32493-12.5145444-7.394958 0-12.704159 5.3092006-12.704159 12.7041587 0 7.7741864 5.309201 12.7041585 12.893773 12.7041585 3.602672 0 7.584572-1.3273002 10.049558-3.7922861.379229-.3792286.568843-.7584573.568843-1.3273003 0-.9480715-.758457-1.8961429-1.896143-1.8961429-.568843 0-.948071.1896143-1.3273.5688428-1.706529 1.7065288-4.740358 2.6546004-7.394958 2.6546004-4.740358 0-8.34303-2.8442148-8.911872-7.2053438zm-18.961431-3.4130575c.758457-4.7403577 4.361129-7.2053437 8.532644-7.2053437 4.740357 0 7.963801 2.464986 8.153415 7.2053437zm116.992028 3.4130575c.948071 0 1.896143-.7584572 1.896143-1.8961429 0-8.532644-5.309202-12.5145444-12.32493-12.5145444-7.394958 0-12.70416 5.3092006-12.70416 12.7041587 0 7.7741864 5.309202 12.7041585 12.893773 12.7041585 3.602672 0 7.584574-1.3273002 10.049558-3.7922861.379231-.3792286.568844-.7584573.568844-1.3273003 0-.9480715-.758457-1.8961429-1.896144-1.8961429-.568843 0-.948071.1896143-1.327299.5688428-1.706529 1.7065288-4.740359 2.6546004-7.394959 2.6546004-4.740356 0-8.34303-2.8442148-8.911871-7.2053438zm-18.961432-3.4130575c.758459-4.7403577 4.36113-7.2053437 8.532645-7.2053437 4.740356 0 7.9638 2.464986 8.153415 7.2053437zm-117.181641-10.8080155c-3.413058 0-7.394958 1.5169145-9.101487 4.7403577v-12.51454429c0-1.13768584-.948072-2.08575738-2.085757-2.08575738-1.137686 0-2.085758.94807154-2.085758 2.08575738v30.90713199c0 1.137686.948072 2.0857575 2.085758 2.0857575 1.137685 0 2.085757-.9480715 2.085757-2.0857575v-2.6546002c1.896143 3.2234432 5.498815 4.5507433 9.101487 4.5507433 7.015729 0 12.514544-4.5507433 12.514544-12.5145441 0-8.1534153-5.498815-12.5145444-12.514544-12.5145444zm-.189614 21.4264168c-4.740358 0-8.532644-3.6026719-8.532644-8.9118724 0-5.3092007 3.792286-8.9118726 8.532644-8.9118726 4.740357 0 8.532643 3.033829 8.532643 8.9118726 0 5.6884292-3.792286 8.9118724-8.532643 8.9118724zm78.121094-21.4264168c-3.602672 0-7.205344 1.5169145-9.101487 4.5507434v-2.6546003c0-1.1376859-.948071-2.0857574-2.085757-2.0857574s-2.085757.9480715-2.085757 2.0857574v32.4240465c0 1.1376858.948071 2.0857575 2.085757 2.0857575s2.085757-.9480717 2.085757-2.0857575 0-14.0314588 0-14.0314588c1.706529 3.2234433 5.68843 4.7403577 9.101487 4.7403577 7.01573 0 12.32493-4.361129 12.32493-12.7041584 0-7.7741867-5.3092-12.3249301-12.32493-12.3249301zm-.189614 21.4264168c-4.740358 0-8.532644-3.6026719-8.532644-8.9118724 0-5.3092007 3.792286-8.9118726 8.532644-8.9118726 4.740357 0 8.532644 3.2234433 8.532644 8.7222583 0 6.0676578-3.792287 9.1014867-8.532644 9.1014867z" fill-rule="nonzero"/><path d="m187.907778 11.5664728c-1.3273-.568843-2.6546-.9480716-4.361129-.9480716-3.033829 0-6.067657 1.1376858-7.584572 3.7922861v-1.7065287c0-1.1376858-.948071-1.8961431-1.896143-1.8961431-1.137686 0-1.896143.9480715-1.896143 1.8961431v21.2368023c0 1.1376861.948072 2.0857575 2.085757 2.0857575 1.137686 0 2.085758-.9480714 2.085758-2.0857575 0-1.1376858 0-11.9457013 0-11.9457013 0-4.5507433 2.6546-7.2053436 7.205343-7.2053436 1.137686 0 2.085758.1896143 3.033829.5688429.189615.1896143.568843.1896143.758458.1896143 1.137685 0 1.896143-.9480715 1.896143-1.8961431-.189615-1.1376858-.758458-1.7065287-1.327301-2.0857573zm50.437406 0c-1.3273-.568843-2.6546-.9480716-4.361128-.9480716-3.03383 0-6.067659 1.1376858-7.584574 3.7922861v-1.7065287c0-1.1376858-.948071-1.8961431-1.896143-1.8961431-1.137685 0-1.896143.9480715-1.896143 1.8961431v21.2368023c0 1.1376861.948071 2.0857575 2.085758 2.0857575 1.137685 0 2.085757-.9480714 2.085757-2.0857575 0-1.1376858 0-11.9457013 0-11.9457013 0-4.5507433 2.654602-7.2053436 7.205345-7.2053436 1.137684 0 2.085756.1896143 3.033828.5688429.189615.1896143.568843.1896143.758456.1896143 1.137687 0 1.896144-.9480715 1.896144-1.8961431-.189613-1.1376858-.758457-1.7065287-1.3273-2.0857573zm40.767077 9.4807153c-3.03383-.3792286-6.067658-.9480715-6.067658-3.4130575 0-2.6546003 2.6546-3.9819005 6.067658-3.9819005 1.516913 0 4.171513.3792286 5.498815.9480716l1.137685.5688429c.189615.1896143.568843.1896143.758456.1896143.948072 0 1.896144-.7584572 1.896144-1.8961431 0-.7584572-.568842-1.5169144-1.137685-1.7065288-.379228-.1896142-.758459-.3792286-1.137687-.3792286-2.275371-.7584572-4.740356-1.1376858-6.826115-1.1376858-4.740358 0-10.049558 2.0857574-10.049558 7.394958 0 5.1195863 5.119587 6.2572721 9.859945 7.0157292 3.792285.3792287 6.826115 1.137686 6.826115 3.9819006-.189615 3.2234433-3.981902 3.7922861-6.446886 3.7922861-2.275372 0-4.550744-.5688428-6.446887-1.5169145-.189615-.1896143-.568843-.1896143-.948072-.1896143-1.137686 0-1.896143.9480717-1.896143 1.8961431 0 .7584574.379228 1.5169145 1.137685 1.7065288 2.464987 1.1376858 4.929973 1.7065288 7.963801 1.7065288 5.498815 0 10.239174-2.2753718 10.428787-7.394958 0-6.0676578-6.067656-6.8261152-10.6184-7.5845723zm23.891403 0c-3.03383-.3792286-6.067658-.9480715-6.067658-3.4130575 0-2.6546003 2.6546-3.9819005 6.067658-3.9819005 1.516913 0 4.171513.3792286 5.498815.9480716l1.137685.5688429c.189615.1896143.568843.1896143.758456.1896143.948072 0 1.896143-.7584572 1.896143-1.8961431 0-.7584572-.568841-1.5169144-1.137684-1.7065288-.379229-.1896142-.758459-.3792286-1.137687-.3792286-2.275372-.7584572-4.740356-1.1376858-6.826115-1.1376858-4.740358 0-10.049558 2.0857574-10.049558 7.394958 0 5.1195863 5.119587 6.2572721 9.859945 7.0157292 3.792285.3792287 6.826115 1.137686 6.826115 3.9819006-.189615 3.2234433-3.981902 3.7922861-6.446887 3.7922861-2.275371 0-4.550743-.5688428-6.446886-1.5169145-.189615-.1896143-.568844-.1896143-.948072-.1896143-1.137687 0-1.896143.9480717-1.896143 1.8961431 0 .7584574.379228 1.5169145 1.137684 1.7065288 2.464987 1.1376858 4.929974 1.7065288 7.963802 1.7065288 5.498815 0 10.239173-2.2753718 10.428786-7.394958 0-6.0676578-6.067656-6.8261152-10.618399-7.5845723z"/></g></g></svg>