<svg fill="none" height="512" viewBox="0 0 512 512" width="512" xmlns="http://www.w3.org/2000/svg"><path d="m0 0h512v512h-512z" fill="#fff"/><g clip-rule="evenodd" fill-rule="evenodd"><path d="m335.424 238.101c-.015-6.895 1.331-13.726 3.963-20.1 2.631-6.374 6.496-12.165 11.371-17.041 4.876-4.877 10.667-8.742 17.041-11.374 6.374-2.631 13.204-3.978 20.1-3.963 6.896-.016 13.727 1.331 20.101 3.962 6.374 2.632 12.166 6.497 17.042 11.373s8.741 10.668 11.373 17.042c2.631 6.374 3.978 13.205 3.962 20.101v124.098c0 19.859 16.306 35.454 35.455 35.454 19.858 0 35.458-16.306 35.458-35.454v-124.098c.714-68.788-54.599-124.101-123.391-124.101-34.037 0-65.239 14.182-87.933 36.875 21.983 22.694 35.455 53.186 35.455 87.226z" fill="#20d1cc"/><path d="m264.509 238.101c0-34.04 13.475-64.532 35.458-87.226-22.694-22.693-53.892-36.875-87.933-36.875-34.747 0-65.949 14.182-87.932 36.875 21.983 21.984 35.454 53.186 35.454 86.516-.016-6.897 1.33-13.729 3.962-20.104 2.631-6.374 6.497-12.166 11.373-17.043 4.877-4.877 10.669-8.742 17.044-11.374 6.374-2.631 13.206-3.978 20.103-3.961 29.074.71 52.474 24.111 52.474 53.188z" fill="#05d0e0"/><path d="m335.425 362.198v-124.097c0-34.041-13.475-64.532-35.454-87.226-21.987 22.694-35.462 53.185-35.462 87.226v124.097c0 9.93 4.256 18.438 10.64 25.529 6.38 6.384 15.599 10.636 25.528 10.636 19.149-.71 34.744-17.016 34.744-36.165z" fill="#01a9b2"/><path d="m35.4577 114c-19.8589 0-35.45428203 16.31-35.45428203 35.454 0 19.859 16.30598203 35.458 35.45428203 35.458 6.8957-.015 13.7264 1.332 20.1001 3.964 6.3736 2.632 12.1646 6.497 17.0404 11.373 4.8759 4.876 8.7404 10.667 11.3719 17.041s3.978 13.205 3.9622 20.101c0-34.041 13.4747-64.532 35.4577-86.516-21.983-22.693-53.1811-36.875-87.9323-36.875z" fill="#0282c9"/><path d="m87.9361 237.39v124.098c0 19.858 16.3059 35.458 35.4539 35.458 6.384 0 12.058-1.422 17.017-4.257 11.351-6.38 18.438-17.727 18.438-31.201v-123.387c0-34.041-13.471-64.532-35.455-86.516-11.26 11.269-20.188 24.648-26.2718 39.372-6.0837 14.723-9.2039 30.502-9.1821 46.433z" fill="#016bb1"/></g><path d="m35.458 184.916c19.5829 0 35.458-15.875 35.458-35.458s-15.8751-35.458-35.458-35.458-35.458 15.875-35.458 35.458 15.8751 35.458 35.458 35.458z" fill="#06429e"/><path d="m123.391 397.656c19.583 0 35.458-15.875 35.458-35.458s-15.875-35.458-35.458-35.458-35.4584 15.875-35.4584 35.458 15.8754 35.458 35.4584 35.458z" fill="#01569a"/><path d="m299.967 397.656c19.583 0 35.458-15.875 35.458-35.458s-15.875-35.458-35.458-35.458-35.458 15.875-35.458 35.458 15.875 35.458 35.458 35.458z" fill="#008c9d"/><path d="m476.542 397.656c19.583 0 35.458-15.875 35.458-35.458s-15.875-35.458-35.458-35.458-35.458 15.875-35.458 35.458 15.875 35.458 35.458 35.458z" fill="#03aba3"/></svg>