<svg width="512" height="512" viewBox="0 0 512 512" fill="none" xmlns="http://www.w3.org/2000/svg">
<rect width="512" height="512" fill="white"/>
<path fill-rule="evenodd" clip-rule="evenodd" d="M335.424 238.101C335.409 231.206 336.755 224.375 339.387 218.001C342.018 211.627 345.883 205.836 350.758 200.96C355.634 196.083 361.425 192.218 367.799 189.586C374.173 186.955 381.003 185.608 387.899 185.623C394.795 185.607 401.626 186.954 408 189.585C414.374 192.217 420.166 196.082 425.042 200.958C429.918 205.834 433.783 211.626 436.415 218C439.046 224.374 440.393 231.205 440.377 238.101V362.199C440.377 382.058 456.683 397.653 475.832 397.653C495.69 397.653 511.29 381.347 511.29 362.199V238.101C512.004 169.313 456.691 114 387.899 114C353.862 114 322.66 128.182 299.966 150.875C321.949 173.569 335.421 204.061 335.421 238.101H335.424Z" fill="#20D1CC"/>
<path fill-rule="evenodd" clip-rule="evenodd" d="M264.509 238.101C264.509 204.061 277.984 173.569 299.967 150.875C277.273 128.182 246.075 114 212.034 114C177.287 114 146.085 128.182 124.102 150.875C146.085 172.859 159.556 204.061 159.556 237.391C159.54 230.494 160.886 223.662 163.518 217.287C166.149 210.913 170.015 205.121 174.891 200.244C179.768 195.367 185.56 191.502 191.935 188.87C198.309 186.239 205.141 184.892 212.038 184.909C241.112 185.619 264.512 209.02 264.512 238.097L264.509 238.101Z" fill="#05D0E0"/>
<path fill-rule="evenodd" clip-rule="evenodd" d="M335.425 362.198V238.101C335.425 204.06 321.95 173.569 299.971 150.875C277.984 173.569 264.509 204.06 264.509 238.101V362.198C264.509 372.128 268.765 380.636 275.149 387.727C281.529 394.111 290.748 398.363 300.677 398.363C319.826 397.653 335.421 381.347 335.421 362.198H335.425Z" fill="#01A9B2"/>
<path fill-rule="evenodd" clip-rule="evenodd" d="M35.4577 114C15.5988 114 0.00341797 130.31 0.00341797 149.454C0.00341797 169.313 16.3094 184.912 35.4577 184.912C42.3534 184.897 49.1841 186.244 55.5578 188.876C61.9314 191.508 67.7224 195.373 72.5982 200.249C77.4741 205.125 81.3386 210.916 83.9701 217.29C86.6016 223.664 87.9481 230.495 87.9323 237.391C87.9323 203.35 101.407 172.859 123.39 150.875C101.407 128.182 70.2089 114 35.4577 114Z" fill="#0282C9"/>
<path fill-rule="evenodd" clip-rule="evenodd" d="M87.9361 237.39V361.488C87.9361 381.346 104.242 396.946 123.39 396.946C129.774 396.946 135.448 395.524 140.407 392.689C151.758 386.309 158.845 374.962 158.845 361.488V238.101C158.845 204.06 145.374 173.569 123.39 151.585C112.13 162.854 103.202 176.233 97.1182 190.957C91.0345 205.68 87.9143 221.459 87.9361 237.39Z" fill="#016BB1"/>
<path d="M35.458 184.916C55.0409 184.916 70.916 169.041 70.916 149.458C70.916 129.875 55.0409 114 35.458 114C15.8751 114 0 129.875 0 149.458C0 169.041 15.8751 184.916 35.458 184.916Z" fill="#06429E"/>
<path d="M123.391 397.656C142.974 397.656 158.849 381.781 158.849 362.198C158.849 342.615 142.974 326.74 123.391 326.74C103.808 326.74 87.9326 342.615 87.9326 362.198C87.9326 381.781 103.808 397.656 123.391 397.656Z" fill="#01569A"/>
<path d="M299.967 397.656C319.55 397.656 335.425 381.781 335.425 362.198C335.425 342.615 319.55 326.74 299.967 326.74C280.384 326.74 264.509 342.615 264.509 362.198C264.509 381.781 280.384 397.656 299.967 397.656Z" fill="#008C9D"/>
<path d="M476.542 397.656C496.125 397.656 512 381.781 512 362.198C512 342.615 496.125 326.74 476.542 326.74C456.959 326.74 441.084 342.615 441.084 362.198C441.084 381.781 456.959 397.656 476.542 397.656Z" fill="#03ABA3"/>
</svg>
