<svg xmlns="http://www.w3.org/2000/svg" width="640" height="360" viewBox="0 0 640 360">
  <g fill="none" fill-rule="evenodd" transform="translate(80 140)">
    <path fill="#20D1CC" d="M91.0148675,33.1825038 C91.0148675,25.4083172 97.2721397,19.151045 105.046326,19.151045 C112.820513,19.151045 119.077785,25.4083172 119.077785,33.1825038 L119.077785,66.3650076 C119.077785,71.6742081 123.438914,75.8457229 128.5585,75.8457229 C133.867701,75.8457229 138.039216,71.4845938 138.039216,66.3650076 L138.039216,33.1825038 C138.22883,14.789916 123.438914,0 105.046326,0 C95.9448395,0 87.6018099,3.79228615 81.534152,9.85994398 C87.4121955,15.9276018 91.0148675,24.081017 91.0148675,33.1825038 L91.0148675,33.1825038 Z"/>
    <path fill="#05D0E0" d="M72.0534368,33.1825038 C72.0534368,24.081017 75.6561085,15.9276018 81.534152,9.85994398 C75.4664942,3.79228615 67.1234648,0 58.021978,0 C48.7308769,0 40.3878475,3.79228615 34.5098039,9.85994398 C40.3878475,15.7379875 43.9905194,24.081017 43.9905194,32.9928895 C43.9905194,25.2187028 50.2477913,18.9614307 58.021978,18.9614307 C65.7961646,19.151045 72.0534368,25.4083172 72.0534368,33.1825038 L72.0534368,33.1825038 Z"/>
    <path fill="#01A9B2" d="M91.0148675,66.3650076 L91.0148675,33.1825038 C91.0148675,24.081017 87.4121955,15.9276018 81.534152,9.85994398 C75.6561085,15.9276018 72.0534368,24.081017 72.0534368,33.1825038 L72.0534368,66.3650076 C72.0534368,69.0196079 73.1911226,71.2949795 74.8976514,73.1911226 C76.6041802,74.8976514 79.0691661,76.0353372 81.7237664,76.0353372 C86.8433528,75.8457229 91.0148675,71.4845938 91.0148675,66.3650076 Z"/>
    <path fill="#0282C9" d="M10.8080155,0 C5.49881491,0 1.32730015,4.36112907 1.32730015,9.48071537 C1.32730015,14.789916 5.68842922,18.9614307 10.8080155,18.9614307 C18.5822021,18.9614307 24.8394742,25.2187028 24.8394742,32.9928895 C24.8394742,23.8914027 28.4421461,15.7379875 34.3201896,9.85994398 C28.4421461,3.79228615 20.0991166,0 10.8080155,0 Z"/>
    <path fill="#016BB1" d="M24.8394742,32.9928895 C24.8394742,32.9928895 24.8394742,32.9928895 24.8394742,32.9928895 L24.8394742,66.1753933 C24.8394742,71.4845938 29.2006032,75.6561085 34.3201896,75.6561085 C36.0267184,75.6561085 37.5436329,75.2768801 38.870933,74.5184227 C41.9047619,72.8118939 43.800905,69.778065 43.800905,66.1753933 L43.800905,33.1825038 C43.800905,33.1825038 43.800905,33.1825038 43.800905,33.1825038 C43.800905,24.081017 40.1982331,15.9276018 34.3201896,10.0495583 C28.4421461,15.9276018 24.8394742,24.081017 24.8394742,32.9928895 Z"/>
    <circle cx="10.808" cy="9.481" r="9.481" fill="#06429E"/>
    <circle cx="34.32" cy="66.365" r="9.481" fill="#01569A"/>
    <circle cx="81.534" cy="66.365" r="9.481" fill="#008C9D"/>
    <circle cx="128.748" cy="66.365" r="9.481" fill="#03ABA3"/>
    <g fill="#06429E" transform="translate(163.068 18.961)">
      <path d="M28.4421461 10.6184012C25.0290885 10.6184012 21.616031 12.1353157 19.9095023 15.9276018 18.7718164 11.9457014 15.5483732 10.6184012 11.756087 10.6184012 8.91187243 10.6184012 6.06765782 11.756087 4.55074338 14.6003017 4.55074338 14.6003017 4.55074338 13.0833872 4.55074338 13.0833872 4.55074338 11.9457014 3.60267184 10.9976298 2.46498598 10.9976298 1.32730015 10.9976298.379228615 11.9457014.379228615 13.0833872.379228615 13.0833872.379228615 33.7513466.379228615 33.7513466.379228615 34.8890326 1.32730015 35.8371041 2.46498598 35.8371041 3.60267184 35.8371041 4.55074338 34.8890326 4.55074338 33.7513466L4.55074338 33.7513466 4.55074338 21.4264167C4.55074338 17.4445163 7.20534368 14.4106873 11.1872441 14.4106873 15.5483732 14.4106873 17.8237449 17.4445163 17.8237449 21.4264167L17.8237449 33.7513466 17.8237449 33.7513466C17.8237449 34.8890326 18.7718164 35.8371041 19.9095023 35.8371041 21.0471881 35.8371041 21.9952596 34.8890326 21.9952596 33.7513466L21.9952596 21.4264167C21.9952596 17.4445163 24.6498598 14.4106873 28.6317604 14.4106873 32.9928895 14.4106873 35.078647 17.254902 35.078647 21.4264167L35.078647 33.7513466 35.078647 33.7513466C35.078647 34.8890326 36.0267184 35.8371041 37.1644042 35.8371041 38.30209 35.8371041 39.2501617 34.8890326 39.2501617 33.7513466L39.2501617 21.4264167C38.6813187 14.789916 35.078647 10.6184012 28.4421461 10.6184012zM99.1682828 10.6184012C95.7552252 10.6184012 92.3421676 12.1353157 90.6356388 15.9276018 89.497953 11.9457014 86.2745098 10.6184012 82.4822237 10.6184012 79.6380091 10.6184012 76.7937945 11.756087 75.2768801 14.6003017 75.2768801 14.6003017 75.2768801 13.0833872 75.2768801 13.0833872 75.2768801 11.9457014 74.3288084 10.9976298 73.1911226 10.9976298 72.0534368 10.9976298 71.1053651 11.9457014 71.1053651 13.0833872 71.1053651 13.0833872 71.1053651 33.7513466 71.1053651 33.7513466 71.1053651 34.8890326 72.0534368 35.8371041 73.1911226 35.8371041 74.3288084 35.8371041 75.2768801 34.8890326 75.2768801 33.7513466L75.2768801 33.7513466 75.2768801 21.4264167C75.2768801 17.4445163 77.9314803 14.4106873 81.9133807 14.4106873 86.2745098 14.4106873 88.5498816 17.4445163 88.5498816 21.4264167L88.5498816 33.7513466 88.5498816 33.7513466C88.5498816 34.8890326 89.497953 35.8371041 90.6356388 35.8371041 91.7733248 35.8371041 92.7213963 34.8890326 92.7213963 33.7513466L92.7213963 21.4264167C92.7213963 17.4445163 95.3759965 14.4106873 99.3578969 14.4106873 103.719026 14.4106873 105.804783 17.254902 105.804783 21.4264167L105.804783 33.7513466 105.804783 33.7513466C105.804783 34.8890326 106.752855 35.8371041 107.890541 35.8371041 109.028227 35.8371041 109.976298 34.8890326 109.976298 33.7513466L109.976298 21.4264167C109.407455 14.789916 105.994398 10.6184012 99.1682828 10.6184012z"/>
      <path fill-rule="nonzero" d="M65.416936 24.8394742C66.3650076 24.8394742 67.3130791 24.081017 67.3130791 22.9433313 67.3130791 14.4106873 62.0038784 10.4287869 54.9881491 10.4287869 47.5931911 10.4287869 42.2839906 15.7379875 42.2839906 23.1329456 42.2839906 30.907132 47.5931911 35.8371041 55.1777634 35.8371041 58.7804353 35.8371041 62.7623357 34.5098039 65.2273216 32.044818 65.6065503 31.6655894 65.7961646 31.2863607 65.7961646 30.7175177 65.7961646 29.7694462 65.0377073 28.8213748 63.9000215 28.8213748 63.3311787 28.8213748 62.95195 29.0109891 62.5727214 29.3902176 60.8661926 31.0967464 57.8323637 32.044818 55.1777634 32.044818 50.4374057 32.044818 46.834734 29.2006032 46.265891 24.8394742L65.416936 24.8394742zM46.4555053 21.4264167C47.2139624 16.686059 50.8166344 14.221073 54.9881491 14.221073 59.7285068 14.221073 62.95195 16.686059 63.1415644 21.4264167L46.4555053 21.4264167zM165.722905 24.8394742C166.670976 24.8394742 167.619048 24.081017 167.619048 22.9433313 167.619048 14.4106873 162.309847 10.4287869 155.294118 10.4287869 147.89916 10.4287869 142.589959 15.7379875 142.589959 23.1329456 142.589959 30.907132 147.89916 35.8371041 155.483732 35.8371041 159.086404 35.8371041 163.068304 34.5098039 165.53329 32.044818 165.912519 31.6655894 166.102133 31.2863607 166.102133 30.7175177 166.102133 29.7694462 165.343676 28.8213748 164.20599 28.8213748 163.637147 28.8213748 163.257919 29.0109891 162.87869 29.3902176 161.172161 31.0967464 158.138332 32.044818 155.483732 32.044818 150.743374 32.044818 147.140702 29.2006032 146.57186 24.8394742L165.722905 24.8394742zM146.761474 21.4264167C147.519931 16.686059 151.122603 14.221073 155.294118 14.221073 160.034475 14.221073 163.257919 16.686059 163.447533 21.4264167L146.761474 21.4264167zM263.753502 24.8394742C264.701573 24.8394742 265.649645 24.081017 265.649645 22.9433313 265.649645 14.4106873 260.340443 10.4287869 253.324715 10.4287869 245.929757 10.4287869 240.620555 15.7379875 240.620555 23.1329456 240.620555 30.907132 245.929757 35.8371041 253.514328 35.8371041 257.117 35.8371041 261.098902 34.5098039 263.563886 32.044818 263.943117 31.6655894 264.13273 31.2863607 264.13273 30.7175177 264.13273 29.7694462 263.374273 28.8213748 262.236586 28.8213748 261.667743 28.8213748 261.288515 29.0109891 260.909287 29.3902176 259.202758 31.0967464 256.168928 32.044818 253.514328 32.044818 248.773972 32.044818 245.171298 29.2006032 244.602457 24.8394742L263.753502 24.8394742zM244.79207 21.4264167C245.550529 16.686059 249.1532 14.221073 253.324715 14.221073 258.065071 14.221073 261.288515 16.686059 261.47813 21.4264167L244.79207 21.4264167zM127.610429 10.6184012C124.197371 10.6184012 120.215471 12.1353157 118.508942 15.3587589L118.508942 2.84421461C118.508942 1.70652877 117.56087.758457229 116.423185.758457229 115.285499.758457229 114.337427 1.70652877 114.337427 2.84421461L114.337427 33.7513466C114.337427 34.8890326 115.285499 35.8371041 116.423185 35.8371041 117.56087 35.8371041 118.508942 34.8890326 118.508942 33.7513466L118.508942 31.0967464C120.405085 34.3201896 124.007757 35.6474897 127.610429 35.6474897 134.626158 35.6474897 140.124973 31.0967464 140.124973 23.1329456 140.124973 14.9795303 134.626158 10.6184012 127.610429 10.6184012zM127.420815 32.044818C122.680457 32.044818 118.888171 28.4421461 118.888171 23.1329456 118.888171 17.8237449 122.680457 14.221073 127.420815 14.221073 132.161172 14.221073 135.953458 17.254902 135.953458 23.1329456 135.953458 28.8213748 132.161172 32.044818 127.420815 32.044818zM205.541909 10.6184012C201.939237 10.6184012 198.336565 12.1353157 196.440422 15.1691446L196.440422 12.5145443C196.440422 11.3768584 195.492351 10.4287869 194.354665 10.4287869 193.216979 10.4287869 192.268908 11.3768584 192.268908 12.5145443 192.268908 12.5145443 192.268908 43.800905 192.268908 44.9385908 192.268908 46.0762766 193.216979 47.0243483 194.354665 47.0243483 195.492351 47.0243483 196.440422 46.0762766 196.440422 44.9385908 196.440422 43.800905 196.440422 30.907132 196.440422 30.907132 198.146951 34.1305753 202.128852 35.6474897 205.541909 35.6474897 212.557639 35.6474897 217.866839 31.2863607 217.866839 22.9433313 217.866839 15.1691446 212.557639 10.6184012 205.541909 10.6184012zM205.352295 32.044818C200.611937 32.044818 196.819651 28.4421461 196.819651 23.1329456 196.819651 17.8237449 200.611937 14.221073 205.352295 14.221073 210.092652 14.221073 213.884939 17.4445163 213.884939 22.9433313 213.884939 29.0109891 210.092652 32.044818 205.352295 32.044818z"/>
      <path d="M187.907778 11.5664728C186.580478 10.9976298 185.253178 10.6184012 183.546649 10.6184012 180.51282 10.6184012 177.478992 11.756087 175.962077 14.4106873L175.962077 12.7041586C175.962077 11.5664728 175.014006 10.8080155 174.065934 10.8080155 172.928248 10.8080155 172.169791 11.756087 172.169791 12.7041586 172.169791 12.7041586 172.169791 32.8032751 172.169791 33.9409609 172.169791 35.078647 173.117863 36.0267184 174.255548 36.0267184 175.393234 36.0267184 176.341306 35.078647 176.341306 33.9409609 176.341306 32.8032751 176.341306 21.9952596 176.341306 21.9952596 176.341306 17.4445163 178.995906 14.789916 183.546649 14.789916 184.684335 14.789916 185.632407 14.9795303 186.580478 15.3587589 186.770093 15.5483732 187.149321 15.5483732 187.338936 15.5483732 188.476621 15.5483732 189.235079 14.6003017 189.235079 13.6522301 189.045464 12.5145443 188.476621 11.9457014 187.907778 11.5664728zM238.345184 11.5664728C237.017884 10.9976298 235.690584 10.6184012 233.984056 10.6184012 230.950226 10.6184012 227.916397 11.756087 226.399482 14.4106873L226.399482 12.7041586C226.399482 11.5664728 225.451411 10.8080155 224.503339 10.8080155 223.365654 10.8080155 222.607196 11.756087 222.607196 12.7041586 222.607196 12.7041586 222.607196 32.8032751 222.607196 33.9409609 222.607196 35.078647 223.555267 36.0267184 224.692954 36.0267184 225.830639 36.0267184 226.778711 35.078647 226.778711 33.9409609 226.778711 32.8032751 226.778711 21.9952596 226.778711 21.9952596 226.778711 17.4445163 229.433313 14.789916 233.984056 14.789916 235.12174 14.789916 236.069812 14.9795303 237.017884 15.3587589 237.207499 15.5483732 237.586727 15.5483732 237.77634 15.5483732 238.914027 15.5483732 239.672484 14.6003017 239.672484 13.6522301 239.482871 12.5145443 238.914027 11.9457014 238.345184 11.5664728zM279.112261 21.0471881C276.078431 20.6679595 273.044603 20.0991166 273.044603 17.6341306 273.044603 14.9795303 275.699203 13.6522301 279.112261 13.6522301 280.629174 13.6522301 283.283774 14.0314587 284.611076 14.6003017L285.748761 15.1691446 285.748761 15.1691446C285.938376 15.3587589 286.317604 15.3587589 286.507217 15.3587589 287.455289 15.3587589 288.403361 14.6003017 288.403361 13.4626158 288.403361 12.7041586 287.834519 11.9457014 287.265676 11.756087 286.886448 11.5664728 286.507217 11.3768584 286.127989 11.3768584 283.852618 10.6184012 281.387633 10.2391726 279.301874 10.2391726 274.561516 10.2391726 269.252316 12.32493 269.252316 17.6341306 269.252316 22.7537169 274.371903 23.8914027 279.112261 24.6498598 282.904546 25.0290885 285.938376 25.7875458 285.938376 28.6317604 285.748761 31.8552037 281.956474 32.4240465 279.49149 32.4240465 277.216118 32.4240465 274.940746 31.8552037 273.044603 30.907132L273.044603 30.907132C272.854988 30.7175177 272.47576 30.7175177 272.096531 30.7175177 270.958845 30.7175177 270.200388 31.6655894 270.200388 32.6136608 270.200388 33.3721182 270.579616 34.1305753 271.338073 34.3201896L271.338073 34.3201896C271.338073 34.3201896 271.338073 34.3201896 271.338073 34.3201896 271.338073 34.3201896 271.338073 34.3201896 271.338073 34.3201896 273.80306 35.4578754 276.268046 36.0267184 279.301874 36.0267184 284.800689 36.0267184 289.541048 33.7513466 289.730661 28.6317604 289.730661 22.5641026 283.663005 21.8056452 279.112261 21.0471881zM303.003664 21.0471881C299.969834 20.6679595 296.936006 20.0991166 296.936006 17.6341306 296.936006 14.9795303 299.590606 13.6522301 303.003664 13.6522301 304.520577 13.6522301 307.175177 14.0314587 308.502479 14.6003017L309.640164 15.1691446 309.640164 15.1691446C309.829779 15.3587589 310.209007 15.3587589 310.39862 15.3587589 311.346692 15.3587589 312.294763 14.6003017 312.294763 13.4626158 312.294763 12.7041586 311.725922 11.9457014 311.157079 11.756087 310.77785 11.5664728 310.39862 11.3768584 310.019392 11.3768584 307.74402 10.6184012 305.279036 10.2391726 303.193277 10.2391726 298.452919 10.2391726 293.143719 12.32493 293.143719 17.6341306 293.143719 22.7537169 298.263306 23.8914027 303.003664 24.6498598 306.795949 25.0290885 309.829779 25.7875458 309.829779 28.6317604 309.640164 31.8552037 305.847877 32.4240465 303.382892 32.4240465 301.107521 32.4240465 298.832149 31.8552037 296.936006 30.907132L296.936006 30.907132C296.746391 30.7175177 296.367162 30.7175177 295.987934 30.7175177 294.850247 30.7175177 294.091791 31.6655894 294.091791 32.6136608 294.091791 33.3721182 294.471019 34.1305753 295.229475 34.3201896L295.229475 34.3201896C295.229475 34.3201896 295.229475 34.3201896 295.229475 34.3201896 295.229475 34.3201896 295.229475 34.3201896 295.229475 34.3201896 297.694462 35.4578754 300.159449 36.0267184 303.193277 36.0267184 308.692092 36.0267184 313.43245 33.7513466 313.622063 28.6317604 313.622063 22.5641026 307.554407 21.8056452 303.003664 21.0471881z"/>
    </g>
  </g>
</svg>
