<svg width="512" height="512" viewBox="0 0 512 512" fill="none" xmlns="http://www.w3.org/2000/svg">
<path d="M264.377 237.688V345.115C270.537 331.563 284.335 322.2 300.104 322.2C315.873 322.2 329.425 331.563 335.831 345.115V237.442C335.831 203.686 322.279 172.888 300.104 150.712C277.929 173.38 264.377 203.933 264.377 237.688Z" fill="white"/>
<path d="M511.754 361.624C511.754 341.912 495.738 325.897 476.027 325.897C456.316 325.897 440.3 341.912 440.3 361.624C440.3 377.885 451.142 391.437 465.925 395.872C469.128 396.857 472.577 397.35 476.027 397.35C495.738 397.35 511.754 381.335 511.754 361.624Z" fill="white"/>
<path d="M88.2085 237.441V237.688V345.114C94.3683 331.809 108.166 322.446 123.935 322.446C139.704 322.446 153.256 331.809 159.662 345.36V237.688V237.441C159.662 203.686 145.864 173.133 123.935 150.958C102.006 173.133 88.4549 203.686 88.2085 237.441Z" fill="white"/>
<path d="M300.104 326.143C280.393 326.143 264.377 342.158 264.377 361.869C264.377 365.565 264.87 369.015 266.102 372.464C266.349 373.45 266.841 374.682 267.334 375.667C267.334 375.914 267.581 375.913 267.581 376.16C268.073 377.145 268.32 377.885 268.813 378.87C269.059 379.117 269.059 379.363 269.305 379.609C269.798 380.349 270.291 381.088 270.784 381.827C271.03 382.073 271.03 382.32 271.276 382.32C271.769 383.059 272.262 383.798 273.001 384.537C273.74 385.523 274.479 386.262 275.219 387.001C280.886 392.668 288.277 396.364 296.901 397.349C298.133 397.349 299.365 397.596 300.597 397.596C301.829 397.596 302.814 397.596 303.8 397.349C304.046 397.349 304.539 397.349 304.786 397.349C305.525 397.349 306.264 397.103 307.249 397.103C307.496 397.103 307.989 397.103 308.235 396.857C309.221 396.61 310.206 396.364 311.192 396.118C312.177 395.871 313.163 395.378 314.148 395.132C314.395 394.886 314.888 394.886 315.134 394.639C315.627 394.393 316.366 394.146 316.859 393.9C317.352 393.654 317.598 393.407 318.091 393.161C318.583 392.914 319.076 392.668 319.569 392.175C320.062 391.929 320.308 391.683 320.801 391.436C321.294 391.19 321.786 390.697 322.279 390.451C323.018 389.958 323.511 389.465 324.25 388.726C324.743 388.233 324.99 387.987 325.482 387.494C325.975 387.001 326.222 386.508 326.714 386.262C326.961 386.016 327.207 385.769 327.453 385.276C327.946 384.784 328.193 384.291 328.685 383.798C328.932 383.552 329.178 383.305 329.425 382.812C329.917 382.32 330.164 381.827 330.657 381.088C330.903 380.841 330.903 380.595 331.149 380.349C332.381 378.131 333.613 375.913 334.352 373.45V373.203C334.599 372.464 334.845 371.725 335.092 370.986C335.092 370.739 335.092 370.493 335.338 370.493C335.584 369.754 335.584 369.015 335.831 368.029C335.831 367.783 335.831 367.783 335.831 367.536C336.077 365.811 336.324 363.84 336.324 361.869C335.584 342.158 319.569 326.143 300.104 326.143Z" fill="white"/>
<path d="M159.662 361.624C159.662 341.912 143.646 325.897 123.935 325.897C104.224 325.897 88.4549 341.666 88.2085 361.377V361.624C88.2085 367.783 89.6869 373.45 92.3972 378.625C93.3827 380.596 94.8611 382.567 96.3394 384.292C97.8178 386.016 99.2961 387.741 101.267 389.219C102.992 390.698 104.963 391.93 106.934 393.162C107.92 393.654 108.905 394.147 110.137 394.64C114.326 396.365 119.007 397.35 123.935 397.35C123.935 397.35 123.935 397.35 124.182 397.35C124.182 397.35 124.182 397.35 124.428 397.35C125.414 397.35 126.399 397.35 127.385 397.104C127.631 397.104 127.877 397.104 128.124 397.104C129.109 397.104 130.095 396.858 131.08 396.611H131.327C132.312 396.365 133.298 396.118 134.284 395.872H134.53C135.516 395.626 136.501 395.133 137.733 394.64H137.979C139.951 393.654 141.922 392.669 143.893 391.437C153.256 384.784 159.662 373.943 159.662 361.624Z" fill="white"/>
<path d="M297.394 148.248C275.218 127.059 245.159 114 211.896 114C178.88 114 148.82 127.059 126.398 148.248C146.11 168.206 158.429 193.831 162.125 221.426C169.024 200.483 188.735 185.453 211.896 185.453C235.057 185.453 254.768 200.73 261.667 221.426C265.116 193.831 277.436 168.452 297.394 148.248Z" fill="white"/>
<path d="M71.4533 149.727C71.4533 130.015 55.4379 114 35.7267 114C16.0154 114 0 130.015 0 149.727C0 169.438 16.0154 185.453 35.7267 185.453C55.4379 185.207 71.4533 169.438 71.4533 149.727Z" fill="white"/>
<path d="M440.546 345.36C446.706 331.809 460.504 322.446 476.273 322.446C492.042 322.446 505.594 331.809 512 345.36V237.934C512 169.683 456.562 114.246 388.312 114.246C355.295 114.246 325.236 127.304 302.814 148.494C322.525 168.698 334.845 194.076 338.541 221.672C345.44 200.729 365.151 185.699 388.312 185.699C417.139 185.699 440.793 209.106 440.793 238.18V345.36H440.546Z" fill="white"/>
<path d="M121.224 148.247C103.484 131.247 80.816 119.42 55.4378 115.478C67.2646 122.376 75.1491 134.942 75.1491 149.479C75.1491 166.727 63.8151 181.51 48.2925 186.684C65.7862 191.119 79.8304 204.178 85.4974 221.179C89.1933 193.83 101.513 168.452 121.224 148.247Z" fill="white"/>
</svg>
