<svg xmlns="http://www.w3.org/2000/svg" width="32" height="24" fill="none"><rect width="32" height="24" fill="#4858BB" rx="4"/><path fill="#fff" d="M15.996 19.996a8 8 0 1 0 0-16 8 8 0 0 0 0 16"/><path fill="url(#a)" d="M0 1.645 2.967 0l4.72 3.85z" transform="translate(15.989 10.344)"/><path fill="#E53121" d="m18.956 10.344 4.72 3.85-.47-.247-4.261-3.475z"/><path fill="#F08465" d="m15.989 11.99 2.967-1.646-.011.128-2.679 1.485z"/><path fill="#B82B18" d="M23.675 14.193 15.99 11.99l.277-.032 6.94 1.99z"/><path fill="#F5B0AC" d="m15.989 11.989 2.967-1.645-.763-6.042z"/><path fill="#D47785" d="m18.192 4.302-2.203 7.687.174-.22 1.99-6.939z"/><path fill="#D99E9B" d="m18.956 10.344-.764-6.042-.04.528.69 5.455z"/><path fill="#F9D1CD" d="m15.989 11.99 2.967-1.646-.115-.06-2.678 1.486z"/><path fill="#F9F9FC" d="m17.634 14.956-3.85 4.72.246-.47 3.475-4.261z"/><path fill="#F3F2F9" d="m15.989 11.989 1.645 2.967-.128-.011-1.485-2.679z"/><path fill="#DCDAEE" d="m13.784 19.675 2.205-7.686.032.277-1.99 6.94z"/><path fill="#2B2B85" d="m15.989 11.989 1.645 2.967 6.041-.763z"/><path fill="#484293" d="M23.675 14.193 15.99 11.99l.219.174 6.94 1.989z"/><path fill="#24236F" d="m17.634 14.956 6.041-.763-.528-.041-5.455.69z"/><path fill="#8F88C0" d="m15.989 11.989 1.645 2.967.06-.115-1.486-2.678z"/><path fill="url(#b)" d="M7.687 2.204 4.719 3.85 0 0z" transform="translate(8.302 9.784)"/><path fill="#BBB7DB" d="M13.021 13.633 8.302 9.784l.47.246 4.26 3.476z"/><path fill="#B0AAD4" d="m15.989 11.989-2.968 1.645.012-.128 2.678-1.485z"/><path fill="#D1CCE6" d="m8.302 9.784 7.687 2.205-.278.031-6.939-1.99z"/><path fill="#FD0" d="m15.989 11.989-2.968 1.644.763 6.042z"/><path fill="#DBBB85" d="m13.784 19.675 2.205-7.686-.175.219-1.989 6.938z"/><path fill="#EBC536" d="m13.021 13.633.764 6.042.04-.529-.69-5.454z"/><path fill="#FFE167" d="m15.989 11.989-2.968 1.645.115.06 2.678-1.486z"/><path fill="#E53121" d="M15.989 11.989 14.343 9.02l3.85-4.719z"/><path fill="#EA583C" d="m14.343 9.021 3.85-4.719-.246.47-3.475 4.26z"/><path fill="#D42F1E" d="M15.99 11.989 14.342 9.02l.129.011 1.485 2.679z"/><path fill="#C22C1A" d="m18.192 4.302-2.203 7.687-.032-.278 1.99-6.94z"/><path fill="#F3F2F9" d="M15.989 11.989 14.344 9.02l-6.042.763z"/><path fill="#F9F8FB" d="m8.302 9.784 7.687 2.205-.22-.175-6.939-1.99z"/><path fill="#DCDAEE" d="m14.344 9.02-6.042.764.528.041 5.455-.689z"/><path fill="#F9F9FC" d="M15.99 11.989 14.343 9.02l-.058.115 1.485 2.678z"/><path fill="url(#c)" d="M3.55 2.131A7.96 7.96 0 0 0 0 0l.764 6.042z" transform="translate(18.192 4.302)"/><path fill="#8F88C0" d="m18.192 4.302.764 6.042.071-.285-.717-5.723z"/><path fill="#A59FCE" d="m21.666 6.356-2.64 3.703-.07.285 2.786-3.911z"/><path fill="url(#d)" d="M3.55 2.131A7.96 7.96 0 0 0 0 0l.145.267A7.74 7.74 0 0 1 3.348 2.23z" transform="translate(18.192 4.302)"/><path fill="url(#e)" d="M0 3.91 2.786 0a8.03 8.03 0 0 1 2.007 3.621z" transform="translate(18.956 6.433)"/><path fill="#ED6F50" d="m21.742 6.433-2.786 3.91.216-.12 2.645-3.711z"/><path fill="#A62714" d="m23.722 9.948-4.55.276-.216.12 4.793-.29z"/><path fill="url(#f)" d="M1.814 3.528A7.8 7.8 0 0 0 0 .256L.051 0a8.03 8.03 0 0 1 2.007 3.621z" transform="translate(21.69 6.433)"/><path fill="url(#g)" d="M0 .29 4.793 0a7.96 7.96 0 0 1-.074 4.14z" transform="translate(18.956 10.054)"/><path fill="#D1CEE8" d="m23.749 10.054-4.793.29.279.09 4.54-.275z"/><path fill="#F3F2F9" d="M23.675 14.193q.017-.057.031-.113l-4.471-3.647-.279-.09z"/><path fill="url(#h)" d="M0 3.879A7.74 7.74 0 0 0 .033.119L.224 0A7.96 7.96 0 0 1 .15 4.14z" transform="translate(23.525 10.054)"/><path fill="url(#i)" d="M2.13 0A7.96 7.96 0 0 0 0 3.55l6.042-.764z" transform="translate(8.302 6.235)"/><path fill="#FFCB00" d="m8.302 9.784 6.042-.763-.285-.071-5.723.718z"/><path fill="#FD0" d="m10.356 6.31 3.703 2.64.285.07-3.91-2.785z"/><path fill="#FFF8C7" d="M10.432 6.235a7.96 7.96 0 0 0-2.13 3.55l.266-.145a7.74 7.74 0 0 1 1.964-3.203z"/><path fill="url(#j)" d="M3.91 4.793 0 2.007A8.03 8.03 0 0 1 3.62 0z" transform="translate(10.433 4.228)"/><path fill="#E53121" d="m10.434 6.235 3.91 2.786-.12-.215-3.712-2.645zm3.514-1.98.276 4.55.12.216-.29-4.793z"/><path fill="url(#k)" d="M3.528.245A7.8 7.8 0 0 0 .256 2.058L0 2.007A8.04 8.04 0 0 1 3.621 0z" transform="translate(10.432 4.228)"/><path fill="url(#l)" d="M.29 5.03 0 .239a7.96 7.96 0 0 1 4.139.074z" transform="translate(14.054 3.99)"/><path fill="#1E398E" d="m14.054 4.228.29 4.793.09-.28-.275-4.538z"/><path fill="#2F2482" d="m18.192 4.302-.112-.031-3.647 4.471-.09.279z"/><path fill="url(#m)" d="M3.879.462A7.74 7.74 0 0 0 .119.43L0 .239a7.95 7.95 0 0 1 4.139.073z" transform="translate(14.054 3.99)"/><path fill="#2B2B85" d="M10.235 17.544a7.96 7.96 0 0 0 3.55 2.131l-.764-6.042z"/><path fill="#24236F" d="m13.785 19.675-.764-6.042-.07.285.717 5.723z"/><path fill="#5B549F" d="m10.31 17.621 2.64-3.703.071-.285-2.786 3.911z"/><path fill="url(#n)" d="M0 .1a7.96 7.96 0 0 0 3.549 2.13l-.145-.266A7.74 7.74 0 0 1 .201 0z" transform="translate(10.235 17.445)"/><path fill="url(#o)" d="M4.793 0 2.007 3.91A8.04 8.04 0 0 1 0 .29z" transform="translate(8.228 13.633)"/><path fill="#B0AAD4" d="m10.235 17.544 2.786-3.91-.216.119-2.645 3.712z"/><path fill="#DAD8ED" d="m8.256 14.029 4.55-.276.215-.12-4.792.29q.012.054.027.106"/><path fill="url(#p)" d="M.245.093a7.8 7.8 0 0 0 1.814 3.272l-.052.256A8.04 8.04 0 0 1 0 0z" transform="translate(8.228 13.924)"/><path fill="#E53121" d="m13.021 13.633-4.793.29a7.97 7.97 0 0 1 .074-4.139z"/><path fill="#CA2D0A" d="m8.228 13.923 4.793-.29-.279-.089-4.539.274z"/><path fill="#ED6F50" d="M8.302 9.784q-.016.057-.031.113l4.471 3.647.279.09zm.15.26a7.74 7.74 0 0 0-.034 3.76l-.19.12a7.96 7.96 0 0 1 .074-4.14z"/><path fill="url(#q)" d="M3.91 3.549A7.96 7.96 0 0 0 6.043 0L0 .763z" transform="translate(17.634 14.193)"/><path fill="#7B73B3" d="m23.675 14.193-6.041.763.284.071 5.723-.717z"/><path fill="#D1CEE8" d="m21.621 17.666-3.703-2.64-.284-.07 3.91 2.786z"/><path fill="#655EA5" d="M21.544 17.742a7.96 7.96 0 0 0 2.131-3.55l-.266.146a7.74 7.74 0 0 1-1.964 3.202z"/><path fill="url(#r)" d="m0 0 3.91 2.786A8.04 8.04 0 0 1 .29 4.793z" transform="translate(17.634 14.956)"/><path fill="#E53121" d="m21.544 17.742-3.91-2.786.12.216 3.711 2.645zm-3.515 1.98-.276-4.55-.12-.216.29 4.793z"/><path fill="url(#s)" d="M.093 1.814A7.8 7.8 0 0 0 3.365 0l.256.052A8.04 8.04 0 0 1 0 2.06z" transform="translate(17.924 17.69)"/><path fill="url(#t)" d="m3.85 0 .29 4.793A8 8 0 0 1 0 4.719z" transform="translate(13.784 14.956)"/><path fill="#F5B0AC" d="m17.923 19.749-.29-4.793-.09.279.276 4.54z"/><path fill="#FAD9D5" d="m13.784 19.675.113.032 3.647-4.472.09-.279z"/><path fill="url(#u)" d="M.26 0a7.74 7.74 0 0 0 3.759.034l.12.19A7.96 7.96 0 0 1 0 .151z" transform="translate(13.785 19.525)"/><defs><linearGradient id="a" x2="1" gradientTransform="matrix(3.0529 .862 -1.7212 1.52894 4.689 -.877)" gradientUnits="userSpaceOnUse"><stop stop-color="#E53121"/><stop offset="1" stop-color="#C22C1A"/></linearGradient><linearGradient id="b" x2="1" gradientTransform="scale(8.79531 4.40426)rotate(29.417 2.099 .206)" gradientUnits="userSpaceOnUse"><stop stop-color="#DCDAEE"/><stop offset="1" stop-color="#8F88C0"/></linearGradient><linearGradient id="c" x2="1" gradientTransform="scale(-4.11286 -7.00065)rotate(8.946 8.186 -4.426)" gradientUnits="userSpaceOnUse"><stop stop-color="#7B73B3"/><stop offset="1" stop-color="#C6C2E2"/></linearGradient><linearGradient id="d" x2="1" gradientTransform="matrix(-3.66385 -2.1153 3.36696 -2.30181 .88 5.12)" gradientUnits="userSpaceOnUse"><stop stop-color="#6C62A8"/><stop offset="1" stop-color="#CBCAE6"/></linearGradient><linearGradient id="e" x2="1" gradientTransform="scale(5.12209 4.17956)rotate(64.774 .692 .68)" gradientUnits="userSpaceOnUse"><stop stop-color="#E53121"/><stop offset="1" stop-color="#A62714"/></linearGradient><linearGradient id="f" x2="1" gradientTransform="scale(2.96858 5.22268)rotate(44.553 1.156 .909)" gradientUnits="userSpaceOnUse"><stop stop-color="#E84D2C"/><stop offset="1" stop-color="#811F08"/></linearGradient><linearGradient id="g" x2="1" gradientTransform="scale(6.50699 5.3535)rotate(73.33 .883 .599)" gradientUnits="userSpaceOnUse"><stop stop-color="#F3F2F9"/><stop offset="1" stop-color="#BBB7DB"/></linearGradient><linearGradient id="h" x2="1" gradientTransform="scale(.86776 7.77155)rotate(2.644 7.137 -5.117)" gradientUnits="userSpaceOnUse"><stop stop-color="#fff"/><stop offset="1" stop-color="#BBB7DB"/></linearGradient><linearGradient id="i" x2="1" gradientTransform="matrix(5.06657 1.43057 -2.43528 2.97627 2.892 -2.194)" gradientUnits="userSpaceOnUse"><stop stop-color="#FFF098"/><stop offset="1" stop-color="#FFD530"/></linearGradient><linearGradient id="j" x2="1" gradientTransform="scale(4.75844 5.83137)rotate(16.541 2.518 .947)" gradientUnits="userSpaceOnUse"><stop stop-color="#F4A286"/><stop offset="1" stop-color="#E53121"/></linearGradient><linearGradient id="k" x2="1" gradientTransform="scale(5.38887 3.06329)rotate(-45.445 -.642 .537)" gradientUnits="userSpaceOnUse"><stop stop-color="#F4A286"/><stop offset="1" stop-color="#E53121"/></linearGradient><linearGradient id="l" x2="1" gradientTransform="scale(3.93367 4.78134)rotate(13.078 2.084 .687)" gradientUnits="userSpaceOnUse"><stop stop-color="#4464AC"/><stop offset="1" stop-color="#1D3584"/></linearGradient><linearGradient id="m" x2="1" gradientTransform="matrix(4.1389 0 0 .4622 .05 -1.506)" gradientUnits="userSpaceOnUse"><stop stop-color="#4464AC"/><stop offset=".373" stop-color="#2F4B97"/><stop offset=".728" stop-color="#223B89"/><stop offset="1" stop-color="#1D3584"/></linearGradient><linearGradient id="n" x2="1" gradientTransform="scale(4.32148 2.71587)rotate(24.526 2.362 .19)" gradientUnits="userSpaceOnUse"><stop stop-color="#5B62A2"/><stop offset=".152" stop-color="#4C579A"/><stop offset=".482" stop-color="#31438C"/><stop offset=".776" stop-color="#213783"/><stop offset="1" stop-color="#1B3380"/></linearGradient><linearGradient id="o" x2="1" gradientTransform="matrix(.34938 3.99303 -4.89348 .28509 6.83 -.29)" gradientUnits="userSpaceOnUse"><stop stop-color="#fff"/><stop offset="1" stop-color="#DAD8ED"/></linearGradient><linearGradient id="p" x2="1" gradientTransform="scale(2.93578 5.16392)rotate(9.259 3.084 .106)" gradientUnits="userSpaceOnUse"><stop stop-color="#fff"/><stop offset="1" stop-color="#D1CEE8"/></linearGradient><linearGradient id="q" x2="1" gradientTransform="scale(5.95156 3.49582)rotate(25.674 2.564 .382)" gradientUnits="userSpaceOnUse"><stop stop-color="#D1CEE8"/><stop offset="1" stop-color="#7B73B3"/></linearGradient><linearGradient id="r" x2="1" gradientTransform="scale(4.26968 5.23219)rotate(54.721 .95 .596)" gradientUnits="userSpaceOnUse"><stop stop-color="#E53121"/><stop offset="1" stop-color="#B02916"/></linearGradient><linearGradient id="s" x2="1" gradientTransform="matrix(3.78068 -2.1828 3.83832 2.15 -3.058 -.797)" gradientUnits="userSpaceOnUse"><stop stop-color="#E53121"/><stop offset="1" stop-color="#9D2511"/></linearGradient><linearGradient id="t" x2="1" gradientTransform="matrix(2.70143 2.70143 -2.22285 3.28306 4.143 -.877)" gradientUnits="userSpaceOnUse"><stop stop-color="#F5B0AC"/><stop offset="1" stop-color="#EF8495"/></linearGradient><linearGradient id="u" x2="1" gradientTransform="matrix(4.13882 0 0 .4624 .052 -1.506)" gradientUnits="userSpaceOnUse"><stop stop-color="#F5B0AC"/><stop offset="1" stop-color="#EE788F"/></linearGradient></defs></svg>