<svg xmlns="http://www.w3.org/2000/svg" xmlns:xlink="http://www.w3.org/1999/xlink" width="512" height="512" viewBox="0 0 512 512"><linearGradient id="b" x1="7571.764" x2="7789.92" y1="-9561.678" y2="-9561.678" gradientTransform="matrix(.085 .024 .024 -.085 -344.77 -947.403)" gradientUnits="userSpaceOnUse"><stop offset="0" stop-color="#e53121"/><stop offset="1" stop-color="#c22c1a"/></linearGradient><linearGradient id="c" x1="6827.918" x2="7375.388" y1="-9723.683" y2="-9723.683" gradientTransform="matrix(.085 .024 .024 -.085 -344.77 -947.403)" gradientUnits="userSpaceOnUse"><stop offset="0" stop-color="#dcdaee"/><stop offset="1" stop-color="#8f88c0"/></linearGradient><linearGradient id="d" x1="81.97" x2="57.293" y1="178.855" y2="185.467" gradientTransform="matrix(1 0 0 -1 0 204.004)" gradientUnits="userSpaceOnUse"><stop offset="0" stop-color="#7b73b3"/><stop offset="1" stop-color="#c6c2e2"/></linearGradient><linearGradient id="e" x1="84.108" x2="61.854" y1="189.159" y2="202.007" gradientTransform="matrix(1 0 0 -1 0 204.004)" gradientUnits="userSpaceOnUse"><stop offset="0" stop-color="#6c62a8"/><stop offset="1" stop-color="#cbcae6"/></linearGradient><linearGradient id="f" x1="72.606" x2="85.866" y1="183.02" y2="160.054" gradientTransform="matrix(1 0 0 -1 0 204.004)" gradientUnits="userSpaceOnUse"><stop offset="0" stop-color="#e53121"/><stop offset="1" stop-color="#a62714"/></linearGradient><linearGradient id="g" x1="83.632" x2="96.481" y1="188.975" y2="166.72" gradientTransform="matrix(1 0 0 -1 0 204.004)" gradientUnits="userSpaceOnUse"><stop offset="0" stop-color="#e84d2c"/><stop offset="1" stop-color="#811f08"/></linearGradient><linearGradient id="h" x1="79.713" x2="91.051" y1="170.357" y2="139.206" gradientTransform="matrix(1 0 0 -1 0 204.004)" gradientUnits="userSpaceOnUse"><stop offset="0" stop-color="#f3f2f9"/><stop offset="1" stop-color="#bbb7db"/></linearGradient><linearGradient id="i" x1="91.485" x2="99.078" y1="155.697" y2="153.52" gradientTransform="matrix(1 0 0 -1 0 204.004)" gradientUnits="userSpaceOnUse"><stop offset="0" stop-color="#fff"/><stop offset="1" stop-color="#bbb7db"/></linearGradient><linearGradient id="k" x1="6832.636" x2="7194.688" y1="-9503.371" y2="-9503.371" gradientTransform="matrix(.085 .024 .024 -.085 -344.77 -947.403)" gradientUnits="userSpaceOnUse"><stop offset="0" stop-color="#fff098"/><stop offset="1" stop-color="#ffd530"/></linearGradient><linearGradient id="a"><stop offset="0" stop-color="#f4a286"/><stop offset="1" stop-color="#e53121"/></linearGradient><linearGradient xlink:href="#a" id="l" x1="16.546" x2="44.252" y1="195.621" y2="185.537" gradientTransform="matrix(1 0 0 -1 0 204.004)" gradientUnits="userSpaceOnUse"/><linearGradient xlink:href="#a" id="m" x1="14.412" x2="37.376" y1="189.967" y2="203.225" gradientTransform="matrix(1 0 0 -1 0 204.004)" gradientUnits="userSpaceOnUse"/><linearGradient id="n" x1="7101.787" x2="7375.592" y1="-9285.117" y2="-9285.117" gradientTransform="matrix(.085 .024 .024 -.085 -344.77 -947.403)" gradientUnits="userSpaceOnUse"><stop offset="0" stop-color="#4464ac"/><stop offset="1" stop-color="#1d3584"/></linearGradient><linearGradient id="o" x1="37.209" x2="62.349" y1="202.577" y2="202.577" gradientTransform="matrix(1 0 0 -1 0 204.004)" gradientUnits="userSpaceOnUse"><stop offset="0" stop-color="#4464ac"/><stop offset=".373" stop-color="#2f4b97"/><stop offset=".728" stop-color="#223b89"/><stop offset="1" stop-color="#1d3584"/></linearGradient><linearGradient id="p" x1="12.612" x2="36.492" y1="118.998" y2="112.15" gradientTransform="matrix(1 0 0 -1 0 204.004)" gradientUnits="userSpaceOnUse"><stop offset="0" stop-color="#5b62a2"/><stop offset=".152" stop-color="#4c579a"/><stop offset=".482" stop-color="#31438c"/><stop offset=".776" stop-color="#213783"/><stop offset="1" stop-color="#1b3380"/></linearGradient><linearGradient id="q" x1="16.044" x2="18.166" y1="145.181" y2="120.928" gradientTransform="matrix(1 0 0 -1 0 204.004)" gradientUnits="userSpaceOnUse"><stop offset="0" stop-color="#fff"/><stop offset="1" stop-color="#dad8ed"/></linearGradient><linearGradient id="r" x1="-1.34" x2="16.26" y1="135.102" y2="130.055" gradientTransform="matrix(1 0 0 -1 0 204.004)" gradientUnits="userSpaceOnUse"><stop offset="0" stop-color="#fff"/><stop offset="1" stop-color="#d1cee8"/></linearGradient><linearGradient id="s" x1="7540.118" x2="7923.423" y1="-9782.842" y2="-9782.842" gradientTransform="matrix(.085 .024 .024 -.085 -344.77 -947.403)" gradientUnits="userSpaceOnUse"><stop offset="0" stop-color="#d1cee8"/><stop offset="1" stop-color="#7b73b3"/></linearGradient><linearGradient id="t" x1="58.192" x2="73.17" y1="137.328" y2="111.385" gradientTransform="matrix(1 0 0 -1 0 204.004)" gradientUnits="userSpaceOnUse"><stop offset="0" stop-color="#e53121"/><stop offset="1" stop-color="#b02916"/></linearGradient><linearGradient id="u" x1="60.14" x2="83.103" y1="107.492" y2="120.751" gradientTransform="matrix(1 0 0 -1 0 204.004)" gradientUnits="userSpaceOnUse"><stop offset="0" stop-color="#e53121"/><stop offset="1" stop-color="#9d2511"/></linearGradient><linearGradient id="v" x1="45.511" x2="61.92" y1="124.497" y2="108.089" gradientTransform="matrix(1 0 0 -1 0 204.004)" gradientUnits="userSpaceOnUse"><stop offset="0" stop-color="#f5b0ac"/><stop offset="1" stop-color="#ef8495"/></linearGradient><linearGradient id="w" x1="35.589" x2="60.727" y1="108.122" y2="108.122" gradientTransform="matrix(1 0 0 -1 0 204.004)" gradientUnits="userSpaceOnUse"><stop offset="0" stop-color="#f5b0ac"/><stop offset="1" stop-color="#ee788f"/></linearGradient><g transform="translate(-.223 -.245)scale(5.26148)"><path fill="#fff" d="M97 48.7C97 75.4 75.4 97 48.7 97S.4 75.4.4 48.7 22 .4 48.7.4 97 22.1 97 48.7"/><circle cx="48.7" cy="48.7" r="48.5" fill="#fff"/><path fill="url(#b)" d="m48.7 48.7 18-10 28.7 23.4z" style="fill:url(#b)"/><path fill="#e53121" d="m66.7 38.7 28.7 23.4-2.9-1.5-25.9-21.1Z"/><path fill="#f08465" d="m48.7 48.7 18-10-.1.8-16.3 9z"/><path fill="#b82b18" d="M95.4 62.1 48.7 48.7l1.7-.2 42.1 12.1Z"/><path fill="#f5b0ac" d="m48.7 48.7 18-10L62.1 2Z"/><path fill="#d47785" d="M62.1 2 48.7 48.7l1.1-1.3L61.9 5.3Z"/><path fill="#d99e9b" d="M66.7 38.7 62.1 2l-.2 3.2 4.2 33.1Z"/><path fill="#f9d1cd" d="m48.7 48.7 18-10-.7-.4-16.3 9z"/><path fill="none" d="m48.7 48.7 10 18-23.4 28.7z"/><path fill="#f9f9fc" d="M58.7 66.7 35.3 95.4l1.5-2.9 21.1-25.9Z"/><path fill="#f3f2f9" d="m48.7 48.7 10 18-.8-.1-9-16.3z"/><path fill="#dcdaee" d="m35.3 95.4 13.4-46.7.2 1.7-12.1 42.1Z"/><path fill="#2b2b85" d="m48.7 48.7 10 18 36.7-4.6z"/><path fill="#484293" d="M95.4 62.1 48.7 48.7l1.3 1.1 42.2 12.1Z"/><path fill="#24236f" d="m58.7 66.7 36.7-4.6-3.2-.2-33.1 4.2Z"/><path fill="#8f88c0" d="m48.7 48.7 10 18 .4-.7-9-16.3z"/><path fill="url(#c)" d="m48.7 48.7-18 10L2 35.3Z" style="fill:url(#c)"/><path fill="#bbb7db" d="M30.7 58.7 2 35.3l2.9 1.5 25.9 21.1Z"/><path fill="#b0aad4" d="m48.7 48.7-18 10 .1-.8 16.3-9z"/><path fill="#d1cce6" d="m2 35.3 46.7 13.4-1.7.2L4.9 36.8Z"/><path fill="#fd0" d="m48.7 48.7-18 10 4.6 36.7z"/><path fill="#dbbb85" d="m35.3 95.4 13.4-46.7-1.1 1.3-12.1 42.1Z"/><path fill="#ebc536" d="m30.7 58.7 4.6 36.7.2-3.2-4.2-33.1z"/><path fill="#ffe167" d="m48.7 48.7-18 10 .7.4 16.3-9z"/><path fill="#e53121" d="m48.7 48.7-10-18L62.1 2Z"/><path fill="#ea583c" d="M38.7 30.7 62.1 2l-1.5 2.9-21.1 25.9Z"/><path fill="#d42f1e" d="m48.7 48.7-10-18 .8.1 9 16.3z"/><path fill="#c22c1a" d="M62.1 2 48.7 48.7l-.2-1.7L60.6 4.9Z"/><path fill="#f3f2f9" d="m48.7 48.7-10-18L2 35.3Z"/><path fill="#f9f8fb" d="m2 35.3 46.7 13.4-1.3-1.1-42.2-12Z"/><path fill="#dcdaee" d="M38.7 30.7 2 35.3l3.2.2 33.1-4.2Z"/><path fill="#f9f9fc" d="m48.7 48.7-10-18-.4.7 9 16.3z"/><path fill="url(#d)" d="M83.6 15C77.7 8.9 70.2 4.4 62 2.1l4.6 36.7z" style="fill:url(#d)"/><path fill="#8f88c0" d="m62.1 2 4.6 36.7.4-1.7-4.4-34.8c-.1 0-.4-.1-.6-.2"/><path fill="#a59fce" d="M83.2 14.5 67.2 37l-.4 1.7 16.9-23.8c-.2-.1-.4-.2-.5-.4"/><path fill="url(#e)" d="M83.6 15C77.7 8.9 70.2 4.4 62 2.1l.9 1.6c7.4 2.3 14 6.4 19.5 11.9z" style="fill:url(#e)"/><path fill="url(#f)" d="m66.7 38.7 16.9-23.8c5.9 6.1 10.1 13.7 12.2 22z" style="fill:url(#f)"/><path fill="#ed6f50" d="M83.6 15 66.7 38.8l1.3-.7 16.1-22.5c-.2-.3-.3-.5-.5-.6"/><path fill="#a62714" d="M95.7 36.3 68.1 38l-1.3.7 29.1-1.8c-.1-.1-.2-.4-.2-.6"/><path fill="url(#g)" d="M94.3 36.4c-2-7.4-5.8-14.2-11-19.9l.3-1.6c5.9 6.1 10.1 13.7 12.2 22z" style="fill:url(#g)"/><path fill="url(#h)" d="m66.7 38.7 29.1-1.8c2 8 2 16.6-.4 25.1z" style="fill:url(#h)"/><path fill="#d1cee8" d="m95.8 37-29.1 1.8 1.7.5L96 37.6c-.1-.2-.1-.4-.2-.6"/><path fill="#f3f2f9" d="M95.4 62.1c.1-.2.1-.5.2-.7L68.4 39.2l-1.7-.5Z"/><path fill="url(#i)" d="M94.5 60.5c2-7.7 2-15.5.2-22.8l1.2-.7c2 8 2 16.6-.4 25.1z" style="fill:url(#i)"/><path fill="url(#k)" d="M14.9 13.8C9 19.5 4.4 26.8 2 35.3l36.7-4.6z" style="fill:url(#k)"/><path fill="#ffcb00" d="m2 35.3 36.7-4.6-1.7-.4-34.8 4.4c-.1.2-.1.4-.2.6"/><path fill="#fd0" d="m14.5 14.2 22.5 16 1.7.4L15 13.8c-.2.1-.4.3-.5.4"/><path fill="#fff8c7" d="M14.9 13.8C8.8 19.7 4.3 27.2 2 35.4l1.6-.9c2.3-7.4 6.4-14 11.9-19.5.1 0-.6-1.2-.6-1.2"/><path fill="url(#l)" d="M38.7 30.7 14.9 13.8C21 7.9 28.6 3.7 36.9 1.6Z" style="fill:url(#l)"/><path fill="#e53121" d="m15 13.8 23.8 16.9-.7-1.3-22.7-16.1c-.1.2-.3.3-.4.5M36.3 1.7 38 29.3l.7 1.3-1.8-29.1Z"/><path fill="url(#m)" d="M36.4 3.1c-7.4 2-14.2 5.8-19.9 11l-1.6-.3C21 7.9 28.6 3.7 36.9 1.6Z" style="fill:url(#m)"/><path fill="url(#n)" d="M38.7 30.7 36.9 1.6c8-2 16.6-2 25.1.4z" style="fill:url(#n)"/><path fill="#1e398e" d="m36.9 1.6 1.8 29.1.5-1.7-1.7-27.6c-.1.1-.3.1-.6.2"/><path fill="#2f2482" d="M62.1 2c-.2-.1-.5-.1-.7-.2L39.3 29l-.5 1.7Z"/><path fill="url(#o)" d="M60.5 2.9c-7.7-2-15.5-2-22.8-.2L37 1.5c8-2 16.6-2 25.1.4z" style="fill:url(#o)"/><path fill="#2b2b85" d="M13.8 82.5c5.9 6.1 13.4 10.6 21.6 12.9l-4.6-36.7Z"/><path fill="#24236f" d="m35.3 95.4-4.6-36.7-.4 1.7 4.4 34.8c.1.1.4.1.6.2"/><path fill="#5b549f" d="m14.2 82.9 16-22.5.4-1.7-16.9 23.8z"/><path fill="url(#p)" d="M13.8 82.5c5.9 6.1 13.4 10.6 21.6 12.9l-.9-1.6c-7.4-2.3-14-6.4-19.5-11.9Z" style="fill:url(#p)"/><path fill="url(#q)" d="M30.7 58.7 13.8 82.5c-5.9-6.1-10.1-13.7-12.2-22Z" style="fill:url(#q)"/><path fill="#b0aad4" d="m13.8 82.5 16.9-23.8-1.3.7L13.3 82Z"/><path fill="#dad8ed" d="m1.7 61.1 27.6-1.7 1.3-.7-29.1 1.8c.1.2.2.4.2.6"/><path fill="url(#r)" d="M3 61c2 7.4 5.8 14.2 11 19.9l-.3 1.6c-5.9-6.1-10.1-13.7-12.2-22Z" style="fill:url(#r)"/><path fill="#e53121" d="M30.7 58.7 1.6 60.5c-2-8-2-16.6.4-25.1z"/><path fill="#ca2d0a" d="m1.6 60.5 29.1-1.8-1.7-.5-27.6 1.6c.1.2.1.5.2.7"/><path fill="#ed6f50" d="M2 35.3c-.1.2-.1.5-.2.7L29 58.2l1.7.5zm.9 1.6c-2 7.7-2 15.5-.2 22.8l-1.2.7c-2.1-8.3-1.9-16.9.4-25.1Z"/><path fill="url(#s)" d="M82.4 83.7c6.1-5.9 10.6-13.4 12.9-21.6l-36.7 4.6z" style="fill:url(#s)"/><path fill="#7b73b3" d="m95.4 62.1-36.7 4.6 1.7.4 34.8-4.4c0-.1.1-.4.2-.6"/><path fill="#d1cee8" d="m82.9 83.2-22.5-16-1.7-.4 23.8 16.9c.1-.2.3-.3.4-.5"/><path fill="#655ea5" d="M82.4 83.7c5.9-5.7 10.5-13.1 12.9-21.6l-1.6.9c-2.3 7.4-6.4 14-11.9 19.5z"/><path fill="url(#t)" d="m58.7 66.7 23.8 16.9c-6.1 5.9-13.7 10.1-22 12.2 0 .1-1.8-29.1-1.8-29.1" style="fill:url(#t)"/><path fill="#e53121" d="M82.4 83.7 58.6 66.8l.7 1.3 22.5 16.1c.3-.2.5-.4.6-.5m-21.3 12-1.7-27.6-.7-1.3 1.8 29.1c.2-.1.4-.2.6-.2"/><path fill="url(#u)" d="M61 94.4c7.4-2 14.2-5.8 19.9-11l1.6.3c-6.1 5.9-13.7 10.1-22 12.2z" style="fill:url(#u)"/><path fill="url(#v)" d="m58.7 66.7 1.8 29.1c-8 2-16.6 2-25.1-.4z" style="fill:url(#v)"/><path fill="#f5b0ac" d="m60.4 95.9-1.8-29.1-.5 1.7 1.7 27.6c.2-.1.4-.2.6-.2"/><path fill="#fad9d5" d="m35.3 95.4.7.2 22.2-27.2.5-1.7Z"/><path fill="url(#w)" d="M36.9 94.5c7.7 2 15.5 2 22.8.2l.7 1.2c-8.3 2.1-16.9 1.9-25.1-.4Z" style="fill:url(#w)"/></g></svg>