<svg height="80" viewBox="0 0 96 80" width="96" xmlns="http://www.w3.org/2000/svg" xmlns:xlink="http://www.w3.org/1999/xlink"><linearGradient id="a"><stop offset="0" stop-color="#007940"/><stop offset=".2285" stop-color="#00873f"/><stop offset=".7433" stop-color="#40a737"/><stop offset="1" stop-color="#5cb531"/></linearGradient><linearGradient id="b" x1="-57.527097%" x2="232.39121%" xlink:href="#a" y1="50.124195%" y2="50.124195%"/><linearGradient id="c" x1=".182517%" x2="100.273441%" xlink:href="#a" y1="49.95997%" y2="49.95997%"/><linearGradient id="d" x1="-62.801585%" x2="253.671294%" xlink:href="#a" y1="49.857825%" y2="49.857825%"/><linearGradient id="e" x1=".175557%" x2="101.808162%" y1="50.005805%" y2="50.005805%"><stop offset="0" stop-color="#1f286f"/><stop offset=".4751" stop-color="#004e94"/><stop offset=".8261" stop-color="#0066b1"/><stop offset="1" stop-color="#006fbc"/></linearGradient><linearGradient id="f" x1="-.575856%" x2="98.13299%" y1="49.914219%" y2="49.914219%"><stop offset="0" stop-color="#6c2c2f"/><stop offset=".1735" stop-color="#882730"/><stop offset=".5731" stop-color="#be1833"/><stop offset=".8585" stop-color="#dc0436"/><stop offset="1" stop-color="#e60039"/></linearGradient><g fill="none" fill-rule="nonzero" transform="translate(0 2.8)"><path d="m96 59.0317852c0 8.215159-6.6894862 14.9046456-14.9046452 14.9046456h-81.09535481v-59.0317851c0-8.21515898 6.68948658-14.90464556 14.90464551-14.90464556h81.0953545z" fill="#fff"/><g transform="translate(64.312959 4.870416)"><path d="m5.28117362 39.0220051h6.16136918c.1760392 0 .5867971-.0586798.7628362-.0586798 1.1735942-.2347188 2.1711492-1.2909535 2.1711492-2.7579462 0-1.4083129-.997555-2.4645477-2.1711492-2.7579462-.1760391-.0586797-.5281173-.0586797-.7628362-.0586797h-6.16136918z" fill="url(#b)"/><path d="m10.7383864.11735941c-5.86797073 0-10.67970669 4.75305626-10.67970669 10.67970669v11.0904646h15.08068469c.3520782 0 .7628362 0 1.0562347.0586797 3.403423.1760391 5.9266504 1.9364303 5.9266504 4.987775 0 2.405868-1.7017115 4.4596578-4.8704157 4.8704157v.1173594c3.4621027.2347189 6.1026895 2.1711492 6.1026895 5.1638142 0 3.2273839-2.9339853 5.3398533-6.806846 5.3398533h-16.5476773v21.7114916h15.6674817c5.8679707 0 10.6797067-4.7530563 10.6797067-10.6797067v-53.33985349z" fill="url(#c)"/><path d="m13.613692 27.6381419c0-1.4083129-.997555-2.3471882-2.1711492-2.5232274-.1173594 0-.4107579-.0586797-.586797-.0586797h-5.57457218v5.1638142h5.57457218c.1760391 0 .5281173 0 .586797-.0586797 1.1735942-.1760391 2.1711492-1.1149144 2.1711492-2.5232274z" fill="url(#d)"/></g><path d="m16.01956 4.98777522c-5.8679707 0-10.67970669 4.75305625-10.67970669 10.67970668v26.3471883c2.99266505 1.4669927 6.10268949 2.405868 9.21271399 2.405868 3.6968215 0 5.6919315-2.2298288 5.6919315-5.2811736v-12.4400978h9.1540343v12.3814181c0 4.811736-2.992665 8.7432763-13.1442543 8.7432763-6.1613692 0-10.9731052-1.3496332-10.9731052-1.3496332v22.4743277h15.6674817c5.8679707 0 10.6797067-4.7530563 10.6797067-10.6797067v-53.28117378z" fill="url(#e)"/><path d="m45.5354525 4.98777522c-5.8679707 0-10.6797066 4.75305625-10.6797066 10.67970668v13.9657702c2.6992665-2.2885086 7.393643-3.7555012 14.9633252-3.403423 4.0488998.1760391 8.3911981 1.2909535 8.3911981 1.2909535v4.5183375c-2.1711492-1.1149145-4.7530563-2.1124695-8.0977996-2.3471883-5.7506112-.4107579-9.2127139 2.405868-9.2127139 7.3349634 0 4.987775 3.4621027 7.804401 9.2127139 7.3349633 3.3447433-.2347188 5.9266504-1.2909535 8.0977996-2.3471883v4.5183375s-4.2836186 1.1149144-8.3911981 1.2909535c-7.5696822.3520783-12.2640587-1.1149144-14.9633252-3.403423v24.6454769h15.6674817c5.8679707 0 10.6797066-4.7530563 10.6797066-10.6797067v-53.39853318z" fill="url(#f)"/></g></svg>