<svg xmlns="http://www.w3.org/2000/svg" width="640" height="360" viewBox="0 0 640 360"><g fill="none" fill-rule="nonzero"><path fill="#f15a24" d="M136.764 196.576h27.702v14.607h-27.702z"/><path fill="#000" d="M158.674 149.735h-39.287a6.246 6.246 0 0 0-6.296 6.245v8.361h51.375v-14.606zm-.504 23.169h-45.028v38.279h14.606V187.51h30.523a6.35 6.35 0 0 0 5.943-4.18c.208-.564.31-1.162.303-1.763v-8.663zm-19.24 65.981c-23.825-.013-45.299-14.37-54.414-36.383-9.116-22.012-4.08-47.347 12.76-64.2 16.815-16.84 42.11-21.914 64.118-12.86 22.009 9.053 36.412 30.455 36.512 54.253.098 23.798-14.126 45.32-36.06 54.556a58.5 58.5 0 0 1-22.916 4.634m0-110.053a51.123 51.123 0 0 0-36.164 87.287c19.973 19.972 52.355 19.972 72.327 0s19.973-52.355 0-72.328a50.77 50.77 0 0 0-36.163-14.908zm83.61 13.197a5.04 5.04 0 0 1 1.51-3.627 4.74 4.74 0 0 1 3.526-1.512h30.019v8.362H232.26v10.426h18.989v3.224a4.74 4.74 0 0 1-1.511 3.525 5.04 5.04 0 0 1-3.627 1.461h-13.8v21.456h-9.772zm68.398 24.68q0 19.492-17.125 19.492t-17.125-19.492q0-19.644 17.125-19.644t17.125 19.644m-24.63 0q.152 10.98 7.404 10.98 7.254 0 7.354-11.283 0-10.98-7.253-10.98-7.505 0-7.505 11.283m29.163-.857q.404-18.233 19.341-18.233h1.41v9.872H313q-7.908 0-7.908 8.21v19.643h-9.62zm41.1-10.426q-6.246 0-6.397 5.843v24.075h-9.57v-22.161q0-16.118 16.118-16.118 7.253 0 11.282 3.173 4.03-3.022 11.282-3.022 16.117 0 16.017 16.118v22.162h-4.885q-4.735-.303-4.735-4.735V161.42q-.302-5.893-6.548-5.893-6.245 0-6.396 5.893v23.924h-9.57V161.27q-.303-5.843-6.548-5.843zm49.158-18.535q4.736 0 4.533 4.584v2.77h-9.418v-7.354zm0 10.728q4.533 0 4.533 4.584v33.141h-9.418V147.57zm39.992-10.728a4.735 4.735 0 0 1 4.734 4.735v27.45q0 16.974-17.628 16.822-17.629-.25-17.629-19.089 0-19.19 15.11-19.744 7.051 0 10.678 5.843V136.89zm-12.642 18.636q-7.655 0-8.06 10.88-.15 11.382 7.909 11.382t8.058-11.383q-.252-10.828-7.907-10.879m36.113 30.523q-5.54.402-9.469-1.511-5.843-2.922-5.843-10.326.101-5.691 3.879-8.613 3.777-2.92 12.39-3.777 6.145-.705 6.145-3.778-.303-3.173-6.145-3.173-4.986 0-5.691 2.62h-9.47q1.612-10.427 14.708-10.427 15.613 0 15.865 10.426v12.794q0 9.62-6.95 13.397-3.778 1.914-9.47 2.368zm-.302-17.428q-5.742 1.11-5.742 5.289.302 4.432 4.734 4.432 3.879 0 6.246-2.216 2.216-2.216 2.216-6.245v-3.476a39.8 39.8 0 0 1-7.505 2.216zm30.724-15.714q3.576-5.843 10.678-5.843 15.06.504 15.06 19.744 0 18.838-17.528 19.09-17.73.15-17.73-16.823V136.89h4.735q4.734 0 4.734 4.735zm8.059 2.619q-7.655 0-8.06 10.88-.15 11.433 7.909 11.433t8.008-11.484q-.252-10.83-7.908-10.88zm26.795-18.636a4.53 4.53 0 0 1 3.173 1.31 4.33 4.33 0 0 1 1.41 3.274v43.87h-9.469V136.89zm43.215 36.92q-1.662 6.396-5.54 9.317-4.584 3.022-10.88 3.022-17.124-.504-17.124-19.744t17.225-19.34q17.93 0 16.823 22.16h-24.378q.555 8.564 7.555 8.563 3.324 0 6.044-2.619a4.13 4.13 0 0 1 3.224-1.36zm-9.52-11.484q-.855-7.556-6.95-7.556-6.094 0-7.253 7.556z"/><path fill="#000" d="M437.86 198.037q0-2.216 2.316-2.216h15.564v2.971h-14.305v8.16h10.78v1.007q0 2.015-2.217 2.015h-8.563v12.39h-3.576zm45.128 11.08q-.201 13.5-12.591 13.6t-12.592-13.6q.1-13.7 12.592-13.75 12.591 0 12.591 13.7zm-12.642-10.778q-8.713 0-8.764 10.678.152 10.576 8.815 10.678 8.663.1 8.814-10.678 0-10.728-8.865-10.678m16.672-.352q0-2.217 2.216-2.217h9.318q8.009-.05 8.16 7.052-.151 5.037-4.03 7.051 2.367.453 3.022 2.418.655 1.813.806 6.245c.1 2.166.252 3.375.453 3.728h-3.727a4.53 4.53 0 0 1-.504-2.368q-.05-6.144-1.108-7.555c-.403-.655-1.158-1.007-2.216-1.007h-8.713v10.93h-3.728zm11.332 10.426q5.037 0 4.785-5.49 0-3.98-4.734-4.18h-7.757v9.569zm12.089-10.426q0-2.217 2.317-2.217h3.525l6.548 21.407 6.497-21.407h5.893v26.494h-3.677v-22.162l-7.05 22.162h-3.376l-7.05-22.162v22.162h-3.627zM542.32 213.5a5.74 5.74 0 0 0 2.015 4.533 7.25 7.25 0 0 0 4.936 1.662c2.166 0 3.828-.353 4.885-1.058 1.31-1.007 2.015-2.115 2.015-3.425q0-2.215-1.51-3.123-1.865-1.158-5.592-1.863-6.144-1.009-7.807-3.022c-1.007-1.008-1.51-2.519-1.51-4.382a6.5 6.5 0 0 1 2.618-5.34q2.52-2.165 6.9-2.165 4.282 0 6.901 2.216a7.9 7.9 0 0 1 2.569 5.793h-1.511c-.957 0-1.511-.303-1.713-.907q-1.41-4.18-6.447-4.18-5.843 0-6.044 4.28-.15 3.325 6.296 4.685a50 50 0 0 1 5.037 1.259q5.187 1.51 5.188 6.296a6.95 6.95 0 0 1-2.77 5.792q-2.77 2.116-7.404 2.116-5.138 0-7.556-2.267-2.67-2.266-2.92-6.85z" opacity=".9"/></g></svg>