<svg xmlns="http://www.w3.org/2000/svg" width="640" height="360"><g fill="none" fill-rule="nonzero" transform="translate(80 46)"><rect width="480" height="266.139" fill="#FFB3C7" rx="4.321"/><path fill="#0A0B09" d="M104.013 212.805h6.493v-20.086c1.493.372 3.284.447 5.224.447 6.344 0 11.942-1.86 15.375-5.505 2.537-2.604 3.88-6.174 3.88-10.712 0-4.463-1.641-8.109-4.403-10.489-2.985-2.678-7.687-4.166-14.105-4.166-5.225 0-9.33.447-12.464.967v49.544zm6.493-44.857c1.12-.298 3.284-.521 6.12-.521 7.165 0 11.867 3.199 11.867 9.82 0 6.918-4.777 10.712-12.613 10.712-2.165 0-3.956-.15-5.374-.521v-19.49zm58.96 44.857c-.448-2.455-.597-5.505-.597-8.63v-13.464c0-7.216-2.687-14.73-13.733-14.73-4.552 0-8.88 1.265-11.866 3.2l1.492 4.314c2.538-1.636 6.046-2.678 9.404-2.678 7.389 0 8.21 5.356 8.21 8.332v.744c-13.957-.075-21.718 4.686-21.718 13.39 0 5.207 3.731 10.34 11.045 10.34 5.15 0 9.03-2.53 11.046-5.356h.224l.522 4.538h5.97zm-6.941-12.126c0 .67-.15 1.414-.373 2.083-1.045 3.05-4.03 6.026-8.732 6.026-3.359 0-6.195-2.009-6.195-6.25 0-6.992 8.135-8.256 15.3-8.108v6.25zM174.69 176.8l13.36 33.178c.298.818.447 1.339.447 1.71 0 .373-.224.893-.522 1.563-1.493 3.347-3.732 5.877-5.523 7.29-1.94 1.637-4.105 2.678-5.747 3.199l1.642 5.505c1.642-.298 4.851-1.414 8.06-4.24 4.159-3.592 7.223-9.301 11.404-19.985l10.837-28.22h-6.94l-7.166 21.127c-.895 2.603-1.642 5.356-2.313 7.513h-.15l-1.072-3.599c-.401-1.273-.83-2.575-1.241-3.766l-7.911-21.275h-7.165zm55.75 36.005h6.568v-52.817h-6.567v52.817zm43.586 0c-.448-2.455-.597-5.505-.597-8.63v-13.464c0-7.216-2.687-14.73-13.732-14.73-4.553 0-8.882 1.265-11.867 3.2l1.493 4.314c2.537-1.636 6.045-2.678 9.403-2.678 7.39 0 8.21 5.356 8.21 8.332v.744c-13.956-.075-21.718 4.686-21.718 13.39 0 5.207 3.732 10.34 11.046 10.34 5.15 0 9.03-2.53 11.045-5.356h.224l.523 4.538h5.97zm-6.94-12.126c0 .67-.15 1.414-.374 2.083-1.045 3.05-4.03 6.026-8.732 6.026-3.358 0-6.194-2.009-6.194-6.25 0-6.992 8.135-8.256 15.3-8.108v6.25zm18.434-32.508v8.63h-5.598v4.983h5.598v19.639c0 4.24.671 7.439 2.537 9.373 1.567 1.785 4.03 2.752 7.09 2.752 2.538 0 4.553-.371 5.821-.892l-.298-4.91c-.821.223-2.09.446-3.806.446-3.657 0-4.926-2.529-4.926-6.992v-19.416h9.404V176.8h-9.404v-10.34l-6.418 1.71zm26.867 27.822h25.375l.14-1.274a19.42 19.42 0 00.084-1.776c0-6.621-3.134-16.961-14.926-16.961-10.523 0-16.942 8.555-16.942 19.415 0 10.861 6.642 18.151 17.763 18.151 5.746 0 9.702-1.19 12.016-2.231l-1.12-4.687c-2.463 1.042-5.299 1.86-10 1.86-6.568 0-12.24-3.645-12.39-12.497zm.075-4.687c.522-4.538 3.433-10.638 10.075-10.638 7.389 0 9.18 6.472 9.106 10.638h-19.181zm33.66 21.499h6.492v-19.193c0-1.116.15-2.157.299-3.05.895-4.91 4.18-8.406 8.806-8.406.896 0 1.568.075 2.24.223v-6.174a7.126 7.126 0 00-1.866-.223c-4.404 0-8.36 3.05-10.001 7.885h-.299l-.224-7.067h-5.746c.224 3.348.298 6.993.298 11.233v24.772zm27.24.818c-2.612 0-4.403-2.009-4.403-4.687 0-2.752 1.866-4.686 4.478-4.686 2.612 0 4.403 1.934 4.403 4.686 0 2.678-1.716 4.687-4.478 4.687zm62.036-104.472c-6.277 0-11.366 5.118-11.366 11.432 0 6.312 5.089 11.431 11.366 11.431 6.277 0 11.366-5.118 11.366-11.431 0-6.314-5.089-11.432-11.366-11.432zm-37.394-8.838c0-8.644-7.346-15.65-16.408-15.65-9.062 0-16.408 7.007-16.408 15.65 0 8.644 7.346 15.652 16.408 15.652 9.063 0 16.408-7.008 16.408-15.652zm.06-30.416h18.109v60.831h-18.108v-3.888a31.62 31.62 0 01-17.952 5.572c-17.625 0-31.914-14.37-31.914-32.099 0-17.728 14.29-32.098 31.914-32.098 6.66 0 12.836 2.063 17.952 5.573v-3.892zM253.15 77.82v-7.923h-18.54v60.83h18.582v-28.4c0-9.582 10.326-14.732 17.49-14.732.074 0 .143.007.216.008v-17.7c-7.354 0-14.117 3.166-17.748 7.918zm-46.182 22.494c0-8.644-7.347-15.65-16.409-15.65-9.061 0-16.408 7.006-16.408 15.65 0 8.643 7.346 15.651 16.408 15.651 9.063 0 16.409-7.008 16.409-15.651zm.06-30.417h18.109v60.831h-18.11v-3.888a31.62 31.62 0 01-17.95 5.572c-17.626 0-31.915-14.37-31.915-32.099 0-17.728 14.29-32.098 31.915-32.098 6.66 0 12.835 2.063 17.95 5.573v-3.891zm108.995-1.636c-7.233 0-14.08 2.258-18.657 8.49v-6.85h-18.03v60.828h18.252V98.76c0-9.25 6.167-13.78 13.594-13.78 7.958 0 12.534 4.782 12.534 13.655v32.093H341.8V92.045c0-14.156-11.19-23.783-25.779-23.783v-.001zm-185.238 62.468h18.954v-87.94h-18.954v87.94zm-83.259.024h20.07v-87.98h-20.07v87.98zm70.197-87.981c0 19.047-7.38 36.766-20.53 49.936l27.742 38.048h-24.789l-30.15-41.35 7.782-5.861c12.904-9.722 20.305-24.583 20.305-40.773h19.64z"/></g></svg>