<svg xmlns="http://www.w3.org/2000/svg" xmlns:xlink="http://www.w3.org/1999/xlink" width="51" height="32"><defs><path id="a" d="M.75 0h22.5a.75.75 0 01.75.75v14.4a.75.75 0 01-.75.75H.75a.75.75 0 01-.75-.75V.75A.75.75 0 01.75 0z"/></defs><g fill="none" fill-rule="evenodd"><path fill="#FFF" stroke="#D0D0D0" d="M.5.5h50v31H.5z"/><g transform="translate(14 8.6)"><mask id="b" fill="#fff"><use xlink:href="#a"/></mask><g fill="#EB6F93" mask="url(#b)"><path d="M0 0h24v18.15H0z"/></g><g fill="#FFF" fill-rule="nonzero"><path d="M7.551 11h-.714c0 .583-.269 1.115-.736 1.466l-.282.21 1.095 1.485h.9l-1.009-1.367A2.506 2.506 0 007.551 11z"/><path d="M5 11h1v3.161H5zM8.025 11h1v3.161h-1z"/><path d="M14.75 11.914c-.263 0-.512.08-.679.306v-.245h-.653v2.186h.663v-1.147c0-.332.224-.494.493-.494.288 0 .454.172.454.49v1.154h.657v-1.392c0-.51-.407-.858-.935-.858zm-3.956.061v.14c-.186-.127-.41-.2-.653-.2-.64 0-1.16.516-1.16 1.153s.52 1.153 1.16 1.153c.243 0 .467-.073.653-.2v.14h.656v-2.186h-.656zm-.599 1.654c-.33 0-.595-.252-.595-.561 0-.31.265-.56.595-.56.33 0 .595.25.595.56 0 .309-.265.56-.595.56zm2.273-1.37v-.284h-.673v2.186h.676v-1.02c0-.344.374-.529.634-.529h.006v-.637c-.266 0-.512.115-.643.284zm5.259-.284v.14c-.186-.127-.41-.2-.653-.2-.64 0-1.159.516-1.159 1.153s.519 1.153 1.159 1.153c.243 0 .467-.073.653-.2v.14h.656v-2.186h-.656zm-.599 1.654c-.33 0-.595-.252-.595-.561 0-.31.265-.56.595-.56.33 0 .596.25.596.56.003.309-.266.56-.596.56zm1.956-.242a.413.413 0 00-.413.41.413.413 0 00.826 0 .41.41 0 00-.413-.41z"/></g><g fill="#FFF" fill-rule="nonzero"><path d="M11.138 7.436c.17.167.173.439.008.61l-.033.035a.434.434 0 01-.61.007l-.96-.95c-.264-.266-.302-.593-.134-.766l.034-.035a.391.391 0 01.522-.034.173.173 0 00.214-.27.737.737 0 00-.985.065l-.034.035c-.311.32-.249.86.14 1.249l.962.953a.78.78 0 001.1-.015l.033-.035a.778.778 0 00-.015-1.095.173.173 0 00-.242.246zm-.575-5.155l.393 3.23a.173.173 0 00.343-.041l-.394-3.241-.004-.021c-.067-.269.1-.57.323-.617a.476.476 0 01.566.373l.684 2.923a.173.173 0 00.336-.08l-.682-2.916a.822.822 0 00-.976-.638c-.42.09-.694.58-.589 1.028z"/><path d="M14.174 6.077l.776-3.873a.82.82 0 00-.569-.957.857.857 0 00-1.043.607l-.86 2.947a.173.173 0 10.332.096l.86-2.95a.511.511 0 01.62-.368.474.474 0 01.322.555l-.777 3.875a.173.173 0 10.339.068zm-1.957 3.731c-1.231 0-2.26-.903-2.26-2.187a.173.173 0 00-.345 0c0 1.485 1.192 2.532 2.605 2.532a.173.173 0 100-.345zm-.609-3.019a.427.427 0 01-.17.238l-.037.025a.434.434 0 01-.6-.116l-.756-1.124c-.206-.312-.18-.641.02-.777l.036-.025c.255-.147.47-.035.693.288l.631.94a.173.173 0 00.287-.192l-.632-.942c-.313-.454-.7-.655-1.161-.387l-.048.032c-.372.255-.416.796-.114 1.254l.757 1.126a.78.78 0 001.08.21l.038-.026a.774.774 0 00.309-.431.173.173 0 10-.333-.093z"/><path d="M12.752 7.36c-.36.201-.582.578-.61 1.149a.173.173 0 00.345.017c.025-.517.226-.796.551-.918a1.173 1.173 0 01.573-.055c.222.041.29-.289.07-.338l-1.329-.297c-.621-.17-.715-.4-.6-.783a.38.38 0 01.306-.287.85.85 0 01.387.013l2.016.47a.153.153 0 01.04.013c.033.015.068.039.101.075.136.144.21.417.172.864-.131 1.567-.862 2.54-2.594 2.525a.173.173 0 10-.003.345c1.947.017 2.797-1.115 2.942-2.841.045-.538-.056-.906-.264-1.129a.583.583 0 00-.33-.19l-1.993-.466a1.182 1.182 0 00-.55-.016.722.722 0 00-.561.525c-.166.553.011.988.848 1.217l.483.108z"/></g></g></g></svg>