<svg xmlns="http://www.w3.org/2000/svg" width="640" height="360" class="dark:fill-white h-32" viewBox="0 0 640 360"><path d="M481.742 153.258c-19.318 0-33.129 8.936-40.103 22.169 0-31.26 10.906-58.496 36.795-58.496 16.46 0 22.993 9.476 26.476 25l23.974-4.793c-5.636-26.815-22.673-39.837-50.285-39.837-34.687 0-60.64 26.631-60.64 86.328 0 52.998 21.636 79.19 58.926 79.19 30.82 0 53.896-21.042 53.896-55.72 0-27.09-14.443-53.84-49.039-53.84m-4.793 89.976c-19.126 0-32.36-17.595-34.66-40.9 5.81-19.905 18.696-29.812 33.918-29.812 19.575 0 30.627 14.452 30.627 35.008 0 22.058-12.582 35.704-29.885 35.704m-127.522-33.34c-7.762 7.762-25.257 21.775-37.464 30.206h73.232v21.005H277.431v-19.181c12.491-8.917 38.427-28.282 54.657-44.52 15.533-15.534 25.706-29.73 25.706-50.57 0-20.5-11.263-29.024-26.485-29.024-15.598 0-28.062 9.018-28.062 27.851 0 4.106.459 8.67 1.595 13.92l-24.478-2.373a51.8 51.8 0 0 1-1.595-12.784c0-25.138 17.633-47.123 53.346-47.123 29.464 0 51.257 15.295 51.257 48.736 0 30.407-22.206 52.283-32.195 62.125zM109.219 36h130.602v21.005H109.219Zm106.115 63.005v110.89h-.01c0 9.814.23 15.753.688 21.462h-.458c-2.401-6.534-5.233-12.262-9.449-19.722l-65.58-112.63h-29.968v162.1h23.351v-110.89h.018c0-9.823-.229-15.753-.687-21.462h.458c2.392 6.534 5.224 12.262 9.44 19.712l65.58 112.64h29.665v-162.1Zm-106.115 204.1h130.602V324H109.219Z" style="stroke-width:9.16436"/>N26</svg>