<svg xmlns="http://www.w3.org/2000/svg" width="30" height="30" fill="none"><g clip-path="url(#a)"><path fill="#48AC98" d="M2.197 27.803C4.393 30 7.929 30 15 30s10.607 0 12.803-2.197S30 22.071 30 15s0-10.607-2.197-12.803S22.071 0 15 0 4.393 0 2.197 2.197 0 7.929 0 15s0 10.607 2.197 12.803"/><path fill="#fff" d="M10.766 5.625h8.468v1.21h-8.468zm7.004 4.234v7.243h-.001c0 .648.015 1.04.045 1.416h-.03a8.5 8.5 0 0 0-.623-1.301l-4.329-7.358h-2.066V20.14h1.63v-6.978c0-.648-.014-1.04-.045-1.416h.03c.159.43.345.809.624 1.3l4.414 7.094h1.815V9.86zm-7.004 13.306h8.468v1.21h-8.468z"/></g><defs><clipPath id="a"><rect width="30" height="30" fill="#fff" rx="7.5"/></clipPath></defs></svg>