<svg xmlns="http://www.w3.org/2000/svg" width="512" height="512" class="dark:fill-white h-32"><path d="M452.441 223.521c-23.463 0-40.236 10.853-48.707 26.925 0-37.966 13.245-71.046 44.689-71.046 19.99 0 27.926 11.51 32.156 30.364l29.117-5.821c-6.845-32.568-27.537-48.384-61.073-48.384-42.128 0-73.65 32.345-73.65 104.849 0 64.367 26.28 96.178 71.569 96.178 37.432 0 65.458-25.556 65.458-67.673 0-32.902-17.542-65.392-59.559-65.392M446.62 332.8c-23.23 0-39.302-21.37-42.095-49.675 7.056-24.175 22.706-36.207 41.193-36.207 23.775 0 37.198 17.552 37.198 42.518 0 26.79-15.282 43.364-36.296 43.364m-154.88-40.493c-9.428 9.428-30.676 26.446-45.501 36.686h88.943v25.511H204.299v-23.296c15.17-10.83 46.67-34.348 66.382-54.071 18.866-18.866 31.22-36.107 31.22-61.418 0-24.899-13.678-35.25-32.166-35.25-18.944 0-34.081 10.952-34.081 33.825 0 4.987.556 10.53 1.936 16.907l-29.73-2.882a62.9 62.9 0 0 1-1.936-15.527c0-30.531 21.415-57.233 64.79-57.233 35.785 0 62.253 18.577 62.253 59.192 0 36.93-26.97 63.499-39.101 75.453zM0 81.107h158.62v25.511H0Zm128.88 76.522v134.678h-.012c0 11.921.278 19.134.835 26.068h-.557c-2.916-7.936-6.355-14.893-11.475-23.953L38.021 157.63H1.626v196.875h28.36V219.826h.023c0-11.932-.279-19.133-.835-26.067h.556c2.905 7.936 6.345 14.892 11.465 23.941l79.65 136.804h36.028V157.63ZM0 405.515h158.62v25.378H0Z" style="stroke-width:11.1304"/>N26</svg>