<svg xmlns="http://www.w3.org/2000/svg" width="512" height="512" fill="none"><path fill="#fff" d="M437.012 74.974C390.7 28.648 326.689 0 256.009 0 185.311 0 121.307 28.648 74.985 74.974 28.648 121.3 0 185.311 0 256.002c0 70.69 28.648 134.698 74.974 181.024C121.3 483.362 185.311 512 256.01 512c70.69 0 134.701-28.662 181.013-74.974 46.326-46.337 74.975-110.337 74.975-181.024 0-70.691-28.659-134.702-74.985-181.028m-8.446 353.588c-44.157 44.16-105.172 71.479-172.568 71.479-67.392 0-128.414-27.319-172.577-71.479-44.16-44.16-71.476-105.172-71.476-172.56 0-67.396 27.315-128.407 71.479-172.568 44.16-44.163 105.172-71.482 172.567-71.482 67.392 0 128.401 27.319 172.564 71.482 44.164 44.161 71.476 105.172 71.476 172.568.01 67.385-27.305 128.4-71.465 172.56"/><path fill="#fff" d="M476.224 253.863c-1.15-120.646-99.297-218.098-220.215-218.098-120.929 0-219.083 97.463-220.213 218.109l100.978-100.978 33.865 33.865-73.893 73.893h318.525l-73.896-73.893 33.864-33.865zm-220.226-37.841-93.829-98.465h62.358V69.021c0-12.596 14.165-22.922 31.471-22.922 17.31 0 31.479 10.316 31.479 22.922v48.536h62.358z"/><path fill="#fff" fill-rule="evenodd" d="M283.372 379.943c-5.003-3.25-11.342-6.177-18.986-8.715-5.847-2.014-10.657-3.915-14.413-5.75-3.723-1.811-6.474-3.826-8.233-5.954-1.805-2.162-2.652-4.755-2.652-7.73 0-2.379.723-4.641 2.256-6.783 1.508-2.135 3.863-3.915 7.058-5.261 3.237-1.364 7.348-2.101 12.458-2.125 4.115.021 7.875.351 11.274.94 3.357.61 6.335 1.346 8.883 2.19 2.586.875 4.673 1.698 6.319 2.472l5.681-17.14c-3.436-1.729-7.74-3.161-12.967-4.322-4.435-.981-9.518-1.546-15.285-1.739v-17.739h-15.626v18.628a59.47 59.47 0 0 0-7.179 1.608c-5.75 1.694-10.688 4.049-14.772 7.127-4.052 3.062-7.196 6.646-9.348 10.75-2.166 4.105-3.233 8.629-3.278 13.498.031 5.626 1.508 10.592 4.418 14.875 2.913 4.29 7.058 8.013 12.419 11.201 5.334 3.178 11.701 5.919 19.063 8.226 5.523 1.77 10.026 3.616 13.463 5.509 3.436 1.891 5.95 3.974 7.516 6.243 1.598 2.273 2.387 4.907 2.359 7.851 0 3.233-.95 6.036-2.803 8.46-1.835 2.386-4.545 4.266-8.109 5.595-3.564 1.343-7.912 2.004-13.012 2.049a74.522 74.522 0 0 1-12.096-1.057 77.592 77.592 0 0 1-10.922-2.741c-3.402-1.133-6.377-2.362-8.96-3.736l-5.495 17.854c2.486 1.367 5.588 2.596 9.386 3.725 3.798 1.14 7.975 2.049 12.555 2.741 4.545.672 9.214 1.012 13.962 1.057l.833-.01v18.339h15.626V440.27a60.607 60.607 0 0 0 5.668-1.378c6.266-1.887 11.476-4.459 15.598-7.754 4.145-3.271 7.217-7.052 9.255-11.318a31.213 31.213 0 0 0 3.041-13.587c0-5.63-1.205-10.613-3.688-14.899-2.514-4.325-6.246-8.113-11.27-11.391z" clip-rule="evenodd"/></svg>