<svg height="80" viewBox="0 0 150 80" width="150" xmlns="http://www.w3.org/2000/svg"><path d="m74.2689373 51.4875461-10.0225099 47.150984h-12.1217368l10.0270934-47.150984zm50.9941027 30.444342 6.381711-17.7044896 3.672883 17.7044896zm13.527333 16.706642h11.209627l-9.78417-47.150984h-10.346408c-2.326872 0-4.290123 1.3607011-5.159453 3.4578721l-18.187189 43.6931119h12.725226l2.527017-7.0448954h15.550169zm-31.638131-15.3951414c.055002-12.4431119-17.0993794-13.1303813-16.9802093-18.6900369.0381956-1.6912669 1.6378248-3.4886224 5.1411198-3.9483395 1.7340776-.2290898 6.5222705-.4059041 11.9490925 2.1079336l2.129784-9.996925c-2.918139-1.0670357-6.670469-2.0910209-11.3394923-2.0910209-11.9796494 0-20.4132248 6.4099016-20.4789212 15.5857934-.0809745 6.7912054 6.0165616 10.5750307 10.6107213 12.8336408 4.7209688 2.3108856 6.303792 3.7930504 6.286986 5.8579336-.0351399 3.1657441-3.7676082 4.5618081-7.2556249 4.6156211-6.0929527.095326-9.6313876-1.6574415-12.4471629-2.9797048l-2.1954797 10.3321034c2.8295257 1.3084255 8.0577313 2.4492619 13.4769147 2.5046125 12.7343933 0 21.064077-6.3268758 21.102272-16.1316113zm-50.2026907-31.7558426-19.6370914 47.150984h-12.8123122l-9.6634718-37.6306888c-.5882114-2.3170356-1.0954481-3.1657441-2.8799438-4.1405289-2.91355586-1.5928659-7.72466618-3.0857933-11.9567321-4.0113776l.28570264-1.3683887h20.62559206c2.6263254 0 4.9913932 1.7589176 5.5887715 4.8062731l5.1044521 27.2847478 12.6136954-32.0910209z" fill="#fff" fill-rule="evenodd" transform="translate(0 -35)"/></svg>