<svg height="270" viewBox="0 0 480 270" width="480" xmlns="http://www.w3.org/2000/svg" xmlns:xlink="http://www.w3.org/1999/xlink"><defs><path id="a" d="m0 0h480v270h-480z"/><mask id="b" fill="#fff"><use fill="#fff" fill-rule="evenodd" xlink:href="#a"/></mask></defs><g fill="none" fill-rule="evenodd"><use fill="#ff7819" xlink:href="#a"/><g mask="url(#b)"><path d="m0 0h80v270h-80z" fill="#238647"/><path d="m40 0h80v270h-80z" fill="#2f9b47"/><path d="m80 0h80v270h-80z" fill="#62b64f"/><path d="m120 0h80v270h-80z" fill="#89cc53"/><path d="m160 0h80v270h-80z" fill="#3db8ad"/><path d="m200 0h80v270h-80z" fill="#3394d7"/><path d="m240 0h80v270h-80z" fill="#2872bc"/><path d="m280 0h80v270h-80z" fill="#1d5c84"/><path d="m320 0h80v270h-80z" fill="#993233"/><path d="m360 0h80v270h-80z" fill="#e13030"/><path d="m400 0h80v270h-80z" fill="#f28825"/><path d="m440 0h40v270h-40z" fill="#f5c836"/></g></g></svg>