<svg height="80" viewBox="0 0 140 80" width="140" xmlns="http://www.w3.org/2000/svg"><path d="m123.908046 44.8059543-.182971-.0010127-.312338-.0064357-.301481-.0118575-.326138-.0191121-.180661-.0133517-.299175-.0266673-.366891-.040337-.313875-.0412748-.37645-.0578943-.220648-.0380807-.461497-.0901063-.30778-.0679055-.457711-.1129505-.31663-.086551-.224308-.0652741-.080467-.0246812c-6.577378-2.0102447-11.362933-8.1031361-11.362933-15.2986341 0-7.1146498 4.678619-13.1513314 11.141756-15.2295905l.301724-.0934572.271646-.0789484.365068-.097995.391523-.094916.415362-.0893654.349357-.0662723.368127-.0613554.303057-.0438996.301621-.0378805.291357-.0311262.34664-.0301402.302862-.0202152.357467-.0166098.276214-.00748c.102568-.0019124.205258-.0028749.308173-.0028749l.325173.0032855.271756.0075452.247893.0108844.344923.0214516.339455.0283096.392076.0416843.391678.0513431.352058.0545105.339226.0600988c.227736.0427222.453964.0903948.678387.1427458l.351684.0862356.423551.1151499.31061.0923047c.205426.063549.408799.1308441.610326.2020241l.401355.1480457c.497701.1907104.983267.405373 1.455448.6425179l.37499.1952845.273003.1489104.037901.022092c.563171.3172129 1.104823.6675061 1.622641 1.047996l.375759.2846559.226084.1798012.313793-2.7867704h5.632184v14.4019139h-.016092c.008046.2648352.016092.5320707.016092.8001064v28.8038277h-6.436782v-16.0045268c-.354032.2648856-.719516.5155657-1.095567.7511859l-.057733.0350106c-.375167.2338738-.761293.4520862-1.156988.6544657l-.333982.1656087-.260557.1231852-.390197.1733424-.329828.137157-.292903.1145771-.350955.1287386-.304583.1042061-.175049.0567878-.303225.0932209-.198896.0576123-.352079.0949441c-.220052.057104-.442398.1095256-.666463.1573052l-.450685.0891508-.296602.0516579-.400054.0606308-.146974.0197899-.260749.031527-.141663.0154005-.262787.0251489-.364497.0277975-.291104.0162942-.426408.0144781zm-117.47126439-44.8059543v16.0045268c1.45757933-1.0905539 3.10925017-1.9403185 4.89338979-2.4896746l.3364953-.0994694.2579583-.0712327.2401224-.0617519.2828487-.0676247c.2038782-.0473127.4095306-.090514.6165796-.1297669l.2118066-.0386592.3623811-.059453.364083-.0512476.2584049-.0312239.4044502-.0405495.3652016-.0278433.2864448-.0160617.2162383-.0087793.1839043-.0052253c.1246243-.0028352.2495801-.0042626.3748635-.0042626l.247384.0021222.272968.0060991.2895469.0117264.1907233.0104918.3012358.0211922.3403313.0307255.3097814.0342897.3853812.0511103.3351768.0522698.3196191.056475.2576598.0504649.2624287.0559245.2847413.0659063c.1915318.0460897.3817503.0956271.570572.1485199l.3614711.1061748c5.9342063 1.8136452 10.4098661 6.9505567 11.2284489 13.2221627l.0312526.2562007c.0179043.1568574.033523.3143996.0468221.472593.0373707.4443529.0564097.893822.0564097 1.3476778 0 .5496803-.0279274 1.0929261-.0824476 1.6284089l-.0527971.4531252c-.6923196 5.2906327-3.9868573 9.7728551-8.5635507 12.1333005l-.1632558.083026c-.4353534.2182929-.8820171.4174986-1.3388772.5965084l-.0597345.0226316c-.1811598.0705737-.3639256.1376991-.5482177.2014919l-.3413884.1134515c-.2503486.080607-.5035257.1551438-.7592634.2235235l-.4349791.1097205-.3325828.0753346-.2515629.0520695-.2919106.055114-.3839956.064194-.3030565.0438996-.300963.0378041-.2814609.0301794-.3300126.0290616-.3121822.0212812-.3648373.0172698-.3289029.008585-.2659752.0021457-.1829864-.0010158-.2000263-.0034343-.2948679-.0095247-.2803368-.0139912-.1952609-.012599-.3797491-.0312977c-.229574-.0216206-.4576631-.0480426-.6842497-.0791647l-.2360393-.0342088-.2120222-.0338656-.3445537-.061114-.333271-.0663849-.449201-.1013695-.3693312-.0934125-.2633918-.0722989c-2.11808661-.6026142-4.05740473-1.6259542-5.72068969-2.9731951l-.3137931 2.7867704h-5.63218391v-14.4019139h.02413793c-.01609195-.2648352-.02413793-.5320707-.02413793-.8001063v-28.8038278zm45.40948159 39.1914564.2045326.0092747.1811953.0041798.266896-.0023727.1854153-.0076233.2286691-.0157038.2141673-.0200327.1183038-.0141897.3675362-.0570922.2059188-.0401319.2025053-.0450323.1499997-.0370129.1170515-.0320695c.1158131-.0322676.2306251-.0672859.3443745-.1049875l.2413942-.0846107.2380268-.0926304c1.1324118-.4628949 2.1442151-1.1970239 2.9692485-2.1299586l.1311397-.15183.228745-.2830381.0661661-.0865885c.9314941-1.2349087 1.5612561-2.7520261 1.7654358-4.41577l.0237027-.2127661.0190398-.2142906.0140074-.2090231.011302-.2710267c.0025214-.0906926.003791-.1817291.003791-.2730892v-16.8022329h6.4367816v16.8022329c0 .1681663-.0029066.3356636-.0086725.5024448-.0068098.1968926-.0176067.3928307-.0323131.5876917l-.0246534.2881792-.0254424.2436817-.0380055.3067976-.0512736.347703-.0368954.2192582c-.0329637.1874437-.0695944.3735066-.1097958.5582547l-.0401331.1785573-.0615116.2556776-.0692142.2648783c-.0856618.3160525-.1818797.6276576-.288246.934543l-.1448444.3981607-.0532729.138343-.0643494.1607601-.1315644.3130078-.1114179.249856c-.1151908.2523376-.2375747.5005522-.3668001.7446392l-.1599279.2932864c-.2967986.5308126-.6263669 1.0407097-.98593 1.5273613l-.2550195.3348172-.0938568.1180095c-.3312426.4134547-.6849137.8082665-1.0591265 1.1827338l-.3444669.3333522-.2494486.2284619-.2655844.2316756c-.1329456.1132247-.2679713.2240969-.4050114.3325513l-.2963757.2284071-.3293284.2399628-.2154472.1495028c-.163916.1116941-.3301241.2199498-.4986471.3248516-.097876.0607371-.1962574.1203521-.2953979.1788247-.4315325.2547912-.8774989.4877399-1.3363019.6975079-.1670288.0764918-.3357918.1498993-.5062162.22015l-.3218433.1272942c-.2664847.1032464-.5369044.198023-.8109146.2848835l-.2399186.0737527-.0616346.0172413c-.1996701.0594794-.4016056.1139246-.6052672.1640742l-.3518067.0818564-.3466841.0711876c-.2023584.0399821-.4066494.0751529-.612384.1060157l-.2548902.0359294-.2057958.0256177-.2143805.0233997-.1858451.0180694-.3264002.0255735-.3721547.0202506-.3791112.0109468-.2392357.0019312-.2667217-.0030415-.1651088-.0032658-.289311-.0112884-.3674054-.022623-.3223793-.0274495-.3338602-.0361045-.3673299-.0487159-.3419705-.0539588-.3230429-.0586957-.1380384-.0274675-.2209297-.0466884-.2811638-.0647518-.284125-.0717382-.4222151-.1174147-.25924-.0791706-.3696678-.1222259-.1366268-.0485734c-.0892636-.0312999-.1779421-.0639513-.2661964-.0974362l-.0837838-.0327164c-.1320407-.0504156-.263054-.1033024-.3930674-.1580242-5.1973878-2.1877466-8.8505747-7.3087053-8.8505747-13.2705635v-16.8022329h6.4367816v16.8022329c0 2.4287228.9011494 4.6290152 2.3574712 6.2221269l.0563219.060308c.1064638.1145156.2158843.2258057.3281207.3337258l.1644979.153761.1681366.1488299.1724033.1444174.2610922.2038563.2247569.1625115.0937465.0637394.154799.1027117c.1258134.0807315.2538228.1578334.3839.2311739l.1665584.0906983.189908.0982471.2654772.1258873.1405924.0613898c.2578455.1098763.52211.2056395.7919482.2864204.2691787.0805835.543904.1462578.8233366.1961601.2790257.0498295.562745.083933.8503226.1014512zm-37.7871991-20.6528415-.0818439.0142339-.1797429.0335613-.2558353.0539886-.1290856.0301757-.3101855.0796466-.1644852.046634-.2683362.0831719-.2082835.0704996-.2507441.0918231-.1196451.0464795-.1137512.0459482-.1521487.0643277c-3.63538127 1.5677919-6.19279299 5.2797186-6.19279299 9.6047228 0 4.3627114 2.60219941 8.1016087 6.28812239 9.6452389.1508296.063265.3034221.1227455.4577372.1784475l.1721367.06021.3194547.1018003.1756424.0520283.1673612.0445209.2408585.0608626.1355656.0308472.2429774.0502093.2716551.0484231.2389304.0361573.1380251.0181315.2371284.0265301.1322934.0115071.2469663.0187033.2825362.012914c.1029659.0032259.2063331.0048508.3100803.0048508l.2496708-.003148.1168723-.0036435.2801549-.0144024.28711-.0231206.1553453-.0160704.1546443-.0185018.3199185-.0462649c.1551944-.0250858.3092223-.053845.4619965-.0861889l.3239493-.0743976.16945-.043704.1372586-.0379688.3528451-.1068357.203468-.0684636c.0554199-.01933.1106241-.0391461.1656079-.0594435.2246555-.0829319.4456319-.1738974.6626052-.2725612l.1873721-.0875907.2288834-.1136083.2690878-.1426134.1092112-.0617798c.9663443-.5494754 1.8361148-1.2584266 2.5760967-2.0924802l.2028199-.2356311.176927-.2178515.1436246-.1860846.1523414-.2083012.164894-.2361742c.3492094-.5173528.6541264-1.0689749.9090423-1.6489855.0460508-.1045728.0904776-.2103004.1332383-.3169205l.0740653-.1901404.0944985-.2595672.0660549-.1954708c.0537691-.1642522.103676-.3303393.1496087-.4981459l.0740321-.2868239.0626467-.2714243.0491321-.2406013.0008057-.0079444.0155059-.0789291.0291494-.1660399.0413552-.2679605.0181891-.1348189.0255156-.2159381.0311758-.3389342.0188452-.3041777-.0012343.0126119.0100088-.2504387.0036811-.2839029c0-.1598249-.0034924-.3188107-.0104026-.4768805-.0053755-.1229557-.0128114-.2452571-.0222767-.3669698-.0104605-.1344961-.0234119-.2683985-.0387987-.4015309-.0147771-.1279094-.0318019-.2550733-.0510312-.381484l-.048099-.2862579-.0410392-.2180564-.0598786-.2763222-.025106-.1081324c-.061028-.2537291-.131074-.5037871-.2097651-.7497898l-.0270029-.0832268c-.0272476-.0829985-.0556226-.1657635-.0849753-.2480405-.3200133-.8966707-.7559462-1.735196-1.2890247-2.4963227l-.181265-.2508159c-.0965069-.1294492-.1958939-.2564886-.2980614-.3810154l-.0932788-.1120639-.0947586-.1106339c-.8411426-.9681965-1.8552753-1.7724785-2.9919139-2.3606002-.1229076-.0635951-.2472476-.1246627-.3729562-.1831367l-.1892177-.0859678-.2078598-.0882318-.2804699-.1108459-.2927476-.1050171-.1886111-.0621123-.2070885-.0633478-.3568338-.0974912-.2449132-.0585617-.1307319-.0284914-.2041402-.0407992-.1739845-.031232-.3376328-.0512727-.1662517-.0209384-.2689195-.0273362-.3570038-.0255914-.2143424-.0084061c-.0986847-.0029661-.1977211-.0044594-.2970889-.0044594l-.3331503.0056089c-.1606313.005397-.3204951.0147171-.4792925.0278542-.1950407.0161353-.3884728.0380287-.5801447.0655123zm73.2284703-.1247515-.0983862.0060985-.2126529.0174508-.271051.0317313-.1482451.0215154-.284034.0498933.0990412-.018425-.2330174.0463108-.230641.0535819-.0850986.0212597c-.0552899.0144551-.1103566.0295345-.1651938.0452309l-.1175552.0353059c-1.2860488.3916988-2.4426769 1.1243685-3.3832555 2.1031741l-.117168.1236097-.0738169.081421c-.1028167.1144545-.2027892.2319736-.2997933.3524201l-.0950561.1198759c-1.1950194 1.5360328-1.9164382 3.5262297-1.9164382 5.6992974v16.8022329h-6.4367816v-16.8022329c0-5.7271456 3.3712042-10.6782991 8.2443535-12.9982279l.2152788-.1010573.2689984-.1192373.1658909-.0698073c.6948142-.2907148 1.4179991-.5284647 2.1641916-.7085637l.4830624-.1077483.1699831-.0332592c.1901137-.0373267.3816887-.0702985.5745357-.0994844l.2560806-.0364252.2957955-.0363123.3735786-.0371283.2863277-.0219237.36168-.019666.3329466-.0102452c.096492-.0018787.1931636-.0028278.2900552-.0028278l.3903561.0051529.3100881.0115099.2501328.0139536.1163811.0080179.316193.0263829.3973726.0430779.3005518.0399081.3777686.0592539.3118065.0566344.1396328.0277244.3397716.0733452.3308861.0797214.2726445.0716765.2583159.0733969.3658247.1129353.2225852.0739758.2950255.104393.383624.1465397.253223.1037507c.4053291.1705233.8012637.3588938 1.1868041.5641185l.042798.0236659c2.0006555 1.0728883 3.7190536 2.6008694 5.0150205 4.4438817l.1740913.2532593c.6069998.9034757 1.1140518 1.878897 1.5053478 2.9105624l.137759.3799167.086125.2552723.124853.4031493.079958.2831155.043345.1636672.049929.1994644.069991.3018113.095185.4698958.032091.1800701.047493.2944752c.017196.114583.033042.2293485.047516.3445347l.021172.1772426.04067.4134772.020199.2721152.012831.2256944c.011552.2356236.017396.4727261.017396.7111738v16.8022329h-6.4367816v-16.8022329l-.0070131-.370282-.0100262-.2026134.0023723.037567c-.0086189-.1568453-.0209996-.3125887-.0370446-.4671235-.0450648-.4331975-.1189101-.8569064-.2194015-1.2687702l-.0803314-.3066402-.0602285-.2058582-.0778713-.2418743-.0731523-.2110916c-.418479-1.155113-1.0540415-2.1905911-1.8510965-3.0457485l-.1781869-.1861349-.1186584-.1173602-.1779462-.1677332-.0865424-.0782804.0145568.0135928-.1166644-.1029814-.1034726-.0875998c-.0544122-.0452955-.1093748-.0898498-.1648744-.1336492l-.187033-.1429144-.1167187-.0851148-.0730782-.0520455-.1775335-.1201797-.188602-.1205953-.2680109-.1588249c-.2501039-.1414365-.5078737-.2689587-.7723971-.3816282-.1738833-.0740628-.3506848-.1417077-.5301453-.2026683l-.2829193-.0902077-.1737263-.0488166-.2108689-.0535897-.2273264-.0507118-.1849186-.0354789-.2063589-.0338238c-.1415893-.0212531-.2843173-.0384677-.4280774-.0515342l-.0789879-.0071199-.383254-.0209383-.210439-.0023964-.175462.0020551zm37.5565616.0030041-.137131-.0064682-.08776-.0031411c-.102563-.0032007-.205523-.0048127-.30886-.0048127l-.249671.003148-.3043.0123908-.180578.0118673-.170137.0141736-.283062.0303114-.278051.0379447-.149593.0240071-.189813.0334746-.117133.0227236-.332394.0723402-.089405.0220692c-.160154.0395956-.318825.0831572-.475909.1305787l-.284028.0898884-.114431.0398251-.217394.0788832-.215092.0838561-.157391.0651071-.21447.0939424-.205417.0957741c-.212309.1019775-.42061.2113929-.624588.3279218-.883098.5044965-1.685182 1.1423239-2.380813 1.8871537l-.119512.1297615c-.092358.1024476-.182729.2068275-.271048.3130745-1.51633 1.8215675-2.433241 4.1914627-2.433241 6.7811652 0 2.5824329.91177 4.9462908 2.420374 6.7656478l.152629.1801185c.13104.1507361.266179.2975056.40529.4401085l.212564.2116826.210597.197995c.642791.5875451 1.358704 1.0914565 2.131755 1.4951926l.295955.1487616.235596.1093021.228694.0986612.244696.098457.300877.1109453.314759.1038203.187638.0565513.173115.0484054.198949.0509124.216177.0512337.238585.0500833.262162.0475782.400755.0587438.19973.0235728.12184.0120234.246602.0190763.241503.0133773.170335.0058162.246294.0033156.308649-.0048132.305656-.0143045.200495-.0150239.288074-.0277199.289713-.0371139.28186-.0446483.242865-.0458109.152551-.0312832.230573-.0530357.287971-.0743306.267531-.0777199.210553-.0678188.177335-.0604887.226004-.0822463.210099-.0828551.202353-.084974.145552-.0651637.295827-.1394751c.198681-.0981735.39378-.2029015.585036-.3139127 2.416124-1.4023979 4.218779-3.807544 4.876684-6.6686175.094595-.4113704.165524-.8321663.211208-1.2607622l.020519-.2124813c.012299-.1420679.021828-.2849538.028531-.4285995.007861-.1682629.011832-.3377471.011832-.5081833 0-.177041-.004285-.3530546-.012754-.5279359l-.01595-.2626403-.027458-.3141421-.024821-.2195057c-.042457-.3445823-.101256-.6839268-.175566-1.017176-.686623-3.079249-2.697439-5.638082-5.37513-6.9999539l-.285645-.1395369-.184703-.0841441-.19478-.0836589-.225677-.0912639-.299303-.11066-.130189-.0447436-.387258-.1214991-.162752-.0453665-.11624-.0306803-.22526-.0552519-.303673-.0658711-.217167-.0404654-.137709-.0231508-.151463-.0230455-.247669-.0326476-.262874-.0275409-.108963-.0096061z" fill="#fff" fill-rule="evenodd" transform="translate(0 11.416667)"/></svg>