<svg version="1.1" id="svg166" width="640" height="360" xmlns="http://www.w3.org/2000/svg"><defs id="defs134"><style id="style132">.cls-1,.cls-4{fill:#111}.cls-4{fill-rule:evenodd}</style></defs><g id="Layer_2" data-name="Layer 2"><g id="Layer_1-2" data-name="Layer 1"><g id="g2120" transform="matrix(2.83041 0 0 2.83041 64.003 91.294)"><path class="cls-1" d="M19.92 49.79a1.31 1.31 0 0 1-.23.54 1.65 1.65 0 0 1-.62.38l-2.1.74-2.42.71a24.56 24.56 0 0 1-6 .88 11.28 11.28 0 0 1-5.63-1.15A5.38 5.38 0 0 1 0 47c0-2.31 1.11-4.76 3.29-7.37a19.72 19.72 0 0 1 3-2.87 22.41 22.41 0 0 1 2.9-1.79l1.9-1a1.65 1.65 0 0 0 .41-.33.23.23 0 0 0 .08-.21v-.1l-.22-.33-.48-.56a4.4 4.4 0 0 1-1.45-2.83 4.27 4.27 0 0 1 .57-2.24 12.15 12.15 0 0 1 4.25-4.26 18.39 18.39 0 0 1 5.52-2.35 14.07 14.07 0 0 1 3.13-.37q3.84 0 3.91 2.64a12.57 12.57 0 0 1-1.73 4.85l-1 1.74-.31.43-.16.07-.34-.29-.51-.9a1.23 1.23 0 0 1-.25-.58c0-.1 0-.25.21-.46a31.75 31.75 0 0 0 1.76-3.24 3.89 3.89 0 0 0 .41-1.65c-.07-1.12-.78-1.65-2.15-1.61a11.78 11.78 0 0 0-4.38 1 12.19 12.19 0 0 0-3.83 2.4A13.3 13.3 0 0 0 12.66 27a5.89 5.89 0 0 0-1.33 3.33 6.27 6.27 0 0 0 .74 2.31l.42.89a3.09 3.09 0 0 1 .21 1 2.11 2.11 0 0 1-1.13 1.67l-1.81 1.11a24 24 0 0 0-2.65 1.79 14.72 14.72 0 0 0-2.82 2.81A10.14 10.14 0 0 0 1.9 48a3.81 3.81 0 0 0 1.47 3 4.83 4.83 0 0 0 3.24 1 15.58 15.58 0 0 0 4.2-.56 27.53 27.53 0 0 0 4.47-1.54l3.47-1.58 1-.46a.72.72 0 0 1 .38-.1l.13.08V48l-.08.44-.32 1.35zm4.7-7.67.56-.15.17.11.07.2-.07.34-.17.56-.62 1.64-.69 2.23-.55 2-.15.73-.06.75c0 .59.26.93.74 1 1.32-.07 2.74-2 4.25-5.75l.73-1.81.42-1.16a.65.65 0 0 1 .53-.63l.84-.14h.19a.35.35 0 0 1 .34.42v.27l-.13.41a20.48 20.48 0 0 1-1.75 3.51c-.48.81-1 1.58-1.51 2.32q-2.56 3.52-4.33 3.47c-1.22 0-1.86-.7-1.9-2a10.07 10.07 0 0 1 .21-1.89l.54-2.55.77-2.61.16-.43.18-.29a1.18 1.18 0 0 1 .36-.21l.87-.29zm7.51 8.15a1.41 1.41 0 0 0 1.48 1.23 5.82 5.82 0 0 0 3.26-1.61l1.22-1.14a.7.7 0 0 1 .36-.19l.18.07a.28.28 0 0 1 .08.2l-.08.25a7.73 7.73 0 0 1-3.69 2.85 4.73 4.73 0 0 1-1.09.35 3.88 3.88 0 0 1-1 .09C31 52.36 30 51.48 30 49.75a7.84 7.84 0 0 1 2.22-5.09A6.65 6.65 0 0 1 37 42a2.2 2.2 0 0 1 1.49.55 1.86 1.86 0 0 1 .6 1.45q0 2.7-4.9 5l-2.1 1v.31zm0-1.19 1-.47q3.35-1.68 3.82-3.91L37 44c0-.61-.17-1-.49-1.1l-.32-.07a1.89 1.89 0 0 0-1.35.86l-.75 1.14-.89 1.6-.6 1.33-.49 1.31zm11-2.91 1.43-2.08c1-1.39 1.88-2.09 2.71-2.12a1.86 1.86 0 0 1 1.81 1.9 6.15 6.15 0 0 1-.32 1.79l-.61 1.68-1 2.64-.1.44q0 .54.48.54a1.28 1.28 0 0 0 .67-.29l1-.81.73-.71.4-.41.22-.15.24.12.1.12v.11c0 .32-.61 1-1.87 2.08a4.63 4.63 0 0 1-2.36 1.35c-1 0-1.51-.47-1.49-1.37a5.92 5.92 0 0 1 .4-1.9l.61-1.83.62-1.83.42-1.22a3 3 0 0 0 .13-.66.61.61 0 0 0-.55-.67c-.39 0-.79.31-1.23.89l-1 1.37L43 47.63a20.42 20.42 0 0 0-1.35 2.47 12.92 12.92 0 0 1-.83 1.58.59.59 0 0 1-.32.31l-.38.07h-1l-.12-.15.06-.41.09-.32 2.11-8 .11-.38a.67.67 0 0 1 .19-.29l.34-.14 1.16-.37.28-.07.14.09.06.14-.08.44-1.57 5.42 1.27-1.89zm11.71-13a1.85 1.85 0 0 1 .27-.61 1.53 1.53 0 0 1 .48-.23l.74-.18.49-.07a.83.83 0 0 1 .38.17l.07.21a4.62 4.62 0 0 1-.23 1l-1.71 6h2.3l.36.14.01.4-.11.31a.48.48 0 0 1-.21.18h-2.56l-1.94 6.41-.62 2.27a3.75 3.75 0 0 0-.21 1.23c0 .39.17.57.47.56a2.84 2.84 0 0 0 1.73-1l1.15-1.1a.75.75 0 0 1 .43-.25h.13l.13.12.08.22v.14l-.12.25a4.45 4.45 0 0 1-.73.81l-1.11 1A3.93 3.93 0 0 1 52 52.37c-1.11 0-1.65-.63-1.63-1.81a8.45 8.45 0 0 1 .28-1.93l.41-1.63L53 40.54h-1.47l-.1-.17.1-.33.14-.33a.39.39 0 0 1 .16-.15H53.2l1.67-6.28z" id="path138"/><path d="M120.48 49.79a1.45 1.45 0 0 1-.24.54 1.65 1.65 0 0 1-.62.38l-2.1.74-2.42.71a24.49 24.49 0 0 1-6 .88 11.28 11.28 0 0 1-5.63-1.15 5.38 5.38 0 0 1-2.92-4.89c0-2.31 1.11-4.76 3.29-7.37a20.2 20.2 0 0 1 3-2.87 22.41 22.41 0 0 1 2.9-1.79l1.9-1a1.49 1.49 0 0 0 .41-.33.23.23 0 0 0 .09-.21v-.1l-.15-.25-.48-.56a4.45 4.45 0 0 1-1.51-2.9 4.27 4.27 0 0 1 .55-2.25 12.15 12.15 0 0 1 4.25-4.26 18.5 18.5 0 0 1 5.52-2.35 14.14 14.14 0 0 1 3.13-.37q3.84 0 3.91 2.64a12.57 12.57 0 0 1-1.73 4.85l-1 1.74-.32.43-.16.07-.34-.29-.51-.9a1.35 1.35 0 0 1-.25-.58.76.76 0 0 1 .21-.46 29.91 29.91 0 0 0 1.74-3.24 3.89 3.89 0 0 0 .42-1.62c-.07-1.12-.78-1.65-2.15-1.61a11.82 11.82 0 0 0-4.38 1 12.19 12.19 0 0 0-3.83 2.4 13.3 13.3 0 0 0-1.85 2.18 6 6 0 0 0-1.33 3.33 6.27 6.27 0 0 0 .74 2.31l.42.89a3.4 3.4 0 0 1 .22 1 2.16 2.16 0 0 1-1.13 1.67l-1.81 1.09a24.14 24.14 0 0 0-2.66 1.79 15 15 0 0 0-2.82 2.81 10.14 10.14 0 0 0-2.39 6.11 3.81 3.81 0 0 0 1.47 3 4.83 4.83 0 0 0 3.24 1 15.71 15.71 0 0 0 4.21-.56 28.21 28.21 0 0 0 4.47-1.54l3.46-1.58 1-.46a.72.72 0 0 1 .38-.1l.13.08V48l-.08.44-.31 1.35zm2.83-2.87-.44.44c-.12.13-.21.2-.3.2l-.23-.12a.24.24 0 0 1-.08-.25l.08-.25.32-.4 2.91-3.26.38-.46.21-.46.28-.77c.35-1 .9-1.5 1.67-1.51a.73.73 0 0 1 .8.83l-.07.35a1.55 1.55 0 0 1-.37.52l-.46.46-.63.68.42.82.41.89a12.32 12.32 0 0 1 .5 1.59 7 7 0 0 1 .2 1.57 4.83 4.83 0 0 1-.28 1.58q-1 3-4.46 3a3.64 3.64 0 0 1-1.81-.38c-.75-.39-1.13-.87-1.11-1.41v-.25a1 1 0 0 1 .93-.56 2 2 0 0 1 1.53.79l.57.6a1.07 1.07 0 0 0 .85.34c.92 0 1.45-.76 1.61-2.17v-.93a13.63 13.63 0 0 0-.18-2.21l-.31-1.54-.21-.81-2.81 3.08zm9.52-.46c.28-.61.57-1.2.88-1.76a6.9 6.9 0 0 1 1.09-1.52 3.32 3.32 0 0 1 2.48-1.18 2.74 2.74 0 0 1 2.18 1 3.56 3.56 0 0 1 .83 2.35 8.2 8.2 0 0 1-1.56 4.74 4.9 4.9 0 0 1-4.16 2.31 4.14 4.14 0 0 1-1.38-.21q-1.14-.3-1.11-.87a.67.67 0 0 1 .14-.4l.15-.18.4.2.73.38a1.67 1.67 0 0 0 .71.21c.93 0 1.81-.77 2.65-2.35a11.35 11.35 0 0 0 1.24-3.56 6.27 6.27 0 0 0 .1-1.14c0-1-.41-1.58-1.26-1.61-1.11 0-2.22 1.13-3.31 3.35l-1.16 2.52a62.66 62.66 0 0 0-2.39 6.78L129 59l-.85 2.62-.14.39a.83.83 0 0 1-.23.29l-.28.11-1.1.29h-.15l-.2-.08-.08-.12v-.25l1.26-4.31 1.6-5.64 1.54-5.55.87-3a2.64 2.64 0 0 1 .26-.56l.2-.23.18-.15 1.53-.72.22-.09a.3.3 0 0 1 .15.09l.09.2-.05.29-.69 2.08-1 3.43.67-1.6zm10.76.27 1.11-2c1-1.83 1.93-2.76 2.72-2.77.79-.01 1.12.78 1.09 2.22v.94a2.44 2.44 0 0 1-.14.71l-.2.25-.37.31-.93.6a.68.68 0 0 1-.38.17l-.14-.11V46.84l.14-.41.27-.83a3.45 3.45 0 0 0 .19-.83V44.35l-.11-.18-.17-.06-.21.06a13 13 0 0 0-2.46 3.52 26.19 26.19 0 0 0-1.47 3.05l-.4 1-.1.19a.27.27 0 0 1-.24.13H140.34l-.11-.09v-.37l.43-1.5.74-2.79.53-2.51.22-1.27a1 1 0 0 1 .12-.52.52.52 0 0 1 .3-.25l.43-.19 1-.38.49-.18.18.18-.08.32-.27.77-.7 2.22-.7 2.42.68-1.15zm6 3.54a1.42 1.42 0 0 0 1.49 1.23 5.8 5.8 0 0 0 3.25-1.61l1.23-1.14a.7.7 0 0 1 .36-.19l.17.07a.24.24 0 0 1 .08.2l-.08.25a7.68 7.68 0 0 1-3.69 2.85 4.58 4.58 0 0 1-1.09.35 3.88 3.88 0 0 1-1 .09c-1.86 0-2.81-.89-2.83-2.62a7.79 7.79 0 0 1 2.22-5.09 6.63 6.63 0 0 1 4.76-2.66 2.23 2.23 0 0 1 1.5.55 1.85 1.85 0 0 1 .64 1.45q0 2.7-4.89 5l-2.11 1v.31zm0-1.19 1-.47c2.24-1.12 3.51-2.42 3.83-3.91l.06-.69c0-.61-.18-1-.5-1.1l-.32-.07a1.86 1.86 0 0 0-1.34.86l-.75 1.14-.9 1.6-.59 1.33-.5 1.31zm8.41-2.16-.43.44c-.12.13-.22.2-.3.2l-.24-.12a.28.28 0 0 1-.08-.25l.08-.25.32-.4 2.91-3.26.38-.46.22-.46.28-.77c.34-1 .9-1.5 1.67-1.51a.72.72 0 0 1 .79.83l-.06.35a1.58 1.58 0 0 1-.38.52l-.45.46-.64.68.42.82.41.89a11 11 0 0 1 .51 1.59 7.62 7.62 0 0 1 .19 1.57 4.81 4.81 0 0 1-.27 1.58q-1 3-4.47 3a3.67 3.67 0 0 1-1.81-.38c-.75-.39-1.12-.87-1.11-1.41v-.25a1 1 0 0 1 .94-.56 2 2 0 0 1 1.52.79l.58.6a1.06 1.06 0 0 0 .85.34c.91 0 1.45-.76 1.61-2.17v-.93a13.63 13.63 0 0 0-.18-2.21l-.26-1.54-.2-.81zm7.36 0-.43.44c-.12.13-.22.2-.3.2l-.24-.12a.28.28 0 0 1-.08-.25l.08-.25.32-.4 2.91-3.26.38-.46.22-.46.28-.77c.34-1 .9-1.5 1.67-1.51a.72.72 0 0 1 .79.83l-.06.35a1.58 1.58 0 0 1-.38.52l-.45.46-.64.68.42.82.42.89a12.32 12.32 0 0 1 .5 1.59 7 7 0 0 1 .19 1.57 4.81 4.81 0 0 1-.27 1.58q-1 3-4.47 3a3.69 3.69 0 0 1-1.81-.38c-.75-.39-1.12-.87-1.11-1.41v-.25a1 1 0 0 1 .94-.56 2 2 0 0 1 1.52.79l.58.6a1.06 1.06 0 0 0 .85.34c.92 0 1.45-.76 1.61-2.17v-.93a13.63 13.63 0 0 0-.18-2.21l-.32-1.54-.2-.81-2.82 3.08zm5.64 2.39a7 7 0 0 1 2.23-4.9Q175.6 42 177.88 42a2.81 2.81 0 0 1 2.11.85 3 3 0 0 1 .89 2.19 7.13 7.13 0 0 1-1.31 4 8 8 0 0 1-3 2.78 4.83 4.83 0 0 1-2.44.63 3.12 3.12 0 0 1-2.21-.85 2.78 2.78 0 0 1-.91-2.21zm2.09.75a1.92 1.92 0 0 0 .16.79l.22.36.3.2a.68.68 0 0 0 .41.09q2.44 0 4.15-5a7.16 7.16 0 0 0 .43-2.23 1.28 1.28 0 0 0-1.32-1.44q-1.53 0-3.1 2.93a9.1 9.1 0 0 0-1.25 4.29z" id="path140" style="fill:#101010"/><path class="cls-1" d="M.11 45.74a13.26 13.26 0 0 1 3.18-6.16 19.72 19.72 0 0 1 3-2.87 22.41 22.41 0 0 1 2.9-1.79l1.9-1a1.65 1.65 0 0 0 .41-.33.23.23 0 0 0 .08-.21v-.1l-.22-.28-.48-.56a4.4 4.4 0 0 1-1.45-2.83 4.27 4.27 0 0 1 .57-2.24 12.15 12.15 0 0 1 4.25-4.26 18.39 18.39 0 0 1 5.52-2.35 14.07 14.07 0 0 1 3.13-.37q3.84 0 3.91 2.64a12.57 12.57 0 0 1-1.73 4.85l-1 1.74-.31.43-.16.07-.34-.29-.51-.9a1.23 1.23 0 0 1-.25-.58c0-.1 0-.25.21-.46a31.75 31.75 0 0 0 1.76-3.24 3.89 3.89 0 0 0 .41-1.65c-.07-1.12-.78-1.65-2.15-1.61a11.78 11.78 0 0 0-4.38 1 12.19 12.19 0 0 0-3.83 2.4A13.3 13.3 0 0 0 12.66 27a5.89 5.89 0 0 0-1.33 3.33 6.27 6.27 0 0 0 .74 2.31l.42.89a3.09 3.09 0 0 1 .21 1 2.11 2.11 0 0 1-1.13 1.67l-1.81 1.11a24 24 0 0 0-2.65 1.79 14.72 14.72 0 0 0-2.82 2.81 11.92 11.92 0 0 0-2.08 3.93ZM53 47.56h-2.07l.13-.52 1.94-6.5h-1.47l-.1-.17.1-.33.14-.33a.39.39 0 0 1 .16-.15H53.2l1.67-6.28a1.85 1.85 0 0 1 .27-.61 1.53 1.53 0 0 1 .48-.23l.74-.18.49-.07a.83.83 0 0 1 .38.17l.07.21a4.62 4.62 0 0 1-.23 1l-1.71 6h2.3l.36.14L58 40l-.11.31a.48.48 0 0 1-.21.18h-2.56l-1.94 6.41zm-4.87-.1h-2l.05-.15.62-1.83.42-1.22a3 3 0 0 0 .13-.66.61.61 0 0 0-.55-.67c-.39 0-.79.31-1.23.89l-1 1.37-1.44 2.2h-.8l.77-1.15 1.43-2.08c1-1.39 1.88-2.09 2.71-2.12a1.86 1.86 0 0 1 1.81 1.9 6.15 6.15 0 0 1-.32 1.79l-.61 1.68v.12zm-6-.14h-1.94l1.08-4.11.11-.38a.67.67 0 0 1 .19-.29l.34-.14 1.15-.4.28-.07.14.09.06.14-.08.44-1.35 4.68zm-4.88-.13-1.84-.06a4.49 4.49 0 0 0 1.55-2.43L37 44c0-.61-.17-1-.49-1.1l-.32-.07a1.89 1.89 0 0 0-1.35.86l-.75 1.14-.89 1.6-.28.62-2.26-.05a10.65 10.65 0 0 1 1.56-2.33A6.65 6.65 0 0 1 37 42a2.2 2.2 0 0 1 1.49.55 1.86 1.86 0 0 1 .6 1.45 4.14 4.14 0 0 1-1.86 3.18zM29 46.94h-1.39c.16-.35.32-.74.48-1.14l.73-1.81.42-1.16a.65.65 0 0 1 .53-.63l.84-.14h.19a.35.35 0 0 1 .34.42v.27l-.13.41a20.48 20.48 0 0 1-1.75 3.51c-.07.12-.14.24-.22.36zm-5-.17-1.85-.07.17-.75.77-2.61.16-.43.18-.29a1.18 1.18 0 0 1 .36-.21l.87-.29.56-.15.17.11.07.2-.07.34-.17.56-.62 1.64-.6 2z" id="path142"/><path d="M100.63 47.89a7 7 0 0 1-.08-.94c0-2.31 1.11-4.76 3.29-7.37a20.2 20.2 0 0 1 3-2.87 22.41 22.41 0 0 1 2.9-1.79l1.9-1a1.49 1.49 0 0 0 .41-.33.23.23 0 0 0 .09-.21v-.1l-.15-.25-.48-.56a4.45 4.45 0 0 1-1.51-2.85 4.27 4.27 0 0 1 .55-2.25 12.15 12.15 0 0 1 4.25-4.26 18.5 18.5 0 0 1 5.52-2.35 14.14 14.14 0 0 1 3.13-.37q3.84 0 3.91 2.64a12.57 12.57 0 0 1-1.73 4.85l-1 1.74-.32.43-.16.07-.34-.29-.51-.9a1.35 1.35 0 0 1-.25-.58.76.76 0 0 1 .21-.46 29.91 29.91 0 0 0 1.74-3.24 3.89 3.89 0 0 0 .42-1.62c-.07-1.12-.78-1.65-2.15-1.61a11.82 11.82 0 0 0-4.38 1 12.19 12.19 0 0 0-3.83 2.4 13.3 13.3 0 0 0-1.85 2.18 6 6 0 0 0-1.33 3.33 6.27 6.27 0 0 0 .74 2.31l.42.89a3.4 3.4 0 0 1 .22 1 2.16 2.16 0 0 1-1.13 1.67l-1.81 1.09a24.14 24.14 0 0 0-2.66 1.79 15 15 0 0 0-2.82 2.81 10.19 10.19 0 0 0-2.39 6zm80.21-2.16-2.28.12a6 6 0 0 0 .23-1.57 1.28 1.28 0 0 0-1.32-1.44q-1.53 0-3.1 2.93l-.14.28-2.32.11a9.57 9.57 0 0 1 1.35-1.75Q175.6 42 177.88 42a2.81 2.81 0 0 1 2.11.85 3 3 0 0 1 .89 2.19 5.79 5.79 0 0 1 0 .72zm-10.07.48-2 .09v-.11l-.32-1.54-.2-.81-2.36 2.58h-1l2.84-3.19.38-.46.22-.46.28-.77c.34-1 .9-1.5 1.67-1.51a.72.72 0 0 1 .79.83l-.06.35a1.58 1.58 0 0 1-.38.52l-.45.46-.64.68.42.82.42.89a10.79 10.79 0 0 1 .49 1.58zm-7.29.31-2.07.08-.06-.41-.35-1.54-.2-.81-2.64 2.88h-1l.17-.22 2.91-3.26.38-.46.22-.46.28-.77c.34-1 .9-1.5 1.67-1.51a.72.72 0 0 1 .79.83l-.06.35a1.58 1.58 0 0 1-.38.52l-.45.46-.64.68.42.82.41.89a11 11 0 0 1 .51 1.59l.06.3zm-8.32.31-2 .07a4.38 4.38 0 0 0 1.3-2.2l.06-.69c0-.61-.18-1-.5-1.1l-.32-.07a1.86 1.86 0 0 0-1.34.86l-.75 1.14-.9 1.6-.24.54-2.33.08a10.55 10.55 0 0 1 1.6-2.4 6.63 6.63 0 0 1 4.72-2.66 2.23 2.23 0 0 1 1.5.55 1.85 1.85 0 0 1 .64 1.45 3.82 3.82 0 0 1-1.44 2.82zm-8.49.27h-.36V46.89l.14-.41.27-.83a3.45 3.45 0 0 0 .19-.83V44.4l-.11-.18-.17-.06-.21.06a11.46 11.46 0 0 0-2.09 3h-1l.28-.47 1.11-2c1-1.83 1.93-2.76 2.72-2.77.79-.01 1.12.78 1.09 2.22v.94a2.44 2.44 0 0 1-.14.71l-.2.25-.37.31-.93.6a1 1 0 0 1-.16.1zm-3.56.1h-1.68l.53-2.49.22-1.27a1 1 0 0 1 .12-.52.52.52 0 0 1 .3-.25l.43-.19 1-.38.49-.18.18.18-.08.32-.27.77-.7 2.22-.5 1.74zm-3.08.09-2.38.06a10.82 10.82 0 0 0 .45-1.76 6.27 6.27 0 0 0 .1-1.14c0-1-.41-1.58-1.26-1.61-1.11 0-2.22 1.13-3.31 3.35l-.58 1.26h-.64l.42-1c.28-.61.57-1.2.88-1.76a6.9 6.9 0 0 1 1.09-1.52 3.32 3.32 0 0 1 2.48-1.17 2.74 2.74 0 0 1 2.18 1 3.56 3.56 0 0 1 .83 2.35 8.51 8.51 0 0 1-.26 2zm-7.69.18-2.13.05.22-.81.87-3a2.64 2.64 0 0 1 .26-.56l.2-.23.18-.15 1.53-.72.22-.09a.3.3 0 0 1 .15.09l.09.2-.05.29-.69 2.08-.85 2.84zm-3.44.07h-2.1a13.46 13.46 0 0 0-.16-1.39l-.31-1.54-.21-.81-2.81 3.08-.44.44c-.12.13-.21.2-.3.2l-.23-.12a.24.24 0 0 1-.08-.25l.08-.25.32-.4 2.91-3.26.38-.46.21-.46.28-.77c.35-1 .9-1.5 1.67-1.51a.73.73 0 0 1 .8.83l-.07.35a1.55 1.55 0 0 1-.37.52l-.46.46-.63.68.42.82.41.89a12.32 12.32 0 0 1 .5 1.59 7.36 7.36 0 0 1 .19 1.32z" id="path144" style="fill:#010101"/><path class="cls-4" d="M62.17 29a1.19 1.19 0 0 1 0-.32H62C64 42.3 71.19 49.06 78.27 49c12.83-.22 11.89-18 19.33-18.78a3.31 3.31 0 0 1 3.52 3.16 3.39 3.39 0 0 1-3 3.69 3.15 3.15 0 0 1-2.23-.68c1.28 1.85 3.34 1.63 4.75.49 2.53-2 1.94-6.34-.77-7.82a4.86 4.86 0 0 0-4.62.1 9.06 9.06 0 0 0-3.06 2.9c-3.85 5.69-5.54 15.33-14.11 15.29C69.2 47.3 64.27 36.49 62.17 29Z" id="path146"/><path class="cls-4" d="M66.92 25.08c-3.06.91-5 2.2-5 3.63 0 2.76 7.11 5 15.88 5s15.89-2.23 15.89-5c0-1.43-1.92-2.72-5-3.63l.5.21c2.17.76 3.48 1.73 3.48 2.8 0 1.84-3.93 3.42-9.47 4a40 40 0 0 1-5.42.36 38.14 38.14 0 0 1-7-.61c-4.54-.74-7.61-2.16-7.61-3.79 0-.85.83-1.64 2.26-2.31a10.19 10.19 0 0 1 1.44-.7z" id="path148"/><path class="cls-4" d="M66.56 44.9c-3.17 1.19-5.14 2.88-5.14 4.75 0 3.61 7.34 6.54 16.4 6.54 9.06 0 16.41-2.93 16.41-6.54 0-1.87-2-3.56-5.14-4.75l.52.28c2.24 1 3.59 2.27 3.59 3.66 0 2.41-4.06 4.47-9.78 5.29a32.8 32.8 0 0 1-5.6.46 31.93 31.93 0 0 1-7.22-.79c-4.69-1-7.87-2.83-7.87-5 0-1.11.86-2.14 2.34-3a10.89 10.89 0 0 1 1.49-.92z" id="path150"/><path class="cls-4" d="M71.1 46c-1.89.56-3.07 1.36-3.07 2.24 0 1.7 4.38 3.08 9.79 3.08 5.41 0 9.8-1.38 9.8-3.08 0-.88-1.18-1.68-3.07-2.24l.31.13c1.34.47 2.15 1.07 2.15 1.73 0 1.13-2.43 2.11-5.85 2.49a24.75 24.75 0 0 1-3.34.22 24.47 24.47 0 0 1-4.31-.37c-2.8-.46-4.7-1.34-4.7-2.34 0-.53.51-1 1.4-1.43a5.69 5.69 0 0 1 .89-.43Z" id="path152"/><path class="cls-4" d="M69.3 24.87c5.29 6 12.13 4.14 14.86-.9 2.43-4.49 1-8-1.38-11.47-1.84-2.76-4.23-5.28-3.67-8.78a4.39 4.39 0 0 1 6.78-3c5.11 3.47-.07 9.2-3.09 6C85.28 8 86.75 6 86.44 4.3c-.42-2.34-4.18-3-5.12-.7a4.22 4.22 0 0 0 .41 3.63c2.63 4.32 6.47 6.61 6.12 12.4C87.25 29.28 75 34 69.3 24.87Z" id="path154"/><path class="cls-4" d="M69.92 25.52c3.21 3.63 7.35 2.51 9-.55 1.47-2.72.58-4.83-.84-6.95-1.12-1.67-2.56-3.2-2.23-5.32a2.66 2.66 0 0 1 3-2.23 2.73 2.73 0 0 1 1.15.43c3.09 2.1 0 5.57-1.88 3.64a1.42 1.42 0 0 0 2.21-1.49 1.69 1.69 0 0 0-3.11-.42 2.56 2.56 0 0 0 .26 2.2c1.59 2.62 3.92 4 3.7 7.51-.36 5.85-7.81 8.7-11.24 3.18z" id="path156"/><path class="cls-4" d="M85.34 20.51c.38-2.92-.86-5.46-2.56-8-1.84-2.76-4.23-5.28-3.67-8.78a4.39 4.39 0 0 1 6.78-3c5.11 3.47-.07 9.2-3.09 6C85.28 8 86.75 6 86.44 4.3c-.42-2.34-4.18-3-5.12-.7a4.22 4.22 0 0 0 .41 3.63c2.4 3.94 5.81 6.2 6.11 11a14 14 0 0 1-2.5 2.33zm-5.67 2.13A7.35 7.35 0 0 0 78.09 18c-1.12-1.67-2.56-3.2-2.22-5.32a2.64 2.64 0 0 1 2.95-2.23 2.73 2.73 0 0 1 1.18.45c3.09 2.1 0 5.57-1.88 3.64a1.42 1.42 0 0 0 2.21-1.49 1.69 1.69 0 0 0-3.11-.42 2.56 2.56 0 0 0 .26 2.2c1.59 2.62 3.92 4 3.7 7.51v.08a10.35 10.35 0 0 1-1.48.22z" id="path158"/></g></g></g></svg>