<svg width="512" height="512" xml:space="preserve" xmlns="http://www.w3.org/2000/svg"><path style="display:inline;fill:none;fill-opacity:1" d="M0 128V0h256v256H0Z"/><g style="display:inline"><path style="color:#000;display:inline;fill:#000;fill-rule:evenodd;stroke-width:6.31529;-inkscape-stroke:none" d="M126.072 187.336c-17.58 0-33.5 2.622-45.31 7.02-5.905 2.198-10.796 4.83-14.387 7.992-3.591 3.161-5.969 7.057-5.969 11.38 0 4.324 2.378 8.22 5.969 11.381 3.591 3.162 8.482 5.793 14.387 7.992 11.81 4.398 27.73 7.018 45.31 7.018 17.58 0 33.503-2.62 45.312-7.018 5.905-2.199 10.796-4.83 14.387-7.992 3.591-3.162 5.967-7.057 5.967-11.38 0-4.324-2.376-8.22-5.967-11.381-3.591-3.162-8.482-5.794-14.387-7.993-11.81-4.397-27.732-7.02-45.312-7.02zm.094 8.752a43.65 14.632 0 0 1 43.65 14.633 43.65 14.632 0 0 1-43.65 14.63 43.65 14.632 0 0 1-43.648-14.63 43.65 14.632 0 0 1 43.648-14.633z" transform="matrix(2.4221 0 0 2.4221 -85.136 -69.592)"/><g style="fill:#000" clip-rule="evenodd"><path d="M63.537 131.804c-.132-.448-.152-.884-.132-1.273h-.62l-.149.657c.615 6.273 8.687 82.283 63.824 81.928 58.268.219 50.016-61.909 66.42-70.202 9.136-5.613 17.631-.631 18.761 6.575.671 14.573-12.862 17.104-21.387 12.057 8.785 6.706 18.52 6.122 24.815 1.24 6.001-4.208 8.628-15.27 3.429-24.327-5.027-7.614-15.138-11.3-26.542-6.56-5.213 2.924-18.443 12.332-25.238 12.208-7.677 2.086-5.38.52-40.148 5.204-34.8-3.014-51.475-3.863-63.033-17.507" style="fill:#000;fill-opacity:1;fill-rule:evenodd" transform="matrix(2.4221 0 0 2.4221 -85.136 -64.748)"/><path d="M82.506 115.99c-12.24 3.621-19.886 8.794-19.886 14.495 0 11.012 28.39 19.939 63.419 19.939 34.995 0 64.745-7.42 64.66-20.108-.037-5.7-9.034-10.35-21.154-14.327 5.36 2.73 15.26 7.196 15.504 12.425 0 7.377-15.3 13.254-37.402 15.748-6.65.89-13.955 1.392-21.602 1.392-10.174 0-19.72-.87-27.929-2.408-18.124-2.95-30.309-8.187-29.61-14.793 1.81-7.104 8.142-9.53 14-12.364" style="fill:#000;fill-opacity:1;fill-rule:evenodd" transform="matrix(2.4221 0 0 2.4221 -85.136 -64.748)"/></g><g style="fill:#000;fill-opacity:1" clip-rule="evenodd"><path d="M11.11 15.161c2.19 2.27 6.665 2.37 8.575-.694 1.47-2.716.543-4.49-.868-6.61-1.115-1.67-2.462-3.563-2.128-5.678.38-1.704 1.86-2.378 3.114-2.304 1.322.128 2.4.792 2.608 2.163.229 2.16-1.64 3.198-3.234 2.245 1.504.565 2.304-.695 2.118-1.739-.252-1.422-2.378-1.738-2.949-.363-.264.638-.164 1.516.252 2.198 1.59 2.613 4.087 4.182 4.058 7.67-.173 5.925-8.189 8.207-11.978 2.63" style="fill:#000;fill-opacity:1;fill-rule:evenodd" transform="matrix(14.01722 0 0 14.01722 -15.941 1.83)"/><path d="M11.313 15.406c1.768 1.645 4.388 1.444 5.39-.406.89-1.644.352-2.662-.506-3.947-.674-1.014-1.499-1.975-1.297-3.256.231-1.033.909-1.474 1.716-1.488.73-.017 1.527.404 1.674 1.484.034 1.26-1.1 1.484-1.826 1.192.875.08 1.299-.466 1.188-1.1-.154-.86-1.398-.954-1.72-.206-.16.388-.099.918.153 1.332 1.025 1.584 2.667 2.387 2.622 4.52-.216 3.54-4.696 5.07-7.604 1.628" style="fill:#000;fill-opacity:1;fill-rule:evenodd" transform="matrix(14.01722 0 0 14.01722 -15.941 1.83)"/></g></g></svg>