<svg xmlns="http://www.w3.org/2000/svg" width="512" height="512" fill="none" viewBox="0 0 512 512"><path fill="#fff" d="M0 0h512v512H0z"/><path fill="#66bc6b" d="M501.765 196.081c21.782 4.638 2.024 56.878 2.024 56.878-29.822 4.261-57.515 7.456-57.515 7.456s-23.159 3.832-54.622 8.47c-6.05 30.455-38.52 153.878-167.593 153.878C70.384 422.763 0 255.978 0 255.978 51.225 224.92 138.549 90 221.035 90S332.56 191.846 332.56 191.846l-7.057 11.092s-27.428-34.283-89.544-34.283-105.477 75.424-131.895 98.415c0 0 65.343 102.449 149.643 102.449 45.175 0 94.182-39.323 121.608-98.415-47.797 6.655-110.718 12.705-155.086 7.26 0 0-2.219-2.017-3.227-4.235-1.21-2.825-1.41-5.849-1.41-5.849 156.498 0 273.872-65.342 284.359-71.794.404-.405 1.209-.607 1.814-.405"/></svg>