<svg xmlns="http://www.w3.org/2000/svg" xml:space="preserve" width="640" height="360"><path d="M342.045 308.548c-1.019 6.521-4.385 9.94-8.426 9.94-2.566 0-4.042-1.801-3.604-4.588l1.42-8.841c.547-3.276 2.513-5.841 6.006-5.841 3.874 0 5.651 2.636 4.604 9.33m-13.83 12.993c.548 0 1.855 2.295 6.113 2.295 9.061 0 14.248-6.55 15.665-15.011 1.804-10.424-3.275-15.175-9.66-15.175-3.004 0-5.248.271-6.888 1.146l2.461-14.356h-7.528l-7.477 42.879h5.674s.82-1.778 1.693-1.778zm80.099-18.286c1.146-6.492-1.256-9.662-8.297-9.662-5.24 0-7.304 2.307-9.269 4.275l.193-3.618-6.973.044-.539 5.36-4.038 23.665h7.634l2.457-15.369c.872-5.296 4.532-9.333 7.969-9.333 3.82 0 3.774 2.183 3.177 5.511l-3.33 19.19h7.576zm31.824-9.604h-8.898L421.02 304.49l-.152-.02 4.096-24.005h-7.424l-7.479 42.854h7.534l.768-4.288 1.525-9.39c3.982 0 6.222.44 7.97 8.354l1.198 5.324h7.697s-1.909-8.109-3.167-11.273c-1.309-3.332-2.741-5.53-5.8-6.13zm-218.736 10.52c5.512-1.202 8.373-5.665 9.137-8.557 1.963-7.97-1.584-14.193-11.736-14.081l-11.637-.012-7.304 41.798h7.586l3-16.787c6.993-.19 7.846 1.514 9.166 9.66l1.2 7.127h7.868c-.928-4.31-1.53-8.382-2.292-11.657-.818-3.44-2.092-6.129-5.372-7.408zm1.533-9.962c-.657 3.712-3.531 6.32-7.08 6.32h-4.475l2.319-13.195 4.067-.018c4.828-.001 5.768 3.181 5.17 6.893m34.298 7.902c1.09-6.333-2.294-8.518-9.118-8.518-8.513 0-12.226 4.045-12.226 4.045l2.618 4.418s2.754-3.22 8.245-3.22c3.065 0 3.13 1.557 2.837 3.22l-.6 3.766c-10.973-.273-16.595 2.07-17.85 9.279-1.038 5.895 3.384 8.735 8.35 8.735 2.564 0 4.64-.382 7.15-2.568.493 1.422 1.365 2.172 2.348 2.335 1.583.327 4.312-.043 5.132-.644-.054-.87 0-3.11.928-8.348zm-9.008 7.695c-1.216 8.624-2.364 9.487-6.517 9.487-2.838 0-3.895-1.947-3.41-4.5.659-3.47 3.283-4.987 9.927-4.987m129.377-7.695c1.09-6.333-2.296-8.518-9.117-8.518-8.518 0-12.227 4.045-12.227 4.045l2.617 4.418s2.754-3.22 8.248-3.22c3.064 0 3.128 1.557 2.834 3.22l-.599 3.766c-10.97-.273-16.593 2.07-17.85 9.279-1.036 5.895 3.384 8.735 8.352 8.735 2.566 0 4.64-.382 7.152-2.568.493 1.422 1.363 2.172 2.345 2.335 1.584.327 4.313-.043 5.133-.644-.054-.87 0-3.11.928-8.348zm-9.008 7.695c-1.216 8.624-2.365 9.487-6.519 9.487-2.836 0-3.893-1.947-3.409-4.5.657-3.47 3.283-4.987 9.928-4.987m-96.132 14.03c9.062 0 14.248-6.55 15.666-15.011 1.803-10.424-3.275-15.175-9.662-15.175-3.002 0-5.169.271-6.862 1.146l2.458-14.356h-7.548l-7.48 42.879h5.679s.816-1.778 1.637-1.778c.544 0 1.855 2.295 6.112 2.295m3.165-24.618c3.877 0 5.523 2.618 4.607 9.33-.937 6.863-4.387 9.94-8.483 9.94-2.564 0-4.037-1.801-3.547-4.588l1.42-8.841c.545-3.276 2.51-5.841 5.95-5.841zm15.68 11.934c1.167-10.914 6.088-17.665 17.786-17.665 8.686 0 11.56 6.629 10.392 13.749-1.868 11.399-6.3 16.764-17.436 16.764-7.212 0-11.486-5.879-10.741-12.848m20.259-3.383c.558-3.016 1.15-8.876-4.043-8.876-3.492 0-6.753 2.365-8.217 10.663-.895 5.066.085 9.131 4.13 9.131 2.96 0 6.564-2.44 8.13-10.918M394.622 180.802c-2.304-4.434-5.405-8.515-9.704-12.358 3.337 3.345 6.054 6.987 7.982 10.898 6.138 12.474 3.884 26.235-8.347 38.237-14.018 13.753-37.885 22.213-65.595 22.215-27.711-.002-51.576-8.462-65.597-22.215-12.23-12.002-14.485-25.763-8.346-38.237 1.927-3.91 4.612-7.523 7.954-10.907-3.915 3.782-7.004 7.13-9.812 12.751-5.99 11.989-4.075 29.12 8.573 41.532 14.373 14.106 36.85 22.604 67.458 22.604 30.695 0 53.171-8.753 66.948-22.604 13.507-13.58 14.027-31.257 8.486-41.916"/><path d="M393.837 179.332c-5.386-10.92-16.562-19.78-30.94-25.746-13.144-5.45-28.427-8.245-43.94-8.246-15.513.001-30.797 2.797-43.942 8.246-14.38 5.967-25.553 14.826-30.937 25.746-2.218 4.507-3.368 9.191-3.368 13.905-.001 8.612 3.84 17.293 11.87 25.17 14.247 13.967 38.387 22.499 66.378 22.506 27.993-.007 52.13-8.539 66.377-22.506 8.03-7.876 11.87-16.557 11.865-25.17 0-4.712-1.147-9.399-3.363-13.905m-9.218 38.346c-13.975 13.713-37.875 22.21-65.661 22.21-27.788 0-51.69-8.496-65.665-22.21-7.878-7.737-11.559-16.142-11.56-24.441 0-4.548 1.107-9.074 3.261-13.452 5.223-10.611 16.185-19.356 30.414-25.256 12.998-5.389 28.16-8.166 43.55-8.166 15.387 0 30.548 2.777 43.55 8.166 14.226 5.9 25.19 14.645 30.411 25.256 2.156 4.379 3.263 8.904 3.263 13.452-.002 8.3-3.684 16.706-11.563 24.441"/><path fill-rule="evenodd" d="M285.712 160.906c9.594 2.437 18.713 5.34 27.991 8.766 1.836-5.515 3.788-10.996 6.017-16.372 2.23 5.37 3.16 10.847 4.994 16.36 9.278-3.422 18.893-6.056 28.488-8.488-6.746 4.233-12.351 8.453-18.602 13.37 12.679 1.618 24.544 3.718 37.035 6.419-12.447-.272-24.171.17-36.595.968 8.767 7.427 16.272 14.615 24.419 22.703-11.17-6.379-21.653-11.735-33.287-17.234-2.258 9.73-4.387 19.49-6.444 29.264-2.057-9.77-3.946-19.068-6.202-28.794-11.637 5.493-22.222 10.727-33.757 16.848 8.154-8.085 15.875-15.096 24.647-22.52-12.432-.803-24.35-.968-37.079-1.15a440 440 0 0 1 37.496-6.421c-6.248-4.92-12.381-9.484-19.12-13.719m34.014 17.018-.006-21.5c-2.18 5.977-4.105 12.041-5.917 18.136a368 368 0 0 1 5.923 3.364m-29.199-15.066c7.683 3.393 15.945 7.615 23.276 11.702a453 453 0 0 0-5.464.582c-5.52-4.176-11.956-8.583-17.812-12.284m29.199 15.066a454 454 0 0 1 44.318 2.236c-12.927-2.33-25.486-4.118-38.447-5.628a336 336 0 0 0-5.871 3.392m28.397-14.657c-7.692 3.384-15.183 7.186-22.526 11.265a444 444 0 0 0-.899-3.011c7.696-3.062 15.498-5.846 23.425-8.254m-28.397 14.662c.313 10.379-.085 22.727.006 32.777 1.93-9.298 3.17-19.91 5.312-29.16-2.02-1.227-3.28-2.43-5.318-3.617m33.758 22.264c-8.636-6.233-19.37-13.055-28.44-18.646 1.854-.15 4.477-.286 6.333-.413 7.201 5.825 15.31 12.774 22.107 19.059m-33.758-22.27c-14.125.196-28.964 1.026-44.265 2.342 12.544.041 24.726.302 37.464 1.31 2-1.236 4.777-2.453 6.8-3.651m-33.794 22.313c8.647-6.227 17.912-13.074 26.992-18.661.266 1.157 1.298 2.316 1.562 3.472-9.283 4.46-19.586 10.137-28.554 15.189M321.193 236.936c-.436.327-1.031.653-1.466.977-.442-.324-1.046-.65-1.49-.977.01-4.026-.01-8.052 0-12.078.433-.296 1.057-.593 1.492-.89.426.297 1.013.592 1.44.89zM249.49 207.725l-.707 1.364c.442.169 1.293.44 1.674.597 4.221-2.253 8.397-4.502 12.547-6.674.16-.638.255-.989.433-1.47q-.639-.169-1.28-.336a485 485 0 0 0-12.667 6.519M246.381 182.94q-.578.46-1.156.927c.212.278.448.609.64.879a296 296 0 0 1 11.845-1.45c.367-.354.811-.78 1.16-1.112q-.347-.357-.695-.707a287 287 0 0 0-11.794 1.462M261.872 162.94q-.598.256-1.195.516c.037.238.08.673.117.91 2.905.409 5.808.9 8.705 1.464.37-.219.875-.516 1.224-.705q-.078-.376-.154-.756c-2.892-.551-5.792-1.03-8.697-1.429M289.182 151.063c.142-.146.462-.402.606-.546q.56-.008 1.118-.015c1.535.954 3.041 1.952 4.527 2.982l-.443.488c-.38-.006-.94.1-1.32.096a108 108 0 0 0-4.488-3.005M277.626 229.561c-.596.142-1.36.14-1.956.285-.13-.423-.427-.846-.556-1.268a670 670 0 0 1 8.96-10.49c.588-.126 1.346-.25 1.934-.375.137.36.408.98.567 1.317a683 683 0 0 0-8.949 10.531M376.418 163.105l1.125.486c-.036.224-.074.634-.11.858a159 159 0 0 0-8.199 1.38c-.35-.206-.824-.487-1.154-.664l.142-.713q4.091-.78 8.196-1.347M360.835 229.561c.488.074 1.357.191 1.957.285.19-.413.383-.833.556-1.268a701 701 0 0 0-8.96-10.49c-.59-.126-1.345-.25-1.933-.375-.139.36-.41.98-.568 1.317a678 678 0 0 1 8.948 10.531" clip-rule="evenodd"/><path fill-rule="evenodd" d="M261.408 182.375c5.256-23.471 36.452-30.565 58.22-30.565 21.694 0 52.963 7.099 58.223 30.57 6.545 29.213-37.06 40.396-58.218 40.396-21.16-.001-64.767-11.188-58.225-40.4m2.694-.122c4.894-22.45 36.07-29.11 55.528-29.109 19.456 0 50.628 6.662 55.53 29.114 6.06 27.777-35.397 38.048-55.526 38.046-20.133 0-61.59-10.273-55.532-38.05" clip-rule="evenodd"/><path d="m389.064 187.638-9.548-1.446-1.263-.292c-1.601-.33-4.66-2.059-5.992-4.118-1.334-2.056-4.546-5.598-6.305-7.805-2.434-3.06-7.99-5.86-8.799-7.122-.812-1.261-2.154-3.474-2.525-4.348-.369-.876-.877-1.707-2.502-1.562-1.436.128-1.74.643-2.97.72-1.229.076-2.954-.189-2.954-.189-.75-.153-1.271-.244-1.788-.245-.765 1.263-1.559 2.086-4.395 2.086-.198 0-.36-.02-.495-.058.294.634 2.563.956 3.011.928s2.943.675 3.508.779c1.149.208.925-.187 2.766.877 3.048 1.76 7.609 6.611 8.514 10.822.502 2.325 4.488 6.123 4.965 8.269-5.337-.397-12.43-3.93-12.43-3.93l-.891-.427s-3.17-1.601-8.032-1.82c-9.18-.822-12.66-2.047-13.577-2.355-1.89-.636-1.63-.958-3.17-1.033q-.442-.023-.835-.041a3.8 3.8 0 0 1-.791 1.05c-1.704 1.632-2.88 2.85-4.31 5.06-.384.592-1.032.965-1.82 1.174 1.826.248 5.182-.723 5.182-.723 1.832-.244 7.522.23 8.164.416 1.818.371 4.823 1.536 4.823 1.536s13.075 3.997 16.283 6.333c2.102 1.533 12.972 5.6 15.854 6.596 2.883.994 9.906 4.818 9.906 4.818 1.802 1.54 12.297 6.135 15.181 7.098 3.707-6.425 5.315-12.885 4.282-19.541l-.318-.107z"/><path d="M384.575 176.598c-.927-.011-1.987.236-1.987.236l-2.598 1.541c-.325.538.848 1.235.848 1.235s3.29.219 3.281 1.072c2.42 1.284 7.57 1.438 10.205 1.568-.35-.89-.736-1.774-1.17-2.651a36 36 0 0 0-1.363-2.505l-.001-.001c-.148-.046-2.133-.605-7.215-.495M365.456 207.756s-.63-.817-4.026-.822c-2.153-.004.936 5.085.936 5.085 1.941 1.302 8.934 3.297 10.392 3.49 1.46.191 6.338 1.647 6.338 1.647s2.543.336 5.15 1.125a49.48 49.48 0 0 0 5.29-5.66c-5.898-.121-14.276-.22-20.633-3.537-.645-1.9-3.447-1.328-3.447-1.328M348.9 149.388c-1.217-.367-2.327-1.086-3.01-2.222-1.447-2.419-2.198-3.597-2.755-4.691-.56-1.092-.954-2.143-1.705-4.365-.938-2.773-2.82-4.996-5.015-6.79-1.282-2.94-1.785-5.003-2.21-8.165-.58-4.335-.974-7.459-1.708-11.883 1.102-4.367 1.94-6.96 1.942-9.706 0-2.458-.69-4.944-2.393-8.762-.799-1.797-1.25-3.695-1.252-5.812-.012-2.536 1.47-8.6 2.865-11.618l.007-.012.005-.014c.365-.95.864-1.804 1.406-2.261.505 1.636 1.375 3.813 2.331 5.845 1.05 2.202 2.153 4.196 3.11 5.197.09 1.22.052 2.54.598 3.854 2.226 5.337 5.375 10.12 6.916 15.586.126.44.174.806.174 1.135.008.969-.447 1.71-.888 2.932l-.01.03-.004.029c-.093.419-.141 1.07-.143 1.845.002.9.07 1.941.258 2.851l.057.27.921.362c-.141.612-.64 1.312-.928 1.926l-.055.13.02.139c.078.578.44.959.73 1.203.298.244.562.366.585.378l.158.072.169-.037c.547-.142.891-.55 1.255-1.045 1.046-1.52 2-4.198 2.018-5.75l-.002-.103c-.183-5.413-1.35-7.948-1.636-9.434-.888-4.511-1.073-7.388-1.683-10.295-.608-2.902-1.648-5.787-4.195-10.189l-2.85-7.04c-.186-1.865-.642-4.854-1.646-7.614-1.022-2.783-2.594-5.402-5.197-6.252-.873-.274-1.635-.313-2.768-.683-1.939-.63-3.178-1.517-3.951-2.568-.77-1.052-1.092-2.296-1.093-3.72 0-1.492.363-3.165.93-4.904.507-1.56.873-3.222.873-4.8.003-1.574-.37-3.09-1.388-4.267-1.02-1.177-2.647-1.948-4.976-2.142a8 8 0 0 0-.639-.028c-1.996-.014-3.427.897-4.35 2.238-.932 1.338-1.444 3.074-1.873 4.89l-.018.074.005.08c.014.177.074 1.843.244 3.608.084.885.198 1.801.35 2.595.16.798.327 1.452.638 1.923l.048.07.068.05c.904.664 1.593.934 1.926 1.268.17.165.288.336.388.65.098.313.16.774.158 1.445q0 .216-.008.465c-.102 2.548-1.637 3.982-3.931 4.812-1.96.692-3.489 1.244-4.734 2.19-1.249.945-2.148 2.28-2.824 4.358-.433 1.325-.796 3.205-.807 5.967v.086c-1.092 2.705-2.467 5.811-3.33 8.772-2.462 2.531-4.242 6.478-6.036 10.364-1.805 3.935-3.627 7.805-5.96 10.014-1.17 1.114-2.053 1.851-2.691 2.627-.64.769-1 1.637-.99 2.762 0 .842.173 1.832.502 3.148.088.303.247.472.433.692.283.313.655.644.996.924.35.284.63.494.833.606l.03.017.036.014a.6.6 0 0 0 .222.036c.244-.008.386-.077.575-.155.27-.12.564-.29.815-.473.126-.09.24-.184.343-.292.058-.075.133-.14.186-.264l.042-.04.017-.181c.119-1.224.101-1.781.214-2.197.102-.413.356-.87 1.12-1.977.756-1.092.972-1.984 1.134-2.73.165-.745.278-1.324.837-2.127 3.085-3.855 5.983-7.723 9.406-11.198 1.256-1.288 2.606-3.862 3.791-6.507.886-1.99 1.658-3.996 2.148-5.48.415 4.061.914 7.651.913 11.595q0 .81-.03 1.646c-.096 2.692-.178 4.69-.178 6.333-.002 2.513.196 4.23.833 6.254.636 2.023 1.69 4.344 3.402 8.192l.796 1.788.18-1.95c.183-2.025.605-4.715 1.284-7.092.378-1.355.858-2.606 1.397-3.568-2.32 10.52-2.482 24.084-2.759 28.427-.08 1.286-.319 3.039-.32 4.743.003 1.351.145 2.684.691 3.778.348 1.378.384 3.564.418 5.233l.037 9.714c.015 4.248.031 8.383.031 8.894l-1.624 8.13c-.26 1.057-1.14 2.61-2.223 4.003-1.083 1.408-2.392 2.677-3.41 3.228-.357.197-.975.529-1.523.93a4.2 4.2 0 0 0-.748.674c-.206.252-.387.552-.391.937.004.292.139.506.285.674.52.563 1.487.989 2.716 1.372 1.223.369 2.676.63 4.051.63 1.66-.008 3.279-.364 4.121-1.63 1.41-2.173 2.536-3.339 4.234-4.967.922-.87 1.273-1.856 1.264-2.805-.028-1.867-1.096-3.593-1.078-5.493q0-.259.028-.524c.582-5.817 3.126-10.952 3.987-16.658.176-1.17.28-2.302.28-3.444.003-2.167-.385-4.365-1.385-6.894l.937-9.033c.914 1.716 1.825 3.919 2.746 5.84 1.038 2.162 1.571 3.366 2.32 4.51.753 1.143 1.69 2.166 3.495 3.946 1.194 1.18 2.426 2.574 3.306 3.973 1.572 2.504 2.643 4.913 2.643 7.745q0 .203-.007.409c-.577 1.02-.976 1.443-1.42 1.808-.458.377-1.03.711-1.814 1.452a1 1 0 0 0-.231.384 1.4 1.4 0 0 0-.076.457c-.004.296.105.674.416.95q.467.412 1.321.41c1.397 0 2.443-.18 3.266-.543 1.248-.542 1.898-1.515 2.374-2.588.488-1.082.865-2.308 1.606-3.632.41-.738 1.122-1.665 1.742-2.616.614-.96 1.17-1.936 1.182-2.952a2.1 2.1 0 0 0-.562-1.452c-.389-.42-.948-.728-1.704-.954"/></svg>