<svg xmlns="http://www.w3.org/2000/svg" xml:space="preserve" width="640" height="360"><g style="fill:#fff"><path d="M189.273 350.596c-1.303 8.336-5.606 12.705-10.771 12.705-3.28 0-5.166-2.302-4.606-5.864l1.814-11.301c.7-4.187 3.213-7.466 7.678-7.466 4.952 0 7.223 3.37 5.885 11.926m-17.679 16.608c.701 0 2.372 2.933 7.815 2.933 11.582 0 18.212-8.372 20.023-19.187 2.306-13.324-4.187-19.396-12.348-19.396-3.839 0-6.708.346-8.804 1.464l3.146-18.35h-9.623l-9.557 54.808h7.253s1.048-2.272 2.164-2.272zm102.383-23.373c1.465-8.298-1.605-12.35-10.604-12.35-6.698 0-9.337 2.949-11.848 5.464l.246-4.624-8.912.056-.689 6.852-5.162 30.248h9.758l3.141-19.645c1.114-6.77 5.792-11.93 10.185-11.93 4.883 0 4.824 2.791 4.062 7.045l-4.258 24.529h9.684zm40.678-12.276h-11.373l-13.065 13.854-.194-.026 5.235-30.682h-9.489l-9.559 54.775h9.629l.982-5.481 1.949-12.001c5.09 0 7.953.562 10.187 10.677l1.532 6.806h9.838s-2.44-10.365-4.048-14.409c-1.673-4.26-3.504-7.068-7.413-7.836zM35.066 345.002c7.046-1.537 10.703-7.241 11.679-10.938 2.51-10.188-2.024-18.142-15.001-17.999l-14.874-.015-9.336 53.426h9.696l3.835-21.457c8.939-.242 10.029 1.935 11.716 12.348l1.534 9.109h10.057c-1.187-5.509-1.955-10.713-2.93-14.9-1.046-4.396-2.674-7.833-6.866-9.469zm1.96-12.734c-.84 4.745-4.514 8.079-9.05 8.079h-5.72l2.964-16.866 5.199-.024c6.171-.001 7.373 4.067 6.607 8.811m43.84 10.1c1.393-8.094-2.933-10.887-11.655-10.887-10.882 0-15.628 5.17-15.628 5.17l3.347 5.647s3.52-4.116 10.539-4.116c3.917 0 4.001 1.99 3.626 4.116l-.768 4.814c-14.024-.349-21.211 2.646-22.815 11.86-1.327 7.535 4.325 11.165 10.673 11.165 3.278 0 5.932-.488 9.14-3.282.629 1.818 1.744 2.776 3 2.984 2.024.419 5.512-.055 6.56-.823-.069-1.112 0-3.975 1.186-10.67zm-11.515 9.836c-1.554 11.024-3.021 12.126-8.33 12.126-3.627 0-4.978-2.488-4.358-5.752.842-4.435 4.196-6.374 12.688-6.374m165.37-9.836c1.394-8.094-2.934-10.887-11.653-10.887-10.887 0-15.629 5.17-15.629 5.17l3.346 5.647s3.52-4.116 10.542-4.116c3.917 0 3.998 1.99 3.623 4.116l-.766 4.814c-14.023-.349-21.209 2.646-22.815 11.86-1.325 7.535 4.324 11.165 10.674 11.165 3.28 0 5.932-.488 9.142-3.282.63 1.818 1.742 2.776 2.998 2.984 2.024.419 5.513-.055 6.561-.823-.069-1.112 0-3.975 1.186-10.67zm-11.514 9.836c-1.554 11.024-3.022 12.126-8.332 12.126-3.625 0-4.976-2.488-4.357-5.752.839-4.435 4.196-6.374 12.689-6.374m-122.876 17.933c11.583 0 18.212-8.372 20.025-19.187 2.304-13.324-4.186-19.396-12.35-19.396-3.837 0-6.607.346-8.771 1.464l3.142-18.35h-9.648l-9.561 54.808h7.258s1.044-2.272 2.093-2.272c.695 0 2.371 2.933 7.812 2.933m4.046-31.467c4.956 0 7.059 3.347 5.889 11.926-1.198 8.772-5.608 12.705-10.844 12.705-3.277 0-5.16-2.302-4.533-5.864l1.815-11.301c.697-4.187 3.208-7.466 7.604-7.466zm20.043 15.255c1.491-13.95 7.781-22.58 22.733-22.58 11.103 0 14.776 8.473 13.283 17.574-2.387 14.57-8.053 21.428-22.286 21.428-9.219 0-14.682-7.514-13.73-16.422m25.894-4.325c.713-3.854 1.469-11.345-5.168-11.345-4.463 0-8.631 3.023-10.502 13.63-1.144 6.475.108 11.671 5.278 11.671 3.783 0 8.391-3.119 10.392-13.956M256.476 187.311c-2.944-5.668-6.908-10.884-12.403-15.796 4.265 4.276 7.738 8.931 10.202 13.93 7.846 15.944 4.965 33.533-10.669 48.874-17.918 17.579-48.425 28.393-83.843 28.396-35.421-.003-65.925-10.816-83.846-28.396-15.633-15.341-18.515-32.93-10.668-48.874 2.462-4.999 5.895-9.616 10.166-13.941-5.004 4.834-8.952 9.114-12.542 16.298-7.656 15.324-5.208 37.221 10.958 53.086 18.372 18.031 47.102 28.893 86.225 28.893 39.235 0 67.964-11.188 85.574-28.893 17.264-17.358 17.929-39.952 10.846-53.577" style="fill:#fff" transform="matrix(.78235 0 0 .78235 193.968 34.26)"/><path d="M255.473 185.432c-6.884-13.958-21.169-25.282-39.547-32.908-16.801-6.966-36.336-10.539-56.164-10.541-19.83.002-39.365 3.575-56.167 10.541-18.38 7.626-32.662 18.95-39.544 32.908-2.835 5.761-4.305 11.748-4.305 17.773-.002 11.008 4.908 22.104 15.171 32.173 18.212 17.853 49.067 28.758 84.846 28.767 35.78-.009 66.633-10.914 84.843-28.767 10.263-10.067 15.172-21.164 15.166-32.173-.001-6.023-1.466-12.013-4.299-17.773m-11.782 49.014c-17.863 17.528-48.412 28.39-83.929 28.39s-66.069-10.861-83.932-28.39c-10.07-9.889-14.775-20.633-14.777-31.241 0-5.813 1.415-11.598 4.169-17.194 6.676-13.563 20.687-24.741 38.875-32.282 16.614-6.888 35.993-10.438 55.666-10.438 19.667 0 39.046 3.55 55.665 10.438 18.184 7.542 32.199 18.719 38.872 32.282 2.756 5.597 4.171 11.381 4.171 17.194-.003 10.61-4.71 21.354-14.78 31.241" style="fill:#fff" transform="matrix(.78235 0 0 .78235 193.968 34.26)"/><path fill-rule="evenodd" d="M117.268 161.88c12.262 3.115 23.918 6.826 35.778 11.205 2.346-7.05 4.841-14.056 7.69-20.927 2.851 6.865 4.039 13.865 6.384 20.911 11.859-4.374 24.149-7.74 36.413-10.849-8.623 5.411-15.787 10.804-23.777 17.09 16.206 2.068 31.373 4.752 47.338 8.204-15.909-.348-30.895.218-46.775 1.237 11.206 9.494 20.798 18.682 31.212 29.019-14.277-8.153-27.677-14.999-42.548-22.028-2.886 12.438-5.607 24.911-8.236 37.405-2.629-12.487-5.044-24.373-7.928-36.804-14.874 7.021-28.404 13.711-43.148 21.535 10.422-10.334 20.292-19.296 31.504-28.785-15.891-1.026-31.125-1.237-47.394-1.47a562 562 0 0 1 47.927-8.208c-7.986-6.287-15.826-12.122-24.44-17.535m43.476 21.752-.008-27.48c-2.787 7.639-5.247 15.39-7.563 23.18a471 471 0 0 1 7.571 4.3m-37.322-19.257c9.821 4.337 20.381 9.734 29.751 14.957q-3.495.352-6.983.745c-7.056-5.339-15.283-10.971-22.768-15.702m37.322 19.257c18.922.039 37.822.973 56.648 2.859-16.524-2.979-32.576-5.264-49.143-7.194a430 430 0 0 0-7.505 4.335m36.297-18.734c-9.832 4.325-19.407 9.185-28.792 14.399a567 567 0 0 0-1.149-3.849c9.836-3.914 19.809-7.472 29.941-10.55m-36.297 18.741c.4 13.266-.109 29.05.008 41.895 2.467-11.884 4.053-25.449 6.79-37.271-2.582-1.569-4.192-3.108-6.798-4.624m43.15 28.457c-11.039-7.967-24.759-16.686-36.353-23.833 2.37-.192 5.723-.365 8.096-.527 9.204 7.445 19.569 16.327 28.257 24.36m-43.15-28.464c-18.054.25-37.021 1.31-56.579 2.992 16.034.053 31.604.387 47.886 1.676 2.556-1.581 6.106-3.137 8.693-4.668m-43.195 28.519c11.052-7.959 22.895-16.711 34.501-23.852.34 1.479 1.659 2.96 1.996 4.438-11.865 5.701-25.035 12.957-36.497 19.414M162.62 259.062c-.558.418-1.319.834-1.874 1.249-.565-.415-1.337-.831-1.905-1.249.012-5.146-.013-10.292 0-15.438.553-.379 1.351-.759 1.907-1.137.544.378 1.295.756 1.84 1.137q.017 7.72.032 15.438M70.968 221.724c-.3.581-.602 1.159-.903 1.743.565.216 1.652.562 2.14.763 5.395-2.879 10.733-5.754 16.037-8.53.205-.816.326-1.264.554-1.879q-.816-.215-1.636-.429a620 620 0 0 0-16.192 8.332M66.995 190.043c-.494.393-.984.787-1.478 1.186.271.355.572.778.818 1.123a378 378 0 0 1 15.14-1.854c.469-.451 1.037-.995 1.484-1.421q-.445-.455-.889-.903a367 367 0 0 0-15.075 1.869M86.795 164.48q-.764.327-1.527.659c.047.304.102.861.149 1.164a214 214 0 0 1 11.127 1.871c.474-.28 1.118-.66 1.564-.901l-.196-.967a217 217 0 0 0-11.117-1.826M121.703 149.299c.182-.187.591-.514.775-.698q.714-.012 1.429-.02a139 139 0 0 1 5.786 3.812l-.566.624c-.487-.008-1.201.128-1.688.122a138 138 0 0 0-5.736-3.84M106.932 249.635c-.762.182-1.738.18-2.5.364-.166-.54-.546-1.081-.711-1.62a857 857 0 0 1 11.454-13.408c.751-.162 1.719-.321 2.471-.48.175.461.521 1.252.725 1.683a872 872 0 0 0-11.439 13.461M233.208 164.691l1.438.621c-.046.286-.095.81-.141 1.096a204 204 0 0 0-10.479 1.764c-.448-.263-1.054-.622-1.476-.848l.182-.912c3.486-.663 6.978-1.24 10.476-1.721M213.29 249.635c.624.094 1.735.244 2.501.364.244-.528.49-1.065.711-1.62a896 896 0 0 0-11.452-13.408c-.754-.162-1.72-.321-2.472-.48a31 31 0 0 1-.726 1.683 867 867 0 0 1 11.438 13.461" clip-rule="evenodd" style="fill:#fff" transform="matrix(.78235 0 0 .78235 193.968 34.26)"/><path fill-rule="evenodd" d="M86.202 189.322c6.718-30.001 46.593-39.069 74.418-39.069 27.728 0 67.696 9.074 74.42 39.075 8.365 37.34-47.371 51.634-74.415 51.634-27.046-.001-82.785-14.3-74.423-51.64m3.443-.156c6.256-28.697 46.105-37.209 70.976-37.207 24.869 0 64.714 8.515 70.978 37.213 7.746 35.505-45.243 48.633-70.972 48.631-25.735 0-78.726-13.131-70.982-48.637" clip-rule="evenodd" style="fill:#fff" transform="matrix(.78235 0 0 .78235 193.968 34.26)"/><path d="m249.372 196.049-12.204-1.848-1.615-.374c-2.046-.421-5.957-2.631-7.659-5.263-1.705-2.628-5.81-7.156-8.059-9.977-3.11-3.911-10.212-7.489-11.246-9.103-1.038-1.612-2.753-4.441-3.228-5.558-.471-1.12-1.121-2.182-3.198-1.996-1.836.163-2.225.822-3.796.919s-3.776-.24-3.776-.24c-.959-.196-1.625-.313-2.286-.314-.977 1.615-1.992 2.667-5.617 2.667-.253 0-.46-.027-.633-.074.376.81 3.276 1.221 3.849 1.186s3.762.862 4.484.995c1.468.266 1.182-.238 3.535 1.122 3.896 2.248 9.726 8.45 10.883 13.832.641 2.972 5.737 7.827 6.346 10.569-6.821-.507-15.888-5.023-15.888-5.023l-1.139-.546s-4.051-2.046-10.266-2.326c-11.734-1.05-16.182-2.617-17.354-3.01-2.417-.813-2.084-1.224-4.052-1.32q-.564-.03-1.068-.053c-.222.451-.548.897-1.011 1.343-2.178 2.085-3.68 3.641-5.508 6.466-.491.758-1.32 1.235-2.326 1.502 2.333.316 6.622-.924 6.622-.924 2.342-.313 9.615.293 10.436.531 2.324.475 6.165 1.964 6.165 1.964s16.712 5.108 20.813 8.094c2.686 1.96 16.581 7.159 20.264 8.431 3.685 1.271 12.662 6.159 12.662 6.159 2.303 1.967 15.718 7.841 19.405 9.072 4.738-8.212 6.793-16.469 5.473-24.977l-.407-.137z" style="fill:#fff" transform="matrix(.78235 0 0 .78235 193.968 34.26)"/><path d="M243.635 181.938c-1.185-.015-2.54.301-2.54.301l-3.321 1.97c-.416.687 1.084 1.579 1.084 1.579s4.204.279 4.194 1.37c3.092 1.641 9.675 1.838 13.044 2.004a43 43 0 0 0-1.496-3.389 46 46 0 0 0-1.742-3.202l-.002-.001c-.189-.058-2.726-.773-9.221-.632M219.197 221.764s-.805-1.045-5.146-1.051c-2.752-.005 1.196 6.5 1.196 6.5 2.481 1.664 11.419 4.214 13.283 4.46 1.865.245 8.101 2.106 8.101 2.106s3.25.429 6.584 1.438a63.245 63.245 0 0 0 6.762-7.235c-7.54-.155-18.249-.282-26.374-4.521-.825-2.429-4.406-1.697-4.406-1.697M198.034 147.157c-1.555-.469-2.974-1.387-3.846-2.839-1.851-3.092-2.81-4.598-3.522-5.997-.715-1.396-1.22-2.739-2.179-5.579-1.199-3.545-3.606-6.386-6.411-8.678-1.639-3.758-2.281-6.396-2.825-10.438-.741-5.54-1.245-9.533-2.183-15.189 1.409-5.581 2.479-8.896 2.483-12.406 0-3.142-.882-6.319-3.059-11.199-1.021-2.297-1.598-4.723-1.601-7.429-.015-3.242 1.879-10.992 3.663-14.85l.008-.016.007-.017c.466-1.214 1.104-2.306 1.797-2.891.645 2.091 1.758 4.874 2.98 7.471 1.341 2.815 2.752 5.364 3.974 6.643.115 1.559.067 3.248.765 4.926 2.845 6.822 6.87 12.937 8.84 19.923.161.562.222 1.03.222 1.451.011 1.238-.571 2.186-1.134 3.747l-.013.038-.006.037c-.118.536-.18 1.367-.182 2.359.002 1.149.089 2.481.329 3.644l.073.346 1.178.462c-.181.782-.819 1.677-1.186 2.462l-.071.165.025.178c.101.739.562 1.226.934 1.538.381.312.718.468.747.483l.202.092.216-.047c.7-.182 1.14-.702 1.605-1.336 1.337-1.942 2.555-5.366 2.579-7.349l-.002-.132c-.235-6.919-1.727-10.159-2.092-12.058-1.135-5.767-1.371-9.444-2.151-13.16-.777-3.709-2.106-7.397-5.362-13.023l-3.643-8.999c-.237-2.384-.821-6.204-2.104-9.732-1.306-3.557-3.315-6.905-6.643-7.991-1.115-.35-2.09-.4-3.537-.874-2.479-.804-4.063-1.939-5.051-3.282-.983-1.345-1.395-2.935-1.397-4.755 0-1.907.464-4.045 1.19-6.268.647-1.995 1.115-4.118 1.115-6.136.003-2.011-.473-3.95-1.774-5.454-1.304-1.504-3.384-2.49-6.361-2.737a10 10 0 0 0-.816-.036c-2.552-.018-4.381 1.146-5.56 2.86-1.192 1.711-1.846 3.929-2.395 6.25l-.023.096.007.101c.017.227.094 2.357.312 4.612.107 1.131.252 2.303.448 3.317.204 1.02.417 1.856.815 2.458l.061.089.087.065c1.155.848 2.036 1.194 2.462 1.62.216.212.367.43.496.831.125.4.203.99.201 1.847q0 .276-.01.595c-.13 3.257-2.092 5.089-5.025 6.151-2.505.884-4.459 1.59-6.051 2.798-1.596 1.208-2.745 2.915-3.609 5.571-.554 1.694-1.018 4.097-1.031 7.627v.11c-1.396 3.458-3.154 7.428-4.256 11.212-3.148 3.236-5.423 8.28-7.716 13.248-2.308 5.03-4.636 9.976-7.618 12.8-1.495 1.424-2.625 2.366-3.44 3.358-.818.982-1.278 2.092-1.266 3.53 0 1.076.222 2.342.642 4.023.113.388.316.604.554.885.361.4.837.823 1.273 1.181.447.363.806.631 1.065.775l.039.022.045.017a.8.8 0 0 0 .284.047c.312-.011.493-.099.734-.199a6 6 0 0 0 1.042-.604c.162-.116.308-.236.439-.373.074-.097.17-.179.238-.338l.053-.051.022-.232c.152-1.564.129-2.276.273-2.808.131-.527.456-1.112 1.432-2.527.966-1.396 1.242-2.535 1.449-3.488.211-.954.356-1.694 1.071-2.72 3.943-4.927 7.647-9.871 12.022-14.313 1.605-1.647 3.331-4.937 4.846-8.318 1.132-2.542 2.119-5.107 2.745-7.004.531 5.191 1.169 9.78 1.168 14.821q0 1.035-.038 2.104c-.124 3.44-.229 5.994-.229 8.095-.002 3.212.251 5.406 1.065 7.993.813 2.586 2.16 5.553 4.349 10.471l1.017 2.286.23-2.493c.234-2.588.773-6.026 1.641-9.065.484-1.731 1.097-3.331 1.786-4.56-2.965 13.447-3.172 30.784-3.526 36.335-.102 1.644-.408 3.884-.41 6.063.004 1.727.186 3.43.884 4.829.444 1.761.491 4.555.534 6.688l.047 12.417c.02 5.43.04 10.715.04 11.368l-2.076 10.393c-.333 1.35-1.456 3.335-2.841 5.116-1.385 1.799-3.058 3.421-4.358 4.126-.457.252-1.247.676-1.948 1.189a5.4 5.4 0 0 0-.956.861c-.263.322-.494.705-.5 1.198.005.373.178.646.365.861.665.72 1.9 1.264 3.471 1.754 1.563.471 3.421.804 5.179.805 2.121-.01 4.19-.465 5.267-2.083 1.802-2.778 3.241-4.268 5.412-6.349 1.178-1.111 1.627-2.373 1.616-3.585-.037-2.387-1.402-4.593-1.378-7.021q.001-.331.035-.67c.744-7.436 3.996-13.999 5.096-21.293.226-1.496.359-2.942.359-4.402.003-2.77-.493-5.579-1.771-8.812l1.198-11.546c1.168 2.193 2.333 5.009 3.51 7.465 1.326 2.763 2.008 4.302 2.965 5.764.962 1.461 2.161 2.769 4.468 5.045 1.525 1.507 3.1 3.29 4.225 5.078 2.01 3.2 3.378 6.28 3.378 9.9q0 .259-.008.522c-.738 1.303-1.248 1.844-1.816 2.311-.585.482-1.316.909-2.318 1.856a1.24 1.24 0 0 0-.296.491q-.091.26-.096.584c-.006.378.133.861.531 1.215.396.351.963.525 1.689.523 1.785 0 3.122-.23 4.174-.693 1.595-.694 2.426-1.937 3.035-3.308.624-1.383 1.105-2.951 2.053-4.643.523-.943 1.434-2.128 2.226-3.344.785-1.227 1.495-2.474 1.511-3.773a2.68 2.68 0 0 0-.718-1.856c-.497-.536-1.212-.931-2.179-1.22" style="fill:#fff" transform="matrix(.78235 0 0 .78235 193.968 34.26)"/></g></svg>