<svg xmlns="http://www.w3.org/2000/svg" xmlns:xlink="http://www.w3.org/1999/xlink" xml:space="preserve" width="512" height="512" preserveAspectRatio="none"><defs><linearGradient id="d" x1="44.376" x2="189.165" y1="154.414" y2="154.414" gradientTransform="matrix(1.01404 0 0 1.01404 200.85 36.114)" gradientUnits="userSpaceOnUse"><stop offset="0" style="stop-color:#ca6500"/><stop offset="1" style="stop-color:#7c0000"/></linearGradient><linearGradient id="e" x1="91.609" x2="146.935" y1="50.664" y2="105.991" gradientTransform="matrix(1.01404 0 0 1.01404 200.85 36.114)" gradientUnits="userSpaceOnUse"><stop offset="0" style="stop-color:#009"/><stop offset="1" style="stop-color:#00007c"/></linearGradient></defs><path fill="#f60" d="M415.927 326.099c8.158 8.158 14.586 16.81 19.283 26.451 14.832 30.16 9.393 63.533-20.272 92.456-33.867 33.374-91.714 53.645-158.708 53.645-66.993 0-124.84-20.519-158.708-53.645-29.665-28.923-35.103-62.296-20.27-92.456 4.696-9.394 11.124-18.293 19.282-26.451C87.14 335.246 79.476 343.404 72.8 357c-14.585 28.924-9.888 70.455 20.766 100.367C128.423 491.482 182.562 512 256.725 512c74.162 0 128.548-21.26 161.922-54.633 32.631-32.879 33.867-75.646 20.518-101.356-5.191-10.63-12.855-20.518-23.238-29.912"/><g opacity=".85" transform="matrix(2.47209 0 0 2.47209 -31.52 .278)"><linearGradient id="a" x1="52.066" x2="159.734" y1="138.732" y2="177.347" gradientUnits="userSpaceOnUse"><stop offset="0" style="stop-color:#f60"/><stop offset=".152" style="stop-color:#dd5c0e"/><stop offset=".567" style="stop-color:#874430"/><stop offset=".859" style="stop-color:#503446"/><stop offset="1" style="stop-color:#3b2e4f"/></linearGradient><path fill="url(#a)" d="M181 131.8c3.3 3.3 5.9 6.8 7.8 10.7 6 12.2 3.8 25.7-8.2 37.4-13.7 13.5-37.1 21.7-64.2 21.7s-50.5-8.3-64.2-21.7c-12-11.7-14.2-25.2-8.2-37.4 1.9-3.8 4.5-7.4 7.8-10.7-3.8 3.7-6.9 7-9.6 12.5-5.9 11.7-4 28.5 8.4 40.6 14.1 13.8 36 22.1 66 22.1s52-8.6 65.5-22.1c13.2-13.3 13.7-30.6 8.3-41-2.1-4.3-5.2-8.3-9.4-12.1z" style="fill:url(#a)"/></g><g transform="matrix(2.47209 0 0 2.47209 -31.52 .278)"><defs><path id="b" d="M159 117.7c-12.7-5.3-27.5-8-42.5-8s-29.8 2.7-42.5 8c-13.9 5.8-24.7 14.3-29.8 24.8-6 12.2-3.8 25.7 8.2 37.4 13.7 13.5 37.1 21.7 64.2 21.7s50.5-8.3 64.2-21.7c12-11.7 14.2-25.2 8.2-37.4-5.3-10.5-16.1-19.1-30-24.8"/></defs><use xlink:href="#b" fill="#f60" overflow="visible"/></g><g transform="matrix(2.47209 0 0 2.47209 -31.52 .278)"><linearGradient id="c" x1="26.409" x2="121.958" y1="155.952" y2="139.104" gradientUnits="userSpaceOnUse"><stop offset="0" style="stop-color:#ffe386"/><stop offset="1" style="stop-color:#f60"/></linearGradient><path fill="url(#c)" d="M119 123.6c-2.5-5.1-2-9.8-1.5-13.8h-1c-15 0-29.8 2.7-42.5 8-13.9 5.8-24.7 14.3-29.8 24.8-6 12.2-3.8 25.7 8.2 37.4.8.8 1.7 1.6 2.6 2.4 50.5-3.1 76.8-32.6 64-58.8z" style="fill:url(#c)"/></g><path fill="#fff" fill-rule="evenodd" d="M286.03 162.26a267.23 267.23 0 0 1 27.784 8.72c1.826-5.475 3.752-10.95 5.983-16.224 2.231 5.375 4.158 10.749 5.983 16.225 9.228-3.347 18.05-6.186 27.582-8.62-6.693 4.158-12.574 8.518-18.76 13.386 12.574 1.622 24.337 3.65 36.708 6.388-12.371-.304-23.931.203-36.302.913 8.72 7.402 16.123 14.5 24.235 22.511-11.053-6.287-21.497-11.661-33.057-17.137-2.231 9.633-4.36 19.368-6.389 29.002-2.028-9.735-3.955-18.963-6.185-28.596-11.56 5.476-22.005 10.647-33.464 16.731 8.113-8.01 15.718-15.007 24.439-22.308-12.372-.812-24.134-.913-36.81-1.116 12.371-2.636 24.641-4.766 37.215-6.388-6.185-4.766-12.27-9.228-18.962-13.487zm33.767 16.934V157.9c-2.13 5.881-4.056 11.965-5.881 17.948a304.358 304.358 0 0 0 5.881 3.346m-28.19-14.602c7.605 3.347 15.008 7.099 22.309 11.155-1.825.202-3.65.405-5.375.608-5.577-4.056-11.154-8.01-16.934-11.763m28.19 14.602c14.704 0 29.306.71 44.01 2.231-12.778-2.332-25.25-4.056-38.128-5.577-2.028 1.014-3.955 2.231-5.882 3.346zm28.089-14.602a254.19 254.19 0 0 0-22.309 11.155 105.085 105.085 0 0 0-.912-2.941c7.605-3.042 15.413-5.78 23.221-8.214zm-28.9 14.602c.304 10.344.71 21.194.811 31.233 1.927-9.228 3.854-18.456 5.983-27.582-2.028-1.318-4.766-2.535-6.794-3.65m33.159 21.194c-8.518-6.186-17.34-12.067-26.365-17.644 1.825-.102 3.65-.305 5.476-.406 7.2 5.78 14.095 11.864 20.889 18.05m-32.348-21.194c-14.805.203-26.365.913-40.764 2.13 12.473 0 22.106.507 34.781 1.52a72.51 72.51 0 0 1 5.983-3.65m-32.348 21.194c8.62-6.186 17.34-12.067 26.365-17.644.305 1.115.507 2.332.812 3.447-9.33 4.462-18.354 9.228-27.177 14.197zM321.217 237.704c-.406.304-1.014.609-1.42 1.014-.405-.304-1.014-.608-1.52-1.014V225.74c.405-.305 1.013-.609 1.52-.913.406.304 1.014.608 1.42.913v11.965M250.032 208.703c-.203.405-.507.912-.71 1.318.405.203 1.318.406 1.622.609 4.158-2.231 8.315-4.462 12.473-6.592.203-.608.203-1.014.405-1.42-.405-.1-.81-.202-1.318-.304a743.3 743.3 0 0 0-12.472 6.389zM246.99 184.163c-.406.304-.812.609-1.116.913l.608.912c3.955-.608 7.808-1.014 11.763-1.42.406-.303.811-.81 1.116-1.115l-.71-.71c-3.854.406-7.707.812-11.662 1.42zM261.997 164.288c-.405.203-.811.304-1.217.507 0 .203.102.71.102.913 2.839.405 5.78.912 8.619 1.42.406-.203.913-.508 1.217-.71-.102-.203-.102-.507-.102-.71-2.839-.507-5.678-1.014-8.619-1.42zM350.117 152.12h1.115l.406.405a67.787 67.787 0 0 0-4.462 2.941h-1.115c-.102-.203-.304-.304-.406-.507 1.42-.913 2.94-1.927 4.462-2.84zM318.682 147.962c.304-.101.507-.203.811-.203.304.102.608.203.811.203v3.55l-.912.303c-.305-.101-.609-.202-.812-.304.102-1.217.102-2.433.102-3.549zM287.145 152.627c.102-.102.507-.406.609-.507h1.115a67.783 67.783 0 0 1 4.462 2.94c-.102.203-.304.305-.406.507-.405 0-.912.102-1.318.102-1.42-1.116-2.94-2.13-4.462-3.042M278.019 230.403c-.609.102-1.318.102-1.927.304-.101-.405-.405-.81-.507-1.216 2.94-3.448 5.882-6.997 8.924-10.445.608-.101 1.318-.203 1.926-.406.102.406.406 1.014.609 1.319-3.144 3.447-6.084 6.895-9.025 10.444zM388.447 208.703c.203.405.507.912.71 1.318-.405.203-1.318.406-1.622.609-4.158-2.231-8.315-4.462-12.473-6.592-.203-.608-.304-1.014-.405-1.42.405-.1.81-.202 1.318-.304 4.056 2.028 8.315 4.158 12.472 6.389M391.49 184.163c.405.304.81.609 1.115.913l-.608.912c-3.955-.608-7.809-1.014-11.763-1.42-.406-.303-.812-.81-1.116-1.115l.71-.71c3.853.406 7.808.812 11.662 1.42M376.482 164.288c.405.203.811.304 1.217.507 0 .203-.102.71-.102.913-2.84.405-5.78.912-8.62 1.42a12.928 12.928 0 0 1-1.216-.71c.101-.203.101-.507.203-.71a213.007 213.007 0 0 1 8.518-1.42zM360.561 230.403c.507.102 1.319.203 1.927.304.203-.405.406-.81.507-1.216-2.94-3.448-5.881-6.997-8.923-10.445-.609-.101-1.319-.203-1.927-.406-.101.406-.406 1.014-.608 1.319 3.143 3.447 6.084 6.895 9.024 10.444z" clip-rule="evenodd" style="stroke-width:1.01404" transform="translate(-521.169 -87.763)scale(2.43787)"/><path fill="url(#d)" fill-rule="evenodd" d="M313.814 171.386c-8.923-3.245-17.644-6.084-26.77-8.416l-.913-.609a267.224 267.224 0 0 1 27.785 8.721c1.825-5.476 3.752-10.951 5.983-16.224 2.23 5.374 4.157 10.748 5.982 16.224 9.228-3.346 18.05-6.185 27.582-8.62l-.912.61c-9.228 2.332-17.746 5.07-26.67 8.314-1.825-5.475-3.752-10.85-5.982-16.224-2.333 5.273-4.26 10.749-6.085 16.224m-9.329 12.067c-8.518 7.301-16.427 14.4-24.438 22.31.304-.204 1.014-.61 1.318-.71 7.808-7.707 14.704-13.994 23.12-21.093zm0 0v.406-.406m-.304.203c-.101.102-.203.102-.304.203-1.826 1.115-3.55 2.13-5.375 3.245l.102.304c1.926-1.217 3.955-2.332 5.881-3.549v-.406c-.101 0-.203.102-.304.203zm-5.881-3.346c-.203 0-.406 0-.507.101-1.623.203-3.245.305-4.868.508-5.475-4.158-11.053-8.113-16.934-11.763v.405a240.312 240.312 0 0 1 16.934 11.763c1.826-.203 3.65-.405 5.375-.608 1.724 1.014 3.447 1.926 5.171 2.94h.71c-1.926-1.115-3.955-2.332-5.881-3.346m-26.467 25.047c8.924-4.969 17.949-9.735 27.177-14.197v-.507c-9.228 4.462-18.253 9.127-27.177 14.197zm38.331-18.151c-2.13 9.024-4.158 18.455-5.983 27.581v.406c1.927-9.228 3.854-18.354 5.983-27.582 6.186 3.752 15.008 9.633 26.365 17.746v-.507c-8.62-6.186-17.34-12.067-26.365-17.644m9.532.71-.406-.305v.609c8.417 7.098 15.11 13.486 22.918 21.193.304.203 1.014.608 1.318.71-8.214-8.113-15.515-15.11-23.83-22.208m-30.725-7.505c-12.473 1.623-24.54 3.651-36.81 6.288h1.927c11.763-2.536 23.323-4.462 35.288-5.983v-.406zm9.227 6.795c-11.56-1.015-23.12-1.623-34.68-1.522v.406c11.459-.101 22.816.507 34.275 1.42 0 0 .203-.102.405-.304m20.687-6.49c11.965 1.52 22.917 3.447 34.68 5.881h2.028c-12.371-2.636-24.134-4.766-36.708-6.388zm-14.095 2.94h-.609c.102.102.203.102.304.203.102.102.305.102.406.203 14.5 0 28.9.811 43.3 2.23v-.405c-14.603-1.42-29.306-2.23-44.01-2.23m5.78-3.347c.203 0 .304 0 .507.101 7.098-3.954 14.4-7.605 21.802-10.85v-.405c-7.605 3.346-15.008 7.098-22.309 11.154m0 0c-.304-1.014-.608-2.028-.912-2.94v.405c.304.71.507 1.622.912 2.535-.101 0 0 0 0 0m-63.073 27.176c.304.102.811.203 1.116.304.101-.202.101-.507.202-.71-.405-.1-.81-.202-1.318-.304-4.157 2.13-8.416 4.26-12.574 6.49-.203.406-.507.913-.71 1.318.102 0 .203.102.305.102.1-.203.304-.507.405-.71 4.26-2.332 8.417-4.36 12.574-6.49zm-3.752-19.773c.102.1.304.304.406.405.101-.101.101-.203.203-.203l-.71-.71c-3.854.406-7.808.913-11.662 1.42-.405.304-.81.609-1.115.913.101.203.203.203.304.405.203-.202.811-.608 1.014-.71a211.489 211.489 0 0 1 11.56-1.52zm3.245-18.355c2.84.406 8.72 1.623 8.72 1.522-.1-.203-.1-.507-.1-.71-2.84-.507-5.78-1.014-8.62-1.42-.405.203-.811.304-1.217.507 0 .304 0 .406.102.609.304-.102.81-.305 1.115-.508m89.235-12.168c.203 0 .305-.101.406-.203l-.406-.405h-1.115a67.784 67.784 0 0 0-4.462 2.94 1.4 1.4 0 0 1 .304.406c1.319-.913 2.738-1.825 4.158-2.738h1.115m-32.55-4.157c.304-.102.507-.203.811-.203.304.101.608.203.811.203v-.609c-.304-.101-.608-.203-.811-.203-.304.102-.507.203-.811.203zm-29.813 4.056c1.42.912 2.738 1.825 4.158 2.839a1.4 1.4 0 0 0 .304-.406c-1.521-1.014-2.94-2.028-4.462-2.94h-1.115c-.102.101-.507.405-.609.507.102.101.203.202.406.202 0 0 .203-.202.304-.202h1.014zm-2.636 66.52c.202.203.304.71.507 1.014l.202-.202c-.101-.203-.405-.913-.608-1.319-.608.102-1.318.203-1.927.406a440.03 440.03 0 0 0-8.923 10.445c0 .202.203.304.203.507 1.926-2.231 5.982-7.099 8.923-10.445.507-.203 1.116-.304 1.623-.406m102.214-9.734c.102.202.305.507.406.71.101 0 .203-.102.304-.102-.203-.406-.507-.913-.71-1.318a488.552 488.552 0 0 0-12.574-6.49c-.405.101-.81.203-1.318.304.102.203.203.507.203.71.304-.101.811-.203 1.115-.304 4.26 2.23 8.417 4.259 12.574 6.49m2.941-24.743c.203.203.811.609 1.014.71.102-.101.102-.203.304-.406-.405-.304-.81-.608-1.115-.912-3.853-.609-7.808-1.014-11.661-1.42l-.71.71c.101.101.202.101.202.203l.406-.406 11.56 1.521zm-13.79-19.266c0-.203 0-.305.1-.609-.405-.203-.81-.304-1.216-.507-2.84.406-5.78.913-8.62 1.42 0 .203-.1.507-.202.71.101 0 5.881-1.116 8.72-1.522.406.203.913.406 1.217.508m-23.73 54.048c2.942 3.346 6.998 8.213 8.924 10.444.102-.203.102-.304.203-.507-2.94-3.448-5.881-6.997-8.923-10.444-.609-.102-1.319-.203-1.927-.406-.203.406-.507 1.115-.608 1.318 0 .102.1.102.202.203.203-.304.406-.811.507-1.014.609.203 1.217.304 1.623.406zm-32.955 6.692.304 11.56V225.74c-.406-.305-1.014-.609-1.42-.913-.405.304-1.014.608-1.52.913v11.965l.303-11.56c.305-.203.913-.507 1.217-.71.304.305.811.507 1.116.71m-1.42-3.447c20.99 0 64.29-10.75 57.699-39.75-5.172-23.323-37.52-30.219-57.8-30.219-20.281 0-52.527 6.896-57.8 30.218-6.389 28.9 36.91 39.75 57.901 39.75m0-1.826c20.18 0 61.755-10.241 55.67-38.127-4.867-22.512-36.1-29.205-55.67-29.205-19.47 0-50.702 6.693-55.67 29.205-6.085 27.784 35.49 38.127 55.67 38.127z" clip-rule="evenodd" style="fill:url(#d);stroke-width:1.01404" transform="translate(-521.169 -87.763)scale(2.43787)"/><path fill="#fff" fill-rule="evenodd" d="M261.896 183.555c5.171-23.323 36.2-30.32 57.8-30.32 21.497 0 52.527 6.997 57.8 30.32 6.49 29.001-36.81 39.75-57.8 39.75-20.99.101-64.29-10.749-57.8-39.75m2.13-.102c4.867-22.511 36.099-29.204 55.67-29.204 19.47 0 50.702 6.693 55.67 29.204 6.085 27.785-35.49 38.128-55.67 38.128s-61.755-10.343-55.67-38.128" clip-rule="evenodd" style="stroke-width:1.01404" transform="translate(-521.169 -87.763)scale(2.43787)"/><path fill="#3b2e4f" d="m388.549 188.422-9.43-1.42-1.218-.304c-1.622-.304-4.664-2.028-5.982-4.056-1.319-2.028-4.462-5.577-6.287-7.707-2.434-3.042-7.91-5.78-8.721-7.098-.811-1.217-2.13-3.448-2.535-4.36-.406-.913-1.217-1.623-2.637-1.521-1.42.101-1.52.608-2.738.608-1.216.102-2.94-.203-2.94-.203-.71-.101-1.217-.202-1.826-.202-.71 1.216-1.926 2.028-4.766 2.028-.202 0-.405 0-.507-.102.305.609 2.941 1.014 3.347 1.014.405 0 2.94.71 3.448.812 1.115.202.912-.203 2.737.912 3.043 1.724 7.504 6.591 8.417 10.749.507 2.332 4.462 6.084 4.969 8.214-5.273-.406-12.372-3.854-12.372-3.854l-.912-.405s-3.144-1.623-8.011-1.826c-9.126-.81-12.574-2.028-13.487-2.332-1.926-.608-1.622-.912-3.143-1.014h-.811c-.203.304-.406.71-.812 1.014-1.724 1.623-2.839 2.84-4.259 4.969-.405.608-1.014.913-1.825 1.217 1.724-.406 5.172-1.318 5.172-1.318 3.245-.406 8.112 1.014 8.112 1.014 1.825.405 4.766 1.52 4.766 1.52s12.98 3.955 16.123 6.288c2.13 1.52 12.878 5.577 15.718 6.59 2.839 1.015 9.836 4.767 9.836 4.767 1.825 1.52 12.168 6.084 15.109 6.997 3.65-6.389 4.969-12.879 3.955-19.47z" opacity=".66" style="stroke-width:1.01404" transform="translate(-521.169 -87.763)scale(2.43787)"/><path fill="#3b2e4f" d="M383.783 177.572c-.913 0-1.927.203-1.927.203l-2.535 1.52c-.304.508.811 1.218.811 1.218s3.245.202 3.245 1.014c2.434 1.318 7.504 1.42 10.14 1.52-.304-.912-.71-1.723-1.115-2.636-.405-.811-.912-1.622-1.318-2.535-.203.203-2.231-.405-7.301-.304zM364.516 209.413s-.608-.812-3.955-.812c-2.13 0 .913 4.97.913 4.97 1.927 1.317 8.72 3.244 10.14 3.447 1.42.203 6.186 1.622 6.186 1.622s2.434.305 5.07 1.116c.406-.406.811-.71 1.217-1.116 1.42-1.42 2.84-2.94 3.955-4.36-5.78-.101-13.892-.203-20.078-3.448-.71-2.028-3.448-1.42-3.448-1.42" opacity=".66" style="stroke-width:1.01404" transform="translate(-521.169 -87.763)scale(2.43787)"/><path fill="#ffbf5c" d="M347.075 119.062s-1.927-1.724-1.927-1.825c-.101-.609.507-1.42.71-2.434-.203-.101-.406-.203-.609-.203-.507-1.724-.81-4.968 0-6.692.406-.812.913-1.927.609-2.941-1.623-5.374-4.665-10.14-6.896-15.21-.608-1.42-.507-2.434-.608-3.854-1.724-1.927-3.65-6.794-4.665-9.836-2.028 5.07-3.346 10.749-3.346 12.168 0 5.679 5.679 8.417 3.752 17.746-.406 1.825-1.115 4.36-1.724 6.895 1.217 6.592 1.217 11.256 2.94 18.862a21.862 21.862 0 0 1 5.578 9.43c.71 2.434 2.738 8.214 5.375 9.025 1.622.507-5.578 1.825-7.606-.71-1.926-2.434-5.374-4.36-6.895-6.997-1.318-2.028-3.245-6.49-4.462-8.619l-1.521 8.01c2.13 8.62.811 10.445-1.014 17.442-.811 3.042-6.895-11.053-6.895-12.168 0-3.042-.203-4.158-.913-6.896-1.318-2.433-1.116-5.982-.913-8.72.304-4.462.304-12.879.406-15.11-1.521-3.751-5.476-10.545-5.882-14.399-.608-5.983.406-12.067-.405-17.948-1.014 2.94-2.13 6.794-4.462 9.025-3.448 3.447-6.693 7.2-9.735 10.951-1.115 1.521-.101 2.333-1.926 4.766-1.724 2.434-.812 1.319-1.116 3.65-.101.406-.304.71-.405.812-.913.811-1.927 1.42-3.245.913-2.535-1.319-2.738-3.144-2.941-5.577-.304-4.665 3.144-4.868 5.07-7.707 3.854-5.577 5.78-14.805 9.836-18.963.305-.81 1.217-3.853 3.042-8.213.102-5.476 1.42-10.445 7.099-12.676 2.332-.912 5.374-1.115 5.475-4.36 0-.406-.1-1.318-.304-1.724-.912-.71-1.622-.811-2.028-1.318-.912-1.217-1.724-8.72-1.622-9.228 1.318-6.388 4.36-8.62 8.315-8.416 4.563.202 8.214 2.433 8.01 8.619-.202 4.969-5.272 11.357 2.434 13.79 2.941.913 3.55.305 5.983 2.84 2.84 2.84 3.55 7.91 3.955 12.574l2.84 6.693c5.272 8.923 3.346 11.763 5.374 20.787.507 2.333 1.42 4.462 1.52 9.532.406 2.637-1.52 8.113-4.258 8.214z" style="stroke-width:1.01404" transform="translate(-521.169 -87.763)scale(2.43787)"/><path fill="url(#e)" d="M291.911 112.268c.203-2.332-.101-2.13 1.42-4.36 1.42-2.028.71-3.042 1.927-4.868 3.042-3.853 5.982-7.706 9.329-11.154 2.332-2.332 5.374-10.14 6.185-12.878.102-.406.406-.609.406-.305.507 5.273 1.217 9.634 1.014 14.805-.406 10.85-.101 9.735 4.462 19.875.405-4.056 1.318-9.937 3.752-11.965-2.738 10.546-2.941 25.554-3.245 30.218-.102 2.332-.812 6.084.304 8.214.406 1.42.406 3.65.406 5.374 0 1.014.1 18.557.1 18.557l-1.622 8.112c-.608 2.333-3.65 6.287-5.88 7.504-.71.406-2.333 1.318-2.333 2.028 0 1.319 8.315 3.65 10.14.812 1.42-2.231 2.535-3.448 4.26-4.97 2.636-2.534-.305-5.07.1-8.416.609-5.881 3.144-10.951 3.955-16.529.507-3.346.406-6.287-1.115-10.14l1.115-10.647c1.217 1.825 2.333 4.766 3.55 7.2 2.027 4.258 2.129 4.765 5.678 8.213 1.217 1.217 2.434 2.637 3.346 4.056 1.724 2.637 2.84 5.273 2.637 8.518-1.217 2.231-1.724 2.13-3.347 3.448.102.101-.405 1.318 1.116 1.318 5.374 0 4.664-2.84 6.794-6.49 1.318-2.332 5.07-5.983.913-7.2-1.319-.405-2.536-1.216-3.245-2.433-2.84-4.766-2.941-4.665-4.462-9.126-.913-2.637-2.738-4.868-4.867-6.592-1.319-3.042-1.826-5.171-2.231-8.315-.609-4.36-1.014-7.402-1.724-11.864 2.13-8.315 3.143-10.039-.406-18.05-.811-1.825-1.318-3.752-1.318-5.983 0-2.636 1.42-8.619 2.84-11.762.506-1.217 1.216-2.434 2.129-2.84.912 3.245 3.853 9.836 5.577 11.459.101 1.318.101 2.636.608 3.853 2.231 5.273 5.273 10.04 6.896 15.515.507 1.927-.203 2.84-.71 4.36-.203.71-.203 2.84.101 4.462l.71.406c-.101.507-.507 1.825-.71 2.433.102.71 1.014 1.217 1.014 1.217 1.217-.304 2.941-4.563 2.84-6.388-.203-5.273-1.319-7.707-1.623-9.228-1.724-9.025-.71-11.459-5.78-20.18l-2.84-7.097c-.303-3.651-1.824-11.865-6.489-13.386-.811-.203-1.521-.304-2.738-.71-6.084-1.926-6.084-6.59-4.36-11.762 1.52-4.564 1.622-9.938-4.969-10.445-4.157-.304-5.374 2.94-6.287 6.693 0 .405.203 6.49 1.115 7.808 1.724 1.318 2.738.912 2.637 4.259-.101 2.738-1.825 4.36-4.259 5.273-3.853 1.318-5.881 2.13-7.2 6.185-.405 1.217-.81 3.042-.81 5.78v.203c-1.116 2.738-2.536 5.882-3.347 8.822-4.766 4.766-7.2 15.718-11.966 20.28-3.245 3.043-4.157 3.246-3.042 8.012.101.507 1.623 1.724 2.028 1.926.203-.1 1.521-.81 1.521-1.115z" style="fill:url(#e);stroke-width:1.01404" transform="translate(-521.169 -87.763)scale(2.43787)"/></svg>