<svg width="640" height="360" xmlns="http://www.w3.org/2000/svg"><g fill="#fff" fill-rule="nonzero"><path d="M414.83 188.051c-1.684 10.778-7.242 16.336-13.81 16.336-4.21 0-6.568-3.032-5.894-7.579l2.358-14.483c.842-5.39 4.21-9.6 9.936-9.6 6.063 0 9.094 4.38 7.41 15.326zm-22.904 21.388c.842 0 3.032 3.705 10.105 3.705 14.82 0 23.41-10.778 25.767-24.756 3.031-17.178-5.39-24.925-15.83-24.925-4.885 0-8.59.505-11.284 1.852l4.041-23.577h-12.462l-12.294 70.564h9.263c0 .169 1.347-2.863 2.694-2.863zm131.866-29.977c1.853-10.61-2.02-15.83-13.64-15.83-8.59 0-11.958 3.873-15.158 7.073l.337-5.895h-11.452l-.842 8.758-6.568 38.903h12.63l4.043-25.262c1.515-8.757 7.41-15.326 13.136-15.326 6.23 0 6.23 3.537 5.22 9.095l-5.389 31.493h12.463zM576 163.632h-14.652l-16.841 17.85h-.168l6.736-39.407H538.95l-12.294 70.396h12.463l1.179-7.074 2.526-15.493c6.568 0 10.273.673 13.136 13.81l2.02 8.757h12.632s-3.2-13.305-5.221-18.526c-2.19-5.557-4.547-9.094-9.6-10.104zm-359.727 17.346c9.094-2.021 13.81-9.263 14.989-14.147 3.2-13.136-2.527-23.41-19.368-23.24h-19.199l-11.957 68.711h12.631l5.052-27.45c11.452-.338 12.968 2.525 15.157 15.83l2.021 11.789h12.968c-1.516-7.074-2.526-13.81-3.705-19.2-1.347-5.725-3.368-10.104-8.757-12.125zm2.526-16.505c-1.01 6.063-5.726 10.442-11.62 10.442h-7.41l3.873-21.725h6.737c7.915 0 9.43 5.22 8.42 11.283zm56.418 12.968c1.853-10.441-3.705-13.978-14.989-13.978-13.978 0-20.04 6.568-20.04 6.568l4.378 7.242s4.547-5.221 13.641-5.221c5.053 0 5.221 2.526 4.716 5.22l-1.01 6.232c-18.02-.505-27.283 3.368-29.304 15.325-1.684 9.768 5.557 14.315 13.81 14.315 4.21 0 7.578-.673 11.788-4.21.842 2.358 2.19 3.537 3.874 3.873 2.526.506 7.073 0 8.42-1.01-.168-1.516 0-5.052 1.516-13.81zm-14.82 12.8c-2.021 14.146-3.874 15.662-10.779 15.662-4.715 0-6.4-3.2-5.557-7.41 1.179-5.895 5.557-8.253 16.336-8.253zm212.872-12.8c1.852-10.441-3.705-13.978-14.989-13.978-13.978 0-20.04 6.568-20.04 6.568l4.378 7.242s4.547-5.221 13.641-5.221c5.053 0 5.221 2.526 4.716 5.22l-1.01 6.232c-18.02-.505-27.283 3.368-29.304 15.325-1.684 9.768 5.557 14.315 13.81 14.315 4.21 0 7.578-.673 11.788-4.21.842 2.358 2.19 3.537 3.874 3.873 2.526.506 7.073 0 8.42-1.01-.168-1.516 0-5.052 1.516-13.81zm-14.82 12.8c-2.021 14.146-3.874 15.662-10.779 15.662-4.715 0-6.4-3.2-5.557-7.41 1.01-5.895 5.389-8.253 16.336-8.253zM300.31 213.312c14.82 0 23.41-10.779 25.767-24.757 3.032-17.178-5.389-24.925-15.83-24.925-4.884 0-8.421.506-11.284 1.853l4.042-23.578h-12.463l-12.294 70.565h9.263s1.347-2.863 2.695-2.863c1.01-.169 3.031 3.705 10.104 3.705zm5.221-40.587c6.4 0 9.094 4.378 7.579 15.325-1.516 11.284-7.242 16.336-13.979 16.336-4.21 0-6.568-3.032-5.894-7.579l2.358-14.483c1.01-5.39 4.21-9.6 9.936-9.6zm25.767 19.704c1.853-18.02 9.936-29.136 29.304-29.136 14.315 0 19.03 10.947 17.01 22.568-3.032 18.693-10.442 27.62-28.63 27.62-11.79 0-18.863-9.6-17.684-21.052zm33.346-5.558c.842-4.884 1.852-14.652-6.569-14.652-5.726 0-11.115 3.874-13.472 17.515-1.516 8.252.168 14.989 6.736 14.989 4.716 0 10.778-4.042 13.305-17.852zM110.169 121.241c.116 0 .236.006.358.016 1.308.109 2.221.542 2.794 1.202.572.66.78 1.513.78 2.396 0 .886-.206 1.819-.49 2.695-.32.976-.523 1.915-.523 2.753 0 .8.182 1.498.614 2.089.433.59 1.13 1.088 2.218 1.441.636.208 1.064.23 1.554.384 1.461.477 2.344 1.947 2.917 3.51.501 1.377.76 2.856.884 3.903l.04.371 1.6 3.953c1.43 2.471 2.014 4.09 2.356 5.72.342 1.632.446 3.247.944 5.78.16.834.816 2.257.92 5.296v.058c-.01.871-.545 2.375-1.133 3.228-.163.223-.32.414-.533.522l-.171.065-.095.02-.09-.04-.072-.038a1.773 1.773 0 0 1-.255-.174 1.161 1.161 0 0 1-.366-.494l-.044-.181-.011-.079.03-.072c.122-.259.31-.545.43-.816l.092-.266-.518-.202-.032-.152a8.332 8.332 0 0 1-.144-1.6c0-.328.016-.615.045-.837l.035-.2.002-.016c.253-.703.509-1.119.504-1.663 0-.185-.027-.39-.097-.637-.866-3.069-2.634-5.754-3.883-8.75-.307-.738-.286-1.48-.336-2.164-.537-.562-1.157-1.682-1.746-2.918-.536-1.14-1.025-2.363-1.309-3.282-.243.206-.471.554-.657.958l-.132.312-.003.008c-.787 1.701-1.619 5.105-1.612 6.53a7.906 7.906 0 0 0 .703 3.262c.956 2.144 1.344 3.539 1.344 4.919-.002 1.542-.472 2.998-1.091 5.45.412 2.483.633 4.237.959 6.67.239 1.776.52 2.935 1.24 4.585 1.233 1.007 2.29 2.255 2.816 3.812.422 1.247.643 1.837.958 2.45.312.615.733 1.276 1.546 2.634.193.32.446.582.737.789a56.892 56.892 0 0 1 8.811 2.816c8.072 3.35 14.347 8.323 17.37 14.454l.048.098c.135.24.266.482.393.727 3.111 5.984 2.819 15.908-4.764 23.532-7.735 7.777-20.353 12.69-37.586 12.69-17.184 0-29.803-4.77-37.872-12.69-7.101-6.968-8.176-16.586-4.814-23.316.103-.205.205-.404.309-.598l.209-.443c3.023-6.131 9.296-11.105 17.369-14.454 7.38-3.06 15.96-4.63 24.67-4.63l-.139-.014v-.278l-.001-.178c-.02-.937-.04-2.164-.235-2.938-.307-.614-.387-1.362-.388-2.12 0-.958.135-1.942.18-2.664.155-2.438.246-10.053 1.548-15.96-.302.54-.571 1.243-.784 2.004a22.425 22.425 0 0 0-.658 3.384l-.063.597-.1 1.095-.447-1.004c-.962-2.16-1.554-3.463-1.91-4.599-.358-1.136-.47-2.1-.468-3.51 0-.924.046-2.045.1-3.556.011-.313.017-.621.017-.924 0-2.215-.28-4.23-.513-6.51a34.95 34.95 0 0 1-1.206 3.076c-.665 1.485-1.423 2.93-2.128 3.654-1.922 1.95-3.549 4.122-5.28 6.286-.315.45-.378.776-.471 1.195-.091.419-.212.919-.637 1.532-.428.622-.571.878-.629 1.11-.054.2-.054.459-.095.96l-.024.273-.01.102-.023.023c-.03.07-.072.105-.105.148a1.35 1.35 0 0 1-.193.164 2.604 2.604 0 0 1-.457.265c-.106.044-.186.083-.323.088l-.055-.004-.07-.017-.02-.008a3.687 3.687 0 0 1-.484-.35 5.402 5.402 0 0 1-.56-.518c-.104-.124-.193-.219-.243-.39-.184-.738-.282-1.294-.282-1.766a2.278 2.278 0 0 1 .557-1.55c.357-.436.854-.85 1.51-1.476 1.31-1.24 2.333-3.412 3.346-5.622 1.008-2.182 2.007-4.397 3.39-5.819.387-1.33.958-2.711 1.486-3.988l.383-.936v-.048c.006-1.55.21-2.606.453-3.35.38-1.167.884-1.917 1.585-2.447.7-.531 1.557-.841 2.658-1.23 1.288-.466 2.15-1.27 2.207-2.701a8.19 8.19 0 0 0 .004-.261c.001-.377-.033-.636-.088-.812a.807.807 0 0 0-.218-.365c-.156-.156-.45-.287-.838-.542l-.243-.17-.038-.028-.027-.039c-.175-.264-.269-.631-.358-1.08-.086-.445-.15-.96-.197-1.456-.086-.892-.122-1.739-.134-1.972l-.003-.054-.003-.044.01-.043c.24-1.019.528-1.993 1.052-2.745.518-.752 1.32-1.264 2.442-1.256Zm-1.917 61.96-1.226.013c-8.17.155-16.174 1.706-23.087 4.572-7.989 3.312-14.143 8.222-17.075 14.179-1.21 2.458-1.831 4.999-1.831 7.552 0 .16.003.32.007.48.185 4.504 2.29 9.033 6.522 13.186 7.871 7.722 21.27 12.471 36.827 12.472 15.203 0 28.346-4.537 36.281-11.95l.189-.182a20.803 20.803 0 0 0-2.707-.577s-2.74-.817-3.559-.925c-.818-.108-4.744-1.228-5.834-1.959l-.06-.101c-7.354 4.296-17.493 6.14-23.931 6.14-11.88 0-36.362-6.281-32.689-22.682 2.91-12.999 19.994-17.05 32.188-17.158-.007-1.185-.012-2.291-.015-3.06zm.57 43.57c.239.166.568.332.808.5l.014 6.78c-.245.183-.58.366-.823.548-.248-.182-.587-.365-.837-.548v-6.78c.243-.167.594-.334.838-.5zm18.373-3.512c.33.07.754.14 1.085.21a393.675 393.675 0 0 1 5.03 5.89c-.097.243-.205.48-.312.711-.336-.053-.824-.118-1.098-.16a380.678 380.678 0 0 0-5.024-5.912c.089-.19.24-.537.319-.74zm-37.305 0c.077.202.229.55.319.739a383.138 383.138 0 0 0-5.025 5.912c-.334.08-.763.08-1.098.16-.073-.237-.24-.475-.312-.711a376.406 376.406 0 0 1 5.03-5.89c.33-.07.756-.14 1.086-.21zm18.377-36.247h-.044c-10.951.12-27.929 3.94-30.632 16.339-3.401 15.595 19.874 21.362 31.178 21.362 6.278 0 16.25-1.778 23.293-6.034-.296-.73-.445-1.473.172-1.472.86.001 1.404.095 1.742.198 1.763-1.297 3.26-2.788 4.351-4.484-1.121-.566-2.364-1.163-3.111-1.42-1.618-.56-7.721-2.843-8.9-3.704-1.134-.825-4.46-2.019-6.77-2.791 4.044 3.533 7.681 7.037 11.58 10.908-6.27-3.58-12.156-6.588-18.687-9.675a816.58 816.58 0 0 0-3.618 16.43c-1.154-5.485-2.215-10.706-3.482-16.166-6.533 3.084-12.476 6.022-18.952 9.459 4.578-4.54 8.913-8.476 13.838-12.643-6.98-.451-13.671-.544-20.817-.646a246.73 246.73 0 0 1 21.05-3.605c-3.507-2.762-6.95-5.324-10.734-7.702 5.386 1.368 10.506 2.998 15.715 4.922a148.8 148.8 0 0 1 2.645-7.375l.188-.466a2400.752 2400.752 0 0 1-.005-1.435zm31.459 26.633-.228.34c-.97 1.403-2.203 2.671-3.629 3.81.244.113.454.306.56.619 3.569 1.862 8.273 1.918 11.584 1.986l-.312-.007a22.386 22.386 0 0 0 1.517-2.233c-1.718-.59-7.445-3.104-8.44-3.954 0 0-.425-.231-1.052-.561zm-29.844-10.499s-.346.1-.822.204l-.181.041-.007.009c.067 5.237-.093 11.06-.049 15.925.949-4.568 1.6-9.7 2.554-14.39l.389-1.8c-.76-.034-1.485-.042-1.884.011zM76.5 213.991l.718.189c-.1.27-.153.467-.243.825-2.33 1.22-4.674 2.482-7.044 3.747-.214-.089-.692-.24-.94-.335l.397-.766a272.128 272.128 0 0 1 7.112-3.66zm27.432-10.348-.846.534c-4.477 2.885-8.99 6.21-13.238 9.27 5.034-2.837 10.819-6.024 16.03-8.528-.066-.288-.216-.576-.377-.865a8.269 8.269 0 0 1-1.098-.25 8.883 8.883 0 0 1-.471-.161zm8.198-.488 1.229.76c4.732 2.94 10.05 6.358 14.414 9.507-3.234-2.99-6.995-6.246-10.528-9.16-.047-.012-.071-.02-.071-.02s-1.687-.654-2.708-.862c-.199-.058-1.254-.164-2.336-.225zm14.11-17.62.033.047c.137.205.2.44.198.668-.007.57-.319 1.119-.664 1.658-.174.268-.363.533-.536.783 7.726 2.457 14.454 7.02 16.182 14.73.153.684.257 1.35.315 1.999l.62.142 5.36.812 3.777.786.045.015a17.178 17.178 0 0 0-1.045-3.833l-.222-.012c-1.553-.073-4.086-.2-5.331-.861.004-.48-1.842-.602-1.842-.602s-.505-.3-.508-.577l.032-.116 1.458-.866s.595-.138 1.116-.132c2.2-.048 3.367.128 3.823.223-3.181-5.253-8.937-9.596-16.212-12.613a55.884 55.884 0 0 0-6.599-2.251zm5.108 17.063-1.118.014c-1.442.025-2.88.065-4.32.118.787.377 4.177 1.93 6.807 2.125-.132-.596-.747-1.419-1.369-2.257Zm-6.57-13.118-.176.335c-.276.577-.455 1.115-.674 1.6a4.764 4.764 0 0 1-.137.285c.267.037 1 .126 1.554.092.69-.043.86-.332 1.667-.404.913-.082 1.198.385 1.405.877.209.49.962 1.733 1.418 2.44.454.71 3.573 2.281 4.94 4 .987 1.238 2.79 3.227 3.539 4.381.42.65 1.147 1.241 1.862 1.667a14.072 14.072 0 0 0-.235-1.4c-1.57-7.195-7.947-11.502-15.163-13.873zm-50.514 13.435c.13.131.26.263.39.397l-.651.624c-2.218.226-4.435.497-6.65.814l-.176-.245-.183-.248.649-.521c2.206-.32 4.414-.593 6.621-.821zm30.276-1.895-1.064.025c-6.301.205-12.826.615-19.507 1.19 6.162.02 12.168.134 18.365.542l.409.03a.511.511 0 0 1-.025-.152c.002-.217.104-.385.22-.527.118-.14.264-.265.42-.378.307-.225.654-.411.855-.522.104-.057.214-.127.327-.208zm7.576-2.004-.043.025c-.013.18-.05.362-.115.542.279.093.458.25 1.15.483.416.14 1.776.617 5.014 1.039 4.248.16 8.49.427 12.723.801l-.095-.132-.093-.13-.055-.01c-6.178-1.05-12.249-1.891-18.486-2.618Zm12.153-5.296-.698.487c-2.155 1.517-4.207 3.09-6.4 4.815a231.63 231.63 0 0 1 13.134 2.06c-.185-.316-.319-.609-.375-.869-.508-2.364-3.069-5.088-4.78-6.075-.478-.276-.708-.377-.881-.418zm-15.99-3.36.537-1.51c-1.224 3.355-2.304 6.76-3.321 10.181l.648.364c.515-.666.946-1.394 1.15-1.959l.082-.267.912-4.565-.001-.331v-.184l-.002-.463-.003-.896zm-15.852 2.102c3.288 2.078 6.901 4.552 10 6.897l1.533-.169 1.535-.159-1.567-.862c-3.703-2.017-7.726-4.04-11.5-5.707Zm30.11.924-2.202.726a174.586 174.586 0 0 0-8.723 3.213l.133-.05c.156.53.324 1.056.333 1.604v.006l.038.131a157.612 157.612 0 0 1 10.497-5.355l.366-.164a70.736 70.736 0 0 0-.441-.11zm-9.012-6.158-.239 1.016c-.623 2.408-1.544 4.716-1.798 7.256-.01.1-.016.198-.016.295v.006c.043.16.095.32.148.48 3.176-1.172 6.422-2.179 9.693-3.096a2.437 2.437 0 0 1-.16-.02h-.015l-.376.008c-.32 0-.568-.076-.742-.23a.705.705 0 0 1-.233-.533c0-.095.015-.181.042-.257a.545.545 0 0 1 .13-.216c.44-.416.76-.603 1.018-.815.25-.205.473-.443.798-1.015a6.215 6.215 0 0 0-.134-1.53 54.021 54.021 0 0 0-8.116-1.349zm27.123 5.373.632.272c-.02.126-.042.356-.062.482a89.416 89.416 0 0 0-4.603.775c-.197-.116-.463-.274-.648-.373l.08-.4a90.913 90.913 0 0 1 4.601-.756zm-64.308-.093c1.63.224 3.259.493 4.882.802l.087.425c-.196.106-.48.272-.687.395a94.123 94.123 0 0 0-4.888-.821c-.02-.133-.044-.378-.065-.512l.67-.289zm37.51-9.098.024.347.01.458c0 .64-.059 1.276-.158 1.933a16.87 16.87 0 0 1-.052.322c2.502.206 5.113.583 7.688 1.163-.256-.712-.627-1.401-1.068-2.103a11.324 11.324 0 0 0-1.168-1.512 69.761 69.761 0 0 0-5.276-.608zm-21.21 2.115a61.071 61.071 0 0 1 2.542 1.674l-.25.274c-.213-.003-.527.056-.74.054a60.621 60.621 0 0 0-2.52-1.687c.08-.082.26-.226.34-.306l.628-.01zm20.992-10.252-.526 5.071c.35.888.567 1.702.68 2.486l1.093.09c1.21.11 2.413.251 3.604.423l-.044-.044c-1.014-1-1.54-1.574-1.963-2.216-.42-.642-.72-1.318-1.302-2.531-.517-1.08-1.029-2.316-1.542-3.28Z"/></g></svg>