<svg xmlns="http://www.w3.org/2000/svg" xmlns:xlink="http://www.w3.org/1999/xlink" xml:space="preserve" preserveAspectRatio="none" viewBox="0 0 235 284"><path fill="#009" d="M139.1 268.9c-1 6.4-4.3 9.7-8.2 9.7-2.5 0-4-1.8-3.5-4.5l1.4-8.6c.5-3.2 2.5-5.7 5.9-5.7 3.7-.1 5.4 2.5 4.4 9.1zm-13.5 12.7c.5 0 1.8 2.2 6 2.2 8.9 0 13.9-6.4 15.3-14.7 1.8-10.2-3.2-14.8-9.5-14.8-2.9 0-5.1.3-6.7 1.1l2.4-14h-7.4l-7.3 41.9h5.5c.1 0 .9-1.7 1.7-1.7zm78.3-17.9c1.1-6.4-1.2-9.5-8.1-9.5-5.1 0-7.1 2.3-9.1 4.2l.2-3.5h-6.8l-.5 5.2-4 23.1h7.5l2.4-15c.9-5.2 4.4-9.1 7.8-9.1 3.7 0 3.7 2.1 3.1 5.4l-3.3 18.8h7.4l3.4-19.6zm31.1-9.4h-8.7l-10 10.6h-.1l4-23.5h-7.3l-7.3 41.9h7.4l.8-4.2 1.5-9.2c3.9 0 6.1.4 7.8 8.2l1.2 5.2h7.5s-1.9-7.9-3.1-11c-1.3-3.3-2.7-5.4-5.7-6l12-12zM21.1 264.6c5.4-1.2 8.2-5.5 8.9-8.4 1.9-7.8-1.5-13.9-11.5-13.8H7.1L0 283.3h7.4l2.9-16.4c6.8-.2 7.7 1.5 9 9.4l1.2 7h7.7c-.9-4.2-1.5-8.2-2.2-11.4-.8-3.4-2-6-5.3-7.2l.4-.1zm1.5-9.8c-.6 3.6-3.5 6.2-6.9 6.2h-4.4l2.3-12.9h4c4.6 0 5.6 3.1 5 6.7zm33.5 7.8c1.1-6.2-2.2-8.3-8.9-8.3-8.3 0-12 4-12 4l2.6 4.3s2.7-3.2 8.1-3.2c3 0 3.1 1.5 2.8 3.2l-.6 3.7c-10.7-.3-16.2 2-17.5 9.1-1 5.8 3.3 8.5 8.2 8.5 2.5 0 4.5-.4 7-2.5.5 1.4 1.3 2.1 2.3 2.3 1.5.3 4.2 0 5-.6-.1-.9 0-3 .9-8.2l2.1-12.3m-8.8 7.5c-1.2 8.4-2.3 9.3-6.4 9.3-2.8 0-3.8-1.9-3.3-4.4.6-3.4 3.2-4.9 9.7-4.9zm126.6-7.5c1.1-6.2-2.2-8.3-8.9-8.3-8.3 0-12 4-12 4l2.6 4.3s2.7-3.2 8.1-3.2c3 0 3.1 1.5 2.8 3.2l-.6 3.7c-10.7-.3-16.2 2-17.5 9.1-1 5.8 3.3 8.5 8.2 8.5 2.5 0 4.5-.4 7-2.5.5 1.4 1.3 2.1 2.3 2.3 1.5.3 4.2 0 5-.6-.1-.9 0-3 .9-8.2l2.1-12.3m-8.8 7.5c-1.2 8.4-2.3 9.3-6.4 9.3-2.8 0-3.8-1.9-3.3-4.4.6-3.4 3.2-4.9 9.7-4.9zM71 283.8c8.9 0 13.9-6.4 15.3-14.7 1.8-10.2-3.2-14.8-9.5-14.8-2.9 0-5.1.3-6.7 1.1l2.4-14h-7.4l-7.3 41.9h5.6s.8-1.7 1.6-1.7c.6 0 1.9 2.2 6 2.2m3.1-24.1c3.8 0 5.4 2.6 4.5 9.1-.9 6.7-4.3 9.7-8.3 9.7-2.5 0-4-1.8-3.5-4.5l1.4-8.6c.6-3.2 2.5-5.7 5.9-5.7zm15.4 11.7c1.1-10.7 6-17.3 17.4-17.3 8.5 0 11.3 6.5 10.2 13.4-1.8 11.2-6.2 16.4-17.1 16.4-7.1.1-11.3-5.7-10.5-12.5zm19.8-3.3c.5-3 1.1-8.7-4-8.7-3.4 0-6.6 2.3-8 10.4-.9 5 .1 8.9 4 8.9 2.9.1 6.4-2.3 8-10.6z"/><path fill="#F60" d="M181 131.8c3.3 3.3 5.9 6.8 7.8 10.7 6 12.2 3.8 25.7-8.2 37.4-13.7 13.5-37.1 21.7-64.2 21.7s-50.5-8.3-64.2-21.7c-12-11.7-14.2-25.2-8.2-37.4 1.9-3.8 4.5-7.4 7.8-10.7-3.8 3.7-6.9 7-9.6 12.5-5.9 11.7-4 28.5 8.4 40.6 14.1 13.8 36 22.1 66 22.1s52-8.6 65.5-22.1c13.2-13.3 13.7-30.6 8.3-41-2.1-4.3-5.2-8.3-9.4-12.1z"/><g opacity=".85"><linearGradient id="a" x1="52.066" x2="159.734" y1="138.732" y2="177.347" gradientUnits="userSpaceOnUse"><stop offset="0" style="stop-color:#f60"/><stop offset=".152" style="stop-color:#dd5c0e"/><stop offset=".567" style="stop-color:#874430"/><stop offset=".859" style="stop-color:#503446"/><stop offset="1" style="stop-color:#3b2e4f"/></linearGradient><path fill="url(#a)" d="M181 131.8c3.3 3.3 5.9 6.8 7.8 10.7 6 12.2 3.8 25.7-8.2 37.4-13.7 13.5-37.1 21.7-64.2 21.7s-50.5-8.3-64.2-21.7c-12-11.7-14.2-25.2-8.2-37.4 1.9-3.8 4.5-7.4 7.8-10.7-3.8 3.7-6.9 7-9.6 12.5-5.9 11.7-4 28.5 8.4 40.6 14.1 13.8 36 22.1 66 22.1s52-8.6 65.5-22.1c13.2-13.3 13.7-30.6 8.3-41-2.1-4.3-5.2-8.3-9.4-12.1z"/></g><defs><path id="b" d="M159 117.7c-12.7-5.3-27.5-8-42.5-8s-29.8 2.7-42.5 8c-13.9 5.8-24.7 14.3-29.8 24.8-6 12.2-3.8 25.7 8.2 37.4 13.7 13.5 37.1 21.7 64.2 21.7s50.5-8.3 64.2-21.7c12-11.7 14.2-25.2 8.2-37.4-5.3-10.5-16.1-19.1-30-24.8"/></defs><use xlink:href="#b" fill="#F60" overflow="visible"/><linearGradient id="c" x1="26.409" x2="121.958" y1="155.952" y2="139.104" gradientUnits="userSpaceOnUse"><stop offset="0" style="stop-color:#ffe386"/><stop offset="1" style="stop-color:#f60"/></linearGradient><path fill="url(#c)" d="M119 123.6c-2.5-5.1-2-9.8-1.5-13.8h-1c-15 0-29.8 2.7-42.5 8-13.9 5.8-24.7 14.3-29.8 24.8-6 12.2-3.8 25.7 8.2 37.4.8.8 1.7 1.6 2.6 2.4 50.5-3.1 76.8-32.6 64-58.8z"/><path fill="#FFF" fill-rule="evenodd" d="M84 124.4c9.4 2.4 18.3 5.2 27.4 8.6 1.8-5.4 3.7-10.8 5.9-16 2.2 5.3 4.1 10.6 5.9 16 9.1-3.3 17.8-6.1 27.2-8.5-6.6 4.1-12.4 8.4-18.5 13.2 12.4 1.6 24 3.6 36.2 6.3-12.2-.3-23.6.2-35.8.9 8.6 7.3 15.9 14.3 23.9 22.2-10.9-6.2-21.2-11.5-32.6-16.9-2.2 9.5-4.3 19.1-6.3 28.6-2-9.6-3.9-18.7-6.1-28.2-11.4 5.4-21.7 10.5-33 16.5 8-7.9 15.5-14.8 24.1-22-12.2-.8-23.8-.9-36.3-1.1 12.2-2.6 24.3-4.7 36.7-6.3-6.1-4.7-12.1-9.1-18.7-13.3zm33.3 16.7v-21c-2.1 5.8-4 11.8-5.8 17.7 1.9 1.1 3.8 2.2 5.8 3.3m-27.8-14.4c7.5 3.3 14.8 7 22 11-1.8.2-3.6.4-5.3.6-5.5-4-11-7.9-16.7-11.6m27.8 14.4c14.5 0 28.9.7 43.4 2.2-12.6-2.3-24.9-4-37.6-5.5-2 1-3.9 2.2-5.8 3.3m27.7-14.4c-7.5 3.3-14.9 7-22 11-.3-1-.6-2-.9-2.9 7.5-3 15.2-5.7 22.9-8.1m-28.5 14.4c.3 10.2.7 20.9.8 30.8 1.9-9.1 3.8-18.2 5.9-27.2-2-1.3-4.7-2.5-6.7-3.6zm32.7 20.9c-8.4-6.1-17.1-11.9-26-17.4 1.8-.1 3.6-.3 5.4-.4 7.1 5.7 13.9 11.7 20.6 17.8m-31.9-20.9c-14.6.2-26 .9-40.2 2.1 12.3 0 21.8.5 34.3 1.5 1.9-1.3 3.9-2.5 5.9-3.6M85.4 162c8.5-6.1 17.1-11.9 26-17.4.3 1.1.5 2.3.8 3.4-9.2 4.4-18.1 9.1-26.8 14m33.3 36.8c-.4.3-1 .6-1.4 1-.4-.3-1-.6-1.5-1V187c.4-.3 1-.6 1.5-.9.4.3 1 .6 1.4.9zm-70.2-28.6c-.2.4-.5.9-.7 1.3.4.2 1.3.4 1.6.6 4.1-2.2 8.2-4.4 12.3-6.5.2-.6.2-1 .4-1.4-.4-.1-.8-.2-1.3-.3-4 2-8.1 4.1-12.3 6.3m-3-24.2c-.4.3-.8.6-1.1.9l.6.9c3.9-.6 7.7-1 11.6-1.4.4-.3.8-.8 1.1-1.1l-.7-.7c-3.8.4-7.6.8-11.5 1.4zm14.8-19.6c-.4.2-.8.3-1.2.5 0 .2.1.7.1.9 2.8.4 5.7.9 8.5 1.4.4-.2.9-.5 1.2-.7-.1-.2-.1-.5-.1-.7-2.8-.5-5.6-1-8.5-1.4zm86.9-12h1.1l.4.4c-1.5.9-3 1.9-4.4 2.9h-1.1c-.1-.2-.3-.3-.4-.5 1.4-.9 2.9-1.9 4.4-2.8zm-31-4.1c.3-.1.5-.2.8-.2.3.1.6.2.8.2v3.5l-.9.3c-.3-.1-.6-.2-.8-.3.1-1.2.1-2.4.1-3.5zm-31.1 4.6c.1-.1.5-.4.6-.5h1.1c1.5.9 3 1.9 4.4 2.9-.1.2-.3.3-.4.5-.4 0-.9.1-1.3.1-1.4-1.1-2.9-2.1-4.4-3zm-9 76.7c-.6.1-1.3.1-1.9.3-.1-.4-.4-.8-.5-1.2 2.9-3.4 5.8-6.9 8.8-10.3.6-.1 1.3-.2 1.9-.4.1.4.4 1 .6 1.3-3.1 3.4-6 6.8-8.9 10.3zM185 170.2c.2.4.5.9.7 1.3-.4.2-1.3.4-1.6.6-4.1-2.2-8.2-4.4-12.3-6.5-.2-.6-.3-1-.4-1.4.4-.1.8-.2 1.3-.3 4 2 8.2 4.1 12.3 6.3m3-24.2c.4.3.8.6 1.1.9l-.6.9c-3.9-.6-7.7-1-11.6-1.4-.4-.3-.8-.8-1.1-1.1l.7-.7c3.8.4 7.7.8 11.5 1.4zm-14.8-19.6c.4.2.8.3 1.2.5 0 .2-.1.7-.1.9-2.8.4-5.7.9-8.5 1.4-.4-.2-.9-.5-1.2-.7.1-.2.1-.5.2-.7 2.7-.5 5.6-1 8.4-1.4zm-15.7 65.2c.5.1 1.3.2 1.9.3.2-.4.4-.8.5-1.2-2.9-3.4-5.8-6.9-8.8-10.3-.6-.1-1.3-.2-1.9-.4-.1.4-.4 1-.6 1.3 3.1 3.4 6 6.8 8.9 10.3z" clip-rule="evenodd"/><linearGradient id="d" x1="44.376" x2="189.165" y1="154.414" y2="154.414" gradientUnits="userSpaceOnUse"><stop offset="0" style="stop-color:#ca6500"/><stop offset="1" style="stop-color:#7c0000"/></linearGradient><path fill="url(#d)" fill-rule="evenodd" d="M111.4 133.4c-8.8-3.2-17.4-6-26.4-8.3l-.9-.6c9.4 2.4 18.3 5.2 27.4 8.6 1.8-5.4 3.7-10.8 5.9-16 2.2 5.3 4.1 10.6 5.9 16 9.1-3.3 17.8-6.1 27.2-8.5l-.9.6c-9.1 2.3-17.5 5-26.3 8.2-1.8-5.4-3.7-10.7-5.9-16-2.3 5.2-4.2 10.6-6 16zm-9.2 11.9c-8.4 7.2-16.2 14.2-24.1 22 .3-.2 1-.6 1.3-.7 7.7-7.6 14.5-13.8 22.8-20.8v-.5zm0 0v.4zm-.3.2c-.1.1-.2.1-.3.2-1.8 1.1-3.5 2.1-5.3 3.2l.1.3c1.9-1.2 3.9-2.3 5.8-3.5v-.4c-.1 0-.2.1-.3.2zm-5.8-3.3c-.2 0-.4 0-.5.1-1.6.2-3.2.3-4.8.5-5.4-4.1-10.9-8-16.7-11.6v.4c5.7 3.6 11.3 7.5 16.7 11.6 1.8-.2 3.6-.4 5.3-.6 1.7 1 3.4 1.9 5.1 2.9h.7c-1.9-1.1-3.9-2.3-5.8-3.3m-26.1 24.7c8.8-4.9 17.7-9.6 26.8-14v-.5c-9.1 4.4-18 9-26.8 14v.5m37.8-17.9c-2.1 8.9-4.1 18.2-5.9 27.2v.4c1.9-9.1 3.8-18.1 5.9-27.2 6.1 3.7 14.8 9.5 26 17.5v-.5c-8.5-6.1-17.1-11.9-26-17.4zm9.4.7-.4-.3v.6c8.3 7 14.9 13.3 22.6 20.9.3.2 1 .6 1.3.7-8.1-8-15.3-14.9-23.5-21.9zm-30.3-7.4c-12.3 1.6-24.2 3.6-36.3 6.2h1.9c11.6-2.5 23-4.4 34.8-5.9v-.4l-.4.1zm9.1 6.7c-11.4-1-22.8-1.6-34.2-1.5v.4c11.3-.1 22.5.5 33.8 1.4 0 0 .2-.1.4-.3m20.4-6.4c11.8 1.5 22.6 3.4 34.2 5.8h2c-12.2-2.6-23.8-4.7-36.2-6.3v.5zm-13.9 2.9h-.6c.1.1.2.1.3.2.1.1.3.1.4.2 14.3 0 28.5.8 42.7 2.2v-.4c-14.4-1.4-28.9-2.2-43.4-2.2m5.7-3.3c.2 0 .3 0 .5.1 7-3.9 14.2-7.5 21.5-10.7v-.4c-7.5 3.3-14.8 7-22 11m0 0c-.3-1-.6-2-.9-2.9v.4c.3.7.5 1.6.9 2.5-.1 0 0 0 0 0m-62.2 26.8c.3.1.8.2 1.1.3.1-.2.1-.5.2-.7-.4-.1-.8-.2-1.3-.3-4.1 2.1-8.3 4.2-12.4 6.4-.2.4-.5.9-.7 1.3.1 0 .2.1.3.1.1-.2.3-.5.4-.7 4.2-2.3 8.3-4.3 12.4-6.4zm-3.7-19.5.4.4c.1-.1.1-.2.2-.2l-.7-.7c-3.8.4-7.7.9-11.5 1.4-.4.3-.8.6-1.1.9.1.2.2.2.3.4.2-.2.8-.6 1-.7 3.8-.6 7.5-1.1 11.4-1.5zm3.2-18.1c2.8.4 8.6 1.6 8.6 1.5-.1-.2-.1-.5-.1-.7-2.8-.5-5.7-1-8.5-1.4-.4.2-.8.3-1.2.5 0 .3 0 .4.1.6.3-.1.8-.3 1.1-.5zm88-12c.2 0 .3-.1.4-.2l-.4-.4h-1.1c-1.5.9-3 1.9-4.4 2.9.1.1.2.2.3.4 1.3-.9 2.7-1.8 4.1-2.7h1.1m-32.1-4.1c.3-.1.5-.2.8-.2.3.1.6.2.8.2v-.6c-.3-.1-.6-.2-.8-.2-.3.1-.5.2-.8.2v.6m-29.4 4c1.4.9 2.7 1.8 4.1 2.8.1-.1.2-.2.3-.4-1.5-1-2.9-2-4.4-2.9h-1.1c-.1.1-.5.4-.6.5.1.1.2.2.4.2 0 0 .2-.2.3-.2h1zm-2.6 65.6c.2.2.3.7.5 1l.2-.2c-.1-.2-.4-.9-.6-1.3-.6.1-1.3.2-1.9.4-3 3.4-5.9 6.8-8.8 10.3 0 .2.2.3.2.5 1.9-2.2 5.9-7 8.8-10.3.5-.2 1.1-.3 1.6-.4m100.8-9.6c.1.2.3.5.4.7.1 0 .2-.1.3-.1-.2-.4-.5-.9-.7-1.3-4.1-2.2-8.2-4.3-12.4-6.4-.4.1-.8.2-1.3.3.1.2.2.5.2.7.3-.1.8-.2 1.1-.3 4.2 2.2 8.3 4.2 12.4 6.4zm2.9-24.4c.2.2.8.6 1 .7.1-.1.1-.2.3-.4-.4-.3-.8-.6-1.1-.9-3.8-.6-7.7-1-11.5-1.4l-.7.7c.1.1.2.1.2.2l.4-.4 11.4 1.5zm-13.6-19c0-.2 0-.3.1-.6-.4-.2-.8-.3-1.2-.5-2.8.4-5.7.9-8.5 1.4 0 .2-.1.5-.2.7.1 0 5.8-1.1 8.6-1.5.4.2.9.4 1.2.5m-23.4 53.3c2.9 3.3 6.9 8.1 8.8 10.3.1-.2.1-.3.2-.5-2.9-3.4-5.8-6.9-8.8-10.3-.6-.1-1.3-.2-1.9-.4-.2.4-.5 1.1-.6 1.3 0 .1.1.1.2.2.2-.3.4-.8.5-1 .6.2 1.2.3 1.6.4zm-32.5 6.6.3 11.4V187c-.4-.3-1-.6-1.4-.9-.4.3-1 .6-1.5.9v11.8l.3-11.4c.3-.2.9-.5 1.2-.7.3.3.8.5 1.1.7zM117 184c20.7 0 63.4-10.6 56.9-39.2-5.1-23-37-29.8-57-29.8s-51.8 6.8-57 29.8C53.6 173.3 96.3 184 117 184m0-1.8c19.9 0 60.9-10.1 54.9-37.6-4.8-22.2-35.6-28.8-54.9-28.8-19.2 0-50 6.6-54.9 28.8-6 27.4 35 37.6 54.9 37.6" clip-rule="evenodd"/><path fill="#FFF" fill-rule="evenodd" d="M60.2 145.4c5.1-23 35.7-29.9 57-29.9 21.2 0 51.8 6.9 57 29.9 6.4 28.6-36.3 39.2-57 39.2-20.7.1-63.4-10.6-57-39.2zm2.1-.1c4.8-22.2 35.6-28.8 54.9-28.8 19.2 0 50 6.6 54.9 28.8 6 27.4-35 37.6-54.9 37.6s-60.9-10.2-54.9-37.6z" clip-rule="evenodd"/><path fill="#3B2E4F" d="m185.1 150.2-9.3-1.4-1.2-.3c-1.6-.3-4.6-2-5.9-4-1.3-2-4.4-5.5-6.2-7.6-2.4-3-7.8-5.7-8.6-7-.8-1.2-2.1-3.4-2.5-4.3-.4-.9-1.2-1.6-2.6-1.5-1.4.1-1.5.6-2.7.6-1.2.1-2.9-.2-2.9-.2-.7-.1-1.2-.2-1.8-.2-.7 1.2-1.9 2-4.7 2-.2 0-.4 0-.5-.1.3.6 2.9 1 3.3 1 .4 0 2.9.7 3.4.8 1.1.2.9-.2 2.7.9 3 1.7 7.4 6.5 8.3 10.6.5 2.3 4.4 6 4.9 8.1-5.2-.4-12.2-3.8-12.2-3.8l-.9-.4s-3.1-1.6-7.9-1.8c-9-.8-12.4-2-13.3-2.3-1.9-.6-1.6-.9-3.1-1h-.8c-.2.3-.4.7-.8 1-1.7 1.6-2.8 2.8-4.2 4.9-.4.6-1 .9-1.8 1.2 1.7-.4 5.1-1.3 5.1-1.3 3.2-.4 8 1 8 1 1.8.4 4.7 1.5 4.7 1.5s12.8 3.9 15.9 6.2c2.1 1.5 12.7 5.5 15.5 6.5 2.8 1 9.7 4.7 9.7 4.7 1.8 1.5 12 6 14.9 6.9 3.6-6.3 4.9-12.7 3.9-19.2l-6.4-1.5z" opacity=".66"/><path fill="#3B2E4F" d="M180.4 139.5c-.9 0-1.9.2-1.9.2l-2.5 1.5c-.3.5.8 1.2.8 1.2s3.2.2 3.2 1c2.4 1.3 7.4 1.4 10 1.5-.3-.9-.7-1.7-1.1-2.6-.4-.8-.9-1.6-1.3-2.5-.2.2-2.2-.4-7.2-.3zm-19 31.4s-.6-.8-3.9-.8c-2.1 0 .9 4.9.9 4.9 1.9 1.3 8.6 3.2 10 3.4 1.4.2 6.1 1.6 6.1 1.6s2.4.3 5 1.1c.4-.4.8-.7 1.2-1.1 1.4-1.4 2.8-2.9 3.9-4.3-5.7-.1-13.7-.2-19.8-3.4-.7-2-3.4-1.4-3.4-1.4z" opacity=".66"/><path fill="#FFBF5C" d="M144.2 81.8s-1.9-1.7-1.9-1.8c-.1-.6.5-1.4.7-2.4-.2-.1-.4-.2-.6-.2-.5-1.7-.8-4.9 0-6.6.4-.8.9-1.9.6-2.9-1.6-5.3-4.6-10-6.8-15-.6-1.4-.5-2.4-.6-3.8-1.7-1.9-3.6-6.7-4.6-9.7-2 5-3.3 10.6-3.3 12 0 5.6 5.6 8.3 3.7 17.5-.4 1.8-1.1 4.3-1.7 6.8 1.2 6.5 1.2 11.1 2.9 18.6 2.4 2.4 4.4 5.5 5.5 9.3.7 2.4 2.7 8.1 5.3 8.9 1.6.5-5.5 1.8-7.5-.7-1.9-2.4-5.3-4.3-6.8-6.9-1.3-2-3.2-6.4-4.4-8.5l-1.5 7.9c2.1 8.5.8 10.3-1 17.2-.8 3-6.8-10.9-6.8-12 0-3-.2-4.1-.9-6.8-1.3-2.4-1.1-5.9-.9-8.6.3-4.4.3-12.7.4-14.9-1.5-3.7-5.4-10.4-5.8-14.2-.6-5.9.4-11.9-.4-17.7-1 2.9-2.1 6.7-4.4 8.9-3.4 3.4-6.6 7.1-9.6 10.8-1.1 1.5-.1 2.3-1.9 4.7-1.7 2.4-.8 1.3-1.1 3.6-.1.4-.3.7-.4.8-.9.8-1.9 1.4-3.2.9-2.5-1.3-2.7-3.1-2.9-5.5-.3-4.6 3.1-4.8 5-7.6 3.8-5.5 5.7-14.6 9.7-18.7.3-.8 1.2-3.8 3-8.1.1-5.4 1.4-10.3 7-12.5 2.3-.9 5.3-1.1 5.4-4.3 0-.4-.1-1.3-.3-1.7-.9-.7-1.6-.8-2-1.3-.9-1.2-1.7-8.6-1.6-9.1 1.3-6.3 4.3-8.5 8.2-8.3 4.5.2 8.1 2.4 7.9 8.5-.2 4.9-5.2 11.2 2.4 13.6 2.9.9 3.5.3 5.9 2.8 2.8 2.8 3.5 7.8 3.9 12.4l2.8 6.6c5.2 8.8 3.3 11.6 5.3 20.5.5 2.3 1.4 4.4 1.5 9.4.4 2.6-1.5 8-4.2 8.1z"/><linearGradient id="e" x1="91.609" x2="146.935" y1="50.664" y2="105.991" gradientUnits="userSpaceOnUse"><stop offset="0" style="stop-color:#009"/><stop offset="1" style="stop-color:#00007c"/></linearGradient><path fill="url(#e)" d="M89.8 75.1c.2-2.3-.1-2.1 1.4-4.3 1.4-2 .7-3 1.9-4.8 3-3.8 5.9-7.6 9.2-11 2.3-2.3 5.3-10 6.1-12.7.1-.4.4-.6.4-.3.5 5.2 1.2 9.5 1 14.6-.4 10.7-.1 9.6 4.4 19.6.4-4 1.3-9.8 3.7-11.8-2.7 10.4-2.9 25.2-3.2 29.8-.1 2.3-.8 6 .3 8.1.4 1.4.4 3.6.4 5.3 0 1 .1 18.3.1 18.3l-1.6 8c-.6 2.3-3.6 6.2-5.8 7.4-.7.4-2.3 1.3-2.3 2 0 1.3 8.2 3.6 10 .8 1.4-2.2 2.5-3.4 4.2-4.9 2.6-2.5-.3-5 .1-8.3.6-5.8 3.1-10.8 3.9-16.3.5-3.3.4-6.2-1.1-10l1.1-10.5c1.2 1.8 2.3 4.7 3.5 7.1 2 4.2 2.1 4.7 5.6 8.1 1.2 1.2 2.4 2.6 3.3 4 1.7 2.6 2.8 5.2 2.6 8.4-1.2 2.2-1.7 2.1-3.3 3.4.1.1-.4 1.3 1.1 1.3 5.3 0 4.6-2.8 6.7-6.4 1.3-2.3 5-5.9.9-7.1-1.3-.4-2.5-1.2-3.2-2.4-2.8-4.7-2.9-4.6-4.4-9-.9-2.6-2.7-4.8-4.8-6.5-1.3-3-1.8-5.1-2.2-8.2-.6-4.3-1-7.3-1.7-11.7 2.1-8.2 3.1-9.9-.4-17.8-.8-1.8-1.3-3.7-1.3-5.9 0-2.6 1.4-8.5 2.8-11.6.5-1.2 1.2-2.4 2.1-2.8.9 3.2 3.8 9.7 5.5 11.3.1 1.3.1 2.6.6 3.8 2.2 5.2 5.2 9.9 6.8 15.3.5 1.9-.2 2.8-.7 4.3-.2.7-.2 2.8.1 4.4l.7.4c-.1.5-.5 1.8-.7 2.4.1.7 1 1.2 1 1.2 1.2-.3 2.9-4.5 2.8-6.3-.2-5.2-1.3-7.6-1.6-9.1-1.7-8.9-.7-11.3-5.7-19.9l-2.8-7c-.3-3.6-1.8-11.7-6.4-13.2-.8-.2-1.5-.3-2.7-.7-6-1.9-6-6.5-4.3-11.6 1.5-4.5 1.6-9.8-4.9-10.3-4.1-.3-5.3 2.9-6.2 6.6 0 .4.2 6.4 1.1 7.7 1.7 1.3 2.7.9 2.6 4.2-.1 2.7-1.8 4.3-4.2 5.2-3.8 1.3-5.8 2.1-7.1 6.1-.4 1.2-.8 3-.8 5.7v.2c-1.1 2.7-2.5 5.8-3.3 8.7-4.7 4.7-7.1 15.5-11.8 20-3.2 3-4.1 3.2-3 7.9.1.5 1.6 1.7 2 1.9.2-.1 1.5-.8 1.5-1.1z"/></svg>