<svg width="512" height="512" fill="none" xmlns="http://www.w3.org/2000/svg"><path fill="#fff" d="M0 0h512v512H0z"/><path fill-rule="evenodd" clip-rule="evenodd" d="M335.424 238.101a52.365 52.365 0 0 1 32.375-48.515 52.38 52.38 0 0 1 20.1-3.963 52.365 52.365 0 0 1 37.143 15.335 52.367 52.367 0 0 1 15.335 37.143v124.098c0 19.859 16.306 35.454 35.455 35.454 19.858 0 35.458-16.306 35.458-35.454V238.101C512.004 169.313 456.691 114 387.899 114c-34.037 0-65.239 14.182-87.933 36.875 21.983 22.694 35.455 53.186 35.455 87.226h.003Z" fill="#20D1CC"/><path fill-rule="evenodd" clip-rule="evenodd" d="M264.509 238.101c0-34.04 13.475-64.532 35.458-87.226C277.273 128.182 246.075 114 212.034 114c-34.747 0-65.949 14.182-87.932 36.875 21.983 21.984 35.454 53.186 35.454 86.516a52.362 52.362 0 0 1 32.379-48.521 52.352 52.352 0 0 1 20.103-3.961c29.074.71 52.474 24.111 52.474 53.188l-.003.004Z" fill="#05D0E0"/><path fill-rule="evenodd" clip-rule="evenodd" d="M335.425 362.198V238.101c0-34.041-13.475-64.532-35.454-87.226-21.987 22.694-35.462 53.185-35.462 87.226v124.097c0 9.93 4.256 18.438 10.64 25.529 6.38 6.384 15.599 10.636 25.528 10.636 19.149-.71 34.744-17.016 34.744-36.165h.004Z" fill="#01A9B2"/><path fill-rule="evenodd" clip-rule="evenodd" d="M35.458 114C15.598 114 .003 130.31.003 149.454c0 19.859 16.306 35.458 35.455 35.458a52.363 52.363 0 0 1 52.474 52.479c0-34.041 13.475-64.532 35.458-86.516C101.407 128.182 70.209 114 35.458 114Z" fill="#0282C9"/><path fill-rule="evenodd" clip-rule="evenodd" d="M87.936 237.39v124.098c0 19.858 16.306 35.458 35.454 35.458 6.384 0 12.058-1.422 17.017-4.257 11.351-6.38 18.438-17.727 18.438-31.201V238.101c0-34.041-13.471-64.532-35.455-86.516a121.165 121.165 0 0 0-35.454 85.805Z" fill="#016BB1"/><path d="M35.458 184.916c19.583 0 35.458-15.875 35.458-35.458S55.041 114 35.458 114 0 129.875 0 149.458s15.875 35.458 35.458 35.458Z" fill="#06429E"/><path d="M123.391 397.656c19.583 0 35.458-15.875 35.458-35.458s-15.875-35.458-35.458-35.458-35.458 15.875-35.458 35.458 15.875 35.458 35.458 35.458Z" fill="#01569A"/><path d="M299.967 397.656c19.583 0 35.458-15.875 35.458-35.458s-15.875-35.458-35.458-35.458-35.458 15.875-35.458 35.458 15.875 35.458 35.458 35.458Z" fill="#008C9D"/><path d="M476.542 397.656c19.583 0 35.458-15.875 35.458-35.458s-15.875-35.458-35.458-35.458-35.458 15.875-35.458 35.458 15.875 35.458 35.458 35.458Z" fill="#03ABA3"/></svg>