<svg xmlns="http://www.w3.org/2000/svg" width="512" height="512" fill="none" viewBox="0 0 512 512"><path fill="#fff" d="M264.377 237.688v107.427c6.16-13.552 19.958-22.915 35.727-22.915s29.321 9.363 35.727 22.915V237.442c0-33.756-13.552-64.554-35.727-86.73-22.175 22.668-35.727 53.221-35.727 86.976M511.754 361.624c0-19.712-16.016-35.727-35.727-35.727S440.3 341.912 440.3 361.624c0 16.261 10.842 29.813 25.625 34.248 3.203.985 6.652 1.478 10.102 1.478 19.711 0 35.727-16.015 35.727-35.726M88.209 237.441v107.673c6.16-13.305 19.957-22.668 35.726-22.668s29.321 9.363 35.727 22.914V237.441c0-33.755-13.798-64.308-35.727-86.483-21.929 22.175-35.48 52.728-35.726 86.483"/><path fill="#fff" d="M300.104 326.143c-19.711 0-35.727 16.015-35.727 35.726 0 3.696.493 7.146 1.725 10.595.247.986.739 2.218 1.232 3.203 0 .247.247.246.247.493.492.985.739 1.725 1.232 2.71.246.247.246.493.492.739l1.479 2.218c.246.246.246.493.492.493.493.739.986 1.478 1.725 2.217.739.986 1.478 1.725 2.218 2.464 5.667 5.667 13.058 9.363 21.682 10.348 1.232 0 2.464.247 3.696.247s2.217 0 3.203-.247h.986c.739 0 1.478-.246 2.463-.246.247 0 .74 0 .986-.246l2.957-.739c.985-.247 1.971-.74 2.956-.986.247-.246.74-.246.986-.493.493-.246 1.232-.493 1.725-.739s.739-.493 1.232-.739c.492-.247.985-.493 1.478-.986.493-.246.739-.492 1.232-.739.493-.246.985-.739 1.478-.985.739-.493 1.232-.986 1.971-1.725l1.232-1.232c.493-.493.74-.986 1.232-1.232.247-.246.493-.493.739-.986.493-.492.74-.985 1.232-1.478.247-.246.493-.493.74-.986.492-.492.739-.985 1.232-1.724.246-.247.246-.493.492-.739 1.232-2.218 2.464-4.436 3.203-6.899v-.247l.74-2.217c0-.247 0-.493.246-.493.246-.739.246-1.478.493-2.464v-.493c.246-1.725.493-3.696.493-5.667-.74-19.711-16.755-35.726-36.22-35.726M159.662 361.624c0-19.712-16.016-35.727-35.727-35.727s-35.48 15.769-35.726 35.48v.247c0 6.159 1.478 11.826 4.188 17.001.986 1.971 2.464 3.942 3.942 5.667s2.957 3.449 4.928 4.927c1.725 1.479 3.696 2.711 5.667 3.943.986.492 1.971.985 3.203 1.478a36.2 36.2 0 0 0 13.798 2.71h.493c.986 0 1.971 0 2.957-.246h.739c.985 0 1.971-.246 2.956-.493h.247l2.957-.739h.246c.986-.246 1.971-.739 3.203-1.232h.246c1.972-.986 3.943-1.971 5.914-3.203 9.363-6.653 15.769-17.494 15.769-29.813M297.394 148.248C275.218 127.059 245.159 114 211.896 114c-33.016 0-63.076 13.059-85.498 34.248 19.712 19.958 32.031 45.583 35.727 73.178 6.899-20.943 26.61-35.973 49.771-35.973s42.872 15.277 49.771 35.973c3.449-27.595 15.769-52.974 35.727-73.178M71.453 149.727c0-19.712-16.015-35.727-35.726-35.727C16.015 114 0 130.015 0 149.727s16.015 35.726 35.727 35.726c19.71-.246 35.726-16.015 35.726-35.726M440.546 345.36c6.16-13.551 19.958-22.914 35.727-22.914s29.321 9.363 35.727 22.914V237.934c0-68.251-55.438-123.688-123.688-123.688-33.017 0-63.076 13.058-85.498 34.248 19.711 20.204 32.031 45.582 35.727 73.178 6.899-20.943 26.61-35.973 49.771-35.973 28.827 0 52.481 23.407 52.481 52.481v107.18z"/><path fill="#fff" d="M121.224 148.247c-17.74-17-40.408-28.827-65.786-32.769 11.827 6.898 19.711 19.464 19.711 34.001 0 17.248-11.334 32.031-26.857 37.205 17.494 4.435 31.538 17.494 37.205 34.495 3.696-27.349 16.016-52.727 35.727-72.932"/></svg>