<svg xmlns="http://www.w3.org/2000/svg" width="640" height="360"><g fill="none" fill-rule="evenodd" transform="translate(80 140)"><path fill="#20D1CC" d="M91.015 33.183a14 14 0 0 1 14.031-14.032 14 14 0 0 1 14.032 14.032v33.182c0 5.31 4.36 9.48 9.48 9.48 5.31 0 9.481-4.36 9.481-9.48V33.183C138.23 14.79 123.44 0 105.046 0c-9.101 0-17.444 3.792-23.512 9.86 5.878 6.068 9.48 14.221 9.48 23.323"/><path fill="#05D0E0" d="M72.053 33.183c0-9.102 3.603-17.255 9.481-23.323C75.466 3.792 67.124 0 58.022 0 48.731 0 40.388 3.792 34.51 9.86c5.878 5.878 9.48 14.221 9.48 23.133A14 14 0 0 1 58.023 18.96c7.774.19 14.031 6.447 14.031 14.222"/><path fill="#01A9B2" d="M91.015 66.365V33.183c0-9.102-3.603-17.255-9.48-23.323-5.879 6.068-9.482 14.221-9.482 23.323v33.182c0 2.655 1.138 4.93 2.845 6.826 1.706 1.707 4.171 2.844 6.826 2.844 5.12-.19 9.29-4.55 9.29-9.67"/><path fill="#0282C9" d="M10.808 0c-5.31 0-9.48 4.361-9.48 9.48 0 5.31 4.36 9.481 9.48 9.481a14 14 0 0 1 14.031 14.032c0-9.102 3.603-17.255 9.481-23.133C28.442 3.792 20.1 0 10.808 0"/><path fill="#016BB1" d="M24.84 32.993v33.182c0 5.31 4.36 9.481 9.48 9.481q2.56 0 4.55-1.138c3.035-1.706 4.93-4.74 4.93-8.343V33.183c0-9.102-3.602-17.255-9.48-23.133a32.4 32.4 0 0 0-9.48 22.943"/><circle cx="10.808" cy="9.481" r="9.481" fill="#06429E"/><circle cx="34.32" cy="66.365" r="9.481" fill="#01569A"/><circle cx="81.534" cy="66.365" r="9.481" fill="#008C9D"/><circle cx="128.748" cy="66.365" r="9.481" fill="#03ABA3"/><g fill="#06429E"><path d="M191.51 29.58c-3.413 0-6.826 1.516-8.532 5.309-1.138-3.982-4.362-5.31-8.154-5.31-2.844 0-5.688 1.138-7.205 3.982v-1.517a2.104 2.104 0 0 0-2.086-2.085 2.104 2.104 0 0 0-2.086 2.085v20.668c0 1.138.948 2.086 2.086 2.086a2.104 2.104 0 0 0 2.086-2.086V40.387c0-3.981 2.654-7.015 6.636-7.015 4.361 0 6.637 3.034 6.637 7.015v12.325c0 1.138.948 2.086 2.086 2.086a2.104 2.104 0 0 0 2.085-2.086V40.387c0-3.981 2.655-7.015 6.637-7.015 4.36 0 6.447 2.844 6.447 7.015v12.325c0 1.138.948 2.086 2.085 2.086a2.104 2.104 0 0 0 2.086-2.086V40.387c-.569-6.636-4.171-10.808-10.808-10.808m70.726 0c-3.413 0-6.826 1.516-8.532 5.309-1.138-3.982-4.361-5.31-8.154-5.31-2.844 0-5.688 1.138-7.205 3.982v-1.517a2.104 2.104 0 0 0-2.086-2.085 2.104 2.104 0 0 0-2.086 2.085v20.668c0 1.138.948 2.086 2.086 2.086a2.104 2.104 0 0 0 2.086-2.086V40.387c0-3.981 2.654-7.015 6.636-7.015 4.362 0 6.637 3.034 6.637 7.015v12.325c0 1.138.948 2.086 2.086 2.086a2.104 2.104 0 0 0 2.085-2.086V40.387c0-3.981 2.655-7.015 6.637-7.015 4.361 0 6.447 2.844 6.447 7.015v12.325c0 1.138.948 2.086 2.086 2.086a2.104 2.104 0 0 0 2.085-2.086V40.387c-.569-6.636-3.982-10.808-10.808-10.808"/><path fill-rule="nonzero" d="M228.485 43.8c.948 0 1.896-.758 1.896-1.896 0-8.532-5.31-12.514-12.325-12.514-7.395 0-12.704 5.309-12.704 12.704 0 7.774 5.31 12.704 12.894 12.704 3.602 0 7.584-1.327 10.05-3.792.379-.38.568-.759.568-1.327 0-.949-.758-1.897-1.896-1.897-.569 0-.948.19-1.327.57-1.707 1.706-4.74 2.654-7.395 2.654-4.74 0-8.343-2.844-8.912-7.206zm-18.961-3.413c.758-4.74 4.36-7.205 8.532-7.205 4.74 0 7.964 2.465 8.154 7.205zM328.79 43.8c.948 0 1.896-.758 1.896-1.896 0-8.532-5.31-12.514-12.325-12.514-7.395 0-12.704 5.309-12.704 12.704 0 7.774 5.31 12.704 12.894 12.704 3.602 0 7.584-1.327 10.05-3.792.379-.38.568-.759.568-1.327 0-.949-.758-1.897-1.896-1.897-.569 0-.948.19-1.327.57-1.707 1.706-4.74 2.654-7.395 2.654-4.74 0-8.343-2.844-8.912-7.206zm-18.962-3.413c.759-4.74 4.362-7.205 8.533-7.205 4.74 0 7.964 2.465 8.154 7.205zM426.822 43.8c.948 0 1.896-.758 1.896-1.896 0-8.532-5.31-12.514-12.325-12.514-7.395 0-12.704 5.309-12.704 12.704 0 7.774 5.309 12.704 12.893 12.704 3.603 0 7.585-1.327 10.05-3.792.38-.38.569-.759.569-1.327 0-.949-.759-1.897-1.896-1.897-.57 0-.948.19-1.328.57-1.706 1.706-4.74 2.654-7.395 2.654-4.74 0-8.343-2.844-8.912-7.206zm-18.962-3.413c.759-4.74 4.361-7.205 8.533-7.205 4.74 0 7.964 2.465 8.153 7.205zM290.678 29.58c-3.413 0-7.395 1.517-9.101 4.74V21.806a2.104 2.104 0 0 0-2.086-2.086 2.104 2.104 0 0 0-2.086 2.086v30.907c0 1.138.948 2.086 2.086 2.086a2.104 2.104 0 0 0 2.086-2.086v-2.654c1.896 3.223 5.499 4.55 9.101 4.55 7.016 0 12.515-4.55 12.515-12.514 0-8.153-5.499-12.515-12.515-12.515m-.19 21.427c-4.74 0-8.532-3.603-8.532-8.912s3.792-8.912 8.533-8.912 8.532 3.034 8.532 8.912c0 5.688-3.792 8.912-8.532 8.912m78.122-21.427c-3.603 0-7.205 1.517-9.102 4.551v-2.654a2.104 2.104 0 0 0-2.085-2.086 2.104 2.104 0 0 0-2.086 2.086V63.9c0 1.137.948 2.085 2.086 2.085a2.104 2.104 0 0 0 2.085-2.085V49.868c1.707 3.224 5.689 4.74 9.102 4.74 7.016 0 12.325-4.36 12.325-12.704 0-7.774-5.31-12.325-12.325-12.325m-.19 21.427c-4.74 0-8.532-3.603-8.532-8.912s3.792-8.912 8.532-8.912 8.533 3.224 8.533 8.722c0 6.068-3.792 9.102-8.533 9.102"/><path d="M350.976 30.527c-1.328-.568-2.655-.948-4.361-.948-3.034 0-6.068 1.138-7.585 3.793v-1.707c0-1.138-.948-1.896-1.896-1.896-1.138 0-1.896.948-1.896 1.896v21.237c0 1.138.948 2.086 2.086 2.086a2.104 2.104 0 0 0 2.085-2.086V40.956c0-4.55 2.655-7.205 7.206-7.205 1.137 0 2.085.19 3.033.569.19.19.57.19.759.19 1.138 0 1.896-.949 1.896-1.897-.19-1.137-.758-1.706-1.327-2.086m50.437 0c-1.327-.568-2.654-.948-4.36-.948-3.035 0-6.069 1.138-7.586 3.793v-1.707c0-1.138-.948-1.896-1.896-1.896-1.137 0-1.896.948-1.896 1.896v21.237c0 1.138.948 2.086 2.086 2.086a2.104 2.104 0 0 0 2.086-2.086V40.956c0-4.55 2.654-7.205 7.205-7.205 1.138 0 2.086.19 3.034.569.19.19.569.19.758.19 1.138 0 1.896-.949 1.896-1.897-.19-1.137-.758-1.706-1.327-2.086m40.767 9.481c-3.034-.379-6.067-.948-6.067-3.413 0-2.654 2.654-3.982 6.067-3.982 1.517 0 4.172.38 5.5.948l1.137.57c.19.189.569.189.758.189.948 0 1.896-.759 1.896-1.896 0-.759-.568-1.517-1.137-1.707-.38-.19-.759-.38-1.138-.38-2.275-.758-4.74-1.137-6.826-1.137-4.74 0-10.05 2.086-10.05 7.395 0 5.12 5.12 6.257 9.86 7.016 3.793.38 6.826 1.138 6.826 3.982-.19 3.223-3.982 3.792-6.447 3.792-2.275 0-4.55-.569-6.446-1.517-.19-.19-.57-.19-.948-.19-1.138 0-1.897.949-1.897 1.897 0 .758.38 1.517 1.138 1.706 2.465 1.138 4.93 1.707 7.964 1.707 5.499 0 10.239-2.276 10.429-7.395 0-6.068-6.068-6.826-10.619-7.585m23.892 0c-3.034-.379-6.068-.948-6.068-3.413 0-2.654 2.655-3.982 6.068-3.982 1.517 0 4.171.38 5.498.948l1.138.57c.19.189.569.189.759.189.948 0 1.896-.759 1.896-1.896 0-.759-.57-1.517-1.138-1.707-.38-.19-.758-.38-1.138-.38-2.275-.758-4.74-1.137-6.826-1.137-4.74 0-10.05 2.086-10.05 7.395 0 5.12 5.12 6.257 9.86 7.016 3.793.38 6.827 1.138 6.827 3.982-.19 3.223-3.982 3.792-6.447 3.792-2.275 0-4.55-.569-6.447-1.517-.19-.19-.569-.19-.948-.19-1.138 0-1.896.949-1.896 1.897 0 .758.379 1.517 1.137 1.706 2.465 1.138 4.93 1.707 7.964 1.707 5.5 0 10.24-2.276 10.43-7.395 0-6.068-6.069-6.826-10.62-7.585"/></g></g></svg>