<svg height="32" viewBox="0 0 51 32" width="51" xmlns="http://www.w3.org/2000/svg"><g fill="none" fill-rule="evenodd"><path d="m.5.5h50v31h-50z" fill="#fff" stroke="#d0d0d0"/><g transform="translate(82.725261 89.314816)"><path d="m-61.344343-80.7156h8.236774v14.80266h-8.236774z" fill="#7673c0" stroke-width=".261485"/><g transform="matrix(.26148489 0 0 .26148489 -160.77397 -150.92691)"><path d="m382.25 296.82a35.94 35.94 0 0 1 13.75-28.31 36 36 0 1 0 0 56.61 35.94 35.94 0 0 1 -13.75-28.3z" fill="#eb001b"/><path d="m454.24 296.82a36 36 0 0 1 -58.24 28.3 36 36 0 0 0 0-56.61 36 36 0 0 1 58.25 28.3z" fill="#00a1df"/></g></g></g></svg>