<svg xmlns="http://www.w3.org/2000/svg" width="51" height="32" viewBox="0 0 51 32">
  <g fill="none" fill-rule="evenodd">
    <rect width="50" height="31" x=".5" y=".5" fill="#FFF" stroke="#D0D0D0"/>
    <g transform="translate(14 6.5)">
      <path fill="#000" fill-rule="nonzero" d="M7.25948718,18.7511688 L7.25948718,17.5044156 C7.27400236,17.2928512 7.19792707,17.0851928 7.05067757,16.93444 C6.90342807,16.7836871 6.69925067,16.7044249 6.49025641,16.7168831 C6.21411982,16.698545 5.95001631,16.8339042 5.80102564,17.0701299 C5.66518891,16.8409474 5.41646735,16.7054038 5.15282051,16.7168831 C4.9232651,16.7051277 4.70473058,16.8173952 4.57846154,17.0119481 L4.57846154,16.7667532 L4.15179487,16.7667532 L4.15179487,18.7511688 L4.5825641,18.7511688 L4.5825641,17.6519481 C4.5632363,17.5142517 4.6059873,17.3750428 4.69901485,17.2727528 C4.79204241,17.1704628 4.92550735,17.1159104 5.0625641,17.1241558 C5.34564103,17.1241558 5.48923077,17.3111688 5.48923077,17.6477922 L5.48923077,18.7511688 L5.92,18.7511688 L5.92,17.6519481 C5.90220914,17.5145648 5.94549153,17.3762646 6.03817058,17.2743578 C6.13084962,17.1724509 6.26337704,17.1174364 6.4,17.1241558 C6.69128205,17.1241558 6.83076923,17.3111688 6.83076923,17.6477922 L6.83076923,18.7511688 L7.25948718,18.7511688 Z M9.65948718,17.76 L9.65948718,16.7688312 L9.22871795,16.7688312 L9.22871795,17.0098701 C9.0819415,16.8179991 8.85278226,16.7096692 8.61333333,16.718961 C8.04688744,16.718961 7.58769231,17.1841197 7.58769231,17.7579221 C7.58769231,18.3317244 8.04688744,18.7968831 8.61333333,18.7968831 C8.85278226,18.8061749 9.0819415,18.6978451 9.22871795,18.505974 L9.22871795,18.747013 L9.65538462,18.747013 L9.65948718,17.76 Z M8.07384615,17.76 C8.09281949,17.4339052 8.36562911,17.1829836 8.68787498,17.1952359 C9.01012085,17.2074881 9.26359431,17.4784198 9.25838276,17.8050379 C9.2531712,18.131656 8.99118638,18.3941479 8.66871795,18.3958442 C8.50362156,18.3997664 8.34453897,18.3330204 8.23053115,18.2119948 C8.11652332,18.0909693 8.05814981,17.9268737 8.06974359,17.76 L8.07384615,17.76 Z M18.7753846,16.721039 C18.9158513,16.7206712 19.0550958,16.7474713 19.185641,16.8 C19.3102484,16.8505493 19.4238489,16.9253839 19.52,17.0202597 C19.6149082,17.1142791 19.6902396,17.2266239 19.7415385,17.3506494 C19.8487093,17.6170707 19.8487093,17.9153968 19.7415385,18.1818182 C19.6902888,18.3058706 19.6149511,18.4182249 19.52,18.5122078 C19.4238489,18.6070837 19.3102484,18.6819183 19.185641,18.7324675 C18.9151506,18.8389379 18.6151058,18.8389379 18.3446154,18.7324675 C18.2205892,18.6819684 18.1076516,18.6071113 18.0123077,18.5122078 C17.9183064,18.4178566 17.8437056,18.3055615 17.7928205,18.1818182 C17.6858675,17.9153536 17.6858675,17.6171139 17.7928205,17.3506494 C17.8437056,17.226906 17.9183064,17.114611 18.0123077,17.0202597 C18.1076516,16.9253562 18.2205892,16.8504991 18.3446154,16.8 C18.4798517,16.7432161 18.6248894,16.7142557 18.7712821,16.7147975 L18.7753846,16.721039 Z M18.7753846,17.1366234 C18.6918425,17.1354691 18.6088948,17.1510031 18.5312821,17.1823377 C18.4581779,17.2120291 18.3918562,17.256582 18.3364103,17.3132468 C18.2798466,17.3728993 18.2358752,17.4436016 18.2071795,17.521039 C18.1445141,17.6869492 18.1445141,17.8704534 18.2071795,18.0363636 C18.2358234,18.1138271 18.279801,18.1845394 18.3364103,18.2441558 C18.391819,18.3008664 18.4581507,18.345426 18.5312821,18.3750649 C18.6875565,18.4370523 18.8611614,18.4370523 19.0174359,18.3750649 C19.0940641,18.3463725 19.1639318,18.3017842 19.2225641,18.2441558 C19.2792655,18.1846125 19.3232559,18.1138797 19.3517949,18.0363636 C19.4144603,17.8704534 19.4144603,17.6869492 19.3517949,17.521039 C19.3232559,17.4435229 19.2792655,17.3727901 19.2225641,17.3132468 C19.1639318,17.2556184 19.0940641,17.2110301 19.0174359,17.1823377 C18.9400547,17.1464534 18.8563501,17.1266687 18.7712821,17.1241558 L18.7753846,17.1366234 Z M11.9774359,17.76 C11.9774359,17.1366234 11.5958974,16.721039 11.0482051,16.721039 C10.4817593,16.7290722 10.0289929,17.2007431 10.0369231,17.7745455 C10.0448534,18.3483478 10.5104772,18.8069942 11.0769231,18.798961 C11.3689568,18.8090685 11.6544498,18.7099562 11.8789744,18.5205195 L11.6738462,18.2005195 C11.5118691,18.3321099 11.3112004,18.4052303 11.1035897,18.4083117 C10.8103316,18.4338598 10.5502729,18.2183212 10.5169231,17.9220779 L11.9712821,17.9220779 C11.9774359,17.8701299 11.9774359,17.8181818 11.9774359,17.76 Z M10.5189744,17.5854545 C10.5354392,17.3113246 10.762797,17.0993656 11.0338462,17.1054545 C11.1627904,17.1026698 11.2875426,17.1519023 11.3806439,17.2423156 C11.4737452,17.3327289 11.5275648,17.4569124 11.5302564,17.5875325 L10.5189744,17.5854545 Z M13.7723077,17.2737662 C13.5849783,17.1644998 13.3730745,17.1058273 13.1569231,17.1033766 C12.9230769,17.1033766 12.7835897,17.1906494 12.7835897,17.3361039 C12.7835897,17.4815584 12.9312821,17.5064935 13.1158974,17.5314286 L13.3210256,17.5605195 C13.7476923,17.6228571 14.0061538,17.8057143 14.0061538,18.1548052 C14.0061538,18.5038961 13.6779487,18.8031169 13.1138462,18.8031169 C12.8115116,18.8112636 12.5145705,18.7209515 12.2666667,18.5454545 L12.4717949,18.2088312 C12.6600417,18.3503023 12.8898056,18.4234934 13.1241026,18.4166234 C13.4153846,18.4166234 13.5712821,18.3293506 13.5712821,18.1755844 C13.5712821,18.0633766 13.4605128,18.001039 13.2266667,17.9677922 L13.0215385,17.9387013 C12.5825641,17.8763636 12.3446154,17.6768831 12.3446154,17.3527273 C12.3446154,16.9579221 12.6646154,16.7168831 13.1651282,16.7168831 C13.4452597,16.7073755 13.7222016,16.7794934 13.9630769,16.9246753 L13.7723077,17.2737662 Z M15.8235897,17.1615584 L15.1282051,17.1615584 L15.1282051,18.0571429 C15.1282051,18.2649351 15.1979487,18.3896104 15.4112821,18.3896104 C15.5444371,18.3851434 15.6742981,18.3465371 15.7887179,18.2774026 L15.9117949,18.6472727 C15.751858,18.7483798 15.5669864,18.8016805 15.3784615,18.8010447 C14.8738462,18.8010447 14.6974359,18.5267532 14.6974359,18.0654545 L14.6974359,17.1615584 L14.2994872,17.1615584 L14.2994872,16.7667532 L14.6974359,16.7667532 L14.6974359,16.1641558 L15.1282051,16.1641558 L15.1282051,16.7667532 L15.8235897,16.7667532 L15.8235897,17.1615584 Z M17.2984615,16.7168831 C17.4019533,16.7172882 17.5046199,16.7355585 17.6020513,16.7709091 L17.4707692,17.1864935 C17.3859873,17.1522519 17.2953654,17.1353044 17.2041026,17.1366234 C16.9251282,17.1366234 16.7938462,17.3194805 16.7938462,17.6477922 L16.7938462,18.7594805 L16.3671795,18.7594805 L16.3671795,16.7750649 L16.7897436,16.7750649 L16.7897436,17.0161039 C16.8964068,16.8305046 17.0947523,16.7188815 17.3066667,16.7251948 L17.2984615,16.7168831 Z M20.2482051,18.4623377 C20.2748744,18.4620067 20.3013515,18.4669474 20.3261538,18.4768831 C20.3497113,18.4866211 20.3712748,18.5007137 20.3897436,18.5184416 C20.407768,18.5363577 20.4223718,18.5574912 20.4328205,18.5807792 C20.4538177,18.629828 20.4538177,18.6854967 20.4328205,18.7345455 C20.4223718,18.7578335 20.407768,18.778967 20.3897436,18.7968831 C20.3712748,18.814611 20.3497113,18.8287036 20.3261538,18.8384416 C20.3015964,18.8494182 20.275047,18.8550802 20.2482051,18.855065 C20.1688307,18.8544589 20.0969257,18.8075183 20.0635897,18.7345455 C20.0428357,18.6854459 20.0428357,18.6298788 20.0635897,18.5807792 C20.0740384,18.5574912 20.0886422,18.5363577 20.1066667,18.5184416 C20.1251355,18.5007137 20.1466989,18.4866211 20.1702564,18.4768831 C20.1918446,18.4681865 20.2147343,18.463268 20.2379487,18.4623377 L20.2482051,18.4623377 Z M20.2482051,18.8135092 C20.2686789,18.8136325 20.2889488,18.8093842 20.3076923,18.801039 C20.3253408,18.7930571 20.3413465,18.7817781 20.3548718,18.7677922 C20.3901932,18.7317566 20.4056733,18.6803794 20.3962367,18.6305056 C20.3868001,18.5806317 20.3536638,18.5386936 20.3076923,18.5184416 C20.2889303,18.5101551 20.2686728,18.5059095 20.2482051,18.5059733 C20.2277551,18.5060835 20.2075319,18.510322 20.1887179,18.5184416 C20.1702881,18.5260966 20.1535512,18.5373995 20.1394872,18.5516883 C20.0862981,18.6104742 20.0862981,18.7006946 20.1394872,18.7594805 C20.1681813,18.7889114 20.207371,18.8053901 20.2482051,18.8051948 L20.2482051,18.8135092 Z M20.2605128,18.5662338 C20.2796618,18.5652931 20.2985315,18.5711745 20.3138462,18.5828571 C20.3265851,18.5935368 20.3334588,18.6097836 20.3323077,18.6264935 C20.3329032,18.6404478 20.3276945,18.6540156 20.3179487,18.6638961 C20.3060591,18.6748355 20.2908916,18.6814203 20.2748718,18.6825974 L20.334359,18.7511688 L20.2871795,18.7511688 L20.2317949,18.6825974 L20.2133333,18.6825974 L20.2133333,18.7511688 L20.174359,18.7511688 L20.174359,18.56 L20.2605128,18.5662338 Z M20.2153846,18.6015584 L20.2153846,18.6514286 L20.2605128,18.6514286 C20.2685433,18.6538539 20.2770977,18.6538539 20.2851282,18.6514286 C20.2880539,18.6455471 20.2880539,18.6386088 20.2851282,18.6327273 C20.2880539,18.6268458 20.2880539,18.6199075 20.2851282,18.614026 C20.2770977,18.6116007 20.2685433,18.6116007 20.2605128,18.614026 L20.2153846,18.6015584 Z"/>
      <g fill-rule="nonzero">
        <polygon fill="#7673C0" points="8.747 1.627 15.208 1.627 15.208 13.39 8.747 13.39"/>
        <path fill="#EB001B" d="M9.15692308,7.50961039 C9.15450721,5.21381657 10.1946346,3.04447673 11.9774359,1.62701299 C8.94970058,-0.783365864 4.60175124,-0.43227334 1.98920982,2.43355217 C-0.623331596,5.29937768 -0.623331596,9.71776518 1.98920982,12.5835907 C4.60175124,15.4494162 8.94970058,15.8005087 11.9774359,13.3901299 C10.1952018,11.9731161 9.15513791,9.80467502 9.15692308,7.50961039 L9.15692308,7.50961039 Z"/>
        <path fill="#00A1DF" d="M23.2758974 12.3385786L23.2758974 11.9496898 23.4084615 11.9496898 23.4084615 11.8663564 23.0728205 11.8663564 23.0728205 11.9496898 23.2053846 11.9496898 23.2053846 12.3524675 23.2758974 12.3385786zM23.9274359 12.3385786L23.9274359 11.8524675 23.8258974 11.8524675 23.7074359 12.1996898 23.5889744 11.8524675 23.4846154 11.8524675 23.4846154 12.3385786 23.5579487 12.3385786 23.5579487 11.9739953 23.6679487 12.2899675 23.7441026 12.2899675 23.8541026 11.9739953 23.8541026 12.3420509 23.9274359 12.3385786zM23.9241026 7.50961039C23.9234197 10.372918 22.309305 12.9846267 19.7669624 14.2360465 17.2246197 15.4874663 14.2001394 15.1590178 11.9774359 13.3901299 13.7588924 11.9719131 14.7990345 9.80376031 14.7990345 7.50857143 14.7990345 5.21338254 13.7588924 3.04522975 11.9774359 1.62701299 14.200121-.143146977 17.2254543-.472340244 19.7685652.77924283 22.3116761 2.0308259 23.9261538 4.64345343 23.9261538 7.50753247L23.9241026 7.50961039z"/>
      </g>
    </g>
  </g>
</svg>
