<svg height="360" viewBox="0 0 640 360" width="640" xmlns="http://www.w3.org/2000/svg"><g fill="none" fill-rule="nonzero" transform="translate(160 53.333)"><path d="m96.7931624 250.015584v-16.623376c.1935357-2.820859-.8208015-5.589637-2.7841282-7.599675-1.9633266-2.010039-4.6856919-3.066868-7.4722821-2.900758-3.6818211-.244508-7.2032013 1.560281-9.1897436 4.709957-1.8111564-3.055767-5.1274438-4.863015-8.642735-4.709957-3.0607388-.156739-5.9745325 1.340161-7.6581197 3.934199v-3.269264h-5.6888888v26.458874h5.7435897v-14.656277c-.257704-1.835951.3123093-3.692069 1.5526767-5.055936 1.2403674-1.363868 3.0198999-2.091233 4.8473233-1.981293 3.774359 0 5.6888889 2.493506 5.6888889 6.981818v14.711688h5.7435897v-14.656277c-.2372114-1.831777.3398871-3.675779 1.5756077-5.034537 1.2357207-1.358757 3.0027529-2.092284 4.8243923-2.002692 3.8837607 0 5.7435898 2.493506 5.7435898 6.981818v14.711688zm31.9999996-13.215584v-13.215584h-5.743589v3.213852c-1.95702-2.558281-5.012476-4.002678-8.205129-3.878787-7.552612 0-13.675213 6.202116-13.675213 13.852813 0 7.650698 6.122601 13.852814 13.675213 13.852814 3.192653.123891 6.248109-1.320507 8.205129-3.878788v3.213853h5.688889zm-21.14188 0c.252978-4.347931 3.890439-7.693552 8.187051-7.530189 4.296612.163364 7.676258 3.775787 7.60677 8.130694-.069487 4.354908-3.562618 7.854801-7.862197 7.877417-2.201285.052297-4.322386-.83765-5.842491-2.451324-1.520104-1.613674-2.298417-3.801615-2.143834-6.026598zm142.68718-13.852814c1.872888-.004903 3.729482.352431 5.470085 1.052814 1.661432.67399 3.176105 1.671785 4.45812 2.936797 1.265442 1.25359 2.269861 2.751522 2.953846 4.405194 1.428945 3.552285 1.428945 7.529966 0 11.082251-.683329 1.654033-1.687831 3.152089-2.953846 4.405195-1.282015 1.265012-2.796688 2.262806-4.45812 2.936797-3.606539 1.419605-7.607137 1.419605-11.213675 0-1.653682-.673321-3.159517-1.671417-4.430769-2.936797-1.253351-1.258016-2.248028-2.755283-2.926496-4.405195-1.42604-3.552861-1.42604-7.52939 0-11.082251.678468-1.649911 1.673145-3.147178 2.926496-4.405194 1.271252-1.26538 2.777087-2.263476 4.430769-2.936797 1.80315-.757118 3.736986-1.143257 5.688889-1.136033zm0 5.541126c-1.113895-.015391-2.219865.191729-3.254701.609523-.974723.395886-1.859012.989925-2.598291 1.745455-.754182.795368-1.340467 1.738065-1.723077 2.770563-.835539 2.212136-.835539 4.658859 0 6.870995.381918 1.032846.968287 1.975678 1.723077 2.770563.738784.756141 1.623205 1.35027 2.598291 1.745455 2.08366.826499 4.398391.826499 6.482051 0 1.021709-.382566 1.953279-.977077 2.735043-1.745455.756018-.793911 1.342556-1.737015 1.723077-2.770563.835539-2.212136.835539-4.658859 0-6.870995-.380521-1.033548-.967059-1.976652-1.723077-2.770563-.781764-.768377-1.713334-1.362888-2.735043-1.745455-1.031749-.478456-2.147811-.742252-3.282051-.775757zm-90.639317 8.311688c0-8.311688-5.087179-13.852814-12.389743-13.852814-7.552612.10711-13.589497 6.396056-13.48376 14.046753.105737 7.650698 6.314054 13.765984 13.866666 13.658875 3.893783.134766 7.700357-1.186731 10.694017-3.712554l-2.735043-4.266667c-2.159694 1.754538-4.835277 2.729478-7.603419 2.770563-3.910109.340641-7.377558-2.533207-7.822222-6.483117h19.391453c.082051-.692641.082051-1.385281.082051-2.161039zm-19.446154-2.327273c.219531-3.655065 3.250969-6.481186 6.864958-6.4 1.719256-.03713 3.382618.619303 4.62397 1.824814 1.241351 1.205511 1.958944 2.861291 1.994833 4.602892zm43.377778-4.155844c-2.497725-1.456885-5.323109-2.239186-8.205128-2.271861-3.117949 0-4.977778 1.163636-4.977778 3.10303s1.969231 2.271861 4.430769 2.604329l2.735043.387879c5.688889.831169 9.135043 3.269264 9.135043 7.923809 0 4.654546-4.376068 8.644156-11.897436 8.644156-4.031127.108623-7.990342-1.095538-11.295726-3.435498l2.735042-4.488311c2.509958 1.886281 5.573477 2.862163 8.697436 2.770562 3.883761 0 5.962393-1.163636 5.962393-3.213852 0-1.496104-1.476923-2.327273-4.594871-2.770563l-2.735043-.387879c-5.852992-.831169-9.025641-3.490909-9.025641-7.812987 0-5.264069 4.266666-8.477922 10.940171-8.477922 3.735086-.126768 7.427645.834804 10.639316 2.770563zm27.350428-1.496104h-9.271795v11.941126c0 2.770563.929914 4.4329 3.774359 4.4329 1.7754-.059559 3.50688-.574311 5.032478-1.496104l1.641026 4.931602c-2.132492 1.348095-4.597447 2.05877-7.111111 2.050293-6.728205 0-9.080342-3.657219-9.080342-9.807869v-12.051948h-5.305983v-5.264069h5.305983v-8.034632h5.74359v8.034632h9.271795zm19.664957-5.929004c1.37989.005401 2.748778.249005 4.047863.720346l-1.750427 5.541126c-1.130427-.456555-2.338718-.682521-3.555556-.664935-3.719658 0-5.470085 2.438095-5.470085 6.815584v14.822511h-5.688889v-26.458875h5.634188v3.213853c1.422176-2.474658 4.066782-3.962964 6.892308-3.878788zm39.329914 23.272727c.355591-.004413.708619.061463 1.039317.19394.314099.129839.601612.31774.847863.554112.240326.238882.435043.520662.574359.831169.279962.653984.279962 1.396233 0 2.050216-.139316.310508-.334033.592287-.574359.831169-.246251.236372-.533764.424273-.847863.554113-.327433.146355-.681425.221848-1.039317.221645-1.058325-.008081-2.017059-.633955-2.461538-1.606927-.276721-.654661-.276721-1.395555 0-2.050216.139316-.310507.334033-.592287.574359-.831169.246251-.236372.533763-.424273.847863-.554112.287842-.115956.593038-.181535.902564-.19394zm0 4.682288c.272984.001643.543249-.055.793163-.166271.235313-.106424.448723-.256811.62906-.44329.470951-.480474.677353-1.165504.551531-1.830488-.125821-.664985-.567638-1.224159-1.180591-1.494187-.250161-.110486-.52026-.167095-.793163-.166243-.272666.001469-.542309.057982-.793162.166243-.245731.102068-.46889.252772-.65641.44329-.709189.783812-.709189 1.986751 0 2.770563.382588.392412.905117.612128 1.449572.609524zm.164103-3.297006c.25532-.012543.506915.065876.711111.221645.169853.142395.261502.35902.246154.581818.00794.186057-.06151.366961-.191453.498701-.158528.145859-.360761.233656-.574359.249351l.793162.914285h-.62906l-.738461-.914285h-.246154v.914285h-.519658v-2.548917zm-.601709.470995v.664935h.601709c.107073.032338.221132.032338.328205 0 .03901-.07842.03901-.17093 0-.24935.03901-.07842.03901-.170931 0-.249351-.107073-.032338-.221132-.032338-.328205 0z" fill="#000"/><g><path d="m116.622 21.694h86.154v156.841h-86.154z" fill="#7673c0"/><path d="m122.092308 100.128139c-.032212-30.6105847 13.836154-59.535116 37.606837-78.4346325-40.369804-32.1383847-98.3424618-27.45715103-133.1763474 10.7538557-34.83388554 38.2110068-34.83388554 97.1228398 0 135.3338468 34.8338856 38.211007 92.8065434 42.892241 133.1763474 10.753856-23.763121-18.893517-37.630639-47.806065-37.606837-78.406926z" fill="#eb001b"/><path d="m309.606838 162.746705v-3.771044h1.28547v-.80808h-3.254701v.80808h1.28547v3.905724zm6.317948 0v-4.713805h-.984615l-1.148718 3.367004-1.148718-3.367004h-1.011966v4.713805h.711111v-3.535353l1.066667 3.063973h.738462l1.066666-3.063973v3.569023zm3.063248-62.618566c-.009105 38.177435-21.530634 73.000217-55.428536 89.685814-33.897902 16.685598-74.224306 12.306285-103.860353-11.278888 23.752753-18.909557 37.621315-47.818261 37.621315-78.420779 0-30.6025188-13.868562-59.5112227-37.621315-78.4207795 29.635801-23.60213286 69.973579-27.99137642 103.881724-11.3036021 33.908145 16.6877743 55.434516 51.522808 55.434516 89.7105286z" fill="#00a1df"/></g></g></svg>