<?xml version="1.0" encoding="UTF-8" standalone="no"?>
<svg
   xmlns:dc="http://purl.org/dc/elements/1.1/"
   xmlns:cc="http://creativecommons.org/ns#"
   xmlns:rdf="http://www.w3.org/1999/02/22-rdf-syntax-ns#"
   xmlns:svg="http://www.w3.org/2000/svg"
   xmlns="http://www.w3.org/2000/svg"
   xmlns:sodipodi="http://sodipodi.sourceforge.net/DTD/sodipodi-0.dtd"
   xmlns:inkscape="http://www.inkscape.org/namespaces/inkscape"
   inkscape:version="1.0 (4035a4f, 2020-05-01)"
   height="360"
   width="640"
   sodipodi:docname="method-maestro-640x360.svg"
   version="1.1"
   viewBox="0 0 640.00001 360"
   data-name="Layer 1"
   id="Layer_1">
  <metadata
     id="metadata57">
    <rdf:RDF>
      <cc:Work
         rdf:about="">
        <dc:format>image/svg+xml</dc:format>
        <dc:type
           rdf:resource="http://purl.org/dc/dcmitype/StillImage" />
        <dc:title>ms_vrt_rgb_pos</dc:title>
      </cc:Work>
    </rdf:RDF>
  </metadata>
  <sodipodi:namedview
     inkscape:current-layer="Layer_1"
     inkscape:window-maximized="0"
     inkscape:window-y="23"
     inkscape:window-x="0"
     inkscape:cy="62.99664"
     inkscape:cx="69.279445"
     inkscape:zoom="1"
     showgrid="false"
     id="namedview55"
     inkscape:window-height="817"
     inkscape:window-width="1440"
     inkscape:pageshadow="2"
     inkscape:pageopacity="0"
     guidetolerance="10"
     gridtolerance="10"
     objecttolerance="10"
     borderopacity="1"
     bordercolor="#666666"
     pagecolor="#ffffff" />
  <defs
     id="defs38">
    <style
       id="style36">.cls-1{fill:none;}.cls-2{fill:#7673c0;}.cls-3{fill:#eb001b;}.cls-4{fill:#00a1df;}</style>
  </defs>
  <title
     id="title40">ms_vrt_rgb_pos</title>
  <rect
     y="0"
     x="0"
     id="rect42"
     height="120.64"
     width="146.78"
     class="cls-1" />
  <g
     transform="matrix(2.4831926,0,0,2.4831926,137.75192,29.927213)"
     id="g107">
    <path
       d="m 373,350.92 v -6 a 3.55,3.55 0 0 0 -3.75,-3.79 3.7,3.7 0 0 0 -3.36,1.7 3.51,3.51 0 0 0 -3.16,-1.7 3.16,3.16 0 0 0 -2.8,1.42 v -1.18 h -2.08 v 9.55 h 2.1 v -5.29 a 2.23,2.23 0 0 1 2.34,-2.54 c 1.38,0 2.08,0.9 2.08,2.52 v 5.31 h 2.1 v -5.29 a 2.25,2.25 0 0 1 2.34,-2.54 c 1.42,0 2.1,0.9 2.1,2.52 v 5.31 z m 11.7,-4.77 v -4.77 h -2.1 v 1.16 a 3.62,3.62 0 0 0 -3,-1.4 5,5 0 0 0 0,10 3.62,3.62 0 0 0 3,-1.4 v 1.16 h 2.08 z m -7.73,0 a 2.89,2.89 0 1 1 2.9,3.06 2.86,2.86 0 0 1 -2.92,-3.06 z m 52.17,-5 a 5.38,5.38 0 0 1 2,0.38 5,5 0 0 1 1.63,1.06 4.84,4.84 0 0 1 1.08,1.59 5.3,5.3 0 0 1 0,4 4.83,4.83 0 0 1 -1.08,1.59 5,5 0 0 1 -1.63,1.06 5.66,5.66 0 0 1 -4.1,0 4.94,4.94 0 0 1 -1.62,-1.06 4.88,4.88 0 0 1 -1.07,-1.59 5.31,5.31 0 0 1 0,-4 4.88,4.88 0 0 1 1.07,-1.59 4.94,4.94 0 0 1 1.62,-1.06 5.38,5.38 0 0 1 2.08,-0.41 z m 0,2 a 3.1,3.1 0 0 0 -1.19,0.22 2.81,2.81 0 0 0 -0.95,0.63 2.93,2.93 0 0 0 -0.63,1 3.47,3.47 0 0 0 0,2.48 2.92,2.92 0 0 0 0.63,1 2.8,2.8 0 0 0 0.95,0.63 3.25,3.25 0 0 0 2.37,0 2.86,2.86 0 0 0 1,-0.63 2.9,2.9 0 0 0 0.63,-1 3.47,3.47 0 0 0 0,-2.48 2.9,2.9 0 0 0 -0.63,-1 2.86,2.86 0 0 0 -1,-0.63 3.1,3.1 0 0 0 -1.2,-0.28 z m -33.14,3 c 0,-3 -1.86,-5 -4.53,-5 a 5.00049,5.00049 0 0 0 0.14,10 5.8,5.8 0 0 0 3.91,-1.34 l -1,-1.54 a 4.55,4.55 0 0 1 -2.78,1 2.65,2.65 0 0 1 -2.86,-2.34 h 7.09 c 0.03,-0.25 0.03,-0.5 0.03,-0.78 z m -7.11,-0.84 a 2.46,2.46 0 0 1 2.51,-2.31 2.37,2.37 0 0 1 2.42,2.32 z m 15.86,-1.5 a 6.15,6.15 0 0 0 -3,-0.82 c -1.14,0 -1.82,0.42 -1.82,1.12 0,0.7 0.72,0.82 1.62,0.94 l 1,0.14 c 2.08,0.3 3.34,1.18 3.34,2.86 0,1.68 -1.6,3.12 -4.35,3.12 a 6.89,6.89 0 0 1 -4.13,-1.24 l 1,-1.62 a 5.09,5.09 0 0 0 3.18,1 c 1.42,0 2.18,-0.42 2.18,-1.16 0,-0.54 -0.54,-0.84 -1.68,-1 l -1,-0.14 c -2.14,-0.3 -3.3,-1.26 -3.3,-2.82 0,-1.9 1.56,-3.06 4,-3.06 a 7.14,7.14 0 0 1 3.89,1 z m 10,-0.54 h -3.39 v 4.31 c 0,1 0.34,1.6 1.38,1.6 a 3.84,3.84 0 0 0 1.84,-0.54 l 0.6,1.78 a 4.88,4.88 0 0 1 -2.6,0.74 c -2.46,0 -3.32,-1.32 -3.32,-3.54 v -4.35 h -1.94 v -1.9 h 1.94 v -2.9 h 2.1 v 2.9 h 3.39 z m 7.19,-2.14 a 4.44,4.44 0 0 1 1.48,0.26 l -0.64,2 a 3.38,3.38 0 0 0 -1.3,-0.24 c -1.36,0 -2,0.88 -2,2.46 v 5.35 h -2.08 v -9.55 h 2.06 v 1.16 a 2.82,2.82 0 0 1 2.52,-1.4 z m 14.38,8.4 a 1,1 0 0 1 0.38,0.07 1,1 0 0 1 0.31,0.2 1,1 0 0 1 0.21,0.3 0.93,0.93 0 0 1 0,0.74 1,1 0 0 1 -0.21,0.3 1,1 0 0 1 -0.31,0.2 0.94,0.94 0 0 1 -0.38,0.08 1,1 0 0 1 -0.9,-0.58 0.94,0.94 0 0 1 0,-0.74 1,1 0 0 1 0.21,-0.3 1,1 0 0 1 0.31,-0.2 1,1 0 0 1 0.33,-0.07 z m 0,1.69 a 0.71,0.71 0 0 0 0.29,-0.06 0.75,0.75 0 0 0 0.23,-0.16 0.74,0.74 0 0 0 -0.23,-1.2 0.72,0.72 0 0 0 -0.29,-0.06 0.75,0.75 0 0 0 -0.29,0.06 0.73,0.73 0 0 0 -0.24,0.16 0.74,0.74 0 0 0 0,1 0.74,0.74 0 0 0 0.53,0.22 z m 0.06,-1.19 a 0.4,0.4 0 0 1 0.26,0.08 0.25,0.25 0 0 1 0.09,0.21 0.24,0.24 0 0 1 -0.07,0.18 0.35,0.35 0 0 1 -0.21,0.09 l 0.29,0.33 h -0.23 l -0.27,-0.33 h -0.09 v 0.33 h -0.19 V 350 Z m -0.22,0.17 v 0.24 h 0.22 a 0.21,0.21 0 0 0 0.12,0 0.1,0.1 0 0 0 0,-0.09 0.1,0.1 0 0 0 0,-0.09 0.21,0.21 0 0 0 -0.12,0 z"
       transform="translate(-322.61,-245.68)"
       id="path44" />
    <g
       id="_Group_"
       data-name="&lt;Group&gt;">
      <rect
         class="cls-2"
         x="57.639999"
         y="22.83"
         width="31.5"
         height="56.610001"
         id="rect46" />
      <path
         id="_Path_"
         data-name="&lt;Path&gt;"
         class="cls-3"
         d="m 382.25,296.82 a 35.94,35.94 0 0 1 13.75,-28.31 36,36 0 1 0 0,56.61 35.94,35.94 0 0 1 -13.75,-28.3 z"
         transform="translate(-322.61,-245.68)" />
      <path
         class="cls-4"
         d="M 450.81,319.12 V 318 h 0.47 v -0.24 h -1.19 V 318 h 0.47 v 1.16 z m 2.31,0 v -1.4 h -0.36 l -0.42,1 -0.42,-1 h -0.37 v 1.4 h 0.26 v -1.05 l 0.39,0.91 h 0.27 l 0.39,-0.91 v 1.06 z"
         transform="translate(-322.61,-245.68)"
         id="path49" />
      <path
         class="cls-4"
         d="m 454.24,296.82 a 36,36 0 0 1 -58.24,28.3 36,36 0 0 0 0,-56.61 36,36 0 0 1 58.25,28.3 z"
         transform="translate(-322.61,-245.68)"
         id="path51" />
    </g>
  </g>
</svg>
