<?xml version="1.0" encoding="UTF-8" standalone="no"?>
<svg
   xmlns:dc="http://purl.org/dc/elements/1.1/"
   xmlns:cc="http://creativecommons.org/ns#"
   xmlns:rdf="http://www.w3.org/1999/02/22-rdf-syntax-ns#"
   xmlns:svg="http://www.w3.org/2000/svg"
   xmlns="http://www.w3.org/2000/svg"
   xmlns:sodipodi="http://sodipodi.sourceforge.net/DTD/sodipodi-0.dtd"
   xmlns:inkscape="http://www.inkscape.org/namespaces/inkscape"
   inkscape:version="1.0 (4035a4f, 2020-05-01)"
   sodipodi:docname="method-maestro-wc-51x32.svg"
   id="svg107"
   version="1.1"
   viewBox="0 0 51 32"
   height="32"
   width="51">
  <metadata
     id="metadata113">
    <rdf:RDF>
      <cc:Work
         rdf:about="">
        <dc:format>image/svg+xml</dc:format>
        <dc:type
           rdf:resource="http://purl.org/dc/dcmitype/StillImage" />
      </cc:Work>
    </rdf:RDF>
  </metadata>
  <defs
     id="defs111" />
  <sodipodi:namedview
     inkscape:current-layer="g46"
     inkscape:window-maximized="1"
     inkscape:window-y="23"
     inkscape:window-x="0"
     inkscape:cy="24.51981"
     inkscape:cx="27.122821"
     inkscape:zoom="7.4948049"
     showgrid="false"
     id="namedview109"
     inkscape:window-height="817"
     inkscape:window-width="1440"
     inkscape:pageshadow="2"
     inkscape:pageopacity="0"
     guidetolerance="10"
     gridtolerance="10"
     objecttolerance="10"
     borderopacity="1"
     bordercolor="#666666"
     pagecolor="#ffffff" />
  <g
     id="g105"
     fill-rule="evenodd"
     fill="none">
    <rect
       id="rect91"
       stroke="#D0D0D0"
       fill="#FFF"
       y=".5"
       x=".5"
       height="31"
       width="50" />
    <g
       transform="translate(82.725261,89.314816)"
       id="g147">
      <path
         id="path38"
         fill="#7673c0"
         d="m -61.344343,-80.7156 h 8.236774 v 14.80266 h -8.236774 z"
         style="stroke-width:0.261485" />
      <g
         id="g46"
         transform="matrix(0.26148489,0,0,0.26148489,-160.77397,-150.92691)">
        <path
           id="path40"
           fill="#eb001b"
           d="m 382.25,296.82 a 35.94,35.94 0 0 1 13.75,-28.31 36,36 0 1 0 0,56.61 35.94,35.94 0 0 1 -13.75,-28.3 z" />
        <path
           id="path44"
           fill="#00a1df"
           d="m 454.24,296.82 a 36,36 0 0 1 -58.24,28.3 36,36 0 0 0 0,-56.61 36,36 0 0 1 58.25,28.3 z" />
      </g>
    </g>
  </g>
</svg>
