<svg height="360" viewBox="0 0 640 360" width="640" xmlns="http://www.w3.org/2000/svg"><g fill="none" transform="translate(170 61.25)"><path d="m90.7435897 234.38961v-15.584415c.1814398-2.644555-.7695014-5.240284-2.6101201-7.124696-1.8406187-1.884411-4.3928362-2.875188-7.0052645-2.71946-3.4517073-.229226-6.7530012 1.462763-8.6153846 4.415584-1.6979592-2.864781-4.8069786-4.559076-8.1025641-4.415584-2.8694426-.146943-5.6011242 1.256401-7.1794872 3.688312v-3.064935h-5.3333333v24.805194h5.3846154v-13.740259c-.2415975-1.721205.2927899-3.461316 1.4556344-4.739941 1.1628444-1.278626 2.8311562-1.960531 4.5443656-1.857462 3.5384615 0 5.3333333 2.337662 5.3333333 6.545455v13.792207h5.3846154v-13.740259c-.2223857-1.717291.3186441-3.446043 1.4771322-4.719879 1.1584881-1.273835 2.8150808-1.961517 4.5228678-1.877524 3.6410256 0 5.3846154 2.337662 5.3846154 6.545455v13.792207zm30.0000003-12.38961v-12.38961h-5.384616v3.012987c-1.834705-2.398389-4.699196-3.752512-7.692307-3.636364-7.080574 0-12.8205132 5.814484-12.8205132 12.987013s5.7399392 12.987013 12.8205132 12.987013c2.993111.116148 5.857602-1.237975 7.692307-3.636364v3.012987h5.333334zm-19.820513 0c.237167-4.076185 3.647287-7.212705 7.67536-7.059552 4.028074.153154 7.196492 3.5398 7.131347 7.622526-.065144 4.082726-3.339954 7.363875-7.37081 7.385078-2.063704.049028-4.052237-.785297-5.477335-2.298116-1.425097-1.51282-2.154766-3.564014-2.009844-5.649936zm133.769231-12.987013c1.755833-.004596 3.49639.330404 5.128205.987013 1.557592.631866 2.977599 1.567298 4.179487 2.753247 1.186352 1.175241 2.127995 2.579552 2.769231 4.12987 1.339636 3.330267 1.339636 7.059343 0 10.38961-.640621 1.550656-1.582342 2.955084-2.769231 4.12987-1.201888 1.185949-2.621895 2.121381-4.179487 2.753247-3.38113 1.33088-7.131691 1.33088-10.512821 0-1.550327-.631239-2.962047-1.566953-4.153846-2.753247-1.175016-1.17939-2.107526-2.583078-2.74359-4.12987-1.336912-3.330807-1.336912-7.058803 0-10.38961.636064-1.546792 1.568574-2.95048 2.74359-4.12987 1.191799-1.186294 2.603519-2.122008 4.153846-2.753247 1.690454-.709798 3.503425-1.071804 5.333334-1.065031zm0 5.194805c-1.044276-.014429-2.081123.179747-3.051282.571429-.913803.371143-1.742823.928054-2.435898 1.636363-.707046.745657-1.256688 1.629436-1.615384 2.597403-.783318 2.073878-.783318 4.367681 0 6.441558.358048.968293.907768 1.852198 1.615384 2.597403.69261.708882 1.521755 1.265878 2.435898 1.636364 1.953431.774842 4.123492.774842 6.076923 0 .957852-.358656 1.831199-.91601 2.564102-1.636364.708768-.744292 1.258647-1.628452 1.615385-2.597403.783318-2.073877.783318-4.36768 0-6.441558-.356738-.968951-.906617-1.853111-1.615385-2.597403-.732903-.720353-1.60625-1.277707-2.564102-1.636363-.967265-.448553-2.013573-.695862-3.076923-.727273zm-84.974359 7.792208c0-7.792208-4.769231-12.987013-11.615385-12.987013-7.080573.100416-12.740153 5.996302-12.641025 13.168831s5.919426 12.90561 12.999999 12.805195c3.650422.126343 7.219085-1.11256 10.025641-3.480519l-2.564102-4c-2.024713 1.644879-4.533072 2.558885-7.128205 2.597402-3.665727.319351-6.916461-2.374881-7.333334-6.077922h18.179488c.076923-.649351.076923-1.298701.076923-2.025974zm-18.23077-2.181818c.205811-3.426624 3.047783-6.076112 6.435898-6 1.611802-.03481 3.171205.580597 4.334972 1.710763 1.163766 1.130167 1.83651 2.68246 1.870156 4.315211zm40.666667-3.896104c-2.341617-1.36583-4.990415-2.099237-7.692308-2.12987-2.923076 0-4.666666 1.090909-4.666666 2.909091s1.846154 2.12987 4.153846 2.441558l2.564103.363637c5.333333.77922 8.564102 3.064935 8.564102 7.428571s-4.102564 8.103896-11.153846 8.103896c-3.779182.101834-7.490945-1.027067-10.589744-3.220779l2.564103-4.207792c2.353085 1.768388 5.225134 2.683278 8.153846 2.597402 3.641026 0 5.589744-1.090909 5.589744-3.012987 0-1.402597-1.384616-2.181818-4.307693-2.597402l-2.564102-.363637c-5.48718-.779221-8.461539-3.272727-8.461539-7.324675 0-4.935065 4-7.948052 10.256411-7.948052 3.501643-.118845 6.963417.782629 9.974359 2.597403zm25.641026-1.402597h-8.692308v11.194805c0 2.597402.871795 4.155844 3.538462 4.155844 1.664438-.055837 3.2877-.538417 4.717948-1.402598l1.538462 4.623377c-1.999211 1.263839-4.310106 1.930097-6.666667 1.92215-6.307692 0-8.51282-3.428643-8.51282-9.194877v-11.298701h-4.974359v-4.935065h4.974359v-7.532468h5.384615v7.532468h8.692308zm18.435897-5.558442c1.293647.005064 2.57698.233442 3.794872.675325l-1.641026 5.194805c-1.059774-.42802-2.192548-.639864-3.333333-.623377-3.487179 0-5.128205 2.285714-5.128205 6.389611v13.896103h-5.333333v-24.805194h5.282051v3.012987c1.33329-2.319992 3.812608-3.71528 6.461538-3.636364zm36.871795 21.818182c.333367-.004138.66433.057621.974359.181818.294469.121725.564012.297882.794872.51948.225305.223952.407853.488121.538461.779221.262465.61311.262465 1.308968 0 1.922078-.130608.291101-.313156.555269-.538461.779221-.23086.221598-.500403.397756-.794872.51948-.306968.137209-.638835.207983-.974359.207793-.99218-.007576-1.890993-.594333-2.307692-1.506494-.259426-.613745-.259426-1.308333 0-1.922078.130608-.2911.313156-.555269.538461-.779221.23086-.221598.500404-.397755.794872-.51948.269852-.108708.555974-.170189.846154-.181818zm0 4.389644c.255922.001541.509296-.051562.74359-.155878.220606-.099773.420678-.24076.589743-.415584.441518-.450445.635019-1.092661.517062-1.716083-.117958-.623423-.532161-1.147649-1.106805-1.400801-.234525-.10358-.487744-.156651-.74359-.155853-.255625.001378-.508415.054358-.74359.155853-.230372.095689-.439584.236975-.615384.415585-.664864.734824-.664864 1.862579 0 2.597402.358676.367887.848547.57387 1.358974.571429zm.153846-3.090943c.239363-.011759.475233.06176.666667.207792.159237.133496.245158.336582.230769.545455.007444.174429-.057665.344026-.179487.467532-.14862.136743-.338214.219053-.538462.233767l.74359.857142h-.589743l-.692308-.857142h-.230769v.857142h-.48718v-2.38961zm-.564102.441559v.623376h.564102c.100381.030317.207312.030317.307693 0 .036571-.073519.036571-.160247 0-.233766.036571-.073519.036571-.160247 0-.233766-.100381-.030317-.207312-.030317-.307693 0z" fill="#000"/><path d="m109.333 20.338h80.77v147.039h-80.77z" fill="#7673c0"/><path d="m114.461538 93.8701299c-.030198-28.6974227 12.971395-55.8141708 35.256411-73.5324676-37.846692-30.12973559-92.1960585-25.74107905-124.8528262 10.0817398-32.65676774 35.8228188-32.65676774 91.0526629 0 126.8754819 32.6567677 35.822818 87.0061342 40.211475 124.8528262 10.081739-22.277927-17.712672-35.278725-44.818185-35.256411-73.5064931z" fill="#eb001b"/><path d="m290.25641 152.575036v-3.535353h1.205128v-.757576h-3.051282v.757576h1.205129v3.661616zm5.923077 0v-4.419192h-.923077l-1.076923 3.156566-1.076923-3.156566h-.948718v4.419192h.666667v-3.314394l1 2.872475h.692308l1-2.872475v3.34596zm2.871795-58.7049061c-.008536 35.7913451-20.184969 68.4377041-51.964252 84.0804511-31.779283 15.642748-69.585288 11.537142-97.369081-10.573958 22.268205-17.727709 35.269983-44.829619 35.269983-73.5194801s-13.001778-55.791771-35.269983-73.5194806c27.783563-22.12699951 65.60023-26.24191535 97.389116-10.59712693 31.788886 15.64478843 51.969858 48.30263243 51.969858 84.10362043z" fill="#00a1df"/></g></svg>