<svg width="640" height="360" xmlns="http://www.w3.org/2000/svg"><defs><linearGradient x1=".101" y1="123.004" x2="54.593" y2="123.004" id="a" gradientTransform="scale(1.43293 .69787)" gradientUnits="userSpaceOnUse"><stop stop-color="#CA581A" offset="0%"/><stop stop-color="#6E2E2B" offset="100%"/></linearGradient><linearGradient x1="-5.954" y1="82.538" x2="39.691" y2="75.338" id="b" gradientTransform="scale(1.0573 .94581)" gradientUnits="userSpaceOnUse"><stop stop-color="#FFE07D" offset="0%"/><stop stop-color="#EE7203" offset="100%"/></linearGradient><linearGradient x1="56.067" y1="17.019" x2="64.022" y2="35.402" id="c" gradientTransform="scale(.65785 1.5201)" gradientUnits="userSpaceOnUse"><stop stop-color="#2D2C86" offset="0%"/><stop stop-color="#282674" offset="100%"/></linearGradient></defs><g fill="none" fill-rule="evenodd"><path d="M414.862 190.355c-1.683 10.776-7.24 16.333-13.807 16.333-4.21 0-6.566-3.03-5.893-7.577l2.357-14.48c.842-5.389 4.21-9.598 9.935-9.598 6.061 0 9.092 4.378 7.408 15.322zm-22.9 21.384c.843 0 3.032 3.705 10.104 3.705 14.817 0 23.404-10.777 25.761-24.752 3.031-17.175-5.388-24.92-15.827-24.92-4.883 0-8.587.505-11.281 1.852l4.04-23.573H392.3l-12.29 70.55h9.26c0 .169 1.347-2.862 2.694-2.862zm131.84-29.971c1.853-10.608-2.02-15.828-13.638-15.828-8.587 0-11.955 3.873-15.154 7.072l.337-5.893h-11.45l-.842 8.756-6.566 38.895h12.628l4.041-25.257c1.515-8.755 7.409-15.322 13.134-15.322 6.23 0 6.23 3.536 5.22 9.092l-5.389 31.487h12.46zM576 165.94h-14.649l-16.838 17.849h-.168l6.735-39.4h-12.123l-12.292 70.381h12.46l1.179-7.072 2.526-15.49c6.566 0 10.27.673 13.133 13.806l2.02 8.756h12.629s-3.2-13.302-5.22-18.522c-2.189-5.556-4.546-9.092-9.597-10.102zm-359.655 17.343c9.092-2.02 13.807-9.26 14.985-14.143 3.2-13.134-2.525-23.405-19.363-23.237h-19.195l-11.955 68.699h12.628l5.052-27.446c11.45-.337 12.965 2.526 15.154 15.828l2.02 11.786h12.965c-1.515-7.072-2.525-13.807-3.704-19.195-1.347-5.725-3.368-10.103-8.756-12.123zm2.525-16.5c-1.01 6.06-5.724 10.439-11.618 10.439h-7.408l3.872-21.721h6.736c7.913 0 9.429 5.22 8.418 11.281zm56.407 12.964c1.852-10.439-3.704-13.975-14.986-13.975-13.975 0-20.037 6.567-20.037 6.567l4.378 7.24s4.546-5.22 13.639-5.22c5.051 0 5.22 2.526 4.714 5.22l-1.01 6.23c-18.016-.505-27.277 3.368-29.298 15.322-1.683 9.766 5.557 14.313 13.807 14.313 4.21 0 7.577-.674 11.787-4.21.842 2.357 2.189 3.536 3.873 3.873 2.525.505 7.071 0 8.418-1.01-.168-1.516 0-5.052 1.516-13.807zm-14.817 12.797c-2.02 14.144-3.873 15.66-10.776 15.66-4.715 0-6.399-3.2-5.557-7.41 1.179-5.893 5.557-8.25 16.333-8.25zm212.83-12.797c1.852-10.439-3.705-13.975-14.986-13.975-13.976 0-20.037 6.567-20.037 6.567l4.378 7.24s4.546-5.22 13.638-5.22c5.052 0 5.22 2.526 4.715 5.22l-1.01 6.23c-18.017-.505-27.278 3.368-29.298 15.322-1.684 9.766 5.556 14.313 13.807 14.313 4.21 0 7.577-.674 11.786-4.21.842 2.357 2.19 3.536 3.873 3.873 2.526.505 7.072 0 8.419-1.01-.168-1.516 0-5.052 1.515-13.807zm-14.818 12.797c-2.02 14.144-3.872 15.66-10.776 15.66-4.715 0-6.398-3.2-5.556-7.41 1.01-5.893 5.388-8.25 16.332-8.25zm-158.107 23.068c14.818 0 23.405-10.776 25.762-24.752 3.031-17.174-5.388-24.92-15.827-24.92-4.883 0-8.42.506-11.282 1.853l4.041-23.573H290.6l-12.291 70.55h9.26s1.348-2.862 2.695-2.862c1.01-.169 3.03 3.704 10.102 3.704zm5.22-40.58c6.398 0 9.092 4.379 7.577 15.323-1.515 11.282-7.24 16.333-13.975 16.333-4.21 0-6.567-3.03-5.894-7.577l2.358-14.48c1.01-5.389 4.21-9.598 9.934-9.598zm25.762 19.701c1.852-18.016 9.934-29.13 29.298-29.13 14.312 0 19.026 10.945 17.006 22.563-3.031 18.69-10.44 27.614-28.624 27.614-11.787 0-18.859-9.597-17.68-21.047zm33.339-5.556c.842-4.883 1.852-14.65-6.567-14.65-5.725 0-11.113 3.873-13.47 17.512-1.516 8.25.168 14.986 6.735 14.986 4.714 0 10.776-4.041 13.302-17.848z" fill="#2d2c86" fill-rule="nonzero"/><path d="M147.983 205.004c.169.168.505.337.674.505-.169.169-.169.337-.337.505-2.189-.336-4.378-.505-6.567-.842l-.673-.673.337-.337c2.189.169 4.377.505 6.566.842z" fill="#fff"/><path d="M147.815 205.172c.168.169.505.337.505.337s0-.168.168-.168c-.168-.169-.505-.337-.673-.505-2.189-.337-4.378-.505-6.567-.842l-.337.337s.169 0 .169.168l.168-.168c2.358.336 4.378.673 6.567.841z" fill="#a81815"/><path d="M143.606 201.3c-.506 0-1.18.168-1.18.168l-1.515.842c-.168.337.506.674.506.674s1.852.168 1.852.673c1.347.674 4.21.842 5.556.842-.168-.505-.337-1.01-.673-1.515-.169-.506-.505-1.01-.674-1.347 0-.169-1.01-.337-3.872-.337z" fill="#4f2644" fill-rule="nonzero" opacity=".45"/><path d="M71.79 66.813c1.66 1.66 3.017 3.469 3.921 5.43 3.017 6.183 1.961 12.97-4.072 18.852-6.937 6.787-18.701 11.01-32.426 11.01-13.724 0-25.488-4.223-32.426-11.01C.754 85.213-.302 78.426 2.715 72.243c.905-1.961 2.262-3.77 3.921-5.43-1.96 1.81-3.469 3.469-4.826 6.335-3.017 5.882-1.96 14.327 4.223 20.511 7.088 6.938 18.249 11.16 33.33 11.16 15.234 0 26.244-4.373 33.03-11.16 6.637-6.636 6.938-15.384 4.223-20.662-1.206-2.263-2.714-4.223-4.826-6.184z" fill="url(#a)" fill-rule="nonzero" style="fill:url(#a)" transform="matrix(1.11642 0 0 1.11642 63.794 121.32)"/><path d="M131.482 187.998c-7.072-3.03-15.49-4.546-23.91-4.546-8.418 0-16.837 1.515-23.909 4.546-7.914 3.2-13.975 8.082-16.838 13.975-3.367 6.904-2.189 14.48 4.546 21.048 7.746 7.577 20.88 12.291 36.202 12.291s28.456-4.714 36.2-12.291c6.736-6.567 7.915-14.144 4.547-21.048-2.862-5.893-8.924-10.776-16.838-13.975Z" fill="#ee7203" fill-rule="nonzero"/><path d="M40.42 62.741c-1.207-2.564-1.056-4.977-.754-6.938h-.453c-7.54 0-15.082 1.358-21.416 4.072-7.089 2.866-12.518 7.24-15.082 12.518-3.017 6.184-1.96 12.97 4.072 18.853.452.452.905.754 1.357 1.206 25.489-1.659 38.76-16.59 32.276-29.711Z" fill="url(#b)" fill-rule="nonzero" style="fill:url(#b)" transform="matrix(1.11642 0 0 1.11642 63.794 121.32)"/><path d="M89.22 191.87c5.22 1.348 10.27 2.863 15.49 4.884 1.01-3.031 2.02-6.062 3.368-9.093 1.178 3.031 2.357 6.062 3.367 9.093 5.052-1.853 10.103-3.368 15.323-4.715-3.705 2.357-7.072 4.715-10.44 7.409 7.072.842 13.47 2.02 20.374 3.536-6.903-.169-13.302.168-20.205.505 4.883 4.04 8.924 8.082 13.47 12.46-6.23-3.536-11.955-6.399-18.353-9.43l-3.536 16.165c-1.179-5.388-2.19-10.44-3.368-15.828-6.398 3.031-12.291 5.894-18.69 9.261 4.546-4.378 8.756-8.25 13.639-12.46-6.904-.505-13.47-.505-20.374-.673 6.904-1.516 13.639-2.694 20.71-3.536-3.704-2.863-7.071-5.388-10.776-7.577Zm18.69 9.261v-11.786c-1.18 3.368-2.19 6.567-3.2 9.934 1.179.674 2.19 1.347 3.2 1.852zm-15.66-8.082c4.21 1.852 8.42 4.041 12.46 6.23-1.01.169-2.02.169-3.03.337-3.031-2.189-6.062-4.546-9.43-6.567zm15.66 8.082c8.082 0 16.332.337 24.414 1.18-7.072-1.348-13.975-2.19-21.215-3.032-1.01.674-2.021 1.347-3.2 1.852zm15.827-8.082c-4.21 1.852-8.419 4.041-12.46 6.23-.168-.505-.337-1.178-.505-1.684 4.21-1.683 8.587-3.199 12.965-4.546zm-16.164 8.082c.168 5.725.336 11.787.505 17.343 1.01-5.051 2.189-10.27 3.367-15.322-1.178-.674-2.694-1.347-3.872-2.02zm18.353 11.787c-4.715-3.368-9.598-6.735-14.649-9.766 1.01 0 2.02-.168 3.03-.168 4.042 3.199 7.915 6.566 11.619 9.934zm-18.017-11.787c-8.25.169-14.648.506-22.73 1.18 6.903 0 12.291.336 19.363.841 1.178-.674 2.357-1.347 3.367-2.02zm-17.848 11.787c4.715-3.368 9.598-6.735 14.65-9.766.168.673.336 1.347.504 1.852-5.22 2.526-10.27 5.22-15.154 7.914z" fill="#fff"/><path d="M107.91 187.83c1.178 3.03 2.357 6.061 3.367 9.092 4.883-1.852 9.766-3.368 14.817-4.546.169-.169.337-.169.505-.337-5.22 1.347-10.27 2.862-15.322 4.715-1.01-3.031-2.02-6.062-3.368-9.093-1.178 3.031-2.357 6.062-3.367 9.093-5.051-1.853-10.103-3.536-15.49-4.883.167.168.336.168.504.336a170.81 170.81 0 0 1 14.986 4.715c1.178-3.2 2.189-6.23 3.367-9.092z" fill="#c51a1b"/><path d="M99.49 203.489c-4.714 4.04-9.092 8.082-13.638 12.46.168-.169.505-.337.673-.337 4.378-4.21 8.25-7.745 12.797-11.787v-.336Z" fill="#c8411b"/><path d="M107.91 201.131v.169-.169zM107.741 201.3c-1.179.673-2.189 1.347-3.2 1.852v.168c1.011-.673 2.19-1.347 3.2-2.02v-.169c.168.169.168.169 0 .169z" fill="#c00d0d"/><path d="M104.71 199.28h-.337c-.841.168-1.852.168-2.694.336-3.03-2.357-6.23-4.546-9.429-6.567v.169c3.2 2.02 6.399 4.21 9.43 6.566 1.01-.168 2.02-.168 3.03-.336 1.01.505 1.852 1.01 2.863 1.683h.336a31.278 31.278 0 0 1-3.199-1.852zM90.061 213.255c4.883-2.863 9.935-5.388 15.154-7.914v-.337c-5.051 2.526-10.102 5.051-15.154 7.914z" fill="#c8411b"/><path d="M111.277 203.152c-1.179 5.051-2.357 10.271-3.368 15.322v.169c1.01-5.052 2.19-10.271 3.368-15.323 3.368 2.02 8.419 5.388 14.649 9.935v-.337c-4.715-3.368-9.598-6.735-14.649-9.766ZM116.665 203.657l-.168-.168v.336c4.714 3.873 8.419 7.41 12.796 11.787.169.168.506.337.674.337a221.057 221.057 0 0 0-13.302-12.292Z" fill="#a81815"/><path d="M99.49 199.448c-6.903.842-13.638 2.02-20.542 3.536h1.01c6.567-1.347 12.966-2.526 19.533-3.368zM104.71 203.152c-6.398-.505-12.797-.842-19.363-.842v.168c6.398 0 12.628.337 19.026.842.169 0 .169 0 .337-.168" fill="#c8411b"/><path d="M116.16 199.28c7.072.841 13.47 2.02 20.374 3.535h-1.179a253.43 253.43 0 0 0-19.195-3.199zM107.91 201.131c8.082 0 16.332.337 24.414 1.18v.167c-8.082-.841-15.996-1.178-24.078-1.178 0 0-.168 0-.168-.169 0 .169 0 .169-.169 0h.337M111.277 199.28h.337a135.617 135.617 0 0 1 12.123-6.062v-.169c-4.378 1.852-8.419 4.041-12.46 6.23" fill="#a81815"/><path d="M111.277 199.28c-.168-.506-.337-1.18-.505-1.685v.169l.505 1.515" fill="#c00d0d"/><path d="M108.751 233.797c-.168.168-.505.337-.842.505-.168-.168-.505-.337-.841-.505v-6.735c.168-.169.505-.337.841-.506.169.169.506.337.842.506v6.735zM69.182 217.632c-.168.169-.336.506-.336.674.168.168.673.168.842.337 2.357-1.179 4.714-2.526 6.903-3.705.168-.336.168-.505.168-.841-.168 0-.505-.169-.673-.169-2.189 1.179-4.546 2.526-6.904 3.704zM67.499 203.994c-.169.168-.505.337-.674.505.169.168.169.337.337.505 2.189-.337 4.378-.505 6.567-.842l.673-.673-.337-.337c-2.188.168-4.377.505-6.566.842ZM75.918 192.88c-.169.17-.506.17-.674.338v.505c1.684.168 3.2.505 4.883.842.168-.169.505-.337.674-.337v-.337c-1.684-.505-3.368-.673-4.883-1.01ZM124.916 186.146h.673l.168.168c-.841.505-1.683 1.01-2.525 1.684h-.674c0-.168-.168-.168-.168-.337l2.526-1.515zM107.404 183.789c.169 0 .337-.169.505-.169.169 0 .337.169.506.169v2.02c-.169 0-.337.168-.506.168-.168 0-.336-.168-.505-.168v-2.02zM89.893 186.483s.337-.169.337-.337h.673c.842.505 1.684 1.01 2.526 1.684 0 .168-.168.168-.168.336h-.674c-1.01-.673-1.852-1.178-2.694-1.683zM84.842 229.587c-.337 0-.674 0-1.01.169 0-.169-.169-.505-.337-.674 1.683-2.02 3.199-3.873 4.883-5.725.336 0 .673-.168 1.01-.168 0 .168.168.505.337.673-1.684 1.853-3.368 3.873-4.883 5.725zM146.131 217.632c.169.169.337.506.337.674-.168.168-.674.168-.842.337-2.357-1.179-4.715-2.526-6.903-3.705-.169-.336-.169-.505-.169-.841.169 0 .505-.169.674-.169 2.357 1.179 4.714 2.526 6.903 3.704zM139.564 192.88c.169.17.506.17.674.338v.505c-1.684.168-3.2.505-4.883.842-.168-.169-.505-.337-.674-.337 0-.168 0-.337.169-.337 1.515-.505 3.03-.673 4.714-1.01ZM130.64 229.587c.337 0 .674.169 1.01.169.17-.169.17-.505.337-.674-1.683-2.02-3.199-3.873-4.883-5.725-.336 0-.673-.168-1.01-.168 0 .168-.168.505-.337.673 1.684 1.853 3.368 3.873 4.883 5.725z" fill="#fff"/><path d="M69.182 217.97c0 .168-.168.336-.168.336h-.168c.168-.168.336-.505.336-.674 2.358-1.178 4.715-2.357 6.904-3.535.168 0 .505.168.673.168 0 .168-.168.337-.168.337-.168 0-.505-.169-.673-.169-2.02 1.179-4.378 2.358-6.736 3.536zM67.667 204.33c-.168.169-.505.337-.505.337s0-.168-.168-.168c.168-.168.505-.337.673-.505 2.189-.337 4.378-.505 6.567-.842l.337.337-.169.168-.168-.168c-2.357.168-4.378.505-6.567.842zM75.244 193.554v-.336c.168-.169.505-.169.674-.337 1.683.168 3.199.505 4.714.842v.337s-3.199-.674-4.883-.842c0 .168-.337.168-.505.336z" fill="#ca581a"/><path d="M125.42 186.483c.17 0 .17 0 0 0 .17 0 .17 0 .17-.169l-.17-.168h-.673c-.842.505-1.684 1.01-2.525 1.684l.168.168c.842-.505 1.515-1.01 2.357-1.515h.674z" fill="#a81815"/><path d="M107.404 184.125c.169 0 .337-.168.505-.168.169 0 .337.168.506.168v-.336c-.169 0-.337-.169-.506-.169-.168 0-.336.169-.505.169z" fill="#b6110e"/><path d="M90.903 186.483c.842.505 1.516 1.01 2.358 1.515l.168-.168c-.842-.506-1.684-1.18-2.526-1.684h-.673s-.337.168-.337.337l.168.168.169-.168h.673z" fill="#c8411b"/><path d="M89.388 223.357c.168.169.168.337.337.505l.168-.168c0-.168-.168-.505-.337-.673-.337 0-.673.168-1.01.168-1.684 1.852-3.368 3.873-4.883 5.725 0 .168.168.168.168.337 1.01-1.18 3.368-3.873 4.883-5.894 0 .169.337.169.674 0zM146.131 217.97c0 .168.169.336.169.336h.168c-.168-.168-.337-.505-.337-.674-2.357-1.178-4.714-2.357-6.903-3.535-.169 0-.505.168-.674.168 0 .168.169.337.169.337.168 0 .505-.169.673-.169 2.189 1.179 4.546 2.358 6.735 3.536zM140.238 193.554v-.336c-.168-.169-.505-.169-.674-.337-1.683.168-3.199.505-4.714.842 0 .168 0 .337-.169.337 0 0 3.2-.674 4.883-.842.169.168.506.168.674.336zM126.094 223.357c-.168.169-.168.337-.337.505l-.168-.168c0-.168.168-.505.337-.673.337 0 .673.168 1.01.168 1.684 1.852 3.368 3.873 4.883 5.725 0 .168 0 .168-.168.337-1.01-1.18-3.368-3.873-4.883-5.894 0 .169-.337.169-.674 0zM108.583 227.23l.168 6.398v-6.735c-.168-.168-.505-.337-.842-.505-.168.168-.505.337-.841.505v6.735l.168-6.398c.168-.168.505-.337.673-.337.337.169.506.337.674.337z" fill="#a81815"/><path d="M75.75 203.32c2.862-12.965 20.878-16.837 32.16-16.837 11.28 0 29.297 3.872 32.16 16.837 3.536 16.165-20.374 22.058-32.16 22.058-11.787 0-35.865-6.062-32.16-22.058zm1.178-.168c2.694-12.46 20.037-16.164 30.981-16.164 10.777 0 28.288 3.704 30.982 16.164 3.367 15.49-19.7 21.216-30.982 21.216-11.28 0-34.349-5.725-30.981-21.216z" fill="#c8411b"/><path d="M75.75 203.657c2.862-12.965 20.036-16.838 32.16-16.838 11.954 0 29.297 3.873 32.16 16.838 3.536 16.164-20.543 22.058-32.16 22.058-11.619 0-35.697-5.894-32.16-22.058zm1.178-.168c2.694-12.46 20.037-16.165 30.981-16.165 10.777 0 28.288 3.705 30.982 16.165 3.367 15.49-19.7 21.215-30.982 21.215-11.113 0-34.349-5.725-30.981-21.215z" fill="#fff"/><path d="m146.3 206.351-5.22-.842-.674-.168c-.842-.169-2.525-1.179-3.367-2.189-.842-1.179-2.526-3.2-3.536-4.378-1.347-1.684-4.378-3.199-4.883-3.873-.505-.673-1.179-1.852-1.347-2.357-.169-.505-.674-.842-1.516-.842-.841 0-.841.337-1.515.337-.673 0-1.684-.168-1.684-.168-.336-.169-.673-.169-1.01-.169-.337.674-1.01 1.179-2.694 1.179h-.337c.169.337 1.684.505 1.852.505.169 0 1.684.337 1.853.505.673.169.505-.168 1.515.505 1.684 1.01 4.21 3.705 4.715 5.894.336 1.347 2.525 3.367 2.694 4.546-2.863-.169-6.904-2.19-6.904-2.19l-.505-.168s-1.684-.841-4.378-1.01c-5.051-.505-6.903-1.178-7.409-1.347-1.01-.337-.841-.505-1.683-.505h-.505c-.169.168-.169.337-.506.505-1.01.842-1.515 1.516-2.357 2.863-.168.336-.505.505-1.01.673 1.01-.168 2.862-.673 2.862-.673 1.852-.169 4.546.505 4.546.505 1.01.168 2.695.842 2.695.842s7.24 2.189 8.924 3.536c1.178.841 7.071 3.03 8.755 3.704 1.516.505 5.388 2.694 5.388 2.694 1.01.842 6.735 3.367 8.42 3.873 2.02-3.536 2.693-7.24 2.188-10.777zM132.83 217.97s-.337-.506-2.19-.506c-1.178 0 .506 2.694.506 2.694 1.01.674 4.883 1.852 5.556 1.852.842.169 3.368.842 3.368.842s1.347.169 2.862.674c.168-.169.505-.337.674-.674.841-.842 1.515-1.684 2.188-2.525-3.199 0-7.745-.169-11.113-1.853-.168-.842-1.852-.505-1.852-.505z" fill="#4f2644" fill-rule="nonzero" opacity=".45"/><path d="m123.232 167.793-1.01-1.01c0-.337.336-.843.336-1.348-.168 0-.168-.168-.336-.168-.337-1.01-.506-2.694 0-3.704.168-.506.505-1.01.336-1.684-.842-3.031-2.694-5.557-3.872-8.42-.337-.84-.337-1.346-.337-2.188-1.01-1.01-2.02-3.704-2.526-5.388-1.178 2.862-1.852 6.062-1.852 6.735 0 3.2 3.2 4.715 2.02 9.934-.168 1.01-.673 2.358-1.01 3.873.674 3.704.674 6.23 1.684 10.44 1.347 1.346 2.526 3.03 3.03 5.22.338 1.346 1.516 4.545 3.032 5.05.842.337-3.031 1.01-4.21-.336-1.01-1.347-3.03-2.526-3.872-3.873-.674-1.179-1.853-3.536-2.526-4.715l-.842 4.547c1.179 4.714.505 5.893-.505 9.766-.505 1.683-3.873-6.23-3.873-6.735 0-1.684-.168-2.358-.505-3.873-.674-1.347-.674-3.368-.505-4.883.168-2.526.168-7.24.168-8.419-.842-2.02-3.03-5.893-3.199-8.082-.337-3.368.168-6.735-.168-9.934-.505 1.683-1.179 3.704-2.526 5.05-1.852 1.853-3.704 4.042-5.388 6.062-.674.842 0 1.347-1.01 2.695-1.01 1.347-.505.673-.674 2.02 0 .168-.168.337-.168.505-.505.169-1.01.505-1.852.169-1.347-.674-1.516-1.853-1.684-3.2-.169-2.525 1.684-2.694 2.862-4.21 2.19-3.03 3.2-8.25 5.557-10.607.168-.505.673-2.189 1.684-4.546 0-3.03.841-5.725 3.872-7.072 1.347-.505 3.031-.673 3.031-2.357 0-.169 0-.842-.168-1.01-.506-.337-.842-.506-1.179-.674-.337-.674-.842-4.883-.842-5.051.674-3.536 2.526-4.715 4.546-4.715 2.694.168 4.715 1.347 4.715 4.715-.169 2.694-3.03 6.398 1.347 7.745 1.684.505 2.02.168 3.367 1.515 1.516 1.516 2.021 4.378 2.19 7.072l1.683 3.705c2.863 4.883 1.852 6.566 3.03 11.618.338 1.347.843 2.525.843 5.388-.169 1.178-1.179 4.21-2.694 4.378z" fill="#fab650" fill-rule="nonzero"/><path d="M25.79 38.308c.151-1.206 0-1.056.754-2.111.754-1.056.302-1.508 1.056-2.413a83.19 83.19 0 0 1 4.675-5.58c1.207-1.207 2.715-5.129 3.017-6.486 0-.15.15-.302.301-.15.302 2.563.604 4.825.453 7.39-.15 5.429 0 4.826 2.262 9.953.151-1.96.603-4.977 1.81-6.032-1.357 5.278-1.508 12.82-1.659 15.082 0 1.206-.452 3.016.15 4.072.152.754.152 1.81.152 2.715v9.2l-.754 3.92c-.302 1.207-1.81 3.168-2.866 3.771-.302.151-1.207.604-1.207 1.056 0 .603 4.073 1.81 5.128.453.754-1.056 1.358-1.66 2.112-2.564 1.357-1.207-.151-2.564 0-4.223.301-2.866 1.508-5.43 1.96-8.295.302-1.66.151-3.168-.603-4.977l.603-5.28c.604.906 1.207 2.414 1.81 3.62C46 53.542 46 53.844 47.81 55.503c.603.603 1.206 1.357 1.659 1.96.905 1.358 1.357 2.715 1.357 4.223-.603 1.056-.905 1.056-1.659 1.66 0 0-.15.603.603.603 2.715 0 2.414-1.358 3.319-3.168.603-1.206 2.563-3.016.452-3.62-.603-.15-1.207-.603-1.659-1.206-1.357-2.413-1.508-2.262-2.262-4.524-.453-1.358-1.358-2.414-2.413-3.319-.604-1.508-.905-2.563-1.207-4.222-.302-2.112-.452-3.771-.905-5.882 1.056-4.073 1.508-4.977-.15-9.05-.453-.905-.604-1.96-.604-3.016 0-1.357.754-4.374 1.508-5.882.302-.603.603-1.207 1.056-1.357.452 1.659 1.96 4.977 2.715 5.73 0 .604 0 1.358.301 1.961 1.056 2.564 2.715 4.977 3.47 7.692.3.905-.152 1.358-.302 2.112-.151.301-.151 1.357 0 2.262l.301.15c0 .302-.301.906-.301 1.207 0 .302.452.604.452.604.603-.151 1.508-2.263 1.357-3.168-.15-2.714-.603-3.77-.754-4.675-.905-4.525-.301-5.731-2.865-10.105l-1.509-3.167c-.15-1.81-.904-5.882-3.167-6.636-.452-.151-.754-.151-1.357-.302-3.016-1.056-3.016-3.318-2.262-5.882.754-2.262.754-4.977-2.564-5.128-2.112-.15-2.715 1.509-3.168 3.318 0 .151.151 3.168.604 3.922.905.603 1.357.452 1.357 2.111 0 1.358-.905 2.262-2.111 2.564-1.961.754-2.866 1.056-3.62 3.017-.15.603-.452 1.508-.452 2.865v.15c-.604 1.358-1.207 3.017-1.66 4.375-2.413 2.413-3.62 7.842-6.032 10.105-1.66 1.508-2.112 1.659-1.508 3.92 0 .303.754.906 1.055.906.151.15.905-.302.905-.302z" fill="url(#c)" fill-rule="nonzero" style="fill:url(#c)" transform="matrix(1.11642 0 0 1.11642 63.794 121.32)"/></g></svg>