<svg width="640" height="360" xmlns="http://www.w3.org/2000/svg"><defs><linearGradient x1="-.05%" y1="50.064%" x2="100.007%" y2="50.064%" id="a"><stop stop-color="#CA581A" offset="0%"/><stop stop-color="#6E2E2B" offset="100%"/></linearGradient><linearGradient x1="-18.006%" y1="60.743%" x2="99.789%" y2="42.163%" id="b"><stop stop-color="#FFE07D" offset="0%"/><stop stop-color="#EE7203" offset="100%"/></linearGradient><linearGradient x1="42.465%" y1="33.862%" x2="59.164%" y2="72.448%" id="c"><stop stop-color="#2D2C86" offset="0%"/><stop stop-color="#282674" offset="100%"/></linearGradient></defs><g fill="none" fill-rule="evenodd"><path d="M404.459 188.17c-1.508 9.652-6.485 14.629-12.367 14.629-3.77 0-5.882-2.715-5.279-6.787l2.112-12.97c.754-4.827 3.77-8.597 8.898-8.597 5.43 0 8.144 3.921 6.636 13.724Zm-20.511 19.153c.754 0 2.714 3.319 9.049 3.319 13.272 0 20.964-9.653 23.075-22.171 2.715-15.384-4.826-22.321-14.177-22.321-4.374 0-7.692.452-10.105 1.659l3.62-21.115h-11.16l-11.01 63.193h8.294c0 .151 1.207-2.564 2.414-2.564Zm118.091-26.845c1.66-9.502-1.81-14.177-12.216-14.177-7.692 0-10.708 3.468-13.574 6.334l.302-5.279h-10.256l-.754 7.843-5.882 34.84h11.311l3.62-22.624c1.358-7.842 6.636-13.724 11.764-13.724 5.58 0 5.58 3.167 4.676 8.144l-4.827 28.203h11.16l4.676-29.56Zm46.754-14.177h-13.12l-15.083 15.986h-.15l6.032-35.291h-10.859l-11.01 63.042h11.16l1.057-6.334 2.262-13.876c5.882 0 9.2.604 11.764 12.368l1.81 7.842h11.311s-2.865-11.915-4.675-16.59c-1.96-4.977-4.072-8.144-8.597-9.05l18.098-18.097Zm-322.15 15.534c8.144-1.81 12.367-8.295 13.423-12.669 2.865-11.764-2.263-20.964-17.345-20.813h-17.193l-10.708 61.534h11.311l4.525-24.583c10.255-.302 11.613 2.262 13.574 14.177l1.81 10.557h11.612c-1.357-6.334-2.262-12.367-3.318-17.193-1.206-5.128-3.016-9.05-7.842-10.86l.15-.15Zm2.262-14.78c-.905 5.43-5.128 9.35-10.407 9.35h-6.636l3.47-19.455h6.032c7.088 0 8.446 4.675 7.54 10.105Zm50.525 11.613c1.659-9.351-3.319-12.518-13.423-12.518-12.518 0-17.948 5.882-17.948 5.882l3.921 6.485s4.072-4.675 12.217-4.675c4.524 0 4.675 2.262 4.223 4.675l-.905 5.58c-16.138-.452-24.433 3.017-26.243 13.725-1.508 8.747 4.977 12.82 12.367 12.82 3.77 0 6.787-.604 10.558-3.771.754 2.112 1.96 3.167 3.469 3.469 2.262.452 6.334 0 7.54-.905-.15-1.357 0-4.525 1.358-12.367l2.866-18.4Zm-13.273 11.462c-1.81 12.669-3.468 14.026-9.652 14.026-4.223 0-5.731-2.865-4.977-6.636 1.056-5.278 4.977-7.39 14.63-7.39Zm190.636-11.462c1.66-9.351-3.318-12.518-13.423-12.518-12.518 0-17.947 5.882-17.947 5.882l3.921 6.485s4.072-4.675 12.217-4.675c4.524 0 4.675 2.262 4.223 4.675l-.905 5.58c-16.138-.452-24.433 3.017-26.243 13.725-1.508 8.747 4.977 12.82 12.367 12.82 3.77 0 6.787-.604 10.558-3.771.754 2.112 1.96 3.167 3.469 3.469 2.262.452 6.334 0 7.54-.905-.15-1.357 0-4.525 1.358-12.367l2.865-18.4Zm-13.272 11.462c-1.81 12.669-3.469 14.026-9.652 14.026-4.223 0-5.731-2.865-4.977-6.636.905-5.278 4.826-7.39 14.63-7.39Zm-141.62 20.662c13.273 0 20.965-9.652 23.076-22.17 2.715-15.384-4.826-22.321-14.177-22.321-4.374 0-7.541.452-10.105 1.659l3.62-21.115h-11.16l-11.01 63.193h8.294s1.207-2.564 2.413-2.564c.905-.15 2.715 3.318 9.05 3.318Zm4.676-36.347c5.731 0 8.144 3.921 6.787 13.724-1.357 10.105-6.485 14.63-12.518 14.63-3.77 0-5.882-2.715-5.279-6.787l2.112-12.97c.905-4.827 3.77-8.597 8.898-8.597Zm23.075 17.646c1.66-16.138 8.899-26.092 26.243-26.092 12.82 0 17.043 9.803 15.233 20.21-2.715 16.74-9.351 24.734-25.64 24.734-10.557 0-16.891-8.597-15.836-18.852Zm29.863-4.977c.754-4.374 1.659-13.122-5.882-13.122-5.128 0-9.954 3.47-12.066 15.686-1.357 7.39.151 13.423 6.033 13.423 4.223 0 9.652-3.62 11.915-15.987Z" fill="#2D2C86" fill-rule="nonzero"/><path d="M165.41 201.29c.15.152.452.302.603.453-.15.151-.15.302-.302.453-1.96-.302-3.92-.453-5.881-.754l-.604-.604.302-.301c1.96.15 3.921.452 5.882.754Z" fill="#FFF"/><path d="M165.259 201.442c.15.15.452.301.452.301s0-.15.151-.15c-.15-.151-.452-.302-.603-.453-1.96-.302-3.921-.453-5.882-.754l-.302.301s.151 0 .151.151l.151-.15c2.112.301 3.921.603 5.882.754Z" fill="#A81815"/><path d="M161.489 197.973c-.453 0-1.056.15-1.056.15l-1.358.755c-.15.301.453.603.453.603s1.659.15 1.659.603c1.206.603 3.77.754 4.977.754-.15-.452-.302-.905-.603-1.357-.151-.453-.453-.905-.604-1.207 0-.15-.905-.301-3.468-.301Z" fill="#4F2644" fill-rule="nonzero" opacity=".45"/><path d="M71.79 66.813c1.66 1.66 3.017 3.469 3.921 5.43 3.017 6.183 1.961 12.97-4.072 18.852-6.937 6.787-18.701 11.01-32.426 11.01-13.724 0-25.488-4.223-32.426-11.01C.754 85.213-.302 78.426 2.715 72.243c.905-1.961 2.262-3.77 3.921-5.43-1.96 1.81-3.469 3.469-4.826 6.335-3.017 5.882-1.96 14.327 4.223 20.511 7.088 6.938 18.249 11.16 33.33 11.16 15.234 0 26.244-4.373 33.03-11.16 6.637-6.636 6.938-15.384 4.223-20.662-1.206-2.263-2.714-4.223-4.826-6.184Z" fill="url(#a)" fill-rule="nonzero" transform="translate(90 126.333)"/><path d="M150.63 186.058c-6.335-2.715-13.876-4.072-21.417-4.072-7.54 0-15.082 1.357-21.416 4.072-7.089 2.865-12.518 7.24-15.082 12.518-3.017 6.184-1.96 12.97 4.072 18.852 6.938 6.787 18.702 11.01 32.426 11.01 13.725 0 25.489-4.223 32.426-11.01 6.033-5.882 7.089-12.668 4.072-18.852-2.563-5.279-7.993-9.653-15.081-12.518Z" fill="#EE7203" fill-rule="nonzero"/><path d="M40.42 62.741c-1.207-2.564-1.056-4.977-.754-6.938h-.453c-7.54 0-15.082 1.358-21.416 4.072-7.089 2.866-12.518 7.24-15.082 12.518-3.017 6.184-1.96 12.97 4.072 18.853.452.452.905.754 1.357 1.206 25.489-1.659 38.76-16.59 32.276-29.711Z" fill="url(#b)" fill-rule="nonzero" transform="translate(90 126.333)"/><path d="M112.774 189.527c4.675 1.206 9.2 2.564 13.875 4.374.905-2.715 1.81-5.43 3.017-8.145 1.055 2.715 2.111 5.43 3.016 8.145 4.525-1.66 9.05-3.017 13.725-4.223-3.318 2.111-6.335 4.223-9.351 6.636 6.334.754 12.065 1.81 18.249 3.167-6.184-.15-11.915.15-18.098.452 4.373 3.62 7.993 7.24 12.065 11.161-5.58-3.167-10.708-5.731-16.44-8.446l-3.166 14.479c-1.056-4.826-1.961-9.351-3.017-14.177-5.731 2.714-11.01 5.278-16.74 8.295 4.071-3.922 7.842-7.39 12.216-11.16-6.184-.453-12.066-.453-18.25-.604 6.184-1.358 12.217-2.413 18.551-3.167-3.318-2.564-6.334-4.827-9.652-6.787Zm16.74 8.295v-10.558a202.942 202.942 0 0 0-2.865 8.899c1.056.603 1.96 1.206 2.866 1.659Zm-14.025-7.24c3.77 1.66 7.54 3.62 11.16 5.58-.905.152-1.81.152-2.715.302-2.714-1.96-5.43-4.072-8.445-5.881Zm14.026 7.24c7.24 0 14.63.301 21.869 1.056-6.335-1.207-12.518-1.961-19.004-2.715-.905.603-1.81 1.206-2.865 1.659Zm14.177-7.24c-3.77 1.66-7.541 3.62-11.16 5.58-.152-.452-.302-1.055-.453-1.507 3.77-1.509 7.691-2.866 11.613-4.072Zm-14.479 7.24c.15 5.128.302 10.557.453 15.534.904-4.524 1.96-9.2 3.016-13.724-1.056-.604-2.413-1.207-3.469-1.81Zm16.44 10.557c-4.223-3.016-8.597-6.033-13.122-8.747.905 0 1.81-.151 2.715-.151 3.62 2.865 7.088 5.882 10.406 8.898Zm-16.138-10.557c-7.39.15-13.122.452-20.36 1.056 6.183 0 11.009.301 17.343.754 1.056-.604 2.112-1.207 3.017-1.81Zm-15.987 10.557c4.223-3.016 8.597-6.033 13.121-8.747.151.603.302 1.206.453 1.659-4.676 2.262-9.2 4.675-13.574 7.088Z" fill="#FFF"/><path d="M129.515 185.907c1.055 2.715 2.111 5.43 3.016 8.144 4.374-1.659 8.748-3.016 13.272-4.072.151-.15.302-.15.453-.301-4.676 1.206-9.2 2.564-13.725 4.223-.905-2.715-1.81-5.43-3.016-8.145-1.056 2.715-2.112 5.43-3.017 8.145-4.524-1.66-9.049-3.168-13.875-4.374.15.15.302.15.452.301a152.998 152.998 0 0 1 13.423 4.223c1.056-2.865 1.961-5.58 3.017-8.144Z" fill="#C51A1B"/><path d="M121.974 199.933c-4.223 3.62-8.144 7.24-12.217 11.161.151-.15.453-.302.604-.302 3.921-3.77 7.39-6.937 11.462-10.557v-.302h.15Z" fill="#C8411B"/><path d="M129.515 197.822v.15-.15ZM129.364 197.973c-1.056.603-1.96 1.206-2.866 1.659v.15c.905-.603 1.961-1.206 2.866-1.81v-.15c.15.15.15.15 0 .15Z" fill="#C00D0D"/><path d="M126.65 196.163h-.302c-.755.15-1.66.15-2.414.301-2.714-2.111-5.58-4.072-8.445-5.881v.15c2.865 1.81 5.73 3.77 8.445 5.882.905-.15 1.81-.15 2.715-.301.905.452 1.66.905 2.564 1.508h.302a28.016 28.016 0 0 1-2.866-1.66ZM113.528 208.68c4.374-2.563 8.898-4.825 13.574-7.088v-.301c-4.525 2.262-9.05 4.524-13.574 7.088v.302Z" fill="#C8411B"/><path d="M132.531 199.632c-1.056 4.524-2.111 9.2-3.016 13.724v.151c.905-4.524 1.96-9.2 3.016-13.724 3.017 1.81 7.541 4.826 13.121 8.898v-.302c-4.222-3.016-8.596-6.033-13.12-8.747ZM137.357 200.084l-.15-.15v.301c4.223 3.469 7.54 6.636 11.462 10.557.15.151.452.302.603.302a198.005 198.005 0 0 0-11.915-11.01Z" fill="#A81815"/><path d="M121.974 196.314c-6.184.754-12.217 1.81-18.4 3.167h.905c5.882-1.207 11.613-2.262 17.495-3.017v-.15ZM126.65 199.632c-5.732-.453-11.463-.754-17.345-.754v.15c5.731 0 11.311.302 17.043.755.15 0 .15 0 .301-.151" fill="#C8411B"/><path d="M136.905 196.163c6.334.754 12.065 1.81 18.25 3.167h-1.057a227.002 227.002 0 0 0-17.193-2.866v-.301ZM129.515 197.822c7.24 0 14.63.301 21.869 1.056v.15c-7.24-.754-14.328-1.055-21.568-1.055 0 0-.15 0-.15-.151 0 .15 0 .15-.151 0h.301M132.531 196.163h.302c3.469-1.96 7.088-3.77 10.859-5.43v-.15c-3.922 1.659-7.541 3.62-11.16 5.58" fill="#A81815"/><path d="M132.531 196.163c-.15-.453-.301-1.056-.452-1.508v.15l.452 1.358" fill="#C00D0D"/><path d="M130.269 227.08c-.151.152-.453.303-.754.453-.151-.15-.453-.301-.754-.452v-6.033c.15-.15.452-.302.754-.452.15.15.452.301.754.452v6.033ZM94.826 212.602c-.15.151-.301.453-.301.603.15.151.603.151.754.302 2.111-1.056 4.223-2.262 6.183-3.318.151-.302.151-.452.151-.754-.15 0-.452-.15-.603-.15-1.96 1.055-4.072 2.261-6.184 3.317ZM93.318 200.386c-.15.15-.452.301-.603.452.15.151.15.302.301.453 1.961-.302 3.922-.453 5.882-.754l.604-.604-.302-.301c-1.96.15-3.921.452-5.882.754ZM100.859 190.432c-.15.15-.452.15-.603.301v.453c1.508.15 2.865.452 4.374.754.15-.15.452-.302.603-.302v-.301c-1.508-.453-3.017-.604-4.374-.905ZM144.748 184.399h.603l.15.15c-.753.453-1.508.906-2.262 1.509h-.603c0-.15-.15-.15-.15-.302l2.262-1.357ZM129.062 182.287c.151 0 .302-.15.453-.15.15 0 .301.15.452.15v1.81c-.15 0-.301.151-.452.151-.151 0-.302-.15-.453-.15v-1.81ZM113.377 184.7s.302-.15.302-.301h.603c.754.452 1.508.905 2.262 1.508 0 .15-.15.15-.15.302h-.604c-.905-.604-1.659-1.056-2.413-1.508ZM108.852 223.31c-.301 0-.603 0-.904.151 0-.15-.151-.452-.302-.603 1.508-1.81 2.865-3.469 4.374-5.128.301 0 .603-.15.905-.15 0 .15.15.452.301.603-1.508 1.659-3.016 3.468-4.374 5.127ZM163.75 212.602c.152.151.302.453.302.603-.15.151-.603.151-.754.302-2.111-1.056-4.223-2.262-6.183-3.318-.151-.302-.151-.452-.151-.754.15 0 .452-.15.603-.15 2.112 1.055 4.223 2.261 6.184 3.317ZM157.869 190.432c.15.15.452.15.603.301v.453c-1.508.15-2.865.452-4.374.754-.15-.15-.452-.302-.603-.302 0-.15 0-.301.15-.301 1.358-.453 2.716-.604 4.224-.905ZM149.875 223.31c.302 0 .604.151.905.151.151-.15.151-.452.302-.603-1.508-1.81-2.866-3.469-4.374-5.128-.301 0-.603-.15-.905-.15 0 .15-.15.452-.301.603 1.508 1.659 3.016 3.468 4.373 5.127Z" fill="#FFF"/><path d="M94.826 212.904c0 .15-.15.301-.15.301h-.151c.15-.15.301-.452.301-.603 2.112-1.056 4.223-2.111 6.184-3.167.15 0 .452.15.603.15 0 .152-.15.302-.15.302-.152 0-.453-.15-.604-.15-1.81 1.055-3.921 2.111-6.033 3.167ZM93.469 200.687c-.151.151-.453.302-.453.302s0-.15-.15-.15c.15-.152.452-.302.603-.453 1.96-.302 3.921-.453 5.882-.754l.301.301-.15.151-.151-.15c-2.112.15-3.921.452-5.882.753ZM100.256 191.035v-.302c.15-.15.452-.15.603-.301 1.508.15 2.866.452 4.223.754v.301s-2.866-.603-4.374-.754c0 .151-.301.151-.452.302Z" fill="#CA581A"/><path d="M145.2 184.7c.15 0 .15 0 0 0 .15 0 .15 0 .15-.15l-.15-.151h-.603c-.754.452-1.508.905-2.263 1.508l.151.15c.754-.452 1.358-.904 2.112-1.356h.603Z" fill="#A81815"/><path d="M129.062 182.59c.151 0 .302-.152.453-.152.15 0 .301.151.452.151v-.302c-.15 0-.301-.15-.452-.15-.151 0-.302.15-.453.15v.302Z" fill="#B6110E"/><path d="M114.282 184.7c.754.453 1.357.905 2.111 1.358l.151-.15c-.754-.453-1.508-1.057-2.262-1.51h-.603s-.302.152-.302.303l.15.15.152-.15h.603Z" fill="#C8411B"/><path d="M112.925 217.73c.15.15.15.302.301.453l.151-.151c0-.151-.15-.453-.302-.604-.301 0-.603.151-.905.151-1.508 1.66-3.016 3.47-4.373 5.128 0 .15.15.15.15.302.905-1.056 3.017-3.47 4.374-5.279 0 .15.302.15.604 0ZM163.75 212.904c0 .15.152.301.152.301h.15c-.15-.15-.301-.452-.301-.603-2.112-1.056-4.223-2.111-6.184-3.167-.15 0-.452.15-.603.15 0 .152.15.302.15.302.152 0 .453-.15.604-.15 1.96 1.055 4.072 2.111 6.033 3.167ZM158.472 191.035v-.302c-.15-.15-.452-.15-.603-.301-1.508.15-2.866.452-4.223.754 0 .15 0 .301-.15.301 0 0 2.865-.603 4.373-.754.15.151.452.151.603.302ZM145.803 217.73c-.15.15-.15.302-.301.453l-.151-.151c0-.151.15-.453.301-.604.302 0 .604.151.905.151 1.509 1.66 3.017 3.47 4.374 5.128 0 .15 0 .15-.15.302-.906-1.056-3.017-3.47-4.374-5.279 0 .15-.302.15-.604 0ZM130.118 221.199l.15 5.731v-6.033c-.15-.15-.452-.301-.753-.452-.151.15-.453.301-.754.452v6.033l.15-5.731c.151-.15.453-.302.604-.302.301.151.452.302.603.302Z" fill="#A81815"/><path d="M100.708 199.783c2.564-11.614 18.702-15.082 28.807-15.082 10.105 0 26.242 3.468 28.806 15.082 3.168 14.478-18.249 19.757-28.806 19.757-10.558 0-32.125-5.43-28.807-19.757Zm1.056-.151c2.413-11.161 17.947-14.479 27.75-14.479 9.653 0 25.338 3.318 27.752 14.479 3.016 13.875-17.646 19.003-27.751 19.003s-30.767-5.128-27.751-19.003Z" fill="#C8411B"/><path d="M100.708 200.084c2.564-11.613 17.948-15.082 28.807-15.082 10.708 0 26.242 3.469 28.806 15.082 3.168 14.479-18.4 19.758-28.806 19.758-10.407 0-31.974-5.28-28.807-19.758Zm1.056-.15c2.413-11.161 17.947-14.48 27.75-14.48 9.653 0 25.338 3.319 27.752 14.48 3.016 13.875-17.646 19.003-27.751 19.003-9.954 0-30.767-5.128-27.751-19.004Z" fill="#FFF"/><path d="m163.902 202.497-4.676-.754-.603-.15c-.754-.151-2.262-1.056-3.016-1.961-.755-1.056-2.263-2.866-3.168-3.922-1.206-1.508-3.921-2.865-4.373-3.468-.453-.604-1.056-1.66-1.207-2.112-.15-.452-.603-.754-1.357-.754s-.754.302-1.358.302c-.603 0-1.508-.151-1.508-.151-.302-.151-.603-.151-.905-.151-.301.603-.905 1.056-2.413 1.056h-.302c.151.301 1.509.452 1.66.452.15 0 1.508.302 1.658.453.604.15.453-.151 1.358.452 1.508.905 3.77 3.318 4.223 5.279.301 1.206 2.262 3.016 2.413 4.072-2.564-.15-6.184-1.96-6.184-1.96l-.452-.152s-1.508-.754-3.922-.905c-4.524-.452-6.183-1.055-6.636-1.206-.904-.302-.754-.453-1.508-.453h-.452c-.151.151-.151.302-.453.453-.905.754-1.357 1.357-2.111 2.564-.151.302-.453.452-.905.603.905-.15 2.564-.603 2.564-.603 1.659-.15 4.072.452 4.072.452.905.151 2.413.754 2.413.754s6.485 1.961 7.994 3.168c1.055.754 6.334 2.714 7.842 3.318 1.358.452 4.826 2.413 4.826 2.413.905.754 6.033 3.016 7.541 3.469 1.81-3.168 2.413-6.486 1.961-9.653l-3.016-.905ZM151.836 212.904s-.302-.453-1.96-.453c-1.056 0 .452 2.413.452 2.413.905.604 4.374 1.66 4.977 1.66.754.15 3.016.754 3.016.754s1.207.15 2.564.603c.151-.15.453-.302.604-.603.754-.755 1.357-1.509 1.96-2.263-2.865 0-6.938-.15-9.954-1.659-.15-.754-1.659-.452-1.659-.452Z" fill="#4F2644" fill-rule="nonzero" opacity=".45"/><path d="m143.24 167.96-.906-.905c0-.302.302-.754.302-1.207-.15 0-.15-.15-.302-.15-.301-.906-.452-2.414 0-3.319.151-.452.453-.905.302-1.508-.754-2.715-2.413-4.977-3.469-7.54-.301-.755-.301-1.208-.301-1.962-.905-.905-1.81-3.318-2.263-4.826-1.055 2.564-1.659 5.43-1.659 6.033 0 2.866 2.866 4.223 1.81 8.898-.15.905-.603 2.112-.905 3.47.603 3.317.603 5.58 1.508 9.35 1.207 1.207 2.263 2.715 2.715 4.675.302 1.207 1.358 4.073 2.715 4.525.754.302-2.715.905-3.77-.302-.906-1.206-2.715-2.262-3.47-3.469-.603-1.055-1.658-3.167-2.262-4.222l-.754 4.072c1.056 4.223.453 5.278-.452 8.747-.453 1.508-3.47-5.58-3.47-6.033 0-1.508-.15-2.111-.452-3.468-.603-1.207-.603-3.017-.452-4.374.15-2.262.15-6.485.15-7.541-.753-1.81-2.714-5.279-2.865-7.24-.301-3.016.151-6.032-.15-8.898-.453 1.508-1.056 3.318-2.263 4.525-1.659 1.659-3.318 3.62-4.826 5.43-.603.753 0 1.206-.905 2.412-.905 1.207-.453.604-.603 1.81 0 .151-.151.302-.151.453-.453.15-.905.452-1.66.15-1.206-.603-1.357-1.659-1.507-2.865-.151-2.262 1.508-2.413 2.564-3.77 1.96-2.715 2.865-7.39 4.977-9.502.15-.453.603-1.96 1.508-4.072 0-2.715.754-5.128 3.469-6.335 1.206-.452 2.714-.603 2.714-2.111 0-.151 0-.754-.15-.905-.453-.302-.755-.453-1.056-.603-.302-.604-.754-4.374-.754-4.525.603-3.167 2.262-4.223 4.072-4.223 2.413.15 4.223 1.207 4.223 4.223-.151 2.413-2.715 5.731 1.206 6.938 1.509.452 1.81.15 3.017 1.357 1.357 1.357 1.81 3.921 1.96 6.334l1.509 3.318c2.564 4.374 1.659 5.882 2.714 10.407.302 1.207.754 2.262.754 4.826-.15 1.056-1.055 3.77-2.413 3.922Z" fill="#FAB650" fill-rule="nonzero"/><path d="M25.79 38.308c.151-1.206 0-1.056.754-2.111.754-1.056.302-1.508 1.056-2.413a83.19 83.19 0 0 1 4.675-5.58c1.207-1.207 2.715-5.129 3.017-6.486 0-.15.15-.302.301-.15.302 2.563.604 4.825.453 7.39-.15 5.429 0 4.826 2.262 9.953.151-1.96.603-4.977 1.81-6.032-1.357 5.278-1.508 12.82-1.659 15.082 0 1.206-.452 3.016.15 4.072.152.754.152 1.81.152 2.715v9.2l-.754 3.92c-.302 1.207-1.81 3.168-2.866 3.771-.302.151-1.207.604-1.207 1.056 0 .603 4.073 1.81 5.128.453.754-1.056 1.358-1.66 2.112-2.564 1.357-1.207-.151-2.564 0-4.223.301-2.866 1.508-5.43 1.96-8.295.302-1.66.151-3.168-.603-4.977l.603-5.28c.604.906 1.207 2.414 1.81 3.62C46 53.542 46 53.844 47.81 55.503c.603.603 1.206 1.357 1.659 1.96.905 1.358 1.357 2.715 1.357 4.223-.603 1.056-.905 1.056-1.659 1.66 0 0-.15.603.603.603 2.715 0 2.414-1.358 3.319-3.168.603-1.206 2.563-3.016.452-3.62-.603-.15-1.207-.603-1.659-1.206-1.357-2.413-1.508-2.262-2.262-4.524-.453-1.358-1.358-2.414-2.413-3.319-.604-1.508-.905-2.563-1.207-4.222-.302-2.112-.452-3.771-.905-5.882 1.056-4.073 1.508-4.977-.15-9.05-.453-.905-.604-1.96-.604-3.016 0-1.357.754-4.374 1.508-5.882.302-.603.603-1.207 1.056-1.357.452 1.659 1.96 4.977 2.715 5.73 0 .604 0 1.358.301 1.961 1.056 2.564 2.715 4.977 3.47 7.692.3.905-.152 1.358-.302 2.112-.151.301-.151 1.357 0 2.262l.301.15c0 .302-.301.906-.301 1.207 0 .302.452.604.452.604.603-.151 1.508-2.263 1.357-3.168-.15-2.714-.603-3.77-.754-4.675-.905-4.525-.301-5.731-2.865-10.105l-1.509-3.167c-.15-1.81-.904-5.882-3.167-6.636-.452-.151-.754-.151-1.357-.302-3.016-1.056-3.016-3.318-2.262-5.882.754-2.262.754-4.977-2.564-5.128-2.112-.15-2.715 1.509-3.168 3.318 0 .151.151 3.168.604 3.922.905.603 1.357.452 1.357 2.111 0 1.358-.905 2.262-2.111 2.564-1.961.754-2.866 1.056-3.62 3.017-.15.603-.452 1.508-.452 2.865v.15c-.604 1.358-1.207 3.017-1.66 4.375-2.413 2.413-3.62 7.842-6.032 10.105-1.66 1.508-2.112 1.659-1.508 3.92 0 .303.754.906 1.055.906.151.15.905-.302.905-.302Z" fill="url(#c)" fill-rule="nonzero" transform="translate(90 126.333)"/></g></svg>