<svg xmlns="http://www.w3.org/2000/svg" xml:space="preserve" width="512" height="512"><path d="M256.476 187.311c-2.944-5.668-6.908-10.884-12.403-15.796 4.265 4.276 7.738 8.931 10.202 13.93 7.846 15.944 4.965 33.533-10.669 48.874-17.918 17.579-48.425 28.393-83.843 28.396-35.421-.003-65.925-10.816-83.846-28.396-15.633-15.341-18.515-32.93-10.668-48.874 2.462-4.999 5.895-9.616 10.166-13.941-5.004 4.834-8.952 9.114-12.542 16.298-7.656 15.324-5.208 37.221 10.958 53.086 18.372 18.031 47.102 28.893 86.225 28.893 39.235 0 67.964-11.188 85.574-28.893 17.264-17.358 17.929-39.952 10.846-53.577z" style="fill:#fff" transform="matrix(1.91362 0 0 1.91362 -49.614 -4.257)"/><path d="M255.473 185.432c-6.884-13.958-21.169-25.282-39.547-32.908-16.801-6.966-36.336-10.539-56.164-10.541-19.83.002-39.365 3.575-56.167 10.541-18.38 7.626-32.662 18.95-39.544 32.908-2.835 5.761-4.305 11.748-4.305 17.773-.002 11.008 4.908 22.104 15.171 32.173 18.212 17.853 49.067 28.758 84.846 28.767 35.78-.009 66.633-10.914 84.843-28.767 10.263-10.067 15.172-21.164 15.166-32.173-.001-6.023-1.466-12.013-4.299-17.773zm-11.782 49.014c-17.863 17.528-48.412 28.39-83.929 28.39-35.518 0-66.069-10.861-83.932-28.39-10.07-9.889-14.775-20.633-14.777-31.241 0-5.813 1.415-11.598 4.169-17.194 6.676-13.563 20.687-24.741 38.875-32.282 16.614-6.888 35.993-10.438 55.666-10.438 19.667 0 39.046 3.55 55.665 10.438 18.184 7.542 32.199 18.719 38.872 32.282 2.756 5.597 4.171 11.381 4.171 17.194-.003 10.61-4.71 21.354-14.78 31.241z" style="fill:#fff" transform="matrix(1.91362 0 0 1.91362 -49.614 -4.257)"/><path fill-rule="evenodd" d="M285.712 160.906c9.594 2.437 18.713 5.34 27.991 8.766 1.836-5.515 3.788-10.996 6.017-16.372 2.23 5.37 3.16 10.847 4.994 16.36 9.278-3.422 18.893-6.056 28.488-8.488-6.746 4.233-12.351 8.453-18.602 13.37 12.679 1.618 24.544 3.718 37.035 6.419-12.447-.272-24.171.17-36.595.968 8.767 7.427 16.272 14.615 24.419 22.703-11.17-6.379-21.653-11.735-33.287-17.234-2.258 9.73-4.387 19.49-6.444 29.264-2.057-9.77-3.946-19.068-6.202-28.794-11.637 5.493-22.222 10.727-33.757 16.848 8.154-8.085 15.875-15.096 24.647-22.52-12.432-.803-24.35-.968-37.079-1.15a439.474 439.474 0 0 1 37.496-6.421c-6.248-4.92-12.381-9.484-19.12-13.719zm34.014 17.018-.006-21.5c-2.18 5.977-4.105 12.041-5.917 18.136a368.034 368.034 0 0 1 5.923 3.364zm-29.199-15.066c7.683 3.393 15.945 7.615 23.276 11.702a453.22 453.22 0 0 0-5.464.582c-5.52-4.176-11.956-8.583-17.812-12.284zm29.199 15.066c14.803.03 29.59.76 44.318 2.236-12.927-2.33-25.486-4.118-38.447-5.628a335.995 335.995 0 0 0-5.871 3.392zm28.397-14.657c-7.692 3.384-15.183 7.186-22.526 11.265a443.944 443.944 0 0 0-.899-3.011c7.696-3.062 15.498-5.846 23.425-8.254zm-28.397 14.662c.313 10.379-.086 22.727.006 32.777 1.93-9.298 3.17-19.91 5.312-29.16-2.02-1.227-3.28-2.43-5.318-3.617zm33.758 22.264c-8.636-6.233-19.37-13.055-28.44-18.646 1.854-.15 4.477-.286 6.333-.413 7.201 5.825 15.31 12.774 22.107 19.059zm-33.758-22.27c-14.125.196-28.964 1.026-44.265 2.342 12.544.041 24.726.302 37.464 1.31 2-1.236 4.777-2.453 6.8-3.651zm-33.794 22.313c8.647-6.227 17.912-13.074 26.992-18.661.266 1.157 1.298 2.316 1.562 3.472-9.283 4.46-19.586 10.137-28.554 15.189zM321.193 236.936c-.436.327-1.031.653-1.466.977-.442-.324-1.046-.65-1.49-.977.009-4.026-.01-8.052 0-12.078.433-.296 1.057-.593 1.492-.89.426.297 1.013.592 1.44.89l.024 12.078zM249.49 207.725l-.707 1.364c.442.169 1.293.44 1.674.597 4.221-2.253 8.397-4.502 12.547-6.674.16-.638.255-.989.433-1.47-.426-.113-.852-.224-1.28-.336a484.723 484.723 0 0 0-12.667 6.519zM246.381 182.94c-.386.307-.77.615-1.156.927.212.278.448.609.64.879a295.713 295.713 0 0 1 11.845-1.45c.367-.354.811-.78 1.16-1.112-.232-.238-.462-.473-.695-.707-3.931.405-7.865.892-11.794 1.462zM261.872 162.94c-.398.17-.797.343-1.195.516.037.238.08.673.117.91 2.905.409 5.808.9 8.705 1.464.37-.219.875-.516 1.224-.705-.052-.25-.103-.503-.154-.756-2.892-.551-5.792-1.03-8.697-1.429zM289.182 151.063c.142-.146.462-.402.606-.546.374-.005.745-.011 1.118-.015 1.535.954 3.041 1.952 4.527 2.982l-.443.488c-.38-.006-.94.1-1.32.096a107.977 107.977 0 0 0-4.488-3.005zM277.626 229.561c-.596.142-1.36.14-1.956.285-.13-.423-.427-.846-.556-1.268a670.428 670.428 0 0 1 8.96-10.49c.588-.126 1.346-.25 1.934-.375.137.36.408.98.567 1.317a682.52 682.52 0 0 0-8.949 10.531zM376.418 163.105l1.125.486c-.036.224-.074.634-.11.858-2.74.386-5.471.848-8.199 1.38-.35-.206-.824-.487-1.154-.664l.142-.713c2.727-.519 5.46-.97 8.196-1.347zM360.835 229.561c.488.074 1.357.191 1.957.285.19-.413.383-.833.556-1.268a701.137 701.137 0 0 0-8.96-10.49c-.59-.126-1.345-.25-1.933-.375-.139.36-.41.98-.568 1.317a678.092 678.092 0 0 1 8.948 10.531z" clip-rule="evenodd" style="fill:#fff;stroke-width:.782349" transform="matrix(2.44599 0 0 2.44599 -524.058 -88.056)"/><path fill-rule="evenodd" d="M261.408 182.375c5.256-23.471 36.452-30.565 58.22-30.565 21.694 0 52.963 7.099 58.223 30.57 6.545 29.213-37.06 40.396-58.218 40.396-21.16-.001-64.767-11.188-58.225-40.4zm2.694-.122c4.894-22.45 36.07-29.11 55.528-29.109 19.456 0 50.628 6.662 55.53 29.114 6.06 27.777-35.397 38.048-55.526 38.046-20.133 0-61.59-10.273-55.532-38.05z" clip-rule="evenodd" style="fill:#fff;stroke-width:.782349" transform="matrix(2.44599 0 0 2.44599 -524.058 -88.056)"/><path d="m389.064 187.638-9.548-1.446-1.263-.292c-1.601-.33-4.66-2.059-5.992-4.118-1.334-2.056-4.546-5.598-6.305-7.805-2.434-3.06-7.99-5.86-8.799-7.122-.812-1.261-2.154-3.474-2.525-4.348-.369-.876-.877-1.707-2.502-1.562-1.436.128-1.74.643-2.97.72-1.229.076-2.954-.189-2.954-.189-.75-.153-1.271-.244-1.789-.245-.764 1.263-1.558 2.086-4.394 2.086-.198 0-.36-.02-.495-.058.294.634 2.563.956 3.011.928.448-.028 2.943.675 3.508.779 1.149.208.925-.187 2.766.877 3.048 1.76 7.609 6.611 8.514 10.822.502 2.325 4.488 6.123 4.965 8.269-5.337-.397-12.43-3.93-12.43-3.93l-.891-.427s-3.17-1.601-8.032-1.82c-9.18-.822-12.66-2.047-13.577-2.355-1.89-.636-1.63-.958-3.17-1.033-.295-.015-.572-.03-.835-.041a3.783 3.783 0 0 1-.791 1.05c-1.704 1.632-2.88 2.85-4.31 5.06-.384.592-1.032.965-1.82 1.174 1.826.248 5.182-.723 5.182-.723 1.832-.244 7.522.23 8.164.416 1.818.371 4.823 1.536 4.823 1.536s13.075 3.997 16.283 6.333c2.102 1.533 12.972 5.6 15.854 6.596 2.883.994 9.906 4.818 9.906 4.818 1.802 1.54 12.297 6.135 15.181 7.098 3.707-6.425 5.315-12.885 4.282-19.541l-.318-.107z" style="fill:#fff;stroke-width:.782349" transform="matrix(2.44599 0 0 2.44599 -524.058 -88.056)"/><path d="M384.575 176.598c-.927-.011-1.987.236-1.987.236l-2.598 1.541c-.325.538.848 1.235.848 1.235s3.29.219 3.281 1.072c2.42 1.284 7.57 1.438 10.205 1.568-.35-.89-.736-1.774-1.17-2.651a35.895 35.895 0 0 0-1.363-2.505l-.002-.001c-.148-.046-2.133-.605-7.214-.495zM365.456 207.756s-.63-.817-4.026-.822c-2.153-.004.936 5.085.936 5.085 1.941 1.302 8.934 3.297 10.392 3.49 1.46.191 6.338 1.647 6.338 1.647s2.543.336 5.15 1.125a49.48 49.48 0 0 0 5.29-5.66c-5.898-.121-14.276-.22-20.633-3.537-.645-1.9-3.447-1.328-3.447-1.328z" style="fill:#fff;stroke-width:.782349" transform="matrix(2.44599 0 0 2.44599 -524.058 -88.056)"/><path d="M198.034 147.157c-1.555-.469-2.974-1.387-3.846-2.839-1.851-3.092-2.81-4.598-3.522-5.997-.715-1.396-1.22-2.739-2.179-5.579-1.199-3.545-3.606-6.386-6.411-8.678-1.639-3.758-2.281-6.396-2.825-10.438-.741-5.54-1.245-9.533-2.183-15.189 1.409-5.581 2.479-8.896 2.483-12.406 0-3.142-.882-6.319-3.059-11.199-1.021-2.297-1.598-4.723-1.601-7.429-.015-3.242 1.879-10.992 3.663-14.85l.008-.016.007-.017c.466-1.214 1.104-2.306 1.797-2.891.645 2.091 1.758 4.874 2.98 7.471 1.341 2.815 2.752 5.364 3.974 6.643.115 1.559.067 3.248.765 4.926 2.845 6.822 6.87 12.937 8.84 19.923.161.562.222 1.03.222 1.451.011 1.238-.571 2.186-1.134 3.747l-.013.038-.006.037c-.118.536-.18 1.367-.182 2.359.002 1.149.089 2.481.329 3.644l.073.346 1.178.462c-.181.782-.819 1.677-1.186 2.462l-.071.165.025.178c.101.739.562 1.226.934 1.538.381.312.718.468.747.483l.202.092.216-.047c.7-.182 1.14-.702 1.605-1.336 1.337-1.942 2.555-5.366 2.579-7.349l-.002-.132c-.235-6.919-1.727-10.159-2.092-12.058-1.135-5.767-1.371-9.444-2.151-13.16-.777-3.709-2.106-7.397-5.362-13.023l-3.643-8.999c-.237-2.384-.821-6.204-2.104-9.732-1.306-3.557-3.315-6.905-6.643-7.991-1.115-.35-2.09-.4-3.537-.874-2.479-.804-4.063-1.939-5.051-3.282-.983-1.345-1.395-2.935-1.397-4.755 0-1.907.464-4.045 1.19-6.268.647-1.995 1.115-4.118 1.115-6.136.003-2.011-.473-3.95-1.774-5.454-1.304-1.504-3.384-2.49-6.361-2.737a9.523 9.523 0 0 0-.816-.036c-2.552-.018-4.381 1.146-5.56 2.86-1.192 1.711-1.846 3.929-2.395 6.25l-.023.096.007.101c.017.227.094 2.357.312 4.612.107 1.131.252 2.303.448 3.317.204 1.02.417 1.856.815 2.458l.061.089.087.065c1.155.848 2.036 1.194 2.462 1.62.216.212.367.43.496.831.125.4.203.99.201 1.847.001.184-.004.382-.01.595-.13 3.257-2.092 5.089-5.025 6.151-2.505.884-4.459 1.59-6.051 2.798-1.596 1.208-2.745 2.915-3.609 5.571-.554 1.694-1.018 4.097-1.031 7.627v.11c-1.396 3.458-3.154 7.428-4.256 11.212-3.148 3.236-5.423 8.28-7.716 13.248-2.308 5.03-4.636 9.976-7.618 12.8-1.495 1.424-2.625 2.366-3.44 3.358-.818.982-1.278 2.092-1.266 3.53 0 1.076.222 2.342.642 4.023.113.388.316.604.554.885.361.4.837.823 1.273 1.181.447.363.806.631 1.065.775l.039.022.045.017a.793.793 0 0 0 .284.047c.312-.011.493-.099.734-.199a5.93 5.93 0 0 0 1.042-.604c.162-.116.308-.236.439-.373.074-.097.17-.179.238-.338l.053-.051.022-.232c.152-1.564.129-2.276.273-2.808.131-.527.456-1.112 1.432-2.527.966-1.396 1.242-2.535 1.449-3.488.211-.954.356-1.694 1.071-2.72 3.943-4.927 7.647-9.871 12.022-14.313 1.605-1.647 3.331-4.937 4.846-8.318 1.132-2.542 2.119-5.107 2.745-7.004.531 5.191 1.169 9.78 1.168 14.821 0 .69-.013 1.391-.038 2.104-.124 3.44-.229 5.994-.229 8.095-.002 3.212.251 5.406 1.065 7.993.813 2.586 2.16 5.553 4.349 10.471l1.017 2.286.23-2.493c.234-2.588.773-6.026 1.641-9.065.484-1.731 1.097-3.331 1.786-4.56-2.965 13.447-3.172 30.784-3.526 36.335-.102 1.644-.408 3.884-.41 6.063.004 1.727.186 3.43.884 4.829.444 1.761.491 4.555.534 6.688l.047 12.417c.02 5.43.04 10.715.04 11.368l-2.076 10.393c-.333 1.35-1.456 3.335-2.841 5.116-1.385 1.799-3.058 3.421-4.358 4.126-.457.252-1.247.676-1.948 1.189a5.409 5.409 0 0 0-.956.861c-.263.322-.494.705-.5 1.198.005.373.178.646.365.861.665.72 1.9 1.264 3.471 1.754 1.563.471 3.421.804 5.179.805 2.121-.01 4.19-.465 5.267-2.083 1.802-2.778 3.241-4.268 5.412-6.349 1.178-1.111 1.627-2.373 1.616-3.585-.037-2.387-1.402-4.593-1.378-7.021 0-.22.013-.445.035-.67.744-7.436 3.996-13.999 5.096-21.293.226-1.496.359-2.942.359-4.402.003-2.77-.493-5.579-1.771-8.812l1.198-11.546c1.168 2.193 2.333 5.009 3.51 7.465 1.326 2.763 2.008 4.302 2.965 5.764.962 1.461 2.161 2.769 4.468 5.045 1.525 1.507 3.1 3.29 4.225 5.078 2.01 3.2 3.378 6.28 3.378 9.9 0 .173-.002.346-.008.522-.738 1.303-1.248 1.844-1.816 2.311-.585.482-1.316.909-2.318 1.856a1.24 1.24 0 0 0-.296.491c-.06.173-.094.368-.096.584-.006.378.133.861.531 1.215.396.351.963.525 1.689.523 1.785 0 3.122-.23 4.174-.693 1.595-.694 2.426-1.937 3.035-3.308.624-1.383 1.105-2.951 2.053-4.643.523-.943 1.434-2.128 2.226-3.344.785-1.227 1.495-2.474 1.511-3.773a2.681 2.681 0 0 0-.718-1.856c-.497-.536-1.212-.931-2.179-1.22z" style="fill:#fff" transform="matrix(1.91362 0 0 1.91362 -49.614 -4.257)"/></svg>