<svg xmlns="http://www.w3.org/2000/svg" xmlns:xlink="http://www.w3.org/1999/xlink" xml:space="preserve" id="Layer_2" x="0" y="0" style="enable-background:new 0 0 322.9 77.5" version="1.1" viewBox="0 0 322.9 77.5"><style>.st1,.st2{fill-rule:evenodd;clip-rule:evenodd;fill:#fff}.st2{fill:#a81815}.st3{opacity:.45;fill:#4f2644}.st7,.st8{fill-rule:evenodd;clip-rule:evenodd;fill:#c8411b}.st8{fill:#c00d0d}</style><path d="M217.5 46c-1 6.4-4.3 9.7-8.2 9.7-2.5 0-3.9-1.8-3.5-4.5l1.4-8.6c.5-3.2 2.5-5.7 5.9-5.7 3.6 0 5.4 2.6 4.4 9.1zm-13.6 12.7c.5 0 1.8 2.2 6 2.2 8.8 0 13.9-6.4 15.3-14.7 1.8-10.2-3.2-14.8-9.4-14.8-2.9 0-5.1.3-6.7 1.1l2.4-14h-7.4l-7.3 41.9h5.5c0 .1.8-1.7 1.6-1.7zm78.3-17.8c1.1-6.3-1.2-9.4-8.1-9.4-5.1 0-7.1 2.3-9 4.2l.2-3.5h-6.8l-.5 5.2-3.9 23.1h7.5l2.4-15c.9-5.2 4.4-9.1 7.8-9.1 3.7 0 3.7 2.1 3.1 5.4l-3.2 18.7h7.4l3.1-19.6zm31-9.4h-8.7l-10 10.6h-.1l4-23.4h-7.2l-7.3 41.8h7.4l.7-4.2 1.5-9.2c3.9 0 6.1.4 7.8 8.2l1.2 5.2h7.5s-1.9-7.9-3.1-11c-1.3-3.3-2.7-5.4-5.7-6l12-12zM99.6 41.8c5.4-1.2 8.2-5.5 8.9-8.4 1.9-7.8-1.5-13.9-11.5-13.8H85.6l-7.1 40.8H86l3-16.3c6.8-.2 7.7 1.5 9 9.4l1.2 7h7.7c-.9-4.2-1.5-8.2-2.2-11.4-.8-3.4-2-6-5.2-7.2l.1-.1zm1.5-9.8c-.6 3.6-3.4 6.2-6.9 6.2h-4.4l2.3-12.9h4c4.7 0 5.6 3.1 5 6.7zm33.5 7.7c1.1-6.2-2.2-8.3-8.9-8.3-8.3 0-11.9 3.9-11.9 3.9l2.6 4.3s2.7-3.1 8.1-3.1c3 0 3.1 1.5 2.8 3.1l-.6 3.7c-10.7-.3-16.2 2-17.4 9.1-1 5.8 3.3 8.5 8.2 8.5 2.5 0 4.5-.4 7-2.5.5 1.4 1.3 2.1 2.3 2.3 1.5.3 4.2 0 5-.6-.1-.9 0-3 .9-8.2l1.9-12.2zm-8.8 7.6c-1.2 8.4-2.3 9.3-6.4 9.3-2.8 0-3.8-1.9-3.3-4.4.7-3.5 3.3-4.9 9.7-4.9m126.4-7.6c1.1-6.2-2.2-8.3-8.9-8.3-8.3 0-11.9 3.9-11.9 3.9l2.6 4.3s2.7-3.1 8.1-3.1c3 0 3.1 1.5 2.8 3.1l-.6 3.7c-10.7-.3-16.2 2-17.4 9.1-1 5.8 3.3 8.5 8.2 8.5 2.5 0 4.5-.4 7-2.5.5 1.4 1.3 2.1 2.3 2.3 1.5.3 4.2 0 5-.6-.1-.9 0-3 .9-8.2l1.9-12.2zm-8.8 7.6c-1.2 8.4-2.3 9.3-6.4 9.3-2.8 0-3.8-1.9-3.3-4.4.6-3.5 3.2-4.9 9.7-4.9zM149.5 61c8.8 0 13.9-6.4 15.3-14.7 1.8-10.2-3.2-14.8-9.4-14.8-2.9 0-5 .3-6.7 1.1l2.4-14h-7.4l-7.3 41.9h5.5s.8-1.7 1.6-1.7c.6-.1 1.8 2.2 6 2.2zm3.1-24.1c3.8 0 5.4 2.6 4.5 9.1-.9 6.7-4.3 9.7-8.3 9.7-2.5 0-3.9-1.8-3.5-4.5l1.4-8.6c.6-3.2 2.5-5.7 5.9-5.7m15.3 11.7c1.1-10.7 5.9-17.3 17.4-17.3 8.5 0 11.3 6.5 10.1 13.4-1.8 11.1-6.2 16.4-17 16.4-7 0-11.2-5.7-10.5-12.5m19.8-3.3c.5-2.9 1.1-8.7-3.9-8.7-3.4 0-6.6 2.3-8 10.4-.9 4.9.1 8.9 4 8.9 2.8 0 6.4-2.4 7.9-10.6z" style="fill:#2d2c86"/><path d="M59 54.7c.1.1.3.2.4.3-.1.1-.1.2-.2.3-1.3-.2-2.6-.3-3.9-.5l-.4-.4.2-.2c1.3.1 2.6.3 3.9.5z" class="st1"/><path d="M58.9 54.8c.1.1.3.2.3.2s0-.1.1-.1c-.1-.1-.3-.2-.4-.3-1.3-.2-2.6-.3-3.9-.5l-.2.2s.1 0 .1.1l.1-.1c1.4.2 2.6.4 3.9.5z" class="st2"/><path d="M56.4 52.5c-.3 0-.7.1-.7.1l-.9.5c-.1.2.3.4.3.4s1.1.1 1.1.4c.8.4 2.5.5 3.3.5-.1-.3-.2-.6-.4-.9-.1-.3-.3-.6-.4-.8 0-.1-.6-.2-2.3-.2" class="st3"/><linearGradient id="SVGID_1_" x1="9.096" x2="60.869" y1="61.916" y2="61.916" gradientUnits="userSpaceOnUse"><stop offset="0" style="stop-color:#ca581a"/><stop offset="1" style="stop-color:#6e2e2b"/></linearGradient><path d="M56.6 49.3c1.1 1.1 2 2.3 2.6 3.6 2 4.1 1.3 8.6-2.7 12.5-4.6 4.5-12.4 7.3-21.5 7.3s-16.9-2.8-21.5-7.3c-4-3.9-4.7-8.4-2.7-12.5.6-1.3 1.5-2.5 2.6-3.6-1.3 1.2-2.3 2.3-3.2 4.2-2 3.9-1.3 9.5 2.8 13.6 4.7 4.6 12.1 7.4 22.1 7.4 10.1 0 17.4-2.9 21.9-7.4 4.4-4.4 4.6-10.2 2.8-13.7-.8-1.5-1.8-2.8-3.2-4.1z" style="fill:url(#SVGID_1_)"/><defs><path id="SVGID_2_" d="M49.2 44.6C45 42.8 40 41.9 35 41.9s-10 .9-14.2 2.7c-4.7 1.9-8.3 4.8-10 8.3-2 4.1-1.3 8.6 2.7 12.5 4.6 4.5 12.4 7.3 21.5 7.3s16.9-2.8 21.5-7.3c4-3.9 4.7-8.4 2.7-12.5-1.7-3.5-5.3-6.4-10-8.3z"/></defs><use xlink:href="#SVGID_2_" style="overflow:visible;fill:#ee7203"/><clipPath id="SVGID_3_"><use xlink:href="#SVGID_2_" style="overflow:visible"/></clipPath><linearGradient id="SVGID_4_" x1="4.826" x2="36.824" y1="57.412" y2="51.77" gradientUnits="userSpaceOnUse"><stop offset="0" style="stop-color:#ffe07d"/><stop offset="1" style="stop-color:#ee7203"/></linearGradient><path d="M35.8 46.6c-.8-1.7-.7-3.3-.5-4.6H35c-5 0-10 .9-14.2 2.7-4.7 1.9-8.3 4.8-10 8.3-2 4.1-1.3 8.6 2.7 12.5.3.3.6.5.9.8 16.9-1.1 25.7-11 21.4-19.7z" style="fill:url(#SVGID_4_)"/><path d="M24.1 46.9c3.1.8 6.1 1.7 9.2 2.9.6-1.8 1.2-3.6 2-5.4.7 1.8 1.4 3.6 2 5.4 3-1.1 6-2 9.1-2.8-2.2 1.4-4.2 2.8-6.2 4.4 4.2.5 8 1.2 12.1 2.1-4.1-.1-7.9.1-12 .3 2.9 2.4 5.3 4.8 8 7.4-3.7-2.1-7.1-3.8-10.9-5.6l-2.1 9.6c-.7-3.2-1.3-6.2-2-9.4-3.8 1.8-7.3 3.5-11.1 5.5 2.7-2.6 5.2-4.9 8.1-7.4-4.1-.3-8-.3-12.1-.4 4.1-.9 8.1-1.6 12.3-2.1-2.2-1.7-4.2-3.2-6.4-4.5zm11.1 5.5v-7c-.7 2-1.3 3.9-1.9 5.9.7.4 1.3.8 1.9 1.1m-9.3-4.8c2.5 1.1 5 2.4 7.4 3.7-.6.1-1.2.1-1.8.2-1.8-1.3-3.6-2.7-5.6-3.9zm9.3 4.8c4.8 0 9.7.2 14.5.7-4.2-.8-8.3-1.3-12.6-1.8-.6.4-1.2.8-1.9 1.1zm9.4-4.8c-2.5 1.1-5 2.4-7.4 3.7-.1-.3-.2-.7-.3-1 2.5-1 5.1-1.9 7.7-2.7zM35 52.4c.1 3.4.2 7 .3 10.3.6-3 1.3-6.1 2-9.1-.7-.4-1.6-.8-2.3-1.2m10.9 7c-2.8-2-5.7-4-8.7-5.8.6 0 1.2-.1 1.8-.1 2.4 1.9 4.7 3.9 6.9 5.9m-10.7-7c-4.9.1-8.7.3-13.5.7 4.1 0 7.3.2 11.5.5.7-.4 1.4-.8 2-1.2m-10.6 7c2.8-2 5.7-4 8.7-5.8.1.4.2.8.3 1.1-3.1 1.5-6.1 3.1-9 4.7z" class="st1"/><path d="M35.2 44.5c.7 1.8 1.4 3.6 2 5.4 2.9-1.1 5.8-2 8.8-2.7.1-.1.2-.1.3-.2-3.1.8-6.1 1.7-9.1 2.8-.6-1.8-1.2-3.6-2-5.4-.7 1.8-1.4 3.6-2 5.4-3-1.1-6-2.1-9.2-2.9.1.1.2.1.3.2 3 .8 5.9 1.7 8.9 2.8.7-1.9 1.3-3.7 2-5.4z" style="fill-rule:evenodd;clip-rule:evenodd;fill:#c51a1b"/><path d="M30.2 53.8c-2.8 2.4-5.4 4.8-8.1 7.4.1-.1.3-.2.4-.2 2.6-2.5 4.9-4.6 7.6-7v-.2z" class="st7"/><path d="m0 0v.1zm-.1.1c-.7.4-1.3.8-1.9 1.1v.1c.6-.4 1.3-.8 1.9-1.2v-.1c.1.1.1.1 0 .1m0-.1" class="st8"/><path d="M33.3 51.3h-.2c-.5.1-1.1.1-1.6.2-1.8-1.4-3.7-2.7-5.6-3.9v.1c1.9 1.2 3.8 2.5 5.6 3.9.6-.1 1.2-.1 1.8-.2.6.3 1.1.6 1.7 1h.2c-.6-.3-1.3-.7-1.9-1.1m-8.7 8.3c2.9-1.7 5.9-3.2 9-4.7v-.2c-3 1.5-6 3-9 4.7z" class="st7"/><path d="M37.2 53.6c-.7 3-1.4 6.1-2 9.1v.1c.6-3 1.3-6.1 2-9.1 2 1.2 5 3.2 8.7 5.9v-.2c-2.8-2-5.7-4-8.7-5.8m3.2.3-.1-.1v.2c2.8 2.3 5 4.4 7.6 7 .1.1.3.2.4.2-2.7-2.7-5.2-5-7.9-7.3z" class="st2"/><path d="M30.2 51.4c-4.1.5-8.1 1.2-12.2 2.1h.6c3.9-.8 7.7-1.5 11.6-2v-.1zm3.1 2.2c-3.8-.3-7.6-.5-11.5-.5v.1c3.8 0 7.5.2 11.3.5.1 0 .1 0 .2-.1" class="st7"/><path d="M40.1 51.3c4.2.5 8 1.2 12.1 2.1h-.7c-3.9-.8-7.5-1.4-11.4-1.9zm-4.9 1.1c4.8 0 9.7.2 14.5.7v.1c-4.8-.5-9.5-.7-14.3-.7 0 0-.1 0-.1-.1 0 .1 0 .1-.1 0h.2m1.8-1.1h.2c2.3-1.3 4.7-2.5 7.2-3.6v-.1c-2.6 1.1-5 2.4-7.4 3.7" class="st2"/><path d="M37.2 51.3c-.1-.3-.2-.7-.3-1v.1z" class="st8"/><path d="M35.7 71.8c-.1.1-.3.2-.5.3-.1-.1-.3-.2-.5-.3v-4c.1-.1.3-.2.5-.3.1.1.3.2.5.3zm-23.5-9.6c-.1.1-.2.3-.2.4.1.1.4.1.5.2 1.4-.7 2.8-1.5 4.1-2.2.1-.2.1-.3.1-.5-.1 0-.3-.1-.4-.1-1.3.7-2.7 1.5-4.1 2.2zm-1-8.1c-.1.1-.3.2-.4.3.1.1.1.2.2.3 1.3-.2 2.6-.3 3.9-.5l.4-.4-.2-.2c-1.3.1-2.6.3-3.9.5zm5-6.6c-.1.1-.3.1-.4.2v.3c1 .1 1.9.3 2.9.5.1-.1.3-.2.4-.2v-.2c-1-.3-2-.4-2.9-.6zm29.1-4h.4l.1.1c-.5.3-1 .6-1.5 1h-.4c0-.1-.1-.1-.1-.2zm-10.4-1.4c.1 0 .2-.1.3-.1.1 0 .2.1.3.1v1.2c-.1 0-.2.1-.3.1-.1 0-.2-.1-.3-.1zm-10.4 1.6s.2-.1.2-.2h.4c.5.3 1 .6 1.5 1 0 .1-.1.1-.1.2h-.4c-.6-.4-1.1-.7-1.6-1zm-3 25.6c-.2 0-.4 0-.6.1 0-.1-.1-.3-.2-.4 1-1.2 1.9-2.3 2.9-3.4.2 0 .4-.1.6-.1 0 .1.1.3.2.4-1 1.1-2 2.3-2.9 3.4m36.4-7.1c.1.1.2.3.2.4-.1.1-.4.1-.5.2-1.4-.7-2.8-1.5-4.1-2.2-.1-.2-.1-.3-.1-.5.1 0 .3-.1.4-.1 1.4.7 2.8 1.5 4.1 2.2M54 47.5c.1.1.3.1.4.2v.3c-1 .1-1.9.3-2.9.5-.1-.1-.3-.2-.4-.2 0-.1 0-.2.1-.2.9-.3 1.8-.4 2.8-.6zm-5.3 21.8c.2 0 .4.1.6.1.1-.1.1-.3.2-.4-1-1.2-1.9-2.3-2.9-3.4-.2 0-.4-.1-.6-.1 0 .1-.1.3-.2.4 1 1.1 2 2.3 2.9 3.4" class="st1"/><path d="M12.2 62.4c0 .1-.1.2-.1.2H12c.1-.1.2-.3.2-.4 1.4-.7 2.8-1.4 4.1-2.1.1 0 .3.1.4.1 0 .1-.1.2-.1.2-.1 0-.3-.1-.4-.1-1.2.7-2.6 1.4-4 2.1zm-.9-8.1c-.1.1-.3.2-.3.2s0-.1-.1-.1c.1-.1.3-.2.4-.3 1.3-.2 2.6-.3 3.9-.5l.2.2-.1.1-.1-.1c-1.4.1-2.6.3-3.9.5zm4.5-6.4v-.2c.1-.1.3-.1.4-.2 1 .1 1.9.3 2.8.5v.2s-1.9-.4-2.9-.5c0 .1-.2.1-.3.2" style="fill-rule:evenodd;clip-rule:evenodd;fill:#ca581a"/><path d="M45.6 43.7c.1 0 .1 0 0 0 .1 0 .1 0 .1-.1l-.1-.1h-.4c-.5.3-1 .6-1.5 1l.1.1c.5-.3.9-.6 1.4-.9z" class="st2"/><path d="M34.9 42.3c.1 0 .2-.1.3-.1.1 0 .2.1.3.1v-.2c-.1 0-.2-.1-.3-.1-.1 0-.2.1-.3.1z" style="fill-rule:evenodd;clip-rule:evenodd;fill:#b6110e"/><path d="M25.1 43.7c.5.3.9.6 1.4.9l.1-.1c-.5-.3-1-.7-1.5-1h-.4s-.2.1-.2.2l.1.1.1-.1h.4z" class="st7"/><path d="M24.2 65.6c.1.1.1.2.2.3l.1-.1c0-.1-.1-.3-.2-.4-.2 0-.4.1-.6.1-1 1.1-2 2.3-2.9 3.4 0 .1.1.1.1.2.6-.7 2-2.3 2.9-3.5 0 .1.2.1.4 0m33.7-3.2c0 .1.1.2.1.2h.1c-.1-.1-.2-.3-.2-.4-1.4-.7-2.8-1.4-4.1-2.1-.1 0-.3.1-.4.1 0 .1.1.2.1.2.1 0 .3-.1.4-.1 1.3.7 2.7 1.4 4 2.1zm-3.5-14.5v-.2c-.1-.1-.3-.1-.4-.2-1 .1-1.9.3-2.8.5 0 .1 0 .2-.1.2 0 0 1.9-.4 2.9-.5.1.1.3.1.4.2M46 65.6c-.1.1-.1.2-.2.3l-.1-.1c0-.1.1-.3.2-.4.2 0 .4.1.6.1 1 1.1 2 2.3 2.9 3.4 0 .1 0 .1-.1.2-.6-.7-2-2.3-2.9-3.5 0 .1-.2.1-.4 0m-10.4 2.3.1 3.8v-4c-.1-.1-.3-.2-.5-.3-.1.1-.3.2-.5.3v4l.1-3.8c.1-.1.3-.2.4-.2.2.1.3.2.4.2" class="st2"/><path d="M16.1 53.7c1.7-7.7 12.4-10 19.1-10 6.7 0 17.4 2.3 19.1 10 2.1 9.6-12.1 13.1-19.1 13.1-7 0-21.3-3.6-19.1-13.1zm.7-.1c1.6-7.4 11.9-9.6 18.4-9.6 6.4 0 16.8 2.2 18.4 9.6 2 9.2-11.7 12.6-18.4 12.6-6.7 0-20.4-3.4-18.4-12.6z" class="st7"/><path d="M16.1 53.9c1.7-7.7 11.9-10 19.1-10 7.1 0 17.4 2.3 19.1 10C56.4 63.5 42.1 67 35.2 67c-6.9 0-21.2-3.5-19.1-13.1m.7-.1c1.6-7.4 11.9-9.6 18.4-9.6 6.4 0 16.8 2.2 18.4 9.6 2 9.2-11.7 12.6-18.4 12.6-6.6 0-20.4-3.4-18.4-12.6z" class="st1"/><path d="m58 55.5-3.1-.5-.4-.1c-.5-.1-1.5-.7-2-1.3-.5-.7-1.5-1.9-2.1-2.6-.8-1-2.6-1.9-2.9-2.3-.3-.4-.7-1.1-.8-1.4-.1-.3-.4-.5-.9-.5s-.5.2-.9.2-1-.1-1-.1c-.2-.1-.4-.1-.6-.1-.2.4-.6.7-1.6.7h-.2c.1.2 1 .3 1.1.3.1 0 1 .2 1.1.3.4.1.3-.1.9.3 1 .6 2.5 2.2 2.8 3.5.2.8 1.5 2 1.6 2.7-1.7-.1-4.1-1.3-4.1-1.3l-.3-.1s-1-.5-2.6-.6c-3-.3-4.1-.7-4.4-.8-.6-.2-.5-.3-1-.3h-.3c-.1.1-.1.2-.3.3-.6.5-.9.9-1.4 1.7-.1.2-.3.3-.6.4.6-.1 1.7-.4 1.7-.4 1.1-.1 2.7.3 2.7.3.6.1 1.6.5 1.6.5s4.3 1.3 5.3 2.1c.7.5 4.2 1.8 5.2 2.2.9.3 3.2 1.6 3.2 1.6.6.5 4 2 5 2.3 1.2-2.1 1.6-4.3 1.3-6.4l-2-.6zm-8 6.9s-.2-.3-1.3-.3c-.7 0 .3 1.6.3 1.6.6.4 2.9 1.1 3.3 1.1.5.1 2 .5 2 .5s.8.1 1.7.4c.1-.1.3-.2.4-.4.5-.5.9-1 1.3-1.5-1.9 0-4.6-.1-6.6-1.1-.1-.5-1.1-.3-1.1-.3z" class="st3"/><path d="m44.3 32.6-.6-.6c0-.2.2-.5.2-.8-.1 0-.1-.1-.2-.1-.2-.6-.3-1.6 0-2.2.1-.3.3-.6.2-1-.5-1.8-1.6-3.3-2.3-5-.2-.5-.2-.8-.2-1.3-.6-.6-1.2-2.2-1.5-3.2-.7 1.7-1.1 3.6-1.1 4 0 1.9 1.9 2.8 1.2 5.9-.1.6-.4 1.4-.6 2.3.4 2.2.4 3.7 1 6.2.8.8 1.5 1.8 1.8 3.1.2.8.9 2.7 1.8 3 .5.2-1.8.6-2.5-.2-.6-.8-1.8-1.5-2.3-2.3-.4-.7-1.1-2.1-1.5-2.8l-.5 2.7c.7 2.8.3 3.5-.3 5.8-.3 1-2.3-3.7-2.3-4 0-1-.1-1.4-.3-2.3-.4-.8-.4-2-.3-2.9.1-1.5.1-4.3.1-5-.5-1.2-1.8-3.5-1.9-4.8-.2-2 .1-4-.1-5.9-.3 1-.7 2.2-1.5 3-1.1 1.1-2.2 2.4-3.2 3.6-.4.5 0 .8-.6 1.6s-.3.4-.4 1.2c0 .1-.1.2-.1.3-.3.1-.6.3-1.1.1-.8-.4-.9-1.1-1-1.9-.1-1.5 1-1.6 1.7-2.5 1.3-1.8 1.9-4.9 3.3-6.3.1-.3.4-1.3 1-2.7 0-1.8.5-3.4 2.3-4.2.8-.3 1.8-.4 1.8-1.4 0-.1 0-.5-.1-.6-.3-.2-.5-.3-.7-.4-.2-.4-.5-2.9-.5-3 .4-2.1 1.5-2.8 2.7-2.8 1.6.1 2.8.8 2.8 2.8-.1 1.6-1.8 3.8.8 4.6 1 .3 1.2.1 2 .9.9.9 1.2 2.6 1.3 4.2l1 2.2c1.7 2.9 1.1 3.9 1.8 6.9.2.8.5 1.5.5 3.2-.1.7-.7 2.5-1.6 2.6z" style="fill:#fab650"/><linearGradient id="SVGID_5_" x1="26.661" x2="45.189" y1="22.154" y2="40.681" gradientUnits="userSpaceOnUse"><stop offset="0" style="stop-color:#2d2c86"/><stop offset="1" style="stop-color:#282674"/></linearGradient><path d="M26.1 30.4c.1-.8 0-.7.5-1.4s.2-1 .7-1.6c1-1.3 2-2.5 3.1-3.7.8-.8 1.8-3.4 2-4.3 0-.1.1-.2.2-.1.2 1.7.4 3.2.3 4.9-.1 3.6 0 3.2 1.5 6.6.1-1.3.4-3.3 1.2-4-.9 3.5-1 8.5-1.1 10 0 .8-.3 2 .1 2.7.1.5.1 1.2.1 1.8v6.1l-.5 2.6c-.2.8-1.2 2.1-1.9 2.5-.2.1-.8.4-.8.7 0 .4 2.7 1.2 3.4.3.5-.7.9-1.1 1.4-1.7.9-.8-.1-1.7 0-2.8.2-1.9 1-3.6 1.3-5.5.2-1.1.1-2.1-.4-3.3l.4-3.5c.4.6.8 1.6 1.2 2.4.7 1.4.7 1.6 1.9 2.7.4.4.8.9 1.1 1.3.6.9.9 1.8.9 2.8-.4.7-.6.7-1.1 1.1 0 0-.1.4.4.4 1.8 0 1.6-.9 2.2-2.1.4-.8 1.7-2 .3-2.4-.4-.1-.8-.4-1.1-.8-.9-1.6-1-1.5-1.5-3-.3-.9-.9-1.6-1.6-2.2-.4-1-.6-1.7-.8-2.8-.2-1.4-.3-2.5-.6-3.9.7-2.7 1-3.3-.1-6-.3-.6-.4-1.3-.4-2 0-.9.5-2.9 1-3.9.2-.4.4-.8.7-.9.3 1.1 1.3 3.3 1.8 3.8 0 .4 0 .9.2 1.3.7 1.7 1.8 3.3 2.3 5.1.2.6-.1.9-.2 1.4-.1.2-.1.9 0 1.5l.2.1c0 .2-.2.6-.2.8 0 .2.3.4.3.4.4-.1 1-1.5.9-2.1-.1-1.8-.4-2.5-.5-3.1-.6-3-.2-3.8-1.9-6.7l-1-2.1c-.1-1.2-.6-3.9-2.1-4.4-.3-.1-.5-.1-.9-.2-2-.7-2-2.2-1.5-3.9.5-1.5.5-3.3-1.7-3.4-1.4-.1-1.8 1-2.1 2.2 0 .1.1 2.1.4 2.6.6.4.9.3.9 1.4 0 .9-.6 1.5-1.4 1.7-1.3.5-1.9.7-2.4 2-.1.4-.3 1-.3 1.9v.1c-.4.9-.8 2-1.1 2.9-1.6 1.6-2.4 5.2-4 6.7-1.1 1-1.4 1.1-1 2.6 0 .2.5.6.7.6.1.1.6-.2.6-.2z" style="fill:url(#SVGID_5_)"/></svg>