<svg width="32" height="24" viewBox="0 0 32 24" fill="none" xmlns="http://www.w3.org/2000/svg">
<rect width="32" height="24" rx="4" fill="#48AC98"/>
<path d="M10.7661 5.625H19.2339V6.83468H10.7661V5.625ZM17.7695 9.85887V17.1018H17.7689C17.7689 17.7496 17.7841 18.1415 17.8143 18.5183H17.7841C17.6256 18.0871 17.4387 17.7091 17.1605 17.2167L12.8322 9.85887H10.7661V20.1411H12.3955V13.1631H12.3968C12.3968 12.5147 12.3816 12.1234 12.3514 11.7466H12.3816C12.5395 12.1778 12.7264 12.5558 13.0046 13.0476L17.4193 20.1411H19.2339V9.85887H17.7695ZM10.7661 23.1653H19.2339V24.375H10.7661V23.1653Z" fill="white" transform="scale(.825) translate(4.5 -0.4)"/>
</svg>
