<?xml version="1.0" encoding="UTF-8" standalone="no"?>
<svg
   fill="none"
   height="24"
   viewBox="0 0 32 24"
   width="32"
   version="1.1"
   id="svg2"
   sodipodi:docname="ideal-issuer-n26-mollie-32x24.svg"
   inkscape:version="1.3 (0e150ed, 2023-07-21)"
   xmlns:inkscape="http://www.inkscape.org/namespaces/inkscape"
   xmlns:sodipodi="http://sodipodi.sourceforge.net/DTD/sodipodi-0.dtd"
   xmlns="http://www.w3.org/2000/svg"
   xmlns:svg="http://www.w3.org/2000/svg">
  <defs
     id="defs2">
    <clipPath
       id="clip0_95_4864">
      <rect
         width="454"
         height="373.00101"
         fill="#ffffff"
         id="rect1"
         x="0"
         y="0" />
    </clipPath>
  </defs>
  <sodipodi:namedview
     id="namedview2"
     pagecolor="#ffffff"
     bordercolor="#666666"
     borderopacity="1.0"
     inkscape:showpageshadow="2"
     inkscape:pageopacity="0.0"
     inkscape:pagecheckerboard="0"
     inkscape:deskcolor="#d1d1d1"
     inkscape:zoom="9.8333333"
     inkscape:cx="4.8305085"
     inkscape:cy="11.389831"
     inkscape:window-width="1576"
     inkscape:window-height="911"
     inkscape:window-x="3276"
     inkscape:window-y="547"
     inkscape:window-maximized="0"
     inkscape:current-layer="svg2" />
  <path
     d="m28 0h-24c-2.20914 0-4 1.79086-4 4v16c0 2.2091 1.79086 4 4 4h24c2.2091 0 4-1.7909 4-4v-16c0-2.20914-1.7909-4-4-4z"
     fill="#00927b"
     id="path1"
     style="fill:#46a997;fill-opacity:1" />
  <g
     clip-path="url(#clip0_95_4864)"
     id="g2"
     transform="matrix(0.08895422,0,0,0.08895422,-4.1278893,-4.5623195)"
     style="fill:#ffffff">
    <path
       fill-rule="evenodd"
       clip-rule="evenodd"
       d="M 98.3809,111.662 H 177.624 V 98.9365 H 98.3809 Z m 223.1201,112.84 c -11.604,0 -19.637,-10.658 -21.027,-24.783 3.524,-12.058 11.338,-18.064 20.578,-18.064 11.878,0 18.581,8.761 18.581,21.215 0,13.365 -7.636,21.632 -18.132,21.632 z m 2.907,-54.519 c -11.717,0 -20.098,5.416 -24.329,13.435 0,-18.943 6.614,-35.445 22.321,-35.445 9.987,0 13.951,5.74 16.069,15.147 l 14.545,-2.905 c -3.422,-16.243 -13.759,-24.139 -30.509,-24.139 -21.048,0 -36.797,16.139 -36.797,52.311 0,32.11 13.13,47.98 35.758,47.98 18.696,0 32.698,-12.748 32.698,-33.757 0,-16.414 -8.761,-32.627 -29.756,-32.627 z m -161.643,-32.87 v 67.19 h -0.006 c 0,5.948 0.138,9.544 0.415,13.003 h -0.277 c -1.454,-3.961 -3.171,-7.431 -5.732,-11.947 L 117.378,137.113 H 99.1916 v 98.217 h 14.1704 v -67.191 h 0.007 c 0,-5.948 -0.139,-9.544 -0.415,-13.003 h 0.276 c 1.454,3.96 3.171,7.429 5.732,11.944 l 39.79,68.25 h 17.997 v -98.217 z m 14.859,136.329 H 98.3809 v -12.661 h 79.2431 z m 66.504,-69.139 c -4.71,4.704 -15.324,13.196 -22.73,18.302 h 44.43 v 12.725 h -65.382 v -11.62 c 7.576,-5.402 23.311,-17.139 33.159,-26.975 9.426,-9.414 15.597,-18.017 15.597,-30.641 0,-12.421 -6.832,-17.587 -16.065,-17.587 -9.467,0 -17.029,5.463 -17.029,16.873 0,2.492 0.276,5.256 0.969,8.439 l -14.852,-1.438 c -0.692,-2.767 -0.97,-5.256 -0.97,-7.746 0,-15.237 10.697,-28.558 32.371,-28.558 17.875,0 31.095,9.273 31.095,29.532 0,18.426 -13.47,31.681 -19.531,37.644 -0.386,0.38 -0.741,0.73 -1.062,1.05 z"
       fill="#1b1b1b"
       id="path1-0"
       style="fill:#ffffff" />
  </g>
</svg>
