<?xml version="1.0" encoding="UTF-8" standalone="no"?>
<svg
   viewBox="0 0 640 360"
   class="dark:fill-white h-32"
   version="1.1"
   id="svg1"
   sodipodi:docname="ideal-issuer-n26-640x360.svg"
   width="640"
   height="360"
   inkscape:version="1.3.2 (091e20e, 2023-11-25)"
   xmlns:inkscape="http://www.inkscape.org/namespaces/inkscape"
   xmlns:sodipodi="http://sodipodi.sourceforge.net/DTD/sodipodi-0.dtd"
   xmlns="http://www.w3.org/2000/svg"
   xmlns:svg="http://www.w3.org/2000/svg"><defs
   id="defs1" />
<sodipodi:namedview
   id="namedview1"
   pagecolor="#ffffff"
   bordercolor="#666666"
   borderopacity="1.0"
   inkscape:showpageshadow="2"
   inkscape:pageopacity="0.0"
   inkscape:pagecheckerboard="true"
   inkscape:deskcolor="#d1d1d1"
   inkscape:zoom="1"
   inkscape:cx="277"
   inkscape:cy="254"
   inkscape:window-width="1544"
   inkscape:window-height="805"
   inkscape:window-x="2352"
   inkscape:window-y="403"
   inkscape:window-maximized="0"
   inkscape:current-layer="svg1" />
<path
   d="m 481.74224,153.25832 c -19.31852,0 -33.12925,8.93528 -40.10335,22.16865 0,-31.25972 10.90562,-58.49628 36.79502,-58.49628 16.45923,0 22.99345,9.47598 26.4759,25.00045 l 23.97405,-4.79297 c -5.63611,-26.815 -22.67269,-39.83759 -50.28499,-39.83759 -34.68721,0 -60.64075,26.6317 -60.64075,86.32852 0,52.99765 21.63711,79.18946 58.92701,79.18946 30.81984,0 53.89575,-21.04143 53.89575,-55.71947 0,-27.08993 -14.44308,-53.84077 -49.03864,-53.84077 z m -4.79296,89.97595 c -19.12608,0 -32.35946,-17.59562 -34.65972,-40.90066 5.81023,-19.90504 18.69535,-29.81175 33.9174,-29.81175 19.57513,0 30.62737,14.45224 30.62737,35.00796 0,22.05867 -12.58269,35.70445 -29.88505,35.70445 z M 349.42684,209.89423 c -7.76223,7.76224 -25.25705,21.77458 -37.46401,30.20581 h 73.23261 v 21.00478 H 277.43142 v -19.18106 c 12.49106,-8.91695 38.42627,-28.28129 54.6564,-44.52059 15.53363,-15.53363 25.7061,-29.72927 25.7061,-50.56908 0,-20.50073 -11.26303,-29.02361 -26.48507,-29.02361 -15.59779,0 -28.06135,9.01775 -28.06135,27.85056 0,4.10565 0.45822,8.66951 1.5946,13.92071 l -24.47808,-2.37358 a 51.751289,51.751289 0 0 1 -1.5946,-12.78432 c 0,-25.13791 17.63228,-47.12327 53.34589,-47.12327 29.4635,0 51.25642,15.29536 51.25642,48.73621 0,30.40743 -22.20532,52.28282 -32.19449,62.12537 z M 109.21911,36 H 239.82078 V 57.004774 H 109.21911 Z M 215.33354,99.005155 V 209.89423 h -0.009 c 0,9.81506 0.2291,15.75358 0.68733,21.46299 h -0.45823 c -2.40106,-6.5342 -5.23285,-12.26194 -9.44847,-19.72176 L 140.52466,99.005155 H 110.55712 V 261.10482 h 23.35085 V 150.21575 h 0.0183 c 0,-9.82423 -0.22911,-15.75359 -0.68733,-21.463 h 0.45822 c 2.39191,6.53421 5.2237,12.26195 9.43932,19.7126 l 65.58035,112.63947 h 29.66511 V 99.005155 Z M 109.21911,303.1052 H 239.82078 V 324 H 109.21911 Z"
   id="path1"
   style="stroke-width:9.16436" />
N26</svg>
