<?xml version="1.0" encoding="UTF-8"?>
<!DOCTYPE svg PUBLIC "-//W3C//DTD SVG 1.1//EN" "http://www.w3.org/Graphics/SVG/1.1/DTD/svg11.dtd">
<svg xmlns="http://www.w3.org/2000/svg" version="1.1" width="1024px" height="1024px" style="shape-rendering:geometricPrecision; text-rendering:geometricPrecision; image-rendering:optimizeQuality; fill-rule:evenodd; clip-rule:evenodd" xmlns:xlink="http://www.w3.org/1999/xlink">
<rect width="1024px" height="1024" fill="#00a28b"/>
<g><path style="opacity:1" fill="#fefffe" d="M 171.5,273.5 C 243.5,273.5 315.5,273.5 387.5,273.5C 387.5,284.833 387.5,296.167 387.5,307.5C 315.5,307.5 243.5,307.5 171.5,307.5C 171.5,296.167 171.5,284.833 171.5,273.5 Z"/></g>
<g><path style="opacity:1" fill="#fefefe" d="M 523.5,375.5 C 599.673,373.203 631.173,409.536 618,484.5C 610.268,507.972 597.935,528.638 581,546.5C 557.754,570.008 532.921,591.508 506.5,611C 546.165,611.5 585.832,611.667 625.5,611.5C 625.5,622.833 625.5,634.167 625.5,645.5C 566.167,645.5 506.833,645.5 447.5,645.5C 447.333,634.828 447.5,624.161 448,613.5C 484.629,588.557 518.629,560.224 550,528.5C 563.627,513.524 572.96,496.191 578,476.5C 580.532,461.979 579.865,447.646 576,433.5C 571.255,421.207 562.421,413.707 549.5,411C 529.241,406.186 512.075,411.353 498,426.5C 488.345,442.35 486.845,459.016 493.5,476.5C 492.667,476.833 491.833,477.167 491,477.5C 477.826,476.124 464.66,474.791 451.5,473.5C 444.467,417.884 468.467,385.217 523.5,375.5 Z"/></g>
<g><path style="opacity:1" fill="#fdfefe" d="M 766.5,375.5 C 783.915,374.635 800.915,376.802 817.5,382C 843.621,394.032 857.621,414.032 859.5,442C 847.589,444.308 835.755,446.808 824,449.5C 816.364,414.268 795.197,401.435 760.5,411C 744.732,418.768 733.899,430.935 728,447.5C 721.533,465.966 718.867,484.966 720,504.5C 732.159,482.985 750.659,470.818 775.5,468C 827.834,466.325 857.668,491.492 865,543.5C 866.907,565.49 863.24,586.49 854,606.5C 839.168,631.849 817.001,646.016 787.5,649C 735.156,652.253 701.656,628.753 687,578.5C 678.61,543.111 677.276,507.444 683,471.5C 687.052,446.075 697.052,423.408 713,403.5C 727.758,388.205 745.591,378.872 766.5,375.5 Z"/></g>
<g><path style="opacity:1" fill="#fefefe" d="M 173.5,377.5 C 190.411,377.175 207.244,377.508 224,378.5C 264.333,448.5 304.667,518.5 345,588.5C 345.5,518.167 345.667,447.834 345.5,377.5C 358.167,377.5 370.833,377.5 383.5,377.5C 383.5,466.833 383.5,556.167 383.5,645.5C 367.256,645.825 351.089,645.491 335,644.5C 294,574.5 253,504.5 212,434.5C 211.5,504.833 211.333,575.166 211.5,645.5C 198.833,645.5 186.167,645.5 173.5,645.5C 173.5,556.167 173.5,466.833 173.5,377.5 Z"/></g>
<g><path style="opacity:1" fill="#00a28b" d="M 765.5,499.5 C 799.22,497.069 819.053,512.402 825,545.5C 827.823,565.336 823.49,583.336 812,599.5C 796.464,614.843 778.297,619.009 757.5,612C 743.343,604.56 733.177,593.393 727,578.5C 722.874,568.743 720.374,558.576 719.5,548C 725.728,522.939 741.061,506.772 765.5,499.5 Z"/></g>
<g><path style="opacity:1" fill="#fefffe" d="M 171.5,715.5 C 243.5,715.5 315.5,715.5 387.5,715.5C 387.5,726.833 387.5,738.167 387.5,749.5C 315.5,749.5 243.5,749.5 171.5,749.5C 171.5,738.167 171.5,726.833 171.5,715.5 Z"/></g>
</svg>
