<?xml version="1.0" encoding="UTF-8" standalone="no"?>
<svg
   viewBox="0 0 512 512"
   class="dark:fill-white h-32"
   version="1.1"
   id="svg1"
   sodipodi:docname="ideal-issuer-n26-icon-512x512.svg"
   width="512"
   height="512"
   inkscape:version="1.3.2 (091e20e, 2023-11-25)"
   xmlns:inkscape="http://www.inkscape.org/namespaces/inkscape"
   xmlns:sodipodi="http://sodipodi.sourceforge.net/DTD/sodipodi-0.dtd"
   xmlns="http://www.w3.org/2000/svg"
   xmlns:svg="http://www.w3.org/2000/svg"><defs
   id="defs1" />
<sodipodi:namedview
   id="namedview1"
   pagecolor="#ffffff"
   bordercolor="#666666"
   borderopacity="1.0"
   inkscape:showpageshadow="2"
   inkscape:pageopacity="0.0"
   inkscape:pagecheckerboard="true"
   inkscape:deskcolor="#d1d1d1"
   inkscape:zoom="1"
   inkscape:cx="108"
   inkscape:cy="134"
   inkscape:window-width="1504"
   inkscape:window-height="953"
   inkscape:window-x="2891"
   inkscape:window-y="158"
   inkscape:window-maximized="0"
   inkscape:current-layer="svg1" />
<path
   d="m 452.44104,223.52139 c -23.46295,0 -40.23652,10.85218 -48.70678,26.92452 0,-37.96591 13.24522,-71.04556 44.6887,-71.04556 19.99026,0 27.92626,11.50887 32.15582,30.36383 l 29.11722,-5.82122 c -6.84522,-32.56765 -27.5367,-48.384 -61.0727,-48.384 -42.12869,0 -73.65008,32.34504 -73.65008,104.84869 0,64.36731 26.27895,96.17809 71.56869,96.17809 37.43166,0 65.45809,-25.55548 65.45809,-67.67304 0,-32.90157 -17.54157,-65.39131 -59.55896,-65.39131 z M 446.61983,332.8 c -23.22922,0 -39.30157,-21.37043 -42.09531,-49.67513 7.0567,-24.1753 22.70609,-36.2073 41.19374,-36.2073 23.77461,0 37.19791,17.55269 37.19791,42.51826 0,26.79095 -15.28208,43.36417 -36.29634,43.36417 z m -154.88,-40.49252 c -9.42748,9.42748 -30.67548,26.44591 -45.50122,36.68591 h 88.9433 v 25.51096 H 204.29913 v -23.296 c 15.17078,-10.82991 46.66991,-34.34852 66.38191,-54.07165 18.86609,-18.86609 31.22087,-36.10713 31.22087,-61.41774 0,-24.89878 -13.6793,-35.25009 -32.16695,-35.25009 -18.944,0 -34.08139,10.95235 -34.08139,33.82539 0,4.98644 0.55652,10.52939 1.93669,16.90713 l -29.72939,-2.88278 a 62.853565,62.853565 0 0 1 -1.9367,-15.52696 c 0,-30.53078 21.41496,-57.23269 64.79026,-57.23269 35.78435,0 62.25253,18.57669 62.25253,59.19165 0,36.93078 -26.96905,63.49913 -39.10122,75.45322 z M 0,81.10748 h 158.61983 v 25.51096 H 0 Z m 128.8793,76.52174 v 134.67826 h -0.0111 c 0,11.9207 0.27826,19.13322 0.83479,26.06748 h -0.55653 c -2.91617,-7.936 -6.35547,-14.89252 -11.47547,-23.9527 L 38.021565,157.62922 H 1.6250435 V 354.50435 H 29.985391 V 219.82609 h 0.02226 c 0,-11.93183 -0.278261,-19.13322 -0.834782,-26.06748 h 0.556521 c 2.905044,7.936 6.344348,14.89252 11.464348,23.94157 l 79.649392,136.80417 h 36.02922 V 157.62922 Z M 0,405.51513 h 158.61983 v 25.37739 H 0 Z"
   id="path1"
   style="stroke-width:11.1304" />
N26</svg>
