<?xml version="1.0" encoding="UTF-8" standalone="no"?>
<svg
   version="1.1"
   id="Layer_1"
   x="0px"
   y="0px"
   viewBox="0 0 512 512"
   xml:space="preserve"
   sodipodi:docname="ideal-issuer-triodos-bank-icon-512x512.svg"
   width="512"
   height="512"
   inkscape:version="1.3.2 (091e20e, 2023-11-25)"
   xmlns:inkscape="http://www.inkscape.org/namespaces/inkscape"
   xmlns:sodipodi="http://sodipodi.sourceforge.net/DTD/sodipodi-0.dtd"
   xmlns="http://www.w3.org/2000/svg"
   xmlns:svg="http://www.w3.org/2000/svg"
   xmlns:rdf="http://www.w3.org/1999/02/22-rdf-syntax-ns#"
   xmlns:cc="http://creativecommons.org/ns#"
   xmlns:dc="http://purl.org/dc/elements/1.1/"><defs
   id="defs12">
	
	
	
	
	
	
	
	
	
	
	
	
</defs><sodipodi:namedview
   id="namedview12"
   pagecolor="#ffffff"
   bordercolor="#666666"
   borderopacity="1.0"
   inkscape:showpageshadow="2"
   inkscape:pageopacity="0.0"
   inkscape:pagecheckerboard="true"
   inkscape:deskcolor="#d1d1d1"
   inkscape:zoom="2.2666667"
   inkscape:cx="168.97059"
   inkscape:cy="377.20588"
   inkscape:window-width="1320"
   inkscape:window-height="913"
   inkscape:window-x="2341"
   inkscape:window-y="393"
   inkscape:window-maximized="0"
   inkscape:current-layer="Layer_1" />
<title
   id="title1">Triodos Bank logo</title>
<path
   fill="#00937b"
   d="M 512,267.83334 C 512,199.47366 486.88828,135.29928 440.85014,85.075838 417.13351,59.964121 390.6267,39.037691 359.9346,23.691642 l -6.97547,11.160763 c 16.74114,9.765667 32.08719,22.321526 46.03815,36.272479 47.43324,48.828346 73.94005,113.002726 75.33515,181.362406 0,9.76566 0,26.50681 -1.3951,40.45776 -8.37057,-29.297 -23.71662,-55.80381 -44.64305,-78.12534 -6.97548,-8.37057 -13.95096,-15.34605 -23.71662,-19.53133 -1.3951,20.92643 -5.58038,41.85286 -11.16077,62.77929 8.37058,5.58038 15.34605,12.55586 22.32153,19.53133 18.13624,16.74115 29.297,40.45777 30.6921,65.56949 0,12.55585 -5.58038,25.11171 -15.34605,33.48228 -13.95096,11.16077 -30.6921,16.74115 -48.82834,16.74115 -26.50681,-1.3951 -53.01362,-9.76567 -75.33515,-25.11172 34.87739,-34.87738 59.9891,-78.12534 71.14986,-125.55858 5.58039,-20.92643 8.37058,-41.85286 8.37058,-64.17439 0,-36.27248 -8.37058,-72.54496 -26.50682,-104.632155 C 336.21798,29.272023 290.17984,1.3701165 239.9564,1.3701165 177.17711,2.7652119 117.18801,30.667119 75.33515,76.705266 27.90191,122.74342 0,186.9178 0,253.88238 c 0,11.16076 0,22.32153 1.3951,33.48229 h 12.55585 c 0,-66.96458 26.50682,-129.74387 75.33515,-175.78202 25.11172,-23.716621 53.01363,-44.643052 85.10082,-58.594005 -22.32152,20.92643 -37.66757,48.828345 -46.03815,78.125345 -2.79019,9.76567 -4.18528,19.53133 -4.18528,29.297 19.53133,-9.76567 39.06267,-16.74114 59.9891,-20.92643 2.79019,-29.297 15.34605,-55.803817 34.87738,-78.125343 9.76567,-9.765668 22.32153,-16.741145 36.27248,-16.741145 22.32153,1.395096 41.85286,15.346049 51.61853,34.877385 12.55586,23.716623 18.13624,51.618533 15.34605,78.125343 -47.43324,-15.34605 -97.65668,-15.34605 -145.08992,0 -40.45776,9.76567 -76.73024,30.6921 -106.02725,59.9891 -30.69209,29.297 -48.82833,68.35968 -51.61852,110.21254 1.39509,41.85286 19.53133,80.91553 50.22343,108.81743 50.22343,47.43325 115.79291,75.33515 185.54768,73.94006 54.40872,0 106.02725,-16.74115 150.6703,-47.43324 l -2.79019,-8.37058 c -34.87738,19.53134 -73.94005,29.29701 -114.39782,29.29701 -61.3842,1.39509 -119.9782,-18.13624 -168.80654,-54.40872 12.55586,4.18528 26.50681,6.97547 40.45777,6.97547 26.50681,0 53.01362,-5.58038 76.73024,-16.74114 -18.13624,-12.55586 -34.87738,-26.50681 -48.82834,-41.85286 -18.13624,6.97548 -39.06267,12.55586 -58.594,12.55586 -19.53134,1.39509 -37.66758,-5.58038 -51.61853,-18.13624 -8.37057,-8.37057 -12.55586,-19.53134 -12.55586,-32.0872 1.3951,-23.71662 12.55586,-47.43324 30.6921,-62.77929 11.16076,-12.55586 25.11172,-22.32152 40.45777,-29.297 12.55585,47.43324 37.66757,92.07629 72.54496,126.95368 40.45776,41.85286 96.26158,66.96458 154.85558,69.75477 37.66758,1.39509 73.94006,-12.55586 100.44687,-37.66758 C 495.25886,368.2802 512,318.05677 512,267.83334 M 318.08174,225.98047 c -12.55585,39.06267 -34.87738,73.94006 -64.17438,103.23706 -27.90191,-30.6921 -46.03815,-66.96458 -55.80382,-107.42234 16.74115,-4.18529 33.48229,-5.58038 50.22344,-5.58038 23.71662,0 47.43324,4.18528 69.75476,9.76566"
   id="path1"
   style="stroke-width:13.951" />
<metadata
   id="metadata12"><rdf:RDF><cc:Work
       rdf:about=""><dc:title>Triodos Bank logo</dc:title></cc:Work></rdf:RDF></metadata></svg>
