<svg width="32" height="24" viewBox="0 0 32 24" fill="none" xmlns="http://www.w3.org/2000/svg">
<rect width="32" height="24" rx="4" fill="#00927B"/>
<path fill-rule="evenodd" clip-rule="evenodd" d="M23.5481 12.237C23.5481 10.0399 22.6093 7.91476 21.3623 6.65476C20.5679 5.86276 19.8457 5.37676 18.7793 4.90763L18.671 5.10563C19.1766 5.41276 19.593 5.73676 20.0804 6.22276C21.4707 7.55476 22.3926 9.85988 22.3926 11.751C22.3926 12.039 22.3926 12.615 22.3565 13.029C22.194 12.219 21.6873 11.355 20.9832 10.6519C20.7846 10.4539 20.4957 10.1479 20.279 10.0399C20.279 10.4539 20.1165 11.409 19.9179 11.967C20.1888 12.183 20.3332 12.345 20.586 12.579C21.1637 13.173 21.5429 13.9301 21.5429 14.5601C21.5429 14.9201 21.3804 15.2981 21.0915 15.5861C20.8026 15.8741 20.2068 16.0901 19.611 16.0901C18.9057 16.0901 17.8585 15.7121 17.3169 15.3161C18.4182 14.2001 19.0863 12.993 19.5027 11.481C19.6832 10.8319 19.7735 10.1839 19.7735 9.53588C19.7735 8.36588 19.4846 7.24876 18.978 6.36676C18.1655 4.96163 16.9377 4.16963 15.3297 4.16963C13.4147 4.16963 11.6273 5.10563 10.2901 6.45676C8.75541 8.00476 7.99597 9.89588 7.99597 11.841C7.99597 12.183 8.01403 12.507 8.06819 12.885H8.28598C8.30404 12.309 8.37626 11.769 8.53875 11.103C8.84569 9.89588 9.67622 8.56388 10.7234 7.51876C11.4829 6.76276 12.6023 6.02476 13.3786 5.71876C12.7828 6.20476 12.2051 7.10476 11.9162 8.11388C11.844 8.38388 11.7717 8.74388 11.7717 8.99588C12.1328 8.77988 13.0356 8.45588 13.6133 8.36588C13.7397 7.53676 14.0478 6.61876 14.6617 6.00676C14.9686 5.70076 15.3297 5.50276 15.7811 5.50276C16.4672 5.50276 17.01 6.00676 17.353 6.58276C17.696 7.17676 17.9127 8.23988 17.8224 8.95988C17.0641 8.74388 16.3408 8.63588 15.6186 8.63588C14.8964 8.63588 14.1742 8.74388 13.3967 8.95988C12.1328 9.30188 10.9762 9.94988 10.1457 10.7779C9.26095 11.661 8.57486 12.885 8.57486 14.1461C8.57486 15.4601 9.2429 16.5593 10.1276 17.4593C11.6092 18.9353 13.7217 19.6924 15.7991 19.6924C17.4794 19.6924 18.978 19.1153 20.3332 18.1253L20.2249 17.9453C19.1404 18.5393 18.003 18.8273 16.7211 18.8273C14.7881 18.8273 12.9453 18.2333 11.519 17.1533C11.9523 17.2973 12.4398 17.3693 12.8009 17.3693C13.4328 17.3693 14.5894 17.1893 15.1492 16.8473C14.7519 16.6133 14.0297 16.0361 13.6495 15.5861C13.1078 15.8021 12.4398 15.9641 11.844 15.9641C11.2842 15.9641 10.6692 15.8381 10.272 15.4241C10.0373 15.1541 9.89288 14.8121 9.89288 14.4521C9.89288 13.6961 10.3081 13.065 10.8137 12.543C11.1759 12.165 11.6634 11.823 12.0426 11.643C12.4578 13.173 13.162 14.3981 14.2645 15.4961C15.6366 16.8473 17.4252 17.6033 18.996 17.6033C20.1888 17.6213 21.1999 17.2793 22.0484 16.4333C22.9523 15.5141 23.5481 13.8941 23.5481 12.237ZM17.5877 10.977C17.2086 12.147 16.5033 13.209 15.6547 14.0381C14.8242 13.155 14.2645 12.003 13.9756 10.851C14.4631 10.7419 14.9686 10.6879 15.4741 10.6879C16.1963 10.6879 16.9016 10.7959 17.5877 10.977Z" fill="white"/>
</svg>
