<?xml version="1.0" encoding="UTF-8" standalone="no"?>
<svg
   version="1.1"
   id="Layer_1"
   x="0px"
   y="0px"
   viewBox="0 0 640 360"
   xml:space="preserve"
   sodipodi:docname="ideal-issuer-triodos-bank-640x360.svg"
   width="640"
   height="360"
   inkscape:version="1.3.2 (091e20e, 2023-11-25)"
   xmlns:inkscape="http://www.inkscape.org/namespaces/inkscape"
   xmlns:sodipodi="http://sodipodi.sourceforge.net/DTD/sodipodi-0.dtd"
   xmlns="http://www.w3.org/2000/svg"
   xmlns:svg="http://www.w3.org/2000/svg"
   xmlns:rdf="http://www.w3.org/1999/02/22-rdf-syntax-ns#"
   xmlns:cc="http://creativecommons.org/ns#"
   xmlns:dc="http://purl.org/dc/elements/1.1/"><defs
   id="defs12" /><sodipodi:namedview
   id="namedview12"
   pagecolor="#ffffff"
   bordercolor="#666666"
   borderopacity="1.0"
   inkscape:showpageshadow="2"
   inkscape:pageopacity="0.0"
   inkscape:pagecheckerboard="true"
   inkscape:deskcolor="#d1d1d1"
   inkscape:zoom="2.2666667"
   inkscape:cx="142.5"
   inkscape:cy="19.852941"
   inkscape:window-width="1240"
   inkscape:window-height="917"
   inkscape:window-x="2766"
   inkscape:window-y="344"
   inkscape:window-maximized="0"
   inkscape:current-layer="Layer_1" />
<title
   id="title1">Triodos Bank logo</title>
<g
   id="g12"
   transform="matrix(1.8053597,0,0,1.8053597,63.999995,147.04895)">
   <path
   fill="#00937b"
   d="M 183.9,19.1 C 183.9,14.2 182.1,9.6 178.8,6 177.1,4.2 175.2,2.7 173,1.6 l -0.5,0.8 c 1.2,0.7 2.3,1.6 3.3,2.6 3.4,3.5 5.3,8.1 5.4,13 0,0.7 0,1.9 -0.1,2.9 -0.6,-2.1 -1.7,-4 -3.2,-5.6 -0.5,-0.6 -1,-1.1 -1.7,-1.4 -0.1,1.5 -0.4,3 -0.8,4.5 0.6,0.4 1.1,0.9 1.6,1.4 1.3,1.2 2.1,2.9 2.2,4.7 0,0.9 -0.4,1.8 -1.1,2.4 -1,0.8 -2.2,1.2 -3.5,1.2 -1.9,-0.1 -3.8,-0.7 -5.4,-1.8 2.5,-2.5 4.3,-5.6 5.1,-9 0.4,-1.5 0.6,-3 0.6,-4.6 0,-2.6 -0.6,-5.2 -1.9,-7.5 C 171.3,2 168,0 164.4,0 c -4.5,0.1 -8.8,2.1 -11.8,5.4 -3.4,3.3 -5.4,7.9 -5.4,12.7 0,0.8 0,1.6 0.1,2.4 h 0.9 c 0,-4.8 1.9,-9.3 5.4,-12.6 1.8,-1.7 3.8,-3.2 6.1,-4.2 -1.6,1.5 -2.7,3.5 -3.3,5.6 -0.2,0.7 -0.3,1.4 -0.3,2.1 1.4,-0.7 2.8,-1.2 4.3,-1.5 0.2,-2.1 1.1,-4 2.5,-5.6 0.7,-0.7 1.6,-1.2 2.6,-1.2 1.6,0.1 3,1.1 3.7,2.5 0.9,1.7 1.3,3.7 1.1,5.6 -3.4,-1.1 -7,-1.1 -10.4,0 -2.9,0.7 -5.5,2.2 -7.6,4.3 -2.2,2.1 -3.5,4.9 -3.7,7.9 0.1,3 1.4,5.8 3.6,7.8 3.6,3.4 8.3,5.4 13.3,5.3 3.9,0 7.6,-1.2 10.8,-3.4 l -0.2,-0.6 c -2.5,1.4 -5.3,2.1 -8.2,2.1 -4.4,0.1 -8.6,-1.3 -12.1,-3.9 0.9,0.3 1.9,0.5 2.9,0.5 1.9,0 3.8,-0.4 5.5,-1.2 -1.3,-0.9 -2.5,-1.9 -3.5,-3 -1.3,0.5 -2.8,0.9 -4.2,0.9 -1.4,0.1 -2.7,-0.4 -3.7,-1.3 -0.6,-0.6 -0.9,-1.4 -0.9,-2.3 0.1,-1.7 0.9,-3.4 2.2,-4.5 0.8,-0.9 1.8,-1.6 2.9,-2.1 0.9,3.4 2.7,6.6 5.2,9.1 2.9,3 6.9,4.8 11.1,5 2.7,0.1 5.3,-0.9 7.2,-2.7 2.2,-2.8 3.4,-6.4 3.4,-10 m -13.9,-3 c -0.9,2.8 -2.5,5.3 -4.6,7.4 -2,-2.2 -3.3,-4.8 -4,-7.7 1.2,-0.3 2.4,-0.4 3.6,-0.4 1.7,0 3.4,0.3 5,0.7"
   id="path1" />
   <path
   fill="#00006b"
   d="M 9.5,4.4 H 7.8 C 6.8,4.4 5.9,4.5 5,4.6 4.4,4.8 3.8,5.1 3.3,5.5 2.8,6 2.5,6.6 2.3,7.2 2.1,8 1.8,8.9 1.5,10 H 0 C 0,9.8 0,9.4 0.1,8.7 0.2,8 0.2,7.3 0.3,6.5 0.4,5.7 0.4,4.9 0.5,4.2 0.5,3.7 0.6,3.2 0.7,2.8 h 23.4 c 0,0.2 0.1,0.7 0.1,1.4 0,0.7 0.1,1.5 0.2,2.3 0.1,0.8 0.1,1.5 0.1,2.2 0,0.7 0.1,1.1 0.1,1.3 H 23 C 22.7,8.9 22.5,8 22.2,7.2 22,6.6 21.7,6 21.2,5.5 20.7,5.1 20.1,4.7 19.5,4.6 18.6,4.4 17.6,4.3 16.7,4.4 H 15 v 20 c 0,1.1 0,1.9 0,2.5 0,0.5 0.1,0.9 0.3,1.4 0.2,0.3 0.5,0.6 0.8,0.7 0.5,0.1 1,0.2 1.6,0.3 l 1,0.1 v 1.1 H 5.8 v -1.1 l 1,-0.1 c 0.5,-0.1 1.1,-0.2 1.6,-0.3 0.4,-0.1 0.7,-0.3 0.8,-0.7 0.2,-0.4 0.3,-0.9 0.3,-1.4 0,-0.6 0,-1.4 0,-2.5 z"
   id="path2" />
   <path
   fill="#00006b"
   d="m 26.4,16.8 c 0,-0.4 0,-0.8 0,-1.1 0,-0.4 -0.1,-0.7 -0.1,-1.1 -0.1,-0.3 -0.2,-0.6 -0.4,-0.8 -0.2,-0.2 -0.4,-0.3 -0.7,-0.3 -0.3,0 -0.5,0 -0.8,0.1 -0.2,0 -0.4,0.1 -0.5,0.2 v -1.1 c 0.8,-0.3 1.5,-0.5 2,-0.7 0.5,-0.2 1.1,-0.3 1.6,-0.5 L 29,11.1 c 0.5,-0.1 1.2,-0.2 1.9,-0.3 0.1,0.4 0.1,0.8 0.2,1.3 0.1,0.5 0.1,1.1 0.1,1.6 0.2,-0.2 0.5,-0.5 0.8,-0.8 0.3,-0.3 0.7,-0.7 1.1,-0.9 0.4,-0.3 0.9,-0.6 1.3,-0.8 0.5,-0.2 1,-0.3 1.6,-0.3 0.4,0 0.8,0.1 1.2,0.2 0.3,0.1 0.7,0.3 1,0.5 0.3,0.2 0.5,0.4 0.7,0.6 0.2,0.2 0.4,0.4 0.5,0.6 -0.3,0.6 -0.6,1.1 -1,1.6 -0.5,0.5 -1,1 -1.5,1.3 -0.3,-0.1 -0.5,-0.1 -0.8,-0.2 -0.3,-0.1 -0.7,-0.3 -1.1,-0.4 l -1,-0.5 c -0.2,-0.1 -0.5,-0.1 -0.7,-0.2 -0.3,0 -0.6,0.1 -0.9,0.2 -0.3,0.2 -0.6,0.4 -0.8,0.7 v 10.2 c 0,0.8 0,1.4 0,1.8 0,0.4 0.1,0.7 0.2,1.1 0.1,0.3 0.3,0.5 0.5,0.6 0.3,0.1 0.7,0.2 1,0.2 l 1.7,0.2 v 1.1 H 23.8 v -1.1 l 0.9,-0.1 c 0.3,0 0.6,-0.1 0.9,-0.2 0.2,-0.1 0.4,-0.2 0.5,-0.5 0.1,-0.3 0.2,-0.5 0.2,-0.8 0,-0.5 0.1,-0.9 0.1,-1.4 z"
   id="path3" />
   <path
   fill="#00006b"
   d="m 41.2,29.4 0.9,-0.1 c 0.3,0 0.6,-0.1 0.9,-0.2 0.2,-0.1 0.4,-0.2 0.5,-0.4 0.1,-0.3 0.2,-0.5 0.2,-0.8 0,-0.5 0.1,-0.9 0.1,-1.4 v -9.9 c 0,-0.4 0,-0.7 0,-1.1 0,-0.4 -0.1,-0.7 -0.2,-1.1 -0.1,-0.3 -0.2,-0.6 -0.4,-0.8 -0.2,-0.2 -0.4,-0.3 -0.7,-0.3 -0.3,0 -0.6,0 -0.8,0.1 l -0.5,0.1 v -1.2 c 2.5,-0.9 5,-1.4 7.6,-1.5 v 15.8 c 0,0.5 0,0.9 0.1,1.4 0,0.3 0.1,0.6 0.2,0.8 0.1,0.2 0.3,0.4 0.5,0.4 0.3,0.1 0.6,0.2 0.9,0.2 l 0.9,0.1 v 1.1 H 41.2 Z M 46.1,7.3 C 45.3,7.3 44.6,7 44,6.5 43.4,5.9 43.1,5.2 43.2,4.4 c 0,-0.8 0.3,-1.5 0.8,-2.1 0.6,-0.6 1.3,-0.9 2.1,-0.8 0.8,0 1.5,0.3 2.1,0.8 0.5,0.5 0.8,1.2 0.8,2 0,0.8 -0.3,1.6 -0.9,2.2 -0.5,0.5 -1.3,0.8 -2,0.8 z"
   id="path4" />
   <path
   fill="#00006b"
   d="m 63.3,31.1 c -1.3,0 -2.6,-0.2 -3.9,-0.6 -1.2,-0.4 -2.3,-1 -3.3,-1.8 -1,-0.8 -1.8,-1.9 -2.3,-3.1 -0.6,-1.4 -0.9,-3 -0.8,-4.5 0,-1.6 0.3,-3.2 0.9,-4.7 0.6,-1.2 1.4,-2.4 2.4,-3.2 1,-0.9 2.2,-1.5 3.4,-1.9 1.3,-0.4 2.6,-0.6 3.9,-0.6 1.3,0 2.7,0.2 4,0.6 1.2,0.4 2.4,1 3.3,1.8 1,0.8 1.8,1.8 2.3,3 0.6,1.4 0.9,2.9 0.9,4.4 0,1.7 -0.3,3.3 -0.9,4.8 -0.6,1.3 -1.4,2.4 -2.4,3.3 -1,0.9 -2.2,1.5 -3.4,1.9 -1.4,0.4 -2.7,0.6 -4.1,0.6 z m -5,-10.8 c 0,1.1 0.1,2.2 0.3,3.3 0.2,1 0.5,2.1 1,3 0.4,0.8 1,1.6 1.7,2.1 0.7,0.6 1.6,0.9 2.6,0.8 0.9,0 1.7,-0.2 2.4,-0.8 0.6,-0.5 1.1,-1.2 1.5,-2 0.4,-0.8 0.6,-1.7 0.7,-2.6 0.1,-0.9 0.2,-1.8 0.2,-2.7 0,-1.1 -0.1,-2.2 -0.3,-3.3 -0.2,-1 -0.5,-2 -0.9,-2.9 -0.4,-0.8 -1,-1.5 -1.7,-2.1 -0.8,-0.6 -1.7,-0.8 -2.7,-0.8 -0.9,0 -1.7,0.2 -2.4,0.8 -0.6,0.5 -1.2,1.1 -1.5,1.9 -0.4,0.8 -0.6,1.7 -0.8,2.6 0,0.9 -0.1,1.8 -0.1,2.7 z"
   id="path5" />
   <path
   fill="#00006b"
   d="m 91.6,7.6 c 0,-1.4 0,-2.7 -0.2,-4.1 -0.1,-0.8 -0.5,-1.3 -1.2,-1.3 -0.2,0 -0.5,0 -0.7,0 H 89 v -1 c 0.9,-0.2 1.7,-0.3 2.3,-0.4 0.6,-0.1 1.4,-0.2 1.9,-0.3 0.5,-0.1 1.2,-0.1 1.7,-0.2 0.5,-0.1 1.1,0 1.7,0 v 23.6 c 0,0.8 0,1.5 0,2.1 0,0.4 0.1,0.9 0.2,1.3 0.1,0.3 0.3,0.5 0.6,0.7 0.3,0.2 0.7,0.2 1.1,0.2 h 0.9 l 0.1,1.1 c -1.1,0.4 -2.2,0.7 -3.3,1 -1.1,0.3 -2.2,0.5 -3.4,0.7 l -1.1,-1.9 -1,0.5 c -0.4,0.2 -0.9,0.5 -1.3,0.6 -0.5,0.2 -1.1,0.4 -1.6,0.5 -0.6,0.1 -1.3,0.2 -1.9,0.2 -1.2,0 -2.3,-0.2 -3.4,-0.6 -2.3,-0.8 -4.1,-2.4 -5.1,-4.6 -0.6,-1.3 -0.8,-2.7 -0.8,-4.2 0,-1.4 0.2,-2.8 0.7,-4.1 0.4,-1.1 1,-2.1 1.7,-3 0.7,-0.8 1.5,-1.5 2.4,-2 0.8,-0.5 1.7,-0.9 2.7,-1.2 0.8,-0.3 1.7,-0.5 2.6,-0.6 0.7,-0.1 1.4,-0.1 2.1,-0.1 0.5,0 1,0 1.6,0.1 l 1.2,0.2 z m 0,6.2 c -0.4,-0.4 -0.9,-0.7 -1.3,-1 -0.7,-0.4 -1.5,-0.5 -2.2,-0.5 -0.9,0 -1.7,0.2 -2.5,0.6 -0.7,0.4 -1.3,0.9 -1.8,1.6 -0.5,0.7 -0.9,1.5 -1.1,2.3 -0.3,1 -0.4,1.9 -0.4,2.9 0,1.3 0.2,2.6 0.6,3.8 0.4,1 0.9,2 1.6,2.8 0.6,0.7 1.4,1.3 2.2,1.7 0.8,0.4 1.6,0.6 2.5,0.6 0.5,0 1,-0.1 1.5,-0.2 0.4,-0.1 0.7,-0.3 1,-0.5 z"
   id="path6" />
   <path
   fill="#00006b"
   d="m 111.5,31.1 c -1.3,0 -2.6,-0.2 -3.9,-0.6 -1.2,-0.4 -2.3,-1 -3.3,-1.8 -1,-0.8 -1.8,-1.9 -2.3,-3.1 -0.6,-1.4 -0.9,-3 -0.9,-4.5 0,-1.6 0.3,-3.2 0.9,-4.7 0.6,-1.2 1.4,-2.4 2.4,-3.2 1,-0.9 2.2,-1.5 3.4,-1.9 1.3,-0.4 2.6,-0.6 3.9,-0.6 1.4,0 2.7,0.2 4,0.6 1.2,0.4 2.3,1 3.2,1.8 1,0.8 1.8,1.8 2.3,3 0.6,1.4 0.9,2.9 0.9,4.4 0,1.7 -0.3,3.3 -0.9,4.8 -0.6,1.3 -1.4,2.4 -2.4,3.3 -1,0.9 -2.2,1.5 -3.4,1.9 -1.3,0.4 -2.6,0.6 -3.9,0.6 z m -5,-10.8 c 0,1.1 0.1,2.2 0.3,3.3 0.2,1 0.5,2.1 1,3 0.4,0.8 1,1.6 1.7,2.1 0.7,0.6 1.6,0.9 2.6,0.8 0.9,0 1.7,-0.2 2.4,-0.8 0.6,-0.5 1.1,-1.2 1.5,-2 0.4,-0.8 0.6,-1.7 0.7,-2.6 0.1,-0.9 0.2,-1.8 0.2,-2.7 0,-1.1 -0.1,-2.2 -0.3,-3.3 -0.2,-1 -0.5,-2 -0.9,-2.9 -0.4,-0.8 -1,-1.6 -1.7,-2.1 -0.8,-0.6 -1.7,-0.8 -2.7,-0.8 -0.9,0 -1.7,0.2 -2.4,0.8 -0.6,0.5 -1.2,1.2 -1.5,1.9 -0.4,0.8 -0.6,1.7 -0.8,2.6 -0.1,0.9 -0.1,1.8 -0.1,2.7 z"
   id="path7" />
   <path
   fill="#00006b"
   d="m 136.7,17.1 c 0,-0.4 -0.1,-0.9 -0.3,-1.3 -0.2,-0.6 -0.4,-1.1 -0.7,-1.6 -0.3,-0.5 -0.7,-1 -1.2,-1.3 -0.6,-0.4 -1.3,-0.6 -1.9,-0.5 -0.6,0 -1.2,0.3 -1.7,0.8 -0.5,0.5 -0.7,1.2 -0.7,1.9 0,0.7 0.2,1.3 0.7,1.8 0.5,0.5 1.1,1 1.7,1.3 0.7,0.4 1.5,0.8 2.3,1.1 0.8,0.4 1.6,0.8 2.3,1.3 0.7,0.5 1.3,1.1 1.8,1.8 0.5,0.8 0.7,1.7 0.7,2.7 0,0.8 -0.1,1.6 -0.4,2.3 -0.3,0.7 -0.8,1.4 -1.4,1.9 -0.7,0.6 -1.6,1.1 -2.5,1.3 -1.2,0.3 -2.4,0.5 -3.7,0.5 -1.1,0 -2.2,-0.1 -3.3,-0.4 -0.9,-0.2 -1.7,-0.5 -2.5,-0.9 -0.5,-2 -0.8,-4 -0.8,-6 h 1.7 c 0.1,0.6 0.2,1.3 0.5,1.9 0.3,0.7 0.6,1.3 1.1,1.8 0.4,0.6 1,1.1 1.6,1.5 0.6,0.4 1.4,0.6 2.1,0.6 0.8,0.1 1.5,-0.3 2.1,-0.8 0.5,-0.5 0.7,-1.2 0.7,-2 0,-0.7 -0.2,-1.5 -0.7,-2.1 -0.5,-0.6 -1.1,-1 -1.7,-1.4 -0.7,-0.4 -1.5,-0.8 -2.3,-1.2 -0.8,-0.3 -1.6,-0.8 -2.3,-1.3 -0.7,-0.5 -1.3,-1.1 -1.7,-1.9 -0.5,-0.8 -0.7,-1.8 -0.7,-2.8 0,-0.1 0,-0.4 0.1,-1 0.1,-0.7 0.4,-1.3 0.8,-1.9 0.6,-0.8 1.3,-1.4 2.2,-1.8 1.4,-0.6 2.8,-0.9 4.3,-0.8 1,0 2,0.1 3,0.4 0.7,0.2 1.4,0.5 2.1,0.8 0.2,0.8 0.4,1.7 0.4,2.6 0,0.9 0.1,1.8 0.1,2.6 z"
   id="path8" />
   <path
   fill="#00006b"
   d="m 191.3,29.4 1,-0.1 c 0.5,-0.1 0.9,-0.2 1.1,-0.3 0.3,-0.1 0.5,-0.3 0.6,-0.6 0.2,-0.5 0.2,-0.9 0.2,-1.4 0,-0.6 0,-1.5 0,-2.7 V 8.9 c 0,-1.2 0,-2.1 0,-2.7 0,-0.5 -0.1,-0.9 -0.2,-1.4 C 193.9,4.5 193.7,4.3 193.4,4.2 193,4.1 192.7,4 192.3,3.9 l -1,-0.1 v -1 h 12.5 1.4 c 0.6,0 1.2,0.1 1.8,0.2 0.7,0.1 1.3,0.3 2,0.5 0.7,0.2 1.3,0.6 1.9,1 0.6,0.4 1,1 1.4,1.6 0.4,0.8 0.6,1.6 0.5,2.4 0,1 -0.2,2 -0.6,2.9 -0.4,0.8 -0.8,1.4 -1.4,2 -0.6,0.5 -1.2,0.9 -1.9,1.2 -0.6,0.3 -1.2,0.5 -1.9,0.7 v 0.1 c 0.8,0.1 1.5,0.3 2.2,0.5 0.8,0.3 1.6,0.7 2.3,1.3 0.7,0.6 1.4,1.3 1.8,2.2 0.5,1 0.8,2.1 0.7,3.2 0,1.3 -0.3,2.7 -1,3.8 -0.7,1 -1.6,1.8 -2.6,2.4 -1.2,0.6 -2.5,1.1 -3.8,1.3 -1.5,0.3 -3,0.4 -4.5,0.4 h -10.9 v -1.1 c 0,0 0.1,0 0.1,0 z M 199.7,15 h 1.6 c 0.8,0 1.5,-0.1 2.3,-0.2 0.7,-0.1 1.4,-0.4 1.9,-0.8 0.6,-0.4 1,-1 1.3,-1.6 0.4,-0.9 0.5,-1.8 0.5,-2.8 0.1,-1.4 -0.5,-2.8 -1.5,-3.8 -1.1,-1 -2.5,-1.4 -3.9,-1.4 -0.7,0 -1.5,0.1 -2.1,0.3 z m 0,13.2 c 0.5,0.2 1.1,0.4 1.7,0.5 0.6,0.1 1.1,0.2 1.7,0.2 1.6,0.1 3.1,-0.4 4.2,-1.6 0.9,-1.2 1.4,-2.6 1.3,-4.1 0,-0.8 -0.1,-1.6 -0.4,-2.4 -0.3,-0.8 -0.7,-1.5 -1.3,-2.1 -0.6,-0.7 -1.4,-1.2 -2.2,-1.5 -1,-0.4 -2.1,-0.6 -3.2,-0.6 h -1.8 z"
   id="path9" />
   <path
   fill="#00006b"
   d="m 235,30 c -0.3,0.1 -0.7,0.4 -1.3,0.6 -0.7,0.3 -1.5,0.5 -2.3,0.4 -0.6,0 -1.1,0 -1.7,-0.2 -0.4,-0.1 -0.8,-0.3 -1.1,-0.5 -0.3,-0.2 -0.6,-0.4 -0.8,-0.7 -0.2,-0.3 -0.4,-0.5 -0.5,-0.8 l -1,0.7 c -0.4,0.3 -0.8,0.5 -1.3,0.7 -0.5,0.2 -1,0.4 -1.6,0.5 -0.7,0.1 -1.3,0.2 -2,0.2 -1.4,0.1 -2.9,-0.4 -4,-1.3 -1,-0.8 -1.5,-2 -1.5,-3.3 0,-1.2 0.4,-2.4 1.2,-3.3 0.8,-0.9 1.8,-1.6 2.9,-2.2 1.1,-0.6 2.3,-1 3.6,-1.3 l 3.2,-0.8 v -1 c 0,-0.6 0,-1.2 -0.1,-1.8 -0.1,-0.5 -0.3,-1.1 -0.6,-1.5 -0.3,-0.4 -0.7,-0.8 -1.1,-1 -0.6,-0.3 -1.2,-0.4 -1.8,-0.4 -0.7,0 -1.4,0.1 -2.1,0.5 -0.5,0.3 -1,0.7 -1.4,1.1 -0.4,0.4 -0.7,0.9 -0.9,1.4 -0.2,0.5 -0.4,0.9 -0.6,1.2 h -0.4 c -0.3,-0.3 -0.5,-0.6 -0.7,-1 -0.2,-0.4 -0.3,-0.8 -0.5,-1.2 0.5,-0.5 1.1,-1.1 1.6,-1.6 0.6,-0.5 1.3,-1 2,-1.4 0.8,-0.4 1.6,-0.8 2.5,-1.1 1,-0.3 1.9,-0.4 2.9,-0.4 1.1,0 2.2,0.1 3.2,0.5 0.8,0.3 1.4,0.8 1.9,1.5 0.5,0.7 0.8,1.5 0.9,2.4 0.2,1.1 0.3,2.1 0.2,3.2 v 5.2 c 0,0.8 0,1.5 0,2.2 0,0.7 0.1,1.3 0.3,2 0.2,0.5 0.5,1 0.9,1.3 0.4,0.4 1,0.6 1.6,0.5 0.1,0 0.2,0 0.3,0 z m -8.2,-9.2 h -0.2 -0.2 c -0.6,0 -1.2,0.1 -1.8,0.2 -0.6,0.2 -1.1,0.4 -1.6,0.8 -0.5,0.3 -0.9,0.8 -1.2,1.3 -0.3,0.6 -0.5,1.3 -0.4,2 0,0.9 0.3,1.8 0.8,2.5 0.6,0.7 1.4,1 2.3,1 0.6,0 1.2,-0.1 1.7,-0.4 0.3,-0.2 0.6,-0.4 0.9,-0.6 0,-0.2 -0.1,-0.6 -0.1,-1 0,-0.4 -0.1,-0.9 -0.1,-1.3 z"
   id="path10" />
   <path
   fill="#00006b"
   d="m 239.4,16.6 c 0,-0.4 0,-0.7 0,-1.1 0,-0.4 -0.1,-0.7 -0.1,-1.1 -0.1,-0.3 -0.2,-0.6 -0.4,-0.8 -0.2,-0.2 -0.4,-0.3 -0.7,-0.3 -0.3,0 -0.6,0 -0.8,0.1 l -0.5,0.1 v -1.2 c 1.4,-0.5 2.7,-0.8 4.1,-1.1 1.1,-0.2 2.3,-0.3 3.4,-0.4 v 2.4 c 0.3,-0.3 0.7,-0.5 1,-0.8 0.4,-0.3 0.9,-0.6 1.4,-0.8 0.6,-0.3 1.2,-0.5 1.9,-0.6 0.8,-0.2 1.6,-0.3 2.4,-0.2 0.9,0 1.8,0.1 2.6,0.4 0.8,0.2 1.4,0.7 2,1.2 0.6,0.7 1.1,1.4 1.3,2.3 0.3,1.2 0.5,2.4 0.5,3.6 v 8.3 c 0,0.5 0,0.9 0.1,1.4 0,0.3 0.1,0.6 0.2,0.8 0.1,0.2 0.3,0.4 0.5,0.5 0.3,0.1 0.6,0.2 0.9,0.2 l 0.9,0.1 v 1.1 h -10.3 v -1.1 l 0.9,-0.1 c 0.3,0 0.6,-0.1 0.9,-0.2 0.2,-0.1 0.4,-0.2 0.5,-0.5 0.1,-0.3 0.2,-0.5 0.2,-0.8 0,-0.5 0.1,-0.9 0.1,-1.4 v -6 c 0,-0.8 0,-1.7 -0.1,-2.6 0,-0.8 -0.2,-1.6 -0.5,-2.4 -0.3,-0.7 -0.7,-1.3 -1.3,-1.7 -0.7,-0.5 -1.6,-0.7 -2.5,-0.7 -0.8,0 -1.5,0.1 -2.1,0.5 -0.5,0.3 -0.9,0.7 -1.3,1.1 v 11.8 c 0,0.5 0,0.9 0.1,1.4 0,0.3 0.1,0.6 0.2,0.8 0.1,0.2 0.3,0.4 0.5,0.5 0.3,0.1 0.6,0.2 0.9,0.2 l 0.9,0.1 v 1.1 H 237 v -1.1 l 0.9,-0.1 c 0.3,0 0.6,-0.1 0.9,-0.2 0.2,-0.1 0.4,-0.2 0.5,-0.5 0.1,-0.3 0.2,-0.5 0.2,-0.8 0,-0.5 0.1,-0.9 0.1,-1.4 v -10 z"
   id="path11" />
   <path
   fill="#00006b"
   d="m 261.3,29.4 0.9,-0.1 c 0.3,0 0.6,-0.1 0.9,-0.2 0.2,-0.1 0.4,-0.2 0.5,-0.4 0.1,-0.3 0.2,-0.5 0.2,-0.8 0,-0.5 0.1,-0.9 0.1,-1.4 V 7.6 c 0,-1.4 0,-2.7 -0.2,-4.1 -0.1,-0.8 -0.5,-1.3 -1.2,-1.3 -0.2,0 -0.5,0 -0.7,0 h -0.5 v -1 c 0.9,-0.2 1.6,-0.3 2.4,-0.4 0.8,-0.1 1.3,-0.2 1.9,-0.3 0.6,-0.1 1.2,-0.1 1.7,-0.2 0.5,-0.1 1.1,0 1.7,0 v 19.3 c 0.4,0 0.7,0 1,0 0.3,0 0.6,-0.1 0.9,-0.2 0.3,-0.1 0.6,-0.3 0.9,-0.5 0.4,-0.3 0.7,-0.6 1,-1 l 1.4,-1.6 c 0.5,-0.6 1,-1.2 1.5,-1.9 0.2,-0.3 0.3,-0.7 0.4,-1.1 0,-0.2 -0.1,-0.3 -0.4,-0.4 l -0.9,-0.2 -1.3,-0.2 v -1.2 h 9.3 v 1.1 l -0.8,0.1 c -0.5,0.1 -1.1,0.2 -1.5,0.4 -0.5,0.2 -0.9,0.5 -1.3,0.8 -0.6,0.5 -1.1,1.1 -1.7,1.7 -0.7,0.7 -1.6,1.7 -2.8,2.9 l 2.9,4.5 c 0.8,1.2 1.5,2.2 2,3.1 0.5,0.9 1,1.5 1.4,1.9 0.3,0.4 0.6,0.7 1,1 0.2,0.2 0.5,0.3 0.8,0.4 0.3,0.1 0.5,0.1 0.8,0.1 v 1.1 h -3.2 c -0.9,0 -1.8,-0.1 -2.6,-0.3 -0.6,-0.2 -1.2,-0.5 -1.6,-0.9 -0.5,-0.4 -0.9,-1 -1.2,-1.5 -0.4,-0.6 -0.8,-1.3 -1.4,-2.2 -0.6,-0.9 -0.9,-1.5 -1.2,-2.1 -0.3,-0.5 -0.5,-0.9 -0.9,-1.4 -0.2,-0.3 -0.5,-0.5 -0.8,-0.7 -0.3,-0.2 -0.7,-0.2 -1.1,-0.2 H 269 v 5.3 c 0,0.5 0,0.9 0.1,1.4 0,0.3 0.1,0.6 0.2,0.8 0.1,0.2 0.3,0.4 0.5,0.5 0.3,0.1 0.6,0.2 0.9,0.2 l 0.9,0.1 v 1.1 h -10.3 z"
   id="path12" />
</g>
<metadata
   id="metadata12"><rdf:RDF><cc:Work
       rdf:about=""><dc:title>Triodos Bank logo</dc:title></cc:Work></rdf:RDF></metadata></svg>
