<svg fill="none" height="24" viewBox="0 0 32 24" width="32" xmlns="http://www.w3.org/2000/svg"><path d="m28 0h-24c-2.20914 0-4 1.79086-4 4v16c0 2.2091 1.79086 4 4 4h24c2.2091 0 4-1.7909 4-4v-16c0-2.20914-1.7909-4-4-4z" fill="#00927b"/><path clip-rule="evenodd" d="m15.5522 7.45538c0 2.19712-.9389 4.32222-2.1858 5.58222-.7944.792-1.5166 1.278-2.583 1.7471l-.1084-.1979c.5056-.3072.922-.6312 1.4095-1.1172 1.3902-1.332 2.3121-3.6371 2.3121-5.52822 0-.288 0-.864-.0361-1.278-.1625.81-.6691 1.674-1.3733 2.37712-.1986.198-.4875.504-.7041.612 0-.414-.1625-1.36912-.3611-1.92712.2708-.216.4152-.378.668-.612.5778-.594.9569-1.35113.9569-1.98113 0-.36-.1625-.738-.4513-1.026-.2889-.288-.8847-.504-1.4806-.504-.7052 0-1.75243.378-2.29408.774 1.10138 1.116 1.76938 2.32312 2.18578 3.83512.1806.64913.2708 1.29713.2708 1.94513 0 1.17-.2888 2.2871-.7955 3.1691-.8125 1.4052-2.04024 2.1972-3.64827 2.1972-1.91496 0-3.70241-.936-5.03961-2.2872-1.53468-1.548-2.29412-3.4391-2.29412-5.38422 0-.342.0180552-.666.0722203-1.044h.2177887c.018055.576.090276 1.11599.252771 1.78199.306936 1.20713 1.13747 2.53913 2.18466 3.58423.75944.756 1.87885 1.494 2.65522 1.8-.59582-.486-1.17358-1.386-1.46246-2.3951-.07222-.27-.14444-.63-.14444-.882.3611.216 1.26385.54 1.84162.63.12638.8291.43445 1.7471 1.04832 2.3591.30693.306.66803.504 1.11941.504.68609 0 1.22887-.504 1.57192-1.08.34304-.594.5597-1.6571.46943-2.3771-.75831.216-1.48164.324-2.20384.324-.72221 0-1.44441-.108-2.2219-.324-1.26386-.342-2.42051-.99-3.25104-1.818-.8847-.88313-1.57079-2.10713-1.57079-3.36825 0-1.314.66804-2.41312 1.55273-3.31312 1.48165-1.476005 3.59409-2.23313 5.67154-2.23313 1.68025 0 3.17884.577125 4.53404 1.56713l-.1083.18c-1.0844-.594-2.2219-.882005-3.5038-.882005-1.93302 0-3.77576.593995-5.20211 1.673995.43332-.144.92081-.21599 1.28191-.21599.63193 0 1.78858.18 2.34828.522-.39721.234-1.11941.81112-1.49969 1.26112-.54165-.216-1.20969-.378-1.80551-.378-.5597 0-1.1747.126-1.57192.54-.23471.27-.37915.612-.37915.972 0 .756.41526 1.38713.92081 1.90913.36223.378.84971.72 1.22887.9.41526-1.53 1.11941-2.75513 2.2219-3.85313 1.37218-1.35112 3.16076-2.10712 4.73151-2.10712 1.1928-.018 2.2039.324 3.0525 1.17.9038.91912 1.4997 2.53912 1.4997 4.19625zm-5.96046 1.26c-.37915-1.17-1.08443-2.232-1.93301-3.06113-.83054.88313-1.39024 2.03513-1.67912 3.18713.48748.10912.99302.16312 1.49856.16312.72221 0 1.42748-.108 2.11357-.28912z" fill="#fff" fill-rule="evenodd" transform="translate(7.99597 4.16962)"/></svg>