<svg width="40" height="40" viewBox="0 0 40 40" fill="none" xmlns="http://www.w3.org/2000/svg">
<rect width="40" height="40" fill="url(#paint0_linear_373_17442)"/>
<rect width="40" height="40" rx="4.5" fill="url(#paint1_linear_373_17442)"/>
<mask id="mask0_373_17442" style="mask-type:alpha" maskUnits="userSpaceOnUse" x="0" y="0" width="40" height="40">
<rect width="40" height="40" rx="4.5" fill="white"/>
</mask>
<g mask="url(#mask0_373_17442)">
<path fill-rule="evenodd" clip-rule="evenodd" d="M23.4189 18.1645C22.732 20.2766 21.5043 22.1912 19.9325 23.8116C18.4107 22.1426 17.4286 20.1287 16.888 17.919C17.8214 17.6735 18.7049 17.6244 19.6383 17.6244C20.866 17.6244 22.1913 17.8699 23.4189 18.1645ZM33.9766 20.4725C33.9766 16.741 32.6016 13.2049 30.0977 10.5041C28.8205 9.12967 27.3474 8.00025 25.6783 7.16547L25.2854 7.75473C26.2179 8.29439 27.0527 8.98236 27.7893 9.71894C30.3919 12.3701 31.8164 15.9057 31.9146 19.6377C31.9146 20.1783 31.9146 21.1108 31.8164 21.8474C31.374 20.227 30.5392 18.8034 29.3612 17.5758C28.9683 17.1333 28.575 16.741 28.0839 16.4955C27.9862 17.6244 27.7893 18.8034 27.4952 19.9328C27.9366 20.227 28.3295 20.6198 28.7228 21.0131C29.7049 21.9456 30.3433 23.2229 30.3919 24.5978C30.3919 25.2848 30.0977 25.9723 29.5571 26.4147C28.7714 27.0035 27.888 27.3472 26.9059 27.3472C25.4328 27.249 24.0082 26.8075 22.7806 25.9723C24.6962 24.0572 26.0706 21.7001 26.6604 19.0975C26.9545 17.9686 27.1018 16.7896 27.1018 15.6116C27.1018 13.6474 26.6604 11.6335 25.6287 9.91487C24.3519 7.45961 21.7985 5.93784 19.0491 5.93784C15.6117 6.03605 12.3212 7.55782 10.0628 10.0622C7.45976 12.567 5.9375 16.1026 5.9375 19.7359C5.9375 20.3252 5.9375 20.9635 6.0362 21.5528H6.72318C6.72318 17.8699 8.19634 14.4816 10.848 11.9287C12.223 10.6514 13.7457 9.47341 15.513 8.73683C14.2854 9.86625 13.4506 11.388 13.0091 13.0085C12.8613 13.5491 12.7636 14.0888 12.7636 14.6295C13.8434 14.0888 14.8751 13.696 16.0532 13.4995C16.201 11.8791 16.888 10.4555 17.9683 9.22788C18.5084 8.68724 19.1959 8.29439 19.9325 8.29439C21.1601 8.3931 22.2409 9.12967 22.732 10.21C23.4189 11.4862 23.7141 13.0085 23.5668 14.4816C20.9637 13.6474 18.2138 13.6474 15.6117 14.4816C13.402 15.0223 11.4378 16.1512 9.8173 17.7717C8.14723 19.3922 7.16513 21.5042 7.01831 23.8116C7.11652 26.1196 8.09862 28.2311 9.7677 29.7539C12.5181 32.3559 16.1028 33.8782 19.9325 33.7805C22.9279 33.7805 25.7269 32.847 28.1822 31.1774L28.0348 30.736C26.1197 31.8163 24.0082 32.3559 21.7985 32.3559C18.4593 32.4546 15.2189 31.3738 12.5667 29.361C13.2547 29.6065 14.0399 29.7539 14.7764 29.7539C16.2496 29.7539 17.6741 29.4587 18.9504 28.8204C17.9683 28.1334 17.0353 27.3472 16.2987 26.5124C15.3166 26.9058 14.1872 27.1999 13.1069 27.1999C12.027 27.2986 11.0449 26.9058 10.3084 26.2178C9.86592 25.7758 9.62039 25.1375 9.62039 24.4505C9.71909 23.1733 10.3084 21.8474 11.2905 21.0131C11.8792 20.3252 12.6654 19.7855 13.5002 19.3922C14.1926 22.0105 15.5646 24.3989 17.4772 26.3165C19.687 28.6244 22.732 29.9994 25.9238 30.1462C27.9862 30.2449 29.9504 29.4587 31.4236 28.0838C33.0927 25.9723 33.9766 23.2229 33.9766 20.4725Z" fill="white"/>
</g>
<defs>
<linearGradient id="paint0_linear_373_17442" x1="20" y1="0" x2="20" y2="40" gradientUnits="userSpaceOnUse">
<stop stop-color="#01957C"/>
<stop offset="1" stop-color="#01046E"/>
</linearGradient>
<linearGradient id="paint1_linear_373_17442" x1="2.18011" y1="4.36022" x2="2.18011" y2="40" gradientUnits="userSpaceOnUse">
<stop stop-color="#00947B"/>
<stop offset="0.716691" stop-color="#004774"/>
<stop offset="1" stop-color="#00006D"/>
</linearGradient>
</defs>
</svg>
