<svg width="30" height="30" viewBox="0 0 30 30" fill="none" xmlns="http://www.w3.org/2000/svg">
<g clip-path="url(#clip0_3053_488)">
<path d="M15 29.5C11.7003 29.5 9.26943 29.4992 7.38527 29.2765C5.51215 29.0551 4.24455 28.6203 3.24205 27.7976C2.86229 27.4859 2.51408 27.1377 2.20242 26.7579C1.37969 25.7554 0.944943 24.4879 0.723533 22.6147C0.500818 20.7306 0.5 18.2997 0.5 15C0.5 11.7003 0.500818 9.26943 0.723533 7.38527C0.944943 5.51215 1.37969 4.24455 2.20242 3.24205C2.51408 2.86229 2.86229 2.51408 3.24205 2.20242C4.24455 1.37969 5.51215 0.944943 7.38527 0.723533C9.26943 0.500818 11.7003 0.5 15 0.5C18.2997 0.5 20.7306 0.500818 22.6147 0.723533C24.4879 0.944943 25.7554 1.37969 26.7579 2.20242C27.1377 2.51408 27.4859 2.86229 27.7976 3.24205C28.6203 4.24455 29.0551 5.51215 29.2765 7.38527C29.4992 9.26943 29.5 11.7003 29.5 15C29.5 18.2997 29.4992 20.7306 29.2765 22.6147C29.0551 24.4879 28.6203 25.7554 27.7976 26.7579C27.4859 27.1377 27.1377 27.4859 26.7579 27.7976C25.7554 28.6203 24.4879 29.0551 22.6147 29.2765C20.7306 29.4992 18.2997 29.5 15 29.5Z" fill="white" stroke="#EEEEEE"/>
<path d="M13.833 12.7817C14.0122 12.7817 14.2474 12.9225 14.3549 13.0634L17.7241 18.0282L19.0502 11.5141H11.2725V12.7817H13.8531L13.833 12.7817Z" fill="url(#paint0_linear_3053_488)"/>
<path d="M23.5305 9.85915C24.2832 11.9366 23.9606 14.2606 22.7061 15.8098C22.2043 16.4084 21.4158 17.007 20.4839 17.4648L19.9104 20.1408C19.8746 20.3169 19.6954 20.4577 19.5161 20.4577H16.7921C16.6129 20.4577 16.3979 20.3521 16.2903 20.2113L12.957 15.2465L12.7061 16.4084L11.9176 20.176C11.9176 20.3169 11.7384 20.4577 11.5592 20.4577H11.2366C11.2366 22.7465 14.319 25.3169 19.4445 23.9084C22.7419 22.2535 25 18.8732 25 15C24.9642 13.1338 24.4624 11.3732 23.5305 9.85915Z" fill="url(#paint1_linear_3053_488)"/>
<path d="M5 16.4789C5 12.7465 7.61649 11.5141 10.3763 11.5141H11.3082V12.7817H11.1649C10.9857 12.7817 10.8065 12.9225 10.7706 13.0986L10.6631 13.4859L9.30108 20.1408C9.26523 20.3169 9.37276 20.4577 9.55197 20.4577H11.2366C11.2366 22.7465 14.319 25.3169 19.4444 23.9084C18.0466 24.6127 16.4695 25 14.7849 25C8.94265 25 5 20.2817 5 16.4789Z" fill="url(#paint2_linear_3053_488)"/>
<path d="M20.4838 17.4648C21.4157 17.0422 22.2043 16.4437 22.7061 15.8099C23.9964 14.2606 24.2831 11.9366 23.5304 9.85915C22.0251 7.42958 19.5161 5.6338 16.5412 5.14085C14.534 5 12.6344 5.52817 11.6308 6.83099C11.1648 7.42958 11.0932 8.23944 11.3082 9.19014H19.2294C19.4086 9.19014 19.6236 9.29577 19.7311 9.43662L21.4157 12.007C21.5233 12.1479 21.5591 12.3944 21.5233 12.5704L20.4838 17.4648Z" fill="url(#paint3_linear_3053_488)"/>
<path d="M16.5412 5.14085C14.534 5 12.6344 5.52817 11.6308 6.83099C11.1648 7.42958 11.0932 8.23944 11.3082 9.19014H7.00714C6.54119 9.19014 6.61287 9.01408 6.9713 8.55634C8.8351 6.37324 11.6308 5 14.7849 5C15.3942 5 15.9677 5.03521 16.5412 5.14085Z" fill="url(#paint4_linear_3053_488)"/>
<path d="M9.30108 20.1408L10.6631 13.4859H9.6595C9.48029 13.4859 9.30108 13.6267 9.26524 13.8028L7.90323 20.1408C7.86739 20.3169 7.97491 20.4577 8.15413 20.4577H9.51613C9.37276 20.4577 9.26524 20.3169 9.30108 20.1408Z" fill="url(#paint5_linear_3053_488)"/>
<path d="M15.7169 20.4577H16.7922C16.613 20.4577 16.3979 20.3521 16.2904 20.2113L12.9571 15.2465L12.7062 16.4084L15.1793 20.1761C15.2868 20.3169 15.5377 20.4577 15.7169 20.4577Z" fill="url(#paint6_linear_3053_488)"/>
</g>
<defs>
<linearGradient id="paint0_linear_3053_488" x1="19.5676" y1="12.9663" x2="12.313" y2="15.6541" gradientUnits="userSpaceOnUse">
<stop offset="0.3374" stop-color="#F4AA1C"/>
<stop offset="0.8466" stop-color="#ED8722"/>
</linearGradient>
<linearGradient id="paint1_linear_3053_488" x1="18.1048" y1="24.3057" x2="18.1048" y2="9.85925" gradientUnits="userSpaceOnUse">
<stop offset="0.0061" stop-color="#EC7E23"/>
<stop offset="0.2515" stop-color="#F09220"/>
<stop offset="0.7791" stop-color="#F09220"/>
<stop offset="0.9939" stop-color="#F19C1F"/>
</linearGradient>
<linearGradient id="paint2_linear_3053_488" x1="7.90824" y1="22.4865" x2="15.27" y2="16.1986" gradientUnits="userSpaceOnUse">
<stop offset="0.2147" stop-color="#E66124"/>
<stop offset="0.5399" stop-color="#E86C24"/>
<stop offset="0.816" stop-color="#ED8722"/>
</linearGradient>
<linearGradient id="paint3_linear_3053_488" x1="15.4018" y1="13.4824" x2="20.641" y2="6.785" gradientUnits="userSpaceOnUse">
<stop offset="0.5153" stop-color="#F4AA1C"/>
<stop offset="0.8589" stop-color="#FCC90A"/>
</linearGradient>
<linearGradient id="paint4_linear_3053_488" x1="11.6124" y1="9.18514" x2="11.6124" y2="4.98884" gradientUnits="userSpaceOnUse">
<stop offset="0.0061" stop-color="#EC7E23"/>
<stop offset="0.2515" stop-color="#F09220"/>
<stop offset="0.7791" stop-color="#F09220"/>
<stop offset="0.9939" stop-color="#F19C1F"/>
</linearGradient>
<linearGradient id="paint5_linear_3053_488" x1="9.28979" y1="20.4554" x2="9.28979" y2="13.4811" gradientUnits="userSpaceOnUse">
<stop offset="0.3067" stop-color="#E76524"/>
<stop offset="0.6258" stop-color="#DF541A"/>
</linearGradient>
<linearGradient id="paint6_linear_3053_488" x1="14.7516" y1="20.4473" x2="14.7516" y2="15.2193" gradientUnits="userSpaceOnUse">
<stop stop-color="#F19C1F"/>
<stop offset="0.2945" stop-color="#E8721B"/>
</linearGradient>
<clipPath id="clip0_3053_488">
<rect width="30" height="30" rx="8" fill="white"/>
</clipPath>
</defs>
</svg>
