<?xml version="1.0" encoding="UTF-8" standalone="no"?>
<svg
   fill="none"
   height="24"
   width="32"
   version="1.1"
   id="svg25"
   sodipodi:docname="ideal-issuer-nn-mollie-32x24.svg"
   inkscape:version="1.3.2 (091e20e, 2023-11-25)"
   xmlns:inkscape="http://www.inkscape.org/namespaces/inkscape"
   xmlns:sodipodi="http://sodipodi.sourceforge.net/DTD/sodipodi-0.dtd"
   xmlns="http://www.w3.org/2000/svg"
   xmlns:svg="http://www.w3.org/2000/svg">
  <defs
     id="defs25">
    <mask
       maskUnits="userSpaceOnUse"
       id="mask26">
      <g
         id="g27"
         transform="translate(-14.172,-4.937)">
        <path
           d="M 28,0 H 4 A 4,4 0 0 0 0,4 v 16 a 4,4 0 0 0 4,4 h 24 a 4,4 0 0 0 4,-4 V 4 A 4,4 0 0 0 28,0 Z"
           fill="#ffffff"
           id="path26" />
      </g>
    </mask>
    <mask
       maskUnits="userSpaceOnUse"
       id="mask27">
      <g
         id="g28">
        <path
           d="M 28,0 H 4 A 4,4 0 0 0 0,4 v 16 a 4,4 0 0 0 4,4 h 24 a 4,4 0 0 0 4,-4 V 4 A 4,4 0 0 0 28,0 Z"
           fill="#ffffff"
           id="path27" />
      </g>
    </mask>
    <mask
       maskUnits="userSpaceOnUse"
       id="mask28">
      <g
         id="g29">
        <path
           d="M 28,0 H 4 A 4,4 0 0 0 0,4 v 16 a 4,4 0 0 0 4,4 h 24 a 4,4 0 0 0 4,-4 V 4 A 4,4 0 0 0 28,0 Z"
           fill="#ffffff"
           id="path28" />
      </g>
    </mask>
    <mask
       maskUnits="userSpaceOnUse"
       id="mask29">
      <g
         id="g30">
        <path
           d="M 28,0 H 4 A 4,4 0 0 0 0,4 v 16 a 4,4 0 0 0 4,4 h 24 a 4,4 0 0 0 4,-4 V 4 A 4,4 0 0 0 28,0 Z"
           fill="#ffffff"
           id="path29" />
      </g>
    </mask>
    <mask
       maskUnits="userSpaceOnUse"
       id="mask30">
      <g
         id="g31">
        <path
           d="M 28,0 H 4 A 4,4 0 0 0 0,4 v 16 a 4,4 0 0 0 4,4 h 24 a 4,4 0 0 0 4,-4 V 4 A 4,4 0 0 0 28,0 Z"
           fill="#ffffff"
           id="path30" />
      </g>
    </mask>
    <mask
       maskUnits="userSpaceOnUse"
       id="mask31">
      <g
         id="g32"
         transform="translate(-11.482,-11.852)">
        <path
           d="M 28,0 H 4 A 4,4 0 0 0 0,4 v 16 a 4,4 0 0 0 4,4 h 24 a 4,4 0 0 0 4,-4 V 4 A 4,4 0 0 0 28,0 Z"
           fill="#ffffff"
           id="path31" />
      </g>
    </mask>
    <mask
       maskUnits="userSpaceOnUse"
       id="mask32">
      <g
         id="g33">
        <path
           d="M 28,0 H 4 A 4,4 0 0 0 0,4 v 16 a 4,4 0 0 0 4,4 h 24 a 4,4 0 0 0 4,-4 V 4 A 4,4 0 0 0 28,0 Z"
           fill="#ffffff"
           id="path32" />
      </g>
    </mask>
    <mask
       maskUnits="userSpaceOnUse"
       id="mask33">
      <g
         id="g34"
         transform="translate(-11.372,-13.266)">
        <path
           d="M 28,0 H 4 A 4,4 0 0 0 0,4 v 16 a 4,4 0 0 0 4,4 h 24 a 4,4 0 0 0 4,-4 V 4 A 4,4 0 0 0 28,0 Z"
           fill="#ffffff"
           id="path33" />
      </g>
    </mask>
    <mask
       maskUnits="userSpaceOnUse"
       id="mask34">
      <g
         id="g35">
        <path
           d="M 28,0 H 4 A 4,4 0 0 0 0,4 v 16 a 4,4 0 0 0 4,4 h 24 a 4,4 0 0 0 4,-4 V 4 A 4,4 0 0 0 28,0 Z"
           fill="#ffffff"
           id="path34" />
      </g>
    </mask>
    <linearGradient
       id="paint0_linear_3053_488"
       x1="19.5676"
       y1="12.9663"
       x2="12.313"
       y2="15.6541"
       gradientUnits="userSpaceOnUse"
       gradientTransform="translate(-11.101695,-37.966102)">
      <stop
         offset="0.3374"
         stop-color="#F4AA1C"
         id="stop8" />
      <stop
         offset="0.8466"
         stop-color="#ED8722"
         id="stop9" />
    </linearGradient>
    <linearGradient
       id="paint1_linear_3053_488"
       x1="18.104799"
       y1="24.3057"
       x2="18.104799"
       y2="9.8592501"
       gradientUnits="userSpaceOnUse"
       gradientTransform="translate(-11.101695,-37.966102)">
      <stop
         offset="0.0061"
         stop-color="#EC7E23"
         id="stop10" />
      <stop
         offset="0.2515"
         stop-color="#F09220"
         id="stop11" />
      <stop
         offset="0.7791"
         stop-color="#F09220"
         id="stop12" />
      <stop
         offset="0.9939"
         stop-color="#F19C1F"
         id="stop13" />
    </linearGradient>
    <linearGradient
       id="paint2_linear_3053_488"
       x1="7.9082398"
       y1="22.4865"
       x2="15.27"
       y2="16.198601"
       gradientUnits="userSpaceOnUse"
       gradientTransform="translate(-11.101695,-37.966102)">
      <stop
         offset="0.2147"
         stop-color="#E66124"
         id="stop14" />
      <stop
         offset="0.5399"
         stop-color="#E86C24"
         id="stop15" />
      <stop
         offset="0.816"
         stop-color="#ED8722"
         id="stop16" />
    </linearGradient>
    <linearGradient
       id="paint3_linear_3053_488"
       x1="15.4018"
       y1="13.4824"
       x2="20.641001"
       y2="6.7849998"
       gradientUnits="userSpaceOnUse"
       gradientTransform="translate(-11.101695,-37.966102)">
      <stop
         offset="0.5153"
         stop-color="#F4AA1C"
         id="stop17" />
      <stop
         offset="0.8589"
         stop-color="#FCC90A"
         id="stop18" />
    </linearGradient>
    <linearGradient
       id="paint4_linear_3053_488"
       x1="11.6124"
       y1="9.1851397"
       x2="11.6124"
       y2="4.9888401"
       gradientUnits="userSpaceOnUse"
       gradientTransform="translate(-11.101695,-37.966102)">
      <stop
         offset="0.0061"
         stop-color="#EC7E23"
         id="stop19" />
      <stop
         offset="0.2515"
         stop-color="#F09220"
         id="stop20" />
      <stop
         offset="0.7791"
         stop-color="#F09220"
         id="stop21" />
      <stop
         offset="0.9939"
         stop-color="#F19C1F"
         id="stop22" />
    </linearGradient>
    <linearGradient
       id="paint5_linear_3053_488"
       x1="9.2897902"
       y1="20.4554"
       x2="9.2897902"
       y2="13.4811"
       gradientUnits="userSpaceOnUse"
       gradientTransform="translate(-11.101695,-37.966102)">
      <stop
         offset="0.3067"
         stop-color="#E76524"
         id="stop23" />
      <stop
         offset="0.6258"
         stop-color="#DF541A"
         id="stop24" />
    </linearGradient>
    <linearGradient
       id="paint6_linear_3053_488"
       x1="14.7516"
       y1="20.4473"
       x2="14.7516"
       y2="15.2193"
       gradientUnits="userSpaceOnUse"
       gradientTransform="translate(-11.101695,-37.966102)">
      <stop
         stop-color="#F19C1F"
         id="stop25" />
      <stop
         offset="0.2945"
         stop-color="#E8721B"
         id="stop26" />
    </linearGradient>
    <clipPath
       clipPathUnits="userSpaceOnUse"
       id="clipPath44">
      <g
         id="g45">
        <rect
           width="30"
           height="30"
           rx="8"
           fill="#ffffff"
           id="rect44"
           x="-11.101695"
           y="-37.966103" />
      </g>
    </clipPath>
    <clipPath
       clipPathUnits="userSpaceOnUse"
       id="clipPath45">
      <g
         id="g46">
        <rect
           width="30"
           height="30"
           rx="8"
           fill="#ffffff"
           id="rect45"
           x="-11.101695"
           y="-37.966103" />
      </g>
    </clipPath>
    <clipPath
       clipPathUnits="userSpaceOnUse"
       id="clipPath46">
      <g
         id="g47">
        <rect
           width="30"
           height="30"
           rx="8"
           fill="#ffffff"
           id="rect46"
           x="-11.101695"
           y="-37.966103" />
      </g>
    </clipPath>
    <clipPath
       clipPathUnits="userSpaceOnUse"
       id="clipPath47">
      <g
         id="g48">
        <rect
           width="30"
           height="30"
           rx="8"
           fill="#ffffff"
           id="rect47"
           x="-11.101695"
           y="-37.966103" />
      </g>
    </clipPath>
    <clipPath
       clipPathUnits="userSpaceOnUse"
       id="clipPath48">
      <g
         id="g49">
        <rect
           width="30"
           height="30"
           rx="8"
           fill="#ffffff"
           id="rect48"
           x="-11.101695"
           y="-37.966103" />
      </g>
    </clipPath>
    <clipPath
       clipPathUnits="userSpaceOnUse"
       id="clipPath49">
      <g
         id="g50">
        <rect
           width="30"
           height="30"
           rx="8"
           fill="#ffffff"
           id="rect49"
           x="-11.101695"
           y="-37.966103" />
      </g>
    </clipPath>
    <clipPath
       clipPathUnits="userSpaceOnUse"
       id="clipPath50">
      <g
         id="g51">
        <rect
           width="30"
           height="30"
           rx="8"
           fill="#ffffff"
           id="rect50"
           x="-11.101695"
           y="-37.966103" />
      </g>
    </clipPath>
    <clipPath
       clipPathUnits="userSpaceOnUse"
       id="clipPath51">
      <g
         id="g52">
        <rect
           width="30"
           height="30"
           rx="8"
           fill="#ffffff"
           id="rect51"
           x="-11.101695"
           y="-37.966103" />
      </g>
    </clipPath>
  </defs>
  <sodipodi:namedview
     id="namedview25"
     pagecolor="#ffffff"
     bordercolor="#666666"
     borderopacity="1.0"
     inkscape:showpageshadow="2"
     inkscape:pageopacity="0.0"
     inkscape:pagecheckerboard="0"
     inkscape:deskcolor="#d1d1d1"
     inkscape:zoom="9.8333333"
     inkscape:cx="13.525424"
     inkscape:cy="-1.0169492"
     inkscape:window-width="1152"
     inkscape:window-height="901"
     inkscape:window-x="2801"
     inkscape:window-y="503"
     inkscape:window-maximized="0"
     inkscape:current-layer="svg25" />
  <linearGradient
     id="a"
     gradientTransform="matrix(9.27404,0,0,4.82471,0,0.002)"
     gradientUnits="userSpaceOnUse"
     x2="1">
    <stop
       offset="0"
       stop-color="#cc612c"
       id="stop1" />
    <stop
       offset="1"
       stop-color="#743237"
       id="stop2" />
  </linearGradient>
  <linearGradient
     id="b"
     gradientTransform="matrix(5.73197,-1.08109,1.13105,5.47875,-1.44,0.228)"
     gradientUnits="userSpaceOnUse"
     x2="1">
    <stop
       offset="0"
       stop-color="#ffdd7f"
       id="stop3" />
    <stop
       offset="1"
       stop-color="#f47920"
       id="stop4" />
  </linearGradient>
  <linearGradient
     id="c"
     gradientTransform="matrix(3.3191238,3.5497749,-1.4243615,8.2718765,1.058746,-1.011622)"
     gradientUnits="userSpaceOnUse"
     x2="1">
    <stop
       offset="0"
       stop-color="#2a3795"
       id="stop5" />
    <stop
       offset="1"
       stop-color="#222a7e"
       id="stop6" />
  </linearGradient>
  <path
     d="m 4.5,1 h 23 A 3.5,3.5 0 0 1 31,4.5 v 15 A 3.5,3.5 0 0 1 27.5,23 H 4.5 A 3.5,3.5 0 0 1 1,19.5 V 4.5 A 3.5,3.5 0 0 1 4.5,1 Z"
     fill="#ffffff"
     stroke="#e6e6e6"
     id="path7"
     mask="url(#mask34)"
     style="display:inline" />
  <g
     id="g53"
     transform="translate(15.462195,38.326602)">
    <path
       d="m 2.731305,-25.184402 c 0.1792,0 0.4144,0.1408 0.5219,0.2817 l 3.3692,4.9648 1.3261,-6.5141 h -7.7777 v 1.2676 h 2.5806 z"
       fill="url(#paint0_linear_3053_488)"
       id="path2"
       style="fill:url(#paint0_linear_3053_488)"
       clip-path="url(#clipPath50)"
       transform="matrix(0.66395,0,0,0.66395,-2.0504746,-11.078259)" />
    <path
       d="m 12.428805,-28.106952 c 0.7527,2.07745 0.4301,4.40145 -0.8244,5.95065 -0.5018,0.5986 -1.2903,1.1972 -2.2222,1.655 l -0.5735,2.676 c -0.0358,0.1761 -0.215,0.3169 -0.3943,0.3169 h -2.724 c -0.1792,0 -0.3942,-0.1056 -0.5018,-0.2464 l -3.3333,-4.9648 -0.2509,1.1619 -0.7885,3.7676 c 0,0.1409 -0.1792,0.2817 -0.3584,0.2817 h -0.3226 c 0,2.2888 3.0824,4.8592 8.2079,3.4507 3.2974,-1.6549 5.5555,-5.0352 5.5555,-8.9084 -0.0358,-1.8662 -0.5376,-3.6268 -1.4695,-5.14085 z"
       fill="url(#paint1_linear_3053_488)"
       id="path3"
       style="fill:url(#paint1_linear_3053_488)"
       clip-path="url(#clipPath49)"
       transform="matrix(0.66395,0,0,0.66395,-2.0504746,-11.078259)" />
    <path
       d="m -6.101695,-21.487202 c 0,-3.7324 2.61649,-4.9648 5.3763,-4.9648 h 0.9319 v 1.2676 h -0.1433 c -0.1792,0 -0.3584,0.1408 -0.3943,0.3169 l -0.1075,0.3873 -1.36202,6.6549 c -0.03585,0.1761 0.07168,0.3169 0.25089,0.3169 h 1.68463 c 0,2.2888 3.0824,4.8592 8.2078,3.4507 -1.3978,0.7043 -2.9749,1.0916 -4.6595,1.0916 -5.84225,0 -9.7849,-4.7183 -9.7849,-8.5211 z"
       fill="url(#paint2_linear_3053_488)"
       id="path4"
       style="fill:url(#paint2_linear_3053_488)"
       clip-path="url(#clipPath48)"
       transform="matrix(0.66395,0,0,0.66395,-2.0504746,-11.078259)" />
    <path
       d="m 9.382105,-20.501302 c 0.9319,-0.4226 1.7205,-1.0211 2.2223,-1.6549 1.2903,-1.5493 1.577,-3.8733 0.8243,-5.95075 -1.5053,-2.42957 -4.0143,-4.22535 -6.9892,-4.7183 -2.0072,-0.14085 -3.9068,0.38732 -4.9104,1.69014 -0.466,0.59859 -0.5376,1.40845 -0.3226,2.35915 h 7.9212 c 0.1792,0 0.3942,0.10563 0.5017,0.24648 l 1.6846,2.57038 c 0.1076,0.1409 0.1434,0.3874 0.1076,0.5634 z"
       fill="url(#paint3_linear_3053_488)"
       id="path5"
       style="fill:url(#paint3_linear_3053_488)"
       clip-path="url(#clipPath47)"
       transform="matrix(0.66395,0,0,0.66395,-2.0504746,-11.078259)" />
    <path
       d="m 5.439505,-32.825252 c -2.0072,-0.14085 -3.9068,0.38732 -4.9104,1.69014 -0.466,0.59859 -0.5376,1.40845 -0.3226,2.35915 h -4.30106 c -0.46595,0 -0.39427,-0.17606 -0.03584,-0.6338 1.8638,-2.1831 4.6595,-3.55634 7.8136,-3.55634 0.6093,0 1.1828,0.03521 1.7563,0.14085 z"
       fill="url(#paint4_linear_3053_488)"
       id="path6"
       style="fill:url(#paint4_linear_3053_488)"
       clip-path="url(#clipPath46)"
       transform="matrix(0.66395,0,0,0.66395,-2.0504746,-11.078259)" />
    <path
       d="m -1.800615,-17.825302 1.36202,-6.6549 h -1.0036 c -0.17921,0 -0.35842,0.1408 -0.39426,0.3169 l -1.36201,6.338 c -0.03584,0.1761 0.07168,0.3169 0.2509,0.3169 h 1.362 c -0.14337,0 -0.25089,-0.1408 -0.21505,-0.3169 z"
       fill="url(#paint5_linear_3053_488)"
       id="path7-2"
       style="fill:url(#paint5_linear_3053_488)"
       clip-path="url(#clipPath45)"
       transform="matrix(0.66395,0,0,0.66395,-2.0504746,-11.078259)" />
    <path
       d="m 4.615205,-17.508402 h 1.0753 c -0.1792,0 -0.3943,-0.1056 -0.5018,-0.2464 l -3.3333,-4.9648 -0.2509,1.1619 2.4731,3.7677 c 0.1075,0.1408 0.3584,0.2816 0.5376,0.2816 z"
       fill="url(#paint6_linear_3053_488)"
       id="path8-4"
       style="fill:url(#paint6_linear_3053_488)"
       clip-path="url(#clipPath44)"
       transform="matrix(0.66395,0,0,0.66395,-2.0504746,-11.078259)" />
  </g>
</svg>
