<?xml version="1.0" encoding="UTF-8" standalone="no"?>
<!-- Generator: Adobe Illustrator 18.1.1, SVG Export Plug-In . SVG Version: 6.00 Build 0)  -->

<svg
   version="1.1"
   id="Layer_1"
   x="0px"
   y="0px"
   viewBox="0 -7.5 640 360"
   enable-background="new 0 -7.5 196 60"
   xml:space="preserve"
   sodipodi:docname="ideal-issuer-nn-640x360.svg"
   width="640"
   height="360"
   inkscape:version="1.3.2 (091e20e, 2023-11-25)"
   xmlns:inkscape="http://www.inkscape.org/namespaces/inkscape"
   xmlns:sodipodi="http://sodipodi.sourceforge.net/DTD/sodipodi-0.dtd"
   xmlns="http://www.w3.org/2000/svg"
   xmlns:svg="http://www.w3.org/2000/svg"><defs
   id="defs39" /><sodipodi:namedview
   id="namedview39"
   pagecolor="#ffffff"
   bordercolor="#666666"
   borderopacity="1.0"
   inkscape:showpageshadow="2"
   inkscape:pageopacity="0.0"
   inkscape:pagecheckerboard="true"
   inkscape:deskcolor="#d1d1d1"
   inkscape:zoom="1"
   inkscape:cx="319"
   inkscape:cy="237.5"
   inkscape:window-width="1456"
   inkscape:window-height="952"
   inkscape:window-x="2173"
   inkscape:window-y="343"
   inkscape:window-maximized="0"
   inkscape:current-layer="Layer_1" />

<linearGradient
   id="SVGID_1_"
   gradientUnits="userSpaceOnUse"
   x1="42.8433"
   y1="16.7244"
   x2="22.5175"
   y2="24.1224">
   <stop
   offset="0.3374"
   style="stop-color:#F4AA1C"
   id="stop1" />
   <stop
   offset="0.8466"
   style="stop-color:#ED8722"
   id="stop2" />
</linearGradient>

<linearGradient
   id="SVGID_2_"
   gradientUnits="userSpaceOnUse"
   x1="38.762402"
   y1="48.928101"
   x2="38.762402"
   y2="7.9003">
   <stop
   offset="6.100000e-03"
   style="stop-color:#EC7E23"
   id="stop3" />
   <stop
   offset="0.2515"
   style="stop-color:#F09220"
   id="stop4" />
   <stop
   offset="0.7791"
   style="stop-color:#F09220"
   id="stop5" />
   <stop
   offset="0.9939"
   style="stop-color:#F19C1F"
   id="stop6" />
</linearGradient>

<linearGradient
   id="SVGID_3_"
   gradientUnits="userSpaceOnUse"
   x1="10.314"
   y1="43.761799"
   x2="31.1602"
   y2="26.2698">
   <stop
   offset="0.2147"
   style="stop-color:#E66124"
   id="stop7" />
   <stop
   offset="0.5399"
   style="stop-color:#E86C24"
   id="stop8" />
   <stop
   offset="0.816"
   style="stop-color:#ED8722"
   id="stop9" />
</linearGradient>

<linearGradient
   id="SVGID_4_"
   gradientUnits="userSpaceOnUse"
   x1="31.221201"
   y1="18.189899"
   x2="46.162102"
   y2="-0.57300001">
   <stop
   offset="0.5153"
   style="stop-color:#F4AA1C"
   id="stop10" />
   <stop
   offset="0.8589"
   style="stop-color:#FCC90A"
   id="stop11" />
</linearGradient>

<linearGradient
   id="SVGID_5_"
   gradientUnits="userSpaceOnUse"
   x1="20.6488"
   y1="5.9857998"
   x2="20.6488"
   y2="-5.9317002">
   <stop
   offset="6.100000e-03"
   style="stop-color:#EC7E23"
   id="stop12" />
   <stop
   offset="0.2515"
   style="stop-color:#F09220"
   id="stop13" />
   <stop
   offset="0.7791"
   style="stop-color:#F09220"
   id="stop14" />
   <stop
   offset="0.9939"
   style="stop-color:#F19C1F"
   id="stop15" />
</linearGradient>


<linearGradient
   id="SVGID_7_"
   gradientUnits="userSpaceOnUse"
   x1="29.406601"
   y1="37.970299"
   x2="29.406601"
   y2="23.122801">
   <stop
   offset="0"
   style="stop-color:#F19C1F"
   id="stop18" />
   <stop
   offset="0.2945"
   style="stop-color:#E8721B"
   id="stop19" />
</linearGradient>

<g
   id="g40"
   transform="matrix(2.6806283,0,0,2.6806283,63.999997,112.18586)"><circle
     fill="#ffffff"
     cx="29.5"
     cy="22.5"
     r="29.5"
     id="circle1" /><path
     fill="url(#SVGID_1_)"
     d="m 26.9,16.3 c 0.5,0 1.1,0.3 1.4,0.7 l 9.4,14.1 3.7,-18.5 H 19.7 v 3.6 h 7.2 z"
     id="path2"
     style="fill:url(#SVGID_1_)" /><path
     fill="url(#SVGID_2_)"
     d="m 53.9,7.9 c 2.1,5.9 1.2,12.5 -2.3,16.9 -1.4,1.7 -3.6,3.4 -6.2,4.7 l -1.6,7.6 C 43.7,37.6 43.2,38 42.7,38 H 35.1 C 34.6,38 34,37.7 33.7,37.3 l -9.3,-14.1 -0.7,3.3 -2.2,10.7 c 0,0.4 -0.5,0.8 -1,0.8 h -0.9 c 0,6.5 8.6,13.8 22.9,9.8 C 51.7,43.1 58,33.5 58,22.5 57.9,17.2 56.5,12.2 53.9,7.9 Z"
     id="path6"
     style="fill:url(#SVGID_2_)" /><path
     fill="url(#SVGID_3_)"
     d="m 2.2,26.7 c 0,-10.6 7.3,-14.1 15,-14.1 h 2.6 v 3.6 h -0.4 c -0.5,0 -1,0.4 -1.1,0.9 L 18,18.2 v 0 l -3.8,18.9 c -0.1,0.5 0.2,0.9 0.7,0.9 h 4.7 c 0,6.5 8.6,13.8 22.9,9.8 -3.9,2 -8.3,3.1 -13,3.1 C 13.2,50.9 2.2,37.5 2.2,26.7 Z"
     id="path9"
     style="fill:url(#SVGID_3_)" /><path
     fill="url(#SVGID_4_)"
     d="M 45.4,29.5 C 48,28.3 50.2,26.6 51.6,24.8 55.2,20.4 56,13.8 53.9,7.9 49.7,1 42.7,-4.1 34.4,-5.5 28.8,-5.9 23.5,-4.4 20.7,-0.7 19.4,1 19.2,3.3 19.8,6 h 22.1 c 0.5,0 1.1,0.3 1.4,0.7 L 48,14 c 0.3,0.4 0.4,1.1 0.3,1.6 z"
     id="path11"
     style="fill:url(#SVGID_4_)" /><path
     fill="url(#SVGID_5_)"
     d="M 34.4,-5.5 C 28.8,-5.9 23.5,-4.4 20.7,-0.7 19.4,1 19.2,3.3 19.8,6 H 7.8 C 6.5,6 6.7,5.5 7.7,4.2 12.9,-2 20.7,-5.9 29.5,-5.9 c 1.7,0 3.3,0.1 4.9,0.4 z"
     id="path15"
     style="fill:url(#SVGID_5_)" /><g
     id="g17">
   <linearGradient
   id="SVGID_6_"
   gradientUnits="userSpaceOnUse"
   x1="14.1685"
   y1="37.993301"
   x2="14.1685"
   y2="18.1863">
      <stop
   offset="0.3067"
   style="stop-color:#E76524"
   id="stop16" />
      <stop
   offset="0.6258"
   style="stop-color:#DF541A"
   id="stop17" />
   </linearGradient>
   <path
   fill="url(#SVGID_6_)"
   d="M 14.2,37.1 18,18.2 h -2.8 c -0.5,0 -1,0.4 -1.1,0.9 l -3.8,18 C 10.2,37.6 10.5,38 11,38 h 3.8 c -0.4,0 -0.7,-0.4 -0.6,-0.9 z"
   id="path17"
   style="fill:url(#SVGID_6_)" />
</g><path
     fill="url(#SVGID_7_)"
     d="m 32.1,38 h 3 C 34.6,38 34,37.7 33.7,37.3 l -9.3,-14.1 -0.7,3.3 6.9,10.7 c 0.3,0.4 1,0.8 1.5,0.8 z"
     id="path19"
     style="fill:url(#SVGID_7_)" /><g
     id="g39">
   <path
   d="m 107.2,12.2 c 0,-3.3 2,-5.9 5.4,-5.9 3.4,0 5.4,2.6 5.4,5.9 0,3.5 -2.2,5.9 -5.4,5.9 -3.3,0 -5.4,-2.5 -5.4,-5.9 z m 8.1,0 c 0,-2.2 -1.1,-3.7 -2.8,-3.7 -1.7,0 -2.7,1.6 -2.7,3.7 0,2 0.9,3.8 2.8,3.8 1.6,-0.1 2.7,-1.6 2.7,-3.8 z"
   id="path20" />
   <path
   d="M 70.3,17.8 C 70.1,17.8 70,17.7 70,17.5 V 6.9 c 0,-0.2 0.1,-0.3 0.3,-0.3 h 1.6 c 0.2,0 0.3,0.2 0.3,0.3 L 72.4,8 c 0.7,-0.9 2,-1.7 3.4,-1.7 2.1,0 3.8,1.3 3.8,4.4 v 6.9 c 0,0.2 -0.1,0.3 -0.3,0.3 h -1.9 c -0.2,0 -0.3,-0.1 -0.3,-0.3 V 11 c 0,-1.8 -1,-2.4 -2,-2.4 -1.3,0 -2.5,1.1 -2.5,3.3 v 5.6 c 0,0.2 -0.1,0.3 -0.3,0.3 z"
   id="path21" />
   <path
   d="M 70.3,38.5 C 70.1,38.5 70,38.4 70,38.2 V 27.5 c 0,-0.2 0.1,-0.3 0.3,-0.3 h 1.6 c 0.2,0 0.3,0.2 0.3,0.3 l 0.1,1.1 c 0.7,-0.9 2,-1.7 3.4,-1.7 2.1,0 3.8,1.3 3.8,4.4 v 6.9 c 0,0.2 -0.1,0.3 -0.3,0.3 H 77.3 C 77.1,38.5 77,38.4 77,38.2 v -6.5 c 0,-1.9 -1,-2.4 -2,-2.4 -1.3,0 -2.5,1.1 -2.5,3.3 v 5.6 c 0,0.2 -0.1,0.3 -0.3,0.3 z"
   id="path22" />
   <path
   d="m 120.4,17.8 c -0.2,0 -0.3,-0.1 -0.3,-0.3 V 6.9 c 0,-0.2 0.1,-0.3 0.3,-0.3 h 1.6 c 0.2,0 0.3,0.2 0.3,0.3 l 0.1,1.1 c 0.7,-0.9 2,-1.7 3.4,-1.7 2.1,0 3.8,1.3 3.8,4.4 v 6.9 c 0,0.2 -0.1,0.3 -0.3,0.3 h -1.9 c -0.2,0 -0.3,-0.1 -0.3,-0.3 V 11 c 0,-1.8 -1,-2.4 -2,-2.4 -1.3,0 -2.5,1.1 -2.5,3.3 v 5.6 c 0,0.2 -0.1,0.3 -0.3,0.3 z"
   id="path23" />
   <path
   d="m 86.9,8.4 c 1.2,0 2.4,0.9 2.4,3.4 v 0.5 c 0,2.9 -1.4,3.6 -2.3,3.6 -1.7,0 -2.6,-1.8 -2.6,-3.8 -0.1,-2.2 1,-3.7 2.5,-3.7 z M 86.4,6.3 c -2.4,0 -4.7,2 -4.7,5.9 0,3.2 1.7,5.9 4.7,5.9 1.3,0 2.5,-0.8 3,-1.7 l 0.2,1.1 c 0,0.2 0.2,0.3 0.3,0.3 h 1.6 c 0.2,0 0.3,-0.1 0.3,-0.3 V 6.9 C 91.8,6.7 91.7,6.6 91.5,6.6 H 90 c -0.2,0 -0.3,0.2 -0.3,0.3 l -0.1,1 C 88.8,7 87.8,6.3 86.4,6.3 Z"
   id="path24" />
   <path
   d="m 137,29.1 c 1.2,0 2.4,0.9 2.4,3.3 V 33 c 0,2.9 -1.4,3.6 -2.3,3.6 -1.7,0 -2.6,-1.8 -2.6,-3.8 -0.1,-2.2 1,-3.7 2.5,-3.7 z m -0.5,-2.2 c -2.4,0 -4.7,2 -4.7,5.9 0,3.3 1.7,5.9 4.7,5.9 1.3,0 2.5,-0.8 3,-1.7 l 0.2,1.1 c 0,0.2 0.2,0.3 0.3,0.3 h 1.6 c 0.2,0 0.3,-0.1 0.3,-0.3 V 27.5 c 0,-0.2 -0.1,-0.3 -0.3,-0.3 h -1.4 c -0.2,0 -0.3,0.2 -0.3,0.3 l -0.1,1 c -0.9,-0.9 -1.9,-1.6 -3.3,-1.6 z"
   id="path25" />
   <path
   d="m 136.9,8.4 c 1.1,0 2.4,0.9 2.4,3.4 v 0.5 c 0,2.9 -1.4,3.6 -2.3,3.6 -1.7,0 -2.6,-1.8 -2.6,-3.8 -0.1,-2.2 1,-3.7 2.5,-3.7 z m -0.4,-2.1 c -2.4,0 -4.7,2 -4.7,5.9 0,3.2 1.7,5.9 4.7,5.9 1.3,0 2.5,-0.8 3,-1.7 l 0.2,1.1 c 0,0.2 0.2,0.3 0.3,0.3 h 1.6 c 0.2,0 0.3,-0.1 0.3,-0.3 V 6.9 c 0,-0.2 -0.1,-0.3 -0.3,-0.3 h -1.5 c -0.2,0 -0.3,0.2 -0.3,0.3 l -0.1,1 C 138.9,7 137.9,6.3 136.5,6.3 Z"
   id="path26" />
   <path
   d="m 104.6,6.6 c 0.2,0 0.3,0.1 0.3,0.3 v 10.6 c 0,0.2 -0.1,0.3 -0.3,0.3 h -1.9 c -0.2,0 -0.3,-0.1 -0.3,-0.3 V 7.1 c 0,-0.2 0.1,-0.3 0.3,-0.3 z"
   id="path27" />
   <path
   d="m 146.8,1.9 c 0.2,0 0.3,0.1 0.3,0.3 v 15.3 c 0,0.2 -0.1,0.3 -0.3,0.3 h -1.9 c -0.2,0 -0.3,-0.1 -0.3,-0.3 V 2.4 c 0,-0.2 0.1,-0.3 0.3,-0.3 z"
   id="path28" />
   <circle
   cx="103.7"
   cy="3.5999999"
   r="1.5"
   id="circle28" />
   <path
   d="m 99.9,16 c 0,-0.2 -0.2,-0.3 -0.5,-0.2 -0.2,0.1 -0.7,0.2 -1.1,0.2 -0.7,0 -1.1,-0.3 -1.1,-1.3 V 8.6 h 2.4 c 0.2,0 0.3,-0.1 0.3,-0.3 V 6.9 c 0,-0.2 -0.1,-0.3 -0.3,-0.3 h -2.4 v -3 C 97.2,3.4 97.1,3.2 96.9,3.3 L 95,3.4 c -0.2,0 -0.3,0.2 -0.3,0.3 v 11.2 c 0,1.8 0.8,3.2 3.1,3.2 0.7,0 1.5,-0.1 2.1,-0.4 0.1,-0.1 0.2,-0.1 0.2,-0.3 z"
   id="path29" />
   <path
   d="m 152,11.2 c 0.2,-1.3 0.8,-2.9 2.5,-2.9 1.8,0 2.4,1.4 2.5,2.9 z m 2.7,6.9 c 1.6,0 2.9,-0.4 3.9,-1 0.2,-0.1 0.2,-0.3 0.2,-0.4 l -0.5,-1.3 c -0.1,-0.2 -0.3,-0.2 -0.4,-0.2 -0.9,0.4 -1.9,0.7 -3,0.7 -1.9,0 -2.7,-1.3 -2.9,-2.9 h 7.3 c 0.2,0 0.3,-0.1 0.3,-0.3 0,-0.3 0,-0.4 0,-0.7 0,-2.8 -1.4,-5.8 -5,-5.8 -3.3,0 -5.2,2.5 -5.2,6 -0.1,3.6 2,5.9 5.3,5.9 z"
   id="path30" />
   <path
   d="m 181.8,38.5 c -0.2,0 -0.3,-0.1 -0.3,-0.3 V 27.5 c 0,-0.2 0.1,-0.3 0.3,-0.3 h 1.6 c 0.2,0 0.3,0.2 0.3,0.3 l 0.1,1.1 c 0.7,-0.9 2,-1.7 3.4,-1.7 2.1,0 3.8,1.3 3.8,4.4 v 6.9 c 0,0.2 -0.1,0.3 -0.3,0.3 h -1.9 c -0.2,0 -0.3,-0.1 -0.3,-0.3 v -6.5 c 0,-1.9 -1,-2.4 -2,-2.4 -1.3,0 -2.5,1.1 -2.5,3.3 v 5.6 c 0,0.2 -0.1,0.3 -0.3,0.3 z"
   id="path31" />
   <path
   d="m 145.1,38.5 c -0.2,0 -0.3,-0.1 -0.3,-0.3 V 27.5 c 0,-0.2 0.1,-0.3 0.3,-0.3 h 1.6 c 0.2,0 0.3,0.2 0.3,0.3 l 0.1,1.1 c 0.7,-0.9 2,-1.7 3.4,-1.7 2.1,0 3.8,1.3 3.8,4.4 v 6.9 c 0,0.2 -0.1,0.3 -0.3,0.3 h -1.9 c -0.2,0 -0.3,-0.1 -0.3,-0.3 v -6.5 c 0,-1.9 -1,-2.4 -2,-2.4 -1.3,0 -2.5,1.1 -2.5,3.3 v 5.6 c 0,0.2 -0.1,0.3 -0.3,0.3 z"
   id="path32" />
   <path
   d="m 129.3,22.5 c 0.2,0 0.3,0.1 0.3,0.3 v 15.3 c 0,0.2 -0.1,0.3 -0.3,0.3 h -1.9 c -0.2,0 -0.3,-0.1 -0.3,-0.3 V 23 c 0,-0.2 0.1,-0.3 0.3,-0.3 z"
   id="path33" />
   <path
   d="m 84.4,31.9 c 0.2,-1.3 0.8,-2.9 2.5,-2.9 1.8,0 2.4,1.4 2.5,2.9 z m 2.7,6.8 c 1.6,0 2.9,-0.4 3.9,-1 0.2,-0.1 0.2,-0.3 0.2,-0.4 L 90.7,36 c -0.1,-0.2 -0.3,-0.2 -0.4,-0.2 -0.9,0.4 -1.9,0.7 -3,0.7 -1.9,0 -2.7,-1.3 -2.9,-2.9 h 7.3 c 0.2,0 0.3,-0.1 0.3,-0.3 0,-0.3 0,-0.4 0,-0.7 0,-2.8 -1.4,-5.8 -5,-5.8 -3.3,0 -5.2,2.5 -5.2,6 -0.1,3.6 2,5.9 5.3,5.9 z"
   id="path34" />
   <path
   d="m 109.1,31.9 c 0.2,-1.3 0.8,-2.9 2.5,-2.9 1.8,0 2.4,1.4 2.5,2.9 z m 2.8,6.8 c 1.6,0 2.9,-0.4 3.9,-1 0.2,-0.1 0.2,-0.3 0.2,-0.4 L 115.5,36 c -0.1,-0.2 -0.3,-0.2 -0.4,-0.2 -0.9,0.4 -1.9,0.7 -3,0.7 -1.9,0 -2.7,-1.3 -2.9,-2.9 h 7.3 c 0.2,0 0.3,-0.1 0.3,-0.3 0,-0.3 0,-0.4 0,-0.7 0,-2.8 -1.4,-5.8 -5,-5.8 -3.3,0 -5.2,2.5 -5.2,6 -0.1,3.6 2,5.9 5.3,5.9 z"
   id="path35" />
   <path
   d="m 103.8,22.5 -1.9,0.2 c -0.2,0 -0.3,0.2 -0.3,0.3 v 5.2 c -0.7,-0.7 -1.8,-1.3 -3.1,-1.3 -2.4,0 -4.7,2 -4.7,5.9 0,3.3 1.7,5.9 4.7,5.9 1.3,0 2.7,-0.8 3.3,-1.7 l 0.2,1.1 c 0,0.2 0.2,0.3 0.3,0.3 h 1.5 c 0.2,0 0.3,-0.1 0.3,-0.3 V 22.8 c 0,-0.1 -0.1,-0.3 -0.3,-0.3 z M 101.6,33 c 0,2.9 -1.6,3.6 -2.6,3.6 -1.7,0 -2.6,-1.8 -2.6,-3.8 0,-2.2 1.1,-3.7 2.6,-3.7 1.1,0 2.6,0.9 2.6,3.3 z"
   id="path36" />
   <path
   d="m 171.7,31.9 c 0.2,-1.3 0.8,-2.9 2.5,-2.9 1.8,0 2.4,1.4 2.5,2.9 z m 2.8,6.8 c 1.6,0 2.9,-0.4 3.9,-1 0.2,-0.1 0.2,-0.3 0.2,-0.4 L 178.1,36 c -0.1,-0.2 -0.3,-0.2 -0.4,-0.2 -0.9,0.4 -1.9,0.7 -3,0.7 -1.9,0 -2.7,-1.3 -2.9,-2.9 h 7.3 c 0.2,0 0.3,-0.1 0.3,-0.3 0,-0.3 0,-0.4 0,-0.7 0,-2.8 -1.4,-5.8 -5,-5.8 -3.3,0 -5.2,2.5 -5.2,6 -0.1,3.6 2,5.9 5.3,5.9 z"
   id="path37" />
   <path
   d="m 166.6,22.5 -1.9,0.2 c -0.2,0 -0.3,0.2 -0.3,0.3 v 5.2 c -0.7,-0.7 -1.8,-1.3 -3.1,-1.3 -2.4,0 -4.7,2 -4.7,5.9 0,3.3 1.7,5.9 4.7,5.9 1.3,0 2.7,-0.8 3.2,-1.7 l 0.2,1.1 c 0,0.2 0.2,0.3 0.3,0.3 h 1.5 c 0.2,0 0.3,-0.1 0.3,-0.3 V 22.8 c 0.1,-0.1 -0.1,-0.3 -0.2,-0.3 z M 164.4,33 c 0,2.9 -1.6,3.6 -2.6,3.6 -1.7,0 -2.6,-1.8 -2.6,-3.8 0,-2.2 1.1,-3.7 2.6,-3.7 1.1,0 2.6,0.9 2.6,3.3 z"
   id="path38" />
   <path
   d="m 125.1,27.3 c 0,-0.2 -0.1,-0.3 -0.3,-0.3 -1.4,0 -2.7,0.8 -3.5,1.7 l -0.1,-1.1 c 0,-0.2 -0.2,-0.3 -0.3,-0.3 h -1.6 c -0.2,0 -0.3,0.1 -0.3,0.3 v 10.6 c 0,0.2 0.1,0.3 0.3,0.3 h 1.9 c 0.2,0 0.3,-0.1 0.3,-0.3 v -5.5 c 0,-2.3 1.4,-3.2 2.7,-3.2 0.2,0 0.4,0 0.5,0.1 0.3,0 0.4,-0.1 0.4,-0.3 z"
   id="path39" />
</g></g>
</svg>
