<?xml version="1.0" encoding="UTF-8"?>
<svg width="32px" height="24px" viewBox="0 0 32 24" version="1.1" xmlns="http://www.w3.org/2000/svg" xmlns:xlink="http://www.w3.org/1999/xlink">
    <title>Untitled 13</title>
    <defs>
        <path d="M28,0 L4,0 C1.790861,0 0,1.790861 0,4 L0,20 C0,22.209139 1.790861,24 4,24 L28,24 C30.209139,24 32,22.209139 32,20 L32,4 C32,1.790861 30.209139,0 28,0 Z" id="path-1"></path>
        <rect id="path-3" x="6.04075" y="2.04075" width="19.9185" height="19.9185" rx="8"></rect>
        <linearGradient x1="106.652352%" y1="30.5646145%" x2="13.3779909%" y2="59.5079778%" id="linearGradient-5">
            <stop stop-color="#F4AA1C" offset="33.74%"></stop>
            <stop stop-color="#ED8722" offset="84.66%"></stop>
        </linearGradient>
        <rect id="path-6" x="6.04075" y="2.04075" width="19.9185" height="19.9185" rx="8"></rect>
        <linearGradient x1="49.9019065%" y1="99.9691766%" x2="49.9019065%" y2="0.000692685422%" id="linearGradient-8">
            <stop stop-color="#EC7E23" offset="0.61%"></stop>
            <stop stop-color="#F09220" offset="25.15%"></stop>
            <stop stop-color="#F09220" offset="77.91%"></stop>
            <stop stop-color="#F19C1F" offset="99.39%"></stop>
        </linearGradient>
        <rect id="path-9" x="6.04075" y="2.04075" width="19.9185" height="19.9185" rx="8"></rect>
        <linearGradient x1="20.1340298%" y1="77.337879%" x2="71.1002188%" y2="36.6948115%" id="linearGradient-11">
            <stop stop-color="#E66124" offset="21.47%"></stop>
            <stop stop-color="#E86C24" offset="53.99%"></stop>
            <stop stop-color="#ED8722" offset="81.6%"></stop>
        </linearGradient>
        <rect id="path-12" x="6.04075" y="2.04075" width="19.9185" height="19.9185" rx="8"></rect>
        <linearGradient x1="33.0187485%" y1="66.6409521%" x2="74.1152523%" y2="15.7647643%" id="linearGradient-14">
            <stop stop-color="#F4AA1C" offset="51.53%"></stop>
            <stop stop-color="#FCC90A" offset="85.89%"></stop>
        </linearGradient>
        <rect id="path-15" x="6.04075" y="2.04075" width="19.9185" height="19.9185" rx="8"></rect>
        <linearGradient x1="50.0185993%" y1="99.8806651%" x2="50.0185993%" y2="-0.266337163%" id="linearGradient-17">
            <stop stop-color="#EC7E23" offset="0.61%"></stop>
            <stop stop-color="#F09220" offset="25.15%"></stop>
            <stop stop-color="#F09220" offset="77.91%"></stop>
            <stop stop-color="#F19C1F" offset="99.39%"></stop>
        </linearGradient>
        <rect id="path-18" x="6.04075" y="2.04075" width="19.9185" height="19.9185" rx="8"></rect>
        <linearGradient x1="50.3635575%" y1="99.96701%" x2="50.3635575%" y2="-0.0688487908%" id="linearGradient-20">
            <stop stop-color="#E76524" offset="30.67%"></stop>
            <stop stop-color="#DF541A" offset="62.58%"></stop>
        </linearGradient>
        <rect id="path-21" x="6.04075" y="2.04075" width="19.9185" height="19.9185" rx="8"></rect>
        <linearGradient x1="50.0587372%" y1="99.8004298%" x2="50.0587372%" y2="-0.521952717%" id="linearGradient-23">
            <stop stop-color="#F19C1F" offset="0%"></stop>
            <stop stop-color="#E8721B" offset="29.45%"></stop>
        </linearGradient>
    </defs>
    <g id="Page-1" stroke="none" stroke-width="1" fill="none" fill-rule="evenodd">
        <mask id="mask-2" fill="white">
            <use xlink:href="#path-1"></use>
        </mask>
        <g id="path44"></g>
        <path d="M4.5,1 L27.5,1 C29.4329966,1 31,2.56700338 31,4.5 L31,19.5 C31,21.4329966 29.4329966,23 27.5,23 L4.5,23 C2.56700338,23 1,21.4329966 1,19.5 L1,4.5 C1,2.56700338 2.56700338,1 4.5,1 Z" id="path7" stroke="#E6E6E6" fill="#FFFFFF" fill-rule="nonzero"></path>
        <mask id="mask-4" fill="white">
            <use xlink:href="#path-3"></use>
        </mask>
        <g id="rect33"></g>
        <path d="M15.2251703,10.5271597 C15.3441502,10.5271597 15.5003112,10.6206439 15.5716859,10.7141944 L17.8086662,14.0105734 L18.6891303,9.6855367 L13.5251264,9.6855367 L13.5251264,10.5271597 L15.2385157,10.5271597 L15.2251703,10.5271597 Z" id="path2" fill="url(#linearGradient-5)" fill-rule="nonzero" mask="url(#mask-4)"></path>
        <mask id="mask-7" fill="white">
            <use xlink:href="#path-6"></use>
        </mask>
        <g id="rect32"></g>
        <path d="M21.6638255,8.58673264 C22.1635806,9.96605557 21.9493904,11.5090754 21.1164651,12.5376667 C20.783295,12.9351072 20.2597704,13.3325476 19.6410354,13.636504 L19.2602601,15.4132342 C19.2364907,15.5301558 19.1175108,15.6236399 18.9984646,15.6236399 L17.1898648,15.6236399 C17.070885,15.6236399 16.9281357,15.5535268 16.8566947,15.4600426 L14.6435501,12.1636637 L14.4769651,12.9351072 L13.9534405,15.4366052 C13.9534405,15.5301558 13.8344607,15.6236399 13.7154808,15.6236399 L13.5012906,15.6236399 C13.5012906,17.1432887 15.54785,18.8499058 18.9509258,17.9147322 C21.1402345,16.8159613 22.6395,14.5716111 22.6395,12 C22.6157306,10.7609365 22.2825605,9.59198614 21.6638255,8.58673264 Z" id="path3" fill="url(#linearGradient-8)" fill-rule="nonzero" mask="url(#mask-7)"></path>
        <mask id="mask-10" fill="white">
            <use xlink:href="#path-9"></use>
        </mask>
        <g id="rect31"></g>
        <path d="M9.3605,12.9819157 C9.3605,10.5037887 11.0977185,9.68553669 12.9300944,9.68553669 L13.5488294,9.68553669 L13.5488294,10.5271597 L13.4536854,10.5271597 C13.3347055,10.5271597 13.2157257,10.6206439 13.1918899,10.7375655 L13.1205152,10.9947133 L12.2162021,15.4132342 C12.1923995,15.5301558 12.263794,15.6236399 12.3827805,15.6236399 L13.5012906,15.6236399 C13.5012906,17.1432887 15.54785,18.8499058 18.9508594,17.9147322 C18.0227901,18.3823522 16.9756745,18.6395 15.8571844,18.6395 C11.9782225,18.6395 9.3605,15.5067847 9.3605,12.9819157 Z" id="path4" fill="url(#linearGradient-11)" fill-rule="nonzero" mask="url(#mask-10)"></path>
        <mask id="mask-13" fill="white">
            <use xlink:href="#path-12"></use>
        </mask>
        <g id="rect30"></g>
        <path d="M19.640969,13.636504 C20.259704,13.3559187 20.783295,12.9585446 21.1164651,12.5377331 C21.9731598,11.5090754 22.1635142,9.96605557 21.6637591,8.58673264 C20.6643151,6.97361964 18.9984646,5.78131151 17.0232797,5.45401736 C15.6905993,5.3605 14.4293599,5.71117847 13.7630197,6.57618581 C13.453619,6.97361964 13.4060801,7.51132619 13.5488294,8.14254345 L18.8081101,8.14254345 C18.92709,8.14254345 19.0698392,8.21267649 19.1412138,8.30619385 L20.259704,10.0127976 C20.331145,10.1063482 20.3549144,10.2700119 20.331145,10.3868671 L19.640969,13.636504 Z" id="path5" fill="url(#linearGradient-14)" fill-rule="nonzero" mask="url(#mask-13)"></path>
        <mask id="mask-16" fill="white">
            <use xlink:href="#path-15"></use>
        </mask>
        <g id="rect29"></g>
        <path d="M17.0232797,5.45401736 C15.6905993,5.3605 14.4293599,5.71117847 13.7630197,6.57618581 C13.453619,6.97361964 13.4060801,7.51132619 13.5488294,8.14254345 L10.6931406,8.14254345 C10.3837731,8.14254345 10.431365,8.02564842 10.6693446,7.72173194 C11.9068146,6.2722627 13.7630197,5.3605 15.8571844,5.3605 C16.2617291,5.3605 16.6425044,5.38387768 17.0232797,5.45401736 Z" id="path6-2" fill="url(#linearGradient-17)" fill-rule="nonzero" mask="url(#mask-16)"></path>
        <mask id="mask-19" fill="white">
            <use xlink:href="#path-18"></use>
        </mask>
        <g id="rect28"></g>
        <path d="M12.2162021,15.4132342 L13.1205152,10.9947133 L12.454175,10.9947133 C12.3351885,10.9947133 12.2162021,11.0881975 12.1924061,11.2051191 L11.2880996,15.4132342 C11.2643036,15.5301558 11.3356915,15.6236399 11.4546846,15.6236399 L12.3589845,15.6236399 C12.263794,15.6236399 12.1924061,15.5301558 12.2162021,15.4132342 L12.2162021,15.4132342 Z" id="path7-7" fill="url(#linearGradient-20)" fill-rule="nonzero" mask="url(#mask-19)"></path>
        <mask id="mask-22" fill="white">
            <use xlink:href="#path-21"></use>
        </mask>
        <g id="rect27"></g>
        <path d="M16.4759858,15.6236399 L17.1899312,15.6236399 C17.0709513,15.6236399 16.9281357,15.5535268 16.8567611,15.4600426 L14.6436165,12.1636637 L14.4770315,12.9351072 L16.1190462,15.4366716 C16.1904209,15.5301558 16.3570059,15.6236399 16.4759858,15.6236399 L16.4759858,15.6236399 Z" id="path8-1" fill="url(#linearGradient-23)" fill-rule="nonzero" mask="url(#mask-22)"></path>
    </g>
</svg>