<svg fill="none" height="24" width="32" xmlns="http://www.w3.org/2000/svg" xmlns:xlink="http://www.w3.org/1999/xlink"><linearGradient id="b" gradientTransform="matrix(3.0529 .862 -1.7212 1.52894 4.689 -.877)" gradientUnits="userSpaceOnUse" x2="1"><stop offset="0" stop-color="#e53121"/><stop offset="1" stop-color="#c22c1a"/></linearGradient><linearGradient id="c" gradientTransform="matrix(7.66132 2.1632 -4.31991 3.83641 3.27 -4.423)" gradientUnits="userSpaceOnUse" x2="1"><stop offset="0" stop-color="#dcdaee"/><stop offset="1" stop-color="#8f88c0"/></linearGradient><linearGradient id="d" gradientTransform="matrix(-4.06283 -1.08863 .63956 -6.91549 2.421 9.288)" gradientUnits="userSpaceOnUse" x2="1"><stop offset="0" stop-color="#7b73b3"/><stop offset="1" stop-color="#c6c2e2"/></linearGradient><linearGradient id="e" gradientTransform="matrix(-3.66385 -2.1153 3.36696 -2.30181 .88 5.12)" gradientUnits="userSpaceOnUse" x2="1"><stop offset="0" stop-color="#6c62a8"/><stop offset="1" stop-color="#cbcae6"/></linearGradient><linearGradient id="f" gradientTransform="matrix(2.18297 3.78098 -4.63362 1.78127 5.184 -.985)" gradientUnits="userSpaceOnUse" x2="1"><stop offset="0" stop-color="#e53121"/><stop offset="1" stop-color="#a62714"/></linearGradient><linearGradient id="g" gradientTransform="matrix(2.11543 3.66404 -2.08264 3.72172 2.88 -2.872)" gradientUnits="userSpaceOnUse" x2="1"><stop offset="0" stop-color="#e84d2c"/><stop offset="1" stop-color="#811f08"/></linearGradient><linearGradient id="h" gradientTransform="matrix(1.86664 5.1285 -6.2335 1.53574 7.829 -2.24)" gradientUnits="userSpaceOnUse" x2="1"><stop offset="0" stop-color="#f3f2f9"/><stop offset="1" stop-color="#bbb7db"/></linearGradient><linearGradient id="i" gradientTransform="matrix(.86684 .35846 -.04003 7.76328 -.198 -2.6)" gradientUnits="userSpaceOnUse" x2="1"><stop offset="0" stop-color="#fff"/><stop offset="1" stop-color="#bbb7db"/></linearGradient><linearGradient id="j" gradientTransform="matrix(5.06657 1.43057 -2.43528 2.97627 2.892 -2.194)" gradientUnits="userSpaceOnUse" x2="1"><stop offset="0" stop-color="#fff098"/><stop offset="1" stop-color="#ffd530"/></linearGradient><linearGradient id="a"><stop offset="0" stop-color="#f4a286"/><stop offset="1" stop-color="#e53121"/></linearGradient><linearGradient id="k" gradientTransform="matrix(4.5615 1.66024 -1.35477 5.59003 1.778 -3.952)" gradientUnits="userSpaceOnUse" x2="1" xlink:href="#a"/><linearGradient id="l" gradientTransform="matrix(3.7808 -2.18283 3.83998 2.14919 -3.094 -.91)" gradientUnits="userSpaceOnUse" x2="1" xlink:href="#a"/><linearGradient id="m" gradientTransform="matrix(3.83165 1.08188 -.89007 4.65733 .824 -2.169)" gradientUnits="userSpaceOnUse" x2="1"><stop offset="0" stop-color="#4464ac"/><stop offset="1" stop-color="#1d3584"/></linearGradient><linearGradient id="n" gradientTransform="matrix(4.1389 0 0 .4622 .05 -1.506)" gradientUnits="userSpaceOnUse" x2="1"><stop offset="0" stop-color="#4464ac"/><stop offset=".373" stop-color="#2f4b97"/><stop offset=".728" stop-color="#223b89"/><stop offset="1" stop-color="#1d3584"/></linearGradient><linearGradient id="o" gradientTransform="matrix(3.93158 1.12736 -1.79385 2.47083 1.263 -2.616)" gradientUnits="userSpaceOnUse" x2="1"><stop offset="0" stop-color="#5b62a2"/><stop offset=".152" stop-color="#4c579a"/><stop offset=".482" stop-color="#31438c"/><stop offset=".776" stop-color="#213783"/><stop offset="1" stop-color="#1b3380"/></linearGradient><linearGradient id="p" gradientTransform="matrix(.34938 3.99303 -4.89348 .28509 6.83 -.29)" gradientUnits="userSpaceOnUse" x2="1"><stop offset="0" stop-color="#fff"/><stop offset="1" stop-color="#dad8ed"/></linearGradient><linearGradient id="q" gradientTransform="matrix(2.89753 .83085 -.47235 5.09664 .168 -2.555)" gradientUnits="userSpaceOnUse" x2="1"><stop offset="0" stop-color="#fff"/><stop offset="1" stop-color="#d1cee8"/></linearGradient><linearGradient id="r" gradientTransform="matrix(5.364 1.51454 -2.57848 3.1507 2.49 -3.752)" gradientUnits="userSpaceOnUse" x2="1"><stop offset="0" stop-color="#d1cee8"/><stop offset="1" stop-color="#7b73b3"/></linearGradient><linearGradient id="s" gradientTransform="matrix(2.466 4.27129 -3.48555 3.0219 3.793 -2.741)" gradientUnits="userSpaceOnUse" x2="1"><stop offset="0" stop-color="#e53121"/><stop offset="1" stop-color="#b02916"/></linearGradient><linearGradient id="t" gradientTransform="matrix(3.78068 -2.1828 3.83832 2.15 -3.058 -.797)" gradientUnits="userSpaceOnUse" x2="1"><stop offset="0" stop-color="#e53121"/><stop offset="1" stop-color="#9d2511"/></linearGradient><linearGradient id="u" gradientTransform="matrix(2.70143 2.70143 -2.22285 3.28306 4.143 -.877)" gradientUnits="userSpaceOnUse" x2="1"><stop offset="0" stop-color="#f5b0ac"/><stop offset="1" stop-color="#ef8495"/></linearGradient><linearGradient id="v" gradientTransform="matrix(4.13882 0 0 .4624 .052 -1.506)" gradientUnits="userSpaceOnUse" x2="1"><stop offset="0" stop-color="#f5b0ac"/><stop offset="1" stop-color="#ee788f"/></linearGradient><path d="M28 0H4a4 4 0 0 0-4 4v16a4 4 0 0 0 4 4h24a4 4 0 0 0 4-4V4a4 4 0 0 0-4-4z" fill="#4858bb"/><path d="M15.996 19.996a8 8 0 1 0 0-16 8 8 0 0 0 0 16z" fill="#fff"/><path d="M0 1.645 2.967 0l4.72 3.85L0 1.645" fill="url(#b)" transform="translate(15.989 10.344)"/><path d="m18.956 10.344 4.72 3.85-.47-.247-4.261-3.475z" fill="#e53121"/><path d="m15.989 11.99 2.967-1.646-.011.128-2.679 1.485z" fill="#f08465"/><path d="M23.675 14.193 15.99 11.99l.277-.032 6.94 1.99z" fill="#b82b18"/><path d="m15.989 11.989 2.967-1.645-.763-6.042-2.204 7.687" fill="#f5b0ac"/><path d="m18.192 4.302-2.203 7.687.174-.22 1.99-6.939z" fill="#d47785"/><path d="m18.956 10.344-.764-6.042-.04.528.69 5.455z" fill="#d99e9b"/><path d="m15.989 11.99 2.967-1.646-.115-.06-2.678 1.486z" fill="#f9d1cd"/><path d="m17.634 14.956-3.85 4.72.246-.47 3.475-4.261z" fill="#f9f9fc"/><path d="m15.989 11.989 1.645 2.967-.128-.011-1.485-2.679z" fill="#f3f2f9"/><path d="m13.784 19.675 2.205-7.686.032.277-1.99 6.94z" fill="#dcdaee"/><path d="m15.989 11.989 1.645 2.967 6.041-.763z" fill="#2b2b85"/><path d="M23.675 14.193 15.99 11.99l.219.174 6.94 1.989z" fill="#484293"/><path d="m17.634 14.956 6.041-.763-.528-.041-5.455.69z" fill="#24236f"/><path d="m15.989 11.989 1.645 2.967.06-.115-1.486-2.678z" fill="#8f88c0"/><path d="M7.687 2.204 4.719 3.85 0 0z" fill="url(#c)" transform="translate(8.302 9.784)"/><path d="M13.021 13.633 8.302 9.784l.47.246 4.26 3.476z" fill="#bbb7db"/><path d="m15.989 11.989-2.968 1.645.012-.128 2.678-1.485z" fill="#b0aad4"/><path d="m8.302 9.784 7.687 2.205-.278.031-6.939-1.99z" fill="#d1cce6"/><path d="m15.989 11.989-2.968 1.644.763 6.042z" fill="#fd0"/><path d="m13.784 19.675 2.205-7.686-.175.219-1.989 6.939z" fill="#dbbb85"/><path d="m13.021 13.633.764 6.042.04-.529-.69-5.454z" fill="#ebc536"/><path d="m15.989 11.989-2.968 1.645.115.06 2.678-1.486z" fill="#ffe167"/><path d="M15.989 11.989 14.343 9.02l3.85-4.719-2.204 7.687" fill="#e53121"/><path d="m14.343 9.021 3.85-4.719-.246.47-3.475 4.26z" fill="#ea583c"/><path d="M15.99 11.989 14.342 9.02l.129.011 1.485 2.679z" fill="#d42f1e"/><path d="m18.192 4.302-2.203 7.687-.032-.278 1.99-6.94z" fill="#c22c1a"/><path d="M15.989 11.989 14.344 9.02l-6.042.763 7.687 2.205" fill="#f3f2f9"/><path d="m8.302 9.784 7.687 2.205-.22-.175-6.939-1.99z" fill="#f9f8fb"/><path d="m14.344 9.02-6.042.764.528.041 5.455-.689z" fill="#dcdaee"/><path d="M15.99 11.989 14.343 9.02l-.058.115 1.485 2.678z" fill="#f9f9fc"/><path d="M3.55 2.131A7.961 7.961 0 0 0 0 0l.764 6.042L3.55 2.13z" fill="url(#d)" transform="translate(18.192 4.302)"/><path d="m18.192 4.302.764 6.042.071-.285-.717-5.723-.117-.034z" fill="#8f88c0"/><path d="m21.666 6.356-2.64 3.703-.07.285 2.786-3.911a2.79 2.79 0 0 0-.076-.077z" fill="#a59fce"/><path d="M3.55 2.131A7.961 7.961 0 0 0 0 0l.145.267A7.739 7.739 0 0 1 3.348 2.23l.201-.1z" fill="url(#e)" transform="translate(18.192 4.302)"/><path d="M0 3.91 2.786 0a8.032 8.032 0 0 1 2.007 3.621L0 3.911z" fill="url(#f)" transform="translate(18.956 6.433)"/><path d="m21.742 6.433-2.786 3.91.216-.12 2.645-3.711a6.646 6.646 0 0 0-.075-.079z" fill="#ed6f50"/><path d="m23.722 9.948-4.55.276-.216.12 4.793-.29a7.602 7.602 0 0 0-.027-.106z" fill="#a62714"/><path d="M1.814 3.528A7.825 7.825 0 0 0 0 .256L.051 0a8.034 8.034 0 0 1 2.007 3.621l-.244-.093z" fill="url(#g)" transform="translate(21.69 6.433)"/><path d="M0 .29 4.793 0a7.964 7.964 0 0 1-.074 4.14z" fill="url(#h)" transform="translate(18.956 10.054)"/><path d="m23.749 10.054-4.793.29.279.09 4.54-.275-.026-.105z" fill="#d1cee8"/><path d="M23.675 14.193c.011-.038.022-.076.031-.113l-4.471-3.647-.279-.09 4.72 3.85z" fill="#f3f2f9"/><path d="M0 3.879A7.735 7.735 0 0 0 .033.119L.224 0A7.96 7.96 0 0 1 .15 4.14z" fill="url(#i)" transform="translate(23.525 10.054)"/><path d="M2.13 0A7.96 7.96 0 0 0 0 3.55l6.042-.764L2.13 0z" fill="url(#j)" transform="translate(8.302 6.235)"/><path d="m8.302 9.784 6.042-.763-.285-.071-5.723.718-.034.116z" fill="#ffcb00"/><path d="m10.356 6.31 3.703 2.64.285.07-3.91-2.785-.078.075z" fill="#fd0"/><path d="M10.432 6.235a7.961 7.961 0 0 0-2.13 3.55l.266-.145a7.74 7.74 0 0 1 1.964-3.203z" fill="#fff8c7"/><path d="M3.91 4.793 0 2.007A8.032 8.032 0 0 1 3.62 0l.29 4.793z" fill="url(#k)" transform="translate(10.433 4.228)"/><path d="m10.434 6.235 3.91 2.786-.12-.215-3.712-2.645-.079.074zm3.514-1.98.276 4.55.12.216-.29-4.793-.106.028z" fill="#e53121"/><path d="M3.528.245A7.822 7.822 0 0 0 .256 2.058L0 2.007A8.035 8.035 0 0 1 3.621 0l-.093.245z" fill="url(#l)" transform="translate(10.432 4.228)"/><path d="M.29 5.03 0 .239a7.957 7.957 0 0 1 4.139.074z" fill="url(#m)" transform="translate(14.054 3.99)"/><path d="m14.053 4.228.29 4.793.09-.28-.274-4.538-.106.025z" fill="#1e398e"/><path d="m18.192 4.302-.112-.031-3.647 4.471-.09.279 3.85-4.719z" fill="#2f2482"/><path d="M3.879.462A7.736 7.736 0 0 0 .119.43L0 .239a7.954 7.954 0 0 1 4.139.073l-.26.15z" fill="url(#n)" transform="translate(14.054 3.99)"/><path d="M10.235 17.544a7.961 7.961 0 0 0 3.55 2.131l-.764-6.042z" fill="#2b2b85"/><path d="m13.785 19.675-.764-6.042-.07.285.717 5.723.117.034z" fill="#24236f"/><path d="m10.31 17.621 2.64-3.703.071-.285-2.786 3.911.076.077z" fill="#5b549f"/><path d="M0 .1a7.964 7.964 0 0 0 3.549 2.13l-.145-.266A7.743 7.743 0 0 1 .201 0z" fill="url(#o)" transform="translate(10.235 17.445)"/><path d="M4.793 0 2.007 3.91A8.035 8.035 0 0 1 0 .29L4.793 0z" fill="url(#p)" transform="translate(8.228 13.633)"/><path d="m10.235 17.544 2.786-3.91-.216.119-2.645 3.712.075.08z" fill="#b0aad4"/><path d="m8.256 14.029 4.55-.276.215-.12-4.792.29c.008.036.017.071.027.106z" fill="#dad8ed"/><path d="M.245.093a7.824 7.824 0 0 0 1.814 3.272l-.052.256A8.037 8.037 0 0 1 0 0l.245.093z" fill="url(#q)" transform="translate(8.228 13.924)"/><path d="m13.021 13.633-4.793.29a7.965 7.965 0 0 1 .074-4.139l4.719 3.85z" fill="#e53121"/><path d="m8.228 13.923 4.793-.29-.279-.089-4.539.274.025.105z" fill="#ca2d0a"/><path d="M8.302 9.784c-.01.038-.022.076-.031.113l4.471 3.647.279.09-4.72-3.85zm.15.26a7.742 7.742 0 0 0-.034 3.76l-.19.12a7.962 7.962 0 0 1 .074-4.14l.15.26z" fill="#ed6f50"/><path d="M3.91 3.549A7.96 7.96 0 0 0 6.043 0L0 .763l3.91 2.786z" fill="url(#r)" transform="translate(17.634 14.193)"/><path d="m23.675 14.193-6.041.763.284.071 5.723-.717.034-.117z" fill="#7b73b3"/><path d="m21.621 17.666-3.703-2.64-.284-.07 3.91 2.786.077-.075z" fill="#d1cee8"/><path d="M21.544 17.742a7.96 7.96 0 0 0 2.131-3.55l-.266.146a7.739 7.739 0 0 1-1.964 3.202l.1.202z" fill="#655ea5"/><path d="m0 0 3.91 2.786A8.038 8.038 0 0 1 .29 4.793z" fill="url(#s)" transform="translate(17.634 14.956)"/><path d="m21.544 17.742-3.91-2.786.12.216 3.711 2.645.08-.075zm-3.515 1.98-.276-4.55-.12-.216.29 4.793.106-.027z" fill="#e53121"/><path d="M.093 1.814A7.822 7.822 0 0 0 3.365 0l.256.052A8.044 8.044 0 0 1 0 2.06l.093-.245z" fill="url(#t)" transform="translate(17.924 17.69)"/><path d="m3.85 0 .29 4.793A7.973 7.973 0 0 1 0 4.719L3.85 0z" fill="url(#u)" transform="translate(13.784 14.956)"/><path d="m17.923 19.749-.29-4.793-.09.279.276 4.54.104-.026z" fill="#f5b0ac"/><path d="m13.784 19.675.113.032 3.647-4.472.09-.279-3.85 4.72z" fill="#fad9d5"/><path d="M.26 0a7.74 7.74 0 0 0 3.759.034l.12.19A7.963 7.963 0 0 1 0 .151L.26 0z" fill="url(#v)" transform="translate(13.785 19.525)"/></svg>