<svg xmlns="http://www.w3.org/2000/svg" width="640" height="360"><g fill="none" fill-rule="evenodd"><g fill="#2A76D2"><path d="M180.616 130.23H88.23v92.386H80V122h100.616z"/><path d="M94.065 137.147v100.616H194.68V137.147H94.065Zm90.36 90.341h-34.542l-9.234-30.662c5.498-2.968 9.234-8.781 9.234-15.467 0-9.703-7.866-17.567-17.567-17.567h-.016l.016 63.68H104.32v-80.238h49.454c16.928 0 30.652 13.723 30.652 30.651 0 10.854-5.646 20.382-14.156 25.829l14.156 23.774Z"/></g><path fill="#222" d="M226.777 196.718V171.97h8.858c3.009 0 5.353.625 7.032 1.876 1.68 1.251 2.519 3.128 2.519 5.63v.135c0 1.77-.456 3.192-1.37 4.268-.912 1.076-2.152 1.846-3.718 2.308l6.542 10.531h-5.95l-5.917-9.55h-2.435v9.55h-5.561Zm5.561-13.371h3.162c2.817 0 4.226-1.184 4.226-3.55v-.152c0-1.218-.35-2.085-1.048-2.604-.699-.518-1.758-.777-3.178-.777h-3.162v7.083Zm15.199 4.547v-.287c0-2.806.882-5.077 2.645-6.813 1.764-1.735 3.981-2.603 6.652-2.603 1.206 0 2.328.18 3.364.54 1.037.361 1.97.902 2.798 1.624.828.72 1.482 1.684 1.961 2.89.479 1.206.718 2.592.718 4.159v1.386h-13.05c.068 1.51.493 2.68 1.276 3.508.784.828 1.857 1.242 3.22 1.242 2.176 0 3.432-.845 3.77-2.535h4.75c-.292 1.95-1.188 3.454-2.687 4.513-1.5 1.06-3.488 1.59-5.968 1.59-2.794 0-5.068-.826-6.82-2.477-1.753-1.651-2.63-3.897-2.63-6.737Zm5.156-2.18h8.097c-.169-2.705-1.488-4.058-3.956-4.058-1.127 0-2.05.355-2.772 1.065-.721.71-1.178 1.708-1.37 2.992Zm14.86 5.324h4.683c.112.857.408 1.5.887 1.927.479.429 1.243.643 2.29.643 1.894 0 2.84-.66 2.84-1.978 0-.609-.276-1.068-.828-1.378-.552-.31-1.499-.566-2.84-.769-2.445-.372-4.17-.97-5.173-1.792-1.003-.822-1.504-2.107-1.504-3.854 0-.913.197-1.736.592-2.468a4.874 4.874 0 0 1 1.606-1.775 8.114 8.114 0 0 1 2.282-1.04 9.71 9.71 0 0 1 2.688-.363c4.575 0 7.066 1.87 7.471 5.612h-4.598c-.135-.755-.428-1.307-.879-1.656-.45-.35-1.104-.525-1.96-.525-.8 0-1.43.172-1.886.516-.456.344-.684.797-.684 1.36 0 .564.248.981.744 1.252.495.27 1.414.507 2.755.71 1.217.18 2.229.391 3.034.634a8.108 8.108 0 0 1 2.164.997 3.745 3.745 0 0 1 1.395 1.631c.293.665.44 1.471.44 2.418 0 1.938-.666 3.417-1.995 4.437-1.33 1.02-3.207 1.53-5.63 1.53-2.445 0-4.353-.524-5.722-1.572-1.37-1.048-2.093-2.547-2.172-4.497Zm16.889-8.858v-3.567h2.316v-3.921h4.987v3.921h3.803v3.567h-3.803v8.723c0 1.431.67 2.147 2.011 2.147.676 0 1.307-.118 1.894-.355v3.888c-.925.316-1.939.473-3.043.473-1.905 0-3.356-.479-4.353-1.437-.998-.957-1.496-2.377-1.496-4.26v-9.179h-2.316Zm14.353 14.538v-18.105h5.02v3.466c.587-1.24 1.347-2.17 2.283-2.79.935-.62 2.124-.935 3.567-.946v4.666h-.17c-1.848 0-3.25.349-4.209 1.048-.98.721-1.47 1.916-1.47 3.583v9.078h-5.021Zm14.471-21.35c-.54-.519-.811-1.167-.811-1.944 0-.778.273-1.429.82-1.953.546-.524 1.22-.786 2.02-.786.811 0 1.493.262 2.045.786.553.524.829 1.175.829 1.953 0 .777-.276 1.425-.829 1.944-.552.518-1.234.777-2.045.777-.8 0-1.476-.259-2.029-.777Zm-.44 21.35v-18.105h4.988v18.105h-4.987Zm8.234-8.824v-.287c0-1.894.42-3.564 1.26-5.013.84-1.448 1.964-2.544 3.372-3.287 1.41-.744 2.976-1.116 4.7-1.116.868 0 1.687.076 2.46.228a8.72 8.72 0 0 1 2.222.76 7.09 7.09 0 0 1 1.86 1.328c.53.53.97 1.194 1.318 1.995.35.8.57 1.707.66 2.721h-4.734c-.326-2.051-1.55-3.076-3.668-3.076-1.318 0-2.37.473-3.153 1.42-.783.946-1.174 2.27-1.174 3.972v.287c0 1.804.383 3.17 1.15 4.1.765.93 1.859 1.394 3.279 1.394 1.048 0 1.927-.301 2.637-.904s1.121-1.468 1.234-2.595h4.53c-.135 2.198-.966 3.961-2.493 5.291-1.527 1.33-3.581 1.995-6.162 1.995-1.33 0-2.558-.206-3.685-.617a8.704 8.704 0 0 1-2.942-1.766c-.834-.767-1.487-1.736-1.96-2.908-.474-1.172-.71-2.48-.71-3.922Zm19.29-5.714v-3.567h2.316v-3.921h4.987v3.921h3.803v3.567h-3.803v8.723c0 1.431.67 2.147 2.011 2.147.676 0 1.307-.118 1.893-.355v3.888c-.924.316-1.938.473-3.042.473-1.905 0-3.356-.479-4.353-1.437-.998-.957-1.496-2.377-1.496-4.26v-9.179h-2.316Zm22.281 2.316v-.27c0-1.848.313-3.561.938-5.14.626-1.577 1.482-2.912 2.57-4.006 1.087-1.093 2.389-1.95 3.905-2.57 1.516-.619 3.141-.929 4.877-.929 2.017 0 3.803.321 5.358.964a8.818 8.818 0 0 1 3.83 3.017c.997 1.37 1.591 3.046 1.783 5.03h-5.748c-.428-3.055-2.158-4.582-5.19-4.582-1.96 0-3.518.727-4.674 2.18-1.155 1.455-1.732 3.455-1.732 6.002v.27c0 2.559.563 4.548 1.69 5.968s2.71 2.13 4.75 2.13c1.578 0 2.863-.4 3.855-1.2.991-.8 1.6-1.978 1.825-3.534h5.511c-.203 1.995-.806 3.697-1.809 5.106a9.163 9.163 0 0 1-3.87 3.144c-1.579.687-3.393 1.031-5.444 1.031-3.978 0-7.044-1.13-9.196-3.39-2.153-2.259-3.229-5.333-3.229-9.22Zm25.358 3.364v-.287c0-1.86.417-3.505 1.251-4.936a8.502 8.502 0 0 1 3.415-3.297c1.442-.766 3.07-1.15 4.885-1.15 2.761 0 5.038.852 6.83 2.553 1.792 1.702 2.687 3.945 2.687 6.728v.288c0 1.87-.417 3.519-1.25 4.944a8.403 8.403 0 0 1-3.415 3.271c-1.443.756-3.071 1.133-4.886 1.133-1.792 0-3.406-.375-4.843-1.124a8.448 8.448 0 0 1-3.415-3.246c-.84-1.414-1.259-3.04-1.259-4.877Zm5.122-.101c0 1.747.386 3.105 1.158 4.074.772.969 1.862 1.454 3.271 1.454 1.398 0 2.485-.485 3.263-1.454.777-.97 1.166-2.316 1.166-4.04v-.254c0-1.735-.389-3.09-1.166-4.065-.778-.975-1.865-1.463-3.263-1.463-1.386 0-2.47.48-3.254 1.437-.783.958-1.175 2.3-1.175 4.023v.288Zm17.041 8.96v-18.106h5.02v2.874c.485-.969 1.232-1.76 2.24-2.375 1.01-.614 2.224-.921 3.644-.921 1.87 0 3.355.583 4.454 1.75 1.099 1.166 1.648 2.915 1.648 5.248v11.53h-5.02v-10.803c0-1.24-.257-2.155-.77-2.747-.512-.591-1.321-.887-2.425-.887-1.116 0-2.023.343-2.722 1.03-.699.688-1.048 1.674-1.048 2.96v10.446h-5.02Zm19.475-14.539v-3.567h2.316v-3.921h4.987v3.921h3.804v3.567h-3.804v8.723c0 1.431.67 2.147 2.012 2.147.676 0 1.307-.118 1.893-.355v3.888c-.924.316-1.938.473-3.043.473-1.904 0-3.355-.479-4.353-1.437-.997-.957-1.496-2.377-1.496-4.26v-9.179h-2.316Zm13.255 5.714v-.287c0-2.806.882-5.077 2.645-6.813 1.764-1.735 3.981-2.603 6.652-2.603 1.206 0 2.327.18 3.364.54 1.037.361 1.97.902 2.798 1.624.828.72 1.482 1.684 1.96 2.89.48 1.206.72 2.592.72 4.159v1.386H447.97c.068 1.51.493 2.68 1.276 3.508.783.828 1.857 1.242 3.22 1.242 2.176 0 3.432-.845 3.77-2.535h4.75c-.293 1.95-1.188 3.454-2.687 4.513-1.5 1.06-3.488 1.59-5.968 1.59-2.795 0-5.068-.826-6.82-2.477-1.753-1.651-2.63-3.897-2.63-6.737Zm5.156-2.18h8.097c-.17-2.705-1.488-4.058-3.956-4.058-1.127 0-2.05.355-2.772 1.065-.721.71-1.178 1.708-1.37 2.992Zm16.01 11.004v-18.105h5.02v2.874c.485-.969 1.231-1.76 2.24-2.375 1.008-.614 2.223-.921 3.643-.921 1.87 0 3.355.583 4.454 1.75 1.099 1.166 1.648 2.915 1.648 5.248v11.53h-5.02v-10.803c0-1.24-.257-2.155-.77-2.747-.512-.591-1.32-.887-2.425-.887-1.116 0-2.023.343-2.722 1.03-.699.688-1.048 1.674-1.048 2.96v10.446h-5.02Zm19.475-14.538v-3.567h2.315v-3.921h4.987v3.921h3.804v3.567h-3.804v8.723c0 1.431.67 2.147 2.012 2.147.676 0 1.307-.118 1.893-.355v3.888c-.924.316-1.938.473-3.043.473-1.904 0-3.355-.479-4.352-1.437-.998-.957-1.497-2.377-1.497-4.26v-9.179h-2.315Zm23.566 14.538V171.97h8.553c3.043 0 5.379.668 7.007 2.003 1.629 1.336 2.443 3.3 2.443 5.891V180c0 2.547-.82 4.47-2.46 5.773-1.64 1.301-3.913 1.952-6.82 1.952h-3.162v8.993h-5.561Zm5.561-12.915h2.84c1.364 0 2.403-.321 3.12-.963.715-.643 1.073-1.578 1.073-2.807v-.135c0-1.285-.355-2.217-1.065-2.798-.71-.58-1.753-.87-3.128-.87h-2.84v7.573Zm15.401 12.915v-18.105h5.021v3.466c.586-1.24 1.347-2.17 2.282-2.79.936-.62 2.125-.935 3.567-.946v4.666h-.169c-1.848 0-3.251.349-4.21 1.048-.98.721-1.47 1.916-1.47 3.583v9.078h-5.02Zm12.798-8.858v-.287c0-1.86.417-3.505 1.251-4.936a8.502 8.502 0 0 1 3.415-3.297c1.443-.766 3.071-1.15 4.885-1.15 2.762 0 5.038.852 6.83 2.553 1.792 1.702 2.688 3.945 2.688 6.728v.288c0 1.87-.417 3.519-1.251 4.944a8.403 8.403 0 0 1-3.415 3.271c-1.442.756-3.07 1.133-4.885 1.133-1.792 0-3.407-.375-4.844-1.124a8.448 8.448 0 0 1-3.414-3.246c-.84-1.414-1.26-3.04-1.26-4.877Zm5.122-.101c0 1.747.386 3.105 1.158 4.074.772.969 1.863 1.454 3.271 1.454 1.398 0 2.485-.485 3.263-1.454.778-.97 1.166-2.316 1.166-4.04v-.254c0-1.735-.388-3.09-1.166-4.065-.778-.975-1.865-1.463-3.263-1.463-1.386 0-2.47.48-3.254 1.437-.783.958-1.175 2.3-1.175 4.023v.288Z"/></g></svg>