<svg xmlns="http://www.w3.org/2000/svg" width="640" height="360"><g fill="none" fill-rule="evenodd"><path fill="#00a1e9" d="M98.998 172.55a22.1 22.1 0 0 0-.271 12.393c2.59 9.668 11.37 16.387 21.356 16.387s18.767-6.726 21.357-16.387a22.15 22.15 0 0 0-.271-12.394l-.075-.244-.007-.258a6.43 6.43 0 0 1 4.468-6.36 6.41 6.41 0 0 1 7.315 2.611l.143.217.075.244c2 6.285 2.142 13.045.433 19.418-3.539 13.207-14.454 22.902-27.567 25.16l.38-.068v22.475a58 58 0 0 1-6.244.346c-2.109 0-4.197-.115-6.244-.346C85.81 232.64 64 208.862 64 180c0-30.977 25.113-56.09 56.09-56.09s56.09 25.113 56.09 56.09c0 26.794-18.787 49.202-43.907 54.761v-12.4c18.408-5.289 31.88-22.252 31.88-42.36 0-24.334-19.73-44.063-44.063-44.063-24.34 0-44.062 19.729-44.062 44.062 0 22.218 16.44 40.591 37.818 43.629v-10.353c.088.013-21.323-3.214-27.188-25.093a34.6 34.6 0 0 1 .434-19.417l.075-.244.142-.217a6.42 6.42 0 0 1 7.316-2.61 6.425 6.425 0 0 1 4.467 6.36l-.006.257zm31.913-11.317 6.25-10.834c-5.98-3.376-12.901-4.902-19.993-4.373l-.637.061c-4.76.427-9.377 1.96-13.526 4.34l6.237 10.806c6.692-3.75 14.977-3.75 21.669 0m-10.835 6.109c-6.99 0-12.65 5.668-12.65 12.651 0 6.99 5.667 12.652 12.65 12.652 6.99 0 12.652-5.668 12.652-12.652 0-6.99-5.662-12.651-12.652-12.651"/><g fill="#253a78" fill-rule="nonzero"><path d="M243.257 158.158h-12.25l-8.165 19.598-4.628 12.34-4.264-12.612-6.805-19.326H194.26l17.874 44.006-8.347 19.417h12.158zM270.114 157.25c-14.245 0-23.137 10.526-23.137 23.32 0 12.883 8.71 23.318 23.228 23.318 14.517 0 23.318-10.435 23.318-23.319 0-12.793-9.164-23.318-23.409-23.318m.09 10.072c7.44 0 12.16 6.533 12.16 13.247 0 6.805-4.084 13.157-12.16 13.157-8.075 0-12.158-6.352-12.158-13.157 0-6.714 4.174-13.247 12.159-13.247M301.417 158.158v23.5c0 13.882 7.803 21.958 18.51 21.958 6.26 0 10.525-2.178 15.152-6.715l.726 6.08h9.89v-44.823h-10.979v22.865c0 6.805-4.627 12.521-11.432 12.521-7.077 0-10.797-5.172-10.797-11.977v-23.41ZM355.494 158.158v44.732h11.07v-23.591c0-8.257 5.353-11.342 11.16-11.342 3.63 0 5.716.998 7.985 2.904l4.99-9.618c-2.45-2.45-6.896-4.265-11.523-4.265-4.537 0-9.164.817-12.612 6.352l-.817-5.172ZM430.26 162.785c-5.173-4.536-10.435-5.897-17.422-5.897-8.166 0-18.872 3.629-18.872 13.973 0 10.162 10.071 13.247 18.51 13.882 6.35.363 8.891 1.633 8.891 4.718 0 3.266-3.901 5.444-8.075 5.353-4.99-.09-12.25-2.722-15.425-6.26l-5.444 7.894c6.533 6.805 13.61 7.984 20.687 7.984 12.794 0 19.236-6.805 19.236-14.699 0-11.886-10.707-13.791-19.145-14.336-5.716-.363-8.347-1.996-8.347-4.9 0-2.812 2.903-4.445 8.166-4.445 4.264 0 7.894.998 11.07 3.992zM474.537 164.328c-2.54-4.446-8.257-7.259-14.245-7.259-13.066-.09-23.319 7.985-23.319 23.41 0 15.696 9.8 23.862 23.047 23.772 4.99-.091 11.977-2.632 14.517-7.894l.545 6.533h10.434v-44.732H474.9zm-13.247 2.631c17.42 0 17.42 27.13 0 27.13-7.35 0-13.247-5.082-13.247-13.61 0-8.53 5.898-13.52 13.247-13.52M509.56 202.89v-34.388h13.157v-9.709H509.56V155.8c0-5.444 2.904-7.985 6.715-7.985 2.268 0 4.446.817 6.805 2.36l4.083-8.257c-3.63-2.36-7.713-3.63-11.614-3.63-8.983 0-17.058 5.535-17.058 17.512v2.994h-8.348v9.709h8.348v34.388zM575.796 184.47c1.724-18.418-7.622-27.673-22.593-27.673-14.517 0-23.772 9.8-23.772 23.41 0 14.335 9.164 23.862 24.589 23.862 6.805 0 14.517-2.359 19.235-7.259l-7.077-6.986c-2.54 2.631-7.894 4.174-11.977 4.174-7.803 0-12.612-3.993-13.337-9.527zm-34.751-9.163c1.633-5.807 6.533-8.71 12.521-8.71 6.352 0 10.888 2.903 11.614 8.71z"/></g></g></svg>