<svg xmlns="http://www.w3.org/2000/svg" width="512" height="512" fill="none"><path fill="#00a1e9" fill-rule="evenodd" d="M159.732 221.993c-5.816 18.319-6.219 38-1.236 56.565 11.82 44.126 51.892 74.792 97.473 74.792s85.653-30.697 97.473-74.792a101.1 101.1 0 0 0-1.237-56.565l-.34-1.115-.031-1.175c-.495-13.12 7.86-25.034 20.392-29.026s26.24.897 33.388 11.913l.65.991.34 1.114c9.129 28.685 9.779 59.537 1.98 88.624-16.152 60.279-65.972 104.528-125.818 114.833l1.734-.31v102.58a263 263 0 0 1-28.5 1.577c-9.623 0-19.154-.525-28.5-1.577C99.548 496.249 0 387.729 0 256 0 114.616 114.617 0 256 0c141.384 0 256 114.616 256 256 0 122.29-85.746 224.56-200.394 249.935v-56.597C395.619 425.201 457.105 347.779 457.105 256c0-111.059-90.047-201.105-201.105-201.105C144.912 54.895 54.895 144.94 54.895 256c0 101.404 75.039 185.262 172.606 199.124v-47.25c.402.061-97.32-14.668-124.086-114.524-7.798-29.057-7.148-59.94 1.98-88.624l.34-1.114.65-.99c7.18-11.017 20.887-15.906 33.389-11.914 12.532 3.992 20.888 15.875 20.392 29.026l-.031 1.175zm145.655-51.646 28.53-49.449c-27.292-15.41-58.886-22.372-91.254-19.959l-2.908.279c-21.724 1.949-42.796 8.942-61.733 19.805l28.468 49.324c30.542-17.113 68.355-17.113 98.897 0m-49.449 27.88c-31.903 0-57.741 25.869-57.741 57.743 0 31.902 25.87 57.74 57.741 57.74 31.903 0 57.741-25.869 57.741-57.74 0-31.905-25.838-57.743-57.74-57.743" clip-rule="evenodd" style="stroke-width:15.36"/></svg>