<svg xmlns="http://www.w3.org/2000/svg" width="40" height="40" fill="none" viewBox="0 0 40 40"><path fill="#fff" d="M40 0H0v40h40z"/><path fill="#00a1e9" fill-rule="evenodd" d="M13.733 17.786a6.574 6.574 0 0 0 6.265 8.552 6.576 6.576 0 0 0 6.265-8.552l-.022-.073-.002-.076a1.905 1.905 0 0 1 3.501-1.114l.043.064.022.073c.594 1.867.637 3.876.129 5.77a10.3 10.3 0 0 1-8.192 7.476l.113-.02v6.678q-.914.101-1.855.103-.942 0-1.855-.103C9.815 35.64 3.333 28.576 3.333 20c0-9.205 7.462-16.667 16.667-16.667S36.667 10.795 36.667 20c0 7.962-5.583 14.62-13.047 16.272v-3.685c5.47-1.571 9.473-6.612 9.473-12.587 0-7.23-5.863-13.093-13.093-13.093C12.768 6.907 6.907 12.77 6.907 20c0 6.602 4.886 12.061 11.238 12.964v-3.076c.026.004-6.336-.955-8.079-7.456a10.3 10.3 0 0 1 .129-5.77l.022-.073.042-.064a1.907 1.907 0 0 1 3.502 1.114l-.002.076zm9.482-3.362 1.858-3.22c-1.777-1.003-3.834-1.456-5.941-1.3l-.19.019a9.9 9.9 0 0 0-4.019 1.29l1.854 3.21a6.62 6.62 0 0 1 6.438 0m-3.22 1.815a3.76 3.76 0 1 0 .001 7.519 3.76 3.76 0 0 0 0-7.52" clip-rule="evenodd"/></svg>