<svg xmlns="http://www.w3.org/2000/svg" width="640" height="360"><defs><linearGradient id="a" x1="0%" y1="50.002%" y2="50.002%"><stop offset="0%" stop-color="#231E5C"/><stop offset="100%" stop-color="#034EA2"/></linearGradient></defs><path fill="url(#a)" fill-rule="evenodd" d="M237.66 164.76 205.59 315.643h-38.79l32.087-150.883h38.775Zm163.182 97.422 20.421-56.654 11.753 56.654h-32.174Zm43.287 53.461H480L448.69 164.76h-33.108c-7.446 0-13.728 4.354-16.51 11.065l-58.2 139.818h40.722l8.086-22.543h49.76l4.69 22.543ZM342.887 266.38c.176-39.818-54.718-42.017-54.336-59.808.122-5.412 5.24-11.164 16.451-12.635 5.55-.733 20.871-1.299 38.237 6.745l6.815-31.99c-9.338-3.414-21.345-6.691-36.286-6.691-38.335 0-65.322 20.512-65.532 49.875-.26 21.731 19.253 33.84 33.954 41.067 15.107 7.395 20.172 12.138 20.118 18.746-.112 10.13-12.056 14.597-23.218 14.77-19.497.305-30.82-5.304-39.83-9.535l-7.026 33.062c9.054 4.187 25.785 7.838 43.126 8.015 40.75 0 67.405-20.246 67.527-51.621ZM182.24 164.76l-62.84 150.883H78.4L47.477 195.225c-1.882-7.414-3.505-10.13-9.215-13.25-9.324-5.097-24.72-9.874-38.262-12.836l.914-4.379h66.002c8.404 0 15.973 5.629 17.884 15.38l16.334 87.311 40.364-102.69h40.74Z" transform="translate(80 -60)"/></svg>