<svg xmlns="http://www.w3.org/2000/svg" width="51" height="32"><defs><linearGradient id="a" x1="0%" y1="50.002%" y2="50.002%"><stop offset="0%" stop-color="#231E5C"/><stop offset="100%" stop-color="#034EA2"/></linearGradient></defs><g fill="none" fill-rule="evenodd"><path fill="#FFF" stroke="#D0D0D0" d="M.5.5h50v31H.5z"/><path fill="url(#a)" d="M11.883 8.238l-1.604 7.544H8.34l1.604-7.544h1.939zm8.16 4.871l1.02-2.833.588 2.833h-1.609zm2.163 2.673H24l-1.565-7.544h-1.656a.882.882 0 00-.825.553l-2.91 6.991h2.036l.404-1.127h2.488l.234 1.127zm-5.062-2.463c.01-1.991-2.736-2.1-2.716-2.99.006-.271.262-.559.822-.632.278-.037 1.044-.065 1.912.337l.34-1.6a5.178 5.178 0 00-1.814-.334c-1.916 0-3.266 1.026-3.276 2.494-.013 1.086.962 1.692 1.697 2.053.756.37 1.01.607 1.006.937-.005.507-.602.73-1.16.739-.975.015-1.542-.265-1.992-.477l-.351 1.653c.452.21 1.289.392 2.156.401 2.037 0 3.37-1.012 3.376-2.581zM9.112 8.238L5.97 15.782H3.92l-1.546-6.02c-.094-.371-.175-.507-.46-.663C1.446 8.844.676 8.605 0 8.457l.046-.219h3.3c.42 0 .798.281.894.769l.817 4.366 2.018-5.135h2.037z" transform="translate(14 4)"/></g></svg>