<svg xmlns="http://www.w3.org/2000/svg" xmlns:xlink="http://www.w3.org/1999/xlink" width="640" height="360" viewBox="0 0 640 360">
  <defs>
    <polygon id="payment-method-alipay-a" points="0 .033 229.422 .033 229.422 135.622 0 135.622"/>
  </defs>
  <g fill="none" fill-rule="evenodd" transform="translate(80 112)">
    <path fill="#009FEC" d="M286.145767,27.9593647 C286.145767,32.5555206 282.048098,36.2812001 276.993374,36.2812001 C271.93865,36.2812001 267.840491,32.5555206 267.840491,27.9593647 C267.840491,23.3632087 271.93865,19.6375293 276.993374,19.6375293 C282.048098,19.6375293 286.145767,23.3632087 286.145767,27.9593647"/>
    <path fill="#2F312F" d="M236.949693 28.7587614L236.949693 100.693457 253.984294 100.693457 253.984294 24.7177282 240.911902 24.7177282C238.723926 24.7177282 236.949693 26.5272581 236.949693 28.7587614M268.476074 48.9844505L268.476074 100.693457 285.510184 100.693457 285.510184 44.9434173 272.438282 44.9434173C270.249816 44.9434173 268.476074 46.7529472 268.476074 48.9844505M326.062331 95.8960757C322.56589 95.8960757 318.863313 92.5252944 316.019632 89.1545131L316.019632 59.2619798C318.671411 56.5754661 323.178896 52.722644 327.078773 52.722644 332.926626 52.722644 338.393129 60.8903064 338.393129 72.8181871 338.393129 84.7460677 333.053742 95.8960757 326.062331 95.8960757zM331.655951 43.6469629C323.89546 43.6469629 318.433865 47.7460613 316.019632 49.9910797L316.019632 44.9434173 302.947239 44.9434173C300.758773 44.9434173 298.985031 46.7529472 298.985031 48.9844505L298.985031 122.993473 316.019632 122.993473 316.019632 98.444935C318.604663 100.440173 322.103067 101.860266 326.825031 101.860266 342.715092 101.860266 354.918773 87.8580587 354.918773 70.2257789 354.918773 52.5929986 342.333742 43.6469629 331.655951 43.6469629L331.655951 43.6469629zM386.318037 94.4699759C379.199018 94.4699759 374.749448 90.1916766 374.749448 82.2828044 374.749448 74.3744329 382.631656 69.4474057 388.860368 69.4474057 391.996564 69.4474057 393.932761 70.4645468 395.089571 71.4751805L395.089571 90.8083684C393.083681 92.5858623 390.086871 94.4699759 386.318037 94.4699759zM387.334969 43.6469629C372.334233 43.6469629 367.376687 46.8880988 367.376687 46.8880988L369.15681 50.7779625C369.15681 50.7779625 374.749448 48.7036355 383.902822 48.7036355 394.072147 48.7036355 395.089571 54.2783892 395.089571 61.1495973L395.089571 64.3551933C392.911902 63.7019605 388.739141 62.7058431 383.520982 62.7058431 375.766871 62.7058431 362.037791 65.8173335 362.037791 82.0235136 362.037791 98.2301941 374.241472 101.860266 382.249816 101.860266 386.936933 101.860266 391.826748 99.3779817 395.089571 97.3151677L395.089571 100.693457 412.123681 100.693457 412.123681 61.1495973C412.123681 49.4815081 402.335215 43.6469629 387.334969 43.6469629L387.334969 43.6469629zM479.718773 43.6469629L468.286626 43.6469629 452.951166 79.2699246 452.528098 78.4294818 435.04638 43.6419573 417.595092 43.6419573 444.897178 97.9779111 442.106503 104.461184C437.802209 113.171956 425.471411 112.588301 425.471411 112.588301L425.471411 119.881482C425.471411 119.881482 430.778405 120.335492 434.623804 119.881482 438.285153 119.449498 446.441718 116.965712 450.407362 108.378579L450.407853 108.379079 458.55362 90.3939034 458.552147 90.3919012 479.718773 43.6469629"/>
    <mask id="payment-method-alipay-b" fill="#fff">
      <use xlink:href="#payment-method-alipay-a"/>
    </mask>
    <path fill="#2F312F" d="M202.491288,82.8018867 L171.73546,82.8018867 L187.387485,49.6161592 L202.491288,82.8018867 Z M194.847117,24.7232344 L187.616687,24.7232344 L151.781595,100.693457 L163.296687,100.693457 L169.228466,88.1173496 L204.910429,88.1173496 L210.63411,100.693457 L229.422331,100.693457 L196.952638,29.3439179 L194.847117,24.7232344 L194.847117,24.7232344 Z" mask="url(#payment-method-alipay-b)"/>
    <path fill="#009FEC" d="M132.989448,21.3003947 L132.989448,114.602561 C132.86773,126.255132 123.577914,135.652674 112.136933,135.652674 L20.8530061,135.652674 C9.33595092,135.652674 0,126.130493 0,114.384316 L0,21.3003947 C0,9.55421787 9.33595092,0.0325364993 20.8530061,0.0325364993 L112.136933,0.0325364993 C123.653988,0.0325364993 132.989448,9.55421787 132.989448,21.3003947" mask="url(#payment-method-alipay-b)"/>
    <path fill="#FFFFFE" d="M34.8260123,104.396111 C17.1003681,104.396111 14.3548466,94.2056794 14.0495706,88.1228558 C13.7595092,82.8018867 17.2834356,72.813682 37.2976687,72.813682 C44.7420859,72.813682 56.5487117,76.6875277 69.8051534,82.3348628 C62.315092,92.3696198 50.3096933,104.396111 34.8260123,104.396111 Z M88.8736196,76.267056 C95.7074847,62.8870464 100.238037,48.7606995 100.238037,48.7606995 L73.8630675,48.7606995 L73.8630675,39.2855704 L106.370552,39.2855704 L106.370552,33.5135954 L73.8630675,33.5135954 L73.8630675,18.2664913 L58.7303067,18.2664913 L58.7303067,33.5135954 L26.2228221,33.5135954 L26.2228221,39.2855704 L58.7303067,39.2855704 L58.7303067,48.7606995 L31.393865,48.7606995 L31.393865,53.8323889 L84.2208589,53.8323889 C84.2208589,53.8323889 81.2917791,63.0116862 76.3798773,72.097879 C62.208589,67.6323696 49.1352147,64.5208792 38.64,64.5208792 C13.4699387,64.5208792 7.88662577,77.4183475 9.07631902,89.2115771 C10.0377914,98.6241361 16.9020859,112.361547 37.8773006,112.361547 C57.0370552,112.361547 72.5050307,101.159981 82.0240491,87.8270239 C100.177178,96.3525878 119.352147,106.854369 132.989448,114.602561 L132.989448,92.2299631 C118.574233,87.188808 103.395828,81.3077106 88.8736196,76.267056 L88.8736196,76.267056 Z"/>
  </g>
</svg>
