<svg height="360" viewBox="0 0 640 360" width="640" xmlns="http://www.w3.org/2000/svg" xmlns:xlink="http://www.w3.org/1999/xlink"><mask id="a" fill="#fff"><path d="m0 .033h229.422v135.589h-229.422z" fill="#fff" fill-rule="evenodd"/></mask><g fill="none" fill-rule="evenodd" transform="translate(80 112)"><path d="m286.145767 27.9593647c0 4.5961559-4.097669 8.3218354-9.152393 8.3218354s-9.152883-3.7256795-9.152883-8.3218354c0-4.596156 4.098159-8.3218354 9.152883-8.3218354s9.152393 3.7256794 9.152393 8.3218354" fill="#009fec"/><path d="m236.949693 28.7587614v71.9346956h17.034601v-75.9757288h-13.072392c-2.187976 0-3.962209 1.8095299-3.962209 4.0410332m31.526381 20.2256891v51.7090065h17.03411v-55.7500397h-13.071902c-2.188466 0-3.962208 1.8095299-3.962208 4.0410332m57.586257 46.9116252c-3.496441 0-7.199018-3.3707813-10.042699-6.7415626v-29.8925333c2.651779-2.6865137 7.159264-6.5393358 11.059141-6.5393358 5.847853 0 11.314356 8.1676624 11.314356 20.0955431 0 11.9278806-5.339387 23.0778886-12.330798 23.0778886zm5.59362-52.2491128c-7.760491 0-13.222086 4.0990984-15.636319 6.3441168v-5.0476624h-13.072393c-2.188466 0-3.962208 1.8095299-3.962208 4.0410332v74.0090225h17.034601v-24.548538c2.585031 1.995238 6.083435 3.415331 10.805399 3.415331 15.890061 0 28.093742-14.0022073 28.093742-31.6344871 0-17.6327803-12.585031-26.578816-23.262822-26.578816zm54.662086 50.823013c-7.119019 0-11.568589-4.2782993-11.568589-12.1871715 0-7.9083715 7.882208-12.8353987 14.11092-12.8353987 3.136196 0 5.072393 1.0171411 6.229203 2.0277748v19.3331879c-2.00589 1.7774939-5.0027 3.6616075-8.771534 3.6616075zm1.016932-50.823013c-15.000736 0-19.958282 3.2411359-19.958282 3.2411359l1.780123 3.8898637s5.592638-2.074327 14.746012-2.074327c10.169325 0 11.186749 5.5747537 11.186749 12.4459618v3.205596c-2.177669-.6532328-6.35043-1.6493502-11.568589-1.6493502-7.754111 0-21.483191 3.1114904-21.483191 19.3176705 0 16.2066805 12.203681 19.8367524 20.212025 19.8367524 4.687117 0 9.576932-2.4822843 12.839755-4.5450983v3.3782893h17.03411v-39.5438597c0-11.6680892-9.788466-17.5026344-24.788712-17.5026344zm92.383804 0h-11.432147l-15.33546 35.6229617-.423068-.8404428-17.481718-34.7875245h-17.451288l27.302086 54.3359538-2.790675 6.4832729c-4.304294 8.710772-16.635092 8.127117-16.635092 8.127117v7.293181s5.306994.45401 9.152393 0c3.661349-.431984 11.817914-2.91577 15.783558-11.502903l.000491.0005 8.145767-17.9851756-.001473-.0020022z" fill="#2f312f"/><path d="m202.491288 82.8018867h-30.755828l15.652025-33.1857275zm-7.644171-58.0786523h-7.23043l-35.835092 75.9702226h11.515092l5.931779-12.5761074h35.681963l5.723681 12.5761074h18.788221l-32.469693-71.3495391z" fill="#2f312f" mask="url(#a)"/><path d="m132.989448 21.3003947v93.3021663c-.121718 11.652571-9.411534 21.050113-20.852515 21.050113h-91.2839269c-11.51705518 0-20.8530061-9.522181-20.8530061-21.268358v-93.0839213c0-11.74617683 9.33595092-21.2678582 20.8530061-21.2678582h91.2839269c11.517055 0 20.852515 9.52168137 20.852515 21.2678582" fill="#009fec" mask="url(#a)"/><path d="m34.8260123 104.396111c-17.7256442 0-20.4711657-10.1904316-20.7764417-16.2732552-.2900614-5.3209691 3.233865-15.3091738 23.2480981-15.3091738 7.4444172 0 19.251043 3.8738457 32.5074847 9.5211808-7.4900614 10.034757-19.4954601 22.0612482-34.9791411 22.0612482zm54.0476073-28.129055c6.8338651-13.3800096 11.3644174-27.5063565 11.3644174-27.5063565h-26.3749695v-9.4751291h32.5074845v-5.771975h-32.5074845v-15.2471041h-15.1327608v15.2471041h-32.5074846v5.771975h32.5074846v9.4751291h-27.3364417v5.0716894h52.8269939s-2.9290798 9.1792973-7.8409816 18.2654901c-14.1712883-4.4655094-27.2446626-7.5769998-37.7398773-7.5769998-25.1700613 0-30.75337423 12.8974683-29.56368098 24.6906979.96147238 9.412559 7.82576688 23.1499699 28.80098158 23.1499699 19.1597546 0 34.6277301-11.201566 44.1467485-24.5345231 18.1531289 8.5255639 37.3280979 19.0273451 50.9653989 26.7755371v-22.3725979c-14.415215-5.0411551-29.59362-10.9222525-44.1158284-15.9629071z" fill="#fffffe"/></g></svg>