<svg height="32" viewBox="0 0 51 32" width="51" xmlns="http://www.w3.org/2000/svg"><g fill="none" fill-rule="evenodd"><path d="m.5.5h50v31h-50z" fill="#fff" stroke="#d0d0d0"/><g transform="translate(14.25 4)"><path d="m23.4687261 3.75889318v16.46508812c-.0214796 2.0563362-1.6608589 3.714726-3.6798557 3.714726h-16.10892814c-2.03242151 0-3.67994226-1.6803851-3.67994226-3.7532398v-16.42657432c0-2.07285473 1.64752075-3.75315144 3.67994226-3.75315144h16.10892814c2.0324216 0 3.6798557 1.68029671 3.6798557 3.75315144" fill="#009fec"/><path d="m6.14576687 18.4228431c-3.12805485 0-3.61255864-1.7983114-3.66643089-2.8717509-.0511873-.9389945.57068206-2.7016189 4.10260556-2.7016189 1.31372068 0 3.39724287.6836198 5.73661496 1.6802084-1.3217756 1.7708394-3.44037534 3.8931614-6.17278963 3.8931614zm9.53781303-4.9639509c1.2059762-2.3611781 2.0054854-4.85406288 2.0054854-4.85406288h-4.6544063v-1.67208161h5.7366149v-1.01858382h-5.7366149v-2.69066543h-2.6704872v2.69066543h-5.73661496v1.01858382h5.73661496v1.67208161h-4.82407797v.89500401h9.32241067s-.5168964 1.61987597-1.3837026 3.22332177c-2.5008156-.788031-4.80788165-1.3371176-6.65997837-1.3371176-4.44177553 0-5.42706604 2.2760238-5.21712017 4.357182.16967159 1.6610398 1.38101768 4.0852887 5.08252616 4.0852887 3.38113318 0 6.11077588-1.9767469 7.79060268-4.3296216 3.2034933 1.5045113 6.5873114 3.3577667 8.9938939 4.7250947v-3.9481055c-2.5438614-.8896156-5.2224035-1.9274563-7.7851462-2.8169836z" fill="#fffffe"/></g></g></svg>