<svg xmlns="http://www.w3.org/2000/svg" width="51" height="32" viewBox="0 0 51 32">
  <g fill="none" fill-rule="evenodd">
    <rect width="50" height="31" x=".5" y=".5" fill="#FFF" stroke="#D0D0D0"/>
    <g transform="translate(14.25 4)">
      <path fill="#009FEC" d="M23.4687261,3.75889318 L23.4687261,20.2239813 C23.4472465,22.2803175 21.8078672,23.9387073 19.7888704,23.9387073 L3.67994226,23.9387073 C1.64752075,23.9387073 0,22.2583222 0,20.1854675 L0,3.75889318 C0,1.68603845 1.64752075,0.00574173517 3.67994226,0.00574173517 L19.7888704,0.00574173517 C21.821292,0.00574173517 23.4687261,1.68603845 23.4687261,3.75889318"/>
      <path fill="#FFFFFE" d="M6.14576687,18.4228431 C3.01771202,18.4228431 2.53320823,16.6245317 2.47933598,15.5510922 C2.42814868,14.6120977 3.05001804,12.8494733 6.58194154,12.8494733 C7.89566222,12.8494733 9.97918441,13.5330931 12.3185565,14.5296817 C10.9967809,16.3005211 8.87818116,18.4228431 6.14576687,18.4228431 Z M15.6835799,13.4588922 C16.8895561,11.0977141 17.6890653,8.60482932 17.6890653,8.60482932 L13.034659,8.60482932 L13.034659,6.93274771 L18.7712739,6.93274771 L18.7712739,5.91416389 L13.034659,5.91416389 L13.034659,3.22349846 L10.3641718,3.22349846 L10.3641718,5.91416389 L4.62755684,5.91416389 L4.62755684,6.93274771 L10.3641718,6.93274771 L10.3641718,8.60482932 L5.54009383,8.60482932 L5.54009383,9.49983333 L14.8625045,9.49983333 C14.8625045,9.49983333 14.3456081,11.1197093 13.4788019,12.7231551 C10.9779863,11.9351241 8.67092025,11.3860375 6.81882353,11.3860375 C2.377048,11.3860375 1.39175749,13.6620613 1.60170336,15.7432195 C1.77137495,17.4042593 2.98272104,19.8285082 6.68422952,19.8285082 C10.0653627,19.8285082 12.7950054,17.8517613 14.4748322,15.4988866 C17.6783255,17.0033979 21.0621436,18.8566533 23.4687261,20.2239813 L23.4687261,16.2758758 C20.9248647,15.3862602 18.2463226,14.3484195 15.6835799,13.4588922 L15.6835799,13.4588922 Z"/>
    </g>
  </g>
</svg>
