<svg xmlns="http://www.w3.org/2000/svg" width="51" height="32" viewBox="0 0 51 32">
  <g fill="none" fill-rule="evenodd">
    <rect width="50" height="31" x=".5" y=".5" fill="#FFF" stroke="#D0D0D0"/>
    <path fill="#2C3341" d="M24,10.7835411 L24,18.5900249 C24,19.2533175 23.4627417,19.7910224 22.8,19.7910224 L1.2,19.7910224 C0.5372583,19.7910224 0,19.2533175 0,18.5900249 L0,10.7835411 L24,10.7835411 Z M9.80382377,16.2 L3.39318371,16.2 C3.17190254,16.2 2.9925187,16.3808725 2.9925187,16.60399 C2.9925187,16.8203464 3.16119551,16.9969793 3.37318648,17.0074856 L3.39318371,17.00798 L9.80382377,17.00798 C10.0251049,17.00798 10.2044888,16.8271076 10.2044888,16.60399 C10.2044888,16.3808725 10.0251049,16.2 9.80382377,16.2 Z M6.18453865,14.1950125 L3.3915212,14.1950125 C3.1711582,14.1950125 2.9925187,14.375885 2.9925187,14.5990025 C2.9925187,14.8153589 3.16049561,14.9919918 3.37160695,15.0024981 L3.3915212,15.0029925 L6.18453865,15.0029925 C6.40490165,15.0029925 6.58354115,14.82212 6.58354115,14.5990025 C6.58354115,14.375885 6.40490165,14.1950125 6.18453865,14.1950125 Z M10.7930175,14.1950125 L8,14.1950125 C7.77963701,14.1950125 7.60099751,14.375885 7.60099751,14.5990025 C7.60099751,14.8153589 7.76897441,14.9919918 7.98008575,15.0024981 L8,15.0029925 L10.7930175,15.0029925 C11.0133804,15.0029925 11.19202,14.82212 11.19202,14.5990025 C11.19202,14.375885 11.0133804,14.1950125 10.7930175,14.1950125 Z M15.4014963,14.1950125 L12.6084788,14.1950125 C12.3881158,14.1950125 12.2094763,14.375885 12.2094763,14.5990025 C12.2094763,14.8153589 12.3774532,14.9919918 12.5885646,15.0024981 L12.6084788,15.0029925 L15.4014963,15.0029925 C15.6218593,15.0029925 15.8004988,14.82212 15.8004988,14.5990025 C15.8004988,14.3826461 15.6325218,14.2060132 15.4214105,14.1955069 L15.4014963,14.1950125 Z M20.0099751,14.1950125 L17.2169576,14.1950125 C16.9965946,14.1950125 16.8179551,14.375885 16.8179551,14.5990025 C16.8179551,14.8153589 16.985932,14.9919918 17.1970434,15.0024981 L17.2169576,15.0029925 L20.0099751,15.0029925 C20.2303381,15.0029925 20.4089776,14.82212 20.4089776,14.5990025 C20.4089776,14.3826461 20.2410007,14.2060132 20.0298893,14.1955069 L20.0099751,14.1950125 Z M22.8,4.2 C23.4627417,4.2 24,4.7359185 24,5.39700748 L24,7.1925187 L0,7.1925187 L0,5.39700748 C0,4.7359185 0.5372583,4.2 1.2,4.2 L22.8,4.2 Z" transform="translate(14 4)"/>
  </g>
</svg>
