<svg xmlns="http://www.w3.org/2000/svg" width="640" height="360" viewBox="0 0 640 360">
  <path fill="#2C3341" fill-rule="evenodd" d="M300,134.794264 L300,232.375312 C300,240.666469 293.284271,247.387781 285,247.387781 L15,247.387781 C6.71572875,247.387781 0,240.666469 0,232.375312 L0,134.794264 L300,134.794264 Z M122.547797,202.5 L42.4147963,202.5 C39.6487817,202.5 37.4064838,204.760906 37.4064838,207.549875 C37.4064838,210.25433 39.5149439,212.462241 42.164831,212.59357 L42.4147963,212.599751 L122.547797,212.599751 C125.313812,212.599751 127.55611,210.338844 127.55611,207.549875 C127.55611,204.760906 125.313812,202.5 122.547797,202.5 Z M77.3067332,177.437656 L42.394015,177.437656 C39.6394776,177.437656 37.4064838,179.698562 37.4064838,182.487531 C37.4064838,185.191986 39.5061951,187.399897 42.1450869,187.531226 L42.394015,187.537406 L77.3067332,187.537406 C80.0612706,187.537406 82.2942643,185.2765 82.2942643,182.487531 C82.2942643,179.698562 80.0612706,177.437656 77.3067332,177.437656 Z M134.912718,177.437656 L100,177.437656 C97.2454626,177.437656 95.0124688,179.698562 95.0124688,182.487531 C95.0124688,185.191986 97.1121801,187.399897 99.7510719,187.531226 L100,187.537406 L134.912718,187.537406 C137.667256,187.537406 139.900249,185.2765 139.900249,182.487531 C139.900249,179.698562 137.667256,177.437656 134.912718,177.437656 Z M192.518703,177.437656 L157.605985,177.437656 C154.851448,177.437656 152.618454,179.698562 152.618454,182.487531 C152.618454,185.191986 154.718165,187.399897 157.357057,187.531226 L157.605985,187.537406 L192.518703,187.537406 C195.273241,187.537406 197.506234,185.2765 197.506234,182.487531 C197.506234,179.783076 195.406523,177.575165 192.767631,177.443836 L192.518703,177.437656 Z M250.124688,177.437656 L215.21197,177.437656 C212.457433,177.437656 210.224439,179.698562 210.224439,182.487531 C210.224439,185.191986 212.32415,187.399897 214.963042,187.531226 L215.21197,187.537406 L250.124688,187.537406 C252.879226,187.537406 255.112219,185.2765 255.112219,182.487531 C255.112219,179.783076 253.012508,177.575165 250.373616,177.443836 L250.124688,177.437656 Z M285,52.5 C293.284271,52.5 300,59.1989813 300,67.4625935 L300,89.9064838 L0,89.9064838 L0,67.4625935 C0,59.1989813 6.71572875,52.5 15,52.5 L285,52.5 Z" transform="translate(170 30)"/>
</svg>
