<svg width="512" height="512" viewBox="0 0 512 512" fill="none" xmlns="http://www.w3.org/2000/svg">
<path fill-rule="evenodd" clip-rule="evenodd" d="M137.333 279.111H373.778V233.778H137.333V279.111Z" fill="#000"/>
<path fill-rule="evenodd" clip-rule="evenodd" d="M91.9827 256C91.9827 273.665 77.6647 288 60 288C42.3008 288 28 273.665 28 256C28 238.335 42.3008 224 60 224C77.6647 224 91.9827 238.335 91.9827 256Z" fill="#000"/>
<path fill-rule="evenodd" clip-rule="evenodd" d="M483.111 256C483.111 273.665 468.776 288 451.128 288C433.446 288 419.111 273.665 419.111 256C419.111 238.335 433.446 224 451.128 224C468.776 224 483.111 238.335 483.111 256Z" fill="#000"/>
</svg>
