<?xml version="1.0" encoding="UTF-8" standalone="no"?>
<svg
   width="640"
   height="360"
   viewBox="0 0 640 360"
   version="1.1"
   id="svg1883"
   sodipodi:docname="provider-ingenico-white-640x360.svg"
   inkscape:version="1.1.2 (b8e25be8, 2022-02-05)"
   xmlns:inkscape="http://www.inkscape.org/namespaces/inkscape"
   xmlns:sodipodi="http://sodipodi.sourceforge.net/DTD/sodipodi-0.dtd"
   xmlns="http://www.w3.org/2000/svg"
   xmlns:svg="http://www.w3.org/2000/svg">
  <defs
     id="defs1887" />
  <sodipodi:namedview
     id="namedview1885"
     pagecolor="#ffffff"
     bordercolor="#666666"
     borderopacity="1.0"
     inkscape:pageshadow="2"
     inkscape:pageopacity="0.0"
     inkscape:pagecheckerboard="0"
     showgrid="false"
     inkscape:zoom="1.9203125"
     inkscape:cx="310.36615"
     inkscape:cy="180.17901"
     inkscape:window-width="2147"
     inkscape:window-height="1158"
     inkscape:window-x="2749"
     inkscape:window-y="336"
     inkscape:window-maximized="0"
     inkscape:current-layer="g1881" />
  <g
     fill="none"
     fill-rule="evenodd"
     transform="translate(80 80)"
     id="g1881">
    <path
       fill="#273674"
       fill-rule="nonzero"
       d="M316.755556 126.907071L311.866667 126.907071 311.866667 137.227071 316.755556 137.227071C320.484445 137.227071 322.2 136.204848 322.2 132.071515 322.2 128.138182 320.644444 126.907071 316.755556 126.907071M316.755556 141.760404L311.866667 141.760404 311.866667 152.227071 306.337778 152.227071 306.337778 122.182626 316.755556 122.182626C324.653332 122.182626 327.888888 125.302626 327.888888 132.107071 327.888888 138.364848 324.688889 141.760404 316.755556 141.760404M344.120001 141.604848C343.520001 141.324849 342.035555 140.924849 340.035556 140.924849 336.746666 140.924849 335.271111 142.240404 335.271111 144.693737 335.271111 147.498182 336.942223 148.493737 339.311112 148.493737 341.835556 148.493737 344.120001 146.889293 344.120001 145.133737L344.120001 141.604848zM344.844445 149.662626L344.720001 149.622626C343.239999 151.498182 340.795556 152.622626 337.906667 152.622626 333.422223 152.622626 330.462223 150.133737 330.462223 144.778182 330.462223 140.249293 333.502222 137.31596 339.111111 137.31596 341.000001 137.31596 342.755555 137.631515 344.120001 138.089293L344.120001 136.280404C344.120001 133.27596 342.675556 132.067071 339.071112 132.067071 336.475556 132.067071 334.582222 132.467071 332.382223 133.444848L331.942222 129.222626C334.306667 128.173737 336.986666 127.662626 339.995555 127.662626 346.724444 127.662626 349.168889 130.542626 349.168889 137.035959L349.168889 152.222626 345.275555 152.222626 344.844445 149.662626 344.844445 149.662626z"
       id="path1845"
       style="fill:#ffffff" />
    <path
       fill="#273674"
       d="M363.035555 152.262626L363.151111 151.907071 352.693333 128.093737 358.542223 128.093737 364.511112 144.120404 365.595556 147.178182 365.711112 147.178182 366.515555 144.040404 371.204444 128.093737 376.648889 128.093737 368.115556 152.302626C366.36 157.027071 363.795556 158.800404 359.982223 158.800404 358.582222 158.800404 357.222223 158.55596 356.057777 158.031515L356.493334 154.311515C357.377777 154.747071 358.226666 154.907071 359.106668 154.907071 360.831111 154.907071 362.111112 154.311515 363.035555 152.262626M407.377778 152.227071L407.377778 136.555959C407.377778 133.675959 405.782223 132.347071 403.133332 132.347071 400.808889 132.347071 399.048888 133.644849 399.048888 136.280404L399.048888 152.227071 393.96 152.227071 393.96 136.280404C393.96 133.440404 392.275556 132.311515 389.871111 132.311515 388.151112 132.311515 386.426666 133.200404 385.591111 134.511515L385.591111 152.227071 380.497778 152.218182 380.497778 128.218182 384.142222 127.982626 385.026668 130.378182C386.666666 128.71596 388.911111 127.707071 391.235555 127.707071 394.355555 127.707071 396.440001 128.831515 397.684444 131.155959 399.204445 128.79596 401.608889 127.707071 404.497778 127.707071 409.173334 127.707071 412.466666 130.587071 412.466666 136.480404L412.466666 152.227071 407.377778 152.227071"
       id="path1847"
       style="fill:#ffffff" />
    <path
       fill="#273674"
       fill-rule="nonzero"
       d="M432.057777,137.889293 C431.977778,133.644849 430.053334,132.031515 427.057778,132.031515 C423.568889,132.031515 422.084444,133.800404 421.844444,137.889293 L432.057777,137.889293 Z M416.675555,139.720404 C416.675555,132.07596 420.044444,127.707071 427.008888,127.707071 C432.937778,127.707071 436.746668,131.19596 436.746668,138.880404 C436.746668,139.63596 436.711111,140.604849 436.622223,141.324849 L421.964444,141.324849 C422.199999,146.369293 424.324444,148.133737 428.942223,148.133737 C431.297777,148.133737 433.386668,147.698182 435.426668,146.809293 L436.026668,151.013737 C433.982223,152.027071 431.337777,152.662626 428.333332,152.662626 C420.200001,152.662626 416.675555,148.373737 416.675555,139.720404 L416.675555,139.720404 Z"
       id="path1849"
       style="fill:#ffffff" />
    <path
       fill="#273674"
       d="M455.737778 152.227071L455.737778 136.63596C455.737778 133.600404 454.088889 132.311515 451.128888 132.311515 449.328888 132.311515 447.320001 133.111515 446.324444 134.511515L446.324444 152.227071 441.231111 152.227071 441.231111 128.218182 444.884444 127.938182 445.675556 130.262626C447.484444 128.591515 449.924444 127.662626 452.533333 127.662626 457.622223 127.662626 460.826666 130.747071 460.826666 136.604849L460.826666 152.227071 455.737778 152.227071M472.568889 132.031515L472.568889 145.458182C472.568889 147.578182 473.688888 148.453737 475.733332 148.453737 476.368889 148.453737 477.253333 148.333737 477.688889 148.173737L478.013332 151.987071C477.213334 152.342626 475.733332 152.622626 474.248889 152.622626 469.724444 152.622626 467.475556 150.022626 467.475556 145.573737L467.475556 132.031515 464.475556 132.031515 464.475556 128.098182 467.635556 128.098182 468.560001 122.458182 472.568889 122.062626 472.568889 128.098182 478.213333 128.098182 478.213333 132.031515 472.568889 132.031515M313.915556 197.778182C311.026667 197.778182 308.422222 197.164848 306.422223 195.969293L307.017777 191.635959C308.915555 192.889293 311.711112 193.529293 313.915556 193.529293 316.839999 193.529293 318.084445 192.200404 318.084445 190.440404 318.084445 185.871515 306.337778 188.231515 306.337778 179.907071 306.337778 175.698182 309.271111 172.778182 315.151111 172.782621 317.555555 172.782621 319.844444 173.253737 321.844444 174.133737L321.404444 178.382626C319.404445 177.547071 316.92 177.151515 315.080001 177.151515 312.675556 177.151515 311.231112 178.102626 311.231112 179.711515 311.231112 183.955959 322.813333 181.59596 322.813333 189.960404 322.813333 194.649293 320.16 197.778182 313.915556 197.778182"
       id="path1851"
       style="fill:#ffffff" />
    <path
       fill="#273674"
       fill-rule="nonzero"
       d="M341.315555,182.947071 C341.231112,178.698182 339.315556,177.107071 336.306668,177.107071 C332.822223,177.107071 331.337777,178.858182 331.097777,182.947071 L341.315555,182.947071 Z M325.933333,184.791515 C325.933333,177.151515 329.297777,172.778182 336.266666,172.778182 C342.204445,172.778182 345.999999,176.262626 345.999999,183.955959 C345.999999,184.711515 345.96,185.671515 345.879999,186.404849 L331.213333,186.404849 C331.457777,191.440404 333.586667,193.218182 338.186666,193.218182 C340.551111,193.218182 342.639999,192.760404 344.679999,191.889293 L345.284444,196.093737 C343.239999,197.089293 340.595555,197.733737 337.595555,197.733737 C329.457777,197.733737 325.933333,193.458182 325.933333,184.791515 L325.933333,184.791515 Z"
       id="path1853"
       style="fill:#ffffff" />
    <path
       fill="#273674"
       d="M350.493334,197.289293 L350.493334,173.338182 L354.582223,173.098182 L355.022223,177.627071 L355.137777,177.627071 C356.622223,174.502626 359.106668,172.822626 362.066666,172.822626 C363.071112,172.822626 363.955556,172.938182 364.591111,173.138182 L364.271112,178.302626 C363.515555,178.067071 362.631111,177.902626 361.751112,177.902626 C358.262223,177.902626 355.577777,180.627071 355.577777,185.151515 L355.577777,197.289293 L350.493334,197.289293"
       id="path1855"
       style="fill:#ffffff" />
    <polyline
       fill="#273674"
       points="390.596 173.174 381.613 197.289 375.649 197.289 366.676 173.174 372.289 173.174 377.658 189.676 378.613 192.76 378.738 192.76 379.658 189.676 385.027 173.174 390.596 173.174"
       id="polyline1857"
       style="fill:#ffffff" />
    <path
       fill="#273674"
       fill-rule="nonzero"
       d="M395.319999,197.289293 L395.319999,173.338182 L400.488888,173.062626 L400.488888,197.289293 L395.319999,197.289293 Z M397.933333,169.978182 C395.884445,169.978182 394.884445,169.373737 394.884445,167.609293 C394.884445,166.049293 395.884445,165.160404 397.933333,165.160404 C400.008888,165.160404 400.973332,166.049293 400.973332,167.609293 C400.973332,169.204848 400.008888,169.978182 397.933333,169.978182 L397.933333,169.978182 Z"
       id="path1859"
       style="fill:#ffffff" />
    <path
       fill="#273674"
       d="M422.164444,178.382626 C420.84,177.827071 419.240001,177.462626 417.715556,177.462626 C412.871112,177.462626 411.191112,179.631515 411.191112,185.19596 C411.191112,191.084849 413.471112,193.329293 417.595556,193.329293 C419.315555,193.329293 420.999999,192.924849 422.324444,192.209293 L422.684444,196.289293 C421.280001,197.209293 419.075555,197.818182 416.52,197.818182 C409.546667,197.818182 405.897777,193.813737 405.897777,185.19596 C405.897777,177.151515 409.142223,172.818182 416.635556,172.818182 C418.715555,172.818182 420.924445,173.258182 422.484445,173.893737 L422.164444,178.382626"
       id="path1861"
       style="fill:#ffffff" />
    <path
       fill="#273674"
       fill-rule="nonzero"
       d="M440.546666,182.947071 C440.466668,178.702626 438.542223,177.107071 435.537777,177.107071 C432.057777,177.107071 430.573333,178.858182 430.333333,182.947071 L440.546666,182.947071 Z M425.164444,184.791515 C425.164444,177.151515 428.524444,172.778182 435.497777,172.778182 C441.431112,172.778182 445.235555,176.262626 445.235555,183.955959 C445.235555,184.711515 445.191111,185.671515 445.111111,186.404849 L430.453333,186.404849 C430.688889,191.440404 432.813334,193.218182 437.422222,193.218182 C439.782223,193.218182 441.875555,192.760404 443.915555,191.889293 L444.506666,196.093737 C442.466666,197.089293 439.826666,197.733737 436.822222,197.733737 C428.684444,197.733737 425.164444,193.458182 425.164444,184.791515 L425.164444,184.791515 Z"
       id="path1863"
       style="fill:#ffffff" />
    <path
       fill="#273674"
       d="M456.128889,197.778182 C453.244444,197.778182 450.644444,197.164848 448.635556,195.969293 L449.235556,191.644848 C451.119999,192.889293 453.924445,193.529293 456.128889,193.529293 C459.048888,193.529293 460.284445,192.200404 460.284445,190.440404 C460.284445,185.871515 448.555556,188.240404 448.555556,179.911515 C448.555556,175.698182 451.479999,172.782626 457.368888,172.782626 C459.773332,172.782626 462.057777,173.262626 464.057777,174.133737 L463.617777,178.387071 C461.613334,177.547071 459.128889,177.151515 457.293334,177.151515 C454.888889,177.151515 453.435556,178.102626 453.435556,179.711515 C453.435556,183.955959 465.017777,181.59596 465.017777,189.960404 C465.017777,194.649293 462.373333,197.778182 456.128889,197.778182"
       id="path1865"
       style="fill:#ffffff" />
    <polygon
       fill="#3E4346"
       points="1.084 101.938 15.409 101.938 15.409 37.792 1.084 37.792"
       id="polygon1867"
       style="fill:#ffffff" />
    <polygon
       fill="#3E4346"
       points="33.431 15.889 288.324 15.889 288.324 4.24 33.431 4.24"
       id="polygon1869"
       style="fill:#ffffff" />
    <path
       fill="#3E4346"
       fill-rule="nonzero"
       d="M140.613333 50.2448485C138.208889 50.0137375 135.475556 49.5426262 131.315556 49.5426262 119.297778 49.5426262 114.48 58.3559596 114.48 70.3337374 114.48 85.6092929 120.604444 90.8937373 130.008889 90.8937373 134.271111 90.8937373 137.88 89.1292929 140.613333 87.7204041L140.613333 50.2448485zM127.164444 128.373737C118.088889 128.373737 109.782222 126.489293 104.64 124.964849L106.831111 112.747071C112.293333 114.03596 120.275556 115.213737 124.76 115.213737 134.271111 115.213737 140.72 113.573737 140.72 102.289293 140.937778 102.058182 140.72 99.1159595 140.72 98.7648484 137.768889 101.111515 133.613333 102.99596 129.244444 102.99596 115.577778 102.99596 100.266667 99.2359595 100.266667 70.2181817 100.266667 48.3648484 114.373333 36.7337374 131.431111 36.7337374 138.208889 36.7337374 145.64 37.6715151 154.937778 39.2092929L154.937778 103.933737C154.937778 121.907071 139.848889 128.373737 127.164444 128.373737L127.164444 128.373737zM196.044444 48.0137374C189.92 48.0137374 183.582222 52.480404 182.928889 63.2848486L206.76 63.2848486C206.871111 53.4226263 202.164444 48.0137374 196.044444 48.0137374M182.6 74.2092929C182.702222 88.1870708 190.804444 90.1915152 201.511111 90.1915152 205.666667 90.1915152 212.986667 89.6004041 217.693333 88.5515151L219.884444 100.529293C215.182222 102.169293 206.111111 102.99596 198.888889 102.99596 180.191111 102.99596 168.271111 96.0581819 168.271111 70.9248484 168.271111 44.8448485 180.524445 36.2626263 197.36 36.2626263 214.631111 36.2626263 221.631111 48.4804041 221.631111 68.5692929L221.631111 74.2092929 182.6 74.2092929"
       id="path1871"
       style="fill:#ffffff" />
    <polygon
       fill="#3E4346"
       points="306.356 101.938 320.68 101.938 320.68 37.792 306.356 37.792"
       id="polygon1873"
       style="fill:#ffffff" />
    <path
       fill="#3E4346"
       d="M379.071111,51.6581819 C375.137777,50.0137375 371.422222,48.8359595 365.408889,48.8359595 C356.222223,48.8359595 349.226666,54.4759595 349.226666,69.5159596 C349.226666,83.9692929 352.835555,90.4226263 368.577777,90.4226263 C373.497777,90.4226263 376.773334,89.4848485 380.711112,88.9026262 L382.68,100.880404 C377.977778,101.938182 374.044444,102.99596 367.595555,102.99596 C343.542223,102.99596 334.466666,93.249293 334.466666,69.280404 C334.466666,48.9559595 346.493332,36.1470707 365.408889,36.1470707 C373.933333,36.1470707 379.293334,37.9115151 383.226668,40.2626263 L379.071111,51.6581819"
       id="path1875"
       style="fill:#ffffff" />
    <path
       fill="#3E4346"
       fill-rule="nonzero"
       d="M420.080001,48.4848484 C408.377777,48.4848484 405.208889,58.8270707 405.208889,69.9826263 C405.208889,81.969293 408.808889,90.8937373 420.293332,90.8937373 C431.995556,90.8937373 434.835556,81.4981817 434.835556,69.8670707 C434.835556,58.9381817 431.995556,48.4848484 420.080001,48.4848484 M419.417777,103.347071 C401.048889,103.347071 390.773332,91.0181819 390.773332,70.4537374 C390.773332,48.8404041 402.688889,36.1470707 420.404444,36.1470707 C440.293333,36.1470707 449.591112,48.4848484 449.591112,69.8670707 C449.591112,91.9559596 436.693333,103.347071 419.417777,103.347071"
       id="path1877"
       style="fill:#ffffff" />
    <path
       fill="#3E4346"
       d="M16.4844444 10.0626263C16.4844444 14.6137374 12.7955556 18.3070707 8.24444444 18.3070707 3.68444444 18.3070707 0 14.6137374 0 10.0626263 0 5.51151515 3.68444444 1.81818181 8.24444444 1.81818181 12.7955556 1.81818181 16.4844444 5.51151515 16.4844444 10.0626263M321.755555 10.0626263C321.755555 14.6137374 318.062223 18.3070707 313.515556 18.3070707 308.960001 18.3070707 305.266667 14.6137374 305.266667 10.0626263 305.266667 5.51151515 308.960001 1.81818181 313.515556 1.81818181 318.062223 1.81818181 321.755555 5.51151515 321.755555 10.0626263M67.9066667 36.0315151C58.8355556 36.0315151 51.9422223 41.4315151 47.8977777 44.4892929L47.8977777 44.3604041C47.7555556 44.5115151 47.6088888 44.6715151 47.4666667 44.8226263 46.0577777 39.6537373 42.3555556 38.1604041 38.9866667 37.7915151L33.4666667 37.7915151 33.4666667 101.938182 47.8977777 101.938182 47.8977777 54.9426262C50.7466667 53.2981817 57.3022222 49.4181818 63.3155555 49.4181818 71.4044444 49.4181818 73.0444444 53.6537374 73.0444444 62.9292929L73.0444444 101.938182 87.3688889 101.938182 87.3688889 61.1692929C87.3688889 48.0137374 86.1688889 36.0315151 67.9066667 36.0315151M268.906667 36.0315151C259.835555 36.0315151 252.937778 41.4315151 248.897777 44.4892929L248.897777 44.3604041C248.751111 44.5115151 248.604445 44.6715151 248.462223 44.8226263 247.057778 39.6537373 243.351111 38.1604041 239.982223 37.7915151L234.466667 37.7915151 234.466667 101.938182 248.897777 101.938182 248.897777 54.9426262C251.737778 53.2981817 258.297777 49.4181818 264.315556 49.4181818 272.4 49.4181818 274.040001 53.6537374 274.040001 62.9292929L274.040001 101.938182 288.368889 101.938182 288.368889 61.1692929C288.368889 48.0137374 287.16 36.0315151 268.906667 36.0315151"
       id="path1879"
       style="fill:#ffffff" />
  </g>
</svg>
