<svg height="32" viewBox="0 0 51 32" width="51" xmlns="http://www.w3.org/2000/svg"><g fill="none" fill-rule="evenodd"><path d="m.5.5h50v31h-50z" fill="#fff" stroke="#d0d0d0"/><g fill-rule="nonzero" transform="translate(14 6.5)"><path d="m7.25948718 18.7511688v-1.2467532c.01451518-.2115644-.06156011-.4192228-.20880961-.5699756-.1472495-.1507529-.3514269-.2300151-.56042116-.2175569-.27613659-.0183381-.5402401.1170211-.68923077.3532468-.13583673-.2291825-.38455829-.3647261-.64820513-.3532468-.22955541-.0117554-.44808993.1005121-.57435897.295065v-.2451949h-.42666667v1.9844156h.43076923v-1.0992207c-.0193278-.1376964.0234232-.2769053.11645075-.3791953.09302756-.10229.2264925-.1568424.36354925-.148597.28307693 0 .42666667.187013.42666667.5236364v1.1033766h.43076923v-1.0992207c-.01779086-.1373833.02549153-.2756835.11817058-.3775903.09267904-.1019069.22520646-.1569214.36182942-.150202.29128205 0 .43076923.187013.43076923.5236364v1.1033766zm2.4-.9911688v-.9911688h-.43076923v.2410389c-.14677645-.191871-.37593569-.3002009-.61538462-.2909091-.56644589 0-1.02564102.4651587-1.02564102 1.0389611 0 .5738023.45919513 1.038961 1.02564102 1.038961.23944893.0092918.46860817-.099038.61538462-.2909091v.241039h.42666667zm-1.58564103 0c.01897334-.3260948.29178296-.5770164.61402883-.5647641.32224587.0122522.57571933.2831839.57050778.609802-.00521156.3266181-.26719638.58911-.58966481.5908063-.16509639.0039222-.32417898-.0628238-.4381868-.1838494-.11400783-.1210255-.17238134-.2851211-.16078756-.4519948zm10.70153845-1.038961c.1404667-.0003678.2797112.0264323.4102564.078961.1246074.0505493.2382079.1253839.334359.2202597.0949082.0940194.1702396.2063642.2215385.3303897.1071708.2664213.1071708.5647474 0 .8311688-.0512497.1240524-.1265874.2364067-.2215385.3303896-.0961511.0948759-.2097516.1697105-.334359.2202597-.2704904.1064704-.5705352.1064704-.8410256 0-.1240262-.0504991-.2369638-.1253562-.3323077-.2202597-.0940013-.0943512-.1686021-.2066463-.2194872-.3303896-.106953-.2664646-.106953-.5647043 0-.8311688.0508851-.1237434.1254859-.2360384.2194872-.3303897.0953439-.0949035.2082815-.1697606.3323077-.2202597.1352363-.0567839.280274-.0857443.4266667-.0852025zm0 .4155844c-.0835421-.0011543-.1664898.0143797-.2441025.0457143-.0731042.0296914-.1394259.0742443-.1948718.1309091-.0565637.0596525-.1005351.1303548-.1292308.2077922-.0626654.1659102-.0626654.3494144 0 .5153246.0286439.0774635.0726215.1481758.1292308.2077922.0554087.0567106.1217404.1012702.1948718.1309091.1562744.0619874.3298793.0619874.4861538 0 .0766282-.0286924.1464959-.0732807.2051282-.1309091.0567014-.0595433.1006918-.1302761.1292308-.2077922.0626654-.1659102.0626654-.3494144 0-.5153246-.028539-.0775161-.0725294-.1482489-.1292308-.2077922-.0586323-.0576284-.1285-.1022167-.2051282-.1309091-.0773812-.0358843-.1610858-.055669-.2461538-.0581819zm-6.7979487.6233766c0-.6233766-.3815385-1.038961-.9292308-1.038961-.5664458.0080332-1.0192122.4797041-1.011282 1.0535065.0079303.5738023.4735541 1.0324487 1.04 1.0244155.2920337.0101075.5775267-.0890048.8020513-.2784415l-.2051282-.32c-.1619771.1315904-.3626458.2047108-.5702565.2077922-.2932581.0255481-.5533168-.1899905-.5866666-.4862338h1.454359c.0061538-.051948.0061538-.1038961.0061538-.1620779zm-1.4584615-.1745455c.0164648-.2741299.2438226-.4860889.5148718-.48.1289442-.0027847.2536964.0464478.3467977.1368611s.1469209.2145968.1496125.3452169zm3.2533333-.3116883c-.1873294-.1092664-.3992332-.1679389-.6153846-.1703896-.2338462 0-.3733334.0872728-.3733334.2327273s.1476924.1703896.3323077.1953247l.2051282.0290909c.4266667.0623376.6851282.2451948.6851282.5942857s-.3282051.6483117-.8923076.6483117c-.3023346.0081467-.5992757-.0821654-.8471795-.2576624l.2051282-.3366233c.1882468.1414711.4180107.2146622.6523077.2077922.291282 0 .4471795-.0872728.4471795-.241039 0-.1122078-.1107693-.1745454-.3446154-.2077922l-.2051282-.0290909c-.4389744-.0623377-.6769231-.2618182-.6769231-.585974 0-.3948052.32-.6358442.8205128-.6358442.2801315-.0095076.5570734.0626103.7979487.2077922zm2.051282-.1122078h-.6953846v.8955845c0 .2077922.0697436.3324675.283077.3324675.133155-.004467.263016-.0430733.3774358-.1122078l.123077.3698701c-.1599369.1011071-.3448085.1544078-.5333334.153772-.5046153 0-.6810256-.2742915-.6810256-.7355902v-.9038961h-.3979487v-.3948052h.3979487v-.6025974h.4307692v.6025974h.6953846zm1.4748718-.4446753c.1034918.0004051.2061584.0186754.3035898.054026l-.1312821.4155844c-.0847819-.0342416-.1754038-.0511891-.2666666-.0498701-.2789744 0-.4102564.1828571-.4102564.5111688v1.1116883h-.4266667v-1.9844156h.4225641v.241039c.1066632-.1855993.3050087-.2972224.5169231-.2909091zm2.9497436 1.7454546c.0266693-.000331.0531464.0046097.0779487.0145454.0235575.009738.045121.0238306.0635898.0415585.0180244.0179161.0326282.0390496.0430769.0623376.0209972.0490488.0209972.1047175 0 .1537663-.0104487.023288-.0250525.0444215-.0430769.0623376-.0184688.0177279-.0400323.0318205-.0635898.0415585-.0245574.0109766-.0511068.0166386-.0779487.0166234-.0793744-.0006061-.1512794-.0475467-.1846154-.1205195-.020754-.0490996-.020754-.1046667 0-.1537663.0104487-.023288.0250525-.0444215.043077-.0623376.0184688-.0177279.0400322-.0318205.0635897-.0415585.0215882-.0086966.0444779-.0136151.0676923-.0145454zm0 .3511715c.0204738.0001233.0407437-.004125.0594872-.0124702.0176485-.0079819.0336542-.0192609.0471795-.0332468.0353214-.0360356.0508015-.0874128.0413649-.1372866-.0094366-.0498739-.0425729-.091812-.0885444-.112064-.018762-.0082865-.0390195-.0125321-.0594872-.0124683-.02045.0001102-.0406732.0043487-.0594872.0124683-.0184298.007655-.0351667.0189579-.0492307.0332467-.0531891.0587859-.0531891.1490063 0 .2077922.0286941.0294309.0678838.0459096.1087179.0457143zm.0123077-.2472754c.019149-.0009407.0380187.0049407.0533334.0166233.0127389.0106797.0196126.0269265.0184615.0436364.0005955.0139543-.0046132.0275221-.014359.0374026-.0118896.0109394-.0270571.0175242-.0430769.0187013l.0594872.0685714h-.0471795l-.0553846-.0685714h-.0184616v.0685714h-.0389743v-.1911688zm-.0451282.0353246v.0498702h.0451282c.0080305.0024253.0165849.0024253.0246154 0 .0029257-.0058815.0029257-.0128198 0-.0187013.0029257-.0058815.0029257-.0128198 0-.0187013-.0080305-.0024253-.0165849-.0024253-.0246154 0z" fill="#000"/><path d="m8.747 1.627h6.461v11.763h-6.461z" fill="#7673c0"/><path d="m9.15692308 7.50961039c-.00241587-2.29579382 1.03771152-4.46513366 2.82051282-5.8825974-3.02773532-2.41037885-7.37568466-2.05928633-9.98822608.80653918s-2.61254142 7.28421301 0 10.15003853c2.61254142 2.8658255 6.96049076 3.216918 9.98822608.8065392-1.7822341-1.4170138-2.82229799-3.58545488-2.82051282-5.88051951z" fill="#eb001b"/><path d="m23.2758974 12.3385786v-.3888888h.1325641v-.0833334h-.335641v.0833334h.1325641v.4027777zm.6515385 0v-.4861111h-.1015385l-.1184615.3472223-.1184615-.3472223h-.104359v.4861111h.0733333v-.3645833l.11.3159722h.0761539l.11-.3159722v.3680556zm-.0033333-4.82896821c-.0006829 2.86330761-1.6147976 5.47501631-4.1571402 6.72643611-2.5423427 1.2514198-5.566823.9229713-7.7895265-.8459166 1.7814565-1.4182168 2.8215986-3.58636959 2.8215986-5.88155847 0-2.29518889-1.0401421-4.46334168-2.8215986-5.88155844 2.2226851-1.77015997 5.2480184-2.09935323 7.7911293-.84777016s4.1575886 3.8642106 4.1575886 6.72828964z" fill="#00a1df"/></g></g></svg>