<svg xmlns="http://www.w3.org/2000/svg" width="512" height="512"><path fill="#f15a2b" d="M124.227 191.458a10.36 10.36 0 0 1-4.694 8.144l-20.444 11.78a10.69 10.69 0 0 1-9.513.062l-20.6-11.505a10.35 10.35 0 0 1-4.81-8.08L64 168.553a10.33 10.33 0 0 1 4.704-8.134l20.442-11.804a10.72 10.72 0 0 1 9.513-.061l20.59 11.517c2.815 1.784 4.606 4.778 4.819 8.07l.159 23.315z" style="stroke-width:2.55935" transform="translate(-484.634 -1160.528)scale(7.8696)"/><path fill="#fff" d="M88.34 174.602h27.052v-7.545H88.403a12.6 12.6 0 0 0-9.513 3.885c-5.886 6.227-6.045 21.885-6.045 21.885h42.337v-14.174h-7.61v6.609H80.964c.167-2.465 1.308-6.867 3.468-9.145a5.04 5.04 0 0 1 3.908-1.515" style="stroke-width:2.55935" transform="translate(-484.634 -1160.528)scale(7.8696)"/></svg>