<svg fill="none" height="24" viewBox="0 0 32 24" width="32" xmlns="http://www.w3.org/2000/svg" xmlns:xlink="http://www.w3.org/1999/xlink"><linearGradient id="a" gradientTransform="matrix(3.05290244 .86199764 -1.72119102 1.5289382 4.68887 -.877276)" gradientUnits="userSpaceOnUse" x2="1"><stop offset="0" stop-color="#e53121"/><stop offset="1" stop-color="#c22c1a"/></linearGradient><linearGradient id="b" gradientTransform="matrix(7.66132167 2.16319945 -4.31991067 3.83641425 3.26915 -4.42303)" gradientUnits="userSpaceOnUse" x2="1"><stop offset="0" stop-color="#dcdaee"/><stop offset="1" stop-color="#8f88c0"/></linearGradient><linearGradient id="c" gradientTransform="matrix(-4.06282845 -1.08862573 .63956421 -6.91548946 2.42131 9.288)" gradientUnits="userSpaceOnUse" x2="1"><stop offset="0" stop-color="#7b73b3"/><stop offset="1" stop-color="#c6c2e2"/></linearGradient><linearGradient id="d" gradientTransform="matrix(-3.66385497 -2.11529278 3.36696365 -2.30181456 .880808 5.12)" gradientUnits="userSpaceOnUse" x2="1"><stop offset="0" stop-color="#6c62a8"/><stop offset="1" stop-color="#cbcae6"/></linearGradient><linearGradient id="e" gradientTransform="matrix(2.18296657 3.78097724 -4.63362309 1.78127283 5.18352 -.984858)" gradientUnits="userSpaceOnUse" x2="1"><stop offset="0" stop-color="#e53121"/><stop offset="1" stop-color="#a62714"/></linearGradient><linearGradient id="f" gradientTransform="matrix(2.11543358 3.66403654 -2.08264447 3.72172307 2.87943 -2.87242)" gradientUnits="userSpaceOnUse" x2="1"><stop offset="0" stop-color="#e84d2c"/><stop offset="1" stop-color="#811f08"/></linearGradient><linearGradient id="g" gradientTransform="matrix(1.86664282 5.12849412 -6.2335033 1.53574423 7.82856 -2.24069)" gradientUnits="userSpaceOnUse" x2="1"><stop offset="0" stop-color="#f3f2f9"/><stop offset="1" stop-color="#bbb7db"/></linearGradient><linearGradient id="h" gradientTransform="matrix(.86683842 .35846331 -.04002559 7.76327853 -.198213 -2.6008)" gradientUnits="userSpaceOnUse" x2="1"><stop offset="0" stop-color="#fff"/><stop offset="1" stop-color="#bbb7db"/></linearGradient><linearGradient id="i" gradientTransform="matrix(5.06656715 1.43056696 -2.4352818 2.97627303 2.89249 -2.19439)" gradientUnits="userSpaceOnUse" x2="1"><stop offset="0" stop-color="#fff098"/><stop offset="1" stop-color="#ffd530"/></linearGradient><linearGradient id="j"><stop offset="0" stop-color="#f4a286"/><stop offset="1" stop-color="#e53121"/></linearGradient><linearGradient id="k" gradientTransform="matrix(4.56150846 1.66023816 -1.35476632 5.59003446 1.77827 -3.95166)" gradientUnits="userSpaceOnUse" x2="1" xlink:href="#j"/><linearGradient id="l" gradientTransform="matrix(3.78080347 -2.18282715 3.83997981 2.14918851 -3.09408 -.909316)" gradientUnits="userSpaceOnUse" x2="1" xlink:href="#j"/><linearGradient id="m" gradientTransform="matrix(3.83164831 1.08187624 -.89007352 4.65733357 .824208 -2.1689)" gradientUnits="userSpaceOnUse" x2="1"><stop offset="0" stop-color="#4464ac"/><stop offset="1" stop-color="#1d3584"/></linearGradient><linearGradient id="n" gradientTransform="matrix(4.1389 0 0 .462203 .050678 -1.50599)" gradientUnits="userSpaceOnUse" x2="1"><stop offset="0" stop-color="#4464ac"/><stop offset=".373" stop-color="#2f4b97"/><stop offset=".728" stop-color="#223b89"/><stop offset="1" stop-color="#1d3584"/></linearGradient><linearGradient id="o" gradientTransform="matrix(3.9315752 1.12736134 -1.79385224 2.47083109 1.26257 -2.61586)" gradientUnits="userSpaceOnUse" x2="1"><stop offset="0" stop-color="#5b62a2"/><stop offset=".152" stop-color="#4c579a"/><stop offset=".482" stop-color="#31438c"/><stop offset=".776" stop-color="#213783"/><stop offset="1" stop-color="#1b3380"/></linearGradient><linearGradient id="p" gradientTransform="matrix(.34937859 3.99302573 -4.89348361 .28508886 6.82925 -.290515)" gradientUnits="userSpaceOnUse" x2="1"><stop offset="0" stop-color="#fff"/><stop offset="1" stop-color="#dad8ed"/></linearGradient><linearGradient id="q" gradientTransform="matrix(2.89753135 .83084811 -.47235187 5.09664215 .16789 -2.55531)" gradientUnits="userSpaceOnUse" x2="1"><stop offset="0" stop-color="#fff"/><stop offset="1" stop-color="#d1cee8"/></linearGradient><linearGradient id="r" gradientTransform="matrix(5.3640026 1.51454252 -2.57847678 3.15070126 2.49046 -3.75189)" gradientUnits="userSpaceOnUse" x2="1"><stop offset="0" stop-color="#d1cee8"/><stop offset="1" stop-color="#7b73b3"/></linearGradient><linearGradient id="s" gradientTransform="matrix(2.46599587 4.27128953 -3.48554611 3.02190303 3.7928 -2.74123)" gradientUnits="userSpaceOnUse" x2="1"><stop offset="0" stop-color="#e53121"/><stop offset="1" stop-color="#b02916"/></linearGradient><linearGradient id="t" gradientTransform="matrix(3.78067622 -2.18279133 3.83832269 2.15000873 -3.05803 -.796701)" gradientUnits="userSpaceOnUse" x2="1"><stop offset="0" stop-color="#e53121"/><stop offset="1" stop-color="#9d2511"/></linearGradient><linearGradient id="u" gradientTransform="matrix(2.70143499 2.70142956 -2.22284762 3.28305741 4.14255 -.876757)" gradientUnits="userSpaceOnUse" x2="1"><stop offset="0" stop-color="#f5b0ac"/><stop offset="1" stop-color="#ef8495"/></linearGradient><linearGradient id="v" gradientTransform="matrix(4.13882 0 0 .462403 .052391 -1.5064)" gradientUnits="userSpaceOnUse" x2="1"><stop offset="0" stop-color="#f5b0ac"/><stop offset="1" stop-color="#ee788f"/></linearGradient><path d="m28 0h-24c-2.20914 0-4 1.79086-4 4v16c0 2.2091 1.79086 4 4 4h24c2.2091 0 4-1.7909 4-4v-16c0-2.20914-1.7909-4-4-4z" fill="#4858bb"/><path d="m8.00003 16.0001c4.41827 0 7.99997-3.5818 7.99997-8.00007 0-4.4183-3.5817-8.00003-7.99997-8.00003-4.4183 0-8.00003 3.58173-8.00003 8.00003 0 4.41827 3.58173 8.00007 8.00003 8.00007z" fill="#fff" transform="translate(7.99622 3.99615)"/><path d="m0 1.64505 2.96724-1.64505 4.7193 3.84953-7.68637597-2.20448" fill="url(#a)" transform="translate(15.9888 10.3436)"/><path d="m.0108643 0 4.7192957 3.84953-.46987-.24646-4.26029-3.474654z" fill="#e53121" transform="translate(18.945 10.3436)"/><path d="m0 1.64568 2.96724-1.64568-.01103.128466-2.678633 1.485264z" fill="#f08465" transform="translate(15.9888 10.3436)"/><path d="m7.6864 2.23642-7.6864-2.2044805.277413-.0319395 6.939097 1.98996z" fill="#b82b18" transform="translate(15.9888 11.9567)"/><path d="m0 7.6872 2.96724-1.64504-.76342-6.04216-2.20365597 7.6872" fill="#f5b0ac" transform="translate(15.9888 4.30151)"/><path d="m2.20365 0-2.20365 7.68687.17402-.21931 1.9893-6.939077z" fill="#d47785" transform="translate(15.9888 4.30182)"/><path d="m.804068 6.04216-.7637161-6.04216-.0403519.528812.689432 5.454408z" fill="#d99e9b" transform="translate(18.1521 4.30151)"/><path d="m0 1.70497 2.96724-1.6456782-.11459-.0592918-2.67863 1.48559z" fill="#f9d1cd" transform="translate(15.9888 10.2843)"/><path d="m3.8492.0111961-3.8492 4.7194739.246132-.47036 3.474648-4.26031z" fill="#f9f9fc" transform="translate(13.7843 14.9448)"/><path d="m0 0 1.64536 2.96741-.12848-.01119-1.4850931-2.678642z" fill="#f3f2f9" transform="translate(15.9888 11.9886)"/><path d="m0 7.68687 2.20448-7.68687.03177.277413-1.989953 6.939097z" fill="#dcdaee" transform="translate(13.7843 11.9886)"/><path d="m0 0 1.64472 2.96741 6.04182-.76293z" fill="#2b2b85" transform="translate(15.9888 11.9886)"/><path d="m7.68654 2.20448-7.68654-2.20448.218966.174021 6.939394 1.989309z" fill="#484293" transform="translate(15.9888 11.9886)"/><path d="m0 .804395 6.04182-.7632201-.52848-.0411749-5.4544029.689598z" fill="#24236f" transform="translate(17.6335 14.1519)"/><path d="m0 0 1.64536 2.96741.05895-.11475-1.485588-2.678639z" fill="#8f88c0" transform="translate(15.9888 11.9886)"/><path d="m7.68687 2.20448-2.96773 1.64472-4.71914-3.8492z" fill="url(#b)" transform="translate(8.30206 9.78412)"/><path d="m4.71914 3.8492-4.71914-3.8492.469872.245967 4.260788 3.475473z" fill="#bbb7db" transform="translate(8.30206 9.78412)"/><path d="m2.96773 0-2.96773 1.64536.0115242-.12782 2.6786358-1.4855881z" fill="#b0aad4" transform="translate(13.0211 11.9886)"/><path d="m0 0 7.68687 2.20448-.27772.03178-6.939114-1.990457z" fill="#d1cce6" transform="translate(8.30206 9.78412)"/><path d="m2.96773 0-2.96773 1.64472.763252 6.04215z" fill="#fd0" transform="translate(13.0211 11.9886)"/><path d="m0 7.68687 2.20448-7.68687-.17451.218966-1.9893044 6.938934z" fill="#dbbb85" transform="translate(13.7843 11.9886)"/><path d="m0 0 .763546 6.04216.040682-.52897-.689431-5.454086z" fill="#ebc536" transform="translate(13.0211 13.6333)"/><path d="m2.96773 0-2.96773 1.64536.114753.05928 2.678307-1.485589z" fill="#ffe167" transform="translate(13.0211 11.9886)"/><path d="m1.64538 7.68674-1.64538-2.96776 3.8492-4.71898-2.20382 7.68687" fill="#e53121" transform="translate(14.3434 4.302)"/><path d="m0 4.71898 3.8492-4.71898-.24581.470037-3.474645 4.260793z" fill="#ea583c" transform="translate(14.3434 4.302)"/><path d="m1.64601 2.96774-1.64601-2.96774.128466.0115242 1.485594 2.6786358z" fill="#d42f1e" transform="translate(14.3434 9.02087)"/><path d="m2.23559 0-2.2036505 7.68687-.0319395-.27772 1.98996-6.939113z" fill="#c22c1a" transform="translate(15.9568 4.30182)"/><path d="m7.687 2.96774-1.64534-2.96774-6.04166.763253 7.68687 2.204487" fill="#f3f2f9" transform="translate(8.30188 9.02087)"/><path d="m0 0 7.68687 2.20448-.21898-.17451-6.939409-1.9893053z" fill="#f9f8fb" transform="translate(8.30188 9.78412)"/><path d="m6.04166 0-6.04166.763546.528481.040682 5.454399-.689102z" fill="#dcdaee" transform="translate(8.30188 9.02087)"/><path d="m1.70481 2.96774-1.6460112-2.96774-.0587988.115246 1.48559 2.677814z" fill="#f9f9fc" transform="translate(14.2847 9.02087)"/><path d="m3.54956 2.13105c-.97454-1.01096-2.19914-1.746174-3.54956-2.13105l.763912 6.04183 2.785648-3.91094z" fill="url(#c)" transform="translate(18.1923 4.30164)"/><path d="m0 .00016451.763882 6.04183549.071148-.2845-.717762-5.7232555c-.0395283-.0115245-.0780669-.0230492-.11693612-.0342445z" fill="#8f88c0" transform="translate(18.1924 4.30164)"/><path d="m2.71058 0-2.6397888 3.70317-.0707912.28449 2.78614-3.9106093c-.02502-.0263421-.05005-.052026-.07573-.0770507z" fill="#a59fce" transform="translate(18.9559 6.3559)"/><path d="m3.54956 2.13105c-.97454-1.01096-2.19914-1.746174-3.54956-2.13105l.145372.266711c1.212668.381427 2.312688 1.055729 3.202838 1.963299l.20119-.09912z" fill="url(#d)" transform="translate(18.1923 4.30164)"/><path d="m0 3.91094 2.78598-3.91094c.97392 1.01094 1.66589 2.25948 2.00691 3.62118l-4.79256194.28976z" fill="url(#e)" transform="translate(18.9559 6.43262)"/><path d="m2.7863 0-2.7863 3.91062.216167-.1197 2.644713-3.7120592c-.02469-.0263422-.04939-.0526832-.07458-.07869581z" fill="#ed6f50" transform="translate(18.9559 6.43292)"/><path d="m4.76589 0-4.549888.276036-.216002.119903 4.79289-.289872c-.00872-.0354108-.01778-.0708212-.027-.106067z" fill="#a62714" transform="translate(18.9559 9.94775)"/><path d="m1.8138 3.52767c-.33124-1.22104-.953627-2.34355-1.8138-3.271329l.0510406-.256341c.9739694 1.01096 1.6660294 2.25948 2.0072494 3.62118l-.24465-.09335z" fill="url(#f)" transform="translate(21.6903 6.43262)"/><path d="m0 .289761 4.79306-.289761c.32992 1.31808.32762 2.73889-.07376 4.13929z" fill="url(#g)" transform="translate(18.9559 10.0538)"/><path d="m4.79289.00016499-4.79289.28987201.278894.089597 4.539516-.274225c-.00823-.035246-.01646-.0704926-.02535-.105409z" fill="#d1cee8" transform="translate(18.956 10.0536)"/><path d="m4.71914 3.84953c.01103-.03786.0214-.07573.03128-.11327l-4.471526-3.6466976-.278894-.0895624 4.7193 3.84953z" fill="#f3f2f9" transform="translate(18.956 10.3436)"/><path d="m0 3.87884c.3294-1.27297.32281-2.55846.033432-3.75915l.190557-.11969c.330059 1.31808.327753 2.73823-.073785 4.13929z" fill="url(#h)" transform="translate(23.525 10.0538)"/><path d="m2.13089 0c-.9786.943369-1.729342 2.14884-2.13089 3.54907l6.04166-.76325-3.91094-2.78565549z" fill="url(#i)" transform="translate(8.30188 6.23523)"/><path d="m0 .834534 6.04166-.7637122-.28482-.0708218-5.7227614.718091c-.0115246.038868-.023048.077408-.0340786.116443z" fill="#ffcb00" transform="translate(8.30188 8.94989)"/><path d="m0 .0752392 3.70317 2.6396208.28481.07079-3.9101077-2.78565c-.0263421.0250247-.0518598.0498848-.0778723.0754037z" fill="#fd0" transform="translate(10.3556 6.23505)"/><path d="m2.13039 0c-1.01064.974482-1.745615 2.19889-2.13039 3.54907l.266216-.14455c.381482-1.21259 1.055774-2.31255 1.963284-3.202676z" fill="#fff8c7" transform="translate(8.30206 6.23523)"/><path d="m3.91077 4.79257-3.91077-2.78565c1.01086-.97386 2.25927-1.665819 3.62084-2.00692l.28977 4.79257z" fill="url(#k)" transform="translate(10.4326 4.22839)"/><path d="m0 2.00692 3.91012 2.78565-.11937-.21534-3.7122187-2.64506c-.0266714.0247-.0526833.04939-.0785313.07475zm3.51466-1.9795901.27626 4.5499001.11935.21534-.28975-4.79257-.1057.0271654z" fill="#e53121" transform="translate(10.4335 4.22839)"/><path d="m3.52849.24465c-1.22149.330981-2.34444.95338-3.272481 1.8138l-.256009-.05153c1.01103-.97381 2.25953-1.66575 3.62118-2.00692l-.09286.244814z" fill="url(#l)" transform="translate(10.4323 4.22839)"/><path d="m.289761 5.03086-.289761-4.792571c1.31841-.3300961 2.73856-.3279561 4.13895.073758z" fill="url(#m)" transform="translate(14.0536 3.98999)"/><path d="m0 .0253539.289872 4.7925661.089926-.27889-.27439-4.53903c-.0350813.00823185-.0704916.0164637-.105408.0251894z" fill="#1e398e" transform="translate(14.0535 4.20282)"/><path d="m3.84903.0312805c-.03743-.0106222-.07491-.0210489-.11244-.0312805l-3.6466986 4.47153-.0898914.27873 3.8492-4.718815z" fill="#2f2482" transform="translate(14.3434 4.27051)"/><path d="m3.87899.462209c-1.27329-.3294-2.55844-.322813-3.7593-.033435l-.11969-.190393c1.31874-.3302232 2.73856-.3280829 4.13895.073785l-.25979.149878z" fill="url(#n)" transform="translate(14.0536 3.98999)"/><path d="m0 3.91094c.974342 1.01092 2.1987 1.74618 3.5489 2.13122l-.76326-6.04216z" fill="#2b2b85" transform="translate(10.2354 13.6333)"/><path d="m.834368 6.04216-.7635472-6.04216-.0708208.284821.717765 5.723089c.039034.01186.077735.02306.116603.03425z" fill="#24236f" transform="translate(12.9503 13.6333)"/><path d="m.0754032 3.98783 2.6391168-3.703009.07112-.284821-2.78564 3.91094.0752392.07689z" fill="#5b549f" transform="translate(10.2354 13.6333)"/><path d="m0 .0991135c.974428 1.0108065 2.19875 1.7460565 3.5489 2.1312165l-.14488-.26671c-1.21263-.38168-2.31262-1.056066-3.202835-1.96362z" fill="url(#o)" transform="translate(10.2354 17.4455)"/><path d="m4.79289 0-2.78564 3.91094c-.97386-1.01084-1.665921-2.25918-2.00725-3.620686l4.79289-.29008901z" fill="url(#p)" transform="translate(8.22827 13.6333)"/><path d="m.0750742 3.91078 2.7856458-3.91078-.21567.119526-2.64505 3.712554c.0246954.02635.0498852.05268.0750742.07903z" fill="#b0aad4" transform="translate(10.1603 13.6334)"/><path d="m.0273304.395443 4.5495596-.276035.21568-.119408-4.79257.289871c.00856109.035905.0177815.070822.0273304.105738z" fill="#dad8ed" transform="translate(8.22858 13.6334)"/><path d="m.244814.0933485c.331146 1.2211815.953536 2.3438215 1.813796 3.2716615l-.05136.25601c-.97384-1.01099-1.665888-2.25943-2.00725-3.62102l.244814.0931845z" fill="url(#q)" transform="translate(8.22827 13.9236)"/><path d="m5.03093 3.84904-4.792888.29025c-.3297665-1.31841-.3276254-2.73889.073758-4.13929l4.71913 3.8492z" fill="#e53121" transform="translate(7.99011 9.78424)"/><path d="m.0250244.37914 4.7928956-.2898713-.2789-.0892687-4.53902.27439c.00790252.035081.0164633.069833.0250244.104914z" fill="#ca2d0a" transform="translate(8.20325 13.5441)"/><path d="m.311911 0c-.010537.0378664-.021403.0754027-.031282.112775l4.471521 3.647195.2789.0894-4.719139-3.84920597zm.150147.260126c-.329272 1.273304-.322686 2.558454-.033584 3.759634l-.190321.11969c-.34082-1.36201-.3154293-2.78992.073594-4.13895695l.150476.25963295z" fill="#ed6f50" transform="translate(7.98999 9.78412)"/><path d="m3.91093 3.54874c1.01079-.97429 1.74589-2.19861 2.13072-3.54874l-6.04165.762926 3.91093 2.785654z" fill="url(#r)" transform="translate(17.6335 14.1929)"/><path d="m6.04166 0-6.04166.763386.284492.070821 5.722758-.717599c.01153-.0388694.02305-.0777389.03424-.116608z" fill="#7b73b3" transform="translate(17.6337 14.1931)"/><path d="m3.98782 2.71041-3.703001-2.6396159-.284819-.0707941 3.91093 2.78631c.02552-.02502.05104-.05071.07689-.07573z" fill="#d1cee8" transform="translate(17.6335 14.956)"/><path d="m.0992756 3.54956c.9786044-.94337 1.7293344-2.14933 2.1307244-3.54956l-.26621.144881c-.38161 1.212649-1.056081 2.312619-1.96379 3.202679l.0992756.20217z" fill="#655ea5" transform="translate(21.4452 14.1927)"/><path d="m0 0 3.91093 2.78565c-1.011.97365-2.25936 1.66558-3.620843 2.00692z" fill="url(#s)" transform="translate(17.6335 14.956)"/><path d="m3.91077 2.78631-3.91077-2.78631.11969.215673 3.71189 2.645217c.02667-.0242.05318-.04939.07935-.07441zm-3.515316 1.97926-.275764-4.549733-.11969-.21567297.289759 4.79256597c.035561-.00889.070792-.0181.105695-.02716z" fill="#e53121" transform="translate(17.6335 14.956)"/><path d="m.0933495 1.81364c1.2211805-.33105 2.3438305-.953394 3.2716605-1.81364l.25583.0521908c-1.01118.9734192-2.25947 1.6653092-3.62084 2.0069192l.0933495-.24531z" fill="url(#t)" transform="translate(17.9236 17.6901)"/><path d="m3.84936 0 .29009 4.79257c-1.31841.32977-2.73889.32763-4.13945-.0731l3.8492-4.71947z" fill="url(#u)" transform="translate(13.7841 14.956)"/><path d="m.379797 4.79257-.2898712-4.79257-.0899258.278565.275047 4.539355c.034587-.00822.069668-.01712.10475-.02535z" fill="#f5b0ac" transform="translate(17.5436 14.9563)"/><path d="m.00016403 4.71947.11294197.03129 3.646694-4.472031.08973-.278729-3.84953 4.71947z" fill="#fad9d5" transform="translate(13.7841 14.956)"/><path d="m.259302 0c1.273468.3294 2.558778.322812 3.759468.0337639l.11986.1905571c-1.36193.340705-2.78967.315306-4.13863-.073621l.259466-.15053406z" fill="url(#v)" transform="translate(13.7852 19.525)"/></svg>