<?xml version="1.0" encoding="UTF-8" standalone="no"?>
<svg
   enable-background="new 0 0 283.6 97.3"
   height="512"
   viewBox="0 0 511.99999 511.99998"
   width="512"
   version="1.1"
   id="svg123"
   sodipodi:docname="ideal-issuer-sns-icon-512x512.svg"
   inkscape:version="1.3.2 (091e20e, 2023-11-25)"
   xmlns:inkscape="http://www.inkscape.org/namespaces/inkscape"
   xmlns:sodipodi="http://sodipodi.sourceforge.net/DTD/sodipodi-0.dtd"
   xmlns:xlink="http://www.w3.org/1999/xlink"
   xmlns="http://www.w3.org/2000/svg"
   xmlns:svg="http://www.w3.org/2000/svg">
  <defs
     id="defs123" />
  <sodipodi:namedview
     id="namedview123"
     pagecolor="#ffffff"
     bordercolor="#666666"
     borderopacity="1.0"
     inkscape:showpageshadow="2"
     inkscape:pageopacity="0.0"
     inkscape:pagecheckerboard="true"
     inkscape:deskcolor="#d1d1d1"
     inkscape:zoom="2.2778561"
     inkscape:cx="187.45697"
     inkscape:cy="388.30372"
     inkscape:window-width="1408"
     inkscape:window-height="860"
     inkscape:window-x="2099"
     inkscape:window-y="417"
     inkscape:window-maximized="0"
     inkscape:current-layer="svg123" />
  <linearGradient
     id="a"
     gradientTransform="matrix(0.085,0.024,0.024,-0.085,-344.7707,-947.4034)"
     gradientUnits="userSpaceOnUse"
     x1="7571.7637"
     x2="7789.9204"
     y1="-9561.6777"
     y2="-9561.6777">
    <stop
       offset="0"
       stop-color="#e53121"
       id="stop1" />
    <stop
       offset="1"
       stop-color="#c22c1a"
       id="stop2" />
  </linearGradient>
  <linearGradient
     id="b"
     gradientTransform="matrix(0.085,0.024,0.024,-0.085,-344.7707,-947.4034)"
     gradientUnits="userSpaceOnUse"
     x1="6827.9185"
     x2="7375.3877"
     y1="-9723.6826"
     y2="-9723.6826">
    <stop
       offset="0"
       stop-color="#dcdaee"
       id="stop3" />
    <stop
       offset="1"
       stop-color="#8f88c0"
       id="stop4" />
  </linearGradient>
  <linearGradient
     id="c"
     gradientTransform="matrix(1,0,0,-1,0,204.0042)"
     gradientUnits="userSpaceOnUse"
     x1="81.970299"
     x2="57.292599"
     y1="178.8549"
     y2="185.4671">
    <stop
       offset="0"
       stop-color="#7b73b3"
       id="stop5" />
    <stop
       offset="1"
       stop-color="#c6c2e2"
       id="stop6" />
  </linearGradient>
  <linearGradient
     id="d"
     gradientTransform="matrix(1,0,0,-1,0,204.0042)"
     gradientUnits="userSpaceOnUse"
     x1="84.107697"
     x2="61.8536"
     y1="189.15891"
     y2="202.00729">
    <stop
       offset="0"
       stop-color="#6c62a8"
       id="stop7" />
    <stop
       offset="1"
       stop-color="#cbcae6"
       id="stop8" />
  </linearGradient>
  <linearGradient
     id="e"
     gradientTransform="matrix(1,0,0,-1,0,204.0042)"
     gradientUnits="userSpaceOnUse"
     x1="72.6064"
     x2="85.8657"
     y1="183.02"
     y2="160.0544">
    <stop
       offset="0"
       stop-color="#e53121"
       id="stop9" />
    <stop
       offset="1"
       stop-color="#a62714"
       id="stop10" />
  </linearGradient>
  <linearGradient
     id="f"
     gradientTransform="matrix(1,0,0,-1,0,204.0042)"
     gradientUnits="userSpaceOnUse"
     x1="83.632004"
     x2="96.481102"
     y1="188.97549"
     y2="166.7202">
    <stop
       offset="0"
       stop-color="#e84d2c"
       id="stop11" />
    <stop
       offset="1"
       stop-color="#811f08"
       id="stop12" />
  </linearGradient>
  <linearGradient
     id="g"
     gradientTransform="matrix(1,0,0,-1,0,204.0042)"
     gradientUnits="userSpaceOnUse"
     x1="79.713303"
     x2="91.051201"
     y1="170.35651"
     y2="139.20599">
    <stop
       offset="0"
       stop-color="#f3f2f9"
       id="stop13" />
    <stop
       offset="1"
       stop-color="#bbb7db"
       id="stop14" />
  </linearGradient>
  <linearGradient
     id="h"
     gradientTransform="matrix(1,0,0,-1,0,204.0042)"
     gradientUnits="userSpaceOnUse"
     x1="91.4851"
     x2="99.0783"
     y1="155.6973"
     y2="153.52">
    <stop
       offset="0"
       stop-color="#fff"
       id="stop15" />
    <stop
       offset="1"
       stop-color="#bbb7db"
       id="stop16" />
  </linearGradient>
  <linearGradient
     id="i"
     gradientTransform="matrix(0.085,0.024,0.024,-0.085,-344.7707,-947.4034)"
     gradientUnits="userSpaceOnUse"
     x1="6832.6362"
     x2="7194.6875"
     y1="-9503.3711"
     y2="-9503.3711">
    <stop
       offset="0"
       stop-color="#fff098"
       id="stop17" />
    <stop
       offset="1"
       stop-color="#ffd530"
       id="stop18" />
  </linearGradient>
  <linearGradient
     id="j">
    <stop
       offset="0"
       stop-color="#f4a286"
       id="stop19" />
    <stop
       offset="1"
       stop-color="#e53121"
       id="stop20" />
  </linearGradient>
  <linearGradient
     id="k"
     gradientTransform="matrix(1,0,0,-1,0,204.0042)"
     gradientUnits="userSpaceOnUse"
     x1="16.545799"
     x2="44.2523"
     xlink:href="#j"
     y1="195.62131"
     y2="185.537" />
  <linearGradient
     id="l"
     gradientTransform="matrix(1,0,0,-1,0,204.0042)"
     gradientUnits="userSpaceOnUse"
     x1="14.4116"
     x2="37.376202"
     xlink:href="#j"
     y1="189.96651"
     y2="203.22501" />
  <linearGradient
     id="m"
     gradientTransform="matrix(0.085,0.024,0.024,-0.085,-344.7707,-947.4034)"
     gradientUnits="userSpaceOnUse"
     x1="7101.7871"
     x2="7375.5923"
     y1="-9285.1172"
     y2="-9285.1172">
    <stop
       offset="0"
       stop-color="#4464ac"
       id="stop21" />
    <stop
       offset="1"
       stop-color="#1d3584"
       id="stop22" />
  </linearGradient>
  <linearGradient
     id="n"
     gradientTransform="matrix(1,0,0,-1,0,204.0042)"
     gradientUnits="userSpaceOnUse"
     x1="37.209499"
     x2="62.349499"
     y1="202.5775"
     y2="202.5775">
    <stop
       offset="0"
       stop-color="#4464ac"
       id="stop23" />
    <stop
       offset=".373"
       stop-color="#2f4b97"
       id="stop24" />
    <stop
       offset=".728"
       stop-color="#223b89"
       id="stop25" />
    <stop
       offset="1"
       stop-color="#1d3584"
       id="stop26" />
  </linearGradient>
  <linearGradient
     id="o"
     gradientTransform="matrix(1,0,0,-1,0,204.0042)"
     gradientUnits="userSpaceOnUse"
     x1="12.6121"
     x2="36.4925"
     y1="118.9978"
     y2="112.1503">
    <stop
       offset="0"
       stop-color="#5b62a2"
       id="stop27" />
    <stop
       offset=".152"
       stop-color="#4c579a"
       id="stop28" />
    <stop
       offset=".482"
       stop-color="#31438c"
       id="stop29" />
    <stop
       offset=".776"
       stop-color="#213783"
       id="stop30" />
    <stop
       offset="1"
       stop-color="#1b3380"
       id="stop31" />
  </linearGradient>
  <linearGradient
     id="p"
     gradientTransform="matrix(1,0,0,-1,0,204.0042)"
     gradientUnits="userSpaceOnUse"
     x1="16.043699"
     x2="18.1658"
     y1="145.1815"
     y2="120.9279">
    <stop
       offset="0"
       stop-color="#fff"
       id="stop32" />
    <stop
       offset="1"
       stop-color="#dad8ed"
       id="stop33" />
  </linearGradient>
  <linearGradient
     id="q"
     gradientTransform="matrix(1,0,0,-1,0,204.0042)"
     gradientUnits="userSpaceOnUse"
     x1="-1.3397"
     x2="16.259899"
     y1="135.1021"
     y2="130.0555">
    <stop
       offset="0"
       stop-color="#fff"
       id="stop34" />
    <stop
       offset="1"
       stop-color="#d1cee8"
       id="stop35" />
  </linearGradient>
  <linearGradient
     id="r"
     gradientTransform="matrix(0.085,0.024,0.024,-0.085,-344.7707,-947.4034)"
     gradientUnits="userSpaceOnUse"
     x1="7540.1182"
     x2="7923.4233"
     y1="-9782.8418"
     y2="-9782.8418">
    <stop
       offset="0"
       stop-color="#d1cee8"
       id="stop36" />
    <stop
       offset="1"
       stop-color="#7b73b3"
       id="stop37" />
  </linearGradient>
  <linearGradient
     id="s"
     gradientTransform="matrix(1,0,0,-1,0,204.0042)"
     gradientUnits="userSpaceOnUse"
     x1="58.191601"
     x2="73.170097"
     y1="137.3284"
     y2="111.3846">
    <stop
       offset="0"
       stop-color="#e53121"
       id="stop38" />
    <stop
       offset="1"
       stop-color="#b02916"
       id="stop39" />
  </linearGradient>
  <linearGradient
     id="t"
     gradientTransform="matrix(1,0,0,-1,0,204.0042)"
     gradientUnits="userSpaceOnUse"
     x1="60.139599"
     x2="83.103401"
     y1="107.4924"
     y2="120.7506">
    <stop
       offset="0"
       stop-color="#e53121"
       id="stop40" />
    <stop
       offset="1"
       stop-color="#9d2511"
       id="stop41" />
  </linearGradient>
  <linearGradient
     id="u"
     gradientTransform="matrix(1,0,0,-1,0,204.0042)"
     gradientUnits="userSpaceOnUse"
     x1="45.511299"
     x2="61.9198"
     y1="124.4972"
     y2="108.0888">
    <stop
       offset="0"
       stop-color="#f5b0ac"
       id="stop42" />
    <stop
       offset="1"
       stop-color="#ef8495"
       id="stop43" />
  </linearGradient>
  <linearGradient
     id="v"
     gradientTransform="matrix(1,0,0,-1,0,204.0042)"
     gradientUnits="userSpaceOnUse"
     x1="35.588902"
     x2="60.726898"
     y1="108.122"
     y2="108.122">
    <stop
       offset="0"
       stop-color="#f5b0ac"
       id="stop44" />
    <stop
       offset="1"
       stop-color="#ee788f"
       id="stop45" />
  </linearGradient>
  <g
     id="g123"
     transform="matrix(5.2614771,0,0,5.2614771,-0.22275753,-0.24511222)">
    <path
       d="M 97,48.7 C 97,75.4 75.4,97 48.7,97 22,97 0.4,75.4 0.4,48.7 0.4,22 22,0.4 48.7,0.4 75.4,0.4 97,22.1 97,48.7 Z"
       fill="#ffffff"
       id="path45" />
    <circle
       cx="48.700001"
       cy="48.700001"
       fill="#ffffff"
       r="48.5"
       id="circle45" />
    <path
       d="m 48.7,48.7 18,-10 28.7,23.4 z"
       fill="url(#a)"
       id="path46"
       style="fill:url(#a)" />
    <path
       d="M 66.7,38.7 95.4,62.1 92.5,60.6 66.6,39.5 Z"
       fill="#e53121"
       id="path47" />
    <path
       d="m 48.7,48.7 18,-10 -0.1,0.8 -16.3,9 z"
       fill="#f08465"
       id="path48" />
    <path
       d="M 95.4,62.1 48.7,48.7 50.4,48.5 92.5,60.6 Z"
       fill="#b82b18"
       id="path49" />
    <path
       d="m 48.7,48.7 18,-10 L 62.1,2 Z"
       fill="#f5b0ac"
       id="path50" />
    <path
       d="M 62.1,2 48.7,48.7 49.8,47.4 61.9,5.3 Z"
       fill="#d47785"
       id="path51" />
    <path
       d="M 66.7,38.7 62.1,2 61.9,5.2 66.1,38.3 Z"
       fill="#d99e9b"
       id="path52" />
    <path
       d="m 48.7,48.7 18,-10 -0.7,-0.4 -16.3,9 z"
       fill="#f9d1cd"
       id="path53" />
    <path
       d="m 48.7,48.7 10,18 -23.4,28.7 z"
       fill="none"
       id="path54" />
    <path
       d="M 58.7,66.7 35.3,95.4 36.8,92.5 57.9,66.6 Z"
       fill="#f9f9fc"
       id="path55" />
    <path
       d="m 48.7,48.7 10,18 -0.8,-0.1 -9,-16.3 z"
       fill="#f3f2f9"
       id="path56" />
    <path
       d="M 35.3,95.4 48.7,48.7 48.9,50.4 36.8,92.5 Z"
       fill="#dcdaee"
       id="path57" />
    <path
       d="m 48.7,48.7 10,18 36.7,-4.6 z"
       fill="#2b2b85"
       id="path58" />
    <path
       d="M 95.4,62.1 48.7,48.7 50,49.8 92.2,61.9 Z"
       fill="#484293"
       id="path59" />
    <path
       d="M 58.7,66.7 95.4,62.1 92.2,61.9 59.1,66.1 Z"
       fill="#24236f"
       id="path60" />
    <path
       d="m 48.7,48.7 10,18 0.4,-0.7 -9,-16.3 z"
       fill="#8f88c0"
       id="path61" />
    <path
       d="m 48.7,48.7 -18,10 L 2,35.3 Z"
       fill="url(#b)"
       id="path62"
       style="fill:url(#b)" />
    <path
       d="M 30.7,58.7 2,35.3 4.9,36.8 30.8,57.9 Z"
       fill="#bbb7db"
       id="path63" />
    <path
       d="m 48.7,48.7 -18,10 0.1,-0.8 16.3,-9 z"
       fill="#b0aad4"
       id="path64" />
    <path
       d="M 2,35.3 48.7,48.7 47,48.9 4.9,36.8 Z"
       fill="#d1cce6"
       id="path65" />
    <path
       d="m 48.7,48.7 -18,10 4.6,36.7 z"
       fill="#ffdd00"
       id="path66" />
    <path
       d="M 35.3,95.4 48.7,48.7 47.6,50 35.5,92.1 Z"
       fill="#dbbb85"
       id="path67" />
    <path
       d="m 30.7,58.7 4.6,36.7 0.2,-3.2 -4.2,-33.1 z"
       fill="#ebc536"
       id="path68" />
    <path
       d="m 48.7,48.7 -18,10 0.7,0.4 16.3,-9 z"
       fill="#ffe167"
       id="path69" />
    <path
       d="M 48.7,48.7 38.7,30.7 62.1,2 Z"
       fill="#e53121"
       id="path70" />
    <path
       d="M 38.7,30.7 62.1,2 60.6,4.9 39.5,30.8 Z"
       fill="#ea583c"
       id="path71" />
    <path
       d="m 48.7,48.7 -10,-18 0.8,0.1 9,16.3 z"
       fill="#d42f1e"
       id="path72" />
    <path
       d="M 62.1,2 48.7,48.7 48.5,47 60.6,4.9 Z"
       fill="#c22c1a"
       id="path73" />
    <path
       d="M 48.7,48.7 38.7,30.7 2,35.3 Z"
       fill="#f3f2f9"
       id="path74" />
    <path
       d="M 2,35.3 48.7,48.7 47.4,47.6 5.2,35.6 Z"
       fill="#f9f8fb"
       id="path75" />
    <path
       d="M 38.7,30.7 2,35.3 5.2,35.5 38.3,31.3 Z"
       fill="#dcdaee"
       id="path76" />
    <path
       d="m 48.7,48.7 -10,-18 -0.4,0.7 9,16.3 z"
       fill="#f9f9fc"
       id="path77" />
    <path
       d="M 83.6,15 C 77.7,8.9 70.2,4.4 62,2.1 l 4.6,36.7 z"
       fill="url(#c)"
       id="path78"
       style="fill:url(#c)" />
    <path
       d="M 62.1,2 66.7,38.7 67.1,37 62.7,2.2 C 62.6,2.2 62.3,2.1 62.1,2 Z"
       fill="#8f88c0"
       id="path79" />
    <path
       d="M 83.2,14.5 67.2,37 66.8,38.7 83.7,14.9 c -0.2,-0.1 -0.4,-0.2 -0.5,-0.4 z"
       fill="#a59fce"
       id="path80" />
    <path
       d="M 83.6,15 C 77.7,8.9 70.2,4.4 62,2.1 l 0.9,1.6 c 7.4,2.3 14,6.4 19.5,11.9 z"
       fill="url(#d)"
       id="path81"
       style="fill:url(#d)" />
    <path
       d="M 66.7,38.7 83.6,14.9 c 5.9,6.1 10.1,13.7 12.2,22 z"
       fill="url(#e)"
       id="path82"
       style="fill:url(#e)" />
    <path
       d="M 83.6,15 66.7,38.8 68,38.1 84.1,15.6 C 83.9,15.3 83.8,15.1 83.6,15 Z"
       fill="#ed6f50"
       id="path83" />
    <path
       d="M 95.7,36.3 68.1,38 66.8,38.7 95.9,36.9 c -0.1,-0.1 -0.2,-0.4 -0.2,-0.6 z"
       fill="#a62714"
       id="path84" />
    <path
       d="M 94.3,36.4 C 92.3,29 88.5,22.2 83.3,16.5 l 0.3,-1.6 c 5.9,6.1 10.1,13.7 12.2,22 z"
       fill="url(#f)"
       id="path85"
       style="fill:url(#f)" />
    <path
       d="m 66.7,38.7 29.1,-1.8 c 2,8 2,16.6 -0.4,25.1 z"
       fill="url(#g)"
       id="path86"
       style="fill:url(#g)" />
    <path
       d="M 95.8,37 66.7,38.8 68.4,39.3 96,37.6 C 95.9,37.4 95.9,37.2 95.8,37 Z"
       fill="#d1cee8"
       id="path87" />
    <path
       d="m 95.4,62.1 c 0.1,-0.2 0.1,-0.5 0.2,-0.7 L 68.4,39.2 66.7,38.7 Z"
       fill="#f3f2f9"
       id="path88" />
    <path
       d="m 94.5,60.5 c 2,-7.7 2,-15.5 0.2,-22.8 L 95.9,37 c 2,8 2,16.6 -0.4,25.1 z"
       fill="url(#h)"
       id="path89"
       style="fill:url(#h)" />
    <path
       d="M 14.9,13.8 C 9,19.5 4.4,26.8 2,35.3 l 36.7,-4.6 z"
       fill="url(#i)"
       id="path90"
       style="fill:url(#i)" />
    <path
       d="M 2,35.3 38.7,30.7 37,30.3 2.2,34.7 C 2.1,34.9 2.1,35.1 2,35.3 Z"
       fill="#ffcb00"
       id="path91" />
    <path
       d="M 14.5,14.2 37,30.2 38.7,30.6 15,13.8 c -0.2,0.1 -0.4,0.3 -0.5,0.4 z"
       fill="#ffdd00"
       id="path92" />
    <path
       d="M 14.9,13.8 C 8.8,19.7 4.3,27.2 2,35.4 L 3.6,34.5 C 5.9,27.1 10,20.5 15.5,15 c 0.1,0 -0.6,-1.2 -0.6,-1.2 z"
       fill="#fff8c7"
       id="path93" />
    <path
       d="M 38.7,30.7 14.9,13.8 C 21,7.9 28.6,3.7 36.9,1.6 Z"
       fill="url(#k)"
       id="path94"
       style="fill:url(#k)" />
    <path
       d="M 15,13.8 38.8,30.7 38.1,29.4 15.4,13.3 c -0.1,0.2 -0.3,0.3 -0.4,0.5 z M 36.3,1.7 38,29.3 38.7,30.6 36.9,1.5 Z"
       fill="#e53121"
       id="path95" />
    <path
       d="M 36.4,3.1 C 29,5.1 22.2,8.9 16.5,14.1 L 14.9,13.8 C 21,7.9 28.6,3.7 36.9,1.6 Z"
       fill="url(#l)"
       id="path96"
       style="fill:url(#l)" />
    <path
       d="M 38.7,30.7 36.9,1.6 c 8,-2 16.6,-2 25.1,0.4 z"
       fill="url(#m)"
       id="path97"
       style="fill:url(#m)" />
    <path
       d="M 36.9,1.6 38.7,30.7 39.2,29 37.5,1.4 c -0.1,0.1 -0.3,0.1 -0.6,0.2 z"
       fill="#1e398e"
       id="path98" />
    <path
       d="M 62.1,2 C 61.9,1.9 61.6,1.9 61.4,1.8 L 39.3,29 38.8,30.7 Z"
       fill="#2f2482"
       id="path99" />
    <path
       d="M 60.5,2.9 C 52.8,0.9 45,0.9 37.7,2.7 L 37,1.5 c 8,-2 16.6,-2 25.1,0.4 z"
       fill="url(#n)"
       id="path100"
       style="fill:url(#n)" />
    <path
       d="m 13.8,82.5 c 5.9,6.1 13.4,10.6 21.6,12.9 L 30.8,58.7 Z"
       fill="#2b2b85"
       id="path101" />
    <path
       d="m 35.3,95.4 -4.6,-36.7 -0.4,1.7 4.4,34.8 c 0.1,0.1 0.4,0.1 0.6,0.2 z"
       fill="#24236f"
       id="path102" />
    <path
       d="m 14.2,82.9 16,-22.5 0.4,-1.7 -16.9,23.8 z"
       fill="#5b549f"
       id="path103" />
    <path
       d="m 13.8,82.5 c 5.9,6.1 13.4,10.6 21.6,12.9 L 34.5,93.8 C 27.1,91.5 20.5,87.4 15,81.9 Z"
       fill="url(#o)"
       id="path104"
       style="fill:url(#o)" />
    <path
       d="M 30.7,58.7 13.8,82.5 C 7.9,76.4 3.7,68.8 1.6,60.5 Z"
       fill="url(#p)"
       id="path105"
       style="fill:url(#p)" />
    <path
       d="M 13.8,82.5 30.7,58.7 29.4,59.4 13.3,82 Z"
       fill="#b0aad4"
       id="path106" />
    <path
       d="m 1.7,61.1 27.6,-1.7 1.3,-0.7 -29.1,1.8 c 0.1,0.2 0.2,0.4 0.2,0.6 z"
       fill="#dad8ed"
       id="path107" />
    <path
       d="m 3,61 c 2,7.4 5.8,14.2 11,19.9 l -0.3,1.6 C 7.8,76.4 3.6,68.8 1.5,60.5 Z"
       fill="url(#q)"
       id="path108"
       style="fill:url(#q)" />
    <path
       d="M 30.7,58.7 1.6,60.5 c -2,-8 -2,-16.6 0.4,-25.1 z"
       fill="#e53121"
       id="path109" />
    <path
       d="M 1.6,60.5 30.7,58.7 29,58.2 1.4,59.8 c 0.1,0.2 0.1,0.5 0.2,0.7 z"
       fill="#ca2d0a"
       id="path110" />
    <path
       d="M 2,35.3 C 1.9,35.5 1.9,35.8 1.8,36 l 27.2,22.2 1.7,0.5 z m 0.9,1.6 c -2,7.7 -2,15.5 -0.2,22.8 L 1.5,60.4 C -0.6,52.1 -0.4,43.5 1.9,35.3 Z"
       fill="#ed6f50"
       id="path111" />
    <path
       d="M 82.4,83.7 C 88.5,77.8 93,70.3 95.3,62.1 l -36.7,4.6 z"
       fill="url(#r)"
       id="path112"
       style="fill:url(#r)" />
    <path
       d="m 95.4,62.1 -36.7,4.6 1.7,0.4 34.8,-4.4 c 0,-0.1 0.1,-0.4 0.2,-0.6 z"
       fill="#7b73b3"
       id="path113" />
    <path
       d="m 82.9,83.2 -22.5,-16 -1.7,-0.4 23.8,16.9 c 0.1,-0.2 0.3,-0.3 0.4,-0.5 z"
       fill="#d1cee8"
       id="path114" />
    <path
       d="M 82.4,83.7 C 88.3,78 92.9,70.6 95.3,62.1 L 93.7,63 c -2.3,7.4 -6.4,14 -11.9,19.5 z"
       fill="#655ea5"
       id="path115" />
    <path
       d="m 58.7,66.7 23.8,16.9 c -6.1,5.9 -13.7,10.1 -22,12.2 0,0.1 -1.8,-29.1 -1.8,-29.1 z"
       fill="url(#s)"
       id="path116"
       style="fill:url(#s)" />
    <path
       d="m 82.4,83.7 -23.8,-16.9 0.7,1.3 22.5,16.1 c 0.3,-0.2 0.5,-0.4 0.6,-0.5 z m -21.3,12 -1.7,-27.6 -0.7,-1.3 1.8,29.1 c 0.2,-0.1 0.4,-0.2 0.6,-0.2 z"
       fill="#e53121"
       id="path117" />
    <path
       d="m 61,94.4 c 7.4,-2 14.2,-5.8 19.9,-11 l 1.6,0.3 c -6.1,5.9 -13.7,10.1 -22,12.2 z"
       fill="url(#t)"
       id="path118"
       style="fill:url(#t)" />
    <path
       d="m 58.7,66.7 1.8,29.1 c -8,2 -16.6,2 -25.1,-0.4 z"
       fill="url(#u)"
       id="path119"
       style="fill:url(#u)" />
    <path
       d="m 60.4,95.9 -1.8,-29.1 -0.5,1.7 1.7,27.6 C 60,96 60.2,95.9 60.4,95.9 Z"
       fill="#f5b0ac"
       id="path120" />
    <path
       d="M 35.3,95.4 36,95.6 58.2,68.4 58.7,66.7 Z"
       fill="#fad9d5"
       id="path121" />
    <path
       d="m 36.9,94.5 c 7.7,2 15.5,2 22.8,0.2 l 0.7,1.2 C 52.1,98 43.5,97.8 35.3,95.5 Z"
       fill="url(#v)"
       id="path122"
       style="fill:url(#v)" />
  </g>
</svg>
