<svg xmlns="http://www.w3.org/2000/svg" width="640" height="360" viewBox="0 0 640 360">
  <path fill="#2C3341" d="M201.902577,221.6885 C202.652926,223.323181 203.076368,225.012646 203.137072,226.742162 L203.144671,227.175367 L203.144671,232.986241 C203.144671,247.783263 176.702858,259.778126 144.086514,259.778126 C111.795832,259.778126 85.5578003,248.021961 85.0362687,233.429302 L85.0283566,232.986241 L85.0283566,227.175873 C85.0283566,225.296123 85.4575723,223.460923 86.2704501,221.689007 C91.8522789,233.853467 115.615543,242.993013 144.086514,242.993013 C172.557485,242.993013 196.320749,233.852961 201.902577,221.6885 Z M1.24204207,205.529265 C6.82363942,217.693726 30.5859186,226.833778 59.0557092,226.833778 C64.3612852,226.833778 69.4988442,226.511189 74.3897705,225.915461 L75.5140319,225.773159 L75.5140319,232.888164 C75.5140319,236.138872 76.264116,239.276683 77.7182264,242.251984 C71.851678,243.137942 65.5782015,243.618891 59.0557092,243.618891 C26.7663659,243.618891 0.529421747,231.862726 0.00791179835,217.269575 L0,216.826499 L0,211.016132 C0,209.135369 0.429197911,207.300676 1.24204207,205.529265 Z M295.098414,138.809554 C297.610176,138.809554 300.013553,139.83278 301.754477,141.643342 L337.422215,178.737788 C340.859262,182.312317 340.859262,187.963382 337.422215,191.53791 L301.754477,228.632357 C298.219821,232.3084 292.374395,232.423016 288.698353,228.88836 C286.887792,227.147435 285.864565,224.744059 285.864565,222.232296 L285.864565,202.451163 L225.844549,202.451316 C219.894883,202.451316 215.071725,197.628158 215.071725,191.678492 L215.071725,178.98195 C215.071725,173.032284 219.894883,168.209127 225.844549,168.209127 L285.864565,168.208974 L285.864565,148.043403 C285.864565,142.943689 289.9987,138.809554 295.098414,138.809554 Z M201.902577,191.678492 C202.652926,193.313173 203.076368,195.002638 203.137072,196.732154 L203.144671,197.165359 L203.144671,202.976233 C203.144671,217.773255 176.702858,229.768118 144.086514,229.768118 C111.795832,229.768118 85.5578003,218.011953 85.0362687,203.419293 L85.0283566,202.976233 L85.0283566,197.165359 C85.0283566,195.284596 85.4575723,193.450409 86.2704501,191.678492 C91.8522789,203.842953 115.615543,212.983005 144.086514,212.983005 C172.557485,212.983005 196.320749,203.842447 201.902577,191.678492 Z M1.24032709,175.904001 C6.81421753,188.068461 30.5436864,197.208514 58.9741667,197.208514 C64.2724169,197.208514 69.4028821,196.885924 74.2870551,196.290197 L75.4097642,196.147895 L75.4097642,212.938577 C70.1922025,213.624562 64.6784583,213.993627 58.9741667,213.993627 C26.7294076,213.993627 0.528690736,202.237461 0.00790087395,187.644802 L0,187.201741 L0,181.391373 C0,179.51061 0.428605286,177.675917 1.24032709,175.904001 Z M201.902577,160.129509 C202.652926,161.764636 203.076368,163.453683 203.137072,165.18351 L203.144671,165.616809 L203.144671,171.427099 C203.144671,186.224432 176.702858,198.219135 144.086514,198.219135 C111.795832,198.219135 85.5578003,186.463126 85.0362687,171.870169 L85.0283566,171.427099 L85.0283566,165.616809 C85.0283566,163.735565 85.4575723,161.900896 86.2704501,160.129509 C91.8522789,172.293808 115.615543,181.433739 144.086514,181.433739 C172.557485,181.433739 196.320749,172.294315 201.902577,160.129509 Z M58.9741667,124.733089 C64.2710089,124.733089 69.4039883,125.050542 74.2873137,125.644201 L75.4097642,125.786084 L75.4097642,182.930118 C70.1922025,183.615449 64.6784583,183.983618 58.9741667,183.983618 C26.7294076,183.983618 0.528690736,172.254989 0.00790087395,157.698207 L0,157.256236 L0,151.459967 C0,136.698848 26.403703,124.733089 58.9741667,124.733089 Z M201.902577,130.504245 C202.652926,132.139393 203.076368,133.828462 203.137072,135.558313 L203.144671,135.991617 L203.144671,141.801985 C203.144671,156.599008 176.702858,168.593871 144.086514,168.593871 C111.795832,168.593871 85.5578003,156.837705 85.0362687,142.245046 L85.0283566,141.801985 L85.0283566,135.991617 C85.0283566,134.110348 85.4575723,132.275655 86.2704501,130.504245 C91.8522789,142.669212 115.615543,151.808758 144.086514,151.808758 C172.557485,151.808758 196.320749,142.669212 201.902577,130.504245 Z M144.086514,79.3333333 C176.376694,79.3333333 202.615217,91.0610732 203.136759,105.618449 L203.144671,106.060438 L203.144671,111.856757 C203.144671,126.618002 176.702858,138.583862 144.086514,138.583862 C111.795832,138.583862 85.5578003,126.856123 85.0362687,112.298747 L85.0283566,111.856757 L85.0283566,106.060438 C85.0283566,91.2991938 111.469663,79.3333333 144.086514,79.3333333 Z" transform="translate(150 10)"/>
</svg>
