<svg height="360" viewBox="0 0 640 360" width="640" xmlns="http://www.w3.org/2000/svg"><g fill="none" transform="translate(80 16)"><path d="m29.3356167 0h421.3287663c10.200633 0 13.899629 1.06276192 17.628828 3.05840663s6.655896 4.92417221 8.650294 8.65570337c1.994397 3.7315312 3.056495 7.4328405 3.056495 17.6398529v268.7339351c0 10.207012-1.062098 13.908321-3.056495 17.639852-1.994398 3.731532-4.921095 6.660059-8.650294 8.655704s-7.428195 3.058406-17.628828 3.058406h-421.3287663c-10.200633 0-13.899629-1.062761-17.628828-3.058406-3.72919897-1.995645-6.65589615-4.924172-8.65029358-8.655704-1.99439743-3.731531-3.05649512-7.43284-3.05649512-17.639852v-268.7339351c0-10.2070124 1.06209769-13.9083217 3.05649512-17.6398529 1.99439743-3.73153116 4.92109461-6.66005866 8.65029358-8.65570337 3.729199-1.99564471 7.428195-3.05840663 17.628828-3.05840663z" fill="#2c3341"/><g fill="#fff" transform="translate(74.419 59.535)"><path d="m6.62790698 208.372093c-3.66049195 0-6.62790698-3.331834-6.62790698-7.44186s2.96741503-7.441861 6.62790698-7.441861h198.83720902c3.660492 0 6.627907 3.331835 6.627907 7.441861s-2.967415 7.44186-6.627907 7.44186zm34.30232562-39.335548c0 7.339332-5.8307103 13.289036-13.0232559 13.289036-7.1925455 0-13.0232558-5.949704-13.0232558-13.289036v-66.445183c0-7.3393321 5.8307103-13.2890364 13.0232558-13.2890364 7.1925456 0 13.0232559 5.9497043 13.0232559 13.2890364zm52.0930232 0c0 7.339332-5.8307102 13.289036-13.0232558 13.289036s-13.0232558-5.949704-13.0232558-13.289036v-66.445183c0-7.3393321 5.8307102-13.2890364 13.0232558-13.2890364s13.0232558 5.9497043 13.0232558 13.2890364zm52.0930232 0c0 7.339332-5.83071 13.289036-13.023256 13.289036-7.192545 0-13.023256-5.949704-13.023256-13.289036v-66.445183c0-7.3393321 5.830711-13.2890364 13.023256-13.2890364 7.192546 0 13.023256 5.9497043 13.023256 13.2890364zm52.093023 0c0 7.339332-5.83071 13.289036-13.023255 13.289036-7.192546 0-13.023256-5.949704-13.023256-13.289036v-66.445183c0-7.3393321 5.83071-13.2890364 13.023256-13.2890364 7.192545 0 13.023255 5.9497043 13.023255 13.2890364zm-190.56994537-90.8970101c-6.55694869 0-9.13178898-8.5353521-3.6760779-12.1858506l94.81205767-63.44017659c5.0086206-3.35134361 11.5337296-3.35134361 16.5423506 0l94.812058 63.44017659c5.455711 3.6504985 2.88087 12.1858506-3.676078 12.1858506z" transform="translate(119.07)"/><g transform="translate(0 55.814)"><path d="m44.6511628 70.6976744-.0001628 14.8836282 37.2094651.0000927c4.1100261 0 7.4418605 3.3318345 7.4418605 7.4418605 0 4.1100261-3.3318344 7.4418602-7.4418605 7.4418602l-37.2094651-.000813.0001628 14.884534c0 6.13243-7.0010325 9.632947-11.9069768 5.953489l-29.76744181-22.3255818c-3.96899225-2.9767442-3.96899225-8.9302326 0-11.9069768l29.76744181-22.3255814c4.9059443-3.6794581 11.9069768-.1789419 11.9069768 5.9534884z"/><path d="m44.6511628 11.1627907-.0001628 14.8836282 37.2094651.0000927c4.1100261 0 7.4418605 3.3318344 7.4418605 7.4418605 0 4.110026-3.3318344 7.4418605-7.4418605 7.4418605l-37.2094651-.0008137.0001628 14.8845346c0 6.1324303-7.0010325 9.6329465-11.9069768 5.9534884l-29.76744181-22.3255814c-3.96899225-2.9767442-3.96899225-8.9302326 0-11.9069768l29.76744181-22.32558137c4.9059443-3.67945817 11.9069768-.17894191 11.9069768 5.95348837z" transform="matrix(-1 0 0 1 89.302 0)"/></g></g></g></svg>