<svg height="32" viewBox="0 0 51 32" width="51" xmlns="http://www.w3.org/2000/svg"><g fill="none" fill-rule="evenodd"><path d="m.5.5h50v31h-50z" fill="#fff" stroke="#d0d0d0"/><g fill-rule="nonzero" transform="translate(14 7.8)"><path d="m1.46678084 0h21.06643836c.5100316 0 .6949814.0531381.8814414.15292033.1864599.09978224.3327948.24620861.4325146.43278517.0997199.18657656.1528248.37164203.1528248.88199265v13.43669675c0 .5103506-.0531049.6954161-.1528248.8819926-.0997198.1865766-.2460547.333003-.4325146.4327852-.18646.0997822-.3714098.1529203-.8814414.1529203h-21.06643836c-.51003166 0-.69498146-.0531381-.8814414-.1529203-.18645995-.0997822-.33279481-.2462086-.43251468-.4327852-.09971988-.1865765-.15282476-.371642-.15282476-.8819926v-13.43669675c0-.51035062.05310488-.69541609.15282476-.88199265.09971987-.18657656.24605473-.33300293.43251468-.43278517.18645994-.09978223.37140974-.15292033.8814414-.15292033z" fill="#2c3341"/><g fill="#fff" transform="translate(3.72 2.977)"><path d="m.33139535 10.4186047c-.1830246 0-.33139535-.1665918-.33139535-.3720931 0-.20550127.14837075-.372093.33139535-.372093h9.94186045c.1830246 0 .3313954.16659173.3313954.372093 0 .2055013-.1483708.3720931-.3313954.3720931zm1.71511628-1.96677746c0 .36696661-.29153551.66445183-.65116279.66445183s-.65116279-.29748522-.65116279-.66445183v-3.32225913c0-.36696661.29153551-.66445183.65116279-.66445183s.65116279.29748522.65116279.66445183zm2.60465116 0c0 .36696661-.29153551.66445183-.65116279.66445183s-.65116279-.29748522-.65116279-.66445183v-3.32225913c0-.36696661.29153551-.66445183.65116279-.66445183s.65116279.29748522.65116279.66445183zm2.60465116 0c0 .36696661-.29153551.66445183-.65116279.66445183s-.65116279-.29748522-.65116279-.66445183v-3.32225913c0-.36696661.29153551-.66445183.65116279-.66445183s.65116279.29748522.65116279.66445183zm2.60465117 0c0 .36696661-.29153552.66445183-.65116279.66445183-.35962728 0-.6511628-.29748522-.6511628-.66445183v-3.32225913c0-.36696661.29153552-.66445183.6511628-.66445183.35962727 0 .65116279.29748522.65116279.66445183zm-9.52849729-4.5448505c-.32784743 0-.45658945-.4267676-.18380389-.60929252l4.74060288-3.17200883c.25043103-.16756719.57668649-.16756719.82711752 0l4.74060286 3.17200883c.2727856.18252492.1440436.60929252-.1838039.60929252z" transform="translate(5.953)"/><g transform="translate(0 2.79)"><path d="m2.23255814 3.53488372-.00055814.74323141 1.86102326.00095464c.2055013 0 .37209302.16659172.37209302.37209302s-.16659172.37209302-.37209302.37209302l-1.86102326-.00014068.00055814.74432673c0 .30662151-.35005163.48164733-.59534884.29767442l-1.48837209-1.11627907c-.19844961-.14883721-.19844961-.44651163 0-.59534884l1.48837209-1.11627907c.24529721-.18397291.59534884-.00894709.59534884.29767442z"/><path d="m2.23255814.55813954-.00055814.74323141 1.86102326.00095463c.2055013 0 .37209302.16659172.37209302.37209302 0 .20550131-.16659172.37209303-.37209302.37209303l-1.86102326-.00014068.00055814.74432672c0 .30662152-.35005163.48164733-.59534884.29767442l-1.48837209-1.11627907c-.19844961-.14883721-.19844961-.44651162 0-.59534883l1.48837209-1.11627907c.24529721-.18397291.59534884-.0089471.59534884.29767442z" transform="matrix(-1 0 0 1 4.465 0)"/></g></g></g></g></svg>