<svg height="360" viewBox="0 0 640 360" width="640" xmlns="http://www.w3.org/2000/svg"><path d="m201.902577 221.6885c.750349 1.634681 1.173791 3.324146 1.234495 5.053662l.007599.433205v5.810874c0 14.797022-26.441813 26.791885-59.058157 26.791885-32.290682 0-58.5287137-11.756165-59.0502453-26.348824l-.0079121-.443061v-5.810368c0-1.87975.4292157-3.71495 1.2420935-5.486866 5.5818288 12.16446 29.3450929 21.304006 57.8160639 21.304006s52.234235-9.140052 57.816063-21.304513zm-200.66053493-16.159235c5.58159735 12.164461 29.34387653 21.304513 57.81366713 21.304513 5.305576 0 10.443135-.322589 15.3340613-.918317l1.1242614-.142302v7.115005c0 3.250708.7500841 6.388519 2.2041945 9.36382-5.8665484.885958-12.1400249 1.366907-18.6625172 1.366907-32.2893433 0-58.52628745-11.756165-59.0477974-26.349316l-.0079118-.443076v-5.810367c0-1.880763.42919791-3.715456 1.24204207-5.486867zm293.85637193-66.719711c2.511762 0 4.915139 1.023226 6.656063 2.833788l35.667738 37.094446c3.437047 3.574529 3.437047 9.225594 0 12.800122l-35.667738 37.094447c-3.534656 3.676043-9.380082 3.790659-13.056124.256003-1.810561-1.740925-2.833788-4.144301-2.833788-6.656064v-19.781133l-60.020016.000153c-5.949666 0-10.772824-4.823158-10.772824-10.772824v-12.696542c0-5.949666 4.823158-10.772823 10.772824-10.772823l60.020016-.000153v-20.165571c0-5.099714 4.134135-9.233849 9.233849-9.233849zm-93.195837 52.868938c.750349 1.634681 1.173791 3.324146 1.234495 5.053662l.007599.433205v5.810874c0 14.797022-26.441813 26.791885-59.058157 26.791885-32.290682 0-58.5287137-11.756165-59.0502453-26.348825l-.0079121-.44306v-5.810874c0-1.880763.4292157-3.71495 1.2420935-5.486867 5.5818288 12.164461 29.3450929 21.304513 57.8160639 21.304513s52.234235-9.140558 57.816063-21.304513zm-200.66224991-15.774491c5.57389044 12.16446 29.30335931 21.304513 57.73383961 21.304513 5.2982502 0 10.4287154-.32259 15.3128884-.918317l1.1227091-.142302v16.790682c-5.2175617.685985-10.7313059 1.05505-16.4355975 1.05505-32.2447591 0-58.44547596-11.756166-58.96626583-26.348825l-.00790087-.443061v-5.810368c0-1.880763.42860529-3.715456 1.24032709-5.487372zm200.66224991-15.774492c.750349 1.635127 1.173791 3.324174 1.234495 5.054001l.007599.433299v5.81029c0 14.797333-26.441813 26.792036-59.058157 26.792036-32.290682 0-58.5287137-11.756009-59.0502453-26.348966l-.0079121-.44307v-5.81029c0-1.881244.4292157-3.715913 1.2420935-5.4873 5.5818288 12.164299 29.3450929 21.30423 57.8160639 21.30423s52.234235-9.139424 57.816063-21.30423zm-142.9284103-35.39642c5.2968422 0 10.4298216.317453 15.313147.911112l1.1224505.141883v57.144034c-5.2175617.685331-10.7313059 1.0535-16.4355975 1.0535-32.2447591 0-58.44547596-11.728629-58.96626583-26.285411l-.00790087-.441971v-5.796269c0-14.761119 26.403703-26.726878 58.9741667-26.726878zm142.9284103 5.771156c.750349 1.635148 1.173791 3.324217 1.234495 5.054068l.007599.433304v5.810368c0 14.797023-26.441813 26.791886-59.058157 26.791886-32.290682 0-58.5287137-11.756166-59.0502453-26.348825l-.0079121-.443061v-5.810368c0-1.881269.4292157-3.715962 1.2420935-5.487372 5.5818288 12.164967 29.3450929 21.304513 57.8160639 21.304513s52.234235-9.139546 57.816063-21.304513zm-57.816063-51.1709117c32.29018 0 58.528703 11.7277399 59.050245 26.2851157l.007912.441989v5.796319c0 14.761245-26.441813 26.727105-59.058157 26.727105-32.290682 0-58.5287137-11.727739-59.0502453-26.285115l-.0079121-.44199v-5.796319c0-14.7612442 26.4413064-26.7271047 59.0581574-26.7271047z" fill="#2c3341" transform="translate(150 10)"/></svg>