<svg fill="none" height="32" viewBox="0 0 51 32" width="51" xmlns="http://www.w3.org/2000/svg" xmlns:xlink="http://www.w3.org/1999/xlink"><clipPath id="a"><path d="m0 0h51v32h-51z"/></clipPath><g clip-path="url(#a)"><path clip-rule="evenodd" d="m.5.5h50v31h-50z" fill="#fff" fill-rule="evenodd" stroke="#d0d0d0"/><path d="m25.4588 5.11117c.3437-.14823.739-.14823 1.0828 0l9.625 4.12512c.6015.25825.9367.90281.8035 1.53871-.1289.6402-.6918 1.0613-1.3836 1.1v.3438c0 .5714-.4211 1.0312-1.0313 1.0312h-17.1875c-.531 0-1.0312-.4598-1.0312-1.0312v-.3438c-.614-.0387-1.177-.4598-1.3083-1.1-.1312-.6359.2052-1.28046.8051-1.53871zm.5414 5.38883c.7605 0 1.375-.61445 1.375-1.375 0-.75925-.6145-1.375-1.375-1.375-.7606 0-1.375.61575-1.375 1.375 0 .76055.6144 1.375 1.375 1.375zm-5.5387 12.375h1.7187v-8.25h2.75v8.25h2.1012v-8.25h2.75v8.25h1.7188v-8.25h2.75v8.4348c.0257.0129.0515-.0086.0773.0472l2.0625 1.375c.5027.3352.7262.9625.55 1.5426s-.709.9754-1.3148.9754h-19.2887c-.5672 0-1.1018-.3953-1.2774-.9754s.0491-1.2074.5534-1.5426l2.0625-1.375c.0245-.0558.0498-.0343.0365-.0472v-8.4348h2.75z" fill="#000"/></g></svg>