<svg xmlns="http://www.w3.org/2000/svg" width="51" height="32" viewBox="0 0 51 32">
  <g fill="none" fill-rule="evenodd">
    <rect width="50" height="31" x=".5" y=".5" fill="#FFF" stroke="#D0D0D0"/>
    <path fill="#2C3341" fill-rule="nonzero" d="M17.8149333,19.56075 C17.8687267,19.6779422 17.903478,19.7983255 17.9174916,19.9212027 L17.9245298,20.0448853 L17.9245298,20.5576095 C17.9245298,21.8632291 15.5914286,22.9215994 12.7135159,22.9215994 C9.92276937,22.9215994 7.64439978,21.9264009 7.50887945,20.6755985 L7.50250205,20.5576095 L7.50250205,20.04493 C7.50250205,19.8790696 7.54037402,19.7171403 7.61209854,19.5607947 C8.10461284,20.6341295 10.2013714,21.44056 12.7135159,21.44056 C15.2256604,21.44056 17.322419,20.6340848 17.8149333,19.56075 Z M0.109591947,18.1349352 C0.602085831,19.2082699 2.69875752,20.0147451 5.21079787,20.0147451 C5.58891019,20.0147451 5.95735114,19.9961763 6.31246573,19.9613378 L6.66300282,19.9211611 L6.66300282,20.5489557 C6.66300282,20.8357828 6.72918671,21.1126485 6.85749056,21.3751751 C6.33985395,21.4533478 5.7863119,21.4957845 5.21079787,21.4957845 C2.420167,21.4957845 0.14189185,20.500586 0.00637713046,19.2497429 L0,19.1317499 L0,18.6190704 C0,18.4531208 0.0378704039,18.2912361 0.109591947,18.1349352 Z M26.0380954,12.2479018 C26.2597215,12.2479018 26.4717841,12.3381865 26.6253951,12.4979419 L29.7725484,15.7709813 C30.0758172,16.0863809 30.0758172,16.5850043 29.7725484,16.9004039 L26.6253951,20.1734433 C26.3135137,20.4978 25.7977408,20.5079132 25.4733841,20.1960317 C25.3136287,20.0424208 25.223344,19.8303581 25.223344,19.608732 L25.223344,17.8633379 L19.9274602,17.8633514 C19.4024897,17.8633514 18.976917,17.4377787 18.976917,16.9128081 L18.976917,15.792525 C18.976917,15.2675545 19.4024897,14.8419818 19.9274602,14.8419818 L25.223344,14.8419683 L25.223344,13.0626532 C25.223344,12.6126784 25.5881206,12.2479018 26.0380954,12.2479018 Z M17.8149333,16.9128081 C17.8687267,17.0300003 17.903478,17.1503836 17.9174916,17.2732608 L17.9245298,17.3969434 L17.9245298,17.9096676 C17.9245298,19.2152872 15.5914286,20.2736575 12.7135159,20.2736575 C9.92276937,20.2736575 7.64439978,19.278459 7.50887945,18.0276566 L7.50250205,17.9096676 L7.50250205,17.3969434 C7.50250205,17.2309937 7.54037402,17.0691537 7.61209854,16.9128081 C8.10461284,17.9861429 10.2013714,18.7926181 12.7135159,18.7926181 C15.2256604,18.7926181 17.322419,17.9860982 17.8149333,16.9128081 Z M0.109440626,15.5209412 C0.601254488,16.594276 2.69503115,17.4007512 5.20360294,17.4007512 C5.58119317,17.4007512 5.9491254,17.3821824 6.30374965,17.3473438 L6.65380272,17.3071672 L6.65380272,18.788698 C6.19342963,18.849226 5.70692279,18.8817906 5.20360294,18.8817906 C2.4168253,18.8817906 0.141695929,17.8865921 0.00636832509,16.6357897 L0,16.5178007 L0,16.0051212 C0,15.8391715 0.0378181135,15.6772868 0.109440626,15.5209412 Z M17.8149333,14.1290743 C17.8687267,14.2462985 17.903478,14.3666634 17.9174916,14.4895473 L17.9245298,14.6132478 L17.9245298,15.1259205 C17.9245298,16.4315675 15.5914286,17.4899237 12.7135159,17.4899237 C9.92276937,17.4899237 7.64439978,16.4947384 7.50887945,15.2439119 L7.50250205,15.1259205 L7.50250205,14.6132478 C7.50250205,14.4472557 7.54037402,14.2853732 7.61209854,14.1290743 C8.10461284,15.2023948 10.2013714,16.0088593 12.7135159,16.0088593 C15.2256604,16.0088593 17.322419,15.2024395 17.8149333,14.1290743 Z M5.20360294,11.0058608 C5.58109283,11.0058608 5.94915048,11.0241339 6.30378728,11.0587626 L6.65380272,11.0987721 L6.65380272,16.1408928 C6.19342963,16.2013631 5.70692279,16.2338487 5.20360294,16.2338487 C2.4168253,16.2338487 0.141695929,15.2409812 0.00636832509,13.9932493 L0,13.8755502 L0,13.3641147 C0,12.061663 2.3297385,11.0058608 5.20360294,11.0058608 Z M17.8149333,11.5150804 C17.8687267,11.6323061 17.903478,11.7526727 17.9174916,11.8755582 L17.9245298,11.9992604 L17.9245298,12.5119399 C17.9245298,13.8175595 15.5914286,14.8759298 12.7135159,14.8759298 C9.92276937,14.8759298 7.64439978,13.8807313 7.50887945,12.6299289 L7.50250205,12.5119399 L7.50250205,11.9992604 C7.50250205,11.833266 7.54037402,11.6713813 7.61209854,11.5150804 C8.10461284,12.5884599 10.2013714,13.3948904 12.7135159,13.3948904 C15.2256604,13.3948904 17.322419,12.5884599 17.8149333,11.5150804 Z M12.7135159,7 C15.5042192,7 17.7826294,7.99279218 17.9181523,9.24057027 L17.9245298,9.35827398 L17.9245298,9.86971387 C17.9245298,11.1721766 15.5914286,12.2279879 12.7135159,12.2279879 C9.92276937,12.2279879 7.64439978,11.2351957 7.50887945,9.98741758 L7.50250205,9.86971387 L7.50250205,9.35827398 C7.50250205,8.05581122 9.83555854,7 12.7135159,7 Z" transform="translate(11 1)"/>
  </g>
</svg>
