<svg height="32" viewBox="0 0 51 32" width="51" xmlns="http://www.w3.org/2000/svg"><g fill="none" fill-rule="evenodd"><path d="m.5.5h50v31h-50z" fill="#fff" stroke="#d0d0d0"/><path d="m17.8149333 19.56075c.0537934.1171922.0885447.2375755.1025583.3604527l.0070382.1236826v.5127242c0 1.3056196-2.3331012 2.3639899-5.2110139 2.3639899-2.79074653 0-5.06911612-.9951985-5.20463645-2.2460009l-.0063774-.117989v-.5126795c0-.1658604.03787197-.3277897.10959649-.4841353.4925143 1.0733348 2.58927286 1.8797653 5.10141736 1.8797653s4.6089031-.8064752 5.1014174-1.87981zm-17.70534135-1.4258148c.49249388 1.0733347 2.58916557 1.8798099 5.10120592 1.8798099.37811232 0 .74655327-.0185688 1.10166786-.0534073l.35053709-.0401767v.6277946c0 .2868271.06618389.5636928.19448774.8262194-.51763661.0781727-1.07117866.1206094-1.64669269.1206094-2.79063087 0-5.06890602-.9951985-5.20442074-2.2460416l-.00637713-.117993v-.5126795c0-.1659496.0378704-.3278343.10959195-.4841352zm25.92850345-5.8870334c.2216261 0 .4336887.0902847.5872997.2500401l3.1471533 3.2730394c.3032688.3153996.3032688.814023 0 1.1294226l-3.1471533 3.2730394c-.3118814.3243567-.8276543.3344699-1.152011.0225884-.1597554-.1536109-.2500401-.3656736-.2500401-.5872997v-1.7453941l-5.2958838.0000135c-.5249705 0-.9505432-.4255727-.9505432-.9505433v-1.1202831c0-.5249705.4255727-.9505432.9505432-.9505432l5.2958838-.0000135v-1.7793151c0-.4499748.3647766-.8147514.8147514-.8147514zm-8.2231621 4.6649063c.0537934.1171922.0885447.2375755.1025583.3604527l.0070382.1236826v.5127242c0 1.3056196-2.3331012 2.3639899-5.2110139 2.3639899-2.79074653 0-5.06911612-.9951985-5.20463645-2.2460009l-.0063774-.117989v-.5127242c0-.1659497.03787197-.3277897.10959649-.4841353.4925143 1.0733348 2.58927286 1.87981 5.10141736 1.87981s4.6089031-.8065199 5.1014174-1.87981zm-17.70549267-1.3918669c.49181386 1.0733348 2.58559052 1.87981 5.09416231 1.87981.37759023 0 .74552246-.0185688 1.10014671-.0534074l.35005307-.0401766v1.4815308c-.46037309.060528-.94687993.0930926-1.45019978.0930926-2.78677764 0-5.06190701-.9951985-5.19723461-2.2460009l-.00636833-.117989v-.5126795c0-.1659497.03781811-.3278344.10944063-.48418zm17.70549267-1.3918669c.0537934.1172242.0885447.2375891.1025583.360473l.0070382.1237005v.5126727c0 1.305647-2.3331012 2.3640032-5.2110139 2.3640032-2.79074653 0-5.06911612-.9951853-5.20463645-2.2460118l-.0063774-.1179914v-.5126727c0-.1659921.03787197-.3278746.10959649-.4841735.4925143 1.0733205 2.58927286 1.879785 5.10141736 1.879785s4.6089031-.8064198 5.1014174-1.879785zm-12.61133036-3.1232135c.37748989 0 .74554754.0182731 1.10018434.0529018l.35001544.0400095v5.0421207c-.46037309.0604703-.94687993.0929559-1.45019978.0929559-2.78677764 0-5.06190701-.9928675-5.19723461-2.2405994l-.00636833-.1176991v-.5114355c0-1.3024517 2.3297385-2.3582539 5.20360294-2.3582539zm12.61133036.5092196c.0537934.1172257.0885447.2375923.1025583.3604778l.0070382.1237022v.5126795c0 1.3056196-2.3331012 2.3639899-5.2110139 2.3639899-2.79074653 0-5.06911612-.9951985-5.20463645-2.2460009l-.0063774-.117989v-.5126795c0-.1659944.03787197-.3278791.10959649-.48418.4925143 1.0733795 2.58927286 1.87981 5.10141736 1.87981s4.6089031-.8064305 5.1014174-1.87981zm-5.1014174-4.5150804c2.7907033 0 5.0691135.99279218 5.2046364 2.24057027l.0063775.11770371v.51143989c0 1.30246273-2.3331012 2.35827403-5.2110139 2.35827403-2.79074653 0-5.06911612-.9927922-5.20463645-2.24057032l-.0063774-.11770371v-.51143989c0-1.30246276 2.33305649-2.35827398 5.21101385-2.35827398z" fill="#2c3341" fill-rule="nonzero" transform="translate(11 1)"/></g></svg>