<svg xmlns="http://www.w3.org/2000/svg" width="51" height="32" viewBox="0 0 51 32">
  <g fill="none" fill-rule="evenodd">
    <rect width="50" height="31" x=".5" y=".5" fill="#FFF" stroke="#D0D0D0"/>
    <g transform="translate(14 7.8)">
      <path fill="#2C3341" fill-rule="nonzero" d="M1.46678084,0 L22.5332192,0 C23.0432508,0 23.2282006,0.0531380958 23.4146606,0.152920331 C23.6011205,0.252702567 23.7474554,0.399128942 23.8471752,0.585705501 C23.9468951,0.772282059 24,0.957347526 24,1.46769815 L24,14.9043949 C24,15.4147455 23.9468951,15.599811 23.8471752,15.7863875 C23.7474554,15.9729641 23.6011205,16.1193905 23.4146606,16.2191727 C23.2282006,16.3189549 23.0432508,16.372093 22.5332192,16.372093 L1.46678084,16.372093 C0.956749184,16.372093 0.771799383,16.3189549 0.585339435,16.2191727 C0.398879486,16.1193905 0.252544628,15.9729641 0.152824756,15.7863875 C0.0531048845,15.599811 0,15.4147455 0,14.9043949 L0,1.46769815 C0,0.957347526 0.0531048845,0.772282059 0.152824756,0.585705501 C0.252544628,0.399128942 0.398879486,0.252702567 0.585339435,0.152920331 C0.771799383,0.0531380958 0.956749184,0 1.46678084,0 Z"/>
      <g fill="#FFF" fill-rule="nonzero" transform="translate(3.72 2.977)">
        <path d="M.331395349 10.4186047C.148370752 10.4186047 0 10.2520129 0 10.0465116 0 9.84101033.148370752 9.6744186.331395349 9.6744186L10.2732558 9.6744186C10.4562804 9.6744186 10.6046512 9.84101033 10.6046512 10.0465116 10.6046512 10.2520129 10.4562804 10.4186047 10.2732558 10.4186047L.331395349 10.4186047zM2.04651163 8.45182724C2.04651163 8.81879385 1.75497612 9.11627907 1.39534884 9.11627907 1.03572156 9.11627907.744186047 8.81879385.744186047 8.45182724L.744186047 5.12956811C.744186047 4.7626015 1.03572156 4.46511628 1.39534884 4.46511628 1.75497612 4.46511628 2.04651163 4.7626015 2.04651163 5.12956811L2.04651163 8.45182724zM4.65116279 8.45182724C4.65116279 8.81879385 4.35962728 9.11627907 4 9.11627907 3.64037272 9.11627907 3.34883721 8.81879385 3.34883721 8.45182724L3.34883721 5.12956811C3.34883721 4.7626015 3.64037272 4.46511628 4 4.46511628 4.35962728 4.46511628 4.65116279 4.7626015 4.65116279 5.12956811L4.65116279 8.45182724zM7.25581395 8.45182724C7.25581395 8.81879385 6.96427844 9.11627907 6.60465116 9.11627907 6.24502388 9.11627907 5.95348837 8.81879385 5.95348837 8.45182724L5.95348837 5.12956811C5.95348837 4.7626015 6.24502388 4.46511628 6.60465116 4.46511628 6.96427844 4.46511628 7.25581395 4.7626015 7.25581395 5.12956811L7.25581395 8.45182724zM9.86046512 8.45182724C9.86046512 8.81879385 9.5689296 9.11627907 9.20930233 9.11627907 8.84967505 9.11627907 8.55813953 8.81879385 8.55813953 8.45182724L8.55813953 5.12956811C8.55813953 4.7626015 8.84967505 4.46511628 9.20930233 4.46511628 9.5689296 4.46511628 9.86046512 4.7626015 9.86046512 5.12956811L9.86046512 8.45182724zM.331967831 3.90697674C.00412039684 3.90697674-.124621618 3.48020914.148163937 3.29768422L4.88876682.125675385C5.13919785-.0418917951 5.46545331-.0418917951 5.71588434.125675385L10.4564872 3.29768422C10.7292728 3.48020914 10.6005308 3.90697674 10.2726833 3.90697674L.331967831 3.90697674z" transform="translate(5.953)"/>
        <g transform="translate(0 2.79)">
          <path d="M2.23255814,3.53488372 L2.232,4.27811513 L4.09302326,4.27906977 C4.29852456,4.27906977 4.46511628,4.44566149 4.46511628,4.65116279 C4.46511628,4.85666409 4.29852456,5.02325581 4.09302326,5.02325581 L2.232,5.02311513 L2.23255814,5.76744186 C2.23255814,6.07406337 1.88250651,6.24908919 1.6372093,6.06511628 L0.148837209,4.94883721 C-0.0496124031,4.8 -0.0496124031,4.50232558 0.148837209,4.35348837 L1.6372093,3.2372093 C1.88250651,3.05323639 2.23255814,3.22826221 2.23255814,3.53488372 Z"/>
          <path d="M2.23255814,0.558139535 L2.232,1.30137095 L4.09302326,1.30232558 C4.29852456,1.30232558 4.46511628,1.4689173 4.46511628,1.6744186 C4.46511628,1.87991991 4.29852456,2.04651163 4.09302326,2.04651163 L2.232,2.04637095 L2.23255814,2.79069767 C2.23255814,3.09731919 1.88250651,3.272345 1.6372093,3.08837209 L0.148837209,1.97209302 C-0.0496124031,1.82325581 -0.0496124031,1.5255814 0.148837209,1.37674419 L1.6372093,0.260465116 C1.88250651,0.076492208 2.23255814,0.251518021 2.23255814,0.558139535 Z" transform="matrix(-1 0 0 1 4.465 0)"/>
        </g>
      </g>
    </g>
  </g>
</svg>
