<svg xmlns="http://www.w3.org/2000/svg" width="640" height="360" viewBox="0 0 640 360">
  <g fill="none" fill-rule="evenodd" transform="translate(80 16)">
    <path fill="#2C3341" fill-rule="nonzero" d="M29.3356167,0 L450.664383,0 C460.865016,0 464.564012,1.06276192 468.293211,3.05840663 C472.02241,5.05405134 474.949107,7.98257884 476.943505,11.71411 C478.937902,15.4456412 480,19.1469505 480,29.3539629 L480,298.087898 C480,308.29491 478.937902,311.996219 476.943505,315.72775 C474.949107,319.459282 472.02241,322.387809 468.293211,324.383454 C464.564012,326.379099 460.865016,327.44186 450.664383,327.44186 L29.3356167,327.44186 C19.1349837,327.44186 15.4359877,326.379099 11.7067887,324.383454 C7.97758973,322.387809 5.05089255,319.459282 3.05649512,315.72775 C1.06209769,311.996219 0,308.29491 0,298.087898 L0,29.3539629 C0,19.1469505 1.06209769,15.4456412 3.05649512,11.71411 C5.05089255,7.98257884 7.97758973,5.05405134 11.7067887,3.05840663 C15.4359877,1.06276192 19.1349837,0 29.3356167,0 Z"/>
    <g fill="#FFF" fill-rule="nonzero" transform="translate(74.419 59.535)">
      <path d="M6.62790698 208.372093C2.96741503 208.372093 0 205.040259 0 200.930233 0 196.820207 2.96741503 193.488372 6.62790698 193.488372L205.465116 193.488372C209.125608 193.488372 212.093023 196.820207 212.093023 200.930233 212.093023 205.040259 209.125608 208.372093 205.465116 208.372093L6.62790698 208.372093zM40.9302326 169.036545C40.9302326 176.375877 35.0995223 182.325581 27.9069767 182.325581 20.7144312 182.325581 14.8837209 176.375877 14.8837209 169.036545L14.8837209 102.591362C14.8837209 95.2520299 20.7144312 89.3023256 27.9069767 89.3023256 35.0995223 89.3023256 40.9302326 95.2520299 40.9302326 102.591362L40.9302326 169.036545zM93.0232558 169.036545C93.0232558 176.375877 87.1925456 182.325581 80 182.325581 72.8074544 182.325581 66.9767442 176.375877 66.9767442 169.036545L66.9767442 102.591362C66.9767442 95.2520299 72.8074544 89.3023256 80 89.3023256 87.1925456 89.3023256 93.0232558 95.2520299 93.0232558 102.591362L93.0232558 169.036545zM145.116279 169.036545C145.116279 176.375877 139.285569 182.325581 132.093023 182.325581 124.900478 182.325581 119.069767 176.375877 119.069767 169.036545L119.069767 102.591362C119.069767 95.2520299 124.900478 89.3023256 132.093023 89.3023256 139.285569 89.3023256 145.116279 95.2520299 145.116279 102.591362L145.116279 169.036545zM197.209302 169.036545C197.209302 176.375877 191.378592 182.325581 184.186047 182.325581 176.993501 182.325581 171.162791 176.375877 171.162791 169.036545L171.162791 102.591362C171.162791 95.2520299 176.993501 89.3023256 184.186047 89.3023256 191.378592 89.3023256 197.209302 95.2520299 197.209302 102.591362L197.209302 169.036545zM6.63935663 78.1395349C.0824079367 78.1395349-2.49243235 69.6041828 2.96327873 65.9536843L97.7753364 2.51350771C102.783957-.837835902 109.309066-.837835902 114.317687 2.51350771L209.129745 65.9536843C214.585456 69.6041828 212.010615 78.1395349 205.453667 78.1395349L6.63935663 78.1395349z" transform="translate(119.07)"/>
      <g transform="translate(0 55.814)">
        <path d="M44.6511628,70.6976744 L44.651,85.5813026 L81.8604651,85.5813953 C85.9704912,85.5813953 89.3023256,88.9132298 89.3023256,93.0232558 C89.3023256,97.1332819 85.9704912,100.465116 81.8604651,100.465116 L44.651,100.464303 L44.6511628,115.348837 C44.6511628,121.481267 37.6501303,124.981784 32.744186,121.302326 L2.97674419,98.9767442 C-0.992248062,96 -0.992248062,90.0465116 2.97674419,87.0697674 L32.744186,64.744186 C37.6501303,61.0647279 44.6511628,64.5652441 44.6511628,70.6976744 Z"/>
        <path d="M44.6511628,11.1627907 L44.651,26.0464189 L81.8604651,26.0465116 C85.9704912,26.0465116 89.3023256,29.378346 89.3023256,33.4883721 C89.3023256,37.5983981 85.9704912,40.9302326 81.8604651,40.9302326 L44.651,40.9294189 L44.6511628,55.8139535 C44.6511628,61.9463838 37.6501303,65.4469 32.744186,61.7674419 L2.97674419,39.4418605 C-0.992248062,36.4651163 -0.992248062,30.5116279 2.97674419,27.5348837 L32.744186,5.20930233 C37.6501303,1.52984416 44.6511628,5.03036042 44.6511628,11.1627907 Z" transform="matrix(-1 0 0 1 89.302 0)"/>
      </g>
    </g>
  </g>
</svg>
