<svg xmlns="http://www.w3.org/2000/svg" width="640" height="360" viewBox="0 0 640 360"><g fill="none" fill-rule="nonzero"><path fill="#fff" d="M430.403 215.646c-.685-21.911-12.664-42.99-33.418-54.448-54.509-30.096-126.23-30.478-182.722-.754-21.388 11.256-33.866 31.1-34.566 55.202z"/><path fill="#414242" d="M179.696 215.646c.7-24.102 13.179-43.812 34.566-55.067 56.493-29.723 128.213-29.612 182.725.484 20.752 11.459 32.731 32.671 33.415 54.583h49.831c.053 0 .089-3.314.089-5.118 0-26.499-5.915-51.473-16.441-73.991-1.651-4.284-3.908-8.644-6.484-13.008 20.96-7.052 41.48-10.995 56.683-14.09 18.51-3.77 29.125-6.21 22.916-11.29-13.498-11.049-30.683-23.02-30.683-23.02s69.048-57.062 0-39.789a134.8 134.8 0 0 0-34.452 13.868c-19.26 11.029-33.25 25.29-42.81 37.73-31.734-31.747-75.56-51.415-123.998-51.415-96.8 0-175.273 78.204-175.273 175.003 0 1.802.035 5.117.089 5.117h49.827z"/><path fill="#414242" d="M256.442 215.646c-.202-13.726-7.998-24.769-17.607-24.769-9.61 0-17.406 11.043-17.609 24.769zm132.509 0c-.202-13.726-7.998-24.769-17.608-24.769-9.608 0-17.405 11.043-17.607 24.769zm-264.108 98.53h-11.928l-21.777-33.633s.216 5.965.216 11.211v22.422H80v-49.588h12.433l21.271 33.346s-.212-5.604-.212-10.851v-22.495h11.354v49.588zm16.246-49.588h11.641v49.586h-11.64zm72.726 49.588h-11.929l-21.775-33.633s.215 5.965.215 11.211v22.422H168.97v-49.588h12.434l21.27 33.346s-.215-5.604-.215-10.851v-22.495h11.355zm27.815-1.006c0 5.243-1.078 8.91-3.09 11.21-1.867 2.155-4.957 3.664-8.984 3.664-3.448 0-6.753-.717-7.4-1.078l.43-8.552c.934.36 2.3.647 3.88.647 2.804 0 3.593-2.156 3.593-5.749v-48.72h11.571v48.582zm60.869 1.005h-12.65l-3.52-9.99h-17.678l-3.521 9.99h-12.074l18.682-49.658h12.07l18.682 49.658zm-18.828-19.044-6.181-17.825-6.18 17.825zm56.99-27.02h-21.27v19.47h19.977v3.52H319.39v23.068h-3.88v-49.582h25.151zm37.156 46.926c-13.438 0-25.153-9.774-25.153-25.583 0-15.812 11.715-25.587 25.153-25.587 13.509 0 25.152 9.775 25.152 25.586s-11.643 25.584-25.153 25.584m0-47.72c-11.286 0-21.059 8.122-21.059 22.063 0 13.799 9.847 21.99 21.053 21.99 11.355 0 21.127-8.196 21.127-21.995 0-13.867-9.777-22.063-21.132-22.063zm69.555 46.852h-4.957l-14.658-23h-6.323v22.995h-3.879v-49.577h11.503c9.338 0 15.446 5.031 15.446 13.29 0 8.265-5.963 12.218-12.215 13.15l15.091 23.137zm-10.635-43.979c-2.661-2.016-5.894-2.085-9.846-2.085h-5.46v19.545h5.46c3.952 0 7.185-.073 9.841-2.015 2.73-2.01 3.667-4.524 3.667-7.762 0-3.233-.937-5.746-3.667-7.688zm78.185 43.979h-3.883l-4.244-43.048-18.322 43.91h-.36l-18.392-43.979-4.095 43.117h-3.884l5.027-49.587h4.455l17.037 42.328 17.105-42.328h4.524zm29.18.862c-9.63 0-14.085-6.9-15.165-8.91l3.017-2.158c1.798 3.301 6.11 7.687 12.507 7.687s11.57-3.952 11.57-10.418-6.614-8.915-9.487-10.063c-2.875-1.153-6.109-2.518-8.121-3.592-1.942-1.08-7.186-4.313-7.186-11.498s6.253-12.217 14.588-12.217c8.338 0 12.507 5.747 12.936 6.466l-2.73 2.37c-1.866-2.375-4.741-5.396-10.492-5.396s-10.346 3.021-10.346 8.63c0 5.608 3.878 7.835 7.402 9.343 3.519 1.508 9.053 3.81 10.204 4.455 1.148.65 7.185 3.952 7.185 11.497s-6.254 13.8-15.884 13.8z"/></g></svg>