<svg xmlns="http://www.w3.org/2000/svg" width="512" height="512" fill="none"><path fill="#fff" d="M0 0h512v512H0z"/><path fill="#fff" d="M376.334 511.793c-.857-27.429-15.853-53.817-41.834-68.161-68.237-37.675-158.021-38.154-228.74-.944-26.775 14.091-42.395 38.933-43.272 69.105z"/><path fill="#414242" d="M62.487 511.793c.877-30.172 16.498-54.846 43.272-68.936 70.72-37.209 160.503-37.07 228.744.606 25.978 14.345 40.974 40.899 41.83 68.33h62.381c.066 0 .111-4.149.111-6.407 0-33.173-7.404-64.437-20.581-92.626-2.067-5.363-4.892-10.821-8.117-16.284 26.239-8.828 51.926-13.764 70.958-17.638 23.172-4.72 36.46-7.774 28.688-14.134-16.898-13.831-38.411-28.817-38.411-28.817s86.438-71.433 0-49.81a168.72 168.72 0 0 0-43.129 17.361c-24.11 13.806-41.623 31.659-53.591 47.232-39.726-39.743-94.59-64.364-155.227-64.364C98.236 286.306 0 384.206 0 505.383c0 2.256.044 6.406.111 6.406h62.376v.004"/><path fill="#414242" d="M158.562 511.793c-.253-17.183-10.013-31.007-22.042-31.007-12.03 0-21.789 13.824-22.043 31.007h44.086zm165.881 0c-.253-17.183-10.012-31.007-22.043-31.007-12.028 0-21.788 13.824-22.041 31.007z"/></svg>