<svg xmlns="http://www.w3.org/2000/svg" width="640" height="360"><path fill="#32AA52" fill-rule="evenodd" d="M147.635 137.494H81.212v21.266h43.292c2.678 0 4.849 2.182 4.849 4.875v37.659H120.1c-2.678 0-4.849-2.183-4.849-4.875v-27.026H96.97c-9.372 0-16.97 7.64-16.97 17.063v19.041c0 9.424 7.598 17.063 16.97 17.063h67.635v-68.004c0-9.423-7.598-17.062-16.97-17.062m80.42 63.8h-9.251c-2.678 0-4.849-2.183-4.849-4.875v-58.925h-18.28c-9.372 0-16.97 7.639-16.97 17.062v50.941c0 9.424 7.598 17.063 16.97 17.063h67.634V102.049h-35.252zm98.705 0h-9.252c-2.677 0-4.848-2.183-4.848-4.875v-58.925H277.41v68.003c0 9.424 7.597 17.063 16.97 17.063h32.382v10.634h-48.14V258h66.423c9.372 0 16.97-7.64 16.97-17.062V137.493H326.76zm116.988-63.8h-67.634v68.003c0 9.424 7.598 17.063 16.97 17.063h66.422v-21.266h-43.292c-2.678 0-4.849-2.183-4.849-4.875v-37.658h9.252c2.679 0 4.849 2.183 4.849 4.875v27.024h18.282c9.372 0 16.97-7.639 16.97-17.062v-19.042c0-9.423-7.598-17.062-16.97-17.062m98.706 0h-67.636v85.066h35.253v-63.8h9.252c2.666 0 4.848 2.193 4.848 4.875v58.925h35.252v-68.004c0-9.423-7.597-17.062-16.97-17.062"/></svg>