<svg xmlns="http://www.w3.org/2000/svg" width="640" height="360" viewBox="0 0 640 360"><path fill="#32aa52" fill-rule="evenodd" d="M67.635 35.494H1.212V56.76h43.292c2.678 0 4.849 2.182 4.849 4.875v37.659H40.1c-2.678 0-4.849-2.183-4.849-4.875V67.393H16.97C7.598 67.393 0 75.033 0 84.456v19.041c0 9.424 7.598 17.063 16.97 17.063h67.635V52.556c0-9.423-7.598-17.062-16.97-17.062m80.42 63.8h-9.251c-2.678 0-4.849-2.183-4.849-4.875V35.494h-18.28c-9.372 0-16.97 7.639-16.97 17.062v50.941c0 9.424 7.598 17.063 16.97 17.063h67.634V.049h-35.252zm98.705 0h-9.252c-2.677 0-4.848-2.183-4.848-4.875V35.494H197.41v68.003c0 9.424 7.597 17.063 16.97 17.063h32.382v10.634h-48.14V156h66.423c9.372 0 16.97-7.64 16.97-17.062V35.494H246.76zm116.988-63.8h-67.634v68.003c0 9.424 7.598 17.063 16.97 17.063h66.422V99.294h-43.292c-2.678 0-4.849-2.183-4.849-4.875V56.761h9.252c2.679 0 4.849 2.183 4.849 4.875V88.66h18.282c9.372 0 16.97-7.639 16.97-17.062V52.556c0-9.423-7.598-17.062-16.97-17.062m98.706 0h-67.636v85.066h35.253v-63.8h9.252c2.666 0 4.848 2.193 4.848 4.875v58.925h35.252V52.556c0-9.423-7.597-17.062-16.97-17.062" style="fill:#fff" transform="translate(80 102)"/></svg>