<svg xmlns="http://www.w3.org/2000/svg" width="640" height="360"><path fill="#1C62B7" d="M11.832 86.304H.192V50.94h11.64c12.315 0 18.916 6.017 18.916 17.657 0 11.542-5.483 17.706-18.916 17.706m-.844-29.983H7.172v24.601h3.732c9.616.196 12.716-4.498 12.716-12.275 0-8.56-4.45-12.326-12.632-12.326m30.43 15.065c.19-3.228 1.772-6.212 5.42-6.212 3.543 0 5.293 2.64 5.146 6.212H41.418m5.631-10.369c-9.3 0-12.526 6.603-12.526 12.813 0 7.387 3.711 12.912 11.64 13.157 6.306.05 11.894-1.858 12.273-8.754h-6.452c0 2.788-2.257 4.598-4.893 4.598-4.45 0-5.862-3.277-5.926-7.288l17.82-.049c.527-7.336-2.657-14.477-11.936-14.477m40.552 25.287h-6.664l-.042-4.011c-1.117 3.178-4.217 4.793-8.013 4.793-4.513 0-8.773-2.74-8.815-9.293V61.897h6.748v14.966c-.042 3.521 1.329 5.478 4.64 5.527 2.994 0 5.44-1.712 5.44-6.455V61.897h6.706v24.407m8.646-24.308V58.13l6.516-3.422v7.288h6.221v4.742h-6.22v11.789c0 2.395.822 3.766 3.268 3.863.928 0 1.772.097 2.995-.245v4.207c-3.185.441-6.854 1.272-9.89-.343-2.3-1.221-2.89-3.375-2.89-6.797V66.738h-5.23v-4.742h5.23m38.064 13.791c1.076 2.153 1.033 4.99-.295 6.947-2.299 3.52-7.297 4.4-11.156 4.304-5.483-.344-10.354-1.761-10.122-8.315h6.664c-.063 2.836 1.708 3.863 4.239 3.96 2.446 0 4.892-.83 4.892-3.08 0-1.81-1.708-2.593-3.901-3.082-2.51-.538-4.302-.782-7.107-1.908-2.235-1.076-4.45-2.885-4.45-6.308 0-2.838 2.215-4.99 5.104-6.164 1.94-.83 4.344-1.075 6.41-1.075 4.64 0 9.68 1.613 9.385 7.482h-6.263c0-.88-.19-1.858-.928-2.444-1.371-1.223-5.589-1.371-6.896.634-1.476 3.425 3.079 3.67 8.119 5.038 3.184.734 5.335 2.054 6.305 4.011m16.68-14.82c5.336 0 10.861 2.446 10.861 9.148l-6.558-.051c0-3.13-1.708-5.038-4.935-4.89-.843.048-1.73.341-2.446.734-2.025 1.174-2.657 4.451-2.657 7.728 0 3.471.843 6.848 2.362 8.069 1.012.978 2.825 1.273 4.386.978 2.594-.439 3.374-2.984 3.437-5.183l6.411-.049c.084 6.993-5.63 9.635-11.598 9.536-7.972-.293-11.64-5.476-11.64-13.157 0-7.775 4.449-12.863 12.378-12.863m16.027-9.977h6.748v14.77c1.771-3.13 4.407-4.498 7.971-4.498 4.513 0 8.773 3.374 8.773 8.216v16.826h-6.664V71.336c0-3.326-1.413-5.526-4.597-5.526-2.974 0-5.525 1.955-5.525 6.456v14.038h-6.706V50.99m35.617 20.396c.19-3.228 1.75-6.212 5.42-6.212 3.522 0 5.293 2.64 5.145 6.212h-10.565m5.63-10.369c-9.299 0-12.526 6.603-12.526 12.813 0 7.387 3.712 12.912 11.641 13.157 6.305.05 11.894-1.858 12.273-8.754h-6.453c0 2.788-2.256 4.598-4.892 4.598-4.45 0-5.863-3.277-5.926-7.288l17.82-.049c.527-7.336-2.658-14.477-11.936-14.477m53.543 24.26c-2.277.732-5.23 1.027-8.393 1.027h-12.78V51.038h13.603c6.073 0 12.42 1.909 12.674 8.708.147 4.304-2.784 7.04-6.453 8.264 2.825.734 5.124 1.565 6.684 4.207 1.371 2.347 1.477 5.479.359 8.07-1.181 2.447-2.995 4.06-5.694 4.99m-7.57-28.956h-6.896v9.146h7.001c3.67 0 5.567-1.516 5.567-4.5 0-2.788-2.193-4.646-5.672-4.646m.696 14.428-7.592-.048V81.07h7.338c4.893 0 6.453-2.398 6.453-5.38 0-2.298-1.666-4.99-6.2-4.94m28.215 12.033c-2.488-.196-3.964-1.42-3.964-3.766.042-5.135 6.558-4.597 9.932-4.597.148 4.06-.19 8.264-5.968 8.363m12.379-14.184c0-4.99-5.378-7.484-11.598-7.435-5.926.099-10.228 2.005-10.313 7.728h6.496c-.148-2.642 1.666-4.01 4.07-4.059 3.606 0 5.23 1.662 4.892 5.772-3.585.194-8.372-.05-11.936 1.613-2.594 1.223-4.597 3.522-4.597 7.189 0 4.696 3.269 7.533 8.056 7.68 3.437.342 7.338-1.174 8.857-4.352l.253 3.57h5.82V68.598m6.495-6.701h6.748v3.913c1.772-3.18 4.998-4.548 8.625-4.548 4.05 0 8.203 2.347 8.203 8.216v16.826h-6.748V71.336c.042-3.178-1.518-5.526-4.597-5.526-3.037 0-5.525 1.955-5.525 6.456v14.038h-6.706V61.897m47.195 24.407-10.27-13.99 9.3-10.417h7.929l-9.637 10.172 11.345 14.235h-8.667M332.117 50.99h6.642v35.314h-6.642V50.99M393.672.014h85.892v86.24h-85.892V.013m52.193 20.426-33.55 45.029h15.162l33.677-45.03h-15.289M405.63 74.309h61.978V11.96h-61.978V74.31" style="fill:#fff" transform="translate(80 136)"/></svg>