<svg height="80" viewBox="0 0 98 80" width="98" xmlns="http://www.w3.org/2000/svg"><g fill="none" fill-rule="nonzero" transform="translate(0 1.208333)"><path d="m29.642906 76.5672727v-5.0909091c.0592703-.8638879-.2513705-1.7118262-.8526393-2.3274005s-1.4349931-.9392281-2.2883864-.888357c-1.1275577-.0748807-2.2059804.477836-2.8143589 1.4424242-.5546667-.9358284-1.5702797-1.4892983-2.6468376-1.4424242-.9373513-.0480014-1.8297006.4104244-2.3452992 1.2048484v-1.0012121h-1.7422222v8.1030303h1.7589744v-4.4884848c-.0789219-.5622602.0956447-1.1306963.4755072-1.5483807.3798625-.4176843.9248443-.6404399 1.4844928-.6067708 1.1558974 0 1.7422222.7636363 1.7422222 2.1381818v4.5054545h1.7589743v-4.4884848c-.072646-.5609818.1040905-1.1257074.4825299-1.541827.3784394-.4161195.9195931-.6407622 1.4774701-.6133245 1.1894017 0 1.7589744.7636363 1.7589744 2.1381818v4.5054545zm9.8-4.0472727v-4.0472727h-1.7589744v.9842424c-.5993371-.7834736-1.5350707-1.2258204-2.5128205-1.1878788-2.3129874 0-4.1880342 1.899398-4.1880342 4.2424243 0 2.3430262 1.8750468 4.2424242 4.1880342 4.2424242.9777498.0379416 1.9134834-.4044052 2.5128205-1.1878788v.9842424h1.7422222zm-6.4747009 0c.0774745-1.3315539 1.1914471-2.3561504 2.5072844-2.3061203 1.3158373.0500302 2.3508539 1.1563346 2.3295734 2.490025-.0212805 1.3336905-1.0910518 2.4055327-2.4077979 2.4124589-.6741436.016016-1.3237309-.2565303-1.7892628-.750718-.465532-.4941877-.7038905-1.1642446-.6565492-1.8456456zm43.6979487-4.2424242c.5735723-.0015016 1.1421542.107932 1.6752137.3224242.5088135.2064095.9726823.5119842 1.3652992.8993939.3875418.3839123.6951449.8426538.9046154 1.3490909.4376144 1.0878873.4376144 2.3060521 0 3.3939394-.2092696.5065475-.5168984.9653273-.9046154 1.349091-.3926169.3874097-.8564857.6929844-1.3652992.8993939-1.1045024.434754-2.3296856.434754-3.434188 0-.5064402-.2062046-.9676021-.5118714-1.3569231-.8993939-.3838386-.3852676-.6884584-.8438057-.8962393-1.349091-.4367247-1.0880637-.4367247-2.3058757 0-3.3939394.2077809-.5052852.5124007-.9638233.8962393-1.3490909.389321-.3875226.8504829-.6931893 1.3569231-.8993939.5522149-.2318674 1.1444521-.3501226 1.7422222-.3479101zm0 1.6969697c-.3411301-.0047135-.6798334.0587171-.9967521.1866666-.2985087.12124-.5693222.3031645-.7957265.5345455-.2309683.2435813-.4105181.5322822-.5276923.8484848-.2558838.6774667-.2558838 1.4267757 0 2.1042424.1169625.3163091.2965378.6050511.5276923.8484849.2262524.2315682.4971066.41352.7957265.5345455.6381208.2531152 1.3470074.2531152 1.9851282 0 .3128984-.1171609.5981916-.2992299.8376069-.5345455.2315306-.2431353.411158-.531961.5276923-.8484849.2558838-.6774667.2558838-1.4267757 0-2.1042424-.1165343-.3165238-.2961617-.6053495-.5276923-.8484848-.2394153-.2353156-.5247085-.4173846-.8376069-.5345455-.3159732-.1465273-.6577671-.2273149-1.0051282-.2375757zm-27.7582906 2.5454545c0-2.5454545-1.5579487-4.2424242-3.7943589-4.2424242-2.3129873.0328025-4.1617833 1.958792-4.1294014 4.3018181.0323818 2.3430261 1.933679 4.2158325 4.2466663 4.1830303 1.1924712.0412721 2.3582343-.3634364 3.2750428-1.1369697l-.8376069-1.3066666c-.6614062.5373273-1.4808036.8359025-2.328547.8484848-1.1974709.1043213-2.2593772-.7757946-2.3955555-1.9854545h5.9386324c.0251282-.2121212.0251282-.4242424.0251282-.6618182zm-5.9553846-.7127273c.0672313-1.1193637.995609-1.9848632 2.1023932-1.96.5265222-.011371 1.035927.1896616 1.4160907.5588493.3801638.3691878.5999269.8762704.6109178 1.4096356zm13.2844445-1.2727272c-.7649285-.4461711-1.6302023-.6857508-2.5128205-.6957576-.9548718 0-1.5244445.3563636-1.5244445.950303s.6030769.6957576 1.3569231.7975758l.8376068.1187878c1.7422223.2545455 2.7976069 1.0012122 2.7976069 2.4266667 0 1.4254546-1.340171 2.6472727-3.6435898 2.6472727-1.2345328.0332658-2.4470421-.3355084-3.4593162-1.0521212l.8376068-1.3745454c.7686745.5776736 1.7068773.8765376 2.6635898.8484848 1.1894017 0 1.8259829-.3563636 1.8259829-.9842424 0-.4581818-.4523077-.7127273-1.4071795-.8484849l-.8376068-.1187878c-1.7924787-.2545455-2.7641026-1.0690909-2.7641026-2.3927273 0-1.6121212 1.3066667-2.5963636 3.3504273-2.5963636 1.1438702-.0388226 2.2747163.2556587 3.2582906.8484848zm8.3760684-.4581819h-2.8394872v3.6569697c0 .8484849.2847863 1.3575758 1.1558974 1.3575758.5437164-.0182402 1.0739822-.1758827 1.5411966-.4581818l.5025641 1.510303c-.6530756.4128539-1.4079681.6304983-2.1777778.6279022-2.0605128 0-2.7808547-1.1200234-2.7808547-3.0036598v-3.6909091h-1.6249573v-1.6121212h1.6249573v-2.460606h1.7589744v2.460606h2.8394872zm6.0223931-1.8157575c.4225914.0016541.8418133.0762576 1.2396581.220606l-.5360683 1.6969697c-.3461931-.1398199-.7162324-.2090221-1.0888889-.2036363-1.1391453 0-1.6752137.7466666-1.6752137 2.0872727v4.5393939h-1.7422222v-8.1030303h1.7254701v.9842424c.4355413-.7578639 1.2454521-1.2136579 2.1107692-1.1878787zm12.0447863 7.1272727c.1088997-.0013515.2170145.018823.3182906.0593939.0961931.0397635.1842439.0973082.2596582.169697.0735998.0731575.1332319.1594526.1758974.2545455.0857384.2002825.0857384.4275962 0 .6278787-.0426655.0950928-.1022976.181388-.1758974.2545455-.0754143.0723888-.1634651.1299335-.2596582.169697-.1002763.0448214-.2086862.0679409-.3182906.0678789-.3241122-.0024749-.6177243-.1941489-.7538461-.4921214-.0847457-.2004899-.0847457-.4273888 0-.6278787.0426655-.0950929.1022976-.181388.1758974-.2545455.0754143-.0723888.1634651-.1299335.2596581-.169697.0881517-.0355113.181618-.055595.2764103-.0593939zm0 1.4339505c.0836011.0005033.1663699-.0168436.242906-.0509202.0720647-.0325924.1374214-.0786484.1926496-.1357576.1442289-.1471452.2074394-.3569356.1689066-.5605871s-.1738391-.3748987-.3615562-.4575947c-.0766116-.0338364-.1593296-.0511727-.242906-.0509121-.0835041.00045-.1660822.017757-.2429059.0509121-.0752552.0312582-.1435976.0774115-.2010257.1357576-.2171889.2400424-.2171889.6084424 0 .8484848.1171677.1201763.2771922.1874642.4439316.1866667zm.0502565-1.0097081c.0781917-.0038411.1552427.0201748.2177777.0678788.0520174.0436087.0800848.1099499.0753846.1781818.0024316.0569802-.0188373.1123819-.0586324.1527273-.0485493.0446693-.1104832.0715571-.1758975.0763636l.242906.28h-.1926496l-.2261538-.28h-.0753846v.28h-.1591453v-.780606zm-.1842736.1442424v.2036364h.1842736c.032791.0099034.0677217.0099034.1005128 0 .0119466-.0240162.0119466-.0523475 0-.0763636.0119466-.0240162.0119466-.0523475 0-.0763637-.0327911-.0099034-.0677218-.0099034-.1005128 0z" fill="#fff"/><g><path d="m35.7155556 6.64363636h26.3846153v48.03272724h-26.3846153z" fill="#7673c0"/><path d="m37.3907692 30.6642424c-.0098648-9.3744914 4.2373222-18.2326291 11.517094-24.02060604-12.3632525-9.8423803-30.117379-8.4087525-40.78525642 3.29336833-10.66787746 11.70212081-10.66787746 29.74386981 0 41.44599061 10.66787742 11.7021208 28.42200392 13.1357486 40.78525642 3.2933683-7.2774559-5.7861395-11.5243834-14.6406073-11.517094-24.0121212z" fill="#eb001b"/><g fill="#00a1df"><path d="m94.817094 49.8411785v-1.1548822h.3936752v-.2474748h-.9967521v.2474748h.3936752v1.1961279zm1.9348718 0v-1.4436027h-.3015384l-.3517949 1.0311447-.3517949-1.0311447h-.3099145v1.4436027h.2177778v-1.0827021l.3266666.9383418h.2261539l.3266666-.9383418v1.0930135z"/><path d="m97.6900855 30.6642424c-.0027885 11.6918396-6.5937566 22.3563166-16.9749891 27.4662809-10.3812325 5.1099642-22.7311939 3.7687995-31.8072332-3.4541597 7.2742806-5.7910517 11.5215278-14.6443423 11.5215278-24.0163636s-4.2472472-18.2253119-11.5215278-24.01636364c9.0759641-7.22815318 21.4294085-8.57235902 31.813778-3.46172814s16.9768203 15.77885998 16.9768203 27.47384938z"/></g></g></g></svg>