<?xml version="1.0" encoding="UTF-8" standalone="no"?>
<svg
   width="640"
   height="360"
   viewBox="0 0 640 360"
   version="1.1"
   id="svg3"
   sodipodi:docname="provider-mollie-640x360.svg"
   inkscape:version="1.4.2 (ebf0e940, 2025-05-08)"
   xmlns:inkscape="http://www.inkscape.org/namespaces/inkscape"
   xmlns:sodipodi="http://sodipodi.sourceforge.net/DTD/sodipodi-0.dtd"
   xmlns="http://www.w3.org/2000/svg"
   xmlns:svg="http://www.w3.org/2000/svg"
   xmlns:rdf="http://www.w3.org/1999/02/22-rdf-syntax-ns#"
   xmlns:cc="http://creativecommons.org/ns#"
   xmlns:dc="http://purl.org/dc/elements/1.1/">
  <title
     id="title1">Mollie logo black</title>
  <defs
     id="defs3" />
  <sodipodi:namedview
     id="namedview3"
     pagecolor="#ffffff"
     bordercolor="#111111"
     borderopacity="1"
     inkscape:showpageshadow="0"
     inkscape:pageopacity="0"
     inkscape:pagecheckerboard="1"
     inkscape:deskcolor="#d1d1d1"
     inkscape:zoom="1"
     inkscape:cx="319"
     inkscape:cy="174"
     inkscape:window-width="896"
     inkscape:window-height="245"
     inkscape:window-x="0"
     inkscape:window-y="25"
     inkscape:window-maximized="0"
     inkscape:current-layer="svg3" />
  <g
     fill-rule="evenodd"
     transform="matrix(1.066667,0,0,1.066667,64,104.83009)"
     id="g3">
    <path
       fill-rule="nonzero"
       d="m 202.71116,121.15421 c -15.09573,0 -27.33347,-12.23647 -27.33347,-27.330625 0,-15.094151 12.23774,-27.330622 27.33347,-27.330622 15.09572,0 27.33347,12.236471 27.33347,27.330622 0,15.094155 -12.23775,27.330625 -27.33347,27.330625 z m 0,-73.493903 c -25.49656,0 -46.16809,20.669377 -46.16809,46.163278 0,25.493905 20.67153,46.163275 46.16809,46.163275 25.49656,0 46.16809,-20.66937 46.16809,-46.163275 0,-25.493901 -20.67153,-46.163278 -46.16809,-46.163278 z M 375.89155,13.968871 c 0,7.186237 -5.82657,13.012199 -13.01355,13.012199 -7.18699,0 -13.01356,-5.825962 -13.01356,-13.012199 0,-7.1862369 5.82657,-13.01219877 13.01356,-13.01219877 7.18698,0 13.01355,5.82596187 13.01355,13.01219877 M 140.64651,88.001577 V 138.01446 H 121.62669 V 87.331949 C 121.55212,75.942772 112.20338,66.603516 100.78999,66.503422 89.12634,66.400826 79.582899,76.237548 79.582899,87.900983 V 138.01446 H 60.563086 V 87.467076 C 60.488509,76.022346 51.180813,66.675083 39.773931,66.568483 28.083754,66.458881 18.519291,76.31412 18.519291,88.003579 V 138.01446 H 0 V 87.331949 C 0,65.351342 17.80855,47.569672 39.796455,47.569672 c 12.187695,0 23.093055,5.520175 30.400667,14.148264 0.01001,0.01001 -0.01001,0.01001 0,0 7.537852,-8.920363 19.01731,-14.528621 31.684508,-14.166781 21.68258,0.620081 38.76488,18.761588 38.76488,40.450422"
       id="path1" />
    <polygon
       fill-rule="nonzero"
       points="265.276,3.233 265.276,138.085 284.296,138.085 284.296,3.233 "
       id="polygon1" />
    <polygon
       fill-rule="nonzero"
       points="309.322,3.233 309.322,138.085 328.342,138.085 328.342,3.233 "
       id="polygon2" />
    <polygon
       fill-rule="nonzero"
       points="353.368,49.93 353.368,138.013 372.388,138.013 372.388,49.93 "
       id="polygon3" />
    <path
       fill-rule="nonzero"
       d="m 435.51951,64.471668 c 12.64318,0 23.21419,8.868314 25.83692,20.719424 H 409.6826 c 2.62274,-11.85111 13.19375,-20.719424 25.83691,-20.719424 m 0.35738,-16.931874 c -25.02957,0.324304 -45.24263,20.568783 -45.53744,45.603253 -0.30181,25.566973 20.57093,46.702783 46.14207,46.719323 16.9006,0.011 31.682,-9.05902 39.73489,-22.59521 0.0115,-0.019 0.004,-0.0445 -0.0165,-0.0546 L 460.79384,109.629 c -4.88008,8.07758 -13.74331,13.47764 -23.86886,13.47764 -13.69427,0 -25.08013,-9.87926 -27.42256,-22.90147 h 70.49743 v -8.568035 c 0,-24.265249 -19.85718,-44.412136 -44.12296,-44.097341"
       id="path3" />
  </g>
  <metadata
     id="metadata1">
    <rdf:RDF>
      <cc:Work
         rdf:about="">
        <dc:title>Mollie logo black</dc:title>
      </cc:Work>
    </rdf:RDF>
  </metadata>
</svg>
