<?xml version="1.0" encoding="UTF-8" standalone="no"?>
<svg
   width="512"
   height="512"
   viewBox="0 0 512 512"
   fill="none"
   version="1.1"
   id="svg134"
   sodipodi:docname="provider-mollie-icon-white-512x512.svg"
   inkscape:version="1.2.1 (9c6d41e4, 2022-07-14)"
   xmlns:inkscape="http://www.inkscape.org/namespaces/inkscape"
   xmlns:sodipodi="http://sodipodi.sourceforge.net/DTD/sodipodi-0.dtd"
   xmlns="http://www.w3.org/2000/svg"
   xmlns:svg="http://www.w3.org/2000/svg">
  <defs
     id="defs138" />
  <sodipodi:namedview
     id="namedview136"
     pagecolor="#ffffff"
     bordercolor="#666666"
     borderopacity="1.0"
     inkscape:showpageshadow="2"
     inkscape:pageopacity="0.0"
     inkscape:pagecheckerboard="0"
     inkscape:deskcolor="#d1d1d1"
     showgrid="false"
     inkscape:zoom="0.4609375"
     inkscape:cx="256"
     inkscape:cy="256"
     inkscape:window-width="724"
     inkscape:window-height="480"
     inkscape:window-x="0"
     inkscape:window-y="795"
     inkscape:window-maximized="0"
     inkscape:current-layer="svg134" />
  <path
     d="M512 238.315V420.374H442.761V235.876C442.488 194.413 408.455 160.419 366.908 160.052C324.447 159.68 289.708 195.49 289.708 237.947V420.374H220.469V236.367C220.199 194.704 186.315 160.678 144.786 160.288C102.231 159.888 67.4151 195.767 67.4151 238.322V420.374H0V235.876C0 155.862 64.8304 91.1294 144.87 91.1294C189.238 91.1294 228.94 111.224 255.54 142.633C255.503 142.669 255.576 142.669 255.54 142.633C282.98 110.161 324.767 89.7424 370.883 91.0602C449.812 93.3172 512 159.364 512 238.315Z"
     fill="black"
     id="path132"
     style="fill:#ffffff" />
</svg>
