<svg height="270" viewBox="0 0 480 270" width="480" xmlns="http://www.w3.org/2000/svg" xmlns:xlink="http://www.w3.org/1999/xlink"><defs><path id="a" d="m0 0h480v270h-480z"/><filter id="b"><feColorMatrix in="SourceGraphic" type="matrix" values="0 0 0 0 1.000000 0 0 0 0 1.000000 0 0 0 0 1.000000 0 0 0 1.000000 0"/></filter><mask id="c" fill="#fff"><use fill="#fff" fill-rule="evenodd" xlink:href="#a"/></mask></defs><g fill="none" fill-rule="evenodd"><use fill="#d90800" xlink:href="#a"/><g filter="url(#b)" opacity=".195033"><g fill="#f6f6f6" fill-rule="nonzero" mask="url(#c)"><path d="m20.609346 76.3627766.8026402-2.1280762-2.4881851-3.8620645 2.8895052-2.6798007 2.086865 2.7586189s1.2842249-1.576355 1.4447542-2.2857127-.0802646-1.1822639.642114-1.4975336c.7223755-.3152729 2.8895052-.9458124 3.4513546-1.7339883.5618462-.7881759.2407908-.9458124 1.0434309-1.9704429.8026402-1.0246275 6.7421799-3.231522 6.9027092-3.7044281.1605293-.4729062-1.1236956-.5517244-1.0434341-1.3399003.0802646-.788176 1.7658096-.788176 1.6855481-1.5763519-.0802646-.7881759-.7223787-.7881759-1.1236987-.7881759-.4013201 0-3.6921454 2.049258-4.5750502 1.9704398s-2.1671297-4.1773343-2.1671297-4.1773343l1.6052803-.3940879-.9631694-1.1034457s1.5250188-1.0246306 2.4881883-2.5221642c.9631662-1.4975368 2.2473911-5.5960528 2.9697698-6.068959.7223755-.4729062 2.2473912-.7093577 2.2473912-.7093577l-.4013201-.7093608 2.6487144-2.6797975-.8026401-1.2610821.5618493-1.970443-.8829048-.2364515.4815848-1.4187185-.8829049-9.9310204-5.6987489-6.7783167-1.5250156-1.0246306.1605261-1.7339883s.7223787-.3152697.8026402-.7093577c.0802646-.3940879-.0802615-2.7586188-.6421109-2.9162521-.5618494-.1576365-3.5316192-.394088-3.8526746-1.1034488-.3210555-.70935773-.240794-1.26108213-.240794-1.26108213l.5618494-.55172127-1.1236956-1.49753675 1.2039602-.86699414s-.8026401-1.02462745-1.6855449-1.2610821c-.8829048-.23645153-3.8526747-.63053949-3.8526747-.63053949l-.0802646-.78817593s-2.2473944.15763331-2.8092438-.63054261c-.5618462-.78817592-.9631662-2.36452777-.9631662-2.36452777h-1.4447542l.1605293 2.60098242 1.6052803 2.6009793 3.2105606 1.10344879.642114 1.65517006-.5618493 2.28571272 2.2473943 2.6009793 1.8460743 1.65517 2.6487144 5.9113226s-1.1236988.8669941-2.0066036.8669941-1.1236956-1.0246274-1.6855449-1.2610821c-.5618494-.2364515-1.9263358-.472903-2.9697699-.0788151-1.0434341.394088-1.6052803 1.3398972-2.327659 1.1822639-.7223755-.1576364-2.4079204-1.4975368-2.9697698-1.4975368-.5618462 0-1.2842249.3152729-1.2842249.3152729l.4815847 5.3595982s.5618494.3152697 1.1236988 1.4187185c.5618462 1.1034457.6421108 4.9655102.6421108 4.9655102s.1605293-.0788182 1.0434341.9458123c.8829048 1.0246275 2.8092406 4.8078738 2.8092406 4.8078738s-2.8895052 2.5221642-3.77241 3.0738886-11.07643924 2.6798006-12.11987335 2.9950704c-1.04343411.3152697-2.96976984 3.8620645-3.37108992 4.8078769-.40132008.9458092-.08026465 3.5467916-.08026465 3.5467916l-3.0500345.6305426s.56184938.8669942 2.00660357 1.5763519c1.44475101.7093577 2.24739116.3940879 3.21056062 1.1034456.96316946.7093609.1605293.7093609 1.04343411 1.1822671.8829048.472903 1.04343093 0 2.16712969.3152697 1.12369558.3152697.5618462.5517213 1.36448633.5517213.8026434 0 2.4881883-.4729031 2.4881883-.4729031s-.1605293 1.6551701.1605261 2.1280763c.3210586.472903.7223787.8669941.7223787.8669941s.9631663-.9458124 2.2473912-1.0246306 1.0434341 1.4975337 1.0434341 1.4975337l-2.1671297 1.3399003-.0802646 1.2610821 2.0066035.5517244-1.2039634 1.1034456-1.2842249.5517244-.0802646 1.2610821.7223787.9458124-.8026402.6305395-1.0434341-.1576333-.8026402 1.65517.4013201 2.6009825-.4815847 2.6797975-2.56844978 1.9704429 1.44475418 2.443346-1.04343092 2.2068913-1.52501884 1.241376-.80264334 1.6354671s-1.68554496 1.2216761-2.00660038 1.6945823c-.32105543.4729062-.80264016 3.3103401.08026465 4.0196978.8829048.7093608.1605293.9458124 1.52501884 1.3399003 1.36448635.394088 1.28422488.394088 1.28422488.394088l.48158155 2.8374371-1.12369558 2.6009793s1.60528031-.7093577 2.56844974-.9458093c.9631695-.2364546 1.2039603.394088 1.2039603.394088s.4815847-2.5221642 1.5250188-2.5221642c1.0434309 0 .5618462 1.65517.5618462 1.65517l2.4079236 1.4187155s1.3644896-1.1822639 1.7658097-1.2610821c.40132-.0788151.8026401.8669941.8026401.8669941l1.6052803-1.3399003.1605293 1.182267s.6421109-.2364547 1.1236956-.1576364c.4815847.0788182 1.2842249 1.1822638 1.2842249 1.1822638s1.1236987-1.0246274 1.9263389-1.2610821c.8026402-.2364515 2.5684498 1.1822639 3.2908253 1.0246306.7223755-.1576364 1.7658096-1.1034488 1.2039602-1.8128065-.5618462-.7093577-4.0132008-2.6009824-4.0132008-2.6009824l1.1236956-1.1034457s1.0434341.9458124 1.9263389.3152698c.8829017-.6305395.3210555-4.0196979 1.043431-4.2561525.7223755-.2364515 1.6052803.3152697 2.3276589-.1576333.7223756-.4729062 1.043431-1.2610821 1.043431-1.970443 0-.7093577-.8829048-1.3399003-.8026402-2.049258.0802647-.7093577 1.5250189-2.1280762 1.5250189-2.1280762l-1.6052835-.7881759-1.444751-.2364547-.8829048-.7093577h-1.685545s.6421108-1.1034457.7223755-1.9704398c.0802647-.8669942-.3210554-2.2068945-.3210554-2.2068945l-3.8526747-.7881759z" transform="translate(284 174)"/><g transform="translate(151 177)"><path d="m.13602625 35.1807222s5.4848125-2.1754795 6.90533969-2.8083477c1.42052687-.6328651 3.27510406-.6724196 4.02482656-.4746504.7497225.1977723 2.3280859 1.6612778 3.3540222 2.0963737 1.0259362.4350959 2.2097087.1186603 3.4329403.6724195 1.2232316.5537593 6.668585 4.3509591 6.668585 4.3509591s.3551319-1.3448422.6708044-1.3843966c.3156728-.0395545.3156728-.1186634.9470181.1977722.6313469.3164326 3.5513188 1.6217203 3.5513188 1.6217203s2.6042968-2.3336974 3.9064468-2.8479022c1.30215-.5142017 1.3810688-.0395513 1.8151188-.2768781.43405-.2373236 1.0653969-3.9554175 1.0653969-3.9554175s.552425-.3955415 1.3810656-.355987c.8286406.0395544 1.5389062.1977723 1.8151187 1.0679641s.43405 1.5030568.9864782 2.0963706c.552425.5933106 2.4070031.6724195 3.1172656 1.2261788.7102656.5537592 2.051875 2.1754795 2.6437594 1.9381527.5918875-.2373236-1.1837719-1.8985983-.5129688-2.0172617.6708063-.1186633 1.8940375 1.5821658 2.3675469 1.1866244.4735094-.3955415-.9864781-1.6612747-.2367563-2.0963706.749725-.4350959 1.7756594-.6328651 2.6437594.5933137s1.4599875 2.4919121 1.4599875 2.4919121-.8681.3955414-1.1443156.632865c-.2762125.2373268-.1578344.7515316-.5918844 1.3448422-.43405.5933137-7.6945219 7.7130629-8.7599187 7.9503896-1.0653938.2373236-1.420525-.5933137-1.9334938-.5933137-.5129687 0-3.7091531 3.203886-4.0642844 3.1247802-.3551343-.0791089-1.0259375-.9097462-1.4599875-.9493007-.43405-.0395544-1.0653937 1.8590439-1.9334937 1.9381528s-.9864781-.1582147-1.0653969-.7515284c-.0789187-.5933138.6708031-.5933138.6708031-.9888552 0-.3955415-.7102625-.5537562-1.0653937-.5142017-.3551313.0395513-.7891813 1.1470699-1.4205281 1.1470699-.6313438 0-2.7621344.2373236-3.2356438-.1582179-.4735094-.3955414-.6313453-1.0284065-.7102634-1.7403836-.0789182-.711974.5524259-2.0963706.1183772-2.6501267-.43405-.5537593-1.8545769-1.226182-2.6437588-1.3052877-.7891816-.079109-.7891816.1186602-1.2626906.0395544-.4735091-.0791089-.7891816-.7515315-1.5389041-1.0679641-.7497228-.3164325-2.7226769 0-3.1961859-.5142048-.4735091-.5142017-1.933495-1.8985983-2.5648403-1.7403836-.6313453.1582178-.0394591 1.9777104-.3551319 2.0568193-.3156728.0791058-.9864772-.9888552-1.6572816-.9888552-.6708043 0-1.7361997.4746503-2.0518722.9493007-.31567277.4746504.2367544.9888521.1972954 1.4635024-.0394591.4746504-.51296817.5537593-.51296817.9493007 0 .3955415.78918157.8306374.35513187 1.1866244-.43405.355987-5.56373094 0-5.76102625-.1977692-.19729562-.1977723-.67080469-.9888552-1.02593625-1.3052877-.35513187-.3164357-1.22323156-.3955414-1.57836344-.7910829-.35513156-.3955446-.67080437-.5933137-.7497225-.9493007-.07891812-.355987.19729532-1.3052877.11837719-1.6217202-.07891812-.3164357-1.30214969-.5537593-1.06539531-1.7008292.23675469-1.147073 1.30214969-1.3448422 1.38106812-2.4523607.07891813-1.1075154-.82864093-1.1866244-1.06539531-1.8590439-.23675469-.6724226-.43405-1.2657332-.43405-1.2657332z"/><path d="m54.9776781 35.1738369-.78125-2.0697065s.78125-.2237504.78125-.6712574c0-.4475038-1.2276781-3.1325301-1.2276781-3.1325301s-.2232156.1118783-1.2276781.1678159c-1.0044657.0559376-2.34375-.1118752-3.4040188-.0559376-1.0602687.0559376-1.2276781.4475039-2.2321437.4475039-1.0044625 0-2.1763375-.8390702-3.2366063-2.0697065-1.0602687-1.2306396-1.8415187-3.9716034-2.2879469-4.1953538-.4464281-.2237535-.78125-.0559376-1.171875-.2237535-.390625-.1678127-2.0647312-2.0137689-3.0691968-2.2375193-1.0044625-.2237534-1.5066938.1118752-2.0647313-.3915662-.5580344-.5034446-.2232125-.8950109-.8928562-1.006886-.6696438-.1118752-.9486625.3356286-1.6741063.279691-.7254469-.0559375-1.3950906-.7831325-1.6741094-.7831325-.2790156 0-.2232125.4475039-1.171875.4475039-.9486593 0-3.7946406-.8390702-5.3013384-.2237535-1.5066962.6153197-2.0089284 2.1815848-2.9017856 1.9578313-.8928572-.2237504-1.3392856-.559379-1.4508928-1.0628205-.1116072-.5034446.390625-.2237535-.2790178-.8950108-.6696429-.6712542-3.1808038-5.2022367-5.636161-5.2022367-2.4553569 0-6.8080356 3.7478499-7.31026779 3.8597251s-1.06026781-.0559376-1.45089281.5034415c-.390625.5593821-.33482125 1.7340809-.27901781 2.0697065.05580343.3356286.66964281.1118783.94866062.7271949.27901781.6153198 5.18973219 6.4328761 6.75223219 7.0481928 1.5625.6153197 4.0736606.3356286 4.6316966 0 .5580356-.3356287 1.953125-1.9018938 2.3995534-1.9018938.4464287 0 .6138394.2796911.4464287.7831326-.1674109.5034445-.8370537.3915662-.4464287.9509484.390625.559379 1.3392856.9509453 1.6741072 1.7340778.3348215.7831326.7254465 1.5103275 1.3392856 1.7900186.6138394.2796911 2.1763394-.2237535 2.6227678.0559376.44643.2796911 1.618305 2.6290887 2.399555 2.6290887s.78125-.9509485 1.6741063-1.0628237c.8928562-.1118751 1.3950875.2237535 2.4553562-.2237535 1.0602688-.4475038 1.0044656-4.3631665 2.8459813-5.146299 1.8415187-.7831325 3.2924125-.7271949 4.0736625.3356287s.4464281.9509484.8928562 1.3984523c.4464281.4475038.9486625-.1118783 1.5066969.4475038.5580344.5593791.5580344 1.4543899 1.4508937 2.2375224.8928563.7831326 1.8415157 1.6781403 3.5714282 1.5662651 1.7299093-.1118783 1.3950875-1.4543899 2.8459812-1.4543899 1.4508938 0 3.2366063 1.8459562 3.8504469 2.4053352s.9486594.3356287.9486594.3356287z"/><path d="m17.8125 14.8123911s1.5066966-.8950077 3.2366072-1.0068829 1.8415178.8390701 3.2924106.6153166c1.4508916-.2237503 4.687501-1.0068829 6.0825884-.559379 1.3950907.4475038 2.1763407 2.5731511 2.1763407 3.3003429 0 .7271949-1.3392875 1.6781433-1.7299125 1.6781433s-3.515625-.7831325-4.9665156-.7831325c-1.4508938 0-2.0647332.279688-2.95759.8390701-.8928572.5593791-1.0602682.7831326-1.6183038.7831326s-.4464284-.4475039-.78125-1.3984523c-.3348213-.9509453-2.734375-3.4681588-2.734375-3.4681588z"/><path d="m52.1875 10.8407908s-3.6272313-2.06970646-5.1897313-1.84595297c-1.5625.22375036-2.7901781 1.28657397-2.4553593 2.01376887.3348218.727195 4.4084843 1.3984492 4.3526812 2.1815817-.0558062.7831326-1.2834844 1.0068861-2.2321437 1.0068861-.9486625 0-.8370532-.9509485-2.9575907-.9509485-2.1205343 0-5.8035718.6153198-5.8035718 1.7900186s1.6183062 1.2306364 1.953125 1.6781402c.3348218.4475039.1116093 1.4543899.4464312 1.6222027.3348188.1678159 1.0044625-.2237504 1.5625.3915662.5580344.6153198-.2790187 1.2865771.8370531 2.0137721 1.1160719.7271918 4.9107125.0559376 5.5245532.559379.6138375.5034415 1.2834812 1.286574 1.2834812 1.286574h2.1205375l.390625-3.5240964-1.8973219-3.0765925.390625-3.1325301z"/><path d="m27.2991063 4.63166819c1.5066968 0 .8928593 1.06282362 2.0089281 1.79001856 1.1160719.72719494 2.0089312 0 2.5111625.67125735.5022312.67125421.0558031 3.0765925.9486593 3.7478467.8928594.6712574 1.7299125-.2237503 2.5111625.1678159.78125.3915663.0558032 1.2306364.9486594 1.3984492.8928563.1678159 3.5714281.0559376 5.46875-1.2306364 1.8973219-1.28657396 3.4040188-2.34939757 2.7901781-4.0834754-.6138375-1.73408097-2.5111593-.39156627-3.7946406-1.00688603-1.2834844-.61531662-1.2834844-2.79690144-2.6227687-3.80378747-1.3392875-1.00688289-4.9665188-1.17469879-7.5892875-1.34251156-2.6227657-.16781277-3.125-.89500771-5.2455344-.67125735-2.1205356.22375349-3.6272322.83907012-5.1897322 2.34939759s-1.2834822 2.06970964-.8928572 2.79690144c.390625.72719494 1.6741072 2.12564723 4.6316966 1.62220579 2.9575897-.50344458 1.3950894-2.23752241 3.515624-2.40533832z"/></g><path d="m78.5851082.00985054-1.8642632 1.69429348-3.7186627-.6796875-1.5190294 1.07370924-3.0972416 5.23063859-3.5509776 1.68444293-3.5509777-.89639945-4.0638966.16745924-.6707403-2.4232337-2.2588163-1.12296196-1.0159742.78804348-5.1883729-4.27513587-4.5077688-.453125-1.4598464.95550272-5.296875 2.02921196-2.0911313.62058423-1.5190293 3.15217392-3.9455307 2.81725545s-1.4697102 1.6267487-3.8370287 2.6399456c-2.3673184 1.0132001-4.7867747 1.6886669-7.6050104.7880435-2.818239-.9006202-3.2156076-1.0638587-4.0047137-1.0638587-.7891062 0-.8976083.2758152-.8976083.2758152s.2184151 1.3481186-.739787 2.6990489c-.9581989 1.3509335-4.89950322 3.6672171-6.81590431 3.3294837-1.91640109-.3377333-2.76187151-.5713315-2.76187151-.5713315l-2.1700419 2.7680027-.2959148 2.3345788-.00984805.0788044v.0098348l1.9135824 3.0832201.1085021.1773098-.27618715 3.3688858s3.04087734 1.639411 3.09724162 4.2849864c.03807279 1.7870305-1.07381565 2.3866591-1.80508031 2.590693.49143006-.0554089.62142109-.1182065.62142109-.1182065s1.24284218 2.7018638 1.24284218 3.1521739c0 .4503132-.78910615.6796875-.78910615.6796875l.78910615 2.0784646-.37482542.0591033h.2564595s2.37436357-.3349185 2.71255237-.3349185.90183469 2.9776791 2.76187149 3.0339674c1.8600337.0562915 3.9948499-1.6351902 3.9948499-1.6351902l-2.6435056-4.8957201s.5072816-.106947.3945531-.669837c-.1127286-.5628868-1.0159742-1.1820652-1.0159742-1.1820652s.7285123-.7894525 2.4758205-1.4086277c1.7473051-.6191784 2.3673185-.1139858 3.1564246-.6205842.7891062-.5065985.1705038-.904841.6214211-1.0737093.4509205-.1688651 2.7097337-.9006202 3.8370286-.3940217 1.127295.5066016-.3973717 2.1403828-.453736 2.9847147-.0563643.8443318.5622381 2.0883152.5622381 2.0883152s1.8656711-.4545309 3.2747905-.6796875c1.4091163-.2251535 1.6838957.9611325 3.2057437.6796875 1.5218481-.281445 1.2428422-.3940218 1.2428422-.3940218s-.2282789-1.1271858.7299232-1.8026494c.958199-.6754668 1.0695229-.2223418 1.7458974-1.122962.6763776-.9006233.2860509-1.5212044 1.0751571-2.1966712.7891061-.6754667 2.420864-1.8603468 3.0972416-2.0292119s2.876011 2.0855003 2.9887395 2.8172554c.1127317.7317551-.5030551.2772242-.5030551 1.6844429v3.043818s-1.4697102-.9034351-2.6533695-.453125c-1.1836592.4503101-1.631761 1.6872578.4537361 1.7435462 2.0854939.0562915 5.2940563-.2814419 6.4213512 0 1.127295.281445 1.7458974 1.7435462 1.7458974 1.7435462l5.306723-5.0631636-.1183659-2.0784647 1.8642633-1.7533967s.0012625.9583176 1.0159741 1.4086277c1.0145633.4503101 1.8515839.3419541 2.5843227 2.2557744.7327418 1.9138172.8482891 2.029212.8482891 2.029212s-1.0737462.3869861-1.6373953 1.6253397c-.5636459 1.2383536-.8454704 1.639411.3945531 3.1029212 1.2400266 1.463507 1.924854 2.2459239 2.5448673 3.4279891.6200102 1.1820652-.057772 2.1375679.5622381 2.5315897.6200134.3940217.900427.3968366 1.7458974.0591032.8454704-.3377333-.1169582-.8401111 1.2921613-.8963994 1.4091195-.0562884 2.9887395.842926 2.9887395 2.1375679 0 1.294642-.7299232 3.1521739-.7299232 3.1521739s5.12919-.1674592 6.7074023-.1674592 4.3992667.7289402 4.3992667.7289402.8384253-1.2946451 1.6275315-1.576087c.7891061-.281445 1.0695229.109765 1.7458973-.0591032.6763776-.1688651 1.2414344-1.8026495 2.9887395-1.014606s1.0765681 1.4128485 1.6965782 2.0883152c.6200134.6754668 1.1244763.8372962 1.1244763.8372962s-.3410075.4587517-.059183 1.7533968c.1761412.8091504.4381686 1.2692953.6115573 1.4972826l3.018331-.6304348s-.319648-2.6303473.0789106-3.5855978c.3985586-.9552537 2.3075831-4.5379011 3.3438373-4.856318 1.0362542-.3184168 11.1570397-2.466885 12.0338687-3.0241168.87683-.5572319 3.748254-3.1029212 3.748254-3.1029212s-1.914633-3.8214624-2.791463-4.856318c-.876829-1.0348586-1.035702-.9555027-1.035702-.9555027s-.073304-3.8994661-.631285-5.0139266c-.557983-1.1144637-1.124476-1.4381793-1.124476-1.4381793l-.4734635-5.4079484s.7144535-.325068 1.2724335-.325068c.557983 0 2.23188 1.3577737 2.949284 1.5169837.717408.1592069 1.281746-.7938939 2.318-1.1919157 1.036254-.3980219 2.391301-.1600075 2.949284.0788043.557983.238815.790157 1.2707201 1.666987 1.2707201.876829 0 1.992493-.8766983 1.992493-.8766983l-2.623778-5.9694294-1.834672-1.6745924-2.229225-2.6202445.552374-2.3148778-.641148-1.6647418-3.186016-1.122962-1.588077-2.62024452-.009848-.17730978-.266323-.18716033-2.5448672-.78804348-3.9455307.10835598-5.010824-3.21127717-2.5941865-2.98471468-4.7938198-.21671195-1.2921613 1.06385869-2.3673185-1.18206522zm-32.4223987 36.30910326-1.7458973 2.6300951-.3255063-2.2360734z" transform="translate(201 169)"/><path d="m49.9485453.0686454s.5047858 3.53173431-2.9070582 7.67847803c-3.411841 4.14674377-6.4894936 4.81358157-7.2725395 5.37395397-.783046.5603693.0531343.8475596-1.2332975 1.5200052-1.2864349.6724425-1.7898207.2227469-2.3491379.5589697-.5593203.3362228.0559314.666841-.391523 1.4513598-.4474575.7845189-1.9604088 1.3448881-2.4078664 2.3535565-.4474544 1.0086653-1.0053746 4.258817-1.7324892 5.0993724-.7271145.8405554-7.4878771 2.0789749-7.4878771 2.0789749s.3355915 2.070568.7830459 3.0792364c.4474544 1.0086653 1.2794408 1.34909 1.2235094 1.8534257-.0559314.5043327-.783046 1.2244111-.783046 1.7847804 0 .5603724 3.4188351 1.2356171 3.8662895 2.020136.4474544.7845188 1.0039746 2.1882489-.0587284 4.3736924-1.0627062 2.1854467-1.3409663 2.0145345-.9494433 2.686977.391523.6724456 1.5618948.8979948 2.8483298-.1667102 1.2864317-1.0647051 1.2305003-2.3017218 1.9576149-1.8534258.7271114.448296.3369885 3.4224634.6166487 4.2069822.2796602.7845189.8389774.507135 1.174569 1.2356172s-.2237257 1.0030638 0 1.8436192c.2237287.8405555.7872399.3936622 1.0669001 1.4023274.2796602 1.0086685-.5635143.8391528.1076688 1.735748.6711832.896592 1.8415582 1.0072656 2.0652838 1.7357479.2237288.7284822-.2740661 2.7458159-.2740661 2.7458159l-3.6901042-.2157427-6.1566989-3.3636245-7.0474138 2.0103295-.9494433.8433577-2.7993894-.3922594-2.3491379-1.676909-2.4568067 1.3434885-1.8499462-.951229s.0615255 1.9024581-.2740661 2.6869769c-.33559153.7845189-2.74066087 5.1035743-3.52370685 5.3837605-.78304597.2801831-1.6248204-.004205-2.01634339.5001308-.39152299.5043326-.28245721 1.3434884-.84177442 1.7357479-.55931722.3922594-2.96578664.1681129-3.35730963.3922594-.39152299.2241496-.66978307 1.4037301-.16639727 1.6278765.50338581.2241496 1.45562922-.1106736 1.79121767.2255492.33559158.3362228-.22512572 2.0691684-.22512572 2.0691684l-1.12562859.6080021 4.48293822 3.7068515 1.0081717-.7845189 2.24146911 1.1179394.66558908 2.4123954 4.03268679-.1667103 3.5237069.8923902 3.5237069-1.676909 3.0734554-5.2072437 1.5073635-1.0689069 3.6901042.6766475 1.8499461-1.6867155 2.349138 1.1767782 1.2822378-1.0591004 4.7570043.2157427 2.5742636 2.971365 4.972342 3.1969143 3.9152299-.1078714 2.5253232.7845189.264278.1863232-.1566092-2.4418149h1.429059s.3957483 1.5806862.9494432 2.3731695c.5536981.7924832 2.7700251.6374215 2.7700251.6374215v.019613c1.1351317-.4807531 2.0969627-1.2978389 1.8988865-2.686977-.4474544-3.1380753-2.4078663-3.9225941-2.4078663-3.9225941l1.2920258-1.3434885s2.0708779.6206109 4.1403556-.8923902c2.0694778-1.513001 1.3899066-2.5202667 1.3899066-2.5202667l5.5400503 1.8436192s.1677942-1.6278766-.391523-2.4123954c-.5593203-.7845188-3.2398527-2.6281381-3.2398527-2.6281381l3.014727-.6766474s2.0680808 2.5763033 2.9070582 2.9125261c.8389805.3362228 4.1948901-.054637 4.6982759.2255492.5033889.280183 1.3996947 1.961297 1.3996947 1.961297s2.2960035-.2745815 2.7993893.1176779.783046 1.2846495.783046 1.2846495l2.2904095.5589697-.0489404-2.0103295s-1.8457521-.9582332-.783046-1.6867155c1.0627062-.7284822 1.3954976.8405555 2.2904095.7845189.8949088-.0560366 1.059906-.6178086 1.5073635-.6178086.4474544 0 .5061829 1.0072657 1.2332974.9512291.7271146-.0560366 3.6327727-1.845022 3.8565015-2.4614279.2237256-.616409.1132629-1.0128703.6166487-1.0689069s.6739802.7298818 1.2332974.6178086c.5593203-.1120763 1.6751609-1.2846496 3.0734554-2.0691684 1.3982978-.7845188 3.1321839-1.6278766 3.1321839-1.6278766s1.345163 1.7987887 2.407866 1.6867155c1.062707-.1120763 2.29041-1.3476904 3.464979-2.4123954 1.174569-1.0647019 1.673761-2.5202667 1.673761-2.5202667s-.612455-.2269519-.332795-.8433578c.279657-.616409 1.173172-.3922594 1.340966-1.1767782.167795-.7845188-.053134-1.9024582-.332794-2.2947176s-1.282238-.343227-1.282238-.343227-1.349357-1.6208723-3.083244-2.8536872c-1.733886-1.2328149-3.915229-2.2456851-3.915229-2.2456851l-.166398-2.1280074s2.073675.5085377 3.024515-.5001307c.950844-1.0086653.440464-3.9814331.440464-3.9814331s-1.396898 0-2.907058-.3922594c-1.5101609-.3922594-1.6779552-.3866579-1.9576153-.666841-.2796602-.2801862.0587284-3.1464791-.3327946-3.7068515-.391523-.5603692-.7243175-.951229-.7243175-.951229s-2.0121494 1.294456-2.5155352 1.294456-.5635144-1.2874519-1.0669002-1.3434885c-.5033858-.0560397-2.5686695.3306182-3.2398527.2745816-.6711831-.0560366-1.3507543-.4510983-1.3507543-.4510983s-1.3339752.9540314-1.7814296.6178086-2.6343922-2.9629613-2.8581178-3.5793672c-.2237288-.616409-.0545345-1.2412217-.9494433-2.1378138-.8949088-.896592-3.1909123-1.0030607-4.3654813-.2745816-1.1745689.7284822-1.3409662 2.3535565-1.3409662 2.3535565s-1.4528291-.8951925-2.9070582-.9512291-3.6901042.1078714-3.6901042.1078714.1649972-.5603693-.4502514-.7845189c-.6152518-.2241464-1.5073635.3334205-1.5073635.3334205l-1.957615-1.676909-1.8499461-4.7659518s-2.2372751 0-2.7406609-.3922595c-.5033858-.3922594-1.2864318-3.5275324-.783046-3.8637552s2.3001976-1.4023274 2.3001976-1.4023274l2.1729526-2.9125261s-1.9002835-.2801862-2.5155352-1.1767783c-.6152518-.89659203-.0545345-1.90526044.2251257-1.96129705.279657-.05603661 1.0081717-.39225942 1.0081717-.39225942l-3.1321839-4.99150104-2.5155352-1.45135984-3.3573097 3.24594666-.8907148-1.01006799-.7830459.84335774-3.4747666-4.58943515z" transform="translate(248 104)"/><g transform="translate(180 121)"><path d="m31.9408096 62.327527c-.9106455 1.505227-2.4473562 1.6167243-3.6425753 1.505227-1.1952192-.1115005-1.1952192-.0557519-2.0489467-.1115005-.8537274-.0557518-1.1383043.2229978-1.5367107-.0557487-.3984064-.2787466-.5122359-1.114983-1.5936255-1.5052269-1.0813865-.3902439-2.8457594-.6689874-3.8133163-1.2822291-.9675602-.6132418-.2276622-.7804878-1.7643729-1.3937296-1.5367076-.6132386-4.7239586-.5017412-5.3500271-1.2264804-.6260686-.7247391-1.4797961-7.0801389-3.41491319-7.804878-1.93511394-.7247391-3.41490996-.6132387-5.12236494.2787465-1.70745817.8919852-1.82128765 1.1707317-2.39043824 1.0592344-.56915379-.1115005-1.36596654-1.3937296-1.08138965-1.8397222.2845769-.4459926 1.87820239-1.8954708 2.50426773-2.0627169.62606853-.1672491.22766215.1672461 1.08138964-.2229978s5.35060718-2.0995684 5.86284622-1.988071c.51223583.1115004 5.97551553 4.3295344 7.34147893 5.1657709 1.3659633.8362365 3.8702342 1.5052269 5.5207745 3.4006977 1.6505402 1.8954709 1.5936255 2.4529608 2.9595888 3.3449491 1.3659665.8919852 2.9026773 1.0592312 4.4963028 2.4529608 1.4130932.9412527 1.8367522 1.6448406 1.9920319 2.2857147z"/><path d="m35.1447012 8.55149268c-2.9026741 5.24041682-8.3039267 11.34752472-11.434263 15.02696582-3.1303362 3.6794443-7.823984 8.9776391-7.823984 8.9776391s1.7088797 2.7330997 1.0258964 2.1756097c-.6829833-.5574931-1.8730359-1.2049826-2.9544255-1.4279805-1.0813896-.2229978-.9476175-.5387832-1.6305976-.7060292-.6829833-.1672461-2.1283857.2392975-2.0714709 1.4100292.0569179 1.1707317.2848382.7755489.341753 1.6117854.0569147.8362365-1.8241339 2.2926829-2.05179287 2.6829268-.22766215.3902439-.7896988.8905928-.04980079 1.7268293.739898.8362396 2.95105336-.9519173 3.40637446-.2829268.4553212.6689873-.5620366 1.0634146-.8466135 2.2341463s.795388 1.2278759 1.3645418 1.7853659c.5691506.5574899.7922837.8565291 1.3614343 1.9715122.5691538 1.1149799 1.0330645 1.553536 1.9419123 1.8926829.7966184.2972659.6089498.3356472 1.3196845.8031219.2677227.1760906 1.1897371-.3605291 1.8900908-.157184.7003506.2033483 1.1790407 1.1466584 1.4722965 1.6021011 1.194639-.2804511 2.2206725.7407298 2.7329115 1.4097171.5122359.6689904.4480574 2.1016913 2.1986422 2.6968195 1.7460431.5935828 3.2981674 1.0046876 4.8917929 1.673678 1.5936255.6689874 2.2851442 1.2099903 4.9601593 2.380722 2.675012 1.1707317 4.9487745 1.8383266 7.5099602 1.7268293 2.5611825-.1114974 3.2441657-1.732402 4.7808765-2.6243903 1.5367076-.8919852 3.5856574.0585366 3.5856574.0585366l3.5258964-2.2341463 1.7629482-3.0048781 4.8406374-1.3365854 2.1613546-1.7365853 5.2988048-.1073171 2.5398406-.1853658c.1463777-.5197768.3750853-1.4667458.1294821-1.7073171-.3414885-.3344952-1.3104733-.0012488-1.8227092-.2243903-.5122358-.2229947-.2290836-1.3965143.1693227-1.6195122.3984064-.2229947 2.8471841 0 3.4163347-.3902439s.4581673-1.225088.8565737-1.7268292c.3984064-.5017444 1.2549801-.2188176 2.0517928-.497561.7968128-.2787465 3.2441658-4.5756098 3.5856574-5.3560976.3148112-.7195129.2852781-2.3198907.2788845-2.5756097l-1.5936255-1.7170732-1.9322709-1.4536585-3.6454184 2.2926829-3.12749.497561-1.3645418 1.2292683-3.3565737 1.7268292h-1.6533865s-.2319299-1.3351929-1.4840637-2.6731707c-1.2521339-1.3379778-2.3249881-2.5686416-2.2111554-3.0146341.1138295-.4459926 1.3005131-.1672461 1.812749-.3902439.512239-.2229948.6331824-.7818834.3486056-1.0048781-.2845769-.2229979-2.8500271.170034-3.0776893-.3317073-.227659-.5017413.6829833-2.1212566 1.1952191-2.4.5122391-.2787466 1.1994869.0613245 1.4840638-.2731707.2845769-.3344953.7384733-1.1219513.5677291-1.5121952-.1707474-.3902439-1.5936255-.107317-1.5936255-.107317s-.4581674-.7219513-.8565737-1.892683c-.3984064-1.1707317.2874199-1.8411145.0597609-2.5658536-.2276621-.724736-1.0258964-.3874591-1.4243028-1.1121951-.3984063-.7247392.112408-1.5121952.9661355-1.9024391.8537307-.3902439 2.4459315-.0487805 2.9581673-.0487805.5122359 0 1.3659634-1.4564464 1.1952191-1.902439-.1707474-.4459926-2.5569179-1.4466903-3.2968127-2.2829268-.739898-.8362365-.3984064-1.0634146-.3984064-1.0634146s-1.5367107.0083668-1.9920319-.6048781c-.4526693-.609664 1.065565-1.3305163.4681275-1.9414634-.0043665.001561-.4959362-.17640587-.4959362-.17640587l-1.0883857-.11699824-.7843219.85095961-.5424287.0638345-.3627091.3138155-.3453451-.0424929-.5819091.8043801-.685498-.4936617s.0137051-1.0688843.0199203-1.9944554c-.4877578-.04455649-1.3546582-.13221464-1.3546582-.13221464s-.1731761.22056586-.8255012.71196098c-.3723155.03904312-.9585657-.37822439-.9585657-.37822439s-.6952.45477775-1.4437673.87176115c-.7485674.4169866-1.0701706.7462182-2.070263.7143524-.7746868-.0246946-1.195337-.500327-1.5043761-.5022345-.4798534-.0028098-.4385084.2403559-.7925354.2374806-.4973514-.0040274-1.0537753-.2483294-1.2182216-.5715575-.1644494-.32323122.139302-.90176.5605801-1.19113991.385157-.26456663.3754008-2.44071024.3881785-3.1597799.673294-.73263141 1.4997546-1.63412293 1.6135458-2.15720273.2299952-1.05727688.7251984-1.89803707.775761-2.05962615-.3738008-.1459481-1.0103395-.73642458-1.376357-.53582361-.3417944.18732644-.6414661.19608039-.9012207.17963708-.2154422.30217365-.3960191.71454907-.3960191.71454907l-4.1939124-1.80092878s-3.6266932 7.30915278-4.1997195 8.35272741z"/></g><g transform="translate(220 39)"><g transform="translate(6.901961)"><path d="m4.71708549 20.3051852c.44818196 1.2851374-3.69747765 2.2350208-4.42576941 1.8438918-.72829177-.391129 0-1.6203913 1.45658353-2.0673954 1.45658353-.4470042 2.63305412-.4470042 2.96918588.2235036z"/><path d="m7.18207373 20.0258065c1.90476235.2793787 3.19327687-3.5760365 4.20167847-3.9671655 1.0084047-.391129 1.0084047.3352539 1.7366964-.3352539.7282918-.6705078.056022-1.6203913 1.0644267-2.5144027 1.0084016-.8940083 1.2885145-.4470042 1.7366933-1.5645161.4481789-1.1175089-.4481788-1.1733871-.2801129-2.40264936.168069-1.22926223 1.2324925-4.19066597.8963608-4.69354839-.3361349-.50287929-.8403389.05587513-1.1764706-.55875442-.3361349-.61463268-.168069-3.46428616-1.4005616-3.79954006-1.2324925-.33525391-4.7619043 5.81106035-5.65826195 7.54320187-.89636078 1.73214464-.95238274 2.12327367-1.84874039 3.79954006-.89635765 1.6762664-1.51260549 1.9556452-1.62464941 3.7436649-.11204706 1.7880167-.28011294 4.6935484 2.35294118 4.7494236z"/></g><path d="m15.6666667 22.0694556c-.8543404.0139555-1.8641443.1396894-2.4803922.5866936-1.2324925.8940083-1.5140047 4.3555034-2.1862745 7.3727823-.6722698 3.017282-.2170886 3.408411-1.2254902 6.6491935-1.0084047 3.2407856-2.57843137 7.2023626-2.57843137 8.096371 0 .8940083.7254902 1.89977.7254902 3.1290322 0 1.2292623-1.17366902 2.3481698-1.11764706 5.3095766.05602196 2.9614038.16526745 2.7365077-.45098039 6.0331654-.61624785 3.2966607-2.18627451 10.2280242-2.18627451 10.2280242s-.2254902 1.9542464-.61764706 4.0775201c-.39215686 2.1232706-1.78991686 4.0858997-2.29411765 5.8180444-.50420078 1.7321415-1.07843137 3.3930443-1.07843137 3.3930443-.00236549.0168499-.00747608.0320789-.00980392.0488912l4.09803921 1.7991935s.18009412-.4109514.39215687-.7138105c.25568.0164806.54592.0019651.88235294-.1857863.36027607-.2010559.99480784.3915233 1.36274509.5378024-.04976941.1619556-.53831843 1.0035308-.76470588 2.0632057-.11200627.5242662-.92550274 1.4266948-1.58823529 2.1609879-.01257726.7207006-.00323765 2.9029784-.38235294 3.1681452-.41466981.2900362-.71088942.8689792-.54901961 1.1929435.16186667.3239612.70652863.5728789 1.19607843.5769153.34847373.0028819.30218353-.2374935.7745098-.2346774.30419138.0019118.71785726.4739389 1.48039216.4986895.98440471.0319381 1.30239059-.2958781 2.03921569-.7138105.63497098-.3601578 1.15129096-.6915693 1.30392156-.7920362.5591216-.5557631.7658353-.8556214 1.4411765-1.427621.6608941.0066022.8280878-.5010394 1.127451-1.1929436 1.1889631-.3775834 1.8564235-1.2384741 2.4313725-.7431451.5141459.4429489.441418.7973838.1666667 1.7307459-.138629.4709319-.2780298.7091264-.5.9876008-.0795043.0997442-.4624502.2344741-1.3235294.3520162-.0461679.0063018-.0881569.0315187-.1372549.0684476-.0063404.9075695-.0196079 1.9360887-.0196079 1.9360887l.6764706.4986895.5784314-.8115928.3333333.0488912.3627451-.3129033.5294118-.0684475.7745098-.8507057 1.0686274.1173387s.4597867.1713959.4803922.1760081c.7975843-.4123376 1.6578855-.7809063 2.2941176-1.2418347.8403357-.7263798.2815122-1.3466009 1.009804-1.6818548.7282917-.3352539 2.2422964.2290921 2.9705882-.2737903.7282918-.5028793.8333333-1.7894154.8333333-1.7894154s1.627451.3394437 2.4117647-.1075605c.7843138-.4470072.7268926-2.4627173 1.3431373-2.6303427.6162478-.1676285 1.1764706-.1075605 1.1764706-.1075605l-.3333334 2.2881049s2.8585444-1.3382214 3.3627451-1.1147178c.504204.2235005 0 1.5058468 0 1.5058468s1.2885177-.1676254 1.5686275.391129c.2801129.5587576.2787106 1.1161133-.2254902 1.339617-.5042039.2235005-1.8529412-.1662299-1.8529412-.1662299l-.1666667 3.1290323s.9565836.8912172 1.8529412 1.1147177c.8963608.2235037 3.1302526-.5587544 3.5784314 0 .448182.5587576.7843137 1.4527659.3921569 1.9556452-.3921569.5028824-.8333334.5615518-.8333334.8409274 0 .2793788-.3403388.8968026 1.6764706.8409274 2.0168063-.0558782 2.3585443-.4497984 2.8627451-1.6231855s-.2254902-.8381332.1666667-1.5645161c.3921568-.7263798 1.3389364-3.4098066 1.8431372-4.1361895s.1750683-1.1161133.7352942-1.730746c.5602227-.6146295 2.745098-1.2320564 2.745098-1.2320564s-.1708706-.7822581-1.2352941-1.1733871c-1.0644267-.3911291-3.2521036-1.5659148-4.372549-1.3982863-1.1204487.1676254-1.5644236.6719033-2.4607844.6160282-.8963576-.0558751-2.8081223-3.2435767-4.2647058-3.1877016-1.4565804.0558751-2.0644267.2276934-2.5686275.2835685-.5042008.0558752-2.8571451-1.3382213-3.9215686-1.5058467-1.0644267-.1676254-1.9117647-1.730746-1.9117647-1.730746l.5098039-.6746976s1.3389365-.0544764 1.8431372-.1662298c.5042008-.1117503 1.6302526-2.1833386 2.4705883-2.6303428.8403357-.4470041 2.347338-1.9500567 1.8431372-2.6205645-.5042007-.6705078-2.1218509-.1732138-2.0098039-1.6818548.1120439-1.508641 1.1176471-.8870275 1.1176471-2.0045363 0-1.117512-.1652675-1.5645161.4509804-2.3467742.6162447-.7822581 1.117647-1.0672222.3333333-2.0729839-.7843137-1.0057585-2.8627451-4.5245243-2.8627451-5.2509072 0-.726383-.3893553-.8981981-.7254902-1.4569557-.3361318-.5587544-.6750682-2.4026493-.0588235-3.1290322.6162478-.726383 3.8137255-1.3340285 4.5980392-1.2222783.7843137.1117503 1.6232471 1.677662 2.127451 1.7894154.5042008.1117502 5.1526619-2.7937815 5.6568627-3.5201613.5042008-.726383.1680659-1.5659117.7843137-2.1805444.6162479-.6146327 2.7436989-1.2306577 2.9117648-2.1805443.168069-.9498835.1134462-4.2996283-.5588236-4.6348791-.6722698-.3352539-2.9103623-1.2362493-3.8627451-1.1244959-.9523796.1117502-2.29552 2.0157132-3.3039215 1.8480846-1.0084048-.1676253-.9509804-.5042779-1.3431373-1.0071572s-.2843137-1.2250725-.6764706-1.6720766c-.3921569-.4470073-1.0098039-1.2320565-1.0098039-1.2320565s.8403357-6.2049805.3921569-7.0989919c-.4481789-.8940083-4.3137255-7.5390121-4.3137255-7.5390121l-3.9215687-.391129s-1.0644266 1.7894153-1.9607843 2.5716733c-.8963576.7822581-2.2941176 1.5645162-2.2941176 1.5645162s1.4019608.9484879 1.4019608 1.7307459c0 .7822581-.2829114 1.7265531-1.627451.6649194-1.3445365-1.0616368-1.6764706-2.3956653-1.6764706-2.3956653s-3.1974777-.5070722-3.8137255-2.2392137c-.6162447-1.7321447-.2745098-4.1361895-.2745098-4.1361895s-.7044831-.0921939-1.5588235-.0782259z"/><path d="m36.7731137 70.7608304c-.6147488.5028761-1.6775913.1627034-1.7727533.1117502-.095162-.0509531-.2709793-2.7698788-.1143699-2.8496534.1566094-.0797747.2912344.1761082.400298.2235005s-.0483336.8120245.0285973.8940083c.0769244.0819838 1.401043 1.1733871 1.4582279 1.6203944z"/></g><path d="m12.4707031.04017857c-.2162375.00716786-.5133906.03443786-.8203125.12053572-.6138375.1721925-.5566406 2.2428225-1.3378906 2.70200892-.78125.45918322-2.40234375.11049108-2.40234375.11049108s-.10463125 1.32158892-.83007812 1.83816964c-.72544688.51658393-2.2335375-.06313822-2.95898438.28125-.72544688.34438821-.16880625.98150786-1.00585937 1.72767857-.81252188.72430393-2.20285625 1.24524643-2.28515625 1.27566964.5974125.63000322-.89413126 1.36965536-.44921875 1.99888396.44642812.6313757 1.953125.6227678 1.953125.6227678s-.33482188.2338972.390625 1.0948661c.72544374.8609689 3.06500937 1.8912632 3.23242187 2.3504464.16740938.4591832-.66964375 1.9587054-1.171875 1.9587054s-2.06333437-.3515625-2.90039062.0502232c-.83705313.4017857-1.33789063 1.2125314-.94726563 1.9587054.390625.7461707 1.17326875.3989185 1.39648438 1.1450892.22321249.746174-.44921875 1.436384-.05859375 2.6417411.390625 1.2053572.83984375 1.9486607.83984375 1.9486607s1.39508749-.2912946 1.5625.1104911c.16740937.4017857-.27762188 1.2125314-.55664063 1.5569196-.27901875.3443883-.95284375-.0057535-1.45507812.28125-.50223126.2869875-1.3950875 1.9544015-1.171875 2.4709822.22321562.5165807 2.73855937.1119246 3.01757812.3415178.27901875.22959.1604375.8050083-.34179687 1.0345983-.50223126.2295932-1.6657375-.0573975-1.77734375.4017857-.11160938.4591832.94029062 1.726245 2.16796875 3.1037946 1.22767812 1.3775497 1.45507812 2.7522322 1.45507812 2.7522322h1.62109375l3.29101565-1.7779018 1.3378906-1.265625 3.0664063-.5122768 3.5742187-2.3604911 1.8945313 1.4966518 1.5625 1.7678571c-.000625-.0223071 0-.1004464 0-.1004464l1.8457031.9743304 2.4511719-1.3761161 2.34375 1.7176339 2.7929687.4017857.9472656-.8638392 7.03125-2.0591518 6.1425782 3.4453125 3.6816406.2209821s.4966531-2.0663261.2734375-2.8125c-.2232125-.7461739-1.3909031-.8595353-2.0605469-1.7779018-.6696437-.9183696.1715969-.7447371-.1074219-1.7779018-.2790187-1.0331614-.8412375-.575415-1.0644531-1.4363839-.2232125-.8609689.3348219-1.1422189 0-1.8883928-.3348219-.746174-.8928562-.4620536-1.171875-1.265625-.2790187-.8035715.1102094-3.8499686-.6152344-4.3091518-.7254468-.4591832-.6696437.8078753-1.953125 1.8984375-1.2834843 1.0905621-2.4511718.8595353-2.8417968.1707589-.390625-.6887732-.1130032-.5137104.9472656-2.7522321 1.0602656-2.2385186.5050219-3.6763393.0585937-4.4799108-.4464281-.8035714-3.8574218-1.495215-3.8574218-2.0691964 0-.5739782.7254468-1.3115443.78125-1.828125.0558031-.5165839-.774275-.8652761-1.2207032-1.89843749-.4304093-.99609107-.7485937-2.96102892-.7714843-3.10379464-1.1500063-.78953464-2.42175-1.64724428-2.9199219-1.94866071-.9486594-.57397822-1.7285156-.34151786-2.5097656-1.14508929s-.46875-1.125-.46875-1.125l-.1171875-.10044643c-.3661344.11069036-2.0873532.65912465-2.5878907 1.22544643-.5580375.63137893-.2301906 1.03172786-.7324218 1.77790179-.5022313.74617393-1.4453125 3.50271321-1.8359375 4.24888393-.390625.74617392.3362156.40178571-.1660157 1.60714281-.5022312 1.2053572-.8426343 1.61001-2.8515625 1.6674108-2.0089312.0573975-1.6699218-.5768486-1.6699218-.8638393 0-.2869875.4394531-.3472554.8300781-.8638393.390625-.5165807.0558062-1.43494716-.390625-2.00892859-.3723875-.47878392-1.9739375-.00887142-3.0175781.03011786-.0270625 1.52947933-.105075 3.87585963-.3710938 4.25892853-.3945906.5682118-2.6433125.6477525-2.9589844.1607143-.3156718-.4870382.0773313-3.0405182.15625-4.33928569.07065-1.16274857.6543688-1.27346464.78125-1.28571428l.1660157-3.17410714c-.3048688-.13570072-.6157469-.28252929-.7128907-.40178572-.2162375-.26546464-.1283468-.93988928.1367188-1.0546875.2513594-.10885178 1.0025906-.1652625 1.0839844-.17075893.0104687-.02770714.4968531-1.30969928 0-1.53683035-.5022313-.22959322-3.3496094 1.14508928-3.3496094 1.14508928l.3320312-2.35044643s-.135325-.01726071-.3515625-.01002857z" transform="translate(236 123)"/><g transform="translate(256 72)"><path d="m33.5893429.08005618c-.2078856.06303624-.9126972.27281545-1.6392227.47033006-.8413457.22873331-1.1750797-.22873012-1.5116186 0-.3365389.22873331-.6254002 1.83128511-1.7471955 3.8326896-1.1217922 2.0014045-2.7413867 3.20224719-2.797476 3.60252809s-.0028269 2.11148177.333734 4.91344807c.3365389 2.8019663-.5076117 4.0013776-.0588942 4.5732092.4487175.5718285 1.1820904.345958 2.6404247 2.0614467 1.458331 1.7154886 1.0040068 2.5732329 1.4527243 2.8019663.4487207.2287301 5.7856562-.0614704 8.0292468-.2902037 2.2435906-.2287301 10.6009615-2.2287064 10.6009615-3.3723666 0-1.1436601-1.1862962-.1644033-2.1398237-1.2508778-.9535243-1.0864776.4501216-1.6054114.6183894-2.2916081l.5791267-2.3616573c-1.6309493-2.0483879-5.3349347-5.86613261-5.8894231-6.27440312-.7139049-.52564567-2.6949341-.32616809-3.13121-.73051264s-.7558093-2.14150281-.7558093-2.14150281.0451523-.07648567.1276042-.1801264c-.1654001-.34933315-.9222334-1.82605584-2.463742-2.61183286-.7041551-.35893989-1.498197-.58385933-2.2477965-.75052669z"/><path d="m40.3621795 36.1167723c-2.0192303 3.0306996-4.0945499 4.6318232-6.4503192 5.4895675-2.3557692.8577444-2.6923081.7433793-3.1971149 1.3152078-.50481.5718317-.8974382 2.4016854-2.1314121 3.0878821-1.2339739.6861968-2.0192303.2287333-2.6362188.3430984-.6169854.114365-1.6826914 1.2580252-1.6826914 1.2580252s1.1217953 1.429576 1.0096167 2.058587c-.1121817.6290143-1.9070517 5.2036517-2.2435906 5.432385-.3365389.2287301-6.0016017 1.7154887-6.3942299 1.7154887s-5.9455124-6.8047753-9.70352654-7.4337895c-3.75801417-.629011-3.81410347-.9149269-4.76762776-.3430952-.95352744.5718285-.95352744.5718285-.95352744.5718285s-.67307468-1.0292951-.78525641-1.4867585c-.11217859-.4574635-.28044647-3.9456265-.11217859-4.4602724.16827103-.514646 7.79647481-4.4030899 7.79647481-4.4030899s1.06570603.8577443 2.35576923.1715508c1.2900632-.6861968 2.2996799-2.8019663 2.2996799-2.8019663s1.1778847.629011 1.7387807.629011c.5608993 0 1.1778847-.9721094 1.0657061-1.4295728-.1121786-.4574667-1.0657061-.5718317-1.0657061-1.0292951 0-.4574635 1.2900664.1715475 1.5705129-.4574635.2804496-.6290142 1.5705128-5.2608342 3.2532073-6.061396 1.6826914-.8005618 2.5240372-.1143682 3.0288439-.6290142.50481-.514646.2804497-1.2580252 1.0657061-1.944222.7852564-.6861935 5.1041666-3.2594297 5.5528841-3.2022472.4487175.0571826-.2243571.6861968 1.5705129 1.3723935 1.7948731.6861936 2.2435906.629011 3.1971149.8577444.9535274.2287301 1.6266021 1.2008426 2.467951 1.2580252.8413457.0571825 2.6362157-.1715476 3.1971149.1715476 1.8509593 1.2580284 2.9727546 6.9191435.9535243 9.9498399z"/></g><path d="m18.401343.29270362-2.111312 1.14154412s-.277717-.1561086-.59078-.1561086-.5860599 1.09934796-1.055656 1.41473416c-.469596.3153862-2.349502 1.18255073-2.7408316.98543552-.3913295-.19711832-.9021229-2.08755597-1.7239153-2.12697963-.82179231-.03942367-1.6025826 1.06150724-2.11131194 1.25862556-.50872624.1971152-1.40952273 1.73591824-2.81831095 1.81476244-1.40878823.07884733-2.26415703-.79069629-3.43814566-.75127262-1.17398864.03942367-1.64643595.90738122-1.64643595.90738122s.31527582 1.69371896.74573863 2.08795249 2.38509608.19974407 3.08948864.71224548c.70439256.51250452 6.57605893 6.54903354 6.57605893 7.29807694s-1.14046182.7047148-1.37525831 1.4537613c-.23479959.7490434.19826963 1.304637.70699896 1.5805995.50872935.2759626 2.23367665.1981549 2.58587295.8683541.3521963.6701961.5432882 1.2608548-.5133006 2.0098982-1.0565889.7490434-8.33399383 2.7942565-8.80358991 3.3856052-.46959607.5913519-.19070144.4341505.47456095 1.8928167.6652593 1.4586632.81353306 5.9809107.81353306 5.9809107l.04842459.1756222 1.23966942.0585407 3.43814566 4.5661764.77479339-.8390837.88132744 1.0049491 3.3219267-3.2294966 2.4890238 1.4440045 3.0991735 4.9662048s-.7208368.3345189-.9975465.3902715c-.2767128.0557526-.8315206 1.0593092-.2227531 1.9513575.6087676.8920482 2.4890238 1.1708144 2.4890238 1.1708144l-2.1500517 2.8977659s-1.777875 1.0607017-2.2759556 1.3952206c-.4980805.3345188.2767129 3.4539027.7747934 3.8441742.4980806.3902715 2.7117769.3902715 2.7117769.3902715l1.8304494 4.7417986 1.9369834 1.6684106s.8827098-.5547412 1.4914773-.3317307c.6087645.2230136.4455062.780543.4455062.780543s2.212311-.1630773 3.6512139-.1073247 2.8764204.9464084 2.8764204.9464084.1646436-1.6168386 1.3268337-2.341629c1.1621901-.7247872 3.4339959-.6188582 4.3194731.2731901.8854773.8920482.7180661 1.5136945.939437 2.1269796.2213678.613282 2.3852572 3.2267085 2.8279959 3.5612274.4427386.3345188 1.7626549-.6146776 1.7626549-.6146776s.6724091.3930596 1.3365186.4488122 2.7076271-.3289458 3.2057077-.2731901c.4980806.0557527.5575754 1.3366799 1.055656 1.3366799s2.4890237-1.2878959 2.4890237-1.2878959.3292872.388879.7166839.9464083c.3873967.5575325.0525744 3.4092994.3292872 3.6880657.2767128.2787631.4427386.27319 1.9369835.6634615 1.0357531.2705206 1.9839669.3452872 2.4890237.3707579l.4067666-.0097412s4.6652293.3197479 5.9174845-.4292986c1.2522551-.7490434 1.0040826-2.3454443 1.3171487-2.936793.3130631-.5913518 1.4859701-2.0559096 2.0338327-2.3318722.5478595-.2759625 1.5699886.0009367 2.4309142-1.0634898.8609257-1.0644327.1544195-2.3625787 1.171875-3.1904694 1.0174587-.8278908 2.0732108-.5915954 2.9732697-.9464084.9000588-.3548099 1.4430526-.6732183 1.4430526-.6732183s-2.0733564-2.8378857-1.9950929-3.9417421c.0782665-1.1038533.6267675-4.0626357.9006973-4.6539876.2739328-.5913487 1.0572304-1.4944713.9006973-3.2685237-.1565331-1.7740525-.3159143-2.9577428-1.6464359-3.7856335-1.3305217-.8278907-1.1659742-1.7343322-1.7529701-1.9708711-.5869928-.2365419-1.2604649-3.8636877-2.0822572-3.8636877-.8217924 0-1.7559701 3.5506775-2.4212294 3.6295249-.6652624.0788473-1.5633006-.433114-3.0894886-1.0244627-1.5261849-.5913519-1.4885764-1.3854638-2.7408316-1.3854638s-1.3296849.5565334-2.9732696.5171097-4.813404-2.2457439-4.813404-4.0197964c0-1.7740524.4292821-2.5616765.116219-2.9953337-.313063-.4336572-1.3268336-2.1269796-1.3268336-2.1269796s1.6033698.1499173 2.0338326-.2048926c.4304628-.3548098-.0829835-.7500862.464876-.868354.5478626-.118271 2.0338327 0 2.0338327 0l-2.6149277-2.9172794-.0871643-3.7368496-1.3268336-.0780543.7457386-1.5415724-5.8690599-1.970871s-4.0334969.7867342-4.5422262 1.1415441c-.5087294.3548099-.6658978.5490058-.9006974 1.2586256-.2347965.7096228-.1936983 3.3173077-.1936983 3.3173077l-1.9563533-1.102517-1.5689566 1.3366798-1.1331354-1.4147341-1.8788739 1.4927884-1.171875-1.8537895s.4688089-.6676703.0774793-1.2195985c-.3913295-.5519282-2.9732696-1.1805712-2.9732696-1.1805712l-.5133006-.8683697s-2.7353244.0800369-3.283187-.1170815c-.5478626-.1971152-.9440083-1.0630933-1.4527376-1.1025169-.5087263-.0394237-3.2413017-.0862251-3.5543647-.2439197-.313063-.1576916-3.2068884-5.6354611-3.0894886-6.0296946.1173998-.3942366 4.104437-3.10924614 4.3001033-3.42463233.1956632-.31538933.1956632-1.49977277 0-1.7757353-.1956663-.27596566-4.9683626-4.96620475-4.9683626-4.96620475z" transform="translate(295 71)"/><path d="m20.6723958.12600267c-.7597181 0-4.4388085 3.95754781-4.8786458 4.62332888-.4398373.66578417-2.3255208 7.24030745-2.3255208 7.24030745h-2.1177084s-.5181996.6268653-.1583333.9401738c.3598663.3133086 2.4402523.5159178 2.8401042 1.2600268.3998518.744109-.3622794 3.1738778.2375 4.6620989.5997761 1.488218 4.0375 3.9524271 4.0375 5.1273396 0 1.1749094-2.5920054 5.1249761-4.63125 5.3599599-2.0392447.2349806-2.2859375-1.5992647-2.2859375-1.5992647s-3.0735857-.0826578-3.47343753.4264706c-.399855.5091252-.401812 1.766497-2.7609375 3.4505347-2.17648484 1.5536587-4.63397334 3.4171181-5.03697917 3.7219251 0 0 4.876635 4.6593416 5.0765625 4.9334893.19992433.2741446.19992433 1.4507258 0 1.7640375-.1999275.3133085-4.2737935 3.0104326-4.39375 3.4020722-.1199565.3916364 2.83689 5.8333205 3.15677083 5.9899732.31988084.1566559 3.11196567.2031489 3.63177084.2423129.51980833.0391639.92458116.8994373 1.484375 1.095254.55979383.1958198 3.35468753.1163101 3.35468753.1163101l.5244791.8626337s2.638169.6245018 3.0380209 1.1727941c.3998518.5482923-.0791667 1.2115642-.0791667 1.2115642l1.1973958 1.8415776 1.9197917-1.4829546 1.1578125 1.4054145 1.603125-1.3278744 1.9989583 1.095254s-.0419931-2.5905064.1979167-3.2954545c.239913-.704945.4005042-.8978617.9203125-1.2503342.5198083-.3524726 4.6411458-1.1340241 4.6411458-1.1340241l5.996875 1.9578877-.7619791 1.5314171 1.3557291.0775401.0890625-.7075535s3.8775105-1.6872851 6.9963542-1.6089572c3.1188468.0783279 4.5591672 1.2115642 4.8390625 1.2115642s1.6318562-1.048364 2.7114583-.8917112c1.079599.1566558 2.9970822 1.4469418 4.1166667 1.1727941 1.1195845-.2741446 1.0885417-.358623 1.0885417-.358623s-.3677545-5.048962-.2078125-8.0254011c.159942-2.976439.9598958-11.592246.9598958-11.592246s-1.51753.198574-2.1572917-.2713903c-.6397648-.4699644.4398374-1.5650727 0-2.0741979-.4398373-.5091283-2.0385416-.7075535-2.0385416-.7075535s1.6834981-2.6292796 1.5635416-3.3342246-2.000415-.7786484-2.8401041-2.3843583c-.8396892-1.6057098-.5231207-1.6444302-1.6427084-2.9368315-1.1195845-1.2924013-4.9608778-4.9709288-5.640625-6.0675134-.6797503-1.0965815-7.2728865-7.7202094-8.3125-8.19017379-1.0396166-.46996438-1.2369791-.34893048-1.2369791-.34893048s-.7270699.94135241-1.246875.82386364c-.5198084-.11749187-.8708334-.74632353-.8708334-.74632353s-1.0792981 1.25151283-1.9989583 1.13402406c-.919657-.11749187-1.4486582-.66824374-2.0484375-1.68649732-.5997762-1.01825669-.24016-1.9132153-.9598958-2.50066845-.7197327-.58745626-1.197646.30912759-2.1572917-.55247327-.9596425-.86160085-.792471-.93702566-.7125-1.25033422s.4754022-.70479615.4354167-.97894385c-.0399855-.2741446-3.4361152-2.54913102-4.1958334-2.54913102z" transform="translate(313 35)"/><g transform="translate(315 2)"><path d="m31.4086788 8.625c-.3006415.05547915-.3513569.49089499-.7704016.63013699-.4789069.15913353-.9246715-.15208672-2.2815738.28553082-1.3569024.43761753-2.1893216 1.47248549-3.5063148 1.91010269-1.3169932.4376176-.0776091-.24005-4.1483161 1.1125857-4.0707038 1.352636-4.7533159.4722029-6.4693976.5119863-1.7160817.0397833-6.06309029 3.1900685-7.18053759 3.1900685-1.11744731 0-1.95508477-1.274368-2.99271373-1.8313357-1.03763213-.5569676-3.31744866-.0023945-3.43717617.2363014-.11972751.2387003 2.79517487 2.3827055 2.79517487 2.3827055s-2.39528352-.19147-2.87419041.2461473c-.4789069.4376175.47915658 1.6268205.95806347 2.3827054.47890689.7558846.28507544.076768 1.4025259.275685 1.11744731.1989169 1.09016166 1.0291139 1.23461788 1.1125856s1.19190207-.1115034 1.51117228.2067637c.31927021.3182674.68150907 1.1868041.68150907 2.6190068 0 1.4322025-1.24128679 1.636267-1.560557 2.431935-.31927021.7956679.0447228 1.4672875-.47409326 2.422089-.5188129.9548025-1.55815176 1.1580658-1.79760363 2.5107021-.23945503 1.3526331 1.07658679.7893694 1.07658679 2.5796232 0 1.7902507-3.30917731 3.0308865-3.26962624 6.1339898.04026727 3.1031064 2.75065847 3.4609549 4.26719748 3.9383561 1.51653586.4774013 1.27758653-.5218322 1.91612694-.5218322.63854358 0 .36063327.4756495.83954016 1.1519692.43682321.6168884 1.0135229 1.0241459 1.11609456 1.0928939.01491813-.0201329.03950777-.0590754.03950777-.0590754h2.11366576s1.8820839-6.6785604 2.3210817-7.3548801c.4389977-.6763166 4.1110649-4.6964898 4.8693329-4.6964898.7582679 0 4.1479146 2.3109865 4.1878238 2.5894692.0399092.2784859-.3547672.6761685-.4345855.994435-.0798183.3182664-.2466707.3948848.7111399 1.2701198.9578138.8752351 1.4348148-.0355366 2.1531736.5612158.7183619.5967492.3594322 1.5058698.9580634 2.5402397.5986344 1.0343667 1.1266258 1.5938338 2.0445272 1.7131849.8874773.1153907 1.9076502-1.0437683 1.9753886-1.1224315.0134327-.5065482.0393466-.9250253.0790156-1.0436644.1396805-.4177241.5735138-1.1125856 1.4914184-1.1125856.9041116 0 .6116087 1.9779969.6024935 2.0380993.0844329-.0161.3669988-.0166986 1.1951101.364298 1.037629.4774012 7.6181794 7.2058433 8.2966321 8.3197774.6784496 1.1139372 4.5124102 4.8506748 5.6298575 6.1635274 1.1174505 1.3128526.8014863 1.3521857 1.6395726 2.9833048.8380863 1.631119 2.7149551 1.7059887 2.8346826 2.422089s-1.560557 3.3869863-1.560557 3.3869863 1.5956526.2015651 2.0346503.71875c.4389977.5171818-.6385436 1.6296193 0 2.1070206.6385404.4774012 2.1531736.2756849 2.1531736.2756849s-.0095767.1248679-.0098612.1279966c.1590488-.5462721.7555877-2.530397 1.1358485-3.150685.4389977-.7161002 2.467077-3.0672201 3.6643458-5.4940068 1.1972657-2.4267867.6375891-4.0963882 1.0765868-6.0059932.4389977-1.9096049 1.2049871-1.6276186 1.2049871-2.3039383 0-.6763166-.3610347-.637434-.8000324-1.8707192s-.1667039-1.3976659-.2864314-4.3814212c-.1197275-2.9837554-1.7482189-3.8897758-1.7482189-4.8047945 0-.9150188.7577148-1.6370676 1.037079-2.3531679.2793611-.7161034-.1616405-.433468.1975389-1.3882705s.8786465-.8821319.9185557-1.2799658c.0399092-.3978338-.4444624-.6277361-.4444624-.8664383 0-.2386991.681509-.8809315.681509-1.3981165 0-.5171817-1.037079-2.8257705-1.037079-2.8257705s-.7615771.1209516-1.6395725-.1575342c-.8779955-.2784828-.8377829-.4784505-1.9951425-.8762843-1.1573565-.3978329-1.111932.3238652-2.5087435-.5513699-1.3968115-.875235-1.003036-1.6322684-1.4420337-2.8257705s.8032436-2.5468867.4839702-2.8651541c-.3192702-.3182674-.5245305.2795329-1.4025259.8762842-.8779955.5967511-2.2684383.1534365-5.540965-1.3981164-3.2725299-1.5515529-4.1572417-2.7067695-5.2347798-5.7303082-1.0775413-3.0235387-.7573135-3.734091-1.0765868-5.4447774-.3192702-1.7106865-1.6347589-2.43153513-2.1136658-2.47131851-.4789069-.03978339-.7204638.71755053-1.7580959.83690071-1.0376289.1193501-3.1463326-1.38747093-3.5853303-1.4670377-.0548747-.00994671-.1052045-.00792397-.1481541 0z"/><g transform="translate(13.590674)"><path d="m.3047756 1.54158445c-.11288161 1.40655587 4.40229414.39383562 4.85381108 0 .45151695-.39383561-1.07235471-1.12524453-1.9753886-1.12524453-.90303388 0-2.70910482.05626225-2.87842248 1.12524453z"/><path d="m7.8676915.3600777c-.95947627.73140904.22575689 1.40655577 1.29811161 1.57534237 1.07235469.16878692 2.14470939-1.4628179 1.91894939-1.63160459-.2257601-.1687867-2.65266561-.1687867-3.217061.05626222z"/></g></g><g transform="translate(241 6)"><path d="m70.8548658 10.6348982c-1.7720672.0235318-7.0593212.7391261-8.142198 1.2195984-1.1550644.5125039-1.1121336.6376081-2.267198 1.2683824-1.1550676.6307739-1.8329211.268039-2.8684983.7805429-1.0355741.5125039-2.9488084 1.3014662-3.7852349 1.8928168s-4.2262653 1.3006734-5.46099 1.970871c-1.2347247.6701973-5.9277377 2.5230456-6.5650167 2.9172794-.6372759.3942336-2.3531102 2.9585352-2.6319212 3.7075792-.2788078.7490434-1.6744049 1.6222525-2.7896392 2.3318722s-2.3849346 1.5362709-3.4205118 3.0343609c-1.0355772 1.4980867-1.3559153 4.0196465-1.7940436 5.0052319-.4381283.9855853-.161169 3.0338144-.798448 4.0588235-.6372758 1.0250059-1.1985978.8646387-1.596896 2.2050339-.3982982 1.3403953 1.4395785 3.4290877 1.3997484 4.9271776-.039827 1.4980868-.3252937 1.504378-.3252937 2.292845 0 .7884671.3615184 2.0885957.6801594 2.9953338.3186379.906738.5618708 3.3490539.5618708 5.044259s-.4790088 2.7177851-.877307 3.1514423-1.874502 1.1097479-1.7151846 2.3318722c.1593206 1.2221242 3.4310189 2.9145038 4.3471057 3.1904694.9160868.2759626 1.9051277-.8305133 2.6220638-.7122454.7169361.118271 3.0292699 2.0481354 3.7063758 2.1269796.6771092.0788473.9133835-.2720005 2.2277685-.3902715 1.3143849-.1182679.2790601-.7074904.9561661-1.1805713.677106-.4730808.4426327.0003123 1.5180369-.0390271 1.0754073-.0394237.831471-.6732183 1.46875-.6732183s.6832097.6306256 1.3603188.9854355c.677106.354813 3.0283172.4303383 4.7808305 1.2976527 1.5480539.7661279 2.3081006 2.2059238 2.4742031 2.5465215.2089386-.2549815.6918526-.7035252 1.547609-.731759 1.1948946-.0394237 2.0654954.8301199 3.4993708.7512726 1.4338754-.0788442 2.3507129-1.6176473 2.8684983-1.8147625.5177886-.1971183 1.3124829-1.2980492 2.1489094-1.2586255.8364265.0394236 1.3563159 1.9298613 1.7546141 2.1269796.3982982.1971152 2.3116808-.6700493 2.7896393-.9854355.4779584-.3153862.7558168-1.4147342 1.0744547-1.4147342s.6013003.1561086.6013003.1561086l2.1489094-1.1415441c.40144-.3068283 2.8493798-2.1826448 5.0174077-3.7466063 2.349959-1.6952051 2.3519084-2.9609149 2.7502098-3.4734163.3982982-.5125045 3.4599412-.4292987 3.4599412-.4292987s.2457343 1.8464088 2.2770554 1.6098699c2.0313211-.2365419 4.613255-4.2128028 4.613255-5.3955033 0-1.1827038-3.4243663-3.6632538-4.021812-5.1613405-.5974489-1.49809.161721-3.9439714-.2365772-4.6930148-.3982982-.7490433-2.4706008-.9529961-2.8290688-1.2683823-.3109949-.2736178.0208503-.7572703.1182886-.8878677-.1023685-.0681257-.6779261-.4716977-1.1138842-1.0830033-.4779585-.6701992-.2005986-1.1415442-.8378776-1.1415442-.6372758 0-.3987997.9901906-1.9123322.5171098-1.5135356-.4730809-4.2185591-.8276909-4.2583892-3.902715-.0398302-3.0750209 3.2627936-4.3044292 3.2627936-6.0784785 0-1.7740524-1.3134355-1.2158861-1.0744547-2.5562783.2389776-1.3403952 1.2762582-1.541819 1.7940436-2.4879807.5177886-.9461608.1545165-1.6117023.4731544-2.4001697s1.5574664-.9906851 1.5574664-2.4099265c0-1.4192416-.3615215-2.2799183-.6801594-2.5953054-.2788078-.2759635-1.1184328-.1626352-1.4194631-.185379-.1406057.3830318-.3375956.6927319-.6111577.6927319-.7169361 0-.5581171-.1603182-1.9123322-.7122454-1.3542119-.5519273-1.9867878.7126416-2.4249161.6732183-.4381283-.0394234-.1229444-.474764-.6407299-1.7757353-.5177886-1.3009713.1581188-2.1630844.1182886-3.4246324-.0398301-1.2615479-1.3072813-1.5798071-2.6614933-1.6586538-.0846378-.0049268-.1874416-.0015611-.3055788 0zm22.366401 18.625707c.1473623.0574792.316556.1400138.5027265.2341629-.1850601-.0935902-.3559477-.1779794-.5027265-.2341629z"/><path d="m22.0313415 1.17233092c0-1.18270121-3.8236645-.9461611-5.7354983-.86731439-1.9118307.07884671-3.5846837 0-5.4965176.47308055-1.91183063.47308054-1.91183063 1.18270121-3.82366446 1.26154792-1.91183067.0788467-4.77958141-.78846738-5.65583805-.78846738-.87625349 0-1.83217041 1.73462847-.95591376 2.68078957.87625664.94616078 1.27455483 1.49808803 3.10672523 1.41924133 1.83217356-.07884671 3.42536631-2.44424914 4.69992114-2.44424914 1.27455484 0 .87625665.78846738 1.8321736.78846738.9559169 0 5.1778796-1.34039463 7.2490308-1.34039463s4.7795814-.0788467 4.7795814-1.18270121z" transform="translate(41.637584 3.746606)"/><path d="m23.1197511.41239146c.7169361 1.73462846-3.1067284 1.73462846-3.9033248 2.60194285-.7965964.86731408.2389777 1.10385451-.7965964 1.65578176-1.0355771.55192726-2.7084302-.31538713-4.3812832.39423353-1.672853.70962098-1.4338754 1.26154823-2.2304717 1.73462847-.7965964.47308055-1.1948946-.15769341-1.7525133.07884702-.55761559.23654011-.39829821.39423353-1.35421512.55192694-.95591376.15769372-1.67285302-.31538683-3.66434396.86731439-1.99149094 1.18270121-1.91183383.63077396-2.7084302 1.65578176-.79659638 1.02500782-.39829819 1.34039462-1.1152343 1.57693502-.71693611.2365401-1.3542151-1.73462844-.95591691-2.83848294.39829819-1.10385451 3.98298503-3.46925693 4.93890194-3.86349078.95591376-.39423384 6.61175185-2.36540242 8.36426515-2.36540242 1.7525132 0 4.6202608-1.57693505 6.2931138-1.9711689 1.6728531-.39423353 2.8677508-.70962066 3.266049-.0788467z" transform="translate(15.456376 6.556561)"/><g transform="translate(0 20.294118)"><path d="m23.7693826 4.62232561c.2688526.17740493.3385545 2.33583421-.8165099 1.66563815-1.1550676-.67019919.5576156-1.82333156.8165099-1.66563815z"/><path d="m16.8688646.23647549c.4381252.35481049-1.0355772 2.79905962-1.7923434 2.40482609-.7567694-.39423384 1.1550644-3.19329346 1.7923434-2.40482609z"/><path d="m12.3282609.39416921c1.1948945 1.06443116-2.1109814 2.87790633-2.90757775 3.27213986-.79659637.39423384-1.11523429-.55192726-2.19064161.23654043-1.07540416.78846674.03983014 1.53751014-.43812832 2.20770932-.47795845.67019607-1.03557403.27596254-2.42961926 1.69520512-1.39404524 1.41924258-1.07540732 2.08943864-1.71268315 2.28655386-.637279.1971183-2.62876994-.70961975-2.62876994-1.30096848 0-.59135185 1.3542151-2.12886231 3.02706812-3.46925756 1.67285302-1.34039556 4.06264215-2.40482671 5.89481571-3.82406804 1.8321736-1.41924164 3.0668983-1.57693505 3.3855362-1.10385451z"/></g><path d="m13.7227256.34582581c.2788047.74904402-.5135459 1.01416232-1.3243464 1.30097128-.4912667.17377884-.9459554.01971027-1.5434043.27596378-.92454993.39654924-1.27455483 1.18270121-3.02706812 1.81347517s-2.94740785-.07884671-4.38128007.78846737c-1.43387537.86731439-1.19489772 2.12886231-1.91183382 2.12886231-.71693611 0-1.99149094-1.49808835-1.27455484-3.23271682.71693611-1.73462846 2.15081148-2.36540242 5.25753987-2.05001528 3.10672523.31538682 6.29487088-1.20665952 7.16937058-1.26154823.3956926-.02483688.9106865.03307129 1.0355771.23654042z" transform="translate(70.657718)"/></g></g></g></g></svg>