<svg height="80" viewBox="0 0 159 80" width="159" xmlns="http://www.w3.org/2000/svg"><path d="m20.2757797 31.4950516c-1.612047-4.4397191-3.1782791-8.4243537-3.7323204-9.5673565-1.0121908-2.1526552-2.764879-4.304252-5.2985524-4.7603948.045815 0 .2301402-.0486835.3686506-.0486835 4.6986962-.6402932 6.728405-4.0724765 6.728405-7.55334322 0-2.97392385-1.6589274-7.6433018-9.30895881-7.6433018h-7.97286702c-.55404128 0-1.06013667.45825944-1.06013667 1.00541909v28.79308623c0 .5503347.50716086 1.0107108 1.06013667 1.0107108h2.21083777c.55825482-.0057659 1.00873169-.4551131 1.01219079-1.0096524v-12.8598394h2.16715375c3.13246412 0 4.56338222 1.9240546 5.62351892 3.891501 1.2892114 2.3812558 2.1650228 5.6758554 3.3636698 9.2456224.1832598.5969014.5966598.7355434 1.1038207.7355434h3.0429652c.8289309 0 .9674413-.5058845.6904206-1.2361363zm-6.3118087-21.3328766c0 3.1580743-2.1202733 5.0800123-5.52975807 5.0800123h-4.1510477v-9.51973134h4.65607763c3.31678934 0 5.02259724 1.96850476 5.02259724 4.44077744zm22.825435 11.5369196c0-8.4243537-3.6865054-11.3982776-8.3852016-11.3982776-5.0694776 0-8.4789624 4.3497605-8.4789624 11.2606939 0 7.5088932 3.5479951 11.3982776 9.8608692 11.3982776 2.6743146 0 4.2405467-.412751 5.7140834-1.0530443.5071609-.2286005.7841815-.6858016.5998562-1.2361363l-.5071608-1.4636785c-.1843253-.5037679-.5540413-.8678354-1.244462-.6413516-1.3371573.3661843-2.5816192.7789353-4.333242.7789353-4.1478513 0-5.5297581-2.3812558-5.7140834-6.6378828h11.4750472c.557843-.0057577 1.0081531-.4544677 1.0121908-1.0085941zm-4.2842307-2.1537136h-8.2040727c.4602805-4.7582781 2.5358043-5.9033976 4.2405467-5.9033976 2.8554435 0 3.8697652 2.9739239 3.963526 5.9033976zm24.2797934 15.2442702c0-3.7994258-2.6743146-5.9510227-6.86585-5.9510227h-3.8250157c-1.6599929 0-2.3972939-.2751673-2.3972939-1.235078 0-.5037679.3686505-1.0075358.8310619-1.4181701.7381073.1866384 1.4971463.2791053 2.2587836.2751673 5.1142272 0 8.3852016-3.069174 8.3852016-8.1036779 0-1.5557537-.6925516-3.0691741-1.6589274-4.3952689l1.5204171-.1820338c.5540413-.0465668.9226918-.3672426.9226918-.9630857v-1.1885112c0-.5947847-.369716-1.0541025-1.0153872-1.0541025h-5.2996179c-.9695722 0-1.8890676-.2286006-2.8575744-.2286006-4.9299018 0-8.2946371 2.882907-8.2946371 8.0116027 0 3.018374 1.2913423 5.3064962 3.3178548 6.6378827-1.1059516 1.0054191-2.0275779 2.196047-2.0275779 3.7994259 0 2.6521897 2.3493481 3.5665919 5.0684122 3.5665919h4.4706869c2.4878584 0 3.4563651 1.0107108 3.4563651 2.8871404 0 2.0129548-2.2119032 3.2490911-5.0225972 3.2490911-2.1660883 0-4.5623168-.412751-4.9330983-2.8384568-.0905644-.5947848-.4581495-.9154606-1.0121908-.960969l-2.3045986-.0920752c-.2705951-.0052319-.5316635.0992379-.7230394.2893335s-.2965494.4494174-.2912823.7182022c.0468804 4.9424286 4.7018926 6.4071655 9.1246336 6.4071655 4.2405467 0 9.1704486-1.921938 9.1704486-7.2326675zm-5.8547246-16.5280316c0 4.12116-1.981763 4.9900537-4.1020364 4.9900537-2.2119032 0-4.0551559-.7323684-4.0551559-4.9900537 0-4.0745932 1.8432527-4.8048449 4.0551559-4.8048449 2.2587837 0 4.1020364.7778768 4.1020364 4.8048449zm12.6012426-15.42312894c0-1.55575376-1.244462-2.83849066-2.812825-2.83849066-.7588121-.00365222-1.4875873.29428307-2.0239548.82745971-.5363674.53317664-.8357656 1.25729837-.8315339 2.01103095 0 1.60232054 1.2445072 2.8839653 2.8554887 2.8839653 1.568363 0 2.812825-1.28058643 2.812825-2.8839653zm-.7351702 28.88198644v-20.140132c0-.5471596-.5092918-1.0054191-1.0153872-1.0054191h-2.0744584c-.5540412 0-1.0601366.4582595-1.0601366 1.0075358v20.140132c0 .5503347.5071608 1.0085941 1.0601366 1.0085941h2.0744584c.5060954 0 1.0143217-.4593178 1.0143217-1.0096524zm20.0083482-10.066891c0-7.0030086-3.4094847-11.3527691-8.9413738-11.3527691-5.5297581 0-8.9871887 4.3031938-8.9871887 11.3527691 0 7.0961422 3.4563652 11.3062024 8.9871887 11.3062024 5.5755731 0 8.9392429-4.3031938 8.9392429-11.3062024zm-4.379057 0c0 5.5393301-1.7516228 7.8274523-4.6560776 7.8274523-2.8554435 0-4.6070663-2.2881222-4.6070663-7.8274523 0-5.4472548 1.7516228-7.8274522 4.6081318-7.8274522 2.9033893 0 4.6560776 2.3812557 4.6560776 7.8285106zm26.7015933 2.4034808c0-3.9835763-2.211904-7.1861007-6.6378409-7.6909269 3.7333859-1.1006693 5.3006829-3.3866748 5.3006829-6.8209748 0-4.53179428-3.087714-7.64436014-8.4342125-7.64436014h-8.9392429c-.5540412 0-1.0612021.4572011-1.0612021 1.0054191v28.79308624c0 .548218.5082263 1.0075358 1.0612021 1.0075358h9.4005888c5.8067786 0 9.3089586-3.1580743 9.3089586-8.6529543zm-5.7151491-13.9171169c0 2.8363402-1.7516228 4.6249278-5.2101189 4.6249278h-4.5601859v-9.2064639h4.8851524c3.2709745 0 4.8840869 1.64782898 4.8840869 4.5783611zm1.1048861 13.4588575c0 3.3422247-1.8858712 5.3551796-5.0673467 5.3551796h-5.8067787v-10.7590427h4.9299019c3.7365822 0 5.9452895 2.2891806 5.9452895 5.4017464zm22.708234 8.1026196-.277021-1.3292699c-.274889-1.3716033-.229074-2.608798-.229074-3.7518007v-7.9660943c0-3.7084089-.599857-8.3767286-7.927052-8.3767286-1.981763 0-4.240547.5027096-5.576639.8699521-.556172.1375837-.783116.5926681-.64354 1.1895696l.364388 1.6933374c.138511.5958431.600922.9154606 1.201844.7323684 1.242331-.3196174 2.625303-.7789352 4.421675-.7789352 3.274171 0 4.009341 1.238253 4.009341 3.8925594v1.0985527l-5.066281.3206758c-3.734451.2751673-6.91273 2.1949886-6.91273 7.0929671 0 4.1169266 2.258783 6.5458075 5.942092 6.5458075 2.535805 0 4.933099-.9144022 6.36082-3.1591326l.322836 2.0150715c.090564.6413515.506095.9165189 1.060137.9165189h2.120273c.599856 0 .920561-.412751.828931-1.0075358zm-4.656078-6.3182653c0 1.6933374-1.888002 4.2121769-4.837206 4.2121769-1.702612 0-2.904455-1.0054191-2.904455-3.2046411 0-3.4332417 2.028643-4.256627 4.840403-4.3497605l2.901258-.0910169zm22.80093 6.3182653v-15.703588c0-3.4321833-2.212969-5.7213638-5.668269-5.7213638-2.443109 0-4.376926.9144022-6.313939 3.1580743l-.461346-2.06058c-.13851-.5947847-.460281-.825502-1.104886-.825502h-1.382973c-.554041 0-1.060136.412751-1.060136.9630857v20.1877571c0 .548218.507161 1.0075358 1.059071 1.0075358h2.120273c.55755-.0062908 1.007989-.4537158 1.014322-1.0075358v-12.4513217c0-3.0659991 2.166088-5.4017464 4.973586-5.4017464 1.889068 0 2.627434.9630856 2.627434 3.069174v14.7849524c0 .5503347.508226 1.0075358 1.062268 1.0075358h2.118142c.558204-.0051578 1.009609-.4530724 1.015387-1.0075358zm18.4858-.1830921-7.557336-11.4448444 6.175429-8.3767285c.367585-.5037679.13851-1.1451195-.508226-1.1451195h-2.947074c-.649933 0-1.062267.3217341-1.338222.7789352l-5.576639 8.4666872v-18.58543661c.005268-.26822353-.099681-.52700714-.290658-.7167059-.190976-.18969877-.451503-.29394549-.721533-.28890107h-2.077654c-.269853-.00444465-.530026.09999487-.720869.28956105-.190843.18956619-.295986.44799889-.291471.71604592v30.48748201c0 .548218.46256 1.0075358 1.01234 1.0075358h2.077654c.557432-.0057491 1.007576-.4538225 1.012191-1.0075358v-10.9400181l6.68259 11.0776018c.32177.548218.73517.8699521 1.243397.8699521h3.274171c.644605 0 .87368-.6879184.550844-1.1906279z" fill="#fff" transform="translate(0 18.666667)"/></svg>