<svg height="80" viewBox="0 0 201 80" width="201" xmlns="http://www.w3.org/2000/svg"><g fill="none" fill-rule="evenodd" transform="translate(0 15.2125)"><path d="m193.415094 1.89622642c7.371247 0 7.578887 5.24680644 7.584736 10.88746488v.9776946c-.005849 5.5859927-.213489 10.8895575-7.584736 10.8895575-7.371246 0-7.578887-5.3035648-7.584736-10.8895575v-.9776946c.005849-5.64065844.21349-10.88746488 7.584736-10.88746488zm-17.38452 0c3.38002 0 5.546683 2.07774491 5.546683 5.95494359 0 2.90226619-1.180375 5.07866139-4.401827 5.58165589v.063331c1.087137.127271 4.306686.3763325 4.306686 4.472754 0 1.4541778.095141 5.7369387.55562 6.6820325h-4.862306c-.653297-1.3865842-.520735-2.9290601-.520735-4.4069871 0-2.7110552.263222-5.0110677-3.550004-5.0110677h-1.27932v9.4180548h-4.957446v-22.75471698zm-27.958443 0 3.672224 15.47712918 3.828213-15.47712918h7.502904v22.75471698h-4.694479l-.063505-17.55304726-4.43614 17.55304726h-4.595213l-4.275834-17.55304726v17.55304726h-4.689546v-22.75471698zm-17.789889 0 6.24606 22.75471698h-5.067151l-1.273098-5.0402974h-6.566797l-1.304495 5.0402974h-4.750723l6.37657-22.75471698zm-36.5969353 0 6.0825564 15.75968298h.0599689v-15.75968298h4.464621v22.75471698h-6.3016265l-6.2392097-16.64083686h-.059357v16.64083686h-4.4658447v-22.75471698zm-17.1232773 0c3.5588824 0 6.5034839 1.03887245 6.5034839 5.89343942 0 2.61484076-1.2692351 4.50563736-3.8124903 5.07378976 3.3130504.4731559 4.1809393 2.6507689 4.1809393 5.7722579 0 5.7637326-4.9232205 6.0152299-6.9048302 6.0152299h-8.2649812v-22.75471698zm-18.3376079 0 6.2472766 22.75471698h-5.0644442l-1.2770403-5.0402974h-6.5631502l-1.3096745 5.0402974h-4.7479549l6.3747344-22.75471698zm17.4356255 12.79591268h-2.724489v6.4646366l2.6854342-.0001251c1.0239554-.0037851 3.1379742-.1164412 3.1379742-3.2127068 0-2.0192855-.7422812-3.2518047-3.0989194-3.2518047zm117.756193-9.00345985c-3.362248 0-3.793598 2.29114973-3.793598 7.58794725l.000537.3139128c.017889 5.0685933.498058 7.2679513 3.793061 7.2679513 3.359956 0 3.791307-2.2900437 3.791307-7.5818641 0-5.29679752-.431351-7.58794725-3.791307-7.58794725zm-66.574687.58834932h-.063408l-2.202681 9.83336013h4.590047zm-72.0603378 0h-.0621896l-2.1975685 9.83336013h4.5909417zm56.1434878 3.20410351 2.848882 2.84036392-2.848882 2.8483153-2.839797-2.8483153zm63.105387-4.08891107h-2.204719v6.33919249h2.204719c1.963062 0 2.52439-1.89505931 2.52439-3.34436555 0-2.17274146-.952672-2.99482694-2.52439-2.99482694zm-98.2127344-.0012179h-2.8817976v5.80331449h3.1288259c1.0251975 0 2.4463579-.6923786 2.4463579-2.90226619 0-1.66852904-1.1137209-2.9010483-2.6933862-2.9010483z" fill="#fff"/><path d="m17.4456958 10.9638321 18.5826061 19.8021466-18.2123928 18.5703849z" fill="#f6bf37"/><path d="m17.9682764 49.3018868-17.9682764-18.4479066v-30.8539802h36.0283019v30.7608786l-18.0600255-18.553077z" fill="#178c82"/></g></svg>