<svg width="512" height="512" viewBox="0 0 512 512" fill="none" xmlns="http://www.w3.org/2000/svg">
<g clip-path="url(#clip0_27_11042)">
<rect width="512" height="512" fill="white"/>
<path d="M246.427 328.228H366.752V391.674H246.427V328.228Z" fill="#F15A24"/>
<path d="M341.594 124.772H170.948C167.368 124.743 163.817 125.424 160.501 126.774C157.184 128.124 154.168 130.118 151.626 132.639C149.084 135.161 147.066 138.161 145.688 141.466C144.311 144.771 143.602 148.317 143.601 151.897V188.214H366.752V124.772H341.594ZM339.405 225.408H143.823V391.674H207.265V288.85H339.843C345.487 288.83 350.989 287.078 355.606 283.831C360.222 280.584 363.731 275.999 365.657 270.694C366.56 268.244 367.004 265.646 366.973 263.036V225.408H339.405ZM255.835 512C152.349 511.943 59.0759 449.583 19.4844 353.968C-20.1115 258.358 1.7627 148.314 74.9082 75.1119C147.945 1.96648 257.815 -20.0727 353.408 19.2538C449.005 58.576 511.566 151.537 512 254.905C512.426 358.273 450.643 451.755 355.371 491.872C323.886 505.213 290.03 512.059 255.835 512ZM255.835 33.9785C211.898 33.9534 168.941 46.9631 132.401 71.3612C95.8606 95.7592 67.3797 130.449 50.5624 171.04C33.7451 211.631 29.3474 256.298 37.926 299.39C46.5045 342.481 67.6737 382.059 98.7543 413.114C185.508 499.864 326.161 499.864 412.911 413.114C499.664 326.361 499.664 185.708 412.911 98.9537C392.311 78.3101 367.821 61.9574 340.859 50.8424C313.897 39.7274 284.998 34.0708 255.835 34.2V33.9785Z" fill="black"/>
</g>
<defs>
<clipPath id="clip0_27_11042">
<rect width="512" height="512" fill="white"/>
</clipPath>
</defs>
</svg>
