<svg xmlns="http://www.w3.org/2000/svg" width="640" height="360" viewBox="0 0 640 360">
  <g fill="none" fill-rule="evenodd" transform="translate(80 120)">
    <polygon fill="#F15A24" fill-rule="nonzero" points="56.764 76.576 84.466 76.576 84.466 91.183 56.764 91.183"/>
    <path fill="#000" fill-rule="nonzero" d="M78.6736622,29.7347506 L39.3871984,29.7347506 C37.7220685,29.7213218 36.1205207,30.3733991 34.9383386,31.5461237 C33.7561564,32.7188485 33.0912907,34.315107 33.0912907,35.9802911 L33.0912907,44.3412565 L84.4658972,44.3412565 L84.4658972,29.7347506 L78.6736622,29.7347506 Z M78.1699895,52.9036909 L33.1416579,52.9036909 L33.1416579,91.1828094 L47.7481637,91.1828094 L47.7481637,67.5101967 L78.2707241,67.5101967 C80.9324985,67.5009879 83.305688,65.8317105 84.2140609,63.329714 C84.4224136,62.7656981 84.5248646,62.1680675 84.5172096,61.5668598 L84.5172096,52.9036909 L78.1699895,52.9036909 Z M58.9296957,118.884984 C35.104713,118.871983 13.6313798,104.514377 4.51568804,82.502241 C-4.6000037,60.490105 0.435570987,35.1545989 17.2759706,18.3013824 C34.0914329,1.46127104 59.3854883,-3.61182596 81.3942645,5.44151006 C103.403041,14.494846 117.806277,35.8974707 117.906272,59.6953557 C118.004226,83.4932405 103.779511,105.014928 81.8467996,114.251015 C74.5975966,117.322608 66.8027787,118.898704 58.9296957,118.884984 Z M58.9296957,8.83232081 C38.2434923,8.8206488 19.5889953,21.2764483 11.6711464,40.3873565 C3.75329751,59.4982649 8.13280038,81.4972911 22.7660021,96.118801 C42.7386586,116.091457 75.1207325,116.091457 95.0933887,96.1188005 C115.066045,76.1461442 115.066046,43.7640704 95.0933893,23.7914138 C85.5139369,14.1911582 72.4916722,8.82264798 58.9296957,8.88270451 L58.9296957,8.83232081 Z M142.539179,22.0285597 C142.531386,20.6650483 143.076586,19.3565679 144.050368,18.4021169 C144.959802,17.4235984 146.240297,16.8748148 147.576075,16.8904092 L177.594963,16.8904092 L177.594963,25.2520645 L152.260231,25.2520645 L152.260231,35.6780875 L171.248688,35.6780875 L171.248688,38.9015922 C171.264973,40.2373709 170.716189,41.5178659 169.737671,42.4273005 C168.774835,43.3826066 167.467402,43.9092111 166.111228,43.8879511 L152.310598,43.8879511 L152.310598,65.3444044 L142.539179,65.3444044 L142.539179,22.0285597 Z M210.93809,46.7085177 C210.93809,59.7032711 205.229801,66.2006478 193.813222,66.2006478 C182.396642,66.2006478 176.688353,59.7032711 176.688353,46.7085177 C176.688353,33.6130298 182.396642,27.0652858 193.813222,27.0652858 C205.229801,27.0652858 210.93809,33.6130298 210.93809,46.7085177 Z M186.308499,46.7085177 C186.409234,54.0285597 188.87723,57.6885807 193.712487,57.6885807 C198.547744,57.6885807 200.99895,53.9278252 201.066107,46.4063141 C201.066107,39.0862722 198.648479,35.4262512 193.813222,35.4262512 C188.810073,35.4262512 186.308499,39.1870067 186.308499,46.7085177 L186.308499,46.7085177 Z M215.471143,45.8522743 C215.739769,33.6969752 222.186778,27.6193257 234.812173,27.6193257 L236.222455,27.6193257 L236.222455,37.4913089 L232.998951,37.4913089 C227.727177,37.4913089 225.091291,40.2279302 225.091291,45.7011725 L225.091291,65.3444044 L215.471143,65.3444044 L215.471143,45.8522743 Z M256.570829,35.4262512 C252.407135,35.4262512 250.274922,37.3737853 250.174186,41.2688535 L250.174186,65.3444044 L240.604408,65.3444044 L240.604408,43.1828094 C240.604408,32.4377937 245.976915,27.0652858 256.721931,27.0652858 C261.557188,27.0652858 265.317943,28.1229983 268.004198,30.2384233 C270.690451,28.2237329 274.451207,27.2163877 279.286464,27.2163877 C290.03148,27.2163877 295.370409,32.5888954 295.303253,43.3339112 L295.303253,65.4955062 L290.417629,65.4955062 C287.26128,65.2940372 285.683106,63.7158629 285.683106,60.7609837 L285.683106,41.4199553 C285.481637,37.4913089 283.299055,35.5269857 279.135362,35.5269857 C274.971669,35.5269857 272.839455,37.4913089 272.73872,41.4199553 L272.73872,65.3444044 L263.168941,65.3444044 L263.168941,41.2688535 C262.967471,37.3737853 260.78489,35.4262512 256.621196,35.4262512 L256.570829,35.4262512 Z M305.729276,16.8910991 C308.885624,16.8910991 310.396642,18.418906 310.262329,21.4745199 L310.262329,24.2447192 L300.843651,24.2447192 L300.843651,16.8910991 L305.729276,16.8910991 Z M305.729276,27.6193257 C308.751312,27.6193257 310.262329,29.1471327 310.262329,32.2027465 L310.262329,65.3444044 L300.843651,65.3444044 L300.843651,27.5689584 L305.729276,27.6193257 Z M345.720882,16.8910991 C348.335686,16.8910991 350.455403,19.010817 350.455403,21.6256216 L350.455403,49.075779 C350.455403,60.3916238 344.579224,65.9991788 332.826863,65.8984443 C321.074501,65.7305534 315.198321,59.3674894 315.198321,46.8092522 C315.198321,34.0159679 320.235047,27.4346457 330.308499,27.0652858 C335.009444,27.0652858 338.56873,29.0128199 340.986359,32.9078881 L340.986359,16.8910991 L345.720882,16.8910991 Z M333.078699,35.5269857 C327.974816,35.5269857 325.288562,39.1534286 325.019937,46.4063141 C324.919202,53.9949815 327.555089,57.7893152 332.927597,57.7893152 C338.300105,57.7893152 340.986359,53.9949815 340.986359,46.4063141 C340.818467,39.1870067 338.182581,35.5605639 333.078699,35.5269857 Z M369.192025,66.049546 C365.498426,66.3181714 362.342078,65.8144989 359.722981,64.5385282 C355.827912,62.5909941 353.880378,59.1492313 353.880378,54.2132397 C353.947534,50.4189059 355.240294,47.5479721 357.758657,45.6004379 C360.277019,43.6529039 364.407136,42.3937223 370.149003,41.8228934 C374.24554,41.352799 376.293809,40.0936174 376.293809,38.0453488 C376.09234,35.9299239 374.044072,34.8722113 370.149003,34.8722113 C366.824764,34.8722113 364.927598,35.7452439 364.457502,37.4913089 L354.988458,37.4913089 C356.062959,30.5406268 360.965373,27.0652858 369.695697,27.0652858 C380.104931,27.0652858 385.393494,30.5406268 385.561385,37.4913089 L385.561385,50.2845933 C385.561385,56.6980246 383.244491,61.1639217 378.610703,63.6822847 C376.09234,64.9582554 372.935992,65.7473425 369.141658,66.049546 L369.192025,66.049546 Z M368.889821,48.6224737 C365.06191,49.3611935 363.147954,51.1240477 363.147954,53.9110361 C363.349423,56.8659154 364.927598,58.3433551 367.882477,58.3433551 C370.467995,58.3433551 372.549842,57.6046352 374.128016,56.1271955 C375.605456,54.649756 376.344176,52.5679091 376.344176,49.8816552 L376.344176,46.4063141 C373.921493,47.3898161 371.407767,48.1321245 368.839455,48.6224737 L368.889821,48.6224737 Z M399.613851,32.9078881 C401.997902,29.0128199 405.557188,27.0652858 410.29171,27.0652858 C420.331584,27.4010675 425.351521,33.9823897 425.351521,46.8092522 C425.351521,59.3674894 419.508919,65.7305534 407.823715,65.8984443 C396.004197,65.9991788 390.094439,60.3916238 390.094439,49.075779 L390.094439,16.8910991 L394.828961,16.8910991 C397.985309,16.8910991 399.563483,18.4692733 399.563483,21.6256216 L399.613851,32.9078881 Z M407.672613,35.5269857 C402.56873,35.5269857 399.882477,39.1534286 399.613851,46.4063141 C399.513117,54.0285597 402.149003,57.8396825 407.521511,57.8396825 C412.894018,57.8396825 415.563484,54.0117706 415.529905,46.3559469 C415.362015,39.1366394 412.726128,35.5101966 407.622245,35.4766184 L407.672613,35.5269857 Z M434.467996,16.8910991 C435.656481,16.8947649 436.79599,17.3650382 437.641133,18.2006478 C438.559295,19.0389671 439.07296,20.2314046 439.051417,21.4745199 L439.051417,65.3444044 L429.582371,65.3444044 L429.582371,16.8910991 L434.467996,16.8910991 Z M477.683106,53.8103016 C476.575026,58.0747297 474.728227,61.1807108 472.142707,63.1282449 C469.087094,65.1429354 465.460651,66.1502806 461.263378,66.1502806 C449.8468,65.8144989 444.13851,59.2331767 444.13851,46.4063141 C444.13851,33.5794516 449.880378,27.1324421 461.364114,27.0652858 C473.317943,27.0652858 478.925498,34.4524842 478.186778,49.2268808 L453.809024,49.2268808 C454.178384,54.9351704 456.696747,57.7893152 461.364114,57.7893152 C463.580273,57.7893152 465.594963,56.9162827 467.408185,55.1702177 C468.228139,54.2617181 469.408775,53.763637 470.63169,53.8103016 L477.683106,53.8103016 Z M468.163694,42.326566 C467.592865,37.2898398 465.275971,34.7714768 461.213012,34.7714768 C457.150053,34.7714768 454.732424,37.2898398 453.960126,42.326566 L468.163694,42.326566 Z"/>
    <path fill="#000" fill-rule="nonzero" d="M357.859391,78.0369543 C357.859391,76.5595146 358.631689,75.8207948 360.176285,75.8207948 L375.739769,75.8207948 L375.739769,78.7924632 L361.435467,78.7924632 L361.435467,86.9519595 L372.214061,86.9519595 L372.214061,87.9593047 C372.214061,89.3024317 371.475341,89.9739952 369.997901,89.9739952 L361.435467,89.9739952 L361.435467,102.364341 L357.859391,102.364341 L357.859391,78.0369543 Z M402.988458,89.1177518 C402.854144,98.1167024 398.656873,102.649756 390.396642,102.716912 C382.136411,102.784069 377.939139,98.2510151 377.804827,89.1177518 C377.871983,79.9844883 382.069255,75.4010675 390.396642,75.3674894 C398.791185,75.3674894 402.988458,79.9341211 402.988458,89.0673844 L402.988458,89.1177518 Z M390.346275,78.3391578 C384.53725,78.3391578 381.61595,81.8984443 381.582371,89.0170172 C381.683106,96.0684338 384.621196,99.6277202 390.396642,99.6948766 C396.172088,99.762033 399.110179,96.2027465 399.210913,89.0170172 C399.210913,81.8648661 396.256034,78.3055796 390.346275,78.3391578 Z M407.017839,77.986587 C407.017839,76.5091473 407.756559,75.7704274 409.233998,75.7704274 L418.551941,75.7704274 C423.890871,75.7368494 426.610703,78.0873215 426.711437,82.8218441 C426.610703,86.1796615 425.267576,88.5301337 422.682056,89.8732606 C424.260231,90.1754642 425.267576,90.9813404 425.704093,92.2908892 C426.140609,93.4997035 426.409234,95.5815503 426.509969,98.5364296 C426.610703,100.702222 426.761805,101.911036 426.963273,102.263607 L423.236096,102.263607 C422.856764,101.534751 422.682668,100.716497 422.732424,99.8963456 C422.698846,95.7998084 422.329486,93.2814453 421.624344,92.3412565 C421.221406,91.6864821 420.465897,91.3339112 419.408185,91.3339112 L410.694648,91.3339112 L410.694648,102.263607 L406.967471,102.263607 L407.017839,77.986587 Z M418.350473,88.4126101 C421.70829,88.4126101 423.303253,86.5825996 423.135362,82.9225785 C423.135362,80.2699028 421.557188,78.8764086 418.400839,78.7420959 L410.644281,78.7420959 L410.644281,88.3118756 L418.350473,88.4126101 Z M430.438615,77.986587 C430.438615,76.5091473 431.210913,75.7704274 432.755509,75.7704274 L436.281217,75.7704274 L442.828961,97.1765135 L449.326338,75.7704274 L455.219307,75.7704274 L455.219307,102.263607 L451.542498,102.263607 L451.542498,80.1020119 L444.491081,102.263607 L441.116474,102.263607 L434.065058,80.1020119 L434.065058,102.263607 L430.438615,102.263607 L430.438615,77.986587 Z M462.321091,93.4997035 C462.27163,95.2378323 463.012481,96.9047448 464.335782,98.032757 C465.718573,99.1788224 467.477402,99.7710814 469.271774,99.6948766 C471.437566,99.6948766 473.099685,99.3423057 474.157397,98.6371641 C475.466947,97.6298189 476.172088,96.5217391 476.172088,95.2121903 C476.172088,93.7347507 475.668415,92.6938273 474.661071,92.0894202 C473.418678,91.3171221 471.555089,90.6959259 469.070304,90.2258314 C464.973767,89.554268 462.371458,88.5469227 461.263378,87.2037958 C460.256034,86.1964506 459.752361,84.6854327 459.752361,82.8218441 C459.711961,80.7236636 460.687453,78.73516 462.371458,77.4829144 C464.050367,76.0390529 466.350473,75.3171221 469.271774,75.3171221 C472.125918,75.3171221 474.426023,76.0558419 476.172088,77.5332816 C477.798253,79.0215848 478.729354,81.1211286 478.740818,83.3255166 L477.229801,83.3255166 C476.272823,83.3255166 475.718783,83.0233131 475.517313,82.418906 C474.577125,79.6319176 472.428122,78.2384233 469.070304,78.2384233 C465.175237,78.2384233 463.160546,79.6654957 463.026233,82.5196405 C462.925498,84.7358 465.024135,86.297185 469.32214,87.2037958 C471.034628,87.5395775 472.713536,87.9593047 474.358867,88.4629773 C477.817419,89.4703225 479.546694,91.5689585 479.546694,94.758885 C479.623793,97.0259953 478.589747,99.1880905 476.776495,100.55112 C474.929695,101.961403 472.4617,102.666545 469.372508,102.666545 C465.947535,102.666545 463.429171,101.911036 461.817418,100.400018 C460.037776,98.8890004 459.064008,96.6056846 458.896118,93.5500707 L462.321091,93.4997035 Z" opacity=".9"/>
  </g>
</svg>
