<svg height="360" viewBox="0 0 640 360" width="640" xmlns="http://www.w3.org/2000/svg"><g fill="none" transform="translate(80 120)"><path d="m56.764 76.576h27.702v14.607h-27.702z" fill="#f15a24"/><g fill="#000"><path d="m78.6736622 29.7347506h-39.2864638c-1.6651299-.0134288-3.2666777.6386485-4.4488598 1.8113731-1.1821822 1.1727248-1.8470479 2.7689833-1.8470479 4.4341674v8.3609654h51.3746065v-14.6065059zm-.5036727 23.1689403h-45.0283316v38.2791185h14.6065058v-23.6726127h30.5225604c2.6617744-.0092088 5.0349639-1.6784862 5.9433368-4.1804827.2083527-.5640159.3108037-1.1616465.3031487-1.7628542v-8.6631689zm-19.2402938 65.9812931c-23.8249827-.013001-45.2983159-14.370607-54.41400766-36.382743-9.11569174-22.012136-4.08011705-47.3476421 12.76028256-64.2008586 16.8154623-16.84011136 42.1095177-21.91320836 64.1182939-12.85987234 22.0087765 9.05333594 36.4120125 30.45596064 36.5120075 54.25384564.097954 23.7978848-14.126761 45.3195723-36.0594724 54.5556593-7.249203 3.071593-15.0440209 4.647689-22.9171039 4.633969zm0-110.05266319c-20.6862034-.01167201-39.3407004 12.44412749-47.2585493 31.55503569-7.91784889 19.1109084-3.53834602 41.1099346 11.0948557 55.7314445 19.9726565 19.972656 52.3547304 19.972656 72.3273866-.0000005 19.9726563-19.9726563 19.9726573-52.3547301.0000006-72.3273867-9.5794524-9.6002556-22.6017171-14.96876582-36.1636936-14.90870929zm83.6094833 13.19623889c-.007793-1.3635114.537407-2.6719918 1.511189-3.6264428.909434-.9785185 2.189929-1.5273021 3.525707-1.5117077h30.018888v8.3616553h-25.334732v10.426023h18.988457v3.2235047c.016285 1.3357787-.532499 2.6162737-1.511017 3.5257083-.962836.9553061-2.270269 1.4819106-3.626443 1.4606506h-13.80063v21.4564533h-9.771419zm68.398911 24.679958c0 12.9947534-5.708289 19.4921301-17.124868 19.4921301-11.41658 0-17.124869-6.4973767-17.124869-19.4921301 0-13.0954879 5.708289-19.6432319 17.124869-19.6432319 11.416579 0 17.124868 6.547744 17.124868 19.6432319zm-24.629591 0c.100735 7.320042 2.568731 10.980063 7.403988 10.980063s7.286463-3.7607555 7.35362-11.2822666c0-7.3200419-2.417628-10.9800629-7.252885-10.9800629-5.003149 0-7.504723 3.7607555-7.504723 11.2822665zm29.162644-.8562434c.268626-12.1552991 6.715635-18.2329486 19.34103-18.2329486h1.410282v9.8719832h-3.223504c-5.271774 0-7.90766 2.7366213-7.90766 8.2098636v19.6432319h-9.620148zm41.099686-10.4260231c-4.163694 0-6.295907 1.9475341-6.396643 5.8426023v24.0755509h-9.569778v-22.161595c0-10.7450157 5.372507-16.1175236 16.117523-16.1175236 4.835257 0 8.596012 1.0577125 11.282267 3.1731375 2.686253-2.0146904 6.447009-3.0220356 11.282266-3.0220356 10.745016 0 16.083945 5.3725077 16.016789 16.1175235v22.161595h-4.885624c-3.156349-.201469-4.734523-1.7796433-4.734523-4.7345225v-19.3410284c-.201469-3.9286464-2.384051-5.8929696-6.547744-5.8929696s-6.295907 1.9643232-6.396642 5.8929696v23.9244491h-9.569779v-24.0755509c-.20147-3.8950682-2.384051-5.8426023-6.547745-5.8426023zm49.158447-18.5351521c3.156348 0 4.667366 1.5278069 4.533053 4.5834208v2.7701993h-9.418678v-7.3536201zm0 10.7282266c3.022036 0 4.533053 1.527807 4.533053 4.5834208v33.1416579h-9.418678v-37.775446zm39.991606-10.7282266c2.614804 0 4.734521 2.1197179 4.734521 4.7345225v27.4501574c0 11.3158448-5.876179 16.9233998-17.62854 16.8226653-11.752362-.1678909-17.628542-6.5309549-17.628542-19.0891921 0-12.7932843 5.036726-19.3746065 15.110178-19.7439664 4.700945 0 8.260231 1.9475341 10.67786 5.8426023v-16.016789zm-12.642183 18.6358866c-5.103883 0-7.790137 3.6264429-8.058762 10.8793284-.100735 7.5886674 2.535152 11.3830011 7.90766 11.3830011s8.058762-3.7943337 8.058762-11.3830011c-.167892-7.2193074-2.803778-10.8457502-7.90766-10.8793284zm36.113326 30.5225603c-3.693599.2686254-6.849947-.2350471-9.469044-1.5110178-3.895069-1.9475341-5.842603-5.3892969-5.842603-10.3252885.067156-3.7943338 1.359916-6.6652676 3.878279-8.6128018 2.518362-1.947534 6.648479-3.2067156 12.390346-3.7775445 4.096537-.4700944 6.144806-1.729276 6.144806-3.7775446-.201469-2.1154249-2.249737-3.1731375-6.144806-3.1731375-3.324239 0-5.221405.8730326-5.691501 2.6190976h-9.469044c1.074501-6.9506821 5.976915-10.4260231 14.707239-10.4260231 10.409234 0 15.697797 3.475341 15.865688 10.4260231v12.7932844c0 6.4134313-2.316894 10.8793284-6.950682 13.3976914-2.518363 1.2759707-5.674711 2.0650578-9.469045 2.3672613zm-.302204-17.4270723c-3.827911.7387198-5.741867 2.501574-5.741867 5.2885624.201469 2.9548793 1.779644 4.432319 4.734523 4.432319 2.585518 0 4.667365-.7387199 6.245539-2.2161596 1.47744-1.4774395 2.21616-3.5592864 2.21616-6.2455403v-3.4753411c-2.422683.983502-4.936409 1.7258104-7.504721 2.2161596zm30.72403-15.7145856c2.384051-3.8950682 5.943337-5.8426023 10.677859-5.8426023 10.039874.3357817 15.059811 6.9171039 15.059811 19.7439664 0 12.5582372-5.842602 18.9213012-17.527806 19.0891921-11.819518.1007345-17.729276-5.5068205-17.729276-16.8226653v-32.1846799h4.734522c3.156348 0 4.734522 1.5781742 4.734522 4.7345225zm8.058762 2.6190976c-5.103883 0-7.790136 3.6264429-8.058762 10.8793284-.100734 7.6222456 2.535152 11.4333684 7.90766 11.4333684 5.372507 0 8.041973-3.8279119 8.008394-11.4837356-.16789-7.2193075-2.803777-10.8457503-7.90766-10.8793285zm26.795383-18.6358866c1.188485.0036658 2.327994.4739391 3.173137 1.3095487.918162.8383193 1.431827 2.0307568 1.410284 3.2738721v43.8698845h-9.469046v-48.4533053zm43.21511 36.9192025c-1.10808 4.2644281-2.954879 7.3704092-5.540399 9.3179433-3.055613 2.0146905-6.682056 3.0220357-10.879329 3.0220357-11.416578-.3357817-17.124868-6.9171039-17.124868-19.7439665 0-12.8268625 5.741868-19.273872 17.225604-19.3410283 11.953829 0 17.561384 7.3871984 16.822664 22.161595h-24.377754c.36936 5.7082896 2.887723 8.5624344 7.55509 8.5624344 2.216159 0 4.230849-.8730325 6.044071-2.6190975.819954-.9084996 2.00059-1.4065807 3.223505-1.3599161zm-9.519412-11.4837356c-.570829-5.0367262-2.887723-7.5550892-6.950682-7.5550892s-6.480588 2.518363-7.252886 7.5550892z"/><path d="m357.859391 78.0369543c0-1.4774397.772298-2.2161595 2.316894-2.2161595h15.563484v2.9716684h-14.304302v8.1594963h10.778594v1.0073452c0 1.343127-.73872 2.0146905-2.21616 2.0146905h-8.562434v12.3903458h-3.576076zm45.129067 11.0807975c-.134314 8.9989506-4.331585 13.5320042-12.591816 13.5991602-8.260231.067157-12.457503-4.4658969-12.591815-13.5991602.067156-9.1332635 4.264428-13.7166843 12.591815-13.7502624 8.394543 0 12.591816 4.5666317 12.591816 13.699895zm-12.642183-10.778594c-5.809025 0-8.730325 3.5592865-8.763904 10.6778594.100735 7.0514166 3.038825 10.610703 8.814271 10.6778594s8.713537-3.4921301 8.814271-10.6778594c0-7.1521511-2.954879-10.7114376-8.864638-10.6778594zm16.671564-.3525708c0-1.4774397.73872-2.2161596 2.216159-2.2161596h9.317943c5.33893-.033578 8.058762 2.3168941 8.159496 7.0514167-.100734 3.3578174-1.443861 5.7082896-4.029381 7.0514165 1.578175.3022036 2.58552 1.1080798 3.022037 2.4176286.436516 1.2088143.705141 3.2906611.805876 6.2455404.100734 2.1657924.251836 3.3746064.453304 3.7271774h-3.727177c-.379332-.728856-.553428-1.54711-.503672-2.3672614-.033578-4.0965372-.402938-6.6149003-1.10808-7.5550891-.402938-.6547744-1.158447-1.0073453-2.216159-1.0073453h-8.713537v10.9296958h-3.727177zm11.332634 10.4260231c3.357817 0 4.95278-1.8300105 4.784889-5.4900316 0-2.6526757-1.578174-4.0461699-4.734523-4.1804826h-7.756558v9.5697797zm12.088142-10.4260231c0-1.4774397.772298-2.2161596 2.316894-2.2161596h3.525708l6.547744 21.4060861 6.497377-21.4060861h5.892969v26.4931796h-3.676809v-22.1615951l-7.051417 22.1615951h-3.374607l-7.051416-22.1615951v22.1615951h-3.626443zm31.882476 15.5131165c-.049461 1.7381288.69139 3.4050413 2.014691 4.5330535 1.382791 1.1460654 3.14162 1.7383244 4.935992 1.6621196 2.165792 0 3.827911-.3525709 4.885623-1.0577125 1.30955-1.0073452 2.014691-2.115425 2.014691-3.4249738 0-1.4774396-.503673-2.518363-1.511017-3.1227701-1.242393-.7722981-3.105982-1.3934943-5.590767-1.8635888-4.096537-.6715634-6.698846-1.6789087-7.806926-3.0220356-1.007344-1.0073452-1.511017-2.5183631-1.511017-4.3819517-.0404-2.0981805.935092-4.0866841 2.619097-5.3389297 1.678909-1.4438615 3.979015-2.1657923 6.900316-2.1657923 2.854144 0 5.154249.7387198 6.900314 2.2161595 1.626165 1.4883032 2.557266 3.587847 2.56873 5.792235h-1.511017c-.956978 0-1.511018-.3022035-1.712488-.9066106-.940188-2.7869884-3.089191-4.1804827-6.447009-4.1804827-3.895067 0-5.909758 1.4270724-6.044071 4.2812172-.100735 2.2161595 1.997902 3.7775445 6.295907 4.6841553 1.712488.3357817 3.391396.7555089 5.036727 1.2591815 3.458552 1.0073452 5.187827 3.1059812 5.187827 6.2959077.077099 2.2671103-.956947 4.4292055-2.770199 5.792235-1.8468 1.410283-4.314795 2.115425-7.403987 2.115425-3.424973 0-5.943337-.755509-7.55509-2.266527-1.779642-1.5110176-2.75341-3.7943334-2.9213-6.8499473z" opacity=".9"/></g></g></svg>