<svg fill="none" height="512" viewBox="0 0 512 512" width="512" xmlns="http://www.w3.org/2000/svg" xmlns:xlink="http://www.w3.org/1999/xlink"><clipPath id="a"><path d="m0 0h512v512h-512z"/></clipPath><g clip-path="url(#a)"><path d="m0 0h512v512h-512z" fill="#fff"/><path d="m246.427 328.228h120.325v63.446h-120.325z" fill="#f15a24"/><path d="m341.594 124.772h-170.646c-3.58-.029-7.131.652-10.447 2.002-3.317 1.35-6.333 3.344-8.875 5.865-2.542 2.522-4.56 5.522-5.938 8.827-1.377 3.305-2.086 6.851-2.087 10.431v36.317h223.151v-63.442zm-2.189 100.636h-195.582v166.266h63.442v-102.824h132.578c5.644-.02 11.146-1.772 15.763-5.019 4.616-3.247 8.125-7.832 10.051-13.137.903-2.45 1.347-5.048 1.316-7.658v-37.628zm-83.57 286.592c-103.486-.057-196.7591-62.417-236.3506-158.032-39.5959-95.61-17.7217-205.654 55.4238-278.8561 73.0368-73.14542 182.9068-95.1846 278.4998-55.8581 95.597 39.3222 158.158 132.2832 158.592 235.6512.426 103.368-61.357 196.85-156.629 236.967-31.485 13.341-65.341 20.187-99.536 20.128zm0-478.0215c-43.937-.0251-86.894 12.9846-123.434 37.3827-36.5404 24.398-65.0213 59.0878-81.8386 99.6788s-21.215 85.258-12.6364 128.35c8.5785 43.091 29.7477 82.669 60.8283 113.724 86.7537 86.75 227.4067 86.75 314.1567 0 86.753-86.753 86.753-227.406 0-314.1603-20.6-20.6436-45.09-36.9963-72.052-48.1113s-55.861-16.7716-85.024-16.6424z" fill="#000"/></g></svg>