<svg height="32" viewBox="0 0 51 32" width="51" xmlns="http://www.w3.org/2000/svg"><g fill="none" fill-rule="evenodd"><path d="m.5.5h50v31h-50z" fill="#fff" stroke="#d0d0d0"/><path d="m24 10.7835411v7.8064838c0 .6632926-.5372583 1.2009975-1.2 1.2009975h-21.6c-.6627417 0-1.2-.5377049-1.2-1.2009975v-7.8064838zm-14.19617623 5.4164589h-6.41064006c-.22128117 0-.40066501.1808725-.40066501.40399 0 .2163564.16867681.3929893.38066778.4034956l.01999723.0004944h6.41064006c.22128113 0 .40066503-.1808724.40066503-.40399 0-.2231175-.1793839-.40399-.40066503-.40399zm-3.61928512-2.0049875h-2.79301745c-.220363 0-.3990025.1808725-.3990025.40399 0 .2163564.16797691.3929893.37908825.4034956l.01991425.0004944h2.79301745c.220363 0 .3990025-.1808725.3990025-.40399s-.1786395-.40399-.3990025-.40399zm4.60847885 0h-2.7930175c-.22036299 0-.39900249.1808725-.39900249.40399 0 .2163564.1679769.3929893.37908824.4034956l.01991425.0004944h2.7930175c.2203629 0 .3990025-.1808725.3990025-.40399s-.1786396-.40399-.3990025-.40399zm4.6084788 0h-2.7930175c-.220363 0-.3990025.1808725-.3990025.40399 0 .2163564.1679769.3929893.3790883.4034956l.0199142.0004944h2.7930175c.220363 0 .3990025-.1808725.3990025-.40399 0-.2163564-.167977-.3929893-.3790883-.4034956zm4.6084788 0h-2.7930175c-.220363 0-.3990025.1808725-.3990025.40399 0 .2163564.1679769.3929893.3790883.4034956l.0199142.0004944h2.7930175c.220363 0 .3990025-.1808725.3990025-.40399 0-.2163564-.1679769-.3929893-.3790883-.4034956zm2.7900249-9.9950125c.6627417 0 1.2.5359185 1.2 1.19700748v1.79551122h-24v-1.79551122c0-.66108898.5372583-1.19700748 1.2-1.19700748z" fill="#2c3341" transform="translate(14 4)"/></g></svg>