<svg height="360" viewBox="0 0 640 360" width="640" xmlns="http://www.w3.org/2000/svg"><path d="m300 134.794264v97.581048c0 8.291157-6.715729 15.012469-15 15.012469h-270c-8.28427125 0-15-6.721312-15-15.012469v-97.581048zm-177.452203 67.705736h-80.1330007c-2.7660146 0-5.0083125 2.260906-5.0083125 5.049875 0 2.704455 2.1084601 4.912366 4.7583472 5.043695l.2499653.006181h80.1330007c2.766015 0 5.008313-2.260907 5.008313-5.049876s-2.242298-5.049875-5.008313-5.049875zm-45.2410638-25.062344h-34.9127182c-2.7545374 0-4.9875312 2.260906-4.9875312 5.049875 0 2.704455 2.0997113 4.912366 4.7386031 5.043695l.2489281.00618h34.9127182c2.7545374 0 4.9875311-2.260906 4.9875311-5.049875s-2.2329937-5.049875-4.9875311-5.049875zm57.6059848 0h-34.912718c-2.7545374 0-4.9875312 2.260906-4.9875312 5.049875 0 2.704455 2.0997113 4.912366 4.7386031 5.043695l.2489281.00618h34.912718c2.754538 0 4.987531-2.260906 4.987531-5.049875s-2.232993-5.049875-4.987531-5.049875zm57.605985 0h-34.912718c-2.754537 0-4.987531 2.260906-4.987531 5.049875 0 2.704455 2.099711 4.912366 4.738603 5.043695l.248928.00618h34.912718c2.754538 0 4.987531-2.260906 4.987531-5.049875 0-2.704455-2.099711-4.912366-4.738603-5.043695zm57.605985 0h-34.912718c-2.754537 0-4.987531 2.260906-4.987531 5.049875 0 2.704455 2.099711 4.912366 4.738603 5.043695l.248928.00618h34.912718c2.754538 0 4.987531-2.260906 4.987531-5.049875 0-2.704455-2.099711-4.912366-4.738603-5.043695zm34.875312-124.937656c8.284271 0 15 6.6989813 15 14.9625935v22.4438903h-300v-22.4438903c0-8.2636122 6.71572875-14.9625935 15-14.9625935z" fill="#2c3341" fill-rule="evenodd" transform="translate(170 30)"/></svg>