<svg width="640" height="360" xmlns="http://www.w3.org/2000/svg"><g fill="none"><path d="M162.647 161.398c7.336 0 14.67 3.43 16.764 11.801h-7.752c-1.843-3.48-4.799-4.875-9.009-4.875-6.908 0-10.806 5.083-10.806 11.504 0 6.833 4.193 11.453 10.803 11.453 5.063 0 8.75-1.484 10.333-6.874H162.91v-6.475H180.2a24.24 24.24 0 0 1-1.1 10.06c-2.797 7.218-9.431 10.31-16.452 10.31-9.753 0-18.86-6.527-18.86-18.443 0-11.917 9.158-18.46 18.863-18.46zm57.033 35.276v1.082h-8.436l-7.586-11.865h-6.59v11.865h-7.908v-35.959c5.236 0 10.475-.05 15.714 0 8.436 0 13.014 5.961 13.014 12.372a11.422 11.422 0 0 1-6.58 10.588l8.37 11.917zm-14.806-17.102a5.385 5.385 0 0 0 3.962-1.628 5.217 5.217 0 0 0 1.467-3.97 5.108 5.108 0 0 0-1.493-3.902 5.285 5.285 0 0 0-3.936-1.54h-7.908v11.04zm31.654 12.275-2.85 5.96h-8.224v-1.031l16.973-35.224h3.635l16.871 35.224v1.031h-8.164l-2.9-5.958h-15.34zm2.577-6.473h10.228l-5.114-11.865Zm39.62-3.227 3.894-8.804 4.958-11.44h8.382v1.03l-15.717 34.782h-3.268l-15.866-34.781v-1.032h8.385l4.954 11.44 4.108 8.856zm24.715 15.67V161.74h7.91v36.079Zm15.445-29.286v-6.629h31.056v6.68h-11.684v29.277h-7.647v-29.33Zm52.641 7.855 3.668-7.133 4.389-7.35h8.382v1.133l-12.646 20.39v14.381h-7.91v-14.38l-12.7-20.442v-1.083h8.486l4.58 7.66 3.48 6.875z" fill="#414141"/><path d="M124.227 191.458a10.355 10.355 0 0 1-4.694 8.144l-20.444 11.78a10.685 10.685 0 0 1-9.513.062l-20.6-11.505a10.353 10.353 0 0 1-4.81-8.08L64 168.553a10.327 10.327 0 0 1 4.704-8.134l20.442-11.804a10.716 10.716 0 0 1 9.513-.061l20.59 11.517c2.815 1.784 4.606 4.778 4.819 8.07l.159 23.315z" fill="#f15a2b"/><path d="M88.34 174.602h27.052v-7.545H88.403a12.592 12.592 0 0 0-9.513 3.885c-5.886 6.227-6.045 21.885-6.045 21.885h42.337v-14.174h-7.61v6.609H80.964c.167-2.465 1.308-6.867 3.468-9.145a5.042 5.042 0 0 1 3.908-1.515z" fill="#fff"/><path fill="#848484" d="M411.206 165.933v12.843h15.843v3.289h-15.843v15.463h-3.532v-34.873h20.18v3.276zm22.233 14.143c-.071-7.373 4.387-14.063 11.292-16.935a18.717 18.717 0 0 1 20.214 3.831 17.982 17.982 0 0 1 4.09 19.85c-2.851 6.821-9.606 11.272-17.102 11.275a18.422 18.422 0 0 1-13.083-5.201 17.823 17.823 0 0 1-5.41-12.82zm33.415 0c.015-5.94-3.609-11.307-9.183-13.59a15.1 15.1 0 0 0-16.275 3.156 14.506 14.506 0 0 0-3.25 16c2.303 5.49 7.747 9.071 13.787 9.071a14.86 14.86 0 0 0 10.59-4.228 14.373 14.373 0 0 0 4.331-10.409zm24.833 3.473H481.67v13.949h-3.575v-34.843h14.304c5.316-.072 9.864 3.747 10.626 8.924.766 5.178-2.49 10.11-7.609 11.528l8.738 14.432h-4.085l-8.384-13.99zm-10.017-3.288H492.4c3.706-.415 6.503-3.5 6.503-7.167 0-3.67-2.797-6.756-6.503-7.17H481.67zm61.829 17.237h-3.573v-29.566l-12.574 20.411h-.512l-12.513-20.41v29.565h-3.583v-34.843h4.454l11.926 19.41 11.901-19.41h4.443zm7.156-7.916 3.071-1.743c1.28 4.184 4.653 6.874 10.268 6.874 5.416 0 8.436-2.544 8.436-6.278 0-4.028-3.532-5.328-8.792-7.018-5.827-1.888-11.44-3.383-11.44-9.802 0-6.124 5.047-9.56 10.98-9.56 5.123-.096 9.797 2.878 11.806 7.518l-3.018 1.607c-1.361-3.583-4.903-5.91-8.788-5.774-4.297 0-7.41 2.196-7.41 6.022 0 3.824 3.072 4.978 7.922 6.527 6.485 2.06 12.31 3.885 12.31 10.306 0 5.968-4.901 9.751-12.06 9.751-6.59.085-11.44-3.122-13.283-8.43z"/></g></svg>