<svg xmlns="http://www.w3.org/2000/svg" width="512" height="512"><path d="M254.281.002a84.33 84.33 0 0 0-37.375 9.004L56.04 101.896a81.27 81.27 0 0 0-37.02 64.008L20.33 349.33a81.47 81.47 0 0 0 37.844 63.584l162.115 90.535a84.089 84.089 0 0 0 74.865-.484l160.887-92.71a81.49 81.49 0 0 0 36.94-64.087v-.02l-1.25-183.486c-1.672-25.901-15.771-49.466-37.926-63.504L291.77 8.523A84.33 84.33 0 0 0 254.28.002m-43.217 154.14h212.39v59.376H210.562a39.678 39.678 0 0 0-30.756 11.923c-17 17.926-25.982 52.57-27.291 71.965h209.406v-52.004H421.8v111.541H88.627s1.25-123.223 47.574-172.226a99.094 99.094 0 0 1 74.863-30.574" style="stroke-width:20.1411;fill:#fff"/></svg>