<?xml version="1.0" encoding="UTF-8"?>
<svg width="51px" height="32px" viewBox="0 0 51 32" xmlns="http://www.w3.org/2000/svg" xmlns:xlink="http://www.w3.org/1999/xlink" version="1.1">
 <!-- Generated by Pixelmator Pro 2.0.8 -->
 <path id="Path" d="M0.5 0.5 L50.5 0.5 50.5 31.5 0.5 31.5 Z" fill="#ffffff" fill-opacity="1" stroke="#d0d0d0" stroke-width="1" stroke-opacity="1" stroke-linejoin="round" stroke-linecap="round"/>
 <g id="Vipps">
  <path id="Path-1" d="M41.288 12.2 C42.629 12.2 43.583 12.826 44 14.375 L42.54 14.614 C42.51 13.839 42.033 13.571 41.318 13.571 40.782 13.571 40.364 13.809 40.364 14.197 40.364 14.495 40.573 14.793 41.199 14.912 L42.301 15.12 C43.374 15.329 43.97 16.044 43.97 16.998 43.97 18.428 42.689 19.143 41.467 19.143 40.186 19.143 38.755 18.488 38.547 16.879 L40.007 16.64 C40.096 17.475 40.603 17.773 41.437 17.773 42.063 17.773 42.48 17.534 42.48 17.147 42.48 16.789 42.272 16.521 41.586 16.402 L40.573 16.223 C39.5 16.014 38.845 15.269 38.845 14.316 38.874 12.826 40.215 12.2 41.288 12.2 Z" fill="#ff5b24" fill-opacity="1" stroke="none"/>
  <path id="Path-2" d="M32.944 12.379 L32.944 13.273 C33.391 12.647 34.076 12.2 35.09 12.2 36.371 12.2 37.861 13.273 37.861 15.567 37.861 17.981 36.431 19.143 34.941 19.143 34.166 19.143 33.451 18.845 32.914 18.1 L32.914 21.259 31.305 21.259 31.305 12.379 Z M32.944 15.657 C32.944 16.998 33.719 17.713 34.583 17.713 35.418 17.713 36.252 17.057 36.252 15.657 36.252 14.286 35.418 13.63 34.583 13.63 33.719 13.63 32.944 14.256 32.944 15.657 Z" fill="#ff5b24" fill-opacity="1" stroke="none"/>
  <path id="Path-3" d="M25.196 12.379 L25.196 13.273 C25.643 12.647 26.328 12.2 27.342 12.2 28.623 12.2 30.113 13.273 30.113 15.567 30.113 17.981 28.683 19.143 27.193 19.143 26.418 19.143 25.703 18.845 25.166 18.1 L25.166 21.259 23.557 21.259 23.557 12.379 Z M25.196 15.657 C25.196 16.998 25.971 17.713 26.835 17.713 27.669 17.713 28.504 17.057 28.504 15.657 28.504 14.286 27.669 13.63 26.835 13.63 26.001 13.63 25.196 14.256 25.196 15.657 Z" fill="#ff5b24" fill-opacity="1" stroke="none"/>
  <path id="Path-4" d="M18.938 17.922 C20.041 17.922 20.666 17.385 21.262 16.61 21.59 16.193 22.007 16.104 22.305 16.342 22.603 16.581 22.633 17.028 22.305 17.445 21.441 18.577 20.339 19.263 18.938 19.263 17.418 19.263 16.077 18.428 15.153 16.968 14.885 16.581 14.945 16.163 15.243 15.955 15.541 15.746 15.988 15.836 16.256 16.253 16.912 17.236 17.806 17.922 18.938 17.922 Z M20.994 14.256 C20.994 14.793 20.577 15.15 20.1 15.15 19.623 15.15 19.206 14.793 19.206 14.256 19.206 13.72 19.623 13.362 20.1 13.362 20.577 13.362 20.994 13.75 20.994 14.256 Z" fill="#ff5b24" fill-opacity="1" stroke="none"/>
  <path id="Path-5" d="M10.206 12.379 L11.726 16.819 13.216 12.379 14.974 12.379 12.352 18.965 11.041 18.965 8.418 12.379 Z" fill="#ff5b24" fill-opacity="1" stroke="none"/>
 </g>
</svg>
