<?xml version="1.0" encoding="UTF-8"?>
<svg width="641px" height="361px" viewBox="0 0 641 361" xmlns="http://www.w3.org/2000/svg" xmlns:xlink="http://www.w3.org/1999/xlink" version="1.1">
 <!-- Generated by Pixelmator Pro 2.0.8 -->
 <g id="Vipps">
  <path id="Path" d="M524.417 119.4 C542.508 119.4 555.372 127.842 561 148.747 L541.301 151.963 C540.899 141.511 534.467 137.892 524.819 137.892 517.583 137.892 511.955 141.109 511.955 146.335 511.955 150.355 514.769 154.375 523.211 155.983 L538.085 158.797 C552.558 161.611 560.598 171.259 560.598 184.124 560.598 203.42 543.312 213.068 526.829 213.068 509.543 213.068 490.246 204.224 487.432 182.516 L507.131 179.299 C508.337 190.556 515.171 194.576 526.427 194.576 534.869 194.576 540.497 191.36 540.497 186.134 540.497 181.31 537.683 177.691 528.437 176.083 L514.769 173.671 C500.296 170.857 491.452 160.807 491.452 147.943 491.854 127.842 509.945 119.4 524.417 119.4 Z" fill="#ff5b24" fill-opacity="1" stroke="none"/>
  <path id="Path-1" d="M411.854 121.812 L411.854 133.872 C417.884 125.43 427.131 119.4 440.799 119.4 458.085 119.4 478.186 133.872 478.186 164.827 478.186 197.39 458.889 213.068 438.789 213.068 428.337 213.068 418.688 209.048 411.452 198.998 L411.452 241.611 389.744 241.611 389.744 121.812 Z M411.854 166.033 C411.854 184.124 422.307 193.772 433.965 193.772 445.221 193.772 456.477 184.928 456.477 166.033 456.477 147.541 445.221 138.696 433.965 138.696 422.307 138.696 411.854 147.139 411.854 166.033 Z" fill="#ff5b24" fill-opacity="1" stroke="none"/>
  <path id="Path-2" d="M307.332 121.812 L307.332 133.872 C313.362 125.43 322.608 119.4 336.276 119.4 353.563 119.4 373.663 133.872 373.663 164.827 373.663 197.39 354.367 213.068 334.266 213.068 323.814 213.068 314.166 209.048 306.93 198.998 L306.93 241.611 285.221 241.611 285.221 121.812 Z M307.332 166.033 C307.332 184.124 317.784 193.772 329.442 193.772 340.698 193.772 351.955 184.928 351.955 166.033 351.955 147.541 340.698 138.696 329.442 138.696 318.186 138.696 307.332 147.139 307.332 166.033 Z" fill="#ff5b24" fill-opacity="1" stroke="none"/>
  <path id="Path-3" d="M222.91 196.586 C237.784 196.586 246.226 189.35 254.266 178.897 258.688 173.269 264.317 172.063 268.337 175.279 272.357 178.495 272.759 184.526 268.337 190.154 256.678 205.43 241.804 214.676 222.91 214.676 202.407 214.676 184.317 203.42 171.854 183.722 168.236 178.495 169.04 172.867 173.06 170.053 177.08 167.239 183.111 168.445 186.729 174.073 195.573 187.34 207.633 196.586 222.91 196.586 Z M250.648 147.139 C250.648 154.375 245.02 159.199 238.588 159.199 232.156 159.199 226.528 154.375 226.528 147.139 226.528 139.903 232.156 135.078 238.588 135.078 245.02 135.078 250.648 140.305 250.648 147.139 Z" fill="#ff5b24" fill-opacity="1" stroke="none"/>
  <path id="Path-4" d="M105.121 121.812 L125.623 181.712 145.724 121.812 169.442 121.812 134.065 210.656 116.377 210.656 81 121.812 Z" fill="#ff5b24" fill-opacity="1" stroke="none"/>
 </g>
</svg>
