<?xml version="1.0" encoding="UTF-8" standalone="no"?>
<svg
   width="640"
   height="360"
   viewBox="0 0 640 360"
   version="1.1"
   id="svg1354"
   sodipodi:docname="provider-icepay-white-640x360.svg"
   inkscape:version="1.1.2 (b8e25be8, 2022-02-05)"
   xmlns:inkscape="http://www.inkscape.org/namespaces/inkscape"
   xmlns:sodipodi="http://sodipodi.sourceforge.net/DTD/sodipodi-0.dtd"
   xmlns="http://www.w3.org/2000/svg"
   xmlns:svg="http://www.w3.org/2000/svg">
  <defs
     id="defs1358" />
  <sodipodi:namedview
     id="namedview1356"
     pagecolor="#ffffff"
     bordercolor="#666666"
     borderopacity="1.0"
     inkscape:pageshadow="2"
     inkscape:pageopacity="0.0"
     inkscape:pagecheckerboard="0"
     showgrid="false"
     inkscape:zoom="1.9203125"
     inkscape:cx="319.73963"
     inkscape:cy="179.91863"
     inkscape:window-width="1927"
     inkscape:window-height="1137"
     inkscape:window-x="2505"
     inkscape:window-y="272"
     inkscape:window-maximized="0"
     inkscape:current-layer="g1352" />
  <g
     fill="none"
     fill-rule="evenodd"
     transform="translate(80 108)"
     id="g1352">
    <path
       d="M228.946957 133.8C228.466957 134.251304 228.174783 135.182609 228.174783 136.082609 228.174783 137.814783 228.847826 138.876522 230.196521 138.876522 231.451305 138.876522 232.288695 137.814783 232.288695 136.273044L232.288695 133.186956 230.812174 133.186956C230.006088 133.186956 229.460869 133.317391 228.946957 133.8zM382.750436 133.8C382.265217 134.251304 381.980869 135.182609 381.980869 136.082609 381.980869 137.814783 382.656521 138.876522 384.002609 138.876522 385.254783 138.876522 386.092174 137.814783 386.092174 136.273044L386.092174 133.186956 384.618262 133.186956C383.812174 133.186956 383.261738 133.317391 382.750436 133.8zM303.534783 120.495652L301.087826 120.495652 301.087826 128.91913 303.534783 128.91913C305.653043 128.91913 306.138272 127.215652 306.138272 124.708696 306.140869 122.201739 305.655652 120.495652 303.534783 120.495652zM315.738262 126.313044C315.065217 126.313044 314.613912 126.631304 314.293043 127.02 313.779131 127.627826 313.617391 128.981739 313.617391 131.227826L317.859131 131.227826C317.859131 128.981739 317.731305 127.627826 317.217391 127.02 316.896521 126.631304 316.416521 126.313044 315.738262 126.313044zM344.326957 126.313044C343.719131 126.313044 343.205217 126.568696 342.879131 127.02 342.271305 127.854783 342.206088 129.589565 342.206088 132.57913 342.206088 135.568696 342.268695 137.269565 342.879131 138.104348 343.205217 138.555652 343.716521 138.811304 344.326957 138.811304 344.94 138.811304 345.485217 138.555652 345.806088 138.104348 346.416521 137.269565 346.445217 135.566087 346.445217 132.57913 346.445217 129.592174 346.416521 127.854783 345.806088 127.02 345.487826 126.568696 344.942609 126.313044 344.326957 126.313044zM268.846957 126.313044C268.239131 126.313044 267.722609 126.568696 267.404348 127.02 266.793912 127.854783 266.726088 129.589565 266.726088 132.57913 266.726088 135.568696 266.791305 137.269565 267.404348 138.104348 267.722609 138.555652 268.236521 138.811304 268.846957 138.811304 269.457391 138.811304 270.005217 138.555652 270.328695 138.104348 270.936521 137.269565 270.967826 135.566087 270.967826 132.57913 270.967826 129.592174 270.936521 127.854783 270.328695 127.02 270.005217 126.568696 269.457391 126.313044 268.846957 126.313044zM339.153912 53.8226088C337.301738 52.4478262 333.986088 51.7460869 329.298262 51.7460869L313.92 51.7460869 313.92 69.6991305 330.164348 69.6991305C334.179131 69.6991305 337.176521 68.9452174 339.065217 67.4582609 340.914783 66.0026088 341.817391 63.7982609 341.817391 60.7226088 341.814783 57.4617391 340.922609 55.14 339.153912 53.8226088zM420.725217 126.313044C420.049564 126.313044 419.595652 126.631304 419.277391 127.02 418.760869 127.627826 418.601738 128.981739 418.601738 131.227826L422.840869 131.227826C422.840869 128.981739 422.713043 127.627826 422.199131 127.02 421.883479 126.631304 421.398262 126.313044 420.725217 126.313044z"
       id="path1296" />
    <polygon
       points="379.602 77.053 396.921 77.053 388.101 54.663"
       id="polygon1298" />
    <path
       d="M192.675652,133.8 C192.195652,134.251304 191.906087,135.182609 191.906087,136.082609 C191.906087,137.814783 192.57913,138.876522 193.933044,138.876522 C195.185217,138.876522 196.02,137.814783 196.02,136.273044 L196.02,133.186956 L194.54087,133.186956 C193.737391,133.186956 193.192174,133.317391 192.675652,133.8 Z"
       id="path1300" />
    <polygon
       fill="#636666"
       points="170.225 120.496 174.081 120.496 174.081 140.901 176.843 140.901 176.843 120.496 180.668 120.496 180.668 118.025 170.225 118.025"
       id="polygon1302"
       style="fill:#ffffff" />
    <path
       fill="#636666"
       d="M184.10087,126.026087 L184.10087,124.254783 L181.596522,124.254783 L181.596522,140.90087 L184.2,140.90087 L184.2,129.555652 C184.2,127.65913 185.454783,126.503478 187.22087,126.503478 L187.993044,126.503478 L187.993044,123.99913 C186.933913,123.99913 186.033913,124.286087 185.261739,124.831304 C184.83913,125.123478 184.35913,125.574783 184.10087,126.026087 Z"
       id="path1304"
       style="fill:#ffffff" />
    <path
       fill="#636666"
       fill-rule="nonzero"
       d="M194.055652,124.001739 C192.772174,124.001739 191.582609,124.484348 190.844348,125.22 C189.847826,126.21913 189.558261,127.471304 189.558261,128.757391 L192.15913,128.757391 C192.15913,127.854783 192.32087,127.309565 192.772174,126.826956 C193.093044,126.506087 193.47913,126.281739 194.055652,126.281739 C195.341739,126.281739 196.017391,127.116522 196.017391,128.66087 L196.017391,131.295652 L194.313913,131.295652 C192.576522,131.295652 191.616522,131.676522 190.77913,132.417391 C189.816522,133.288696 189.302609,134.637391 189.302609,136.176522 C189.302609,137.913913 189.72,139.166087 190.364348,139.906956 C191.133913,140.773044 192.002609,141.156522 193.226087,141.156522 C194.126087,141.156522 194.673913,140.934783 195.185217,140.548696 C195.506087,140.290435 195.892174,139.870435 196.147826,139.424348 L196.147826,140.90087 L198.623478,140.90087 L198.623478,128.817391 C198.623478,127.116522 198.109565,125.989565 197.306087,125.157391 C196.528696,124.382609 195.406956,124.001739 194.055652,124.001739 Z M196.02,136.273044 C196.02,137.814783 195.185217,138.876522 193.933044,138.876522 C192.57913,138.876522 191.906087,137.814783 191.906087,136.082609 C191.906087,135.182609 192.195652,134.251304 192.675652,133.8 C193.192174,133.317391 193.737391,133.189565 194.54087,133.189565 L196.02,133.189565 L196.02,136.273044 Z"
       id="path1306"
       style="fill:#ffffff" />
    <path
       fill="#636666"
       d="M207.485217 124.001739C206.812174 124.001739 206.19913 124.192174 205.687826 124.515652 205.333044 124.734783 204.881739 125.157391 204.657391 125.543478L204.657391 124.257391 202.150435 124.257391 202.150435 140.903478 204.753913 140.903478 204.753913 128.66087C204.753913 127.116522 205.622609 126.344348 206.713044 126.344348 207.806087 126.344348 208.706087 127.116522 208.706087 128.66087L208.706087 140.90087 211.306956 140.90087 211.306956 128.66087C211.306956 126.86087 210.986087 125.958261 210.310435 125.22 209.606087 124.416522 208.737391 124.001739 207.485217 124.001739zM220.497391 131.809565L218.379131 130.747826C217.703478 130.426956 217.22087 130.04087 216.996522 129.657391 216.803478 129.3 216.706956 128.91913 216.706956 128.433913 216.706956 127.823478 216.9 127.244348 217.317391 126.826956 217.672174 126.472174 218.154783 126.281739 218.762609 126.281739 219.279131 126.281739 219.793043 126.443478 220.176521 126.86087 220.593912 127.312174 220.789564 127.888696 220.789564 128.851304L223.353912 128.851304C223.353912 127.215652 222.873912 126.028696 222.005217 125.188696 221.201738 124.385217 220.077391 124.004348 218.76 124.004348 217.476522 124.004348 216.318261 124.41913 215.483478 125.256522 214.648696 126.088696 214.103478 127.181739 214.103478 128.629565 214.103478 129.498261 214.262609 130.205217 214.617391 130.813044 215.034783 131.52 215.804348 132.198261 216.897391 132.74087L219.049564 133.833913C219.725217 134.186087 220.205217 134.54087 220.528695 135.02087 220.815652 135.472174 220.946088 135.954783 220.946088 136.528696 220.946088 137.209565 220.687826 137.814783 220.301738 138.206087 219.884348 138.62087 219.401738 138.811304 218.726088 138.811304 218.212174 138.811304 217.633044 138.62087 217.249565 138.234783 216.766956 137.72087 216.542609 137.076522 216.542609 136.213044L213.973044 136.213044C213.973044 137.72087 214.421739 138.876522 215.386956 139.870435 216.190435 140.707826 217.377391 141.156522 218.728695 141.156522 220.077391 141.156522 221.233043 140.773044 222.133043 139.841739 222.967826 139.006956 223.546957 137.846087 223.546957 136.369565 223.546957 135.310435 223.288695 134.376522 222.84 133.706087 222.362609 132.931304 221.624348 132.354783 220.497391 131.809565z"
       id="path1308"
       style="fill:#ffffff" />
    <path
       fill="#636666"
       fill-rule="nonzero"
       d="M230.326957,124.001739 C229.043479,124.001739 227.853912,124.484348 227.115652,125.22 C226.119131,126.21913 225.829564,127.471304 225.829564,128.757391 L228.433043,128.757391 C228.433043,127.854783 228.594783,127.309565 229.046088,126.826956 C229.364348,126.506087 229.753043,126.281739 230.329564,126.281739 C231.615652,126.281739 232.291305,127.116522 232.291305,128.66087 L232.291305,131.295652 L230.590436,131.295652 C228.850436,131.295652 227.887826,131.676522 227.053043,132.417391 C226.090436,133.288696 225.573912,134.637391 225.573912,136.176522 C225.573912,137.913913 225.993912,139.166087 226.635652,139.906956 C227.405217,140.773044 228.273912,141.156522 229.497391,141.156522 C230.394783,141.156522 230.945217,140.934783 231.456521,140.548696 C231.777391,140.290435 232.163479,139.870435 232.421738,139.424348 L232.421738,140.90087 L234.894783,140.90087 L234.894783,128.817391 C234.894783,127.116522 234.380869,125.989565 233.577391,125.157391 C232.8,124.382609 231.675652,124.001739 230.326957,124.001739 Z M232.288695,136.273044 C232.288695,137.814783 231.453912,138.876522 230.196521,138.876522 C228.845217,138.876522 228.174783,137.814783 228.174783,136.082609 C228.174783,135.182609 228.466957,134.251304 228.946957,133.8 C229.463479,133.317391 230.008695,133.189565 230.812174,133.189565 L232.288695,133.189565 L232.288695,136.273044 Z"
       id="path1310"
       style="fill:#ffffff" />
    <path
       fill="#636666"
       d="M242.634783 126.313044C243.273912 126.313044 243.725217 126.537391 244.08 126.954783 244.528695 127.502609 244.596521 128.204348 244.596521 128.88L247.163479 128.88C247.126957 127.502609 246.84 126.086087 245.843479 125.089565 245.008695 124.254783 243.949564 123.99913 242.600869 123.99913 241.186957 123.99913 239.932174 124.413913 239.094783 125.54087 238.066957 126.858261 237.879131 129.203478 237.879131 132.576522 237.879131 135.952174 238.066957 138.294783 239.094783 139.612174 239.929564 140.73913 241.186957 141.153913 242.600869 141.153913 243.952174 141.153913 245.107826 140.801739 245.874783 139.998261 246.746088 139.129565 247.126957 137.846087 247.163479 136.273044L244.596521 136.273044C244.596521 137.045217 244.497391 137.686956 244.046088 138.20087 243.691305 138.584348 243.242609 138.806087 242.634783 138.806087 242.024348 138.806087 241.476521 138.550435 241.155652 138.09913 240.545217 137.264348 240.48 135.56087 240.48 132.573913 240.48 129.586956 240.542609 127.849565 241.155652 127.014783 241.473912 126.568696 242.021738 126.313044 242.634783 126.313044zM253.265217 136.048696L253.265217 126.281739 255.832174 126.281739 255.832174 124.257391 253.265217 124.257391 253.265217 119.694783 250.664348 119.694783 250.664348 124.257391 248.767826 124.257391 248.767826 126.281739 250.664348 126.281739 250.664348 136.145217C250.664348 137.882609 251.178262 139.10087 252.109564 139.870435 253.168695 140.773044 254.452174 140.903478 255.933912 140.903478L255.933912 138.558261C254.196521 138.555652 253.265217 137.814783 253.265217 136.048696z"
       id="path1312"
       style="fill:#ffffff" />
    <rect
       width="3.05"
       height="3.018"
       x="258.183"
       y="118.281"
       fill="#636666"
       id="rect1314"
       style="fill:#ffffff" />
    <rect
       width="2.601"
       height="16.357"
       x="258.407"
       y="124.547"
       fill="#636666"
       id="rect1316"
       style="fill:#ffffff" />
    <path
       fill="#636666"
       fill-rule="nonzero"
       d="M268.846957,124.001739 C267.373043,124.001739 266.183479,124.416522 265.346088,125.543478 C264.315652,126.86087 264.122609,129.206087 264.122609,132.57913 C264.122609,135.954783 264.315652,138.297391 265.346088,139.614783 C266.180869,140.741739 267.370436,141.156522 268.846957,141.156522 C270.328695,141.156522 271.544348,140.741739 272.381738,139.614783 C273.406957,138.297391 273.571305,135.954783 273.571305,132.57913 C273.571305,129.206087 273.406957,126.86087 272.381738,125.543478 C271.544348,124.416522 270.328695,124.001739 268.846957,124.001739 Z M270.328695,138.104348 C270.005217,138.555652 269.457391,138.811304 268.846957,138.811304 C268.239131,138.811304 267.722609,138.555652 267.404348,138.104348 C266.793912,137.269565 266.726088,135.566087 266.726088,132.57913 C266.726088,129.592174 266.791305,127.854783 267.404348,127.02 C267.722609,126.568696 268.236521,126.313044 268.846957,126.313044 C269.457391,126.313044 270.005217,126.568696 270.328695,127.02 C270.936521,127.854783 270.967826,129.589565 270.967826,132.57913 C270.967826,135.568696 270.936521,137.269565 270.328695,138.104348 Z"
       id="path1318"
       style="fill:#ffffff" />
    <path
       fill="#636666"
       d="M282.046957,124.001739 C281.376521,124.001739 280.768695,124.192174 280.252174,124.515652 C279.897391,124.734783 279.448695,125.157391 279.221738,125.543478 L279.221738,124.257391 L276.717391,124.257391 L276.717391,140.903478 L279.318262,140.903478 L279.318262,128.66087 C279.318262,127.116522 280.186957,126.344348 281.28,126.344348 C282.373043,126.344348 283.273043,127.116522 283.273043,128.66087 L283.273043,140.90087 L285.876521,140.90087 L285.876521,128.66087 C285.876521,126.86087 285.550436,125.958261 284.88,125.22 C284.173043,124.416522 283.304348,124.001739 282.046957,124.001739 Z"
       id="path1320"
       style="fill:#ffffff" />
    <path
       fill="#636666"
       fill-rule="nonzero"
       d="M303.469564 118.025217L298.327826 118.025217 298.327826 140.903478 301.090436 140.903478 301.090436 131.392174 303.469564 131.392174C307.26 131.392174 308.900869 129.39913 308.900869 124.674783 308.900869 119.598261 306.939131 118.025217 303.469564 118.025217zM303.534783 128.916522L301.087826 128.916522 301.087826 120.495652 303.534783 120.495652C305.653043 120.495652 306.138272 122.201739 306.138272 124.706087 306.140869 127.213044 305.655652 128.916522 303.534783 128.916522zM319.014783 125.285217C318.148695 124.353913 317.092174 124.001739 315.738262 124.001739 314.423479 124.001739 313.330436 124.382609 312.461738 125.285217 311.178262 126.602609 311.013912 129.075652 311.013912 132.57913 311.013912 136.082609 311.206957 138.555652 312.493043 139.870435 313.359131 140.773044 314.324348 141.156522 315.772174 141.156522 317.089564 141.156522 318.279131 140.804348 319.077391 139.938261 319.98 138.973044 320.368695 137.749565 320.397391 136.273044L317.827826 136.273044C317.827826 137.047826 317.603479 137.749565 317.248695 138.172174 316.865217 138.589565 316.382609 138.811304 315.774783 138.811304 315.096521 138.811304 314.645217 138.493044 314.326957 138.104348 313.747826 137.368696 313.62 135.824348 313.62 133.186956L320.465217 133.186956C320.465217 129.623478 320.397391 126.795652 319.014783 125.285217zM313.62 131.227826C313.62 128.981739 313.781738 127.627826 314.295652 127.02 314.616521 126.633913 315.067826 126.313044 315.740869 126.313044 316.419131 126.313044 316.896521 126.631304 317.22 127.02 317.733912 127.627826 317.861738 128.981739 317.861738 131.227826L313.62 131.227826z"
       id="path1322"
       style="fill:#ffffff" />
    <path
       fill="#636666"
       d="M326.019131 126.026087L326.019131 124.254783 323.517391 124.254783 323.517391 140.90087 326.118262 140.90087 326.118262 129.555652C326.118262 127.65913 327.367826 126.503478 329.133912 126.503478L329.908695 126.503478 329.908695 123.99913C328.849564 123.99913 327.946957 124.286087 327.174783 124.831304 326.757391 125.123478 326.274783 125.574783 326.019131 126.026087zM332.861738 122.650435L332.861738 124.254783 330.965217 124.254783 330.965217 126.27913 332.861738 126.27913 332.861738 140.898261 335.465217 140.898261 335.465217 126.27913 338.034783 126.27913 338.034783 124.254783 335.465217 124.254783 335.465217 122.746956C335.465217 121.072174 336.331305 120.24 338.034783 120.24L338.034783 117.894783C336.620869 117.894783 335.334783 118.085217 334.309564 118.956522 333.375652 119.723478 332.861738 120.915652 332.861738 122.650435z"
       id="path1324"
       style="fill:#ffffff" />
    <path
       fill="#636666"
       fill-rule="nonzero"
       d="M344.326957,124.001739 C342.847826,124.001739 341.660869,124.416522 340.826088,125.543478 C339.795652,126.86087 339.602609,129.206087 339.602609,132.57913 C339.602609,135.954783 339.795652,138.297391 340.826088,139.614783 C341.658262,140.741739 342.845217,141.156522 344.326957,141.156522 C345.808695,141.156522 347.026957,140.741739 347.859131,139.614783 C348.892174,138.297391 349.051305,135.954783 349.051305,132.57913 C349.051305,129.206087 348.889564,126.86087 347.859131,125.543478 C347.026957,124.416522 345.808695,124.001739 344.326957,124.001739 Z M345.808695,138.104348 C345.487826,138.555652 344.942609,138.811304 344.329564,138.811304 C343.721738,138.811304 343.207826,138.555652 342.881738,138.104348 C342.273912,137.269565 342.208695,135.566087 342.208695,132.57913 C342.208695,129.592174 342.271305,127.854783 342.881738,127.02 C343.207826,126.568696 343.719131,126.313044 344.329564,126.313044 C344.942609,126.313044 345.487826,126.568696 345.808695,127.02 C346.419131,127.854783 346.447826,129.589565 346.447826,132.57913 C346.447826,135.568696 346.419131,137.269565 345.808695,138.104348 Z"
       id="path1326"
       style="fill:#ffffff" />
    <path
       fill="#636666"
       d="M354.706957 126.026087L354.706957 124.254783 352.2 124.254783 352.2 140.90087 354.800869 140.90087 354.800869 129.555652C354.800869 127.65913 356.053043 126.503478 357.821738 126.503478L358.593912 126.503478 358.593912 123.99913C357.534783 123.99913 356.634783 124.286087 355.862609 124.831304 355.445217 125.123478 354.962609 125.574783 354.706957 126.026087zM372.662609 124.001739C372.054783 124.001739 371.282609 124.192174 370.766088 124.515652 370.283479 124.802609 369.800869 125.285217 369.448695 125.733913 368.773043 124.706087 367.549564 124.001739 366.266088 124.001739 365.593043 124.001739 364.982609 124.192174 364.468695 124.515652 364.116521 124.734783 363.665217 125.157391 363.438262 125.543478L363.438262 124.257391 360.936521 124.257391 360.936521 140.903478 363.534783 140.903478 363.534783 128.66087C363.534783 127.116522 364.403479 126.344348 365.493912 126.344348 366.589564 126.344348 367.489564 127.116522 367.489564 128.66087L367.489564 140.90087 370.090436 140.90087 370.090436 128.66087C370.090436 127.116522 370.959131 126.344348 372.052174 126.344348 373.142609 126.344348 374.011305 127.116522 374.011305 128.66087L374.011305 140.90087 376.614783 140.90087 376.614783 128.66087C376.614783 126.86087 376.327826 125.958261 375.649564 125.22 374.945217 124.416522 374.113043 124.001739 372.662609 124.001739z"
       id="path1328"
       style="fill:#ffffff" />
    <path
       fill="#636666"
       fill-rule="nonzero"
       d="M384.130436,124.001739 C382.846957,124.001739 381.657391,124.484348 380.921738,125.22 C379.927826,126.21913 379.635652,127.471304 379.635652,128.757391 L382.239131,128.757391 C382.239131,127.854783 382.400869,127.309565 382.846957,126.826956 C383.167826,126.506087 383.553912,126.281739 384.130436,126.281739 C385.416521,126.281739 386.092174,127.116522 386.092174,128.66087 L386.092174,131.295652 L384.391305,131.295652 C382.656521,131.295652 381.691305,131.676522 380.859131,132.417391 C379.893912,133.288696 379.38,134.637391 379.38,136.176522 C379.38,137.913913 379.797391,139.166087 380.439131,139.906956 C381.211305,140.773044 382.077391,141.156522 383.303479,141.156522 C384.200869,141.156522 384.746088,140.934783 385.26,140.548696 C385.583479,140.290435 385.966957,139.870435 386.225217,139.424348 L386.225217,140.90087 L388.695652,140.90087 L388.695652,128.817391 C388.695652,127.116522 388.181738,125.989565 387.375652,125.157391 C386.606088,124.382609 385.484348,124.001739 384.130436,124.001739 Z M386.092174,136.273044 C386.092174,137.814783 385.257391,138.876522 384.002609,138.876522 C382.653912,138.876522 381.980869,137.814783 381.980869,136.082609 C381.980869,135.182609 382.265217,134.251304 382.750436,133.8 C383.261738,133.317391 383.812174,133.189565 384.618262,133.189565 L386.092174,133.189565 L386.092174,136.273044 Z"
       id="path1330"
       style="fill:#ffffff" />
    <path
       fill="#636666"
       d="M397.562609 124.001739C396.884348 124.001739 396.279131 124.192174 395.765217 124.515652 395.410436 124.734783 394.961738 125.157391 394.732174 125.543478L394.732174 124.257391 392.225217 124.257391 392.225217 140.903478 394.828695 140.903478 394.828695 128.66087C394.828695 127.116522 395.697391 126.344348 396.787826 126.344348 397.883479 126.344348 398.783479 127.116522 398.783479 128.66087L398.783479 140.90087 401.386957 140.90087 401.386957 128.66087C401.386957 126.86087 401.063479 125.958261 400.387826 125.22 399.683479 124.416522 398.817391 124.001739 397.562609 124.001739zM409.126957 126.313044C409.768695 126.313044 410.217391 126.537391 410.572174 126.954783 411.026088 127.502609 411.088695 128.204348 411.088695 128.88L413.655652 128.88C413.621738 127.502609 413.334783 126.086087 412.338262 125.089565 411.506088 124.254783 410.444348 123.99913 409.095652 123.99913 407.679131 123.99913 406.426957 124.413913 405.589564 125.54087 404.561738 126.858261 404.366088 129.203478 404.366088 132.576522 404.366088 135.952174 404.561738 138.294783 405.589564 139.612174 406.424348 140.73913 407.679131 141.153913 409.095652 141.153913 410.446957 141.153913 411.6 140.801739 412.372174 139.998261 413.240869 139.129565 413.621738 137.846087 413.655652 136.273044L411.088695 136.273044C411.088695 137.045217 410.989564 137.686956 410.540869 138.20087 410.186088 138.584348 409.737391 138.806087 409.126957 138.806087 408.516521 138.806087 407.968695 138.550435 407.653043 138.09913 407.04 137.264348 406.972174 135.56087 406.972174 132.573913 406.972174 129.586956 407.037391 127.849565 407.653043 127.014783 407.968695 126.568696 408.516521 126.313044 409.126957 126.313044z"
       id="path1332"
       style="fill:#ffffff" />
    <path
       fill="#636666"
       fill-rule="nonzero"
       d="M424.001738,125.285217 C423.135652,124.353913 422.073912,124.001739 420.725217,124.001739 C419.405217,124.001739 418.312174,124.382609 417.446088,125.285217 C416.157391,126.602609 415.995652,129.075652 415.995652,132.57913 C415.995652,136.082609 416.191305,138.555652 417.474783,139.870435 C418.346088,140.773044 419.308695,141.156522 420.753912,141.156522 C422.071305,141.156522 423.258262,140.804348 424.064348,139.938261 C424.961738,138.973044 425.347826,137.749565 425.384348,136.273044 L422.812174,136.273044 C422.812174,137.047826 422.585217,137.749565 422.233043,138.172174 C421.846957,138.589565 421.364348,138.811304 420.756521,138.811304 C420.080869,138.811304 419.632174,138.493044 419.311305,138.104348 C418.729564,137.368696 418.604348,135.824348 418.604348,133.186956 L425.446957,133.186956 C425.446957,129.623478 425.384348,126.795652 424.001738,125.285217 Z M418.604348,131.227826 C418.604348,128.981739 418.763479,127.627826 419.28,127.02 C419.598262,126.633913 420.052174,126.313044 420.727826,126.313044 C421.400869,126.313044 421.883479,126.631304 422.201738,127.02 C422.715652,127.627826 422.843479,128.981739 422.843479,131.227826 L418.604348,131.227826 Z"
       id="path1334"
       style="fill:#ffffff" />
    <polygon
       fill="#658399"
       points="16.367 46.933 0 38.27 0 107.035 60.95 143.361 60.95 123.623 16.367 99.501"
       id="polygon1336"
       style="fill:#ffffff" />
    <polygon
       fill="#6D8EA7"
       points="107.804 99.501 62.966 123.623 62.966 143.361 122.799 106.865 122.799 38.416 107.804 46.933"
       id="polygon1338"
       style="fill:#ffffff" />
    <polygon
       fill="#7092AB"
       points="0 35.455 16.367 43.818 61.954 18.365 107.804 43.719 122.799 35.596 61.954 0"
       id="polygon1340"
       style="fill:#ffffff" />
    <polygon
       fill="#231F20"
       points="62.969 94.518 62.969 72.081 89.1 57.352 89.1 55.163 61.946 69.997 36.125 55.163 36.125 57.35 60.95 71.984 60.95 94.518"
       id="polygon1342"
       style="fill:#ffffff" />
    <rect
       width="16.411"
       height="68.481"
       x="145.897"
       y="38.1"
       fill="#231F20"
       id="rect1344"
       style="fill:#ffffff" />
    <path
       fill="#231F20"
       d="M202.153044 106.583478L226.766088 106.583478 226.766088 93.2113043 202.833913 93.2113043C197.118261 93.2113043 193.064348 91.8078262 190.797391 89.04 188.496522 86.2173912 187.317391 81.1930436 187.317391 74.1130436 187.317391 65.8904348 188.561739 59.9321738 191.003478 56.4130436 193.406087 52.9382609 197.274783 51.2478262 202.833913 51.2478262L226.766088 51.2478262 226.766088 38.1 202.557391 38.1C191.611304 38.1 183.388696 41.0321738 178.124348 46.8078262 172.886087 52.5626088 170.225217 61.5495652 170.225217 73.5182609 170.225217 79.6878262 171.114783 85.0721738 172.852174 89.5226088 174.607826 94.02 177.289565 97.7269564 180.813913 100.531304 183.524348 102.717391 186.466956 104.282609 189.56087 105.208696 192.615652 106.121739 196.854783 106.583478 202.153044 106.583478zM238.995652 46.8104348C233.757391 52.5652174 231.104348 61.5521738 231.104348 73.5208695 231.104348 79.6904348 231.978262 85.0747826 233.723479 89.5252174 235.481738 94.0226088 238.160869 97.7295652 241.682609 100.533913 244.390436 102.72 247.325217 104.285217 250.419131 105.211304 253.473912 106.124348 257.713043 106.583478 263.006088 106.583478L287.590436 106.583478 287.590436 93.2113043 263.692174 93.2113043C258.276521 93.2113043 254.389564 92.0217391 252.146088 89.6713043 250.006957 87.4330436 248.848695 83.7234783 248.710436 78.6234783L287.590436 78.6234783 287.590436 65.2539131 248.848695 65.2095652C249.213912 60.6808695 250.549564 57.2634783 252.808695 55.0434783 255.208695 52.6773912 258.871305 51.4773912 263.692174 51.4773912L287.590436 51.4773912 287.590436 38.1052104 263.415652 38.1052104C252.472174 38.1 244.26 41.0321738 238.995652 46.8104348z"
       id="path1346"
       style="fill:#ffffff" />
    <path
       fill="#231F20"
       fill-rule="nonzero"
       d="M357.200869 71.3608695C358.518262 68.4026088 359.180869 64.8234783 359.180869 60.7226088 359.180869 56.52 358.366957 52.7452174 356.749564 49.5078262 355.129564 46.2495652 352.708695 43.5678262 349.56 41.5513043 347.650436 40.3486957 345.088695 39.4565217 341.937391 38.9139131 338.835652 38.3713043 334.648695 38.1026088 329.480869 38.1026088L298.147826 38.1026088 298.147826 106.583478 313.92 106.583478 313.92 83.2486957 330.070436 83.2486957C335.953043 83.2486957 340.393043 82.9173912 343.273043 82.2521738 346.2 81.5817391 348.832174 80.4234783 351.099131 78.8217391 353.82 76.86 355.873043 74.3504348 357.200869 71.3608695zM339.065217 67.4582609C337.173912 68.9452174 334.179131 69.6991305 330.164348 69.6991305L313.92 69.6991305 313.92 51.7460869 329.298262 51.7460869C333.986088 51.7460869 337.301738 52.4478262 339.153912 53.8226088 340.922609 55.14 341.817391 57.4643479 341.817391 60.7226088 341.814783 63.7982609 340.914783 66.0026088 339.065217 67.4582609zM380.603479 38.1L351.631305 106.58087 368.449564 106.58087 374.392174 90.6939131 402.187826 90.6939131 408.315652 106.58087 425.861738 106.58087 396.654783 38.1 380.603479 38.1 380.603479 38.1zM379.601738 77.0530436L388.103479 54.6626088 396.923479 77.0530436 379.601738 77.0530436z"
       id="path1348"
       style="fill:#ffffff" />
    <polygon
       fill="#231F20"
       points="461.559 38.1 445.33 62.843 429.321 38.1 411.394 38.1 437.645 76.521 437.645 106.583 453.42 106.583 453.42 76.523 480 38.1"
       id="polygon1350"
       style="fill:#ffffff" />
  </g>
</svg>
