<svg height="360" viewBox="0 0 640 360" width="640" xmlns="http://www.w3.org/2000/svg"><g fill="none" fill-rule="evenodd" transform="translate(80 108)"><path d="m228.946957 133.8c-.48.451304-.772174 1.382609-.772174 2.282609 0 1.732174.673043 2.793913 2.021738 2.793913 1.254784 0 2.092174-1.061739 2.092174-2.603478v-3.086088h-1.476521c-.806086 0-1.351305.130435-1.865217.613044zm153.803479 0c-.485219.451304-.769567 1.382609-.769567 2.282609 0 1.732174.675652 2.793913 2.02174 2.793913 1.252174 0 2.089565-1.061739 2.089565-2.603478v-3.086088h-1.473912c-.806088 0-1.356524.130435-1.867826.613044zm-79.215653-13.304348h-2.446957v8.423478h2.446957c2.11826 0 2.603489-1.703478 2.603489-4.210434.002597-2.506957-.48262-4.213044-2.603489-4.213044zm12.203479 5.817392c-.673045 0-1.12435.31826-1.445219.706956-.513912.607826-.675652 1.961739-.675652 4.207826h4.24174c0-2.246087-.127826-3.6-.64174-4.207826-.32087-.388696-.80087-.706956-1.479129-.706956zm28.588695 0c-.607826 0-1.12174.255652-1.447826.706956-.607826.834783-.673043 2.569565-.673043 5.55913 0 2.989566.062607 4.690435.673043 5.525218.326086.451304.83739.706956 1.447826.706956.613043 0 1.15826-.255652 1.479131-.706956.610433-.834783.639129-2.538261.639129-5.525218 0-2.986956-.028696-4.724347-.639129-5.55913-.318262-.451304-.863479-.706956-1.479131-.706956zm-75.48 0c-.607826 0-1.124348.255652-1.442609.706956-.610436.834783-.67826 2.569565-.67826 5.55913 0 2.989566.065217 4.690435.67826 5.525218.318261.451304.832173.706956 1.442609.706956.610434 0 1.15826-.255652 1.481738-.706956.607826-.834783.639131-2.538261.639131-5.525218 0-2.986956-.031305-4.724347-.639131-5.55913-.323478-.451304-.871304-.706956-1.481738-.706956zm70.306955-72.4904352c-1.852174-1.3747826-5.167824-2.0765219-9.85565-2.0765219h-15.378262v17.9530436h16.244348c4.014783 0 7.012173-.7539131 8.900869-2.2408696 1.849566-1.4556521 2.752174-3.66 2.752174-6.7356521-.002608-3.2608697-.894782-5.5826088-2.663479-6.9zm81.571305 72.4904352c-.675653 0-1.129565.31826-1.447826.706956-.516522.607826-.675653 1.961739-.675653 4.207826h4.239131c0-2.246087-.127826-3.6-.641738-4.207826-.315652-.388696-.800869-.706956-1.473914-.706956z"/><path d="m379.602 77.053h17.319l-8.82-22.39z"/><path d="m192.675652 133.8c-.48.451304-.769565 1.382609-.769565 2.282609 0 1.732174.673043 2.793913 2.026957 2.793913 1.252173 0 2.086956-1.061739 2.086956-2.603478v-3.086088h-1.47913c-.803479 0-1.348696.130435-1.865218.613044z"/><g fill="#fff"><path d="m170.225 120.496h3.856v20.405h2.762v-20.405h3.825v-2.471h-10.443z"/><path d="m184.10087 126.026087v-1.771304h-2.504348v16.646087h2.603478v-11.345218c0-1.896522 1.254783-3.052174 3.02087-3.052174h.772174v-2.504348c-1.059131 0-1.959131.286957-2.731305.832174-.422609.292174-.902609.743479-1.160869 1.194783z"/><path d="m194.055652 124.001739c-1.283478 0-2.473043.482609-3.211304 1.218261-.996522.99913-1.286087 2.251304-1.286087 3.537391h2.600869c0-.902608.16174-1.447826.613044-1.930435.32087-.320869.706956-.545217 1.283478-.545217 1.286087 0 1.961739.834783 1.961739 2.379131v2.634782h-1.703478c-1.737391 0-2.697391.38087-3.534783 1.121739-.962608.871305-1.476521 2.22-1.476521 3.759131 0 1.737391.417391 2.989565 1.061739 3.730434.769565.866088 1.638261 1.249566 2.861739 1.249566.9 0 1.447826-.221739 1.95913-.607826.32087-.258261.706957-.678261.962609-1.124348v1.476522h2.475652v-12.083479c0-1.700869-.513913-2.827826-1.317391-3.66-.777391-.774782-1.899131-1.155652-3.250435-1.155652zm1.964348 12.271305c0 1.541739-.834783 2.603478-2.086956 2.603478-1.353914 0-2.026957-1.061739-2.026957-2.793913 0-.9.289565-1.831305.769565-2.282609.516522-.482609 1.061739-.610435 1.865218-.610435h1.47913z" fill-rule="nonzero"/><path d="m207.485217 124.001739c-.673043 0-1.286087.190435-1.797391.513913-.354782.219131-.806087.641739-1.030435 1.027826v-1.286087h-2.506956v16.646087h2.603478v-12.242608c0-1.544348.868696-2.316522 1.959131-2.316522 1.093043 0 1.993043.772174 1.993043 2.316522v12.24h2.600869v-12.24c0-1.8-.320869-2.702609-.996521-3.44087-.704348-.803478-1.573044-1.218261-2.825218-1.218261zm13.012174 7.807826-2.11826-1.061739c-.675653-.32087-1.158261-.706956-1.382609-1.090435-.193044-.357391-.289566-.738261-.289566-1.223478 0-.610435.193044-1.189565.610435-1.606957.354783-.354782.837392-.545217 1.445218-.545217.516522 0 1.030434.161739 1.413912.579131.417391.451304.613043 1.027826.613043 1.990434h2.564348c0-1.635652-.48-2.822608-1.348695-3.662608-.803479-.803479-1.927826-1.184348-3.245217-1.184348-1.283478 0-2.441739.414782-3.276522 1.252174-.834782.832174-1.38 1.925217-1.38 3.373043 0 .868696.159131 1.575652.513913 2.183479.417392.706956 1.186957 1.385217 2.28 1.927826l2.152173 1.093043c.675653.352174 1.155653.706957 1.479131 1.186957.286957.451304.417393.933913.417393 1.507826 0 .680869-.258262 1.286087-.64435 1.677391-.41739.414783-.9.605217-1.57565.605217-.513914 0-1.093044-.190434-1.476523-.576521-.482609-.513913-.706956-1.158261-.706956-2.021739h-2.569565c0 1.507826.448695 2.663478 1.413912 3.657391.803479.837391 1.990435 1.286087 3.341739 1.286087 1.348696 0 2.504348-.383478 3.404348-1.314783.834783-.834783 1.413914-1.995652 1.413914-3.472174 0-1.05913-.258262-1.993043-.706957-2.663478-.477391-.774783-1.215652-1.351304-2.342609-1.896522z"/><path d="m230.326957 124.001739c-1.283478 0-2.473045.482609-3.211305 1.218261-.996521.99913-1.286088 2.251304-1.286088 3.537391h2.603479c0-.902608.16174-1.447826.613045-1.930435.31826-.320869.706955-.545217 1.283476-.545217 1.286088 0 1.961741.834783 1.961741 2.379131v2.634782h-1.700869c-1.74 0-2.70261.38087-3.537393 1.121739-.962607.871305-1.479131 2.22-1.479131 3.759131 0 1.737391.42 2.989565 1.06174 3.730434.769565.866088 1.63826 1.249566 2.861739 1.249566.897392 0 1.447826-.221739 1.95913-.607826.32087-.258261.706958-.678261.965217-1.124348v1.476522h2.473045v-12.083479c0-1.700869-.513914-2.827826-1.317392-3.66-.777391-.774782-1.901739-1.155652-3.250434-1.155652zm1.961738 12.271305c0 1.541739-.834783 2.603478-2.092174 2.603478-1.351304 0-2.021738-1.061739-2.021738-2.793913 0-.9.292174-1.831305.772174-2.282609.516522-.482609 1.061738-.610435 1.865217-.610435h1.476521z" fill-rule="nonzero"/><path d="m242.634783 126.313044c.639129 0 1.090434.224347 1.445217.641739.448695.547826.516521 1.249565.516521 1.925217h2.566958c-.036522-1.377391-.323479-2.793913-1.32-3.790435-.834784-.834782-1.893915-1.090435-3.24261-1.090435-1.413912 0-2.668695.414783-3.506086 1.54174-1.027826 1.317391-1.215652 3.662608-1.215652 7.035652 0 3.375652.187826 5.718261 1.215652 7.035652.834781 1.126956 2.092174 1.541739 3.506086 1.541739 1.351305 0 2.506957-.352174 3.273914-1.155652.871305-.868696 1.252174-2.152174 1.288696-3.725217h-2.566958c0 .772173-.09913 1.413912-.550433 1.927826-.354783.383478-.803479.605217-1.411305.605217-.610435 0-1.158262-.255652-1.479131-.706957-.610435-.834782-.675652-2.53826-.675652-5.525217s.062609-4.724348.675652-5.55913c.31826-.446087.866086-.701739 1.479131-.701739zm10.630434 9.735652v-9.766957h2.566957v-2.024348h-2.566957v-4.562608h-2.600869v4.562608h-1.896522v2.024348h1.896522v9.863478c0 1.737392.513914 2.955653 1.445216 3.725218 1.059131.902609 2.34261 1.033043 3.824348 1.033043v-2.345217c-1.737391-.002609-2.668695-.743478-2.668695-2.509565z"/><path d="m258.183 118.281h3.05v3.018h-3.05z"/><path d="m258.407 124.547h2.601v16.357h-2.601z"/><path d="m268.846957 124.001739c-1.473914 0-2.663478.414783-3.500869 1.541739-1.030436 1.317392-1.223479 3.662609-1.223479 7.035652 0 3.375653.193043 5.718261 1.223479 7.035653.834781 1.126956 2.024348 1.541739 3.500869 1.541739 1.481738 0 2.697391-.414783 3.534781-1.541739 1.025219-1.317392 1.189567-3.66 1.189567-7.035653 0-3.373043-.164348-5.71826-1.189567-7.035652-.83739-1.126956-2.053043-1.541739-3.534781-1.541739zm1.481738 14.102609c-.323478.451304-.871304.706956-1.481738.706956-.607826 0-1.124348-.255652-1.442609-.706956-.610436-.834783-.67826-2.538261-.67826-5.525218 0-2.986956.065217-4.724347.67826-5.55913.318261-.451304.832173-.706956 1.442609-.706956.610434 0 1.15826.255652 1.481738.706956.607826.834783.639131 2.569565.639131 5.55913 0 2.989566-.031305 4.690435-.639131 5.525218z" fill-rule="nonzero"/><path d="m282.046957 124.001739c-.670436 0-1.278262.190435-1.794783.513913-.354783.219131-.803479.641739-1.030436 1.027826v-1.286087h-2.504347v16.646087h2.600871v-12.242608c0-1.544348.868695-2.316522 1.961738-2.316522s1.993043.772174 1.993043 2.316522v12.24h2.603478v-12.24c0-1.8-.326085-2.702609-.996521-3.44087-.706957-.803478-1.575652-1.218261-2.833043-1.218261z"/><path d="m303.469564 118.025217h-5.141738v22.878261h2.76261v-9.511304h2.379128c3.790436 0 5.431305-1.993044 5.431305-6.717391 0-5.076522-1.961738-6.649566-5.431305-6.649566zm.065219 10.891305h-2.446957v-8.42087h2.446957c2.11826 0 2.603489 1.706087 2.603489 4.210435.002597 2.506957-.48262 4.210435-2.603489 4.210435zm15.48-3.631305c-.866088-.931304-1.922609-1.283478-3.276521-1.283478-1.314783 0-2.407826.38087-3.276524 1.283478-1.283476 1.317392-1.447826 3.790435-1.447826 7.293913 0 3.503479.193045 5.976522 1.479131 7.291305.866088.902609 1.831305 1.286087 3.279131 1.286087 1.31739 0 2.506957-.352174 3.305217-1.218261.902609-.965217 1.291304-2.188696 1.32-3.665217h-2.569565c0 .774782-.224347 1.476521-.579131 1.89913-.383478.417391-.866086.63913-1.473912.63913-.678262 0-1.129566-.31826-1.447826-.706956-.579131-.735652-.706957-2.28-.706957-4.917392h6.845217c0-3.563478-.067826-6.391304-1.450434-7.901739zm-5.394783 5.942609c0-2.246087.161738-3.6.675652-4.207826.320869-.386087.772174-.706956 1.445217-.706956.678262 0 1.155652.31826 1.479131.706956.513912.607826.641738 1.961739.641738 4.207826z" fill-rule="nonzero"/><path d="m326.019131 126.026087v-1.771304h-2.50174v16.646087h2.600871v-11.345218c0-1.896522 1.249564-3.052174 3.01565-3.052174h.774783v-2.504348c-1.059131 0-1.961738.286957-2.733912.832174-.417392.292174-.9.743479-1.155652 1.194783zm6.842607-3.375652v1.604348h-1.896521v2.024347h1.896521v14.619131h2.603479v-14.619131h2.569566v-2.024347h-2.569566v-1.507827c0-1.674782.866088-2.506956 2.569566-2.506956v-2.345217c-1.413914 0-2.7.190434-3.725219 1.061739-.933912.766956-1.447826 1.95913-1.447826 3.693913z"/><path d="m344.326957 124.001739c-1.479131 0-2.666088.414783-3.500869 1.541739-1.030436 1.317392-1.223479 3.662609-1.223479 7.035652 0 3.375653.193043 5.718261 1.223479 7.035653.832174 1.126956 2.019129 1.541739 3.500869 1.541739 1.481738 0 2.7-.414783 3.532174-1.541739 1.033043-1.317392 1.192174-3.66 1.192174-7.035653 0-3.373043-.161741-5.71826-1.192174-7.035652-.832174-1.126956-2.050436-1.541739-3.532174-1.541739zm1.481738 14.102609c-.320869.451304-.866086.706956-1.479131.706956-.607826 0-1.121738-.255652-1.447826-.706956-.607826-.834783-.673043-2.538261-.673043-5.525218 0-2.986956.06261-4.724347.673043-5.55913.326088-.451304.837393-.706956 1.447826-.706956.613045 0 1.158262.255652 1.479131.706956.610436.834783.639131 2.569565.639131 5.55913 0 2.989566-.028695 4.690435-.639131 5.525218z" fill-rule="nonzero"/><path d="m354.706957 126.026087v-1.771304h-2.506957v16.646087h2.600869v-11.345218c0-1.896522 1.252174-3.052174 3.020869-3.052174h.772174v-2.504348c-1.059129 0-1.959129.286957-2.731303.832174-.417392.292174-.9.743479-1.155652 1.194783zm17.955652-2.024348c-.607826 0-1.38.190435-1.896521.513913-.482609.286957-.965219.769565-1.317393 1.218261-.675652-1.027826-1.899131-1.732174-3.182607-1.732174-.673045 0-1.283479.190435-1.797393.513913-.352174.219131-.803478.641739-1.030433 1.027826v-1.286087h-2.501741v16.646087h2.598262v-12.242608c0-1.544348.868696-2.316522 1.959129-2.316522 1.095652 0 1.995652.772174 1.995652 2.316522v12.24h2.600872v-12.24c0-1.544348.868695-2.316522 1.961738-2.316522 1.090435 0 1.959131.772174 1.959131 2.316522v12.24h2.603478v-12.24c0-1.8-.286957-2.702609-.965219-3.44087-.704347-.803478-1.536521-1.218261-2.986955-1.218261z"/><path d="m384.130436 124.001739c-1.283479 0-2.473045.482609-3.208698 1.218261-.993912.99913-1.286086 2.251304-1.286086 3.537391h2.603479c0-.902608.161738-1.447826.607826-1.930435.320869-.320869.706955-.545217 1.283479-.545217 1.286085 0 1.961738.834783 1.961738 2.379131v2.634782h-1.700869c-1.734784 0-2.7.38087-3.532174 1.121739-.965219.871305-1.479131 2.22-1.479131 3.759131 0 1.737391.417391 2.989565 1.059131 3.730434.772174.866088 1.63826 1.249566 2.864348 1.249566.89739 0 1.442609-.221739 1.956521-.607826.323479-.258261.706957-.678261.965217-1.124348v1.476522h2.470435v-12.083479c0-1.700869-.513914-2.827826-1.32-3.66-.769564-.774782-1.891304-1.155652-3.245216-1.155652zm1.961738 12.271305c0 1.541739-.834783 2.603478-2.089565 2.603478-1.348697 0-2.02174-1.061739-2.02174-2.793913 0-.9.284348-1.831305.769567-2.282609.511302-.482609 1.061738-.610435 1.867826-.610435h1.473912z" fill-rule="nonzero"/><path d="m397.562609 124.001739c-.678261 0-1.283478.190435-1.797392.513913-.354781.219131-.803479.641739-1.033043 1.027826v-1.286087h-2.506957v16.646087h2.603478v-12.242608c0-1.544348.868696-2.316522 1.959131-2.316522 1.095653 0 1.995653.772174 1.995653 2.316522v12.24h2.603478v-12.24c0-1.8-.323478-2.702609-.999131-3.44087-.704347-.803478-1.570435-1.218261-2.825217-1.218261zm11.564348 2.311305c.641738 0 1.090434.224347 1.445217.641739.453914.547826.516521 1.249565.516521 1.925217h2.566957c-.033914-1.377391-.320869-2.793913-1.31739-3.790435-.832174-.834782-1.893914-1.090435-3.24261-1.090435-1.416521 0-2.668695.414783-3.506088 1.54174-1.027826 1.317391-1.223476 3.662608-1.223476 7.035652 0 3.375652.19565 5.718261 1.223476 7.035652.834784 1.126956 2.089567 1.541739 3.506088 1.541739 1.351305 0 2.504348-.352174 3.276522-1.155652.868695-.868696 1.249564-2.152174 1.283478-3.725217h-2.566957c0 .772173-.099131 1.413912-.547826 1.927826-.354781.383478-.803478.605217-1.413912.605217-.610436 0-1.158262-.255652-1.473914-.706957-.613043-.834782-.680869-2.53826-.680869-5.525217s.065217-4.724348.680869-5.55913c.315652-.446087.863478-.701739 1.473914-.701739z"/><path d="m424.001738 125.285217c-.866086-.931304-1.927826-1.283478-3.276521-1.283478-1.32 0-2.413043.38087-3.279129 1.283478-1.288697 1.317392-1.450436 3.790435-1.450436 7.293913 0 3.503479.195653 5.976522 1.479131 7.291305.871305.902609 1.833912 1.286087 3.279129 1.286087 1.317393 0 2.50435-.352174 3.310436-1.218261.89739-.965217 1.283478-2.188696 1.32-3.665217h-2.572174c0 .774782-.226957 1.476521-.579131 1.89913-.386086.417391-.868695.63913-1.476522.63913-.675652 0-1.124347-.31826-1.445216-.706956-.581741-.735652-.706957-2.28-.706957-4.917392h6.842609c0-3.563478-.062609-6.391304-1.445219-7.901739zm-5.39739 5.942609c0-2.246087.159131-3.6.675652-4.207826.318262-.386087.772174-.706956 1.447826-.706956.673043 0 1.155653.31826 1.473912.706956.513914.607826.641741 1.961739.641741 4.207826z" fill-rule="nonzero"/><path d="m16.367 46.933-16.367-8.663v68.765l60.95 36.326v-19.738l-44.583-24.122z"/><path d="m107.804 99.501-44.838 24.122v19.738l59.833-36.496v-68.449l-14.995 8.517z"/><path d="m0 35.455 16.367 8.363 45.587-25.453 45.85 25.354 14.995-8.123-60.845-35.596z"/><path d="m62.969 94.518v-22.437l26.131-14.729v-2.189l-27.154 14.834-25.821-14.834v2.187l24.825 14.634v22.534z"/><path d="m145.897 38.1h16.411v68.481h-16.411z"/><path d="m202.153044 106.583478h24.613044v-13.3721737h-23.932175c-5.715652 0-9.769565-1.4034781-12.036522-4.1713043-2.300869-2.8226088-3.48-7.8469564-3.48-14.9269564 0-8.2226088 1.244348-14.1808698 3.686087-17.7 2.402609-3.4747827 6.271305-5.1652174 11.830435-5.1652174h23.932175v-13.1478262h-24.208697c-10.946087 0-19.168695 2.9321738-24.433043 8.7078262-5.238261 5.7547826-7.899131 14.741739-7.899131 26.7104347 0 6.1695653.889566 11.5539129 2.626957 16.0043479 1.755652 4.4973912 4.437391 8.2043476 7.961739 11.0086952 2.710435 2.186087 5.653043 3.751305 8.746957 4.677392 3.054782.913043 7.293913 1.374782 12.592174 1.374782zm36.842608-59.7730432c-5.238261 5.7547826-7.891304 14.741739-7.891304 26.7104347 0 6.1695653.873914 11.5539131 2.619131 16.0043479 1.758259 4.4973914 4.43739 8.2043478 7.95913 11.0086956 2.707827 2.186087 5.642608 3.751304 8.736522 4.677391 3.054781.913044 7.293912 1.372174 12.586957 1.372174h24.584348v-13.3721737h-23.898262c-5.415653 0-9.30261-1.1895652-11.546086-3.54-2.139131-2.2382607-3.297393-5.947826-3.435652-11.047826h38.88v-13.3695652l-38.741741-.0443479c.365217-4.5286957 1.700869-7.9460869 3.96-10.1660869 2.4-2.3660871 6.06261-3.5660871 10.883479-3.5660871h23.898262v-13.3721808h-24.174784c-10.943478-.0052104-19.155652 2.9269634-24.42 8.7052244z"/><path d="m357.200869 71.3608695c1.317393-2.9582607 1.98-6.5373912 1.98-10.6382607 0-4.2026088-.813912-7.9773914-2.431305-11.2147826-1.62-3.258261-4.040869-5.94-7.189564-7.9565219-1.909564-1.2026086-4.471305-2.0947826-7.622609-2.6373912-3.101739-.5426088-7.288696-.8113043-12.456522-.8113043h-31.333043v68.4808692h15.772174v-23.3347823h16.150436c5.882607 0 10.322607-.3313045 13.202607-.9965219 2.926957-.6704347 5.559131-1.8286955 7.826088-3.4304347 2.720869-1.9617391 4.773912-4.4713043 6.101738-7.4608696zm-18.135652-3.9026086c-1.891305 1.4869565-4.886086 2.2408696-8.900869 2.2408696h-16.244348v-17.9530436h15.378262c4.687826 0 8.003476.7017393 9.85565 2.0765219 1.768697 1.3173912 2.663479 3.6417391 2.663479 6.9-.002608 3.0756521-.902608 5.28-2.752174 6.7356521zm41.538262-29.3582609-28.972174 68.48087h16.818259l5.94261-15.8869569h27.795652l6.127826 15.8869569h17.546086l-29.206955-68.48087zm-1.001741 38.9530436 8.501741-22.3904348 8.82 22.3904348z" fill-rule="nonzero"/><path d="m461.559 38.1-16.229 24.743-16.009-24.743h-17.927l26.251 38.421v30.062h15.775v-30.06l26.58-38.423z"/></g></g></svg>