<svg xmlns="http://www.w3.org/2000/svg" width="640" height="360"><g fill="none" fill-rule="nonzero" transform="translate(80 128)"><path fill="#F89D36" d="M149.209 45.528a13 13 0 0 0-1.14-2.92 8.1 8.1 0 0 0-1.864-2.306 8.3 8.3 0 0 0-2.667-1.512q-1.527-.538-3.547-.538-2.952 0-5.1 1.179a9.96 9.96 0 0 0-3.496 3.15q-1.346 1.974-1.993 4.484a20.4 20.4 0 0 0-.648 5.124q0 2.613.648 5.124.647 2.51 1.993 4.483a9.96 9.96 0 0 0 3.496 3.152q2.148 1.178 5.1 1.178 2.175 0 3.832-.743a8.5 8.5 0 0 0 2.848-2.05 9.6 9.6 0 0 0 1.864-3.048 14.5 14.5 0 0 0 .88-3.74h6.318q-.207 3.279-1.424 5.994-1.216 2.716-3.288 4.689-2.07 1.972-4.868 3.049-2.796 1.076-6.162 1.076-4.142 0-7.43-1.512-3.289-1.512-5.567-4.125t-3.496-6.097-1.217-7.43q0-3.894 1.217-7.378t3.496-6.098 5.566-4.15q3.29-1.537 7.431-1.537 3.107 0 5.852.845 2.745.846 4.841 2.46a12.8 12.8 0 0 1 3.392 3.92q1.294 2.306 1.606 5.277zm16.933-11.631h6.473v14.552h16.83V33.897h6.472v36.585h-6.473v-16.5h-16.83v16.5h-6.472zm52.094 0h6.887l14.24 36.585h-6.939l-3.47-9.685h-14.757l-3.47 9.685h-6.68zm-2.279 22.033h11.289l-5.54-15.73h-.156zm31.588-22.033h17.658q6.11 0 9.166 2.613t3.055 7.276q0 2.613-.777 4.33-.777 1.716-1.812 2.767t-2.046 1.511-1.475.615v.102q.828.104 1.786.513t1.787 1.306q.828.897 1.372 2.332t.544 3.587q0 3.228.492 5.866.491 2.64 1.527 3.767h-6.939a5.9 5.9 0 0 1-.854-2.614 31 31 0 0 1-.13-2.767q0-2.51-.31-4.33-.311-1.819-1.14-3.022-.828-1.204-2.252-1.768t-3.65-.564h-9.53v15.065h-6.472zm6.473 16.652h10.616q3.106 0 4.712-1.46t1.605-4.38q0-1.743-.518-2.845-.518-1.101-1.424-1.716a5.3 5.3 0 0 0-2.071-.82 14 14 0 0 0-2.408-.205h-10.512zm34.643-16.652h6.473v36.585h-6.473zm15.535 0h29.93v5.534h-11.754v31.05h-6.473v-31.05h-11.703zm44.016 0h6.887l14.24 36.585H362.4l-3.47-9.685h-14.757l-3.47 9.685h-6.68zm-2.279 22.033h11.289l-5.54-15.73h-.156zm38.06-6.713h10.565q2.33 0 3.883-1.306 1.554-1.307 1.554-3.766 0-2.767-1.398-3.895-1.398-1.127-4.04-1.127h-10.563zm-6.472-15.32h17.969q4.971 0 7.974 2.254t3.004 6.815q0 2.767-1.372 4.74t-3.91 3.048v.103q3.417.718 5.178 3.202 1.76 2.485 1.76 6.226 0 2.152-.776 4.022-.777 1.87-2.434 3.228-1.656 1.359-4.246 2.152-2.589.795-6.162.795H377.52zm6.473 31.358h11.444q2.951 0 4.583-1.511 1.63-1.512 1.631-4.279 0-2.715-1.631-4.176-1.632-1.46-4.583-1.46h-11.444zm34.643-31.358h6.473v31.05h18.797v5.535h-25.27zm34.384 0h26.617v5.534h-20.144v9.581h18.642v5.227h-18.642v10.709H480v5.534h-26.98z"/><circle cx="51.103" cy="51.277" r="51.103" fill="#F89C35"/><path fill="#FFF" d="M71.255 27.55c-1.717 0-3.196 1.024-4.44 2.72L25.648 44.45c-.788-1.097-1.784-1.69-2.872-1.69-2.58 0-4.525 3.27-4.525 7.604 0 4.335 1.944 7.605 4.525 7.605 1.088 0 2.084-.594 2.872-1.691l7.806 2.69-1.513 2.473a5.2 5.2 0 0 0-.762 2.702c0 2.163 1.32 4.077 3.366 4.878l9.517 3.73a6.1 6.1 0 0 0 2.232.422c2.247 0 4.413-1.225 5.463-3.288l2.001-3.927 13.055 4.497c1.243 1.699 2.725 2.723 4.442 2.723 5.877 0 9.05-11.754 9.05-22.814s-3.173-22.814-9.05-22.814M47.129 67.62c-.194.38-.74.59-1.145.423l-9.518-3.731-.09-.264 2.06-3.366 10.405 3.584zm24.126.489c-1.161 0-3.879-6.036-3.879-17.744s2.718-17.744 3.879-17.744c1.16 0 3.878 6.036 3.878 17.744s-2.717 17.744-3.878 17.744"/></g></svg>