<svg xmlns="http://www.w3.org/2000/svg" width="512" height="512" fill="none"><path d="M256 .174c-141.385 0-256 114.615-256 256s114.615 256 256 256 256-114.615 256-256-114.615-256-256-256zm100.951 137.14c29.441 0 45.336 58.88 45.336 114.286 0 55.405-15.895 114.287-45.336 114.287-8.6 0-16.025-5.13-22.252-13.64l-65.398-22.528-10.026 19.672c-5.26 10.334-16.11 16.47-27.367 16.47a30.705 30.705 0 0 1-11.18-2.113l-47.675-18.685c-10.25-4.012-16.862-13.6-16.862-24.436a25.973 25.973 0 0 1 3.817-13.537l7.58-12.389-39.106-13.474c-3.947 5.496-8.936 8.47-14.386 8.47-12.93 0-22.668-16.381-22.668-38.097 0-21.711 9.744-38.092 22.668-38.092 5.45 0 10.44 2.972 14.386 8.467l206.227-71.036c6.232-8.497 13.641-13.625 22.242-13.625m0 25.403c-5.816 0-19.431 30.238-19.431 88.888 0 58.651 13.615 88.89 19.431 88.89 5.816 0 19.428-30.239 19.428-88.89 0-58.65-13.617-88.888-19.428-88.888m-164.406 140.57-10.32 16.863.45 1.323 47.68 18.69c2.03.836 4.765-.214 5.737-2.118l8.578-16.803-52.125-17.955" style="fill:#fff"/></svg>