<svg xmlns="http://www.w3.org/2000/svg" width="640" height="360" viewBox="0 0 640 360">
  <g fill="none" fill-rule="evenodd" transform="translate(164.167 24.167)">
    <polygon fill="#016FD0" fill-rule="nonzero" points="0 311.667 311.667 311.667 311.667 0 0 0"/>
    <path fill="#FFF" fill-rule="nonzero" d="M60.5014259 217.177991L60.5014259 168.248055 112.310815 168.248055 117.86887 175.492574 123.612194 168.248055 311.666667 168.248055 311.666667 213.803333C311.666667 213.803333 306.749259 217.129509 301.061343 217.177991L196.930046 217.177991 190.663814 209.464241 190.663814 217.177991 170.126712 217.177991 170.126712 204.011805C170.126712 204.011805 167.321712 205.848907 161.256333 205.848907L154.266343 205.848907 154.266343 217.177991 123.172398 217.177991 117.621269 209.777638 111.985296 217.177991 60.5014259 217.177991M0 131.3675L11.684037 104.129565 31.8869629 104.129565 38.5185371 119.38738 38.5185371 104.129565 63.6336759 104.129565 67.5814538 115.15737 71.4080278 104.129565 184.155176 104.129565 184.155176 109.673769C184.155176 109.673769 190.082038 104.129565 199.823352 104.129565L236.406093 104.257694 242.921657 119.314657 242.921657 104.129565 263.940112 104.129565 269.724991 112.780046 269.724991 104.129565 290.937371 104.129565 290.937371 153.061231 269.724991 153.061231 264.180788 144.384778 264.180788 153.061231 233.299815 153.061231 230.193538 145.347481 221.892815 145.347481 218.838481 153.061231 197.894481 153.061231C189.512379 153.061231 184.155176 147.629565 184.155176 147.629565L184.155176 153.061231 152.579879 153.061231 146.311917 145.347481 146.311917 153.061231 28.8949629 153.061231 25.7904167 145.347481 17.5156667 145.347481 14.4353612 153.061231 0 153.061231 0 131.3675"/>
    <path fill="#016FD0" fill-rule="nonzero" d="M15.8188148,110.162046 L0.0606018519,146.800195 L10.3196296,146.800195 L13.226787,139.463907 L30.1295093,139.463907 L33.0228148,146.800195 L43.5086667,146.800195 L27.7643055,110.162046 L15.8188148,110.162046 Z M21.6487129,118.689593 L26.7998704,131.509481 L16.4802407,131.509481 L21.6487129,118.689593 L21.6487129,118.689593 Z"/>
    <polyline fill="#016FD0" fill-rule="nonzero" points="44.593 146.793 44.593 110.157 59.172 110.211 67.651 133.833 75.927 110.157 90.39 110.157 90.39 146.795 81.231 146.795 81.231 119.798 71.521 146.795 63.488 146.795 53.752 119.798 53.752 146.795 44.593 146.793"/>
    <polyline fill="#016FD0" fill-rule="nonzero" points="96.658 146.793 96.658 110.157 126.547 110.157 126.547 118.352 105.913 118.352 105.913 124.618 126.064 124.618 126.064 132.332 105.913 132.332 105.913 138.841 126.547 138.841 126.547 146.793 96.658 146.793"/>
    <path fill="#016FD0" fill-rule="nonzero" d="M131.848852,110.162046 L131.848852,146.800195 L141.008389,146.800195 L141.008389,133.784648 L144.866129,133.784648 L155.847185,146.800195 L167.041212,146.800195 L154.990102,133.301565 C159.935212,132.884278 165.037888,128.638685 165.037888,122.048667 C165.037888,114.33838 158.986362,110.162046 152.231852,110.162046 L131.848852,110.162046 Z M141.008389,118.357148 L151.478657,118.357148 C153.991038,118.357148 155.81775,120.32238 155.81775,122.214889 C155.81775,124.64762 153.450815,126.070898 151.615445,126.070898 L141.008389,126.070898 L141.008389,118.357148 L141.008389,118.357148 Z"/>
    <polygon fill="#016FD0" fill-rule="nonzero" points="168.776 146.795 178.13 146.795 178.13 110.157 168.776 110.157"/>
    <path fill="#016FD0" fill-rule="nonzero" d="M200.304704 146.793269L198.287528 146.793269C188.518509 146.793269 182.588185 139.098565 182.588185 128.624833 182.588185 117.893111 188.452712 110.156852 200.787788 110.156852L210.911759 110.156852 210.911759 118.833306 200.41725 118.833306C195.409805 118.833306 191.868926 122.741259 191.868926 128.716602 191.868926 135.812213 195.918862 138.792093 201.752222 138.792093L204.162445 138.792093 200.304704 146.793269M220.235788 110.162046L204.477574 146.800195 214.736602 146.800195 217.645491 139.463907 234.548212 139.463907 237.441519 146.800195 247.925638 146.800195 232.183009 110.162046 220.235788 110.162046zM226.065686 118.689593L231.218574 131.509481 220.898945 131.509481 226.065686 118.689593 226.065686 118.689593z"/>
    <polyline fill="#016FD0" fill-rule="nonzero" points="248.996 146.793 248.996 110.157 260.64 110.157 275.51 133.175 275.51 110.157 284.669 110.157 284.669 146.793 273.401 146.793 258.155 123.172 258.155 146.793 248.996 146.793"/>
    <polyline fill="#016FD0" fill-rule="nonzero" points="66.768 210.912 66.768 174.272 96.658 174.272 96.658 182.469 76.024 182.469 76.024 188.735 96.175 188.735 96.175 196.449 76.024 196.449 76.024 202.957 96.658 202.957 96.658 210.912 66.768 210.912"/>
    <polyline fill="#016FD0" fill-rule="nonzero" points="213.225 210.912 213.225 174.272 243.114 174.272 243.114 182.469 222.482 182.469 222.482 188.735 242.536 188.735 242.536 196.449 222.482 196.449 222.482 202.957 243.114 202.957 243.114 210.912 213.225 210.912"/>
    <polyline fill="#016FD0" fill-rule="nonzero" points="97.817 210.912 112.37 192.818 97.472 174.274 109.011 174.274 117.884 185.738 126.788 174.274 137.876 174.274 123.172 192.593 137.751 210.912 126.213 210.912 117.599 199.628 109.191 210.912 97.817 210.912"/>
    <path fill="#016FD0" fill-rule="nonzero" d="M138.840574 174.278805L138.840574 210.918686 148.240788 210.918686 148.240788 199.347195 157.881676 199.347195C166.040417 199.347195 172.223538 195.020222 172.223538 186.603491 172.223538 179.629083 167.373657 174.278805 159.072935 174.278805L138.840574 174.278805zM148.240788 182.565676L158.394195 182.565676C161.029509 182.565676 162.913362 184.179417 162.913362 186.783564 162.913362 189.228417 161.038167 191.001454 158.364759 191.001454L148.240788 191.001454 148.240788 182.565676 148.240788 182.565676zM176.20075 174.271879L176.20075 210.911759 185.360288 210.911759 185.360288 197.894481 189.218028 197.894481 200.199083 210.911759 211.393112 210.911759 199.340269 197.413129C204.287112 196.995843 209.389788 192.75025 209.389788 186.1585 209.389788 178.449945 203.338259 174.273612 196.58375 174.273612L176.20075 174.271879zM185.360288 182.468712L195.830555 182.468712C198.342936 182.468712 200.169648 184.433945 200.169648 186.324722 200.169648 188.759186 197.802712 190.182462 195.965612 190.182462L185.360288 190.182462 185.360288 182.468712 185.360288 182.468712zM247.355981 210.911759L247.355981 202.957333 265.687176 202.957333C268.400407 202.957333 269.574352 201.490769 269.574352 199.883954 269.574352 198.342936 268.403871 196.786333 265.687176 196.786333L257.403769 196.786333C250.204269 196.786333 246.194157 192.398759 246.194157 185.813936 246.194157 179.939019 249.866629 174.273612 260.565454 174.273612L278.403176 174.273612 274.545435 182.517195 259.119667 182.517195C256.170954 182.517195 255.261926 184.065138 255.261926 185.542093 255.261926 187.060602 256.383926 188.734945 258.636583 188.734945L267.314769 188.734945C275.341917 188.734945 278.823926 193.288741 278.823926 199.251962 278.823926 205.661907 274.943676 210.911759 266.878436 210.911759L247.355981 210.911759M280.974426 210.911759L280.974426 202.957333 298.529917 202.957333C301.241417 202.957333 302.417093 201.490769 302.417093 199.883954 302.417093 198.342936 301.244879 196.786333 298.529917 196.786333L291.022212 196.786333C283.820981 196.786333 279.810871 192.398759 279.810871 185.813936 279.810871 179.939019 283.483343 174.273612 294.183898 174.273612L311.666667 174.273612 307.810657 182.517195 292.738112 182.517195C289.787667 182.517195 288.880371 184.065138 288.880371 185.542093 288.880371 187.060602 290.002371 188.734945 292.255028 188.734945L300.155778 188.734945C308.182926 188.734945 311.666667 193.288741 311.666667 199.251962 311.666667 205.661907 307.784686 210.911759 299.719445 210.911759L280.974426 210.911759"/>
  </g>
</svg>
