<svg height="360" viewBox="0 0 640 360" width="640" xmlns="http://www.w3.org/2000/svg"><g fill="none" fill-rule="nonzero" transform="translate(164.167 24.167)"><path d="m0 311.667h311.667v-311.667h-311.667z" fill="#016fd0"/><path d="m60.5014259 217.177991v-48.929936h51.8093891l5.558055 7.244519 5.743324-7.244519h188.054473v45.555278s-4.917408 3.326176-10.605324 3.374658h-104.131297l-6.266232-7.71375v7.71375h-20.537102v-13.166186s-2.805 1.837102-8.870379 1.837102h-6.98999v11.329084h-31.093945l-5.551129-7.400353-5.635973 7.400353zm-60.5014259-85.810491 11.684037-27.237935h20.2029259l6.6315742 15.257815v-15.257815h25.1151388l3.9477779 11.027805 3.826574-11.027805h112.7471482v5.544204s5.926862-5.544204 15.668176-5.544204l36.582741.128129 6.515564 15.056963v-15.185092h21.018455l5.784879 8.650481v-8.650481h21.21238v48.931666h-21.21238l-5.544203-8.676453v8.676453h-30.880973l-3.106277-7.71375h-8.300723l-3.054334 7.71375h-20.944c-8.382102 0-13.739305-5.431666-13.739305-5.431666v5.431666h-31.575297l-6.267962-7.71375v7.71375h-117.4169541l-3.1045462-7.71375h-8.27475l-3.0803055 7.71375h-14.4353612z" fill="#fff"/><g fill="#016fd0"><path d="m15.8188148 110.162046-15.75821295 36.638149h10.25902775l2.9071574-7.336288h16.9027223l2.8933055 7.336288h10.4858519l-15.7443612-36.638149zm5.8298981 8.527547 5.1511575 12.819888h-10.3196297z"/><path d="m44.593 146.793v-36.636l14.579.054 8.479 23.622 8.276-23.676h14.463v36.638h-9.159v-26.997l-9.71 26.997h-8.033l-9.736-26.997v26.997z"/><path d="m96.658 146.793v-36.636h29.889v8.195h-20.634v6.266h20.151v7.714h-20.151v6.509h20.634v7.952z"/><path d="m131.848852 110.162046v36.638149h9.159537v-13.015547h3.85774l10.981056 13.015547h11.194027l-12.05111-13.49863c4.94511-.417287 10.047786-4.66288 10.047786-11.252898 0-7.710287-6.051526-11.886621-12.806036-11.886621zm9.159537 8.195102h10.470268c2.512381 0 4.339093 1.965232 4.339093 3.857741 0 2.432731-2.366935 3.856009-4.202305 3.856009h-10.607056z"/><path d="m168.776 146.795h9.354v-36.638h-9.354z"/><path d="m200.304704 146.793269h-2.017176c-9.769019 0-15.699343-7.694704-15.699343-18.168436 0-10.731722 5.864527-18.467981 18.199603-18.467981h10.123971v8.676454h-10.494509c-5.007445 0-8.548324 3.907953-8.548324 9.883296 0 7.095611 4.049936 10.075491 9.883296 10.075491h2.410223zm19.931084-36.631223-15.758214 36.638149h10.259028l2.908889-7.336288h16.902721l2.893307 7.336288h10.484119l-15.742629-36.638149zm5.829898 8.527547 5.152888 12.819888h-10.319629z"/><path d="m248.996 146.793v-36.636h11.644l14.87 23.018v-23.018h9.159v36.636h-11.268l-15.246-23.621v23.621z"/><path d="m66.768 210.912v-36.64h29.89v8.197h-20.634v6.266h20.151v7.714h-20.151v6.508h20.634v7.955z"/><path d="m213.225 210.912v-36.64h29.889v8.197h-20.632v6.266h20.054v7.714h-20.054v6.508h20.632v7.955z"/><path d="m97.817 210.912 14.553-18.094-14.898-18.544h11.539l8.873 11.464 8.904-11.464h11.088l-14.704 18.319 14.579 18.319h-11.538l-8.614-11.284-8.408 11.284z"/><path d="m138.840574 174.278805v36.639881h9.400214v-11.571491h9.640888c8.158741 0 14.341862-4.326973 14.341862-12.743704 0-6.974408-4.849881-12.324686-13.150603-12.324686zm9.400214 8.286871h10.153407c2.635314 0 4.519167 1.613741 4.519167 4.217888 0 2.444853-1.875195 4.21789-4.548603 4.21789h-10.123971zm27.959962-8.293797v36.63988h9.159538v-13.017278h3.85774l10.981055 13.017278h11.194029l-12.052843-13.49863c4.946843-.417286 10.049519-4.662879 10.049519-11.254629 0-7.708555-6.051529-11.884888-12.806038-11.884888zm9.159538 8.196833h10.470267c2.512381 0 4.339093 1.965233 4.339093 3.85601 0 2.434464-2.366936 3.85774-4.204036 3.85774h-10.605324zm61.995693 28.443047v-7.954426h18.331195c2.713231 0 3.887176-1.466564 3.887176-3.073379 0-1.541018-1.170481-3.097621-3.887176-3.097621h-8.283407c-7.1995 0-11.209612-4.387574-11.209612-10.972397 0-5.874917 3.672472-11.540324 14.371297-11.540324h17.837722l-3.857741 8.243583h-15.425768c-2.948713 0-3.857741 1.547943-3.857741 3.024898 0 1.518509 1.122 3.192852 3.374657 3.192852h8.678186c8.027148 0 11.509157 4.553796 11.509157 10.517017 0 6.409945-3.88025 11.659797-11.94549 11.659797zm33.618445 0v-7.954426h17.555491c2.7115 0 3.887176-1.466564 3.887176-3.073379 0-1.541018-1.172214-3.097621-3.887176-3.097621h-7.507705c-7.201231 0-11.211341-4.387574-11.211341-10.972397 0-5.874917 3.672472-11.540324 14.373027-11.540324h17.482769l-3.85601 8.243583h-15.072545c-2.950445 0-3.857741 1.547943-3.857741 3.024898 0 1.518509 1.122 3.192852 3.374657 3.192852h7.90075c8.027148 0 11.510889 4.553796 11.510889 10.517017 0 6.409945-3.881981 11.659797-11.947222 11.659797z"/></g></g></svg>