<svg height="32" viewBox="0 0 51 32" width="51" xmlns="http://www.w3.org/2000/svg"><g fill="none" fill-rule="evenodd"><path d="m.5.5h50v31h-50z" fill="#fff" stroke="#d0d0d0"/><g transform="translate(14 4)"><path d="m0 24h24v-24h-24z" fill="#016fd0"/><path d="m4.65893333 16.7238667v-3.7678667h3.9896l.428.5578667.44226667-.5578667h14.4812v3.508s-.3786667.2561333-.8166667.2598667h-8.0186666l-.4825334-.594v.594h-1.5814666v-1.0138667s-.216.1414667-.6830667.1414667h-.5382667v.8724h-2.39439997l-.42746666-.5698667-.434.5698667zm-4.65893333-6.6078667.89973333-2.09746667h1.55573334l.51066666 1.17493334v-1.17493334h1.934l.304.8492.29466667-.8492h8.6821333v.42693334s.4564-.42693334 1.2065334-.42693334l2.8170666.00986667.5017334 1.15946667v-1.16933334h1.6185333l.4454667.66613334v-.66613334h1.6334666v3.76799997h-1.6334666l-.4269334-.6681333v.6681333h-2.378l-.2392-.594h-.6392l-.2352.594h-1.6128c-.6454666 0-1.058-.4182666-1.058-.4182666v.4182666h-2.4314666l-.4826667-.594v.594h-9.04173333l-.23906667-.594h-.6372l-.2372.594h-1.1116z" fill="#fff"/><g fill="#016fd0"><path d="m1.21813333 8.48306667-1.21346666 2.82133333h.79l.22386666-.5649333h1.3016l.2228.5649333h.80746667l-1.2124-2.82133333zm.44893334.65666666.39666666.98719997h-.79466666z"/><path d="m3.434 11.304v-2.821l1.123.004.652 1.819.638-1.823h1.114v2.821h-.706v-2.079l-.748 2.079h-.618l-.75-2.079v2.079z"/><path d="m7.443 11.304v-2.821h2.302v.631h-1.589v.482h1.552v.594h-1.552v.501h1.589v.613z"/><path d="m10.1530667 8.48306667v2.82133333h.7053333v-1.0022667h.2970667l.8456 1.0022667h.862l-.928-1.0394667c.3808-.0321333.7737333-.35906663.7737333-.8665333 0-.59373333-.466-.91533333-.9861333-.91533333zm.7053333.63106666h.8062667c.1934666 0 .3341333.15133334.3341333.29706667 0 .18733333-.1822667.29693333-.3236.29693333h-.8168z"/><path d="m12.997 11.304h.72v-2.821h-.72z"/><path d="m15.4245333 11.3038667h-.1553333c-.7522667 0-1.2089333-.5925334-1.2089333-1.3990667 0-.8264.4516-1.42213333 1.4014666-1.42213333h.7796v.66813333h-.8081333c-.3856 0-.6582667.30093333-.6582667.76106667 0 .54640003.3118667.77586663.7610667.77586663h.1856zm1.5348-2.82080003-1.2134666 2.82133333h.79l.224-.5649333h1.3016l.2228.5649333h.8073333l-1.2122667-2.82133333zm.4489334.65666666.3968.98719997h-.7946667z"/><path d="m19.174 11.304v-2.821h.897l1.145 1.772v-1.772h.705v2.821h-.868l-1.174-1.819v1.819z"/><path d="m5.141 16.241v-2.821h2.302v.631h-1.589v.483h1.552v.594h-1.552v.501h1.589v.612z"/><path d="m16.419 16.241v-2.821h2.302v.631h-1.589v.483h1.545v.594h-1.545v.501h1.589v.612z"/><path d="m7.532 16.241 1.121-1.393-1.147-1.428h.888l.684.883.685-.883h.854l-1.132 1.411 1.123 1.41h-.889l-.663-.869-.648.869z"/><path d="m10.6914667 13.4204v2.8214667h.7238666v-.8910667h.7424c.6282667 0 1.1044-.3332 1.1044-.9813333 0-.5370667-.3734666-.9490667-1.0126666-.9490667zm.7238666.6381333h.7818667c.2029333 0 .348.1242667.348.3248 0 .1882667-.1444.3248-.3502667.3248h-.7796zm2.1530667-.6386666v2.8214666h.7053333v-1.0024h.2970667l.8456 1.0024h.862l-.9281333-1.0394666c.3809333-.0321334.7738666-.3590667.7738666-.8666667 0-.5936-.466-.9152-.9861333-.9152zm.7053333.6312h.8062667c.1934667 0 .3341333.1513333.3341333.2969333 0 .1874667-.1822666.2970667-.3237333.2970667h-.8166667zm4.774 2.1902666v-.6125333h1.4116c.2089334 0 .2993334-.1129333.2993334-.2366667 0-.1186666-.0901334-.2385333-.2993334-.2385333h-.6378666c-.5544 0-.8632-.3378667-.8632-.8449333 0-.4524.2828-.8886667 1.1066666-.8886667h1.3736l-.2970666.6348h-1.1878667c-.2270667 0-.2970667.1192-.2970667.2329333 0 .1169334.0864.2458667.2598667.2458667h.6682667c.6181333 0 .8862666.3506667.8862666.8098667 0 .4936-.2988.8978666-.9198666.8978666zm2.5888 0v-.6125333h1.3518667c.2088 0 .2993333-.1129333.2993333-.2366667 0-.1186666-.0902666-.2385333-.2993333-.2385333h-.5781333c-.5545334 0-.8633334-.3378667-.8633334-.8449333 0-.4524.2828-.8886667 1.1068-.8886667h1.3462667l-.2969333.6348h-1.1606667c-.2272 0-.2970667.1192-.2970667.2329333 0 .1169334.0864.2458667.2598667.2458667h.6084c.6181333 0 .8864.3506667.8864.8098667 0 .4936-.2989333.8978666-.92.8978666z"/></g></g></g></svg>