<svg xmlns="http://www.w3.org/2000/svg" width="51" height="32" viewBox="0 0 51 32">
  <g fill="none" fill-rule="evenodd">
    <rect width="50" height="31" x=".5" y=".5" fill="#FFF" stroke="#D0D0D0"/>
    <g transform="translate(14 4)">
      <polygon fill="#016FD0" points="0 24 24 24 24 0 0 0"/>
      <path fill="#FFF" d="M4.65893333 16.7238667L4.65893333 12.956 8.64853333 12.956 9.07653333 13.5138667 9.5188 12.956 24 12.956 24 16.464C24 16.464 23.6213333 16.7201333 23.1833333 16.7238667L15.1646667 16.7238667 14.6821333 16.1298667 14.6821333 16.7238667 13.1006667 16.7238667 13.1006667 15.71C13.1006667 15.71 12.8846667 15.8514667 12.4176 15.8514667L11.8793333 15.8514667 11.8793333 16.7238667 9.48493333 16.7238667 9.05746667 16.154 8.62346667 16.7238667 4.65893333 16.7238667M0 10.116L.899733333 8.01853333 2.45546667 8.01853333 2.96613333 9.19346667 2.96613333 8.01853333 4.90013333 8.01853333 5.20413333 8.86773333 5.4988 8.01853333 14.1809333 8.01853333 14.1809333 8.44546667C14.1809333 8.44546667 14.6373333 8.01853333 15.3874667 8.01853333L18.2045333 8.0284 18.7062667 9.18786667 18.7062667 8.01853333 20.3248 8.01853333 20.7702667 8.68466667 20.7702667 8.01853333 22.4037333 8.01853333 22.4037333 11.7865333 20.7702667 11.7865333 20.3433333 11.1184 20.3433333 11.7865333 17.9653333 11.7865333 17.7261333 11.1925333 17.0869333 11.1925333 16.8517333 11.7865333 15.2389333 11.7865333C14.5934667 11.7865333 14.1809333 11.3682667 14.1809333 11.3682667L14.1809333 11.7865333 11.7494667 11.7865333 11.2668 11.1925333 11.2668 11.7865333 2.22506667 11.7865333 1.986 11.1925333 1.3488 11.1925333 1.1116 11.7865333 0 11.7865333 0 10.116"/>
      <path fill="#016FD0" d="M1.21813333,8.48306667 L0.00466666667,11.3044 L0.794666667,11.3044 L1.01853333,10.7394667 L2.32013333,10.7394667 L2.54293333,11.3044 L3.3504,11.3044 L2.138,8.48306667 L1.21813333,8.48306667 Z M1.66706667,9.13973333 L2.06373333,10.1269333 L1.26906667,10.1269333 L1.66706667,9.13973333 L1.66706667,9.13973333 Z"/>
      <polyline fill="#016FD0" points="3.434 11.304 3.434 8.483 4.557 8.487 5.209 10.306 5.847 8.483 6.961 8.483 6.961 11.304 6.255 11.304 6.255 9.225 5.507 11.304 4.889 11.304 4.139 9.225 4.139 11.304 3.434 11.304"/>
      <polyline fill="#016FD0" points="7.443 11.304 7.443 8.483 9.745 8.483 9.745 9.114 8.156 9.114 8.156 9.596 9.708 9.596 9.708 10.19 8.156 10.19 8.156 10.691 9.745 10.691 9.745 11.304 7.443 11.304"/>
      <path fill="#016FD0" d="M10.1530667,8.48306667 L10.1530667,11.3044 L10.8584,11.3044 L10.8584,10.3021333 L11.1554667,10.3021333 L12.0010667,11.3044 L12.8630667,11.3044 L11.9350667,10.2649333 C12.3158667,10.2328 12.7088,9.90586667 12.7088,9.3984 C12.7088,8.80466667 12.2428,8.48306667 11.7226667,8.48306667 L10.1530667,8.48306667 Z M10.8584,9.11413333 L11.6646667,9.11413333 C11.8581333,9.11413333 11.9988,9.26546667 11.9988,9.4112 C11.9988,9.59853333 11.8165333,9.70813333 11.6752,9.70813333 L10.8584,9.70813333 L10.8584,9.11413333 L10.8584,9.11413333 Z"/>
      <polygon fill="#016FD0" points="12.997 11.304 13.717 11.304 13.717 8.483 12.997 8.483"/>
      <path fill="#016FD0" d="M15.4245333 11.3038667L15.2692 11.3038667C14.5169333 11.3038667 14.0602667 10.7113333 14.0602667 9.9048 14.0602667 9.0784 14.5118667 8.48266667 15.4617333 8.48266667L16.2413333 8.48266667 16.2413333 9.1508 15.4332 9.1508C15.0476 9.1508 14.7749333 9.45173333 14.7749333 9.91186667 14.7749333 10.4582667 15.0868 10.6877333 15.536 10.6877333L15.7216 10.6877333 15.4245333 11.3038667M16.9593333 8.48306667L15.7458667 11.3044 16.5358667 11.3044 16.7598667 10.7394667 18.0614667 10.7394667 18.2842667 11.3044 19.0916 11.3044 17.8793333 8.48306667 16.9593333 8.48306667zM17.4082667 9.13973333L17.8050667 10.1269333 17.0104 10.1269333 17.4082667 9.13973333 17.4082667 9.13973333z"/>
      <polyline fill="#016FD0" points="19.174 11.304 19.174 8.483 20.071 8.483 21.216 10.255 21.216 8.483 21.921 8.483 21.921 11.304 21.053 11.304 19.879 9.485 19.879 11.304 19.174 11.304"/>
      <polyline fill="#016FD0" points="5.141 16.241 5.141 13.42 7.443 13.42 7.443 14.051 5.854 14.051 5.854 14.534 7.406 14.534 7.406 15.128 5.854 15.128 5.854 15.629 7.443 15.629 7.443 16.241 5.141 16.241"/>
      <polyline fill="#016FD0" points="16.419 16.241 16.419 13.42 18.721 13.42 18.721 14.051 17.132 14.051 17.132 14.534 18.677 14.534 18.677 15.128 17.132 15.128 17.132 15.629 18.721 15.629 18.721 16.241 16.419 16.241"/>
      <polyline fill="#016FD0" points="7.532 16.241 8.653 14.848 7.506 13.42 8.394 13.42 9.078 14.303 9.763 13.42 10.617 13.42 9.485 14.831 10.608 16.241 9.719 16.241 9.056 15.372 8.408 16.241 7.532 16.241"/>
      <path fill="#016FD0" d="M10.6914667 13.4204L10.6914667 16.2418667 11.4153333 16.2418667 11.4153333 15.3508 12.1577333 15.3508C12.786 15.3508 13.2621333 15.0176 13.2621333 14.3694667 13.2621333 13.8324 12.8886667 13.4204 12.2494667 13.4204L10.6914667 13.4204zM11.4153333 14.0585333L12.1972 14.0585333C12.4001333 14.0585333 12.5452 14.1828 12.5452 14.3833333 12.5452 14.5716 12.4008 14.7081333 12.1949333 14.7081333L11.4153333 14.7081333 11.4153333 14.0585333 11.4153333 14.0585333zM13.5684 13.4198667L13.5684 16.2413333 14.2737333 16.2413333 14.2737333 15.2389333 14.5708 15.2389333 15.4164 16.2413333 16.2784 16.2413333 15.3502667 15.2018667C15.7312 15.1697333 16.1241333 14.8428 16.1241333 14.3352 16.1241333 13.7416 15.6581333 13.42 15.138 13.42L13.5684 13.4198667zM14.2737333 14.0510667L15.08 14.0510667C15.2734667 14.0510667 15.4141333 14.2024 15.4141333 14.348 15.4141333 14.5354667 15.2318667 14.6450667 15.0904 14.6450667L14.2737333 14.6450667 14.2737333 14.0510667 14.2737333 14.0510667zM19.0477333 16.2413333L19.0477333 15.6288 20.4593333 15.6288C20.6682667 15.6288 20.7586667 15.5158667 20.7586667 15.3921333 20.7586667 15.2734667 20.6685333 15.1536 20.4593333 15.1536L19.8214667 15.1536C19.2670667 15.1536 18.9582667 14.8157333 18.9582667 14.3086667 18.9582667 13.8562667 19.2410667 13.42 20.0649333 13.42L21.4385333 13.42 21.1414667 14.0548 19.9536 14.0548C19.7265333 14.0548 19.6565333 14.174 19.6565333 14.2877333 19.6565333 14.4046667 19.7429333 14.5336 19.9164 14.5336L20.5846667 14.5336C21.2028 14.5336 21.4709333 14.8842667 21.4709333 15.3434667 21.4709333 15.8370667 21.1721333 16.2413333 20.5510667 16.2413333L19.0477333 16.2413333M21.6365333 16.2413333L21.6365333 15.6288 22.9884 15.6288C23.1972 15.6288 23.2877333 15.5158667 23.2877333 15.3921333 23.2877333 15.2734667 23.1974667 15.1536 22.9884 15.1536L22.4102667 15.1536C21.8557333 15.1536 21.5469333 14.8157333 21.5469333 14.3086667 21.5469333 13.8562667 21.8297333 13.42 22.6537333 13.42L24 13.42 23.7030667 14.0548 22.5424 14.0548C22.3152 14.0548 22.2453333 14.174 22.2453333 14.2877333 22.2453333 14.4046667 22.3317333 14.5336 22.5052 14.5336L23.1136 14.5336C23.7317333 14.5336 24 14.8842667 24 15.3434667 24 15.8370667 23.7010667 16.2413333 23.08 16.2413333L21.6365333 16.2413333"/>
    </g>
  </g>
</svg>
