<svg xmlns="http://www.w3.org/2000/svg" width="51" height="32" viewBox="0 0 51 32">
  <g fill="none" fill-rule="evenodd">
    <rect width="50" height="31" x=".5" y=".5" fill="#FFF" stroke="#D0D0D0"/>
    <path fill="#33EBC7" fill-rule="nonzero" d="M1.75124378 4.61691542L1.75124378 4.61691542C.780099502 4.61691542 0 5.41293532 0 6.3681592L0 15.6497512C0 16.6208955.780099502 17.400995 1.75124378 17.400995 2.72238806 17.400995 3.50248756 16.6208955 3.50248756 15.6497512L3.50248756 6.3681592C3.50248756 5.41293532 2.72238806 4.61691542 1.75124378 4.61691542M1.75124378 3.51840796C2.72238806 3.51840796 3.50248756 2.73830846 3.50248756 1.76716418 3.50248756.7960199 2.72238806.015920398 1.75124378.015920398.780099502.015920398 0 .7960199 0 1.76716418 0 2.73830846.780099502 3.51840796 1.75124378 3.51840796M12.1313433 4.60099502C10.4437811 4.60099502 9.36119403 5.23781095 8.69253731 5.85870647 8.48557214 5.66766169 8.24676617 5.49253731 8.0079602 5.34925373 7.88059701 5.25373134 7.73731343 5.17412935 7.57810945 5.11044776 7.38706468 5.03084577 7.1800995 4.99900498 6.95721393 4.99900498 5.98606965 4.99900498 5.20597015 5.77910448 5.20597015 6.75024876 5.20597015 7.41890547 5.5721393 7.9920398 6.11343284 8.29452736 6.12935323 8.29452736 6.12935323 8.31044776 6.14527363 8.31044776 6.25671642 8.37412935 6.35223881 8.45373134 6.4159204 8.51741294 6.86169154 8.97910448 7.02089552 9.79104478 7.05273632 10.2845771 7.05273632 10.4119403 7.05273632 10.5393035 7.06865672 10.6348259L7.06865672 15.6338308C7.06865672 16.6049751 7.84875622 17.400995 8.8199005 17.400995 9.79104478 17.400995 10.5711443 16.6208955 10.5711443 15.6497512L10.5711443 10.5870647C10.5711443 10.5870647 10.5711443 10.5870647 10.5711443 10.5870647L10.5711443 9.82288557C10.5711443 9.82288557 10.5711443 9.82288557 10.5711443 9.82288557 10.5711443 9.82288557 10.5711443 9.82288557 10.5711443 9.82288557L10.5711443 9.80696517 10.5711443 9.80696517C10.5711443 8.86766169 11.3353234 8.10348259 12.2746269 8.10348259 13.2139303 8.10348259 13.9781095 8.86766169 13.9781095 9.80696517L13.9781095 9.80696517 13.9781095 9.82288557C13.9781095 9.82288557 13.9781095 9.82288557 13.9781095 9.82288557 13.9781095 9.82288557 13.9781095 9.82288557 13.9781095 9.82288557L13.9781095 10.5552239C13.9781095 10.5711443 13.9781095 10.5870647 13.9781095 10.6189055L13.9781095 15.6497512C13.9781095 16.6208955 14.758209 17.400995 15.7293532 17.400995 16.7004975 17.400995 17.480597 16.6208955 17.480597 15.6497512L17.480597 10.7144279C17.480597 10.6825871 17.480597 10.6348259 17.480597 10.5711443 17.480597 9.88656716 17.3532338 7.65771144 15.8567164 6.09751244 14.9492537 5.12636816 13.6437811 4.60099502 12.1313433 4.60099502M30.6467662 8.50149254C30.6945274 8.43781095 30.758209 8.37412935 30.8059701 8.31044776 30.8378109 8.27860697 30.8537313 8.23084577 30.8855721 8.19900498 30.9492537 8.10348259 31.0129353 8.0238806 31.0766169 7.92835821 31.0766169 7.91243781 31.0925373 7.91243781 31.0925373 7.89651741 31.1880597 7.76915423 31.2676617 7.62587065 31.3313433 7.46666667 31.3313433 7.46666667 31.3313433 7.45074627 31.3313433 7.45074627 31.6656716 6.75024876 31.840796 5.93830846 31.840796 5.06268657 31.840796 3.37512438 31.2039801 2.29253731 30.5830846 1.6238806 29.7870647.827860697 28.8159204 0 25.99801 0L20.8079602 0C19.8368159 0 19.040796.780099502 19.040796 1.75124378 19.040796 2.72238806 19.8208955 3.50248756 20.7920398 3.50248756L25.8547264 3.50248756 25.8547264 3.50248756 26.6189055 3.50248756C26.6189055 3.50248756 26.6189055 3.50248756 26.6189055 3.50248756 26.6189055 3.50248756 26.6189055 3.50248756 26.6189055 3.50248756L26.6348259 3.50248756 26.6348259 3.50248756C27.5741294 3.50248756 28.3383085 4.26666667 28.3383085 5.20597015 28.3383085 6.08159204 27.6855721 6.79800995 26.8577114 6.89353234 26.6507463 6.90945274 26.4437811 6.90945274 26.2049751 6.90945274L25.9024876 6.90945274C25.8865672 6.90945274 25.8706468 6.90945274 25.838806 6.90945274L20.8079602 6.90945274C19.8368159 6.90945274 19.0567164 7.68955224 19.0567164 8.66069652 19.0567164 8.66069652 19.0567164 8.66069652 19.0567164 8.66069652 19.0567164 8.66069652 19.0567164 8.66069652 19.0567164 8.66069652 19.0567164 9.6318408 19.8368159 10.4119403 20.8079602 10.4119403L25.8706468 10.4119403C25.8706468 10.4119403 25.8706468 10.4119403 25.8706468 10.4119403L26.6348259 10.4119403C26.6348259 10.4119403 26.6348259 10.4119403 26.6348259 10.4119403 26.6348259 10.4119403 26.6348259 10.4119403 26.6348259 10.4119403L26.6507463 10.4119403 26.6507463 10.4119403C27.5900498 10.4119403 28.3542289 11.1761194 28.3542289 12.1154229 28.3542289 13.0547264 27.5900498 13.8189055 26.6507463 13.8189055L26.6507463 13.8189055 26.6348259 13.8189055C26.6348259 13.8189055 26.6348259 13.8189055 26.6348259 13.8189055 26.6348259 13.8189055 26.6348259 13.8189055 26.6348259 13.8189055L25.9024876 13.8189055C25.8865672 13.8189055 25.8706468 13.8189055 25.838806 13.8189055L20.8079602 13.8189055C19.8368159 13.8189055 19.0567164 14.599005 19.0567164 15.5701493 19.0567164 16.5412935 19.8368159 17.321393 20.8079602 17.321393L25.7432836 17.321393C25.7751244 17.321393 25.8228856 17.321393 25.8865672 17.321393 26.5711443 17.321393 28.8 17.1940299 30.360199 15.6975124 31.3472637 14.758209 31.8726368 13.4527363 31.8726368 11.9402985 31.8726368 10.2527363 31.2358209 9.17014925 30.6149254 8.50149254 30.599005 8.54925373 30.6308458 8.53333333 30.6467662 8.50149254" transform="translate(10 7.2)"/>
  </g>
</svg>
