<svg height="32" viewBox="0 0 51 32" width="51" xmlns="http://www.w3.org/2000/svg"><g fill="none" fill-rule="evenodd"><path d="m.5.5h50v31h-50z" fill="#fff" stroke="#d0d0d0"/><path d="m1.75124378 4.61691542c-.97114428 0-1.75124378.7960199-1.75124378 1.75124378v9.281592c0 .9711443.7800995 1.7512438 1.75124378 1.7512438s1.75124378-.7800995 1.75124378-1.7512438v-9.281592c0-.95522388-.7800995-1.75124378-1.75124378-1.75124378m0-1.09850746c.97114428 0 1.75124378-.7800995 1.75124378-1.75124378s-.7800995-1.75124378-1.75124378-1.75124378-1.75124378.7800995-1.75124378 1.75124378.7800995 1.75124378 1.75124378 1.75124378m10.38009952 1.08258706c-1.6875622 0-2.77014927.63681593-3.43880599 1.25771145-.20696517-.19104478-.44577114-.36616916-.68457711-.50945274-.12736319-.09552239-.27064677-.17512438-.42985075-.23880597-.19104477-.07960199-.39800995-.11144278-.62089552-.11144278-.97114428 0-1.75124378.7800995-1.75124378 1.75124378 0 .66865671.36616915 1.24179104.90746269 1.5442786.01592039 0 .01592039.0159204.03184079.0159204.11144279.06368159.20696518.14328358.27064677.20696518.44577114.46169154.60497512 1.27363184.63681592 1.76716416 0 .1273632 0 .2547264.0159204.3502488v4.9990049c0 .9711443.7800995 1.7671642 1.75124378 1.7671642s1.7512438-.7800995 1.7512438-1.7512438v-5.0626865-.76417913-.0159204c0-.93930348.7641791-1.70348258 1.7034826-1.70348258.9393034 0 1.7034826.7641791 1.7034826 1.70348258v.0159204.73233833.0636816 5.0308457c0 .9711443.7800995 1.7512438 1.7512437 1.7512438.9711443 0 1.7512438-.7800995 1.7512438-1.7512438v-4.9353233c0-.0318408 0-.079602 0-.1432836 0-.68457714-.1273632-2.91343286-1.6238806-4.47363186-.9074627-.97114428-2.2129353-1.49651742-3.7253731-1.49651742m18.5154229 3.90049752c.0477612-.06368159.1114428-.12736319.1592039-.19104478.0318408-.03184079.0477612-.07960199.079602-.11144278.0636816-.09552239.1273632-.17512438.1910448-.27064677 0-.0159204.0159204-.0159204.0159204-.0318408.0955224-.12736318.1751244-.27064676.238806-.42985074v-.0159204c.3343283-.70049751.5094527-1.51243781.5094527-2.3880597 0-1.68756219-.6368159-2.77014926-1.2577114-3.43880597-.7960199-.7960199-1.7671642-1.6238806-4.5850746-1.6238806h-5.1900498c-.9711443 0-1.7671642.7800995-1.7671642 1.75124378s.7800995 1.75124378 1.7512438 1.75124378h5.0626866.7641791.0159204c.9393035 0 1.7034826.76417911 1.7034826 1.70348259 0 .87562189-.6527364 1.5920398-1.4805971 1.68756219-.2069651.0159204-.4139303.0159204-.6527363.0159204h-.3024875c-.0159204 0-.0318408 0-.0636816 0h-5.0308458c-.9711443 0-1.7512438.7800995-1.7512438 1.75124378 0 .97114428.7800995 1.75124378 1.7512438 1.75124378h5.0626866.7641791.0159204c.9393035 0 1.7034826.7641791 1.7034826 1.7034826s-.7641791 1.7034826-1.7034826 1.7034826h-.0159204-.7323383c-.0159204 0-.0318408 0-.0636816 0h-5.0308458c-.9711443 0-1.7512438.7800995-1.7512438 1.7512438 0 .9711442.7800995 1.7512437 1.7512438 1.7512437h4.9353234.1432836c.6845771 0 2.9134328-.1273631 4.4736318-1.6238806.9870647-.9393034 1.5124378-2.2447761 1.5124378-3.7572139 0-1.6875622-.6368159-2.77014925-1.2577114-3.43880596-.0159204.04776119.0159204.03184079.0318408 0" fill="#33ebc7" fill-rule="nonzero" transform="translate(10 7.2)"/></g></svg>