<svg xmlns="http://www.w3.org/2000/svg" width="640" height="360" viewBox="0 0 640 360">
  <path fill="#33EBC7" d="M17.5124378 46.1691542L17.5124378 46.1691542C7.80099502 46.1691542 0 54.1293532 0 63.681592L0 156.497512C0 166.208955 7.80099502 174.00995 17.5124378 174.00995 27.2238806 174.00995 35.0248756 166.208955 35.0248756 156.497512L35.0248756 63.681592C35.0248756 54.1293532 27.2238806 46.1691542 17.5124378 46.1691542M17.5124378 35.1840796C27.2238806 35.1840796 35.0248756 27.3830846 35.0248756 17.6716418 35.0248756 7.960199 27.2238806.15920398 17.5124378.15920398 7.80099502.15920398 0 7.960199 0 17.6716418 0 27.3830846 7.80099502 35.1840796 17.5124378 35.1840796M121.313433 46.0099502C104.437811 46.0099502 93.6119403 52.3781095 86.9253731 58.5870647 84.8557214 56.6766169 82.4676617 54.9253731 80.079602 53.4925373 78.8059701 52.5373134 77.3731343 51.7412935 75.7810945 51.1044776 73.8706468 50.3084577 71.800995 49.9900498 69.5721393 49.9900498 59.8606965 49.9900498 52.0597015 57.7910448 52.0597015 67.5024876 52.0597015 74.1890547 55.721393 79.920398 61.1343284 82.9452736 61.2935323 82.9452736 61.2935323 83.1044776 61.4527363 83.1044776 62.5671642 83.7412935 63.5223881 84.5373134 64.159204 85.1741294 68.6169154 89.7910448 70.2089552 97.9104478 70.5273632 102.845771 70.5273632 104.119403 70.5273632 105.393035 70.6865672 106.348259L70.6865672 156.338308C70.6865672 166.049751 78.4875622 174.00995 88.199005 174.00995 97.9104478 174.00995 105.711443 166.208955 105.711443 156.497512L105.711443 105.870647C105.711443 105.870647 105.711443 105.870647 105.711443 105.870647L105.711443 98.2288557C105.711443 98.2288557 105.711443 98.2288557 105.711443 98.2288557 105.711443 98.2288557 105.711443 98.2288557 105.711443 98.2288557L105.711443 98.0696517 105.711443 98.0696517C105.711443 88.6766169 113.353234 81.0348259 122.746269 81.0348259 132.139303 81.0348259 139.781095 88.6766169 139.781095 98.0696517L139.781095 98.0696517 139.781095 98.2288557C139.781095 98.2288557 139.781095 98.2288557 139.781095 98.2288557 139.781095 98.2288557 139.781095 98.2288557 139.781095 98.2288557L139.781095 105.552239C139.781095 105.711443 139.781095 105.870647 139.781095 106.189055L139.781095 156.497512C139.781095 166.208955 147.58209 174.00995 157.293532 174.00995 167.004975 174.00995 174.80597 166.208955 174.80597 156.497512L174.80597 107.144279C174.80597 106.825871 174.80597 106.348259 174.80597 105.711443 174.80597 98.8656716 173.532338 76.5771144 158.567164 60.9751244 149.492537 51.2636816 136.437811 46.0099502 121.313433 46.0099502M306.467662 85.0149254C306.945274 84.3781095 307.58209 83.7412935 308.059701 83.1044776 308.378109 82.7860697 308.537313 82.3084577 308.855721 81.9900498 309.492537 81.0348259 310.129353 80.238806 310.766169 79.2835821 310.766169 79.1243781 310.925373 79.1243781 310.925373 78.9651741 311.880597 77.6915423 312.676617 76.2587065 313.313433 74.6666667 313.313433 74.6666667 313.313433 74.5074627 313.313433 74.5074627 316.656716 67.5024876 318.40796 59.3830846 318.40796 50.6268657 318.40796 33.7512438 312.039801 22.9253731 305.830846 16.238806 297.870647 8.27860697 288.159204 0 259.9801 0L208.079602 0C198.368159 0 190.40796 7.80099502 190.40796 17.5124378 190.40796 27.2238806 198.208955 35.0248756 207.920398 35.0248756L258.547264 35.0248756 258.547264 35.0248756 266.189055 35.0248756C266.189055 35.0248756 266.189055 35.0248756 266.189055 35.0248756 266.189055 35.0248756 266.189055 35.0248756 266.189055 35.0248756L266.348259 35.0248756 266.348259 35.0248756C275.741294 35.0248756 283.383085 42.6666667 283.383085 52.0597015 283.383085 60.8159204 276.855721 67.9800995 268.577114 68.9353234 266.507463 69.0945274 264.437811 69.0945274 262.049751 69.0945274L259.024876 69.0945274C258.865672 69.0945274 258.706468 69.0945274 258.38806 69.0945274L208.079602 69.0945274C198.368159 69.0945274 190.567164 76.8955224 190.567164 86.6069652 190.567164 86.6069652 190.567164 86.6069652 190.567164 86.6069652 190.567164 86.6069652 190.567164 86.6069652 190.567164 86.6069652 190.567164 96.318408 198.368159 104.119403 208.079602 104.119403L258.706468 104.119403C258.706468 104.119403 258.706468 104.119403 258.706468 104.119403L266.348259 104.119403C266.348259 104.119403 266.348259 104.119403 266.348259 104.119403 266.348259 104.119403 266.348259 104.119403 266.348259 104.119403L266.507463 104.119403 266.507463 104.119403C275.900498 104.119403 283.542289 111.761194 283.542289 121.154229 283.542289 130.547264 275.900498 138.189055 266.507463 138.189055L266.507463 138.189055 266.348259 138.189055C266.348259 138.189055 266.348259 138.189055 266.348259 138.189055 266.348259 138.189055 266.348259 138.189055 266.348259 138.189055L259.024876 138.189055C258.865672 138.189055 258.706468 138.189055 258.38806 138.189055L208.079602 138.189055C198.368159 138.189055 190.567164 145.99005 190.567164 155.701493 190.567164 165.412935 198.368159 173.21393 208.079602 173.21393L257.432836 173.21393C257.751244 173.21393 258.228856 173.21393 258.865672 173.21393 265.711443 173.21393 288 171.940299 303.60199 156.975124 313.472637 147.58209 318.726368 134.527363 318.726368 119.402985 318.726368 102.527363 312.358209 91.7014925 306.149254 85.0149254 305.99005 85.4925373 306.308458 85.3333333 306.467662 85.0149254" transform="translate(160 92)"/>
</svg>
