        <!-- Generator: Adobe Illustrator 21.0.2, SVG Export Plug-In . SVG Version: 6.00 Build 0)  -->
        <svg version="1.1" id="Layer_1" xmlns="http://www.w3.org/2000/svg" xmlns:xlink="http://www.w3.org/1999/xlink" x="0px" y="0px" viewBox="0 0 200 110" style="enable-background:new 0 0 200 110;" xml:space="preserve">
        <style type="text/css">
            .st0 {
                fill: #33EBC7;
            }
</style>
        <path class="st0" d="M11,29L11,29C4.9,29,0,34,0,40v58.3c0,6.1,4.9,11,11,11c6.1,0,11-4.9,11-11V40C22,34,17.1,29,11,29"></path>







        <path class="st0" d="M11,22.1c6.1,0,11-4.9,11-11c0-6.1-4.9-11-11-11C4.9,0.1,0,5,0,11.1C0,17.2,4.9,22.1,11,22.1"></path>







        <path class="st0" d="M76.2,28.9c-10.6,0-17.4,4-21.6,7.9c-1.3-1.2-2.8-2.3-4.3-3.2c-0.8-0.6-1.7-1.1-2.7-1.5
            c-1.2-0.5-2.5-0.7-3.9-0.7c-6.1,0-11,4.9-11,11c0,4.2,2.3,7.8,5.7,9.7c0.1,0,0.1,0.1,0.2,0.1c0.7,0.4,1.3,0.9,1.7,1.3
            c2.8,2.9,3.8,8,4,11.1c0,0.8,0,1.6,0.1,2.2l0,31.4c0,6.1,4.9,11.1,11,11.1s11-4.9,11-11V66.5c0,0,0,0,0,0v-4.8c0,0,0,0,0,0
            c0,0,0,0,0,0v-0.1h0c0-5.9,4.8-10.7,10.7-10.7c5.9,0,10.7,4.8,10.7,10.7h0v0.1c0,0,0,0,0,0c0,0,0,0,0,0v4.6c0,0.1,0,0.2,0,0.4
            l0,31.6c0,6.1,4.9,11,11,11s11-4.9,11-11v-31c0-0.2,0-0.5,0-0.9c0-4.3-0.8-18.3-10.2-28.1C93.9,32.2,85.7,28.9,76.2,28.9"></path>







        <path class="st0" d="M192.5,53.4c0.3-0.4,0.7-0.8,1-1.2c0.2-0.2,0.3-0.5,0.5-0.7c0.4-0.6,0.8-1.1,1.2-1.7c0-0.1,0.1-0.1,0.1-0.2
            c0.6-0.8,1.1-1.7,1.5-2.7c0,0,0-0.1,0-0.1c2.1-4.4,3.2-9.5,3.2-15c0-10.6-4-17.4-7.9-21.6C187.1,5.2,181,0,163.3,0l-32.6,0
            c-6.1,0-11.1,4.9-11.1,11c0,6.1,4.9,11,11,11h31.8l0,0h4.8c0,0,0,0,0,0s0,0,0,0h0.1v0c5.9,0,10.7,4.8,10.7,10.7
            c0,5.5-4.1,10-9.3,10.6c-1.3,0.1-2.6,0.1-4.1,0.1h-1.9c-0.1,0-0.2,0-0.4,0l-31.6,0c-6.1,0-11,4.9-11,11c0,0,0,0,0,0s0,0,0,0
            c0,6.1,4.9,11,11,11h31.8c0,0,0,0,0,0h4.8c0,0,0,0,0,0s0,0,0,0h0.1v0c5.9,0,10.7,4.8,10.7,10.7s-4.8,10.7-10.7,10.7v0h-0.1
            c0,0,0,0,0,0s0,0,0,0h-4.6c-0.1,0-0.2,0-0.4,0l-31.6,0c-6.1,0-11,4.9-11,11c0,6.1,4.9,11,11,11h31c0.2,0,0.5,0,0.9,0
            c4.3,0,18.3-0.8,28.1-10.2c6.2-5.9,9.5-14.1,9.5-23.6c0-10.6-4-17.4-7.9-21.6C192.2,53.7,192.4,53.6,192.5,53.4"></path>







        </svg>
