<svg xmlns="http://www.w3.org/2000/svg" width="512" height="512" fill="var(--rui-color-white)" class="sc-81786132-0 bmMKuq" viewBox="0 0 512 512"><path fill-rule="evenodd" d="M147.079 126.354h-95.37v385.644h95.37zm299.076 22.053C446.155 66.576 379.518 0 297.606 0H51.71v82.357h234.205c37.07 0 67.776 29.123 68.455 64.916.34 17.922-6.388 34.837-18.94 47.627-12.556 12.794-29.334 19.845-47.241 19.845h-91.236a5.88 5.88 0 0 0-5.875 5.872v73.195c0 1.246.384 2.435 1.108 3.437L346.979 512h113.312L305.137 296.662c78.136-3.923 141.018-69.573 141.018-148.255" clip-rule="evenodd" style="fill:#1a1a1a;stroke-width:16.1355"/></svg>