<svg xmlns="http://www.w3.org/2000/svg" width="640" height="360" fill="var(--rui-color-white)" class="sc-81786132-0 bmMKuq" viewBox="0 0 640 360"><path fill-rule="evenodd" d="M413.215 123.45h20.1V235.6h-20.1ZM576 170.7v-17.405h-20.786v-22.69h-20.1v82.724c0 7.601 1.912 13.394 5.683 17.217 3.768 3.828 9.642 5.768 17.457 5.768H576V218.91h-12.985c-2.824 0-4.85-.62-6.023-1.847-1.078-1.122-1.778-3.957-1.778-7.22v-39.144zM276.672 213.77l20.784-60.478h21.118l-30.004 82.309h-23.796l-30.003-82.309h21.117Zm225.678-19.245c0 5.21-.792 9.744-2.347 13.474-1.545 3.71-3.757 6.553-6.578 8.45-2.82 1.897-6.287 2.859-10.306 2.859-5.747 0-10.084-1.889-12.887-5.612-2.834-3.763-4.273-9.466-4.273-16.95v-43.452h-20.1v45.675c0 7.112.887 13.144 2.644 17.927 1.756 4.797 4.17 8.7 7.171 11.596 3 2.894 6.503 4.984 10.413 6.214 3.887 1.224 8.072 1.844 12.434 1.844 6.284 0 11.486-1.14 15.456-3.388 3.619-2.057 6.655-4.461 9.03-7.158l1.8 9.595h17.643v-82.305h-20.1Zm-119.863-36.89c-6.335-3.512-13.857-5.292-22.355-5.292-8.394 0-15.888 1.78-22.275 5.29-6.395 3.52-11.42 8.492-14.935 14.776-3.51 6.278-5.29 13.72-5.29 22.116 0 8.294 1.78 15.683 5.29 21.962 3.513 6.281 8.54 11.251 14.935 14.771 6.387 3.511 13.881 5.29 22.275 5.29 8.497 0 16.02-1.779 22.355-5.291 6.341-3.518 11.339-8.488 14.854-14.77 3.51-6.282 5.291-13.672 5.291-21.962 0-8.393-1.78-15.835-5.291-22.117-3.517-6.284-8.514-11.256-14.854-14.773m-10.62 58.81c-3.238 2.108-7.186 3.178-11.734 3.178-4.443 0-8.366-1.07-11.659-3.18-3.298-2.112-5.884-5.093-7.69-8.861-1.812-3.772-2.732-8.164-2.732-13.057 0-4.993.919-9.411 2.733-13.132 1.803-3.717 4.392-6.7 7.694-8.864 3.291-2.163 7.213-3.26 11.654-3.26 4.545 0 8.491 1.097 11.73 3.257 3.249 2.167 5.812 5.15 7.62 8.868 1.812 3.73 2.73 8.148 2.73 13.131 0 4.882-.918 9.276-2.73 13.057-1.808 3.77-4.37 6.75-7.616 8.862M84.89 151.127H64v84.474h20.89zm65.512 4.83c0-17.924-14.597-32.508-32.54-32.508H64v18.04h51.302c8.12 0 14.846 6.38 14.995 14.22.074 3.926-1.4 7.63-4.15 10.433a14.4 14.4 0 0 1-10.347 4.347H95.815c-.71 0-1.287.576-1.287 1.286v16.033c0 .273.084.533.243.753l33.907 47.04h24.82l-33.986-47.169c17.116-.86 30.89-15.24 30.89-32.475m64.236 1.199c-6.018-3.194-13.163-4.813-21.237-4.813-8.085 0-15.313 1.78-21.485 5.294-6.182 3.517-11.045 8.489-14.455 14.776-3.405 6.273-5.132 13.766-5.132 22.273 0 8.29 1.753 15.678 5.212 21.957 3.467 6.294 8.467 11.238 14.86 14.696 6.38 3.458 14.033 5.21 22.745 5.21 6.911 0 13.117-1.294 18.447-3.85 5.33-2.562 9.682-6.05 12.934-10.37a33.9 33.9 0 0 0 6.194-13.8l.11-.538h-19.99l-.095.324c-1.1 3.767-3.236 6.744-6.349 8.85-3.341 2.263-7.445 3.411-12.2 3.411-4.03 0-7.67-.863-10.817-2.566-3.133-1.693-5.582-4.114-7.278-7.199-1.703-3.095-2.672-6.819-2.879-11.046v-.661h60.383l.067-.369c.211-1.159.346-2.353.405-3.553.05-1.17.079-2.339.079-3.518-.108-7.975-1.89-14.99-5.297-20.85-3.42-5.869-8.205-10.464-14.222-13.658m-7.325 15.5c3.435 2.89 5.571 6.998 6.355 12.216h-39.75c.454-3.386 1.578-6.318 3.344-8.724a19.1 19.1 0 0 1 7.055-5.892c2.833-1.391 5.943-2.098 9.242-2.098 5.578 0 10.206 1.513 13.754 4.498" clip-rule="evenodd" style="fill:#1a1a1a;stroke-width:3.53442"/></svg>