<svg height="32" viewBox="0 0 51 32" width="51" xmlns="http://www.w3.org/2000/svg" xmlns:xlink="http://www.w3.org/1999/xlink"><mask id="a" fill="#fff"><path d="m.75 0h22.5c.4142136 0 .75.33578644.75.75v14.4c0 .4142136-.3357864.75-.75.75h-22.5c-.41421356 0-.75-.3357864-.75-.75v-14.4c0-.41421356.33578644-.75.75-.75z" fill="#fff" fill-rule="evenodd"/></mask><g fill="none" fill-rule="evenodd"><path d="m.5.5h50v31h-50z" fill="#fff" stroke="#d0d0d0"/><g transform="translate(14 8.6)"><g fill="#eb6f93" mask="url(#a)"><path d="m0 0h24v18.15h-24z"/></g><g fill="#fff" fill-rule="nonzero"><g transform="translate(5 11)"><path d="m2.55110375 0h-.71379691c0 .58308823-.26887417 1.11519608-.73620309 1.46568627l-.2816777.21029412 1.09470199 1.48480393h.89944811l-1.00827814-1.36691177c.47693157-.47156863.74580574-1.10882353.74580574-1.79387255z"/><path d="m0 0h1v3.161h-1z"/><path d="m3.025 0h1v3.161h-1z"/><path d="m9.74988963.91446079c-.2624724 0-.51214128.07965686-.6785872.30588235v-.24534314h-.65298013v2.18578432h.66258278v-1.14705883c0-.33137255.2240618-.49387255.49293597-.49387255.28807948 0 .45452545.17205882.45452545.49068627v1.15343139h.656181v-1.39240197c0-.50980393-.4065122-.85710784-.93465787-.85710784zm-3.9562914.06053921v.14019608c-.1856512-.12745098-.40971303-.20073529-.65298013-.20073529-.6401766 0-1.15871965.51617646-1.15871965 1.15343137 0 .63725489.51854305 1.15343136 1.15871965 1.15343136.2432671 0 .46732893-.0732843.65298013-.2007353v.1401961h.65618102v-2.18578432zm-.5985651 1.65367647c-.32969095 0-.59536425-.25171569-.59536425-.56078431 0-.30906863.2656733-.56078432.59536425-.56078432.32969092 0 .59536422.25171569.59536422.56078432 0 .30906862-.2656733.56078431-.59536422.56078431zm2.27262692-1.37009804v-.28357843h-.67218542v2.18578432h.6753863v-1.01960785c0-.34411765.37450332-.52892157.63377482-.52892157h.00640178v-.6372549c-.26567328 0-.51214128.11470588-.64337748.28357843zm5.25905075-.28357843v.14019608c-.1856512-.12745098-.409713-.20073529-.6529801-.20073529-.6401766 0-1.1587196.51617646-1.1587196 1.15343137 0 .63725489.518543 1.15343136 1.1587196 1.15343136.2432671 0 .4673289-.0732843.6529801-.2007353v.1401961h.656181v-2.18578432zm-.5985651 1.65367647c-.329691 0-.5953643-.25171569-.5953643-.56078431 0-.30906863.2656733-.56078432.5953643-.56078432s.5953642.25171569.5953642.56078432c.0032009.30906862-.2656732.56078431-.5953642.56078431zm1.9557395-.24215686c-.2272627 0-.4129139.18480391-.4129139.41102941 0 .22622548.1856512.4110294.4129139.4110294s.4129139-.18480392.4129139-.4110294c0-.22941177-.1856512-.41102941-.4129139-.41102941z"/></g><g transform="translate(8.75 1)"><path d="m2.38776783 6.43641075c.1694307.16664695.17305153.43851698.00811895.6096102l-.03310952.03473415c-.16506137.1688119-.43803302.17295248-.60971718.0076933l-.95983731-.95103525c-.26424547-.26531637-.30219694-.59225717-.13402548-.76499935l.03370113-.03534482c.13859902-.14264825.36452735-.15769853.52214274-.0336693.07493416.0589665.18351901.04606902.24253104-.02880733.05901203-.07487632.04610459-.1833774-.02882957-.24234387-.2966302-.2334215-.72182453-.20509708-.9848206.06560402l-.0335772.03521743c-.31151791.31997072-.24891557.85927155.13886504 1.24861582l.96243223.95358628c.31017399.29859127.8005025.2911537 1.09973271-.01491175l.03395604-.03560613c.29558498-.30662182.28908103-.79497152-.01526084-1.09431305-.0679751-.06685827-.177321-.06599542-.24423089.00192723-.0669099.06792265-.06604638.17718417.00192871.24404242zm-.57447749-5.15580512.39283532 3.23071775c.0115042.0946117.09758735.16199082.1922721.1504955.09468475-.01149533.16211591-.09751205.15061171-.19212373l-.39405405-3.24074075-.00389567-.02104012c-.06722111-.26867694.09988321-.56994994.32251838-.61737868.12479923-.02662393.25502005-.00208478.36150105.06810269.10648097.07018746.18030887.18014801.20492325.30521623l.68399542 2.92266913c.02172233.0928029.1146215.1504387.20749608.12873313.09287457-.02170558.15055487-.11453305.12883255-.20733598l-.6827027-2.91666666c-.04118485-.20983078-.16859143-.39959233-.35234825-.52071653-.1837568-.12112419-.40848199-.163472-.62376713-.11754433-.41870722.08919864-.69381613.57977477-.58821806 1.02761235z"/><path d="m5.42365963 5.07696728.77675675-3.87268518c.0902718-.41686844-.15764188-.83540299-.56932305-.95766322-.46092735-.11652667-.92280703.15495762-1.04313305.60718919l-.85997415 2.94672556c-.02670091.09149687.02588387.18729837.11745139.2139787.09156751.02668029.18744301-.0258639.21414391-.11736078l.8610811-2.95069444c.07284632-.27359319.34822292-.43545444.61892165-.36710889.2316619.06895273.37531967.31147966.32269885.55453406l-.777294 3.87526154c-.01874338.09344916.0418761.18438743.1353974.20311638.0935213.01872892.1845298-.04184378.2032732-.13529292zm-1.95636233 3.73101882c-1.23131076 0-2.25972973-.90320238-2.25972973-2.1866898 0-.09530748-.07732163-.17256945-.1727027-.17256945s-.17270271.07726197-.17270271.17256945c0 1.48472522 1.19226996 2.5318287 2.60513514 2.5318287.09538108 0 .1727027-.07726197.1727027-.17256945s-.07732162-.17256945-.1727027-.17256945zm-.60911355-3.01872527c-.02686625.0967145-.08697235.18087982-.16976407.2377171l-.0369206.0245745c-.19866117.13352692-.46715452.08173422-.6013961-.11549803l-.75510266-1.12368975c-.20600917-.3126-.17907225-.6414931.01921993-.77749395l.03698338-.02461757c.25435374-.14732085.47046276-.0355489.69262461.28786817l.63142756.93995595c.05315927.0791326.16045255.10022138.23964623.0471031.0791937-.05311825.10029875-.16032872.04713947-.2394613l-.63243243-.9414352c-.31234158-.45471462-.6993552-.6548787-1.16097819-.38682177l-.04794262.03154405c-.37118835.25456442-.41552432.79589555-.1133029 1.25447025l.75653324 1.12582565c.24170601.355128.72399032.44816125 1.07977088.20902587l.03832497-.02552847c.15171465-.1041331.26040745-.25633338.308991-.43122693.02551085-.09183528-.0283132-.18694712-.12021937-.21243827-.09190618-.02549118-.18709148.02829135-.21260233.1201266z"/><path d="m4.0017783 6.36088372c-.35885488.20032648-.58197678.57752651-.60968348 1.14811403-.00462252.0951955.06886098.17611108.16412995.18073003.095269.00461895.17624708-.06880783.18086958-.1640033.02509165-.51673336.22603255-.79569041.5510344-.91793458.17392795-.0654202.36304573-.07847397.5296472-.060757.022393.00238135.03726958.00459703.0432841.00571712.22238148.04141443.29007003-.28877377.06930323-.33806457l-1.32810813-.29652778c-.62162925-.17010495-.71544613-.4000256-.60034948-.78338502.049699-.16703853.15178728-.25277623.30576373-.28698555.10166032-.02258613.21586125-.01977768.32440162-.00077175.03137905.0054946.05344725.01071682.06321278.01352035l2.0159964.4704785c.01335073.00256843.02275793.00517525.03922365.01263085.0333462.0150991.0680631.0393579.10192733.07551498.13514145.14429144.20970655.41647862.17196382.86355647-.1314915 1.56729507-.86231987 2.54049248-2.59449843 2.52527628-.09537737-.00083783-.17337575.07574195-.17421422.17104574-.00083848.09530378.07580045.17324198.17117782.17407981 1.94674056.017101 2.79687626-1.11497031 2.94172533-2.84147978.04536985-.53742348-.0555408-.90578045-.26396245-1.1283137-.11492007-.12270095-.23619295-.17761295-.3292237-.19113428l-1.99316603-.46556587c-.01252812-.00382493-.04636705-.01183258-.09054202-.01956783-.1494083-.0261621-.30664173-.0300288-.45899003.0038188-.27036065.0600667-.4743618.2313948-.5617566.52513235-.1661611.5534411.01127979.98830243.84808368 1.21702066z"/></g></g></g></g></svg>