<svg fill="none" height="32" viewBox="0 0 51 32" width="51" xmlns="http://www.w3.org/2000/svg" xmlns:xlink="http://www.w3.org/1999/xlink"><clipPath id="a"><path d="m0 0h51v32h-51z"/></clipPath><g clip-path="url(#a)"><path clip-rule="evenodd" d="m.5.5h50v31h-50z" fill="#fff" fill-rule="evenodd" stroke="#d0d0d0"/><path d="m41.3046 8h-30.6092c-2.59322 0-4.6954 2.1022-4.6954 4.6954v6.789c0 2.5932 2.10218 4.6954 4.6954 4.6954h30.6092c2.5932 0 4.6954-2.1022 4.6954-4.6954v-6.789c0-2.5932-2.1022-4.6954-4.6954-4.6954z" fill="#ffb3c7"/><g fill="#000"><path d="m38.0309 15.0893c-.3723-.2537-.8068-.4011-1.2567-.4262-.4498-.0252-.8981.0728-1.2964.2833-.3983.2106-.7317.5259-.9642.9118-.2325.386-.3554.828-.3554 1.2786s.1229.8926.3554 1.2785c.2325.386.5659.7012.9642.9118s.8466.3086 1.2964.2834c.4499-.0252.8844-.1725 1.2567-.4263v.3h1.4058v-4.6952h-1.4058zm-1.2785 3.2555c-.2362-.0125-.4635-.094-.6539-.2344-.1903-.1405-.3353-.3336-.4171-.5555-.0817-.222-.0966-.463-.0428-.6933.0539-.2304.174-.4399.3456-.6026.1717-.1627.3873-.2716.6201-.3131.2329-.0415.4728-.0139.6901.0795.2173.0935.4024.2485.5325.446.1301.1976.1994.4289.1994.6654-.009.3291-.1482.6411-.387.8676-.2389.2265-.5579.3489-.8869.3404z"/><path d="m18.7524 12.6963h-1.4712v6.7877h1.4712z"/><path d="m31.6615 14.6631c-.2764-.0163-.5527.0348-.8049.149-.2523.1141-.473.2879-.6431.5064v-.5288h-1.4v4.6951h1.4168v-2.4675c-.0109-.1417.0089-.2841.058-.4176.049-.1334.1263-.2547.2264-.3556s.2208-.1791.3538-.2292c.1331-.0501.2753-.071.4171-.0612.6179 0 .973.3691.973 1.0539v2.4772h1.4043v-2.9859c0-1.0927-.8688-1.8358-2.0014-1.8358z"/><path d="m23.1999 15.0893c-.3724-.2537-.8069-.4011-1.2567-.4262-.4499-.0252-.8981.0728-1.2964.2833-.3984.2106-.7317.5259-.9643.9118-.2325.386-.3554.828-.3554 1.2786s.1229.8926.3554 1.2785c.2326.386.5659.7012.9643.9118.3983.2106.8465.3086 1.2964.2834.4498-.0252.8843-.1725 1.2567-.4263v.3h1.4058v-4.6952h-1.4058zm-1.2786 3.2555c-.2362-.0125-.4636-.094-.6539-.2344-.1904-.1404-.3354-.3335-.4172-.5554-.0817-.222-.0966-.463-.0428-.6934.0538-.2303.1739-.4398.3455-.6026.1717-.1627.3872-.2716.6201-.3131s.4728-.0139.6901.0795.4025.2485.5326.446c.1301.1976.1994.4289.1994.6654-.009.3291-.1482.6411-.387.8676-.2389.2265-.5578.3489-.8869.3404z"/><path d="m26.7801 15.4v-.6116h-1.4393v4.6954h1.4424v-2.192c0-.7397.8017-1.1372 1.358-1.1372.0056 0 .011.0005.0167.0006v-1.3665c-.2607-.007-.5196.0443-.758.15-.2383.1058-.45.2633-.6198.4613z"/><path d="m40.9292 17.8193c-.1745 0-.3451.0518-.4902.1488-.1451.0969-.2582.2347-.325.396-.0667.1612-.0842.3386-.0502.5098.0341.1711.1181.3283.2415.4517s.2806.2075.4518.2415.3486.0166.5098-.0502.299-.1799.396-.325c.0969-.1451.1487-.3157.1487-.4902 0-.1159-.0228-.2306-.0672-.3377-.0443-.1071-.1093-.2043-.1912-.2863-.082-.0819-.1793-.1469-.2863-.1912-.1071-.0444-.2218-.0672-.3377-.0672z"/><path d="m16.2667 12.6953h-1.5247c.0024.6115-.1391 1.2149-.4129 1.7616-.2739.5467-.6725 1.0213-1.1636 1.3855l-.604.4524 2.3405 3.1917h1.9243l-2.1535-2.9368c.5079-.5048.9103-1.1055 1.184-1.7672.2736-.6617.4129-1.3711.4099-2.0872z"/><path d="m12.3751 12.6953h-1.5274v6.7909h1.5274z"/></g></g></svg>