<?xml version="1.0" encoding="UTF-8" standalone="no"?>
<svg
   width="512"
   height="512"
   viewBox="0 0 512 512"
   version="1.1"
   id="svg1"
   sodipodi:docname="method-klarna-icon-white-on-black-512x512.svg"
   inkscape:version="1.3 (0e150ed, 2023-07-21)"
   xmlns:inkscape="http://www.inkscape.org/namespaces/inkscape"
   xmlns:sodipodi="http://sodipodi.sourceforge.net/DTD/sodipodi-0.dtd"
   xmlns="http://www.w3.org/2000/svg"
   xmlns:svg="http://www.w3.org/2000/svg"
   xmlns:rdf="http://www.w3.org/1999/02/22-rdf-syntax-ns#"
   xmlns:cc="http://creativecommons.org/ns#"
   xmlns:dc="http://purl.org/dc/elements/1.1/">
  <defs
     id="defs1" />
  <sodipodi:namedview
     id="namedview1"
     pagecolor="#ffffff"
     bordercolor="#666666"
     borderopacity="1.0"
     inkscape:showpageshadow="2"
     inkscape:pageopacity="0.0"
     inkscape:pagecheckerboard="true"
     inkscape:deskcolor="#d1d1d1"
     inkscape:zoom="1.84375"
     inkscape:cx="64"
     inkscape:cy="64"
     inkscape:window-width="1432"
     inkscape:window-height="903"
     inkscape:window-x="3036"
     inkscape:window-y="541"
     inkscape:window-maximized="0"
     inkscape:current-layer="svg1" />
  <title
     id="title1">Klarna_Avatar</title>
  <g
     id="⚙️-Favicons"
     stroke="none"
     stroke-width="1"
     fill="none"
     fill-rule="evenodd"
     transform="scale(4)">
    <g
       id="favicon-128x128"
       fill-rule="nonzero">
      <g
         id="Klarna_Avatar">
        <rect
           id="Rectangle"
           fill="#231f20"
           x="0"
           y="0"
           width="128"
           height="128" />
        <path
           d="M 68.2607,68.303179 C 78.151751,58.757946 83.575875,45.613692 83.575875,32 H 68.898833 c 0,11.735941 -5.583658,22.689487 -15.155642,29.574572 L 48,65.95599 70.494163,96 H 89 Z"
           id="Path"
           fill="#ffffff" />
        <polygon
           id="polygon1"
           fill="#ffffff"
           points="32,32 32,96 48,96 48,32 " />
        <path
           d="m 95,80 c -4.392157,0 -8,3.607843 -8,8 0,4.392157 3.607843,8 8,8 4.392157,0 8,-3.607843 8,-8 0,-4.392157 -3.607843,-8 -8,-8 z"
           id="path1"
           fill="#ffffff" />
      </g>
    </g>
  </g>
  <metadata
     id="metadata1">
    <rdf:RDF>
      <cc:Work
         rdf:about="">
        <dc:title>Klarna_Avatar</dc:title>
      </cc:Work>
    </rdf:RDF>
  </metadata>
</svg>
