<svg xmlns="http://www.w3.org/2000/svg" xmlns:xlink="http://www.w3.org/1999/xlink" width="51" height="32" viewBox="0 0 51 32">
  <defs>
    <path id="icon-51x32-a" d="M0.75,0 L23.25,0 C23.6642136,0 24,0.335786438 24,0.75 L24,15.15 C24,15.5642136 23.6642136,15.9 23.25,15.9 L0.75,15.9 C0.335786438,15.9 0,15.5642136 0,15.15 L0,0.75 C0,0.335786438 0.335786438,0 0.75,0 Z"/>
  </defs>
  <g fill="none" fill-rule="evenodd">
    <rect width="50" height="31" x=".5" y=".5" fill="#FFF" stroke="#D0D0D0"/>
    <g transform="translate(14 8.6)">
      <mask id="icon-51x32-b" fill="#fff">
        <use xlink:href="#icon-51x32-a"/>
      </mask>
      <g fill="#EB6F93" mask="url(#icon-51x32-b)">
        <rect width="24" height="18.15"/>
      </g>
      <g fill="#FFF" fill-rule="nonzero" transform="translate(5 11)">
        <path d="M2.55110375,0 L1.83730684,0 C1.83730684,0.583088235 1.56843267,1.11519608 1.10110375,1.46568627 L0.819426048,1.67598039 L1.91412804,3.16078432 L2.81357615,3.16078432 L1.80529801,1.79387255 C2.28222958,1.32230392 2.55110375,0.68504902 2.55110375,0 Z"/>
        <rect width="1" height="3.161"/>
        <rect width="1" height="3.161" x="3.025"/>
        <path d="M9.74988963.914460785C9.48741723.914460785 9.23774835.994117647 9.07130243 1.22034314L9.07130243.975 8.4183223.975 8.4183223 3.16078432 9.08090508 3.16078432 9.08090508 2.01372549C9.08090508 1.68235294 9.30496688 1.51985294 9.57384105 1.51985294 9.86192053 1.51985294 10.0283665 1.69191176 10.0283665 2.01053921L10.0283665 3.1639706 10.6845475 3.1639706 10.6845475 1.77156863C10.6845475 1.2617647 10.2780353.914460785 9.74988963.914460785zM5.79359823.975L5.79359823 1.11519608C5.60794703.987745097 5.3838852.914460785 5.1406181.914460785 4.5004415.914460785 3.98189845 1.43063725 3.98189845 2.06789216 3.98189845 2.70514705 4.5004415 3.22132352 5.1406181 3.22132352 5.3838852 3.22132352 5.60794703 3.14803922 5.79359823 3.02058822L5.79359823 3.16078432 6.44977925 3.16078432 6.44977925.975 5.79359823.975zM5.19503313 2.62867647C4.86534218 2.62867647 4.59966888 2.37696078 4.59966888 2.06789216 4.59966888 1.75882353 4.86534218 1.50710784 5.19503313 1.50710784 5.52472405 1.50710784 5.79039735 1.75882353 5.79039735 2.06789216 5.79039735 2.37696078 5.52472405 2.62867647 5.19503313 2.62867647zM7.46766005 1.25857843L7.46766005.975 6.79547463.975 6.79547463 3.16078432 7.47086093 3.16078432 7.47086093 2.14117647C7.47086093 1.79705882 7.84536425 1.6122549 8.10463575 1.6122549 8.10783665 1.6122549 8.11103753 1.6122549 8.11103753 1.6122549L8.11103753.975C7.84536425.975 7.59889625 1.08970588 7.46766005 1.25857843zM12.7267108.975L12.7267108 1.11519608C12.5410596.987745097 12.3169978.914460785 12.0737307.914460785 11.4335541.914460785 10.9150111 1.43063725 10.9150111 2.06789216 10.9150111 2.70514705 11.4335541 3.22132352 12.0737307 3.22132352 12.3169978 3.22132352 12.5410596 3.14803922 12.7267108 3.02058822L12.7267108 3.16078432 13.3828918 3.16078432 13.3828918.975 12.7267108.975zM12.1281457 2.62867647C11.7984547 2.62867647 11.5327814 2.37696078 11.5327814 2.06789216 11.5327814 1.75882353 11.7984547 1.50710784 12.1281457 1.50710784 12.4578367 1.50710784 12.7235099 1.75882353 12.7235099 2.06789216 12.7267108 2.37696078 12.4578367 2.62867647 12.1281457 2.62867647zM14.0838852 2.38651961C13.8566225 2.38651961 13.6709713 2.57132352 13.6709713 2.79754902 13.6709713 3.0237745 13.8566225 3.20857842 14.0838852 3.20857842 14.3111479 3.20857842 14.4967991 3.0237745 14.4967991 2.79754902 14.4967991 2.56813725 14.3111479 2.38651961 14.0838852 2.38651961z"/>
      </g>
      <g fill="#FFF" fill-rule="nonzero" transform="translate(8.75 1)">
        <path d="M2.38776783 6.43641075C2.55719853 6.6030577 2.56081936 6.87492773 2.39588678 7.04602095L2.36277726 7.0807551C2.19771589 7.249567 1.92474424 7.25370758 1.75306008 7.0884484L.793222768 6.13741315C.528977305 5.87209678.491025833 5.54515598.659197285 5.3724138L.692898415 5.33706898C.831497438 5.19442073 1.05742577 5.17937045 1.21504116 5.30339968 1.28997532 5.36236618 1.39856017 5.3494687 1.4575722 5.27459235 1.51658423 5.19971603 1.50367679 5.09121495 1.42874263 5.03224848 1.13211243 4.79882698.706918103 4.8271514.443922028 5.0978525L.410344828 5.13306993C.098826918 5.45304065.161429259 5.99234148.54920987 6.38168575L1.5116421 7.33527203C1.82181609 7.6338633 2.3121446 7.62642573 2.61137481 7.32036028L2.64533085 7.28475415C2.94091583 6.97813233 2.93441188 6.48978263 2.63007001 6.1904411 2.56209491 6.12358283 2.45274901 6.12444568 2.38583912 6.19236833 2.31892922 6.26029098 2.31979274 6.3695525 2.38776783 6.43641075zM1.81329034 1.28060563L2.20612566 4.51132338C2.21762986 4.60593508 2.30371301 4.6733142 2.39839776 4.66181888 2.49308251 4.65032355 2.56051367 4.56430683 2.54900947 4.46969515L2.15495542 1.2289544 2.15105975 1.20791428C2.08383864.93923734 2.25094296.63796434 2.47357813.5905356 2.59837736.563911667 2.72859818.588450823 2.83507918.658638288 2.94156015.728825753 3.01538805.8387863 3.04000243.963854518L3.72399785 3.88652365C3.74572018 3.97932655 3.83861935 4.03696235 3.93149393 4.01525678 4.0243685 3.9935512 4.0820488 3.90072373 4.06032648 3.8079208L3.37762378.89125414C3.33643893.68142336 3.20903235.491661805 3.02527553.370537611 2.84151873.249413417 2.61679354.207065608 2.4015084.252993282 1.98280118.342191924 1.70769227.832768053 1.81329034 1.28060563z"/>
        <path d="M5.42365963 5.07696728L6.20041638 1.2042821C6.29068818.787413655 6.0427745.368879105 5.63109333.246618883 5.17016598.130092214 4.7082863.401576499 4.58796028.853808065L3.72798613 3.80053363C3.70128522 3.8920305 3.75387 3.987832 3.84543752 4.01451233 3.93700503 4.04119262 4.03288053 3.98864843 4.05958143 3.89715155L4.92066253.946457112C4.99350885.672863915 5.26888545.511002668 5.53958418.57934822 5.77124608.648300948 5.91490385.890827878 5.86228303 1.13388228L5.08498903 5.00914382C5.06624565 5.10259298 5.12686513 5.19353125 5.22038643 5.2122602 5.31390773 5.23098912 5.40491623 5.17041642 5.42365963 5.07696728zM3.4672973 8.8079861C2.23598654 8.8079861 1.20756757 7.90478372 1.20756757 6.6212963 1.20756757 6.52598882 1.13024594 6.44872685 1.03486487 6.44872685.939483795 6.44872685.862162163 6.52598882.862162163 6.6212963.862162163 8.10602152 2.05443212 9.153125 3.4672973 9.153125 3.56267838 9.153125 3.64 9.07586303 3.64 8.98055555 3.64 8.88524807 3.56267838 8.8079861 3.4672973 8.8079861zM2.85818375 5.78926083C2.8313175 5.88597533 2.7712114 5.97014065 2.68841968 6.02697793L2.65149908 6.05155243C2.45283791 6.18507935 2.18434456 6.13328665 2.05010298 5.9360544L1.29500032 4.81236465C1.08899115 4.49976465 1.11592807 4.17087155 1.31422025 4.0348707L1.35120363 4.01025313C1.60555737 3.86293228 1.82166639 3.97470423 2.04382824 4.2981213L2.6752558 5.23807725C2.72841507 5.31720985 2.83570835 5.33829863 2.91490203 5.28518035 2.99409573 5.2320621 3.01520078 5.12485163 2.9620415 5.04571905L2.32960907 4.10428385C2.01726749 3.64956923 1.63025387 3.44940515 1.16863088 3.71746208L1.12068826 3.74900613C.749499913 4.00357055.70516394 4.54490168 1.00738536 5.00347638L1.7639186 6.12930203C2.00562461 6.48443003 2.48790892 6.57746328 2.84368948 6.3383279L2.88201445 6.31279943C3.0337291 6.20866633 3.1424219 6.05646605 3.19100545 5.8815725 3.2165163 5.78973722 3.16269225 5.69462538 3.07078608 5.66913423 2.9788799 5.64364305 2.8836946 5.69742558 2.85818375 5.78926083z"/>
        <path d="M4.0017783,6.36088372 C3.64292342,6.5612102 3.41980152,6.93841023 3.39209482,7.50899775 C3.3874723,7.60419325 3.4609558,7.68510883 3.55622477,7.68972778 C3.65149377,7.69434673 3.73247185,7.62091995 3.73709435,7.52572448 C3.762186,7.00899112 3.9631269,6.73003407 4.28812875,6.6077899 C4.4620567,6.5423697 4.65117448,6.52931593 4.81777595,6.5470329 C4.84016895,6.54941425 4.85504553,6.55162993 4.86106005,6.55275002 C5.08344153,6.59416445 5.15113008,6.26397625 4.93036328,6.21468545 L3.60225515,5.91815767 C2.9806259,5.74805272 2.88680902,5.51813207 3.00190567,5.13477265 C3.05160467,4.96773412 3.15369295,4.88199642 3.3076694,4.8477871 C3.40932972,4.82520097 3.52353065,4.82800942 3.63207102,4.84701535 C3.66345007,4.85250995 3.68551827,4.85773217 3.6952838,4.8605357 L5.7112802,5.3310142 C5.72463093,5.33358263 5.73403813,5.33618945 5.75050385,5.34364505 C5.78385005,5.35874415 5.81856695,5.38300295 5.85243118,5.41916003 C5.98757263,5.56345147 6.06213773,5.83563865 6.024395,6.2827165 C5.8929035,7.85001157 5.16207513,8.82320898 3.42989657,8.80799278 C3.3345192,8.80715495 3.25652082,8.88373473 3.25568235,8.97903852 C3.25484387,9.0743423 3.3314828,9.1522805 3.42686017,9.15311833 C5.37360073,9.17021933 6.22373643,8.03814802 6.3685855,6.31163855 C6.41395535,5.77421507 6.3130447,5.4058581 6.10462305,5.18332485 C5.98970298,5.0606239 5.8684301,5.0057119 5.77539935,4.99219057 L3.78223332,4.5266247 C3.7697052,4.52279977 3.73586627,4.51479212 3.6916913,4.50705687 C3.542283,4.48089477 3.38504957,4.47702807 3.23270127,4.51087567 C2.96234062,4.57094237 2.75833947,4.74227047 2.67094467,5.03600802 C2.50478357,5.58944912 2.68222446,6.02431045 3.51902835,6.25302868 L4.0017783,6.36088372 Z"/>
      </g>
    </g>
  </g>
</svg>
