<svg xmlns="http://www.w3.org/2000/svg" width="51" height="32" viewBox="0 0 51 32">
  <g fill="none" fill-rule="evenodd">
    <rect width="50" height="31" x=".5" y=".5" fill="#FFF" stroke="#D0D0D0"/>
    <g transform="translate(10 7.067)">
      <rect width="32" height="17.778" fill="#FFB3C7" fill-rule="nonzero" rx="4.321"/>
      <path fill="#0A0B09" fill-rule="nonzero" d="M25.8702222,4.44181333 C25.4515556,4.44181333 25.1121778,4.78427022 25.1121778,5.20675556 C25.1121778,5.62915556 25.4515556,5.97169778 25.8702222,5.97169778 C26.2888818,5.97169778 26.6283378,5.62917689 26.6283378,5.20675556 C26.6283378,4.78424178 26.288896,4.44181333 25.8702222,4.44181333 Z M23.3761422,3.85041067 C23.3761422,3.27200711 22.886208,2.80322844 22.2818133,2.80322844 C21.6774187,2.80322844 21.1874133,3.27202844 21.1874133,3.85041067 C21.1874133,4.42882133 21.6773547,4.89773511 22.2818133,4.89773511 C22.886272,4.89773511 23.3761422,4.42882133 23.3761422,3.85041067 Z M23.3802061,1.81506844 L24.5879572,1.81506844 L24.5879572,5.88561067 L23.3802061,5.88561067 L23.3802061,5.62545778 C23.0390007,5.86026667 22.6271394,5.99830044 22.1829083,5.99830044 C21.0073705,5.99830044 20.0543394,5.03666489 20.0543394,3.85038933 C20.0543394,2.66411378 21.0073705,1.70254933 22.1829083,1.70254933 C22.6271394,1.70254933 23.039015,1.840576 23.3802061,2.075456 L23.3802061,1.81505422 L23.3802061,1.81506844 Z M13.7147839,2.34528711 L13.7147839,1.81512533 L12.4782327,1.81512533 L12.4782327,5.88559644 L13.7175572,5.88559644 L13.7175572,3.985152 C13.7175572,3.34396444 14.4062612,2.99933867 14.884135,2.99933867 C14.8890287,2.99933867 14.893597,2.99981348 14.8984909,2.99987392 L14.8984909,1.81544725 C14.4080162,1.81544725 13.9569087,2.02735836 13.7147753,2.34536725 L13.7147839,2.34528711 Z M10.634535,3.85042489 C10.634535,3.27202133 10.1445439,2.80324267 9.54013497,2.80324267 C8.93575452,2.80324267 8.44573497,3.27204267 8.44573497,3.85042489 C8.44573497,4.42883556 8.93572608,4.89774933 9.54013497,4.89774933 C10.1445652,4.89774933 10.634535,4.42883556 10.634535,3.85042489 Z M10.6385304,1.81508267 L11.8463526,1.81508267 L11.8463526,5.88562489 L10.6385304,5.88562489 L10.6385304,5.625472 C10.2973251,5.86028089 9.88546375,5.99831467 9.44130375,5.99831467 C8.26569486,5.99831467 7.31266375,5.03667911 7.31266375,3.85040356 C7.31266375,2.664128 8.26569486,1.70256356 9.44130375,1.70256356 C9.8854922,1.70256356 10.2973393,1.84059022 10.6385304,2.07547022 L10.6385304,1.81506844 L10.6385304,1.81508267 Z M17.9082193,1.7056 C17.4257589,1.7056 16.969126,1.85674667 16.663846,2.27374222 L16.663846,1.81532444 L15.461286,1.81532444 L15.461286,5.88565333 L16.6786371,5.88565333 L16.6786371,3.74656 C16.6786371,3.12756622 17.0899935,2.82446222 17.5853038,2.82446222 C18.1161198,2.82446222 18.421286,3.14443378 18.421286,3.73816889 L18.421286,5.88565333 L19.6276149,5.88565333 L19.6276149,3.29713778 C19.6276149,2.34986667 18.8812326,1.70567111 17.9082193,1.70567111 L17.9082193,1.7056 Z M5.55337486,5.88565333 L6.81751708,5.88565333 L6.81751708,0.00113777778 L5.55337486,0.00113777778 L5.55337486,5.88565333 L5.55337486,5.88565333 Z M0.000237084444,5.88725909 L1.33883264,5.88725909 L1.33883264,4.13155556e-05 L0.000237084444,4.13155556e-05 L0.000237084444,5.88725909 Z M4.68219264,2.70933333e-05 C4.68219264,1.27456576 4.18996864,2.46020132 3.31287708,3.34148132 L5.1631882,5.88747243 L3.50985486,5.88747243 L1.49897486,3.12053909 L2.01795086,2.72834709 C2.87860864,2.0777942 3.37226197,1.08340487 3.37226197,2.70933333e-05 L4.68219975,2.70933333e-05 L4.68219264,2.70933333e-05 Z" transform="translate(3.139 5.973)"/>
    </g>
  </g>
</svg>
