<svg fill="none" height="360" viewBox="0 0 640 360" width="640" xmlns="http://www.w3.org/2000/svg"><path d="m515.899 76h-391.798c-33.193 0-60.101 26.908-60.101 60.101v86.899c0 33.193 26.908 60.101 60.101 60.101h391.798c33.193 0 60.101-26.908 60.101-60.101v-86.899c0-33.193-26.908-60.101-60.101-60.101z" fill="#ffb3c7"/><g fill="#000"><path d="m473.996 166.746c-4.766-3.248-10.328-5.134-16.086-5.456s-11.496.932-16.594 3.627c-5.099 2.696-9.366 6.731-12.342 11.671s-4.549 10.598-4.549 16.366c0 5.767 1.573 11.425 4.549 16.365s7.243 8.975 12.342 11.671c5.098 2.695 10.836 3.949 16.594 3.627s11.32-2.208 16.086-5.456v3.84h17.994v-60.099h-17.994zm-16.366 41.671c-3.023-.161-5.933-1.205-8.369-3.002-2.437-1.797-4.293-4.269-5.339-7.11s-1.237-5.926-.548-8.874 2.227-5.63 4.424-7.713 4.956-3.477 7.937-4.008c2.98-.531 6.051-.177 8.833 1.018 2.781 1.196 5.151 3.181 6.816 5.709 1.666 2.529 2.553 5.49 2.553 8.517-.115 4.212-1.897 8.206-4.954 11.105-3.058 2.899-7.141 4.466-11.353 4.358z"/><path d="m227.232 136.115h-18.832v86.884h18.832z"/><path d="m392.469 161.283c-3.538-.209-7.074.445-10.302 1.907-3.229 1.461-6.054 3.685-8.232 6.481v-6.768h-17.92v60.097h18.135v-31.583c-.139-1.814.114-3.637.742-5.345s1.616-3.261 2.898-4.552c1.282-1.292 2.826-2.293 4.529-2.934s3.524-.909 5.339-.784c7.909 0 12.455 4.725 12.455 13.491v31.707h17.974v-38.219c0-13.986-11.121-23.498-25.618-23.498z"/><path d="m284.161 166.746c-4.766-3.248-10.328-5.134-16.086-5.456s-11.496.932-16.594 3.627c-5.099 2.696-9.366 6.731-12.342 11.671s-4.549 10.598-4.549 16.366c0 5.767 1.573 11.425 4.549 16.365s7.243 8.975 12.342 11.671c5.098 2.695 10.836 3.949 16.594 3.627s11.32-2.208 16.086-5.456v3.84h17.994v-60.099h-17.994zm-16.366 41.671c-3.024-.161-5.934-1.204-8.37-3.001-2.437-1.797-4.293-4.269-5.34-7.11-1.046-2.841-1.237-5.926-.548-8.874.688-2.948 2.226-5.63 4.423-7.713 2.197-2.084 4.956-3.477 7.937-4.009 2.98-.531 6.051-.177 8.833 1.018 2.781 1.196 5.151 3.181 6.817 5.709 1.665 2.528 2.552 5.49 2.552 8.517-.115 4.212-1.896 8.206-4.953 11.105s-7.14 4.466-11.352 4.358z"/><path d="m329.989 170.727v-7.828h-18.424v60.1h18.463v-28.057c0-9.468 10.262-14.557 17.382-14.557.072 0 .141.008.214.008v-17.49c-3.337-.09-6.651.566-9.702 1.92-3.051 1.353-5.761 3.37-7.933 5.904z"/><path d="m511.093 201.685c-2.233 0-4.417.662-6.274 1.903s-3.305 3.005-4.16 5.069c-.854 2.064-1.078 4.335-.642 6.525.436 2.191 1.511 4.204 3.091 5.783 1.58 1.58 3.592 2.655 5.783 3.091s4.462.212 6.525-.643c2.064-.855 3.828-2.302 5.069-4.16 1.241-1.857 1.903-4.04 1.903-6.274 0-1.483-.292-2.952-.859-4.323-.568-1.37-1.4-2.615-2.449-3.664s-2.294-1.881-3.664-2.448c-1.37-.568-2.839-.86-4.323-.859z"/><path d="m195.416 136.1h-19.516c.031 7.826-1.78 15.55-5.285 22.547-3.506 6.998-8.607 13.073-14.894 17.736l-7.731 5.79 29.959 40.854h24.63l-27.564-37.591c6.5-6.461 11.652-14.15 15.154-22.62 3.503-8.47 5.286-17.551 5.247-26.716z"/><path d="m145.605 136.1h-19.55v86.923h19.55z"/></g></svg>