<svg fill="none" height="360" viewBox="0 0 640 360" width="640" xmlns="http://www.w3.org/2000/svg"><g fill="#fff"><path d="m154.115 123h-25.211c.042 10.102-2.293 20.071-6.819 29.103-4.525 9.031-11.112 16.871-19.228 22.884l-9.9771 7.467 38.6201 52.717h31.819l-35.573-48.512c8.398-8.331 15.054-18.25 19.581-29.179 4.528-10.93 6.835-22.65 6.788-34.48z"/><path d="m64 235.171h25.8113v-112.171h-25.8113z"/><path d="m170.828 235.127h24.31v-112.106h-24.31z"/><path d="m408.345 155.505c-9.269 0-18.045 2.875-23.902 10.728v-8.647h-23.13v77.541h23.409v-40.766c0-11.8 7.895-17.572 17.422-17.572 10.213 0 16.07 6.093 16.07 17.401v40.937h23.194v-49.348c0-18.044-14.354-30.317-33.063-30.317z"/><path d="m247.469 216.311c-5.433.139-10.699-1.885-14.642-5.626-3.942-3.741-6.239-8.894-6.385-14.327.298-5.379 2.644-10.439 6.557-14.141 3.912-3.702 9.094-5.765 14.481-5.765 5.386 0 10.568 2.063 14.481 5.765 3.912 3.702 6.259 8.762 6.556 14.141-.146 5.436-2.445 10.593-6.392 14.335s-9.219 5.763-14.656 5.618zm21.113-58.724v4.956c-5.295-3.607-11.362-5.92-17.714-6.754-6.352-.833-12.81-.164-18.856 1.955s-11.51 5.627-15.952 10.244c-4.441 4.616-7.737 10.211-9.622 16.334-1.884 6.122-2.305 12.602-1.227 18.917 1.077 6.315 3.622 12.289 7.431 17.44 3.808 5.152 8.772 9.337 14.493 12.22 5.722 2.882 12.04 4.381 18.446 4.375 8.198.048 16.218-2.391 23.001-6.995v4.956h23.236v-77.648z"/><path d="m327.734 167.693v-10.106h-23.773v77.541h23.816v-36.196c0-12.23 13.238-18.795 22.443-18.795h.257v-22.55c-9.419 0-18.087 4.034-22.743 10.106z"/><path d="m492.429 216.311c-5.433.139-10.699-1.885-14.642-5.626-3.942-3.741-6.239-8.894-6.385-14.327.298-5.379 2.644-10.439 6.557-14.141 3.912-3.702 9.094-5.765 14.481-5.765 5.386 0 10.568 2.063 14.481 5.765 3.912 3.702 6.259 8.762 6.556 14.141-.146 5.436-2.445 10.593-6.392 14.335s-9.219 5.763-14.656 5.618zm21.134-58.724v4.956c-6.149-4.189-13.324-6.622-20.754-7.038-7.429-.415-14.831 1.203-21.408 4.681-6.578 3.478-12.083 8.684-15.923 15.057-3.84 6.374-5.869 13.674-5.869 21.115 0 7.44 2.029 14.74 5.869 21.114 3.84 6.373 9.345 11.579 15.923 15.057 6.577 3.478 13.979 5.096 21.408 4.681 7.43-.415 14.605-2.849 20.754-7.038v4.956h23.215v-77.541z"/><path d="m561.432 207.622c-2.887-.004-5.71.848-8.112 2.448-2.402 1.601-4.275 3.878-5.383 6.544-1.107 2.665-1.399 5.6-.839 8.431.561 2.832 1.948 5.433 3.988 7.476s4.639 3.434 7.47 3.999 5.765.277 8.433-.827c2.667-1.103 4.947-2.973 6.551-5.373s2.46-5.221 2.46-8.108c.003-1.915-.372-3.812-1.103-5.582-.73-1.77-1.803-3.378-3.156-4.733s-2.96-2.43-4.729-3.164c-1.769-.733-3.665-1.111-5.58-1.111z"/></g></svg>