<svg height="360" viewBox="0 0 640 360" width="640" xmlns="http://www.w3.org/2000/svg"><g fill="none" transform="translate(80 46)"><rect fill="#ffb3c7" height="266.139" rx="4.321" width="480"/><path d="m56.4880087 170.032598h6.493038v-20.085148c1.4926524.371947 3.2838353.446337 5.2242835.446337 6.3437728 0 11.9412194-1.859736 15.3743199-5.504819 2.5375092-2.60363 3.8808963-6.174323 3.8808963-10.712079 0-4.463366-1.6419176-8.108449-4.4033246-10.488911-2.9853048-2.67802-7.68716-4.165809-14.1055654-4.165809-5.2242835 0-9.3290776.446337-12.4636477.967063zm6.493038-44.856831c1.1194893-.297558 3.2838353-.520726 6.1198749-.520726 7.1647317 0 11.8665868 3.198746 11.8665868 9.819406 0 6.918217-4.7764877 10.712079-12.612913 10.712079-2.164346 0-3.9555289-.148779-5.3735487-.520726zm58.9597703 44.856831c-.447795-2.454851-.597061-5.504818-.597061-8.629175v-13.464488c0-7.215776-2.686774-14.729109-13.732402-14.729109-4.55259 0-8.8812818 1.264621-11.8665866 3.198746l1.4926524 4.314587c2.5375091-1.636567 6.0452422-2.678019 9.4037102-2.678019 7.38863 0 8.209588 5.356039 8.209588 8.331617v.743894c-13.9563-.074389-21.7180923 4.686535-21.7180923 13.390099 0 5.207261 3.731631 10.340132 11.0456283 10.340132 5.14965 0 9.030547-2.529241 11.045628-5.356039h.223897l.522429 4.537755zm-6.940833-12.125478c0 .669505-.149266 1.413399-.373163 2.082904-1.044857 3.049967-4.030162 6.025545-8.732017 6.025545-3.358468 0-6.1945077-2.008515-6.1945077-6.248713 0-6.992607 8.1349557-8.257228 15.2996877-8.108449zm12.165117-23.87901 13.359239 33.17769c.298531.818284.447796 1.33901.447796 1.710957s-.223898.892673-.522429 1.562178c-1.492652 3.347525-3.731631 5.876766-5.522813 7.290165-1.940449 1.636568-4.104795 2.67802-5.746712 3.198746l1.641917 5.504818c1.641918-.297557 4.851121-1.413399 8.060323-4.240198 4.158104-3.591947 7.22223-9.300577 11.403316-19.984787l10.837206-28.219569h-6.940834l-7.164732 21.126601c-.895591 2.60363-1.641918 5.356039-2.313611 7.513333h-.149265l-1.072844-3.598589c-.401151-1.273919-.830288-2.575734-1.240768-3.765966l-7.911057-21.275379zm55.750568 36.004488h6.567671v-52.816501h-6.567671zm43.585451 0c-.447796-2.454851-.597061-5.504818-.597061-8.629175v-13.464488c0-7.215776-2.686775-14.729109-13.732403-14.729109-4.552589 0-8.881282 1.264621-11.866586 3.198746l1.492652 4.314587c2.537509-1.636567 6.045242-2.678019 9.40371-2.678019 7.38863 0 8.209589 5.356039 8.209589 8.331617v.743894c-13.956301-.074389-21.718093 4.686535-21.718093 13.390099 0 5.207261 3.731631 10.340132 11.045628 10.340132 5.149651 0 9.030547-2.529241 11.045628-5.356039h.223898l.522428 4.537755zm-6.940834-12.125478c0 .669505-.149265 1.413399-.373163 2.082904-1.044857 3.049967-4.030162 6.025545-8.732017 6.025545-3.358468 0-6.194507-2.008515-6.194507-6.248713 0-6.992607 8.134955-8.257228 15.299687-8.108449zm18.434257-32.508185v8.629175h-5.597446v4.984092h5.597446v19.638812c0 4.240198.671694 7.438944 2.537509 9.37307 1.567285 1.785346 4.030162 2.752409 7.090099 2.752409 2.53751 0 4.55259-.371947 5.821345-.892673l-.298531-4.909703c-.820958.223168-2.089713.446336-3.806263.446336-3.656999 0-4.925753-2.529241-4.925753-6.992607v-19.415644h9.40371v-4.984092h-9.40371v-10.340132zm26.867744 27.82165h25.375091l.139936-1.273919c.046646-.511427.083962-1.106543.083962-1.776048 0-6.62066-3.13457-16.960792-14.926524-16.960792-10.5232 0-16.941605 8.554786-16.941605 19.415644s6.642303 18.151023 17.762564 18.151023c5.746711 0 9.70224-1.190231 12.015852-2.231683l-1.11949-4.686535c-2.462876 1.041452-5.298916 1.859736-10.000771 1.859736-6.567671 0-12.23975-3.645083-12.389015-12.497426zm.074633-4.686534c.522428-4.537756 3.4331-10.63769 10.075403-10.63769 7.38863 0 9.179813 6.471881 9.10518 10.63769zm33.659312 21.498547h6.493038v-19.192475c0-1.115841.149265-2.157294.29853-3.049967.895592-4.909703 4.179427-8.406006 8.80665-8.406006.895591 0 1.567285.074389 2.238978.223168v-6.174324c-.597061-.148778-1.119489-.223168-1.865815-.223168-4.403325 0-8.358854 3.049967-10.000772 7.885281h-.29853l-.223898-7.066997h-5.746712c.223898 3.347525.298531 6.992607.298531 11.232805zm27.240906.818284c-2.612141 0-4.403324-2.008515-4.403324-4.686534 0-2.75241 1.865815-4.686535 4.477957-4.686535s4.403325 1.934125 4.403325 4.686535c0 2.678019-1.716551 4.686534-4.477958 4.686534zm62.035701-104.4714651c-6.277136 0-11.365482 5.1177808-11.365482 11.4315313 0 6.3124753 5.088346 11.4315314 11.365482 11.4315314 6.27703 0 11.366549-5.1187373 11.366549-11.4315314 0-6.3141755-5.089306-11.4315313-11.366549-11.4315313zm-37.394141-8.838103c0-8.6438402-7.345663-15.6494125-16.407449-15.6494125s-16.408515 7.0058911-16.408515 15.6494125c0 8.6439466 7.345769 15.651538 16.408515 15.651538s16.407449-7.0075914 16.407449-15.651538zm.06093-30.4167789h18.108006v60.8314324h-18.108006v-3.8878046c-5.115747 3.5090561-11.29085 5.5718752-17.951278 5.5718752-17.625027 0-31.913975-14.3709769-31.913975-32.0990429s14.288948-32.0979802 31.913975-32.0979802c6.660428 0 12.835745 2.0627129 17.951278 5.5728317v-3.8915241zm-144.915227 7.9237505v-7.9229003h-18.539809v60.8303696h18.58139v-28.400825c0-9.5821037 10.32585-14.7322971 17.490688-14.7322971.073372 0 .141866.0070958.21524.007999v-17.7004356c-7.353765 0-14.117293 3.1668647-17.747637 7.9192871zm-46.182666 22.493241c0-8.6438403-7.346515-15.6494126-16.408515-15.6494126-9.061573 0-16.408515 7.0058911-16.408515 15.6494126 0 8.6439465 7.346516 15.6515379 16.408515 15.6515379 9.062319 0 16.408515-7.0075914 16.408515-15.6515379zm.059904-30.4167789h18.109073v60.8314323h-18.109073v-3.8878046c-5.115746 3.5090561-11.290849 5.5718753-17.950211 5.5718753-17.626093 0-31.915041-14.3709769-31.915041-32.0990429 0-17.7280661 14.288948-32.0979802 31.915041-32.0979802 6.659788 0 12.834678 2.0627128 17.950211 5.5728316v-3.8915241zm108.995613-1.6361426c-7.233607 0-14.079977 2.2587822-18.657089 8.4904918v-6.850736h-18.030176v60.8282442h18.251941v-31.9672673c0-9.250433 6.167533-13.7801122 13.593799-13.7801122 7.958609 0 12.534016 4.7817531 12.534016 13.6547128v32.0926667h18.086682v-38.6835709c0-14.1563103-11.190628-23.7833664-25.779173-23.7833664zm-185.238166 62.468h18.953487v-87.94000659h-18.953487zm-83.259086.023997h20.069778v-87.98038946h-20.069778zm70.1973111-87.980602c0 19.047097-7.3799934 36.7655987-20.5303679 49.9357175l27.7420115 38.0480726h-24.7886921l-30.1494465-41.349901 7.7810904-5.8610376c12.9039802-9.7220621 20.3054039-24.5825215 20.3054039-40.7728515h19.6401073z" fill="#0a0b09" transform="translate(47.525 42.772)"/></g></svg>