<?xml version="1.0" encoding="UTF-8" standalone="no"?>
<svg
   width="640"
   height="360"
   viewBox="0 0 640 360"
   version="1.1"
   id="svg826"
   sodipodi:docname="provider-deutsche-bank-white-640x360.svg"
   inkscape:version="1.1.2 (b8e25be8, 2022-02-05)"
   xmlns:inkscape="http://www.inkscape.org/namespaces/inkscape"
   xmlns:sodipodi="http://sodipodi.sourceforge.net/DTD/sodipodi-0.dtd"
   xmlns="http://www.w3.org/2000/svg"
   xmlns:svg="http://www.w3.org/2000/svg">
  <defs
     id="defs830" />
  <sodipodi:namedview
     id="namedview828"
     pagecolor="#ffffff"
     bordercolor="#666666"
     borderopacity="1.0"
     inkscape:pageshadow="2"
     inkscape:pageopacity="0.0"
     inkscape:pagecheckerboard="0"
     showgrid="false"
     inkscape:zoom="1.9296875"
     inkscape:cx="320.25911"
     inkscape:cy="180.08097"
     inkscape:window-width="1885"
     inkscape:window-height="1013"
     inkscape:window-x="2901"
     inkscape:window-y="371"
     inkscape:window-maximized="0"
     inkscape:current-layer="svg826" />
  <path
     fill="#1C62B7"
     d="M11.8320024 86.3038185L.191429848 86.3038185.191429848 50.9413475 11.8320024 50.9413475C24.1474075 50.9413475 30.7479435 56.9577515 30.7479435 68.5983363 30.7479435 80.1397963 25.2650644 86.3038185 11.8320024 86.3038185zM10.9884878 56.3208927L7.17156183 56.3208927 7.17156183 80.9221658 10.9041405 80.9221658C20.5202644 81.1182774 23.6202055 76.4240968 23.6202055 68.6468298 23.6202055 60.0872176 19.1706238 56.3208927 10.9884878 56.3208927L10.9884878 56.3208927zM41.4184714 71.3861679C41.6082725 68.1575891 43.1898603 65.1736338 46.8380918 65.1736338 50.3808878 65.1736338 52.1311821 67.8138653 51.9835638 71.3861679L41.4184714 71.3861679zM47.0489629 61.0171993C37.7491638 61.0171993 34.5226989 67.619843 34.5226989 73.8302693 34.5226989 81.2173841 38.2341892 86.7424582 46.1632714 86.9870755 52.4685832 87.0376765 58.05691 85.1292196 58.4364938 78.2334471L51.9835638 78.2334471C51.9835638 81.0212723 49.7271557 82.8306287 47.0911456 82.8306287 42.6415821 82.8306287 41.2286887 79.5535445 41.1654176 75.5426206L58.9847903 75.494109C59.5119922 68.1575891 56.3276918 61.0171993 47.0489629 61.0171993L47.0489629 61.0171993zM87.6012024 86.3038185L80.9373965 86.3038185 80.8952151 82.2928825C79.7775557 85.4708358 76.6776176 87.0861882 72.8817832 87.0861882 68.3689486 87.0861882 64.109174 84.3468501 64.0669913 77.7926998L64.0669913 61.8965679 70.8151578 61.8965679 70.8151578 76.862712C70.7729751 80.3844196 72.1436918 82.3413882 75.4545216 82.3898815 78.4490059 82.3898815 80.8952151 80.6775485 80.8952151 75.9348561L80.8952151 61.8965679 87.6012024 61.8965679 87.6012024 86.3038185M96.2472883 61.9956806L96.2472883 58.130249 102.763476 54.7076723 102.763476 61.9956806 108.984443 61.9956806 108.984443 66.7383668 102.763476 66.7383668 102.763476 78.5265577C102.763476 80.9221658 103.585915 82.2928825 106.032124 82.3898815 106.96 82.3898815 107.803512 82.4868988 109.026608 82.1452582L109.026608 86.3523303C105.842324 86.7930592 102.173019 87.6239344 99.1363359 86.008582 96.8377456 84.7875973 96.2472883 82.6344988 96.2472883 79.2119222L96.2472883 66.7383668 91.017469 66.7383668 91.017469 61.9956806 96.2472883 61.9956806M134.311136 75.7872379C135.386613 77.9403181 135.344449 80.7766552 134.015899 82.7336236 131.717308 86.2532054 126.719453 87.1346815 122.860348 87.0376765 117.377474 86.6939526 112.506129 85.2768379 112.738111 78.7226815L119.401918 78.7226815C119.338646 81.5590247 121.110051 82.5860054 123.640606 82.6830104 126.086815 82.6830104 128.533024 81.8521475 128.533024 79.6020501 128.533024 77.7926998 126.824891 77.0103303 124.631737 76.5210958 122.122273 75.9833496 120.329793 75.7387262 117.525075 74.6126328 115.289758 73.5371404 113.075514 71.7277841 113.075514 68.3052074 113.075514 65.4667628 115.289758 63.3157901 118.178805 62.141185 120.118903 61.3103099 122.522947 61.0656927 124.589555 61.0656927 129.228918 61.0656927 134.268955 62.6789374 133.973717 68.5477231L127.710584 68.5477231C127.710584 67.6683547 127.520802 66.6898612 126.78271 66.1036217 125.411995 64.8805231 121.194398 64.7329049 119.886938 66.7383668 118.41077 70.1630572 122.965786 70.4076927 128.005822 71.7762958 131.190106 72.5101536 133.341078 73.8302693 134.311136 75.7872379M150.991743 60.9665861C156.327016 60.9665861 161.852072 63.4127952 161.852072 70.1145638L155.293703 70.0639445C155.293703 66.9344968 153.58557 65.0260155 150.359104 65.1736338 149.515591 65.2221455 148.62988 65.5152744 147.912895 65.9075099 145.888451 67.0820968 145.255813 70.359181 145.255813 73.6362471 145.255813 77.1073353 146.099325 80.4835262 147.617658 81.7045293 148.62988 82.6830104 150.44345 82.9782471 152.003965 82.6830104 154.597792 82.2443709 155.378049 79.6990552 155.441322 77.4995709L161.852072 77.4510774C161.936419 84.443849 156.221562 87.0861882 150.253666 86.9870755 142.282401 86.6939526 138.61308 81.510513 138.61308 73.8302693 138.61308 66.0551099 143.062659 60.9665861 150.991743 60.9665861M167.018619 50.9898531L173.766789 50.9898531 173.766789 65.7598917C175.538177 62.6304257 178.174186 61.2618226 181.738054 61.2618226 186.250889 61.2618226 190.510667 64.6358876 190.510667 69.4777049L190.510667 86.3038185 183.846861 86.3038185 183.846861 71.3355485C183.846861 68.0099709 182.433965 65.8104927 179.249664 65.8104927 176.276253 65.8104927 173.724607 67.7653536 173.724607 72.2655363L173.724607 86.3038185 167.018619 86.3038185 167.018619 50.9898531M202.636261 71.3861679C202.826056 68.1575891 204.386573 65.1736338 208.055881 65.1736338 211.577576 65.1736338 213.348971 67.8138653 213.201359 71.3861679L202.636261 71.3861679zM208.266764 61.0171993C198.966953 61.0171993 195.740487 67.619843 195.740487 73.8302693 195.740487 81.2173841 199.451972 86.7424582 207.381067 86.9870755 213.686378 87.0376765 219.274699 85.1292196 219.654283 78.2334471L213.201359 78.2334471C213.201359 81.0212723 210.944938 82.8306287 208.30894 82.8306287 203.859371 82.8306287 202.446478 79.5535445 202.3832 75.5426206L220.202573 75.494109C220.729775 68.1575891 217.545486 61.0171993 208.266764 61.0171993L208.266764 61.0171993zM261.809205 85.2768379C259.531702 86.008582 256.579379 86.3038185 253.416179 86.3038185L240.636849 86.3038185 240.636849 51.0383465 254.238611 51.0383465C260.311958 51.0383465 266.659446 52.9468095 266.9125 59.7455769 267.060118 64.049648 264.128884 66.7868785 260.459576 68.0099709 263.285362 68.7438287 265.583959 69.5747039 267.144472 72.2170247 268.515188 74.5641272 268.62063 77.6957009 267.502967 80.2874145 266.322039 82.7336236 264.508467 84.3468501 261.809205 85.2768379zM254.238611 56.3208927L247.342833 56.3208927 247.342833 65.4667628 254.344053 65.4667628C258.013367 65.4667628 259.911286 63.9505414 259.911286 60.9665861 259.911286 58.1787547 257.71813 56.3208927 254.238611 56.3208927zM254.934514 70.749309L247.342833 70.7008034 247.342833 81.0697841 254.681461 81.0697841C259.573878 81.0697841 261.134391 78.6720683 261.134391 75.6902206 261.134391 73.3916298 259.468437 70.7008034 254.934514 70.749309L254.934514 70.749309zM283.150267 82.7821171C280.661881 82.5860054 279.185722 81.3628947 279.185722 79.0158104 279.227899 73.8808825 285.744088 74.4186166 289.118171 74.4186166 289.265789 78.4780642 288.928376 82.6830104 283.150267 82.7821171zM295.528924 68.5983363C295.528924 63.6089009 290.151481 61.1142044 283.930522 61.1626917 278.004794 61.2618226 273.702837 63.1681719 273.618489 68.8914471L280.113591 68.8914471C279.965978 66.2491323 281.779543 64.8805231 284.183576 64.8320176 287.789624 64.8320176 289.413402 66.4937496 289.075994 70.6037983 285.491034 70.7978206 280.704057 70.553185 277.140185 72.2170247 274.546358 73.4401353 272.542997 75.7387262 272.542997 79.4059384 272.542997 84.1022328 275.811639 86.9385698 280.598616 87.0861882 284.035964 87.4278104 287.937243 85.9115831 289.455578 82.7336236L289.708632 86.3038185 295.528924 86.3038185C295.528924 80.3844196 295.528924 74.5641272 295.528924 68.5983363L295.528924 68.5983363zM302.024031 61.8965679L308.772191 61.8965679 308.772191 65.8104927C310.54358 62.6304257 313.770045 61.2618226 317.397183 61.2618226 321.44608 61.2618226 325.600419 63.6089009 325.600419 69.4777049L325.600419 86.3038185 318.852259 86.3038185 318.852259 71.3355485C318.894429 68.1575891 317.333918 65.8104927 314.25507 65.8104927 311.2184 65.8104927 308.730015 67.7653536 308.730015 72.2655363L308.730015 86.3038185 302.024031 86.3038185 302.024031 61.8965679M349.218983 86.3038185L338.949121 72.314042 348.248932 61.8965679 356.178021 61.8965679 346.540802 72.0694247 357.886151 86.3038185 349.218983 86.3038185zM332.116608 50.9898531L338.759332 50.9898531 338.759332 86.3038185 332.116608 86.3038185 332.116608 50.9898531zM393.672496.0138165579L479.563934.0138165579 479.563934 86.2532054 393.672496 86.2532054 393.672496.0138165579zM445.865302 20.4396561L412.314289 65.4688704 427.476562 65.4688704 461.154106 20.4396561 445.865302 20.4396561zM405.629394 74.3089598L467.607035 74.3089598 467.607035 11.9601698 405.629394 11.9601698 405.629394 74.3089598z"
     transform="translate(80 136)"
     id="path824"
     style="fill:#ffffff" />
</svg>
