<svg height="360" viewBox="0 0 640 360" width="640" xmlns="http://www.w3.org/2000/svg"><path d="m11.8320024 86.3038185h-11.64057255v-35.362471h11.64057255c12.3154051 0 18.9159411 6.016404 18.9159411 17.6569888 0 11.54146-5.4828791 17.7054822-18.9159411 17.7054822zm-.8435146-29.9829258h-3.81692597v24.6012731h3.73257867c9.6161239.1961116 12.716065-4.498069 12.716065-12.275336 0-8.5596122-4.4495817-12.3259371-12.6317177-12.3259371zm30.4299836 15.0652752c.1898011-3.2285788 1.7713889-6.2125341 5.4196204-6.2125341 3.542796 0 5.2930903 2.6402315 5.145472 6.2125341zm5.6304915-10.3689686c-9.2997991 0-12.526264 6.6026437-12.526264 12.81307 0 7.3871148 3.7114903 12.9121889 11.6405725 13.1568062 6.3053118.050601 11.8936386-1.8578559 12.2732224-8.7536284h-6.45293c0 2.7878252-2.2564081 4.5971816-4.8924182 4.5971816-4.4495635 0-5.8624569-3.2770842-5.925728-7.2880081l17.8193727-.0485116c.5272019-7.3365199-2.6570985-14.4769097-11.9358274-14.4769097zm40.5522395 25.2866192h-6.6638059l-.0421814-4.010936c-1.1176594 3.1779533-4.2175975 4.7933057-8.0134319 4.7933057-4.5128346 0-8.7726092-2.7393381-8.8147919-9.2934884v-15.8961319h6.7481665v14.9661441c-.0421827 3.5217076 1.328534 5.4786762 4.6393638 5.5271695 2.9944843 0 5.4406935-1.712333 5.4406935-6.4550254v-14.0382882h6.7059873zm8.6460859-24.3081379v-3.8654316l6.5161877-3.4225767v7.2880083h6.220967v4.7426862h-6.220967v11.7881909c0 2.3956081.822439 3.7663248 3.268648 3.8633238.927876 0 1.771388.0970173 2.994484-.2446233v4.2070721c-3.184284.4407289-6.853589 1.2716041-9.8902721-.3437483-2.2985903-1.2209847-2.8890476-3.3740832-2.8890476-6.7966598v-12.4735554h-5.2298193v-4.7426862zm38.0638477 13.7915573c1.075477 2.1530802 1.033313 4.9894173-.295237 6.9463857-2.298591 3.5195818-7.296446 4.4010579-11.155551 4.3040529-5.482874-.3437239-10.354219-1.7608386-10.122237-8.314995h6.663807c-.063272 2.8363432 1.708133 3.8633239 4.238688 3.9603289 2.446209 0 4.892418-.8308629 4.892418-3.0809603 0-1.8093503-1.708133-2.5917198-3.901287-3.0809543-2.509464-.5377462-4.301944-.7823696-7.106662-1.908463-2.235317-1.0754924-4.449561-2.8848487-4.449561-6.3074254 0-2.8384446 2.214244-4.9894173 5.103291-6.1640224 1.940098-.8308751 4.344142-1.0754923 6.41075-1.0754923 4.639363 0 9.6794 1.6132447 9.384162 7.4820304h-6.263133c0-.8793684-.189782-1.8578619-.927874-2.4441014-1.370715-1.2230986-5.588312-1.3707168-6.895772.6347451-1.476168 3.4246904 3.078848 3.6693259 8.118884 5.037929 3.184284.7338578 5.335256 2.0539735 6.305314 4.0109421m16.680607-14.8206518c5.335273 0 10.860329 2.4462091 10.860329 9.1479777l-6.558369-.0506193c0-3.1294477-1.708133-5.037929-4.934599-4.8903107-.843513.0485117-1.729224.3416406-2.446209.7338761-2.024444 1.1745869-2.657082 4.4516711-2.657082 7.7287372 0 3.4710882.843512 6.8472791 2.361845 8.0682822 1.012222.9784811 2.825792 1.2737178 4.386307.9784811 2.593827-.4386395 3.374084-2.9839552 3.437357-5.1834395l6.41075-.0484935c.084347 6.9927716-5.63051 9.6351108-11.598406 9.5359981-7.971265-.2931229-11.640586-5.4765625-11.640586-13.1568062 0-7.7751594 4.449579-12.8636832 12.378663-12.8636832m16.026876-9.976733h6.74817v14.7700386c1.771388-3.129466 4.407397-4.4980691 7.971265-4.4980691 4.512835 0 8.772613 3.374065 8.772613 8.2158823v16.8261136h-6.663806v-14.96827c0-3.3255776-1.412896-5.5250558-4.597197-5.5250558-2.973411 0-5.525057 1.9548609-5.525057 6.4550436v14.0382822h-6.705988zm35.617642 20.3963148c.189795-3.2285788 1.750312-6.2125341 5.41962-6.2125341 3.521695 0 5.29309 2.6402315 5.145478 6.2125341zm5.630503-10.3689686c-9.299811 0-12.526277 6.6026437-12.526277 12.81307 0 7.3871148 3.711485 12.9121889 11.64058 13.1568062 6.305311.050601 11.893632-1.8578559 12.273216-8.7536284h-6.452924c0 2.7878252-2.256421 4.5971816-4.892419 4.5971816-4.449569 0-5.862462-3.2770842-5.92574-7.2880081l17.819373-.0485116c.527202-7.3365199-2.657087-14.4769097-11.935809-14.4769097zm53.542441 24.2596386c-2.277503.7317441-5.229826 1.0269806-8.393026 1.0269806h-12.77933v-35.265472h13.601762c6.073347 0 12.420835 1.908463 12.673889 8.7072304.147618 4.3040711-2.783616 7.0413016-6.452924 8.264394 2.825786.7338578 5.124383 1.564733 6.684896 4.2070538 1.370716 2.3471025 1.476158 5.4786762.358495 8.0703898-1.180928 2.4462091-2.9945 4.0594356-5.693762 4.9894234zm-7.570594-28.9559452h-6.895778v9.1458701h7.00122c3.669314 0 5.567233-1.5162214 5.567233-4.5001767 0-2.7878314-2.193156-4.6456934-5.672675-4.6456934zm.695903 14.4284163-7.591681-.0485056v10.3689807h7.338628c4.892417 0 6.45293-2.3977158 6.45293-5.3795635 0-2.2985908-1.665954-4.9894172-6.199877-4.9409116zm28.215753 12.0328081c-2.488386-.1961117-3.964545-1.4192224-3.964545-3.7663067.042177-5.1349279 6.558366-4.5971938 9.932449-4.5971938.147618 4.0594476-.189795 8.2643938-5.967904 8.3635005zm12.378657-14.1837808c0-4.9894354-5.377443-7.4841319-11.598402-7.4356446-5.925728.0991309-10.227685 2.0054802-10.312033 7.7287554h6.495102c-.147613-2.6423148 1.665952-4.010924 4.069985-4.0594295 3.606048 0 5.229826 1.661732 4.892418 5.7717807-3.58496.1940223-8.371937-.0506133-11.935809 1.6132264-2.593827 1.2231106-4.597188 3.5217015-4.597188 7.1889137 0 4.6962944 3.268642 7.5326314 8.055619 7.6802498 3.437348.3416222 7.338627-1.1746051 8.856962-4.3525646l.253054 3.5701949h5.820292c0-5.9193989 0-11.7396913 0-17.7054822zm6.495107-6.7017684h6.74816v3.9139248c1.771389-3.180067 4.997854-4.5486701 8.624992-4.5486701 4.048897 0 8.203236 2.3470783 8.203236 8.2158823v16.8261136h-6.74816v-14.96827c.04217-3.1779594-1.518341-5.5250558-4.597189-5.5250558-3.03667 0-5.525055 1.9548609-5.525055 6.4550436v14.0382822h-6.705984zm47.194952 24.4072506-10.269862-13.9897765 9.299811-10.4174741h7.929089l-9.637219 10.1728568 11.345349 14.2343938zm-17.102375-35.3139654h6.642724v35.3139654h-6.642724zm61.555888-50.97603654h85.891438v86.23938884h-85.891438zm52.192806 20.42583954-33.551013 45.0292143h15.162273l33.677544-45.0292143zm-40.235908 53.8693037h61.977641v-62.34879h-61.977641z" fill="#fff" transform="translate(80 136)"/></svg>