<svg height="360" viewBox="0 0 640 360" width="640" xmlns="http://www.w3.org/2000/svg" xmlns:xlink="http://www.w3.org/1999/xlink"><mask id="a" fill="#fff"><path d="m.912.503h13.433v13.236h-13.433z" fill="#fff" fill-rule="evenodd"/></mask><g fill="none" fill-rule="evenodd" transform="translate(90 145.5)"><g fill="#ff4785"><path d="m7.62521239 13.739451c-3.71053097-.0040132-6.71681416-2.9687558-6.71274749-6.62306658.00203953-3.65631537 3.01239351-6.61504425 6.72495988-6.61304071 3.71053102.00401014 6.71681412 2.9687527 6.71274752 6.62506806-.0020396 3.65431083-3.0144289 6.61504423-6.72495991 6.61103923" mask="url(#a)" transform="translate(400.973)"/><path d="m332.917265 57.375887c-11.088849 0-20.113805-8.8862095-20.113805-19.8090507 0-7.3948177 4.133894-14.1241218 10.793717-17.5579311 2.814956-1.4492961 6.303628-.3848753 7.779292 2.3954478 1.477699 2.7763141.390796 6.2081188-2.430265 7.6634286-2.847523 1.4673371-4.616284 4.3418745-4.616284 7.4990547 0 4.6626039 3.855045 8.4552293 8.587345 8.4552293 3.390974 0 6.472567-1.9704814 7.850531-5.0194154 1.298585-2.8645146 4.711947-4.1514414 7.61239-2.8745374 2.908584 1.276904 4.21531 4.6325355 2.918761 7.4950456-3.232212 7.1382341-10.447699 11.7527286-18.381682 11.7527286"/><path d="m448.262 66.247h11.528v-48.216h-11.528z"/><path d="m142.826 66.247h11.528v-48.216h-11.528z"/><path d="m358.027 57.244h11.528v-39.211h-11.528z"/><path d="m215.392 57.244h11.528v-39.211h-11.528z"/><path d="m292.674389 57.375887c-11.090885 0-20.113805-8.8862095-20.113805-19.8090507 0-10.9228413 9.02292-19.8110553 20.113805-19.8110553 6.781947 0 13.061151 3.3375905 16.800177 8.9263007l-9.627433 6.2462054c-1.599823-2.3914387-4.280443-3.8186847-7.172744-3.8186847-4.734336 0-8.587345 3.79463-8.587345 8.4572339s3.853009 8.4552293 8.587345 8.4552293c2.867876 0 5.536284-1.4031912 7.138142-3.7565433l9.574513 6.3223786c-3.747168 5.5045186-9.993805 8.7879861-16.712655 8.7879861m-129.556964-28.266485c-4.734337 0-8.587345 3.7946299-8.587345 8.4572338s3.853008 8.4552293 8.587345 8.4552293c4.734336 0 8.587345-3.7926254 8.587345-8.4552293s-3.853009-8.4572338-8.587345-8.4572338m0 28.2662845c-11.090885 0-20.113806-8.8862094-20.113806-19.8090507 0-10.9228412 9.022921-19.8110552 20.113806-19.8110552s20.113805 8.888214 20.113805 19.8110552c0 10.9228413-9.02292 19.8090507-20.113805 19.8090507m43.750071-28.2662845c-4.734337 0-8.587346 3.7946299-8.587346 8.4572338s3.853009 8.4552293 8.587346 8.4552293c4.734336 0 8.587345-3.7926254 8.587345-8.4552293s-3.853009-8.4572338-8.587345-8.4572338m0 28.2662845c-11.090885 0-20.113806-8.8862094-20.113806-19.8090507 0-10.9228412 9.022921-19.8110552 20.113806-19.8110552s20.113805 8.888214 20.113805 19.8110552c0 10.9228413-9.02292 19.8090507-20.113805 19.8090507m232.719292-28.2662845c-4.734337 0-8.587346 3.7946299-8.587346 8.4572338s3.853009 8.4552293 8.587346 8.4552293c4.734336 0 8.587345-3.7926254 8.587345-8.4552293s-3.853009-8.4572338-8.587345-8.4572338m0 28.2662845c-11.090885 0-20.113806-8.8862094-20.113806-19.8090507 0-10.9228412 9.022921-19.8110552 20.113806-19.8110552s20.113805 8.888214 20.113805 19.8110552c0 10.9228413-9.02292 19.8090507-20.113805 19.8090507m-101.358558-.9952635c-2.291858 0-4.457522-1.3550818-5.357168-3.5781375-1.178496-2.9106195.264602-6.2141325 3.222035-7.3747721 3.287168-1.2889313 5.412124-4.3739474 5.412124-7.8618799 0-4.6626039-3.853009-8.4572338-8.587345-8.4572338-3.568053 0-6.800265 2.2090239-8.043894 5.4965004-1.119469 2.9386833-4.439203 4.4240614-7.416991 3.3335814-2.983894-1.0964937-4.49823-4.3659292-3.384867-7.3046125 2.920796-7.7035197 10.494513-12.8772861 18.845752-12.8772861 11.090885 0 20.113805 8.8862094 20.113805 19.8090506 0 8.1625637-4.974513 15.3889984-12.672389 18.4098686-.698142.2726201-1.422743.4049209-2.131062.4049209m57.174133.6057777h-11.528496v-20.1217618c0-2.4936713-.714425-4.4060204-2.131062-5.684929-1.239557-1.1245575-2.985929-1.7419616-4.913451-1.7419616-.751062 0-7.33354.2024604-7.33354 7.1823344h-11.52646c0-12.0393806 9.716991-18.5361558 18.86-18.5361558 9.230531 0 18.573009 6.452675 18.573009 18.780712z"/><path d="m253.221 66.305-22.117-48.187h12.477l15.005 34.761z"/><path d="m253.187 66.373h-11.7l19.353-48.254h11.697z"/></g><g transform="translate(0 10.296)"><path d="m19.6059735 17.9088018c1.9458407-1.2448311 4.1338938-1.8401851 6.2975221-1.8401851 3.8102655 0 7.5452212 1.8401851 9.7678761 5.2198713 1.6873451 2.5578171 2.2613274 5.6147694 1.6120354 8.6035667-.5658407 2.6119402-2.0007965 4.8931281-4.0911505 6.538871l18.2900885-12.9454412c-.5617699-3.4658822-1.850177-6.8074819-3.8469026-9.8383749-3.7573452-5.71299273-9.5521239-9.6419281-16.309646-11.06316033-6.7656638-1.41922768-13.6799115-.16637839-19.4787611 3.54205551l7.7589381 11.77878792zm68.0626991 20.786674c-3.0327434-.6374497-5.6339823-2.4034661-7.3233629-4.9672968-3.4805309-5.2920354-1.9438053-12.3881738 3.4316815-15.8219832l-19.2263717 13.6109547c.5454867 3.4117592 1.8033628 6.7673907 3.8306194 9.8483977 4.9500885 7.5211049 13.2687611 11.6164186 21.7523009 11.6164186 4.8238938 0 9.6966372-1.3250134 14.0340712-4.0893l-7.756903-11.7888107c-2.6032744 1.667793-5.6991151 2.2270649-8.7420354 1.5916197" fill="#ff4785"/><path d="m111.804221 13.6473101c-2.819026-4.2837423-6.781947-7.56520516-11.438938-9.53769108-1.5509733-.65949987-3.1813272-1.17066238-4.8707078-1.5254693-6.7595575-1.41521855-13.6758407-.16236926-19.7576106 3.73048405l-1.5021239 1.06241619-22.7537168 16.10663044-18.2880531 12.9474457c-.3032743.2385425-.6207965.4650577-.950531.6755364-.6004425.3828707-1.2253097.6935773-1.8623894.95417-4.6447787 1.9063355-10.089469.6274269-13.3562831-3.2153124-.2992036-.3528024-.5861947-.7216412-.8467257-1.1165393l-11.9640708 7.6373692c3.75734513 5.7129928 9.5500885 9.6419282 16.309646 11.0631604.449823.0942143.9016814.1764012 1.3535398.2465607.4396461.0701596.8813275.1262873 1.3230089.1723921.0081416.0020046.0162832.0020046.0264602.0040091.9016814.0942143 1.8033628.1423237 2.7050442.1423237 4.9663717 0 9.8777876-1.4352641 14.3393805-4.2877514.0122124-.0080182.0223894-.018041.0346018-.0260593l1.4695575-1.0383615 22.7761062-16.1246714 19.2243363-13.6129593c.2930974-.186424.5923009-.3528023.8955752-.5111625.0875222-.0461049.1770797-.0902051.2646018-.1323009.2381416-.1162644.480354-.2245106.7225664-.3247385.0773451-.032073.1546902-.0661505.2320354-.0942143.3215929-.1242826.6472566-.2365379.9769911-.3307522.030531-.0080182.061062-.0140319.0915929-.0220501.3032744-.0841915.6106195-.1543511.92-.2144878.0753098-.014032.1506195-.0260593.2259292-.0400912.3053098-.0521186.6106195-.0922097.92-.1202736.0366372-.0040091.0732744-.0100227.1099116-.0120273.3093805-.0260593.6207964-.0400912.9342477-.0400912.0325664 0 .0671682.0040091.0997346.0040091.2259292.0020046.449823.0200456.6757522.0360821.1648672.0100228.3317699.0140319.4966371.0320729.3928319.0400912.7856638.100228 1.1764602.1824149.3785841.0801823.751062.1764012 1.1174336.290661.3419469.1082462.679823.2345334 1.0095576.3708434.1038053.0441003.2055752.0962188.3093805.1443283.2218584.1002279.4416814.2024604.6553982.3167203.1180531.0621413.2320354.1302963.3480531.1964467.1933629.1122553.3846903.2265152.5719469.3487933.1139823.0761732.2259292.154351.3399115.2325288.1811505.1302963.3582301.2625972.531239.4009118.1038053.0841914.2076106.1683829.3093805.2545789.1770796.1523465.3500885.3127112.5169911.4750805.0854868.0841915.1750443.1663784.2584956.2525744.1892921.1964468.3684071.4029163.5454867.6113905.0529204.0641458.1099116.1242826.1607965.1864239.2279646.2846474.4457522.577313.649292.8860151l11.9640706-7.6353648z" fill="#c40041"/><path d="m19.6059735 17.9049931-7.7589381-11.78079242c-11.97017699 7.64538752-15.39371682 23.45333872-7.63477876 35.24014482l11.96610616-7.6353647c-.6553982-.9922567-1.1316814-2.0486592-1.4390265-3.131121-.3073451-1.0844663-.4457522-2.1949919-.4253982-3.2954947.0732743-3.6723519 1.9336283-7.2504894 5.2920354-9.397372m80.2341769 3.3826931c1.6873456 2.5618262 2.2613276 5.6167739 1.6120356 8.6035666-.647257 2.9908019-2.4363718 5.5506235-5.0396462 7.2124028l7.7569022 11.7888107c5.79885-3.7064293 9.788231-9.4093993 11.229293-16.0685438.203539-.9421427.348053-1.8882945.443716-2.8324417.067168-.6615044.109912-1.3230089.12416-1.9805042.002035-.0641459.006106-.1262872.008141-.1904331.073275-4.989347-1.349469-9.8904934-4.168495-14.1722311l-11.9661066 7.6353647" fill="#d62560"/><path d="m19.6059735 17.9088018c1.9458407-1.2448311 4.1338938-1.8401851 6.2975221-1.8401851 3.8102655 0 7.5452212 1.8401851 9.7678761 5.2198713 1.6873451 2.5578171 2.2613274 5.6147694 1.6120354 8.6035667-.5658407 2.6119402-2.0007965 4.8931281-4.0911505 6.538871l18.2900885-12.9454412c-.5617699-3.4658822-1.850177-6.8074819-3.8469026-9.8383749-3.7573452-5.71299273-9.5521239-9.6419281-16.309646-11.06316033-6.7656638-1.41922768-13.6799115-.16637839-19.4787611 3.54205551l7.7589381 11.77878792zm68.0626991 20.786674c-3.0327434-.6374497-5.6339823-2.4034661-7.3233629-4.9672968-3.4805309-5.2920354-1.9438053-12.3881738 3.4316815-15.8219832l-19.2263717 13.6109547c.5454867 3.4117592 1.8033628 6.7673907 3.8306194 9.8483977 4.9500885 7.5211049 13.2687611 11.6164186 21.7523009 11.6164186 4.8238938 0 9.6966372-1.3250134 14.0340712-4.0893l-7.756903-11.7888107c-2.6032744 1.667793-5.6991151 2.2270649-8.7420354 1.5916197" fill="#ff4785"/><path d="m111.804221 13.6473101c-2.819026-4.2837423-6.781947-7.56520516-11.438938-9.53769108-1.5509733-.65949987-3.1813272-1.17066238-4.8707078-1.5254693-6.7595575-1.41521855-13.6758407-.16236926-19.7576106 3.73048405l-1.5021239 1.06241619-22.7537168 16.10663044-18.2880531 12.9474457c-.3032743.2385425-.6207965.4650577-.950531.6755364-.6004425.3828707-1.2253097.6935773-1.8623894.95417-4.6447787 1.9063355-10.089469.6274269-13.3562831-3.2153124-.2992036-.3528024-.5861947-.7216412-.8467257-1.1165393l-11.9640708 7.6373692c3.75734513 5.7129928 9.5500885 9.6419282 16.309646 11.0631604.449823.0942143.9016814.1764012 1.3535398.2465607.4396461.0701596.8813275.1262873 1.3230089.1723921.0081416.0020046.0162832.0020046.0264602.0040091.9016814.0942143 1.8033628.1423237 2.7050442.1423237 4.9663717 0 9.8777876-1.4352641 14.3393805-4.2877514.0122124-.0080182.0223894-.018041.0346018-.0260593l1.4695575-1.0383615 22.7761062-16.1246714 19.2243363-13.6129593c.2930974-.186424.5923009-.3528023.8955752-.5111625.0875222-.0461049.1770797-.0902051.2646018-.1323009.2381416-.1162644.480354-.2245106.7225664-.3247385.0773451-.032073.1546902-.0661505.2320354-.0942143.3215929-.1242826.6472566-.2365379.9769911-.3307522.030531-.0080182.061062-.0140319.0915929-.0220501.3032744-.0841915.6106195-.1543511.92-.2144878.0753098-.014032.1506195-.0260593.2259292-.0400912.3053098-.0521186.6106195-.0922097.92-.1202736.0366372-.0040091.0732744-.0100227.1099116-.0120273.3093805-.0260593.6207964-.0400912.9342477-.0400912.0325664 0 .0671682.0040091.0997346.0040091.2259292.0020046.449823.0200456.6757522.0360821.1648672.0100228.3317699.0140319.4966371.0320729.3928319.0400912.7856638.100228 1.1764602.1824149.3785841.0801823.751062.1764012 1.1174336.290661.3419469.1082462.679823.2345334 1.0095576.3708434.1038053.0441003.2055752.0962188.3093805.1443283.2218584.1002279.4416814.2024604.6553982.3167203.1180531.0621413.2320354.1302963.3480531.1964467.1933629.1122553.3846903.2265152.5719469.3487933.1139823.0761732.2259292.154351.3399115.2325288.1811505.1302963.3582301.2625972.531239.4009118.1038053.0841914.2076106.1683829.3093805.2545789.1770796.1523465.3500885.3127112.5169911.4750805.0854868.0841915.1750443.1663784.2584956.2525744.1892921.1964468.3684071.4029163.5454867.6113905.0529204.0641458.1099116.1242826.1607965.1864239.2279646.2846474.4457522.577313.649292.8860151l11.9640706-7.6353648z" fill="#c40041"/><path d="m19.6059735 17.9049931-7.7589381-11.78079242c-11.97017699 7.64538752-15.39371682 23.45333872-7.63477876 35.24014482l11.96610616-7.6353647c-.6553982-.9922567-1.1316814-2.0486592-1.4390265-3.131121-.3073451-1.0844663-.4457522-2.1949919-.4253982-3.2954947.0732743-3.6723519 1.9336283-7.2504894 5.2920354-9.397372m80.2341769 3.3826931c1.6873456 2.5618262 2.2613276 5.6167739 1.6120356 8.6035666-.647257 2.9908019-2.4363718 5.5506235-5.0396462 7.2124028l7.7569022 11.7888107c5.79885-3.7064293 9.788231-9.4093993 11.229293-16.0685438.203539-.9421427.348053-1.8882945.443716-2.8324417.067168-.6615044.109912-1.3230089.12416-1.9805042.002035-.0641459.006106-.1262872.008141-.1904331.073275-4.989347-1.349469-9.8904934-4.168495-14.1722311l-11.9661066 7.6353647" fill="#d62560"/></g><path d="m402.858 57.244h11.525v-39.285h-11.525z" fill="#ff4785"/></g></svg>