<svg xmlns="http://www.w3.org/2000/svg" width="51" height="32" viewBox="0 0 51 32">
  <g fill="none" fill-rule="evenodd">
    <rect width="50" height="31" x=".5" y=".5" fill="#FFF" stroke="#D0D0D0"/>
    <g transform="translate(14 10.3)">
      <path fill="#FF4785" d="M4.01861568 3.7949889C4.41745259 3.53120129 4.86593552 3.405042 5.30941214 3.405042 6.09039823 3.405042 6.85594817 3.7949889 7.31152339 4.51116589 7.65737674 5.05318359 7.77502528 5.7009712 7.64194058 6.33431633 7.52596081 6.88780306 7.23183944 7.37120129 6.8033818 7.71994465L10.5522819 4.97672341C10.4371365 4.24228093 10.1730531 3.53417474 9.76378635 2.89190925 8.99364728 1.68128978 7.8058976.848723411 6.42081542.54755527 5.03406448.246811907 3.61685841.512298632 2.42827434 1.29813934L4.01861568 3.79413934 4.01861568 3.7949889zM17.9693552 8.19981722C17.347737 8.06473757 16.8145638 7.69050748 16.4682933 7.14721545 15.7548925 6.02579952 16.0698736 4.5220827 17.1716814 3.79443669L13.2308723 6.67868447C13.3426802 7.40165792 13.6005057 8.11273757 14.0160303 8.76562253 15.0306448 10.3593924 16.7357143 11.2272154 18.4745765 11.2272154 19.4633249 11.2272154 20.462086 10.9464367 21.3511252 10.3606668L19.761201 7.86254288C19.2276106 8.21595881 18.5930594 8.33447208 17.9693552 8.19981722"/>
      <path fill="#C40041" d="M22.9163932,2.89195173 C22.3385803,1.98419952 21.5263047,1.28883669 20.5717661,0.870854385 C20.2538647,0.731102172 19.9196928,0.622783588 19.5734223,0.547597747 C18.1879229,0.247703942 16.7702996,0.513190668 15.5237257,1.33811102 L15.2158369,1.56324377 L10.5520316,4.97634111 L6.80354867,7.71998713 C6.74138685,7.7705358 6.67630468,7.8185358 6.60871934,7.86313757 C6.48564728,7.94427031 6.3575689,8.01011102 6.22698736,8.06533226 C5.27495196,8.46929686 4.15895954,8.19828801 3.4893641,7.38398713 C3.42803666,7.30922607 3.36921239,7.23106677 3.31581163,7.14738536 L0.863548673,8.76579244 C1.63368774,9.97641191 2.82102023,10.8089783 4.2065196,11.1101464 C4.29871934,11.130111 4.39133628,11.147527 4.48395322,11.1623942 C4.574067,11.1772615 4.66459798,11.1891553 4.75512895,11.1989252 C4.75679772,11.19935 4.7584665,11.19935 4.76055247,11.1997747 C4.94536915,11.2197393 5.13018584,11.229934 5.31500253,11.229934 C6.33295449,11.229934 7.33964223,10.9257924 8.25413021,10.3213323 C8.25663338,10.3196331 8.25871934,10.3175093 8.2612225,10.3158101 L8.56243616,10.0957747 L13.2308306,6.67885438 L17.1712225,3.79418182 C17.2312984,3.75467739 17.2926258,3.71942076 17.3547876,3.68586323 C17.3727269,3.67609332 17.3910834,3.66674819 17.4090228,3.65782784 C17.4578344,3.63319067 17.5074804,3.61025261 17.5571264,3.58901368 C17.5729798,3.58221722 17.5888331,3.57499598 17.6046865,3.56904907 C17.670603,3.54271279 17.737354,3.51892518 17.8049393,3.49896058 C17.8111972,3.49726146 17.8174551,3.49598713 17.823713,3.49428801 C17.8858748,3.4764473 17.948871,3.46158005 18.0122845,3.44883669 C18.0277206,3.44586323 18.0431568,3.44331456 18.0585929,3.44034111 C18.1211719,3.42929686 18.1837509,3.42080129 18.2471643,3.41485438 C18.2546738,3.41400483 18.2621833,3.41273049 18.2696928,3.41230571 C18.3331062,3.40678359 18.3969368,3.40381014 18.4611846,3.40381014 C18.4678597,3.40381014 18.474952,3.40465969 18.4816271,3.40465969 C18.5279355,3.40508447 18.5738268,3.40890748 18.6201353,3.41230571 C18.6539279,3.41442961 18.6881378,3.41527916 18.7219305,3.41910217 C18.8024488,3.42759775 18.8829671,3.44034111 18.9630683,3.45775704 C19.0406662,3.47474819 19.1170126,3.49513757 19.1921075,3.51934996 C19.262196,3.54228801 19.3314501,3.56904907 19.3990354,3.59793403 C19.4203123,3.60727916 19.4411719,3.61832341 19.4624488,3.6285181 C19.5079229,3.64975704 19.5529798,3.67142076 19.5967851,3.69563315 C19.6209823,3.70880129 19.6443451,3.72324377 19.6681252,3.73726146 C19.7077585,3.76104907 19.7469747,3.78526146 19.7853565,3.81117297 C19.8087193,3.82731456 19.831665,3.84388093 19.8550278,3.8604473 C19.892158,3.88805792 19.9284539,3.91609332 19.9639153,3.94540306 C19.9851922,3.96324377 20.006469,3.98108447 20.0273287,3.99934996 C20.0636245,4.03163315 20.099086,4.06561545 20.1332958,4.10002253 C20.150818,4.11786323 20.1691745,4.13527916 20.1862794,4.15354465 C20.2250784,4.19517297 20.2617914,4.23892518 20.2980872,4.28310217 C20.3089343,4.29669509 20.3206157,4.30943846 20.3310455,4.3226066 C20.3777712,4.38292518 20.4224109,4.44494288 20.4641302,4.51035881 L22.9163932,2.89237651 L22.9163932,2.89195173"/>
      <path fill="#D62560" d="M4.01861568 3.79418182L2.42827434 1.29775704C-.0252402023 2.91786323-.726959545 6.26766854.863381795 8.76536766L3.31606195 7.14738536C3.18172566 6.93711987 3.0841024 6.71326146 3.02110619 6.48388093 2.95810999 6.25407562 2.92974083 6.01874819 2.93391277 5.78554465 2.94893173 5.00734996 3.33024652 4.24911987 4.01861568 3.79418182M20.4641302 4.51099598C20.8099836 5.05386323 20.9276321 5.70122607 20.7945474 6.33414642 20.6618799 6.96791633 20.2951669 7.51035881 19.7615765 7.8625004L21.3515006 10.3606243C22.5400847 9.57520837 23.3577838 8.36671279 23.6531568 6.95559775 23.6948761 6.75595173 23.7244968 6.55545615 23.7441049 6.35538536 23.7578723 6.21520837 23.7666334 6.07503138 23.7695537 5.93570394 23.7699709 5.92211102 23.7708053 5.90894288 23.7712225 5.89534996 23.7862415 4.83807562 23.4946233 3.79949155 22.9168104 2.89216412L20.4641302 4.51014642"/>
      <path fill="#FF4785" d="M4.01861568 3.7949889C4.41745259 3.53120129 4.86593552 3.405042 5.30941214 3.405042 6.09039823 3.405042 6.85594817 3.7949889 7.31152339 4.51116589 7.65737674 5.05318359 7.77502528 5.7009712 7.64194058 6.33431633 7.52596081 6.88780306 7.23183944 7.37120129 6.8033818 7.71994465L10.5522819 4.97672341C10.4371365 4.24228093 10.1730531 3.53417474 9.76378635 2.89190925 8.99364728 1.68128978 7.8058976.848723411 6.42081542.54755527 5.03406448.246811907 3.61685841.512298632 2.42827434 1.29813934L4.01861568 3.79413934 4.01861568 3.7949889zM17.9693552 8.19981722C17.347737 8.06473757 16.8145638 7.69050748 16.4682933 7.14721545 15.7548925 6.02579952 16.0698736 4.5220827 17.1716814 3.79443669L13.2308723 6.67868447C13.3426802 7.40165792 13.6005057 8.11273757 14.0160303 8.76562253 15.0306448 10.3593924 16.7357143 11.2272154 18.4745765 11.2272154 19.4633249 11.2272154 20.462086 10.9464367 21.3511252 10.3606668L19.761201 7.86254288C19.2276106 8.21595881 18.5930594 8.33447208 17.9693552 8.19981722"/>
      <path fill="#C40041" d="M22.9163932,2.89195173 C22.3385803,1.98419952 21.5263047,1.28883669 20.5717661,0.870854385 C20.2538647,0.731102172 19.9196928,0.622783588 19.5734223,0.547597747 C18.1879229,0.247703942 16.7702996,0.513190668 15.5237257,1.33811102 L15.2158369,1.56324377 L10.5520316,4.97634111 L6.80354867,7.71998713 C6.74138685,7.7705358 6.67630468,7.8185358 6.60871934,7.86313757 C6.48564728,7.94427031 6.3575689,8.01011102 6.22698736,8.06533226 C5.27495196,8.46929686 4.15895954,8.19828801 3.4893641,7.38398713 C3.42803666,7.30922607 3.36921239,7.23106677 3.31581163,7.14738536 L0.863548673,8.76579244 C1.63368774,9.97641191 2.82102023,10.8089783 4.2065196,11.1101464 C4.29871934,11.130111 4.39133628,11.147527 4.48395322,11.1623942 C4.574067,11.1772615 4.66459798,11.1891553 4.75512895,11.1989252 C4.75679772,11.19935 4.7584665,11.19935 4.76055247,11.1997747 C4.94536915,11.2197393 5.13018584,11.229934 5.31500253,11.229934 C6.33295449,11.229934 7.33964223,10.9257924 8.25413021,10.3213323 C8.25663338,10.3196331 8.25871934,10.3175093 8.2612225,10.3158101 L8.56243616,10.0957747 L13.2308306,6.67885438 L17.1712225,3.79418182 C17.2312984,3.75467739 17.2926258,3.71942076 17.3547876,3.68586323 C17.3727269,3.67609332 17.3910834,3.66674819 17.4090228,3.65782784 C17.4578344,3.63319067 17.5074804,3.61025261 17.5571264,3.58901368 C17.5729798,3.58221722 17.5888331,3.57499598 17.6046865,3.56904907 C17.670603,3.54271279 17.737354,3.51892518 17.8049393,3.49896058 C17.8111972,3.49726146 17.8174551,3.49598713 17.823713,3.49428801 C17.8858748,3.4764473 17.948871,3.46158005 18.0122845,3.44883669 C18.0277206,3.44586323 18.0431568,3.44331456 18.0585929,3.44034111 C18.1211719,3.42929686 18.1837509,3.42080129 18.2471643,3.41485438 C18.2546738,3.41400483 18.2621833,3.41273049 18.2696928,3.41230571 C18.3331062,3.40678359 18.3969368,3.40381014 18.4611846,3.40381014 C18.4678597,3.40381014 18.474952,3.40465969 18.4816271,3.40465969 C18.5279355,3.40508447 18.5738268,3.40890748 18.6201353,3.41230571 C18.6539279,3.41442961 18.6881378,3.41527916 18.7219305,3.41910217 C18.8024488,3.42759775 18.8829671,3.44034111 18.9630683,3.45775704 C19.0406662,3.47474819 19.1170126,3.49513757 19.1921075,3.51934996 C19.262196,3.54228801 19.3314501,3.56904907 19.3990354,3.59793403 C19.4203123,3.60727916 19.4411719,3.61832341 19.4624488,3.6285181 C19.5079229,3.64975704 19.5529798,3.67142076 19.5967851,3.69563315 C19.6209823,3.70880129 19.6443451,3.72324377 19.6681252,3.73726146 C19.7077585,3.76104907 19.7469747,3.78526146 19.7853565,3.81117297 C19.8087193,3.82731456 19.831665,3.84388093 19.8550278,3.8604473 C19.892158,3.88805792 19.9284539,3.91609332 19.9639153,3.94540306 C19.9851922,3.96324377 20.006469,3.98108447 20.0273287,3.99934996 C20.0636245,4.03163315 20.099086,4.06561545 20.1332958,4.10002253 C20.150818,4.11786323 20.1691745,4.13527916 20.1862794,4.15354465 C20.2250784,4.19517297 20.2617914,4.23892518 20.2980872,4.28310217 C20.3089343,4.29669509 20.3206157,4.30943846 20.3310455,4.3226066 C20.3777712,4.38292518 20.4224109,4.44494288 20.4641302,4.51035881 L22.9163932,2.89237651 L22.9163932,2.89195173"/>
      <path fill="#D62560" d="M4.01861568 3.79418182L2.42827434 1.29775704C-.0252402023 2.91786323-.726959545 6.26766854.863381795 8.76536766L3.31606195 7.14738536C3.18172566 6.93711987 3.0841024 6.71326146 3.02110619 6.48388093 2.95810999 6.25407562 2.92974083 6.01874819 2.93391277 5.78554465 2.94893173 5.00734996 3.33024652 4.24911987 4.01861568 3.79418182M20.4641302 4.51099598C20.8099836 5.05386323 20.9276321 5.70122607 20.7945474 6.33414642 20.6618799 6.96791633 20.2951669 7.51035881 19.7615765 7.8625004L21.3515006 10.3606243C22.5400847 9.57520837 23.3577838 8.36671279 23.6531568 6.95559775 23.6948761 6.75595173 23.7244968 6.55545615 23.7441049 6.35538536 23.7578723 6.21520837 23.7666334 6.07503138 23.7695537 5.93570394 23.7699709 5.92211102 23.7708053 5.90894288 23.7712225 5.89534996 23.7862415 4.83807562 23.4946233 3.79949155 22.9168104 2.89216412L20.4641302 4.51014642"/>
    </g>
  </g>
</svg>
