<svg xmlns="http://www.w3.org/2000/svg" xmlns:xlink="http://www.w3.org/1999/xlink" width="640" height="360" viewBox="0 0 640 360">
  <defs>
    <polygon id="method-payconic-a" points=".912 .503 14.345 .503 14.345 13.739 .912 13.739"/>
  </defs>
  <g fill="none" fill-rule="evenodd" transform="translate(90 145.5)">
    <g transform="translate(400.973)">
      <mask id="method-payconic-b" fill="#fff">
        <use xlink:href="#method-payconic-a"/>
      </mask>
      <path fill="#FF4785" d="M7.62521239,13.739451 C3.91468142,13.7354378 0.90839823,10.7706952 0.912464897,7.11638442 C0.914504425,3.46006905 3.92485841,0.501340172 7.63742478,0.503343713 C11.3479558,0.507353848 14.3542389,3.47209641 14.3501723,7.12841177 C14.3481327,10.7827226 11.3357434,13.743456 7.62521239,13.739451" mask="url(#method-payconic-b)"/>
    </g>
    <path fill="#FF4785" d="M332.917265,57.375887 C321.828416,57.375887 312.80346,48.4896775 312.80346,37.5668363 C312.80346,30.1720186 316.937354,23.4427145 323.597177,20.0089052 C326.412133,18.5596091 329.900805,19.6240299 331.376469,22.404353 C332.854168,25.1806671 331.767265,28.6124718 328.946204,30.0677816 C326.098681,31.5351187 324.32992,34.4096561 324.32992,37.5668363 C324.32992,42.2294402 328.184965,46.0220656 332.917265,46.0220656 C336.308239,46.0220656 339.389832,44.0515842 340.767796,41.0026502 C342.066381,38.1381356 345.479743,36.8512088 348.380186,38.1281128 C351.28877,39.4050168 352.595496,42.7606483 351.298947,45.6231584 C348.066735,52.7613925 340.851248,57.375887 332.917265,57.375887"/>
    <polygon fill="#FF4785" points="448.262 66.247 459.79 66.247 459.79 18.031 448.262 18.031"/>
    <polygon fill="#FF4785" points="142.826 66.247 154.354 66.247 154.354 18.031 142.826 18.031"/>
    <polygon fill="#FF4785" points="358.027 57.244 369.555 57.244 369.555 18.033 358.027 18.033"/>
    <polygon fill="#FF4785" points="215.392 57.244 226.92 57.244 226.92 18.033 215.392 18.033"/>
    <path fill="#FF4785" d="M292.674389 57.375887C281.583504 57.375887 272.560584 48.4896775 272.560584 37.5668363 272.560584 26.643995 281.583504 17.755781 292.674389 17.755781 299.456336 17.755781 305.73554 21.0933715 309.474566 26.6820817L299.847133 32.9282871C298.24731 30.5368484 295.56669 29.1096024 292.674389 29.1096024 287.940053 29.1096024 284.087044 32.9042324 284.087044 37.5668363 284.087044 42.2294402 287.940053 46.0220656 292.674389 46.0220656 295.542265 46.0220656 298.210673 44.6188744 299.812531 42.2655223L309.387044 48.5879009C305.639876 54.0924195 299.393239 57.375887 292.674389 57.375887M163.117425 29.109402C158.383088 29.109402 154.53008 32.9040319 154.53008 37.5666358 154.53008 42.2292397 158.383088 46.0218651 163.117425 46.0218651 167.851761 46.0218651 171.70477 42.2292397 171.70477 37.5666358 171.70477 32.9040319 167.851761 29.109402 163.117425 29.109402M163.117425 57.3756865C152.02654 57.3756865 143.003619 48.4894771 143.003619 37.5666358 143.003619 26.6437946 152.02654 17.7555806 163.117425 17.7555806 174.20831 17.7555806 183.23123 26.6437946 183.23123 37.5666358 183.23123 48.4894771 174.20831 57.3756865 163.117425 57.3756865M206.867496 29.109402C202.133159 29.109402 198.28015 32.9040319 198.28015 37.5666358 198.28015 42.2292397 202.133159 46.0218651 206.867496 46.0218651 211.601832 46.0218651 215.454841 42.2292397 215.454841 37.5666358 215.454841 32.9040319 211.601832 29.109402 206.867496 29.109402M206.867496 57.3756865C195.776611 57.3756865 186.75369 48.4894771 186.75369 37.5666358 186.75369 26.6437946 195.776611 17.7555806 206.867496 17.7555806 217.958381 17.7555806 226.981301 26.6437946 226.981301 37.5666358 226.981301 48.4894771 217.958381 57.3756865 206.867496 57.3756865M439.586788 29.109402C434.852451 29.109402 430.999442 32.9040319 430.999442 37.5666358 430.999442 42.2292397 434.852451 46.0218651 439.586788 46.0218651 444.321124 46.0218651 448.174133 42.2292397 448.174133 37.5666358 448.174133 32.9040319 444.321124 29.109402 439.586788 29.109402M439.586788 57.3756865C428.495903 57.3756865 419.472982 48.4894771 419.472982 37.5666358 419.472982 26.6437946 428.495903 17.7555806 439.586788 17.7555806 450.677673 17.7555806 459.700593 26.6437946 459.700593 37.5666358 459.700593 48.4894771 450.677673 57.3756865 439.586788 57.3756865M338.22823 56.380423C335.936372 56.380423 333.770708 55.0253412 332.871062 52.8022855 331.692566 49.891666 333.135664 46.588153 336.093097 45.4275134 339.380265 44.1385821 341.505221 41.053566 341.505221 37.5656335 341.505221 32.9030296 337.652212 29.1083997 332.917876 29.1083997 329.349823 29.1083997 326.117611 31.3174236 324.873982 34.6049001 323.754513 37.5435834 320.434779 39.0289615 317.456991 37.9384815 314.473097 36.8419878 312.958761 33.5725523 314.072124 30.633869 316.99292 22.9303493 324.566637 17.7565829 332.917876 17.7565829 344.008761 17.7565829 353.031681 26.6427923 353.031681 37.5656335 353.031681 45.7281972 348.057168 52.9546319 340.359292 55.9755021 339.66115 56.2481222 338.936549 56.380423 338.22823 56.380423M395.402363 56.9862007L383.873867 56.9862007 383.873867 36.8644389C383.873867 34.3707676 383.159442 32.4584185 381.742805 31.1795099 380.503248 30.0549524 378.756876 29.4375483 376.829354 29.4375483 376.078292 29.4375483 369.495814 29.6400087 369.495814 36.6198827L357.969354 36.6198827C357.969354 24.5805021 367.686345 18.0837269 376.829354 18.0837269 386.059885 18.0837269 395.402363 24.5364019 395.402363 36.8644389L395.402363 56.9862007z"/>
    <polygon fill="#FF4785" points="253.221 66.305 231.104 18.118 243.581 18.118 258.586 52.879"/>
    <polygon fill="#FF4785" points="253.187 66.373 241.487 66.373 260.84 18.119 272.537 18.119"/>
    <g transform="translate(0 10.296)">
      <path fill="#FF4785" d="M19.6059735 17.9088018C21.5518142 16.6639707 23.7398673 16.0686167 25.9034956 16.0686167 29.7137611 16.0686167 33.4487168 17.9088018 35.6713717 21.288488 37.3587168 23.8463051 37.9326991 26.9032574 37.2834071 29.8920547 36.7175664 32.5039949 35.2826106 34.7851828 33.1922566 36.4309257L51.4823451 23.4854845C50.9205752 20.0196023 49.6321681 16.6780026 47.6354425 13.6471096 43.8780973 7.93411687 38.0833186 4.0051815 31.3257965 2.58394927 24.5601327 1.16472159 17.645885 2.41757088 11.8470354 6.12600478L19.6059735 17.9047927 19.6059735 17.9088018zM87.6686726 38.6954758C84.6359292 38.0580261 82.0346903 36.2920097 80.3453097 33.728179 76.8647788 28.4361436 78.4015044 21.3400052 83.7769912 17.9061958L64.5506195 31.5171505C65.0961062 34.9289097 66.3539823 38.2845412 68.3812389 41.3655482 73.3313274 48.8866531 81.65 52.9819668 90.1335398 52.9819668 94.9574336 52.9819668 99.830177 51.6569534 104.167611 48.8926668L96.410708 37.1038561C93.8074336 38.7716491 90.7115929 39.330921 87.6686726 38.6954758"/>
      <path fill="#C40041" d="M111.804221,13.6473101 C108.985195,9.3635678 105.022274,6.08210494 100.365283,4.10961902 C98.8143097,3.45011915 97.1839558,2.93895664 95.4945752,2.58414972 C88.7350177,1.16893117 81.8187345,2.42178046 75.7369646,6.31463377 L74.2348407,7.37704996 L51.4811239,23.4836804 L33.1930708,36.4311261 C32.8897965,36.6696686 32.5722743,36.8961838 32.2425398,37.1066625 C31.6420973,37.4895332 31.0172301,37.8002398 30.3801504,38.0608325 C25.7353717,39.967168 20.2906814,38.6882594 17.0238673,34.8455201 C16.7246637,34.4927177 16.4376726,34.1238789 16.1771416,33.7289808 L4.2130708,41.36635 C7.97041593,47.0793428 13.7631593,51.0082782 20.5227168,52.4295104 C20.9725398,52.5237247 21.4243982,52.6059116 21.8762566,52.6760711 C22.3159027,52.7462307 22.7575841,52.8023584 23.1992655,52.8484632 C23.2074071,52.8504678 23.2155487,52.8504678 23.2257257,52.8524723 C24.1274071,52.9466866 25.0290885,52.994796 25.9307699,52.994796 C30.8971416,52.994796 35.8085575,51.5595319 40.2701504,48.7070446 C40.2823628,48.6990264 40.2925398,48.6890036 40.3047522,48.6809853 L41.7743097,47.6426238 L64.5504159,31.5179524 L83.7747522,17.9049931 C84.0678496,17.7185691 84.3670531,17.5521908 84.6703274,17.3938306 C84.7578496,17.3477257 84.8474071,17.3036255 84.9349292,17.2615297 C85.1730708,17.1452653 85.4152832,17.0370191 85.6574956,16.9367912 C85.7348407,16.9047182 85.8121858,16.8706407 85.889531,16.8425769 C86.2111239,16.7182943 86.5367876,16.606039 86.8665221,16.5118247 C86.8970531,16.5038065 86.9275841,16.4977928 86.958115,16.4897746 C87.2613894,16.4055831 87.5687345,16.3354235 87.878115,16.2752868 C87.9534248,16.2612548 88.0287345,16.2492275 88.1040442,16.2351956 C88.409354,16.183077 88.7146637,16.1429859 89.0240442,16.114922 C89.0606814,16.1109129 89.0973186,16.1048993 89.1339558,16.1028947 C89.4433363,16.0768354 89.7547522,16.0628035 90.0682035,16.0628035 C90.1007699,16.0628035 90.1353717,16.0668126 90.1679381,16.0668126 C90.3938673,16.0688172 90.6177611,16.0868582 90.8436903,16.1028947 C91.0085575,16.1129175 91.1754602,16.1169266 91.3403274,16.1349676 C91.7331593,16.1750588 92.1259912,16.2351956 92.5167876,16.3173825 C92.8953717,16.3975648 93.2678496,16.4937837 93.6342212,16.6080435 C93.9761681,16.7162897 94.3140442,16.8425769 94.6437788,16.9788869 C94.7475841,17.0229872 94.849354,17.0751057 94.9531593,17.1232152 C95.1750177,17.2234431 95.3948407,17.3256756 95.6085575,17.4399355 C95.7266106,17.5020768 95.8405929,17.5702318 95.9566106,17.6363822 C96.1499735,17.7486375 96.3413009,17.8628974 96.5285575,17.9851755 C96.6425398,18.0613487 96.7544867,18.1395265 96.868469,18.2177043 C97.0496195,18.3480006 97.2266991,18.4803015 97.399708,18.6186161 C97.5035133,18.7028075 97.6073186,18.786999 97.7090885,18.873195 C97.8861681,19.0255415 98.059177,19.1859062 98.2260796,19.3482755 C98.3115664,19.432467 98.4011239,19.5146539 98.4845752,19.6008499 C98.6738673,19.7972967 98.8529823,20.0037662 99.0300619,20.2122404 C99.0829823,20.2763862 99.1399735,20.336523 99.1908584,20.3986643 C99.418823,20.6833117 99.6366106,20.9759773 99.8401504,21.2846794 L111.804221,13.6493146 L111.804221,13.6473101"/>
      <path fill="#D62560" d="M19.6059735 17.9049931L11.8470354 6.12420068C-.123141593 13.7695882-3.54668142 29.5775394 4.21225664 41.3643455L16.1783628 33.7289808C15.5229646 32.7367241 15.0466814 31.6803216 14.7393363 30.5978598 14.4319912 29.5133935 14.2935841 28.4028679 14.3139381 27.3023651 14.3872124 23.6300132 16.2475664 20.0518757 19.6059735 17.9049931M99.8401504 21.2876862C101.527496 23.8495124 102.101478 26.9044601 101.452186 29.8912528 100.804929 32.8820547 99.0158142 35.4418763 96.4125398 37.1036556L104.169442 48.8924663C109.968292 45.186037 113.957673 39.483067 115.398735 32.8239225 115.602274 31.8817798 115.746788 30.935628 115.842451 29.9914808 115.909619 29.3299764 115.952363 28.6684719 115.966611 28.0109766 115.968646 27.9468307 115.972717 27.8846894 115.974752 27.8205435 116.048027 22.8311965 114.625283 17.9300501 111.806257 13.6483124L99.8401504 21.2836771"/>
      <path fill="#FF4785" d="M19.6059735 17.9088018C21.5518142 16.6639707 23.7398673 16.0686167 25.9034956 16.0686167 29.7137611 16.0686167 33.4487168 17.9088018 35.6713717 21.288488 37.3587168 23.8463051 37.9326991 26.9032574 37.2834071 29.8920547 36.7175664 32.5039949 35.2826106 34.7851828 33.1922566 36.4309257L51.4823451 23.4854845C50.9205752 20.0196023 49.6321681 16.6780026 47.6354425 13.6471096 43.8780973 7.93411687 38.0833186 4.0051815 31.3257965 2.58394927 24.5601327 1.16472159 17.645885 2.41757088 11.8470354 6.12600478L19.6059735 17.9047927 19.6059735 17.9088018zM87.6686726 38.6954758C84.6359292 38.0580261 82.0346903 36.2920097 80.3453097 33.728179 76.8647788 28.4361436 78.4015044 21.3400052 83.7769912 17.9061958L64.5506195 31.5171505C65.0961062 34.9289097 66.3539823 38.2845412 68.3812389 41.3655482 73.3313274 48.8866531 81.65 52.9819668 90.1335398 52.9819668 94.9574336 52.9819668 99.830177 51.6569534 104.167611 48.8926668L96.410708 37.1038561C93.8074336 38.7716491 90.7115929 39.330921 87.6686726 38.6954758"/>
      <path fill="#C40041" d="M111.804221,13.6473101 C108.985195,9.3635678 105.022274,6.08210494 100.365283,4.10961902 C98.8143097,3.45011915 97.1839558,2.93895664 95.4945752,2.58414972 C88.7350177,1.16893117 81.8187345,2.42178046 75.7369646,6.31463377 L74.2348407,7.37704996 L51.4811239,23.4836804 L33.1930708,36.4311261 C32.8897965,36.6696686 32.5722743,36.8961838 32.2425398,37.1066625 C31.6420973,37.4895332 31.0172301,37.8002398 30.3801504,38.0608325 C25.7353717,39.967168 20.2906814,38.6882594 17.0238673,34.8455201 C16.7246637,34.4927177 16.4376726,34.1238789 16.1771416,33.7289808 L4.2130708,41.36635 C7.97041593,47.0793428 13.7631593,51.0082782 20.5227168,52.4295104 C20.9725398,52.5237247 21.4243982,52.6059116 21.8762566,52.6760711 C22.3159027,52.7462307 22.7575841,52.8023584 23.1992655,52.8484632 C23.2074071,52.8504678 23.2155487,52.8504678 23.2257257,52.8524723 C24.1274071,52.9466866 25.0290885,52.994796 25.9307699,52.994796 C30.8971416,52.994796 35.8085575,51.5595319 40.2701504,48.7070446 C40.2823628,48.6990264 40.2925398,48.6890036 40.3047522,48.6809853 L41.7743097,47.6426238 L64.5504159,31.5179524 L83.7747522,17.9049931 C84.0678496,17.7185691 84.3670531,17.5521908 84.6703274,17.3938306 C84.7578496,17.3477257 84.8474071,17.3036255 84.9349292,17.2615297 C85.1730708,17.1452653 85.4152832,17.0370191 85.6574956,16.9367912 C85.7348407,16.9047182 85.8121858,16.8706407 85.889531,16.8425769 C86.2111239,16.7182943 86.5367876,16.606039 86.8665221,16.5118247 C86.8970531,16.5038065 86.9275841,16.4977928 86.958115,16.4897746 C87.2613894,16.4055831 87.5687345,16.3354235 87.878115,16.2752868 C87.9534248,16.2612548 88.0287345,16.2492275 88.1040442,16.2351956 C88.409354,16.183077 88.7146637,16.1429859 89.0240442,16.114922 C89.0606814,16.1109129 89.0973186,16.1048993 89.1339558,16.1028947 C89.4433363,16.0768354 89.7547522,16.0628035 90.0682035,16.0628035 C90.1007699,16.0628035 90.1353717,16.0668126 90.1679381,16.0668126 C90.3938673,16.0688172 90.6177611,16.0868582 90.8436903,16.1028947 C91.0085575,16.1129175 91.1754602,16.1169266 91.3403274,16.1349676 C91.7331593,16.1750588 92.1259912,16.2351956 92.5167876,16.3173825 C92.8953717,16.3975648 93.2678496,16.4937837 93.6342212,16.6080435 C93.9761681,16.7162897 94.3140442,16.8425769 94.6437788,16.9788869 C94.7475841,17.0229872 94.849354,17.0751057 94.9531593,17.1232152 C95.1750177,17.2234431 95.3948407,17.3256756 95.6085575,17.4399355 C95.7266106,17.5020768 95.8405929,17.5702318 95.9566106,17.6363822 C96.1499735,17.7486375 96.3413009,17.8628974 96.5285575,17.9851755 C96.6425398,18.0613487 96.7544867,18.1395265 96.868469,18.2177043 C97.0496195,18.3480006 97.2266991,18.4803015 97.399708,18.6186161 C97.5035133,18.7028075 97.6073186,18.786999 97.7090885,18.873195 C97.8861681,19.0255415 98.059177,19.1859062 98.2260796,19.3482755 C98.3115664,19.432467 98.4011239,19.5146539 98.4845752,19.6008499 C98.6738673,19.7972967 98.8529823,20.0037662 99.0300619,20.2122404 C99.0829823,20.2763862 99.1399735,20.336523 99.1908584,20.3986643 C99.418823,20.6833117 99.6366106,20.9759773 99.8401504,21.2846794 L111.804221,13.6493146 L111.804221,13.6473101"/>
      <path fill="#D62560" d="M19.6059735 17.9049931L11.8470354 6.12420068C-.123141593 13.7695882-3.54668142 29.5775394 4.21225664 41.3643455L16.1783628 33.7289808C15.5229646 32.7367241 15.0466814 31.6803216 14.7393363 30.5978598 14.4319912 29.5133935 14.2935841 28.4028679 14.3139381 27.3023651 14.3872124 23.6300132 16.2475664 20.0518757 19.6059735 17.9049931M99.8401504 21.2876862C101.527496 23.8495124 102.101478 26.9044601 101.452186 29.8912528 100.804929 32.8820547 99.0158142 35.4418763 96.4125398 37.1036556L104.169442 48.8924663C109.968292 45.186037 113.957673 39.483067 115.398735 32.8239225 115.602274 31.8817798 115.746788 30.935628 115.842451 29.9914808 115.909619 29.3299764 115.952363 28.6684719 115.966611 28.0109766 115.968646 27.9468307 115.972717 27.8846894 115.974752 27.8205435 116.048027 22.8311965 114.625283 17.9300501 111.806257 13.6483124L99.8401504 21.2836771"/>
    </g>
    <polygon fill="#FF4785" points="402.858 57.244 414.383 57.244 414.383 17.959 402.858 17.959"/>
  </g>
</svg>
