<?xml version="1.0" encoding="utf-8"?>
<!-- Generator: Adobe Illustrator 22.1.0, SVG Export Plug-In . SVG Version: 6.00 Build 0)  -->
<svg version="1.1" id="Calque_1" xmlns="http://www.w3.org/2000/svg" xmlns:xlink="http://www.w3.org/1999/xlink" x="0px" y="0px"
	 viewBox="0 0 32 20" style="enable-background:new 0 0 32 20;" xml:space="preserve">
<style type="text/css">
	.st0{fill:#FFFFFF;}
	.st1{fill:#C9C9C9;}
	.st2{fill:#D62560;}
	.st3{fill:#FF4785;}
	.st4{fill:#C40041;}
</style>
<path class="st0" d="M30.93,0.14H1.07c-0.51,0-0.92,0.41-0.92,0.92v17.87c0,0.51,0.41,0.92,0.92,0.92h29.87
	c0.51,0,0.92-0.41,0.92-0.92V1.07C31.86,0.56,31.44,0.14,30.93,0.14z"/>
<path class="st1" d="M30.93,0H1.07C0.48,0,0,0.48,0,1.07v17.87C0,19.52,0.48,20,1.07,20h29.87c0.59,0,1.07-0.48,1.07-1.07V1.07
	C32,0.48,31.52,0,30.93,0z M31.86,18.93c0,0.51-0.41,0.92-0.92,0.92H1.07c-0.51,0-0.92-0.41-0.92-0.92V1.07
	c0-0.51,0.41-0.92,0.92-0.92h29.87c0.51,0,0.92,0.41,0.92,0.92V18.93z"/>
<g>
	<path class="st2" d="M8.58,8.12l-1.5-2.31c-2.31,1.5-2.97,4.6-1.48,6.91l2.31-1.5c-0.13-0.19-0.22-0.4-0.28-0.61
		c-0.06-0.21-0.09-0.43-0.08-0.65C7.57,9.24,7.93,8.54,8.58,8.12 M24.08,8.78c0.33,0.5,0.44,1.1,0.31,1.69
		c-0.13,0.59-0.47,1.09-0.97,1.41l1.5,2.31c1.12-0.73,1.89-1.85,2.17-3.15c0.04-0.18,0.07-0.37,0.09-0.56
		c0.01-0.13,0.02-0.26,0.02-0.39c0-0.01,0-0.02,0-0.04c0.01-0.98-0.26-1.94-0.81-2.78L24.08,8.78"/>
	<path class="st3" d="M8.58,8.12c0.38-0.24,0.8-0.36,1.22-0.36c0.74,0,1.46,0.36,1.89,1.02c0.33,0.5,0.44,1.1,0.31,1.69
		c-0.11,0.51-0.39,0.96-0.79,1.28l3.53-2.54c-0.11-0.68-0.36-1.34-0.74-1.93c-0.73-1.12-1.85-1.89-3.15-2.17
		C9.54,4.83,8.2,5.08,7.08,5.81L8.58,8.12L8.58,8.12z M21.73,12.2c-0.59-0.13-1.09-0.47-1.41-0.97c-0.67-1.04-0.38-2.43,0.66-3.1
		l-3.71,2.67c0.11,0.67,0.35,1.33,0.74,1.93c0.96,1.48,2.56,2.28,4.2,2.28c0.93,0,1.87-0.26,2.71-0.8l-1.5-2.31
		C22.91,12.21,22.32,12.32,21.73,12.2"/>
	<path class="st4" d="M26.39,7.28c-0.54-0.84-1.31-1.48-2.21-1.87c-0.3-0.13-0.61-0.23-0.94-0.3c-1.31-0.28-2.64-0.03-3.82,0.73
		l-0.29,0.21l-4.4,3.16l-3.53,2.54c-0.06,0.05-0.12,0.09-0.18,0.13c-0.12,0.07-0.24,0.14-0.36,0.19c-0.9,0.37-1.95,0.12-2.58-0.63
		c-0.06-0.07-0.11-0.14-0.16-0.22l-2.31,1.5c0.73,1.12,1.85,1.89,3.15,2.17c0.09,0.02,0.17,0.03,0.26,0.05
		c0.09,0.01,0.17,0.02,0.26,0.03c0,0,0,0,0.01,0C9.45,14.99,9.63,15,9.8,15c0.96,0,1.91-0.28,2.77-0.84c0,0,0,0,0.01,0l0.28-0.2
		l4.4-3.16l3.71-2.67c0.06-0.04,0.11-0.07,0.17-0.1C21.17,8.01,21.18,8,21.2,7.99c0.05-0.02,0.09-0.04,0.14-0.06
		c0.01-0.01,0.03-0.01,0.04-0.02c0.06-0.02,0.12-0.05,0.19-0.06c0.01,0,0.01,0,0.02,0c0.06-0.02,0.12-0.03,0.18-0.04
		c0.01,0,0.03-0.01,0.04-0.01c0.06-0.01,0.12-0.02,0.18-0.02c0.01,0,0.01,0,0.02,0c0.06,0,0.12-0.01,0.18-0.01c0.01,0,0.01,0,0.02,0
		c0.04,0,0.09,0,0.13,0.01c0.03,0,0.06,0,0.1,0.01c0.08,0.01,0.15,0.02,0.23,0.04c0.07,0.02,0.15,0.03,0.22,0.06
		c0.07,0.02,0.13,0.05,0.2,0.07c0.02,0.01,0.04,0.02,0.06,0.03c0.04,0.02,0.09,0.04,0.13,0.06c0.02,0.01,0.04,0.03,0.07,0.04
		c0.04,0.02,0.07,0.04,0.11,0.07c0.02,0.01,0.04,0.03,0.07,0.05c0.04,0.03,0.07,0.05,0.1,0.08c0.02,0.02,0.04,0.03,0.06,0.05
		c0.03,0.03,0.07,0.06,0.1,0.09c0.02,0.02,0.03,0.03,0.05,0.05c0.04,0.04,0.07,0.08,0.11,0.12c0.01,0.01,0.02,0.02,0.03,0.04
		c0.04,0.06,0.09,0.11,0.13,0.17L26.39,7.28L26.39,7.28z"/>
	<path class="st2" d="M8.58,8.12l-1.5-2.31c-2.31,1.5-2.97,4.6-1.48,6.91l2.31-1.5c-0.13-0.19-0.22-0.4-0.28-0.61
		c-0.06-0.21-0.09-0.43-0.08-0.65C7.57,9.24,7.93,8.54,8.58,8.12 M24.08,8.78c0.33,0.5,0.44,1.1,0.31,1.69
		c-0.13,0.59-0.47,1.09-0.97,1.41l1.5,2.31c1.12-0.73,1.89-1.85,2.17-3.15c0.04-0.18,0.07-0.37,0.09-0.56
		c0.01-0.13,0.02-0.26,0.02-0.39c0-0.01,0-0.02,0-0.04c0.01-0.98-0.26-1.94-0.81-2.78L24.08,8.78"/>
</g>
</svg>
