<?xml version="1.0" encoding="UTF-8"?><svg xmlns="http://www.w3.org/2000/svg" xmlns:xlink="http://www.w3.org/1999/xlink" viewBox="0 0 336 238"><defs><style>.a,.d{fill:#fff;}.a,.c{fill-rule:evenodd;}.b{mask:url(#a);}.c{fill:#ff4785;}</style><mask id="a" x="0" y="0" width="336" height="238" maskUnits="userSpaceOnUse"><polygon class="a" points="0 0 336 0 336 238 0 238 0 0"/></mask></defs><title>logo-payconiq</title><g class="b"><path class="c" d="M336,217.51A20.53,20.53,0,0,1,315.55,238H20.45A20.53,20.53,0,0,1,0,217.51v-197A20.53,20.53,0,0,1,20.45,0h295.1A20.53,20.53,0,0,1,336,20.49Z"/></g><path class="d" d="M251.44,168.69h9.47v33.17h-9.47ZM256.17,154a5.6,5.6,0,1,0,5.51,5.59A5.52,5.52,0,0,0,256.17,154Zm42.05,14.8v40.7h-9.47v-9.15a16.18,16.18,0,0,1-7.13,1.66,16.73,16.73,0,0,1,0-33.45,16.32,16.32,0,0,1,7.13,1.66v-1.42Zm-9.54,16.49a7.06,7.06,0,1,0-7.06,7.14A7.05,7.05,0,0,0,288.68,185.25Zm-127.77-7.14a7,7,0,0,1,5.89,3.22l7.91-5.27a16.45,16.45,0,0,0-13.8-7.54,16.73,16.73,0,0,0,0,33.45,16.45,16.45,0,0,0,13.73-7.42l-7.87-5.34a7,7,0,0,1-5.86,3.18,7.14,7.14,0,0,1,0-14.28ZM71,185.25A16.64,16.64,0,0,1,54.45,202a16.21,16.21,0,0,1-7.2-1.69v9.18H37.78v-40.7h9.47v1.46a16.35,16.35,0,0,1,7.2-1.7A16.66,16.66,0,0,1,71,185.25Zm-9.47,0a7.06,7.06,0,1,0-7.06,7.14A7.05,7.05,0,0,0,61.51,185.25Zm45.37,16.61H97.41v-1.49a16.2,16.2,0,0,1-7,1.6,16.73,16.73,0,0,1,0-33.45,16.35,16.35,0,0,1,7,1.6v-1.36h9.47Zm-9.47-17.44a7.14,7.14,0,1,0,0,1.66ZM230.1,168.8a16.16,16.16,0,0,0-6,1.2v-1.24H214.6v33.1h9.48V184.45c0-5.9,5.41-6.07,6-6.07a5.91,5.91,0,0,1,4,1.47,6.29,6.29,0,0,1,1.75,4.81v17h9.47v-17c0-10.41-7.67-15.86-15.26-15.86Zm-85.74,0h-9.61l-6.83,17.5-7.35-17.5H110.32l13,29.19-4.5,11.55h9.61Zm66.11,16.42a16.53,16.53,0,1,1-16.53-16.73,16.53,16.53,0,0,1,16.53,16.73Zm-9.47,0a7.06,7.06,0,1,0-7.06,7.14,7.05,7.05,0,0,0,7.06-7.14Z"/><path class="d" d="M239.86,29.79a58,58,0,0,0-34,10.91L153.76,78.64a58.37,58.37,0,1,0-23.46,56.84l52-37.82a58.35,58.35,0,1,0,57.57-67.87ZM96.19,114.33a26.18,26.18,0,1,1,26.18-26.18A26.18,26.18,0,0,1,96.19,114.33Zm143.67,0a26.19,26.19,0,1,1,18.51-7.67A26.18,26.18,0,0,1,239.86,114.33Z"/></svg>
