<?xml version="1.0" standalone="no"?>
<!DOCTYPE svg PUBLIC "-//W3C//DTD SVG 20010904//EN"
 "http://www.w3.org/TR/2001/REC-SVG-20010904/DTD/svg10.dtd">
<svg version="1.0" xmlns="http://www.w3.org/2000/svg"
 width="700.000000pt" height="700.000000pt" viewBox="0 0 700.000000 700.000000"
 preserveAspectRatio="xMidYMid meet">
<metadata>
Created by potrace 1.11, written by Peter Selinger 2001-2013
</metadata>
<g transform="translate(0.000000,700.000000) scale(0.100000,-0.100000)"
fill="#000000" stroke="none">
<path d="M1488 5075 c-2 -2 -37 -5 -78 -9 -41 -3 -91 -8 -110 -12 -83 -13
-253 -62 -315 -89 -16 -7 -55 -24 -85 -38 -374 -165 -690 -525 -825 -939 -83
-256 -95 -567 -32 -838 165 -702 797 -1200 1521 -1197 176 0 298 19 481 76
145 44 315 134 475 251 127 93 663 479 693 500 12 8 168 120 346 248 178 128
327 229 331 225 4 -4 15 -44 25 -88 44 -207 143 -419 281 -600 251 -329 648
-555 1058 -602 80 -9 329 -9 386 1 194 32 335 75 482 146 89 42 244 140 308
195 36 31 207 203 225 227 156 206 244 387 299 608 34 142 38 170 40 355 3
178 -12 296 -57 452 -27 92 -86 235 -124 303 -62 108 -69 119 -155 235 -40 53
-211 221 -273 267 -216 162 -474 270 -720 303 -28 3 -64 8 -80 10 -40 6 -275
7 -300 1 -11 -2 -45 -7 -75 -11 -114 -15 -235 -49 -355 -98 -158 -64 -240
-112 -428 -249 -62 -45 -132 -96 -157 -113 -25 -18 -200 -144 -390 -280 -190
-137 -361 -260 -381 -274 -20 -14 -117 -84 -215 -154 -143 -103 -180 -125
-182 -110 -2 10 -14 61 -27 113 -141 559 -574 995 -1128 1135 -88 22 -112 26
-222 40 -50 6 -233 14 -237 10z m266 -893 c101 -30 165 -62 237 -118 403 -309
344 -941 -109 -1174 -112 -58 -203 -78 -337 -75 -168 3 -304 54 -430 158 -27
23 -61 55 -74 71 -14 15 -29 34 -35 40 -35 39 -91 151 -115 231 -99 335 66
694 387 837 137 62 334 74 476 30z m3854 8 c239 -61 430 -246 502 -488 24 -77
31 -234 16 -317 -40 -219 -187 -412 -386 -507 -96 -46 -159 -60 -280 -64 -138
-4 -235 16 -335 69 -11 6 -38 20 -60 31 -62 33 -195 172 -237 248 -62 115 -89
215 -90 338 -3 278 154 529 401 642 145 67 326 85 469 48z"/>
</g>
</svg>
