<svg height="80" viewBox="0 0 174 80" width="174" xmlns="http://www.w3.org/2000/svg"><g fill="#fff" fill-rule="nonzero" transform="translate(0 18.975)"><path d="m96.9669903 24.7485437v8.0242718c-4.5611651 2.1961165-8.9533981 3.3786408-13.3456311 3.3786408-12.0786408 0-19.3427184-6.9262136-19.3427184-15.5417476.084466-9.4601941 8.3621359-17.23106792 18.9203883-17.23106792 2.6184466 0 4.5611651.42233009 6.6728156 1.09805825 1.5203883.4223301 2.4495145 1.01359223 3.2941747 1.01359223s1.0135923-1.35145631 1.1825243-2.11165048h1.1825243l1.0135922 10.81165052h-1.3514563c-.5912622-2.1116505-1.6048544-3.8854369-2.9563107-5.15242722-2.1961165-2.11165049-5.1524272-3.20970874-8.615534-3.20970874-7.2640776 0-11.4873786 5.57475726-11.4873786 13.93689316 0 8.2776699 5.1524272 13.9368932 12.0786408 13.9368932 2.0271844 0 3.8854369-.42233 6.1660194-1.4359223v-8.1932039c0-2.7029126-.4223301-3.6320388-4.392233-3.6320388v-1.1825243h14.5281552v1.0135923c-3.6320387 0-3.5475727 1.0980582-3.5475727 4.476699zm-40.1213592-13.176699v23.9038835h-1.9427185l-24.6640776-24.6640777c.084466.6757281.084466 1.1825243.084466 1.8582524v15.0349515c0 4.645631 0 6.3349514 4.392233 6.3349514v1.1825243h-11.6563107v-1.1825243c4.392233 0 4.392233-2.0271844 4.392233-6.3349514v-17.146602c0-2.53398056 0-5.3213592-4.561165-5.3213592v-1.18252427h10.8961165l20.3563106 20.27184467c-.084466-.5912621-.084466-.9291262-.084466-1.6893204v-10.9805825c0-4.47669905.084466-6.33495148-4.2233009-6.33495148v-1.26699029h11.5718446v1.26699029c-4.307767-.08446602-4.561165 1.68932039-4.561165 6.25048548zm-56.16990294 23.7349514v-1.1825243c2.78737864 0 4.73009708-.253398 4.73009708-4.1388349v-20.60970874c0-3.96990292-1.52038835-4.13883496-4.73009708-4.13883496v-1.18252427h16.30194174v1.26699029c-3.2941748 0-4.7300971.08446602-4.7300971 4.13883495v20.60970873c0 3.8854369 1.6893204 4.138835 4.7300971 4.138835v1.1825242h-16.30194174z"/><path d="m173.493204 28.0427184c.084466-.6757281.084466-1.2669902.084466-1.6893203-.253398-.2533981-.591262-.3378641-.760194-.3378641 0-.3378641-.084466-.7601942 0-1.1825243.253398 0 .675728.084466.675728 0 0-.6757281-.084466-1.2669903-.253398-1.6048544-.253398-.084466-.591262-.253398-.84466-.337864 0-.3378641-.084466-.6757282-.253398-.8446602.337864-.0844661.591262-.0844661.760194-.0844661 0 0-.253398-.9291262-.337864-1.4359223-.253398-.084466-.591262-.084466-.760195-.084466-.084466-.2533981-.253398-.4223301-.337864-.7601942.253398-.084466.422331-.084466.675729-.253398-.253398-.5067962-.337865-.7601942-.591263-1.0980583-.253398 0-.42233 0-.760194 0-.084466-.253398-.253398-.4223301-.253398-.6757281.084466-.0844661.337864-.2533981.42233-.3378641-.084466-.3378641-.337864-.6757282-.591262-.8446602-.253398 0-.42233.084466-.675728 0-.084466 0-.42233-.4223301-.337864-.4223301.084466-.2533981.337864-.3378641.42233-.4223301-.337864-.4223301-.42233-.7601942-.760194-.9291262-.253398 0-.42233 0-.675728.084466 0 0-.253398-.3378641-.337864-.4223301-.337864 0 .253398-.5067961.253398-.5067961-.337864-.4223301-.675728-.7601942-1.098059-1.1825243-.253398 0-.42233.2533981-.591262.2533981 0 0-.42233-.3378641-.42233-.4223301 0-.2533981.42233-.3378641.42233-.3378641s-.760194-.8446602-1.351456-1.1825243c-.253398.084466-.337864.084466-.591262.084466-.337864-.337864-.760194-.5067961-.760194-.5067961s.337864-.253398.337864-.3378641c-.591262-.33786403-.760194-.50679607-1.182525-.84466014-.42233-.25339806-.675728-.50679612-.84466-.8446602-.760194-1.18252427-1.773786-2.87184466-4.223301-3.20970874 0 0 .591262.76019418.844661 1.26699029 0 .08446602 0 .08446602-.422331.08446602-.337864 0-.42233 0-.760194 0-.253398-.33786407-.337864-.42233009-.42233-.67572815-.253398-.4223301-.337864-.50679612-.591262-.76019418-.42233-.33786407-2.618447.8446602-4.476699 1.2669903.42233.50679611.84466.84466019 1.013592 1.09805825.591262.50679611 1.351457 1.52038835 1.858253 2.28058252.084466-.08446602.253398-.25339806.42233-.33786408 1.435922-.25339805 1.435922-.50679611 1.435922-.50679611s-1.098058-.8446602-.337864-.8446602c0 0 .591262.08446602.760194-.08446602.591262-.08446602 1.182524-.25339805 1.520389 0 .42233.33786408.675728.76019418 1.013592 1.09805826-.253398 0-.42233-.08446602-.675728-.08446602-.675729-.08446602-1.351457 0-1.858253.08446602 0 0 .84466.76019417 1.098058 1.09805828-.253398-.0844661-.84466 0-.84466 0-.337864.084466-.760194.253398-.84466.253398-.337864.084466-.675728 0-.84466.084466.42233.2533981 2.449514.9291263 3.378641.9291263.84466 0 1.435922-.0844661 2.196116-.4223301.084466-.0844661.337864-.2533981.42233-.0844661.42233.0844661.675728.2533981.84466.4223301 2.871845 1.6893204 6.081554 5.8281554 7.01068 7.9398059 1.013592 2.0271844 1.520388 4.307767 1.520388 6.4194174.084466 2.8718447-.84466 5.6592233-2.871844 8.1932039-1.098059 1.4359224-3.209709 2.6184466-5.405826 2.7873787.675729.7601941 1.013593 1.9427184 1.351457 3.0407767 0 0 .760194-.0844661 1.182524-.3378641 0-.8446602-.591262-1.8582524-.591262-2.0271845 0 0 .675728-.4223301 1.182524-.4223301.084466.3378641.42233.8446602.84466 1.6048544.42233-.2533981.760195-.4223301 1.098059-.7601942 0-.5067961-.337864-1.1825243-.591263-1.8582524.760195-.3378641 1.182525-.4223301 1.182525-.4223301.253398.3378641.760194.6757281.84466.9291262 0 0 .591262-.5067961.760194-1.0980582-.253398-.4223301-.591262-.7601942-.760194-1.1825243l.84466-.9291262s.591262.4223301.760194.6757281c.337864-.4223301.675728-.8446602.760194-1.4359223-.591262-.5067961-.760194-.5067961-.84466-.8446602.253398-.3378641.337864-.7601942.591262-1.0980583.337865.0844661.591263.3378641.760195.4223301.253398-.4223301.42233-1.0980582.42233-1.5203883-.253398-.2533981-.591262-.3378641-.760194-.5067961.084466-.5067961.253398-1.0980583.253398-1.0980583s1.098058.084466 1.26699.084466zm-17.146602-21.03203879-.675728.4223301-.84466-.67572816 1.013592-.50679611 1.098058.76019417zm3.969903.92912622-.42233-.50679612 1.182524-.33786408.591262 1.85825243zm-23.312622-2.78737865c0 .33786408.084467.67572816.253399.92912622.506796.33786408 1.182524.50679611 1.182524.50679611.084466-.33786407-.084466-.67572815-.084466-.92912621-.253398-.76019417-.591262-1.52038835-.675728-2.36504854 0-.08446602 0-.33786408 0-.4223301-.42233-.25339806-.844661-.33786408-1.435923-.50679612 0 0 0 .67572816.253398.92912622.168932.59126213.506796 1.43592233.506796 1.85825242zm.422331 2.70291263c.084466.25339805.337864.25339805.591262.33786407.253398.25339806.42233.33786408.760194.50679612.42233.4223301.675728.92912621 1.182524 1.4359223.253398.084466.337864.2533981.42233.2533981s.591262.3378641.675728.4223301c0-.84466021-.337864-1.52038836-.591262-1.94271846 0-.08446602-.084466-.25339806-.337864-.33786408-.337864-.33786408-.675728-.67572815-.760194-.67572815-.337864-.33786408-.591262-.67572816-.84466-.92912622-.337864 0-.591262.33786408-.760194.4223301-.084466.16893204-.591262.4223301-.337864.50679612zm1.773786 2.61844659c-.084466 0-.42233-.084466-.84466-.2533981-.337864 0-.591262 0-.591262 0 .084466.3378641.42233.6757282.591262.8446602 0 .0844661 0 .4223301.084466.6757282.253398 0 .506796.084466.760194.2533981.084466 0 .760194.084466 1.013592.337864.253398 0 1.013592.8446602 1.098058.9291262.337865.2533981.675729.4223301.844661.3378641.253398 0 0-.3378641 0-.4223301-.42233-.6757281-.760194-1.8582524-.844661-1.8582524-.337864-.084466-.591262 0-1.013592-.2533981-.253398-.168932-.929126-.5067961-1.098058-.5912621zm19.258252 21.876699c.337865.0844661.506797.8446602.760195 1.0980583.337864.4223301.253398-.7601942.084466-.9291262 0-.084466 0-.9291262-.253398-.9291262-.084466-.0844661-.253398-.4223301-.337865-.5067962-.084466.3378641 0 .5067962 0 .8446602.084467.0844661-.337864.3378641-.253398.4223301zm-38.009708-29.22524268c.760194-.4223301 2.11165-1.18252427 2.53398-1.60485437.084466.25339806 1.435923.92912621 1.942719 1.26699029.42233.33786408.84466.4223301 1.351456.67572816.253398-.33786408.42233-.67572816.675728-1.43592233.337864.25339805.760194.25339805 1.098058.33786407 0 .4223301 0 .8446602.084466 1.26699029 0 .25339806.253399.08446602.675729-.08446601.675728-.25339806 1.351456-.33786408 1.68932-.4223301.760194-.4223301 1.182524-1.26699029 1.858252-1.26699029.591263 0 1.520389.33786407 1.773787.50679611.337864.08446602.591262.25339806.84466.25339806.42233 0 .760194-.4223301 1.098058-.67572815-1.013592-.67572816-2.11165-1.26699029-3.209708-1.68932039-.675729.50679612-1.098059.92912621-1.435923.92912621s-.084466-.67572815-.084466-1.09805825c-.337864 0-.591262 0-.84466-.08446602-.253398.76019418-.337864 1.68932039-.84466 1.94271845-.253398.08446602-.337864.08446602-.42233.08446602 0-.08446602 0-.76019418 0-.8446602s.42233-.84466019.337864-.92912621c0 0-1.013592.25339806-1.182524.33786408-.084467.08446602-.760195.42233009-.844661.42233009 0 0-.337864-.08446602-.42233-.08446602-.337864-.25339805-.591262-.25339805-.84466-.42233009-.42233 1.26699029-.591262 1.60485437-.591262 1.43592233 0 0-1.520388-.92912622-2.111651-1.60485437-1.435922.25339806-1.435922.4223301-2.618446.84466019-.42233.4223301-1.098058.92912622-1.520389 1.60485437-.253398.4223301-.42233.67572816-.675728 1.09805825l1.098059.4223301c-.084466-.25339806.506796-1.01359223.591262-1.18252427zm24.326213 17.73786408c.253398.2533981.337864.6757282.42233 1.4359223.084466.4223301.337864.5067961.591263 1.1825243.337864-.2533981.84466-.084466.84466-.084466 0-.5067961-.337864-1.0980583-.337864-1.1825243-.084466-.2533981-.42233-.8446602-.591263-1.0980582.084467 0 .422331.4223301 1.013593.4223301.084466 0 .42233.084466.675728 0 0 0 .337864.253398.337864.42233.253398.3378641.253398.5067962.337864.8446602.253398 0 .337864 0 .42233-.084466.42233 0 .675728-.084466.675728-.084466-.084466-.2533981-.253398-.4223301-.253398-.6757282-.084466-.253398-.337864-.7601941-.337864-.7601941l1.942719-.3378641c0-.3378641-.084466-.7601942-.42233-.9291262-1.013593.3378641-2.111651.4223301-2.871845.4223301-1.098058 0-2.196117-.2533981-3.716505-.8446602-.084466.253398 0 .6757281 0 .6757281.760194.5067962.760194.1689321 1.26699.6757282zm-3.632039-6.2504854c.253399.8446602.591263 1.9427184.675729 3.2097087 0 .3378641-.084466.6757282 0 .9291262l1.520388.5067961s-.253398-1.2669903-.42233-2.7873786c-.253398-1.2669903-.337864-1.6893204-.675728-2.2805825-.253398.084466-.337864.084466-.591262.084466-.253398.253398-.506797.3378641-.506797.3378641zm16.639806 4.561165c-1.435922-1.4359223-2.95631-2.2805825-4.476699-2.2805825-1.351456 0-2.280582.9291262-2.280582 1.9427184 0 3.8854369 1.520388 6.3349515 2.53398 8.531068.337864.5067961.42233.9291262.42233 1.5203883.084466 1.4359224-1.098058 3.969903-1.858252 5.4058253-.084466-.084466-.675728-.2533981-1.098058-.2533981-1.098059 0-1.520389.7601942-1.773787 1.4359224-.337864 0-.506796-.2533981-.84466-.2533981-1.351456-.084466-2.449514 1.0980582-2.449514 2.3650485 0 1.4359224.337864 2.1116505.84466 3.1252428h1.098058c-.084466-.3378641-.42233-1.9427185-.591262-2.3650486-.084466-.6757281.084466-1.0980582.42233-1.4359223.42233-.6757282 1.520388-.4223301 1.520388-.4223301-.337864.5067961-.760194 1.4359223-.760194 2.2805825.084466.5067961.253398 1.4359223.591262 1.9427185h.84466c.253399-.6757282 0-1.1825243 0-1.6893204 0-.3378641 0-.6757282.084466-.9291262 0-.2533981.591263.4223301.591263.4223301s.42233-.5067962.42233-.9291263c0-.337864-.675728-.253398-.760194-.5067961-.084466-.3378641.253398-1.0980582.253398-1.0980582.675728-.4223301 1.182524-.3378641 1.435922-.3378641.337864 0 .42233.084466.84466.084466.337864 0 .42233-.6757281.42233-.9291262.084466.084466.42233.3378641.591262.3378641.337864.084466.42233.084466.760195.253398.42233.2533981.84466.4223301 1.351456.8446602v-.084466c-.084466-.4223301.084466-.9291262-.253398-1.1825243 0 0-.591262-.4223301-1.013592-.6757281-.253399-.2533981-.591263-.2533981-.675729-.4223301-.084466-.084466-.084466-.2533981-.084466-.4223301 0-.2533981.084466-.5067961.253398-.5067961.253398-.084466.337865 0 .760195.253398.42233.2533981.84466.5067961 1.182524.7601942 0 0 .084466.2533981.084466.084466.42233-.253398.42233-.3378641.42233-.9291262-.42233-.5067961 0-.6757281-.675728-1.0980582-.253398 0-1.435922-.4223301-1.435922-.4223301 0-.2533981.337864-.7601942.337864-.7601942.084466-.084466.337864-.084466.42233.084466.675728.4223301 1.098058.4223301 1.773786.6757282.084466-.3378641.084466-.5067962-.084466-.7601942-.253398-.3378641-.591262-.6757282-.760194-.7601942-.42233-.084466-.675728-.253398-1.013592-.3378641 0-.337864-.084466-.6757281-.253398-1.0980582 0-.2533981.253398-.084466.42233-.084466.42233-.0844661 2.280582.5067961 2.280582.5067961 0-.4223301-.084466-.7601942-.337864-.9291262-.253398-.2533981-.42233-.4223301-1.013592-.6757282-.760194-.253398-1.435922-.084466-1.942719-.4223301-.42233-.4223301-.591262-.5067961-.675728-.9291262.337864-.084466.844661-.2533981 1.182525-.2533981.591262 0 .84466-.084466 1.520388.0844661.253398.084466 1.013592.7601941 1.351456.7601941 0 0-.253398-.8446602-.42233-1.1825242-.337864 0-.84466-.6757282-1.098058-.7601942-1.098058-.4223301-1.351456-.2533981-1.942719-.084466-.337864.084466-.675728 0-1.013592 0-.084466-.2533981.253398-.5067961.084466-.7601942 0-.084466-.42233-.2533981-.42233-.4223301 0 0 1.773787-.2533981 2.449515-.084466.253398.084466.84466.5067961 1.098058.5067961 0 0 .253398-.7601942-.084466-1.4359223-.506796-.0844661-1.098058 0-1.520388-.0844661-.422331-.084466-.844661 0-1.182525 0s-.675728-.084466-1.013592-.084466c-.253398-.3378641-.337864-.6757281-.337864-.9291262 0 0 2.787379-.084466 2.956311-.253398-.084466-.0844661-.337864-.2533981-.42233-.4223301-.422331-.7601942-.760195-.8446602-1.351457-.8446602-.337864 0-1.098058.337864-1.520388.253398 0-.8446602.42233-1.6048543 1.098058-1.6048543 1.351456 0 2.618447.5067961 3.716505 1.6893203 2.787379 2.7873787 4.223301 8.1087379 4.223301 11.8252428 0 1.6893203-.253398 3.2941747-.42233 4.645631.337864.084466.506796.084466.84466.084466.337864-1.2669902.675728-3.0407767.675728-4.645631.084466-5.7436893-1.858252-10.3893204-4.307767-12.923301zm-21.116505-8.1932039c-.084466.084466-.253398.3378641-.253398.4223301-.253398.3378641-.506796.5067961-.337864.8446602.084466.4223301.084466.8446602.42233 1.1825243s.760195.253398 1.182525.5067961c0 0-.337864-1.4359223-.506796-2.0271845-.084466-.4223301-.337865-.5912621-.506797-.9291262zm13.514564 13.5145631c-.084466-.337864-.422331-.4223301-.675729-.6757281 0 0-1.435922-.5067961-1.68932-.5067961-.253398.084466.591262.5067961.675728.7601941.42233.4223301 1.520388 1.4359224 1.520388 1.4359224zm-10.473787-7.0951456c.337864 0 .591262.2533981.760194.2533981 0-.3378641-.084466-.5067962-.253398-.8446602-.084466-.5067962-.337864-.8446602-.42233-1.1825243 0-.3378641 0-.5067961-.084466-.7601942-.084466 0-.253398 0-.337864-.084466-.337864 0-.760194-.084466-.760194-.084466 0 .3378641.084466.8446602.084466 1.1825243 0 .084466.42233 1.0980582.591262 1.1825242.084466.1689321.253398.2533981.42233.3378641zm19.173787 17.568932c0-.084466-.337865-.337864-.422331-.337864 0-.0844661-.084466-.5067962-.253398-.6757282-.253398-.084466-.253398-.2533981-.42233-.2533981 0 .0844661 0 .2533981-.084466.4223301 0 .2533981-.253398.3378641-.084466.5067962.084466.253398.253398.253398.42233.337864.084466.0844661.42233.9291263.591262 1.0980583 0 0 0-.6757282.253399-1.0980583zm-8.446602-5.9126213c.42233-.3378641.506796-.9291262.675728-1.2669903.084466-.3378641-.084466-.9291262-.253398-1.1825243-.337864 0-.506796-.253398-.760194-.253398-.253399 0-.337865-.5067962-.675729-.4223301.084466.253398.337864 1.2669903.42233 1.5203883.168932.084466.591263.8446602.591263 1.6048544zm11.740776 9.2067961s-.084466.3378641-.253398.5067961c-.253398.5067961-.337864.7601942-.337864 1.0980583.337864.253398.42233.084466.84466.084466.253398 0 .42233.084466.591262.084466.253399-.084466 0-.3378641 0-.4223301-.084466.084466-.506796-.9291262-.84466-1.3514563zm-18.582524-15.8796117s-1.351456-.7601941-1.520388-1.0980582c-.337864 0-.337864 0-.675728.3378641-.253399 0-.337865.084466-.422331.337864.337864.2533981.422331.3378641.760195.5067962.084466.084466.253398.084466.591262 0h.84466c.168932 0 .42233.084466.42233-.0844661zm-2.956311-2.3650485c-.084466-.2533981-.337864-.6757282-.42233-.7601942-.084466-.253398-.253398-.4223301-.337864-.5067961s-.506796 0-.760194 0-.337864 0-.591262.084466c.253398.2533981.42233.9291262.591262.9291262.084466.2533981.084466.3378641.337864.4223301.591262.0844661 1.013592 0 1.520388.2533981.168932-.3378641-.253398-.3378641-.337864-.4223301zm8.362136 8.4466019c0-.337864-.084466-.6757281-.337864-.8446602-.084466-.337864-.253398-.7601941-.253398-.9291262-.084466-.253398-.591262-.8446602-.760194-1.1825242-.253398-.2533981-.253398-.7601942-.337864-1.0980583l-1.351456.2533981c.675728.8446602 1.182524 1.6893204 1.520388 2.6184466.084466.337864 1.098058 3.5475728 1.098058 3.5475728.337864-.084466-.084466-1.6893204 0-1.8582524.168932-.2533981.168932-.3378641.42233-.5067962zm-4.307767-3.7165048c0-.9291262-.253398-.9291262-.675728-1.4359223 0 0-.337864.6757281-.591262.9291262.42233.4223301.591262.9291262.591262.9291262.42233-.3378641.42233-.2533981.675728-.4223301zm15.372816 14.6970874s-.42233 0-.591262 0c-.253398-.0844661-.337864-.0844661-.42233 0-.337865.337864-.337865.8446602-.591263 1.1825242h1.351457c.253398-.253398.42233-.337864.42233-.7601941.084466-.0844661.084466-.2533981-.168932-.4223301zm-14.021359-12.3320389s-.253398-.4223301-.253398-.5067961c-.084467-.253398-.253399-.5067961-.591263-.6757281 0-.0844661-.084466.4223301-.253398.6757281-.084466.2533981-.084466.084466-.337864.5067961.253398.3378641.337864.5067961.591262.8446602 0 .084466.337864.5067961.337864.5067961s.422331-.8446602.422331-1.0980582c.084466-.084466.084466-.168932.084466-.2533981zm-20.947573-9.7135922c.337864 0 .675728-.3378641 1.013592-.4223301.675728-.2533981 1.182524-.4223301 1.858252-.5067961.253398-.084466.253398-.3378641.253398-.5067961.084466-.2533981.084466-.2533981.084466-.5067961 0-.0844661-.42233-.2533981-.675728-.6757282-.253398-.3378641 0-.6757282-.084466-.6757282-.337864.2533981-.760194.4223301-.84466 0-.084466-.337864-.084466-.7601941.253398-.8446602 1.098058-.42233 2.280583-.42233 3.378641 0 .253398 0 .337864.2533981.337864.4223301.084466.2533981 0 .4223301-.253398.6757282-.337864.084466-.675728-.3378641-.675728 0s-.253398.7601942-.760194.9291262c-.084466.084466 0 .4223301.084466.7601942 0 .084466 0 .3378641.084466.3378641.42233.084466 1.098058.253398 1.435922.4223301.42233.253398 1.182524.8446602 1.351456.7601941.337864-.253398.42233-.5067961.675728-.7601941 1.182525.5067961 2.196117.8446602 3.716505 1.8582524.253398 0 .253398-.4223301.253398-.6757282-.591262-.337864-2.196116-1.1825242-2.449514-1.2669903-.42233-.084466-.675728-.337864-1.098058-.4223301 0 0 0-.5067961 0-.8446601.760194.253398 2.280582.337864 3.885436 1.1825242.084466-.3378641.337865-.5067961.253399-.6757281-1.773787-.8446602-3.040777-1.1825243-4.223301-1.1825243 0-.084466-.253398-.2533981 0-.3378641.337864-.253398.42233-.3378641.591262-.4223301.337864-.4223301.591262-.8446602.675728-1.2669903.337864-.6757281.675728-.4223301.84466-1.8582524-.337864 0-.42233.2533981-.760194.3378641.084466-.3378641.253398-.6757282.253398-.9291262.084466-.67572819.337864-1.09805828.337864-1.85825246.337864-.08446602.84466-.4223301 1.013592-.84466019 0-.08446602 0-.4223301.084466-.8446602 0-.67572815.084466-1.18252427-.084466-1.60485437 0-.08446601-.760194-1.18252427-1.351456-1.52038835-.760194-.33786407-1.098058-.25339805-1.68932-.08446601-.675729 0-1.520389.67572815-1.520389 1.85825242-.675728 0-1.942718.08446602-2.787378.76019418-.675729-.33786408-1.182525-.4223301-1.773787-.50679612-.337864 0-.675728 0-1.013592 0-.084466-.4223301-.337864-.84466019-.760194-1.18252427-.591262-.33786408-1.182525-.76019418-1.942719-.76019418-.337864 0-.675728-.08446602-1.013592.08446602-.337864.25339806-.84466.4223301-1.013592.8446602-.253398.50679611-.42233.92912621-.42233 1.52038835 0 .50679611.337864.92912621.675728 1.52038835.084466.25339806.253398.25339806.42233.33786407.084466 0 .591262.25339806.675728.33786408s-.084466.4223301-.084466 1.09805825c0 .50679612 0 .50679612.084466.92912623 0 .4223301.084466.8446602.253398 1.1825243-.337864 0-.591262-.3378641-.760194-.0844661 0 .2533981.253398.7601942.42233 1.1825243.591262.5067961 1.098058 1.0980583 1.435922 1.6893204 0 .084466 0 .3378641.084466.3378641-.760194.084466-1.520388.084466-2.280582.3378641-.675728.253398-1.435922.5067961-2.111651.8446602 0 .42233.084466.7601941.084466.7601941.084466 0 1.098059-.5067961 1.942719-.7601941 1.435922-.4223301 2.196116-.3378641 2.196116-.3378641.084466.253398.253398.5067961.084466.6757281-1.351456.5067961-2.618446 1.1825243-3.885436 1.9427185.084466.253398 0 .5067961.253398.7601941 1.098058-.6757281 2.618446-1.4359223 3.716504-1.8582524.422331-.084466.422331 0 .675729 0 .168932-.084466.337864.3378641.591262.3378641zm7.010679-1.5203883c-.42233-.0844661-.760194-.4223301-1.351456-.4223301 0-.3378641 0-.3378641.084466-.4223301.675728-.0844661 1.013592.084466 1.351456.253398.084466.084466-.084466.5912622-.084466.5912622zm1.266991-6.58834956c-.084466.25339805-.337864.33786407-.591262.42233009-.084466 0-.253399.25339806-.253399.33786407-.253398.3378641-.591262.4223301-1.013592.4223301-.253398 0-.675728 0-.84466-.4223301 0 0 .084466 1.2669903.084466 1.6048544 0 .084466.084466.084466.084466.084466.42233.084466.591262.5067961.760194.7601942 0 0 .084466.084466.253398.084466.42233.3378641 1.435923.7601942 1.013593.7601942 0 .253398-.337865.7601941-.422331.7601941-.337864-.337864-.84466-.5067961-1.351456-.7601941-.084466-.2533981-.253398-.4223301-.337864-.6757282-.253398-.253398-.337864-.253398-.675728-.4223301 0-.7601942-.084466-.7601942-.084466-1.5203883 0-.0844661-.253398-1.26699033-.253398-1.26699033 0-.08446601.337864-.42233009.675728-.50679611 0 0 2.11165 0 3.040777.08446602.084466 0 0 .25339806-.084466.25339806zm-.675728-4.56116505c.337864-.33786408.760194-.4223301 1.182524-.33786408.591262.08446602.675728.25339806.84466.4223301.337864.42233009.253398 1.26699029.084466 1.85825242-.084466.33786408-.42233.50679612-.760194.50679612-.591262-.67572815-1.098058-1.09805825-1.858253-1.26699029-.084466-.4223301.253398-.84466019.506797-1.18252427zm-2.111651 2.1961165c.253398 0 2.111651.4223301.84466.92912622-.253398.25339805-.760194.08446602-1.351456.08446602 0-.25339806 0-.67572816-.253398-.67572816-.253398-.25339806-.591262-.25339806-.591262-.4223301-.253398-.42233009.84466-.08446602 1.351456.08446602zm-4.476699.4223301c.337864-.25339806.675728-.4223301.84466-.4223301.253398-.08446602.675728-.25339806.675728 0 0 .4223301-.337864.67572816-.675728 1.09805825-.253398.33786408-.337864.08446602-.84466.08446602-.084466 0-.591262 0-.591262 0 0-.33786407.253398-.50679611.591262-.76019417zm-3.294175.08446602c-.253398-.25339806-.675728-.50679612-.84466-.92912621-.337864-.4223301-.253398-.8446602-.253398-.92912622.253398-.67572815 1.013592-.84466019 1.435922-.92912621.253398 0 .42233 0 .760194.25339806.422331.25339805.675729.25339805.844661.92912621 0 .08446602 0 .25339806-.084466.25339806 0 0-.675728.4223301-.844661.67572815-.591262.16893204-.760194.67572816-1.013592.67572816zm1.858253 5.49029129c.253398-.3378641.675728-.5067961 1.013592-.6757282.42233-.084466.337864-.9291262.337864-1.0980582.084466-.2533981 0-.5067962 0-.7601942-.253398.084466-.253398 0-.675728.084466-.42233 0-.675728-.2533981-.84466-.4223301-.253398-.25339805-.760195-.67572814-1.013593-1.09805824.506797-.08446602 1.013593-.08446602 1.520389-.08446602h1.435922c.337864.08446602.591262.33786408.591262.50679612 0 .08446601-.084466.76019414-.084466.84466014-.084466.6757282-.084466.8446602-.253398 1.8582525v.3378641c-.084466.253398-.591262.337864-.760194.5067961-.084466.337864-.084466.5067961-.42233.6757281-.337864.084466-.591262.4223301-.760194.3378641-.42233-.168932-.337864-.6757282-.084466-1.0135922zm0 2.3650485s.42233-.084466.760194-.084466c.253398 0 .42233 0 .675728.084466-.084466.084466-.591262.3378641-.591262.3378641-.253398.084466-.337864.2533981-.675728.3378641-.084466-.2533981-.168932-.6757282-.168932-.6757282zm11.571844 5.1524272c.337864.4223301.675728.7601942 1.013593 1.0980583.084466.253398.42233.253398.675728.253398h1.098058c.337864-.084466.591262-.084466.760194-.3378641-.42233-.253398-1.013592-.4223301-1.435922-.6757281-.42233-.2533981-.760194-.4223301-1.098058-.7601942-.253399 0-.337865.084466-.422331.084466-.337864.084466-.42233.2533981-.591262.3378641zm4.814563 3.6320388h.591263c.253398 0 .253398-.4223301 0-.4223301-.760195-.253398-1.435923-.4223301-1.858253-1.0980582-.084466.084466-.760194.3378641-1.013592.5067961 0 0 .253398.5067961.760194 1.0980583.337864.337864.929126.168932 1.520388-.0844661zm14.950486 15.7106796c-.084466.3378641-.253398.5067962-.42233.7601942.084466.084466.337864.084466.42233.084466h1.098058c.084466-.084466.084466-.4223301.253398-.6757281 0-.2533981.084466-.4223301.084466-.7601942 0 0-.253398 0-.675728 0-.337864.084466-.591262.2533981-.760194.5912621zm-8.784466-9.4601941c-.084466-.2533981-.253398-.5067961-.337864-.7601942 0-.084466 0-.3378641-.084466-.6757282 0 0-.760194.5067962-.84466.6757282.42233.5067961.253398.8446602.337864 1.2669903 0 .253398.42233.3378641.591262.6757281 0 .0844661-.253398 1.0980583-.253398 1.0980583.591262-.8446602.591262-1.9427185.591262-2.2805825zm5.743689 5.7436893c-.591262 0-1.182524.6757281-1.68932 2.7029126-.084466.7601942-.253398 1.4359223-.084466 1.8582524l1.013592.0844661c.253398-.3378641.253398-.8446602.42233-1.2669903 0-.2533981.253398-.2533981.42233-.2533981.253398.084466.675728.6757282.84466.8446602.084466-.2533981.337864-.6757282.337864-.9291262 0-.084466-.337864-.3378641-.42233-.3378641-.337864-.253398-.591262-.4223301-1.013592-.4223301-.084466-.4223301.506796-.9291262.506796-.9291262.760194 0 1.520389.8446602 1.520389.8446602.253398-.084466.337864-.4223301.591262-.6757282-.591262-1.2669903-1.773787-1.5203883-2.449515-1.5203883zm-8.868932-7.6019418c-.084466.3378641-.42233.5067962-.42233.9291263 0 0 .591262.5067961.675728.8446602.084466.253398 0 1.1825242.084466 1.4359223.337864-.3378641.591262-.4223301.591262-.8446602-.084466-.084466-.253398-.9291262-.337864-1.6048544 0-.168932-.337864-.5067961-.591262-.7601942zm-9.882524-7.6864077s.084466.5067961.337864 1.0980582c.084466.2533981.337864.4223301.42233.4223301.253398.084466.675728.2533981 1.013592.2533981 0 0 0-.084466 0-.2533981-.337864-.3378641-.760194-1.0980582-.760194-1.2669903-.253398-.084466-.253398-.084466-.506796-.084466-.168932-.168932-.42233-.168932-.506796-.168932zm5.321359 4.8145631c-.253398-.2533981-.42233-.4223301-.760194-.6757282-.42233-.084466-.675728-.337864-.84466-.7601941-.084466-.2533981-.253398-.4223301-.42233-.6757282-.253398 0-.337864.084466-.506797.2533981-.253398.253398-.675728.253398-.84466.5067961.084466.253398.253398.4223301.42233.6757281.084466.084466.253398.3378641.675729.5067961.760194.4223301 1.013592.5067962 1.013592.5067962.506796.168932 1.26699-.3378641 1.26699-.3378641zm-22.130097-15.62621361c.253398-.33786408.253398-.33786408.42233-.50679612.42233-.33786407.675728-.50679611 1.182524-.92912621.084466-.25339806.253398-.08446602.591262-.33786408.084467-.08446602.253399-.25339805.253399-.33786407 0-.25339806-.084466-.4223301-.253399-.67572816-.084466-.25339806-.337864-.76019417-.337864-.84466019 0-.8446602.084466-1.09805826.253398-1.85825243-.42233-.08446602-1.013592-.08446602-1.182524.33786408-.253398.33786407-.253398.67572815-.253398.92912621 0 .50679612.084466.92912621.253398 1.60485437-.42233.33786408-.675728.50679612-1.098058.76019417 0 .67572816.168932 1.85825243.168932 1.85825243zm16.808738 14.10582521c-.42233-.6757281-.591262-1.2669903-.591262-1.4359223-.253398-.2533981.253398-.9291262-.337864-.9291262-.253398-.084466-.844661-.3378641-.844661-.3378641-.084466.3378641-.084466.9291262 0 1.2669903 0 .3378641.506797 1.2669903.760195 1.4359223.084466.0844661.675728.0844661.760194.0844661.168932-.0844661.253398-.0844661.253398-.0844661zm-3.378641-3.9699029c.253398-.253398.42233-.6757281.42233-.7601942.253398-.4223301.253398-.9291262.253398-1.4359223-.84466-.5067961-1.942718-.6757281-3.040776-.6757281-1.013593 0-2.111651.084466-3.209709.8446602.084466.4223301.253398.7601941.42233 1.1825242.084466 0 .253398.2533981.337864.2533981.253398-.2533981.42233-.5067961.760194-.6757282v.4223301c0 .3378641 0 .5067961.084466.8446602 0 .3378641.337864.3378641.760194.3378641s.591262-.7601942.591262-.8446602c0 0 .084466.4223301.760195.7601942 0 0 .760194 0 .760194-.084466.084466-.5067962.253398-.6757282.084466-1.0980583 0 .084466.675728.5067961 1.013592.9291262zm4.307767 7.0106796c.42233.3378641 1.351456.2533981 2.111651.0844661-.422331-.3378641-.591263-.5067962-.760195-.7601942-.337864-.2533981-.506796-.3378641-1.013592-.7601942-.42233 0-.84466 0-1.435922 0 .168932.5912621.253398.9291262 1.098058 1.4359223zm6.419418 3.9699029c-.084466-.084466-.337865-.253398-.591263-.337864v.4223301c0 .4223301.084466.5067961.084466.7601941 0 .2533981.337865 1.6893204.337865 2.1116505.591262.084466.591262.5067961.84466.7601942 0 0-.253398-1.2669903-.253398-2.8718447.168932-.084466-.168932-.7601941-.42233-.8446602zm-23.481554-19.1737864c.084466-.084466 1.351456-.9291262 1.435922-1.0980582.253399-.2533981.337865-.084466.422331-.3378641 0-.67572815.253398-.67572815.084466-.84466019-.084466-.25339805-1.013593 0-1.182525 0-.591262.08446602-1.520388.42233009-1.520388.67572819-.084466.337864-.084466 1.0980582-.084466 1.1825242.084466.3378641.084466.6757282.253398.9291263.253398-.2533981.337864-.3378641.591262-.5067962zm12.754369 10.1359224c-.337864.253398-.506796.337864-.506796.5067961 0 .4223301.084466.8446602.084466 1.0980582 0 .3378641 0 .5067962.084466.6757282.337864.084466.42233.084466.84466.3378641 0 .084466.42233.337864.42233.337864s-.253398-.9291262-.337864-1.4359223c0-.5067961 0-1.0980582 0-1.6893204-.42233.084466-.506796.1689321-.591262.1689321zm-1.435922.253398c-.42233.084466-1.351457.2533981-1.351457.5067961-.084466.3378641 0 .6757282 0 .8446602.084466.2533981.084466.4223301.084466.7601942 0 .2533981-.084466.4223301 0 .7601942.084466-.2533981.675729-.4223301.760195-.6757282.253398-.337864.42233-.5067961.591262-.8446602.084466-.337864 0-.8446602-.084466-1.3514563zm4.307767 5.9126214c-.337864-.2533981-.84466-.8446602-1.182525-1.1825243-.253398-.253398-.084466-.5067961-.337864-.7601942-.253398 0-.42233 0-.675728.0844661-.337864 0-.591262 0-.84466.084466.084466.253398.084466.4223301.337864.5067961.42233.4223301.42233.5067961.84466 1.1825243.084466.253398.675728.337864 1.098059.337864.168932 0 .591262-.168932.760194-.253398zm-17.062136-12.1631068c.253398-.3378641.84466-.9291262 1.182524-1.4359223.253398-.2533981.675728-.7601942 1.773786-1.2669903.084467-.4223301.253399-.7601942.253399-1.1825243-1.098059.3378641-1.858253.5067961-2.111651.7601942-.591262.337864-.760194.5067961-1.351456.8446602 0 .6757281 0 .6757281.084466.9291262zm10.558252 9.1223301c.337864-.3378641 0-.8446602 0-1.1825243-.084466-.3378641 0-.6757281-.084466-.9291262s-.337864-.3378641-.591262-.3378641-.760194-.3378641-.760194-.084466c-.591262 0-.084466.5067961-.084466.8446602 0 .4223301 1.098058 1.5203883 1.098058 1.5203883.168932.0844661.168932-.084466.42233.1689321zm-3.040776-1.6893204c.084466-.4223301.42233-.6757282.42233-1.4359223 0 0-.084466-.5067961-.253398-.7601942-.084466-.2533981-.253398-.4223301-.591263-.6757282-.084466 0-.337864-.253398-.42233-.084466 0 0-.084466.8446602-.253398.9291262.253398.3378641.42233.5067961.506796.8446602.337864.4223301.422331.8446602.591263 1.1825243zm-2.280583-3.3786408c-.084466-.253398-.42233-.3378641-.675728-.4223301-.253398 0-.42233.4223301-.42233.8446602 0 .2533981.084466.9291262.253398 1.2669903 0 .084466.253398.2533981.42233.3378641.337864.253398.675728.3378641 1.013592.5067961 0 0-.337864-.9291262-.42233-1.5203883-.168932-.2533981.084466-.6757282-.168932-1.0135923zm9.798058 11.6563107c.084466 0 .253398-.2533981.253398-.2533981-.084466-.4223301-.253398-.9291262-.337864-1.4359223 0 0-.337864-.253398-.675728-.253398-.253398 0-.42233-.0844661-.675728 0 .084466.337864.084466.5067961.253398.8446601.337864.5067962.760194.7601942 1.182524 1.0980583zm-14.950485-15.2883495v.5067961c0 .2533981.084466 1.4359223.084466 1.6893204.084466.3378641.084466.6757281.253398.9291262.084466.2533981.253398.4223301.253398.6757282 0 0 .253398-.0844661.337864-.3378641.337864-.3378641.42233-.6757282.675728-1.0980583-.084466-.7601941-.337864-1.4359223-.337864-1.6048543 0-.8446602.084466-1.0980583.253398-1.6048544-.506796.2533981-1.098058.5912621-1.520388.8446602zm10.81165 12.3320388c.337864-.084466.591262-.3378641.844661-.4223301.253398-.084466.42233-1.8582524.42233-1.8582524s-.675729.084466-.760195.2533981c-.084466 0-.591262 0-.760194.253398 0 .3378641 0 .6757282-.084466 1.0980583-.253398.337864-.760194.5067961-.760194 1.0980582 0 0 .42233.084466.591262.084466.168932-.168932.337864-.337864.506796-.5067961zm11.825243 10.8116505c-.253398.4223301-.42233.8446602-.42233 1.0980583h1.182524c.337864-.4223301.42233-.8446602.253398-1.5203884-.337864.084466-1.013592-.253398-1.013592.4223301zm.929126-4.9834951c-.253398-.0844661-2.280582-1.0980583-2.618446-1.0980583-.675729.084466-1.773787.084466-2.449515.4223301-.084466-.3378641-.253398-.8446602 0-1.1825243.084466-.253398 1.182524-.253398 1.520388-.253398 1.182525.084466 1.858253.3378641 2.196117.3378641.337864.337864.675728.337864.760194.337864 0 0-.084466-.6757281-.253398-.8446602-.42233-.253398-.84466-.337864-1.182524-.4223301-.591262-.253398-.760194-.337864-1.689321-.4223301-.337864 0-.337864.0844661-1.013592.0844661 0-.0844661.084466-.2533981.253398-.3378641.253398-.3378641.42233-.5067961.675728-.7601942h1.773787c.42233.084466.675728.2533981 1.182524.4223301.337864 0 0-.5067961 0-.8446602-.084466-.084466-.253398-.253398-.42233-.3378641-.42233-.084466-.760194-.253398-1.182524-.4223301-.337864-.084466-1.013593-.337864-1.520389-.253398-.591262.253398-.591262.084466-1.013592.3378641-.506796.7601941-.84466 1.6048543-1.182524 2.4495145 0 .2533981-.591262 1.5203884-.591262 1.6893204 0 .084466-.084466.3378641-.084466.3378641-.42233-.084466-2.449515-.4223301-2.956311.084466-.253398.2533981-.42233.4223301-.760194 1.0980583-.42233-.3378641-.760194-.4223301-1.182524-.4223301-.591263 0-1.182525.337864-1.520389.8446602 0 .084466-.84466 1.6893203-.760194 3.2097087.084466.8446602.42233 1.1825243.84466 1.8582524h1.182524c-.084466-.4223301-.337864-.9291262-.591262-1.6048543-.084466-.5067962.084466-1.5203884.253398-2.3650486 0 0 .337864-.2533981.675729-.3378641.253398-.253398.337864-.084466.675728-.084466.084466 0 .084466.084466.084466.084466-.42233.4223301-.42233.8446602-.591262 1.5203884 0 .3378641.42233 1.9427184.84466 2.7873786h.84466s-.253398-2.1116505-.084466-2.3650485c0-.4223301.084466-.7601942.253398-1.0980583.253398.084466.42233.084466.675728.2533981.337864.253398.337864.4223301.337864.7601942 0 .5067961 0 .6757281-.084466.9291262v.5067961c0 .5067961.084466.9291262.084466.9291262h.84466c0-.9291262.084466-.8446602.253399-1.4359223.084466-.4223301 0-.6757282.084466-.9291262 0-.2533981.084466-.4223301.253398-.5067962.337864-.253398.591262-.253398 1.013592-.084466 0 .3378641 0 .6757282-.084466.9291262-.084466.5067962-.253398 1.0980583-.42233 1.6048544 0 .084466-.084466.3378641-.253398.4223301h1.351456s.253398-.4223301.337864-.9291262c.337864.3378641.760194.084466 1.013592.084466.337864-.084466.591262-.4223301.760194-.6757281-.42233-.3378641-1.435922-.2533981-1.435922-.6757282-.253398-.7601942 0-.8446602 0-1.2669903 0-.6757282-.675728-.8446602-1.351456-.9291262-.253398-.084466-.675728-.084466-.84466-.084466-.253398.084466-.42233.4223301-.675729.4223301 0 0-.42233-.3378641-.760194-.4223301-.253398 0-.84466-.2533981-.84466-.2533981.084466-.253398.253398-.4223301.337864-.5067961s.42233-.4223301.591262-.4223301c.253398-.084466.591262 0 .760194.084466.506797.084466 1.013593.2533981 1.098059.2533981s.42233.253398.42233.253398c.337864-.253398.337864-.4223301.506796-.4223301.675728-.253398.84466-.337864 1.520388-.337864.591262 0 1.013593.9291262 1.351457 1.2669903.084466.253398.84466 1.1825242 1.351456 2.0271844.253398-.084466.337864-.3378641.591262-.3378641 0-.253398-.084466-1.0980582-.253398-1.1825242-.337864-.9291262-1.013592-1.1825243-1.013592-1.4359224.253398 0 .675728.2533981.84466.2533981.253398.084466.591262.2533981.84466.4223301.084466.084466.337864.2533981.42233.3378641.084466.4223301.084466.7601941.337864 1.1825242 0 .0844661 0 .2533981.084466.3378641.337864-.6757281.675729-.7601942.844661-1.2669903-.168932-.8446602-.760195-1.2669903-1.266991-1.6048543zm-14.021359-8.531068c0-.084466-.337864-.084466-.591262-.084466s-.42233.084466-.675728.084466c-.253398.3378641-.337864.6757282-.42233 1.0980583-.084466.337864-.337864.5067961-.42233.7601941 0 0 1.013592-.253398 1.182524-.253398.337864-.2533981.591262-.3378641.760194-.7601942.168932-.2533981.337864-.3378641.168932-.8446602zm-8.531068-3.7165049s.337864-.253398.337864-.4223301c.591262-.6757281 1.182524-1.1825242 1.351456-1.2669902-.253398-.5067962-.337864-.6757282-.675728-.9291263-.084466.0844661-.675728.4223301-.760194.6757282-.253398.084466-.42233.2533981-.591262.3378641 0 .253398.084466.3378641.253398.5067961-.084466.084466.084466.6757281.084466 1.0980582zm11.402913 10.2203884c-.084466-.084466-.084466-.3378641-.253398-.5067961-.253398-.6757282-.084466-.9291262-.253398-1.6048544 0 0-.675729 0-.844661 0-.253398.084466-.337864 0-.591262.084466 0 .4223301.084466.7601942.42233 1.2669903.42233.6757282 1.520389.7601942 1.520389.7601942zm-5.912622-7.8553398c-.253398 0-.337864 0-.675728 0 0 0-.253398.8446602-.253398 1.5203883-.084466.3378641-.253398.5067962-.253398.6757282-.253398.4223301-.337864.5067961-.506796 1.0980582.337864.0844661.675728-.084466.84466-.084466.253398-.084466.591262-.253398.675728-.3378641.084466-.084466.42233-.8446601.591262-1.0980582 0-.3378641 0-.6757282 0-.7601942-.084466-.253398 0-.6757281 0-.9291262-.084466-.3378641-.337864-.168932-.42233-.084466zm-4.223301-.5067961c.253398-.3378641.844661-.9291262 1.098059-1.1825243-.253398-.2533981-.337864-.5067961-.42233-.7601942-.422331 0-2.111651.6757282-2.111651.6757282.337864.5067961.591262 1.0980582.760194 1.6893204.253398-.1689321.506796-.2533981.675728-.4223301zm1.351457 2.4495145c.084466-.337864 0-.5067961.084466-.8446602 0-.253398 0-.7601941.084466-1.0980582-.253398-.084466-.675728.084466-1.013593.084466-.337864 0-1.098058 0-1.098058.084466.084466.2533981.084466.4223301.253398.6757282.084466.253398.253398.4223301.253398.9291262 0 .3378641.084466.6757282 0 1.0980582 0 0 1.435923-.7601941 1.435923-.9291262zm2.53398 2.9563107c-.591262-.4223301-1.435922-.8446602-2.787378-1.2669903-.337864-.084466-1.098059 0-1.435923 0-.84466 1.5203884-1.182524 2.8718447-1.858252 4.4766991-.084466.337864-.337864.9291262-.337864.9291262-.506796-.3378641-1.098058-.5067961-1.689321-.5067961-.84466 0-1.520388.337864-1.858252 1.1825242-.337864-.084466-.760194-.3378641-1.351456-.253398-.760195.084466-1.435923.5067961-1.773787 1.1825242-.337864.4223301-.42233.8446602-.337864 1.2669903-.591262.2533981-.84466.7601942-1.098058 1.1825243-.253398.8446602.591262 2.3650485.84466 2.7029126h1.098058c-.253398-.9291262-.675728-1.4359223-.337864-2.3650485.253398-.5067961 1.013593-.7601942 1.182525-.8446602 0-.4223301-.591263-.7601942-.422331-1.1825243.253399-.5067961.844661-.5067961 1.520389-.4223301-.084466.6757282-.253398 1.5203884-.337864 2.3650486-.084466.9291262.42233 2.4495145.42233 2.4495145h1.098058.084466c-.084466-.3378641-.253398-.6757281-.253398-.9291262-.084466-.3378641-.084466-.5067961-.084466-.8446602.084466-.4223301.084466-.8446602.084466-1.1825243 1.098058-.5067961.760194.2533981 1.013592.4223301 0 0 .42233-.9291262-.084466-1.4359223-.084466-.084466-.760194 0-.760194-.084466s.084466-.4223301.253398-.7601942c.253398-.4223301.337864-.5067961.591262-.8446602.084466-.084466.42233-.084466.84466 0 .084466 0 .675729.084466 1.013593.2533981-.084466.3378641-.591262.9291262-.675728 1.2669903-.422331 1.2669903-.422331 2.7873786-.337865 4.2233009h1.182525c0-.7601941-.084466-1.6048543 0-2.3650485.253398-.9291262.506796-1.0980583.675728-1.0980583.253398 0 .42233.2533981.591262.4223301.253398 1.0980583-.42233 2.0271845-.42233 3.0407767h.84466s.337864-.084466.42233-.4223301c.253398-.6757281.675728-1.2669902.760194-1.9427184.084466-.5067961-.084466-.9291262-.42233-1.6048544-.337864-.4223301-.675728-.7601941-1.435922-1.2669903-.253398-.4223301 0-.9291262 0-.9291262 0 .084466.42233-.084466.675728-.084466.84466.2533981 1.098058.2533981 1.520388.4223301.337865.084466.760195.3378641 1.098059.5067961.337864.2533981.675728.8446602 1.013592 1.6048544 0 0 .253398-1.4359223.253398-1.8582524-.42233-.4223301-.84466-.8446602-1.520388-1.1825243-.591262-.4223301-1.773787-.7601942-2.280583-.9291262 0 0 .253398-.3378641.253398-.5067961.675728-.0844661 1.435923-.0844661 1.773787 0 1.098058.337864 2.449514.9291262 2.95631 1.4359223 0 0 .253398-.4223301.253398-.6757282 0 0-1.520388-.9291262-1.435922-1.2669903-.42233-.337864-.760194-.6757281-1.182524-.7601941-.675728-.0844661-1.942719-.2533981-1.942719-.2533981s.337864-.4223301.675728-.7601942h.844661c.42233 0 1.520388.3378641 2.196116.6757282 1.013592.4223301 1.520389.7601942 1.689321.9291262.084466-.3378641.253398-.7601942.337864-.9291262-1.266991-.5067961-1.182525-.9291262-1.604855-1.1825243zm-2.027184 8.8689321c-.760194 0-.591262 1.1825242-.760194 1.6893203-.084466.0844661-.253398.3378641-.084466.4223301h1.68932s.084466-.9291262.084466-1.1825242c-.084466-.1689321-.42233-.7601942-.929126-.9291262z"/></g></svg>