<svg height="270" viewBox="0 0 480 270" width="480" xmlns="http://www.w3.org/2000/svg" xmlns:xlink="http://www.w3.org/1999/xlink"><defs><path id="a" d="m0 0h480v270h-480z"/><mask id="b" fill="#fff"><use fill="#fff" fill-rule="evenodd" xlink:href="#a"/></mask></defs><g fill="none" fill-rule="evenodd"><use fill="#ff6200" xlink:href="#a"/><path d="m221.140112 238c-4.267002 0-3.053198 6.602606-4.267002 9.603001-.611575.597868-1.241838 1.794393-.611575 2.396999h9.126891s.611574-5.397394.611574-6.593129c-.611574-1.206002-2.446297-4.210346-4.859888-5.406871zm11.082218-51.286128c-3.12614-2.474276-8.134663-4.954424-15.644925-7.438766-1.877586-.618989-6.257076 0-8.139459 0-5.018032 8.676743-6.876433 16.744563-10.636402 26.044489-.638707 1.871224-1.887178 5.593542-1.887178 5.593542-3.11167-1.856126-6.256994-3.094104-9.397523-3.094104-5.018115 0-8.768491 1.856127-10.636402 6.815584-1.863198-.618149-4.369899-1.856126-7.500753-1.247203-4.369815.629054-8.144172 3.113395-10.026637 6.830681-1.867936 2.475116-2.497001 4.959458-1.867936 7.444638-3.121303 1.242171-5.027699 4.345501-6.266615 6.820616-1.243721 4.959457 3.145312 13.655492 5.018094 15.516651h6.256986c-1.258064-5.583478-3.759944-8.06782-1.882382-13.651298 1.262942-3.10333 5.632758-4.340468 6.890904-4.968683 0-2.475115-3.140528-4.336275-2.492229-6.830681 1.234083-3.084039 4.989255-3.084039 8.749224-2.475116-.629032 3.732384-1.248555 8.686809-1.877587 13.646266-.629031 5.592704 2.506618 14.279512 2.506618 14.279512h6.252281.629032c-.629032-1.861159-1.25335-3.727351-1.25335-5.583478-.609848-1.865353-.609848-3.10333-.609848-4.973716.609848-2.475115.609848-4.959457.609848-6.806358 6.26179-3.112556 4.379408 1.227913 5.623166 2.465051 0 0 2.525885-5.577607-.614644-8.057755-.629114-.618988-4.384204 0-4.384204-.618988 0-.61815.629032-2.484342 1.248472-4.350534 1.267738-2.484341 1.887178-3.093265 3.135732-4.959457.614644-.613956 2.49223-.613956 5.013236 0 .619523 0 3.764847.618989 5.627963 1.237139-.629032 1.866191-3.130854 5.58851-3.740702 7.454702-2.501904 7.438766-2.501904 16.125574-1.887261 24.193394h6.876517c0-4.355566-.61944-9.315023 0-13.651298 1.248471-5.587671 3.116465-6.20666 3.76956-6.20666 1.229288 0 2.487434 1.237977 3.135733 2.494406 1.234083 6.18737-2.516293 11.780074-2.516293 17.363552h5.008523s1.887178-.624021 2.506618-2.480148c1.243758-3.731545 3.750376-7.46309 4.389-11.17115.60993-3.10333-.638624-5.587671-2.525802-9.304958-1.863198-2.494406-3.740784-4.350533-8.120192-7.453863-1.258147-2.475116 0-5.573413 0-5.573413 0 .618149 2.492229-.629054 3.750376-.629054 5.00844 1.247203 6.256994 1.247203 8.758816 2.485181 1.877586.628214 4.374612 1.861159 6.256994 3.108362 1.877586 1.237138 3.759968 4.959457 5.637554 9.299926 0 0 1.248555-8.062788 1.248555-10.547129-2.487434-2.470083-5.008523-4.955263-8.768491-6.820617-3.145242-2.48518-10.007371-4.341307-13.133428-5.593542 0 0 1.248471-1.856127 1.248471-3.093266 3.759969-.628214 8.139459-.628214 10.017045 0 6.266587 1.866192 13.767339 5.592704 16.90762 8.06782 0 0 1.238714-2.475116 1.238714-3.722319 0 0-8.758486-5.582639-8.138963-7.448831-2.497109-1.856127-4.379491-3.722319-6.876517-4.345501-3.759968-.608923-11.270313-1.227912-11.270313-1.227912s1.882383-2.475116 3.769561-4.350533h5.008523c2.492229 0 8.749223 1.875417 12.4996 3.731544 5.647312 2.470083 8.758981 4.336275 9.397357 5.573414.610261-1.865353 1.248637-4.335436 1.887013-5.573414-6.895618-2.484341-6.276261-4.978748-8.77767-6.216725zm-13.488275-16.326504c.625645-1.865655 0-3.109701.625645-4.98525 0-1.243221.000084-4.357869.6403-6.224349-1.265945-.631503-3.817319.622435-5.689592.622435-1.896503 0-6.310408 0-6.310408.621611.625644 1.253938.625644 2.493037 1.251373 3.737082.630558 1.243221 1.256287 2.487267 1.256287 5.616754 0 1.865656.645129 3.741205 0 6.224349 0 0 8.226395-4.358693 8.226395-5.612632zm-8.814716-13.744761c1.213337-1.777628 4.839377-5.319307 6.080661-6.506788-1.241284-1.179495-1.824624-2.957123-2.435991-4.135819-2.431333 0-11.564009 3.536888-11.564009 3.536888 1.829362 2.961116 3.052015 5.927023 4.265353 9.463112 1.222653-.589348 2.431333-1.178696 3.653986-2.357393zm24.550056 2.060701h-3.796417s-1.260727 4.828579-1.260727 8.455848c-.625408 1.81822-1.275131 3.024531-1.275131 3.62727-1.260643 2.41679-1.886135 3.020363-3.13712 6.044894 1.876477.602739 3.786843-.603573 5.037743-.603573 1.260643-.602738 3.156606-1.215481 3.806413-1.809049.625239-.611909 2.521286-4.847753 3.155844-6.04406v-4.230009c-.634558-1.215481 0-3.632271 0-5.441321-.634558-1.215482-1.905367-.612743-2.530605 0zm32.530605 44.296692c-.582027-.599447-.582027-1.807029-1.186998-2.996446-1.164054-3.614058-.572849-5.417138-1.164054-9.003554h-4.706692c-1.182409.58997-1.773614 0-2.942256.58997 0 2.406476.586616 4.200079 2.351052 7.206002 1.755258 3.604581 7.648948 4.204028 7.648948 4.204028zm-63.974486-57s1.989848-1.187805 1.989848-2.403252c3.321355-3.594309 7.30605-6.604878 7.984638-7.18374-1.346926-3.019512-2.005097-3.617886-4.005111-5.413008-.658172.598374-3.979527 2.393496-4.658115 3.599187-1.31126.598374-2.647935 1.196748-3.336774 1.813821 0 1.196748.688839 1.785366 1.33676 2.991057 0 1.196748.688754 4.192683.688754 6.595935zm48.71566 21.562082c0-.562082-1.861281-.562082-3.083779-.562082-1.245312 0-2.457583.562082-3.717842.562082-1.231151 1.67089-1.8424 3.332566-2.457583 5.556324-.611249 1.666283-1.851841 2.773554-2.48197 3.881594 0 0 5.569683-1.10804 6.800834-1.10804 1.856561-1.107271 3.079059-1.670122 4.319651-3.89004.620689-1.670122 1.245312-2.215312.620689-4.439838zm79.72631 48.511569c-1.247727-.613695-13.194265-6.06147-15.078218-6.06147-3.773675.60385-10.042805.60385-13.835435 2.426065-.612326-1.822215-1.233717-4.85295 0-6.671063.621392-1.217545 6.92019-1.217545 8.799198-1.217545 6.92019.613695 10.683976 1.812369 12.567929 1.812369 1.888898 1.827138 3.782741 1.827138 4.404956 1.827138 0 0-.622215-3.639507-1.262562-4.848027-2.501224-1.20852-5.026347-1.813191-6.915245-2.41704-3.137449-1.218366-4.386001-1.832061-9.411524-2.426886-1.874888 0-1.874888.594825-5.648563.594825 0-.594825.622216-1.20852 1.258441-1.81319 1.232893-1.808268 2.515234-3.016788 3.767906-4.235153h10.03374c2.529244.60467 3.772851 1.218365 6.915245 2.426885 1.874064 0 0-3.02089 0-4.85295-.622215-.613695-1.253496-1.218366-2.501224-1.822215-2.525123-.604671-4.414021-1.209341-6.930079-2.426886-1.869943-.594825-5.628784-1.808267-8.770354-1.204418-3.151459 1.204418-3.151459.609593-5.686472 1.818113-3.122616 4.249101-5.006569 9.083181-6.886401 13.941875 0 1.20852-3.146515 8.474408-3.146515 9.691953 0 .60467-.612326 1.822215-.612326 1.822215-2.530068-.613695-13.835435-2.426065-16.96794.594825-1.242783 1.20852-2.515234 2.426885-4.414021 6.057368-2.505345-1.808268-4.395067-2.421963-6.900411-2.421963-3.152284 0-6.90618 1.818113-8.790133 4.839003 0 .623541-5.026347 9.702619-4.404132 18.18113.631281 4.858693 2.520179 6.671063 5.025523 10.311391h6.925135c-.631281-2.421963-1.908677-5.452698-3.151459-9.097949-.631281-3.025812.63128-8.474408 1.242782-13.322436 0 0 1.908677-1.20934 3.773675-1.823035 1.272452-1.20852 1.883953-.613696 3.773675-.613696.640347 0 .640347.613696.640347.613696-2.530069 2.426885-2.530069 4.848848-3.14157 8.484253 0 1.813191 2.501223 10.910319 5.006568 15.759167h5.045302s-1.262562-12.123761-.631281-13.332281c0-2.426886.631281-4.240076 1.253497-6.062291 1.257617.60467 2.501223.60467 3.763785 1.20852 1.879008 1.22739 1.879008 2.426885 1.879008 4.240076 0 3.030735 0 3.634585-.612325 5.461722v3.031556c0 3.030735.612325 5.452698.612325 5.452698h5.045303c0-5.452698.602436-4.848848 1.243607-7.879583.63128-2.431808 0-3.630483.63128-5.452698 0-1.218366.621392-2.426886 1.272452-3.031556 1.879008-1.20852 3.13168-1.20852 5.637849-.594825 0 1.803345 0 3.626381-.612326 5.448596-.650236 3.025812-1.271627 6.057368-2.534189 9.088103 0 .60467-.612326 1.813191-1.253496 2.421963h7.542405s1.242783-2.421963 1.888898-5.452698c1.855109 1.81237 4.390122.60385 5.637849.60385 1.903732-.60385 3.156404-2.426065 4.395066-3.635406-2.491334-1.827137-8.177806-1.22739-8.177806-3.639507-1.233718-4.240076 0-4.834901 0-7.270811 0-3.630483-3.744007-4.848848-7.498727-5.462544-1.271627-.594824-3.787685-.594824-5.025523-.594824-1.272452.594824-2.544903 2.426885-3.768731 2.426885 0 0-2.530068-1.832061-4.423911-2.426885-1.247727 0-5.026347-1.217545-5.026347-1.217545.641171-1.199495 1.262562-2.417861 1.884777-3.031556.621392-.594825 2.529245-2.41704 3.14157-2.41704 1.272452-.599748 3.146515 0 4.423911.60467 3.117671.60385 5.647739 1.217545 6.260065 1.217545.640346 0 2.534189 1.20852 2.534189 1.20852 1.850988-1.20852 1.850988-2.426065 3.11355-2.426065 3.763785-1.204418 5.035412-1.818113 8.790133-1.818113 3.156404 0 5.676583 5.462544 7.541581 7.275734.640346 1.198674 5.026347 6.661218 7.555591 11.505143 1.243607-.60467 1.884777-1.81319 3.132505-1.81319 0-1.20852-.626336-6.056548-1.247728-6.661218-1.884777-5.467466-5.647738-6.675986-5.647738-7.884506 1.233717 0 3.762961 1.20852 5.006568 1.20852 1.262562.613695 3.142394 1.20852 5.016458 2.426885.64117.604671 1.898787 1.218366 2.530068 1.822216.621391 2.426885.621391 4.240075 1.883953 6.662038 0 .60385 0 1.217545.622216 1.83124 1.888898-3.64443 3.772851-4.253203 5.026347-7.284758-1.253496-5.457621-4.404956-7.874661-7.532516-9.682929zm-4.898526 27.490433c-1.282001 2.574864-2.568958 5.138947-2.568958 6.435916h7.050179c1.930435-2.569059 2.564827-5.143094 1.277044-9-1.90648.641021-5.758265-1.301944-5.758265 2.564084zm-67.67187-60.962588c1.781693-.598406 2.95093-1.804976 4.7366-2.403382 1.169237-.598407 2.366312-10.198114 2.366312-10.198114s-3.544298.58865-4.151982 1.196813c-.594163 0-2.95093 0-4.124939 1.196813 0 1.80091 0 3.59613-.584618 5.999512-1.187531 1.804976-4.138461 3.001789-4.138461 6.00439 0 0 2.366312.602472 2.95093.602472 1.187531-.602472 2.361539-1.800098 2.946158-2.398504zm-60.897088-71.364404v3.016109c0 1.216027.654769 7.865345.654769 9.674515.635111 1.819083.635111 3.629079 1.260392 5.443205.669637 1.206939 1.304747 2.413053 1.304747 3.629079 0 0 1.28988-.593969 1.915161-1.819083 1.930029-1.809996 2.584798-3.624122 3.864931-6.037175-.645022-4.232135-1.934902-7.865345-1.934902-9.071458 0-4.835192.654769-6.051218 1.28988-9.072284-2.555228 1.201983-5.77018 3.021066-8.354978 4.237092zm84.783315 86.762908c.6038 0 1.216685-1.143303 1.216685-1.143303-.612885-2.298892-1.216685-5.155998-1.801487-7.451051 0 0-1.82544-1.151749-3.608755-1.151749-1.202643 0-2.400331-.571268-3.589758 0 .585628 1.732231.585628 2.88398 1.189427 4.598551 1.787445 2.281232 4.183646 3.423767 6.593888 5.147552zm-55.784829-65.578613c-.593893-1.211106-2.39391-1.816246-3.586239-2.421387-1.206124 0-2.412247 2.421387-2.412247 4.851843 0 1.210281.61223 5.470999 1.206123 7.287245 0 .605141 1.206124 1.220175 2.398453 1.834384 1.800017 1.201213 3.590782 1.806353 5.395424 3.026528 0 0-1.804642-5.456984-2.398453-8.497527-.603061-1.816246.593811-4.255771-.603061-6.081086zm12.497114 17.578613c.616-2.49067 2.4272-3.733119 2.4272-8.093646 0 0-.5976-3.116429-1.1952-4.36465-.616-1.242449-1.232-2.485723-3.0336-3.728997-.6112 0-1.8056-1.262236-2.4032-.640599 0 0-.616 4.991233-1.2136 5.617817 1.2136 1.864086 2.4176 3.116429 3.0056 4.981339.6112 1.87398 1.2088 4.359703 2.4128 6.228736zm18.71921 11c1.766678-1.826084 0-4.862781 0-6.679921-.605719-1.826084 0-3.647289-.605719-5.473373-.587363-1.211427-1.789622-1.816327-2.964349-1.816327-1.188493 0-4.153606-1.826897-4.153606-.61547-2.968938 0-.587364 3.03751-.587364 4.858716 0 2.431797 5.915697 8.506005 5.915697 8.506005 1.202259.605713 1.202259 0 2.395341 1.22037zm-61.928005-51c1.296733-1.91666 5.171999-5.749979 7.087314-8.319371 1.311585-1.274184 3.895123-4.4651978 10.33407-7.6612977.643444-2.5588804 1.291811-4.4705385 1.291811-7.0193313-6.453882 1.9116581-10.972508 3.1960998-12.244462 4.4604509-3.231905 1.9216611-4.533561 3.2061027-7.755538 5.1277638 0 3.8182303 0 3.8182303.638438 5.7400603zm97.713195 68.281427c-1.937775-1.139661-5.153359-4.568119-7.061399-6.282743-1.307544-1.139661-.670705-2.849546-1.953469-3.998684-1.272026 0-2.573788 0-3.850771.570225-1.938601 0-3.210628 0-5.134361.578913.636839 1.130973.636839 2.279321 1.923733 2.849546 2.563877 2.284059 2.563877 2.862972 5.133536 6.282743.655837 1.148348 3.881332 1.718573 6.435297 1.718573 1.301762 0 3.851597-1.13966 4.507434-1.718573zm-23.912009-34.281427c-2.61101.627438-7.798338 1.255746-7.798338 3.148503-.65172 1.882313 0 3.769849 0 5.035167.665762 1.255746.665762 2.510622.665762 4.403379 0 1.254876-.665762 2.520194 0 4.412951.65172-1.265319 3.88967-2.520195 4.521566-3.785513 1.30757-1.882314 2.61101-3.13806 3.252818-5.030817.65172-1.887535 0-5.035167-.641808-8.18367zm8.106943.24727c-1.918778 1.237319-3.194934 1.856807-3.194934 3.094126 0 2.485418.628579 4.96586.628579 6.213131 0 1.865929 0 3.104077.647577 3.722736 1.918778.61866 2.576267.61866 5.147577 1.856807 0 .628611 2.576267 1.86593 2.576267 1.86593s-1.276156-5.579544-1.928689-8.074084v-9.925916c-2.581223.618659-3.218888 1.24727-3.876377 1.24727zm-74.015425-57.411114c.640645-.6357972 7.77182-5.6920648 8.402497-6.3229016 1.296112-1.2615867 1.946725-.6308369 2.567434-1.8924236 0-3.7996412 1.320989-3.7996412.670463-5.0513072-.670463-1.2814281-5.820241 0-7.121294 0-3.227929.6209162-9.058051 2.5082923-9.058051 3.7797998-.640558 1.9023443-.640558 6.3179412-.640558 6.9685326.640558 1.8825028.640558 3.7898075 1.271235 5.682144 1.971516-1.8923365 2.592312-2.5231734 3.908274-3.163844zm135.238091 108.043562c-.5752-.620052-1.7352-1.24946-2.904-1.879718v2.51508c0 2.520182.5664 3.159797.5664 4.42967 0 1.260516 1.7624 10.105397 1.7624 12.62558 2.9.639614 2.9 3.170004 4.644 4.42967 0 0-1.1688-7.580111-1.1688-17.05525 0-.639615-1.7264-4.42967-2.9-5.065032zm-36.225144-23.074038c2.486233 1.791998 7.444659 1.193283 11.807544.598715-2.505231-1.806095-3.114813-3.013475-4.362885-4.201783-1.871696-1.20738-3.091685-1.806924-5.582049-4.202612h-8.055066c1.224119 2.995232 1.82957 4.801327 6.192456 7.80568zm-24.991189-40.209827c1.269548-1.197512 2.519273-3.58756 2.519273-4.196268 1.27946-2.395024 1.27946-5.397926 1.27946-7.802073-5.043502-3.008708-11.366465-3.597512-17.680341-3.597512-5.687776 0-12.005782.588804-18.319659 4.804147.645099 2.404146 1.259637 4.200414 2.534141 6.595438.625275 0 1.259637 1.207464 1.875 1.207464 1.269548-1.207464 2.544053-3.003732 4.419053-3.602488v2.395024c0 1.801244 0 2.998756.654185 4.814098 0 1.786317 1.893998 1.786317 4.409141 1.786317 2.519273 0 3.168502-4.200415 3.168502-4.799171 0 0 .635187 2.395024 4.404185 4.200415 0 0 4.419053 0 4.419053-.598756.644273-3.002903 1.28359-3.601659.644273-6.001659 0 0 3.793778 2.4 5.673734 4.795024zm20.798733 24.7419c-2.38556-3.92127-2.976022-7.838188-2.976022-8.489993-1.190103-1.314051 1.18169-5.876682-1.799686-5.876682-1.176336-.67269-4.757353-1.971078-4.757353-1.971078-.622585 1.971078-.622585 5.881904 0 7.84776 0 1.955414 2.96302 7.848631 4.162301 8.489993.595052.662247 3.576428.662247 4.194424.662247.581285-.662247 1.176336-.662247 1.176336-.662247zm-97.772013-81.337753c1.256816-1.8472376 1.256816-1.8472376 2.503995-3.1047611 2.518409-1.8569258 3.775144-3.1046768 6.893214-5.5904065.618771-1.247751 1.247179-.6190314 3.122766-1.85701.62363-.6141453 1.252038-1.2428649 1.252038-1.861812 0-1.2380629-.628408-2.4857297-1.252038-3.7140202-.628408-1.247751-1.875587-4.3524278-1.875587-4.9811474 0-4.956885.637963-6.1948636 1.247179-10.5472915-2.494358-.6190314-5.612347-.6190314-6.869163 1.8666983-1.24726 1.8666982-1.24726 3.7237082-1.24726 5.6001789 0 3.0804143.618852 5.5758321 1.24726 9.2898522-2.518409 1.8764706-3.765588 3.1046768-6.250391 4.3475417.618771 3.7237082 1.227987 10.5521776 1.227987 10.5521776zm126.772013 87.503283c-1.246506-1.206926-2.488006-2.40982-4.362772-3.626421-2.516374-.603866-3.74369-1.820466-5.018564-4.235123-.619081-1.207732-1.237328-2.424332-2.498018-3.641739-1.227317 0-1.854741.613541-3.101248 1.217407-1.26069 1.2166-3.772892 1.2166-5.019398 3.027391.618247 1.207732 1.246506 2.424332 2.50219 3.632064.637437.60306 1.256518 1.820467 3.763715 3.022555 4.352759 2.414657 5.627633 3.018523 5.627633 3.018523 3.74369.613541 8.106462-2.414657 8.106462-2.414657zm-31-27.503283s.609095 3.133691 1.8665 6.253141c.638298 1.255654 1.876512 2.501257 2.518982 2.501257 1.229036.622382 3.753024 1.245602 5.614518 1.245602v-1.245602c-1.861494-1.878874-4.385482-6.243927-4.385482-7.498744-1.229036-.613168-1.229036-.613168-3.10972-.613168-.638298-.642486-1.895703-.642486-2.504798-.642486zm55.8276 45c-.5656 1.804478-2.3144 3.001935-2.3144 5.400166 0 0 2.9064 2.991984 3.4888 4.805584.5784 1.197456 0 6.596793.5784 7.79425 1.7408-1.805307 2.9064-2.403206 2.9064-4.792315-.592-.598729-1.1664-5.414264-1.7488-9.004976 0-1.200774-1.736-2.99613-2.9104-4.202709zm51.169115 44c-3.059267 0-6.707545 3.627427-9.136195 15.107807-.606959 4.245353-1.218812 7.881867-.606959 10.28418l5.464259.608013c1.219628-1.814126 1.219628-4.838496 2.443335-7.25981 0-1.206113 1.23268-1.206113 2.42865-1.206113 1.228601.603056 3.676015 3.627427 4.876064 4.83354.611853-1.206113 1.826586-3.627427 1.826586-5.445684 0-.612144-1.826586-1.814126-2.433545-1.814126-1.816797-1.205287-3.040504-2.411401-5.465075-2.411401-.620827-2.421313 3.026635-5.446509 3.026635-5.446509 4.260132 0 8.529237 4.83354 8.529237 4.83354 1.214733-.603057 1.816797-2.411401 3.050293-3.617514-3.662147-6.656753-10.355823-8.465923-14.003285-8.465923zm-33.509915-31.964625c-.5912-1.242618-1.1736-3.101077-1.7432-4.3336 0-.615841 0-1.848364-.5912-3.701775 0 0-4.0648 3.085934-4.6392 3.701775 2.3176 3.090982 1.1656 4.959537 1.7256 7.424582 0 1.222427 2.3392 1.843316 2.9136 3.701775 0 .606586-1.1392 6.171868-1.1392 6.171868 3.4736-4.939345 3.4736-11.116261 3.4736-12.964625zm52.866546 53.063425c-.573614 1.8168-1.174761 3.0056-2.353346 4.204.595793.604 1.779732.604 2.353346.604h5.912046c.556023-.604.556023-2.4016 1.151816-3.6096 0-1.1984.582792-2.4064.582792-4.204h-3.53652c-1.756788 0-3.518929 1.2072-4.110134 3.0056zm-86.376447-89.633343h3.087587c1.247352 0 1.247352-2.411642 0-2.411642-4.33494-1.215454-8.034296-2.416667-10.506008-6.053815-.611769.612334-4.334939 1.808522-5.558478 3.023976 0 0 1.223539 3.029839 4.316053 6.053815 1.845161 1.809359 5.577364.60312 8.660846-.612334zm-27.976899-20.966713c1.892287 2.508795 3.770389 4.375942 5.64432 6.247277.608235 1.253979 2.486338 1.253979 3.722832 1.253979h6.252555c1.878937-.641649 3.124609-.641649 4.380293-1.881387-2.501356-1.243927-5.615953-2.498744-8.131492-3.752723-2.501356-1.244764-4.360269-2.488691-6.224188-4.36589-1.264861 0-1.873931.622382-2.520545.622382-1.231488.642486-1.868925 1.254817-3.123775 1.876362zm-66.9224-28.875144s2.4016-.5512 4.2208-.5512c1.2168 0 2.4208 0 3.624.5512-.616.5512-3.0272 1.6544-3.0272 1.6544-1.1848.5512-1.8 1.0984-3.6192 1.6496-.5968-1.0984-1.1984-3.304-1.1984-3.304zm-.209301-14.8977523c1.2415-1.8379352 3.764549-3.0631976 5.635143-3.6758705 2.493846-.6126729 1.856409-5.5283354 1.856409-6.1409248.637437-1.2349488 0-3.0729676 0-4.3079164-1.237328.6223594-1.237328 0-3.727003.6223594-2.523049 0-3.764549-1.2349488-5.001877-2.4698976-1.276543-1.2205026-4.384465-3.6807137-5.630971-6.1217188 3.107922-.631879 5.630971-.631879 8.748071-.631879h8.129823c1.855576.631879 3.122106 1.8572248 3.122106 3.0728841 0 .6125894-.619081 4.3029896-.619081 4.9156625-.647449 3.685557-.647449 4.9204223-1.256519 10.4487577v1.8379353c-.628259 1.2349488-3.127112 1.8476217-4.373618 3.072884-.628259 1.8380187-.628259 3.0728841-2.508865 3.685557-1.884777.6222759-3.132118 2.4554514-4.373618 1.8427785-1.875599-1.2205026-1.237328-4.3029897 0-6.1506114zm-9.369775-30.7258477c-1.285018-1.2460929-3.850263-3.1399905-5.125451-5.6617643-1.898162-2.5169006-1.275271-5.0287537-1.275271-5.6666377 1.275271-3.7777874 5.748425-5.0436347 8.323004-5.671598 1.265441 0 2.550707 0 4.463737 1.2658473 2.56062 1.2559266 3.845059 1.2559266 5.115457 5.6616773 0 .6478047 0 1.2560136-.637677 1.2560136 0 0-3.845059 2.5168135-5.125368 3.7925815-3.183428 1.8838898-3.816149 5.0238803-5.738431 5.0238803zm18.668378-1.7547191c1.898616-1.22736 3.772663-2.44512 5.051116-2.44512 1.269133-.60888 3.781982-1.22736 3.781982 0 0 2.44512-1.88845 3.66296-3.781982 6.09848-1.278453 1.82192-1.893533.61848-5.051116.61848h-3.166902c0-1.82664 1.273369-2.44512 3.166902-4.27184zm25.916986-1.5726922c1.170039 0 11.257111 2.26768 4.740385 5.09112-1.202161 1.13824-4.153358.56464-7.127041.56464 0-1.12048 0-3.38808-1.174857-3.38808-1.206177-1.13832-2.968865-1.13832-2.968865-2.26768-2.39067-2.26768 3.556695-.56472 6.530378 0zm12.735315-12.4943962c2.033443-1.937411 4.749902-2.5799078 7.429956-1.937411 3.37347.6424097 4.040883 1.2848195 5.396512 2.5798207 2.028243 2.5799077 1.36083 7.7296285.667413 10.9468985-.667413 1.9374981-2.690455 3.2324993-4.708296 3.2324993-3.378671-3.8648142-6.752142-6.4497693-11.470839-7.7447706-.677815-2.569813 1.37123-5.1497207 2.685254-7.0770369zm3.890243 25.7111577c-.645278 1.2367265-1.946769 1.860032-3.237324 2.5029388-.66042 0-1.2813 1.2366428-1.2813 1.8599483-1.315793 1.8746911-3.246577 2.4979128-5.828528 2.4979128-1.305697 0-3.887648 0-5.184091-2.4979128 0 0 .636023 7.5037066.636023 9.3734555 0 .6233055.66042.6233055.66042.6233055 2.581951.6232217 3.232276 3.131019 4.517782 4.3775461 0 0 .650325.6232218 1.310746.6232218 2.571855 1.8698326 8.406272 4.3726877 5.819273 4.3726877 0 1.2563278-1.931625 4.3775461-2.571854 4.3775461-1.966119-1.8648904-5.188299-3.1212183-7.795488-4.3775461-.640229-1.2465272-1.280459-2.5028551-1.940879-3.7395816-1.276253-1.2563279-1.926578-1.2563279-3.877553-2.502855 0-4.3677455-.641071-4.3677455-.641071-8.7502339 0-.6232217-1.295602-7.5037067-1.295602-7.5037067 0-.6232217 1.936673-2.4832537 3.887648-3.1260767 0 0 12.303174 0 18.112352.642823 0 0-.630134 1.2465272-1.290554 1.2465272zm-7.393446 38.7151928c-2.4144-.6288-4.2184-2.5216-7.2384-2.5216 0-1.8776 0-1.8776.6152-2.5168 3.6216-.6296 5.4304.6392 7.2296 1.268 0 .6296-.6064 3.7704-.6064 3.7704zm-40.77457 8.005882c1.888671 0 3.77155-1.831879 5.650289-2.454917 3.742583-1.227873 6.890093-2.455745 10.632675-3.068854 1.272908-.633794 1.272908-1.851737 1.272908-3.088711.629833-1.222908.629833-1.222908.629833-3.063889 0-.613937-2.512711-1.227873-3.771549-3.702648-1.249735-1.8507448 0-3.6921398-.629833-3.6921398-1.863843 1.2276243-4.391451 2.4551657-5.001421 0-.629005-1.8365132-.629005-4.3110402 1.258838-4.9248937 6.241224-2.4551657 13.145386-2.4551657 19.424681 0 1.239803 0 1.869636 1.2373049 1.869636 2.4648463.619074 1.2276243 0 2.4600474-1.258839 3.6876717-1.87874.6137707-3.772377-1.841395-3.772377 0 0 1.8414775-1.238975 4.3162525-4.381519 5.5532265-.60997.613937 0 2.454918.643903 4.301691 0 .613109 0 1.831052.619901 1.831052 2.507745.633794 6.279295 1.246903 8.148931 2.474775 2.492848 1.227873 6.875195 4.910663 7.514132 4.306655 1.868808-1.227872 2.488709-3.078782 3.761618-4.306655 6.88016 3.078783 12.511414 4.910663 21.294316 10.468358 1.248907 0 1.248907-2.464847 1.248907-3.701821-3.146683-1.855874-12.549486-6.766537-13.784323-7.389574-2.498641-.604835-3.747548-1.851738-6.270191-2.455745v-4.914799c4.391451 1.227045 13.136282 1.840981 21.93822 6.765709.609969-1.85091 1.878739-3.077955 1.248906-3.70182-10.050844-4.9148-17.526905-6.766537-23.807027-6.766537 0-.623038-1.267943-1.2369741 0-1.8507448 1.87874-1.2276242 2.503607-1.841395 3.142544-2.4551657 1.868808-2.4600474 3.137578-4.9248937 3.747548-7.3800594 1.873774-3.6924706 3.752514-2.4648464 5.016318-10.46844-1.883705 0-2.522642 1.2276242-4.391451 1.8510756.60997-1.8510756 1.248907-3.6924705 1.248907-5.5435461.619902-3.6972696 1.87874-6.1524353 1.87874-10.4683572 1.883706-.6234514 5.020456-2.4600474 5.640358-4.9152131 0-.6234514 0-2.4648464.634799-4.9296927 0-3.6876716.609969-6.7662887-.634799-9.2311351 0-.6137707-4.376554-6.7662887-7.519098-8.6076836-4.372415-1.8510757-6.260259-1.2276243-9.392872-.6234514-3.761618 0-8.782902 3.6924705-8.782902 10.4683572-3.73265 0-11.26168.6138534-15.644027 4.3062413-3.751686-1.8509929-6.884298-2.4551657-10.031808-3.0786171h-5.621322c-.619902-2.4648464-1.882879-4.9296927-4.38152-6.7710877-3.123508-1.836596-6.904162-4.3014423-11.286509-4.3014423-1.878243 0-3.747217-.6234514-5.630592.6234514-1.878574 1.2179435-5.011186 2.4455677-5.631005 4.9055324-1.258756 3.0786998-2.507994 5.5435462-2.507994 8.6221633 0 3.0834988 1.888175 5.5387472 3.766832 8.6173643.605335 1.2372221 1.244355 1.2372221 2.493593 1.8413949.629337 0 3.142213 1.2372222 3.761949 1.8461939.619819.6041729-.619736 2.4649291-.619736 6.1669976 0 3.0690192 0 3.0690192.619736 5.5289839 0 2.4649291.619819 4.9200947 1.249238 6.7614897-1.868974 0-3.132613-1.841395-4.38185-.6041728 0 1.2373049 1.249237 4.311123 2.512876 6.7662887 3.12773 3.0786998 6.250659 6.1573169 8.13933 9.8449058 0 .6138535 0 1.8413949.60997 1.8413949-4.382347.6139361-8.7493.6139361-13.140751 1.8608391-3.761949 1.227872-8.143799 3.078783-11.886547 4.919764 0 2.459882.610218 4.311619.610218 4.311619.629336 0 6.265142-3.088711 11.276329-4.311619 8.138999-2.454918 12.530781-1.840981 12.530781-1.840981.60997 1.227045 1.243941 3.063889.60997 3.687754-7.509745 3.077955-15.024125 6.770674-21.933171 11.072364.648621 1.236974 0 3.078783 1.27804 4.305828 6.270025-3.691891 15.033561-7.993582 21.289102-10.458428 2.507746-.613937 2.507746 0 3.766584 0 .619901.613936 1.86467 3.068853 3.113577 3.068853zm118.94537 54.85522s-1.16-2.331659-1.16-2.900867c-.5752-1.166636-1.1512-2.910543-2.9-3.489426 0-.578078-.5848 2.32279-1.16 3.489426-.5936 1.156961-.5936.569208-1.7536 2.900867 1.16 1.731007 1.7536 2.887968 2.9136 4.632681 0 .578884 1.7488 2.901674 1.7488 2.901674s2.3112-4.646387 2.3112-5.803348zm81.258298 72.510355h-3.12307c-1.24489-.5984-1.872341-.5984-2.489779 0-1.878181 1.768-1.878181 4.724-3.132249 6.4968h7.500209c1.244889-1.1928 2.499791-1.7728 2.499791-4.1488 0-.58 0-1.768-1.254902-2.348zm-89.258698-85.753394c0-5.002687-1.2648-5.002687-3.8-7.222606 0 0-1.9128 3.336405-3.1728 4.99808 2.5352 2.224526 3.1728 5.00192 3.1728 5.00192 2.5352-2.223758 2.5352-1.670122 3.8-2.777394zm26.5136 22.95668c0-1.835203-.632306-3.660454-1.873104-4.886964-.64216-1.825251-1.265433-4.264172-1.265433-5.490682-.651193-1.207436-3.152498-4.877013-4.413004-6.702264-1.254758-1.212412-1.254758-4.264173-1.887064-6.099376l-7.561395 1.217387c3.790552 4.881989 6.947976 9.759001 8.806299 14.645966.64216 1.830227 6.320597 20.136647 6.320597 20.136647 1.873104-.617816-.64216-9.768953 0-10.377646.608492-1.216558.608492-1.835203 1.873104-2.443068zm-48.198528-50.616903c-.614325-1.213782-1.863052-3.645536-2.487014-4.252846-.609507-1.213782-1.243105-2.427565-1.876704-3.044089-.605492-.597258-3.092506 0-4.325975 0-1.248727 0-1.863052 0-3.111779.616524 1.248727 1.213783 2.477378 5.466629 3.111779 5.466629.614326 1.213782.614326 1.821092 1.857431 2.446831 3.102143.597258 5.584339 0 8.695315 1.204568 1.223832-1.830307-1.248727-1.830307-1.863053-2.437617zm16.198528 14.877717s-7.499595-4.148-8.756411-5.9128c-1.869837 0-1.869837 0-3.745344 1.7648-1.265723 0-1.874696.6088-2.498245 1.7792 1.880365 1.1984 2.498245 1.7792 4.373752 2.9592.632456.5896 1.251147.5896 3.126653 0h5.011067c1.227663 0 2.488528.5896 2.488528-.5904zm105.237885 91.5599s-.651707 1.766874-1.302588 2.928665c-1.293502 2.943254-1.935297 4.115027-1.935297 5.871919 1.935297 1.199416 2.586178.595101 5.187225.595101 1.293502 0 2.587004.604315 3.237885.604315 1.293502-.604315 0-1.776088 0-2.361207-.650881 0-3.237885-5.296015-5.187225-7.638793zm-65.335572-53c2.602391-1.848451 3.260707-5.563596 3.918188-7.412047.658316-1.857573-.657481-5.558621-1.315797-6.790921-1.954088 0-3.244854-1.241423-4.58151-1.241423-1.305784 0-1.954088-3.089873-3.923194-2.474552.658316 1.242252 1.969106 7.421998 2.61741 8.649323.668328.625272 3.284903 4.947446 3.284903 9.26962zm48.02011 32.498004c0-.585356-1.9232-1.764052-2.5352-1.764052 0-.598931-.6712-2.965907-1.312-3.545673-1.2584-.598931-1.2584-1.188279-2.5408-1.188279 0 .589348 0 1.188279-.6408 2.366976 0 1.178696-1.2824 1.768045-.632 2.94754.632 1.183488 1.2728 1.183488 2.5552 1.772836.632.589348 2.5704 5.3233 3.1824 5.912648.6408-.589348.6408-4.144603 1.9232-6.501996zm-110.04097-98.70911c1.771319 0 2.938432 1.211106 4.118547 1.211106 0-1.807177-.598853-3.018283-1.180115-4.844423-.590439-3.03807-1.76673-4.864209-2.366348-6.676334 0-1.81707 0-3.037245-.572084-4.248351-.581262 0-1.180879 0-1.762141-.615858-1.757553 0-4.119312-.615034-4.119312-.615034 0 1.836033.599618 4.86421.599618 6.685403 0 .605965 2.343403 6.075315 2.929254 6.68128.59044 1.220999 1.171702 1.82614 2.352581 2.422211zm60.118547 39.809763c-.602919-1.795972-2.421223-2.404107-3.640583-3.600631 0 0-7.907948-2.998026-9.141627-2.998026-1.21936.593919 3.051982 2.998026 3.654901 4.19455 2.434745 2.404107 8.52439 7.80545 8.52439 7.80545zm-77.37973-77.598657c-.631632.6054675-1.283289 1.8258835-1.283289 2.4217875-1.284123 1.825801-3.179852 3.0415177-1.925767 4.8673188.641644 2.4313509.641644 4.853056 2.577424 6.6789394 1.920761 1.8258835 4.458969 1.210935 7.011362 3.0319543 0 0-1.920761-7.8945737-3.174846-11.5366948-.641644-2.4170057-1.915755-3.6374217-3.204884-5.4633052zm120.511497 46.922307c-8.072994-7.988577-16.785401-12.922307-25.483052-12.922307-7.448337 0-13.056314 5.528766-13.056314 11.081598 0 22.152408 8.717326 36.31209 14.305628 48.606166 1.855116 3.078913 2.474855 5.542874 2.474855 8.621787.624657 8.002685-6.199024 22.766531-10.557686 30.769216-.61482-.623252-3.738105-1.227416-6.222797-1.227416-6.212959 0-8.697651 4.29637-9.946965 7.983597-1.864134 0-3.089675-1.227415-4.98332-1.227415-7.443418-.614123-13.662116 6.147038-13.662116 13.545558 0 7.983598 1.850198 12.309014 4.974302 17.846909h6.217878c-.629575-1.845688-2.484692-11.085748-3.109349-13.541409-.604982-3.682248.624657-6.156167 2.479774-8.002685 2.493709-3.701335 8.697651-2.454832 8.697651-2.454832-1.854297 3.073934-4.338989 7.993556-4.338989 12.913178.634494 3.083063 1.234559 8.021773 3.118367 11.085748h4.973482c1.221442-3.697186 0-6.76531 0-9.863311 0-1.826601 0-3.678098.605803-5.528766 0-1.227416 3.109348 2.464791 3.109348 2.464791s2.488791-3.078084 2.488791-5.542874c0-1.841539-3.71925-1.227416-4.329971-3.073934-.653349-1.840709 1.225541-6.156167 1.225541-6.156167 3.729087-2.464791 6.828599-1.841539 8.08775-1.841539 1.850198 0 2.465017.604164 4.973482.604164 1.850198 0 2.474855-3.682247 2.474855-5.518807.61564.604164 2.498628 1.83656 3.10443 1.83656 1.860035.613293 2.484692.613293 4.348826 1.227416 2.493709 1.227415 4.98332 2.454831 7.477029 4.928751v-.623252c-.633674-2.454832.605802-5.532915-1.249314-6.765311 0 0-3.118366-2.46479-5.603058-3.692206-1.239477-1.227416-3.113448-1.227416-3.729087-2.454832-.624657-.614122-.624657-1.237374-.624657-2.46479 0-1.232395.624657-3.073934 1.240296-3.073934 1.239477-.623252 1.873971 0 4.357843 1.218287 2.489611 1.241524 4.974303 3.083063 6.838436 4.320437 0 0 .61482 1.227416.61482.613293 2.494529-1.227415 2.494529-1.850667 2.494529-5.537894-2.494529-3.088042 0-3.692206-3.734006-6.156997-1.239476 0-8.082831-2.46479-8.082831-2.46479 0-1.232396 1.869052-4.30052 1.869052-4.30052.625477-.604164 1.855117-.604164 2.489611.613293 3.724168 2.454831 6.20886 2.454831 9.966639 3.687227.586128-1.83656.586128-3.063975-.644331-4.30052-1.258331-1.841539-3.113448-3.702165-4.358663-4.316288-2.478953-.613293-3.724169-1.227416-5.598139-1.840709 0-1.846518-.61482-3.687227-1.22964-6.152017 0-1.237375 1.22964-.614123 2.488791-.614123 2.493709-.623252 13.046476 3.078913 13.046476 3.078913 0-2.46479-.624656-4.315458-1.87397-5.542874-1.244396-1.237374-2.474855-2.46479-5.588303-3.688057-4.339808-1.236544-8.072994-.613293-11.182343-2.46396-2.48961-2.464791-3.114267-3.078913-3.734006-5.543704 1.860035-.603334 4.973483-1.227416 6.843355-1.227416 3.10361 0 4.9825-.613293 8.706669.624082 1.221442.603334 5.589122 4.305499 7.463093 4.305499 0 0-1.259151-4.929581-2.508465-6.76531-1.830524 0-4.954628-3.702165-6.199024-4.316288-6.232633-2.463961-7.462273-1.227416-11.206116-.613293-1.855116.613293-3.705314 0-5.588302 0-.61564-1.227416 1.249314-3.078084.633674-4.306329 0-.623252-2.503546-1.236545-2.503546-2.459811 0 0 9.951883-1.236545 13.690808-.623252 1.244395.623252 4.973482 3.083063 6.217878 3.083063 0 0 1.221442-4.320438-.633675-8.002685-3.090494-.604164-6.20886 0-8.698471-.604164-2.483872-.623252-4.973482 0-6.82368 0-1.882988 0-3.75286-.623252-5.607157-.623252-1.230459-1.840709-1.874791-3.697186-1.874791-5.537895 0 0 15.545925-.623251 16.795239-1.227415-.634494-.633211-1.864134-1.227416-2.489611-2.47475-2.483872-4.305499-4.357843-4.914642-7.457354-4.914642-1.864954 0-6.203942 1.836559-8.698471 1.222436 0-4.914643 2.494529-9.220142 6.20886-9.220142 7.463093 0 14.921268 3.068125 21.134227 9.834265 15.554942 16.010349 23.618919 46.156313 23.618919 67.695428 0 9.844224-1.240297 19.074325-2.474855 26.458737 1.859215.623252 3.089674.623252 4.963645.623252 1.87889-7.393541 3.734006-17.237765 3.734006-26.467866 0-31.383339-11.196279-57.832117-24.868233-72.610901zm-95.131767-25.076588c1.214632 4.942684 3.013767 11.121247 3.621083 18.510639 0 1.86551-.607316 3.710979 0 5.567304l8.378917 3.076338s-1.177658-7.403587-2.383637-16.033034c-1.200472-7.399412-1.803855-9.870336-3.602989-12.966966-1.205193.615351-1.799135.615351-2.999607.615351-1.799135.615769-3.013767 1.230368-3.013767 1.230368zm20.281072 35.240861c1.279386 1.240242 1.909045 3.725812 2.548738 8.077255.633839 2.490656 1.913225 3.110353 3.172542 6.836165 1.918243-1.235155 5.10082-.614611 5.10082-.614611 0-3.111201-1.918243-6.221554-1.918243-6.831926-.649727-1.25974-2.54372-4.986399-3.182577-6.226641.638857 0 2.53285 2.48557 5.730479 2.48557.648891 0 2.562116.610372 3.821434 0 0 0 1.89901 1.250414 1.89901 2.481331 1.273532 1.870112 1.273532 3.110354 1.932458 4.980465 1.240085 0 1.89901 0 2.528669-.619697 2.542884 0 3.812235-.62987 3.812235-.62987-.619624-1.241089-1.269351-2.471158-1.269351-3.730898-.638857-1.230917-1.893993-4.346357-1.893993-4.346357l11.436707-1.860786c0-1.880285-.629659-4.370941-2.552919-5.611183-5.720444 1.880285-12.061348 2.490657-16.531673 2.490657-6.380206 0-12.725291-1.250415-21.63333-4.966054-.634676 1.235155 0 3.715639 0 3.715639 3.817253 3.130699 3.817253 1.250415 6.998994 4.370941zm-137.494816-102.2327187c4.464586-2.4642707 12.077898-6.7840135 14.612579-9.2386195.653044 1.2370087 8.280803 5.5470048 11.449155 7.378315 2.534513 1.8603045 5.083224 2.4642707 7.617738 3.6916147 1.272685-1.8313102 2.529503-3.6916147 3.816385-7.9919461 1.905687 1.2369268 4.445211 1.2369268 6.341712 1.8408931 0 2.4594383 0 4.923709.653045 7.3976445 0 1.2176792 1.266839.6039663 3.811374-.6232957 3.806364-1.227344 7.612727-1.8506398 9.528436-2.454606 4.426004-2.4642707 6.974715-7.3879798 10.786089-7.3879798 3.187558 0 8.900444 1.840975 10.177305 3.068237 1.900676.6281281 3.177537 1.2321763 5.088234 1.2321763 2.534514 0 4.440201-2.4594383 6.331692-3.696447-5.702865-3.6818844-12.038732-7.3734499-18.409673-9.8328801-3.816385 3.063421-6.360085 5.5276835-8.260761 5.5276835-1.915709 0-.638848-3.6819007-.638848-6.1510005-1.905687 0-3.182548 0-5.074038-.6136507-1.257654 4.3003887-1.915709 9.8522505-5.083225 11.0698478-1.267674.6233776-1.915708.6233776-2.544534.6233776v-4.9285742c0-.6136474 2.544534-4.9140361 1.905687-5.5276835 0 0-5.722072 1.2224624-6.979726 1.8457828-.638012.6136474-4.464418 2.4642625-5.093245 2.4642625 0 0-1.910698-.6233121-2.539524-.6233121-1.905688-1.227303-3.172527-1.227303-5.083225-2.4642626-2.534514 7.3928122-3.187558 9.2337871-3.187558 8.0064432 0 0-8.895434-5.5421806-12.053764-9.2289138-8.271283 1.2224624-8.271283 2.4594302-15.260696 4.9140361-2.539357 2.464238-6.350898 5.5422216-8.890256 9.2385868-1.267257 2.4642707-2.544284 3.6915327-3.806614 6.1461387l6.345972 2.4642707c.638513-.6232958 3.811541-4.9188767 4.440284-6.1461387zm216.69908 167.7690047c1.6976.584514 2.8384 4.69546 3.9832 5.8661 1.716 2.350149 1.1496-4.101271.5752-5.281586 0-.584514 0-5.275943-1.1408-5.275943-.5792-.594994-1.1448-2.354985-1.72-2.931437-.5744 1.751123 0 2.931437 0 4.687398 0 1.179508-2.2992 2.340473-1.6976 2.935468zm-110.210946-126.4107918c-.629466 0-2.536789-.6059954-5.098262-1.2120742h-3.176128c.629466 1.8275735 2.546662 3.6456431 3.176128 4.857634 0 .6155826 0 2.4431561.654151 3.6456431 1.258109 0 3.166254.6059954 4.444111 1.2167427.634402 0 4.449047.6155827 5.72279 1.8275735 1.267983 0 5.707979 4.857634 6.366244 5.4637128 1.897449 1.2214947 3.809708 2.4335689 5.06864 1.8275735 1.277856 0 0-1.8275735 0-2.4336523-2.531852-3.6455598-4.439174-10.3260153-5.06864-10.3260153-1.912259-.6059954-3.190939 0-5.727727-1.221578-1.263046-1.2119909-5.088388-3.0300605-6.361307-3.6455598zm-9.938258-14.4670333c.638544 1.2844559 1.882114 1.2844559 3.139929 1.916596 1.247759 1.2744529 2.510603 1.9116793 4.387689 3.1961352 2.497194 2.5589087 3.749982 5.7650469 6.875665 8.2988633 1.252788.6472294 1.882114 1.2844559 2.501385 1.2844559.638544 0 3.134901 1.9216823 3.7592 2.5589087 0-5.1127312-1.882114-8.9360898-3.120656-11.5050015 0-.6372264-.638544-1.2744529-1.887141-1.9216823-1.891332-1.9116793-3.7592-3.8282753-4.378471-3.8282753-1.872058-1.9116793-3.129874-3.8233586-5.007798-5.7450409-1.882114 0-3.129873 1.9216823-4.387688 2.5589087-.619271 1.2744529-3.111438 2.5589088-1.882114 3.1861322zm-2.191898-15.1377473c0 1.7954359.602597 3.6096279 1.196541 5.3956447 2.938252 1.8001045 6.497982 2.9970617 6.497982 2.9970617.584504-1.8048549-.608104-3.5955403-.608104-5.4003952-1.160354-4.1986875-2.951626-8.3927064-3.536129-13.1898725v-2.4126706c-2.353749-1.1875382-4.738965-1.7954359-7.694524-2.9970617 0 0 0 3.6049593 1.187888 5.4097323 1.187888 2.9923931 2.956346 7.7942278 2.956346 10.1975613zm131.358061 16.0969672-2.502295-2.9436471 6.865248-1.7606137 3.134752 10zm-20.651183-4.8723808-3.788493 2.20688-5.062619-3.31032 5.686975-2.7672 6.313025 3.87064zm97.533581 118.71382c.615307-3.657361.615307-7.3106.615307-9.75159-1.255293-1.216371-3.145635-1.834041-4.376249-1.834041 0-1.814249-.639986-4.251115 0-6.69293 1.230614 0 3.760942.607774 3.760942 0 0-3.657361-.639986-7.324619-1.250357-9.143816-1.279971-.617669-3.150571-1.225443-5.035977-1.843112 0-1.824145-.620243-3.648291-1.250357-4.863838 1.900213-.617669 3.135763-.617669 4.38612-.617669 0 0-1.250357-5.486455-1.865664-7.928269-1.270099-.607774-3.149748-.607774-4.400927-.607774-.625178-1.206475-1.25447-2.441814-1.884584-4.265959 1.259406-.602826 2.524569-.602826 3.765055-1.211424-1.240486-3.049588-1.879648-4.275031-3.134941-6.099176h-4.377072c-.620243-1.215547-1.250357-2.44099-1.250357-3.647466.630114-.632513 1.871423-1.23039 2.50565-1.84806-.634227-1.814249-1.875536-3.64829-3.144812-4.863837-1.250357 0-2.50565.597878-3.756007 0-.620243 0-2.510585-2.441815-1.880471-2.441815.620243-1.225442 1.880471-1.834041 2.510585-2.436866-1.890342-2.431919-2.510585-4.26596-4.395991-5.491403-1.250357 0-2.490843 0-3.760942.61767 0 0-1.255293-1.8431951-1.875536-2.451216-1.889519 0 1.255293-3.044805 1.255293-3.044805-1.885407-2.432001-3.756007-4.2656298-6.261656-6.6976308-1.279148 0-2.529505 1.2064757-3.149748 1.2064757 0 0-2.505649-1.8240627-2.505649-2.4320836 0-1.2159593 2.505649-1.8239802 2.505649-1.8239802s-4.395991-4.8784337-7.521884-6.7119799c-1.250357.6079384-1.870599.6079384-3.145635.6079384-1.870599-1.8239802-4.381184-3.040022-4.381184-3.040022s1.890342-1.2255253 1.890342-1.8335462c-3.135764-1.8288457-4.395169-3.035239-6.900819-4.8784337-2.510585-1.2159593-3.760942-3.0495881-5.016234-4.8832168-4.381185-6.6928478-10.022598-16.4448498-23.834929-18.2784785 0 0 3.150571 4.2656298 5.035155 7.3200009 0 .5984548 0 .5984548-2.514699.5984548h-4.376249c-1.270099-1.8335462-1.890342-2.4320011-2.530327-3.6528259-1.255293-2.4320011-1.846745-3.049588-3.125893-4.2656298-2.510585-1.8335462-15.04788 4.8736507-25.709641 7.3200009 2.529505 3.0401044 5.025283 4.8640846 5.645526 6.0896924 3.135764 3.044805 7.52682 8.5360427 10.652712 12.80159.639163-.6079384 1.269277-1.2063933 2.524569-1.8335463 8.165982-1.2160417 8.165982-3.0304559 8.165982-3.0304559s-6.295382-4.8927828-1.91831-4.8927828c0 0 3.144812.5984549 4.40504-.6032378 3.130828-.617587 6.896706-1.2256079 8.78129 0 2.500713 1.8192796 3.751893 4.2608467 5.636477 6.094393-1.250357 0-2.495778-.5983724-3.756006-.5983724-3.765055-.627153-7.530933 0-10.661761.5983724 0 0 5.035154 4.2656298 6.266591 6.0944755-1.231437-.617587-5.016234 0-5.016234 0-1.890342.6080209-4.38612 1.2159593-5.016235 1.2159593-1.870599.6175869-3.765877 0-5.016234.6175869 2.505649 1.2160418 13.817266 5.4912376 19.443873 5.4912376 5.016234 0 8.142126-.6271529 12.538118-2.4512156.620243-.6079384 1.8706-1.2159593 2.500714-.6079384 2.514698.6079384 3.765877 1.2255253 5.016234 2.4320011 16.308109 9.7615679 34.481883 32.9329937 40.128231 45.1165027 5.636478 11.58563 8.76237 24.392581 8.76237 36.576913.630114 16.468435-4.997315 32.315078-16.289189 46.341698-6.290447 7.909302-18.183645 14.626148-30.720941 15.841695 3.765055 4.270907 5.631542 10.968786 7.521062 17.072085 0 0 4.395991-.607773 6.906576-1.82332 0-4.878682-3.140699-10.360188-3.140699-11.595527 0 0 3.756007-2.431919 6.896706-2.431919.610371 1.824145 2.495778 4.873734 5.025283 9.148764 2.505649-1.225442 4.376249-2.45171 6.261656-4.27503 0-3.049589-1.885407-6.702827-3.144812-10.360188 4.395169-1.824145 6.905754-2.451711 6.905754-2.451711 1.264341 1.834041 4.38612 3.658186 5.016234 5.501299 0 0 3.125893-3.049588 4.395169-6.099176-1.269276-2.441815-3.149747-4.270908-4.395169-6.711898l5.015412-5.472435s3.126715 2.431918 4.377072 3.657361c1.894455-2.44099 3.765055-4.882804 4.385298-7.93734-3.130828-3.039692-4.385298-3.039692-5.015412-4.873733 1.259406-1.833217 1.884584-4.260187 3.135763-6.094228 1.879649.617669 3.149748 1.834041 4.405041 2.431918 1.230614-2.431918 2.510585-6.099176 2.510585-8.531094-1.279971-1.225443-3.150571-1.824145-4.386121-3.04464.620243-3.049588 1.23555-6.099176 1.23555-6.099176s3.150571.607773 4.400928.607773z" fill="#fff" mask="url(#b)" opacity=".25"/></g></svg>