<svg xmlns="http://www.w3.org/2000/svg" width="640" height="360" viewBox="0 0 640 360">
  <g fill="none" fill-rule="evenodd" transform="translate(80 76)">
    <path fill="#000268" d="M0,36.9857014 C0,16.5605303 16.6441315,0 37.1649838,0 L442.199729,0 C462.7294,0 479.364522,16.5605303 479.364522,36.9857014 L479.364522,169.159314 C479.364522,189.572599 462.7294,206.136193 442.199729,206.136193 L37.1649838,206.136193 C16.6441315,206.136193 0,189.572599 0,169.159314 L0,36.9857014 L0,36.9857014 Z"/>
    <path fill="#FFF" d="M15.2727273,38.3840692 L15.2727273,168.038714 C15.2727273,180.799988 25.6762922,191.150054 38.5092794,191.150054 L250.710786,191.150054 L250.710786,15.2727273 L38.5092794,15.2727273 C25.6762922,15.2727273 15.2727273,25.6226036 15.2727273,38.3840692 L15.2727273,38.3840692 Z M305.539795,102.56377 C305.539795,110.818628 301.456949,116.492012 294.697326,116.492012 C288.725585,116.492012 283.747476,110.818628 283.747476,103.25904 C283.747476,95.4996529 288.125612,89.7307835 294.697326,89.7307835 C301.665952,89.7307835 305.539795,95.6996457 305.539795,102.56377 Z M265.850094,149.908356 L283.747476,149.908356 L283.747476,121.7564 L283.947469,121.7564 C287.33773,127.925249 294.106363,130.211245 300.37071,130.211245 C315.785171,130.211245 324.040029,117.48276 324.040029,102.163785 C324.040029,89.6352921 316.185156,75.9994662 301.856929,75.9994662 C293.706572,75.9994662 286.146989,79.2854153 282.556735,86.5493305 L282.356742,86.5493305 L282.356742,77.2022856 L265.850094,77.2022856 L265.850094,149.908356 Z M348.485157,112.606274 C348.485157,107.637175 353.254263,105.754038 359.330506,105.754038 C362.013608,105.754038 364.604098,105.942142 366.890094,106.049523 C366.890094,112.113871 362.613392,118.282536 355.844753,118.282536 C351.66661,118.282536 348.485157,116.196528 348.485157,112.606274 Z M384.587678,129.020504 C383.796723,124.946857 383.596735,120.861137 383.596735,116.787491 L383.596735,97.4901702 C383.596735,81.6759127 372.163492,75.9994662 358.930715,75.9994662 C351.27564,75.9994662 344.611503,77.0947158 338.242661,79.685206 L338.547155,91.8257968 C343.50417,89.0353192 349.284928,87.9400642 355.053803,87.9400642 C361.509121,87.9400642 366.782714,89.8352849 366.890094,96.8994022 C364.604098,96.4994166 361.413635,96.1949224 358.530735,96.1949224 C348.989639,96.1949224 331.778516,98.0901431 331.778516,113.901522 C331.778516,125.14685 340.925763,130.211245 351.171139,130.211245 C358.530735,130.211245 363.508654,127.337355 367.585364,120.861137 L367.785357,120.861137 C367.785357,123.556124 368.077767,126.230021 368.185337,129.020504 L384.587678,129.020504 Z M392.642354,149.908356 C396.325026,150.708322 400.00195,151.111181 403.780113,151.111181 C420.194533,151.111181 424.068187,138.475119 429.141787,125.442139 L448.146502,77.2022856 L430.237042,77.2022856 L419.59456,111.018621 L419.394567,111.018621 L408.25374,77.2022856 L388.965624,77.2022856 L409.948968,130.211245 C408.65372,134.789374 405.275348,137.379864 400.894333,137.379864 C398.399335,137.379864 396.220719,137.07537 393.830222,136.284609 L392.642354,149.908356 Z"/>
    <path fill="#FF0007" d="M59.9519001,103.776575 C59.9519001,96.7124578 63.4376526,90.8390869 70.1017896,90.8390869 C78.1568444,90.8390869 81.5352219,97.3032258 81.5352219,103.072101 C81.5352219,111.03167 76.4616219,116.400559 70.1017896,116.400559 C64.7329004,116.400559 59.9519001,111.83144 59.9519001,103.776575 Z M98.8447092,78.3105891 L82.6304715,78.3105891 L82.6304715,87.6576339 L82.4423678,87.6576339 C78.6521265,81.288981 72.480398,77.1077697 64.8283863,77.1077697 C48.7184607,77.1077697 41.4545455,88.6573976 41.4545455,104.071864 C41.4545455,119.39084 50.3091872,130.128808 64.5210185,130.128808 C71.6925107,130.128808 77.661373,127.338325 81.9350126,121.274166 L82.135,121.274166 L82.135,124.064454 C82.135,134.205518 76.5661234,139.07913 66.2281355,139.07913 C58.7640381,139.07913 54.1830307,137.488404 48.7184607,134.805496 L47.8231984,148.933536 C51.9925261,150.428771 59.0566379,152.219485 67.6188692,152.219485 C88.5067213,152.219485 98.8447092,145.352292 98.8447092,124.064454 L98.8447092,78.3105891 Z M129.103579,56.7272727 L111.197182,56.7272727 L111.197182,69.8557435 L129.103579,69.8557435 L129.103579,56.7272727 Z M111.206192,130.128808 L129.103579,130.128808 L129.103579,78.3105891 L111.206192,78.3105891 L111.206192,130.128808 Z M178.955248,77.7077426 C177.164529,77.4151374 174.974024,77.1077697 172.890894,77.1077697 C165.131508,77.1077697 160.657881,81.288981 157.571919,87.8576267 L157.371926,87.8576267 L157.371926,78.3105891 L141.062203,78.3105891 L141.062203,130.128808 L158.962653,130.128808 L158.962653,108.253076 C158.962653,98.1031916 163.645283,92.038838 171.995632,92.038838 C174.090651,92.038838 176.069274,92.038838 178.059986,92.6267325 L178.955248,77.7077426 Z M209.781492,118.791056 C201.526628,118.791056 198.148256,111.926932 198.148256,104.271852 C198.148256,96.5124651 201.526628,89.6483406 209.781492,89.6483406 C218.04536,89.6483406 221.426611,96.5124651 221.426611,104.271852 C221.426611,111.926932 218.04536,118.791056 209.781492,118.791056 Z M209.781492,131.319549 C226.890986,131.319549 239.923966,121.381546 239.923966,104.271852 C239.923966,87.0578558 226.890986,77.1077697 209.781492,77.1077697 C192.674866,77.1077697 179.650902,87.0578558 179.650902,104.271852 C179.650902,121.381546 192.674866,131.319549 209.781492,131.319549 Z"/>
  </g>
</svg>
