<svg height="360" viewBox="0 0 640 360" width="640" xmlns="http://www.w3.org/2000/svg"><g fill="none" fill-rule="evenodd" transform="translate(80 76)"><path d="m0 36.9857014c0-20.4251711 16.6441315-36.9857014 37.1649838-36.9857014h405.0347452c20.529671 0 37.164793 16.5605303 37.164793 36.9857014v132.1736126c0 20.413285-16.635122 36.976879-37.164793 36.976879h-405.0347452c-20.5208523 0-37.1649838-16.563594-37.1649838-36.976879z" fill="#000268"/><path d="m15.2727273 38.3840692v129.6546448c0 12.761274 10.4035649 23.11134 23.2365521 23.11134h212.2015066v-175.8773267h-212.2015066c-12.8329872 0-23.2365521 10.3498763-23.2365521 23.1113419zm290.2670677 64.1797008c0 8.254858-4.082846 13.928242-10.842469 13.928242-5.971741 0-10.94985-5.673384-10.94985-13.232972 0-7.7593871 4.378136-13.5282565 10.94985-13.5282565 6.968626 0 10.842469 5.9688622 10.842469 12.8329865zm-39.689701 47.344586h17.897382v-28.151956h.199993c3.390261 6.168849 10.158894 8.454845 16.423241 8.454845 15.414461 0 23.669319-12.728485 23.669319-28.04746 0-12.5284929-7.854873-26.1643188-22.1831-26.1643188-8.150357 0-15.70994 3.2859491-19.300194 10.5498643h-.199993v-9.3470449h-16.506648zm82.635063-37.302082c0-4.969099 4.769106-6.852236 10.845349-6.852236 2.683102 0 5.273592.188104 7.559588.295485 0 6.064348-4.276702 12.233013-11.045341 12.233013-4.178143 0-7.359596-2.086008-7.359596-5.676262zm36.102521 16.41423c-.790955-4.073647-.990943-8.159367-.990943-12.233013v-19.2973208c0-15.8142575-11.433243-21.490704-24.66602-21.490704-7.655075 0-14.319212 1.0952496-20.688054 3.6857398l.304494 12.1405908c4.957015-2.7904776 10.737773-3.8857326 16.506648-3.8857326 6.455318 0 11.728911 1.8952207 11.836291 8.959338-2.285996-.3999856-5.476459-.7044798-8.359359-.7044798-9.541096 0-26.752219 1.8952207-26.752219 17.7065996 0 11.245328 9.147247 16.309723 19.392623 16.309723 7.359596 0 12.337515-2.87389 16.414225-9.350108h.199993c0 2.694987.29241 5.368884.39998 8.159367zm8.054676 20.887852c3.682672.799966 7.359596 1.202825 11.137759 1.202825 16.41442 0 20.288074-12.636062 25.361674-25.669042l19.004715-48.2398534h-17.90946l-10.642482 33.8163354h-.199993l-11.140827-33.8163354h-19.288116l20.983344 53.0089594c-1.295248 4.578129-4.67362 7.168619-9.054635 7.168619-2.494998 0-4.673614-.304494-7.064111-1.095255z" fill="#fff"/><path d="m59.9519001 103.776575c0-7.0641172 3.4857525-12.9374881 10.1498895-12.9374881 8.0550548 0 11.4334323 6.4641389 11.4334323 12.2330141 0 7.959569-5.0736 13.328458-11.4334323 13.328458-5.3688892 0-10.1498895-4.569119-10.1498895-12.623984zm38.8928091-25.4659859h-16.2142377v9.3470448h-.1881037c-3.7902413-6.3686529-9.9619698-10.5498642-17.6139815-10.5498642-16.1099256 0-23.3738408 11.5496279-23.3738408 26.9640943 0 15.318976 8.8546417 26.056944 23.066473 26.056944 7.1714922 0 13.1403545-2.790483 17.4139941-8.854642h.1999874v2.790288c0 10.141064-5.5688766 15.014676-15.9068645 15.014676-7.4640974 0-12.0451048-1.590726-17.5096748-4.273634l-.8952623 14.12804c4.1693277 1.495235 11.2334395 3.285949 19.7956708 3.285949 20.8878521 0 31.22584-6.867193 31.22584-28.155031zm30.2588698-21.5833164h-17.906397v13.1284708h17.906397zm-17.897387 73.4015353h17.897387v-51.8182189h-17.897387zm67.749056-52.4210654c-1.790719-.2926052-3.981224-.5999729-6.064354-.5999729-7.759386 0-12.233013 4.1812113-15.318975 10.749857h-.199993v-9.5470376h-16.309723v51.8182189h17.90045v-21.875732c0-10.1498844 4.68263-16.214238 13.032979-16.214238 2.095019 0 4.073642 0 6.064354.5878945zm30.826244 41.0833134c-8.254864 0-11.633236-6.864124-11.633236-14.519204 0-7.7593869 3.378372-14.6235114 11.633236-14.6235114 8.263868 0 11.645119 6.8641245 11.645119 14.6235114 0 7.65508-3.381251 14.519204-11.645119 14.519204zm0 12.528493c17.109494 0 30.142474-9.938003 30.142474-27.047697 0-17.2139962-13.03298-27.1640823-30.142474-27.1640823-17.106626 0-30.13059 9.9500861-30.13059 27.1640823 0 17.109694 13.023964 27.047697 30.13059 27.047697z" fill="#ff0007"/></g></svg>