<svg height="32" viewBox="0 0 51 32" width="51" xmlns="http://www.w3.org/2000/svg"><g fill="none" fill-rule="evenodd"><path d="m.5.5h50v31h-50z" fill="#fff" stroke="#d0d0d0"/><g transform="translate(14 10.8)"><path d="m0 1.84928507c0-1.02125855.83220658-1.84928507 1.85824919-1.84928507h20.25173731c1.0264835 0 1.8582396.82802652 1.8582396 1.84928507v6.60868064c0 1.02066426-.8317561 1.84884389-1.8582396 1.84884389h-20.25173731c-1.02604261 0-1.85824919-.82817963-1.85824919-1.84884389z" fill="#000268"/><path d="m.76363636 1.91920346v6.48273224c0 .63806368.52017825 1.15556699 1.16182761 1.15556699h10.61007533v-8.79386633h-10.61007533c-.64164936 0-1.16182761.51749382-1.16182761 1.1555671zm14.51335344 3.20898505c0 .41274291-.2041424.69641208-.5421235.69641208-.2985871 0-.5474925-.28366917-.5474925-.66164861 0-.38796933.2189068-.67641281.5474925-.67641281.3484313 0 .5421235.29844311.5421235.64164934zm-1.9844851 2.36722931h.8948691v-1.40759784h.0099996c.1695131.30844249.5079448.42274228.8211621.42274228.770723 0 1.183466-.63642426 1.183466-1.40237303 0-.62642462-.3927437-1.30821592-1.109155-1.30821592-.4075179 0-.785497.16429745-.9650097.52749321h-.0099997v-.46735224h-.8253324zm4.1317532-1.86510413c0-.24845492.2384553-.34261177.5422674-.34261177.1341551 0 .2636796.00940519.3779794.01477421 0 .30321741-.2138351.61165069-.552267.61165069-.2089072 0-.3679798-.10430043-.3679798-.28381313zm1.805126.82071153c-.0395478-.20368235-.0495471-.40796835-.0495471-.61165069v-.96486602c0-.79071288-.5716622-1.0745352-1.2333011-1.0745352-.3827537 0-.7159605.05476248-1.0344027.18428699l.0152248.60702954c.2478507-.13952388.5368886-.19428663.8253324-.19428663.3227659 0 .5864455.09476104.5918145.4479669-.1142998-.01999928-.2738229-.03522399-.417968-.03522399-.4770548 0-1.3376109.09476104-1.3376109.88532996 0 .56226643.4573624.81548618.9696311.81548618.3679798 0 .6168758-.14369452.8207113-.46750539h.0099996c0 .13474932.0146206.2684442.019999.40796835zm.4027338 1.0443926c.1841336.03999829.3679798.06014124.5568879.06014124.820721 0 1.0144037-.63180311 1.2680837-1.28345209l.9502358-2.41199269h-.895473l-.5321241 1.69081678h-.0099996l-.5570414-1.69081678h-.9644058l1.0491672 2.65044798c-.0647624.22890643-.233681.35843094-.4527317.35843094-.12475 0-.2336808-.01522471-.3532056-.05476275z" fill="#fff"/><path d="m2.99759501 5.18882875c0-.35320586.17428762-.6468744.50749447-.6468744.40275274 0 .57167161.32320694.57167161.61165068 0 .39797845-.25368.66642291-.57167161.66642291-.26844446 0-.50749447-.22845592-.50749447-.63119919zm1.94464045-1.2732993h-.81071189v.46735225h-.00940518c-.18951206-.31843265-.49809849-.52749322-.88069908-.52749322-.80549628 0-1.16869204.5774814-1.16869204 1.34820474 0 .76594877.44273209 1.30284717 1.15332366 1.30284717.35857461 0 .65701772-.13952415.8706997-.44273209h.00999937v.13951441c0 .50705317-.27844383.7507338-.79534322.7507338-.37320487 0-.60225525-.07953632-.87548375-.21368171l-.04476311.70640198c.20846638.07476176.56167198.16429745.98978354.16429745 1.04439261 0 1.561292-.34335964 1.561292-1.40775152zm1.51294349-1.07916581h-.89531986v.65642354h.89531986zm-.89486935 3.67007675h.89486935v-2.59091094h-.89486935zm3.3874528-2.62105326c-.08953596-.01463026-.19906119-.02999865-.30321768-.02999865-.38796933 0-.61165068.20906057-.76594877.53749286h-.00999964v-.47735189h-.81548617v2.59091094h.8950225v-1.09378661c0-.5074942.2341315-.81071188.65164897-.81071188.10475094 0 .20368208 0 .30321768.02939472zm1.5413122 2.05416568c-.4127432 0-.58166178-.34320622-.58166178-.72596022 0-.38796934.16891858-.73117556.58166178-.73117556.4131934 0 .582256.34320622.582256.73117556 0 .382754-.1690626.72596022-.582256.72596022zm0 .62642463c.8554747 0 1.5071237-.49690012 1.5071237-1.35238485 0-.8606998-.651649-1.35820411-1.5071237-1.35820411-.85533132 0-1.50652951.49750431-1.50652951 1.35820411 0 .85548473.65119819 1.35238485 1.50652951 1.35238485z" fill="#ff0007"/></g></g></svg>