<svg xmlns="http://www.w3.org/2000/svg" width="51" height="32" viewBox="0 0 51 32">
  <g fill="none" fill-rule="evenodd">
    <rect width="50" height="31" x=".5" y=".5" fill="#FFF" stroke="#D0D0D0"/>
    <g transform="translate(14 10.8)">
      <path fill="#000268" d="M0,1.84928507 C0,0.828026516 0.832206575,0 1.85824919,0 L22.1099865,0 C23.13647,0 23.9682261,0.828026516 23.9682261,1.84928507 L23.9682261,8.45796571 C23.9682261,9.47862997 23.13647,10.3068096 22.1099865,10.3068096 L1.85824919,10.3068096 C0.832206575,10.3068096 0,9.47862997 0,8.45796571 L0,1.84928507 L0,1.84928507 Z"/>
      <path fill="#FFF" d="M0.763636364,1.91920346 L0.763636364,8.4019357 C0.763636364,9.03999938 1.28381461,9.55750269 1.92546397,9.55750269 L12.5355393,9.55750269 L12.5355393,0.763636364 L1.92546397,0.763636364 C1.28381461,0.763636364 0.763636364,1.28113018 0.763636364,1.91920346 L0.763636364,1.91920346 Z M15.2769898,5.12818851 C15.2769898,5.54093142 15.0728474,5.82460059 14.7348663,5.82460059 C14.4362792,5.82460059 14.1873738,5.54093142 14.1873738,5.16295198 C14.1873738,4.77498265 14.4062806,4.48653917 14.7348663,4.48653917 C15.0832976,4.48653917 15.2769898,4.78498228 15.2769898,5.12818851 Z M13.2925047,7.49541782 L14.1873738,7.49541782 L14.1873738,6.08781998 L14.1973734,6.08781998 C14.3668865,6.39626247 14.7053182,6.51056226 15.0185355,6.51056226 C15.7892585,6.51056226 16.2020015,5.874138 16.2020015,5.10818923 C16.2020015,4.48176461 15.8092578,3.79997331 15.0928465,3.79997331 C14.6853286,3.79997331 14.3073495,3.96427076 14.1278368,4.32746652 L14.1178371,4.32746652 L14.1178371,3.86011428 L13.2925047,3.86011428 L13.2925047,7.49541782 Z M17.4242579,5.63031369 C17.4242579,5.38185877 17.6627132,5.28770192 17.9665253,5.28770192 C18.1006804,5.28770192 18.2302049,5.29710711 18.3445047,5.30247613 C18.3445047,5.60569354 18.1306696,5.91412682 17.7922377,5.91412682 C17.5833305,5.91412682 17.4242579,5.80982639 17.4242579,5.63031369 Z M19.2293839,6.45102522 C19.1898361,6.24734287 19.1798368,6.04305687 19.1798368,5.83937453 L19.1798368,4.87450851 C19.1798368,4.08379563 18.6081746,3.79997331 17.9465357,3.79997331 C17.563782,3.79997331 17.2305752,3.85473579 16.912133,3.9842603 L16.9273578,4.59128984 C17.1752085,4.45176596 17.4642464,4.39700321 17.7526902,4.39700321 C18.0754561,4.39700321 18.3391357,4.49176425 18.3445047,4.84497011 C18.2302049,4.82497083 18.0706818,4.80974612 17.9265367,4.80974612 C17.4494819,4.80974612 16.5889258,4.90450716 16.5889258,5.69507608 C16.5889258,6.25734251 17.0462882,6.51056226 17.5585569,6.51056226 C17.9265367,6.51056226 18.1754327,6.36686774 18.3792682,6.04305687 L18.3892678,6.04305687 C18.3892678,6.17780619 18.4038884,6.31150107 18.4092668,6.45102522 L19.2293839,6.45102522 Z M19.6321177,7.49541782 C19.8162513,7.53541611 20.0000975,7.55555906 20.1890056,7.55555906 C21.0097266,7.55555906 21.2034093,6.92375595 21.4570893,6.27210697 L22.4073251,3.86011428 L21.5118521,3.86011428 L20.979728,5.55093106 L20.9697284,5.55093106 L20.412687,3.86011428 L19.4482812,3.86011428 L20.4974484,6.51056226 C20.432686,6.73946869 20.2637674,6.8689932 20.0447167,6.8689932 C19.9199667,6.8689932 19.8110359,6.85376849 19.6915111,6.81423045 L19.6321177,7.49541782 Z"/>
      <path fill="#FF0007" d="M2.99759501,5.18882875 C2.99759501,4.83562289 3.17188263,4.54195435 3.50508948,4.54195435 C3.90784222,4.54195435 4.07676109,4.86516129 4.07676109,5.15360503 C4.07676109,5.55158348 3.82308109,5.82002794 3.50508948,5.82002794 C3.23664502,5.82002794 2.99759501,5.59157202 2.99759501,5.18882875 Z M4.94223546,3.91552945 L4.13152357,3.91552945 L4.13152357,4.3828817 L4.12211839,4.3828817 C3.93260633,4.06444905 3.6240199,3.85538848 3.24141931,3.85538848 C2.43592303,3.85538848 2.07272727,4.43286988 2.07272727,5.20359322 C2.07272727,5.96954199 2.51545936,6.50644039 3.22605093,6.50644039 C3.58462554,6.50644039 3.88306865,6.36691624 4.09675063,6.0637083 L4.10675,6.0637083 L4.10675,6.20322271 C4.10675,6.71027588 3.82830617,6.95395651 3.31140678,6.95395651 C2.93820191,6.95395651 2.70915153,6.87442019 2.43592303,6.7402748 L2.39115992,7.44667678 C2.5996263,7.52143854 2.9528319,7.61097423 3.38094346,7.61097423 C4.42533607,7.61097423 4.94223546,7.26761459 4.94223546,6.20322271 L4.94223546,3.91552945 Z M6.45517895,2.83636364 L5.55985909,2.83636364 L5.55985909,3.49278718 L6.45517895,3.49278718 L6.45517895,2.83636364 Z M5.5603096,6.50644039 L6.45517895,6.50644039 L6.45517895,3.91552945 L5.5603096,3.91552945 L5.5603096,6.50644039 Z M8.9477624,3.88538713 C8.85822644,3.87075687 8.74870121,3.85538848 8.64454472,3.85538848 C8.25657539,3.85538848 8.03289404,4.06444905 7.87859595,4.39288134 L7.86859631,4.39288134 L7.86859631,3.91552945 L7.05311014,3.91552945 L7.05311014,6.50644039 L7.94813264,6.50644039 L7.94813264,5.41265378 C7.94813264,4.90515958 8.18226414,4.6019419 8.59978161,4.6019419 C8.70453255,4.6019419 8.80346369,4.6019419 8.90299929,4.63133662 L8.9477624,3.88538713 Z M10.4890746,5.93955281 C10.0763314,5.93955281 9.90741282,5.59634659 9.90741282,5.21359259 C9.90741282,4.82562325 10.0763314,4.48241703 10.4890746,4.48241703 C10.902268,4.48241703 11.0713306,4.82562325 11.0713306,5.21359259 C11.0713306,5.59634659 10.902268,5.93955281 10.4890746,5.93955281 Z M10.4890746,6.56597744 C11.3445493,6.56597744 11.9961983,6.06907732 11.9961983,5.21359259 C11.9961983,4.35289279 11.3445493,3.85538848 10.4890746,3.85538848 C9.63374328,3.85538848 8.98254509,4.35289279 8.98254509,5.21359259 C8.98254509,6.06907732 9.63374328,6.56597744 10.4890746,6.56597744 Z"/>
    </g>
  </g>
</svg>
