<svg width="32" height="24" viewBox="0 0 32 24" fill="none" xmlns="http://www.w3.org/2000/svg">
<clipPath id="clip">
<rect width="32" height="24" rx="4" fill="#fff"/>
</clipPath>
<rect width="32" height="24" rx="4" fill="#fff" stroke="#E6E6E6" stroke-width="2" clip-path="url(#clip)"/>
<path fill-rule="evenodd" clip-rule="evenodd" d="M10.8634 13.5236C10.6106 14.3083 10.5973 15.1596 10.8102 15.9577C11.3156 17.8597 13.0447 19.1765 15 19.1765C16.9553 19.1765 18.6844 17.8597 19.1898 15.9577C19.4027 15.1596 19.3894 14.3083 19.1366 13.5236L19.1233 13.4704V13.4172C19.0967 12.8585 19.4559 12.3398 20.0012 12.1669C20.5333 11.994 21.1318 12.2068 21.4377 12.6856L21.4643 12.7255L21.4776 12.7787C21.8634 14.0157 21.9033 15.3325 21.5574 16.5828C20.8658 19.1765 18.7243 21.0786 16.1439 21.5175L16.2237 21.5042V23.5393V25.9335C15.8247 25.9734 15.4123 26 15 26C14.5877 26 14.1753 25.9734 13.7763 25.9335C8.26965 25.3216 4 20.6663 4 15C4 8.9214 8.9214 4 15 4C21.0786 4 26 8.9214 26 15C26 20.2539 22.3156 24.6566 17.3809 25.7473V23.3132C20.9988 22.2757 23.6324 18.9504 23.6324 15C23.6324 10.2249 19.7618 6.35429 14.9867 6.35429C10.2116 6.35429 6.34099 10.2249 6.34099 15C6.34099 19.3628 9.55986 22.9674 13.763 23.5526V21.5175C13.7763 21.5175 9.58646 20.8924 8.42926 16.5961C8.09673 15.3458 8.12334 14.0157 8.50907 12.792L8.52237 12.7388L8.54897 12.6989C8.8549 12.2201 9.44014 12.0206 9.98549 12.1802C10.5175 12.3531 10.89 12.8585 10.8634 13.4305V13.4837V13.5236ZM17.1282 11.3156L18.3519 9.18742C17.1814 8.52237 15.8247 8.22975 14.4281 8.32285L14.3083 8.33616C13.3773 8.41596 12.4728 8.72189 11.6614 9.18742L12.8851 11.3023C14.1886 10.5707 15.8114 10.5707 17.1282 11.3156ZM15 12.5127C16.37 12.5127 17.4873 13.63 17.4873 15C17.4873 16.37 16.37 17.4873 15 17.4873C13.63 17.4873 12.5127 16.37 12.5127 15C12.5127 13.63 13.63 12.5127 15 12.5127Z" fill="#00A2E9" transform="scale(.8) translate(5 0)"/>
</svg>
