<?xml version="1.0" encoding="UTF-8" standalone="no"?>
<svg
   width="32"
   height="24"
   viewBox="0 0 32 24"
   fill="none"
   version="1.1"
   id="svg1153"
   sodipodi:docname="ideal-issuer-yoursafe-mollie-32x24.svg"
   inkscape:version="1.2.2 (b0a8486, 2022-12-01)"
   xmlns:inkscape="http://www.inkscape.org/namespaces/inkscape"
   xmlns:sodipodi="http://sodipodi.sourceforge.net/DTD/sodipodi-0.dtd"
   xmlns="http://www.w3.org/2000/svg"
   xmlns:svg="http://www.w3.org/2000/svg">
  <defs
     id="defs1157" />
  <sodipodi:namedview
     id="namedview1155"
     pagecolor="#ffffff"
     bordercolor="#666666"
     borderopacity="1.0"
     inkscape:showpageshadow="2"
     inkscape:pageopacity="0.0"
     inkscape:pagecheckerboard="true"
     inkscape:deskcolor="#d1d1d1"
     showgrid="false"
     inkscape:zoom="7.8666667"
     inkscape:cx="8.1355932"
     inkscape:cy="10.487288"
     inkscape:window-width="1245"
     inkscape:window-height="851"
     inkscape:window-x="3634"
     inkscape:window-y="460"
     inkscape:window-maximized="0"
     inkscape:current-layer="svg1153" />
  <path
     d="M 28,0 H 4 A 4,4 0 0 0 0,4 v 16 a 4,4 0 0 0 4,4 h 24 a 4,4 0 0 0 4,-4 V 4 A 4,4 0 0 0 28,0 Z"
     fill="#8ace00"
     id="path1276"
     style="fill:#ffffff" />
  <path
     fill-rule="evenodd"
     clip-rule="evenodd"
     d="m 13.0758,10.956322 c -0.178707,0.554712 -0.188109,1.156504 -0.03761,1.720688 0.357272,1.344541 1.579589,2.275399 2.961808,2.275399 1.382219,0 2.604536,-0.930858 2.961808,-2.275399 0.150501,-0.564184 0.141099,-1.165976 -0.03761,-1.720688 l -0.0094,-0.03761 v -0.03761 c -0.0188,-0.39495 0.235118,-0.761624 0.620596,-0.8838486 0.376146,-0.1222246 0.799231,0.028206 1.015475,0.3666736 l 0.0188,0.0282 0.0094,0.03761 c 0.272726,0.874446 0.300932,1.805303 0.05641,2.689152 -0.488899,1.833511 -2.002744,3.178122 -3.826853,3.488384 l 0.05641,-0.0094 v 1.438631 1.692482 c -0.282057,0.0282 -0.573586,0.04701 -0.865045,0.04701 -0.291459,0 -0.582988,-0.0188 -0.865045,-0.04701 C 11.242254,19.296435 8.224,16.005561 8.224,12.000003 8.224,7.7029849 11.702982,4.2240025 16,4.2240025 c 4.297018,0 7.776,3.4789824 7.776,7.7760005 0,3.71403 -2.604536,6.826337 -6.09292,7.597363 v -1.720687 c 2.557526,-0.733419 4.419242,-3.084103 4.419242,-5.876677 0,-3.3755611 -2.736162,-6.1117305 -6.111724,-6.1117305 -3.375561,0 -6.1117309,2.7361694 -6.1117309,6.1117305 0,3.084103 2.2754489,5.632227 5.2466859,6.045911 v -1.438631 c 0.0094,0 -2.952434,-0.441889 -3.770469,-3.478981 -0.235068,-0.883849 -0.216257,-1.824109 0.05642,-2.689153 l 0.0094,-0.03761 0.0188,-0.02821 c 0.216267,-0.338462 0.629978,-0.4794904 1.015491,-0.366668 0.376083,0.122225 0.639407,0.479497 0.620603,0.883849 v 0.03761 z M 17.504444,9.3954666 18.369489,7.8910369 C 17.542051,7.420907 16.582988,7.2140512 15.595719,7.2798645 l -0.08469,0.00941 c -0.65813,0.05641 -1.29753,0.272675 -1.871116,0.6017624 l 0.865045,1.4950279 c 0.921456,-0.5171747 2.068628,-0.5171747 2.999486,0.0094 z M 16,10.241708 c 0.968465,0 1.758295,0.78983 1.758295,1.758295 0,0.968465 -0.78983,1.758295 -1.758295,1.758295 -0.968465,0 -1.758295,-0.78983 -1.758295,-1.758295 0,-0.968465 0.78983,-1.758295 1.758295,-1.758295 z"
     fill="#00a2e9"
     id="path1151"
     style="stroke-width:0.706909" />
</svg>
