<?xml version="1.0" encoding="UTF-8" standalone="no"?>
<svg
   width="640"
   height="360"
   viewBox="0 0 640 360"
   version="1.1"
   id="svg7"
   sodipodi:docname="ideal-issuer-yoursafe-640x360.svg"
   inkscape:version="1.3.2 (091e20e, 2023-11-25)"
   xmlns:inkscape="http://www.inkscape.org/namespaces/inkscape"
   xmlns:sodipodi="http://sodipodi.sourceforge.net/DTD/sodipodi-0.dtd"
   xmlns="http://www.w3.org/2000/svg"
   xmlns:svg="http://www.w3.org/2000/svg"
   xmlns:rdf="http://www.w3.org/1999/02/22-rdf-syntax-ns#"
   xmlns:cc="http://creativecommons.org/ns#"
   xmlns:dc="http://purl.org/dc/elements/1.1/">
  <defs
     id="defs7" />
  <sodipodi:namedview
     id="namedview7"
     pagecolor="#ffffff"
     bordercolor="#666666"
     borderopacity="1.0"
     inkscape:showpageshadow="2"
     inkscape:pageopacity="0.0"
     inkscape:pagecheckerboard="true"
     inkscape:deskcolor="#d1d1d1"
     inkscape:zoom="0.26016915"
     inkscape:cx="1241.5"
     inkscape:cy="269.05573"
     inkscape:window-width="1472"
     inkscape:window-height="819"
     inkscape:window-x="2502"
     inkscape:window-y="526"
     inkscape:window-maximized="0"
     inkscape:current-layer="svg7" />
  <title
     id="title1">Untitled 12</title>
  <g
     id="Page-1"
     stroke="none"
     stroke-width="1"
     fill="none"
     fill-rule="evenodd"
     transform="matrix(0.20621303,0,0,0.20621303,63.999998,123.91006)">
    <g
       id="ideal-issuer-yoursafe-640x360"
       fill="#00a1e9">
      <path
         d="m 169.71567,235.86821 c -6.18038,19.46325 -6.60796,40.37409 -1.31376,60.10011 12.55823,46.88415 55.13547,79.46708 103.56505,79.46708 48.42956,0 91.0068,-32.61557 103.56503,-79.46708 5.2942,-19.72602 4.83398,-40.63686 -1.31376,-60.10011 l -0.3623,-1.18484 -0.0326,-1.24848 c -0.52551,-13.94056 8.35094,-26.59837 21.66642,-30.83994 13.31547,-4.24158 27.88108,0.95309 35.47476,12.65781 l 0.69034,1.05263 0.3623,1.1832 c 9.69897,30.47765 10.38931,63.25804 2.10365,94.16327 -17.1621,64.04629 -70.096,111.06101 -133.68195,122.01011 l 1.84253,-0.32967 v 50.20528 58.78635 C 292.35065,543.40922 282.22572,544 271.99962,544 261.77514,544 251.64859,543.44186 241.7195,542.32393 105.76856,527.26545 0,411.96287 0,272.00073 0,121.77984 121.78059,0 271.9996,0 422.22022,0 544,121.77984 544,272.00073 544,401.93422 452.89528,510.59618 331.08123,537.55685 v -60.13438 c 89.26382,-25.64528 154.59275,-107.90634 154.59275,-205.42174 0,-118.00028 -95.67432,-213.674933 -213.67438,-213.674933 -118.03109,0 -213.673908,95.674653 -213.673908,213.674933 0,107.74152 79.729208,196.84068 183.393788,211.56949 v -50.20365 c 0.42758,0.0652 -103.40184,-15.58399 -131.84105,-121.68207 -8.28534,-30.87259 -7.59484,-63.68562 2.10364,-94.16327 l 0.3623,-1.1832 0.69034,-1.05263 c 7.62796,-11.70472 22.19193,-16.89939 35.47477,-12.65781 13.31547,4.24157 22.19355,16.86674 21.66642,30.83994 l -0.0326,1.24848 z m 154.75759,-54.87444 30.31276,-52.53904 c -28.99737,-16.37388 -62.56595,-23.77093 -96.95708,-21.2064 l -3.08937,0.29587 c -23.08137,2.07069 -45.47076,9.5012 -65.59168,21.04271 l 30.24747,52.40686 c 32.45067,-18.18214 72.62723,-18.18214 105.0779,0 z m -52.53894,29.62247 c -33.89663,0 -61.35012,27.48618 -61.35012,61.35185 0,33.89668 27.48613,61.35022 61.35012,61.35022 33.89661,0 61.35011,-27.48618 61.35011,-61.35022 0,-33.89831 -27.4535,-61.35185 -61.35011,-61.35185 z"
         id="path2" />
    </g>
    <g
       id="yoursafe"
       transform="translate(631.68,69.72)"
       fill="#253a78"
       fill-rule="nonzero">
      <polygon
         id="Path"
         points="237.6,96.36 178.2,96.36 138.6,191.4 116.16,251.24 95.48,190.08 62.48,96.36 0,96.36 86.68,309.76 46.2,403.92 105.16,403.92 " />
      <path
         d="m 367.84,91.96 c -69.08,0 -112.2,51.04 -112.2,113.08 0,62.48 42.24,113.08 112.64,113.08 70.4,0 113.08,-50.6 113.08,-113.08 C 481.36,143 436.92,91.96 367.84,91.96 Z m 0.44,48.84 c 36.08,0 58.96,31.68 58.96,64.24 0,33 -19.8,63.8 -58.96,63.8 -39.16,0 -58.96,-30.8 -58.96,-63.8 0,-32.56 20.24,-64.24 58.96,-64.24 z"
         id="Shape" />
      <path
         d="m 519.64,96.36 v 113.96 c 0,67.32 37.84,106.48 89.76,106.48 30.36,0 51.04,-10.56 73.48,-32.56 l 3.52,29.48 h 47.96 V 96.36 h -53.24 v 110.88 c 0,33 -22.44,60.72 -55.44,60.72 -34.32,0 -52.36,-25.08 -52.36,-58.08 V 96.36 Z"
         id="path1" />
      <path
         d="m 781.88,96.36 v 216.92 h 53.68 v -114.4 c 0,-40.04 25.96,-55 54.12,-55 17.6,0 27.72,4.84 38.72,14.08 l 24.2,-46.64 C 940.72,99.44 919.16,90.64 896.72,90.64 c -22,0 -44.44,3.96 -61.16,30.8 L 831.6,96.36 Z"
         id="path3" />
      <path
         d="m 1144.44,118.8 c -25.08,-22 -50.6,-28.6 -84.48,-28.6 -39.6,0 -91.52,17.6 -91.52,67.76 0,49.28 48.84,64.24 89.76,67.32 30.8,1.76 43.12,7.92 43.12,22.88 0,15.84 -18.92,26.4 -39.16,25.96 -24.2,-0.44 -59.4,-13.2 -74.8,-30.36 l -26.4,38.28 c 31.68,33 66,38.72 100.32,38.72 62.04,0 93.28,-33 93.28,-71.28 0,-57.64 -51.92,-66.88 -92.84,-69.52 -27.72,-1.76 -40.48,-9.68 -40.48,-23.76 0,-13.64 14.08,-21.56 39.6,-21.56 20.68,0 38.28,4.84 53.68,19.36 z"
         id="path4" />
      <path
         d="m 1359.16,126.28 c -12.32,-21.56 -40.04,-35.2 -69.08,-35.2 C 1226.72,90.64 1177,129.8 1177,204.6 c 0,76.12 47.52,115.72 111.76,115.28 24.2,-0.44 58.08,-12.76 70.4,-38.28 l 2.64,31.68 h 50.6 V 96.36 h -51.48 z m -64.24,12.76 c 84.48,0 84.48,131.56 0,131.56 -35.64,0 -64.24,-24.64 -64.24,-66 0,-41.36 28.6,-65.56 64.24,-65.56 z"
         id="path5" />
      <path
         d="M 1529,313.28 V 146.52 h 63.8 V 99.44 H 1529 V 84.92 c 0,-26.4 14.08,-38.72 32.56,-38.72 11,0 21.56,3.96 33,11.44 l 19.8,-40.04 C 1596.76,6.16 1576.96,0 1558.04,0 c -43.56,0 -82.72,26.84 -82.72,84.92 v 14.52 h -40.48 v 47.08 h 40.48 v 166.76 z"
         id="path6" />
      <path
         d="m 1850.2,223.96 c 8.36,-89.32 -36.96,-134.2 -109.56,-134.2 -70.4,0 -115.28,47.52 -115.28,113.52 0,69.52 44.44,115.72 119.24,115.72 33,0 70.4,-11.44 93.28,-35.2 l -34.32,-33.88 c -12.32,12.76 -38.28,20.24 -58.08,20.24 -37.84,0 -61.16,-19.36 -64.68,-46.2 z m -168.52,-44.44 c 7.92,-28.16 31.68,-42.24 60.72,-42.24 30.8,0 52.8,14.08 56.32,42.24 z"
         id="path7" />
    </g>
  </g>
  <metadata
     id="metadata7">
    <rdf:RDF>
      <cc:Work
         rdf:about="">
        <dc:title>Untitled 12</dc:title>
      </cc:Work>
    </rdf:RDF>
  </metadata>
</svg>
