<?xml version="1.0" encoding="UTF-8" standalone="no"?>
<svg
   width="512"
   height="512"
   viewBox="0 0 512 512"
   fill="none"
   version="1.1"
   id="svg2"
   sodipodi:docname="ideal-issuer-yoursafe-icon-512x512.svg"
   inkscape:version="1.3.2 (091e20e, 2023-11-25)"
   xmlns:inkscape="http://www.inkscape.org/namespaces/inkscape"
   xmlns:sodipodi="http://sodipodi.sourceforge.net/DTD/sodipodi-0.dtd"
   xmlns="http://www.w3.org/2000/svg"
   xmlns:svg="http://www.w3.org/2000/svg">
  <defs
     id="defs2" />
  <sodipodi:namedview
     id="namedview2"
     pagecolor="#ffffff"
     bordercolor="#666666"
     borderopacity="1.0"
     inkscape:showpageshadow="2"
     inkscape:pageopacity="0.0"
     inkscape:pagecheckerboard="true"
     inkscape:deskcolor="#d1d1d1"
     inkscape:zoom="5.9"
     inkscape:cx="20"
     inkscape:cy="19.915254"
     inkscape:window-width="1224"
     inkscape:window-height="804"
     inkscape:window-x="2092"
     inkscape:window-y="540"
     inkscape:window-maximized="0"
     inkscape:current-layer="svg2" />
  <path
     fill-rule="evenodd"
     clip-rule="evenodd"
     d="m 159.7324,221.99321 c -5.81683,18.31832 -6.21926,37.99908 -1.23648,56.56471 11.81951,44.12618 51.8922,74.79241 97.47298,74.79241 45.58077,0 85.65346,-30.69695 97.47297,-74.79241 4.98278,-18.56563 4.54963,-38.24639 -1.23648,-56.56471 l -0.34099,-1.11514 -0.0307,-1.17504 c -0.49459,-13.1205 7.85971,-25.03371 20.39193,-29.02577 12.53221,-3.99207 26.24101,0.89702 33.38801,11.91321 l 0.64973,0.99071 0.34099,1.1136 c 9.12844,28.68479 9.77817,59.53687 1.9799,88.62409 -16.15256,60.27875 -65.9727,104.52782 -125.8183,114.83284 l 1.73414,-0.31028 v 47.25195 55.32823 c -9.34655,1.02144 -18.87589,1.57747 -28.50046,1.57747 -9.62304,0 -19.15391,-0.52531 -28.49893,-1.57747 C 99.54688,496.24894 0,387.72906 0,256.00023 0,114.61611 114.61703,0 255.99962,0 397.38374,0 512,114.61611 512,256.00023 512,378.29035 426.25438,480.56025 311.60586,505.93495 v -56.59696 c 84.01301,-24.13669 145.49906,-101.55873 145.49906,-193.33776 0,-111.05889 -90.04642,-201.105461 -201.1053,-201.105461 -111.08808,0 -201.104851,90.046571 -201.104851,201.105461 0,101.4036 75.039251,185.26148 172.605921,199.12387 v -47.25041 c 0.40243,0.0614 -97.31938,-14.66726 -124.0857,-114.5241 -7.797963,-29.0565 -7.148081,-59.9393 1.9799,-88.62409 l 0.34099,-1.1136 0.64973,-0.99071 c 7.17926,-11.01619 20.88652,-15.90528 33.38802,-11.91321 12.53221,3.99206 20.88805,15.87455 20.39192,29.02577 l -0.0307,1.17504 z m 145.6542,-51.64644 28.52965,-49.44842 c -27.29164,-15.41068 -58.8856,-22.3726 -91.25372,-19.95893 l -2.90764,0.27847 c -21.72364,1.94888 -42.79601,8.94229 -61.73335,19.80487 l 28.46821,49.32401 c 30.54181,-17.11257 68.35504,-17.11257 98.89685,0 z m -49.44842,27.87992 c -31.90271,0 -57.74129,25.8693 -57.74129,57.74282 0,31.9027 25.8693,57.74128 57.74129,57.74128 31.9027,0 57.74128,-25.8693 57.74128,-57.74128 0,-31.90424 -25.83858,-57.74282 -57.74128,-57.74282 z"
     fill="#00a1e9"
     id="path2"
     style="stroke-width:15.36" />
</svg>
