<svg width="40" height="40" viewBox="0 0 40 40" fill="none" xmlns="http://www.w3.org/2000/svg">
<path d="M40 0H0V40H40V0Z" fill="white"/>
<path fill-rule="evenodd" clip-rule="evenodd" d="M13.7325 17.786C13.3538 18.9786 13.3276 20.2599 13.652 21.4686C14.4215 24.3414 17.0304 26.3379 19.9979 26.3379C22.9654 26.3379 25.5743 24.3394 26.3438 21.4686C26.6682 20.2599 26.64 18.9786 26.2633 17.786L26.2411 17.7134L26.2391 17.6369C26.2069 16.7827 26.7508 16.0071 27.5667 15.7472C28.3826 15.4873 29.2751 15.8056 29.7404 16.5228L29.7827 16.5873L29.8049 16.6598C30.3992 18.5273 30.4415 20.5359 29.9338 22.4296C28.8822 26.354 25.6387 29.2348 21.7425 29.9057L21.8554 29.8855V32.9618V36.5639C21.2469 36.6304 20.6265 36.6666 19.9999 36.6666C19.3734 36.6666 18.7529 36.6324 18.1445 36.5639C9.81417 35.6412 3.33325 28.5761 3.33325 20C3.33325 10.7953 10.7953 3.33331 19.9999 3.33331C29.2046 3.33331 36.6666 10.7953 36.6666 20C36.6666 27.9616 31.0842 34.6198 23.6201 36.2718V32.5871C29.0897 31.0157 33.0927 25.9752 33.0927 20C33.0927 12.7696 27.2303 6.90719 19.9999 6.90719C12.7676 6.90719 6.90713 12.7696 6.90713 20C6.90713 26.6018 11.7925 32.0613 18.1445 32.9638V29.8876C18.1707 29.8916 11.8086 28.9327 10.066 22.4316C9.55832 20.5399 9.60063 18.5293 10.1949 16.6618L10.2171 16.5893L10.2594 16.5248C10.7268 15.8076 11.6192 15.4893 12.4331 15.7492C13.249 16.0091 13.793 16.7827 13.7607 17.6389L13.7587 17.7154L13.7325 17.786ZM23.2152 14.4236L25.0726 11.2043C23.2958 10.201 21.2389 9.74775 19.1316 9.90489L18.9423 9.92302C17.528 10.0499 16.1561 10.5052 14.9232 11.2124L16.7766 14.4236C18.765 13.3095 21.2268 13.3095 23.2152 14.4236ZM19.9959 16.2387C17.9189 16.2387 16.2367 17.9229 16.2367 19.998C16.2367 22.075 17.9209 23.7572 19.9959 23.7572C22.0729 23.7572 23.7551 22.073 23.7551 19.998C23.7551 17.9209 22.0729 16.2387 19.9959 16.2387Z" fill="#00A1E9"/>
</svg>
