<?xml version="1.0" encoding="UTF-8" standalone="no"?>
<svg
   width="51"
   height="32"
   viewBox="0 0 51 32"
   version="1.1"
   id="svg1181"
   sodipodi:docname="iban-wc-51x32.svg"
   inkscape:version="1.3.2 (091e20e, 2023-11-25)"
   xmlns:inkscape="http://www.inkscape.org/namespaces/inkscape"
   xmlns:sodipodi="http://sodipodi.sourceforge.net/DTD/sodipodi-0.dtd"
   xmlns="http://www.w3.org/2000/svg"
   xmlns:svg="http://www.w3.org/2000/svg">
  <defs
     id="defs1185">
    <clipPath
       clipPathUnits="userSpaceOnUse"
       id="clipPath1294">
      <path
         d="M 0,0 H 595.276 V 841.89 H 0 Z"
         id="path1292" />
    </clipPath>
    <clipPath
       clipPathUnits="userSpaceOnUse"
       id="clipPath1326">
      <path
         d="M 0,0 H 595.276 V 841.89 H 0 Z"
         id="path1324" />
    </clipPath>
  </defs>
  <sodipodi:namedview
     id="namedview1183"
     pagecolor="#ffffff"
     bordercolor="#666666"
     borderopacity="1.0"
     inkscape:showpageshadow="2"
     inkscape:pageopacity="0.0"
     inkscape:pagecheckerboard="0"
     inkscape:deskcolor="#d1d1d1"
     showgrid="false"
     inkscape:zoom="7.375"
     inkscape:cx="9.0169492"
     inkscape:cy="31.186441"
     inkscape:window-width="1384"
     inkscape:window-height="725"
     inkscape:window-x="408"
     inkscape:window-y="105"
     inkscape:window-maximized="0"
     inkscape:current-layer="g1179" />
  <g
     fill="none"
     fill-rule="evenodd"
     id="g1179">
    <rect
       width="50"
       height="31"
       x=".5"
       y=".5"
       fill="#FFF"
       stroke="#D0D0D0"
       id="rect1175" />
    <g
       id="surface1"
       transform="matrix(0.02827754,0,0,0.02827754,17.114774,11.449511)">
      <path
         style="fill:#0cbd8f;fill-opacity:1;fill-rule:evenodd;stroke:none"
         d="m -137.87109,17.964844 c 39.738277,-17.609375 86.929684,-17.511719 126.570309,0.359375 23.9375,10.660156 45.039062,27.53125 60.847656,48.421875 -1.929687,2.929687 -3.917969,5.820312 -5.890625,8.71875 -15.617187,23.460937 -24.199219,51.339846 -25.328125,79.449216 -1.21875,32.80078 7.929688,66.10156 26.53125,93.22266 1.589844,2.28906 3.167969,4.5664 4.730469,6.86719 -18.113281,24.0625 -43.332031,42.69921 -71.691407,52.83984 -29.820312,10.75 -62.941406,12.0625 -93.550777,3.83984 -32.39844,-8.60937 -61.73047,-28.14062 -82.32032,-54.57031 -18.85937,-23.98828 -30.42968,-53.63672 -32.64062,-84.07031 -2.51953,-31.00781 4.5625,-62.73828 20.10156,-89.707032 16.4375,-28.769532 42.26953,-52.089844 72.64063,-65.371094 z m 767.98828,-8.46875 c 37.92968,-9.511719 79.44922,-4.421875 113.64062,14.699219 24.69922,13.578125 45.53125,34.039062 59.67188,58.410156 13.63672,23.640621 21.33984,50.949221 20.70703,78.308591 0.60156,24.12891 -5.41797,48.22266 -16.10938,69.78906 -13.8789,27.86329 -36.35937,51.33204 -63.51953,66.53125 -28.73828,16.19922 -62.71094,22.64844 -95.41797,18.60938 -41.38281,-4.91797 -80.55078,-27.33984 -105.26172,-60.95703 9.76172,-13.49219 17.96875,-28.1836 23.14844,-44.05078 12.14063,-36 10.6211,-76.39063 -4.41015,-111.300784 -4.70704,-11.75 -11.63672,-22.390625 -18.76954,-32.789062 21.15235,-28.160156 52.15235,-48.742188 86.32032,-57.25 z m -508.23047,4.257812 c 28.14062,-10.019531 59.17969,-11.558593 88.25,-4.800781 33.92969,7.953125 64.98047,27.722656 86.48047,55.152344 21.83984,-27.628906 53.17968,-47.621094 87.57031,-55.371094 36.14062,-8.25 75.21094,-3.359375 107.96094,14.121094 20.08984,10.710937 37.96093,25.730469 51.57031,44.007812 -17.90234,24.03125 -29.10156,53.160159 -30.90234,83.132809 -2.98829,37.23828 8.58203,75.16016 30.92968,105.01953 -19.92968,26.42969 -48.4375,46.27735 -80.21875,55.59766 -43.32812,12.99219 -92.23047,5.99219 -129.91797,-19.10937 -14.0625,-9.12891 -26.47265,-20.69922 -36.9414,-33.75782 -20.75,26.27735 -50.10938,45.62891 -82.51172,54.12891 -25.38672,6.69141 -52.46875,6.80859 -77.94922,0.50781 C 101.94922,303.83594 70.6875,283.30469 49.65625,254.91406 72.4375,224.57422 83.847656,185.80469 80.335938,147.97656 78.238281,118.70313 67.109375,90.34375 49.628906,66.855469 67.71875,42.503906 93.335938,23.925781 121.88672,13.753906 Z m 0,0"
         id="path1" />
      <path
         style="fill:#008f66;fill-opacity:1;fill-rule:evenodd;stroke:none"
         d="m 288.24609,76.046875 c 2.60157,-4.023437 5.24219,-8.0625 8.57032,-11.53125 19.91015,25.097656 31.54296,56.488285 33.12109,88.460935 1.99219,37.23828 -9.84766,75.1875 -33.17969,104.35938 -6.32031,-7.24219 -11.25,-15.63282 -15.82031,-24.05078 -16.94141,-32.03125 -21.94141,-70.08204 -14.21094,-105.42969 3.89063,-18.40234 11.25,-36.062501 21.51953,-51.808595 z m -238.699215,-9.300781 0.08203,0.109375 c 17.48047,23.488281 28.609376,51.847661 30.707033,81.121091 3.511718,37.82813 -7.898438,76.59766 -30.679688,106.9375 l -0.06641,0.0898 c -1.5625,-2.30079 -3.140625,-4.57813 -4.730469,-6.86719 -18.601562,-27.1211 -27.75,-60.42188 -26.53125,-93.22266 1.128906,-28.10937 9.710938,-55.988279 25.328125,-79.449216 1.972656,-2.898438 3.960938,-5.789063 5.890625,-8.71875 z m 494.171875,0.117187 0.0781,-0.117187 c 7.13282,10.398437 14.0625,21.039062 18.76954,32.789062 15.03125,34.910154 16.55078,75.300784 4.41015,111.300784 -5.17969,15.86718 -13.38672,30.55859 -23.14844,44.05078 l -0.082,0.1289 c -22.34765,-29.85937 -33.91797,-67.78125 -30.92968,-105.01953 1.80078,-29.97265 13,-59.101559 30.90234,-83.132809 z m 0,0"
         id="path2" />
      <path
         style="fill:#fdfdfd;fill-opacity:1;fill-rule:evenodd;stroke:none"
         d="m 599.64844,85.984375 c 14.6289,0.05078 29.26953,-0.191406 43.91015,0.121094 20.39844,34.871091 41.08985,69.578121 61.82813,104.257811 0.0312,-34.78906 0.043,-69.5664 0,-104.347655 10.76172,-0.121094 21.51172,0 32.26953,-0.05078 -0.11719,50.101565 0.11328,100.199215 -0.11719,150.300775 -14.03125,-0.1914 -28.07031,0.0195 -42.10156,-0.10937 -21.14063,-35.61328 -42.26953,-71.22266 -63.50781,-106.76953 -0.19141,35.61719 0.0273,71.22656 -0.11328,106.84765 -10.71875,-0.10156 -21.4375,-0.0312 -32.16016,-0.0391 0,-50.07031 0.0312,-100.14062 -0.008,-150.210934 z M 417.40625,130.14453 c -5.59766,15.42188 -11.66797,30.67969 -17.34766,46.08203 11.66797,-0.0117 23.33985,-0.0508 35.01953,0.008 -5.80078,-15.39843 -11.73046,-30.75 -17.67187,-46.08984 z M 405.02734,85.984375 c 8.92969,-0.01953 17.85938,-0.07813 26.78907,0.05078 21,50.101565 42.22265,100.101565 63.30078,150.160155 -12.19922,-0.0703 -24.39844,0.10938 -36.59766,-0.082 -4.01172,-10.58984 -8.30078,-21.06641 -12.36328,-31.64844 -18.75781,-0.0508 -37.52734,-0.0312 -56.29688,-0.0117 -4.02343,10.5625 -8.14062,21.08985 -12.01953,31.70313 -11.92187,0.0898 -23.84375,0 -35.75,0.0391 20.95703,-50.08203 42,-100.12109 62.9375,-150.210936 z M 152.15625,174.20312 c -0.0586,11.27344 -0.0898,22.53125 0.0117,33.80079 9.66015,-0.0898 19.32812,-0.0195 29,-0.0273 5.3789,0.008 10.98047,-1.3125 15.23828,-4.71094 6.58203,-5.25 7.87109,-16.35156 1.96094,-22.55078 -5.0586,-4.94922 -12.46875,-6.14062 -19.25,-6.48047 -8.98828,-0.10937 -17.98047,-0.0195 -26.96094,-0.0312 z m -0.0781,-59.96874 c 0.10157,10.5625 -0.0391,21.1289 0.0781,31.6914 7.65234,0.0703 15.3125,0.0273 22.97266,0.0508 4.92968,0.0195 10.07031,-0.96094 14.17968,-3.83984 7.51953,-5.11328 8.26953,-17.79297 0.94922,-23.41016 -4.53125,-3.53125 -10.5,-4.42187 -16.08984,-4.53125 -7.35938,-0.0117 -14.73047,-0.0312 -22.08985,0.0391 z M 119.85938,86.003906 c 14.41015,-0.09766 28.82812,-0.0078 43.24999,-0.03906 12.92969,0.03906 26.12891,-0.359375 38.66797,3.339844 7.65235,2.289062 15.17969,6.359375 19.78125,13.08984 4.96875,7.0586 6.4375,16 5.98828,24.46875 -0.5,7.87109 -3.58984,15.65234 -9.23828,21.22266 -4.39062,4.48828 -10.08203,7.39843 -15.92968,9.5 10.96093,1.30859 21.36718,7.52734 26.96093,17.14843 8.47657,14.96875 6.5,36.07032 -6.5625,47.85157 -10.73047,9.66015 -25.59765,13 -39.66015,13.58984 -21.07032,0.0586 -42.14844,-0.0312 -63.21875,0.0391 -0.0391,-50.07031 0.0391,-100.14062 -0.0391,-150.210932 z m -211.230474,-0.01953 c 11.078125,-0.03906 22.160156,-0.01953 33.238281,-0.0078 -0.02734,50.078124 0.03906,100.160154 -0.02734,150.226554 -11.0625,-0.0273 -22.121094,-0.0195 -33.183594,0 -0.05859,-50.0664 0.01172,-100.14843 -0.02734,-150.218742 z m 0,0"
         id="path3" />
    </g>
  </g>
</svg>
