<svg xmlns="http://www.w3.org/2000/svg" xml:space="preserve" id="Laag_1" width="40" height="40" x="0" y="0" version="1.1"><style id="style1" type="text/css">.st3{fill:#e84433}.st6{fill:#f5aaa7}.st11{fill:#f7f6fc}.st13{fill:#d5d3eb}.st14{fill:#2c3f92}.st16{fill:#273374}.st17{fill:#8785bf}.st20{fill:#a4a4d1}.st22{fill:#ffde14}.st29{fill:#eeecf6}.st35{fill:#ef765a}.st39{fill:#c9c6e2}</style><path id="rect1" d="M0 0h40v40H0z" style="fill:#6c337a;stroke-width:.352734"/><g id="g88" transform="scale(.35273)"><path id="path2" d="M94.7 67.6c-6 21.1-28.1 33.1-49.1 27.1-20.9-5.8-33.1-27.9-27.1-48.9 6.2-21.1 28.1-33.1 49.1-27.1s33.3 28 27.1 48.9" style="fill:#fff"/><g id="g87"><g id="g5"><linearGradient id="SVGID_1_" x1="25658.232" x2="25836.455" y1="5133.418" y2="5133.418" gradientTransform="matrix(.0853 .0244 .0244 -.0853 -2240.95 -132.961)" gradientUnits="userSpaceOnUse"><stop id="stop2" offset="0" style="stop-color:#e84433"/><stop id="stop3" offset="1" style="stop-color:#c63727"/></linearGradient><path id="polyline3" d="m56.7 56.7 14.7-8.1 23.5 19z" style="fill:url(#SVGID_1_)"/><path id="polygon3" d="M71.4 49.2v-.6l23.5 19-2.4-1.1z" class="st3"/><path id="polygon4" d="M58 56.7h-1.3l14.7-8.1v.6z" style="fill:#f18668"/><path id="polygon5" d="m92.5 66.5 2.4 1.1-38.2-10.9H58z" style="fill:#bc3726"/></g><g id="g8"><path id="polyline5" d="m56.7 56.7 14.7-8.1-3.8-29.9z" class="st6"/><path id="polygon6" d="m67.4 21.3.2-2.6-10.9 38 .9-.9z" style="fill:#d47482"/><path id="polygon7" d="m70.8 48.2.6.4-3.8-29.9-.2 2.6z" style="fill:#d79593"/><path id="polygon8" d="m57.6 55.8-.9.9 14.7-8.1-.6-.4z" style="fill:#f9ccc6"/></g><path id="polyline8" d="m56.7 56.7 8.1 14.9-19 23.3z" style="fill:none"/><path id="polygon9" d="m64.2 71.4.6.2-19 23.3 1.1-2.2z" class="st11"/><path id="polygon10" d="m56.9 58.2-.2-1.5 8.1 14.9-.6-.2z" style="fill:#eeedf7"/><path id="polygon11" d="m46.9 92.7-1.1 2.2 10.9-38.2.2 1.5z" class="st13"/><g id="g14"><path id="polyline11" d="m56.7 56.7 8.1 14.9 30.1-4z" class="st14"/><path id="polygon12" d="m92.3 67.4 2.6.2-38.2-10.9 1.1 1z" style="fill:#46509e"/><path id="polygon13" d="m65.2 71-.4.6 30.1-4-2.6-.2z" class="st16"/><path id="polygon14" d="m57.8 57.7-1.1-1 8.1 14.9.4-.6z" class="st17"/></g><g id="g17"><linearGradient id="SVGID_00000102513840009038308550000012988162386183646366_" x1="25050.553" x2="25497.801" y1="4999.153" y2="4999.153" gradientTransform="matrix(.0853 .0244 .0244 -.0853 -2240.95 -132.961)" gradientUnits="userSpaceOnUse"><stop id="stop14" offset="0" style="stop-color:#d5d3eb"/><stop id="stop15" offset="1" style="stop-color:#8785bf"/></linearGradient><path id="polyline15" d="M56.7 56.7 42 65 18.5 45.8z" style="fill:url(#SVGID_00000102513840009038308550000012988162386183646366_)"/><path id="polygon15" d="M42 64.2v.8L18.5 45.8l2.4 1.3z" style="fill:#b0afd8"/><path id="polygon16" d="m55.4 56.9 1.3-.2L42 65v-.8z" class="st20"/><path id="polygon17" d="m20.9 47.1-2.4-1.3 38.2 10.9-1.3.2z" style="fill:#c8c4e2"/></g><g id="g20"><path id="polyline17" d="M56.7 56.7 42 65l3.8 29.9z" class="st22"/><path id="polygon18" d="m46 92.3-.2 2.6 10.9-38.2-1 1.1z" style="fill:#d4b584"/><path id="polygon19" d="M42.6 65.2 42 65l3.8 29.9.2-2.6z" style="fill:#e8c347"/><path id="polygon20" d="m55.7 57.8 1-1.1L42 65l.6.2z" style="fill:#fee072"/></g><g id="g23"><path id="polyline20" d="M56.7 56.7 48.6 42l19-23.3z" class="st3"/><path id="polygon21" d="M49.2 42h-.6l19-23.3-1.1 2.2z" style="fill:#ec6349"/><path id="polygon22" d="m56.5 55.4.2 1.3L48.6 42h.6z" style="fill:#da3d2a"/><path id="polygon23" d="m66.5 20.9 1.1-2.2-10.9 38-.2-1.3z" style="fill:#c63727"/></g><g id="g26"><path id="polyline23" d="M56.7 56.7 48.6 42l-30.1 3.8z" class="st29"/><path id="polygon24" d="m21.1 46-2.6-.2 38.2 10.9-1.1-.7z" style="fill:#f5f4fa"/><path id="polygon25" d="m48.2 42.6.4-.6-30.1 3.8 2.6.2z" class="st13"/><path id="polygon26" d="m55.6 56 1.1.7L48.6 42l-.4.6z" class="st11"/></g><g id="g30"><linearGradient id="SVGID_00000121250943253626062180000014821568742082221986_" x1="6822.376" x2="6746.59" y1="-643.226" y2="-622.919" gradientTransform="matrix(.266 0 0 -.266 -1730.838 -133.58)" gradientUnits="userSpaceOnUse"><stop id="stop26" offset="0" style="stop-color:#7675b6"/><stop id="stop27" offset="1" style="stop-color:#bbbade"/></linearGradient><path id="path27" d="M85.3 29.2c-4.7-4.9-10.7-8.7-17.7-10.5l3.8 29.9z" style="fill:url(#SVGID_00000121250943253626062180000014821568742082221986_)"/><path id="path28" d="m67.6 18.7 3.8 29.9.4-1.3-3.6-28.4c-.2-.2-.4-.2-.6-.2" class="st17"/><path id="path29" d="M84.9 28.9 71.8 47.3l-.4 1.3 13.9-19.4c-.2-.2-.4-.2-.4-.3" style="fill:#9a99cb"/><linearGradient id="SVGID_00000079461779378781010110000002737328632556960146_" x1="26038.262" x2="25833.99" y1="-2620.716" y2="-2502.779" gradientTransform="matrix(.0887 0 0 -.0887 -2223.647 -203.145)" gradientUnits="userSpaceOnUse"><stop id="stop29" offset="0" style="stop-color:#6869ae"/><stop id="stop30" offset="1" style="stop-color:#c1c3e3"/></linearGradient><path id="path30" d="M85.3 29.2c-4.7-4.9-10.7-8.7-17.7-10.5l.8 1.3c6.2 1.9 11.7 5.5 15.8 9.8z" style="fill:url(#SVGID_00000079461779378781010110000002737328632556960146_)"/></g><g id="g35"><linearGradient id="SVGID_00000111876748814403072160000015343497305182679435_" x1="6793.632" x2="6834.355" y1="-630.594" y2="-701.127" gradientTransform="matrix(.266 0 0 -.266 -1730.838 -133.58)" gradientUnits="userSpaceOnUse"><stop id="stop31" offset="0" style="stop-color:#e84433"/><stop id="stop32" offset="1" style="stop-color:#ab2c23"/></linearGradient><path id="path32" d="m71.4 48.6 13.9-19.4c4.9 5.1 8.3 11.3 10 17.9z" style="fill:url(#SVGID_00000111876748814403072160000015343497305182679435_)"/><path id="path33" d="M85.3 29.2 71.6 48.6l1.1-.6 13.2-18.4c-.4-.2-.6-.2-.6-.4" class="st35"/><path id="path34" d="M95.1 46.7 72.5 48l-1.1.6 23.7-1.5z" style="fill:#ab2c23"/><linearGradient id="SVGID_00000000920055072966168930000005056206332527466151_" x1="26031.312" x2="26149.26" y1="-2622.956" y2="-2827.245" gradientTransform="matrix(.0887 0 0 -.0887 -2223.647 -203.145)" gradientUnits="userSpaceOnUse"><stop id="stop34" offset="0" style="stop-color:#eb5c3a"/><stop id="stop35" offset="1" style="stop-color:#841f1a"/></linearGradient><path id="path35" d="M94 46.7c-1.7-6-4.7-11.7-9-16.2l.2-1.3c4.9 5.1 8.3 11.3 10 17.9z" style="fill:url(#SVGID_00000000920055072966168930000005056206332527466151_)"/></g><g id="g40"><linearGradient id="SVGID_00000093145607372017532540000011979973707318035624_" x1="6815.254" x2="6850.076" y1="-669.572" y2="-765.241" gradientTransform="matrix(.266 0 0 -.266 -1730.838 -133.58)" gradientUnits="userSpaceOnUse"><stop id="stop36" offset="0" style="stop-color:#eeecf6"/><stop id="stop37" offset="1" style="stop-color:#b0afd8"/></linearGradient><path id="path37" d="m71.4 48.6 23.7-1.5c1.7 6.6 1.7 13.6-.4 20.5z" style="fill:url(#SVGID_00000093145607372017532540000011979973707318035624_)"/><path id="path38" d="m95.3 47.1-23.7 1.5 1.3.4 22.6-1.3c-.2-.2-.2-.4-.2-.6" class="st39"/><path id="path39" d="M94.9 67.6c0-.2.2-.4.2-.6L72.9 49l-1.3-.4Z" class="st29"/><linearGradient id="SVGID_00000074402893242430222480000012846423597105142446_" x1="26106.037" x2="26175.736" y1="-2929.063" y2="-2949.048" gradientTransform="matrix(.0887 0 0 -.0887 -2223.647 -203.145)" gradientUnits="userSpaceOnUse"><stop id="stop39" offset="0" style="stop-color:#fff"/><stop id="stop40" offset="1" style="stop-color:#b0afd8"/></linearGradient><path id="path40" d="M94.2 66.5c1.7-6.4 1.7-12.6.2-18.6l.9-.6c1.7 6.6 1.7 13.6-.4 20.5Z" style="fill:url(#SVGID_00000074402893242430222480000012846423597105142446_)"/></g><g id="g45"><linearGradient id="SVGID_00000039091326652926666820000003854124538211612055_" x1="25054.402" x2="25350.182" y1="5177.426" y2="5177.426" gradientTransform="matrix(.0853 .0244 .0244 -.0853 -2240.95 -132.961)" gradientUnits="userSpaceOnUse"><stop id="stop41" offset="0" style="stop-color:#fff099"/><stop id="stop42" offset="1" style="stop-color:#ffd642"/></linearGradient><path id="path42" d="M29.2 28.3C24.3 33 20.5 39 18.7 46l29.9-3.8z" style="fill:url(#SVGID_00000039091326652926666820000003854124538211612055_)"/><path id="path43" d="M18.5 45.8 48.4 42l-1.3-.4-28.4 3.6c0 .2 0 .4-.2.6" style="fill:#ffcc21"/><path id="path44" d="M28.6 28.7 47 41.9l1.5.4-19.3-13.8c-.2-.2-.4 0-.6.2" class="st22"/><path id="path45" d="M29.2 28.3C24.3 33 20.5 39 18.7 46l1.3-.8c1.9-6.2 5.5-11.7 9.8-15.8Z" style="fill:#fdf7c4"/></g><g id="g49"><linearGradient id="SVGID_00000126312142689215135040000002192078724500429238_" x1="6621.432" x2="6706.523" y1="-591.825" y2="-622.796" gradientTransform="matrix(.266 0 0 -.266 -1730.838 -133.58)" gradientUnits="userSpaceOnUse"><stop id="stop45" offset="0" style="stop-color:#f4a086"/><stop id="stop46" offset="1" style="stop-color:#e84433"/></linearGradient><path id="path46" d="M48.6 42 29.2 28.3c5.1-4.9 11.3-8.3 17.9-10z" style="fill:url(#SVGID_00000126312142689215135040000002192078724500429238_)"/><path id="path47" d="M29.2 28.3 48.6 42l-.6-1.1-18.4-13.2c-.2.2-.4.4-.4.6" class="st3"/><path id="path48" d="m46.5 18.5 1.3 22.6.6 1.1-1.3-23.9c-.2 0-.4 0-.6.2" class="st3"/><linearGradient id="SVGID_00000067958706799565408620000005951141677736462769_" x1="6614.893" x2="6685.421" y1="-609.387" y2="-568.667" gradientTransform="matrix(.266 0 0 -.266 -1730.838 -133.58)" gradientUnits="userSpaceOnUse"><stop id="stop48" offset="0" style="stop-color:#f4a086"/><stop id="stop49" offset="1" style="stop-color:#e84433"/></linearGradient><path id="path49" d="M46.7 19.4c-6 1.7-11.7 4.7-16.2 9l-1.3-.2c5.1-4.9 11.3-8.3 17.9-10z" style="fill:url(#SVGID_00000067958706799565408620000005951141677736462769_)"/></g><g id="g57"><linearGradient id="SVGID_00000117662200943217665940000007843748818427226538_" x1="25274.285" x2="25497.826" y1="5356.802" y2="5356.802" gradientTransform="matrix(.0853 .0244 .0244 -.0853 -2240.95 -132.961)" gradientUnits="userSpaceOnUse"><stop id="stop50" offset="0" style="stop-color:#466cb2"/><stop id="stop51" offset="1" style="stop-color:#23448e"/></linearGradient><path id="path51" d="m48.6 42-1.5-23.7c6.6-1.7 13.6-1.7 20.5.4z" style="fill:url(#SVGID_00000117662200943217665940000007843748818427226538_)"/><path id="path52" d="M47.1 18.3 48.6 42l.4-1.3-1.3-22.6c-.2 0-.4.2-.6.2" style="fill:#1e4b9b"/><path id="path53" d="M67.6 18.7c-.2 0-.4-.2-.6-.2L49 40.7l-.4 1.3Z" style="fill:#2e398d"/><linearGradient id="SVGID_00000126289541851807403840000004983931655954562978_" x1="6684.854" x2="6761.998" y1="-570.836" y2="-570.836" gradientTransform="matrix(.266 0 0 -.266 -1730.838 -133.581)" gradientUnits="userSpaceOnUse"><stop id="stop53" offset="0" style="stop-color:#466cb2"/><stop id="stop54" offset=".203" style="stop-color:#3b5fa7"/><stop id="stop55" offset=".513" style="stop-color:#2c5099"/><stop id="stop56" offset=".789" style="stop-color:#244792"/><stop id="stop57" offset="1" style="stop-color:#23448e"/></linearGradient><path id="path57" d="M66.3 19.4c-6.4-1.7-12.6-1.7-18.6-.2l-.6-.9c6.6-1.7 13.6-1.7 20.5.4z" style="fill:url(#SVGID_00000126289541851807403840000004983931655954562978_)"/></g><g id="g64"><path id="path58" d="M28.1 84.4c4.7 4.9 10.7 8.7 17.7 10.5L42 65Z" class="st14"/><path id="path59" d="M45.8 94.9 42 65l-.4 1.5 3.6 28.2c.2 0 .4.2.6.2" class="st16"/><path id="path60" d="m28.5 84.8 13.2-18.4.4-1.5-13.8 19.3c0 .2.2.4.2.6" style="fill:#5a5fa8"/><linearGradient id="SVGID_00000178192664705841312620000006276751885918220698_" x1="25381.922" x2="25601.119" y1="-3266.38" y2="-3329.234" gradientTransform="matrix(.0887 0 0 -.0887 -2223.647 -203.145)" gradientUnits="userSpaceOnUse"><stop id="stop60" offset="0" style="stop-color:#5865a7"/><stop id="stop61" offset=".15" style="stop-color:#4c5da0"/><stop id="stop62" offset=".481" style="stop-color:#364e93"/><stop id="stop63" offset=".775" style="stop-color:#27448b"/><stop id="stop64" offset="1" style="stop-color:#254089"/></linearGradient><path id="path64" d="M28.1 84.4c4.7 4.9 10.7 8.7 17.7 10.5l-.8-1.3c-6.2-1.9-11.7-5.5-15.8-9.8Z" style="fill:url(#SVGID_00000178192664705841312620000006276751885918220698_)"/></g><g id="g69"><linearGradient id="SVGID_00000116932088400376340700000005585593525958750882_" x1="6620.018" x2="6626.536" y1="-746.825" y2="-821.314" gradientTransform="matrix(.266 0 0 -.266 -1730.838 -133.58)" gradientUnits="userSpaceOnUse"><stop id="stop65" offset="0" style="stop-color:#fff"/><stop id="stop66" offset="1" style="stop-color:#d3d1e9"/></linearGradient><path id="path66" d="M42 65 28.3 84.4c-4.9-5.1-8.3-11.3-10-17.9Z" style="fill:url(#SVGID_00000116932088400376340700000005585593525958750882_)"/><path id="path67" d="M28.1 84.4 42 65l-1.1.6L27.7 84c.2 0 .4.2.4.4" class="st20"/><path id="path68" d="m18.3 66.9 22.6-1.3L42 65l-23.7 1.5z" style="fill:#d3d1e9"/><linearGradient id="SVGID_00000129187022983125714520000014220398900984393091_" x1="25253.867" x2="25415.416" y1="-3118.523" y2="-3164.846" gradientTransform="matrix(.0887 0 0 -.0887 -2223.647 -203.145)" gradientUnits="userSpaceOnUse"><stop id="stop68" offset="0" style="stop-color:#fff"/><stop id="stop69" offset="1" style="stop-color:#c9c6e2"/></linearGradient><path id="path69" d="M19.4 66.9c1.7 6 4.7 11.7 9 16.2l-.2 1.3c-4.9-5.1-8.3-11.3-10-17.9Z" style="fill:url(#SVGID_00000129187022983125714520000014220398900984393091_)"/></g><g id="g73"><path id="path70" d="m42 65-23.7 1.5c-1.7-6.6-1.7-13.5.4-20.5Z" class="st3"/><path id="path71" d="M18.1 66.3 42 65l-1.3-.4-22.6 1.3z" style="fill:#d03b28"/><path id="path72" d="M18.5 45.8c0 .2-.2.4-.2.6l22.2 18.1 1.3.4z" class="st35"/><path id="path73" d="M19.2 47.1c-1.7 6.4-1.7 12.6-.2 18.6l-.9.6c-1.7-6.6-1.7-13.6.4-20.5Z" class="st35"/></g><g id="g77"><linearGradient id="SVGID_00000157277711132569928150000015597326647980743565_" x1="25632.381" x2="25945.521" y1="4954.124" y2="4954.124" gradientTransform="matrix(.0853 .0244 .0244 -.0853 -2240.95 -132.961)" gradientUnits="userSpaceOnUse"><stop id="stop73" offset="0" style="stop-color:#c9c6e2"/><stop id="stop74" offset="1" style="stop-color:#7675b6"/></linearGradient><path id="path74" d="M84.2 85.3c4.9-4.7 8.7-10.7 10.5-17.7l-29.9 3.8Z" style="fill:url(#SVGID_00000157277711132569928150000015597326647980743565_)"/><path id="path75" d="M94.9 67.6 65 71.4l1.5.4 28.4-3.6q-.3 0 0-.6" style="fill:#7675b6"/><path id="path76" d="M84.6 85 66.1 71.8l-1.5-.4L84 85.1c.4 0 .6 0 .6-.1" class="st39"/><path id="path77" d="M84.2 85.3c4.9-4.7 8.7-10.7 10.5-17.7l-1.3.8c-1.9 6.2-5.5 11.7-9.8 15.8z" style="fill:#6266ac"/></g><g id="g81"><linearGradient id="SVGID_00000029036322536050800530000014382859868610588577_" x1="6748.989" x2="6794.991" y1="-771.137" y2="-850.815" gradientTransform="matrix(.266 0 0 -.266 -1730.838 -133.58)" gradientUnits="userSpaceOnUse"><stop id="stop77" offset="0" style="stop-color:#e84433"/><stop id="stop78" offset="1" style="stop-color:#b23126"/></linearGradient><path id="path78" d="m64.8 71.6 19.4 13.7c-5.1 4.9-11.3 8.3-17.9 10z" style="fill:url(#SVGID_00000029036322536050800530000014382859868610588577_)"/><path id="path79" d="M84.2 85.3 64.8 71.6l.6 1.1 18.4 13.2c.2-.4.4-.4.4-.6" class="st3"/><path id="path80" d="m66.9 95.1-1.3-22.6-.6-1.1 1.5 23.7c0 .2.2 0 .4 0" class="st3"/><linearGradient id="SVGID_00000123428634464460242360000000105515193757986495_" x1="6754.923" x2="6825.45" y1="-861.971" y2="-821.252" gradientTransform="matrix(.266 0 0 -.266 -1730.838 -133.58)" gradientUnits="userSpaceOnUse"><stop id="stop80" offset="0" style="stop-color:#e84433"/><stop id="stop81" offset="1" style="stop-color:#9f2a21"/></linearGradient><path id="path81" d="M66.7 94c6-1.7 11.7-4.7 16.2-9l1.3.2c-5.1 4.9-11.3 8.3-17.9 10z" style="fill:url(#SVGID_00000123428634464460242360000000105515193757986495_)"/></g><g id="g86"><linearGradient id="SVGID_00000035518712927814938440000011053332227916049593_" x1="7005.903" x2="7056.296" y1="-609.75" y2="-660.143" gradientTransform="matrix(.266 0 0 -.266 -1809.515 -80.157)" gradientUnits="userSpaceOnUse"><stop id="stop82" offset="0" style="stop-color:#f5aaa7"/><stop id="stop83" offset="1" style="stop-color:#f08695"/></linearGradient><path id="path83" d="m64.8 71.6 1.5 23.7c-6.6 1.7-13.6 1.7-20.5-.4Z" style="fill:url(#SVGID_00000035518712927814938440000011053332227916049593_)"/><path id="path84" d="m66.3 95.3-1.5-23.7-.4 1.3 1.3 22.6c.2-.2.4-.2.6-.2" class="st6"/><path id="path85" d="M45.8 94.9c.2 0 .4.2.6.2l18.1-22.2.4-1.3z" style="fill:#fad3ce"/><linearGradient id="SVGID_00000034787548024256761130000003530705607554929038_" x1="6991.653" x2="7068.798" y1="-860.674" y2="-860.674" gradientTransform="matrix(.266 0 0 -.266 -1813.77 -133.581)" gradientUnits="userSpaceOnUse"><stop id="stop85" offset="0" style="stop-color:#f5aaa7"/><stop id="stop86" offset="1" style="stop-color:#ef7d91"/></linearGradient><path id="path86" d="M47.1 94.2c6.4 1.7 12.6 1.7 18.6.2l.6.9c-6.6 1.7-13.6 1.7-20.5-.4Z" style="fill:url(#SVGID_00000034787548024256761130000003530705607554929038_)"/></g></g></g></svg>