<?xml version="1.0" encoding="UTF-8"?>
<svg width="640px" height="360px" viewBox="0 0 640 360" xmlns="http://www.w3.org/2000/svg" xmlns:xlink="http://www.w3.org/1999/xlink" version="1.1">
 <!-- Generated by Pixelmator Pro 2.3 -->
 <g id="handshake-alt-copy">
  <path id="Shape" d="M286.919 216.1 L320.354 185.836 C321.561 184.764 323.09 184.168 324.699 184.168 L365.336 184.168 C367.066 184.168 368.676 184.843 369.923 186.074 L394.345 209.547 445.282 209.547 C447.052 209.547 448.501 208.117 448.501 206.37 L448.501 200.015 C448.501 198.267 447.052 196.838 445.282 196.838 L399.616 196.838 379.016 177.019 C375.354 173.404 370.526 171.419 365.376 171.419 L324.739 171.419 C320.555 171.419 316.652 172.968 313.353 175.39 309.973 172.809 305.829 171.299 301.564 171.299 L273.601 171.299 C268.492 171.299 263.583 173.325 259.922 176.9 L239.845 196.798 194.219 196.798 C192.448 196.798 191 198.228 191 199.975 L191 206.33 C191 208.077 192.448 209.507 194.219 209.507 L245.156 209.507 269.015 185.955 C270.222 184.764 271.871 184.088 273.561 184.088 L301.524 184.088 C301.886 184.962 301.645 184.366 301.967 185.24 L278.228 206.727 C266.882 217.014 266.319 234.211 276.539 245.213 282.292 251.409 300.116 260.822 315.526 246.881 L324.699 238.58 375.234 279.052 C377.97 281.236 378.412 285.287 376.159 287.988 L372.337 292.635 C370.164 295.256 366.141 295.852 363.284 293.549 L356.122 287.829 339.425 308.085 C336.407 311.779 330.976 312.136 327.596 309.435 L315.284 299.069 311.1 304.153 C304.381 312.295 292.19 313.566 284.304 307.291 L248.133 273.094 194.219 273.094 C192.448 273.094 191 274.524 191 276.272 L191 282.626 C191 284.374 192.448 285.804 194.219 285.804 L242.983 285.804 275.774 316.783 C287.764 326.355 304.662 326.077 316.411 316.704 L319.308 319.166 C323.17 322.264 327.878 323.892 332.786 323.892 339.224 323.892 345.299 321.112 349.443 316.108 L358.255 305.424 C364.853 308.959 375.515 308.999 382.395 300.658 L386.218 296.011 C388.712 292.993 390.08 289.418 390.442 285.804 L445.282 285.804 C447.052 285.804 448.501 284.374 448.501 282.626 L448.501 276.272 C448.501 274.524 447.052 273.094 445.282 273.094 L386.862 273.094 C385.856 271.704 384.729 270.354 383.321 269.202 L334.275 229.882 345.702 219.516 C348.317 217.133 348.518 213.121 346.104 210.54 343.69 207.958 339.626 207.799 337.011 210.143 L306.795 237.468 C301.001 242.671 291.264 242.234 285.994 236.594 280.562 230.756 280.924 221.542 286.919 216.1 Z" fill="#000000" fill-opacity="1" stroke="none"/>
 </g>
 <g id="Sofort">
  <path id="Sofort-1" d="M276.291 75.361 C272.762 75.361 269.34 76.169 266.126 77.678 261.536 79.845 257.372 83.459 253.974 88.254 251.766 91.368 249.876 94.977 248.396 99.013 245.606 106.632 245.637 112.811 248.49 116.884 250.107 119.186 253.47 121.936 260.306 121.944 L260.332 121.944 C272.786 121.944 282.082 113.807 287.97 97.758 289.525 93.512 291.577 85.587 287.827 80.239 285.562 77.006 281.687 75.366 276.291 75.361 Z M351.435 75.361 C347.909 75.361 344.484 76.169 341.272 77.678 336.68 79.845 332.519 83.459 329.12 88.254 326.91 91.368 325.022 94.977 323.542 99.013 320.749 106.632 320.783 112.811 323.638 116.884 325.253 119.186 328.613 121.936 335.455 121.944 L335.476 121.944 C347.932 121.944 357.231 113.807 363.113 97.758 364.674 93.512 366.72 85.587 362.973 80.239 360.705 77.006 356.831 75.366 351.435 75.361 Z M236.296 76.006 C232.198 76.006 228.216 76.006 224.648 77.81 221.083 79.614 217.934 83.225 215.51 90.447 214.985 92 214.707 93.338 214.671 94.499 214.634 95.663 214.837 96.653 215.279 97.514 215.825 98.564 216.71 99.551 217.815 100.384 218.923 101.218 220.246 101.895 221.673 102.328 221.728 102.344 222.477 102.556 223.388 102.815 224.292 103.075 225.351 103.385 226.022 103.587 226.414 103.707 226.846 103.862 227.236 104.098 227.628 104.329 227.98 104.64 228.201 105.07 228.346 105.355 228.424 105.669 228.432 106.004 228.443 106.341 228.385 106.704 228.252 107.088 227.92 108.067 227.415 108.7 226.453 109.086 225.496 109.472 224.084 109.596 221.941 109.612 L195.193 109.612 190.964 121.192 219.596 121.192 C222.29 121.192 227.215 121.192 231.948 119.186 236.681 117.182 241.222 113.177 243.143 105.159 243.866 102.146 243.642 99.691 242.459 97.763 241.271 95.837 239.123 94.437 235.994 93.543 235.994 93.543 235.295 93.34 234.471 93.104 233.652 92.868 232.702 92.599 232.219 92.459 231.418 92.231 230.801 91.769 230.437 91.181 230.076 90.595 229.966 89.882 230.172 89.154 230.388 88.397 230.908 87.793 231.657 87.375 232.411 86.96 233.399 86.732 234.554 86.732 L251.197 86.732 C251.314 86.564 251.42 86.38 251.537 86.212 254.577 81.924 258.257 78.456 262.288 76.006 Z M311.101 76.006 C303.695 76.006 298.182 79.741 295.579 86.732 L282.997 121.192 296.78 121.192 303.245 103.479 315.426 103.487 318.892 93.999 306.751 93.991 308.706 88.498 C309.112 87.513 310.087 86.73 311.512 86.73 312.305 86.73 321.248 86.733 325.874 86.735 325.994 86.564 326.1 86.38 326.217 86.212 329.257 81.924 333.561 78.456 337.592 76.006 Z M375.042 76.031 L358.536 121.22 372.556 121.22 378.555 105.314 C378.849 105.969 382.388 121.22 382.388 121.22 L397.128 121.22 C397.128 121.22 394.447 110.013 392.475 105.487 391.968 104.323 391.44 103.019 390.733 101.928 394.896 100.386 400.929 97.075 403.428 90.366 404.962 86.242 404.874 82.908 403.169 80.464 401.101 77.495 396.894 76.039 390.301 76.031 Z M403.797 76.031 C404.684 76.731 405.448 77.529 406.085 78.442 407.716 80.785 408.34 83.57 407.968 86.761 L416.316 86.761 403.735 121.231 416.305 121.231 428.894 86.761 445.046 86.761 448.964 76.031 Z M384.279 85.36 L386.593 85.36 C390.824 85.363 392.402 86.597 390.969 90.447 389.625 94.06 387.207 96.292 382.609 96.292 L382.591 96.292 380.211 96.29 384.279 85.36 Z M272.983 85.584 L272.986 85.584 C277.292 85.59 278.278 88.078 274.497 98.391 L274.497 98.391 C270.612 108.991 267.793 111.658 263.549 111.658 L263.541 111.658 C259.406 111.655 257.955 109.047 261.825 98.496 264.714 90.621 268.456 85.584 272.984 85.584 Z M348.127 85.584 L348.132 85.584 C352.436 85.59 353.424 88.078 349.64 98.391 345.758 108.991 342.936 111.658 338.695 111.658 L338.685 111.658 C334.548 111.655 333.104 109.047 336.971 98.496 339.857 90.621 343.602 85.584 348.127 85.584 Z" fill="#ee7f00" fill-opacity="1" stroke="none"/>
 </g>
</svg>
