<?xml version="1.0" encoding="UTF-8"?>
<svg width="107px" height="32px" viewBox="0 0 107 32" version="1.1" xmlns="http://www.w3.org/2000/svg" xmlns:xlink="http://www.w3.org/1999/xlink">
    <!-- Generator: Sketch 63.1 (92452) - https://sketch.com -->
    <title>incasso-sofort/icon-107-32</title>
    <desc>Created with Sketch.</desc>
    <g id="incasso-sofort/icon-107-32" stroke="none" stroke-width="1" fill="none" fill-rule="evenodd">
        <rect id="Rectangle" stroke="#D0D0D0" fill="#FFFFFF" x="0.5" y="0.5" width="50" height="31"></rect>
        <g id="Payment-method-/-Incasso" transform="translate(11.000000, 1.000000)" fill="#2C3341" fill-rule="nonzero">
            <path d="M4.52904109,20.6860168 C4.74764555,20.712858 4.91205269,20.8217176 5.03359156,20.9684415 C5.09826677,21.0465186 5.146038,21.1298504 5.18781343,21.2241983 L5.20053236,21.2537178 C5.24445046,21.3584601 5.2823954,21.4787909 5.32404003,21.6347317 L5.33383901,21.6723118 C5.3629061,21.7885768 5.51877302,22.4323035 5.57688743,22.6388061 C5.67327721,22.9813159 5.77168843,23.244085 5.87855983,23.4333918 C5.92909604,23.5229093 5.97816205,23.5895486 6.02235204,23.6327154 C6.03846077,23.6484511 6.05243324,23.6596085 6.06403102,23.6668963 C6.07067287,23.6710698 6.0750326,23.6731023 6.07803054,23.6740368 C6.17384632,23.7039051 6.20097548,23.7011657 6.22702394,23.6856363 C6.27345742,23.6579539 6.33742488,23.5868163 6.4260301,23.4527 L6.44119154,23.429445 L6.60823742,23.1634606 C6.67904118,23.053513 6.74070807,22.9681242 6.81186776,22.888294 C6.92461235,22.7618119 7.05070857,22.6622689 7.20779685,22.5964516 C7.4042413,22.5141448 7.60438352,22.5125997 7.79681147,22.5650025 C7.91519388,22.597241 8.02396857,22.6474764 8.14047465,22.7157253 L8.16597155,22.7308688 L8.1935778,22.7477294 C8.24450903,22.7792715 8.29770975,22.8145877 8.36160566,22.8586763 L8.6242516,23.0418695 L8.6242516,23.0418695 L8.6607619,23.0666035 L8.69269425,23.0878467 C9.14587775,23.386616 9.40673957,23.4397735 9.7021536,23.269879 L9.71679952,23.2612899 L9.7315663,23.2522965 C10.0541678,23.0521959 10.4779016,23.1515025 10.6780022,23.4741041 C10.8781028,23.7967056 10.7787961,24.2204394 10.4561946,24.42054 C10.4333915,24.4346841 10.4104971,24.448366 10.3875115,24.4615851 C9.9015796,24.7410477 9.39329306,24.8043794 8.88984471,24.6811237 C8.53960685,24.5953774 8.23918391,24.4408691 7.88034106,24.1984491 L7.85397843,24.1805538 C7.82984176,24.1640925 7.80604997,24.1476843 7.77977196,24.129395 L7.67242699,24.054133 L7.60717602,24.1577959 L7.58549439,24.1915278 C7.387925,24.4941134 7.19851098,24.706957 6.93099004,24.8664456 C6.56185501,25.0865138 6.12978457,25.1301438 5.66890844,24.9864766 C5.244239,24.8540959 4.92697568,24.5441793 4.68142518,24.1092229 C4.54285819,23.863772 4.42895988,23.583212 4.32494599,23.2517536 L4.31572573,23.2221378 L4.2785452,23.3159363 C4.19819152,23.5168648 4.1309182,23.6726976 4.06177279,23.8160958 L4.04693791,23.8466128 C3.96880569,24.0060398 3.89259791,24.1386894 3.81089791,24.2501494 C3.67442323,24.4363364 3.52245836,24.5727401 3.30297693,24.6432496 C3.02127958,24.7337463 2.77201284,24.6668908 2.54436292,24.5227222 C2.42040343,24.4442199 2.30218618,24.340146 2.17795632,24.208776 C1.99879558,24.0193178 1.80271679,23.7674757 1.57808511,23.4479769 L1.55876076,23.4204255 C1.49879,23.3347205 1.43701349,23.2445381 1.37248069,23.1486808 L1.31785563,23.0671871 C1.27204739,22.9985549 1.22514504,22.9275641 1.17433076,22.8500397 L0.831706034,22.3238106 L0.780886676,22.2467732 L0.73953989,22.1849842 C0.716701356,22.1511632 0.697324889,22.1230761 0.680961758,22.1000738 L0.66865436,22.0829847 L0.667696617,22.0821369 C0.509173468,21.9396037 0.419272298,21.7257527 0.443182958,21.498539 L0.444625828,21.4867878 C0.490889972,21.1099966 0.833844101,20.8420514 1.21063531,20.8883156 C1.37462002,20.9084504 1.47844541,20.9662814 1.57663409,21.0466128 C1.61374605,21.0769753 1.6442755,21.1072453 1.67402411,21.1403921 C1.70443431,21.174276 1.7338823,21.211265 1.76613141,21.2548499 L1.77836348,21.2715103 C1.82662892,21.3377321 1.88349786,21.4213556 1.96060159,21.5384498 L2.29614015,22.0537282 L2.36475035,22.1583248 C2.39232883,22.2002132 2.41879195,22.2402014 2.44468727,22.279102 L2.51286452,22.3809545 L2.55741845,22.4468582 C2.60143938,22.5116907 2.64389785,22.5733558 2.68512256,22.6322706 L2.72162354,22.684166 L2.76092346,22.7394123 C2.81272348,22.811781 2.86211274,22.8789584 2.90895555,22.9407187 L2.93347709,22.9728477 L2.95128143,22.9302702 L2.96577144,22.8950868 C3.00979709,22.787605 3.05894441,22.6624661 3.1164795,22.5123361 L3.30535345,22.0180216 C3.48066104,21.5620521 3.52491804,21.4638616 3.62539681,21.2761814 L3.6292895,21.2689178 C3.69377493,21.1487097 3.75844138,21.0495798 3.83604762,20.9634168 C3.89926944,20.8932242 3.97017371,20.8324528 4.05711069,20.7828324 C4.19467589,20.7043153 4.35552551,20.6647117 4.52904109,20.6860168 Z M12.7668649,19.545801 L16.462445,23.2434432 L12.342005,24.2424929 C12.0421774,24.3154 11.7712113,24.0502196 11.8310421,23.7510872 L11.8329773,23.7419198 L12.7668649,19.545801 Z M0.777821547,22.0378712 L0.780418496,22.0397117 C0.849011531,22.0875327 0.929670368,22.1223839 1.04309803,22.1378712 C0.948900226,22.1250095 0.861505303,22.0915274 0.78412206,22.041992 L0.777821547,22.0378712 Z M23.1257894,9.18474571 L26.8234659,12.8823879 L17.4636255,22.2422283 L13.7680455,18.5445861 L23.1257894,9.18474571 Z M7.7066907,17.750654 C8.1130327,18.6333186 9.59450409,19.3376906 11.503906,19.5710126 L11.125762,21.0171897 C9.09517024,20.6930595 7.63284448,19.8245865 7.59608517,18.7993859 L7.5953761,18.7598084 L7.5953761,18.2407824 C7.5953761,18.0728689 7.63384178,17.908935 7.7066907,17.750654 Z M0.110948594,16.3415118 C0.609539098,17.4281335 2.73216565,18.2445921 5.27530274,18.2445921 C5.76527777,18.2445921 6.2392111,18.2137923 6.68934272,18.157074 L6.74548464,18.1498496 L6.74548464,18.7854156 C6.74548464,19.0757934 6.81248782,19.3560865 6.94237996,19.6218629 C6.41833548,19.7010034 5.8579411,19.7439654 5.27530274,19.7439654 C2.3909743,19.7439654 0.0472919558,18.6938158 0.000706741686,17.3902451 L0,17.3506662 L0,16.8316402 C0,16.6636363 0.0383392045,16.4997476 0.110948594,16.3415118 Z M7.7066907,15.0698878 C8.20692602,16.1565094 10.3365549,16.972968 12.8880816,16.972968 C13.0067299,16.972968 13.124466,16.9712025 13.2411683,16.9677263 L11.8226876,18.3520526 L11.8043476,18.422127 C9.42860009,18.1985957 7.63682517,17.2548851 7.59608517,16.118665 L7.5953761,16.0790874 L7.5953761,15.5600162 C7.5953761,15.3920122 7.63384178,15.2281688 7.7066907,15.0698878 Z M0.110795399,13.6607908 C0.608697463,14.7474125 2.72839315,15.5638711 5.26801874,15.5638711 C5.75731723,15.5638711 6.23059617,15.5330713 6.68010626,15.4763531 L6.73617066,15.4691286 L6.73617066,16.9689994 C6.27009857,17.0302767 5.77756922,17.0632444 5.26801874,17.0632444 C2.38767291,17.0632444 0.0472266564,16.0130948 0.000705765836,14.709568 L0,14.6699905 L0,14.1509645 C0,13.9829605 0.0382862668,13.8190718 0.110795399,13.6607908 Z M7.7066907,12.2516939 C8.20692602,13.3383011 10.3365549,14.1547489 12.8880816,14.1547489 C14.592104,14.1547489 16.1079532,13.7906204 17.0759536,13.2250454 L14.7417119,15.5032672 C14.1648261,15.6008145 13.5402257,15.6541475 12.8880816,15.6541475 C9.99423803,15.6541475 7.64282407,14.6040118 7.59608517,13.3004585 L7.5953761,13.2608802 L7.5953761,12.741861 C7.5953761,12.5738141 7.63384178,12.4099276 7.7066907,12.2516939 Z M5.26801874,9.05544968 C5.75718721,9.05544968 6.2307106,9.08575897 6.68012061,9.14230636 L6.73617066,9.14951115 L6.73617066,14.2540486 C6.27009857,14.3152675 5.77756922,14.3481552 5.26801874,14.3481552 C2.38767291,14.3481552 0.0472266564,13.3004652 0.000705765836,12.0001434 L0,11.9606632 L0,11.4428966 C0,10.1243218 2.35857851,9.05544968 5.26801874,9.05544968 Z M18.0694725,9.60534116 C18.1392861,9.75698378 18.177522,9.91381803 18.1805871,10.0745304 L18.1807871,10.0955148 L18.1807871,10.6145408 C18.1807871,11.9363228 15.8111106,13.0077947 12.8880816,13.0077947 C9.99423803,13.0077947 7.64282407,11.9576451 7.59608517,10.6541184 L7.5953761,10.6145408 L7.5953761,10.0955148 C7.5953761,9.92746561 7.63384178,9.76357694 7.7066907,9.60534116 C8.20692602,10.692008 10.3365549,11.5084214 12.8880816,11.5084214 C15.4396083,11.5084214 17.5692372,10.692008 18.0694725,9.60534116 Z M27.9610286,6.62501024 L27.9802658,6.64393775 L29.6292872,8.2929592 C30.1186281,8.78230007 30.1235215,9.5684669 29.6439674,10.0637776 L29.6292872,10.0786974 L27.7867727,11.9212119 L24.0890962,8.2235354 L25.6686938,6.64393775 C26.3017543,6.01302079 27.3223189,6.00671162 27.9610286,6.62501024 Z M12.8880816,5 C15.7818803,5 18.1333383,6.04761045 18.180078,7.34798539 L18.1807871,7.38746724 L18.1807871,7.90523828 C18.1807871,9.22382433 15.8111106,10.2927055 12.8880816,10.2927055 C9.99423803,10.2927055 7.64282407,9.24509507 7.59608517,7.94472013 L7.5953761,7.90523828 L7.5953761,7.38746724 C7.5953761,6.06888119 9.96500728,5 12.8880816,5 Z" id="incasso"></path>
        </g>
        <rect id="Rectangle" stroke="#D0D0D0" fill="#FFFFFF" x="56.5" y="0.5" width="50" height="31"></rect>
        <g id="Payment-method-/-Sofort-(old)" transform="translate(66.500000, 1.000000)" fill="#EE7F00" fill-rule="nonzero">
            <path d="M9.92170969,12.25 C9.51137886,12.25 9.11347476,12.3440085 8.73973259,12.5194406 C8.20603137,12.7714359 7.72187065,13.1916431 7.32665889,13.7492874 C7.06993809,14.1113044 6.8501326,14.5309355 6.67807802,15.0002614 C6.35362402,15.8861629 6.35725394,16.6047506 6.68896518,17.0782966 C6.87704594,17.3459661 7.26803208,17.6657624 8.06299039,17.6666667 L8.06603762,17.6666667 C9.51413808,17.6666667 10.5951037,16.7204775 11.2796932,14.8543266 C11.4605165,14.3605851 11.6991052,13.4390923 11.2630724,12.8172433 C10.999699,12.4413606 10.5491481,12.2506027 9.92170858,12.25 L9.92170969,12.25 Z M18.6593376,12.25 C18.2493092,12.25 17.8510908,12.3440085 17.4776511,12.5194406 C16.943647,12.7714359 16.4598616,13.1916431 16.0646498,13.7492874 C15.8076265,14.1113044 15.5880507,14.5309355 15.4159964,15.0002614 C15.0912395,15.8861629 15.0951601,16.6047506 15.4271738,17.0782966 C15.6149518,17.3459661 16.0056358,17.6657624 16.8011991,17.6666667 L16.8036666,17.6666667 C18.2520696,17.6666667 19.3333376,16.7204775 20.0173226,14.8543266 C20.1987505,14.3605851 20.4367223,13.4390923 20.0009917,12.8172433 C19.7373161,12.4413606 19.2867771,12.2506027 18.6593376,12.25 L18.6593376,12.25 Z M5.27110102,12.3250295 C4.79454945,12.3250295 4.33161119,12.3250295 3.91674518,12.5347793 C3.5021813,12.7445746 3.13598249,13.1644751 2.85416368,14.0042577 C2.7930831,14.1848143 2.76077579,14.3403762 2.75654275,14.475417 C2.75231082,14.6107589 2.77590417,14.7258901 2.82730868,14.8259646 C2.89080845,14.9480435 2.9936197,15.062895 3.12213173,15.159654 C3.25094587,15.2567142 3.40481827,15.3354167 3.57082569,15.3857556 C3.57717544,15.3875634 3.66429867,15.4122643 3.77013225,15.4424074 C3.87536048,15.4725504 3.99840867,15.5086854 4.07642254,15.5321968 C4.12208191,15.5460626 4.17223483,15.564168 4.21759208,15.5915984 C4.26325145,15.6184256 4.30409992,15.6545754 4.3298018,15.7046128 C4.34673547,15.7377699 4.35582216,15.7742572 4.35672927,15.8131413 C4.35793701,15.8523273 4.3512476,15.8945679 4.33582602,15.9391795 C4.29712177,16.0531197 4.23845668,16.1266626 4.12657583,16.1715757 C4.0152996,16.2164884 3.85112423,16.2309046 3.60196279,16.2327135 L0.491661732,16.2327135 L0,17.5791925 L3.32920427,17.5791925 C3.64247048,17.5791925 4.21517102,17.5791925 4.76550379,17.3459283 C5.31583619,17.1129231 5.84385209,16.6472084 6.06731129,15.7148868 C6.15137317,15.3646255 6.12534612,15.0791694 5.98776302,14.8549056 C5.84957494,14.6309433 5.5998085,14.468204 5.23604451,14.364211 C5.23604451,14.364211 5.1547296,14.3406325 5.05887495,14.3132026 C4.96362491,14.2857727 4.8532465,14.2544505 4.79700395,14.2381731 C4.70387062,14.2116474 4.63219164,14.157986 4.58985858,14.0895611 C4.54782764,14.0214382 4.53512367,13.938539 4.55901171,13.8538369 C4.58410898,13.7658196 4.64459609,13.6955837 4.73168141,13.6470536 C4.81937172,13.5988243 4.93427155,13.5723134 5.06852834,13.5723134 L7.00374746,13.5723134 C7.01735445,13.5527206 7.02976967,13.5313471 7.04337666,13.5117543 C7.39685923,13.0131896 7.82474433,12.6098806 8.29343405,12.3250295 L5.27110102,12.3250295 L5.27110102,12.3250295 Z M13.9693902,12.3250287 C13.1082104,12.3250287 12.4671364,12.759358 12.1644533,13.5723134 L10.7015166,17.5791925 L12.304171,17.5791925 L13.0558895,15.519535 L14.4722293,15.520476 L14.8752698,14.4172457 L13.4635027,14.4163047 L13.690898,13.7775775 C13.7380691,13.6630342 13.8514435,13.5720241 14.0171484,13.5720241 C14.1093743,13.5720241 15.1492231,13.5723205 15.6871577,13.572602 C15.7010676,13.552708 15.7134702,13.5313463 15.7270772,13.5117535 C16.0805597,13.0131888 16.5810257,12.6098799 17.0497154,12.3250287 L13.9693902,12.3250287 L13.9693902,12.3250287 Z M21.4043399,12.3279226 L19.4850881,17.5824476 L21.1152508,17.5824476 L21.8128238,15.7329018 C21.8469929,15.8091634 22.2585419,17.5824476 22.2585419,17.5824476 L23.9724628,17.5824476 C23.9724628,17.5824476 23.6607232,16.2793843 23.4315189,15.7530881 C23.372555,15.6177462 23.3111207,15.466134 23.2288734,15.3392322 C23.7129847,15.1598815 24.4145049,14.7749507 24.7050923,13.994851 C24.8834968,13.5152768 24.8732603,13.1276099 24.6748988,12.8433618 C24.4345059,12.4982245 23.9452548,12.3288273 23.1787201,12.3279226 L21.4043399,12.3279226 Z M24.7479876,12.3279967 C24.8510995,12.4093827 24.9399849,12.5021868 25.0140683,12.6082899 C25.2036609,12.8807827 25.2762124,13.2045824 25.2329719,13.5756422 L26.203666,13.5756422 L24.7407297,17.5837515 L26.2024323,17.5837515 L27.6662401,13.5756422 L29.5443383,13.5756422 L30,12.3279967 L24.7479876,12.3279967 L24.7479876,12.3279967 Z M22.478389,13.41277 L22.7475183,13.41277 C23.2394907,13.4131104 23.4229933,13.5565629 23.2563817,14.0041859 C23.1000507,14.424379 22.8188439,14.6839372 22.2842356,14.6839372 L22.2821323,14.6839372 L22.0054547,14.6836409 L22.4783905,13.41277 L22.478389,13.41277 Z M9.53710452,13.4388237 L9.53740181,13.4388237 C10.0381435,13.4394276 10.1527806,13.7288229 9.71311949,14.9279098 L9.71304517,14.9279098 C9.26128837,16.1604557 8.93353742,16.4706089 8.44005218,16.4706089 L8.43910829,16.4706089 C7.95832367,16.4703125 7.78964175,16.1670284 8.23958395,14.9402097 C8.57552898,14.0244666 9.01066463,13.4388237 9.53710935,13.4388237 L9.53710452,13.4388237 Z M18.2747324,13.4388237 L18.2753121,13.4388237 C18.7757517,13.4394276 18.8906308,13.7288229 18.4506671,14.9279098 C17.9992128,16.1604557 17.6711475,16.4706089 17.1779647,16.4706089 L17.1768053,16.4706089 C16.6957178,16.4703125 16.5278586,16.1670284 16.9774987,14.9402097 C17.3131409,14.0244666 17.7485913,13.4388237 18.2747335,13.4388237 L18.2747324,13.4388237 Z" id="Sofort"></path>
        </g>
    </g>
</svg>