<svg xmlns="http://www.w3.org/2000/svg" width="51" height="32" viewBox="0 0 51 32">
  <g fill="none" fill-rule="evenodd">
    <rect width="50" height="31" x=".5" y=".5" fill="#FFF" stroke="#D0D0D0"/>
    <path fill="#2C3341" fill-rule="nonzero" d="M3.92516895,19.4445479 C4.11462614,19.4678103 4.25711234,19.5621553 4.36244602,19.689316 C4.41849787,19.7569828 4.4598996,19.8292037 4.49610498,19.9109718 L4.50712804,19.9365554 C4.5451904,20.0273321 4.57807601,20.1316188 4.61416802,20.2667675 L4.62266048,20.2993369 C4.64785196,20.4000999 4.78293662,20.9579963 4.83330244,21.1369653 C4.91684025,21.4338071 5.00212997,21.6615403 5.09475185,21.8256063 C5.1385499,21.903188 5.18107377,21.9609421 5.21937177,21.9983533 C5.23333267,22.0119909 5.24544214,22.0216607 5.25549355,22.0279768 C5.26124982,22.0315939 5.26502826,22.0333553 5.26762647,22.0341653 C5.35066681,22.0600511 5.37417875,22.0576769 5.39675408,22.0442181 C5.43699643,22.0202267 5.4924349,21.9585741 5.56922608,21.84234 L5.582366,21.8221856 L5.7271391,21.5916658 C5.78850235,21.4963779 5.841947,21.4223743 5.90361872,21.3531881 C6.00133071,21.2435703 6.11061409,21.1572997 6.24675727,21.1002581 C6.41700912,21.0289255 6.59046571,21.0275864 6.75723661,21.0730022 C6.85983469,21.1009422 6.95410609,21.1444795 7.05507803,21.2036286 L7.07717535,21.216753 L7.10110076,21.2313654 C7.14524116,21.2587019 7.19134845,21.2893093 7.24672491,21.3275195 L7.47435139,21.4862869 L7.47435139,21.4862869 L7.50599365,21.507723 L7.53366835,21.5261338 C7.92642738,21.7850672 8.15250763,21.831137 8.40853312,21.6838951 L8.42122625,21.6764512 L8.43402413,21.6686569 C8.71361212,21.4952364 9.08084807,21.5813022 9.25426857,21.8608902 C9.42768907,22.1404782 9.34162332,22.5077141 9.06203533,22.6811346 C9.04227261,22.6933929 9.02243078,22.7052505 9.00251,22.7167071 C8.58136898,22.958908 8.14085398,23.0137955 7.70453209,22.9069739 C7.4009926,22.8326604 7.14062605,22.6987532 6.82962892,22.4886559 L6.80678131,22.4731467 C6.78586285,22.4588802 6.76524331,22.4446597 6.74246903,22.428809 L6.64943673,22.3635819 L6.59288589,22.4534231 L6.57409514,22.4826574 C6.40286833,22.7448983 6.23870952,22.9293627 6.00685803,23.0675862 C5.68694101,23.258312 5.31247996,23.2961247 4.91305398,23.171613 C4.54500714,23.0568831 4.27004559,22.7882887 4.05723515,22.4113265 C3.93714377,22.1986024 3.8384319,21.9554504 3.74828652,21.6681865 L3.74029563,21.6425194 L3.70807251,21.7238115 C3.63843265,21.8979495 3.58012911,22.0330046 3.52020309,22.1572831 L3.50734619,22.1837311 C3.4396316,22.3219011 3.37358486,22.4368641 3.30277819,22.5334629 C3.18450013,22.6948249 3.05279724,22.8130414 2.86258001,22.8741497 C2.6184423,22.9525802 2.40241113,22.8946387 2.20511453,22.7696926 C2.09768297,22.7016572 1.99522802,22.6114599 1.88756214,22.4976058 C1.7322895,22.3334088 1.56235456,22.1151456 1.36767376,21.8382466 L1.350926,21.8143687 C1.29895133,21.7400911 1.24541169,21.661933 1.18948326,21.5788567 L1.14214155,21.5082288 C1.10244107,21.4487476 1.06179237,21.3872222 1.01775333,21.3200344 L0.720811896,20.8639692 L0.676768452,20.7972034 L0.640934571,20.743653 C0.621141175,20.7143414 0.604348237,20.6899993 0.590166857,20.670064 L0.579500445,20.6552534 L0.578670401,20.6545186 C0.441283672,20.5309899 0.363369325,20.3456524 0.384091897,20.1487338 L0.385342385,20.1385494 C0.425437976,19.811997 0.722664887,19.5797779 1.04921727,19.6198735 C1.19133735,19.6373237 1.28131936,19.6874438 1.36641621,19.7570644 C1.39857991,19.7833786 1.42503877,19.8096126 1.45082089,19.8383398 C1.4771764,19.8677059 1.50269799,19.899763 1.53064722,19.9375366 L1.54124835,19.9519756 C1.5830784,20.0093679 1.63236481,20.0818415 1.69918804,20.1833231 L1.98998813,20.6298978 L2.04945031,20.7205481 C2.07335166,20.7568514 2.09628636,20.7915079 2.11872897,20.8252217 L2.17781592,20.9134939 L2.21642932,20.9706104 C2.2545808,21.0267986 2.29137814,21.0802417 2.32710622,21.1313012 L2.3587404,21.1762772 L2.39280033,21.2241573 C2.43769368,21.2868768 2.48049771,21.3450972 2.52109481,21.3986228 L2.54234681,21.426468 L2.55777724,21.3895675 L2.57033524,21.3590753 C2.60849081,21.2659243 2.65108515,21.1574706 2.7009489,21.0273579 L2.86463966,20.5989521 C3.0165729,20.2037785 3.05492897,20.1186801 3.14201057,19.9560239 L3.14538423,19.9497288 C3.2012716,19.8455484 3.25731587,19.7596358 3.3245746,19.6849612 C3.37936685,19.6241277 3.44081722,19.5714591 3.51616259,19.5284547 C3.63538577,19.4604066 3.77478878,19.4260835 3.92516895,19.4445479 Z M11.0646163,18.4563609 L14.2674523,21.6609841 L10.6964043,22.5268272 C10.4365537,22.5900134 10.2017164,22.3601903 10.2535698,22.1009423 L10.255247,22.0929972 L11.0646163,18.4563609 Z M0.674112008,20.7244884 L0.676362697,20.7263289 C0.735809993,20.7741498 0.805714319,20.809001 0.904018292,20.8244884 C0.822380196,20.8116267 0.746637929,20.7781445 0.679572452,20.7286091 L0.674112008,20.7244884 Z M20.0423508,9.47677961 L23.2470038,12.6814028 L15.1351421,20.7932645 L11.9323061,17.5886413 L20.0423508,9.47677961 Z M6.67913194,17.0089001 C7.03129501,17.7738761 8.31523688,18.3843319 9.97005189,18.5865443 L9.64232709,19.8398978 C7.88248088,19.5589849 6.61513188,18.8063083 6.58327382,17.9178011 L6.58265929,17.8835006 L6.58265929,17.4336781 C6.58265929,17.288153 6.61599621,17.146077 6.67913194,17.0089001 Z M0.0961554483,15.7876436 C0.528267218,16.7293824 2.36787689,17.4369798 4.57192904,17.4369798 C4.99657407,17.4369798 5.40731629,17.4102867 5.79743035,17.3611308 L5.84608669,17.3548697 L5.84608669,17.9056936 C5.84608669,18.1573543 5.90415611,18.4002749 6.0167293,18.6306145 C5.56255742,18.6992029 5.07688228,18.7364367 4.57192904,18.7364367 C2.07217773,18.7364367 0.0409863617,17.826307 0.000612509461,16.6965458 L0,16.6622441 L0,16.2124215 C0,16.0668181 0.0332273106,15.9247813 0.0961554483,15.7876436 Z M6.67913194,14.6855694 C7.11266921,15.6273082 8.95834761,16.3349056 11.1696707,16.3349056 C11.2724993,16.3349056 11.3745372,16.3333755 11.4756792,16.3303628 L10.2463292,17.5301122 L10.2304346,17.5908434 C8.17145341,17.3971162 6.61858181,16.5792338 6.58327382,15.5945096 L6.58265929,15.5602091 L6.58265929,15.1103474 C6.58265929,14.9647439 6.61599621,14.8227463 6.67913194,14.6855694 Z M0.0960226795,13.4643521 C0.527537801,14.4060908 2.36460739,15.1136883 4.56561625,15.1136883 C4.98967494,15.1136883 5.39985002,15.0869952 5.78942542,15.0378393 L5.83801457,15.0315781 L5.83801457,16.3314661 C5.43408543,16.3845732 5.00722666,16.4131451 4.56561625,16.4131451 C2.06931652,16.4131451 0.0409297689,15.5030155 0.000611663725,14.3732923 L0,14.3389918 L0,13.8891692 C0,13.7435658 0.0331814312,13.6015289 0.0960226795,13.4643521 Z M6.67913194,12.2431347 C7.11266921,13.184861 8.95834761,13.892449 11.1696707,13.892449 C12.6464901,13.892449 13.9602261,13.576871 14.7991598,13.086706 L12.7761503,15.0611649 C12.2761826,15.1457059 11.7348623,15.1919278 11.1696707,15.1919278 C8.66167296,15.1919278 6.62378086,14.2818102 6.58327382,13.152064 L6.58265929,13.1177628 L6.58265929,12.6679462 C6.58265929,12.5223055 6.61599621,12.3802706 6.67913194,12.2431347 Z M4.56561625,9.47305639 C4.98956224,9.47305639 5.39994918,9.49932444 5.78943786,9.54833218 L5.83801457,9.55457633 L5.83801457,13.9785088 C5.43408543,14.0315652 5.00722666,14.0600678 4.56561625,14.0600678 C2.06931652,14.0600678 0.0409297689,13.1520699 0.000611663725,12.0251243 L0,11.9909081 L0,11.542177 C0,10.3994122 2.04410138,9.47305639 4.56561625,9.47305639 Z M15.6602095,9.94962901 C15.7207146,10.0810526 15.7538524,10.2169756 15.7565088,10.3562597 L15.7566822,10.3744462 L15.7566822,10.8242687 C15.7566822,11.9698131 13.7029625,12.8984221 11.1696707,12.8984221 C8.66167296,12.8984221 6.62378086,11.9882924 6.58327382,10.8585692 L6.58265929,10.8242687 L6.58265929,10.3744462 C6.58265929,10.2288035 6.61599621,10.0867667 6.67913194,9.94962901 C7.11266921,10.891407 8.95834761,11.5989652 11.1696707,11.5989652 C13.3809939,11.5989652 15.2266723,10.891407 15.6602095,9.94962901 Z M24.2328915,7.25834221 L24.2495637,7.27474605 L25.6787156,8.70389797 C26.102811,9.12799339 26.107052,9.80933798 25.6914385,10.2386073 L25.6787156,10.2515378 L24.0818697,11.8483837 L20.8772167,8.64373068 L22.2462013,7.27474605 C22.7948537,6.72795135 23.6793431,6.7224834 24.2328915,7.25834221 Z M11.1696707,5.95833333 C13.6776296,5.95833333 15.7155598,6.86626239 15.7560676,7.993254 L15.7566822,8.0274716 L15.7566822,8.47620651 C15.7566822,9.61898109 13.7029625,10.5453448 11.1696707,10.5453448 C8.66167296,10.5453448 6.62378086,9.63741573 6.58327382,8.51042411 L6.58265929,8.47620651 L6.58265929,8.0274716 C6.58265929,6.88469703 8.63633965,5.95833333 11.1696707,5.95833333 Z" transform="translate(5 3)"/>
    <path fill="#EE7F00" fill-rule="nonzero" d="M4.63013119,5.71666667 C4.43864347,5.71666667 4.25295489,5.76053728 4.07854187,5.84240564 C3.82948131,5.96000344 3.60353964,6.15610011 3.41910748,6.41633412 C3.29930444,6.58527538 3.19672854,6.78110323 3.11643641,7.00012197 C2.96502454,7.4135427 2.96671851,7.74888361 3.12151708,7.96987173 C3.2092881,8.09478419 3.3917483,8.24402246 3.76272885,8.24444444 L3.76415089,8.24444444 C4.43993111,8.24444444 4.94438171,7.80288949 5.26385684,6.93201907 C5.34824103,6.70160636 5.45958241,6.27157641 5.25610048,5.98138019 C5.13319288,5.80596826 4.92293579,5.71694793 4.63013067,5.71666667 L4.63013119,5.71666667 Z M8.70769087,5.71666667 C8.51634431,5.71666667 8.33050902,5.76053728 8.15623717,5.84240564 C7.90703526,5.96000344 7.68126875,6.15610011 7.49683659,6.41633412 C7.37689239,6.58527538 7.27442366,6.78110323 7.19413165,7.00012197 C7.04257845,7.4135427 7.04440802,7.74888361 7.19934776,7.96987173 C7.2869775,8.09478419 7.46929671,8.24402246 7.84055958,8.24444444 L7.84171109,8.24444444 C8.51763247,8.24444444 9.02222423,7.80288949 9.34141721,6.93201907 C9.42608355,6.70160636 9.53713706,6.27157641 9.33379611,5.98138019 C9.21074753,5.80596826 9.00049599,5.71694793 8.70769087,5.71666667 L8.70769087,5.71666667 Z M2.45984714,5.75168042 C2.23745641,5.75168042 2.02141855,5.75168042 1.82781442,5.84956366 C1.63435127,5.94746817 1.4634585,6.14342169 1.33194305,6.53532028 C1.30343878,6.61958 1.28836204,6.69217556 1.28638661,6.75519458 C1.28441171,6.81835415 1.29542194,6.87208205 1.31941072,6.91878348 C1.34904395,6.97575363 1.39702253,7.02935101 1.45699481,7.07450522 C1.51710807,7.11979997 1.58891519,7.15652777 1.66638532,7.18001929 C1.66934854,7.18086292 1.71000605,7.19238999 1.75939505,7.20645676 C1.80850156,7.22052353 1.86592405,7.23738654 1.90233052,7.24835852 C1.92363823,7.2548292 1.94704292,7.26327842 1.96820964,7.27607923 C1.98951734,7.2885986 2.00857996,7.30546853 2.02057417,7.32881933 C2.02847655,7.3442926 2.03271701,7.36132001 2.03314032,7.37946592 C2.03370394,7.39775272 2.03058221,7.41746504 2.02338548,7.43828375 C2.00532349,7.49145586 1.97794645,7.52577587 1.92573539,7.54673531 C1.87380648,7.56769457 1.79719131,7.57442214 1.68091597,7.57526628 L0.229442142,7.57526628 L0,8.20362316 L1.55362866,8.20362316 C1.69981956,8.20362316 1.96707981,8.20362316 2.22390177,8.09476656 C2.48072355,7.9860308 2.72713098,7.76869723 2.83141193,7.33361382 C2.87064081,7.17015855 2.85849486,7.03694572 2.79428941,6.93228927 C2.72980164,6.82777354 2.61324397,6.75182855 2.44348744,6.70329845 C2.44348744,6.70329845 2.40554048,6.69229519 2.36080831,6.67949455 C2.31635829,6.66669391 2.26484837,6.65207688 2.23860184,6.64448079 C2.19513962,6.63210214 2.16168943,6.60706011 2.141934,6.57512853 C2.12231956,6.54333784 2.11639105,6.50465155 2.1275388,6.46512387 C2.13925086,6.42404915 2.16747817,6.39127239 2.20811799,6.36862501 C2.24904014,6.34611801 2.30266006,6.33374627 2.36531323,6.33374627 L3.26841548,6.33374627 C3.27476541,6.32460296 3.28055918,6.31462864 3.28690911,6.30548532 C3.45186764,6.0728218 3.65154736,5.88461095 3.87026922,5.75168042 L2.45984714,5.75168042 L2.45984714,5.75168042 Z M6.51904875,5.75168008 C6.11716486,5.75168008 5.81799698,5.95436705 5.67674489,6.33374627 L4.99404107,8.20362316 L5.74194646,8.20362316 L6.09274843,7.24244968 L6.75370701,7.24288878 L6.94179259,6.72804798 L6.28296794,6.72760888 L6.38908576,6.42953618 C6.41109893,6.37608263 6.46400697,6.33361125 6.54133593,6.33361125 C6.58437466,6.33361125 7.06963744,6.33374955 7.3206736,6.33388094 C7.32716487,6.32459708 7.33295274,6.31462829 7.33930267,6.30548498 C7.5042612,6.07282145 7.737812,5.88461061 7.95653387,5.75168008 L6.51904875,5.75168008 L6.51904875,5.75168008 Z M9.98869194,5.75303057 L9.09304113,8.2051422 L9.85378372,8.2051422 L10.1793178,7.34202086 C10.1952633,7.3776096 10.3873195,8.2051422 10.3873195,8.2051422 L11.1871493,8.2051422 C11.1871493,8.2051422 11.0416708,7.597046 10.9347088,7.35144112 C10.9071923,7.28828155 10.878523,7.21752918 10.8401409,7.15830838 C11.0660595,7.07461136 11.3934356,6.89497698 11.5290431,6.53093049 C11.6122985,6.30712918 11.6075215,6.12621795 11.5149528,5.99356886 C11.4027694,5.83250479 11.1744522,5.75345273 10.816736,5.75303057 L9.98869194,5.75303057 Z M11.5490609,5.75306514 C11.5971798,5.79104525 11.6386596,5.83435385 11.6732319,5.88386863 C11.7617084,6.01103191 11.7955658,6.16213843 11.7753869,6.33529972 L12.2283775,6.33529972 L11.5456738,8.20575072 L12.2278017,8.20575072 L12.910912,6.33529972 L13.7873579,6.33529972 L14,5.75306514 L11.5490609,5.75306514 L11.5490609,5.75306514 Z M10.4899149,6.25929266 L10.6155086,6.25929266 C10.8450957,6.25945153 10.9307302,6.32639601 10.8529781,6.53528674 C10.7800237,6.73137684 10.6487938,6.85250405 10.3993099,6.85250405 L10.3983284,6.85250405 L10.2692122,6.85236575 L10.4899156,6.25929266 L10.4899149,6.25929266 Z M4.45064878,6.27145107 L4.45078751,6.27145107 C4.68446699,6.27173286 4.7379643,6.40678404 4.53278909,6.96635792 L4.53275441,6.96635792 C4.32193457,7.54154597 4.16898413,7.68628415 3.93869102,7.68628415 L3.93825053,7.68628415 C3.71388438,7.68614585 3.63516615,7.54461328 3.84513918,6.97209786 C4.00191352,6.54475109 4.20497683,6.27145107 4.45065103,6.27145107 L4.45064878,6.27145107 Z M8.52820846,6.27145107 L8.52847899,6.27145107 C8.76201747,6.27173286 8.81562768,6.40678404 8.61031131,6.96635792 C8.39963264,7.54154597 8.24653548,7.68628415 8.01638354,7.68628415 L8.01584247,7.68628415 C7.79133498,7.68614585 7.7130007,7.54461328 7.92283274,6.97209786 C8.07946574,6.54475109 8.28267593,6.27145107 8.52820898,6.27145107 L8.52820846,6.27145107 Z" transform="translate(34 3)"/>
  </g>
</svg>
