<svg height="360" viewBox="0 0 640 360" width="640" xmlns="http://www.w3.org/2000/svg"><g fill="none" fill-rule="nonzero"><path d="m51.3291324 254.274857c2.4775172.304201 4.3407981 1.537943 5.7182386 3.200813.7329857.884874 1.274393 1.829301 1.7478479 2.898577l.1441478.334554c.4977386 1.18708.9277812 2.550829 1.3997536 4.318158l.1110552.425908c.329427 1.31767 2.0959188 8.613239 2.7545487 10.953603 1.0924175 3.881776 2.2077446 6.859826 3.4189539 9.005304.5727437 1.014531 1.1288251 1.769777 1.629645 2.259.1825657.178338.3409203.30479.4723618.387384.0752742.0473.1246846.070335.1586612.080926 1.0859122.338508 1.393376.30746 1.6885919.131461.5262461-.313734 1.2512107-1.119961 2.2554031-2.639945l.1718297-.263557 1.8931867-3.01449c.8024425-1.246073 1.501334-2.213812 2.3078104-3.118554 1.2777721-1.433464 2.7068626-2.561618 4.4871964-3.307547 2.2263704-.932811 4.4946489-.950322 6.6754991-.356423 1.3416672.365369 2.5744471.934704 3.8948493 1.708191l.2889649.171627.3128708.191086c.5772207.357477 1.1801621.757727 1.9043158 1.257398l2.9766539 2.07619.4137835.280319.3618999.240756c5.1360795 3.386052 8.0925135 3.988504 11.4405395 2.063032l.165987-.097343.167357-.101925c3.65615-2.267807 8.458467-1.142331 10.726273 2.513819 2.267807 3.656151 1.142332 8.458467-2.513819 10.726274-.258436.1603-.517906.315362-.778408.465178-5.507229 3.167243-11.26781 3.885003-16.973558 2.488104-3.9693621-.971791-7.3741554-2.722885-11.441041-5.470312l-.2987764-.202813c-.273549-.186561-.5431892-.372521-.8410067-.5798l-1.2165763-.85297-.739511 1.174847-.2457252.382295c-2.2391198 3.429303-4.385812 5.841531-7.417716 7.649069-4.1835303 2.494106-9.0803287 2.988579-14.3035914 1.36035-4.8129203-1.500314-8.4085713-5.012703-11.191477-9.942208-1.5704258-2.781777-2.8612733-5.961457-4.0400975-9.717985l-.1044963-.335647-.4213792 1.06305c-.9106751 2.277191-1.6731061 4.043295-2.456754 5.668475l-.1681287.345859c-.8854985 1.806839-1.7491866 3.310201-2.67512 4.573415-1.546713 2.110119-3.2689816 3.656028-5.7564377 4.455136-3.19257 1.025629-6.0175931.267933-8.5976255-1.365977-1.4048743-.889694-2.7446697-2.069197-4.1526082-3.558058-2.0304884-2.147193-4.2527146-5.001403-6.7985404-8.62239l-.2190092-.312249c-.6796686-.971323-1.3798024-1.99339-2.1111742-3.079773l-.619084-.923595c-.51916-.777832-1.0507199-1.582395-1.6266151-2.461004l-3.88308028-5.96393-.57595273-.873091-.4685969-.700275c-.25883673-.383305-.47843668-.701625-.6638855-.962317l-.13948384-.193677-.01085442-.009609c-1.79659569-1.615375-2.81547562-4.03902-2.54448814-6.614109l.01635253-.133181c.52432696-4.2703 4.41114042-7.307011 8.68144088-6.782684 1.8584933.228194 3.0351811.883612 4.1479861 1.794034.4206022.344109.7666026.687169 1.1037535 1.062832.344649.384018.6783928.803227 1.0438828 1.297189l.1386301.188818c.5470084.750514 1.191523 1.698247 2.0653652 3.025314l3.8027704 5.839823.7775823 1.185427c.3125561.474736.6124714.927936.9059517 1.368808l.7726755 1.154329.5049446.746909c.4989039.734768.9800999 1.43364 1.4473133 2.10134l.4136777.588148.445399.626125c.5870669.820178 1.146812 1.581522 1.6776971 2.281472l.2779108.364129.2017825-.482545.1642201-.398745c.4989574-1.218128 1.0559603-2.636368 1.7080247-4.337842l2.1405714-5.60223c1.9868194-5.167654 2.4883987-6.28048 3.6271582-8.407523l.0441171-.08232c.7308348-1.362359 1.4637213-2.485831 2.3432586-3.462345.7165141-.795516 1.5200958-1.484259 2.5053815-2.046624 1.5590723-.88986 3.3820347-1.3387 5.3485446-1.097243zm93.3620036-12.922445 41.883241 41.906611-46.69832 11.322563c-3.398047.826281-6.468996-2.179097-5.790913-5.569264l.021932-.103897zm-135.87582513 29.660129.02943209.018757c.77738772.487373 1.69152124.842563 2.97703474 1.000404-1.0675751-.131081-2.05805093-.472319-2.93506102-.977164zm253.27696913-147.085423 41.907001 41.906611-106.078192 106.078191-41.88324-41.906611zm-174.7497854 98.49696c4.6052093 10.003533 21.3952184 17.986415 43.0351074 20.630731l-4.285632 16.390008c-23.013374-3.673476-39.5863992-13.51617-40.0030047-25.13511l-.0080362-.448545v-5.882295c0-1.90302.4359444-3.760937 1.2615655-5.554789zm-86.0850772-15.970277c5.65069238 12.315045 29.7071266 21.568243 58.529347 21.568243 5.5530503 0 10.9242948-.349064 16.0257864-.991872l.6362751-.081876v7.203081c0 3.290949.7593694 6.467603 2.2314804 9.479736-5.9391708.896925-12.2903072 1.383828-18.8935419 1.383828-32.6890556 0-59.2507889-11.901696-59.77875466-26.675496l-.00800974-.448561v-5.882295c0-1.904045.43451099-3.76145 1.2574174-5.554788zm86.0850772-14.41174c5.6693336 12.315046 29.8051284 21.568243 58.7224304 21.568243 1.344681 0 2.679023-.020009 4.001649-.059406l-16.076115 15.689031-.207853.794177c-26.925138-2.533355-47.2319207-13.228741-47.6936407-26.105903l-.0080362-.448546v-5.882807c0-1.904045.4359444-3.760937 1.2615655-5.554789zm-86.08681341-15.969765c5.64289006 12.315046 29.66610781 21.568243 58.44853121 21.568243 5.5453829 0 10.9092109-.349064 16.0036585-.991871l.6353966-.081877v16.998535c-5.2821504.694477-10.8641496 1.06811-16.6390551 1.06811-32.6439194 0-59.16897696-11.901695-59.69621372-26.674998l-.00799868-.448546v-5.882295c0-1.904045.43391102-3.761449 1.25568119-5.555301zm86.08681341-15.969765c5.6693336 12.314882 29.8051284 21.567957 58.7224304 21.567957 19.312253 0 36.491878-4.12679 47.462549-10.53664l-26.454739 25.819846c-6.538039 1.105537-13.616843 1.709977-21.00781 1.709977-32.796894 0-59.4462522-11.901537-59.9759597-26.675141l-.0080362-.448555v-5.882216c0-1.904533.4359444-3.761913 1.2615655-5.555228zm-27.6382822-36.224101c5.5439093 0 10.9105077.343505 16.0038212.984375l.6352339.081655v57.851424c-5.2821504.693815-10.8641496 1.066542-16.6390551 1.066542-32.6439194 0-59.16897696-11.87382-59.69621372-26.610801l-.00799868-.447442v-5.868022c0-14.943848 26.7305565-27.057731 59.7042124-27.057731zm145.0831426 6.232103c.791221 1.718617 1.224561 3.496071 1.259299 5.317479l.002267.237822v5.882295c0 14.980196-26.856334 27.123544-59.983996 27.123544-32.796894 0-59.4462522-11.901695-59.9759597-26.674998l-.0080362-.448546v-5.882295c0-1.904557.4359444-3.761962 1.2615655-5.555301 5.6693336 12.315558 29.8051284 21.568243 58.7224304 21.568243s53.053097-9.252685 58.72243-21.568243zm112.104303-35.1937503.218021.2145118 18.688909 18.6889095c5.545864 5.545863 5.601322 14.455754.166376 20.069276l-.166376.169091-20.881831 20.881831-41.907-41.907001 17.902106-17.9021065c7.174686-7.1503923 18.741085-7.2218962 25.979795-.2145118zm-170.826733-17.000116c32.796385 0 59.446242 11.8729184 59.97596 26.6105013l.008036.447461v5.868072c0 14.943975-26.856334 27.057962-59.983996 27.057962-32.796894 0-59.4462522-11.872919-59.9759597-26.610502l-.0080362-.44746v-5.868072c0-14.9439756 26.8558199-27.0579623 59.9839959-27.0579623z" fill="#2c3341" transform="translate(40 10)"/><path d="m63.498942 78.4c-2.6261173 0-5.1727035.6016542-7.5646534 1.7244201-3.4156878 1.61277-6.5143164 4.3020957-9.0436717 7.8710193-1.6430131 2.3169086-3.0497683 5.0025477-4.1509175 8.0062333-2.0765056 5.6697703-2.0532742 10.2687313.0696777 13.2994253 1.2037169 1.713085 3.7060282 3.759781 8.7937614 3.765569h.0195022c9.267843 0 16.1860227-6.055611 20.5673959-17.9989769 1.1572689-3.1599457 2.6842365-9.0574994-.1063729-13.0373332-1.68559-2.4056493-4.5691158-3.6264995-8.5847288-3.6303569zm55.920819 0c-2.624182 0-5.17278.6016542-7.562794 1.7244201-3.417626 1.61277-6.513853 4.3020957-9.043208 7.8710193-1.644949 2.3169086-3.0502345 5.0025477-4.1513821 8.0062333-2.0784439 5.6697703-2.0533526 10.2687313.0715353 13.2994253 1.2017792 1.713085 3.7021568 3.759781 8.7937618 3.765569h.015792c9.269779 0 16.189895-6.055611 20.567399-17.9989769 1.161138-3.1599457 2.684158-9.0574994-.104518-13.0373332-1.687524-2.4056493-4.570973-3.6264995-8.586586-3.6303569zm-85.6847145.4801886c-3.04993 0-6.0127349 0-8.6678773 1.3423988-2.6532089 1.3426903-4.9968812 4.030053-6.8005217 9.4046622-.3909157 1.1555619-.5976824 2.1511581-.6247739 3.0154189-.0270844.8661884.1239131 1.6030281.4529019 2.2435049.4063986.781305 1.0643906 1.5163547 1.8868676 2.1356124.8244105.6211852 1.8091938 1.1248808 2.8716413 1.4470502.0406384.0115698.5982271.1696554 1.275562.362571.6734606.1929157 1.4609691.4241798 1.9602579.5746527.2922199.0887407.6131986.2046158.903485.3801697.29222.1716943.5536502.4030536.7181422.7232926.1083755.212205.1665303.445724.1723358.694582.0077296.25079-.0350827.521131-.1337807.806645-.2477073.729217-.6231639 1.199892-1.3392013 1.487335-.7121678.287441-1.7628902.379705-3.3575235.391282h-19.90592671l-3.14663509 8.617466h21.3069073c2.0049038 0 5.6701872 0 9.1923169-1.492891 3.5221274-1.491233 6.9014292-4.471808 8.331568-10.438666.5379961-2.241672.371423-4.0685909-.5091089-5.5038793-.8844037-1.4333586-2.4829089-2.4748899-4.8109984-3.1404455 0 0-.5204155-.1509019-1.1338852-.3264535-.6096003-.1755516-1.3160221-.3760137-1.6759744-.4801887-.5960533-.1697644-1.0547988-.5131979-1.3257304-.9511167-.268998-.4359866-.3503034-.9665415-.19742-1.5086353.1606226-.5633105.5477401-1.0128204 1.1050861-1.323413.561218-.3086675 1.2965769-.478337 2.1558204-.478337h12.3854023c.0870848-.125394.1665422-.2621847.2536269-.3875787 2.2622885-3.1908141 5.0007531-5.7719913 8.0003673-7.5950387zm55.6690507-.0000047c-5.5115506 0-9.6144243 2.7797071-11.5515958 7.9826221l-9.3627952 25.644026h10.2569881l4.8109985-13.1818078 9.0645747.0060219 2.5794594-7.0606738-9.0353094-.0060219 1.45533-4.0878543c.301895-.7330772 1.0274909-1.3155418 2.0880024-1.3155418.5902455 0 7.2452778.0018967 10.6880591.0036986.089023-.1273215.1684-.2640363.255485-.3894304 2.262288-3.190814 5.465271-5.7719913 8.464885-7.5950386zm47.5836778.018521-12.283211 33.6289591h10.433041l4.464467-11.837092c.218683.488074 2.852596 11.837092 2.852596 11.837092h10.969094s-1.995133-8.339605-3.462041-11.7079c-.377369-.8661884-.770549-1.8365067-1.296931-2.6486777 3.098312-1.1478448 7.588042-3.611402 9.447801-8.6040396 1.141788-3.069275 1.076275-5.5503434-.193239-7.3695309-1.538514-2.2088787-4.669721-3.2930212-9.575543-3.2988109zm21.399346.0004742c.659916.52087 1.228783 1.1148165 1.702916 1.7938764 1.213393 1.7439536 1.677722 3.8162716 1.400983 6.1910549h6.212443l-9.362793 25.6518996h9.354897l9.36837-25.6518996h12.019828l2.916235-7.9849313zm-14.525431 6.9425488h1.722427c3.148624.0021788 4.32304.9202745 3.256726 3.7850617-1.000519 2.6892357-2.800242 4.3504088-6.221735 4.3504088h-.013462l-1.770736-.0018967 3.026789-8.1335738zm-82.824221.166744h.0019026c3.2047471.0038644 3.9384245 1.8559949 1.1245931 9.530151h-.0004756c-2.8912435 7.8882931-4.9888496 9.8732741-8.1471551 9.8732741h-.006041c-3.0770215-.001897-4.1565858-1.942915-1.2769557-9.7945549 2.1500482-5.8607558 4.9349163-9.6088702 8.3041626-9.6088702zm55.920818 0h.003711c3.202813.0038644 3.938039 1.8559949 1.122271 9.530151-2.889307 7.8882931-4.988925 9.8732741-8.145295 9.8732741h-.00742c-3.07896-.001897-4.153259-1.942915-1.275562-9.7945549 2.14811-5.8607558 4.934992-9.6088702 8.302303-9.6088702z" fill="#ee7f00" transform="translate(418 33)"/></g></svg>