<svg xmlns="http://www.w3.org/2000/svg" width="640" height="360" viewBox="0 0 640 360">
  <defs>
    <linearGradient id="payment-method-visa-a" x1="0%" y1="50.002%" y2="50.002%">
      <stop offset="0%" stop-color="#231E5C"/>
      <stop offset="100%" stop-color="#034EA2"/>
    </linearGradient>
  </defs>
  <path fill="url(#payment-method-visa-a)" fill-rule="evenodd" d="M237.6606,164.760148 L205.588568,315.643296 L166.79901,315.643296 L198.885709,164.760148 L237.6606,164.760148 Z M400.841728,262.182042 L421.263203,205.527675 L433.016429,262.182042 L400.841728,262.182042 Z M444.129193,315.643296 L480,315.643296 L448.690657,164.760148 L415.582151,164.760148 C408.136159,164.760148 401.853757,169.114391 399.071899,175.825338 L340.872895,315.643296 L381.59362,315.643296 L389.680074,293.099631 L439.440614,293.099631 L444.129193,315.643296 Z M342.887175,266.378844 C343.063181,226.560886 288.16916,224.361624 288.550505,206.570726 C288.67273,201.158672 293.791544,195.407134 305.002088,193.936039 C310.551136,193.202952 325.873354,192.637146 343.239186,200.681427 L350.054492,168.691267 C340.716446,165.276753 328.708991,162 313.768117,162 C275.433239,162 248.445798,182.511685 248.23557,211.874539 C247.976451,233.606396 267.488567,245.714637 282.189878,252.942189 C297.296978,260.337023 302.362012,265.079951 302.308233,271.687577 C302.195785,281.817958 290.251887,286.285363 279.090233,286.457565 C259.592785,286.762608 248.269793,281.153752 239.259312,276.922509 L232.233777,309.98524 C241.288259,314.172202 258.018517,317.822878 275.359904,318 C316.109962,318 342.76495,297.753998 342.887175,266.378844 L342.887175,266.378844 Z M182.238564,164.760148 L119.399872,315.643296 L78.4004726,315.643296 L47.4773628,195.225092 C45.5950865,187.810578 43.9719288,185.094711 38.2615427,181.9754 C28.938164,176.878229 13.5426109,172.100861 0,169.138991 L0.914248465,164.760148 L66.916143,164.760148 C75.3203842,164.760148 82.8886014,170.388684 84.8002119,180.140221 L101.134458,267.451415 L141.498284,164.760148 L182.238564,164.760148 L182.238564,164.760148 Z" transform="translate(80 -60)"/>
</svg>
