<svg height="32" viewBox="0 0 51 32" width="51" xmlns="http://www.w3.org/2000/svg" xmlns:xlink="http://www.w3.org/1999/xlink"><linearGradient id="a" x1="0%" y1="50.002%" y2="50.002%"><stop offset="0" stop-color="#231e5c"/><stop offset="1" stop-color="#034ea2"/></linearGradient><g fill="none" fill-rule="evenodd"><path d="m.5.5h50v31h-50z" fill="#fff" stroke="#d0d0d0"/><path d="m11.88303 8.23800738-1.6036016 7.54415742h-1.9394779l1.60433494-7.54415742zm8.1590564 4.87109472 1.0210737-2.8327183.5876614 2.8327183zm2.1643732 2.6730627h1.7935404l-1.5654672-7.54415742h-1.6554253c-.3722995 0-.6864197.21771218-.8255125.55325953l-2.9099502 6.99089789h2.0360362l.4043227-1.1271833h2.488027zm-5.0621008-2.4632226c.0088002-1.9908979-2.7359008-2.100861-2.7168336-2.9904059.0061113-.2706027.262052-.5581796.8225792-.63173433.2774524-.03665437 1.0435633-.06494465 1.9118549.33726933l.3407653-1.59950795c-.4669023-.17072571-1.0672751-.33456335-1.8143187-.33456335-1.9167439 0-3.266116 1.02558426-3.2766274 2.4937269-.0129559 1.0865929.9626498 1.692005 1.6977154 2.0533826.755355.3697417 1.0086067.606888 1.0059177.9372693-.0056223.5065191-.6028173.7298893-1.1608999.7384994-.9748725.0152522-1.5410221-.2651906-1.9915461-.4767527l-.3512767 1.6531365c.4527241.2093481 1.289237.3918819 2.1563063.400738 2.0375029 0 3.3702523-1.0123001 3.3763636-2.5810578zm-8.03243059-5.08093482-3.14193463 7.54415742h-2.04996995l-1.54615549-6.02091019c-.09411381-.3707257-.1752717-.50651906-.46079101-.66248462-.46616893-.25485855-1.23594658-.49372694-1.91307713-.64182042l.04571242-.21894219h3.30009473c.42021206 0 .79862292.28142681.89420344.76900369l.81671233 4.36555963 2.01819127-5.13456332z" fill="url(#a)" transform="translate(14 4)"/></g></svg>