<svg xmlns="http://www.w3.org/2000/svg" width="51" height="32" viewBox="0 0 51 32">
  <defs>
    <linearGradient id="icon-51x32-a" x1="0%" y1="50.002%" y2="50.002%">
      <stop offset="0%" stop-color="#231E5C"/>
      <stop offset="100%" stop-color="#034EA2"/>
    </linearGradient>
  </defs>
  <g fill="none" fill-rule="evenodd">
    <rect width="50" height="31" x=".5" y=".5" fill="#FFF" stroke="#D0D0D0"/>
    <path fill="url(#icon-51x32-a)" d="M11.88303,8.23800738 L10.2794284,15.7821648 L8.3399505,15.7821648 L9.94428544,8.23800738 L11.88303,8.23800738 Z M20.0420864,13.1091021 L21.0631601,10.2763838 L21.6508215,13.1091021 L20.0420864,13.1091021 Z M22.2064596,15.7821648 L24,15.7821648 L22.4345328,8.23800738 L20.7791075,8.23800738 C20.406808,8.23800738 20.0926878,8.45571956 19.953595,8.79126691 L17.0436448,15.7821648 L19.079681,15.7821648 L19.4840037,14.6549815 L21.9720307,14.6549815 L22.2064596,15.7821648 Z M17.1443588,13.3189422 C17.153159,11.3280443 14.408458,11.2180812 14.4275252,10.3285363 C14.4336365,10.0579336 14.6895772,9.7703567 15.2501044,9.69680197 C15.5275568,9.6601476 16.2936677,9.63185732 17.1619593,10.0340713 L17.5027246,8.43456335 C17.0358223,8.26383764 16.4354495,8.1 15.6884059,8.1 C13.771662,8.1 12.4222899,9.12558426 12.4117785,10.5937269 C12.3988226,11.6803198 13.3744283,12.2857319 14.1094939,12.6471095 C14.8648489,13.0168512 15.1181006,13.2539975 15.1154116,13.5843788 C15.1097893,14.0908979 14.5125943,14.3142681 13.9545117,14.3228782 C12.9796392,14.3381304 12.4134896,14.0576876 11.9629656,13.8461255 L11.6116889,15.499262 C12.064413,15.7086101 12.9009259,15.8911439 13.7679952,15.9 C15.8054981,15.9 17.1382475,14.8876999 17.1443588,13.3189422 L17.1443588,13.3189422 Z M9.11192821,8.23800738 L5.96999358,15.7821648 L3.92002363,15.7821648 L2.37386814,9.76125461 C2.27975433,9.39052891 2.19859644,9.25473555 1.91307713,9.09876999 C1.4469082,8.84391144 0.677130547,8.60504305 0,8.45694957 L0.0457124232,8.23800738 L3.34580715,8.23800738 C3.76601921,8.23800738 4.14443007,8.51943419 4.24001059,9.00701107 L5.05672292,13.3725707 L7.07491419,8.23800738 L9.11192821,8.23800738 L9.11192821,8.23800738 Z" transform="translate(14 4)"/>
  </g>
</svg>
