<svg height="360" viewBox="0 0 640 360" width="640" xmlns="http://www.w3.org/2000/svg" xmlns:xlink="http://www.w3.org/1999/xlink"><linearGradient id="a" x1="0%" y1="50.002%" y2="50.002%"><stop offset="0" stop-color="#231e5c"/><stop offset="1" stop-color="#034ea2"/></linearGradient><path d="m237.6606 164.760148-32.072032 150.883148h-38.789558l32.086699-150.883148zm163.181128 97.421894 20.421475-56.654367 11.753226 56.654367zm43.287465 53.461254h35.870807l-31.309343-150.883148h-33.108506c-7.445992 0-13.728394 4.354243-16.510252 11.06519l-58.199004 139.817958h40.720725l8.086454-22.543665h49.76054zm-101.242018-49.264452c.176006-39.817958-54.718015-42.01722-54.33667-59.808118.122225-5.412054 5.241039-11.163592 16.451583-12.634687 5.549048-.733087 20.871266-1.298893 38.237098 6.745388l6.815306-31.99016c-9.338046-3.414514-21.345501-6.691267-36.286375-6.691267-38.334878 0-65.322319 20.511685-65.532547 49.874539-.259119 21.731857 19.252997 33.840098 33.954308 41.06765 15.1071 7.394834 20.172134 12.137762 20.118355 18.745388-.112448 10.130381-12.056346 14.597786-23.218 14.769988-19.497448.305043-30.82044-5.303813-39.830921-9.535056l-7.025535 33.062731c9.054482 4.186962 25.78474 7.837638 43.126127 8.01476 40.750058 0 67.405046-20.246002 67.527271-51.621156zm-160.648611-101.618696-62.838692 150.883148h-40.9993994l-30.9231098-120.418204c-1.8822763-7.414514-3.505434-10.130381-9.2158201-13.249692-9.3233787-5.097171-24.7189318-9.874539-38.2615427-12.836409l.91424847-4.378843h66.00189453c8.4042412 0 15.9724584 5.628536 17.8840689 15.380073l16.3342461 87.311194 40.363826-102.691267z" fill="url(#a)" fill-rule="evenodd" transform="translate(80 -60)"/></svg>