<svg height="360" viewBox="0 0 640 360" width="640" xmlns="http://www.w3.org/2000/svg"><path d="m258.39899 100.24576-67.03165 159.92982h-43.73311l-32.9865-127.63133c-2.00265-7.86129-3.74398-10.74128-9.83461-14.05326-9.94395-5.39464-26.365195-10.45595-40.81312-13.59727l.981333-4.64796h70.396957c8.97329 0 17.03992 5.97329 19.07724 16.30658l17.42124 92.5435 43.05577-108.85276h43.46645zm171.35377 107.71409c.176-42.21045-58.36769-44.53577-57.96503-63.39167.12534-5.73864 5.5893-11.83994 17.54924-13.39727 5.92797-.77599 22.26122-1.36798 40.78645 7.1573l7.26664-33.91447c-9.95461-3.61334-22.76255-7.090635-38.69847-7.090635-40.89312 0-69.67163 21.738555-69.9143 52.866375-.264 23.02388 20.54123 35.87182 36.21581 43.52244 16.12525 7.83463 21.53589 12.86927 21.47456 19.87723-.11467 10.72794-12.86127 15.46392-24.77321 15.65059-20.79456.31999-32.86116-5.62665-42.47978-10.09861l-7.49863 35.03714c9.66662 4.43464 27.5092 8.30396 46.00777 8.49862 43.46376 0 71.89561-21.46921 72.02895-54.71704m107.98344 52.21572h38.2638l-33.39983-159.92981h-35.31714c-7.9413 0-14.63993 4.62396-17.60525 11.73326l-62.08235 148.19656h43.44245l8.62395-23.88787h53.07973zm-46.16243-56.66637 21.77589-60.04769 12.53327 60.04769zm-174.06309-103.26344-34.21049 159.92981h-41.37045l34.22382-159.92982z" fill="#1434cb" stroke-width=".266666"/></svg>