<?xml version="1.0" encoding="UTF-8" standalone="no"?>
<svg
   width="51"
   height="32"
   viewBox="0 0 51 32"
   version="1.1"
   id="svg1105"
   sodipodi:docname="method-visa-wc-51x32.svg"
   inkscape:version="1.1.2 (b8e25be8, 2022-02-05)"
   xmlns:inkscape="http://www.inkscape.org/namespaces/inkscape"
   xmlns:sodipodi="http://sodipodi.sourceforge.net/DTD/sodipodi-0.dtd"
   xmlns="http://www.w3.org/2000/svg"
   xmlns:svg="http://www.w3.org/2000/svg">
  <sodipodi:namedview
     id="namedview1107"
     pagecolor="#ffffff"
     bordercolor="#666666"
     borderopacity="1.0"
     inkscape:pageshadow="2"
     inkscape:pageopacity="0.0"
     inkscape:pagecheckerboard="0"
     showgrid="false"
     inkscape:zoom="1"
     inkscape:cx="27"
     inkscape:cy="22.5"
     inkscape:window-width="2101"
     inkscape:window-height="1083"
     inkscape:window-x="2162"
     inkscape:window-y="232"
     inkscape:window-maximized="0"
     inkscape:current-layer="svg1105" />
  <defs
     id="defs1097">
    <linearGradient
       id="icon-51x32-a"
       x1="0"
       y1="21.049666"
       y2="21.049666"
       gradientTransform="matrix(1.754116,0,0,0.57008771,13.5,4)"
       x2="13.682105"
       gradientUnits="userSpaceOnUse">
      <stop
         offset="0%"
         stop-color="#231E5C"
         id="stop1092" />
      <stop
         offset="100%"
         stop-color="#034EA2"
         id="stop1094" />
    </linearGradient>
  </defs>
  <rect
     width="50"
     height="31"
     x="0.5"
     y="0.5"
     fill="#ffffff"
     stroke="#d0d0d0"
     id="rect1099"
     style="fill-rule:evenodd" />
  <path
     class="st0"
     d="m 22.61245,12.26152 -3.14211,7.49671 h -2.04999 l -1.54624,-5.98272 c -0.0939,-0.3685 -0.1755,-0.5035 -0.46099,-0.65875 C 14.94699,12.86389 14.17725,12.62664 13.5,12.47939 l 0.046,-0.21787 h 3.29986 c 0.42062,0 0.79874,0.28 0.89424,0.76437 l 0.81662,4.33798 2.01824,-5.10248 h 2.03749 z m 8.03221,5.0491 c 0.008,-1.97862 -2.73599,-2.08762 -2.71711,-2.97149 0.006,-0.269 0.262,-0.55499 0.82262,-0.62799 0.27787,-0.0364 1.0435,-0.0641 1.91187,0.33549 l 0.34062,-1.58974 c -0.46662,-0.16937 -1.067,-0.33237 -1.81399,-0.33237 -1.91687,0 -3.26586,1.01899 -3.27723,2.47811 -0.0124,1.07925 0.96287,1.68149 1.69761,2.04012 0.75587,0.36724 1.0095,0.60324 1.00662,0.93174 -0.005,0.50287 -0.60287,0.72487 -1.16124,0.73362 -0.97475,0.015 -1.54037,-0.26375 -1.99124,-0.47337 l -0.3515,1.64237 c 0.45312,0.20787 1.28949,0.38924 2.15661,0.39837 2.03737,0 3.37011,-1.00637 3.37636,-2.56486 m 5.06172,2.44761 H 37.5 l -1.56562,-7.49671 h -1.65549 c -0.37225,0 -0.68624,0.21675 -0.82524,0.55 l -2.91011,6.94671 h 2.03636 l 0.40425,-1.11974 h 2.48811 z m -2.16386,-2.65624 1.02075,-2.81473 0.58749,2.81473 z m -8.15921,-4.84047 -1.60361,7.49671 h -1.93924 l 1.60424,-7.49671 z"
     id="path826"
     style="fill:#1434cb;stroke-width:0.0124999" />
</svg>
