<svg height="32" viewBox="0 0 51 32" width="51" xmlns="http://www.w3.org/2000/svg"><path d="m.5.5h50v31h-50z" fill="#fff" fill-rule="evenodd" stroke="#d0d0d0"/><path d="m22.61245 12.26152-3.14211 7.49671h-2.04999l-1.54624-5.98272c-.0939-.3685-.1755-.5035-.46099-.65875-.46613-.25287-1.23587-.49012-1.91312-.63737l.046-.21787h3.29986c.42062 0 .79874.28.89424.76437l.81662 4.33798 2.01824-5.10248h2.03749zm8.03221 5.0491c.008-1.97862-2.73599-2.08762-2.71711-2.97149.006-.269.262-.55499.82262-.62799.27787-.0364 1.0435-.0641 1.91187.33549l.34062-1.58974c-.46662-.16937-1.067-.33237-1.81399-.33237-1.91687 0-3.26586 1.01899-3.27723 2.47811-.0124 1.07925.96287 1.68149 1.69761 2.04012.75587.36724 1.0095.60324 1.00662.93174-.005.50287-.60287.72487-1.16124.73362-.97475.015-1.54037-.26375-1.99124-.47337l-.3515 1.64237c.45312.20787 1.28949.38924 2.15661.39837 2.03737 0 3.37011-1.00637 3.37636-2.56486m5.06172 2.44761h1.79362l-1.56562-7.49671h-1.65549c-.37225 0-.68624.21675-.82524.55l-2.91011 6.94671h2.03636l.40425-1.11974h2.48811zm-2.16386-2.65624 1.02075-2.81473.58749 2.81473zm-8.15921-4.84047-1.60361 7.49671h-1.93924l1.60424-7.49671z" fill="#1434cb" stroke-width=".0125"/></svg>