<?xml version="1.0" encoding="UTF-8"?>
<svg width="640" height="360" viewBox="0 0 640 360" xmlns="http://www.w3.org/2000/svg" xmlns:xlink="http://www.w3.org/1999/xlink">
    <g id="MobilePay">
        <path id="Path" fill="#5a78ff" stroke="none" d="M 138.217773 257.823425 C 132.92746 257.823425 128.156525 254.637787 126.129654 249.75061 L 80.997925 140.799973 C 78.23671 134.133392 81.401985 126.490891 88.067993 123.729034 L 135.338715 104.150635 C 138.540283 102.824158 142.136536 102.823914 145.338089 104.14978 C 148.538712 105.475891 151.082153 108.019318 152.407776 111.220886 L 197.539032 220.176239 C 200.296219 226.840912 197.131226 234.478729 190.469345 237.240601 L 143.198715 256.827789 C 141.619965 257.483093 139.92778 257.821533 138.217773 257.823425 Z M 140.33934 110.184952 C 139.54715 110.185883 138.763397 110.34433 138.03215 110.649017 L 90.758797 130.226837 C 89.281113 130.83902 88.10717 132.012772 87.49527 133.491211 C 86.883362 134.968719 86.883736 136.629028 87.496208 138.106522 L 132.627472 247.064667 C 133.905273 250.138733 137.430283 251.59935 140.507156 250.329041 L 187.778732 230.738098 C 189.256226 230.125916 190.429977 228.951233 191.042175 227.473724 C 191.653412 225.996231 191.653412 224.335922 191.041229 222.858414 L 145.909027 113.911514 C 144.975281 111.658707 142.777771 110.188705 140.33934 110.184952 Z"/>
        <linearGradient id="linearGradient1" x1="165.637783" y1="152.573089" x2="162.720282" y2="118.533395" gradientUnits="userSpaceOnUse">
            <stop offset="1e-05" stop-color="#504678" stop-opacity="1"/>
            <stop offset="0.302" stop-color="#504678" stop-opacity="0.616"/>
            <stop offset="0.608" stop-color="#504678" stop-opacity="0.283"/>
            <stop offset="0.852" stop-color="#504678" stop-opacity="0.076"/>
            <stop offset="1" stop-color="#504678" stop-opacity="0"/>
        </linearGradient>
        <path id="path1" fill="url(#linearGradient1)" stroke="none" opacity="0.7" d="M 155.387146 118.405899 L 148.888412 121.098404 L 166.758102 164.238403 L 173.256851 161.546844 Z"/>
        <linearGradient id="linearGradient2" x1="175.996222" y1="177.127156" x2="177.826223" y2="215.268412" gradientUnits="userSpaceOnUse">
            <stop offset="1e-05" stop-color="#504678" stop-opacity="1"/>
            <stop offset="0.302" stop-color="#504678" stop-opacity="0.616"/>
            <stop offset="0.608" stop-color="#504678" stop-opacity="0.283"/>
            <stop offset="0.852" stop-color="#504678" stop-opacity="0.076"/>
            <stop offset="1" stop-color="#504678" stop-opacity="0"/>
        </linearGradient>
        <path id="path2" fill="url(#linearGradient2)" stroke="none" opacity="0.7" d="M 188.038406 215.620911 L 194.53717 212.929352 L 174.309662 164.095901 L 167.810898 166.788406 Z"/>
        <path id="path3" fill="#5a78ff" stroke="none" d="M 179.831528 183.251846 C 166.311844 188.858093 155.024338 196.584976 147.633087 205.899963 L 128.577469 159.878082 C 137.269958 149.779327 148.333405 141.997147 160.775909 137.22995 C 174.294647 131.624649 187.953094 128.911514 199.55748 130.492142 L 218.616852 176.512146 C 205.329666 175.51091 192.002151 177.827469 179.831528 183.251846 Z"/>
        <linearGradient id="linearGradient3" x1="140.915904" y1="180.368094" x2="176.622472" y2="156.026839" gradientUnits="userSpaceOnUse">
            <stop offset="1e-05" stop-color="#504678" stop-opacity="1"/>
            <stop offset="0.179" stop-color="#504678" stop-opacity="0.872"/>
            <stop offset="0.526" stop-color="#504678" stop-opacity="0.536"/>
            <stop offset="1" stop-color="#504678" stop-opacity="0"/>
        </linearGradient>
        <path id="path4" fill="url(#linearGradient3)" stroke="none" opacity="0.9" d="M 179.832474 183.251846 C 166.31279 188.858093 155.025269 196.584976 147.634033 205.899963 L 128.5784 159.878082 C 137.270905 149.779327 148.334335 141.997147 160.77684 137.22995 C 174.295593 131.624649 187.954041 128.911514 199.558426 130.492142 L 218.617783 176.512146 C 205.330612 175.51091 192.003098 177.827469 179.832474 183.251846 Z"/>
        <linearGradient id="linearGradient4" x1="171.548721" y1="156.573402" x2="169.965284" y2="143.904962" gradientUnits="userSpaceOnUse">
            <stop offset="1e-05" stop-color="#504678" stop-opacity="1"/>
            <stop offset="0.643" stop-color="#504678" stop-opacity="0.332"/>
            <stop offset="1" stop-color="#504678" stop-opacity="0"/>
        </linearGradient>
        <path id="path5" fill="url(#linearGradient4)" stroke="none" opacity="0.7" d="M 179.832474 183.251846 C 166.31279 188.858093 155.025269 196.584976 147.634033 205.899963 L 128.5784 159.878082 C 137.270905 149.779327 148.334335 141.997147 160.77684 137.22995 C 174.295593 131.624649 187.954041 128.911514 199.558426 130.492142 L 218.617783 176.512146 C 205.330612 175.51091 192.003098 177.827469 179.832474 183.251846 Z"/>
        <path id="path6" fill="#5a78ff" stroke="none" d="M 186.040604 197.285278 C 171.407166 197.285278 158.01123 200.112793 147.629349 205.884033 L 147.629349 159.351212 C 159.523407 153.349335 172.722473 150.394333 186.040604 150.751526 C 200.674026 150.751526 214.332474 153.464645 224.449982 159.362457 L 224.449982 205.895294 C 212.556854 199.888733 199.358719 196.929977 186.040604 197.285278 Z M 260.795929 197.327469 L 272.63562 159.902466 C 272.759338 159.384033 273.20282 159.004349 273.734344 158.961212 L 279.676239 158.961212 C 280.20874 159.035278 280.65686 159.398087 280.842499 159.902466 L 290.058136 183.514343 C 290.238129 183.985901 290.70874 184.029968 290.865295 183.514343 L 300.014374 159.902466 C 300.199066 159.398087 300.648132 159.035278 301.180603 158.961212 L 307.122498 158.961212 C 307.654053 159.004349 308.097473 159.384033 308.221252 159.902466 L 319.925934 197.327469 C 320.062805 197.615295 320.035614 197.954666 319.855621 198.217163 C 319.675629 198.480591 319.369995 198.627792 319.052185 198.605286 L 311.988129 198.605286 C 311.487518 198.628723 311.043121 198.287476 310.934357 197.798096 L 303.423126 173.491531 C 303.310608 173.020905 302.772491 173.020905 302.61499 173.491531 L 293.645935 197.619034 C 293.493134 198.200287 292.968109 198.605286 292.368134 198.605286 L 288.219696 198.605286 C 287.569061 198.605286 287.233429 198.247162 286.985931 197.619034 L 277.837799 173.491531 C 277.657806 173.020905 277.187195 173.020905 277.075592 173.491531 L 269.384369 197.798096 C 269.264343 198.299652 268.799347 198.641846 268.285614 198.605286 L 261.558105 198.605286 C 261.25528 198.600601 260.975922 198.439346 260.820313 198.179657 C 260.664703 197.919022 260.655304 197.596527 260.795929 197.327469 Z M 322.168427 183.873413 C 322.040924 177.497467 325.783447 171.678406 331.638123 169.149963 C 337.491852 166.621536 344.293427 167.885284 348.848755 172.348724 C 353.403137 176.812164 354.804688 183.587479 352.394379 189.491837 C 349.98407 195.395294 344.241882 199.254974 337.86499 199.25592 C 333.714691 199.397476 329.688141 197.832779 326.722809 194.926544 C 323.756561 192.020279 322.111267 188.025589 322.168427 183.873413 Z M 345.488739 183.873413 C 345.207489 179.679977 341.622498 176.484024 337.424377 176.684662 C 333.227203 176.885284 329.961884 180.409348 330.081879 184.610275 C 330.201874 188.810287 333.663116 192.142166 337.86499 192.102783 C 342.229065 191.920914 345.620941 188.237473 345.444672 183.873413 Z M 367.374695 196.183716 C 366.791565 195.713089 366.27594 195.892166 366.27594 196.699341 L 366.27594 197.462463 C 366.27594 198.05217 365.810944 198.53685 365.222198 198.561234 L 359.75 198.561234 C 359.153748 198.537781 358.674683 198.058716 358.651245 197.462463 L 358.651245 160.03746 C 358.674683 159.440277 359.153748 158.961212 359.75 158.938721 L 365.512817 158.938721 C 366.102509 158.962143 366.567505 159.447769 366.567505 160.03746 L 366.567505 170.710907 C 366.567505 171.473083 367.08313 171.697144 367.912811 171.114029 C 370.11969 169.461212 372.800964 168.564972 375.559082 168.558411 C 383.541901 168.558411 389.663788 175.284973 389.663788 183.940918 C 389.845642 187.895294 388.425323 191.756836 385.724365 194.65184 C 383.024384 197.54686 379.27063 199.230591 375.3125 199.32341 C 372.36969 199.291534 369.542206 198.174026 367.374695 196.183716 Z M 381.725006 183.940918 C 381.946259 181.05246 380.53064 178.284027 378.059387 176.772781 C 375.589081 175.26152 372.47937 175.26152 370.009064 176.772781 C 367.537811 178.284027 366.122192 181.05246 366.342499 183.940918 C 366.264679 186.033401 367.029694 188.069656 368.467834 189.592163 C 369.905945 191.114655 371.895325 191.994965 373.989685 192.035278 C 376.100952 191.988419 378.106262 191.09967 379.558441 189.566849 C 381.011566 188.034042 381.791595 185.98465 381.725006 183.873413 Z M 394.484406 161.674332 C 394.484406 159.197464 396.492523 157.189346 398.969391 157.189346 C 401.446259 157.189346 403.453461 159.197464 403.453461 161.674332 C 403.453461 164.151215 401.446259 166.159332 398.969391 166.159332 C 396.492523 166.159332 394.484406 164.151215 394.484406 161.674332 Z M 394.887512 197.551529 L 394.887512 170.419342 C 394.887512 169.829651 395.352509 169.344971 395.9422 169.320602 L 401.705017 169.320602 C 402.007843 169.308411 402.304047 169.41716 402.527191 169.623413 C 402.74939 169.829651 402.881592 170.115585 402.892822 170.419342 L 402.892822 197.462463 C 402.8703 198.058716 402.391266 198.537781 401.794098 198.561234 L 395.9422 198.561234 C 395.352509 198.53685 394.887512 198.05217 394.887512 197.462463 Z M 409.306274 188.67247 L 409.306274 160.03746 C 409.305328 159.447769 409.771271 158.962143 410.360016 158.938721 L 416.122833 158.938721 C 416.720001 158.961212 417.199066 159.440277 417.221588 160.03746 L 417.221588 188.851532 C 417.221588 190.712463 418.028748 191.946228 420.069702 191.946228 C 420.361267 191.946228 420.640656 192.061523 420.846893 192.267776 C 421.052216 192.47403 421.168457 192.753403 421.168457 193.044968 L 421.168457 197.820602 C 421.144073 198.410278 420.659393 198.87529 420.069702 198.874359 C 412.40097 198.874359 409.306274 196.363724 409.306274 188.67247 Z M 423.320953 184.05246 C 423.340637 178.637482 426.248779 173.643402 430.948456 170.953705 C 435.648132 168.263092 441.42691 168.284653 446.106903 171.009033 C 450.786896 173.734344 453.657501 178.749023 453.637817 184.164978 C 453.637817 185.218719 453.346252 186.093399 452.291565 186.093399 L 432.245026 186.093399 C 431.729401 186.093399 431.550323 186.384964 431.595337 186.855591 C 432.09314 190.368408 435.233765 192.890274 438.770966 192.618408 C 440.899109 192.650284 442.930664 191.728714 444.309692 190.106842 C 444.737213 189.505905 445.432831 189.154343 446.170654 189.165604 L 451.529388 189.165604 C 452.471588 189.165604 452.874725 189.815277 452.516602 190.73497 C 449.372223 197.143723 442.227539 200.543106 435.272217 198.937164 C 428.315948 197.332169 423.382813 191.14653 423.365936 184.008408 Z M 444.600342 181.361847 C 445.004395 181.361847 445.183441 181.182785 445.116913 180.712158 C 444.505646 177.493729 441.665009 175.18277 438.389404 175.23996 C 435.185944 175.237152 432.400665 177.437469 431.662811 180.554657 C 431.550323 180.958725 431.662811 181.361847 432.133453 181.361847 Z M 458.480957 197.462463 L 458.480957 160.03746 C 458.480042 159.447769 458.945984 158.962143 459.534729 158.938721 L 477.899384 158.938721 C 486.286285 158.938721 492.004089 163.826843 492.004089 172.056213 C 492.004089 180.285599 485.523163 185.353714 477.496277 185.353714 L 467.764069 185.353714 C 467.467834 185.322784 467.174377 185.430588 466.96814 185.645279 C 466.762848 185.85997 466.667206 186.158096 466.710327 186.452469 L 466.710327 197.462463 C 466.68689 198.058716 466.208771 198.537781 465.611572 198.561234 L 459.55719 198.561234 C 458.959076 198.549042 458.480957 198.060593 458.480957 197.462463 Z M 477.496277 178.581207 C 480.970642 178.471542 483.705322 175.576523 483.617218 172.101227 C 483.667847 170.454956 483.036896 168.860291 481.87439 167.694031 C 480.711884 166.52684 479.120026 165.890289 477.473755 165.934341 L 467.674103 165.934341 C 466.979401 165.934341 466.687836 166.293411 466.687836 166.988083 L 466.687836 177.594955 C 466.687836 178.289658 466.979401 178.648712 467.674103 178.648712 Z M 494.829712 183.873413 C 494.677826 179.907791 496.123444 176.047165 498.842224 173.155914 C 501.560944 170.264648 505.325012 168.58371 509.292511 168.490906 C 512.15564 168.506836 514.914734 169.567154 517.05127 171.473083 C 517.566895 171.94371 518.150024 171.877151 518.150024 171.181534 L 518.150024 170.419342 C 518.150024 169.837158 518.621582 169.365585 519.203796 169.365585 L 524.675049 169.365585 C 525.272217 169.388092 525.750305 169.867157 525.773804 170.46434 L 525.773804 189.70372 C 525.773804 191.160583 526.289429 191.811218 527.298157 191.946228 C 527.822205 191.956528 528.25061 192.36528 528.285339 192.887482 L 528.285339 197.955597 C 528.285339 198.50029 527.843811 198.941849 527.298157 198.941849 C 523.441284 198.941849 521.177185 197.843094 519.898438 195.623093 C 519.540344 195.039963 519.136292 194.928421 518.553162 195.511536 C 516.090393 198.046524 512.692871 199.457474 509.157532 199.412476 C 505.18158 199.29715 501.419373 197.58342 498.723145 194.659348 C 496.02594 191.734344 494.622528 187.846542 494.829712 183.873413 Z M 518.150024 183.873413 C 518.3703 180.993393 516.958435 178.233398 514.49469 176.725906 C 512.031006 175.218414 508.930664 175.218414 506.466919 176.725906 C 504.003174 178.233398 502.591248 180.993393 502.811615 183.873413 C 502.591248 186.753418 504.003174 189.513412 506.466919 191.02092 C 508.930664 192.528397 512.031006 192.528397 514.49469 191.02092 C 516.958435 189.513412 518.3703 186.753418 518.150024 183.873413 Z M 530.998474 208.830597 L 530.998474 204.054977 C 531.022827 203.465286 531.507507 203.00029 532.097229 203.00029 C 535.849121 203.281525 539.308472 200.968719 540.483154 197.394974 C 540.680054 196.644974 540.600342 195.84903 540.259094 195.152481 L 529.540649 170.889969 C 529.355957 170.559967 529.361572 170.156845 529.555664 169.832458 C 529.750671 169.507141 530.104126 169.312149 530.482849 169.320602 L 536.245667 169.320602 C 536.828796 169.320602 537.186951 169.791214 537.411926 170.374344 L 544.138489 185.891846 C 544.609131 187.124664 545.372192 187.057159 545.887878 185.891846 L 552.300354 170.32933 C 552.524414 169.746216 552.815979 169.388092 553.399109 169.388092 L 558.937866 169.388092 C 559.282837 169.369354 559.613831 169.529648 559.813477 169.811844 C 560.014099 170.093079 560.055359 170.457779 559.925049 170.778397 L 548.892517 196.879349 C 544.878174 206.386536 540.618164 209.929352 532.097229 209.929352 C 531.5 209.906845 531.020935 209.42778 530.998474 208.830597 Z"/>
    </g>
</svg>
