<svg fill="none" height="360" viewBox="0 0 640 360" width="640" xmlns="http://www.w3.org/2000/svg" xmlns:xlink="http://www.w3.org/1999/xlink"><linearGradient id="a"><stop offset="0" stop-color="#504678"/><stop offset=".302" stop-color="#504678" stop-opacity=".616"/><stop offset=".608" stop-color="#504678" stop-opacity=".283"/><stop offset=".852" stop-color="#504678" stop-opacity=".076"/><stop offset="1" stop-color="#504678" stop-opacity="0"/></linearGradient><linearGradient id="b" gradientUnits="userSpaceOnUse" x1="155.347" x2="152.235" xlink:href="#a" y1="150.712" y2="114.403"/><linearGradient id="c" gradientUnits="userSpaceOnUse" x1="166.396" x2="168.348" xlink:href="#a" y1="176.903" y2="217.587"/><linearGradient id="d" gradientUnits="userSpaceOnUse" x1="128.977" x2="167.064" y1="180.36" y2="154.396"><stop offset="0" stop-color="#504678"/><stop offset=".179" stop-color="#504678" stop-opacity=".872"/><stop offset=".526" stop-color="#504678" stop-opacity=".536"/><stop offset="1" stop-color="#504678" stop-opacity="0"/></linearGradient><linearGradient id="e" gradientUnits="userSpaceOnUse" x1="161.652" x2="159.963" y1="154.979" y2="141.466"><stop offset="0" stop-color="#504678"/><stop offset=".643" stop-color="#504678" stop-opacity=".332"/><stop offset="1" stop-color="#504678" stop-opacity="0"/></linearGradient><path d="m126.099 262.979c-5.643 0-10.732-3.398-12.894-8.611l-48.1405-116.214c-2.9453-7.111.431-15.263 7.5414-18.209l50.4221-20.8836c3.415-1.4149 7.251-1.4152 10.666-.0009 3.414 1.4145 6.127 4.1275 7.541 7.5425l48.14 116.219c2.941 7.109-.435 15.256-7.541 18.202l-50.422 20.893c-1.684.699-3.489 1.06-5.313 1.062zm2.263-157.481c-.845.001-1.681.17-2.461.495l-50.4249 20.883c-1.5762.653-2.8284 1.905-3.4811 3.482-.6527 1.576-.6523 3.347.001 4.923l48.14 116.222c1.363 3.279 5.123 4.837 8.405 3.482l50.423-20.897c1.576-.653 2.828-1.906 3.481-3.482.652-1.576.652-3.347-.001-4.923l-48.141-116.21c-.996-2.403-3.34-3.971-5.941-3.975z" fill="#fff"/><path d="m144.413 114.267-6.932 2.872 19.061 46.016 6.932-2.871z" fill="url(#b)" opacity=".5"/><path d="m179.241 217.963 6.932-2.871-21.576-52.089-6.932 2.872z" fill="url(#c)" opacity=".5"/><path d="m170.487 183.436c-14.421 5.98-26.461 14.222-34.345 24.158l-20.326-49.09c9.272-10.772 21.073-19.073 34.345-24.158 14.42-5.979 28.989-8.873 41.367-7.187l20.33 49.088c-14.173-1.068-28.389 1.403-41.371 7.189z" fill="#fff"/><g opacity=".25"><path d="m170.488 183.436c-14.421 5.98-26.461 14.222-34.345 24.158l-20.326-49.09c9.272-10.772 21.073-19.073 34.345-24.158 14.42-5.979 28.989-8.873 41.367-7.187l20.33 49.088c-14.173-1.068-28.389 1.403-41.371 7.189z" fill="url(#d)" opacity=".9"/><path d="m170.488 183.436c-14.421 5.98-26.461 14.222-34.345 24.158l-20.326-49.09c9.272-10.772 21.073-19.073 34.345-24.158 14.42-5.979 28.989-8.873 41.367-7.187l20.33 49.088c-14.173-1.068-28.389 1.403-41.371 7.189z" fill="url(#e)" opacity=".7"/></g><path d="m177.11 198.405c-15.609 0-29.898 3.016-40.972 9.172v-49.635c12.687-6.402 26.766-9.554 40.972-9.173 15.609 0 30.178 2.894 40.97 9.185v49.635c-12.686-6.407-26.764-9.563-40.97-9.184zm79.739.045 12.629-39.92c.132-.553.605-.958 1.172-1.004h6.338c.568.079 1.046.466 1.244 1.004l9.83 25.186c.192.503.694.55.861 0l9.759-25.186c.197-.538.676-.925 1.244-1.004h6.338c.567.046 1.04.451 1.172 1.004l12.485 39.92c.146.307.117.669-.075.949-.192.281-.518.438-.857.414h-7.535c-.534.025-1.008-.339-1.124-.861l-8.012-25.927c-.12-.502-.694-.502-.862 0l-9.567 25.736c-.163.62-.723 1.052-1.363 1.052h-4.425c-.694 0-1.052-.382-1.316-1.052l-9.758-25.736c-.192-.502-.694-.502-.813 0l-8.204 25.927c-.128.535-.624.9-1.172.861h-7.176c-.323-.005-.621-.177-.787-.454-.166-.278-.176-.622-.026-.909zm65.464-14.351c-.136-6.801 3.856-13.008 10.101-15.705 6.244-2.697 13.499-1.349 18.358 3.412 4.858 4.761 6.353 11.988 3.782 18.286-2.571 6.297-8.696 10.414-15.498 10.415-4.427.151-8.722-1.518-11.885-4.618-3.164-3.1-4.919-7.361-4.858-11.79zm24.875 0c-.3-4.473-4.124-7.882-8.602-7.668-4.477.214-7.96 3.973-7.832 8.454.128 4.48 3.82 8.034 8.302 7.992 4.655-.194 8.273-4.123 8.085-8.778zm23.345 13.131c-.622-.502-1.172-.311-1.172.55v.814c0 .629-.496 1.146-1.124 1.172h-5.837c-.636-.025-1.147-.536-1.172-1.172v-39.92c.025-.637.536-1.148 1.172-1.172h6.147c.629.025 1.125.543 1.125 1.172v11.385c0 .813.55 1.052 1.435.43 2.354-1.763 5.214-2.719 8.156-2.726 8.515 0 15.045 7.175 15.045 16.408.194 4.218-1.321 8.337-4.202 11.425-2.88 3.088-6.884 4.884-11.106 4.983-3.139-.034-6.155-1.226-8.467-3.349zm15.307-13.059c.236-3.081-1.274-6.034-3.91-7.646-2.635-1.612-5.952-1.612-8.587 0-2.636 1.612-4.146 4.565-3.911 7.646-.083 2.232.733 4.404 2.267 6.028s3.656 2.563 5.89 2.606c2.252-.05 4.391-.998 5.94-2.633 1.55-1.635 2.382-3.821 2.311-6.073zm13.61-23.751c0-2.642 2.142-4.784 4.784-4.784s4.783 2.142 4.783 4.784-2.141 4.784-4.783 4.784-4.784-2.142-4.784-4.784zm.43 38.269v-28.941c0-.629.496-1.146 1.125-1.172h6.147c.323-.013.639.103.877.323.237.22.378.525.39.849v28.846c-.024.636-.535 1.147-1.172 1.172h-6.242c-.629-.026-1.125-.543-1.125-1.172zm15.38-9.471v-30.544c-.001-.629.496-1.147 1.124-1.172h6.147c.637.024 1.148.535 1.172 1.172v30.735c0 1.985.861 3.301 3.038 3.301.311 0 .609.123.829.343.219.22.343.518.343.829v5.094c-.026.629-.543 1.125-1.172 1.124-8.18 0-11.481-2.678-11.481-10.882zm14.949-4.928c.021-5.776 3.123-11.103 8.136-13.972 5.013-2.87 11.177-2.847 16.169.059 4.992 2.907 8.054 8.256 8.033 14.033 0 1.124-.311 2.057-1.436 2.057h-21.383c-.55 0-.741.311-.693.813.531 3.747 3.881 6.437 7.654 6.147 2.27.034 4.437-.949 5.908-2.679.456-.641 1.198-1.016 1.985-1.004h5.716c1.005 0 1.435.693 1.053 1.674-3.354 6.836-10.975 10.462-18.394 8.749-7.42-1.712-12.682-8.31-12.7-15.924zm22.698-2.87c.431 0 .622-.191.551-.693-.652-3.433-3.682-5.898-7.176-5.837-3.417-.003-6.388 2.344-7.175 5.669-.12.431 0 .861.502.861zm14.806 17.174v-39.92c-.001-.629.496-1.147 1.124-1.172h19.589c8.946 0 15.045 5.214 15.045 13.992s-6.913 14.184-15.475 14.184h-10.381c-.316-.033-.629.082-.849.311-.219.229-.321.547-.275.861v11.744c-.025.636-.535 1.147-1.172 1.172h-6.458c-.638-.013-1.148-.534-1.148-1.172zm20.283-20.14c3.706-.117 6.623-3.205 6.529-6.912.054-1.756-.619-3.457-1.859-4.701-1.24-1.245-2.938-1.924-4.694-1.877h-10.453c-.741 0-1.052.383-1.052 1.124v11.314c0 .741.311 1.124 1.052 1.124zm18.489 5.645c-.162-4.23 1.38-8.348 4.28-11.432s6.915-4.877 11.147-4.976c3.054.017 5.997 1.148 8.276 3.181.55.502 1.172.431 1.172-.311v-.813c0-.621.503-1.124 1.124-1.124h5.836c.637.024 1.147.535 1.172 1.172v20.522c0 1.554.55 2.248 1.626 2.392.559.011 1.016.447 1.053 1.004v5.406c0 .581-.471 1.052-1.053 1.052-4.114 0-6.529-1.172-7.893-3.54-.382-.622-.813-.741-1.435-.119-2.627 2.704-6.251 4.209-10.022 4.161-4.241-.123-8.254-1.951-11.13-5.07-2.877-3.12-4.374-7.267-4.153-11.505zm24.875 0c.235-3.072-1.271-6.016-3.899-7.624s-5.935-1.608-8.563 0-4.134 4.552-3.899 7.624c-.235 3.072 1.271 6.016 3.899 7.624s5.935 1.608 8.563 0 4.134-4.552 3.899-7.624zm13.705 26.621v-5.094c.026-.629.543-1.125 1.172-1.125 4.002.3 7.692-2.167 8.945-5.979.21-.8.125-1.649-.239-2.392l-11.433-25.88c-.197-.352-.191-.782.016-1.128.208-.347.585-.555.989-.546h6.147c.622 0 1.004.502 1.244 1.124l7.175 16.552c.502 1.315 1.316 1.243 1.866 0l6.84-16.6c.239-.622.55-1.004 1.172-1.004h5.908c.368-.02.721.151.934.452.214.3.258.689.119 1.031l-11.768 27.841c-4.282 10.141-8.826 13.92-17.915 13.92-.637-.024-1.148-.535-1.172-1.172z" fill="#fff"/></svg>