<svg fill="none" height="512" viewBox="0 0 512 512" width="512" xmlns="http://www.w3.org/2000/svg" xmlns:xlink="http://www.w3.org/1999/xlink"><linearGradient id="a"><stop offset="0" stop-color="#504678"/><stop offset=".302" stop-color="#504678" stop-opacity=".616"/><stop offset=".608" stop-color="#504678" stop-opacity=".283"/><stop offset=".852" stop-color="#504678" stop-opacity=".076"/><stop offset="1" stop-color="#504678" stop-opacity="0"/></linearGradient><linearGradient id="b" gradientUnits="userSpaceOnUse" x1="300.488" x2="290.829" xlink:href="#a" y1="163.592" y2="50.9086"/><linearGradient id="c" gradientUnits="userSpaceOnUse" x1="334.779" x2="340.836" xlink:href="#a" y1="244.872" y2="371.133"/><linearGradient id="d" gradientUnits="userSpaceOnUse" x1="218.65" x2="336.851" y1="255.598" y2="175.018"><stop offset="0" stop-color="#504678"/><stop offset=".179" stop-color="#504678" stop-opacity=".872"/><stop offset=".526" stop-color="#504678" stop-opacity=".536"/><stop offset="1" stop-color="#504678" stop-opacity="0"/></linearGradient><linearGradient id="e" gradientUnits="userSpaceOnUse" x1="320.055" x2="314.812" y1="176.828" y2="134.893"><stop offset="0" stop-color="#504678"/><stop offset=".643" stop-color="#504678" stop-opacity=".332"/><stop offset="1" stop-color="#504678" stop-opacity="0"/></linearGradient><path d="m209.721 512c-17.515.001-33.306-10.544-40.017-26.722l-149.4005-360.664c-9.1404-22.068 1.3376-47.3674 23.4044-56.5106l156.4821-64.80932c10.596-4.39116 22.503-4.39214 33.1-.00274s19.015 12.80946 23.403 23.40716l149.401 360.6785c9.125 22.062-1.35 47.345-23.405 56.488l-156.482 64.839c-5.225 2.172-10.827 3.292-16.486 3.296zm7.022-488.7309c-2.622.0043-5.218.5265-7.638 1.5365l-156.4897 64.8093c-4.8916 2.0262-8.7778 5.9129-10.8033 10.8051-2.0255 4.892-2.0244 10.388.003 15.279l149.401 360.686c4.229 10.177 15.896 15.011 26.084 10.808l156.482-64.854c4.891-2.026 8.778-5.913 10.803-10.805 2.026-4.892 2.025-10.388-.003-15.279l-149.401-360.649c-3.092-7.4572-10.365-12.3234-18.438-12.3369z" fill="#fff"/><path d="m266.557 50.4874-21.513 8.911 59.153 142.8086 21.513-8.911z" fill="url(#b)" opacity=".5"/><path d="m374.642 372.3 21.513-8.911-66.959-161.654-21.513 8.911z" fill="url(#c)" opacity=".5"/><path d="m347.476 265.146c-44.753 18.557-82.12 44.137-106.586 74.971l-63.079-152.347c28.773-33.43 65.397-59.191 106.585-74.971 44.753-18.5576 89.965-27.5393 128.379-22.3062l63.095 152.3402c-43.986-3.313-88.105 4.355-128.394 22.313z" fill="#fff"/><g opacity=".25"><path d="m347.475 265.144c-44.753 18.557-82.12 44.137-106.586 74.971l-63.079-152.347c28.773-33.43 65.397-59.191 106.585-74.971 44.753-18.5576 89.965-27.5393 128.379-22.3061l63.095 152.3401c-43.986-3.313-88.105 4.355-128.394 22.313z" fill="url(#d)" opacity=".9"/><path d="m347.475 265.144c-44.753 18.557-82.12 44.137-106.586 74.971l-63.079-152.347c28.773-33.43 65.397-59.191 106.585-74.971 44.753-18.5576 89.965-27.5393 128.379-22.3061l63.095 152.3401c-43.986-3.313-88.105 4.355-128.394 22.313z" fill="url(#e)" opacity=".7"/></g><path d="m368.03 311.597c-48.442 0-92.786 9.36-127.154 28.467v-154.04c39.374-19.869 83.066-29.651 127.154-28.467 48.442 0 93.655 8.982 127.147 28.504v154.04c-39.367-19.886-83.058-29.68-127.147-28.504z" fill="#fff"/></svg>