<?xml version="1.0" encoding="UTF-8"?>
<svg width="51" height="32" viewBox="0 0 51 32" xmlns="http://www.w3.org/2000/svg" xmlns:xlink="http://www.w3.org/1999/xlink">
    <path id="Path" fill="#ffffff" stroke="#d0d0d0" stroke-linecap="round" stroke-linejoin="round" d="M 0.5 0.5 L 50.5 0.5 L 50.5 31.5 L 0.5 31.5 Z"/>
    <path id="MobilePay" fill="#5a78ff" stroke="none" d="M 8.011939 18.361553 L 9.436008 13.860098 C 9.450893 13.797743 9.50423 13.752073 9.568166 13.746887 L 10.282851 13.746887 C 10.346901 13.755795 10.4008 13.799435 10.423124 13.860098 L 11.531576 16.700121 C 11.553226 16.75684 11.609834 16.762138 11.628664 16.700121 L 12.729108 13.860098 C 12.751321 13.799435 12.805334 13.755795 12.869381 13.746887 L 13.584069 13.746887 C 13.648002 13.752073 13.701339 13.797743 13.716226 13.860098 L 15.124055 18.361553 C 15.140517 18.396172 15.13725 18.436993 15.1156 18.468565 C 15.093949 18.500252 15.057188 18.517956 15.018965 18.515249 L 14.169304 18.515249 C 14.109087 18.518066 14.05564 18.477022 14.042557 18.418159 L 13.139109 15.494581 C 13.125577 15.437977 13.060852 15.437977 13.041906 15.494581 L 11.963117 18.396622 C 11.944736 18.466536 11.881587 18.515249 11.809422 18.515249 L 11.310451 18.515249 C 11.232193 18.515249 11.191826 18.472174 11.162057 18.396622 L 10.061725 15.494581 C 10.040073 15.437977 9.983468 15.437977 9.970049 15.494581 L 9.044952 18.418159 C 9.030516 18.478489 8.974586 18.519646 8.912794 18.515249 L 8.103613 18.515249 C 8.06719 18.514685 8.033588 18.495289 8.014871 18.464054 C 7.996154 18.432705 7.995025 18.393917 8.011939 18.361553 Z M 15.393783 16.743309 C 15.378447 15.976416 15.828594 15.276503 16.532791 14.972382 C 17.236876 14.668264 18.054962 14.820267 18.602875 15.357126 C 19.150671 15.893986 19.31925 16.708916 19.029339 17.41909 C 18.739429 18.129154 18.048763 18.593391 17.281755 18.593506 C 16.782558 18.610533 16.298246 18.422333 15.941578 18.072773 C 15.584801 17.723209 15.386907 17.242731 15.393783 16.743309 Z M 18.198734 16.743309 C 18.164907 16.238926 17.733704 15.854519 17.228758 15.878649 C 16.723925 15.902782 16.331173 16.326653 16.345606 16.83194 C 16.360039 17.337112 16.776358 17.737869 17.281755 17.733131 C 17.806662 17.711256 18.214634 17.268215 18.193436 16.743309 Z M 20.83116 18.223984 C 20.761024 18.167377 20.699005 18.188915 20.699005 18.286003 L 20.699005 18.377792 C 20.699005 18.448719 20.643074 18.507017 20.57226 18.509949 L 19.914068 18.509949 C 19.842352 18.50713 19.784731 18.449509 19.781912 18.377792 L 19.781912 13.876337 C 19.784731 13.804508 19.842352 13.746887 19.914068 13.744181 L 20.607214 13.744181 C 20.678144 13.746998 20.734072 13.805408 20.734072 13.876337 L 20.734072 15.160133 C 20.734072 15.251806 20.796091 15.278755 20.895885 15.208618 C 21.161327 15.009821 21.483829 14.902021 21.815573 14.90123 C 22.775743 14.90123 23.512077 15.710297 23.512077 16.751427 C 23.533951 17.227058 23.363117 17.691523 23.03825 18.03973 C 22.713499 18.387941 22.261993 18.59046 21.785915 18.601624 C 21.431957 18.59779 21.091866 18.463377 20.83116 18.223984 Z M 22.557209 16.751427 C 22.583818 16.404007 22.413549 16.071022 22.116306 15.889248 C 21.819183 15.707478 21.44515 15.707478 21.148022 15.889248 C 20.850782 16.071022 20.680511 16.404007 20.707012 16.751427 C 20.697653 17.003111 20.789667 17.24803 20.962641 17.431156 C 21.13562 17.614281 21.374901 17.720165 21.626806 17.725014 C 21.880751 17.719376 22.121948 17.612478 22.296616 17.428112 C 22.471395 17.243746 22.565218 16.997248 22.557209 16.743309 Z M 24.0919 14.073217 C 24.0919 13.775303 24.333433 13.533768 24.63135 13.533768 C 24.92927 13.533768 25.170691 13.775303 25.170691 14.073217 C 25.170691 14.371138 24.92927 14.612671 24.63135 14.612671 C 24.333433 14.612671 24.0919 14.371138 24.0919 14.073217 Z M 24.140387 18.388504 L 24.140387 15.125063 C 24.140387 15.054134 24.196318 14.995838 24.267242 14.992907 L 24.960388 14.992907 C 24.996813 14.99144 25.032442 15.004519 25.05928 15.029327 C 25.086004 15.054134 25.101906 15.088528 25.103258 15.125063 L 25.103258 18.377792 C 25.10055 18.449509 25.042931 18.50713 24.971102 18.509949 L 24.267242 18.509949 C 24.196318 18.507017 24.140387 18.448719 24.140387 18.377792 Z M 25.874664 17.320538 L 25.874664 13.876337 C 25.87455 13.805408 25.930595 13.746998 26.001406 13.744181 L 26.694557 13.744181 C 26.766386 13.746887 26.824003 13.804508 26.826714 13.876337 L 26.826714 17.342073 C 26.826714 17.565907 26.923798 17.714302 27.169281 17.714302 C 27.204351 17.714302 27.237955 17.72817 27.262762 17.752977 C 27.287455 17.777786 27.301441 17.81139 27.301441 17.846458 L 27.301441 18.420868 C 27.298508 18.491795 27.24021 18.547724 27.169281 18.547611 C 26.246893 18.547611 25.874664 18.245634 25.874664 17.320538 Z M 27.560345 16.764847 C 27.562708 16.113533 27.912495 15.51285 28.47777 15.189337 C 29.043049 14.865709 29.73811 14.868301 30.301022 15.19599 C 30.86393 15.523788 31.209204 16.126951 31.206833 16.778378 C 31.206833 16.905121 31.171762 17.010328 31.044907 17.010328 L 28.633722 17.010328 C 28.571701 17.010328 28.550163 17.045397 28.555576 17.102003 C 28.615456 17.524521 28.993202 17.82785 29.418653 17.795151 C 29.674629 17.798985 29.918983 17.688141 30.084854 17.493063 C 30.136272 17.42078 30.219942 17.378496 30.308685 17.379848 L 30.953236 17.379848 C 31.066559 17.379848 31.115047 17.457993 31.071972 17.568611 C 30.693768 18.339453 29.834412 18.748329 28.997828 18.555168 C 28.161137 18.362118 27.567783 17.618114 27.565752 16.759544 Z M 30.11981 16.441219 C 30.168409 16.441219 30.189945 16.419682 30.18194 16.363075 C 30.108423 15.975964 29.766754 15.698006 29.372763 15.704885 C 28.987455 15.704546 28.652443 15.969196 28.563694 16.344131 C 28.550163 16.392733 28.563694 16.441219 28.620306 16.441219 Z M 31.789362 18.377792 L 31.789362 13.876337 C 31.789249 13.805408 31.845295 13.746998 31.916105 13.744181 L 34.125 13.744181 C 35.13377 13.744181 35.821503 14.332121 35.821503 15.321943 C 35.821503 16.311768 35.041981 16.92136 34.076515 16.92136 L 32.90593 16.92136 C 32.8703 16.917639 32.835003 16.930605 32.810192 16.956429 C 32.7855 16.98225 32.773998 17.018108 32.779186 17.053516 L 32.779186 18.377792 C 32.776371 18.449509 32.718861 18.50713 32.647026 18.509949 L 31.91881 18.509949 C 31.846872 18.508484 31.789362 18.449734 31.789362 18.377792 Z M 34.076515 16.106766 C 34.494404 16.093575 34.82333 15.745365 34.812733 15.327356 C 34.818825 15.129347 34.742939 14.93754 34.603107 14.797264 C 34.463287 14.656874 34.271816 14.580311 34.073803 14.585609 L 32.895107 14.585609 C 32.81155 14.585609 32.776482 14.628798 32.776482 14.712353 L 32.776482 15.98814 C 32.776482 16.071699 32.81155 16.114887 32.895107 16.114887 Z M 36.161366 16.743309 C 36.143097 16.266327 36.316975 15.801971 36.64399 15.454214 C 36.970997 15.106457 37.423733 14.904274 37.90094 14.89311 C 38.245319 14.895027 38.577179 15.022564 38.834164 15.251806 C 38.896179 15.308413 38.966316 15.300407 38.966316 15.216738 L 38.966316 15.125063 C 38.966316 15.055037 39.023037 14.998318 39.093063 14.998318 L 39.751144 14.998318 C 39.822968 15.001024 39.880474 15.058645 39.883301 15.130476 L 39.883301 17.444572 C 39.883301 17.619806 39.945316 17.698063 40.06665 17.714302 C 40.129684 17.71554 40.18121 17.764706 40.185387 17.827515 L 40.185387 18.437103 C 40.185387 18.502619 40.132278 18.555729 40.06665 18.555729 C 39.602749 18.555729 39.330425 18.423573 39.176617 18.156553 C 39.133549 18.086414 39.084942 18.072998 39.014805 18.143135 C 38.718586 18.448042 38.309933 18.617748 37.884705 18.612335 C 37.406483 18.598465 36.953964 18.392338 36.629665 18.040634 C 36.305248 17.688816 36.136448 17.221195 36.161366 16.743309 Z M 38.966316 16.743309 C 38.992817 16.396904 38.822994 16.064932 38.526661 15.883614 C 38.23032 15.70229 37.857422 15.70229 37.561081 15.883614 C 37.264744 16.064932 37.094917 16.396904 37.121422 16.743309 C 37.094917 17.089714 37.264744 17.421684 37.561081 17.603004 C 37.857422 17.784325 38.23032 17.784325 38.526661 17.603004 C 38.822994 17.421684 38.992817 17.089714 38.966316 16.743309 Z M 40.511719 19.745144 L 40.511719 19.170734 C 40.514652 19.099806 40.572945 19.043877 40.643879 19.043877 C 41.09515 19.077703 41.511242 18.799522 41.652534 18.369675 C 41.676212 18.279463 41.66663 18.183729 41.62558 18.099947 L 40.33638 15.181667 C 40.314163 15.141977 40.314835 15.093489 40.338177 15.054474 C 40.361633 15.015345 40.404148 14.99189 40.449703 14.992907 L 41.142845 14.992907 C 41.212986 14.992907 41.256062 15.049511 41.283123 15.119648 L 42.092194 16.986084 C 42.148796 17.134365 42.240582 17.126247 42.302605 16.986084 L 43.073895 15.114237 C 43.100845 15.044098 43.13591 15.001024 43.206051 15.001024 L 43.872253 15.001024 C 43.913742 14.99877 43.953556 15.018051 43.977573 15.051994 C 44.001705 15.085819 44.006664 15.129684 43.990986 15.168251 L 42.664001 18.307653 C 42.181156 19.451174 41.66877 19.877298 40.643879 19.877298 C 40.572048 19.874592 40.514427 19.816971 40.511719 19.745144 Z"/>
</svg>
