<svg xmlns="http://www.w3.org/2000/svg" width="640" height="360" viewBox="0 0 640 360"><title>Mollie logo black</title><g fill-rule="nonzero"><path d="M280.225 234.061c-16.102 0-29.155-13.052-29.155-29.152s13.053-29.153 29.155-29.153 29.156 13.052 29.156 29.153-13.054 29.152-29.156 29.152m0-78.393c-27.196 0-49.246 22.047-49.246 49.24s22.05 49.241 49.246 49.241 49.246-22.047 49.246-49.24-22.05-49.241-49.246-49.241m184.726-35.938c0 7.666-6.215 13.88-13.881 13.88s-13.881-6.214-13.881-13.88c0-7.665 6.215-13.88 13.881-13.88s13.881 6.215 13.881 13.88m-250.928 78.968v53.348h-20.288v-54.062c-.08-12.148-10.051-22.11-22.226-22.217-12.44-.11-22.62 10.383-22.62 22.824v53.455H128.6v-53.918c-.08-12.207-10.008-22.178-22.175-22.292-12.47-.116-22.672 10.396-22.672 22.865v53.345H64v-54.062c0-23.446 18.996-42.413 42.45-42.413 13 0 24.632 5.888 32.427 15.092.01.01-.01.01 0 0 8.04-9.515 20.285-15.498 33.797-15.112 23.128.662 41.349 20.013 41.349 43.147M346.961 108.279V252.12h20.288V108.279zM393.944 108.279V252.12h20.288V108.279zM440.926 158.089v93.955h20.288v-93.955zM528.554 173.6c13.486 0 24.762 9.46 27.56 22.1h-55.12c2.799-12.64 14.074-22.1 27.56-22.1m.381-18.06c-26.698.345-48.258 21.94-48.573 48.643-.322 27.271 21.943 49.816 49.218 49.834 18.028.011 33.795-9.663 42.384-24.102a.04.04 0 0 0-.017-.058l-16.433-8.09c-5.206 8.617-14.66 14.377-25.46 14.377-14.608 0-26.753-10.538-29.251-24.428H576v-9.14c0-25.883-21.181-47.373-47.065-47.037"/></g></svg>