<svg fill="none" height="24" width="32" xmlns="http://www.w3.org/2000/svg"><path d="M4.129.5h23.742c2 0 3.629 1.64 3.629 3.674v15.652c0 2.034-1.63 3.674-3.629 3.674H4.129c-2 0-3.629-1.64-3.629-3.674V4.174C.5 2.14 2.13.5 4.129.5z" fill="#fff" stroke="#e6e6e6"/><g clip-rule="evenodd" fill-rule="evenodd"><path d="M13.206 17.207c-1.587 0-2.873-1.3-2.873-2.904 0-1.604 1.286-2.905 2.873-2.905 1.587 0 2.873 1.3 2.873 2.905 0 1.604-1.286 2.904-2.873 2.904zm-.017-7.361c-2.438 0-4.415 1.998-4.415 4.462 0 2.465 1.977 4.463 4.415 4.463 2.438 0 4.414-1.998 4.414-4.463 0-2.464-1.976-4.462-4.414-4.462z" fill="#d30d48"/><path d="M16.789 15.09c-2.41 0-4.362-1.974-4.362-4.41 0-2.434 1.953-4.409 4.362-4.409s4.362 1.975 4.362 4.41-1.953 4.41-4.362 4.41zM16.8 4.696c-3.263 0-5.909 2.674-5.909 5.973s2.646 5.974 5.91 5.974c3.263 0 5.909-2.675 5.909-5.974s-2.646-5.973-5.91-5.973z" fill="#2aaacd"/><path d="M12.5 11.487c.226-.058.462-.089.706-.089 1.587 0 2.873 1.3 2.873 2.905 0 .246-.03.485-.087.714a4.34 4.34 0 001.554.007c.038-.233.057-.472.057-.716 0-2.464-1.976-4.462-4.414-4.462a4.4 4.4 0 00-.694.055 4.483 4.483 0 00.005 1.586z" fill="#f9ba30"/><path d="M16.824 15.09l-.035.001c-2.41 0-4.362-1.975-4.362-4.41h-.001a.772.772 0 00-.767-.811.772.772 0 00-.768.776v.023c0 3.3 2.646 5.974 5.91 5.974v-.001h.023c.424 0 .767-.347.767-.776s-.343-.776-.767-.776z" fill="#55548f"/></g></svg>