<?xml version="1.0" encoding="UTF-8"?>
<svg width="641px" height="361px" viewBox="0 0 641 361" xmlns="http://www.w3.org/2000/svg" xmlns:xlink="http://www.w3.org/1999/xlink" version="1.1">
 <!-- Generated by Pixelmator Pro 2.0.8 -->
 <g id="Swish">
  <path id="Path" d="M537.461 147.654 C537.461 145.967 537.772 144.386 538.392 142.91 539.013 141.435 539.855 140.148 540.919 139.049 541.982 137.95 543.229 137.085 544.658 136.452 546.088 135.82 547.622 135.504 549.262 135.504 550.924 135.504 552.481 135.82 553.933 136.452 555.384 137.085 556.647 137.95 557.722 139.049 558.797 140.148 559.645 141.435 560.265 142.91 560.886 144.386 561.196 145.967 561.196 147.654 561.196 149.341 560.886 150.922 560.265 152.398 559.645 153.874 558.797 155.161 557.722 156.259 556.647 157.358 555.384 158.223 553.933 158.856 552.481 159.488 550.924 159.804 549.262 159.804 547.622 159.804 546.088 159.488 544.658 158.856 543.229 158.223 541.982 157.358 540.919 156.259 539.855 155.161 539.013 153.874 538.392 152.398 537.772 150.922 537.461 149.341 537.461 147.654 Z M539.888 147.654 C539.888 149.052 540.126 150.35 540.603 151.549 541.079 152.747 541.738 153.79 542.581 154.678 543.423 155.566 544.414 156.265 545.556 156.775 546.697 157.286 547.932 157.541 549.262 157.541 550.614 157.541 551.866 157.286 553.018 156.775 554.171 156.265 555.174 155.566 556.027 154.678 556.88 153.79 557.55 152.747 558.038 151.549 558.526 150.35 558.769 149.052 558.769 147.654 558.769 146.256 558.526 144.958 558.038 143.759 557.55 142.561 556.88 141.518 556.027 140.63 555.174 139.743 554.171 139.043 553.018 138.533 551.866 138.023 550.614 137.767 549.262 137.767 547.932 137.767 546.697 138.023 545.556 138.533 544.414 139.043 543.423 139.743 542.581 140.63 541.738 141.518 541.079 142.561 540.603 143.759 540.126 144.958 539.888 146.256 539.888 147.654 Z M545.207 142.428 C545.207 141.695 545.572 141.329 546.304 141.329 L550.06 141.329 C551.257 141.329 552.21 141.673 552.919 142.361 553.628 143.049 553.982 143.981 553.982 145.157 553.982 145.646 553.91 146.078 553.766 146.456 553.622 146.833 553.44 147.16 553.218 147.438 552.996 147.715 552.753 147.943 552.487 148.12 552.221 148.298 551.955 148.42 551.689 148.486 L551.689 148.553 C551.711 148.575 551.744 148.619 551.789 148.686 551.833 148.73 551.877 148.803 551.922 148.902 551.966 149.002 552.032 149.119 552.121 149.252 L553.849 152.614 C554.049 152.991 554.093 153.297 553.982 153.53 553.872 153.763 553.628 153.879 553.251 153.879 L552.852 153.879 C552.232 153.879 551.8 153.613 551.556 153.08 L549.628 149.019 547.567 149.019 547.567 152.814 C547.567 153.524 547.223 153.879 546.536 153.879 L546.237 153.879 C545.55 153.879 545.207 153.524 545.207 152.814 Z M549.561 147.288 C550.204 147.288 550.703 147.099 551.057 146.722 551.412 146.345 551.589 145.823 551.589 145.157 551.589 144.514 551.412 144.015 551.057 143.659 550.703 143.304 550.215 143.127 549.595 143.127 L547.567 143.127 547.567 147.288 Z M452.664 155.247 C456.422 155.247 459.609 155.727 462.225 156.686 464.841 157.645 466.885 158.531 468.359 159.343 469.612 160.007 470.349 160.892 470.57 161.999 470.791 163.106 470.607 164.286 470.017 165.541 L468.912 167.533 C468.249 168.861 467.401 169.636 466.37 169.858 465.338 170.079 464.122 169.895 462.722 169.304 461.47 168.714 459.959 168.105 458.191 167.478 456.422 166.851 454.359 166.537 452.001 166.537 449.569 166.537 447.69 167.017 446.364 167.976 445.038 168.935 444.374 170.3 444.374 172.071 444.374 173.621 445.056 174.875 446.419 175.835 447.782 176.794 449.514 177.642 451.614 178.38 453.714 179.118 455.962 179.911 458.356 180.76 460.751 181.609 462.999 182.697 465.099 184.025 467.199 185.353 468.93 187.051 470.293 189.117 471.657 191.183 472.338 193.802 472.338 196.975 472.338 199.484 471.841 201.79 470.846 203.893 469.851 205.996 468.415 207.822 466.535 209.372 464.657 210.922 462.391 212.139 459.738 213.025 457.085 213.91 454.138 214.353 450.896 214.353 446.327 214.353 442.477 213.689 439.345 212.361 436.214 211.032 433.801 209.778 432.106 208.597 430.853 207.859 430.153 206.937 430.006 205.83 429.858 204.723 430.19 203.543 431.001 202.288 L432.327 200.296 C433.137 199.115 434.04 198.451 435.035 198.304 436.03 198.156 437.227 198.451 438.627 199.189 439.953 199.927 441.667 200.757 443.767 201.679 445.867 202.602 448.353 203.063 451.227 203.063 453.659 203.063 455.575 202.546 456.975 201.513 458.375 200.48 459.075 199.078 459.075 197.307 459.075 195.758 458.393 194.522 457.03 193.599 455.667 192.677 453.935 191.829 451.835 191.054 449.735 190.279 447.488 189.449 445.093 188.563 442.698 187.678 440.451 186.571 438.351 185.243 436.251 183.915 434.519 182.217 433.156 180.151 431.793 178.085 431.111 175.429 431.111 172.182 431.111 169.452 431.682 167.017 432.824 164.877 433.966 162.737 435.514 160.966 437.466 159.564 439.419 158.162 441.703 157.092 444.319 156.354 446.935 155.616 449.717 155.247 452.664 155.247 Z M288.369 155.247 C292.127 155.247 295.314 155.727 297.93 156.686 300.546 157.645 302.591 158.531 304.065 159.343 305.317 160.007 306.054 160.892 306.275 161.999 306.496 163.106 306.312 164.286 305.722 165.541 L304.617 167.533 C303.954 168.861 303.107 169.636 302.075 169.858 301.043 170.079 299.828 169.895 298.428 169.304 297.175 168.714 295.664 168.105 293.896 167.478 292.127 166.851 290.064 166.537 287.706 166.537 285.275 166.537 283.396 167.017 282.069 167.976 280.743 168.935 280.08 170.3 280.08 172.071 280.08 173.621 280.761 174.875 282.125 175.835 283.488 176.794 285.219 177.642 287.319 178.38 289.419 179.118 291.667 179.911 294.062 180.76 296.456 181.609 298.704 182.697 300.804 184.025 302.904 185.353 304.636 187.051 305.999 189.117 307.362 191.183 308.044 193.802 308.044 196.975 308.044 199.484 307.546 201.79 306.551 203.893 305.557 205.996 304.12 207.822 302.241 209.372 300.362 210.922 298.096 212.139 295.443 213.025 292.791 213.91 289.843 214.353 286.601 214.353 282.032 214.353 278.182 213.689 275.051 212.361 271.919 211.032 269.506 209.778 267.811 208.597 266.558 207.859 265.858 206.937 265.711 205.83 265.564 204.723 265.895 203.543 266.706 202.288 L268.032 200.296 C268.843 199.115 269.745 198.451 270.74 198.304 271.735 198.156 272.932 198.451 274.332 199.189 275.659 199.927 277.372 200.757 279.472 201.679 281.572 202.602 284.059 203.063 286.933 203.063 289.364 203.063 291.28 202.546 292.68 201.513 294.08 200.48 294.78 199.078 294.78 197.307 294.78 195.758 294.099 194.522 292.735 193.599 291.372 192.677 289.641 191.829 287.54 191.054 285.44 190.279 283.193 189.449 280.798 188.563 278.403 187.678 276.156 186.571 274.056 185.243 271.956 183.915 270.224 182.217 268.861 180.151 267.498 178.085 266.816 175.429 266.816 172.182 266.816 169.452 267.387 167.017 268.53 164.877 269.672 162.737 271.219 160.966 273.172 159.564 275.124 158.162 277.409 157.092 280.025 156.354 282.64 155.616 285.422 155.247 288.369 155.247 Z M489.906 134.439 C493.001 134.439 494.549 135.988 494.549 139.087 L494.549 161.888 C494.549 162.626 494.53 163.272 494.493 163.825 494.457 164.379 494.401 164.877 494.328 165.32 494.254 165.836 494.217 166.279 494.217 166.648 L494.438 166.648 C495.101 165.32 496.041 163.973 497.257 162.608 498.472 161.243 499.909 160.007 501.567 158.9 503.225 157.793 505.104 156.908 507.204 156.243 509.304 155.579 511.57 155.247 514.002 155.247 520.265 155.247 525.11 156.944 528.536 160.339 531.963 163.733 533.676 169.193 533.676 176.72 L533.676 208.376 C533.676 211.475 532.128 213.025 529.034 213.025 L524.281 213.025 C521.186 213.025 519.639 211.475 519.639 208.376 L519.639 179.598 C519.639 176.13 519.049 173.344 517.87 171.241 516.691 169.138 514.333 168.087 510.796 168.087 508.365 168.087 506.136 168.566 504.109 169.526 502.083 170.485 500.37 171.795 498.97 173.455 497.57 175.115 496.483 177.089 495.709 179.376 494.936 181.664 494.549 184.136 494.549 186.792 L494.549 208.376 C494.549 211.475 493.001 213.025 489.906 213.025 L485.154 213.025 C482.059 213.025 480.512 211.475 480.512 208.376 L480.512 139.087 C480.512 135.988 482.059 134.439 485.154 134.439 Z M416.47 156.575 C419.491 156.575 421.001 158.125 421.001 161.224 L421.001 208.376 C421.001 211.475 419.491 213.025 416.47 213.025 L411.606 213.025 C408.585 213.025 407.075 211.475 407.075 208.376 L407.075 161.224 C407.075 158.125 408.585 156.575 411.606 156.575 Z M322.687 156.575 C325.487 156.575 327.145 157.941 327.661 160.671 L336.724 193.655 C336.872 194.467 337.001 195.204 337.111 195.869 337.222 196.533 337.351 197.16 337.498 197.75 337.646 198.414 337.756 199.041 337.83 199.632 L338.051 199.632 C338.125 199.041 338.235 198.414 338.382 197.75 338.53 197.16 338.659 196.533 338.769 195.869 338.88 195.204 339.046 194.467 339.267 193.655 L348.772 160.671 C349.288 158.014 350.983 156.686 353.856 156.686 L358.057 156.686 C360.783 156.686 362.478 158.014 363.141 160.671 L372.536 193.655 C372.757 194.467 372.923 195.204 373.033 195.869 373.144 196.533 373.273 197.16 373.42 197.75 373.567 198.414 373.678 199.041 373.752 199.632 L373.973 199.632 C374.046 199.041 374.157 198.414 374.304 197.75 374.452 197.16 374.581 196.533 374.691 195.869 374.802 195.204 374.967 194.467 375.189 193.655 L384.141 160.671 C384.805 157.941 386.499 156.575 389.226 156.575 L394.31 156.575 C396.005 156.575 397.184 157.055 397.847 158.014 398.51 158.974 398.621 160.228 398.178 161.778 L383.699 209.151 C382.962 211.733 381.231 213.025 378.504 213.025 L371.099 213.025 C368.299 213.025 366.567 211.696 365.904 209.04 L357.393 180.815 C357.172 180.077 356.988 179.34 356.841 178.602 356.693 177.864 356.546 177.2 356.399 176.609 356.251 175.945 356.141 175.318 356.067 174.728 L355.846 174.728 C355.699 175.318 355.551 175.945 355.404 176.609 355.257 177.2 355.109 177.864 354.962 178.602 354.814 179.34 354.63 180.077 354.409 180.815 L345.898 209.04 C345.235 211.696 343.54 213.025 340.814 213.025 L333.188 213.025 C330.535 213.025 328.84 211.733 328.103 209.151 L313.513 161.778 C313.071 160.228 313.2 158.974 313.9 158.014 314.6 157.055 315.761 156.575 317.382 156.575 Z" fill="#4a4a49" fill-opacity="1" stroke="none"/>
  <g id="group">
   <defs>
    <linearGradient id="linear-gradient" gradientUnits="userSpaceOnUse" x1="248.803" y1="228.027" x2="226.901" y2="174.194">
     <stop offset="0" stop-color="#ef2131" stop-opacity="1"/>
     <stop offset="1" stop-color="#fecf2c" stop-opacity="1"/>
    </linearGradient>
   </defs>
   <path id="Path-1" d="M122.751 246.013 C152.102 260.051 188.326 253.104 210.21 227.029 236.149 196.123 232.12 150.048 201.211 124.119 L180.664 148.601 C204.811 168.859 207.958 204.854 187.694 229 171.536 248.252 144.932 254.68 122.751 246.013" fill-opacity="1" fill="url(#linear-gradient)" stroke="none"/>
   <defs>
    <linearGradient id="linear-gradient-1" gradientUnits="userSpaceOnUse" x1="220.392" y1="165.673" x2="173.12" y2="255.375">
     <stop offset="0" stop-color="#fbc52c" stop-opacity="1"/>
     <stop offset="0.264" stop-color="#f87130" stop-opacity="1"/>
     <stop offset="0.561" stop-color="#ef52e2" stop-opacity="1"/>
     <stop offset="1" stop-color="#661eec" stop-opacity="1"/>
    </linearGradient>
   </defs>
   <path id="Path-2" d="M122.751 246.013 C152.102 260.051 188.326 253.104 210.21 227.029 212.89 223.835 215.249 220.48 217.293 217.001 220.749 195.526 213.149 172.827 195.271 157.829 190.729 154.018 185.812 150.948 180.667 148.604 204.811 168.862 207.957 204.856 187.694 229 171.536 248.252 144.932 254.68 122.751 246.013" fill-opacity="1" fill="url(#linear-gradient-1)" stroke="none"/>
  </g>
  <defs>
   <linearGradient id="linear-gradient-2" gradientUnits="userSpaceOnUse" x1="102.702" y1="149.902" x2="123.643" y2="202.452">
    <stop offset="0" stop-color="#78f6d8" stop-opacity="1"/>
    <stop offset="0.266" stop-color="#77d1f6" stop-opacity="1"/>
    <stop offset="0.554" stop-color="#70a4f3" stop-opacity="1"/>
    <stop offset="1" stop-color="#661eec" stop-opacity="1"/>
   </linearGradient>
  </defs>
  <path id="Path-3" d="M185.753 114.13 C156.401 100.092 120.178 107.039 98.294 133.114 72.355 164.02 76.384 210.095 107.292 236.024 L127.84 211.542 C103.692 191.284 100.545 155.288 120.809 131.143 136.968 111.891 163.571 105.462 185.753 114.13" fill-opacity="1" fill="url(#linear-gradient-2)" stroke="none"/>
  <defs>
   <linearGradient id="linear-gradient-3" gradientUnits="userSpaceOnUse" x1="130.867" y1="211.572" x2="177.756" y2="122.203">
    <stop offset="0" stop-color="#536eed" stop-opacity="1"/>
    <stop offset="0.247" stop-color="#54c3ec" stop-opacity="1"/>
    <stop offset="0.564" stop-color="#64d769" stop-opacity="1"/>
    <stop offset="1" stop-color="#fecf2c" stop-opacity="1"/>
   </linearGradient>
  </defs>
  <path id="Path-4" d="M185.753 114.13 C156.401 100.092 120.178 107.039 98.294 133.114 95.613 136.308 93.254 139.663 91.21 143.141 87.754 164.617 95.355 187.316 113.232 202.314 117.774 206.125 122.691 209.195 127.836 211.539 103.692 191.281 100.546 155.287 120.809 131.143 136.968 111.891 163.571 105.462 185.753 114.13" fill-opacity="1" fill="url(#linear-gradient-3)" stroke="none"/>
 </g>
</svg>
