<?xml version="1.0" encoding="UTF-8"?>
<svg width="51px" height="32px" viewBox="0 0 51 32" xmlns="http://www.w3.org/2000/svg" xmlns:xlink="http://www.w3.org/1999/xlink" version="1.1">
 <!-- Generated by Pixelmator Pro 2.0.8 -->
 <path id="Path" d="M0.5 0.5 L50.5 0.5 50.5 31.5 0.5 31.5 Z" fill="#ffffff" fill-opacity="1" stroke="#d0d0d0" stroke-width="1" stroke-opacity="1" stroke-linejoin="round" stroke-linecap="round"/>
 <g id="Swish">
  <path id="Path-1" d="M42.318 14.048 C42.318 13.921 42.341 13.803 42.388 13.692 42.434 13.581 42.497 13.485 42.577 13.403 42.657 13.32 42.75 13.255 42.858 13.208 42.965 13.16 43.08 13.137 43.203 13.137 43.328 13.137 43.444 13.16 43.553 13.208 43.662 13.255 43.757 13.32 43.837 13.403 43.918 13.485 43.982 13.581 44.028 13.692 44.075 13.803 44.098 13.921 44.098 14.048 44.098 14.174 44.075 14.293 44.028 14.404 43.982 14.514 43.918 14.611 43.837 14.693 43.757 14.776 43.662 14.841 43.553 14.888 43.444 14.935 43.328 14.959 43.203 14.959 43.08 14.959 42.965 14.935 42.858 14.888 42.75 14.841 42.657 14.776 42.577 14.693 42.497 14.611 42.434 14.514 42.388 14.404 42.341 14.293 42.318 14.174 42.318 14.048 Z M42.5 14.048 C42.5 14.153 42.518 14.25 42.553 14.34 42.589 14.43 42.639 14.508 42.702 14.575 42.765 14.641 42.839 14.694 42.925 14.732 43.011 14.77 43.103 14.789 43.203 14.789 43.304 14.789 43.398 14.77 43.485 14.732 43.571 14.694 43.646 14.641 43.71 14.575 43.774 14.508 43.825 14.43 43.861 14.34 43.898 14.25 43.916 14.153 43.916 14.048 43.916 13.943 43.898 13.846 43.861 13.756 43.825 13.666 43.774 13.588 43.71 13.521 43.646 13.455 43.571 13.402 43.485 13.364 43.398 13.326 43.304 13.306 43.203 13.306 43.103 13.306 43.011 13.326 42.925 13.364 42.839 13.402 42.765 13.455 42.702 13.521 42.639 13.588 42.589 13.666 42.553 13.756 42.518 13.846 42.5 13.943 42.5 14.048 Z M42.899 13.656 C42.899 13.601 42.926 13.574 42.981 13.574 L43.263 13.574 C43.353 13.574 43.424 13.599 43.477 13.651 43.53 13.703 43.557 13.772 43.557 13.861 43.557 13.897 43.552 13.93 43.541 13.958 43.53 13.986 43.516 14.011 43.5 14.032 43.483 14.052 43.465 14.07 43.445 14.083 43.425 14.096 43.405 14.105 43.385 14.11 L43.385 14.115 C43.387 14.117 43.389 14.12 43.392 14.125 43.396 14.129 43.399 14.134 43.402 14.142 43.406 14.149 43.411 14.158 43.417 14.168 L43.547 14.42 C43.562 14.448 43.565 14.471 43.557 14.489 43.549 14.506 43.53 14.515 43.502 14.515 L43.472 14.515 C43.426 14.515 43.393 14.495 43.375 14.455 L43.23 14.15 43.076 14.15 43.076 14.435 C43.076 14.488 43.05 14.515 42.998 14.515 L42.976 14.515 C42.925 14.515 42.899 14.488 42.899 14.435 Z M43.225 14.02 C43.274 14.02 43.311 14.006 43.338 13.978 43.364 13.95 43.377 13.911 43.377 13.861 43.377 13.812 43.364 13.775 43.338 13.748 43.311 13.722 43.274 13.708 43.228 13.708 L43.076 13.708 43.076 14.02 Z M35.958 14.617 C36.24 14.617 36.479 14.653 36.675 14.725 36.871 14.797 37.025 14.864 37.135 14.925 37.229 14.974 37.284 15.041 37.301 15.124 37.318 15.207 37.304 15.295 37.26 15.389 L37.177 15.539 C37.127 15.638 37.063 15.697 36.986 15.713 36.909 15.73 36.817 15.716 36.712 15.672 36.618 15.627 36.505 15.582 36.373 15.535 36.24 15.488 36.085 15.464 35.908 15.464 35.726 15.464 35.585 15.5 35.486 15.572 35.386 15.644 35.336 15.746 35.336 15.879 35.336 15.995 35.387 16.089 35.49 16.161 35.592 16.233 35.722 16.297 35.879 16.352 36.037 16.408 36.205 16.467 36.385 16.531 36.565 16.594 36.733 16.676 36.891 16.776 37.048 16.875 37.178 17.003 37.28 17.158 37.383 17.313 37.434 17.509 37.434 17.747 37.434 17.935 37.396 18.108 37.322 18.266 37.247 18.424 37.139 18.561 36.998 18.677 36.858 18.793 36.688 18.884 36.489 18.951 36.29 19.017 36.069 19.05 35.825 19.05 35.483 19.05 35.194 19 34.959 18.901 34.724 18.801 34.543 18.707 34.416 18.619 34.322 18.563 34.27 18.494 34.259 18.411 34.248 18.328 34.273 18.24 34.333 18.145 L34.433 17.996 C34.494 17.907 34.561 17.858 34.636 17.847 34.71 17.836 34.8 17.858 34.905 17.913 35.005 17.968 35.133 18.031 35.291 18.1 35.448 18.169 35.635 18.204 35.85 18.204 36.033 18.204 36.176 18.165 36.281 18.087 36.386 18.01 36.439 17.905 36.439 17.772 36.439 17.656 36.388 17.563 36.286 17.494 36.183 17.425 36.053 17.361 35.896 17.303 35.738 17.245 35.57 17.182 35.39 17.116 35.211 17.05 35.042 16.967 34.885 16.867 34.727 16.767 34.597 16.64 34.495 16.485 34.393 16.33 34.342 16.131 34.342 15.887 34.342 15.683 34.384 15.5 34.47 15.34 34.556 15.179 34.672 15.046 34.818 14.941 34.965 14.836 35.136 14.756 35.332 14.7 35.528 14.645 35.737 14.617 35.958 14.617 Z M23.636 14.617 C23.918 14.617 24.157 14.653 24.353 14.725 24.549 14.797 24.703 14.864 24.813 14.925 24.907 14.974 24.962 15.041 24.979 15.124 24.995 15.207 24.982 15.295 24.937 15.389 L24.855 15.539 C24.805 15.638 24.741 15.697 24.664 15.713 24.587 15.73 24.495 15.716 24.39 15.672 24.296 15.627 24.183 15.582 24.05 15.535 23.918 15.488 23.763 15.464 23.586 15.464 23.404 15.464 23.263 15.5 23.163 15.572 23.064 15.644 23.014 15.746 23.014 15.879 23.014 15.995 23.065 16.089 23.168 16.161 23.27 16.233 23.4 16.297 23.557 16.352 23.715 16.408 23.883 16.467 24.063 16.531 24.243 16.594 24.411 16.676 24.569 16.776 24.726 16.875 24.856 17.003 24.958 17.158 25.06 17.313 25.112 17.509 25.112 17.747 25.112 17.935 25.074 18.108 25 18.266 24.925 18.424 24.817 18.561 24.676 18.677 24.535 18.793 24.365 18.884 24.167 18.951 23.968 19.017 23.747 19.05 23.503 19.05 23.161 19.05 22.872 19 22.637 18.901 22.402 18.801 22.221 18.707 22.094 18.619 22 18.563 21.948 18.494 21.937 18.411 21.926 18.328 21.95 18.24 22.011 18.145 L22.111 17.996 C22.171 17.907 22.239 17.858 22.314 17.847 22.388 17.836 22.478 17.858 22.583 17.913 22.683 17.968 22.811 18.031 22.969 18.1 23.126 18.169 23.313 18.204 23.528 18.204 23.711 18.204 23.854 18.165 23.959 18.087 24.064 18.01 24.117 17.905 24.117 17.772 24.117 17.656 24.066 17.563 23.963 17.494 23.861 17.425 23.731 17.361 23.574 17.303 23.416 17.245 23.248 17.182 23.068 17.116 22.889 17.05 22.72 16.967 22.562 16.867 22.405 16.767 22.275 16.64 22.173 16.485 22.071 16.33 22.019 16.131 22.019 15.887 22.019 15.683 22.062 15.5 22.148 15.34 22.234 15.179 22.35 15.046 22.496 14.941 22.643 14.836 22.814 14.756 23.01 14.7 23.206 14.645 23.415 14.617 23.636 14.617 Z M38.751 13.057 C38.983 13.057 39.099 13.173 39.099 13.405 L39.099 15.115 C39.099 15.171 39.098 15.219 39.095 15.261 39.093 15.302 39.088 15.34 39.083 15.373 39.077 15.412 39.075 15.445 39.075 15.472 L39.091 15.472 C39.141 15.373 39.211 15.272 39.303 15.169 39.394 15.067 39.501 14.974 39.626 14.891 39.75 14.808 39.891 14.742 40.049 14.692 40.206 14.642 40.376 14.617 40.558 14.617 41.028 14.617 41.392 14.745 41.648 14.999 41.905 15.254 42.034 15.663 42.034 16.228 L42.034 18.602 C42.034 18.834 41.918 18.951 41.686 18.951 L41.329 18.951 C41.097 18.951 40.981 18.834 40.981 18.602 L40.981 16.444 C40.981 16.184 40.937 15.975 40.849 15.817 40.76 15.659 40.583 15.58 40.318 15.58 40.136 15.58 39.968 15.616 39.816 15.688 39.665 15.76 39.536 15.858 39.431 15.983 39.326 16.107 39.244 16.256 39.186 16.427 39.128 16.599 39.099 16.784 39.099 16.983 L39.099 18.602 C39.099 18.834 38.983 18.951 38.751 18.951 L38.395 18.951 C38.163 18.951 38.047 18.834 38.047 18.602 L38.047 13.405 C38.047 13.173 38.163 13.057 38.395 13.057 Z M33.243 14.717 C33.47 14.717 33.583 14.833 33.583 15.066 L33.583 18.602 C33.583 18.834 33.47 18.951 33.243 18.951 L32.879 18.951 C32.652 18.951 32.539 18.834 32.539 18.602 L32.539 15.066 C32.539 14.833 32.652 14.717 32.879 14.717 Z M26.21 14.717 C26.42 14.717 26.544 14.819 26.583 15.024 L27.263 17.498 C27.274 17.559 27.283 17.614 27.292 17.664 27.3 17.714 27.31 17.761 27.321 17.805 27.332 17.855 27.34 17.902 27.346 17.946 L27.362 17.946 C27.368 17.902 27.376 17.855 27.387 17.805 27.398 17.761 27.408 17.714 27.416 17.664 27.424 17.614 27.437 17.559 27.453 17.498 L28.166 15.024 C28.205 14.825 28.332 14.725 28.548 14.725 L28.863 14.725 C29.067 14.725 29.194 14.825 29.244 15.024 L29.948 17.498 C29.965 17.559 29.977 17.614 29.986 17.664 29.994 17.714 30.004 17.761 30.015 17.805 30.026 17.855 30.034 17.902 30.04 17.946 L30.056 17.946 C30.062 17.902 30.07 17.855 30.081 17.805 30.092 17.761 30.102 17.714 30.11 17.664 30.118 17.614 30.131 17.559 30.147 17.498 L30.819 15.024 C30.869 14.819 30.996 14.717 31.2 14.717 L31.582 14.717 C31.709 14.717 31.797 14.753 31.847 14.825 31.897 14.897 31.905 14.991 31.872 15.107 L30.786 18.66 C30.73 18.854 30.601 18.951 30.396 18.951 L29.841 18.951 C29.631 18.951 29.501 18.851 29.451 18.652 L28.813 16.535 C28.796 16.48 28.782 16.424 28.771 16.369 28.76 16.314 28.749 16.264 28.738 16.22 28.727 16.17 28.719 16.123 28.713 16.078 L28.697 16.078 C28.686 16.123 28.675 16.17 28.664 16.22 28.653 16.264 28.641 16.314 28.63 16.369 28.619 16.424 28.606 16.48 28.589 16.535 L27.951 18.652 C27.901 18.851 27.774 18.951 27.569 18.951 L26.997 18.951 C26.798 18.951 26.671 18.854 26.616 18.66 L25.522 15.107 C25.489 14.991 25.498 14.897 25.551 14.825 25.603 14.753 25.69 14.717 25.812 14.717 Z" fill="#4a4a49" fill-opacity="1" stroke="none"/>
  <g id="group">
   <defs>
    <linearGradient id="linear-gradient" gradientUnits="userSpaceOnUse" x1="20.668" y1="20.076" x2="19.026" y2="16.038">
     <stop offset="0" stop-color="#ef2131" stop-opacity="1"/>
     <stop offset="1" stop-color="#fecf2c" stop-opacity="1"/>
    </linearGradient>
   </defs>
   <path id="Path-2" d="M11.215 21.425 C13.416 22.478 16.133 21.957 17.774 20.001 19.719 17.683 19.417 14.227 17.099 12.283 L15.558 14.119 C17.369 15.638 17.605 18.338 16.085 20.149 14.873 21.593 12.878 22.075 11.215 21.425" fill-opacity="1" fill="url(#linear-gradient)" stroke="none"/>
   <defs>
    <linearGradient id="linear-gradient-1" gradientUnits="userSpaceOnUse" x1="18.538" y1="15.399" x2="14.992" y2="22.127">
     <stop offset="0" stop-color="#fbc52c" stop-opacity="1"/>
     <stop offset="0.264" stop-color="#f87130" stop-opacity="1"/>
     <stop offset="0.561" stop-color="#ef52e2" stop-opacity="1"/>
     <stop offset="1" stop-color="#661eec" stop-opacity="1"/>
    </linearGradient>
   </defs>
   <path id="Path-3" d="M11.215 21.425 C13.416 22.478 16.133 21.957 17.774 20.001 17.975 19.761 18.152 19.51 18.305 19.249 18.564 17.638 17.994 15.936 16.654 14.811 16.313 14.525 15.944 14.295 15.558 14.119 17.369 15.638 17.605 18.338 16.085 20.149 14.873 21.593 12.878 22.075 11.215 21.425" fill-opacity="1" fill="url(#linear-gradient-1)" stroke="none"/>
  </g>
  <defs>
   <linearGradient id="linear-gradient-2" gradientUnits="userSpaceOnUse" x1="9.711" y1="14.217" x2="11.282" y2="18.158">
    <stop offset="0" stop-color="#78f6d8" stop-opacity="1"/>
    <stop offset="0.266" stop-color="#77d1f6" stop-opacity="1"/>
    <stop offset="0.554" stop-color="#70a4f3" stop-opacity="1"/>
    <stop offset="1" stop-color="#661eec" stop-opacity="1"/>
   </linearGradient>
  </defs>
  <path id="Path-4" d="M15.94 11.534 C13.738 10.481 11.022 11.002 9.38 12.957 7.435 15.275 7.737 18.731 10.055 20.676 L11.596 18.839 C9.785 17.32 9.549 14.62 11.069 12.81 12.281 11.366 14.276 10.884 15.94 11.534" fill-opacity="1" fill="url(#linear-gradient-2)" stroke="none"/>
  <defs>
   <linearGradient id="linear-gradient-3" gradientUnits="userSpaceOnUse" x1="11.823" y1="18.842" x2="15.34" y2="12.139">
    <stop offset="0" stop-color="#536eed" stop-opacity="1"/>
    <stop offset="0.247" stop-color="#54c3ec" stop-opacity="1"/>
    <stop offset="0.564" stop-color="#64d769" stop-opacity="1"/>
    <stop offset="1" stop-color="#fecf2c" stop-opacity="1"/>
   </linearGradient>
  </defs>
  <path id="Path-5" d="M15.94 11.534 C13.738 10.481 11.022 11.002 9.38 12.957 9.179 13.197 9.002 13.449 8.849 13.709 8.59 15.32 9.16 17.023 10.501 18.147 10.841 18.433 11.21 18.663 11.596 18.839 9.785 17.32 9.549 14.62 11.069 12.81 12.281 11.366 14.276 10.884 15.94 11.534" fill-opacity="1" fill="url(#linear-gradient-3)" stroke="none"/>
 </g>
</svg>
