<svg height="32" viewBox="0 0 51 32" width="51" xmlns="http://www.w3.org/2000/svg" xmlns:xlink="http://www.w3.org/1999/xlink"><linearGradient id="a" gradientUnits="userSpaceOnUse" x1="20.668" x2="19.026" y1="20.076" y2="16.038"><stop offset="0" stop-color="#ef2131"/><stop offset="1" stop-color="#fecf2c"/></linearGradient><linearGradient id="b" gradientUnits="userSpaceOnUse" x1="18.538" x2="14.992" y1="15.399" y2="22.127"><stop offset="0" stop-color="#fbc52c"/><stop offset=".264" stop-color="#f87130"/><stop offset=".561" stop-color="#ef52e2"/><stop offset="1" stop-color="#661eec"/></linearGradient><linearGradient id="c" gradientUnits="userSpaceOnUse" x1="9.711" x2="11.282" y1="14.217" y2="18.158"><stop offset="0" stop-color="#78f6d8"/><stop offset=".266" stop-color="#77d1f6"/><stop offset=".554" stop-color="#70a4f3"/><stop offset="1" stop-color="#661eec"/></linearGradient><linearGradient id="d" gradientUnits="userSpaceOnUse" x1="11.823" x2="15.34" y1="18.842" y2="12.139"><stop offset="0" stop-color="#536eed"/><stop offset=".247" stop-color="#54c3ec"/><stop offset=".564" stop-color="#64d769"/><stop offset="1" stop-color="#fecf2c"/></linearGradient><path d="m.5.5h50v31h-50z" fill="#fff" stroke="#d0d0d0" stroke-linecap="round" stroke-linejoin="round"/><path d="m42.318 14.048c0-.127.023-.245.07-.356.046-.111.109-.207.189-.289.08-.083.173-.148.281-.195.107-.048.222-.071.345-.071.125 0 .241.023.35.071.109.047.204.112.284.195.081.082.145.178.191.289.047.111.07.229.07.356 0 .126-.023.245-.07.356-.046.11-.11.207-.191.289-.08.083-.175.148-.284.195s-.225.071-.35.071c-.123 0-.238-.024-.345-.071-.108-.047-.201-.112-.281-.195-.08-.082-.143-.179-.189-.289-.047-.111-.07-.23-.07-.356zm.182 0c0 .105.018.202.053.292.036.09.086.168.149.235.063.066.137.119.223.157s.178.057.278.057c.101 0 .195-.019.282-.057.086-.038.161-.091.225-.157.064-.067.115-.145.151-.235.037-.09.055-.187.055-.292s-.018-.202-.055-.292c-.036-.09-.087-.168-.151-.235-.064-.066-.139-.119-.225-.157-.087-.038-.181-.058-.282-.058-.1 0-.192.02-.278.058s-.16.091-.223.157c-.063.067-.113.145-.149.235-.035.09-.053.187-.053.292zm.399-.392c0-.055.027-.082.082-.082h.282c.09 0 .161.025.214.077s.08.121.08.21c0 .036-.005.069-.016.097s-.025.053-.041.074c-.017.02-.035.038-.055.051s-.04.022-.06.027v.005c.002.002.004.005.007.01.004.004.007.009.01.017.004.007.009.016.015.026l.13.252c.015.028.018.051.01.069-.008.017-.027.026-.055.026h-.03c-.046 0-.079-.02-.097-.06l-.145-.305h-.154v.285c0 .053-.026.08-.078.08h-.022c-.051 0-.077-.027-.077-.08zm.326.364c.049 0 .086-.014.113-.042.026-.028.039-.067.039-.117 0-.049-.013-.086-.039-.113-.027-.026-.064-.04-.11-.04h-.152v.312zm-7.267.597c.282 0 .521.036.717.108s.35.139.46.2c.094.049.149.116.166.199s.003.171-.041.265l-.083.15c-.05.099-.114.158-.191.174-.077.017-.169.003-.274-.041-.094-.045-.207-.09-.339-.137-.133-.047-.288-.071-.465-.071-.182 0-.323.036-.422.108-.1.072-.15.174-.15.307 0 .116.051.21.154.282.102.072.232.136.389.191.158.056.326.115.506.179.18.063.348.145.506.245.157.099.287.227.389.382.103.155.154.351.154.589 0 .188-.038.361-.112.519-.075.158-.183.295-.324.411-.14.116-.31.207-.509.274-.199.066-.42.099-.664.099-.342 0-.631-.05-.866-.149-.235-.1-.416-.194-.543-.282-.094-.056-.146-.125-.157-.208s.014-.171.074-.266l.1-.149c.061-.089.128-.138.203-.149.074-.011.164.011.269.066.1.055.228.118.386.187.157.069.344.104.559.104.183 0 .326-.039.431-.117.105-.077.158-.182.158-.315 0-.116-.051-.209-.153-.278-.103-.069-.233-.133-.39-.191-.158-.058-.326-.121-.506-.187-.179-.066-.348-.149-.505-.249-.158-.1-.288-.227-.39-.382s-.153-.354-.153-.598c0-.204.042-.387.128-.547.086-.161.202-.294.348-.399.147-.105.318-.185.514-.241.196-.055.405-.083.626-.083zm-12.322 0c.282 0 .521.036.717.108s.35.139.46.2c.094.049.149.116.166.199.016.083.003.171-.042.265l-.082.15c-.05.099-.114.158-.191.174-.077.017-.169.003-.274-.041-.094-.045-.207-.09-.34-.137-.132-.047-.287-.071-.464-.071-.182 0-.323.036-.423.108-.099.072-.149.174-.149.307 0 .116.051.21.154.282.102.072.232.136.389.191.158.056.326.115.506.179.18.063.348.145.506.245.157.099.287.227.389.382s.154.351.154.589c0 .188-.038.361-.112.519-.075.158-.183.295-.324.411s-.311.207-.509.274c-.199.066-.42.099-.664.099-.342 0-.631-.05-.866-.149-.235-.1-.416-.194-.543-.282-.094-.056-.146-.125-.157-.208s.013-.171.074-.266l.1-.149c.06-.089.128-.138.203-.149.074-.011.164.011.269.066.1.055.228.118.386.187.157.069.344.104.559.104.183 0 .326-.039.431-.117.105-.077.158-.182.158-.315 0-.116-.051-.209-.154-.278-.102-.069-.232-.133-.389-.191-.158-.058-.326-.121-.506-.187-.179-.066-.348-.149-.506-.249-.157-.1-.287-.227-.389-.382s-.154-.354-.154-.598c0-.204.043-.387.129-.547.086-.161.202-.294.348-.399.147-.105.318-.185.514-.241.196-.055.405-.083.626-.083zm15.115-1.56c.232 0 .348.116.348.348v1.71c0 .056-.001.104-.004.146-.002.041-.007.079-.012.112-.006.039-.008.072-.008.099h.016c.05-.099.12-.2.212-.303.091-.102.198-.195.323-.278.124-.083.265-.149.423-.199.157-.05.327-.075.509-.075.47 0 .834.128 1.09.382.257.255.386.664.386 1.229v2.374c0 .232-.116.349-.348.349h-.357c-.232 0-.348-.117-.348-.349v-2.158c0-.26-.044-.469-.132-.627-.089-.158-.266-.237-.531-.237-.182 0-.35.036-.502.108-.151.072-.28.17-.385.295-.105.124-.187.273-.245.444-.058.172-.087.357-.087.556v1.619c0 .232-.116.349-.348.349h-.356c-.232 0-.348-.117-.348-.349v-5.197c0-.232.116-.348.348-.348zm-5.508 1.66c.227 0 .34.116.34.349v3.536c0 .232-.113.349-.34.349h-.364c-.227 0-.34-.117-.34-.349v-3.536c0-.233.113-.349.34-.349zm-7.033 0c.21 0 .334.102.373.307l.68 2.474c.011.061.02.116.029.166.008.05.018.097.029.141.011.05.019.097.025.141h.016c.006-.044.014-.091.025-.141.011-.044.021-.091.029-.141s.021-.105.037-.166l.713-2.474c.039-.199.166-.299.382-.299h.315c.204 0 .331.1.381.299l.704 2.474c.017.061.029.116.038.166.008.05.018.097.029.141.011.05.019.097.025.141h.016c.006-.044.014-.091.025-.141.011-.044.021-.091.029-.141s.021-.105.037-.166l.672-2.474c.05-.205.177-.307.381-.307h.382c.127 0 .215.036.265.108s.058.166.025.282l-1.086 3.553c-.056.194-.185.291-.39.291h-.555c-.21 0-.34-.1-.39-.299l-.638-2.117c-.017-.055-.031-.111-.042-.166s-.022-.105-.033-.149c-.011-.05-.019-.097-.025-.142h-.016c-.011.045-.022.092-.033.142-.011.044-.023.094-.034.149s-.024.111-.041.166l-.638 2.117c-.05.199-.177.299-.382.299h-.572c-.199 0-.326-.097-.381-.291l-1.094-3.553c-.033-.116-.024-.21.029-.282.052-.072.139-.108.261-.108z" fill="#4a4a49"/><path d="m11.215 21.425c2.201 1.053 4.918.532 6.559-1.424 1.945-2.318 1.643-5.774-.675-7.718l-1.541 1.836c1.811 1.519 2.047 4.219.527 6.03-1.212 1.444-3.207 1.926-4.87 1.276" fill="url(#a)"/><path d="m11.215 21.425c2.201 1.053 4.918.532 6.559-1.424.201-.24.378-.491.531-.752.259-1.611-.311-3.313-1.651-4.438-.341-.286-.71-.516-1.096-.692 1.811 1.519 2.047 4.219.527 6.03-1.212 1.444-3.207 1.926-4.87 1.276" fill="url(#b)"/><path d="m15.94 11.534c-2.202-1.053-4.918-.532-6.56 1.423-1.945 2.318-1.643 5.774.675 7.719l1.541-1.837c-1.811-1.519-2.047-4.219-.527-6.029 1.212-1.444 3.207-1.926 4.871-1.276" fill="url(#c)"/><path d="m15.94 11.534c-2.202-1.053-4.918-.532-6.56 1.423-.201.24-.378.492-.531.752-.259 1.611.311 3.314 1.652 4.438.34.286.709.516 1.095.692-1.811-1.519-2.047-4.219-.527-6.029 1.212-1.444 3.207-1.926 4.871-1.276" fill="url(#d)"/></svg>