<svg xmlns="http://www.w3.org/2000/svg" width="640" height="360"><defs><linearGradient id="a" x1="14.702%" x2="71.203%" y1="-.589%" y2="110.82%"><stop offset="0%" stop-color="#003972"/><stop offset="100%" stop-color="#003163"/></linearGradient><linearGradient id="b" x1="-82.955%" x2="415.405%" y1=".488%" y2="186.186%"><stop offset="0%" stop-color="#A9CF84"/><stop offset="100%" stop-color="#23AC70"/></linearGradient><linearGradient id="c" x1="-54.705%" x2="167.428%" y1="-21.628%" y2="104.779%"><stop offset="0%" stop-color="#A9CF84"/><stop offset="100%" stop-color="#23AC70"/></linearGradient><linearGradient id="d" x1="29.892%" x2="254.395%" y1="43.825%" y2="170.176%"><stop offset="0%" stop-color="#A9CF84"/><stop offset="100%" stop-color="#23AC70"/></linearGradient></defs><g fill="none" fill-rule="evenodd" transform="translate(170 30)"><path fill="url(#a)" d="M.388 146.547H.343V299.93h153.381v-.045C234.834 297.996 300 231.666 300 150.104 300 67.357 232.92.271 150.168.271 68.612.272 2.276 65.444.388 146.547"/><path fill="url(#b)" fill-rule="nonzero" d="M139.3 115.96c-8.425 0-15.66 2.98-21.725 8.934-6.058 5.962-9.084 13.145-9.084 21.576 0 8.418 3.02 15.575 9.084 21.485 6.065 5.91 13.3 8.864 21.725 8.864h30.885v-30.35c0-8.424-3.045-15.607-9.135-21.575-6.078-5.954-13.332-8.935-21.75-8.935zm17.954 48.756h-17.993c-5.024 0-9.285-1.785-12.77-5.373-3.478-3.576-5.224-7.869-5.224-12.886 0-5.024 1.746-9.343 5.224-12.97 3.479-3.627 7.746-5.444 12.77-5.444 5.036 0 9.29 1.817 12.77 5.444 3.478 3.627 5.223 7.946 5.223 12.97v18.259z"/><path fill="url(#c)" d="M230.412 121.319c-2.45 2.444-3.666 5.36-3.666 8.767v34.972h-16.869c-4.894 0-9.045-1.739-12.452-5.217-3.408-3.472-5.115-7.643-5.115-12.524v-17.23c0-3.408-1.222-6.324-3.66-8.768-2.443-2.438-5.366-3.66-8.76-3.66v29.651c0 8.18 2.935 15.143 8.813 20.884 5.877 5.741 12.937 8.619 21.174 8.619h16.85l.019 17.721c0 3.408 1.222 6.324 3.66 8.768 2.443 2.437 5.366 3.66 8.76 3.66v-89.303c-3.4 0-6.323 1.222-8.754 3.66z"/><path fill="url(#d)" fill-rule="nonzero" d="M91.15 124.894c-6.083-5.954-13.338-8.941-21.756-8.941-8.418 0-15.653 2.987-21.71 8.941-6.065 5.962-9.091 13.145-9.091 21.576v61.396c3.498 0 6.498-1.254 9.013-3.763 2.508-2.515 3.763-5.515 3.763-9.019l.019-18.265h18.006c8.47 0 15.737-2.955 21.79-8.864 6.064-5.91 9.096-13.067 9.096-21.485 0-8.431-3.039-15.614-9.13-21.576zm-9.019 34.449c-3.472 3.588-7.72 5.373-12.743 5.373H51.446v-18.253c0-5.03 1.74-9.349 5.205-12.97 3.472-3.627 7.726-5.443 12.737-5.443 5.024 0 9.265 1.816 12.743 5.444 3.479 3.627 5.212 7.946 5.212 12.97.006 5.023-1.727 9.31-5.212 12.879z"/><path fill="#FFF" fill-rule="nonzero" d="M155.754 289.869H10.403V144.517h.11c.692-17.702 4.662-34.842 11.806-50.967 7.209-16.274 17.34-30.86 30.116-43.358 12.79-12.511 27.608-22.326 44.05-29.173 17.024-7.086 35.088-10.68 53.683-10.68 18.866 0 37.17 3.698 54.401 10.984 16.642 7.041 31.59 17.114 44.425 29.955 12.834 12.834 22.913 27.782 29.954 44.425 7.287 17.23 10.985 35.534 10.985 54.4 0 18.595-3.595 36.66-10.68 53.684-6.848 16.441-16.662 31.26-29.173 44.05-12.498 12.775-27.084 22.907-43.358 30.116-16.131 7.144-33.265 11.114-50.968 11.806v.11zm-140.696-4.656H151.63l1.746-.038c17.897-.414 35.211-4.28 51.466-11.477 15.73-6.97 29.831-16.765 41.915-29.114 12.097-12.362 21.582-26.69 28.203-42.588 6.853-16.455 10.325-33.912 10.325-51.893 0-18.239-3.568-35.935-10.616-52.59-6.808-16.086-16.545-30.537-28.959-42.95-12.407-12.408-26.858-22.151-42.95-28.96-16.656-7.047-34.352-10.616-52.59-10.616-17.982 0-35.438 3.472-51.893 10.325-15.892 6.615-30.22 16.106-42.588 28.203C43.337 65.6 33.543 79.7 26.573 95.431 19.371 111.685 15.511 129 15.097 146.897l-.039 1.745v136.571z"/><circle cx="255.31" cy="171.388" r="7.448" fill="#FFF"/></g></svg>