<svg xmlns="http://www.w3.org/2000/svg" width="640" height="360" fill="none"><path d="M159.549 36C122.855 36 93 65.958 93 102.783V324h387.15c36.7 0 66.553-29.957 66.553-66.783V102.783C546.703 65.958 516.85 36 480.15 36zm-.541 66.39h47.344c24.722 0 45.155 19.865 45.294 44.686a45.1 45.1 0 0 1-3.347 17.278 45 45 0 0 1-9.695 14.667 44.8 44.8 0 0 1-14.561 9.815 44.7 44.7 0 0 1-17.197 3.459h-23.87v39.062h-23.968zm23.969 24.026v41.84h23.517v-.02c11.408 0 20.966-9.06 21.184-20.507a21 21 0 0 0-5.965-15.036 20.828 20.828 0 0 0-14.867-6.277zm124.066 7.28a48.8 48.8 0 0 1 24.55 6.898v-6.418h23.968v97.183h-23.967v-6.306a48.84 48.84 0 0 1-24.551 6.898 48.83 48.83 0 0 1-24.68-6.424 49.04 49.04 0 0 1-18.111-18.004 49.25 49.25 0 0 1 0-49.4 49.03 49.03 0 0 1 18.111-18.004 48.8 48.8 0 0 1 24.68-6.424m142.127.138h26.084L434.21 240.369a49.23 49.23 0 0 1-17.951 22.662 48.96 48.96 0 0 1-27.54 8.625h-3.224v-24.049h2.828a24.9 24.9 0 0 0 14.004-4.386 25.04 25.04 0 0 0 9.129-11.526l.129-.334h-6.996l-38.744-97.183h26.216l28.975 72.67zm-141.945 23.914a24.957 24.957 0 0 0-18.293 7.328 25.1 25.1 0 0 0-6.848 12.836 25.17 25.17 0 0 0 1.41 14.49 25.06 25.06 0 0 0 9.195 11.262 24.93 24.93 0 0 0 13.88 4.242 24.98 24.98 0 0 0 17.685-7.345 25.15 25.15 0 0 0 7.34-17.739c0-4.96-1.465-9.806-4.211-13.931a25 25 0 0 0-11.215-9.239 24.9 24.9 0 0 0-8.943-1.904m176.18 45.084c8.076 0 14.624 6.57 14.624 14.676s-6.548 14.676-14.625 14.676-14.625-6.57-14.625-14.676 6.547-14.676 14.625-14.676" style="fill:#fff"/></svg>