<svg width="512" height="512" fill="none" xmlns="http://www.w3.org/2000/svg"><path d="M191.381 0H5v508.738h94.357V354.65h93.963a175.753 175.753 0 0 0 67.705-13.647 176.533 176.533 0 0 0 57.319-38.715 177.625 177.625 0 0 0 38.169-57.861 178.317 178.317 0 0 0 13.178-68.154C369.144 78.365 288.707 0 191.381 0Zm.562 259.824H99.357V94.778h93.963a81.804 81.804 0 0 1 31.738 6.462 82.121 82.121 0 0 1 26.789 18.296 82.663 82.663 0 0 1 17.676 27.284 82.962 82.962 0 0 1 5.813 32.032c-.859 45.156-38.484 80.895-83.393 80.895v.077ZM448.983 512c31.797 0 57.577-25.919 57.577-57.891 0-31.972-25.78-57.892-57.577-57.892-31.8 0-57.577 25.92-57.577 57.892S417.183 512 448.983 512Z" fill="#585FFF"/></svg>