<?xml version="1.0" encoding="UTF-8" standalone="no"?>
<svg
   width="640"
   height="360"
   viewBox="0 0 640 360"
   fill="none"
   version="1.1"
   id="svg491"
   sodipodi:docname="method-billie-secondary-640x360.svg"
   inkscape:version="1.2.2 (b0a8486, 2022-12-01)"
   xmlns:inkscape="http://www.inkscape.org/namespaces/inkscape"
   xmlns:sodipodi="http://sodipodi.sourceforge.net/DTD/sodipodi-0.dtd"
   xmlns="http://www.w3.org/2000/svg"
   xmlns:svg="http://www.w3.org/2000/svg">
  <sodipodi:namedview
     id="namedview493"
     pagecolor="#ffffff"
     bordercolor="#666666"
     borderopacity="1.0"
     inkscape:showpageshadow="2"
     inkscape:pageopacity="0.0"
     inkscape:pagecheckerboard="true"
     inkscape:deskcolor="#d1d1d1"
     showgrid="false"
     inkscape:zoom="1"
     inkscape:cx="215"
     inkscape:cy="231"
     inkscape:window-width="1627"
     inkscape:window-height="766"
     inkscape:window-x="2832"
     inkscape:window-y="469"
     inkscape:window-maximized="0"
     inkscape:current-layer="svg491" />
  <g
     clip-path="url(#clip0_849_691)"
     id="g484"
     transform="matrix(8.0005188,0,0,8.0005188,63.966796,51.991699)">
    <path
       fill-rule="evenodd"
       clip-rule="evenodd"
       d="M 7,2 C 4.23858,2 2,4.23858 2,7 V 20 C 2,20.5523 1.55228,21 1,21 0.447715,21 0,20.5523 0,20 V 7 C 0,3.13401 3.13401,0 7,0 h 12 c 0.5523,0 1,0.447715 1,1 0,0.55228 -0.4477,1 -1,1 z"
       fill="#ffd000"
       id="path460" />
    <path
       fill-rule="evenodd"
       clip-rule="evenodd"
       d="m 63,20 c 0.5523,0 1,0.4477 1,1 v 4 c 0,3.866 -3.134,7 -7,7 H 38 c -0.5523,0 -1,-0.4477 -1,-1 0,-0.5523 0.4477,-1 1,-1 h 19 c 2.7614,0 5,-2.2386 5,-5 v -4 c 0,-0.5523 0.4477,-1 1,-1 z"
       fill="#df1a79"
       id="path462" />
    <path
       fill-rule="evenodd"
       clip-rule="evenodd"
       d="m 45,1 c 0,-0.552285 0.4477,-1 1,-1 h 11 c 3.866,0 7,3.13401 7,7 v 7 c 0,0.5523 -0.4477,1 -1,1 -0.5523,0 -1,-0.4477 -1,-1 V 7 C 62,4.23858 59.7614,2 57,2 H 46 C 45.4477,2 45,1.55228 45,1 Z"
       fill="#6600f5"
       id="path464" />
    <path
       d="M 4,8 C 4,5.79086 5.79086,4 8,4 h 48 c 2.2091,0 4,1.79086 4,4 v 16 c 0,2.2091 -1.7909,4 -4,4 H 8 C 5.79086,28 4,26.2091 4,24 Z"
       fill="#fefefe"
       id="path466" />
    <path
       d="M 19.6095,23.3469 H 12.7197 V 12.0286 c 0,-1.3821 0.5779,-2.71931 1.5847,-3.66561 1.0223,-0.96044 2.3579,-1.4413 3.7615,-1.35258 2.5902,0.16328 4.6976,2.3606 4.6976,4.89859 0,0.8075 -0.113,1.6381 -0.2658,2.2976 1.2906,0.9116 2.1344,2.4146 2.1344,4.1118 0,2.7733 -2.2538,5.0285 -5.0226,5.0285 z m -2.2602,-2.0983 h 2.2602 c 1.6143,0 2.9267,-1.3153 2.9267,-2.9302 0,-0.8049 -0.3249,-1.5339 -0.8514,-2.0649 -0.9965,1.8978 -2.4156,3.5358 -4.3355,4.9951 z m -2.535,-5.8617 v 5.0761 c 2.3116,-1.4747 3.8976,-3.0999 4.9557,-5.0709 -0.0539,-0.0026 -0.1078,-0.0039 -0.1618,-0.0039 h -4.7926 z m 0,-2.0983 h 4.7952 c 0.3146,0 0.6216,0.0296 0.9195,0.0849 0.0771,-0.4256 0.1387,-0.9425 0.1387,-1.4645 0,-1.4516 -1.2264,-2.71028 -2.7341,-2.80414 C 17.113,9.05215 16.3335,9.33243 15.7389,9.89301 15.143,10.4536 14.8143,11.2122 14.8143,12.0299 v 1.26 z"
       fill="#1e1e1e"
       id="path468" />
    <path
       d="m 43.5539,11.066 c 0.2479,0.2481 0.3724,0.5554 0.3724,0.9206 0,0.3651 -0.1245,0.6685 -0.3724,0.9115 -0.2478,0.243 -0.5715,0.3652 -0.9683,0.3652 -0.3968,0 -0.7037,-0.1209 -0.9516,-0.3652 -0.2478,-0.243 -0.3724,-0.5464 -0.3724,-0.9115 0,-0.3652 0.1246,-0.6712 0.3724,-0.9206 0.2479,-0.2482 0.5651,-0.3729 0.9516,-0.3729 0.3866,0 0.7205,0.1247 0.9683,0.3729 z"
       fill="#1e1e1e"
       id="path470" />
    <path
       d="m 29.1204,11.0662 c 0.2479,0.2482 0.3725,0.5555 0.3725,0.9206 0,0.3652 -0.1246,0.6686 -0.3725,0.9116 -0.2478,0.243 -0.5714,0.3651 -0.9683,0.3651 -0.3968,0 -0.7037,-0.1208 -0.9516,-0.3651 -0.2478,-0.243 -0.3724,-0.5464 -0.3724,-0.9116 0,-0.3651 0.1246,-0.6711 0.3724,-0.9206 0.2479,-0.2481 0.5651,-0.3728 0.9516,-0.3728 0.3866,0 0.7205,0.1247 0.9683,0.3728 z"
       fill="#1e1e1e"
       id="path472" />
    <path
       d="m 43.6531,14.0242 v 9.1055 h -2.1189 v -8.7584 z"
       fill="#1e1e1e"
       id="path474" />
    <path
       d="m 29.2138,14.0242 v 9.1055 h -2.119 v -8.7584 z"
       fill="#1e1e1e"
       id="path476" />
    <path
       d="M 53.3437,19.3964 H 47.846 c 0.0668,0.8512 0.2864,1.4593 0.6626,1.8232 0.375,0.3651 0.872,0.5464 1.4897,0.5464 0.3866,0 0.75,-0.063 1.0929,-0.1903 0.3416,-0.1272 0.7063,-0.3227 1.0928,-0.5888 l 0.8772,1.2098 c -0.9709,0.7843 -2.0535,1.1765 -3.2452,1.1765 -1.3356,0 -2.3656,-0.4089 -3.0886,-1.2266 -0.723,-0.8177 -1.0838,-1.9337 -1.0838,-3.348 0,-0.8949 0.1541,-1.6998 0.4636,-2.4121 0.3095,-0.7123 0.7564,-1.2703 1.3407,-1.674 0.5856,-0.4037 1.2803,-0.6056 2.0868,-0.6056 1.2252,0 2.1742,0.3896 2.8484,1.1688 0.6729,0.7791 1.0107,1.8656 1.0107,3.258 0,0.1106 -0.0167,0.3973 -0.0501,0.8614 z m -2.0535,-1.4747 c 0,-1.5365 -0.5689,-2.304 -1.7054,-2.304 -0.5188,0 -0.9246,0.1903 -1.2174,0.5721 -0.2928,0.3819 -0.4662,0.9926 -0.5214,1.8322 h 3.4442 v -0.099 z"
       fill="#1e1e1e"
       id="path478" />
    <path
       d="m 38.6871,10.6138 v 10.4414 c 0,0.2391 0.1695,0.4333 0.3788,0.4333 h 0.3352 v 1.89 h -1.0287 c -0.994,0 -1.7992,-0.9219 -1.7992,-2.061 V 10.8748 l 2.1151,-0.261 z"
       fill="#1e1e1e"
       id="path480" />
    <path
       d="m 33.7955,10.6138 v 10.4414 c 0,0.2391 0.1695,0.4333 0.3788,0.4333 h 0.3352 v 1.89 h -1.0287 c -0.994,0 -1.7992,-0.9219 -1.7992,-2.061 V 10.8748 l 2.1151,-0.261 z"
       fill="#1e1e1e"
       id="path482" />
  </g>
  <defs
     id="defs489">
    <clipPath
       id="clip0_849_691">
      <rect
         width="64"
         height="32"
         fill="#ffffff"
         transform="translate(0.00415039)"
         id="rect486"
         x="0"
         y="0" />
    </clipPath>
  </defs>
</svg>
