<svg height="80" viewBox="0 0 240 80" width="240" xmlns="http://www.w3.org/2000/svg"><path d="m24.1260458 219.027298v5.304916h-10.405374v9.752427h10.405374v5.302718h-24.11065649v-5.302718h9.25337405v-9.752427h-9.25337405v-5.304916zm0-19.359756v4.603603c-.3891298.103328-.4023206.094534-.701313.138504-.2792061.039572-.6947175.039572-.984916.061557.7870534.765069 1.3388702 1.664244 1.6554504 2.699725.3143817 1.033283.4726717 2.090748.4726717 3.170199 0 .831023-.1011297 1.604885-.3055878 2.328183-.200061.718901-.5144427 1.347664-.9475419 1.888489-.4265039.538625-.9651298.960732-1.6224733 1.264122-.6507481.303389-1.4312061.455084-2.3347786.455084-.989313 0-1.8049466-.175878-2.4490993-.523237-.6419542-.349557-1.1541985-.798046-1.5389313-1.347664-.3825343-.551817-.6705343-1.182779-.8618015-1.890687-.1912672-.710107-.3429618-1.422412-.4572825-2.143512-.1099236-.7189-.200061-1.426809-.2704122-2.123725-.0659542-.699114-.1692824-1.314687-.3033893-1.855511-.1363053-.538626-.3319694-.967328-.5935878-1.283909-.2572213-.314381-.6353587-.459481-1.1300152-.437496-.5188397 0-.9299542.083542-1.235542.252825-.3033893.167084-.54082444.391328-.71010689.672732-.16708397.279207-.28140458.604581-.33856488.976123-.05496183.367145-.08354199.765068-.08354199 1.191572 0 .940947.20225954 1.679634.61117558 2.21826.40671758.536427 1.08824428.853007 2.04018318.940946v4.803664c-1.1278168-.065954-2.06436639-.349557-2.80745036-.844213-.74528244-.496855-1.34326718-1.12342-1.7939542-1.890687-.45068702-.762871-.76946565-1.624672-.9629313-2.57881-.19126717-.956335-.29019847-1.917068-.29019847-2.886595 0-.877191.06375573-1.765374.18687023-2.66455.12531298-.899175.36714504-1.721404.72769466-2.46229.36054961-.743084.86180152-1.349862 1.50155725-1.822534.64415267-.472672 1.49496179-.707908 2.55462599-.707908h9.0884885l2.2644275-.004397c.8903817-.041771.9299542-.04397 1.6202748-.197863zm-6.7537099 5.003725h-1.7895573c.1802748.204458.3209771.455084.4221069.756275.1033282.305588.1868702.630962.2550229.980519.0681527.347359.1231145.710107.167084 1.092641.0461679.380336.1033282.762871.1692824 1.145405.0681527.358351.1582901.712305.2682137 1.059664.1143207.349557.2660153.652947.4572825.910168s.4352977.466076.7276946.624366c.2901985.156092.6617405.235237 1.1124275.235237.4265038 0 .7892519-.079145 1.0794504-.235237.2945954-.15829.5254351-.37374.6925191-.639755.1692824-.270413.288-.584794.3561527-.943145.0681526-.36055.1011297-.732092.1011297-1.114626 0-.940947-.15829-1.67084-.4726717-2.187481-.3143817-.516642-.6903206-.896977-1.1300153-1.145405-.4374962-.246229-.8837862-.395725-1.3344733-.455084-.450687-.054962-.8112366-.083542-1.0816488-.083542zm6.7515114-24.440427v4.801465h-9.8667481c-1.44 0-2.5150534.224245-3.2251603.67713-.7079084.450687-1.06406104 1.25313-1.06406104 2.402931 0 1.31029.38912974 2.257832 1.16738934 2.842626.776061.586993 2.053374.87939 3.8341374.87939h9.1544427v4.777282h-17.46247325v-4.55084h2.00500763v-.101129c-.89038168-.696916-1.42900763-1.314687-1.87309924-2.29081-.45068702-.989312-.60238168-2.035786-.60238168-3.047083 0-1.286107.17587787-2.341375.52543512-3.163604.34735878-.82003.8310229-1.46858 1.45099236-1.94345.61996947-.47487 1.37404581-.804641 2.26222906-.995908.8881832-.193466 1.8752977-.288 2.954748-.288zm.0021985-20.155603v4.561832h-1.8357252v.063755c.9365496.69252 1.402626 1.44 1.7851603 2.363359.3803359.921161.492458 2.08855.4902911 2.937161-.006627 1.305893-.2550544 2.453496-.7607033 3.445007-.5100458.989313-1.193771 1.804947-2.0621679 2.446901-.8661985.639756-1.8643054 1.125618-2.9899237 1.450992-1.1278168.325374-2.2996031.49026-3.5175573.49026-1.1673893 0-2.3018015-.164886-3.3966412-.49026-1.0904427-.327572-2.05117555-.811236-2.88879387-1.453191-.83322137-.639755-1.50155725-1.448793-2.00940458-2.416122-.50564885-.969526-.76067175-2.092946-.76067175-3.376855 0-1.037679.14729771-1.989618.58479389-2.976732.4111145-.938749.87719084-1.563115 1.66864122-2.194077v-.050565h-8.43114504v-4.801465zm-8.7872977 4.62119c-2.8404275 0-5.63029008 1.075054-5.63029008 4.388153 0 3.343878 2.78986258 4.498076 5.66106868 4.498076 2.7392977 0 5.6786565-1.330076 5.6786565-4.493679 0-3.38345-2.838229-4.39255-5.7094351-4.39255zm1.231145-24.499786v12.595054c1.5565191-.068153 2.6821374-.463878 3.3812519-1.184977.6991145-.716703 1.0486718-1.752184 1.0486718-3.104245 0-.967328-.2440305-1.800549-.7320916-2.497465-.4858626-.699115-1.0003054-1.125619-1.5455267-1.286107v-4.221069c2.099542.67713 3.5989007 1.710412 4.5002748 3.108641.901374 1.396031 1.3520611 3.084458 1.3520611 5.065283 0 1.374046-.2176489 2.609588-.6573436 3.71542-.4396946 1.103633-1.064061 2.037984-1.8752977 2.803053-.8112366.769466-1.7807633 1.358656-2.9063816 1.778565-1.1278168.41771-2.3677558.622168-3.7198168.622168-1.3036947 0-2.5216489-.211054-3.6494657-.639756-1.1256183-.428702-2.09954198-1.037679-2.92177098-1.826931-.82222901-.789252-1.47077863-1.728-1.94345039-2.82284-.47267175-1.090443-.71010687-2.299603-.71010687-3.629679 0-1.486168.288-2.778871.86180153-3.882504.57819847-1.103634 1.34766412-2.009405 2.31719084-2.719512.96732827-.707908 2.07316027-1.222351 3.31529767-1.536732 1.2377405-.312184 2.5348397-.426504 3.8847023-.336367zm-3.0492824 4.79487c-1.2201527.224245-2.1457099.624367-2.7788702 1.198168-.6331603.573802-.9497405 1.446596-.9497405 2.618382 0 .76287.1319084 1.398229.3913282 1.906076.2594199.507848.580397.912367.9651298 1.215756.3825344.305588.7892519.516641 1.2223512.641954.4265038.125313.8112366.195664 1.1498015.219848zm10.6036763-12.101232v4.802301h-24.11109616v-4.802301zm-5.6021496-18.787317c1.152 0 2.1127328.23084 2.8909924.694717.7782595.459481 1.4048244 1.064061 1.8752977 1.804947.4748702.743084.8068397 1.596092.9981069 2.552427.1934656.956336.288 1.928062.288 2.919573 0 1.013496-.0989313 2.005008-.3011909 2.974534-.2022595.969527-.5408244 1.82913-1.0134962 2.583206-.4704733.756275-1.0948397 1.376245-1.8709007 1.859909-.7738626.483664-1.7455878.749679-2.9173741.793649v-4.553039c.5144428 0 .9585344-.107725 1.3300764-.318778.3715419-.215451.6705343-.492458.9079694-.831023.2352367-.336366.4111145-.727695.5210382-1.165191.1121221-.439695.167084-.894778.167084-1.369649 0-.336366-.0373741-.69032-.1165191-1.064061-.0791451-.371542-.204458-.710107-.3737405-1.011298-.167084-.307786-.3913282-.56061-.6727328-.760671-.2814046-.204458-.6375573-.305588-1.0662596-.305588-.7210992 0-1.2597251.479267-1.6202748 1.435603-.3627481.956336-.7232977 2.290809-1.0838473 4.001221-.1560916.699115-.3429618 1.380642-.5584122 2.046779-.2110534.663939-.4946565 1.255328-.8420153 1.771969-.3517557.516642-.7914504.934352-1.3190839 1.250932-.5298321.314381-1.1783817.472672-1.9456489.472672-1.1256183 0-2.04897709-.219848-2.77007633-.659542-.71890076-.437497-1.28830534-1.022291-1.70821374-1.741191-.41331298-.718901-.70570992-1.532336-.87499237-2.43371-.16928244-.901374-.2550229-1.822535-.2550229-2.770077 0-.945343.09013741-1.864305.27041222-2.75029.18027481-.890381.48366412-1.68403.91456488-2.383145.42650382-.699114.9959084-1.277313 1.7038168-1.738992.71230534-.463878 1.60708394-.738687 2.69093134-.831023v4.553038c-.9277558.068153-1.5565191.415512-1.88629012 1.048672-.32757252.630962-.49245802 1.374046-.49245802 2.233649 0 .266015.01758779.562809.05276336.879389.03077863.314382.10772519.602382.21984733.859603.11212214.25942.27480916.479267.49025955.659542.2132519.180275.5012519.272611.859603.272611.4287023 0 .7804581-.160489 1.0486718-.47487.2704122-.314382.4902595-.725497.659542-1.233344.1714809-.505649.3231756-1.086046.4572824-1.741191.1363054-.650748.2814046-1.314687.4418932-1.991816.1560916-.696917.3473587-1.378443.5738015-2.042382.2242443-.663939.5232366-1.255328.8947786-1.77197.3737405-.518839.8354199-.936549 1.3872367-1.253129.5518167-.314382 1.2355419-.472672 2.0445801-.472672zm-3.2867176-20.2633284c1.2179542 0 2.387542.1604885 3.5153588.4880611 1.1256183.3275725 2.1237252.8112366 2.9899237 1.4531908.8683969.6397557 1.5543206 1.4575878 2.0621679 2.4469008.5056489.9915114.7562748 2.1369157.7585991 3.4428087.0042712.846413-.1056525 2.013802-.4859884 2.937161-.3825343.925557-.8508091 1.673038-1.7873588 2.36116v.068153h1.8357252v4.561832h-24.1238473v-4.803664h8.43114504v-.048367c-.79145038-.630962-1.25532825-1.259725-1.66864122-2.196275-.43749619-.989313-.5847939-1.939053-.5847939-2.974534 0-1.283908.2550229-2.4095266.76287023-3.3768549.50345038-.9695267 1.17398474-1.7741679 2.00940458-2.4183206.83322138-.6397557 1.79615267-1.1234199 2.88879387-1.4531908 1.0926412-.3275726 2.224855-.4880611 3.3966412-.4880611zm.1341069 4.2496488c-2.8712061 0-5.66106868 1.1541985-5.66106868 4.5002746 0 3.310901 2.78986258 4.385954 5.62809158 4.385954 2.8712061 0 5.7094351-1.0069 5.7094351-4.390351 0-3.1636027-2.9415572-4.4958776-5.676458-4.4958776zm8.7565191-22.5123664v4.608c-.3891298.1011298-.4023206.0923359-.701313.1385038-.2792061.0395726-.6947175.0373741-.984916.0593588.7870534.7672672 1.3388702 1.6664428 1.6554504 2.6975267.3143817 1.0376794.4726717 2.0929466.4726717 3.172397 0 .8332214-.1011297 1.607084-.3055878 2.3281832-.200061.7210992-.5144427 1.3498626-.9475419 1.8884885-.4265039.538626-.9651298.9607329-1.6224733 1.2641222-.6507481.3055878-1.4312061.455084-2.3347786.455084-.989313 0-1.8049466-.1736794-2.4490993-.5210382-.6419542-.3495573-1.1541985-.8002443-1.5389313-1.3498626-.3825343-.5518168-.6705343-1.1805802-.8618015-1.8884886-.1912672-.7101068-.3429618-1.4224122-.4572825-2.1457099-.1099236-.7167023-.200061-1.4268091-.2704122-2.1237252-.0659542-.696916-.1692824-1.314687-.3033893-1.8555114-.1363053-.538626-.3319694-.9695267-.5935878-1.2817099-.2572213-.3143817-.6353587-.4616794-1.1300152-.4396947-.5188397 0-.9299542.083542-1.235542.2550229-.3033893.167084-.54082444.3891298-.71010689.6727328-.16708397.2770077-.28140458.6045802-.33856488.9739237-.05496183.3693435-.08354199.7672672-.08354199 1.193771 0 .9409465.20225954 1.6796336.61117558 2.2182595.40671758.5364275 1.08824428.8508092 2.04018318.9387481v4.8036641c-1.1278168-.0659542-2.06436639-.3495572-2.80745036-.8442137-.74528244-.4946565-1.34326718-1.1234199-1.7939542-1.8884886-.45068702-.7672671-.76946565-1.6246717-.9629313-2.5832061-.19126717-.9541374-.29019847-1.9148702-.29019847-2.8821984 0-.8771909.06375573-1.7653741.18687023-2.6645497.12531298-.901374.36714504-1.7214045.72769466-2.4644885.36054961-.7408855.86180152-1.3498626 1.50155725-1.8225344.64415267-.4726717 1.49496179-.7079084 2.55462599-.7079084h9.0884885l2.2644275-.0043969c.8903817-.0395725.9299542-.041771 1.6202748-.2000611zm-6.7537099 5.0059237h-1.7895573c.1802748.2022595.3209771.4572824.4221069.7584733.1033282.3033893.1868702.6309618.2550229.9783206s.1231145.7123053.167084 1.0948397c.0461679.3803359.1033282.7628702.1692824 1.1432061.0681527.3605496.1582901.7145038.2682137 1.0618626.1143207.3473588.2660153.6529465.4572825.9079695.1912672.2594198.4352977.4682748.7276946.6243664.2901985.1560916.6617405.2352366 1.1124275.2352366.4265038 0 .7892519-.079145 1.0794504-.2352366.2945954-.1560916.5254351-.371542.6925191-.6397558.1692824-.2704122.288-.5825954.3561527-.943145.0681526-.3605496.1011297-.7298931.1011297-1.114626 0-.9409465-.15829-1.6686412-.4726717-2.1874809-.3143817-.5144427-.6903206-.8969771-1.1300153-1.1432061-.4374962-.2484275-.8837862-.4001221-1.3344733-.4572824-.450687-.0549619-.8112366-.083542-1.0816488-.083542zm6.7515114-24.4272366v4.8036641h-9.8667481c-1.44 0-2.5150534.2264427-3.2251603.6793282-.7079084.450687-1.06406104 1.2509313-1.06406104 2.4007328 0 1.3102901.38912974 2.2578321 1.16738934 2.8448245.776061.5847939 2.053374.8771908 3.8341374.8771908h9.1544427v4.7794809h-17.46247325v-4.5508397h2.00500763v-.1011297c-.89038168-.6991145-1.42900763-1.3168855-1.87309924-2.2930077-.45068702-.9893129-.60238168-2.0335878-.60238168-3.0470839 0-1.2839084.17587787-2.3391756.52543512-3.1636031.34735878-.8200305.8310229-1.4685801 1.45099236-1.9434504.61996947-.4726717 1.37404581-.8046412 2.26222906-.9959084.8881832-.1912671 1.8752977-.2901984 2.954748-.2901984zm.0021985-20.5029619v5.806168l-7.8001832 4.7948702 1.7895572 1.8577099h6.010626v4.8014657h-24.11065649v-4.8014657h12.93361829l-6.28323661-6.043603v-5.6720611l6.41734351 6.582229zm-7.5561527-16.8425038v12.5994504c1.5565191-.0703512 2.6821374-.4638779 3.3812519-1.1849771.6991145-.7189008 1.0486718-1.7543817 1.0486718-3.1064428 0-.9673282-.2440305-1.8027481-.7320916-2.4974656-.4858626-.6991145-1.0003054-1.1256183-1.5455267-1.2839084v-4.2210687c2.099542.6749313 3.5989007 1.7104122 4.5002748 3.1064427.901374 1.3938321 1.3520611 3.0844581 1.3520611 5.0652825 0 1.3740458-.2176489 2.6139847-.6573436 3.7154198-.4396946 1.1036336-1.064061 2.0401832-1.8752977 2.8052519-.8112366.7650687-1.7807633 1.3586565-2.9063816 1.7763664-1.1278168.41771-2.3677558.6265649-3.7198168.6265649-1.3036947 0-2.5216489-.2154503-3.6494657-.6441526-1.1256183-.4287023-2.09954198-1.0376794-2.92177098-1.8291298-.82222901-.784855-1.47077863-1.7258015-1.94345039-2.8184428-.47267175-1.0926412-.71010687-2.3061984-.71010687-3.6318778 0-1.486168.288-2.7810687.86180153-3.8825038.57819847-1.1036336 1.34766412-2.0116031 2.31719084-2.7195115.96732827-.7079084 2.07316027-1.2223511 3.31529767-1.5367328 1.2377405-.3143817 2.5348397-.4287023 3.8847023-.3385649zm-3.0492824 4.7948702c-1.2201527.2264428-2.1457099.6243664-2.7788702 1.2003664-.6331603.5738016-.9497405 1.4487939-.9497405 2.6161833 0 .7650687.1319084 1.4026259.3913282 1.9104732.2594199.5034504.580397.910168.9651298 1.2135573.3825344.3033893.7892519.5188397 1.2223512.6419542.4265038.1231145.8112366.1956641 1.1498015.2220458zm10.6032366-23.6050076v4.80146565h-9.8667481c-1.44 0-2.5150534.22644275-3.2251603.67712977-.7079084.45068702-1.06406104 1.25312977-1.06406104 2.4029313 0 1.31029007.38912974 2.25783208 1.16738934 2.84262598.776061.5891908 2.053374.8793893 3.8341374.8793893h9.1544427v4.7772824h-17.46247325v-4.5508397h2.00500763v-.0989313c-.89038168-.6991145-1.42900763-1.3168855-1.87309924-2.2930076-.45068702-.98931298-.60238168-2.03578626-.60238168-3.04928244 0-1.2839084.17587787-2.33917557.52543512-3.16140458.34735878-.82003054.8310229-1.46858015 1.45099236-1.94345038.61996947-.47487023 1.37404581-.80464122 2.26222906-.99810687.8881832-.18906871 1.8752977-.28580153 2.954748-.28580153z" fill="#fff" fill-rule="evenodd" transform="matrix(0 1 -1 0 240 27)"/></svg>