<svg width="40" height="40" viewBox="0 0 40 40" fill="none" xmlns="http://www.w3.org/2000/svg">
<rect width="40" height="40" fill="#FE6901"/>
<rect width="40" height="40" rx="4.5" fill="#FE6901"/>
<mask id="mask0_373_17449" style="mask-type:alpha" maskUnits="userSpaceOnUse" x="0" y="0" width="40" height="40">
<rect width="40" height="40" rx="4.5" fill="white"/>
</mask>
<g mask="url(#mask0_373_17449)">
<path fill-rule="evenodd" clip-rule="evenodd" d="M3.31713 24.6287V27.3437H2.68713V23.8037H3.52213L5.23713 26.4337H5.24713V23.8037H5.87713V27.3437H5.07713L3.32713 24.6287H3.31713ZM8.69102 26.7737V27.3437H6.55602V23.8037H7.18602V26.7737H8.69102Z" fill="white"/>
<path fill-rule="evenodd" clip-rule="evenodd" d="M25.2919 25.7267C25.2866 25.7026 25.2816 25.6785 25.276 25.6545C24.5791 25.4213 23.8882 25.5257 23.1629 25.6951C23.2757 26.0332 23.3782 26.3417 23.4979 26.7001C24.1247 26.3601 24.7082 26.0435 25.2919 25.7267ZM32.6426 25.9926C33.1269 26.0079 33.5347 26.1879 33.9388 26.3835C34.1135 26.4679 34.2938 26.5435 34.4769 26.6076C34.5229 26.6238 34.6351 26.5888 34.641 26.5613C34.6944 26.3079 34.7357 26.052 34.7685 25.7951C34.7744 25.752 34.7369 25.6763 34.6994 25.6588C34.136 25.4001 33.5501 25.2529 32.9244 25.3304C32.7451 25.3529 32.6444 25.4551 32.6429 25.642C32.6422 25.7513 32.6426 25.861 32.6426 25.9926ZM24.5282 14.3048C24.5663 14.3129 24.5963 14.3232 24.6272 14.3254C25.1507 14.3635 25.6741 14.3979 26.1969 14.4398C26.3672 14.4535 26.4997 14.406 26.6079 14.2717C26.8516 13.9673 27.1204 13.6804 27.3397 13.3595C27.4857 13.146 27.5704 12.8888 27.6701 12.6463C27.7588 12.4313 27.6219 12.261 27.3282 12.3263C26.9691 12.406 26.6057 12.497 26.2701 12.6432C25.6804 12.9004 25.1791 13.2948 24.7485 13.7751C24.6157 13.9232 24.5263 14.0907 24.5282 14.3048ZM31.6522 14.1535C31.8707 14.1682 32.0838 14.1785 32.2963 14.1976C32.9001 14.2526 33.4707 14.1942 33.9716 13.7988C34.296 13.5426 34.3082 13.3076 33.9601 13.0792C33.8041 12.9767 33.6347 12.8848 33.4588 12.8245C32.5244 12.5035 31.5529 12.3438 30.5816 12.1873C30.4869 12.172 30.386 12.1973 30.2204 12.2079C30.3691 12.4235 30.4526 12.6182 30.5979 12.737C30.801 12.9026 31.0422 13.0295 31.2829 13.1382C31.4472 13.2126 31.5297 13.3207 31.5569 13.4829C31.5929 13.6995 31.6191 13.9176 31.6522 14.1535ZM39.0257 10.6985C39.0138 10.6976 39.0016 10.6963 38.9897 10.6951C38.9897 10.5582 39.0019 10.4204 38.9876 10.2851C38.9404 9.84665 38.8629 9.41353 38.486 9.1204C37.8601 8.63322 37.1413 8.46353 36.3769 8.6354C35.4572 8.84165 35.1129 9.60009 34.8369 10.3923C34.7976 10.5054 34.8047 10.6354 34.7966 10.7582C34.7876 10.8917 34.8457 10.9654 34.9804 11.0138C35.2482 11.1107 35.5147 11.2179 35.7682 11.347C36.4757 11.7076 37.0447 12.2398 37.5563 12.8367C37.6479 12.9432 37.7347 12.9807 37.8735 12.961C38.3479 12.8945 38.7932 12.4885 38.8663 12.012C38.9326 11.5763 38.9735 11.1367 39.0257 10.6985ZM18.5826 10.6479C18.5747 11.071 18.6969 11.4148 18.8922 11.7507C19.2151 12.3063 19.6563 12.7498 20.1313 13.1688C20.3297 13.3438 20.4082 13.3485 20.6085 13.1701C20.6519 13.1313 20.6954 13.0901 20.7297 13.0438C21.0644 12.5917 21.4429 12.1851 21.906 11.8595C22.3154 11.5717 22.7069 11.2576 23.1235 10.9817C23.2469 10.8998 23.3154 10.826 23.2894 10.6938C23.1904 10.186 23.0297 9.7054 22.5472 9.42759C22.2382 9.24978 21.9241 9.0704 21.5913 8.94728C21.3369 8.85322 21.0366 8.77103 20.7801 8.81603C20.1772 8.92197 19.5985 9.13259 19.1244 9.54728C18.7838 9.84572 18.5494 10.2023 18.5826 10.6479ZM25.1832 18.0998C25.1922 18.1367 25.2141 18.186 25.2138 18.2354C25.2119 18.8363 25.2072 19.4373 25.2016 20.0382C25.2013 20.0832 25.1916 20.1285 25.1854 20.1735C25.1316 20.5735 24.9719 20.8632 24.5501 21.017C24.1901 21.1479 23.8379 21.3451 23.536 21.5817C23.0307 21.9785 22.7854 22.5232 22.8819 23.1788C22.9488 23.6313 23.2541 23.7604 23.6357 23.522C23.8394 23.3948 24.0344 23.2404 24.2554 23.1579C24.6104 23.0254 24.8172 22.7882 24.8854 22.4304C24.9379 22.1545 25.1004 21.9873 25.3357 21.8604C25.5585 21.7404 25.7804 21.6154 25.9866 21.4695C26.0716 21.4092 26.1572 21.2929 26.1685 21.1935C26.2132 20.8073 26.2141 20.4157 26.2572 20.0292C26.361 19.0935 26.4797 18.1601 26.5913 17.2254C26.6197 16.9876 26.6782 16.7473 26.6632 16.512C26.6388 16.1345 26.1466 15.7201 25.7394 15.7213C24.5876 15.7251 23.4357 15.7345 22.2841 15.7592C21.9716 15.7657 21.6601 15.8345 21.3116 15.8795C21.3879 16.0004 21.4372 16.0901 21.4969 16.172C21.9866 16.8392 22.6191 17.3663 23.2363 17.9035C23.4185 18.0623 23.7001 18.1692 23.9429 18.1832C24.3444 18.206 24.7513 18.1338 25.1832 18.0998ZM35.9263 22.517C35.8782 22.4785 35.8047 22.4076 35.7201 22.3548C35.4329 22.1763 35.1407 22.0063 34.8529 21.8292C34.6644 21.7132 34.4947 21.5476 34.2919 21.4804C34.0191 21.3901 33.861 21.2048 33.7122 20.9892C33.6088 20.8395 33.5251 20.6685 33.3954 20.5463C33.2288 20.3892 33.0413 20.2342 32.8335 20.1476C32.6501 20.071 32.5901 19.9851 32.5801 19.7957C32.5429 19.0885 32.4869 18.3826 32.4394 17.6757C32.4344 17.5988 32.4388 17.521 32.4388 17.4435C32.6694 17.7607 32.9494 17.9838 33.3191 18.0063C33.7035 18.0301 34.1004 18.0254 34.4772 17.9548C34.8944 17.8763 35.2235 17.6348 35.3491 17.1857C35.3941 17.0245 35.5022 16.907 35.6735 16.8485C36.1085 16.6995 36.3719 16.3279 36.6979 16.0379C36.7307 16.0085 36.7422 15.9548 36.7744 15.891C36.5616 15.8695 36.3766 15.8398 36.1907 15.8338C34.8969 15.7929 33.6032 15.7557 32.3088 15.7217C32.2079 15.7192 32.0863 15.7213 32.0079 15.7726C31.7441 15.946 31.4907 16.136 31.2432 16.3323C31.1219 16.4285 31.1072 16.5642 31.1429 16.7217C31.4322 18.0054 31.4938 19.3182 31.6135 20.6226C31.6363 20.8682 31.6951 21.0226 31.9182 21.1182C32.396 21.3232 32.7363 21.6638 32.9013 22.1626C33.0154 22.5088 33.2563 22.7013 33.5854 22.8448C34.1147 23.0757 34.6388 23.3285 35.071 23.7276C35.166 23.8148 35.2347 23.7623 35.2772 23.6879C35.4469 23.3907 35.606 23.0879 35.7701 22.7876C35.8141 22.707 35.8616 22.6285 35.9263 22.517ZM40.0957 30.3126C40.0597 30.3013 40.0197 30.2967 39.9879 30.2776C38.7191 29.5295 37.3688 28.9507 36.0197 28.3698C35.7879 28.2701 35.5576 28.166 35.3063 28.0551C35.1813 28.2279 35.0679 28.402 34.9369 28.5617C34.7688 28.767 34.5885 28.9623 34.4104 29.1592C34.306 29.2745 34.1844 29.2701 34.0579 29.196C33.9179 29.1138 33.7772 29.032 33.6372 28.9498C33.6204 28.9401 33.6041 28.9295 33.5888 28.9173C32.5794 28.1048 31.4344 27.5976 30.1547 27.3988C29.9985 27.3742 29.9338 27.2863 29.9035 27.146C29.8329 26.8173 29.7579 26.4901 29.686 26.162C29.601 25.7748 29.626 25.7257 29.9601 25.5438C30.5188 25.2401 30.8601 24.7895 30.9038 24.1382C30.9166 23.9498 30.9788 23.9104 31.1569 23.9717C31.3282 24.0304 31.4963 24.1042 31.6716 24.147C31.7516 24.1667 31.8601 24.1526 31.9313 24.1113C32.2051 23.9542 32.3635 23.5157 32.2788 23.2054C32.2566 23.1242 32.2491 23.0392 32.2329 22.9563C32.1857 22.7145 32.0691 22.546 31.8091 22.4817C31.2751 22.3492 30.7522 22.1567 30.2116 22.0657C28.9338 21.8504 27.6882 22.0117 26.4876 22.5032C26.2335 22.6073 26.1291 22.8279 26.1282 23.0795C26.1272 23.317 26.1544 23.5598 26.2094 23.7907C26.2957 24.1529 26.5138 24.262 26.8726 24.1335C27.0544 24.0685 27.2232 23.9663 27.3979 23.8813C27.4529 23.8545 27.5079 23.8282 27.6007 23.7835C27.6007 23.8857 27.6126 23.9501 27.5988 24.0085C27.4776 24.5217 27.7179 24.9054 28.0482 25.2507C28.1594 25.367 28.2957 25.4613 28.4288 25.5538C28.746 25.7742 28.8179 25.9598 28.7251 26.3429C28.6635 26.5982 28.6032 26.8542 28.5466 27.1113C28.4863 27.3848 28.341 27.5338 28.0701 27.5826C27.0744 27.7626 26.1322 28.1192 25.1897 28.4679C24.9307 28.5642 24.7007 28.7376 24.4551 28.8704C23.8516 29.1963 23.6447 29.146 23.2426 28.5967C23.1454 28.4632 23.0513 28.2751 22.9169 28.2317C22.5757 28.1207 22.2157 28.1213 21.8694 28.2654C20.0966 29.0026 18.3844 29.862 16.716 30.811C16.5972 30.8782 16.4754 30.942 16.3638 31.0195C16.2385 31.107 16.1541 31.066 16.1026 30.9454C16.0522 30.8276 16.0097 30.7038 15.9844 30.5782C15.9447 30.3817 15.9116 30.182 15.8991 29.982C15.8954 29.9223 15.9538 29.8317 16.0091 29.7988C16.7263 29.3767 17.4313 28.9292 18.1726 28.5535C19.3022 27.9807 20.4569 27.4579 21.6022 26.917C21.8322 26.8082 21.8957 26.737 21.8319 26.4979C21.6447 25.7954 21.7085 25.8054 20.9866 25.8513C19.1029 25.9713 17.3544 26.572 15.6626 27.3682C15.551 27.4207 15.436 27.4663 15.3222 27.5142C15.2929 27.5263 15.2613 27.5335 15.1894 27.5563C15.1472 27.3557 15.1032 27.1645 15.0669 26.9713C14.9516 26.3579 14.9472 26.3435 15.5141 26.0982C16.3426 25.7407 17.1657 25.3613 18.0188 25.0735C18.6213 24.8704 19.2663 24.781 19.8991 24.682C20.4872 24.5898 21.0841 24.552 21.6772 24.4901C21.5647 23.506 20.8807 22.892 20.3119 22.2104C20.1457 22.0107 19.9607 21.8251 19.7704 21.6479C19.1729 21.0917 18.9782 20.3379 18.7613 19.5979C18.6941 19.3692 18.8807 19.227 19.1272 19.3038C19.3251 19.3654 19.5144 19.4535 19.7085 19.527C19.7554 19.5445 19.8066 19.5507 19.886 19.5692C19.8766 19.4992 19.8716 19.4523 19.8635 19.406C19.7701 18.857 19.6772 18.3079 19.5807 17.7595C19.5447 17.5554 19.4857 17.3545 19.4601 17.1492C19.3676 16.407 19.4076 15.671 19.5863 14.9429C19.6741 14.5857 19.6538 14.5207 19.3251 14.3542C19.0194 14.1995 18.6982 14.0745 18.381 13.9429C18.1619 13.8523 17.9997 13.711 17.8832 13.5004C17.7097 13.1876 17.5207 12.8835 17.3326 12.5795C16.8122 11.7385 16.7647 10.8567 17.1026 9.94322C17.2669 9.49884 17.4394 9.05728 17.6154 8.61728C17.7363 8.31384 17.976 8.10947 18.2385 7.93603C18.5426 7.73603 18.8479 7.53384 19.171 7.36822C19.3491 7.27665 19.5647 7.2154 19.7638 7.21447C20.4454 7.21072 21.1297 7.21134 21.7857 7.44634C22.4647 7.68915 23.0901 8.03853 23.6782 8.4454C24.2485 8.83947 24.5951 9.41509 24.7872 10.0763C24.8329 10.2338 24.9032 10.2735 25.0572 10.2735C25.5316 10.2732 26.0138 10.2398 26.4785 10.311C27.3266 10.4413 28.1501 10.682 28.9307 11.0529C28.991 11.0817 29.1026 11.0801 29.1522 11.0426C29.8432 10.5157 30.6413 10.251 31.4813 10.1098C32.0557 10.0129 32.6391 9.97103 33.2404 9.90165C33.2791 9.65978 33.2988 9.37978 33.3713 9.11415C33.6407 8.12478 34.2201 7.40353 35.2407 7.13134C35.6835 7.01322 36.146 6.93728 36.6032 6.91322C37.4254 6.86978 38.1904 7.07478 38.7619 7.70603C39.2319 8.2254 39.6529 8.78915 40.0957 9.33322V13.8648C39.8316 14.2217 39.5091 14.522 39.1013 14.6901C38.7991 14.8148 38.631 14.9713 38.6947 15.311C38.7001 15.3417 38.6904 15.3757 38.6841 15.4076C38.4963 16.4004 38.3122 17.3942 38.1166 18.3857C38.0632 18.6563 37.9751 18.9201 37.8897 19.2348C38.1007 19.1104 38.2716 19.0067 38.4454 18.9082C38.6247 18.8067 38.8051 18.7032 39.0401 18.752C38.9151 19.5838 38.7466 20.376 38.1329 20.997C37.8844 21.2482 37.726 21.556 37.6119 21.8985C37.2844 22.8813 36.7901 23.752 35.8682 24.312C35.7932 24.3573 35.6951 24.4785 35.7107 24.5367C35.7463 24.6692 35.801 24.8092 36.0057 24.8132C36.7482 24.827 37.4838 24.9235 38.2001 25.1173C38.8382 25.2898 39.4644 25.5057 40.0957 25.7026V26.8745C39.2507 26.6507 38.4085 26.4176 37.5601 26.2073C37.0532 26.0817 36.5372 25.992 36.0066 25.882C36.0066 26.2923 36.0016 26.6882 36.0135 27.0838C36.0147 27.131 36.1032 27.1926 36.1632 27.2185C36.7172 27.4567 37.2872 27.661 37.826 27.9282C38.5941 28.3092 39.3404 28.7342 40.0957 29.1404V30.3126Z" fill="white"/>
<path fill-rule="evenodd" clip-rule="evenodd" d="M40.0956 5.27012C40.0628 5.29075 40.0262 5.30762 39.9978 5.33293C39.475 5.797 38.8834 5.85481 38.2503 5.617C37.9912 5.51981 37.735 5.40918 37.49 5.28043C36.7437 4.88856 35.9494 4.66512 35.1147 4.58075C34.7075 4.5395 34.3594 4.69856 34.0566 4.95075C33.7766 5.18356 33.4972 5.42168 33.25 5.68762C32.6437 6.3395 31.9225 6.73981 31.0359 6.88793C30.3525 7.002 29.6787 7.18762 29.0606 7.5245C29.0494 7.53044 29.0375 7.53606 29.0256 7.54106C28.6466 7.69825 28.5672 7.67544 28.5134 7.27481C28.4403 6.72856 28.4041 6.17668 28.3737 5.62637C28.3647 5.46012 28.3216 5.39012 28.1581 5.35387C27.6734 5.24543 27.1928 5.11981 26.6909 4.99606C26.6428 5.1395 26.5975 5.33731 26.5122 5.51606C26.2778 6.00731 26.0259 6.49012 25.7828 6.97731C25.7272 7.08887 25.6622 7.09294 25.5478 7.04762C23.9141 6.40012 22.4875 5.39356 21.0278 4.4445C20.8819 4.34918 20.7531 4.22637 20.6012 4.10418C20.4872 4.19637 20.3697 4.29637 20.2475 4.38981C19.2144 5.17606 18.085 5.81075 16.9728 6.47293C16.8456 6.54856 16.7331 6.66606 16.6447 6.78668C16.3131 7.237 15.995 7.69762 15.6703 8.15294C15.6137 8.23231 15.5619 8.30512 15.4334 8.25168C14.9359 8.04418 14.4337 7.84794 13.9337 7.64669C13.9106 7.63731 13.8909 7.61918 13.8494 7.59137C13.9025 7.48825 13.9456 7.38012 14.0094 7.28637C14.4759 6.59825 14.8144 5.82106 15.3884 5.2095C15.9716 4.58825 16.5881 3.99825 17.1919 3.39637C17.2272 3.36137 17.2784 3.3395 17.3256 3.3195C17.8931 3.07762 18.4644 2.84387 19.0287 2.59512C19.7066 2.29637 20.4219 2.14262 21.1466 2.02387C21.2131 2.01293 21.3128 2.03387 21.3559 2.07918C22.2559 3.01637 23.3241 3.73762 24.39 4.46262C24.4412 4.49762 24.4897 4.53731 24.5612 4.59168C24.8203 3.84387 25.0762 3.10418 25.3359 2.35543C25.7606 2.55543 26.1631 2.76543 26.5816 2.937C26.9959 3.107 27.4181 3.29106 27.8681 2.99887C28.1344 2.82606 28.4178 2.67825 28.7016 2.5345C28.8562 2.45606 29.0237 2.39731 29.1916 2.35137C29.6047 2.23825 30.0209 2.13731 30.4362 2.03356C30.4844 2.02137 30.5359 2.02325 30.6209 2.01543C30.6081 2.12793 30.6153 2.22762 30.5834 2.312C30.4687 2.61543 30.3303 2.91012 30.2222 3.21575C30.1606 3.38887 30.1156 3.57575 30.1069 3.75856C30.0891 4.12043 30.1019 4.48387 30.1019 4.87387C30.5487 4.84075 30.91 4.69325 31.1759 4.36137C31.5056 3.94981 31.6319 3.44762 31.7625 2.95106C31.8731 2.53168 31.9747 2.11012 32.0728 1.71856C32.52 1.75637 32.9434 1.78793 33.3653 1.83512C33.4044 1.8395 33.4631 1.947 33.4594 2.00262C33.4378 2.31356 33.3812 2.62262 33.3747 2.93325C33.3709 3.11075 33.3834 3.34325 33.4894 3.4545C33.6341 3.60606 33.8697 3.50637 34.0287 3.397C34.4031 3.1395 34.7637 2.86168 35.1234 2.58387C35.3137 2.43668 35.4966 2.27856 35.6716 2.11356C35.7731 2.01762 35.8597 2.01512 35.9847 2.06731C37.4297 2.67168 38.7809 3.44825 40.0956 4.29356V5.27012Z" fill="white"/>
<path fill-rule="evenodd" clip-rule="evenodd" d="M13.376 40.0403C13.1429 39.2937 12.8251 38.5844 12.4476 37.9006C12.407 37.8275 12.3682 37.7534 12.3273 37.6769C12.3551 37.6537 12.3723 37.6306 12.3951 37.6231C13.316 37.3119 14.2307 36.9794 15.1616 36.7016C15.5938 36.5725 15.5073 36.5512 15.7073 36.955C15.8563 37.2559 16.0291 37.545 16.2079 37.8691C16.1857 37.8928 16.1335 37.9472 16.0832 38.0028C15.577 38.5619 15.0741 39.1234 14.5635 39.6784C14.4413 39.8112 14.2935 39.9203 14.1573 40.0403H13.376Z" fill="white"/>
<path fill-rule="evenodd" clip-rule="evenodd" d="M32.5563 40.0403C32.4597 40.0053 32.366 39.9584 32.2663 39.9375C32.0707 39.8962 31.9763 39.7694 31.9604 39.5856C31.9326 39.2697 31.9254 38.9519 31.8982 38.6359C31.8569 38.1647 31.8051 37.6944 31.7585 37.2234C31.7391 37.0256 31.8235 36.8716 31.9669 36.7437C32.4347 36.3262 33.0066 36.1312 33.6207 35.9581C33.6297 36.0594 33.6426 36.1403 33.6429 36.2206C33.6444 36.8187 33.6688 37.4178 33.6369 38.0144C33.6035 38.6381 33.7785 39.2203 33.9076 39.8137C33.9241 39.89 33.9441 39.965 33.9626 40.0403H32.5563Z" fill="white"/>
<path fill-rule="evenodd" clip-rule="evenodd" d="M28.5328 40.0403C28.5234 39.6394 28.4959 39.2491 28.3934 38.85C28.2897 38.4466 28.2397 38.0141 28.3434 37.5794C28.4075 37.3116 28.5509 37.1441 28.7894 37.065C29.1509 36.9447 29.5209 36.8491 29.889 36.7503C30.0512 36.7066 30.2184 36.6806 30.4231 36.6381C30.465 36.8525 30.5169 37.0628 30.545 37.2763C30.5912 37.6225 30.6281 37.97 30.6578 38.3178C30.6875 38.6666 30.5878 38.9888 30.4 39.2781C30.2306 39.5388 30.0412 39.7866 29.8609 40.0403H28.5328Z" fill="white"/>
<path fill-rule="evenodd" clip-rule="evenodd" d="M25.5638 40.0403C25.3707 39.7869 25.1688 39.5394 24.986 39.2787C24.8063 39.0231 24.6741 38.7506 24.6329 38.4259C24.5972 38.1459 24.4794 37.8775 24.4119 37.6003C24.3497 37.3456 24.4541 37.2628 24.6757 37.1428C24.9963 36.9687 25.2644 37.0953 25.5563 37.1822C25.7725 37.2469 25.9957 37.2906 26.2182 37.3319C26.5835 37.3997 26.9004 37.6747 26.9307 38.0362C26.9863 38.7072 27.0113 39.3812 27.1657 40.0403H25.5638Z" fill="white"/>
<path fill-rule="evenodd" clip-rule="evenodd" d="M40.0957 36.9541C39.086 36.8203 38.5207 36.6059 38.2313 35.7072C38.1001 35.3003 37.986 34.8881 37.8663 34.4775C37.8504 34.4228 37.8498 34.3641 37.8329 34.2419C38.0507 34.2894 38.2401 34.3291 38.4282 34.3712C38.5204 34.3922 38.6098 34.4253 38.7026 34.4397C38.8044 34.4559 38.911 34.4469 39.0116 34.4666C39.2244 34.5087 39.3507 34.6134 39.4457 34.8409C39.6207 35.2631 39.8748 35.6525 40.0957 36.0553V36.9541Z" fill="white"/>
<path fill-rule="evenodd" clip-rule="evenodd" d="M32.643 33.2584C32.1514 32.8222 31.672 32.3965 31.1924 31.9712C31.1727 31.9818 31.1527 31.9922 31.133 32.0025C31.2755 32.535 31.0674 33.0215 30.9545 33.5187C30.9367 33.5975 30.8324 33.7028 30.7561 33.7137C30.4424 33.7597 30.1239 33.7768 29.807 33.7972C29.753 33.8006 29.6924 33.7756 29.6424 33.749C29.2395 33.5343 28.8949 33.2543 28.6549 32.8584C28.6361 32.8275 28.6114 32.8 28.592 32.7747C28.503 33.0237 28.4302 33.2715 28.3261 33.5053C28.1867 33.8172 27.9502 33.9956 27.587 33.9634C27.3677 33.9437 27.1458 33.9459 26.928 33.9156C26.6933 33.8828 26.5674 33.7422 26.5036 33.4997C26.3577 32.9456 26.322 32.3856 26.3355 31.8184C26.338 31.7081 26.3358 31.5984 26.3358 31.4125C26.1333 31.5565 25.9617 31.6553 25.8192 31.7856C25.6324 31.9562 25.463 32.1472 25.2964 32.3387C25.1877 32.4637 25.1027 32.4368 24.982 32.3506C24.6933 32.144 24.4967 31.8772 24.3889 31.5403C24.2642 31.1512 24.138 30.7628 24.0083 30.375C23.9705 30.2628 24.0042 30.1993 24.1017 30.1343C25.0417 29.5062 26.0733 29.1272 27.1911 28.97C28.1749 28.8315 29.162 28.8309 30.1492 28.9009C31.2567 28.9793 32.3358 29.1812 33.3361 29.705C33.5795 29.8325 33.6595 29.9756 33.6411 30.2512C33.6077 30.7643 33.5999 31.2768 33.4308 31.77C33.2686 32.2443 33.1014 32.7159 32.7752 33.109C32.7267 33.1681 32.6742 33.2234 32.643 33.2584Z" fill="white"/>
<path fill-rule="evenodd" clip-rule="evenodd" d="M11.9814 17.3566C11.9486 17.05 11.918 16.7432 11.8817 16.4369C11.812 15.8503 11.7433 15.2638 11.6642 14.6788C11.6489 14.5666 11.6648 14.5082 11.7633 14.4403C12.2611 14.0985 12.7523 13.7469 13.2405 13.3916C13.2845 13.3594 13.318 13.2703 13.3092 13.215C13.2233 12.6641 13.1133 12.1166 13.038 11.5644C12.9658 11.0357 12.9189 10.4957 13.0589 9.97534C13.1414 9.66878 13.2798 9.36034 13.4627 9.1019C13.7561 8.68753 14.223 8.62815 14.6911 8.67284C15.2258 8.72378 15.2314 8.73909 15.1455 9.27347C15.0317 9.97815 14.8783 10.6788 14.9055 11.3978C14.9139 11.6213 14.9427 11.8532 15.0155 12.0628C15.1433 12.4297 15.3117 12.7825 15.4639 13.141C15.5248 13.2844 15.597 13.4238 15.6477 13.5707C15.8173 14.0632 15.7102 14.4128 15.2317 14.6138C14.8308 14.7825 14.527 15.0547 14.2061 15.3213C13.7158 15.7288 13.212 16.1207 12.7311 16.5388C12.5277 16.716 12.3655 16.9416 12.1883 17.1485C12.1305 17.216 12.0852 17.2941 12.0342 17.3675C12.0167 17.3638 11.9992 17.3603 11.9814 17.3566Z" fill="white"/>
<path fill-rule="evenodd" clip-rule="evenodd" d="M15.7654 20.7579C15.7057 21.1404 15.6613 21.4857 15.5951 21.8264C15.5444 22.087 15.5294 22.3886 15.3832 22.587C15.2382 22.7836 14.9513 22.8782 14.7226 23.0104C13.7685 23.5623 12.9785 24.2951 12.2907 25.1523C11.8435 25.7104 11.3613 26.2407 10.8938 26.7832C10.8785 26.8007 10.856 26.8123 10.806 26.8489C10.7848 26.6132 10.766 26.4042 10.7473 26.1951C10.706 25.7292 10.7198 25.2495 10.6076 24.8011C10.4963 24.3557 10.4757 23.9182 10.4688 23.4701C10.4669 23.3461 10.5048 23.2729 10.611 23.202C11.2713 22.7623 11.9166 22.2992 12.586 21.8736C12.8729 21.6911 13.196 21.5529 13.5191 21.442C14.2001 21.2086 14.8919 21.0064 15.5798 20.7923C15.6157 20.7811 15.6541 20.7782 15.7654 20.7579Z" fill="white"/>
<path fill-rule="evenodd" clip-rule="evenodd" d="M11.9618 21.2667C11.9021 20.9642 11.8612 20.6567 11.779 20.3607C11.5699 19.6067 11.6471 18.856 11.7602 18.101C11.7984 17.8457 11.9274 17.6735 12.154 17.561C12.8506 17.2151 13.5781 16.967 14.3506 16.8598C14.6912 16.8126 15.0318 16.7617 15.374 16.7295C15.5334 16.7148 15.699 16.7248 15.8574 16.7507C16.0637 16.7848 16.1496 16.9551 16.1046 17.1607C16.0287 17.5079 15.9759 17.8607 15.884 18.2032C15.8549 18.3123 15.7462 18.4132 15.6509 18.4882C15.489 18.6151 15.3024 18.7104 15.1368 18.8332C14.3531 19.4142 13.5702 19.9967 12.7931 20.5863C12.5868 20.7432 12.3977 20.9242 12.2084 21.102C12.1481 21.1588 12.1127 21.242 12.0659 21.3132C12.0312 21.2976 11.9965 21.2823 11.9618 21.2667Z" fill="white"/>
<path fill-rule="evenodd" clip-rule="evenodd" d="M11.8749 33.6258C11.7096 33.178 11.5205 32.7827 11.4196 32.3661C11.2402 31.6233 11.1036 30.8717 11.0883 30.0999C11.0727 29.3077 11.0202 28.5161 10.9739 27.7249C10.9642 27.5608 11.0317 27.4846 11.1667 27.4127C11.7521 27.1017 12.3317 26.7805 12.9139 26.4633C12.9927 26.4205 13.0736 26.3827 13.2014 26.3183C13.1474 26.5708 13.1099 26.7774 13.0586 26.9802C12.8999 27.6092 12.8246 28.2524 12.8802 28.8933C12.9227 29.3805 13.0705 29.858 13.1674 30.3408C13.2324 30.6646 13.2939 30.9896 13.3483 31.3155C13.3592 31.3808 13.3452 31.4583 13.3189 31.5205C13.0408 32.1764 12.6821 32.7849 12.2102 33.3211C12.1102 33.4349 11.9855 33.5264 11.8749 33.6258Z" fill="white"/>
<path fill-rule="evenodd" clip-rule="evenodd" d="M35.1164 35.2646C35.5505 35.4259 35.938 35.5696 36.3255 35.7137C36.3986 35.7406 36.4692 35.7762 36.5439 35.7949C36.8758 35.8781 36.9661 35.9928 36.9599 36.3399C36.9586 36.4115 36.9464 36.4824 36.9445 36.554C36.9136 37.5584 37.2624 38.454 37.7367 39.3131C37.7708 39.3749 37.808 39.4353 37.8427 39.494C37.5417 39.7828 37.1802 39.7006 36.8311 39.6887C36.4233 39.6746 36.1552 39.4562 35.9308 39.1293C35.2786 38.1778 34.9236 37.144 35.0099 35.9806C35.0267 35.7524 35.0764 35.5265 35.1164 35.2646Z" fill="white"/>
<path fill-rule="evenodd" clip-rule="evenodd" d="M19.7817 37.3383C19.2926 37.0773 18.8354 36.8355 18.3801 36.5895C18.1913 36.488 18.007 36.3786 17.8201 36.2739C17.6648 36.1864 17.567 36.0633 17.5254 35.8839C17.3676 35.2002 17.2185 34.5152 17.2342 33.8083C17.242 33.4589 17.3423 33.1289 17.5404 32.8373C17.7207 32.572 17.8413 32.5423 18.1254 32.6792C18.417 32.8195 18.7182 32.9411 18.9163 33.2252C19.1282 33.5286 19.1226 33.8698 19.082 34.202C19.0279 34.6423 19.1179 35.0542 19.236 35.467C19.4107 36.0773 19.591 36.6858 19.7817 37.3383Z" fill="white"/>
<path fill-rule="evenodd" clip-rule="evenodd" d="M12.4997 36.8445C12.4741 36.5545 12.4556 36.3111 12.43 36.0686C12.3931 35.7139 12.3528 35.3592 12.3088 35.0051C12.3019 34.9498 12.2731 34.8951 12.2469 34.8442C12.1969 34.7454 12.1378 34.6517 12.0891 34.5529C11.9166 34.2036 11.936 34.0667 12.2841 33.8957C12.9125 33.5873 13.3266 33.0048 13.9238 32.6607C13.9569 32.642 13.9869 32.6176 14.0294 32.5879C14.3903 32.8992 14.6791 33.2582 14.8772 33.6911C15.0713 34.1151 15.0663 34.1045 14.7366 34.4254C14.21 34.937 13.6935 35.4595 13.1794 35.9842C13.101 36.0642 13.0453 36.1736 13.0016 36.2786C12.906 36.5107 12.7394 36.6723 12.4997 36.8445Z" fill="white"/>
<path fill-rule="evenodd" clip-rule="evenodd" d="M22.4205 38.5062C22.2924 38.2115 22.1546 37.9202 22.0389 37.6206C21.9339 37.3487 21.8861 37.0502 21.7533 36.794C21.5511 36.4043 21.3021 36.0384 21.0624 35.6687C20.9839 35.5471 20.9624 35.4552 21.0055 35.3012C21.1143 34.909 21.1777 34.5037 21.2514 34.1024C21.2911 33.8859 21.3521 33.8521 21.5677 33.9274C22.2602 34.1684 22.6639 34.6749 22.9208 35.339C23.2693 36.2396 23.2252 37.1012 22.7349 37.9399C22.6349 38.1106 22.5693 38.3021 22.4874 38.484C22.4652 38.4912 22.4427 38.499 22.4205 38.5062Z" fill="white"/>
</g>
</svg>
