<svg xmlns="http://www.w3.org/2000/svg" width="51" height="32"><g fill="none" fill-rule="evenodd"><path fill="#FFF" stroke="#D0D0D0" d="M.5.5h50v31H.5z"/><g fill-rule="nonzero"><path fill="#2C3341" d="M15.467 7.8h21.066c.51 0 .695.053.882.153.186.1.332.246.432.433.1.186.153.371.153.882v13.436c0 .51-.053.696-.153.882a1.04 1.04 0 01-.432.433c-.187.1-.372.153-.882.153H15.467c-.51 0-.695-.053-.882-.153a1.04 1.04 0 01-.432-.433c-.1-.186-.153-.371-.153-.882V9.268c0-.51.053-.696.153-.882.1-.187.246-.333.432-.433.187-.1.372-.153.882-.153z"/><g fill="#FFF"><path d="M24.004 21.196c-.183 0-.331-.167-.331-.372 0-.206.148-.373.331-.373h9.942c.183 0 .332.167.332.373 0 .205-.149.372-.332.372h-9.942zm1.716-1.967a.658.658 0 01-.652.664.658.658 0 01-.65-.664v-3.322c0-.367.29-.665.65-.665.36 0 .652.298.652.665v3.322zm2.604 0a.658.658 0 01-.651.664.658.658 0 01-.651-.664v-3.322c0-.367.291-.665.651-.665.36 0 .651.298.651.665v3.322zm2.605 0a.658.658 0 01-.651.664.658.658 0 01-.652-.664v-3.322c0-.367.292-.665.652-.665.36 0 .65.298.65.665v3.322zm2.604 0a.658.658 0 01-.65.664.658.658 0 01-.652-.664v-3.322c0-.367.292-.665.651-.665.36 0 .651.298.651.665v3.322zm-9.528-4.545c-.328 0-.457-.427-.184-.61l4.74-3.171a.743.743 0 01.828 0l4.74 3.172c.273.182.145.609-.183.609h-9.941zM19.953 17.102l-.001.743 1.861.001a.372.372 0 010 .744h-1.861v.744c0 .307-.35.482-.595.298l-1.488-1.116a.372.372 0 010-.596l1.488-1.116a.372.372 0 01.596.298zM19.952 14.125l.001.743-1.861.001a.372.372 0 000 .745h1.861v.744c0 .306.35.481.595.297l1.488-1.116a.372.372 0 000-.595l-1.488-1.117a.372.372 0 00-.596.298z"/></g></g></g></svg>