<svg xmlns="http://www.w3.org/2000/svg" width="51" height="32" fill="none" viewBox="0 0 51 32"><clipPath id="a"><path d="M0 0h51v32H0z"/></clipPath><g clip-path="url(#a)"><path fill="#fff" fill-rule="evenodd" stroke="#d0d0d0" d="M.5.5h50v31H.5z" clip-rule="evenodd"/><path fill="#000" d="M25.459 5.111a1.37 1.37 0 0 1 1.083 0l9.625 4.125c.601.259.936.903.803 1.539-.129.64-.692 1.061-1.383 1.1v.344c0 .571-.422 1.031-1.032 1.031H17.368c-.531 0-1.031-.46-1.031-1.031v-.344c-.614-.039-1.177-.46-1.309-1.1a1.376 1.376 0 0 1 .805-1.539zM26 10.5a1.374 1.374 0 1 0 .001-2.751 1.374 1.374 0 0 0 0 2.751m-5.539 12.375h1.72v-8.25h2.75v8.25h2.1v-8.25h2.75v8.25h1.72v-8.25h2.75v8.435c.025.013.05-.009.077.047l2.062 1.375A1.374 1.374 0 0 1 35.625 27H16.337c-.568 0-1.102-.395-1.278-.975s.05-1.208.554-1.543l2.062-1.375c.025-.056.05-.034.037-.047v-8.435h2.75z"/></g></svg>