<svg xmlns="http://www.w3.org/2000/svg" width="640" height="360"><g fill="none" fill-rule="nonzero"><path fill="#2C3341" d="M109.336 16h421.328c10.201 0 13.9 1.063 17.63 3.058 3.728 1.996 6.655 4.925 8.65 8.656 1.994 3.732 3.056 7.433 3.056 17.64v268.734c0 10.207-1.062 13.908-3.056 17.64-1.995 3.731-4.922 6.66-8.65 8.655-3.73 1.996-7.429 3.059-17.63 3.059H109.336c-10.201 0-13.9-1.063-17.63-3.059-3.728-1.995-6.655-4.924-8.65-8.655-1.994-3.732-3.056-7.433-3.056-17.64V45.354c0-10.207 1.062-13.908 3.056-17.64 1.995-3.731 4.922-6.66 8.65-8.656 3.73-1.995 7.429-3.058 17.63-3.058z"/><g fill="#FFF"><path d="M280.117 283.907c-3.66 0-6.628-3.332-6.628-7.442s2.967-7.442 6.628-7.442h198.837c3.66 0 6.628 3.332 6.628 7.442s-2.967 7.442-6.628 7.442H280.117zm34.302-39.335c0 7.339-5.83 13.289-13.023 13.289s-13.023-5.95-13.023-13.29v-66.445c0-7.339 5.83-13.289 13.023-13.289s13.023 5.95 13.023 13.29v66.445zm52.093 0c0 7.339-5.83 13.289-13.023 13.289s-13.023-5.95-13.023-13.29v-66.445c0-7.339 5.83-13.289 13.023-13.289s13.023 5.95 13.023 13.29v66.445zm52.093 0c0 7.339-5.83 13.289-13.023 13.289s-13.023-5.95-13.023-13.29v-66.445c0-7.339 5.83-13.289 13.023-13.289s13.023 5.95 13.023 13.29v66.445zm52.093 0c0 7.339-5.83 13.289-13.023 13.289-7.192 0-13.023-5.95-13.023-13.29v-66.445c0-7.339 5.83-13.289 13.023-13.289s13.023 5.95 13.023 13.29v66.445zm-190.57-90.897c-6.557 0-9.131-8.536-3.676-12.186l94.812-63.44a14.866 14.866 0 0116.543 0l94.812 63.44c5.455 3.65 2.88 12.186-3.676 12.186H280.128zM199.07 202.047v14.883h37.21a7.442 7.442 0 010 14.884h-37.21v14.884c0 6.132-7 9.633-11.907 5.953l-29.767-22.325c-3.97-2.977-3.97-8.93 0-11.907l29.767-22.326c4.906-3.68 11.907-.179 11.907 5.954zM199.07 142.512v14.883h-37.21a7.442 7.442 0 100 14.884h37.21v14.884c0 6.132 7 9.633 11.907 5.953l29.767-22.325c3.97-2.977 3.97-8.93 0-11.907l-29.767-22.326c-4.906-3.68-11.907-.179-11.907 5.954z"/></g></g></svg>