<?xml version="1.0" encoding="UTF-8" standalone="no"?>
<svg
   width="640"
   height="360"
   viewBox="0 0 640 360"
   fill="none"
   version="1.1"
   id="svg2454"
   sodipodi:docname="provider-pay-640x360.svg"
   inkscape:version="1.2.1 (9c6d41e4, 2022-07-14)"
   xmlns:inkscape="http://www.inkscape.org/namespaces/inkscape"
   xmlns:sodipodi="http://sodipodi.sourceforge.net/DTD/sodipodi-0.dtd"
   xmlns="http://www.w3.org/2000/svg"
   xmlns:svg="http://www.w3.org/2000/svg">
  <defs
     id="defs2458" />
  <sodipodi:namedview
     id="namedview2456"
     pagecolor="#ffffff"
     bordercolor="#666666"
     borderopacity="1.0"
     inkscape:showpageshadow="2"
     inkscape:pageopacity="0.0"
     inkscape:pagecheckerboard="true"
     inkscape:deskcolor="#d1d1d1"
     showgrid="false"
     inkscape:zoom="0.65555556"
     inkscape:cx="291.35593"
     inkscape:cy="183.81356"
     inkscape:window-width="1320"
     inkscape:window-height="775"
     inkscape:window-x="3075"
     inkscape:window-y="640"
     inkscape:window-maximized="0"
     inkscape:current-layer="svg2454" />
  <path
     d="M480.151 324H93V102.783C93 65.9578 122.855 36 159.549 36H480.151C516.85 36 546.704 65.9578 546.704 102.783V257.216C546.704 294.042 516.85 324 480.151 324Z"
     fill="#585FFF"
     id="path2444" />
  <path
     d="M331.593 140.593C324.16 136.158 315.689 133.778 307.042 133.696C298.395 133.612 289.881 135.829 282.364 140.12C274.848 144.41 268.598 150.622 264.251 158.123C259.902 165.623 257.612 174.146 257.612 182.823C257.612 191.5 259.902 200.023 264.251 207.524C268.598 215.025 274.848 221.236 282.364 225.527C289.881 229.818 298.395 232.034 307.042 231.951C315.689 231.867 324.16 229.488 331.593 225.053V231.359H355.561V134.175H331.593V140.593ZM306.568 207.906C301.625 207.9 296.796 206.425 292.689 203.665C288.582 200.906 285.382 196.987 283.494 192.403C281.607 187.819 281.116 182.776 282.084 177.913C283.051 173.048 285.434 168.582 288.931 165.077C292.428 161.571 296.882 159.185 301.73 158.22C306.578 157.254 311.603 157.753 316.168 159.652C320.735 161.551 324.637 164.766 327.382 168.89C330.128 173.015 331.593 177.863 331.593 182.823C331.586 189.478 328.946 195.858 324.253 200.561C319.562 205.265 313.2 207.906 306.568 207.906Z"
     fill="white"
     id="path2446" />
  <path
     d="M206.352 102.39H159.008V231.357H182.977V192.295H206.845C212.748 192.289 218.593 191.113 224.043 188.835C229.493 186.557 234.441 183.222 238.603 179.021C242.765 174.82 246.06 169.835 248.299 164.353C250.537 158.871 251.675 153 251.646 147.076C251.507 122.255 231.075 102.39 206.352 102.39ZM206.495 168.256H182.977V126.416H206.845C209.614 126.421 212.354 126.977 214.907 128.054C217.459 129.132 219.773 130.708 221.712 132.693C223.651 134.676 225.177 137.027 226.202 139.609C227.226 142.19 227.728 144.951 227.678 147.729C227.46 159.177 217.903 168.237 206.495 168.237V168.256Z"
     fill="white"
     id="path2448" />
  <path
     d="M483.405 232.184C491.482 232.184 498.03 225.614 498.03 217.508C498.03 209.403 491.482 202.833 483.405 202.833C475.327 202.833 468.779 209.403 468.779 217.508C468.779 225.614 475.327 232.184 483.405 232.184Z"
     fill="white"
     id="path2450" />
  <path
     d="M449.169 133.834L421.038 206.847L392.062 134.177H365.846L404.59 231.361H411.585L411.458 231.695C409.634 236.368 406.454 240.383 402.329 243.221C398.204 246.057 393.325 247.586 388.324 247.607H385.496V271.657H388.721C398.555 271.615 408.149 268.61 416.26 263.031C424.37 257.452 430.624 249.557 434.21 240.369L475.254 133.834H449.169Z"
     fill="white"
     id="path2452" />
</svg>
