<svg height="360" viewBox="0 0 640 360" width="640" xmlns="http://www.w3.org/2000/svg" xmlns:xlink="http://www.w3.org/1999/xlink"><linearGradient id="a" x1="14.702%" x2="71.203%" y1="-.589%" y2="110.82%"><stop offset="0" stop-color="#003972"/><stop offset="1" stop-color="#003163"/></linearGradient><linearGradient id="b"><stop offset="0" stop-color="#a9cf84"/><stop offset="1" stop-color="#23ac70"/></linearGradient><linearGradient id="c" x1="-82.955%" x2="415.405%" xlink:href="#b" y1=".488%" y2="186.186%"/><linearGradient id="d" x1="-54.705%" x2="167.428%" xlink:href="#b" y1="-21.628%" y2="104.779%"/><linearGradient id="e" x1="29.892%" x2="254.395%" xlink:href="#b" y1="43.825%" y2="170.176%"/><g fill="none" fill-rule="evenodd" transform="translate(170 30)"><path d="m.38793103 146.547414h-.04525862v153.381465h153.38146559v-.045258c81.109914-1.887931 146.275862-68.217673 146.275862-149.780173 0-82.7456894-67.079741-149.83189628-149.831897-149.83189628-81.556034 0-147.89224093 65.17241378-149.78017197 146.27586228" fill="url(#a)"/><path d="m139.299569 115.959052c-8.424569 0-15.659483 2.980603-21.724138 8.935345-6.05819 5.961206-9.084052 13.144396-9.084052 21.575431 0 8.418103 3.019397 15.575431 9.084052 21.484913 6.064655 5.909483 13.299569 8.864225 21.724138 8.864225h30.885776v-30.349138c0-8.424569-3.045259-15.607759-9.135776-21.575431-6.077586-5.954742-13.331897-8.935345-21.75-8.935345zm17.954741 48.756465h-17.993534c-5.023707 0-9.284483-1.784483-12.769397-5.372845-3.478448-3.575431-5.224138-7.868534-5.224138-12.885775 0-5.023707 1.74569-9.342673 5.224138-12.969828 3.478449-3.627155 7.74569-5.443966 12.769397-5.443966 5.036638 0 9.290948 1.816811 12.769396 5.443966 3.478449 3.627155 5.224138 7.946121 5.224138 12.969828z" fill="url(#c)" fill-rule="nonzero"/><path d="m230.411638 121.318966c-2.450431 2.443965-3.665948 5.359913-3.665948 8.767241v34.971983h-16.868535c-4.894396 0-9.045258-1.739224-12.452586-5.217673-3.407328-3.471983-5.114224-7.642241-5.114224-12.523707v-17.230603c0-3.407328-1.221983-6.323276-3.659483-8.767241-2.443965-2.4375-5.366379-3.659483-8.760776-3.659483v29.650862c0 8.178879 2.935345 15.142241 8.8125 20.883621 5.877155 5.741379 12.9375 8.618534 21.174569 8.618534h16.849138l.019397 17.721983c0 3.407327 1.221982 6.323276 3.659482 8.767241 2.443966 2.4375 5.36638 3.659483 8.760776 3.659483v-89.301724c-3.400862 0-6.323276 1.221983-8.75431 3.659483z" fill="url(#d)"/><path d="m91.1508621 124.894397c-6.0840518-5.954742-13.3383621-8.941811-21.7564655-8.941811-8.4181035 0-15.6530173 2.987069-21.7112069 8.941811-6.0646552 5.961206-9.0905173 13.144396-9.0905173 21.575431v61.396551c3.4978448 0 6.4978448-1.25431 9.012931-3.762931 2.5086207-2.515086 3.7629311-5.515086 3.7629311-9.019396l.0193965-18.265086h18.0064656c8.4698275 0 15.7370689-2.954742 21.7887931-8.864225 6.0646551-5.909482 9.0969823-13.06681 9.0969823-21.484913 0-8.431035-3.0387927-15.614225-9.1293099-21.575431zm-9.0193966 34.448275c-3.4719827 3.588362-7.7198276 5.372845-12.7435345 5.372845h-17.9418103v-18.252155c0-5.030172 1.7392241-9.349138 5.2047414-12.969828 3.4719827-3.627155 7.7262931-5.443965 12.7370689-5.443965 5.0237069 0 9.2650862 1.81681 12.7435345 5.443965 3.4784483 3.627156 5.2112249 7.946121 5.2112249 12.969828.0064475 5.023707-1.7263111 9.310345-5.2112249 12.87931z" fill="url(#e)" fill-rule="nonzero"/><g fill="#fff"><path d="m155.75431 289.868534h-145.3512928v-145.351293h.1099138c.6918104-17.702586 4.661638-34.842672 11.8060345-50.967672 7.2090517-16.2737069 17.3405173-30.8599138 30.1163793-43.3577587 12.7887931-12.5107758 27.6077586-22.325431 44.049569-29.1724137 17.0237072-7.0862069 35.0883622-10.6810345 53.6831892-10.6810345 18.86638 0 37.170259 3.6982758 54.400863 10.9849138 16.642241 7.0409482 31.590517 17.1142241 44.424568 29.9547413 12.834052 12.8340518 22.913794 27.7823276 29.954742 44.424569 7.286638 17.2306038 10.984914 35.5344828 10.984914 54.4008618 0 18.594828-3.594828 36.659483-10.681035 53.68319-6.846983 16.44181-16.661638 31.260776-29.172414 44.049569-12.497844 12.775862-27.084051 22.907327-43.357758 30.116379-16.131466 7.144397-33.265086 11.114224-50.967673 11.806035zm-140.6961203-4.655172h136.5711203l1.74569-.038793c17.896552-.413793 35.211207-4.280172 51.465517-11.476293 15.730604-6.969828 29.831897-16.765086 41.915949-29.114224 12.096982-12.362069 21.581896-26.689655 28.202586-42.588362 6.853448-16.454742 10.325431-33.911638 10.325431-51.892242 0-18.239224-3.568966-35.935345-10.61638-52.590517-6.808189-16.0862069-16.545258-30.5366379-28.959051-42.950431-12.407328-12.4073276-26.857759-22.1508621-42.950431-28.9590517-16.655173-7.0474138-34.351293-10.6163793-52.590518-10.6163793-17.980603 0-35.4375 3.4719827-51.8922409 10.325431-15.8922414 6.6142241-30.2198276 16.1056034-42.5883621 28.2025862-12.3491379 12.0840517-22.1443966 26.1853448-29.1142241 41.9159483-7.2025862 16.2543105-11.0625 33.5689655-11.4762931 51.4655175l-.0387931 1.745689z" fill-rule="nonzero"/><circle cx="255.31" cy="171.388" r="7.448"/></g></g></svg>