<svg height="360" viewBox="0 0 640 360" width="640" xmlns="http://www.w3.org/2000/svg"><g fill="#fff" fill-rule="evenodd" transform="translate(170 30)"><path d="m320.16797 30.271484c-81.55604 0-147.89137 65.171927-149.7793 146.275396h-.04687v153.38281h153.38281v-.04688c81.10991-1.88793 146.27539-68.21679 146.27539-149.77929 0-82.745706-67.07988-149.832036-149.83203-149.832036zm0 10.066407c18.86638 0 37.16978 3.69969 54.40039 10.986328 16.64224 7.040948 31.59173 17.112608 44.42578 29.953125 12.83406 12.834052 22.91413 27.783536 29.95508 44.425776 7.28663 17.23061 10.98437 35.53402 10.98437 54.4004 0 18.59483-3.59543 36.65988-10.68164 53.68359-6.84698 16.44181-16.66109 31.26003-29.17187 44.04883-12.49784 12.77586-27.08371 22.90813-43.35742 30.11718-16.13146 7.14439-33.26616 11.11288-50.96875 11.80469v.11133h-145.35157v-145.35156h.11133c.69181-17.70258 4.66029-34.84375 11.80469-50.96875 7.20905-16.27371 17.34132-30.859579 30.11719-43.357424 12.78879-12.510775 27.60701-22.324893 44.04883-29.171875 17.0237-7.086207 35.08877-10.68164 53.68359-10.68164zm0 4.648437c-17.9806 0-35.43784 3.472724-51.89258 10.326172-15.89224 6.614224-30.21936 16.106142-42.58789 28.203125-12.34914 12.084052-22.14345 26.185415-29.11328 41.916015-7.20259 16.25432-11.06277 33.56829-11.47656 51.46484l-.03907 1.7461v136.57031h136.57032l1.74609-.03906c17.89655-.41379 35.21053-4.27849 51.46484-11.47461 15.7306-6.96983 29.83196-16.7661 41.91602-29.11524 12.09698-12.36207 21.58243-26.68918 28.20312-42.58789 6.85345-16.45474 10.32618-33.91197 10.32618-51.89257 0-18.23923-3.56977-35.93468-10.61719-52.58985-6.80819-16.0862-16.5452-30.537377-28.95899-42.95117-12.40733-12.407328-26.8585-22.150794-42.95117-28.958984-16.65517-7.047413-34.35061-10.617188-52.58984-10.617188zm-80.77344 100.966792c8.4181 0 15.67181 2.98667 21.75586 8.94141 6.09052 5.96121 9.12891 13.14514 9.12891 21.57617 0 8.41811-3.03105 15.5749-9.09571 21.48438-6.05172 5.90948-13.31923 8.86328-21.78906 8.86328h-18.00586l-.01953 18.26562c0 3.50431-1.25505 6.50445-3.76367 9.01954-2.51509 2.50862-5.51583 3.76367-9.01367 3.76367v-61.39649c0-8.43103 3.02714-15.61496 9.09179-21.57617 6.05819-5.95474 13.29284-8.94141 21.71094-8.94141zm69.9043.00586c8.4181 0 15.67241 2.98081 21.75 8.93555 6.09052 5.96767 9.13672 13.1516 9.13672 21.57617v30.34766h-30.88672c-8.42457 0-15.658-2.9538-21.72266-8.86328-6.06465-5.90948-9.08398-13.06627-9.08398-21.48438 0-8.43103 3.02579-15.61496 9.08398-21.57617 6.06466-5.95474 13.29809-8.93555 21.72266-8.93555zm40.59179 1.70118c3.3944 0 6.31581 1.2207 8.75977 3.6582 2.4375 2.44396 3.66016 5.36025 3.66016 8.76758v17.23047c0 4.88146 1.70595 9.05145 5.11328 12.52343 3.40733 3.47845 7.55873 5.21875 12.45312 5.21875h16.86914v-34.97265c0-3.40733 1.21559-6.32362 3.66602-8.76758 2.43103-2.4375 5.35304-3.6582 8.75391-3.6582v89.30078c-3.3944 0-6.31776-1.22266-8.76172-3.66016-2.4375-2.44396-3.65821-5.3583-3.65821-8.76562l-.01953-17.72266h-16.84961c-8.23707 0-15.29666-2.87776-21.17383-8.61914-5.87715-5.74138-8.8125-12.70393-8.8125-20.88281zm-40.6289 10.38281c-5.02371 0-9.29108 1.8162-12.76953 5.44336-3.47845 3.62715-5.22461 7.94699-5.22461 12.9707 0 5.01724 1.74616 9.30934 5.22461 12.88477 3.48491 3.58836 7.74582 5.37304 12.76953 5.37304h17.99219v-18.25781c0-5.02371-1.74616-9.34355-5.22461-12.9707-3.47845-3.62716-7.73094-5.44336-12.76758-5.44336zm-69.87305.00586c-5.01077 0-9.2663 1.81816-12.73828 5.44531-3.46552 3.62069-5.20508 7.93858-5.20508 12.96875v18.25195h17.94336c5.02371 0 9.27021-1.78468 12.74219-5.37304 3.48491-3.56897 5.21738-7.8552 5.21094-12.87891 0-5.02371-1.73249-9.34159-5.21094-12.96875-3.47845-3.62715-7.71848-5.44531-12.74219-5.44531z" transform="translate(-170 -30)"/><circle cx="255.31" cy="171.388" r="7.448"/></g></svg>