<?xml version="1.0" encoding="UTF-8" standalone="no"?>
<svg
   height="360"
   viewBox="0 0 640 360"
   width="640"
   version="1.1"
   id="svg1271"
   sodipodi:docname="provider-pay-white-640x360.svg"
   inkscape:version="1.1.2 (b8e25be8, 2022-02-05)"
   xmlns:inkscape="http://www.inkscape.org/namespaces/inkscape"
   xmlns:sodipodi="http://sodipodi.sourceforge.net/DTD/sodipodi-0.dtd"
   xmlns:xlink="http://www.w3.org/1999/xlink"
   xmlns="http://www.w3.org/2000/svg"
   xmlns:svg="http://www.w3.org/2000/svg">
  <defs
     id="defs1275" />
  <sodipodi:namedview
     id="namedview1273"
     pagecolor="#ffffff"
     bordercolor="#666666"
     borderopacity="1.0"
     inkscape:pageshadow="2"
     inkscape:pageopacity="0.0"
     inkscape:pagecheckerboard="0"
     showgrid="false"
     inkscape:zoom="1.9203125"
     inkscape:cx="382.48983"
     inkscape:cy="205.95606"
     inkscape:window-width="1716"
     inkscape:window-height="991"
     inkscape:window-x="2888"
     inkscape:window-y="454"
     inkscape:window-maximized="0"
     inkscape:current-layer="g1269" />
  <linearGradient
     id="a"
     x1="44.398292"
     x2="213.7077"
     y1="-1.4934298"
     y2="332.35179"
     gradientUnits="userSpaceOnUse"
     gradientTransform="translate(170,30)">
    <stop
       offset="0"
       stop-color="#003972"
       id="stop1242" />
    <stop
       offset="1"
       stop-color="#003163"
       id="stop1244" />
  </linearGradient>
  <linearGradient
     id="b">
    <stop
       offset="0"
       stop-color="#a9cf84"
       id="stop1247" />
    <stop
       offset="1"
       stop-color="#23ac70"
       id="stop1249" />
  </linearGradient>
  <linearGradient
     id="c"
     x1="-82.955%"
     x2="415.405%"
     xlink:href="#b"
     y1=".488%"
     y2="186.186%" />
  <linearGradient
     id="d"
     x1="-54.705%"
     x2="167.428%"
     xlink:href="#b"
     y1="-21.628%"
     y2="104.779%" />
  <linearGradient
     id="e"
     x1="29.892%"
     x2="254.395%"
     xlink:href="#b"
     y1="43.825%"
     y2="170.176%" />
  <g
     fill="none"
     fill-rule="evenodd"
     transform="translate(170 30)"
     id="g1269">
    <path
       id="path1255"
       style="fill:#ffffff"
       d="M 320.16797 30.271484 C 238.61193 30.271484 172.2766 95.443411 170.38867 176.54688 L 170.3418 176.54688 L 170.3418 329.92969 L 323.72461 329.92969 L 323.72461 329.88281 C 404.83452 327.99488 470 261.66602 470 180.10352 C 470 97.357814 402.92012 30.271484 320.16797 30.271484 z M 320.16797 40.337891 C 339.03435 40.337891 357.33775 44.037581 374.56836 51.324219 C 391.2106 58.365167 406.16009 68.436827 418.99414 81.277344 C 431.8282 94.111396 441.90827 109.06088 448.94922 125.70312 C 456.23585 142.93373 459.93359 161.23714 459.93359 180.10352 C 459.93359 198.69835 456.33816 216.7634 449.25195 233.78711 C 442.40497 250.22892 432.59086 265.04714 420.08008 277.83594 C 407.58224 290.6118 392.99637 300.74407 376.72266 307.95312 C 360.5912 315.09751 343.4565 319.066 325.75391 319.75781 L 325.75391 319.86914 L 180.40234 319.86914 L 180.40234 174.51758 L 180.51367 174.51758 C 181.20548 156.815 185.17396 139.67383 192.31836 123.54883 C 199.52741 107.27512 209.65968 92.689251 222.43555 80.191406 C 235.22434 67.680631 250.04256 57.866513 266.48438 51.019531 C 283.50808 43.933324 301.57315 40.337891 320.16797 40.337891 z M 320.16797 44.986328 C 302.18737 44.986328 284.73013 48.459052 268.27539 55.3125 C 252.38315 61.926724 238.05603 71.418642 225.6875 83.515625 C 213.33836 95.599677 203.54405 109.70104 196.57422 125.43164 C 189.37163 141.68596 185.51145 158.99993 185.09766 176.89648 L 185.05859 178.64258 L 185.05859 315.21289 L 321.62891 315.21289 L 323.375 315.17383 C 341.27155 314.76004 358.58553 310.89534 374.83984 303.69922 C 390.57044 296.72939 404.6718 286.93312 416.75586 274.58398 C 428.85284 262.22191 438.33829 247.8948 444.95898 231.99609 C 451.81243 215.54135 455.28516 198.08412 455.28516 180.10352 C 455.28516 161.86429 451.71539 144.16884 444.66797 127.51367 C 437.85978 111.42747 428.12277 96.976293 415.70898 84.5625 C 403.30165 72.155172 388.85048 62.411706 372.75781 55.603516 C 356.10264 48.556103 338.4072 44.986328 320.16797 44.986328 z M 239.39453 145.95312 C 247.81263 145.95312 255.06634 148.93979 261.15039 154.89453 C 267.24091 160.85574 270.2793 168.03967 270.2793 176.4707 C 270.2793 184.88881 267.24825 192.0456 261.18359 197.95508 C 255.13187 203.86456 247.86436 206.81836 239.39453 206.81836 L 221.38867 206.81836 L 221.36914 225.08398 C 221.36914 228.58829 220.11409 231.58843 217.60547 234.10352 C 215.09038 236.61214 212.08964 237.86719 208.5918 237.86719 L 208.5918 176.4707 C 208.5918 168.03967 211.61894 160.85574 217.68359 154.89453 C 223.74178 148.93979 230.97643 145.95312 239.39453 145.95312 z M 309.29883 145.95898 C 317.71693 145.95898 324.97124 148.93979 331.04883 154.89453 C 337.13935 160.8622 340.18555 168.04613 340.18555 176.4707 L 340.18555 206.81836 L 309.29883 206.81836 C 300.87426 206.81836 293.64083 203.86456 287.57617 197.95508 C 281.51152 192.0456 278.49219 184.88881 278.49219 176.4707 C 278.49219 168.03967 281.51798 160.85574 287.57617 154.89453 C 293.64083 148.93979 300.87426 145.95898 309.29883 145.95898 z M 349.89062 147.66016 C 353.28502 147.66016 356.20643 148.88086 358.65039 151.31836 C 361.08789 153.76232 362.31055 156.67861 362.31055 160.08594 L 362.31055 177.31641 C 362.31055 182.19787 364.0165 186.36786 367.42383 189.83984 C 370.83116 193.31829 374.98256 195.05859 379.87695 195.05859 L 396.74609 195.05859 L 396.74609 160.08594 C 396.74609 156.67861 397.96168 153.76232 400.41211 151.31836 C 402.84314 148.88086 405.76515 147.66016 409.16602 147.66016 L 409.16602 236.96094 C 405.77162 236.96094 402.84826 235.73828 400.4043 233.30078 C 397.9668 230.85682 396.74609 227.94248 396.74609 224.53516 L 396.72656 206.8125 L 379.87695 206.8125 C 371.63988 206.8125 364.58029 203.93474 358.70312 198.19336 C 352.82597 192.45198 349.89062 185.48943 349.89062 177.31055 L 349.89062 147.66016 z M 309.26172 158.04297 C 304.23801 158.04297 299.97064 159.85917 296.49219 163.48633 C 293.01374 167.11348 291.26758 171.43332 291.26758 176.45703 C 291.26758 181.47427 293.01374 185.76637 296.49219 189.3418 C 299.9771 192.93016 304.23801 194.71484 309.26172 194.71484 L 327.25391 194.71484 L 327.25391 176.45703 C 327.25391 171.43332 325.50775 167.11348 322.0293 163.48633 C 318.55085 159.85917 314.29836 158.04297 309.26172 158.04297 z M 239.38867 158.04883 C 234.3779 158.04883 230.12237 159.86699 226.65039 163.49414 C 223.18487 167.11483 221.44531 171.43272 221.44531 176.46289 L 221.44531 194.71484 L 239.38867 194.71484 C 244.41238 194.71484 248.65888 192.93016 252.13086 189.3418 C 255.61577 185.77283 257.34824 181.4866 257.3418 176.46289 C 257.3418 171.43918 255.60931 167.1213 252.13086 163.49414 C 248.65241 159.86699 244.41238 158.04883 239.38867 158.04883 z "
       transform="translate(-170,-30)" />
    <circle
       cx="255.31"
       cy="171.388"
       r="7.448"
       id="circle1265"
       style="fill:#ffffff" />
  </g>
</svg>
