<?xml version="1.0" encoding="UTF-8" standalone="no"?>
<svg
   width="640"
   height="360"
   viewBox="0 0 640 360"
   fill="none"
   version="1.1"
   id="svg4047"
   sodipodi:docname="provider-pay-white-640x360.svg"
   inkscape:version="1.2.1 (9c6d41e4, 2022-07-14)"
   xmlns:inkscape="http://www.inkscape.org/namespaces/inkscape"
   xmlns:sodipodi="http://sodipodi.sourceforge.net/DTD/sodipodi-0.dtd"
   xmlns="http://www.w3.org/2000/svg"
   xmlns:svg="http://www.w3.org/2000/svg">
  <defs
     id="defs4051" />
  <sodipodi:namedview
     id="namedview4049"
     pagecolor="#ffffff"
     bordercolor="#666666"
     borderopacity="1.0"
     inkscape:showpageshadow="2"
     inkscape:pageopacity="0.0"
     inkscape:pagecheckerboard="true"
     inkscape:deskcolor="#d1d1d1"
     showgrid="false"
     inkscape:zoom="0.65555556"
     inkscape:cx="429.40678"
     inkscape:cy="184.57627"
     inkscape:window-width="1489"
     inkscape:window-height="998"
     inkscape:window-x="2691"
     inkscape:window-y="477"
     inkscape:window-maximized="0"
     inkscape:current-layer="svg4047" />
  <path
     id="path4037"
     style="fill:#ffffff"
     d="M 159.54883 36 C 122.85495 36 93 65.95816 93 102.7832 L 93 324 L 480.15039 324 C 516.84923 324 546.70313 294.04264 546.70312 257.2168 L 546.70312 102.7832 C 546.70312 65.95816 516.84923 36 480.15039 36 L 159.54883 36 z M 159.00781 102.39062 L 206.35156 102.39062 C 231.07448 102.39062 251.50748 122.25529 251.64648 147.07617 C 251.67548 153.00017 250.53683 158.87152 248.29883 164.35352 C 246.05983 169.83548 242.76548 174.82052 238.60352 179.02148 C 234.44152 183.22248 229.49293 186.55794 224.04297 188.83594 C 218.59297 191.11394 212.7487 192.28892 206.8457 192.29492 L 182.97656 192.29492 L 182.97656 231.35742 L 159.00781 231.35742 L 159.00781 102.39062 z M 182.97656 126.41602 L 182.97656 168.25586 L 206.49414 168.25586 L 206.49414 168.23633 C 217.9021 168.23633 227.45973 159.17644 227.67773 147.72852 C 227.72773 144.95052 227.22517 142.19034 226.20117 139.60938 C 225.17617 137.02738 223.65189 134.67636 221.71289 132.69336 C 219.77389 130.70836 217.45825 129.13269 214.90625 128.05469 C 212.35325 126.97769 209.6147 126.42102 206.8457 126.41602 L 182.97656 126.41602 z M 307.04297 133.69531 C 315.68994 133.77731 324.16078 136.15875 331.59375 140.59375 L 331.59375 134.17578 L 355.56055 134.17578 L 355.56055 231.35938 L 331.59375 231.35938 L 331.59375 225.05273 C 324.16078 229.48773 315.68994 231.86717 307.04297 231.95117 C 298.396 232.03417 289.88025 229.81834 282.36328 225.52734 C 274.84731 221.23637 268.59895 215.02441 264.25195 207.52344 C 259.90298 200.02247 257.61133 191.49924 257.61133 182.82227 C 257.61133 174.14527 259.90298 165.62302 264.25195 158.12305 C 268.59895 150.62205 274.84731 144.40914 282.36328 140.11914 C 289.88025 135.82814 298.396 133.61131 307.04297 133.69531 z M 449.16992 133.83398 L 475.25391 133.83398 L 434.21094 240.36914 C 430.62494 249.55712 424.36975 257.45227 416.25977 263.03125 C 408.14877 268.61023 398.55468 271.61425 388.7207 271.65625 L 385.49609 271.65625 L 385.49609 247.60742 L 388.32422 247.60742 C 393.3252 247.58642 398.20314 246.0567 402.32812 243.2207 C 406.45312 240.38272 409.63303 236.36831 411.45703 231.69531 L 411.58594 231.36133 L 404.58984 231.36133 L 365.8457 134.17773 L 392.0625 134.17773 L 421.03711 206.84766 L 449.16992 133.83398 z M 307.22461 157.74805 C 305.39042 157.70169 303.54847 157.85845 301.73047 158.2207 C 296.88247 159.1857 292.42864 161.5702 288.93164 165.07617 C 285.43464 168.58117 283.05098 173.04711 282.08398 177.91211 C 281.11601 182.77508 281.60714 187.81837 283.49414 192.40234 C 285.38214 196.98634 288.58248 200.90509 292.68945 203.66406 C 296.79645 206.42406 301.62536 207.90025 306.56836 207.90625 C 313.20033 207.90625 319.56291 205.26452 324.25391 200.56055 C 328.94688 195.85755 331.58675 189.47724 331.59375 182.82227 C 331.59375 177.86227 330.12881 173.01562 327.38281 168.89062 C 324.63784 164.76665 320.73494 161.55134 316.16797 159.65234 C 313.31485 158.46547 310.28159 157.8253 307.22461 157.74805 z M 483.4043 202.83203 C 491.48129 202.83203 498.0293 209.40282 498.0293 217.50781 C 498.0293 225.6138 491.48129 232.18359 483.4043 232.18359 C 475.3263 232.18359 468.7793 225.6138 468.7793 217.50781 C 468.7793 209.40282 475.3263 202.83203 483.4043 202.83203 z " />
</svg>
