<svg height="80" viewBox="0 0 166 80" width="166" xmlns="http://www.w3.org/2000/svg" xmlns:xlink="http://www.w3.org/1999/xlink"><mask id="a" fill="#fff"><path d="m9.52160237.31574481c-5.07950148 0-9.08418991 4.00419584-9.08418991 9.0925638v43.09547179c0 4.9066054 4.17807715 9.0925638 9.0925638 9.0925638h11.09490804v-3.6396854c0-5.0888606 4.1775845-9.0925638 9.0841899-9.0925638h30.1888486c-.0655133-20.7199526-11.3461246-38.8080416-28.1091691-48.54835019z" fill="#fff" fill-rule="evenodd"/></mask><mask id="b" fill="#fff"><path d="m.42859525.09827003h145.28935775v25.46548367h-145.28935775z" fill="#fff" fill-rule="evenodd"/></mask><g fill="none" fill-rule="evenodd" transform="translate(0 2.65)"><path d="m29.7088279 49.288454h124.0098811v-39.45578634c0-4.90611276-4.178077-9.0925638-9.092564-9.0925638h-135.10429634c-5.07999406 0-9.08418991 4.00419584-9.08418991 9.0925638v43.09596434c0 4.9061128 4.17807716 9.0925638 9.0925638 9.0925638h11.09441545v-3.640178c0-5.0883679 4.1780771-9.0925638 9.0841899-9.0925638" fill="#00468c"/><path d="m9.52160237.31574481c-5.07950148 0-9.08418991 4.00419584-9.08418991 9.0925638v43.09547179c0 4.9066054 4.17807715 9.0925638 9.0925638 9.0925638h11.09490804v-3.6396854c0-5.0888606 4.1775845-9.0925638 9.0841899-9.0925638h30.1888486c-.0655133-20.7199526-11.3461246-38.8080416-28.1091691-48.54835019z" mask="url(#a)" transform="translate(0 .424605)"/><g transform="translate(6.403561 7.320748)"><path d="m136.617064.09827003h-3.094398v3.64017804c0 4.90611276-4.178077 9.09256383-9.092071 9.09256383h-124.00199975v3.640178c0 4.9061128 4.17807715 9.0925638 9.0925638 9.0925638h127.10427895c5.087875 0 9.092564-4.0041958 9.092564-9.0925638v-7.27198218c-.008374-5.09674184-4.186451-9.10093769-9.100938-9.10093769" fill="#aad7f5" mask="url(#b)" transform="translate(13.792285 41.869436)"/><path d="m147.315099 45.6079828v-3.6401781h-124.0098812c-5.0878754 0-9.0925638 4.0041959-9.0925638 9.0925638v3.6401781h124.009881c4.914487.1817626 9.092564-4.3687062 9.092564-9.0925638" fill="#50b4e6"/><g fill="#fff"><path d="m3.8545003 8.32812641c2.91214243 0 3.82243323-1.45607122 4.00419584-2.91214243h-1.45607121c-.18176262.7280356-.54578042 1.82008902-2.18410683 1.82008902-1.45607122 0-2.54812463-1.09205342-2.54812463-2.54812463 0-1.82008902 1.09205341-2.73037982 2.36636202-2.73037982 1.27381602 0 2.18410682.54627299 2.36586944 1.63832641h1.63832641c-.1822552-1.45607122-1.45607122-2.73037983-4.00419585-2.73037983-2.73037982 0-4.00468843 1.82008902-4.00468843 3.82243324 0 2.00185163 1.27430861 3.64017804 3.82243324 3.64017804"/><path d="m2.76244688 15.2363864 1.27430861-3.0943977 1.27381602 2.9121425-2.54812463.1822552c0-.1822552 0 0 0 0zm.36401781-4.1780772-3.09439763 7.0902196h1.63832641l.72803561-1.820089h3.27616024l.72803561 1.820089h1.63832641l-3.09439763-7.0902196z"/><path d="m4.76459407 23.9647846h-2.54812463v-2.0023442h2.54812463c.7280356 0 1.2743086.3640178 1.2743086 1.0920534s-.3640178.9102908-1.2743086.9102908m1.6383264.546273c.72803561-.1822552 1.09205342-.7285282 1.09205342-1.6383264 0-1.0920535-.546273-2.0023443-2.36636202-2.0023443h-4.36821365v7.0902196h1.45607122v-2.7298872h2.54812463c1.09205341 0 1.2743086.7280356 1.2743086 1.6378338 0 .546273 0 .9102908.18176261 1.0920534h1.62995252c-.3640178-.3640178-.3640178-1.0920534-.3640178-1.4560712 0-1.0836795-.18225519-1.8117151-1.08367953-1.9934777"/><path d="m.76025045 31.9651964h2.54812462v5.8242849h1.45607122v-5.8242849h2.72200594v-1.2743086h-6.72620178z"/><path d="m2.58043798 44.6979383h4.54209496v-1.0920534h-4.54209496v-1.8200891h4.72385757v-1.0920534h-6.17992878v7.0902196h6.17992878v-1.0836795h-4.72385757z"/><path d="m127.318306 21.9709128c-.910291 0-1.638327-.7280356-1.638327-1.6383264v-4.1780772h13.452896v-4.9061128h-13.452896v-5.63414833h13.452896v-5.10462314h-13.452896-4.906113v4.90611276 5.63414841 4.9061127 4.1780772c0 3.6406706 2.912635 6.5444391 6.54444 6.5444391h11.822451v-4.9061127h-11.822451z"/><path d="m48.5804665 20.1507745v-19.64119883h-4.9061128v19.82345403c0 3.640178 2.9121424 6.5439466 6.5444392 6.5439466h11.822451v-4.9061128h-11.822451c-.9102908 0-1.6383264-.7280356-1.6383264-1.820089"/><path d="m71.497727.5097727h-4.9061128v4.90611276 5.63414834 4.9061128 4.1780771c0 3.6401781 2.9121425 6.5444392 6.5444392 6.5444392h11.8224511v-4.9061128h-11.830825c-.9102908 0-1.6383264-.7280356-1.6383264-1.6383264v-4.1780771h13.4524036v-4.9061128h-13.4440297v-5.45189315h13.4524036v-5.08836795z"/><path d="m109.133375 16.8745157c0 2.7303798-2.184107 5.088368-5.088368 5.088368h-3.457923c-2.7303795 0-5.0883677-2.1845994-5.0883677-5.088368v-16.54680116h-4.9144866v16.36454596c0 5.4523858 4.5420949 10.0028546 10.0028543 10.0028546h3.458416c5.451893 0 10.002362-4.5420949 10.002362-10.0028546v-16.36454596h-4.906113v16.54680116z"/><path d="m29.6757757 22.1529217h-10.3663799v-6.5444392h9.6383443.7280356c1.820089 0 3.2761602 1.4560712 3.2761602 3.2766528 0 1.820089-1.6462077 3.2677864-3.2761602 3.2677864zm-10.548635-16.54680123h9.6383442c1.2743086 0 2.5486172 1.09205342 2.5486172 2.54812463 0 1.27430861-1.0920534 2.5481246-2.5486172 2.5481246h-9.6383442zm15.6370029 6.90845693c.9097982-1.2743086 1.4560712-2.73037977 1.4560712-4.3603323 0-4.00419584-3.2766528-7.45423738-7.4547299-7.45423738h-14.7262196v4.90611275 4.90611273 4.9061128 6.5444392 3.640178 1.273816h15.4542552c4.5420949 0 8.1827656-3.640178 8.1827656-8.182273.1817626-2.3658694-1.0920535-4.9061127-2.9121425-6.1799288z"/></g></g></g></svg>