<svg xmlns="http://www.w3.org/2000/svg" width="51" height="32" viewBox="0 0 51 32">
  <g fill="none" fill-rule="evenodd">
    <rect width="50" height="31" x=".5" y=".5" fill="#FFF" stroke="#D0D0D0"/>
    <g transform="translate(14 4)">
      <path fill="#C11E47" d="M24,24 L24,4.42481881 C24,1.99113177 22.0088682,0 19.5744473,0 L4.42555274,0 C1.99186569,0 0,1.99113177 0,4.42481881 L0,19.5744473 C0,22.0088682 1.99186569,24 4.42555274,24 L24,24 Z"/>
      <path fill="#FFFFFE" d="M5.25 9.24828031C5.25 8.27751505 5.84702506 7.25 6.96093264 7.25L16.5398026 7.25C17.6507692 7.25 18.25 8.27751505 18.25 9.24828031 18.25 10.2199054 17.6507692 11.25 16.5398026 11.25L6.96093264 11.25C5.84702506 11.25 5.25 10.2199054 5.25 9.24828031M5.25 15.2517197C5.25 14.2792347 5.84702506 13.25 6.96093264 13.25L16.5398026 13.25C17.6507692 13.25 18.25 14.2792347 18.25 15.2517197 18.25 16.2207653 17.6507692 17.25 16.5398026 17.25L6.96093264 17.25C5.84702506 17.25 5.25 16.2207653 5.25 15.2517197"/>
    </g>
  </g>
</svg>
