<svg height="360" viewBox="0 0 640 360" width="640" xmlns="http://www.w3.org/2000/svg"><g fill="none" fill-rule="evenodd" transform="translate(80 128.736)"><path d="m100.554191 101.837107v-81.986837c0-10.19302468-8.2945222-18.53249266-18.4356687-18.53249266h-63.106242c-10.13808922 0-18.43566883 8.33946798-18.43566883 18.53249266v63.4512709c0 10.1960985 8.29757961 18.5355661 18.43566883 18.5355661z" fill="#c11e47"/><path d="m23.5340637 37.5380571c0-3.4704236 2.4825478-7.1437241 7.1143949-7.1437241h39.830828c4.6196179 0 7.1113376 3.6733005 7.1113376 7.1437241 0 3.4734976-2.4917197 7.1560197-7.1113376 7.1560197h-39.830828c-4.6318471 0-7.1143949-3.6825221-7.1143949-7.1560197m0 28.0667823c0-3.4765714 2.4825478-7.1560197 7.1143949-7.1560197h39.830828c4.6196179 0 7.1113376 3.6794483 7.1113376 7.1560197 0 3.4642759-2.4917197 7.1437241-7.1113376 7.1437241h-39.830828c-4.6318471 0-7.1143949-3.6794482-7.1143949-7.1437241" fill="#fffffe"/><path d="m160.788994 101.817434h-24.862166c-3.76051 0-6.93707-3.1937729-6.93707-6.9746596v-86.53004928c0-3.7808867 3.17656-6.9746601 6.93707-6.9746601h24.862166c15.225477 0 27.616815 12.40315268 27.616815 27.64350738 0 7.8414976-3.274395 15.2526503-9.019108 20.5151527 6.790318 5.5914089 10.8107 14.0138719 10.8107 22.7529458 0 16.3039212-13.192356 29.5677631-29.408407 29.5677631zm-17.928153-13.9462458h17.928153c8.566624 0 15.537324-6.9562168 15.537324-15.5016355 0-8.6130443-6.9707-15.6215172-15.537324-15.6215172h-17.928153zm0-45.0724729h17.928153c7.511847 0 13.623439-6.1969655 13.623439-13.8171429v-1.7029359c-.892739-6.7594877-6.661911-11.9912513-13.623439-11.9912513h-17.928153zm83.252484 60.2206107c-15.09707 0-27.855287-12.2740492-27.855287-26.8043349v-22.2334581c0-14.7823448 11.960255-26.804335 26.659873-26.804335 14.702675 0 26.66293 12.0219902 26.66293 26.804335v8.4132414c0 3.7808867-3.176561 6.9746601-6.93707 6.9746601h-32.511593v6.8455566c0 6.7287488 6.664968 12.8550148 13.981147 12.8550148 4.555414 0 8.104968-1.3771034 10.853503-4.2143054 1.418599-2.041064 3.326369-3.1169261 5.524586-3.1169261 3.754395 0 7.175541 3.3228768 7.175541 6.9746601 0 1.4139901-.437197 2.6988768-1.369681 4.0390936.006115 0-.528917.9160197-1.660128 2.0533596-4.839745 5.2102463-12.327133 8.2134383-20.523821 8.2134383zm-13.981147-47.5992117h25.574523v-1.4385813c0-7.2082759-5.616306-12.8550148-12.78879-12.8550148-7.169427 0-12.785733 5.6467389-12.785733 12.8550148zm57.079644 46.3973197c-3.445605 0-6.93707-2.3945611-6.93707-6.9746596v-86.53004928c0-4.58009852 3.491465-6.9746601 6.93707-6.9746601s6.934012 2.39456158 6.934012 6.9746601v86.53004928c0 4.5800985-3.488407 6.9746596-6.934012 6.9746596m33.906649 0c-3.448662 0-6.93707-2.3945611-6.93707-6.9746596v-52.5143645h-5.264713c-4.555414 0-6.93707-3.5103843-6.93707-6.9746601 0-3.4673498 2.381656-6.9746601 6.93707-6.9746601h5.264713v-7.9306404c0-11.57934979 9.251465-20.3122759 21.52051-20.3122759 10.65172 0 15.421146 5.07192118 15.421146 10.097734 0 3.771665-2.568153 6.6150148-5.980127 6.6150148-1.461401 0-2.803567-.4026798-4.099873-1.2326306-.764331-.4457143-2.88-1.530798-5.341146-1.530798-5.643822 0-7.649427 3.4273892-7.649427 6.3629557v7.9306404h14.580382c4.555414 0 6.940128 3.5073103 6.940128 6.9746601 0 3.4642758-2.384714 6.9746601-6.940128 6.9746601h-14.580382v52.5143645c0 4.5800985-3.488408 6.9746596-6.934013 6.9746596m44.108943 0c-3.445605 0-6.934013-2.3945611-6.934013-6.9746596v-59.4890246c0-4.5800986 3.488408-6.9746601 6.934013-6.9746601 3.448662 0 6.93707 2.3945615 6.93707 6.9746601v59.4890246c0 4.5800985-3.488408 6.9746596-6.93707 6.9746596m0-81.5257532c-3.445605 0-6.934013-2.3976355-6.934013-6.9746601v-5.00429558c0-4.58009852 3.488408-6.9746601 6.934013-6.9746601 3.448662 0 6.93707 2.39456158 6.93707 6.9746601v5.00429558c0 4.5770246-3.488408 6.9746601-6.93707 6.9746601m46.242038 82.7276452c-14.699618 0-26.656815-12.0250639-26.656815-26.8043349v-40.8612413c0-4.5800986 3.488408-6.9746601 6.934013-6.9746601 3.448662 0 6.93707 2.3945615 6.93707 6.9746601v40.8612413c0 7.2082759 5.619363 12.8550148 12.785732 12.8550148 7.169427 0 12.78879-5.6467389 12.78879-12.8550148v-40.8612413c0-4.5800986 3.48535-6.9746601 6.934013-6.9746601 3.445605 0 6.93707 2.3945615 6.93707 6.9746601v40.8612413c0 14.779271-11.960255 26.8043349-26.659873 26.8043349m58.177223 0c-7.248917 0-16.787771-3.3259506-21.003821-9.6827585-.895797-1.2879606-1.354395-2.6865813-1.354395-4.140532 0-3.6517833 3.421146-6.9746601 7.172484-6.9746601 2.121783 0 4.151847 1.106601 5.558216 3.0370049l.223185.3319803c2.042293 2.213202 5.463439 3.4796453 9.404331 3.4796453 7.686115 0 11.706497-4.2296749 11.706497-8.4070936 0-5.8680591-6.136051-8.2749162-13.241274-11.0629359-9.068025-3.5564927-20.346497-7.9828966-20.346497-21.8676651 0-13.4943842 11.428281-20.5551133 22.715924-20.5551133 8.187516 0 16.824458 4.5309163 21.006879 11.0137537.733758 1.1096749 1.109809 2.4222266 1.109809 3.8915468 0 3.7808867-3.286624 6.9746601-7.175542 6.9746601-2.317452 0-4.289426-1.161931-5.558216-3.2767685-2.855542-3.2183645-5.750828-4.6538719-9.38293-4.6538719-5.368663 0-8.841784 2.5912907-8.841784 6.6057931 0 4.4694385 5.518472 6.6549754 11.905223 9.1847882 9.661147 3.8239212 21.685605 8.5853793 21.685605 23.7458128 0 14.5210641-13.183184 22.3564137-25.583694 22.3564137" fill="#3e535d"/></g></svg>