<svg height="32" viewBox="0 0 51 32" width="51" xmlns="http://www.w3.org/2000/svg"><g fill="none" fill-rule="evenodd"><path d="m.5.5h50v31h-50z" fill="#fff" stroke="#d0d0d0"/><g transform="translate(14 4)"><path d="m24 24v-19.57518119c0-2.43368704-1.9911318-4.42481881-4.4255527-4.42481881h-15.14889456c-2.43368705 0-4.42555274 1.99113177-4.42555274 4.42481881v15.14962849c0 2.4344209 1.99186569 4.4255527 4.42555274 4.4255527z" fill="#c11e47"/><path d="m5.25 9.24828031c0-.97076526.59702506-1.99828031 1.71093264-1.99828031h9.57886996c1.1109666 0 1.7101974 1.02751505 1.7101974 1.99828031 0 .97162509-.5992308 2.00171969-1.7101974 2.00171969h-9.57886996c-1.11390758 0-1.71093264-1.0300946-1.71093264-2.00171969m0 6.00343939c0-.972485.59702506-2.0017197 1.71093264-2.0017197h9.57886996c1.1109666 0 1.7101974 1.0292347 1.7101974 2.0017197 0 .9690456-.5992308 1.9982803-1.7101974 1.9982803h-9.57886996c-1.11390758 0-1.71093264-1.0292347-1.71093264-1.9982803" fill="#fffffe"/></g></g></svg>