<svg xmlns="http://www.w3.org/2000/svg" width="640" height="360"><g fill="none" fill-rule="nonzero"><path fill="#000" d="M256.793 303.349v-16.624a9.909 9.909 0 00-2.784-7.6 9.641 9.641 0 00-7.472-2.9c-3.682-.245-7.203 1.56-9.19 4.71-1.811-3.056-5.127-4.863-8.643-4.71a8.61 8.61 0 00-7.658 3.934v-3.27h-5.689v26.46h5.744v-14.657a6.231 6.231 0 011.553-5.056 6.06 6.06 0 014.847-1.98c3.774 0 5.689 2.493 5.689 6.98v14.713h5.743v-14.657a6.286 6.286 0 011.576-5.034 6.115 6.115 0 014.824-2.003c3.884 0 5.744 2.494 5.744 6.982v14.712h5.716zm32-13.216v-13.216h-5.743v3.214a9.852 9.852 0 00-8.206-3.879c-7.552 0-13.675 6.203-13.675 13.853 0 7.651 6.123 13.853 13.675 13.853a9.852 9.852 0 008.206-3.879v3.214h5.688l.055-13.16zm-21.142 0c.253-4.348 3.89-7.694 8.187-7.53 4.297.163 7.677 3.776 7.607 8.13-.07 4.355-3.563 7.855-7.862 7.878a7.772 7.772 0 01-5.843-2.451 7.985 7.985 0 01-2.143-6.027h.054zm142.687-13.853c1.873-.005 3.73.353 5.47 1.053a13.659 13.659 0 014.459 2.937 13.419 13.419 0 012.954 4.405 14.86 14.86 0 010 11.082 13.391 13.391 0 01-2.954 4.405 13.659 13.659 0 01-4.458 2.937 15.295 15.295 0 01-11.214 0 13.496 13.496 0 01-4.43-2.937 13.532 13.532 0 01-2.927-4.405 14.889 14.889 0 010-11.082 13.532 13.532 0 012.926-4.405 13.496 13.496 0 014.43-2.937 14.553 14.553 0 015.69-1.136l.054.083zm0 5.541a8.383 8.383 0 00-3.254.61 7.679 7.679 0 00-2.599 1.745 8.133 8.133 0 00-1.723 2.77 9.73 9.73 0 000 6.872 8.105 8.105 0 001.723 2.77 7.651 7.651 0 002.599 1.746 8.783 8.783 0 006.482 0 7.809 7.809 0 002.735-1.746 8.05 8.05 0 001.723-2.77 9.73 9.73 0 000-6.871 8.05 8.05 0 00-1.723-2.77 7.81 7.81 0 00-2.735-1.746 8.389 8.389 0 00-3.282-.776l.054.166zm-90.639 8.312c0-8.312-5.087-13.853-12.39-13.853-7.552.107-13.59 6.396-13.483 14.047.105 7.65 6.314 13.766 13.866 13.659 3.894.135 7.7-1.187 10.694-3.713l-2.735-4.266a12.347 12.347 0 01-7.603 2.77c-3.91.34-7.378-2.533-7.822-6.483h19.391c.082-.693.082-1.385.082-2.161zm-19.446-2.327c.22-3.655 3.251-6.481 6.865-6.4a6.437 6.437 0 014.624 1.825 6.606 6.606 0 011.995 4.602l-13.484-.027zm43.378-4.156a16.656 16.656 0 00-8.205-2.272c-3.118 0-4.978 1.164-4.978 3.103 0 1.94 1.97 2.272 4.43 2.604l2.736.388c5.689.831 9.135 3.27 9.135 7.924 0 4.655-4.376 8.644-11.898 8.644a18.673 18.673 0 01-11.295-3.435l2.735-4.489a13.8 13.8 0 008.697 2.771c3.884 0 5.962-1.164 5.962-3.214 0-1.496-1.476-2.327-4.594-2.77l-2.735-.388c-5.853-.831-9.026-3.491-9.026-7.813 0-5.264 4.267-8.478 10.94-8.478a19.334 19.334 0 0110.64 2.77l-2.544 4.655zm27.35-1.496h-9.272v11.94c0 2.771.93 4.434 3.775 4.434a10.404 10.404 0 005.032-1.496l1.641 4.931a13.221 13.221 0 01-7.11 2.05c-6.73 0-9.081-3.657-9.081-9.807v-12.052h-5.306v-5.264h5.306v-8.035h5.743v8.035h9.272v5.264zm19.665-5.93c1.38.006 2.749.25 4.048.721l-1.75 5.541a9.14 9.14 0 00-3.556-.665c-3.72 0-5.47 2.438-5.47 6.816v14.822h-5.689v-26.458h5.634v3.213a7.692 7.692 0 016.893-3.878l-.11-.111zm39.33 23.274c.356-.005.709.061 1.04.193.313.13.601.318.847.555.24.238.435.52.575.83.28.655.28 1.397 0 2.05-.14.311-.334.593-.575.832a2.731 2.731 0 01-.848.554 2.543 2.543 0 01-1.039.222 2.733 2.733 0 01-2.461-1.607 2.635 2.635 0 010-2.05c.139-.31.334-.593.574-.831.246-.237.534-.425.848-.555.288-.116.593-.181.902-.193h.137zm0 4.682c.273.001.543-.055.793-.166.236-.107.449-.257.63-.444.47-.48.677-1.165.55-1.83a2.045 2.045 0 00-1.18-1.494c-.25-.11-.52-.168-.793-.167a2.029 2.029 0 00-.793.167 1.995 1.995 0 00-.657.443 2.07 2.07 0 000 2.77 2.01 2.01 0 001.45.61v.11zm.164-3.297c.255-.013.507.066.711.221.17.143.262.36.246.582a.67.67 0 01-.191.499.951.951 0 01-.574.25l.793.914h-.63l-.738-.915h-.246v.915h-.52v-2.55l1.15.084zm-.602.47v.666h.602a.567.567 0 00.328 0 .28.28 0 000-.25.28.28 0 000-.249.567.567 0 00-.328 0l-.602-.166z"/><path fill="#7673C0" d="M276.622 75.027h86.154v156.841h-86.154z"/><path fill="#EB001B" d="M282.092 153.461c-.032-30.61 13.836-59.535 37.607-78.434-40.37-32.139-98.342-27.458-133.176 10.753-34.834 38.211-34.834 97.123 0 135.334s92.806 42.892 133.176 10.754c-23.763-18.893-37.63-47.806-37.607-78.407z"/><path fill="#00A1DF" d="M469.607 216.08v-3.771h1.285v-.808h-3.254v.808h1.285v3.905l.684-.134zm6.318 0v-4.714h-.985l-1.149 3.367-1.148-3.367h-1.012v4.714h.71v-3.536l1.068 3.064h.738l1.067-3.064v3.57l.71-.034zm3.063-62.619c-.01 38.178-21.53 73-55.429 89.686-33.897 16.686-74.224 12.306-103.86-11.279 23.753-18.91 37.621-47.818 37.621-78.42 0-30.603-13.868-59.512-37.62-78.421 29.635-23.603 69.973-27.992 103.88-11.304 33.909 16.688 55.435 51.523 55.435 89.71l-.027.028z"/></g></svg>