<svg width="512" height="512" viewBox="0 0 512 512" fill="none" xmlns="http://www.w3.org/2000/svg">
<path d="M437.012 74.9742C390.7 28.6482 326.689 0 256.009 0C185.311 0 121.307 28.6482 74.9846 74.9742C28.6482 121.3 0 185.311 0 256.002C0 326.692 28.6482 390.7 74.9743 437.026C121.3 483.362 185.311 512 256.009 512C326.699 512 390.71 483.338 437.022 437.026C483.348 390.689 511.997 326.689 511.997 256.002C511.997 185.311 483.338 121.3 437.012 74.9742ZM428.566 428.562C384.409 472.722 323.394 500.041 255.998 500.041C188.606 500.041 127.584 472.722 83.4205 428.562C39.2604 384.402 11.9448 323.39 11.9448 256.002C11.9448 188.606 39.2604 127.595 83.424 83.4344C127.584 39.2707 188.596 11.9517 255.991 11.9517C323.383 11.9517 384.392 39.2707 428.555 83.4344C472.719 127.595 500.031 188.606 500.031 256.002C500.041 323.387 472.726 384.402 428.566 428.562Z" fill="white"/>
<path d="M476.224 253.863C475.074 133.217 376.927 35.7654 256.009 35.7654C135.08 35.7654 36.9258 133.228 35.7964 253.874L136.774 152.896L170.639 186.761L96.7461 260.654H415.271L341.375 186.761L375.239 152.896L476.224 253.863ZM255.998 216.022L162.169 117.557H224.527V69.0207C224.527 56.4251 238.692 46.0987 255.998 46.0987C273.308 46.0987 287.477 56.4148 287.477 69.0207V117.557H349.835L255.998 216.022Z" fill="white"/>
<path fill-rule="evenodd" clip-rule="evenodd" d="M283.372 379.943C278.369 376.693 272.03 373.766 264.386 371.228C258.539 369.214 253.729 367.313 249.973 365.478C246.25 363.667 243.499 361.652 241.74 359.524C239.935 357.362 239.088 354.769 239.088 351.794C239.088 349.415 239.811 347.153 241.344 345.011C242.852 342.876 245.207 341.096 248.402 339.75C251.639 338.386 255.75 337.649 260.86 337.625C264.975 337.646 268.735 337.976 272.134 338.565C275.491 339.175 278.469 339.911 281.017 340.755C283.603 341.63 285.69 342.453 287.336 343.227L293.017 326.087C289.581 324.358 285.277 322.926 280.05 321.765C275.615 320.784 270.532 320.219 264.765 320.026V302.287H249.139V320.915C246.633 321.318 244.229 321.862 241.96 322.523C236.21 324.217 231.272 326.572 227.188 329.65C223.136 332.712 219.992 336.296 217.84 340.4C215.674 344.505 214.607 349.029 214.562 353.898C214.593 359.524 216.07 364.49 218.98 368.773C221.893 373.063 226.038 376.786 231.399 379.974C236.733 383.152 243.1 385.893 250.462 388.2C255.985 389.97 260.488 391.816 263.925 393.709C267.361 395.6 269.875 397.683 271.441 399.952C273.039 402.225 273.828 404.859 273.8 407.803C273.8 411.036 272.85 413.839 270.997 416.263C269.162 418.649 266.452 420.529 262.888 421.858C259.324 423.201 254.976 423.862 249.876 423.907C245.822 423.884 241.776 423.531 237.78 422.85C234.078 422.202 230.427 421.286 226.858 420.109C223.456 418.976 220.481 417.747 217.898 416.373L212.403 434.227C214.889 435.594 217.991 436.823 221.789 437.952C225.587 439.092 229.764 440.001 234.344 440.693C238.889 441.365 243.558 441.705 248.306 441.75L249.139 441.74V460.079H264.765V440.27C266.675 439.902 268.567 439.442 270.433 438.892C276.699 437.005 281.909 434.433 286.031 431.138C290.176 427.867 293.248 424.086 295.286 419.82C297.31 415.578 298.349 410.933 298.327 406.233C298.327 400.603 297.122 395.62 294.639 391.334C292.125 387.009 288.393 383.221 283.369 379.943H283.372Z" fill="white"/>
</svg>
