<svg xmlns="http://www.w3.org/2000/svg" width="640" height="360" viewBox="0 0 640 360">
  <g fill="#1D2428" fill-rule="evenodd" transform="translate(80 68)">
    <g transform="translate(164.248)">
      <path fill-rule="nonzero" d="M128.301593,21.7741593 C114.851681,8.32 96.2619469,0 75.7352212,0 C55.2028319,0 36.6159292,8.32 23.1617699,21.7741593 C9.70477876,35.2283186 1.38477876,53.8180531 1.38477876,74.3476106 C1.38477876,94.8771681 9.70477876,113.466903 23.1589381,126.921062 C36.6130973,140.378053 55.2028319,148.695221 75.7352212,148.695221 C96.2647788,148.695221 114.854513,140.370973 128.304425,126.921062 C141.758584,113.464071 150.078584,94.8771681 150.078584,74.3476106 C150.078584,53.8180531 141.755752,35.2283186 128.301593,21.7741593 Z M125.849204,124.463009 C113.025133,137.288496 95.3047788,145.221947 75.7323894,145.221947 C56.16,145.221947 38.4382301,137.288496 25.6127434,124.463009 C12.7872566,111.637522 4.85380531,93.9185841 4.85380531,74.3476106 C4.85380531,54.7752212 12.7872566,37.0562832 25.6127434,24.2307965 C38.4382301,11.4053097 56.1571681,3.47185841 75.7295575,3.47185841 C95.3019469,3.47185841 113.020885,11.4053097 125.846372,24.2307965 C138.671858,37.0562832 146.603895,54.7752212 146.603895,74.3476106 C146.606726,93.9185841 138.673274,111.638938 125.849204,124.463009 Z"/>
      <path fill-rule="nonzero" d="M139.689912,73.7274336 C139.355752,38.6888496 110.851681,10.3872566 75.7352212,10.3872566 C40.6159292,10.3872566 12.1090265,38.6916814 11.780531,73.7302655 L41.1072566,44.4035398 L50.9423009,54.2385841 L29.4810619,75.699823 L121.987965,75.699823 L100.526726,54.2385841 L110.36177,44.4035398 L139.689912,73.7274336 Z M75.7323894,62.7369912 L48.4814159,34.140885 L66.5911504,34.140885 L66.5911504,20.0453097 C66.5911504,16.3865487 70.7058407,13.3876106 75.7323894,13.3876106 C80.7589381,13.3876106 84.8736283,16.3837168 84.8736283,20.0453097 L84.8736283,34.140885 L102.983363,34.140885 L75.7323894,62.7369912 Z"/>
      <path d="M83.6814159,110.343363 C82.2286726,109.398938 80.3879646,108.549381 78.1677876,107.811681 C76.4700885,107.226903 75.0725664,106.67469 73.9823009,106.142301 C72.900531,105.615575 72.1019469,105.030796 71.5907965,104.413451 C71.0669027,103.784779 70.8219469,103.031504 70.8219469,102.167788 C70.8219469,101.476814 71.0300885,100.819823 71.4761062,100.19823 C71.9136283,99.5780531 72.5975221,99.0612389 73.5263717,98.6704425 C74.4651327,98.2739823 75.660177,98.060177 77.1440708,98.0530973 C78.339115,98.0587611 79.4307965,98.1550442 80.4176991,98.3263717 C81.3932743,98.5033628 82.2584071,98.7171681 82.9989381,98.9621239 C83.7493805,99.2155752 84.3553982,99.4548673 84.8325664,99.68 L86.4835398,94.7015929 C85.4853097,94.200354 84.2350442,93.7840708 82.7171681,93.4470796 C81.4286726,93.1624779 79.9532743,92.9982301 78.2782301,92.9415929 L78.2782301,87.7904425 L73.740177,87.7904425 L73.740177,93.199292 C73.0123894,93.3168142 72.3143363,93.4753982 71.6545133,93.6665487 C69.9851327,94.159292 68.5507965,94.8431858 67.3642478,95.7366372 C66.1876106,96.6258407 65.2757522,97.6665487 64.6499115,98.8587611 C64.0212389,100.050973 63.7111504,101.364956 63.6984071,102.778053 C63.7069027,104.413451 64.1359292,105.854867 64.9812389,107.099469 C65.8265487,108.345487 67.0315044,109.425841 68.5876106,110.351858 C70.1366372,111.275044 71.9858407,112.070796 74.1238938,112.740531 C75.7281416,113.254513 77.0364602,113.79115 78.0332743,114.341947 C79.0315044,114.889912 79.7621239,115.494513 80.2166372,116.154336 C80.6810619,116.814159 80.9104425,117.578761 80.9019469,118.433982 C80.9019469,119.372743 80.6258407,120.186903 80.0877876,120.890619 C79.5553982,121.584425 78.7681416,122.129558 77.7330973,122.516106 C76.6980531,122.906903 75.4350442,123.098053 73.9539823,123.110796 C72.7490265,123.102301 71.580885,122.998938 70.4410619,122.80354 C69.3097345,122.599646 68.2477876,122.336283 67.2693805,122.007788 C66.2810619,121.679292 65.4173451,121.322478 64.6669027,120.923186 L63.0711504,126.108319 C63.7932743,126.504779 64.6938053,126.861593 65.7968142,127.190088 C66.899823,127.521416 68.1132743,127.784779 69.4428319,127.985841 C70.7624779,128.181239 72.1189381,128.280354 73.4980531,128.293097 L73.740177,128.290265 L73.740177,133.615575 L78.2782301,133.615575 L78.2782301,127.862655 C78.8545133,127.750796 79.4024779,127.617699 79.9235398,127.463363 C81.7444248,126.915398 83.2566372,126.167788 84.4530973,125.210619 C85.6580531,124.261947 86.5500885,123.163186 87.1419469,121.924248 C87.7309735,120.68531 88.0254867,119.374159 88.0254867,117.978053 C88.0254867,116.342655 87.6757522,114.895575 86.9536283,113.650973 C86.2244248,112.395044 85.139823,111.294867 83.6814159,110.343363 Z"/>
    </g>
    <g transform="translate(0 175.575)">
      <path fill-rule="nonzero" d="M5.66230088 24.3270796C5.66230088 25.319646 5.80247788 26.2810619 6.08424779 27.2070796 6.36460177 28.1345133 6.78654867 28.9458407 7.3500885 29.6410619 7.91221239 30.3362832 8.62442478 30.8913274 9.48530973 31.3047788 10.3461947 31.719646 11.3727434 31.9263717 12.5649558 31.9263717 14.220177 31.9263717 15.5525664 31.5709735 16.5635398 30.8587611 17.5730973 30.1479646 18.3263717 29.080354 18.8233628 27.6559292L24.1869027 27.6559292C23.8895575 29.0463717 23.3755752 30.2881416 22.6477876 31.3812389 21.9185841 32.4743363 21.040708 33.3932743 20.0155752 34.1366372 18.9890265 34.8814159 17.8378761 35.4449558 16.5635398 35.8258407 15.2877876 36.2053097 13.9553982 36.3964602 12.5649558 36.3964602 10.5444248 36.3964602 8.75752212 36.0651327 7.20141593 35.4038938 5.64389381 34.7412389 4.32849558 33.8138053 3.25238938 32.6215929 2.17628319 31.4293805 1.36495575 30.0063717.81840708 28.3511504.273274336 26.6945133 0 24.8736283 0 22.8870796 0 21.0661947.290265487 19.3359292.869380531 17.6976991 1.44849558 16.059469 2.27681416 14.6180531 3.35292035 13.3762832 4.42902655 12.1345133 5.72884956 11.1490265 7.25238938 10.4212389 8.77451327 9.69345133 10.4962832 9.32814159 12.4176991 9.32814159 14.4368142 9.32814159 16.2492035 9.7500885 17.8562832 10.5939823 19.4619469 11.4378761 20.7943363 12.5564602 21.8548673 13.9469027 22.9139823 15.3373451 23.6842478 16.9359292 24.1642478 18.739823 24.6442478 20.5451327 24.7688496 22.4070796 24.5366372 24.3270796L5.66230088 24.3270796zM18.8729204 20.6017699C18.8063717 19.7083186 18.6152212 18.8474336 18.300885 18.019115 17.9851327 17.1922124 17.5561062 16.4715044 17.0095575 15.8584071 16.4630088 15.2467257 15.800354 14.7497345 15.0230088 14.3688496 14.2442478 13.9879646 13.3762832 13.7968142 12.4162832 13.7968142 11.4223009 13.7968142 10.520354 13.9709735 9.70902655 14.319292 8.89769912 14.6661947 8.20247788 15.1476106 7.62336283 15.759292 7.04424779 16.3723894 6.57982301 17.0930973 6.23292035 17.92 5.88460177 18.7483186 5.69486726 19.6417699 5.66230088 20.6017699L18.8729204 20.6017699zM50.360354 29.9893805C50.360354 30.6846018 50.4509735 31.1815929 50.6336283 31.4789381 50.8148673 31.7762832 51.1716814 31.9263717 51.7012389 31.9263717 51.8669027 31.9263717 52.0651327 31.9263717 52.2973451 31.9263717 52.5281416 31.9263717 52.7943363 31.8938053 53.0916814 31.8272566L53.0916814 35.7507965C52.8934513 35.8173451 52.6357522 35.8909735 52.3214159 35.9745133 52.0056637 36.0566372 51.6842478 36.1316814 51.3529204 36.1982301 51.0215929 36.2647788 50.6902655 36.3129204 50.3589381 36.3469027 50.0276106 36.380885 49.7458407 36.3964602 49.5150442 36.3964602 48.3553982 36.3964602 47.3953982 36.1642478 46.6350442 35.7012389 45.8732743 35.2382301 45.3762832 34.4269027 45.1454867 33.2672566 44.019823 34.3589381 42.6378761 35.1546903 40.9982301 35.6502655 39.36 36.1472566 37.7784071 36.3950442 36.2548673 36.3950442 35.0952212 36.3950442 33.9865487 36.2378761 32.9274336 35.9235398 31.8669027 35.6092035 30.9323894 35.1461947 30.1210619 34.5330973 29.3097345 33.92 28.6640708 33.1426549 28.1840708 32.1982301 27.7040708 31.2552212 27.4633628 30.1536283 27.4633628 28.8948673 27.4633628 27.3061947 27.7522124 26.0148673 28.3327434 25.020885 28.9118584 24.0283186 29.6736283 23.2495575 30.6166372 22.6860177 31.559646 22.1238938 32.6187611 21.7175221 33.7953982 21.4697345 34.9706195 21.2219469 36.1543363 21.0307965 37.3465487 20.8976991 38.3730973 20.699469 39.3500885 20.559292 40.2761062 20.4757522 41.2021239 20.3936283 42.0219469 20.2520354 42.7341593 20.0538053 43.4463717 19.8555752 44.0084956 19.5497345 44.4233628 19.1348673 44.8368142 18.7214159 45.0435398 18.1012389 45.0435398 17.2729204 45.0435398 16.5451327 44.8693805 15.9490265 44.5224779 15.4846018 44.1741593 15.0215929 43.7437168 14.6647788 43.2311504 14.4169912 42.7171681 14.1692035 42.1465487 14.0035398 41.5178761 13.92 40.8877876 13.8378761 40.2930973 13.7953982 39.7295575 13.7953982 38.140885 13.7953982 36.8311504 14.1267257 35.8060177 14.7893805 34.779469 15.4520354 34.1989381 16.4785841 34.0672566 17.8690265L28.4049558 17.8690265C28.5040708 16.2138053 28.9019469 14.8389381 29.5971681 13.7472566 30.2923894 12.6541593 31.1787611 11.7776991 32.2548673 11.1150442 33.3309735 10.4538053 34.5472566 9.98938053 35.9051327 9.72460177 37.2615929 9.45982301 38.6534513 9.32672566 40.0764602 9.32672566 41.3338053 9.32672566 42.5755752 9.45982301 43.8017699 9.72460177 45.0265487 9.99079646 46.1281416 10.419823 47.1051327 11.0159292 48.080708 11.6120354 48.8679646 12.3823009 49.4640708 13.3253097 50.060177 14.2683186 50.3575221 15.419469 50.3575221 16.7773451L50.3575221 29.9893805 50.360354 29.9893805zM44.699469 22.8361062C43.8385841 23.399646 42.779469 23.739469 41.520708 23.8541593 40.2619469 23.9702655 39.0046018 24.1444248 37.7458407 24.3766372 37.1497345 24.4757522 36.5706195 24.6173451 36.0070796 24.7985841 35.4435398 24.9812389 34.9465487 25.2290265 34.5175221 25.5433628 34.0870796 25.859115 33.7472566 26.2725664 33.499469 26.7851327 33.2516814 27.299115 33.1270796 27.919292 33.1270796 28.6470796 33.1270796 29.2771681 33.3083186 29.8067257 33.6736283 30.2371681 34.0375221 30.6676106 34.4764602 31.0060177 34.9904425 31.2552212 35.5030088 31.5030088 36.0651327 31.6771681 36.679646 31.7762832 37.2913274 31.8768142 37.8463717 31.9249558 38.3433628 31.9249558 38.9720354 31.9249558 39.6516814 31.8428319 40.379469 31.6771681 41.1072566 31.5115044 41.7953982 31.2297345 42.4410619 30.8332743 43.0867257 30.4368142 43.6247788 29.9327434 44.0552212 29.3182301 44.4856637 28.7065487 44.700885 27.9532743 44.700885 27.0584071L44.700885 22.8361062 44.699469 22.8361062z"/>
      <path d="M60.740531 27.4548673C60.9061947 29.1115044 61.5348673 30.2697345 62.6279646 30.9323894 63.7210619 31.5950442 65.0279646 31.9249558 66.5515044 31.9249558 67.0810619 31.9249558 67.6856637 31.8838938 68.3638938 31.800354 69.0421239 31.7182301 69.680708 31.5610619 70.2768142 31.3288496 70.8729204 31.0980531 71.3614159 30.7582301 71.7423009 30.3107965 72.1217699 29.8633628 72.2959292 29.2757522 72.2633628 28.5479646 72.2293805 27.820177 71.9660177 27.2240708 71.4690265 26.759646 70.9720354 26.2966372 70.3348673 25.9242478 69.5575221 25.6424779 68.7787611 25.3621239 67.8938053 25.12 66.899823 24.9217699 65.9058407 24.7235398 64.8962832 24.5083186 63.8697345 24.2761062 62.8092035 24.0453097 61.7911504 23.7635398 60.8155752 23.4322124 59.8385841 23.100885 58.960708 22.6548673 58.1833628 22.0913274 57.4046018 21.5292035 56.7844248 20.8084956 56.3214159 19.9306195 55.8569912 19.0541593 55.6261947 17.9681416 55.6261947 16.6768142 55.6261947 15.2863717 55.9646018 14.119646 56.6442478 13.1752212 57.3224779 12.2322124 58.1833628 11.4704425 59.2269027 10.8913274 60.2704425 10.3122124 61.4286726 9.90584071 62.7030088 9.67504425 63.9773451 9.44424779 65.1936283 9.32814159 66.3532743 9.32814159 67.6771681 9.32814159 68.9430088 9.46973451 70.1522124 9.7500885 71.36 10.0318584 72.4530973 10.4877876 73.4300885 11.1164602 74.4056637 11.7465487 75.2184071 12.5649558 75.8640708 13.5745133 76.5097345 14.5854867 76.9146903 15.8017699 77.0817699 17.2247788L71.1716814 17.2247788C70.9054867 15.8683186 70.2853097 14.9578761 69.3083186 14.4934513 68.3313274 14.0304425 67.2141593 13.7982301 65.9553982 13.7982301 65.5575221 13.7982301 65.0860177 13.8322124 64.540885 13.8973451 63.9943363 13.9638938 63.480354 14.0884956 63.0017699 14.2697345 62.5217699 14.4523894 62.1153982 14.7171681 61.7854867 15.0640708 61.4541593 15.4123894 61.2884956 15.8669027 61.2884956 16.4304425 61.2884956 17.1256637 61.5277876 17.6892035 62.0092035 18.119646 62.4892035 18.5500885 63.1178761 18.9069027 63.8966372 19.1872566 64.6739823 19.4690265 65.560354 19.7083186 66.5529204 19.9065487 67.5469027 20.1047788 68.5720354 20.3214159 69.6325664 20.5522124 70.6576991 20.7844248 71.6686726 21.0661947 72.6626549 21.3961062 73.6552212 21.7274336 74.5415929 22.1748673 75.320354 22.7369912 76.0976991 23.299115 76.7277876 24.0113274 77.2077876 24.8722124 77.6877876 25.7345133 77.9270796 26.7922124 77.9270796 28.0509735 77.9270796 29.5745133 77.5787611 30.8658407 76.8835398 31.9249558 76.1883186 32.9854867 75.2863717 33.8463717 74.1762832 34.5076106 73.0661947 35.1702655 71.8343363 35.6502655 70.4764602 35.9476106 69.1185841 36.2449558 67.7776991 36.3950442 66.4538053 36.3950442 64.8311504 36.3950442 63.3330973 36.2123894 61.959646 35.8484956 60.5847788 35.4846018 59.3939823 34.9295575 58.3844248 34.1847788 57.3734513 33.44 56.579115 32.5139823 56 31.4038938 55.420885 30.2938053 55.1136283 28.9784071 55.0810619 27.4548673L60.740531 27.4548673zM79.4138053 10.0233628L85.6226549 10.0233628 92.3270796 29.1936283 92.4261947 29.1936283 98.9323894 10.0233628 104.842478 10.0233628 94.860177 37.0902655C94.3957522 38.2484956 93.9412389 39.3571681 93.4938053 40.4176991 93.0463717 41.4768142 92.5012389 42.4113274 91.8555752 43.2240708 91.2099115 44.0353982 90.4070796 44.6810619 89.4470796 45.1610619 88.4870796 45.6410619 87.2623009 45.8817699 85.7713274 45.8817699 84.4460177 45.8817699 83.139115 45.7826549 81.8477876 45.5844248L81.8477876 40.8155752C82.3107965 40.8821239 82.7582301 40.9571681 83.1886726 41.039292 83.619115 41.1214159 84.0651327 41.1638938 84.5295575 41.1638938 85.1907965 41.1638938 85.7373451 41.0817699 86.1677876 40.9161062 86.5982301 40.7490265 86.9536283 40.5097345 87.2353982 40.1953982 87.5157522 39.879646 87.7564602 39.5072566 87.9561062 39.0768142 88.1543363 38.6463717 88.3355752 38.1493805 88.5026549 37.5872566L89.1483186 35.600708 79.4138053 10.0233628z"/>
      <path fill-rule="nonzero" d="M127.688496 35.699823L127.688496 30.8318584 127.589381 30.8318584C127.258053 31.660177 126.769558 32.4219469 126.123894 33.1171681 125.47823 33.8123894 124.741947 34.4014159 123.913628 34.88 123.08531 35.36 122.200354 35.7323894 121.255929 35.9971681 120.31292 36.2619469 119.376991 36.3950442 118.449558 36.3950442 116.495575 36.3950442 114.799292 36.039646 113.359292 35.3274336 111.919292 34.6166372 110.718584 33.639646 109.758584 32.3978761 108.797168 31.1561062 108.086372 29.7161062 107.623363 28.0764602 107.158938 26.4368142 106.928142 24.7079646 106.928142 22.8856637 106.928142 21.0647788 107.158938 19.3345133 107.623363 17.6962832 108.086372 16.0580531 108.798584 14.6166372 109.758584 13.3748673 110.718584 12.1330973 111.919292 11.1476106 113.359292 10.419823 114.799292 9.6920354 116.495575 9.32672566 118.449558 9.32672566 119.409558 9.32672566 120.345487 9.44283186 121.255929 9.67362832 122.166372 9.90584071 123.018761 10.2612389 123.814513 10.7412389 124.60885 11.2212389 125.312566 11.8088496 125.925664 12.5040708 126.537345 13.199292 127.010265 14.0106195 127.341593 14.9380531L127.440708 14.9380531 127.440708.237876106 130.569912.237876106 130.569912 35.6984071 127.688496 35.6984071 127.688496 35.699823zM110.52885 26.8346903C110.843186 28.1430088 111.340177 29.3097345 112.018407 30.3362832 112.696637 31.3628319 113.566018 32.1982301 114.626549 32.8438938 115.685664 33.4895575 116.961416 33.8123894 118.450973 33.8123894 120.106195 33.8123894 121.505133 33.4895575 122.647788 32.8438938 123.790442 32.1982301 124.71646 31.3628319 125.428673 30.3362832 126.140885 29.3097345 126.653451 28.1430088 126.967788 26.8346903 127.282124 25.5263717 127.439292 24.2109735 127.439292 22.8856637 127.439292 21.5617699 127.282124 20.2463717 126.967788 18.9380531 126.652035 17.6311504 126.139469 16.4630088 125.428673 15.4364602 124.71646 14.4099115 123.790442 13.5730973 122.647788 12.9274336 121.505133 12.2817699 120.106195 11.9589381 118.450973 11.9589381 116.961416 11.9589381 115.685664 12.2817699 114.626549 12.9274336 113.566018 13.5730973 112.696637 14.4099115 112.018407 15.4364602 111.338761 16.4630088 110.843186 17.6297345 110.52885 18.9380531 110.214513 20.2463717 110.057345 21.5617699 110.057345 22.8856637 110.057345 24.2109735 110.214513 25.5277876 110.52885 26.8346903zM139.706903.239292035L139.706903 5.2559292 136.577699 5.2559292 136.577699.239292035 139.706903.239292035zM139.706903 10.0729204L139.706903 35.699823 136.577699 35.699823 136.577699 10.0729204 139.706903 10.0729204zM166.749735 38.7299115C166.334867 40.2534513 165.682124 41.5447788 164.787257 42.6038938 163.892389 43.6630088 162.725664 44.4743363 161.285664 45.0378761 159.845664 45.6 158.081416 45.8817699 155.995752 45.8817699 154.704425 45.8817699 153.445664 45.7330973 152.220885 45.4343363 150.996106 45.1369912 149.894513 44.6725664 148.918938 44.0438938 147.941947 43.4138053 147.130619 42.6109735 146.484956 41.6353982 145.839292 40.6584071 145.466903 39.4916814 145.367788 38.1338053L148.496991 38.1338053C148.662655 39.0938053 148.985487 39.8966372 149.465487 40.5437168 149.945487 41.1893805 150.524602 41.7104425 151.204248 42.1083186 151.882478 42.5061947 152.635752 42.7950442 153.464071 42.9776991 154.290973 43.1589381 155.134867 43.2509735 155.997168 43.2509735 158.909735 43.2509735 161.013805 42.4226549 162.305133 40.7674336 163.59646 39.1107965 164.242124 36.7277876 164.242124 33.6155752L164.242124 30.1380531 164.143009 30.1380531C163.413805 31.7281416 162.346195 33.0024779 160.940177 33.9624779 159.532743 34.9224779 157.886018 35.4024779 155.998584 35.4024779 153.945487 35.4024779 152.19115 35.0626549 150.734159 34.3844248 149.277168 33.7061947 148.07646 32.7702655 147.133451 31.5780531 146.190442 30.3858407 145.502301 28.9883186 145.071858 27.3812389 144.641416 25.7755752 144.426195 24.0623009 144.426195 22.2414159 144.426195 20.4870796 144.682478 18.8233628 145.19646 17.2502655 145.709027 15.6785841 146.453805 14.3037168 147.430796 13.1284956 148.406372 11.9532743 149.615575 11.0258407 151.056991 10.3476106 152.496991 9.66938053 154.143717 9.32955752 155.998584 9.32955752 156.958584 9.32955752 157.860531 9.46265487 158.705841 9.72743363 159.549735 9.99362832 160.32 10.3646018 161.015221 10.8446018 161.710442 11.3246018 162.332035 11.879646 162.878584 12.5083186 163.425133 13.1384071 163.84708 13.799646 164.144425 14.4948673L164.24354 14.4948673 164.24354 10.0743363 167.372743 10.0743363 167.372743 33.6155752C167.371327 35.5015929 167.163186 37.2063717 166.749735 38.7299115zM159.573805 31.900885C160.598938 31.3217699 161.461239 30.56 162.15646 29.6169912 162.851681 28.6739823 163.372743 27.5893805 163.721062 26.3646018 164.069381 25.139823 164.242124 23.8810619 164.242124 22.5897345 164.242124 21.3323894 164.093451 20.0736283 163.79469 18.8148673 163.497345 17.5575221 163.015929 16.4148673 162.35469 15.3883186 161.692035 14.3631858 160.839646 13.5348673 159.797522 12.9047788 158.753982 12.2761062 157.488142 11.9617699 155.998584 11.9617699 154.509027 11.9617699 153.233274 12.2676106 152.174159 12.880708 151.113628 13.4938053 150.237168 14.2966372 149.541947 15.2892035 148.846726 16.2817699 148.341239 17.4173451 148.026903 18.6916814 147.71115 19.9660177 147.555398 21.2658407 147.555398 22.5911504 147.555398 23.8824779 147.721062 25.1412389 148.052389 26.3660177 148.382301 27.5907965 148.896283 28.6753982 149.591504 29.6184071 150.286726 30.5614159 151.163186 31.3246018 152.223717 31.9023009 153.282832 32.4828319 154.540177 32.7716814 155.998584 32.7716814 157.355044 32.7702655 158.547257 32.4814159 159.573805 31.900885zM176.509735.239292035L176.509735 5.2559292 173.380531 5.2559292 173.380531.239292035 176.509735.239292035zM176.509735 10.0729204L176.509735 35.699823 173.380531 35.699823 173.380531 10.0729204 176.509735 10.0729204z"/>
      <path d="M192.699469,10.0729204 L192.699469,12.7051327 L187.484602,12.7051327 L187.484602,29.9893805 C187.484602,31.0159292 187.624779,31.8187611 187.906549,32.3978761 C188.186903,32.9784071 188.892035,33.3012389 190.017699,33.3663717 C190.91115,33.3663717 191.806018,33.3168142 192.699469,33.2176991 L192.699469,35.8499115 C192.235044,35.8499115 191.772035,35.8654867 191.309027,35.899469 C190.844602,35.9320354 190.381593,35.9490265 189.918584,35.9490265 C187.83292,35.9490265 186.374513,35.5440708 185.547611,34.7313274 C184.719292,33.92 184.322832,32.4219469 184.355398,30.2371681 L184.355398,12.7051327 L179.88531,12.7051327 L179.88531,10.0729204 L184.355398,10.0729204 L184.355398,2.37451327 L187.484602,2.37451327 L187.484602,10.0729204 L192.699469,10.0729204 L192.699469,10.0729204 Z"/>
      <path fill-rule="nonzero" d="M197.864779,14.0460177 C198.394336,12.9529204 199.115044,12.059469 200.025487,11.3642478 C200.935929,10.6690265 202.00354,10.1564602 203.228319,9.82513274 C204.453097,9.49522124 205.810973,9.32814159 207.301947,9.32814159 C208.426195,9.32814159 209.553274,9.43575221 210.678938,9.65097345 C211.804602,9.86619469 212.814159,10.2725664 213.709027,10.8672566 C214.602478,11.4633628 215.331681,12.300177 215.893805,13.3762832 C216.455929,14.4523894 216.737699,15.8513274 216.737699,17.5730973 L216.737699,31.1815929 C216.737699,32.4389381 217.350796,33.0676106 218.575575,33.0676106 C218.939469,33.0676106 219.270796,33.0010619 219.568142,32.8693805 L219.568142,35.5015929 C219.204248,35.5681416 218.88,35.6176991 218.599646,35.6502655 C218.317876,35.6842478 217.962478,35.699823 217.532035,35.699823 C216.737699,35.699823 216.100531,35.5936283 215.620531,35.3769912 C215.139115,35.1617699 214.768142,34.8545133 214.501947,34.4580531 C214.237168,34.060177 214.063009,33.5886726 213.980885,33.0421239 C213.897345,32.4955752 213.856283,31.8923894 213.856283,31.2283186 L213.757168,31.2283186 C213.193628,32.0566372 212.623009,32.7929204 212.043894,33.4385841 C211.464779,34.0842478 210.819115,34.6237168 210.106903,35.0527434 C209.39469,35.4831858 208.583363,35.8145133 207.67292,36.0453097 C206.762478,36.2761062 205.677876,36.3936283 204.420531,36.3936283 C203.228319,36.3936283 202.11115,36.2520354 201.069027,35.9716814 C200.025487,35.6913274 199.115044,35.2438938 198.337699,34.6307965 C197.558938,34.019115 196.947257,33.240354 196.499823,32.2959292 C196.052389,31.3529204 195.828673,30.2357522 195.828673,28.9444248 C195.828673,27.1561062 196.226549,25.7571681 197.020885,24.7476106 C197.816637,23.7380531 198.865841,22.9692035 200.174159,22.4382301 C201.482478,21.9086726 202.95646,21.5362832 204.59469,21.3210619 C206.23292,21.1058407 207.898053,20.899115 209.585841,20.700885 C210.24708,20.6343363 210.827611,20.5522124 211.324602,20.4530973 C211.821593,20.3539823 212.235044,20.179823 212.566372,19.9320354 C212.896283,19.6842478 213.152566,19.3444248 213.335221,18.9139823 C213.51646,18.4835398 213.608496,17.92 213.608496,17.2247788 C213.608496,16.1656637 213.434336,15.2962832 213.086018,14.6180531 C212.737699,13.939823 212.257699,13.400354 211.646018,13.0038938 C211.03292,12.6060177 210.320708,12.3327434 209.510796,12.1840708 C208.699469,12.0353982 207.828673,11.960354 206.902655,11.960354 C204.916106,11.960354 203.293451,12.4318584 202.036106,13.3762832 C200.777345,14.319292 200.116106,15.8343363 200.048142,17.92 L196.918938,17.92 C197.019469,16.4304425 197.333805,15.139115 197.864779,14.0460177 Z M213.509381,21.6948673 C213.309735,22.060177 212.92885,22.3249558 212.366726,22.4892035 C211.804602,22.6548673 211.307611,22.7709735 210.877168,22.8361062 C209.551858,23.0683186 208.186903,23.2764602 206.779469,23.4576991 C205.372035,23.640354 204.089204,23.9136283 202.930973,24.2775221 C201.771327,24.6428319 200.819823,25.1638938 200.075044,25.8421239 C199.330265,26.5217699 198.957876,27.4888496 198.957876,28.7476106 C198.957876,29.5433628 199.115044,30.2470796 199.429381,30.8587611 C199.743717,31.4718584 200.165664,32.0014159 200.695221,32.4488496 C201.224779,32.8962832 201.837876,33.2361062 202.533097,33.4669027 C203.228319,33.699115 203.940531,33.8152212 204.668319,33.8152212 C205.860531,33.8152212 207.003186,33.6339823 208.094867,33.2686726 C209.187965,32.9047788 210.139469,32.3738053 210.950796,31.6785841 C211.760708,30.9833628 212.407788,30.139469 212.887788,29.1454867 C213.367788,28.1515044 213.608496,27.0272566 213.608496,25.7684956 L213.608496,21.6962832 L213.509381,21.6962832 L213.509381,21.6948673 Z"/>
      <polygon points="226.173 .239 226.173 35.7 223.044 35.7 223.044 .239"/>
      <path fill-rule="nonzero" d="M256.369558 35.699823L251.006018 35.699823 251.006018 32.2237168 250.906903 32.2237168C250.145133 33.7132743 249.03646 34.780885 247.579469 35.4265487 246.122478 36.0722124 244.581947 36.3950442 242.960708 36.3950442 240.940177 36.3950442 239.177345 36.039646 237.670796 35.3274336 236.164248 34.6166372 234.913982 33.6481416 233.921416 32.4219469 232.927434 31.1971681 232.182655 29.7486726 231.68708 28.0764602 231.190088 26.4056637 230.942301 24.6088496 230.942301 22.6874336 230.942301 20.3709735 231.256637 18.3660177 231.88531 16.6782301 232.513982 14.9890265 233.350796 13.5985841 234.394336 12.5069027 235.437876 11.4138053 236.628673 10.6123894 237.969558 10.0984071 239.310442 9.58584071 240.676814 9.32814159 242.067257 9.32814159 242.863009 9.32814159 243.67292 9.40176991 244.501239 9.55185841 245.328142 9.70053097 246.122478 9.94123894 246.884248 10.2725664 247.646018 10.6038938 248.349735 11.0258407 248.995398 11.5384071 249.641062 12.0523894 250.179115 12.6555752 250.609558 13.3507965L250.710088 13.3507965 250.710088.239292035 256.370973.239292035 256.370973 35.699823 256.369558 35.699823zM236.603186 23.1348673C236.603186 24.2279646 236.743363 25.3040708 237.025133 26.3631858 237.305487 27.4223009 237.737345 28.3667257 238.31646 29.1936283 238.895575 30.0219469 239.633274 30.6846018 240.526726 31.1815929 241.421593 31.6771681 242.479292 31.9263717 243.705487 31.9263717 244.962832 31.9263717 246.047434 31.6615929 246.959292 31.1320354 247.869735 30.6024779 248.614513 29.9072566 249.193628 29.0463717 249.772743 28.1854867 250.203186 27.2169912 250.484956 26.140885 250.76531 25.0647788 250.906903 23.9631858 250.906903 22.8375221 250.906903 19.9915044 250.269735 17.7727434 248.993982 16.1826549 247.71823 14.5925664 245.989381 13.7982301 243.804602 13.7982301 242.479292 13.7982301 241.362124 14.0715044 240.451681 14.6180531 239.539823 15.1646018 238.79646 15.8768142 238.217345 16.7532743 237.63823 17.6311504 237.224779 18.6237168 236.975575 19.7338053 236.727788 20.8424779 236.603186 21.9766372 236.603186 23.1348673zM274.299469 36.3950442C272.246372 36.3950442 270.416991 36.0552212 268.811327 35.3769912 267.204248 34.6987611 265.847788 33.7628319 264.739115 32.5706195 263.629027 31.3784071 262.785133 29.9553982 262.206018 28.2987611 261.626903 26.6435398 261.338053 24.8226549 261.338053 22.8346903 261.338053 20.8821239 261.626903 19.0782301 262.206018 17.4215929 262.785133 15.7663717 263.630442 14.3419469 264.739115 13.1497345 265.847788 11.9575221 267.205664 11.0230088 268.811327 10.3433628 270.416991 9.66513274 272.246372 9.32530973 274.299469 9.32530973 276.352566 9.32530973 278.181947 9.66513274 279.787611 10.3433628 281.393274 11.0230088 282.75115 11.9575221 283.861239 13.1497345 284.969912 14.3419469 285.813805 15.7663717 286.394336 17.4215929 286.973451 19.0782301 287.263717 20.8821239 287.263717 22.8346903 287.263717 24.8226549 286.973451 26.6435398 286.394336 28.2987611 285.815221 29.9553982 284.969912 31.3784071 283.861239 32.5706195 282.75115 33.7628319 281.393274 34.6987611 279.787611 35.3769912 278.181947 36.0552212 276.35115 36.3950442 274.299469 36.3950442zM274.299469 31.9249558C275.556814 31.9249558 276.649912 31.660177 277.577345 31.1306195 278.504779 30.6010619 279.266549 29.9058407 279.862655 29.0449558 280.458761 28.1840708 280.897699 27.2155752 281.179469 26.139469 281.459823 25.0633628 281.601416 23.9617699 281.601416 22.8361062 281.601416 21.7444248 281.459823 20.6513274 281.179469 19.5582301 280.897699 18.4651327 280.458761 17.4966372 279.862655 16.6527434 279.266549 15.8088496 278.504779 15.1221239 277.577345 14.5911504 276.649912 14.0615929 275.556814 13.7968142 274.299469 13.7968142 273.040708 13.7968142 271.949027 14.0630088 271.021593 14.5911504 270.094159 15.120708 269.333805 15.8074336 268.737699 16.6527434 268.141593 17.4966372 267.702655 18.4651327 267.420885 19.5582301 267.139115 20.6513274 266.997522 21.7430088 266.997522 22.8361062 266.997522 23.9617699 267.139115 25.0633628 267.420885 26.139469 267.701239 27.2155752 268.141593 28.1840708 268.737699 29.0449558 269.333805 29.9058407 270.094159 30.6010619 271.021593 31.1306195 271.947611 31.6615929 273.040708 31.9249558 274.299469 31.9249558z"/>
      <polygon points="289.645 10.023 295.655 10.023 300.671 29.194 300.772 29.194 305.589 10.023 311.301 10.023 315.919 29.194 316.02 29.194 321.235 10.023 326.996 10.023 318.951 35.7 313.14 35.7 308.372 16.629 308.273 16.629 303.555 35.7 297.596 35.7"/>
      <path d="M330.618053,10.0233628 L335.981593,10.0233628 L335.981593,13.7982301 L336.080708,13.8973451 C336.941593,12.4743363 338.067257,11.3557522 339.457699,10.5444248 C340.848142,9.73309735 342.387257,9.32814159 344.07646,9.32814159 C346.889912,9.32814159 349.108673,10.0573451 350.731327,11.5129204 C352.353982,12.9699115 353.16531,15.1561062 353.16531,18.0686726 L353.16531,35.699823 L347.504425,35.699823 L347.504425,19.5582301 C347.437876,17.539115 347.007434,16.0736283 346.213097,15.1631858 C345.417345,14.2527434 344.176991,13.7968142 342.487788,13.7968142 C341.527788,13.7968142 340.666903,13.9709735 339.905133,14.319292 C339.143363,14.6661947 338.497699,15.1476106 337.968142,15.759292 C337.438584,16.3723894 337.025133,17.0930973 336.726372,17.92 C336.427611,18.7483186 336.278938,19.6261947 336.278938,20.5522124 L336.278938,35.699823 L330.618053,35.699823 L330.618053,10.0233628 L330.618053,10.0233628 Z"/>
      <polygon points="359.275 .239 364.937 .239 364.937 35.7 359.275 35.7 359.275 .239"/>
      <path fill-rule="nonzero" d="M382.865841 36.3950442C380.812743 36.3950442 378.983363 36.0552212 377.377699 35.3769912 375.770619 34.6987611 374.414159 33.7628319 373.305487 32.5706195 372.195398 31.3784071 371.351504 29.9553982 370.772389 28.2987611 370.193274 26.6435398 369.904425 24.8226549 369.904425 22.8346903 369.904425 20.8821239 370.193274 19.0782301 370.772389 17.4215929 371.351504 15.7663717 372.196814 14.3419469 373.305487 13.1497345 374.414159 11.9575221 375.772035 11.0230088 377.377699 10.3433628 378.983363 9.66513274 380.812743 9.32530973 382.865841 9.32530973 384.918938 9.32530973 386.748319 9.66513274 388.353982 10.3433628 389.959646 11.0230088 391.317522 11.9575221 392.427611 13.1497345 393.536283 14.3419469 394.380177 15.7663717 394.960708 17.4215929 395.539823 19.0782301 395.830088 20.8821239 395.830088 22.8346903 395.830088 24.8226549 395.539823 26.6435398 394.960708 28.2987611 394.381593 29.9553982 393.536283 31.3784071 392.427611 32.5706195 391.317522 33.7628319 389.959646 34.6987611 388.353982 35.3769912 386.746903 36.0552212 384.917522 36.3950442 382.865841 36.3950442zM382.865841 31.9249558C384.123186 31.9249558 385.216283 31.660177 386.143717 31.1306195 387.07115 30.6010619 387.83292 29.9058407 388.429027 29.0449558 389.025133 28.1840708 389.464071 27.2155752 389.745841 26.139469 390.026195 25.0633628 390.167788 23.9617699 390.167788 22.8361062 390.167788 21.7444248 390.027611 20.6513274 389.745841 19.5582301 389.464071 18.4651327 389.025133 17.4966372 388.429027 16.6527434 387.83292 15.8088496 387.07115 15.1221239 386.143717 14.5911504 385.216283 14.0615929 384.123186 13.7968142 382.865841 13.7968142 381.60708 13.7968142 380.515398 14.0630088 379.587965 14.5911504 378.660531 15.120708 377.900177 15.8074336 377.304071 16.6527434 376.707965 17.4966372 376.269027 18.4651327 375.987257 19.5582301 375.705487 20.6513274 375.563894 21.7430088 375.563894 22.8361062 375.563894 23.9617699 375.705487 25.0633628 375.987257 26.139469 376.267611 27.2155752 376.707965 28.1840708 377.304071 29.0449558 377.900177 29.9058407 378.660531 30.6010619 379.587965 31.1306195 380.513982 31.6615929 381.60708 31.9249558 382.865841 31.9249558zM422.050265 29.9893805C422.050265 30.6846018 422.140885 31.1815929 422.32354 31.4789381 422.504779 31.7762832 422.861593 31.9263717 423.39115 31.9263717 423.556814 31.9263717 423.755044 31.9263717 423.987257 31.9263717 424.218053 31.9263717 424.482832 31.8938053 424.781593 31.8272566L424.781593 35.7507965C424.583363 35.8173451 424.32708 35.8909735 424.012743 35.9745133 423.696991 36.0566372 423.374159 36.1316814 423.044248 36.1982301 422.71292 36.2647788 422.381593 36.3129204 422.050265 36.3469027 421.718938 36.380885 421.437168 36.3964602 421.206372 36.3964602 420.048142 36.3964602 419.086726 36.1642478 418.326372 35.7012389 417.564602 35.2382301 417.067611 34.4269027 416.836814 33.2672566 415.71115 34.3589381 414.327788 35.1546903 412.689558 35.6502655 411.049912 36.1472566 409.469735 36.3950442 407.947611 36.3950442 406.787965 36.3950442 405.679292 36.2378761 404.620177 35.9235398 403.559646 35.6092035 402.625133 35.1461947 401.813805 34.5330973 401.002478 33.92 400.356814 33.1426549 399.876814 32.1982301 399.396814 31.2552212 399.156106 30.1536283 399.156106 28.8948673 399.156106 27.3061947 399.446372 26.0148673 400.025487 25.020885 400.604602 24.0283186 401.366372 23.2495575 402.310796 22.6860177 403.253805 22.1238938 404.31292 21.7175221 405.488142 21.4697345 406.663363 21.2219469 407.84708 21.0307965 409.039292 20.8976991 410.065841 20.699469 411.042832 20.559292 411.96885 20.4757522 412.896283 20.3936283 413.71469 20.2520354 414.426903 20.0538053 415.139115 19.8555752 415.701239 19.5497345 416.116106 19.1348673 416.529558 18.7214159 416.737699 18.1012389 416.737699 17.2729204 416.737699 16.5451327 416.56354 15.9490265 416.215221 15.4846018 415.866903 15.0215929 415.43646 14.6647788 414.923894 14.4169912 414.409912 14.1692035 413.839292 14.0035398 413.210619 13.92 412.580531 13.8378761 411.985841 13.7953982 411.422301 13.7953982 409.832212 13.7953982 408.523894 14.1267257 407.498761 14.7893805 406.472212 15.4520354 405.891681 16.4785841 405.76 17.8690265L400.097699 17.8690265C400.19823 16.2138053 400.59469 14.8389381 401.289912 13.7472566 401.985133 12.6541593 402.870088 11.7776991 403.947611 11.1150442 405.022301 10.4538053 406.238584 9.98938053 407.597876 9.72460177 408.955752 9.45982301 410.346195 9.32672566 411.770619 9.32672566 413.027965 9.32672566 414.269735 9.45982301 415.495929 9.72460177 416.720708 9.99079646 417.822301 10.419823 418.799292 11.0159292 419.774867 11.6120354 420.562124 12.3823009 421.15823 13.3253097 421.754336 14.2683186 422.051681 15.419469 422.051681 16.7773451L422.051681 29.9893805 422.050265 29.9893805zM416.389381 22.8361062C415.52708 23.399646 414.467965 23.739469 413.210619 23.8541593 411.951858 23.9702655 410.694513 24.1444248 409.435752 24.3766372 408.839646 24.4757522 408.260531 24.6173451 407.696991 24.7985841 407.133451 24.9812389 406.63646 25.2290265 406.206018 25.5433628 405.775575 25.859115 405.437168 26.2725664 405.187965 26.7851327 404.940177 27.299115 404.815575 27.919292 404.815575 28.6470796 404.815575 29.2771681 404.996814 29.8067257 405.362124 30.2371681 405.726018 30.6676106 406.16354 31.0060177 406.677522 31.2552212 407.191504 31.5030088 407.753628 31.6771681 408.366726 31.7762832 408.978407 31.8768142 409.533451 31.9249558 410.030442 31.9249558 410.659115 31.9249558 411.337345 31.8428319 412.066549 31.6771681 412.795752 31.5115044 413.482478 31.2297345 414.128142 30.8332743 414.773805 30.4368142 415.310442 29.9327434 415.742301 29.3182301 416.172743 28.7065487 416.387965 27.9532743 416.387965 27.0584071L416.387965 22.8361062 416.389381 22.8361062zM452.346903 35.699823L446.983363 35.699823 446.983363 32.2237168 446.884248 32.2237168C446.122478 33.7132743 445.013805 34.780885 443.556814 35.4265487 442.099823 36.0722124 440.559292 36.3950442 438.938053 36.3950442 436.917522 36.3950442 435.15469 36.039646 433.648142 35.3274336 432.141593 34.6166372 430.891327 33.6481416 429.898761 32.4219469 428.904779 31.1971681 428.16 29.7486726 427.664425 28.0764602 427.167434 26.4056637 426.919646 24.6088496 426.919646 22.6874336 426.919646 20.3709735 427.233982 18.3660177 427.862655 16.6782301 428.491327 14.9890265 429.328142 13.5985841 430.371681 12.5069027 431.415221 11.4138053 432.606018 10.6123894 433.946903 10.0984071 435.287788 9.58584071 436.654159 9.32814159 438.044602 9.32814159 438.840354 9.32814159 439.650265 9.40176991 440.478584 9.55185841 441.305487 9.70053097 442.099823 9.94123894 442.861593 10.2725664 443.623363 10.6038938 444.32708 11.0258407 444.972743 11.5384071 445.618407 12.0523894 446.15646 12.6555752 446.586903 13.3507965L446.687434 13.3507965 446.687434.239292035 452.348319.239292035 452.348319 35.699823 452.346903 35.699823zM432.580531 23.1348673C432.580531 24.2279646 432.720708 25.3040708 433.002478 26.3631858 433.282832 27.4223009 433.71469 28.3667257 434.293805 29.1936283 434.87292 30.0219469 435.610619 30.6846018 436.504071 31.1815929 437.398938 31.6771681 438.456637 31.9263717 439.682832 31.9263717 440.940177 31.9263717 442.024779 31.6615929 442.936637 31.1320354 443.84708 30.6024779 444.591858 29.9072566 445.170973 29.0463717 445.750088 28.1854867 446.180531 27.2169912 446.462301 26.140885 446.742655 25.0647788 446.884248 23.9631858 446.884248 22.8375221 446.884248 19.9915044 446.24708 17.7727434 444.971327 16.1826549 443.695575 14.5925664 441.966726 13.7982301 439.781947 13.7982301 438.456637 13.7982301 437.339469 14.0715044 436.429027 14.6180531 435.517168 15.1646018 434.773805 15.8768142 434.19469 16.7532743 433.615575 17.6311504 433.202124 18.6237168 432.95292 19.7338053 432.703717 20.8424779 432.580531 21.9766372 432.580531 23.1348673z"/>
      <path d="M462.776637,27.4548673 C462.942301,29.1115044 463.570973,30.2697345 464.664071,30.9323894 C465.757168,31.5950442 467.064071,31.9249558 468.587611,31.9249558 C469.115752,31.9249558 469.72177,31.8838938 470.4,31.800354 C471.07823,31.7182301 471.716814,31.5610619 472.31292,31.3288496 C472.909027,31.0980531 473.396106,30.7582301 473.776991,30.3107965 C474.157876,29.8633628 474.332035,29.2757522 474.299469,28.5479646 C474.265487,27.820177 474.000708,27.2240708 473.505133,26.759646 C473.008142,26.2966372 472.370973,25.9242478 471.592212,25.6424779 C470.813451,25.3621239 469.928496,25.12 468.935929,24.9217699 C467.941947,24.7235398 466.932389,24.5083186 465.905841,24.2761062 C464.84531,24.0453097 463.827257,23.7635398 462.851681,23.4322124 C461.87469,23.100885 460.996814,22.6548673 460.219469,22.0913274 C459.440708,21.5292035 458.820531,20.8084956 458.357522,19.9306195 C457.893097,19.0541593 457.662301,17.9681416 457.662301,16.6768142 C457.662301,15.2863717 458.002124,14.119646 458.680354,13.1752212 C459.358584,12.2307965 460.219469,11.4704425 461.263009,10.8913274 C462.306549,10.3122124 463.464779,9.90584071 464.739115,9.67504425 C466.013451,9.44424779 467.23115,9.32814159 468.389381,9.32814159 C469.713274,9.32814159 470.980531,9.46973451 472.189735,9.7500885 C473.397522,10.0318584 474.490619,10.4877876 475.467611,11.1164602 C476.443186,11.7465487 477.255929,12.5649558 477.901593,13.5745133 C478.547257,14.5854867 478.952212,15.8017699 479.119292,17.2247788 L473.209204,17.2247788 C472.944425,15.8683186 472.322832,14.9578761 471.347257,14.4934513 C470.370265,14.0304425 469.253097,13.7982301 467.995752,13.7982301 C467.597876,13.7982301 467.126372,13.8322124 466.579823,13.8973451 C466.033274,13.9638938 465.519292,14.0884956 465.040708,14.2697345 C464.560708,14.4523894 464.154336,14.7171681 463.823009,15.0640708 C463.491681,15.4109735 463.327434,15.8669027 463.327434,16.4304425 C463.327434,17.1256637 463.566726,17.6892035 464.046726,18.119646 C464.526726,18.5500885 465.156814,18.9069027 465.934159,19.1872566 C466.711504,19.4690265 467.597876,19.7083186 468.591858,19.9065487 C469.584425,20.1047788 470.610973,20.3214159 471.670088,20.5522124 C472.696637,20.7844248 473.706195,21.0661947 474.700177,21.3961062 C475.692743,21.7274336 476.577699,22.1748673 477.35646,22.7369912 C478.133805,23.299115 478.763894,24.0113274 479.243894,24.8722124 C479.723894,25.7345133 479.964602,26.7922124 479.964602,28.0509735 C479.964602,29.5745133 479.616283,30.8658407 478.921062,31.9249558 C478.224425,32.9854867 477.322478,33.8463717 476.213805,34.5076106 C475.103717,35.1702655 473.870442,35.6502655 472.513982,35.9476106 C471.156106,36.2449558 469.815221,36.3950442 468.491327,36.3950442 C466.868673,36.3950442 465.370619,36.2123894 463.997168,35.8484956 C462.622301,35.4846018 461.430088,34.9295575 460.420531,34.1847788 C459.409558,33.44 458.615221,32.5139823 458.037522,31.4038938 C457.456991,30.2938053 457.15115,28.9784071 457.118584,27.4548673 L462.776637,27.4548673 Z"/>
    </g>
  </g>
</svg>
