<svg height="360" viewBox="0 0 640 360" width="640" xmlns="http://www.w3.org/2000/svg"><g fill="#1d2428" fill-rule="evenodd"><g transform="translate(244.248 68)"><path d="m128.301593 21.7741593c-13.449912-13.4541593-32.0396461-21.7741593-52.5663718-21.7741593-20.5323893 0-39.119292 8.32-52.5734513 21.7741593-13.45699114 13.4541593-21.77699114 32.0438938-21.77699114 52.5734513s8.32 39.1192924 21.77415934 52.5734514c13.4541592 13.456991 32.0438938 21.774159 52.5762831 21.774159 20.5295576 0 39.1192918-8.324248 52.5692038-21.774159 13.454159-13.456991 21.774159-32.0438939 21.774159-52.5734514s-8.322832-39.119292-21.776991-52.5734513zm-2.452389 102.6888497c-12.824071 12.825487-30.5444252 20.758938-50.1168146 20.758938s-37.2941593-7.933451-50.119646-20.758938c-12.8254868-12.825487-20.75893809-30.5444249-20.75893809-50.1153984 0-19.5723894 7.93345129-37.2913274 20.75893809-50.1168141 12.8254867-12.8254868 30.5444247-20.75893809 50.1168141-20.75893809s37.2913275 7.93345129 50.1168145 20.75893809c12.825486 12.8254867 20.757523 30.5444247 20.757523 50.1168141.002831 19.5709735-7.930621 37.2913274-20.754691 50.1153984z" fill-rule="nonzero"/><path d="m139.689912 73.7274336c-.33416-35.038584-28.838231-63.340177-63.9546908-63.340177-35.119292 0-63.6261947 28.3044248-63.9546902 63.3430089l29.3267256-29.3267257 9.8350443 9.8350443-21.461239 21.4612389h92.5069031l-21.461239-21.4612389 9.835044-9.8350443zm-63.9575226-10.9904424-27.2509735-28.5961062h18.1097345v-14.0955753c0-3.658761 4.1146903-6.6576991 9.141239-6.6576991s9.1412389 2.9961062 9.1412389 6.6576991v14.0955753h18.1097347z" fill-rule="nonzero"/><path d="m83.6814159 110.343363c-1.4527433-.944425-3.2934513-1.793982-5.5136283-2.531682-1.6976991-.584778-3.0952212-1.136991-4.1854867-1.66938-1.0817699-.526726-1.880354-1.111505-2.3915044-1.72885-.5238938-.628672-.7688496-1.381947-.7688496-2.245663 0-.690974.2081416-1.347965.6541593-1.969558.4375221-.6201769 1.1214159-1.1369911 2.0502655-1.5277875.938761-.3964602 2.1338053-.6102655 3.6176991-.6173452 1.1950442.0056638 2.2867257.1019469 3.2736283.2732744.9755752.1769911 1.840708.3907964 2.581239.6357522.7504424.2534513 1.3564601.4927434 1.8336283.7178761l1.6509734-4.9784071c-.9982301-.5012389-2.2484956-.9175221-3.7663717-1.2545133-1.2884955-.2846017-2.7638938-.4488495-4.438938-.5054867v-5.1511504h-4.5380531v5.4088495c-.7277876.1175222-1.4258407.2761062-2.0856637.4672567-1.6693806.4927433-3.1037168 1.1766371-4.2902655 2.0700885-1.1766372.8892035-2.0884956 1.9299115-2.7143363 3.1221239-.6286726 1.1922119-.9387611 2.5061949-.9515044 3.9192919.0084956 1.635398.4375221 3.076814 1.2828318 4.321416.8453098 1.246018 2.0502655 2.326372 3.6063717 3.252389 1.5490266.923186 3.3982301 1.718938 5.5362832 2.388673 1.6042478.513982 2.9125664 1.050619 3.9093805 1.601416.9982301.547965 1.7288496 1.152566 2.1833629 1.812389.4644247.659823.6938053 1.424425.6853097 2.279646 0 .938761-.2761062 1.752921-.8141593 2.456637-.5323894.693806-1.319646 1.238939-2.3546903 1.625487-1.0350442.390797-2.2980531.581947-3.779115.59469-1.2049558-.008495-2.3730973-.111858-3.5129204-.307256-1.1313274-.203894-2.1932743-.467257-3.1716814-.795752-.9883186-.328496-1.8520354-.68531-2.6024778-1.084602l-1.5957523 5.185133c.7221239.39646 1.6226549.753274 2.7256638 1.081769 1.1030088.331328 2.3164601.594691 3.6460177.795753 1.319646.195398 2.6761062.294513 4.0552212.307256l.2421239-.002832v5.32531h4.5380531v-5.75292c.5762832-.111859 1.1242478-.244956 1.6453097-.399292 1.820885-.547965 3.3330974-1.295575 4.5295575-2.252744 1.2049558-.948672 2.0969912-2.047433 2.6888496-3.286371.5890266-1.238938.8835398-2.550089.8835398-3.946195 0-1.635398-.3497345-3.082478-1.0718584-4.32708-.7292035-1.255929-1.8138053-2.356106-3.2722124-3.30761z"/></g><g transform="translate(80 243.575)"><path d="m5.66230088 24.3270796c0 .9925664.140177 1.9539823.42194691 2.88.28035398.9274337.70230088 1.7387611 1.26584071 2.4339823.56212389.6952213 1.27433628 1.2502655 2.13522123 1.6637169.86088497.4148672 1.88743367.6215929 3.07964607.6215929 1.6552212 0 2.9876106-.3553982 3.998584-1.0676106 1.0095575-.7107965 1.7628319-1.7784071 2.259823-3.2028319h5.3635399c-.2973452 1.3904425-.8113275 2.6322124-1.5391151 3.7253097-.7292035 1.0930974-1.6070796 2.0120354-2.6322124 2.7553983-1.0265487.7447787-2.1776991 1.3083186-3.4520354 1.6892035-1.2757522.379469-2.6081416.5706195-3.998584.5706195-2.020531 0-3.80743368-.3313275-5.36353987-.9925664-1.55752212-.6626549-2.87292035-1.5900885-3.94902655-2.7823009-1.07610619-1.1922124-1.88743363-2.6152212-2.4339823-4.2704425-.54513274-1.6566371-.81840708-3.4775221-.81840708-5.4640708 0-1.8208849.29026549-3.5511504.86938053-5.1893805.57911505-1.6382301 1.40743363-3.079646 2.48353982-4.3214159 1.0761062-1.2417699 2.37592921-2.2272567 3.89946903-2.9550443 1.52212389-.72778757 3.24389382-1.09309731 5.16530972-1.09309731 2.0191151 0 3.8315044.42194691 5.4385841 1.26584071 1.6056637.8438938 2.9380531 1.9624779 3.9985841 3.3529204 1.059115 1.3904424 1.8293805 2.9890265 2.3093805 4.7929203.48 1.8053097.6046018 3.6672566.3723894 5.5872566zm13.21061952-3.7253097c-.0665487-.8934513-.2576992-1.7543363-.5720354-2.5826549-.3157523-.8269026-.7447788-1.5476106-1.2913275-2.1607079-.5465487-.6116814-1.2092035-1.1086726-1.9865487-1.4895575-.778761-.380885-1.6467256-.5720354-2.6067256-.5720354-.9939823 0-1.8959292.1741593-2.70725665.5224778-.81132743.3469027-1.50654867.8283186-2.08566372 1.44-.57911504.6130974-1.04353982 1.3338053-1.39044248 2.160708-.34831858.8283186-.53805309 1.7217699-.57061947 2.6817699zm31.4874336 9.3876106c0 .6952213.0906195 1.1922124.2732743 1.4895576.181239.2973451.5380531.4474336 1.0676106.4474336h.5961062c.2307965 0 .4969912-.0325664.7943363-.0991151v3.9235399c-.1982301.0665486-.4559292.140177-.7702655.2237168-.3157522.0821239-.6371681.1571681-.9684955.2237168-.3313275.0665487-.6626549.1146903-.9939823.1486726-.3313275.0339823-.6130974.0495575-.8438939.0495575-1.159646 0-2.119646-.2322124-2.88-.6952213-.7617699-.4630088-1.258761-1.2743362-1.4895575-2.4339823-1.1256637 1.0916815-2.5076106 1.8874337-4.1472566 2.3830089-1.6382301.4969911-3.219823.7447787-4.7433628.7447787-1.1596461 0-2.2683186-.1571681-3.3274337-.4715044-1.0605309-.3143363-1.9950442-.7773451-2.8063717-1.3904425-.8113274-.6130973-1.4569911-1.3904424-1.9369911-2.3348672-.48-.9430089-.720708-2.0446018-.720708-3.3033628 0-1.5886726.2888496-2.88.8693806-3.8739823.579115-.9925664 1.3408849-1.7713275 2.2838938-2.3348673.9430088-.5621239 2.0021239-.9684956 3.178761-1.2162832 1.1752213-.2477876 2.3589381-.438938 3.5511505-.5720354 1.0265486-.1982301 2.0035398-.3384071 2.9295575-.4219469.9260177-.0821239 1.7458407-.2237168 2.4580531-.4219469s1.2743363-.5040708 1.6892035-.918938c.4134514-.4134514.620177-1.0336284.620177-1.8619469 0-.7277877-.1741593-1.3238939-.5210619-1.7883186-.3483186-.4630089-.7787611-.819823-1.2913275-1.0676106-.5139823-.2477877-1.0846017-.4134514-1.7132743-.4969912-.6300885-.0821239-1.2247788-.1246018-1.7883186-.1246018-1.5886725 0-2.8984071.3313275-3.9235398.9939823-1.0265487.6626549-1.6070796 1.6892036-1.7387611 3.079646h-5.6623008c.099115-1.6552212.4969911-3.0300884 1.1922123-4.1217699.6952213-1.0930973 1.581593-1.9695575 2.6576992-2.6322124 1.0761062-.6612389 2.2923893-1.12566367 3.6502654-1.39044243 1.3564602-.26477876 2.7483186-.39787611 4.1713275-.39787611 1.2573451 0 2.499115.13309735 3.7253097.39787611 1.2247788.26619469 2.3263717.69522123 3.3033628 1.29132743.9755753.5961062 1.7628319 1.3663717 2.3589381 2.3093805.5961062.9430089.8934513 2.0941593.8934513 3.4520354v13.2120354zm-5.660885-7.1532743c-.8608849.5635398-1.92.9033628-3.178761 1.0180531-1.2587611.1161062-2.5161062.2902655-3.7748673.5224779-.5961062.099115-1.1752212.2407079-1.7387611.4219469-.5635398.1826548-1.0605309.4304424-1.4895575.7447787-.4304425.3157522-.7702655.7292036-1.0180531 1.2417699-.2477876.5139823-.3723894 1.1341593-.3723894 1.8619469 0 .6300885.181239 1.1596461.5465487 1.5900885.3638938.4304425.8028319.7688496 1.3168142 1.0180531.5125663.2477876 1.0746902.4219469 1.6892035.521062.6116814.100531 1.1667257.1486726 1.6637168.1486726.6286726 0 1.3083186-.0821239 2.0361062-.2477877.7277876-.1656637 1.4159292-.4474336 2.0615929-.8438938.6456638-.3964601 1.1837169-.9005309 1.6141593-1.5150442.4304425-.6116814.6456638-1.3649558.6456638-2.259823v-4.2223009z" fill-rule="nonzero"/><path d="m60.740531 27.4548673c.1656637 1.6566371.7943363 2.8148672 1.8874336 3.4775221 1.0930973.6626548 2.4.9925664 3.9235398.9925664.5295575 0 1.1341593-.041062 1.8123894-.1246018.6782301-.0821239 1.3168142-.2392921 1.9129204-.4715044.5961062-.2307965 1.0846017-.5706195 1.4654867-1.0180531.379469-.4474337.5536283-1.0350443.5210619-1.7628319-.0339823-.7277876-.2973451-1.3238938-.7943363-1.7883186-.4969911-.4630088-1.1341592-.8353982-1.9115044-1.1171681-.778761-.280354-1.6637168-.5224779-2.6576991-.720708s-2.0035398-.4134513-3.0300885-.6456637c-1.060531-.2307965-2.0785841-.5125664-3.0541593-.8438938-.9769911-.3313274-1.8548672-.7773451-2.6322124-1.340885-.778761-.5621239-1.398938-1.2828318-1.8619469-2.1607079-.4644247-.8764602-.6952212-1.9624779-.6952212-3.2538053 0-1.3904425.3384071-2.5571682 1.0180531-3.501593.6782301-.9430088 1.539115-1.7047787 2.5826549-2.2838938 1.0435398-.579115 2.2017699-.98548669 3.4761061-1.21628315 1.2743363-.23079646 2.4906195-.34690266 3.6502655-.34690266 1.3238938 0 2.5897345.14159292 3.7989381.42194691 1.2077876.2817699 2.3008849.7376991 3.2778761 1.3663717.9755752.6300885 1.7883186 1.4484956 2.4339823 2.4580531.6456637 1.0109734 1.0506195 2.2272566 1.2176991 3.6502655h-5.9100885c-.2661947-1.3564602-.8863717-2.2669027-1.8633628-2.7313275-.9769912-.4630088-2.0941593-.6952212-3.3529204-.6952212-.3978761 0-.8693805.0339823-1.4145132.099115-.5465487.0665487-1.060531.1911505-1.5391151.3723894-.48.1826549-.8863717.4474336-1.2162832.7943363-.3313274.3483186-.4969911.8028319-.4969911 1.3663717 0 .6952212.239292 1.258761.7207079 1.6892035.48.4304425 1.1086726.7872567 1.8874337 1.0676106.7773451.2817699 1.6637168.521062 2.6562832.7192921.9939823.1982301 2.019115.4148672 3.079646.6456637 1.0251327.2322124 2.0361062.5139823 3.0300885.8438938.9925663.3313274 1.878938.7787611 2.6576991 1.340885.7773451.5621238 1.4074336 1.2743362 1.8874336 2.1352212.48.8623009.719292 1.92.719292 3.1787611 0 1.5235398-.3483185 2.8148672-1.0435398 3.8739823-.6952212 1.0605309-1.5971681 1.9214159-2.7072566 2.5826548-1.1100885.6626549-2.3419469 1.1426549-3.699823 1.44-1.3578761.2973452-2.6987611.4474336-4.0226549.4474336-1.6226549 0-3.120708-.1826548-4.4941593-.5465486-1.3748672-.3638938-2.5656637-.9189381-3.5752212-1.6637168-1.0109735-.7447788-1.8053098-1.6707965-2.3844248-2.780885s-.8863717-2.4254867-.9189381-3.9490265zm18.6732743-17.4315045h6.2088496l6.7044247 19.1702655h.0991151l6.5061947-19.1702655h5.9100886l-9.982301 27.0669027c-.4644248 1.1582301-.9189381 2.2669026-1.3663717 3.3274336-.4474336 1.0591151-.9925664 1.9936283-1.6382301 2.8063717-.6456637.8113274-1.4484956 1.4569911-2.4084956 1.9369911s-2.1847787.720708-3.6757522.720708c-1.3253097 0-2.6322124-.099115-3.9235398-.2973451v-4.7688496c.4630089.0665487.9104425.1415929 1.340885.2237168.4304424.0821239.8764601.1246018 1.3408849.1246018.661239 0 1.2077876-.0821239 1.6382301-.2477876.4304425-.1670797.7858407-.4063717 1.0676106-.720708.280354-.3157522.521062-.6881416.720708-1.118584.1982301-.4304425.379469-.9274337.5465487-1.4895576l.6456637-1.9865486z"/><path d="m127.688496 35.699823v-4.8679646h-.099115c-.331328.8283186-.819823 1.5900885-1.465487 2.2853097-.645664.6952213-1.381947 1.2842478-2.210266 1.7628319-.828318.48-1.713274.8523894-2.657699 1.1171681-.943009.2647788-1.878938.3978761-2.806371.3978761-1.953983 0-3.650266-.3553982-5.090266-1.0676106-1.44-.7107964-2.640708-1.6877876-3.600708-2.9295575-.961416-1.2417699-1.672212-2.6817699-2.135221-4.3214159-.464425-1.639646-.695221-3.3684956-.695221-5.1907965 0-1.8208849.230796-3.5511504.695221-5.1893805.463009-1.6382301 1.175221-3.079646 2.135221-4.3214159.96-1.24177 2.160708-2.2272567 3.600708-2.9550443s3.136283-1.09309734 5.090266-1.09309734c.96 0 1.895929.1161062 2.806371.34690266.910443.23221239 1.762832.58761058 2.558584 1.06761058.794337.48 1.498053 1.0676107 2.111151 1.7628319.611681.6952212 1.084601 1.5065487 1.415929 2.4339823h.099115v-14.70017699h3.129204v35.46053099h-2.881416zm-17.159646-8.8651327c.314336 1.3083185.811327 2.4750442 1.489557 3.5015929s1.547611 1.8619469 2.608142 2.5076106c1.059115.6456637 2.334867.9684956 3.824424.9684956 1.655222 0 3.05416-.3228319 4.196815-.9684956 1.142654-.6456637 2.068672-1.4810619 2.780885-2.5076106.712212-1.0265487 1.224778-2.1932744 1.539115-3.5015929.314336-1.3083186.471504-2.6237168.471504-3.9490266 0-1.3238938-.157168-2.639292-.471504-3.9476106-.315753-1.3069027-.828319-2.4750443-1.539115-3.5015929-.712213-1.0265487-1.638231-1.8633629-2.780885-2.5090266-1.142655-.6456637-2.541593-.9684955-4.196815-.9684955-1.489557 0-2.765309.3228318-3.824424.9684955-1.060531.6456637-1.929912 1.4824779-2.608142 2.5090266-.679646 1.0265486-1.175221 2.1932743-1.489557 3.5015929-.314337 1.3083186-.471505 2.6237168-.471505 3.9476106 0 1.3253098.157168 2.6421239.471505 3.9490266zm29.178053-26.59539826v5.01663716h-3.129204v-5.01663716zm0 9.83362836v25.6269026h-3.129204v-25.6269026zm27.042832 28.6569911c-.414868 1.5235398-1.067611 2.8148673-1.962478 3.8739823-.894868 1.059115-2.061593 1.8704425-3.501593 2.4339823-1.44.5621239-3.204248.8438938-5.289912.8438938-1.291327 0-2.550088-.1486726-3.774867-.4474336-1.224779-.2973451-2.326372-.7617699-3.301947-1.3904425-.976991-.6300885-1.788319-1.4329203-2.433982-2.4084956-.645664-.9769911-1.018053-2.1437168-1.117168-3.5015929h3.129203c.165664.96.488496 1.7628319.968496 2.4099115.48.6456637 1.059115 1.1667257 1.738761 1.5646018.67823.3978761 1.431504.6867256 2.259823.8693805.826902.181239 1.670796.2732744 2.533097.2732744 2.912567 0 5.016637-.8283186 6.307965-2.4835399 1.291327-1.6566371 1.936991-4.039646 1.936991-7.1518584v-3.4775221h-.099115c-.729204 1.5900885-1.796814 2.8644248-3.202832 3.8244248-1.407434.96-3.054159 1.44-4.941593 1.44-2.053097 0-3.807434-.339823-5.264425-1.0180531s-2.657699-1.6141593-3.600708-2.8063717-1.63115-2.5897345-2.061593-4.1968142c-.430442-1.6056637-.645663-3.318938-.645663-5.139823 0-1.7543363.256283-3.4180531.770265-4.9911504.512567-1.5716814 1.257345-2.9465487 2.234336-4.1217699.975576-1.1752213 2.184779-2.1026549 3.626195-2.780885 1.44-.67823007 3.086726-1.01805308 4.941593-1.01805308.96 0 1.861947.13309735 2.707257.39787611.843894.26619469 1.614159.63716817 2.30938 1.11716817s1.316814 1.0350442 1.863363 1.6637168c.546549.6300885.968496 1.2913274 1.265841 1.9865487h.099115v-4.420531h3.129203v23.5412389c-.001416 1.8860177-.209557 3.5907965-.623008 5.1143363zm-7.17593-6.8290265c1.025133-.5791151 1.887434-1.340885 2.582655-2.2838938.695221-.9430089 1.216283-2.0276107 1.564602-3.2523894.348319-1.2247788.521062-2.4835399.521062-3.7748673 0-1.2573451-.148673-2.5161062-.447434-3.7748672-.297345-1.2573452-.778761-2.4-1.44-3.4265487-.662655-1.0251328-1.515044-1.8534513-2.557168-2.4835398-1.04354-.6286726-2.30938-.9430089-3.798938-.9430089-1.489557 0-2.76531.3058407-3.824425.9189381-1.060531.6130973-1.936991 1.4159292-2.632212 2.4084955-.695221.9925664-1.200708 2.1281416-1.515044 3.4024779-.315753 1.2743363-.471505 2.5741593-.471505 3.899469 0 1.2913275.165664 2.5500885.496991 3.7748673.329912 1.2247788.843894 2.3093805 1.539115 3.2523894.695222.9430088 1.571682 1.7061947 2.632213 2.2838938 1.059115.580531 2.31646.8693805 3.774867.8693805 1.35646-.0014159 2.548673-.2902655 3.575221-.8707964zm16.93593-31.66159296v5.01663716h-3.129204v-5.01663716zm0 9.83362836v25.6269026h-3.129204v-25.6269026z" fill-rule="nonzero"/><path d="m192.699469 10.0729204v2.6322123h-5.214867v17.2842478c0 1.0265487.140177 1.8293806.421947 2.4084956.280354.580531.985486.9033628 2.11115.9684956.893451 0 1.788319-.0495575 2.68177-.1486726v2.6322124c-.464425 0-.927434.0155752-1.390442.0495575-.464425.0325664-.927434.0495575-1.390443.0495575-2.085664 0-3.544071-.4049557-4.370973-1.2176991-.828319-.8113274-1.224779-2.3093805-1.192213-4.4941593v-17.5320354h-4.470088v-2.6322123h4.470088v-7.69840713h3.129204v7.69840713z"/><path d="m197.864779 14.0460177c.529557-1.0930973 1.250265-1.9865487 2.160708-2.6817699.910442-.6952213 1.978053-1.2077876 3.202832-1.53911506 1.224778-.3299115 2.582654-.49699115 4.073628-.49699115 1.124248 0 2.251327.10761062 3.376991.32283186s2.135221.62159295 3.030089 1.21628315c.893451.5961062 1.622654 1.4329204 2.184778 2.5090266s.843894 2.4750442.843894 4.1968141v13.6084956c0 1.2573452.613097 1.8860177 1.837876 1.8860177.363894 0 .695221-.0665487.992567-.1982301v2.6322124c-.363894.0665487-.688142.1161062-.968496.1486726-.28177.0339823-.637168.0495575-1.067611.0495575-.794336 0-1.431504-.1061947-1.911504-.3228318-.481416-.2152213-.852389-.5224779-1.118584-.9189381-.264779-.3978761-.438938-.8693805-.521062-1.4159292-.08354-.5465487-.124602-1.1497345-.124602-1.8138053h-.099115c-.56354.8283186-1.134159 1.5646018-1.713274 2.2102655s-1.224779 1.1851327-1.936991 1.6141593c-.712213.4304424-1.52354.7617699-2.433983.9925663-.910442.2307965-1.995044.3483186-3.252389.3483186-1.192212 0-2.309381-.1415929-3.351504-.4219469-1.04354-.280354-1.953983-.7277876-2.731328-1.3408849-.778761-.6116815-1.390442-1.3904425-1.837876-2.3348673-.447434-.9430088-.67115-2.060177-.67115-3.3515044 0-1.7883186.397876-3.1872567 1.192212-4.1968142.795752-1.0095575 1.844956-1.7784071 3.153274-2.3093805 1.308319-.5295575 2.782301-.9019469 4.420531-1.1171682 1.63823-.2152212 3.303363-.4219469 4.991151-.6201769.661239-.0665487 1.24177-.1486726 1.738761-.2477877.496991-.099115.910442-.2732743 1.24177-.5210619.329911-.2477876.586194-.5876106.768849-1.0180531.181239-.4304425.273275-.9939823.273275-1.6892035 0-1.0591151-.17416-1.9284956-.522478-2.6067257-.348319-.6782301-.828319-1.2176991-1.44-1.6141593-.613098-.3978761-1.32531-.6711504-2.135222-.819823-.811327-.1486726-1.682123-.2237168-2.608141-.2237168-1.986549 0-3.609204.4715044-4.866549 1.4159292-1.258761.9430088-1.92 2.4580531-1.987964 4.5437168h-3.129204c.100531-1.4895575.414867-2.780885.945841-3.8739823zm15.644602 7.6488496c-.199646.3653097-.580531.6300885-1.142655.7943362-.562124.1656638-1.059115.28177-1.489558.3469027-1.32531.2322124-2.690265.440354-4.097699.6215929-1.407434.1826549-2.690265.4559292-3.848496.819823-1.159646.3653098-2.11115.8863717-2.855929 1.5646018-.744779.679646-1.117168 1.6467257-1.117168 2.9054867 0 .7957522.157168 1.499469.471505 2.1111505.314336.6130973.736283 1.1426548 1.26584 1.5900885.529558.4474336 1.142655.7872566 1.837876 1.0180531.695222.2322123 1.407434.3483185 2.135222.3483185 1.192212 0 2.334867-.1812389 3.426548-.5465486 1.093098-.3638938 2.044602-.8948673 2.855929-1.5900885.809912-.6952213 1.456992-1.5391151 1.936992-2.5330974s.720708-2.1182301.720708-3.3769911v-4.0722124h-.099115z" fill-rule="nonzero"/><path d="m226.173.239v35.461h-3.129v-35.461z"/><path d="m256.369558 35.699823h-5.36354v-3.4761062h-.099115c-.76177 1.4895575-1.870443 2.5571682-3.327434 3.2028319s-2.997522.9684955-4.618761.9684955c-2.020531 0-3.783363-.3553982-5.289912-1.0676106-1.506548-.7107964-2.756814-1.679292-3.74938-2.9054867-.993982-1.2247788-1.738761-2.6732743-2.234336-4.3454867-.496992-1.6707965-.744779-3.4676106-.744779-5.3890266 0-2.3164601.314336-4.3214159.943009-6.0092035.628672-1.6892036 1.465486-3.079646 2.509026-4.1713274 1.04354-1.0930974 2.234337-1.8945133 3.575222-2.4084956 1.340884-.51256639 2.707256-.77026551 4.097699-.77026551.795752 0 1.605663.07362832 2.433982.22371682.826903.14867256 1.621239.38938053 2.383009.72070799.76177.3313274 1.465487.7532743 2.11115 1.2658407.645664.5139823 1.183717 1.1171681 1.61416 1.8123894h.10053v-13.11150446h5.660885v35.46053096zm-19.766372-12.5649557c0 1.0930973.140177 2.1692035.421947 3.2283185.280354 1.0591151.712212 2.0035399 1.291327 2.8304425.579115.8283186 1.316814 1.4909735 2.210266 1.9879646.894867.4955752 1.952566.7447788 3.178761.7447788 1.257345 0 2.341947-.2647788 3.253805-.7943363.910443-.5295575 1.655221-1.2247788 2.234336-2.0856637.579115-.860885 1.009558-1.8293805 1.291328-2.9054867.280354-1.0761062.421947-2.1776992.421947-3.3033629 0-2.8460177-.637168-5.0647787-1.912921-6.6548672-1.275752-1.5900885-3.004601-2.3844248-5.18938-2.3844248-1.32531 0-2.442478.2732743-3.352921.819823-.911858.5465487-1.655221 1.2587611-2.234336 2.1352212-.579115.8778761-.992566 1.8704425-1.24177 2.980531-.247787 1.1086726-.372389 2.2428319-.372389 3.401062zm37.696283 13.2601769c-2.053097 0-3.882478-.339823-5.488142-1.018053-1.607079-.6782301-2.963539-1.6141593-4.072212-2.8063717-1.110088-1.1922124-1.953982-2.6152213-2.533097-4.2718584-.579115-1.6552213-.867965-3.4761062-.867965-5.4640708 0-1.9525664.28885-3.7564602.867965-5.4130974.579115-1.6552212 1.424424-3.079646 2.533097-4.2718584s2.466549-2.1267257 4.072212-2.8063717c1.605664-.67823006 3.435045-1.01805307 5.488142-1.01805307s3.882478.33982301 5.488142 1.01805307c1.605663.679646 2.963539 1.6141593 4.073628 2.8063717 1.108673 1.1922124 1.952566 2.6166372 2.533097 4.2718584.579115 1.6566372.869381 3.460531.869381 5.4130974 0 1.9879646-.290266 3.8088495-.869381 5.4640708-.579115 1.6566371-1.424424 3.079646-2.533097 4.2718584-1.110089 1.1922124-2.467965 2.1281416-4.073628 2.8063717-1.605664.67823-3.436461 1.018053-5.488142 1.018053zm0-4.4700884c1.257345 0 2.350443-.2647788 3.277876-.7943363.927434-.5295576 1.689204-1.2247788 2.28531-2.0856637.596106-.860885 1.035044-1.8293806 1.316814-2.9054868.280354-1.0761062.421947-2.1776991.421947-3.3033628 0-1.0916814-.141593-2.1847788-.421947-3.2778761-.28177-1.0930974-.720708-2.0615929-1.316814-2.9054867s-1.357876-1.5306195-2.28531-2.061593c-.927433-.5295575-2.020531-.7943362-3.277876-.7943362-1.258761 0-2.350442.2661946-3.277876.7943362-.927434.5295576-1.687788 1.2162832-2.283894 2.061593-.596106.8438938-1.035044 1.8123893-1.316814 2.9054867-.28177 1.0930973-.423363 2.1847787-.423363 3.2778761 0 1.1256637.141593 2.2272566.423363 3.3033628.280354 1.0761062.720708 2.0446018 1.316814 2.9054868.596106.8608849 1.35646 1.5561061 2.283894 2.0856637.926018.5309734 2.019115.7943363 3.277876.7943363z" fill-rule="nonzero"/><path d="m289.645 10.023h6.01l5.016 19.171h.101l4.817-19.171h5.712l4.618 19.171h.101l5.215-19.171h5.761l-8.045 25.677h-5.811l-4.768-19.071h-.099l-4.718 19.071h-5.959z"/><path d="m330.618053 10.0233628h5.36354v3.7748673l.099115.099115c.860885-1.4230088 1.986549-2.5415929 3.376991-3.3529203 1.390443-.81132745 2.929558-1.21628321 4.618761-1.21628321 2.813452 0 5.032213.72920351 6.654867 2.18477881 1.622655 1.4569911 2.433983 3.6431858 2.433983 6.5557522v17.6311504h-5.660885v-16.1415929c-.066549-2.0191151-.496991-3.4846018-1.291328-4.3950443-.795752-.9104424-2.036106-1.3663716-3.725309-1.3663716-.96 0-1.820885.1741593-2.582655.5224778-.76177.3469027-1.407434.8283186-1.936991 1.44-.529558.6130974-.943009 1.3338053-1.24177 2.160708-.298761.8283186-.447434 1.7061947-.447434 2.6322124v15.1476106h-5.660885z"/><path d="m359.275.239h5.662v35.461h-5.662z"/><path d="m382.865841 36.3950442c-2.053098 0-3.882478-.339823-5.488142-1.018053-1.60708-.6782301-2.96354-1.6141593-4.072212-2.8063717-1.110089-1.1922124-1.953983-2.6152213-2.533098-4.2718584-.579115-1.6552213-.867964-3.4761062-.867964-5.4640708 0-1.9525664.288849-3.7564602.867964-5.4130974.579115-1.6552212 1.424425-3.079646 2.533098-4.2718584 1.108672-1.1922124 2.466548-2.1267257 4.072212-2.8063717 1.605664-.67823006 3.435044-1.01805307 5.488142-1.01805307 2.053097 0 3.882478.33982301 5.488141 1.01805307 1.605664.679646 2.96354 1.6141593 4.073629 2.8063717 1.108672 1.1922124 1.952566 2.6166372 2.533097 4.2718584.579115 1.6566372.86938 3.460531.86938 5.4130974 0 1.9879646-.290265 3.8088495-.86938 5.4640708-.579115 1.6566371-1.424425 3.079646-2.533097 4.2718584-1.110089 1.1922124-2.467965 2.1281416-4.073629 2.8063717-1.607079.67823-3.43646 1.018053-5.488141 1.018053zm0-4.4700884c1.257345 0 2.350442-.2647788 3.277876-.7943363.927433-.5295576 1.689203-1.2247788 2.28531-2.0856637.596106-.860885 1.035044-1.8293806 1.316814-2.9054868.280354-1.0761062.421947-2.1776991.421947-3.3033628 0-1.0916814-.140177-2.1847788-.421947-3.2778761-.28177-1.0930974-.720708-2.0615929-1.316814-2.9054867-.596107-.8438938-1.357877-1.5306195-2.28531-2.061593-.927434-.5295575-2.020531-.7943362-3.277876-.7943362-1.258761 0-2.350443.2661946-3.277876.7943362-.927434.5295576-1.687788 1.2162832-2.283894 2.061593-.596106.8438938-1.035044 1.8123893-1.316814 2.9054867-.28177 1.0930973-.423363 2.1847787-.423363 3.2778761 0 1.1256637.141593 2.2272566.423363 3.3033628.280354 1.0761062.720708 2.0446018 1.316814 2.9054868.596106.8608849 1.35646 1.5561061 2.283894 2.0856637.926017.5309734 2.019115.7943363 3.277876.7943363zm39.184424-1.9355753c0 .6952213.09062 1.1922124.273275 1.4895576.181239.2973451.538053.4474336 1.06761.4474336h.596107c.230796 0 .495575-.0325664.794336-.0991151v3.9235399c-.19823.0665486-.454513.140177-.76885.2237168-.315752.0821239-.638584.1571681-.968495.2237168-.331328.0665487-.662655.1146903-.993983.1486726-.331327.0339823-.613097.0495575-.843893.0495575-1.15823 0-2.119646-.2322124-2.88-.6952213-.76177-.4630088-1.258761-1.2743362-1.489558-2.4339823-1.125664 1.0916815-2.509026 1.8874337-4.147256 2.3830089-1.639646.4969911-3.219823.7447787-4.741947.7447787-1.159646 0-2.268319-.1571681-3.327434-.4715044-1.060531-.3143363-1.995044-.7773451-2.806372-1.3904425-.811327-.6130973-1.456991-1.3904424-1.936991-2.3348672-.48-.9430089-.720708-2.0446018-.720708-3.3033628 0-1.5886726.290266-2.88.869381-3.8739823.579115-.9925664 1.340885-1.7713275 2.285309-2.3348673.943009-.5621239 2.002124-.9684956 3.177346-1.2162832 1.175221-.2477876 2.358938-.438938 3.55115-.5720354 1.026549-.1982301 2.00354-.3384071 2.929558-.4219469.927433-.0821239 1.74584-.2237168 2.458053-.4219469.712212-.1982301 1.274336-.5040708 1.689203-.918938.413452-.4134514.621593-1.0336284.621593-1.8619469 0-.7277877-.174159-1.3238939-.522478-1.7883186-.348318-.4630089-.778761-.819823-1.291327-1.0676106-.513982-.2477877-1.084602-.4134514-1.713275-.4969912-.630088-.0821239-1.224778-.1246018-1.788318-.1246018-1.590089 0-2.898407.3313275-3.92354.9939823-1.026549.6626549-1.60708 1.6892036-1.738761 3.079646h-5.662301c.100531-1.6552212.496991-3.0300884 1.192213-4.1217699.695221-1.0930973 1.580176-1.9695575 2.657699-2.6322124 1.07469-.6612389 2.290973-1.12566367 3.650265-1.39044243 1.357876-.26477876 2.748319-.39787611 4.172743-.39787611 1.257346 0 2.499116.13309735 3.72531.39787611 1.224779.26619469 2.326372.69522123 3.303363 1.29132743.975575.5961062 1.762832 1.3663717 2.358938 2.3093805.596106.9430089.893451 2.0941593.893451 3.4520354v13.2120354zm-5.660884-7.1532743c-.862301.5635398-1.921416.9033628-3.178762 1.0180531-1.258761.1161062-2.516106.2902655-3.774867.5224779-.596106.099115-1.175221.2407079-1.738761.4219469-.56354.1826548-1.060531.4304424-1.490973.7447787-.430443.3157522-.76885.7292036-1.018053 1.2417699-.247788.5139823-.37239 1.1341593-.37239 1.8619469 0 .6300885.181239 1.1596461.546549 1.5900885.363894.4304425.801416.7688496 1.315398 1.0180531.513982.2477876 1.076106.4219469 1.689204.521062.611681.100531 1.166725.1486726 1.663716.1486726.628673 0 1.306903-.0821239 2.036107-.2477877.729203-.1656637 1.415929-.4474336 2.061593-.8438938.645663-.3964601 1.1823-.9005309 1.614159-1.5150442.430442-.6116814.645664-1.3649558.645664-2.259823v-4.2223009zm35.957522 12.8637168h-5.36354v-3.4761062h-.099115c-.76177 1.4895575-1.870443 2.5571682-3.327434 3.2028319s-2.997522.9684955-4.618761.9684955c-2.020531 0-3.783363-.3553982-5.289911-1.0676106-1.506549-.7107964-2.756815-1.679292-3.749381-2.9054867-.993982-1.2247788-1.738761-2.6732743-2.234336-4.3454867-.496991-1.6707965-.744779-3.4676106-.744779-5.3890266 0-2.3164601.314336-4.3214159.943009-6.0092035.628672-1.6892036 1.465487-3.079646 2.509026-4.1713274 1.04354-1.0930974 2.234337-1.8945133 3.575222-2.4084956 1.340885-.51256639 2.707256-.77026551 4.097699-.77026551.795752 0 1.605663.07362832 2.433982.22371682.826903.14867256 1.621239.38938053 2.383009.72070799.76177.3313274 1.465487.7532743 2.11115 1.2658407.645664.5139823 1.183717 1.1171681 1.61416 1.8123894h.100531v-13.11150446h5.660885v35.46053096zm-19.766372-12.5649557c0 1.0930973.140177 2.1692035.421947 3.2283185.280354 1.0591151.712212 2.0035399 1.291327 2.8304425.579115.8283186 1.316814 1.4909735 2.210266 1.9879646.894867.4955752 1.952566.7447788 3.178761.7447788 1.257345 0 2.341947-.2647788 3.253805-.7943363.910443-.5295575 1.655221-1.2247788 2.234336-2.0856637.579115-.860885 1.009558-1.8293805 1.291328-2.9054867.280354-1.0761062.421947-2.1776992.421947-3.3033629 0-2.8460177-.637168-5.0647787-1.912921-6.6548672-1.275752-1.5900885-3.004601-2.3844248-5.18938-2.3844248-1.32531 0-2.442478.2732743-3.35292.819823-.911859.5465487-1.655222 1.2587611-2.234337 2.1352212-.579115.8778761-.992566 1.8704425-1.24177 2.980531-.249203 1.1086726-.372389 2.2428319-.372389 3.401062z" fill-rule="nonzero"/><path d="m462.776637 27.4548673c.165664 1.6566371.794336 2.8148672 1.887434 3.4775221 1.093097.6626548 2.4.9925664 3.92354.9925664.528141 0 1.134159-.041062 1.812389-.1246018.67823-.0821239 1.316814-.2392921 1.91292-.4715044.596107-.2307965 1.083186-.5706195 1.464071-1.0180531.380885-.4474337.555044-1.0350443.522478-1.7628319-.033982-.7277876-.298761-1.3238938-.794336-1.7883186-.496991-.4630088-1.13416-.8353982-1.912921-1.1171681-.778761-.280354-1.663716-.5224779-2.656283-.720708-.993982-.1982301-2.00354-.4134513-3.030088-.6456637-1.060531-.2307965-2.078584-.5125664-3.05416-.8438938-.976991-.3313274-1.854867-.7773451-2.632212-1.340885-.778761-.5621239-1.398938-1.2828318-1.861947-2.1607079-.464425-.8764602-.695221-1.9624779-.695221-3.2538053 0-1.3904425.339823-2.5571682 1.018053-3.501593.67823-.9444247 1.539115-1.7047787 2.582655-2.2838938 1.04354-.579115 2.20177-.98548669 3.476106-1.21628315s2.492035-.34690266 3.650266-.34690266c1.323893 0 2.59115.14159292 3.800354.42194691 1.207787.2817699 2.300884.7376991 3.277876 1.3663717.975575.6300885 1.788318 1.4484956 2.433982 2.4580531.645664 1.0109734 1.050619 2.2272566 1.217699 3.6502655h-5.910088c-.264779-1.3564602-.886372-2.2669027-1.861947-2.7313275-.976992-.4630088-2.09416-.6952212-3.351505-.6952212-.397876 0-.86938.0339823-1.415929.099115-.546549.0665487-1.060531.1911505-1.539115.3723894-.48.1826549-.886372.4474336-1.217699.7943363-.331328.3469027-.495575.8028319-.495575 1.3663717 0 .6952212.239292 1.258761.719292 1.6892035s1.110088.7872567 1.887433 1.0676106c.777345.2817699 1.663717.521062 2.657699.7192921.992567.1982301 2.019115.4148672 3.07823.6456637 1.026549.2322124 2.036107.5139823 3.030089.8438938.992566.3313274 1.877522.7787611 2.656283 1.340885.777345.5621238 1.407434 1.2743362 1.887434 2.1352212.48.8623009.720708 1.92.720708 3.1787611 0 1.5235398-.348319 2.8148672-1.04354 3.8739823-.696637 1.0605309-1.598584 1.9214159-2.707257 2.5826548-1.110088.6626549-2.343363 1.1426549-3.699823 1.44-1.357876.2973452-2.698761.4474336-4.022655.4474336-1.622654 0-3.120708-.1826548-4.494159-.5465486-1.374867-.3638938-2.56708-.9189381-3.576637-1.6637168-1.010973-.7447788-1.80531-1.6707965-2.383009-2.780885-.580531-1.1100885-.886372-2.4254867-.918938-3.9490265z"/></g></g></svg>