<svg height="80" viewBox="0 0 140 80" width="140" xmlns="http://www.w3.org/2000/svg" xmlns:xlink="http://www.w3.org/1999/xlink"><linearGradient id="a" x1="44.197691%" x2="83.915274%" y1="46.669849%" y2="52.286165%"><stop offset="0" stop-color="#e53121"/><stop offset="1" stop-color="#c22c1a"/></linearGradient><linearGradient id="b" x1=".358897%" x2="100.026631%" y1="46.099507%" y2="60.191341%"><stop offset="0" stop-color="#dcdaee"/><stop offset="1" stop-color="#8f88c0"/></linearGradient><linearGradient id="c" x1="64.689053%" x2="25.182676%" y1="62.875574%" y2="44.857622%"><stop offset="0" stop-color="#7b73b3"/><stop offset="1" stop-color="#c6c2e2"/></linearGradient><linearGradient id="d" x1="102.039852%" x2="-1.179508%" y1="68.091831%" y2="30.652299%"><stop offset="0" stop-color="#6c62a8"/><stop offset="1" stop-color="#cbcae6"/></linearGradient><linearGradient id="e" x1="20.368109%" x2="65.913939%" y1="33.686582%" y2="98.057475%"><stop offset="0" stop-color="#e53121"/><stop offset="1" stop-color="#a62714"/></linearGradient><linearGradient id="f" x1="33.94149%" x2="67.14657%" y1="1.274622%" y2="102.458254%"><stop offset="0" stop-color="#e84d2c"/><stop offset="1" stop-color="#811f08"/></linearGradient><linearGradient id="g" x1="42.685147%" x2="79.786776%" y1="7.333763%" y2="91.198346%"><stop offset="0" stop-color="#f3f2f9"/><stop offset="1" stop-color="#bbb7db"/></linearGradient><linearGradient id="h" x1="47.609264%" x2="51.731857%" y1="46.043819%" y2="54.703814%"><stop offset="0" stop-color="#fff"/><stop offset="1" stop-color="#bbb7db"/></linearGradient><linearGradient id="i" x1="15.882582%" x2="99.743211%" y1="50.510442%" y2="64.419835%"><stop offset="0" stop-color="#fff098"/><stop offset="1" stop-color="#ffd530"/></linearGradient><linearGradient id="j"><stop offset="0" stop-color="#f4a286"/><stop offset="1" stop-color="#e53121"/></linearGradient><linearGradient id="k" x1="21.316612%" x2="98.98333%" xlink:href="#j" y1="23.455321%" y2="58.097458%"/><linearGradient id="l" x1="-2.283073%" x2="102.125101%" xlink:href="#j" y1="66.113192%" y2="31.847396%"/><linearGradient id="m" x1="13.511541%" x2="76.17203%" y1="41.257346%" y2="62.762211%"><stop offset="0" stop-color="#4464ac"/><stop offset="1" stop-color="#1d3584"/></linearGradient><linearGradient id="n" x1="1.224407%" x2="101.223055%" y1="49.987537%" y2="49.987537%"><stop offset="0" stop-color="#4464ac"/><stop offset=".373" stop-color="#2f4b97"/><stop offset=".728" stop-color="#223b89"/><stop offset="1" stop-color="#1d3584"/></linearGradient><linearGradient id="o" x1="-5.580302%" x2="105.202732%" y1="40.61782%" y2="60.581626%"><stop offset="0" stop-color="#5b62a2"/><stop offset=".152" stop-color="#4c579a"/><stop offset=".482" stop-color="#31438c"/><stop offset=".776" stop-color="#213783"/><stop offset="1" stop-color="#1b3380"/></linearGradient><linearGradient id="p" x1="49.781801%" x2="57.0714%" y1="17.163241%" y2="85.144219%"><stop offset="0" stop-color="#fff"/><stop offset="1" stop-color="#dad8ed"/></linearGradient><linearGradient id="q" x1="26.244803%" x2="71.737599%" y1="39.81695%" y2="62.762149%"><stop offset="0" stop-color="#fff"/><stop offset="1" stop-color="#d1cee8"/></linearGradient><linearGradient id="r" x1="7.348287%" x2="96.131907%" y1="37.663567%" y2="52.388137%"><stop offset="0" stop-color="#d1cee8"/><stop offset="1" stop-color="#7b73b3"/></linearGradient><linearGradient id="s" x1="15.245982%" x2="57.2352%" y1=".056819%" y2="89.180069%"><stop offset="0" stop-color="#e53121"/><stop offset="1" stop-color="#b02916"/></linearGradient><linearGradient id="t" x1="-1.311044%" x2="103.102996%" y1="67.890139%" y2="33.607835%"><stop offset="0" stop-color="#e53121"/><stop offset="1" stop-color="#9d2511"/></linearGradient><linearGradient id="u" x1="43.632133%" x2="87.818059%" y1="42.0518%" y2="95.750968%"><stop offset="0" stop-color="#f5b0ac"/><stop offset="1" stop-color="#ef8495"/></linearGradient><linearGradient id="v" x1="1.265924%" x2="101.270411%" y1="50.011745%" y2="50.011745%"><stop offset="0" stop-color="#f5b0ac"/><stop offset="1" stop-color="#ee788f"/></linearGradient><g fill="none" fill-rule="evenodd" transform="translate(0 15.5)"><path d="m48.0241957 24.0856213c0 13.1485322-10.6580298 23.8055769-23.8045917 23.8055769-13.1485321 0-23.806562-10.6570447-23.806562-23.8050843 0-13.1455767 10.6580299-23.8045917 23.806562-23.8045917 13.1470545 0 23.8045917 10.6595076 23.8045917 23.8050843z" fill="#fff" fill-rule="nonzero"/><circle cx="24.212215" cy="24.07577" fill="#fff" fill-rule="nonzero" r="23.91296"/><path d="m24.2127079 24.0757696 8.8778329-4.9218946 14.1199069 11.5175881-22.9972473-6.5956935" fill="url(#a)" fill-rule="nonzero"/><path d="m33.0900483 19.153875 14.1199069 11.5175881-1.4058334-.7373975-12.7465841-10.3959754z" fill="#e53121" fill-rule="nonzero"/><path d="m24.2127079 24.0757696 8.8778329-4.9218946-.0330031.3842152-8.014334 4.4421182z" fill="#f08465" fill-rule="nonzero"/><path d="m47.2099552 30.6714631-22.9972473-6.5956935.8300032-.0955612 20.7614107 5.9538572z" fill="#b82b18" fill-rule="nonzero"/><path d="m24.2127079 24.0757696 8.8778329-4.9218946-2.2841098-18.07781557-6.5932306 22.99971017" fill="#f5b0ac" fill-rule="nonzero"/><path d="m30.8059384 1.0770446-6.5932305 22.998725.5206608-.6561212 5.9518868-20.76141067z" fill="#d47785" fill-rule="nonzero"/><path d="m33.0900483 19.153875-2.2841099-18.07781557-.1206829 1.5821783 2.0619546 16.31929237z" fill="#d99e9b" fill-rule="nonzero"/><path d="m24.2127079 24.0757696 8.8778329-4.9218946-.3428381-.1773301-8.014334 4.4431035z" fill="#f9d1cd" fill-rule="nonzero"/><path d="m24.2127079 24.0757696 4.9209094 8.8783256-11.5166029 14.1203995z"/><g fill-rule="nonzero"><path d="m29.1336173 32.9540952-11.5166029 14.1203995.7364124-1.4073112 10.3959754-12.746584z" fill="#f9f9fc"/><path d="m24.2127079 24.0757696 4.9209094 8.8783256-.3842151-.0334957-4.4416257-8.014334z" fill="#f3f2f9"/><path d="m17.6170144 47.0744947 6.5956935-22.9987251.0950686.8300033-5.9538571 20.7614106z" fill="#dcdaee"/><path d="m24.2127079 24.0757696 4.9209094 8.8783256 18.0768304-2.2826321z" fill="#2b2b85"/><path d="m47.2104477 30.6714631-22.9977398-6.5956935.6551361.5206608 20.7623958 5.9518868z" fill="#484293"/><path d="m29.1336173 32.9540952 18.0768304-2.2826321-1.5811931-.1231459-16.3192924 2.0624473z" fill="#24236f"/><path d="m24.2127079 24.0757696 4.9209094 8.8783256.1763449-.3433307-4.4431034-8.0143341z" fill="#8f88c0"/><path d="m24.2127079 24.0757696-8.8793108 4.9209095-14.11941428-11.5166029z" fill="url(#b)"/><path d="m15.3333971 28.9966791-14.11941428-11.5166029 1.4058334.7359198 12.74806178 10.3984383z" fill="#bbb7db"/><path d="m24.2127079 24.0757696-8.8793108 4.9209095.0344809-.3822448 8.014334-4.4431035z" fill="#b0aad4"/><path d="m1.21398282 17.4800762 22.99872508 6.5956934-.8309885.0950687-20.7614106-5.9553349z" fill="#d1cce6"/><path d="m24.2127079 24.0757696-8.8793108 4.9209095 2.2836173 18.0778156z" fill="#fd0"/><path d="m17.6170144 47.0744947 6.5956935-22.9987251-.5221386.6551361-5.9518868 20.7609181z" fill="#dbbb85"/><path d="m15.3333971 28.9966791 2.2836173 18.0778156.1216681-1.5826709-2.0619546-16.3183072z" fill="#ebc536"/><path d="m24.2127079 24.0757696-8.8793108 4.9209095.3433308.1773301 8.0133488-4.4431035z" fill="#ffe167"/><path d="m24.2127079 24.0757696-4.9228798-8.8793107 11.5166029-14.11892172-6.5937231 22.99872502" fill="#e53121"/><path d="m19.2898281 15.1964589 11.5166029-14.11892172-.7354272 1.40632598-10.3959754 12.74806174z" fill="#ea583c"/><path d="m24.2127079 24.0757696-4.9228798-8.8793107.3842151.0344809 4.4431035 8.014334z" fill="#d42f1e"/><path d="m30.8059384 1.0770446-6.5932305 22.998725-.0955612-.8309884 5.9538571-20.76141062z" fill="#c22c1a"/><path d="m24.2127079 24.0757696-4.9228798-8.8793107-18.07633786 2.2836173 22.99872506 6.5956934" fill="#f3f2f9"/><path d="m1.21349024 17.4800762 22.99872506 6.5956934-.6551361-.5221385-20.76239583-5.9518868z" fill="#f9f8fb"/><path d="m19.2898281 15.1964589-18.07633786 2.2836173 1.58119313.1216681 16.31929233-2.0609695z" fill="#dcdaee"/><path d="m24.2127079 24.0757696-4.9228798-8.8793107-.1758524.3448085 4.4431035 8.0118711z" fill="#f9f9fc"/><path d="m41.4255468 7.45255324c-2.9157672-3.02475212-6.579704-5.22447372-10.620101-6.37600123l2.2855876 18.07683039 8.3345134-11.70132175z" fill="url(#c)"/><path d="m30.8059384 1.0770446 2.2846024 18.0768304.2127961-.8511843-2.146679-17.12368131c-.11822-.03448085-.2334846-.0689617-.3497343-.10245738z" fill="#8f88c0"/><path d="m41.1999435 7.22300931-7.8980843 11.07968139-.2118109.8511843 8.335991-11.7003366c-.0748727-.07881336-.1497453-.15565639-.2265884-.23052909z" fill="#a59fce"/><path d="m41.4255468 7.45255324c-2.9157672-3.02475212-6.579704-5.22447372-10.620101-6.37600123l.4349513.79798532c3.6282272 1.14120847 6.9194402 3.15867094 9.58272 5.87405861l.6019371-.29653529z" fill="url(#d)"/><path d="m33.0900483 19.153875 8.3354985-11.70132176c2.913947 3.02466546 4.9842626 6.76023506 6.0045932 10.83437476l-14.3391066.866947z" fill="url(#e)"/><path d="m41.4265319 7.4535384-8.3364836 11.7003366.6467621-.3581082 7.9128619-11.10628089c-.0738876-.07881336-.1477751-.15762673-.2231404-.23545492z" fill="#ed6f50"/><path d="m47.3493563 17.9697042-13.6130385.82557-.6462695.3586008 14.3400917-.866947c-.0261069-.1059055-.053199-.2118109-.0807837-.3172238z" fill="#a62714"/><path d="m46.6981609 18.0071405c-.9910649-3.6532887-2.8531972-7.0117864-5.4267928-9.78763471l.1527009-.76695255c2.9140627 3.02473246 4.9846856 6.76024346 6.0055784 10.83437476l-.7319791-.2792949z" fill="url(#f)"/><path d="m33.0900483 19.153875 14.3405843-.866947c.9871374 3.9436237.9802412 8.1946196-.2206774 12.3845351z" fill="url(#g)"/><path d="m47.4306326 18.286928-14.3400918.866947.8344365.2679654 13.5820057-.8201515c-.0246291-.1054129-.0492583-.2108258-.0758578-.3152535z" fill="#d1cee8"/><path d="m47.2099552 30.6714631c.0330031-.1132942.0640358-.2265884.0935908-.3388974l-13.3785687-10.9107253-.8344365-.2679654 14.1199069 11.5175881z" fill="#f3f2f9"/><path d="m46.760719 29.892196c.985167-3.8086559.9654637-7.6547481.0999944-11.2471598l.5699192-.3581082c.9871374 3.9436237.9802412 8.1926493-.2206774 12.3845351z" fill="url(#h)"/><path d="m7.58899887 6.86194558c-2.9279165 2.82250363-5.1740974 6.42920022-6.37550863 10.61862322l18.07633786-2.2836173-11.70132181-8.33451333z" fill="url(#i)"/><path d="m1.21349024 17.4800762 18.07633786-2.2841099-.8521695-.2118109-17.12220357 2.1476642c-.03448085.1162497-.0689617.2315143-.10196479.3482566z" fill="#ffcb00"/><path d="m7.35846978 7.08656367 11.07968132 7.89759173.8521695.2118109-11.69885881-8.3345133c-.07881336.0748727-.15516381.14925281-.23299201.22560326z" fill="#fd0"/><path d="m7.58801371 6.86194558c-3.02379363 2.91560248-5.22280392 6.57897692-6.37403089 10.61862322l.79650757-.4324884c1.14137433-3.6280084 3.15881919-6.9190235 5.8740586-9.58222741z" fill="#fff8c7"/><path d="m19.2898281 15.1964589-11.70082923-8.33451332c3.02443073-2.91374183 6.75962703-4.98403885 10.83338963-6.00459324l.866947 14.33910656z" fill="url(#k)"/><path d="m7.59146179 6.86194558 11.69885881 8.33451332-.357123-.6442992-11.10677346-7.91384704c-.07979854.07388753-.15762673.14777506-.23496235.22363292zm10.51567321-5.92282437.8265552 13.61303849.357123.6442992-.866947-14.33910656-.3162386.08127629z" fill="#e53121"/><path d="m18.1450639 1.58933147c-3.6546277.99027693-7.0144243 2.85247343-9.7910828 5.42679276l-.76596739-.15417865c3.02494069-2.9135746 6.76040499-4.98383194 10.83437479-6.00459324l-.2778171.73247171z" fill="url(#l)"/><path d="m19.2898281 15.1964589-.8669471-14.33910656c3.944609-.98762998 8.1936345-.98122639 12.38355.22067743z" fill="url(#m)"/><path d="m18.4223885.85685976.866947 14.33910654.2689506-.8344365-.8206442-13.5805279c-.1049203.02462917-.2108257.04925835-.3152534.07536528z" fill="#1e398e"/><path d="m30.8059384 1.0770446c-.1119815-.03178114-.2241279-.06297852-.3364345-.09359087l-10.9107252 13.37856867-.2689506.8339439 11.5166029-14.11842912z" fill="#2f2482"/><path d="m30.0286416 1.52677336c-3.809641-.98516706-7.6547481-.96546372-11.2476523-.09999446l-.3581083-.56942656c3.9455941-.98762998 8.1936345-.98122639 12.38355.22067743l-.7772968.44825101z" fill="url(#n)"/><path d="m6.9988838 40.6980009c2.91517549 3.0246177 6.5783975 5.2244882 10.6181306 6.3764938l-2.2836173-18.0778156z" fill="#2b2b85"/><path d="m17.6170144 47.0744947-2.2836173-18.0778156-.2118109.8521695 2.1466791 17.1231887c.1167422.035466.2324994.0689617.3487491.1024574z" fill="#24236f"/><path d="m7.22448706 40.9280374 7.89611404-11.0791888.212796-.8521695-8.3345133 11.7013218.22511068.2300365z" fill="#5b549f"/><path d="m6.9988838 40.6989861c2.91543987 3.0242855 6.5785664 5.2240987 10.6181306 6.3764938l-.4334735-.7979854c-3.628115-1.1419557-6.9192309-3.159697-9.58272002-5.8750437z" fill="url(#o)"/><path d="m15.3333971 28.9966791-8.3345133 11.7013218c-2.91374574-3.0243872-4.98433922-6.7593356-6.0055784-10.832897l14.3400917-.8679322z" fill="url(#p)"/><path d="m6.9988838 40.6980009 8.3345133-11.7008292-.6452844.3576156-7.91384699 11.1077587c.07388753.0788133.14925281.1576267.22461809.2364401z" fill="#b0aad4"/><path d="m1.07605943 30.1798648 13.61205327-.82557.6452844-.3571231-14.33910653.866947c.02561434.1073832.05319902.2118109.08176886.3162386z" fill="#dad8ed"/><path d="m1.72577711 30.1443987c.99077181 3.6536989 2.85293104 7.0125832 5.42679276 9.78862l-.15368607.7659674c-2.91367168-3.0248283-4.98424008-6.7600712-6.0055784-10.8338822l.73247171.2788023z" fill="url(#q)"/><path d="m15.3333971 28.9966791-14.3400917.8684248c-.98664481-3.9446089-.98024123-8.1946196.22067742-12.3845351l14.11941428 11.5166029z" fill="#e53121"/><path d="m.9933054 29.8636261 14.3400917-.866947-.8344365-.2669803-13.5805279.8206442c.02364401.1049203.04925835.2088554.0748727.3137757z" fill="#ca2d0a"/><path d="m1.21398282 17.4800762c-.03152535.1132942-.06403586.2256032-.09359087.3374197l13.37856865 10.9122029.8344365.2674729-14.11941428-11.5166029zm.44923618.7782819c-.98516706 3.8096411-.96546372 7.6547481-.10048704 11.2486376l-.56942656.3581082c-1.01971593-4.0750654-.94375356-8.3473109.22018484-12.38355l.45022134.7768042z" fill="#ed6f50"/><path d="m40.8349391 41.2886085c3.0242266-2.915036 5.2236108-6.5781272 6.3750161-10.617638l-18.0763379 2.2826321 11.7013218 8.3345134z" fill="url(#r)"/><path d="m47.2104477 30.6714631-18.0763378 2.2831247.8511844.2118109 17.1222035-2.1461864c.0344808-.1162498.0689617-.2324995.1024574-.3487492z" fill="#7b73b3"/><path d="m41.0649756 41.0634979-11.0791888-7.8975918-.8521695-.2118109 11.7013218 8.3364837c.0763505-.0748727.1527009-.1517158.2300365-.2265885z" fill="#d1cee8"/><path d="m40.8349391 41.2905789c2.9279165-2.8225037 5.1740974-6.430678 6.3750161-10.6201009l-.7965076.4334735c-1.1417438 3.6281824-3.1597124 6.919224-5.8755364 9.5822274l.2970279.6048926z" fill="#655ea5"/><path d="m29.1336173 32.9540952 11.7013218 8.3345133c-3.0248845 2.9131278-6.7599073 4.9833286-10.8333896 6.0045933z" fill="url(#s)"/><path d="m40.8344465 41.2905789-11.7008292-8.3364837.3581083.6452844 11.1057882 7.9143396c.0797986-.0724098.1591045-.147775.2374253-.2226477zm-10.5176435 5.9218392-.8250774-13.6125459-.3581083-.6452844.8669471 14.3391066c.106398-.0265995.2118109-.0541842.3162386-.0812763z" fill="#e53121"/><path d="m30.2808444 46.5607301c3.6537109-.9904821 7.0126243-2.8524885 9.7886199-5.4263002l.7654748.156149c-3.0254062 2.9124216-6.7602296 4.9825119-10.8333896 6.0045932l.2792949-.7339494z" fill="url(#t)"/><path d="m29.1336173 32.9540952.8679322 14.3391066c-3.9446089.9866448-8.1946196.9802412-12.3850277-.2187071l11.516603-14.1203995z" fill="url(#u)"/><path d="m30.0005644 47.2941869-.8669471-14.3391065-.2689506.8334513.8226145 13.5815131c.1034426-.0246292.2083629-.0512287.3132832-.0758579z" fill="#f5b0ac"/><path d="m17.6170144 47.0744947.3379123.0935909 10.9107252-13.3800465.268458-.8339439-11.5175881 14.1203995z" fill="#fad9d5"/><path d="m18.3952964 46.6242733c3.8101336.9851671 7.6557332.9654638 11.2481449.1009797l.3586008.5699191c-4.0748172 1.0189769-8.3465508.9430176-12.3825648-.2201848l.7763117-.4502214z" fill="url(#v)"/><path d="m67.7876322 20.7882672c-2.0363404-.5763228-2.5038021-1.4629731-2.5038021-2.6333516l.0014777-1.1541232c0-.9245793.5246015-1.6639472 1.2186517-1.9220609.5334679-.1990038 1.129494-.2339772 2.182145-.2339772h9.2152527c.2374253 0 .4285477-.1955557.4310106-.4374142l.0029555-2.0998836c0-.955612-.0246292-1.8856097-.9497011-2.59098936-.5137646-.39209649-1.3575602-.74281596-2.5939448-.98664481-1.3378569-.26303961-3.4628622-.45810268-6.3021137-.45810268-4.5869379 0-7.1547758.92901254-8.9177323 2.94564955-.4285476.4925835-1.8826542 2.5811377-1.8826542 5.826278 0 1.5220831-.0039407 2.0284589.0172404 2.3594751.3221496 5.0194261 3.6697473 6.4331409 7.029167 7.3015656.8511843.2182146 4.9898712 1.3432753 5.1021802 1.3743081 2.0368329.5763227 2.5579863 1.4639583 2.5579863 2.6338441l-.0009852 1.3053464c0 .926057-.5802634 1.6649323-1.2728358 1.9220609-.5339606.1990038-1.279732.2315143-2.332383.2315143l-10.7117215.0014777c-.2382891.0053827-.4278597.2015433-.4251293.4398771v1.072847c.0483029 1.8457105.290654 3.1658343 1.4984688 4.0180038.9531491.6723765 2.7584678 1.5940003 8.6399151 1.5940003h.6531658c3.3682862-.11822 5.5386092-.5822337 6.9912381-1.2511621 1.3038686-.5999668 2.0013668-1.2088 2.6269479-1.9003873.7763117-.861036 1.9851116-2.8840766 2.123035-5.6233336.0197034-.3743635.0147775-2.4220332 0-2.6560104-.3211644-5.0179484-3.738709-6.7858307-7.0991138-7.6537629-.8477363-.2187071-5.186412-1.3935188-5.298721-1.4250441zm42.0952038-12.09489605h-3.934758c-1.440314 0-1.756553.3438233-1.757538 1.75113445v15.827694l-.199989-.0014777c-.936894-1.3398272-8.844337-12.7234326-10.6378336-15.2735376-.9841819-1.39893721-2.2924838-2.30381315-4.3332573-2.3052909h-2.74172c-.2433362 0-.4413548.19703341-.4413548.44086226v29.99833704c.0014778 1.4078037.318209 1.751627 1.7585232 1.751627h3.9391905c1.4412994 0 1.7565529-.3428381 1.757538-1.7506419v-15.8562638l.2157516.0049258 10.9087544 15.576969c.98369 1.2413105 2.362431 2.0255035 4.063815 2.0255035h2.719061c.243829 0 .440862-.1970334.440862-.4408623v-29.998337c0-1.40731113-.316731-1.75113443-1.757045-1.75113443zm30.015084 21.17468825c-.322149-5.0194262-3.739694-6.7868159-7.100099-7.6547481-.849706-.2191997-5.188382-1.3940114-5.300198-1.4255367-2.037818-.5763228-2.504295-1.4629731-2.504295-2.6333516l.000985-1.1541232c0-.9245793.524109-1.6639472 1.219144-1.9220609.534453-.1990038 1.129987-.2339772 2.182145-.2339772h9.216238c.23644 0 .428548-.1955557.431503-.4374142-.000985-.0384215.001971-1.9777229.001971-2.0998836 0-.955612-.026107-1.8856097-.949701-2.59098934-.513765-.39209649-1.357561-.74281597-2.593945-.98664481-1.337364-.26303961-3.462862-.45810269-6.302114-.45810269-4.586938 0-7.153791.92901254-8.917732 2.94564954-.428548.4925835-1.882654 2.5811377-1.882654 5.826278 0 1.5220831-.003941 2.028459.01724 2.3594751.322642 5.0194262 3.670733 6.4331409 7.030152 7.3015657.850692.2182145 4.989871 1.3432753 5.100703 1.374308 2.036833.5763227 2.558971 1.4639583 2.558971 2.6338442l-.000985 1.3053463c0 .926057-.580263 1.6649323-1.272836 1.9220609-.534946.1990038-1.279732.2315143-2.33189.2315143l-10.711722.0014778c-.238056.0053848-.4272.2017865-.423622.439877-.001477.5723821 0 .1896447 0 1.072847.047781 1.8457105.290625 3.1658343 1.497454 4.0180038.953642.6723766 2.759453 1.5940003 8.639915 1.5940003h.653659c3.368286-.11822 5.538609-.5822337 6.992223-1.2511621 1.303376-.5999668 2.000874-1.2088 2.62547-1.9003873.777297-.861036 1.98659-2.8840766 2.12402-5.6233336.019704-.3743635.014778-2.4220332.000986-2.6550252z" fill="#fff"/></g></g></svg>