<svg xmlns="http://www.w3.org/2000/svg" width="640" height="360" viewBox="0 0 640 360">
  <defs>
    <linearGradient id="p2p-pay-a" x1="14.702%" x2="71.203%" y1="-.589%" y2="110.82%">
      <stop offset="0%" stop-color="#003972"/>
      <stop offset="100%" stop-color="#003163"/>
    </linearGradient>
    <linearGradient id="p2p-pay-b" x1="-82.955%" x2="415.405%" y1=".488%" y2="186.186%">
      <stop offset="0%" stop-color="#A9CF84"/>
      <stop offset="100%" stop-color="#23AC70"/>
    </linearGradient>
    <linearGradient id="p2p-pay-c" x1="-54.705%" x2="167.428%" y1="-21.628%" y2="104.779%">
      <stop offset="0%" stop-color="#A9CF84"/>
      <stop offset="100%" stop-color="#23AC70"/>
    </linearGradient>
    <linearGradient id="p2p-pay-d" x1="29.892%" x2="254.395%" y1="43.825%" y2="170.176%">
      <stop offset="0%" stop-color="#A9CF84"/>
      <stop offset="100%" stop-color="#23AC70"/>
    </linearGradient>
  </defs>
  <g fill="none" fill-rule="evenodd" transform="translate(170 30)">
    <path fill="url(#p2p-pay-a)" d="M0.387931034,146.547414 L0.342672414,146.547414 L0.342672414,299.928879 L153.724138,299.928879 L153.724138,299.883621 C234.834052,297.99569 300,231.665948 300,150.103448 C300,67.3577586 232.920259,0.271551724 150.168103,0.271551724 C68.612069,0.271551724 2.27586207,65.4439655 0.387931034,146.547414"/>
    <path fill="url(#p2p-pay-b)" fill-rule="nonzero" d="M139.299569,115.959052 C130.875,115.959052 123.640086,118.939655 117.575431,124.894397 C111.517241,130.855603 108.491379,138.038793 108.491379,146.469828 C108.491379,154.887931 111.510776,162.045259 117.575431,167.954741 C123.640086,173.864224 130.875,176.818966 139.299569,176.818966 L170.185345,176.818966 L170.185345,146.469828 C170.185345,138.045259 167.140086,130.862069 161.049569,124.894397 C154.971983,118.939655 147.717672,115.959052 139.299569,115.959052 L139.299569,115.959052 Z M157.25431,164.715517 L139.260776,164.715517 C134.237069,164.715517 129.976293,162.931034 126.491379,159.342672 C123.012931,155.767241 121.267241,151.474138 121.267241,146.456897 C121.267241,141.43319 123.012931,137.114224 126.491379,133.487069 C129.969828,129.859914 134.237069,128.043103 139.260776,128.043103 C144.297414,128.043103 148.551724,129.859914 152.030172,133.487069 C155.508621,137.114224 157.25431,141.43319 157.25431,146.456897 L157.25431,164.715517 Z"/>
    <path fill="url(#p2p-pay-c)" d="M230.411638,121.318966 C227.961207,123.762931 226.74569,126.678879 226.74569,130.086207 L226.74569,165.05819 L209.877155,165.05819 C204.982759,165.05819 200.831897,163.318966 197.424569,159.840517 C194.017241,156.368534 192.310345,152.198276 192.310345,147.31681 L192.310345,130.086207 C192.310345,126.678879 191.088362,123.762931 188.650862,121.318966 C186.206897,118.881466 183.284483,117.659483 179.890086,117.659483 L179.890086,147.310345 C179.890086,155.489224 182.825431,162.452586 188.702586,168.193966 C194.579741,173.935345 201.640086,176.8125 209.877155,176.8125 L226.726293,176.8125 L226.74569,194.534483 C226.74569,197.94181 227.967672,200.857759 230.405172,203.301724 C232.849138,205.739224 235.771552,206.961207 239.165948,206.961207 L239.165948,117.659483 C235.765086,117.659483 232.842672,118.881466 230.411638,121.318966 Z"/>
    <path fill="url(#p2p-pay-d)" fill-rule="nonzero" d="M91.1508621,124.894397 C85.0668103,118.939655 77.8125,115.952586 69.3943966,115.952586 C60.9762931,115.952586 53.7413793,118.939655 47.6831897,124.894397 C41.6185345,130.855603 38.5926724,138.038793 38.5926724,146.469828 L38.5926724,207.866379 C42.0905172,207.866379 45.0905172,206.612069 47.6056034,204.103448 C50.1142241,201.588362 51.3685345,198.588362 51.3685345,195.084052 L51.387931,176.818966 L69.3943966,176.818966 C77.8642241,176.818966 85.1314655,173.864224 91.1831897,167.954741 C97.2478448,162.045259 100.280172,154.887931 100.280172,146.469828 C100.280172,138.038793 97.2413793,130.855603 91.1508621,124.894397 Z M82.1314655,159.342672 C78.6594828,162.931034 74.4116379,164.715517 69.387931,164.715517 L51.4461207,164.715517 L51.4461207,146.463362 C51.4461207,141.43319 53.1853448,137.114224 56.6508621,133.493534 C60.1228448,129.866379 64.3771552,128.049569 69.387931,128.049569 C74.4116379,128.049569 78.6530172,129.866379 82.1314655,133.493534 C85.6099138,137.12069 87.3426904,141.439655 87.3426904,146.463362 C87.3491379,151.487069 85.6163793,155.773707 82.1314655,159.342672 Z"/>
    <path fill="#FFF" fill-rule="nonzero" d="M155.75431,289.868534 L10.4030172,289.868534 L10.4030172,144.517241 L10.512931,144.517241 C11.2047414,126.814655 15.174569,109.674569 22.3189655,93.549569 C29.5280172,77.2758621 39.6594828,62.6896552 52.4353448,50.1918103 C65.2241379,37.6810345 80.0431034,27.8663793 96.4849138,21.0193966 C113.508621,13.9331897 131.573276,10.3383621 150.168103,10.3383621 C169.034483,10.3383621 187.338362,14.0366379 204.568966,21.3232759 C221.211207,28.3642241 236.159483,38.4375 248.993534,51.2780172 C261.827586,64.112069 271.907328,79.0603448 278.948276,95.7025862 C286.234914,112.93319 289.93319,131.237069 289.93319,150.103448 C289.93319,168.698276 286.338362,186.762931 279.252155,203.786638 C272.405172,220.228448 262.590517,235.047414 250.079741,247.836207 C237.581897,260.612069 222.99569,270.743534 206.721983,277.952586 C190.590517,285.096983 173.456897,289.06681 155.75431,289.758621 L155.75431,289.868534 L155.75431,289.868534 Z M15.0581897,285.213362 L151.62931,285.213362 L153.375,285.174569 C171.271552,284.760776 188.586207,280.894397 204.840517,273.698276 C220.571121,266.728448 234.672414,256.93319 246.756466,244.584052 C258.853448,232.221983 268.338362,217.894397 274.959052,201.99569 C281.8125,185.540948 285.284483,168.084052 285.284483,150.103448 C285.284483,131.864224 281.715517,114.168103 274.668103,97.512931 C267.859914,81.4267241 258.122845,66.9762931 245.709052,54.5625 C233.301724,42.1551724 218.851293,32.4116379 202.758621,25.6034483 C186.103448,18.5560345 168.407328,14.987069 150.168103,14.987069 C132.1875,14.987069 114.730603,18.4590517 98.2758621,25.3125 C82.3836207,31.9267241 68.0560345,41.4181034 55.6875,53.5150862 C43.3383621,65.5991379 33.5431034,79.700431 26.5732759,95.4310345 C19.3706897,111.685345 15.5107759,129 15.0969828,146.896552 L15.0581897,148.642241 L15.0581897,285.213362 L15.0581897,285.213362 Z"/>
    <circle cx="255.31" cy="171.388" r="7.448" fill="#FFF"/>
  </g>
</svg>
