<svg xmlns="http://www.w3.org/2000/svg" width="640" height="360" viewBox="0 0 640 360">
  <g fill="none" fill-rule="evenodd" transform="translate(80 120)">
    <g transform="translate(290.91)">
      <path fill="#FFF" d="M144.522482,116.186182 C146.74355,115.860364 149.099683,115.909818 150.870534,114.333091 C158.374141,115.450182 165.979798,113.652364 171.877633,109.646545 C174.984127,107.217455 177.784473,104.398545 180.050563,101.317818 C182.043521,98.6065455 183.616277,96.0785455 184.633766,93.0414545 C185.393131,91.168 185.99342,89.2189091 186.446638,87.2174545 C188.586667,77.7803636 187.461126,67.2261818 184.291602,58.2516364 C183.712323,56.5847273 183.049004,54.9701818 182.328658,53.4312727 C178.372756,45.5069091 172.988167,36.9570909 164.698182,31.9447273 C160.027937,29.1229091 155.72987,24.7563636 153.091602,20.2356364 C151.656912,18.9847273 150.282251,17.3265455 148.427359,17.0269091 C148.934603,17.8385455 149.492872,18.6327273 149.630938,19.5810909 L149.522886,19.7149091 C147.553939,19.7701818 146.011198,18.7607273 144.66355,17.5389091 L146.149264,16.2327273 C145.587994,15.9563636 144.945685,15.8516364 144.324387,15.712 C138.654661,15.0865455 133.990418,17.6232727 128.96,18.8450909 L128.881962,19.1156364 C131.970447,20.448 132.615758,23.7469091 134.413622,25.9781818 C134.857835,25.4603636 135.617201,25.8385455 136.238499,25.792 C137.135931,25.8414545 137.979336,26.4698182 138.849755,26.2487273 C138.876768,25.5214545 138.453564,24.9425455 138.318499,24.2909091 C138.849755,24.0465455 139.495065,24.2618182 140.089351,24.2909091 C141.716133,25.2130909 144.324387,24.128 145.338874,26.2487273 C143.483983,26.3621818 141.743146,26.7403636 140.002309,27.1505455 C140.116364,27.8312727 140.818701,28.3723636 140.761674,29.056 C139.272958,28.4567273 137.697201,28.0785455 136.040404,27.8894545 L135.956364,28.1309091 C138.063377,30.5250909 140.956768,31.9447273 143.907186,32.7854545 C148.151227,33.7367273 151.885022,31.7789091 155.981991,32.4596364 C166.042828,36.9250909 174.63596,47.1389091 178.372756,56.832 C178.555844,57.2974545 178.732929,57.7687273 178.898009,58.2487273 C182.028514,67.1010909 182.622799,77.9810909 179.486291,87.2145455 C177.817489,91.0545455 175.980606,94.6792727 173.03619,97.8007273 C171.922655,99.1301818 170.692063,100.314182 169.35342,101.314909 C165.136392,104.497455 159.937893,105.902545 154.577316,104.477091 C154.241154,104.253091 153.56583,104.197818 153.679885,103.630545 C153.865974,102.871273 154.040058,102.103273 154.193131,101.314909 C155.078557,96.8901818 155.492756,92.2356364 155.252641,87.5810909 C155.246638,87.3832727 155.240635,87.1825455 155.234632,86.9847273 C154.937489,80.2269091 153.547821,74.1527273 150.98759,68.3083636 C149.342799,64.9541818 147.391861,61.2974545 144.93368,58.016 C141.998268,54.1032727 138.357518,50.7229091 133.68127,49.0356364 C130.814892,48.2996364 127.27619,48.16 125.115152,50.4727273 C123.569408,51.7847273 122.9271,53.5505455 123.149206,55.488 C120.733045,56.9716364 118.016739,57.7716364 115.060317,58.016 C114.33697,58.0770909 113.595613,58.336 112.842251,58.3272727 C112.127908,58.3592727 111.431573,58.3301818 110.747244,58.2487273 C107.190534,57.824 103.591804,55.9621818 100.857489,53.8385455 C100.800462,52.4218182 100.716421,51.0894545 100.659394,49.5912727 C99.0926407,48.8029091 97.7930159,47.3047273 97.6849639,45.5330909 L97.8230303,45.3992727 C98.7264646,45.6698182 99.5068398,46.1032727 100.323232,46.5658182 C99.9570563,44.4421818 99.5338528,42.3476364 98.444329,40.4945455 C97.4298413,40.0843636 96.418355,39.7585455 95.4668975,39.2669091 C94.3713709,38.5658182 93.6660317,37.28 93.5039538,36.1134545 C94.4854257,37.0385455 96.1962482,36.7127273 96.9556133,37.6901818 C95.6319769,33.9054545 95.6109668,29.5767273 93.443925,26.1178182 C92.3483983,23.5607273 89.4820202,22.3883636 87.516075,20.512 C86.75671,19.6101818 86.4505628,18.3592727 85.0759019,18.2196364 C83.9503608,17.9490909 83.8663203,16.7272727 83.6712266,15.9330909 C84.3705628,16.0145455 84.9588456,16.4770909 85.5471284,16.5847273 C83.9203463,12.3985455 82.4856566,7.73818182 78.0795382,5.07054545 L77.3231746,5.536 C75.6093506,5.78036364 73.7814719,5.89090909 72.0706494,5.94618182 C72.8300144,4.85818182 74.1746609,4.39272727 75.2431746,3.89818182 C74.0065801,3.00218182 72.9890909,2.78690909 71.4433478,2.54254545 C70.5459163,3.40945455 68.9221356,3.84872727 67.7695815,4.09309091 L67.6255123,3.98254545 C67.5954978,3.00218182 67.3673882,1.80654545 68.8891198,1.55927273 C67.427417,0.878545455 65.0052525,1.15490909 63.5165368,1.55927273 C63.0993362,2.62109091 61.8927561,3.57527273 61.979798,4.832 C61.112381,5.70181818 60.4940837,6.87418182 59.5906494,7.49963636 C59.5636364,5.40218182 60.4850794,3.47054545 60.8782684,1.70181818 C59.6146609,2.16436364 58.3300433,2.81890909 57.0904473,3.38909091 C55.1004906,2.272 52.9994805,1.15781818 50.8654545,0.311272727 C50.6733622,0.229818182 50.2471573,0.151272727 50.3311977,0.503272727 C52.1590765,1.78036364 51.4507359,4.18036364 51.6458297,5.99854545 L50.4932756,5.07636364 C49.9320058,3.68872727 48.3112266,2.68218182 48.0320924,1.15781818 C46.1201732,1.51272727 44.8985859,2.00145455 43.1277345,2.73745455 L42.8846176,2.87418182 C44.2022511,2.87418182 45.3247908,3.87781818 45.970101,4.89018182 C43.9771429,4.99490909 42.2062915,4.23563636 40.2403463,4.04072727 C40.0452525,3.85454545 39.8741703,3.63054545 39.5650216,3.65963636 C38.5835498,4.01454545 37.7371429,4.69236364 36.8727273,5.34690909 C34.9337951,7.2 32.9648485,9.24218182 32.040404,11.6945455 C32.6887157,11.7992727 33.5021068,11.7730909 33.9793362,12.1541818 C32.913824,12.7796364 31.9863781,13.8443636 30.9478788,14.4407273 C30.5817027,15.8574545 30.6387302,17.4690909 30.5516883,19.0167273 C29.7352958,20.2181818 28.6427706,21.2741818 28.1115152,22.6152727 C26.3676768,28.0785455 25.9204618,34.1556364 26.172583,40.3607273 C25.6083117,40.8814545 24.8759596,41.2101818 24.3477056,41.6174545 L24.404733,47.168 L24.5427994,47.168 C24.7949206,46.0014545 26.2296104,45.3498182 27.1000289,44.5585455 L27.3821645,44.5585455 C27.2410967,45.8094545 27.0730159,47.0632727 27.0460029,48.3432727 L25.4192208,49.6494545 C23.7864358,51.04 25.1640981,53.1345455 25.0260317,54.88 C25.1400866,55.3367273 25.2181241,56.0203636 25.5572872,56.1309091 C25.7553824,55.4501818 26.3706782,54.9614545 26.7668687,54.3592727 C27.4662049,54.1992727 28.0845022,53.6494545 28.7298124,53.5738182 C28.3636364,54.9352727 27.8924098,56.2676364 27.3251371,57.5738182 C27.0550072,57.7454545 26.7398557,57.9752727 26.4697258,58.2545455 C26.1815873,58.5541818 25.9504762,58.8887273 25.8904473,59.2610909 C27.1600577,65.7105455 29.147013,72.0814545 31.4191053,78.1527273 C29.8793651,80.6865455 29.0029437,83.6683636 27.7183261,86.2836364 C27.5322367,86.6472727 27.3671573,87.0225455 27.2140837,87.4007273 C25.9234632,90.5658182 25.5302742,94.1061818 23.9245022,97.1461818 C23.273189,96.7156364 22.5708514,96.3810909 21.8475036,96.0843636 C18.8100433,95.104 15.298355,95.7294545 13.08329,97.9927273 C11.1143434,97.6378182 9.09137085,97.9636364 7.54562771,98.9730909 C6.43809524,99.7730909 5.58268398,100.747636 5.09044733,101.882182 C4.75428571,102.673455 4.60121212,103.534545 4.65223665,104.474182 C3.39163059,105.314909 2.71630592,106.618182 2.2961039,107.930182 C1.70782107,110.868364 2.77333333,113.928727 4.51417027,116.192 L144.522482,116.192 L144.522482,116.186182 Z"/>
      <path fill="#FFF" d="M125.928543 54.9701818C125.898528 55.6770909 125.367273 56.4712727 125.844502 57.0676364 126.519827 56.3316364 127.645368 56.3578182 128.542799 56.0349091 131.04 55.8167273 133.429149 56.576 135.758268 57.1258182 135.172987 56.224 134.776797 55.2232727 134.131486 54.4029091 132.834863 54.0770909 130.871919 54.9469091 130.649812 53.0967273 129.860433 52.4421818 128.620837 52.9105455 127.813449 52.9570909 127.024069 53.5069091 126.378759 54.1818182 125.928543 54.9701818L125.928543 54.9701818zM40.0812698 31.4647273C40.0692641 31.4530909 40.0512554 31.4414545 40.0392496 31.4385455 40.0392496 31.4414545 40.0392496 31.4530909 40.0452525 31.4647273L40.0812698 31.4647273zM50.2921789 55.6625455L51.9789899 54.0858182C52.1230592 54.0858182 52.2311111 54.1149091 52.3151515 54.2254545L52.1740837 57.2450909C52.9874747 57.9810909 53.998961 58.2254545 55.0644733 58.2807273 55.1515152 57.4632727 55.7968254 56.8930909 56.1630014 56.1832727 56.4721501 55.6130909 56.2770563 54.7665455 56.8923521 54.3563636L57.0844444 54.5483636C57.2855411 55.4443636 57.2315152 56.4538182 57.7087446 57.2421818 57.765772 57.6756364 57.846811 58.2225455 57.9008369 58.6036364 59.1374315 58.6618182 60.2569697 58.3301818 61.21443 57.8967273 61.1574026 56.864 61.5265801 56.0174545 61.688658 55.0632727 61.9467821 54.7345455 61.3795094 54.1381818 62.0848485 54.1672727 62.4780375 54.9818182 63.1803752 55.8254545 63.5735642 56.6952727 65.2003463 55.0894545 65.875671 52.9949091 66.26886 50.8189091 65.794632 50.1876364 65.0622799 50.1876364 64.4980087 49.7832727 59.7257143 48.2850909 53.5967677 47.9825455 48.9895527 50.2981818 48.6924098 52.1541818 49.0855988 54.1963636 50.2921789 55.6625455L50.2921789 55.6625455zM5.65471861 106.752C5.48363636 108.852364 5.65471861 110.818909 5.78978355 112.887273 6.24300144 113.568 7.05939394 114.359273 7.86678211 114.414545L8.01385281 113.024C8.34701299 111.086545 7.28150072 109.032727 8.40704185 107.400727 9.19341991 107.645091 9.97379509 108.026182 10.6551227 108.381091 10.9852814 106.583273 10.5140548 104.488727 8.74320346 103.400727L5.65471861 106.752zM12.5880519 103.816727C11.4925253 106.999273 10.6761328 110.932364 12.0027706 114.280727 12.7561328 113.794909 13.5455123 113.329455 14.2148341 112.648727 14.0797691 110.085818 13.7135931 107.351273 15.2833478 105.227636 16.6580087 105.637818 17.5914574 106.917818 18.1197114 108.171636 19.0501587 107.022545 19.3593074 105.445818 18.9931313 103.918545 19.0501587 102.725818 17.6394805 102.999273 16.9671573 102.504727 17.195267 101.498182 17.1622511 100.331636 18.2607792 99.7614545L14.8901587 100.087273C14.0227417 101.28 13.0682828 102.455273 12.5880519 103.816727L12.5880519 103.816727zM19.5273882 113.216C19.6714574 113.466182 19.5273882 113.896727 19.8095238 113.952 20.2327273 111.668364 22.141645 110.184727 23.1831457 108.171636 23.6843867 107.490909 23.6543723 106.536727 24.4707648 106.018909 25.5692929 106.018909 26.355671 106.784 27.4241847 106.865455 27.7603463 107.109818 27.250101 107.325091 27.2260895 107.595636 27.0039827 109.451636 26.2716306 110.987636 26.4126984 112.890182L26.6047908 112.890182C28.0935065 111.371636 29.1049928 109.719273 30.2005195 107.976727L30.3926118 106.429091C30.644733 104.576 28.5677345 103.380364 27.2200866 102.618182L28.4266667 101.12 26.7428571 100.546909C24.7739105 100.738909 23.0030592 101.527273 21.6283983 103.028364 19.9205772 106.074182 19.641443 109.515636 19.5273882 113.216L19.5273882 113.216zM27.0850216 97.0589091C27.7303319 97.2509091 28.3186147 96.7330909 28.9609235 97.0065455 31.5481674 97.9287273 34.2464646 98.8829091 36.1823954 100.980364L38.4875036 106.667636 39.6400577 103.159273 38.8806926 101.250909C38.2353824 99.8894545 36.464531 100 35.2549495 99.9447273 34.7537085 99.4007273 35.2849639 98.7723636 35.4560462 98.2574545 36.0413276 96.3258182 33.598153 96.4305455 32.6166811 95.648 32.67671 94.4756364 31.2120058 94.8829091 30.3956133 94.7723636L30.1164791 94.4465455C29.9513997 94.2021818 29.5311977 94.2021818 29.303088 94.3912727 29.2430592 94.3127273 29.1350072 94.2574545 29.1950361 94.1178182L28.5707359 94.2574545C27.7033189 94.9934545 27.1120346 95.9447273 27.0850216 97.0589091zM28.7118038 90.8014545C28.7958442 91.1534545 29.0209524 91.5083636 29.3000866 91.7236364 30.5666955 91.3978182 31.7702742 90.5570909 33.2319769 91.0690909 35.1168831 92.6749091 37.0798268 94.3621818 39.3609235 95.2378182L40.1713131 95.0981818C40.678557 95.2669091 41.2368254 95.2901818 41.5759885 95.8341818 41.8881385 96.5701818 41.1047619 97.0065455 40.8466378 97.6029091 42.1132468 98.5018182 41.6060029 100.110545 42.3953824 101.195636L44.418355 98.5832727C43.944127 97.4370909 44.445368 95.4792727 42.5904762 95.3716364 41.9751804 95.0690909 41.5519769 94.4698182 41.5789899 93.7890909 40.3754113 92.7272727 38.8866955 92.2676364 37.6741126 91.1796364 36.6926407 90.4145455 36.1043579 89.2421818 34.8377489 88.9716364 33.9703319 88.512 33.0188745 88.2647273 32.0073882 88.0494545 30.1164791 87.7789091 29.9513997 89.952 28.7118038 90.8014545L28.7118038 90.8014545zM31.4070996 85.4370909L31.7462626 85.9549091C33.1479365 85.8705455 34.4175469 85.2741818 35.7952092 85.3003636 36.7196537 85.8472727 37.9292352 85.8210909 38.8806926 86.2807273 39.6400577 87.2872727 40.4564502 88.4305455 41.572987 89.1141818 43.8540837 89.4370909 45.1146898 91.808 45.9010678 93.5476364L45.9010678 92.704C46.2372294 91.5374545 45.8710534 90.1730909 45.4208369 89.1141818 44.8595671 88.5672727 44.046176 88.2094545 43.4578932 87.7207273 43.3438384 87.3687273 43.4278788 87.2029091 43.5419336 86.8770909 42.6685137 85.9781818 41.3778932 85.4865455 40.312381 84.7825455 38.8236652 82.6850909 35.9572872 83.2581818 33.6821934 82.6850909L31.4070996 85.4370909 31.4070996 85.4370909zM31.3620779 65.4632727C31.6111977 66.3098182 31.9173449 67.3716364 32.0824242 68.2676364 32.8688023 66.5803636 34.4205483 65.824 35.7952092 64.4334545 35.0058297 63.9127273 34.0273593 63.6683636 33.1569408 63.5054545L33.1569408 63.456C32.5386436 64.0523636 31.5841847 64.6516364 31.3620779 65.4632727L31.3620779 65.4632727zM36.464531 74.4203636L37.7281385 73.1694545C38.9947475 71.9185455 40.0332468 70.4727273 40.2283405 68.8669091 39.3309091 68.3490909 38.151342 68.7010909 37.2809235 69.0007273 36.965772 70.7752727 36.4945455 72.5178182 36.464531 74.4203636zM37.3889755 78.2603636C39.3309091 78.3709091 41.2098124 78.7461818 42.78557 77.6930909L44.3553247 72.7883636C43.8540837 72.7592727 43.3438384 72.544 42.8696104 72.7069091 41.8341126 74.9410909 39.7481097 77.1432727 37.3889755 78.2603636zM37.9592496 60.8901818C39.2228571 62.6909091 41.3298701 64.704 43.4939105 65.2712727 43.2417893 62.9876364 41.2218182 61.4050909 40.1803175 59.4472727L40.1202886 58.7927273C39.3068975 58.0276364 38.3224242 57.5156364 37.4790188 57.1025455 37.3439538 58.4145455 37.7101299 59.6683636 37.9592496 60.8901818zM44.8085426 78.4785455C46.2972583 78.7287273 47.8970274 78.4785455 49.2716883 78.0654545 51.2706494 77.6087273 52.366176 75.4821818 53.0384993 73.824L50.5382973 73.824 47.84 76.3810909C46.7774892 76.928 45.76 77.7483636 44.8085426 78.4785455L44.8085426 78.4785455zM44.5053968 58.4145455C44.9286003 60.5381818 45.8500433 62.4698182 47.1196537 64.2967273L47.4558153 60.2385455 44.5053968 58.4145455 44.5053968 58.4145455zM53.713824 69.0036364C53.8819048 67.6421818 53.2966234 66.0654545 53.1345455 64.6778182 52.2881385 64.1309091 51.10557 64.1861818 50.238153 63.6450909 50.2921789 65.7949091 52.0300144 67.616 53.713824 69.0036364L53.713824 69.0036364zM51.1565945 82.8392727C52.9274459 82.2923636 54.6382684 81.6930909 56.2650505 80.8203636 57.3035498 79.3832727 58.8793074 78.0683636 59.1014141 76.384 57.8107937 76.736 56.6852525 76.3316364 55.4816739 76.9047273 54.7523232 78.1818182 54.2991053 79.6276364 52.8974315 80.5498182 52.6753247 81.472 51.633824 82.1032727 51.1565945 82.8392727L51.1565945 82.8392727zM53.9059163 86.1876364L56.0129293 88.8523636C57.1384704 89.2072727 58.5431457 89.0967273 59.5246176 88.4712727L58.7652525 86.048C57.2795382 86.5978182 55.5116883 86.4290909 53.9059163 86.1876364zM57.4206061 66.9061818L58.2339971 70.5018182C60.1969408 68.9483636 60.5961328 66.688 60.5481097 64.2938182 59.4225685 65.5447273 58.7652525 66.3098182 57.4206061 66.9061818zM62.9522655 73.2538182C62.9822799 73.7687273 63.1233478 74.2603636 63.4324964 74.6705455 65.6205483 75.4298182 65.8456566 78.016 67.8716306 78.9963636 69.1892641 79.5665455 70.7019913 78.8567273 71.8575469 78.3418182 70.9871284 77.3905455 69.9996537 76.7301818 69.1622511 75.7265455 68.5709668 75.4821818 67.9796825 75.1272727 68.009697 74.4203636L62.9522655 73.2538182 62.9522655 73.2538182zM64.6931025 86.1032727C65.6505628 87.1650909 66.9411833 87.7090909 68.2888312 88.0058182 68.0667244 87.7061818 68.4329004 88.0058182 68.4869264 87.8167273L66.797114 84.2298182C65.95671 84.2501818 65.0862915 84.416 64.2999134 84.3636364 64.3539394 84.9570909 64.4980087 85.5534545 64.6931025 86.1032727L64.6931025 86.1032727zM67.6735354 69.3294545C66.8841558 67.5607273 66.5539971 65.4109091 66.3318903 63.4530909 65.4884848 64.4305455 64.6180664 65.0589091 63.8316883 66.0625455 63.4655123 68.0785455 66.4339394 68.5730909 67.6735354 69.3294545zM71.0981818 67.4821818C72.1096681 68.7592727 74.3277345 68.3229091 75.5703319 67.9418182 74.9760462 66.9614545 73.0731313 66.3912727 72.7369697 65.3294545 72.5388745 63.4530909 72.1516883 61.6290909 71.5273882 59.9127273 70.5429149 62.2254545 69.3573449 64.9774545 71.0981818 67.4821818L71.0981818 67.4821818zM72.8660317 73.2538182C75.6783838 75.2436364 78.4277056 77.5534545 82.359596 76.7098182 82.6417316 76.5178182 83.118961 76.544 83.1759885 76.192 82.0204329 75.4821818 80.7898413 74.9381818 79.6072727 74.2894545L78.2626263 72.3810909 77.644329 72.3810909C76.1255988 72.8727273 74.4928139 73.0589091 72.8660317 73.2538182zM72.9260606 95.3338182L73.118153 95.3338182C74.8079654 94.0276364 76.8009235 93.5912727 78.7938817 93.0443636 79.33114 93.2334545 78.9919769 93.8065455 79.4692063 94.0276364 80.6787879 93.536 82.1404906 93.6465455 83.3740837 93.2363636 84.8658009 93.2945455 86.0753824 93.3207273 87.278961 93.9461818 88.2304185 95.168 90.0312843 95.0370909 91.2708802 95.8487273L91.072785 93.9461818C88.4615296 90.976 84.38557 90.7578182 80.6277633 90.816L80.5407215 90.432C79.64329 90.432 78.6348052 90.624 77.7913997 91.008 76.5848196 91.0574545 75.4322655 91.6334545 74.27671 91.9854545 73.7394517 93.0210909 73.3192496 94.2690909 72.9260606 95.3338182L72.9260606 95.3338182zM75.1801443 61.8734545C76.275671 63.264 77.9024531 64.3229091 79.7573449 63.9709091 78.8058874 63.072 77.7073593 62.1149091 77.6503319 60.8378182 77.9324675 58.4145455 75.1801443 58.2254545 73.8324964 56.9687273 74.27671 58.6065455 74.2256854 60.4276364 75.1801443 61.8734545L75.1801443 61.8734545zM74.8950072 100.154182L75.2221645 100.154182C76.7138817 99.2494545 78.8779221 99.9330909 80.3396248 98.9789091 81.1530159 98.5687273 81.2070418 99.6596364 81.7743146 99.9592727 83.1489755 100.776727 83.3170563 103.223273 85.2559885 102.656 87.5851082 103.825455 86.9968254 106.580364 87.0808658 108.593455L89.2449062 107.287273C89.046811 106.225455 89.6621068 104.939636 88.9597691 104.017455 88.4285137 102.850909 86.9698124 102.740364 86.2674747 101.786182 87.1108802 100.395636 85.2019625 99.7469091 84.805772 98.7374545L84.9198268 98.5978182 87.8912554 98.9789091C88.9087446 99.5781818 89.2689177 100.669091 89.5810678 101.675636 91.913189 102.056727 92.4744589 104.613818 93.2908514 106.248727 93.7680808 105.131636 93.9631746 103.933091 94.4434055 102.848 94.4704185 101.946182 93.233824 101.946182 92.6185281 101.541818 92.4444444 100.154182 91.8021356 98.8421818 90.5415296 98.0014545 87.9542857 97.376 85.6821934 95.9854545 82.8458297 95.9854545L80.4836941 96.6952727C79.1900722 96.9949091 77.8154113 96.6138182 76.8339394 97.4807273 75.3662338 97.5883636 75.2551804 99.1447273 74.8950072 100.154182L74.8950072 100.154182zM76.3777201 88.9338182L76.9149784 89.1781818C78.0615296 88.6574545 79.2170851 88.0610909 80.4266667 87.6247273 82.30557 87.1069091 83.7672727 89.1781818 85.3430303 87.872 85.9313131 87.4618182 86.4325541 88.0610909 86.885772 88.3898182 87.5610967 89.5883636 89.1338528 89.5069091 90.3134199 89.8327273 89.7251371 88.2821818 88.9957864 86.1556364 86.9427994 85.9054545 86.1294084 85.5534545 85.1719481 85.5883636 84.38557 85.12 82.224531 82.8072727 80.8198557 87.0225455 78.4577201 85.9898182 77.617316 86.8945455 76.5788167 87.7352727 76.3777201 88.9338182z"/>
      <path fill="#FFF" d="M76.9149784 102.193455C77.8124098 102.923636 78.7368543 104.180364 80.1385281 104.014545 81.8883694 104.805818 81.1560173 107.034182 82.1104762 108.206545L83.118961 107.333818 83.0349206 107.281455 83.1789899 107.144727 83.2390188 107.226182C83.518153 106.405818 83.1219625 104.962909 82.644733 104.011636 81.9994228 103.581091 81.2400577 104.040727 80.6247619 103.630545 80.5377201 102.760727 79.9764502 102.324364 79.33114 101.780364 78.8809235 101.454545 78.2896392 101.890909 77.7853968 101.861818L76.9149784 102.193455 76.9149784 102.193455zM80.4266667 69.0036364C81.3541126 70.5047273 83.1489755 71.4298182 84.5836652 72.4625455 85.7602309 72.9832727 87.305974 73.1141818 88.572583 72.8436364 87.3660029 71.8923636 86.2674747 70.8043636 85.2589899 69.6552727 84.8658009 69.1112727 84.778759 68.4334545 84.2475036 67.9418182 82.9208658 68.1890909 81.438153 68.1629091 80.4266667 69.0036364zM81.9754113 59.2610909C83.2720346 60.8087273 85.2649928 60.1861818 87.0898701 60.2385455L87.0898701 60.0523636 84.2805195 57.76C83.49114 58.0072727 82.6537374 58.6850909 81.9754113 59.2610909L81.9754113 59.2610909zM30.2665512 33.5854545L31.8933333 38.4872727C31.8633189 35.7090909 33.1839538 33.3963636 32.9048196 30.5658182L34.1144012 28.8203636 31.5541703 29.5825455C30.881847 30.8334545 30.3235786 32.0901818 30.2665512 33.5854545L30.2665512 33.5854545zM31.3620779 25.0909091L33.5771429 23.8370909 33.5771429 20.6516364C32.649697 21.1985455 32.1394517 22.1236364 31.4161039 22.8596364L31.3620779 25.0909091z"/>
      <path fill="#FFF" d="M76.9209812,30.048 C76.3837229,30.7287273 75.5733333,30.8916364 74.9010101,31.0283636 C76.0775758,28.9309091 76.641847,26.0130909 75.7113997,23.6450909 C76.3326984,23.4298182 77.0080231,23.3250909 77.5963059,22.9934545 L77.5362771,22.9410909 L79.0850216,21.6290909 C81.1350072,20.2676364 80.3486291,17.6843636 81.1079942,15.7527273 C80.0965079,14.2254545 79.7903608,12.3752727 78.3256566,11.0923636 L78.4126984,11.0429091 C77.2571429,9.62618182 75.1801443,9.78618182 73.6013853,9.07927273 C71.5243867,8.39854545 69.9246176,9.78618182 68.4359019,10.7170909 C67.7905916,10.8218182 68.1837807,11.6392727 67.481443,11.6130909 C67.088254,12.6225455 66.6080231,13.7105455 66.3288889,14.8247273 C63.5465512,14.4407273 60.5451082,14.7461818 58.3240404,16.2676364 C57.1414719,15.4269091 55.7097835,15.2610909 54.3321212,14.88 C53.3236364,14.6909091 52.1710823,15.0458182 51.444733,14.496 C50.3792208,13.3294545 50.1481097,11.2029091 48.3202309,10.9061818 C47.6779221,10.688 47.5398557,10.0101818 47.5398557,9.408 C46.3302742,9.21890909 45.258759,8.67781818 44.0791919,8.42763636 C42.2873304,7.63636364 40.8556421,8.89309091 39.5049928,9.73381818 C38.91671,9.98109091 38.2413853,10.0596364 37.6831169,10.3912727 C36.6716306,11.9127273 35.7141703,13.4661818 35.06886,15.1505455 C35.2669553,16.5381818 35.8822511,17.7658182 36.6176046,18.9352727 C37.2629149,20.7069091 39.282886,22.0945455 40.99671,22.8043636 C40.1833189,25.4981818 40.1833189,28.7127273 40.99671,31.4356364 C40.99671,31.4356364 40.9486869,31.4676364 40.9486869,31.4618182 C40.9486869,31.4676364 40.8586436,31.5374545 40.8586436,31.5374545 C40.5885137,31.5374545 40.3033766,31.5898182 40.0812698,31.4618182 L40.0452525,31.4618182 C40.4384416,34.0625455 41.7020491,36.3374545 43.7430303,38.2894545 C44.4753824,38.5396364 44.3073016,39.3803636 44.6194517,39.9272727 C44.811544,40.1687273 44.838557,40.6865455 44.7545166,40.9047273 C40.3784127,40.768 36.4705339,41.8298182 32.9588456,43.7614545 C32.0614141,44.1978182 32.4576046,45.3992727 32.3735642,46.24 C34.8437518,44.6632727 37.5120346,43.4909091 40.4594517,42.976 C41.7230592,42.8945455 43.1547475,42.5949091 44.364329,42.9207273 L44.5053968,45.2625455 C41.1647908,46.9498182 37.5120346,47.9301818 34.6456566,50.7083636 C34.702684,51.5490909 34.5376046,52.5323636 34.7897258,53.2421818 L37.3469553,51.2232727 C39.8141414,49.4050909 42.3983838,47.8487273 45.2377489,46.8421818 C45.997114,47.7149091 46.7864935,48.64 47.7979798,49.1810909 C49.5088023,48.1192727 51.3636941,47.3338182 53.3296392,46.8421818 C54.37114,46.2429091 56.0219336,46.7869091 56.6972583,45.5912727 L57.1774892,43.1127273 C57.0904473,43.0574545 57.0394228,42.9527273 56.8953535,42.9818182 C55.5777201,42.2458182 54.7073016,40.9687273 54.818355,39.4676364 C54.37114,39.6829091 53.8668975,39.8225455 53.3296392,39.8487273 C52.8794228,39.7381818 52.4622222,39.6334545 52.264127,39.1941818 C52.2341126,38.6472727 51.9519769,37.8327273 52.5132468,37.4254545 C54.3381241,36.3345455 56.7002597,36.2792727 59.005368,36.448 C60.7161905,36.6632727 63.192381,36.5789091 63.7776623,38.5454545 C63.6996248,39.1156364 63.7506494,39.7410909 63.1623665,40.1221818 C62.5440693,40.448 61.844733,40.0930909 61.2774603,39.8516364 C60.8332468,41.184 60.0738817,42.6850909 58.5251371,43.1156364 L58.7262338,44.6981818 C58.9183261,45.408 58.9753535,46.5745455 60.1309091,46.3301818 C62.7991919,46.9556364 65.1553247,48.2909091 67.4874459,49.7338182 C68.273824,48.9687273 68.8921212,48.096 69.4503896,47.3105455 C73.6073882,48.6690909 77.2061183,51.6916364 80.6307648,54.496 L80.7748341,52.2094545 C77.515267,49.4050909 73.8895238,47.4181818 70.1257143,45.8647273 C70.2697835,45.1287273 70.4378644,44.4189091 70.4618759,43.6334545 C74.9310245,43.8749091 79.1660606,45.2101818 82.8518326,47.3105455 L82.7918038,45.3498182 C78.9169408,43.3367273 74.6759019,42.0014545 70.0386724,41.9461818 C69.8705916,41.696 69.8165657,41.3469091 69.8465801,41.0996364 C72.0946609,40.7447273 73.6914286,38.4872727 74.2316883,36.5236364 C75.3782395,35.2465455 77.041039,33.856 76.6478499,31.9534545 C76.6988745,31.7992727 76.7559019,31.6305455 76.8129293,31.4676364 C76.9630014,30.9876364 77.089062,30.4901818 76.9209812,30.048 L76.9209812,30.048 Z"/>
      <path fill="#FFF" d="M80.82886 37.0443636L83.1309668 36.3345455 83.3800866 35.0836364C84.0313997 33.2596364 82.6567388 31.8981818 81.9754113 30.4523636L80.82886 37.0443636zM86.6366522 45.6756364C87.7321789 46.8421818 88.8006926 48.7243636 90.7426263 48.1483636 90.598557 47.3629091 90.1483405 46.7112727 89.8692063 46.0014545 89.358961 45.4254545 89.1938817 43.7934545 88.1823954 44.3694545 87.4230303 43.8778182 87.230938 43.0574545 86.7477056 42.4058182 86.5286003 43.4123636 86.6666667 44.6661818 86.6366522 45.6756364L86.6366522 45.6756364zM87.0328427 53.6465455C87.4560462 54.2225455 87.570101 54.9585455 87.9843001 55.4734545 88.7436652 55.9592727 89.8692063 55.8836364 90.7936508 55.7992727 91.6370563 55.6101818 92.1713131 56.5061818 92.9576912 55.9854545 91.9792208 55.3890909 91.390938 54.2981818 90.4574892 53.5127273 89.358961 52.6690909 88.1853968 53.4050909 87.0328427 53.6465455L87.0328427 53.6465455zM88.5215584 66.3098182C90.4574892 67.4269091 92.9246753 68.5178182 95.5089177 68.1367273 95.7880519 67.9970909 96.2682828 68.0261818 96.3223088 67.6974545 94.7225397 67.1505455 93.0417316 65.6 91.3609235 65.2741818 90.4304762 63.8865455 89.2238961 65.6290909 88.044329 65.5185455 88.071342 65.8472727 88.4075036 66.0945455 88.5215584 66.3098182zM94.3593651 90.3476364L94.7825685 91.2232727C95.205772 94.0567273 97.0546609 96.6661818 96.0431746 99.7701818 96.8865801 100.340364 97.1417027 101.291636 97.6729582 102.053818L97.814026 102.053818C98.4593362 99.6887273 98.0121212 97.2363636 97.6729582 94.8654545 97.9250794 92.7156364 95.6769986 91.4618182 94.3593651 90.3476364L94.3593651 90.3476364zM94.8425974 62.4698182C96.3043001 63.5607273 98.6364214 63.6683636 100.317229 63.1243636 99.2517172 62.5541818 98.0751515 61.9287273 97.1987302 61.1636364L94.8425974 62.4698182 94.8425974 62.4698182zM101.772929 70.8305455C101.62886 71.9767273 102.41824 72.928 103.261645 73.4981818 103.570794 72.8174545 104.075036 72.2472727 104.129062 71.4850909 103.879942 70.3127273 103.204618 69.2538182 102.109091 68.4654545 101.910996 69.2247273 101.688889 69.9549091 101.772929 70.8305455zM101.859971 83.2407273C101.661876 84.5178182 103.120577 84.6865455 103.738874 85.3934545 104.246118 85.9898182 103.402713 86.4 103.402713 86.9701818 104.468225 88.3025455 105.086522 89.8298182 105.086522 91.6014545 105.509726 89.9432727 106.155036 88.3578182 106.386147 86.6443636 106.272092 85.4487273 104.309149 85.6930909 104.615296 84.3607273 105.173564 82.9992727 104.501241 81.664 104.135065 80.4421818 104.02101 80.2472727 103.768889 79.8661818 103.549784 79.9767273 103.033535 81.0938182 101.772929 81.8792727 101.859971 83.2407273L101.859971 83.2407273zM105.707821 76.7621818L107.166522 79.5112727C107.814834 79.4356364 108.229033 78.8305455 108.736277 78.4 109.132468 77.2538182 108.090967 76.5178182 107.78482 75.5927273 107.526696 74.9381818 107.78482 74.0683636 107.304589 73.4952727 106.941414 73.28 106.515209 72.9250909 106.095007 73.0298182L105.707821 76.7621818zM107.586724 69.5243636C108.739278 70.2021818 110.056912 71.1825455 110.672208 72.3781818 111.659683 75.1563636 113.232439 77.6610909 114.381991 80.3549091 114.805195 82.2341818 115.141356 83.9098182 115.675613 85.7629091 115.873709 86.2458182 115.759654 87.2 116.549033 87.1214545 116.77114 85.0530909 117.194343 83.0661818 117.221356 80.9134545 116.52202 80.0174545 115.588571 79.6363636 114.721154 79.0865455L114.721154 78.9003636C114.835209 78.4349091 115.228398 77.8909091 115.819683 77.9781818 116.068802 77.6989091 116.828167 77.4312727 116.495007 76.9425455 115.033304 75.5287273 115.117345 73.088 112.782222 72.6487273 111.971833 72.3229091 111.770736 71.5083636 111.692698 70.7461818 110.59417 69.8530909 108.961385 69.5447273 107.586724 69.5243636L107.586724 69.5243636zM108.931371 84.2792727C110.366061 85.5534545 109.86482 87.4065455 109.747763 89.1229091 109.525657 90.1585455 110.873304 89.5592727 111.296508 90.1032727 112.163925 91.3570909 111.659683 93.1810909 111.347532 94.5425455 112.109899 93.4225455 112.980317 92.4421818 113.5686 91.2203636 113.538586 90.7549091 114.153882 90.5396364 114.132872 89.9694545 114.381991 89.1781818 113.430534 89.5330909 113.037345 89.4458182 112.701183 89.3643636 112.335007 89.1461818 112.443059 88.7127273 113.175411 87.3483636 112.503088 85.7163636 112.220952 84.3578182 111.884791 83.2378182 112.365022 81.7454545 111.827763 80.7650909 110.930332 81.9636364 108.259048 82.2370909 108.931371 84.2792727L108.931371 84.2792727zM111.545628 64.9454545C114.048831 67.3978182 115.873709 69.8589091 118.569004 72.2298182 118.629033 71.1738182 118.484964 70.1876364 118.427937 69.152 118.031746 68.4218182 117.302395 67.8749091 116.684098 67.3309091 114.694141 67.1389091 113.652641 64.5381818 111.545628 64.9454545L111.545628 64.9454545zM118.091775 77.9229091C118.148802 78.1672727 118.262857 78.3825455 118.370909 78.6298182 119.466436 80.3752727 120.504935 82.1672727 121.267302 84.0465455 121.042193 82.0363636 122.44987 79.5258182 120.591977 77.9781818 120.339856 77.3236364 119.49645 77.5418182 118.962193 77.5941818L118.091775 77.9229091 118.091775 77.9229091zM124.833016 97.8123636C125.622395 98.1585455 126.63088 97.5330909 127.390245 97.1025455 128.092583 96.9367273 128.683867 97.3178182 129.218124 97.6727273 129.440231 98.1061818 129.218124 98.5134545 129.296162 98.9236364 130.985974 99.3861818 132.639769 99.9854545 134.131486 100.936727L134.602713 100.477091C134.716768 99.3047273 133.76531 98.4669091 132.864877 97.8123636 132.276595 97.4778182 131.400173 97.6727273 130.985974 97.152 131.265108 96.7214545 131.265108 96.0669091 131.235094 95.5752727 130.304646 95.5752727 129.716364 95.3018182 128.956999 94.8654545 128.485772 94.7316364 128.059567 94.3505455 127.666378 94.8654545 126.264704 95.7934545 126.180664 97.152 124.833016 97.8123636L124.833016 97.8123636zM126.801962 63.5490909C127.501299 63.3629091 128.236652 63.1650909 128.824935 62.6792727 130.700837 61.0181818 133.429149 62.1323636 135.617201 62.1061818 135.2 61.3701818 134.605714 60.64 134.074459 60.0087273 133.288081 59.7090909 132.555729 59.3541818 131.658297 59.3541818 129.746378 58.2690909 128.458759 60.0901818 126.994055 60.9861818 126.603867 61.728 126.408773 62.8130909 126.801962 63.5490909zM126.855988 69.152C126.855988 69.0763636 126.855988 68.9890909 126.940029 68.9658182 127.19215 69.184 126.910014 69.6989091 127.333218 69.8065455 128.062569 69.4574545 128.737893 68.9658182 129.410216 68.5061818 131.295123 68.5061818 132.417662 66.7374545 134.266551 66.7374545 137.355036 67.2785455 140.422511 67.8778182 143.114805 69.3469091 142.922713 67.5781818 141.346955 65.9723636 139.750188 65.1781818 138.846753 64.8785455 138.144416 65.3469091 137.499105 65.8327273 135.614199 66.9818182 136.601674 64.1745455 135.281039 64.1163636 133.567215 64.64 131.796364 65.2072727 129.890447 65.0472727 128.764906 65.4516364 127.975527 66.4552727 126.714921 66.3505455 126.657893 67.2494545 126.516825 68.3403636 126.855988 69.152L126.855988 69.152zM128.14961 75.2290909C128.734892 75.8254545 129.716364 75.7149091 130.565772 75.8254545L133.005945 74.9032727C133.03596 74.4669091 132.276595 74.3534545 132.441674 73.8705455 133.116999 73.1345455 134.047446 73.6494545 134.884848 73.3469091 136.070418 73.1869091 137.276999 72.0436364 138.450563 72.8872727 138.42355 73.0210909 138.510592 73.216 138.399538 73.3469091 138.027359 74.1934545 138.651659 74.7083636 139.323983 75.0341818 140.701645 75.2843636 141.992266 76.5090909 143.369928 75.9592727 143.231861 74.8450909 142.922713 73.8123636 142.637576 72.7476364 141.488023 72.5556364 140.674632 71.6305455 139.606118 71.2465455 139.125887 71.6829091 138.510592 72.0116364 137.919307 71.9563636 135.755267 71.4676364 133.171025 70.1614545 130.982973 71.4967273 130.193593 72.4189091 128.788918 72.1483636 127.723405 72.5527273 127.783434 73.4865455 127.891486 74.3825455 128.14961 75.2290909L128.14961 75.2290909zM129.074055 91.4094545C128.902973 91.872 128.428745 92.6370909 129.296162 92.8523636 131.097027 92.9105455 133.399134 92.0116364 134.806811 93.3701818 135.281039 93.728 135.055931 94.4581818 135.028918 94.9236364L137.385051 96.832C137.61316 95.6858182 138.030361 94.6501818 138.060375 93.4225455 137.868283 92.5527273 137.415065 91.7061818 136.631688 91.136 135.082944 91.136 134.182511 89.3818182 132.525714 89.6058182 131.658297 89.4109091 130.901934 90.1585455 130.025512 90.1585455 129.632323 90.5396364 129.410216 91.0050909 129.074055 91.4094545L129.074055 91.4094545zM129.74938 78.5774545C130.112554 79.3076364 130.538759 80.5090909 131.238095 80.5905455 132.894892 79.8836364 135.308052 79.4443636 137.165945 80.2094545 137.784242 80.3170909 137.784242 80.9978182 137.646176 81.4370909 138.597633 81.9810909 139.753189 82.4116364 140.761674 83.0138182L140.48254 81.3818182C140.422511 79.6101818 138.120404 79.4443636 137.979336 77.6989091 136.097431 77.1025455 133.990418 76.9134545 131.99746 77.376 131.346147 77.9490909 130.424704 77.8676364 129.635325 78.0334545 129.5843 78.2487273 129.719365 78.3825455 129.74938 78.5774545L129.74938 78.5774545zM130.22961 87.3978182C131.325137 87.0981818 132.021472 85.9258182 133.20404 85.8210909 135.001905 85.8501818 136.604675 86.5512727 137.724214 88.0523636 138.405541 88.4858182 138.261472 89.6058182 139.128889 89.6058182 138.876768 88.2676364 139.326984 87.0429091 139.272958 85.6814545 138.087388 83.7789091 135.175988 85.2450909 134.07746 83.0138182L132.000462 83.1476364C130.511746 83.5025455 130.907937 85.1927273 130.703838 86.336 130.535758 86.6909091 130.199596 86.9614545 130.22961 87.3978182L130.22961 87.3978182zM140.530563 99.3047273C141.403983 100.992 143.318903 102.274909 143.510996 104.209455 143.961212 103.688727 144.270361 103.092364 144.579509 102.522182 144.549495 101.975273 143.901183 101.975273 143.646061 101.541818 143.393939 100.834909 143.79013 100.209455 143.901183 99.5781818 143.538009 98.5687273 142.664589 97.6174545 141.683117 97.0210909L140.530563 99.3047273zM143.994228 95.0050909L146.014199 97.6727273C146.881616 96.3374545 146.881616 94.3796364 146.545455 92.768 146.353362 92.4683636 145.984185 91.9796364 145.479942 92.1978182 144.717576 92.9629091 144.609524 94.1294545 143.994228 95.0050909L143.994228 95.0050909zM135.758268 20.4829091C136.49062 20.8378182 137.192958 21.1636364 138.060375 21.216 138.654661 20.9192727 139.414026 20.7010909 140.143377 20.8901818 141.181876 21.5447273 142.445483 20.7534545 143.649062 20.8087273 142.586551 19.8312727 141.373968 19.232 140.143377 18.6618182 138.567619 18.9847273 137.307013 20.0698182 135.758268 20.4829091L135.758268 20.4829091zM146.746551 23.0429091C148.229264 23.1767273 149.297778 24.4538182 150.309264 25.5243636 151.575873 25.7105455 152.530332 26.5803636 153.286696 27.4821818L152.809466 26.0363636C152.473304 24.5905455 151.545859 23.4734545 150.594401 22.336 149.246753 22.4174545 147.920115 22.5250909 146.746551 23.0429091z"/>
      <path fill="#F60" d="M41.918153 11.0952727L42.731544 11.1767273C44.9255988 12.2385455 48.4643001 12.7825455 48.6593939 15.8574545 46.4473304 16.704 44.310303 17.8501818 42.5424531 19.5869091 41.1948052 18.2516364 38.4664935 18.9876364 38.0192785 16.6487273 38.442482 14.4436364 39.2528716 11.6712727 41.918153 11.0952727L41.918153 11.0952727zM44.0311688 24.9018182C46.5823954 24.6865455 49.0555844 25.0327273 51.6998557 24.8203636 52.3451659 25.0909091 53.0174892 25.6378182 53.3266378 26.2632727 53.2425974 29.2014545 52.3151515 32.0087273 52.1740837 35.0283636 51.024531 35.4967273 49.8989899 36.4189091 49.6198557 37.6436364 48.578355 37.9403636 47.6509091 38.5454545 46.6394228 39.0021818 46.1892063 38.08 46.2732468 36.6894545 47.0656277 35.9301818 48.158153 34.4290909 50.997518 34.784 50.7664069 32.416 51.498759 31.2698182 50.7964214 29.8007273 50.8264358 28.6021818 50.5443001 27.7061818 50.2651659 28.9018182 49.8149495 28.8727273 48.917518 29.0589091 47.9900722 29.1170909 47.2066955 28.6865455 46.6124098 28.0814545 45.8830592 27.5956364 45.7149784 26.7781818 44.9286003 26.3970909 44.0041558 25.7978182 43.6109668 25.0065455L44.0311688 24.9018182 44.0311688 24.9018182zM47.1196537 42.6530909C48.3202309 42.8130909 49.5898413 42.2981818 50.6283405 42.8683636 50.4032323 43.2494545 49.8149495 43.4123636 49.3377201 43.5229091L47.4558153 44.3694545C46.7534776 44.2007273 47.1466667 43.1127273 47.1196537 42.6530909L47.1196537 42.6530909zM52.0360173 19.9156364C53.239596 19.5345455 54.5362193 18.7490909 55.8268398 19.1301818 54.8993939 20.0290909 54.1700433 21.1985455 53.4707071 22.2836364L49.6228571 22.2050909C50.0370563 21.2276364 51.1025685 20.4101818 52.0360173 19.9156364L52.0360173 19.9156364zM63.3004329 19.0196364C64.8972006 18.7490909 64.8131602 20.7621818 66.2748629 20.8465455 66.5299856 21.1723636 66.8961616 21.4690909 66.7520924 21.9578182 65.9086869 22.2836364 64.6750938 22.1236364 63.714632 22.3389091 62.4510245 21.6581818 63.2704185 19.5345455 61.2714574 19.6712727 61.1634055 19.5112727 60.9352958 19.1825455 61.2174315 19.072 61.8387302 18.8596364 62.6461183 18.9381818 63.3004329 19.0196364L63.3004329 19.0196364zM62.2889466 26.3185455C62.9882828 25.3614545 64.059798 25.2858182 65.0682828 25.0909091L72.3437807 25.2276364C72.6529293 25.4981818 72.0646465 25.7425455 72.0646465 26.0712727 71.61443 26.4785455 70.9661183 26.5890909 70.5729293 26.9730909 69.6214719 27.0021818 69.6995094 28.0843636 69.0271861 28.5498182 67.9856854 29.5563636 66.4729582 29.0967273 65.2633766 28.9309091 64.8401732 28.6312727 64.3659452 28.2210909 64.1678499 27.7585455L63.8316883 28.0843636C64.2548918 29.6116364 64.1408369 31.3018182 64.4469841 32.8494545L66.1878211 33.9694545C66.2178355 36.4741818 69.2522944 35.7934545 70.5729293 37.184 70.2637807 38.08 69.6454834 38.8421818 68.9761616 39.6072727 67.9076479 38.5978182 66.6980664 37.9403636 65.4074459 37.5098182 65.2963925 36.0378182 63.639596 35.1709091 62.7091486 34.432 62.4570274 31.7643636 62.4 29.0414545 61.9557864 26.4552727L62.2889466 26.3185455 62.2889466 26.3185455zM64.927215 43.1127273L68.3008369 43.1127273 67.8776335 44.8290909 64.5040115 43.4385455C64.425974 43.168 64.7291198 43.0865455 64.927215 43.1127273L64.927215 43.1127273zM70.9931313 12.2705455L73.4933333 11.5054545C74.9280231 12.1570909 76.275671 12.9774545 77.5933045 13.8996364 78.6348052 15.7556364 78.4607215 18.2545455 77.9864935 20.3229091 77.2271284 21.1432727 75.5703319 20.3229091 74.9550361 21.6290909L74.8409812 21.6290909C73.9105339 19.072 71.275267 16.7883636 68.8290909 15.6130909 69.2222799 14.3098182 69.6454834 13.0327273 70.9931313 12.2705455L70.9931313 12.2705455z"/>
      <path fill="#FFF" d="M129.578297,115.994182 L144.564502,115.994182 C146.782569,115.668364 149.141703,115.720727 150.909553,114.138182 C158.41316,115.258182 166.021818,113.460364 171.919654,109.460364 C175.03215,107.022545 177.829495,104.206545 180.089582,101.131636 C182.08254,98.4203636 183.658297,95.8865455 184.675786,92.8523636 C185.43215,90.976 186.032439,89.0298182 186.485657,87.0254545 C188.625685,77.5912727 187.503146,67.04 184.339625,58.0567273 C183.751342,56.3898182 183.094026,54.784 182.370678,53.2421818 C178.414776,45.3178182 173.03619,36.7709091 164.740202,31.7556364 C160.066955,28.9309091 155.77189,24.5614545 153.133622,20.0465455 C151.698932,18.7898182 150.32127,17.1316364 148.46938,16.832 C148.976623,17.6494545 149.534892,18.4378182 149.678961,19.3890909 L149.564906,19.5258182 C147.601962,19.5810909 146.053218,18.5745455 144.70557,17.344 L146.197287,16.0407273 C145.633016,15.7701818 144.987706,15.6567273 144.369408,15.5258182 C138.69368,14.9003636 134.032439,17.4283636 129.008023,18.656 L128.923983,18.9265455 C132.009466,20.2589091 132.654776,23.552 134.455642,25.7890909 C134.905859,25.2683636 135.665224,25.6494545 136.280519,25.5941818 C137.177951,25.6494545 138.021356,26.2749091 138.888773,26.0567273 C138.918788,25.3236364 138.501587,24.7534545 138.357518,24.1018182 C138.888773,23.8516364 139.540087,24.0727273 140.128369,24.1018182 C141.755152,25.024 144.369408,23.9330909 145.380895,26.0567273 C143.526003,26.1701818 141.785166,26.5454545 140.044329,26.9556364 C140.155382,27.6363636 140.85772,28.1832727 140.803694,28.864 C139.311977,28.2589091 137.742222,27.8865455 136.082424,27.6916364 L136.004387,27.9330909 C138.1114,30.3301818 140.998788,31.7469091 143.949206,32.5934545 C148.190245,33.5447273 151.92404,31.5869091 156.02101,32.2676364 C166.084848,36.7330909 174.674978,46.9469091 178.414776,56.64 C178.597864,57.1054545 178.771948,57.5767273 178.940029,58.0509091 C182.070534,66.9032727 182.661818,77.792 179.528312,87.0196364 C177.859509,90.8654545 176.022626,94.4843636 173.078211,97.6116364 C171.964675,98.9352727 170.731082,100.119273 169.392439,101.125818 C165.175411,104.308364 159.976912,105.707636 154.622338,104.279273 C154.289177,104.066909 153.60785,104.008727 153.718903,103.438545 C153.907994,102.682182 154.082078,101.908364 154.235152,101.125818 C155.12658,96.6952727 155.531775,92.0407273 155.297662,87.392 C155.285657,87.1912727 155.282655,86.9905455 155.273651,86.7927273 C154.979509,80.0378182 153.589841,73.9607273 151.026609,68.1192727 C149.387821,64.7650909 147.433882,61.1083636 144.9757,57.824 C142.04329,53.9083636 138.399538,50.5250909 133.72329,48.8378182 C130.856912,48.1018182 127.315209,47.968 125.157172,50.2836364 C123.608427,51.5898182 122.966118,53.3585455 123.188225,55.2901818 C120.772063,56.7796364 118.055758,57.5825455 115.099336,57.824 C114.375988,57.8850909 113.631631,58.1381818 112.884271,58.1352727 C112.166926,58.1672727 111.46759,58.1352727 110.792266,58.0509091 C107.226551,57.6261818 103.630823,55.7730909 100.896508,53.6407273 C100.839481,52.2327273 100.752439,50.8916364 100.698413,49.3992727 C99.128658,48.608 97.8380375,47.1069091 97.7239827,45.3410909 L97.8680519,45.2043636 C98.7654834,45.4749091 99.5518615,45.9112727 100.362251,46.3767273 C99.996075,44.2530909 99.5788745,42.1556364 98.4833478,40.3054545 C97.4718615,39.8952727 96.4543723,39.5723636 95.5029149,39.0778182 C94.4073882,38.3709091 93.7050505,37.0909091 93.5429726,35.9185455 C94.521443,36.8494545 96.235267,36.5207273 96.994632,37.5010909 C95.6769986,33.7163636 95.6469841,29.3876364 93.4829437,25.9287273 C92.387417,23.3687273 89.521039,22.1992727 87.5550938,20.3170909 C86.7957287,19.4210909 86.4895815,18.1701818 85.1119192,18.0305455 C83.9893795,17.76 83.9023377,16.5323636 83.7072439,15.7469091 C84.4095815,15.8254545 84.9978644,16.2909091 85.5921501,16.3985455 C83.9593651,12.2036364 82.5276768,7.552 78.118557,4.88436364 L77.3591919,5.344 C75.6483694,5.59418182 73.8204906,5.69890909 72.1066667,5.75418182 C72.8660317,4.66327273 74.2136797,4.20363636 75.2821934,3.70909091 C74.0425974,2.81309091 73.0281097,2.59490909 71.4793651,2.34763636 C70.5819336,3.22327273 68.9611544,3.65381818 67.8086003,3.89818182 L67.6705339,3.79345455 C67.6405195,2.816 67.4064069,1.61163636 68.9251371,1.37018182 C67.4664358,0.689454545 65.0502742,0.96 63.558557,1.37018182 C63.1353535,2.432 61.9377778,3.38327273 62.0158153,4.63418182 C61.1513997,5.50981818 60.5331025,6.67636364 59.6296681,7.30472727 C59.6056566,5.20727273 60.5210967,3.27272727 60.9172872,1.50690909 C59.6536797,1.96654545 58.369062,2.61818182 57.135469,3.19418182 C55.1395094,2.07709091 53.0384993,0.96 50.9074747,0.119272727 C50.7093795,0.0349090909 50.286176,-0.0465454545 50.3702165,0.305454545 C52.1950938,1.58545455 51.4897547,3.97963636 51.6848485,5.80654545 L50.5322944,4.88436364 C49.9710245,3.49381818 48.3472439,2.48727273 48.0711111,0.96 C46.1591919,1.31490909 44.9376046,1.80654545 43.1667532,2.54254545 L42.9206349,2.67636364 C44.2382684,2.67636364 45.3608081,3.68290909 46.0091198,4.68945455 C44.0161616,4.8 42.2453102,4.03490909 40.2823665,3.84872727 C40.0842713,3.65672727 39.9191919,3.43854545 39.6040404,3.46763636 C38.6195671,3.82254545 37.7821645,4.50327273 36.9087446,5.15781818 C34.9728139,7.00509091 33.0038672,9.05309091 32.0794228,11.4996364 C32.7277345,11.6101818 33.5411255,11.584 34.018355,11.9650909 C32.9558442,12.5905455 32.0253968,13.6523636 30.9838961,14.2516364 C30.6207215,15.6683636 30.6747475,17.2741818 30.5907071,18.8276364 C29.777316,20.0232727 28.6817893,21.0850909 28.1475325,22.4174545 C26.4066955,27.8894545 25.9564791,33.9607273 26.2116017,40.1687273 C25.6473304,40.6836364 24.9149784,41.0181818 24.3867244,41.4225455 L24.4437518,46.976 L24.5818182,46.976 C24.8399423,45.8036364 26.2716306,45.152 27.1390476,44.3636364 L27.4211833,44.3636364 C27.2831169,45.6145455 27.1120346,46.8654545 27.0850216,48.1483636 L25.4552381,49.4545455 C23.8314574,50.8421818 25.2061183,52.9338182 25.0620491,54.6763636 C25.1791053,55.1418182 25.2571429,55.8225455 25.6023088,55.9330909 C25.7944012,55.2523636 26.4126984,54.7607273 26.802886,54.1643636 C27.5052237,53.9956364 28.1205195,53.4545455 28.7658297,53.3730909 C28.408658,54.7316364 27.9284271,56.0669091 27.3611544,57.3730909 C27.094026,57.5447273 26.775873,57.7803636 26.5057431,58.0538182 C26.2206061,58.3534545 25.9924964,58.6967273 25.9384704,59.0661818 C27.1990765,65.5185455 29.1860317,71.8865455 31.464127,77.9578182 C29.9153824,80.4858182 29.0419625,83.4705455 27.7543434,86.0858182 C27.5712554,86.4523636 27.406176,86.8218182 27.250101,87.2029091 C25.9594805,90.3709091 25.5662915,93.9054545 23.9605195,96.9512727 C23.3152092,96.512 22.615873,96.1861818 21.8865224,95.8865455 C18.8460606,94.9090909 15.3373737,95.5345455 13.1223088,97.792 C11.1533622,97.4370909 9.13038961,97.7629091 7.58164502,98.7694545 C6.477114,99.5781818 5.6187013,100.549818 5.12946609,101.687273 C4.79930736,102.475636 4.64023088,103.333818 4.69425685,104.273455 C3.42764791,105.117091 2.75232323,106.423273 2.33512266,107.729455 C1.74383838,110.673455 2.80935065,113.730909 4.55018759,115.991273 L129.578297,115.991273 L129.578297,115.994182 Z"/>
      <path fill="#F60" d="M184.339625,58.0596364 C183.751342,56.3927273 183.094026,54.7869091 182.370678,53.2450909 C178.414776,45.3207273 173.03619,36.7738182 164.740202,31.7585455 C160.066955,28.9338182 155.77189,24.5643636 153.133622,20.0494545 C151.698932,18.7927273 150.32127,17.1345455 148.46938,16.8349091 C148.976623,17.6523636 149.534892,18.4407273 149.678961,19.392 L149.564906,19.5287273 C147.601962,19.584 146.053218,18.5774545 144.70557,17.3469091 L146.197287,16.0436364 C145.633016,15.7730909 144.987706,15.6596364 144.369408,15.5287273 C138.69368,14.9032727 134.032439,17.4312727 129.008023,18.6589091 L128.923983,18.9294545 C132.009466,20.2618182 132.654776,23.5549091 134.455642,25.792 C134.905859,25.2712727 135.665224,25.6523636 136.280519,25.5970909 C137.177951,25.6523636 138.021356,26.2778182 138.888773,26.0596364 C138.918788,25.3265455 138.501587,24.7563636 138.357518,24.1047273 C138.888773,23.8545455 139.540087,24.0756364 140.128369,24.1047273 C141.755152,25.0269091 144.369408,23.936 145.380895,26.0596364 C143.526003,26.1730909 141.785166,26.5483636 140.044329,26.9585455 C140.155382,27.6392727 140.85772,28.1861818 140.803694,28.8669091 C139.311977,28.2618182 137.742222,27.8894545 136.082424,27.6945455 L136.004387,27.936 C138.1114,30.3330909 140.998788,31.7498182 143.949206,32.5963636 C148.190245,33.5476364 151.92404,31.5898182 156.02101,32.2705455 C166.084848,36.736 174.674978,46.9498182 178.414776,56.6429091 C178.597864,57.1083636 178.771948,57.5796364 178.940029,58.0538182 C182.070534,66.9061818 182.661818,77.7949091 179.528312,87.0225455 C177.859509,90.8683636 176.022626,94.4872727 173.078211,97.6145455 C171.964675,98.9381818 170.731082,100.122182 169.392439,101.128727 C165.175411,104.311273 159.976912,105.710545 154.622338,104.282182 C154.289177,104.069818 153.60785,104.011636 153.718903,103.441455 C153.907994,102.685091 154.082078,101.911273 154.235152,101.128727 C155.12658,96.6981818 155.531775,92.0436364 155.297662,87.3949091 C155.285657,87.1941818 155.282655,86.9934545 155.273651,86.7956364 C154.979509,80.0407273 153.589841,73.9636364 151.026609,68.1221818 C149.387821,64.768 147.433882,61.1112727 144.9757,57.8269091 C142.04329,53.9112727 138.399538,50.528 133.72329,48.8407273 C130.856912,48.1047273 127.315209,47.9709091 125.157172,50.2865455 C123.608427,51.5927273 122.966118,53.3614545 123.188225,55.2930909 C120.772063,56.7825455 118.055758,57.5854545 115.099336,57.8269091 C114.375988,57.888 113.631631,58.1410909 112.884271,58.1381818 C112.166926,58.1701818 111.46759,58.1381818 110.792266,58.0538182 C107.226551,57.6290909 103.630823,55.776 100.896508,53.6436364 C100.839481,52.2356364 100.752439,50.8945455 100.698413,49.4021818 C99.128658,48.6109091 97.8380375,47.1098182 97.7239827,45.344 L97.8680519,45.2072727 C98.7654834,45.4778182 99.5518615,45.9141818 100.362251,46.3796364 C99.996075,44.256 99.5788745,42.1585455 98.4833478,40.3083636 C97.4718615,39.8981818 96.4543723,39.5752727 95.5029149,39.0807273 C94.4073882,38.3738182 93.7050505,37.0938182 93.5429726,35.9214545 C94.521443,36.8523636 96.235267,36.5236364 96.994632,37.504 C95.6769986,33.7192727 95.6469841,29.3905455 93.4829437,25.9316364 C92.387417,23.3716364 89.521039,22.2021818 87.5550938,20.32 C86.7957287,19.424 86.4895815,18.1730909 85.1119192,18.0334545 C83.9893795,17.7629091 83.9023377,16.5352727 83.7072439,15.7498182 C84.4095815,15.8283636 84.9978644,16.2938182 85.5921501,16.4014545 C83.9593651,12.2065455 82.5276768,7.55490909 78.118557,4.88727273 L77.3591919,5.34690909 C75.6483694,5.59709091 73.8204906,5.70181818 72.1066667,5.75709091 C72.8660317,4.66618182 74.2136797,4.20654545 75.2821934,3.712 C74.0425974,2.816 73.0281097,2.59781818 71.4793651,2.35054545 C70.5819336,3.22618182 68.9611544,3.65672727 67.8086003,3.90109091 L67.6705339,3.79636364 C67.6405195,2.81890909 67.4064069,1.61454545 68.9251371,1.37309091 C67.4664358,0.692363636 65.0502742,0.962909091 63.558557,1.37309091 C63.1353535,2.43490909 61.9377778,3.38618182 62.0158153,4.63709091 C61.1513997,5.51272727 60.5331025,6.67927273 59.6296681,7.30763636 C59.6056566,5.21018182 60.5210967,3.27563636 60.9172872,1.50981818 C59.6536797,1.96945455 58.369062,2.62109091 57.135469,3.19709091 C55.1395094,2.08 53.0384993,0.962909091 50.9074747,0.122181818 C50.7093795,0.0378181818 50.286176,-0.0436363636 50.3702165,0.308363636 C52.1950938,1.58836364 51.4897547,3.98254545 51.6848485,5.80945455 L50.5322944,4.88727273 C49.9710245,3.49672727 48.3472439,2.49018182 48.0711111,0.962909091 C46.1591919,1.31781818 44.9376046,1.80945455 43.1667532,2.54545455 L42.9206349,2.67927273 C44.2382684,2.67927273 45.3608081,3.68581818 46.0091198,4.69236364 C44.0161616,4.80290909 42.2453102,4.03781818 40.2823665,3.85163636 C40.0842713,3.65963636 39.9191919,3.44145455 39.6040404,3.47054545 C38.6195671,3.82545455 37.7821645,4.50618182 36.9087446,5.16072727 C34.9728139,7.008 33.0038672,9.056 32.0794228,11.5025455 C32.7277345,11.6130909 33.5411255,11.5869091 34.018355,11.968 C32.9558442,12.5934545 32.0253968,13.6552727 30.9838961,14.2545455 C30.6207215,15.6712727 30.6747475,17.2770909 30.5907071,18.8305455 C29.777316,20.0261818 28.6817893,21.088 28.1475325,22.4203636 C26.4066955,27.8923636 25.9564791,33.9636364 26.2116017,40.1716364 C25.6473304,40.6865455 24.9149784,41.0210909 24.3867244,41.4254545 L24.4437518,46.9789091 L24.5818182,46.9789091 C24.8399423,45.8065455 26.2716306,45.1549091 27.1390476,44.3665455 L27.4211833,44.3665455 C27.2831169,45.6174545 27.1120346,46.8683636 27.0850216,48.1512727 L25.4552381,49.4574545 C23.8314574,50.8450909 25.2061183,52.9367273 25.0620491,54.6792727 C25.1791053,55.1447273 25.2571429,55.8254545 25.6023088,55.936 C25.7944012,55.2552727 26.4126984,54.7636364 26.802886,54.1672727 C27.5052237,53.9985455 28.1205195,53.4574545 28.7658297,53.376 C28.408658,54.7345455 27.9284271,56.0698182 27.3611544,57.376 C27.094026,57.5476364 26.775873,57.7832727 26.5057431,58.0567273 C26.2206061,58.3563636 25.9924964,58.6996364 25.9384704,59.0690909 C27.1990765,65.5214545 29.1860317,71.8894545 31.464127,77.9607273 C29.9153824,80.4887273 29.0419625,83.4734545 27.7543434,86.0887273 C27.5712554,86.4552727 27.406176,86.8247273 27.250101,87.2058182 C25.9594805,90.3738182 25.5662915,93.9083636 23.9605195,96.9541818 C23.3152092,96.5149091 22.615873,96.1890909 21.8865224,95.8894545 C18.8460606,94.912 15.3373737,95.5374545 13.1223088,97.7949091 C11.1533622,97.44 9.13038961,97.7658182 7.58164502,98.7723636 C6.477114,99.5810909 5.6187013,100.552727 5.12946609,101.690182 C4.79930736,102.478545 4.64023088,103.336727 4.69425685,104.276364 C3.42764791,105.12 2.75232323,106.426182 2.33512266,107.732364 C1.74383838,110.676364 2.80935065,113.733818 4.55018759,115.994182 L54.1850505,115.994182 C53.4556999,115.153455 52.7803752,113.981091 52.2701299,112.974545 C51.207619,111.418182 51.9369697,109.216 51.8229149,107.418182 C52.8344012,105.44 53.8608947,103.450182 55.0164502,101.515636 C55.2505628,101.125818 55.4846753,100.744727 55.7247908,100.366545 L58.002886,99.5229091 C59.2094661,99.5229091 60.2239538,98.6792727 61.3735065,98.976 C62.9192496,100.477091 62.9192496,97.4807273 64.4109668,97.344 C67.8926407,96.9076364 71.3473016,97.2334545 73.3102453,100.093091 C73.3102453,100.474182 73.9345455,100.474182 73.7904762,100.829091 C73.3402597,100.96 72.9170563,100.689455 72.4428283,100.689455 C70.3088023,100.174545 67.8055988,98.8625455 65.7015873,100.034909 C65.6205483,100.523636 65.5124964,101.021091 65.4104473,101.509818 C65.3053968,102.030545 65.2093506,102.539636 65.164329,103.028364 C66.5389899,103.409455 67.691544,104.363636 68.7300433,105.396364 C69.432381,104.064 70.9210967,103.464727 72.2417316,103.028364 C73.3942857,103.272727 74.6578932,103.301818 75.6153535,104.008727 C77.3862049,105.591273 76.512785,108.285091 76.3477056,110.298182 C77.9444733,111.168 79.7153247,111.662545 81.3421068,112.503273 C80.5827417,113.163636 79.5772583,113.431273 78.6498124,113.76 L75.9545166,113.239273 C75.645368,113.024 75.1081097,113.024 74.9970563,112.642909 C74.0996248,113.565091 73.0040981,114.792727 72.4428283,115.988364 L110.921328,115.988364 C110.414084,114.871273 109.825801,114.001455 109.123463,112.968727 C108.334084,111.333818 108.649235,109.099636 108.562193,107.357091 L112.157922,102.048 C114.120866,102.021818 116.344935,101.312 118.47596,101.666909 C118.584012,101.620364 118.686061,101.568 118.785108,101.506909 C119.670534,100.913455 119.940664,99.5345455 121.258297,99.7061818 C123.61443,99.0836364 125.415296,100.119273 127.186147,101.152 C127.126118,101.288727 127.069091,101.408 127.006061,101.506909 C126.264704,102.656 124.878038,101.373091 123.866551,101.719273 C123.443348,102.155636 124.064646,102.670545 124.145685,103.165091 C124.511861,103.650909 123.779509,103.595636 123.53039,103.68 C122.942107,103.761455 122.296797,103.624727 121.843579,103.165091 C121.732525,103.025455 121.816566,102.865455 121.594459,102.839273 C121.084214,103.650909 120.354863,104.389818 120.159769,105.314909 C120.802078,105.917091 121.672496,106.513455 121.984646,107.278545 C122.629957,108.177455 121.477403,108.855273 121.255296,109.646545 C121.171255,109.806545 120.913131,109.806545 120.832092,109.646545 C120.237807,109.320727 119.736566,108.500364 119.088254,108.715636 C118.523983,111.141818 119.283348,113.565091 118.947186,115.988364 C120.042713,116.238545 121.333333,115.933091 122.5129,115.988364 L122.993131,110.868364 C123.494372,107.549091 125.523348,104.770909 127.909495,102.234182 C130.487734,100.526545 132.150534,103.901091 134.05645,105.070545 C134.3686,105.125818 134.257547,105.451636 134.392612,105.640727 C134.365599,106.187636 133.777316,106.402909 133.384127,106.568727 C132.201558,106.973091 131.33114,105.722182 130.601789,104.986182 C129.902453,105.722182 129.590303,106.699636 128.776912,107.275636 L129.056046,107.354182 C129.989495,108.256 130.880924,109.207273 131.085022,110.405818 C130.970967,111.490909 130.409697,112.552727 129.395209,113.102545 C128.641847,111.845818 128.020548,110.458182 127.519307,109.178182 C127.54632,109.236364 127.486291,109.259636 127.432266,109.317818 C125.883521,109.722182 125.472323,111.409455 125.214199,112.773818 C125.29824,114.109091 124.25974,114.653091 124.535873,115.985455 L144.567504,115.985455 C146.78557,115.659636 149.144704,115.712 150.912554,114.129455 C158.416162,115.249455 166.02482,113.451636 171.922655,109.451636 C175.035152,107.013818 177.832496,104.197818 180.092583,101.122909 C182.085541,98.4116364 183.661299,95.8778182 184.678788,92.8436364 C185.435152,90.9672727 186.03544,89.0210909 186.488658,87.0167273 C188.625685,77.5912727 187.503146,67.04 184.339625,58.0596364 L184.339625,58.0596364 Z"/>
      <path fill="#F60" d="M55.4396537 108.590545C56.5351804 107.909818 58.3060317 107.744 58.5551515 106.167273 58.110938 105.838545 57.7147475 105.428364 57.2075036 105.320727L56.0549495 105.646545C56.1389899 104.992 56.5051659 104.258909 56.7362771 103.552L60.4400577 102.382545C59.9298124 104.014545 59.7377201 106.056727 59.5666378 107.936 59.9027994 110.714182 60.3260029 113.681455 61.7877056 115.994182L57.7957864 115.994182C57.3485714 113.437091 54.5902453 111.581091 55.4396537 108.590545L55.4396537 108.590545zM64.0658009 105.320727L64.2879076 105.320727 66.980202 107.691636 67.3733911 107.610182C67.1542857 110.388364 67.0102165 113.111273 66.980202 115.994182L64.0627994 115.994182C63.4685137 113.300364 62.4870418 110.466909 62.6010967 107.557818 63.1053391 106.821818 63.4415007 105.893818 64.0658009 105.320727L64.0658009 105.320727zM70.0716883 107.938909C70.6089466 107.261091 70.8310534 106.112 71.8965657 105.981091 72.6559307 106.001455 73.3582684 106.112 73.9255411 106.632727 74.907013 107.828364 73.9465512 109.358545 73.5893795 110.554182 73.193189 112.378182 72.5148629 114.280727 71.8995671 115.997091L69.0632035 115.997091 70.0716883 107.938909 70.0716883 107.938909zM112.683175 107.092364C113.301472 107.857455 113.496566 108.890182 114.424012 109.570909 115.240404 108.482909 115.435498 106.792727 115.042309 105.405091L114.228918 104.613818C115.270418 104.372364 116.362944 104.288 117.404444 104.098909 116.954228 105.541818 116.10482 106.848 116.25189 108.535273 116.278903 110.987636 116.699105 113.44 116.924214 115.994182L113.835729 115.994182C112.713189 113.597091 111.587648 111.313455 111.671688 108.535273 112.00785 108.043636 112.232958 107.470545 112.683175 107.092364L112.683175 107.092364z"/>
      <path fill="#FFF" d="M125.970563 54.784C125.940548 55.4909091 125.409293 56.2763636 125.883521 56.8814545 126.564848 56.1454545 127.684387 56.1716364 128.58482 55.8458182 131.085022 55.6247273 133.471169 56.3898182 135.800289 56.9367273 135.212006 56.0349091 134.818817 55.0283636 134.170505 54.2138182 132.876883 53.8850909 130.910938 54.7578182 130.688831 52.9018182 129.902453 52.2501818 128.66886 52.7156364 127.852468 52.768 127.063088 53.312 126.420779 53.9927273 125.970563 54.784zM40.1202886 31.2727273C40.1082828 31.2669091 40.0962771 31.2552727 40.0782684 31.2436364 40.0782684 31.2552727 40.0842713 31.2610909 40.0842713 31.2727273L40.1202886 31.2727273zM50.3341991 55.4763636L52.0210101 53.8996364C52.1650794 53.8996364 52.2761328 53.9258182 52.3571717 54.0305455L52.2191053 57.0530909C53.0324964 57.7890909 54.0379798 58.0305455 55.1064935 58.0887273 55.1935354 57.2741818 55.8388456 56.6981818 56.2050216 55.9912727 56.5141703 55.4210909 56.3190765 54.5774545 56.9343723 54.1730909L57.1324675 54.3592727C57.3245599 55.2610909 57.2705339 56.2676364 57.7507648 57.0530909 57.8077922 57.4894545 57.8858297 58.0305455 57.9398557 58.4145455 59.1794517 58.4698182 60.3049928 58.144 61.2564502 57.7047273 61.1994228 56.672 61.5686003 55.8283636 61.7306782 54.88 61.9888023 54.5512727 61.4215296 53.9490909 62.1238672 53.9781818 62.5200577 54.7956364 63.2193939 55.6363636 63.6155844 56.512 65.2423665 54.9061818 65.9236941 52.8116364 66.3078788 50.6298182 65.8336508 50.0072727 65.1043001 50.0072727 64.5370274 49.5970909 59.764733 48.1018182 53.6447908 47.8021818 49.0375758 50.1149091 48.7284271 51.9592727 49.1216162 54.0014545 50.3341991 55.4763636L50.3341991 55.4763636zM5.69073593 106.565818C5.51965368 108.663273 5.69073593 110.629818 5.82880231 112.701091 6.27901876 113.381818 7.0984127 114.173091 7.91180375 114.222545L8.04987013 112.832C8.38603175 110.900364 7.32051948 108.849455 8.44606061 107.214545 9.23243867 107.456 10.0188167 107.84 10.6941414 108.192 11.030303 106.397091 10.5500722 104.296727 8.77922078 103.205818L5.69073593 106.565818 5.69073593 106.565818zM12.6300722 103.621818C11.5345455 106.810182 10.7211544 110.734545 12.0417893 114.091636 12.8011544 113.597091 13.584531 113.134545 14.2568543 112.456727 14.1187879 109.893818 13.7526118 107.165091 15.325368 105.035636 16.7000289 105.445818 17.6304762 106.725818 18.1587302 107.973818 19.0921789 106.833455 19.3983261 105.250909 19.0351515 103.732364 19.0921789 102.530909 17.6875036 102.807273 17.0121789 102.315636 17.2342857 101.306182 17.2042713 100.142545 18.3027994 99.5665455L14.9351804 99.8923636C14.0647619 101.093818 13.110303 102.257455 12.6300722 103.621818L12.6300722 103.621818zM19.5694084 113.029818C19.7104762 113.271273 19.5694084 113.710545 19.8545455 113.765818 20.271746 111.476364 22.1806638 109.995636 23.2251659 107.976727 23.7264069 107.304727 23.7023954 106.344727 24.5157864 105.829818 25.6083117 105.829818 26.3976912 106.592 27.4662049 106.673455 27.8023665 106.920727 27.2921212 107.138909 27.2651082 107.409455 27.0430014 109.265455 26.3136508 110.795636 26.4517172 112.704L26.646811 112.704C28.1355267 111.176727 29.147013 109.533091 30.2425397 107.790545L30.434632 106.242909C30.6927561 104.389818 28.6157576 103.194182 27.2591053 102.429091L28.4686869 100.928 26.7818759 100.357818C24.8159307 100.546909 23.0450794 101.338182 21.6704185 102.839273 19.959596 105.882182 19.6804618 109.326545 19.5694084 113.029818L19.5694084 113.029818zM27.1270418 96.8727273C27.7693506 97.0589091 28.3606349 96.5469091 29.0029437 96.8145455 31.5901876 97.7425455 34.2854834 98.6938182 36.2244156 100.788364L38.5295238 106.481455 39.6820779 102.964364 38.9227128 101.064727C38.2744012 99.7032727 36.5065512 99.8138182 35.2969697 99.7585455 34.7927273 99.2116364 35.3239827 98.5861818 35.4950649 98.0712727 36.0833478 96.1367273 33.6401732 96.2443636 32.6587013 95.456 32.7157287 94.2894545 31.254026 94.6909091 30.4376335 94.5861818L30.1584993 94.2603636C29.9904185 94.0101818 29.5702165 94.0101818 29.3421068 94.2021818 29.2910823 94.1207273 29.1770274 94.0654545 29.2340548 93.9316364L28.618759 94.0654545C27.7423377 94.8014545 27.1540548 95.7527273 27.1270418 96.8727273L27.1270418 96.8727273zM28.7508225 90.6094545C28.8378644 90.9585455 29.0599711 91.3134545 29.3391053 91.5345455 30.6057143 91.2087273 31.8182973 90.3592727 33.2739971 90.88 35.1589033 92.4858182 37.121847 94.1730909 39.3999423 95.0429091L40.2163348 94.9090909C40.7175758 95.0690909 41.2788456 95.0952727 41.6150072 95.6450909 41.9271573 96.3810909 41.1407792 96.8116364 40.8916595 97.4109091 42.1522655 98.3127273 41.6510245 99.9156364 42.4344012 101.003636L44.4543723 98.3941818C43.9831457 97.248 44.4843867 95.2901818 42.6354978 95.1796364 42.0111977 94.88 41.5939971 94.2836364 41.6180087 93.6029091 40.41443 92.5410909 38.9257143 92.0785455 37.7191342 90.9876364 36.728658 90.2283636 36.1433766 89.0589091 34.8827706 88.7854545 34.0093506 88.32 33.0548918 88.0756364 32.0464069 87.8632727 30.1584993 87.584 29.9904185 89.7629091 28.7508225 90.6094545zM31.4521212 85.2450909L31.7882828 85.7687273C33.1929582 85.6843636 34.4535642 85.088 35.8312266 85.1112727 36.755671 85.6552727 37.9652525 85.6261818 38.9197114 86.0916364 39.6790765 87.1010909 40.495469 88.2385455 41.6120058 88.9192727 43.890101 89.2450909 45.1507071 91.6218182 45.9370851 93.3585455L45.9370851 92.5178182C46.2732468 91.3454545 45.9070707 89.9810909 45.4658586 88.9192727 44.9015873 88.3752727 44.0821934 88.0232727 43.496912 87.5374545 43.3828571 87.1825455 43.4668975 87.0138182 43.5809524 86.6909091 42.7075325 85.792 41.416912 85.3003636 40.3483983 84.5905455 38.8596825 82.4930909 35.9993074 83.072 33.7212121 82.4930909L31.4521212 85.2450909zM31.4040981 65.2741818C31.6532179 66.1207273 31.9563636 67.1796364 32.1274459 68.0814545 32.9108225 66.3941818 34.4625685 65.6290909 35.8372294 64.2443636 35.0478499 63.7265455 34.0663781 63.4792727 33.198961 63.3192727L33.198961 63.264C32.5776623 63.8574545 31.6232035 64.4596364 31.4040981 65.2741818zM36.5065512 74.2341818L37.7671573 72.9832727C39.0337662 71.7265455 40.0782684 70.2807273 40.2673593 68.6778182 39.3699278 68.1629091 38.1903608 68.5178182 37.3229437 68.8174545 37.0137951 70.5803636 36.5335642 72.3229091 36.5065512 74.2341818zM37.4309957 78.0741818C39.3699278 78.1789091 41.2548341 78.56 42.8275902 77.4981818L44.4033478 72.5992727C43.8931025 72.5701818 43.3858586 72.3490909 42.9116306 72.5178182 41.8731313 74.7461818 39.7961328 76.9541818 37.4309957 78.0741818L37.4309957 78.0741818zM38.0012698 60.704C39.2648773 62.4989091 41.3748918 64.5090909 43.5329293 65.0850909 43.2838095 62.7956364 41.2608369 61.216 40.2193362 59.2610909L40.1623088 58.6065455C39.3489177 57.8443636 38.3644444 57.3236364 37.521039 56.9192727 37.385974 58.2254545 37.7521501 59.4734545 38.0012698 60.704zM44.8475613 78.2894545C46.3362771 78.5338182 47.9390476 78.2894545 49.3137085 77.8792727 51.3066667 77.4138182 52.4051948 75.2930909 53.077518 73.6349091L50.577316 73.6349091 47.8850216 76.192C46.8195094 76.7330909 45.8080231 77.5505455 44.8475613 78.2894545L44.8475613 78.2894545zM44.5444156 58.2254545C44.967619 60.352 45.8980664 62.2836364 47.1616739 64.1076364L47.4948341 60.0494545 44.5444156 58.2254545zM53.7528427 68.8145455C53.923925 67.4530909 53.3356421 65.8705455 53.1705628 64.4887273 52.3271573 63.9418182 51.1505916 63.9941818 50.2771717 63.456 50.3341991 65.6 52.0690332 67.4269091 53.7528427 68.8145455L53.7528427 68.8145455zM51.1986147 82.6443636C52.9664646 82.1003636 54.6802886 81.5010909 56.3130736 80.6312727 57.3515729 79.1854545 58.9213276 77.8821818 59.1494372 76.1949091 57.8498124 76.5469091 56.7332756 76.1367273 55.5236941 76.7127273 54.7943434 77.9898182 54.3411255 79.4385455 52.9394517 80.3607273 52.7143434 81.28 51.6758442 81.9083636 51.1986147 82.6443636L51.1986147 82.6443636zM53.9479365 85.9927273L56.0549495 88.6603636C57.1804906 89.0123636 58.5851659 88.9076364 59.5666378 88.2821818L58.8132756 85.8618182C57.3215584 86.4 55.5507071 86.2429091 53.9479365 85.9927273L53.9479365 85.9927273zM57.4596248 66.72L58.2730159 70.3098182C60.238961 68.7621818 60.6441558 66.5018182 60.5871284 64.1076364 59.4645887 65.3585455 58.8132756 66.1207273 57.4596248 66.72L57.4596248 66.72zM62.9972872 73.0589091C63.0243001 73.5796364 63.1623665 74.0683636 63.4685137 74.4756364 65.6595671 75.2407273 65.8846753 77.8210909 67.9106494 78.8014545 69.2252814 79.3774545 70.747013 78.6676364 71.8935642 78.1469091 71.0261472 77.1956364 70.0446753 76.5410909 69.2012698 75.5374545 68.612987 75.2930909 68.0156999 74.9381818 68.0487157 74.2312727L62.9972872 73.0589091 62.9972872 73.0589091zM64.7381241 85.9141818C65.6895815 86.9701818 66.980202 87.52 68.3278499 87.8138182 68.1057431 87.5170909 68.4719192 87.8138182 68.5259452 87.6276364L66.8391342 84.032C65.9957287 84.0610909 65.1223088 84.2269091 64.3389322 84.1716364 64.4019625 84.7709091 64.5370274 85.3672727 64.7381241 85.9141818L64.7381241 85.9141818zM67.7155556 69.1432727C66.926176 67.3745455 66.6020202 65.2189091 66.3709091 63.264 65.5335065 64.2443636 64.6600866 64.8727273 63.8707071 65.8734545 63.504531 67.8865455 66.478961 68.3781818 67.7155556 69.1432727L67.7155556 69.1432727zM71.1372006 67.2872727C72.1546898 68.5730909 74.3697547 68.1367273 75.6063492 67.7527273 75.0150649 66.7723636 73.1121501 66.1963636 72.7759885 65.1432727 72.5838961 63.264 72.1877056 61.4341818 71.5664069 59.7265455 70.5849351 62.0363636 69.3963636 64.7883636 71.1372006 67.2872727zM72.9080519 73.0589091C75.7174026 75.0458182 78.4727273 77.3614545 82.3986147 76.5149091 82.6807504 76.3287273 83.1609812 76.3490909 83.2150072 76 82.0624531 75.2930909 80.82886 74.7432727 79.6492929 74.0916364L78.3046465 72.1890909 77.6863492 72.1890909C76.167619 72.6749091 74.5408369 72.8727273 72.9080519 73.0589091zM72.9650794 95.1389091L73.166176 95.1389091C74.8499856 93.8327273 76.8429437 93.3934545 78.8359019 92.8523636 79.3731602 93.0443636 79.0339971 93.6174545 79.514228 93.8327273 80.7208081 93.3469091 82.1825108 93.4516364 83.4161039 93.0443636 84.9048196 93.0967273 86.1144012 93.1229091 87.3209812 93.7483636 88.281443 94.976 90.0733045 94.8363636 91.3129004 95.6567273L91.1118038 93.7483636C88.5035498 90.7810909 84.4305916 90.5658182 80.6667821 90.6210909L80.5827417 90.24C79.6853102 90.24 78.673824 90.4261818 77.8304185 90.8101818 76.6268398 90.8654545 75.4712843 91.4356364 74.3187302 91.7876364 73.7814719 92.8232727 73.3582684 94.0829091 72.9650794 95.1389091L72.9650794 95.1389091zM75.2221645 61.6814545C76.3146898 63.072 77.9444733 64.1367273 79.7993651 63.7818182 78.8479076 62.8770909 77.7463781 61.9258182 77.6923521 60.6487273 77.9744877 58.2254545 75.2221645 58.0305455 73.8745166 56.7796364 74.324733 58.4145455 74.2647042 60.2385455 75.2221645 61.6814545L75.2221645 61.6814545zM74.934026 99.9563636L75.2701876 99.9563636C76.7559019 99.0603636 78.9199423 99.744 80.381645 98.7898182 81.1950361 98.3796364 81.2520635 99.4705455 81.8133333 99.7701818 83.1909957 100.581818 83.3620779 103.034182 85.2980087 102.464 87.624127 103.633455 87.0388456 106.382545 87.122886 108.395636L89.2869264 107.092364C89.0888312 106.030545 89.7101299 104.750545 89.0047908 103.825455 88.4705339 102.656 87.0088312 102.548364 86.3064935 101.597091 87.1529004 100.206545 85.2409812 99.5490909 84.8447908 98.5425455L84.961847 98.4087273 87.9392785 98.7898182C88.9507648 99.3861818 89.3169408 100.477091 89.6260895 101.486545 91.9522078 101.867636 92.5134776 104.424727 93.3298701 106.056727 93.810101 104.942545 94.0051948 103.741091 94.4824242 102.653091 94.5124387 101.754182 93.2758442 101.754182 92.6575469 101.346909 92.4924675 99.9563636 91.8441558 98.6530909 90.5805483 97.8123636 87.9963059 97.1781818 85.7242136 95.7963636 82.8878499 95.7963636L80.5287157 96.5003636C79.2320924 96.8029091 77.8574315 96.4218182 76.8729582 97.2887273 75.408254 97.3992727 75.300202 98.9527273 74.934026 99.9563636L74.934026 99.9563636zM76.4197403 88.7418182L76.9569986 88.9890909C78.1095527 88.4712727 79.2591053 87.872 80.4686869 87.4356364 82.3445887 86.9207273 83.8062915 88.9890909 85.3850505 87.68 85.9703319 87.2756364 86.4805772 87.872 86.9247908 88.2007273 87.6091198 89.3963636 89.175873 89.3149091 90.3584416 89.6378182 89.7671573 88.0901818 89.0348052 85.9665455 86.9848196 85.7192727 86.1714286 85.3672727 85.2139683 85.3963636 84.4305916 84.9309091 82.2665512 82.6181818 80.8648773 86.8392727 78.4967388 85.8065455 77.6593362 86.6996364 76.6178355 87.5490909 76.4197403 88.7418182z"/>
      <path fill="#FFF" d="M76.9569986 102.001455C77.85443 102.737455 78.7818759 103.991273 80.1895527 103.825455 81.9273882 104.613818 81.1980375 106.848 82.1494949 108.020364L83.1609812 107.147636 83.0769408 107.089455 83.2180087 106.955636 83.2780375 107.031273C83.5571717 106.219636 83.1639827 104.776727 82.6837518 103.819636 82.041443 103.386182 81.2850794 103.848727 80.6637807 103.438545 80.5797403 102.562909 80.0184704 102.132364 79.3731602 101.591273 78.9229437 101.259636 78.3316595 101.696 77.8244156 101.666909L76.9569986 102.001455 76.9569986 102.001455zM80.4686869 68.8145455C81.3931313 70.3098182 83.1909957 71.2378182 84.6256854 72.2705455 85.808254 72.7883636 87.3479942 72.9250909 88.6146032 72.6487273 87.4050216 71.6974545 86.3064935 70.6065455 85.3010101 69.4661818 84.9048196 68.9192727 84.8207792 68.2356364 84.2895238 67.7498182 82.9688889 67.9970909 81.4771717 67.968 80.4686869 68.8145455L80.4686869 68.8145455zM82.0174315 59.072C83.3080519 60.6225455 85.3040115 59.9970909 87.1288889 60.0523636L87.1288889 59.8603636 84.3195382 57.5738182C83.5331602 57.8152727 82.6927561 58.496 82.0174315 59.072zM30.3085714 33.3963636L31.9353535 38.2981818C31.9053391 35.52 33.2319769 33.2014545 32.9498413 30.3738182L34.1534199 28.6283636 31.5961905 29.3934545C30.9238672 30.6443636 30.3625974 31.8981818 30.3085714 33.3963636L30.3085714 33.3963636zM31.4040981 24.9018182L33.6221645 23.6509091 33.6221645 20.4625455C32.6887157 21.0065455 32.1874747 21.9374545 31.4581241 22.6647273L31.4040981 24.9018182z"/>
      <path fill="#FFF" d="M76.9630014,29.856 C76.4287446,30.5338182 75.6153535,30.7025455 74.9400289,30.8334545 C76.1225974,28.7418182 76.6838672,25.8269091 75.7564214,23.456 C76.3717172,23.2407273 77.0470418,23.1301818 77.6353247,22.8043636 L77.5782973,22.7461818 L79.1240404,21.44 C81.174026,20.0785455 80.3846465,17.4952727 81.1440115,15.5607273 C80.1355267,14.0392727 79.8263781,12.1861818 78.3646753,10.9061818 L78.4487157,10.8509091 C77.2961616,9.43418182 75.2191631,9.6 73.6464069,8.89309091 C71.5634055,8.21236364 69.9636364,9.6 68.4719192,10.5250909 C67.8266089,10.6356364 68.2227994,11.4501818 67.5204618,11.4210909 C67.1272727,12.4276364 66.6470418,13.5185455 66.3649062,14.6356364 C63.58557,14.2545455 60.5811255,14.5541818 58.3630592,16.0785455 C57.1774892,15.232 55.7518038,15.072 54.3741414,14.6909091 C53.3626551,14.496 52.2131025,14.8509091 51.4837518,14.3069091 C50.4182395,13.1403636 50.1871284,11.0138182 48.3592496,10.7170909 C47.7139394,10.496 47.5788745,9.81527273 47.5788745,9.216 C46.3692929,9.02109091 45.2977778,8.48 44.1242136,8.23563636 C42.3263492,7.44436364 40.8946609,8.70109091 39.547013,9.54181818 C38.9527273,9.78327273 38.280404,9.86763636 37.7191342,10.1934545 C36.7106494,11.7207273 35.7591919,13.2712727 35.1048773,14.9585455 C35.305974,16.3461818 35.9212698,17.568 36.6536219,18.7432727 C37.2989322,20.512 39.3219048,21.9025455 41.0327273,22.6123636 C40.2193362,25.3061818 40.2193362,28.5149091 41.0327273,31.2378182 C41.0327273,31.2378182 40.9877056,31.2756364 40.9877056,31.2669091 C40.9877056,31.2756364 40.8976623,31.3483636 40.8976623,31.3483636 C40.6335354,31.3483636 40.3393939,31.3978182 40.1202886,31.2669091 L40.0842713,31.2669091 C40.4864646,33.8676364 41.7470707,36.1483636 43.7880519,38.1003636 C44.520404,38.3447273 44.3493218,39.1912727 44.655469,39.7323636 C44.8535642,39.9796364 44.8835786,40.4945455 44.7995382,40.7127273 C40.41443,40.5789091 36.5095527,41.6407273 32.9978644,43.5723636 C32.1004329,44.0087273 32.4936219,45.2043636 32.4095815,46.0509091 C34.8827706,44.4683636 37.5480519,43.3018182 40.4984704,42.7810909 C41.7620779,42.7054545 43.1907648,42.4 44.4033478,42.7258182 L44.5414141,45.0734545 C41.2038095,46.7636364 37.5480519,47.7410909 34.6876768,50.5192727 C34.7417027,51.36 34.5736219,52.3374545 34.8257431,53.0472727 L37.385974,51.0341818 C39.8561616,49.2072727 42.440404,47.6567273 45.2737662,46.6501818 C46.0361328,47.52 46.8225108,48.4509091 47.8339971,48.992 C49.5448196,47.9272727 51.4027128,47.1389091 53.368658,46.6501818 C54.4071573,46.0509091 56.0669553,46.5949091 56.7392785,45.3992727 L57.2135065,42.9207273 C57.135469,42.8654545 57.0754401,42.7549091 56.9343723,42.7810909 C55.6167388,42.0450909 54.7433189,40.768 54.8573737,39.2727273 C54.4071573,39.488 53.9059163,39.6276364 53.368658,39.648 C52.9244444,39.5432727 52.4982395,39.4327273 52.3031457,38.9934545 C52.2761328,38.4523636 51.9909957,37.6349091 52.5582684,37.2305455 C54.3801443,36.1396364 56.7422799,36.0843636 59.0443867,36.2472727 C60.7552092,36.4683636 63.2283983,36.384 63.822684,38.3447273 C63.7386436,38.9178182 63.7926696,39.5461818 63.2013853,39.9243636 C62.583088,40.2501818 61.8837518,39.8952727 61.3194805,39.648 C60.8722655,40.9861818 60.1129004,42.4814545 58.5701587,42.9178182 L58.7622511,44.4945455 C58.9543434,45.2043636 59.0143723,46.3738182 60.1669264,46.1265455 C62.8352092,46.7578182 65.1973449,48.0901818 67.5264646,49.5301818 C68.3158442,48.7709091 68.93114,47.8981818 69.4894084,47.1069091 C73.6524098,48.4741818 77.2421356,51.4938182 80.6757864,54.3010909 L80.8108514,52.0116364 C77.5512843,49.2043636 73.931544,47.2203636 70.164733,45.6698182 C70.3088023,44.9338182 70.4768831,44.224 70.5068975,43.4327273 C74.9700433,43.68 79.2110823,45.0152727 82.8878499,47.1069091 L82.8308225,45.1490909 C78.9559596,43.1330909 74.7149206,41.8007273 70.0836941,41.7483636 C69.9096104,41.504 69.8555844,41.1490909 69.8855988,40.9047273 C72.1336797,40.5527273 73.7304473,38.2952727 74.2677056,36.3287273 C75.4232612,35.0516364 77.0800577,33.6610909 76.6868687,31.7585455 C76.7348918,31.5985455 76.7919192,31.4327273 76.8519481,31.2669091 C76.9990188,30.7985455 77.1250794,30.2981818 76.9630014,29.856 L76.9630014,29.856 Z"/>
      <path fill="#FFF" d="M80.8648773 36.8552727L83.1669841 36.1454545 83.4251082 34.8974545C84.0704185 33.0705455 82.6927561 31.7090909 82.0174315 30.2661818L80.8648773 36.8552727 80.8648773 36.8552727zM86.6786724 45.4807273C87.7741991 46.6530909 88.8427128 48.5294545 90.781645 47.9592727 90.6375758 47.168 90.1873593 46.5134545 89.9112266 45.8065455 89.4069841 45.2363636 89.2329004 43.6014545 88.2244156 44.1745455 87.4650505 43.6858182 87.2729582 42.8683636 86.7897258 42.2138182 86.5706205 43.2232727 86.7086869 44.4741818 86.6786724 45.4807273L86.6786724 45.4807273zM87.0718615 53.4574545C87.4950649 54.0276364 87.6121212 54.7665455 88.0263203 55.2843636 88.7856854 55.7701818 89.9112266 55.6887273 90.8416739 55.6101818 91.6790765 55.4181818 92.2163348 56.3141818 92.9997114 55.7992727 92.0182395 55.2 91.4299567 54.112 90.5055123 53.3178182 89.4069841 52.48 88.227417 53.216 87.0718615 53.4574545L87.0718615 53.4574545zM88.5635786 66.1207273C90.5025108 67.2349091 92.9636941 68.3258182 95.550938 67.9447273 95.8300722 67.8109091 96.310303 67.8370909 96.364329 67.5112727 94.7615584 66.9643636 93.0807504 65.4138182 91.3999423 65.088 90.4724964 63.7003636 89.2629149 65.4429091 88.0833478 65.3323636 88.1103608 65.6552727 88.4465224 65.8996364 88.5635786 66.1207273zM94.3953824 90.1585455L94.8185859 91.0283636C95.2447908 93.8618182 97.0906782 96.4712727 96.0821934 99.5752727 96.9255988 100.151273 97.1777201 101.102545 97.7149784 101.864727L97.8530447 101.864727C98.498355 99.4996364 98.05114 97.0472727 97.7149784 94.6763636 97.9670996 92.5265455 95.7160173 91.2756364 94.3953824 90.1585455L94.3953824 90.1585455zM94.8816162 62.2807273C96.3403175 63.3716364 98.6724387 63.4763636 100.356248 62.9352727 99.2907359 62.3650909 98.1111688 61.7338182 97.2377489 60.9745455L94.8816162 62.2807273 94.8816162 62.2807273zM101.814949 70.6356364C101.676883 71.7818182 102.46026 72.7330909 103.303665 73.3090909 103.612814 72.6312727 104.114055 72.0523636 104.171082 71.2930909 103.918961 70.1236364 103.243636 69.0589091 102.14811 68.2676364 101.956017 69.0298182 101.727908 69.7658182 101.814949 70.6356364zM101.89899 83.0545455C101.697893 84.3316364 103.159596 84.4974545 103.774892 85.2043636 104.282136 85.8036364 103.43873 86.2138182 103.43873 86.784 104.507244 88.1163636 105.128543 89.6349091 105.128543 91.4094545 105.545743 89.7512727 106.191053 88.1716364 106.419163 86.4581818 106.305108 85.2567273 104.342165 85.5069091 104.648312 84.1716364 105.212583 82.8101818 104.537258 81.4778182 104.171082 80.2472727 104.06303 80.0610909 103.804906 79.6770909 103.585801 79.7905455 103.075556 80.9018182 101.814949 81.6930909 101.89899 83.0545455L101.89899 83.0545455zM105.74684 76.5730909L107.205541 79.3221818C107.850851 79.2407273 108.271053 78.6414545 108.775296 78.2050909 109.168485 77.0618182 108.126984 76.3258182 107.823838 75.3978182 107.568716 74.7432727 107.823838 73.8763636 107.343608 73.3061818 106.977431 73.0850909 106.560231 72.7301818 106.140029 72.8407273L105.74684 76.5730909 105.74684 76.5730909zM107.622742 69.3294545C108.778297 70.0101818 110.095931 70.9876364 110.717229 72.1890909 111.698701 74.9672727 113.271457 77.4661818 114.42101 80.1629091 114.844214 82.0421818 115.180375 83.7207273 115.711631 85.568 115.912727 86.0596364 115.798672 87.0109091 116.588052 86.9294545 116.807157 84.8610909 117.230361 82.8712727 117.260375 80.7214545 116.558038 79.8225455 115.633593 79.4443636 114.760173 78.9003636L114.760173 78.7083636C114.874228 78.2487273 115.270418 77.6989091 115.8557 77.7861818 116.10482 77.5127273 116.867186 77.2421818 116.531025 76.7505455 115.069322 75.3367273 115.153362 72.9018182 112.827244 72.4625455 112.010851 72.1367273 111.815758 71.3163636 111.731717 70.56 110.633189 69.6552727 109.006407 69.3585455 107.622742 69.3294545zM108.979394 84.0872727C110.408081 85.3643636 109.90684 87.2174545 109.792785 88.9338182 109.570678 89.9694545 110.915325 89.3643636 111.338528 89.9141818 112.211948 91.1650909 111.704704 92.992 111.398557 94.3505455 112.157922 93.2305455 113.025339 92.2530909 113.613622 91.0254545 113.58961 90.5658182 114.204906 90.3447273 114.177893 89.7716364 114.427013 88.9832727 113.475556 89.3381818 113.079365 89.2567273 112.743203 89.1752727 112.380029 88.9570909 112.494084 88.5207273 113.217431 87.1592727 112.54811 85.5272727 112.265974 84.1658182 111.929812 83.0487273 112.410043 81.5505455 111.869784 80.5701818 110.969351 81.7745455 108.298066 82.0450909 108.979394 84.0872727L108.979394 84.0872727zM111.587648 64.7592727C114.090851 67.2116364 115.915729 69.6727273 118.611025 72.0436364 118.668052 70.9789091 118.526984 70.0014545 118.472958 68.9658182 118.079769 68.2298182 117.347417 67.6887273 116.726118 67.1389091 114.73316 66.9527273 113.694661 64.3490909 111.587648 64.7592727L111.587648 64.7592727zM118.127792 77.7309091C118.187821 77.9810909 118.301876 78.1963636 118.415931 78.4378182 119.508456 80.1832727 120.549957 81.9810909 121.309322 83.8574545 121.081212 81.8414545 122.485887 79.3396364 120.627994 77.7861818 120.378874 77.1287273 119.541472 77.3498182 119.001212 77.4021818L118.127792 77.7309091 118.127792 77.7309091zM124.872035 97.6174545C125.658413 97.9723636 126.669899 97.3469091 127.429264 96.9105455 128.131602 96.7476364 128.719885 97.1316364 129.257143 97.4836364 129.47925 97.9170909 129.257143 98.3272727 129.341183 98.7374545 131.024993 99.1970909 132.678788 99.7992727 134.167504 100.750545L134.641732 100.288C134.755786 99.1185455 133.804329 98.272 132.900895 97.6174545 132.315613 97.2916364 131.439192 97.4836364 131.021991 96.9658182 131.304127 96.5294545 131.304127 95.8749091 131.274113 95.3861818 130.346667 95.3861818 129.755382 95.1098182 129.00202 94.6792727 128.521789 94.5425455 128.098586 94.1585455 127.705397 94.6792727 126.303723 95.6014545 126.219683 96.9658182 124.872035 97.6174545zM126.843983 63.36C127.543319 63.1650909 128.275671 62.976 128.863954 62.4843636 130.74886 60.8232727 133.471169 61.9403636 135.665224 61.9141818 135.24202 61.1781818 134.647734 60.4421818 134.116479 59.8167273 133.3271 59.5170909 132.597749 59.1650909 131.700317 59.1650909 129.788398 58.0741818 128.500779 59.9010909 127.036075 60.7970909 126.639885 61.5330909 126.447792 62.6210909 126.843983 63.36zM126.892006 68.9658182C126.892006 68.8814545 126.892006 68.7970909 126.976046 68.7767273 127.23417 68.992 126.949033 69.5156364 127.372237 69.6203636 128.101587 69.2654545 128.776912 68.7767273 129.449235 68.3141818 131.33114 68.3141818 132.456681 66.5425455 134.30557 66.5425455 137.400058 67.0894545 140.46153 67.6916364 143.153824 69.1549091 142.961732 67.392 141.382973 65.7803636 139.786205 64.992 138.882771 64.6923636 138.180433 65.1549091 137.538124 65.6465455 135.659221 66.7927273 136.640693 63.9854545 135.323059 63.9301818 133.606234 64.4450909 131.835382 65.0210909 129.926465 64.8523636 128.803925 65.2654545 128.014545 66.2690909 126.750938 66.1585455 126.699913 67.0632727 126.561847 68.1541818 126.892006 68.9658182L126.892006 68.9658182zM128.188629 75.0341818C128.776912 75.6392727 129.758384 75.5287273 130.604791 75.6392727L133.047965 74.7083636C133.074978 74.2807273 132.318615 74.1643636 132.486696 73.6756364 133.16202 72.9396364 134.083463 73.4603636 134.92987 73.1607273 136.106436 72.9949091 137.316017 71.8574545 138.495584 72.6952727 138.459567 72.8349091 138.546609 73.0210909 138.435556 73.1607273 138.072381 74.0043636 138.687677 74.5221818 139.363001 74.848 140.740664 75.0923636 142.028283 76.32 143.405945 75.7701818 143.267879 74.6530909 142.961732 73.6261818 142.679596 72.5585455 141.527042 72.3694545 140.710649 71.4443636 139.645137 71.0603636 139.170909 71.4967273 138.546609 71.8225455 137.958326 71.7672727 135.794286 71.2756364 133.207042 69.9694545 131.01899 71.3047273 130.232612 72.2327273 128.827937 71.9592727 127.759423 72.3665455 127.822453 73.2916364 127.933506 74.1934545 128.188629 75.0341818L128.188629 75.0341818zM129.116075 91.2203636C128.947994 91.6829091 128.470765 92.4421818 129.344185 92.6632727 131.139048 92.7156364 133.444156 91.8167273 134.848831 93.1781818 135.326061 93.5330909 135.097951 94.2690909 135.067937 94.7316364L137.427071 96.6370909C137.652179 95.488 138.078384 94.4552727 138.108398 93.2305455 137.910303 92.3578182 137.460087 91.5170909 136.673709 90.9469091 135.124964 90.9469091 134.230534 89.1927273 132.567734 89.408 131.700317 89.2218182 130.940952 89.9694545 130.067532 89.9694545 129.680346 90.3476364 129.452237 90.8130909 129.116075 91.2203636zM129.788398 78.3825455C130.151573 79.1185455 130.577778 80.3170909 131.277114 80.3956364 132.933911 79.6945455 135.353074 79.2552727 137.204964 80.0203636 137.82026 80.1250909 137.82026 80.8058182 137.685195 81.2421818 138.636652 81.7861818 139.789206 82.2225455 140.800693 82.8189091L140.518557 81.184C140.46153 79.4152727 138.162424 79.2552727 138.018355 77.5098182 136.13645 76.9134545 134.029437 76.7185455 132.036479 77.184 131.391169 77.7541818 130.460722 77.6785455 129.680346 77.8385455 129.623319 78.0567273 129.758384 78.1963636 129.788398 78.3825455L129.788398 78.3825455zM130.265628 87.2058182C131.361154 86.9032727 132.066494 85.7367273 133.246061 85.6261818 135.040924 85.6552727 136.643694 86.3650909 137.769235 87.8661818 138.441558 88.2938182 138.300491 89.4109091 139.173911 89.4109091 138.915786 88.0785455 139.366003 86.8567273 139.308975 85.4894545 138.135411 83.5869091 135.212006 85.0589091 134.116479 82.8218182L132.039481 82.9585455C130.547763 83.3163636 130.943954 85.0036364 130.74886 86.1498182 130.577778 86.4989091 130.241616 86.7723636 130.265628 87.2058182L130.265628 87.2058182zM140.578586 99.1156364C141.446003 100.802909 143.360924 102.082909 143.553016 104.014545 144.000231 103.499636 144.312381 102.900364 144.618528 102.327273 144.588514 101.783273 143.943203 101.783273 143.694084 101.346909 143.43596 100.64 143.829149 100.014545 143.943203 99.3861818 143.577027 98.3796364 142.703608 97.4283636 141.725137 96.8261818L140.578586 99.1156364 140.578586 99.1156364zM144.033247 94.8130909L146.053218 97.4836364C146.920635 96.1512727 146.920635 94.1876364 146.584473 92.5818182 146.392381 92.2792727 146.023203 91.7905455 145.521962 92.0116364 144.762597 92.7709091 144.648543 93.9432727 144.033247 94.8130909L144.033247 94.8130909zM135.800289 20.2938182C136.529639 20.6487273 137.231977 20.9745455 138.108398 21.0298182 138.69368 20.7301818 139.456046 20.5090909 140.185397 20.704 141.223896 21.3585455 142.487504 20.5672727 143.697085 20.6225455 142.628571 19.6421818 141.415988 19.04 140.185397 18.4698182 138.609639 18.7927273 137.349033 19.8836364 135.800289 20.2938182zM146.782569 22.848C148.271284 22.9847273 149.342799 24.2647273 150.348283 25.3265455 151.61189 25.5127273 152.566349 26.3883636 153.322713 27.2843636L152.851486 25.8443636C152.515325 24.3985455 151.581876 23.2814545 150.630418 22.1381818 149.282771 22.2225455 147.959134 22.336 146.782569 22.848L146.782569 22.848z"/>
      <path fill="#F60" d="M41.9631746 10.9090909L42.7795671 10.9934545C44.9646176 12.0552727 48.5033189 12.5992727 48.707417 15.6741818 46.4833478 16.5207273 44.3493218 17.6610909 42.5784704 19.4036364 41.233824 18.0712727 38.5085137 18.8043636 38.0552958 16.4654545 38.4815007 14.2545455 39.2918903 11.4763636 41.9631746 10.9090909zM44.073189 24.7156364C46.6304185 24.4945455 49.1006061 24.8465455 51.7418759 24.6312727 52.3841847 24.9018182 53.0565079 25.4429091 53.368658 26.0712727 53.2816162 29.0123636 52.3571717 31.8196364 52.2191053 34.8392727 51.0665512 35.2989091 49.9410101 36.2298182 49.6588745 37.4516364 48.6203752 37.7512727 47.6899278 38.3476364 46.6784416 38.8101818 46.2372294 37.888 46.315267 36.4974545 47.1046465 35.7323636 48.2001732 34.2370909 51.0395382 34.5861818 50.81443 32.2181818 51.5437807 31.0778182 50.8444444 29.6058182 50.8654545 28.4101818 50.5863203 27.5083636 50.3041847 28.7098182 49.8569697 28.6807273 48.9595382 28.8669091 48.0350938 28.9221818 47.2457143 28.4858182 46.65443 27.8865455 45.9310823 27.3949091 45.7569986 26.5832727 44.967619 26.2021818 44.046176 25.6058182 43.6499856 24.8145455L44.073189 24.7156364 44.073189 24.7156364zM47.1616739 42.4581818C48.3622511 42.6269091 49.6318615 42.1032727 50.6703608 42.6792727 50.4512554 43.0632727 49.8569697 43.2232727 49.3797403 43.3338182L47.4948341 44.1745455C46.7954978 44.0145455 47.1886869 42.9236364 47.1616739 42.4581818L47.1616739 42.4581818zM52.0750361 19.7294545C53.2786147 19.3483636 54.5752381 18.5629091 55.8658586 18.9381818 54.9414141 19.84 54.2120635 21.0065455 53.5097258 22.0974545L49.6618759 22.016C50.0850794 21.0327273 51.1505916 20.2210909 52.0750361 19.7294545L52.0750361 19.7294545zM63.3394517 18.8334545C64.9392208 18.5629091 64.8521789 20.576 66.3138817 20.6516364 66.5720058 20.9774545 66.9381818 21.2770909 66.7941126 21.7687273 65.9477056 22.0945455 64.7141126 21.9374545 63.7596537 22.1498182 62.4930447 21.4690909 63.3124387 19.3454545 61.3164791 19.4821818 61.2054257 19.3163636 60.9833189 18.9905455 61.2594517 18.8829091 61.8777489 18.6676364 62.6971429 18.7490909 63.3394517 18.8334545L63.3394517 18.8334545zM62.3279654 26.1236364C63.030303 25.1694545 64.0988167 25.0909091 65.110303 24.9018182L72.3858009 25.0327273C72.6949495 25.3090909 72.1036652 25.5534545 72.1036652 25.8792727 71.6564502 26.2894545 71.0081385 26.4 70.6149495 26.7781818 69.6604906 26.8043636 69.744531 27.8952727 69.0722078 28.3607273 68.0307071 29.3672727 66.5119769 28.9018182 65.3053968 28.7418182 64.8851948 28.4392727 64.4079654 28.032 64.2068687 27.5694545L63.8707071 27.8952727C64.2939105 29.4225455 64.1828571 31.1098182 64.4950072 32.6603636L66.2358442 33.7774545C66.2628571 36.2792727 69.297316 35.5985455 70.6149495 36.9890909 70.3058009 37.8909091 69.6875036 38.6501818 69.0151804 39.4123636 67.9496681 38.4058182 66.7370851 37.7541818 65.4494661 37.3149091 65.3354113 35.8516364 63.6786147 34.976 62.7571717 34.2429091 62.4990476 31.5723636 62.4450216 28.8494545 61.9978066 26.2632727L62.3279654 26.1236364 62.3279654 26.1236364zM64.9692352 42.9236364L68.3428571 42.9236364 67.9196537 44.6370909 64.5430303 43.2494545C64.4649928 42.9789091 64.77114 42.8974545 64.9692352 42.9236364L64.9692352 42.9236364zM71.0351515 12.0814545L73.5353535 11.3192727C74.9700433 11.9709091 76.3146898 12.7854545 77.6353247 13.7134545 78.673824 15.5636364 78.5087446 18.0683636 78.0285137 20.1367273 77.2691486 20.9512727 75.6123521 20.1367273 74.9970563 21.4429091L74.88 21.4429091C73.9555556 18.8858182 71.3142857 16.5934545 68.8711111 15.4298182 69.2643001 14.1207273 69.6875036 12.8407273 71.0351515 12.0814545L71.0351515 12.0814545z"/>
    </g>
    <path fill="#091C5A" d="M261.914697 24.2424242L258.382261 24.2424242 258.218103 25.4774698C257.977946 27.3207288 257.266594 30.4083428 255.20854 30.4083428 254.621827 30.4083428 253.159606 30.125958 251.511946 29.3563818 244.355875 26.1911896 235.083991 24.2424242 227.277368 24.2424242 212.086678 24.2424242 198.30653 29.7970262 188.463132 39.8884037 179.422285 49.160555 174.476267 61.7809831 174.545455 75.4192377 174.610025 88.4834133 179.641162 99.2295511 189.940554 108.287586 200.315945 117.348725 211.94076 121.212121 228.833829 121.212121 242.905814 121.212121 250.961713 119.14854 263.325239 112.374408L265.489692 111.1766 265.489692 86.801517C265.489692 76.4122391 266.736076 74.7955086 275.016933 74.4541644L276.363636 74.4014111 276.363636 70.7800589 235.907821 70.7800589 235.907821 74.4014111 237.254524 74.4541644C246.477769 74.8203336 248.219667 76.5084361 248.219667 85.0978989L248.219667 107.685579C241.376713 112.293727 236.403335 114.043892 230.131893 114.043892 220.850889 114.043892 212.591311 110.382199 206.249951 103.915277 198.823323 96.3281249 195.199688 85.2778804 195.199688 72.7908869 195.199688 59.3388201 198.707805 47.8634468 205.936834 40.4904108 211.691483 34.6161865 219.333947 31.3547973 228.052559 31.3547973 235.840942 31.3547973 244.887869 34.7651367 251.092431 39.7891036 256.138769 44.0062567 258.756176 48.0868721 260.732151 54.8299727L261.033108 55.8509024 264.486504 55.8509024 261.914697 24.2424242 261.914697 24.2424242zM145.789226 88.6163417C145.789226 88.6163417 144.995594 84.6444784 144.880924 82.4210106L144.880924 53.3640353C144.702885 36.4197886 146.86048 27.9848308 133.027731 28.0494665L133.027731 24.2424242 164.848485 24.2424242 164.848485 28.0494665C150.602323 27.9880626 152.394786 36.4230204 152.313311 53.3640353L152.313311 121.212121 147.78387 121.160413 79.0697515 44.1469856C79.0697515 44.1469856 79.842261 48.1123853 79.9569304 50.3390849L79.9569304 97.9206496C79.567658 115.278565 81.5743722 117.375993 92.0153213 117.17239L92.0153213 121.13779 58.8426759 121.13779 58.8426759 117.17239C69.2987131 117.185318 71.3537091 115.695465 71.3416386 96.5051279L71.3416386 97.6524115 71.3416386 50.7592169 71.2571454 43.316417C71.6464178 33.6824671 68.3240233 28.0947115 58.1818182 28.1852015L58.1818182 24.3749274 88.7231029 24.3749274 145.789226 88.6163417 145.789226 88.6163417zM3.18536971 28.2110732C7.03982713 28.2110732 9.72578209 29.0365263 11.3936993 30.7230403 13.2601018 32.6102526 14.0956611 35.7275519 14.0956611 40.8291757L14.0956611 104.550917C14.0956611 113.368698 12.2676751 117.30174 1.47903599 117.30174L0 117.30174 0 121.212121 48.4848485 121.212121 48.4848485 117.321162 47.0218194 117.30174C36.3356243 117.172257 34.5332493 113.261875 34.5332493 104.550917L34.5332493 40.8259386C34.5332493 35.7405002 35.3656072 32.6361492 37.2320098 30.7521739 38.9159339 29.0397634 41.6499095 28.2078361 45.5844013 28.2078361L48.4816471 28.2078361 48.4816471 24.2424242 0 24.2424242 0 28.2078361 3.18536971 28.2078361 3.18536971 28.2110732z"/>
  </g>
</svg>
