<svg xmlns="http://www.w3.org/2000/svg" width="32" height="24" fill="none"><mask id="a" width="32" height="24" x="0" y="0" maskUnits="userSpaceOnUse"><path fill="#fff" d="M28 0H4a4 4 0 0 0-4 4v16a4 4 0 0 0 4 4h24a4 4 0 0 0 4-4V4a4 4 0 0 0-4-4"/></mask><mask id="b" width="32" height="24" x="0" y="0" maskUnits="userSpaceOnUse"><path fill="#fff" d="M28 0H4a4 4 0 0 0-4 4v16a4 4 0 0 0 4 4h24a4 4 0 0 0 4-4V4a4 4 0 0 0-4-4"/></mask><g mask="url(#a)"><path fill="#ff5300" d="M28 0H4a4 4 0 0 0-4 4v16a4 4 0 0 0 4 4h24a4 4 0 0 0 4-4V4a4 4 0 0 0-4-4"/></g><g mask="url(#b)"><path fill="#00374e" d="M28 0H4a4 4 0 0 0-4 4v16a4 4 0 0 0 4 4h24a4 4 0 0 0 4-4V4a4 4 0 0 0-4-4"/><g fill="#fff" fill-rule="evenodd" clip-rule="evenodd"><path d="M15.077 10.5c-.66 0-1.079.323-1.33.717h-.018l.009-.637h-1.269c-.112 0-.219.136-.219.265v3.898c0 .13.107.257.225.257h1.263v-2.187c0-.637.177-1.139.818-1.139.614 0 .707.44.707 1.022v2.044c0 .135.105.26.217.26h1.27v-2.608c0-1.068-.344-1.892-1.673-1.892zM24.327 14.072c-.603 0-1.013-.465-1.013-1.145 0-.68.41-1.145 1.013-1.145.602 0 1.003.466 1.003 1.145 0 .68-.4 1.145-1.003 1.145m.188-3.463c-.55 0-.929.195-1.157.402.005-.15.01-.372.01-.59V9h-1.166c-.103 0-.202.13-.202.25v5.407c0 .13.096.249.205.249H23.3l-.006-.346c.313.3.74.44 1.213.44 1.222 0 1.993-.959 1.993-2.2 0-1.24-.77-2.191-1.985-2.191zM11.367 10.713H9.91a.436.436 0 0 0-.297.136L8.414 12.13V9H7.208C7.102 9 7 9.131 7 9.253v5.498c0 .123.084.249.21.249h1.204v-1.295l.39-.375.966 1.51c.09.122.215.16.36.16h1.37l-1.724-2.678zM19.998 13.71c-.08.15-.308.396-.647.396-.346 0-.59-.203-.59-.536 0-.324.228-.509.614-.526l.623-.044zm.787-2.71c-.307-.316-.725-.5-1.45-.5-.62 0-1.152.186-1.5.355-.09.046-.125.181-.089.284l.259.712c.196-.14.693-.386 1.189-.386.504 0 .795.237.795.693v.096l-.976.045c-.717.034-1.513.36-1.513 1.324 0 .965.725 1.377 1.41 1.377.63 0 .945-.369 1.111-.552l.016.294c.005.081.075.161.173.161h1.04v-2.438c0-.728-.165-1.15-.465-1.465"/></g></g></svg>