<svg class="logo" xmlns="http://www.w3.org/2000/svg" width="178" height="41" viewBox="0 0 178 41" fill="none" id="logo" data-v-f784876c="" data-v-0fa15ece=""><g clip-path="url(#clip0_2020_2049-header)" data-v-0fa15ece=""><path d="M135.783 20.5196C135.783 9.8076 143.499 0.0393066 156.82 0.0393066C170.141 0.0393066 177.91 9.8076 177.91 20.5196C177.91 31.2317 170.196 41 156.82 41C143.444 41 135.785 31.2317 135.785 20.5196H135.783ZM166.199 20.5196C166.199 15.3568 162.757 10.5848 156.82 10.5848C150.882 10.5848 147.44 15.3591 147.44 20.5196C147.44 25.6802 150.938 30.4545 156.82 30.4545C162.702 30.4545 166.199 25.6802 166.199 20.5196Z" fill="#1D1C1C" data-v-0fa15ece=""></path><path d="M127.592 28.1229C132.033 25.6247 134.696 20.8528 134.696 15.5788C134.696 7.75357 128.978 1.0918 120.098 1.0918H101.45V39.9452H112.995V30.0104H115.16L121.763 39.9452H135.362L127.592 28.1229ZM117.769 21.0748H112.995V10.0852H117.824C120.933 10.0852 122.931 12.5834 122.931 15.5812C122.931 18.579 120.877 21.0771 117.769 21.0771V21.0748Z" fill="#1D1C1C" data-v-0fa15ece=""></path><path d="M48.7497 1.05249L41.8244 24.2091L35.0657 1.05249H25.8714L19.0572 24.2091L12.1874 1.05249H0L13.9592 39.8319H23.9863L30.4674 18.7247L36.8953 39.8319H46.9756L60.9371 1.05249H48.7497Z" fill="#1D1C1C" data-v-0fa15ece=""></path><path d="M78.4051 30.3574C78.4051 30.3574 78.3866 30.3574 78.3773 30.3574C74.0589 30.3574 71.0311 27.7805 69.7312 24.3687H99.0698C99.3057 23.0849 99.4283 21.7711 99.4283 20.441C99.4283 9.75673 91.7375 0.0138787 78.4051 0V10.527C82.749 10.5386 85.7467 13.1107 87.0327 16.5157H57.7357C57.5021 17.7994 57.3818 19.1133 57.3818 20.4433C57.3818 31.1346 65.082 40.8867 78.3773 40.8867C78.3866 40.8867 78.3958 40.8867 78.4051 40.8867V30.3597V30.3574Z" fill="#1D1C1C" data-v-0fa15ece=""></path><path d="M78.3774 40.8844C78.8284 40.8844 79.2725 40.8705 79.712 40.8497C82.4137 40.7132 84.8655 40.1696 87.0513 39.293C89.2371 38.4163 91.157 37.2112 92.79 35.7539C94.423 34.2966 95.7715 32.5896 96.817 30.709C97.7676 28.9996 98.4615 27.1491 98.8964 25.2177H86.672C86.4222 25.7335 86.1307 26.2262 85.7976 26.6865C85.342 27.3156 84.8077 27.887 84.2016 28.3797C83.5956 28.8724 82.9156 29.2887 82.1662 29.6103C81.4167 29.9318 80.6002 30.1585 79.7167 30.2718C79.2864 30.3273 78.8423 30.3597 78.382 30.3597C75.6318 30.3597 73.4044 29.3119 71.8153 27.6719L63.8677 35.6197C67.4043 38.8489 72.3103 40.8844 78.3843 40.8844H78.3774Z" fill="url(#paint0_linear_2020_2049-header)" data-v-0fa15ece=""></path><path d="M78.3777 0C67.1016 0 59.8502 7.01337 57.9072 15.6691H70.097C71.5542 12.6874 74.4247 10.527 78.3777 10.527C81.528 10.527 83.9729 11.8732 85.5712 13.9088L93.5905 5.8892C90.0076 2.30155 84.8565 0.00231312 78.3753 0.00231312L78.3777 0Z" fill="url(#paint1_linear_2020_2049-header)" data-v-0fa15ece=""></path></g><defs data-v-0fa15ece=""><linearGradient id="paint0_linear_2020_2049-header" x1="92.7437" y1="18.0262" x2="74.7545" y2="40.3102" gradientUnits="userSpaceOnUse" data-v-0fa15ece=""><stop offset="0.02" stop-color="#1D1C1C" stop-opacity="0" data-v-0fa15ece=""></stop><stop offset="0.39" stop-color="#1D1C1C" stop-opacity="0.66" data-v-0fa15ece=""></stop><stop offset="0.68" stop-color="#1D1C1C" data-v-0fa15ece=""></stop></linearGradient><linearGradient id="paint1_linear_2020_2049-header" x1="61.2704" y1="23.0178" x2="79.7545" y2="4.5343" gradientUnits="userSpaceOnUse" data-v-0fa15ece=""><stop offset="0.02" stop-color="#1D1C1C" stop-opacity="0" data-v-0fa15ece=""></stop><stop offset="0.39" stop-color="#1D1C1C" stop-opacity="0.66" data-v-0fa15ece=""></stop><stop offset="0.68" stop-color="#1D1C1C" data-v-0fa15ece=""></stop></linearGradient><clipPath id="clip0_2020_2049-header" data-v-0fa15ece=""><rect width="177.91" height="41" fill="white" data-v-0fa15ece=""></rect></clipPath></defs></svg>
