<?xml version="1.0" encoding="UTF-8" standalone="no"?>
<!-- Created with Inkscape (http://www.inkscape.org/) -->

<svg
   width="640"
   height="360"
   viewBox="0 0 640 360"
   version="1.1"
   id="svg1"
   inkscape:version="1.3.2 (091e20e, 2023-11-25)"
   sodipodi:docname="wero-640x360.svg"
   xmlns:inkscape="http://www.inkscape.org/namespaces/inkscape"
   xmlns:sodipodi="http://sodipodi.sourceforge.net/DTD/sodipodi-0.dtd"
   xmlns="http://www.w3.org/2000/svg"
   xmlns:svg="http://www.w3.org/2000/svg">
  <sodipodi:namedview
     id="namedview1"
     pagecolor="#ffffff"
     bordercolor="#666666"
     borderopacity="1.0"
     inkscape:showpageshadow="2"
     inkscape:pageopacity="0.0"
     inkscape:pagecheckerboard="true"
     inkscape:deskcolor="#d1d1d1"
     inkscape:document-units="px"
     inkscape:zoom="1"
     inkscape:cx="192.5"
     inkscape:cy="148.5"
     inkscape:window-width="1792"
     inkscape:window-height="1006"
     inkscape:window-x="0"
     inkscape:window-y="25"
     inkscape:window-maximized="1"
     inkscape:current-layer="layer1" />
  <defs
     id="defs1">
    <clipPath
       id="clip0_2020_2049-header"
       data-v-0fa15ece="">
      <rect
         width="177.91"
         height="41"
         fill="#ffffff"
         data-v-0fa15ece=""
         id="rect11"
         x="0"
         y="0" />
    </clipPath>
    <linearGradient
       id="paint0_linear_2020_2049-header"
       x1="92.743698"
       y1="18.026199"
       x2="74.754501"
       y2="40.3102"
       gradientUnits="userSpaceOnUse"
       data-v-0fa15ece="">
      <stop
         offset="0.02"
         stop-color="#1D1C1C"
         stop-opacity="0"
         data-v-0fa15ece=""
         id="stop6" />
      <stop
         offset="0.39"
         stop-color="#1D1C1C"
         stop-opacity="0.66"
         data-v-0fa15ece=""
         id="stop7" />
      <stop
         offset="0.68"
         stop-color="#1D1C1C"
         data-v-0fa15ece=""
         id="stop8" />
    </linearGradient>
    <linearGradient
       id="paint1_linear_2020_2049-header"
       x1="61.270401"
       y1="23.017799"
       x2="79.754501"
       y2="4.5342999"
       gradientUnits="userSpaceOnUse"
       data-v-0fa15ece="">
      <stop
         offset="0.02"
         stop-color="#1D1C1C"
         stop-opacity="0"
         data-v-0fa15ece=""
         id="stop9" />
      <stop
         offset="0.39"
         stop-color="#1D1C1C"
         stop-opacity="0.66"
         data-v-0fa15ece=""
         id="stop10" />
      <stop
         offset="0.68"
         stop-color="#1D1C1C"
         data-v-0fa15ece=""
         id="stop11" />
    </linearGradient>
  </defs>
  <g
     inkscape:label="Layer 1"
     inkscape:groupmode="layer"
     id="layer1">
    <g
       clip-path="url(#clip0_2020_2049-header)"
       data-v-0fa15ece=""
       id="g6"
       transform="matrix(2.8778596,0,0,2.8778596,63.999999,121.00388)">
      <path
         d="m 135.783,20.5196 c 0,-10.712 7.716,-20.4802934 21.037,-20.4802934 13.321,0 21.09,9.7682934 21.09,20.4802934 C 177.91,31.2317 170.196,41 156.82,41 143.444,41 135.785,31.2317 135.785,20.5196 Z m 30.416,0 c 0,-5.1628 -3.442,-9.9348 -9.379,-9.9348 -5.938,0 -9.38,4.7743 -9.38,9.9348 0,5.1606 3.498,9.9349 9.38,9.9349 5.882,0 9.379,-4.7743 9.379,-9.9349 z"
         fill="#1d1c1c"
         data-v-0fa15ece=""
         id="path1-0" />
      <path
         d="m 127.592,28.1229 c 4.441,-2.4982 7.104,-7.2701 7.104,-12.5441 0,-7.82523 -5.718,-14.487 -14.598,-14.487 H 101.45 v 38.8534 h 11.545 v -9.9348 h 2.165 l 6.603,9.9348 h 13.599 z m -9.823,-7.0481 h -4.774 V 10.0852 h 4.829 c 3.109,0 5.107,2.4982 5.107,5.496 0,2.9978 -2.054,5.4959 -5.162,5.4959 z"
         fill="#1d1c1c"
         data-v-0fa15ece=""
         id="path2-2" />
      <path
         d="M 48.7497,1.05249 41.8244,24.2091 35.0657,1.05249 H 25.8714 L 19.0572,24.2091 12.1874,1.05249 H 0 L 13.9592,39.8319 h 10.0271 l 6.4811,-21.1072 6.4279,21.1072 H 46.9756 L 60.9371,1.05249 Z"
         fill="#1d1c1c"
         data-v-0fa15ece=""
         id="path3-4" />
      <path
         d="m 78.4051,30.3574 c 0,0 -0.0185,0 -0.0278,0 -4.3184,0 -7.3462,-2.5769 -8.6461,-5.9887 H 99.0698 C 99.3057,23.0849 99.4283,21.7711 99.4283,20.441 99.4283,9.75673 91.7375,0.0138787 78.4051,0 v 10.527 c 4.3439,0.0116 7.3416,2.5837 8.6276,5.9887 h -29.297 c -0.2336,1.2837 -0.3539,2.5976 -0.3539,3.9276 0,10.6913 7.7002,20.4434 20.9955,20.4434 0.0093,0 0.0185,0 0.0278,0 v -10.527 z"
         fill="#1d1c1c"
         data-v-0fa15ece=""
         id="path4" />
      <path
         d="m 78.3774,40.8844 c 0.451,0 0.8951,-0.0139 1.3346,-0.0347 2.7017,-0.1365 5.1535,-0.6801 7.3393,-1.5567 2.1858,-0.8767 4.1057,-2.0818 5.7387,-3.5391 1.633,-1.4573 2.9815,-3.1643 4.027,-5.0449 0.9506,-1.7094 1.6445,-3.5599 2.0794,-5.4913 H 86.672 c -0.2498,0.5158 -0.5413,1.0085 -0.8744,1.4688 -0.4556,0.6291 -0.9899,1.2005 -1.596,1.6932 -0.606,0.4927 -1.286,0.909 -2.0354,1.2306 -0.7495,0.3215 -1.566,0.5482 -2.4495,0.6615 -0.4303,0.0555 -0.8744,0.0879 -1.3347,0.0879 -2.7502,0 -4.9776,-1.0478 -6.5667,-2.6878 l -7.9476,7.9478 c 3.5366,3.2292 8.4426,5.2647 14.5166,5.2647 z"
         fill="url(#paint0_linear_2020_2049-header)"
         data-v-0fa15ece=""
         id="path5"
         style="fill:url(#paint0_linear_2020_2049-header)" />
      <path
         d="M 78.3777,0 C 67.1016,0 59.8502,7.01337 57.9072,15.6691 H 70.097 c 1.4572,-2.9817 4.3277,-5.1421 8.2807,-5.1421 3.1503,0 5.5952,1.3462 7.1935,3.3818 L 93.5905,5.8892 C 90.0076,2.30155 84.8565,0.00231312 78.3753,0.00231312 Z"
         fill="url(#paint1_linear_2020_2049-header)"
         data-v-0fa15ece=""
         id="path6"
         style="fill:url(#paint1_linear_2020_2049-header)" />
    </g>
  </g>
</svg>
