<svg height="360" viewBox="0 0 640 360" width="640" xmlns="http://www.w3.org/2000/svg"><g fill="none" transform="translate(80 132)"><path d="m33.2673267 1.28995757c-3.7340877-.74681754-7.5360679-.74681754-11.2022631 0-13.37482315 2.71570014-22.0650636 13.30693073-22.0650636 27.02121643v42.9759547c0 1.7652051.20367751 2.9872702.74681754 4.0056577l.0678925.0678925c.61103253 1.1541726 1.76520509 2.0367751 3.05516266 2.3762376 1.35785007.3394626 2.78359265.0678926 3.93776521-.7468175 2.24045259-1.4936351 2.51202259-4.0735502 2.51202259-5.9066478v-17.3125884h34.7609618v17.4483734c0 2.1046676.6110326 3.3267327.9504951 4.0735502.6110325 1.1541726 1.7652051 2.0367751 3.0551627 2.3762376.3394625.0678925.7468175.1357851 1.1541725.1357851 1.0183876 0 1.9688826-.2715701 2.7835927-.8826026 2.0367751-1.3578501 2.3083451-3.5983027 2.3083451-5.9066478v-42.7722772c-.0678925-13.7142857-8.6902405-24.23762379-22.0650637-26.95332393zm11.7454031 27.08910893v15.7510608h-34.6251768v-15.7510608c0-6.7892504 2.3762377-11.5417256 7.6039604-14.9363508 3.6661952-2.5799151 8.486563-3.53041018 13.2390382-2.6478076 2.3083451.407355 4.3451203 1.2899575 6.1103253 2.5799151l.0678925.0678925c5.1598303 3.4625177 7.6039604 8.2149929 7.6039604 14.9363508zm113.1089112 26.0028288c-.54314-1.1541725-1.62942-2.0367751-2.851485-2.4441301-1.289958-.407355-2.647808-.2036775-3.869873.407355-2.376238 1.1541726-2.851485 3.7340877-2.98727 4.6166903l-.407355 2.1725601-.067893.678925c-1.561527 6.7213579-6.992928 10.3875531-13.917963 9.3691655-4.480905-.678925-10.455446-3.0551627-10.455446-15.4115983v-.81471h13.578501c1.62942 0 6.585573 0 6.585573-4.8882603 0-2.4441301-1.833098-4.4809052-4.005658-4.6166902-1.018387-.135785-1.90099-.135785-2.919377-.135785h-13.239039v-18.8062235c0-1.7652051-.203677-2.9872702-.746817-4.0056577v-.0678925c-.611033-1.1541726-1.765205-2.0367751-3.055163-2.3762377-1.35785-.3394625-2.783592-.0678925-3.937765.7468176-2.036775 1.3578501-2.308345 3.5983027-2.308345 5.9066478v28.0396039c0 15.9547384 5.770863 23.9660538 18.738331 26.0707214 1.493635.27157 2.98727.407355 4.480905.407355 10.183876 0 18.738331-6.3140028 21.454031-16.3620933.203678-.8147101.339463-1.5615276.475248-2.3083451v-.0678925c.407355-2.9193777.27157-4.5487978-.54314-6.1103254zm66.330976-13.3748232c-4.345121-16.2263083-20.910891-25.5954738-37.748232-21.3861386-8.622348 2.1725601-15.615276 7.4002829-19.688826 14.7326733-4.073551 7.3323904-4.820368 16.0905233-2.104668 24.6449788 4.07355 12.5601131 15.683168 20.4356435 28.922207 20.4356435 2.376237 0 4.88826-.27157 7.33239-.81471 3.734088-.81471 7.400283-2.3762376 10.659123-4.4809052 2.44413-1.6294201 4.480905-3.3946252 5.567185-4.7524753 1.697313-2.0367751 2.7157-3.6661952 2.512023-5.5671853-.135785-1.2899575-.81471-2.4441301-1.833098-3.2588401-1.08628-.8147101-2.512022-1.1541726-3.80198-.8826026l-.203677.0678925c-1.289958.407355-2.308345.9504951-3.123056 1.7652051l-.882602 1.0862801-1.289958 1.1541725-.067892.0678925c-2.851485 2.8514852-6.314003 4.8203678-10.048091 5.5671853-10.115983 2.3083451-20.096181-3.0551626-23.762376-12.6958981-.27157-.8147101-.475247-1.5615276-.678925-2.2404527h44.401697l.950495-.135785 1.493636-.0678925c1.62942-.135785 2.851485-.7468175 3.666195-1.9009901 1.493635-2.1046676 1.425742-5.2277227-.27157-11.3380481zm-49.697313 1.6973126c3.462518-10.9985855 14.528996-16.9052334 25.663366-13.6463932 6.992928 2.0367751 12.424329 7.7397454 14.189534 14.8684583.135785.54314.27157 1.08628.339462 1.6294201l-40.871287-.3394625c.135785-.8826026.407355-1.6294201.678925-2.5120227zm79.434229-24.5097862c10.048091-.0673001 18.195191 5.7035627 21.725601 15.4800833l.203678.6110325c.203677.678925.475247 1.4257426.678925 2.3083451.678925 3.3267327 1.018387 7.3323904-2.104668 9.029703-2.17256 1.08628-4.820367.6110325-6.314003-1.0862801l-.203677-.27157c-.678925-.950495-1.222065-2.4441301-2.240453-7.3323904-.339462-1.35785-1.154172-2.9193776-2.512022-4.5487977-2.783593-3.3267327-7.264498-4.8203678-11.813296-3.8019802-6.78925 1.3578501-9.708628 5.8387553-9.708628 15.0721358l-.00069 27.7874254c-.00932 1.9423063-.144459 4.1524858-2.103978 5.4799013-.81471.6110325-1.765205.8826026-2.783592.8826026-.407355 0-.81471-.0678926-1.154173-.1357851-1.289957-.3394625-2.44413-1.222065-3.055162-2.3762376-.475248-.950495-.950495-2.1046676-.950495-4.0735502v-27.5643564c0-17.4483734 9.50495-23.2192362 17.516265-24.9844413 1.561528-.3394625 3.055163-.47584 4.820368-.47584zm-169.3239036 0c10.0480905-.0673001 18.1951906 5.7035627 21.7256016 15.4800833l.203677.6110325c.27157.678925.475248 1.4257426.678925 2.3083451.678925 3.3267327 1.018388 7.3323904-2.17256 9.029703-2.17256 1.08628-4.820368.6110325-6.3140028-1.0862801l-.2036776-.27157c-.678925-.950495-1.222065-2.4441301-2.2404526-7.3323904-.3394625-1.35785-1.1541725-2.8514851-2.5120226-4.5487977-2.7835926-3.3267327-7.2644979-4.8203678-11.8132956-3.8019802-6.7213579 1.4257426-9.6407355 5.8387553-9.708628 14.8005658h14.5289957c2.2404526 0 3.8698727.54314 4.8882603 1.62942.54314.6110326 1.2220651 1.6973126 1.1541725 3.4625177-.135785 2.1046676-1.2899575 4.5487978-6.0424328 4.5487978h-14.4611032l.2036775 11.4738331v6.5176803c0 2.2404526-.27157 4.5487977-2.3083451 5.9066478-.8147101.6110325-1.7652051.8826026-2.7835927.8826026-.407355 0-.81471-.0678926-1.1541725-.1357851-1.2899576-.3394625-2.4441302-1.222065-3.0551627-2.3762376v-.0678925c-.3394625-.678925-.950495-1.9009901-.950495-4.0056577v-27.5643564c0-17.4483734 9.5049505-23.2192362 17.5162659-24.9844413 1.5615276-.3394625 2.9872701-.47584 4.8203677-.47584z" fill="#78a22f"/><path d="m335.864215 10.0480905c-5.024045-6.04243279-12.560113-9.50495047-20.707214-9.36916546-15.275813.20367751-25.595473 11.27015556-25.595473 27.56435646v42.9759547c0 1.9688826.475247 3.1230552.950495 4.0735502.611032 1.1541726 1.765205 2.0367751 3.055162 2.3762376.339463.0678925.746818.1357851 1.154173.1357851 1.018387 0 1.968882-.2715701 2.783592-.8826026 2.104668-1.4257426 2.376238-3.8019802 2.376238-5.9066478v-19.4851485h14.868458c14.053749 0 23.626592-7.3323904 26.274399-20.0961811 1.561528-7.6718529-.27157-15.4115983-5.15983-21.3861386zm-4.752475 16.2942009c-.203678 9.1654879-6.925036 15.4794908-16.429986 15.4794908h-.203678l-14.461103-.2036775v-14.2574258c0-6.3818953.950495-9.3691655 4.005658-12.4922206 2.98727-3.1230552 6.925035-4.6166903 11.609618-4.5487978 9.165488.2036775 15.547383 6.7892504 15.479491 16.0226309zm74.410184 19.553041c-.135785-2.4441301-.475248-4.6166903-1.08628-6.5855729-2.104668-7.3323903-7.060821-13.4427157-13.917964-17.2446959-7.33239-4.0056577-15.954738-4.8882602-24.237623-2.4441301-10.794908 3.1909477-18.942009 11.8811881-21.182462 22.8118812-3.326732 16.4299859 5.906648 31.7736917 21.454032 35.7793494 2.851485.7468175 5.770862 1.08628 8.622348 1.08628 4.34512 0 8.554455-.8826025 12.356435-2.5799151 3.123055-1.4257426 5.906648-3.3267327 8.079208-5.6350778v.135785c0 1.8330976 0 2.9193777.54314 4.0056577l.067893.0678925c.611032 1.1541726 1.765205 2.0367751 3.055162 2.3762376 1.35785.3394626 2.783593.0678925 3.937766-.7468175 2.104667-1.4257426 2.44413-3.8019802 2.44413-5.9066478v-23.9660537zm-25.527582 23.1513437c-11.202263 2.5799151-21.589816-3.5304102-24.577086-14.5289958v-.0678925c-.475248-1.4257425-.678925-2.8514851-.81471-4.2772277-.611033-9.708628 5.227723-18.4667609 14.257426-21.2503536 2.17256-.678925 4.413012-1.0183875 6.585573-1.0183875 4.209335 0 8.214992 1.222065 11.67751 3.6661951 5.227723 3.6661952 8.350778 9.6407355 8.554456 16.3620934.407355 10.387553-5.838756 18.874116-15.683169 21.1145686zm79.434229-46.6421499-2.104667 1.0183875 2.104667-1.0183875-.067892-.135785c-.611033-1.1541726-1.765205-2.0367751-3.055163-2.3762377-1.35785-.3394625-2.783592-.0678925-3.937765.7468176-2.036775 1.35785-2.240453 3.6661952-2.240453 5.9066478v27.3606789c0 5.3635078-1.62942 9.708628-4.548797 12.2885431-2.579915 2.2404527-6.042433 3.1230552-10.048091 2.5799152-6.925035-.9504951-10.727015-5.9066478-10.727015-13.9858557v-28.3790665c0-1.6973126-.135785-2.9193777-.678925-4.0735502-.611033-1.1541726-1.765206-2.0367751-3.055163-2.3762377-1.35785-.3394625-2.783593-.0678925-3.937765.7468176-2.104668 1.4257426-2.44413 3.8019802-2.44413 5.9066478v28.3790665c0 11.3380481 5.15983 19.3493635 14.596888 22.6082036 7.264498 2.5120227 15.207921 1.2899576 20.707213-2.7835926v.2036775c-.882602 5.9745403-3.937765 9.572843-9.369165 10.9985856-2.919378.81471-5.906648.6110325-8.214993-.54314-1.90099-.9504951-3.25884-2.0367752-4.07355-3.1909477l-1.493635-1.9009901-.950495-1.0862801c-.611033-.81471-1.08628-1.222065-1.35785-1.4257425l-.27157-.2715701-.27157-.135785c-1.35785-.81471-3.055163-.8826025-4.480906-.2036775-1.493635.6789251-2.579915 2.0367751-2.851485 3.5983027-.339462 2.1725601.54314 4.0056577 2.104668 6.3818953l.067892.0678925c1.154173 1.6294201 2.7157 3.2588402 4.413013 4.6166903 3.666195 2.9193776 8.486563 4.4130127 13.578501 4.4130127 2.17256 0 4.34512-.27157 6.51768-.81471 10.930693-2.7835927 16.973126-11.5417256 16.973126-24.6449788v-44.4695898c.067892-2.1046676-.54314-3.2588402-.882603-4.0056577zm18.059406-6.5855729c-1.493635 1.4936351-3.25884 2.2404526-5.295615 2.2404526-2.104668 0-3.869873-.7468175-5.295615-2.2404526-1.425743-1.4936351-2.17256-3.2588401-2.17256-5.2956153 0-2.03677506.746817-3.80198015 2.17256-5.29561523 1.493635-1.49363508 3.25884-2.17256011 5.295615-2.17256011 2.104668 0 3.869873.74681754 5.295615 2.17256011 1.493635 1.42574258 2.17256 3.19094767 2.17256 5.29561523 0 2.0367752-.746817 3.8019802-2.17256 5.2956153zm-9.912305-9.91230549c-1.222065 1.28995756-1.90099 2.78359264-1.90099 4.54879769 0 1.7652051.611032 3.3267327 1.90099 4.6166903 1.289957 1.2899576 2.783592 1.9009901 4.548798 1.9009901 1.765205 0 3.326732-.6110325 4.548797-1.9009901s1.90099-2.7835927 1.90099-4.6166903c0-1.76520505-.611032-3.32673263-1.90099-4.54879769-1.289957-1.28995757-2.783592-1.9009901-4.548797-1.9009901-1.765206 0-3.258841.67892503-4.548798 1.9009901zm4.413013.40735502c1.018387 0 1.765205.0678925 2.240452.27157001.81471.33946252 1.289958 1.01838756 1.289958 2.10466761 0 .74681754-.27157 1.28995757-.81471 1.62942005-.27157.2036775-.678925.3394626-1.222065.4073551.611032.135785 1.08628.407355 1.425742.81471.27157.407355.475248.8826025.475248 1.2899576v1.222065c0 .2036775 0 .3394625.067892.4073551l.067893.0678925h-1.35785v-.0678925-1.0183876c0-.950495-.27157-1.5615276-.746818-1.9009901-.339462-.2036775-.81471-.27157-1.62942-.27157h-1.154172v3.2588402h-1.493636v-8.21499297zm1.561527 1.35785007c-.339462-.20367751-.950495-.33946252-1.765205-.33946252h-1.222065v2.98727012h1.289958c.611032 0 1.08628-.0678925 1.35785-.2036775.54314-.20367748.882602-.67892501.882602-1.28995754 0-.54314003-.135785-.95049505-.54314-1.15417256z" fill="#685446"/></g></svg>