<svg xmlns="http://www.w3.org/2000/svg" width="51" height="32" viewBox="0 0 51 32">
  <g fill="none" fill-rule="evenodd">
    <rect width="50" height="31" x=".5" y=".5" fill="#FFF" stroke="#D0D0D0"/>
    <g transform="translate(7 12.4)">
      <path fill="#78A22F" fill-rule="nonzero" d="M2.4950495,0.0967468175 C2.21499293,0.0407355021 1.92984441,0.0407355021 1.65487977,0.0967468175 C0.651768034,0.300424328 0,1.09476662 0,2.12333805 L0,5.34653465 C0,5.47892504 0.0152758133,5.57057992 0.0560113154,5.64695898 L0.0611032532,5.65205092 C0.106930693,5.73861386 0.193493635,5.80480905 0.290240453,5.83026874 C0.392079208,5.85572843 0.499009901,5.83536068 0.585572843,5.77425743 C0.753606789,5.66223479 0.77397454,5.46874116 0.77397454,5.33125884 L0.77397454,4.03281471 L3.38104668,4.03281471 L3.38104668,5.34144272 C3.38104668,5.49929279 3.42687412,5.59094767 3.4523338,5.64695898 C3.49816124,5.73352192 3.58472419,5.79971711 3.681471,5.8251768 C3.70693069,5.83026874 3.73748232,5.83536068 3.76803395,5.83536068 C3.84441301,5.83536068 3.91570014,5.81499293 3.97680339,5.76916549 C4.12956153,5.66732673 4.14992928,5.49929279 4.14992928,5.3261669 L4.14992928,2.11824611 C4.14483734,1.08967468 3.49816124,0.300424328 2.4950495,0.0967468175 Z M3.37595474,2.12842999 L3.37595474,3.30975955 L0.779066478,3.30975955 L0.779066478,2.12842999 C0.779066478,1.61923621 0.9572843,1.26280057 1.34936351,1.00820368 C1.62432815,0.814710042 1.98585573,0.743422914 2.34229137,0.809618105 C2.51541726,0.840169731 2.66817539,0.906364922 2.80056577,1.00311174 L2.80565771,1.00820368 C3.19264498,1.2678925 3.37595474,1.62432815 3.37595474,2.12842999 Z M11.8591231,4.07864215 C11.8183876,3.99207921 11.7369165,3.92588402 11.6452617,3.89533239 C11.5485149,3.86478076 11.4466761,3.88005658 11.3550212,3.92588402 C11.1768034,4.01244696 11.1411598,4.20594059 11.130976,4.27213579 L11.1004243,4.43507779 L11.0953324,4.48599717 C10.9782178,4.99009901 10.5708628,5.26506365 10.0514851,5.18868458 C9.71541726,5.13776521 9.26732673,4.95954738 9.26732673,4.03281471 L9.26732673,3.97171146 L10.2857143,3.97171146 C10.4079208,3.97171146 10.7796322,3.97171146 10.7796322,3.60509194 C10.7796322,3.42178218 10.6421499,3.26902405 10.4792079,3.25884017 C10.4028289,3.24865629 10.3366337,3.24865629 10.2602546,3.24865629 L9.26732673,3.24865629 L9.26732673,1.83818953 C9.26732673,1.70579915 9.25205092,1.61414427 9.21131542,1.53776521 L9.21131542,1.53267327 C9.16548798,1.44611033 9.07892504,1.37991513 8.98217822,1.35445545 C8.88033946,1.32899576 8.77340877,1.34936351 8.68684583,1.41046676 C8.53408769,1.51230552 8.51371994,1.68033946 8.51371994,1.85346535 L8.51371994,3.95643564 C8.51371994,5.15304102 8.94653465,5.75388967 9.91909477,5.91173975 C10.0311174,5.9321075 10.14314,5.94229137 10.2551627,5.94229137 C11.0189533,5.94229137 11.6605375,5.46874116 11.864215,4.71513437 C11.8794908,4.65403112 11.8896747,4.5980198 11.8998586,4.54200849 L11.8998586,4.53691655 C11.9304102,4.31796322 11.9202263,4.19575672 11.8591231,4.07864215 L11.8591231,4.07864215 Z M16.8339463,3.07553041 C16.5080622,1.85855728 15.2656294,1.15586987 14.0028289,1.47157001 C13.3561528,1.63451202 12.8316832,2.02659123 12.5261669,2.57652051 C12.2206506,3.12644979 12.1646393,3.78330976 12.3683168,4.42489392 C12.6738331,5.3669024 13.5445545,5.95756719 14.5374823,5.95756719 C14.7157001,5.95756719 14.9041018,5.93719943 15.0874116,5.89646393 C15.3674682,5.83536068 15.6424328,5.71824611 15.8868458,5.56039604 C16.0701556,5.43818953 16.2229137,5.30579915 16.3043847,5.2039604 C16.4316832,5.05120226 16.5080622,4.92899576 16.4927864,4.7864215 C16.4826025,4.68967468 16.4316832,4.60311174 16.3553041,4.54200849 C16.2738331,4.48090523 16.1669024,4.45544554 16.0701556,4.4758133 L16.0548798,4.48090523 C15.958133,4.51145686 15.8817539,4.55219236 15.8206506,4.61329562 L15.7544554,4.69476662 L15.6577086,4.78132956 L15.6526167,4.7864215 C15.4387553,5.00028289 15.1790665,5.14794908 14.8990099,5.2039604 C14.1403112,5.37708628 13.3917963,4.9748232 13.1168317,4.25176803 C13.0964639,4.19066478 13.0811881,4.13465347 13.0659123,4.08373409 L16.3960396,4.08373409 L16.4673267,4.07355021 L16.5793494,4.06845827 C16.7015559,4.0582744 16.7932107,4.01244696 16.854314,3.92588402 C16.9663366,3.76803395 16.9612447,3.53380481 16.8339463,3.07553041 L16.8339463,3.07553041 Z M13.1066478,3.20282885 C13.3663366,2.37793494 14.1963225,1.93493635 15.0314003,2.17934936 C15.5558699,2.3321075 15.9632249,2.75983027 16.0956153,3.29448373 C16.1057992,3.33521924 16.115983,3.37595474 16.121075,3.41669024 L13.0557284,3.39123055 C13.0659123,3.32503536 13.0862801,3.26902405 13.1066478,3.20282885 L13.1066478,3.20282885 Z M19.064215,1.36459489 C19.8178218,1.35954738 20.4288543,1.79236209 20.6936351,2.52560113 L20.6936351,2.52560113 L20.7089109,2.57142857 C20.7241867,2.62234795 20.7445545,2.67835926 20.7598303,2.74455446 C20.8107496,2.99405941 20.8362093,3.29448373 20.6019802,3.42178218 C20.4390382,3.50325318 20.2404526,3.46760962 20.12843,3.34031117 L20.12843,3.34031117 L20.1131542,3.31994342 C20.0622348,3.24865629 20.0214993,3.13663366 19.9451202,2.77001414 C19.9196605,2.66817539 19.8585573,2.55106082 19.7567185,2.42885431 C19.5479491,2.17934936 19.2118812,2.06732673 18.8707214,2.1437058 C18.3615276,2.24554455 18.1425743,2.58161245 18.1425743,3.27411598 L18.1425743,3.27411598 L18.1425743,5.3261669 C18.1425743,5.47892504 18.1425743,5.66223479 17.9847242,5.76916549 C17.9236209,5.81499293 17.8523338,5.83536068 17.7759547,5.83536068 C17.7454031,5.83536068 17.7148515,5.83026874 17.6893918,5.8251768 C17.592645,5.79971711 17.506082,5.73352192 17.4602546,5.64695898 C17.424611,5.57567185 17.3889675,5.48910891 17.3889675,5.34144272 L17.3889675,5.34144272 L17.3889675,3.27411598 C17.3889675,1.96548798 18.1018388,1.53267327 18.7026874,1.40028289 C18.819802,1.3748232 18.9318246,1.36459489 19.064215,1.36459489 Z M6.36492221,1.36459489 C7.118529,1.35954738 7.72956153,1.79236209 7.99434229,2.52560113 L7.99434229,2.52560113 L8.0096181,2.57142857 C8.02998586,2.62234795 8.04526167,2.67835926 8.06053748,2.74455446 C8.11145686,2.99405941 8.13691655,3.29448373 7.89759547,3.42178218 C7.73465347,3.50325318 7.53606789,3.46760962 7.42404526,3.34031117 L7.42404526,3.34031117 L7.40876945,3.31994342 C7.35785007,3.24865629 7.31711457,3.13663366 7.2407355,2.77001414 C7.21527581,2.66817539 7.15417256,2.55615276 7.0523338,2.42885431 C6.84356436,2.17934936 6.50749646,2.06732673 6.16633663,2.1437058 C5.66223479,2.25063649 5.44328147,2.58161245 5.43818953,3.25374823 L5.43818953,3.25374823 L6.52786421,3.25374823 C6.69589816,3.25374823 6.81810467,3.29448373 6.89448373,3.37595474 C6.93521924,3.42178218 6.98613861,3.50325318 6.98104668,3.63564356 C6.9708628,3.79349364 6.88429986,3.97680339 6.52786421,3.97680339 L6.52786421,3.97680339 L5.44328147,3.97680339 L5.45855728,4.83734088 L5.45855728,5.3261669 C5.45855728,5.49420085 5.43818953,5.66732673 5.2854314,5.76916549 C5.22432815,5.81499293 5.15304102,5.83536068 5.07666195,5.83536068 C5.04611033,5.83536068 5.0155587,5.83026874 4.99009901,5.8251768 C4.89335219,5.79971711 4.80678925,5.73352192 4.76096181,5.64695898 L4.76096181,5.64695898 C4.73550212,5.59094767 4.68967468,5.49929279 4.68967468,5.34144272 L4.68967468,5.34144272 L4.68967468,3.27411598 C4.68967468,1.96548798 5.40254597,1.53267327 6.00339463,1.40028289 C6.12050919,1.3748232 6.22743989,1.36459489 6.36492221,1.36459489 Z"/>
      <path fill="#685446" fill-rule="nonzero" d="M25.1898161.753606789C24.8130127.300424328 24.2478076.0407355021 23.6367751.0509193777 22.4910891.0661951909 21.7171146.896181047 21.7171146 2.11824611L21.7171146 5.34144272C21.7171146 5.48910891 21.7527581 5.57567185 21.7884017 5.64695898 21.8342291 5.73352192 21.9207921 5.79971711 22.0175389 5.8251768 22.0429986 5.83026874 22.0735502 5.83536068 22.1041018 5.83536068 22.1804809 5.83536068 22.251768 5.81499293 22.3128713 5.76916549 22.4707214 5.66223479 22.4910891 5.48401697 22.4910891 5.3261669L22.4910891 3.86478076 23.6062235 3.86478076C24.6602546 3.86478076 25.3782178 3.31485149 25.5768034 2.35756719 25.693918 1.78217822 25.5564356 1.20169731 25.1898161.753606789L25.1898161.753606789zM24.8333805 1.97567185C24.8181047 2.66308345 24.3140028 3.13663366 23.6011315 3.13663366L23.5858557 3.13663366 22.501273 3.12135785 22.501273 2.05205092C22.501273 1.57340877 22.5725601 1.34936351 22.8016973 1.11513437 23.0257426.880905233 23.321075.768882603 23.6724187.77397454 24.3598303.789250354 24.8384724 1.28316832 24.8333805 1.97567185zM30.4141443 3.44214993C30.4039604 3.25884017 30.3785007 3.09589816 30.3326733 2.94823197 30.1748232 2.39830269 29.8031117 1.94002829 29.288826 1.65487977 28.7388967 1.35445545 28.0922207 1.28826025 27.4710042 1.47157001 26.6613861 1.71089109 26.0503536 2.36265912 25.8823197 3.1824611 25.6328147 4.41471004 26.3253182 5.56548798 27.491372 5.86591231 27.7052334 5.92192362 27.9241867 5.94738331 28.1380481 5.94738331 28.4639321 5.94738331 28.7796322 5.88118812 29.0647808 5.75388967 29.2990099 5.64695898 29.5077793 5.50438472 29.6707214 5.33125884L29.6707214 5.34144272C29.6707214 5.47892504 29.6707214 5.56039604 29.7114569 5.64186704L29.7165488 5.64695898C29.7623762 5.73352192 29.8489392 5.79971711 29.945686 5.8251768 30.0475248 5.85063649 30.1544554 5.83026874 30.2410184 5.76916549 30.3988685 5.66223479 30.4243281 5.48401697 30.4243281 5.3261669L30.4243281 3.52871287 30.4141443 3.44214993 30.4141443 3.44214993zM28.4995757 5.17850071C27.6594059 5.37199434 26.8803395 4.91371994 26.6562942 4.08882603L26.6562942 4.08373409C26.6206506 3.97680339 26.6053748 3.8698727 26.5951909 3.76294201 26.5493635 3.03479491 26.9872702 2.37793494 27.6644979 2.16916549 27.8274399 2.11824611 27.9954738 2.09278642 28.1584158 2.09278642 28.474116 2.09278642 28.7745403 2.1844413 29.0342291 2.36775106 29.4263083 2.6427157 29.6605375 3.09080622 29.6758133 3.59490806 29.7063649 4.37397454 29.2379066 5.01046676 28.4995757 5.17850071zM34.4571429 1.68033946L34.2992928 1.75671853 34.4571429 1.68033946 34.4520509 1.67015559C34.4062235 1.58359264 34.3196605 1.51739745 34.2229137 1.49193777 34.121075 1.46647808 34.0141443 1.48684583 33.9275813 1.54794908 33.7748232 1.64978784 33.7595474 1.82291372 33.7595474 1.99094767L33.7595474 4.04299859C33.7595474 4.44526167 33.6373409 4.77114569 33.4183876 4.96463932 33.2248939 5.13267327 32.9652051 5.19886846 32.6647808 5.15813296 32.1454031 5.08684583 31.8602546 4.71513437 31.8602546 4.10919378L31.8602546 1.98076379C31.8602546 1.85346535 31.8500707 1.76181047 31.8093352 1.67524752 31.7635078 1.58868458 31.6769448 1.52248939 31.580198 1.4970297 31.4783593 1.47157001 31.3714286 1.49193777 31.2848656 1.55304102 31.1270156 1.65997171 31.1015559 1.83818953 31.1015559 1.9960396L31.1015559 4.12446959C31.1015559 4.9748232 31.4885431 5.57567185 32.1963225 5.82008487 32.7411598 6.00848656 33.3369165 5.91683168 33.7493635 5.61131542L33.7493635 5.62659123C33.6831683 6.07468175 33.4540311 6.34455446 33.0466761 6.45148515 32.8277228 6.5125884 32.6036775 6.49731259 32.4305516 6.41074965 32.2879774 6.33946252 32.1861386 6.25799151 32.1250354 6.17142857L32.0130127 6.02885431 31.9417256 5.94738331C31.8958982 5.88628006 31.8602546 5.85572843 31.8398868 5.84045262L31.8195191 5.82008487 31.7991513 5.80990099C31.6973126 5.74879774 31.5700141 5.7437058 31.4630835 5.79462518 31.3510608 5.84554455 31.2695898 5.94738331 31.2492221 6.06449788 31.2237624 6.22743989 31.2899576 6.36492221 31.4070721 6.54314003L31.4121641 6.54823197C31.498727 6.67043847 31.6158416 6.79264498 31.74314 6.89448373 32.0181047 7.11343706 32.3796322 7.22545969 32.7615276 7.22545969 32.9244696 7.22545969 33.0874116 7.20509194 33.2503536 7.16435644 34.0701556 6.95558699 34.523338 6.29872702 34.523338 5.31598303L34.523338 1.98076379C34.52843 1.82291372 34.4826025 1.73635078 34.4571429 1.68033946L34.4571429 1.68033946zM35.8115983 1.1864215C35.6995757 1.29844413 35.5671853 1.35445545 35.4144272 1.35445545 35.2565771 1.35445545 35.1241867 1.29844413 35.017256 1.1864215 34.9103253 1.07439887 34.854314.942008487 34.854314.789250354 34.854314.636492221 34.9103253.504101839 35.017256.392079208 35.1292786.280056577 35.261669.229137199 35.4144272.229137199 35.5722772.229137199 35.7046676.285148515 35.8115983.392079208 35.9236209.499009901 35.9745403.631400283 35.9745403.789250354 35.9745403.942008487 35.918529 1.07439887 35.8115983 1.1864215L35.8115983 1.1864215zM35.0681754.442998586C34.9765205.539745403 34.9256011.651768034 34.9256011.784158416 34.9256011.916548798 34.9714286 1.03366337 35.0681754 1.13041018 35.1649222 1.227157 35.2769448 1.27298444 35.4093352 1.27298444 35.5417256 1.27298444 35.6588402 1.227157 35.750495 1.13041018 35.8421499 1.03366337 35.8930693.921640736 35.8930693.784158416 35.8930693.651768034 35.8472419.534653465 35.750495.442998586 35.6537482.346251768 35.5417256.300424328 35.4093352.300424328 35.2769448.300424328 35.1649222.351343706 35.0681754.442998586L35.0681754.442998586zM35.3991513.473550212C35.4755304.473550212 35.5315417.47864215 35.5671853.493917963 35.6282885.519377652 35.6639321.57029703 35.6639321.651768034 35.6639321.707779349 35.6435644.748514851 35.6028289.77397454 35.5824611.789250354 35.5519095.799434229 35.511174.804526167 35.5570014.814710042 35.592645.835077793 35.6181047.86562942 35.6384724.896181047 35.6537482.931824611 35.6537482.962376238L35.6537482 1.05403112C35.6537482 1.06930693 35.6537482 1.07949081 35.6588402 1.08458274L35.6639321 1.08967468 35.5620934 1.08967468 35.5620934 1.08458274 35.5620934 1.00820368C35.5620934.936916549 35.5417256.891089109 35.506082.86562942 35.4806223.850353607 35.4449788.845261669 35.3838755.845261669L35.2973126.845261669 35.2973126 1.08967468 35.18529 1.08967468 35.18529.473550212 35.3991513.473550212zM35.5162659.575388967C35.4908062.560113154 35.4449788.549929279 35.3838755.549929279L35.2922207.549929279 35.2922207.77397454 35.3889675.77397454C35.4347949.77397454 35.4704385.768882603 35.4908062.758698727 35.5315417.743422914 35.5570014.707779349 35.5570014.661951909 35.5570014.621216407 35.5468175.590664781 35.5162659.575388967L35.5162659.575388967z"/>
    </g>
  </g>
</svg>
