<svg xmlns="http://www.w3.org/2000/svg" width="640" height="360"><g fill="none"><path fill="#005498" d="M507.16 83.954H359.38l-15.098 16.903-48.694 54.653-15.099 16.903H134.786l14.72-17.09 6.984-8.077 14.721-17.09H104.21c-12.268 0-22.27 10.329-22.27 22.725v48.079c0 12.584 10.002 22.726 22.27 22.726h257.058c12.268 0 29.065-7.513 37.181-16.903l38.88-43.948 69.832-78.881z"/><path fill="#FFD800" d="M536.792 32.68c12.268 0 22.271 10.33 22.271 22.726v47.892c0 12.584-10.003 22.725-22.27 22.725H469.98l14.91-16.903 7.36-8.451 14.91-16.903H359.38l-78.702 88.271H134.03L239.156 53.716l3.964-4.508c8.304-9.202 25.101-16.903 37.37-16.903h256.302v.376z"/><path fill="#005498" d="M559.063 324.352v-6.949c0-.939-.566-1.502-1.887-1.502h-4.53c-1.321 0-2.265-.188-2.454-.751-.377-.564-.377-1.69-.377-3.569v-26.293h7.36c.567 0 .944-.188 1.322-.564.377-.376.566-.751.566-1.315v-7.324c0-.564-.189-.94-.566-1.315-.378-.376-.755-.563-1.321-.563h-7.361v-9.579c0-.563-.189-.939-.378-1.127-.377-.187-.755-.375-1.132-.375h-.189l-10.946 1.878c-.567.188-.944.375-1.322.563-.377.376-.566.752-.566 1.127v7.325h-7.36c-.567 0-.944.188-1.322.563-.377.376-.566.751-.566 1.315v6.01c0 .563.189.939.566 1.127.378.375.755.563 1.322.751l7.36 1.127v26.294c0 3.192.378 5.822.944 7.888.755 2.066 1.699 3.568 2.83 4.695 1.322 1.127 2.832 1.878 4.72 2.254 1.887.375 4.151.563 6.605.563 1.321 0 2.454 0 3.586-.188.944-.187 2.265-.375 3.586-.563.944 0 1.51-.564 1.51-1.503zm-39.257-.939v-8.076c0-.563-.189-.939-.566-1.126-.378-.188-.755-.376-1.133-.376h-.188c-1.7.188-3.398.376-4.908.376-1.51.187-3.586.187-6.228.187-.944 0-2.076-.187-2.83-.563-.945-.376-1.7-.94-2.455-1.69-.754-.752-1.132-1.878-1.51-3.193-.377-1.315-.566-3.005-.566-5.071v-7.513c0-2.066.19-3.756.567-5.07.377-1.315.943-2.442 1.51-3.193.754-.752 1.51-1.315 2.453-1.69a7.606 7.606 0 012.831-.564c2.642 0 4.718 0 6.228.188 1.51.188 3.209.188 4.908.375h.188c.566 0 .944-.187 1.133-.375.377-.188.566-.564.566-1.127v-8.076c0-.751-.189-1.127-.378-1.315-.377-.188-.755-.563-1.51-.75-1.32-.377-2.83-.564-4.907-.94-2.076-.376-4.34-.376-7.172-.376-6.417 0-11.512 1.878-15.476 5.823-3.775 3.944-5.85 9.578-5.85 17.09v7.513c0 7.325 1.887 13.147 5.85 17.09 3.775 3.945 9.06 5.823 15.476 5.823 2.643 0 5.096-.188 7.172-.376 2.076-.375 3.775-.563 4.908-.939.754-.188 1.132-.375 1.51-.751.377-.188.377-.751.377-1.315zm-59.074-9.578c-1.133.563-2.265.939-3.586 1.315a14.433 14.433 0 01-3.964.563c-1.887 0-3.397-.188-4.34-.751-.944-.564-1.322-1.69-1.322-3.756v-.752c0-1.127.189-2.066.378-2.817.188-.751.754-1.502 1.32-2.066.567-.563 1.51-.939 2.454-1.127a20.121 20.121 0 013.964-.375h5.096v9.766zm14.343-21.974c0-3.38-.566-6.198-1.51-8.452-.943-2.253-2.453-4.131-4.152-5.634-1.887-1.502-3.963-2.63-6.605-3.193-2.643-.751-5.662-1.127-8.87-1.127-3.02 0-6.04.188-8.872.564-2.83.375-5.095.751-6.794 1.314-1.132.376-1.699.94-1.699 2.066v7.325c0 .564.19.94.378 1.315.377.188.755.375 1.132.375h.378c.755 0 1.698-.187 2.642-.187 1.132 0 2.265-.188 3.586-.188 1.321 0 2.831-.188 4.34-.188h4.342c2.076 0 3.775.376 4.907 1.127 1.132.751 1.887 2.441 1.887 5.07v3.194h-4.907c-7.738 0-13.589 1.126-16.986 3.568-3.586 2.442-5.285 6.386-5.285 11.644v.752c0 3.005.378 5.446 1.322 7.324.943 2.066 2.076 3.569 3.586 4.883 1.51 1.127 3.02 2.066 4.907 2.63 1.887.563 3.774.75 5.85.75 2.643 0 5.096-.375 6.984-1.126 1.887-.751 3.774-1.69 5.662-3.005v1.503c0 .563.189.939.566 1.314.377.376.755.564 1.321.564h10.192c.566 0 .944-.188 1.321-.564.377-.375.566-.751.566-1.314V291.86h-.189zm-48.505 32.491v-6.949c0-.939-.566-1.502-1.887-1.502h-4.53c-1.32 0-2.264-.188-2.453-.751-.378-.564-.378-1.69-.378-3.569v-26.293h7.361c.566 0 .944-.188 1.321-.564.378-.376.566-.751.566-1.315v-7.324c0-.564-.188-.94-.566-1.315-.377-.376-.755-.563-1.321-.563h-7.36v-9.579c0-.563-.19-.939-.378-1.127-.378-.187-.755-.375-1.133-.375h-.188l-10.947 1.878c-.566.188-.944.375-1.321.563-.378.376-.566.752-.566 1.127v7.325h-7.55c-.566 0-.943.188-1.32.563-.378.376-.567.751-.567 1.315v6.01c0 .563.189.939.566 1.127.378.375.755.563 1.321.751l7.36 1.127v26.294c0 3.192.378 5.822.945 7.888.755 2.066 1.698 3.568 2.83 4.695 1.322 1.127 2.832 1.878 4.719 2.254 1.887.375 4.152.563 6.606.563 1.321 0 2.453 0 3.586-.188.943-.187 2.265-.375 3.586-.563 1.132 0 1.698-.564 1.698-1.503zm-39.634-.187v-30.05c0-2.817-.189-5.447-.755-8.076-.378-2.442-1.321-4.696-2.454-6.574-1.132-1.878-2.83-3.38-4.907-4.32-2.076-1.126-4.718-1.69-8.115-1.69-2.831 0-5.474.376-7.739 1.127-2.264.751-4.53 1.878-7.172 3.756v-2.253c0-.564-.188-.94-.566-1.315-.377-.376-.755-.563-1.32-.563h-10.193c-.566 0-.943.187-1.32.563-.378.376-.567.751-.567 1.315v48.08c0 .563.189.939.566 1.314.378.376.755.564 1.321.564h10.947c.566 0 .944-.188 1.321-.564.378-.375.566-.751.566-1.314v-35.497c1.51-.751 3.02-1.502 4.53-2.066 1.321-.563 2.831-.751 4.152-.751 1.321 0 2.454.188 3.397.376.944.187 1.51.75 2.077 1.314.566.752.755 1.503.943 2.63.189 1.127.189 2.441.189 3.944v30.05c0 .563.189.939.566 1.314.378.376.755.564 1.321.564h10.947c.566 0 .944-.188 1.321-.564.755-.375.944-.939.944-1.314zm-68.7-20.848c0 7.325-2.642 11.081-8.116 11.081-2.642 0-4.718-.939-6.04-2.817-1.32-1.878-2.075-4.695-2.075-8.264v-6.385c0-3.756.755-6.386 2.076-8.264 1.321-1.878 3.397-2.817 6.04-2.817 5.284 0 8.115 3.756 8.115 11.08v6.386zm14.721-6.385c0-3.569-.566-6.95-1.51-9.766-.943-2.818-2.453-5.26-4.34-7.325-1.888-2.066-4.341-3.568-7.172-4.695-2.831-1.127-6.04-1.69-9.815-1.69-3.774 0-6.983.563-9.814 1.69-2.83 1.127-5.284 2.63-7.172 4.695-1.887 2.066-3.397 4.507-4.34 7.325-.944 2.817-1.51 6.197-1.51 9.766v6.385c0 3.569.566 6.95 1.51 9.767.943 2.817 2.453 5.258 4.34 7.324 1.888 2.066 4.341 3.569 7.172 4.696 2.831 1.127 6.04 1.69 9.814 1.69 3.775 0 6.984-.563 9.815-1.69 2.83-1.127 5.284-2.63 7.172-4.696 1.887-2.066 3.397-4.507 4.34-7.324.944-2.817 1.51-6.198 1.51-9.767v-6.385zm-50.392 26.481v-8.076c0-.563-.189-.939-.566-1.126-.378-.188-.755-.376-1.321-.376h-.19c-1.698.188-3.396.376-4.906.376-1.51.187-3.586.187-6.229.187-.943 0-2.076-.187-2.83-.563-.944-.376-1.7-.94-2.454-1.69-.755-.752-1.133-1.878-1.51-3.193-.377-1.315-.566-3.005-.566-5.071v-7.513c0-2.066.189-3.756.566-5.07.377-1.315.944-2.442 1.51-3.193.755-.752 1.51-1.315 2.453-1.69a7.606 7.606 0 012.831-.564c2.643 0 4.719 0 6.229.188 1.51.188 3.208.188 4.907.375h.189c.566 0 .943-.187 1.32-.375.378-.188.567-.564.567-1.127v-8.076c0-.751-.189-1.127-.377-1.315-.378-.188-.755-.563-1.51-.75-1.322-.377-2.831-.564-4.908-.94-2.076-.376-4.34-.376-7.171-.376-6.417 0-11.513 1.878-15.477 5.823-3.775 3.944-5.85 9.578-5.85 17.09v7.513c0 7.325 1.887 13.147 5.85 17.09 3.775 3.945 9.06 5.823 15.477 5.823 2.642 0 5.095-.188 7.171-.376 2.077-.375 3.586-.563 4.908-.939.755-.188 1.132-.375 1.51-.751.188-.188.377-.751.377-1.315zm-44.73.752v-30.05c0-2.817-.19-5.447-.755-8.076-.378-2.442-1.321-4.696-2.454-6.574-1.132-1.878-2.831-3.38-4.907-4.32-2.076-1.126-4.718-1.69-8.116-1.69-2.83 0-5.473.376-7.738 1.127-2.265.751-4.53 1.878-7.172 3.756v-2.253c0-.564-.189-.94-.566-1.315-.377-.376-.755-.563-1.321-.563h-10.192c-.566 0-.944.187-1.321.563-.378.376-.566.751-.566 1.315v48.08c0 .563.188.939.566 1.314.377.376.755.564 1.321.564h10.947c.566 0 .943-.188 1.32-.564.378-.375.567-.751.567-1.314v-35.497c1.51-.751 3.02-1.502 4.53-2.066 1.32-.563 2.83-.751 4.152-.751 1.321 0 2.454.188 3.397.376.944.187 1.51.75 2.076 1.314.567.752.755 1.503.944 2.63.189 1.127.189 2.441.189 3.944v30.05c0 .563.188.939.566 1.314.377.376.755.564 1.321.564h10.947c.566 0 .943-.188 1.32-.564.756-.375.945-.939.945-1.314zm-70.21-10.33c-1.133.563-2.265.939-3.586 1.315a14.433 14.433 0 01-3.964.563c-1.887 0-3.397-.188-4.34-.751-.944-.564-1.322-1.69-1.322-3.756v-.752c0-1.127.19-2.066.378-2.817.189-.751.755-1.502 1.321-2.066.566-.563 1.51-.939 2.454-1.127a20.121 20.121 0 013.963-.375h5.096v9.766zm14.533-21.974c0-3.38-.567-6.198-1.51-8.452-.944-2.253-2.454-4.131-4.153-5.634-1.887-1.502-3.963-2.63-6.605-3.193-2.643-.751-5.662-1.127-8.87-1.127-3.02 0-6.04.188-8.871.564-2.831.375-5.096.751-6.795 1.314-1.132.376-1.699.94-1.699 2.066v7.325c0 .564.19.94.378 1.315.377.188.755.375 1.132.375h.378c.755 0 1.698-.187 2.642-.187 1.133 0 2.265-.188 3.775-.188 1.321 0 2.83-.188 4.34-.188h4.342c2.076 0 3.774.376 4.907 1.127 1.132.751 1.887 2.441 1.887 5.07v3.194h-4.907c-7.738 0-13.589 1.126-16.986 3.568-3.586 2.442-5.285 6.386-5.285 11.644v.752c0 3.005.378 5.446 1.321 7.324.944 2.066 2.076 3.569 3.586 4.883 1.51 1.127 3.02 2.066 4.907 2.63 1.888.563 3.775.75 5.851.75 2.643 0 5.096-.375 6.983-1.126 1.888-.751 3.775-1.69 5.663-3.005v1.503c0 .563.188.939.566 1.314.377.376.755.564 1.32.564h10.193c.566 0 .943-.188 1.32-.564.378-.375.567-.751.567-1.314V291.86h-.377zm-64.926 14.274c0 2.441-.943 4.507-2.642 5.822-1.698 1.314-5.096 2.066-9.625 2.066H97.415V297.12h10.192c3.586 0 6.228.75 7.55 2.441 1.32 1.69 2.075 3.569 2.075 5.635v.939zm-.377-26.857c0 .939-.189 1.878-.378 2.817-.377.939-.754 1.69-1.51 2.253a10.019 10.019 0 01-2.83 1.503c-1.133.376-2.643.563-4.53.563H97.415v-15.588h6.984c4.718 0 7.926.563 9.814 1.69 1.887 1.127 2.83 3.005 2.83 5.447l-.188 1.315zm15.476 25.918c0-3.193-.755-5.823-2.265-8.076-1.51-2.254-3.397-4.132-5.85-5.26 2.453-1.126 4.34-3.004 5.662-5.258 1.32-2.441 2.076-5.07 2.076-7.888v-1.69c0-3.569-.755-6.574-2.076-9.015-1.321-2.442-3.398-4.32-5.851-5.822-2.454-1.503-5.473-2.442-9.06-3.193-3.585-.564-7.36-.94-11.701-.94h-4.53c-1.51 0-3.02.189-4.53.189-1.51 0-2.83.187-4.152.375-1.32.188-2.264.188-3.02.376-1.698.375-3.02.751-3.774 1.69-.755.751-1.132 2.254-1.132 4.32v55.029c0 2.066.377 3.38 1.132 4.32.755.75 2.076 1.314 3.775 1.69.943.188 2.076.375 3.208.375 1.321.188 2.643.188 4.152.376 1.51.188 3.02.188 4.53.188h4.718c3.964 0 7.739-.376 11.136-.94a27.246 27.246 0 009.06-3.192c2.641-1.503 4.529-3.569 6.227-6.198 1.51-2.63 2.265-6.01 2.265-9.954v-1.502z"/></g></svg>