<svg xmlns="http://www.w3.org/2000/svg" width="51" height="32"><g fill="none" fill-rule="evenodd"><path fill="#FFF" stroke="#D0D0D0" d="M.5.5h50v31H.5z"/><g fill-rule="nonzero"><path fill="#005498" d="M35.357 11.197h-7.389l-.755.845-2.434 2.733-.755.845h-7.286l.736-.855.35-.403.736-.855h-3.35c-.614 0-1.114.516-1.114 1.136v2.404c0 .63.5 1.137 1.114 1.137h12.853c.613 0 1.453-.376 1.859-.846l1.944-2.197 3.491-3.944z"/><path fill="#FFD800" d="M36.839 8.633c.613 0 1.113.517 1.113 1.137v2.394c0 .63-.5 1.136-1.113 1.136h-3.341l.746-.845.368-.422.745-.845h-7.389L24.033 15.6h-7.332l5.256-5.916.198-.225c.415-.46 1.255-.845 1.869-.845h12.814v.018z"/><path fill="#005498" d="M37.953 23.218v-.348c0-.047-.028-.075-.094-.075h-.227c-.066 0-.113-.01-.122-.038-.02-.028-.02-.084-.02-.178v-1.315h.369c.028 0 .047-.009.066-.028a.085.085 0 00.028-.066v-.366a.085.085 0 00-.028-.065.086.086 0 00-.066-.029h-.368v-.479c0-.028-.01-.047-.02-.056a.135.135 0 00-.056-.019h-.01l-.547.094a.461.461 0 00-.066.028c-.018.02-.028.038-.028.057v.366h-.368a.086.086 0 00-.066.028.085.085 0 00-.028.066v.3c0 .029.01.047.028.057a.152.152 0 00.066.037l.368.057v1.314c0 .16.019.291.047.395a.623.623 0 00.142.234.503.503 0 00.236.113c.094.019.207.028.33.028.066 0 .123 0 .18-.01l.179-.027c.047 0 .075-.028.075-.075zm-1.963-.047v-.404c0-.028-.01-.047-.028-.056-.019-.01-.038-.02-.057-.02h-.01c-.084.01-.169.02-.244.02-.076.009-.18.009-.312.009a.36.36 0 01-.264-.113.36.36 0 01-.076-.16.94.94 0 01-.028-.253v-.376a.94.94 0 01.028-.253.505.505 0 01.076-.16.36.36 0 01.264-.112c.132 0 .236 0 .312.009.075.01.16.01.245.019h.01c.028 0 .047-.01.056-.02.019-.008.028-.027.028-.055v-.404c0-.038-.01-.057-.019-.066-.018-.01-.037-.028-.075-.037-.066-.02-.142-.029-.245-.047-.104-.02-.217-.02-.359-.02-.32 0-.576.095-.774.292-.189.197-.292.479-.292.854v.376c0 .366.094.657.292.855.189.197.453.29.774.29.132 0 .255-.009.359-.018.103-.019.188-.028.245-.047a.142.142 0 00.075-.038c.02-.009.02-.037.02-.065zm-2.953-.48a1.01 1.01 0 01-.18.066.722.722 0 01-.198.029.45.45 0 01-.217-.038c-.047-.028-.066-.084-.066-.188v-.037c0-.057.01-.104.019-.141a.243.243 0 01.066-.103.248.248 0 01.123-.057c.047-.01.113-.019.198-.019h.255v.489zm.717-1.098c0-.169-.029-.31-.076-.423a.785.785 0 00-.207-.281.775.775 0 00-.33-.16 1.637 1.637 0 00-.444-.056c-.151 0-.302.01-.444.028a1.975 1.975 0 00-.34.066c-.056.018-.084.047-.084.103v.366c0 .028.01.047.019.066.018.01.037.019.056.019h.019c.038 0 .085-.01.132-.01.057 0 .113-.01.18-.01.066 0 .141-.008.216-.008h.218c.103 0 .188.018.245.056.057.037.094.122.094.253v.16h-.245c-.387 0-.68.056-.85.178-.179.123-.264.32-.264.583v.037c0 .15.02.273.066.367a.687.687 0 00.18.244.772.772 0 00.245.131 1 1 0 00.293.038.971.971 0 00.349-.057 1.38 1.38 0 00.283-.15v.075c0 .028.01.047.028.066a.086.086 0 00.066.028h.51c.028 0 .047-.01.066-.028a.085.085 0 00.028-.066v-1.615h-.01zm-2.425 1.625v-.348c0-.047-.029-.075-.095-.075h-.226c-.066 0-.114-.01-.123-.038-.019-.028-.019-.084-.019-.178v-1.315h.368c.028 0 .047-.009.066-.028a.085.085 0 00.029-.066v-.366a.085.085 0 00-.029-.065.086.086 0 00-.066-.029h-.368v-.479c0-.028-.01-.047-.019-.056a.135.135 0 00-.056-.019h-.01l-.547.094c-.028.01-.047.019-.066.028-.02.02-.029.038-.029.057v.366h-.377a.086.086 0 00-.066.028.085.085 0 00-.028.066v.3c0 .029.01.047.028.057a.152.152 0 00.066.037l.368.057v1.314c0 .16.019.291.047.395a.623.623 0 00.142.234.503.503 0 00.236.113c.094.019.207.028.33.028.066 0 .123 0 .18-.01.046-.008.113-.018.179-.027.056 0 .085-.028.085-.075zm-1.982-.01v-1.502c0-.141-.01-.273-.038-.404a.915.915 0 00-.123-.329.549.549 0 00-.245-.216.84.84 0 00-.406-.084 1.24 1.24 0 00-.387.056 1.327 1.327 0 00-.358.188v-.113a.085.085 0 00-.029-.065.086.086 0 00-.066-.029h-.51a.086.086 0 00-.065.029.085.085 0 00-.029.065v2.404c0 .028.01.047.029.066a.086.086 0 00.066.028h.547c.028 0 .047-.01.066-.028a.085.085 0 00.028-.066v-1.775c.076-.037.151-.075.227-.103a.54.54 0 01.208-.037.85.85 0 01.17.018c.047.01.075.038.103.066a.273.273 0 01.047.132c.01.056.01.122.01.197v1.502c0 .028.01.047.028.066a.086.086 0 00.066.028h.548c.028 0 .047-.01.066-.028.037-.019.047-.047.047-.066zm-3.435-1.042c0 .366-.132.554-.406.554-.132 0-.236-.047-.302-.14-.066-.095-.104-.236-.104-.414v-.32c0-.187.038-.319.104-.413.066-.093.17-.14.302-.14.264 0 .406.187.406.554v.319zm.736-.32a1.56 1.56 0 00-.076-.488.952.952 0 00-.576-.601 1.309 1.309 0 00-.49-.084c-.189 0-.35.028-.49.084a.952.952 0 00-.576.601 1.56 1.56 0 00-.076.489v.319c0 .178.028.347.076.488a.952.952 0 00.576.601c.14.057.301.085.49.085s.35-.028.49-.085a.952.952 0 00.576-.6c.048-.142.076-.31.076-.49v-.318zm-2.52 1.325v-.404c0-.028-.01-.047-.028-.056a.137.137 0 00-.066-.02h-.01c-.084.01-.17.02-.245.02-.075.009-.18.009-.311.009a.36.36 0 01-.264-.113.36.36 0 01-.076-.16.94.94 0 01-.028-.253v-.376a.94.94 0 01.028-.253.505.505 0 01.075-.16.36.36 0 01.265-.112c.132 0 .236 0 .311.009.076.01.16.01.245.019h.01c.028 0 .047-.01.066-.02.019-.008.028-.027.028-.055v-.404c0-.038-.01-.057-.019-.066-.018-.01-.037-.028-.075-.037-.066-.02-.142-.029-.245-.047-.104-.02-.218-.02-.36-.02-.32 0-.575.095-.773.292-.189.197-.292.479-.292.854v.376c0 .366.094.657.292.855.189.197.453.29.774.29.132 0 .255-.009.359-.018.103-.019.179-.028.245-.047a.142.142 0 00.075-.038c.01-.009.02-.037.02-.065zm-2.236.037v-1.502c0-.141-.01-.273-.038-.404a.915.915 0 00-.123-.329.549.549 0 00-.245-.216.84.84 0 00-.406-.084 1.24 1.24 0 00-.387.056 1.327 1.327 0 00-.358.188v-.113a.085.085 0 00-.029-.065.086.086 0 00-.066-.029h-.51a.086.086 0 00-.065.029.085.085 0 00-.029.065v2.404c0 .028.01.047.029.066a.086.086 0 00.066.028h.547c.028 0 .047-.01.066-.028a.085.085 0 00.028-.066v-1.775c.076-.037.151-.075.227-.103a.54.54 0 01.207-.037.85.85 0 01.17.018c.048.01.076.038.104.066a.273.273 0 01.047.132c.01.056.01.122.01.197v1.502c0 .028.01.047.028.066a.086.086 0 00.066.028h.547c.029 0 .048-.01.067-.028.037-.019.047-.047.047-.066zm-3.51-.516a1.01 1.01 0 01-.18.065.722.722 0 01-.198.029.45.45 0 01-.217-.038c-.047-.028-.066-.084-.066-.188v-.037c0-.057.01-.104.019-.141a.243.243 0 01.066-.103.248.248 0 01.122-.057c.047-.01.114-.019.198-.019h.255v.489zm.726-1.099c0-.169-.028-.31-.076-.423a.785.785 0 00-.207-.281.775.775 0 00-.33-.16 1.637 1.637 0 00-.444-.056c-.151 0-.302.01-.444.028a1.975 1.975 0 00-.34.066c-.056.018-.084.047-.084.103v.366c0 .028.01.047.019.066.019.01.037.019.056.019h.02c.037 0 .084-.01.131-.01.057 0 .113-.01.189-.01.066 0 .142-.008.217-.008h.217c.104 0 .189.018.245.056.057.037.095.122.095.253v.16h-.246c-.386 0-.679.056-.849.178-.18.123-.264.32-.264.583v.037c0 .15.019.273.066.367a.687.687 0 00.18.244.772.772 0 00.245.131 1 1 0 00.292.038.971.971 0 00.35-.057 1.38 1.38 0 00.282-.15v.075c0 .028.01.047.029.066a.086.086 0 00.066.028h.51c.028 0 .047-.01.065-.028a.085.085 0 00.029-.066v-1.615h-.02zm-3.246.714a.357.357 0 01-.132.29c-.085.067-.255.104-.482.104h-.377v-.845h.51c.179 0 .31.038.377.122a.452.452 0 01.104.282v.047zm-.02-1.343c0 .047-.009.094-.018.14a.24.24 0 01-.076.113.5.5 0 01-.141.076.74.74 0 01-.227.028h-.51v-.78h.35c.236 0 .396.028.49.085.095.056.142.15.142.272l-.01.066zm.775 1.296a.701.701 0 00-.114-.404.716.716 0 00-.292-.263.638.638 0 00.283-.263.82.82 0 00.104-.394v-.085a.937.937 0 00-.104-.45.789.789 0 00-.293-.292 1.422 1.422 0 00-.453-.16 3.69 3.69 0 00-.585-.046h-.226c-.076 0-.151.01-.227.01-.075 0-.141.009-.207.018-.066.01-.114.01-.151.019-.085.018-.151.037-.189.084-.038.038-.057.113-.057.216v2.752c0 .103.02.169.057.216a.392.392 0 00.189.084c.047.01.104.019.16.019.066.01.132.01.208.019.075.01.15.01.226.01h.236c.198 0 .387-.02.557-.048.17-.028.32-.084.453-.16a.892.892 0 00.311-.31.997.997 0 00.114-.497v-.075z"/></g></g></svg>