<svg xmlns="http://www.w3.org/2000/svg" width="512" height="512" fill="none" viewBox="0 0 512 512"><path d="m105.828 14.53 39.157 96.326c1.044 2.611 3.655 4.438 6.526 4.438h208.057c2.871 0 5.482-1.827 6.526-4.438l39.68-96.588c1.044-2.61 3.654-4.438 6.526-4.438h92.672c4.96 0 8.354 5.221 6.527 9.66L304.486 497.992c-1.044 2.61-3.654 4.177-6.265 4.177h-84.058c-2.871 0-5.22-1.567-6.526-4.177L.625 19.489C-1.464 14.79 1.93 9.83 7.15 9.83h92.673c2.349.522 4.96 2.089 6.004 4.7m156.107 351.11 61.608-150.103c1.827-4.699-1.566-9.659-6.526-9.659H194.585c-4.96 0-8.354 4.96-6.527 9.66l61.086 150.103c2.088 5.743 10.442 5.743 12.791 0" style="fill:#fff;stroke-width:2.6105;fill-opacity:1"/></svg>