<svg xmlns="http://www.w3.org/2000/svg" xmlns:xlink="http://www.w3.org/1999/xlink" width="640" height="360"><defs><path id="a" d="M480 60V0H0v60z"/><path id="c" d="M480 60V0H0v60z"/><path id="e" d="M480 60V0H0v60z"/><path id="g" d="M480 60V0H0v60z"/><path id="i" d="M480 60V0H0v60z"/><path id="k" d="M480 60V0H0v60z"/><path id="m" d="M480 60V0H0v60z"/><path id="o" d="M480 60V0H0v60z"/></defs><g fill="none" fill-rule="evenodd" transform="translate(80 150)"><mask id="b" fill="#fff"><use xlink:href="#a"/></mask><path fill="#1A1919" fill-rule="nonzero" d="M8.927 50.882h11.205c4.736.058 8.062-.747 9.974-2.41 1.913-1.663 2.99-3.5 3.233-5.509.06-.229.093-.444.093-.645v-.644c0-2.696-1.126-4.891-3.371-6.584-2.247-1.692-5.71-2.539-10.385-2.539H8.926v18.331zm0-25.869h5.922c4.431.058 7.727-.689 9.883-2.238 2.155-1.549 3.234-3.904 3.234-7.06 0-2.18-.775-4.087-2.323-5.724-1.549-1.636-4.388-2.453-8.517-2.453h-8.2v17.475zM0 0h18.036c6.56.058 11.355 1.584 14.394 4.583 3.034 2.998 4.613 6.296 4.736 9.894v.513c0 3.028-.774 5.555-2.322 7.581-1.55 2.029-3.935 3.67-7.152 4.926v.085c4.677.856 8.336 2.643 10.977 5.354 2.642 2.713 3.963 6.04 3.963 9.98 0 .456-.016.914-.046 1.371a7.33 7.33 0 01-.228 1.37c-.67 3.2-2.642 6.124-5.92 8.78-3.28 2.656-8.322 3.984-15.123 3.984H0V0z" mask="url(#b)"/><mask id="d" fill="#fff"><use xlink:href="#c"/></mask><path fill="#1A1919" d="M102.632 35.947c0 7.295-2.234 13.127-6.702 17.495C91.46 57.815 84.73 60 75.735 60c-6.392 0-12.191-1.838-17.397-5.515-5.208-3.674-7.812-9.536-7.812-17.583V0h8.699v34.992c0 3.418.266 5.978.8 7.686.533 1.709 1.478 3.226 2.84 4.557a16.967 16.967 0 005.857 3.778c2.19.84 4.586 1.258 7.192 1.258 3.313 0 6.168-.462 8.565-1.39 2.398-.925 4.276-2.054 5.637-3.385 1.538-1.504 2.558-3.345 3.062-5.514.502-2.17.755-4.646.755-7.424V0h8.699v35.947" mask="url(#d)"/><mask id="f" fill="#fff"><use xlink:href="#e"/></mask><path fill="#1A1919" d="M168.318 4.721v9.013a77.678 77.678 0 00-6.873-3.22 38.318 38.318 0 00-6.604-2.016 58.253 58.253 0 00-3.774-.558 34.135 34.135 0 00-3.865-.215c-7.008 0-12.835 2.12-17.478 6.352-4.642 4.237-6.962 9.586-6.962 16.05 0 6.582 2.29 11.933 6.874 16.052 4.582 4.121 10.558 6.18 17.926 6.18 1.738 0 3.505-.141 5.3-.43a37.059 37.059 0 005.394-1.285 51.644 51.644 0 005.39-2.062 42.84 42.84 0 005.301-2.832v9.1c-2.995 1.544-6.245 2.79-9.749 3.733-3.505.943-7.653 1.417-12.445 1.417-9.045 0-16.145-2.16-21.296-6.483-5.154-4.318-8.598-9.084-10.334-14.29-.48-1.43-.84-2.846-1.077-4.249a23.965 23.965 0 01-.362-4.077c0-8.927 3.16-16.308 9.482-22.145C129.485 2.919 137.526 0 147.293 0c3.174 0 6.425.386 9.748 1.16 3.326.771 7.085 1.989 11.277 3.647v-.086" mask="url(#f)"/><mask id="h" fill="#fff"><use xlink:href="#g"/></mask><path fill="#1A1919" mask="url(#h)" d="M232.105 58.421h-11.76l-30.23-28.868v28.868h-8.536V0h8.536v26.726L215.118 0h10.628l-25.873 27.668 32.232 30.753"/><mask id="j" fill="#fff"><use xlink:href="#i"/></mask><path fill="#1A1919" fill-rule="nonzero" d="M303.777 25.527h5.473c4.52.057 7.59-.87 9.212-2.783 1.62-1.913 2.434-4.07 2.434-6.469v-.17c-.06-2.77-.986-4.945-2.782-6.532-1.795-1.584-4.752-2.377-8.864-2.377h-5.473v18.331zM310.21 0c6.023.058 10.771 1.542 14.246 4.455 3.478 2.912 5.214 6.91 5.214 11.992 0 3.37-.854 6.282-2.561 8.736-1.71 2.457-4.158 4.313-7.344 5.57 1.68 1.084 3.2 2.37 4.563 3.853 1.358 1.486 2.677 3.17 3.952 5.055.752 1.085 1.522 2.24 2.304 3.468.781 1.229 1.575 2.5 2.39 3.814a144 144 0 00.997 1.625 17.84 17.84 0 001 1.458c.057.114.13.243.217.385a1.9 1.9 0 00.305.385 88.111 88.111 0 002.347 3.298c.866 1.171 1.94 2.612 3.214 4.327h-10.169l-7.817-11.994c-3.303-5.024-5.967-8.407-7.995-10.15-2.026-1.742-3.94-2.727-5.734-2.955a14.297 14.297 0 00-1-.128 11.224 11.224 0 00-.997-.043h-3.564v25.27h-8.514V0h14.946z" mask="url(#j)"/><mask id="l" fill="#fff"><use xlink:href="#k"/></mask><path fill="#1A1919" fill-rule="nonzero" d="M349.972 29.957c0 6.467 2.223 11.819 6.669 16.051 4.444 4.237 10.022 6.351 16.736 6.351 6.771 0 12.376-2.114 16.823-6.351 4.446-4.232 6.668-9.556 6.668-15.965 0-6.467-2.222-11.803-6.668-16.008-4.447-4.206-10.052-6.31-16.823-6.31-6.714 0-12.292 2.104-16.736 6.31-4.446 4.205-6.669 9.541-6.669 16.008v-.086zm-8.92 0c0-8.069 2.944-15.079 8.833-21.03C355.77 2.977 363.603 0 373.377 0c9.948 0 17.837 2.962 23.666 8.884 5.83 5.923 8.746 12.977 8.746 21.16 0 7.895-2.888 14.863-8.656 20.899-5.77 6.039-13.75 9.057-23.935 9.057-9.834 0-17.646-3.005-23.446-9.014-5.802-6.009-8.7-12.989-8.7-20.943v-.086z" mask="url(#l)"/><mask id="n" fill="#fff"><use xlink:href="#m"/></mask><path fill="#1A1919" fill-rule="nonzero" d="M424.185 29.957c0 6.467 2.22 11.819 6.665 16.051 4.445 4.237 10.025 6.351 16.74 6.351 6.768 0 12.374-2.114 16.822-6.351 4.445-4.232 6.667-9.556 6.667-15.965 0-6.467-2.222-11.803-6.667-16.008-4.448-4.206-10.054-6.31-16.823-6.31-6.714 0-12.294 2.104-16.739 6.31-4.445 4.205-6.665 9.541-6.665 16.008v-.086zm-8.922 0c0-8.069 2.942-15.079 8.832-21.03C429.98 2.977 437.814 0 447.589 0c9.947 0 17.839 2.962 23.668 8.884 5.829 5.923 8.743 12.977 8.743 21.16 0 7.895-2.886 14.863-8.655 20.899C465.57 56.982 457.595 60 447.41 60c-9.832 0-17.647-3.005-23.445-9.014-5.802-6.009-8.702-12.989-8.702-20.943v-.086z" mask="url(#n)"/><mask id="p" fill="#fff"><use xlink:href="#o"/></mask><path fill="#D1CE27" fill-rule="nonzero" d="M270.906 25.277h-18.567l9.633 21.604 8.934-21.604zM232.106 0h8.758l7.971 17.58h25.401L281.77 0h8.757l-25.661 60h-6.046L232.105 0z" mask="url(#p)"/></g></svg>