<svg height="32" viewBox="0 0 51 32" width="51" xmlns="http://www.w3.org/2000/svg"><g fill="none" fill-rule="evenodd"><path d="m.5.5h50v31h-50z" fill="#fff" stroke="#d0d0d0"/><g transform="translate(14 11.7)"><g fill="#0b4a8e"><path d="m.0135894 7.8601896.2458808-.02480734c.01478146.08292967.04482119.14375535.09003973.1827156.04529802.03888073.10633113.05828134.18317881.05828134.08137749 0 .14264901-.01725382.18397351-.05176146.04124504-.03458716.06182782-.0749786.06182782-.12125383 0-.02965749-.00866225-.05486238-.02590729-.0757737-.0173245-.0208318-.04752318-.03888073-.0906755-.05438532-.02956291-.01009786-.0967947-.0282263-.20177483-.05430581-.13517881-.03339449-.22990728-.07458104-.28442384-.12348012-.07660927-.06869725-.11491391-.15250153-.11491391-.25141284 0-.06352906.01803974-.12308257.05419868-.17842202.03607947-.05541896.08821192-.09763915.15615894-.12658104.06802649-.0289419.1501192-.04349236.24627814-.04349236.15703312 0 .2752053.03458716.35459603.10360245.07939073.0690948.12103311.16124771.12500662.27653823l-.25327152.00993883c-.01080795-.06440367-.03401325-.1106789-.06961589-.13898471-.03552318-.0282263-.08884769-.0423792-.15997352-.0423792-.07343046 0-.13080794.01510703-.17237085.0453211-.02678146.0193211-.04013246.04524159-.04013246.07768196 0 .02965749.0125563.05494189.03758941.07609174.03178808.0267156.10911258.05462385.23197351.08348624.12278146.0289419.21361589.05891743.27250331.09008563.05880795.03108868.10490066.07362691.13819868.12753516.03321854.05406728.04990728.12069725.04990728.20004893 0 .0720367-.01994702.13938227-.05984106.20219572-.03989404.06281346-.09623841.10948624-.16911258.14001835s-.16370861.04587768-.27250331.04587768c-.15830464 0-.27989404-.03681346-.36476822-.11044037-.0847947-.07362691-.13549668-.18088685-.15202649-.32193884m1.28074173.40995719h.72262251v-.90689908h-.72262251zm0-1.0310948h.72262251v-.22119878h-.72262251z"/><path d="m2.6594702 8.27014679h-.24087417v-.46386544c0-.09811621-.00516557-.16156575-.01533775-.19034863-.01025166-.02878287-.02678146-.0512844-.04974835-.06726605-.02296688-.01590214-.05062251-.02393273-.08288741-.02393273-.04140398 0-.07851656.01144955-.11141722.03426912s-.05539073.05303364-.06754967.09072171c-.01223841.03760856-.01827815.10718043-.01827815.20879511v.41162691h-.24087417v-.90689908h.2234702v.13325994c.07907285-.10376147.17872848-.15560245.29872848-.15560245.05292715 0 .1013245.00962079.14511258.02870336s.07692715.04349236.09941722.07314985c.02249006.02965749.03814569.06329052.04696689.10097859.00882119.03760857.01327152.09151682.01327152.16164526zm.51938388-.47300918c0 .096526.02085393.16721101.06274157.21197554.04179776.04492355.09339326.06726605.15478652.06726605.06570787 0 .12125843-.02297859.16665169-.06893577.04530337-.04595719.06804494-.11409786.06804494-.20434251 0-.09414068-.02175281-.16411009-.06516854-.20982875-.04350562-.04563914-.09833708-.06853823-.16476404-.06853823-.06453933 0-.11775281.02250153-.15955057.06726606-.04188764.04492355-.06274157.11322324-.06274157.20513761zm-.24440449.53264221.30894382.02981651c.00521348.03379205.01716854.05700917.03586517.06973089.02588764.01812844.06660674.02719266.1221573.02719266.07110112 0 .12440449-.00938227.16-.02814679.02382022-.01256269.04197753-.03275841.05429213-.06066667.00835955-.0200367.01258427-.05669113.01258427-.11028134l.00080899-.13238532c-.08035955.09676452-.18229213.14510703-.30597753.14510703-.13797752 0-.24710112-.05152294-.32764045-.15480734-.06319101-.08157798-.09474157-.18319266-.09474157-.30468502 0-.1523425.04134832-.26866666.12413483-.34913149.08278652-.08038533.18579776-.12061774.30885394-.12061774.12692134 0 .23164045.04937615.3141573.14796942v-.12562691h.25285393v.81522324c0 .10725994-.00997753.18740673-.03002247.24036085-.01995506.05311315-.048.09469725-.08413483.12491132s-.08431461.05390826-.14462921.07100306c-.06031461.0170948-.13653933.02568195-.22867416.02568195-.17411236 0-.29761798-.02655657-.37051686-.07959021-.07289887-.05303364-.10930337-.12029969-.10930337-.20179816 0-.00803059.00035955-.01773089.00098877-.02925994z"/><path d="m4.073 8.27h.241v-1.252h-.241z"/><path d="m5.26106349 7.76124107c-.00196451-.07419167-.0231999-.13050381-.06370617-.16918707-.04041272-.03859972-.08961895-.05798312-.14761869-.05798312-.0620223 0-.11328659.02046954-.15369931.06115799-.04050627.04068844-.06033844.09608154-.0596836.1660122zm-.01459348.2559111.2806439.04177458c-.03629661.09182054-.09364152.16183474-.17194117.20987552-.07829964.04812432-.17633791.07210293-.29392771.07210293-.186254 0-.32405016-.05439051-.41338847-.16308798-.07062871-.08705823-.1058963-.19692539-.1058963-.32976857 0-.15840922.04630625-.28264683.13910583-.37246219.09270604-.08981536.20992164-.13468126.35164681-.13468126.15931219 0 .28494711.04712173.37699831.14128164.0920512.09432701.13601874.23861643.13199618.43311889h-.71030971c.0019645.07502716.0249773.13334448.06894485.17511906.04396754.04160749.09878665.06249478.16445732.06249478.04462238 0 .08222867-.01069429.11263176-.03216643.03040309-.02138859.05350943-.05597794.0690384-.10360097z"/><path d="m6.179 8.27v-1.252h.927v.211h-.673v.278h.626v.212h-.626v.34h.698v.211z"/><path d="m7.99160265 8.27014679v-.13580428c-.03313907.04842202-.07660927.0869052-.13056954.11544954-.05396026.02846483-.11086092.04277676-.17078145.04277676-.06111259 0-.11578808-.01343731-.16434438-.04023242-.04847682-.02679511-.08360264-.06448318-.10529801-.1129052-.02169536-.04850153-.03250331-.11552905-.03250331-.20108257v-.57510091h.24087417v.41711315c0 .12769419.00437086.20593272.01327153.23463608.00882119.0289419.02487417.05168196.04823841.06853823.02336423.01677676.05292715.02512538.08884768.02512538.04100662 0 .07780132-.0111315.11022516-.03371254.03250332-.02250153.0546755-.05040978.0666755-.08380428.01192053-.03331498.01796027-.11497248.01796027-.24489297v-.38300305h.24087417v.90689908zm.75282119 0h-.24087417v-.90689908h.2234702v.12896636c.03822516-.0609052.07255629-.10129664.10307285-.12133334.03051655-.01995718.06508609-.02997553.10386754-.02997553.0546755 0 .10744371.01518654.1581457.04548012l-.07327152.20998777c-.0405298-.02615902-.07835762-.03927829-.11316557-.03927829-.03377483 0-.06230463.00930275-.08574834.02774924-.02344371.0186055-.04188079.05207951-.05531126.10050153-.01343046.04842201-.02018543.14995718-.02018543.30436697zm.70742097-.42928337c0 .09499541.02283337.16759964.06858501.21806333.04575163.0504637.10211357.07569555.16925558.07569555.06705712 0 .12333418-.02523185.16874628-.07569555.04541211-.05046369.0681606-.12373631.0681606-.21981786 0-.09365862-.02274849-.1658451-.0681606-.21622525-.0454121-.05046369-.10168916-.07569554-.16874628-.07569554-.06714201 0-.12350395.02523185-.16925558.07569554-.04575164.05038015-.06858501.12315148-.06858501.21797978zm-.26262627-.01353496c0-.08405046.02096597-.16542736.06298277-.24413067.04193193-.07861977.10134963-.13869162.178338-.18013201.07690349-.04144039.1628894-.06216058.25778797-.06216058.14659197 0 .26670062.04695463.36041082.14094745.0936253.09399281.1404804.21279973.1404804.3563372 0 .14470716-.0473644.26476732-.1419234.35992982-.09455903.0951625-.21364909.14278553-.35718529.14278553-.08878703 0-.1734997-.0198847-.25405314-.05940346-.08063831-.03968586-.14192343-.09775253-.18385536-.17436712-.0420168-.07661458-.06298277-.16977191-.06298277-.27980616zm1.98490696-.59821531v.35779816h.1439231c.1036312 0 .1729398-.00651987.2079257-.01971865.034903-.01319878.0623445-.03387156.0821588-.06201835.0198143-.02806728.0297629-.06074618.0297629-.0980367 0-.04587767-.013928-.08372477-.0417841-.11354128s-.0630907-.04842202-.1057039-.05589602c-.031421-.00572477-.0944288-.00858716-.1892721-.00858716zm-.2642182 1.04103364v-1.25229358h.4229812c.1602554 0 .2647986.00636086.3134638.01884404.0747803.01876452.1373736.05971254.1878627.12268501.0504892.06289297.0756923.14423242.0756923.24393884 0 .07688685-.0145084.14144954-.043608.19400612-.0290168.05231804-.0659924.09350458-.1107611.12340061-.0447687.02997553-.0902835.04969419-.1365445.05939449-.0629249.01200612-.1539546.01796942-.2730891.01796942h-.1717791v.47205505zm1.8133386-.40964931c-.0361041.01086139-.0931057.02372796-.171098.03876681-.0779924.0149553-.1290232.02974351-.1529061.04411396-.0367571.02347732-.0549491.05322082-.0549491.08923052 0 .03550839.0145536.06608739.0438473.09198763.0293871.02581669.066704.03876682.1121374.03876682.0506577 0 .0988898-.01503886.1449762-.04503301.0339584-.02289247.0563485-.05079789.0669838-.08388336.0072768-.02163924.0110085-.06282898.0110085-.12356922zm-.3789532-.2062829-.2536618-.04177458c.0287341-.09232183.078179-.16058151.1483348-.20494611.0702491-.04436461.1745498-.06658869.3129023-.06658869.1256647 0 .2193302.01336787.2808098.0399365.0614796.02681928.1048605.0606567.1298628.10167934.0250957.04102264.0376901.11646754.0376901.2261676l-.002892.29492856c0 .08388337.004478.14587685.0134341.18564626.0090493.03985295.0259352.08254658.0506577.12808087h-.2798769c-.0074634-.01645918-.0164194-.04093909-.027148-.07335617-.0046647-.0147882-.0080232-.0244799-.009889-.02924221-.0481388.04202524-.0995429.07360682-.1543055.09466121-.0547625.02097084-.1130702.03149804-.1752029.03149804-.1095251 0-.1959138-.02673574-.2589794-.0800401-.0630655-.05338792-.0945983-.12089565-.0945983-.20243964 0-.05388921.014367-.10201354.0430077-.14428941.0288273-.04227588.0691296-.07469296.1209068-.09716769.0518705-.02239118.1265976-.04219233.2241814-.05898571.1316354-.02214053.2228752-.04277718.2737195-.06199348v-.0254825c0-.04912691-.0134341-.08413401-.0403022-.10510485-.0269615-.0208873-.0776192-.03133094-.152253-.03133094-.0503779 0-.0896539.00893976-.1179215.02665218-.0282676.01779597-.0511242.04895981-.0684765.09349152zm.6897735-.29096687h.2557351l.217351.64387767.2123444-.64387767h.2483444l-.3778014 1.03228746c-.021139.05311315-.041245.0935841-.0603178.12157186-.0190729.02790826-.0410861.05064832-.0658808.06798166-.0248742.01741284-.0552318.03108868-.0914702.04070948-.0362384.00977981-.0771656.01462996-.1227815.01462996-.0461722 0-.0916291-.00485015-.136053-.01455045l-.0224106-.18804282c.0377484.00755352.0719206.01121101.1021987.01121101.0561854 0 .0975894-.01661774.1245298-.04969419.0269404-.03323547.0475232-.07545566.0618278-.12666055zm1.1216424 0h.2210066v.12387767c.0793908-.09748012.1738808-.14622018.2835497-.14622018.0581722 0 .1087152.0119266.1515497.03585933.0428344.02401223.0779602.06026911.105298.10869113.039894-.04842202.0830463-.0846789.1291391-.10869113.0462516-.02393273.0954437-.03585933.147894-.03585933.066755 0 .1231788.01351682.169351.04070948.0461722.02695413.0807417.06678899.1035497.11934556.0164503.03872172.0247152.10145566.0247152.18820184v.58098471h-.2408742v-.51944343c0-.09016513-.0082649-.14828746-.0247152-.17452599-.0222517-.03434862-.0563444-.05144343-.1023576-.05144343-.0336159 0-.0652451.01025689-.094808.03085016s-.0508609.05064832-.063894.09032416c-.0131126.03959633-.0197086.10225076-.0197086.18780428v.43643425h-.2408742v-.49797554c0-.08857492-.0042119-.14550458-.0127947-.17126605-.0085033-.02568196-.0216954-.04476453-.0396556-.05732722-.0179603-.01248318-.0421987-.01884404-.0729537-.01884404-.0369536 0-.0702516.01001835-.0998145.02997554-.029563.01995719-.050702.04881957-.0635762.08642813-.0127947.03768808-.0191523.10010398-.0191523.18740673v.44160245h-.2408742zm2.2739643.39799336c-.0020579-.07419167-.0231977-.13050381-.0637938-.16918707-.0403154-.03859972-.0896106-.05798312-.1476049-.05798312-.061923 0-.1132761.02046954-.1535915.06115799-.0405025.04068844-.0603328.09608154-.0596781.1660122zm-.0145921.2559111.2806177.04177458c-.0363867.09182054-.0936328.16183474-.1719251.20987552-.0783859.04812432-.1763215.07210293-.2939939.07210293-.1861431 0-.3239265-.05439051-.41335-.16308798-.0706222-.08705823-.1058865-.19692539-.1058865-.32976857 0-.15840922.0464891-.28264683.1390929-.37246219.092791-.08981536.2099021-.13468126.3517077-.13468126.1592973 0 .284827.04712173.3768696.14128164.0920427.09432701.1360997.23861643.1320775.43311889h-.7103372c.0020579.07502716.0250685.13334448.069032.17511906.0438699.04160749.0986839.06249478.164442.06249478.0446182 0 .0821275-.01069429.1125278-.03216643.0305873-.02138859.0535979-.05597794.0691255-.10360097zm1.2168132.25299462h-.2408741v-.46386544c0-.09811621-.0051656-.16156575-.0152583-.19034863-.0102517-.02878287-.0268609-.0512844-.0498278-.06726605-.0229669-.01590214-.0506225-.02393273-.0828874-.02393273-.0413245 0-.0785166.01144955-.1113378.03426912-.0329007.02281957-.0553907.05303364-.0676291.09072171-.012159.03760856-.0182782.10718043-.0182782.20879511v.41162691h-.2408741v-.90689908h.2234702v.13325994c.0791523-.10376147.1787284-.15560245.2987284-.15560245.0529272 0 .101404.00962079.1451126.02870336.0437881.01908257.0770066.04349236.0994967.07314985s.0380662.06329052.0468874.10097859c.0089007.03760857.0132715.09151682.0132715.16164526zm.710702-.90689908v.19130275h-.163947v.36694189c0 .074263.0015099.11759634.0046093.12984098.0030198.01232416.0100132.02242202.0209006.0304526.0109669.00795107.024159.01200612.0398146.01200612.0219338 0 .053404-.00771254.0948874-.02305811l.0210596.18589603c-.0555496.02393272-.1184106.03593884-.1885828.03593884-.0431523 0-.0818543-.00731499-.1164238-.02186545-.0344901-.01447094-.0598411-.03339449-.076053-.05653211-.0161324-.0230581-.0272583-.05430581-.0334569-.0936636-.0051656-.02798777-.0076292-.08451988-.0076292-.16951682v-.39644037h-.1092715v-.19130275h.1092715v-.18136392l.2408742-.14160856v.32297248zm.1354967.65103364.2408742-.03729052c.0102516.04635474.0309934.08149847.0622252.10559021.0313112.02409174.0750198.03601835.1312847.03601835.0620662 0 .1087153-.01144954.139947-.03434863.0210596-.01614067.0316292-.03752905.0316292-.06456269 0-.01828746-.0058013-.03355351-.0172451-.04548012-.0120794-.01152905-.0389404-.02210397-.0807417-.03188379-.1946225-.04301529-.3180397-.08221407-.3700132-.11759633-.072159-.04905811-.108159-.1173578-.108159-.20458104 0-.07887462.0310729-.14510703.093457-.19869725.0624636-.05366972.1591788-.08054434.2902252-.08054434.1247682 0 .2174304.02011621.2781457.06026911.0606357.04023242.102437.09962691.1254039.178263l-.2260132.04222018c-.0097749-.03522324-.0283709-.06233639-.0557086-.08110092-.0274172-.01884403-.0664371-.02822629-.1170596-.02822629-.0638941 0-.1097484.00882568-.1373245.02671559-.0185166.01256269-.0276557.02886239-.0276557.04889908 0 .01725383.0079471.0318838.024.04396942.0216954.01598165.0967947.0386422.2251391.06790214s.2179868.06503976.2689272.10741896c.0502251.04293578.0754967.10280734.0754967.17953517 0 .08356575-.034808.15544343-.1041855.21555352-.0695364.0601896-.1722119.09024465-.3082649.09024465-.1234172 0-.2211655-.02504587-.2931655-.07489909-.072-.05001223-.1190464-.11767584-.1412186-.20338837m2.3128212-.23853211-.1749934-.46466055-.1691126.46466055zm.4645033.49439755h-.2727417l-.1082384-.28321713h-.5044768l-.1031524.28321713h-.2680529l.4848476-1.25229358h.2663842zm.4135629 0h-.2408741v-.90689908h.2234702v.12896636c.0382251-.0609052.0724768-.10129664.1030728-.12133334.0304371-.01995718.0650066-.02997553.1038676-.02997553.0546755 0 .1073642.01518654.1581457.04548012l-.0732716.20998777c-.0406092-.02615902-.0783576-.03927829-.1131655-.03927829-.0338543 0-.0623841.00930275-.0858278.02774924-.0234438.0186055-.0418808.05207951-.0552318.10050153-.01351.04842201-.0201855.14995718-.0201855.30436697zm1.1514478-.50890572c-.0020579-.07419167-.0232913-.13050381-.0637003-.16918707-.0405025-.03859972-.0897041-.05798312-.1476049-.05798312-.0621101 0-.1132761.02046954-.153685.06115799-.0405025.04068844-.0604264.09608154-.0596781.1660122zm-.0145922.2559111.2806178.04177458c-.0362932.09182054-.0936328.16183474-.1719252.20987552-.0782923.04812432-.1763215.07210293-.2939003.07210293-.1862367 0-.3241135-.05439051-.4134435-.16308798-.0706222-.08705823-.1058865-.19692539-.1058865-.32976857 0-.15840922.0463955-.28264683.1391864-.37246219.0926039-.08981536.2099021-.13468126.3516141-.13468126.1592038 0 .2848271.04712173.3769632.14128164.0919491.09432701.1360061.23861643.1319839.43311889h-.7103371c.0020579.07502716.0250685.13334448.0689384.17511906.044057.04160749.098871.06249478.164442.06249478.0447118 0 .0822211-.01069429.1127149-.03216643.0304002-.02138859.0534109-.05597794.0690319-.10360097zm.9896259-.15665469c-.0360176.01086139-.0931231.02372796-.17113.03876681-.0780069.0149553-.128954.02974351-.1529346.04411396-.036764.02347732-.0549594.05322082-.0549594.08923052 0 .03550839.0145563.06608739.0439488.09198763.0292993.02581669.0666232.03876682.112065.03876682.0506672 0 .0989083-.01503886.1450033-.04503301.0339647-.02289247.056359-.05079789.0669963-.08388336.0072782-.02163924.0110106-.06282898.0110106-.12356922zm-.379024-.2062829-.2537091-.04177458c.0287394-.09232183.0781935-.16058151.1483624-.20494611.0702622-.04436461.1745825-.06658869.3129608-.06658869.1256881 0 .219371.01336787.2808621.0399365.0614911.02681928.1048801.0606567.1298871.10167934.0251003.04102264.0376971.11646754.0376971.2261676l-.0028926.29492856c0 .08388337.0044789.14587685.0134366.18564626.0090511.03985295.0259401.08254658.0505739.12808087h-.2798358c-.0074648-.01645918-.0163292-.04093909-.0271531-.07335617-.0045722-.0147882-.0080246-.0244799-.0098908-.02924221-.0481478.04202524-.0994682.07360682-.154241.09466121-.0547727.02097084-.1131846.03149804-.1753289.03149804-.1095456 0-.1959503-.02673574-.2590277-.0800401-.062984-.05338792-.0945227-.12089565-.0945227-.20243964 0-.05388921.0142764-.10201354.0430158-.14428941.0287393-.04227588.0690491-.07469296.120836-.09716769.0518802-.02239118.1266213-.04219233.2242232-.05898571.13166-.02214053.2229169-.04277718.2737707-.06199348v-.0254825c0-.04912691-.0134366-.08413401-.0403098-.10510485-.0268732-.0208873-.0776337-.03133094-.1522815-.03133094-.0503872 0-.0896706.00893976-.1179434.02665218-.0281795.01779597-.0511337.04895981-.0684893.09349152zm-18.08358992-5.55704027h-1.64010596c0-.26930275-.03162914-.45003058-.09456953-.54202446-.09758941-.13612233-.36699338-.204263-.80789404-.204263-.42818543 0-.71205298.03919878-.85056954.11767584-.13843709.0787156-.2077351.24990214-.2077351.51348012 0 .23861162.06135099.39572477.18437086.47102141.08813245.05343119.20455629.08483792.34974835.09422018l.33075496.02337615c.70887417.04707034 1.15160265.0802263 1.32818543.09907034.56058278.05653211.96699338.20569419 1.21915232.44740672.19843709.18859939.31676821.43508257.35451656.73944955.02209271.18207951.0330596.38809174.0330596.61700305 0 .52763303-.05030464.91405505-.15107285 1.15894802-.18262251.44931498-.59284768.73308868-1.23115232.85227523-.26741721.05040978-.6765298.07561467-1.22678145.07561467-.91851656 0-1.55864901-.05470336-1.92007947-.16466666-.44360265-.13469113-.73605298-.40757187-.87758941-.81848318-.07883443-.2287523-.1178543-.60968808-.1178543-1.14296636h1.64010596c0 .059474.00015894.10495413.00015894.13628134 0 .28456881.08177483.46760245.24492715.54910092.11308609.05621407.2496159.08571254.4101457.08921101h.60294039c.30770861 0 .50407947-.01574312.58879471-.04738838.15075496-.05931499.24969536-.15480734.29698013-.28695413.02511258-.08133945.0375894-.18661162.0375894-.31541896 0-.28854434-.10529801-.46410397-.31549669-.52707645-.07859602-.02488685-.44431788-.05955352-1.09708609-.10352294-.52418543-.03744954-.88831788-.07346789-1.09223841-.10837309-.53698013-.10050153-.89483444-.30714984-1.07340397-.62089908-.15695365-.26659939-.2354702-.66995719-.2354702-1.20951682 0-.41091131.04243708-.74040367.12723179-.98823853.08487417-.24791437.22164238-.43611621.4103841-.56484404.27647682-.19758409.63027815-.31359021 1.06092715-.34825688.35833113-.0312477.75584106-.04722936 1.1930861-.04722936.68837086 0 1.17894039.03959633 1.47139073.1180734.71372185.19185933 1.07054304.72927217 1.07054304 1.61239755 0 .07243425-.0053245.18072783-.01589404.32551682m8.97536422 1.25078288h1.0990729c.3484768-.01256269.5604238-.0393578.6367152-.08133945.1041854-.05732722.1741192-.17206117.2089272-.34420184.0222516-.11457492.0333774-.28488685.0333774-.51117431 0-.27717431-.0220927-.48262997-.0665165-.61684404-.0634172-.1879633-.2152848-.30245871-.4558411-.34404281-.0475232-.00628135-.161404-.0096208-.3418013-.0096208h-1.1139338zm-1.7629669 3.21247094v-6.55390825h3.2845828c.4505166 0 .7943047.03681345 1.0304901.11036085.5402384.1693578.902702.51610398 1.0883444 1.04015903.095841.27502752.1437615.68911926.1437615 1.24203669 0 .66478899-.0531655 1.14256881-.1583046 1.43341896-.2106755.57518043-.6443444.90650153-1.2991788.99237309-.0770066.01288074-.4046623.02440979-.9829669.03363303l-.2926887.00977982h-1.0510729v1.69214678zm8.9603444-2.40949235-.8260132-2.84099694-.8016159 2.84099694zm.3501457 1.27678287h-2.3571656l-.3166887 1.13270948h-1.824l1.9681589-6.55390825h2.6593908l1.9923178 6.55390825h-1.7856953z"/></g><path d="m10.111947.92860551c.7271523 0 1.376106.33513761 1.802702.86006727l.3800265-.81522324c-.5943576-.56206116-1.4032848-.90856881-2.29549669-.90856881-1.38913907 0-2.57745696.8393945-3.06516556 2.02760245h-.74105961l-.43756291.93854434h.9533245c-.00715232.08706422-.01176159.17420795-.01176159.26310092 0 .10757798.00556292.21388379.01621192.31891743h-.47912582l-.43748345.93886239h1.16018543c.5016159 1.1581529 1.67507285 1.97122935 3.04243709 1.97122935.68908609 0 1.32850329-.2065688 1.85793379-.5594373v-1.15059939c-.4263576.48565137-1.0499603.79256269-1.7451656.79256269-.81266223 0-1.52749667-.41925994-1.94376157-1.05375535h2.42948347l.4374834-.93886239h-3.22442382c-.01660927-.11298471-.02550994-.22843425-.02550994-.34603058 0-.0795107.00413245-.1582263.01176159-.23598777h3.50932447l.4374835-.93854434h-3.64331128c.40291391-.69571865 1.15271523-1.16387767 2.01147018-1.16387767" fill="#f6bc25"/><path d="m8.10047682 2.12070948h3.64331128l-.02551-.04015291-.4373245.93862386.025351-.01622019h-3.53467546l-.00270199.02552294c-.00786755.07919266-.01184106.15949847-.01184106.23853211 0 .11608563.00874172.23407951.02582782.35024465l.00365563.02409174h3.24858276l-.025351-.04007339-.4375629.93862385.0254305-.01622018h-2.48169539l.02868874.04341284c.43780133.66804893 1.17329801 1.06631804 1.96728475 1.06631804.6749404 0 1.318808-.29204281 1.7664636-.80178593l-.0494305-.01852599v1.15059939l.0123974-.02321713c-.5443709.36264832-1.181245.55442813-1.84219869.55442813-1.31849007 0-2.50251656-.76711926-3.01645033-1.95437308l-.0074702-.01685627h-1.17870199l.02574835.04023241.4373245-.93894189-.0255894.0163792h.5101192l-.00309934-.03116819c-.01056953-.10606728-.01605298-.21261162-.01605298-.31605505 0-.07959021.00389404-.1649052.01176159-.26063609l.00246358-.03053211h-.98384106l.02535099.04015291.43764239-.93878287-.02543047.0163792h.75997351l.00707285-.01749235c.2407947-.58662997.65038411-1.0867523 1.1842649-1.44669725.54683444-.3684526 1.18839735-.56325382 1.85491391-.56325382.85358939 0 1.66180129.31963302 2.27610599.90053822l-.0062782-.03244037-.3797881.81546178.0472848-.00588379c-.4498013-.55323548-1.114649-.87056269-1.8245563-.87056269-.83507283 0-1.61499336.45138226-2.03602647 1.17803058l-.02447682.04229969zm2.01147018-1.16395719c.6929007 0 1.3419338.3097737 1.7807682.84973089l.0283709.0349052.0192318-.04070948.3798675-.81530275.0085033-.018526-.0146225-.01399388c-.6247152-.59076453-1.4468344-.91604281-2.31488739-.91604281-.67780133 0-1.33009272.19814067-1.88638411.57311315-.54317881.36598776-.95976159.8750948-1.20460927 1.47190214l.02582782-.01749236h-.75909934l-.00754967.01622018-.45607947.97877676h.99743046l-.02805298-.03053211c-.00802649.09740061-.01184106.18406728-.01184106.26532722 0 .10535168.00532451.21372477.01621192.32170031l.02813245-.03077065h-.49692715l-.00754967.01622019-.43764238.93862385-.01851656.0400734h1.20421192l-.02574834-.0170153c.52299337 1.20776759 1.72736424 1.98832416 3.06818543 1.98832416.67215889 0 1.31984109-.19496024 1.87350989-.56404893l.0124769-.00834862v-1.2406055l-.0491921.05621406c-.4368477.49749847-1.0652185.78278288-1.7240265.78278288-.77507283 0-1.49292713-.3892049-1.92031786-1.04103364l-.02344371.04373089h2.44744367l.0075497-.01606117.4375629-.93894189.0186755-.03991438h-3.26868872l.02797351.02393273c-.01668874-.1136208-.02527153-.22859328-.02527153-.34197554 0-.07720489.00389404-.15552294.01168212-.23312538l-.02813245.02544342h3.52752317l.0073907-.01622018.4374835-.93878287.0188344-.03999389h-3.68773508l.02415894.04222018c.41086093-.70923547 1.17242384-1.14980428 1.98731124-1.14980428z" fill="#0b4a8e"/></g></g></svg>