<?xml version="1.0" encoding="UTF-8" standalone="no"?>
<!-- Created with Inkscape (http://www.inkscape.org/) -->

<svg
   width="640"
   height="360"
   viewBox="0 0 169.33333 95.25"
   version="1.1"
   id="svg4548"
   inkscape:export-filename="sepa.svg"
   inkscape:export-xdpi="96"
   inkscape:export-ydpi="96"
   sodipodi:docname="sepa-640x360.svg"
   inkscape:version="1.2.2 (b0a8486, 2022-12-01)"
   xmlns:inkscape="http://www.inkscape.org/namespaces/inkscape"
   xmlns:sodipodi="http://sodipodi.sourceforge.net/DTD/sodipodi-0.dtd"
   xmlns="http://www.w3.org/2000/svg"
   xmlns:svg="http://www.w3.org/2000/svg">
  <sodipodi:namedview
     id="namedview4550"
     pagecolor="#ffffff"
     bordercolor="#666666"
     borderopacity="1.0"
     inkscape:showpageshadow="2"
     inkscape:pageopacity="0.0"
     inkscape:pagecheckerboard="true"
     inkscape:deskcolor="#d1d1d1"
     inkscape:document-units="mm"
     showgrid="false"
     inkscape:zoom="0.39333333"
     inkscape:cx="-31.779661"
     inkscape:cy="307.62712"
     inkscape:window-width="1442"
     inkscape:window-height="784"
     inkscape:window-x="0"
     inkscape:window-y="25"
     inkscape:window-maximized="0"
     inkscape:current-layer="layer1" />
  <defs
     id="defs4545">
    <clipPath
       clipPathUnits="userSpaceOnUse"
       id="clipPath1190">
      <path
         d="M 0,0 H 595.276 V 841.89 H 0 Z"
         id="path1188" />
    </clipPath>
    <clipPath
       clipPathUnits="userSpaceOnUse"
       id="clipPath1204">
      <path
         d="M 0,0 H 595.276 V 841.89 H 0 Z"
         id="path1202" />
    </clipPath>
    <clipPath
       clipPathUnits="userSpaceOnUse"
       id="clipPath1222">
      <path
         d="M 0,0 H 595.276 V 841.89 H 0 Z"
         id="path1220" />
    </clipPath>
    <clipPath
       clipPathUnits="userSpaceOnUse"
       id="clipPath1238">
      <path
         d="M 0,0 H 595.276 V 841.89 H 0 Z"
         id="path1236" />
    </clipPath>
    <clipPath
       clipPathUnits="userSpaceOnUse"
       id="clipPath1294">
      <path
         d="M 0,0 H 595.276 V 841.89 H 0 Z"
         id="path1292" />
    </clipPath>
    <clipPath
       clipPathUnits="userSpaceOnUse"
       id="clipPath1326">
      <path
         d="M 0,0 H 595.276 V 841.89 H 0 Z"
         id="path1324" />
    </clipPath>
  </defs>
  <g
     inkscape:label="Layer 1"
     inkscape:groupmode="layer"
     id="layer1"
     transform="translate(0,5.8685626)">
    <g
       id="g5034"
       transform="matrix(1.024,0,0,1.024,-64.601602,-119.66618)">
      <g
         id="g1288"
         transform="matrix(0.93980313,0,0,-0.93980313,-158.30346,884.23284)">
        <g
           id="g1290"
           clip-path="url(#clipPath1294)">
          <g
             id="g1308"
             transform="translate(284.4413,780.0976)">
            <path
               d="m 0,0 h -9.632 c 0,1.58 -0.185,2.641 -0.555,3.181 -0.573,0.798 -2.155,1.198 -4.745,1.198 -2.513,0 -4.181,-0.23 -4.994,-0.69 -0.813,-0.462 -1.221,-1.466 -1.221,-3.014 0,-1.401 0.362,-2.323 1.083,-2.765 0.518,-0.313 1.203,-0.498 2.054,-0.553 l 1.943,-0.136 c 4.163,-0.278 6.762,-0.472 7.799,-0.582 3.293,-0.332 5.679,-1.207 7.161,-2.626 1.164,-1.107 1.859,-2.554 2.082,-4.34 0.128,-1.07 0.193,-2.279 0.193,-3.622 0,-3.097 -0.296,-5.366 -0.887,-6.802 -1.072,-2.638 -3.482,-4.304 -7.23,-5.003 -1.571,-0.296 -3.973,-0.443 -7.204,-0.443 -5.394,0 -9.154,0.32 -11.276,0.965 -2.604,0.792 -4.322,2.393 -5.153,4.804 -0.463,1.344 -0.692,3.579 -0.692,6.709 h 9.63 c 0,-0.349 10e-4,-0.615 10e-4,-0.8 0,-1.67 0.481,-2.744 1.44,-3.222 0.664,-0.33 1.465,-0.503 2.408,-0.525 h 3.541 c 1.807,0 2.959,0.093 3.457,0.28 0.885,0.347 1.467,0.908 1.744,1.683 0.148,0.478 0.221,1.096 0.221,1.852 0,1.693 -0.618,2.724 -1.854,3.093 -0.461,0.147 -2.608,0.35 -6.441,0.608 -3.079,0.22 -5.217,0.432 -6.414,0.637 -3.154,0.588 -5.256,1.802 -6.304,3.644 -0.923,1.565 -1.383,3.932 -1.383,7.099 0,2.412 0.249,4.345 0.748,5.8 0.498,1.455 1.3,2.56 2.41,3.315 1.623,1.16 3.701,1.841 6.229,2.044 2.105,0.184 4.439,0.277 7.007,0.277 4.043,0 6.924,-0.232 8.641,-0.693 C -2.002,10.248 0.093,7.094 0.093,1.91 0.093,1.484 0.062,0.849 0,0"
               style="fill:#273e6d;fill-opacity:1;fill-rule:nonzero;stroke:none"
               id="path1310" />
          </g>
          <g
             id="g1312"
             transform="translate(326.7957,753.9003)">
            <path
               d="m 0,0 v 38.467 h 15.09 2.368 1.831 c 2.645,0 4.664,-0.215 6.051,-0.647 3.172,-0.994 5.301,-3.029 6.391,-6.105 0.563,-1.615 0.844,-4.045 0.844,-7.291 0,-3.901 -0.312,-6.705 -0.929,-8.413 C 30.408,12.635 27.862,10.69 24.017,10.187 23.564,10.11 21.641,10.043 18.244,9.988 L 16.525,9.932 H 10.353 V 0 Z m 10.353,18.856 h 6.454 c 2.046,0.073 3.292,0.23 3.739,0.476 0.612,0.337 1.022,1.011 1.226,2.02 0.132,0.673 0.197,1.673 0.197,3.002 0,1.627 -0.13,2.831 -0.391,3.62 -0.372,1.103 -1.264,1.775 -2.677,2.019 -0.279,0.036 -0.948,0.057 -2.006,0.057 h -6.542 z"
               style="fill:#273e6d;fill-opacity:1;fill-rule:nonzero;stroke:none"
               id="path1314" />
          </g>
        </g>
      </g>
      <g
         id="g1316"
         transform="matrix(0.93980313,0,0,-0.93980313,200.2038,169.4668)">
        <path
           d="m 0,0 h -13.842 l -1.859,-6.648 h -10.712 l 11.558,38.466 H 0.762 l 11.7,-38.466 H 1.976 Z m -2.056,7.494 -4.85,16.674 -4.708,-16.674 z"
           style="fill:#273e6d;fill-opacity:1;fill-rule:nonzero;stroke:none"
           id="path1318" />
      </g>
      <g
         id="g1320"
         transform="matrix(0.93980313,0,0,-0.93980313,-158.30346,884.23284)">
        <g
           id="g1322"
           clip-path="url(#clipPath1326)">
          <g
             id="g1328"
             transform="translate(312.5056,786.956)">
            <path
               d="m 0,0 c 4.271,0 8.082,-1.968 10.586,-5.048 l 2.232,4.784 c -3.491,3.3 -8.24,5.333 -13.48,5.333 -8.157,0 -15.136,-4.927 -18,-11.9 h -4.352 l -2.57,-5.51 h 5.599 c -0.042,-0.511 -0.07,-1.021 -0.07,-1.544 0,-0.632 0.034,-1.255 0.096,-1.872 h -2.813 l -2.569,-5.51 h 6.813 c 2.946,-6.798 9.837,-11.57 17.866,-11.57 4.047,0 7.802,1.212 10.911,3.283 V -22.8 C 7.745,-25.651 4.083,-27.452 0,-27.452 c -4.772,0 -8.97,2.461 -11.414,6.185 H 2.853 l 2.569,5.51 h -18.936 c -0.097,0.664 -0.149,1.341 -0.149,2.031 0,0.467 0.024,0.929 0.069,1.385 H 7.015 l 2.569,5.51 H -11.811 C -9.445,-2.748 -5.043,0 0,0"
               style="fill:#f47216;fill-opacity:1;fill-rule:nonzero;stroke:none"
               id="path1330" />
          </g>
          <g
             id="g1332"
             transform="translate(312.5056,786.7909)">
            <path
               d="m 0,0 c 4.069,0 7.881,-1.818 10.458,-4.988 l 0.167,-0.205 0.112,0.239 2.231,4.786 0.051,0.107 -0.086,0.083 C 9.264,3.49 4.436,5.399 -0.662,5.399 c -3.981,0 -7.811,-1.163 -11.078,-3.364 -3.19,-2.148 -5.635,-5.137 -7.074,-8.639 l 0.152,0.103 h -4.352 -0.105 l -0.045,-0.096 -2.568,-5.509 -0.11,-0.236 h 0.258 5.599 l -0.164,0.18 c -0.048,-0.572 -0.07,-1.08 -0.07,-1.558 0,-0.618 0.032,-1.255 0.096,-1.887 l 0.164,0.18 h -2.813 -0.105 l -0.044,-0.095 -2.57,-5.509 -0.109,-0.237 h 0.259 6.813 l -0.152,0.101 c 3.073,-7.089 10.145,-11.671 18.018,-11.671 3.947,0 7.751,1.145 11.002,3.312 l 0.073,0.048 v 0.089 6.754 0.439 l -0.289,-0.33 C 7.56,-25.446 3.869,-27.121 0,-27.121 c -4.551,0 -8.767,2.285 -11.277,6.111 l -0.137,-0.258 H 2.853 2.958 l 0.045,0.095 2.569,5.511 0.11,0.235 h -0.26 -18.936 l 0.164,-0.14 c -0.097,0.667 -0.147,1.341 -0.147,2.006 0,0.454 0.022,0.914 0.068,1.369 l -0.165,-0.15 H 7.015 7.121 l 0.044,0.096 2.568,5.51 0.112,0.235 H 9.584 -11.811 L -11.67,-6.75 C -9.257,-2.586 -4.785,0 0,0 M -11.811,-6.832 H 9.584 l -0.15,0.235 -2.569,-5.509 0.15,0.095 h -20.609 -0.149 l -0.016,-0.149 c -0.046,-0.465 -0.069,-0.937 -0.069,-1.401 0,-0.681 0.051,-1.374 0.151,-2.055 l 0.023,-0.142 h 0.14 18.936 l -0.149,0.236 -2.569,-5.509 0.149,0.094 h -14.267 -0.307 l 0.169,-0.254 c 2.571,-3.921 6.89,-6.259 11.552,-6.259 3.964,0 7.745,1.714 10.374,4.706 l -0.291,0.109 v -6.754 l 0.073,0.137 c -3.196,-2.129 -6.936,-3.255 -10.818,-3.255 -7.742,0 -14.695,4.503 -17.713,11.472 l -0.044,0.098 h -0.109 -6.813 l 0.151,-0.236 2.568,5.511 -0.15,-0.096 h 2.813 0.183 l -0.019,0.184 c -0.061,0.622 -0.095,1.248 -0.095,1.854 0,0.468 0.023,0.968 0.07,1.531 l 0.014,0.178 h -0.179 -5.599 l 0.15,-0.235 2.569,5.51 -0.149,-0.096 h 4.352 0.111 l 0.041,0.103 c 1.415,3.442 3.82,6.377 6.955,8.491 3.211,2.162 6.979,3.306 10.893,3.306 5.013,0 9.759,-1.877 13.367,-5.286 l -0.038,0.191 -2.229,-4.787 0.277,0.035 C 8.073,-1.532 4.17,0.33 0,0.33 c -4.903,0 -9.484,-2.648 -11.955,-6.914 L -12.1,-6.832 Z"
               style="fill:#273e6d;fill-opacity:1;fill-rule:nonzero;stroke:none"
               id="path1334" />
          </g>
        </g>
      </g>
    </g>
  </g>
</svg>
