<svg xmlns="http://www.w3.org/2000/svg" width="640" height="360" viewBox="0 0 640 360">
  <g fill="none" fill-rule="evenodd" transform="translate(80 94)">
    <path fill="#0B4A8E" d="M.271788079 157.203792L5.18940397 156.707645C5.48503311 158.366239 6.08582781 159.582752 6.99019868 160.361957 7.89615894 161.139572 9.11682119 161.527584 10.6537748 161.527584 12.2813245 161.527584 13.506755 161.182508 14.333245 160.492355 15.1581457 159.800612 15.5698013 158.992783 15.5698013 158.067278 15.5698013 157.474128 15.3965563 156.970031 15.0516556 156.551804 14.7051656 156.135168 14.1011921 155.77419 13.2381457 155.464098 12.6468874 155.262141 11.3022517 154.899572 9.20264901 154.377982 6.49907285 153.710092 4.60450331 152.886361 3.51417219 151.908379 1.98198675 150.534434 1.21589404 148.858349 1.21589404 146.880122 1.21589404 145.609541 1.57668874 144.418471 2.29986755 143.311682 3.02145695 142.203303 4.06410596 141.358899 5.42304636 140.780061 6.78357616 140.201223 8.42543046 139.910214 10.3486093 139.910214 13.4892715 139.910214 15.8527152 140.601957 17.4405298 141.982263 19.0283444 143.364159 19.8611921 145.207217 19.9406623 147.513028L14.8752318 147.711804C14.6590728 146.423731 14.1949669 145.498226 13.4829139 144.93211 12.7724503 144.367584 11.7059603 144.084526 10.2834437 144.084526 8.81483444 144.084526 7.66728477 144.386667 6.83602649 144.990948 6.30039735 145.37737 6.03337748 145.89578 6.03337748 146.544587 6.03337748 147.137737 6.28450331 147.643425 6.78516556 148.066422 7.42092715 148.600734 8.96741722 149.158899 11.4246358 149.736147 13.8802649 150.314985 15.6969536 150.914495 16.874702 151.537859 18.0508609 152.159633 18.9727152 153.010398 19.6386755 154.088563 20.3030464 155.169908 20.6368212 156.502508 20.6368212 158.089541 20.6368212 159.530275 20.2378808 160.877187 19.44 162.133456 18.6421192 163.389725 17.5152318 164.32318 16.0577483 164.933823 14.6002649 165.544465 12.7835762 165.851376 10.6076821 165.851376 7.4415894 165.851376 5.00980132 165.115107 3.31231788 163.642569 1.61642384 162.170031.602384106 160.024832.271788079 157.203792M25.8866225 165.402936L30.704106 165.402936 30.704106 147.264954 25.8866225 147.264954 25.8866225 165.402936zM25.8866225 144.78104L30.704106 144.78104 30.704106 140.357064 25.8866225 140.357064 25.8866225 144.78104zM53.189404 165.402936L48.3719205 165.402936 48.3719205 156.125627C48.3719205 154.163303 48.2686093 152.894312 48.0651656 152.318654 47.8601325 151.742997 47.5295364 151.292966 47.0701987 150.973333 46.6108609 150.655291 46.0577483 150.494679 45.4124503 150.494679 44.5843709 150.494679 43.8421192 150.72367 43.184106 151.180061 42.5260927 151.636453 42.0762914 152.240734 41.8331126 152.994495 41.5883444 153.746667 41.4675497 155.138104 41.4675497 157.170398L41.4675497 165.402936 36.6500662 165.402936 36.6500662 147.264954 41.1194702 147.264954 41.1194702 149.930153C42.7009272 147.854924 44.6940397 146.818104 47.0940397 146.818104 48.1525828 146.818104 49.1205298 147.01052 49.9962914 147.392171 50.872053 147.773823 51.5348344 148.262018 51.9846358 148.855168 52.4344371 149.448318 52.7475497 150.120979 52.9239735 150.87474 53.1003974 151.626911 53.189404 152.705076 53.189404 154.107645L53.189404 165.402936M62.9324503 155.942752C62.9324503 157.873272 63.3011921 159.286972 64.0418543 160.182263 64.7809272 161.080734 65.693245 161.527584 66.7788079 161.527584 67.9406623 161.527584 68.9229139 161.068012 69.7255629 160.148869 70.5266225 159.229725 70.9287417 157.866911 70.9287417 156.062018 70.9287417 154.179205 70.544106 152.779817 69.7764238 151.865443 69.0071523 150.952661 68.0376159 150.494679 66.8630464 150.494679 65.7218543 150.494679 64.7809272 150.944709 64.0418543 151.84 63.3011921 152.738471 62.9324503 154.104465 62.9324503 155.942752zM58.6108609 166.595596L64.0736424 167.191927C64.1658278 167.867768 64.3772185 168.33211 64.7078146 168.586544 65.1655629 168.949113 65.8855629 169.130398 66.8678146 169.130398 68.1250331 169.130398 69.0675497 168.942752 69.6969536 168.567462 70.1181457 168.316208 70.4392053 167.912294 70.6569536 167.354128 70.8047682 166.953394 70.8794702 166.220306 70.8794702 165.148502L70.8937748 162.500795C69.4728477 164.436086 67.6704636 165.402936 65.4834437 165.402936 63.0437086 165.402936 61.1141722 164.372477 59.6900662 162.306789 58.5727152 160.675229 58.0148344 158.642936 58.0148344 156.213089 58.0148344 153.166239 58.7459603 150.839755 60.2098013 149.230459 61.6736424 147.622752 63.4950993 146.818104 65.6709934 146.818104 67.9152318 146.818104 69.7668874 147.805627 71.2259603 149.777492L71.2259603 147.264954 75.6969536 147.264954 75.6969536 163.569419C75.6969536 165.714618 75.5205298 167.317554 75.1660927 168.376636 74.813245 169.438899 74.317351 170.270581 73.6784106 170.874862 73.0394702 171.479144 72.1875497 171.953028 71.1210596 172.294924 70.0545695 172.63682 68.706755 172.808563 67.0776159 172.808563 63.9989404 172.808563 61.8150993 172.277431 60.5260927 171.216758 59.2370861 170.156086 58.5933775 168.810765 58.5933775 167.180795 58.5933775 167.020183 58.5997351 166.826177 58.6108609 166.595596L58.6108609 166.595596z"/>
    <polygon fill="#0B4A8E" points="81.466 165.403 86.284 165.403 86.284 140.357 81.466 140.357"/>
    <path fill="#0B4A8E" d="M103.056954,154.818471 C103.023576,153.406361 102.662781,152.334557 101.97457,151.598287 C101.287947,150.863609 100.451921,150.494679 99.4664901,150.494679 C98.4127152,150.494679 97.5417219,150.884281 96.8550993,151.658716 C96.1668874,152.43315 95.8299338,153.487462 95.8410596,154.818471 L103.056954,154.818471 Z M102.809007,159.689297 L107.577219,160.484404 C106.96053,162.232049 105.986225,163.564648 104.655894,164.479021 C103.325563,165.394985 101.659868,165.851376 99.6619868,165.851376 C96.4974834,165.851376 94.1562914,164.816147 92.6384106,162.747278 C91.4384106,161.090275 90.8392053,158.999144 90.8392053,156.470703 C90.8392053,153.455657 91.6259603,151.091009 93.202649,149.381529 C94.7777483,147.672049 96.7692715,146.818104 99.1772185,146.818104 C101.883974,146.818104 104.018543,147.714985 105.582517,149.507156 C107.14649,151.302508 107.89351,154.048807 107.825166,157.750826 L95.7568212,157.750826 C95.7901987,159.178838 96.1811921,160.288807 96.9282119,161.083914 C97.6752318,161.875841 98.6066225,162.273394 99.7223841,162.273394 C100.48053,162.273394 101.11947,162.069847 101.636026,161.661162 C102.152583,161.254067 102.545166,160.595719 102.809007,159.689297 L102.809007,159.689297 Z"/>
    <polyline fill="#0B4A8E" points="123.589 165.403 123.589 140.357 142.117 140.357 142.117 144.582 128.656 144.582 128.656 150.148 141.172 150.148 141.172 154.372 128.656 154.372 128.656 161.179 142.612 161.179 142.612 165.403 123.589 165.403"/>
    <path fill="#0B4A8E" d="M159.832053 165.402936L159.832053 162.68685C159.169272 163.655291 158.299868 164.424954 157.220662 164.995841 156.141457 165.565138 155.003444 165.851376 153.805033 165.851376 152.582781 165.851376 151.489272 165.58263 150.518146 165.046728 149.548609 164.510826 148.846093 163.757064 148.412185 162.788624 147.978278 161.818593 147.762119 160.478043 147.762119 158.766972L147.762119 147.264954 152.579603 147.264954 152.579603 155.607217C152.579603 158.161101 152.66702 159.725872 152.845033 160.299939 153.021457 160.878777 153.342517 161.333578 153.809801 161.670703 154.277086 162.006239 154.868344 162.173211 155.586755 162.173211 156.406887 162.173211 157.142781 161.950581 157.791258 161.49896 158.441325 161.04893 158.884768 160.490765 159.124768 159.822875 159.363179 159.156575 159.483974 157.523425 159.483974 154.925015L159.483974 147.264954 164.301457 147.264954 164.301457 165.402936 159.832053 165.402936M174.888477 165.402936L170.070993 165.402936 170.070993 147.264954 174.540397 147.264954 174.540397 149.844281C175.304901 148.626177 175.991523 147.818349 176.601854 147.417615 177.212185 147.018471 177.903576 146.818104 178.679205 146.818104 179.772715 146.818104 180.828079 147.121835 181.842119 147.727706L180.376689 151.927462C179.566093 151.404281 178.809536 151.141896 178.113377 151.141896 177.437881 151.141896 176.867285 151.327951 176.398411 151.696881 175.929536 152.068991 175.560795 152.738471 175.292185 153.706911 175.023576 154.675352 174.888477 156.706055 174.888477 159.794251L174.888477 165.402936M188.701987 156.333945C188.701987 158.142018 189.129536 159.523914 189.986225 160.484404 190.842914 161.444893 191.898278 161.925138 193.155497 161.925138 194.411126 161.925138 195.464901 161.444893 196.315232 160.484404 197.165563 159.523914 197.591523 158.129297 197.591523 156.30055 197.591523 154.51792 197.165563 153.143976 196.315232 152.185076 195.464901 151.224587 194.411126 150.744343 193.155497 150.744343 191.898278 150.744343 190.842914 151.224587 189.986225 152.185076 189.129536 153.143976 188.701987 154.529052 188.701987 156.333945zM183.784371 156.07633C183.784371 154.476575 184.176954 152.927706 184.963709 151.429725 185.748874 149.933333 186.861457 148.789969 188.303046 148.001223 189.743046 147.212477 191.353113 146.818104 193.130066 146.818104 195.874967 146.818104 198.123974 147.711804 199.878675 149.500795 201.631788 151.289786 202.509139 153.55107 202.509139 156.283058 202.509139 159.037309 201.622252 161.322446 199.851656 163.1337 198.08106 164.944954 195.851126 165.851376 193.163444 165.851376 191.500927 165.851376 189.914702 165.472905 188.406358 164.720734 186.896424 163.965382 185.748874 162.860183 184.963709 161.401957 184.176954 159.943731 183.784371 158.170642 183.784371 156.07633L183.784371 156.07633zM223.263576 144.582263L223.263576 151.738226 226.022781 151.738226C228.009536 151.738226 229.338278 151.607829 230.009007 151.343853 230.678146 151.079878 231.204238 150.666422 231.584106 150.103486 231.963974 149.542141 232.154702 148.888563 232.154702 148.142752 232.154702 147.225199 231.887682 146.468257 231.353642 145.871927 230.819603 145.275596 230.144106 144.903486 229.327152 144.754006 228.724768 144.639511 227.516821 144.582263 225.698543 144.582263L223.263576 144.582263zM218.198146 165.402936L218.198146 140.357064 226.307285 140.357064C229.379603 140.357064 231.383841 140.484281 232.316821 140.733945 233.750464 141.109235 234.950464 141.928196 235.918411 143.187645 236.886358 144.445505 237.369536 146.072294 237.369536 148.066422 237.369536 149.604159 237.091391 150.895413 236.53351 151.946544 235.977219 152.992905 235.268344 153.816636 234.410066 154.414557 233.551788 155.014067 232.679205 155.40844 231.792318 155.602446 230.58596 155.842569 228.840795 155.961835 226.556821 155.961835L223.263576 155.961835 223.263576 165.402936 218.198146 165.402936 218.198146 165.402936zM252.503841 156.707645C251.888742 156.914373 250.917616 157.159266 249.588874 157.445505 248.260132 157.730153 247.390728 158.011621 246.983841 158.285138 246.357616 158.731988 246.047682 159.298104 246.047682 159.983486 246.047682 160.659327 246.295629 161.241346 246.794702 161.734312 247.295364 162.225688 247.931126 162.472171 248.705166 162.472171 249.568212 162.472171 250.389934 162.185933 251.175099 161.615046 251.753642 161.179327 252.135099 160.648196 252.316291 160.018471 252.440265 159.606606 252.503841 158.82263 252.503841 157.666544L252.503841 156.707645zM246.047682 152.781407L241.726093 151.9863C242.215629 150.229113 243.058013 148.929908 244.253245 148.085505 245.450066 147.241101 247.22702 146.818104 249.584106 146.818104 251.725033 146.818104 253.320795 147.072538 254.368212 147.578226 255.415629 148.088685 256.154702 148.732722 256.580662 149.513517 257.008212 150.294312 257.222781 151.730275 257.222781 153.818226L257.17351 159.431682C257.17351 161.028257 257.249801 162.208196 257.402384 162.965138 257.556556 163.72367 257.844238 164.536269 258.26543 165.402936L253.497219 165.402936C253.370066 165.089664 253.217483 164.623731 253.034702 164.006728 252.955232 163.72526 252.898013 163.540795 252.866225 163.450153 252.046093 164.250031 251.170331 164.851131 250.237351 165.251865 249.304371 165.651009 248.310993 165.851376 247.25245 165.851376 245.38649 165.851376 243.914702 165.342508 242.840265 164.327951 241.765828 163.311804 241.228609 162.026911 241.228609 160.474862 241.228609 159.449174 241.473377 158.533211 241.961325 157.728563 242.45245 156.923914 243.139073 156.306911 244.021192 155.879144 244.904901 155.452966 246.178013 155.076086 247.84053 154.756453 250.083179 154.335046 251.637616 153.942263 252.503841 153.576514L252.503841 153.091498C252.503841 152.156453 252.274967 151.490153 251.817219 151.091009 251.357881 150.693456 250.494834 150.494679 249.223311 150.494679 248.365033 150.494679 247.695894 150.664832 247.214305 151.001957 246.732715 151.340673 246.343311 151.933823 246.047682 152.781407L246.047682 152.781407zM260.681325 147.264954L265.796026 147.264954 270.143046 160.142508 274.389934 147.264954 279.356821 147.264954 271.800795 167.910703C271.378013 168.972966 270.975894 169.782385 270.594437 170.342141 270.21298 170.900306 269.772715 171.355107 269.276821 171.701774 268.779338 172.050031 268.172185 172.323547 267.447417 172.515963 266.722649 172.71156 265.904106 172.808563 264.991788 172.808563 264.068344 172.808563 263.159205 172.71156 262.270728 172.517554L261.822517 168.756697C262.577483 168.907768 263.260927 168.980917 263.86649 168.980917 264.990199 168.980917 265.818278 168.648563 266.357086 167.987034 266.895894 167.322324 267.30755 166.47792 267.593642 165.453823L260.681325 147.264954M283.114172 147.264954L287.534305 147.264954 287.534305 149.742508C289.122119 147.792905 291.011921 146.818104 293.205298 146.818104 294.368742 146.818104 295.379603 147.056636 296.236291 147.535291 297.09298 148.015535 297.795497 148.740673 298.342252 149.709113 299.140132 148.740673 300.003179 148.015535 300.925033 147.535291 301.850066 147.056636 302.833907 146.818104 303.882914 146.818104 305.218013 146.818104 306.34649 147.08844 307.269934 147.632294 308.193377 148.171376 308.884768 148.968073 309.340927 150.019205 309.669934 150.793639 309.835232 152.048318 309.835232 153.783242L309.835232 165.402936 305.017748 165.402936 305.017748 155.014067C305.017748 153.210765 304.85245 152.048318 304.523444 151.523547 304.078411 150.836575 303.396556 150.494679 302.476291 150.494679 301.803974 150.494679 301.171391 150.699817 300.580132 151.111682 299.988874 151.523547 299.562914 152.124648 299.302252 152.918165 299.04 153.710092 298.908079 154.96318 298.908079 156.674251L298.908079 165.402936 294.090596 165.402936 294.090596 155.443425C294.090596 153.671927 294.006358 152.533333 293.834702 152.018104 293.664636 151.504465 293.400795 151.122813 293.041589 150.87156 292.682384 150.621896 292.197616 150.494679 291.582517 150.494679 290.843444 150.494679 290.177483 150.695046 289.586225 151.09419 288.994967 151.493333 288.572185 152.070581 288.314702 152.822752 288.058808 153.576514 287.931656 154.824832 287.931656 156.570887L287.931656 165.402936 283.114172 165.402936 283.114172 147.264954M326.430199 154.818471C326.395232 153.406361 326.036026 152.334557 325.346225 151.598287 324.661192 150.863609 323.823576 150.494679 322.838146 150.494679 321.78596 150.494679 320.913377 150.884281 320.228344 151.658716 319.540132 152.43315 319.203179 153.487462 319.214305 154.818471L326.430199 154.818471zM326.182252 159.689297L330.950464 160.484404C330.332185 162.232049 329.35947 163.564648 328.029139 164.479021 326.697219 165.394985 325.033113 165.851376 323.033642 165.851376 319.870728 165.851376 317.529536 164.816147 316.010066 162.747278 314.810066 161.090275 314.210861 158.999144 314.210861 156.470703 314.210861 153.455657 315.000795 151.091009 316.574305 149.381529 318.150993 147.672049 320.140927 146.818104 322.550464 146.818104 325.257219 146.818104 327.390199 147.714985 328.954172 149.507156 330.518146 151.302508 331.266755 154.048807 331.198411 157.750826L319.128477 157.750826C319.163444 159.178838 319.554437 160.288807 320.301457 161.083914 321.046887 161.875841 321.978278 162.273394 323.095629 162.273394 323.853775 162.273394 324.491126 162.069847 325.007682 161.661162 325.527417 161.254067 325.918411 160.595719 326.182252 159.689297L326.182252 159.689297zM352.637881 165.402936L347.820397 165.402936 347.820397 156.125627C347.820397 154.163303 347.717086 152.894312 347.515232 152.318654 347.310199 151.742997 346.978013 151.292966 346.518675 150.973333 346.059338 150.655291 345.506225 150.494679 344.860927 150.494679 344.034437 150.494679 343.290596 150.72367 342.634172 151.180061 341.976159 151.636453 341.526358 152.240734 341.281589 152.994495 341.038411 153.746667 340.916026 155.138104 340.916026 157.170398L340.916026 165.402936 336.098543 165.402936 336.098543 147.264954 340.567947 147.264954 340.567947 149.930153C342.150993 147.854924 344.142517 146.818104 346.542517 146.818104 347.60106 146.818104 348.570596 147.01052 349.444768 147.392171 350.32053 147.773823 350.984901 148.262018 351.434702 148.855168 351.884503 149.448318 352.196026 150.120979 352.37245 150.87474 352.550464 151.626911 352.637881 152.705076 352.637881 154.107645L352.637881 165.402936M366.851921 147.264954L366.851921 151.091009 363.57298 151.091009 363.57298 158.429847C363.57298 159.915107 363.603179 160.781774 363.665166 161.026667 363.725563 161.27315 363.86543 161.475107 364.083179 161.635719 364.302517 161.79474 364.566358 161.875841 364.87947 161.875841 365.318146 161.875841 365.94755 161.72159 366.777219 161.414679L367.198411 165.132599C366.087417 165.611254 364.830199 165.851376 363.426755 165.851376 362.563709 165.851376 361.789669 165.705076 361.098278 165.414067 360.408477 165.124648 359.901457 164.746177 359.577219 164.283425 359.25457 163.822263 359.032053 163.197309 358.908079 162.410153 358.804768 161.850398 358.755497 160.719755 358.755497 159.019817L358.755497 151.091009 356.570066 151.091009 356.570066 147.264954 358.755497 147.264954 358.755497 143.637676 363.57298 140.805505 363.57298 147.264954 366.851921 147.264954M369.561854 160.285627L374.379338 159.539817C374.584371 160.466911 374.999205 161.169786 375.623841 161.651621 376.250066 162.133456 377.124238 162.371988 378.249536 162.371988 379.490861 162.371988 380.423841 162.142997 381.048477 161.685015 381.469669 161.362202 381.68106 160.934434 381.68106 160.393761 381.68106 160.028012 381.565033 159.722691 381.336159 159.484159 381.09457 159.253578 380.557351 159.04208 379.721325 158.846483 375.828874 157.986177 373.36053 157.202202 372.32106 156.494557 370.877881 155.513394 370.157881 154.147401 370.157881 152.402936 370.157881 150.825443 370.779338 149.500795 372.02702 148.428991 373.276291 147.355596 375.210596 146.818104 377.831523 146.818104 380.326887 146.818104 382.180132 147.220428 383.394437 148.023486 384.607152 148.828135 385.443179 150.016024 385.902517 151.588746L381.382252 152.43315C381.186755 151.728685 380.814834 151.186422 380.268079 150.811131 379.719735 150.434251 378.939338 150.246606 377.926887 150.246606 376.649007 150.246606 375.731921 150.423119 375.180397 150.780917 374.810066 151.032171 374.627285 151.358165 374.627285 151.758899 374.627285 152.103976 374.786225 152.396575 375.107285 152.638287 375.541192 152.95792 377.043179 153.411131 379.610066 153.99633 382.176954 154.581529 383.969801 155.297125 384.988609 156.144709 385.993113 157.003425 386.498543 158.200856 386.498543 159.735413 386.498543 161.406728 385.802384 162.844281 384.414834 164.046483 383.024106 165.250275 380.970596 165.851376 378.249536 165.851376 375.781192 165.851376 373.826225 165.350459 372.386225 164.353394 370.946225 163.35315 370.005298 161.999878 369.561854 160.285627M415.818278 155.514985L412.318411 146.221774 408.936159 155.514985 415.818278 155.514985zM425.108344 165.402936L419.65351 165.402936 417.488742 159.738593 407.399205 159.738593 405.336159 165.402936 399.975099 165.402936 409.672053 140.357064 414.999735 140.357064 425.108344 165.402936 425.108344 165.402936zM433.379603 165.402936L428.562119 165.402936 428.562119 147.264954 433.031523 147.264954 433.031523 149.844281C433.796026 148.626177 434.48106 147.818349 435.09298 147.417615 435.701722 147.018471 436.393113 146.818104 437.170331 146.818104 438.263841 146.818104 439.317616 147.121835 440.333245 147.727706L438.867815 151.927462C438.055629 151.404281 437.300662 151.141896 436.604503 151.141896 435.927417 151.141896 435.356821 151.327951 434.887947 151.696881 434.419073 152.068991 434.050331 152.738471 433.783311 153.706911 433.513113 154.675352 433.379603 156.706055 433.379603 159.794251L433.379603 165.402936M454.245298 154.818471C454.210331 153.406361 453.849536 152.334557 453.162914 151.598287 452.474702 150.863609 451.638675 150.494679 450.654834 150.494679 449.59947 150.494679 448.730066 150.884281 448.043444 151.658716 447.355232 152.43315 447.016689 153.487462 447.029404 154.818471L454.245298 154.818471zM453.997351 159.689297L458.765563 160.484404C458.148874 162.232049 457.17457 163.564648 455.844238 164.479021 454.513907 165.394985 452.848212 165.851376 450.850331 165.851376 447.685828 165.851376 445.343046 164.816147 443.825166 162.747278 442.625166 161.090275 442.02596 158.999144 442.02596 156.470703 442.02596 153.455657 442.814305 151.091009 444.390993 149.381529 445.964503 147.672049 447.957616 146.818104 450.365563 146.818104 453.070728 146.818104 455.205298 147.714985 456.770861 149.507156 458.333245 151.302508 459.081854 154.048807 459.01351 157.750826L446.943576 157.750826C446.978543 159.178838 447.369536 160.288807 448.114967 161.083914 448.863576 161.875841 449.794967 162.273394 450.909139 162.273394 451.668874 162.273394 452.306225 162.069847 452.824371 161.661162 453.340927 161.254067 453.731921 160.595719 453.997351 159.689297L453.997351 159.689297zM473.94596 156.707645C473.33245 156.914373 472.359735 157.159266 471.030993 157.445505 469.702252 157.730153 468.834437 158.011621 468.42596 158.285138 467.799735 158.731988 467.489801 159.298104 467.489801 159.983486 467.489801 160.659327 467.737748 161.241346 468.238411 161.734312 468.737483 162.225688 469.373245 162.472171 470.147285 162.472171 471.010331 162.472171 471.832053 162.185933 472.617219 161.615046 473.195762 161.179327 473.577219 160.648196 473.758411 160.018471 473.882384 159.606606 473.94596 158.82263 473.94596 157.666544L473.94596 156.707645zM467.489801 152.781407L463.168212 151.9863C463.657748 150.229113 464.500132 148.929908 465.695364 148.085505 466.892185 147.241101 468.669139 146.818104 471.026225 146.818104 473.167152 146.818104 474.762914 147.072538 475.810331 147.578226 476.857748 148.088685 477.596821 148.732722 478.022781 149.513517 478.450331 150.294312 478.664901 151.730275 478.664901 153.818226L478.615629 159.431682C478.615629 161.028257 478.691921 162.208196 478.844503 162.965138 478.998675 163.72367 479.286358 164.536269 479.70596 165.402936L474.939338 165.402936C474.812185 165.089664 474.661192 164.623731 474.476821 164.006728 474.39894 163.72526 474.340132 163.540795 474.308344 163.450153 473.488212 164.250031 472.61404 164.851131 471.68106 165.251865 470.748079 165.651009 469.753113 165.851376 468.69457 165.851376 466.828609 165.851376 465.356821 165.342508 464.282384 164.327951 463.209536 163.311804 462.672318 162.026911 462.672318 160.474862 462.672318 159.449174 462.915497 158.533211 463.405033 157.728563 463.89457 156.923914 464.581192 156.306911 465.463311 155.879144 466.34702 155.452966 467.620132 155.076086 469.282649 154.756453 471.525298 154.335046 473.079735 153.942263 473.94596 153.576514L473.94596 153.091498C473.94596 152.156453 473.717086 151.490153 473.259338 151.091009 472.801589 150.693456 471.936954 150.494679 470.66543 150.494679 469.807152 150.494679 469.138013 150.664832 468.656424 151.001957 468.176424 151.340673 467.78543 151.933823 467.489801 152.781407L467.489801 152.781407zM106.656954 41.9434862L73.8548344 41.9434862C73.8548344 36.5574312 73.2222517 32.9428746 71.9634437 31.1029969 70.0116556 28.3805505 64.6235762 27.017737 55.8055629 27.017737 47.2418543 27.017737 41.5645033 27.8017125 38.7941722 29.3712538 36.0254305 30.9455657 34.6394702 34.3692966 34.6394702 39.6408563 34.6394702 44.4130887 35.8664901 47.5553517 38.3268874 49.0612844 40.0895364 50.1299083 42.4180132 50.7580428 45.3218543 50.9456881L51.9369536 51.413211C66.1144371 52.3546177 74.9690066 53.017737 78.5006623 53.3946177 89.7123179 54.5252599 97.8405298 57.5085015 102.883709 62.3427523 106.85245 66.1147401 109.219073 71.0444037 109.97404 77.1317431 110.415894 80.7733333 110.635232 84.893578 110.635232 89.4718043 110.635232 100.024465 109.629139 107.752905 107.613775 112.650765 103.961325 121.637064 95.7568212 127.312538 82.9907285 129.696269 77.6423841 130.704465 69.4601325 131.208563 58.4550993 131.208563 40.0847682 131.208563 27.2821192 130.114495 20.0535099 127.915229 11.181457 125.221407 5.33245033 119.763792 2.50172185 111.545566.925033113 106.97052.144635762 99.3518043.144635762 88.6862385L32.946755 88.6862385C32.946755 89.8757187 32.9499338 90.7853211 32.9499338 91.4118654 32.9499338 97.1032416 34.5854305 100.763914 37.8484768 102.393884 40.1101987 103.518165 42.8407947 104.108135 46.0513907 104.178104L58.1101987 104.178104C64.2643709 104.178104 68.1917881 103.863242 69.8860927 103.230336 72.9011921 102.044037 74.88 100.13419 75.8256954 97.4912538 76.327947 95.8644648 76.5774834 93.7590214 76.5774834 91.1828746 76.5774834 85.4119878 74.4715232 81.9007951 70.2675497 80.6413456 68.6956291 80.1436086 61.3811921 79.4502752 48.3258278 78.5708869 37.8421192 77.821896 30.5594702 77.1015291 26.4810596 76.4034251 15.741457 74.3933945 8.58437086 70.2604281 5.01298013 63.9854434 1.87390728 58.6534557.303576159 50.5862997.303576159 39.795107.303576159 31.5768807 1.15231788 24.9870336 2.84821192 20.0303364 4.54569536 15.0720489 7.2810596 11.3080122 11.055894 8.73345566 16.5854305 4.7817737 23.661457 2.46165138 32.2744371 1.76831804 39.4410596 1.14336391 47.3912583.823730887 56.1361589.823730887 69.9035762.823730887 79.7149669 1.61565749 85.5639735 3.18519878 99.8384106 7.02238532 106.974834 17.7706422 106.974834 35.4331498 106.974834 36.8818349 106.868344 39.0477064 106.656954 41.9434862M286.164238 66.9591437L308.145695 66.9591437C315.115232 66.7078899 319.354172 66.1719878 320.88 65.3323547 322.963709 64.1858104 324.362384 61.8911315 325.058543 58.448318 325.503576 56.1568196 325.726093 52.750581 325.726093 48.2248318 325.726093 42.6813456 325.284238 38.5722324 324.395762 35.8879511 323.127417 32.128685 320.090066 29.8387768 315.27894 29.0070948 314.328477 28.8814679 312.050861 28.8146789 308.442914 28.8146789L286.164238 28.8146789 286.164238 66.9591437zM250.904901 131.208563L250.904901.130397554 316.596556.130397554C325.606887.130397554 332.482649.866666667 337.206358 2.33761468 348.011126 5.72477064 355.260397 12.6596942 358.973245 23.1407951 360.890066 28.6413456 361.848477 36.9231804 361.848477 47.9815291 361.848477 61.2773089 360.785166 70.8329052 358.682384 76.6499083 354.468874 88.1535168 345.795497 94.7799388 332.698808 96.49737 331.158675 96.7549847 324.605563 96.9855657 313.03947 97.1700306L307.185695 97.3656269 286.164238 97.3656269 286.164238 131.208563 250.904901 131.208563 250.904901 131.208563zM430.111788 83.0187156L413.591523 26.1987768 397.559205 83.0187156 430.111788 83.0187156zM437.114702 108.554373L389.971391 108.554373 383.637616 131.208563 347.157616 131.208563 386.520795.130397554 439.708609.130397554 479.554967 131.208563 443.84106 131.208563 437.114702 108.554373 437.114702 108.554373z"/>
    <path fill="#F6BC25" d="M202.23894,18.5721101 C216.781987,18.5721101 229.76106,25.2748624 238.29298,35.7734557 L245.89351,19.4689908 C234.006358,8.22776758 217.827815,1.29761468 199.983576,1.29761468 C172.200795,1.29761468 148.434437,18.0855046 138.680265,41.8496636 L123.859073,41.8496636 L115.107815,60.6205505 L134.174305,60.6205505 C134.031258,62.3618349 133.939073,64.1047095 133.939073,65.8825688 C133.939073,68.0341284 134.050331,70.1602446 134.263311,72.2609174 L124.680795,72.2609174 L115.931126,91.0381651 L139.134834,91.0381651 C149.167152,114.201223 172.636291,130.462752 199.983576,130.462752 C213.765298,130.462752 226.553642,126.331376 237.142252,119.274006 L237.142252,96.2620183 C228.615099,105.975046 216.143046,112.113272 202.23894,112.113272 C185.985695,112.113272 171.689007,103.728073 163.363709,91.0381651 L211.953377,91.0381651 L220.703046,72.2609174 L156.21457,72.2609174 C155.882384,70.0012232 155.704371,67.6922324 155.704371,65.3403058 C155.704371,63.7500917 155.78702,62.1757798 155.939603,60.6205505 L226.126093,60.6205505 L234.875762,41.8496636 L162.009536,41.8496636 C170.067815,27.9352905 185.063841,18.5721101 202.23894,18.5721101"/>
    <path fill="#0B4A8E" d="M162.009536,42.4141896 L234.875762,42.4141896 L234.365563,41.6111315 L225.619073,60.3836086 L226.126093,60.0592049 L155.432583,60.0592049 L155.378543,60.5696636 C155.221192,62.1535168 155.141722,63.759633 155.141722,65.3403058 C155.141722,67.6620183 155.316556,70.021896 155.658278,72.3451988 L155.731391,72.8270336 L220.703046,72.8270336 L220.196026,72.0255657 L211.444768,90.7980428 L211.953377,90.4736391 L162.31947,90.4736391 L162.893245,91.341896 C171.649272,104.702875 186.359205,112.668257 202.23894,112.668257 C215.737748,112.668257 228.615099,106.827401 237.568212,96.6325382 L236.579603,96.2620183 L236.579603,119.274006 L236.82755,118.809664 C225.940132,126.06263 213.202649,129.898226 199.983576,129.898226 C173.613775,129.898226 149.933245,114.555841 139.65457,90.8107645 L139.505166,90.4736391 L115.931126,90.4736391 L116.446093,91.2782875 L125.192583,72.4994495 L124.680795,72.8270336 L134.883179,72.8270336 L134.821192,72.2036697 C134.609801,70.0823242 134.500132,67.9514373 134.500132,65.8825688 C134.500132,64.2907645 134.578013,62.5844648 134.735364,60.6698471 L134.784636,60.0592049 L115.107815,60.0592049 L115.614834,60.862263 L124.367682,42.0866055 L123.859073,42.4141896 L139.058543,42.4141896 L139.2,42.0643425 C144.015894,30.3317431 152.207682,20.3292966 162.885298,13.1303976 C173.821987,5.76134557 186.653245,1.8653211 199.983576,1.8653211 C217.055364,1.8653211 233.219603,8.25798165 245.505695,19.8760856 L245.380132,19.2272783 L237.784371,35.5365138 L238.730066,35.4188379 C229.73404,24.3541284 216.437086,18.0075841 202.23894,18.0075841 C185.537483,18.0075841 169.939073,27.0352294 161.518411,41.5681957 L161.028874,42.4141896 L162.009536,42.4141896 Z M202.23894,19.1350459 C216.096954,19.1350459 229.077616,25.3305199 237.854305,36.1296636 L238.421722,36.8277676 L238.806358,36.013578 L246.403709,19.7075229 L246.573775,19.3370031 L246.281325,19.0571254 C233.78702,7.24183486 217.344636,0.736269113 199.983576,0.736269113 C186.42755,0.736269113 173.381722,4.69908257 162.255894,12.1985321 C151.392318,19.5182875 143.060662,29.7004281 138.163709,41.6365749 L138.680265,41.2867278 L123.498278,41.2867278 L123.347285,41.6111315 L114.225695,61.1866667 L134.174305,61.1866667 L133.613245,60.5760245 C133.452715,62.5240367 133.376424,64.25737 133.376424,65.8825688 C133.376424,67.9896024 133.482914,70.1570642 133.700662,72.3165749 L134.263311,71.7011621 L124.324768,71.7011621 L124.173775,72.0255657 L115.420927,90.7980428 L115.050596,91.5995107 L139.134834,91.5995107 L138.619868,91.2592049 C149.079735,115.414557 173.167152,131.025688 199.983576,131.025688 C213.426755,131.025688 226.380397,127.126483 237.453775,119.744709 L237.703311,119.577737 L237.703311,94.7656269 L236.71947,95.8899083 C227.982517,105.839878 215.415099,111.545566 202.23894,111.545566 C186.737483,111.545566 172.380397,103.761468 163.832583,90.724893 L163.363709,91.5995107 L212.312583,91.5995107 L212.463576,91.2782875 L221.214834,72.4994495 L221.588344,71.7011621 L156.21457,71.7011621 L156.77404,72.1798165 C156.440265,69.9074006 156.268609,67.6079511 156.268609,65.3403058 C156.268609,63.796208 156.34649,62.2298471 156.502252,60.6777982 L155.939603,61.1866667 L226.490066,61.1866667 L226.637881,60.862263 L235.38755,42.0866055 L235.764238,41.2867278 L162.009536,41.2867278 L162.492715,42.1311315 C170.709934,27.946422 185.941192,19.1350459 202.23894,19.1350459 L202.23894,19.1350459 Z"/>
  </g>
</svg>
