<?xml version="1.0" encoding="UTF-8" standalone="no"?>
<svg
   width="51"
   height="32"
   viewBox="0 0 51 32"
   version="1.1"
   id="svg1181"
   sodipodi:docname="sepa-wc-51x32.svg"
   inkscape:version="1.3.2 (091e20e, 2023-11-25)"
   xmlns:inkscape="http://www.inkscape.org/namespaces/inkscape"
   xmlns:sodipodi="http://sodipodi.sourceforge.net/DTD/sodipodi-0.dtd"
   xmlns="http://www.w3.org/2000/svg"
   xmlns:svg="http://www.w3.org/2000/svg">
  <defs
     id="defs1185">
    <clipPath
       clipPathUnits="userSpaceOnUse"
       id="clipPath1294">
      <path
         d="M 0,0 H 595.276 V 841.89 H 0 Z"
         id="path1292" />
    </clipPath>
    <clipPath
       clipPathUnits="userSpaceOnUse"
       id="clipPath1326">
      <path
         d="M 0,0 H 595.276 V 841.89 H 0 Z"
         id="path1324" />
    </clipPath>
  </defs>
  <sodipodi:namedview
     id="namedview1183"
     pagecolor="#ffffff"
     bordercolor="#666666"
     borderopacity="1.0"
     inkscape:showpageshadow="2"
     inkscape:pageopacity="0.0"
     inkscape:pagecheckerboard="0"
     inkscape:deskcolor="#d1d1d1"
     showgrid="false"
     inkscape:zoom="7.375"
     inkscape:cx="21.220339"
     inkscape:cy="17.084746"
     inkscape:window-width="1384"
     inkscape:window-height="725"
     inkscape:window-x="415"
     inkscape:window-y="133"
     inkscape:window-maximized="0"
     inkscape:current-layer="g1179" />
  <g
     fill="none"
     fill-rule="evenodd"
     id="g1179">
    <rect
       width="50"
       height="31"
       x=".5"
       y=".5"
       fill="#FFF"
       stroke="#D0D0D0"
       id="rect1175" />
    <g
       id="g2"
       transform="matrix(0.28035063,0,0,0.28035063,-17.533243,7.7687194)">
      <path
         id="path24"
         d="m 123.92573,24.095524 h -7.28299 c 0,-1.195234 -0.14035,-1.997351 -0.41976,-2.405644 -0.43353,-0.604145 -1.62961,-0.906572 -3.58748,-0.906572 -1.90157,0 -3.16177,0.173974 -3.77701,0.522276 -0.6148,0.34936 -0.92259,1.109131 -0.92259,2.278957 0,1.05902 0.27265,1.756329 0.81895,2.090515 0.39108,0.237142 0.90841,0.376533 1.55272,0.418174 l 1.46889,0.103749 c 3.14775,0.20891 5.11373,0.356065 5.89766,0.439699 2.4895,0.250904 4.29414,0.912925 5.41385,1.985707 0.88117,0.837053 1.40661,1.931009 1.57424,3.281691 0.0981,0.808187 0.1468,1.722804 0.1468,2.738772 0,2.341595 -0.22338,4.056706 -0.67084,5.143463 -0.81094,1.994247 -2.63255,3.253778 -5.46702,3.782689 -1.18755,0.223731 -3.00408,0.335667 -5.44745,0.335667 -4.07891,0 -6.92132,-0.242893 -8.52612,-0.730868 -1.96982,-0.597864 -3.26835,-1.80898 -3.89694,-3.63271 -0.35015,-1.015227 -0.52356,-2.705918 -0.52356,-5.072639 h 7.2829 c 0,0.263997 9.9e-4,0.465531 9.9e-4,0.604746 0,1.262955 0.36294,2.07527 1.08774,2.436981 0.50202,0.249528 1.10828,0.380485 1.8208,0.396048 h 2.67769 c 1.36607,0 2.23837,-0.06987 2.61427,-0.210357 0.66967,-0.263291 1.10899,-0.68704 1.31892,-1.273577 0.11165,-0.361006 0.16681,-0.828301 0.16681,-1.400087 0,-1.280635 -0.4673,-2.059743 -1.40079,-2.339301 -0.34918,-0.110278 -1.97305,-0.264244 -4.87153,-0.459285 -2.32797,-0.166105 -3.94491,-0.326 -4.85032,-0.480953 -2.38433,-0.445946 -3.97328,-1.363245 -4.76633,-2.755745 -0.69724,-1.183237 -1.04558,-2.973443 -1.04558,-5.368148 0,-1.823731 0.18817,-3.286103 0.56491,-4.386058 0.37699,-1.100308 0.98424,-1.935596 1.82235,-2.50657 1.22778,-0.877283 2.79856,-1.392148 4.71093,-1.546007 1.59128,-0.138686 3.35658,-0.209617 5.298,-0.209617 3.05679,0 5.23518,0.175739 6.5337,0.524041 3.1693,0.851521 4.75377,3.236698 4.75377,7.156236 0,0.321482 -0.0236,0.802117 -0.0705,1.444727"
         style="fill:#10298f;fill-opacity:1;fill-rule:nonzero;stroke:none;stroke-width:0.0352889" />
      <path
         id="path25"
         d="m 163.78101,29.646822 h 4.88046 c 1.54742,-0.05576 2.48858,-0.17468 2.82734,-0.361006 0.46265,-0.25408 0.77319,-0.763652 0.92776,-1.527656 0.0988,-0.508514 0.1482,-1.264754 0.1482,-2.26837 0,-1.230877 -0.0981,-2.142743 -0.29536,-2.738066 -0.28161,-0.83423 -0.95598,-1.34239 -2.02417,-1.526951 -0.21104,-0.02788 -0.71672,-0.0427 -1.51778,-0.0427 h -4.94645 z m -7.82848,14.257845 V 14.816661 h 14.58525 c 2.00053,0 3.52712,0.163387 4.57592,0.48981 2.39893,0.751653 4.00846,2.290602 4.83281,4.616494 0.42558,1.220643 0.63838,3.058489 0.63838,5.51248 0,2.950504 -0.23608,5.071015 -0.70296,6.362095 -0.93551,2.552657 -2.86122,4.023181 -5.76903,4.404196 -0.34195,0.0572 -1.79691,0.108372 -4.36489,0.149307 l -1.29969,0.0434 h -4.66731 v 7.510221 h -7.82848"
         style="fill:#10298f;fill-opacity:1;fill-rule:nonzero;stroke:none;stroke-width:0.0352889" />
      <path
         id="path26"
         d="M 195.74112,33.210613 192.07319,20.60157 188.5136,33.210613 Z m 1.55483,5.666762 h -10.46704 l -1.40627,5.027292 h -8.09951 l 8.73965,-29.088006 h 11.80908 l 8.84693,29.088006 h -7.92942 l -1.49342,-5.027292"
         style="fill:#10298f;fill-opacity:1;fill-rule:nonzero;stroke:none;stroke-width:0.0352889" />
      <path
         id="path27"
         d="m 145.14742,18.909115 c 3.22893,0 6.11063,1.487428 8.00493,3.817201 l 1.68752,-3.618172 c -2.63926,-2.494572 -6.23132,-4.032462 -10.19321,-4.032462 -6.16849,0 -11.44524,3.725449 -13.61093,8.999023 h -3.29068 l -1.94301,4.165502 h 4.23326 c -0.0318,0.386412 -0.0522,0.773179 -0.0522,1.167709 0,0.477459 0.0247,0.949272 0.072,1.415438 h -2.12756 l -1.94265,4.166843 h 5.15183 c 2.22743,5.140181 7.43819,8.748895 13.50999,8.748895 3.05991,0 5.89925,-0.916806 8.2502,-2.482892 v -5.106692 c -1.89325,2.155517 -4.66237,3.517598 -7.74944,3.517598 -3.60865,0 -6.78289,-1.86082 -8.63132,-4.676909 h 10.78817 l 1.94266,-4.166843 h -14.31812 c -0.0737,-0.501455 -0.11327,-1.01385 -0.11327,-1.535773 0,-0.35289 0.0183,-0.70225 0.0522,-1.047374 h 15.58322 l 1.94265,-4.165502 h -16.17818 c 1.78914,-3.087779 5.11865,-5.16559 8.93197,-5.16559"
         style="fill:#fbbc09;fill-opacity:1;fill-rule:nonzero;stroke:none;stroke-width:0.0352889" />
      <path
         id="path28"
         d="m 136.21545,24.199627 h 16.17818 l -0.11327,-0.177856 -1.94194,4.165855 0.11256,-0.07199 h -15.58322 -0.11257 l -0.012,0.113278 c -0.0349,0.351478 -0.0526,0.707895 -0.0526,1.058667 0,0.515571 0.0388,1.038905 0.11469,1.554829 l 0.0162,0.106219 h 0.10728 14.31812 l -0.11257,-0.177503 -1.94301,4.165996 0.11292,-0.07209 h -10.78817 -0.23184 l 0.12739,0.192713 c 1.94406,2.964974 5.21005,4.732595 8.73577,4.732595 2.99709,0 5.85619,-1.296197 7.84401,-3.558534 l -0.2195,-0.0823 v 5.106692 l 0.055,-0.103114 c -2.41729,1.609491 -5.24534,2.460695 -8.18033,2.460695 -5.85477,0 -11.11247,-3.404673 -13.3946,-8.673906 l -0.0332,-0.07484 h -0.0822 -5.15183 l 0.11434,0.178527 1.94194,-4.167267 -0.11363,0.07234 h 2.12756 0.13764 l -0.0138,-0.137979 c -0.0469,-0.470754 -0.0713,-0.943626 -0.0713,-1.402734 0,-0.353242 0.0173,-0.731892 0.0522,-1.15677 l 0.0109,-0.13551 h -0.13551 -4.23326 l 0.11257,0.178209 1.94336,-4.166561 -0.11292,0.07234 h 3.29068 0.084 l 0.0314,-0.07728 c 1.06926,-2.603616 2.88805,-4.823287 5.25876,-6.420817 2.42822,-1.635287 5.2771,-2.499865 8.23677,-2.499865 3.79039,0 7.37927,1.418613 10.1071,3.996821 l -0.0279,-0.143978 -1.68645,3.619229 0.20996,-0.02612 c -1.99734,-2.455402 -4.94962,-3.863782 -8.10197,-3.863782 -3.70816,0 -7.17141,2.003352 -9.04102,5.228404 l -0.10869,0.187384 z m 8.93197,-5.165942 c 3.07684,0 5.95888,1.375208 7.90753,3.771678 l 0.12598,0.154918 0.0854,-0.180679 1.68681,-3.618525 0.0377,-0.08187 -0.0649,-0.06246 c -2.77406,-2.621966 -6.42469,-4.065987 -10.27931,-4.065987 -3.00979,0 -5.9063,0.879753 -8.37652,2.543977 -2.412,1.624348 -4.26184,3.883896 -5.34909,6.532681 l 0.11468,-0.07798 h -3.29068 -0.0801 l -0.0335,0.07234 -1.9423,4.165855 -0.0829,0.178209 h 0.19586 4.23326 l -0.12457,-0.13551 c -0.0356,0.43229 -0.0526,0.816586 -0.0526,1.177591 0,0.467578 0.0236,0.948565 0.072,1.427789 l 0.12491,-0.136569 h -2.12756 -0.079 l -0.0335,0.07199 -1.94336,4.165996 -0.0822,0.177821 h 0.1955 5.15183 l -0.11434,-0.07551 c 2.32236,5.360315 7.6704,8.824555 13.62433,8.824555 2.98474,0 5.86079,-0.865248 8.31937,-2.503288 l 0.0554,-0.03709 v -0.0674 -5.106692 -0.331927 l -0.21844,0.249492 c -1.93983,2.207885 -4.73013,3.474016 -7.65557,3.474016 -3.44173,0 -6.62938,-1.727356 -8.52722,-4.620235 l -0.1041,0.194089 h 10.78817 0.0797 l 0.0335,-0.07139 1.943,-4.167267 0.0829,-0.177151 h -0.19656 -14.31812 l 0.12422,0.106221 c -0.0741,-0.504279 -0.11223,-1.014557 -0.11223,-1.517776 0,-0.342655 0.0173,-0.690604 0.0519,-1.03467 l -0.12492,0.112924 h 15.58322 0.0808 l 0.0328,-0.07199 1.94265,-4.166561 0.0836,-0.177856 h -0.19728 -16.17818 l 0.10727,0.188091 c 1.82444,-3.148124 5.20617,-5.103834 8.8247,-5.103834"
         style="fill:#10298f;fill-opacity:1;fill-rule:nonzero;stroke:none;stroke-width:0.0352889" />
    </g>
  </g>
</svg>
