<svg height="360" viewBox="0 0 640 360" width="640" xmlns="http://www.w3.org/2000/svg"><g fill="none" fill-rule="evenodd" transform="translate(80 94)"><g fill="#0b4a8e"><path d="m.27178808 157.203792 4.91761589-.496147c.29562914 1.658594.89642384 2.875107 1.80079471 3.654312.90596026.777615 2.12662251 1.165627 3.66357612 1.165627 1.6275497 0 2.8529802-.345076 3.6794702-1.035229.8249007-.691743 1.2365563-1.499572 1.2365563-2.425077 0-.59315-.173245-1.097247-.5181457-1.515474-.34649-.416636-.9504635-.777614-1.8135099-1.087706-.5912583-.201957-1.935894-.564526-4.03549669-1.086116-2.70357616-.66789-4.5981457-1.491621-5.68847682-2.469603-1.53218544-1.373945-2.29827815-3.05003-2.29827815-5.028257 0-1.270581.3607947-2.461651 1.08397351-3.56844.7215894-1.108379 1.76423841-1.952783 3.12317881-2.531621 1.3605298-.578838 3.0023841-.869847 4.92556294-.869847 3.1406622 0 5.5041059.691743 7.0919205 2.072049 1.5878146 1.381896 2.4206623 3.224954 2.5001325 5.530765l-5.0654305.198776c-.216159-1.288073-.6802649-2.213578-1.3923179-2.779694-.7104636-.564526-1.7769536-.847584-3.1994702-.847584-1.46860926 0-2.61615893.302141-3.44741721.906422-.53562914.386422-.80264901.904832-.80264901 1.553639 0 .59315.25112583 1.098838.75178808 1.521835.63576159.534312 2.18225166 1.092477 4.63947024 1.669725 2.4556291.578838 4.2723178 1.178348 5.4500662 1.801712 1.1761589.621774 2.0980132 1.472539 2.7639735 2.550704.6643709 1.081345.9981457 2.413945.9981457 4.000978 0 1.440734-.3989404 2.787646-1.1968212 4.043915s-1.9247682 2.189724-3.3822517 2.800367c-1.4574834.610642-3.2741721.917553-5.4500662.917553-3.1660927 0-5.59788078-.736269-7.29536422-2.208807-1.69589404-1.472538-2.70993377-3.617737-3.0405298-6.438777m25.61483442 8.199144h4.8174835v-18.137982h-4.8174835zm0-20.621896h4.8174835v-4.423976h-4.8174835zm27.3027815 20.621896h-4.8174835v-9.277309c0-1.962324-.1033112-3.231315-.3067549-3.806973-.2050331-.575657-.5356292-1.025688-.9949669-1.345321-.4593378-.318042-1.0124504-.478654-1.6577484-.478654-.8280794 0-1.5703311.228991-2.2283443.685382-.6580133.456392-1.1078146 1.060673-1.3509934 1.814434-.2447682.752172-.3655629 2.143609-.3655629 4.175903v8.232538h-4.8174835v-18.137982h4.469404v2.665199c1.581457-2.075229 3.5745695-3.112049 5.9745695-3.112049 1.0585431 0 2.0264901.192416 2.9022517.574067.8757616.381652 1.538543.869847 1.9883444 1.462997.4498013.59315.7629139 1.265811.9393377 2.019572.1764239.752171.2654305 1.830336.2654305 3.232905zm9.7430463-9.460184c0 1.93052.3687418 3.34422 1.109404 4.239511.7390729.898471 1.6513907 1.345321 2.7369536 1.345321 1.1618544 0 2.144106-.459572 2.946755-1.378715.8010596-.919144 1.2031788-2.281958 1.2031788-4.086851 0-1.882813-.3846357-3.282201-1.1523179-4.196575-.7692715-.912782-1.7388079-1.370764-2.9133774-1.370764-1.1411921 0-2.0821192.45003-2.8211921 1.345321-.7406622.898471-1.109404 2.264465-1.109404 4.102752zm-4.3215894 10.652844 5.4627815.596331c.0921854.675841.3035761 1.140183.6341722 1.394617.4577483.362569 1.1777483.543854 2.16.543854 1.2572185 0 2.1997351-.187646 2.829139-.562936.4211921-.251254.7422517-.655168.96-1.213334.1478146-.400734.2225166-1.133822.2225166-2.205626l.0143046-2.647707c-1.4209271 1.935291-3.2233112 2.902141-5.4103311 2.902141-2.4397351 0-4.3692715-1.030459-5.7933775-3.096147-1.117351-1.63156-1.6752318-3.663853-1.6752318-6.0937 0-3.04685.7311259-5.373334 2.1949669-6.98263 1.4638411-1.607707 3.285298-2.412355 5.4611921-2.412355 2.2442384 0 4.095894.987523 5.5549669 2.959388v-2.512538h4.4709933v16.304465c0 2.145199-.1764238 3.748135-.5308609 4.807217-.3528477 1.062263-.8487417 1.893945-1.4876821 2.498226-.6389404.604282-1.4908609 1.078166-2.557351 1.420062s-2.4143046.513639-4.0434437.513639c-3.0786755 0-5.2625166-.531132-6.5515232-1.591805-1.2890066-1.060672-1.9327152-2.405993-1.9327152-4.035963 0-.160612.0063576-.354618.0174834-.585199z"/><path d="m81.466 165.403h4.818v-25.046h-4.818z"/><path d="m103.056954 154.818471c-.033378-1.41211-.394173-2.483914-1.082384-3.220184-.686623-.734678-1.522649-1.103608-2.5080799-1.103608-1.0537749 0-1.9247682.389602-2.6113908 1.164037-.6882119.774434-1.0251655 1.828746-1.0140397 3.159755zm-.247947 4.870826 4.768212.795107c-.616689 1.747645-1.590994 3.080244-2.921325 3.994617-1.330331.915964-2.996026 1.372355-4.9939072 1.372355-3.1645034 0-5.5056954-1.035229-7.0235762-3.104098-1.2-1.657003-1.7992053-3.748134-1.7992053-6.276575 0-3.015046.786755-5.379694 2.3634437-7.089174 1.5750993-1.70948 3.5666225-2.563425 5.9745695-2.563425 2.7067555 0 4.8413245.896881 6.4052985 2.689052 1.563973 1.795352 2.310993 4.541651 2.242649 8.24367h-12.0683448c.0333775 1.428012.4243709 2.537981 1.1713907 3.333088.7470199.791927 1.6784106 1.18948 2.7941722 1.18948.7581459 0 1.3970859-.203547 1.9136419-.612232.516557-.407095.90914-1.065443 1.172981-1.971865z"/><path d="m123.589 165.403v-25.046h18.528v4.225h-13.461v5.566h12.516v4.224h-12.516v6.807h13.956v4.224z"/><path d="m159.832053 165.402936v-2.716086c-.662781.968441-1.532185 1.738104-2.611391 2.308991-1.079205.569297-2.217218.855535-3.415629.855535-1.222252 0-2.315761-.268746-3.286887-.804648-.969537-.535902-1.672053-1.289664-2.105961-2.258104-.433907-.970031-.650066-2.310581-.650066-4.021652v-11.502018h4.817484v8.342263c0 2.553884.087417 4.118655.26543 4.692722.176424.578838.497484 1.033639.964768 1.370764.467285.335536 1.058543.502508 1.776954.502508.820132 0 1.556026-.22263 2.204503-.674251.650067-.45003 1.09351-1.008195 1.33351-1.676085.238411-.6663.359206-2.29945.359206-4.89786v-7.660061h4.817483v18.137982zm15.056424 0h-4.817484v-18.137982h4.469404v2.579327c.764504-1.218104 1.451126-2.025932 2.061457-2.426666.610331-.399144 1.301722-.599511 2.077351-.599511 1.09351 0 2.148874.303731 3.162914.909602l-1.46543 4.199756c-.810596-.523181-1.567153-.785566-2.263312-.785566-.675496 0-1.246092.186055-1.714966.554985-.468875.37211-.837616 1.04159-1.106226 2.01003-.268609.968441-.403708 2.999144-.403708 6.08734zm13.81351-9.068991c0 1.808073.427549 3.189969 1.284238 4.150459.856689.960489 1.912053 1.440734 3.169272 1.440734 1.255629 0 2.309404-.480245 3.159735-1.440734.850331-.96049 1.276291-2.355107 1.276291-4.183854 0-1.78263-.42596-3.156574-1.276291-4.115474-.850331-.960489-1.904106-1.440733-3.159735-1.440733-1.257219 0-2.312583.480244-3.169272 1.440733-.856689.9589-1.284238 2.343976-1.284238 4.148869zm-4.917616-.257615c0-1.599755.392583-3.148624 1.179338-4.646605.785165-1.496392 1.897748-2.639756 3.339337-3.428502 1.44-.788746 3.050067-1.183119 4.82702-1.183119 2.744901 0 4.993908.8937 6.748609 2.682691 1.753113 1.788991 2.630464 4.050275 2.630464 6.782263 0 2.754251-.886887 5.039388-2.657483 6.850642s-4.00053 2.717676-6.688212 2.717676c-1.662517 0-3.248742-.378471-4.757086-1.130642-1.509934-.755352-2.657484-1.860551-3.442649-3.318777-.786755-1.458226-1.179338-3.231315-1.179338-5.325627zm39.479205-11.494067v7.155963h2.759205c1.986755 0 3.315497-.130397 3.986226-.394373.669139-.263975 1.195231-.677431 1.575099-1.240367.379868-.561345.570596-1.214923.570596-1.960734 0-.917553-.26702-1.674495-.80106-2.270825-.534039-.596331-1.209536-.968441-2.02649-1.117921-.602384-.114495-1.810331-.171743-3.628609-.171743zm-5.06543 20.820673v-25.045872h8.109139c3.072318 0 5.076556.127217 6.009536.376881 1.433643.37529 2.633643 1.194251 3.60159 2.4537.967947 1.25786 1.451125 2.884649 1.451125 4.878777 0 1.537737-.278145 2.828991-.836026 3.880122-.556291 1.046361-1.265166 1.870092-2.123444 2.468013-.858278.59951-1.730861.993883-2.617748 1.187889-1.206358.240123-2.951523.359389-5.235497.359389h-3.293245v9.441101zm34.305695-8.695291c-.615099.206728-1.586225.451621-2.914967.73786-1.328742.284648-2.198146.566116-2.605033.839633-.626225.44685-.936159 1.012966-.936159 1.698348 0 .675841.247947 1.25786.74702 1.750826.500662.491376 1.136424.737859 1.910464.737859.863046 0 1.684768-.286238 2.469933-.857125.578543-.435719.96-.96685 1.141192-1.596575.123974-.411865.18755-1.195841.18755-2.351927zm-6.456159-3.926238-4.321589-.795107c.489536-1.757187 1.33192-3.056392 2.527152-3.900795 1.196821-.844404 2.973775-1.267401 5.330861-1.267401 2.140927 0 3.736689.254434 4.784106.760122 1.047417.510459 1.78649 1.154496 2.21245 1.935291.42755.780795.642119 2.216758.642119 4.304709l-.049271 5.613456c0 1.596575.076291 2.776514.228874 3.533456.154172.758532.441854 1.571131.863046 2.437798h-4.768211c-.127153-.313272-.279736-.779205-.462517-1.396208-.07947-.281468-.136689-.465933-.168477-.556575-.820132.799878-1.695894 1.400978-2.628874 1.801712-.93298.399144-1.926358.599511-2.984901.599511-1.86596 0-3.337748-.508868-4.412185-1.523425-1.074437-1.016147-1.611656-2.30104-1.611656-3.853089 0-1.025688.244768-1.941651.732716-2.746299.491125-.804649 1.177748-1.421652 2.059867-1.849419.883709-.426178 2.156821-.803058 3.819338-1.122691 2.242649-.421407 3.797086-.81419 4.663311-1.179939v-.485016c0-.935045-.228874-1.601345-.686622-2.000489-.459338-.397553-1.322385-.59633-2.593908-.59633-.858278 0-1.527417.170153-2.009006.507278-.48159.338716-.870994.931866-1.166623 1.77945zm14.633643-5.516453h5.114701l4.34702 12.877554 4.246888-12.877554h4.966887l-7.556026 20.645749c-.422782 1.062263-.824901 1.871682-1.206358 2.431438-.381457.558165-.821722 1.012966-1.317616 1.359633-.497483.348257-1.104636.621773-1.829404.814189-.724768.195597-1.543311.2926-2.455629.2926-.923444 0-1.832583-.097003-2.72106-.291009l-.448211-3.760857c.754966.151071 1.43841.22422 2.043973.22422 1.123709 0 1.951788-.332354 2.490596-.993883.538808-.66471.950464-1.509114 1.236556-2.533211zm22.432847 0h4.420133v2.477554c1.587814-1.949603 3.477616-2.924404 5.670993-2.924404 1.163444 0 2.174305.238532 3.030993.717187.856689.480244 1.559206 1.205382 2.105961 2.173822.79788-.96844 1.660927-1.693578 2.582781-2.173822.925033-.478655 1.908874-.717187 2.957881-.717187 1.335099 0 2.463576.270336 3.38702.81419.923443.539082 1.614834 1.335779 2.070993 2.386911.329007.774434.494305 2.029113.494305 3.764037v11.619694h-4.817484v-10.388869c0-1.803302-.165298-2.965749-.494304-3.49052-.445033-.686972-1.126888-1.028868-2.047153-1.028868-.672317 0-1.3049.205138-1.896159.617003-.591258.411865-1.017218 1.012966-1.27788 1.806483-.262252.791927-.394173 2.045015-.394173 3.756086v8.728685h-4.817483v-9.959511c0-1.771498-.084238-2.910092-.255894-3.425321-.170066-.513639-.433907-.895291-.793113-1.146544-.359205-.249664-.843973-.376881-1.459072-.376881-.739073 0-1.405034.200367-1.996292.599511-.591258.399143-1.01404.976391-1.271523 1.728562-.255894.753762-.383046 2.00208-.383046 3.748135v8.832049h-4.817484zm43.316027 7.553517c-.034967-1.41211-.394173-2.483914-1.083974-3.220184-.685033-.734678-1.522649-1.103608-2.508079-1.103608-1.052186 0-1.924769.389602-2.609802 1.164037-.688212.774434-1.025165 1.828746-1.014039 3.159755zm-.247947 4.870826 4.768212.795107c-.618279 1.747645-1.590994 3.080244-2.921325 3.994617-1.33192.915964-2.996026 1.372355-4.995497 1.372355-3.162914 0-5.504106-1.035229-7.023576-3.104098-1.2-1.657003-1.799205-3.748134-1.799205-6.276575 0-3.015046.789934-5.379694 2.363444-7.089174 1.576688-1.70948 3.566622-2.563425 5.976159-2.563425 2.706755 0 4.839735.896881 6.403708 2.689052 1.563974 1.795352 2.312583 4.541651 2.244239 8.24367h-12.069934c.034967 1.428012.42596 2.537981 1.17298 3.333088.74543.791927 1.676821 1.18948 2.794172 1.18948.758146 0 1.395497-.203547 1.912053-.612232.519735-.407095.910729-1.065443 1.17457-1.971865zm26.455629 5.713639h-4.817484v-9.277309c0-1.962324-.103311-3.231315-.305165-3.806973-.205033-.575657-.537219-1.025688-.996557-1.345321-.459337-.318042-1.01245-.478654-1.657748-.478654-.82649 0-1.570331.228991-2.226755.685382-.658013.456392-1.107814 1.060673-1.352583 1.814434-.243178.752172-.365563 2.143609-.365563 4.175903v8.232538h-4.817483v-18.137982h4.469404v2.665199c1.583046-2.075229 3.57457-3.112049 5.97457-3.112049 1.058543 0 2.028079.192416 2.902251.574067.875762.381652 1.540133.869847 1.989934 1.462997s.761324 1.265811.937748 2.019572c.178014.752171.265431 1.830336.265431 3.232905zm14.21404-18.137982v3.826055h-3.278941v7.338838c0 1.48526.030199 2.351927.092186 2.59682.060397.246483.200264.44844.418013.609052.219338.159021.483179.240122.796291.240122.438676 0 1.06808-.154251 1.897749-.461162l.421192 3.71792c-1.110994.478655-2.368212.718777-3.771656.718777-.863046 0-1.637086-.1463-2.328477-.437309-.689801-.289419-1.196821-.66789-1.521059-1.130642-.322649-.461162-.545166-1.086116-.66914-1.873272-.103311-.559755-.152582-1.690398-.152582-3.390336v-7.928808h-2.185431v-3.826055h2.185431v-3.627278l4.817483-2.832171v6.459449zm2.709933 13.020673 4.817484-.74581c.205033.927094.619867 1.629969 1.244503 2.111804.626225.481835 1.500397.720367 2.625695.720367 1.241325 0 2.174305-.228991 2.798941-.686973.421192-.322813.632583-.750581.632583-1.291254 0-.365749-.116027-.67107-.344901-.909602-.241589-.230581-.778808-.442079-1.614834-.637676-3.892451-.860306-6.360795-1.644281-7.400265-2.351926-1.443179-.981163-2.163179-2.347156-2.163179-4.091621 0-1.577493.621457-2.902141 1.869139-3.973945 1.249271-1.073395 3.183576-1.610887 5.804503-1.610887 2.495364 0 4.348609.402324 5.562914 1.205382 1.212715.804649 2.048742 1.992538 2.50808 3.56526l-4.520265.844404c-.195497-.704465-.567418-1.246728-1.114173-1.622019-.548344-.37688-1.328741-.564525-2.341192-.564525-1.27788 0-2.194966.176513-2.74649.534311-.370331.251254-.553112.577248-.553112.977982 0 .345077.15894.637676.48.879388.433907.319633 1.935894.772844 4.502781 1.358043 2.566888.585199 4.359735 1.300795 5.378543 2.148379 1.004504.858716 1.509934 2.056147 1.509934 3.590704 0 1.671315-.696159 3.108868-2.083709 4.31107-1.390728 1.203792-3.444238 1.804893-6.165298 1.804893-2.468344 0-4.423311-.500917-5.863311-1.497982-1.44-1.000244-2.380927-2.353516-2.824371-4.067767m46.256424-4.770642-3.499867-9.293211-3.382252 9.293211zm9.290066 9.887951h-5.454834l-2.164768-5.664343h-10.089537l-2.063046 5.664343h-5.36106l9.696954-25.045872h5.327682zm8.271259 0h-4.817484v-18.137982h4.469404v2.579327c.764503-1.218104 1.449537-2.025932 2.061457-2.426666.608742-.399144 1.300133-.599511 2.077351-.599511 1.09351 0 2.147285.303731 3.162914.909602l-1.46543 4.199756c-.812186-.523181-1.567153-.785566-2.263312-.785566-.677086 0-1.247682.186055-1.716556.554985-.468874.37211-.837616 1.04159-1.104636 2.01003-.270198.968441-.403708 2.999144-.403708 6.08734zm20.865695-10.584465c-.034967-1.41211-.395762-2.483914-1.082384-3.220184-.688212-.734678-1.524239-1.103608-2.50808-1.103608-1.055364 0-1.924768.389602-2.61139 1.164037-.688212.774434-1.026755 1.828746-1.01404 3.159755zm-.247947 4.870826 4.768212.795107c-.616689 1.747645-1.590993 3.080244-2.921325 3.994617-1.330331.915964-2.996026 1.372355-4.993907 1.372355-3.164503 0-5.507285-1.035229-7.025165-3.104098-1.2-1.657003-1.799206-3.748134-1.799206-6.276575 0-3.015046.788345-5.379694 2.365033-7.089174 1.57351-1.70948 3.566623-2.563425 5.97457-2.563425 2.705165 0 4.839735.896881 6.405298 2.689052 1.562384 1.795352 2.310993 4.541651 2.242649 8.24367h-12.069934c.034967 1.428012.42596 2.537981 1.171391 3.333088.748609.791927 1.68 1.18948 2.794172 1.18948.759735 0 1.397086-.203547 1.915232-.612232.516556-.407095.90755-1.065443 1.17298-1.971865zm19.948609-2.981652c-.61351.206728-1.586225.451621-2.914967.73786-1.328741.284648-2.196556.566116-2.605033.839633-.626225.44685-.936159 1.012966-.936159 1.698348 0 .675841.247947 1.25786.74861 1.750826.499072.491376 1.134834.737859 1.908874.737859.863046 0 1.684768-.286238 2.469934-.857125.578543-.435719.96-.96685 1.141192-1.596575.123973-.411865.187549-1.195841.187549-2.351927zm-6.456159-3.926238-4.321589-.795107c.489536-1.757187 1.33192-3.056392 2.527152-3.900795 1.196821-.844404 2.973775-1.267401 5.330861-1.267401 2.140927 0 3.736689.254434 4.784106.760122 1.047417.510459 1.78649 1.154496 2.21245 1.935291.42755.780795.64212 2.216758.64212 4.304709l-.049272 5.613456c0 1.596575.076292 2.776514.228874 3.533456.154172.758532.441855 1.571131.861457 2.437798h-4.766622c-.127153-.313272-.278146-.779205-.462517-1.396208-.077881-.281468-.136689-.465933-.168477-.556575-.820132.799878-1.694304 1.400978-2.627284 1.801712-.932981.399144-1.927947.599511-2.98649.599511-1.865961 0-3.337749-.508868-4.412186-1.523425-1.072848-1.016147-1.610066-2.30104-1.610066-3.853089 0-1.025688.243179-1.941651.732715-2.746299.489537-.804649 1.176159-1.421652 2.058278-1.849419.883709-.426178 2.156821-.803058 3.819338-1.122691 2.242649-.421407 3.797086-.81419 4.663311-1.179939v-.485016c0-.935045-.228874-1.601345-.686622-2.000489-.457749-.397553-1.322384-.59633-2.593908-.59633-.858278 0-1.527417.170153-2.009006.507278-.48.338716-.870994.931866-1.166623 1.77945zm-360.832847-110.8379208h-32.8021196c0-5.386055-.6325827-9.0006116-1.8913907-10.8404893-1.9517881-2.7224464-7.3398675-4.0852599-16.1578808-4.0852599-8.5637086 0-14.2410596.7839755-17.0113907 2.3535168-2.7687417 1.5743119-4.154702 4.9980428-4.154702 10.2696025 0 4.7722324 1.2270199 7.9144954 3.6874172 9.4204281 1.762649 1.0686239 4.0911258 1.6967584 6.9949669 1.8844037l6.6150993.4675229c14.1774835.9414067 23.032053 1.604526 26.5637087 1.9814067 11.2116556 1.1306422 19.3398675 4.1138838 24.3830467 8.9481346 3.968741 3.7719878 6.335364 8.7016514 7.090331 14.7889908.441854 3.6415902.661192 7.7618349.661192 12.3400612 0 10.5526607-1.006093 18.2811007-3.021457 23.1789607-3.65245 8.986299-11.8569538 14.661773-24.6230465 17.045504-5.3483444 1.008196-13.530596 1.512294-24.5356292 1.512294-18.3703311 0-31.1729801-1.094068-38.4015894-3.293334-8.8720529-2.693822-14.72105957-8.151437-17.55178805-16.369663-1.57668874-4.575046-2.35708609-12.1937617-2.35708609-22.8593275h32.80211924c0 1.1894802.0031788 2.0990826.0031788 2.7256269 0 5.6913762 1.6354967 9.3520486 4.898543 10.9820186 2.2617219 1.124281 4.9923179 1.714251 8.2029139 1.78422h12.058808c6.1541722 0 10.0815894-.314862 11.775894-.947768 3.0150994-1.186299 4.9939073-3.096146 5.9396027-5.7390822.5022516-1.626789.751788-3.7322324.751788-6.3083792 0-5.7708868-2.1059602-9.2820795-6.3099337-10.541529-1.5719206-.497737-8.8863576-1.1910704-21.9417219-2.0704587-10.4837086-.7489909-17.7663576-1.4693578-21.8447682-2.1674618-10.7396026-2.0100306-17.89668874-6.142997-21.46807947-12.4179817-3.13907285-5.3319877-4.70940397-13.3991437-4.70940397-24.1903364 0-8.2182263.84874172-14.8080734 2.54463576-19.7647706 1.69748344-4.9582875 4.43284768-8.7223242 8.20768208-11.29688074 5.5295365-3.95168196 12.605563-6.27180428 21.2185431-6.96513762 7.1666225-.62495413 15.1168212-.94458715 23.8617218-.94458715 13.7674173 0 23.578808.7919266 29.4278146 2.36146789 14.2744371 3.83718654 21.4108605 14.58544342 21.4108605 32.24795102 0 1.4486851-.10649 3.6145566-.31788 6.5103364m179.507284 25.0156575h21.981457c6.969537-.2512538 11.208477-.7871559 12.734305-1.626789 2.083709-1.1465443 3.482384-3.4412232 4.178543-6.8840367.445033-2.2914984.66755-5.697737.66755-10.2234862 0-5.5434862-.441855-9.6525994-1.330331-12.3368807-1.268345-3.7592661-4.305696-6.0491743-9.116822-6.8808563-.950463-.1256269-3.228079-.1924159-6.836026-.1924159h-22.278676zm-35.259337 64.2494193v-131.07816545h65.691655c9.010331 0 15.886093.73626912 20.609802 2.20721713 10.804768 3.38715596 18.054039 10.32207952 21.766887 20.80318042 1.916821 5.5005505 2.875232 13.7823853 2.875232 24.840734 0 13.2957798-1.063311 22.8513761-3.166093 28.6683792-4.21351 11.5036085-12.886887 18.1300305-25.983576 19.8474617-1.540133.2576147-8.093245.4881957-19.659338.6726606l-5.853775.1955963h-21.021457v33.8429361zm179.206887-48.1898474-16.520265-56.8199388-16.032318 56.8199388zm7.002914 25.5356574h-47.143311l-6.333775 22.65419h-36.48l39.363179-131.07816545h53.187814l39.846358 131.07816545h-35.713907z"/></g><path d="m202.23894 18.5721101c14.543047 0 27.52212 6.7027523 36.05404 17.2013456l7.60053-16.3044649c-11.887152-11.24122322-28.065695-18.17137612-45.909934-18.17137612-27.782781 0-51.549139 16.78788992-61.303311 40.55204892h-14.821192l-8.751258 18.7708869h19.06649c-.143047 1.7412844-.235232 3.484159-.235232 5.2620183 0 2.1515596.111258 4.2776758.324238 6.3783486h-9.582516l-8.749669 18.7772477h23.203708c10.032318 23.1630579 33.501457 39.4245869 60.848742 39.4245869 13.781722 0 26.570066-4.131376 37.158676-11.188746v-23.0119877c-8.527153 9.7130277-20.999206 15.8512537-34.903312 15.8512537-16.253245 0-30.549933-8.385199-38.875231-21.0751069h48.589668l8.749669-18.7772477h-64.488476c-.332186-2.2596942-.510199-4.568685-.510199-6.9206116 0-1.5902141.082649-3.164526.235232-4.7197553h70.18649l8.749669-18.7708869h-72.866226c8.058279-13.9143731 23.054305-23.2775535 40.229404-23.2775535" fill="#f6bc25"/><path d="m162.009536 42.4141896h72.866226l-.510199-.8030581-8.74649 18.7724771.50702-.3244037h-70.69351l-.05404.5104587c-.157351 1.5838532-.236821 3.1899694-.236821 4.7706422 0 2.3217125.174834 4.6815902.516556 7.004893l.073113.4818348h64.971655l-.50702-.8014679-8.751258 18.7724771.508609-.3244037h-49.633907l.573775.8682569c8.756027 13.360979 23.46596 21.326361 39.345695 21.326361 13.498808 0 26.376159-5.840856 35.329272-16.0357188l-.988609-.3705199v23.0119877l.247947-.464342c-10.887418 7.252966-23.624901 11.088562-36.843974 11.088562-26.369801 0-50.050331-15.342385-60.329006-39.0874615l-.149404-.3371254h-23.57404l.514967.8046484 8.74649-18.778838-.511788.3275841h10.202384l-.061987-.6233639c-.211391-2.1213455-.32106-4.2522324-.32106-6.3211009 0-1.5918043.077881-3.298104.235232-5.2127217l.049272-.6106422h-19.676821l.507019.8030581 8.752848-18.7756575-.508609.3275841h15.19947l.141457-.3498471c4.815894-11.7325994 13.007682-21.7350459 23.685298-28.9339449 10.936689-7.36905203 23.767947-11.2650765 37.098278-11.2650765 17.071788 0 33.236027 6.39266055 45.522119 18.0107645l-.125563-.6488073-7.595761 16.3092355.945695-.1176759c-8.996026-11.0647095-22.29298-17.4112538-36.491126-17.4112538-16.701457 0-32.299867 9.0276453-40.720529 23.5606116l-.489537.8459939zm40.229404-23.2791437c13.858014 0 26.838676 6.195474 35.615365 16.9946177l.567417.698104.384636-.8141896 7.597351-16.3060551.170066-.3705198-.29245-.2798777c-12.494305-11.81529054-28.936689-18.32085629-46.297749-18.32085629-13.556026 0-26.601854 3.96281346-37.727682 11.46226299-10.863576 7.3197554-19.195232 17.501896-24.092185 29.4380428l.516556-.3498471h-15.181987l-.150993.3244037-9.12159 19.5755352h19.94861l-.56106-.6106422c-.16053 1.9480122-.236821 3.6813455-.236821 5.3065443 0 2.1070336.10649 4.2744954.324238 6.4340061l.562649-.6154128h-9.938543l-.150993.3244036-8.752848 18.7724771-.370331.8014679h24.084238l-.514966-.3403058c10.459867 24.1553521 34.547284 39.7664831 61.363708 39.7664831 13.443179 0 26.396821-3.899205 37.470199-11.280979l.249536-.166972v-24.8121101l-.983841 1.1242814c-8.736953 9.9499697-21.304371 15.6556577-34.48053 15.6556577-15.501457 0-29.858543-7.784098-38.406357-20.820673l-.468874.8746177h48.948874l.150993-.3212232 8.751258-18.778838.37351-.7982874h-65.373774l.55947.4786544c-.333775-2.2724159-.505431-4.5718654-.505431-6.8395107 0-1.5440978.077881-3.1104587.233643-4.6625076l-.562649.5088685h70.550463l.147815-.3244037 8.749669-18.7756575.376688-.7998777h-73.754702l.483179.8444037c8.217219-14.1847095 23.448477-22.9960856 39.746225-22.9960856z" fill="#0b4a8e"/></g></svg>