<svg xmlns="http://www.w3.org/2000/svg" width="51" height="32" viewBox="0 0 51 32">
  <g fill="none" fill-rule="evenodd">
    <rect width="50" height="31" x=".5" y=".5" fill="#FFF" stroke="#D0D0D0"/>
    <g transform="translate(14 11.7)">
      <path fill="#0B4A8E" d="M.013589404 7.8601896L.259470199 7.83538226C.274251656 7.91831193.304291391 7.97913761.349509934 8.01809786.394807947 8.05697859.45584106 8.0763792.532688742 8.0763792.614066225 8.0763792.675337748 8.05912538.716662252 8.02461774.757907285 7.99003058.778490066 7.94963914.778490066 7.90336391.778490066 7.87370642.769827815 7.84850153.752582781 7.82759021.735258278 7.80675841.705059603 7.78870948.661907285 7.77320489.632344371 7.76310703.565112583 7.74497859.46013245 7.71889908.324953642 7.68550459.230225166 7.64431804.175708609 7.59541896.0990993377 7.52672171.060794702 7.44291743.060794702 7.34400612.060794702 7.28047706.0788344371 7.22092355.114993377 7.1655841.151072848 7.11016514.203205298 7.06794495.271152318 7.03900306.339178808 7.01006116.421271523 6.9955107.517430464 6.9955107.674463576 6.9955107.792635762 7.03009786.87202649 7.09911315.951417219 7.16820795.993059603 7.26036086.997033113 7.37565138L.743761589 7.38559021C.732953642 7.32118654.709748344 7.27491131.674145695 7.2466055.638622517 7.2183792.585298013 7.2042263.514172185 7.2042263.440741722 7.2042263.383364238 7.21933333.341801325 7.2495474.315019868 7.2688685.301668874 7.29478899.301668874 7.32722936.301668874 7.35688685.314225166 7.38217125.339258278 7.4033211.371046358 7.4300367.448370861 7.45794495.571231788 7.48680734.694013245 7.51574924.784847682 7.54572477.843735099 7.57689297.902543046 7.60798165.948635762 7.65051988.981933775 7.70442813 1.01515232 7.75849541 1.03184106 7.82512538 1.03184106 7.90447706 1.03184106 7.97651376 1.01189404 8.04385933.972 8.10667278.93210596 8.16948624.875761589 8.21615902.802887417 8.24669113.730013245 8.27722324.639178808 8.29256881.530384106 8.29256881.37207947 8.29256881.250490066 8.25575535.165615894 8.18212844.0808211921 8.10850153.0301192053 8.00124159.013589404 7.8601896M1.29433113 8.27014679L2.01695364 8.27014679 2.01695364 7.36324771 1.29433113 7.36324771 1.29433113 8.27014679zM1.29433113 7.23905199L2.01695364 7.23905199 2.01695364 7.01785321 1.29433113 7.01785321 1.29433113 7.23905199z"/>
      <path fill="#0B4A8E" d="M2.6594702 8.27014679L2.41859603 8.27014679 2.41859603 7.80628135C2.41859603 7.70816514 2.41343046 7.6447156 2.40325828 7.61593272 2.39300662 7.58714985 2.37647682 7.56464832 2.35350993 7.54866667 2.33054305 7.53276453 2.30288742 7.52473394 2.27062252 7.52473394 2.22921854 7.52473394 2.19210596 7.53618349 2.1592053 7.55900306 2.12630464 7.58182263 2.10381457 7.6120367 2.09165563 7.64972477 2.07941722 7.68733333 2.07337748 7.7569052 2.07337748 7.85851988L2.07337748 8.27014679 1.83250331 8.27014679 1.83250331 7.36324771 2.05597351 7.36324771 2.05597351 7.49650765C2.13504636 7.39274618 2.23470199 7.3409052 2.35470199 7.3409052 2.40762914 7.3409052 2.45602649 7.35052599 2.49981457 7.36960856 2.54360265 7.38869113 2.57674172 7.41310092 2.59923179 7.44275841 2.62172185 7.4724159 2.63737748 7.50604893 2.64619868 7.543737 2.65501987 7.58134557 2.6594702 7.63525382 2.6594702 7.70538226L2.6594702 8.27014679M3.17885408 7.79713761C3.17885408 7.89366361 3.19970801 7.96434862 3.24159565 8.00911315 3.28339341 8.0540367 3.33498891 8.0763792 3.39638217 8.0763792 3.46209004 8.0763792 3.5176406 8.05340061 3.56303386 8.00744343 3.60833723 7.96148624 3.6310788 7.89334557 3.6310788 7.80310092 3.6310788 7.70896024 3.60932599 7.63899083 3.56591026 7.59327217 3.52240464 7.54763303 3.46757318 7.52473394 3.40114622 7.52473394 3.33660689 7.52473394 3.28339341 7.54723547 3.24159565 7.592 3.19970801 7.63692355 3.17885408 7.70522324 3.17885408 7.79713761zM2.93444959 8.32977982L3.24339341 8.35959633C3.24860689 8.39338838 3.26056195 8.4166055 3.27925858 8.42932722 3.30514622 8.44745566 3.34586532 8.45651988 3.40141588 8.45651988 3.472517 8.45651988 3.52582037 8.44713761 3.56141588 8.42837309 3.5852361 8.4158104 3.60339341 8.39561468 3.61570801 8.36770642 3.62406756 8.34766972 3.62829228 8.31101529 3.62829228 8.25742508L3.62910127 8.12503976C3.54874172 8.22180428 3.44680914 8.27014679 3.32312374 8.27014679 3.18514622 8.27014679 3.07602262 8.21862385 2.99548329 8.11533945 2.93229228 8.03376147 2.90074172 7.93214679 2.90074172 7.81065443 2.90074172 7.65831193 2.94209004 7.54198777 3.02487655 7.46152294 3.10766307 7.38113761 3.21067431 7.3409052 3.33373049 7.3409052 3.46065183 7.3409052 3.56537094 7.39028135 3.64788779 7.48887462L3.64788779 7.36324771 3.90074172 7.36324771 3.90074172 8.17847095C3.90074172 8.28573089 3.89076419 8.36587768 3.87071925 8.4188318 3.85076419 8.47194495 3.82271925 8.51352905 3.78658442 8.54374312 3.75044959 8.57395719 3.70226981 8.59765138 3.64195521 8.61474618 3.5816406 8.63184098 3.50541588 8.64042813 3.41328105 8.64042813 3.23916869 8.64042813 3.11566307 8.61387156 3.04276419 8.56083792 2.96986532 8.50780428 2.93346082 8.44053823 2.93346082 8.35903976 2.93346082 8.35100917 2.93382037 8.34130887 2.93444959 8.32977982L2.93444959 8.32977982z"/>
      <polygon fill="#0B4A8E" points="4.073 8.27 4.314 8.27 4.314 7.018 4.073 7.018"/>
      <path fill="#0B4A8E" d="M5.26106349,7.76124107 C5.25909898,7.6870494 5.23786359,7.63073726 5.19735732,7.592054 C5.1569446,7.55345428 5.10773837,7.53407088 5.04973863,7.53407088 C4.98771633,7.53407088 4.93645204,7.55454042 4.89603932,7.59522887 C4.85553305,7.63591731 4.83570088,7.69131041 4.83635572,7.76124107 L5.26106349,7.76124107 Z M5.24647001,8.01715217 L5.52711391,8.05892675 C5.4908173,8.15074729 5.43347239,8.22076149 5.35517274,8.26880227 C5.2768731,8.31692659 5.17883483,8.3409052 5.06124503,8.3409052 C4.87499103,8.3409052 4.73719487,8.28651469 4.64785656,8.17781722 C4.57722785,8.09075899 4.54196026,7.98089183 4.54196026,7.84804865 C4.54196026,7.68963943 4.58826651,7.56540182 4.68106609,7.47558646 C4.77377213,7.3857711 4.89098773,7.3409052 5.0327129,7.3409052 C5.19202509,7.3409052 5.31766001,7.38802693 5.40971121,7.48218684 C5.50176241,7.57651385 5.54572995,7.72080327 5.54170739,7.91530573 L4.83139768,7.91530573 C4.83336218,7.99033289 4.85637498,8.04865021 4.90034253,8.09042479 C4.94431007,8.13203228 4.99912918,8.15291957 5.06479985,8.15291957 C5.10942223,8.15291957 5.14702852,8.14222528 5.17743161,8.12075314 C5.2078347,8.09936455 5.23094104,8.0647752 5.24647001,8.01715217 L5.24647001,8.01715217 Z"/>
      <polyline fill="#0B4A8E" points="6.179 8.27 6.179 7.018 7.106 7.018 7.106 7.229 6.433 7.229 6.433 7.507 7.059 7.507 7.059 7.719 6.433 7.719 6.433 8.059 7.131 8.059 7.131 8.27 6.179 8.27"/>
      <path fill="#0B4A8E" d="M7.99160265 8.27014679L7.99160265 8.13434251C7.95846358 8.18276453 7.91499338 8.22124771 7.86103311 8.24979205 7.80707285 8.27825688 7.75017219 8.29256881 7.69025166 8.29256881 7.62913907 8.29256881 7.57446358 8.2791315 7.52590728 8.25233639 7.47743046 8.22554128 7.44230464 8.18785321 7.42060927 8.13943119 7.39891391 8.09092966 7.38810596 8.02390214 7.38810596 7.93834862L7.38810596 7.36324771 7.62898013 7.36324771 7.62898013 7.78036086C7.62898013 7.90805505 7.63335099 7.98629358 7.64225166 8.01499694 7.65107285 8.04393884 7.66712583 8.0666789 7.69049007 8.08353517 7.7138543 8.10031193 7.74341722 8.10866055 7.77933775 8.10866055 7.82034437 8.10866055 7.85713907 8.09752905 7.88956291 8.07494801 7.92206623 8.05244648 7.94423841 8.02453823 7.95623841 7.99114373 7.96815894 7.95782875 7.97419868 7.87617125 7.97419868 7.74625076L7.97419868 7.36324771 8.21507285 7.36324771 8.21507285 8.27014679 7.99160265 8.27014679M8.74442384 8.27014679L8.50354967 8.27014679 8.50354967 7.36324771 8.72701987 7.36324771 8.72701987 7.49221407C8.76524503 7.43130887 8.79957616 7.39091743 8.83009272 7.37088073 8.86060927 7.35092355 8.89517881 7.3409052 8.93396026 7.3409052 8.98863576 7.3409052 9.04140397 7.35609174 9.09210596 7.38638532L9.01883444 7.59637309C8.97830464 7.57021407 8.94047682 7.5570948 8.90566887 7.5570948 8.87189404 7.5570948 8.84336424 7.56639755 8.81992053 7.58484404 8.79647682 7.60344954 8.77803974 7.63692355 8.76460927 7.68534557 8.75117881 7.73376758 8.74442384 7.83530275 8.74442384 7.98971254L8.74442384 8.27014679M9.45184481 7.84086342C9.45184481 7.93585883 9.47467818 8.00846306 9.52042982 8.05892675 9.56618145 8.10939045 9.62254339 8.1346223 9.6896854 8.1346223 9.75674252 8.1346223 9.81301958 8.10939045 9.85843168 8.05892675 9.90384379 8.00846306 9.92659228 7.93519044 9.92659228 7.83910889 9.92659228 7.74545027 9.90384379 7.67326379 9.85843168 7.62288364 9.81301958 7.57241995 9.75674252 7.5471881 9.6896854 7.5471881 9.62254339 7.5471881 9.56618145 7.57241995 9.52042982 7.62288364 9.47467818 7.67326379 9.45184481 7.74603512 9.45184481 7.84086342zM9.18921854 7.82732846C9.18921854 7.743278 9.21018451 7.6619011 9.25220131 7.58319779 9.29413324 7.50457802 9.35355094 7.44450617 9.43053931 7.40306578 9.5074428 7.36162539 9.59342871 7.3409052 9.68832728 7.3409052 9.83491925 7.3409052 9.9550279 7.38785983 10.0487381 7.48185265 10.1423634 7.57584546 10.1892185 7.69465238 10.1892185 7.83818985 10.1892185 7.98289701 10.1418541 8.10295717 10.0472951 8.19811967 9.95273607 8.29328217 9.83364601 8.3409052 9.69010981 8.3409052 9.60132278 8.3409052 9.51661011 8.3210205 9.43605667 8.28150174 9.35541836 8.24181588 9.29413324 8.18374921 9.25220131 8.10713462 9.21018451 8.03052004 9.18921854 7.93736271 9.18921854 7.82732846L9.18921854 7.82732846zM11.1741255 7.22911315L11.1741255 7.58691131 11.3180486 7.58691131C11.4216798 7.58691131 11.4909884 7.58039144 11.5259743 7.56719266 11.5608773 7.55399388 11.5883188 7.5333211 11.6081331 7.50517431 11.6279474 7.47710703 11.637896 7.44442813 11.637896 7.40713761 11.637896 7.36125994 11.623968 7.32341284 11.5961119 7.29359633 11.5682558 7.26377982 11.5330212 7.24517431 11.490408 7.23770031 11.458987 7.23197554 11.3959792 7.22911315 11.3011359 7.22911315L11.1741255 7.22911315zM10.9099073 8.27014679L10.9099073 7.01785321 11.3328885 7.01785321C11.4931439 7.01785321 11.5976871 7.02421407 11.6463523 7.03669725 11.7211326 7.05546177 11.7837259 7.09640979 11.834215 7.15938226 11.8847042 7.22227523 11.9099073 7.30361468 11.9099073 7.4033211 11.9099073 7.48020795 11.8953989 7.54477064 11.8662993 7.59732722 11.8372825 7.64964526 11.8003069 7.6908318 11.7555382 7.72072783 11.7107695 7.75070336 11.6652547 7.77042202 11.6189937 7.78012232 11.5560688 7.79212844 11.4650391 7.79809174 11.3459046 7.79809174L11.1741255 7.79809174 11.1741255 8.27014679 10.9099073 8.27014679 10.9099073 8.27014679zM12.7232459 7.86049748C12.6871418 7.87135887 12.6301402 7.88422544 12.5521479 7.89926429 12.4741555 7.91421959 12.4231247 7.9290078 12.3992418 7.94337825 12.3624847 7.96685557 12.3442927 7.99659907 12.3442927 8.03260877 12.3442927 8.06811716 12.3588463 8.09869616 12.38814 8.1245964 12.4175271 8.15041309 12.454844 8.16336322 12.5002774 8.16336322 12.5509351 8.16336322 12.5991672 8.14832436 12.6452536 8.11833021 12.679212 8.09543774 12.7016021 8.06753232 12.7122374 8.03444685 12.7195142 8.01280761 12.7232459 7.97161787 12.7232459 7.91087763L12.7232459 7.86049748zM12.3442927 7.65421458L12.0906309 7.61244C12.119365 7.52011817 12.1688099 7.45185849 12.2389657 7.40749389 12.3092148 7.36312928 12.4135155 7.3409052 12.551868 7.3409052 12.6775327 7.3409052 12.7711982 7.35427307 12.8326778 7.3808417 12.8941574 7.40766098 12.9375383 7.4414984 12.9625406 7.48252104 12.9876363 7.52354368 13.0002307 7.59898858 13.0002307 7.70868864L12.9973387 8.0036172C12.9973387 8.08750057 13.0018167 8.14949405 13.0107728 8.18926346 13.0198221 8.22911641 13.036708 8.27181004 13.0614305 8.31734433L12.7815536 8.31734433C12.7740902 8.30088515 12.7651342 8.27640524 12.7544056 8.24398816 12.7497409 8.22919996 12.7463824 8.21950826 12.7445166 8.21474595 12.6963778 8.25677119 12.6449737 8.28835277 12.5902111 8.30940716 12.5354486 8.330378 12.4771409 8.3409052 12.4150082 8.3409052 12.3054831 8.3409052 12.2190944 8.31416946 12.1560288 8.2608651 12.0929633 8.20747718 12.0614305 8.13996945 12.0614305 8.05842546 12.0614305 8.00453625 12.0757975 7.95641192 12.1044382 7.91413605 12.1332655 7.87186017 12.1735678 7.83944309 12.225345 7.81696836 12.2772155 7.79457718 12.3519426 7.77477603 12.4495264 7.75798265 12.5811618 7.73584212 12.6724016 7.71520547 12.7232459 7.69598917L12.7232459 7.67050667C12.7232459 7.62137976 12.7098118 7.58637266 12.6829437 7.56540182 12.6559822 7.54451452 12.6053245 7.53407088 12.5306907 7.53407088 12.4803128 7.53407088 12.4410368 7.54301064 12.4127692 7.56072306 12.3845016 7.57851903 12.361645 7.60968287 12.3442927 7.65421458L12.3442927 7.65421458zM13.0340662 7.36324771L13.2898013 7.36324771 13.5071523 8.00712538 13.7194967 7.36324771 13.9678411 7.36324771 13.5900397 8.39553517C13.5689007 8.44864832 13.5487947 8.48911927 13.5297219 8.51710703 13.510649 8.54501529 13.4886358 8.56775535 13.4638411 8.58508869 13.4389669 8.60250153 13.4086093 8.61617737 13.3723709 8.62579817 13.3361325 8.63557798 13.2952053 8.64042813 13.2495894 8.64042813 13.2034172 8.64042813 13.1579603 8.63557798 13.1135364 8.62587768L13.0911258 8.43783486C13.1288742 8.44538838 13.1630464 8.44904587 13.1933245 8.44904587 13.2495099 8.44904587 13.2909139 8.43242813 13.3178543 8.39935168 13.3447947 8.36611621 13.3653775 8.32389602 13.3796821 8.27269113L13.0340662 7.36324771M14.1557086 7.36324771L14.3767152 7.36324771 14.3767152 7.48712538C14.456106 7.38964526 14.550596 7.3409052 14.6602649 7.3409052 14.7184371 7.3409052 14.7689801 7.3528318 14.8118146 7.37676453 14.854649 7.40077676 14.8897748 7.43703364 14.9171126 7.48545566 14.9570066 7.43703364 15.0001589 7.40077676 15.0462517 7.37676453 15.0925033 7.3528318 15.1416954 7.3409052 15.1941457 7.3409052 15.2609007 7.3409052 15.3173245 7.35442202 15.3634967 7.38161468 15.4096689 7.40856881 15.4442384 7.44840367 15.4670464 7.50096024 15.4834967 7.53968196 15.4917616 7.6024159 15.4917616 7.68916208L15.4917616 8.27014679 15.2508874 8.27014679 15.2508874 7.75070336C15.2508874 7.66053823 15.2426225 7.6024159 15.2261722 7.57617737 15.2039205 7.54182875 15.1698278 7.52473394 15.1238146 7.52473394 15.0901987 7.52473394 15.0585695 7.53499083 15.0290066 7.5555841 14.9994437 7.57617737 14.9781457 7.60623242 14.9651126 7.64590826 14.952 7.68550459 14.945404 7.74815902 14.945404 7.83371254L14.945404 8.27014679 14.7045298 8.27014679 14.7045298 7.77217125C14.7045298 7.68359633 14.7003179 7.62666667 14.6917351 7.6009052 14.6832318 7.57522324 14.6700397 7.55614067 14.6520795 7.54357798 14.6341192 7.5310948 14.6098808 7.52473394 14.5791258 7.52473394 14.5421722 7.52473394 14.5088742 7.53475229 14.4793113 7.55470948 14.4497483 7.57466667 14.4286093 7.60352905 14.4157351 7.64113761 14.4029404 7.67882569 14.3965828 7.74124159 14.3965828 7.82854434L14.3965828 8.27014679 14.1557086 8.27014679 14.1557086 7.36324771M16.4296729 7.76124107C16.427615 7.6870494 16.4064752 7.63073726 16.3658791 7.592054 16.3255637 7.55345428 16.2762685 7.53407088 16.2182742 7.53407088 16.1563512 7.53407088 16.1049981 7.55454042 16.0646827 7.59522887 16.0241802 7.63591731 16.0043499 7.69131041 16.0050046 7.76124107L16.4296729 7.76124107zM16.4150808 8.01715217L16.6956985 8.05892675C16.6593118 8.15074729 16.6020657 8.22076149 16.5237734 8.26880227 16.4453875 8.31692659 16.3474519 8.3409052 16.2297795 8.3409052 16.0436364 8.3409052 15.905853 8.28651469 15.8164295 8.17781722 15.7458073 8.09075899 15.710543 7.98089183 15.710543 7.84804865 15.710543 7.68963943 15.7570321 7.56540182 15.8496359 7.47558646 15.9424269 7.3857711 16.059538 7.3409052 16.2013436 7.3409052 16.3606409 7.3409052 16.4861706 7.38802693 16.5782132 7.48218684 16.6702559 7.57651385 16.7143129 7.72080327 16.7102907 7.91530573L15.9999535 7.91530573C16.0020114 7.99033289 16.025022 8.04865021 16.0689855 8.09042479 16.1128554 8.13203228 16.1676694 8.15291957 16.2334275 8.15291957 16.2780457 8.15291957 16.315555 8.14222528 16.3459553 8.12075314 16.3765426 8.09936455 16.3995532 8.0647752 16.4150808 8.01715217L16.4150808 8.01715217zM17.631894 8.27014679L17.3910199 8.27014679 17.3910199 7.80628135C17.3910199 7.70816514 17.3858543 7.6447156 17.3757616 7.61593272 17.3655099 7.58714985 17.3489007 7.56464832 17.3259338 7.54866667 17.3029669 7.53276453 17.2753113 7.52473394 17.2430464 7.52473394 17.2017219 7.52473394 17.1645298 7.53618349 17.1317086 7.55900306 17.0988079 7.58182263 17.0763179 7.6120367 17.0640795 7.64972477 17.0519205 7.68733333 17.0458013 7.7569052 17.0458013 7.85851988L17.0458013 8.27014679 16.8049272 8.27014679 16.8049272 7.36324771 17.0283974 7.36324771 17.0283974 7.49650765C17.1075497 7.39274618 17.2071258 7.3409052 17.3271258 7.3409052 17.380053 7.3409052 17.4285298 7.35052599 17.4722384 7.36960856 17.5160265 7.38869113 17.549245 7.41310092 17.5717351 7.44275841 17.5942252 7.4724159 17.6098013 7.50604893 17.6186225 7.543737 17.6275232 7.58134557 17.631894 7.63525382 17.631894 7.70538226L17.631894 8.27014679M18.342596 7.36324771L18.342596 7.55455046 18.178649 7.55455046 18.178649 7.92149235C18.178649 7.99575535 18.1801589 8.03908869 18.1832583 8.05133333 18.1862781 8.06365749 18.1932715 8.07375535 18.2041589 8.08178593 18.2151258 8.089737 18.2283179 8.09379205 18.2439735 8.09379205 18.2659073 8.09379205 18.2973775 8.08607951 18.3388609 8.07073394L18.3599205 8.25662997C18.3043709 8.28056269 18.2415099 8.29256881 18.1713377 8.29256881 18.1281854 8.29256881 18.0894834 8.28525382 18.0549139 8.27070336 18.0204238 8.25623242 17.9950728 8.23730887 17.9788609 8.21417125 17.9627285 8.19111315 17.9516026 8.15986544 17.945404 8.12050765 17.9402384 8.09251988 17.9377748 8.03598777 17.9377748 7.95099083L17.9377748 7.55455046 17.8285033 7.55455046 17.8285033 7.36324771 17.9377748 7.36324771 17.9377748 7.18188379 18.178649 7.04027523 18.178649 7.36324771 18.342596 7.36324771M18.4780927 8.01428135L18.7189669 7.97699083C18.7292185 8.02334557 18.7499603 8.0584893 18.7811921 8.08258104 18.8125033 8.10667278 18.8562119 8.11859939 18.9124768 8.11859939 18.974543 8.11859939 19.0211921 8.10714985 19.0524238 8.08425076 19.0734834 8.06811009 19.084053 8.04672171 19.084053 8.01968807 19.084053 8.00140061 19.0782517 7.98613456 19.0668079 7.97420795 19.0547285 7.9626789 19.0278675 7.95210398 18.9860662 7.94232416 18.7914437 7.89930887 18.6680265 7.86011009 18.616053 7.82472783 18.543894 7.77566972 18.507894 7.70737003 18.507894 7.62014679 18.507894 7.54127217 18.5389669 7.47503976 18.601351 7.42144954 18.6638146 7.36777982 18.7605298 7.3409052 18.8915762 7.3409052 19.0163444 7.3409052 19.1090066 7.36102141 19.1697219 7.40117431 19.2303576 7.44140673 19.2721589 7.50080122 19.2951258 7.57943731L19.0691126 7.62165749C19.0593377 7.58643425 19.0407417 7.5593211 19.013404 7.54055657 18.9859868 7.52171254 18.9469669 7.51233028 18.8963444 7.51233028 18.8324503 7.51233028 18.786596 7.52115596 18.7590199 7.53904587 18.7405033 7.55160856 18.7313642 7.56790826 18.7313642 7.58794495 18.7313642 7.60519878 18.7393113 7.61982875 18.7553642 7.63191437 18.7770596 7.64789602 18.8521589 7.67055657 18.9805033 7.69981651 19.1088477 7.72907645 19.1984901 7.76485627 19.2494305 7.80723547 19.2996556 7.85017125 19.3249272 7.91004281 19.3249272 7.98677064 19.3249272 8.07033639 19.2901192 8.14221407 19.2207417 8.20232416 19.1512053 8.26251376 19.0485298 8.29256881 18.9124768 8.29256881 18.7890596 8.29256881 18.6913113 8.26752294 18.6193113 8.21766972 18.5473113 8.16765749 18.5002649 8.09999388 18.4780927 8.01428135M20.7909139 7.77574924L20.6159205 7.31108869 20.4468079 7.77574924 20.7909139 7.77574924zM21.2554172 8.27014679L20.9826755 8.27014679 20.8744371 7.98692966 20.3699603 7.98692966 20.2668079 8.27014679 19.998755 8.27014679 20.4836026 7.01785321 20.7499868 7.01785321 21.2554172 8.27014679 21.2554172 8.27014679zM21.6689801 8.27014679L21.428106 8.27014679 21.428106 7.36324771 21.6515762 7.36324771 21.6515762 7.49221407C21.6898013 7.43130887 21.724053 7.39091743 21.754649 7.37088073 21.7850861 7.35092355 21.8196556 7.3409052 21.8585166 7.3409052 21.9131921 7.3409052 21.9658808 7.35609174 22.0166623 7.38638532L21.9433907 7.59637309C21.9027815 7.57021407 21.8650331 7.5570948 21.8302252 7.5570948 21.7963709 7.5570948 21.7678411 7.56639755 21.7443974 7.58484404 21.7209536 7.60344954 21.7025166 7.63692355 21.6891656 7.68534557 21.6756556 7.73376758 21.6689801 7.83530275 21.6689801 7.98971254L21.6689801 8.27014679M22.8204279 7.76124107C22.81837 7.6870494 22.7971366 7.63073726 22.7567276 7.592054 22.7162251 7.55345428 22.6670235 7.53407088 22.6091227 7.53407088 22.5470126 7.53407088 22.4958466 7.55454042 22.4554377 7.59522887 22.4149352 7.63591731 22.3950113 7.69131041 22.3957596 7.76124107L22.8204279 7.76124107zM22.8058357 8.01715217L23.0864535 8.05892675C23.0501603 8.15074729 22.9928207 8.22076149 22.9145283 8.26880227 22.836236 8.31692659 22.7382068 8.3409052 22.620628 8.3409052 22.4343913 8.3409052 22.2965145 8.28651469 22.2071845 8.17781722 22.1365623 8.09075899 22.101298 7.98089183 22.101298 7.84804865 22.101298 7.68963943 22.1476935 7.56540182 22.2404844 7.47558646 22.3330883 7.3857711 22.4503865 7.3409052 22.5920985 7.3409052 22.7513023 7.3409052 22.8769256 7.38802693 22.9690617 7.48218684 23.0610108 7.57651385 23.1050678 7.72080327 23.1010456 7.91530573L22.3907085 7.91530573C22.3927664 7.99033289 22.415777 8.04865021 22.4596469 8.09042479 22.5037039 8.13203228 22.5585179 8.15291957 22.6240889 8.15291957 22.6688007 8.15291957 22.70631 8.14222528 22.7368038 8.12075314 22.767204 8.09936455 22.7902147 8.0647752 22.8058357 8.01715217L22.8058357 8.01715217zM23.7954616 7.86049748C23.759444 7.87135887 23.7023385 7.88422544 23.6243316 7.89926429 23.5463247 7.91421959 23.4953776 7.9290078 23.471397 7.94337825 23.434633 7.96685557 23.4164376 7.99659907 23.4164376 8.03260877 23.4164376 8.06811716 23.4309939 8.09869616 23.4603864 8.1245964 23.4896857 8.15041309 23.5270096 8.16336322 23.5724514 8.16336322 23.6231186 8.16336322 23.6713597 8.14832436 23.7174547 8.11833021 23.7514194 8.09543774 23.7738137 8.06753232 23.784451 8.03444685 23.7917292 8.01280761 23.7954616 7.97161787 23.7954616 7.91087763L23.7954616 7.86049748zM23.4164376 7.65421458L23.1627285 7.61244C23.1914679 7.52011817 23.240922 7.45185849 23.3110909 7.40749389 23.3813531 7.36312928 23.4856734 7.3409052 23.6240517 7.3409052 23.7497398 7.3409052 23.8434227 7.35427307 23.9049138 7.3808417 23.9664049 7.40766098 24.0097939 7.4414984 24.0348009 7.48252104 24.0599012 7.52354368 24.072498 7.59898858 24.072498 7.70868864L24.0696054 8.0036172C24.0696054 8.08750057 24.0740843 8.14949405 24.083042 8.18926346 24.0920931 8.22911641 24.1089821 8.27181004 24.1336159 8.31734433L23.8537801 8.31734433C23.8463153 8.30088515 23.8374509 8.27640524 23.826627 8.24398816 23.8220548 8.22919996 23.8186024 8.21950826 23.8167362 8.21474595 23.7685884 8.25677119 23.717268 8.28835277 23.6624952 8.30940716 23.6077225 8.330378 23.5493106 8.3409052 23.4871663 8.3409052 23.3776207 8.3409052 23.291216 8.31416946 23.2281386 8.2608651 23.1651546 8.20747718 23.1336159 8.13996945 23.1336159 8.05842546 23.1336159 8.00453625 23.1478923 7.95641192 23.1766317 7.91413605 23.205371 7.87186017 23.2456808 7.83944309 23.2974677 7.81696836 23.3493479 7.79457718 23.424089 7.77477603 23.5216909 7.75798265 23.6533509 7.73584212 23.7446078 7.71520547 23.7954616 7.69598917L23.7954616 7.67050667C23.7954616 7.62137976 23.782025 7.58637266 23.7551518 7.56540182 23.7282786 7.54451452 23.6775181 7.53407088 23.6028703 7.53407088 23.5524831 7.53407088 23.5131997 7.54301064 23.4849269 7.56072306 23.4567474 7.57851903 23.4337932 7.60968287 23.4164376 7.65421458L23.4164376 7.65421458zM5.33284768 2.09717431L3.69274172 2.09717431C3.69274172 1.82787156 3.66111258 1.64714373 3.59817219 1.55514985 3.50058278 1.41902752 3.23117881 1.35088685 2.79027815 1.35088685 2.36209272 1.35088685 2.07822517 1.39008563 1.93970861 1.46856269 1.80127152 1.54727829 1.73197351 1.71846483 1.73197351 1.98204281 1.73197351 2.22065443 1.7933245 2.37776758 1.91634437 2.45306422 2.00447682 2.50649541 2.12090066 2.53790214 2.26609272 2.5472844L2.59684768 2.57066055C3.30572185 2.61773089 3.74845033 2.65088685 3.92503311 2.66973089 4.48561589 2.726263 4.89202649 2.87542508 5.14418543 3.11713761 5.34262252 3.305737 5.46095364 3.55222018 5.49870199 3.85658716 5.5207947 4.03866667 5.53176159 4.2446789 5.53176159 4.47359021 5.53176159 5.00122324 5.48145695 5.38764526 5.38068874 5.63253823 5.19806623 6.08185321 4.78784106 6.36562691 4.14953642 6.48481346 3.88211921 6.53522324 3.47300662 6.56042813 2.92275497 6.56042813 2.00423841 6.56042813 1.36410596 6.50572477 1.0026755 6.39576147.559072848 6.26107034.266622517 5.9881896.125086093 5.57727829.0462516556 5.34852599.00723178808 4.96759021.00723178808 4.43431193L1.64733775 4.43431193C1.64733775 4.49378593 1.64749669 4.53926606 1.64749669 4.57059327 1.64749669 4.85516208 1.72927152 5.03819572 1.89242384 5.11969419 2.00550993 5.17590826 2.14203974 5.20540673 2.30256954 5.2089052L2.90550993 5.2089052C3.21321854 5.2089052 3.4095894 5.19316208 3.49430464 5.16151682 3.6450596 5.10220183 3.744 5.00670948 3.79128477 4.87456269 3.81639735 4.79322324 3.82887417 4.68795107 3.82887417 4.55914373 3.82887417 4.27059939 3.72357616 4.09503976 3.51337748 4.03206728 3.43478146 4.00718043 3.0690596 3.97251376 2.41629139 3.92854434 1.89210596 3.8910948 1.52797351 3.85507645 1.32405298 3.82017125.787072848 3.71966972.429218543 3.51302141.250649007 3.19927217.0936953642 2.93267278.0151788079 2.52931498.0151788079 1.98975535.0151788079 1.57884404.057615894 1.24935168.142410596 1.00151682.227284768.753602446.36405298.565400612.552794702.436672783.829271523.239088685 1.18307285.123082569 1.61372185.0884159021 1.97205298.0571681957 2.36956291.0411865443 2.80680795.0411865443 3.49517881.0411865443 3.98574834.0807828746 4.27819868.159259939 4.99192053.351119266 5.34874172.88853211 5.34874172 1.77165749 5.34874172 1.84409174 5.34341722 1.95238532 5.33284768 2.09717431M14.3082119 3.34795719L15.4072848 3.34795719C15.7557616 3.3353945 15.9677086 3.30859939 16.044 3.26661774 16.1481854 3.20929052 16.2181192 3.09455657 16.2529272 2.9224159 16.2751788 2.80784098 16.2863046 2.63752905 16.2863046 2.41124159 16.2863046 2.13406728 16.2642119 1.92861162 16.2197881 1.79439755 16.1563709 1.60643425 16.0045033 1.49193884 15.763947 1.45035474 15.7164238 1.44407339 15.602543 1.44073394 15.4221457 1.44073394L14.3082119 1.44073394 14.3082119 3.34795719zM12.545245 6.56042813L12.545245.00651987768 15.8298278.00651987768C16.2803444.00651987768 16.6241325.0433333333 16.8603179.116880734 17.4005563.286238532 17.7630199.632984709 17.9486623 1.15703976 18.0445033 1.43206728 18.0924238 1.84615902 18.0924238 2.39907645 18.0924238 3.06386544 18.0392583 3.54164526 17.9341192 3.83249541 17.7234437 4.40767584 17.2897748 4.73899694 16.6349404 4.8248685 16.5579338 4.83774924 16.2302781 4.84927829 15.6519735 4.85850153L15.3592848 4.86828135 14.3082119 4.86828135 14.3082119 6.56042813 12.545245 6.56042813 12.545245 6.56042813zM21.5055894 4.15093578L20.6795762 1.30993884 19.8779603 4.15093578 21.5055894 4.15093578zM21.8557351 5.42771865L19.4985695 5.42771865 19.1818808 6.56042813 17.3578808 6.56042813 19.3260397.00651987768 21.9854305.00651987768 23.9777483 6.56042813 22.192053 6.56042813 21.8557351 5.42771865 21.8557351 5.42771865z"/>
      <path fill="#F6BC25" d="M10.111947,0.928605505 C10.8390993,0.928605505 11.488053,1.26374312 11.914649,1.78867278 L12.2946755,0.973449541 C11.7003179,0.411388379 10.8913907,0.0648807339 9.99917881,0.0648807339 C8.61003974,0.0648807339 7.42172185,0.904275229 6.93401325,2.09248318 L6.19295364,2.09248318 L5.75539073,3.03102752 L6.70871523,3.03102752 C6.70156291,3.11809174 6.69695364,3.20523547 6.69695364,3.29412844 C6.69695364,3.40170642 6.70251656,3.50801223 6.71316556,3.61304587 L6.23403974,3.61304587 L5.79655629,4.55190826 L6.95674172,4.55190826 C7.45835762,5.71006116 8.63181457,6.52313761 9.99917881,6.52313761 C10.6882649,6.52313761 11.3276821,6.31656881 11.8571126,5.96370031 L11.8571126,4.81310092 C11.430755,5.29875229 10.8071523,5.60566361 10.111947,5.60566361 C9.29928477,5.60566361 8.58445033,5.18640367 8.16818543,4.55190826 L10.5976689,4.55190826 L11.0351523,3.61304587 L7.81072848,3.61304587 C7.79411921,3.50006116 7.78521854,3.38461162 7.78521854,3.26701529 C7.78521854,3.18750459 7.78935099,3.10878899 7.79698013,3.03102752 L11.3063046,3.03102752 L11.7437881,2.09248318 L8.10047682,2.09248318 C8.50339073,1.39676453 9.25319205,0.928605505 10.111947,0.928605505"/>
      <path fill="#0B4A8E" d="M8.10047682,2.12070948 L11.7437881,2.12070948 L11.7182781,2.08055657 L11.2809536,3.01918043 L11.3063046,3.00296024 L7.77162914,3.00296024 L7.76892715,3.02848318 C7.7610596,3.10767584 7.75708609,3.18798165 7.75708609,3.26701529 C7.75708609,3.38310092 7.76582781,3.5010948 7.78291391,3.61725994 L7.78656954,3.64135168 L11.0351523,3.64135168 L11.0098013,3.60127829 L10.5722384,4.53990214 L10.5976689,4.52368196 L8.11597351,4.52368196 L8.14466225,4.5670948 C8.58246358,5.23514373 9.31796026,5.63341284 10.111947,5.63341284 C10.7868874,5.63341284 11.430755,5.34137003 11.8784106,4.83162691 L11.8289801,4.81310092 L11.8289801,5.96370031 L11.8413775,5.94048318 C11.2970066,6.3031315 10.6601325,6.49491131 9.99917881,6.49491131 C8.68068874,6.49491131 7.49666225,5.72779205 6.98272848,4.54053823 L6.97525828,4.52368196 L5.79655629,4.52368196 L5.82230464,4.56391437 L6.25962914,3.62497248 L6.23403974,3.64135168 L6.74415894,3.64135168 L6.7410596,3.61018349 C6.73049007,3.50411621 6.72500662,3.39757187 6.72500662,3.29412844 C6.72500662,3.21453823 6.72890066,3.12922324 6.73676821,3.03349235 L6.73923179,3.00296024 L5.75539073,3.00296024 L5.78074172,3.04311315 L6.21838411,2.10433028 L6.19295364,2.12070948 L6.95292715,2.12070948 L6.96,2.10321713 C7.2007947,1.51658716 7.61038411,1.01646483 8.1442649,0.656519878 C8.69109934,0.288067278 9.33266225,0.093266055 9.99917881,0.093266055 C10.8527682,0.093266055 11.6609801,0.412899083 12.2752848,0.993804281 L12.2690066,0.961363914 L11.8892185,1.77682569 L11.9365033,1.7709419 C11.486702,1.21770642 10.8218543,0.900379205 10.111947,0.900379205 C9.27687417,0.900379205 8.49695364,1.35176147 8.07592053,2.07840979 L8.05144371,2.12070948 L8.10047682,2.12070948 Z M10.111947,0.956752294 C10.8048477,0.956752294 11.4538808,1.26652599 11.8927152,1.80648318 L11.9210861,1.84138838 L11.9403179,1.8006789 L12.3201854,0.985376147 L12.3286887,0.966850153 L12.3140662,0.952856269 C11.689351,0.362091743 10.8672318,0.0368134557 9.99917881,0.0368134557 C9.32137748,0.0368134557 8.66908609,0.234954128 8.1127947,0.609926606 C7.56961589,0.975914373 7.15303311,1.48502141 6.90818543,2.08182875 L6.93401325,2.06433639 L6.17491391,2.06433639 L6.16736424,2.08055657 L5.71128477,3.05933333 L6.70871523,3.05933333 L6.68066225,3.02880122 C6.67263576,3.12620183 6.66882119,3.2128685 6.66882119,3.29412844 C6.66882119,3.39948012 6.6741457,3.50785321 6.68503311,3.61582875 L6.71316556,3.5850581 L6.21623841,3.5850581 L6.20868874,3.60127829 L5.77104636,4.53990214 L5.7525298,4.57997554 L6.95674172,4.57997554 L6.93099338,4.56296024 C7.45398675,5.77072783 8.65835762,6.5512844 9.99917881,6.5512844 C10.6713377,6.5512844 11.3190199,6.35632416 11.8726887,5.98723547 L11.8851656,5.97888685 L11.8851656,4.73828135 L11.8359735,4.79449541 C11.3991258,5.29199388 10.770755,5.57727829 10.111947,5.57727829 C9.33687417,5.57727829 8.61901987,5.18807339 8.19162914,4.53624465 L8.16818543,4.57997554 L10.6156291,4.57997554 L10.6231788,4.56391437 L11.0607417,3.62497248 L11.0794172,3.5850581 L7.81072848,3.5850581 L7.83870199,3.60899083 C7.82201325,3.49537003 7.81343046,3.38039755 7.81343046,3.26701529 C7.81343046,3.1898104 7.8173245,3.11149235 7.82511258,3.03388991 L7.79698013,3.05933333 L11.3245033,3.05933333 L11.331894,3.04311315 L11.7693775,2.10433028 L11.7882119,2.06433639 L8.10047682,2.06433639 L8.12463576,2.10655657 C8.53549669,1.3973211 9.2970596,0.956752294 10.111947,0.956752294 L10.111947,0.956752294 Z"/>
    </g>
  </g>
</svg>
