<svg xmlns="http://www.w3.org/2000/svg" width="640" height="360" fill="none"><path d="M159.549 36C122.855 36 93 65.958 93 102.783V324h387.15c36.7 0 66.553-29.957 66.553-66.783V102.783C546.703 65.958 516.85 36 480.15 36H159.55m-.541 66.39h47.344c24.722 0 45.155 19.865 45.294 44.686a45.13 45.13 0 0 1-3.347 17.278 45.033 45.033 0 0 1-9.695 14.667 44.84 44.84 0 0 1-14.561 9.815 44.708 44.708 0 0 1-17.197 3.459h-23.87v39.062h-23.968V102.391zm23.969 24.026v41.84h23.517v-.02c11.408 0 20.966-9.06 21.184-20.507a20.994 20.994 0 0 0-5.965-15.036 20.828 20.828 0 0 0-14.867-6.277h-23.87m124.066 7.28a48.816 48.816 0 0 1 24.55 6.898v-6.418h23.968v97.183h-23.967v-6.306a48.836 48.836 0 0 1-24.551 6.898 48.834 48.834 0 0 1-24.68-6.424 49.04 49.04 0 0 1-18.111-18.004 49.252 49.252 0 0 1 0-49.4 49.032 49.032 0 0 1 18.111-18.004 48.824 48.824 0 0 1 24.68-6.424m142.127.138h26.084L434.21 240.369a49.227 49.227 0 0 1-17.951 22.662 48.958 48.958 0 0 1-27.54 8.625h-3.224v-24.049h2.828a24.902 24.902 0 0 0 14.004-4.386 25.035 25.035 0 0 0 9.129-11.526l.129-.334h-6.996l-38.744-97.183h26.216l28.975 72.67 28.133-73.014m-141.945 23.914a24.957 24.957 0 0 0-18.293 7.328 25.1 25.1 0 0 0-6.848 12.836 25.167 25.167 0 0 0 1.41 14.49 25.063 25.063 0 0 0 9.195 11.262 24.933 24.933 0 0 0 13.88 4.242 24.977 24.977 0 0 0 17.685-7.345 25.15 25.15 0 0 0 7.34-17.739c0-4.96-1.465-9.806-4.211-13.931a25.01 25.01 0 0 0-11.215-9.239 24.924 24.924 0 0 0-8.943-1.904m176.18 45.084c8.076 0 14.624 6.57 14.624 14.676s-6.548 14.676-14.625 14.676c-8.078 0-14.625-6.57-14.625-14.676 0-8.105 6.547-14.676 14.625-14.676" style="fill:#fff"/></svg>