<svg xmlns="http://www.w3.org/2000/svg" width="640" height="360" fill="none" viewBox="0 0 640 360"><path fill="#585fff" d="M480.151 324H93V102.783C93 65.958 122.855 36 159.549 36h320.602c36.699 0 66.553 29.958 66.553 66.783v154.433c0 36.826-29.854 66.784-66.553 66.784"/><path fill="#fff" d="M331.593 140.593a48.82 48.82 0 0 0-49.229-.473 49.03 49.03 0 0 0-18.113 18.003 49.24 49.24 0 0 0-6.639 24.7c0 8.677 2.29 17.2 6.639 24.701a49.04 49.04 0 0 0 18.113 18.003 48.83 48.83 0 0 0 24.678 6.424 48.84 48.84 0 0 0 24.551-6.898v6.306h23.968v-97.184h-23.968zm-25.025 67.313a24.93 24.93 0 0 1-13.879-4.241 25.06 25.06 0 0 1-9.195-11.262 25.17 25.17 0 0 1-1.41-14.49 25.1 25.1 0 0 1 6.847-12.836 24.96 24.96 0 0 1 12.799-6.857 24.9 24.9 0 0 1 14.438 1.432 25 25 0 0 1 11.214 9.238 25.14 25.14 0 0 1 4.211 13.933 25.15 25.15 0 0 1-7.34 17.738 24.98 24.98 0 0 1-17.685 7.345M206.352 102.39h-47.344v128.967h23.969v-39.062h23.868a44.7 44.7 0 0 0 17.198-3.46 44.8 44.8 0 0 0 14.56-9.814 45 45 0 0 0 9.696-14.668 45.1 45.1 0 0 0 3.347-17.277c-.139-24.821-20.571-44.686-45.294-44.686m.143 65.866h-23.518v-41.84h23.868a20.84 20.84 0 0 1 14.867 6.277 20.9 20.9 0 0 1 4.49 6.916 21 21 0 0 1 1.476 8.12c-.218 11.448-9.775 20.508-21.183 20.508zM483.405 232.184c8.077 0 14.625-6.57 14.625-14.676s-6.548-14.675-14.625-14.675-14.626 6.57-14.626 14.675 6.548 14.676 14.626 14.676M449.169 133.834l-28.131 73.013-28.976-72.67h-26.216l38.744 97.184h6.995l-.127.334a25.04 25.04 0 0 1-9.129 11.526 24.9 24.9 0 0 1-14.005 4.386h-2.828v24.05h3.225a48.96 48.96 0 0 0 27.539-8.626 49.22 49.22 0 0 0 17.95-22.662l41.044-106.535z"/></svg>