<svg xmlns="http://www.w3.org/2000/svg" width="512" height="512" fill="none" viewBox="0 0 512 512"><path fill="#fff" d="M191.381 0H5v508.738h94.357V354.65h93.963a175.8 175.8 0 0 0 67.705-13.647 176.5 176.5 0 0 0 57.319-38.715 177.6 177.6 0 0 0 38.169-57.861 178.3 178.3 0 0 0 13.178-68.154C369.144 78.365 288.707 0 191.381 0m.562 259.824H99.357V94.778h93.963a81.8 81.8 0 0 1 31.738 6.462 82.1 82.1 0 0 1 26.789 18.296 82.7 82.7 0 0 1 17.676 27.284 83 83 0 0 1 5.813 32.032c-.859 45.156-38.484 80.895-83.393 80.895zM448.983 512c31.797 0 57.577-25.919 57.577-57.891s-25.78-57.892-57.577-57.892c-31.8 0-57.577 25.92-57.577 57.892S417.183 512 448.983 512"/></svg>