<svg xmlns="http://www.w3.org/2000/svg" width="640" height="360" viewBox="35.433 35.357 272.126 128.506"><defs><clipPath id="a" clipPathUnits="userSpaceOnUse"><path d="M709.016 667.661h561.948v139.646H709.016Z"/></clipPath><clipPath id="b" clipPathUnits="userSpaceOnUse"><path d="M709.016 667.661h561.948v139.646H709.016Z"/></clipPath><clipPath id="c" clipPathUnits="userSpaceOnUse"><path d="M709.016 667.661h561.948v139.646H709.016Z"/></clipPath></defs><path d="m1087.094 765.927 1.012 7.587 1.516 7.08 2.528 3.539 1.519 7.588 3.036 6.07 4.044 1.517 6.575.508s10.623-1.52 12.139-1.52c1.52 0 13.658-.504 13.658-.504l9.608 1.516 5.059-3.036 2.528-9.103 6.071-12.643s1.516-6.067 2.528-7.587 6.071-21.242 7.587-22.254 17.703-9.611 17.703-9.611l13.658 2.528 2.02 8.095 6.576 2.528 10.114-6.576s10.116-25.797 11.127-27.313 1.516-16.69 1.516-16.69v-8.6l7.084-7.587s-3.488 5.007 1.519 0c7.584-7.583 60.187 38.948-.507 88.008l-8.577.489-8.868-.086-8.17 4.779-1.65 2.692-.086 8.693 8.603 1.912 3.823 1.217 3.215-.87 7.565-8.603 5.037-6.082 5.194-4.825 19.614-24.11 5.72-16.342-4.085-28.606-14.711-20.021-23.699-6.131-28.086-3.297h-81.026l-55.029 1.822-2.304 8.368 4.29 6.486 11.926 5.858 6.9-2.617 1.781 2.722 8.26 22.907-5.123 18.199.209 4.29 2.931 6.59z" clip-path="url(#a)" style="fill:#fff;fill-opacity:1;fill-rule:nonzero;stroke:none" transform="matrix(.3874 0 0 -.3874 -212.031 385.316)"/><path d="M709.015 670.275v4.107c8.961 0 15.31.747 15.31 13.816v69.076c0 13.442-4.855 13.816-15.31 13.816v4.107h53.021v-4.107c-10.828 0-15.309-.374-15.309-13.816v-69.076c0-13.069 5.601-13.816 15.31-13.816v-4.107zm182.586 79.532v-80.279h-6.347l-80.278 82.892c.373-2.24.373-4.107.373-6.347v-50.408c0-15.682 0-21.283 14.19-21.283v-4.107h-37.713v4.107c14.188 0 14.188 6.721 14.188 21.283v57.502c0 8.588 0 17.923-14.935 17.923v4.107h35.472l66.09-67.957c-.374 1.867-.374 2.987-.374 5.601v36.966c0 14.935.373 21.283-13.816 21.283v4.107h37.713v-4.107c-13.816 0-14.563-5.975-14.563-21.283m130.313-44.06v-26.884c-14.936-7.468-29.125-11.202-43.313-11.202-39.206 0-62.729 23.15-62.729 52.275 0 31.364 26.884 57.501 61.235 57.501 8.588 0 14.936-1.493 21.657-3.734 4.854-1.493 7.841-3.36 10.828-3.36 2.614 0 3.36 4.481 3.734 7.094h3.734l3.36-36.218h-4.481c-1.866 7.094-5.227 13.068-9.708 17.175-7.094 7.095-16.802 10.83-28.004 10.83-23.523 0-37.338-18.67-37.338-46.675 0-27.63 16.802-46.673 39.205-46.673 6.721 0 12.695 1.493 20.163 4.854v27.631c0 8.961-1.493 12.321-14.189 12.321v4.108h47.421v-4.108c-11.949 0-11.575-3.734-11.575-14.935" clip-path="url(#b)" style="fill:#006;fill-opacity:1;fill-rule:nonzero;stroke:none" transform="matrix(.3874 0 0 -.3874 -212.031 385.316)"/><path d="M1113.391 756.902c-.747 1.494-2.614 0-4.481.747 0-.747 0-1.494 1.121-2.241 1.12 1.12 2.987 1.494 3.36 1.494m2.987 19.79c0 .746-.747 1.493-1.867 2.24h-8.961c0-1.494 1.12-2.24 2.24-2.24 0-1.494 1.12-1.867 1.494-2.241 1.12-.747 1.493-.747 2.613 0 1.121-.747 1.494.747 1.867 0 0-2.24 0-3.36-.373-5.227-.373-2.614-2.614-2.241-4.481-3.361 0-1.12-1.12-2.987 0-4.107 1.121.747 1.867 1.12 3.734 1.867 0 1.12 1.12 2.24 2.614 2.987 0 3.36 1.12 6.72 1.12 10.082m16.803-21.657v1.867h-3.734l-.374-.373zm-22.03 34.352c-.374 3.734-4.481 4.107-6.348 5.6h-1.493c-2.987-1.12-3.734-4.107-4.108-6.72 1.121-3.361 3.361-1.121 4.854-3.361 1.494 1.12 5.228 3.734 7.095 4.48m8.214-4.107c-.747.747-2.987-.373-4.107-.746-1.494-.374-2.614-1.494-2.614-2.614h4.107c.374 1.12 1.867 2.614 2.614 3.36m18.67-7.841s.746 0 0 .374l-8.215 1.12c-.747-1.12-2.614-1.12-2.614-2.24h-.746c.746-2.988.746-6.348.746-9.71 1.494-.372 2.987-1.12 2.987-3.36 1.494-.746 2.988-1.12 4.481-2.24.747.374 1.12 1.494 1.494 2.614-1.494 1.867-4.854.747-4.854 4.108l-2.241.746c0 2.24 0 4.48-.373 5.975l.373.373c0-.373.374-.747 1.12-1.494 1.494 0 2.988-.373 4.481.747.747.374.747 2.24 1.494 2.24.746 0 1.493 0 1.867.747m-5.975 4.48c0 1.12-.373 1.12-.746 1.12-1.867 0-1.867 2.988-3.361 2.24-.747 0-1.493.748-2.614 0 0-.372 0-.372.747-.372 1.867 0 1.12-2.614 2.614-2.987zm12.696 2.24c.746 1.868.746 5.229-.747 7.096-.747 1.493-2.614 2.24-4.481 3.734l-2.614-1.494c-1.493-.747-2.24-2.24-2.24-4.107 2.614-1.12 5.227-4.108 6.348-6.348h1.12c1.12 1.12 1.867 0 2.614 1.12m-77.292-104.175c-.373 0-1.493 1.12-2.613 1.12-1.121-2.24 0-3.733 0-6.347 0-1.12-.374-2.241-.374-2.241-.747 0-2.24 1.494-2.613 2.988v5.974l3.36 4.107c2.24-1.494 2.987-3.734 2.24-5.601m9.708 4.107c0-1.493-.373-2.987-1.12-4.107-.373 1.494-1.493 3.36-3.36 3.36-1.494-2.986-1.867-4.107-.374-8.587-1.12-1.12-1.866-1.494-3.36-2.241-.747 1.494-.747 4.108-.747 5.6 0 2.615.374 5.229 1.12 7.469 1.121 1.12 1.867 2.987 2.987 4.107h4.108c-1.867 0-1.867-1.867-1.867-2.987 1.12-.373 2.613-.747 2.613-2.614m13.069-2.24c0-2.987-4.854-7.094-4.854-7.094 0 1.867 1.12 4.107 1.12 6.347 0 0-1.493 1.494-2.987 1.494-1.12-.747-1.12-1.494-1.494-2.614-1.12-2.24-3.36-4.48-3.733-6.721-.374 0-.374.374-.374.374 0 3.734.374 10.08 2.614 12.695 1.867 2.24 3.36 2.24 5.601 2.614l1.867-.374-1.494-2.24c1.494-.747 3.734-2.241 3.734-4.481m10.455 3.734-1.12-3.734-2.614 6.72c-2.987 2.988-6.348 3.362-8.215 4.855-1.493.374-1.493-.747-2.24 0 0 .747 0 1.867 1.12 2.987h2.241l2.24-1.12c1.12-1.12 3.734-1.12 3.734-3.36 0-.374-.374-.747.747-2.241l3.734-1.12zm5.601 5.6-2.614-2.613c-.747 1.12 0 2.987-1.12 4.107 0 .747.747 1.12.373 1.494-.373.747-4.854 2.24-4.854 2.24-1.493 1.12-3.36 2.24-4.854 3.734-1.493.374-2.614-.373-4.481-.747v.747c.747 1.494.747 3.36 2.988 3.36 1.12 0 2.613 0 3.36-1.12 1.494 0 2.24-1.493 3.361-1.866 1.867-1.867 3.36-2.614 4.48-3.361q0-1.68 1.12-2.24c2.241 0 1.494-2.241 2.241-3.734m1.867 11.575c0-1.12-.374-5.601-.374-5.601-.747 2.614-2.613 5.227-4.854 5.227-1.12 1.12-2.24 2.24-2.613 3.36-1.121 1.12-2.241 0-3.734 1.12-1.494 0-3.361 0-4.854-1.12v1.12l2.613 2.988c2.614-.373 5.975 0 6.721-1.867 1.867-1.12 3.734-2.24 4.108-2.987v-1.12c.746-.373 2.24-.747 2.987-1.12m-1.867 19.043-1.494-5.601c-1.867-1.494-4.48-.747-6.721-.747 2.987.747 5.228 4.107 6.721 6.348.374.373.747 0 1.494 0m-5.228 4.48c0-1.493-.746-3.36-2.613-5.227-.374-.374-1.494-1.12-1.494-1.12 0 2.24 1.12 4.107 1.12 5.974 1.12.373 2.241 1.12 2.987.373m-4.48 5.6c-1.867-1.866-3.734-2.613-4.481-4.853 0 1.12-.373 2.24-.747 2.987.374 1.494 1.494 2.24 1.867 2.614 1.12-.374 1.867-.374 3.361-.747m27.257-28.377c-1.494-1.121-2.614-1.121-4.481-.747l-2.24 2.987h5.601zm-7.468 17.175c-1.12-2.24-2.24-4.48-4.481-5.227-1.12 0-2.987-.747-5.227 0 1.12.747 2.24 1.12 3.734 2.24l2.987 2.987zm34.352-39.58-1.12-1.12c-1.121 1.12-.374 4.108-2.241 4.482-1.867 0-3.36 1.867-4.107 2.24l1.494.747s.746.373 1.493 0c.747-.747 1.494-1.12 1.494-1.867.746-1.12 1.867 0 2.613-1.12.374-1.12.747-2.614.374-3.361m-27.631 36.592c-.373-2.24-1.493-2.987-3.36-5.6-1.121-.747-3.361-1.121-5.601-2.241.373 1.12 1.493 1.494 2.24 2.614s2.24 2.987 2.614 4.107c1.867 1.12 2.614 1.12 4.107 1.12m-17.922 13.069c-2.241.747-4.854 2.987-5.975 4.854-.746 1.493-1.12 3.36-1.12 4.48 1.494 0 2.614-1.12 2.987-1.866v-.374c1.867-2.24 3.734-4.107 4.108-7.094m28.75-26.884h-.746c-.374 0-2.988 1.12-3.734 1.867-.374 1.12-.374 2.24-.374 2.24h2.987zm29.871-17.55c-.373-.746-1.12-2.986-1.493-4.48-.747 2.24-1.494 5.6-4.107 5.6-.374 1.495-.747 2.24-2.241 3.36l-2.987.375c.374-1.494 2.614-1.494 1.12-3.734 1.494-1.12 2.614-1.12 3.361-2.987.747-1.12 0-2.614.373-3.361l-2.24-1.12c0 1.867.373 5.6-2.24 6.348-2.241-.747-2.614 2.24-4.108 3.36-.747 0-.747 1.867-1.867 1.12-1.867-1.12-4.107 0-5.974-1.12l1.867 2.987c1.494 1.12 2.987.747 4.481 1.12l2.987.374c2.987 0 5.601-1.494 8.588-2.614 1.493-.747 2.24-1.867 2.24-3.734.747-.373 2.24-.373 2.24-1.493m-53.767 50.407-1.121-4.854c-1.12 2.24-2.24 4.48-2.613 7.094zm7.094-10.828c-2.24 2.24-4.107 4.107-4.107 6.347 1.12 0 2.24 0 3.36-.746 0-1.867.747-3.361.747-5.601m42.939-31.738c-1.493 1.12-3.733 1.12-4.48 2.987-1.494.373-2.614.373-4.481.373-1.493-.373-3.36-.373-4.854-.373-.373 0 0 .373-.747.747-2.24-.747-4.48-.747-6.721-2.987l1.867 4.48c1.494 0 2.614.747 3.361.747 1.493.374 2.613.374 3.734.374v-.374c4.107 0 8.961.374 11.948-2.987zm-22.403 21.283c-.747-.747-2.987-1.494-4.48-1.494-2.241 1.867-3.734 4.108-5.975 7.095l5.975-1.12c1.12-.747 3.36-3.361 4.48-4.481m-12.695 16.429c0-2.614-.373-5.974-2.987-7.094l-.747 3.734c1.12.746 2.241 1.493 3.734 3.36m34.352-30.244c-1.867 0-3.361 0-4.481 1.867-.373 0-1.12 1.12-1.493.373-1.867-1.494-3.734 1.12-5.975.747-1.12-1.12-2.24-1.867-4.107-2.241v.374c0 1.12.747 2.24 2.24 2.987 2.241-.747 4.108 4.107 6.348 1.493 1.12-.373 2.24-.373 2.987-.373 2.614-1.12 3.361-3.36 4.481-5.227m8.588-14.19h-.374c-.747 1.12-1.12 2.24-1.867 2.24 1.12 4.109-1.12 7.469-1.867 10.83v1.12c1.12-1.867 4.108-3.734 3.734-5.601.374-3.361.374-6.348.374-8.588m-34.725 38.459c-1.867 1.12-5.228 1.493-4.481 3.734.747 1.867 1.867 2.24 2.614 2.987.373-2.614.746-4.481 1.867-6.721m-38.459 48.54-1.867-2.24c.373-3.734-1.12-6.348-1.12-9.708l-1.867 5.974c.373 1.494.746 2.987 1.867 4.854zm56.008-56.755h-1.12c-4.108-1.493-7.468 1.12-10.829 3.36 1.867.748 4.481 1.12 6.721 1.12l1.12-2.24c1.121-.373 2.988-1.493 4.108-2.24m-19.416 30.245c-.374-2.241-1.121-5.601-3.361-7.095 0 1.494-.747 2.24-1.493 3.36-.374 0 0-1.12-.374-1.12 0-.746-.747-2.24-.747-3.733-.746-.374-2.24-1.12-3.733-.374v1.12c-.374.747-.374 2.24-.374 2.988l-.373.373c-1.12-.373-1.12-1.12-1.12-1.867-.374-.747-1.121-1.493-1.121-2.614-1.493 0-2.24.374-3.36 1.12v3.36c0 .748 0 .748-.373.748l-1.867-1.867c-1.494 1.12-1.867 4.107-1.867 5.974 5.974 3.36 13.442 2.24 17.922.373.747-.373 1.494-.373 2.241-.746m10.828-20.537c-1.494-.373-4.107-1.12-4.854.747-2.241 3.36-1.12 6.348 0 8.96.747-2.24 1.12-4.48 1.493-6.346.374-1.494 2.614-2.24 3.361-3.361m-48.167 52.275-2.614-.747.374 1.867c.746 1.12 1.12 2.24 2.24 3.36zm63.102-57.875c-1.493 0-4.107 0-5.6 1.12-2.241 1.12-2.988 1.867-4.108 2.987 1.494 1.12 3.361 1.12 4.108 1.493 1.493-1.493 2.987-4.107 5.6-5.6m-10.455 10.454c-1.866-.373-3.36 1.494-5.227 2.24-.747 2.24-.747 4.48-1.494 5.602 1.494-1.121 4.855-1.121 4.108-4.481 0-1.12 1.493-1.867 2.613-3.361m30.992-26.51c0-2.24-1.494-4.107-1.867-6.348 0 2.24-.374 4.108-1.867 5.6 0 .748 1.12.748.373 1.868 0 0-2.24 1.12-2.24 2.614s1.493 2.614 2.24 3.734c0 .373 1.494-.747 1.494-2.987 0-.374 0-1.494-.374-2.241-.373-1.12 2.241-1.12 2.241-2.24m8.588-4.107c0-1.867-2.241-4.108-2.988-5.601.747 1.867.747 5.6 0 5.6-.746.374-2.24 0-2.24.747 0 1.12.374 2.614.374 3.36 0 1.494-1.121 2.24-1.121 2.988 0 2.24 2.614 2.614 3.361 4.107.373-1.493.373-2.987.373-4.854 0-.747 1.12-2.987 0-4.854 0-1.12 2.241-.373 2.241-1.493m-30.618 35.098c-2.24 0-4.854-1.12-5.974 1.12.746.374 1.493 1.494 2.24 2.24zm10.455-8.588-1.867-.747c-4.108 0-5.974 1.12-7.841 2.614 1.493 0 3.36 1.867 3.36 1.867 1.867-1.867 4.481-3.36 6.348-3.734m-15.309 23.524c-4.481 2.613-9.335 4.48-14.936 4.854 0-1.121 0-2.241-.373-2.614 4.48-2.24 8.588-4.107 12.322-7.468v-3.36c-3.734 3.734-7.842 7.467-12.696 8.588-.373-.747-1.866-1.494-2.24-2.988-2.614 1.867-5.601 3.734-8.588 4.108-1.12 0-1.867 4.107-1.867 4.107 1.867.747 2.987 1.867 3.734 3.734h1.494c1.12 0 1.12.747 1.12 1.867 0 2.24-4.854 2.24-7.094 2.24-2.614 0-4.481 0-5.975-1.12-.746 0-.373-1.12-.373-1.867 0-.373 1.12-1.12 1.12-1.12.747 0 1.494.747 2.24.747-.373-2.241.374-3.361 2.614-4.481l-.373-3.734c-4.481 0-7.468-1.867-10.828-3.36-1.121.746-1.867 1.867-2.614 2.987-4.481-1.494-12.322-7.468-12.322-7.468v2.614c3.361 2.987 7.841 4.48 11.202 6.347v2.614c-1.494.747-2.987 0-4.481 0-3.36-.373-6.721-1.867-8.961-3.734 0 1.12-.374 2.614-.374 2.614 4.108 2.24 9.335 4.107 14.189 3.36v1.494c-.373.747-.373 1.867-1.12 1.867-2.24 2.24-4.481 5.6-4.481 7.84l1.494.748c-.747 2.24-1.494 7.84 0 9.708-2.24 1.12-4.481 2.987-5.228 4.48-.746 1.867-1.493 2.988-1.867 5.228 1.121 2.24 1.867 2.987 2.988 5.227.746 0 1.867.374 2.24 1.12 1.867.374 2.987 2.24 5.227 1.12 1.494 0 2.987-.746 4.108-1.12 0-.746 0-1.12.746-1.866 2.241 0 2.241-2.241 3.361-4.108 1.12-.373 2.24-.373 2.987-.373 2.24-.747 4.107-.747 4.854-1.867 2.987 1.867 5.974 2.24 9.335 1.867.373 1.12 1.12 2.614 1.493 4.48.374-1.12.374 0 1.12 0 1.494 1.12 3.361 2.988 5.974 2.24 1.494-1.12 4.108-.373 5.601-2.24 1.12-1.493 1.867-3.733 2.987-5.6-1.12-2.241 0-5.228-2.24-6.348l-2.24-2.24c-.747 0-.747-.747-1.867-.747 1.12-2.614.373-6.348-.747-8.961.747.373 1.867.373 1.867 1.493.373-.373 0-1.12 0-1.493v-1.12c0-1.867-1.12-3.734-2.614-5.228-.747-2.24-2.613-5.227-5.227-5.601v-.746c5.601 0 10.081-1.494 15.309-4.108zm29.124-36.22c0-.746-1.12-1.493-1.494-1.493 0 0-1.866 1.867-2.24 3.734-.373 1.494 1.12 4.108 1.12 4.108.374 0 .747-.747 1.12-.747.374-.374 0-1.494.374-2.614 1.12-.747 1.867-2.24 1.12-2.987m30.244-25.764c0-.373-.746-1.12-.746-1.12-1.867 1.12-2.987 1.494-5.228 1.494 0 1.493-1.12 3.36-1.867 3.36-2.24 0-1.867-1.493-3.734-1.493l3.361 3.36c.373.747.373.747 1.12.747 1.12-.747 1.494-1.12 2.614-1.12 0-.747 0-1.12-.374-2.241 1.121-.746 1.867.374 2.614-.746 1.12-.374 2.24-.747 2.24-2.241M1175 723.67c0-1.121-.747-1.494-1.494-2.241 0 0-1.493 1.867-1.493 2.614 0 1.493 0 2.24.373 3.36 1.12-1.12 2.614-2.613 2.614-3.733m14.562-11.202c0-2.24-.373-4.854-.373-7.468-1.121 0-1.121.747-1.121 2.24-.373 2.24-1.12 4.108-1.866 6.348-.747 2.987-2.614 5.6-4.108 8.96-.373 1.495-2.24 2.242-3.734 3.362 1.867 0 3.734 0 5.228-1.494 0-.746.373-1.12 1.493-2.24 2.614 0 1.867-3.361 4.108-4.854-1.121-1.12-1.494-1.867-2.241-2.614 1.12-.747 2.241-1.12 2.614-2.24m-19.416 21.283c-1.12-1.12-4.107-1.494-6.348.373l2.987 1.494c1.121-1.12 2.614-1.494 3.361-1.867m-8.215 8.588c-.373-1.494-1.867 0-2.24 0h-3.36c-.374.747-.747 1.12-.747 1.867 1.493.373 2.614 1.12 3.734.373.746-1.12 1.493-2.24 2.613-2.24m32.858-29.498c0-1.493-.746-2.613-.373-4.107-.747 2.24-2.24 4.48-2.987 6.72 0 .374-.373.374.373.748.374 0 1.867 0 1.867-.374.374-.746 1.12-1.867 1.12-2.987m19.043-15.31c0-1.492-.373-1.866-.747-3.732-2.613.373-2.613 3.36-2.987 3.733-1.867 2.24-4.48.374-6.347.374-.747 2.24.373 2.24.373 3.734 1.12 0 2.241.746 3.361 0 1.867.746 2.987-1.12 4.854-1.12.373-.747 1.12-2.614 1.493-2.988m7.468-10.828c-.747-1.12-.747-1.12-1.12-2.24 0 1.867-2.24 2.987-3.734 6.347l1.494 2.614c1.12-.747 2.613-1.867 2.613-3.734 0 0-.373-1.12 0-1.867 0-.373.747-.373.747-1.12m-61.982 63.849c-2.241 0-3.361 1.12-4.481 3.36 0 1.12-.373 2.615 0 4.482.747-1.494.747-2.241 1.494-2.988 1.493.747 1.493-1.12 1.867-1.493.373-1.12 1.12-2.24 1.12-3.361m32.111-27.63c-3.361 1.867-5.227 5.227-8.215 8.588 2.988 0 3.734-2.987 5.975-3.361.746-.747 1.493-1.12 2.24-2.24zm23.523-21.283c-2.613 0-1.12 5.227-6.721 5.227-1.12 0-1.866-1.867-3.36-2.24 0 .373.373 2.613.373 2.613 0 .747.374 2.24 1.867 2.988 2.987 0 2.241-1.121 4.481-1.867 1.12-.374 1.867-1.121 3.36-1.121zm8.962-4.854c0-2.241 0-2.987-1.12-4.854l-2.241 3.36c.747 1.12.747 2.614 1.867 4.48.374 0 1.494-2.613 1.494-2.986m-72.437 71.69c0-.373-.747-3.734-.747-3.734l-2.987-.747 1.867 8.215c.746-1.494 1.867-2.987 1.867-3.734m65.342-58.622c-1.12.374-3.734.747-3.734 1.867 0 1.494-.746 1.867-2.613 1.867-1.494 0-2.614-.373-4.854-1.12 0 0-1.12 1.493-1.494 2.987.747.373 3.734 1.12 5.228 1.12 2.613 0 5.227 0 5.227-1.12 0-1.494 2.24-1.867 2.24-5.601m3.361 8.215c-2.614 0-5.228.746-5.601 1.867-.747.746 0 2.24-1.867 2.24-.747 0-1.867-1.12-1.867-1.12-.747-.374-2.987 1.12-2.987 0 0-1.867-1.493-2.614-3.36-2.614-.747 0-1.494 0-2.241.373v3.734c4.854 0 4.481 1.494 6.721 1.494 1.494 0 2.614-.747 3.734-.747 1.867 0 .747.747 2.614.747s2.614-1.494 3.734-1.867c0-1.12 1.12-2.614 1.12-4.107m-1.12 8.214c-2.987 1.867-7.468 2.987-10.082 2.987-1.493 0-5.974-1.867-7.467-3.36l-.747 3.36c2.24.374 2.24 2.24 3.734 2.24 1.12 0 2.613.374 3.733.374s1.867.747 2.241.747c1.867 0 1.12-1.867 2.24-1.867s1.867.747 2.614.747c1.867 0 3.36-2.987 3.734-5.228m-8.588 8.215c-2.241 0-2.614.373-4.107.373-1.867 0-4.108-.747-5.228-2.614-.747 1.494-.373 2.24 0 3.36 1.12 1.12 2.987 2.615 4.481 2.615 2.613 0 4.854-1.867 4.854-3.734m.373 5.6c-2.614.747-4.107 1.868-6.347 1.868-.747 0-4.108-1.121-4.481-1.867-1.12 1.493.747 4.48 2.24 5.227s2.241.373 2.987 0c0-2.24 2.614-1.12 4.108-1.867.746-1.12 1.12-1.867 1.493-3.36m8.962 42.939h-4.108c-.747 1.12-1.867 0-2.614 0s-1.12 0-2.613 1.12c2.24 0 3.36 1.12 5.227 1.867 1.494-1.12 2.987-1.493 4.108-2.987m-93.721-112.763c-1.867 3.36-2.24 8.588-2.24 9.708 0 1.867 0 4.48 1.12 6.348l-4.107-.747c-1.12-1.494-1.494-2.24-1.494-2.987l1.867.747c.374 0 .747-.747 1.12-1.494-.373-1.867-2.613-1.867-3.36-2.614-1.12-3.733 2.24-5.974 2.614-8.961zm6.348 10.082c-.374 0 .373-.747-3.361 2.987-.746 0-1.867-2.241-1.867-2.987 0-2.987.747-7.095 1.867-10.082h2.987c0 3.36.374 7.095.374 10.082m8.214-.374c0 1.494-1.12 1.867-2.613 1.867-.747 0-2.614-1.12-2.614-1.867 0-1.493-.747-9.708-.747-9.708h2.614c1.12 3.36 3.36 7.84 3.36 9.708m49.287 4.48-3.733-.373c1.493-.746 1.493-2.613 1.493-2.987 0-1.12-.747-2.24-1.493-2.987-.747.747-.747 1.867-1.494 2.987-.747 0-1.12-1.867-1.12-2.613 0-3.361 1.493-5.975 2.614-8.215h3.36c-.373 2.987-1.12 5.6-1.12 8.96 0 1.868 1.12 4.109 1.493 5.229m81.026 34.35c0 16.43-6.721 32.86-18.67 44.808-5.227 5.227-11.202 7.84-15.682 13.069-2.24 2.24-4.107 4.48-5.601 7.467-1.867 1.867-2.987 2.987-5.227 4.108l1.12-3.361h-.374c-1.866 0-3.733 1.12-5.227 2.24l1.494 1.494c-.374.747-1.494.747-2.241.747-5.974 1.12-11.575-2.241-17.549-3.361v-.747c3.734-1.12 4.481-5.6 6.721-7.841h2.24c.747 0 1.867-.746 2.614-.746 0 .746-.747 2.24-.747 2.24q1.12 1.12 2.241 0c1.867-1.12 4.48.747 6.347-2.24-2.24 0-4.48 0-6.347-1.121 0-.373 1.12-1.12.746-1.867-1.867.747-4.107 0-4.854 1.494l-.373-.373c2.24-2.614 5.601-4.854 8.961-5.975 4.854-.746 8.962 1.494 13.816.374 17.175-8.215 29.124-27.631 29.124-47.047 0-27.631-15.682-38.832-25.764-38.832-1.867 0-4.854 1.12-5.974 2.24 1.12 4.107 1.867 8.588 1.867 15.309 0 16.056-6.348 33.23-14.936 42.193-4.107 4.107-8.588 7.467-13.442 7.467-2.24 0-4.48 0-5.974-1.867-1.867-1.493-2.987-4.48-2.614-6.347-2.987-2.24-7.841-3.361-11.575-3.361-4.107 0-9.334 1.494-14.188 5.228v5.6c-1.12.374-4.854 2.614-2.987 4.48 1.12-.372 1.867-1.12 2.24-1.492-.373 2.613-.373 5.6-2.24 7.84-.747 0-1.867 0-2.988.748-1.12 1.12-2.24 2.613-2.24 4.48 1.12-1.867 2.987-1.12 4.107-2.24-1.867 4.48-1.12 6.348-4.48 13.069-.747 3.36-4.107 5.227-6.348 7.467-1.12.747-1.493 1.867-2.987 1.867-1.493.374-1.493 2.24-1.493 3.36.373 0 1.493-.746 2.24-1.12-2.24 5.228-3.734 10.829-8.588 13.816l-1.12-.747h-5.974c.746.747 2.24 1.12 3.36 1.867-1.12 1.12-1.867 1.494-4.107 1.494-1.12-.374-2.614-1.494-4.107-1.494h-.374c0 1.12-.373 2.614 1.867 3.36-2.24.374-4.107.374-6.721 0-.373-1.866-1.493-2.987-1.493-4.48-1.121-.747-1.494-1.867-2.614-2.987 0 2.24 1.12 4.48 1.493 6.72-1.493-.373-3.36-1.493-4.107-1.493-2.987 1.494-6.721 2.987-8.214 2.987 2.24-1.493 1.12-4.107 1.493-5.974l-1.493.747c-.374 1.493-2.241 2.614-2.614 4.48-2.24 0-3.734-.746-5.601-1.866v-.374c1.12 0 2.614-1.12 3.361-2.24-2.614 0-4.481 1.12-7.095 1.12 0 0 0 .373-.373.373-1.12-.373-2.24-1.493-2.987-2.24-2.614-2.24-4.481-4.107-5.601-7.468.747 0 1.867 0 2.24-.373-1.493-.373-2.24-2.24-3.734-2.614v-5.601c-1.12-1.12-2.613-2.24-3.36-4.48-1.867-5.974-2.24-12.695-2.24-20.163-.374-1.494-1.121-1.867-1.867-2.24v-5.975s2.24 2.24 3.36 2.987v-4.854c-1.493 0-2.614-1.867-2.614-2.987 0-1.493.374-2.987.374-4.48 0-.747 0-.747.373-1.494 0 .747.747 1.494 1.867 1.867 0 0 .747.747 2.24.747-1.12-1.12-1.493-2.614-2.24-4.107l-1.12-1.121s-.373-.746-.373-1.12c1.493-7.841 3.733-14.562 6.721-22.03-2.988-4.854-6.348-14.188-8.588-23.15-1.867 1.867-4.481 2.24-6.721 2.24-2.241-.373-4.481-1.12-5.974-3.36-2.241 1.12-5.228.747-6.722-.747-3.36-2.987-3.36-4.48-3.36-6.721-.747-.746-2.24-2.613-2.24-5.227 0-3.36.373-5.601 2.24-8.588h56.755c-.374 1.12-1.12 2.614-1.867 3.36-1.12 2.24-.373 5.228-.373 7.468 1.12 2.24 2.24 4.48 3.733 6.348.374 1.12 0 1.12.374 1.494l2.614.746c1.493 0 2.613 1.12 4.48 1.12 1.12-1.866 1.12 1.12 2.987 1.867 4.108.747 8.215 0 10.455-2.987 0-.746.373-.746.373-1.12h-1.866c-2.241 1.12-4.854 2.24-7.468 1.12 0-1.12-.374-1.12-.374-2.24v-1.867c1.494 0 2.614-1.494 4.108-2.24.746 1.12 2.987 2.24 4.48 2.24 1.867 0 4.481-1.12 4.481-4.107v-4.107c1.494-1.494 3.36-1.867 5.227-2.614-.746-1.494-1.867-1.494-2.987-1.494h-2.987c-.373.374-1.12.374-1.12 1.494-1.12-1.494-1.867-2.987-2.614-4.481h43.687c-.747 1.494-1.494 2.614-1.867 3.36-.747 2.24-.747 5.228-.747 7.468l4.107 5.6c2.241 0 4.107.748 8.215 1.12.746 1.122 0 1.868 3.36 1.868 2.614 0 4.481-.746 5.228-1.12.373-.747.373-.747 0-1.493-.747-.747-2.241.746-3.361.373-.747-.747.374-1.12.374-1.867.746-.747-3.361.747-3.361.747s-.747-2.241-1.12-2.987l2.24-2.241c.747-1.12-1.12-2.24-1.12-3.36-.747.373-2.24 1.493-2.24 1.12-.747-2.987 0-5.601-.374-8.588h4.108l.373 6.348c.373 3.734 4.854 10.455 7.468 10.455 1.493 0 2.614-.747 3.734-1.494.746-1.494 2.613-2.24 2.613-2.987s-1.12-1.12-2.987-1.12c-.746 0-.746 1.12-1.867 1.867l-2.24-2.241s2.614-2.24 2.614-3.733c0-1.867-.374-2.614-1.494-3.734l-2.24 4.48c-1.12 0-2.987-2.24-2.987-3.36 0-1.494-.747-2.241-.747-4.481h23.15c2.614 0 4.854.747 7.468 2.24h4.48c9.335 0 16.803 2.614 23.524 9.335 8.961 8.96 14.189 23.15 14.189 36.965m-39.953 56.382c-.747 1.494-2.24 2.24-3.36 2.24-1.121 1.494-2.614 3.36-4.108 3.36 1.121 0 2.614 1.12 4.481 1.12.747-1.866 2.24-2.986 2.614-4.48z" clip-path="url(#c)" style="fill:#ff6200;fill-opacity:1;fill-rule:nonzero;stroke:none" transform="matrix(.3874 0 0 -.3874 -212.031 385.316)"/></svg>