<svg xmlns="http://www.w3.org/2000/svg" width="640" height="360" viewBox="35.433 35.357 272.126 128.506"><path fill="#003671" d="M158.553 73.807v10.579c-5.874 2.941-11.46 4.411-17.042 4.411-15.425 0-24.682-9.11-24.682-20.574 0-12.348 10.578-22.633 24.093-22.633 3.378 0 5.877.586 8.522 1.472 1.912.585 3.086 1.321 4.26 1.321 1.03 0 1.324-1.764 1.471-2.793h1.47l1.323 14.255h-1.764c-.738-2.791-2.055-5.144-3.823-6.76-2.79-2.79-6.61-4.262-11.017-4.262-9.256 0-14.692 7.35-14.692 18.372 0 10.873 6.612 18.372 15.426 18.372 2.647 0 4.995-.589 7.935-1.912V72.777c0-3.53-.589-4.85-5.584-4.85v-1.613h18.66v1.613c-4.7 0-4.556 1.468-4.556 5.88m-51.275-17.342v31.598h-2.496L73.189 55.435c.147.881.147 1.619.147 2.499v19.841c0 6.169 0 8.377 5.586 8.377v1.613H64.084v-1.613c5.58 0 5.58-2.644 5.58-8.377v-22.63c0-3.382 0-7.056-5.874-7.056v-1.616h13.958l26.005 26.743c-.149-.73-.149-1.173-.149-2.2v-14.55c0-5.88.15-8.377-5.436-8.377v-1.616h14.841v1.616c-5.436 0-5.73 2.35-5.73 8.376m-71.846 31.3v-1.613c3.529 0 6.023-.295 6.023-5.439V53.527c0-5.293-1.91-5.438-6.023-5.438v-1.616h20.865v1.616c-4.261 0-6.025.145-6.025 5.438v27.186c0 5.144 2.204 5.439 6.025 5.439v1.613z" style="stroke-width:.2048" transform="translate(27.213 37.533)"/><path fill="#fff" d="M173.663 87.921h59.567l2.655-4.498 1.64-9.013-3.14-9.768-4.16-6.01-2.12-.684-1.71.75-.682 2.733-8.202 1.229-4.298-3.21-3.829-9.563-2.319-6.627-.481-2.73-1.093-1.3-5.944-.956-3.618 1.775-4.372-1.775-3.826-.136-1.431 2.392-.89 1.707-1.23 3.074-1.023 4.44.751 7.103.413 5.261-.277 3.072 1.299 5.055-1.367 4.097-2.117 5.398-1.367.684-1.98-.89-2.118 1.163-2.254.888-1.366 2.048.204 3.141zM235.585 47.5l-1.63-1.437-4.207-.925-.193-1.54 2.876-.822 1.81 1.436 1.63.309.858.101 2.683 3.39z" style="stroke-width:.2048" transform="translate(27.213 37.533)"/><path fill="#eb6606" d="M200.586 55.48v-.823h-1.508l-.135.273zm-7.666-.823c-.41-.41-.955 0-1.64-.137 0 .137-.137.549.272.82.55-.41 1.227-.683 1.368-.683m9.442-7.803s.273 0 0-.137l-3.148-.274c-.41.274-.958.274-1.094.687l-.274.136c.274 1.097.274 2.327.274 3.557.548.138 1.23.55 1.23 1.371.55.274 1.236.409 1.643.82.274-.136.548-.546.684-.956-.684-.685-1.917-.274-1.917-1.505l-.817-.41c0-.827 0-1.645-.275-2.193l.275-.274c0 .274.135.41.407.687.55 0 1.236.135 1.643-.277.274-.136.274-.82.684-.82.138 0 .548 0 .685-.412m-8.347.276c0-.275-.274-.55-.685-.687h-3.421c0 .412.411.823.821.823 0 .41.413.684.686.82.272.277.549.277.957 0 .406.277.547-.41.684 0 0 .822 0 1.23-.137 1.917-.141.958-1.094.82-1.64 1.37-.137.27-.55 1.095-.137 1.505.409-.275.822-.41 1.367-.684 0-.41.547-.821 1.092-1.233 0-1.232.413-2.463.413-3.831m1.232-3.285c-.409-.277-1.232.135-1.645.41-.545.136-1.092.545-1.092.958h1.641a9.5 9.5 0 0 1 1.096-1.368m4.788 1.368c0-.413-.136-.413-.275-.546-.682 0-.682-1.099-1.229-.822-.411 0-.685-.277-.956 0-.14.135 0 .135.136.135.82 0 .409 1.095.957 1.233zm4.79-.822c.276-.823.414-2.053-.137-2.873-.41-.41-1.095-.821-1.78-1.233l-1.093.412c-.548.411-.822.821-.822 1.641.96.412 2.055 1.507 2.463 2.462h.41c.412-.409.822 0 .958-.409m-12.723-2.053c-.136-1.37-1.78-1.641-2.6-2.053h-.41c-1.233.274-1.508 1.504-1.644 2.465.412 1.23 1.231.408 1.914 1.23.548-.412 2.055-1.368 2.74-1.642M175.27 84.224c-.138 0-.55-.412-.956-.412-.415.82 0 1.507 0 2.462 0 .276-.138.827-.138.827-.277 0-.823-.69-1.095-1.098v-2.326l1.366-1.644c.823.546 1.095 1.369.823 2.19m3.83-1.644c0 .682-.135 1.233-.547 1.645-.136-.547-.546-1.234-1.231-1.234-.547 1.093-.686 1.503-.138 3.284-.409.276-.822.416-1.233.827-.271-.69-.409-1.647-.409-2.194 0-.957.271-1.917.545-2.738.275-.543.688-1.23 1.097-1.645l1.507-.133c-.548.133-.548.823-.548 1.235.274.133.958.267.958.953m4.925.823c0 1.23-1.78 2.872-1.78 2.872 0-.82.276-1.642.412-2.462 0 0-.548-.55-1.231-.55-.41.14-.41.55-.547.962-.411.821-1.233 1.637-1.504 2.466-.134 0-.134-.14-.134-.14 0-1.231.134-3.835 1.09-4.791.824-.82 1.23-.82 2.052-.96l.823.14-.549.82c.55.274 1.368.82 1.368 1.643m23.126.41-.408.412c-.412-.412-.14-1.645-.823-1.783-.682 0-1.233-.682-1.505-.815l.408-.277s.415-.135.685 0c.276.277.548.41.548.82.275.272.687 0 .958.272.137.412.274.96.137 1.37m4.928-2.052c-.139.41-.275 1.094-.413 1.643-.408-.823-.684-2.053-1.641-2.053-.136-.55-.273-.958-.822-1.235l-1.23-.136c.136.413.958.546.55 1.37.408.41.954.41 1.23 1.093.272.412 0 .96.136 1.37l-.958.413c0-.822.272-2.055-.822-2.465-.821.274-.958-.82-1.507-1.235-.27-.133-.27-.82-.682-.41-.682.41-1.643 0-2.329.41l.686-1.23c.546-.41 1.231-.138 1.779-.41l1.096-.138c1.233 0 2.189.548 3.286.958.545.41.82.82.82 1.51.408.135.96.135.821.545m22.162-.133c-.274.407-.4.543-.542.815 0-.682-.823-1.092-1.365-2.327l.542-.958c.552.138.965.548.965 1.235 0 .133-.142.548 0 .823 0 .135.4.135.4.412m-46.248.407-.411 1.369-.956-2.463c-1.232-1.235-2.462-1.371-3.285-1.783-.41-.272-.41.138-.82 0 0-.41.136-.82.548-1.23h.82l.82.41c.548.41 1.505.41 1.505 1.232 0 .275-.134.41.14.823l1.503.548zm41.874-1.509c0 .14-.273.415-.273.415-.68-.415-1.228-.684-2.053-.684 0-.412-.272-1.099-.546-1.099-.958 0-.823.412-1.504.412l1.233-1.232c.132-.272.271-.272.545-.272.408.272.545.41.958.41 0 .272 0 .41-.134.82.273.274.681 0 .954.274.411.136.82.41.82.956m-16.147.825h-.135c-.275-.41-.409-.825-.685-.825.41-1.64-.41-2.873-.683-4.242l-.138-.407c.544.682 1.64 1.366 1.506 2.189.135 1.23.274 2.327.135 3.285m-23.537-1.371-.958.96c-.27-.414 0-1.234-.548-1.644 0-.138.412-.41.277-.548-.277-.272-1.917-.82-1.917-.82-.684-.411-1.233-.823-1.78-1.505-.683-.14-1.093.275-1.78.41-.136-.135-.136-.41-.136-.41.413-.413.413-1.23 1.233-1.23.41 0 .958 0 1.366.407.55 0 .825.55 1.23.684.687.821 1.235.959 1.784 1.369-.14.413.135.685.406.823.823 0 .548.82.823 1.504m45.023-2.19c0 .824 0 1.096-.41 1.78l-.955-1.232c.4-.41.4-1.095.818-1.64.137 0 .547.955.547 1.092m-24.358.958c-.684-.41-1.507-.41-1.917-1.095-.409-.136-.958-.136-1.643-.136-.545.136-1.232.136-1.78.136-.136 0 0-.136-.27-.41-.824.41-1.783.41-2.604 1.233l.685-1.643c.546 0 .958-.41 1.368-.41.413-.14.959-.14 1.369-.14v.14c1.645 0 3.421-.14 4.654 1.23zm20.529-1.231c0 .549-.137.682-.273 1.369-1.1-.138-.957-1.233-1.237-1.37-.548-.818-1.64-.273-2.462-.273-.136-.82.272-.82.272-1.233.416 0 .825-.41 1.237-.133.68-.277 1.09.407 1.777.407.273.414.55.959.686 1.233m-40.51-2.052c0 .412-.138 2.188-.138 2.188-.274-1.094-.958-2.053-1.775-2.053-.549-.407-.96-.82-1.097-1.23-.411-.41-.82-.138-1.367-.41-.55 0-1.233 0-1.916.272v-.273l.958-1.234c1.094.274 2.325 0 2.737.821.545.413 1.232.686 1.502 1.093v.415c.276.139.823.275 1.096.411m6.022-.272c-.55.407-1.097.407-1.644.272l-.823-1.233c.547.138 1.37.138 2.057 0zm23.953.684c0 .682-.964 1.64-1.232 2.189.268-.823.407-2.19 0-2.19-.277-.139-.83.134-.83-.276 0-.407.14-.961.14-1.368 0-.409-.41-.686-.41-1.093 0-.824.958-.96 1.233-1.508.274.548.135 1.232.135 1.78.139.412.41 1.228.139 1.918 0 .408.825.136.825.548m-10.404 0c-.686 0-1.235 0-1.643-.684-.14 0-.41-.413-.686-.14-.546.547-1.366-.414-2.189-.273-.412.413-.96.685-1.505.82l-.138-.135c0-.412.41-.826.823-1.233.956.407 1.643-1.507 2.6-.409.273.136.822.136 1.095.136.957.273 1.23 1.234 1.643 1.917m-9.718-.822h-.135c-.277 0-1.236-.415-1.509-.822-.134-.273-.134-.686-.134-.686.407 0 .684-.136 1.092-.136zm31.065.823c-.96 0-.408-1.917-2.466-1.917-.545 0-.817.679-1.365.82 0-.141.14-.957.14-.957 0-.413.133-.824.68-1.233 1.093 0 .82.409 1.642.683.548.137.824.55 1.37.55zm-14.37-1.507c0 .823-.41 1.64-.55 2.463 0-.957-.27-1.64-.818-2.194 0-.27.41-.407.137-.68 0 0-.821-.413-.821-.96 0-.684.548-1.097.821-1.509 0-.133.545.28.545 1.1 0 .273 0 .55-.133.957-.14.412.818.412.818.823m6.708-2.74c0 .549-.276.96-.135 1.51-.413-.825-.83-1.65-1.235-2.467-.137 0-.27 0-.27-.136l.402-.274c.274 0 .69 0 .69.274.272.276.548.682.548 1.094m8.347 1.094c-.416-.135-1.365-.275-1.365-.682 0-.553-.278-.686-.957-.686-.689 0-1.1.133-1.92.413 0 0-.413-.55-.55-1.097.277-.136 1.37-.55 1.917-.55.964 0 2.052 0 2.052.55 0 .41.823.684.823 2.052m-35.857-2.872c-.133.82-.545 1.093-1.23 2.049-.545.277-1.368.413-2.19.823.136-.41.548-.546.822-.955.408-.413.823-1.097.955-1.647.69-.27 1.098-.27 1.643-.27m25.46 1.917c0 .82-.141 1.917-.141 2.869-.409 0-.409-.407-.409-.816-.272-.824-.41-1.644-.68-2.466-.415-1.234-1.099-2.188-1.645-3.424-.138-.682-.826-.958-1.37-1.368.683 0 1.37.137 1.916.55 0 .41.135.547.545.959.962 0 .824 1.228 1.643 1.915 0 .134-.27.134-.409.413-.272 0-.41.544-.41.544.41.273.819.411.96.824m-28.058-3.15c-.413.823-.822 1.643-1.642 2.053-.548 0-1.23.273-2.053 0 .41-.41.823-.55 1.368-.82l1.231-1.233zm8.21 2.053c-.41.273-1.232.41-1.639.41-1.099-.546-1.099-1.64-2.055-2.051-.14-.14-.275-.412-.275-.548l2.33.408c-.14.41.135.551.407.551zm16.147 0c-.134.273-.41.41-.544.41 0 0-.686-.68-.821-1.23-.14-.684.272-1.643.272-1.643.136 0 .273.274.55.274.133.136 0 .548.133.96.276.41.687.82.41 1.23m-28.188-2.464-.682 2.053c-.688.683-1.644.41-2.464.41 1.232-.41 2.052-1.641 2.464-2.463.27-.136.407 0 .682 0m16.968 1.643h-.408c-1.643.41-2.878-.55-4.11-1.369.822-.274 1.508-.274 2.054-.41h.413l.546.818c.41.14 1.097.551 1.505.961m26.548-.138c-.951 0-1.914-.413-2.053-.823-.27-.272-.133-.818-.682-.818-.406 0-.683.41-.683.41-.414.136-1.234-.41-1.234 0 0 .685-.681.96-1.233.96-.409 0-.545 0-.958-.142v-1.369c1.918 0 1.78-.682 2.602-.682.546 0 .958.412 1.506.412.682 0 .276-.273.959-.273.688 0 .953.543 1.505.684 0 .41.271.958.271 1.641m-45.43-3.286c0 .546-.412 1.37-1.099 2.055-.133.136-.544.408-.544.408 0-.818.411-1.641.411-2.327.409-.136.82-.411 1.232-.136m21.349 1.78c-.687 0-1.645 0-2.19-.41-.826-.548-1.097-.824-1.508-1.234.55-.411 1.231-.411 1.643-.546.41.546 1.093 1.643 2.055 2.19m6.839-.684c0 .408-.273.549-.546.821 0 0-.548-.684-.548-1.095 0-.412 0-.822.136-1.232.412.41.958.956.958 1.505m6.295.275c-1.23-.824-2.05-2.055-3.142-3.284 1.092 0 1.502 1.091 2.32 1.229.278.275.552.41.822.821zm-25.455-3.423c0 .96-.138 2.19-1.09 2.6l-.415-1.37c.547-.27.96-.68 1.505-1.23m-3.01 2.19c-.82-.822-1.51-1.64-1.51-2.46.415 0 .824 0 1.237.41 0 .683.408 1.228.274 2.05m39.14-.137c-1.233-.547-3.012-1.092-3.97-1.092-.545 0-2.19.682-2.872 1.365l-.272-1.365c.955-.138.955-.822 1.5-.822.413 0 .96-.14 1.375-.14.405 0 .678-.409.958-.409.544 0 .269.82.817.82.413 0 .549-.27.959-.27.688 0 1.368 1.09 1.505 1.913m-32.982.136c-.687-.411-1.916-.546-1.78-1.366.41-.684.82-.823 1.093-1.233.14.96.275 1.778.687 2.6m12.591-.822-.684.275c-1.505 0-2.328-.413-3.012-1.094.548 0 1.37-.549 1.37-.549.685.55 1.642 1.23 2.326 1.368m-26.684-1.368c-.549.55-1.234.96-1.644 1.778 0-.41-.135-.817-.273-1.229.138-.41.548-.82.82-.959.276.14.684.14 1.097.41m17.512 1.643c-.546.135-1.504.41-1.914-.275-.823-1.229-.275-2.463.136-3.417.274.819.412 1.64.547 2.46.139.55.957.82 1.231 1.232m10.812-2.327c-.547.274-1.64.413-2.46-.138l1.093-.682c.41.409.959.682 1.367.82m15.47-.412c-.828 0-1.1-.134-1.781-.134-.552 0-1.371.408-1.919.96-.275-.414-.133-.825 0-1.234.409-.413 1.094-.958 1.78-.958.962 0 1.92.82 1.92 1.366m-40.376 1.506c-.958-.27-1.914-1.094-2.325-1.914-.276-.545-.409-1.233-.409-1.782.545.137.957.549 1.232.824v.134c.545.824 1.366 1.644 1.502 2.738m1.78-2.327-.273 1.917c-.549-.822-.959-1.642-1.095-2.737zm14.095 1.646c-.823.271-1.37-.413-1.917-.824-.41-.822-.41-1.642-.682-2.191.682.549 1.776.549 1.64 1.782 0 .409.55.82.959 1.233m3.285-1.646c-.822 0-1.78.413-2.188-.412.27-.133.545-.543.958-.82zm21.35-1.37c-.962-.27-1.644-.546-2.467-.546-.409 0-1.642.276-1.777.547-.414-.41.277-1.637.819-1.913.549-.274.958-.136 1.237 0 0 .822.954.412 1.501.683.273.408.553.82.687 1.23m-18.748-.683c-.275.412-.685 0-.96 0h-1.232c-.138-.408-.274-.547-.41-.818.687-.136 1.094-.412 1.507-.136.41.407.545.954 1.095.954m-11.774-2.188c-.133.822-.41 2.188-1.229 2.6 0-.412-.411-.82-.685-1.23-.135 0 0 .41-.135.41 0 .408-.136.82-.136 1.505-.415.135-.962.41-1.507.135v-.412c-.275-.408-.275-.82-.275-1.228l-.133-.14c-.277.14-.277.548-.277.82-.137.14-.545.548-.545.96-.415 0-.823-.135-1.236-.412v-1.367c0-.271 0-.271-.135-.271l-.688.818c-.54-.547-.678-1.641-.678-2.464 2.322-1.23 5.06-.82 6.842-.132.27.132.545.132.817.408m10.679-1.097c-.82 0-1.235-.41-1.643-1.231 0-.409-.14-.96 0-1.642.136.41.272.822.546 1.093.548-.271.548.41.684.549.14.411.413.821.413 1.231m-3.01-6.708c0 .14-.277 1.231-.277 1.231l-1.095.415.687-3.15c.27.546.685 1.095.685 1.504m-21.758-2.326-.551.822c.138 1.504-.545 2.465-.545 3.695l-.685-2.191c.136-.683.275-1.23.685-1.914zm21.482 8.624c-1.643-.96-3.56-1.641-5.612-1.78 0 .41 0 .82-.136.959 1.643.821 3.283 1.641 4.652 2.875v1.233c-1.37-1.37-3.01-2.877-4.928-3.287-.136.274-.543.685-.82 1.099-.959-.689-2.053-1.235-3.281-1.509-.415 0-.548-.55-.548-.96l-.14-.683a1.76 1.76 0 0 0 1.371-1.368c.135.137.409.137.681.137.276-.137.276-.412.276-.823 0-.819-1.778-.819-2.6-.819-.958 0-1.644-.14-2.327.41-.274 0-.14.409-.14.684 0 .136.414.412.414.412.409 0 .548-.276.823-.276-.14.822.273 1.368.955 1.643l-.133 1.232c-.413.411-1.097.136-1.645.411l-2.463 1.23c-.409-.41-.684-.82-.957-1.23-1.369.41-2.189 1.23-3.557 2.054-.411.273-1.096.821-1.096.821-.137-.136 0-.548 0-.958 1.23-1.233 2.873-1.643 4.242-2.467v-1.093c-.548-.137-1.094 0-1.778 0a9.7 9.7 0 0 0-3.42 1.504c0-.411-.276-.821.134-1.092 1.507-.822 3.286-1.37 5.2-1.233v-.547c-.136-.275-.136-.686-.411-.686-.819-.96-1.639-2.05-1.639-3.01l.408-.277c-.272-.818-.408-2.873 0-3.83-.82-.273-1.64-1.095-1.912-1.64-.275-.688-.55-1.096-.685-1.918.274-.82.685-1.231 1.09-2.053.276 0 .687-.136.824-.412.683-.136 1.231-.821 2.053-.41.548 0 1.095.274 1.504.41 0 .276 0 .412.413.686.814.136.814.96 1.229 1.64.408.14.821.14 1.23.14.823.272 1.369.272 1.783.683 1.091-.684 2.324-.823 3.553-.684.14-.548.415-.96.55-1.643.276.274.137-.136.41-.136.685-.41 1.369-1.096 2.328-.822.682.412 1.64.136 2.053.958.546.412.82 1.233 1.232 2.053-.412.82 0 2.053-.823 2.462l-.822.824c-.272 0-.41.271-.822.271.412.96.138 2.468-.273 3.421.273-.134.685-.134.823-.544.136.136 0 .41 0 .544-.138.277-.138.413-.138.413.138.824-.412 1.504-.958 2.055-.272.819-.958 1.916-1.915 2.052v.411c2.051 0 3.834.41 5.748 1.503zm30.787-9.034c-.412-.41-.82-.821-1.368-.821-.407-.548-.95-1.23-1.507-1.23.415-.138.961-.412 1.645-.412.41.682.818 1.23.958 1.642zm-52.545-1.642-.958.409.138-.819c.273-.411.41-.824.82-1.232zm48.172-1.367c-.547 0-.954.133-1.513 0-.268-.276-.676 0-.949.133-.278 0-.546-.133-.957-.409.817 0 1.23-.546 1.906-.823.559.412 1.099.687 1.513 1.099M203.32 84.224c0-.547-.411-.822-.958-.822-.41 0-.957.548-.957.822 0 .549-.412 3.694-.412 3.694h1.096c.411-1.368 1.231-3.01 1.231-3.694m-3.145-.141h-.14l-1.092-1.093h-.14c-.272.271-.41.687-.683 1.093 0 1.236.411 2.607.684 3.835h1.231c0-1.368.14-2.599.14-3.835m22.034-1.642-1.366.138c.408.411.408.959.408 1.233 0 .412-.138.82-.408 1.096-.415-.276-.415-.684-.69-1.096-.274 0-.409.68-.409.96 0 1.368.545 2.33.96 3.147h1.369c-.14-1.23-.41-2.192-.41-3.426 0-.681.41-1.503.546-2.052m30.925-13.14c0-5.749-1.914-11.907-7.117-17.107-.83-.821-1.913-1.782-3.013-2.465-2.053-1.366-3.963-3.286-5.064-5.338-.684-.823-1.23-1.233-2.055-1.641.141.408.41.818.548 1.23h-.138c-.815 0-1.498-.412-2.053-.822l.555-.546c-.137-.274-.555-.274-.829-.274-2.454-.41-4.509.82-6.698 1.23v.277c1.368.546 1.645 2.19 2.46 3.01h.83c.405 0 .818.411 1.087.275 0-.275-.27-.687-.27-.823.27-.273.547-.273.82 0 .68.41 1.771-.273 2.317.823-.814 0-1.637.136-2.318.409 0 .137.417.547.274.824-.684-.277-1.505 0-1.91-.687l-.143.274c.96.958 2.196 1.78 3.426 2.192 1.91.41 3.552-.549 5.333-.139a17.6 17.6 0 0 1 5.063 3.56c4.516 4.79 6.162 9.852 6.162 14.368 0 5.614-1.646 9.584-4.108 12.047-1.51 1.51-3.424 2.875-5.75 2.875-.546 0-1.644-.138-2.326-.684.408-1.645.682-3.423.682-6.02 0-1.512 0-5.478-1.912-10.132-.415-.958-1.922-3.971-3.834-6.02-1.506-1.507-3.285-2.877-5.058-2.877-.825 0-1.646.138-2.334.689-.68.68-1.092 1.778-.953 2.596-1.233.683-3.014 1.232-4.519 1.232-1.778 0-3.692-.96-5.338-2.05V57.53c-.958-.41-1.23-.82-1.365-1.642l.135-.14c.41.14.688.412.957.551-.136-.96-.269-2.053-.818-2.874q-.617 0-1.236-.412c-.543-.411-.819-.956-.819-1.641.413.685 1.096.411 1.506.821-.687-1.641-.41-2.465-1.643-5.064-.409-1.235-1.642-1.917-2.464-2.739-.408-.411-.547-.823-1.23-.823-.41-.137-.41-.818-.544-1.23.272 0 .544.274.818.412-.684-2.053-1.368-4.108-3.288-5.34l-.272.276c-.822.133-1.64.133-2.326.133.273-.409.82-.545 1.368-.817-.547-.412-.956-.55-1.777-.55-.276.138-.96.55-1.506.55h-.138c0-.412-.134-.963.684-1.233-.818-.14-1.505-.14-2.461 0-.14.684-.686 1.095-.686 1.641-.41.409-.548.82-.956 1.232 0-.956.408-1.778.546-2.603-.546.138-1.229.551-1.643.551-1.096-.55-2.463-1.233-3.014-1.233.823.682.415 1.645.55 2.462l-.55-.409c-.27-.546-.814-.958-1.091-1.641-.82 0-1.368.27-2.052.684l-.134.137c.546 0 1.093.412 1.366.82-.96 0-1.642-.408-2.598-.408 0 0 0-.138-.275-.138-.412.138-.823.546-1.097.822-.957.818-1.64 1.641-2.188 2.873.275 0 .685 0 .823.138-.413.272-.823.821-1.368 1.092v2.056c-.41.546-.958.955-1.233 1.642-.685 2.463-.821 5.066-.821 7.939-.274.41-.548.546-.818.685v2.463s.954-.959 1.365-1.234c0 .549-.136 1.37-.136 1.918-.412 0-.96.551-.96 1.096 0 .547.137 1.097.137 1.643 0 .27 0 .408.138.68.137-.272.41-.68.685-.82.136 0 .41-.27.82-.27-.272.41-.41 1.09-.684 1.638l-.411.412s-.136.275-.136.409c.411 2.877 1.367 5.614 2.464 8.49-.959 1.912-1.917 3.968-2.328 5.472-.41 1.095-.954 3.286-.954 3.286-.685-.682-1.646-.82-2.467-.82-.956.138-1.778.41-2.464 1.23-.82-.41-1.915-.274-2.463.41-1.23 1.1-1.23 1.645-1.23 2.465-.411.411-.959 1.098-.959 2.053 0 1.37.275 2.188.96 3.286h21.754c-.273-.41-.548-.957-.822-1.368-.408-.823-.135-1.918-.135-2.738.409-.822.957-1.643 1.371-2.463.132-.41 0-.41.272-.55l.958-.408c.545 0 .96-.277 1.643-.277.545.685.545-.546 1.232-.82 1.643-.138 3.01 0 3.831 1.23 0 .275.274.275.274.415h-.686c-.821-.415-1.915-.825-2.874-.415 0 .415-.138.415-.138.825v.684c.55.136.96.546 1.507.957.272-.549 1.096-.957 1.778-.957.685 0 1.78.408 1.78 1.644 0 .547-.137 1.096-.137 1.642.546.408 1.37.542 2.055.955-.276.416-.686.416-1.094.416h-1.235c-.138-.14-.412-.14-.412-.416-.41.416-.683 1.097-.957 1.644h16.7c-.275-.547-.553-.957-.686-1.368-.41-.823-.277-1.918-.41-2.738l1.64-2.186c.824 0 1.644-.277 3.149-.412.27-.415 0-.69 1.228-.823 1.094 0 1.782.408 2.06.548.132.275.132.275 0 .549-.278.27-.824-.274-1.235-.14-.273.278.137.41.137.685.274.272-1.23-.274-1.23-.274s-.413.82-.549 1.231c0 0 .684.412.817.822.277.412-.268.82-.268 1.233-.413-.138-.829-.552-.96-.413-.274 1.095 0 2.058-.143 3.286h1.51l.274-2.464c.14-1.371 1.78-3.966 2.737-3.966.689 0 .96.27 1.509.68.405.41.953.822.953 1.093 0 .14-.409.416-1.093.416-.272 0-.408-.416-.68-.687l-.825.822s.958.82.958 1.507c0 .542-.133.955-.686 1.231l-.817-1.643c-.41 0-1.101.82-1.101 1.367 0 .546-.274.827-.274 1.644h8.892c.965 0 1.784-.277 2.745-.817h1.776c2.468 0 5.615-.411 8.894-3.563 5.202-4.926 5.477-11.638 5.477-14.238M197.71 87.918c-.684-1.368-.821-3.286-.821-3.694 0-.822 0-1.783.408-2.465l-1.638.41c-.277.41-.413.821-.413 1.092l.546-.27c.275 0 .414.27.548.411-.133.821-.958.821-1.371 1.09-.407 1.369.823 2.198 1.098 3.426z" style="stroke-width:.2048" transform="translate(27.213 37.533)"/></svg>