<svg xmlns="http://www.w3.org/2000/svg" width="640" height="360"><g fill="none" fill-rule="evenodd"><path fill="#FFF" d="M515.432 236.186c2.222-.326 4.578-.276 6.349-1.853 7.503 1.117 15.109-.68 21.007-4.686 3.106-2.43 5.906-5.248 8.173-8.33 1.993-2.71 3.565-5.238 4.583-8.276a37.602 37.602 0 0 0 1.813-5.824c2.14-9.437 1.014-19.99-2.155-28.965a50.496 50.496 0 0 0-1.963-4.82c-3.956-7.925-9.34-16.475-17.63-21.487-4.671-2.822-8.97-7.189-11.607-11.71-1.435-1.25-2.81-2.908-4.665-3.208.508.812 1.066 1.606 1.204 2.554l-.108.134c-1.97.055-3.512-.954-4.86-2.176l1.486-1.306c-.561-.277-1.203-.381-1.825-.521-5.67-.625-10.334 1.911-15.364 3.133l-.078.27c3.088 1.333 3.734 4.632 5.532 6.863.444-.518 1.203-.14 1.824-.186.898.05 1.741.678 2.612.457.027-.728-.396-1.306-.532-1.958.532-.244 1.177-.03 1.771 0 1.627.922 4.235-.163 5.25 1.958-1.855.113-3.596.491-5.337.902.114.68.817 1.221.76 1.905-1.489-.6-3.065-.977-4.722-1.167l-.084.242c2.107 2.394 5 3.814 7.951 4.654 4.244.952 7.978-1.006 12.075-.325 10.06 4.465 18.654 14.679 22.39 24.372.184.465.36.937.526 1.417 3.13 8.852 3.725 19.732.588 28.966-1.669 3.84-3.505 7.464-6.45 10.586a22.037 22.037 0 0 1-3.683 3.514c-4.217 3.182-9.415 4.588-14.776 3.162-.336-.224-1.011-.28-.897-.846.186-.76.36-1.528.513-2.316.886-4.425 1.3-9.08 1.06-13.734l-.018-.596c-.298-6.758-1.687-12.832-4.247-18.677-1.645-3.354-3.596-7.01-6.054-10.292-2.936-3.913-6.576-7.293-11.253-8.98-2.866-.736-6.405-.876-8.566 1.437-1.546 1.312-2.188 3.078-1.966 5.015-2.416 1.484-5.132 2.284-8.089 2.528-.723.061-1.464.32-2.218.311-.714.032-1.41.003-2.095-.078-3.556-.425-7.155-2.287-9.89-4.41-.057-1.417-.14-2.75-.198-4.248-1.566-.788-2.866-2.286-2.974-4.058l.138-.134c.903.27 1.684.704 2.5 1.167-.366-2.124-.79-4.218-1.879-6.071-1.014-.41-2.026-.736-2.977-1.228-1.096-.701-1.801-1.987-1.963-3.154.981.926 2.692.6 3.452 1.577-1.324-3.785-1.345-8.113-3.512-11.572-1.096-2.557-3.962-3.73-5.928-5.606-.76-.902-1.065-2.153-2.44-2.292-1.126-.27-1.21-1.493-1.405-2.287.7.082 1.288.544 1.876.652-1.627-4.186-3.061-8.847-7.467-11.514l-.757.465c-1.714.244-3.542.355-5.252.41.759-1.088 2.104-1.553 3.172-2.048-1.236-.896-2.254-1.111-3.8-1.355-.897.866-2.52 1.306-3.673 1.55l-.144-.11c-.03-.98-.259-2.176 1.263-2.424-1.462-.68-3.884-.404-5.372 0-.418 1.062-1.624 2.016-1.537 3.273-.868.87-1.486 2.042-2.39 2.668-.026-2.098.895-4.03 1.288-5.798-1.263.462-2.548 1.117-3.788 1.687-1.99-1.117-4.09-2.231-6.225-3.078-.192-.081-.618-.16-.534.192 1.828 1.277 1.12 3.677 1.315 5.496l-1.153-.923c-.561-1.387-2.182-2.394-2.46-3.918-1.913.355-3.134.843-4.905 1.58l-.243.136c1.317 0 2.44 1.004 3.085 2.016-1.993.105-3.764-.654-5.73-.85-.195-.185-.366-.41-.675-.38-.981.355-1.828 1.032-2.692 1.687-1.94 1.853-3.908 3.895-4.833 6.348.649.104 1.462.078 1.94.46-1.066.625-1.994 1.69-3.032 2.286-.366 1.416-.31 3.028-.396 4.576-.817 1.201-1.91 2.257-2.44 3.598-1.744 5.464-2.192 11.54-1.94 17.746-.564.52-1.296.85-1.824 1.256l.057 5.551h.138c.252-1.167 1.687-1.818 2.557-2.61h.282c-.14 1.251-.309 2.505-.336 3.785l-1.627 1.306c-1.633 1.391-.255 3.486-.393 5.231.114.457.192 1.14.531 1.25.198-.68.814-1.169 1.21-1.77.7-.16 1.318-.71 1.963-.786a28.835 28.835 0 0 1-1.405 4c-.27.171-.585.401-.855.68-.288.3-.52.635-.58 1.007 1.27 6.45 3.257 12.82 5.53 18.892-1.54 2.534-2.417 5.515-3.702 8.13-.186.364-.35.74-.504 1.118-1.29 3.165-1.684 6.705-3.29 9.745-.65-.43-1.353-.765-2.076-1.062-3.038-.98-6.55-.355-8.765 1.909-1.969-.355-3.992-.03-5.537.98-1.108.8-1.963 1.775-2.456 2.91a5.74 5.74 0 0 0-.438 2.591c-1.26.84-1.936 2.144-2.356 3.456-.588 2.938.477 5.999 2.218 8.262h140.008v-.006Z"/><path fill="#FFF" d="M496.839 174.97c-.03.707-.562 1.501-.084 2.098.675-.736 1.8-.71 2.698-1.033 2.497-.218 4.886.541 7.215 1.09-.585-.901-.981-1.902-1.627-2.722-1.296-.326-3.26.544-3.481-1.306-.79-.655-2.03-.186-2.837-.14-.789.55-1.434 1.225-1.884 2.013zm-85.848-23.505a.111.111 0 0 0-.042-.026c0 .002 0 .014.006.026h.036zm10.211 24.198 1.687-1.577c.144 0 .252.029.336.14l-.14 3.02c.812.735 1.824.98 2.89 1.035.087-.818.732-1.388 1.098-2.098.31-.57.114-1.416.73-1.827l.191.192c.202.896.148 1.906.625 2.694.057.434.138.98.192 1.362 1.236.058 2.356-.274 3.313-.707-.057-1.033.313-1.88.475-2.834.258-.328-.31-.925.396-.896.393.815 1.095 1.658 1.489 2.528 1.626-1.606 2.302-3.7 2.695-5.876-.474-.631-1.207-.631-1.771-1.036-4.772-1.498-10.901-1.8-15.508.515-.298 1.856.096 3.898 1.302 5.365zm-44.637 51.089c-.171 2.1 0 4.067.135 6.135.453.681 1.27 1.472 2.077 1.528l.147-1.391c.333-1.937-.732-3.991.393-5.623.786.244 1.567.625 2.248.98.33-1.798-.14-3.892-1.912-4.98l-3.088 3.351zm6.933-2.935c-1.095 3.182-1.912 7.115-.585 10.464.753-.486 1.543-.952 2.212-1.632-.135-2.563-.501-5.298 1.068-7.421 1.375.41 2.308 1.69 2.837 2.944.93-1.15 1.24-2.726.873-4.253.057-1.193-1.354-.92-2.026-1.414.228-1.007.195-2.173 1.294-2.744l-3.37.326c-.868 1.193-1.823 2.368-2.303 3.73zm6.94 9.399c.143.25 0 .68.282.736.423-2.284 2.332-3.767 3.373-5.78.501-.681.471-1.635 1.288-2.153 1.098 0 1.885.765 2.953.846.336.245-.174.46-.198.73-.222 1.857-.954 3.393-.813 5.295h.192c1.489-1.518 2.5-3.17 3.596-4.913l.192-1.548c.252-1.853-1.825-3.049-3.173-3.81l1.207-1.499-1.684-.573c-1.97.192-3.74.98-5.115 2.481-1.707 3.046-1.987 6.488-2.1 10.188zm7.557-16.157c.645.192 1.234-.326 1.876-.052 2.587.922 5.285 1.876 7.221 3.973l2.306 5.688 1.152-3.509-.76-1.908c-.645-1.362-2.415-1.251-3.625-1.306-.501-.544.03-1.173.201-1.688.585-1.931-1.858-1.826-2.84-2.609.06-1.172-1.404-.765-2.22-.876l-.28-.325c-.165-.245-.585-.245-.813-.056-.06-.078-.168-.134-.108-.273l-.624.14c-.868.735-1.459 1.687-1.486 2.8zm1.627-6.258c.084.352.309.707.588.923 1.267-.326 2.47-1.167 3.932-.655 1.885 1.606 3.848 3.293 6.129 4.169l.81-.14c.508.169 1.066.192 1.405.736.312.736-.471 1.173-.73 1.769 1.267.899.76 2.508 1.55 3.593l2.022-2.613c-.474-1.146.027-3.104-1.828-3.211-.615-.303-1.038-.902-1.011-1.583-1.204-1.062-2.692-1.521-3.905-2.61-.981-.764-1.57-1.937-2.836-2.207-.868-.46-1.82-.707-2.83-.923-1.892-.27-2.057 1.903-3.296 2.752zm2.695-5.364.34.518c1.4-.084 2.67-.68 4.048-.655.925.547 2.134.521 3.086.98.76 1.007 1.575 2.15 2.692 2.834 2.281.323 3.542 2.694 4.328 4.434v-.844c.336-1.167-.03-2.53-.48-3.59-.561-.547-1.375-.905-1.963-1.393-.114-.352-.03-.518.084-.844-.873-.899-2.164-1.39-3.23-2.094-1.488-2.098-4.355-1.525-6.63-2.098l-2.275 2.752zm-.045-19.974c.25.847.555 1.909.72 2.805.787-1.688 2.339-2.444 3.713-3.835-.79-.52-1.768-.765-2.638-.928v-.049c-.618.596-1.573 1.196-1.795 2.007zm5.103 8.957 1.263-1.25c1.267-1.251 2.305-2.697 2.5-4.303-.897-.518-2.077-.166-2.947.134-.315 1.774-.786 3.517-.816 5.42zm.924 3.84c1.942.11 3.82.486 5.397-.567l1.57-4.905c-.502-.029-1.012-.244-1.486-.081-1.036 2.234-3.122 4.436-5.481 5.553zm.57-17.37c1.264 1.8 3.37 3.814 5.535 4.381-.252-2.283-2.272-3.866-3.314-5.824l-.06-.654c-.813-.765-1.798-1.277-2.641-1.69-.135 1.312.231 2.565.48 3.787zm6.85 17.589c1.488.25 3.088 0 4.463-.414 1.999-.456 3.094-2.583 3.766-4.241h-2.5l-2.698 2.557c-1.063.547-2.08 1.367-3.031 2.098zm-.304-20.064c.424 2.123 1.345 4.055 2.615 5.882l.336-4.058-2.95-1.824zm9.209 10.589c.168-1.362-.417-2.939-.58-4.326-.846-.547-2.028-.492-2.896-1.033.054 2.15 1.792 3.971 3.476 5.359zm-2.557 13.835c1.77-.547 3.481-1.146 5.108-2.019 1.039-1.437 2.614-2.752 2.836-4.436-1.29.352-2.416-.052-3.62.52-.729 1.278-1.182 2.724-2.584 3.646-.222.922-1.263 1.553-1.74 2.29zm2.749 3.349 2.107 2.664c1.125.355 2.53.245 3.512-.38l-.76-2.424c-1.485.55-3.253.381-4.86.14zm3.515-19.282.813 3.596c1.963-1.554 2.362-3.814 2.314-6.208-1.125 1.25-1.783 2.016-3.127 2.612zm5.531 6.348c.03.515.171 1.006.48 1.417 2.189.759 2.414 3.345 4.44 4.325 1.317.57 2.83-.14 3.986-.654-.87-.951-1.858-1.612-2.696-2.615-.591-.245-1.182-.6-1.152-1.307l-5.058-1.166zm1.741 12.85c.958 1.061 2.248 1.605 3.596 1.902-.222-.3.144 0 .198-.19l-1.69-3.586c-.84.02-1.71.186-2.497.134a7.23 7.23 0 0 0 .393 1.74zm2.98-16.775c-.789-1.768-1.119-3.918-1.341-5.876-.844.978-1.714 1.606-2.5 2.61-.366 2.016 2.602 2.51 3.842 3.266zm3.425-1.847c1.012 1.277 3.23.84 4.472.46-.594-.98-2.497-1.55-2.833-2.613-.198-1.876-.585-3.7-1.21-5.416-.984 2.312-2.17 5.064-.429 7.57zm1.768 5.772c2.812 1.99 5.562 4.3 9.494 3.456.282-.192.759-.166.816-.518-1.156-.71-2.386-1.254-3.569-1.903l-1.344-1.908h-.619c-1.518.492-3.151.678-4.778.873zm.06 22.08h.192c1.69-1.306 3.683-1.743 5.676-2.29.537.19.198.763.675.984 1.21-.492 2.671-.381 3.905-.792 1.492.059 2.701.085 3.905.71.951 1.222 2.752 1.091 3.992 1.903l-.198-1.903c-2.611-2.97-6.687-3.188-10.445-3.13l-.087-.384c-.898 0-1.906.192-2.75.576-1.206.05-2.359.625-3.514.977-.538 1.036-.958 2.284-1.35 3.349zm2.254-33.46c1.096 1.39 2.722 2.449 4.577 2.097-.951-.899-2.05-1.856-2.107-3.133.282-2.423-2.47-2.613-3.818-3.87.445 1.639.394 3.46 1.348 4.905zm-.285 38.28h.327c1.492-.905 3.656-.22 5.118-1.175.813-.41.867.68 1.434.98 1.375.818 1.543 3.264 3.482 2.697 2.33 1.17 1.74 3.924 1.825 5.937l2.164-1.306c-.198-1.062.417-2.347-.285-3.27-.531-1.166-1.99-1.277-2.693-2.23.844-1.391-1.065-2.04-1.461-3.05l.114-.14 2.971.382c1.018.6 1.378 1.69 1.69 2.697 2.332.38 2.893 2.938 3.71 4.573.477-1.117.672-2.316 1.152-3.401.027-.902-1.21-.902-1.824-1.306-.175-1.388-.817-2.7-2.077-3.54-2.588-.626-4.86-2.017-7.696-2.017l-2.362.71c-1.294.3-2.669-.081-3.65.786-1.468.107-1.579 1.664-1.939 2.673zm1.483-11.22.537.244c1.147-.52 2.302-1.117 3.512-1.553 1.879-.518 3.34 1.553 4.916.247.588-.41 1.09.19 1.543.518.675 1.198 2.248 1.117 3.427 1.443-.588-1.55-1.317-3.677-3.37-3.928-.814-.352-1.771-.317-2.557-.785-2.161-2.313-3.566 1.903-5.928.87-.84.905-1.88 1.745-2.08 2.944z"/><path fill="#FFF" d="M447.825 222.193c.897.73 1.822 1.987 3.224 1.822 1.75.79 1.017 3.02 1.971 4.192l1.009-.873-.084-.053.144-.136.06.081c.28-.82-.117-2.263-.594-3.214-.646-.43-1.405.029-2.02-.381-.087-.87-.649-1.307-1.294-1.85-.45-.326-1.041.11-1.546.08l-.87.332zm3.512-33.19c.927 1.502 2.722 2.427 4.157 3.46 1.176.52 2.722.651 3.989.38-1.207-.95-2.306-2.039-3.314-3.188-.393-.544-.48-1.222-1.011-1.713-1.327.247-2.81.22-3.821 1.062zm1.548-9.742c1.297 1.548 3.29.925 5.115.978v-.187l-2.81-2.292c-.789.247-1.626.925-2.305 1.501zm-51.708-25.676 1.626 4.902c-.03-2.778 1.291-5.09 1.012-7.921l1.21-1.746-2.56.763c-.673 1.25-1.231 2.507-1.288 4.002zm1.095-8.494 2.215-1.254v-3.185c-.927.547-1.438 1.472-2.16 2.208l-.055 2.23z"/><path fill="#FFF" d="M447.831 150.048c-.537.68-1.348.844-2.02.98 1.177-2.097 1.74-5.015.81-7.383.622-.215 1.297-.32 1.885-.652l-.06-.052 1.549-1.312c2.05-1.361 1.264-3.945 2.023-5.876-1.011-1.528-1.318-3.378-2.782-4.66l.087-.05c-1.156-1.417-3.233-1.257-4.812-1.964-2.077-.68-3.676.707-5.165 1.638-.645.105-.252.922-.955.896-.393 1.01-.873 2.098-1.152 3.212-2.782-.384-5.784-.079-8.005 1.443-1.183-.841-2.614-1.007-3.992-1.388-1.008-.19-2.16.166-2.887-.384-1.066-1.167-1.297-3.293-3.125-3.59-.642-.218-.78-.896-.78-1.498-1.21-.19-2.281-.73-3.46-.98-1.793-.792-3.224.465-4.575 1.306-.588.247-1.264.326-1.822.657-1.011 1.522-1.969 3.075-2.614 4.76.198 1.387.813 2.615 1.549 3.784.645 1.772 2.665 3.16 4.379 3.87-.814 2.693-.814 5.908 0 8.63 0 0-.048.033-.048.027 0 .006-.09.075-.09.075-.27 0-.556.053-.778-.075h-.036c.393 2.6 1.657 4.875 3.698 6.827.732.25.564 1.091.876 1.638.193.242.22.76.136.978-4.377-.137-8.284.925-11.796 2.856-.898.437-.501 1.638-.585 2.479 2.47-1.577 5.138-2.75 8.085-3.264 1.264-.081 2.696-.381 3.905-.055l.141 2.342c-3.34 1.687-6.993 2.667-9.86 5.445.058.841-.107 1.824.145 2.534l2.557-2.019c2.467-1.818 5.051-3.374 7.89-4.38.76.872 1.55 1.797 2.561 2.338a19.369 19.369 0 0 1 5.532-2.339c1.041-.6 2.692-.055 3.367-1.25l.48-2.48c-.087-.055-.138-.16-.282-.13-1.317-.736-2.188-2.013-2.077-3.514a3.867 3.867 0 0 1-1.488.38c-.45-.11-.868-.215-1.066-.654-.03-.547-.312-1.361.25-1.769 1.824-1.09 4.186-1.146 6.491-.977 1.711.215 4.187.13 4.773 2.097-.078.57-.027 1.196-.616 1.577-.618.326-1.317-.029-1.885-.27-.444 1.332-1.203 2.833-2.752 3.264l.201 1.582c.192.71.25 1.877 1.405 1.632 2.668.626 5.024 1.96 7.356 3.404.787-.765 1.405-1.638 1.963-2.423 4.157 1.358 7.756 4.38 11.18 7.185l.145-2.287c-3.26-2.804-6.885-4.79-10.65-6.344.145-.736.313-1.446.337-2.232 4.469.242 8.704 1.577 12.39 3.678l-.06-1.961c-3.875-2.013-8.116-3.349-12.753-3.404-.168-.25-.222-.6-.192-.846 2.248-.355 3.844-2.613 4.385-4.576 1.146-1.277 2.809-2.668 2.416-4.57.05-.155.108-.323.165-.486.15-.48.276-.978.108-1.42Z"/><path fill="#FFF" d="m451.739 157.044 2.302-.71.25-1.25c.65-1.824-.724-3.186-1.406-4.632l-1.146 6.592zm5.808 8.632c1.095 1.166 2.164 3.048 4.106 2.472-.144-.785-.595-1.437-.874-2.147-.51-.576-.675-2.208-1.687-1.632-.759-.491-.951-1.312-1.434-1.963-.22 1.006-.081 2.26-.111 3.27zm.396 7.97c.423.577.537 1.313.951 1.827.76.486 1.885.41 2.81.326.843-.189 1.377.707 2.164.186-.979-.596-1.567-1.687-2.5-2.472-1.099-.844-2.273-.108-3.425.134zm1.489 12.664c1.935 1.117 4.403 2.208 6.987 1.827.28-.14.76-.11.813-.44-1.6-.546-3.28-2.097-4.961-2.423-.93-1.387-2.137.355-3.317.245.027.328.364.576.478.79zm5.837 24.038.424.875c.423 2.834 2.272 5.443 1.26 8.547.844.57 1.099 1.522 1.63 2.284h.141c.645-2.365.198-4.818-.141-7.189.252-2.15-1.996-3.403-3.314-4.517zm.484-27.878c1.461 1.09 3.793 1.198 5.474.654-1.065-.57-2.242-1.195-3.118-1.96l-2.356 1.306zm6.93 8.36c-.144 1.147.645 2.098 1.489 2.668.309-.68.813-1.25.867-2.013-.25-1.172-.924-2.231-2.02-3.02-.198.76-.42 1.49-.336 2.366zm.087 12.41c-.198 1.278 1.26 1.447 1.879 2.153.507.597-.336 1.007-.336 1.577 1.065 1.333 1.684 2.86 1.684 4.631.423-1.658 1.068-3.243 1.3-4.957-.115-1.195-2.078-.95-1.772-2.283.559-1.362-.114-2.697-.48-3.919-.114-.195-.366-.576-.585-.465-.516 1.117-1.777 1.902-1.69 3.264zm3.848-6.478 1.459 2.75c.648-.076 1.062-.681 1.57-1.112.395-1.146-.646-1.882-.952-2.807-.258-.655 0-1.525-.48-2.098-.364-.215-.79-.57-1.21-.465l-.387 3.732zm1.879-7.238c1.152.678 2.47 1.659 3.085 2.854.988 2.778 2.56 5.283 3.71 7.977.423 1.88.76 3.555 1.294 5.408.198.483.084 1.437.873 1.358.222-2.068.645-4.055.672-6.208-.699-.896-1.632-1.277-2.5-1.826v-.187c.114-.465.507-1.01 1.099-.922.249-.28 1.008-.547.675-1.035-1.462-1.414-1.378-3.855-3.713-4.294-.81-.326-1.011-1.14-1.09-1.903-1.098-.893-2.73-1.201-4.105-1.222zm1.344 14.755c1.435 1.274.934 3.128.817 4.844-.222 1.036 1.125.436 1.549.98.867 1.254.363 3.078.05 4.44.763-1.12 1.633-2.1 2.222-3.323-.03-.465.585-.68.564-1.25.249-.792-.702-.437-1.096-.524-.336-.082-.702-.3-.594-.733.732-1.365.06-2.997-.222-4.355-.336-1.12.144-2.613-.393-3.593-.898 1.199-3.569 1.472-2.897 3.514zm2.615-19.334c2.503 2.453 4.328 4.914 7.023 7.285.06-1.056-.084-2.042-.141-3.078-.396-.73-1.126-1.277-1.744-1.821-1.99-.192-3.031-2.793-5.138-2.386zm6.546 12.978c.057.244.17.46.279.707 1.095 1.745 2.134 3.537 2.896 5.417-.225-2.01 1.183-4.521-.675-6.069-.252-.654-1.096-.436-1.63-.384l-.87.329zm6.741 19.89c.79.346 1.798-.28 2.557-.71.703-.166 1.294.215 1.828.57.222.433 0 .84.078 1.25 1.69.463 3.344 1.062 4.835 2.014l.472-.46c.114-1.172-.838-2.01-1.738-2.665-.588-.334-1.465-.14-1.879-.66.28-.43.28-1.085.25-1.577-.931 0-1.52-.273-2.279-.71-.471-.133-.897-.514-1.29 0-1.402.928-1.486 2.287-2.834 2.947zm1.969-34.264c.7-.186 1.435-.384 2.023-.87 1.876-1.66 4.604-.547 6.792-.573-.417-.736-1.011-1.466-1.543-2.097-.786-.3-1.518-.655-2.416-.655-1.912-1.085-3.2.736-4.664 1.632-.39.742-.585 1.827-.192 2.563zm.054 5.603c0-.076 0-.163.084-.186.252.218-.03.733.393.84.73-.349 1.405-.84 2.077-1.3 1.885 0 3.008-1.769 4.857-1.769 3.088.542 6.156 1.14 8.848 2.61-.192-1.769-1.768-3.375-3.365-4.169-.903-.3-1.606.169-2.25.655-1.886 1.149-.898-1.658-2.219-1.717-1.714.524-3.485 1.091-5.39.931-1.126.405-1.915 1.408-3.176 1.304-.057.898-.198 1.99.141 2.801zm1.294 6.077c.585.596 1.566.486 2.416.596l2.44-.922c.03-.436-.73-.55-.564-1.032.675-.736 1.605-.222 2.443-.524 1.185-.16 2.392-1.303 3.566-.46-.027.134.06.329-.051.46-.373.846.252 1.361.924 1.687 1.378.25 2.668 1.475 4.046.925-.138-1.114-.447-2.147-.732-3.211-1.15-.192-1.963-1.117-3.032-1.501-.48.436-1.095.765-1.687.71-2.164-.49-4.748-1.796-6.936-.46-.79.922-2.194.651-3.26 1.056.06.934.168 1.83.427 2.676zm.924 16.18c-.171.463-.645 1.228.222 1.443 1.801.059 4.103-.84 5.51.518.475.358.25 1.088.223 1.554l2.356 1.908c.228-1.146.645-2.182.675-3.41-.192-.87-.645-1.716-1.428-2.286-1.55 0-2.45-1.754-4.106-1.53-.868-.195-1.624.553-2.5.553-.394.38-.616.846-.952 1.25zm.675-12.832c.364.73.79 1.932 1.49 2.014 1.656-.707 4.07-1.147 5.927-.382.618.108.618.789.48 1.228.952.544 2.107.975 3.116 1.577l-.28-1.632c-.06-1.772-2.362-1.938-2.503-3.683-1.882-.596-3.989-.786-5.982-.323-.65.573-1.572.492-2.362.657-.05.216.084.35.114.544zm.48 8.82c1.096-.299 1.792-1.471 2.975-1.576 1.798.03 3.4.73 4.52 2.231.682.434.537 1.554 1.405 1.554-.252-1.338.198-2.563.144-3.925-1.186-1.902-4.097-.436-5.196-2.667l-2.077.134c-1.488.355-1.092 2.045-1.296 3.188-.168.355-.504.625-.474 1.062zm10.302 11.908c.873 1.687 2.788 2.97 2.98 4.904.45-.52.76-1.117 1.069-1.687-.03-.547-.679-.547-.934-.98-.252-.707.144-1.333.255-1.964-.363-1.01-1.236-1.96-2.218-2.557l-1.152 2.284zm3.463-4.3 2.02 2.668c.868-1.336.868-3.293.531-4.905-.192-.3-.56-.788-1.065-.57-.762.765-.87 1.931-1.486 2.807zm-8.236-74.522c.733.355 1.435.68 2.302.733.595-.297 1.354-.515 2.083-.326 1.039.655 2.302-.137 3.506-.081-1.062-.978-2.275-1.577-3.506-2.147-1.575.323-2.836 1.408-4.385 1.82zm10.989 2.56c1.482.134 2.55 1.41 3.562 2.481 1.267.187 2.221 1.056 2.978 1.958l-.478-1.446c-.336-1.445-1.263-2.563-2.215-3.7-1.347.081-2.674.19-3.847.707z"/><path fill="#F60" d="m412.828 131.095.814.082c2.194 1.062 5.732 1.606 5.927 4.68-2.212.847-4.349 1.993-6.117 3.73-1.347-1.335-4.076-.6-4.523-2.938.423-2.205 1.234-4.978 3.9-5.554zm2.113 13.807c2.551-.215 5.025.13 7.669-.082.645.27 1.317.818 1.627 1.443-.084 2.938-1.012 5.746-1.153 8.765-1.15.469-2.275 1.39-2.554 2.616-1.042.296-1.97.901-2.98 1.358-.45-.922-.367-2.313.426-3.072 1.092-1.5 3.932-1.146 3.7-3.514.733-1.146.03-2.615.06-3.814-.282-.896-.56.3-1.011.27-.897.187-1.825.245-2.608-.185-.595-.606-1.324-1.091-1.492-1.909-.786-.38-1.71-.98-2.104-1.771l.42-.105zm3.089 17.751c1.2.16 2.47-.355 3.508.215-.225.381-.813.544-1.29.655l-1.882.846c-.703-.168-.31-1.256-.336-1.716zm4.916-22.737c1.204-.381 2.5-1.167 3.79-.786-.927.9-1.656 2.069-2.355 3.154l-3.848-.079c.414-.977 1.48-1.795 2.413-2.29zm11.264-.896c1.597-.27 1.513 1.742 2.975 1.827.255.325.621.622.477 1.11-.843.327-2.077.167-3.037.382-1.264-.68-.445-2.804-2.444-2.668-.108-.16-.336-.488-.054-.599.622-.212 1.43-.134 2.083-.052zm-1.011 7.299c.7-.958 1.77-1.033 2.78-1.228l7.275.137c.309.27-.28.515-.28.843-.45.408-1.098.518-1.491.902-.952.03-.873 1.111-1.546 1.577-1.041 1.006-2.554.547-3.764.38-.423-.299-.897-.709-1.095-1.171l-.336.325c.423 1.528.309 3.218.615 4.765l1.74 1.12c.03 2.505 3.065 1.824 4.386 3.215-.31.896-.928 1.658-1.597 2.423-1.068-1.01-2.278-1.667-3.569-2.097-.11-1.472-1.767-2.34-2.698-3.078-.252-2.668-.309-5.39-.753-7.977l.333-.136zm2.638 16.794h3.374l-.423 1.716-3.374-1.39c-.078-.271.225-.352.423-.326zm6.066-30.842 2.5-.766c1.435.652 2.783 1.472 4.1 2.395 1.042 1.856.868 4.355.393 6.423-.759.82-2.416 0-3.031 1.306h-.114c-.93-2.557-3.566-4.84-6.012-6.016.393-1.303.816-2.58 2.164-3.342z"/><path fill="#FFF" d="M500.488 235.994h14.987c2.218-.326 4.577-.273 6.345-1.856 7.503 1.12 15.112-.678 21.01-4.678 3.112-2.437 5.91-5.253 8.17-8.328 1.993-2.712 3.568-5.245 4.586-8.28a37.956 37.956 0 0 0 1.81-5.827c2.14-9.434 1.017-19.985-2.146-28.968a52.352 52.352 0 0 0-1.97-4.815c-3.955-7.924-9.334-16.471-17.63-21.486-4.673-2.825-8.968-7.195-11.606-11.71-1.435-1.256-2.813-2.914-4.665-3.214.508.817 1.066 1.606 1.21 2.557l-.114.137c-1.963.055-3.512-.951-4.86-2.182l1.492-1.303c-.564-.27-1.21-.384-1.828-.515-5.675-.626-10.337 1.902-15.361 3.13l-.084.27c3.085 1.333 3.73 4.626 5.532 6.863.45-.52 1.21-.14 1.825-.195.897.055 1.74.68 2.608.463.03-.733-.387-1.304-.531-1.955.53-.25 1.182-.03 1.77 0 1.627.922 4.241-.169 5.253 1.955-1.855.113-3.596.488-5.337.899.111.68.814 1.227.76 1.908-1.492-.605-3.062-.977-4.722-1.172l-.078.241c2.107 2.397 4.995 3.814 7.945 4.66 4.241.952 7.975-1.006 12.072-.325 10.064 4.465 18.654 14.679 22.394 24.372.183.465.357.937.525 1.41 3.13 8.853 3.722 19.742.588 28.97-1.668 3.845-3.505 7.464-6.45 10.592a22.534 22.534 0 0 1-3.686 3.514c-4.217 3.182-9.415 4.582-14.77 3.153-.333-.212-1.014-.27-.903-.84.189-.757.363-1.53.516-2.313.892-4.43 1.297-9.085 1.063-13.734-.012-.2-.015-.401-.024-.6-.294-6.754-1.684-12.831-4.247-18.673-1.64-3.354-3.593-7.01-6.051-10.295-2.933-3.916-6.576-7.299-11.253-8.986-2.866-.736-6.408-.87-8.566 1.446-1.549 1.306-2.19 3.075-1.969 5.006-2.416 1.49-5.132 2.293-8.089 2.534-.723.061-1.467.314-2.215.311-.717.032-1.416 0-2.092-.084-3.565-.425-7.161-2.278-9.895-4.41-.058-1.408-.145-2.75-.199-4.242-1.57-.791-2.86-2.292-2.974-4.058l.144-.137c.897.27 1.684.707 2.494 1.173-.366-2.124-.783-4.221-1.879-6.072-1.011-.41-2.029-.733-2.98-1.227-1.096-.707-1.798-1.987-1.96-3.16.978.931 2.692.603 3.452 1.583-1.318-3.785-1.348-8.113-3.512-11.572-1.096-2.56-3.962-3.73-5.928-5.612-.76-.896-1.065-2.147-2.443-2.286-1.123-.271-1.21-1.499-1.405-2.284.703.078 1.29.544 1.885.652-1.633-4.195-3.064-8.847-7.473-11.515l-.76.46c-1.71.25-3.539.355-5.252.41.759-1.09 2.107-1.55 3.175-2.045-1.24-.896-2.254-1.114-3.803-1.361-.897.875-2.518 1.306-3.67 1.55l-.138-.105c-.03-.977-.265-2.181 1.254-2.423-1.459-.68-3.875-.41-5.366 0-.424 1.062-1.621 2.013-1.543 3.264-.865.876-1.483 2.042-2.386 2.67-.024-2.097.891-4.031 1.287-5.797-1.263.46-2.548 1.111-3.782 1.687-1.995-1.117-4.097-2.234-6.228-3.075-.198-.084-.62-.166-.537.186 1.825 1.28 1.12 3.675 1.315 5.502l-1.153-.923c-.561-1.39-2.185-2.397-2.46-3.924-1.913.355-3.134.847-4.905 1.583l-.246.133c1.317 0 2.44 1.007 3.088 2.013-1.993.111-3.764-.654-5.727-.84-.198-.192-.363-.41-.678-.381-.984.355-1.822 1.035-2.695 1.69-1.936 1.847-3.905 3.895-4.83 6.342.649.11 1.462.084 1.94.465-1.063.626-1.994 1.687-3.035 2.287-.363 1.416-.31 3.022-.393 4.576-.814 1.195-1.91 2.257-2.443 3.59-1.741 5.471-2.192 11.543-1.936 17.75-.565.516-1.297.85-1.825 1.255l.057 5.553h.138c.258-1.172 1.69-1.824 2.557-2.612h.282c-.138 1.25-.309 2.501-.336 3.784l-1.63 1.307c-1.624 1.387-.249 3.479-.393 5.221.117.466.195 1.147.54 1.257.192-.68.81-1.172 1.2-1.769.703-.168 1.319-.71 1.964-.79a27.83 27.83 0 0 1-1.405 4 5.125 5.125 0 0 0-.855.68c-.285.3-.514.643-.568 1.012 1.261 6.453 3.248 12.82 5.526 18.892-1.549 2.528-2.422 5.513-3.71 8.128-.183.366-.348.736-.504 1.117-1.29 3.168-1.684 6.702-3.29 9.748-.645-.439-1.344-.765-2.073-1.064-3.04-.978-6.55-.352-8.765 1.905-1.969-.355-3.992-.03-5.54.977-1.105.81-1.963 1.78-2.453 2.918a5.748 5.748 0 0 0-.435 2.586c-1.266.844-1.942 2.15-2.359 3.456-.591 2.944.474 6.002 2.215 8.262h125.028v.003Z"/><path fill="#F60" d="M555.25 178.06a52.352 52.352 0 0 0-1.97-4.815c-3.955-7.924-9.334-16.471-17.63-21.486-4.673-2.825-8.968-7.195-11.606-11.71-1.435-1.256-2.813-2.914-4.665-3.214.508.817 1.066 1.606 1.21 2.557l-.114.137c-1.963.055-3.512-.952-4.86-2.182l1.492-1.303c-.564-.27-1.21-.384-1.828-.515-5.675-.626-10.337 1.902-15.361 3.13l-.084.27c3.085 1.333 3.73 4.626 5.532 6.863.45-.52 1.21-.14 1.825-.195.897.055 1.74.68 2.608.463.03-.733-.387-1.304-.531-1.955.53-.25 1.182-.03 1.77 0 1.627.922 4.241-.169 5.253 1.955-1.855.113-3.596.488-5.337.899.111.68.814 1.227.76 1.908-1.492-.605-3.062-.978-4.722-1.172l-.078.241c2.107 2.397 4.995 3.814 7.945 4.66 4.241.952 7.975-1.006 12.072-.325 10.064 4.465 18.654 14.679 22.394 24.372.183.465.357.937.525 1.41 3.13 8.853 3.722 19.742.588 28.97-1.668 3.845-3.505 7.464-6.45 10.592a22.534 22.534 0 0 1-3.686 3.514c-4.217 3.182-9.415 4.582-14.77 3.153-.333-.212-1.014-.27-.903-.84.189-.757.363-1.53.516-2.313.892-4.43 1.297-9.085 1.063-13.734-.012-.2-.015-.402-.024-.6-.294-6.754-1.684-12.831-4.247-18.673-1.64-3.354-3.593-7.01-6.051-10.295-2.933-3.916-6.576-7.299-11.253-8.986-2.866-.736-6.408-.87-8.566 1.446-1.549 1.306-2.19 3.074-1.969 5.006-2.416 1.49-5.132 2.292-8.089 2.534-.723.061-1.467.314-2.215.311-.717.032-1.416 0-2.092-.084-3.565-.425-7.161-2.278-9.895-4.41-.058-1.408-.145-2.75-.199-4.242-1.57-.791-2.86-2.292-2.974-4.058l.144-.137c.897.27 1.684.707 2.494 1.173-.366-2.124-.783-4.221-1.879-6.072-1.011-.41-2.029-.733-2.98-1.227-1.096-.707-1.798-1.987-1.96-3.16.978.931 2.692.603 3.452 1.583-1.318-3.785-1.348-8.113-3.512-11.572-1.096-2.56-3.962-3.73-5.928-5.612-.76-.896-1.065-2.147-2.443-2.287-1.123-.27-1.21-1.498-1.405-2.283.703.078 1.29.544 1.885.651-1.633-4.194-3.064-8.846-7.473-11.514l-.76.46c-1.71.25-3.539.355-5.252.41.759-1.09 2.107-1.55 3.175-2.045-1.24-.896-2.254-1.114-3.803-1.361-.897.875-2.518 1.306-3.67 1.55l-.138-.105c-.03-.977-.265-2.181 1.254-2.423-1.459-.68-3.875-.41-5.366 0-.424 1.062-1.621 2.013-1.543 3.264-.865.876-1.483 2.042-2.386 2.67-.024-2.097.891-4.031 1.287-5.797-1.263.46-2.548 1.111-3.782 1.687-1.995-1.117-4.097-2.234-6.228-3.075-.198-.084-.62-.166-.537.186 1.825 1.28 1.12 3.675 1.315 5.501l-1.153-.922c-.561-1.39-2.185-2.397-2.46-3.924-1.913.355-3.134.846-4.905 1.582l-.246.134c1.317 0 2.44 1.007 3.088 2.013-1.993.11-3.764-.654-5.727-.84-.198-.192-.363-.41-.678-.381-.984.354-1.822 1.035-2.695 1.69-1.936 1.847-3.905 3.895-4.83 6.342.649.11 1.462.084 1.94.465-1.063.625-1.994 1.687-3.035 2.287-.363 1.416-.31 3.022-.393 4.576-.814 1.195-1.91 2.257-2.443 3.59-1.741 5.471-2.192 11.543-1.936 17.75-.565.516-1.297.85-1.825 1.254l.057 5.554h.138c.258-1.172 1.69-1.824 2.557-2.612h.282c-.138 1.25-.309 2.501-.336 3.784l-1.63 1.306c-1.624 1.388-.249 3.48-.393 5.222.117.466.195 1.146.54 1.257.192-.68.81-1.172 1.2-1.769.703-.168 1.319-.71 1.964-.791a27.83 27.83 0 0 1-1.405 4 5.125 5.125 0 0 0-.855.68c-.285.3-.514.644-.568 1.013 1.261 6.452 3.248 12.82 5.526 18.892-1.549 2.528-2.422 5.512-3.71 8.128-.183.366-.348.736-.504 1.117-1.29 3.168-1.684 6.702-3.29 9.748-.645-.44-1.344-.765-2.073-1.065-3.04-.977-6.55-.352-8.765 1.906-1.969-.355-3.992-.03-5.54.977-1.105.81-1.963 1.78-2.453 2.918a5.748 5.748 0 0 0-.435 2.586c-1.266.844-1.942 2.15-2.359 3.456-.591 2.944.474 6.002 2.215 8.262h49.635c-.73-.84-1.405-2.013-1.915-3.02-1.062-1.556-.333-3.758-.447-5.556 1.011-1.978 2.038-3.968 3.193-5.902.235-.39.469-.771.709-1.15l2.278-.843c1.206 0 2.221-.844 3.37-.547 1.546 1.501 1.546-1.495 3.038-1.632 3.482-.436 6.936-.11 8.9 2.75 0 .38.624.38.48.735-.45.131-.874-.14-1.348-.14-2.134-.514-4.637-1.826-6.741-.654-.081.489-.19.986-.292 1.475-.105.52-.2 1.03-.246 1.518 1.375.381 2.528 1.336 3.566 2.368.702-1.332 2.191-1.931 3.512-2.368 1.152.245 2.416.274 3.373.98 1.771 1.583.898 4.277.733 6.29 1.596.87 3.367 1.365 4.994 2.205-.76.66-1.765.928-2.692 1.257l-2.695-.52c-.31-.216-.847-.216-.958-.597-.897.922-1.993 2.15-2.554 3.345h38.478c-.507-1.117-1.095-1.987-1.798-3.02-.789-1.634-.474-3.868-.56-5.61l3.595-5.31c1.963-.026 4.187-.736 6.318-.381.108-.047.21-.099.31-.16.885-.594 1.155-1.972 2.472-1.8 2.356-.623 4.157.412 5.928 1.445-.06.137-.117.256-.18.355-.741 1.149-2.128-.134-3.14.212-.423.437.199.952.28 1.446.366.486-.366.43-.616.515-.588.081-1.233-.055-1.686-.515-.111-.14-.027-.3-.25-.326-.51.812-1.24 1.55-1.434 2.476.642.602 1.512 1.198 1.825 1.964.645.898-.508 1.576-.73 2.368-.084.16-.342.16-.423 0-.594-.326-1.095-1.147-1.744-.931-.564 2.426.195 4.85-.14 7.272 1.095.25 2.385-.055 3.565 0l.48-5.12c.501-3.319 2.53-6.097 4.916-8.634 2.579-1.707 4.242 1.667 6.147 2.837.313.055.202.38.337.57-.027.547-.616.762-1.009.928-1.182.404-2.053-.847-2.782-1.583-.7.736-1.012 1.714-1.825 2.29l.279.078c.933.902 1.825 1.853 2.029 3.052-.114 1.085-.675 2.147-1.69 2.697-.753-1.257-1.374-2.645-1.876-3.925.027.058-.033.082-.087.14-1.548.404-1.96 2.091-2.218 3.456.084 1.335-.954 1.88-.678 3.211h20.032c2.218-.325 4.577-.273 6.345-1.856 7.503 1.12 15.112-.677 21.01-4.677 3.112-2.438 5.91-5.254 8.17-8.33 1.993-2.71 3.568-5.244 4.586-8.278a37.956 37.956 0 0 0 1.81-5.827c2.137-9.426 1.014-19.977-2.15-28.957Z"/><path fill="#F60" d="M426.35 228.59c1.095-.68 2.866-.846 3.115-2.423-.444-.328-.84-.739-1.347-.846l-1.153.326c.084-.655.45-1.388.681-2.095l3.704-1.17c-.51 1.633-.702 3.675-.873 5.554.336 2.778.759 5.745 2.22 8.058h-3.991c-.447-2.557-3.206-4.413-2.356-7.403zm8.626-3.27h.222l2.692 2.372.393-.082a121.2 121.2 0 0 0-.393 8.384h-2.917c-.594-2.694-1.576-5.527-1.462-8.436.504-.736.84-1.664 1.465-2.237zm6.006 2.619c.537-.678.76-1.827 1.825-1.958.759.02 1.461.131 2.029.652.981 1.195.02 2.726-.337 3.921-.396 1.824-1.074 3.727-1.69 5.443h-2.836l1.009-8.058zm42.611-.847c.618.765.814 1.798 1.741 2.479.816-1.088 1.011-2.778.618-4.166l-.813-.791c1.041-.242 2.134-.326 3.175-.515-.45 1.443-1.3 2.749-1.152 4.436.027 2.453.447 4.905.672 7.46h-3.088c-1.123-2.398-2.248-4.682-2.164-7.46.336-.491.561-1.064 1.011-1.443z"/><path fill="#FFF" d="M496.88 174.784c-.03.707-.56 1.492-.086 2.097.68-.736 1.8-.71 2.7-1.035 2.501-.221 4.887.544 7.216 1.09-.588-.901-.981-1.908-1.63-2.722-1.293-.329-3.26.544-3.481-1.312-.787-.652-2.02-.186-2.837-.134a6.162 6.162 0 0 0-1.881 2.016zm-85.85-23.511c-.012-.006-.024-.018-.042-.03 0 .012.006.018.006.03h.036zm10.214 24.203 1.687-1.576c.144 0 .255.026.336.13l-.138 3.023c.813.736 1.819.978 2.887 1.036.088-.815.733-1.39 1.099-2.098.31-.57.114-1.414.73-1.818l.197.186c.193.902.139 1.909.619 2.694.057.436.135.978.189 1.362 1.24.055 2.365-.271 3.316-.71-.057-1.033.313-1.877.475-2.825.258-.329-.31-.93.393-.902.396.818 1.095 1.658 1.492 2.534 1.626-1.606 2.308-3.7 2.692-5.882-.474-.623-1.204-.623-1.771-1.033-4.772-1.495-10.892-1.795-15.5.518-.309 1.844.085 3.886 1.297 5.361zm-44.643 51.09c-.171 2.097 0 4.064.138 6.135.45.68 1.27 1.472 2.083 1.522l.138-1.391c.336-1.932-.73-3.983.396-5.617.786.241 1.573.625 2.248.977.336-1.795-.144-3.895-1.915-4.986l-3.088 3.36zm6.94-2.944c-1.096 3.188-1.91 7.113-.59 10.47.76-.495 1.544-.957 2.216-1.635-.138-2.563-.504-5.292 1.068-7.421 1.375.41 2.305 1.69 2.834 2.938.933-1.14 1.24-2.723.876-4.242.057-1.201-1.347-.925-2.023-1.416.222-1.01.192-2.173 1.29-2.75l-3.367.326c-.87 1.202-1.825 2.365-2.305 3.73zm6.938 9.408c.141.241 0 .68.286.736.417-2.29 2.326-3.77 3.37-5.79.501-.671.477-1.631 1.29-2.146 1.093 0 1.883.762 2.951.843.336.248-.174.466-.2.736-.223 1.856-.952 3.387-.814 5.295h.195c1.489-1.527 2.5-3.17 3.596-4.913l.192-1.548c.258-1.853-1.82-3.049-3.176-3.814l1.21-1.501-1.687-.57c-1.966.189-3.737.98-5.112 2.481-1.71 3.043-1.99 6.488-2.1 10.19zm7.558-16.157c.642.186 1.234-.326 1.876-.058 2.587.928 5.282 1.879 7.221 3.973l2.306 5.693 1.152-3.517-.76-1.9c-.648-1.36-2.415-1.25-3.625-1.305-.504-.547.027-1.173.198-1.688.588-1.934-1.855-1.827-2.836-2.615.057-1.167-1.405-.765-2.221-.87l-.28-.326c-.168-.25-.588-.25-.816-.058-.05-.081-.165-.137-.108-.27l-.615.133c-.877.736-1.465 1.688-1.492 2.808zm1.624-6.264c.087.35.309.704.588.926 1.267-.326 2.48-1.176 3.935-.655 1.885 1.606 3.848 3.293 6.126 4.163l.816-.134c.502.16 1.063.186 1.399.736.312.736-.474 1.167-.723 1.766 1.26.902.759 2.505 1.542 3.593l2.02-2.61c-.47-1.146.03-3.104-1.819-3.214-.624-.3-1.041-.896-1.017-1.577-1.204-1.062-2.692-1.524-3.899-2.615-.99-.76-1.576-1.93-2.836-2.203-.874-.465-1.828-.71-2.837-.922-1.888-.279-2.056 1.9-3.295 2.746zm2.701-5.364.336.524c1.405-.085 2.666-.681 4.043-.658.925.544 2.134.515 3.089.98.76 1.01 1.575 2.148 2.692 2.828 2.278.326 3.539 2.703 4.325 4.44v-.841c.336-1.173-.03-2.537-.471-3.599-.564-.544-1.384-.896-1.97-1.382-.113-.354-.03-.523.085-.846-.873-.899-2.164-1.39-3.233-2.1-1.488-2.098-4.349-1.519-6.627-2.098l-2.269 2.752zm-.048-19.97c.25.846.552 1.905.723 2.806.784-1.687 2.336-2.452 3.71-3.837-.79-.517-1.77-.765-2.638-.925v-.055c-.621.593-1.576 1.196-1.795 2.01zm5.103 8.96 1.26-1.252c1.267-1.256 2.311-2.702 2.5-4.305-.897-.515-2.077-.16-2.944.14-.31 1.762-.79 3.505-.816 5.416zm.924 3.84c1.939.104 3.824.485 5.397-.577l1.575-4.899c-.51-.029-1.017-.25-1.491-.081-1.039 2.228-3.116 4.436-5.481 5.556zm.57-17.371c1.264 1.795 3.374 3.805 5.532 4.381-.25-2.29-2.272-3.869-3.314-5.824l-.057-.654c-.813-.763-1.798-1.283-2.641-1.688-.135 1.306.231 2.554.48 3.785zm6.847 17.585c1.488.245 3.091 0 4.466-.41 1.993-.465 3.091-2.586 3.764-4.244h-2.5l-2.693 2.557c-1.065.541-2.077 1.359-3.037 2.097zm-.304-20.064c.424 2.127 1.354 4.059 2.618 5.883l.333-4.059-2.95-1.824zm9.209 10.59c.17-1.362-.417-2.944-.582-4.326-.844-.547-2.02-.495-2.894-1.033.057 2.144 1.792 3.97 3.476 5.359zm-2.554 13.83c1.767-.545 3.481-1.144 5.114-2.014 1.039-1.446 2.608-2.749 2.836-4.436-1.3.352-2.416-.058-3.625.518-.73 1.277-1.183 2.726-2.585 3.648-.225.919-1.263 1.547-1.74 2.283zm2.749 3.348 2.107 2.667c1.125.352 2.53.248 3.512-.378l-.754-2.42c-1.491.538-3.262.38-4.865.13zm3.512-19.273.813 3.59c1.966-1.548 2.371-3.808 2.314-6.202-1.122 1.25-1.774 2.013-3.127 2.612zm5.537 6.339c.027.52.165 1.01.472 1.417 2.19.765 2.416 3.345 4.442 4.325 1.314.576 2.836-.133 3.983-.654-.868-.951-1.85-1.606-2.693-2.61-.588-.244-1.185-.599-1.152-1.306l-5.052-1.172zm1.741 12.855c.952 1.056 2.242 1.606 3.59 1.9-.222-.297.144 0 .198-.186l-1.687-3.596c-.843.03-1.717.195-2.5.14.063.599.198 1.195.4 1.742zm2.978-16.77c-.79-1.77-1.114-3.925-1.345-5.88-.837.98-1.71 1.609-2.5 2.61-.366 2.013 2.608 2.504 3.845 3.27zm3.421-1.857c1.018 1.286 3.233.85 4.47.466-.592-.98-2.495-1.557-2.831-2.61-.192-1.879-.588-3.709-1.21-5.416-.981 2.31-2.17 5.061-.429 7.56zm1.771 5.772c2.81 1.987 5.565 4.302 9.49 3.456.283-.186.763-.166.817-.515-1.153-.707-2.386-1.257-3.566-1.908l-1.344-1.903h-.619c-1.518.486-3.145.684-4.778.87zm.057 22.08h.201c1.684-1.306 3.677-1.746 5.67-2.287.537.192.198.765.678.98 1.207-.485 2.669-.38 3.902-.788 1.489.053 2.698.079 3.905.704.96 1.228 2.752 1.088 3.992 1.909l-.201-1.909c-2.608-2.967-6.681-3.182-10.445-3.127l-.084-.381c-.898 0-1.91.186-2.753.57-1.203.055-2.359.626-3.511.978-.538 1.035-.96 2.295-1.354 3.35zm2.257-33.458c1.093 1.391 2.722 2.456 4.577 2.1-.951-.904-2.053-1.855-2.107-3.132.282-2.424-2.47-2.618-3.817-3.87.45 1.636.39 3.46 1.347 4.902zm-.288 38.275h.336c1.486-.896 3.65-.212 5.112-1.166.813-.41.87.68 1.431.98 1.378.812 1.55 3.264 3.485 2.694 2.326 1.17 1.74 3.919 1.825 5.932l2.164-1.304c-.198-1.061.423-2.341-.282-3.267-.534-1.169-1.996-1.277-2.699-2.228.847-1.39-1.065-2.048-1.461-3.054l.117-.134 2.977.38c1.012.597 1.378 1.688 1.687 2.698 2.326.38 2.887 2.938 3.704 4.57.48-1.114.675-2.316 1.152-3.404.03-.899-1.206-.899-1.824-1.306-.166-1.39-.814-2.694-2.077-3.535-2.585-.634-4.857-2.016-7.693-2.016l-2.36.704c-1.296.303-2.67-.078-3.655.789-1.465.11-1.573 1.664-1.939 2.667zm1.486-11.214.537.247c1.153-.518 2.302-1.117 3.512-1.553 1.876-.515 3.337 1.553 4.916.244.585-.404 1.096.192 1.54.52.684 1.196 2.25 1.115 3.433 1.438-.59-1.548-1.323-3.671-3.373-3.919-.814-.352-1.771-.323-2.554-.788-2.164-2.313-3.566 1.908-5.934.876-.838.893-1.88 1.742-2.077 2.935z"/><path fill="#FFF" d="M447.867 222.001c.897.736 1.825 1.99 3.233 1.824 1.737.789 1.008 3.023 1.96 4.195l1.011-.872-.084-.059.141-.133.06.075c.28-.811-.114-2.254-.594-3.211-.643-.434-1.399.029-2.02-.381-.084-.876-.646-1.307-1.29-1.848-.451-.331-1.042.105-1.55.076l-.867.334zm3.512-33.186c.924 1.495 2.722 2.423 4.157 3.456 1.182.517 2.722.654 3.989.378-1.21-.952-2.309-2.042-3.314-3.183-.396-.547-.48-1.23-1.011-1.716-1.321.247-2.813.218-3.821 1.065zm1.548-9.743c1.291 1.55 3.287.925 5.112.98v-.192l-2.81-2.286c-.786.241-1.626.922-2.302 1.498zm-51.708-25.676 1.626 4.902c-.03-2.778 1.297-5.097 1.015-7.924l1.203-1.746-2.557.765c-.672 1.251-1.233 2.505-1.287 4.003zm1.095-8.494 2.218-1.251v-3.188c-.933.544-1.435 1.474-2.164 2.202l-.054 2.237z"/><path fill="#FFF" d="M447.873 149.856c-.534.678-1.348.847-2.023.977 1.183-2.091 1.744-5.006.816-7.377.616-.215 1.291-.326 1.88-.652l-.058-.058 1.546-1.306c2.05-1.361 1.26-3.945 2.02-5.88-1.008-1.52-1.318-3.374-2.78-4.654l.085-.055c-1.153-1.417-3.23-1.251-4.803-1.958-2.083-.68-3.682.707-5.174 1.632-.645.11-.25.925-.952.896-.393 1.007-.873 2.098-1.155 3.215-2.78-.381-5.784-.082-8.002 1.443-1.186-.847-2.611-1.007-3.989-1.388-1.011-.195-2.16.16-2.89-.384-1.066-1.167-1.297-3.293-3.125-3.59-.645-.221-.78-.902-.78-1.501-1.21-.195-2.281-.736-3.455-.98-1.798-.792-3.23.465-4.577 1.306-.594.241-1.267.326-1.828.651-1.008 1.528-1.96 3.078-2.614 4.766.201 1.387.816 2.609 1.549 3.784.645 1.769 2.668 3.16 4.379 3.87-.814 2.693-.814 5.902 0 8.625 0 0-.045.038-.045.029 0 .009-.09.081-.09.081-.264 0-.559.05-.778-.081h-.036c.402 2.6 1.663 4.881 3.704 6.833.732.245.561 1.091.867 1.632.199.248.229.763.145.98-4.386-.133-8.29.929-11.802 2.86-.898.437-.504 1.632-.588 2.479 2.473-1.583 5.138-2.75 8.088-3.27 1.264-.076 2.693-.381 3.905-.055l.138 2.347c-3.337 1.69-6.993 2.668-9.853 5.446.054.841-.114 1.818.138 2.528l2.56-2.013c2.47-1.827 5.054-3.377 7.888-4.384.762.87 1.549 1.8 2.56 2.342a19.23 19.23 0 0 1 5.535-2.342c1.038-.6 2.698-.055 3.37-1.25l.475-2.48c-.079-.055-.139-.165-.28-.139-1.317-.736-2.19-2.013-2.077-3.508-.45.215-.951.355-1.488.375-.445-.105-.87-.215-1.066-.655-.027-.54-.312-1.358.255-1.762 1.822-1.091 4.184-1.147 6.486-.984 1.711.221 4.184.137 4.779 2.098-.084.573-.03 1.201-.622 1.58-.618.325-1.317-.03-1.882-.277-.447 1.338-1.206 2.833-2.749 3.27l.192 1.577c.192.71.252 1.879 1.405 1.632 2.668.63 5.03 1.963 7.36 3.403.789-.76 1.404-1.632 1.962-2.423 4.163 1.367 7.753 4.387 11.187 7.194l.135-2.29c-3.26-2.807-6.88-4.79-10.646-6.341.144-.736.312-1.446.342-2.237 4.463.247 8.704 1.582 12.38 3.674l-.056-1.958c-3.875-2.016-8.116-3.348-12.747-3.4-.174-.245-.228-.6-.198-.844 2.248-.352 3.844-2.61 4.382-4.576 1.155-1.277 2.812-2.668 2.419-4.57.048-.16.105-.326.165-.492.147-.468.273-.969.111-1.411Z"/><path fill="#FFF" d="m451.775 156.855 2.302-.71.258-1.248c.645-1.826-.732-3.188-1.408-4.63l-1.152 6.588zm5.814 8.626c1.095 1.172 2.164 3.048 4.103 2.478-.144-.791-.595-1.446-.87-2.152-.505-.57-.68-2.206-1.688-1.632-.759-.49-.951-1.307-1.434-1.961-.22 1.01-.081 2.26-.111 3.267zm.393 7.976c.423.57.54 1.31.954 1.827.76.486 1.885.405 2.816.326.837-.192 1.374.704 2.158.19-.982-.6-1.57-1.688-2.494-2.482-1.099-.838-2.279-.102-3.434.14zm1.492 12.664c1.939 1.114 4.4 2.205 6.987 1.824.28-.134.76-.108.813-.434-1.602-.547-3.283-2.097-4.964-2.423-.928-1.388-2.137.355-3.317.244.027.323.364.568.48.789zm5.831 24.038.424.87c.426 2.833 2.272 5.442 1.263 8.546.844.576 1.096 1.528 1.633 2.29h.138c.645-2.365.198-4.818-.138-7.189.252-2.15-1.999-3.4-3.32-4.517zm.487-27.878c1.458 1.09 3.79 1.195 5.474.654-1.065-.57-2.245-1.201-3.118-1.96l-2.356 1.306zm6.933 8.355c-.138 1.146.645 2.097 1.489 2.673.309-.678.81-1.257.867-2.016-.252-1.17-.927-2.234-2.023-3.025-.192.762-.42 1.498-.333 2.368zm.084 12.419c-.201 1.277 1.26 1.442 1.876 2.15.507.599-.336 1.009-.336 1.579 1.068 1.332 1.69 2.85 1.69 4.625.417-1.658 1.062-3.237 1.29-4.95-.114-1.202-2.077-.952-1.77-2.287.564-1.362-.112-2.694-.478-3.925-.108-.186-.366-.57-.585-.456-.51 1.11-1.771 1.902-1.687 3.264zm3.848-6.482 1.459 2.75c.645-.082 1.065-.682 1.57-1.118.392-1.143-.649-1.88-.952-2.807-.255-.655 0-1.522-.48-2.092-.367-.22-.784-.576-1.204-.465l-.393 3.732zm1.876-7.244c1.155.681 2.473 1.659 3.094 2.86.982 2.778 2.554 5.277 3.704 7.974.423 1.88.76 3.558 1.29 5.405.202.492.088 1.443.877 1.361.22-2.068.642-4.058.672-6.208-.702-.898-1.626-1.277-2.5-1.82v-.193c.114-.46.51-1.01 1.096-.922.249-.273 1.011-.544.675-1.035-1.462-1.414-1.378-3.85-3.704-4.288-.816-.326-1.011-1.147-1.095-1.903-1.099-.905-2.726-1.201-4.11-1.23zm1.356 14.758c1.43 1.277.928 3.13.814 4.847-.222 1.035 1.122.43 1.546.98.873 1.251.366 3.078.06 4.437.759-1.12 1.626-2.098 2.215-3.326-.024-.46.59-.68.564-1.253.249-.789-.702-.434-1.099-.515-.336-.082-.699-.3-.585-.736.723-1.362.054-2.994-.228-4.355-.336-1.117.144-2.615-.396-3.596-.9 1.205-3.572 1.475-2.89 3.517zm2.609-19.328c2.503 2.453 4.328 4.914 7.023 7.285.057-1.065-.084-2.043-.138-3.078-.393-.736-1.126-1.277-1.747-1.827-1.993-.186-3.031-2.79-5.138-2.38zm6.54 12.972c.06.25.174.465.288.707 1.092 1.745 2.134 3.543 2.893 5.42-.228-2.017 1.177-4.518-.681-6.072-.25-.657-1.087-.436-1.627-.384l-.873.329zm6.744 19.886c.786.355 1.798-.27 2.557-.706.703-.163 1.29.22 1.828.573.222.433 0 .843.084 1.253 1.684.46 3.338 1.062 4.827 2.014l.474-.463c.114-1.17-.838-2.016-1.741-2.67-.585-.326-1.462-.134-1.879-.652.282-.437.282-1.091.252-1.58-.927 0-1.519-.276-2.272-.707-.48-.136-.903-.52-1.297 0-1.401.922-1.485 2.287-2.833 2.938zm1.972-34.257c.7-.195 1.432-.384 2.02-.876 1.885-1.66 4.607-.544 6.801-.57-.423-.736-1.017-1.472-1.549-2.097-.789-.3-1.518-.652-2.416-.652-1.912-1.09-3.2.736-4.664 1.632-.396.736-.588 1.824-.192 2.563zm.048 5.606c0-.085 0-.169.084-.19.258.216-.027.74.396.844.73-.355 1.405-.843 2.077-1.306 1.882 0 3.008-1.771 4.857-1.771 3.094.546 6.156 1.149 8.848 2.612-.192-1.763-1.771-3.375-3.368-4.163-.903-.3-1.606.163-2.248.655-1.879 1.146-.897-1.662-2.215-1.717-1.717.515-3.488 1.091-5.397.922-1.122.413-1.911 1.417-3.175 1.307-.051.904-.19 1.995.141 2.807zm1.297 6.068c.588.605 1.57.495 2.416.605l2.443-.93c.027-.428-.73-.545-.561-1.033.675-.736 1.596-.216 2.443-.515 1.176-.166 2.386-1.304 3.566-.466-.036.14.05.326-.06.466-.364.843.252 1.361.927 1.687 1.378.244 2.665 1.472 4.043.922-.138-1.117-.444-2.144-.726-3.211-1.153-.19-1.97-1.115-3.035-1.499-.474.437-1.098.763-1.687.707-2.164-.491-4.751-1.798-6.939-.462-.786.928-2.191.654-3.26 1.062.063.925.175 1.826.43 2.667zm.927 16.186c-.168.463-.645 1.222.228 1.443 1.795.053 4.1-.846 5.505.515.477.355.249 1.091.219 1.554l2.36 1.905c.224-1.149.65-2.182.68-3.406-.198-.873-.648-1.714-1.434-2.284-1.549 0-2.443-1.754-4.106-1.539-.868-.186-1.627.561-2.5.561-.388.379-.616.844-.952 1.251zm.672-12.837c.364.736.79 1.934 1.49 2.013 1.656-.701 4.075-1.14 5.927-.376.615.105.615.786.48 1.222.952.544 2.104.98 3.116 1.577l-.282-1.635c-.057-1.769-2.357-1.929-2.5-3.674-1.883-.597-3.99-.791-5.983-.326-.645.57-1.575.495-2.356.655-.057.218.078.357.108.544zm.478 8.823c1.095-.303 1.8-1.47 2.98-1.58 1.795.03 3.398.74 4.523 2.24.673.428.531 1.545 1.405 1.545-.258-1.332.192-2.554.135-3.922-1.174-1.902-4.097-.43-5.193-2.667l-2.077.137c-1.491.357-1.095 2.045-1.29 3.19-.171.35-.507.623-.483 1.057zm10.313 11.91c.867 1.687 2.782 2.967 2.974 4.899.447-.515.76-1.115 1.066-1.688-.03-.544-.676-.544-.925-.98-.258-.707.135-1.332.25-1.96-.367-1.007-1.24-1.959-2.219-2.56l-1.146 2.289zm3.454-4.303 2.02 2.67c.868-1.332.868-3.295.531-4.901-.192-.303-.56-.791-1.062-.57-.76.759-.873 1.931-1.489 2.801zm-8.233-74.52c.73.356 1.432.682 2.308.737.586-.3 1.348-.52 2.077-.326 1.039.655 2.303-.137 3.512-.081-1.068-.98-2.281-1.583-3.512-2.153-1.575.323-2.836 1.414-4.385 1.824zm10.983 2.555c1.488.137 2.56 1.417 3.565 2.479 1.264.186 2.218 1.061 2.975 1.957l-.472-1.44c-.336-1.445-1.27-2.563-2.22-3.706-1.348.085-2.672.198-3.848.71z"/><path fill="#F60" d="m412.873 130.91.817.083c2.185 1.062 5.723 1.606 5.927 4.681-2.224.847-4.358 1.987-6.129 3.73-1.344-1.333-4.07-.6-4.523-2.939.427-2.21 1.237-4.989 3.908-5.556zm2.11 13.806c2.557-.221 5.028.13 7.669-.085.642.27 1.315.812 1.627 1.44-.087 2.941-1.012 5.749-1.15 8.768-1.152.46-2.278 1.39-2.56 2.613-1.039.3-1.97.896-2.98 1.358-.442-.922-.364-2.313.426-3.078 1.095-1.495 3.935-1.146 3.71-3.514.729-1.14.03-2.612.05-3.808-.279-.902-.56.3-1.008.27-.897.187-1.822.242-2.611-.194-.592-.6-1.315-1.091-1.489-1.903-.79-.38-1.71-.977-2.107-1.768l.423-.1zm3.089 17.742c1.2.169 2.47-.355 3.508.221-.219.384-.813.544-1.29.655l-1.885.84c-.7-.16-.306-1.25-.333-1.716zm4.913-22.729c1.204-.38 2.5-1.166 3.79-.79-.924.901-1.653 2.068-2.355 3.158l-3.848-.081c.423-.983 1.489-1.795 2.413-2.287zm11.264-.896c1.6-.27 1.513 1.743 2.975 1.819.258.325.624.625.48 1.117-.846.326-2.08.168-3.034.38-1.267-.68-.448-2.804-2.444-2.667-.11-.166-.333-.491-.057-.6.619-.214 1.438-.133 2.08-.049zm-1.011 7.29c.702-.954 1.77-1.032 2.782-1.221l7.276.13c.309.277-.282.521-.282.847-.448.41-1.096.521-1.49.9-.954.025-.87 1.116-1.542 1.582-1.041 1.006-2.56.54-3.767.38-.42-.302-.897-.709-1.098-1.172l-.336.326c.423 1.528.312 3.215.624 4.765l1.74 1.117c.028 2.502 3.062 1.822 4.38 3.212-.31.902-.927 1.661-1.6 2.423-1.065-1.006-2.278-1.658-3.566-2.097-.114-1.463-1.77-2.339-2.692-3.072-.258-2.67-.312-5.394-.76-7.98l.331-.14zm2.641 16.8h3.374l-.423 1.714-3.377-1.388c-.078-.27.228-.352.426-.325zm6.066-30.842 2.5-.762c1.435.652 2.78 1.466 4.1 2.394 1.039 1.85.874 4.355.394 6.424-.76.814-2.417 0-3.032 1.306h-.117c-.924-2.557-3.566-4.85-6.009-6.013.393-1.31.817-2.59 2.164-3.349z"/><path fill="#091C5A" d="M341.915 144.242h-3.533l-.164 1.235c-.24 1.844-.951 4.931-3.01 4.931-.586 0-2.048-.282-3.696-1.052-7.156-3.165-16.428-5.114-24.235-5.114-15.19 0-28.97 5.555-38.814 15.646-9.04 9.273-13.987 21.893-13.918 35.531.065 13.064 5.096 23.81 15.396 32.869 10.375 9.06 22 12.924 38.893 12.924 14.072 0 22.128-2.063 34.491-8.838l2.165-1.197v-24.375c0-10.39 1.246-12.006 9.527-12.348l1.347-.053v-3.62h-40.456v3.62l1.347.053c9.223.366 10.965 2.054 10.965 10.644v22.588c-6.843 4.608-11.817 6.358-18.088 6.358-9.281 0-17.54-3.662-23.882-10.129-7.427-7.587-11.05-18.637-11.05-31.124 0-13.452 3.508-24.928 10.737-32.3 5.754-5.875 13.397-9.136 22.116-9.136 7.788 0 16.835 3.41 23.04 8.434 5.046 4.217 7.663 8.298 9.64 15.041l.3 1.02h3.454l-2.572-31.608zm-116.126 64.374s-.793-3.972-.908-6.195v-29.057c-.178-16.944 1.98-25.38-11.853-25.315v-3.807h31.82v3.807c-14.246-.06-12.453 8.374-12.535 25.315v67.848l-4.53-.052-68.713-77.013s.772 3.965.887 6.192v47.582c-.39 17.358 1.617 19.455 12.058 19.251v3.966h-33.172v-3.966c10.456.013 12.51-1.477 12.499-20.667v1.147-46.893l-.085-7.443c.39-9.634-2.933-15.221-13.075-15.13v-3.811h30.541l57.066 64.241zM83.185 148.211c3.855 0 6.54.826 8.209 2.512 1.866 1.887 2.702 5.005 2.702 10.106v63.722c0 8.818-1.828 12.75-12.617 12.75H80v3.911h48.485v-3.89l-1.463-.02c-10.686-.13-12.489-4.04-12.489-12.751v-63.725c0-5.085.833-8.19 2.699-10.074 1.684-1.712 4.418-2.544 8.352-2.544h2.898v-3.966H80v3.966h3.185v.003z"/></g></svg>