<svg xmlns="http://www.w3.org/2000/svg" width="512pt" height="512pt" preserveAspectRatio="xMidYMid" version="1.0" viewBox="0 0 512 512"><path d="M409.093 38.184c-.85-.017-1.084.655-1.688 2.85-6.51 25.526-8.923 30.719-15.945 34.23-1.462.731-3.95 1.537-5.412 1.83l-2.779.51v-8.118c0-7.972.073-8.265 3.365-16.164 1.828-4.462 3.218-8.85 3.072-9.801l-.22-1.757-9.875 2.56c-5.412 1.39-11.337 3.292-13.166 4.316-1.828 1.024-5.997 3.218-9.361 4.827-6.071 3.072-6.072 3.072-10.095 2.194-2.267-.512-8.117-2.852-13.164-5.193-4.974-2.34-9.144-4.095-9.29-3.802-.22.292-1.756 4.753-3.438 10.02-1.756 5.192-3.73 11.19-4.534 13.312l-1.39 3.804-8.558-5.999c-11.41-7.9-21.43-15.798-27.21-21.43l-4.754-4.609-8.411 1.757c-9.143 1.901-15.872 4.023-23.772 7.68a410 410 0 0 1-11.336 4.826c-5.559 2.268-7.095 3.292-14.263 10.095-10.24 9.581-17.92 18.577-22.968 26.623-9.435 15.14-11.044 17.993-10.532 18.432.805.732 19.456 8.045 20.334 8.045.877-.073 4.095-4.315 10.459-13.824l4.608-6.874 10.021-5.852c11.995-6.949 27.356-16.896 33.5-21.724l4.388-3.438 1.755 1.83c6.29 6.436 55.515 35.254 60.343 35.254 1.682 0 9.436-15.068 11.411-21.943 1.17-4.316 1.608-4.68 3.656-3.583.951.512 5.413 1.828 9.802 2.852l8.046 1.901.877 10.606c1.097 13.824 1.609 16.311 3.73 16.604.878.146 3.511-.658 5.852-1.682 5.412-2.56 10.313-4.096 24.576-7.753 13.604-3.438 14.41-3.878 27.356-15.8 4.973-4.608 10.751-9.142 12.8-10.24 3.364-1.682 4.315-1.828 9.654-1.463 7.826.512 18.14 3.438 27.063 7.827 8.704 4.17 14.41 5.924 19.603 5.997 4.827.073 7.752-1.17 13.677-5.85l4.755-3.732.22 128.806c.073 70.875 0 128.95-.074 129.096-.146.147-2.56-.657-5.34-1.681-15.213-5.852-31.085-9.583-43.373-10.314-6.29-.366-7.754-.658-8.924-1.902-.731-.877-1.39-1.975-1.39-2.487s2.487-2.779 5.486-4.973 6.29-5.12 7.314-6.51c3.145-4.169 8.192-13.385 9.874-18.212 2.34-6.803 3.658-9.144 7.973-14.41 4.608-5.632 6.876-10.093 8.851-17.92 2.706-10.459 1.9-11.117-7.096-6.143l-5.412 2.999.512-2.121c.293-1.098.95-3.293 1.462-4.829.585-1.536 1.318-5.486 1.757-8.777s1.755-10.094 2.925-15.14c1.243-5.047 2.633-12.36 3.072-16.31.804-6.071 1.097-7.168 2.414-7.534 2.194-.658 8.485-4.682 11.264-7.169 3.146-2.852 5.924-8.703 5.924-12.507 0-1.609.512-6.51 1.17-10.898.805-5.486 1.097-11.337.878-18.286-.22-9.362-.439-10.753-2.268-14.63-3.51-7.533-15.14-22.087-21.723-27.06-4.535-3.438-11.922-6.218-17.92-6.803-6.582-.586-22.235 2.193-27.867 4.9-8.923 4.388-16.164 14.922-17.992 26.478-1.024 6.364-1.025 6.437-8.267 6.437-13.604 0-31.89 5.34-41.106 11.922l-3.072 2.194-3.876-1.683c-13.312-5.778-23.48-8.119-37.084-8.704l-11.19-.438-1.683-4.535c-4.315-11.995-12.288-19.163-30.5-27.648-7.169-3.291-12.8-4.536-23.26-5.12-9.874-.586-11.703-.147-20.626 5.265-9.509 5.632-12.068 8.705-15.872 18.36-9.289 24.136-8.63 30.94 5.267 52.59 2.779 4.316 3.73 5.192 7.167 6.655 8.338 3.584 14.409 6.876 14.848 7.9.22.585-.073 3.437-.731 6.363-1.756 8.485-2.121 20.407-.804 27.21.585 3.218 1.315 7.972 1.535 10.605.292 2.633 1.098 7.534 1.902 10.899.805 3.364 1.317 6.29 1.17 6.436-.145.22-2.487-.584-5.193-1.608-4.023-1.61-5.266-1.829-6.655-1.17-.951.438-1.757 1.389-1.757 2.12 0 2.34 2.123 8.631 5.122 15.214 2.486 5.266 4.167 7.68 10.823 14.848 8.85 9.435 15.068 17.334 17.408 22.161 1.902 3.73 3.292 9.364 2.341 9.364-3.437 0-28.891 3.291-34.596 4.462-8.778 1.828-22.601 6.874-36.572 13.384-8.996 4.242-10.24 5.047-10.459 6.73-.439 3.071 1.39 12.067 2.414 12.506.586.147 3.877-.95 7.46-2.559 24.065-10.825 44.984-16.677 62.538-17.481l8.484-.44 1.244 2.488c.731 1.316 1.316 4.022 1.389 6.07l.073 3.658-6.583 2.852c-14.19 6.217-43.74 21.21-54.93 27.867l-11.703 7.022.95 5.633c1.025 6.436 1.976 8.995 3.219 8.995.512 0 4.682-2.193 9.363-4.9 19.09-10.971 57.636-29.404 64-30.574 1.462-.292 4.388-.293 6.51-.073 3.217.439 4.096.878 5.047 2.487.658 1.097 2.486 3.364 4.096 5.047 4.022 4.388 5.925 4.242 16.384-1.17 8.63-4.536 25.965-10.533 37.01-12.947 7.24-1.536 9.289-3.364 10.02-8.922.293-1.902.732-4.243 1.097-5.267.585-1.609 1.024-6.218.805-8.412-.074-.439-2.049-2.194-4.462-3.95-2.487-1.828-5.412-4.827-6.728-6.875-2.048-3.146-2.415-4.534-2.707-9.07l-.22-5.339-3.803 2.122c-7.753 4.388-11.264 3.584-13.24-2.999-1.389-4.827-1.389-8.12.074-11.191 1.244-2.634 3.145-3.73 10.532-6.07 9.875-3.073 12.582-3.439 26.332-3.439 12.435 0 14.117.146 20.48 1.975 14.117 4.023 14.849 4.315 16.385 7.387 3.364 7.022.51 16.604-5.048 16.604-1.39 0-3.877-.512-5.486-1.17-3.657-1.463-5.12-.952-5.12 1.755 0 5.778-3.73 11.556-10.312 15.944-5.778 3.804-5.998 4.463-3.585 12.142.805 2.487 1.464 5.633 1.464 6.876 0 3.438 1.39 4.461 7.68 5.851 15.14 3.218 18.797 4.829 34.01 14.922 4.901 3.219 9.655 6.071 10.606 6.29 2.56.659 5.56-1.828 10.314-8.484l4.096-5.706 4.9 2.048c23.552 10.094 52.882 24.357 57.344 28.014l1.975 1.608v-29.915c0 7.827-.146 14.19-.292 14.19s-2.56-1.243-5.34-2.852c-9.947-5.559-29.915-16.018-31.67-16.53-1.025-.293-4.975-1.903-8.778-3.658-3.803-1.682-7.533-3.29-8.191-3.51-1.17-.439-1.317-1.536-1.317-8.558 0-6.464.112-7.832.924-7.828.116 0 .246.03.393.075.658.22 7.972 1.9 16.237 3.656 18.067 4.023 28.159 6.803 36.79 10.314 1.097.44 1.244 1.901 1.244 14.701V73.216l-1.609-.878c-.95-.512-3.511-2.121-5.705-3.584-10.387-6.949-30.209-17.846-42.277-23.259l-8.118-3.658-7.9 6.657c-12.947 10.752-17.409 13.238-20.7 11.483-1.61-.878-1.61-1.024-1.17-10.606l.512-9.655-6.436-.438c-3.511-.22-7.314-.66-8.411-.879-.458-.128-.81-.21-1.093-.215zM512 395.336l-.147 36.573-.218 36.571-3.95-5.485c-3.439-4.9-8.046-13.458-9.143-17.042-.512-1.61-4.682-3.438-7.9-3.438-1.316 0-3.73-.512-5.34-1.098-1.608-.585-3.657-1.024-4.608-1.097-1.536 0-1.68.22-1.242 2.341.293 1.317 1.827 6.436 3.363 11.263 3.804 11.85 6.145 14.63 14.557 17.409 3.218 1.024 7.825 2.121 10.239 2.414l4.389.438zm-45.24-272.329c2.47 0 5.122.422 8.303 1.263 7.388 1.975 8.777 2.632 12.36 5.924 4.682 4.315 5.926 8.412 5.853 19.018-.073 18.359-3.291 25.234-12.8 27.794l-2.78.804-5.633-5.924c-8.923-9.289-18.357-15.652-27.28-18.359l-3.146-.95.292-4.462c.292-2.78 1.097-5.853 2.414-8.413 4.68-9.216 8.558-13.165 15.214-15.432 2.45-.841 4.735-1.263 7.204-1.263zm-277.234 1.563c-7.371.163-10.62 2.643-14.203 9.94-2.195 4.461-2.34 5.339-2.56 13.97-.219 7.46.073 11.41 1.682 20.772 1.024 6.364 1.756 11.995 1.537 12.507-.439 1.17-12.946 10.534-17.115 12.875-2.853 1.536-3.146 1.974-2.927 3.949.22 1.17 1.098 8.777 2.05 16.822.877 8.046 1.754 15.068 1.974 15.654.146.658 1.536-.659 3.438-3.292 2.121-2.926 7.166-7.68 15.139-14.117 6.583-5.339 12.654-10.532 13.459-11.41.805-.95 3.218-2.413 5.266-3.29 2.194-.952 5.047-2.927 6.51-4.536 3.438-3.876 3.292-5.194-2.706-18.872l-4.681-10.605v-9.508c.073-6.583.584-12.654 1.755-19.603.95-5.486 1.536-10.24 1.316-10.459-.219-.22-3.145-.586-6.51-.732a47 47 0 0 0-3.424-.065zm80.685 1.335c3.993-.027 8.033 1.437 14.388 4.728 6.51 3.438 8.705 4.974 10.387 7.314 2.414 3.511 4.753 10.095 4.387 12.289-.22.878-2.267 2.853-4.827 4.535-8.63 5.705-19.53 14.994-24.064 20.48-2.56 2.999-5.34 5.631-6.29 5.85-3.365.878-15.506-11.922-20.334-21.503-2.779-5.56-3.291-13.24-1.097-17.555 3.219-6.363 9.144-10.678 19.823-14.555 2.852-1.015 5.23-1.567 7.627-1.583zm118.097 41.642c2.357.025 6.7.728 13.1 2.145 5.486 1.17 11.337 2.34 12.946 2.632 5.267.878 15.142 4.828 17.628 7.023 4.243 3.803 3.145 6.29-4.901 10.752-4.023 2.267-4.243 2.267-14.336 2.267h-10.24l-.44-4.681c-.438-4.608-1.535-7.535-3.07-7.9-.367-.147-2.927-1.536-5.56-3.072-4.462-2.633-7.24-5.851-7.24-8.484 0-.467.699-.696 2.113-.682zm-39.097 2.356q.406-.006.778.007l3.657.147-.147 3.071c-.073 1.683-.585 3.951-1.17 5.048-1.975 3.804-12.58 16.384-14.189 16.823-.878.219-4.9.074-8.997-.365-4.023-.44-9.07-.806-11.045-.806-3.145 0-3.657-.22-3.291-1.17.22-.659.44-1.463.44-1.902 0-.365 2.193-2.998 4.899-5.777 5.047-5.266 13.165-10.826 18.14-12.362 1.608-.512 4.095-1.39 5.485-1.901 1.216-.448 3.552-.785 5.44-.813zm-39.744 41.553c17.262-.073 22.163.146 24.138.95 2.926 1.244 6.875 5.267 7.46 7.608.22.877-.439 7.606-1.39 14.994-1.901 14.336-4.534 37.595-4.826 42.934-.22 3.072-.44 3.438-3.731 5.486-9.801 5.998-10.021 6.29-12.142 11.703-1.756 4.535-2.268 5.267-5.193 6.876-1.829.95-5.485 3-8.192 4.608-5.559 3.292-7.46 3.364-9.654.365-1.244-1.682-1.537-3.144-1.537-6.948.073-9.728 6.583-17.554 18.505-22.528 6.364-2.633 7.972-4.169 9.362-8.777 1.024-3.584 1.902-26.698 1.024-27.576-.22-.22-4.023-.072-8.484.367-8.046.804-8.119.804-12.434-1.17-3.438-1.61-6.436-4.097-14.994-12.727-9.362-9.363-12.508-13.386-11.484-14.41.146-.22 2.926-.585 6.071-.95 3.219-.366 15.579-.732 27.501-.805zm104.574.114c3.477-.006 8.523.088 16.039.252 23.625.44 34.67 1.097 35.474 1.902.877.877-7.095 8.265-11.63 10.825-3.291 1.828-4.535 3.072-5.632 5.412-2.853 6.437-9.29 9.948-18.286 9.948-7.533 0-11.336-1.17-14.774-4.608l-2.925-2.926.438 5.413c.292 2.999.66 8.557.879 12.36.877 15.068.657 14.337 5.046 16.311 3.218 1.536 4.608 2.78 8.484 8.192 3 4.169 5.413 6.73 6.876 7.315 2.853 1.17 20.115 11.775 21.65 13.238.878.878.878 1.024-.22 1.024-.73 0-1.39.806-1.682 1.976-.658 2.853-4.535 10.167-6.217 11.63-1.317 1.17-1.535 1.096-4.827-1.464-1.901-1.463-7.534-4.754-12.654-7.314l-9.142-4.681-2.927-5.924c-3.219-6.656-4.607-8.193-11.117-12.07-4.315-2.56-4.608-2.925-4.608-5.412 0-4.9-2.194-25.892-4.096-38.619-1.097-6.948-1.683-13.239-1.39-14.117.512-1.609 5.12-5.632 8.777-7.68 1.234-.685 2.669-.972 8.464-.983zm-210.46 12.317c-8.496-.107-23.924 2.801-34.622 7.025-7.899 3.145-10.459 5.193-11.556 9.362-1.682 6.29-1.462 22.236.367 30.94.877 4.096 1.828 7.826 2.12 8.265.293.512 2.267-.878 4.974-3.511 2.413-2.414 5.486-4.974 6.656-5.706 1.243-.731 8.485-6.216 16.238-12.14 7.68-5.925 14.774-11.191 15.725-11.703 3.657-1.829 4.975-3.73 4.975-6.876 0-1.682.512-4.681 1.097-6.656 1.39-4.755 1.39-6.364-.22-7.827-.86-.768-2.922-1.138-5.754-1.173zm2.243 49.74c-1.024.073-25.088 7.681-29.915 9.436-2.487.878-10.972 5.925-19.53 11.557l-15.067 10.02-.073 5.851c-.073 3.292.365 7.68.95 9.875.586 2.194 1.39 9.143 1.902 15.36.439 6.217 1.024 11.775 1.17 12.36.22.732.805.366 1.975-1.17 3.876-5.266 19.75-23.113 26.478-29.915 7.46-7.534 12.361-11.19 22.601-17.115l5.78-3.292 1.68-6.949c.879-3.803 1.903-8.996 2.122-11.556.293-2.487.22-4.535-.073-4.462zm215.22 56.224c4.518-.028 11.198.926 15.326 2.51 5.778 2.195 5.486 1.317 3.804 9.802-.658 3.803-.805 3.876-2.634 3.438-1.097-.22-4.9-1.756-8.484-3.365-3.511-1.61-7.461-3.072-8.778-3.292-5.997-1.024-5.778-.804-5.266-4.095.293-1.683.878-3.512 1.39-4.098.503-.603 2.276-.886 4.642-.9zm-109.434 2.692c4.053-.028 9.167.482 10.95 1.135 1.829.659 1.83.731.366 1.755-3.364 2.487-19.529 10.605-20.406 10.313-.951-.366-4.098-8.485-4.098-10.46 0-.95 5.341-2.266 10.607-2.632a32 32 0 0 1 2.581-.111zm-136.945 10.13c-.22-.219-26.916 14.045-27.574 14.703-.512.512 2.194 42.861 2.852 45.64.366 1.463 1.243 5.413 1.901 8.778.585 3.365 2.048 8.485 3.219 11.338 1.17 2.78 2.267 5.997 2.56 7.167.366 1.756.585 1.902 1.828 1.244 2.706-1.463 10.386-11.995 14.044-19.31l3.657-7.24-1.901-9.217c-1.097-5.047-2.56-11.996-3.292-15.434-1.097-5.193-1.244-7.68-.732-14.994.293-4.827 1.243-11.848 2.121-15.652.805-3.73 1.39-6.95 1.317-7.022zm188.334 31.363c-8.133.004-10.67.346-18.35 1.553-11.63 1.902-28.233 8.484-34.815 13.824l-1.975 1.536 2.559 7.825c1.39 4.243 3.291 9.217 4.169 10.972 1.536 2.999 6.144 7.827 7.534 7.9.365 0 3.365-2.634 6.73-5.852 3.364-3.218 6.582-5.85 7.24-5.85.878 0 1.097 1.242 1.097 7.313 0 7.827 1.61 17.554 3.365 20.26 1.975 3.073 13.019 4.316 17.115 1.902 2.56-1.463 4.755-5.339 6.072-10.459l1.024-3.876 1.608 2.632c1.829 3 5.852 6.803 9.801 9.217 2.633 1.61 3.366 1.681 9.437 1.316 3.584-.22 7.022-.804 7.534-1.243 1.316-1.097 3.51-11.19 3.436-16.31 0-2.268.147-4.17.366-4.17.805 0 9.583 7.387 13.386 11.264 2.194 2.267 4.241 4.095 4.534 4.095 1.024 0 5.779-7.825 7.973-13.238 2.852-6.875 4.315-14.483 4.315-22.236v-6.143l-3.802-2.122c-5.852-3.29-16.093-6.655-25.455-8.337-6.363-1.098-12.36-1.537-24.502-1.684-4.352-.054-7.686-.09-10.396-.089zM185.197 419.84c-.804.073-8.704 6.216-12.873 10.02-2.12 1.902-5.632 4.462-7.826 5.705-4.755 2.634-5.193 4.242-2.486 9.509 1.609 2.999 2.12 5.705 3.071 14.994.659 6.217 1.318 11.484 1.464 11.63.512.659 4.827-4.096 6.143-6.875 1.463-3.072 5.851-7.753 17.7-19.31 3.877-3.73 7.096-7.168 7.096-7.534 0-1.755-5.412-10.971-8.411-14.336-1.902-2.121-3.658-3.803-3.878-3.803zm47.754.137c-1.307-.046-2.259.595-3.502 1.911-5.34 5.559-5.924 16.97-1.902 34.67 1.683 7.314 1.17 6.73 12.727 13.166 13.531 7.46 15.726 8.63 15.726 8.265 0-.22-1.17-4.17-2.56-8.778-5.266-17.48-6.364-22.893-5.852-28.964.878-9.655-1.316-13.97-8.996-18.066-2.67-1.426-4.333-2.159-5.64-2.204zm43.885 16.045c-1.179-.164-1.93.092-2.185.787-.146.512-.659 3.438-1.17 6.437-.44 2.998-1.317 6.948-1.829 8.777l-1.024 3.291 3.585 5.12c4.535 6.51 5.997 9.509 8.484 17.189 1.097 3.437 2.999 8.265 4.242 10.752l2.268 4.535 3.145-6.583c5.559-11.85 6.436-17.555 4.169-26.917-2.56-10.532-7.753-17.993-14.92-21.65-1.976-.988-3.585-1.573-4.765-1.738zm169.774 17.464c-2.413 0-2.998 15.433-.95 24.576 1.463 6.363 3.291 10.678 7.46 17.846 5.559 9.509 8.777 11.557 18.14 11.703 3.071 0 7.826-1.535 7.826-2.56 0-.219-.95-2.12-2.121-4.241-5.34-9.509-8.85-22.237-8.85-32.038 0-5.559-.22-6.728-1.464-7.972-.805-.804-1.9-1.463-2.413-1.463s-4.462-1.316-8.777-2.925c-4.242-1.61-8.192-2.926-8.85-2.926zm-20.187 8.045c-1.536 0-12.581 4.39-14.776 5.926-3.73 2.56-6.509 5.265-7.167 7.02-.366.878-.366 4.608.073 8.412.366 3.73 1.025 10.679 1.39 15.36.366 4.681 1.023 9.216 1.462 10.021.44.878 2.268 1.974 4.242 2.56 3.219 1.023 2.415 1.096-13.53 1.096-9.363.073-17.042-.072-17.042-.145 0-.146 1.828-3 4.022-6.291 4.9-7.388 5.778-10.313 5.266-18.36-.365-5.265-2.267-16.676-2.925-17.334-.146-.073-4.388.806-9.435 2.05-10.02 2.413-14.922 4.899-15.8 7.97-.95 3.292-.439 15.58.878 19.677.658 2.194 1.17 5.924 1.17 8.264V512H512l-40.375-.147-40.375-.218-2.048-8.413c-1.828-7.826-1.975-9.507-2.048-25.087 0-10.24-.292-16.604-.73-16.604zm-222.427 7.9-3.072.511c-6.949 1.17-36.353 11.484-36.353 12.8 0 .293 1.463 3.292 3.218 6.656 3.145 5.852 9.217 20.408 9.217 21.87 0 .513-31.232.732-88.503.732h98.23l4.828-5.193c2.633-2.853 7.607-8.192 11.044-11.923 3.438-3.657 7.023-7.533 7.974-8.63l1.681-1.975-1.901-2.414c-1.024-1.39-2.852-4.754-4.096-7.46zm116.956 5.34c-1.299-.11-2.05.109-2.05.657 0 .366-.804.733-1.828.733-1.097 0-2.267.73-2.998 1.828-1.17 1.755-1.097 2.194.293 7.167.804 2.926 1.755 6.437 2.047 7.827.659 3.584 3.291 8.558 6.948 13.24 1.683 2.193 3.366 4.387 3.804 4.826.512.731-13.532.95-69.852.95h90.332l-.877-3.875c-.439-2.048-1.17-7.753-1.537-12.654-.731-9.8-1.244-11.63-3.73-13.897-2.414-2.194-4.169-3-7.899-3.584-1.829-.293-5.047-1.17-7.314-1.902-2.194-.768-4.04-1.207-5.34-1.316z" style="fill:#ff6200;stroke:#000;stroke-width:0;fill-opacity:1"/></svg>