<svg xmlns="http://www.w3.org/2000/svg" width="512" height="512" viewBox="0 0 135.467 135.467"><defs><clipPath id="b" clipPathUnits="userSpaceOnUse"><path d="M1214.465 763.142h158.367v141.735h-158.367z"/></clipPath><clipPath id="a" clipPathUnits="userSpaceOnUse"><path d="M1214.465 763.142h158.367v141.735h-158.367z"/></clipPath></defs><path d="m1267.586 833.963 1.734 13.002 2.598 12.132 4.332 6.066 2.604 13.003 5.202 10.404 6.93 2.598 11.269.87s18.204-2.604 20.802-2.604c2.604 0 23.407-.864 23.407-.864l16.464 2.598 8.67-5.202 4.332-15.6 10.404-21.667s2.598-10.398 4.332-13.002 10.405-36.403 13.003-38.137 30.336-16.47 30.336-16.47l23.407 4.332 3.462 13.872 11.268 4.332 17.334-11.268s17.334-44.21 19.068-46.807 2.598-28.602 2.598-28.602v-14.737l12.139-13.002s-5.977 8.58 2.604 0c12.996-12.996 103.142 66.746-.87 150.819l-14.698.838-15.197-.147-14.001 8.19-2.828 4.614-.147 14.896 14.743 3.276 6.552 2.086 5.509-1.49 12.964-14.743 8.632-10.424 8.901-8.267 33.613-41.317 9.802-28.007-7-49.021-25.211-34.31-40.613-10.507-48.131-5.65h-138.854l-94.305 3.122-3.948 14.34 7.352 11.115 20.438 10.039 11.825-4.485 3.052 4.664 14.154 39.257-8.779 31.188.359 7.352 5.022 11.294z" clip-path="url(#a)" style="fill:#fff;fill-opacity:1;fill-rule:nonzero;stroke:none" transform="matrix(.8527 0 0 -.8527 -1035.154 786.202)"/><path d="M1312.653 818.497c-1.28 2.559-4.479 0-7.679 1.28 0-1.28 0-2.56 1.92-3.84 1.92 1.92 5.119 2.56 5.759 2.56m5.119 33.913c0 1.28-1.28 2.56-3.199 3.84h-15.358c0-2.56 1.92-3.84 3.84-3.84 0-2.56 1.919-3.2 2.559-3.84 1.92-1.28 2.56-1.28 4.479 0 1.92-1.28 2.56 1.28 3.2 0 0-3.838 0-5.758-.64-8.957-.64-4.48-4.479-3.84-7.679-5.76 0-1.92-1.919-5.118 0-7.038 1.92 1.28 3.2 1.92 6.399 3.2 0 1.919 1.92 3.839 4.479 5.119 0 5.759 1.92 11.518 1.92 17.276m28.794-37.112v3.199h-6.398l-.64-.64zm-37.752 58.868c-.64 6.399-7.679 7.039-10.878 9.598h-2.56c-5.119-1.92-6.399-7.038-7.038-11.517 1.919-5.76 5.759-1.92 8.318-5.76 2.559 1.92 8.958 6.399 12.158 7.679m14.077-7.038c-1.28 1.279-5.119-.64-7.039-1.28-2.559-.64-4.479-2.56-4.479-4.48h7.039c.64 1.92 3.199 4.48 4.479 5.76m31.994-13.438s1.279 0 0 .64l-14.077 1.92c-1.28-1.92-4.48-1.92-4.48-3.84h-1.279c1.279-5.12 1.279-10.877 1.279-16.636 2.56-.64 5.119-1.92 5.119-5.76 2.56-1.28 5.119-1.92 7.679-3.84 1.28.64 1.92 2.56 2.559 4.48-2.559 3.2-8.318 1.28-8.318 7.039l-3.839 1.28c0 3.839 0 7.679-.64 10.238l.64.64c0-.64.64-1.28 1.919-2.56 2.56 0 5.119-.64 7.679 1.28 1.28.64 1.28 3.839 2.559 3.839s2.56 0 3.2 1.28m-10.238 7.679c0 1.919-.64 1.919-1.28 1.919-3.199 0-3.199 5.119-5.759 3.84-1.28 0-2.559 1.279-4.479 0 0-.64 0-.64 1.28-.64 3.199 0 1.919-4.48 4.479-5.12zm21.756 3.839c1.279 3.199 1.279 8.958-1.28 12.158-1.28 2.559-4.479 3.839-7.679 6.398l-4.479-2.56c-2.559-1.28-3.839-3.838-3.839-7.038 4.479-1.92 8.958-7.038 10.878-10.878h1.92c1.919 1.92 3.199 0 4.479 1.92m-132.455-178.526c-.64 0-2.559 1.92-4.479 1.92-1.92-3.84 0-6.4 0-10.878 0-1.92-.64-3.84-.64-3.84-1.28 0-3.839 2.56-4.479 5.12v10.238l5.759 7.039c3.839-2.56 5.119-6.4 3.839-9.6m16.637 7.04c0-2.56-.64-5.12-1.92-7.04-.64 2.56-2.559 5.76-5.759 5.76-2.559-5.12-3.199-7.038-.639-14.717-1.92-1.92-3.2-2.56-5.759-3.84-1.28 2.56-1.28 7.04-1.28 9.599 0 4.479.64 8.958 1.92 12.798 1.919 1.919 3.199 5.119 5.119 7.038h7.038c-3.199 0-3.199-3.2-3.199-5.12 1.919-.64 4.479-1.28 4.479-4.478m22.396-3.84c0-5.118-8.319-12.157-8.319-12.157 0 3.2 1.92 7.039 1.92 10.878 0 0-2.56 2.56-5.119 2.56-1.92-1.28-1.92-2.56-2.56-4.48-1.919-3.84-5.759-7.678-6.398-11.517-.64 0-.64.639-.64.639 0 6.399.64 17.277 4.479 21.756 3.199 3.84 5.759 3.84 9.598 4.479l3.199-.64-2.559-3.84c2.559-1.278 6.399-3.838 6.399-7.677m17.916 6.399-1.92-6.4-4.479 11.519c-5.119 5.119-10.878 5.758-14.077 8.318-2.56.64-2.56-1.28-3.839 0 0 1.28 0 3.199 1.919 5.119h3.84l3.839-1.92c1.92-1.92 6.399-1.92 6.399-5.76 0-.638-.64-1.278 1.28-3.838l6.398-1.92zm9.598 9.598-4.479-4.48c-1.28 1.92 0 5.12-1.919 7.039 0 1.28 1.279 1.92.639 2.56-.639 1.279-8.318 3.839-8.318 3.839-2.559 1.92-5.759 3.839-8.318 6.399-2.56.64-4.48-.64-7.679-1.28v1.28c1.28 2.559 1.28 5.759 5.119 5.759 1.92 0 4.479 0 5.759-1.92 2.56 0 3.839-2.56 5.759-3.2 3.199-3.2 5.759-4.48 7.678-5.758q0-2.88 1.92-3.84c3.839 0 2.559-3.84 3.839-6.398m3.2 19.836c0-1.92-.64-9.598-.64-9.598-1.28 4.479-4.479 8.958-8.319 8.958-1.919 1.92-3.839 3.839-4.479 5.759-1.919 1.92-3.839 0-6.398 1.92-2.56 0-5.759 0-8.319-1.92v1.92l4.479 5.118c4.479-.64 10.238 0 11.518-3.2 3.199-1.918 6.399-3.838 7.039-5.118v-1.92c1.279-.64 3.839-1.28 5.119-1.92m-3.2 32.635-2.559-9.6c-3.2-2.558-7.679-1.278-11.518-1.278 5.119 1.279 8.958 7.038 11.518 10.878.64.639 1.279 0 2.559 0m-8.958 7.678c0-2.56-1.28-5.76-4.479-8.958-.64-.64-2.56-1.92-2.56-1.92 0 3.839 1.92 7.039 1.92 10.238 1.92.64 3.839 1.92 5.119.64m-7.678 9.598c-3.2-3.2-6.399-4.48-7.679-8.318 0 1.919-.64 3.839-1.28 5.119.64 2.559 2.56 3.839 3.2 4.479 1.919-.64 3.199-.64 5.759-1.28m46.711-48.63c-2.56-1.92-4.48-1.92-7.679-1.28l-3.839 5.119h9.598zm-12.798 29.434c-1.92-3.84-3.839-7.68-7.679-8.958-1.919 0-5.119-1.28-8.958 0 1.92 1.279 3.839 1.919 6.399 3.839l5.119 5.119zm58.869-67.827-1.92-1.92c-1.92 1.92-.64 7.039-3.839 7.679-3.2 0-5.759 3.199-7.039 3.839l2.56 1.28s1.279.64 2.559 0c1.28-1.28 2.56-1.92 2.56-3.2 1.279-1.92 3.199 0 4.479-1.92.64-1.92 1.279-4.478.64-5.758m-47.351 62.708c-.64-3.84-2.56-5.12-5.759-9.598-1.92-1.28-5.759-1.92-9.598-3.84.64 1.92 2.559 2.56 3.839 4.48 1.28 1.919 3.839 5.119 4.479 7.038 3.199 1.92 4.479 1.92 7.039 1.92m-30.714 22.396c-3.84 1.279-8.319 5.119-10.238 8.318-1.28 2.559-1.92 5.759-1.92 7.679 2.559 0 4.479-1.92 5.119-3.2v-.64c3.199-3.84 6.399-7.038 7.039-12.157m49.27-46.071h-1.28c-.64 0-5.119 1.919-6.398 3.199-.64 1.92-.64 3.839-.64 3.839h5.119zm51.19-30.075c-.64-1.28-1.919-5.12-2.559-7.678-1.28 3.839-2.56 9.598-7.039 9.598-.64 2.559-1.28 3.839-3.839 5.759l-5.119.64c.64-2.56 4.479-2.56 1.919-6.4 2.56-1.92 4.48-1.92 5.759-5.118 1.28-1.92 0-4.48.64-5.76l-3.839-1.92c0 3.2.64 9.6-3.839 10.879-3.84-1.28-4.479 3.84-7.039 5.759-1.28 0-1.28 3.2-3.199 1.92-3.2-1.92-7.039 0-10.238-1.92l3.199 5.119c2.56 1.92 5.119 1.28 7.679 1.92l5.119.64c5.119 0 9.598-2.56 14.717-4.48 2.559-1.28 3.839-3.2 3.839-6.398 1.28-.64 3.839-.64 3.839-2.56m-92.142 86.384-1.92-8.32c-1.919 3.84-3.839 7.68-4.479 12.159zm12.158-18.557c-3.84 3.839-7.039 7.039-7.039 10.878 1.92 0 3.839 0 5.759-1.28 0-3.2 1.28-5.76 1.28-9.598m73.586-54.39c-2.56 1.92-6.399 1.92-7.679 5.12-2.56.64-4.479.64-7.679.64-2.559-.64-5.758-.64-8.318-.64-.64 0 0 .64-1.28 1.279-3.839-1.28-7.678-1.28-11.518-5.12l3.2 7.68c2.56 0 4.479 1.28 5.759 1.28 2.559.64 4.479.64 6.399.64v-.64c7.038 0 15.357.64 20.476-5.12zm-38.393 36.474c-1.28-1.28-5.119-2.56-7.679-2.56-3.839 3.2-6.398 7.039-10.238 12.158l10.238-1.92c1.92-1.28 5.759-5.76 7.679-7.678m-21.756 28.154c0-4.48-.64-10.238-5.119-12.157l-1.28 6.398c1.92 1.28 3.84 2.56 6.399 5.759m58.869-51.83c-3.2 0-5.759 0-7.679 3.2-.64 0-1.919 1.919-2.559.64-3.2-2.56-6.399 1.919-10.238 1.279-1.92-1.92-3.84-3.2-7.039-3.84v.64c0 1.92 1.28 3.84 3.839 5.12 3.84-1.28 7.039 7.038 10.878 2.559 1.92-.64 3.839-.64 5.119-.64 4.479-1.92 5.759-5.758 7.679-8.958m14.717-24.315h-.64c-1.28 1.92-1.92 3.839-3.199 3.839 1.919 7.039-1.92 12.798-3.2 18.557v1.919c1.92-3.2 7.039-6.4 6.399-9.598.64-5.76.64-10.878.64-14.717m-59.509 65.907c-3.199 1.92-8.958 2.56-7.678 6.399 1.28 3.199 3.199 3.839 4.479 5.119.64-4.48 1.28-7.68 3.199-11.518m-65.907 83.184-3.199-3.84c.64-6.398-1.92-10.877-1.92-16.636l-3.199 10.238c.64 2.56 1.279 5.119 3.199 8.319zm95.982-97.261h-1.92c-7.039-2.56-12.797 1.92-18.557 5.759 3.2 1.28 7.679 1.919 11.518 1.919l1.92-3.84c1.92-.64 5.119-2.558 7.039-3.838m-33.274 51.83c-.64-3.84-1.92-9.598-5.759-12.158 0 2.56-1.28 3.84-2.559 5.759-.64 0 0-1.92-.64-1.92 0-1.28-1.28-3.84-1.28-6.398-1.28-.64-3.839-1.92-6.399-.64v1.92c-.64 1.279-.64 3.839-.64 5.119l-.64.639c-1.919-.64-1.919-1.92-1.919-3.2-.64-1.28-1.92-2.558-1.92-4.478-2.559 0-3.839.64-5.759 1.92v5.758c0 1.28 0 1.28-.64 1.28l-3.199-3.2c-2.559 1.92-3.199 7.039-3.199 10.239 10.238 5.759 23.035 3.839 30.714.64 1.28-.64 2.559-.64 3.839-1.28m18.557-35.193c-2.56-.64-7.039-1.92-8.319 1.279-3.839 5.759-1.92 10.878 0 15.357 1.28-3.84 1.92-7.678 2.559-10.877.64-2.56 4.48-3.84 5.76-5.76m-82.545 89.583-4.479-1.28.64 3.2c1.28 1.92 1.92 3.839 3.839 5.759zm108.139-99.18c-2.559 0-7.038 0-9.598 1.919-3.839 1.92-5.119 3.2-7.038 5.119 2.559 1.92 5.759 1.92 7.038 2.56 2.56-2.56 5.119-7.04 9.598-9.598m-17.916 17.916c-3.199-.64-5.759 2.56-8.958 3.839-1.28 3.84-1.28 7.679-2.56 9.599 2.56-1.92 8.319-1.92 7.039-7.68 0-1.92 2.559-3.198 4.479-5.758m53.11-45.431c0-3.84-2.56-7.04-3.2-10.878 0 3.839-.64 7.039-3.199 9.598 0 1.28 1.92 1.28.64 3.2 0 0-3.839 1.919-3.839 4.479s2.559 4.479 3.839 6.398c0 .64 2.559-1.28 2.559-5.12 0-.64 0-2.558-.64-3.838-.639-1.92 3.84-1.92 3.84-3.84m14.717-7.038c0-3.2-3.839-7.038-5.119-9.598 1.28 3.199 1.28 9.598 0 9.598-1.28.64-3.839 0-3.839 1.28 0 1.92.64 4.479.64 5.759 0 2.559-1.92 3.839-1.92 5.119 0 3.839 4.479 4.479 5.759 7.039.64-2.56.64-5.12.64-8.32 0-1.28 1.919-5.118 0-8.317 0-1.92 3.839-.64 3.839-2.56m-52.47 60.149c-3.839 0-8.318-1.92-10.238 1.919 1.28.64 2.559 2.56 3.839 3.84zm17.917-14.718-3.2-1.28c-7.038 0-10.238 1.92-13.437 4.48 2.559 0 5.759 3.199 5.759 3.199 3.199-3.2 7.678-5.76 10.878-6.4m-26.235 40.314c-7.679 4.479-15.997 7.678-25.595 8.318 0-1.92 0-3.84-.64-4.48 7.678-3.838 14.717-7.038 21.116-12.797v-5.758c-6.399 6.398-13.438 12.797-21.756 14.717-.64-1.28-3.2-2.56-3.84-5.12-4.479 3.2-9.598 6.399-14.717 7.039-1.919 0-3.199 7.039-3.199 7.039 3.199 1.28 5.119 3.199 6.399 6.399h2.559c1.92 0 1.92 1.279 1.92 3.199 0 3.839-8.318 3.839-12.158 3.839-4.479 0-7.678 0-10.238-1.92-1.28 0-.64-1.92-.64-3.2 0-.64 1.92-1.918 1.92-1.918 1.28 0 2.559 1.279 3.839 1.279-.64-3.84.64-5.758 4.479-7.678l-.64-6.4c-7.678 0-12.797-3.198-18.556-5.758-1.92 1.28-3.199 3.2-4.479 5.119-7.679-2.56-21.116-12.797-21.116-12.797v4.479c5.759 5.119 13.437 7.678 19.196 10.878v4.479c-2.559 1.28-5.119 0-7.678 0-5.759-.64-11.518-3.2-15.357-6.4 0 1.92-.64 4.48-.64 4.48 7.039 3.84 15.997 7.039 24.315 5.759v2.56c-.64 1.279-.64 3.199-1.92 3.199-3.839 3.839-7.678 9.598-7.678 13.438l2.56 1.279c-1.28 3.84-2.56 13.438 0 16.637-3.84 1.92-7.679 5.119-8.959 7.679-1.279 3.199-2.559 5.119-3.199 8.958 1.92 3.839 3.199 5.119 5.119 8.958 1.28 0 3.199.64 3.839 1.92 3.2.64 5.119 3.839 8.958 1.919 2.56 0 5.119-1.28 7.039-1.92 0-1.28 0-1.92 1.28-3.2 3.839 0 3.839-3.838 5.759-7.037 1.919-.64 3.839-.64 5.119-.64 3.839-1.28 7.038-1.28 8.318-3.2 5.119 3.2 10.238 3.84 15.997 3.2.64 1.919 1.92 4.479 2.559 7.678.64-1.92.64 0 1.92 0 2.56 1.92 5.759 5.119 10.238 3.84 2.56-1.92 7.039-.64 9.598-3.84 1.92-2.56 3.2-6.398 5.119-9.598-1.919-3.84 0-8.958-3.839-10.878l-3.839-3.84c-1.28 0-1.28-1.28-3.199-1.28 1.919-4.478.639-10.877-1.28-15.356 1.28.64 3.199.64 3.199 2.56.64-.64 0-1.92 0-2.56v-1.92c0-3.2-1.919-6.398-4.479-8.958-1.28-3.84-4.479-8.958-8.958-9.598v-1.28c9.598 0 17.276-2.56 26.235-7.038zm49.91-62.068c0-1.28-1.92-2.56-2.56-2.56 0 0-3.199 3.2-3.839 6.399-.64 2.559 1.92 7.039 1.92 7.039.64 0 1.28-1.28 1.919-1.28.64-.64 0-2.56.64-4.48 1.92-1.28 3.2-3.84 1.92-5.118m51.83-44.152c0-.64-1.28-1.92-1.28-1.92-3.199 1.92-5.119 2.56-8.958 2.56 0 2.56-1.92 5.759-3.199 5.759-3.84 0-3.2-2.56-6.399-2.56l5.759 5.759c.64 1.28.64 1.28 1.919 1.28 1.92-1.28 2.56-1.92 4.479-1.92 0-1.28 0-1.92-.639-3.84 1.919-1.28 3.199.64 4.479-1.28 1.919-.638 3.839-1.278 3.839-3.838m-60.148 58.229c0-1.92-1.28-2.56-2.56-3.84 0 0-2.559 3.2-2.559 4.48 0 2.559 0 3.839.639 5.759 1.92-1.92 4.48-4.48 4.48-6.4m24.955-19.195c0-3.84-.64-8.32-.64-12.798-1.92 0-1.92 1.28-1.92 3.839-.64 3.84-1.919 7.039-3.199 10.878-1.28 5.119-4.479 9.598-7.039 15.357-.64 2.56-3.839 3.84-6.399 5.759 3.2 0 6.399 0 8.959-2.56 0-1.28.64-1.92 2.559-3.84 4.479 0 3.2-5.757 7.039-8.317-1.92-1.92-2.56-3.2-3.839-4.48 1.919-1.28 3.839-1.92 4.479-3.838m-33.274 36.473c-1.919-1.92-7.038-2.56-10.878.64l5.119 2.559c1.92-1.92 4.479-2.56 5.759-3.2m-14.077 14.718c-.64-2.56-3.199 0-3.839 0h-5.759c-.64 1.28-1.28 1.919-1.28 3.199 2.559.64 4.479 1.92 6.399.64 1.28-1.92 2.559-3.84 4.479-3.84m56.309-50.55c0-2.56-1.28-4.48-.64-7.038-1.28 3.839-3.839 7.678-5.119 11.518 0 .64-.64.64.64 1.279.64 0 3.199 0 3.199-.64.64-1.28 1.92-3.2 1.92-5.118m32.634-26.235c0-2.56-.64-3.2-1.28-6.4-4.479.64-4.479 5.76-5.119 6.4-3.199 3.839-7.679.639-10.878.639-1.28 3.84.64 3.84.64 6.399 1.92 0 3.839 1.28 5.759 0 3.199 1.28 5.119-1.92 8.318-1.92.64-1.28 1.92-4.48 2.56-5.118m12.797-18.557c-1.279-1.92-1.279-1.92-1.919-3.84 0 3.2-3.84 5.12-6.399 10.879l2.559 4.479c1.92-1.28 4.48-3.2 4.48-6.4 0 0-.64-1.918 0-3.198 0-.64 1.279-.64 1.279-1.92m-106.219 109.419c-3.84 0-5.759 1.92-7.679 5.759 0 1.92-.64 4.479 0 7.678 1.28-2.56 1.28-3.84 2.56-5.12 2.559 1.28 2.559-1.918 3.199-2.558.64-1.92 1.92-3.84 1.92-5.76m55.029-47.35c-5.759 3.2-8.958 8.958-14.077 14.717 5.119 0 6.399-5.12 10.238-5.76 1.28-1.278 2.559-1.918 3.839-3.838zm40.312-36.473c-4.479 0-1.919 8.959-11.517 8.959-1.92 0-3.2-3.2-5.759-3.84 0 .64.64 4.479.64 4.479 0 1.28.639 3.84 3.199 5.119 5.119 0 3.839-1.92 7.678-3.2 1.92-.64 3.2-1.92 5.759-1.92zm15.357-8.318c0-3.84 0-5.12-1.919-8.32l-3.839 5.76c1.279 1.92 1.279 4.479 3.199 7.679.64 0 2.559-4.48 2.559-5.12M1377.92 838.334c0-.64-1.279-6.4-1.279-6.4l-5.119-1.278 3.199 14.077c1.28-2.56 3.199-5.12 3.199-6.4m111.979-100.46c-1.92.64-6.399 1.28-6.399 3.2 0 2.559-1.28 3.199-4.479 3.199-2.56 0-4.479-.64-8.319-1.92 0 0-1.919 2.56-2.559 5.12 1.28.64 6.399 1.919 8.958 1.919 4.479 0 8.958 0 8.958-1.92 0-2.56 3.84-3.2 3.84-9.598m5.759 14.078c-4.479 0-8.959 1.28-9.599 3.199-1.279 1.28 0 3.839-3.199 3.839-1.28 0-3.199-1.92-3.199-1.92-1.28-.64-5.119 1.92-5.119 0 0-3.2-2.56-4.478-5.759-4.478-1.28 0-2.56 0-3.839.64v6.398c8.318 0 7.678 2.56 11.517 2.56 2.56 0 4.479-1.28 6.399-1.28 3.199 0 1.28 1.28 4.479 1.28s4.479-2.56 6.399-3.2c0-1.92 1.92-4.48 1.92-7.038m-1.92 14.077c-5.119 3.199-12.798 5.119-17.277 5.119-2.559 0-10.238-3.2-12.797-5.76l-1.28 5.76c3.839.64 3.839 3.839 6.399 3.839 1.919 0 4.479.64 6.399.64s3.199 1.28 3.839 1.28c3.199 0 1.919-3.2 3.839-3.2s3.199 1.28 4.479 1.28c3.199 0 5.759-5.12 6.399-8.958m-14.717 14.077c-3.839 0-4.479.64-7.039.64-3.199 0-7.038-1.28-8.958-4.48-1.28 2.56-.64 3.84 0 5.76 1.92 1.92 5.119 4.479 7.678 4.479 4.48 0 8.319-3.2 8.319-6.4m.64 9.6c-4.479 1.279-7.039 3.199-10.878 3.199-1.28 0-7.039-1.92-7.679-3.2-1.919 2.56 1.28 7.679 3.84 8.959s3.839.64 5.119 0c0-3.84 4.479-1.92 7.038-3.2 1.28-1.92 1.92-3.2 2.56-5.758m15.357 73.585h-7.039c-1.28 1.92-3.199 0-4.479 0s-1.92 0-4.479 1.92c3.839 0 5.759 1.92 8.958 3.199 2.559-1.92 5.119-2.56 7.039-5.12m-160.609-193.241c-3.2 5.758-3.839 14.717-3.839 16.636 0 3.2 0 7.679 1.919 10.878l-7.039-1.28c-1.919-2.56-2.559-3.84-2.559-5.118l3.199 1.279c.64 0 1.28-1.28 1.92-2.56-.64-3.2-4.479-3.2-5.759-4.478-1.92-6.4 3.839-10.238 4.479-15.357zm10.878 17.276c-.64 0 .639-1.28-5.759 5.119-1.28 0-3.2-3.84-3.2-5.12 0-5.118 1.28-12.156 3.2-17.275h5.119c0 5.758.64 12.157.64 17.276m14.077-.64c0 2.56-1.92 3.2-4.479 3.2-1.28 0-4.479-1.92-4.479-3.2 0-2.56-1.28-16.636-1.28-16.636h4.479c1.92 5.758 5.759 13.437 5.759 16.636m84.464 7.679-6.399-.64c2.559-1.28 2.559-4.48 2.559-5.12 0-1.92-1.279-3.838-2.559-5.118-1.28 1.28-1.28 3.199-2.56 5.119-1.279 0-1.919-3.2-1.919-4.48 0-5.758 2.559-10.237 4.479-14.076h5.759c-.64 5.119-1.92 9.598-1.92 15.357 0 3.199 1.92 7.038 2.56 8.958m138.853 58.869c0 28.154-11.518 56.309-31.994 76.785-8.958 8.958-19.196 13.437-26.875 22.395-3.839 3.84-7.038 7.679-9.598 12.798-3.199 3.199-5.119 5.119-8.958 7.039l1.919-5.76h-.639c-3.2 0-6.399 1.92-8.959 3.84l2.56 2.559c-.64 1.28-2.56 1.28-3.839 1.28-10.239 1.92-19.837-3.84-30.075-5.76v-1.278c6.399-1.92 7.679-9.6 11.518-13.438h3.839c1.28 0 3.2-1.28 4.479-1.28 0 1.28-1.279 3.84-1.279 3.84q1.919 1.919 3.839 0c3.199-1.92 7.679 1.279 10.878-3.84-3.839 0-7.679 0-10.878-1.92 0-.64 1.919-1.92 1.28-3.2-3.2 1.28-7.039 0-8.319 2.56l-.64-.64c3.84-4.478 9.598-8.317 15.358-10.237 8.318-1.28 15.356 2.56 23.675.64 29.434-14.077 49.91-47.351 49.91-80.625 0-47.35-26.875-66.547-44.151-66.547-3.2 0-8.319 1.92-10.238 3.84 1.919 7.038 3.199 14.717 3.199 26.234 0 27.515-10.878 56.95-25.595 72.307-7.039 7.038-14.717 12.797-23.035 12.797-3.84 0-7.679 0-10.238-3.2-3.2-2.56-5.12-7.678-4.48-10.877-5.119-3.84-13.437-5.76-19.836-5.76-7.038 0-15.997 2.56-24.315 8.959v9.598c-1.92.64-8.318 4.479-5.119 7.679 1.92-.64 3.199-1.92 3.839-2.56-.64 4.479-.64 9.598-3.839 13.438-1.28 0-3.199 0-5.119 1.279-1.92 1.92-3.839 4.48-3.839 7.679 1.919-3.2 5.119-1.92 7.038-3.84-3.199 7.679-1.919 10.879-7.678 22.396-1.28 5.759-7.039 8.959-10.878 12.798-1.92 1.28-2.56 3.199-5.119 3.199-2.56.64-2.56 3.84-2.56 5.759.64 0 2.56-1.28 3.84-1.92-3.84 8.959-6.399 18.557-14.718 23.676l-1.919-1.28h-10.238c1.279 1.28 3.839 1.92 5.759 3.2-1.92 1.919-3.2 2.559-7.039 2.559-1.92-.64-4.479-2.56-7.039-2.56h-.64c0 1.92-.639 4.48 3.2 5.76-3.839.639-7.039.639-11.518 0-.64-3.2-2.559-5.12-2.559-7.68-1.92-1.28-2.56-3.198-4.479-5.118 0 3.839 1.919 7.679 2.559 11.518-2.559-.64-5.759-2.56-7.039-2.56-5.119 2.56-11.517 5.119-14.077 5.119 3.839-2.56 1.92-7.038 2.56-10.238l-2.56 1.28c-.64 2.56-3.839 4.479-4.479 7.679-3.839 0-6.399-1.28-9.598-3.2v-.64c1.919 0 4.479-1.92 5.759-3.84-4.48 0-7.679 1.92-12.158 1.92 0 0 0 .64-.64.64-1.92-.64-3.839-2.56-5.119-3.84-4.479-3.838-7.678-7.037-9.598-12.796 1.28 0 3.199 0 3.839-.64-2.559-.64-3.839-3.84-6.399-4.48v-9.597c-1.919-1.92-4.479-3.84-5.759-7.68-3.199-10.237-3.839-21.755-3.839-34.552-.64-2.56-1.919-3.2-3.199-3.84v-10.238s3.839 3.84 5.759 5.119v-8.318c-2.56 0-4.479-3.2-4.479-5.12 0-2.558.64-5.118.64-7.677 0-1.28 0-1.28.639-2.56 0 1.28 1.28 2.56 3.2 3.199 0 0 1.279 1.28 3.839 1.28-1.92-1.92-2.56-4.48-3.839-7.038l-1.92-1.92s-.64-1.28-.64-1.92c2.56-13.437 6.399-24.955 11.518-37.752-5.119-8.32-10.878-24.316-14.717-39.673-3.2 3.2-7.679 3.839-11.518 3.839-3.839-.64-7.678-1.92-10.238-5.758-3.839 1.919-8.958 1.279-11.518-1.28-5.759-5.12-5.759-7.68-5.759-11.518-1.279-1.28-3.839-4.48-3.839-8.958 0-5.76.64-9.598 3.839-14.717h97.262c-.64 1.919-1.92 4.479-3.2 5.758-1.919 3.84-.64 8.959-.64 12.798 1.92 3.839 3.84 7.679 6.399 10.878.64 1.92 0 1.92.64 2.559l4.479 1.28c2.56 0 4.479 1.92 7.679 1.92 1.919-3.2 1.919 1.919 5.119 3.199 7.038 1.28 14.077 0 17.916-5.12 0-1.28.64-1.28.64-1.918h-3.199c-3.839 1.919-8.319 3.839-12.798 1.919 0-1.92-.64-1.92-.64-3.84v-3.198c2.56 0 4.479-2.56 7.039-3.84 1.28 1.92 5.119 3.84 7.678 3.84 3.2 0 7.679-1.92 7.679-7.04v-7.038c2.56-2.56 5.759-3.2 8.958-4.48-1.279-2.558-3.199-2.558-5.119-2.558h-5.119c-.639.639-1.919.639-1.919 2.559-1.92-2.56-3.2-5.12-4.48-7.678h74.866c-1.28 2.559-2.559 4.479-3.199 5.758-1.28 3.84-1.28 8.959-1.28 12.798l7.039 9.598c3.839 0 7.038 1.28 14.077 1.92 1.28 1.919 0 3.199 5.759 3.199 4.479 0 7.678-1.28 8.958-1.92.64-1.28.64-1.28 0-2.56-1.28-1.28-3.839 1.28-5.759.64-1.28-1.28.64-1.92.64-3.198 1.28-1.28-5.759 1.279-5.759 1.279s-1.28-3.84-1.919-5.12l3.839-3.838c1.279-1.92-1.92-3.84-1.92-5.76-1.28.64-3.839 2.56-3.839 1.92-1.28-5.118 0-9.597-.64-14.716h7.039l.639 10.878c.64 6.398 8.319 17.916 12.798 17.916 2.56 0 4.479-1.28 6.399-2.56 1.28-2.56 4.479-3.84 4.479-5.118 0-1.28-1.92-1.92-5.119-1.92-1.28 0-1.28 1.92-3.199 3.199l-3.84-3.84s4.479-3.838 4.479-6.398c0-3.2-.639-4.48-2.559-6.4l-3.839 7.68c-1.92 0-5.119-3.84-5.119-5.76 0-2.558-1.28-3.838-1.28-7.677h39.672c4.479 0 8.319 1.279 12.798 3.839h7.678c15.997 0 28.795 4.479 40.313 15.997 15.357 15.357 24.315 39.672 24.315 63.348m-68.467 96.62c-1.28 2.56-3.839 3.84-5.759 3.84-1.919 2.56-4.479 5.759-7.038 5.759 1.919 0 4.479 1.92 7.678 1.92 1.28-3.2 3.839-5.12 4.479-7.68z" clip-path="url(#b)" style="fill:#000;fill-opacity:1;fill-rule:nonzero;stroke:none" transform="matrix(.8527 0 0 -.8527 -1035.154 786.202)"/></svg>