<?xml version="1.0" encoding="UTF-8" standalone="no"?>
<svg
   width="640"
   height="360"
   viewBox="0 0 640 360"
   version="1.1"
   id="svg3"
   sodipodi:docname="provider-worldline-white-640x360.svg"
   inkscape:version="1.4.2 (ebf0e940, 2025-05-08)"
   xmlns:inkscape="http://www.inkscape.org/namespaces/inkscape"
   xmlns:sodipodi="http://sodipodi.sourceforge.net/DTD/sodipodi-0.dtd"
   xmlns="http://www.w3.org/2000/svg"
   xmlns:svg="http://www.w3.org/2000/svg"
   xmlns:rdf="http://www.w3.org/1999/02/22-rdf-syntax-ns#"
   xmlns:cc="http://creativecommons.org/ns#"
   xmlns:dc="http://purl.org/dc/elements/1.1/">
  <title
     id="title3">Worldline logo white</title>
  <defs
     id="defs3">
    <clipPath
       id="clip-path"
       transform="translate(-0.0007 -0.0004)">
      <rect
         class="cls-1"
         width="955.50153"
         height="97.364197"
         id="rect1"
         x="0"
         y="0" />
    </clipPath>
    <clipPath
       id="clipPath2"
       transform="translate(-0.0007 -0.0004)">
      <rect
         class="cls-1"
         width="955.50153"
         height="97.364197"
         id="rect2"
         x="0"
         y="0" />
    </clipPath>
  </defs>
  <sodipodi:namedview
     id="namedview3"
     pagecolor="#ffffff"
     bordercolor="#111111"
     borderopacity="1"
     inkscape:showpageshadow="0"
     inkscape:pageopacity="0"
     inkscape:pagecheckerboard="1"
     inkscape:deskcolor="#d1d1d1"
     inkscape:zoom="1"
     inkscape:cx="401"
     inkscape:cy="148"
     inkscape:window-width="896"
     inkscape:window-height="245"
     inkscape:window-x="0"
     inkscape:window-y="25"
     inkscape:window-maximized="0"
     inkscape:current-layer="svg3" />
  <g
     id="g3"
     transform="matrix(0.53584425,0,0,0.53584425,-62.995087,117.47693)"
     style="fill:#ffffff">
    <g
       class="cls-2"
       clip-path="url(#clip-path)"
       id="g7"
       transform="translate(237,68)"
       style="fill:#ffffff">
      <path
         class="cls-3"
         d="m 796.0582,22.797 a 96.0858,96.0858 0 0 0 -9.6494,9.7618 c 14.4432,14.5048 24.8655,36.6449 28.371,62.2833 H 828.675 C 825.8771,72.2484 818.122,51.3893 806.1539,34.7543 A 98.7808,98.7808 0 0 0 796.0582,22.797"
         transform="translate(-7e-4,-4e-4)"
         id="path1-8"
         style="fill:#ffffff" />
      <path
         class="cls-3"
         d="m 779.1281,42.235 a 95.2838,95.2838 0 0 0 -7.08,12.7774 c 8.27,10.31 14.356,24.1324 17.1285,39.8312 h 13.9424 c -2.631,-16.8673 -8.7094,-32.41 -17.7782,-44.9842 a 82.1861,82.1861 0 0 0 -6.2127,-7.6244"
         transform="translate(-7e-4,-4e-4)"
         id="path2"
         style="fill:#ffffff" />
      <path
         class="cls-3"
         d="m 763.3974,94.8421 h 13.9859 a 80.11,80.11 0 0 0 -10.3679,-26.1646 95.8958,95.8958 0 0 0 -3.618,26.1646"
         transform="translate(-7e-4,-4e-4)"
         id="path3-3"
         style="fill:#ffffff" />
      <path
         class="cls-3"
         d="m 915.19,17.1079 q -2.7162,-1.96 -5.5777,-3.7342 -1.301,1.3554 -2.5729,2.758 a 134.9611,134.9611 0 0 0 -30.4286,57.9069 192.2989,192.2989 0 0 0 -8.5824,-30.98 146.6484,146.6484 0 0 1 24.5531,-38.0351 Q 889.2284,3.777 885.7592,2.7772 a 153.24,153.24 0 0 0 -21.0842,31.8911 160.52,160.52 0 0 0 -16.9,-30.131 c -1.0741,-1.4952 -2.1665,-2.9467 -3.2769,-4.3729 a 95.1082,95.1082 0 0 0 -14.8459,3.5273 c 11.4928,13.3037 20.8736,30.1637 27.2968,49.3934 a 169.738,169.738 0 0 0 -6.0132,21.8825 c -4.5252,-20.6341 -12.6613,-39.5735 -23.9727,-55.32 a 119.1656,119.1656 0 0 0 -9.1268,-11.2388 95.4131,95.4131 0 0 0 -12.2657,7.0365 c 18.17,18.3951 31.0455,46.7334 34.6853,79.3974 h 14.3923 a 172.8236,172.8236 0 0 1 5.6618,-30.4607 190.9664,190.9664 0 0 1 5.349,30.4612 h 13.9024 c 4.108,-35.7232 19.3168,-59.7721 32.3919,-74.2878 1.0742,-1.194 2.1519,-2.3334 3.237,-3.4475"
         transform="translate(-7e-4,-4e-4)"
         id="path4"
         style="fill:#ffffff" />
      <path
         class="cls-3"
         d="m 933.2384,34.0506 q -2.1231,-2.58 -4.4165,-5.0079 c -14.7661,15.1254 -27.1081,37.0623 -30.962,65.8 h 6.6772 c 3.941,-27.8956 16.0617,-46.8531 26.5311,-58.4657 0.7185,-0.7984 1.4443,-1.5713 2.17,-2.3262"
         transform="translate(-7e-4,-4e-4)"
         id="path5"
         style="fill:#ffffff" />
      <path
         class="cls-3"
         d="m 922.9365,94.8421 h 6.71 A 86.7116,86.7116 0 0 1 946.8512,56.14 q -1.4806,-3.3423 -3.1972,-6.5466 c -9.62,11.2352 -17.4841,26.3243 -20.7175,45.2491"
         transform="translate(-7e-4,-4e-4)"
         id="path6"
         style="fill:#ffffff" />
      <path
         class="cls-3"
         d="M 954.157,79.3557 A 69.73,69.73 0 0 0 948.2454,94.84 h 7.2578 A 89.7791,89.7791 0 0 0 954.157,79.3554"
         transform="translate(-7e-4,-4e-4)"
         id="path7"
         style="fill:#ffffff" />
    </g>
    <polygon
       class="cls-3"
       points="385.364,76.679 349.3,76.679 349.3,2.776 328.615,2.776 328.615,94.842 385.364,94.842 "
       id="polygon7"
       style="fill:#ffffff"
       transform="translate(237,68)" />
    <polygon
       class="cls-3"
       points="541.7,88.125 499.746,88.125 499.746,2.776 492.263,2.776 492.263,94.842 541.7,94.842 "
       id="polygon8"
       style="fill:#ffffff"
       transform="translate(237,68)" />
    <rect
       class="cls-3"
       x="787.32318"
       y="70.775803"
       width="7.4791999"
       height="92.066002"
       id="rect8"
       style="fill:#ffffff" />
    <polygon
       class="cls-3"
       points="678.75,9.493 722.486,9.493 722.486,2.776 671.275,2.776 671.275,94.842 724.007,94.842 724.007,88.125 678.75,88.125 678.75,50.961 719.445,50.961 719.445,44.385 678.75,44.385 "
       id="polygon9"
       style="fill:#ffffff"
       transform="translate(237,68)" />
    <polygon
       class="cls-3"
       points="640.585,94.842 653.744,94.842 653.744,2.776 646.286,2.776 646.286,88.125 644.766,88.125 591.435,2.776 577.986,2.776 577.986,94.842 585.436,94.842 585.436,9.49 587.251,9.49 "
       id="polygon10"
       style="fill:#ffffff"
       transform="translate(237,68)" />
    <polygon
       class="cls-3"
       points="22.706,94.842 54.419,94.842 65.825,38.768 78.109,94.842 110.465,94.842 130.638,2.776 109.372,2.776 93.42,76.679 91.877,76.679 76.708,5.302 55.185,5.302 41.631,76.679 39.632,76.679 21.171,2.776 0,2.776 "
       id="polygon11"
       style="fill:#ffffff"
       transform="translate(237,68)" />
    <g
       class="cls-2"
       clip-path="url(#clip-path)"
       id="g13"
       transform="translate(237,68)"
       style="fill:#ffffff">
      <path
         class="cls-3"
         d="m 454.5673,61.0415 a 23.7716,23.7716 0 0 1 -14.3125,14.2509 32.9524,32.9524 0 0 1 -11.7323,1.9559 H 414.6273 V 20.1144 h 13.8952 a 36.265,36.265 0 0 1 11.7323,1.7673 22.7716,22.7716 0 0 1 14.3125,13.87 c 2.5765,7.1454 2.6382,18.0394 0,25.29 m 11.01,-45.4015 C 455.7649,6.0451 442.8894,1.977 428.12,2.017 H 393.9424 V 95.3458 H 428.12 a 56.9532,56.9532 0 0 0 21.8172,-3.8466 44.1185,44.1185 0 0 0 25.036,-25.0324 48.3638,48.3638 0 0 0 3.0918,-19.2987 C 478.0469,35.3705 474.0369,24.0047 465.5779,15.64"
         transform="translate(-7e-4,-4e-4)"
         id="path11"
         style="fill:#ffffff" />
      <path
         class="cls-3"
         d="m 180.2705,78.5286 c -17.5278,0 -27.6017,-13.79 -27.6017,-29.7971 0,-16.6024 9.45,-29.8008 27.6017,-29.8008 15.39,0 27.6053,10.6146 27.6053,29.8008 0,16.1016 -10.2735,29.7971 -27.6053,29.7971 M 201.5288,4.0992 c -11.7687,-5.4688 -30.9839,-5.4615 -42.6908,0 a 45.79,45.79 0 0 0 -24.72,26.1066 51.0282,51.0282 0 0 0 -3.088,19.7377 c 0.1633,17.6221 10.7561,35.3858 27.4311,43.0065 11.8267,5.8862 31.6806,5.8825 43.5073,0 16.6749,-7.6135 27.2714,-25.388 27.431,-43.0065 A 48.6948,48.6948 0 0 0 216.9123,15.0078 45.3513,45.3513 0 0 0 201.5293,4.0992"
         transform="translate(-7e-4,-4e-4)"
         id="path12"
         style="fill:#ffffff" />
      <path
         class="cls-3"
         d="m 290.2166,42.0626 c -2.7181,4.7575 -7.3377,7.022 -12.988,6.9966 H 260.6771 V 20.1148 h 16.5515 c 3.0229,0 5.6321,0.0436 7.8168,1.2629 a 13.2664,13.2664 0 0 1 5.1712,5.1712 c 2.4822,4.2422 2.5656,11.1916 0,15.5137 m 18.83,9.8344 c 3.4294,-4.7975 4.8628,-11.91 4.6015,-18.9793 q 0,-10.2173 -4.54,-17.0887 C 301.9446,5.2543 289.4828,2.1226 276.1901,2.0173 h -36.1979 v 92.8245 h 20.6849 V 66.3365 c 0.41,-0.0036 15.2234,0.0109 15.6661,-0.0036 l 19.5236,28.5089 H 319.825 L 296.3132,61.8766 a 27.5764,27.5764 0 0 0 12.7339,-9.98"
         transform="translate(-7e-4,-4e-4)"
         id="path13"
         style="fill:#ffffff" />
    </g>
  </g>
  <metadata
     id="metadata3">
    <rdf:RDF>
      <cc:Work
         rdf:about="">
        <dc:title>Worldline logo white</dc:title>
      </cc:Work>
    </rdf:RDF>
  </metadata>
</svg>
