<?xml version="1.0" encoding="UTF-8" standalone="no"?>
<svg
   width="640"
   height="360"
   viewBox="0 0 640 360"
   version="1.1"
   id="svg1190"
   sodipodi:docname="provider-ems-white-640x360.svg"
   inkscape:version="1.1.2 (b8e25be8, 2022-02-05)"
   xmlns:inkscape="http://www.inkscape.org/namespaces/inkscape"
   xmlns:sodipodi="http://sodipodi.sourceforge.net/DTD/sodipodi-0.dtd"
   xmlns="http://www.w3.org/2000/svg"
   xmlns:svg="http://www.w3.org/2000/svg">
  <defs
     id="defs1194" />
  <sodipodi:namedview
     id="namedview1192"
     pagecolor="#ffffff"
     bordercolor="#666666"
     borderopacity="1.0"
     inkscape:pageshadow="2"
     inkscape:pageopacity="0.0"
     inkscape:pagecheckerboard="0"
     showgrid="false"
     inkscape:zoom="1.9203125"
     inkscape:cx="320"
     inkscape:cy="179.91863"
     inkscape:window-width="2002"
     inkscape:window-height="1001"
     inkscape:window-x="2537"
     inkscape:window-y="486"
     inkscape:window-maximized="0"
     inkscape:current-layer="g1188" />
  <g
     fill="none"
     fill-rule="evenodd"
     transform="translate(80 92)"
     id="g1188">
    <path
       fill="#0071B9"
       fill-rule="nonzero"
       d="M444,74.5418064 L423.692308,66.2341141 C408.923077,60.6956525 398.769231,57.9264217 398.769231,49.6187295 C398.769231,42.2341141 405.230769,38.5418064 416.307692,38.5418064 C428.307692,38.5418064 438.461539,42.2341141 449.538461,50.5418064 L471.692308,22.8494986 C456,8.08026791 434.769231,0.695652522 416.307692,0.695652522 C379.384615,0.695652522 354.461539,23.7725756 354.461539,52.3879602 C354.461539,76.3879602 370.153846,92.0802679 388.615385,98.5418064 L409.846154,106.849498 C423.692308,112.387961 432.923077,115.157191 432.923077,123.464883 C432.923077,130.849498 427.384615,135.464883 413.538461,135.464883 C401.538461,135.464883 385.846154,129.003344 374.769231,118.849498 L349.846154,149.311037 C368.307692,165.926422 392.307692,173.311037 413.538461,173.311037 C455.076923,173.311037 479.076923,148.387961 479.076923,119.772576 C476.307692,97.6187295 464.307692,82.8494986 444,74.5418064 L444,74.5418064 Z M246.461539,96.6956525 L245.538461,96.6956525 L210.461539,3.46488329 L168.923077,3.46488329 L168.923077,170.541807 L204.923077,170.541807 L204.923077,100.38796 C204.923077,92.0802679 204,74.5418064 204,74.5418064 L204.923077,74.5418064 L237.230769,156.695653 L253.846154,156.695653 L286.153846,74.5418064 L286.153846,74.5418064 C286.153846,74.5418064 285.230769,92.0802679 285.230769,100.38796 L285.230769,170.541807 L321.230769,170.541807 L321.230769,3.46488329 L280.615385,3.46488329 L246.461539,96.6956525 Z M59.0769231,121.618729 L59.0769231,109.618729 L22.1538461,109.618729 L22.1538461,120.695653 C22.1538461,147.464883 44.3076923,169.618729 71.0769231,169.618729 L132,169.618729 L132,133.618729 L72,133.618729 C65.5384615,134.541807 59.0769231,129.003344 59.0769231,121.618729 L59.0769231,121.618729 Z M22.1538461,3.46488329 L132,3.46488329 L132,40.3879602 L59.0769231,40.3879602 L59.0769231,59.7725756 L22.1538461,59.7725756 L22.1538461,3.46488329 Z"
       id="path1182"
       style="fill:#ffffff" />
    <polygon
       fill="#FFCB00"
       fill-rule="nonzero"
       points="113.538 88.388 5.538 88.388 0 103.157 113.538 103.157"
       id="polygon1184"
       style="fill:#ffffff" />
    <polygon
       fill="#FFCB00"
       fill-rule="nonzero"
       points="113.538 67.157 12.923 67.157 8.308 81.003 113.538 81.003"
       id="polygon1186"
       style="fill:#ffffff" />
  </g>
</svg>
