<svg height="360" viewBox="0 0 640 360" width="640" xmlns="http://www.w3.org/2000/svg"><g fill="#fff" fill-rule="nonzero" transform="translate(80 92)"><path d="m444 74.5418064-20.307692-8.3076923c-14.769231-5.5384616-24.923077-8.3076924-24.923077-16.6153846 0-7.3846154 6.461538-11.0769231 17.538461-11.0769231 12 0 22.153847 3.6923077 33.230769 12l22.153847-27.6923078c-15.692308-14.76923069-36.923077-22.15384608-55.384616-22.15384608-36.923077 0-61.846153 23.07692308-61.846153 51.69230768 0 24 15.692307 39.6923077 34.153846 46.1538462l21.230769 8.3076916c13.846154 5.538463 23.076923 8.307693 23.076923 16.615385 0 7.384615-5.538462 12-19.384616 12-12 0-27.692307-6.461539-38.76923-16.615385l-24.923077 30.461539c18.461538 16.615385 42.461538 24 63.692307 24 41.538462 0 65.538462-24.923076 65.538462-53.538461-2.769231-22.1538465-14.769231-36.9230774-35.076923-45.2307696zm-197.538461 22.1538461h-.923078l-35.076922-93.23076921h-41.538462v167.07692371h36v-70.153847c0-8.3076921-.923077-25.8461536-.923077-25.8461536h.923077l32.307692 82.1538466h16.615385l32.307692-82.1538466s-.923077 17.5384615-.923077 25.8461536v70.153847h36v-167.07692371h-40.615384zm-187.3846159 24.9230765v-12h-36.923077v11.076924c0 26.76923 22.1538462 48.923076 48.923077 48.923076h60.9230769v-36h-60c-6.4615385.923078-12.9230769-4.615385-12.9230769-12zm-36.923077-118.15384571h109.8461539v36.92307691h-72.9230769v19.3846154h-36.923077z"/><path d="m113.538 88.388h-108l-5.538 14.769h113.538z"/><path d="m113.538 67.157h-100.615l-4.615 13.846h105.23z"/></g></svg>