<svg height="360" viewBox="0 0 640 360" width="640" xmlns="http://www.w3.org/2000/svg"><g fill="none"><g fill="#3c4043" transform="translate(297.098 114.843)"><path d="m13.3245227 63.0749234v42.3836786h-13.24227256v-104.62427762h35.12080986c8.4717645-.16686487 16.6967785 3.08700023 22.7010387 9.09413579 12.0085204 11.34681163 12.7487717 30.45284003 1.4805025 42.71740843-.4935008.5005947-.9870017 1.0011893-1.4805025 1.5017839-6.1687605 5.9237032-13.7357734 8.9272709-22.7010387 8.9272709zm0-49.3920035v36.543408h22.2075378c4.9350085.1668649 9.7055165-1.8355136 13.0777723-5.4231085 6.9090118-7.2586221 6.7445115-18.9391635-.4112506-25.9474883-3.3722558-3.3372975-7.8960135-5.1728112-12.6665217-5.1728112zm84.6353942 17.8545418c9.7877671 0 17.5192801 2.6698381 23.1945401 7.9260817 5.675259 5.2562435 8.471764 12.5982981 8.471764 21.8592989v44.1357597h-12.666521v-9.92846h-.575752c-5.51076 8.176379-12.748771 12.264568-21.8785369 12.264568-7.7315132 0-14.3115245-2.336108-19.4932833-7.008324-5.0995087-4.3384872-7.9782636-10.762785-7.8137633-17.5208124 0-7.4254871 2.7965048-13.2657578 8.3072642-17.687677 5.5107593-4.4219192 12.913272-6.5911626 22.1252877-6.5911626 7.8960136 0 14.3115246 1.5017839 19.4110326 4.3384867v-3.0870002c0-4.5887841-1.974003-8.9272709-5.428509-11.9308387-3.536756-3.1704327-8.060514-4.9225138-12.7487716-4.9225138-7.4025125 0-13.2422726 3.1704327-17.5192798 9.5112979l-11.6795199-7.425487c6.2510106-9.2610007 15.7097768-13.9332172 28.2940482-13.9332172zm-17.1080291 51.9784091c0 3.5041625 1.6450027 6.7580276 4.3592574 8.7604061 2.961005 2.3361082 6.5800112 3.5875948 10.2812675 3.5041623 5.5930093 0 10.9392683-2.2526758 14.8872753-6.2574327 4.359257-4.1716221 6.580012-9.0941359 6.580012-14.7675417-4.112508-3.3372976-9.870018-5.0059463-17.2725301-4.9225138-5.3462592 0-9.8700169 1.334919-13.489023 3.9213245-3.5367561 2.5864057-5.3462591 5.8402707-5.3462591 9.7615953z"/><path d="m202.335 33.874-44.25 103.039h-13.654l16.45-36.043-29.034-66.996h14.394l20.974 51.394h.246l20.481-51.394z"/></g><g transform="translate(140 106.5)"><path d="m116.877449 62.240599c0-4.0881894-.329001-8.1763789-.987002-12.1811359h-55.8478447v23.1107854h31.9953045c-1.3160022 7.425487-5.5930095 14.100082-11.8440202 18.271704v15.0178385h19.0820325c11.1860189-10.4290544 17.6015299-25.8640555 17.6015299-44.219192z" fill="#4285f4"/><path d="m60.0426023 120.977036c15.9565272 0 29.4455501-5.339676 39.2333168-14.517245l-19.0820325-15.0178385c-5.346259 3.6710273-12.1730207 5.7568383-20.1512843 5.7568383-15.4630264 0-28.5407986-10.5959197-33.2290566-24.7794342h-19.65778351v15.5184335c10.03451701 20.2740829 30.51480191 33.0392459 52.88684011 33.0392459z" fill="#34a853"/><path d="m26.8135457 72.4193566c-2.4675042-7.4254871-2.4675042-15.5184336 0-23.0273531v-15.4350011h-19.65778351c-8.47176444 16.936785-8.47176444 36.9605703 0 53.8973553z" fill="#fbbc04"/><path d="m60.0426023 24.6125693c8.4717644-.1668648 16.6145283 3.0870002 22.7010387 9.0107034l16.9435289-17.1870823c-10.7747684-10.17875752-24.9217925-15.76873089-39.6445676-15.60186602-22.3720382 0-42.8523231 12.84859552-52.88684011 33.12267802l19.65778351 15.5184336c4.688258-14.266947 17.7660302-24.8628667 33.2290566-24.8628667z" fill="#ea4335"/></g></g></svg>