<svg xmlns="http://www.w3.org/2000/svg" width="640" height="360" viewBox="0 0 640 360">
  <g fill="none" fill-rule="evenodd" transform="translate(140 106.5)">
    <g fill="#3C4043" fill-rule="nonzero" transform="translate(157.098 8.343)">
      <path d="M13.3245227 63.0749234L13.3245227 105.458602.0822501402 105.458602.0822501402.834324384 35.20306.834324384C43.6748245.667459507 51.8998385 3.92132461 57.9040987 9.92846017 69.9126191 21.2752718 70.6528704 40.3813002 59.3846012 52.6458686 58.8911004 53.1464633 58.3975995 53.6470579 57.9040987 54.1476525 51.7353382 60.0713557 44.1683253 63.0749234 35.20306 63.0749234L13.3245227 63.0749234zM13.3245227 13.6829199L13.3245227 50.2263279 35.5320605 50.2263279C40.467069 50.3931928 45.237577 48.3908143 48.6098328 44.8032194 55.5188446 37.5445973 55.3543443 25.8640559 48.1985822 18.8557311 44.8263264 15.5184336 40.3025687 13.6829199 35.5320605 13.6829199L13.3245227 13.6829199zM97.9599169 31.5374617C107.747684 31.5374617 115.479197 34.2072998 121.154457 39.4635434 126.829716 44.7197869 129.626221 52.0618415 129.626221 61.3228423L129.626221 105.458602 116.9597 105.458602 116.9597 95.530142 116.383948 95.530142C110.873188 103.706521 103.635177 107.79471 94.5054111 107.79471 86.7738979 107.79471 80.1938866 105.458602 75.0121278 100.786386 69.9126191 96.4478988 67.0338642 90.023601 67.1983645 83.2655736 67.1983645 75.8400865 69.9948693 69.9998158 75.5056287 65.5778966 81.016388 61.1559774 88.4189007 58.986734 97.6309164 58.986734 105.52693 58.986734 111.942441 60.4885179 117.041949 63.3252207L117.041949 60.2382205C117.041949 55.6494364 115.067946 51.3109496 111.61344 48.3073818 108.076684 45.1369491 103.552926 43.384868 98.8646684 43.384868 91.4621559 43.384868 85.6223958 46.5553007 81.3453886 52.8961659L69.6658687 45.4706789C75.9168793 36.2096782 85.3756455 31.5374617 97.9599169 31.5374617zM80.8518878 83.5158708C80.8518878 87.0200333 82.4968905 90.2738984 85.2111452 92.2762769 88.1721502 94.6123851 91.7911564 95.8638717 95.4924127 95.7804392 101.085422 95.7804392 106.431681 93.5277634 110.379688 89.5230065 114.738945 85.3513844 116.9597 80.4288706 116.9597 74.7554648 112.847192 71.4181672 107.089682 69.7495185 99.6871699 69.832951 94.3409107 69.832951 89.817153 71.16787 86.1981469 73.7542755 82.6613908 76.3406812 80.8518878 79.5945462 80.8518878 83.5158708z"/>
      <polygon points="202.335 33.874 158.085 136.913 144.431 136.913 160.881 100.87 131.847 33.874 146.241 33.874 167.215 85.268 167.461 85.268 187.942 33.874"/>
    </g>
    <g fill-rule="nonzero">
      <path fill="#4285F4" d="M116.877449,62.240599 C116.877449,58.1524096 116.548448,54.0642201 115.890447,50.0594631 L60.0426023,50.0594631 L60.0426023,73.1702485 L92.0379068,73.1702485 C90.7219046,80.5957355 86.4448973,87.2703305 80.1938866,91.4419525 L80.1938866,106.459791 L99.2759191,106.459791 C110.461938,96.0307366 116.877449,80.5957355 116.877449,62.240599 Z"/>
      <path fill="#34A853" d="M60.0426023,120.977036 C75.9991295,120.977036 89.4881524,115.63736 99.2759191,106.459791 L80.1938866,91.4419525 C74.8476276,95.1129798 68.0208659,97.1987908 60.0426023,97.1987908 C44.5795759,97.1987908 31.5018037,86.6028711 26.8135457,72.4193566 L7.15576219,72.4193566 L7.15576219,87.9377901 C17.1902792,108.211873 37.6705641,120.977036 60.0426023,120.977036 Z"/>
      <path fill="#FBBC04" d="M26.8135457,72.4193566 C24.3460415,64.9938695 24.3460415,56.900923 26.8135457,49.3920035 L26.8135457,33.9570024 L7.15576219,33.9570024 C-1.31600225,50.8937874 -1.31600225,70.9175727 7.15576219,87.8543577 L26.8135457,72.4193566 Z"/>
      <path fill="#EA4335" d="M60.0426023,24.6125693 C68.5143667,24.4457045 76.6571306,27.6995695 82.743641,33.6232727 L99.6871699,16.4361904 C88.9124015,6.25743288 74.7653774,0.667459507 60.0426023,0.834324384 C37.6705641,0.834324384 17.1902792,13.6829199 7.15576219,33.9570024 L26.8135457,49.475436 C31.5018037,35.208489 44.5795759,24.6125693 60.0426023,24.6125693 Z"/>
    </g>
  </g>
</svg>
