<svg height="32" viewBox="0 0 51 32" width="51" xmlns="http://www.w3.org/2000/svg"><g fill="none" fill-rule="evenodd"><path d="m.5.5h50v31h-50z" fill="#fff" stroke="#d0d0d0"/><g fill-rule="nonzero"><g fill="#3c4043" transform="translate(24.091 10.57)"><path d="m1.11037689 5.25624362v3.53197322h-1.10352271v-8.71868981h2.92673415c.70598038-.0139054 1.39139821.25725002 1.89175323.75784465 1.00071003.94556764 1.06239764 2.53773667.12337521 3.55978404-.04112507.04171622-.08225015.08343244-.12337521.12514866-.51406338.49364193-1.14464779.74393924-1.89175323.74393924zm0-4.11600029v3.045284h1.85062815c.41125071.01390541.80879305-.15295947 1.08981436-.45192571.57575098-.60488518.56204262-1.57826363-.03427089-2.1622907-.28102131-.27810812-.65800112-.43106759-1.05554347-.43106759zm7.05294952 1.48787848c.81564722 0 1.45994.22248651 1.93287829.6605068.4729383.4380203.7059804 1.04985818.7059804 1.82160825v3.67797998h-1.05554346v-.82737168h-.0479793c-.45922997.68136492-1.06239762 1.02204737-1.82321142 1.02204737-.64429276 0-1.19262704-.19467569-1.62444027-.58402706-.42495906-.36154057-.6648553-.89689872-.65114694-1.46006767 0-.61879059.23304206-1.10547982.69227201-1.47397308.45922995-.36849327 1.076106-.54926355 1.84377398-.54926355.65800111 0 1.19262705.12514865 1.61758608.36154056v-.25725002c0-.38239868-.16450031-.74393924-.45237575-.99423656-.29472968-.26420272-.67170949-.41020948-1.06239766-.41020948-.61687605 0-1.10352272.26420272-1.45993999.79260816l-.97329333-.61879059c.52091756-.77175005 1.30914807-1.16110143 2.35783736-1.16110143zm-1.42566909 4.33153409c0 .29201354.13708356.56316897.36327145.73003384.24675042.19467569.54833426.29896624.85677228.29201353.46608414 0 .91160573-.18772298 1.24060624-.52145273.36327146-.34763517.54833435-.75784466.54833435-1.23062847-.34270897-.27810813-.82250144-.41716219-1.43937748-.41020949-.4455216 0-.82250141.11124325-1.12408525.32677705-.29472968.2155338-.44552159.48668922-.44552159.81346627z"/><path d="m16.861 2.823-3.687 8.586h-1.138l1.371-3.003-2.42-5.583h1.2l1.748 4.283h.02l1.707-4.283z"/></g><g transform="translate(11 9.875)"><path d="m9.73978742 5.18671659c0-.34068246-.02741672-.68136492-.08225016-1.01509467h-4.65398707v1.92589879h2.66627538c-.10966685.61879058-.46608413 1.17500683-.98700169 1.522642v1.25148658h1.59016938c.93216826-.8690879 1.46679416-2.155338 1.46679416-3.6849327z" fill="#4285f4"/><path d="m5.00355019 10.0814197c1.3297106 0 2.45379585-.44497307 3.26944307-1.20977041l-1.59016938-1.25148658c-.44552158.30591894-1.01441838.47973652-1.67927369.47973652-1.28858553 0-2.37839988-.88299331-2.76908805-2.06495285h-1.63814862v1.2932028c.83620975 1.68950687 2.54290016 2.75327052 4.40723667 2.75327052z" fill="#34a853"/><path d="m2.23446214 6.03494638c-.20562535-.61879059-.20562535-1.2932028 0-1.91894609v-1.28625009h-1.63814862c-.70598037 1.41139875-.70598037 3.08004752 0 4.49144627z" fill="#fbbc04"/><path d="m5.00355019 2.05104744c.70598037-.0139054 1.38454403.25725002 1.89175322.75089195l1.41196075-1.43225686c-.89789737-.84822979-2.07681604-1.3140609-3.30371397-1.3001555-1.86433651 0-3.57102692 1.0707163-4.40723667 2.76022317l1.63814862 1.2932028c.39068817-1.18891225 1.48050252-2.07190556 2.76908805-2.07190556z" fill="#ea4335"/></g></g></g></svg>