<?xml version="1.0" encoding="UTF-8" standalone="no"?>
<svg
   viewBox="0 0 640 360"
   version="1.1"
   id="svg11"
   sodipodi:docname="ideal-issuer-van-lanschot-kempen-640x360.svg"
   width="640"
   height="360"
   inkscape:version="1.3.2 (091e20e, 2023-11-25)"
   xmlns:inkscape="http://www.inkscape.org/namespaces/inkscape"
   xmlns:sodipodi="http://sodipodi.sourceforge.net/DTD/sodipodi-0.dtd"
   xmlns="http://www.w3.org/2000/svg"
   xmlns:svg="http://www.w3.org/2000/svg"
   xmlns:rdf="http://www.w3.org/1999/02/22-rdf-syntax-ns#"
   xmlns:cc="http://creativecommons.org/ns#"
   xmlns:dc="http://purl.org/dc/elements/1.1/">
  <sodipodi:namedview
     id="namedview11"
     pagecolor="#ffffff"
     bordercolor="#666666"
     borderopacity="1.0"
     inkscape:showpageshadow="2"
     inkscape:pageopacity="0.0"
     inkscape:pagecheckerboard="true"
     inkscape:deskcolor="#d1d1d1"
     inkscape:zoom="1.0221519"
     inkscape:cx="316"
     inkscape:cy="67.993808"
     inkscape:window-width="1272"
     inkscape:window-height="816"
     inkscape:window-x="2817"
     inkscape:window-y="387"
     inkscape:window-maximized="0"
     inkscape:current-layer="svg11" />
  <title
     id="title1">Van Lanschot Kempen Logo</title>
  <g
     fill="#00585b"
     clip-path="url(#clip0_20576_131028)"
     id="g10"
     transform="matrix(0.81012658,0,0,0.81012658,64.000001,124.90937)">
    <path
       fill-rule="evenodd"
       d="m 5.78,0.005 h 49.533 c 5.78,0 5.78,5.046 5.78,5.046 v 125.904 c 0,5.046 -5.78,5.046 -5.78,5.046 H 33 l -0.003,-23.022 a 3.23,3.23 0 0 0 -0.003,-0.132 c -0.004,-0.104 -0.008,-0.208 0.01,-0.298 0.034,-0.166 0.056,-0.344 0.079,-0.523 0.064,-0.503 0.127,-1.009 0.454,-1.24 0.463,-0.327 0.932,-0.631 1.4,-0.935 0.305,-0.198 0.61,-0.395 0.913,-0.599 2.739,-1.839 5.533,-3.877 7.959,-6.783 2.244,-2.688 4.197,-6.34 5.08,-10.813 0.54,-2.74 0.216,-5.87 -0.884,-8.116 a 8.747,8.747 0 0 0 -1.774,-2.422 c -0.718,-0.69 -0.784,-1.741 -0.283,-2.765 0.667,-1.365 1.34,-2.832 1.79,-4.45 0.394,-1.413 0.601,-3.035 0.4,-4.564 -0.232,-1.753 -0.978,-3.132 -1.851,-4.027 -0.321,-0.328 -0.677,-0.555 -1.032,-0.781 -0.61,-0.389 -1.217,-0.776 -1.643,-1.675 l 0.004,-0.014 c 0.783,-2.61 1.38,-4.602 1.419,-7.62 0.015,-1.16 0.013,-2.376 -0.304,-3.397 -0.539,-1.735 -1.712,-2.3 -2.758,-2.803 a 20.09,20.09 0 0 1 -0.437,-0.215 9.073,9.073 0 0 0 -0.953,-0.4 10.534,10.534 0 0 1 -0.815,-0.331 C 39.104,47.763 39.036,47.562 39.037,46.356 39.041,40.865 38.29,35.66 35.259,32.962 33.686,31.561 31.893,31.105 30.113,31.13 c -1.698,-0.024 -3.409,0.43 -4.91,1.831 -2.893,2.698 -3.61,7.9 -3.606,13.392 0,1.206 -0.065,1.407 -0.699,1.72 a 9.818,9.818 0 0 1 -0.77,0.328 8.19,8.19 0 0 0 -0.917,0.403 c -0.134,0.072 -0.273,0.142 -0.415,0.213 -1,0.504 -2.12,1.069 -2.634,2.804 -0.304,1.02 -0.306,2.237 -0.29,3.396 0.036,3.017 0.606,5.01 1.354,7.62 l 0.003,0.012 c -0.406,0.898 -0.986,1.286 -1.567,1.674 -0.34,0.227 -0.68,0.454 -0.986,0.783 -0.834,0.894 -1.546,2.272 -1.766,4.024 -0.193,1.53 0.005,3.152 0.381,4.565 0.43,1.615 1.072,3.083 1.708,4.447 0.479,1.024 0.416,2.075 -0.27,2.766 a 8.683,8.683 0 0 0 -1.692,2.42 c -1.051,2.245 -1.36,5.375 -0.844,8.115 0.843,4.472 2.707,8.122 4.849,10.811 2.315,2.905 4.982,4.942 7.595,6.78 0.288,0.203 0.577,0.399 0.866,0.596 0.45,0.305 0.899,0.61 1.343,0.939 0.311,0.23 0.373,0.737 0.433,1.24 0.022,0.179 0.044,0.357 0.076,0.522 0.018,0.089 0.014,0.193 0.01,0.296 a 3.09,3.09 0 0 0 -0.004,0.134 l -0.002,18.067 v 4.973 H 5.78 C 0,136.001 0,130.955 0,130.955 V 5.051 C 0,0.005 5.78,0.005 5.78,0.005 Z m 36.815,22.287 4.849,-9.362 v -1.434 h -7.55 v 1.666 h 5.401 l -4.817,9.13 z m -8.887,0.185 c 2.225,0 3.76,-1.419 3.76,-3.409 v -0.03 c 0,-2.006 -1.535,-2.824 -3.162,-3.04 l 2.992,-3.083 v -1.419 h -7.103 v 1.65 h 4.648 l -2.9,3.1 0.307,1.187 h 0.875 c 1.504,0 2.47,0.602 2.47,1.665 v 0.03 c 0,0.988 -0.798,1.636 -1.856,1.636 -1.197,0 -2.056,-0.509 -2.823,-1.418 l -1.32,1.233 c 0.906,1.11 2.24,1.898 4.112,1.898 z m -10.82,-0.185 4.848,-9.362 v -1.434 h -7.549 v 1.666 h 5.401 l -4.817,9.13 z m -7.858,0 h 1.872 V 11.418 h -1.32 l -2.884,0.926 0.399,1.542 1.933,-0.54 z"
       clip-rule="evenodd"
       id="path1" />
    <path
       d="m 444.53,54.081 v 0.13 c 0,13.107 9.859,23.474 23.092,23.474 8.498,0 13.687,-3.13 18.423,-8.085 l -5.125,-5.216 c -3.892,3.651 -7.459,5.933 -13.038,5.933 -8.693,0 -14.985,-7.303 -14.985,-16.236 v -0.13 c 0,-8.933 6.292,-16.105 14.985,-16.105 5.189,0 9.082,2.282 12.714,5.672 l 5.125,-5.933 c -4.347,-4.173 -9.406,-7.107 -17.775,-7.107 -13.751,0 -23.416,10.627 -23.416,23.603 z m -43.14,16.171 4.801,-5.737 c 4.346,3.781 8.692,5.933 14.336,5.933 4.93,0 8.044,-2.282 8.044,-5.738 v -0.13 c 0,-3.26 -1.817,-5.02 -10.249,-6.977 -9.666,-2.347 -15.115,-5.217 -15.115,-13.628 v -0.13 c 0,-7.825 6.487,-13.237 15.504,-13.237 6.616,0 11.871,2.022 16.477,5.739 l -4.282,6.063 c -4.087,-3.064 -8.174,-4.695 -12.325,-4.695 -4.671,0 -7.395,2.413 -7.395,5.412 v 0.13 c 0,3.522 2.076,5.087 10.768,7.174 9.6,2.347 14.596,5.803 14.596,13.366 v 0.13 c 0,8.542 -6.682,13.628 -16.217,13.628 -6.942,0 -13.494,-2.412 -18.943,-7.303 z"
       id="path2" />
    <path
       fill-rule="evenodd"
       d="m 159.854,31.168 h -7.395 L 132.48,77.136 h 8.173 l 4.67,-11.019 h 21.472 l 4.606,11.02 h 8.432 z m -3.827,9.585 7.849,18.257 h -15.634 z"
       clip-rule="evenodd"
       id="path3" />
    <path
       d="m 98.26,31.26 h -8.822 l 18.877,45.97 h 7.005 l 18.877,-45.97 h -8.628 l -13.622,35.08 z m 89.714,0 h 7.395 l 24.326,31.56 V 31.26 h 7.849 v 45.643 h -6.682 L 195.823,44.432 v 32.471 h -7.849 z m 79.918,0 h -7.979 v 45.643 h 31.85 v -7.302 h -23.871 z"
       id="path4" />
    <path
       fill-rule="evenodd"
       d="m 315.944,31.168 h 7.395 l 19.98,45.968 h -8.432 l -4.606,-11.019 h -21.472 l -4.67,11.02 h -8.173 z m 11.417,27.842 -7.848,-18.257 -7.785,18.257 z"
       clip-rule="evenodd"
       id="path5" />
    <path
       d="m 360.005,31.26 h -7.395 v 45.643 h 7.848 V 44.432 l 25.04,32.471 h 6.681 V 31.26 h -7.848 v 31.56 z m 135.057,0 h 7.979 v 18.974 h 21.666 V 31.26 h 7.978 v 45.643 h -7.978 V 57.67 h -21.666 v 19.234 h -7.979 z"
       id="path6" />
    <path
       fill-rule="evenodd"
       d="m 543.001,54.081 v 0.13 c 0,12.846 9.73,23.474 23.677,23.474 13.947,0 23.807,-10.759 23.807,-23.604 v -0.13 c 0,-12.846 -9.731,-23.473 -23.677,-23.473 -13.947,0 -23.807,10.758 -23.807,23.603 z m 39.115,0 v 0.13 c 0,8.869 -6.292,16.106 -15.308,16.106 -9.017,0 -15.44,-7.367 -15.44,-16.236 v -0.13 c 0,-8.868 6.293,-16.105 15.31,-16.105 9.017,0 15.438,7.368 15.438,16.235 z"
       clip-rule="evenodd"
       id="path7" />
    <path
       d="M 609.557,38.694 H 595.155 V 31.26 h 36.846 v 7.434 H 617.6 v 38.21 h -8.043 z M 106.441,90.359 H 98.462 V 136 h 7.979 v -13.237 l 7.071,-7.302 15.503,20.539 h 9.665 l -19.719,-26.016 18.876,-19.626 h -9.795 l -21.601,22.951 z m 40.348,0 h 33.667 v 7.172 h -25.688 v 11.867 h 22.769 v 7.172 h -22.769 v 12.259 h 26.011 v 7.172 h -33.99 z m 53.906,0 h -8.498 V 136 h 7.849 v -32.602 l 14.206,21.387 h 0.26 l 14.336,-21.517 V 136 h 7.978 V 90.359 h -8.497 l -13.817,21.581 z"
       id="path8" />
    <path
       fill-rule="evenodd"
       d="m 251.034,90.359 h 17.903 c 10.573,0 17.255,6.063 17.255,15.256 v 0.131 c 0,10.237 -8.173,15.585 -18.163,15.585 h -9.016 v 14.67 h -7.979 z m 17.254,23.734 c 6.033,0 9.796,-3.391 9.796,-8.151 v -0.13 c 0,-5.347 -3.828,-8.15 -9.796,-8.15 h -9.275 v 16.431 z"
       clip-rule="evenodd"
       id="path9" />
    <path
       d="M 328.683,90.359 H 295.016 V 136 h 33.99 v -7.172 H 302.995 V 116.57 h 22.769 v -7.172 H 302.995 V 97.531 h 25.688 z m 12.326,0 h 7.395 l 24.325,31.559 v -31.56 h 7.849 v 45.643 h -6.682 l -25.039,-32.472 v 32.472 h -7.848 z"
       id="path10" />
  </g>
  <defs
     id="defs11">
    <clipPath
       id="clip0_20576_131028">
      <path
         fill="#ffffff"
         d="M 0,0 H 632 V 136 H 0 Z"
         id="path11" />
    </clipPath>
  </defs>
  <metadata
     id="metadata11">
    <rdf:RDF>
      <cc:Work
         rdf:about="">
        <dc:title>Van Lanschot Kempen Logo</dc:title>
      </cc:Work>
    </rdf:RDF>
  </metadata>
</svg>
