<?xml version="1.0" encoding="UTF-8" standalone="no"?>
<!-- Generator: Adobe Illustrator 27.7.0, SVG Export Plug-In . SVG Version: 6.00 Build 0)  -->

<svg
   version="1.1"
   id="Layer_1"
   x="0px"
   y="0px"
   viewBox="0 0 40 40"
   xml:space="preserve"
   sodipodi:docname="ideal-issuer-van-lanschot-ideal-hub-40x40.svg"
   width="40"
   height="40"
   inkscape:version="1.3.2 (091e20e, 2023-11-25)"
   xmlns:inkscape="http://www.inkscape.org/namespaces/inkscape"
   xmlns:sodipodi="http://sodipodi.sourceforge.net/DTD/sodipodi-0.dtd"
   xmlns="http://www.w3.org/2000/svg"
   xmlns:svg="http://www.w3.org/2000/svg"><defs
   id="defs2" /><sodipodi:namedview
   id="namedview2"
   pagecolor="#ffffff"
   bordercolor="#666666"
   borderopacity="1.0"
   inkscape:showpageshadow="2"
   inkscape:pageopacity="0.0"
   inkscape:pagecheckerboard="true"
   inkscape:deskcolor="#d1d1d1"
   inkscape:zoom="5.4883721"
   inkscape:cx="32.978814"
   inkscape:cy="20.680085"
   inkscape:window-width="1232"
   inkscape:window-height="774"
   inkscape:window-x="3504"
   inkscape:window-y="310"
   inkscape:window-maximized="0"
   inkscape:current-layer="Layer_1" />
<style
   type="text/css"
   id="style1">
	.st0{fill:#00585A;}
</style>
<g
   id="g2"
   transform="matrix(0.93023256,0,0,0.93023256,10,0)">
	<g
   id="g1">
		<path
   class="st0"
   d="M 16.1,5.4 14.7,8 H 14.1 L 15.5,5.4 H 14 V 5 h 2.2 v 0.4 z m -2.8,1.7 c 0,0.6 -0.4,1 -1.1,1 -0.5,0 -0.9,-0.2 -1.2,-0.5 l 0.4,-0.4 c 0.2,0.3 0.5,0.4 0.8,0.4 0.3,0 0.5,-0.2 0.5,-0.5 v 0 C 12.7,6.8 12.4,6.6 12,6.6 H 11.7 L 11.6,6.3 12.4,5.4 H 11.1 V 5 h 2 v 0.4 l -0.9,0.9 c 0.6,0 1.1,0.2 1.1,0.8 z M 10.5,5.4 9.1,8 H 8.5 L 9.9,5.4 H 8.3 V 5 h 2.2 z M 7.4,8 H 6.9 V 5.5 L 6.3,5.6 6.2,5.2 7,4.9 h 0.4 z m 11,-6.3 H 4.2 c 0,0 -1.7,0 -1.7,1.4 V 39 c 0,0 0,1.4 1.7,1.4 h 6.2 c 0,-2.2 0,-4.4 0,-6.6 0,0 0,-0.1 0,-0.1 0,-0.2 0,-0.4 -0.1,-0.5 C 10.1,33 9.9,32.9 9.7,32.8 9,32.3 8.2,31.7 7.5,30.9 6.9,30.1 6.4,29.1 6.1,27.8 5.9,27 6,26.1 6.3,25.5 6.4,25.2 6.6,25 6.8,24.8 7,24.6 7,24.3 6.8,24 6.6,23.6 6.4,23.2 6.3,22.7 6.2,22.3 6.1,21.8 6.2,21.4 6.3,20.9 6.5,20.5 6.7,20.3 7,20 7.3,20 7.5,19.6 7.3,18.9 7.1,18.3 7.1,17.4 c 0,-0.3 0,-0.7 0.1,-1 0.2,-0.6 0.6,-0.7 0.9,-0.9 0.2,-0.1 0.3,-0.1 0.5,-0.2 0.2,-0.1 0.2,-0.1 0.2,-0.5 0,-1.6 0.2,-3 1,-3.8 0.4,-0.4 0.9,-0.5 1.4,-0.5 0.5,0 1,0.1 1.5,0.5 0.9,0.8 1.1,2.3 1.1,3.8 0,0.3 0,0.4 0.2,0.5 0.2,0.1 0.3,0.1 0.5,0.2 0.3,0.2 0.7,0.3 0.9,0.9 0.1,0.3 0.1,0.6 0.1,1 0,0.9 -0.2,1.4 -0.4,2.2 0.2,0.4 0.5,0.4 0.8,0.7 0.2,0.3 0.5,0.6 0.5,1.1 0.1,0.4 0,0.9 -0.1,1.3 -0.1,0.5 -0.3,0.9 -0.5,1.3 -0.1,0.3 -0.1,0.6 0.1,0.8 0.2,0.2 0.4,0.4 0.5,0.7 0.3,0.6 0.4,1.5 0.3,2.3 -0.3,1.3 -0.8,2.3 -1.5,3.1 -0.7,0.8 -1.5,1.4 -2.3,1.9 -0.2,0.1 -0.4,0.3 -0.7,0.4 -0.2,0.1 -0.2,0.4 -0.2,0.5 0,0 0,0.1 0,0.1 0,2.2 0,4.4 0,6.6 h 6.4 c 0,0 1.7,0 1.7,-1.4 V 3.1 C 20,3.1 20,1.7 18.4,1.7"
   id="path1" />
	</g>
</g>
</svg>
