<?xml version="1.0" encoding="utf-8"?>
<!-- Generator: Adobe Illustrator 27.7.0, SVG Export Plug-In . SVG Version: 6.00 Build 0)  -->
<svg version="1.1" id="Layer_1" xmlns="http://www.w3.org/2000/svg" xmlns:xlink="http://www.w3.org/1999/xlink" x="0px" y="0px"
	 viewBox="0 0 21.5 43" style="enable-background:new 0 0 21.5 43;" xml:space="preserve">
<style type="text/css">
	.st0{fill:#00585A;}
</style>
<g>
	<g>
		<path class="st0" d="M16.1,5.4L14.7,8h-0.6l1.4-2.6H14V5h2.2V5.4z M13.3,7.1c0,0.6-0.4,1-1.1,1c-0.5,0-0.9-0.2-1.2-0.5l0.4-0.4
			c0.2,0.3,0.5,0.4,0.8,0.4c0.3,0,0.5-0.2,0.5-0.5v0c0-0.3-0.3-0.5-0.7-0.5h-0.3l-0.1-0.3l0.8-0.9h-1.3V5h2v0.4l-0.9,0.9
			C12.8,6.3,13.3,6.5,13.3,7.1L13.3,7.1z M10.5,5.4L9.1,8H8.5l1.4-2.6H8.3V5h2.2V5.4z M7.4,8H6.9V5.5L6.3,5.6L6.2,5.2L7,4.9h0.4V8z
			 M18.4,1.7H4.2c0,0-1.7,0-1.7,1.4V39c0,0,0,1.4,1.7,1.4h6.2c0-2.2,0-4.4,0-6.6c0,0,0-0.1,0-0.1c0-0.2,0-0.4-0.1-0.5
			c-0.2-0.2-0.4-0.3-0.6-0.4c-0.7-0.5-1.5-1.1-2.2-1.9c-0.6-0.8-1.1-1.8-1.4-3.1C5.9,27,6,26.1,6.3,25.5c0.1-0.3,0.3-0.5,0.5-0.7
			C7,24.6,7,24.3,6.8,24c-0.2-0.4-0.4-0.8-0.5-1.3c-0.1-0.4-0.2-0.9-0.1-1.3c0.1-0.5,0.3-0.9,0.5-1.1C7,20,7.3,20,7.5,19.6
			c-0.2-0.7-0.4-1.3-0.4-2.2c0-0.3,0-0.7,0.1-1c0.2-0.6,0.6-0.7,0.9-0.9c0.2-0.1,0.3-0.1,0.5-0.2c0.2-0.1,0.2-0.1,0.2-0.5
			c0-1.6,0.2-3,1-3.8c0.4-0.4,0.9-0.5,1.4-0.5c0.5,0,1,0.1,1.5,0.5c0.9,0.8,1.1,2.3,1.1,3.8c0,0.3,0,0.4,0.2,0.5
			c0.2,0.1,0.3,0.1,0.5,0.2c0.3,0.2,0.7,0.3,0.9,0.9c0.1,0.3,0.1,0.6,0.1,1c0,0.9-0.2,1.4-0.4,2.2c0.2,0.4,0.5,0.4,0.8,0.7
			c0.2,0.3,0.5,0.6,0.5,1.1c0.1,0.4,0,0.9-0.1,1.3c-0.1,0.5-0.3,0.9-0.5,1.3c-0.1,0.3-0.1,0.6,0.1,0.8c0.2,0.2,0.4,0.4,0.5,0.7
			c0.3,0.6,0.4,1.5,0.3,2.3c-0.3,1.3-0.8,2.3-1.5,3.1c-0.7,0.8-1.5,1.4-2.3,1.9c-0.2,0.1-0.4,0.3-0.7,0.4C12,33.3,12,33.6,12,33.7
			c0,0,0,0.1,0,0.1c0,2.2,0,4.4,0,6.6h6.4c0,0,1.7,0,1.7-1.4V3.1C20,3.1,20,1.7,18.4,1.7"/>
	</g>
</g>
</svg>
