<?xml version="1.0" encoding="UTF-8"?>
<svg width="32px" height="24px" viewBox="0 0 32 24" version="1.1" xmlns="http://www.w3.org/2000/svg" xmlns:xlink="http://www.w3.org/1999/xlink">
    <title>Untitled 14</title>
    <g id="Page-1" stroke="none" stroke-width="1" fill="none" fill-rule="evenodd">
        <g id="ideal-issuer-van-lanschot-kempen-mollie-32x24" fill="#006568" fill-rule="nonzero">
            <path d="M28,0 L4,0 C1.790861,0 0,1.790861 0,4 L0,20 C0,22.209139 1.790861,24 4,24 L28,24 C30.209139,24 32,22.209139 32,20 L32,4 C32,1.790861 30.209139,0 28,0 Z" id="Path"></path>
        </g>
        <path d="M18.9472944,5 L12.3245491,5 C12.3245491,5 11,5 11,6.32450933 C11,6.32450933 11,13.2667359 11,18.2454509 C11,19.57 12.3245491,19.57 12.3245491,19.57 L15.3047845,19.57 L15.3047845,16.2586273 C15.3047845,15.5963528 14.0550062,15.3826368 13.8146668,15.1079253 C13.4959803,14.7436743 13.222792,14.2883606 13.1317293,13.6964196 C13.0861648,13.3322349 13.0861648,12.9224194 13.222792,12.6492311 C13.2682903,12.5126701 13.359353,12.4216074 13.4504158,12.3305446 C13.5414785,12.2394819 13.5414785,12.1028546 13.4959803,11.9662936 C13.4049175,11.7841681 13.3138548,11.6020426 13.2682903,11.3743526 C13.222792,11.1922272 13.1772275,10.9646034 13.222792,10.7824779 C13.2682903,10.5547879 13.359353,10.3726624 13.4504158,10.2815997 C13.5414785,10.1450387 13.6781058,10.1450387 13.7691685,9.96291316 C13.6781058,9.64416043 13.587043,9.37097218 13.587043,8.96120969 C13.587043,8.82461556 13.587043,8.64249669 13.6325413,8.50590257 C13.723604,8.23271432 13.9057295,8.18718295 14.0423568,8.0961202 C14.1334195,8.05058882 14.1789178,8.05058882 14.2699805,8.00505745 C14.3610433,7.95952608 14.3610433,7.95952608 14.3610433,7.77740058 C14.3610433,7.04890522 14.452106,6.41146598 14.816357,6.04721498 C14.9984825,5.86508949 15.2261725,5.81956474 15.4537962,5.81956474 C15.6814862,5.81956474 15.90911,5.86508949 16.1368,6.04721498 C16.5465492,6.41146598 16.637612,7.09443659 16.637612,7.77740058 C16.637612,7.9139947 16.637612,7.95952608 16.7286747,8.00505745 C16.8197375,8.05058882 16.865302,8.05058882 16.9563647,8.0961202 C17.0929257,8.18718295 17.2750512,8.23271432 17.366114,8.50590257 C17.4116122,8.64249669 17.4116122,8.77908419 17.4116122,8.96120969 C17.4116122,9.37097218 17.3206157,9.59866217 17.2295529,9.96291316 C17.3206157,10.1450387 17.4571767,10.1450387 17.5937377,10.2815997 C17.6848005,10.4182269 17.8214277,10.5547879 17.8214277,10.7824779 C17.866926,10.9646034 17.8214277,11.1922272 17.7758632,11.3743526 C17.7303649,11.6020426 17.6393022,11.7841681 17.5482394,11.9662936 C17.502675,12.1028546 17.502675,12.2394819 17.5937377,12.3305446 C17.6848005,12.4216074 17.7758632,12.5126701 17.8214277,12.6492311 C17.9579887,12.9224194 18.0035532,13.3322349 17.9579887,13.6964196 C17.7758632,14.2883606 17.5482394,14.7436743 17.2295529,15.1079253 C17.0132541,15.3550862 15.967059,15.5963528 15.967059,16.2586273 L15.967059,19.57 L18.9472944,19.57 C18.9472944,19.57 20.2718435,19.57 20.2718435,18.2454509 L20.2718435,6.32450933 C20.2718435,5 18.9472944,5 18.9472944,5 Z" id="Path" fill="#FFFFFF" fill-rule="nonzero"></path>
    </g>
</svg>