<svg height="32" viewBox="0 0 51 32" width="51" xmlns="http://www.w3.org/2000/svg"><g fill="none" fill-rule="evenodd"><path d="m.5.5h50v31h-50z" fill="#fff" stroke="#d0d0d0"/><g fill-rule="nonzero" transform="translate(7 12.4)"><path d="m2.4950495.09674682c-.28005657-.05601132-.56520509-.05601132-.84016973 0-1.00311174.20367751-1.65487977.9980198-1.65487977 2.02659123v3.2231966c0 .13239039.01527581.22404527.05601132.30042433l.00509193.00509194c.04582744.08656294.13239039.15275813.2291372.17821782.10183876.02545969.20876945.00509194.29533239-.05601131.16803395-.11202264.1884017-.30551627.1884017-.44299859v-1.29844413h2.60707214v1.30862801c0 .15785007.04582744.24950495.07128712.30551626.04582744.08656294.13239039.15275813.2291372.17821782.02545969.00509194.05601132.01018388.08656295.01018388.07637906 0 .14766619-.02036775.20876944-.06619519.15275814-.10183876.17312589-.2698727.17312589-.44299859v-3.20792079c-.00509194-1.02857143-.65176804-1.81782178-1.65487978-2.02149929zm.88090524 2.03168317v1.18132956h-2.59688826v-1.18132956c0-.50919378.17821782-.86562942.57029703-1.12022631.27496464-.19349364.63649222-.26478077.99292786-.19858557.17312589.03055162.32588402.09674681.4582744.19349363l.00509194.00509194c.38698727.25968882.57029703.61612447.57029703 1.12022631zm8.48316836 1.95021216c-.0407355-.08656294-.1222066-.15275813-.2138614-.18330976-.0967468-.03055163-.1985856-.01527581-.2902405.03055163-.1782178.08656294-.2138614.28005657-.2240452.34625177l-.0305517.162942-.0050919.05091938c-.1171146.50410184-.5244696.77906648-1.0438473.70268741-.33606784-.05091937-.78415837-.2291372-.78415837-1.15586987v-.06110325h1.01838757c.1222065 0 .4939179 0 .4939179-.36661952 0-.18330976-.1374823-.33606789-.3004243-.34625177-.076379-.01018388-.1425742-.01018388-.2189533-.01018388h-.99292787v-1.41046676c0-.13239038-.01527581-.22404526-.05601131-.30042432v-.00509194c-.04582744-.08656294-.13239038-.15275814-.2291372-.17821782-.10183876-.02545969-.20876945-.00509194-.29533239.05601131-.15275814.10183876-.17312589.2698727-.17312589.44299859v2.10297029c0 1.19660538.43281471 1.79745403 1.40537483 1.95530411.11202263.02036775.22404523.03055162.33606793.03055162.7637906 0 1.4053748-.47355021 1.6090523-1.227157.0152758-.06110325.0254597-.11711457.0356436-.17312588v-.00509194c.0305516-.21895333.0203677-.34115983-.0407355-.4582744zm4.9748232-1.00311174c-.3258841-1.21697313-1.5683169-1.91966054-2.8311174-1.6039604-.6466761.16294201-1.1711457.55502122-1.476662 1.1049505s-.3615276 1.20678925-.1578501 1.84837341c.3055163.94200848 1.1762377 1.53267327 2.1691655 1.53267327.1782178 0 .3666195-.02036776.5499293-.06110326.2800566-.06110325.5550212-.17821782.7994342-.33606789.1833098-.12220651.3360679-.25459689.4175389-.35643564.1272985-.15275814.2036775-.27496464.1884017-.4175389-.0101839-.09674682-.0611032-.18330976-.1374823-.24441301-.081471-.06110326-.1884017-.08656295-.2851485-.06619519l-.0152758.00509193c-.0967468.03055163-.1731259.07128713-.2342292.13239039l-.0661952.081471-.0967468.08656294-.0050919.00509194c-.2138614.21386139-.4735502.36152758-.7536068.4175389-.7586987.17312588-1.5072136-.2291372-1.7821782-.95219237-.0203678-.06110325-.0356436-.11711456-.0509194-.16803394h3.3301273l.0712871-.01018388.1120227-.00509194c.1222065-.01018387.2138613-.05601131.2749646-.14257425.1120226-.15785007.1069307-.39207921-.0203677-.85035361zm-3.7272985.12729844c.2596888-.82489391 1.0896747-1.2678925 1.9247525-1.02347949.5244696.15275814.9318246.58048091 1.064215 1.11513437.0101839.04073551.0203677.08147101.0254597.12220651l-3.0653466-.02545969c.0101839-.06619519.0305517-.1222065.0509194-.1884017zm5.9575672-1.83823396c.7536068-.00504751 1.3646393.4277672 1.6294201 1.16100624l.0152758.04582744c.0152758.05091938.0356436.10693069.0509194.17312589.0509193.24950495.076379.54992927-.1578501.67722772-.162942.081471-.3615276.04582744-.4735502-.08147101l-.0152758-.02036775c-.0509194-.07128713-.0916549-.18330976-.168034-.54992928-.0254597-.10183875-.0865629-.21895332-.1884017-.34115983-.2087694-.24950495-.5448373-.36152758-.8859971-.28514851-.5091938.10183875-.7281471.43790665-.7281471 1.13041018v2.05205092c0 .15275814 0 .33606789-.1578501.44299859-.0611033.04582744-.1323904.06619519-.2087695.06619519-.0305516 0-.0611032-.00509194-.0865629-.01018388-.0967468-.02545969-.1833098-.09165488-.2291372-.17821782-.0356436-.07128713-.0712871-.15785007-.0712871-.30551626v-2.06732674c0-1.308628.7128713-1.74144271 1.3137199-1.87383309.1171146-.02545969.2291372-.035688.3615276-.035688zm-12.69929279 0c.75360679-.00504751 1.36463932.4277672 1.62942008 1.16100624l.01527581.04582744c.02036776.05091938.03564357.10693069.05091938.17312589.05091938.24950495.07637907.54992927-.16294201.67722772-.162942.081471-.36152758.04582744-.47355021-.08147101l-.01527581-.02036775c-.05091938-.07128713-.09165488-.18330976-.16803395-.54992928-.02545969-.10183875-.08656294-.21386138-.1884017-.34115983-.20876944-.24950495-.54483734-.36152758-.88599717-.28514851-.50410184.10693069-.72305516.43790665-.7281471 1.11004243h1.08967468c.16803395 0 .29024046.0407355.36661952.12220651.04073551.04582744.09165488.12729844.08656295.25968882-.01018388.15785008-.09674682.34115983-.45318247.34115983h-1.08458274l.01527581.86053749v.48882602c0 .16803395-.02036775.34115983-.17312588.44299859-.06110325.04582744-.13239038.06619519-.20876945.06619519-.03055162 0-.06110325-.00509194-.08656294-.01018388-.09674682-.02545969-.18330976-.09165488-.2291372-.17821782-.02545969-.05601131-.07128713-.14766619-.07128713-.30551626v-2.06732674c0-1.308628.71287129-1.74144271 1.31371995-1.87383309.11711456-.02545969.22404526-.035688.36152758-.035688z" fill="#78a22f"/><path d="m25.1898161.75360679c-.3768034-.45318246-.9420085-.71287129-1.553041-.70268741-1.145686.01527581-1.9196605.84526167-1.9196605 2.06732673v3.22319661c0 .14766619.0356435.23422913.0712871.30551626.0458274.08656294.1323904.15275813.2291372.17821782.0254597.00509194.0560113.01018388.0865629.01018388.0763791 0 .1476662-.02036775.2087695-.06619519.1578501-.1069307.1782178-.28514852.1782178-.44299859v-1.46138614h1.1151344c1.0540311 0 1.7719943-.54992927 1.9705799-1.50721357.1171146-.57538897-.0203678-1.15586988-.3869873-1.6039604zm-.3564356 1.22206506c-.0152758.6874116-.5193777 1.16096181-1.232249 1.16096181h-.0152758l-1.0845827-.01527581v-1.06930693c0-.47864215.0712871-.70268741.3004243-.93691655.2240453-.23422914.5193777-.34625177.8707214-.34115983.6874116.01527581 1.1660537.50919378 1.1609618 1.20169731zm5.5807638 1.46647808c-.0101839-.18330976-.0356436-.34625177-.081471-.49391796-.1578501-.54992928-.5295616-1.00820368-1.0438473-1.2933522-.5499293-.30042432-1.1966053-.36661952-1.8178218-.18330976-.8096181.23932108-1.4206506.89108911-1.5886845 1.71089109-.249505 1.23224894.4429985 2.38302688 1.6090523 2.68345121.2138614.05601131.4328147.081471.6466761.081471.325884 0 .6415841-.06619519.9267327-.19349364.2342291-.10693069.4429985-.24950495.6059406-.42263083v.01018388c0 .13748232 0 .21895332.0407355.30042432l.0050919.00509194c.0458274.08656294.1323904.15275813.2291372.17821782.1018388.02545969.2087694.00509194.2953324-.05601131.1578501-.1069307.1833097-.28514852.1833097-.44299859v-1.79745403zm-1.9145686 1.73635078c-.8401698.19349363-1.6192362-.26478077-1.8432815-1.08967468v-.00509194c-.0356436-.1069307-.0509194-.21386139-.0611033-.32079208-.0458274-.7281471.3920793-1.38500707 1.069307-1.59377652.162942-.05091938.3309759-.07637907.4939179-.07637907.3157002 0 .6161245.09165488.8758133.27496464.3920792.27496464.6263084.72305516.6415842 1.227157.0305516.77906648-.4379067 1.4155587-1.1762376 1.58359265zm5.9575672-3.49816125-.1578501.07637907.1578501-.07637907-.005092-.01018387c-.0458274-.08656295-.1323904-.15275814-.2291372-.17821782-.1018387-.02545969-.2087694-.00509194-.2953324.05601131-.1527581.10183876-.1680339.27496464-.1680339.44299859v2.05205092c0 .40226308-.1222065.7281471-.3411598.92164073-.1934937.16803395-.4531825.23422914-.7536068.19349364-.5193777-.07128713-.8045262-.44299859-.8045262-1.04893918v-2.12842999c0-.12729844-.0101839-.21895332-.0509194-.30551627-.0458274-.08656294-.1323904-.15275813-.2291372-.17821782-.1018387-.02545969-.2087694-.00509193-.2953324.05601132-.15785.10693069-.1833097.28514851-.1833097.44299858v2.12842999c0 .85035361.3869872 1.45120226 1.0947666 1.69561528.5448373.18840169 1.140594.09674681 1.553041-.20876945v.01527581c-.0661952.44809052-.2953324.71796323-.7026874.82489392-.2189533.06110325-.4429986.04582744-.6161245-.0407355-.1425742-.07128713-.244413-.15275814-.3055162-.23932108l-.1120227-.14257426-.0712871-.081471c-.0458274-.06110325-.081471-.09165488-.1018388-.10693069l-.0203677-.02036775-.0203678-.01018388c-.1018387-.06110325-.2291372-.06619519-.3360678-.01527581-.1120227.05091937-.1934937.15275813-.2138614.2698727-.0254597.16294201.0407355.30042433.15785.47864215l.005092.00509194c.0865629.1222065.2036775.24441301.3309759.34625176.2749647.21895333.6364922.33097596 1.0183876.33097596.162942 0 .325884-.02036775.488826-.06110325.819802-.20876945 1.2729844-.86562942 1.2729844-1.84837341v-3.33521924c.005092-.15785007-.0407355-.24441301-.0661951-.30042433zm1.3544554-.49391796c-.1120226.11202263-.244413.16803395-.3971711.16803395-.1578501 0-.2902405-.05601132-.3971712-.16803395s-.162942-.24441301-.162942-.39717115c0-.15275813.0560113-.28514851.162942-.39717114.1120226-.11202263.244413-.16294201.3971712-.16294201.15785 0 .2902404.05601132.3971711.16294201.1120226.10693069.162942.23932107.162942.39717114 0 .15275814-.0560113.28514852-.162942.39717115zm-.7434229-.74342291c-.0916549.09674681-.1425743.20876944-.1425743.34115983 0 .13239038.0458275.24950495.1425743.34625176.0967468.09674682.2087694.14257426.3411598.14257426s.249505-.04582744.3411598-.14257426c.0916549-.09674681.1425743-.20876944.1425743-.34625176 0-.13239039-.0458274-.24950495-.1425743-.34115983-.0967468-.09674682-.2087694-.14257426-.3411598-.14257426s-.244413.05091938-.3411598.14257426zm.3309759.03055162c.0763791 0 .1323904.00509194.168034.02036775.0611032.02545969.0967468.07637907.0967468.15785007 0 .05601132-.0203677.09674682-.0611032.12220651-.0203678.01527581-.0509194.02545969-.0916549.03055163.0458274.01018387.081471.03055162.1069307.06110325.0203677.03055163.0356435.06619519.0356435.09674682v.09165488c0 .01527581 0 .02545969.005092.03055162l.0050919.00509194h-.1018387v-.00509194-.07637906c0-.07128713-.0203678-.11711457-.0560114-.14257426-.0254597-.01527581-.0611032-.02036775-.1222065-.02036775h-.0865629v.24441301h-.1120226v-.61612447zm.1171146.10183876c-.0254597-.01527582-.0712871-.02545969-.1323904-.02545969h-.0916548v.22404526h.0967468c.0458274 0 .081471-.00509194.1018387-.01527581.0407355-.01527582.0661952-.05091938.0661952-.09674682 0-.0407355-.0101839-.07128713-.0407355-.08656294z" fill="#685446"/></g></g></svg>