<?xml version="1.0" encoding="UTF-8" standalone="no"?>
<svg
   width="640"
   height="360"
   viewBox="0 0 640 360"
   version="1.1"
   id="svg7766"
   sodipodi:docname="method-afterpay-nl-white-640x360.svg"
   inkscape:version="1.2.1 (9c6d41e4, 2022-07-14)"
   xmlns:inkscape="http://www.inkscape.org/namespaces/inkscape"
   xmlns:sodipodi="http://sodipodi.sourceforge.net/DTD/sodipodi-0.dtd"
   xmlns="http://www.w3.org/2000/svg"
   xmlns:svg="http://www.w3.org/2000/svg">
  <defs
     id="defs7770" />
  <sodipodi:namedview
     id="namedview7768"
     pagecolor="#ffffff"
     bordercolor="#666666"
     borderopacity="1.0"
     inkscape:showpageshadow="2"
     inkscape:pageopacity="0.0"
     inkscape:pagecheckerboard="true"
     inkscape:deskcolor="#d1d1d1"
     showgrid="false"
     inkscape:zoom="0.65555556"
     inkscape:cx="289.0678"
     inkscape:cy="-127.37288"
     inkscape:window-width="1533"
     inkscape:window-height="1051"
     inkscape:window-x="2943"
     inkscape:window-y="477"
     inkscape:window-maximized="0"
     inkscape:current-layer="svg7766" />
  <g
     fill="none"
     fill-rule="evenodd"
     transform="translate(80 132)"
     id="g7764"
     style="fill:#ffffff">
    <path
       fill="#78A22F"
       fill-rule="nonzero"
       d="M33.2673267,1.28995757 C29.533239,0.543140028 25.7312588,0.543140028 22.0650636,1.28995757 C8.69024045,4.00565771 0,14.5968883 0,28.311174 L0,71.2871287 C0,73.0523338 0.203677511,74.2743989 0.746817539,75.2927864 L0.814710042,75.3606789 C1.42574257,76.5148515 2.57991513,77.397454 3.8698727,77.7369165 C5.22772277,78.0763791 6.65346535,77.8048091 7.80763791,76.990099 C10.0480905,75.4964639 10.3196605,72.9165488 10.3196605,71.0834512 L10.3196605,53.7708628 L45.0806223,53.7708628 L45.0806223,71.2192362 C45.0806223,73.3239038 45.6916549,74.5459689 46.0311174,75.2927864 C46.6421499,76.446959 47.7963225,77.3295615 49.0862801,77.669024 C49.4257426,77.7369165 49.8330976,77.8048091 50.2404526,77.8048091 C51.2588402,77.8048091 52.2093352,77.533239 53.0240453,76.9222065 C55.0608204,75.5643564 55.3323904,73.3239038 55.3323904,71.0155587 L55.3323904,28.2432815 C55.2644979,14.5289958 46.6421499,4.00565771 33.2673267,1.28995757 Z M45.0127298,28.3790665 L45.0127298,44.1301273 L10.387553,44.1301273 L10.387553,28.3790665 C10.387553,21.5898161 12.7637907,16.8373409 17.9915134,13.4427157 C21.6577086,10.8628006 26.4780764,9.91230552 31.2305516,10.7949081 C33.5388967,11.2022631 35.5756719,12.0848656 37.3408769,13.3748232 L37.4087694,13.4427157 C42.5685997,16.9052334 45.0127298,21.6577086 45.0127298,28.3790665 Z M158.121641,54.3818953 C157.578501,53.2277228 156.492221,52.3451202 155.270156,51.9377652 C153.980198,51.5304102 152.622348,51.7340877 151.400283,52.3451202 C149.024045,53.4992928 148.548798,56.0792079 148.413013,56.9618105 L148.005658,59.1343706 L147.937765,59.8132956 C146.376238,66.5346535 140.944837,70.2008487 134.019802,69.1824611 C129.538897,68.5035361 123.564356,66.1272984 123.564356,53.7708628 L123.564356,52.9561528 L137.142857,52.9561528 C138.772277,52.9561528 143.72843,52.9561528 143.72843,48.0678925 C143.72843,45.6237624 141.895332,43.5869873 139.722772,43.4512023 C138.704385,43.3154173 137.821782,43.3154173 136.803395,43.3154173 L123.564356,43.3154173 L123.564356,24.5091938 C123.564356,22.7439887 123.360679,21.5219236 122.817539,20.5035361 L122.817539,20.4356436 C122.206506,19.281471 121.052334,18.3988685 119.762376,18.0594059 C118.404526,17.7199434 116.978784,17.9915134 115.824611,18.8062235 C113.787836,20.1640736 113.516266,22.4045262 113.516266,24.7128713 L113.516266,52.7524752 C113.516266,68.7072136 119.287129,76.718529 132.254597,78.8231966 C133.748232,79.0947666 135.241867,79.2305516 136.735502,79.2305516 C146.919378,79.2305516 155.473833,72.9165488 158.189533,62.8684583 C158.393211,62.0537482 158.528996,61.3069307 158.664781,60.5601132 L158.664781,60.4922207 C159.072136,57.572843 158.936351,55.9434229 158.121641,54.3818953 L158.121641,54.3818953 Z M224.452617,41.0070721 C220.107496,24.7807638 203.541726,15.4115983 186.704385,19.6209335 C178.082037,21.7934936 171.089109,27.0212164 167.015559,34.3536068 C162.942008,41.6859972 162.195191,50.4441301 164.910891,58.9985856 C168.984441,71.5586987 180.594059,79.4342291 193.833098,79.4342291 C196.209335,79.4342291 198.721358,79.1626591 201.165488,78.6195191 C204.899576,77.8048091 208.565771,76.2432815 211.824611,74.1386139 C214.268741,72.5091938 216.305516,70.7439887 217.391796,69.3861386 C219.089109,67.3493635 220.107496,65.7199434 219.903819,63.8189533 C219.768034,62.5289958 219.089109,61.3748232 218.070721,60.5601132 C216.984441,59.7454031 215.558699,59.4059406 214.268741,59.6775106 L214.065064,59.7454031 C212.775106,60.1527581 211.756719,60.6958982 210.942008,61.5106082 L210.059406,62.5968883 L208.769448,63.7510608 L208.701556,63.8189533 C205.850071,66.6704385 202.387553,68.6393211 198.653465,69.3861386 C188.537482,71.6944837 178.557284,66.330976 174.891089,56.6902405 C174.619519,55.8755304 174.415842,55.1287129 174.212164,54.4497878 L218.613861,54.4497878 L219.564356,54.3140028 L221.057992,54.2461103 C222.687412,54.1103253 223.909477,53.4992928 224.724187,52.3451202 C226.217822,50.2404526 226.149929,47.1173975 224.452617,41.0070721 L224.452617,41.0070721 Z M174.755304,42.7043847 C178.217822,31.7057992 189.2843,25.7991513 200.41867,29.0579915 C207.411598,31.0947666 212.842999,36.7977369 214.608204,43.9264498 C214.743989,44.4695898 214.879774,45.0127298 214.947666,45.5558699 L174.076379,45.2164074 C174.212164,44.3338048 174.483734,43.5869873 174.755304,42.7043847 L174.755304,42.7043847 Z M254.189533,18.1945985 C264.237624,18.1272984 272.384724,23.8981612 275.915134,33.6746818 L275.915134,33.6746818 L276.118812,34.2857143 C276.322489,34.9646393 276.594059,35.7114569 276.797737,36.5940594 C277.476662,39.9207921 277.816124,43.9264498 274.693069,45.6237624 C272.520509,46.7100424 269.872702,46.2347949 268.379066,44.5374823 L268.379066,44.5374823 L268.175389,44.2659123 C267.496464,43.3154173 266.953324,41.8217822 265.934936,36.9335219 C265.595474,35.5756719 264.780764,34.0141443 263.422914,32.3847242 C260.639321,29.0579915 256.158416,27.5643564 251.609618,28.582744 C244.820368,29.9405941 241.90099,34.4214993 241.90099,43.6548798 L241.90099,43.6548798 L241.9003,71.4423052 C241.89098,73.3846115 241.755841,75.594791 239.796322,76.9222065 C238.981612,77.533239 238.031117,77.8048091 237.01273,77.8048091 C236.605375,77.8048091 236.19802,77.7369165 235.858557,77.669024 C234.5686,77.3295615 233.414427,76.446959 232.803395,75.2927864 C232.328147,74.3422914 231.8529,73.1881188 231.8529,71.2192362 L231.8529,71.2192362 L231.8529,43.6548798 C231.8529,26.2065064 241.35785,20.4356436 249.369165,18.6704385 C250.930693,18.330976 252.424328,18.1945985 254.189533,18.1945985 Z M84.8656294,18.1945985 C94.9137199,18.1272984 103.06082,23.8981612 106.591231,33.6746818 L106.591231,33.6746818 L106.794908,34.2857143 C107.066478,34.9646393 107.270156,35.7114569 107.473833,36.5940594 C108.152758,39.9207921 108.492221,43.9264498 105.301273,45.6237624 C103.128713,46.7100424 100.480905,46.2347949 98.9872702,44.5374823 L98.9872702,44.5374823 L98.7835926,44.2659123 C98.1046676,43.3154173 97.5615276,41.8217822 96.54314,36.9335219 C96.2036775,35.5756719 95.3889675,34.0820368 94.0311174,32.3847242 C91.2475248,29.0579915 86.7666195,27.5643564 82.2178218,28.582744 C75.4964639,30.0084866 72.5770863,34.4214993 72.5091938,43.3833098 L72.5091938,43.3833098 L87.0381895,43.3833098 C89.2786421,43.3833098 90.9080622,43.9264498 91.9264498,45.0127298 C92.4695898,45.6237624 93.1485149,46.7100424 93.0806223,48.4752475 C92.9448373,50.5799151 91.7906648,53.0240453 87.0381895,53.0240453 L87.0381895,53.0240453 L72.5770863,53.0240453 L72.7807638,64.4978784 L72.7807638,71.0155587 C72.7807638,73.2560113 72.5091938,75.5643564 70.4724187,76.9222065 C69.6577086,77.533239 68.7072136,77.8048091 67.688826,77.8048091 C67.281471,77.8048091 66.874116,77.7369165 66.5346535,77.669024 C65.2446959,77.3295615 64.0905233,76.446959 63.4794908,75.2927864 L63.4794908,75.2927864 L63.4794908,75.2248939 C63.1400283,74.5459689 62.5289958,73.3239038 62.5289958,71.2192362 L62.5289958,71.2192362 L62.5289958,43.6548798 C62.5289958,26.2065064 72.0339463,20.4356436 80.0452617,18.6704385 C81.6067893,18.330976 83.0325318,18.1945985 84.8656294,18.1945985 Z"
       id="path7760"
       style="fill:#ffffff" />
    <path
       fill="#685446"
       fill-rule="nonzero"
       d="M335.864215 10.0480905C330.84017 4.00565771 323.304102.543140028 315.157001.678925035 299.881188.882602546 289.561528 11.9490806 289.561528 28.2432815L289.561528 71.2192362C289.561528 73.1881188 290.036775 74.3422914 290.512023 75.2927864 291.123055 76.446959 292.277228 77.3295615 293.567185 77.669024 293.906648 77.7369165 294.314003 77.8048091 294.721358 77.8048091 295.739745 77.8048091 296.69024 77.533239 297.50495 76.9222065 299.609618 75.4964639 299.881188 73.1202263 299.881188 71.0155587L299.881188 51.5304102 314.749646 51.5304102C328.803395 51.5304102 338.376238 44.1980198 341.024045 31.4342291 342.585573 23.7623762 340.752475 16.0226308 335.864215 10.0480905L335.864215 10.0480905zM331.11174 26.3422914C330.908062 35.5077793 324.186704 41.8217822 314.681754 41.8217822L314.478076 41.8217822 300.016973 41.6181047 300.016973 27.3606789C300.016973 20.9787836 300.967468 17.9915134 304.022631 14.8684583 307.009901 11.7454031 310.947666 10.251768 315.632249 10.3196605 324.797737 10.523338 331.179632 17.1089109 331.11174 26.3422914zM405.521924 45.8953324C405.386139 43.4512023 405.046676 41.2786421 404.435644 39.3097595 402.330976 31.9773692 397.374823 25.8670438 390.51768 22.0650636 383.18529 18.0594059 374.562942 17.1768034 366.280057 19.6209335 355.485149 22.8118812 347.338048 31.5021216 345.097595 42.4328147 341.770863 58.8628006 351.004243 74.2065064 366.551627 78.2121641 369.403112 78.9589816 372.322489 79.2984441 375.173975 79.2984441 379.519095 79.2984441 383.72843 78.4158416 387.53041 76.718529 390.653465 75.2927864 393.437058 73.3917963 395.609618 71.0834512L395.609618 71.2192362C395.609618 73.0523338 395.609618 74.1386139 396.152758 75.2248939L396.220651 75.2927864C396.831683 76.446959 397.985856 77.3295615 399.275813 77.669024 400.633663 78.0084866 402.059406 77.7369165 403.213579 76.9222065 405.318246 75.4964639 405.657709 73.1202263 405.657709 71.0155587L405.657709 47.049505 405.521924 45.8953324 405.521924 45.8953324zM379.994342 69.0466761C368.792079 71.6265912 358.404526 65.5162659 355.417256 54.5176803L355.417256 54.4497878C354.942008 53.0240453 354.738331 51.5983027 354.602546 50.1725601 353.991513 40.4639321 359.830269 31.7057992 368.859972 28.9222065 371.032532 28.2432815 373.272984 27.903819 375.445545 27.903819 379.65488 27.903819 383.660537 29.125884 387.123055 31.5700141 392.350778 35.2362093 395.473833 41.2107496 395.677511 47.9321075 396.084866 58.3196605 389.838755 66.8062235 379.994342 69.0466761zM459.428571 22.4045262L457.323904 23.4229137 459.428571 22.4045262 459.360679 22.2687412C458.749646 21.1145686 457.595474 20.2319661 456.305516 19.8925035 454.947666 19.553041 453.521924 19.824611 452.367751 20.6393211 450.330976 21.9971711 450.127298 24.3055163 450.127298 26.5459689L450.127298 53.9066478C450.127298 59.2701556 448.497878 63.6152758 445.578501 66.1951909 442.998586 68.4356436 439.536068 69.3182461 435.53041 68.7751061 428.605375 67.824611 424.803395 62.8684583 424.803395 54.7892504L424.803395 26.4101839C424.803395 24.7128713 424.66761 23.4908062 424.12447 22.3366337 423.513437 21.1824611 422.359264 20.2998586 421.069307 19.960396 419.711457 19.6209335 418.285714 19.8925035 417.131542 20.7072136 415.026874 22.1329562 414.687412 24.5091938 414.687412 26.6138614L414.687412 54.9929279C414.687412 66.330976 419.847242 74.3422914 429.2843 77.6011315 436.548798 80.1131542 444.492221 78.8910891 449.991513 74.8175389L449.991513 75.0212164C449.108911 80.9957567 446.053748 84.5940594 440.622348 86.019802 437.70297 86.834512 434.7157 86.6308345 432.407355 85.476662 430.506365 84.5261669 429.148515 83.4398868 428.333805 82.2857143L426.84017 80.3847242 425.889675 79.2984441C425.278642 78.4837341 424.803395 78.0763791 424.531825 77.8727016L424.260255 77.6011315 423.988685 77.4653465C422.630835 76.6506365 420.933522 76.582744 419.507779 77.261669 418.014144 77.9405941 416.927864 79.2984441 416.656294 80.8599717 416.316832 83.0325318 417.199434 84.8656294 418.760962 87.241867L418.828854 87.3097595C419.983027 88.9391796 421.544554 90.5685997 423.241867 91.9264498 426.908062 94.8458274 431.72843 96.3394625 436.820368 96.3394625 438.992928 96.3394625 441.165488 96.0678925 443.338048 95.5247525 454.268741 92.7411598 460.311174 83.9830269 460.311174 70.8797737L460.311174 26.4101839C460.379066 24.3055163 459.768034 23.1513437 459.428571 22.4045262L459.428571 22.4045262zM477.487977 15.8189533C475.994342 17.3125884 474.229137 18.0594059 472.192362 18.0594059 470.087694 18.0594059 468.322489 17.3125884 466.896747 15.8189533 465.471004 14.3253182 464.724187 12.5601132 464.724187 10.523338 464.724187 8.48656294 465.471004 6.72135785 466.896747 5.22772277 468.390382 3.73408769 470.155587 3.05516266 472.192362 3.05516266 474.29703 3.05516266 476.062235 3.8019802 477.487977 5.22772277 478.981612 6.65346535 479.660537 8.41867044 479.660537 10.523338 479.660537 12.5601132 478.91372 14.3253182 477.487977 15.8189533L477.487977 15.8189533zM467.575672 5.90664781C466.353607 7.19660537 465.674682 8.69024045 465.674682 10.4554455 465.674682 12.2206506 466.285714 13.7821782 467.575672 15.0721358 468.865629 16.3620934 470.359264 16.9731259 472.12447 16.9731259 473.889675 16.9731259 475.451202 16.3620934 476.673267 15.0721358 477.895332 13.7821782 478.574257 12.2885431 478.574257 10.4554455 478.574257 8.69024045 477.963225 7.12871287 476.673267 5.90664781 475.38331 4.61669024 473.889675 4.00565771 472.12447 4.00565771 470.359264 4.00565771 468.865629 4.68458274 467.575672 5.90664781L467.575672 5.90664781zM471.988685 6.31400283C473.007072 6.31400283 473.75389 6.38189533 474.229137 6.58557284 475.043847 6.92503536 475.519095 7.6039604 475.519095 8.69024045 475.519095 9.43705799 475.247525 9.98019802 474.704385 10.3196605 474.432815 10.523338 474.02546 10.6591231 473.48232 10.7270156 474.093352 10.8628006 474.5686 11.1343706 474.908062 11.5417256 475.179632 11.9490806 475.38331 12.4243281 475.38331 12.8316832L475.38331 14.0537482C475.38331 14.2574257 475.38331 14.3932107 475.451202 14.4611033L475.519095 14.5289958 474.161245 14.5289958 474.161245 14.4611033 474.161245 13.4427157C474.161245 12.4922207 473.889675 11.8811881 473.414427 11.5417256 473.074965 11.3380481 472.599717 11.2701556 471.785007 11.2701556L470.630835 11.2701556 470.630835 14.5289958 469.137199 14.5289958 469.137199 6.31400283 471.988685 6.31400283zM473.550212 7.6718529C473.21075 7.46817539 472.599717 7.33239038 471.785007 7.33239038L470.562942 7.33239038 470.562942 10.3196605 471.8529 10.3196605C472.463932 10.3196605 472.93918 10.251768 473.21075 10.115983 473.75389 9.91230552 474.093352 9.43705799 474.093352 8.82602546 474.093352 8.28288543 473.957567 7.87553041 473.550212 7.6718529L473.550212 7.6718529z"
       id="path7762"
       style="fill:#ffffff" />
  </g>
</svg>
