<svg xmlns="http://www.w3.org/2000/svg" xml:space="preserve" viewBox="0 0 21.5 43"><path d="M16.1 5.4 14.7 8h-.6l1.4-2.6H14V5h2.2v.4zm-2.8 1.7c0 .6-.4 1-1.1 1-.5 0-.9-.2-1.2-.5l.4-.4c.2.3.5.4.8.4s.5-.2.5-.5-.3-.5-.7-.5h-.3l-.1-.3.8-.9h-1.3V5h2v.4l-.9.9c.6 0 1.1.2 1.1.8m-2.8-1.7L9.1 8h-.6l1.4-2.6H8.3V5h2.2zM7.4 8h-.5V5.5l-.6.1-.1-.4.8-.3h.4zm11-6.3H4.2s-1.7 0-1.7 1.4V39s0 1.4 1.7 1.4h6.2v-6.7c0-.2 0-.4-.1-.5-.2-.2-.4-.3-.6-.4-.7-.5-1.5-1.1-2.2-1.9-.6-.8-1.1-1.8-1.4-3.1-.2-.8-.1-1.7.2-2.3.1-.3.3-.5.5-.7s.2-.5 0-.8c-.2-.4-.4-.8-.5-1.3-.1-.4-.2-.9-.1-1.3.1-.5.3-.9.5-1.1.3-.3.6-.3.8-.7-.2-.7-.4-1.3-.4-2.2 0-.3 0-.7.1-1 .2-.6.6-.7.9-.9.2-.1.3-.1.5-.2s.2-.1.2-.5c0-1.6.2-3 1-3.8.4-.4.9-.5 1.4-.5s1 .1 1.5.5c.9.8 1.1 2.3 1.1 3.8 0 .3 0 .4.2.5s.3.1.5.2c.3.2.7.3.9.9.1.3.1.6.1 1 0 .9-.2 1.4-.4 2.2.2.4.5.4.8.7.2.3.5.6.5 1.1.1.4 0 .9-.1 1.3-.1.5-.3.9-.5 1.3-.1.3-.1.6.1.8s.4.4.5.7c.3.6.4 1.5.3 2.3-.3 1.3-.8 2.3-1.5 3.1s-1.5 1.4-2.3 1.9c-.2.1-.4.3-.7.4-.2.1-.2.4-.2.5v6.7h6.4s1.7 0 1.7-1.4V3.1c-.1 0-.1-1.4-1.7-1.4" style="fill:#00585a"/></svg>