<svg xmlns="http://www.w3.org/2000/svg" width="32" height="24" fill="none" viewBox="0 0 32 24"><rect width="32" height="24" fill="#006568" rx="4"/><path fill="#fff" d="M20.11 3.088h-8.126s-1.625 0-1.625 1.625v14.624c0 1.625 1.625 1.625 1.625 1.625h3.657V16.9c0-.812-1.534-1.075-1.828-1.412-.391-.447-.727-1.005-.838-1.731-.056-.447-.056-.95.111-1.285.056-.168.168-.28.28-.391.111-.112.111-.28.056-.447-.112-.223-.224-.447-.28-.726-.056-.224-.112-.503-.056-.726.056-.28.168-.503.28-.615.111-.167.279-.167.39-.39-.111-.392-.223-.727-.223-1.23 0-.167 0-.39.056-.558.112-.335.335-.391.503-.503.112-.056.167-.056.28-.112.11-.056.11-.056.11-.279 0-.894.113-1.676.56-2.123.223-.223.502-.279.781-.279.28 0 .559.056.838.28.503.446.615 1.284.615 2.122 0 .168 0 .223.111.28.112.055.168.055.28.111.167.112.39.168.503.503.055.167.055.335.055.558 0 .503-.111.782-.223 1.23.112.223.28.223.447.39.112.168.28.335.28.615.055.223 0 .502-.057.726-.056.28-.167.503-.279.726-.056.168-.056.335.056.447s.223.223.28.39c.167.336.223.839.167 1.286-.224.726-.503 1.284-.894 1.731-.265.304-1.549.6-1.549 1.412v4.063h3.656s1.625 0 1.625-1.626V4.713c0-1.626-1.625-1.625-1.625-1.625"/></svg>