<svg xmlns="http://www.w3.org/2000/svg" xmlns:xlink="http://www.w3.org/1999/xlink" width="640" height="360"><defs><path id="a" d="M480 60V0H0v60z"/><path id="c" d="M480 60V0H0v60z"/><path id="e" d="M480 60V0H0v60z"/><path id="g" d="M480 60V0H0v60z"/><path id="i" d="M480 60V0H0v60z"/><path id="k" d="M480 60V0H0v60z"/><path id="m" d="M480 60V0H0v60z"/><path id="o" d="M480 60V0H0v60z"/></defs><g fill="none" fill-rule="evenodd" transform="translate(80 150)"><mask id="b" fill="#fff"><use xlink:href="#a"/></mask><path fill="#1A1919" fill-rule="nonzero" d="M8.927 50.882h11.205q7.105.086 9.974-2.41t3.233-5.509q.092-.343.093-.645v-.644q-.002-4.044-3.371-6.584-3.371-2.538-10.385-2.539H8.926zm0-25.869h5.922q6.648.086 9.883-2.238 3.233-2.325 3.234-7.06 0-3.27-2.323-5.724-2.323-2.453-8.517-2.453h-8.2zM0 0h18.036c6.56.058 11.355 1.584 14.394 4.583q4.551 4.497 4.736 9.894v.513q0 4.542-2.322 7.581-2.326 3.043-7.152 4.926v.085q7.016 1.286 10.977 5.354 3.963 4.07 3.963 9.98 0 .685-.046 1.371a7.3 7.3 0 0 1-.228 1.37c-.67 3.2-2.642 6.124-5.92 8.78q-4.92 3.984-15.123 3.984H0z" mask="url(#b)" style="fill:#fff"/><mask id="d" fill="#fff"><use xlink:href="#c"/></mask><path fill="#1A1919" d="M102.632 35.947q0 10.943-6.702 17.495Q89.226 60.001 75.735 60q-9.588 0-17.397-5.515-7.812-5.512-7.812-17.583V0h8.699v34.992q0 5.126.8 7.686.798 2.562 2.84 4.557a17 17 0 0 0 5.857 3.778q3.284 1.259 7.192 1.258 4.97.001 8.565-1.39 3.596-1.388 5.637-3.385c1.538-1.504 2.558-3.345 3.062-5.514q.754-3.256.755-7.424V0h8.699z" mask="url(#d)" style="fill:#fff"/><mask id="f" fill="#fff"><use xlink:href="#e"/></mask><path fill="#1A1919" d="M168.318 4.721v9.013a78 78 0 0 0-6.873-3.22 38.3 38.3 0 0 0-6.604-2.016 58 58 0 0 0-3.774-.558 34 34 0 0 0-3.865-.215q-10.513.002-17.478 6.352-6.963 6.355-6.962 16.05-.001 9.873 6.874 16.052 6.873 6.18 17.926 6.18 2.607.002 5.3-.43a37 37 0 0 0 5.394-1.285 52 52 0 0 0 5.39-2.062 43 43 0 0 0 5.301-2.832v9.1q-4.493 2.317-9.749 3.733T146.753 60q-13.569 0-21.296-6.483c-5.154-4.318-8.598-9.084-10.334-14.29q-.72-2.145-1.077-4.249a24 24 0 0 1-.362-4.077q0-13.39 9.482-22.145Q132.643 0 147.293 0q4.762 0 9.748 1.16 4.989 1.158 11.277 3.647z" mask="url(#f)" style="fill:#fff"/><mask id="h" fill="#fff"><use xlink:href="#g"/></mask><path fill="#1A1919" d="M232.105 58.421h-11.76l-30.23-28.868v28.868h-8.536V0h8.536v26.726L215.118 0h10.628l-25.873 27.668z" mask="url(#h)" style="fill:#fff"/><mask id="j" fill="#fff"><use xlink:href="#i"/></mask><path fill="#1A1919" fill-rule="nonzero" d="M303.777 25.527h5.473q6.78.086 9.212-2.783c1.62-1.913 2.434-4.07 2.434-6.469v-.17q-.089-4.153-2.782-6.532-2.694-2.376-8.864-2.377h-5.473zM310.21 0q9.034.086 14.246 4.455 5.216 4.369 5.214 11.992 0 5.055-2.561 8.736-2.565 3.685-7.344 5.57 2.52 1.627 4.563 3.853 2.038 2.228 3.952 5.055 1.13 1.627 2.304 3.468c.781 1.229 1.575 2.5 2.39 3.814a144 144 0 0 0 .997 1.625 18 18 0 0 0 1 1.458q.086.171.217.385a2 2 0 0 0 .305.385 88 88 0 0 0 2.347 3.298c.866 1.171 1.94 2.612 3.214 4.327h-10.169l-7.817-11.994q-4.954-7.536-7.995-10.15-3.041-2.613-5.734-2.955a14 14 0 0 0-1-.128 11 11 0 0 0-.997-.043h-3.564v25.27h-8.514V0z" mask="url(#j)" style="fill:#fff"/><mask id="l" fill="#fff"><use xlink:href="#k"/></mask><path fill="#1A1919" fill-rule="nonzero" d="M349.972 29.957q0 9.702 6.669 16.051c4.444 4.237 10.022 6.351 16.736 6.351 6.771 0 12.376-2.114 16.823-6.351q6.669-6.35 6.668-15.965 0-9.7-6.668-16.008c-4.447-4.206-10.052-6.31-16.823-6.31q-10.07 0-16.736 6.31-6.669 6.307-6.669 16.008zm-8.92 0q0-12.103 8.833-21.03C355.77 2.977 363.603 0 373.377 0q14.922 0 23.666 8.884t8.746 21.16c0 7.895-2.888 14.863-8.656 20.899Q388.477 60 373.198 60c-9.834 0-17.646-3.005-23.446-9.014q-8.702-9.013-8.7-20.943z" mask="url(#l)" style="fill:#fff"/><mask id="n" fill="#fff"><use xlink:href="#m"/></mask><path fill="#1A1919" fill-rule="nonzero" d="M424.185 29.957q-.001 9.702 6.665 16.051c4.445 4.237 10.025 6.351 16.74 6.351 6.768 0 12.374-2.114 16.822-6.351q6.667-6.35 6.667-15.965 0-9.7-6.667-16.008-6.67-6.31-16.823-6.31-10.071 0-16.739 6.31-6.666 6.307-6.665 16.008zm-8.922 0q-.001-12.103 8.832-21.03Q432.925 0 447.589 0q14.923 0 23.668 8.884Q480 17.77 480 30.044q0 11.844-8.655 20.899Q462.685 60 447.41 60q-14.748 0-23.445-9.014-8.702-9.013-8.702-20.943z" mask="url(#n)" style="fill:#fff"/><mask id="p" fill="#fff"><use xlink:href="#o"/></mask><path fill="#D1CE27" fill-rule="nonzero" d="M270.906 25.277h-18.567l9.633 21.604zM232.106 0h8.758l7.971 17.58h25.401L281.77 0h8.757l-25.661 60h-6.046z" mask="url(#p)" style="fill:#fff"/></g></svg>