<?xml version="1.0" encoding="UTF-8"?>
<svg width="640px" height="360px" viewBox="0 0 640 360" xmlns="http://www.w3.org/2000/svg" xmlns:xlink="http://www.w3.org/1999/xlink" version="1.1">
 <!-- Generated by Pixelmator Pro 2.3 -->
 <g id="TWINT">
  <path id="Path" d="M568.983 277.091 L71.104 277.091 C67.147 277.091 64 273.943 64 269.986 L64 90.105 C64 86.148 67.147 83 71.104 83 L568.893 83 C572.849 83 575.998 86.148 575.998 90.105 L575.998 269.986 C576.086 273.943 572.849 277.091 568.983 277.091 Z" fill="#000000" fill-opacity="1" stroke="none"/>
  <path id="Path-1" d="M224.627 214.809 C224.627 216.679 223.282 218.995 221.668 219.886 L164.005 252.931 C162.391 253.911 159.7 253.911 158.086 252.931 L100.423 219.886 C98.809 218.906 97.464 216.679 97.464 214.809 L97.464 148.629 C97.464 146.758 98.809 144.442 100.423 143.551 L158.086 110.506 C159.7 109.526 162.391 109.526 164.005 110.506 L221.668 143.551 C223.282 144.531 224.627 146.758 224.627 148.629 Z" fill="#ffffff" fill-opacity="1" stroke="none"/>
  <g id="group">
   <path id="Path-2" d="M541.995 152.217 L490.193 152.217 490.193 164.281 508.719 164.281 508.719 216.063 523.38 216.063 523.38 164.281 541.995 164.281 Z" fill="#ffffff" fill-opacity="1" stroke="none"/>
   <path id="Path-3" d="M306.727 152.217 L254.925 152.217 254.925 164.281 273.541 164.281 273.541 216.063 288.202 216.063 288.202 164.281 306.727 164.281 Z" fill="#ffffff" fill-opacity="1" stroke="none"/>
   <path id="Path-4" d="M456.647 150.192 C440.369 150.192 431.286 160.407 431.286 175.114 L431.286 216.063 445.765 216.063 445.765 174.762 C445.765 168.333 449.632 163.402 456.827 163.402 463.932 163.402 467.799 169.214 467.799 174.762 L467.799 216.063 482.278 216.063 482.278 175.114 C482.278 160.407 472.925 150.192 456.647 150.192 Z" fill="#ffffff" fill-opacity="1" stroke="none"/>
   <path id="Path-5" d="M401.879 152.217 L401.879 216.063 416.446 216.063 416.446 152.217 Z" fill="#ffffff" fill-opacity="1" stroke="none"/>
   <path id="Path-6" d="M352.774 177.579 L353.312 180.397 366.892 216.063 372.829 216.063 391.354 152.217 377.055 152.217 368.15 185.771 367.702 189.378 366.982 185.771 355.109 152.217 350.435 152.217 338.652 185.771 337.932 189.378 337.394 185.771 328.579 152.217 314.28 152.217 332.809 216.063 338.742 216.063 352.322 180.397 Z" fill="#ffffff" fill-opacity="1" stroke="none"/>
  </g>
  <g id="group-1">
   <defs>
    <radialGradient id="radial-gradient" gradientUnits="userSpaceOnUse" cx="200.628" cy="231.494" r="144.851" fx="200.628" fy="231.494">
     <stop offset="0" stop-color="#ffcc00" stop-opacity="1"/>
     <stop offset="0.092" stop-color="#ffc800" stop-opacity="1"/>
     <stop offset="0.174" stop-color="#ffbd00" stop-opacity="1"/>
     <stop offset="0.253" stop-color="#ffab00" stop-opacity="1"/>
     <stop offset="0.33" stop-color="#ff9100" stop-opacity="1"/>
     <stop offset="0.405" stop-color="#ff7000" stop-opacity="1"/>
     <stop offset="0.479" stop-color="#ff4700" stop-opacity="1"/>
     <stop offset="0.55" stop-color="#ff1800" stop-opacity="1"/>
     <stop offset="0.582" stop-color="#ff0000" stop-opacity="1"/>
     <stop offset="1" stop-color="#ff0000" stop-opacity="1"/>
    </radialGradient>
   </defs>
   <path id="Path-7" d="M187.826 180.474 L173.033 201.582 165.415 190.256 174.185 177.557 C175.779 175.326 179.323 169.062 175.248 160.568 171.97 153.703 164.884 150.357 158.683 150.357 152.483 150.357 145.662 153.446 142.119 160.568 138.044 168.719 141.587 175.155 143.093 177.3 143.093 177.3 147.965 184.25 152.04 190.085 L158.683 199.352 168.604 214.024 C168.693 214.11 170.287 216.427 173.033 216.427 175.691 216.427 177.285 214.11 177.551 213.853 L200.848 180.474 Z M158.683 180.989 C158.683 180.989 154.786 175.24 152.305 171.293 149.559 167.003 152.66 160.653 158.683 160.653 164.795 160.653 167.807 167.003 165.061 171.293 162.581 175.326 158.683 180.989 158.683 180.989 Z" fill-opacity="1" fill="url(#radial-gradient)" stroke="none"/>
   <defs>
    <radialGradient id="radial-gradient-1" gradientUnits="userSpaceOnUse" cx="159.26" cy="203.699" r="110.184" fx="159.26" fy="203.699">
     <stop offset="0" stop-color="#00b4e6" stop-opacity="1"/>
     <stop offset="0.201" stop-color="#00b0e3" stop-opacity="1"/>
     <stop offset="0.39" stop-color="#01a5db" stop-opacity="1"/>
     <stop offset="0.574" stop-color="#0292cd" stop-opacity="1"/>
     <stop offset="0.755" stop-color="#0377ba" stop-opacity="1"/>
     <stop offset="0.932" stop-color="#0455a1" stop-opacity="1"/>
     <stop offset="1" stop-color="#054696" stop-opacity="1"/>
    </radialGradient>
   </defs>
   <path id="Path-8" d="M144.333 200.896 L129.717 181.075 C129.717 181.075 125.82 175.326 123.339 171.379 120.593 167.089 123.694 160.739 129.717 160.739 130.515 160.739 131.223 160.825 131.843 160.997 L136.981 151.901 C134.589 150.958 132.109 150.443 129.717 150.443 123.517 150.443 116.696 153.532 113.153 160.653 109.078 168.805 112.621 175.24 114.127 177.385 L139.638 214.024 C139.816 214.367 141.499 216.684 144.156 216.684 146.902 216.684 148.408 214.453 148.674 214.11 L156.38 202.784 149.737 193.345 Z" fill-opacity="1" fill="url(#radial-gradient-1)" stroke="none"/>
  </g>
 </g>
</svg>
