<svg height="32" viewBox="0 0 51 32" width="51" xmlns="http://www.w3.org/2000/svg" xmlns:xlink="http://www.w3.org/1999/xlink"><radialGradient id="a" cx="20.405" cy="18.843" gradientUnits="userSpaceOnUse" r="6.79"><stop offset="0" stop-color="#fc0"/><stop offset=".092" stop-color="#ffc800"/><stop offset=".174" stop-color="#ffbd00"/><stop offset=".253" stop-color="#ffab00"/><stop offset=".33" stop-color="#ff9100"/><stop offset=".405" stop-color="#ff7000"/><stop offset=".479" stop-color="#ff4700"/><stop offset=".55" stop-color="#ff1800"/><stop offset=".582" stop-color="#f00"/><stop offset="1" stop-color="#f00"/></radialGradient><radialGradient id="b" cx="18.466" cy="17.54" gradientUnits="userSpaceOnUse" r="5.165"><stop offset="0" stop-color="#00b4e6"/><stop offset=".201" stop-color="#00b0e3"/><stop offset=".39" stop-color="#01a5db"/><stop offset=".574" stop-color="#0292cd"/><stop offset=".755" stop-color="#0377ba"/><stop offset=".932" stop-color="#0455a1"/><stop offset="1" stop-color="#054696"/></radialGradient><path d="m.5.5h50v31h-50z" fill="#fff" stroke="#d0d0d0" stroke-linecap="round" stroke-linejoin="round"/><path d="m37.672 20.98h-23.339c-.185 0-.332-.147-.332-.333v-8.431c0-.186.147-.334.332-.334h23.334c.186 0 .333.148.333.334v8.431c.005.186-.147.333-.328.333z"/><g fill="#fff"><path d="m21.53 18.061c0 .088-.063.196-.139.238l-2.703 1.549c-.075.046-.202.046-.277 0l-2.703-1.549c-.076-.046-.139-.15-.139-.238v-3.102c0-.088.063-.196.139-.238l2.703-1.549c.075-.046.202-.046.277 0l2.703 1.549c.076.046.139.15.139.238z"/><path d="m36.407 15.127h-2.429v.565h.869v2.428h.687v-2.428h.873z"/><path d="m25.378 15.127h-2.428v.565h.873v2.428h.687v-2.428h.868z"/><path d="m32.406 15.032c-.763 0-1.189.479-1.189 1.168v1.92h.679v-1.936c0-.302.181-.533.518-.533.333 0 .515.273.515.533v1.936h.678v-1.92c0-.689-.438-1.168-1.201-1.168z"/><path d="m29.839 15.127v2.993h.682v-2.993z"/><path d="m27.537 16.316.025.132.637 1.672h.278l.868-2.993h-.67l-.417 1.573-.021.169-.034-.169-.557-1.573h-.219l-.552 1.573-.034.169-.025-.169-.413-1.573h-.671l.869 2.993h.278l.637-1.672z"/></g><path d="m19.805 16.452-.694.989-.357-.531.411-.595c.075-.105.241-.398.05-.797-.153-.321-.486-.478-.776-.478-.291 0-.611.145-.777.478-.191.383-.025.684.046.785 0 0 .228.326.419.599l.312.434.465.688c.004.004.079.113.207.113.125 0 .2-.109.212-.121l1.092-1.564zm-1.366.024s-.183-.27-.299-.455c-.129-.201.016-.499.299-.499.286 0 .427.298.299.499-.117.189-.299.455-.299.455z" fill="url(#a)"/><path d="m17.766 17.409-.685-.929s-.183-.27-.299-.455c-.129-.201.017-.499.299-.499.037 0 .071.005.1.013l.24-.427c-.112-.044-.228-.068-.34-.068-.291 0-.61.145-.776.478-.191.383-.025.684.045.785l1.196 1.717c.008.016.087.125.212.125.129 0 .199-.105.212-.121l.361-.531-.312-.442z" fill="url(#b)"/></svg>