<?xml version="1.0" encoding="UTF-8"?>
<svg width="51px" height="32px" viewBox="0 0 51 32" xmlns="http://www.w3.org/2000/svg" xmlns:xlink="http://www.w3.org/1999/xlink" version="1.1">
 <!-- Generated by Pixelmator Pro 2.3 -->
 <g id="group">
  <path id="Path" d="M0.5 0.5 L50.5 0.5 50.5 31.5 0.5 31.5 Z" fill="#ffffff" fill-opacity="1" stroke="#d0d0d0" stroke-width="1" stroke-opacity="1" stroke-linejoin="round" stroke-linecap="round"/>
  <g id="TWINT">
   <path id="Path-1" d="M37.672 20.98 L14.333 20.98 C14.148 20.98 14.001 20.833 14.001 20.647 L14.001 12.216 C14.001 12.03 14.148 11.882 14.333 11.882 L37.667 11.882 C37.853 11.882 38 12.03 38 12.216 L38 20.647 C38.005 20.833 37.853 20.98 37.672 20.98 Z" fill="#000000" fill-opacity="1" stroke="none"/>
   <path id="Path-2" d="M21.53 18.061 C21.53 18.149 21.467 18.257 21.391 18.299 L18.688 19.848 C18.613 19.894 18.486 19.894 18.411 19.848 L15.708 18.299 C15.632 18.253 15.569 18.149 15.569 18.061 L15.569 14.959 C15.569 14.871 15.632 14.763 15.708 14.721 L18.411 13.172 C18.486 13.126 18.613 13.126 18.688 13.172 L21.391 14.721 C21.467 14.767 21.53 14.871 21.53 14.959 Z" fill="#ffffff" fill-opacity="1" stroke="none"/>
   <g id="group-1">
    <path id="Path-3" d="M36.407 15.127 L33.978 15.127 33.978 15.692 34.847 15.692 34.847 18.12 35.534 18.12 35.534 15.692 36.407 15.692 Z" fill="#ffffff" fill-opacity="1" stroke="none"/>
    <path id="Path-4" d="M25.378 15.127 L22.95 15.127 22.95 15.692 23.823 15.692 23.823 18.12 24.51 18.12 24.51 15.692 25.378 15.692 Z" fill="#ffffff" fill-opacity="1" stroke="none"/>
    <path id="Path-5" d="M32.406 15.032 C31.643 15.032 31.217 15.511 31.217 16.2 L31.217 18.12 31.896 18.12 31.896 16.184 C31.896 15.882 32.077 15.651 32.414 15.651 32.747 15.651 32.929 15.924 32.929 16.184 L32.929 18.12 33.607 18.12 33.607 16.2 C33.607 15.511 33.169 15.032 32.406 15.032 Z" fill="#ffffff" fill-opacity="1" stroke="none"/>
    <path id="Path-6" d="M29.839 15.127 L29.839 18.12 30.521 18.12 30.521 15.127 Z" fill="#ffffff" fill-opacity="1" stroke="none"/>
    <path id="Path-7" d="M27.537 16.316 L27.562 16.448 28.199 18.12 28.477 18.12 29.345 15.127 28.675 15.127 28.258 16.7 28.237 16.869 28.203 16.7 27.646 15.127 27.427 15.127 26.875 16.7 26.841 16.869 26.816 16.7 26.403 15.127 25.732 15.127 26.601 18.12 26.879 18.12 27.516 16.448 Z" fill="#ffffff" fill-opacity="1" stroke="none"/>
   </g>
   <g id="group-2">
    <defs>
     <radialGradient id="radial-gradient" gradientUnits="userSpaceOnUse" cx="20.405" cy="18.843" r="6.79" fx="20.405" fy="18.843">
      <stop offset="0" stop-color="#ffcc00" stop-opacity="1"/>
      <stop offset="0.092" stop-color="#ffc800" stop-opacity="1"/>
      <stop offset="0.174" stop-color="#ffbd00" stop-opacity="1"/>
      <stop offset="0.253" stop-color="#ffab00" stop-opacity="1"/>
      <stop offset="0.33" stop-color="#ff9100" stop-opacity="1"/>
      <stop offset="0.405" stop-color="#ff7000" stop-opacity="1"/>
      <stop offset="0.479" stop-color="#ff4700" stop-opacity="1"/>
      <stop offset="0.55" stop-color="#ff1800" stop-opacity="1"/>
      <stop offset="0.582" stop-color="#ff0000" stop-opacity="1"/>
      <stop offset="1" stop-color="#ff0000" stop-opacity="1"/>
     </radialGradient>
    </defs>
    <path id="Path-8" d="M19.805 16.452 L19.111 17.441 18.754 16.91 19.165 16.315 C19.24 16.21 19.406 15.917 19.215 15.518 19.062 15.197 18.729 15.04 18.439 15.04 18.148 15.04 17.828 15.185 17.662 15.518 17.471 15.901 17.637 16.202 17.708 16.303 17.708 16.303 17.936 16.629 18.127 16.902 L18.439 17.336 18.904 18.024 C18.908 18.028 18.983 18.137 19.111 18.137 19.236 18.137 19.311 18.028 19.323 18.016 L20.415 16.452 Z M18.439 16.476 C18.439 16.476 18.256 16.206 18.14 16.021 18.011 15.82 18.156 15.522 18.439 15.522 18.725 15.522 18.866 15.82 18.738 16.021 18.621 16.21 18.439 16.476 18.439 16.476 Z" fill-opacity="1" fill="url(#radial-gradient)" stroke="none"/>
    <defs>
     <radialGradient id="radial-gradient-1" gradientUnits="userSpaceOnUse" cx="18.466" cy="17.54" r="5.165" fx="18.466" fy="17.54">
      <stop offset="0" stop-color="#00b4e6" stop-opacity="1"/>
      <stop offset="0.201" stop-color="#00b0e3" stop-opacity="1"/>
      <stop offset="0.39" stop-color="#01a5db" stop-opacity="1"/>
      <stop offset="0.574" stop-color="#0292cd" stop-opacity="1"/>
      <stop offset="0.755" stop-color="#0377ba" stop-opacity="1"/>
      <stop offset="0.932" stop-color="#0455a1" stop-opacity="1"/>
      <stop offset="1" stop-color="#054696" stop-opacity="1"/>
     </radialGradient>
    </defs>
    <path id="Path-9" d="M17.766 17.409 L17.081 16.48 C17.081 16.48 16.898 16.21 16.782 16.025 16.653 15.824 16.799 15.526 17.081 15.526 17.118 15.526 17.152 15.531 17.181 15.539 L17.421 15.112 C17.309 15.068 17.193 15.044 17.081 15.044 16.79 15.044 16.471 15.189 16.305 15.522 16.114 15.905 16.28 16.206 16.35 16.307 L17.546 18.024 C17.554 18.04 17.633 18.149 17.758 18.149 17.887 18.149 17.957 18.044 17.97 18.028 L18.331 17.497 18.019 17.055 Z" fill-opacity="1" fill="url(#radial-gradient-1)" stroke="none"/>
   </g>
  </g>
 </g>
</svg>
