<svg xmlns="http://www.w3.org/2000/svg" xmlns:xlink="http://www.w3.org/1999/xlink" width="51" height="32" viewBox="0 0 51 32">
  <defs>
    <polygon id="icon-51-32-a" points="0 0 13.822 0 13.822 14.485 0 14.485"/>
    <path id="icon-51-32-c" d="M6.90181212,0.0236686391 C1.91235209,0.0236686391 0.0425296095,2.139608 0.0330991243,7.21412724 L0.0330991243,7.78698225 C0.00943048521,14.5231139 -0.345599101,14.4426998 6.9112426,14.4426998 C11.9005178,14.4426998 13.7703403,12.3219305 13.7799556,7.25203404 L13.7799556,6.67455621 C13.8036242,0.0946745562 14.139608,0.0188609704 7.40347636,0.0188609704 C7.23779588,0.0236686391 7.07211541,0.0236686391 6.90181212,0.0236686391"/>
    <linearGradient id="icon-51-32-d" x1="49.994%" x2="49.994%" y1="7.677%" y2="89.436%">
      <stop offset="0%" stop-color="#EF4136"/>
      <stop offset="100%" stop-color="#B22E25"/>
    </linearGradient>
  </defs>
  <g fill="none" fill-rule="evenodd">
    <rect width="50" height="31" x=".5" y=".5" fill="#FFF" stroke="#D0D0D0"/>
    <g transform="translate(17.1 4)">
      <polygon fill="#414042" fill-rule="nonzero" points=".043 19.891 2.428 19.891 2.428 20.308 .483 20.308 .483 21.884 2.083 21.884 2.083 22.291 .483 22.291 .483 23.929 .043 23.929"/>
      <path fill="#414042" fill-rule="nonzero" d="M3.03439347 21.9313979C3.03439347 20.5632397 3.44619082 19.8295119 4.59652364 19.8295119 5.74667162 19.8295119 6.15384615 20.5538092 6.15384615 21.9313979 6.15384615 23.3467086 5.74667162 23.9857873 4.59652364 23.9857873 3.43195266 23.9905695 3.03439347 23.3136095 3.03439347 21.9313979M5.69471153 21.9313979C5.69471153 20.8047337 5.41531067 20.2414941 4.59652364 20.2414941 3.76812128 20.2414941 3.49815091 20.7999261 3.49815091 21.9313979 3.49815091 23.0626849 3.75388312 23.5739645 4.59652364 23.5739645 5.42954883 23.5739645 5.69471153 23.1005917 5.69471153 21.9313979M9.32063612 23.8722263C9.32063612 23.8722263 8.68158286 23.9905695 8.24611688 23.9905695 7.06749259 23.9905695 6.80713756 23.2189349 6.80713756 21.9219674 6.80713756 20.591716 7.08635356 19.8295119 8.24611688 19.8295119 8.75258878 19.8295119 9.32544379 19.9526627 9.32544379 19.9526627L9.30177515 20.3550296C9.30177515 20.3550296 8.67696005 20.2555474 8.29345415 20.2555474 7.41771451 20.2555474 7.26627219 20.8426405 7.26627219 21.9219674 7.26627219 22.9774409 7.41309169 23.564534 8.30769231 23.564534 8.64386092 23.564534 9.30658282 23.4698595 9.30658282 23.4698595L9.32063612 23.8722263zM11.4367603 23.5597263C12.0615754 23.5597263 12.4023669 23.3088018 12.4023669 22.712463L12.4023669 19.8910873 12.8426405 19.8910873 12.8426405 22.712463C12.8426405 23.5928255 12.3786982 23.9857618 11.4367603 23.9857618 10.5325444 23.9857618 10.0686021 23.5976331 10.0686021 22.712463L10.0686021 19.8910873 10.5088757 19.8910873 10.5088757 22.712463C10.5040681 23.304179 10.835429 23.5597263 11.4367603 23.5597263"/>
      <polygon fill="#414042" fill-rule="nonzero" points="13.875 19.891 14.651 19.891 15.792 23.314 16.933 19.891 17.704 19.891 17.704 23.929 17.264 23.929 17.264 20.388 17.183 20.388 16.033 23.787 15.541 23.787 14.395 20.388 14.315 20.388 14.315 23.929 13.875 23.929"/>
      <g transform="translate(2.178)">
        <mask id="icon-51-32-b" fill="#fff">
          <use xlink:href="#icon-51-32-a"/>
        </mask>
        <g mask="url(#icon-51-32-b)">
          <mask id="icon-51-32-e" fill="#fff">
            <use xlink:href="#icon-51-32-c"/>
          </mask>
          <polygon fill="url(#icon-51-32-d)" fill-rule="nonzero" points="-.346 .024 14.144 .024 14.144 14.523 -.346 14.523" mask="url(#icon-51-32-e)"/>
        </g>
      </g>
      <polygon fill="#FFF" fill-rule="nonzero" points="6.585 2.599 12.412 2.599 12.412 4.341 8.435 4.341 8.435 7.162 11.598 7.162 11.598 8.847 8.435 8.847 8.435 11.991 6.585 11.991"/>
    </g>
  </g>
</svg>
