<svg height="32" viewBox="0 0 51 32" width="51" xmlns="http://www.w3.org/2000/svg" xmlns:xlink="http://www.w3.org/1999/xlink"><linearGradient id="a" x1="49.994%" x2="49.994%" y1="7.677%" y2="89.436%"><stop offset="0" stop-color="#ef4136"/><stop offset="1" stop-color="#b22e25"/></linearGradient><mask id="b" fill="#fff"><path d="m0 0h13.822v14.485h-13.822z" fill="#fff" fill-rule="evenodd"/></mask><mask id="c" fill="#fff"><path d="m6.90181212.02366864c-4.98946003 0-6.85928251 2.11593936-6.868713 7.1904586v.57285501c-.02366863 6.73613165-.37869822 6.65571755 6.87814348 6.65571755 4.9892752 0 6.8590977-2.1207693 6.868713-7.19066576v-.57747783c.0236686-6.57988165.3596524-6.65569524-6.37647924-6.65569524-.16568048.00480767-.33136095.00480767-.50166424.00480767" fill="#fff" fill-rule="evenodd"/></mask><g fill="none" fill-rule="evenodd"><path d="m.5.5h50v31h-50z" fill="#fff" stroke="#d0d0d0"/><g transform="translate(17.1 4)"><g fill="#414042"><path d="m.043 19.891h2.385v.417h-1.945v1.576h1.6v.407h-1.6v1.638h-.44z" fill-rule="nonzero"/><path d="m3.03439347 21.9313979c0-1.3681582.41179735-2.101886 1.56213017-2.101886 1.15014798 0 1.55732251.7242973 1.55732251 2.101886 0 1.4153107-.40717453 2.0543894-1.55732251 2.0543894-1.16457098.0047822-1.56213017-.6721778-1.56213017-2.0543894m2.66031806 0c0-1.1266642-.27940086-1.6899038-1.09818789-1.6899038-.82840236 0-1.09837273.558432-1.09837273 1.6899038 0 1.131287.25573221 1.6425666 1.09837273 1.6425666.83302519 0 1.09818789-.4733728 1.09818789-1.6425666m3.62592459 1.9408284s-.63905326.1183432-1.07451924.1183432c-1.17862429 0-1.43897932-.7716346-1.43897932-2.0686021 0-1.3302514.279216-2.0924555 1.43897932-2.0924555.5064719 0 1.07932691.1231508 1.07932691.1231508l-.02366864.4023669s-.6248151-.0994822-1.008321-.0994822c-.87573964 0-1.02718196.5870931-1.02718196 1.66642 0 1.0554735.1468195 1.6425666 1.04142012 1.6425666.33616861 0 .99889051-.0946745.99889051-.0946745zm2.11612418-.3125c.6248151 0 .9656066-.2509245.9656066-.8472633v-2.8213757h.4402736v2.8213757c0 .8803625-.4639423 1.2732988-1.4058802 1.2732988-.9042159 0-1.3681582-.3881287-1.3681582-1.2732988v-2.8213757h.4402736v2.8213757c-.0048076.591716.3265533.8472633.9278846.8472633" fill-rule="nonzero"/><path d="m13.875 19.891h.776l1.141 3.423 1.141-3.423h.771v4.038h-.44v-3.541h-.081l-1.15 3.399h-.492l-1.146-3.399h-.08v3.541h-.44z" fill-rule="nonzero"/></g><g mask="url(#b)" transform="translate(2.178)"><path d="m-.346.024h14.49v14.499h-14.49z" fill="url(#a)" fill-rule="nonzero" mask="url(#c)"/></g><path d="m6.585 2.599h5.827v1.742h-3.977v2.821h3.163v1.685h-3.163v3.144h-1.85z" fill="#fff" fill-rule="nonzero"/></g></g></svg>