<svg height="360" viewBox="0 0 640 360" width="640" xmlns="http://www.w3.org/2000/svg" xmlns:xlink="http://www.w3.org/1999/xlink"><linearGradient id="a" x1="49.994%" x2="49.994%" y1="7.677%" y2="89.436%"><stop offset="0" stop-color="#ef4136"/><stop offset="1" stop-color="#b22e25"/></linearGradient><mask id="b" fill="#fff"><path d="m0 0h184.3v193.136h-184.3z" fill="#fff" fill-rule="evenodd"/></mask><mask id="c" fill="#fff"><path d="m92.0241616.31558185c-66.5261337 0-91.45710014 28.21252485-91.58283994 95.87278135v7.6380668c-.31558186 89.815089-5.04930967 88.7429 91.70857974 88.7429 66.5236686 0 91.4546356-28.276924 91.5828396-95.8755429v-7.6997043c.315582-87.73175538 4.795366-88.74260319-85.0197229-88.74260319-2.209073.06410224-4.418146.06410224-6.6888565.06410224" fill="#fff" fill-rule="evenodd"/></mask><g fill="none" fill-rule="evenodd" transform="translate(201.333 20)"><g fill="#414042"><path d="m.567 265.214h31.812v5.555h-25.942v21.018h21.334v5.427h-21.334v21.839h-5.87z" fill-rule="nonzero"/><path d="m40.4585796 292.418639c0-18.24211 5.4906313-28.025148 20.8284023-28.025148 15.3353064 0 20.7643002 9.657298 20.7643002 28.025148 0 18.870809-5.4289938 27.391858-20.7643002 27.391858-15.5276131.063763-20.8284023-8.962371-20.8284023-27.391858m35.4709074 0c0-15.022189-3.7253447-22.532052-14.6425051-22.532052-11.0453649 0-14.6449698 7.44576-14.6449698 22.532052 0 15.083827 3.4097629 21.900888 14.6449698 21.900888 11.1070025 0 14.6425051-6.311637 14.6425051-21.900888m48.345661 25.877712s-8.52071 1.577909-14.326923 1.577909c-15.7149904 0-19.1863908-10.288461-19.1863908-27.581361 0-17.736686 3.72288-27.899408 19.1863908-27.899408 6.752959 0 14.391025 1.642012 14.391025 1.642012l-.315581 5.364891s-8.330868-1.326429-13.44428-1.326429c-11.6765289 0-13.6957598 7.827909-13.6957598 22.218934 0 14.072979 1.9575934 21.900888 13.8856018 21.900888 4.482248 0 13.31854-1.262328 13.31854-1.262328zm28.21499-4.166666c8.330868 0 12.874754-3.345661 12.874754-11.296845v-37.618343h5.870315v37.618343c0 11.738166-6.185897 16.977318-18.745069 16.977318-12.056213 0-18.24211-5.17505-18.24211-16.977318v-37.618343h5.870315v37.618343c-.064102 7.889546 4.354044 11.296845 12.371795 11.296845" fill-rule="nonzero"/><path d="m184.995 265.214h10.35l15.212 45.634 15.21-45.634h10.288v53.839h-5.87v-47.211h-1.073l-15.337 45.318h-6.563l-15.274-45.318h-1.075v47.211h-5.868z" fill-rule="nonzero"/></g><g mask="url(#b)" transform="translate(29.034)"><path d="m-4.608.316h193.2v193.326h-193.2z" fill="url(#a)" fill-rule="nonzero" mask="url(#c)"/></g><path d="m87.796 34.65h77.695v23.227h-53.018v37.619h42.162v22.468h-42.162v41.91h-24.677z" fill="#fff" fill-rule="nonzero"/></g></svg>