<svg xmlns="http://www.w3.org/2000/svg" xmlns:xlink="http://www.w3.org/1999/xlink" width="640" height="360" viewBox="0 0 640 360">
  <defs>
    <polygon id="method-focum-a" points="0 0 184.3 0 184.3 193.136 0 193.136"/>
    <path id="method-focum-c" d="M92.0241616,0.315581854 C25.4980279,0.315581854 0.56706146,28.5281067 0.441321657,96.1883632 L0.441321657,103.82643 C0.125739803,193.641519 -4.60798801,192.56933 92.1499014,192.56933 C158.67357,192.56933 183.604537,164.292406 183.732741,96.6937871 L183.732741,88.9940828 C184.048323,1.26232742 188.528107,0.251479606 98.7130181,0.251479606 C96.5039451,0.315581854 94.2948721,0.315581854 92.0241616,0.315581854"/>
    <linearGradient id="method-focum-d" x1="49.994%" x2="49.994%" y1="7.677%" y2="89.436%">
      <stop offset="0%" stop-color="#EF4136"/>
      <stop offset="100%" stop-color="#B22E25"/>
    </linearGradient>
  </defs>
  <g fill="none" fill-rule="evenodd" transform="translate(201.333 20)">
    <polygon fill="#414042" fill-rule="nonzero" points=".567 265.214 32.379 265.214 32.379 270.769 6.437 270.769 6.437 291.787 27.771 291.787 27.771 297.214 6.437 297.214 6.437 319.053 .567 319.053"/>
    <path fill="#414042" fill-rule="nonzero" d="M40.4585796 292.418639C40.4585796 274.176529 45.9492109 264.393491 61.2869819 264.393491 76.6222883 264.393491 82.0512821 274.050789 82.0512821 292.418639 82.0512821 311.289448 76.6222883 319.810497 61.2869819 319.810497 45.7593688 319.87426 40.4585796 310.848126 40.4585796 292.418639M75.929487 292.418639C75.929487 277.39645 72.2041423 269.886587 61.2869819 269.886587 50.241617 269.886587 46.6420121 277.332347 46.6420121 292.418639 46.6420121 307.502466 50.051775 314.319527 61.2869819 314.319527 72.3939844 314.319527 75.929487 308.00789 75.929487 292.418639M124.275148 318.296351C124.275148 318.296351 115.754438 319.87426 109.948225 319.87426 94.2332346 319.87426 90.7618342 309.585799 90.7618342 292.292899 90.7618342 274.556213 94.4847142 264.393491 109.948225 264.393491 116.701184 264.393491 124.33925 266.035503 124.33925 266.035503L124.023669 271.400394C124.023669 271.400394 115.692801 270.073965 110.579389 270.073965 98.9028601 270.073965 96.8836292 277.901874 96.8836292 292.292899 96.8836292 306.365878 98.8412226 314.193787 110.769231 314.193787 115.251479 314.193787 124.087771 312.931459 124.087771 312.931459L124.275148 318.296351zM152.490138 314.129685C160.821006 314.129685 165.364892 310.784024 165.364892 302.83284L165.364892 265.214497 171.235207 265.214497 171.235207 302.83284C171.235207 314.571006 165.04931 319.810158 152.490138 319.810158 140.433925 319.810158 134.248028 314.635108 134.248028 302.83284L134.248028 265.214497 140.118343 265.214497 140.118343 302.83284C140.054241 310.722386 144.472387 314.129685 152.490138 314.129685"/>
    <polygon fill="#414042" fill-rule="nonzero" points="184.995 265.214 195.345 265.214 210.557 310.848 225.767 265.214 236.055 265.214 236.055 319.053 230.185 319.053 230.185 271.842 229.112 271.842 213.775 317.16 207.212 317.16 191.938 271.842 190.863 271.842 190.863 319.053 184.995 319.053"/>
    <g transform="translate(29.034)">
      <mask id="method-focum-b" fill="#fff">
        <use xlink:href="#method-focum-a"/>
      </mask>
      <g mask="url(#method-focum-b)">
        <mask id="method-focum-e" fill="#fff">
          <use xlink:href="#method-focum-c"/>
        </mask>
        <polygon fill="url(#method-focum-d)" fill-rule="nonzero" points="-4.608 .316 188.592 .316 188.592 193.642 -4.608 193.642" mask="url(#method-focum-e)"/>
      </g>
    </g>
    <polygon fill="#FFF" fill-rule="nonzero" points="87.796 34.65 165.491 34.65 165.491 57.877 112.473 57.877 112.473 95.496 154.635 95.496 154.635 117.964 112.473 117.964 112.473 159.874 87.796 159.874"/>
  </g>
</svg>
