<?xml version="1.0" encoding="utf-8"?>
<!-- Generator: Adobe Illustrator 23.0.1, SVG Export Plug-In . SVG Version: 6.00 Build 0)  -->
<svg version="1.1" id="Layer_1" xmlns="http://www.w3.org/2000/svg" xmlns:xlink="http://www.w3.org/1999/xlink" x="0px" y="0px"
	 width="454.5px" height="595.3px" viewBox="0 0 454.5 595.3" style="enable-background:new 0 0 454.5 595.3;" xml:space="preserve"
	>
<style type="text/css">
	.st0{fill:#414042;}
	.st1{clip-path:url(#SVGID_2_);fill:#414042;}
	.st2{clip-path:url(#SVGID_4_);fill:url(#SVGID_5_);}
	.st3{clip-path:url(#SVGID_7_);fill:#FFFFFF;}
	.st4{clip-path:url(#SVGID_9_);fill:url(#SVGID_10_);}
	.st5{fill:#FFFFFF;}
	.st6{fill:#414042;stroke:#414042;stroke-width:3;}
	.st7{clip-path:url(#SVGID_12_);fill:#FFFFFF;}
	.st8{fill:#D32027;}
	.st9{fill:#FFFFFF;stroke:#FFFFFF;stroke-width:3;}
	.st10{clip-path:url(#SVGID_16_);fill:url(#SVGID_17_);}
	.st11{clip-path:url(#SVGID_19_);fill:#FFFFFF;}
</style>
<polygon class="st0" points="42.9,464.2 93.3,464.2 93.3,473 52.2,473 52.2,506.3 86,506.3 86,514.9 52.2,514.9 52.2,549.5 
	42.9,549.5 "/>
<g>
	<defs>
		<rect id="SVGID_1_" x="-191.5" y="0" width="841.9" height="595.3"/>
	</defs>
	<clipPath id="SVGID_2_">
		<use xlink:href="#SVGID_1_"  style="overflow:visible;"/>
	</clipPath>
	<path class="st1" d="M106.1,507.3c0-28.9,8.7-44.4,33-44.4c24.3,0,32.9,15.3,32.9,44.4c0,29.9-8.6,43.4-32.9,43.4
		C114.5,550.8,106.1,536.5,106.1,507.3 M162.3,507.3c0-23.8-5.9-35.7-23.2-35.7c-17.5,0-23.2,11.8-23.2,35.7
		c0,23.9,5.4,34.7,23.2,34.7C156.7,542,162.3,532,162.3,507.3"/>
	<path class="st1" d="M238.9,548.3c0,0-13.5,2.5-22.7,2.5c-24.9,0-30.4-16.3-30.4-43.7c0-28.1,5.9-44.2,30.4-44.2
		c10.7,0,22.8,2.6,22.8,2.6l-0.5,8.5c0,0-13.2-2.1-21.3-2.1c-18.5,0-21.7,12.4-21.7,35.2c0,22.3,3.1,34.7,22,34.7
		c7.1,0,21.1-2,21.1-2L238.9,548.3z"/>
	<path class="st1" d="M283.6,541.7c13.2,0,20.4-5.3,20.4-17.9v-59.6h9.3v59.6c0,18.6-9.8,26.9-29.7,26.9c-19.1,0-28.9-8.2-28.9-26.9
		v-59.6h9.3v59.6C263.9,536.3,270.9,541.7,283.6,541.7"/>
	<polygon class="st1" points="335.1,464.2 351.5,464.2 375.6,536.5 399.7,464.2 416,464.2 416,549.5 406.7,549.5 406.7,474.7 
		405,474.7 380.7,546.5 370.3,546.5 346.1,474.7 344.4,474.7 344.4,549.5 335.1,549.5 	"/>
</g>
<g>
	<defs>
		<path id="SVGID_3_" d="M233.8,44.5c-105.4,0-144.9,44.7-145.1,151.9v12.1c-0.5,142.3-8,140.6,145.3,140.6
			c105.4,0,144.9-44.8,145.1-151.9v-0.1v-12.1c0.5-139,7.6-140.6-134.7-140.6C240.9,44.5,237.4,44.5,233.8,44.5"/>
	</defs>
	<clipPath id="SVGID_4_">
		<use xlink:href="#SVGID_3_"  style="overflow:visible;"/>
	</clipPath>
	
		<linearGradient id="SVGID_5_" gradientUnits="userSpaceOnUse" x1="-191.4753" y1="595.278" x2="-190.4753" y2="595.278" gradientTransform="matrix(0 250.4296 250.4296 0 -148841.5 48019.0977)">
		<stop  offset="0" style="stop-color:#EF4136"/>
		<stop  offset="1" style="stop-color:#B22E25"/>
	</linearGradient>
	<rect x="80.7" y="44.5" class="st2" width="306.1" height="306.3"/>
</g>
<g>
	<defs>
		<rect id="SVGID_6_" x="-191.5" y="0" width="841.9" height="595.3"/>
	</defs>
	<clipPath id="SVGID_7_">
		<use xlink:href="#SVGID_6_"  style="overflow:visible;"/>
	</clipPath>
	<polygon class="st3" points="181.1,98.9 304.2,98.9 304.2,135.7 220.2,135.7 220.2,195.3 287,195.3 287,230.9 220.2,230.9 
		220.2,297.3 181.1,297.3 	"/>
</g>
<rect x="-1133.6" y="-429" style="fill:none;" width="778" height="164"/>
<text transform="matrix(1 0 0 1 -1133.5979 -382.6855)"><tspan x="0" y="0" class="st0" style="font-family:'Dax-Regular'; font-size:59px;">POWERED </tspan><tspan x="0" y="53" class="st0" style="font-family:'Dax-Regular'; font-size:59px;">BY FOCUM</tspan></text>
<g>
	<g>
		<defs>
			<path id="SVGID_8_" d="M-1031.4,250.5c-45.2,0-62.1,19.2-62.2,65.1v5.2c-0.2,61.1-3.4,60.3,62.3,60.3c45.2,0,62.1-19.2,62.2-65.1
				v0v-5.2c0.2-59.6,3.3-60.3-57.8-60.3C-1028.3,250.5-1029.8,250.5-1031.4,250.5"/>
		</defs>
		<clipPath id="SVGID_9_">
			<use xlink:href="#SVGID_8_"  style="overflow:visible;"/>
		</clipPath>
		
			<linearGradient id="SVGID_10_" gradientUnits="userSpaceOnUse" x1="-190.7065" y1="590.2261" x2="-190.2775" y2="590.2261" gradientTransform="matrix(0 250.4296 250.4296 0 -148841.5 48019.0977)">
			<stop  offset="0" style="stop-color:#EF4136"/>
			<stop  offset="1" style="stop-color:#B22E25"/>
		</linearGradient>
		<rect x="-1097.1" y="250.5" class="st4" width="131.3" height="131.4"/>
	</g>
	<polygon class="st5" points="-1054,273.8 -1001.2,273.8 -1001.2,289.6 -1037.2,289.6 -1037.2,315.1 -1008.6,315.1 -1008.6,330.4 
		-1037.2,330.4 -1037.2,358.9 -1054,358.9 	"/>
</g>
<g>
	<path class="st0" d="M-934.4,288.9l-1.8-0.2v14.8h-5.3v-34.1c2.2-1.1,5.8-2,10.1-2c9.5,0,13.8,4.5,13.8,10.7
		C-917.7,284.5-922.5,289.9-934.4,288.9z M-931.7,270.3c-2.2,0-3.7,0.4-4.6,0.7v14.9l1.8,0.2c8.5,0.7,11.6-2.7,11.6-7.8
		C-922.9,273-925.5,270.3-931.7,270.3z"/>
	<path class="st0" d="M-897.5,304c-10.5,0-14.6-8.1-14.6-18.3c0-10.1,4.1-18.3,14.6-18.3c10.4,0,14.5,8.2,14.5,18.3
		C-883,295.9-887.1,304-897.5,304z M-897.5,270.6c-7.4,0-9.1,7.8-9.1,15c0,7.2,1.5,14.9,9.1,14.9c7.6,0,9.1-7.7,9.1-14.9
		C-888.5,278.4-890.2,270.6-897.5,270.6z"/>
	<path class="st0" d="M-844.1,303.5h-4.7l-6.8-24.8c-0.6-2.1-0.9-4-0.9-4h-0.1c0,0-0.2,1.8-0.8,4l-6.9,24.8h-4.7l-9.4-35.5h5.6
		l5.8,25.6c0.5,2.1,0.7,4.1,0.7,4.1h0.1c0,0,0.3-2,0.9-4.1l7-25.6h4.1l6.9,25.6c0.5,1.9,0.8,4.1,0.8,4.1h0.1c0,0,0.2-2.2,0.7-4.1
		l6.1-25.6h5L-844.1,303.5z"/>
	<path class="st0" d="M-828.1,303.5V268h18.7v3.2h-13.3v12.4h12v3.1h-12v13.6h13.3v3.2H-828.1z"/>
	<path class="st0" d="M-783.4,303.5l-13.2-16.6h-0.1v16.6h-5.3v-34.1c2.1-1,5.7-1.9,10-1.9c9.1,0,13.8,3.9,13.8,10.5
		c0,6-4.9,9.6-12.2,9.8v0.1l13.2,15.6H-783.4z M-792.2,270.3c-2,0-3.5,0.3-4.6,0.8v14.9c0.6,0.2,2.1,0.3,3.5,0.3
		c6.6,0,9.7-2.9,9.7-8C-783.6,272.8-786.3,270.3-792.2,270.3z"/>
	<path class="st0" d="M-770.5,303.5V268h18.7v3.2h-13.3v12.4h12v3.1h-12v13.6h13.3v3.2H-770.5z"/>
	<path class="st0" d="M-733.9,304c-4.6,0-8.6-0.8-10.7-1.9v-32.7c2.3-1.1,6-2,10.4-2c11.1,0,16.8,6.9,16.8,17.9
		C-717.4,296.3-722.5,304-733.9,304z M-734.3,270.5c-2.1,0-3.6,0.2-5,0.7V300c1.2,0.4,3,0.7,5,0.7c8.1,0,11.2-5.3,11.2-15.3
		C-723,275.6-726.6,270.5-734.3,270.5z"/>
	<path class="st0" d="M-930.5,361.9c-4.6,0-8.4-0.7-11-2v-32.6c2.2-1.1,6.1-2,10.5-2c8.8,0,13.6,3.7,13.6,8.9c0,5.1-4.2,7.6-7.9,8.3
		v0.1c3.7,0.6,9.4,3.8,9.4,9.2C-915.9,358.9-922.2,361.9-930.5,361.9z M-931.1,328.1c-2.1,0-3.7,0.3-5.3,0.8v12.6h2.6
		c8.3,0,11.1-2.3,11.1-6.9C-922.7,330.2-925.6,328.1-931.1,328.1z M-933.7,343.9h-2.7V358c1.5,0.6,3.2,0.8,5.7,0.8
		c5.3,0,9.4-1.9,9.4-7C-921.4,346.3-925,343.9-933.7,343.9z"/>
	<path class="st0" d="M-896.7,345.6v15.7h-5.4v-15.7l-11-19.8h5.8l8,16h0.1l8.3-16h5.2L-896.7,345.6z"/>
	<path class="st6" d="M-858.6,329.1v12.4h11.9v3.1h-11.9v16.8h-5.4v-35.5h18.6v3.2H-858.6z"/>
	<path class="st6" d="M-826,361.9c-10.5,0-14.6-8.1-14.6-18.3c0-10.1,4.1-18.3,14.6-18.3c10.4,0,14.5,8.2,14.5,18.3
		C-811.4,353.8-815.5,361.9-826,361.9z M-826,328.5c-7.4,0-9.1,7.8-9.1,15c0,7.2,1.5,14.9,9.1,14.9s9.1-7.7,9.1-14.9
		C-816.9,336.3-818.6,328.5-826,328.5z"/>
	<path class="st6" d="M-790,361.9c-9.7,0-15.1-8.2-15.1-18.3c0-9.9,5.4-18.3,15.1-18.3c3.6,0,6.1,0.8,7.8,2l-1.3,2.8
		c-1.2-0.7-3.1-1.4-5.6-1.4c-7.7,0-10.4,7.4-10.4,14.9c0,7.7,3,14.7,10.4,14.7c2.5,0,4.1-0.6,5.6-1.4l1.4,3
		C-783.8,361.1-786.7,361.9-790,361.9z"/>
	<path class="st6" d="M-763.2,361.9c-7.7,0-12.5-4.6-12.5-10.7v-25.4h5.4v25.3c0,4.5,3.5,7,7.4,7c3.9,0,7.4-2.5,7.4-7v-25.3h4.9
		v25.4C-750.6,357.3-755.5,361.9-763.2,361.9z"/>
	<path class="st6" d="M-708.5,361.4c-0.1-0.5-3.1-26.6-3.1-26.6c-0.2-2.2-0.3-4.2-0.3-4.2h-0.1c0,0-0.4,2-1.1,4.2
		c0,0-8.3,26-8.6,26.6h-3.6c-0.2-0.5-8.4-26.6-8.4-26.6c-0.6-2.1-1.1-4.1-1.1-4.1h-0.1c0,0-0.1,2-0.3,4.1c0,0-3.1,26.1-3.2,26.6
		h-4.6l4.8-35.5h5.7l8.1,25.6c0.8,2.4,1.1,4,1.1,4h0.1c0,0,0.3-1.7,1.1-4l8.3-25.7h5.7l4.8,35.5H-708.5z"/>
</g>
<polygon class="st0" points="-477.3,-217.6 -455.7,-217.6 -455.7,-213.8 -473.3,-213.8 -473.3,-199.5 -458.8,-199.5 -458.8,-195.8 
	-473.3,-195.8 -473.3,-181 -477.3,-181 "/>
<path class="st0" d="M-450.2-199.1c0-12.4,3.7-19,14.2-19c10.4,0,14.1,6.6,14.1,19c0,12.8-3.7,18.6-14.1,18.6
	C-446.6-180.4-450.2-186.5-450.2-199.1 M-426.1-199.1c0-10.2-2.5-15.3-9.9-15.3c-7.5,0-9.9,5.1-9.9,15.3c0,10.3,2.3,14.9,9.9,14.9
	C-428.5-184.2-426.1-188.5-426.1-199.1"/>
<path class="st0" d="M-393.2-181.5c0,0-5.8,1.1-9.7,1.1c-10.7,0-13-7-13-18.7c0-12,2.5-18.9,13-18.9c4.6,0,9.8,1.1,9.8,1.1l-0.2,3.6
	c0,0-5.7-0.9-9.2-0.9c-7.9,0-9.3,5.3-9.3,15.1c0,9.6,1.3,14.9,9.4,14.9c3.1,0,9-0.8,9-0.8L-393.2-181.5z"/>
<path class="st0" d="M-374.1-184.3c5.7,0,8.7-2.3,8.7-7.7v-25.6h4v25.6c0,8-4.2,11.5-12.7,11.5c-8.2,0-12.4-3.5-12.4-11.5v-25.6h4
	v25.6C-382.5-186.6-379.5-184.3-374.1-184.3"/>
<polygon class="st0" points="-352,-217.6 -344.9,-217.6 -334.6,-186.5 -324.2,-217.6 -317.2,-217.6 -317.2,-181 -321.2,-181 
	-321.2,-213 -322,-213 -332.4,-182.3 -336.9,-182.3 -347.2,-213 -348,-213 -348,-181 -352,-181 "/>
<g>
	<g>
		<defs>
			<path id="SVGID_11_" d="M-1455.4,49.5c-45.2,0-62.1,19.2-62.2,65.1v5.2c-0.2,61.1-3.4,60.3,62.3,60.3c45.2,0,62.1-19.2,62.2-65.1
				v0v-5.2c0.2-59.6,3.3-60.3-57.8-60.3C-1452.3,49.5-1453.8,49.5-1455.4,49.5"/>
		</defs>
		<use xlink:href="#SVGID_11_"  style="overflow:visible;fill:#FFFFFF;"/>
		<clipPath id="SVGID_12_">
			<use xlink:href="#SVGID_11_"  style="overflow:visible;"/>
		</clipPath>
		<rect x="-1521.1" y="49.5" class="st7" width="131.3" height="131.4"/>
	</g>
	<polygon class="st8" points="-1478,72.8 -1425.2,72.8 -1425.2,88.6 -1461.2,88.6 -1461.2,114.1 -1432.6,114.1 -1432.6,129.4 
		-1461.2,129.4 -1461.2,157.9 -1478,157.9 	"/>
</g>
<g>
	<path class="st5" d="M-1358.4,87.9l-1.8-0.2v14.8h-5.3V68.4c2.2-1.1,5.8-2,10.1-2c9.5,0,13.8,4.5,13.8,10.7
		C-1341.7,83.5-1346.5,88.9-1358.4,87.9z M-1355.7,69.3c-2.2,0-3.7,0.4-4.6,0.7v14.9l1.8,0.2c8.5,0.7,11.6-2.7,11.6-7.8
		C-1346.9,72-1349.5,69.3-1355.7,69.3z"/>
	<path class="st5" d="M-1321.5,103c-10.5,0-14.6-8.1-14.6-18.3c0-10.1,4.1-18.3,14.6-18.3c10.4,0,14.5,8.2,14.5,18.3
		C-1307,94.9-1311.1,103-1321.5,103z M-1321.5,69.6c-7.4,0-9.1,7.8-9.1,15c0,7.2,1.5,14.9,9.1,14.9c7.6,0,9.1-7.7,9.1-14.9
		C-1312.5,77.4-1314.2,69.6-1321.5,69.6z"/>
	<path class="st5" d="M-1268.1,102.5h-4.7l-6.8-24.8c-0.6-2.1-0.9-4-0.9-4h-0.1c0,0-0.2,1.8-0.8,4l-6.9,24.8h-4.7l-9.4-35.5h5.6
		l5.8,25.6c0.5,2.1,0.7,4.1,0.7,4.1h0.1c0,0,0.3-2,0.9-4.1l7-25.6h4.1l6.9,25.6c0.5,1.9,0.8,4.1,0.8,4.1h0.1c0,0,0.2-2.2,0.7-4.1
		l6.1-25.6h5L-1268.1,102.5z"/>
	<path class="st5" d="M-1252.1,102.5V67h18.7v3.2h-13.3v12.4h12v3.1h-12v13.6h13.3v3.2H-1252.1z"/>
	<path class="st5" d="M-1207.4,102.5l-13.2-16.6h-0.1v16.6h-5.3V68.4c2.1-1,5.7-1.9,10-1.9c9.1,0,13.8,3.9,13.8,10.5
		c0,6-4.9,9.6-12.2,9.8v0.1l13.2,15.6H-1207.4z M-1216.2,69.3c-2,0-3.5,0.3-4.6,0.8v14.9c0.6,0.2,2.1,0.3,3.5,0.3
		c6.6,0,9.7-2.9,9.7-8C-1207.6,71.8-1210.3,69.3-1216.2,69.3z"/>
	<path class="st5" d="M-1194.5,102.5V67h18.7v3.2h-13.3v12.4h12v3.1h-12v13.6h13.3v3.2H-1194.5z"/>
	<path class="st5" d="M-1157.9,103c-4.6,0-8.6-0.8-10.7-1.9V68.4c2.3-1.1,6-2,10.4-2c11.1,0,16.8,6.9,16.8,17.9
		C-1141.4,95.3-1146.5,103-1157.9,103z M-1158.3,69.5c-2.1,0-3.6,0.2-5,0.7V99c1.2,0.4,3,0.7,5,0.7c8.1,0,11.2-5.3,11.2-15.3
		C-1147,74.6-1150.6,69.5-1158.3,69.5z"/>
	<path class="st5" d="M-1354.5,160.9c-4.6,0-8.4-0.7-11-2v-32.6c2.2-1.1,6.1-2,10.5-2c8.8,0,13.6,3.7,13.6,8.9
		c0,5.1-4.2,7.6-7.9,8.3v0.1c3.7,0.6,9.4,3.8,9.4,9.2C-1339.9,157.9-1346.2,160.9-1354.5,160.9z M-1355.1,127.1
		c-2.1,0-3.7,0.3-5.3,0.8v12.6h2.6c8.3,0,11.1-2.3,11.1-6.9C-1346.7,129.2-1349.6,127.1-1355.1,127.1z M-1357.7,142.9h-2.7V157
		c1.5,0.6,3.2,0.8,5.7,0.8c5.3,0,9.4-1.9,9.4-7C-1345.4,145.3-1349,142.9-1357.7,142.9z"/>
	<path class="st5" d="M-1320.7,144.6v15.7h-5.4v-15.7l-11-19.8h5.8l8,16h0.1l8.3-16h5.2L-1320.7,144.6z"/>
	<path class="st9" d="M-1282.6,128.1v12.4h11.9v3.1h-11.9v16.8h-5.4v-35.5h18.6v3.2H-1282.6z"/>
	<path class="st9" d="M-1250,160.9c-10.5,0-14.6-8.1-14.6-18.3c0-10.1,4.1-18.3,14.6-18.3c10.4,0,14.5,8.2,14.5,18.3
		C-1235.4,152.8-1239.5,160.9-1250,160.9z M-1250,127.5c-7.4,0-9.1,7.8-9.1,15c0,7.2,1.5,14.9,9.1,14.9s9.1-7.7,9.1-14.9
		C-1240.9,135.3-1242.6,127.5-1250,127.5z"/>
	<path class="st9" d="M-1214,160.9c-9.7,0-15.1-8.2-15.1-18.3c0-9.9,5.4-18.3,15.1-18.3c3.6,0,6.1,0.8,7.8,2l-1.3,2.8
		c-1.2-0.7-3.1-1.4-5.6-1.4c-7.7,0-10.4,7.4-10.4,14.9c0,7.7,3,14.7,10.4,14.7c2.5,0,4.1-0.6,5.6-1.4l1.4,3
		C-1207.8,160.1-1210.7,160.9-1214,160.9z"/>
	<path class="st9" d="M-1187.2,160.9c-7.7,0-12.5-4.6-12.5-10.7v-25.4h5.4v25.3c0,4.5,3.5,7,7.4,7c3.9,0,7.4-2.5,7.4-7v-25.3h4.9
		v25.4C-1174.6,156.3-1179.5,160.9-1187.2,160.9z"/>
	<path class="st9" d="M-1132.5,160.4c-0.1-0.5-3.1-26.6-3.1-26.6c-0.2-2.2-0.3-4.2-0.3-4.2h-0.1c0,0-0.4,2-1.1,4.2
		c0,0-8.3,26-8.6,26.6h-3.6c-0.2-0.5-8.4-26.6-8.4-26.6c-0.6-2.1-1.1-4.1-1.1-4.1h-0.1c0,0-0.1,2-0.3,4.1c0,0-3.1,26.1-3.2,26.6
		h-4.6l4.8-35.5h5.7l8.1,25.6c0.8,2.4,1.1,4,1.1,4h0.1c0,0,0.3-1.7,1.1-4l8.3-25.7h5.7l4.8,35.5H-1132.5z"/>
</g>
<g>
	<defs>
		<rect id="SVGID_13_" x="211.5" y="688" width="841.9" height="595.3"/>
	</defs>
	<clipPath id="SVGID_14_">
		<use xlink:href="#SVGID_13_"  style="overflow:visible;"/>
	</clipPath>
</g>
<g>
	<defs>
		<path id="SVGID_15_" d="M693.5,785.5c-73.8,0-101.4,31.3-101.6,106.3v8.5c-0.3,99.6-5.6,98.4,101.7,98.4
			c73.8,0,101.4-31.3,101.6-106.3v0v-8.4c0.3-97.3,5.4-98.4-94.3-98.4C698.5,785.5,696,785.5,693.5,785.5"/>
	</defs>
	<clipPath id="SVGID_16_">
		<use xlink:href="#SVGID_15_"  style="overflow:visible;"/>
	</clipPath>
	
		<linearGradient id="SVGID_17_" gradientUnits="userSpaceOnUse" x1="-188.5448" y1="597.1137" x2="-187.8448" y2="597.1137" gradientTransform="matrix(0 250.4296 250.4296 0 -148841.5 48019.0977)">
		<stop  offset="0" style="stop-color:#EF4136"/>
		<stop  offset="1" style="stop-color:#B22E25"/>
	</linearGradient>
	<rect x="586.3" y="785.5" class="st10" width="214.2" height="214.4"/>
</g>
<g>
	<defs>
		<rect id="SVGID_18_" x="395.8" y="754.3" width="589.3" height="416.7"/>
	</defs>
	<clipPath id="SVGID_19_">
		<use xlink:href="#SVGID_18_"  style="overflow:visible;"/>
	</clipPath>
	<polygon class="st11" points="656.6,823.5 742.8,823.5 742.8,849.3 684,849.3 684,891 730.7,891 730.7,915.9 684,915.9 684,962.4 
		656.6,962.4 	"/>
</g>
<polygon class="st0" points="848.8,853.1 899.2,853.1 899.2,862 858.1,862 858.1,895.3 891.8,895.3 891.8,903.9 858.1,903.9 
	858.1,938.5 848.8,938.5 "/>
<path class="st0" d="M911.9,896.3c0-28.9,8.7-44.4,33-44.4c24.3,0,32.9,15.3,32.9,44.4c0,29.9-8.6,43.4-32.9,43.4
	C920.4,939.7,911.9,925.5,911.9,896.3 M968.1,896.3c0-23.8-5.9-35.7-23.2-35.7c-17.5,0-23.2,11.8-23.2,35.7
	c0,23.9,5.4,34.7,23.2,34.7C962.6,931,968.1,921,968.1,896.3"/>
<path class="st0" d="M1044.8,937.3c0,0-13.5,2.5-22.7,2.5c-24.9,0-30.4-16.3-30.4-43.7c0-28.1,5.9-44.2,30.4-44.2
	c10.7,0,22.8,2.6,22.8,2.6l-0.5,8.5c0,0-13.2-2.1-21.3-2.1c-18.5,0-21.7,12.4-21.7,35.2c0,22.3,3.1,34.7,22,34.7
	c7.1,0,21.1-2,21.1-2L1044.8,937.3z"/>
<path class="st0" d="M1089.4,930.7c13.2,0,20.4-5.3,20.4-17.9v-59.6h9.3v59.6c0,18.6-9.8,26.9-29.7,26.9c-19.1,0-28.9-8.2-28.9-26.9
	v-59.6h9.3v59.6C1069.8,925.3,1076.8,930.7,1089.4,930.7"/>
<polygon class="st0" points="1140.9,853.1 1157.4,853.1 1181.4,925.5 1205.6,853.1 1221.9,853.1 1221.9,938.5 1212.6,938.5 
	1212.6,863.7 1210.9,863.7 1186.6,935.5 1176.1,935.5 1152,863.7 1150.3,863.7 1150.3,938.5 1140.9,938.5 "/>
</svg>
