<?xml version="1.0" encoding="UTF-8" standalone="no"?>
<svg
   width="51"
   height="32"
   viewBox="0 0 51 32"
   version="1.1"
   id="svg13680"
   sodipodi:docname="method-riverty-wc-51x32.svg"
   inkscape:version="1.2.2 (b0a8486, 2022-12-01)"
   xmlns:inkscape="http://www.inkscape.org/namespaces/inkscape"
   xmlns:sodipodi="http://sodipodi.sourceforge.net/DTD/sodipodi-0.dtd"
   xmlns="http://www.w3.org/2000/svg"
   xmlns:svg="http://www.w3.org/2000/svg">
  <defs
     id="defs13684" />
  <sodipodi:namedview
     id="namedview13682"
     pagecolor="#ffffff"
     bordercolor="#666666"
     borderopacity="1.0"
     inkscape:showpageshadow="2"
     inkscape:pageopacity="0.0"
     inkscape:pagecheckerboard="0"
     inkscape:deskcolor="#d1d1d1"
     showgrid="false"
     inkscape:zoom="7.375"
     inkscape:cx="16.271186"
     inkscape:cy="26.440678"
     inkscape:window-width="1329"
     inkscape:window-height="862"
     inkscape:window-x="2651"
     inkscape:window-y="643"
     inkscape:window-maximized="0"
     inkscape:current-layer="g9640" />
  <g
     id="g9640"
     transform="matrix(0.53571429,0,0,0.53571429,1.3928569,0.99999988)"
     inkscape:label="g9640">
    <rect
       width="95.199997"
       height="59.733334"
       fill="#282828"
       id="rect6211"
       x="-2.5999994"
       y="-1.8666664"
       style="stroke-width:1.06221;fill:#ffffff" />
    <path
       d="m 78.209865,24.265254 -3.13078,4.118816 v 3.350675 h -1.72239 V 28.38407 l -3.13078,-4.118816 h 2.13513 l 1.90519,2.537251 1.89044,-2.537251 z m -17.4341,0 V 25.7404 h 2.76009 v 5.997507 h 1.70764 v -6.00067 h 2.75693 v -1.475143 z m -8.54162,1.475146 h 2.54048 c 0.75513,0 1.10592,0.285547 1.10592,0.889298 0,0.603758 -0.35079,0.889299 -1.10592,0.889299 h -2.54048 z m 5.74905,5.997507 -1.96082,-2.878633 c 1.0502,-0.285548 1.59845,-1.043135 1.59845,-2.229576 0,-1.538364 -0.93052,-2.361282 -2.66031,-2.361282 h -4.43409 v 7.46949 h 1.70772 v -2.750084 h 1.88304 l 1.85056,2.746923 z m -18.90447,-7.469491 v 7.469491 h 6.73312 v -1.475143 h -5.02231 v -1.548895 h 4.31549 v -1.475144 h -4.31549 v -1.501488 h 5.02547 v -1.475144 z m -5.35628,0 -2.1971,5.522309 -2.21183,-5.524416 h -1.85264 l 3.14236,7.469514 h 1.75179 l 3.14235,-7.469514 z m -11.57371,7.466329 h 1.70772 v -7.469491 h -1.70772 z m -10.3586,0 h 1.70771 v -5.757268 h -1.70771 z m 1.70771,-5.756219 h 5.73748 v -1.714327 h -5.73748 z"
       fill="#527a42"
       id="path419"
       style="stroke-width:0.0718826" />
  </g>
  <rect
     width="50"
     height="31"
     x="0.5"
     y="0.5"
     fill="#ffffff"
     stroke="#d0d0d0"
     id="rect13670"
     style="display:inline;fill-rule:evenodd;fill:none" />
</svg>
