<?xml version="1.0" encoding="UTF-8" standalone="no"?>
<svg
   width="640"
   height="360"
   viewBox="0 0 640 360"
   fill="none"
   version="1.1"
   id="svg6237"
   sodipodi:docname="method-afterpay-riverty-white-640x360.svg"
   inkscape:version="1.2.1 (9c6d41e4, 2022-07-14)"
   xmlns:inkscape="http://www.inkscape.org/namespaces/inkscape"
   xmlns:sodipodi="http://sodipodi.sourceforge.net/DTD/sodipodi-0.dtd"
   xmlns="http://www.w3.org/2000/svg"
   xmlns:svg="http://www.w3.org/2000/svg">
  <defs
     id="defs6241" />
  <sodipodi:namedview
     id="namedview6239"
     pagecolor="#ffffff"
     bordercolor="#666666"
     borderopacity="1.0"
     inkscape:showpageshadow="2"
     inkscape:pageopacity="0.0"
     inkscape:pagecheckerboard="true"
     inkscape:deskcolor="#d1d1d1"
     showgrid="false"
     inkscape:zoom="1.6048167"
     inkscape:cx="299.7227"
     inkscape:cy="165.75102"
     inkscape:window-width="1501"
     inkscape:window-height="982"
     inkscape:window-x="2469"
     inkscape:window-y="245"
     inkscape:window-maximized="0"
     inkscape:current-layer="g9640" />
  <g
     id="g9640"
     transform="matrix(5.1428571,0,0,5.1428571,88.571431,36.000001)">
    <path
       id="rect6211"
       style="display:inline;fill:#ffffff"
       d="M 0.0001622882 28 L 0.0001622882 56 L 89.999838 56 L 89.999838 28 L 0.0001622882 28 z M 45.809679 38.250109 L 45.809679 39.730089 L 40.816026 39.730089 L 40.816026 41.236274 L 45.104438 41.236274 L 45.104438 42.716255 L 40.816026 42.716255 L 40.816026 44.269911 L 45.806641 44.269911 L 45.806641 45.749892 L 39.116157 45.749892 L 39.116157 38.256185 L 45.809679 38.250109 z M 67.855198 38.250109 L 67.855198 39.730089 L 65.115506 39.730089 L 65.115506 45.749892 L 63.418674 45.749892 L 63.418674 39.733127 L 60.675944 39.733127 L 60.675944 38.253147 L 67.855198 38.250109 z M 13.696723 38.252008 L 19.398274 38.252008 L 19.398274 39.972005 L 13.696723 39.972005 L 13.696723 45.746853 L 11.999891 45.746853 L 11.999891 39.970866 L 13.696723 39.970866 L 13.696723 38.252008 z M 22.292914 38.253147 L 23.990126 38.253147 L 23.990126 45.746853 L 22.292914 45.746853 L 22.292914 38.253147 z M 70.066623 38.253147 L 72.188043 38.253147 L 74.081218 40.798774 L 75.959581 38.253147 L 78.000109 38.253147 L 74.888998 42.385471 L 74.888998 45.746853 L 73.177355 45.746853 L 73.177355 42.385471 L 70.066623 38.253147 z M 27.571777 38.254286 L 29.412543 38.254286 L 31.610677 43.796333 L 33.79362 38.256185 L 35.557291 38.254286 L 32.434787 45.747993 L 30.694281 45.747993 L 27.571777 38.254286 z M 50.491536 38.256185 L 54.897678 38.256185 C 56.616476 38.256185 57.541287 39.081819 57.541287 40.625217 C 57.541287 41.815416 56.99629 42.575688 55.952691 42.862088 L 57.900933 45.749892 L 55.898383 45.746853 L 54.059516 42.990831 L 52.188368 42.990831 L 52.188368 45.749892 L 50.491536 45.749892 L 50.491536 38.256185 z M 52.188368 39.733127 L 52.188368 41.517307 L 54.712728 41.517307 C 55.463027 41.517307 55.811795 41.230917 55.811795 40.625217 C 55.811795 40.019518 55.463027 39.733127 54.712728 39.733127 L 52.188368 39.733127 z " />
    <path
       d="M 51.8189,13.2546 C 51.7885,13.1255 51.7499,13.016 51.7223,12.9178 L 51.6919,12.828 c -0.5078,-1.4314 -1.6808,-2.2734 -3.1243,-2.2649 -0.2539,0 -0.4692,0.0196 -0.6927,0.0701 -1.1537,0.2582 -2.5199,1.103 -2.5199,3.6542 v 4.0332 c 0,0.2891 0.069,0.4575 0.138,0.595 0.0883,0.1684 0.2539,0.2975 0.4388,0.348 0.0497,0.0112 0.1077,0.0197 0.1656,0.0197 0.1463,0 0.2843,-0.0393 0.4002,-0.1292 0.3036,-0.2076 0.3036,-0.5669 0.3036,-0.8644 v -4.0023 c 0,-1.3499 0.4195,-2.0067 1.3966,-2.206 0.6541,-0.1487 1.2999,0.0702 1.7001,0.5558 0.196,0.2385 0.3119,0.4659 0.3616,0.6651 0.1463,0.7157 0.2236,0.9346 0.3229,1.0722 l 0.0304,0.0392 c 0.2153,0.247 0.5961,0.3172 0.908,0.16 0.4444,-0.247 0.3947,-0.8335 0.2981,-1.3191 z"
       fill="#ffffff"
       id="path6215"
       style="fill:#ffffff" />
    <path
       d="m 16.7858,8.09027 c -0.5382,-0.10946 -1.0846,-0.10946 -1.6118,0 C 13.2503,8.48601 12,10.0353 12,12.042 v 6.2869 c 0,0.2582 0.0304,0.4378 0.1076,0.5865 l 0.0111,0.0113 c 0.0883,0.1684 0.2539,0.2975 0.4388,0.348 0.196,0.0505 0.4002,0.0112 0.5658,-0.1095 0.3229,-0.2189 0.3616,-0.595 0.3616,-0.8644 v -2.5316 h 5.0011 v 2.5512 c 0,0.3088 0.0883,0.4856 0.138,0.595 0.0883,0.1684 0.2539,0.2975 0.4388,0.3481 0.0497,0.0112 0.1077,0.0196 0.1656,0.0196 0.1463,0 0.2843,-0.0393 0.4002,-0.1291 0.2926,-0.1993 0.3312,-0.5276 0.3312,-0.8644 v -6.256 c -0.011,-2.0068 -1.2502,-3.54759 -3.174,-3.94333 z m 1.6892,6.26723 h -4.9818 v -2.3043 c 0,-0.9935 0.3422,-1.6896 1.0929,-2.18352 0.5272,-0.37609 1.2199,-0.51642 1.9044,-0.38732 0.3312,0.05894 0.6238,0.18805 0.8777,0.37609 l 0.011,0.01123 c 0.7425,0.50522 1.093,1.20122 1.093,2.18352 v 2.3043 z"
       fill="#ffffff"
       id="path6217"
       style="fill:#ffffff" />
    <path
       d="m 44.2892,13.9 c -0.6238,-2.3744 -3.0084,-3.7441 -5.4289,-3.1294 -1.2393,0.3171 -2.2467,1.0834 -2.8318,2.1555 -0.5851,1.0721 -0.6927,2.3547 -0.3036,3.6065 0.5851,1.8383 2.2549,2.9891 4.1593,2.9891 0.3423,0 0.7038,-0.0393 1.0544,-0.1179 0.5382,-0.1179 1.0653,-0.348 1.5345,-0.6568 0.3505,-0.2385 0.6459,-0.4967 0.8004,-0.696 0.2429,-0.2975 0.3919,-0.5361 0.3616,-0.8139 -0.0193,-0.1881 -0.1159,-0.3565 -0.265,-0.4772 -0.1573,-0.1178 -0.3615,-0.1684 -0.5465,-0.1291 l -0.0303,0.0113 c -0.1849,0.0589 -0.3312,0.1403 -0.4499,0.2582 l -0.127,0.16 -0.1849,0.1683 -0.011,0.0113 c -0.4113,0.4182 -0.9081,0.7044 -1.4463,0.8139 -1.4545,0.3368 -2.8897,-0.4463 -3.4168,-1.858 -0.0387,-0.1179 -0.069,-0.2273 -0.0966,-0.3284 h 6.3866 l 0.138,-0.0196 0.2153,-0.0112 c 0.2346,-0.0197 0.4112,-0.1095 0.5272,-0.2779 C 44.5431,15.25 44.5321,14.7925 44.2892,13.9 Z m -7.2478,0.6146 c 0.0194,-0.1291 0.058,-0.2385 0.0966,-0.3676 0.4968,-1.6082 2.0894,-2.4727 3.6929,-1.9955 1.0047,0.2975 1.7885,1.131 2.0424,2.1751 0.0193,0.0786 0.0387,0.16 0.0497,0.2386 z"
       fill="#ffffff"
       id="path6219"
       style="fill:#ffffff" />
    <path
       d="m 34.7451,15.8562 c -0.0773,-0.1684 -0.2346,-0.2975 -0.4112,-0.3564 -0.1849,-0.059 -0.3809,-0.0309 -0.5575,0.0589 -0.3423,0.1684 -0.4113,0.5473 -0.4306,0.6764 l -0.058,0.3172 -0.011,0.0982 c -0.2236,0.9823 -1.0046,1.5184 -2.001,1.3696 -0.6458,-0.0982 -1.5042,-0.4462 -1.5042,-2.2537 v -0.1179 h 1.9541 c 0.2346,0 0.9467,0 0.9467,-0.7157 0,-0.3564 -0.265,-0.6567 -0.5769,-0.6764 -0.1463,-0.0196 -0.2732,-0.0196 -0.4195,-0.0196 h -1.9044 v -2.7505 c 0,-0.2582 -0.0304,-0.4378 -0.1076,-0.5866 v -0.0112 c -0.0884,-0.1684 -0.254,-0.2975 -0.4389,-0.348 -0.1959,-0.0506 -0.4002,-0.0113 -0.5658,0.1094 -0.2925,0.1993 -0.3312,0.5277 -0.3312,0.8645 v 4.1004 c 0,2.3352 0.8308,3.5055 2.6965,3.8143 0.2153,0.0392 0.4306,0.0589 0.6459,0.0589 1.4655,0 2.6965,-0.9234 3.0857,-2.3941 0.0303,-0.1178 0.0496,-0.2273 0.069,-0.3368 v -0.0056 c 0.0579,-0.4294 0.0386,-0.6679 -0.0801,-0.8953 z"
       fill="#ffffff"
       id="path6221"
       style="fill:#ffffff" />
    <path
       d="m 70.3355,14.6157 c -0.0193,-0.3565 -0.069,-0.6764 -0.1573,-0.9627 -0.3036,-1.0721 -1.0157,-1.9674 -2.001,-2.5231 -1.0543,-0.5866 -2.2963,-0.7157 -3.4859,-0.3565 -1.5539,0.4659 -2.7241,1.7373 -3.047,3.3371 -0.4775,2.4025 0.8501,4.6478 3.0857,5.2344 0.4112,0.1094 0.8307,0.1599 1.2392,0.1599 0.6238,0 1.231,-0.1291 1.7774,-0.376 0.4499,-0.2077 0.8501,-0.4856 1.162,-0.8252 v 0.0196 c 0,0.2695 0,0.4267 0.0773,0.5866 l 0.011,0.0113 c 0.0883,0.1684 0.2539,0.2975 0.4389,0.348 0.1959,0.0505 0.4002,0.0112 0.5658,-0.1095 0.3036,-0.2077 0.3505,-0.5557 0.3505,-0.8644 v -3.5111 z m -3.6735,3.3848 c -1.6119,0.3761 -3.105,-0.5164 -3.5356,-2.1246 v -0.0113 c -0.069,-0.2077 -0.0966,-0.4182 -0.1159,-0.6258 -0.0883,-1.4202 0.7507,-2.7 2.0507,-3.1098 0.3118,-0.0982 0.6348,-0.1487 0.9466,-0.1487 0.6045,0 1.1813,0.1796 1.6809,0.536 0.7507,0.5361 1.2006,1.409 1.2309,2.3941 0.058,1.5212 -0.8418,2.7645 -2.2576,3.0901 z"
       fill="#ffffff"
       id="path6223"
       style="fill:#ffffff" />
    <path
       d="M 60.3139,9.37019 C 59.5908,8.4861 58.5061,7.98091 57.3358,8.00055 55.1389,8.03143 53.654,9.64804 53.654,12.0337 v 6.2868 c 0,0.2891 0.069,0.4575 0.138,0.595 0.0883,0.1684 0.2539,0.2975 0.4388,0.3481 0.0497,0.0112 0.1077,0.0196 0.1656,0.0196 0.1463,0 0.2843,-0.0393 0.4002,-0.1291 0.3036,-0.2077 0.3423,-0.5557 0.3423,-0.8644 v -2.8516 h 2.139 c 2.0203,0 3.3975,-1.0721 3.7784,-2.9385 0.2263,-1.1227 -0.0386,-2.2537 -0.7424,-3.12941 z M 57.2668,14.018 h -0.0303 l -2.0811,-0.0309 v -2.0853 c 0,-0.9346 0.138,-1.3697 0.5769,-1.8271 0.4305,-0.45753 0.9963,-0.67645 1.6698,-0.66522 1.3193,0.03087 2.2356,0.99352 2.2273,2.34352 -0.0276,1.3416 -0.9936,2.265 -2.3626,2.265 z"
       fill="#ffffff"
       id="path6225"
       style="fill:#ffffff" />
    <path
       d="m 78.0797,11.1579 c -0.0883,-0.1684 -0.2539,-0.2975 -0.4388,-0.348 -0.196,-0.0505 -0.4002,-0.0112 -0.5658,0.1095 -0.2926,0.1993 -0.3229,0.5361 -0.3229,0.8644 v 4.0023 c 0,0.7858 -0.2346,1.4201 -0.6541,1.7962 -0.3699,0.3284 -0.8694,0.4575 -1.4463,0.3761 -0.9963,-0.1403 -1.5428,-0.8644 -1.5428,-2.046 v -4.1482 c 0,-0.247 -0.0193,-0.4266 -0.0966,-0.595 -0.0883,-0.1684 -0.2539,-0.2975 -0.4389,-0.348 -0.1959,-0.0506 -0.4002,-0.0113 -0.5658,0.1094 -0.3036,0.2077 -0.3505,0.5557 -0.3505,0.8645 v 4.151 c 0,1.6587 0.7425,2.829 2.1004,3.3062 1.046,0.3676 2.1887,0.188 2.978,-0.407 v 0.0309 c -0.1269,0.8728 -0.5658,1.4005 -1.3469,1.6082 -0.4195,0.1179 -0.85,0.0898 -1.1812,-0.0786 -0.2733,-0.1403 -0.4692,-0.2975 -0.5852,-0.4659 l -0.2152,-0.2779 -0.138,-0.1599 c -0.0884,-0.1179 -0.1574,-0.1797 -0.196,-0.2077 L 73.0345,19.2551 72.9958,19.2354 C 72.7999,19.1175 72.557,19.1063 72.35,19.2046 c -0.2153,0.0982 -0.3699,0.2975 -0.4113,0.5276 -0.0496,0.3172 0.0773,0.5866 0.3036,0.9346 l 0.0111,0.0112 c 0.1656,0.2386 0.3919,0.4772 0.6348,0.6764 C 73.4153,21.781 74.1081,22 74.8423,22 c 0.3118,0 0.6237,-0.0393 0.9384,-0.1179 1.5732,-0.407 2.4426,-1.6896 2.4426,-3.6065 v -6.5114 c 0.011,-0.3087 -0.0773,-0.4771 -0.127,-0.5866 z"
       fill="#ffffff"
       id="path6227"
       style="fill:#ffffff" />
    <path
       d="M 27.3624,12.9178 27.3321,12.828 c -0.5079,-1.4314 -1.6809,-2.2734 -3.1243,-2.2649 -0.265,0 -0.4692,0.0196 -0.6928,0.0701 -1.1537,0.2582 -2.5199,1.103 -2.5199,3.6542 v 4.0332 c 0,0.3087 0.0883,0.4855 0.138,0.5866 v 0.0112 c 0.0883,0.1684 0.2539,0.2975 0.4389,0.348 0.0496,0.0112 0.1076,0.0197 0.1656,0.0197 0.1462,0 0.2842,-0.0393 0.4002,-0.1291 0.2925,-0.1993 0.3312,-0.5361 0.3312,-0.8645 v -0.9542 l -0.0304,-1.6784 h 2.081 c 0.6845,0 0.8501,-0.3564 0.8694,-0.6652 0.0111,-0.2582 -0.0883,-0.4182 -0.1656,-0.5052 -0.1462,-0.16 -0.3808,-0.2385 -0.7038,-0.2385 h -2.0893 c 0.0111,-1.3107 0.4306,-1.9563 1.3966,-2.1639 0.6541,-0.1488 1.2999,0.0701 1.7001,0.5557 0.196,0.2469 0.3119,0.4659 0.3616,0.6651 0.1463,0.7157 0.2236,0.9346 0.3229,1.0722 l 0.0304,0.0393 c 0.2153,0.2469 0.5961,0.3171 0.908,0.1599 0.4582,-0.2469 0.4113,-0.8335 0.3119,-1.3219 -0.0304,-0.1319 -0.0607,-0.2414 -0.0994,-0.3396 z"
       fill="#ffffff"
       id="path6229"
       style="fill:#ffffff" />
    <path
       d="M 80.6879,8.66572 C 80.4837,8.45803 80.2298,8.34857 79.9262,8.34857 c -0.2926,0 -0.5465,0.09823 -0.7618,0.31715 -0.2042,0.21892 -0.3119,0.47713 -0.3119,0.77463 0,0.29751 0.1077,0.55572 0.3119,0.77465 0.2043,0.2189 0.4582,0.3284 0.7618,0.3284 0.2925,0 0.5465,-0.1095 0.7617,-0.3284 0.2043,-0.21893 0.3119,-0.47714 0.3119,-0.77465 0,-0.30873 -0.0966,-0.56694 -0.3119,-0.77463 z m -0.1186,1.43978 c -0.1767,0.1881 -0.4002,0.2779 -0.6542,0.2779 -0.2539,0 -0.4692,-0.0898 -0.6541,-0.2779 -0.1849,-0.18802 -0.2732,-0.41816 -0.2732,-0.67637 0,-0.25821 0.0966,-0.47713 0.2732,-0.66518 0.1849,-0.17962 0.4002,-0.27785 0.6541,-0.27785 0.254,0 0.4692,0.08981 0.6542,0.27785 0.1849,0.17963 0.2732,0.40697 0.2732,0.66518 0,0.26943 -0.0966,0.48835 -0.2732,0.67637 z"
       fill="#ffffff"
       id="path6231"
       style="fill:#ffffff" />
    <path
       d="M 80.4039,9.17361 C 80.4039,9.01364 80.3349,8.9154 80.219,8.86488 80.15,8.83401 80.0424,8.82559 79.8961,8.82559 h -0.4112 v 1.20121 h 0.2152 V 9.5497 h 0.1656 c 0.116,0 0.185,0.01123 0.2346,0.0393 0.069,0.05052 0.1077,0.14033 0.1077,0.27785 v 0.14875 0.0112 h 0.1959 l -0.011,-0.0112 c -0.011,-0.0112 -0.011,-0.03087 -0.011,-0.05893 V 9.77704 c 0,-0.05894 -0.0304,-0.1291 -0.069,-0.18804 -0.0497,-0.05894 -0.116,-0.09824 -0.2043,-0.11788 0.0773,-0.01123 0.138,-0.03088 0.1767,-0.05894 0.08,-0.05052 0.1186,-0.12911 0.1186,-0.23857 z m -0.3312,0.2077 C 80.0341,9.40095 79.9651,9.41218 79.8768,9.41218 H 79.6919 V 8.97434 h 0.1766 c 0.1159,0 0.2042,0.01965 0.2539,0.05052 0.058,0.03088 0.0773,0.08982 0.0773,0.1684 0,0.08981 -0.0497,0.15717 -0.127,0.18805 z"
       fill="#ffffff"
       id="path6233"
       style="fill:#ffffff" />
  </g>
</svg>
