<svg xmlns="http://www.w3.org/2000/svg" width="32" height="24" fill="none"><path fill="#8ace00" d="M28 0H4a4 4 0 0 0-4 4v16a4 4 0 0 0 4 4h24a4 4 0 0 0 4-4V4a4 4 0 0 0-4-4" style="fill:#fff"/><path fill="#00a2e9" fill-rule="evenodd" d="M13.076 10.956a3.06 3.06 0 0 0-.038 1.721A3.07 3.07 0 0 0 16 14.952c1.382 0 2.605-.93 2.962-2.275a3.06 3.06 0 0 0-.038-1.72l-.01-.038v-.038a.889.889 0 0 1 1.637-.517l.019.028.01.038c.272.874.3 1.805.055 2.689a4.79 4.79 0 0 1-3.826 3.488l.056-.01v3.132a9 9 0 0 1-.865.047A7.773 7.773 0 0 1 8.224 12 7.773 7.773 0 0 1 16 4.224 7.773 7.773 0 0 1 23.776 12a7.784 7.784 0 0 1-6.093 7.597v-1.72A6.106 6.106 0 0 0 22.103 12a6.112 6.112 0 1 0-12.224 0 6.096 6.096 0 0 0 5.247 6.046v-1.439c.009 0-2.953-.442-3.77-3.479a4.84 4.84 0 0 1 .056-2.689l.009-.037.019-.029a.9.9 0 0 1 1.015-.366c.376.122.64.48.62.884v.037zm4.428-1.56.865-1.505a4.93 4.93 0 0 0-2.773-.611l-.085.01a4.6 4.6 0 0 0-1.871.601l.865 1.495a3.07 3.07 0 0 1 3 .01M16 10.241c.968 0 1.758.79 1.758 1.758s-.79 1.758-1.758 1.758-1.758-.79-1.758-1.758.79-1.758 1.758-1.758" clip-rule="evenodd" style="stroke-width:.706909"/></svg>