<svg xmlns="http://www.w3.org/2000/svg" width="32" height="24" fill="none" viewBox="0 0 32 24"><clipPath id="a"><rect width="32" height="24" fill="#fff" rx="4"/></clipPath><rect width="32" height="24" fill="#fff" stroke="#e6e6e6" stroke-width="2" clip-path="url(#a)" rx="4"/><path fill="#00a2e9" fill-rule="evenodd" d="M12.69 10.819a3.46 3.46 0 0 0-.042 1.947A3.47 3.47 0 0 0 16 15.341a3.47 3.47 0 0 0 3.352-2.575c.17-.638.16-1.32-.043-1.947l-.01-.043v-.042a1.006 1.006 0 0 1 1.851-.586l.021.032.011.043c.309.99.34 2.043.064 3.043a5.42 5.42 0 0 1-4.33 3.948l.063-.01v3.543A10 10 0 0 1 16 20.8 8.796 8.796 0 0 1 7.2 12c0-4.863 3.937-8.8 8.8-8.8s8.8 3.937 8.8 8.8a8.81 8.81 0 0 1-6.895 8.598V18.65a6.91 6.91 0 0 0 5-6.651 6.916 6.916 0 1 0-13.832 0 6.9 6.9 0 0 0 5.937 6.842v-1.628c.011 0-3.34-.5-4.267-3.937a5.5 5.5 0 0 1 .064-3.043l.01-.043.022-.032a1.015 1.015 0 0 1 1.15-.415c.425.138.723.543.702 1v.075m5.013-1.767.979-1.702c-.937-.532-2.022-.766-3.14-.692l-.095.01a5.2 5.2 0 0 0-2.118.682l.98 1.692a3.47 3.47 0 0 1 3.394.01M16 10.01c1.096 0 1.99.894 1.99 1.99s-.894 1.99-1.99 1.99A1.994 1.994 0 0 1 14.01 12c0-1.096.894-1.99 1.99-1.99" clip-rule="evenodd"/></svg>