<svg xmlns="http://www.w3.org/2000/svg" width="640" height="360"><g fill="none" fill-rule="nonzero"><path fill="#0071B9" d="M524 166.542l-20.308-8.308c-14.769-5.538-24.923-8.308-24.923-16.615 0-7.385 6.462-11.077 17.539-11.077 12 0 22.154 3.692 33.23 12l22.154-27.693C536 100.08 514.77 92.696 496.308 92.696c-36.923 0-61.846 23.077-61.846 51.692 0 24 15.692 39.692 34.153 46.154l21.231 8.307c13.846 5.539 23.077 8.308 23.077 16.616 0 7.384-5.538 12-19.385 12-12 0-27.692-6.462-38.769-16.616l-24.923 30.462c18.462 16.615 42.462 24 63.692 24 41.539 0 65.539-24.923 65.539-53.538-2.77-22.154-14.77-36.924-35.077-45.231zm-197.538 22.154h-.924l-35.076-93.231h-41.539v167.077h36v-70.154c0-8.308-.923-25.846-.923-25.846h.923l32.308 82.154h16.615l32.308-82.154s-.923 17.538-.923 25.846v70.154h36V95.465h-40.616l-34.153 93.23zm-187.385 24.923v-12h-36.923v11.077c0 26.769 22.154 48.923 48.923 48.923H212v-36h-60c-6.462.923-12.923-4.616-12.923-12zM102.154 95.465H212v36.923h-72.923v19.385h-36.923V95.465z"/><path fill="#FFCB00" d="M193.538 180.388h-108L80 195.157h113.538zM193.538 159.157H92.923l-4.615 13.846h105.23z"/></g></svg>