<svg xmlns="http://www.w3.org/2000/svg" width="640" height="360"><g fill="none" fill-rule="evenodd"><path fill="#0B4A8E" d="m80.272 251.204 4.917-.496c.296 1.658.897 2.875 1.801 3.654.906.778 2.127 1.166 3.664 1.166 1.627 0 2.853-.345 3.68-1.036.824-.691 1.236-1.5 1.236-2.425 0-.593-.173-1.097-.518-1.515-.347-.417-.95-.778-1.814-1.088-.591-.202-1.936-.564-4.035-1.086-2.704-.668-4.598-1.492-5.689-2.47-1.532-1.374-2.298-3.05-2.298-5.028 0-1.27.36-2.462 1.084-3.568.721-1.109 1.764-1.953 3.123-2.532 1.36-.579 3.002-.87 4.926-.87 3.14 0 5.504.692 7.092 2.072 1.587 1.382 2.42 3.225 2.5 5.531l-5.066.199c-.216-1.288-.68-2.214-1.392-2.78-.71-.564-1.777-.847-3.2-.847-1.468 0-2.616.302-3.447.906-.536.386-.803.905-.803 1.554 0 .593.252 1.098.752 1.521.636.535 2.182 1.093 4.64 1.67 2.455.579 4.272 1.178 5.45 1.802 1.176.622 2.098 1.472 2.764 2.55.664 1.082.998 2.415.998 4.002 0 1.44-.4 2.787-1.197 4.043-.798 1.257-1.925 2.19-3.382 2.8-1.458.611-3.274.918-5.45.918-3.166 0-5.598-.736-7.296-2.208-1.696-1.473-2.71-3.618-3.04-6.44m25.615 8.2h4.817v-18.138h-4.817v18.138zm0-20.622h4.817v-4.424h-4.817v4.424zm27.302 20.622h-4.817v-9.277c0-1.963-.103-3.232-.307-3.807-.205-.576-.535-1.026-.995-1.346-.46-.318-1.012-.478-1.658-.478-.828 0-1.57.229-2.228.685a3.438 3.438 0 0 0-1.35 1.814c-.246.753-.366 2.144-.366 4.176v8.233h-4.818v-18.138h4.47v2.665c1.58-2.075 3.574-3.112 5.974-3.112 1.059 0 2.027.193 2.902.574.876.382 1.539.87 1.989 1.463.45.593.763 1.266.939 2.02.176.752.265 1.83.265 3.233v11.295m9.743-9.46c0 1.93.37 3.344 1.11 4.24.739.898 1.651 1.345 2.737 1.345 1.162 0 2.144-.46 2.947-1.38.8-.918 1.203-2.281 1.203-4.086 0-1.883-.385-3.282-1.153-4.197-.769-.912-1.738-1.37-2.913-1.37-1.141 0-2.082.45-2.821 1.345-.74.898-1.11 2.264-1.11 4.103zm-4.321 10.653 5.463.596c.092.676.303 1.14.634 1.395.458.362 1.178.543 2.16.543 1.257 0 2.2-.187 2.829-.563.421-.25.742-.655.96-1.213.148-.4.222-1.134.222-2.205l.015-2.648c-1.421 1.935-3.224 2.902-5.41 2.902-2.44 0-4.37-1.03-5.794-3.096-1.117-1.632-1.675-3.664-1.675-6.094 0-3.047.731-5.373 2.195-6.983 1.464-1.607 3.285-2.412 5.461-2.412 2.244 0 4.096.988 5.555 2.96v-2.513h4.471v16.304c0 2.146-.176 3.749-.53 4.808-.354 1.062-.85 1.894-1.489 2.498-.639.604-1.49 1.078-2.557 1.42-1.066.342-2.414.514-4.043.514-3.08 0-5.263-.532-6.552-1.592-1.289-1.06-1.933-2.406-1.933-4.036 0-.16.007-.355.018-.585zM161.466 259.403h4.818v-25.046h-4.818zM183.057 248.818c-.033-1.412-.394-2.483-1.082-3.22-.687-.734-1.523-1.103-2.509-1.103-1.053 0-1.924.39-2.61 1.164-.69.774-1.026 1.828-1.015 3.16h7.216Zm-.248 4.871 4.768.795c-.616 1.748-1.59 3.08-2.921 3.995-1.33.916-2.996 1.372-4.994 1.372-3.165 0-5.506-1.035-7.024-3.104-1.2-1.657-1.799-3.748-1.799-6.276 0-3.015.787-5.38 2.364-7.09 1.575-1.709 3.566-2.563 5.974-2.563 2.707 0 4.842.897 6.406 2.69 1.563 1.795 2.31 4.54 2.242 8.243h-12.068c.033 1.428.424 2.538 1.171 3.333.747.792 1.679 1.19 2.794 1.19.759 0 1.397-.204 1.914-.613.517-.407.91-1.065 1.173-1.972ZM203.589 259.403v-25.046h18.528v4.225h-13.461v5.566h12.516v4.224h-12.516v6.807h13.956v4.224h-19.023M239.832 259.403v-2.716a7.167 7.167 0 0 1-2.611 2.309 7.22 7.22 0 0 1-3.416.855c-1.222 0-2.316-.268-3.287-.804-.97-.536-1.672-1.29-2.106-2.258-.434-.97-.65-2.311-.65-4.022v-11.502h4.818v8.342c0 2.554.087 4.119.265 4.693.176.579.498 1.034.965 1.37.467.336 1.058.503 1.777.503.82 0 1.556-.222 2.204-.674.65-.45 1.094-1.008 1.334-1.676.238-.666.359-2.3.359-4.898v-7.66h4.817v18.138h-4.469m15.056 0h-4.817v-18.138h4.47v2.58c.764-1.219 1.45-2.027 2.06-2.427.611-.4 1.303-.6 2.078-.6 1.094 0 2.15.304 3.163.91l-1.465 4.2c-.81-.524-1.567-.786-2.264-.786-.675 0-1.246.186-1.715.555-.468.372-.837 1.041-1.106 2.01-.268.968-.404 3-.404 6.087v5.609m13.814-9.07c0 1.809.428 3.19 1.284 4.151.857.96 1.912 1.441 3.17 1.441 1.255 0 2.309-.48 3.16-1.44.85-.961 1.276-2.356 1.276-4.184 0-1.783-.426-3.157-1.277-4.116-.85-.96-1.904-1.44-3.16-1.44-1.257 0-2.312.48-3.169 1.44-.856.959-1.284 2.344-1.284 4.149zm-4.918-.257c0-1.6.393-3.148 1.18-4.646.785-1.497 1.897-2.64 3.339-3.429 1.44-.789 3.05-1.183 4.827-1.183 2.745 0 4.994.894 6.749 2.683 1.753 1.789 2.63 4.05 2.63 6.782 0 2.754-.887 5.04-2.657 6.85-1.77 1.812-4 2.718-6.689 2.718-1.662 0-3.248-.378-4.757-1.13-1.51-.756-2.657-1.86-3.442-3.319-.787-1.458-1.18-3.231-1.18-5.326zm39.48-11.494v7.156h2.759c1.987 0 3.315-.13 3.986-.394.67-.264 1.195-.678 1.575-1.24.38-.562.57-1.215.57-1.961 0-.918-.266-1.675-.8-2.271-.534-.596-1.21-.969-2.027-1.118-.602-.114-1.81-.172-3.628-.172h-2.435zm-5.066 20.82v-25.045h8.11c3.072 0 5.076.127 6.009.377 1.433.375 2.633 1.194 3.601 2.454.968 1.258 1.452 2.884 1.452 4.878 0 1.538-.279 2.83-.836 3.88-.557 1.047-1.266 1.87-2.124 2.469-.858.6-1.73.993-2.618 1.187-1.206.24-2.951.36-5.235.36h-3.293v9.44h-5.066zm34.306-8.694c-.615.206-1.586.451-2.915.738-1.329.284-2.198.566-2.605.84-.626.446-.936 1.012-.936 1.697 0 .676.248 1.258.747 1.751.5.492 1.136.738 1.91.738.863 0 1.685-.286 2.47-.857.579-.436.96-.967 1.141-1.597.124-.411.188-1.195.188-2.351v-.96zm-6.456-3.927-4.322-.795c.49-1.757 1.332-3.056 2.527-3.9 1.197-.845 2.974-1.268 5.331-1.268 2.141 0 3.737.255 4.784.76 1.048.51 1.787 1.155 2.213 1.936.427.78.642 2.216.642 4.304l-.05 5.614c0 1.596.077 2.776.23 3.533.154.759.441 1.571.862 2.438h-4.768c-.127-.313-.28-.78-.462-1.396-.08-.282-.137-.466-.169-.557-.82.8-1.696 1.401-2.629 1.802-.933.399-1.926.6-2.985.6-1.866 0-3.337-.51-4.412-1.524-1.074-1.016-1.611-2.301-1.611-3.853 0-1.026.244-1.942.732-2.746a4.817 4.817 0 0 1 2.06-1.85c.884-.426 2.157-.803 3.82-1.123 2.242-.421 3.797-.814 4.663-1.18v-.485c0-.935-.229-1.6-.687-2-.46-.398-1.322-.596-2.594-.596-.858 0-1.527.17-2.009.507-.481.339-.87.932-1.166 1.78zm14.633-5.516h5.115l4.347 12.878 4.247-12.878h4.967l-7.556 20.646c-.423 1.062-.825 1.871-1.207 2.431a5.248 5.248 0 0 1-1.317 1.36c-.498.348-1.105.622-1.83.814-.724.196-1.543.293-2.455.293-.924 0-1.833-.097-2.721-.291l-.448-3.761c.754.15 1.438.224 2.043.224 1.124 0 1.952-.332 2.491-.994.539-.665.95-1.51 1.237-2.533l-6.913-18.189m22.433 0h4.42v2.478c1.588-1.95 3.478-2.925 5.671-2.925 1.164 0 2.175.239 3.031.717.857.48 1.56 1.206 2.106 2.174.798-.968 1.661-1.693 2.583-2.174a6.338 6.338 0 0 1 2.958-.717c1.335 0 2.463.27 3.387.814.923.54 1.615 1.336 2.07 2.387.33.775.495 2.03.495 3.764v11.62h-4.817v-10.389c0-1.803-.166-2.966-.495-3.49-.445-.687-1.126-1.03-2.047-1.03-.672 0-1.305.206-1.896.618-.591.412-1.017 1.013-1.278 1.806-.262.792-.394 2.045-.394 3.756v8.729h-4.817v-9.96c0-1.771-.085-2.91-.256-3.425-.17-.514-.434-.895-.793-1.146-.36-.25-.844-.377-1.46-.377-.739 0-1.405.2-1.996.6-.591.398-1.014.976-1.271 1.728-.256.754-.383 2.002-.383 3.748v8.832h-4.818v-18.138m43.316 7.553c-.035-1.412-.394-2.483-1.084-3.22-.685-.734-1.522-1.103-2.508-1.103-1.052 0-1.925.39-2.61 1.164-.688.774-1.025 1.828-1.014 3.16h7.216zm-.248 4.871 4.768.795c-.618 1.748-1.59 3.08-2.92 3.995-1.333.916-2.997 1.372-4.996 1.372-3.163 0-5.504-1.035-7.024-3.104-1.2-1.657-1.8-3.748-1.8-6.276 0-3.015.79-5.38 2.364-7.09 1.577-1.709 3.567-2.563 5.976-2.563 2.707 0 4.84.897 6.404 2.69 1.564 1.795 2.313 4.54 2.244 8.243h-12.07c.035 1.428.426 2.538 1.173 3.333.746.792 1.677 1.19 2.795 1.19.758 0 1.395-.204 1.912-.613.52-.407.91-1.065 1.174-1.972zm26.456 5.714h-4.818v-9.277c0-1.963-.103-3.232-.305-3.807-.205-.576-.537-1.026-.996-1.346-.46-.318-1.013-.478-1.658-.478-.827 0-1.57.229-2.227.685a3.45 3.45 0 0 0-1.352 1.814c-.244.753-.366 2.144-.366 4.176v8.233h-4.817v-18.138h4.469v2.665c1.583-2.075 3.575-3.112 5.975-3.112 1.058 0 2.028.193 2.902.574.876.382 1.54.87 1.99 1.463.45.593.761 1.266.937 2.02.178.752.266 1.83.266 3.233v11.295m14.214-18.138v3.826h-3.279v7.339c0 1.485.03 2.352.092 2.597.06.246.2.448.418.609.22.159.483.24.796.24.44 0 1.069-.154 1.898-.461l.421 3.718c-1.11.478-2.368.718-3.771.718-.863 0-1.637-.146-2.329-.437-.69-.29-1.197-.668-1.52-1.13-.323-.462-.546-1.087-.67-1.874-.103-.56-.153-1.69-.153-3.39v-7.929h-2.185v-3.826h2.185v-3.627l4.818-2.832v6.459h3.279m2.71 13.02 4.817-.745c.205.927.62 1.63 1.245 2.112.626.481 1.5.72 2.626.72 1.24 0 2.174-.229 2.798-.687.422-.323.633-.75.633-1.291 0-.366-.116-.671-.345-.91-.241-.23-.779-.442-1.615-.638-3.892-.86-6.36-1.644-7.4-2.351-1.443-.982-2.163-2.348-2.163-4.092 0-1.578.621-2.902 1.869-3.974 1.25-1.073 3.184-1.61 5.805-1.61 2.495 0 4.348.401 5.562 1.204 1.213.805 2.05 1.993 2.509 3.566l-4.52.844c-.196-.704-.568-1.247-1.115-1.622-.548-.377-1.329-.564-2.341-.564-1.278 0-2.195.176-2.747.534-.37.251-.553.577-.553.978 0 .345.16.638.48.88.434.319 1.936.772 4.503 1.357 2.567.586 4.36 1.301 5.379 2.149 1.004.858 1.51 2.056 1.51 3.59 0 1.672-.697 3.11-2.084 4.311-1.39 1.204-3.444 1.805-6.165 1.805-2.469 0-4.424-.5-5.864-1.498-1.44-1-2.38-2.353-2.824-4.067m46.256-4.771-3.5-9.293-3.382 9.293h6.882zm9.29 9.888h-5.454l-2.165-5.664h-10.09l-2.063 5.664h-5.36l9.696-25.046H495l10.108 25.046zm8.272 0h-4.818v-18.138h4.47v2.58c.764-1.219 1.45-2.027 2.061-2.427.609-.4 1.3-.6 2.077-.6 1.094 0 2.148.304 3.163.91l-1.465 4.2c-.812-.524-1.567-.786-2.263-.786-.678 0-1.248.186-1.717.555-.469.372-.838 1.041-1.105 2.01-.27.968-.403 3-.403 6.087v5.609m20.865-10.585c-.035-1.412-.395-2.483-1.082-3.22-.688-.734-1.524-1.103-2.508-1.103-1.056 0-1.925.39-2.612 1.164-.688.774-1.026 1.828-1.014 3.16h7.216zm-.248 4.871 4.769.795c-.617 1.748-1.591 3.08-2.922 3.995-1.33.916-2.996 1.372-4.994 1.372-3.164 0-5.507-1.035-7.025-3.104-1.2-1.657-1.799-3.748-1.799-6.276 0-3.015.788-5.38 2.365-7.09 1.574-1.709 3.567-2.563 5.975-2.563 2.705 0 4.84.897 6.405 2.69 1.562 1.795 2.31 4.54 2.243 8.243h-12.07c.035 1.428.426 2.538 1.171 3.333.749.792 1.68 1.19 2.794 1.19.76 0 1.397-.204 1.915-.613.517-.407.908-1.065 1.173-1.972zm19.949-2.981c-.614.206-1.586.451-2.915.738-1.329.284-2.197.566-2.605.84-.626.446-.936 1.012-.936 1.697 0 .676.248 1.258.748 1.751.5.492 1.135.738 1.91.738.862 0 1.684-.286 2.47-.857.578-.436.96-.967 1.14-1.597.124-.411.188-1.195.188-2.351v-.96zm-6.456-3.927-4.322-.795c.49-1.757 1.332-3.056 2.527-3.9 1.197-.845 2.974-1.268 5.331-1.268 2.141 0 3.737.255 4.784.76 1.048.51 1.787 1.155 2.213 1.936.427.78.642 2.216.642 4.304l-.05 5.614c0 1.596.077 2.776.23 3.533.154.759.441 1.571.861 2.438h-4.767c-.127-.313-.278-.78-.462-1.396a9.449 9.449 0 0 0-.169-.557c-.82.8-1.694 1.401-2.627 1.802-.933.399-1.928.6-2.986.6-1.866 0-3.338-.51-4.413-1.524-1.072-1.016-1.61-2.301-1.61-3.853 0-1.026.243-1.942.733-2.746a4.804 4.804 0 0 1 2.058-1.85c.884-.426 2.157-.803 3.82-1.123 2.242-.421 3.797-.814 4.663-1.18v-.485c0-.935-.229-1.6-.687-2-.457-.398-1.322-.596-2.594-.596-.858 0-1.527.17-2.009.507-.48.339-.87.932-1.166 1.78zM186.657 135.943h-32.802c0-5.386-.633-9-1.892-10.84-1.951-2.722-7.34-4.085-16.157-4.085-8.564 0-14.241.784-17.012 2.353-2.769 1.575-4.155 4.998-4.155 10.27 0 4.772 1.227 7.914 3.688 9.42 1.763 1.069 4.091 1.697 6.995 1.885l6.615.467c14.177.942 23.032 1.605 26.564 1.982 11.211 1.13 19.34 4.114 24.383 8.948 3.968 3.772 6.335 8.701 7.09 14.789.442 3.641.661 7.762.661 12.34 0 10.552-1.006 18.28-3.021 23.179-3.653 8.986-11.857 14.662-24.623 17.045-5.349 1.008-13.53 1.513-24.536 1.513-18.37 0-31.173-1.095-38.401-3.294-8.873-2.694-14.722-8.151-17.552-16.37-1.577-4.574-2.357-12.193-2.357-22.859h32.802c0 1.19.003 2.1.003 2.726 0 5.691 1.635 9.352 4.898 10.982 2.262 1.124 4.993 1.714 8.203 1.784h12.06c6.153 0 10.08-.315 11.775-.948 3.015-1.186 4.994-3.096 5.94-5.739.502-1.627.751-3.732.751-6.308 0-5.771-2.105-9.282-6.31-10.542-1.571-.497-8.886-1.19-21.941-2.07-10.484-.75-17.767-1.47-21.845-2.168-10.74-2.01-17.897-6.143-21.468-12.418-3.14-5.332-4.71-13.399-4.71-24.19 0-8.218.85-14.808 2.545-19.765 1.698-4.958 4.433-8.722 8.208-11.297 5.53-3.951 12.605-6.271 21.218-6.965 7.167-.625 15.117-.944 23.862-.944 13.768 0 23.579.792 29.428 2.361 14.274 3.837 21.41 14.586 21.41 32.248 0 1.449-.106 3.615-.317 6.51m179.507 25.016h21.982c6.97-.251 11.208-.787 12.734-1.627 2.084-1.146 3.482-3.44 4.179-6.884.445-2.291.667-5.697.667-10.223 0-5.544-.442-9.653-1.33-12.337-1.269-3.76-4.306-6.05-9.117-6.88-.95-.127-3.228-.193-6.836-.193h-22.279v38.144zm-35.26 64.25V94.13h65.693c9.01 0 15.886.737 20.61 2.208 10.804 3.387 18.053 10.322 21.766 20.803 1.917 5.5 2.875 13.782 2.875 24.84 0 13.296-1.063 22.852-3.166 28.669-4.213 11.504-12.887 18.13-25.983 19.847-1.54.258-8.093.489-19.66.673l-5.853.196h-21.022v33.843h-35.26zm179.208-48.19-16.52-56.82-16.033 56.82h32.553zm7.003 25.535H469.97l-6.333 22.655h-36.48L466.52 94.13h53.188l39.846 131.079h-35.714l-6.726-22.655z"/><path fill="#F6BC25" d="M282.239 112.572c14.543 0 27.522 6.703 36.054 17.201l7.6-16.304c-11.887-11.241-28.065-18.171-45.91-18.171-27.782 0-51.549 16.788-61.303 40.552h-14.82l-8.752 18.77h19.066a64.01 64.01 0 0 0-.235 5.263c0 2.151.111 4.277.324 6.378h-9.582l-8.75 18.777h23.204c10.032 23.163 33.501 39.425 60.849 39.425 13.781 0 26.57-4.132 37.158-11.189v-23.012c-8.527 9.713-20.999 15.851-34.903 15.851-16.253 0-30.55-8.385-38.875-21.075h48.59l8.749-18.777h-64.488a47.542 47.542 0 0 1-.51-6.92c0-1.59.082-3.165.235-4.72h70.186l8.75-18.771H242.01c8.058-13.915 23.054-23.278 40.229-23.278"/><path fill="#0B4A8E" d="M242.01 136.414h72.866l-.51-.803-8.747 18.773.507-.325h-70.693l-.054.51a48.47 48.47 0 0 0-.237 4.771c0 2.322.175 4.682.516 7.005l.073.482h64.972l-.507-.801-8.751 18.772.508-.324H242.32l.574.868c8.756 13.36 23.466 21.326 39.346 21.326 13.499 0 26.376-5.84 35.33-16.035l-.99-.371v23.012l.249-.464c-10.888 7.253-23.625 11.088-36.844 11.088-26.37 0-50.05-15.342-60.33-39.087l-.149-.337h-23.574l.515.804 8.747-18.779-.512.328h10.202l-.062-.623a64.093 64.093 0 0 1-.32-6.321c0-1.592.077-3.299.234-5.213l.05-.61h-19.677l.507.802 8.753-18.775-.509.327h15.2l.141-.35c4.816-11.732 13.008-21.735 23.685-28.934 10.937-7.369 23.768-11.265 37.099-11.265 17.071 0 33.236 6.393 45.522 18.011l-.126-.649-7.596 16.31.946-.118c-8.996-11.065-22.293-17.411-36.491-17.411-16.702 0-32.3 9.027-40.72 23.56l-.49.846h.98Zm40.229-23.279c13.858 0 26.839 6.196 35.615 16.995l.568.698.384-.814 7.598-16.306.17-.371-.293-.28c-12.494-11.815-28.936-18.32-46.297-18.32-13.556 0-26.602 3.962-37.728 11.462-10.864 7.32-19.195 17.501-24.092 29.438l.516-.35h-15.182l-.15.324-9.122 19.576h19.948l-.56-.611a64.316 64.316 0 0 0-.238 5.307c0 2.107.107 4.274.325 6.434l.562-.616h-9.938l-.151.325-8.753 18.772-.37.802h24.084l-.515-.34c10.46 24.155 34.547 39.766 61.364 39.766 13.443 0 26.396-3.9 37.47-11.281l.25-.167v-24.812l-.985 1.124c-8.736 9.95-21.304 15.656-34.48 15.656-15.502 0-29.859-7.785-38.406-20.821l-.47.875h48.95l.15-.322 8.752-18.779.373-.798h-65.373l.559.479a47.212 47.212 0 0 1-.505-6.84c0-1.544.077-3.11.233-4.662l-.562.509h70.55l.148-.325 8.75-18.775.376-.8H242.01l.483.844c8.217-14.185 23.448-22.996 39.746-22.996Z"/></g></svg>