<svg xmlns="http://www.w3.org/2000/svg" width="640" height="360" viewBox="0 0 169.333 95.25"><path d="M123.926 24.096h-7.283q0-1.794-.42-2.406-.651-.907-3.587-.907-2.853 0-3.778.523-.921.524-.922 2.279 0 1.589.819 2.09.585.356 1.553.418l1.468.104q4.722.314 5.898.44 3.734.376 5.414 1.985 1.323 1.256 1.574 3.282.147 1.214.147 2.739 0 3.513-.67 5.143-1.217 2.991-5.468 3.783-1.782.336-5.447.336-6.12 0-8.526-.731-2.955-.898-3.897-3.633-.525-1.523-.524-5.073h7.283l.001.605q0 1.894 1.088 2.437.752.373 1.82.396h2.678q2.05 0 2.614-.21 1.005-.394 1.32-1.274.166-.541.166-1.4 0-1.92-1.4-2.34-.525-.165-4.872-.458-3.492-.249-4.85-.481-3.578-.669-4.767-2.756-1.045-1.776-1.045-5.368 0-2.736.565-4.386t1.822-2.507q1.842-1.315 4.71-1.546a61 61 0 0 1 5.299-.21q4.585 0 6.534.525 4.753 1.276 4.753 7.156 0 .481-.07 1.445M163.781 29.647h4.88q2.322-.083 2.828-.361.694-.381.928-1.528.148-.763.148-2.268 0-1.846-.296-2.738-.422-1.252-2.024-1.527-.315-.042-1.518-.043h-4.946zm-7.828 14.258V14.817h14.585q3.001 0 4.576.49 3.597 1.127 4.833 4.616.638 1.83.638 5.512-.001 4.425-.703 6.363c-.936 2.552-2.861 4.023-5.77 4.404q-.512.087-4.364.149l-1.3.043h-4.667v7.51zM195.741 33.21l-3.668-12.608-3.56 12.609Zm1.555 5.667h-10.467l-1.406 5.028h-8.1l8.74-29.088h11.809l8.847 29.088h-7.93z" style="fill:#10298f;fill-opacity:1;fill-rule:nonzero;stroke:none;stroke-width:.0352889" transform="translate(-110.688 10.258)scale(1.27268)"/><path d="M145.147 18.91c3.23 0 6.111 1.487 8.005 3.816l1.688-3.618a14.8 14.8 0 0 0-10.193-4.032c-6.169 0-11.446 3.725-13.611 8.999h-3.29l-1.944 4.165h4.233a14 14 0 0 0-.052 1.168q0 .716.072 1.415h-2.127l-1.943 4.167h5.152c2.227 5.14 7.438 8.75 13.51 8.75 3.06 0 5.899-.918 8.25-2.484V36.15a10.29 10.29 0 0 1-7.75 3.517c-3.608 0-6.782-1.86-8.63-4.677h10.787l1.943-4.167h-14.318a10.6 10.6 0 0 1-.061-2.583h15.583l1.943-4.165h-16.179c1.79-3.088 5.12-5.166 8.932-5.166" style="fill:#fbbc09;fill-opacity:1;fill-rule:nonzero;stroke:none;stroke-width:.0352889" transform="translate(-110.688 10.258)scale(1.27268)"/><path d="M136.215 24.2h16.179l-.114-.178-1.942 4.166.113-.072h-15.696l-.012.113a10.8 10.8 0 0 0 .062 2.613l.016.107h14.426l-.113-.178-1.943 4.166.113-.072h-11.02l.128.193a10.42 10.42 0 0 0 8.735 4.732c2.997 0 5.857-1.296 7.844-3.558l-.22-.082v5.106l.056-.103a14.7 14.7 0 0 1-8.18 2.46c-5.855 0-11.113-3.404-13.395-8.673l-.033-.075h-5.234l.114.179 1.942-4.168-.114.073h2.266l-.014-.138c-.047-.471-.072-.944-.072-1.403 0-.353.018-.732.053-1.157l.01-.135h-4.368l.112.178 1.944-4.167-.113.073h3.374l.032-.078a14.27 14.27 0 0 1 5.259-6.42 14.7 14.7 0 0 1 8.236-2.5c3.79 0 7.38 1.418 10.108 3.996l-.028-.143-1.687 3.619.21-.026a10.4 10.4 0 0 0-8.102-3.864c-3.708 0-7.171 2.003-9.04 5.228l-.11.188zm8.932-5.166c3.077 0 5.96 1.375 7.908 3.771l.126.155.085-.18 1.687-3.619.038-.082-.065-.062c-2.774-2.622-6.425-4.066-10.28-4.066-3.01 0-5.906.88-8.376 2.544a14.5 14.5 0 0 0-5.349 6.532l.115-.078h-3.371l-.034.073-1.942 4.166-.083.178h4.429l-.124-.136c-.036.433-.053.817-.053 1.178 0 .468.024.948.072 1.428l.125-.137h-2.207l-.033.072-1.943 4.166-.083.178h5.348l-.115-.076c2.323 5.36 7.67 8.825 13.625 8.825 2.985 0 5.86-.865 8.32-2.503l.055-.037v-5.506l-.219.25a10.2 10.2 0 0 1-7.655 3.473c-3.442 0-6.63-1.727-8.528-4.62l-.104.194h10.868l.034-.071 1.943-4.168.082-.177H134.93l.124.106a10.5 10.5 0 0 1-.06-2.552l-.125.113h15.663l.034-.072 1.942-4.167.084-.178h-16.376l.108.189c1.824-3.149 5.206-5.104 8.824-5.104" style="fill:#10298f;fill-opacity:1;fill-rule:nonzero;stroke:none;stroke-width:.0352889" transform="translate(-110.688 10.258)scale(1.27268)"/></svg>