<?xml version="1.0" encoding="UTF-8" standalone="no"?>
<!-- Created with Inkscape (http://www.inkscape.org/) -->

<svg
   width="640"
   height="360"
   viewBox="0 0 169.33333 95.25"
   version="1.1"
   id="svg4548"
   inkscape:export-filename="sepa.svg"
   inkscape:export-xdpi="96"
   inkscape:export-ydpi="96"
   sodipodi:docname="sepa-full-640x360.svg"
   inkscape:version="1.2.2 (b0a8486, 2022-12-01)"
   xmlns:inkscape="http://www.inkscape.org/namespaces/inkscape"
   xmlns:sodipodi="http://sodipodi.sourceforge.net/DTD/sodipodi-0.dtd"
   xmlns="http://www.w3.org/2000/svg"
   xmlns:svg="http://www.w3.org/2000/svg">
  <sodipodi:namedview
     id="namedview4550"
     pagecolor="#ffffff"
     bordercolor="#666666"
     borderopacity="1.0"
     inkscape:showpageshadow="2"
     inkscape:pageopacity="0.0"
     inkscape:pagecheckerboard="true"
     inkscape:deskcolor="#d1d1d1"
     inkscape:document-units="mm"
     showgrid="false"
     inkscape:zoom="0.39333333"
     inkscape:cx="212.28814"
     inkscape:cy="307.62712"
     inkscape:window-width="1442"
     inkscape:window-height="784"
     inkscape:window-x="0"
     inkscape:window-y="25"
     inkscape:window-maximized="0"
     inkscape:current-layer="layer1" />
  <defs
     id="defs4545">
    <clipPath
       clipPathUnits="userSpaceOnUse"
       id="clipPath1190">
      <path
         d="M 0,0 H 595.276 V 841.89 H 0 Z"
         id="path1188" />
    </clipPath>
    <clipPath
       clipPathUnits="userSpaceOnUse"
       id="clipPath1204">
      <path
         d="M 0,0 H 595.276 V 841.89 H 0 Z"
         id="path1202" />
    </clipPath>
    <clipPath
       clipPathUnits="userSpaceOnUse"
       id="clipPath1222">
      <path
         d="M 0,0 H 595.276 V 841.89 H 0 Z"
         id="path1220" />
    </clipPath>
    <clipPath
       clipPathUnits="userSpaceOnUse"
       id="clipPath1238">
      <path
         d="M 0,0 H 595.276 V 841.89 H 0 Z"
         id="path1236" />
    </clipPath>
    <clipPath
       clipPathUnits="userSpaceOnUse"
       id="clipPath1294">
      <path
         d="M 0,0 H 595.276 V 841.89 H 0 Z"
         id="path1292" />
    </clipPath>
    <clipPath
       clipPathUnits="userSpaceOnUse"
       id="clipPath1326">
      <path
         d="M 0,0 H 595.276 V 841.89 H 0 Z"
         id="path1324" />
    </clipPath>
  </defs>
  <g
     inkscape:label="Layer 1"
     inkscape:groupmode="layer"
     id="layer1">
    <g
       id="g5034"
       transform="matrix(1.024,0,0,1.024,-64.601602,-119.66618)">
      <g
         id="g1184"
         transform="matrix(0.93980313,0,0,-0.93980313,-158.30346,884.23284)">
        <g
           id="g1186"
           clip-path="url(#clipPath1190)">
          <g
             id="g1192"
             transform="translate(253.4012,746.2562)">
            <path
               d="m 0,0 1.443,0.141 c 0.088,-0.485 0.264,-0.841 0.53,-1.068 0.265,-0.228 0.624,-0.341 1.075,-0.341 0.477,0 0.838,0.101 1.081,0.303 0.242,0.202 0.363,0.439 0.363,0.71 0,0.174 -0.051,0.321 -0.153,0.443 C 4.236,0.31 4.059,0.417 3.805,0.506 3.631,0.567 3.234,0.674 2.617,0.827 1.821,1.025 1.264,1.267 0.942,1.554 0.491,1.958 0.266,2.452 0.266,3.033 c 0,0.374 0.105,0.725 0.318,1.05 C 0.796,4.409 1.102,4.657 1.502,4.828 1.9,4.999 2.383,5.083 2.947,5.083 3.87,5.083 4.564,4.881 5.031,4.477 5.497,4.073 5.742,3.533 5.766,2.858 L 4.281,2.793 C 4.218,3.171 4.082,3.442 3.873,3.607 3.664,3.773 3.351,3.856 2.933,3.856 2.502,3.856 2.164,3.767 1.92,3.59 1.763,3.476 1.684,3.324 1.684,3.133 1.684,2.96 1.758,2.811 1.904,2.688 2.092,2.53 2.547,2.366 3.269,2.196 3.99,2.025 4.524,1.849 4.87,1.667 5.217,1.485 5.486,1.236 5.682,0.92 5.878,0.604 5.976,0.214 5.976,-0.25 5.976,-0.671 5.858,-1.066 5.625,-1.433 5.391,-1.801 5.061,-2.075 4.633,-2.253 4.204,-2.432 3.672,-2.521 3.033,-2.521 c -0.929,0 -1.642,0.214 -2.14,0.644 C 0.395,-1.448 0.097,-0.822 0,0"
               style="fill:#273e6d;fill-opacity:1;fill-rule:nonzero;stroke:none"
               id="path1194" />
          </g>
        </g>
      </g>
      <path
         d="m 86.912785,178.23865 h 1.324183 v 1.2255 h -1.324183 z m 0,1.90405 h 1.324183 v 5.00347 h -1.324183 z"
         style="fill:#273e6d;fill-opacity:1;fill-rule:nonzero;stroke:none;stroke-width:0.939803"
         id="path1196" />
      <g
         id="g1198"
         transform="matrix(0.93980313,0,0,-0.93980313,-158.30346,884.23284)">
        <g
           id="g1200"
           clip-path="url(#clipPath1204)">
          <g
             id="g1206"
             transform="translate(268.9265,743.8651)">
            <path
               d="m 0,0 h -1.409 v 2.717 c 0,0.575 -0.03,0.947 -0.091,1.116 C -1.56,4.002 -1.657,4.132 -1.793,4.226 -1.928,4.32 -2.091,4.367 -2.281,4.367 -2.525,4.367 -2.744,4.3 -2.938,4.166 -3.132,4.032 -3.265,3.855 -3.336,3.635 -3.408,3.414 -3.444,3.006 -3.444,2.411 V 0 h -1.41 v 5.324 h 1.309 V 4.542 c 0.465,0.602 1.05,0.902 1.755,0.902 0.311,0 0.595,-0.056 0.853,-0.168 C -0.681,5.165 -0.486,5.022 -0.354,4.848 -0.222,4.674 -0.13,4.477 -0.078,4.256 -0.026,4.036 0,3.72 0,3.309 Z"
               style="fill:#273e6d;fill-opacity:1;fill-rule:nonzero;stroke:none"
               id="path1208" />
          </g>
          <g
             id="g1210"
             transform="translate(270.532,743.5141)">
            <path
               d="m 0,0 1.609,-0.195 c 0.028,-0.187 0.089,-0.316 0.186,-0.387 0.135,-0.1 0.345,-0.15 0.633,-0.15 0.367,0 0.642,0.055 0.826,0.166 0.124,0.073 0.217,0.192 0.281,0.355 C 3.578,-0.093 3.6,0.122 3.6,0.436 V 1.213 C 3.18,0.639 2.647,0.351 2.006,0.351 c -0.715,0 -1.281,0.302 -1.699,0.907 -0.329,0.478 -0.493,1.073 -0.493,1.785 0,0.892 0.215,1.574 0.645,2.045 0.43,0.471 0.964,0.707 1.602,0.707 0.658,0 1.202,-0.289 1.629,-0.867 V 5.675 H 5.009 V 0.897 C 5.009,0.269 4.957,-0.2 4.853,-0.511 4.75,-0.822 4.604,-1.066 4.418,-1.243 4.23,-1.42 3.98,-1.559 3.668,-1.659 3.355,-1.759 2.96,-1.81 2.482,-1.81 c -0.902,0 -1.543,0.155 -1.92,0.464 -0.377,0.309 -0.566,0.701 -0.566,1.176 z M 1.259,3.123 C 1.259,2.559 1.368,2.145 1.588,1.883 1.807,1.62 2.076,1.489 2.396,1.489 2.741,1.489 3.031,1.623 3.27,1.892 3.506,2.162 3.625,2.56 3.625,3.088 3.625,3.64 3.512,4.049 3.284,4.316 3.057,4.584 2.77,4.718 2.422,4.718 2.084,4.718 1.807,4.586 1.588,4.324 1.368,4.061 1.259,3.662 1.259,3.123"
               style="fill:#273e6d;fill-opacity:1;fill-rule:nonzero;stroke:none"
               id="path1212" />
          </g>
        </g>
      </g>
      <path
         d="m 102.25037,178.23865 h 1.32324 v 6.90752 h -1.32324 z"
         style="fill:#273e6d;fill-opacity:1;fill-rule:nonzero;stroke:none;stroke-width:0.939803"
         id="path1214" />
      <g
         id="g1216"
         transform="matrix(0.93980313,0,0,-0.93980313,-158.30346,884.23284)">
        <g
           id="g1218"
           clip-path="url(#clipPath1222)">
          <g
             id="g1224"
             transform="translate(283.4872,745.5594)">
            <path
               d="M 0,0 1.402,-0.235 C 1.223,-0.75 0.937,-1.142 0.549,-1.411 0.158,-1.68 -0.328,-1.814 -0.913,-1.814 c -0.926,0 -1.61,0.302 -2.056,0.907 -0.35,0.484 -0.526,1.096 -0.526,1.835 0,0.882 0.231,1.573 0.692,2.073 0.461,0.499 1.044,0.749 1.749,0.749 0.792,0 1.417,-0.262 1.875,-0.785 C 1.279,2.442 1.498,1.641 1.478,0.562 h -3.529 c 0.01,-0.418 0.123,-0.743 0.34,-0.976 0.218,-0.232 0.488,-0.348 0.813,-0.348 0.22,0 0.406,0.06 0.556,0.18 C -0.191,-0.461 -0.078,-0.267 0,0 M 0.08,1.424 C 0.069,1.832 -0.035,2.142 -0.236,2.354 -0.437,2.566 -0.681,2.672 -0.969,2.672 -1.275,2.672 -1.529,2.56 -1.73,2.336 -1.931,2.112 -2.029,1.808 -2.025,1.424 Z"
               style="fill:#273e6d;fill-opacity:1;fill-rule:nonzero;stroke:none"
               id="path1226" />
          </g>
        </g>
      </g>
      <g
         id="g1228"
         transform="matrix(0.93980313,0,0,-0.93980313,113.85666,185.1461)">
        <path
           d="M 0,0 V 7.35 H 5.449 V 6.106 H 1.483 V 4.477 h 3.69 V 3.239 H 1.483 V 1.238 H 5.59 V 0 Z"
           style="fill:#273e6d;fill-opacity:1;fill-rule:nonzero;stroke:none"
           id="path1230" />
      </g>
      <g
         id="g1232"
         transform="matrix(0.93980313,0,0,-0.93980313,-158.30346,884.23284)">
        <g
           id="g1234"
           clip-path="url(#clipPath1238)">
          <g
             id="g1240"
             transform="translate(300.242,743.8651)">
            <path
               d="M 0,0 V 0.797 C -0.194,0.513 -0.448,0.289 -0.765,0.126 c -0.316,-0.164 -0.648,-0.246 -1,-0.246 -0.357,0 -0.678,0.078 -0.963,0.235 -0.283,0.158 -0.489,0.378 -0.616,0.662 -0.127,0.284 -0.19,0.677 -0.19,1.178 v 3.369 h 1.408 V 2.878 c 0,-0.749 0.026,-1.208 0.078,-1.376 0.052,-0.169 0.147,-0.303 0.283,-0.401 0.137,-0.099 0.311,-0.148 0.522,-0.148 0.24,0 0.456,0.066 0.646,0.197 0.191,0.133 0.321,0.296 0.391,0.492 0.07,0.195 0.105,0.674 0.105,1.436 v 2.246 h 1.41 L 1.309,0 Z"
               style="fill:#273e6d;fill-opacity:1;fill-rule:nonzero;stroke:none"
               id="path1242" />
          </g>
          <g
             id="g1244"
             transform="translate(304.6658,743.8651)">
            <path
               d="m 0,0 h -1.409 v 5.324 h 1.308 V 4.567 c 0.225,0.358 0.426,0.593 0.605,0.707 0.179,0.114 0.382,0.17 0.608,0.17 0.322,0 0.631,-0.088 0.928,-0.265 L 1.605,3.95 C 1.366,4.104 1.147,4.181 0.942,4.181 0.745,4.181 0.578,4.127 0.441,4.018 0.304,3.91 0.196,3.713 0.118,3.429 0.039,3.145 0,2.55 0,1.645 Z"
               style="fill:#273e6d;fill-opacity:1;fill-rule:nonzero;stroke:none"
               id="path1246" />
          </g>
          <g
             id="g1248"
             transform="translate(307.2957,746.6024)">
            <path
               d="m 0,0 c 0,0.468 0.115,0.921 0.346,1.358 0.23,0.438 0.556,0.772 0.98,1.003 0.422,0.231 0.895,0.346 1.416,0.346 0.805,0 1.465,-0.262 1.98,-0.785 C 5.236,1.4 5.494,0.738 5.494,-0.06 c 0,-0.806 -0.26,-1.473 -0.779,-2.003 -0.52,-0.53 -1.174,-0.794 -1.963,-0.794 -0.488,0 -0.953,0.11 -1.397,0.33 -0.443,0.221 -0.779,0.544 -1.009,0.97 C 0.115,-1.13 0,-0.612 0,0 m 1.443,-0.075 c 0,-0.528 0.125,-0.933 0.376,-1.213 0.251,-0.281 0.56,-0.421 0.927,-0.421 0.368,0 0.677,0.14 0.926,0.421 0.248,0.28 0.373,0.688 0.373,1.223 0,0.521 -0.125,0.922 -0.373,1.203 C 3.423,1.419 3.114,1.559 2.746,1.559 2.379,1.559 2.07,1.419 1.819,1.138 1.568,0.857 1.443,0.453 1.443,-0.075"
               style="fill:#273e6d;fill-opacity:1;fill-rule:nonzero;stroke:none"
               id="path1250" />
          </g>
          <g
             id="g1252"
             transform="translate(317.3709,743.8651)">
            <path
               d="M 0,0 V 7.35 H 2.381 C 3.283,7.35 3.872,7.312 4.146,7.239 4.567,7.129 4.92,6.889 5.204,6.52 5.487,6.15 5.63,5.673 5.63,5.088 5.63,4.637 5.548,4.258 5.384,3.95 5.221,3.643 5.013,3.401 4.76,3.226 4.508,3.051 4.251,2.935 3.99,2.878 3.636,2.808 3.123,2.773 2.451,2.773 H 1.483 V 0 Z M 1.483,6.106 V 4.021 h 0.813 c 0.585,0 0.975,0.038 1.173,0.115 C 3.666,4.213 3.82,4.333 3.933,4.497 4.045,4.661 4.101,4.851 4.101,5.068 4.101,5.336 4.022,5.556 3.865,5.73 3.708,5.904 3.509,6.013 3.268,6.056 3.092,6.089 2.735,6.106 2.201,6.106 Z"
               style="fill:#273e6d;fill-opacity:1;fill-rule:nonzero;stroke:none"
               id="path1254" />
          </g>
          <g
             id="g1256"
             transform="translate(325.5701,747.5648)">
            <path
               d="m 0,0 -1.278,0.231 c 0.143,0.514 0.39,0.896 0.741,1.143 0.351,0.247 0.873,0.371 1.564,0.371 0.628,0 1.097,-0.074 1.404,-0.223 C 2.738,1.373 2.955,1.184 3.08,0.955 3.206,0.726 3.269,0.306 3.269,-0.306 L 3.253,-1.95 c 0,-0.468 0.022,-0.813 0.068,-1.035 C 3.366,-3.207 3.45,-3.446 3.574,-3.7 H 2.181 c -0.037,0.094 -0.082,0.233 -0.136,0.416 l -0.05,0.166 C 1.754,-3.352 1.497,-3.528 1.223,-3.644 0.949,-3.762 0.656,-3.82 0.346,-3.82 c -0.548,0 -0.981,0.149 -1.296,0.446 -0.317,0.297 -0.474,0.674 -0.474,1.128 0,0.301 0.072,0.569 0.215,0.805 0.145,0.235 0.346,0.416 0.605,0.541 0.258,0.126 0.632,0.235 1.12,0.329 0.659,0.123 1.115,0.239 1.369,0.346 v 0.14 c 0,0.271 -0.068,0.464 -0.2,0.579 C 1.551,0.609 1.298,0.667 0.927,0.667 0.677,0.667 0.48,0.618 0.341,0.519 0.2,0.421 0.087,0.248 0,0 M 1.885,-1.143 C 1.704,-1.203 1.418,-1.275 1.027,-1.358 0.637,-1.442 0.381,-1.524 0.261,-1.604 0.076,-1.734 -0.016,-1.9 -0.016,-2.1 c 0,-0.198 0.075,-0.368 0.221,-0.512 0.148,-0.143 0.334,-0.216 0.562,-0.216 0.254,0 0.496,0.084 0.726,0.251 0.171,0.127 0.283,0.283 0.336,0.467 0.037,0.12 0.056,0.349 0.056,0.686 z"
               style="fill:#273e6d;fill-opacity:1;fill-rule:nonzero;stroke:none"
               id="path1258" />
          </g>
          <g
             id="g1260"
             transform="translate(329.868,749.1894)">
            <path
               d="M 0,0 H 1.499 L 2.772,-3.78 4.016,0 H 5.475 L 3.595,-5.124 3.259,-6.051 C 3.135,-6.362 3.017,-6.599 2.905,-6.763 2.793,-6.927 2.664,-7.06 2.519,-7.162 2.374,-7.264 2.194,-7.343 1.982,-7.4 1.77,-7.457 1.53,-7.485 1.264,-7.485 c -0.272,0 -0.537,0.028 -0.798,0.085 l -0.125,1.103 c 0.221,-0.043 0.419,-0.065 0.596,-0.065 0.328,0 0.57,0.096 0.727,0.288 0.157,0.193 0.277,0.437 0.361,0.735 z"
               style="fill:#273e6d;fill-opacity:1;fill-rule:nonzero;stroke:none"
               id="path1262" />
          </g>
          <g
             id="g1264"
             transform="translate(336.448,749.1894)">
            <path
               d="m 0,0 h 1.298 v -0.727 c 0.465,0.565 1.018,0.847 1.66,0.847 0.341,0 0.637,-0.07 0.887,-0.21 0.251,-0.141 0.456,-0.353 0.617,-0.637 0.233,0.284 0.486,0.496 0.757,0.637 0.27,0.14 0.559,0.21 0.867,0.21 0.391,0 0.722,-0.08 0.992,-0.238 C 7.35,-0.277 7.552,-0.51 7.686,-0.817 7.782,-1.044 7.83,-1.412 7.83,-1.921 V -5.324 H 6.422 v 3.043 c 0,0.528 -0.049,0.869 -0.146,1.023 -0.129,0.2 -0.331,0.3 -0.601,0.3 -0.197,0 -0.383,-0.06 -0.557,-0.18 C 4.944,-1.258 4.819,-1.435 4.742,-1.667 4.665,-1.9 4.627,-2.266 4.627,-2.768 V -5.324 H 3.219 v 2.917 c 0,0.518 -0.026,0.853 -0.075,1.003 -0.051,0.15 -0.128,0.262 -0.234,0.336 -0.105,0.073 -0.248,0.11 -0.428,0.11 -0.218,0 -0.414,-0.058 -0.587,-0.175 C 1.721,-1.25 1.597,-1.419 1.522,-1.64 1.446,-1.86 1.408,-2.226 1.408,-2.737 V -5.324 H 0 Z"
               style="fill:#273e6d;fill-opacity:1;fill-rule:nonzero;stroke:none"
               id="path1266" />
          </g>
          <g
             id="g1268"
             transform="translate(349.073,745.5594)">
            <path
               d="M 0,0 1.403,-0.235 C 1.223,-0.75 0.939,-1.142 0.549,-1.411 0.159,-1.68 -0.328,-1.814 -0.913,-1.814 c -0.926,0 -1.61,0.302 -2.055,0.907 -0.351,0.484 -0.526,1.096 -0.526,1.835 0,0.882 0.23,1.573 0.691,2.073 0.461,0.499 1.045,0.749 1.75,0.749 0.792,0 1.417,-0.262 1.875,-0.785 C 1.279,2.442 1.499,1.641 1.479,0.562 h -3.53 c 0.01,-0.418 0.124,-0.743 0.341,-0.976 0.218,-0.232 0.488,-0.348 0.813,-0.348 0.22,0 0.406,0.06 0.556,0.18 C -0.19,-0.461 -0.077,-0.267 0,0 m 0.08,1.424 c -0.01,0.408 -0.115,0.718 -0.316,0.93 -0.2,0.212 -0.445,0.318 -0.732,0.318 -0.307,0 -0.561,-0.112 -0.761,-0.336 -0.202,-0.224 -0.3,-0.528 -0.296,-0.912 z"
               style="fill:#273e6d;fill-opacity:1;fill-rule:nonzero;stroke:none"
               id="path1270" />
          </g>
          <g
             id="g1272"
             transform="translate(356.8513,743.8651)">
            <path
               d="m 0,0 h -1.409 v 2.717 c 0,0.575 -0.03,0.947 -0.09,1.116 C -1.56,4.002 -1.657,4.132 -1.793,4.226 -1.928,4.32 -2.091,4.367 -2.281,4.367 -2.525,4.367 -2.744,4.3 -2.938,4.166 -3.132,4.032 -3.265,3.855 -3.337,3.635 -3.408,3.414 -3.444,3.006 -3.444,2.411 V 0 h -1.41 v 5.324 h 1.309 V 4.542 c 0.465,0.602 1.05,0.902 1.755,0.902 0.31,0 0.595,-0.056 0.853,-0.168 C -0.681,5.165 -0.486,5.022 -0.354,4.848 -0.222,4.674 -0.13,4.477 -0.078,4.256 -0.026,4.036 0,3.72 0,3.309 Z"
               style="fill:#273e6d;fill-opacity:1;fill-rule:nonzero;stroke:none"
               id="path1274" />
          </g>
          <g
             id="g1276"
             transform="translate(361.0291,749.1894)">
            <path
               d="m 0,0 v -1.123 h -0.963 v -2.146 c 0,-0.434 0.009,-0.688 0.027,-0.759 l 0.126,-0.178 c 0.065,-0.047 0.145,-0.07 0.238,-0.07 0.131,0 0.319,0.044 0.567,0.135 l 0.12,-1.093 c -0.328,-0.141 -0.699,-0.21 -1.113,-0.21 -0.254,0 -0.482,0.042 -0.687,0.127 -0.204,0.085 -0.353,0.196 -0.449,0.331 -0.095,0.135 -0.161,0.318 -0.197,0.549 -0.03,0.164 -0.046,0.495 -0.046,0.993 v 2.321 H -3.023 V 0 h 0.646 V 1.058 L -0.963,1.88 V 0 Z"
               style="fill:#273e6d;fill-opacity:1;fill-rule:nonzero;stroke:none"
               id="path1278" />
          </g>
          <g
             id="g1280"
             transform="translate(361.8181,745.3842)">
            <path
               d="m 0,0 1.414,0.215 c 0.061,-0.274 0.183,-0.482 0.366,-0.624 0.184,-0.142 0.442,-0.213 0.772,-0.213 0.364,0 0.638,0.067 0.822,0.201 0.124,0.093 0.186,0.219 0.186,0.376 0,0.107 -0.034,0.195 -0.1,0.266 C 3.39,0.288 3.232,0.349 2.988,0.406 1.852,0.657 1.132,0.886 0.827,1.093 0.406,1.38 0.196,1.78 0.196,2.291 c 0,0.461 0.182,0.849 0.546,1.163 0.365,0.314 0.93,0.471 1.695,0.471 0.728,0 1.27,-0.118 1.625,-0.356 C 4.415,3.332 4.659,2.981 4.793,2.517 L 3.465,2.271 C 3.407,2.478 3.3,2.637 3.142,2.747 2.982,2.857 2.756,2.913 2.462,2.913 2.091,2.913 1.825,2.861 1.665,2.757 1.558,2.684 1.504,2.588 1.504,2.472 1.504,2.371 1.551,2.286 1.645,2.216 1.771,2.122 2.21,1.99 2.961,1.82 3.711,1.649 4.234,1.44 4.532,1.193 4.826,0.942 4.974,0.593 4.974,0.146 4.974,-0.343 4.77,-0.762 4.362,-1.113 3.954,-1.464 3.351,-1.639 2.552,-1.639 1.827,-1.639 1.253,-1.492 0.83,-1.198 0.407,-0.904 0.131,-0.505 0,0"
               style="fill:#273e6d;fill-opacity:1;fill-rule:nonzero;stroke:none"
               id="path1282" />
          </g>
        </g>
      </g>
      <g
         id="g1284"
         transform="matrix(0.93980313,0,0,-0.93980313,196.70697,185.1461)">
        <path
           d="M 0,0 H -1.614 L -2.256,1.669 H -5.193 L -5.8,0 h -1.574 l 2.862,7.35 h 1.57 z M -2.732,2.908 -3.744,5.635 -4.737,2.908 Z"
           style="fill:#273e6d;fill-opacity:1;fill-rule:nonzero;stroke:none"
           id="path1286" />
      </g>
      <g
         id="g1288"
         transform="matrix(0.93980313,0,0,-0.93980313,-158.30346,884.23284)">
        <g
           id="g1290"
           clip-path="url(#clipPath1294)">
          <g
             id="g1296"
             transform="translate(380.1834,743.8651)">
            <path
               d="m 0,0 h -1.409 v 5.324 h 1.308 V 4.567 c 0.224,0.358 0.425,0.593 0.604,0.707 0.18,0.114 0.382,0.17 0.609,0.17 0.322,0 0.63,-0.088 0.928,-0.265 L 1.603,3.95 C 1.366,4.104 1.146,4.181 0.942,4.181 0.745,4.181 0.578,4.127 0.44,4.018 0.304,3.91 0.196,3.713 0.117,3.429 0.039,3.145 0,2.55 0,1.645 Z"
               style="fill:#273e6d;fill-opacity:1;fill-rule:nonzero;stroke:none"
               id="path1298" />
          </g>
          <g
             id="g1300"
             transform="translate(386.2215,745.5594)">
            <path
               d="M 0,0 1.403,-0.235 C 1.223,-0.75 0.938,-1.142 0.549,-1.411 0.159,-1.68 -0.328,-1.814 -0.913,-1.814 c -0.926,0 -1.61,0.302 -2.055,0.907 -0.351,0.484 -0.526,1.096 -0.526,1.835 0,0.882 0.23,1.573 0.691,2.073 0.461,0.499 1.045,0.749 1.75,0.749 0.792,0 1.417,-0.262 1.875,-0.785 C 1.279,2.442 1.499,1.641 1.479,0.562 h -3.53 c 0.01,-0.418 0.124,-0.743 0.341,-0.976 0.218,-0.232 0.488,-0.348 0.813,-0.348 0.22,0 0.406,0.06 0.556,0.18 C -0.19,-0.461 -0.077,-0.267 0,0 m 0.08,1.424 c -0.01,0.408 -0.115,0.718 -0.316,0.93 -0.201,0.212 -0.445,0.318 -0.732,0.318 -0.307,0 -0.561,-0.112 -0.761,-0.336 -0.202,-0.224 -0.3,-0.528 -0.296,-0.912 z"
               style="fill:#273e6d;fill-opacity:1;fill-rule:nonzero;stroke:none"
               id="path1302" />
          </g>
          <g
             id="g1304"
             transform="translate(390.2097,747.5648)">
            <path
               d="m 0,0 -1.278,0.231 c 0.143,0.514 0.39,0.896 0.741,1.143 0.351,0.247 0.873,0.371 1.564,0.371 0.628,0 1.097,-0.074 1.404,-0.223 C 2.738,1.373 2.955,1.184 3.08,0.955 3.206,0.726 3.269,0.306 3.269,-0.306 L 3.253,-1.95 c 0,-0.468 0.022,-0.813 0.068,-1.035 C 3.366,-3.207 3.45,-3.446 3.574,-3.7 H 2.181 c -0.037,0.094 -0.082,0.233 -0.136,0.416 l -0.05,0.166 C 1.754,-3.352 1.497,-3.528 1.223,-3.644 0.949,-3.762 0.656,-3.82 0.346,-3.82 c -0.548,0 -0.981,0.149 -1.296,0.446 -0.317,0.297 -0.474,0.674 -0.474,1.128 0,0.301 0.071,0.569 0.215,0.805 0.145,0.235 0.346,0.416 0.605,0.541 0.258,0.126 0.632,0.235 1.12,0.329 0.659,0.123 1.115,0.239 1.369,0.346 v 0.14 c 0,0.271 -0.068,0.464 -0.2,0.579 C 1.551,0.609 1.298,0.667 0.927,0.667 0.677,0.667 0.48,0.618 0.341,0.519 0.2,0.421 0.087,0.248 0,0 M 1.885,-1.143 C 1.704,-1.203 1.418,-1.275 1.027,-1.358 0.637,-1.442 0.381,-1.524 0.261,-1.604 0.076,-1.734 -0.016,-1.9 -0.016,-2.1 c 0,-0.198 0.075,-0.368 0.221,-0.512 0.148,-0.143 0.334,-0.216 0.562,-0.216 0.254,0 0.496,0.084 0.726,0.251 0.171,0.127 0.283,0.283 0.336,0.467 0.037,0.12 0.056,0.349 0.056,0.686 z"
               style="fill:#273e6d;fill-opacity:1;fill-rule:nonzero;stroke:none"
               id="path1306" />
          </g>
          <g
             id="g1308"
             transform="translate(284.4413,780.0976)">
            <path
               d="m 0,0 h -9.632 c 0,1.58 -0.185,2.641 -0.555,3.181 -0.573,0.798 -2.155,1.198 -4.745,1.198 -2.513,0 -4.181,-0.23 -4.994,-0.69 -0.813,-0.462 -1.221,-1.466 -1.221,-3.014 0,-1.401 0.362,-2.323 1.083,-2.765 0.518,-0.313 1.203,-0.498 2.054,-0.553 l 1.943,-0.136 c 4.163,-0.278 6.762,-0.472 7.799,-0.582 3.293,-0.332 5.679,-1.207 7.161,-2.626 1.164,-1.107 1.859,-2.554 2.082,-4.34 0.128,-1.07 0.193,-2.279 0.193,-3.622 0,-3.097 -0.296,-5.366 -0.887,-6.802 -1.072,-2.638 -3.482,-4.304 -7.23,-5.003 -1.571,-0.296 -3.973,-0.443 -7.204,-0.443 -5.394,0 -9.154,0.32 -11.276,0.965 -2.604,0.792 -4.322,2.393 -5.153,4.804 -0.463,1.344 -0.692,3.579 -0.692,6.709 h 9.63 c 0,-0.349 10e-4,-0.615 10e-4,-0.8 0,-1.67 0.481,-2.744 1.44,-3.222 0.664,-0.33 1.465,-0.503 2.408,-0.525 h 3.541 c 1.807,0 2.959,0.093 3.457,0.28 0.885,0.347 1.467,0.908 1.744,1.683 0.148,0.478 0.221,1.096 0.221,1.852 0,1.693 -0.618,2.724 -1.854,3.093 -0.461,0.147 -2.608,0.35 -6.441,0.608 -3.079,0.22 -5.217,0.432 -6.414,0.637 -3.154,0.588 -5.256,1.802 -6.304,3.644 -0.923,1.565 -1.383,3.932 -1.383,7.099 0,2.412 0.249,4.345 0.748,5.8 0.498,1.455 1.3,2.56 2.41,3.315 1.623,1.16 3.701,1.841 6.229,2.044 2.105,0.184 4.439,0.277 7.007,0.277 4.043,0 6.924,-0.232 8.641,-0.693 C -2.002,10.248 0.093,7.094 0.093,1.91 0.093,1.484 0.062,0.849 0,0"
               style="fill:#273e6d;fill-opacity:1;fill-rule:nonzero;stroke:none"
               id="path1310" />
          </g>
          <g
             id="g1312"
             transform="translate(326.7957,753.9003)">
            <path
               d="m 0,0 v 38.467 h 15.09 2.368 1.831 c 2.645,0 4.664,-0.215 6.051,-0.647 3.172,-0.994 5.301,-3.029 6.391,-6.105 0.563,-1.615 0.844,-4.045 0.844,-7.291 0,-3.901 -0.312,-6.705 -0.929,-8.413 C 30.408,12.635 27.862,10.69 24.017,10.187 23.564,10.11 21.641,10.043 18.244,9.988 L 16.525,9.932 H 10.353 V 0 Z m 10.353,18.856 h 6.454 c 2.046,0.073 3.292,0.23 3.739,0.476 0.612,0.337 1.022,1.011 1.226,2.02 0.132,0.673 0.197,1.673 0.197,3.002 0,1.627 -0.13,2.831 -0.391,3.62 -0.372,1.103 -1.264,1.775 -2.677,2.019 -0.279,0.036 -0.948,0.057 -2.006,0.057 h -6.542 z"
               style="fill:#273e6d;fill-opacity:1;fill-rule:nonzero;stroke:none"
               id="path1314" />
          </g>
        </g>
      </g>
      <g
         id="g1316"
         transform="matrix(0.93980313,0,0,-0.93980313,200.2038,169.4668)">
        <path
           d="m 0,0 h -13.842 l -1.859,-6.648 h -10.712 l 11.558,38.466 H 0.762 l 11.7,-38.466 H 1.976 Z m -2.056,7.494 -4.85,16.674 -4.708,-16.674 z"
           style="fill:#273e6d;fill-opacity:1;fill-rule:nonzero;stroke:none"
           id="path1318" />
      </g>
      <g
         id="g1320"
         transform="matrix(0.93980313,0,0,-0.93980313,-158.30346,884.23284)">
        <g
           id="g1322"
           clip-path="url(#clipPath1326)">
          <g
             id="g1328"
             transform="translate(312.5056,786.956)">
            <path
               d="m 0,0 c 4.271,0 8.082,-1.968 10.586,-5.048 l 2.232,4.784 c -3.491,3.3 -8.24,5.333 -13.48,5.333 -8.157,0 -15.136,-4.927 -18,-11.9 h -4.352 l -2.57,-5.51 h 5.599 c -0.042,-0.511 -0.07,-1.021 -0.07,-1.544 0,-0.632 0.034,-1.255 0.096,-1.872 h -2.813 l -2.569,-5.51 h 6.813 c 2.946,-6.798 9.837,-11.57 17.866,-11.57 4.047,0 7.802,1.212 10.911,3.283 V -22.8 C 7.745,-25.651 4.083,-27.452 0,-27.452 c -4.772,0 -8.97,2.461 -11.414,6.185 H 2.853 l 2.569,5.51 h -18.936 c -0.097,0.664 -0.149,1.341 -0.149,2.031 0,0.467 0.024,0.929 0.069,1.385 H 7.015 l 2.569,5.51 H -11.811 C -9.445,-2.748 -5.043,0 0,0"
               style="fill:#f47216;fill-opacity:1;fill-rule:nonzero;stroke:none"
               id="path1330" />
          </g>
          <g
             id="g1332"
             transform="translate(312.5056,786.7909)">
            <path
               d="m 0,0 c 4.069,0 7.881,-1.818 10.458,-4.988 l 0.167,-0.205 0.112,0.239 2.231,4.786 0.051,0.107 -0.086,0.083 C 9.264,3.49 4.436,5.399 -0.662,5.399 c -3.981,0 -7.811,-1.163 -11.078,-3.364 -3.19,-2.148 -5.635,-5.137 -7.074,-8.639 l 0.152,0.103 h -4.352 -0.105 l -0.045,-0.096 -2.568,-5.509 -0.11,-0.236 h 0.258 5.599 l -0.164,0.18 c -0.048,-0.572 -0.07,-1.08 -0.07,-1.558 0,-0.618 0.032,-1.255 0.096,-1.887 l 0.164,0.18 h -2.813 -0.105 l -0.044,-0.095 -2.57,-5.509 -0.109,-0.237 h 0.259 6.813 l -0.152,0.101 c 3.073,-7.089 10.145,-11.671 18.018,-11.671 3.947,0 7.751,1.145 11.002,3.312 l 0.073,0.048 v 0.089 6.754 0.439 l -0.289,-0.33 C 7.56,-25.446 3.869,-27.121 0,-27.121 c -4.551,0 -8.767,2.285 -11.277,6.111 l -0.137,-0.258 H 2.853 2.958 l 0.045,0.095 2.569,5.511 0.11,0.235 h -0.26 -18.936 l 0.164,-0.14 c -0.097,0.667 -0.147,1.341 -0.147,2.006 0,0.454 0.022,0.914 0.068,1.369 l -0.165,-0.15 H 7.015 7.121 l 0.044,0.096 2.568,5.51 0.112,0.235 H 9.584 -11.811 L -11.67,-6.75 C -9.257,-2.586 -4.785,0 0,0 M -11.811,-6.832 H 9.584 l -0.15,0.235 -2.569,-5.509 0.15,0.095 h -20.609 -0.149 l -0.016,-0.149 c -0.046,-0.465 -0.069,-0.937 -0.069,-1.401 0,-0.681 0.051,-1.374 0.151,-2.055 l 0.023,-0.142 h 0.14 18.936 l -0.149,0.236 -2.569,-5.509 0.149,0.094 h -14.267 -0.307 l 0.169,-0.254 c 2.571,-3.921 6.89,-6.259 11.552,-6.259 3.964,0 7.745,1.714 10.374,4.706 l -0.291,0.109 v -6.754 l 0.073,0.137 c -3.196,-2.129 -6.936,-3.255 -10.818,-3.255 -7.742,0 -14.695,4.503 -17.713,11.472 l -0.044,0.098 h -0.109 -6.813 l 0.151,-0.236 2.568,5.511 -0.15,-0.096 h 2.813 0.183 l -0.019,0.184 c -0.061,0.622 -0.095,1.248 -0.095,1.854 0,0.468 0.023,0.968 0.07,1.531 l 0.014,0.178 h -0.179 -5.599 l 0.15,-0.235 2.569,5.51 -0.149,-0.096 h 4.352 0.111 l 0.041,0.103 c 1.415,3.442 3.82,6.377 6.955,8.491 3.211,2.162 6.979,3.306 10.893,3.306 5.013,0 9.759,-1.877 13.367,-5.286 l -0.038,0.191 -2.229,-4.787 0.277,0.035 C 8.073,-1.532 4.17,0.33 0,0.33 c -4.903,0 -9.484,-2.648 -11.955,-6.914 L -12.1,-6.832 Z"
               style="fill:#273e6d;fill-opacity:1;fill-rule:nonzero;stroke:none"
               id="path1334" />
          </g>
        </g>
      </g>
    </g>
  </g>
</svg>
