<?xml version="1.0" encoding="UTF-8" standalone="no"?>
<!-- Created with Inkscape (http://www.inkscape.org/) -->

<svg
   width="640"
   height="360"
   viewBox="0 0 169.33333 95.249999"
   version="1.1"
   id="svg1"
   inkscape:version="1.3.2 (091e20e, 2023-11-25)"
   sodipodi:docname="sepa-full-640x360.svg"
   xmlns:inkscape="http://www.inkscape.org/namespaces/inkscape"
   xmlns:sodipodi="http://sodipodi.sourceforge.net/DTD/sodipodi-0.dtd"
   xmlns="http://www.w3.org/2000/svg"
   xmlns:svg="http://www.w3.org/2000/svg">
  <sodipodi:namedview
     id="namedview1"
     pagecolor="#ffffff"
     bordercolor="#666666"
     borderopacity="1.0"
     inkscape:showpageshadow="2"
     inkscape:pageopacity="0.0"
     inkscape:pagecheckerboard="true"
     inkscape:deskcolor="#d1d1d1"
     inkscape:document-units="mm"
     inkscape:zoom="0.8818818"
     inkscape:cx="346.98528"
     inkscape:cy="307.86439"
     inkscape:window-width="1792"
     inkscape:window-height="1006"
     inkscape:window-x="1"
     inkscape:window-y="25"
     inkscape:window-maximized="0"
     inkscape:current-layer="g1" />
  <defs
     id="defs1" />
  <g
     inkscape:label="Layer 1"
     inkscape:groupmode="layer"
     id="layer1">
    <g
       id="g1"
       transform="matrix(1.2726841,0,0,1.2726841,-110.68771,4.3914617)">
      <path
         id="path2"
         d="m 100.30562,49.662288 1.09139,-0.110102 c 0.0656,0.367947 0.199,0.637893 0.39977,0.810719 0.20094,0.172508 0.47184,0.258657 0.81291,0.258657 0.36121,0 0.63334,-0.07662 0.81664,-0.229729 0.18313,-0.153529 0.27478,-0.33267 0.27478,-0.537986 0,-0.131587 -0.0384,-0.243347 -0.11536,-0.336233 -0.0767,-0.09232 -0.21096,-0.172544 -0.40252,-0.2413 -0.13105,-0.0448 -0.42954,-0.125271 -0.8957,-0.240877 -0.59972,-0.148131 -1.02045,-0.33087 -1.26231,-0.547899 -0.34008,-0.304835 -0.51015,-0.676628 -0.51015,-1.115554 0,-0.281799 0.0801,-0.545959 0.24049,-0.791527 0.16041,-0.245992 0.39147,-0.433247 0.69328,-0.561693 0.3018,-0.128447 0.66629,-0.192934 1.09304,-0.192934 0.69716,0 1.22192,0.153528 1.57427,0.45974 0.35239,0.306458 0.53732,0.715327 0.5551,1.226855 l -1.12448,0.0441 c -0.0481,-0.285679 -0.15102,-0.490996 -0.30882,-0.616691 -0.15794,-0.125095 -0.39469,-0.18796 -0.71025,-0.18796 -0.3259,0 -0.58085,0.06699 -0.76521,0.201084 -0.11878,0.08569 -0.17805,0.200766 -0.17805,0.344628 0,0.131622 0.0554,0.24377 0.16662,0.337609 0.14111,0.118533 0.48451,0.242393 1.02979,0.370416 0.54529,0.128447 0.94852,0.261444 1.20979,0.399768 0.26112,0.137972 0.46563,0.326602 0.61337,0.56582 0.14757,0.239925 0.22158,0.535517 0.22158,0.887625 0,0.319546 -0.0886,0.618313 -0.26554,0.897078 -0.17695,0.27866 -0.42735,0.485775 -0.75078,0.621242 -0.32357,0.135467 -0.72676,0.203518 -1.20964,0.203518 -0.7028,0 -1.24255,-0.163301 -1.61918,-0.490009 -0.37662,-0.326601 -0.60166,-0.802569 -0.67483,-1.428362"
         style="fill:#10298f;fill-opacity:1;fill-rule:nonzero;stroke:none;stroke-width:0.0352778" />
      <path
         id="path3"
         d="m 105.99071,51.481175 v -4.023748 h 1.06937 v 4.023748 z m 0,-4.574822 v -0.981428 h 1.06937 v 0.981428 h -1.06937"
         style="fill:#10298f;fill-opacity:1;fill-rule:nonzero;stroke:none;stroke-width:0.0352778" />
      <path
         id="path4"
         d="m 112.05076,51.481175 h -1.06934 V 49.42307 c 0,-0.435328 -0.0228,-0.716845 -0.0681,-0.844445 -0.0453,-0.127776 -0.11879,-0.227682 -0.22077,-0.298485 -0.10196,-0.07056 -0.22462,-0.106257 -0.36792,-0.106257 -0.18369,0 -0.3485,0.05084 -0.49445,0.152118 -0.14605,0.101177 -0.24599,0.235232 -0.3,0.402555 -0.0541,0.166723 -0.0812,0.475403 -0.0812,0.926289 v 1.82633 h -1.06935 v -4.023748 h 0.99219 v 0.591185 c 0.35098,-0.460269 0.79319,-0.690245 1.32624,-0.690245 0.23495,0 0.4495,0.04258 0.6441,0.127317 0.19441,0.08463 0.34145,0.192935 0.44136,0.324521 0.0998,0.131621 0.16922,0.280846 0.20849,0.448028 0.0392,0.166863 0.0587,0.406082 0.0587,0.717267 v 2.505675"
         style="fill:#10298f;fill-opacity:1;fill-rule:nonzero;stroke:none;stroke-width:0.0352778" />
      <path
         id="path5"
         d="m 114.21318,49.382571 c 0,0.428272 0.082,0.741786 0.24642,0.940505 0.16411,0.199249 0.36653,0.298486 0.60731,0.298486 0.25809,0 0.47625,-0.101988 0.65426,-0.305929 0.1779,-0.203941 0.26709,-0.506307 0.26709,-0.906604 0,-0.417689 -0.0853,-0.728169 -0.25591,-0.931016 -0.17046,-0.202424 -0.38601,-0.30413 -0.64657,-0.30413 -0.2533,0 -0.46207,0.09991 -0.62618,0.298486 -0.1644,0.199249 -0.24642,0.502285 -0.24642,0.910202 z m -0.95895,2.363188 1.21267,0.132291 c 0.0203,0.149931 0.0671,0.253012 0.14069,0.309351 0.10142,0.0805 0.26127,0.120721 0.47942,0.120721 0.27877,0 0.48811,-0.04159 0.6277,-0.124848 0.0936,-0.05581 0.16482,-0.14538 0.21304,-0.269276 0.0329,-0.08886 0.0493,-0.25146 0.0493,-0.489197 l 0.003,-0.587445 c -0.31517,0.429401 -0.71547,0.643819 -1.20096,0.643819 -0.54116,0 -0.96972,-0.228635 -1.28584,-0.686823 -0.2479,-0.36202 -0.37165,-0.812765 -0.37165,-1.351844 0,-0.675923 0.16231,-1.192001 0.48725,-1.549048 0.32481,-0.356658 0.72898,-0.535093 1.21201,-0.535093 0.49815,0 0.90907,0.218969 1.2332,0.656484 v -0.557424 h 0.99219 v 3.617101 c 0,0.475827 -0.0394,0.831498 -0.11769,1.066306 -0.0786,0.235797 -0.18866,0.420159 -0.33044,0.55425 -0.14168,0.13409 -0.33088,0.239218 -0.56748,0.31503 -0.23675,0.07592 -0.53594,0.113947 -0.89768,0.113947 -0.68337,0 -1.16801,-0.117827 -1.45394,-0.35306 -0.2861,-0.235338 -0.42901,-0.533823 -0.42901,-0.89542 0,-0.03556 10e-4,-0.0787 0.004,-0.129822"
         style="fill:#10298f;fill-opacity:1;fill-rule:nonzero;stroke:none;stroke-width:0.0352778" />
      <path
         id="path6"
         d="m 118.32707,51.481175 h 1.06935 v -5.55625 h -1.06935 z"
         style="fill:#10298f;fill-opacity:1;fill-rule:nonzero;stroke:none;stroke-width:0.0352778" />
      <path
         id="path7"
         d="m 123.11924,49.133121 c -0.007,-0.313231 -0.0875,-0.551074 -0.24025,-0.714375 -0.1524,-0.163018 -0.33796,-0.244863 -0.55668,-0.244863 -0.23389,0 -0.42721,0.0864 -0.57961,0.258234 -0.15276,0.171838 -0.22755,0.405694 -0.22508,0.701004 z m -0.055,1.080524 1.05834,0.176388 c -0.13688,0.387774 -0.35314,0.683366 -0.64841,0.886214 -0.29528,0.203129 -0.66499,0.304412 -1.10843,0.304412 -0.70238,0 -1.22202,-0.229588 -1.55899,-0.688587 -0.26639,-0.367524 -0.39938,-0.831533 -0.39938,-1.392379 0,-0.668902 0.17487,-1.193518 0.52451,-1.572754 0.34978,-0.379236 0.79181,-0.568572 1.32626,-0.568572 0.60079,0 1.07457,0.198825 1.4217,0.596547 0.34713,0.398251 0.51294,1.007463 0.49777,1.8288 h -2.67864 c 0.007,0.316654 0.0942,0.562928 0.25999,0.739317 0.16581,0.175683 0.37254,0.263878 0.62019,0.263878 0.16827,0 0.31009,-0.04519 0.42474,-0.135714 0.11465,-0.09042 0.20179,-0.236502 0.26035,-0.43755"
         style="fill:#10298f;fill-opacity:1;fill-rule:nonzero;stroke:none;stroke-width:0.0352778" />
      <path
         id="path8"
         d="m 127.67642,51.481175 v -5.55625 h 4.11233 v 0.93733 h -2.98768 v 1.234723 h 2.77813 v 0.937083 h -2.77813 v 1.510172 h 3.09775 v 0.936942 h -4.2224"
         style="fill:#10298f;fill-opacity:1;fill-rule:nonzero;stroke:none;stroke-width:0.0352778" />
      <path
         id="path9"
         d="m 135.72081,51.481175 v -0.602474 c -0.14711,0.214842 -0.34008,0.385551 -0.57961,0.512198 -0.23954,0.126224 -0.49213,0.18976 -0.75812,0.18976 -0.27129,0 -0.514,-0.05951 -0.72955,-0.178435 -0.21519,-0.118922 -0.37112,-0.286103 -0.46743,-0.500945 -0.0963,-0.21523 -0.14428,-0.512621 -0.14428,-0.892281 v -2.551571 h 1.06927 v 1.850708 c 0,0.566525 0.0194,0.913659 0.0589,1.040976 0.0392,0.128447 0.11042,0.229306 0.21414,0.30413 0.10371,0.07444 0.23495,0.111478 0.3944,0.111478 0.18203,0 0.34537,-0.04932 0.4893,-0.149649 0.14429,-0.09977 0.24272,-0.223661 0.29599,-0.371792 0.0529,-0.147708 0.0797,-0.510152 0.0797,-1.086591 v -1.69926 h 1.06927 v 4.023748 h -0.99201"
         style="fill:#10298f;fill-opacity:1;fill-rule:nonzero;stroke:none;stroke-width:0.0352778" />
      <path
         id="path10"
         d="m 139.06268,51.481175 h -1.06927 v -4.023748 h 0.99201 v 0.57217 c 0.16968,-0.270228 0.32208,-0.449368 0.45755,-0.538268 0.13547,-0.08858 0.28892,-0.132962 0.46108,-0.132962 0.24271,0 0.47696,0.06738 0.70203,0.201718 l -0.32526,0.931722 c -0.17992,-0.116029 -0.34784,-0.174343 -0.50236,-0.174343 -0.14993,0 -0.27658,0.04134 -0.38065,0.12319 -0.10407,0.08255 -0.18591,0.230964 -0.24553,0.445805 -0.0596,0.214983 -0.0896,0.665445 -0.0896,1.350469 v 1.244247"
         style="fill:#10298f;fill-opacity:1;fill-rule:nonzero;stroke:none;stroke-width:0.0352778" />
      <path
         id="path11"
         d="m 142.12867,49.469389 c 0,0.401003 0.0949,0.707602 0.28504,0.920644 0.19015,0.213043 0.42439,0.319723 0.70344,0.319723 0.27869,0 0.51259,-0.10668 0.70132,-0.319723 0.18874,-0.213042 0.28328,-0.522393 0.28328,-0.928087 0,-0.3955 -0.0945,-0.700335 -0.28328,-0.912954 -0.18873,-0.213184 -0.42263,-0.319723 -0.70132,-0.319723 -0.27905,0 -0.51329,0.106539 -0.70344,0.319723 -0.19015,0.212619 -0.28504,0.519924 -0.28504,0.920397 z m -1.0915,-0.05722 c 0,-0.354824 0.0871,-0.6985 0.26176,-1.030746 0.17428,-0.331964 0.42122,-0.585682 0.74119,-0.760695 0.31962,-0.175013 0.67698,-0.262361 1.07139,-0.262361 0.60924,0 1.10842,0.198155 1.49789,0.59503 0.38911,0.396875 0.58385,0.898631 0.58385,1.504668 0,0.611047 -0.19685,1.117882 -0.58985,1.519696 -0.39299,0.40185 -0.88794,0.602898 -1.48449,0.602898 -0.369,0 -0.72107,-0.08393 -1.05586,-0.25079 -0.33514,-0.16757 -0.58984,-0.412715 -0.76412,-0.736283 -0.17462,-0.323426 -0.26176,-0.716879 -0.26176,-1.181417"
         style="fill:#10298f;fill-opacity:1;fill-rule:nonzero;stroke:none;stroke-width:0.0352778" />
      <path
         id="path12"
         d="m 149.79982,46.862255 v 1.587501 h 0.61242 c 0.44097,0 0.7359,-0.02893 0.88477,-0.08749 0.14852,-0.05856 0.26529,-0.150213 0.3496,-0.275061 0.0843,-0.124566 0.12665,-0.269558 0.12665,-0.435046 0,-0.203553 -0.0593,-0.37151 -0.1778,-0.503802 -0.11853,-0.132291 -0.26846,-0.214841 -0.44979,-0.247932 -0.13371,-0.02547 -0.40182,-0.03817 -0.80539,-0.03817 z m -1.1243,4.61892 v -5.55625 h 1.79987 c 0.68192,0 1.12677,0.02826 1.33385,0.08364 0.31821,0.08322 0.58456,0.265007 0.7994,0.544337 0.21484,0.279047 0.32208,0.639939 0.32208,1.082287 0,0.341206 -0.0617,0.627556 -0.18556,0.860883 -0.12347,0.232058 -0.28081,0.414796 -0.47131,0.547476 -0.1905,0.132997 -0.38417,0.220486 -0.58102,0.26349 -0.26776,0.05334 -0.65511,0.0798 -1.16205,0.0798 h -0.73096 v 2.094336 h -1.1243"
         style="fill:#10298f;fill-opacity:1;fill-rule:nonzero;stroke:none;stroke-width:0.0352778" />
      <path
         id="path13"
         d="m 156.28987,49.552186 c -0.13652,0.0459 -0.35207,0.100189 -0.64699,0.163724 -0.29492,0.06311 -0.48789,0.125519 -0.5782,0.186302 -0.139,0.0991 -0.20779,0.224614 -0.20779,0.376767 0,0.149931 0.055,0.279047 0.16581,0.388338 0.11112,0.108973 0.25223,0.163689 0.42403,0.163689 0.19156,0 0.37395,-0.06354 0.54822,-0.190147 0.12841,-0.09663 0.21308,-0.214454 0.2533,-0.354154 0.0275,-0.09137 0.0416,-0.265289 0.0416,-0.521758 z m -1.43298,-0.870902 -0.9592,-0.176389 c 0.10865,-0.389855 0.29563,-0.678145 0.56091,-0.865435 0.26565,-0.187254 0.66005,-0.281093 1.18322,-0.281093 0.47519,0 0.82938,0.05634 1.06186,0.168522 0.23248,0.113277 0.39652,0.256187 0.49107,0.429401 0.0949,0.173214 0.14252,0.491666 0.14252,0.95497 l -0.0109,1.245199 c 0,0.354295 0.0169,0.615986 0.0508,0.783978 0.0342,0.16824 0.0981,0.34851 0.19156,0.540738 h -1.05833 c -0.0282,-0.06946 -0.0621,-0.172826 -0.10266,-0.309633 -0.0176,-0.06258 -0.0303,-0.103364 -0.0374,-0.123472 -0.18204,0.177341 -0.37642,0.310727 -0.5835,0.399627 -0.20708,0.08858 -0.42756,0.132962 -0.66251,0.132962 -0.41417,0 -0.74084,-0.112854 -0.97932,-0.337891 -0.23847,-0.22546 -0.35771,-0.510575 -0.35771,-0.854781 0,-0.227541 0.0543,-0.430777 0.16263,-0.609247 0.10901,-0.178576 0.26141,-0.315419 0.4572,-0.410386 0.19614,-0.09451 0.47872,-0.178047 0.84772,-0.248991 0.49777,-0.09345 0.84279,-0.180657 1.03505,-0.26169 V 48.75004 c 0,-0.207539 -0.0508,-0.355247 -0.1524,-0.443865 -0.10195,-0.08819 -0.29351,-0.132292 -0.57573,-0.132292 -0.1905,0 -0.33902,0.03775 -0.44591,0.112572 -0.10689,0.07511 -0.19332,0.206728 -0.25894,0.394829"
         style="fill:#10298f;fill-opacity:1;fill-rule:nonzero;stroke:none;stroke-width:0.0352778" />
      <path
         id="path14"
         d="m 158.10492,47.457427 h 1.13523 l 0.96485,2.85683 0.94262,-2.85683 h 1.10243 l -1.41816,3.872865 -0.25894,0.707179 c -0.0938,0.235655 -0.18309,0.41536 -0.26776,0.539503 -0.0847,0.123754 -0.18239,0.224649 -0.29245,0.301519 -0.11042,0.07733 -0.24518,0.137936 -0.40605,0.180657 -0.16087,0.04343 -0.34255,0.06491 -0.54504,0.06491 -0.20497,0 -0.40675,-0.02148 -0.60396,-0.06449 l -0.0995,-0.83439 c 0.16757,0.03362 0.31926,0.04974 0.45367,0.04974 0.24942,0 0.43321,-0.07373 0.5528,-0.220486 0.1196,-0.147461 0.21097,-0.334715 0.27447,-0.561975 l -1.53423,-4.035037"
         style="fill:#10298f;fill-opacity:1;fill-rule:nonzero;stroke:none;stroke-width:0.0352778" />
      <path
         id="path15"
         d="m 163.08402,47.457427 h 0.98108 v 0.549557 c 0.35242,-0.4324 0.77187,-0.648617 1.25871,-0.648617 0.25823,0 0.4826,0.05292 0.67274,0.159032 0.19015,0.106504 0.34608,0.267476 0.46744,0.482283 0.17709,-0.214807 0.36865,-0.375779 0.57326,-0.482283 0.20532,-0.106115 0.42369,-0.159032 0.65652,-0.159032 0.29633,0 0.5468,0.05994 0.75177,0.180516 0.20496,0.119627 0.35842,0.296404 0.45967,0.52959 0.073,0.171838 0.10971,0.450039 0.10971,0.834955 v 2.577747 h -1.06927 v -2.304627 c 0,-0.40005 -0.0367,-0.658036 -0.10971,-0.774312 -0.0988,-0.152435 -0.25012,-0.228353 -0.45438,-0.228353 -0.14922,0 -0.28963,0.04562 -0.42086,0.136984 -0.13124,0.09137 -0.22578,0.224614 -0.28364,0.40072 -0.0582,0.175719 -0.0875,0.453637 -0.0875,0.833156 v 1.936432 h -1.06927 v -2.209412 c 0,-0.39303 -0.0187,-0.645619 -0.0568,-0.759848 -0.0378,-0.113982 -0.0963,-0.19872 -0.17604,-0.254388 -0.0797,-0.05539 -0.18732,-0.08364 -0.32385,-0.08364 -0.16404,0 -0.31185,0.04452 -0.44309,0.132962 -0.13123,0.08862 -0.22507,0.216641 -0.28222,0.38354 -0.0568,0.167288 -0.085,0.444112 -0.085,0.831498 v 1.959292 h -1.06927 v -4.023748"
         style="fill:#10298f;fill-opacity:1;fill-rule:nonzero;stroke:none;stroke-width:0.0352778" />
      <path
         id="path16"
         d="m 172.69827,49.133121 c -0.008,-0.313231 -0.0875,-0.551074 -0.24059,-0.714375 -0.15205,-0.163018 -0.33796,-0.244863 -0.55668,-0.244863 -0.23354,0 -0.42722,0.0864 -0.57926,0.258234 -0.15276,0.171838 -0.22755,0.405694 -0.22508,0.701004 z m -0.055,1.080524 1.05833,0.176388 c -0.13723,0.387774 -0.35313,0.683366 -0.6484,0.886214 -0.29563,0.203129 -0.66499,0.304412 -1.10878,0.304412 -0.70203,0 -1.22167,-0.229588 -1.55893,-0.688587 -0.26634,-0.367524 -0.39934,-0.831533 -0.39934,-1.392379 0,-0.668902 0.17533,-1.193518 0.52458,-1.572754 0.34996,-0.379236 0.79163,-0.568572 1.32644,-0.568572 0.60078,0 1.07421,0.198825 1.42135,0.596547 0.34713,0.398251 0.51329,1.007463 0.49812,1.8288 h -2.679 c 0.008,0.316654 0.0945,0.562928 0.26035,0.739317 0.16546,0.175683 0.37218,0.263878 0.62019,0.263878 0.16827,0 0.30974,-0.04519 0.42439,-0.135714 0.11536,-0.09042 0.20214,-0.236502 0.2607,-0.43755"
         style="fill:#10298f;fill-opacity:1;fill-rule:nonzero;stroke:none;stroke-width:0.0352778" />
      <path
         id="path17"
         d="m 178.51523,51.481175 h -1.06927 V 49.42307 c 0,-0.435328 -0.0229,-0.716845 -0.0677,-0.844445 -0.0455,-0.127776 -0.11923,-0.227682 -0.22119,-0.298485 -0.10195,-0.07056 -0.22472,-0.106257 -0.36794,-0.106257 -0.18345,0 -0.34855,0.05084 -0.49425,0.152118 -0.14605,0.101177 -0.24588,0.235232 -0.30021,0.402555 -0.054,0.166723 -0.0811,0.475403 -0.0811,0.926289 v 1.82633 h -1.06927 v -4.023748 h 0.99201 v 0.591185 c 0.35137,-0.460269 0.7934,-0.690245 1.32609,-0.690245 0.23495,0 0.45015,0.04258 0.64418,0.127317 0.19438,0.08463 0.34184,0.192935 0.44167,0.324521 0.0998,0.131621 0.16899,0.280846 0.20814,0.448028 0.0395,0.166863 0.0589,0.406082 0.0589,0.717267 v 2.505675"
         style="fill:#10298f;fill-opacity:1;fill-rule:nonzero;stroke:none;stroke-width:0.0352778" />
      <path
         id="path18"
         d="m 181.67012,47.457427 v 0.848748 h -0.72778 v 1.62814 c 0,0.329495 0.007,0.521723 0.0205,0.576016 0.0134,0.05472 0.0445,0.09952 0.0928,0.135184 0.0487,0.03528 0.10725,0.0532 0.17674,0.0532 0.0974,0 0.23707,-0.03418 0.42122,-0.102235 l 0.0935,0.824759 c -0.2466,0.106222 -0.52564,0.159421 -0.83715,0.159421 -0.19155,0 -0.36336,-0.03238 -0.51682,-0.09701 -0.1531,-0.06421 -0.26564,-0.148132 -0.3376,-0.25079 -0.0716,-0.10227 -0.12101,-0.240877 -0.14852,-0.415608 -0.0229,-0.124177 -0.0339,-0.374967 -0.0339,-0.752157 v -1.75892 H 179.388 v -0.848748 h 0.48507 v -0.804616 l 1.06927,-0.628403 v 1.433019 h 0.72778"
         style="fill:#10298f;fill-opacity:1;fill-rule:nonzero;stroke:none;stroke-width:0.0352778" />
      <path
         id="path19"
         d="m 182.27161,50.345936 1.06927,-0.165347 c 0.0455,0.205599 0.13758,0.361598 0.27622,0.468383 0.13899,0.106927 0.33302,0.159844 0.58279,0.159844 0.27552,0 0.4826,-0.05083 0.62124,-0.1524 0.0935,-0.07165 0.14041,-0.166476 0.14041,-0.286491 0,-0.08117 -0.0258,-0.148837 -0.0766,-0.201753 -0.0536,-0.05112 -0.17286,-0.09811 -0.35842,-0.141535 -0.86395,-0.190853 -1.41182,-0.364737 -1.64253,-0.521723 -0.32032,-0.217593 -0.48013,-0.520594 -0.48013,-0.907697 0,-0.349885 0.13793,-0.64382 0.41486,-0.881521 0.27729,-0.238125 0.70662,-0.357329 1.28835,-0.357329 0.55386,0 0.9652,0.08915 1.23472,0.267335 0.26917,0.178435 0.45473,0.442066 0.55668,0.790998 l -1.0033,0.187255 c -0.0434,-0.156246 -0.12594,-0.276578 -0.24729,-0.359798 -0.12171,-0.08364 -0.29493,-0.125272 -0.51964,-0.125272 -0.28364,0 -0.48719,0.03916 -0.6096,0.118534 -0.0822,0.05581 -0.12277,0.128023 -0.12277,0.216887 0,0.07662 0.0353,0.141535 0.10654,0.195122 0.0963,0.07098 0.42968,0.17145 0.99942,0.301237 0.56973,0.129822 0.96767,0.288572 1.1938,0.476673 0.22295,0.190465 0.33514,0.456142 0.33514,0.796502 0,0.37084 -0.15452,0.689716 -0.4625,0.956522 -0.30868,0.266911 -0.76447,0.400297 -1.36842,0.400297 -0.54786,0 -0.98178,-0.111055 -1.3014,-0.332247 -0.31961,-0.222003 -0.52846,-0.522146 -0.62688,-0.902476"
         style="fill:#10298f;fill-opacity:1;fill-rule:nonzero;stroke:none;stroke-width:0.0352778" />
      <path
         id="path20"
         d="m 192.5385,49.287603 -0.77682,-2.061528 -0.75071,2.061528 z m 2.06198,2.193572 h -1.21073 l -0.48048,-1.256488 h -2.23944 l -0.4579,1.256488 h -1.18992 l 2.1523,-5.55625 h 1.18251 l 2.24366,5.55625"
         style="fill:#10298f;fill-opacity:1;fill-rule:nonzero;stroke:none;stroke-width:0.0352778" />
      <path
         id="path21"
         d="m 196.43634,51.481175 h -1.06927 v -4.023748 h 0.99201 v 0.57217 c 0.16969,-0.270228 0.32173,-0.449368 0.45755,-0.538268 0.13512,-0.08858 0.28858,-0.132962 0.46109,-0.132962 0.24271,0 0.4766,0.06738 0.70202,0.201718 l -0.32526,0.931722 c -0.18027,-0.116029 -0.34784,-0.174343 -0.50235,-0.174343 -0.15029,0 -0.27693,0.04134 -0.381,0.12319 -0.10407,0.08255 -0.18592,0.230964 -0.24518,0.445805 -0.06,0.214983 -0.0896,0.665445 -0.0896,1.350469 v 1.244247"
         style="fill:#10298f;fill-opacity:1;fill-rule:nonzero;stroke:none;stroke-width:0.0352778" />
      <path
         id="path22"
         d="m 201.06761,49.133121 c -0.008,-0.313231 -0.0878,-0.551074 -0.24024,-0.714375 -0.15276,-0.163018 -0.33832,-0.244863 -0.55669,-0.244863 -0.23424,0 -0.42721,0.0864 -0.57961,0.258234 -0.15275,0.171838 -0.2279,0.405694 -0.22507,0.701004 z m -0.055,1.080524 1.05834,0.176388 c -0.13688,0.387774 -0.35313,0.683366 -0.64841,0.886214 -0.29527,0.203129 -0.66498,0.304412 -1.10843,0.304412 -0.70238,0 -1.22237,-0.229588 -1.55927,-0.688587 -0.26635,-0.367524 -0.39935,-0.831533 -0.39935,-1.392379 0,-0.668902 0.17498,-1.193518 0.52493,-1.572754 0.34925,-0.379236 0.79164,-0.568572 1.3261,-0.568572 0.60042,0 1.0742,0.198825 1.42169,0.596547 0.34678,0.398251 0.51294,1.007463 0.49777,1.8288 h -2.67899 c 0.008,0.316654 0.0945,0.562928 0.25999,0.739317 0.16616,0.175683 0.37289,0.263878 0.62019,0.263878 0.16862,0 0.31009,-0.04519 0.42509,-0.135714 0.11466,-0.09042 0.20144,-0.236502 0.26035,-0.43755"
         style="fill:#10298f;fill-opacity:1;fill-rule:nonzero;stroke:none;stroke-width:0.0352778" />
      <path
         id="path23"
         d="m 205.44029,49.552186 c -0.13617,0.0459 -0.35207,0.100189 -0.647,0.163724 -0.29492,0.06311 -0.48754,0.125519 -0.5782,0.186302 -0.13899,0.0991 -0.20779,0.224614 -0.20779,0.376767 0,0.149931 0.055,0.279047 0.16616,0.388338 0.11077,0.108973 0.25189,0.163689 0.42369,0.163689 0.19156,0 0.37394,-0.06354 0.54822,-0.190147 0.12841,-0.09663 0.21307,-0.214454 0.25329,-0.354154 0.0275,-0.09137 0.0416,-0.265289 0.0416,-0.521758 z m -1.43299,-0.870902 -0.9592,-0.176389 c 0.10866,-0.389855 0.29563,-0.678145 0.56092,-0.865435 0.26564,-0.187254 0.66005,-0.281093 1.18321,-0.281093 0.4752,0 0.82939,0.05634 1.06187,0.168522 0.23248,0.113277 0.39652,0.256187 0.49106,0.429401 0.0949,0.173214 0.14253,0.491666 0.14253,0.95497 l -0.0109,1.245199 c 0,0.354295 0.0169,0.615986 0.0508,0.783978 0.0342,0.16824 0.0981,0.34851 0.1912,0.540738 h -1.05798 c -0.0282,-0.06946 -0.0617,-0.172826 -0.10265,-0.309633 -0.0173,-0.06258 -0.0303,-0.103364 -0.0374,-0.123472 -0.18203,0.177341 -0.37606,0.310727 -0.58314,0.399627 -0.20708,0.08858 -0.42792,0.132962 -0.66287,0.132962 -0.41416,0 -0.74083,-0.112854 -0.97931,-0.337891 -0.23813,-0.22546 -0.35737,-0.510575 -0.35737,-0.854781 0,-0.227541 0.054,-0.430777 0.16264,-0.609247 0.10865,-0.178576 0.26105,-0.315419 0.45684,-0.410386 0.19615,-0.09451 0.47872,-0.178047 0.84773,-0.248991 0.49777,-0.09345 0.84278,-0.180657 1.03505,-0.26169 V 48.75004 c 0,-0.207539 -0.0508,-0.355247 -0.1524,-0.443865 -0.1016,-0.08819 -0.29351,-0.132292 -0.57574,-0.132292 -0.1905,0 -0.33902,0.03775 -0.44591,0.112572 -0.10654,0.07511 -0.19332,0.206728 -0.25894,0.394829"
         style="fill:#10298f;fill-opacity:1;fill-rule:nonzero;stroke:none;stroke-width:0.0352778" />
      <path
         id="path24"
         d="m 123.91828,24.0926 h -7.2807 c 0,-1.194858 -0.1403,-1.996722 -0.41963,-2.404886 -0.43339,-0.603955 -1.62909,-0.906286 -3.58634,-0.906286 -1.90098,0 -3.16078,0.173919 -3.77582,0.522111 -0.61461,0.34925 -0.9223,1.108781 -0.9223,2.278239 0,1.058686 0.27256,1.755775 0.81869,2.089856 0.39095,0.237067 0.90812,0.376414 1.55223,0.418042 l 1.46843,0.103716 c 3.14675,0.208845 5.11211,0.355953 5.8958,0.439561 2.48871,0.250825 4.29278,0.912637 5.41214,1.985081 0.88089,0.836789 1.40617,1.9304 1.57374,3.280657 0.0981,0.807932 0.14676,1.722261 0.14676,2.737909 0,2.340857 -0.22331,4.055427 -0.67063,5.141842 -0.81068,1.993618 -2.63172,3.252752 -5.4653,3.781496 -1.18717,0.223661 -3.00313,0.335562 -5.44573,0.335562 -4.07762,0 -6.91914,-0.242817 -8.52343,-0.730638 -1.9692,-0.597676 -3.26732,-1.80841 -3.89572,-3.631565 -0.35003,-1.014907 -0.52339,-2.705065 -0.52339,-5.07104 h 7.2806 c 0,0.263913 9.9e-4,0.465384 9.9e-4,0.604555 0,1.262557 0.36283,2.074616 1.0874,2.436213 0.50186,0.249449 1.10793,0.380365 1.82023,0.395923 h 2.67684 c 1.36564,0 2.23767,-0.06985 2.61345,-0.210291 0.66946,-0.263208 1.10864,-0.686823 1.3185,-1.273175 0.11162,-0.360892 0.16676,-0.82804 0.16676,-1.399646 0,-1.280231 -0.46715,-2.059094 -1.40035,-2.338564 -0.34907,-0.110243 -1.97242,-0.26416 -4.86999,-0.45914 -2.32724,-0.166053 -3.94367,-0.325897 -4.84879,-0.480801 -2.38358,-0.445806 -3.97203,-1.362816 -4.76483,-2.754877 -0.69702,-1.182864 -1.04525,-2.972506 -1.04525,-5.366456 0,-1.823156 0.18811,-3.285067 0.56473,-4.384676 0.37687,-1.099961 0.98393,-1.934986 1.82178,-2.50578 1.22739,-0.877006 2.79767,-1.391709 4.70944,-1.54552 1.59078,-0.138642 3.35552,-0.20955 5.29633,-0.20955 3.05583,0 5.23353,0.175683 6.53164,0.523875 3.1683,0.851253 4.75227,3.235678 4.75227,7.153981 0,0.321381 -0.0236,0.801864 -0.0705,1.444272"
         style="fill:#10298f;fill-opacity:1;fill-rule:nonzero;stroke:none;stroke-width:0.0352778" />
      <path
         id="path25"
         d="m 163.761,29.642148 h 4.87892 c 1.54693,-0.05574 2.48779,-0.174625 2.82645,-0.360892 0.4625,-0.254 0.77294,-0.763411 0.92746,-1.527175 0.0988,-0.508353 0.14816,-1.264355 0.14816,-2.267655 0,-1.230489 -0.0981,-2.142067 -0.29527,-2.737203 -0.28152,-0.833967 -0.95568,-1.341967 -2.02353,-1.52647 -0.21097,-0.02787 -0.7165,-0.04269 -1.5173,-0.04269 H 163.761 Z M 155.93498,43.8955 V 14.816661 h 14.58066 c 1.9999,0 3.52601,0.163336 4.57447,0.489656 2.39818,0.751416 4.0072,2.28988 4.83129,4.615039 0.42545,1.220258 0.63818,3.057525 0.63818,5.510742 0,2.949575 -0.23601,5.069417 -0.70274,6.36009 -0.93521,2.551853 -2.86032,4.021913 -5.76721,4.402808 -0.34184,0.05718 -1.79634,0.108338 -4.36351,0.14926 l -1.29928,0.04339 H 163.761 V 43.8955 h -7.82602"
         style="fill:#10298f;fill-opacity:1;fill-rule:nonzero;stroke:none;stroke-width:0.0352778" />
      <path
         id="path26"
         d="m 195.71103,33.204816 -3.66677,-12.605069 -3.55847,12.605069 z m 1.55434,5.664976 h -10.46374 l -1.40582,5.025708 h -8.09696 l 8.73689,-29.078839 h 11.80536 l 8.84414,29.078839 h -7.92692 l -1.49295,-5.025708"
         style="fill:#10298f;fill-opacity:1;fill-rule:nonzero;stroke:none;stroke-width:0.0352778" />
      <path
         id="path27"
         d="m 145.13328,18.907825 c 3.22791,0 6.1087,1.486959 8.00241,3.815998 l 1.68698,-3.617031 c -2.63842,-2.493786 -6.22935,-4.031192 -10.18999,-4.031192 -6.16655,0 -11.44164,3.724275 -13.60664,8.996187 h -3.28965 l -1.94239,4.164189 h 4.23192 c -0.0318,0.386291 -0.0522,0.772936 -0.0522,1.167341 0,0.477309 0.0247,0.948973 0.072,1.414992 h -2.12689 l -1.94204,4.16553 h 5.1502 c 2.22673,5.138561 7.43585,8.746138 13.50574,8.746138 3.05894,0 5.89739,-0.916517 8.2476,-2.48211 v -5.105082 c -1.89266,2.154837 -4.6609,3.516489 -7.747,3.516489 -3.60751,0 -6.78075,-1.860233 -8.6286,-4.675435 h 10.78477 l 1.94205,-4.16553 h -14.31361 c -0.0737,-0.501297 -0.11324,-1.01353 -0.11324,-1.535289 0,-0.352778 0.0183,-0.702028 0.0522,-1.047044 h 15.57831 l 1.94204,-4.164189 h -16.17309 c 1.78858,-3.086806 5.11704,-5.163962 8.92916,-5.163962"
         style="fill:#fbbc09;fill-opacity:1;fill-rule:nonzero;stroke:none;stroke-width:0.0352778" />
      <path
         id="path28"
         d="m 136.20412,24.19667 h 16.17309 l -0.11324,-0.1778 -1.94133,4.164542 0.11253,-0.07197 h -15.57831 -0.11254 l -0.012,0.113242 c -0.0349,0.351367 -0.0526,0.707672 -0.0526,1.058333 0,0.515409 0.0388,1.038578 0.11466,1.554339 l 0.0162,0.106186 h 0.10725 14.31361 l -0.11254,-0.177447 -1.9424,4.164683 0.11289,-0.07207 h -10.78477 -0.23177 l 0.12735,0.192652 c 1.94345,2.964039 5.20841,4.731103 8.73302,4.731103 2.99614,0 5.85434,-1.295788 7.84154,-3.557412 l -0.21943,-0.08227 v 5.105082 l 0.055,-0.103081 c -2.41653,1.608984 -5.24369,2.459919 -8.17775,2.459919 -5.85293,0 -11.10897,-3.4036 -13.39038,-8.671172 l -0.0332,-0.07482 h -0.0822 -5.1502 l 0.1143,0.17847 1.94133,-4.165953 -0.11359,0.07232 h 2.12689 0.13759 l -0.0138,-0.137936 c -0.0469,-0.470605 -0.0713,-0.943328 -0.0713,-1.402292 0,-0.35313 0.0173,-0.731661 0.0522,-1.156405 l 0.0109,-0.135467 h -0.13547 -4.23192 l 0.11253,0.178153 1.94275,-4.165248 -0.11289,0.07232 h 3.28965 0.084 l 0.0314,-0.07726 c 1.06892,-2.602795 2.88714,-4.821767 5.2571,-6.418793 2.42746,-1.634772 5.27544,-2.499077 8.23418,-2.499077 3.78919,0 7.37694,1.418166 10.10391,3.995561 l -0.0279,-0.143933 -1.68592,3.618089 0.2099,-0.02611 c -1.99672,-2.454628 -4.94806,-3.862564 -8.09942,-3.862564 -3.70699,0 -7.16915,2.00272 -9.03817,5.226756 l -0.10866,0.187325 z m 8.92916,-5.164314 c 3.07587,0 5.957,1.374775 7.90504,3.770489 l 0.12594,0.154869 0.0854,-0.180622 1.68628,-3.617384 0.0377,-0.08184 -0.0649,-0.06244 c -2.77319,-2.621139 -6.42267,-4.064705 -10.27607,-4.064705 -3.00884,0 -5.90444,0.879475 -8.37388,2.543175 -2.41124,1.623836 -4.2605,3.882672 -5.34741,6.530622 l 0.11465,-0.07796 h -3.28965 -0.0801 l -0.0335,0.07232 -1.94169,4.164542 -0.0829,0.178153 h 0.1958 4.23192 l -0.12453,-0.135467 c -0.0356,0.432153 -0.0526,0.816328 -0.0526,1.177219 0,0.467431 0.0236,0.948267 0.072,1.427339 l 0.12488,-0.136525 h -2.12689 -0.079 l -0.0335,0.07197 -1.94275,4.164683 -0.0822,0.177765 h 0.19544 5.1502 l -0.1143,-0.07549 c 2.32163,5.358625 7.66798,8.821774 13.62004,8.821774 2.9838,0 5.85894,-0.864976 8.31674,-2.5025 l 0.0554,-0.03708 v -0.06738 -5.105082 -0.331823 l -0.21837,0.249414 c -1.93922,2.207189 -4.72864,3.472921 -7.65316,3.472921 -3.44065,0 -6.62729,-1.726812 -8.52453,-4.618779 l -0.10407,0.194028 h 10.78477 0.0797 l 0.0335,-0.07137 1.94239,-4.165953 0.0829,-0.177095 h -0.19649 -14.31361 l 0.12418,0.106187 c -0.0741,-0.50412 -0.11219,-1.014237 -0.11219,-1.517298 0,-0.342547 0.0173,-0.690386 0.0519,-1.034344 l -0.12488,0.112889 h 15.57831 0.0808 l 0.0328,-0.07197 1.94204,-4.165248 0.0836,-0.1778 h -0.19721 -16.17309 l 0.10724,0.188031 c 1.82386,-3.147131 5.20453,-5.102225 8.82192,-5.102225"
         style="fill:#10298f;fill-opacity:1;fill-rule:nonzero;stroke:none;stroke-width:0.0352778" />
    </g>
  </g>
</svg>
