<svg height="80" viewBox="0 0 121 80" width="121" xmlns="http://www.w3.org/2000/svg"><g fill="none" fill-rule="nonzero" transform="translate(0 1.6875)"><path d="m23.6524897.00031553h30.1453444c4.2080189 0 6.8252635 3.42989903 5.8436132 7.65187841l-14.0348119 60.25688936c-.9904678 4.207284-5.2036299 7.640122-9.4145877 7.640122h-30.14240536c-4.20214061 0-6.82526389-3.432838-5.84361327-7.640122l14.04068983-60.25688936c.9816507-4.22197938 5.1926086-7.65187841 9.4057708-7.65187841" fill="#e21836"/><path d="m51.2894814.00031553h34.6663748c4.2072834 0 2.3101116 3.42989903 1.3203784 7.65187841l-14.0326072 60.25688936c-.9845898 4.207284-.6774568 7.640122-4.8935581 7.640122h-34.6663741c-4.2161013 0-6.825264-3.432838-5.834796-7.640122l14.0318725-60.25688936c.9963459-4.22197938 5.1984866-7.65187841 9.4087097-7.65187841" fill="#00447c"/><path d="m84.5808103.00031553h30.1453437c4.213898 0 6.831143 3.42989903 5.841409 7.65187841l-14.032607 60.25688936c-.990468 4.207284-5.206569 7.640122-9.4197311 7.640122h-30.1313837c-4.2161013 0-6.8311419-3.432838-5.8436132-7.640122l14.0348113-60.25688936c.9816512-4.22197938 5.1896697-7.65187841 9.405771-7.65187841" fill="#007b84"/><path d="m31.5253863 19.3109115c-3.0999878.0315951-4.0155093 0-4.3079471-.0690682-.1124197.5341766-2.2043055 10.1838905-2.2101837 10.1919729-.450413 1.9522797-.7781196 3.343931-1.8912938 4.2425529-.6319008.5224203-1.3696083.7744458-2.2248788.7744458-1.3747517 0-2.1756493-.6825998-2.310112-1.9772617l-.0257168-.4445349s.418818-2.6150409.418818-2.6297362c0 0 2.1954881-8.7937086 2.5885892-9.9561122.0205735-.0661292.0264516-.1006633.031595-.1322584-4.2734132.0374732-5.0309595 0-5.083128-.0690682-.028656.0947851-.1344626.6399833-.1344626.6399833l-2.2417785 9.9112913-.1925093.8405752-.3725276 2.7495034c0 .8155929.1601795 1.4812931.479069 2.0441257 1.0213281 1.7847526 3.934685 2.0522083 5.5827705 2.0522083 2.1234808 0 4.1154379-.4511478 5.4615336-1.2748232 2.3365637-1.3806299 2.9478911-3.5386448 3.4930892-5.4563903l.2527603-.983855s2.2616174-9.1331716 2.6459011-10.3212921c.0146956-.0661292.0205735-.1006633.0404123-.1322584zm7.6950094 7.367817c-.5451983 0-1.5415442.1322582-2.4364921.5709151-.3247676.1667923-.6319008.3593017-.9559338.5510763l.2924378-1.0558623-.1601794-.177814c-1.897907.3842839-2.322603.4357177-4.0757604.6826l-.1469538.097724c-.2035308 1.6877633-.384284 2.9567083-1.138891 6.2741877-.2872944 1.2226547-.5856105 2.4570657-.8846613 3.6767812l.0808245.1550362c1.796509-.0947851 2.3417071-.0947851 3.9030899-.0690683l.1263802-.1374016c.1983876-1.0161848.2241043-1.2542497.663496-3.3123361.2064699-.9757725.6370442-3.1198269.8493923-3.8832511.3901619-.1807532.7751806-.3585672 1.1425647-.3585672.8751094 0 .7685679.7634245.7347685 1.0676187-.0374731.510664-.3563627 2.1785885-.6833345 3.6106521l-.2182263.9243386c-.152097.6826-.3188896 1.3460957-.4709866 2.0228175l.0661291.1351974c1.770792-.0947851 2.3108469-.0947851 3.8230002-.0690683l.177814-.1374016c.2733338-1.5870999.3534235-2.0117959.8383707-4.3226428l.2439431-1.0617403c.4739258-2.0779252.7119907-3.131583.3534237-3.9897925-.3791405-.961812-1.2887837-1.1939987-2.1242155-1.1939987zm8.5962028 2.1755757c-.9412384.1807532-1.5415443.3012551-2.1381761.3791405-.5914887.0947853-1.168282.1807532-2.0779252.3071332l-.0720073.0653944-.0661291.0521687c-.0947851.6774566-.1609144 1.2630668-.2865597 1.951545-.1065414.7119904-.2703948 1.5209705-.5371157 2.6833742-.2064699.8898045-.3130114 1.1998769-.4305744 1.5128883-.1146239.3130112-.2410039.6172054-.4731909 1.4923145l.054373.0808247.0455555.0742115c.8501271-.0404123 1.4063469-.0690683 1.9779967-.0742115.5709151-.0205736 1.1624035 0 2.077925.0051432l.0800899-.0653944.0859679-.0720072c.1322582-.7891412.152097-1.0014894.2329215-1.3865081.0800897-.4129399.2182263-.9845895.5569545-2.5114384.1601797-.7171339.3387284-1.4320636.504786-2.1638931.1726708-.7288903.3534235-1.446759.5253593-2.1638929l-.0257167-.0867026zm.0200591-2.9333425c-.8552703-.5047857-2.3564023-.3446063-3.366709.352689-1.0073673.6833345-1.1219912 1.6532289-.2696598 2.1646276.8405749.4908254 2.347585.3446066 3.3490741-.3585669 1.0051636-.6980299 1.1308088-1.6591071.2872947-2.1587497zm5.1724021 11.6905332c1.7303799 0 3.5041108-.4768648 4.8391851-1.8920288 1.0272064-1.1477082 1.4981927-2.85531 1.6613116-3.5584833.5312377-2.3306855.1175628-3.4188777-.4019185-4.0816387-.7891412-1.0103067-2.1837315-1.3343395-3.6304906-1.3343395-.8699659 0-2.9420129.0859679-4.5607075 1.5782826-1.162404 1.0764356-1.6995196 2.5371554-2.0235524 3.9376239-.3269718 1.4269203-.7031736 3.9956707 1.6591071 4.9516045.7288902.3130114 1.7796093.3989793 2.4570652.3989793zm-.1351972-5.2440424c.3989795-1.7649136.8699659-3.2462069 2.072047-3.2462069.9419732 0 1.0103065 1.1021528.5914887 2.8729446-.0749463.3931011-.4188179 1.8545556-.8839263 2.4769045-.3247678.4592302-.7090515.7377074-1.1337478.7377074-.1263802 0-.8780483 0-.8898047-1.1161132-.0058779-.5510763.1065415-1.113909.2439431-1.7252364zm10.9612756 5.0170724.1351972-.1374017c.1917746-1.0161847.2233698-1.2549845.6480661-3.312336.2123479-.9757726.6517391-3.1198269.8582095-3.8832513.3908966-.1814877.7693024-.3593017 1.1484427-.3593017.8692309 0 .7634244.7634244.7288907 1.0676184-.0315956.511399-.3504845 2.1785885-.6833352 3.6106521l-.2064695.9243388c-.1579754.6833345-.3299112 1.3460957-.4820082 2.0235523l.0661293.1351974c1.77667-.0947853 2.2961509-.0947853 3.8171218-.0690683l.1836922-.1374017c.2667209-1.5878345.3387281-2.0125308.8383707-4.3226427l.2380651-1.062475c.4761298-2.0779252.7171335-3.1308483.364445-3.9890578-.3901622-.961812-1.3056836-1.1939987-2.129359-1.1939987-.5459331 0-1.5474222.1315234-2.4372269.5709151-.3181544.1667923-.6370442.3585669-.9500556.5510763l.2725993-1.0558623-.1462191-.1785488c-1.8971717.3850187-2.3306854.4364525-4.0816386.6833348l-.1344627.097724c-.2123479 1.6877631-.3850187 2.9559735-1.1396257 6.2741877-.2872942 1.2226547-.5856102 2.4570655-.8839263 3.6767812l.0800897.1550362c1.7994478-.0947853 2.3365639-.0947853 3.8950075-.0690683zm13.0535282.0687008c.1116849-.5451981.7751809-3.7767097.7810588-3.7767097 0 0 .5650369-2.3710978.5995716-2.4570657 0 0 .1778137-.246882.3556275-.3446063h.2615774c2.4680876 0 5.255064 0 7.4395304-1.6069386 1.4864368-1.1021526 2.5026213-2.7296648 2.9559733-4.7076612.1175633-.4849472.204266-1.0617405.204266-1.6385336 0-.7575463-.152097-1.5070101-.5914887-2.0926205-1.113909-1.5584439-3.3321745-1.5870998-5.8928427-1.5988562-.0080824 0-1.2623325.0117564-1.2623325.0117564-3.2778016.0404122-4.5923026.0286559-5.1323573-.0374732-.0455555.2387997-.1315237.6634959-.1315237.6634959s-1.1741599 5.441695-1.1741599 5.4505122c0 0-2.8097542 11.5696636-2.9420129 12.1148617 2.8619232-.0345339 4.0353486-.0345339 4.5291127.0198388zm2.1756495-9.6666134s1.2483717-5.4306734 1.2424937-5.4100999l.0404117-.2784772.0176348-.2123481.4989075.0514337s2.5746286.2211653 2.63488.2270435c1.0161844.3931011 1.4350023 1.4063468 1.1425647 2.7289298-.2667209 1.2086941-1.0507186 2.224879-2.0580862 2.7157042-.8295538.4158789-1.8457387.450413-2.8927834.450413h-.6774563zm7.7726747 4.6814302c-.3299113 1.4063466-.709052 3.9750972 1.6414722 4.8906186.7494636.3188894 1.421042.4136745 2.1036422.3791405.7208079-.0389428 1.3887123-.4004487 2.0073872-.9206649-.055842.2138177-.1116844.4276353-.1675269.6421877l.106541.1374016c1.6907023-.0712725 2.2153271-.0712725 4.0471045-.0573119l.1660578-.1263802c.2674559-1.5724045.5194814-3.0992532 1.2145725-6.1073952.3387277-1.440881.6767214-2.8678011 1.0242669-4.3028039l-.0543725-.1579752c-1.8912943.3504845-2.3968148.425431-4.2161018.6833347l-.1381361.1124194c-.0183693.1462191-.0374731.2865597-.0551079.4269006-.2828858-.457026-.6928862-.8471879-1.325522-1.0903963-.8089804-.3181548-2.7090912.0918459-4.3424815 1.5790172-1.1477082 1.0617405-1.6987842 2.5165818-2.0117956 3.9119073zm3.9721577.0859679c.4048575-1.7333189.8699659-3.1999166 2.0749865-3.1999166.7619545 0 1.163138.7031733 1.0815788 1.9023154-.0646594.2990508-.1344627.6142665-.2174918.9706292-.1205014.5150726-.2512906 1.0257366-.3784053 1.5371355-.1293197.3497498-.2799468.6796608-.4452696.8993566-.3100725.4393914-1.0477797.7119905-1.472476.7119905-.1205023 0-.8640879 0-.8898047-1.0962744-.0058784-.5459329.1065415-1.1080308.2468821-1.7252362zm20.7428798-5.7231849-.146218-.1667924c-1.871456.3791405-2.210184.4393914-3.929542.6715784l-.126381.12638c-.005877.0205735-.011021.0521687-.019838.0808247l-.005878-.028656c-1.279967 2.9530343-1.242494 2.3159901-2.284395 4.6407974-.005879-.1058067-.005879-.1719358-.011756-.2843554l-.260844-5.0397767-.163853-.1667924c-1.960362.3791405-2.006652.4393914-3.817122.6715784l-.141075.12638c-.019839.0602511-.019839.1263802-.031595.1983875l.011756.025717c.226309 1.1565256.171936.8986219.398979 2.7237866.105807.8956826.246883 1.7965087.352689 2.68117.178549 1.4805583.278478 2.2094486.496704 4.4688616-1.222655 2.017674-1.512154 2.7810985-2.6892529 4.5518904l.0080825.0176344-.8288188 1.3108268c-.0947851.1381366-.1807528.2329217-.3012551.273334-.1322582.0653944-.304194.0771505-.5429941.0771505h-.45923l-.6825997 2.2704346 2.3417068.0404123c1.3747513-.0058782 2.2388393-.6488006 2.7039483-1.5128883l1.472475-2.5231948h-.023512l.155036-.177814c.990468-2.1322979 8.524783-15.0568746 8.524783-15.0568746zm-24.7151113 29.8187394h-.9934071l3.6767816-12.161152h1.2197154l.3872227-1.2527801.0374731 1.393121c-.0455555.8611485.6319013 1.6245729 2.4115102 1.4981929h2.0580862l.7083169-2.3417071h-.7744458c-.4452696 0-.6517396-.1124196-.6260223-.3534235l-.0374736-1.4173685h-3.8112439v.0073477c-1.2322063.025717-4.9119269.1182978-5.656982.3166854-.9015606.2321867-1.8516167.9155214-1.8516167.9155214l.3732623-1.2542498h-3.5650963l-.7428506 2.4886606-3.7260107 12.3470487h-.7230123l-.7090515 2.3248075h7.1008023l-.2380652.7751803h3.4989669l.2321872-.7751803h.9816508zm-2.9133567-9.6901257c-.5709149.1579752-1.6333903.6370442-1.6333903.6370442l.9449121-3.1080705h2.8325325l-.6833347 2.2645564s-.8751094.0514337-1.4607196.2064699zm.054373 4.4402056s-.8898047.1116849-1.4754154.2439431c-.5767933.1748753-1.6583721.7259513-1.6583721.7259513l.9757723-3.2344505h2.8472279zm-1.5870998 5.2785763h-2.8413494l.8236753-2.7296645h2.832532zm6.8426038-7.5431324h4.0955995l-.5885496 1.9059892h-4.1499715l-.6230843 2.0838034h3.6312256l-2.7495029 3.8714947c-.1925096.2843557-.3651804.3850187-.5569545.4651084-.1925096.097724-.4452696.2123479-.7377077.2123479h-1.0073675l-.6921522 2.2821909h2.6348795c1.3696085 0 2.1785885-.6230838 2.7759555-1.4408812l1.8854159-2.5805065.4048575 2.6201846c.0859676.4908247.4386566.7781193.6774563.8898042.2637819.1322582.5363812.3593019.9213999.3931011.4129394.0176343.7112555.0315952.909643.0315952h1.2946622l.7773848-2.5540553h-.510664c-.293173 0-.7979586-.0492295-.8839262-.1410756-.0859682-.1116848-.0859682-.2836206-.1322587-.5451981l-.4107354-2.6260625h-1.6818854l.7377082-.8780478h4.1418891l.6370439-2.0838034h-3.8347558l.5973666-1.9059892h3.8230002l.709051-2.3505243h-11.3977274zm-34.5915745 8.0738559.9559336-3.1800775h3.9288071l.7178684-2.3652197h-3.9324806l.6003061-1.9574231h3.8428385l.7119909-2.2902733h-9.6151799l-.6972951 2.2902733h2.1844664l-.5826712 1.9574231h-2.1903449l-.7259508 2.4056318h2.1837314l-1.2740884 4.2072839c-.1719358.5569545.0808247.7693024.2410041 1.0279408.1638534.2520255.3299112.4188179.7031736.513603.3850186.0859681.6488005.1374016 1.0073675.1374016h4.4291842l.7891412-2.6201841-1.9633016.2696603c-.3791402 0-1.4291244-.0455555-1.3145005-.3960401zm.4506333-15.2235202-.9956111 1.799448c-.2130829.3931008-.4048575.6370442-.5775278.7494636-.152097.0947853-.4533521.1344626-.8898047.1344626h-.5194814l-.6943561 2.3020295h1.7252364c.8295533 0 1.4665975-.304194 1.770792-.4562912.3269718-.1748748.4129394-.0749463.6656999-.3188894l.5826717-.504786h5.3873218l.7149299-2.3968145h-3.9435025l.6884782-1.3086226zm7.9534274 15.269737c-.0918461-.1322586-.0257168-.3651799.1146239-.8501271l1.4724759-4.8737188h5.2381642c.7634245-.0110214 1.3145005-.0198388 1.6730675-.0455555.3850187-.0404126.803837-.1778143 1.260128-.4246963.4709868-.2586385.7119905-.5312378.9155215-.8442492.2270432-.3122764.5914886-.9956111.9045-2.0492687l1.8508817-6.1676465-5.4358168.0315951s-1.6738024.2468821-2.4107751.5194812c-.7435857.3041942-1.8060611 1.1535866-1.8060611 1.1535866l.4908256-1.6907023h-3.3578923l-4.701048 15.5910516c-.1667924.6054485-.2784773 1.0448402-.3043499 1.3086221-.0086615.2843556.3587228.5657718.596788.7781198.2814162.2123483.6972946.1778142 1.0962741.2123483.4195529.0315952 1.016185.0514335 1.8398599.0514335h2.5805069l.7920802-2.674557-2.3101117.2182263c-.246882 0-.4254308-.1322586-.4996425-.2439431zm2.5371554-9.0156088h5.5019461l-.3497496 1.0962746c-.0492295.0257168-.1667928-.0543729-.7266863.0117564h-4.7642384zm1.1021526-3.6767809h5.5482362l-.3989791 1.3203787s-2.6150407-.0257168-3.0338585.0514337c-1.8427998.3188896-2.9192352 1.3034794-2.9192352 1.3034794zm4.1731907 8.444179c-.0455555.1638534-.1175628.2637819-.2182258.3387281-.1116854.0720073-.2924381.0977241-.562098.0977241h-.7839982l.0462906-1.3350738h-3.2609023l-.1322582 6.5269479c-.0051435.4709864.0404121.7435857.3850187.961812.3446061.2725988 1.4063466.307133 2.835471.307133h2.0433913l.7377076-2.4431049-1.7788748.0977241-.5914882.0345341c-.0808247-.0345341-.1579754-.0661293-.2439431-.152097-.0749467-.0742117-.2013265-.0286557-.1807532-.4996425l.0139604-1.6730675 1.8655775-.0771507c1.0073675 0 1.4379418-.3277073 1.8053257-.6399837.3504845-.2990505.4651084-.6429221.597367-1.108031l.3130114-1.4812929h-2.5636076z" fill="#fefefe"/></g></svg>