<svg xmlns="http://www.w3.org/2000/svg" xmlns:xlink="http://www.w3.org/1999/xlink" width="640" height="360"><defs><path id="a" d="M49.42 46.548c-19.05 0-33.045-5.138-41.997-13.67-7.872-7.5-9.066-17.86-5.336-25.11C3.832 4.375 5.75 2.354 8.179.077A27.312 27.312 0 005.135 3.58 23.382 23.382 0 004.006 5.28l-.06.102a8.883 8.883 0 00-.077.13l-.095.164-.054.093-.143.257-.038.07-.112.208-.04.076c-.048.09-.095.18-.141.272-1.343 2.65-2.042 5.398-2.052 8.162v.004c-.018 5.097 2.307 10.25 7.245 14.955 8.733 8.315 23.59 13.43 40.844 13.43 17.249 0 32.105-5.115 40.833-13.43.167-.16.331-.319.492-.48l.02-.018.095-.095.08-.081.05-.051.126-.13c.002 0 .002-.002.004-.003a27.919 27.919 0 001.369-1.509c1.295-1.535 2.332-3.105 3.119-4.698 1.705-3.426 2.255-6.914 1.691-10.445a18.547 18.547 0 00-1.45-4.782l-.036-.08-.034-.073a20.016 20.016 0 00-.555-1.111l-.02-.037a8.745 8.745 0 01-.042-.078l-.056-.102-.028-.05c-1.127-2.03-2.61-3.94-4.397-5.71 2.571 2.272 4.445 4.679 5.843 7.292 3.449 6.448 3.122 17.136-5.284 25.345-8.579 8.376-22.569 13.67-41.682 13.67z"/><path id="c" d="M10.23 42.056a36.98 36.98 0 01-1.803-1.394C3.093 36.253.582 31.425.6 26.649c.011-2.589.765-5.163 2.216-7.646a21.052 21.052 0 012.04-2.885 27.072 27.072 0 013.29-3.282c2.733-2.314 6.111-4.371 9.984-6.125a62.374 62.374 0 015.177-2.063c8.74-3.054 18.91-4.62 29.23-4.62.241 0 .477 0 .719.004-.144.957-.287 1.968-.292 3.029h-.099c-13.728 0-35.614 3.953-39.153 17.247-.654 2.464-.56 4.698.118 6.715 1.656 5.653 7.865 9.647 15.236 12.28-5.553 1.446-11.86 2.41-18.837 2.753m21.323-3.448c-7.691-2.46-14.419-6.37-16.291-12.076-.51-1.794-.543-3.761.013-5.91C18.597 7.775 39.776 3.963 52.99 3.963h.007c.008.11.019.221.03.332-1.49 3.029-2.79 6.114-4.022 9.224-6.235-1.943-12.371-3.587-18.817-4.966.21.115.427.23.638.345l.012.003c4.277 2.298 8.204 4.773 12.204 7.422a347.199 347.199 0 00-25.213 3.64c8.56.104 16.573.198 24.934.652-5.9 4.203-11.094 8.177-16.573 12.756 7.754-3.467 14.875-6.433 22.697-9.545.451 1.637.88 3.253 1.297 4.86-4.251 4.04-10.558 7.51-18.631 9.921m-.423-8.28c5.82-3.53 11.764-6.903 17.869-10.067.18.658.359 1.316.533 1.968a344.887 344.887 0 00-18.402 8.1m21.675-4.535c-.064-1.852-.132-3.708-.2-5.538.926-.201 1.767-.392 1.767-.392.283-.032.586-.046.898-.046.208 0 .42.007.635.018-.592 2.048-1.634 4.048-3.1 5.958m-3.806-5.533c-8.566-.57-15.117-.836-23.553-.856 9.597-.698 17.314-1.078 27.085-1.205l.01.253a254.284 254.284 0 00-3.542 1.808m3.575-.884l-.025-.684.501-.25.27.12c-.25.25-.495.516-.746.814m-.034-.92v-.004l.255-.128-.146.077-.109.055m.255-.132a18.75 18.75 0 01-.26-.125l.523-.007-.177.089-.033.016-.038.02-.015.007m-.264-.125v-.002l.003.002h-.003m1.172-.004l-.645-.003c.495-.245.992-.489 1.488-.732-.298.248-.576.487-.843.735m-.645-.003c-.968-.474-1.974-.957-2.967-1.426l-.037-.018-.981-.462c1.22-3.451 2.516-6.887 3.98-10.27.005 4.057.005 8.119.005 12.176m-7.66-1.572c-3.707-2.37-7.512-4.631-11.454-6.725 5.169 1.922 10.202 4.078 15.129 6.391-1.221.105-2.448.214-3.675.334m11.033-1.965l-.032-.087.023-.007.009.094"/><path id="e" d="M.436 9.242C1.62 7.047 2.192 4.805 2.184 2.576c-.003-.72-.066-1.44-.188-2.155v.001c.521 2.981.013 5.927-1.56 8.82z"/><path id="g" d="M.304 2.302c-.011-.298-.024-.594-.036-.89.287-.303.566-.573.85-.826.952.376 2.014.753 2.993 1.135l-.05.155a15.821 15.821 0 00-.722-.018c-.355 0-.7.014-1.023.047 0 0-.958.193-2.012.397"/><path id="i" d="M4.44 1.996C3.27 1.987 2.096 1.981.923 1.978a27.9 27.9 0 011.153-.745c.87-.316 1.742-.63 2.619-.941a10.91 10.91 0 01-.255 1.704"/><path id="k" d="M1.318 1.814l-.067-.076.067.076zm-.13-.145zm-.604-.643C.5.94.414.856.328.772L.238.685.166.613c.143.137.283.274.419.413zM.127.578L.077.529.048.504l.078.074z"/><path id="m" d="M.09 1.948l.024-.019-.025.019zm.14-.109l.1-.077-.1.077zm.16-.125zm.16-.126zM2.137.244z"/><path id="o" d="M2.764 48.067c.14-1.528-.061-1.399.83-2.816.827-1.315.428-1.984 1.16-3.113 1.797-2.456 3.494-4.936 5.512-7.177 1.35-1.5 3.184-6.547 3.615-8.32.082-.26.212-.388.267-.163.283 3.38.719 6.2.61 9.523-.23 6.978-.057 6.247 2.597 12.764.219-2.62.797-6.423 2.196-7.71-1.63 6.791-1.73 16.472-1.903 19.453-.088 1.516-.465 3.907.2 5.302.223.944.24 2.368.26 3.45l.041 11.914-.955 5.225c-.341 1.508-2.12 4.044-3.435 4.832-.418.253-1.4.825-1.4 1.337 0 .824 4.864 2.367 5.973.49.834-1.41 1.52-2.187 2.514-3.229 1.531-1.604-.166-3.256.035-5.428.35-3.786 1.84-7.072 2.328-10.647.294-2.15.245-4.05-.653-6.503l.646-6.831c.715 1.178 1.391 3.049 2.074 4.606 1.216 2.767 1.233 3.037 3.333 5.307.708.763 1.44 1.668 1.972 2.593.989 1.717 1.67 3.42 1.582 5.469-.729 1.44-1.042 1.351-1.977 2.225.03.049-.259.843.629.843 3.164 0 2.772-1.807 3.97-4.15.772-1.515 2.991-3.819.557-4.617-.763-.25-1.482-.752-1.926-1.561-1.687-3.084-1.752-3.005-2.63-5.844-.53-1.718-1.61-3.106-2.888-4.235-.78-1.936-1.09-3.314-1.34-5.371-.341-2.79-.573-4.788-1.006-7.64 1.236-5.357 1.87-6.49-.23-11.64a10.018 10.018 0 01-.756-3.843c0-1.714.861-5.557 1.699-7.55.291-.811.7-1.574 1.276-1.817.511 2.078 2.265 6.349 3.284 7.395.064.84.032 1.686.334 2.48 1.284 3.37 3.13 6.433 4.05 9.984.316 1.22-.105 1.808-.423 2.792-.098.474-.123 1.843.07 2.86l.439.262c-.076.31-.272 1.168-.428 1.566.057.481.598.755.598.755.705-.171 1.712-2.964 1.677-4.08-.11-3.416-.767-4.944-.95-5.963-1.041-5.794-.44-7.387-3.405-12.994l-1.688-4.557c-.206-2.336-1.057-7.662-3.79-8.618-.46-.16-.923-.19-1.617-.436-3.578-1.27-3.567-4.272-2.592-7.554.868-2.922.983-6.365-2.946-6.728-2.432-.223-3.17 1.87-3.69 4.28.018.264.139 4.183.667 5.026 1.04.845 1.624.597 1.558 2.714-.055 1.778-1.088 2.828-2.493 3.369-2.286.88-3.454 1.394-4.225 3.974-.242.809-.45 1.972-.456 3.708v.117c-.654 1.771-1.478 3.8-1.976 5.704-2.814 3.086-4.21 10.108-7.06 13.073C.586 44.293.014 44.419.708 47.456c.069.308.977 1.098 1.17 1.21.14.057.89-.423.886-.599"/></defs><g fill="none" fill-rule="evenodd"><path fill="#283A93" fill-rule="nonzero" d="M413.248 212.522c-1.528 9.747-6.564 14.857-12.61 14.857-3.828 0-6.034-2.685-5.382-6.85l2.112-13.236c.824-4.903 3.748-8.737 8.99-8.737 5.8 0 8.445 3.94 6.89 13.966zm-20.703 19.435c.817 0 2.777 3.441 9.142 3.441 13.561 0 21.315-9.813 23.441-22.464 2.684-15.607-4.903-22.703-14.464-22.703-4.499 0-7.854.405-10.306 1.7l3.688-21.46h-11.249l-11.189 64.15h8.478s1.236-2.644 2.538-2.644h-.08v-.02zm119.842-27.361c1.721-9.721-1.88-14.458-12.411-14.458-7.84 0-10.937 3.461-13.867 6.398l.286-5.402-10.432.067-.804 8.006-6.033 35.42h11.422l3.68-22.995c1.303-7.92 6.785-13.973 11.92-13.973 5.721 0 5.655 3.269 4.751 8.252l-4.976 28.717h11.328l5.136-30.032zM560 190.237h-13.315L531.39 206.45l-.22-.046 6.133-35.9h-11.109l-11.202 64.118h11.268l1.15-6.425 2.292-14.04c5.953 0 9.302.652 11.913 12.485l1.8 7.98h11.509s-2.864-12.132-4.738-16.87c-1.973-4.983-4.106-8.279-8.69-9.176L560 190.237zm-327.243 15.72c8.239-1.8 12.524-8.464 13.674-12.796 2.936-11.92-2.359-21.229-17.561-21.063l-17.415-.02-10.936 62.543h11.348l4.492-25.122c10.464-.286 11.747 2.259 13.707 14.458l1.8 10.664h11.767c-1.388-6.465-2.279-12.551-3.421-17.441-1.236-5.156-3.136-9.176-8.033-11.09l.578-.132zm2.279-14.89c-.977 5.555-5.282 9.456-10.585 9.456h-6.69l3.455-19.754 6.086-.013c7.222 0 8.63 4.75 7.734 10.312zm51.313 11.814c1.628-9.481-3.435-12.743-13.64-12.743-12.744 0-18.292 6.046-18.292 6.046l3.914 6.61s4.119-4.83 12.338-4.83c4.578 0 4.678 2.34 4.239 4.83l-.897 5.635c-16.418-.405-24.823 3.116-26.703 13.887-1.535 8.823 5.083 13.082 12.504 13.082 3.834 0 6.937-.584 10.684-3.84.738 2.113 2.053 3.242 3.515 3.475 2.365.492 6.452-.067 7.674-.964-.093-1.308 0-4.644 1.389-12.484l3.275-18.704zm-13.467 11.521c-1.821 12.897-3.535 14.186-9.754 14.186-4.253 0-5.82-2.91-5.103-6.724.99-5.203 4.917-7.462 14.857-7.462zm193.547-11.52c1.634-9.482-3.435-12.744-13.647-12.744-12.738 0-18.292 6.046-18.292 6.046l3.927 6.61s4.112-4.83 12.318-4.83c4.591 0 4.684 2.34 4.252 4.83l-.897 5.635c-16.424-.405-24.822 3.116-26.71 13.887-1.554 8.823 5.063 13.082 12.492 13.082 3.833 0 6.943-.584 10.704-3.84.717 2.113 2.033 3.242 3.501 3.475 2.366.492 6.452-.067 7.668-.964-.08-1.308 0-4.644 1.388-12.484l3.296-18.704zm-13.475 11.52c-1.807 12.897-3.528 14.186-9.753 14.186-4.246 0-5.82-2.91-5.11-6.724.997-5.203 4.923-7.462 14.863-7.462zm-143.808 20.996c13.56 0 21.315-9.813 23.428-22.464 2.69-15.607-4.89-22.703-14.458-22.703-4.492 0-7.734.405-10.266 1.7l3.681-21.46h-11.295l-11.196 64.15h8.498s1.223-2.644 2.452-2.644c.824-.02 2.784 3.421 9.156 3.421zm4.737-36.842c5.8 0 8.26 3.92 6.89 13.966-1.395 10.266-6.564 14.87-12.69 14.87-3.834 0-6.04-2.698-5.309-6.864l2.12-13.222c.81-4.91 3.747-8.737 8.903-8.737h.086v-.013zm23.448 17.86c1.747-16.332 9.11-26.438 26.617-26.438 12.99 0 17.295 9.92 15.547 20.584-2.79 17.05-9.428 25.082-26.092 25.082-10.783 0-17.188-8.797-16.072-19.228zm30.304-5.063c.838-4.518 1.721-13.289-6.053-13.289-5.222 0-10.099 3.542-12.291 15.953-1.336 7.594.126 13.68 6.179 13.68 4.425-.006 9.827-3.654 12.165-16.344z"/><g transform="translate(80 198.706)"><mask id="b" fill="#fff"><use xlink:href="#a"/></mask><path fill="#BA5C30" mask="url(#b)" d="M-1.643 46.548H.805V.077h-2.448z"/><path fill="#BA5B30" mask="url(#b)" d="M.441 46.548h1.235V.077H.441z"/><path fill="#B95B30" mask="url(#b)" d="M1.209 46.548h1.236V.077H1.209z"/><path fill="#B85B30" mask="url(#b)" d="M1.978 46.548h1.236V.077H1.978z"/><path fill="#B75B30" mask="url(#b)" d="M2.747 46.548h1.235V.077H2.747z"/><path fill="#B65A30" mask="url(#b)" d="M3.516 46.548h1.235V.077H3.516z"/><path fill="#B65A31" mask="url(#b)" d="M4.284 46.548h1.235V.077H4.284z"/><path fill="#B55931" mask="url(#b)" d="M5.053 46.548h1.235V.077H5.053z"/><path fill="#B45931" mask="url(#b)" d="M5.822 46.548h1.235V.077H5.822z"/><path fill="#B45831" mask="url(#b)" d="M6.59 46.548h1.235V.077H6.59z"/><path fill="#B35831" mask="url(#b)" d="M7.359 46.548h1.235V.077H7.359z"/><path fill="#B25731" mask="url(#b)" d="M8.128 46.548h1.235V.077H8.128z"/><path fill="#B15731" mask="url(#b)" d="M8.896 46.548h1.235V.077H8.896z"/><path fill="#B15631" mask="url(#b)" d="M9.665 46.548H10.9V.077H9.665z"/><path fill="#B05631" mask="url(#b)" d="M10.434 46.548h1.235V.077h-1.235z"/><path fill="#AF5531" mask="url(#b)" d="M11.202 46.548h1.235V.077h-1.235z"/><path fill="#AE5531" mask="url(#b)" d="M11.971 46.548h1.235V.077h-1.235z"/><path fill="#AE5532" mask="url(#b)" d="M12.74 46.548h1.235V.077H12.74z"/><path fill="#AD5532" mask="url(#b)" d="M13.508 46.548h1.236V.077h-1.236z"/><path fill="#AC5432" mask="url(#b)" d="M14.277 46.548h1.235V.077h-1.235z"/><path fill="#AC5432" mask="url(#b)" d="M15.046 46.548h1.235V.077h-1.235z"/><path fill="#AB5332" mask="url(#b)" d="M15.814 46.548h1.236V.077h-1.236z"/><path fill="#AA5332" mask="url(#b)" d="M16.583 46.548h1.236V.077h-1.236z"/><path fill="#AA5232" mask="url(#b)" d="M17.351 46.548h1.236V.077h-1.236z"/><path fill="#A95232" mask="url(#b)" d="M18.12 46.548h1.236V.077H18.12z"/><path fill="#A85132" mask="url(#b)" d="M18.889 46.548h1.236V.077h-1.236z"/><path fill="#A75132" mask="url(#b)" d="M19.658 46.548h1.235V.077h-1.235z"/><path fill="#A75032" mask="url(#b)" d="M20.427 46.548h1.235V.077h-1.235z"/><path fill="#A65032" mask="url(#b)" d="M21.195 46.548h1.236V.077h-1.236z"/><path fill="#A55033" mask="url(#b)" d="M21.964 46.548h1.235V.077h-1.235z"/><path fill="#A45033" mask="url(#b)" d="M22.733 46.548h1.235V.077h-1.235z"/><path fill="#A44F33" mask="url(#b)" d="M23.502 46.548h1.235V.077h-1.235z"/><path fill="#A34F33" mask="url(#b)" d="M24.27 46.548h1.354V.077H24.27z"/><path fill="#A24E33" mask="url(#b)" d="M25.423 46.548h1.235V.077h-1.235z"/><path fill="#A24E33" mask="url(#b)" d="M26.191 46.548h1.236V.077h-1.236z"/><path fill="#A14D33" mask="url(#b)" d="M26.96 46.548h1.236V.077H26.96z"/><path fill="#A04D33" mask="url(#b)" d="M27.729 46.548h1.236V.077h-1.236z"/><path fill="#9F4C33" mask="url(#b)" d="M28.498 46.548h1.235V.077h-1.235z"/><path fill="#9F4C33" mask="url(#b)" d="M29.266 46.548h1.236V.077h-1.236z"/><path fill="#9E4C33" mask="url(#b)" d="M30.035 46.548h1.236V.077h-1.236z"/><path fill="#9D4C33" mask="url(#b)" d="M30.804 46.548h1.235V.077h-1.235z"/><path fill="#9C4B33" mask="url(#b)" d="M31.573 46.548h1.235V.077h-1.235z"/><path fill="#9C4B34" mask="url(#b)" d="M32.341 46.548h1.236V.077h-1.236z"/><path fill="#9B4A34" mask="url(#b)" d="M33.11 46.548h.745V.077h-.745z"/><path fill="#9A4A34" mask="url(#b)" d="M33.494 46.548h.745V.077h-.745z"/><path fill="#9A4A34" mask="url(#b)" d="M33.879 46.548h.745V.077h-.745z"/><path fill="#994A34" mask="url(#b)" d="M34.263 46.548h.745V.077h-.745z"/><path fill="#994934" mask="url(#b)" d="M34.648 46.548h1.235V.077h-1.235z"/><path fill="#984934" mask="url(#b)" d="M35.416 46.548h1.235V.077h-1.235z"/><path fill="#974834" mask="url(#b)" d="M36.185 46.548h1.235V.077h-1.235z"/><path fill="#974834" mask="url(#b)" d="M36.954 46.548h1.235V.077h-1.235z"/><path fill="#964834" mask="url(#b)" d="M37.722 46.548h1.235V.077h-1.235z"/><path fill="#954834" mask="url(#b)" d="M38.491 46.548h1.235V.077h-1.235z"/><path fill="#944734" mask="url(#b)" d="M39.259 46.548h1.235V.077h-1.235z"/><path fill="#944734" mask="url(#b)" d="M40.028 46.548h1.235V.077h-1.235z"/><path fill="#934634" mask="url(#b)" d="M40.797 46.548h1.235V.077h-1.235z"/><path fill="#924634" mask="url(#b)" d="M41.565 46.548H42.8V.077h-1.235z"/><path fill="#914534" mask="url(#b)" d="M42.334 46.548h1.235V.077h-1.235z"/><path fill="#914534" mask="url(#b)" d="M43.103 46.548h1.235V.077h-1.235z"/><path fill="#904534" mask="url(#b)" d="M43.871 46.548h1.236V.077h-1.236z"/><path fill="#8F4534" mask="url(#b)" d="M44.64 46.548h1.235V.077H44.64z"/><path fill="#8F4434" mask="url(#b)" d="M45.409 46.548h1.235V.077h-1.235z"/><path fill="#8E4434" mask="url(#b)" d="M46.177 46.548h1.236V.077h-1.236z"/><path fill="#8D4334" mask="url(#b)" d="M46.946 46.548h1.236V.077h-1.236z"/><path fill="#8C4334" mask="url(#b)" d="M47.715 46.548h1.235V.077h-1.235z"/><path fill="#8C4234" mask="url(#b)" d="M48.483 46.548h1.355V.077h-1.355z"/><path fill="#8B4234" mask="url(#b)" d="M49.637 46.548h1.235V.077h-1.235z"/><path fill="#8A4234" mask="url(#b)" d="M50.405 46.548h1.235V.077h-1.235z"/><path fill="#894234" mask="url(#b)" d="M51.174 46.548h1.235V.077h-1.235z"/><path fill="#894134" mask="url(#b)" d="M51.943 46.548h1.235V.077h-1.235z"/><path fill="#884134" mask="url(#b)" d="M52.711 46.548h1.235V.077h-1.235z"/><path fill="#874034" mask="url(#b)" d="M53.48 46.548h1.235V.077H53.48z"/><path fill="#864034" mask="url(#b)" d="M54.249 46.548h1.235V.077h-1.235z"/><path fill="#864034" mask="url(#b)" d="M55.017 46.548h1.236V.077h-1.236z"/><path fill="#854034" mask="url(#b)" d="M55.786 46.548h1.235V.077h-1.235z"/><path fill="#843F34" mask="url(#b)" d="M56.555 46.548h1.235V.077h-1.235z"/><path fill="#843F34" mask="url(#b)" d="M57.323 46.548h1.236V.077h-1.236z"/><path fill="#833F34" mask="url(#b)" d="M58.092 46.548h1.236V.077h-1.236z"/><path fill="#823F34" mask="url(#b)" d="M58.861 46.548h1.236V.077h-1.236z"/><path fill="#823E34" mask="url(#b)" d="M59.629 46.548h1.236V.077h-1.236z"/><path fill="#813E34" mask="url(#b)" d="M60.398 46.548h1.236V.077h-1.236z"/><path fill="#803D34" mask="url(#b)" d="M61.167 46.548h1.235V.077h-1.235z"/><path fill="#803D34" mask="url(#b)" d="M61.936 46.548h1.235V.077h-1.235z"/><path fill="#7F3D34" mask="url(#b)" d="M62.704 46.548h1.236V.077h-1.236z"/><path fill="#7E3D34" mask="url(#b)" d="M63.473 46.548h1.235V.077h-1.235z"/><path fill="#7E3C34" mask="url(#b)" d="M64.242 46.548h1.235V.077h-1.235z"/><path fill="#7D3C34" mask="url(#b)" d="M65.011 46.548h1.235V.077h-1.235z"/><path fill="#7D3C34" mask="url(#b)" d="M65.779 46.548h1.235V.077h-1.235z"/><path fill="#7C3C34" mask="url(#b)" d="M66.548 46.548h1.235V.077h-1.235z"/><path fill="#7B3B34" mask="url(#b)" d="M67.317 46.548h1.235V.077h-1.235z"/><path fill="#7B3B34" mask="url(#b)" d="M68.085 46.548h1.235V.077h-1.235z"/><path fill="#7A3B34" mask="url(#b)" d="M68.854 46.548h1.235V.077h-1.235z"/><path fill="#793B34" mask="url(#b)" d="M69.623 46.548h1.235V.077h-1.235z"/><path fill="#793A34" mask="url(#b)" d="M70.391 46.548h1.235V.077h-1.235z"/><path fill="#783A34" mask="url(#b)" d="M71.16 46.548h1.235V.077H71.16z"/><path fill="#773934" mask="url(#b)" d="M71.929 46.548h1.235V.077h-1.235z"/><path fill="#773934" mask="url(#b)" d="M72.697 46.548h1.235V.077h-1.235z"/><path fill="#763934" mask="url(#b)" d="M73.466 46.548h1.355V.077h-1.355z"/><path fill="#763934" mask="url(#b)" d="M74.619 46.548h1.235V.077h-1.235z"/><path fill="#753834" mask="url(#b)" d="M75.388 46.548h1.235V.077h-1.235z"/><path fill="#743834" mask="url(#b)" d="M76.157 46.548h1.235V.077h-1.235z"/><path fill="#743834" mask="url(#b)" d="M76.925 46.548h1.235V.077h-1.235z"/><path fill="#733834" mask="url(#b)" d="M77.694 46.548h1.235V.077h-1.235z"/><path fill="#723734" mask="url(#b)" d="M78.463 46.548h1.235V.077h-1.235z"/><path fill="#723734" mask="url(#b)" d="M79.231 46.548h1.235V.077h-1.235z"/><path fill="#713634" mask="url(#b)" d="M80 46.548h1.235V.077H80z"/><path fill="#713634" mask="url(#b)" d="M80.768 46.548h1.235V.077h-1.235z"/><path fill="#703634" mask="url(#b)" d="M81.537 46.548h1.235V.077h-1.235z"/><path fill="#6F3634" mask="url(#b)" d="M82.306 46.548h1.235V.077h-1.235z"/><path fill="#6F3534" mask="url(#b)" d="M83.074 46.548h1.236V.077h-1.236z"/><path fill="#6E3534" mask="url(#b)" d="M83.843 46.548h1.235V.077h-1.235z"/><path fill="#6E3434" mask="url(#b)" d="M84.612 46.548h1.235V.077h-1.235z"/><path fill="#6D3434" mask="url(#b)" d="M85.38 46.548h1.236V.077H85.38z"/><path fill="#6C3434" mask="url(#b)" d="M86.149 46.548h1.236V.077h-1.236z"/><path fill="#6B3434" mask="url(#b)" d="M86.918 46.548h1.235V.077h-1.235z"/><path fill="#6B3334" mask="url(#b)" d="M87.686 46.548h1.236V.077h-1.236z"/><path fill="#6A3434" mask="url(#b)" d="M88.455 46.548h1.236V.077h-1.236z"/><path fill="#693334" mask="url(#b)" d="M89.224 46.548h1.236V.077h-1.236z"/><path fill="#693334" mask="url(#b)" d="M89.993 46.548h1.235V.077h-1.235z"/><path fill="#683334" mask="url(#b)" d="M90.761 46.548h1.236V.077h-1.236z"/><path fill="#673334" mask="url(#b)" d="M91.53 46.548h1.236V.077H91.53z"/><path fill="#663234" mask="url(#b)" d="M92.299 46.548h1.235V.077h-1.235z"/><path fill="#663234" mask="url(#b)" d="M93.068 46.548h1.235V.077h-1.235z"/><path fill="#653234" mask="url(#b)" d="M93.836 46.548h1.235V.077h-1.235z"/><path fill="#653234" mask="url(#b)" d="M94.605 46.548h1.235V.077h-1.235z"/><path fill="#643134" mask="url(#b)" d="M95.374 46.548h1.235V.077h-1.235z"/><path fill="#633134" mask="url(#b)" d="M96.142 46.548h1.235V.077h-1.235z"/><path fill="#623133" mask="url(#b)" d="M96.911 46.548h1.235V.077h-1.235z"/><path fill="#623133" mask="url(#b)" d="M97.68 46.548h2.47V.077h-2.47z"/></g><path fill="#E5702A" d="M157.216 189.491c-8.308-3.235-17.984-4.897-27.807-4.903-9.818.006-19.494 1.668-27.802 4.903-9.092 3.546-16.126 8.804-19.499 15.23-3.927 7.496-2.488 15.773 5.336 22.986 8.975 8.266 24.24 13.352 41.97 13.352 17.725 0 32.991-5.086 41.96-13.352 7.83-7.213 9.269-15.49 5.342-22.986-3.373-6.426-10.407-11.684-19.5-15.23"/><g transform="translate(80 184.588)"><mask id="d" fill="#fff"><use xlink:href="#c"/></mask><path fill="#FAD276" mask="url(#d)" d="M-9.653 1.548L.563 50.355l.513-.076L-9.139 1.471"/><path fill="#FAD175" mask="url(#d)" d="M-9.139 1.471L1.076 50.279l.513-.076L-8.626 1.395"/><path fill="#FAD075" mask="url(#d)" d="M-8.626 1.395L1.589 50.203l.513-.077L-8.113 1.319"/><path fill="#FACF74" mask="url(#d)" d="M-8.113 1.319L2.102 50.126l.514-.076L-7.6 1.243"/><path fill="#FACF73" mask="url(#d)" d="M-7.6 1.243L2.616 50.05l.513-.076L-7.087 1.167"/><path fill="#FACE73" mask="url(#d)" d="M-7.087 1.167L3.129 49.974l.513-.076L-6.574 1.09"/><path fill="#F9CD72" mask="url(#d)" d="M-6.574 1.09L3.642 49.898l.513-.076L-6.061 1.014"/><path fill="#F9CC71" mask="url(#d)" d="M-6.061 1.014L4.155 49.822l.513-.077L-5.547.938M-5.547.938L4.668 49.745l.513-.076L-5.034.862"/><path fill="#F9CB70" mask="url(#d)" d="M-5.034.862L5.181 49.669l.513-.076L-4.521.786"/><path fill="#F9CA6F" mask="url(#d)" d="M-4.521.786L5.694 49.593l.514-.077L-4.008.709"/><path fill="#F9C96E" mask="url(#d)" d="M-4.008.709L6.208 49.516l.256-.037L-3.751.671"/><path fill="#F8C86E" mask="url(#d)" d="M-3.751.671L6.464 49.479l.513-.077L-3.238.595"/><path fill="#F8C86E" mask="url(#d)" d="M-3.238.595L6.977 49.402l.257-.038L-2.982.556"/><path fill="#F8C76D" mask="url(#d)" d="M-2.982.556L7.234 49.364l.513-.076L-2.469.48"/><path fill="#F8C66C" mask="url(#d)" d="M-2.469.48L7.747 49.288l.513-.076L-1.955.404"/><path fill="#F8C56B" mask="url(#d)" d="M-1.955.404L8.26 49.212l.513-.077L-1.442.328"/><path fill="#F8C46A" mask="url(#d)" d="M-1.442.328L8.773 49.135l.513-.076L-.929.252"/><path fill="#F7C469" mask="url(#d)" d="M-.929.252L9.286 49.059l.514-.076L-.416.175"/><path fill="#F7C369" mask="url(#d)" d="M-.416.175L9.8 48.983l.513-.076L.097.099"/><path fill="#F7C268" mask="url(#d)" d="M.097.099l10.216 48.808.513-.076L.61.023"/><path fill="#F7C167" mask="url(#d)" d="M.61.023l10.216 48.808.513-.077L1.123-.053"/><path fill="#F7C066" mask="url(#d)" d="M1.123-.053l10.216 48.807.513-.076L1.637-.129"/><path fill="#F6C066" mask="url(#d)" d="M1.637-.129l10.215 48.807.77-.114L2.406-.244"/><path fill="#F6BF65" mask="url(#d)" d="M2.406-.244l10.216 48.808.513-.076L2.919-.32"/><path fill="#F6BE65" mask="url(#d)" d="M2.919-.32l10.216 48.808.513-.077L3.433-.396"/><path fill="#F6BD64" mask="url(#d)" d="M3.433-.396l10.215 48.807.513-.076L3.946-.472"/><path fill="#F6BC63" mask="url(#d)" d="M3.946-.472l10.215 48.807.513-.076L4.459-.549"/><path fill="#F5BB62" mask="url(#d)" d="M4.459-.549l10.215 48.808.257-.038L4.716-.587"/><path fill="#F5BA62" mask="url(#d)" d="M4.716-.587l10.215 48.808.257-.038L4.972-.625"/><path fill="#F5BA62" mask="url(#d)" d="M4.972-.625l10.216 48.808.513-.076L5.485-.701"/><path fill="#F5B961" mask="url(#d)" d="M5.485-.701l10.216 48.808.513-.077L5.998-.777"/><path fill="#F5B860" mask="url(#d)" d="M5.998-.777L16.214 48.03l.513-.076L6.512-.853"/><path fill="#F5B75F" mask="url(#d)" d="M6.512-.853l10.215 48.807.513-.077L7.025-.93"/><path fill="#F4B65F" mask="url(#d)" d="M7.025-.93L17.24 47.877l.513-.076L7.538-1.006"/><path fill="#F4B55E" mask="url(#d)" d="M7.538-1.006l10.215 48.807.514-.076L8.051-1.082"/><path fill="#F4B55D" mask="url(#d)" d="M8.051-1.082l10.216 48.807.513-.076L8.564-1.159"/><path fill="#F4B45D" mask="url(#d)" d="M8.564-1.159L18.78 47.649l.513-.076L9.077-1.235"/><path fill="#F4B35C" mask="url(#d)" d="M9.077-1.235l10.216 48.808.513-.077L9.59-1.311"/><path fill="#F3B25B" mask="url(#d)" d="M9.59-1.311l10.216 48.807.513-.076L10.104-1.387"/><path fill="#F3B15B" mask="url(#d)" d="M10.104-1.387L20.319 47.42l.513-.076L10.617-1.463"/><path fill="#F3B05A" mask="url(#d)" d="M10.617-1.463l10.215 48.807.513-.076L11.13-1.54"/><path fill="#F3AF59" mask="url(#d)" d="M11.13-1.54l10.215 48.808.514-.076L11.643-1.616M11.643-1.616l10.216 48.808.256-.039L11.9-1.654"/><path fill="#F2AE58" mask="url(#d)" d="M11.9-1.654l10.215 48.807.257-.037L12.156-1.692"/><path fill="#F2AE58" mask="url(#d)" d="M12.156-1.692l10.216 48.808.256-.039L12.413-1.73"/><path fill="#F2AD58" mask="url(#d)" d="M12.413-1.73l10.215 48.807.257-.038L12.669-1.768"/><path fill="#F2AC57" mask="url(#d)" d="M12.669-1.768l10.216 48.807.513-.076L13.182-1.844"/><path fill="#F2AC57" mask="url(#d)" d="M13.182-1.844l10.216 48.807.513-.077L13.696-1.921"/><path fill="#F2AB56" mask="url(#d)" d="M13.696-1.921l10.215 48.807.513-.076L14.209-1.997"/><path fill="#F1AA55" mask="url(#d)" d="M14.209-1.997L24.424 46.81l.513-.076L14.722-2.074"/><path fill="#F1A955" mask="url(#d)" d="M14.722-2.074l10.215 48.808.514-.076L15.235-2.15"/><path fill="#F1A855" mask="url(#d)" d="M15.235-2.15l10.216 48.808.513-.076L15.748-2.226"/><path fill="#F1A754" mask="url(#d)" d="M15.748-2.226l10.216 48.808.513-.077L16.261-2.302"/><path fill="#F0A753" mask="url(#d)" d="M16.261-2.302l10.216 48.807.513-.076L16.775-2.378"/><path fill="#F0A652" mask="url(#d)" d="M16.775-2.378L26.99 46.429l.513-.076L17.288-2.454"/><path fill="#F0A552" mask="url(#d)" d="M17.288-2.454l10.215 48.807.513-.076L17.801-2.531"/><path fill="#F0A451" mask="url(#d)" d="M17.801-2.531l10.215 48.808.513-.076L18.314-2.607"/><path fill="#F0A451" mask="url(#d)" d="M18.314-2.607l10.215 48.808.257-.039L18.571-2.645"/><path fill="#F0A351" mask="url(#d)" d="M18.571-2.645l10.215 48.807.513-.076L19.084-2.721"/><path fill="#EFA250" mask="url(#d)" d="M19.084-2.721l10.215 48.807.513-.076L19.597-2.798"/><path fill="#EFA14F" mask="url(#d)" d="M19.597-2.798L29.812 46.01l.513-.076L20.11-2.874"/><path fill="#EFA14E" mask="url(#d)" d="M20.11-2.874l10.215 48.808.514-.076L20.623-2.95"/><path fill="#EFA04E" mask="url(#d)" d="M20.623-2.95l10.216 48.808.513-.077L21.137-3.026"/><path fill="#EF9F4D" mask="url(#d)" d="M21.137-3.026l10.215 48.807.513-.076L21.65-3.102"/><path fill="#EF9E4D" mask="url(#d)" d="M21.65-3.102l10.215 48.807.513-.076L22.163-3.179"/><path fill="#EE9E4C" mask="url(#d)" d="M22.163-3.179l10.215 48.808.513-.076L22.676-3.255"/><path fill="#EE9D4B" mask="url(#d)" d="M22.676-3.255l10.215 48.808.513-.076L23.189-3.331"/><path fill="#EE9C4B" mask="url(#d)" d="M23.189-3.331l10.215 48.808.514-.077L23.702-3.407"/><path fill="#EE9B4A" mask="url(#d)" d="M23.702-3.407L33.918 45.4l.513-.076L24.216-3.483"/><path fill="#EE9B4A" mask="url(#d)" d="M24.216-3.483l10.215 48.807.513-.077L24.729-3.56"/><path fill="#EE9A49" mask="url(#d)" d="M24.729-3.56l10.215 48.807.513-.076L25.242-3.636"/><path fill="#ED9948" mask="url(#d)" d="M25.242-3.636l10.215 48.807.257-.038L25.499-3.674"/><path fill="#ED9848" mask="url(#d)" d="M25.499-3.674l10.215 48.807.256-.038L25.755-3.712"/><path fill="#ED9848" mask="url(#d)" d="M25.755-3.712L35.97 45.095l.257-.038L26.012-3.75"/><path fill="#ED9847" mask="url(#d)" d="M26.012-3.75l10.215 48.807.256-.038L26.268-3.789"/><path fill="#ED9747" mask="url(#d)" d="M26.268-3.789l10.215 48.808.513-.076L26.782-3.865"/><path fill="#ED9647" mask="url(#d)" d="M26.782-3.865l10.214 48.808.514-.076L27.295-3.941"/><path fill="#ED9546" mask="url(#d)" d="M27.295-3.941L37.51 44.867l.513-.077L27.808-4.017"/><path fill="#EC9545" mask="url(#d)" d="M27.808-4.017L38.023 44.79l.513-.076L28.321-4.093"/><path fill="#EC9444" mask="url(#d)" d="M28.321-4.093l10.215 48.807.513-.076L28.834-4.17"/><path fill="#EC9344" mask="url(#d)" d="M28.834-4.17l10.215 48.808.513-.076L29.347-4.246"/><path fill="#EC9243" mask="url(#d)" d="M29.347-4.246l10.215 48.808.514-.076L29.861-4.322"/><path fill="#EC9143" mask="url(#d)" d="M29.861-4.322l10.215 48.808.513-.077L30.374-4.398"/><path fill="#EC9142" mask="url(#d)" d="M30.374-4.398l10.215 48.807.513-.076L30.887-4.474"/><path fill="#EC9042" mask="url(#d)" d="M30.887-4.474l10.215 48.807.513-.076L31.4-4.551"/><path fill="#EB8F41" mask="url(#d)" d="M31.4-4.551l10.215 48.808.513-.077L31.913-4.627"/><path fill="#EB8E41" mask="url(#d)" d="M31.913-4.627L42.128 44.18l.257-.038L32.17-4.665M32.17-4.665l10.215 48.807.256-.038L32.426-4.703"/><path fill="#EB8D40" mask="url(#d)" d="M32.426-4.703l10.215 48.807.514-.076L32.94-4.78"/><path fill="#EB8C40" mask="url(#d)" d="M32.94-4.78l10.215 48.808.513-.076L33.453-4.856"/><path fill="#EB8B3F" mask="url(#d)" d="M33.453-4.856l10.215 48.808.513-.077L33.966-4.932"/><path fill="#EA8B3E" mask="url(#d)" d="M33.966-4.932l10.215 48.807.513-.076L34.479-5.008"/><path fill="#EA8A3D" mask="url(#d)" d="M34.479-5.008l10.215 48.807.77-.114L35.249-5.122"/><path fill="#EA893D" mask="url(#d)" d="M35.249-5.122l10.215 48.807.513-.076L35.762-5.198"/><path fill="#EA883C" mask="url(#d)" d="M35.762-5.198l10.215 48.807.513-.077L36.275-5.275M36.275-5.275L46.49 43.532l.514-.076L36.788-5.351"/><path fill="#EA873B" mask="url(#d)" d="M36.788-5.351l10.216 48.807.513-.076L37.301-5.428"/><path fill="#EA863A" mask="url(#d)" d="M37.301-5.428L47.517 43.38l.513-.076L37.814-5.504"/><path fill="#E98639" mask="url(#d)" d="M37.814-5.504L48.03 43.304l.256-.038L38.071-5.542"/><path fill="#E98539" mask="url(#d)" d="M38.071-5.542l10.215 48.808.257-.038L38.328-5.58"/><path fill="#E98439" mask="url(#d)" d="M38.328-5.58l10.215 48.808.513-.077L38.841-5.656"/><path fill="#E98338" mask="url(#d)" d="M38.841-5.656l10.215 48.807.513-.076L39.354-5.732M39.354-5.732l10.215 48.807.514-.076L39.867-5.809"/><path fill="#E98237" mask="url(#d)" d="M39.867-5.809l10.216 48.808.513-.076L40.38-5.885"/><path fill="#E88136" mask="url(#d)" d="M40.38-5.885l10.216 48.808.513-.076L40.893-5.961"/><path fill="#E88035" mask="url(#d)" d="M40.893-5.961l10.216 48.808.513-.077L41.407-6.037"/><path fill="#E88035" mask="url(#d)" d="M41.407-6.037L51.622 42.77l.513-.076L41.92-6.113"/><path fill="#E87F35" mask="url(#d)" d="M41.92-6.113l10.215 48.807.513-.076L42.433-6.19"/><path fill="#E87E34" mask="url(#d)" d="M42.433-6.19l10.215 48.808.514-.077L42.946-6.266"/><path fill="#E87E33" mask="url(#d)" d="M42.946-6.266l10.216 48.807.256-.038L43.203-6.304"/><path fill="#E77D33" mask="url(#d)" d="M43.203-6.304l10.215 48.807.513-.076L43.716-6.38"/><path fill="#E77C33" mask="url(#d)" d="M43.716-6.38l10.215 48.807.257-.038L43.972-6.419"/><path fill="#E77B32" mask="url(#d)" d="M43.972-6.419l10.216 48.808.513-.076L44.485-6.495"/><path fill="#E77A32" mask="url(#d)" d="M44.485-6.495l10.216 48.808.513-.076L44.999-6.571"/><path fill="#E77A31" mask="url(#d)" d="M44.999-6.571l10.215 48.808.513-.077L45.512-6.647"/><path fill="#E77930" mask="url(#d)" d="M45.512-6.647L55.727 42.16l.513-.076L46.025-6.723"/><path fill="#E67830" mask="url(#d)" d="M46.025-6.723L56.24 42.084l.514-.076L46.538-6.8"/><path fill="#E6772F" mask="url(#d)" d="M46.538-6.8l10.216 48.808.513-.076L47.051-6.876M47.051-6.876l10.216 48.808.513-.076L47.564-6.952"/><path fill="#E6762E" mask="url(#d)" d="M47.564-6.952L57.78 41.856l.513-.077L48.077-7.028"/><path fill="#E6752E" mask="url(#d)" d="M48.077-7.028l10.216 48.807.513-.076L48.591-7.104"/><path fill="#E6752D" mask="url(#d)" d="M48.591-7.104l10.215 48.807.513-.076L49.104-7.181"/><path fill="#E5742C" mask="url(#d)" d="M49.104-7.181l10.215 48.808.513-.076L49.617-7.257"/><path fill="#E5732C" mask="url(#d)" d="M49.617-7.257l10.215 48.808.257-.039L49.873-7.295"/><path fill="#E5722C" mask="url(#d)" d="M49.873-7.295l10.216 48.807.257-.037L50.13-7.333M50.13-7.333l10.216 48.808.513-.077L50.643-7.409"/><path fill="#E5712B" mask="url(#d)" d="M50.643-7.409l10.216 48.807 4.103-.609L54.747-8.019"/></g><path fill="#FFFFFE" d="M106.612 216.65c5.467-3.702 11.05-7.24 16.785-10.559.169.69.337 1.38.5 2.065a307.752 307.752 0 00-17.285 8.494m20.598-12.728c-9.414.126-16.761.526-25.937 1.271 7.924.022 14.078.301 22.124.898a231.794 231.794 0 013.813-2.169m20.604 12.723a278.445 278.445 0 00-16.761-10.57c1.17-.088 2.346-.17 3.516-.241a260.512 260.512 0 0113.245 10.81m-21.099-12.716c.198 6.167.437 12.711.495 18.681a740.46 740.46 0 013.843-16.534c-1.275-.729-3.045-1.44-4.338-2.147m18.433-8.714c-4.861 2.01-9.595 4.272-14.23 6.693a162.36 162.36 0 00-.57-1.785 192.98 192.98 0 0114.8-4.908m-17.938 8.708c9.35.022 18.689.455 27.993 1.331-8.163-1.385-16.098-2.448-24.284-3.346-1.246.663-2.48 1.336-3.709 2.015m-17.955-8.702c4.856 2.015 9.583 4.277 14.212 6.703-1.147.11-2.3.225-3.453.351-3.481-2.486-7.056-4.858-10.759-7.054m17.955 8.702c0-4.255 0-8.516-.006-12.771-1.374 3.549-2.59 7.152-3.737 10.772 1.257.658 2.503 1.326 3.743 2m-21.483-10.11c6.055 1.445 11.819 3.17 17.676 5.208 1.164-3.28 2.392-6.534 3.801-9.727 1.41 3.188 2.644 6.446 3.802 9.721a180.983 180.983 0 0117.577-5.137c-4.262 2.52-8.029 5.115-11.982 8.035 8.011.963 15.51 2.212 23.399 3.817-7.866-.165-15.271.098-23.114.575 5.531 4.414 10.276 8.68 15.423 13.489-7.056-3.79-13.676-6.972-21.03-10.241a819.63 819.63 0 00-4.069 17.388c-1.298-5.805-2.492-11.331-3.918-17.11-7.347 3.265-14.037 6.376-21.32 10.012 5.146-4.803 10.025-8.97 15.568-13.38-7.854-.476-15.382-.574-23.422-.684a294.319 294.319 0 0123.684-3.817c-3.948-2.92-7.82-5.636-12.075-8.15"/><path fill="#B5272D" d="M129.46 189.496c1.393 3.024 2.613 6.104 3.758 9.205a184.405 184.405 0 0116.772-4.72c.195-.113.397-.232.598-.347a184.87 184.87 0 00-17.37 4.864c-1.145-3.1-2.365-6.186-3.757-9.204-1.393 3.023-2.607 6.104-3.757 9.21-5.789-1.93-11.485-3.563-17.469-4.932l.593.342c5.782 1.349 11.277 2.93 16.876 4.792 1.15-3.101 2.364-6.186 3.757-9.21"/><path fill="#B7482F" d="M117.647 208.118c-4.95 4.592-9.512 9.125-14.118 14.117l.735-.456c4.522-4.879 8.529-8.83 13.383-13.32v-.341"/><path fill="#AF2127" d="M127.059 203.412v0m-.244.108l-.23.108a347.72 347.72 0 00-4.232 1.926l.065.21c1.537-.719 3.082-1.4 4.64-2.098v-.254a4.811 4.811 0 01-.243.108"/><path fill="#B7482F" d="M119.41 201.245c-.092.012-.184.03-.275.042-.81.106-1.625.219-2.44.337-2.738-2.687-5.548-5.25-8.46-7.624v.278c2.912 2.374 5.722 4.937 8.46 7.624.906-.136 1.813-.26 2.714-.379.884.634 1.713 1.232 2.587 1.889.105 0 .252-.006.357-.006a181.357 181.357 0 00-2.944-2.16m-11.174 16.283a231.073 231.073 0 0114.118-9.089v-.322a231.696 231.696 0 00-14.118 9.089v.322"/><path fill="#932226" d="M130.57 208.118a604.312 604.312 0 00-3.511 13.937v.18a575.058 575.058 0 013.5-13.9c3.574 1.91 8.76 4.852 15.323 8.965v-.272a258.383 258.383 0 00-15.313-8.91m10.831.212l-.224-.212v.36c4.888 4.454 8.794 8.444 13.345 13.287.17.098.608.367.773.47-4.791-5.113-9.065-9.497-13.894-13.905"/><path fill="#B7482F" d="M117.399 203.45a240.541 240.541 0 00-23.281 4.646c.378 0 .839.027 1.228.02a239.22 239.22 0 0122.301-4.388v-.316l-.248.039"/><path fill="#B7482F" d="M122.353 205.347c-6.278-1.297-12.527-2.04-18.824-1.923v.467c6.212-.115 12.375.61 18.568 1.874.085-.139.17-.28.256-.418"/><path fill="#932226" d="M141.176 203.412c8.056 1.188 15.597 2.727 23.53 4.706-.392-.014-.931-.02-1.33-.027-7.546-1.85-14.542-3.234-22.2-4.355v-.324"/><path fill="#932226" d="M127.059 203.412c9.431.033 18.85.683 28.235 1.999v.354a205.961 205.961 0 00-27.806-2c-.071-.057-.165-.131-.235-.189a3.435 3.435 0 01-.194-.164c.129 0 .258.008.387.008l-.387-.008m9.412-4.733c.115.008.22.02.335.027a215.85 215.85 0 0113.782-4.557V194c-4.821 1.406-9.516 2.985-14.117 4.68"/><path fill="#AF2127" d="M137.505 205.725c-.341-.772-.685-1.543-1.034-2.313v.277c.313.692.62 1.384.928 2.076l.106-.04"/><path fill="#FFFFFE" d="M129.412 240.4c-.346.219-.82.439-1.166.659-.351-.22-.832-.44-1.184-.659.007-2.717-.008-5.436-.001-8.152.345-.2.842-.4 1.187-.6.339.2.807.399 1.146.6l.018 8.152m-44.253-19.254l-.453.757c.283.095.83.245 1.074.332 2.712-1.25 5.394-2.498 8.06-3.703.102-.355.163-.55.278-.817l-.822-.186a334.787 334.787 0 00-8.137 3.617m-4.362-11.975l-.797.667c.147.2.309.438.442.633 2.722-.406 5.445-.754 8.168-1.042.254-.255.56-.564.802-.801l-.48-.51c-2.712.292-5.424.642-8.135 1.053M94.677 194l-.56.42c.018.194.038.548.055.74 1.362.335 2.721.734 4.078 1.193.174-.178.41-.42.574-.573l-.072-.617A49.905 49.905 0 0094.678 194m54.713-4.706l.855.007.342.298a87.041 87.041 0 00-3.476 2.039l-.898.01-.332-.329c1.151-.7 2.32-1.377 3.509-2.025m-22.29-4.56c.375-.05.75-.098 1.127-.146l1.146.146c.013.678.027 1.358.038 2.038-.395.056-.792.112-1.188.17-.389-.058-.777-.114-1.165-.17.012-.68.026-1.36.041-2.038m-18.865 4.93c.107-.095.349-.265.457-.36l.842-.01c1.155.63 2.29 1.289 3.407 1.969l-.332.322c-.288-.004-.709.066-.996.062a82.385 82.385 0 00-3.378-1.982m-8.38 51.17c-.245.112-.558.11-.803.224-.053-.329-.175-.657-.228-.984a589.463 589.463 0 013.678-8.137c.242-.097.552-.195.794-.29.056.28.168.758.233 1.02a592.673 592.673 0 00-3.674 8.168m73.807-19.69c.154.256.302.506.456.757-.284.097-.835.245-1.078.332-2.71-1.248-5.392-2.496-8.056-3.703a7.269 7.269 0 00-.278-.813c.272-.062.544-.128.823-.19a351.875 351.875 0 018.133 3.617m-.341-11.975c.265.221.531.443.797.667-.147.2-.309.438-.442.633a192.848 192.848 0 00-8.168-1.042c-.253-.255-.56-.564-.802-.801l.48-.51c2.712.292 5.424.642 8.135 1.053M164.146 194l.56.42c-.017.194-.038.548-.055.74-1.362.335-2.72.734-4.077 1.193-.174-.178-.41-.42-.574-.573l.072-.617a49.841 49.841 0 014.074-1.163m-9.883 46.836c.2.058.557.15.803.223.079-.321.157-.648.228-.984a584.47 584.47 0 00-3.679-8.137c-.241-.097-.552-.195-.794-.29-.056.28-.167.758-.233 1.02a602.898 602.898 0 013.675 8.168"/><path fill="#B95B30" d="M85.131 221.793c-.07.124-.184.317-.255.442-.056-.022-.101-.036-.17-.06.15-.27.302-.537.453-.805 2.7-1.32 5.413-2.6 8.137-3.84.274.063.548.13.822.197-.058.15-.1.287-.15.424-.22-.058-.517-.101-.735-.154-2.724 1.24-5.4 2.474-8.102 3.796m-4.244-11.97c-.147.146-.549.502-.696.648-.078-.124-.091-.16-.191-.325l.797-.786a163.83 163.83 0 018.135-1.242l.48.601-.162.198c-.073-.09-.225-.26-.285-.33-2.712.346-5.367.754-8.078 1.237m13.267-14.611l-.036-.658c.186-.186.373-.37.56-.555 1.36.43 2.718.944 4.074 1.537l.072.815c-.032.04-2.784-1.243-4.136-1.669l-.534.53"/><path fill="#932226" d="M150.246 189.731l.05.046.292-.169-.342-.307-.855-.007a85.479 85.479 0 00-3.509 2.085l.263.268a83.258 83.258 0 013.246-1.922l.855.006"/><path fill="#A31F25" d="M127.059 185.587l.583-.292.593.292v-.707c-.197-.099-.395-.195-.593-.292-.194.097-.389.193-.583.292v.707"/><path fill="#B7482F" d="M109.56 189.669c1.066.616 2.09 1.316 3.123 1.978l.258-.266a82.29 82.29 0 00-3.402-2.087l-.84.01c-.108.101-.357.281-.464.383.093.054.187.111.28.167l.205-.175.84-.01"/><path fill="#932226" d="M103.25 231.857c.067.091.144.302.216.41l.063-.075c-.021-.065-.168-.395-.233-.545-.242.051-.552.104-.794.155a286.04 286.04 0 00-3.678 4.345c.019.063.073.142.092.206.778-.934 2.456-2.958 3.679-4.372.192-.044.454-.08.655-.124m70.441-10.067l.255.445.172-.065c-.154-.266-.302-.532-.456-.803-2.7-1.32-5.41-2.595-8.133-3.838-.279.066-.55.136-.823.201.053.147.1.288.148.424.219-.06.515-.104.734-.152a328.209 328.209 0 018.103 3.788m-.46-11.966c.148.145.548.5.696.647.078-.124.091-.16.19-.325-.265-.263-.53-.525-.796-.786-2.711-.484-5.423-.897-8.136-1.242l-.48.601.163.198c.073-.09.224-.26.284-.33 2.713.346 5.368.754 8.079 1.237m-8.562-14.611l.037-.658-.56-.555c-1.36.43-2.718.944-4.074 1.537l-.072.815c.032.04 2.784-1.243 4.135-1.669l.534.53m-13.802 36.644c-.066.091-.144.302-.216.41l-.063-.074c.022-.066.169-.396.233-.546.242.051.553.104.794.155a283.697 283.697 0 013.68 4.346c-.028.068-.053.135-.083.205a353.12 353.12 0 00-3.69-4.372c-.192-.044-.454-.08-.655-.124m-21.68.753l.225 8.449-.018-8.766c-.34-.216-.808-.43-1.147-.646-.345.216-.842.43-1.188.646v8.766l.22-8.453c.28-.17.694-.34.968-.512.27.171.67.344.94.516"/><path fill="#B7482F" d="M95.907 207.471c3.158-13.612 23.294-17.651 35.857-17.651 12.57 0 32.699 4.04 35.863 17.651 3.913 16.85-22.858 23.075-35.857 23.075-13.005 0-39.776-6.225-35.863-23.075m-1.367.1c3.365-14.088 24.172-18.277 37.224-18.277 13.052 0 33.866 4.189 37.224 18.283 4.184 17.535-23.694 24.07-37.218 24.07-13.53 0-41.408-6.535-37.23-24.076"/><path fill="#FFFFFE" d="M95.902 207.512c3.159-13.589 23.296-17.621 35.86-17.621 12.57 0 32.7 4.032 35.865 17.621 3.913 16.821-22.86 23.036-35.86 23.036-13.005 0-39.778-6.22-35.865-23.036m-1.361.1c3.36-14.064 23.301-18.318 37.22-18.318 13.873 0 33.868 4.254 37.227 18.323 4.184 17.506-23.696 24.03-37.22 24.03-13.53-.005-41.411-6.524-37.227-24.035"/><g transform="translate(174.118 212.824)"><mask id="f" fill="#fff"><use xlink:href="#e"/></mask><path fill="#542D38" mask="url(#f)" d="M.346 9.242h1.419V.421H.346z"/><path fill="#542C38" mask="url(#f)" d="M1.765 9.242h1.176V.421H1.765z"/></g><path fill="#90483E" d="M175.964 222.235c-1.255-.393-4.69-1.753-7.245-2.91-.478-.228-.958-.454-1.437-.68-.66-.327-1.165-.61-1.416-.81 0 0-.465-.235-1.16-.577 1.776-2.615 2.66-5.65 2.258-9.14l.815.17 6.345.897 4.476.869.005.005c.142.868.215 1.742.219 2.616.009 2.707-.652 5.428-2.025 8.093-.254.49-.533.98-.835 1.467"/><path fill="#6E2531" d="M167.059 218.706c-.86-.413-1.66-.81-2.353-1.177.784.391 1.57.783 2.353 1.177"/><path fill="#90483E" d="M162.724 217.53c-1.098-.632-2.33-1.305-3.063-1.593-1.561-.61-7.441-3.103-8.583-4.041-1.17-.97-4.783-2.407-7.002-3.235-.528-.52-1.063-1.041-1.607-1.564 2.94-.216 5.806-.389 8.667-.501 1.198.614 3.93 1.9 6.116 2.083-.116-.591-.616-1.387-1.156-2.213a169.951 169.951 0 015.033.013l.008.001.473.008.66.015a231.798 231.798 0 00-7.186-1.645c-.255-.455-.451-.882-.52-1.25-.49-2.582-2.958-5.556-4.609-6.635a5.907 5.907 0 00-.611-.366c.852-.66 1.72-1.309 2.611-1.953l.015-.005c.17-.124.344-.254.519-.378a135.802 135.802 0 00-5.594 1.738 1.742 1.742 0 00-.32-.054h-.046c-.308 0-1.646-.223-1.8-.599.074.023.164.04.269.04 1.536 0 2.164-.48 2.578-1.255.285.005.564.056.968.152 0 0 .703.123 1.322.123.095 0 .19-.003.279-.01.663-.045.733-.344 1.511-.401a1.92 1.92 0 01.133-.005c.7 0 1.13.42 1.318.926.2.537.923 1.894 1.362 2.663.439.774 3.446 2.493 4.763 4.37.952 1.356 2.688 3.527 3.411 4.787.446.778 1.248 1.48 2 1.952.295 3.386-.454 6.316-1.92 8.831m-20.96-9.735c-.56-.229-1.465-.58-2.102-.726 0 0-.446-.148-1.092-.305.639-.054 1.278-.106 1.915-.153.428.393.854.787 1.28 1.184m-4.928-1.346a9.044 9.044 0 00-.365-.032l.034-.165c.112.065.222.131.33.197m21.325-.437c-.846-.096-1.692-.186-2.538-.272-.058-.09-.115-.178-.17-.267.9.174 1.802.354 2.708.54m-10.004-9.657c-.1-.03-.216-.062-.337-.097.575-.207 1.15-.41 1.727-.608-.465.232-.928.467-1.39.705"/><g transform="translate(127.059 203.412)"><mask id="h" fill="#fff"><use xlink:href="#g"/></mask><path fill="#914C40" mask="url(#h)" d="M-.243.654l.746 2.157.43-.039L.186.615"/><path fill="#914C40" mask="url(#h)" d="M.049.615l.507 2.157 1.169-.155L1.218.461"/><path fill="#914B3F" mask="url(#h)" d="M1.218.461l.507 2.156 1.168-.154L2.387.306"/><path fill="#914A3F" mask="url(#h)" d="M2.387.306l.546 2.157.63-.078L3.016.229"/><path fill="#914A3F" mask="url(#h)" d="M2.971.229l.547 2.156.629-.077L3.601.152"/><path fill="#91493E" mask="url(#h)" d="M3.555.152l.547 2.156.63-.077L4.185.075"/></g><path fill="#937D86" d="M135.203 208.118l-.007-.003c-.507-.455-1.018-.909-1.536-1.363l-.231-.211v.359c.384.336.762.67 1.135 1.002-.822-.275-1.356-.444-1.356-.444s-.222-.09-.559-.215c-.47-.399-.94-.797-1.412-1.192-.704.047-1.41.1-2.116.154a16.796 16.796 0 00-1.913-.317c-.12-.067-.241-.133-.365-.2-.764-.41-1.592-.817-2.335-1.221a13.4 13.4 0 01.144-.175l.025.015c5.14.018 10.266.183 15.383.5 1.097.304 1.73.634 1.73.634l.534.268s.25.13.675.327c-3.159.114-6.324.288-9.57.505.6.527 1.191 1.053 1.774 1.577m-12.85-1.418c.468-.125.854-.359 1.085-.723.139-.222.274-.429.407-.622l.028.958c-.537.143-1.106.29-1.52.387M154.035 205.918a195.813 195.813 0 00-5.558-.013l-.338-.47c.872.08 1.745.166 2.617.257v-.245c-1-.187-1.996-.368-2.99-.543-.077-.111-.15-.221-.222-.33 2.137.413 4.289.86 6.491 1.344m-13.015-9.95c-.413-.184-.48-.082-.977-.172l-.022-.005c.403-.188.808-.375 1.212-.56v-.221c-.509.231-1.017.467-1.523.704h-.001c.51-.24 1.022-.476 1.535-.71-.637.2-1.273.404-1.907.613-.192-.05-.4-.104-.595-.152 1.696-.512 3.41-.998 5.162-1.465-.984.65-1.943 1.304-2.884 1.969"/><path fill="#90483E" d="M150.588 205.765c-4.7-.224-9.407-.36-14.117-.412.104-.644.173-1.29.204-1.94l.003-.001c.724.08.743.286 1.955.646.675.205 3.255 1.006 10.053 1.541.682.028 1.318.087 1.902.166"/><g transform="translate(127.059 203.412)"><mask id="j" fill="#fff"><use xlink:href="#i"/></mask><path fill="#914B3F" mask="url(#j)" d="M.003.393l.581 2.056 1.402-.154-.58-2.056"/><path fill="#914A3F" mask="url(#j)" d="M1.406.239l.58 2.056.701-.077-.58-2.057M2.107.161l.58 2.057.701-.077-.58-2.057"/><path fill="#91493E" mask="url(#j)" d="M2.808.084l.58 2.057 1.773-.196-.58-2.056"/></g><path fill="#937D86" d="M127.059 205.765c.182-.298.371-.602.57-.917.303-.479.516-.958.66-1.436.213.012.441.038.684.05.171.014.314.034.439.059l-.004.004c-.786.74-1.569 1.488-2.35 2.24"/><path fill="#7B2B38" d="M146.207 196.353a6.66 6.66 0 00-.325-.126 88.457 88.457 0 014.706-2.227c-.147.16-.293.326-.436.485l-.013.006a90.843 90.843 0 00-3.932 1.862"/><path fill="#6E2531" d="M143.53 210.47l-.842-.318c-.497-.496-1-.995-1.512-1.498v-.536l.309.315c.689.679 1.37 1.357 2.044 2.038m21.177-4.706a52.09 52.09 0 00-.864-.022l-.62-.01c-.003-.002-.006-.002-.01-.003a265.532 265.532 0 00-7.7-1.908 20.97 20.97 0 01-.218-.41c3.112.72 6.234 1.502 9.412 2.353m-9.412 0a199.53 199.53 0 00-2.83-.373l-.202-.378c1.011.124 2.022.256 3.032.396v.355m-11.57-1.281a213.263 213.263 0 00-16.638-.722l-.027-.022c.07-.11.14-.22.212-.328 4.936.03 9.87.226 14.796.593.625.132 1.182.302 1.658.479m2.638-9.308a17.241 17.241 0 01-.48-.116c.781-.357 1.566-.711 2.352-1.06v.334c-.625.278-1.25.559-1.872.842"/><path fill="#7D373B" d="M165.004 217.53c-.098-.053-.197-.107-.298-.16 1.656-2.636 2.502-5.705 2.168-9.252l.068.038c.428 3.59-.342 6.7-1.938 9.373"/><path fill="#937D86" d="M166.409 217.53a180.15 180.15 0 00-1.703-.629c2.215-2.505 3.283-5.42 2.688-8.783.696.268 1.36.454 1.855.527l.04.007c.514 3.39-.615 6.337-2.88 8.877m8.216-13.124a40.989 40.989 0 010 0m-.345-.683l-.162-.31c.016.033.034.064.05.096l.038.07.074.144"/><g transform="translate(174.118 203.412)"><mask id="l" fill="#fff"><use xlink:href="#k"/></mask><path fill="#552D38" mask="url(#l)" d="M-.016 1.814h.709V.504h-.709z"/><path fill="#542D38" mask="url(#l)" d="M.693 1.814h.709V.504H.693z"/></g><path fill="#90483E" d="M174.118 208.118c-1.724-.108-5.094-.238-6.673-1.302.006-.712-2.146-.888-2.146-.888s-.772-.582-.555-1.034l1.7-1.279s.645-.192 1.231-.192h.065c.297-.008.578-.011.842-.011 2.703 0 3.79.39 3.878.418v.007c.204.437.402.877.588 1.32l.015.037.093.225.05.126a32.739 32.739 0 01.49 1.297l.036.1.038.11c.122.354.238.71.348 1.066"/><g transform="translate(169.412 226.941)"><mask id="n" fill="#fff"><use xlink:href="#m"/></mask><path fill="#572E39" mask="url(#n)" d="M-.195 1.948h.71V.155h-.71z"/><path fill="#572D38" mask="url(#n)" d="M.278 1.948h1.891V.155H.278z"/><path fill="#562D38" mask="url(#n)" d="M2.169 1.948h.71V.155h-.71z"/></g><path fill="#90483E" d="M166.824 226.941a20.984 20.984 0 00-2.519-.467s-2.385-.603-3.097-.681c-.715-.082-4.133-.907-5.083-1.448 0 0-.056-.078-.138-.203a25.213 25.213 0 002.75-1.512c.253.081.48.23.586.497 3.11 1.374 7.203 1.416 10.089 1.467a20.58 20.58 0 01-1.303 1.273l-.002.002-.102.09c-.013.013-.026.025-.04.036-.02.02-.043.038-.064.057l-.076.066-.015.014a24.502 24.502 0 01-.986.81m-11.406-3.845c-.18-.456-.213-.862.245-.862h.003c.537 0 .933.036 1.223.084-.473.27-.964.53-1.47.778"/><path fill="#7D373B" d="M155.453 224.588c-.059-.21-.112-.423-.159-.631a31.387 31.387 0 001.815-1.722c.23.068.405.148.538.225a31.08 31.08 0 01-2.194 2.128"/><path fill="#937D86" d="M155.672 226.559c-.15-.272-.372-.694-.554-1.131.778-.452 1.526-.93 2.239-1.434.308.118.394.229.394.229s.243-.05.567-.05c.248 0 .544.03.816.133a30.655 30.655 0 01-3.462 2.253"/><path fill="#F2AC59" d="M146.717 166.935s-1.208-1.1-1.227-1.164c-.088-.389.34-.904.446-1.551-.126-.045-.25-.104-.37-.157-.293-1.118-.535-3.135.001-4.214.261-.527.572-1.22.393-1.835-.995-3.426-2.968-6.41-4.36-9.665-.377-.881-.315-1.518-.37-2.42-1.076-1.19-2.322-4.306-2.922-6.23-1.254 3.182-2.085 6.84-2.085 7.686 0 3.583 3.616 5.32 2.364 11.275-.242 1.149-.673 2.739-1.102 4.379.75 4.15.75 7.162 1.858 11.97 1.546 1.537 2.84 3.508 3.527 6.012.426 1.549 1.728 5.188 3.39 5.734 1.03.337-3.496 1.17-4.779-.442-1.234-1.554-3.365-2.793-4.373-4.444-.806-1.315-2.057-4.12-2.846-5.45l-.969 5.103c1.318 5.449.532 6.651-.639 11.072-.506 1.91-4.347-7.023-4.35-7.72 0-1.942-.125-2.66-.577-4.37-.805-1.575-.719-3.81-.609-5.507.184-2.842.161-8.195.284-9.604-.97-2.39-3.45-6.71-3.7-9.14-.386-3.789.252-7.622-.274-11.398-.647 1.893-1.335 4.292-2.8 5.74-2.193 2.17-4.218 4.576-6.175 6.956-.714.979-.083 1.457-1.19 3.024-1.088 1.542-.505.847-.732 2.32-.039.255-.166.454-.25.542-.583.49-1.201.91-2.036.559-1.613-.813-1.729-2.017-1.84-3.566-.212-2.956 1.966-3.096 3.198-4.884 2.422-3.512 3.647-9.403 6.24-12.054.163-.525.768-2.415 1.929-5.23.034-3.496.896-6.606 4.476-8.04 1.467-.588 3.39-.738 3.46-2.773.01-.242-.04-.868-.195-1.09-.592-.48-1.005-.492-1.29-.831-.58-.748-1.06-5.554-.996-5.861.842-4.078 2.783-5.437 5.245-5.315 2.91.145 5.217 1.547 5.09 5.472-.1 3.16-3.349 7.213 1.513 8.75 1.856.587 2.21.18 3.806 1.79 1.789 1.806 2.223 5.012 2.522 7.984l1.825 4.253c3.346 5.653 2.134 7.44 3.365 13.196.318 1.49.867 2.807.984 6.062.055 1.554-1.17 5.02-2.86 5.076"/><g transform="translate(108.235 114)"><mask id="p" fill="#fff"><use xlink:href="#o"/></mask><path fill="#27327C" mask="url(#p)" d="M18.895-20.515l-62.218 68.05 17.174 18.785L36.069-1.731"/><path fill="#27327B" mask="url(#p)" d="M36.069-1.731L-26.149 66.32l1.032 1.128L37.1-.603"/><path fill="#27317B" mask="url(#p)" d="M37.1-.603l-62.217 68.051.516.564L37.616-.039M37.616-.039l-62.217 68.051.515.564L38.132.525"/><path fill="#27317A" mask="url(#p)" d="M38.132.525l-62.218 68.051.516.564L38.647 1.089M38.647 1.089L-23.57 69.14l1.031 1.127 62.218-68.05"/><path fill="#273179" mask="url(#p)" d="M39.679 2.217l-62.218 68.05.515.564 62.219-68.05M40.195 2.781l-62.219 68.05.516.564L40.71 3.345"/><path fill="#273079" mask="url(#p)" d="M40.71 3.345l-62.218 68.05.516.564 62.218-68.05"/><path fill="#273078" mask="url(#p)" d="M41.226 3.909l-62.218 68.05.516.565L41.742 4.473M41.742 4.473l-62.218 68.051 1.031 1.128L42.773 5.601"/><path fill="#273077" mask="url(#p)" d="M42.773 5.601l-62.218 68.051.516.564L43.288 6.165M43.288 6.165l-62.217 68.051.644.705 62.218-68.05"/><path fill="#273076" mask="url(#p)" d="M43.933 6.871l-62.218 68.05.516.564L44.449 7.434"/><path fill="#262F76" mask="url(#p)" d="M44.449 7.434l-62.218 68.051 1.031 1.127L45.48 8.562M45.48 8.562l-62.218 68.05.516.564 62.218-68.05"/><path fill="#262F75" mask="url(#p)" d="M45.996 9.126l-62.218 68.05.515.565L46.511 9.69M46.511 9.69l-62.218 68.051.516.564 62.218-68.051"/><path fill="#262F74" mask="url(#p)" d="M47.027 10.254l-62.218 68.051 1.032 1.128 62.218-68.051"/><path fill="#262F74" mask="url(#p)" d="M48.059 11.382l-62.218 68.051.515.564 62.218-68.051M48.574 11.946l-62.218 68.051.516.564L49.09 12.51"/><path fill="#262E73" mask="url(#p)" d="M49.09 12.51l-62.218 68.051.516.564 62.217-68.05M49.605 13.075l-62.217 68.05 1.031 1.128 62.217-68.05"/><path fill="#262E72" mask="url(#p)" d="M50.636 14.203l-62.217 68.05.516.564 62.217-68.05M51.152 14.767l-62.217 68.05.515.564 62.218-68.05"/><path fill="#262E71" mask="url(#p)" d="M51.668 15.331l-62.218 68.05.645.705 62.218-68.051M52.313 16.035L-9.905 84.086l.515.564 62.218-68.051"/><path fill="#262D71" mask="url(#p)" d="M52.828 16.599L-9.39 84.65l1.032 1.128L53.86 17.727"/><path fill="#262D70" mask="url(#p)" d="M53.86 17.727L-8.358 85.778l.515.564 62.218-68.05M54.375 18.292l-62.218 68.05.516.564 62.218-68.05"/><path fill="#262D6F" mask="url(#p)" d="M54.891 18.856l-62.218 68.05.516.564 62.218-68.05M55.407 19.42L-6.811 87.47l1.031 1.128 62.218-68.05M56.438 20.548L-5.78 88.598l.516.564 62.217-68.05"/><path fill="#262C6E" mask="url(#p)" d="M56.953 21.112l-62.217 68.05.516.564 62.217-68.05"/><path fill="#252C6E" mask="url(#p)" d="M57.469 21.676l-62.217 68.05.515.564 62.218-68.05"/><path fill="#252C6D" mask="url(#p)" d="M57.985 22.24L-4.233 90.29l1.032 1.128 62.217-68.05"/><path fill="#252C6D" mask="url(#p)" d="M59.016 23.368l-62.217 68.05.516.564 62.217-68.051"/><path fill="#242B6C" mask="url(#p)" d="M59.532 23.931L-2.685 91.982l.515.564 62.218-68.051M60.048 24.495L-2.17 92.546l.644.705 62.218-68.05"/><path fill="#242B6B" mask="url(#p)" d="M60.692 25.201l-62.218 68.05 1.032 1.128 62.217-68.05"/><path fill="#242B6B" mask="url(#p)" d="M61.723 26.329L-.494 94.379l.516.564 62.217-68.05"/><path fill="#232A6B" mask="url(#p)" d="M62.239 26.893L.022 94.943l.515.564 62.218-68.05"/><path fill="#232A6A" mask="url(#p)" d="M62.755 27.457L.537 95.507l.516.564 62.217-68.05M63.27 28.021L1.053 96.071l.516.564 62.217-68.05"/><path fill="#222A69" mask="url(#p)" d="M63.786 28.585L1.569 96.635 2.6 97.763l62.217-68.05"/><path fill="#222A69" mask="url(#p)" d="M64.817 29.713L2.6 97.763l.516.564 62.217-68.05"/><path fill="#222968" mask="url(#p)" d="M65.333 30.277L3.116 98.327l.515.565 62.218-68.051M65.849 30.841L3.631 98.892l.516.564 62.218-68.051"/><path fill="#212968" mask="url(#p)" d="M66.365 31.405L4.147 99.456l1.031 1.127 62.218-68.05"/><path fill="#212967" mask="url(#p)" d="M67.396 32.533l-62.218 68.05.516.564 62.218-68.05"/><path fill="#212867" mask="url(#p)" d="M67.912 33.097l-62.218 68.05 13.201 14.439 62.218-68.051"/></g></g></svg>