<svg xmlns="http://www.w3.org/2000/svg" width="51" height="32"><g fill="none" fill-rule="evenodd"><path fill="#FFF" stroke="#D0D0D0" d="M.5.5h50v31H.5z"/><path fill="#2C3341" fill-rule="nonzero" d="M8.925 22.445a.66.66 0 01.437.244c.056.068.098.14.134.222l.011.026c.038.09.071.195.107.33l.009.032c.025.101.16.659.21.838.084.297.17.525.262.689a.785.785 0 00.124.172.226.226 0 00.049.036c.083.026.106.024.129.01a.687.687 0 00.172-.202l.013-.02.145-.23c.062-.096.115-.17.177-.239a.942.942 0 01.343-.253.77.77 0 01.51-.027c.103.028.197.071.298.13l.022.014.024.014c.044.028.09.058.146.097l.227.158.032.022.028.018c.392.26.619.305.875.158l.012-.008.013-.007a.596.596 0 01.628 1.012l-.06.036a1.715 1.715 0 01-1.297.19c-.304-.074-.564-.208-.875-.418l-.023-.016a8.102 8.102 0 01-.065-.044l-.093-.065-.056.09-.019.029c-.171.262-.335.446-.567.585-.32.19-.695.228-1.094.104-.368-.115-.643-.384-.856-.76a3.837 3.837 0 01-.309-.744l-.008-.025-.032.08c-.07.175-.128.31-.188.434l-.013.027a2.308 2.308 0 01-.204.35.86.86 0 01-.44.34c-.245.079-.46.02-.658-.104a1.684 1.684 0 01-.317-.272 5.997 5.997 0 01-.52-.66l-.017-.024a15.849 15.849 0 01-.162-.235l-.047-.07-.124-.189-.297-.456-.044-.067-.036-.053a3.747 3.747 0 00-.05-.074l-.011-.015h-.001a.595.595 0 01-.195-.506l.001-.01a.596.596 0 01.664-.52.575.575 0 01.317.138.743.743 0 01.085.081c.026.03.052.062.08.1l.01.014c.042.057.091.13.158.231l.291.447.06.09c.023.037.046.072.069.105l.059.088.038.058c.039.056.075.11.111.16l.032.045.034.048c.045.063.087.121.128.175l.021.027.016-.036.012-.03c.038-.094.081-.203.13-.333l.165-.428c.152-.395.19-.48.277-.643l.003-.006c.056-.104.112-.19.18-.265a.766.766 0 01.191-.157.655.655 0 01.41-.083zm7.14-.989l3.202 3.205-3.57.866a.365.365 0 01-.443-.426l.001-.008.81-3.637zm-10.39 2.268l.001.002a.46.46 0 00.004.003l-.006-.005zm19.367-11.247l3.205 3.204-8.112 8.112-3.203-3.204 8.11-8.112zM11.68 20.009c.352.765 1.636 1.375 3.291 1.578l-.328 1.253c-1.76-.281-3.027-1.034-3.059-1.922v-.484c0-.146.033-.288.096-.425zm-6.583-1.221c.432.941 2.272 1.649 4.476 1.649.425 0 .835-.027 1.225-.076l.05-.006v.55c0 .252.057.495.17.726-.454.068-.94.105-1.445.105-2.5 0-4.531-.91-4.571-2.04L5 19.663v-.45c0-.145.033-.287.096-.424zm6.583-1.102c.434.941 2.28 1.649 4.49 1.649.103 0 .206-.002.307-.005l-1.23 1.2-.016.06c-2.059-.193-3.611-1.01-3.647-1.995v-.485c0-.145.033-.287.096-.424zm-6.583-1.222c.432.942 2.269 1.65 4.47 1.65.424 0 .834-.027 1.223-.076l.049-.006v1.3c-.404.053-.83.081-1.272.081-2.497 0-4.525-.91-4.565-2.04L5 17.34v-.45c0-.145.033-.287.096-.425zm6.583-1.22c.434.94 2.28 1.648 4.49 1.648 1.477 0 2.791-.315 3.63-.805l-2.023 1.974a9.68 9.68 0 01-1.606.13c-2.508 0-4.546-.91-4.587-2.039v-.484c0-.146.033-.288.096-.425zm-2.113-2.77c.424 0 .834.025 1.223.074l.049.007v4.424c-.404.053-.83.081-1.272.081-2.497 0-4.525-.908-4.565-2.035L5 14.991v-.449c0-1.143 2.044-2.069 4.566-2.069zm11.094.476c.06.131.094.267.097.406v.468c0 1.146-2.054 2.074-4.587 2.074-2.508 0-4.546-.91-4.587-2.04v-.484c0-.145.033-.287.096-.424.434.941 2.28 1.649 4.49 1.649 2.212 0 4.058-.708 4.491-1.65zm8.573-2.692l.017.017 1.429 1.429c.424.424.428 1.105.012 1.535l-.012.013-1.597 1.596-3.205-3.204 1.37-1.37a1.418 1.418 0 011.986-.016zm-13.063-1.3c2.508 0 4.546.908 4.586 2.035v.484c0 1.142-2.053 2.068-4.586 2.068-2.508 0-4.546-.908-4.587-2.035v-.483c0-1.142 2.053-2.069 4.587-2.069z"/><g fill-rule="nonzero"><path fill="#005498" d="M45.459 7.199h-4.31l-.44.493-1.421 1.594-.44.493h-4.25l.43-.499.203-.235.43-.499h-1.955a.66.66 0 00-.65.663V10.611c0 .367.292.663.65.663h7.498c.357 0 .847-.219 1.084-.493L43.422 9.5l2.037-2.3z"/><path fill="#FFD800" d="M46.323 5.703a.66.66 0 01.65.663v1.397a.656.656 0 01-.65.663H44.374l.435-.493.215-.247.435-.493h-4.31l-2.296 2.575h-4.277l3.066-3.451.116-.132c.242-.268.732-.493 1.09-.493h7.475v.011z"/><path fill="#005498" d="M46.973 14.21v-.202c0-.028-.017-.044-.055-.044h-.132c-.039 0-.067-.006-.072-.022-.011-.017-.011-.05-.011-.104v-.767h.215a.05.05 0 00.038-.017.05.05 0 00.017-.038v-.214a.05.05 0 00-.017-.038.05.05 0 00-.038-.016h-.215v-.28c0-.016-.006-.027-.011-.033-.011-.005-.022-.01-.033-.01h-.006l-.319.054c-.016.006-.027.011-.038.017-.011.01-.017.022-.017.033v.213h-.215a.05.05 0 00-.038.017.05.05 0 00-.017.038v.175c0 .017.006.028.017.033a.089.089 0 00.038.022l.215.033v.767c0 .093.011.17.028.23.022.06.05.104.082.137a.293.293 0 00.138.066c.055.01.12.016.192.016.039 0 .072 0 .105-.005.028-.006.066-.011.105-.017.027 0 .044-.016.044-.044zm-1.145-.027v-.236c0-.016-.006-.027-.017-.033-.01-.005-.022-.01-.033-.01h-.005c-.05.005-.1.01-.144.01-.044.006-.104.006-.181.006a.21.21 0 01-.154-.066.21.21 0 01-.044-.093.549.549 0 01-.017-.148v-.219c0-.06.006-.11.017-.148a.295.295 0 01.044-.093.21.21 0 01.154-.066c.077 0 .137 0 .181.006.045.005.094.005.144.01h.005c.017 0 .028-.005.033-.01.011-.006.017-.017.017-.033v-.236c0-.022-.006-.032-.011-.038-.011-.005-.022-.016-.044-.022-.039-.01-.083-.016-.144-.027-.06-.011-.126-.011-.209-.011a.608.608 0 00-.451.17c-.11.115-.17.279-.17.498v.22c0 .213.054.383.17.498.11.115.264.17.451.17.077 0 .149-.006.21-.011.06-.011.11-.017.143-.028a.083.083 0 00.044-.022c.01-.005.01-.022.01-.038zm-1.723-.28a.589.589 0 01-.22.055.262.262 0 01-.127-.022c-.028-.016-.039-.049-.039-.11v-.021a.33.33 0 01.011-.082.142.142 0 01.039-.06.144.144 0 01.071-.033.587.587 0 01.116-.011h.149v.285zm.418-.64a.638.638 0 00-.044-.247.458.458 0 00-.121-.164.452.452 0 00-.193-.093.955.955 0 00-.259-.033 1.987 1.987 0 00-.456.055c-.033.01-.05.027-.05.06v.213c0 .017.006.028.011.039.011.005.022.01.033.01h.011c.022 0 .05-.005.077-.005.033 0 .066-.005.105-.005.038 0 .082-.006.126-.006h.127c.06 0 .11.011.143.033.033.022.055.071.055.148v.093h-.143c-.226 0-.396.033-.495.104-.105.072-.155.187-.155.34v.022a.48.48 0 00.039.213.4.4 0 00.105.143.45.45 0 00.313.098.567.567 0 00.204-.032.805.805 0 00.165-.088v.044a.05.05 0 00.017.038.05.05 0 00.038.017h.297a.05.05 0 00.039-.017.05.05 0 00.017-.038v-.942h-.006zm-1.415.947v-.202c0-.028-.016-.044-.055-.044h-.132c-.038 0-.066-.006-.071-.022-.011-.017-.011-.05-.011-.104v-.767h.214a.05.05 0 00.039-.017.05.05 0 00.016-.038v-.214a.05.05 0 00-.016-.038.05.05 0 00-.039-.016h-.214v-.28c0-.016-.006-.027-.011-.033a.079.079 0 00-.033-.01h-.006l-.32.054a.27.27 0 00-.038.017c-.01.01-.016.022-.016.033v.213h-.22a.05.05 0 00-.039.017.05.05 0 00-.017.038v.175c0 .017.006.028.017.033a.089.089 0 00.039.022l.214.033v.767c0 .093.011.17.028.23.022.06.05.104.082.137a.293.293 0 00.138.066c.055.01.121.016.193.016.038 0 .071 0 .104-.005.028-.006.066-.011.105-.017.033 0 .05-.016.05-.044zm-1.156-.005v-.877c0-.082-.005-.159-.022-.235a.534.534 0 00-.071-.192.32.32 0 00-.143-.126.49.49 0 00-.237-.05.724.724 0 00-.226.034.774.774 0 00-.209.11v-.067a.05.05 0 00-.017-.038.05.05 0 00-.038-.016h-.297a.05.05 0 00-.039.016.05.05 0 00-.016.038v1.403a.05.05 0 00.016.038.05.05 0 00.039.017h.319a.05.05 0 00.039-.017.05.05 0 00.016-.038v-1.036c.044-.021.088-.043.132-.06a.315.315 0 01.121-.022c.039 0 .072.006.1.011.027.006.043.022.06.039a.16.16 0 01.027.076c.006.033.006.072.006.115v.877a.05.05 0 00.016.038.05.05 0 00.039.017h.32a.05.05 0 00.038-.017c.022-.01.027-.027.027-.038zm-2.003-.608c0 .213-.078.323-.237.323-.077 0-.138-.027-.176-.082a.42.42 0 01-.06-.241v-.186c0-.11.021-.187.06-.242.038-.054.099-.082.176-.082.154 0 .237.11.237.324v.186zm.429-.186a.91.91 0 00-.044-.285.555.555 0 00-.336-.35.763.763 0 00-.286-.05.763.763 0 00-.286.05.555.555 0 00-.336.35.91.91 0 00-.044.285v.186a.91.91 0 00.044.285.555.555 0 00.336.35c.082.033.176.05.286.05.11 0 .204-.017.286-.05a.555.555 0 00.336-.35.91.91 0 00.044-.285v-.186zm-1.47.772v-.236c0-.016-.005-.027-.016-.033-.011-.005-.022-.01-.039-.01h-.005c-.05.005-.1.01-.144.01-.044.006-.104.006-.181.006a.21.21 0 01-.154-.066.21.21 0 01-.044-.093.549.549 0 01-.017-.148v-.219c0-.06.006-.11.017-.148a.295.295 0 01.044-.093.21.21 0 01.154-.066c.077 0 .137 0 .181.006.045.005.094.005.144.01h.005a.08.08 0 00.039-.01c.01-.006.016-.017.016-.033v-.236c0-.022-.005-.032-.01-.038-.012-.005-.023-.016-.045-.022-.038-.01-.082-.016-.143-.027-.06-.011-.127-.011-.21-.011a.608.608 0 00-.45.17c-.11.115-.171.279-.171.498v.22c0 .213.055.383.17.498.11.115.265.17.452.17.077 0 .148-.006.209-.011.06-.011.105-.017.143-.028a.083.083 0 00.044-.022c.006-.005.011-.022.011-.038zm-1.304.022v-.877c0-.082-.006-.159-.023-.235a.534.534 0 00-.071-.192.32.32 0 00-.143-.126.49.49 0 00-.237-.05.724.724 0 00-.226.034.774.774 0 00-.209.11v-.067a.05.05 0 00-.016-.038.05.05 0 00-.039-.016h-.297a.05.05 0 00-.039.016.05.05 0 00-.016.038v1.403a.05.05 0 00.016.038.05.05 0 00.039.017h.32a.05.05 0 00.038-.017.05.05 0 00.016-.038v-1.036c.044-.021.088-.043.132-.06a.315.315 0 01.121-.022c.039 0 .072.006.1.011.027.006.044.022.06.039a.16.16 0 01.028.076c.005.033.005.072.005.115v.877a.05.05 0 00.017.038.05.05 0 00.038.017h.32a.05.05 0 00.038-.017c.022-.01.028-.027.028-.038zm-2.048-.301a.589.589 0 01-.22.054.262.262 0 01-.127-.022c-.028-.016-.039-.049-.039-.11v-.021a.33.33 0 01.011-.082.142.142 0 01.039-.06.144.144 0 01.071-.033.587.587 0 01.116-.011h.149v.285zm.424-.641a.638.638 0 00-.044-.247.458.458 0 00-.122-.164.452.452 0 00-.192-.093.955.955 0 00-.259-.033 1.987 1.987 0 00-.457.055c-.033.01-.05.027-.05.06v.213c0 .017.006.028.012.039.01.005.022.01.033.01h.01c.023 0 .05-.005.078-.005.033 0 .066-.005.11-.005.038 0 .082-.006.126-.006h.127c.06 0 .11.011.143.033.033.022.055.071.055.148v.093h-.143c-.226 0-.396.033-.495.104-.105.072-.154.187-.154.34v.022a.48.48 0 00.038.213.4.4 0 00.105.143.45.45 0 00.313.098.567.567 0 00.204-.032.805.805 0 00.165-.088v.044a.05.05 0 00.017.038.05.05 0 00.038.017h.298a.05.05 0 00.038-.017.05.05 0 00.017-.038v-.942h-.011zm-1.894.416a.208.208 0 01-.077.17c-.05.038-.149.06-.28.06H33.507v-.493h.297c.105 0 .182.022.22.071.039.05.06.104.06.165v.027zm-.011-.783c0 .027-.006.054-.011.082a.14.14 0 01-.044.065.292.292 0 01-.083.044.432.432 0 01-.132.017h-.297v-.455H33.712c.137 0 .23.017.286.05.055.032.082.087.082.158l-.005.039zm.451.756a.41.41 0 00-.066-.236.418.418 0 00-.17-.153.372.372 0 00.165-.154.479.479 0 00.06-.23v-.05a.546.546 0 00-.06-.262.46.46 0 00-.17-.17.83.83 0 00-.265-.093 2.153 2.153 0 00-.341-.027h-.133c-.044 0-.088.005-.132.005-.044 0-.082.006-.12.011-.04.006-.067.006-.089.011-.05.01-.088.022-.11.05-.022.021-.033.065-.033.125v1.605c0 .06.011.099.033.126.022.022.06.039.11.05.028.005.06.01.094.01.038.006.077.006.12.011.045.006.089.006.133.006h.138c.115 0 .225-.011.324-.027.1-.017.188-.05.265-.094a.52.52 0 00.181-.18.581.581 0 00.066-.29v-.044z"/></g></g></svg>