<svg xmlns="http://www.w3.org/2000/svg" width="640" height="360"><g fill-rule="nonzero"><path d="M282.711 231.154c-15.096 0-27.333-12.236-27.333-27.33 0-15.095 12.237-27.331 27.333-27.331s27.334 12.236 27.334 27.33c0 15.095-12.238 27.331-27.334 27.331m0-73.494c-25.496 0-46.168 20.67-46.168 46.164 0 25.493 20.672 46.163 46.168 46.163 25.497 0 46.168-20.67 46.168-46.163 0-25.494-20.671-46.164-46.168-46.164m173.18-33.691c0 7.186-5.826 13.012-13.013 13.012s-13.014-5.826-13.014-13.012 5.827-13.012 13.014-13.012 13.014 5.826 13.014 13.012m-235.245 74.033v50.012h-19.02v-50.682c-.075-11.39-9.424-20.728-20.837-20.829-11.664-.102-21.207 9.735-21.207 21.398v50.113h-19.02v-50.547c-.074-11.445-9.382-20.792-20.79-20.899-11.69-.11-21.254 9.746-21.254 21.436v50.01H80v-50.682c0-21.98 17.809-39.762 39.796-39.762 12.188 0 23.094 5.52 30.401 14.148.01.01-.01.01 0 0 7.538-8.92 19.017-14.529 31.685-14.167 21.682.62 38.765 18.762 38.765 40.45M345.276 248.085h19.02V113.233h-19.02zM389.322 248.085h19.02V113.233h-19.02zM433.368 248.013h19.02V159.93h-19.02zM515.52 174.472c12.643 0 23.214 8.868 25.836 20.72h-51.673c2.622-11.852 13.193-20.72 25.837-20.72m.357-16.932c-25.03.324-45.243 20.569-45.538 45.603-.301 25.567 20.571 46.703 46.143 46.72 16.9.01 31.682-9.06 39.734-22.596a.04.04 0 0 0-.016-.054l-15.406-7.584c-4.88 8.078-13.743 13.478-23.869 13.478-13.694 0-25.08-9.88-27.423-22.902H560v-8.568c0-24.265-19.857-44.412-44.123-44.097"/></g></svg>