<svg xmlns="http://www.w3.org/2000/svg" width="512" height="512" fill="none" viewBox="0 0 512 512"><path fill="#000" d="M512 238.315v182.059h-69.239V235.876c-.273-41.463-34.306-75.457-75.853-75.824-42.461-.372-77.2 35.438-77.2 77.895v182.427h-69.239V236.367c-.27-41.663-34.154-75.689-75.683-76.079-42.555-.4-77.37 35.479-77.37 78.034v182.052H0V235.876C0 155.862 64.83 91.129 144.87 91.129c44.368 0 84.07 20.095 110.67 51.504-.037.036.036.036 0 0 27.44-32.472 69.227-52.89 115.343-51.573C449.812 93.317 512 159.364 512 238.315" style="fill:#fff"/></svg>