<svg height="80" viewBox="0 0 198 80" width="198" xmlns="http://www.w3.org/2000/svg"><path d="m77.0967322 118.284476 8.1312645-8.743296v17.783863zm-25.915127-6.539985v4.021916h11.6460692v4.546513h-11.6460692v4.371648h13.0275099l6.0678468-6.522498-5.8754943-6.400093h-13.2898087zm144.1594508 3.339939c1.849758 1.947321 2.806302 4.576232 2.640475 7.256935 0 6.662391-4.45908 10.66682-11.995801 10.66682h-10.317088c-1.465523.007664-2.791052-.869118-3.357425-2.220797-2.364229 1.547316-5.150187 2.323229-7.973886 2.220797h-10.334574c-.548293-.013105-1.08644-.150631-1.573794-.402192-.495126.247493-1.038019.384708-1.591279.402192h-17.69643c-.559745-.010867-1.109759-.148371-1.608766-.402192-.505958.251898-1.061206.389217-1.626253.402192h-5.245977c-2.014456-.00957-3.645127-1.640241-3.654697-3.654698v-3.217532c0-.332245 0-.786897 0-1.189088-.34935-.023136-.699847-.023136-1.049196 0h-2.098391v4.441594c.000011.972323-.387435 1.904569-1.076611 2.590463-.689175.685894-1.62326 1.068886-2.595573 1.064276h-5.350896c-.967686 0-1.895485-.385635-2.578099-1.071531s-1.063764-1.615534-1.059112-2.583208v-5.700629c-2.475865 1.336798-5.2678248 1.977378-8.0788049 1.853579h-2.9902069v3.79459c.0046523.967674-.3764979 1.897312-1.0591122 2.583208-.6826142.685896-1.6104129 1.0715-2.5780986 1.071489h-10.3520615c-1.0432076.004139-2.0374788-.442008-2.7279081-1.224061l-3.8470499-4.319188-3.9169962 4.371648c-.6943527.749874-1.6709629 1.174763-2.692935 1.171601h-20.9839084c-2.0184336 0-3.6546974-1.636264-3.6546974-3.654697v-22.138024c0-.969286.3850474-1.898872 1.0704361-2.584261s1.6149753-1.070436 2.5842613-1.070436h21.2986671c1.0409279-.010861 2.0356595.429117 2.7279081 1.206575l3.8645364 4.196781 4.0219158-4.354161c.6920258-.740719 1.6617712-1.159041 2.6754484-1.154115h16.944506c2.8724929-.132365 5.7216069.57232 8.2012109 2.028445.595807-1.236302 1.845159-2.023938 3.217533-2.028445h12.240613c2.779937-.210155 5.567352.295553 8.096291 1.468874.242842.167836.476344.3488.699464.542084.619018-1.229284 1.876169-2.006554 3.252506-2.010958h17.678943c1.327698.014149 2.538828.761013 3.147586 1.941012 2.081657-1.339353 4.520465-2.016122 6.994636-1.941012h10.631847c1.574131-.031403 2.988028.958325 3.497318 2.448123 2.171023-1.680899 4.862775-2.54721 7.606667-2.448123h10.579387c.969289.004627 1.89704.394119 2.579152 1.082789.682112.688671 1.062708 1.620106 1.058059 2.589395v4.703893c.010885 1.247636-.615461 2.41462-1.661226 3.095127l.122406.104919zm-88.971772-.629518c0-6.137793-4.721379-7.309394-8.9531338-7.309394h-16.9270195l-6.7498239 7.274421-6.5224982-7.221962h-21.3161537v22.20797h20.9839085l6.8022836-7.344368 6.4525519 7.291908h10.3170883v-7.431801h6.6099312c4.6339466 0 9.2329196-1.294007 9.2329196-7.466774zm20.074606 4.581487c2.347924-1.0113 3.838892-3.355239 3.759617-5.910467.122134-2.024096-.933204-3.937322-2.710421-4.913732-2.004192-.885144-4.200529-1.246186-6.382606-1.049196h-12.240613v22.190483h5.245977v-8.166237h5.665655c1.923525 0 3.1301.192352 3.864537.979249 1.014222 1.031709.874329 3.007693.874329 4.336674v2.780368h5.350897v-4.336674c.142648-1.41278-.169815-2.834183-.891816-4.056889-.685842-.848804-1.593902-1.490499-2.622989-1.853579zm24.481227-11.873395h-17.766376v22.190483h17.696429v-4.668919h-12.450452v-4.371648h12.118207v-4.51154h-12.118207v-4.021916h12.450452zm21.788291 15.160874c.12391-1.706506-.472178-3.386966-1.643739-4.633946-1.189088-1.206575-3.147586-1.748659-6.05036-1.748659h-2.850315c-.690593.026138-1.381001-.056475-2.045931-.244813-.705343-.246561-1.176094-.914044-1.171601-1.661226-.049358-.643618.259874-1.262082.804383-1.608766.651313-.336569 1.386499-.476315 2.115877-.402192h9.722544v-4.826299h-10.61436c-5.560736 0-7.58918 3.374912-7.58918 6.627418 0 6.994636 6.225226 6.697364 11.173931 6.854744.662923-.07582 1.330253.098808 1.871065.489624.412129.368357.642191.898778.629518 1.451387.006346.556422-.222214 1.08973-.629518 1.468874-.626056.438688-1.391658.631644-2.15085.542084h-10.282115v4.738866h10.317088c5.350897 0 8.341104-2.20331 8.341104-6.994636zm21.665886 0c.142632-1.712145-.426666-3.40739-1.573793-4.686406-1.206575-1.206575-3.18256-1.748659-6.067847-1.748659h-2.850314c-.696285.024549-1.392208-.058018-2.063418-.244812-.627565-.266337-1.062873-.850228-1.138954-1.527712s.218876-1.343384.771735-1.742281c.663873-.33659 1.41021-.476149 2.150851-.402191h9.705058v-4.77384h-10.614361c-5.578222 0-7.58918 3.374912-7.58918 6.627418 0 6.994636 6.20774 6.697364 11.173931 6.854744.668351-.075184 1.340918.099185 1.888552.489624.429202.355787.663035.894903.629517 1.451387-.00203.55472-.229223 1.084838-.629517 1.468874-.634132.435438-1.403897.627879-2.168337.542084h-10.264629v4.738866h10.317089c5.28095-.017487 8.25367-2.25577 8.25367-7.047096zm-96.9106841-10.491954h-6.9596629v5.630682h6.8372568c2.0284445 0 3.3049652-.996736 3.3049652-2.920261s-1.2765207-2.797854-3.2525054-2.797854zm3.1475861-33.6616866c.721927-.4448769 1.13903-1.2521732 1.084169-2.0983909.116354-.8815654-.360084-1.7348874-1.171602-2.0983908-.8003741-.3136331-1.6605589-.4450502-2.5180688-.384705h-6.5224982v4.9312185h6.4350653c.8968489.0692568 1.7970796-.0807817 2.6229887-.4371648zm22.732568 34.0638776c-.798831-.341993-1.670105-.480195-2.535556-.402191h-6.627418v4.983678h6.470039c.898878.076502 1.802295-.08009 2.622988-.454651.724566-.475631 1.138404-1.303306 1.084169-2.168337.040212-.82415-.3946-1.598658-1.119142-1.993472zm19.584981-39.4147743-3.637211 8.8657013h7.291908zm-129.4007688 8.8657013h7.1520154l-3.6721839-8.9531342zm29.7272036 13.2198769c-1.4530295 0-2.7692944-.857156-3.3574253-2.1858383l-.6994637-1.5737932v.1049196c.0046524.9676745-.3764979 1.897312-1.0591121 2.583208s-1.610413 1.0715039-2.5780987 1.0715039h-10.9990653c-1.4789665.0041525-2.8131927-.887636-3.3749119-2.2557847l-1.1016552-2.6929349h-6.1377932l-1.1366284 2.6929349c-.5593027 1.3622545-1.8848263 2.2528406-3.35742537 2.2557847h-5.805548c-1.23663021-.0113811-2.38275862-.6503148-3.04266673-1.6962138-.6823368-1.0400733-.80042144-2.3521248-.31475862-3.4973181l9.49521856-22.1904831c.56603216-1.3694689 1.89321706-2.2703043 3.37491196-2.2907434h7.8514791c1.4649531.0083982 2.7875631.8787167 3.3749119 2.220797l1.9759847 4.7738392v-3.2350193c-.0000111-.9723233.3874357-1.9045698 1.0766111-2.5904634s1.6232606-1.0688862 2.5955729-1.0642339h8.6558622c1.4256476-.0017681 2.7195554.8334528 3.3049656 2.133364l3.4973181 7.5192338 3.1650728-7.4318009c.5401435-1.3719493 1.8484909-2.2877925 3.3224522-2.3257165h8.9181611c.7108972.0154704 1.4001899.247268 1.9759847.6644904.5513145-.4007979 1.2077321-.6317597 1.8885518-.6644904h17.6964294c.6239691.0326927 1.2277861.2319523 1.748659.5770575.5816758-.36708 1.2532703-.5667432 1.9410116-.5770575h12.2406132c2.8414088-.238511 5.6942338.2994158 8.2536708 1.5563066.23192.1549242.453855.3242963.66449.5071111.592977-1.2275487 1.819891-2.0230204 3.18256-2.0634177h5.420843c1.764551.0566322 3.236364 1.366546 3.497318 3.1126131 2.83356-2.2404888 6.397794-3.3496386 10.00233-3.1126131h5.123571c.794144.002496 1.566497.2599471 2.20331.7344368.624629-.4848786 1.39514-.7437702 2.185824-.7344368h7.956398c1.456356.0086659 2.768561.8811792 3.339939 2.220797l1.958498 4.5640001v-3.0251802c-.000023-2.0116243 1.62561-3.6450723 3.637211-3.6546973h8.078805c1.279961.003336 2.468548.663662 3.147586 1.748659l2.553042 4.1792951v-2.2907433c-.000045-.9707385.387957-1.9012171 1.07765-2.5843408.689692-.6831236 1.623841-1.0622041 2.594534-1.05287h5.420843c2.011625-.0000231 3.645073 1.6256094 3.654698 3.6372108v22.2079697c-.00957 2.0144563-1.640242 3.6451274-3.654698 3.6546974h-7.48426c-1.284356.0137635-2.480746-.6508976-3.147587-1.748659l-3.252506-5.3858699v3.4973181c0 2.0184336-1.636263 3.6546974-3.654697 3.6546974h-10.77174c-1.486713-.0011675-2.826031-.8986485-3.392398-2.2732568l-1.101655-2.6929349h-6.10282l-1.049196 2.6754484c-.560891 1.3814701-1.901411 2.2866664-3.392398 2.2907433h-6.242713c-3.44519.1109674-6.829187-.9288426-9.617625-2.9552338-.269316 1.7173516-1.759104 2.9762227-3.497318 2.9552338h-5.38587c-.611849-.0020582-1.213291-.1584333-1.748659-.4546514-.502.2848696-1.066703.441064-1.643739.4546514h-5.245977c-2.0145118.0000914-3.6529985-1.6227907-3.6721843-3.6372108v-2.7803679-.5071111c0-.2797854 0-.7169502 0-1.1016552h-3.1650729v4.4066208c0 2.008776-1.6284347 3.6372108-3.6372108 3.6372108h-5.2459771c-.6223185-.027464-1.2260084-.2206448-1.748659-.5595709-.525775.3322823-1.1276537.5248835-1.7486591.5595709h-17.9237551c-.7044955-.0213666-1.3889591-.2394257-1.9759847-.6295173-.5836155.3971471-1.2701895.6158786-1.9759847.6295173h-5.420843c-.9692894.0046488-1.9007247-.3759472-2.5893952-1.0580589s-1.0781621-1.6098624-1.0827888-2.5791519v-.1224061l-.6994636 1.5388199c-.574684 1.3320864-1.8891896 2.192365-3.3399388 2.1858238h-4.6689196zm75.3497182-14.6537773c0 4.0044292.961762 6.574958 2.832827 8.4460232 2.15584 1.7489758 4.887838 2.6284547 7.659127 2.4656092h6.225226l1.975985-4.948705h11.034038l2.045931 4.9661916h10.789227v-16.647234l10.037303 16.647234h7.519233v-22.2079697h-5.438329v15.493119l-9.337839-15.4756325h-8.061319v20.9839085l-8.970621-20.9839085h-7.938912l-7.48426 17.4865904h-2.395663c-1.334035.1175809-2.660421-.2973076-3.689671-1.154115-1.120484-1.5073492-1.64369-3.3759434-1.468873-5.2459771-.1328-1.80366.409405-3.5923131 1.521333-5.0186514 1.095541-1.021269 2.5888-1.5019319 4.074376-1.3114943h5.018651v-4.7738391h-5.141057c-3.654698 0-6.330146.8393563-8.043832 2.5880153-2.071664 2.4196928-3.085875 5.5694146-2.815341 8.7432952zm11.016552-2.8678008c-1.259035 0-1.381441.1398927-1.521334.2797855-.32563.7546518-.469386 1.5752583-.419678 2.3956628-.090142.9025725.035729 1.813641.367218 2.6579618.348192.0464236.701005.0464236 1.049196 0l2.273257-5.2459771zm-19.07787 13.7969198h5.403356v-22.2079697h-5.403356zm-24.3763074 0h5.2459771v-8.0788047h5.6831418c1.8885518 0 3.1126135.1748659 3.8645365.9617624.768872 1.3000947 1.065357 2.8257577.839356 4.3191879v2.7803678h5.43833v-4.354161c.17116-1.4232076-.136464-2.8628906-.87433-4.0918621-.721226-.7931867-1.628717-1.3941744-2.640475-1.7486591 2.330915-1.0259849 3.804914-3.3650082 3.724644-5.9104675.125518-2.0202799-.922476-3.9325287-2.692935-4.9137319-2.009858-.906899-4.224746-1.262971-6.4175785-1.0317088h-12.2406133v22.068077zm-21.3861001 0h17.6964295v-4.5989732h-12.3979926v-4.4066208h12.1007206v-4.5814867h-12.1007206v-4.0044292h12.3979926v-4.6164598h-17.6964295zm-21.7183452 0h4.6339465l7.6940997-17.3816708v17.3816708h5.508276v-22.2079697h-8.8831879l-6.3651189 15.0559543-6.9946362-15.0559543h-8.620889v20.9839084l-9.0405672-20.9839084h-7.8514791l-9.49521857 22.2079697h5.77057482l2.04593105-4.9661916h10.9640922l2.0284445 4.9661916h10.8067128v-17.3991574l7.7290729 17.4865904z" fill="#fff" transform="translate(0 -59)"/></svg>