<svg xmlns="http://www.w3.org/2000/svg" xml:space="preserve" width="640" height="360" viewBox="162.5 376.9 640 360"><g fill="#3e4a59"><path d="M426.635 517.682c-17.117 0-28.026 8.84-34.61 19.374h-.564l.188-17.117h-33.105c-3.01 0-5.643 3.762-5.643 7.148V632.42c0 3.386 2.822 6.96 5.831 6.96h32.917v-59.063c0-17.117 4.703-30.66 21.255-30.66 15.988 0 18.434 11.85 18.434 27.65v55.113c0 3.762 2.821 6.96 5.643 6.96h33.105v-70.537c.188-28.967-8.841-51.162-43.45-51.162M682.07 517.682c-15.611 0-26.333 5.643-32.728 11.474.188-4.327.188-10.534.188-16.74v-40.254h-32.917c-3.01 0-5.643 3.762-5.643 6.96v153.11c0 3.763 2.822 6.96 5.831 6.96h31.036l-.188-9.78c8.84 8.464 20.879 12.414 34.234 12.414 34.61 0 56.617-27.086 56.617-62.26-.188-34.986-22.007-61.884-56.43-61.884m-8.275 91.98c-16.177 0-27.463-12.603-27.463-31.037s11.098-31.036 27.463-31.036c16.176 0 27.086 12.603 27.086 31.036 0 18.434-10.722 31.036-27.086 31.036M346.13 519.75h-39.877c-3.01 0-6.207 1.694-8.088 3.95l-32.917 35.551v-87.277h-33.105c-3.01 0-5.643 3.762-5.643 6.96v153.299c0 3.386 2.257 6.96 5.643 6.96h33.105v-36.115l10.722-10.346 26.521 41.946c2.445 3.386 5.831 4.514 9.781 4.514h37.432l-47.213-74.674ZM582.003 531.601c-9.405-8.84-22.383-13.92-44.579-13.92-18.997 0-35.362 5.267-46.083 9.782-2.822 1.316-3.95 5.078-2.822 7.9l7.9 19.75c6.207-3.95 21.255-10.721 36.491-10.721 15.612 0 24.453 6.583 24.453 19.185v2.634l-30.096 1.128c-22.007.94-46.46 9.97-46.46 36.491s22.384 37.996 43.45 37.996c19.375 0 29.156-10.157 34.234-15.236l.564 8.088c.189 2.257 2.258 4.326 5.267 4.326H596.3v-66.962c-.188-20.127-5.079-31.789-14.296-40.441m-24.264 74.863c-2.445 4.138-9.405 10.91-19.75 10.91-10.722 0-18.246-5.644-18.246-14.672 0-8.84 6.96-14.108 18.81-14.484l19.186-1.128z"/></g></svg>