<svg xmlns="http://www.w3.org/2000/svg" width="640" height="360" viewBox="0 0 640 360">
  <g fill="none" fill-rule="evenodd" transform="translate(80 110)">
    <path fill="#FFF" d="M138.843373,69.0478041 C138.843373,107.048581 108.034201,137.867081 70.033424,137.867081 C32.0186553,137.867081 1.20948309,107.048581 1.20948309,69.0478041 C1.20948309,31.042363 32.0186553,0.228527011 70.033424,0.228527011 C108.034201,0.228527011 138.843373,31.042363 138.843373,69.0478041"/>
    <path fill="#532A6E" d="M67.7574815,13.8142246 C38.5060241,13.8142246 14.7998445,37.5204042 14.7998445,66.7765255 L67.7574815,66.7765255 L67.7574815,13.8142246"/>
    <path fill="#B62440" d="M14.7998445,71.5149631 C14.7998445,100.757093 38.5060241,124.467936 67.7574815,124.467936 L67.7574815,71.5149631 L14.7998445,71.5149631"/>
    <path fill="#1F67A4" d="M72.500583,124.467936 C101.742713,124.467936 125.453556,100.757093 125.453556,71.5149631 L72.500583,71.5149631 L72.500583,124.467936"/>
    <path fill="#E77B2B" d="M72.500583,13.8142246 L72.500583,66.7765255 L125.453556,66.7765255 C125.453556,37.5204042 101.742713,13.8142246 72.500583,13.8142246"/>
    <g fill="#532A6E" transform="translate(154 14)">
      <path d="M73.5530509 83.2872134L84.6809172 83.2872134 84.6809172 91.127089 53.8344345 91.127089 53.8344345 83.2872134 65.2048193 83.2872134 65.2048193 32.5868636 54.0862806 32.5868636 54.0862806 24.7563156 73.5530509 24.7563156 73.5530509 83.2872134zM65.2001555 13.8849592L73.5483871 13.8849592 73.5483871.863583366 65.2001555.863583366 65.2001555 13.8849592zM124.495919 41.5693743C124.379324 38.1554606 122.728333 35.3758259 120.19588 33.4776525 117.668092 31.5794792 114.384765 30.441508 110.844928 30.441508 104.143024 30.441508 97.8235523 34.4897007 97.8235523 41.6906335 97.8235523 50.0388651 105.784687 52.0629615 112.481928 53.4527789 117.668092 54.4648271 122.975515 55.6027983 127.532064 58.3870968 132.844151 61.4185775 135.745045 66.8519238 135.745045 72.9195492 135.745045 77.2289157 134.355227 80.2557326 132.844151 83.1612903 129.677419 89.2335795 121.212592 92.8946755 113.493976 92.8946755 105.532841 92.8946755 99.0827827 89.9937816 95.0392538 83.1612903L95.0392538 91.1317528 88.2114264 91.1317528 88.2114264 72.1640109 95.0392538 72.1640109C95.7994559 80.2557326 103.005052 86.1974349 111.982899 86.1974349 119.314419 86.1974349 126.394092 81.2724446 126.394092 73.558492 126.394092 64.4547221 118.554217 62.8083949 111.222697 61.2973183 106.036533 60.1546832 100.864361 59.1426351 96.3031481 56.3630004 91.373494 53.2009328 88.4679363 48.1406918 88.4679363 42.3295764 88.4679363 37.7776914 89.3493976 34.2378546 91.8771862 30.949864 95.7994559 25.889623 103.256899 23.6183443 109.450447 23.6183443 115.643995 23.6183443 121.212592 25.7730276 124.495919 30.949864L124.495919 24.7516518 131.323747 24.7516518 131.323747 41.5693743 124.495919 41.5693743M37.016712 41.5693743C36.9001166 38.1554606 35.2537894 35.3758259 32.721337 33.4776525 30.1935484 31.5794792 26.9102215 30.441508 23.3657209 30.441508 16.6684804 30.441508 10.3490089 34.4897007 10.3490089 41.6906335 10.3490089 50.0388651 18.3101438 52.0629615 25.0073844 53.4527789 30.1935484 54.4648271 35.5009716 55.6027983 40.0575204 58.3870968 45.3696075 61.4185775 48.2705014 66.8519238 48.2705014 72.9195492 48.2705014 77.2289157 46.880684 80.2557326 45.3696075 83.1612903 42.202876 89.2335795 33.738049 92.8946755 26.0194326 92.8946755 18.0582977 92.8946755 11.6082394 89.9937816 7.56471045 83.1612903L7.56471045 91.1317528.736883016 91.1317528.736883016 72.1640109 7.56471045 72.1640109C8.32491255 80.2557326 15.5305091 86.1974349 24.508356 86.1974349 31.8398756 86.1974349 38.9195492 81.2724446 38.9195492 73.558492 38.9195492 64.4547221 31.0796735 62.8083949 23.7481539 61.2973183 18.5573261 60.1546832 13.3851535 59.1426351 8.82860474 56.3630004 3.89895064 53.2009328.993392927 48.1406918.993392927 42.3295764.993392927 37.7776914 1.87485426 34.2378546 4.39797901 30.949864 8.32491255 25.889623 15.7823552 23.6183443 21.9759036 23.6183443 28.169452 23.6183443 33.738049 25.7730276 37.016712 30.949864L37.016712 24.7516518 43.8492033 24.7516518 43.8492033 41.5693743 37.016712 41.5693743M139.541391 58.382433C139.541391 39.0415857 155.216479 23.6230082 174.557326 23.6230082 193.399145 23.6230082 209.08356 39.0415857 209.08356 57.7528177 209.08356 77.093665 193.776914 92.8946755 174.310144 92.8946755 155.090556 92.8946755 139.541391 77.3408473 139.541391 58.382433M200.735328 58.2565099C200.735328 43.8406529 189.099106 31.8313253 174.436067 31.8313253 159.773028 31.8313253 147.889623 43.5934707 147.889623 58.1305869 147.889623 72.5464438 159.521182 84.6816945 174.310144 84.6816945 188.977847 84.6816945 200.735328 72.7982899 200.735328 58.2565099"/>
      <polyline points="292.258 91.127 283.532 91.127 268.743 45.24 251.93 91.127 243.33 91.127 223.229 32.596 212.106 32.596 212.106 24.756 242.192 24.756 242.192 32.596 231.698 32.596 248.39 80.26 265.455 31.206 272.414 31.206 287.958 79.621 304.892 32.596 294.156 32.596 294.156 24.756 324.368 24.756 324.368 32.596 313.245 32.596 292.258 91.127"/>
    </g>
  </g>
</svg>
