<?xml version="1.0" encoding="UTF-8" standalone="no"?>
<svg
   height="360"
   viewBox="0 0 640 360"
   width="640"
   version="1.1"
   id="svg1988"
   sodipodi:docname="provider-sisow-white-640x360.svg"
   inkscape:version="1.1.2 (b8e25be8, 2022-02-05)"
   xmlns:inkscape="http://www.inkscape.org/namespaces/inkscape"
   xmlns:sodipodi="http://sodipodi.sourceforge.net/DTD/sodipodi-0.dtd"
   xmlns="http://www.w3.org/2000/svg"
   xmlns:svg="http://www.w3.org/2000/svg">
  <defs
     id="defs1992" />
  <sodipodi:namedview
     id="namedview1990"
     pagecolor="#ffffff"
     bordercolor="#666666"
     borderopacity="1.0"
     inkscape:pageshadow="2"
     inkscape:pageopacity="0.0"
     inkscape:pagecheckerboard="true"
     showgrid="false"
     inkscape:zoom="1.9203125"
     inkscape:cx="347.07893"
     inkscape:cy="195.54109"
     inkscape:window-width="2194"
     inkscape:window-height="1269"
     inkscape:window-x="2792"
     inkscape:window-y="379"
     inkscape:window-maximized="0"
     inkscape:current-layer="g1986" />
  <g
     fill="none"
     fill-rule="evenodd"
     transform="translate(80 110)"
     id="g1986">
    <path
       id="path1978"
       d="m 72.500583,13.814225 v 52.962301 h 52.952977 c 0,-29.256122 -23.71085,-52.962301 -52.952977,-52.962301 m 0,110.653715 c 29.242127,0 52.952977,-23.71085 52.952977,-52.952977 H 72.500583 Z M 14.799845,71.514963 h 52.957636 v 52.952977 c -29.251457,0 -52.957636,-23.71085 -52.957636,-52.952977 z M 67.757481,13.814225 c -29.251457,0 -52.957637,23.706179 -52.957637,52.962301 h 52.957637 z m 71.085889,55.233579 c 0,-38.005441 -30.80917,-68.81927699 -68.809946,-68.81927699 -38.014769,0 -68.8239409,30.81383599 -68.8239409,68.81927699 0,38.000776 30.8091719,68.819276 68.8239409,68.819276 38.000776,0 68.809946,-30.8185 68.809946,-68.819276"
       style="fill:#ffffff" />
    <g
       fill="#532a6e"
       transform="translate(154 14)"
       id="g1984"
       style="fill:#ffffff">
      <path
         d="m73.5530509 83.2872134h11.1278663v7.8398756h-30.8464827v-7.8398756h11.3703848v-50.7003498h-11.1185387v-7.830548h19.4667703zm-8.3528954-69.4022542h8.3482316v-13.02137583h-8.3482316zm59.2957635 27.6844151c-.116595-3.4139137-1.767586-6.1935484-4.300039-8.0917218-2.527788-1.8981733-5.811115-3.0361445-9.350952-3.0361445-6.701904 0-13.0213757 4.0481927-13.0213757 11.2491255 0 8.3482316 7.9611347 10.372328 14.6583757 11.7621454 5.186164 1.0120482 10.493587 2.1500194 15.050136 4.9343179 5.312087 3.0314807 8.212981 8.464827 8.212981 14.5324524 0 4.3093665-1.389818 7.3361834-2.900894 10.2417411-3.166732 6.0722892-11.631559 9.7333852-19.350175 9.7333852-7.961135 0-14.4111933-2.9008939-18.4547222-9.7333852v7.9704625h-6.8278274v-18.9677419h6.8278274c.7602021 8.0917217 7.9657982 14.033424 16.9436452 14.033424 7.33152 0 14.411193-4.9249903 14.411193-12.6389429 0-9.1037699-7.839875-10.7500971-15.171395-12.2611737-5.186164-1.1426351-10.358336-2.1546832-14.9195489-4.9343179-4.9296541-3.1620676-7.8352118-8.2223086-7.8352118-14.033424 0-4.551885.8814613-8.0917218 3.4092499-11.3797124 3.9222697-5.060241 11.3797128-7.3315197 17.5732608-7.3315197s11.762145 2.1546833 15.045472 7.3315197v-6.1982122h6.827828v16.8177225zm-87.479207 0c-.1165954-3.4139137-1.7629226-6.1935484-4.295375-8.0917218-2.5277886-1.8981733-5.8111155-3.0361445-9.3556161-3.0361445-6.6972405 0-13.016712 4.0481927-13.016712 11.2491255 0 8.3482316 7.9611349 10.372328 14.6583755 11.7621454 5.186164 1.0120482 10.4935872 2.1500194 15.050136 4.9343179 5.3120871 3.0314807 8.212981 8.464827 8.212981 14.5324524 0 4.3093665-1.3898174 7.3361834-2.9008939 10.2417411-3.1667315 6.0722892-11.6315585 9.7333852-19.3501749 9.7333852-7.9611349 0-14.4111932-2.9008939-18.45472215-9.7333852v7.9704625h-6.82782743v-18.9677419h6.82782743c.7602021 8.0917217 7.96579865 14.033424 16.94364555 14.033424 7.3315196 0 14.4111932-4.9249903 14.4111932-12.6389429 0-9.1037699-7.8398757-10.7500971-15.1713953-12.2611737-5.1908278-1.1426351-10.3630004-2.1546832-14.91954916-4.9343179-4.9296541-3.1620676-7.83521181-8.2223086-7.83521181-14.033424 0-4.551885.88146133-8.0917218 3.40458608-11.3797124 3.92693354-5.060241 11.38437619-7.3315197 17.57792459-7.3315197s11.7621454 2.1546833 15.0408084 7.3315197v-6.1982122h6.8324913v16.8177225zm102.524679 16.8130587c0-19.3408473 15.675088-34.7594248 35.015935-34.7594248 18.841819 0 34.526234 15.4185775 34.526234 34.1298095 0 19.3408473-15.306646 35.1418578-34.773416 35.1418578-19.219588 0-34.768753-15.5538282-34.768753-34.5122425m61.193937-.1259231c0-14.415857-11.636222-26.4251846-26.299261-26.4251846s-26.546444 11.7621454-26.546444 26.2992616c0 14.4158569 11.631559 26.5511076 26.420521 26.5511076 14.667703 0 26.425184-11.8834046 26.425184-26.4251846"
         id="path1980"
         style="fill:#ffffff" />
      <path
         d="m292.258 91.127h-8.726l-14.789-45.887-16.813 45.887h-8.6l-20.101-58.531h-11.123v-7.84h30.086v7.84h-10.494l16.692 47.664 17.065-49.054h6.959l15.544 48.415 16.934-47.025h-10.736v-7.84h30.212v7.84h-11.123z"
         id="path1982"
         style="fill:#ffffff" />
    </g>
  </g>
</svg>
