<svg height="360" viewBox="0 0 49.345536 27.756864" width="640" xmlns="http://www.w3.org/2000/svg"><path clip-rule="evenodd" d="m24.989824 16.832526v1.710494c-.48747.376761-1.665283.809167-2.963079.809167-1.989298 0-3.898606-1.331415-3.898606-3.649944 0-2.261145 1.93829-3.705588 3.870204-3.705588 1.210272 0 1.844389.401685 2.274476.401685.229535 0 .373863-.259096.401685-.344881h.171571c0 .807427.08637 1.7644.172731 2.257087l-.200553.02898c-.401685-1.275191-1.724985-1.883805-2.733545-1.855403-1.643257.02898-2.53705 1.478642-2.53705 3.102192 0 1.767298.980158 3.2471 2.595013 3.2471.576154 0 1.3546-.146067 1.614276-.464286v-1.537184c0-.868289-.461967-1.07174-.808008-1.07174v-.202292h2.872657v.202292c-.343722.00058-.831772.204031-.831772 1.07232zm-8.998789-2.550381v5.098444h-.2846l-4.909484-5.939491c.0284.08637.05738.231853.05738.464285v3.593721c0 1.247367.289237 1.593987.923354 1.593987v.201712h-2.455901v-.201712c.666577 0 .956393-.34662.956393-1.593987v-4.31884c0-.608613-.521669-.925672-1.130283-.925672v-.201132h2.110441l4.190741 4.981938c-.02782-.204031-.02782-.261415-.02782-.434725v-2.319108c0-.869449 0-2.026973-.896691-2.026973v-.201132h2.323166v.201132c-.884519.00058-.856696 1.157525-.856696 2.027553zm-8.981401-.985375v4.579673c0 .406322-.08637 1.217228.806269 1.217228v.201712h-2.85295v-.201712c.893793 0 .808007-.810326.808007-1.217228v-4.579673c0-.869449-.490369-1.041599-.836409-1.041599v-.201133h2.938735v.201133c-.373863 0-.863652.17215-.863652 1.041599zm29.160136-1.285625c.05796 0 0-.08579 0-.114187-.115927-.171571-.202292-.486891-.230694-.486891-.08637-.02956-.144908 0-.259675-.05854-.05796-.05796-.230694-.144908-.289237-.174469-.0284 0-.115347-.02956-.230693-.05796h-.143749c.0284.08695.115347.17447.143749.232433 0 .02898 0 .116506.02898.17331.05738 0 .144908.02898.201712.05738.0284 0 .202292.0284.259675.08579.05796 0 .259676.228955.289237.257357.08579.05738.17273.114187.230694.08579zm8.24121 3.418672c-.05553-.05311-.128435-.08422-.20519-.08752 0-.08637-.02956-.202291 0-.317638.05912 0 .175629.02898.175629 0 0-.17331-.02956-.346041-.05796-.432406-.07664-.03348-.155225-.06232-.23533-.08637-.0017-.08029-.0215-.159154-.05796-.230693.08695-.0284.146068-.0284.20519-.0284 0 0-.05912-.260835-.0881-.377341-.05912-.0284-.146067-.0284-.20519-.0284-.02956-.05275-.05912-.104913-.0881-.186641.05912-.02898.117666-.02898.176788-.05854-.0382-.104315-.08758-.204204-.147226-.297931h-.201712c-.02956-.06086-.05796-.117666-.05796-.17447.0284-.02782.08579-.05564.115347-.08463-.03147-.08479-.08048-.162003-.143749-.226636-.05796 0-.115346.0284-.17331 0-.0284 0-.115346-.114188-.08579-.114188.0284-.05738.08579-.08579.114187-.114187-.08579-.114188-.114187-.200553-.201712-.257357-.0568 0-.115347 0-.17215.0284 0 0-.05796-.08579-.08695-.114187-.08579 0 .05912-.143169.05912-.143169-.08838-.111662-.184856-.216666-.288657-.314161-.05796 0-.115346.05738-.143748.05738 0 0-.115347-.08579-.115347-.114768 0-.05738.115347-.08579.115347-.08579s-.202872-.229535-.345461-.317059c-.05796.02898-.08695.02898-.144908.02898-.08579-.08695-.201712-.144908-.201712-.144908s.08695-.05854.08695-.08695c-.144908-.08695-.201712-.145488-.317059-.233012-.115347-.05796-.17331-.144908-.230694-.231274-.20403-.317058-.466604-.7790245-1.103619-.8653895 0 0 .144908.202871.231852.3466195 0 .02898 0 .02898-.115926.02898h-.202871c-.05796-.08637-.08695-.115926-.115927-.1727295-.05796-.115927-.08637-.144329-.144908-.202871-.114767-.08637-.691501.2312725-1.147092.3466195.116506.144328.223738.230693.248083.288656.120563.143749.322855.404004.466604.607455.02956-.02956.05796-.05854.115926-.08695.374442-.05854.374442-.145488.374442-.145488s-.288077-.230693-.08637-.230693c0 0 .144329.02956.201712-.02898.144908-.0284.318798-.05796.405743 0 .115347.08637.17331.201712.259675.289237-.05854 0-.115926-.02898-.17389-.02898-.17331-.0284-.347199 0-.492107.02898 0 0 .231273.20403.289816.290975-.05854-.02898-.231853 0-.231853 0-.08637.0284-.201712.05796-.231273.05796-.08637.02898-.172731 0-.230114.02898.115346.05796.634697.261414.894952.261414.231853 0 .376761-.02898.581371-.116506.02956-.02898.0881-.05796.117665-.02898.115347.02898.172151.05796.230694.115927.748305.458489 1.583555 1.54414 1.842071 2.12725.259095.53558.402844 1.141875.402844 1.718609.02956.786561-.229534 1.534287-.748305 2.197965-.287498.376761-.834091.700776-1.410825.759898.172151.206929.259096.532102.345461.820759 0 0 .201712-.0284.317059-.08289 0-.23649-.143749-.501382-.143749-.560504 0 0 .172151-.118825.317059-.118825.0284.08926.114187.23649.229534.442839.115347-.05912.201712-.117665.288657-.205769 0-.147227-.08695-.325174-.144908-.502542.201712-.0881.317059-.117665.317059-.117665.05796.0881.201712.177947.229534.266051 0 0 .144908-.148386.201712-.295612-.0568-.115347-.143749-.204031-.201712-.319377l.230694-.259096s.143749.115347.201712.17331c.0881-.116506.176788-.230694.20519-.374442-.146068-.144908-.20519-.144908-.234172-.230694.05912-.08579.0881-.201712.147227-.288077.08695.02898.146067.08637.205189.115347.05912-.115347.117666-.287498.117666-.402845-.05912-.05796-.147227-.08637-.20577-.143749l.05912-.288656s.147226.02956.20519.02956c.0313-.178527.0313-.354155.0313-.471241zm-9.222528-5.265379c.02898-.08637-.02898-.1727305-.02898-.2596755-.05738-.202292-.143749-.404004-.172151-.635277v-.114767c-.115927-.05796-.230694-.08637-.375022-.144328 0 0 0 .17273.05796.259095.05796.144908.144329.375602.144329.490949 0 .08636.0284.17273.05738.2596755.143749.08637.316479.144328.316479.144328zm.692661 1.099562c0-.232432-.08637-.406901-.144329-.523407 0-.0284-.02898-.05738-.08637-.08637-.08637-.08637-.17273-.17331-.201712-.17331-.08637-.08637-.144328-.17273-.230693-.259675-.08637 0-.143749.08637-.201712.115927-.0284.05738-.144329.115346-.08637.143748.0284.05796.08637.05796.144329.08637.05738.05796.114767.08637.201712.144328.115347.115926.17331.260835.317638.377341.05738.02898.08637.05796.114767.05796.0284.000579.144329.0881.172731.117085zm4.769793 5.81545c0-.02956 0-.260255-.05796-.260255-.02898-.0284-.05796-.114767-.08695-.143749-.0284.08579 0 .143749 0 .230694 0 .0568-.115347.114188-.08695.143749.08695.02956.144908.230693.203451.287497.08579.115347.05622-.201712.0284-.257936zm-6.06759-8.1844065c-.259675-.172731-.548332-.346041-.836409-.461387-.17273.143748-.288077.259675-.374442.259675-.08637 0-.02898-.172731-.02898-.288657-.08695 0-.144328 0-.230694-.0284-.05796.201712-.08637.460808-.230693.51935-.05796.0284-.08637.0284-.115347.0284v-.230114c0-.02898.115347-.230693.08636-.259675 0 0-.259675.05738-.317059.08637-.02898.0284-.201712.115347-.230693.115347 0 0-.08637-.02898-.115347-.02898-.08637-.05796-.144908-.05796-.230694-.115347-.115346.34604-.143748.432405-.143748.375022 0 0-.404004-.259675-.548332-.432985-.374443.05738-.374443.115346-.692081.230114-.115347.115926-.288077.259675-.402845.432405-.05796.115927-.115926.172731-.17331.289237l.288078.115346c.0284-.0284.17273-.231273.201712-.288656.202291-.115927.548332-.317059.663678-.432406.0284.05738.374443.259675.519351.34604.115347.08637.230693.115347.34604.17331.05796-.08636.114767-.17331.172731-.375022.08637.05796.201712.05796.288077.08637 0 .115346 0 .230693.02898.34604 0 .05796.05738.02956.173311-.0284.17273-.05854.34604-.08637.432405-.115347.201712-.115926.317059-.34604.490369-.34604.143749 0 .403424.08637.461387.143749.08637.02898.144329.05796.230114.05796.115347 0 .201712-.115347.288077-.17331zm3.815719 5.0607685c0-.08695-.02956-.194756-.115927-.247503-.261414.07883-.55065.104914-.752942.104914-.289236 0-.578473-.05217-.983056-.218522-.02956.05854 0 .166355 0 .166355.17331.136793.17331.05217.318218.194756.05796.05796.08637.17389.115927.376182.0284.115346.08637.144908.144328.317638.08637-.05796.230694-.02898.230694-.02898 0-.143748-.08637-.288656-.08637-.316479l-.144908-.290395c.0284 0 .115927.115926.260255.115926.02898 0 .115347.02898.17331 0 0 0 .08695.05854.08695.116506.05796.08637.05796.144908.08637.230694.05796 0 .08637 0 .115927-.02898.115926 0 .17331-.02898.17331-.02898-.0284-.05796-.05796-.114767-.05796-.17273-.02956-.05796-.08695-.202871-.08695-.202871zm-1.910468-.390092s-.05796-.358213-.115926-.753522c-.05796-.343142-.08695-.457909-.174469-.600499-.04463.02301-.09489.03286-.144909.0284-.08636.0284-.144328.05738-.144328.05738.05796.228954.144328.514713.17331.854377 0 .08463-.02898.176209 0 .267791zm4.919339 3.34042c0-1.475743-.525147-2.717895-1.162743-3.398963-.374442-.384296-.778446-.609193-1.154627-.609193-.340244 0-.603977.253299-.603977.521089 0 1.028847.4098 1.691946.652666 2.273897.07245.146067.0968.262573.0968.406322.02898.374442-.25214 1.064205-.45675 1.440386-.02898-.02956-.175629-.05796-.292715-.05796-.290395 0-.405742.201712-.464865.376761-.08694 0-.144908-.05912-.231273-.05912-.34662-.0284-.636436.294453-.636436.648609 0 .383716.08695.585428.231273.831192h.289237c-.0284-.08173-.115927-.506019-.144329-.623684-.02956-.177947.0284-.296772.115927-.384876.114767-.176788.405163-.117665.405163-.117665-.08695.147226-.202872.383716-.202872.620206.0284.147227.05796.370385.144908.506019h.231274c.05854-.162876 0-.300249 0-.446896 0-.08926 0-.176788.02956-.266051 0-.05912.144908.117665.144908.117665s.116506-.147227.116506-.264892c0-.08926-.174469-.06028-.204031-.148386-.02898-.0881.05796-.294453.05796-.294453.175049-.117665.321696-.08926.380238-.08926.08695 0 .117086.02956.233592.02956.08347 0 .107232-.174469.107232-.261414.02434.0284.0968.08695.121143.08695.08173.02956.11071.02956.197075.05796.115927.05912.230694.116506.346041.234171v-.02956c-.0284-.117665.02956-.262573-.0568-.321696 0 0-.144908-.115347-.259676-.17331-.05796-.05796-.144328-.05796-.17273-.115347-.02898-.02956-.02898-.05796-.02898-.114187 0-.05912.02898-.144908.05796-.144908.05796-.0284.08636 0 .201712.05796.115926.05796.230693.143749.317058.201712 0 0 .0284.05796.0284.02956.115927-.05912.115927-.08695.115927-.260255-.115927-.143748 0-.17215-.172731-.287497-.05796 0-.375022-.115347-.375022-.115347 0-.05738.08637-.199973.08637-.199973.02898-.02956.08637-.02956.115926.02782.17273.115347.288077.115347.460808.172151.0284-.08579.0284-.143749-.0284-.199973-.05796-.08637-.144329-.17331-.202292-.201712-.115347-.02898-.17273-.05796-.259675-.08637 0-.08637-.0284-.17331-.05738-.288657 0-.05738.05738-.0284.115347-.0284.114767-.0284.605716.143748.605716.143748 0-.115346-.02898-.201711-.08637-.260254-.05796-.05854-.115346-.117086-.259675-.175629-.201712-.05796-.374442-.02898-.51935-.117086-.115347-.116506-.144329-.145488-.168673-.262574.08173-.0284.226056-.05796.313001-.05796.143749 0 .230114-.0284.403424.02898.05796.0284.259675.20403.34662.20403 0 0-.05796-.233012-.115926-.319377-.08637 0-.230694-.172731-.288077-.201712-.289237-.114767-.346041-.05796-.519351-.0284-.08637.0284-.164036 0-.23649 0-.02434-.05854.04811-.144908.02376-.202872 0-.0284-.0968-.05738-.0968-.114767 0 0 .42429-.05796.5976-.0284.05796.0284.230694.143749.288078.143749 0 0 .05796-.201712-.0284-.374442-.144908-.0284-.288078 0-.404004-.0284-.115347-.02956-.230114 0-.307785 0-.07245 0-.144908-.02956-.233012-.02956-.05495-.07605-.08548-.167025-.08752-.260835 0 0 .686284-.0284.744247-.05796-.02956-.02898-.08637-.05796-.115926-.115927-.115347-.186641-.201712-.216202-.332129-.216202-.07245 0-.267211.08463-.384296.05854 0-.234172.117085-.446897.287497-.446897.313581 0 .659042.154182.947119.4724.722801.739031 1.099562 2.160289 1.099562 3.16769 0 .460808-.05796.895532-.115346 1.247369.08694.02956.144908.02956.233012.02956.0881-.352416.176788-.815543.176788-1.246789zm-6.392184-4.780806s-.08637-.372124-.144329-.543695c-.0284-.114767-.08637-.172151-.143748-.259675-.02898.02898-.05796.08752-.05796.115926-.05796.08637-.144908.143749-.08637.229534.0284.114768.0284.228955.115347.314741.08637.08637.201132.05738.31706.143169zm3.266807 2.812955c-.02898-.08637-.116506-.114767-.17389-.172731 0 0-.376761-.144328-.434724-.144328-.05796.02898.144908.144328.17389.202292.115926.114767.406322.374442.406322.374442zm-2.545745-1.84323c0-.08463-.02898-.141431-.05738-.225477-.02956-.14317-.08637-.228955-.115927-.314741 0-.08521 0-.143169-.0284-.199973-.02898 0-.05796 0-.08637-.0284-.08637 0-.202871-.0284-.202871-.0284 0 .08579.02956.228955.02956.314161 0 .02898.115347.286338.143749.31416.02956.0568.05796.08463.115926.112449.08637-.00058.144329.05622.201712.05622zm4.798195 4.64749c0-.02956-.08694-.08695-.116506-.08695 0-.02956-.0284-.144908-.05796-.17331-.05796-.02956-.05796-.05796-.115926-.05796 0 .0284 0 .05796-.02898.115347 0 .05796-.05796.08579-.02898.143749.02898.05912.05796.05912.115926.0881.02898.0284.115926.262573.144908.293294.02956-.03014.02956-.20577.08752-.322276zm-2.019438-1.932493c.02898-.08752-.02956-.263733-.05912-.321696-.08694 0-.144908-.05854-.202871-.05854-.05854 0-.08752-.145488-.173889-.116506.0284.05854.08637.350098.115346.40922.02898.02898.144908.233592.144908.434724.116506-.08637.146068-.259095.175629-.347199zm3.121899 3.334044c.05796-.02724 0-.08173 0-.109551-.0284 0-.143749-.260254-.229534-.37792 0 0-.02956.08695-.05912.146068-.05912.148385-.0881.205189-.0881.287497.0881.05449.117665.02724.233012.02724.0568-.00058.115347.02666.143749.02666zm-5.09091-4.782545s-.348358-.202292-.406322-.289816c-.08636 0-.08636 0-.17273.08695-.05796 0-.08637.02898-.115347.08694.08637.05796.115347.08637.201712.144908.02898.0284.05796.0284.144908 0h.231853c.05796 0 .115926.0284.115926-.02898zm-.693819-.52109c.05738-.07883-.05796-.07883-.08752-.104913-.0284-.05275-.08521-.169832-.114767-.198814-.02188-.05246-.05094-.10162-.08637-.146067-.0284-.03188-.144328 0-.201712 0-.05796 0-.08637 0-.144328.02898.05796.05854.115926.263732.144328.263732.0284.05275.0284.07883.08637.104914.144329.0255.259096-.00058.404004.05217zm2.11102 2.172462c.0017-.08556-.02936-.168539-.08695-.231853-.02986-.08526-.04932-.173811-.05796-.263733-.02898-.05796-.144908-.233012-.202871-.319377-.05796-.05796-.05796-.201712-.08637-.288077l-.34662.05738c.17273.230694.317058.463127.404583.696718.0284.08752.289236.954075.289236.954075.08695-.02898-.0284-.460228 0-.48863.02898-.05854.02898-.08695.08695-.116506zm-1.127964-1.016675c0-.259675-.05796-.259675-.17331-.375022 0 0-.08637.17273-.144908.259675.115926.115927.144908.259675.144908.259675.115926-.115926.115926-.08694.17331-.144328zm4.074814 4.093362c0-.02724 0-.08289-.05796-.10955h-.144329c-.05738-.02956-.08637-.02956-.115346 0-.08695.08289-.08695.218521-.144908.300249h.34662c.05796-.05448.115926-.08173.115926-.190699zm-3.727614-3.367083v-.08752s-.05796-.117666-.05796-.146068c-.02898-.05854-.05796-.146067-.144328-.175049 0-.02898-.02898.116507-.05796.175049-.02956.05796-.02956.0284-.08637.146068.05738.08752.08637.146067.144908.233591 0 .02956.08637.144329.08637.144329s.115347-.231853.115347-.290396zm-2.339975-3.081904c-.461967-.228955-.808008-.31474-1.096085-.31474 0-.0284-.05796-.05738 0-.08579.05246-.03269.101068-.07119.144908-.114767.08637-.114188.143749-.228955.172731-.343142.08637-.171571.17273-.114768.230113-.48921-.08579 0-.114767.05796-.201712.08695.0284-.08695.05796-.174469.05796-.261414.02898-.174469.08637-.290976.08637-.493267.08637-.0284.230693-.114767.259675-.230694 0-.0284 0-.114767.0284-.230114 0-.1727305.02898-.3170595-.0284-.4329855 0-.02898-.202292-.317059-.34604-.403424-.202292-.08637-.288657-.05854-.432406-.02898-.17273 0-.404004.17331-.404004.48979-.17273 0-.51935.02956-.721062.202871-.146118-.0704-.301758-.119029-.461967-.144329h-.259095c-.02776-.126318-.09919-.238796-.201712-.317638-.144329-.08637-.317059-.201712-.519351-.201712-.08637 0-.17273-.02898-.259675.0284-.08636.05796-.230694.115926-.259675.230694-.05796.144328-.114767.259675-.114767.404003 0 .1437495.08637.2590965.17331.4028455.0284.05796.05738.05796.114767.08637.02898 0 .144328.05796.17331.08637.0284.02956-.02898.115926-.02898.289236 0 .144908 0 .144908.02898.261994 0 .116506.0284.232433.05796.319378-.08637 0-.144328-.08695-.202292-.0284 0 .05796.05796.201132.115347.315319.143749.14317.288077.286339.374443.45791 0 .02898 0 .08579.02898.08579-.201712.0284-.403424.0284-.605715.08579-.187438.06414-.370422.140629-.547753.228955 0 .114187.02898.199393.02898.199393.02898 0 .288657-.142589.51935-.199393.375022-.114188.576734-.08579.576734-.08579.02898.05738.05796.143169.02898.171571-.349518.14268-.686987.313257-1.00914.510077.0284.0568 0 .148385.05738.210406.312311-.19165.640415-.356283.980737-.492108.115347-.0284.115347 0 .172731 0 .0284.02782.08637.140271.143749.140271.08637 0 .17331-.08463.259675-.112448.17273-.05622.317638-.113608.490369-.143169.05796-.02782.05796-.08521.05796-.14259.02898-.05738.02898-.05738.02898-.143169 0-.0284-.115346-.05738-.17331-.171571-.05796-.08579 0-.171571-.0284-.171571-.08637.05738-.202291.114767-.230693 0-.02898-.08579-.02898-.199973.05796-.228955.286995-.114159.606798-.114159.893793 0 .05796 0 .08637.05738.08637.114767.0284.05738 0 .114188-.05796.171571-.08636.0284-.172731-.08579-.172731 0s-.05738.199973-.201712.257357c-.0284.0284 0 .114187.0284.199973 0 .0284 0 .08579.02956.08579.115347.02782.288077.05738.374442.114767.114767.05622.317059.225477.34604.197654.08637-.0568.115927-.14143.172731-.197654.317638.14085.577314.225477.980158.48863.05796 0 .05796-.122303.05796-.179107-.209359-.116567-.420764-.22942-.634117-.338505-.115927-.0284-.172731-.08579-.289237-.114187v-.228955c.202292.05738.605716.08579 1.009719.31474.02898-.08405.08637-.14143.05796-.169832zm.69208 1.460093c-.115926-.05796-.259675-.115926-.375022-.173889-.104558-.05011-.201537-.114696-.288077-.191859-.05738 0-.08637.02608-.115347.02608-.05796.02608-.08637.05217-.144328.07883.08637.115926.17273.202871.259675.289816.0284.05854.115927.05854.172731.05854h.289236c.08521-.02956.143169-.02956.201132-.08752zm.48979.722222c.05796 0 .05796-.115926 0-.115926-.201712-.05738-.374443-.114768-.48979-.288078-.02898.02898-.201712.08637-.259675.144908 0 0 .05796.143749.201712.288078.08637.08637.259675.02898.404004-.0284zm4.133357 4.097999h-.172731c-.08978.0016-.169589.05757-.201712.141431-.02158.07232-.06152.137819-.115926.190119.02956.02724.08637.02724.115926.02724h.288077c.0284-.02724.0284-.108971.05796-.162877 0-.05448.0284-.10955.0284-.195916zm-2.658194-2.418225c-.0284-.05796-.05738-.143749-.08637-.201712 0-.0284 0-.08637-.02898-.172151 0 0-.202292.143749-.231274.172151.115927.143749.05796.230114.08695.344881 0 .05796.115347.08695.144329.172731 0 .02898-.05796.288656-.05796.288656.17331-.230693.17331-.51877.17331-.604556zm2.139423 1.946405c-.172731-.325174-.476458-.414437-.627162-.414437-.145488 0-.321116.177947-.438782.739031-.02898.205769-.05854.370385-.02898.478776l.263153.02724c.05912-.08173.05912-.217362.117665-.329231 0-.05912.05796-.05912.116506-.05912.04811.02956.144908.170992.193597.225477.02898-.05448.08637-.166354.08637-.254458 0-.02956-.08637-.0881-.110709-.0881-.07245-.06028-.121144-.117666-.228376-.117666-.02898-.118824.131577-.266051.131577-.266051.178527 0 .380239.235331.380239.235331.05796-.02956.08695-.118245.144908-.176788zm-2.716736-1.803236c-.02956-.0284-.05796-.257936-.08637-.431246 0-.05738-.08695-.143749-.144908-.201712-.0284.08637-.115347.144328-.115347.259675 0 0 .144328.143749.17273.230114.02956.05796 0 .3159.02956.373863.08637-.08579.144329-.115347.144329-.230694zm-2.368377-2.255349v-.05854c-.08579-.08637-.201712-.289237-.201712-.3472-.05796-.02898-.05796-.02898-.143749-.02898-.02898-.02898-.08695-.02898-.115927-.02898 0 0 .0284.144908.08637.289816.02898.05796.08637.115347.114767.115347.05854.02956.173889.05854.260255.05854zm.922774.83583c-.05796-.05738-.115347-.115347-.201712-.17273-.115926-.02898-.17331-.08637-.230693-.202292-.02788-.06384-.06672-.122297-.114768-.17273-.05796 0-.08637.0284-.144908.05796-.05738.05738-.17273.05738-.230693.143749.02898.05796.05796.115926.115926.17331.0284.02898.05796.08637.172731.144328.201712.115347.259095.144328.259095.144328.17331.02956.375022-.115926.375022-.115926zm-5.162204-4.745449c0-.05738-.0284-.115346-.05738-.17273-.02898-.05738-.08637-.201712-.08637-.230114 0-.2306945.0284-.2892365.05738-.4903695-.115347-.0284-.259675-.0284-.317059.08637-.05796.08637-.05796.17331-.05796.259676 0 .1443285.0284.2596755.05796.4324055-.115926.08637-.17273.144908-.288657.201712.02898.172731.05796.492688.05796.492688.05796-.08695.05796-.08695.114768-.144908.115926-.08752.17273-.144908.317638-.260835.0284-.05738.05796-.02898.144328-.08637.0284-.02956.05738-.05796.05738-.08752zm3.778042 4.342025c-.07662-.112082-.126037-.240492-.144328-.375022-.05738-.05738.05796-.259675-.08637-.259675-.07541-.03229-.152191-.0613-.230114-.08695-.0284.08695-.0284.260255 0 .3472 0 .08637.143749.34604.201712.375022.02898.0284.17331.0284.202292.0284.0284-.02898.0568-.02898.0568-.02898zm-.720482-1.643257c-.230694-.140851-.519351-.169253-.808587-.169253-.259096 0-.547173.02782-.83525.225477.0284.122303.05738.212725.114767.329231.02898 0 .05796.05912.08637.05912.05796-.05912.114767-.146647.201712-.175629v.117086c0 .0881 0 .143169.02956.221999 0 .08115.08637.08115.201712.08115.115347 0 .144329-.18606.144329-.215622 0 0 .02898.107812.201712.186642 0 0 .201712 0 .201712-.02666.02898-.130997.05796-.15998.02898-.277644 0 0 .172731.117086.259676.224897.05738-.05275.115346-.166354.115346-.195915.05796-.115927.05796-.267211.05796-.384876zm1.498928 2.484303c-.115346-.08752-.143748-.146647-.201712-.20461-.08637-.05854-.144908-.08752-.259675-.20403h-.375022c.05796.144908.08637.233012.288657.379079.115347.0881.34604.05854.547752.02956zm1.35634 2.049s-.05796-.347779-.05796-.779026c0-.0284-.08695-.201712-.144908-.230114-.0284-.02898-.08579-.05796-.143749-.08637v.115347c0 .114767.0284.143749.0284.201712 0 .05796.08637.460808.08637.576154.144908.02898.144908.144908.231853.202292zm-5.854865-6.739963c-.0284-.05796-.259675 0-.317638 0-.143749.02898-.403424.116506-.403424.174469-.02898.08752-.02898.290976-.02898.319957.02898.08579.02898.171572.05796.257357.08637-.08579.114768-.114187.172731-.143169.0284-.0284.34604-.259675.374442-.289237.05796-.05796.08637-.02898.115927-.08694.000579-.17389.05738-.17389.02898-.232433zm3.085962 4.080611s-.05796-.259676-.08637-.375022v-.461388c-.115927.02898-.144329.05796-.17331.05796-.08637.05796-.144329.08637-.144329.144328 0 .115347.0284.230694.0284.288077 0 .08637 0 .144329.02898.17331.08637.02956.115347.02956.230693.08637.00058.02898.115927.08637.115927.08637zm-.605716-.34662c.02898-.08637 0-.230114-.02898-.374443-.115347.02898-.346041.05854-.346041.144908-.0284.08637 0 .172731 0 .230114.02898.05796.02898.115927.02898.202871 0 .05738-.02898.114768 0 .201712.02898-.05796.17331-.115346.201712-.17331.05796-.08752.114767-.144908.144329-.231852zm1.095505 1.220125c-.08637-.05854-.230114-.234171-.317059-.321696-.05796-.05912-.0284-.146067-.08637-.205189-.05796 0-.115926 0-.17273.02898-.08637 0-.144329 0-.230694.02956.0284.05796.0284.116506.08637.146067.115347.116506.115347.145488.230694.321696.0284.05738.17273.08579.288077.08579.05796.00058.17273-.05622.201712-.08521zm-3.633714-4.288119c-.288077.08579-.489789.143169-.547752.200552-.144329.08521-.201712.143169-.346041.228955 0 .171571 0 .171571.0284.257357l.02956.343142c.05738-.08579.230114-.257357.31648-.372124.05796-.05738.17273-.200553.461966-.343142.0284-.114188.05738-.199973.05738-.31474zm1.932494 3.472577c.08637-.08637 0-.230694 0-.317639-.02956-.08637 0-.172731-.02956-.259676-.02747-.0539-.08326-.08742-.143748-.08637-.05796 0-.202292-.08637-.202292-.02898-.143749 0-.02898.144908-.02898.230694 0 .115347.288078.403424.288078.403424.05854.02956.05854.00058.116506.05854zm-.663679-.83699s-.0284-.144908-.05796-.202871c-.02935-.0711-.07944-.131694-.143749-.17389-.02898 0-.08637-.05796-.115927-.02898 0 0-.02898.231853-.05738.260835.05738.08695.114767.144908.143749.231273.02898.08637.05796.202292.115926.288657.02898-.115347.115347-.17273.115347-.375022zm-.576734.17331s-.08636-.259675-.115347-.404583c-.0284-.08695.0284-.202872-.0284-.281701-.02898-.05275-.115926-.07883-.17273-.107811-.05854 0-.115927.107811-.115927.215622 0 .05854.02956.260835.05796.348359 0 .02898.05854.05796.115347.08695.08637.0568.172731.08579.259096.143169zm2.480246 2.370696c-.0284-.114768-.05796-.257937-.08637-.373863 0 0-.08637-.05738-.172731-.05738-.05854 0-.115347-.0284-.17331 0 .0284.08637.0284.143749.05796.229535.08637.115346.201712.17273.317059.259095.02898.00058.05738-.05738.05738-.05738zm-3.575751-3.369981c-.02898-.212726-.08637-.381399-.08637-.438203 0-.227795.02898-.28402.05738-.427189-.115346.05738-.259675.143169-.374442.199394v.143169c0 .0568.0284.371544.0284.464285.02956.08752.02956.17563.05796.263734.0284.05506.05796.107811.05796.159977 0 0 .05738-.02608.08637-.07825.08637-.08231.114767-.169832.17273-.286918zm2.768323 2.039726s-.17331.0284-.202291.05796c-.0284 0-.143749 0-.201712.05912 0 .08752 0 .175049-.0284.292135-.05796.08637-.202872.144328-.202872.288077 0 0 .115927.0284.144908.0284.05796-.0284.115347-.08579.144329-.115347.08637-.0284.143749-.08637.230114-.115346.05854-.02724.115926-.495006.115926-.495006zm3.027999 3.403599c-.08637.02956-.259096-.05912-.259096.115347-.05796.10955-.115347.218521-.115347.273006h.316479c.08695-.10897.115347-.217941.05796-.388353zm.317059-.768012c-.05738-.264893-.201712-.381399-.345461-.468923-.05796-.02956-.605716-.289816-.692081-.289816-.17273.02956-.461967.02956-.634697.116506-.0284-.08695-.05796-.230694 0-.318218.0284-.0568.317638-.0568.404003-.0568.317639.0284.48979.08579.577314.08579.08579.08695.172151.08695.201712.08695 0 0-.02898-.17331-.05796-.230694-.115347-.05796-.231273-.08695-.317639-.115347-.143748-.05796-.201712-.08637-.431826-.115347-.08694 0-.08694.02898-.259675.02898 0-.02898.0284-.05738.05738-.08637.05796-.08579.115347-.143749.17331-.199973h.460807c.115927.02782.17389.0568.317639.114188.08637 0 0-.143749 0-.230115-.03289-.03539-.07198-.06447-.115347-.08579-.115926-.02898-.202292-.05796-.317638-.115926-.08637-.0284-.259676-.08579-.404004-.05738-.143749.05738-.143749.0284-.259675.08637-.143749.201712-.230114.431247-.316479.661361 0 .05796-.144909.402844-.144909.460807 0 .02956-.0284.08695-.0284.08695-.115926-.02956-.635276-.116506-.779025.0284-.05796.05796-.115927.115347-.202292.289816-.115347-.08695-.201712-.116506-.317059-.116506-.164938.006-.316215.09325-.404003.233012 0 .02956-.230694.47298-.201712.885099.02898.231853.115347.31474.230114.477617h.317638c-.02898-.108971-.08637-.245764-.144908-.417915-.0284-.148386.02956-.413278.05796-.649768 0 0 .08637-.05912.17331-.0881.05796-.05912.08637-.02956.172731-.02956.0284 0 .0284.02956.0284.02956-.115347.117665-.115347.235331-.143749.413278 0 .0881.115347.525146.230114.742509h.230694s-.05796-.566301-.02898-.623685c0-.118824.02898-.206928.05738-.296771.05854.03072.115926.03072.173889.06028.08579.05912.08579.117666.08579.20577 0 .148386 0 .176788-.02898.266051v.14259c0 .136793.02898.245764.02898.245764h.230693c0-.245764.02898-.217363.05796-.358793.0284-.118824 0-.177947.0284-.264892 0-.06028.0284-.118824.05796-.148386.08637-.05912.143749-.05912.259675-.02956 0 .0881 0 .177947-.02898.264892-.02898.148386-.05738.290976-.115346.427769 0 .02724-.0284.08173-.05796.108971h.34662s.05738-.108971.08579-.245764c.08637.08289.202292.0284.259675.0284.08637-.0284.144329-.111869.202292-.170991-.115927-.08926-.375022-.05912-.375022-.177947-.05738-.20577 0-.235331 0-.354155 0-.176788-.172151-.235331-.346041-.264892-.05738-.02956-.17331-.02956-.230114-.02956-.05796.02956-.115926.117665-.17331.117665 0 0-.115926-.0881-.202291-.117665-.05738 0-.230114-.06028-.230114-.06028.02898-.05912.05738-.117666.08636-.146068.0284-.02956.114767-.116506.143749-.116506.05796-.02956.144328 0 .202291.02956.143749.0284.259676.05796.288078.05796.02898 0 .115346.05796.115346.05796.08637-.05796.08637-.115347.144329-.115347.17273-.05912.230693-.0881.404003-.0881.144329 0 .259676.262574.346041.350678.0284.06028.230114.325174.34604.561663.05796-.02956.08637-.0881.143749-.0881 0-.05912-.0284-.295612-.05738-.325174-.08637-.266051-.259675-.324014-.259675-.382557.05738 0 .17331.05912.231273.05912.05738.0284.143749.05796.230114.117665.02956.0284.08637.05796.115927.0881.0284.117665.0284.20577.08521.325174 0 .02956 0 .05912.02956.0881.08868-.176788.175049-.206349.232433-.353576zm-4.008157-2.752093c0-.02956-.08637-.02956-.144328-.02956-.05738 0-.115347.02956-.17331.02956-.0555.08975-.09456.188676-.115347.292134-.0284.08752-.08637.146068-.114767.20519 0 0 .259675-.05854.316479-.05854.08637-.05854.144328-.08752.202291-.20461.02898-.08868.05738-.117665.02898-.234171zm-1.817147-1.474006c-.05796-.136793-.08637-.162876-.17273-.244605-.02898.02898-.17331.107812-.202292.159979-.05221.02055-.1009.0491-.144328.08463 0 .05796.0284.08695.05796.144909 0 .05796.0284.202871.0284.318218 0 0 .08637-.05738.08637-.115347.144908-.17389.318218-.318218.34662-.34778zm2.567191 3.209423c-.02956-.0284-.02956-.08694-.05796-.144908-.05796-.17215-.0284-.258516-.05796-.431246h-.230114c-.05796.02956-.08637 0-.144329.02956 0 .114188.0284.199973.114767.344881.08637.17389.375602.201712.375602.201712zm-1.442125-1.647893v-.204031c-.0284-.05796 0-.17273 0-.259675-.0284-.05796-.08637-.02898-.114767 0h-.17331s-.05796.230114-.05796.404584c-.02898.08752-.05796.145487-.05796.175049-.05738.117085-.08637.146067-.143749.292714.08636.02956.17273-.02898.230114-.02898.05796-.02956.144328-.05854.17273-.0881.02956-.0284.116506-.233592.144908-.291555zm-.923354-.925094c-.05738-.05738-.08637-.143749-.115347-.201712-.114767 0-.547752.17331-.547752.17331.08637.144329.143749.288078.201712.461388.05796-.02898.114767-.05738.17273-.115347.05854-.08695.231853-.259676.288657-.317639zm.115927.461968c-.05796-.02898-.172731.0284-.259676.0284-.08637 0-.289236 0-.289236.02898.02956.05796.02956.115346.05854.17273.0284.05796.05796.115926.05796.261994 0 .08752.0284.175049 0 .292134 0 0 .374442-.205189.374442-.263732.02898-.08695 0-.145488.02898-.233012 0-.05738 0-.201133.02898-.287498zm1.009139 1.62123c-.316479-.114767-.288657-.229534-.403424-.287497-.144328-.115347-.375022-.230114-.721642-.345461-.08637-.0284-.288077 0-.374442 0-.231273.403424-.317639.776707-.490949 1.209113l-.08637.259095c-.143749-.08695-.288077-.143749-.432405-.143749-.230114 0-.402845.08579-.48979.317059-.08637-.0284-.202291-.08579-.34604-.05796-.202292.02956-.375022.144908-.461967.319377-.08637.117666-.115347.23649-.08637.354156-.143749.05912-.230114.206928-.288657.325173-.05796.235331.144908.631799.230694.712948h.288077c-.05796-.245764-.172731-.358793-.08637-.623684.05796-.148386.259095-.206929.317638-.23649 0-.118825-.144908-.206929-.115926-.325174.05796-.148386.230693-.148386.404003-.117665-.0284.176788-.05796.413276-.08636.648608-.0284.266051.114767.654404.114767.654404h.317639c-.02898-.08173-.05796-.162876-.05796-.245763-.02898-.08405-.02898-.14259-.02898-.231853.02898-.117666.02898-.235332.02898-.324015.288657-.148386.202292.05912.259096.117665 0 0 .115927-.266051-.0284-.383717-.02898-.02956-.202292 0-.202292-.02956s.02898-.117665.05738-.205769c.05796-.117666.08637-.147227.144908-.234172.0284-.02956.114767-.02956.230694 0 .0284 0 .17273.02956.259675.05796-.02956.08694-.144328.264891-.17273.352996-.115927.354155-.115927.767432-.08637 1.126225h.31648c0-.19012-.0284-.417915 0-.623684.05796-.266052.144908-.296772.17331-.296772.05796 0 .115926.06028.144328.118825.05796.295612-.115347.555867-.115347.801631h.230114s.08637-.02724.115927-.108971c.05738-.164036.17331-.338505.201712-.515293.02898-.148386-.0284-.266051-.114768-.443997-.08637-.117666-.17331-.20693-.375022-.352997-.05738-.116506 0-.261414 0-.261414 0 .0284.115347-.02956.172731-.02956.230693.05796.289236.05796.404003.115347.08637.02956.201712.0881.288078.146067.08637.05796.17331.235331.259675.44168 0 0 .05796-.383716.05796-.499063-.115347-.116506-.230694-.231853-.404004-.319377-.143748-.115347-.460807-.201712-.605715-.259096 0 0 .05796-.08579.05796-.143749.17273-.02956.374442-.02956.460808 0 .289236.08579.634697.259096.778446.374443 0 0 .05796-.115347.05796-.17331 0 0-.403424-.259096-.374443-.345461-.115926-.08695-.202291-.17331-.317638-.202292-.17273-.02898-.518771-.05796-.518771-.05796s.08637-.114188.172731-.201132h.230693c.115347 0 .403424.08637.576734.17273.259675.115347.404004.201132.432406.259096.03014-.08463.05854-.200553.08752-.257937zm-.692081 2.362581c-.02898-.05912-.115346-.205769-.230114-.266051-.202291 0-.144908.320536-.202291.45733-.0284.02724-.05738.08173-.0284.10897h.432405c-.000579-.000579.0284-.245764.0284-.300249zm10.426424-8.209909-.350098-.259675-.116506-.144908.318798-.08637zm-1.246789-.519352h-.143749l-.17273.115347-.230694-.17273.259096-.144329zm-5.748212-.08637c-.03041.0855-.11097.142913-.201712.143749-.144908-.17273-.289237-.288077-.490369-.3460395-.0284-.114768.05796-.230114.115347-.31648.08637-.08637.202291-.115926.317059-.08637.144328.0284.17331.05738.230693.115347.08695.114188.05796.3454605.02898.4897885zm-.893213.316479c-.05796.05796-.202872.02956-.34662.02956 0-.05796 0-.17331-.05796-.17331-.05796-.05796-.144328-.05796-.144328-.115927-.115347-.115347.17273-.0284.317638 0 .05796.00058.547753.115927.231274.259675zm.547172.317639s-.0284.05854-.05796.05854c-.02898.05854-.08637.08752-.143749.115926-.02898 0-.05796.05854-.05796.08695-.05738.08695-.144328.116506-.259675.116506-.05738 0-.17273 0-.230694-.116506 0 0 .02956.349518.02956.435883 0 .0284.02898.0284.02898.0284.115347.02898.144329.143169.201712.200553 0 0 .02898.0284.05796.0284.115927.08579.374443.200553.259676.200553 0 .05738-.08637.199973-.115347.199973-.08637-.08579-.230694-.14317-.346041-.199973-.02956-.05738-.05796-.114188-.08637-.171571-.05796-.05738-.08637-.05738-.17331-.114768 0-.200552-.02898-.200552-.02898-.404004 0-.02898-.05738-.348939-.05738-.348939 0-.02956.08637-.116506.17273-.144908-.000579.00058.547173.00058.806848.02898zm-1.556892-.576734c0 .115926-.08637.17273-.17273.289236-.05796.08637-.08637.0284-.230694.0284h-.143748c0-.08637.05738-.114767.143748-.201712.08637-.05796.172731-.115926.230694-.115926.05738-.02898.17273-.05738.17273 0zm-.750044-.3170535c0 .0284 0 .05738-.0284.05738 0 0-.17273.1159255-.230693.1733095-.143749.08637-.17331.230693-.259675.230693-.05738-.05796-.172731-.144328-.230114-.259675-.08637-.1147665-.05796-.2306935-.05796-.2590955.05796-.17331.259676-.231273.374443-.259675.05796 0 .115926 0 .202291.05796.114768.0568.172731.0568.230114.259096zm1.960896 2.5642925c0 .0284-.0284.171571-.0284.171571-.115926-.02898-.201712-.114188-.34604-.114188 0-.08579 0-.08579.02898-.114767.172731-.0284.259096.0284.345461.05738zm-1.384162-1.553994c0 .02898-.0284.203451-.0284.231853-.02956.175049-.02956.233012-.05796.492108v.08579c-.02898.05738-.144908.08579-.202291.143169-.02898.08579-.02898.143169-.115347.171571-.08637.0284-.143749.114188-.201712.08579-.08637-.05738-.05796-.200553 0-.285759.05796-.08579.17273-.143169.259675-.171571.115347-.0284.08637-.257936.08637-.287497.0284-.05796 0-.144908 0-.203451-.05796.02898-.05796 0-.17331.02898-.114767 0-.17273-.05854-.230693-.116506-.05738-.05796-.201712-.174469-.259676-.290975.144329-.0284.259676-.0284.404004-.0284h.374442c.08695.0284.144908.08695.144908.144908zm-.230693 1.553994c-.0452.03275-.09332.06128-.143749.08521-.05796.02898-.08637.05738-.17273.08579-.02956-.05738-.05796-.171571-.05796-.171571s.115347-.02898.201712-.02898c.05738.00058.115347.00058.172731.02956z" fill="#fff" fill-rule="evenodd" stroke-width=".579632"/></svg>