<?xml version="1.0" encoding="UTF-8" standalone="no"?>
<svg
   height="360"
   viewBox="35.433 35.357 272.12595 128.50621"
   width="640"
   version="1.1"
   id="svg1258"
   sodipodi:docname="ing-groep-logo.svg"
   inkscape:version="1.1.2 (b8e25be8, 2022-02-05)"
   xmlns:inkscape="http://www.inkscape.org/namespaces/inkscape"
   xmlns:sodipodi="http://sodipodi.sourceforge.net/DTD/sodipodi-0.dtd"
   xmlns="http://www.w3.org/2000/svg"
   xmlns:svg="http://www.w3.org/2000/svg">
  <defs
     id="defs1262" />
  <sodipodi:namedview
     id="namedview1260"
     pagecolor="#ffffff"
     bordercolor="#666666"
     borderopacity="1.0"
     inkscape:pageshadow="2"
     inkscape:pageopacity="0.0"
     inkscape:pagecheckerboard="0"
     showgrid="false"
     inkscape:zoom="0.4916"
     inkscape:cx="1331.367"
     inkscape:cy="304.10903"
     inkscape:window-width="2386"
     inkscape:window-height="1155"
     inkscape:window-x="2565"
     inkscape:window-y="443"
     inkscape:window-maximized="0"
     inkscape:current-layer="svg1258" />
  <g
     id="g1324"
     transform="translate(27.212595,37.532951)">
    <path
       d="M 158.55302,73.806766 V 84.38571 c -5.87448,2.941747 -11.45999,4.411597 -17.04181,4.411597 -15.42492,0 -24.6825,-9.110528 -24.6825,-20.574208 0,-12.348416 10.57874,-22.632653 24.0937,-22.632653 3.37797,0 5.87632,0.585114 8.52173,1.471693 1.9116,0.585114 3.08551,1.32096 4.25922,1.32096 1.03014,0 1.32465,-1.764352 1.4719,-2.792653 h 1.46985 l 1.32301,14.25449 h -1.76456 c -0.73769,-2.791015 -2.05496,-5.143962 -3.823,-6.759424 -2.78917,-2.79081 -6.61033,-4.262707 -11.0166,-4.262707 -9.25594,0 -14.69236,7.349862 -14.69236,18.371993 0,10.873037 6.61197,18.371789 15.42636,18.371789 2.64745,0 4.99507,-0.588595 7.93498,-1.911399 V 72.776622 c 0,-3.528704 -0.5886,-4.849664 -5.58367,-4.849664 v -1.613414 h 18.65912 v 1.613414 c -4.69893,0 -4.55537,1.468416 -4.55537,5.879808 m -51.27475,-17.34144 v 31.597978 h -2.49651 L 73.189109,55.434977 c 0.147046,0.881255 0.147046,1.618944 0.147046,2.49856 V 77.77538 c 0,6.168576 0,8.37632 5.585715,8.37632 v 1.61362 H 64.083905 V 86.1517 c 5.580186,0 5.580186,-2.643763 5.580186,-8.37632 V 55.144366 c 0,-3.381657 0,-7.055564 -5.874483,-7.055564 v -1.615463 h 13.958348 l 26.005304,26.742989 c -0.14889,-0.730317 -0.14889,-1.173709 -0.14889,-2.200371 V 56.465326 c 0,-5.879808 0.14889,-8.376524 -5.436625,-8.376524 v -1.615463 h 14.841445 v 1.615463 c -5.43662,0 -5.73092,2.351103 -5.73092,8.376319 M 35.433,87.76532 V 86.1517 c 3.528704,0 6.023373,-0.294297 6.023373,-5.438259 v -27.18638 c 0,-5.292851 -1.909555,-5.438259 -6.023373,-5.438259 v -1.615463 h 20.865024 v 1.615463 c -4.261069,0 -6.025216,0.145408 -6.025216,5.438259 v 27.18638 c 0,5.143962 2.203853,5.438259 6.025216,5.438259 v 1.61362 z"
       fill="#003671"
       id="path1252"
       style="stroke-width:0.2048" />
    <path
       d="m 173.66317,87.921377 h 59.56669 l 2.65544,-4.498227 1.64004,-9.013248 -3.14102,-9.768141 -4.15949,-6.009651 -2.11968,-0.684032 -1.7111,0.750592 -0.68096,2.732442 -8.20224,1.2288 -4.29834,-3.209216 -3.82813,-9.56416 -2.31936,-6.626918 -0.48128,-2.729575 -1.0924,-1.299661 -5.94473,-0.956211 -3.61759,1.774797 -4.37248,-1.774797 -3.82505,-0.136192 -1.43155,2.392064 -0.88944,1.706803 -1.23024,3.074458 -1.02277,4.439245 0.75059,7.103692 0.41288,5.260903 -0.27689,3.071385 1.29843,5.055079 -1.36642,4.097229 -2.11682,5.398527 -1.36765,0.684032 -1.98042,-0.889856 -2.11681,1.162036 -2.25444,0.888217 -1.36642,2.048615 0.20439,3.141017 z m 61.9223,-40.422195 -1.63082,-1.437491 -4.20618,-0.924467 -0.19374,-1.540096 2.87621,-0.821658 1.80961,1.435853 1.62959,0.308634 0.85934,0.101376 2.68268,3.389235 z"
       fill="#ffffff"
       id="path1254"
       style="stroke-width:0.2048" />
    <path
       d="m 200.58618,55.480443 v -0.823296 h -1.50856 l -0.13455,0.272384 z m -7.66649,-0.823296 c -0.41001,-0.409805 -0.95477,0 -1.64024,-0.137626 0,0.137831 -0.13619,0.549274 0.27238,0.820224 0.54928,-0.410009 1.22717,-0.682393 1.36786,-0.682393 m 9.44272,-7.80288 c 0,0 0.27238,0 0,-0.137626 l -3.1486,-0.273817 c -0.41001,0.273817 -0.95764,0.273817 -1.09384,0.686899 l -0.27381,0.136192 c 0.27381,1.096909 0.27381,2.327142 0.27381,3.557171 0.54764,0.137626 1.23003,0.549274 1.23003,1.370726 0.54928,0.274023 1.23618,0.408576 1.64311,0.820224 0.27382,-0.136192 0.54784,-0.546201 0.68404,-0.956416 -0.68404,-0.68526 -1.91693,-0.273817 -1.91693,-1.50528 l -0.81715,-0.410214 c 0,-0.825958 0,-1.644544 -0.27546,-2.192384 l 0.27546,-0.273817 c 0,0.273817 0.13455,0.410009 0.40693,0.686899 0.54928,0 1.23618,0.134758 1.64311,-0.27689 0.27382,-0.136192 0.27382,-0.820019 0.68404,-0.820019 0.13762,0 0.54763,0 0.68526,-0.411648 m -8.34745,0.275456 c 0,-0.275251 -0.27381,-0.549274 -0.68526,-0.686899 h -3.42098 c 0,0.411648 0.41165,0.823296 0.82146,0.823296 0,0.409805 0.41308,0.683622 0.68546,0.819814 0.27239,0.27689 0.54928,0.27689 0.95785,0 0.40551,0.27689 0.5462,-0.410009 0.68383,0 0,0.821658 0,1.230234 -0.13763,1.916928 -0.14069,0.95785 -1.09404,0.820224 -1.64024,1.369498 -0.13619,0.270745 -0.54927,1.095475 -0.13619,1.50528 0.40857,-0.275252 0.82166,-0.409805 1.36642,-0.683828 0,-0.410009 0.54764,-0.821452 1.09241,-1.232896 0,-1.231667 0.41287,-2.463334 0.41287,-3.831193 m 1.23167,-3.284787 c -0.40858,-0.27689 -1.23167,0.134758 -1.64454,0.410009 -0.54477,0.136192 -1.09241,0.544768 -1.09241,0.95785 h 1.64148 c 0.27238,-0.413082 0.68689,-0.95785 1.09568,-1.367859 m 4.78863,1.367859 c 0,-0.413082 -0.13619,-0.413082 -0.27546,-0.546202 -0.68239,0 -0.68239,-1.098547 -1.22859,-0.821657 -0.41165,0 -0.68526,-0.27689 -0.95621,0 -0.13927,0.134758 0,0.134758 0.13619,0.134758 0.82002,0 0.40857,1.095475 0.95641,1.232896 z m 4.78863,-0.821658 c 0.27689,-0.823091 0.41472,-2.05312 -0.13619,-2.873344 -0.41001,-0.409804 -1.09527,-0.821452 -1.7793,-1.232896 l -1.09384,0.411444 c -0.54784,0.411648 -0.82166,0.821657 -0.82166,1.641676 0.95929,0.411648 2.05476,1.506919 2.46334,2.461696 h 0.41001 c 0.41165,-0.408576 0.82145,0 0.95764,-0.408576 m -12.72299,-2.05312 c -0.13619,-1.369292 -1.78094,-1.641676 -2.59932,-2.05312 h -0.41165 c -1.23167,0.273818 -1.50692,1.503847 -1.64311,2.464564 0.41165,1.230233 1.23146,0.408576 1.91385,1.230233 0.54784,-0.411648 2.05476,-1.367859 2.74023,-1.641677 m -16.83129,41.885286 c -0.13762,0 -0.54906,-0.411648 -0.95621,-0.411648 -0.41451,0.820224 0,1.507124 0,2.461696 0,0.27689 -0.13762,0.827802 -0.13762,0.827802 -0.27689,0 -0.8233,-0.690176 -1.09548,-1.098547 v -2.325504 l 1.36622,-1.644544 c 0.8233,0.545997 1.09568,1.369088 0.8233,2.190745 m 3.83078,-1.644544 c 0,0.682189 -0.13619,1.232896 -0.54763,1.644544 -0.13619,-0.546201 -0.5462,-1.2331 -1.23167,-1.2331 -0.5462,1.092403 -0.68526,1.502412 -0.13762,3.283148 -0.40858,0.27689 -0.82166,0.416154 -1.23311,0.827802 -0.27095,-0.690176 -0.40857,-1.647821 -0.40857,-2.194022 0,-0.957645 0.27095,-1.916928 0.54477,-2.738586 0.27525,-0.54313 0.68833,-1.230029 1.09691,-1.644544 l 1.50691,-0.13312 c -0.54763,0.13312 -0.54763,0.822886 -0.54763,1.234534 0.27382,0.13312 0.95764,0.267879 0.95764,0.95314 m 4.92503,0.823296 c 0,1.230028 -1.7793,2.8715 -1.7793,2.8715 0,-0.820019 0.27525,-1.641472 0.41165,-2.461696 0,0 -0.54784,-0.550707 -1.23167,-0.550707 -0.41021,0.140698 -0.41021,0.550912 -0.5464,0.962355 -0.41145,0.821658 -1.2329,1.637172 -1.50385,2.466202 -0.13476,0 -0.13476,-0.139264 -0.13476,-0.139264 0,-1.231462 0.13476,-3.835494 1.09097,-4.791706 0.8233,-0.820019 1.23003,-0.820019 2.05169,-0.959283 l 0.82309,0.139264 -0.54928,0.820019 c 0.54928,0.273818 1.36786,0.82002 1.36786,1.643111 m 23.12663,0.410009 -0.40857,0.411648 c -0.41145,-0.411648 -0.1407,-1.644544 -0.82289,-1.782374 -0.68239,0 -1.2333,-0.682394 -1.50548,-0.815514 l 0.40837,-0.276889 c 0,0 0.41472,-0.134759 0.68546,0 0.27546,0.276889 0.54764,0.410009 0.54764,0.820019 0.27545,0.272384 0.6869,0 0.95785,0.272384 0.13762,0.411648 0.27382,0.960717 0.13762,1.370726 m 4.9279,-2.05312 c -0.13926,0.41001 -0.27525,1.093837 -0.41288,1.643111 -0.40857,-0.823091 -0.68403,-2.05312 -1.64167,-2.05312 -0.13619,-0.549274 -0.27239,-0.95785 -0.82166,-1.234739 l -1.23003,-0.135988 c 0.13619,0.412877 0.95765,0.546202 0.54928,1.370727 0.40837,0.410009 0.95457,0.410009 1.23002,1.092403 0.27239,0.411648 0,0.960717 0.1362,1.370726 l -0.95785,0.411648 c 0,-0.821657 0.27238,-2.054758 -0.82146,-2.464768 -0.82165,0.273818 -0.95785,-0.820019 -1.50712,-1.234534 -0.27075,-0.13312 -0.27075,-0.820224 -0.68219,-0.410214 -0.68239,0.410214 -1.64331,0 -2.32857,0.410214 l 0.68526,-1.230234 c 0.5462,-0.410009 1.23166,-0.137625 1.7793,-0.410009 l 1.09568,-0.137626 c 1.23289,0 2.18931,0.547635 3.28622,0.957645 0.54477,0.41001 0.82002,0.820224 0.82002,1.50999 0.40857,0.134759 0.95928,0.134759 0.82145,0.544768 m 22.16141,-0.13312 c -0.27382,0.406938 -0.39936,0.54313 -0.54149,0.815514 0,-0.682394 -0.8233,-1.092403 -1.36479,-2.327142 l 0.5417,-0.957645 c 0.55214,0.137625 0.96522,0.547635 0.96522,1.234534 0,0.13312 -0.14213,0.54784 0,0.823296 0,0.134554 0.39936,0.134554 0.39936,0.411443 m -46.24732,0.406938 -0.41165,1.369293 -0.95601,-2.46313 c -1.23166,-1.234739 -2.46169,-1.370931 -3.28499,-1.782374 -0.41001,-0.272384 -0.41001,0.137625 -0.82002,0 0,-0.41001 0.13619,-0.820019 0.54784,-1.230029 h 0.82002 l 0.82002,0.41001 c 0.54784,0.410009 1.50549,0.410009 1.50549,1.231462 0,0.275456 -0.13456,0.410214 0.13926,0.823296 l 1.50385,0.547635 z m 41.87341,-1.508352 c 0,0.139264 -0.27239,0.414515 -0.27239,0.414515 -0.68096,-0.414515 -1.2288,-0.684032 -2.05332,-0.684032 0,-0.411443 -0.27239,-1.098342 -0.5462,-1.098342 -0.95785,0 -0.8231,0.411648 -1.50406,0.411648 l 1.23331,-1.231667 c 0.13148,-0.272384 0.27075,-0.272384 0.54477,-0.272384 0.40837,0.272384 0.54456,0.410009 0.95764,0.410009 0,0.272384 0,0.41001 -0.13312,0.820019 0.27239,0.273818 0.68076,0 0.95314,0.273818 0.41165,0.136192 0.82002,0.410214 0.82002,0.956416 m -16.14705,0.824525 h -0.13475 c -0.27525,-0.41001 -0.40837,-0.824525 -0.68526,-0.824525 0.41001,-1.640243 -0.41001,-2.873344 -0.6824,-4.242637 l -0.13783,-0.406937 c 0.54334,0.682393 1.64024,1.366016 1.50549,2.189312 0.13475,1.230028 0.27402,2.326937 0.13475,3.284787 m -23.53684,-1.370727 -0.95764,0.960512 c -0.27096,-0.41431 0,-1.234534 -0.54784,-1.644544 0,-0.137625 0.41164,-0.410009 0.27688,-0.547635 -0.27688,-0.272384 -1.91692,-0.820019 -1.91692,-0.820019 -0.68404,-0.411648 -1.2331,-0.823296 -1.78074,-1.505485 -0.68239,-0.139264 -1.0924,0.275251 -1.77951,0.41001 -0.13598,-0.134759 -0.13598,-0.41001 -0.13598,-0.41001 0.41287,-0.413081 0.41287,-1.230233 1.23289,-1.230233 0.41022,0 0.95785,0 1.36643,0.407142 0.54927,0 0.82452,0.550707 1.23003,0.683827 0.6869,0.821658 1.23474,0.959283 1.7838,1.369293 -0.14069,0.413082 0.13476,0.685466 0.40551,0.823091 0.82329,0 0.54784,0.820019 0.82329,1.504051 m 45.02324,-2.189312 c 0,0.822887 0,1.095271 -0.41001,1.779098 l -0.95478,-1.231462 c 0.39936,-0.41001 0.39936,-1.09568 0.81715,-1.640244 0.13763,0 0.54764,0.954778 0.54764,1.092404 m -24.3583,0.957849 c -0.68403,-0.410009 -1.50712,-0.410009 -1.91693,-1.095475 -0.40857,-0.136192 -0.95785,-0.136192 -1.64331,-0.136192 -0.54477,0.136192 -1.23167,0.136192 -1.77931,0.136192 -0.13619,0 0,-0.136192 -0.27074,-0.41001 -0.8233,0.41001 -1.78238,0.41001 -2.60403,1.233101 l 0.68546,-1.64311 c 0.5462,0 0.95765,-0.41001 1.36766,-0.41001 0.41308,-0.139264 0.95928,-0.139264 1.36929,-0.139264 v 0.139264 c 1.64475,0 3.42098,-0.139264 4.65408,1.230029 z m 20.52874,-1.231667 c 0,0.549274 -0.13619,0.682394 -0.27238,1.369293 -1.09978,-0.137626 -0.95765,-1.232896 -1.23761,-1.369293 -0.54763,-0.818586 -1.64004,-0.273818 -2.4617,-0.273818 -0.13619,-0.820019 0.27239,-0.820019 0.27239,-1.2331 0.41615,0 0.82452,-0.41001 1.23617,-0.13312 0.68076,-0.27689 1.09077,0.406937 1.77767,0.406937 0.27238,0.414515 0.54927,0.959283 0.68546,1.233101 M 190.8678,75.462984 c 0,0.411648 -0.13783,2.187878 -0.13783,2.187878 -0.27382,-1.093837 -0.95764,-2.05312 -1.7748,-2.05312 -0.54906,-0.407142 -0.96051,-0.820224 -1.0969,-1.230233 -0.41165,-0.41001 -0.82002,-0.137626 -1.36766,-0.41001 -0.54927,0 -1.2331,0 -1.91549,0.272384 v -0.272384 l 0.95764,-1.234534 c 1.09404,0.273817 2.32551,0 2.73715,0.821452 0.54477,0.413082 1.23167,0.685466 1.50242,1.092404 v 0.41472 c 0.27545,0.139264 0.82309,0.275251 1.09547,0.411648 m 6.02174,-0.272384 c -0.54907,0.406937 -1.09691,0.406937 -1.64311,0.272384 l -0.8231,-1.233306 c 0.54621,0.137626 1.3693,0.137626 2.0562,0 z m 23.95299,0.683827 c 0,0.682393 -0.96399,1.640038 -1.23166,2.189312 0.26767,-0.823296 0.40694,-2.189312 0,-2.189312 -0.27689,-0.139264 -0.82924,0.13312 -0.82924,-0.27689 0,-0.407142 0.13927,-0.960921 0.13927,-1.367859 0,-0.408576 -0.41001,-0.685466 -0.41001,-1.092403 0,-0.824525 0.95764,-0.960717 1.2331,-1.508557 0.27382,0.54784 0.13455,1.231667 0.13455,1.779302 0.13927,0.413082 0.41022,1.2288 0.13927,1.918567 0,0.408576 0.82472,0.136192 0.82472,0.54784 m -10.40384,0 c -0.68526,0 -1.23453,0 -1.64311,-0.684032 -0.13926,0 -0.41001,-0.413082 -0.68526,-0.139264 -0.5462,0.546406 -1.36642,-0.414515 -2.18931,-0.273818 -0.41165,0.413082 -0.96092,0.685466 -1.50548,0.820224 l -0.13783,-0.134758 c 0,-0.411648 0.41001,-0.826163 0.82329,-1.232896 0.95601,0.406733 1.64291,-1.507328 2.60076,-0.408781 0.27238,0.136192 0.82166,0.136192 1.09383,0.136192 0.95785,0.272384 1.23024,1.233101 1.64332,1.916928 m -9.71837,-0.822886 h -0.13456 c -0.27689,0 -1.23617,-0.41472 -1.50856,-0.821658 -0.13455,-0.272384 -0.13455,-0.685466 -0.13455,-0.685466 0.40694,0 0.68383,-0.136192 1.0924,-0.136192 z m 31.0657,0.823091 c -0.95929,0 -0.40858,-1.916928 -2.4662,-1.916928 -0.54477,0 -0.81716,0.679117 -1.36479,0.819814 0,-0.140697 0.13926,-0.956211 0.13926,-0.956211 0,-0.413082 0.13312,-0.824525 0.68076,-1.232896 1.0924,0 0.82002,0.408371 1.64167,0.682189 0.54764,0.137625 0.82453,0.550912 1.3693,0.550912 z m -14.37082,-1.507123 c 0,0.823296 -0.40857,1.640243 -0.54927,2.463334 0,-0.956416 -0.26931,-1.640243 -0.81859,-2.194022 0,-0.269312 0.41022,-0.406938 0.13783,-0.679322 0,0 -0.82165,-0.413082 -0.82165,-0.960717 0,-0.684032 0.54784,-1.096909 0.82165,-1.508557 0,-0.13312 0.54477,0.279962 0.54477,1.099981 0,0.272384 0,0.549274 -0.13312,0.956416 -0.13926,0.412877 0.81838,0.412877 0.81838,0.822887 m 6.7072,-2.738586 c 0,0.54784 -0.27525,0.959283 -0.13455,1.508557 -0.41308,-0.824525 -0.82924,-1.649255 -1.23474,-2.466202 -0.13763,0 -0.27075,0 -0.27075,-0.136192 l 0.40244,-0.273817 c 0.27381,0 0.68997,0 0.68997,0.273817 0.27238,0.275456 0.54763,0.682394 0.54763,1.093837 m 8.34765,1.094042 c -0.41615,-0.134759 -1.36499,-0.275456 -1.36499,-0.682394 0,-0.552346 -0.27833,-0.685466 -0.95765,-0.685466 -0.68854,0 -1.09998,0.13312 -1.92,0.413082 0,0 -0.41308,-0.550912 -0.54927,-1.096909 0.27689,-0.136192 1.36929,-0.550912 1.91693,-0.550912 0.96379,0 2.05168,0 2.05168,0.550912 0,0.41001 0.8233,0.684032 0.8233,2.051687 m -35.85761,-2.871706 c -0.13312,0.820019 -0.54477,1.092403 -1.23003,2.048614 -0.54477,0.27689 -1.36786,0.413082 -2.18931,0.823092 0.13619,-0.41001 0.54763,-0.546202 0.82145,-0.954778 0.40857,-0.413082 0.82329,-1.096909 0.95478,-1.647616 0.69017,-0.269312 1.09854,-0.269312 1.64311,-0.269312 m 25.45991,1.916928 c 0,0.820019 -0.14069,1.916928 -0.14069,2.868634 -0.40858,0 -0.40858,-0.406938 -0.40858,-0.815514 -0.27238,-0.824525 -0.41001,-1.644544 -0.68076,-2.466202 -0.41472,-1.234534 -1.09854,-2.187878 -1.64474,-3.424051 -0.13763,-0.682189 -0.82617,-0.957645 -1.3693,-1.367654 0.6824,0 1.3693,0.136192 1.9155,0.549273 0,0.41001 0.13455,0.547636 0.54477,0.959284 0.96215,0 0.82452,1.22839 1.64311,1.915494 0,0.13312 -0.26932,0.13312 -0.40858,0.412877 -0.27238,0 -0.41001,0.543334 -0.41001,0.543334 0.41001,0.273818 0.81859,0.411648 0.95928,0.824525 m -28.0576,-3.150029 c -0.41308,0.823091 -0.82165,1.643111 -1.64167,2.05312 -0.54784,0 -1.23024,0.272384 -2.05333,0 0.41001,-0.410009 0.8233,-0.550912 1.36786,-0.820019 l 1.23167,-1.233101 z m 8.20962,2.05312 c -0.41001,0.272384 -1.23167,0.41001 -1.63861,0.41001 -1.09855,-0.546202 -1.09855,-1.640039 -2.05476,-2.051687 -0.13926,-0.139264 -0.27525,-0.411648 -0.27525,-0.547635 l 2.33001,0.408371 c -0.13926,0.41001 0.13456,0.550912 0.40694,0.550912 0.41165,0.41001 0.82166,0.82002 1.23167,1.230029 m 16.14704,0 c -0.13312,0.272384 -0.41001,0.41001 -0.54313,0.41001 0,0 -0.6869,-0.68096 -0.82165,-1.230029 -0.1407,-0.684032 0.27238,-1.643315 0.27238,-1.643315 0.13619,0 0.27238,0.274022 0.54927,0.274022 0.13312,0.136192 0,0.547635 0.13312,0.959283 0.27689,0.41001 0.6869,0.82002 0.41001,1.230029 m -28.18785,-2.463334 -0.68219,2.053325 c -0.6871,0.682393 -1.64331,0.410009 -2.46333,0.410009 1.23166,-0.410009 2.05168,-1.641677 2.46333,-2.463334 0.27075,-0.135987 0.40694,0 0.68219,0 m 16.9687,1.643315 h -0.40857 c -1.64311,0.41001 -2.87765,-0.550912 -4.10931,-1.369293 0.82165,-0.274022 1.50691,-0.274022 2.05312,-0.410009 h 0.41308 l 0.5462,0.81838 c 0.41001,0.139264 1.09691,0.550912 1.50548,0.960922 m 26.54782,-0.13783 c -0.95171,0 -1.91406,-0.413082 -2.05333,-0.823092 -0.26931,-0.272384 -0.13312,-0.81838 -0.68239,-0.81838 -0.4055,0 -0.68239,0.410009 -0.68239,0.410009 -0.41452,0.136192 -1.23454,-0.410009 -1.23454,0 0,0.685261 -0.68096,0.959283 -1.2331,0.959283 -0.40858,0 -0.54477,0 -0.95785,-0.140902 v -1.369293 c 1.91857,0 1.78094,-0.682189 2.60239,-0.682189 0.54621,0 0.95785,0.411648 1.50549,0.411648 0.68239,0 0.27689,-0.272384 0.95928,-0.272384 0.68854,0 0.95335,0.542925 1.50549,0.683828 0,0.410009 0.27095,0.957644 0.27095,1.641472 m -45.43038,-3.286221 c 0,0.546201 -0.41164,1.369293 -1.09854,2.054758 -0.13312,0.136192 -0.54477,0.408371 -0.54477,0.408371 0,-0.81838 0.41165,-1.641472 0.41165,-2.326937 0.40857,-0.136192 0.82002,-0.411648 1.23166,-0.136192 m 21.34877,1.780736 c -0.6869,0 -1.64455,0 -2.18932,-0.411648 -0.82616,-0.547431 -1.09691,-0.822887 -1.50835,-1.232896 0.55071,-0.411648 1.23146,-0.411648 1.64311,-0.546202 0.41001,0.546202 1.09241,1.643111 2.05456,2.190746 m 6.83909,-0.685261 c 0,0.408371 -0.27239,0.549274 -0.5462,0.821453 0,0 -0.54784,-0.683827 -0.54784,-1.095271 0,-0.411648 0,-0.821657 0.13619,-1.231667 0.41165,0.41001 0.95785,0.956211 0.95785,1.50528 m 6.29555,0.274023 c -1.23003,-0.823296 -2.05005,-2.054759 -3.14245,-3.283354 1.0924,0 1.50241,1.09097 2.321,1.2288 0.27689,0.275251 0.5507,0.409805 0.82145,0.821248 z m -25.45521,-3.422413 c 0,0.960512 -0.13762,2.189312 -1.09097,2.599321 l -0.41451,-1.369292 c 0.54784,-0.269312 0.96071,-0.68096 1.50548,-1.230029 m -3.00933,2.189312 c -0.82166,-0.821658 -1.50999,-1.640243 -1.50999,-2.460263 0.41452,0 0.82309,0 1.23597,0.41001 0,0.684032 0.40857,1.2288 0.27402,2.050048 m 39.14056,-0.135987 c -1.2329,-0.547635 -3.01261,-1.092403 -3.97026,-1.092403 -0.54476,0 -2.18931,0.682393 -2.8717,1.364787 L 226.315,65.334805 c 0.95477,-0.137626 0.95477,-0.821658 1.49954,-0.821658 0.41308,0 0.96072,-0.139264 1.37523,-0.139264 0.40551,0 0.67789,-0.409805 0.95785,-0.409805 0.54477,0 0.26931,0.820019 0.81715,0.820019 0.41288,0 0.54907,-0.27095 0.95908,-0.27095 0.68854,0 1.36786,1.09097 1.50549,1.914061 M 200.44671,66.5634 c -0.6869,-0.411648 -1.9155,-0.546202 -1.7793,-1.366221 0.41,-0.684032 0.82001,-0.823296 1.0924,-1.233101 0.13926,0.959079 0.27545,1.777664 0.6869,2.599322 m 12.59151,-0.821658 -0.68403,0.275456 c -1.50528,0 -2.32858,-0.413081 -3.0124,-1.094041 0.54784,0 1.36929,-0.549069 1.36929,-0.549069 0.68546,0.549069 1.64331,1.230029 2.32714,1.367654 m -26.6838,-1.367654 c -0.54927,0.549069 -1.23474,0.960512 -1.64454,1.777664 0,-0.41001 -0.13476,-0.817152 -0.27239,-1.228595 0.13763,-0.41001 0.54764,-0.82002 0.82002,-0.959079 0.27525,0.139264 0.68383,0.139264 1.09691,0.41001 m 17.51183,1.64311 c -0.5462,0.134554 -1.50405,0.41001 -1.91406,-0.275456 -0.82309,-1.228595 -0.27525,-2.463129 0.13619,-3.416473 0.27382,0.818585 0.41165,1.638809 0.54621,2.458828 0.13926,0.550708 0.95785,0.82002 1.23166,1.232896 m 10.81201,-2.326937 c -0.54764,0.274022 -1.64004,0.413081 -2.46006,-0.137626 l 1.09241,-0.682393 c 0.41,0.408576 0.95928,0.682393 1.36765,0.820019 m 15.46936,-0.411648 c -0.82759,0 -1.09998,-0.134554 -1.78094,-0.134554 -0.55214,0 -1.37072,0.408576 -1.91836,0.959283 -0.27546,-0.413081 -0.13312,-0.824524 0,-1.232896 0.40837,-0.413286 1.09384,-0.957849 1.7793,-0.957849 0.96215,0 1.92,0.820019 1.92,1.366016 m -40.37529,1.505689 c -0.95785,-0.27095 -1.91406,-1.094041 -2.32551,-1.91406 -0.27545,-0.544768 -0.40857,-1.233101 -0.40857,-1.782375 0.54476,0.137831 0.95641,0.549274 1.23166,0.82473 v 0.13312 c 0.54477,0.824525 1.36622,1.644544 1.50242,2.738585 m 1.7793,-2.327142 -0.27238,1.916928 c -0.54928,-0.821453 -0.95929,-1.641472 -1.09548,-2.736947 z m 14.09536,1.646182 c -0.82309,0.270951 -1.36929,-0.413081 -1.91693,-0.824524 -0.41001,-0.821658 -0.41001,-1.641677 -0.68239,-2.190951 0.68239,0.549274 1.77623,0.549274 1.64004,1.782375 0,0.408576 0.55091,0.820019 0.95928,1.2331 m 3.28499,-1.646182 c -0.82166,0 -1.77951,0.413082 -2.18808,-0.411648 0.27095,-0.13312 0.54477,-0.54313 0.95785,-0.819814 z m 21.3504,-1.369293 c -0.96256,-0.270745 -1.64475,-0.546201 -2.46784,-0.546201 -0.40858,0 -1.64168,0.275456 -1.77643,0.546201 -0.41452,-0.410009 0.27689,-1.636966 0.81858,-1.912422 0.54927,-0.273818 0.95785,-0.136192 1.23781,0 0,0.821657 0.95314,0.411648 1.50078,0.682393 0.27238,0.408576 0.55234,0.82002 0.6869,1.230029 m -18.74801,-0.682393 c -0.27525,0.411648 -0.68526,0 -0.96051,0 h -1.23187 c -0.13763,-0.408372 -0.27382,-0.547636 -0.41001,-0.818586 0.6869,-0.135987 1.09404,-0.411648 1.50712,-0.135987 0.41001,0.406937 0.54477,0.954573 1.09527,0.954573 M 199.75981,58.21739 c -0.13312,0.821658 -0.41001,2.187879 -1.2286,2.599527 0,-0.411648 -0.41164,-0.82002 -0.68526,-1.230234 -0.13476,0 0,0.410214 -0.13476,0.410214 0,0.408372 -0.13619,0.82002 -0.13619,1.50528 -0.41451,0.134759 -0.96235,0.410215 -1.50692,0.134759 v -0.411648 c -0.27545,-0.408371 -0.27545,-0.820019 -0.27545,-1.228391 l -0.13312,-0.139264 c -0.27689,0.139264 -0.27689,0.547636 -0.27689,0.82002 -0.13619,0.139264 -0.54477,0.54784 -0.54477,0.959283 -0.41452,0 -0.82309,-0.134759 -1.23597,-0.411648 v -1.367655 c 0,-0.27095 0,-0.27095 -0.13476,-0.27095 l -0.68833,0.818586 c -0.54026,-0.547636 -0.67789,-1.641677 -0.67789,-2.464768 2.32243,-1.230029 5.05959,-0.82002 6.84196,-0.131482 0.27075,0.131482 0.54477,0.131482 0.81715,0.408371 m 10.67889,-1.096909 c -0.82022,0 -1.23474,-0.410009 -1.64332,-1.231462 0,-0.408576 -0.13926,-0.959283 0,-1.641677 0.1362,0.41001 0.27239,0.821453 0.54621,1.092403 0.54784,-0.27095 0.54784,0.41001 0.68403,0.549274 0.13926,0.411443 0.41308,0.821453 0.41308,1.231462 m -3.00954,-6.708838 c 0,0.140902 -0.27689,1.231667 -0.27689,1.231667 l -1.09547,0.414515 0.6869,-3.150028 c 0.27095,0.546201 0.68546,1.095475 0.68546,1.503846 m -21.75877,-2.325504 -0.5507,0.821658 c 0.13783,1.503846 -0.54477,2.464768 -0.54477,3.694796 l -0.68526,-2.19095 c 0.13619,-0.682189 0.27545,-1.230029 0.68546,-1.913856 z m 21.48209,8.624333 c -1.64311,-0.960717 -3.56004,-1.641677 -5.61173,-1.780736 0,0.410009 0,0.820019 -0.13619,0.959283 1.64311,0.821453 3.28315,1.641472 4.65244,2.874573 v 1.233305 c -1.36929,-1.369497 -3.00933,-2.876416 -4.92789,-3.286425 -0.1362,0.273817 -0.54313,0.684032 -0.82002,1.098547 -0.95929,-0.688538 -2.05312,-1.234739 -3.28172,-1.508557 -0.41472,0 -0.54784,-0.550912 -0.54784,-0.960717 l -0.13926,-0.682393 c 0.6871,-0.137831 1.23494,-0.685466 1.37093,-1.367859 0.13476,0.136192 0.40857,0.136192 0.68096,0.136192 0.27525,-0.136192 0.27525,-0.411648 0.27525,-0.823092 0,-0.818585 -1.77766,-0.818585 -2.59932,-0.818585 -0.95785,0 -1.64455,-0.140698 -2.32714,0.410009 -0.27382,0 -0.13927,0.408576 -0.13927,0.684032 0,0.136192 0.41308,0.411648 0.41308,0.411648 0.40858,0 0.54784,-0.275456 0.8233,-0.275456 -0.1409,0.821453 0.27238,1.367655 0.95457,1.643111 l -0.13312,1.231667 c -0.41308,0.411443 -1.09691,0.135987 -1.64454,0.411443 -0.82166,0.41001 -1.64168,0.820019 -2.46334,1.230029 -0.40857,-0.41001 -0.68403,-0.820019 -0.95641,-1.230029 -1.36909,0.41001 -2.18931,1.230029 -3.55697,2.05312 -0.41165,0.273818 -1.09691,0.821658 -1.09691,0.821658 -0.13619,-0.136192 0,-0.54784 0,-0.95785 1.23003,-1.232896 2.87335,-1.64311 4.24243,-2.46784 v -1.092198 c -0.54763,-0.137831 -1.09383,0 -1.77766,0 -1.23474,0.272384 -2.46477,0.823091 -3.42098,1.503846 0,-0.411648 -0.27545,-0.821453 0.13456,-1.092403 1.50712,-0.821453 3.28642,-1.369293 5.20028,-1.232896 v -0.546406 c -0.1362,-0.275252 -0.1362,-0.6869 -0.41165,-0.6869 -0.81838,-0.959283 -1.6384,-2.050048 -1.6384,-3.009331 l 0.40837,-0.276889 c -0.27238,-0.818586 -0.40837,-2.873344 0,-3.829555 -0.82002,-0.273818 -1.64004,-1.095476 -1.91242,-1.641677 -0.27525,-0.686899 -0.55071,-1.095475 -0.68526,-1.916928 0.27381,-0.820019 0.68526,-1.231667 1.09076,-2.053325 0.27546,0 0.6869,-0.135987 0.8233,-0.411648 0.68362,-0.135987 1.23146,-0.821248 2.05312,-0.409805 0.54763,0 1.09527,0.273818 1.50384,0.41001 0,0.275456 0,0.411648 0.41309,0.685465 0.81408,0.136192 0.81408,0.959284 1.22859,1.640039 0.40858,0.139264 0.82145,0.139264 1.23003,0.139264 0.8233,0.272384 1.36929,0.272384 1.78381,0.684032 1.09097,-0.684032 2.32407,-0.823296 3.55266,-0.684032 0.13927,-0.54784 0.41452,-0.959283 0.54928,-1.643111 0.27689,0.273818 0.13762,-0.136192 0.41164,-0.136192 0.68383,-0.410009 1.36766,-1.09568 2.32694,-0.821657 0.6824,0.411648 1.64004,0.136192 2.05312,0.957849 0.5462,0.411444 0.82023,1.232896 1.23167,2.05312 -0.41165,0.82002 0,2.05312 -0.82309,2.461696 l -0.82166,0.824525 c -0.27238,0 -0.41001,0.270951 -0.82145,0.270951 0.41165,0.959283 0.13762,2.46784 -0.27382,3.420979 0.27382,-0.134759 0.68526,-0.134759 0.82309,-0.544768 0.13619,0.136192 0,0.410009 0,0.544768 -0.13783,0.276889 -0.13783,0.413081 -0.13783,0.413081 0.13783,0.823091 -0.41165,1.503847 -0.95764,2.054554 -0.27239,0.818585 -0.95785,1.915494 -1.9155,2.051686 v 0.411648 c 2.05169,0 3.83386,0.41001 5.74792,1.502413 z m 30.78717,-9.034342 c -0.41165,-0.41001 -0.82002,-0.821453 -1.36765,-0.821453 -0.40714,-0.54784 -0.95027,-1.230234 -1.50712,-1.230234 0.41472,-0.137625 0.96092,-0.411648 1.64474,-0.411648 0.41001,0.682599 0.81859,1.230234 0.95785,1.641882 z m -52.54451,-1.641677 -0.95785,0.408576 0.13783,-0.818586 c 0.27239,-0.411648 0.41001,-0.824525 0.82002,-1.232896 z m 48.17183,-1.367655 c -0.54764,0 -0.95457,0.13312 -1.51286,0 -0.26788,-0.275456 -0.67645,0 -0.94884,0.13312 -0.27832,0 -0.5462,-0.13312 -0.95764,-0.408576 0.81715,0 1.23003,-0.546201 1.90648,-0.823091 0.55829,0.411648 1.09834,0.686899 1.51286,1.098547 m -30.24691,39.55671 c 0,-0.546201 -0.41165,-0.821657 -0.95785,-0.821657 -0.41001,0 -0.95765,0.54784 -0.95765,0.821657 0,0.549274 -0.41165,3.694797 -0.41165,3.694797 h 1.09568 c 0.41145,-1.367859 1.23147,-3.010969 1.23147,-3.694797 m -3.14573,-0.140697 h -0.13927 l -1.09219,-1.092403 h -0.13927 c -0.27238,0.270745 -0.41165,0.686899 -0.68403,1.092403 0,1.236173 0.41165,2.607104 0.68403,3.835494 h 1.23167 c 0,-1.367859 0.13926,-2.599321 0.13926,-3.835494 m 22.03423,-1.641677 -1.36622,0.137626 c 0.40837,0.411648 0.40837,0.959283 0.40837,1.2331 0,0.411648 -0.13762,0.820224 -0.40837,1.09568 -0.41472,-0.275456 -0.41472,-0.684032 -0.69018,-1.09568 -0.27381,0 -0.40837,0.68096 -0.40837,0.960922 0,1.367654 0.54477,2.328576 0.95929,3.145728 h 1.36929 c -0.1407,-1.2288 -0.41001,-2.191155 -0.41001,-3.42569 0,-0.68096 0.41001,-1.502412 0.5462,-2.051686 m 30.9248,-13.140787 c 0,-5.747917 -1.91386,-11.906048 -7.11721,-17.10633 -0.82923,-0.821452 -1.91263,-1.782374 -3.01261,-2.464563 -2.05312,-1.366425 -3.96247,-3.286425 -5.06409,-5.338112 -0.68382,-0.823091 -1.23003,-1.232896 -2.05455,-1.641676 0.1407,0.408576 0.41001,0.818585 0.54763,1.230233 h -0.13762 c -0.81551,0 -1.49791,-0.411648 -2.05333,-0.821657 l 0.55542,-0.546202 c -0.13783,-0.273818 -0.55542,-0.273818 -0.82923,-0.273818 -2.45412,-0.410009 -4.50888,0.82002 -6.69819,1.230029 v 0.27689 c 1.36786,0.546201 1.64454,2.189312 2.46026,3.009536 h 0.82903 c 0.4055,0 0.81859,0.411648 1.0879,0.275251 0,-0.275251 -0.26931,-0.686899 -0.26931,-0.823091 0.26931,-0.272384 0.5462,-0.272384 0.81858,0 0.68096,0.410009 1.77173,-0.272384 2.31793,0.823296 -0.81388,0 -1.63697,0.135987 -2.31793,0.408371 0,0.137626 0.41616,0.547635 0.27382,0.824525 -0.68403,-0.27689 -1.50528,0 -1.91078,-0.686899 l -0.14234,0.273817 c 0.96072,0.95785 2.19546,1.779507 3.42548,2.192384 1.91079,0.410214 3.55267,-0.549069 5.33341,-0.139264 2.05475,0.95785 3.69336,2.19095 5.06265,3.560243 4.51646,4.790272 6.16243,9.851495 6.16243,14.367744 0,5.613568 -1.64597,9.583616 -4.10767,12.04695 -1.50999,1.509991 -3.42405,2.874573 -5.75119,2.874573 -0.54477,0 -1.64311,-0.137625 -2.32551,-0.683827 0.40858,-1.644544 0.6824,-3.422413 0.6824,-6.020301 0,-1.511424 0,-5.477171 -1.91243,-10.131456 -0.41451,-0.957644 -1.92163,-3.971481 -3.83385,-6.020096 -1.50569,-1.507123 -3.28499,-2.876416 -5.05815,-2.876416 -0.82473,0 -1.64619,0.137831 -2.33329,0.688538 -0.68075,0.680755 -1.0924,1.777664 -0.95314,2.59625 -1.2331,0.682393 -3.01383,1.231667 -4.51932,1.231667 -1.77787,0 -3.69193,-0.959283 -5.33811,-2.050048 v -2.056192 c -0.95765,-0.410215 -1.23003,-0.820224 -1.36479,-1.641677 l 0.13476,-0.139264 c 0.41001,0.139264 0.68833,0.411648 0.95764,0.550707 -0.13598,-0.960717 -0.26931,-2.05312 -0.81838,-2.874777 -0.41164,0 -0.82165,-0.136192 -1.23617,-0.411648 -0.54333,-0.411444 -0.81858,-0.956212 -0.81858,-1.641472 0.41308,0.68526 1.09547,0.411648 1.50528,0.821452 -0.6867,-1.641472 -0.40981,-2.464563 -1.64291,-5.064089 -0.40858,-1.234534 -1.64168,-1.916928 -2.46333,-2.738586 -0.40858,-0.411648 -0.54764,-0.823091 -1.23003,-0.823091 -0.41001,-0.137625 -0.41001,-0.818585 -0.54477,-1.230029 0.27238,0 0.54477,0.273818 0.81858,0.411648 -0.68403,-2.053324 -1.36786,-4.108083 -3.28786,-5.339545 l -0.27238,0.275251 c -0.82145,0.13312 -1.64004,0.13312 -2.3255,0.13312 0.27238,-0.408371 0.82022,-0.544768 1.36786,-0.817152 -0.54764,-0.411443 -0.95642,-0.548864 -1.77767,-0.548864 -0.27545,0.137421 -0.95949,0.548864 -1.50569,0.548864 h -0.13762 c 0,-0.411443 -0.13476,-0.96215 0.68403,-1.232896 -0.81879,-0.139264 -1.50569,-0.139264 -2.4617,0 -0.13926,0.684032 -0.68546,1.095475 -0.68546,1.641677 -0.41022,0.408371 -0.54784,0.820019 -0.95642,1.231462 0,-0.956211 0.40858,-1.777664 0.5462,-2.602393 -0.5462,0.13783 -1.22859,0.550912 -1.64311,0.550912 C 194.69736,36.039394 193.3297,35.357 192.779,35.357 c 0.82309,0.682394 0.41451,1.644544 0.5507,2.461696 l -0.55091,-0.408371 c -0.26911,-0.546202 -0.81387,-0.95785 -1.09076,-1.641677 -0.82002,0 -1.36786,0.270746 -2.05169,0.684032 l -0.13455,0.137421 c 0.5462,0 1.09363,0.411648 1.36601,0.820224 -0.95908,0 -1.64147,-0.408576 -2.59768,-0.408576 0,0 0,-0.137626 -0.27546,-0.137626 -0.41165,0.137626 -0.82309,0.546202 -1.09691,0.821453 -0.95641,0.818586 -1.64003,1.641677 -2.18787,2.873344 0.27545,0 0.68546,0 0.82329,0.137626 -0.41328,0.272384 -0.82329,0.821657 -1.36806,1.092403 v 2.056192 c -0.41001,0.546201 -0.95765,0.954777 -1.2329,1.641677 -0.68546,2.463129 -0.82166,5.065727 -0.82166,7.938867 -0.27381,0.410009 -0.54784,0.546201 -0.81715,0.685465 v 2.46313 c 0,0 0.95335,-0.959283 1.36479,-1.234535 0,0.549274 -0.13619,1.370727 -0.13619,1.918567 -0.41165,0 -0.95929,0.550707 -0.95929,1.09527 0,0.54784 0.1362,1.097114 0.1362,1.643315 0,0.269312 0,0.408372 0.13783,0.680756 0.13762,-0.272384 0.41001,-0.680756 0.68526,-0.82002 0.13619,0 0.41001,-0.27095 0.82022,-0.27095 -0.27238,0.410214 -0.41021,1.09097 -0.68403,1.63881 l -0.41165,0.411443 c 0,0 -0.13599,0.275456 -0.13599,0.408576 0.41165,2.877645 1.36766,5.614797 2.46477,8.489574 -0.95928,1.912423 -1.91693,3.968615 -2.32857,5.472666 -0.41001,1.095475 -0.95335,3.28622 -0.95335,3.28622 -0.68526,-0.682393 -1.64618,-0.820019 -2.46784,-0.820019 -0.956,0.137626 -1.77766,0.41001 -2.46313,1.230029 -0.82002,-0.41001 -1.91549,-0.273818 -2.46313,0.41001 -1.23003,1.09998 -1.23003,1.644748 -1.23003,2.464768 -0.41164,0.411648 -0.95928,1.098547 -0.95928,2.053324 0,1.370727 0.27525,2.187674 0.95928,3.286221 h 21.75427 c -0.27238,-0.410009 -0.54764,-0.957645 -0.82145,-1.367859 -0.40858,-0.823091 -0.13476,-1.918362 -0.13476,-2.738586 0.40857,-0.821452 0.95641,-1.64311 1.37072,-2.463129 0.13169,-0.41001 0,-0.41001 0.27239,-0.549274 l 0.95785,-0.408576 c 0.54477,0 0.95928,-0.276889 1.64311,-0.276889 0.54477,0.685465 0.54477,-0.546202 1.23167,-0.82002 1.64311,-0.137625 3.00933,0 3.83098,1.230234 0,0.275251 0.27382,0.275251 0.27382,0.414515 h -0.68546 c -0.82146,-0.414515 -1.9155,-0.824729 -2.87478,-0.414515 0,0.414515 -0.13763,0.414515 -0.13763,0.824525 v 0.684032 c 0.54928,0.135987 0.95929,0.545997 1.50692,0.957645 0.27239,-0.549274 1.09568,-0.95785 1.77787,-0.95785 0.68547,0 1.78094,0.408576 1.78094,1.644544 0,0.546406 -0.13783,1.09568 -0.13783,1.641882 0.5462,0.408371 1.36929,0.541696 2.05476,0.954572 -0.27546,0.416154 -0.68547,0.416154 -1.09384,0.416154 h -1.23474 c -0.13762,-0.139264 -0.41164,-0.139264 -0.41164,-0.416154 -0.40981,0.416154 -0.68383,1.097114 -0.95765,1.644749 h 16.69939 c -0.27381,-0.547635 -0.55234,-0.957645 -0.68546,-1.367859 -0.41001,-0.823091 -0.27689,-1.918362 -0.41001,-2.738586 l 1.64004,-2.18624 c 0.82473,0 1.64474,-0.276889 3.1488,-0.411648 0.27074,-0.414515 0,-0.689766 1.22859,-0.823091 1.09384,0 1.78217,0.408576 2.05906,0.54784 0.13312,0.275251 0.13312,0.275251 0,0.549274 -0.27689,0.270745 -0.82309,-0.274023 -1.23453,-0.139264 -0.27239,0.276889 0.13762,0.410009 0.13762,0.684032 0.27382,0.272384 -1.23003,-0.274023 -1.23003,-0.274023 0,0 -0.41308,0.82002 -0.54927,1.231668 0,0 0.68403,0.411648 0.81715,0.821452 0.27689,0.411648 -0.26788,0.820224 -0.26788,1.233306 -0.41308,-0.13783 -0.82923,-0.552346 -0.96071,-0.413082 -0.27403,1.095271 0,2.057626 -0.14234,3.286221 h 1.50999 l 0.27382,-2.464768 c 0.13926,-1.370726 1.7795,-3.965542 2.73715,-3.965542 0.68854,0 0.96072,0.270745 1.50856,0.680755 0.4055,0.41001 0.95314,0.821658 0.95314,1.092403 0,0.140698 -0.40858,0.416154 -1.09241,0.416154 -0.27238,0 -0.40857,-0.416154 -0.68075,-0.686899 l -0.82473,0.821452 c 0,0 0.95785,0.820224 0.95785,1.507124 0,0.541696 -0.13312,0.954572 -0.68547,1.231462 l -0.81715,-1.64311 c -0.41001,0 -1.10141,0.820019 -1.10141,1.36622 0,0.546202 -0.27382,0.827802 -0.27382,1.644749 h 8.892 c 0.96543,0 1.78381,-0.276889 2.74473,-0.817152 h 1.77623 c 2.46784,0 5.61501,-0.411443 8.89365,-3.56311 5.20192,-4.926464 5.47717,-11.63817 5.47717,-14.237696 M 197.7114,87.918305 c -0.68403,-1.367859 -0.82166,-3.286221 -0.82166,-3.694797 0,-0.821657 0,-1.782374 0.40858,-2.464768 l -1.6384,0.41001 c -0.2771,0.41001 -0.41329,0.821658 -0.41329,1.092403 l 0.5462,-0.270745 c 0.27546,0 0.41452,0.270745 0.54784,0.411648 -0.13312,0.821248 -0.95785,0.821248 -1.37093,1.090764 -0.40694,1.36786 0.8233,2.19689 1.09855,3.425485 z"
       fill="#eb6606"
       id="path1256"
       style="stroke-width:0.2048" />
  </g>
</svg>
