<?xml version="1.0" encoding="UTF-8" standalone="no"?>
<!-- Created with Inkscape (http://www.inkscape.org/) -->

<svg
   width="512"
   height="512"
   viewBox="0 0 135.46667 135.46667"
   version="1.1"
   id="svg1"
   inkscape:version="1.3.2 (091e20e, 2023-11-25)"
   sodipodi:docname="provider-ing-icon-white-512x512.svg"
   xmlns:inkscape="http://www.inkscape.org/namespaces/inkscape"
   xmlns:sodipodi="http://sodipodi.sourceforge.net/DTD/sodipodi-0.dtd"
   xmlns="http://www.w3.org/2000/svg"
   xmlns:svg="http://www.w3.org/2000/svg">
  <sodipodi:namedview
     id="namedview1"
     pagecolor="#ffffff"
     bordercolor="#666666"
     borderopacity="1.0"
     inkscape:showpageshadow="2"
     inkscape:pageopacity="0.0"
     inkscape:pagecheckerboard="true"
     inkscape:deskcolor="#d1d1d1"
     inkscape:document-units="mm"
     inkscape:zoom="0.66100586"
     inkscape:cx="462.93084"
     inkscape:cy="294.24853"
     inkscape:window-width="1792"
     inkscape:window-height="1006"
     inkscape:window-x="0"
     inkscape:window-y="25"
     inkscape:window-maximized="1"
     inkscape:current-layer="layer1" />
  <defs
     id="defs1">
    <clipPath
       clipPathUnits="userSpaceOnUse"
       id="clipPath120">
      <path
         d="M 0,0 H 1919.06 V 1080 H 0 Z"
         id="path120" />
    </clipPath>
    <clipPath
       clipPathUnits="userSpaceOnUse"
       id="clipPath124">
      <path
         d="m 1396.145,760.373 h 161.387 v 144.438 h -161.387 z"
         id="path124" />
    </clipPath>
  </defs>
  <g
     inkscape:label="Layer 1"
     inkscape:groupmode="layer"
     id="layer1">
    <path
       id="path123"
       d="m 1495.738,813.5826 c -0.652,-0.652 -3.258,-1.955 -3.258,-1.955 -1.304,-0.652 -1.955,-1.303 -3.91,-1.955 -0.652,1.303 -1.303,3.91 -1.303,3.91 0,0 2.606,0.652 4.561,0.652 1.303,0 2.607,0 3.91,-0.652 m 5.213,34.537 c 0,-0.651 -0.651,-3.91 -0.651,-4.561 -0.652,-3.91 -0.652,-5.213 -1.304,-11.078 v -1.955 c -0.651,-1.303 -3.258,-1.955 -4.561,-3.91 -0.652,-1.955 -0.652,-3.258 -2.607,-3.91 -1.955,-0.652 -3.258,-1.955 -4.561,-1.303 -1.304,0.651 -1.304,3.91 0,5.865 1.303,2.606 3.909,3.909 5.864,4.561 2.607,0.652 1.955,5.865 1.955,6.517 0.652,1.303 0,3.258 0,4.561 -1.303,-0.652 -1.303,0 -3.91,-0.652 -2.606,0 -3.909,1.304 -5.213,1.955 -0.651,1.304 -3.91,3.91 -5.213,6.517 3.258,0.652 5.213,0.652 8.472,0.652 h 8.471 c 1.955,-0.652 3.258,-1.955 3.258,-3.259 m 29.976,-34.537 c 0,-0.652 -0.652,-3.91 -0.652,-3.91 -2.606,0.652 -3.91,2.607 -7.168,2.607 0,1.955 0,1.955 0.652,2.606 3.91,0.652 5.213,-0.651 7.168,-1.303 m -43.009,56.693 c 0,-0.651 0,-1.303 -0.651,-1.303 0,0 -3.259,-2.607 -4.562,-3.91 -3.258,-1.303 -3.91,-4.561 -5.865,-4.561 -1.303,1.303 -3.91,3.258 -5.213,5.213 -1.955,2.606 -1.303,5.213 -1.303,5.865 1.303,3.909 5.865,5.213 8.471,5.864 1.304,0 2.607,0 4.562,-1.303 2.606,-1.303 3.258,-1.303 4.561,-5.865 m 16.943,-6.516 c 0,-2.607 -1.955,-3.91 -3.91,-6.517 -1.303,-1.955 -1.955,-0.651 -5.213,-0.651 h -3.258 c 0,1.955 1.303,2.606 3.258,4.561 1.955,1.304 3.91,2.607 5.213,2.607 1.304,0.651 3.91,1.303 3.91,0 m 34.537,-13.033 c 0,0 -0.651,-1.303 -1.303,-1.303 -0.652,-1.304 -1.955,-1.955 -3.258,-2.607 -0.652,0 -1.303,-1.303 -1.303,-1.955 -1.304,-1.303 -3.91,-1.955 -5.865,-1.955 -1.304,0 -3.91,0 -5.213,1.955 0,0 0.651,-7.168 0.651,-9.123 0,-0.652 0.652,-0.652 0.652,-0.652 2.606,-0.651 3.258,-3.258 3.91,-4.561 0,0 0.651,-0.652 1.303,-0.652 3.258,-2.606 9.123,-5.213 6.516,-5.213 0,-1.303 -1.954,-3.91 -2.606,-3.91 l -7.82,3.91 c -0.652,1.303 -1.303,2.607 -1.955,4.562 -1.303,1.303 -1.955,1.303 -3.91,2.606 0,4.562 -0.651,4.562 -0.651,9.123 0,0.652 -1.304,7.168 -1.304,7.168 0,0.652 1.955,2.607 3.91,3.259 0,0 12.382,0 18.246,-0.652 m -12.381,7.168 c -1.303,-1.303 -4.561,-0.652 -7.82,-0.652 0,1.304 0,3.91 -1.303,3.91 -1.303,1.304 -3.258,1.304 -3.258,2.607 -2.607,1.955 3.91,0.651 7.168,0 1.303,0 12.381,-2.607 5.213,-5.865 m 20.201,7.168 c -0.652,-1.955 -2.606,-3.258 -4.561,-3.258 -3.259,3.258 -6.517,5.865 -11.73,7.168 -0.652,2.607 1.955,5.213 3.258,7.168 1.955,1.955 4.562,2.607 7.168,1.955 3.259,-0.652 3.91,-1.303 5.213,-2.607 1.955,-2.606 1.304,-7.819 0.652,-10.426 m 127.723,-1.955 h -3.258 l -3.91,-2.606 -5.865,3.909 6.517,2.607 z m 26.717,-11.729 -7.168,5.864 -2.606,3.259 6.516,1.955 z m -230.683,-181.158 c -0.651,1.303 -2.606,3.909 -5.864,5.213 -3.91,0 -2.607,-6.517 -3.91,-9.775 -0.652,-0.652 -1.304,-1.955 -0.652,-2.607 h 9.775 c 0,0 0.651,5.865 0.651,7.169 m 14.988,51.48 c -6.516,2.606 -5.864,5.213 -8.471,6.516 -3.258,2.607 -8.472,5.213 -16.291,7.82 -1.955,0.652 -6.517,0 -8.472,0 -5.213,-9.123 -7.168,-17.595 -10.426,-26.718 -0.652,-1.955 -1.955,-5.864 -1.955,-5.864 -3.258,1.955 -6.516,3.258 -9.775,3.258 -5.213,0 -8.471,-1.955 -10.426,-7.168 -1.955,0.651 -4.562,1.955 -7.82,1.303 -4.561,-0.652 -8.471,-3.258 -10.426,-7.168 -1.304,-2.607 -2.607,-5.213 -1.304,-7.82 -3.909,-1.303 -5.864,-4.561 -7.168,-7.168 -1.303,-5.213 3.259,-13.685 5.214,-15.64 h 6.516 c -1.303,5.865 -3.91,8.472 -1.955,13.685 1.304,3.258 5.865,4.562 7.168,5.213 0,2.607 -3.258,4.562 -2.606,7.168 1.303,3.259 5.213,3.259 9.123,2.607 -0.652,-3.91 -1.304,-9.123 -1.955,-14.336 -0.652,-5.213 2.606,-14.337 2.606,-14.337 h 5.865 0.652 c -0.652,1.955 -1.303,3.91 -1.303,5.865 -0.652,1.955 -0.652,3.259 -0.652,4.562 0.652,2.606 0.652,5.213 0.652,7.168 6.516,3.258 4.561,-1.303 5.864,-2.607 0,0 2.607,5.865 -0.651,8.472 -0.652,0.651 -4.562,0 -4.562,0.651 0,0.652 0.652,2.607 1.303,4.562 1.304,2.607 1.955,2.607 3.259,5.213 0.651,0.652 2.606,0.652 5.213,0 0.652,0 3.91,-1.303 5.865,-1.955 -0.652,-1.303 -3.259,-5.213 -3.91,-7.168 -2.607,-7.82 -2.607,-16.291 -1.955,-24.763 h 7.168 c 0,4.562 -0.652,9.775 0,13.685 1.303,5.865 2.607,6.517 3.258,6.517 1.304,0 2.607,-1.304 3.258,-2.607 1.304,-6.517 -2.606,-11.73 -2.606,-17.595 h 5.213 c 0,0 1.955,0.652 2.607,2.607 1.303,3.91 3.91,7.82 4.561,11.078 0.652,3.258 -0.651,5.865 -2.606,9.775 -1.955,2.606 -3.91,4.561 -8.472,7.82 -1.303,2.606 0,5.864 0,5.864 0,-0.651 2.607,0.652 3.91,0.652 5.213,-1.303 6.517,-1.303 9.123,-2.607 1.955,-0.651 4.562,-2.606 5.865,-3.909 2.607,-0.652 4.561,-4.562 6.516,-9.124 0,0 1.304,8.472 1.304,10.427 -2.607,3.258 -5.213,5.865 -9.123,7.82 -3.259,2.606 -10.427,4.561 -13.685,5.864 0,0 1.303,1.955 1.303,3.259 3.91,0.651 8.472,0.651 10.427,0 6.516,-1.955 14.336,-5.865 17.594,-8.472 0,0 1.304,2.607 1.304,3.91 0,0 -9.124,5.865 -8.472,7.82 -2.607,1.303 -4.561,3.258 -7.82,3.91 -3.258,0.651 -11.078,1.303 -11.078,1.303 0,0 1.955,2.607 3.91,4.562 h 5.213 c 1.955,0 9.123,-1.955 13.033,-3.91 5.865,-2.607 9.123,-4.562 9.775,-5.213 0.652,1.303 1.303,3.909 1.303,5.213 m -22.156,35.84 c -1.303,0.652 -3.91,-0.651 -5.865,-0.651 -1.954,0 -6.516,0 -6.516,-0.652 0.652,-1.303 0.652,-2.607 1.303,-3.91 0.652,-1.303 1.304,-2.606 1.304,-5.865 0,-1.955 0.651,-3.91 0,-6.516 0,0 8.471,4.561 8.471,5.865 0.652,1.955 0,3.258 0.652,5.213 0,1.303 0,4.561 0.651,6.516 m -2.606,10.427 c -1.304,1.303 -1.955,3.258 -2.607,4.561 -2.606,0 -12.381,-3.91 -12.381,-3.91 1.955,-3.258 3.258,-7.168 4.561,-10.426 1.304,0 2.607,0.652 3.91,1.955 1.304,2.607 5.213,6.516 6.517,7.82 m 20.852,-20.853 v 4.562 c -0.651,1.303 0,3.909 0,5.864 -0.651,0.652 -1.954,0.652 -2.606,0 h -3.91 c 0,0 -1.303,-5.213 -1.303,-9.123 -0.652,-1.955 -1.304,-3.258 -1.304,-3.91 -1.303,-2.606 -1.955,-3.258 -3.258,-6.516 1.955,-0.652 3.91,0.652 5.213,0.652 1.304,0.651 3.259,1.303 3.91,1.955 0.652,0.651 2.607,5.213 3.258,6.516 m 31.279,-35.841 c -0.651,0.652 -0.651,1.955 -1.303,3.259 -1.303,3.258 -0.651,5.213 -1.303,9.123 h -4.562 c -1.303,-0.652 -1.955,0 -3.258,-0.652 0,-2.607 0.652,-4.562 2.607,-7.168 1.303,-3.91 7.819,-4.562 7.819,-4.562 m -56.693,70.378 c -1.303,3.259 -1.955,3.91 -3.91,5.865 -0.651,-0.652 -3.91,-2.606 -4.561,-3.91 -1.304,-0.651 -2.607,-1.303 -3.258,-1.955 0,-1.303 0.651,-1.303 1.303,-2.606 0,-1.304 0.651,-4.562 0.651,-7.168 0,0 1.955,1.303 1.955,2.606 3.259,3.91 7.169,6.517 7.82,7.168 m 40.402,-32.582 c 0,0.652 -1.955,0.652 -3.258,0.652 -1.303,0 -2.607,-0.652 -3.91,-0.652 -1.303,-1.955 -1.955,-3.91 -2.606,-6.517 -0.652,-1.954 -1.304,-3.258 -1.955,-4.561 0,0 5.213,1.303 6.516,1.303 1.955,1.304 3.258,1.955 4.562,4.562 0.651,1.955 1.303,2.606 0.651,5.213 m 88.624,-60.603 c -1.303,5.865 -4.561,8.471 -7.819,10.426 -1.304,0.652 -13.033,6.517 -14.988,6.517 -3.91,-0.652 -10.427,-0.652 -13.685,-2.607 -0.652,1.955 -1.303,5.213 0,7.168 0.652,1.303 6.517,1.303 8.471,1.303 7.169,-0.651 11.078,-1.955 13.033,-1.955 1.304,-1.955 3.259,-1.955 3.91,-1.955 0,-0.651 0,0 0,0 0.652,1.955 -0.651,3.91 -1.303,5.214 -2.607,1.303 -4.562,1.955 -6.516,2.606 -3.259,1.304 -4.562,1.304 -9.775,1.955 -1.955,0 -1.955,-0.651 -5.865,-0.651 0,0.651 0.652,1.303 1.303,1.954 1.304,1.955 2.607,3.259 3.91,4.562 h 10.427 c 2.606,-0.652 3.909,-1.303 6.516,-2.607 1.955,0 0,3.259 0,5.214 -0.652,0.651 -1.303,1.303 -2.607,1.955 -1.955,0.651 -3.909,1.303 -6.516,2.606 -1.955,0.652 -5.865,1.955 -9.123,1.303 -3.258,-1.303 -3.258,-0.651 -5.213,-1.955 -3.259,-4.561 -5.213,-9.774 -7.168,-14.336 0,-1.303 -3.259,-9.123 -3.259,-10.426 0,-0.652 -0.651,-1.955 -0.651,-1.955 -2.607,0.652 -14.337,2.607 -17.595,-0.652 -1.303,-1.303 -2.606,-2.606 -4.561,-7.168 -2.607,2.607 -4.562,3.258 -7.168,3.258 -2.607,0 -6.517,-2.606 -8.472,-5.213 0,-0.651 -4.561,-10.426 -4.561,-19.549 0,-4.562 2.606,-6.517 5.213,-10.427 h 6.516 c -0.651,2.607 -1.303,5.865 -2.606,9.775 -0.652,2.607 0.651,8.472 1.303,13.685 0,0 1.303,1.303 3.258,1.955 1.304,1.303 1.955,0.651 3.91,0.651 0.652,0 0.652,-0.651 0.652,-0.651 -2.607,-2.607 -2.607,-5.213 -3.258,-9.123 0,-1.955 2.606,-11.078 5.213,-16.292 h 5.213 c 0,0 -1.303,12.382 -0.652,13.685 0,2.607 0.652,4.562 1.304,6.517 1.303,-0.652 2.606,-0.652 3.909,-1.304 1.304,-1.303 1.304,-2.606 1.304,-4.561 v -5.213 -3.259 -5.865 h 5.865 c 0,5.865 0.651,5.214 1.303,8.472 0.651,1.955 0,3.258 0.651,5.213 0,1.303 0.652,2.607 1.304,3.258 1.955,1.304 3.258,1.304 5.865,0.652 0,-1.955 0,-3.91 -0.652,-5.865 -0.652,-2.606 -1.303,-5.865 -2.607,-9.123 0,-0.652 -0.651,-1.955 -1.303,-2.607 h 7.82 c 0,0 1.303,2.607 1.955,5.865 1.955,-1.955 3.91,-0.651 5.213,-0.651 1.955,0.651 3.258,2.606 4.561,3.91 -2.606,1.303 -7.819,1.303 -7.819,3.258 -1.304,4.561 0,5.213 0,7.82 0,3.909 -3.91,5.213 -7.82,5.864 -1.303,0.652 -3.91,0.652 -5.213,0.652 -1.304,-0.652 -2.607,-2.607 -3.91,-2.607 0,0 -3.258,1.955 -5.213,2.607 -0.652,0 -4.562,1.303 -4.562,1.303 0.652,1.304 1.303,2.607 1.955,3.259 0.652,0 2.607,2.606 2.607,2.606 1.303,0.652 3.258,0 5.213,-1.303 3.258,-0.652 5.865,-1.303 6.516,-1.303 0.652,0 2.607,-0.652 2.607,-0.652 1.955,0.652 1.955,1.955 3.258,1.955 3.91,1.955 4.562,2.606 8.472,2.606 3.258,0 5.864,-5.864 7.819,-7.819 0.652,-1.304 5.214,-7.168 7.82,-12.382 1.303,0.652 1.303,1.955 2.607,1.955 0,1.304 -0.652,6.517 -1.304,7.168 -1.303,5.865 -5.213,7.169 -5.213,7.82 1.304,0 3.91,-0.651 5.213,-0.651 0.652,-0.652 2.607,-1.304 4.562,-2.607 0.652,-0.652 1.955,-1.303 2.607,-1.955 0.651,-2.607 0.651,-4.562 1.955,-7.168 0,-0.652 0,-1.303 0.651,-1.955 1.955,3.91 3.91,4.561 5.213,7.82 m -7.168,-16.291 c -1.955,-0.652 -5.865,1.303 -5.865,-2.607 -1.303,-2.607 -1.955,-5.213 -1.955,-6.517 h 6.517 c 1.955,2.607 2.607,5.214 1.303,9.124 m -67.119,74.287 c -1.304,0 -3.91,-0.651 -4.562,-1.303 0,0 -2.607,0 -3.91,-1.303 0,-1.955 0,-3.91 -0.651,-6.517 -1.304,-1.303 -4.562,-2.606 -4.562,-5.865 0,0 2.607,-0.651 3.258,-0.651 1.304,0.651 2.607,1.955 3.258,2.606 1.955,0.652 2.607,1.955 4.562,2.607 1.303,0.652 2.607,10.426 2.607,10.426 m -61.255,45.616 c -0.652,4.561 -1.955,8.471 -1.955,9.123 0,5.213 0.651,6.516 1.303,9.774 -2.607,-1.303 -5.865,-3.258 -7.82,-4.561 v -3.258 c 0,-1.304 0.652,-7.82 0.652,-9.775 0.652,-1.955 0.652,-3.91 0.652,-5.865 0.651,-1.303 1.303,-2.606 1.303,-3.91 0,0 1.303,0.652 1.955,1.955 1.955,1.955 2.606,3.91 3.91,6.517 m 78.849,-74.94 c -0.652,2.607 -1.303,5.865 -1.303,8.472 0,0 -1.955,1.303 -3.91,1.303 -1.303,0 -2.607,0.652 -3.91,0 0.652,-1.955 0.652,-3.258 1.303,-5.213 1.955,-2.607 4.562,-3.91 6.517,-5.213 0.651,0 1.303,0.651 1.303,0.651 m -54.087,52.784 c 0,0 -1.955,5.864 -2.606,9.123 -0.652,1.303 0.651,3.91 -0.652,5.865 -0.652,1.303 -2.607,1.954 -3.91,2.606 -1.303,0 -3.258,-2.606 -3.258,-5.213 0,-1.303 0.652,-5.213 1.955,-7.168 0,-0.652 1.303,-1.303 2.606,-1.955 1.955,-1.303 3.91,-1.955 5.865,-3.258 m 12.382,3.91 c 0,0 -0.652,3.258 -1.304,4.561 0,1.303 -0.651,1.955 -2.606,3.258 -0.652,0 -1.955,1.304 -2.607,0.652 0,0 -0.651,-4.562 -1.303,-5.213 1.303,-1.955 2.606,-3.258 3.258,-5.213 0.652,-1.955 1.303,-4.562 2.607,-6.517 0.651,2.607 1.955,3.91 1.955,8.472 m 14.988,-18.898 c 1.954,1.955 0,4.561 0,6.516 -0.652,2.607 0,4.562 -0.652,6.517 -0.652,1.303 -1.955,1.955 -3.258,1.955 -1.304,0 -4.562,1.955 -4.562,0.651 -3.258,0 -0.652,-3.258 -0.652,-5.213 0,-2.606 6.517,-9.123 6.517,-9.123 1.303,-0.652 1.303,0 2.607,-1.303 m -43.009,77.546 c -6.517,-1.955 -11.078,-3.258 -12.382,-5.213 -3.258,-1.955 -3.909,-3.259 -7.168,-5.214 0,-3.258 0,-3.258 0.652,-5.213 l 0.652,-7.82 c 1.303,1.955 4.561,5.865 6.516,8.472 1.303,1.303 3.91,4.561 10.426,7.168 0.652,2.607 1.304,5.213 1.304,7.82 m 80.804,-95.141 c -1.955,0.652 -5.213,4.562 -7.168,6.517 -1.955,1.303 -0.652,3.258 -2.607,4.561 -1.303,0 -2.606,0 -3.258,-0.651 -1.955,0 -3.258,0 -5.213,-0.652 0.652,-1.303 0.652,-2.607 1.955,-3.258 2.606,-2.607 2.606,-3.258 4.561,-6.517 0.652,-1.303 4.562,-1.955 7.168,-1.955 1.304,0 3.91,1.304 4.562,1.955 m -24.763,26.718 c 0.652,1.955 0,5.213 -0.651,8.471 -2.607,-0.651 -7.82,-1.303 -7.82,-3.258 v -5.213 c 0.652,-1.303 0.652,-3.258 0.652,-5.213 0,-0.652 -0.652,-1.955 0,-3.91 0.651,1.303 3.91,2.606 4.561,3.258 1.303,1.955 2.607,3.258 3.258,5.865 m 13.033,-7.82 c 0,0 -0.651,5.213 -1.303,8.471 v 10.427 c -2.607,-0.652 -3.258,-1.303 -3.91,-1.303 -1.955,-1.304 -3.258,-1.955 -3.258,-3.259 0,-2.606 0.652,-5.213 0.652,-6.516 0,-2.607 0,-3.91 0.651,-4.562 1.955,-0.651 2.607,-0.651 5.213,-1.303 0,-0.652 1.955,-1.955 1.955,-1.955 m -67.771,90.579 c -0.652,1.303 -5.865,0 -7.168,0 -3.258,-0.652 -9.123,-2.607 -9.123,-3.258 -0.652,-1.955 -0.652,-6.517 -0.652,-7.168 0.652,-1.955 0.652,-3.91 1.304,-5.865 1.954,1.955 2.606,2.606 3.909,3.258 0.652,0.652 7.82,5.865 8.472,6.517 1.303,1.303 1.955,0.651 2.606,1.954 0,3.259 1.304,3.259 0.652,4.562 m 129.678,-149.227 c 0,0 -1.303,7.82 -1.303,17.594 0,0.652 -1.955,3.91 -3.259,4.562 -0.651,0.651 -1.955,1.303 -3.258,1.955 v -2.607 c 0,-2.606 0.652,-2.606 0.652,-3.91 0,-1.303 1.955,-10.426 1.955,-13.033 3.258,-0.651 3.258,-3.258 5.213,-4.561 m -29.976,44.963 c -2.607,1.955 -3.258,3.259 -4.561,4.562 -1.955,1.303 -3.259,1.955 -5.865,4.562 h -7.82 c 1.303,-3.259 1.955,-5.214 6.516,-8.472 1.955,-1.955 7.169,-1.303 11.73,-0.652 m -33.234,55.39 c -5.213,3.259 -11.73,3.259 -18.246,3.259 -5.213,0 -11.73,0 -18.246,-4.562 0.651,-2.606 1.303,-4.561 2.606,-7.168 0.652,0 1.304,-1.303 1.955,-1.303 1.304,1.303 2.607,3.258 4.562,3.91 v -2.607 c 0,-1.955 0,-3.258 0.652,-5.213 0,-1.955 1.955,-1.955 4.561,-1.955 1.955,0 2.607,4.561 2.607,5.213 0,0 0.651,-2.606 4.561,-4.561 0,0 4.562,0 4.562,0.651 0.651,3.258 1.303,3.91 0.651,6.517 0,0 3.91,-2.607 5.865,-5.213 1.303,1.303 2.607,3.909 2.607,4.561 1.303,2.607 1.303,5.865 1.303,8.471 m 16.291,-37.143 c -2.606,4.561 -3.258,8.471 -3.258,9.123 -1.303,1.303 1.303,5.864 -1.955,5.864 -1.303,0.652 -5.213,1.955 -5.213,1.955 -0.652,-1.955 -0.652,-5.864 0,-7.819 0,-1.955 3.258,-8.472 4.561,-9.123 0.652,-0.652 3.91,-0.652 4.562,-0.652 0.652,0.652 1.303,0.652 1.303,0.652 m -84.062,97.095 c 0,1.303 -0.652,2.607 -1.304,3.91 -0.651,1.303 -1.954,3.91 -1.954,4.561 0,5.214 0.651,6.517 1.303,11.078 -2.607,0.652 -5.865,0.652 -7.168,-1.955 -1.304,-1.955 -1.304,-3.909 -1.304,-5.864 0,-3.259 0.652,-5.214 1.304,-9.123 -2.607,-1.955 -3.91,-3.259 -6.517,-4.562 0.652,-3.91 1.304,-11.078 1.304,-11.078 1.303,1.955 1.303,1.955 2.606,3.258 2.607,1.955 3.91,3.259 7.168,5.865 0.652,1.303 1.304,0.652 3.258,1.955 0.652,0.652 1.304,1.303 1.304,1.955 m 114.038,-105.567 c -1.303,1.303 -2.607,2.607 -3.91,3.91 -2.606,0.652 -3.91,1.955 -5.213,3.91 -0.652,1.303 -1.303,3.258 -2.607,4.561 -1.303,0 -1.955,-0.651 -3.258,-1.303 -1.303,-1.955 -3.91,-1.955 -5.213,-3.91 0.652,-1.303 1.303,-1.955 2.607,-3.258 0.651,-0.652 1.303,-1.955 3.909,-3.258 4.562,-2.607 5.865,-3.258 5.865,-3.258 3.91,-0.652 7.82,2.606 7.82,2.606 m -20.201,18.898 v 1.303 c -1.955,1.955 -3.91,6.517 -3.91,7.82 h -3.258 c -0.652,0.652 -1.955,0.652 -2.607,0.652 0,0 0.652,-2.607 1.955,-5.865 0.652,-1.303 1.955,-2.607 2.607,-2.607 1.303,-0.651 3.258,-1.303 5.213,-1.303 m 52.783,-50.177 c -0.651,0.652 -1.303,5.865 -1.955,9.775 0,1.303 -1.954,3.258 -3.258,4.561 -0.651,-1.955 -2.606,-3.258 -2.606,-5.865 0,0 3.258,-3.258 3.91,-5.213 0.651,-1.303 0,-7.168 0.651,-7.819 1.955,1.303 3.258,1.954 3.258,4.561 m 60.604,-39.75 c -4.562,7.168 -11.078,9.123 -14.988,9.123 -3.259,0 -7.169,-3.91 -9.775,-16.292 -0.652,-3.909 -1.303,-7.819 -0.652,-10.426 l 5.865,-0.652 c 1.303,1.955 1.303,5.214 2.607,7.82 0,1.304 1.303,1.304 2.606,1.304 1.304,-0.652 3.259,-3.91 4.562,-5.214 0.651,1.304 1.955,3.91 1.955,5.865 0,0.652 -1.955,1.303 -2.607,1.303 -1.303,1.304 -2.606,2.607 -5.213,2.607 -0.652,2.607 3.258,5.865 3.258,5.865 3.91,0 8.472,-5.213 8.472,-5.213 1.955,0.651 2.606,2.606 3.91,3.91 m -48.222,43.008 c -0.652,1.304 -1.304,3.259 -1.955,4.562 0,0.651 0,1.955 -0.652,3.91 -0.652,0 -3.91,-3.259 -4.561,-3.91 2.606,-3.258 1.303,-5.213 1.955,-7.82 0,-1.303 1.954,-1.955 2.606,-3.91 0,-0.651 -1.303,-5.865 -1.303,-5.865 3.91,5.214 3.91,11.078 3.91,13.033 m 59.3,-57.345 v 4.562 h -3.259 c -1.955,0 -3.91,-1.303 -4.561,-3.258 -0.652,-1.955 -1.303,-3.259 -2.607,-4.562 0.652,-0.652 1.955,-0.652 2.607,-0.652 h 6.516 c 0.652,0.652 0.652,2.607 1.304,3.91 m -91.883,93.838 c 1.304,0 1.304,3.258 0,3.258 -4.561,1.303 -8.471,2.606 -11.078,6.516 -0.651,-0.651 -3.91,-1.955 -5.213,-3.258 0,0 1.303,-3.258 3.91,-7.168 1.955,-1.955 5.865,-0.652 9.123,0.652 z m -11.078,16.942 c -2.606,1.304 -5.213,2.607 -7.819,3.259 -2.607,1.303 -4.562,2.606 -6.517,4.561 -1.303,0 -1.955,-0.651 -2.607,-0.651 -1.303,-0.652 -1.954,-1.304 -3.258,-1.955 1.955,-2.607 3.91,-3.91 5.865,-5.865 0.652,-1.304 2.607,-1.304 3.91,-1.304 h 6.516 c 1.304,0.652 2.607,0.652 3.91,1.955 m -14.988,31.931 c -9.774,5.213 -17.594,7.168 -24.111,7.168 0,0.652 -1.303,1.304 0,1.955 1.955,1.303 2.607,1.955 3.259,2.607 1.955,1.955 3.258,4.561 3.91,7.82 1.955,3.909 3.909,2.606 5.213,11.078 -1.955,0 -2.607,-1.304 -4.562,-1.955 0.652,1.955 1.304,3.909 1.304,5.864 0.651,3.259 1.954,5.865 1.954,10.427 1.955,0.651 4.562,2.606 5.214,5.213 0,0.652 0,2.607 0.651,5.213 0,3.258 0.652,6.517 -0.651,9.123 0,0.652 -3.91,7.168 -7.168,9.123 -4.562,1.955 -6.517,1.303 -9.775,0.652 -4.562,0 -9.123,-3.91 -9.123,-11.078 -3.91,0 -11.73,-0.652 -16.291,-4.562 -3.259,1.955 -6.517,2.607 -9.775,3.259 h -5.865 c -0.652,2.606 -1.955,5.213 -4.561,7.168 -3.259,1.955 -6.517,4.561 -11.078,4.561 -1.955,0 -3.91,0.652 -5.865,-0.651 -1.955,-1.304 -5.213,-2.607 -5.865,-5.214 -1.955,-3.258 -2.607,-5.864 -2.607,-9.123 0,-3.258 1.304,-5.213 3.91,-8.471 0.652,-1.303 1.303,-1.303 2.607,-1.955 0.651,0 3.258,-1.303 3.91,-1.955 0.651,-0.652 -0.652,-2.607 -0.652,-6.516 0,-3.259 0,-3.259 0.652,-5.214 0,-2.606 0.651,-5.213 1.303,-7.168 -1.955,0 -3.258,1.955 -4.562,0.652 0,-1.303 1.304,-4.562 2.607,-7.168 3.258,-3.91 6.517,-7.168 8.471,-10.427 0,-0.651 0,-1.954 0.652,-1.954 -4.561,-0.652 -9.123,-0.652 -13.685,-1.955 -4.561,-1.304 -8.471,-3.259 -12.381,-5.214 0,-2.606 0.652,-4.561 0.652,-4.561 0.651,0 6.516,3.258 11.729,4.561 8.472,2.607 13.033,1.955 13.033,1.955 0.652,-1.303 1.304,-3.258 0.652,-3.91 -7.82,-3.258 -15.639,-7.168 -22.808,-11.078 0.652,-1.303 0,-3.258 1.304,-4.561 6.516,3.91 15.639,7.82 22.156,10.426 2.606,0.652 2.606,0 3.258,0 0.652,-0.651 1.955,-2.606 3.258,-2.606 1.955,0 3.91,1.303 5.865,1.955 3.91,1.303 7.168,2.606 11.078,3.258 0.652,0.652 0.652,1.955 0.652,3.258 0.651,1.303 0.651,1.303 0.651,3.258 0,0.652 -1.955,1.304 -3.258,3.91 -1.303,1.955 0,3.91 -0.652,3.91 -1.954,-1.303 -4.561,-2.606 -5.213,0 -0.651,1.303 -0.651,3.91 1.304,4.562 6.516,3.258 13.032,3.258 19.549,0 1.303,0 1.955,-1.304 1.955,-2.607 0.652,-0.652 0,-1.955 -1.303,-3.258 -1.955,-0.652 -3.91,1.955 -3.91,0 0,-1.955 -1.304,-4.562 -4.562,-5.865 -0.651,-0.652 0,-2.607 0.652,-4.562 0,-0.651 0,-1.954 0.651,-1.954 2.607,-0.652 6.517,-1.304 8.472,-2.607 2.606,-1.303 6.516,-4.562 7.168,-3.91 1.955,0.652 3.258,2.607 4.562,3.91 7.168,-3.258 13.032,-4.562 21.504,-10.426 1.303,0 1.303,2.606 1.303,3.909 -3.258,1.955 -12.381,6.517 -13.684,7.169 -2.607,0.651 -3.91,1.955 -6.517,2.606 v 5.213 c 4.562,-1.303 13.685,-1.955 22.156,-7.168 0.652,1.955 1.955,3.258 1.303,3.91 m 52.132,-68.423 v 1.955 c 0,0 -1.303,2.607 -1.303,3.258 -0.652,1.304 -1.303,3.259 -3.258,3.91 0,0.652 -0.652,-2.606 -1.304,-3.91 -0.651,-1.303 -0.651,-0.651 -1.955,-3.258 1.304,-1.955 1.955,-3.258 3.259,-5.213 0,-0.652 1.955,-2.607 1.955,-2.607 0,0 2.606,4.562 2.606,5.865 m 82.759,-73.636 c 0,0.652 0,1.955 -1.303,2.607 h -3.258 c -1.304,0.651 -1.955,0.651 -2.607,0 -1.955,-1.955 -1.955,-5.214 -3.258,-7.169 h 7.82 c 1.303,1.304 2.606,1.955 2.606,4.562 m -90.579,89.927 c 0,5.865 -1.303,5.865 -3.909,8.472 0,0 -1.955,-4.562 -3.91,-6.517 3.258,-1.955 3.91,-5.213 3.91,-5.213 2.606,2.607 2.606,1.955 3.909,3.258 m 24.763,-22.156 c 0,1.955 -0.652,3.259 -1.955,4.562 -0.652,1.955 -1.303,4.561 -1.303,5.865 -0.652,1.303 -3.258,5.213 -4.562,7.168 -1.303,1.303 -1.303,4.561 -1.955,5.865 0,0 0,0.651 0,0 0,0 -5.864,-0.652 -7.168,-0.652 3.258,-5.213 6.517,-10.426 8.472,-15.64 0.651,-1.954 6.516,-20.852 6.516,-20.852 1.955,0.651 -0.652,10.426 0,11.078 0.652,1.303 0.652,1.955 1.955,2.606 m -46.919,47.571 c 1.304,1.955 -1.303,1.955 -1.954,2.606 -0.652,1.303 -1.955,3.91 -2.607,4.562 -0.652,1.303 -1.303,2.606 -1.955,3.258 -0.652,0.652 -3.258,0 -4.562,0 -0.651,0 -1.303,0 -2.606,-0.652 1.303,-1.303 2.606,-5.865 2.606,-5.865 0.652,-1.303 0.652,-1.954 1.955,-2.606 3.259,-0.652 5.865,0 9.123,-1.303 m 14.988,-11.078 c 0,0 -7.168,4.561 -8.471,6.516 -1.955,0 -1.955,0 -3.91,-1.955 -1.303,0 -1.955,-0.652 -2.607,-1.955 1.955,-1.303 2.607,-1.955 4.562,-3.258 0.652,-0.652 1.303,-0.652 3.258,0 h 4.562 c 1.303,0 2.606,-0.652 2.606,0.652 m 43.661,-32.583 c 0.651,1.955 -0.652,5.865 -1.304,7.168 -1.955,0 -3.258,1.304 -4.561,1.304 -0.652,0 -1.303,3.258 -3.258,2.606 0.651,-1.303 1.955,-7.82 2.606,-9.123 0.652,-0.651 2.607,-4.561 2.607,-9.123 2.606,1.955 3.258,5.213 3.91,7.168 m 45.615,-42.357 c 0,0.652 -1.955,1.955 -2.607,1.955 0,0.652 -0.651,3.258 -1.303,3.91 -1.303,0.652 -1.303,1.303 -2.606,1.303 0,-0.651 0,-1.303 -0.652,-2.606 0,-1.304 -1.303,-1.955 -0.652,-3.259 0.652,-1.303 1.304,-1.303 2.607,-2.606 0.651,-0.652 2.606,-5.213 3.258,-5.865 0.652,0.652 0.652,4.562 1.955,7.168 m -106.87,102.96 c 0,1.304 -0.652,2.607 -1.303,4.562 -0.652,3.258 -1.955,5.213 -2.607,7.168 0,1.955 0,3.258 -0.652,4.562 -0.651,0 -1.303,0 -1.955,0.651 -1.955,0 -3.91,0.652 -3.91,0.652 0,-1.955 0.652,-5.213 0.652,-7.168 0,-0.652 1.955,-6.517 2.607,-7.168 0.651,-1.304 1.303,-1.955 2.606,-1.955 1.955,0 3.259,-1.304 4.562,-1.304 m 56.042,-41.705 c -0.652,1.955 -1.955,2.607 -3.259,4.562 0,0 -8.471,3.258 -9.774,3.258 -1.304,-0.652 3.258,-3.258 3.909,-5.213 2.607,-2.607 8.472,-7.82 8.472,-7.82 z m -71.682,63.21 c 0,3.91 -1.955,8.471 -3.258,12.381 -0.652,2.607 -1.955,3.91 -3.258,5.865 -0.652,-0.652 -1.303,-1.955 -1.303,-2.607 -1.304,-1.955 -3.259,-3.258 -1.955,-5.213 0.651,-2.606 0.651,-5.865 2.606,-7.82 1.955,-1.955 4.562,-1.303 7.168,-2.606 0,-0.652 0,0 0,0 m 141.408,-105.567 c 0,31.931 -11.078,59.951 -25.414,74.939 -7.82,8.472 -17.595,13.033 -26.066,13.033 -7.82,0 -13.685,-5.213 -13.685,-11.078 0,-22.807 9.123,-37.795 14.988,-50.828 1.303,-3.258 1.955,-5.213 1.955,-8.472 0.651,-8.471 -5.865,-23.459 -10.426,-31.93 -0.652,0.651 -3.91,1.303 -6.517,1.303 -5.865,0 -8.471,-4.562 -9.775,-8.471 -1.955,0 -3.258,0.651 -5.213,0.651 -7.82,0.652 -13.684,-5.865 -13.684,-13.684 0,-7.82 1.955,-12.382 4.561,-18.247 h 6.517 c -0.652,1.955 -2.607,11.078 -3.259,13.685 -0.651,3.91 0.652,6.517 2.607,8.471 2.607,3.91 9.123,2.607 9.123,2.607 -1.955,-3.258 -4.562,-8.471 -4.562,-13.685 0.652,-2.606 1.304,-7.819 3.259,-11.078 h 5.213 c 0.652,3.91 0,7.169 0,10.427 v 5.213 c 0,1.303 3.258,-2.607 3.258,-2.607 0,0 2.607,3.259 2.607,5.865 0,1.955 -3.91,1.304 -4.562,3.258 -0.651,1.955 1.303,6.517 1.303,6.517 3.91,2.607 7.168,1.955 8.472,1.955 1.955,0 2.606,-0.652 5.213,-0.652 1.955,0 2.607,3.91 2.607,5.865 0.651,-0.652 1.955,-1.955 2.606,-1.955 1.955,-1.303 2.607,-1.303 4.562,-1.955 3.258,-0.651 5.865,-1.955 8.471,-4.561 v 0.651 c -0.651,2.607 0.652,5.865 -1.303,7.168 0,0 -3.258,2.607 -6.517,3.91 -1.303,1.304 -3.258,1.304 -3.91,2.607 -0.651,0.652 -0.651,1.303 -0.651,2.606 0,1.304 0.651,3.259 1.303,3.259 1.303,0.651 1.955,0 4.562,-1.304 3.258,-1.303 5.865,-3.258 7.819,-4.561 0,0 0.652,-1.303 0.652,-0.652 2.607,1.304 2.607,1.955 2.607,5.865 -2.607,3.258 0,3.91 -3.91,6.517 -1.303,0 -9.123,1.954 -9.123,1.954 0,1.304 1.955,4.562 1.955,4.562 1.303,0.652 2.606,0.652 3.258,-0.652 3.91,-2.606 6.516,-2.606 10.426,-3.91 0.652,1.955 0.652,3.259 -0.651,4.562 -1.304,1.955 -3.259,3.91 -4.562,4.562 -2.606,0.651 -3.91,1.303 -5.865,1.954 0,1.955 -0.651,3.91 -1.303,6.517 0,1.303 1.303,0.652 2.607,0.652 2.606,0.651 13.033,-3.259 13.033,-3.259 0,2.607 -0.652,3.91 -1.955,5.214 -0.652,1.303 -1.955,2.606 -5.214,3.909 -4.561,1.304 -8.471,0.652 -12.381,2.607 -2.607,2.607 -3.258,3.258 -3.91,5.865 1.955,0.652 5.213,1.303 7.82,1.303 3.258,0 5.213,0.652 9.123,-0.651 1.303,-0.652 5.213,-4.562 7.168,-4.562 0,0 -1.303,5.213 -2.606,7.168 -1.304,0 -4.562,3.91 -5.865,3.91 -6.517,2.607 -7.82,1.303 -12.382,0.652 -1.955,-0.652 -3.909,0 -5.213,0 -0.651,1.303 1.304,3.91 0.652,5.213 0,0.651 -2.607,1.303 -2.607,2.606 0,0 9.775,1.304 14.337,0.652 1.303,-0.652 5.213,-3.258 6.516,-3.258 0,0 1.303,4.561 -0.652,8.471 -3.258,0.652 -6.516,0 -9.774,0.652 -2.607,0.652 -5.214,0 -7.168,0 -1.304,0 -3.259,0.652 -5.214,0.652 -1.303,1.954 -1.955,3.909 -1.955,5.864 0,0 16.292,0.652 17.595,0.652 -0.652,0.652 -1.955,1.303 -3.258,2.607 -2.607,4.561 -4.562,5.213 -7.168,5.213 -1.955,0 -6.517,-1.955 -9.123,-1.304 0,5.214 2.606,9.775 6.516,9.775 7.168,0 15.64,-3.258 22.156,-10.426 15.64,-16.291 23.459,-48.222 23.459,-69.726 0,-10.427 -0.651,-20.853 -1.955,-28.021 1.955,-0.652 2.607,-0.652 4.562,-0.652 1.955,7.168 3.91,18.246 3.91,28.021 m -109.477,73.636 c 0,0 -1.303,7.82 -2.607,16.291 -1.303,7.82 -1.303,10.427 -3.258,13.685 -1.303,-0.652 -1.955,-0.652 -3.258,-0.652 -1.955,-0.651 -3.258,-1.303 -3.258,-1.303 1.303,-5.213 3.258,-11.73 3.91,-18.898 0,-1.955 -0.652,-3.91 0,-5.865 z m 42.357,-9.123 c 0,1.955 -0.652,4.562 -2.606,5.865 -5.214,-1.955 -11.73,-2.607 -16.292,-2.607 -5.864,0 -12.381,1.304 -22.156,5.213 -0.651,-1.303 0,-3.909 0,-3.909 4.562,-3.259 4.562,-1.304 7.82,-4.562 1.303,-0.652 1.955,-3.258 2.607,-7.82 0.651,-2.606 1.955,-3.258 3.258,-7.168 1.955,1.303 4.561,0.652 4.561,0.652 0,3.258 -1.303,6.516 -1.303,7.168 -0.651,1.303 -2.606,5.213 -3.258,6.516 0.652,0 2.607,-2.606 5.213,-2.606 0.652,0 2.607,-0.652 3.91,0 0,0 1.955,-1.304 1.955,-2.607 1.303,-1.955 1.303,-3.258 1.955,-5.213 1.303,0 1.955,0 2.606,0.652 2.607,0 3.91,0.651 3.91,0.651 -0.651,1.304 -1.303,2.607 -1.303,3.91 -0.652,1.303 -1.955,4.562 -1.955,4.562 z m -84.062,112.083 c -5.214,4.562 -11.73,8.472 -18.247,11.078 -4.561,-3.258 -7.168,-5.865 -8.471,-5.865 -1.955,0 -0.652,3.91 -0.652,6.517 -1.955,0 -3.258,0 -5.213,0.652 -1.303,-4.562 -1.955,-10.427 -5.213,-12.382 -1.303,-0.651 -1.955,-0.651 -2.607,-0.651 v 5.864 c 0,0.652 2.607,5.214 1.955,5.865 0,0 -5.864,-1.303 -7.168,-1.955 -0.651,-0.651 -3.91,-2.606 -4.561,-2.606 0,0 -1.955,0.651 -2.607,0.651 -1.955,1.304 -3.258,1.304 -5.213,2.607 -2.607,-7.82 -3.258,-10.426 -3.258,-9.123 0,0 -8.472,6.516 -11.73,10.426 -8.471,-1.303 -8.471,-2.606 -16.291,-5.213 -1.955,-2.607 -5.865,-6.516 -8.471,-10.426 -1.304,-1.955 -2.607,-3.259 -3.91,-5.865 l 6.516,-2.607 c 0.652,0.652 3.91,5.213 4.562,6.517 4.561,1.955 12.381,6.516 14.988,9.774 0.651,-1.303 7.819,-6.516 11.078,-8.471 2.606,-1.303 5.213,-1.955 7.819,-3.258 1.304,1.955 2.607,3.258 3.91,7.82 1.955,-1.304 4.562,-1.304 5.865,-1.955 0,-2.607 0,-4.562 0.652,-7.168 0,-1.304 1.303,-0.652 3.91,0.651 3.909,1.303 7.819,1.955 9.774,2.607 4.562,1.955 6.517,7.168 11.078,7.168 3.258,0 9.123,-1.955 10.427,-3.258 1.955,-0.652 3.258,-1.304 5.213,-1.304 1.955,0 3.91,2.607 5.865,3.91 m 134.89,-180.506 c 0,0.652 0,5.213 -1.303,5.213 -0.651,0.652 -1.303,2.607 -1.955,3.258 -0.651,-1.955 0,-3.258 0,-4.561 0,-1.303 -2.606,-2.607 -1.955,-3.258 1.955,-0.652 3.259,-5.214 4.562,-6.517 1.955,-2.606 1.303,4.562 0.651,5.865 m -99.701,111.432 c 1.303,0 0,1.955 0,2.606 -2.607,4.562 -4.562,11.73 -5.214,11.73 -1.955,0.652 -3.258,0 -5.864,1.303 -1.304,1.304 -5.214,3.258 -6.517,3.91 -0.652,0 -1.955,0.652 -4.561,1.303 h -3.259 c 0.652,-1.955 2.607,-3.909 3.259,-5.213 0,-0.651 0,-2.606 0.651,-3.91 1.303,0 3.258,-0.651 3.91,-1.303 0.652,0 4.562,-0.652 5.865,-1.955 1.303,0 5.865,-5.865 6.516,-6.516 1.955,-1.304 3.91,-2.607 5.214,-1.955 m -6.517,17.594 c 0,4.562 -1.955,8.472 -3.258,11.078 0,0.652 -0.652,1.303 -1.955,1.955 -1.955,1.955 -3.91,3.91 -4.562,3.91 -1.955,1.955 -2.606,3.91 -4.561,5.865 -1.955,0 -3.258,-1.955 -4.562,-2.607 -0.651,-1.303 -3.258,-2.606 -1.955,-3.258 0.652,-1.303 1.955,-1.303 3.259,-1.955 1.303,-1.303 2.606,-1.955 4.561,-3.258 1.955,-2.607 3.258,-5.865 6.517,-8.472 1.303,0 1.955,-0.651 2.606,-0.651 0.652,0 3.258,-1.955 3.91,-2.607 m -14.988,24.111 c 0.652,1.303 -0.651,3.258 -0.651,5.213 -1.304,4.562 -3.259,9.123 -3.91,14.336 v 1.955 c -2.607,1.304 -5.214,1.955 -8.472,3.259 0,0 0,-3.91 1.304,-5.214 1.303,-3.258 3.258,-8.471 3.258,-11.078 0,-1.954 0.651,-3.909 1.303,-5.864 3.258,-1.955 7.168,-2.607 7.168,-2.607 m 203.966,-117.296 c -1.303,1.303 -3.259,1.955 -4.562,1.955 0,1.955 -0.651,4.561 0,7.168 1.303,0 3.91,-0.652 3.91,0 0,3.258 -0.651,7.819 -1.303,9.774 -1.304,0.652 -3.258,1.304 -5.213,1.955 0,1.955 -0.652,3.91 -1.304,5.214 1.955,0.651 3.259,0.651 4.562,0.651 0,0 -1.303,5.865 -1.955,7.82 -1.303,0.652 -3.258,0.652 -3.91,0.652 -0.652,1.303 -1.303,2.606 -1.955,4.561 1.303,0.652 2.607,0.652 3.258,1.303 -0.651,3.259 -1.303,4.562 -2.606,6.517 h -4.562 c -0.652,1.303 -1.303,2.606 -1.303,3.91 0.651,0.651 1.955,1.303 2.607,1.955 -0.652,1.303 -1.956,3.258 -3.259,4.561 -1.303,0 -2.606,-0.651 -3.91,0 -0.651,0 -2.606,2.607 -1.955,2.607 0.652,1.303 1.955,1.955 2.607,2.606 -1.955,2.607 -2.607,4.562 -4.562,5.865 -1.303,0 -2.606,0 -3.909,-0.651 0,0 -0.652,1.955 -1.304,2.606 -1.955,0 0.652,3.258 0.652,3.258 -1.303,1.955 -3.258,3.91 -5.865,7.169 -1.303,0 -2.606,-1.955 -3.258,-1.955 0,0 -2.607,2.606 -2.607,3.258 0,1.303 2.607,1.955 2.607,1.955 0,0 -5.213,5.213 -8.471,7.168 -1.304,-0.652 -1.955,-0.652 -3.259,-0.652 -1.303,1.955 -3.91,3.258 -3.91,3.258 0,0 1.955,1.304 1.955,1.955 -3.258,1.304 -4.561,2.607 -7.168,4.562 -2.606,1.303 -3.91,3.258 -5.213,5.213 -4.562,7.168 -9.775,16.943 -24.111,18.898 0,0 -0.652,0 0,0 1.955,-2.607 3.258,-5.213 5.213,-7.82 h -2.606 -4.562 c -1.303,1.303 -1.955,1.955 -2.606,3.258 -0.652,2.607 -1.304,3.259 -2.607,4.562 -2.607,1.955 -16.291,-5.213 -26.718,-7.82 2.607,-2.606 5.214,-4.561 5.865,-5.865 2.607,-3.258 7.168,-9.123 11.078,-13.684 0.652,0.651 1.304,1.303 2.607,1.955 8.471,1.303 8.471,3.258 8.471,3.258 0,0 -6.516,5.213 -1.955,5.213 0,0 3.259,-0.652 3.91,0.652 3.258,0.651 7.168,1.303 9.123,0 2.607,-1.955 3.91,-4.562 5.865,-6.517 -1.303,0 -2.606,0.652 -3.91,0.652 -3.91,0.652 -7.82,0 -11.078,-0.652 0,0 5.213,-4.561 6.517,-5.865 h -5.213 c -1.955,-0.651 -3.91,-1.303 -4.562,-1.303 -1.955,-0.652 -3.91,0 -5.213,-0.652 2.606,-1.303 13.684,-5.864 19.549,-5.864 5.213,0 8.472,0.651 12.381,2.606 0.652,0.652 1.955,1.304 2.607,0.652 2.607,-0.652 3.91,-1.303 5.213,-2.607 16.291,-11.078 35.189,-35.189 41.054,-47.57 5.865,-11.73 9.123,-25.414 9.123,-38.447 0.652,-16.943 -5.865,-33.234 -16.943,-48.222 -6.516,-8.471 -18.897,-15.64 -31.279,-16.943 3.91,-4.561 5.865,-11.73 7.82,-17.594 0,0 3.91,0.651 6.516,1.955 0,4.561 -3.258,10.426 -3.258,11.729 0,0 3.91,2.607 7.82,2.607 0.652,-1.955 2.607,-5.213 5.213,-9.775 2.607,1.303 4.562,2.607 5.865,4.562 0,3.258 -1.303,7.168 -2.607,11.078 3.91,1.955 6.517,2.606 6.517,2.606 1.303,-1.955 4.561,-3.91 5.213,-5.865 0,0 3.258,3.259 4.561,6.517 -1.303,1.955 -3.258,4.561 -4.561,7.168 l 5.213,5.865 c 0,0 3.258,-2.607 4.562,-3.91 1.955,2.607 3.258,5.213 3.91,8.471 -2.607,3.259 -3.91,3.259 -4.562,5.214 1.303,1.303 1.955,3.909 2.607,5.864 1.955,-0.651 3.258,-1.955 4.561,-2.606 1.303,2.606 2.607,6.516 2.607,9.123 -1.304,1.303 -3.258,1.955 -4.562,3.258 0.652,3.258 1.304,5.865 1.304,5.865 0,0 3.258,-0.652 4.561,-0.652 0.652,3.91 0.652,7.82 0.652,10.427 m -61.255,-81.456 c 1.303,0.651 0,1.955 0,2.606 -0.652,0 -3.258,5.213 -5.213,7.82 0,0 -0.652,-1.955 -1.304,-3.258 -1.303,-2.607 -1.955,-3.91 -1.955,-5.865 1.955,-1.303 2.607,-0.652 5.214,-0.652 1.303,0 2.606,-0.651 3.258,-0.651"
       style="fill:#ffffff;fill-opacity:1;fill-rule:nonzero;stroke:none"
       transform="matrix(0.8393902,0,0,-0.8393902,-1171.9104,773.71631)"
       clip-path="url(#clipPath124)" />
  </g>
</svg>
