<?xml version="1.0" encoding="UTF-8" standalone="no"?>
<svg
   width="640"
   height="360"
   viewBox="0 0 49.345536 27.756864"
   version="1.1"
   id="svg1339"
   sodipodi:docname="provider-ing-white-640x360.svg"
   inkscape:version="1.3.2 (091e20e, 2023-11-25)"
   xmlns:inkscape="http://www.inkscape.org/namespaces/inkscape"
   xmlns:sodipodi="http://sodipodi.sourceforge.net/DTD/sodipodi-0.dtd"
   xmlns="http://www.w3.org/2000/svg"
   xmlns:svg="http://www.w3.org/2000/svg">
  <defs
     id="defs1343">
    <clipPath
       clipPathUnits="userSpaceOnUse"
       id="clipPath22">
      <path
         d="m 709.016,297.402 h 561.948 V 438.449 H 709.016 Z"
         id="path22" />
    </clipPath>
    <clipPath
       clipPathUnits="userSpaceOnUse"
       id="clipPath24">
      <path
         d="m 709.016,297.402 h 561.948 V 438.449 H 709.016 Z"
         id="path24" />
    </clipPath>
  </defs>
  <sodipodi:namedview
     id="namedview1341"
     pagecolor="#ffffff"
     bordercolor="#666666"
     borderopacity="1.0"
     inkscape:pageshadow="2"
     inkscape:pageopacity="0.0"
     inkscape:pagecheckerboard="true"
     showgrid="false"
     inkscape:zoom="0.40727392"
     inkscape:cx="1032.4747"
     inkscape:cy="644.52936"
     inkscape:window-width="1792"
     inkscape:window-height="1006"
     inkscape:window-x="0"
     inkscape:window-y="25"
     inkscape:window-maximized="0"
     inkscape:current-layer="g1337"
     inkscape:showpageshadow="2"
     inkscape:deskcolor="#d1d1d1" />
  <g
     fill-rule="evenodd"
     clip-rule="evenodd"
     id="g1337">
    <g
       id="g1"
       transform="matrix(0.68333725,0,0,0.68333725,-25.781935,2.8652357)">
      <path
         id="path21"
         d="m 709.0154,300.0147 v 4.105 c 8.955,0 15.299,0.746 15.299,13.806 v 69.031 c 0,13.433 -4.851,13.806 -15.299,13.806 v 4.105 h 52.986 v -4.105 c -10.821,0 -15.299,-0.373 -15.299,-13.806 v -69.031 c 0,-13.06 5.597,-13.806 15.299,-13.806 v -4.105 z m 182.466,79.479 v -80.225 h -6.343 l -80.226,82.837 c 0.373,-2.239 0.373,-4.104 0.373,-6.343 v -50.374 c 0,-15.672 0,-21.269 14.18,-21.269 v -4.105 h -37.687 v 4.105 c 14.179,0 14.179,6.716 14.179,21.269 v 57.463 c 0,8.583 0,17.911 -14.926,17.911 v 4.105 h 35.449 l 66.046,-67.912 c -0.373,1.866 -0.373,2.985 -0.373,5.597 v 36.941 c 0,14.926 0.373,21.269 -13.807,21.269 v 4.105 h 37.688 v -4.105 c -13.807,0 -14.553,-5.97 -14.553,-21.269 m 130.2256,-44.031 v -26.866 c -14.925,-7.463 -29.1046,-11.194 -43.2836,-11.194 -39.18,0 -62.688,23.135 -62.688,52.24 0,31.344 26.866,57.464 61.195,57.464 8.583,0 14.926,-1.493 21.643,-3.732 4.8496,-1.492 7.8356,-3.358 10.8206,-3.358 2.612,0 3.358,4.478 3.731,7.09 h 3.732 l 3.358,-36.195 h -4.478 c -1.866,7.09 -5.224,13.06 -9.702,17.164 -7.0886,7.09 -16.7906,10.821 -27.9846,10.821 -23.508,0 -37.314,-18.657 -37.314,-46.642 0,-27.613 16.791,-46.643 39.18,-46.643 6.716,0 12.686,1.493 20.1486,4.851 v 27.612 c 0,8.956 -1.4916,12.314 -14.1786,12.314 v 4.105 h 47.3886 v -4.105 c -11.941,0 -11.568,-3.731 -11.568,-14.926"
         style="fill:#ffffff;fill-opacity:1;fill-rule:nonzero;stroke:none"
         transform="matrix(0.1028032,0,0,-0.1028032,-27.938413,53.940735)"
         clip-path="url(#clipPath22)" />
      <path
         id="path23"
         d="m 1113.125,386.2107 c -0.373,-0.373 -1.866,-1.119 -1.866,-1.119 -0.746,-0.374 -1.119,-0.747 -2.239,-1.12 -0.373,0.746 -0.746,2.239 -0.746,2.239 0,0 1.493,0.373 2.612,0.373 0.746,0 1.493,0 2.239,-0.373 m 2.985,19.776 c 0,-0.373 -0.373,-2.238 -0.373,-2.612 -0.373,-2.238 -0.373,-2.985 -0.746,-6.343 v -1.119 c -0.373,-0.747 -1.866,-1.12 -2.612,-2.239 -0.373,-1.12 -0.373,-1.866 -1.493,-2.239 -1.119,-0.373 -1.866,-1.119 -2.612,-0.746 -0.746,0.373 -0.746,2.239 0,3.358 0.746,1.493 2.239,2.239 3.358,2.612 1.493,0.373 1.12,3.358 1.12,3.731 0.373,0.747 0,1.866 0,2.612 -0.746,-0.373 -0.746,0 -2.239,-0.373 -1.493,0 -2.239,0.746 -2.985,1.12 -0.373,0.746 -2.239,2.238 -2.985,3.731 1.865,0.373 2.985,0.373 4.851,0.373 h 4.85 c 1.12,-0.373 1.866,-1.119 1.866,-1.866 m 17.165,-19.776 c 0,-0.373 -0.374,-2.239 -0.374,-2.239 -1.492,0.373 -2.238,1.493 -4.104,1.493 0,1.119 0,1.119 0.373,1.492 2.239,0.373 2.985,-0.373 4.105,-0.746 m -24.628,32.463 c 0,-0.373 0,-0.746 -0.373,-0.746 0,0 -1.866,-1.493 -2.612,-2.239 -1.865,-0.746 -2.239,-2.612 -3.358,-2.612 -0.746,0.746 -2.239,1.866 -2.985,2.985 -1.12,1.493 -0.746,2.985 -0.746,3.359 0.746,2.238 3.358,2.985 4.85,3.358 0.747,0 1.493,0 2.612,-0.746 1.493,-0.747 1.866,-0.747 2.612,-3.359 m 9.702,-3.731 c 0,-1.493 -1.12,-2.239 -2.239,-3.732 -0.746,-1.119 -1.119,-0.373 -2.985,-0.373 h -1.866 c 0,1.12 0.747,1.493 1.866,2.612 1.119,0.747 2.239,1.493 2.985,1.493 0.746,0.373 2.239,0.746 2.239,0 m 19.776,-7.463 c 0,0 -0.373,-0.746 -0.746,-0.746 -0.373,-0.747 -1.119,-1.12 -1.866,-1.493 -0.373,0 -0.746,-0.746 -0.746,-1.119 -0.746,-0.747 -2.239,-1.12 -3.358,-1.12 -0.746,0 -2.239,0 -2.985,1.12 0,0 0.373,-4.105 0.373,-5.224 0,-0.373 0.373,-0.373 0.373,-0.373 1.493,-0.373 1.866,-1.866 2.239,-2.612 0,0 0.373,-0.373 0.746,-0.373 1.866,-1.493 5.224,-2.986 3.732,-2.986 0,-0.746 -1.12,-2.238 -1.493,-2.238 l -4.478,2.238 c -0.373,0.747 -0.746,1.493 -1.119,2.612 -0.746,0.747 -1.12,0.747 -2.239,1.493 0,2.612 -0.373,2.612 -0.373,5.224 0,0.373 -0.746,4.104 -0.746,4.104 0,0.374 1.119,1.493 2.238,1.866 0,0 7.09,0 10.448,-0.373 m -7.089,4.105 c -0.746,-0.747 -2.612,-0.374 -4.478,-0.374 0,0.747 0,2.239 -0.746,2.239 -0.746,0.747 -1.866,0.747 -1.866,1.493 -1.492,1.119 2.239,0.373 4.105,0 0.746,0 7.089,-1.493 2.985,-3.358 m 11.567,4.104 c -0.373,-1.119 -1.492,-1.866 -2.612,-1.866 -1.866,1.866 -3.731,3.359 -6.716,4.105 -0.374,1.493 1.119,2.985 1.865,4.105 1.12,1.119 2.612,1.492 4.105,1.119 1.866,-0.373 2.239,-0.746 2.985,-1.493 1.119,-1.492 0.746,-4.477 0.373,-5.97 m 73.136,-1.119 h -1.866 l -2.239,-1.493 -3.358,2.239 3.731,1.493 z m 15.299,-6.717 -4.105,3.358 -1.493,1.866 3.732,1.12 z m -132.092,-103.733 c -0.373,0.746 -1.493,2.239 -3.359,2.985 -2.238,0 -1.492,-3.731 -2.238,-5.597 -0.374,-0.373 -0.747,-1.119 -0.374,-1.493 h 5.598 c 0,0 0.373,3.359 0.373,4.105 m 8.582,29.478 c -3.731,1.493 -3.358,2.985 -4.851,3.731 -1.866,1.493 -4.851,2.986 -9.328,4.478 -1.12,0.373 -3.732,0 -4.851,0 -2.985,-5.224 -4.105,-10.075 -5.971,-15.299 -0.373,-1.119 -1.119,-3.358 -1.119,-3.358 -1.866,1.12 -3.731,1.866 -5.597,1.866 -2.985,0 -4.851,-1.12 -5.97,-4.105 -1.12,0.373 -2.612,1.12 -4.478,0.747 -2.612,-0.374 -4.851,-1.866 -5.97,-4.105 -0.747,-1.493 -1.493,-2.985 -0.747,-4.478 -2.239,-0.746 -3.358,-2.612 -4.104,-4.104 -0.746,-2.985 1.865,-7.836 2.985,-8.956 h 3.731 c -0.746,3.359 -2.238,4.851 -1.119,7.836 0.746,1.866 3.358,2.612 4.104,2.985 0,1.493 -1.865,2.612 -1.492,4.105 0.746,1.866 2.985,1.866 5.224,1.493 -0.373,-2.239 -0.746,-5.224 -1.12,-8.21 -0.373,-2.985 1.493,-8.209 1.493,-8.209 h 3.358 0.373 c -0.373,1.12 -0.746,2.239 -0.746,3.359 -0.373,1.119 -0.373,1.865 -0.373,2.612 0.373,1.492 0.373,2.985 0.373,4.104 3.732,1.866 2.612,-0.746 3.358,-1.492 0,0 1.493,3.358 -0.373,4.85 -0.373,0.374 -2.612,0 -2.612,0.374 0,0.373 0.373,1.492 0.747,2.612 0.746,1.492 1.119,1.492 1.865,2.985 0.373,0.373 1.493,0.373 2.985,0 0.374,0 2.239,-0.747 3.359,-1.12 -0.373,-0.746 -1.866,-2.985 -2.239,-4.104 -1.493,-4.478 -1.493,-9.329 -1.12,-14.18 h 4.105 c 0,2.612 -0.373,5.597 0,7.836 0.746,3.359 1.493,3.732 1.866,3.732 0.746,0 1.492,-0.747 1.865,-1.493 0.747,-3.731 -1.492,-6.716 -1.492,-10.075 h 2.985 c 0,0 1.119,0.374 1.493,1.493 0.746,2.239 2.238,4.478 2.612,6.343 0.373,1.866 -0.374,3.359 -1.493,5.597 -1.119,1.493 -2.239,2.612 -4.851,4.478 -0.746,1.493 0,3.358 0,3.358 0,-0.373 1.493,0.374 2.239,0.374 2.985,-0.747 3.731,-0.747 5.224,-1.493 1.119,-0.373 2.612,-1.493 3.358,-2.239 1.493,-0.373 2.612,-2.612 3.732,-5.224 0,0 0.746,4.851 0.746,5.97 -1.493,1.866 -2.985,3.359 -5.224,4.478 -1.866,1.493 -5.97,2.612 -7.836,3.358 0,0 0.746,1.12 0.746,1.866 2.239,0.373 4.851,0.373 5.971,0 3.731,-1.119 8.209,-3.358 10.074,-4.851 0,0 0.747,1.493 0.747,2.239 0,0 -5.224,3.358 -4.851,4.478 -1.493,0.746 -2.612,1.866 -4.478,2.239 -1.866,0.373 -6.343,0.746 -6.343,0.746 0,0 1.119,1.493 2.239,2.612 h 2.985 c 1.119,0 5.224,-1.119 7.462,-2.239 3.359,-1.492 5.224,-2.612 5.598,-2.985 0.373,0.746 0.746,2.239 0.746,2.985 m -12.687,20.523 c -0.746,0.373 -2.239,-0.373 -3.358,-0.373 -1.12,0 -3.732,0 -3.732,-0.373 0.374,-0.747 0.374,-1.493 0.747,-2.239 0.373,-0.747 0.746,-1.493 0.746,-3.359 0,-1.119 0.373,-2.238 0,-3.731 0,0 4.851,2.612 4.851,3.358 0.373,1.12 0,1.866 0.373,2.985 0,0.747 0,2.612 0.373,3.732 m -1.492,5.97 c -0.747,0.746 -1.12,1.866 -1.493,2.612 -1.493,0 -7.09,-2.239 -7.09,-2.239 1.12,-1.865 1.866,-4.104 2.612,-5.97 0.747,0 1.493,0.373 2.239,1.119 0.746,1.493 2.985,3.732 3.732,4.478 m 11.94,-11.94 v 2.612 c -0.373,0.746 0,2.238 0,3.358 -0.373,0.373 -1.119,0.373 -1.492,0 h -2.239 c 0,0 -0.747,-2.985 -0.747,-5.224 -0.373,-1.12 -0.746,-1.866 -0.746,-2.239 -0.746,-1.493 -1.119,-1.866 -1.866,-3.731 1.12,-0.374 2.239,0.373 2.985,0.373 0.747,0.373 1.866,0.746 2.239,1.119 0.374,0.373 1.493,2.985 1.866,3.732 m 17.911,-20.523 c -0.373,0.373 -0.373,1.119 -0.746,1.866 -0.747,1.865 -0.374,2.985 -0.747,5.224 h -2.612 c -0.746,-0.374 -1.119,0 -1.866,-0.374 0,-1.492 0.374,-2.612 1.493,-4.104 0.746,-2.239 4.478,-2.612 4.478,-2.612 m -32.463,40.299 c -0.747,1.866 -1.12,2.239 -2.239,3.358 -0.373,-0.373 -2.239,-1.492 -2.612,-2.239 -0.747,-0.373 -1.493,-0.746 -1.866,-1.119 0,-0.746 0.373,-0.746 0.746,-1.492 0,-0.747 0.373,-2.612 0.373,-4.105 0,0 1.12,0.746 1.12,1.493 1.866,2.238 4.104,3.731 4.478,4.104 m 23.134,-18.657 c 0,0.373 -1.119,0.373 -1.865,0.373 -0.747,0 -1.493,-0.373 -2.239,-0.373 -0.747,-1.119 -1.12,-2.239 -1.493,-3.731 -0.373,-1.12 -0.746,-1.866 -1.119,-2.612 0,0 2.985,0.746 3.731,0.746 1.12,0.746 1.866,1.119 2.612,2.612 0.373,1.119 0.746,1.492 0.373,2.985 m 50.748,-34.702 c -0.747,3.358 -2.613,4.851 -4.478,5.97 -0.746,0.373 -7.463,3.732 -8.582,3.732 -2.239,-0.374 -5.971,-0.374 -7.836,-1.493 -0.374,1.119 -0.747,2.985 0,4.105 0.373,0.746 3.731,0.746 4.85,0.746 4.105,-0.373 6.344,-1.12 7.463,-1.12 0.746,-1.119 1.866,-1.119 2.239,-1.119 0,-0.373 0,0 0,0 0.373,1.119 -0.373,2.239 -0.746,2.985 -1.493,0.746 -2.612,1.12 -3.732,1.493 -1.865,0.746 -2.612,0.746 -5.597,1.119 -1.119,0 -1.119,-0.373 -3.358,-0.373 0,0.373 0.373,0.746 0.746,1.119 0.747,1.12 1.493,1.866 2.239,2.612 h 5.97 c 1.493,-0.373 2.239,-0.746 3.732,-1.492 1.119,0 0,1.866 0,2.985 -0.373,0.373 -0.747,0.746 -1.493,1.119 -1.119,0.373 -2.239,0.747 -3.731,1.493 -1.12,0.373 -3.358,1.119 -5.224,0.746 -1.866,-0.746 -1.866,-0.373 -2.985,-1.119 -1.866,-2.612 -2.985,-5.597 -4.105,-8.209 0,-0.747 -1.866,-5.224 -1.866,-5.971 0,-0.373 -0.373,-1.119 -0.373,-1.119 -1.492,0.373 -8.209,1.493 -10.075,-0.373 -0.746,-0.746 -1.492,-1.493 -2.611,-4.105 -1.493,1.493 -2.612,1.866 -4.105,1.866 -1.493,0 -3.732,-1.493 -4.851,-2.985 0,-0.373 -2.612,-5.97 -2.612,-11.194 0,-2.612 1.493,-3.732 2.985,-5.971 h 3.732 c -0.373,1.493 -0.747,3.359 -1.493,5.597 -0.373,1.493 0.373,4.851 0.746,7.836 0,0 0.747,0.747 1.866,1.12 0.746,0.746 1.12,0.373 2.239,0.373 0.373,0 0.373,-0.373 0.373,-0.373 -1.492,-1.493 -1.492,-2.985 -1.866,-5.224 0,-1.12 1.493,-6.344 2.986,-9.329 h 2.985 c 0,0 -0.747,7.09 -0.374,7.836 0,1.493 0.374,2.612 0.747,3.732 0.746,-0.373 1.492,-0.373 2.239,-0.747 0.746,-0.746 0.746,-1.492 0.746,-2.612 v -2.985 -1.865 -3.359 h 3.358 c 0,3.359 0.373,2.985 0.746,4.851 0.374,1.12 0,1.866 0.374,2.985 0,0.747 0.373,1.493 0.746,1.866 1.119,0.746 1.866,0.746 3.358,0.373 0,-1.119 0,-2.239 -0.373,-3.358 -0.373,-1.493 -0.746,-3.358 -1.493,-5.224 0,-0.373 -0.373,-1.119 -0.746,-1.493 h 4.478 c 0,0 0.746,1.493 1.119,3.359 1.12,-1.12 2.239,-0.374 2.985,-0.374 1.12,0.374 1.866,1.493 2.612,2.239 -1.492,0.747 -4.477,0.747 -4.477,1.866 -0.747,2.612 0,2.985 0,4.478 0,2.239 -2.239,2.985 -4.478,3.358 -0.746,0.373 -2.239,0.373 -2.985,0.373 -0.746,-0.373 -1.493,-1.492 -2.239,-1.492 0,0 -1.866,1.119 -2.985,1.492 -0.373,0 -2.612,0.746 -2.612,0.746 0.373,0.747 0.746,1.493 1.119,1.866 0.374,0 1.493,1.493 1.493,1.493 0.746,0.373 1.866,0 2.985,-0.747 1.866,-0.373 3.358,-0.746 3.731,-0.746 0.374,0 1.493,-0.373 1.493,-0.373 1.119,0.373 1.119,1.119 1.866,1.119 2.239,1.12 2.612,1.493 4.851,1.493 1.865,0 3.358,-3.358 4.477,-4.478 0.373,-0.746 2.985,-4.104 4.478,-7.089 0.746,0.373 0.746,1.119 1.492,1.119 0,0.746 -0.373,3.731 -0.746,4.105 -0.746,3.358 -2.985,4.104 -2.985,4.477 0.746,0 2.239,-0.373 2.985,-0.373 0.373,-0.373 1.493,-0.746 2.612,-1.492 0.373,-0.374 1.12,-0.747 1.493,-1.12 0.373,-1.492 0.373,-2.612 1.119,-4.104 0,-0.374 0,-0.747 0.373,-1.12 1.12,2.239 2.239,2.612 2.986,4.478 m -4.105,-9.329 c -1.119,-0.373 -3.358,0.747 -3.358,-1.492 -0.747,-1.493 -1.12,-2.985 -1.12,-3.732 h 3.732 c 1.119,1.493 1.492,2.985 0.746,5.224 m -38.434,42.538 c -0.746,0 -2.238,-0.373 -2.612,-0.746 0,0 -1.492,0 -2.239,-0.746 0,-1.12 0,-2.239 -0.373,-3.732 -0.746,-0.746 -2.612,-1.492 -2.612,-3.358 0,0 1.493,-0.373 1.866,-0.373 0.746,0.373 1.493,1.119 1.866,1.493 1.119,0.373 1.492,1.119 2.612,1.492 0.746,0.373 1.492,5.97 1.492,5.97 m -35.075,26.12 c -0.373,2.612 -1.119,4.851 -1.119,5.224 0,2.985 0.373,3.732 0.746,5.597 -1.493,-0.746 -3.358,-1.865 -4.478,-2.612 v -1.865 c 0,-0.747 0.373,-4.478 0.373,-5.597 0.374,-1.12 0.374,-2.239 0.374,-3.359 0.373,-0.746 0.746,-1.492 0.746,-2.239 0,0 0.746,0.374 1.119,1.12 1.12,1.119 1.493,2.239 2.239,3.731 m 45.15,-42.911 c -0.373,1.493 -0.746,3.358 -0.746,4.851 0,0 -1.119,0.746 -2.239,0.746 -0.746,0 -1.493,0.373 -2.239,0 0.373,-1.119 0.373,-1.865 0.746,-2.985 1.12,-1.492 2.613,-2.239 3.732,-2.985 0.373,0 0.746,0.373 0.746,0.373 m -30.971,30.225 c 0,0 -1.119,3.358 -1.492,5.224 -0.373,0.746 0.373,2.238 -0.373,3.358 -0.373,0.746 -1.493,1.119 -2.239,1.492 -0.746,0 -1.866,-1.492 -1.866,-2.985 0,-0.746 0.373,-2.985 1.12,-4.104 0,-0.373 0.746,-0.747 1.492,-1.12 1.12,-0.746 2.239,-1.119 3.358,-1.865 m 7.09,2.238 c 0,0 -0.373,1.866 -0.746,2.612 0,0.747 -0.373,1.12 -1.493,1.866 -0.373,0 -1.119,0.746 -1.492,0.373 0,0 -0.373,-2.612 -0.746,-2.985 0.746,-1.119 1.492,-1.866 1.865,-2.985 0.373,-1.119 0.746,-2.612 1.493,-3.731 0.373,1.492 1.119,2.238 1.119,4.85 m 8.582,-10.821 c 1.12,1.12 0,2.612 0,3.732 -0.373,1.492 0,2.612 -0.373,3.731 -0.373,0.746 -1.119,1.12 -1.865,1.12 -0.747,0 -2.612,1.119 -2.612,0.373 -1.866,0 -0.374,-1.866 -0.374,-2.985 0,-1.493 3.732,-5.224 3.732,-5.224 0.746,-0.374 0.746,0 1.492,-0.747 m -24.627,44.404 c -3.731,-1.119 -6.343,-1.866 -7.09,-2.985 -1.865,-1.119 -2.238,-1.866 -4.104,-2.985 0,-1.866 0,-1.866 0.373,-2.985 l 0.373,-4.478 c 0.746,1.119 2.612,3.358 3.732,4.851 0.746,0.746 2.238,2.612 5.97,4.104 0.373,1.493 0.746,2.986 0.746,4.478 m 46.27,-54.479 c -1.12,0.374 -2.986,2.612 -4.105,3.732 -1.119,0.746 -0.373,1.866 -1.493,2.612 -0.746,0 -1.492,0 -1.865,-0.373 -1.12,0 -1.866,0 -2.985,-0.373 0.373,-0.747 0.373,-1.493 1.119,-1.866 1.493,-1.493 1.493,-1.866 2.612,-3.732 0.373,-0.746 2.612,-1.119 4.105,-1.119 0.746,0 2.238,0.746 2.612,1.119 m -14.18,15.299 c 0.373,1.12 0,2.985 -0.373,4.851 -1.492,-0.373 -4.478,-0.746 -4.478,-1.866 v -2.985 c 0.374,-0.746 0.374,-1.865 0.374,-2.985 0,-0.373 -0.374,-1.119 0,-2.239 0.373,0.747 2.238,1.493 2.612,1.866 0.746,1.119 1.492,1.866 1.865,3.358 m 7.463,-4.477 c 0,0 -0.373,2.985 -0.746,4.85 v 5.971 c -1.493,-0.373 -1.866,-0.747 -2.239,-0.747 -1.12,-0.746 -1.866,-1.119 -1.866,-1.865 0,-1.493 0.373,-2.985 0.373,-3.732 0,-1.492 0,-2.239 0.373,-2.612 1.12,-0.373 1.493,-0.373 2.986,-0.746 0,-0.373 1.119,-1.119 1.119,-1.119 m -38.807,51.866 c -0.373,0.746 -3.358,0 -4.104,0 -1.866,-0.373 -5.224,-1.492 -5.224,-1.866 -0.373,-1.119 -0.373,-3.731 -0.373,-4.104 0.373,-1.119 0.373,-2.239 0.746,-3.358 1.119,1.119 1.493,1.492 2.239,1.865 0.373,0.374 4.478,3.359 4.851,3.732 0.746,0.746 1.119,0.373 1.492,1.119 0,1.866 0.747,1.866 0.373,2.612 m 74.255,-85.449 c 0,0 -0.746,4.478 -0.746,10.075 0,0.373 -1.119,2.239 -1.865,2.612 -0.374,0.373 -1.12,0.746 -1.866,1.119 v -1.492 c 0,-1.493 0.373,-1.493 0.373,-2.239 0,-0.747 1.119,-5.971 1.119,-7.463 1.866,-0.373 1.866,-1.866 2.985,-2.612 m -17.164,25.747 c -1.493,1.119 -1.866,1.865 -2.612,2.612 -1.119,0.746 -1.866,1.119 -3.358,2.612 h -4.478 c 0.746,-1.866 1.119,-2.986 3.731,-4.851 1.12,-1.12 4.105,-0.747 6.717,-0.373 m -19.03,31.717 c -2.985,1.865 -6.717,1.865 -10.448,1.865 -2.985,0 -6.717,0 -10.448,-2.612 0.373,-1.492 0.746,-2.612 1.492,-4.104 0.374,0 0.747,-0.747 1.12,-0.747 0.746,0.747 1.492,1.866 2.612,2.239 v -1.492 c 0,-1.12 0,-1.866 0.373,-2.985 0,-1.12 1.119,-1.12 2.612,-1.12 1.119,0 1.493,2.612 1.493,2.985 0,0 0.373,-1.492 2.612,-2.612 0,0 2.612,0 2.612,0.373 0.373,1.866 0.746,2.239 0.373,3.732 0,0 2.238,-1.493 3.358,-2.985 0.746,0.746 1.493,2.239 1.493,2.612 0.746,1.492 0.746,3.358 0.746,4.851 m 9.328,-21.269 c -1.492,2.612 -1.865,4.85 -1.865,5.224 -0.747,0.746 0.746,3.358 -1.12,3.358 -0.746,0.373 -2.985,1.119 -2.985,1.119 -0.373,-1.119 -0.373,-3.358 0,-4.477 0,-1.12 1.866,-4.851 2.612,-5.224 0.373,-0.374 2.239,-0.374 2.612,-0.374 0.373,0.374 0.746,0.374 0.746,0.374 m -48.135,55.598 c 0,0.746 -0.373,1.492 -0.746,2.238 -0.373,0.747 -1.12,2.239 -1.12,2.612 0,2.986 0.374,3.732 0.747,6.344 -1.493,0.373 -3.359,0.373 -4.105,-1.12 -0.746,-1.119 -0.746,-2.238 -0.746,-3.358 0,-1.866 0.373,-2.985 0.746,-5.224 -1.492,-1.119 -2.239,-1.866 -3.731,-2.612 0.373,-2.239 0.746,-6.343 0.746,-6.343 0.746,1.119 0.746,1.119 1.493,1.865 1.492,1.12 2.238,1.866 4.104,3.359 0.373,0.746 0.746,0.373 1.866,1.119 0.373,0.373 0.746,0.746 0.746,1.12 m 65.3,-60.449 c -0.747,0.746 -1.493,1.492 -2.239,2.239 -1.493,0.373 -2.239,1.119 -2.985,2.238 -0.373,0.747 -0.746,1.866 -1.493,2.612 -0.746,0 -1.119,-0.373 -1.865,-0.746 -0.747,-1.119 -2.239,-1.119 -2.986,-2.239 0.374,-0.746 0.747,-1.119 1.493,-1.865 0.373,-0.374 0.746,-1.12 2.239,-1.866 2.612,-1.493 3.358,-1.866 3.358,-1.866 2.239,-0.373 4.478,1.493 4.478,1.493 m -11.568,10.821 v 0.746 c -1.119,1.12 -2.238,3.732 -2.238,4.478 h -1.866 c -0.373,0.373 -1.12,0.373 -1.493,0.373 0,0 0.373,-1.493 1.12,-3.358 0.373,-0.747 1.119,-1.493 1.492,-1.493 0.747,-0.373 1.866,-0.746 2.985,-0.746 m 30.225,-28.732 c -0.373,0.373 -0.746,3.358 -1.12,5.597 0,0.746 -1.119,1.866 -1.865,2.612 -0.373,-1.119 -1.493,-1.866 -1.493,-3.358 0,0 1.866,-1.866 2.239,-2.985 0.373,-0.747 0,-4.105 0.373,-4.478 1.12,0.746 1.866,1.119 1.866,2.612 m 34.702,-22.762 c -2.612,4.105 -6.343,5.224 -8.582,5.224 -1.866,0 -4.105,-2.239 -5.597,-9.328 -0.374,-2.239 -0.747,-4.478 -0.374,-5.97 l 3.359,-0.374 c 0.746,1.12 0.746,2.985 1.492,4.478 0,0.746 0.747,0.746 1.493,0.746 0.746,-0.373 1.866,-2.239 2.612,-2.985 0.373,0.746 1.119,2.239 1.119,3.358 0,0.374 -1.119,0.747 -1.492,0.747 -0.747,0.746 -1.493,1.492 -2.985,1.492 -0.374,1.493 1.865,3.359 1.865,3.359 2.239,0 4.851,-2.986 4.851,-2.986 1.12,0.374 1.493,1.493 2.239,2.239 m -27.612,24.628 c -0.374,0.746 -0.747,1.865 -1.12,2.612 0,0.373 0,1.119 -0.373,2.238 -0.373,0 -2.239,-1.865 -2.612,-2.238 1.493,-1.866 0.746,-2.985 1.119,-4.478 0,-0.746 1.12,-1.119 1.493,-2.239 0,-0.373 -0.746,-3.358 -0.746,-3.358 2.239,2.985 2.239,6.343 2.239,7.463 m 33.955,-32.837 v 2.612 h -1.865 c -1.12,0 -2.239,-0.746 -2.612,-1.866 -0.373,-1.119 -0.747,-1.865 -1.493,-2.611 0.373,-0.374 1.12,-0.374 1.493,-0.374 h 3.731 c 0.373,0.374 0.373,1.493 0.746,2.239 m -52.612,53.733 c 0.746,0 0.746,1.865 0,1.865 -2.613,0.747 -4.851,1.493 -6.344,3.732 -0.373,-0.373 -2.239,-1.12 -2.985,-1.866 0,0 0.746,-1.866 2.239,-4.105 1.119,-1.119 3.358,-0.373 5.224,0.374 z m -6.344,9.701 c -1.493,0.747 -2.985,1.493 -4.478,1.866 -1.492,0.746 -2.612,1.492 -3.731,2.612 -0.746,0 -1.119,-0.373 -1.493,-0.373 -0.746,-0.373 -1.119,-0.747 -1.865,-1.12 1.119,-1.492 2.239,-2.238 3.358,-3.358 0.373,-0.746 1.493,-0.746 2.239,-0.746 h 3.731 c 0.746,0.373 1.493,0.373 2.239,1.119 m -8.582,18.284 c -5.597,2.985 -10.075,4.105 -13.806,4.105 0,0.373 -0.747,0.746 0,1.119 1.119,0.746 1.492,1.12 1.865,1.493 1.12,1.119 1.866,2.612 2.239,4.477 1.12,2.239 2.239,1.493 2.985,6.344 -1.119,0 -1.492,-0.746 -2.612,-1.12 0.373,1.12 0.747,2.239 0.747,3.359 0.373,1.865 1.119,3.358 1.119,5.97 1.119,0.373 2.612,1.492 2.985,2.985 0,0.373 0,1.493 0.373,2.985 0,1.866 0.373,3.732 -0.373,5.224 0,0.373 -2.239,4.105 -4.104,5.224 -2.612,1.12 -3.732,0.746 -5.598,0.373 -2.612,0 -5.223,-2.239 -5.223,-6.343 -2.239,0 -6.717,-0.373 -9.329,-2.612 -1.866,1.119 -3.732,1.492 -5.597,1.866 h -3.358 c -0.374,1.492 -1.12,2.985 -2.612,4.104 -1.866,1.12 -3.732,2.612 -6.344,2.612 -1.119,0 -2.239,0.373 -3.358,-0.373 -1.119,-0.746 -2.985,-1.493 -3.358,-2.985 -1.12,-1.866 -1.493,-3.358 -1.493,-5.224 0,-1.866 0.746,-2.985 2.239,-4.851 0.373,-0.746 0.746,-0.746 1.493,-1.119 0.373,0 1.865,-0.747 2.238,-1.12 0.373,-0.373 -0.373,-1.492 -0.373,-3.731 0,-1.866 0,-1.866 0.373,-2.985 0,-1.493 0.373,-2.985 0.747,-4.105 -1.12,0 -1.866,1.12 -2.612,0.373 0,-0.746 0.746,-2.612 1.492,-4.104 1.866,-2.239 3.732,-4.105 4.851,-5.971 0,-0.373 0,-1.119 0.373,-1.119 -2.612,-0.373 -5.224,-0.373 -7.836,-1.119 -2.612,-0.747 -4.851,-1.866 -7.089,-2.986 0,-1.492 0.373,-2.612 0.373,-2.612 0.373,0 3.731,1.866 6.716,2.612 4.851,1.493 7.463,1.12 7.463,1.12 0.373,-0.746 0.746,-1.866 0.373,-2.239 -4.478,-1.866 -8.955,-4.105 -13.06,-6.343 0.373,-0.747 0,-1.866 0.747,-2.612 3.731,2.238 8.955,4.477 12.686,5.97 1.493,0.373 1.493,0 1.866,0 0.373,-0.373 1.119,-1.493 1.866,-1.493 1.119,0 2.239,0.747 3.358,1.12 2.239,0.746 4.104,1.492 6.343,1.865 0.374,0.374 0.374,1.12 0.374,1.866 0.373,0.746 0.373,0.746 0.373,1.866 0,0.373 -1.12,0.746 -1.866,2.239 -0.746,1.119 0,2.239 -0.373,2.239 -1.12,-0.747 -2.612,-1.493 -2.985,0 -0.373,0.746 -0.373,2.238 0.746,2.612 3.731,1.865 7.463,1.865 11.194,0 0.746,0 1.12,-0.747 1.12,-1.493 0.373,-0.373 0,-1.119 -0.747,-1.866 -1.119,-0.373 -2.238,1.12 -2.238,0 0,-1.119 -0.747,-2.612 -2.612,-3.358 -0.374,-0.373 0,-1.493 0.373,-2.612 0,-0.373 0,-1.119 0.373,-1.119 1.492,-0.374 3.731,-0.747 4.851,-1.493 1.492,-0.746 3.731,-2.612 4.104,-2.239 1.12,0.373 1.866,1.493 2.612,2.239 4.105,-1.866 7.463,-2.612 12.314,-5.97 0.746,0 0.746,1.492 0.746,2.239 -1.866,1.119 -7.09,3.731 -7.836,4.104 -1.492,0.373 -2.239,1.12 -3.731,1.493 v 2.985 c 2.612,-0.746 7.836,-1.12 12.687,-4.105 0.373,1.12 1.119,1.866 0.746,2.239 m 29.851,-39.18 v 1.12 c 0,0 -0.746,1.492 -0.746,1.865 -0.373,0.747 -0.746,1.866 -1.866,2.239 0,0.373 -0.373,-1.492 -0.746,-2.239 -0.373,-0.746 -0.373,-0.373 -1.12,-1.865 0.747,-1.12 1.12,-1.866 1.866,-2.985 0,-0.374 1.12,-1.493 1.12,-1.493 0,0 1.492,2.612 1.492,3.358 m 47.389,-42.165 c 0,0.373 0,1.12 -0.746,1.493 h -1.866 c -0.746,0.373 -1.119,0.373 -1.493,0 -1.119,-1.12 -1.119,-2.985 -1.865,-4.105 h 4.477 c 0.747,0.747 1.493,1.12 1.493,2.612 m -51.867,51.494 c 0,3.358 -0.746,3.358 -2.238,4.851 0,0 -1.12,-2.612 -2.239,-3.732 1.865,-1.119 2.239,-2.985 2.239,-2.985 1.492,1.493 1.492,1.12 2.238,1.866 m 14.18,-12.687 c 0,1.119 -0.373,1.866 -1.12,2.612 -0.373,1.119 -0.746,2.612 -0.746,3.358 -0.373,0.747 -1.866,2.985 -2.612,4.105 -0.746,0.746 -0.746,2.612 -1.119,3.358 0,0 0,0.373 0,0 0,0 -3.359,-0.373 -4.105,-0.373 1.866,-2.985 3.732,-5.97 4.851,-8.955 0.373,-1.12 3.731,-11.941 3.731,-11.941 1.12,0.373 -0.373,5.97 0,6.343 0.374,0.747 0.374,1.12 1.12,1.493 m -26.866,27.239 c 0.746,1.12 -0.747,1.12 -1.12,1.493 -0.373,0.746 -1.119,2.239 -1.492,2.612 -0.373,0.746 -0.747,1.492 -1.12,1.866 -0.373,0.373 -1.866,0 -2.612,0 -0.373,0 -0.746,0 -1.492,-0.374 0.746,-0.746 1.492,-3.358 1.492,-3.358 0.373,-0.746 0.373,-1.119 1.12,-1.492 1.865,-0.374 3.358,0 5.224,-0.747 m 8.582,-6.343 c 0,0 -4.105,2.612 -4.851,3.731 -1.119,0 -1.119,0 -2.239,-1.119 -0.746,0 -1.119,-0.373 -1.492,-1.119 1.119,-0.747 1.492,-1.12 2.612,-1.866 0.373,-0.373 0.746,-0.373 1.865,0 h 2.612 c 0.747,0 1.493,-0.373 1.493,0.373 m 25,-18.657 c 0.373,1.119 -0.373,3.358 -0.746,4.104 -1.119,0 -1.866,0.747 -2.612,0.747 -0.373,0 -0.746,1.865 -1.866,1.492 0.374,-0.746 1.12,-4.477 1.493,-5.224 0.373,-0.373 1.493,-2.612 1.493,-5.224 1.492,1.12 1.865,2.985 2.238,4.105 m 26.12,-24.254 c 0,0.373 -1.119,1.119 -1.492,1.119 0,0.373 -0.373,1.866 -0.747,2.239 -0.746,0.373 -0.746,0.746 -1.492,0.746 0,-0.373 0,-0.746 -0.373,-1.492 0,-0.747 -0.747,-1.12 -0.374,-1.866 0.374,-0.746 0.747,-0.746 1.493,-1.493 0.373,-0.373 1.493,-2.985 1.866,-3.358 0.373,0.373 0.373,2.612 1.119,4.105 m -61.195,58.956 c 0,0.746 -0.373,1.493 -0.746,2.612 -0.373,1.866 -1.12,2.985 -1.493,4.105 0,1.119 0,1.865 -0.373,2.612 -0.373,0 -0.746,0 -1.119,0.373 -1.12,0 -2.239,0.373 -2.239,0.373 0,-1.12 0.373,-2.985 0.373,-4.105 0,-0.373 1.119,-3.731 1.492,-4.104 0.374,-0.747 0.747,-1.12 1.493,-1.12 1.12,0 1.866,-0.746 2.612,-0.746 m 32.09,-23.881 c -0.373,1.119 -1.119,1.493 -1.865,2.612 0,0 -4.851,1.866 -5.598,1.866 -0.746,-0.373 1.866,-1.866 2.239,-2.985 1.493,-1.493 4.851,-4.478 4.851,-4.478 z m -41.045,36.195 c 0,2.239 -1.12,4.851 -1.866,7.089 -0.373,1.493 -1.119,2.239 -1.866,3.359 -0.373,-0.373 -0.746,-1.12 -0.746,-1.493 -0.746,-1.119 -1.866,-1.866 -1.119,-2.985 0.373,-1.493 0.373,-3.358 1.492,-4.478 1.12,-1.119 2.612,-0.746 4.105,-1.492 0,-0.373 0,0 0,0 m 80.971,-60.449 c 0,18.284 -6.343,34.329 -14.552,42.911 -4.478,4.851 -10.075,7.463 -14.926,7.463 -4.477,0 -7.836,-2.985 -7.836,-6.344 0,-13.059 5.224,-21.642 8.582,-29.105 0.747,-1.865 1.12,-2.985 1.12,-4.85 0.373,-4.851 -3.358,-13.433 -5.97,-18.284 -0.373,0.373 -2.239,0.746 -3.732,0.746 -3.358,0 -4.851,-2.612 -5.597,-4.851 -1.119,0 -1.866,0.373 -2.985,0.373 -4.478,0.373 -7.836,-3.358 -7.836,-7.836 0,-4.477 1.119,-7.089 2.612,-10.448 h 3.731 c -0.373,1.12 -1.492,6.344 -1.865,7.836 -0.373,2.239 0.373,3.732 1.492,4.851 1.493,2.239 5.224,1.493 5.224,1.493 -1.119,-1.866 -2.612,-4.851 -2.612,-7.836 0.373,-1.493 0.747,-4.478 1.866,-6.344 h 2.985 c 0.373,2.239 0,4.105 0,5.971 v 2.985 c 0,0.746 1.866,-1.493 1.866,-1.493 0,0 1.492,1.866 1.492,3.358 0,1.12 -2.238,0.747 -2.612,1.866 -0.373,1.12 0.747,3.732 0.747,3.732 2.238,1.492 4.104,1.119 4.851,1.119 1.119,0 1.492,-0.373 2.985,-0.373 1.119,0 1.492,2.239 1.492,3.358 0.373,-0.373 1.12,-1.119 1.493,-1.119 1.119,-0.747 1.492,-0.747 2.612,-1.12 1.865,-0.373 3.358,-1.119 4.851,-2.612 v 0.373 c -0.374,1.493 0.373,3.359 -0.747,4.105 0,0 -1.865,1.493 -3.731,2.239 -0.746,0.746 -1.866,0.746 -2.239,1.492 -0.373,0.374 -0.373,0.747 -0.373,1.493 0,0.746 0.373,1.866 0.746,1.866 0.746,0.373 1.12,0 2.612,-0.747 1.866,-0.746 3.358,-1.865 4.478,-2.612 0,0 0.373,-0.746 0.373,-0.373 1.493,0.747 1.493,1.12 1.493,3.359 -1.493,1.865 0,2.238 -2.239,3.731 -0.747,0 -5.224,1.119 -5.224,1.119 0,0.747 1.119,2.612 1.119,2.612 0.746,0.374 1.493,0.374 1.866,-0.373 2.239,-1.492 3.731,-1.492 5.97,-2.239 0.373,1.12 0.373,1.866 -0.373,2.612 -0.746,1.12 -1.866,2.239 -2.612,2.612 -1.493,0.373 -2.239,0.747 -3.358,1.12 0,1.119 -0.373,2.239 -0.747,3.731 0,0.746 0.747,0.373 1.493,0.373 1.493,0.373 7.463,-1.865 7.463,-1.865 0,1.492 -0.373,2.238 -1.12,2.985 -0.373,0.746 -1.119,1.492 -2.985,2.239 -2.612,0.746 -4.851,0.373 -7.089,1.492 -1.493,1.493 -1.866,1.866 -2.239,3.358 1.119,0.374 2.985,0.747 4.477,0.747 1.866,0 2.986,0.373 5.224,-0.373 0.747,-0.374 2.985,-2.612 4.105,-2.612 0,0 -0.746,2.985 -1.493,4.104 -0.746,0 -2.612,2.239 -3.358,2.239 -3.731,1.493 -4.478,0.746 -7.09,0.373 -1.119,-0.373 -2.238,0 -2.985,0 -0.373,0.746 0.747,2.239 0.373,2.985 0,0.373 -1.492,0.747 -1.492,1.493 0,0 5.597,0.746 8.209,0.373 0.746,-0.373 2.985,-1.866 3.731,-1.866 0,0 0.747,2.612 -0.373,4.851 -1.865,0.373 -3.731,0 -5.597,0.373 -1.492,0.373 -2.985,0 -4.104,0 -0.747,0 -1.866,0.373 -2.986,0.373 -0.746,1.12 -1.119,2.239 -1.119,3.359 0,0 9.329,0.373 10.075,0.373 -0.373,0.373 -1.12,0.746 -1.866,1.492 -1.492,2.612 -2.612,2.985 -4.104,2.985 -1.12,0 -3.732,-1.119 -5.224,-0.746 0,2.985 1.492,5.597 3.731,5.597 4.105,0 8.955,-1.865 12.687,-5.97 8.955,-9.328 13.433,-27.612 13.433,-39.926 0,-5.97 -0.373,-11.941 -1.12,-16.045 1.12,-0.373 1.493,-0.373 2.613,-0.373 1.119,4.104 2.238,10.448 2.238,16.045 m -62.687,42.165 c 0,0 -0.747,4.477 -1.493,9.328 -0.746,4.478 -0.746,5.971 -1.866,7.836 -0.746,-0.373 -1.119,-0.373 -1.865,-0.373 -1.12,-0.373 -1.866,-0.746 -1.866,-0.746 0.746,-2.985 1.866,-6.717 2.239,-10.821 0,-1.12 -0.373,-2.239 0,-3.359 z m 24.254,-5.224 c 0,1.119 -0.373,2.612 -1.493,3.358 -2.985,-1.119 -6.716,-1.493 -9.328,-1.493 -3.359,0 -7.09,0.747 -12.687,2.986 -0.373,-0.747 0,-2.239 0,-2.239 2.612,-1.866 2.612,-0.747 4.478,-2.612 0.746,-0.373 1.119,-1.866 1.492,-4.478 0.373,-1.492 1.12,-1.866 1.866,-4.104 1.119,0.746 2.612,0.373 2.612,0.373 0,1.865 -0.746,3.731 -0.746,4.104 -0.374,0.747 -1.493,2.985 -1.866,3.732 0.373,0 1.492,-1.493 2.985,-1.493 0.373,0 1.493,-0.373 2.239,0 0,0 1.119,-0.746 1.119,-1.492 0.747,-1.12 0.747,-1.866 1.12,-2.986 0.746,0 1.119,0 1.492,0.374 1.493,0 2.239,0.373 2.239,0.373 -0.373,0.746 -0.746,1.492 -0.746,2.239 -0.373,0.746 -1.12,2.612 -1.12,2.612 z m -48.135,64.18 c -2.986,2.612 -6.717,4.851 -10.448,6.343 -2.612,-1.865 -4.105,-3.358 -4.851,-3.358 -1.12,0 -0.373,2.239 -0.373,3.732 -1.12,0 -1.866,0 -2.986,0.373 -0.746,-2.612 -1.119,-5.97 -2.985,-7.09 -0.746,-0.373 -1.119,-0.373 -1.492,-0.373 v 3.358 c 0,0.373 1.492,2.985 1.119,3.358 0,0 -3.358,-0.746 -4.104,-1.119 -0.373,-0.373 -2.239,-1.492 -2.612,-1.492 0,0 -1.12,0.373 -1.493,0.373 -1.119,0.746 -1.866,0.746 -2.985,1.492 -1.493,-4.477 -1.866,-5.97 -1.866,-5.224 0,0 -4.851,3.732 -6.716,5.97 -4.851,-0.746 -4.851,-1.492 -9.329,-2.985 -1.119,-1.492 -3.358,-3.731 -4.851,-5.97 -0.746,-1.119 -1.492,-1.866 -2.238,-3.358 l 3.731,-1.493 c 0.373,0.373 2.239,2.985 2.612,3.732 2.612,1.119 7.09,3.731 8.582,5.597 0.373,-0.746 4.478,-3.732 6.344,-4.851 1.492,-0.746 2.985,-1.119 4.477,-1.866 0.747,1.12 1.493,1.866 2.239,4.478 1.119,-0.746 2.612,-0.746 3.358,-1.119 0,-1.493 0,-2.612 0.374,-4.105 0,-0.746 0.746,-0.373 2.238,0.373 2.239,0.746 4.478,1.12 5.597,1.493 2.613,1.119 3.732,4.104 6.344,4.104 1.866,0 5.224,-1.119 5.97,-1.865 1.12,-0.374 1.866,-0.747 2.985,-0.747 1.12,0 2.239,1.493 3.359,2.239 m 77.24,-103.36 c 0,0.373 0,2.985 -0.747,2.985 -0.373,0.373 -0.746,1.493 -1.119,1.866 -0.373,-1.12 0,-1.866 0,-2.612 0,-0.746 -1.492,-1.493 -1.119,-1.866 1.119,-0.373 1.865,-2.985 2.612,-3.731 1.119,-1.493 0.746,2.612 0.373,3.358 m -57.091,63.807 c 0.746,0 0,1.12 0,1.493 -1.492,2.612 -2.612,6.716 -2.985,6.716 -1.119,0.373 -1.866,0 -3.358,0.747 -0.746,0.746 -2.985,1.865 -3.732,2.238 -0.373,0 -1.119,0.373 -2.612,0.747 h -1.865 c 0.373,-1.12 1.492,-2.239 1.865,-2.985 0,-0.374 0,-1.493 0.374,-2.239 0.746,0 1.865,-0.373 2.238,-0.747 0.373,0 2.612,-0.373 3.359,-1.119 0.746,0 3.358,-3.358 3.731,-3.731 1.12,-0.747 2.239,-1.493 2.985,-1.12 m -3.731,10.075 c 0,2.612 -1.12,4.851 -1.866,6.343 0,0.373 -0.373,0.747 -1.119,1.12 -1.12,1.119 -2.239,2.239 -2.612,2.239 -1.12,1.119 -1.493,2.238 -2.612,3.358 -1.12,0 -1.866,-1.12 -2.612,-1.493 -0.373,-0.746 -1.866,-1.492 -1.12,-1.865 0.373,-0.747 1.12,-0.747 1.866,-1.12 0.746,-0.746 1.493,-1.119 2.612,-1.866 1.119,-1.492 1.866,-3.358 3.731,-4.85 0.747,0 1.12,-0.374 1.493,-0.374 0.373,0 1.866,-1.119 2.239,-1.492 m -8.582,13.806 c 0.373,0.746 -0.374,1.866 -0.374,2.985 -0.746,2.612 -1.865,5.224 -2.238,8.209 v 1.12 c -1.493,0.746 -2.986,1.119 -4.851,1.866 0,0 0,-2.239 0.746,-2.986 0.746,-1.865 1.866,-4.85 1.866,-6.343 0,-1.119 0.373,-2.239 0.746,-3.358 1.866,-1.12 4.105,-1.493 4.105,-1.493 m 116.793,-67.165 c -0.746,0.746 -1.866,1.119 -2.612,1.119 0,1.12 -0.373,2.612 0,4.105 0.746,0 2.239,-0.373 2.239,0 0,1.865 -0.373,4.477 -0.747,5.597 -0.746,0.373 -1.865,0.746 -2.985,1.119 0,1.12 -0.373,2.239 -0.746,2.985 1.119,0.374 1.866,0.374 2.612,0.374 0,0 -0.746,3.358 -1.12,4.477 -0.746,0.373 -1.865,0.373 -2.238,0.373 -0.374,0.747 -0.747,1.493 -1.12,2.612 0.746,0.373 1.493,0.373 1.866,0.747 -0.373,1.865 -0.746,2.612 -1.493,3.731 h -2.612 c -0.373,0.746 -0.746,1.493 -0.746,2.239 0.373,0.373 1.12,0.746 1.493,1.119 -0.373,0.747 -1.12,1.866 -1.866,2.612 -0.746,0 -1.493,-0.373 -2.239,0 -0.373,0 -1.493,1.493 -1.119,1.493 0.373,0.746 1.119,1.119 1.492,1.492 -1.119,1.493 -1.492,2.612 -2.612,3.359 -0.746,0 -1.492,0 -2.239,-0.373 0,0 -0.373,1.119 -0.746,1.492 -1.119,0 0.373,1.866 0.373,1.866 -0.746,1.119 -1.865,2.239 -3.358,4.104 -0.746,0 -1.493,-1.119 -1.866,-1.119 0,0 -1.492,1.493 -1.492,1.866 0,0.746 1.492,1.119 1.492,1.119 0,0 -2.985,2.985 -4.851,4.105 -0.746,-0.373 -1.119,-0.373 -1.865,-0.373 -0.747,1.119 -2.239,1.865 -2.239,1.865 0,0 1.119,0.746 1.119,1.12 -1.865,0.746 -2.612,1.492 -4.104,2.612 -1.493,0.746 -2.239,1.865 -2.985,2.985 -2.612,4.104 -5.598,9.701 -13.807,10.821 0,0 -0.373,0 0,0 1.12,-1.493 1.866,-2.985 2.985,-4.478 h -1.492 -2.612 c -0.746,0.746 -1.12,1.12 -1.493,1.866 -0.373,1.492 -0.746,1.866 -1.492,2.612 -1.493,1.119 -9.329,-2.985 -15.299,-4.478 1.493,-1.492 2.985,-2.612 3.358,-3.358 1.493,-1.866 4.105,-5.224 6.344,-7.836 0.373,0.373 0.746,0.746 1.492,1.119 4.851,0.747 4.851,1.866 4.851,1.866 0,0 -3.731,2.985 -1.119,2.985 0,0 1.865,-0.373 2.238,0.373 1.866,0.373 4.105,0.747 5.224,0 1.493,-1.119 2.239,-2.612 3.359,-3.731 -0.747,0 -1.493,0.373 -2.239,0.373 -2.239,0.373 -4.478,0 -6.344,-0.373 0,0 2.986,-2.612 3.732,-3.358 h -2.985 c -1.12,-0.374 -2.239,-0.747 -2.612,-0.747 -1.12,-0.373 -2.239,0 -2.985,-0.373 1.492,-0.746 7.836,-3.358 11.194,-3.358 2.985,0 4.851,0.373 7.09,1.493 0.373,0.373 1.119,0.746 1.492,0.373 1.493,-0.373 2.239,-0.747 2.985,-1.493 9.329,-6.343 20.15,-20.15 23.508,-27.239 3.359,-6.717 5.224,-14.553 5.224,-22.016 0.373,-9.701 -3.358,-19.03 -9.701,-27.612 -3.732,-4.851 -10.822,-8.955 -17.911,-9.702 2.239,-2.612 3.358,-6.716 4.477,-10.075 0,0 2.239,0.374 3.732,1.12 0,2.612 -1.866,5.97 -1.866,6.716 0,0 2.239,1.493 4.478,1.493 0.373,-1.119 1.492,-2.985 2.985,-5.597 1.493,0.746 2.612,1.492 3.358,2.612 0,1.866 -0.746,4.104 -1.492,6.343 2.239,1.12 3.731,1.493 3.731,1.493 0.746,-1.12 2.612,-2.239 2.985,-3.358 0,0 1.866,1.865 2.612,3.731 -0.746,1.119 -1.865,2.612 -2.612,4.105 l 2.985,3.358 c 0,0 1.866,-1.493 2.612,-2.239 1.12,1.493 1.866,2.985 2.239,4.851 -1.492,1.866 -2.239,1.866 -2.612,2.985 0.746,0.746 1.12,2.239 1.493,3.358 1.119,-0.373 1.865,-1.119 2.612,-1.492 0.746,1.492 1.492,3.731 1.492,5.224 -0.746,0.746 -1.865,1.119 -2.612,1.865 0.373,1.866 0.747,3.359 0.747,3.359 0,0 1.865,-0.374 2.612,-0.374 0.373,2.239 0.373,4.478 0.373,5.971 m -35.076,-46.643 c 0.747,0.373 0,1.119 0,1.493 -0.373,0 -1.865,2.985 -2.985,4.477 0,0 -0.373,-1.119 -0.746,-1.865 -0.746,-1.493 -1.119,-2.239 -1.119,-3.359 1.119,-0.746 1.492,-0.373 2.985,-0.373 0.746,0 1.492,-0.373 1.865,-0.373"
         style="fill:#ffffff;fill-opacity:1;fill-rule:nonzero;stroke:none"
         transform="matrix(0.1028032,0,0,-0.1028032,-27.938413,53.940735)"
         clip-path="url(#clipPath24)" />
    </g>
  </g>
</svg>
