<?xml version="1.0" encoding="UTF-8" standalone="no"?>
<!-- Created with Inkscape (http://www.inkscape.org/) -->

<svg
   width="512"
   height="512"
   viewBox="0 0 135.46666 135.46667"
   version="1.1"
   id="svg1"
   inkscape:version="1.3.2 (091e20e, 2023-11-25)"
   sodipodi:docname="provider-ing-icon-512x512.svg"
   xmlns:inkscape="http://www.inkscape.org/namespaces/inkscape"
   xmlns:sodipodi="http://sodipodi.sourceforge.net/DTD/sodipodi-0.dtd"
   xmlns="http://www.w3.org/2000/svg"
   xmlns:svg="http://www.w3.org/2000/svg">
  <sodipodi:namedview
     id="namedview1"
     pagecolor="#ffffff"
     bordercolor="#666666"
     borderopacity="1.0"
     inkscape:showpageshadow="2"
     inkscape:pageopacity="0.0"
     inkscape:pagecheckerboard="true"
     inkscape:deskcolor="#d1d1d1"
     inkscape:document-units="mm"
     inkscape:zoom="1.0510469"
     inkscape:cx="417.67879"
     inkscape:cy="297.3226"
     inkscape:window-width="1792"
     inkscape:window-height="1006"
     inkscape:window-x="0"
     inkscape:window-y="25"
     inkscape:window-maximized="1"
     inkscape:current-layer="layer1" />
  <defs
     id="defs1">
    <clipPath
       clipPathUnits="userSpaceOnUse"
       id="clipPath118">
      <path
         d="M 0,0 H 1919.06 V 1080 H 0 Z"
         id="path118" />
    </clipPath>
    <clipPath
       clipPathUnits="userSpaceOnUse"
       id="clipPath116">
      <path
         d="m 1214.465,763.142 h 158.367 v 141.735 h -158.367 z"
         id="path116" />
    </clipPath>
    <clipPath
       clipPathUnits="userSpaceOnUse"
       id="clipPath112">
      <path
         d="m 1214.465,763.142 h 158.367 v 141.735 h -158.367 z"
         id="path112" />
    </clipPath>
  </defs>
  <g
     inkscape:label="Layer 1"
     inkscape:groupmode="layer"
     id="layer1">
    <g
       id="g1"
       transform="translate(0.21402085,0.2123242)">
      <path
         id="path111"
         d="m 1267.586,833.9626 1.734,13.002 2.598,12.132 4.332,6.066 2.604,13.003 5.202,10.404 6.93,2.598 11.269,0.87 c 0,0 18.204,-2.604 20.802,-2.604 2.604,0 23.407,-0.864 23.407,-0.864 l 16.464,2.598 8.67,-5.202 4.332,-15.6 10.404,-21.667 c 0,0 2.598,-10.398 4.332,-13.002 1.734,-2.604 10.405,-36.403 13.003,-38.137 2.598,-1.734 30.336,-16.47 30.336,-16.47 l 23.407,4.332 3.462,13.872 11.268,4.332 17.334,-11.268 c 0,0 17.334,-44.209 19.068,-46.807 1.734,-2.598 2.598,-28.602 2.598,-28.602 v -14.737 l 12.139,-13.002 c 0,0 -5.977,8.581 2.604,0 12.996,-12.996 103.142,66.746 -0.87,150.819 l -14.698,0.838 -15.197,-0.147 -14.001,8.191 -2.828,4.613 -0.147,14.896 14.743,3.276 6.552,2.086 5.509,-1.49 12.964,-14.743 8.632,-10.424 8.901,-8.267 33.613,-41.317 9.802,-28.007 -7,-49.021 -25.211,-34.31 -40.613,-10.507 -48.131,-5.65 h -138.854 l -94.305,3.122 -3.948,14.34 7.352,11.115 20.438,10.039 11.825,-4.485 3.052,4.664 14.154,39.257 -8.779,31.188 0.359,7.352 5.022,11.294 z"
         style="fill:#ffffff;fill-opacity:1;fill-rule:nonzero;stroke:none"
         transform="matrix(0.85270488,0,0,-0.85270488,-1035.3679,785.98925)"
         clip-path="url(#clipPath112)" />
      <path
         id="path115"
         d="m 1312.653,818.4968 c -1.28,2.559 -4.479,0 -7.679,1.28 0,-1.28 0,-2.56 1.92,-3.84 1.92,1.92 5.119,2.56 5.759,2.56 m 5.119,33.913 c 0,1.28 -1.28,2.56 -3.199,3.84 h -14.078 -1.28 c 0,-2.56 1.92,-3.84 3.84,-3.84 0,-2.559 1.919,-3.199 2.559,-3.839 1.92,-1.28 2.56,-1.28 4.479,0 1.92,-1.28 2.56,1.28 3.2,0 0,-3.839 0,-5.759 -0.64,-8.958 -0.64,-4.479 -4.479,-3.839 -7.679,-5.759 0,-1.92 -1.919,-5.119 0,-7.039 1.92,1.28 3.2,1.92 6.399,3.2 0,1.919 1.92,3.839 4.479,5.119 0,5.759 1.92,11.518 1.92,17.276 m 28.794,-37.112 v 3.199 h -6.398 l -0.64,-0.64 z m -37.752,58.868 c -0.64,6.399 -7.679,7.039 -10.878,9.598 h -2.56 c -5.119,-1.919 -6.399,-7.038 -7.038,-11.517 1.919,-5.759 5.759,-1.92 8.318,-5.759 2.559,1.919 8.958,6.398 12.158,7.678 m 14.077,-7.038 c -1.28,1.279 -5.119,-0.64 -7.039,-1.28 -2.559,-0.64 -4.479,-2.56 -4.479,-4.479 h 7.039 c 0.64,1.919 3.199,4.479 4.479,5.759 m 31.994,-13.438 c 0,0 1.279,0 0,0.64 l -14.077,1.92 c -1.28,-1.92 -4.48,-1.92 -4.48,-3.84 h -1.279 c 1.279,-5.119 1.279,-10.877 1.279,-16.636 2.56,-0.64 5.119,-1.92 5.119,-5.759 2.56,-1.28 5.119,-1.92 7.679,-3.84 1.28,0.64 1.92,2.56 2.559,4.48 -2.559,3.199 -8.318,1.279 -8.318,7.038 l -3.839,1.28 c 0,3.839 0,7.679 -0.64,10.238 l 0.64,0.64 c 0,-0.64 0.64,-1.28 1.919,-2.56 2.56,0 5.119,-0.639 7.679,1.28 1.28,0.64 1.28,3.839 2.559,3.839 1.28,0 2.56,0 3.2,1.28 m -10.238,7.679 c 0,1.919 -0.64,1.919 -1.28,1.919 -3.199,0 -3.199,5.119 -5.759,3.84 -1.28,0 -2.559,1.279 -4.479,0 0,-0.64 0,-0.64 1.28,-0.64 3.199,0 1.919,-4.479 4.479,-5.119 z m 21.756,3.839 c 1.279,3.199 1.279,8.958 -1.28,12.158 -1.28,2.559 -4.479,3.839 -7.679,6.398 l -4.479,-2.559 c -2.559,-1.28 -3.839,-3.839 -3.839,-7.039 4.479,-1.919 8.958,-7.038 10.878,-10.878 h 1.92 c 1.919,1.92 3.199,0 4.479,1.92 m -132.455,-178.526 c -0.64,0 -2.559,1.92 -4.479,1.92 -1.92,-3.839 0,-6.399 0,-10.878 0,-1.92 -0.64,-3.839 -0.64,-3.839 -1.28,0 -3.839,2.559 -4.479,5.119 v 10.238 l 5.759,7.039 c 3.839,-2.56 5.119,-6.399 3.839,-9.599 m 16.637,7.039 c 0,-2.559 -0.64,-5.119 -1.92,-7.039 -0.64,2.56 -2.559,5.759 -5.759,5.759 -2.559,-5.119 -3.199,-7.038 -0.639,-14.717 -1.92,-1.92 -3.2,-2.559 -5.759,-3.839 -1.28,2.559 -1.28,7.039 -1.28,9.598 0,4.479 0.64,8.958 1.92,12.798 1.919,1.919 3.199,5.119 5.119,7.038 h 7.038 c -3.199,0 -3.199,-3.199 -3.199,-5.119 1.919,-0.64 4.479,-1.28 4.479,-4.479 m 22.396,-3.839 c 0,-5.119 -8.319,-12.158 -8.319,-12.158 0,3.2 1.92,7.039 1.92,10.878 0,0 -2.56,2.56 -5.119,2.56 -1.92,-1.28 -1.92,-2.56 -2.56,-4.48 -1.919,-3.839 -5.759,-7.678 -6.398,-11.517 -0.64,0 -0.64,0.639 -0.64,0.639 0,6.399 0.64,17.277 4.479,21.756 3.199,3.84 5.759,3.84 9.598,4.479 l 3.199,-0.639 -2.559,-3.84 c 2.559,-1.279 6.399,-3.839 6.399,-7.678 m 17.916,6.399 -1.92,-6.399 -4.479,11.518 c -5.119,5.119 -10.878,5.758 -14.077,8.318 -2.56,0.64 -2.56,-1.28 -3.839,0 0,1.28 0,3.199 1.919,5.119 h 3.84 l 3.839,-1.92 c 1.92,-1.919 6.399,-1.919 6.399,-5.759 0,-0.639 -0.64,-1.279 1.28,-3.839 l 6.398,-1.919 z m 9.598,9.598 -4.479,-4.479 c -1.28,1.919 0,5.119 -1.919,7.038 0,1.28 1.279,1.92 0.639,2.56 -0.639,1.279 -8.318,3.839 -8.318,3.839 -2.559,1.92 -5.759,3.839 -8.318,6.399 -2.56,0.64 -4.48,-0.64 -7.679,-1.28 v 1.28 c 1.28,2.559 1.28,5.759 5.119,5.759 1.92,0 4.479,0 5.759,-1.92 2.56,0 3.839,-2.56 5.759,-3.199 3.199,-3.2 5.759,-4.48 7.678,-5.759 0,-1.92 0.64,-3.2 1.92,-3.84 3.839,0 2.559,-3.839 3.839,-6.398 m 3.2,19.836 c 0,-1.92 -0.64,-9.598 -0.64,-9.598 -1.28,4.479 -4.479,8.958 -8.319,8.958 -1.919,1.92 -3.839,3.839 -4.479,5.759 -1.919,1.92 -3.839,0 -6.398,1.92 -2.56,0 -5.759,0 -8.319,-1.92 v 1.92 l 4.479,5.118 c 4.479,-0.639 10.238,0 11.518,-3.199 3.199,-1.919 6.399,-3.839 7.039,-5.119 v -1.919 c 1.279,-0.64 3.839,-1.28 5.119,-1.92 m -3.2,32.634 -2.559,-9.599 c -3.2,-2.559 -7.679,-1.279 -11.518,-1.279 5.119,1.279 8.958,7.038 11.518,10.878 0.64,0.639 1.279,0 2.559,0 m -8.958,7.678 c 0,-2.559 -1.28,-5.759 -4.479,-8.958 -0.64,-0.64 -2.56,-1.92 -2.56,-1.92 0,3.839 1.92,7.039 1.92,10.238 1.92,0.64 3.839,1.92 5.119,0.64 m -7.678,9.598 c -3.2,-3.199 -6.399,-4.479 -7.679,-8.318 0,1.919 -0.64,3.839 -1.28,5.119 0.64,2.559 2.56,3.839 3.2,4.479 1.919,-0.64 3.199,-0.64 5.759,-1.28 m 46.711,-48.63 c -2.56,-1.92 -4.48,-1.92 -7.679,-1.28 l -3.839,5.119 h 9.598 z m -12.798,29.434 c -1.92,-3.839 -3.839,-7.679 -7.679,-8.958 -1.919,0 -5.119,-1.28 -8.958,0 1.92,1.279 3.839,1.919 6.399,3.839 l 5.119,5.119 z m 58.869,-67.827 -1.92,-1.92 c -1.92,1.92 -0.64,7.039 -3.839,7.679 -3.2,0 -5.759,3.199 -7.039,3.839 l 2.56,1.28 c 0,0 1.279,0.64 2.559,0 1.28,-1.28 2.56,-1.92 2.56,-3.199 1.279,-1.92 3.199,0 4.479,-1.92 0.64,-1.92 1.279,-4.479 0.64,-5.759 m -47.351,62.708 c -0.64,-3.839 -2.56,-5.119 -5.759,-9.598 -1.92,-1.28 -5.759,-1.92 -9.598,-3.84 0.64,1.92 2.559,2.56 3.839,4.48 1.28,1.919 3.839,5.119 4.479,7.038 3.199,1.92 4.479,1.92 7.039,1.92 m -30.714,22.396 c -3.84,1.279 -8.319,5.119 -10.238,8.318 -1.28,2.559 -1.92,5.759 -1.92,7.679 2.559,0 4.479,-1.92 5.119,-3.2 v -0.64 c 3.199,-3.839 6.399,-7.038 7.039,-12.157 m 49.27,-46.071 h -1.28 c -0.64,0 -5.119,1.919 -6.398,3.199 -0.64,1.92 -0.64,3.839 -0.64,3.839 h 5.119 z m 51.19,-30.075 c -0.64,-1.279 -1.919,-5.119 -2.559,-7.678 -1.28,3.839 -2.56,9.598 -7.039,9.598 -0.64,2.559 -1.28,3.839 -3.839,5.759 l -5.119,0.64 c 0.64,-2.56 4.479,-2.56 1.919,-6.399 2.56,-1.92 4.48,-1.92 5.759,-5.119 1.28,-1.92 0,-4.479 0.64,-5.759 l -3.839,-1.92 c 0,3.2 0.64,9.599 -3.839,10.878 -3.84,-1.279 -4.479,3.84 -7.039,5.759 -1.28,0 -1.28,3.2 -3.199,1.92 -3.2,-1.92 -7.039,0 -10.238,-1.92 l 3.199,5.119 c 2.56,1.92 5.119,1.28 7.679,1.92 l 5.119,0.64 c 5.119,0 9.598,-2.56 14.717,-4.479 2.559,-1.28 3.839,-3.2 3.839,-6.399 1.28,-0.64 3.839,-0.64 3.839,-2.56 m -92.142,86.384 -1.92,-8.319 c -1.919,3.84 -3.839,7.679 -4.479,12.158 z m 12.158,-18.557 c -3.84,3.839 -7.039,7.039 -7.039,10.878 1.92,0 3.839,0 5.759,-1.28 0,-3.199 1.28,-5.759 1.28,-9.598 m 73.586,-54.389 c -2.56,1.919 -6.399,1.919 -7.679,5.119 -2.56,0.64 -4.479,0.64 -7.679,0.64 -2.559,-0.64 -5.758,-0.64 -8.318,-0.64 -0.64,0 0,0.64 -1.28,1.279 -3.839,-1.279 -7.678,-1.279 -11.518,-5.119 l 3.2,7.679 c 2.56,0 4.479,1.28 5.759,1.28 2.559,0.64 4.479,0.64 6.399,0.64 v -0.64 c 7.038,0 15.357,0.64 20.476,-5.119 z m -38.393,36.473 c -1.28,-1.28 -5.119,-2.56 -7.679,-2.56 -3.839,3.2 -6.398,7.039 -10.238,12.158 l 10.238,-1.92 c 1.92,-1.28 5.759,-5.759 7.679,-7.678 m -21.756,28.154 c 0,-4.479 -0.64,-10.238 -5.119,-12.157 l -1.28,6.398 c 1.92,1.28 3.84,2.56 6.399,5.759 m 58.869,-51.83 c -3.2,0 -5.759,0 -7.679,3.2 -0.64,0 -1.919,1.919 -2.559,0.64 -3.2,-2.56 -6.399,1.919 -10.238,1.279 -1.92,-1.919 -3.84,-3.199 -7.039,-3.839 v 0.64 c 0,1.92 1.28,3.839 3.839,5.119 3.84,-1.28 7.039,7.038 10.878,2.559 1.92,-0.639 3.839,-0.639 5.119,-0.639 4.479,-1.92 5.759,-5.759 7.679,-8.959 m 14.717,-24.315 h -0.64 c -1.28,1.92 -1.92,3.839 -3.199,3.839 1.919,7.039 -1.92,12.798 -3.2,18.557 v 1.919 c 1.92,-3.199 7.039,-6.399 6.399,-9.598 0.64,-5.759 0.64,-10.878 0.64,-14.717 m -59.509,65.907 c -3.199,1.92 -8.958,2.56 -7.678,6.399 1.28,3.199 3.199,3.839 4.479,5.119 0.64,-4.479 1.28,-7.679 3.199,-11.518 m -65.907,83.184 -3.199,-3.839 c 0.64,-6.399 -1.92,-10.878 -1.92,-16.637 l -3.199,10.238 c 0.64,2.56 1.279,5.119 3.199,8.319 z m 95.982,-97.261 h -1.92 c -7.039,-2.56 -12.797,1.92 -18.557,5.759 3.2,1.28 7.679,1.919 11.518,1.919 l 1.92,-3.839 c 1.92,-0.64 5.119,-2.559 7.039,-3.839 m -33.274,51.83 c -0.64,-3.839 -1.92,-9.598 -5.759,-12.158 0,2.56 -1.28,3.84 -2.559,5.759 -0.64,0 0,-1.919 -0.64,-1.919 0,-1.28 -1.28,-3.84 -1.28,-6.399 -1.28,-0.64 -3.839,-1.92 -6.399,-0.64 v 1.92 c -0.64,1.279 -0.64,3.839 -0.64,5.119 l -0.64,0.639 c -1.919,-0.639 -1.919,-1.919 -1.919,-3.199 -0.64,-1.28 -1.92,-2.559 -1.92,-4.479 -2.559,0 -3.839,0.64 -5.759,1.92 v 5.758 c 0,1.28 0,1.28 -0.64,1.28 l -3.199,-3.199 c -2.559,1.919 -3.199,7.038 -3.199,10.238 10.238,5.759 23.035,3.839 30.714,0.64 1.28,-0.64 2.559,-0.64 3.839,-1.28 m 18.557,-35.193 c -2.56,-0.64 -7.039,-1.92 -8.319,1.279 -3.839,5.759 -1.92,10.878 0,15.357 1.28,-3.839 1.92,-7.678 2.559,-10.877 0.64,-2.56 4.48,-3.84 5.76,-5.759 m -82.545,89.582 -4.479,-1.279 0.64,3.199 c 1.28,1.92 1.92,3.839 3.839,5.759 z m 108.139,-99.18 c -2.559,0 -7.038,0 -9.598,1.919 -3.839,1.92 -5.119,3.2 -7.038,5.119 2.559,1.92 5.759,1.92 7.038,2.56 2.56,-2.56 5.119,-7.039 9.598,-9.598 m -17.916,17.916 c -3.199,-0.64 -5.759,2.56 -8.958,3.839 -1.28,3.84 -1.28,7.679 -2.56,9.599 2.56,-1.92 8.319,-1.92 7.039,-7.679 0,-1.92 2.559,-3.199 4.479,-5.759 m 53.11,-45.431 c 0,-3.839 -2.56,-7.039 -3.2,-10.878 0,3.839 -0.64,7.039 -3.199,9.598 0,1.28 1.92,1.28 0.64,3.2 0,0 -3.839,1.919 -3.839,4.479 0,2.559 2.559,4.479 3.839,6.398 0,0.64 2.559,-1.279 2.559,-5.119 0,-0.64 0,-2.559 -0.64,-3.839 -0.639,-1.919 3.84,-1.919 3.84,-3.839 m 14.717,-7.039 c 0,-3.199 -3.839,-7.038 -5.119,-9.598 1.28,3.199 1.28,9.598 0,9.598 -1.28,0.64 -3.839,0 -3.839,1.28 0,1.92 0.64,4.479 0.64,5.759 0,2.559 -1.92,3.839 -1.92,5.119 0,3.839 4.479,4.479 5.759,7.039 0.64,-2.56 0.64,-5.12 0.64,-8.319 0,-1.28 1.919,-5.119 0,-8.318 0,-1.92 3.839,-0.64 3.839,-2.56 m -52.47,60.149 c -3.839,0 -8.318,-1.92 -10.238,1.919 1.28,0.64 2.559,2.56 3.839,3.84 z m 17.917,-14.718 -3.2,-1.279 c -7.038,0 -10.238,1.919 -13.437,4.479 2.559,0 5.759,3.199 5.759,3.199 3.199,-3.199 7.678,-5.759 10.878,-6.399 m -26.235,40.313 c -7.679,4.479 -15.997,7.678 -25.595,8.318 0,-1.92 0,-3.839 -0.64,-4.479 7.678,-3.839 14.717,-7.039 21.116,-12.798 v -5.758 c -6.399,6.398 -13.438,12.797 -21.756,14.717 -0.64,-1.28 -3.2,-2.56 -3.84,-5.119 -4.479,3.199 -9.598,6.398 -14.717,7.038 -1.919,0 -3.199,7.039 -3.199,7.039 3.199,1.28 5.119,3.199 6.399,6.399 h 2.559 c 1.92,0 1.92,1.279 1.92,3.199 0,3.839 -8.318,3.839 -12.158,3.839 -4.479,0 -7.678,0 -10.238,-1.919 -1.28,0 -0.64,-1.92 -0.64,-3.2 0,-0.64 1.92,-1.919 1.92,-1.919 1.28,0 2.559,1.279 3.839,1.279 -0.64,-3.839 0.64,-5.758 4.479,-7.678 l -0.64,-6.399 c -7.678,0 -12.797,-3.199 -18.556,-5.759 -1.92,1.28 -3.199,3.2 -4.479,5.119 -7.679,-2.559 -21.116,-12.797 -21.116,-12.797 v 4.479 c 5.759,5.119 13.437,7.678 19.196,10.878 v 4.479 c -2.559,1.28 -5.119,0 -7.678,0 -5.759,-0.64 -11.518,-3.199 -15.357,-6.399 0,1.92 -0.64,4.479 -0.64,4.479 7.039,3.84 15.997,7.039 24.315,5.759 v 2.56 c -0.64,1.279 -0.64,3.199 -1.92,3.199 -3.839,3.839 -7.678,9.598 -7.678,13.438 l 2.56,1.279 c -1.28,3.84 -2.56,13.438 0,16.637 -3.84,1.92 -7.679,5.119 -8.959,7.679 -1.279,3.199 -2.559,5.119 -3.199,8.958 1.92,3.839 3.199,5.119 5.119,8.958 1.28,0 3.199,0.64 3.839,1.92 3.2,0.64 5.119,3.839 8.958,1.919 2.56,0 5.119,-1.279 7.039,-1.919 0,-1.28 0,-1.92 1.28,-3.2 3.839,0 3.839,-3.839 5.759,-7.038 1.919,-0.64 3.839,-0.64 5.119,-0.64 3.839,-1.28 7.038,-1.28 8.318,-3.2 5.119,3.2 10.238,3.84 15.997,3.2 0.64,1.919 1.92,4.479 2.559,7.678 0.64,-1.919 0.64,0 1.92,0 2.56,1.92 5.759,5.119 10.238,3.84 2.56,-1.92 7.039,-0.64 9.598,-3.84 1.92,-2.559 3.2,-6.398 5.119,-9.598 -1.919,-3.839 0,-8.958 -3.839,-10.878 l -3.839,-3.839 c -1.28,0 -1.28,-1.28 -3.199,-1.28 1.919,-4.479 0.639,-10.878 -1.28,-15.357 1.28,0.64 3.199,0.64 3.199,2.56 0.64,-0.64 0,-1.92 0,-2.56 v -1.919 c 0,-3.2 -1.919,-6.399 -4.479,-8.959 -1.28,-3.839 -4.479,-8.958 -8.958,-9.598 v -1.28 c 9.598,0 17.276,-2.559 26.235,-7.038 z m 49.91,-62.068 c 0,-1.28 -1.92,-2.56 -2.56,-2.56 0,0 -3.199,3.2 -3.839,6.399 -0.64,2.559 1.92,7.039 1.92,7.039 0.64,0 1.28,-1.28 1.919,-1.28 0.64,-0.64 0,-2.56 0.64,-4.479 1.92,-1.28 3.2,-3.84 1.92,-5.119 m 51.83,-44.152 c 0,-0.64 -1.28,-1.919 -1.28,-1.919 -3.199,1.919 -5.119,2.559 -8.958,2.559 0,2.56 -1.92,5.759 -3.199,5.759 -3.84,0 -3.2,-2.56 -6.399,-2.56 l 5.759,5.759 c 0.64,1.28 0.64,1.28 1.919,1.28 1.92,-1.28 2.56,-1.92 4.479,-1.92 0,-1.279 0,-1.919 -0.639,-3.839 1.919,-1.28 3.199,0.64 4.479,-1.28 1.919,-0.639 3.839,-1.279 3.839,-3.839 m -60.148,58.229 c 0,-1.92 -1.28,-2.56 -2.56,-3.839 0,0 -2.559,3.199 -2.559,4.479 0,2.559 0,3.839 0.639,5.759 1.92,-1.92 4.48,-4.479 4.48,-6.399 m 24.955,-19.196 c 0,-3.84 -0.64,-8.319 -0.64,-12.798 -1.92,0 -1.92,1.28 -1.92,3.839 -0.64,3.84 -1.919,7.039 -3.199,10.878 -1.28,5.119 -4.479,9.598 -7.039,15.357 -0.64,2.56 -3.839,3.84 -6.399,5.759 3.2,0 6.399,0 8.959,-2.559 0,-1.28 0.64,-1.92 2.559,-3.84 4.479,0 3.2,-5.758 7.039,-8.318 -1.92,-1.92 -2.56,-3.199 -3.839,-4.479 1.919,-1.28 3.839,-1.92 4.479,-3.839 m -33.274,36.473 c -1.919,-1.92 -7.038,-2.56 -10.878,0.64 l 5.119,2.559 c 1.92,-1.92 4.479,-2.559 5.759,-3.199 m -14.077,14.717 c -0.64,-2.56 -3.199,0 -3.839,0 h -5.759 c -0.64,1.28 -1.28,1.919 -1.28,3.199 2.559,0.64 4.479,1.92 6.399,0.64 1.28,-1.92 2.559,-3.839 4.479,-3.839 m 56.309,-50.55 c 0,-2.56 -1.28,-4.48 -0.64,-7.039 -1.28,3.839 -3.839,7.678 -5.119,11.518 0,0.64 -0.64,0.64 0.64,1.279 0.64,0 3.199,0 3.199,-0.639 0.64,-1.28 1.92,-3.2 1.92,-5.119 m 32.634,-26.235 c 0,-2.56 -0.64,-3.2 -1.28,-6.399 -4.479,0.64 -4.479,5.759 -5.119,6.399 -3.199,3.839 -7.679,0.639 -10.878,0.639 -1.28,3.84 0.64,3.84 0.64,6.399 1.92,0 3.839,1.28 5.759,0 3.199,1.28 5.119,-1.919 8.318,-1.919 0.64,-1.28 1.92,-4.48 2.56,-5.119 m 12.797,-18.557 c -1.279,-1.919 -1.279,-1.919 -1.919,-3.839 0,3.199 -3.84,5.119 -6.399,10.878 l 2.559,4.479 c 1.92,-1.28 4.48,-3.199 4.48,-6.399 0,0 -0.64,-1.919 0,-3.199 0,-0.64 1.279,-0.64 1.279,-1.92 m -106.219,109.419 c -3.84,0 -5.759,1.92 -7.679,5.759 0,1.92 -0.64,4.479 0,7.678 1.28,-2.559 1.28,-3.839 2.56,-5.119 2.559,1.28 2.559,-1.919 3.199,-2.559 0.64,-1.92 1.92,-3.839 1.92,-5.759 m 55.029,-47.351 c -5.759,3.2 -8.958,8.958 -14.077,14.717 5.119,0 6.399,-5.119 10.238,-5.759 1.28,-1.279 2.559,-1.919 3.839,-3.839 z m 40.312,-36.473 c -4.479,0 -1.919,8.959 -11.517,8.959 -1.92,0 -3.2,-3.2 -5.759,-3.84 0,0.64 0.64,4.479 0.64,4.479 0,1.28 0.639,3.84 3.199,5.119 5.119,0 3.839,-1.919 7.678,-3.199 1.92,-0.64 3.2,-1.92 5.759,-1.92 z m 15.357,-8.318 c 0,-3.839 0,-5.119 -1.919,-8.319 l -3.839,5.759 c 1.279,1.92 1.279,4.479 3.199,7.679 0.64,0 2.559,-4.479 2.559,-5.119 m -124.136,122.856 c 0,-0.64 -1.279,-6.399 -1.279,-6.399 l -5.119,-1.279 3.199,14.077 c 1.28,-2.56 3.199,-5.119 3.199,-6.399 m 111.979,-100.461 c -1.92,0.64 -6.399,1.28 -6.399,3.2 0,2.559 -1.28,3.199 -4.479,3.199 -2.56,0 -4.479,-0.64 -8.319,-1.919 0,0 -1.919,2.559 -2.559,5.119 1.28,0.64 6.399,1.919 8.958,1.919 4.479,0 8.958,0 8.958,-1.919 0,-2.56 3.84,-3.2 3.84,-9.599 m 5.759,14.078 c -4.479,0 -8.959,1.28 -9.599,3.199 -1.279,1.28 0,3.839 -3.199,3.839 -1.28,0 -3.199,-1.919 -3.199,-1.919 -1.28,-0.64 -5.119,1.919 -5.119,0 0,-3.2 -2.56,-4.479 -5.759,-4.479 -1.28,0 -2.56,0 -3.839,0.64 v 6.398 c 8.318,0 7.678,2.56 11.517,2.56 2.56,0 4.479,-1.28 6.399,-1.28 3.199,0 1.28,1.28 4.479,1.28 3.199,0 4.479,-2.56 6.399,-3.2 0,-1.919 1.92,-4.479 1.92,-7.038 m -1.92,14.077 c -5.119,3.199 -12.798,5.119 -17.277,5.119 -2.559,0 -10.238,-3.199 -12.797,-5.759 l -1.28,5.759 c 3.839,0.64 3.839,3.839 6.399,3.839 1.919,0 4.479,0.64 6.399,0.64 1.919,0 3.199,1.28 3.839,1.28 3.199,0 1.919,-3.199 3.839,-3.199 1.92,0 3.199,1.279 4.479,1.279 3.199,0 5.759,-5.119 6.399,-8.958 m -14.717,14.077 c -3.839,0 -4.479,0.64 -7.039,0.64 -3.199,0 -7.038,-1.279 -8.958,-4.479 -1.28,2.56 -0.64,3.839 0,5.759 1.92,1.92 5.119,4.479 7.678,4.479 4.48,0 8.319,-3.199 8.319,-6.399 m 0.64,9.599 c -4.479,1.279 -7.039,3.199 -10.878,3.199 -1.28,0 -7.039,-1.92 -7.679,-3.199 -1.919,2.559 1.28,7.678 3.84,8.958 2.559,1.28 3.839,0.64 5.119,0 0,-3.839 4.479,-1.92 7.038,-3.2 1.28,-1.919 1.92,-3.199 2.56,-5.758 m 15.357,73.585 h -7.039 c -1.28,1.92 -3.199,0 -4.479,0 -1.28,0 -1.92,0 -4.479,1.92 3.839,0 5.759,1.92 8.958,3.199 2.559,-1.919 5.119,-2.559 7.039,-5.119 m -160.609,-193.242 c -3.2,5.758 -3.839,14.717 -3.839,16.636 0,3.2 0,7.679 1.919,10.878 l -7.039,-1.279 c -1.919,-2.56 -2.559,-3.84 -2.559,-5.119 l 3.199,1.279 c 0.64,0 1.28,-1.279 1.92,-2.559 -0.64,-3.2 -4.479,-3.2 -5.759,-4.479 -1.92,-6.399 3.839,-10.238 4.479,-15.357 z m 10.878,17.276 c -0.64,0 0.639,-1.279 -5.759,5.119 -1.28,0 -3.2,-3.839 -3.2,-5.119 0,-5.119 1.28,-12.157 3.2,-17.276 h 5.119 c 0,5.758 0.64,12.157 0.64,17.276 m 14.077,-0.64 c 0,2.56 -1.92,3.2 -4.479,3.2 -1.28,0 -4.479,-1.92 -4.479,-3.2 0,-2.559 -1.28,-16.636 -1.28,-16.636 h 4.479 c 1.92,5.758 5.759,13.437 5.759,16.636 m 84.464,7.679 -6.399,-0.64 c 2.559,-1.28 2.559,-4.479 2.559,-5.119 0,-1.92 -1.279,-3.839 -2.559,-5.119 -1.28,1.28 -1.28,3.199 -2.56,5.119 -1.279,0 -1.919,-3.199 -1.919,-4.479 0,-5.759 2.559,-10.238 4.479,-14.077 h 5.759 c -0.64,5.119 -1.92,9.598 -1.92,15.357 0,3.199 1.92,7.038 2.56,8.958 m 138.853,58.869 c 0,28.154 -11.518,56.309 -31.994,76.785 -8.958,8.958 -19.196,13.437 -26.875,22.395 -3.839,3.84 -7.038,7.679 -9.598,12.798 -3.199,3.199 -5.119,5.119 -8.958,7.039 0.64,-1.92 1.28,-3.84 1.919,-5.759 h -0.639 c -3.2,0 -6.399,1.919 -8.959,3.839 l 2.56,2.559 c -0.64,1.28 -2.56,1.28 -3.839,1.28 -10.239,1.92 -19.837,-3.839 -30.075,-5.759 v -1.279 c 6.399,-1.92 7.679,-9.599 11.518,-13.438 h 3.839 c 1.28,0 3.2,-1.28 4.479,-1.28 0,1.28 -1.279,3.84 -1.279,3.84 1.279,1.279 2.559,1.279 3.839,0 3.199,-1.92 7.679,1.279 10.878,-3.84 -3.839,0 -7.679,0 -10.878,-1.919 0,-0.64 1.919,-1.92 1.28,-3.2 -3.2,1.28 -7.039,0 -8.319,2.56 l -0.64,-0.64 c 3.84,-4.479 9.598,-8.318 15.358,-10.238 8.318,-1.28 15.356,2.56 23.675,0.64 29.434,-14.077 49.91,-47.351 49.91,-80.625 0,-47.35 -26.875,-66.547 -44.151,-66.547 -3.2,0 -8.319,1.92 -10.238,3.84 1.919,7.038 3.199,14.717 3.199,26.234 0,27.515 -10.878,56.95 -25.595,72.307 -7.039,7.038 -14.717,12.797 -23.035,12.797 -3.84,0 -7.679,0 -10.238,-3.199 -3.2,-2.56 -5.12,-7.679 -4.48,-10.878 -5.119,-3.839 -13.437,-5.759 -19.836,-5.759 -7.038,0 -15.997,2.559 -24.315,8.958 v 9.598 c -1.92,0.64 -8.318,4.479 -5.119,7.679 1.92,-0.64 3.199,-1.92 3.839,-2.56 -0.64,4.479 -0.64,9.598 -3.839,13.438 -1.28,0 -3.199,0 -5.119,1.279 -1.92,1.92 -3.839,4.48 -3.839,7.679 1.919,-3.199 5.119,-1.92 7.038,-3.839 -3.199,7.678 -1.919,10.878 -7.678,22.395 -1.28,5.759 -7.039,8.959 -10.878,12.798 -1.92,1.28 -2.56,3.199 -5.119,3.199 -2.56,0.64 -2.56,3.84 -2.56,5.759 0.64,0 2.56,-1.28 3.84,-1.919 -3.84,8.958 -6.399,18.556 -14.718,23.675 l -1.919,-1.28 h -10.238 c 1.279,1.28 3.839,1.92 5.759,3.2 -1.92,1.919 -3.2,2.559 -7.039,2.559 -1.92,-0.64 -4.479,-2.559 -7.039,-2.559 h -0.64 c 0,1.919 -0.639,4.479 3.2,5.759 -3.839,0.639 -7.039,0.639 -11.518,0 -0.64,-3.2 -2.559,-5.119 -2.559,-7.679 -1.92,-1.28 -2.56,-3.199 -4.479,-5.119 0,3.839 1.919,7.679 2.559,11.518 -2.559,-0.64 -5.759,-2.56 -7.039,-2.56 -5.119,2.56 -11.517,5.119 -14.077,5.119 3.839,-2.559 1.92,-7.038 2.56,-10.238 l -2.56,1.28 c -0.64,2.56 -3.839,4.479 -4.479,7.679 -3.839,0 -6.399,-1.28 -9.598,-3.2 v -0.64 c 1.919,0 4.479,-1.919 5.759,-3.839 -4.48,0 -7.679,1.92 -12.158,1.92 0,0 0,0.64 -0.64,0.64 -1.92,-0.64 -3.839,-2.56 -5.119,-3.84 -4.479,-3.839 -7.678,-7.038 -9.598,-12.797 1.28,0 3.199,0 3.839,-0.64 -2.559,-0.64 -3.839,-3.839 -6.399,-4.479 v -9.598 c -1.919,-1.92 -4.479,-3.84 -5.759,-7.679 -3.199,-10.238 -3.839,-21.756 -3.839,-34.553 -0.64,-2.56 -1.919,-3.2 -3.199,-3.84 v -10.238 c 0,0 3.839,3.84 5.759,5.119 v -8.318 c -2.56,0 -4.479,-3.199 -4.479,-5.119 0,-2.559 0.64,-5.119 0.64,-7.678 0,-1.28 0,-1.28 0.639,-2.56 0,1.28 1.28,2.56 3.2,3.199 0,0 1.279,1.28 3.839,1.28 -1.92,-1.919 -2.56,-4.479 -3.839,-7.038 l -1.92,-1.92 c 0,0 -0.64,-1.28 -0.64,-1.92 2.56,-13.437 6.399,-24.955 11.518,-37.752 -5.119,-8.319 -10.878,-24.316 -14.717,-39.673 -3.2,3.2 -7.679,3.839 -11.518,3.839 -3.839,-0.639 -7.678,-1.919 -10.238,-5.758 -3.839,1.919 -8.958,1.279 -11.518,-1.28 -5.759,-5.119 -5.759,-7.679 -5.759,-11.518 -1.279,-1.28 -3.839,-4.479 -3.839,-8.958 0,-5.759 0.64,-9.598 3.839,-14.717 h 97.262 c -0.64,1.919 -1.92,4.479 -3.2,5.758 -1.919,3.84 -0.64,8.959 -0.64,12.798 1.92,3.839 3.84,7.679 6.399,10.878 0.64,1.92 0,1.92 0.64,2.559 l 4.479,1.28 c 2.56,0 4.479,1.92 7.679,1.92 1.919,-3.2 1.919,1.919 5.119,3.199 7.038,1.28 14.077,0 17.916,-5.119 0,-1.28 0.64,-1.28 0.64,-1.919 h -3.199 c -3.839,1.919 -8.319,3.839 -12.798,1.919 0,-1.919 -0.64,-1.919 -0.64,-3.839 v -3.199 c 2.56,0 4.479,-2.56 7.039,-3.84 1.28,1.92 5.119,3.84 7.678,3.84 3.2,0 7.679,-1.92 7.679,-7.039 v -7.039 c 2.56,-2.559 5.759,-3.199 8.958,-4.479 -1.279,-2.559 -3.199,-2.559 -5.119,-2.559 h -5.119 c -0.639,0.639 -1.919,0.639 -1.919,2.559 -1.92,-2.559 -3.2,-5.119 -4.48,-7.678 h 74.866 c -1.28,2.559 -2.559,4.479 -3.199,5.758 -1.28,3.84 -1.28,8.959 -1.28,12.798 l 7.039,9.598 c 3.839,0 7.038,1.28 14.077,1.92 1.28,1.919 0,3.199 5.759,3.199 4.479,0 7.678,-1.28 8.958,-1.919 0.64,-1.28 0.64,-1.28 0,-2.56 -1.28,-1.28 -3.839,1.28 -5.759,0.64 -1.28,-1.28 0.64,-1.92 0.64,-3.199 1.28,-1.28 -5.759,1.279 -5.759,1.279 0,0 -1.28,-3.839 -1.919,-5.119 0,0 2.559,-2.559 3.839,-3.839 1.279,-1.92 -1.92,-3.839 -1.92,-5.759 -1.28,0.64 -3.839,2.56 -3.839,1.92 -1.28,-5.119 0,-9.598 -0.64,-14.717 h 7.039 l 0.639,10.878 c 0.64,6.398 8.319,17.916 12.798,17.916 2.56,0 4.479,-1.28 6.399,-2.559 1.28,-2.56 4.479,-3.84 4.479,-5.119 0,-1.28 -1.92,-1.92 -5.119,-1.92 -1.28,0 -1.28,1.92 -3.199,3.199 l -3.84,-3.839 c 0,0 4.479,-3.839 4.479,-6.399 0,-3.199 -0.639,-4.479 -2.559,-6.399 l -3.839,7.679 c -1.92,0 -5.119,-3.839 -5.119,-5.759 0,-2.559 -1.28,-3.839 -1.28,-7.678 h 39.672 c 4.479,0 8.319,1.279 12.798,3.839 h 7.678 c 15.997,0 28.795,4.479 40.313,15.997 15.357,15.357 24.315,39.672 24.315,63.348 m -68.467,96.621 c -1.28,2.559 -3.839,3.839 -5.759,3.839 -1.919,2.56 -4.479,5.759 -7.038,5.759 1.919,0 4.479,1.92 7.678,1.92 1.28,-3.2 3.839,-5.119 4.479,-7.679 z"
         style="fill:#f25c19;fill-opacity:1;fill-rule:nonzero;stroke:none"
         transform="matrix(0.85270488,0,0,-0.85270488,-1035.3679,785.98925)"
         clip-path="url(#clipPath116)" />
    </g>
  </g>
</svg>
