<svg height="360" viewBox="35.433 35.357 272.12595 128.50621" width="640" xmlns="http://www.w3.org/2000/svg"><g stroke-width=".2048" transform="translate(27.212595 37.532951)"><path d="m158.55302 73.806766v10.578944c-5.87448 2.941747-11.45999 4.411597-17.04181 4.411597-15.42492 0-24.6825-9.110528-24.6825-20.574208 0-12.348416 10.57874-22.632653 24.0937-22.632653 3.37797 0 5.87632.585114 8.52173 1.471693 1.9116.585114 3.08551 1.32096 4.25922 1.32096 1.03014 0 1.32465-1.764352 1.4719-2.792653h1.46985l1.32301 14.25449h-1.76456c-.73769-2.791015-2.05496-5.143962-3.823-6.759424-2.78917-2.79081-6.61033-4.262707-11.0166-4.262707-9.25594 0-14.69236 7.349862-14.69236 18.371993 0 10.873037 6.61197 18.371789 15.42636 18.371789 2.64745 0 4.99507-.588595 7.93498-1.911399v-10.878566c0-3.528704-.5886-4.849664-5.58367-4.849664v-1.613414h18.65912v1.613414c-4.69893 0-4.55537 1.468416-4.55537 5.879808m-51.27475-17.34144v31.597978h-2.49651l-31.592651-32.628327c.147046.881255.147046 1.618944.147046 2.49856v19.841843c0 6.168576 0 8.37632 5.585715 8.37632v1.61362h-14.837965v-1.61362c5.580186 0 5.580186-2.643763 5.580186-8.37632v-22.631014c0-3.381657 0-7.055564-5.874483-7.055564v-1.615463h13.958348l26.005304 26.742989c-.14889-.730317-.14889-1.173709-.14889-2.200371v-14.550631c0-5.879808.14889-8.376524-5.436625-8.376524v-1.615463h14.841445v1.615463c-5.43662 0-5.73092 2.351103-5.73092 8.376319m-71.84527 31.300199v-1.61362c3.528704 0 6.023373-.294297 6.023373-5.438259v-27.18638c0-5.292851-1.909555-5.438259-6.023373-5.438259v-1.615463h20.865024v1.615463c-4.261069 0-6.025216.145408-6.025216 5.438259v27.18638c0 5.143962 2.203853 5.438259 6.025216 5.438259v1.61362z" fill="#003671"/><path d="m173.66317 87.921377h59.56669l2.65544-4.498227 1.64004-9.013248-3.14102-9.768141-4.15949-6.009651-2.11968-.684032-1.7111.750592-.68096 2.732442-8.20224 1.2288-4.29834-3.209216-3.82813-9.56416-2.31936-6.626918-.48128-2.729575-1.0924-1.299661-5.94473-.956211-3.61759 1.774797-4.37248-1.774797-3.82505-.136192-1.43155 2.392064-.88944 1.706803-1.23024 3.074458-1.02277 4.439245.75059 7.103692.41288 5.260903-.27689 3.071385 1.29843 5.055079-1.36642 4.097229-2.11682 5.398527-1.36765.684032-1.98042-.889856-2.11681 1.162036-2.25444.888217-1.36642 2.048615.20439 3.141017zm61.9223-40.422195-1.63082-1.437491-4.20618-.924467-.19374-1.540096 2.87621-.821658 1.80961 1.435853 1.62959.308634.85934.101376 2.68268 3.389235z" fill="#fff"/><path d="m200.58618 55.480443v-.823296h-1.50856l-.13455.272384zm-7.66649-.823296c-.41001-.409805-.95477 0-1.64024-.137626 0 .137831-.13619.549274.27238.820224.54928-.410009 1.22717-.682393 1.36786-.682393m9.44272-7.80288s.27238 0 0-.137626l-3.1486-.273817c-.41001.273817-.95764.273817-1.09384.686899l-.27381.136192c.27381 1.096909.27381 2.327142.27381 3.557171.54764.137626 1.23003.549274 1.23003 1.370726.54928.274023 1.23618.408576 1.64311.820224.27382-.136192.54784-.546201.68404-.956416-.68404-.68526-1.91693-.273817-1.91693-1.50528l-.81715-.410214c0-.825958 0-1.644544-.27546-2.192384l.27546-.273817c0 .273817.13455.410009.40693.686899.54928 0 1.23618.134758 1.64311-.27689.27382-.136192.27382-.820019.68404-.820019.13762 0 .54763 0 .68526-.411648m-8.34745.275456c0-.275251-.27381-.549274-.68526-.686899h-3.42098c0 .411648.41165.823296.82146.823296 0 .409805.41308.683622.68546.819814.27239.27689.54928.27689.95785 0 .40551.27689.5462-.410009.68383 0 0 .821658 0 1.230234-.13763 1.916928-.14069.95785-1.09404.820224-1.64024 1.369498-.13619.270745-.54927 1.095475-.13619 1.50528.40857-.275252.82166-.409805 1.36642-.683828 0-.410009.54764-.821452 1.09241-1.232896 0-1.231667.41287-2.463334.41287-3.831193m1.23167-3.284787c-.40858-.27689-1.23167.134758-1.64454.410009-.54477.136192-1.09241.544768-1.09241.95785h1.64148c.27238-.413082.68689-.95785 1.09568-1.367859m4.78863 1.367859c0-.413082-.13619-.413082-.27546-.546202-.68239 0-.68239-1.098547-1.22859-.821657-.41165 0-.68526-.27689-.95621 0-.13927.134758 0 .134758.13619.134758.82002 0 .40857 1.095475.95641 1.232896zm4.78863-.821658c.27689-.823091.41472-2.05312-.13619-2.873344-.41001-.409804-1.09527-.821452-1.7793-1.232896l-1.09384.411444c-.54784.411648-.82166.821657-.82166 1.641676.95929.411648 2.05476 1.506919 2.46334 2.461696h.41001c.41165-.408576.82145 0 .95764-.408576m-12.72299-2.05312c-.13619-1.369292-1.78094-1.641676-2.59932-2.05312h-.41165c-1.23167.273818-1.50692 1.503847-1.64311 2.464564.41165 1.230233 1.23146.408576 1.91385 1.230233.54784-.411648 2.05476-1.367859 2.74023-1.641677m-16.83129 41.885286c-.13762 0-.54906-.411648-.95621-.411648-.41451.820224 0 1.507124 0 2.461696 0 .27689-.13762.827802-.13762.827802-.27689 0-.8233-.690176-1.09548-1.098547v-2.325504l1.36622-1.644544c.8233.545997 1.09568 1.369088.8233 2.190745m3.83078-1.644544c0 .682189-.13619 1.232896-.54763 1.644544-.13619-.546201-.5462-1.2331-1.23167-1.2331-.5462 1.092403-.68526 1.502412-.13762 3.283148-.40858.27689-.82166.416154-1.23311.827802-.27095-.690176-.40857-1.647821-.40857-2.194022 0-.957645.27095-1.916928.54477-2.738586.27525-.54313.68833-1.230029 1.09691-1.644544l1.50691-.13312c-.54763.13312-.54763.822886-.54763 1.234534.27382.13312.95764.267879.95764.95314m4.92503.823296c0 1.230028-1.7793 2.8715-1.7793 2.8715 0-.820019.27525-1.641472.41165-2.461696 0 0-.54784-.550707-1.23167-.550707-.41021.140698-.41021.550912-.5464.962355-.41145.821658-1.2329 1.637172-1.50385 2.466202-.13476 0-.13476-.139264-.13476-.139264 0-1.231462.13476-3.835494 1.09097-4.791706.8233-.820019 1.23003-.820019 2.05169-.959283l.82309.139264-.54928.820019c.54928.273818 1.36786.82002 1.36786 1.643111m23.12663.410009-.40857.411648c-.41145-.411648-.1407-1.644544-.82289-1.782374-.68239 0-1.2333-.682394-1.50548-.815514l.40837-.276889s.41472-.134759.68546 0c.27546.276889.54764.410009.54764.820019.27545.272384.6869 0 .95785.272384.13762.411648.27382.960717.13762 1.370726m4.9279-2.05312c-.13926.41001-.27525 1.093837-.41288 1.643111-.40857-.823091-.68403-2.05312-1.64167-2.05312-.13619-.549274-.27239-.95785-.82166-1.234739l-1.23003-.135988c.13619.412877.95765.546202.54928 1.370727.40837.410009.95457.410009 1.23002 1.092403.27239.411648 0 .960717.1362 1.370726l-.95785.411648c0-.821657.27238-2.054758-.82146-2.464768-.82165.273818-.95785-.820019-1.50712-1.234534-.27075-.13312-.27075-.820224-.68219-.410214-.68239.410214-1.64331 0-2.32857.410214l.68526-1.230234c.5462-.410009 1.23166-.137625 1.7793-.410009l1.09568-.137626c1.23289 0 2.18931.547635 3.28622.957645.54477.41001.82002.820224.82002 1.50999.40857.134759.95928.134759.82145.544768m22.16141-.13312c-.27382.406938-.39936.54313-.54149.815514 0-.682394-.8233-1.092403-1.36479-2.327142l.5417-.957645c.55214.137625.96522.547635.96522 1.234534 0 .13312-.14213.54784 0 .823296 0 .134554.39936.134554.39936.411443m-46.24732.406938-.41165 1.369293-.95601-2.46313c-1.23166-1.234739-2.46169-1.370931-3.28499-1.782374-.41001-.272384-.41001.137625-.82002 0 0-.41001.13619-.820019.54784-1.230029h.82002l.82002.41001c.54784.410009 1.50549.410009 1.50549 1.231462 0 .275456-.13456.410214.13926.823296l1.50385.547635zm41.87341-1.508352c0 .139264-.27239.414515-.27239.414515-.68096-.414515-1.2288-.684032-2.05332-.684032 0-.411443-.27239-1.098342-.5462-1.098342-.95785 0-.8231.411648-1.50406.411648l1.23331-1.231667c.13148-.272384.27075-.272384.54477-.272384.40837.272384.54456.410009.95764.410009 0 .272384 0 .41001-.13312.820019.27239.273818.68076 0 .95314.273818.41165.136192.82002.410214.82002.956416m-16.14705.824525h-.13475c-.27525-.41001-.40837-.824525-.68526-.824525.41001-1.640243-.41001-2.873344-.6824-4.242637l-.13783-.406937c.54334.682393 1.64024 1.366016 1.50549 2.189312.13475 1.230028.27402 2.326937.13475 3.284787m-23.53684-1.370727-.95764.960512c-.27096-.41431 0-1.234534-.54784-1.644544 0-.137625.41164-.410009.27688-.547635-.27688-.272384-1.91692-.820019-1.91692-.820019-.68404-.411648-1.2331-.823296-1.78074-1.505485-.68239-.139264-1.0924.275251-1.77951.41001-.13598-.134759-.13598-.41001-.13598-.41001.41287-.413081.41287-1.230233 1.23289-1.230233.41022 0 .95785 0 1.36643.407142.54927 0 .82452.550707 1.23003.683827.6869.821658 1.23474.959283 1.7838 1.369293-.14069.413082.13476.685466.40551.823091.82329 0 .54784.820019.82329 1.504051m45.02324-2.189312c0 .822887 0 1.095271-.41001 1.779098l-.95478-1.231462c.39936-.41001.39936-1.09568.81715-1.640244.13763 0 .54764.954778.54764 1.092404m-24.3583.957849c-.68403-.410009-1.50712-.410009-1.91693-1.095475-.40857-.136192-.95785-.136192-1.64331-.136192-.54477.136192-1.23167.136192-1.77931.136192-.13619 0 0-.136192-.27074-.41001-.8233.41001-1.78238.41001-2.60403 1.233101l.68546-1.64311c.5462 0 .95765-.41001 1.36766-.41001.41308-.139264.95928-.139264 1.36929-.139264v.139264c1.64475 0 3.42098-.139264 4.65408 1.230029zm20.52874-1.231667c0 .549274-.13619.682394-.27238 1.369293-1.09978-.137626-.95765-1.232896-1.23761-1.369293-.54763-.818586-1.64004-.273818-2.4617-.273818-.13619-.820019.27239-.820019.27239-1.2331.41615 0 .82452-.41001 1.23617-.13312.68076-.27689 1.09077.406937 1.77767.406937.27238.414515.54927.959283.68546 1.233101m-40.50985-2.051686c0 .411648-.13783 2.187878-.13783 2.187878-.27382-1.093837-.95764-2.05312-1.7748-2.05312-.54906-.407142-.96051-.820224-1.0969-1.230233-.41165-.41001-.82002-.137626-1.36766-.41001-.54927 0-1.2331 0-1.91549.272384v-.272384l.95764-1.234534c1.09404.273817 2.32551 0 2.73715.821452.54477.413082 1.23167.685466 1.50242 1.092404v.41472c.27545.139264.82309.275251 1.09547.411648m6.02174-.272384c-.54907.406937-1.09691.406937-1.64311.272384l-.8231-1.233306c.54621.137626 1.3693.137626 2.0562 0zm23.95299.683827c0 .682393-.96399 1.640038-1.23166 2.189312.26767-.823296.40694-2.189312 0-2.189312-.27689-.139264-.82924.13312-.82924-.27689 0-.407142.13927-.960921.13927-1.367859 0-.408576-.41001-.685466-.41001-1.092403 0-.824525.95764-.960717 1.2331-1.508557.27382.54784.13455 1.231667.13455 1.779302.13927.413082.41022 1.2288.13927 1.918567 0 .408576.82472.136192.82472.54784m-10.40384 0c-.68526 0-1.23453 0-1.64311-.684032-.13926 0-.41001-.413082-.68526-.139264-.5462.546406-1.36642-.414515-2.18931-.273818-.41165.413082-.96092.685466-1.50548.820224l-.13783-.134758c0-.411648.41001-.826163.82329-1.232896.95601.406733 1.64291-1.507328 2.60076-.408781.27238.136192.82166.136192 1.09383.136192.95785.272384 1.23024 1.233101 1.64332 1.916928m-9.71837-.822886h-.13456c-.27689 0-1.23617-.41472-1.50856-.821658-.13455-.272384-.13455-.685466-.13455-.685466.40694 0 .68383-.136192 1.0924-.136192zm31.0657.823091c-.95929 0-.40858-1.916928-2.4662-1.916928-.54477 0-.81716.679117-1.36479.819814 0-.140697.13926-.956211.13926-.956211 0-.413082.13312-.824525.68076-1.232896 1.0924 0 .82002.408371 1.64167.682189.54764.137625.82453.550912 1.3693.550912zm-14.37082-1.507123c0 .823296-.40857 1.640243-.54927 2.463334 0-.956416-.26931-1.640243-.81859-2.194022 0-.269312.41022-.406938.13783-.679322 0 0-.82165-.413082-.82165-.960717 0-.684032.54784-1.096909.82165-1.508557 0-.13312.54477.279962.54477 1.099981 0 .272384 0 .549274-.13312.956416-.13926.412877.81838.412877.81838.822887m6.7072-2.738586c0 .54784-.27525.959283-.13455 1.508557-.41308-.824525-.82924-1.649255-1.23474-2.466202-.13763 0-.27075 0-.27075-.136192l.40244-.273817c.27381 0 .68997 0 .68997.273817.27238.275456.54763.682394.54763 1.093837m8.34765 1.094042c-.41615-.134759-1.36499-.275456-1.36499-.682394 0-.552346-.27833-.685466-.95765-.685466-.68854 0-1.09998.13312-1.92.413082 0 0-.41308-.550912-.54927-1.096909.27689-.136192 1.36929-.550912 1.91693-.550912.96379 0 2.05168 0 2.05168.550912 0 .41001.8233.684032.8233 2.051687m-35.85761-2.871706c-.13312.820019-.54477 1.092403-1.23003 2.048614-.54477.27689-1.36786.413082-2.18931.823092.13619-.41001.54763-.546202.82145-.954778.40857-.413082.82329-1.096909.95478-1.647616.69017-.269312 1.09854-.269312 1.64311-.269312m25.45991 1.916928c0 .820019-.14069 1.916928-.14069 2.868634-.40858 0-.40858-.406938-.40858-.815514-.27238-.824525-.41001-1.644544-.68076-2.466202-.41472-1.234534-1.09854-2.187878-1.64474-3.424051-.13763-.682189-.82617-.957645-1.3693-1.367654.6824 0 1.3693.136192 1.9155.549273 0 .41001.13455.547636.54477.959284.96215 0 .82452 1.22839 1.64311 1.915494 0 .13312-.26932.13312-.40858.412877-.27238 0-.41001.543334-.41001.543334.41001.273818.81859.411648.95928.824525m-28.0576-3.150029c-.41308.823091-.82165 1.643111-1.64167 2.05312-.54784 0-1.23024.272384-2.05333 0 .41001-.410009.8233-.550912 1.36786-.820019l1.23167-1.233101zm8.20962 2.05312c-.41001.272384-1.23167.41001-1.63861.41001-1.09855-.546202-1.09855-1.640039-2.05476-2.051687-.13926-.139264-.27525-.411648-.27525-.547635l2.33001.408371c-.13926.41001.13456.550912.40694.550912.41165.41001.82166.82002 1.23167 1.230029m16.14704 0c-.13312.272384-.41001.41001-.54313.41001 0 0-.6869-.68096-.82165-1.230029-.1407-.684032.27238-1.643315.27238-1.643315.13619 0 .27238.274022.54927.274022.13312.136192 0 .547635.13312.959283.27689.41001.6869.82002.41001 1.230029m-28.18785-2.463334-.68219 2.053325c-.6871.682393-1.64331.410009-2.46333.410009 1.23166-.410009 2.05168-1.641677 2.46333-2.463334.27075-.135987.40694 0 .68219 0m16.9687 1.643315h-.40857c-1.64311.41001-2.87765-.550912-4.10931-1.369293.82165-.274022 1.50691-.274022 2.05312-.410009h.41308l.5462.81838c.41001.139264 1.09691.550912 1.50548.960922m26.54782-.13783c-.95171 0-1.91406-.413082-2.05333-.823092-.26931-.272384-.13312-.81838-.68239-.81838-.4055 0-.68239.410009-.68239.410009-.41452.136192-1.23454-.410009-1.23454 0 0 .685261-.68096.959283-1.2331.959283-.40858 0-.54477 0-.95785-.140902v-1.369293c1.91857 0 1.78094-.682189 2.60239-.682189.54621 0 .95785.411648 1.50549.411648.68239 0 .27689-.272384.95928-.272384.68854 0 .95335.542925 1.50549.683828 0 .410009.27095.957644.27095 1.641472m-45.43038-3.286221c0 .546201-.41164 1.369293-1.09854 2.054758-.13312.136192-.54477.408371-.54477.408371 0-.81838.41165-1.641472.41165-2.326937.40857-.136192.82002-.411648 1.23166-.136192m21.34877 1.780736c-.6869 0-1.64455 0-2.18932-.411648-.82616-.547431-1.09691-.822887-1.50835-1.232896.55071-.411648 1.23146-.411648 1.64311-.546202.41001.546202 1.09241 1.643111 2.05456 2.190746m6.83909-.685261c0 .408371-.27239.549274-.5462.821453 0 0-.54784-.683827-.54784-1.095271 0-.411648 0-.821657.13619-1.231667.41165.41001.95785.956211.95785 1.50528m6.29555.274023c-1.23003-.823296-2.05005-2.054759-3.14245-3.283354 1.0924 0 1.50241 1.09097 2.321 1.2288.27689.275251.5507.409805.82145.821248zm-25.45521-3.422413c0 .960512-.13762 2.189312-1.09097 2.599321l-.41451-1.369292c.54784-.269312.96071-.68096 1.50548-1.230029m-3.00933 2.189312c-.82166-.821658-1.50999-1.640243-1.50999-2.460263.41452 0 .82309 0 1.23597.41001 0 .684032.40857 1.2288.27402 2.050048m39.14056-.135987c-1.2329-.547635-3.01261-1.092403-3.97026-1.092403-.54476 0-2.18931.682393-2.8717 1.364787l-.27238-1.364787c.95477-.137626.95477-.821658 1.49954-.821658.41308 0 .96072-.139264 1.37523-.139264.40551 0 .67789-.409805.95785-.409805.54477 0 .26931.820019.81715.820019.41288 0 .54907-.27095.95908-.27095.68854 0 1.36786 1.09097 1.50549 1.914061m-32.98263.136192c-.6869-.411648-1.9155-.546202-1.7793-1.366221.41-.684032.82001-.823296 1.0924-1.233101.13926.959079.27545 1.777664.6869 2.599322m12.59151-.821658-.68403.275456c-1.50528 0-2.32858-.413081-3.0124-1.094041.54784 0 1.36929-.549069 1.36929-.549069.68546.549069 1.64331 1.230029 2.32714 1.367654m-26.6838-1.367654c-.54927.549069-1.23474.960512-1.64454 1.777664 0-.41001-.13476-.817152-.27239-1.228595.13763-.41001.54764-.82002.82002-.959079.27525.139264.68383.139264 1.09691.41001m17.51183 1.64311c-.5462.134554-1.50405.41001-1.91406-.275456-.82309-1.228595-.27525-2.463129.13619-3.416473.27382.818585.41165 1.638809.54621 2.458828.13926.550708.95785.82002 1.23166 1.232896m10.81201-2.326937c-.54764.274022-1.64004.413081-2.46006-.137626l1.09241-.682393c.41.408576.95928.682393 1.36765.820019m15.46936-.411648c-.82759 0-1.09998-.134554-1.78094-.134554-.55214 0-1.37072.408576-1.91836.959283-.27546-.413081-.13312-.824524 0-1.232896.40837-.413286 1.09384-.957849 1.7793-.957849.96215 0 1.92.820019 1.92 1.366016m-40.37529 1.505689c-.95785-.27095-1.91406-1.094041-2.32551-1.91406-.27545-.544768-.40857-1.233101-.40857-1.782375.54476.137831.95641.549274 1.23166.82473v.13312c.54477.824525 1.36622 1.644544 1.50242 2.738585m1.7793-2.327142-.27238 1.916928c-.54928-.821453-.95929-1.641472-1.09548-2.736947zm14.09536 1.646182c-.82309.270951-1.36929-.413081-1.91693-.824524-.41001-.821658-.41001-1.641677-.68239-2.190951.68239.549274 1.77623.549274 1.64004 1.782375 0 .408576.55091.820019.95928 1.2331m3.28499-1.646182c-.82166 0-1.77951.413082-2.18808-.411648.27095-.13312.54477-.54313.95785-.819814zm21.3504-1.369293c-.96256-.270745-1.64475-.546201-2.46784-.546201-.40858 0-1.64168.275456-1.77643.546201-.41452-.410009.27689-1.636966.81858-1.912422.54927-.273818.95785-.136192 1.23781 0 0 .821657.95314.411648 1.50078.682393.27238.408576.55234.82002.6869 1.230029m-18.74801-.682393c-.27525.411648-.68526 0-.96051 0h-1.23187c-.13763-.408372-.27382-.547636-.41001-.818586.6869-.135987 1.09404-.411648 1.50712-.135987.41001.406937.54477.954573 1.09527.954573m-11.77436-2.187879c-.13312.821658-.41001 2.187879-1.2286 2.599527 0-.411648-.41164-.82002-.68526-1.230234-.13476 0 0 .410214-.13476.410214 0 .408372-.13619.82002-.13619 1.50528-.41451.134759-.96235.410215-1.50692.134759v-.411648c-.27545-.408371-.27545-.820019-.27545-1.228391l-.13312-.139264c-.27689.139264-.27689.547636-.27689.82002-.13619.139264-.54477.54784-.54477.959283-.41452 0-.82309-.134759-1.23597-.411648v-1.367655c0-.27095 0-.27095-.13476-.27095l-.68833.818586c-.54026-.547636-.67789-1.641677-.67789-2.464768 2.32243-1.230029 5.05959-.82002 6.84196-.131482.27075.131482.54477.131482.81715.408371m10.67889-1.096909c-.82022 0-1.23474-.410009-1.64332-1.231462 0-.408576-.13926-.959283 0-1.641677.1362.41001.27239.821453.54621 1.092403.54784-.27095.54784.41001.68403.549274.13926.411443.41308.821453.41308 1.231462m-3.00954-6.708838c0 .140902-.27689 1.231667-.27689 1.231667l-1.09547.414515.6869-3.150028c.27095.546201.68546 1.095475.68546 1.503846m-21.75877-2.325504-.5507.821658c.13783 1.503846-.54477 2.464768-.54477 3.694796l-.68526-2.19095c.13619-.682189.27545-1.230029.68546-1.913856zm21.48209 8.624333c-1.64311-.960717-3.56004-1.641677-5.61173-1.780736 0 .410009 0 .820019-.13619.959283 1.64311.821453 3.28315 1.641472 4.65244 2.874573v1.233305c-1.36929-1.369497-3.00933-2.876416-4.92789-3.286425-.1362.273817-.54313.684032-.82002 1.098547-.95929-.688538-2.05312-1.234739-3.28172-1.508557-.41472 0-.54784-.550912-.54784-.960717l-.13926-.682393c.6871-.137831 1.23494-.685466 1.37093-1.367859.13476.136192.40857.136192.68096.136192.27525-.136192.27525-.411648.27525-.823092 0-.818585-1.77766-.818585-2.59932-.818585-.95785 0-1.64455-.140698-2.32714.410009-.27382 0-.13927.408576-.13927.684032 0 .136192.41308.411648.41308.411648.40858 0 .54784-.275456.8233-.275456-.1409.821453.27238 1.367655.95457 1.643111l-.13312 1.231667c-.41308.411443-1.09691.135987-1.64454.411443-.82166.41001-1.64168.820019-2.46334 1.230029-.40857-.41001-.68403-.820019-.95641-1.230029-1.36909.41001-2.18931 1.230029-3.55697 2.05312-.41165.273818-1.09691.821658-1.09691.821658-.13619-.136192 0-.54784 0-.95785 1.23003-1.232896 2.87335-1.64311 4.24243-2.46784v-1.092198c-.54763-.137831-1.09383 0-1.77766 0-1.23474.272384-2.46477.823091-3.42098 1.503846 0-.411648-.27545-.821453.13456-1.092403 1.50712-.821453 3.28642-1.369293 5.20028-1.232896v-.546406c-.1362-.275252-.1362-.6869-.41165-.6869-.81838-.959283-1.6384-2.050048-1.6384-3.009331l.40837-.276889c-.27238-.818586-.40837-2.873344 0-3.829555-.82002-.273818-1.64004-1.095476-1.91242-1.641677-.27525-.686899-.55071-1.095475-.68526-1.916928.27381-.820019.68526-1.231667 1.09076-2.053325.27546 0 .6869-.135987.8233-.411648.68362-.135987 1.23146-.821248 2.05312-.409805.54763 0 1.09527.273818 1.50384.41001 0 .275456 0 .411648.41309.685465.81408.136192.81408.959284 1.22859 1.640039.40858.139264.82145.139264 1.23003.139264.8233.272384 1.36929.272384 1.78381.684032 1.09097-.684032 2.32407-.823296 3.55266-.684032.13927-.54784.41452-.959283.54928-1.643111.27689.273818.13762-.136192.41164-.136192.68383-.410009 1.36766-1.09568 2.32694-.821657.6824.411648 1.64004.136192 2.05312.957849.5462.411444.82023 1.232896 1.23167 2.05312-.41165.82002 0 2.05312-.82309 2.461696l-.82166.824525c-.27238 0-.41001.270951-.82145.270951.41165.959283.13762 2.46784-.27382 3.420979.27382-.134759.68526-.134759.82309-.544768.13619.136192 0 .410009 0 .544768-.13783.276889-.13783.413081-.13783.413081.13783.823091-.41165 1.503847-.95764 2.054554-.27239.818585-.95785 1.915494-1.9155 2.051686v.411648c2.05169 0 3.83386.41001 5.74792 1.502413zm30.78717-9.034342c-.41165-.41001-.82002-.821453-1.36765-.821453-.40714-.54784-.95027-1.230234-1.50712-1.230234.41472-.137625.96092-.411648 1.64474-.411648.41001.682599.81859 1.230234.95785 1.641882zm-52.54451-1.641677-.95785.408576.13783-.818586c.27239-.411648.41001-.824525.82002-1.232896zm48.17183-1.367655c-.54764 0-.95457.13312-1.51286 0-.26788-.275456-.67645 0-.94884.13312-.27832 0-.5462-.13312-.95764-.408576.81715 0 1.23003-.546201 1.90648-.823091.55829.411648 1.09834.686899 1.51286 1.098547m-30.24691 39.55671c0-.546201-.41165-.821657-.95785-.821657-.41001 0-.95765.54784-.95765.821657 0 .549274-.41165 3.694797-.41165 3.694797h1.09568c.41145-1.367859 1.23147-3.010969 1.23147-3.694797m-3.14573-.140697h-.13927l-1.09219-1.092403h-.13927c-.27238.270745-.41165.686899-.68403 1.092403 0 1.236173.41165 2.607104.68403 3.835494h1.23167c0-1.367859.13926-2.599321.13926-3.835494m22.03423-1.641677-1.36622.137626c.40837.411648.40837.959283.40837 1.2331 0 .411648-.13762.820224-.40837 1.09568-.41472-.275456-.41472-.684032-.69018-1.09568-.27381 0-.40837.68096-.40837.960922 0 1.367654.54477 2.328576.95929 3.145728h1.36929c-.1407-1.2288-.41001-2.191155-.41001-3.42569 0-.68096.41001-1.502412.5462-2.051686m30.9248-13.140787c0-5.747917-1.91386-11.906048-7.11721-17.10633-.82923-.821452-1.91263-1.782374-3.01261-2.464563-2.05312-1.366425-3.96247-3.286425-5.06409-5.338112-.68382-.823091-1.23003-1.232896-2.05455-1.641676.1407.408576.41001.818585.54763 1.230233h-.13762c-.81551 0-1.49791-.411648-2.05333-.821657l.55542-.546202c-.13783-.273818-.55542-.273818-.82923-.273818-2.45412-.410009-4.50888.82002-6.69819 1.230029v.27689c1.36786.546201 1.64454 2.189312 2.46026 3.009536h.82903c.4055 0 .81859.411648 1.0879.275251 0-.275251-.26931-.686899-.26931-.823091.26931-.272384.5462-.272384.81858 0 .68096.410009 1.77173-.272384 2.31793.823296-.81388 0-1.63697.135987-2.31793.408371 0 .137626.41616.547635.27382.824525-.68403-.27689-1.50528 0-1.91078-.686899l-.14234.273817c.96072.95785 2.19546 1.779507 3.42548 2.192384 1.91079.410214 3.55267-.549069 5.33341-.139264 2.05475.95785 3.69336 2.19095 5.06265 3.560243 4.51646 4.790272 6.16243 9.851495 6.16243 14.367744 0 5.613568-1.64597 9.583616-4.10767 12.04695-1.50999 1.509991-3.42405 2.874573-5.75119 2.874573-.54477 0-1.64311-.137625-2.32551-.683827.40858-1.644544.6824-3.422413.6824-6.020301 0-1.511424 0-5.477171-1.91243-10.131456-.41451-.957644-1.92163-3.971481-3.83385-6.020096-1.50569-1.507123-3.28499-2.876416-5.05815-2.876416-.82473 0-1.64619.137831-2.33329.688538-.68075.680755-1.0924 1.777664-.95314 2.59625-1.2331.682393-3.01383 1.231667-4.51932 1.231667-1.77787 0-3.69193-.959283-5.33811-2.050048v-2.056192c-.95765-.410215-1.23003-.820224-1.36479-1.641677l.13476-.139264c.41001.139264.68833.411648.95764.550707-.13598-.960717-.26931-2.05312-.81838-2.874777-.41164 0-.82165-.136192-1.23617-.411648-.54333-.411444-.81858-.956212-.81858-1.641472.41308.68526 1.09547.411648 1.50528.821452-.6867-1.641472-.40981-2.464563-1.64291-5.064089-.40858-1.234534-1.64168-1.916928-2.46333-2.738586-.40858-.411648-.54764-.823091-1.23003-.823091-.41001-.137625-.41001-.818585-.54477-1.230029.27238 0 .54477.273818.81858.411648-.68403-2.053324-1.36786-4.108083-3.28786-5.339545l-.27238.275251c-.82145.13312-1.64004.13312-2.3255.13312.27238-.408371.82022-.544768 1.36786-.817152-.54764-.411443-.95642-.548864-1.77767-.548864-.27545.137421-.95949.548864-1.50569.548864h-.13762c0-.411443-.13476-.96215.68403-1.232896-.81879-.139264-1.50569-.139264-2.4617 0-.13926.684032-.68546 1.095475-.68546 1.641677-.41022.408371-.54784.820019-.95642 1.231462 0-.956211.40858-1.777664.5462-2.602393-.5462.13783-1.22859.550912-1.64311.550912-1.09547-.550912-2.46313-1.233306-3.01383-1.233306.82309.682394.41451 1.644544.5507 2.461696l-.55091-.408371c-.26911-.546202-.81387-.95785-1.09076-1.641677-.82002 0-1.36786.270746-2.05169.684032l-.13455.137421c.5462 0 1.09363.411648 1.36601.820224-.95908 0-1.64147-.408576-2.59768-.408576 0 0 0-.137626-.27546-.137626-.41165.137626-.82309.546202-1.09691.821453-.95641.818586-1.64003 1.641677-2.18787 2.873344.27545 0 .68546 0 .82329.137626-.41328.272384-.82329.821657-1.36806 1.092403v2.056192c-.41001.546201-.95765.954777-1.2329 1.641677-.68546 2.463129-.82166 5.065727-.82166 7.938867-.27381.410009-.54784.546201-.81715.685465v2.46313s.95335-.959283 1.36479-1.234535c0 .549274-.13619 1.370727-.13619 1.918567-.41165 0-.95929.550707-.95929 1.09527 0 .54784.1362 1.097114.1362 1.643315 0 .269312 0 .408372.13783.680756.13762-.272384.41001-.680756.68526-.82002.13619 0 .41001-.27095.82022-.27095-.27238.410214-.41021 1.09097-.68403 1.63881l-.41165.411443s-.13599.275456-.13599.408576c.41165 2.877645 1.36766 5.614797 2.46477 8.489574-.95928 1.912423-1.91693 3.968615-2.32857 5.472666-.41001 1.095475-.95335 3.28622-.95335 3.28622-.68526-.682393-1.64618-.820019-2.46784-.820019-.956.137626-1.77766.41001-2.46313 1.230029-.82002-.41001-1.91549-.273818-2.46313.41001-1.23003 1.09998-1.23003 1.644748-1.23003 2.464768-.41164.411648-.95928 1.098547-.95928 2.053324 0 1.370727.27525 2.187674.95928 3.286221h21.75427c-.27238-.410009-.54764-.957645-.82145-1.367859-.40858-.823091-.13476-1.918362-.13476-2.738586.40857-.821452.95641-1.64311 1.37072-2.463129.13169-.41001 0-.41001.27239-.549274l.95785-.408576c.54477 0 .95928-.276889 1.64311-.276889.54477.685465.54477-.546202 1.23167-.82002 1.64311-.137625 3.00933 0 3.83098 1.230234 0 .275251.27382.275251.27382.414515h-.68546c-.82146-.414515-1.9155-.824729-2.87478-.414515 0 .414515-.13763.414515-.13763.824525v.684032c.54928.135987.95929.545997 1.50692.957645.27239-.549274 1.09568-.95785 1.77787-.95785.68547 0 1.78094.408576 1.78094 1.644544 0 .546406-.13783 1.09568-.13783 1.641882.5462.408371 1.36929.541696 2.05476.954572-.27546.416154-.68547.416154-1.09384.416154h-1.23474c-.13762-.139264-.41164-.139264-.41164-.416154-.40981.416154-.68383 1.097114-.95765 1.644749h16.69939c-.27381-.547635-.55234-.957645-.68546-1.367859-.41001-.823091-.27689-1.918362-.41001-2.738586l1.64004-2.18624c.82473 0 1.64474-.276889 3.1488-.411648.27074-.414515 0-.689766 1.22859-.823091 1.09384 0 1.78217.408576 2.05906.54784.13312.275251.13312.275251 0 .549274-.27689.270745-.82309-.274023-1.23453-.139264-.27239.276889.13762.410009.13762.684032.27382.272384-1.23003-.274023-1.23003-.274023s-.41308.82002-.54927 1.231668c0 0 .68403.411648.81715.821452.27689.411648-.26788.820224-.26788 1.233306-.41308-.13783-.82923-.552346-.96071-.413082-.27403 1.095271 0 2.057626-.14234 3.286221h1.50999l.27382-2.464768c.13926-1.370726 1.7795-3.965542 2.73715-3.965542.68854 0 .96072.270745 1.50856.680755.4055.41001.95314.821658.95314 1.092403 0 .140698-.40858.416154-1.09241.416154-.27238 0-.40857-.416154-.68075-.686899l-.82473.821452s.95785.820224.95785 1.507124c0 .541696-.13312.954572-.68547 1.231462l-.81715-1.64311c-.41001 0-1.10141.820019-1.10141 1.36622 0 .546202-.27382.827802-.27382 1.644749h8.892c.96543 0 1.78381-.276889 2.74473-.817152h1.77623c2.46784 0 5.61501-.411443 8.89365-3.56311 5.20192-4.926464 5.47717-11.63817 5.47717-14.237696m-55.42236 18.617958c-.68403-1.367859-.82166-3.286221-.82166-3.694797 0-.821657 0-1.782374.40858-2.464768l-1.6384.41001c-.2771.41001-.41329.821658-.41329 1.092403l.5462-.270745c.27546 0 .41452.270745.54784.411648-.13312.821248-.95785.821248-1.37093 1.090764-.40694 1.36786.8233 2.19689 1.09855 3.425485z" fill="#eb6606"/></g></svg>