<?xml version="1.0" encoding="UTF-8" standalone="no"?>
<svg
   width="640"
   height="360"
   viewBox="0 0 49.345536 27.756864"
   version="1.1"
   id="svg1339"
   sodipodi:docname="ing-bank.svg"
   inkscape:version="1.1.2 (b8e25be8, 2022-02-05)"
   xmlns:inkscape="http://www.inkscape.org/namespaces/inkscape"
   xmlns:sodipodi="http://sodipodi.sourceforge.net/DTD/sodipodi-0.dtd"
   xmlns="http://www.w3.org/2000/svg"
   xmlns:svg="http://www.w3.org/2000/svg">
  <defs
     id="defs1343" />
  <sodipodi:namedview
     id="namedview1341"
     pagecolor="#ffffff"
     bordercolor="#666666"
     borderopacity="1.0"
     inkscape:pageshadow="2"
     inkscape:pageopacity="0.0"
     inkscape:pagecheckerboard="true"
     showgrid="false"
     inkscape:zoom="0.40727392"
     inkscape:cx="1136.827"
     inkscape:cy="998.09977"
     inkscape:window-width="2259"
     inkscape:window-height="1225"
     inkscape:window-x="2701"
     inkscape:window-y="321"
     inkscape:window-maximized="0"
     inkscape:current-layer="g1337" />
  <g
     fill-rule="evenodd"
     clip-rule="evenodd"
     id="g1337">
    <path
       d="m 24.989824,16.832526 v 1.710494 c -0.48747,0.376761 -1.665283,0.809167 -2.963079,0.809167 -1.989298,0 -3.898606,-1.331415 -3.898606,-3.649944 0,-2.261145 1.93829,-3.705588 3.870204,-3.705588 1.210272,0 1.844389,0.401685 2.274476,0.401685 0.229535,0 0.373863,-0.259096 0.401685,-0.344881 h 0.171571 c 0,0.807427 0.08637,1.7644 0.172731,2.257087 l -0.200553,0.02898 c -0.401685,-1.275191 -1.724985,-1.883805 -2.733545,-1.855403 -1.643257,0.02898 -2.53705,1.478642 -2.53705,3.102192 0,1.767298 0.980158,3.2471 2.595013,3.2471 0.576154,0 1.3546,-0.146067 1.614276,-0.464286 v -1.537184 c 0,-0.868289 -0.461967,-1.07174 -0.808008,-1.07174 v -0.202292 h 2.872657 v 0.202292 c -0.343722,5.8e-4 -0.831772,0.204031 -0.831772,1.07232 z m -8.998789,-2.550381 v 5.098444 h -0.2846 l -4.909484,-5.939491 c 0.0284,0.08637 0.05738,0.231853 0.05738,0.464285 v 3.593721 c 0,1.247367 0.289237,1.593987 0.923354,1.593987 v 0.201712 H 9.321784 v -0.201712 c 0.666577,0 0.956393,-0.34662 0.956393,-1.593987 v -4.31884 c 0,-0.608613 -0.521669,-0.925672 -1.130283,-0.925672 V 12.05346 h 2.110441 l 4.190741,4.981938 c -0.02782,-0.204031 -0.02782,-0.261415 -0.02782,-0.434725 v -2.319108 c 0,-0.869449 0,-2.026973 -0.896691,-2.026973 V 12.05346 h 2.323166 v 0.201132 c -0.884519,5.8e-4 -0.856696,1.157525 -0.856696,2.027553 z M 7.009634,13.29677 v 4.579673 c 0,0.406322 -0.08637,1.217228 0.806269,1.217228 v 0.201712 h -2.85295 v -0.201712 c 0.893793,0 0.808007,-0.810326 0.808007,-1.217228 V 13.29677 c 0,-0.869449 -0.490369,-1.041599 -0.836409,-1.041599 v -0.201133 h 2.938735 v 0.201133 c -0.373863,0 -0.863652,0.17215 -0.863652,1.041599 z M 36.16977,12.011145 c 0.05796,0 0,-0.08579 0,-0.114187 -0.115927,-0.171571 -0.202292,-0.486891 -0.230694,-0.486891 -0.08637,-0.02956 -0.144908,0 -0.259675,-0.05854 -0.05796,-0.05796 -0.230694,-0.144908 -0.289237,-0.174469 -0.0284,0 -0.115347,-0.02956 -0.230693,-0.05796 h -0.143749 c 0.0284,0.08695 0.115347,0.17447 0.143749,0.232433 0,0.02898 0,0.116506 0.02898,0.17331 0.05738,0 0.144908,0.02898 0.201712,0.05738 0.0284,0 0.202292,0.0284 0.259675,0.08579 0.05796,0 0.259676,0.228955 0.289237,0.257357 0.08579,0.05738 0.17273,0.114187 0.230694,0.08579 z m 8.24121,3.418672 c -0.05553,-0.05311 -0.128435,-0.08422 -0.20519,-0.08752 0,-0.08637 -0.02956,-0.202291 0,-0.317638 0.05912,0 0.175629,0.02898 0.175629,0 0,-0.17331 -0.02956,-0.346041 -0.05796,-0.432406 -0.07664,-0.03348 -0.155225,-0.06232 -0.23533,-0.08637 -0.0017,-0.08029 -0.0215,-0.159154 -0.05796,-0.230693 0.08695,-0.0284 0.146068,-0.0284 0.20519,-0.0284 0,0 -0.05912,-0.260835 -0.0881,-0.377341 -0.05912,-0.0284 -0.146067,-0.0284 -0.20519,-0.0284 -0.02956,-0.05275 -0.05912,-0.104913 -0.0881,-0.186641 0.05912,-0.02898 0.117666,-0.02898 0.176788,-0.05854 -0.0382,-0.104315 -0.08758,-0.204204 -0.147226,-0.297931 h -0.201712 c -0.02956,-0.06086 -0.05796,-0.117666 -0.05796,-0.17447 0.0284,-0.02782 0.08579,-0.05564 0.115347,-0.08463 -0.03147,-0.08479 -0.08048,-0.162003 -0.143749,-0.226636 -0.05796,0 -0.115346,0.0284 -0.17331,0 -0.0284,0 -0.115346,-0.114188 -0.08579,-0.114188 0.0284,-0.05738 0.08579,-0.08579 0.114187,-0.114187 -0.08579,-0.114188 -0.114187,-0.200553 -0.201712,-0.257357 -0.0568,0 -0.115347,0 -0.17215,0.0284 0,0 -0.05796,-0.08579 -0.08695,-0.114187 -0.08579,0 0.05912,-0.143169 0.05912,-0.143169 -0.08838,-0.111662 -0.184856,-0.216666 -0.288657,-0.314161 -0.05796,0 -0.115346,0.05738 -0.143748,0.05738 0,0 -0.115347,-0.08579 -0.115347,-0.114768 0,-0.05738 0.115347,-0.08579 0.115347,-0.08579 0,0 -0.202872,-0.229535 -0.345461,-0.317059 -0.05796,0.02898 -0.08695,0.02898 -0.144908,0.02898 -0.08579,-0.08695 -0.201712,-0.144908 -0.201712,-0.144908 0,0 0.08695,-0.05854 0.08695,-0.08695 -0.144908,-0.08695 -0.201712,-0.145488 -0.317059,-0.233012 -0.115347,-0.05796 -0.17331,-0.144908 -0.230694,-0.231274 -0.20403,-0.317058 -0.466604,-0.7790245 -1.103619,-0.8653895 0,0 0.144908,0.202871 0.231852,0.3466195 0,0.02898 0,0.02898 -0.115926,0.02898 h -0.202871 c -0.05796,-0.08637 -0.08695,-0.115926 -0.115927,-0.1727295 -0.05796,-0.115927 -0.08637,-0.144329 -0.144908,-0.202871 -0.114767,-0.08637 -0.691501,0.2312725 -1.147092,0.3466195 0.116506,0.144328 0.223738,0.230693 0.248083,0.288656 0.120563,0.143749 0.322855,0.404004 0.466604,0.607455 0.02956,-0.02956 0.05796,-0.05854 0.115926,-0.08695 0.374442,-0.05854 0.374442,-0.145488 0.374442,-0.145488 0,0 -0.288077,-0.230693 -0.08637,-0.230693 0,0 0.144329,0.02956 0.201712,-0.02898 0.144908,-0.0284 0.318798,-0.05796 0.405743,0 0.115347,0.08637 0.17331,0.201712 0.259675,0.289237 -0.05854,0 -0.115926,-0.02898 -0.17389,-0.02898 -0.17331,-0.0284 -0.347199,0 -0.492107,0.02898 0,0 0.231273,0.20403 0.289816,0.290975 -0.05854,-0.02898 -0.231853,0 -0.231853,0 -0.08637,0.0284 -0.201712,0.05796 -0.231273,0.05796 -0.08637,0.02898 -0.172731,0 -0.230114,0.02898 0.115346,0.05796 0.634697,0.261414 0.894952,0.261414 0.231853,0 0.376761,-0.02898 0.581371,-0.116506 0.02956,-0.02898 0.0881,-0.05796 0.117665,-0.02898 0.115347,0.02898 0.172151,0.05796 0.230694,0.115927 0.748305,0.458489 1.583555,1.54414 1.842071,2.12725 0.259095,0.53558 0.402844,1.141875 0.402844,1.718609 0.02956,0.786561 -0.229534,1.534287 -0.748305,2.197965 -0.287498,0.376761 -0.834091,0.700776 -1.410825,0.759898 0.172151,0.206929 0.259096,0.532102 0.345461,0.820759 0,0 0.201712,-0.0284 0.317059,-0.08289 0,-0.23649 -0.143749,-0.501382 -0.143749,-0.560504 0,0 0.172151,-0.118825 0.317059,-0.118825 0.0284,0.08926 0.114187,0.23649 0.229534,0.442839 0.115347,-0.05912 0.201712,-0.117665 0.288657,-0.205769 0,-0.147227 -0.08695,-0.325174 -0.144908,-0.502542 0.201712,-0.0881 0.317059,-0.117665 0.317059,-0.117665 0.05796,0.0881 0.201712,0.177947 0.229534,0.266051 0,0 0.144908,-0.148386 0.201712,-0.295612 -0.0568,-0.115347 -0.143749,-0.204031 -0.201712,-0.319377 l 0.230694,-0.259096 c 0,0 0.143749,0.115347 0.201712,0.17331 0.0881,-0.116506 0.176788,-0.230694 0.20519,-0.374442 -0.146068,-0.144908 -0.20519,-0.144908 -0.234172,-0.230694 0.05912,-0.08579 0.0881,-0.201712 0.147227,-0.288077 0.08695,0.02898 0.146067,0.08637 0.205189,0.115347 0.05912,-0.115347 0.117666,-0.287498 0.117666,-0.402845 -0.05912,-0.05796 -0.147227,-0.08637 -0.20577,-0.143749 l 0.05912,-0.288656 c 0,0 0.147226,0.02956 0.20519,0.02956 0.0313,-0.178527 0.0313,-0.354155 0.0313,-0.471241 z m -9.222528,-5.265379 c 0.02898,-0.08637 -0.02898,-0.1727305 -0.02898,-0.2596755 -0.05738,-0.202292 -0.143749,-0.404004 -0.172151,-0.635277 v -0.114767 c -0.115927,-0.05796 -0.230694,-0.08637 -0.375022,-0.144328 0,0 0,0.17273 0.05796,0.259095 0.05796,0.144908 0.144329,0.375602 0.144329,0.490949 0,0.08636 0.0284,0.17273 0.05738,0.2596755 0.143749,0.08637 0.316479,0.144328 0.316479,0.144328 z M 35.881113,11.264 c 0,-0.232432 -0.08637,-0.406901 -0.144329,-0.523407 0,-0.0284 -0.02898,-0.05738 -0.08637,-0.08637 -0.08637,-0.08637 -0.17273,-0.17331 -0.201712,-0.17331 -0.08637,-0.08637 -0.144328,-0.17273 -0.230693,-0.259675 -0.08637,0 -0.143749,0.08637 -0.201712,0.115927 -0.0284,0.05738 -0.144329,0.115346 -0.08637,0.143748 0.0284,0.05796 0.08637,0.05796 0.144329,0.08637 0.05738,0.05796 0.114767,0.08637 0.201712,0.144328 0.115347,0.115926 0.17331,0.260835 0.317638,0.377341 0.05738,0.02898 0.08637,0.05796 0.114767,0.05796 0.0284,5.79e-4 0.144329,0.0881 0.172731,0.117085 z m 4.769793,5.81545 c 0,-0.02956 0,-0.260255 -0.05796,-0.260255 -0.02898,-0.0284 -0.05796,-0.114767 -0.08695,-0.143749 -0.0284,0.08579 0,0.143749 0,0.230694 0,0.0568 -0.115347,0.114188 -0.08695,0.143749 0.08695,0.02956 0.144908,0.230693 0.203451,0.287497 0.08579,0.115347 0.05622,-0.201712 0.0284,-0.257936 z m -6.06759,-8.1844065 c -0.259675,-0.172731 -0.548332,-0.346041 -0.836409,-0.461387 -0.17273,0.143748 -0.288077,0.259675 -0.374442,0.259675 -0.08637,0 -0.02898,-0.172731 -0.02898,-0.288657 -0.08695,0 -0.144328,0 -0.230694,-0.0284 -0.05796,0.201712 -0.08637,0.460808 -0.230693,0.51935 -0.05796,0.0284 -0.08637,0.0284 -0.115347,0.0284 v -0.230114 c 0,-0.02898 0.115347,-0.230693 0.08636,-0.259675 0,0 -0.259675,0.05738 -0.317059,0.08637 -0.02898,0.0284 -0.201712,0.115347 -0.230693,0.115347 0,0 -0.08637,-0.02898 -0.115347,-0.02898 -0.08637,-0.05796 -0.144908,-0.05796 -0.230694,-0.115347 -0.115346,0.34604 -0.143748,0.432405 -0.143748,0.375022 0,0 -0.404004,-0.259675 -0.548332,-0.432985 -0.374443,0.05738 -0.374443,0.115346 -0.692081,0.230114 -0.115347,0.115926 -0.288077,0.259675 -0.402845,0.432405 -0.05796,0.115927 -0.115926,0.172731 -0.17331,0.289237 l 0.288078,0.115346 c 0.0284,-0.0284 0.17273,-0.231273 0.201712,-0.288656 0.202291,-0.115927 0.548332,-0.317059 0.663678,-0.432406 0.0284,0.05738 0.374443,0.259675 0.519351,0.34604 0.115347,0.08637 0.230693,0.115347 0.34604,0.17331 0.05796,-0.08636 0.114767,-0.17331 0.172731,-0.375022 0.08637,0.05796 0.201712,0.05796 0.288077,0.08637 0,0.115346 0,0.230693 0.02898,0.34604 0,0.05796 0.05738,0.02956 0.173311,-0.0284 0.17273,-0.05854 0.34604,-0.08637 0.432405,-0.115347 0.201712,-0.115926 0.317059,-0.34604 0.490369,-0.34604 0.143749,0 0.403424,0.08637 0.461387,0.143749 0.08637,0.02898 0.144329,0.05796 0.230114,0.05796 0.115347,0 0.201712,-0.115347 0.288077,-0.17331 z m 3.815719,5.0607685 c 0,-0.08695 -0.02956,-0.194756 -0.115927,-0.247503 -0.261414,0.07883 -0.55065,0.104914 -0.752942,0.104914 -0.289236,0 -0.578473,-0.05217 -0.983056,-0.218522 -0.02956,0.05854 0,0.166355 0,0.166355 0.17331,0.136793 0.17331,0.05217 0.318218,0.194756 0.05796,0.05796 0.08637,0.17389 0.115927,0.376182 0.0284,0.115346 0.08637,0.144908 0.144328,0.317638 0.08637,-0.05796 0.230694,-0.02898 0.230694,-0.02898 0,-0.143748 -0.08637,-0.288656 -0.08637,-0.316479 l -0.144908,-0.290395 c 0.0284,0 0.115927,0.115926 0.260255,0.115926 0.02898,0 0.115347,0.02898 0.17331,0 0,0 0.08695,0.05854 0.08695,0.116506 0.05796,0.08637 0.05796,0.144908 0.08637,0.230694 0.05796,0 0.08637,0 0.115927,-0.02898 0.115926,0 0.17331,-0.02898 0.17331,-0.02898 -0.0284,-0.05796 -0.05796,-0.114767 -0.05796,-0.17273 -0.02956,-0.05796 -0.08695,-0.202871 -0.08695,-0.202871 z M 36.488567,13.56572 c 0,0 -0.05796,-0.358213 -0.115926,-0.753522 -0.05796,-0.343142 -0.08695,-0.457909 -0.174469,-0.600499 -0.04463,0.02301 -0.09489,0.03286 -0.144909,0.0284 -0.08636,0.0284 -0.144328,0.05738 -0.144328,0.05738 0.05796,0.228954 0.144328,0.514713 0.17331,0.854377 0,0.08463 -0.02898,0.176209 0,0.267791 z m 4.919339,3.34042 c 0,-1.475743 -0.525147,-2.717895 -1.162743,-3.398963 -0.374442,-0.384296 -0.778446,-0.609193 -1.154627,-0.609193 -0.340244,0 -0.603977,0.253299 -0.603977,0.521089 0,1.028847 0.4098,1.691946 0.652666,2.273897 0.07245,0.146067 0.0968,0.262573 0.0968,0.406322 0.02898,0.374442 -0.25214,1.064205 -0.45675,1.440386 -0.02898,-0.02956 -0.175629,-0.05796 -0.292715,-0.05796 -0.290395,0 -0.405742,0.201712 -0.464865,0.376761 -0.08694,0 -0.144908,-0.05912 -0.231273,-0.05912 -0.34662,-0.0284 -0.636436,0.294453 -0.636436,0.648609 0,0.383716 0.08695,0.585428 0.231273,0.831192 h 0.289237 c -0.0284,-0.08173 -0.115927,-0.506019 -0.144329,-0.623684 -0.02956,-0.177947 0.0284,-0.296772 0.115927,-0.384876 0.114767,-0.176788 0.405163,-0.117665 0.405163,-0.117665 -0.08695,0.147226 -0.202872,0.383716 -0.202872,0.620206 0.0284,0.147227 0.05796,0.370385 0.144908,0.506019 h 0.231274 c 0.05854,-0.162876 0,-0.300249 0,-0.446896 0,-0.08926 0,-0.176788 0.02956,-0.266051 0,-0.05912 0.144908,0.117665 0.144908,0.117665 0,0 0.116506,-0.147227 0.116506,-0.264892 0,-0.08926 -0.174469,-0.06028 -0.204031,-0.148386 -0.02898,-0.0881 0.05796,-0.294453 0.05796,-0.294453 0.175049,-0.117665 0.321696,-0.08926 0.380238,-0.08926 0.08695,0 0.117086,0.02956 0.233592,0.02956 0.08347,0 0.107232,-0.174469 0.107232,-0.261414 0.02434,0.0284 0.0968,0.08695 0.121143,0.08695 0.08173,0.02956 0.11071,0.02956 0.197075,0.05796 0.115927,0.05912 0.230694,0.116506 0.346041,0.234171 v -0.02956 c -0.0284,-0.117665 0.02956,-0.262573 -0.0568,-0.321696 0,0 -0.144908,-0.115347 -0.259676,-0.17331 -0.05796,-0.05796 -0.144328,-0.05796 -0.17273,-0.115347 -0.02898,-0.02956 -0.02898,-0.05796 -0.02898,-0.114187 0,-0.05912 0.02898,-0.144908 0.05796,-0.144908 0.05796,-0.0284 0.08636,0 0.201712,0.05796 0.115926,0.05796 0.230693,0.143749 0.317058,0.201712 0,0 0.0284,0.05796 0.0284,0.02956 0.115927,-0.05912 0.115927,-0.08695 0.115927,-0.260255 -0.115927,-0.143748 0,-0.17215 -0.172731,-0.287497 -0.05796,0 -0.375022,-0.115347 -0.375022,-0.115347 0,-0.05738 0.08637,-0.199973 0.08637,-0.199973 0.02898,-0.02956 0.08637,-0.02956 0.115926,0.02782 0.17273,0.115347 0.288077,0.115347 0.460808,0.172151 0.0284,-0.08579 0.0284,-0.143749 -0.0284,-0.199973 -0.05796,-0.08637 -0.144329,-0.17331 -0.202292,-0.201712 -0.115347,-0.02898 -0.17273,-0.05796 -0.259675,-0.08637 0,-0.08637 -0.0284,-0.17331 -0.05738,-0.288657 0,-0.05738 0.05738,-0.0284 0.115347,-0.0284 0.114767,-0.0284 0.605716,0.143748 0.605716,0.143748 0,-0.115346 -0.02898,-0.201711 -0.08637,-0.260254 -0.05796,-0.05854 -0.115346,-0.117086 -0.259675,-0.175629 -0.201712,-0.05796 -0.374442,-0.02898 -0.51935,-0.117086 -0.115347,-0.116506 -0.144329,-0.145488 -0.168673,-0.262574 0.08173,-0.0284 0.226056,-0.05796 0.313001,-0.05796 0.143749,0 0.230114,-0.0284 0.403424,0.02898 0.05796,0.0284 0.259675,0.20403 0.34662,0.20403 0,0 -0.05796,-0.233012 -0.115926,-0.319377 -0.08637,0 -0.230694,-0.172731 -0.288077,-0.201712 -0.289237,-0.114767 -0.346041,-0.05796 -0.519351,-0.0284 -0.08637,0.0284 -0.164036,0 -0.23649,0 -0.02434,-0.05854 0.04811,-0.144908 0.02376,-0.202872 0,-0.0284 -0.0968,-0.05738 -0.0968,-0.114767 0,0 0.42429,-0.05796 0.5976,-0.0284 0.05796,0.0284 0.230694,0.143749 0.288078,0.143749 0,0 0.05796,-0.201712 -0.0284,-0.374442 -0.144908,-0.0284 -0.288078,0 -0.404004,-0.0284 -0.115347,-0.02956 -0.230114,0 -0.307785,0 -0.07245,0 -0.144908,-0.02956 -0.233012,-0.02956 -0.05495,-0.07605 -0.08548,-0.167025 -0.08752,-0.260835 0,0 0.686284,-0.0284 0.744247,-0.05796 -0.02956,-0.02898 -0.08637,-0.05796 -0.115926,-0.115927 -0.115347,-0.186641 -0.201712,-0.216202 -0.332129,-0.216202 -0.07245,0 -0.267211,0.08463 -0.384296,0.05854 0,-0.234172 0.117085,-0.446897 0.287497,-0.446897 0.313581,0 0.659042,0.154182 0.947119,0.4724 0.722801,0.739031 1.099562,2.160289 1.099562,3.16769 0,0.460808 -0.05796,0.895532 -0.115346,1.247369 0.08694,0.02956 0.144908,0.02956 0.233012,0.02956 0.0881,-0.352416 0.176788,-0.815543 0.176788,-1.246789 z m -6.392184,-4.780806 c 0,0 -0.08637,-0.372124 -0.144329,-0.543695 -0.0284,-0.114767 -0.08637,-0.172151 -0.143748,-0.259675 -0.02898,0.02898 -0.05796,0.08752 -0.05796,0.115926 -0.05796,0.08637 -0.144908,0.143749 -0.08637,0.229534 0.0284,0.114768 0.0284,0.228955 0.115347,0.314741 0.08637,0.08637 0.201132,0.05738 0.31706,0.143169 z m 3.266807,2.812955 c -0.02898,-0.08637 -0.116506,-0.114767 -0.17389,-0.172731 0,0 -0.376761,-0.144328 -0.434724,-0.144328 -0.05796,0.02898 0.144908,0.144328 0.17389,0.202292 0.115926,0.114767 0.406322,0.374442 0.406322,0.374442 z m -2.545745,-1.84323 c 0,-0.08463 -0.02898,-0.141431 -0.05738,-0.225477 -0.02956,-0.14317 -0.08637,-0.228955 -0.115927,-0.314741 0,-0.08521 0,-0.143169 -0.0284,-0.199973 -0.02898,0 -0.05796,0 -0.08637,-0.0284 -0.08637,0 -0.202871,-0.0284 -0.202871,-0.0284 0,0.08579 0.02956,0.228955 0.02956,0.314161 0,0.02898 0.115347,0.286338 0.143749,0.31416 0.02956,0.0568 0.05796,0.08463 0.115926,0.112449 0.08637,-5.8e-4 0.144329,0.05622 0.201712,0.05622 z m 4.798195,4.64749 c 0,-0.02956 -0.08694,-0.08695 -0.116506,-0.08695 0,-0.02956 -0.0284,-0.144908 -0.05796,-0.17331 -0.05796,-0.02956 -0.05796,-0.05796 -0.115926,-0.05796 0,0.0284 0,0.05796 -0.02898,0.115347 0,0.05796 -0.05796,0.08579 -0.02898,0.143749 0.02898,0.05912 0.05796,0.05912 0.115926,0.0881 0.02898,0.0284 0.115926,0.262573 0.144908,0.293294 0.02956,-0.03014 0.02956,-0.20577 0.08752,-0.322276 z m -2.019438,-1.932493 c 0.02898,-0.08752 -0.02956,-0.263733 -0.05912,-0.321696 -0.08694,0 -0.144908,-0.05854 -0.202871,-0.05854 -0.05854,0 -0.08752,-0.145488 -0.173889,-0.116506 0.0284,0.05854 0.08637,0.350098 0.115346,0.40922 0.02898,0.02898 0.144908,0.233592 0.144908,0.434724 0.116506,-0.08637 0.146068,-0.259095 0.175629,-0.347199 z M 41.63744,19.1441 c 0.05796,-0.02724 0,-0.08173 0,-0.109551 -0.0284,0 -0.143749,-0.260254 -0.229534,-0.37792 0,0 -0.02956,0.08695 -0.05912,0.146068 -0.05912,0.148385 -0.0881,0.205189 -0.0881,0.287497 0.0881,0.05449 0.117665,0.02724 0.233012,0.02724 0.0568,-5.8e-4 0.115347,0.02666 0.143749,0.02666 z m -5.09091,-4.782545 c 0,0 -0.348358,-0.202292 -0.406322,-0.289816 -0.08636,0 -0.08636,0 -0.17273,0.08695 -0.05796,0 -0.08637,0.02898 -0.115347,0.08694 0.08637,0.05796 0.115347,0.08637 0.201712,0.144908 0.02898,0.0284 0.05796,0.0284 0.144908,0 h 0.231853 c 0.05796,0 0.115926,0.0284 0.115926,-0.02898 z m -0.693819,-0.52109 c 0.05738,-0.07883 -0.05796,-0.07883 -0.08752,-0.104913 -0.0284,-0.05275 -0.08521,-0.169832 -0.114767,-0.198814 -0.02188,-0.05246 -0.05094,-0.10162 -0.08637,-0.146067 -0.0284,-0.03188 -0.144328,0 -0.201712,0 -0.05796,0 -0.08637,0 -0.144328,0.02898 0.05796,0.05854 0.115926,0.263732 0.144328,0.263732 0.0284,0.05275 0.0284,0.07883 0.08637,0.104914 0.144329,0.0255 0.259096,-5.8e-4 0.404004,0.05217 z m 2.11102,2.172462 c 0.0017,-0.08556 -0.02936,-0.168539 -0.08695,-0.231853 -0.02986,-0.08526 -0.04932,-0.173811 -0.05796,-0.263733 -0.02898,-0.05796 -0.144908,-0.233012 -0.202871,-0.319377 -0.05796,-0.05796 -0.05796,-0.201712 -0.08637,-0.288077 l -0.34662,0.05738 c 0.17273,0.230694 0.317058,0.463127 0.404583,0.696718 0.0284,0.08752 0.289236,0.954075 0.289236,0.954075 0.08695,-0.02898 -0.0284,-0.460228 0,-0.48863 0.02898,-0.05854 0.02898,-0.08695 0.08695,-0.116506 z m -1.127964,-1.016675 c 0,-0.259675 -0.05796,-0.259675 -0.17331,-0.375022 0,0 -0.08637,0.17273 -0.144908,0.259675 0.115926,0.115927 0.144908,0.259675 0.144908,0.259675 0.115926,-0.115926 0.115926,-0.08694 0.17331,-0.144328 z m 4.074814,4.093362 c 0,-0.02724 0,-0.08289 -0.05796,-0.10955 h -0.144329 c -0.05738,-0.02956 -0.08637,-0.02956 -0.115346,0 -0.08695,0.08289 -0.08695,0.218521 -0.144908,0.300249 h 0.34662 c 0.05796,-0.05448 0.115926,-0.08173 0.115926,-0.190699 z m -3.727614,-3.367083 v -0.08752 c 0,0 -0.05796,-0.117666 -0.05796,-0.146068 -0.02898,-0.05854 -0.05796,-0.146067 -0.144328,-0.175049 0,-0.02898 -0.02898,0.116507 -0.05796,0.175049 -0.02956,0.05796 -0.02956,0.0284 -0.08637,0.146068 0.05738,0.08752 0.08637,0.146067 0.144908,0.233591 0,0.02956 0.08637,0.144329 0.08637,0.144329 0,0 0.115347,-0.231853 0.115347,-0.290396 z m -2.339975,-3.081904 c -0.461967,-0.228955 -0.808008,-0.31474 -1.096085,-0.31474 0,-0.0284 -0.05796,-0.05738 0,-0.08579 0.05246,-0.03269 0.101068,-0.07119 0.144908,-0.114767 0.08637,-0.114188 0.143749,-0.228955 0.172731,-0.343142 0.08637,-0.171571 0.17273,-0.114768 0.230113,-0.48921 -0.08579,0 -0.114767,0.05796 -0.201712,0.08695 0.0284,-0.08695 0.05796,-0.174469 0.05796,-0.261414 0.02898,-0.174469 0.08637,-0.290976 0.08637,-0.493267 0.08637,-0.0284 0.230693,-0.114767 0.259675,-0.230694 0,-0.0284 0,-0.114767 0.0284,-0.230114 0,-0.1727305 0.02898,-0.3170595 -0.0284,-0.4329855 0,-0.02898 -0.202292,-0.317059 -0.34604,-0.403424 -0.202292,-0.08637 -0.288657,-0.05854 -0.432406,-0.02898 -0.17273,0 -0.404004,0.17331 -0.404004,0.48979 -0.17273,0 -0.51935,0.02956 -0.721062,0.202871 -0.146118,-0.0704 -0.301758,-0.119029 -0.461967,-0.144329 h -0.259095 c -0.02776,-0.126318 -0.09919,-0.238796 -0.201712,-0.317638 -0.144329,-0.08637 -0.317059,-0.201712 -0.519351,-0.201712 -0.08637,0 -0.17273,-0.02898 -0.259675,0.0284 -0.08636,0.05796 -0.230694,0.115926 -0.259675,0.230694 -0.05796,0.144328 -0.114767,0.259675 -0.114767,0.404003 0,0.1437495 0.08637,0.2590965 0.17331,0.4028455 0.0284,0.05796 0.05738,0.05796 0.114767,0.08637 0.02898,0 0.144328,0.05796 0.17331,0.08637 0.0284,0.02956 -0.02898,0.115926 -0.02898,0.289236 0,0.144908 0,0.144908 0.02898,0.261994 0,0.116506 0.0284,0.232433 0.05796,0.319378 -0.08637,0 -0.144328,-0.08695 -0.202292,-0.0284 0,0.05796 0.05796,0.201132 0.115347,0.315319 0.143749,0.14317 0.288077,0.286339 0.374443,0.45791 0,0.02898 0,0.08579 0.02898,0.08579 -0.201712,0.0284 -0.403424,0.0284 -0.605715,0.08579 -0.187438,0.06414 -0.370422,0.140629 -0.547753,0.228955 0,0.114187 0.02898,0.199393 0.02898,0.199393 0.02898,0 0.288657,-0.142589 0.51935,-0.199393 0.375022,-0.114188 0.576734,-0.08579 0.576734,-0.08579 0.02898,0.05738 0.05796,0.143169 0.02898,0.171571 -0.349518,0.14268 -0.686987,0.313257 -1.00914,0.510077 0.0284,0.0568 0,0.148385 0.05738,0.210406 0.312311,-0.19165 0.640415,-0.356283 0.980737,-0.492108 0.115347,-0.0284 0.115347,0 0.172731,0 0.0284,0.02782 0.08637,0.140271 0.143749,0.140271 0.08637,0 0.17331,-0.08463 0.259675,-0.112448 0.17273,-0.05622 0.317638,-0.113608 0.490369,-0.143169 0.05796,-0.02782 0.05796,-0.08521 0.05796,-0.14259 0.02898,-0.05738 0.02898,-0.05738 0.02898,-0.143169 0,-0.0284 -0.115346,-0.05738 -0.17331,-0.171571 -0.05796,-0.08579 0,-0.171571 -0.0284,-0.171571 -0.08637,0.05738 -0.202291,0.114767 -0.230693,0 -0.02898,-0.08579 -0.02898,-0.199973 0.05796,-0.228955 0.286995,-0.114159 0.606798,-0.114159 0.893793,0 0.05796,0 0.08637,0.05738 0.08637,0.114767 0.0284,0.05738 0,0.114188 -0.05796,0.171571 -0.08636,0.0284 -0.172731,-0.08579 -0.172731,0 0,0.08579 -0.05738,0.199973 -0.201712,0.257357 -0.0284,0.0284 0,0.114187 0.0284,0.199973 0,0.0284 0,0.08579 0.02956,0.08579 0.115347,0.02782 0.288077,0.05738 0.374442,0.114767 0.114767,0.05622 0.317059,0.225477 0.34604,0.197654 0.08637,-0.0568 0.115927,-0.14143 0.172731,-0.197654 0.317638,0.14085 0.577314,0.225477 0.980158,0.48863 0.05796,0 0.05796,-0.122303 0.05796,-0.179107 -0.209359,-0.116567 -0.420764,-0.22942 -0.634117,-0.338505 -0.115927,-0.0284 -0.172731,-0.08579 -0.289237,-0.114187 v -0.228955 c 0.202292,0.05738 0.605716,0.08579 1.009719,0.31474 0.02898,-0.08405 0.08637,-0.14143 0.05796,-0.169832 z m 0.69208,1.460093 c -0.115926,-0.05796 -0.259675,-0.115926 -0.375022,-0.173889 -0.104558,-0.05011 -0.201537,-0.114696 -0.288077,-0.191859 -0.05738,0 -0.08637,0.02608 -0.115347,0.02608 -0.05796,0.02608 -0.08637,0.05217 -0.144328,0.07883 0.08637,0.115926 0.17273,0.202871 0.259675,0.289816 0.0284,0.05854 0.115927,0.05854 0.172731,0.05854 h 0.289236 c 0.08521,-0.02956 0.143169,-0.02956 0.201132,-0.08752 z m 0.48979,0.722222 c 0.05796,0 0.05796,-0.115926 0,-0.115926 -0.201712,-0.05738 -0.374443,-0.114768 -0.48979,-0.288078 -0.02898,0.02898 -0.201712,0.08637 -0.259675,0.144908 0,0 0.05796,0.143749 0.201712,0.288078 0.08637,0.08637 0.259675,0.02898 0.404004,-0.0284 z m 4.133357,4.097999 h -0.172731 c -0.08978,0.0016 -0.169589,0.05757 -0.201712,0.141431 -0.02158,0.07232 -0.06152,0.137819 -0.115926,0.190119 0.02956,0.02724 0.08637,0.02724 0.115926,0.02724 h 0.288077 c 0.0284,-0.02724 0.0284,-0.108971 0.05796,-0.162877 0,-0.05448 0.0284,-0.10955 0.0284,-0.195916 z m -2.658194,-2.418225 c -0.0284,-0.05796 -0.05738,-0.143749 -0.08637,-0.201712 0,-0.0284 0,-0.08637 -0.02898,-0.172151 0,0 -0.202292,0.143749 -0.231274,0.172151 0.115927,0.143749 0.05796,0.230114 0.08695,0.344881 0,0.05796 0.115347,0.08695 0.144329,0.172731 0,0.02898 -0.05796,0.288656 -0.05796,0.288656 0.17331,-0.230693 0.17331,-0.51877 0.17331,-0.604556 z m 2.139423,1.946405 c -0.172731,-0.325174 -0.476458,-0.414437 -0.627162,-0.414437 -0.145488,0 -0.321116,0.177947 -0.438782,0.739031 -0.02898,0.205769 -0.05854,0.370385 -0.02898,0.478776 l 0.263153,0.02724 c 0.05912,-0.08173 0.05912,-0.217362 0.117665,-0.329231 0,-0.05912 0.05796,-0.05912 0.116506,-0.05912 0.04811,0.02956 0.144908,0.170992 0.193597,0.225477 0.02898,-0.05448 0.08637,-0.166354 0.08637,-0.254458 0,-0.02956 -0.08637,-0.0881 -0.110709,-0.0881 -0.07245,-0.06028 -0.121144,-0.117666 -0.228376,-0.117666 -0.02898,-0.118824 0.131577,-0.266051 0.131577,-0.266051 0.178527,0 0.380239,0.235331 0.380239,0.235331 0.05796,-0.02956 0.08695,-0.118245 0.144908,-0.176788 z m -2.716736,-1.803236 c -0.02956,-0.0284 -0.05796,-0.257936 -0.08637,-0.431246 0,-0.05738 -0.08695,-0.143749 -0.144908,-0.201712 -0.0284,0.08637 -0.115347,0.144328 -0.115347,0.259675 0,0 0.144328,0.143749 0.17273,0.230114 0.02956,0.05796 0,0.3159 0.02956,0.373863 0.08637,-0.08579 0.144329,-0.115347 0.144329,-0.230694 z m -2.368377,-2.255349 v -0.05854 c -0.08579,-0.08637 -0.201712,-0.289237 -0.201712,-0.3472 -0.05796,-0.02898 -0.05796,-0.02898 -0.143749,-0.02898 -0.02898,-0.02898 -0.08695,-0.02898 -0.115927,-0.02898 0,0 0.0284,0.144908 0.08637,0.289816 0.02898,0.05796 0.08637,0.115347 0.114767,0.115347 0.05854,0.02956 0.173889,0.05854 0.260255,0.05854 z m 0.922774,0.83583 c -0.05796,-0.05738 -0.115347,-0.115347 -0.201712,-0.17273 -0.115926,-0.02898 -0.17331,-0.08637 -0.230693,-0.202292 -0.02788,-0.06384 -0.06672,-0.122297 -0.114768,-0.17273 -0.05796,0 -0.08637,0.0284 -0.144908,0.05796 -0.05738,0.05738 -0.17273,0.05738 -0.230693,0.143749 0.02898,0.05796 0.05796,0.115926 0.115926,0.17331 0.0284,0.02898 0.05796,0.08637 0.172731,0.144328 0.201712,0.115347 0.259095,0.144328 0.259095,0.144328 0.17331,0.02956 0.375022,-0.115926 0.375022,-0.115926 z m -5.162204,-4.745449 c 0,-0.05738 -0.0284,-0.115346 -0.05738,-0.17273 -0.02898,-0.05738 -0.08637,-0.201712 -0.08637,-0.230114 0,-0.2306945 0.0284,-0.2892365 0.05738,-0.4903695 -0.115347,-0.0284 -0.259675,-0.0284 -0.317059,0.08637 -0.05796,0.08637 -0.05796,0.17331 -0.05796,0.259676 0,0.1443285 0.0284,0.2596755 0.05796,0.4324055 -0.115926,0.08637 -0.17273,0.144908 -0.288657,0.201712 0.02898,0.172731 0.05796,0.492688 0.05796,0.492688 0.05796,-0.08695 0.05796,-0.08695 0.114768,-0.144908 0.115926,-0.08752 0.17273,-0.144908 0.317638,-0.260835 0.0284,-0.05738 0.05796,-0.02898 0.144328,-0.08637 0.0284,-0.02956 0.05738,-0.05796 0.05738,-0.08752 z m 3.778042,4.342025 C 34.016327,14.71086 33.96691,14.58245 33.948619,14.44792 c -0.05738,-0.05738 0.05796,-0.259675 -0.08637,-0.259675 -0.07541,-0.03229 -0.152191,-0.0613 -0.230114,-0.08695 -0.0284,0.08695 -0.0284,0.260255 0,0.3472 0,0.08637 0.143749,0.34604 0.201712,0.375022 0.02898,0.0284 0.17331,0.0284 0.202292,0.0284 0.0284,-0.02898 0.0568,-0.02898 0.0568,-0.02898 z m -0.720482,-1.643257 c -0.230694,-0.140851 -0.519351,-0.169253 -0.808587,-0.169253 -0.259096,0 -0.547173,0.02782 -0.83525,0.225477 0.0284,0.122303 0.05738,0.212725 0.114767,0.329231 0.02898,0 0.05796,0.05912 0.08637,0.05912 0.05796,-0.05912 0.114767,-0.146647 0.201712,-0.175629 v 0.117086 c 0,0.0881 0,0.143169 0.02956,0.221999 0,0.08115 0.08637,0.08115 0.201712,0.08115 0.115347,0 0.144329,-0.18606 0.144329,-0.215622 0,0 0.02898,0.107812 0.201712,0.186642 0,0 0.201712,0 0.201712,-0.02666 0.02898,-0.130997 0.05796,-0.15998 0.02898,-0.277644 0,0 0.172731,0.117086 0.259676,0.224897 0.05738,-0.05275 0.115346,-0.166354 0.115346,-0.195915 0.05796,-0.115927 0.05796,-0.267211 0.05796,-0.384876 z m 1.498928,2.484303 c -0.115346,-0.08752 -0.143748,-0.146647 -0.201712,-0.20461 -0.08637,-0.05854 -0.144908,-0.08752 -0.259675,-0.20403 h -0.375022 c 0.05796,0.144908 0.08637,0.233012 0.288657,0.379079 0.115347,0.0881 0.34604,0.05854 0.547752,0.02956 z m 1.35634,2.049 c 0,0 -0.05796,-0.347779 -0.05796,-0.779026 0,-0.0284 -0.08695,-0.201712 -0.144908,-0.230114 -0.0284,-0.02898 -0.08579,-0.05796 -0.143749,-0.08637 v 0.115347 c 0,0.114767 0.0284,0.143749 0.0284,0.201712 0,0.05796 0.08637,0.460808 0.08637,0.576154 0.144908,0.02898 0.144908,0.144908 0.231853,0.202292 z m -5.854865,-6.739963 c -0.0284,-0.05796 -0.259675,0 -0.317638,0 -0.143749,0.02898 -0.403424,0.116506 -0.403424,0.174469 -0.02898,0.08752 -0.02898,0.290976 -0.02898,0.319957 0.02898,0.08579 0.02898,0.171572 0.05796,0.257357 0.08637,-0.08579 0.114768,-0.114187 0.172731,-0.143169 0.0284,-0.0284 0.34604,-0.259675 0.374442,-0.289237 0.05796,-0.05796 0.08637,-0.02898 0.115927,-0.08694 5.79e-4,-0.17389 0.05738,-0.17389 0.02898,-0.232433 z m 3.085962,4.080611 c 0,0 -0.05796,-0.259676 -0.08637,-0.375022 v -0.461388 c -0.115927,0.02898 -0.144329,0.05796 -0.17331,0.05796 -0.08637,0.05796 -0.144329,0.08637 -0.144329,0.144328 0,0.115347 0.0284,0.230694 0.0284,0.288077 0,0.08637 0,0.144329 0.02898,0.17331 0.08637,0.02956 0.115347,0.02956 0.230693,0.08637 5.8e-4,0.02898 0.115927,0.08637 0.115927,0.08637 z m -0.605716,-0.34662 c 0.02898,-0.08637 0,-0.230114 -0.02898,-0.374443 -0.115347,0.02898 -0.346041,0.05854 -0.346041,0.144908 -0.0284,0.08637 0,0.172731 0,0.230114 0.02898,0.05796 0.02898,0.115927 0.02898,0.202871 0,0.05738 -0.02898,0.114768 0,0.201712 0.02898,-0.05796 0.17331,-0.115346 0.201712,-0.17331 0.05796,-0.08752 0.114767,-0.144908 0.144329,-0.231852 z m 1.095505,1.220125 c -0.08637,-0.05854 -0.230114,-0.234171 -0.317059,-0.321696 -0.05796,-0.05912 -0.0284,-0.146067 -0.08637,-0.205189 -0.05796,0 -0.115926,0 -0.17273,0.02898 -0.08637,0 -0.144329,0 -0.230694,0.02956 0.0284,0.05796 0.0284,0.116506 0.08637,0.146067 0.115347,0.116506 0.115347,0.145488 0.230694,0.321696 0.0284,0.05738 0.17273,0.08579 0.288077,0.08579 0.05796,5.8e-4 0.17273,-0.05622 0.201712,-0.08521 z m -3.633714,-4.288119 c -0.288077,0.08579 -0.489789,0.143169 -0.547752,0.200552 -0.144329,0.08521 -0.201712,0.143169 -0.346041,0.228955 0,0.171571 0,0.171571 0.0284,0.257357 l 0.02956,0.343142 c 0.05738,-0.08579 0.230114,-0.257357 0.31648,-0.372124 0.05796,-0.05738 0.17273,-0.200553 0.461966,-0.343142 0.0284,-0.114188 0.05738,-0.199973 0.05738,-0.31474 z m 1.932494,3.472577 c 0.08637,-0.08637 0,-0.230694 0,-0.317639 -0.02956,-0.08637 0,-0.172731 -0.02956,-0.259676 -0.02747,-0.0539 -0.08326,-0.08742 -0.143748,-0.08637 -0.05796,0 -0.202292,-0.08637 -0.202292,-0.02898 -0.143749,0 -0.02898,0.144908 -0.02898,0.230694 0,0.115347 0.288078,0.403424 0.288078,0.403424 0.05854,0.02956 0.05854,5.8e-4 0.116506,0.05854 z m -0.663679,-0.83699 c 0,0 -0.0284,-0.144908 -0.05796,-0.202871 -0.02935,-0.0711 -0.07944,-0.131694 -0.143749,-0.17389 -0.02898,0 -0.08637,-0.05796 -0.115927,-0.02898 0,0 -0.02898,0.231853 -0.05738,0.260835 0.05738,0.08695 0.114767,0.144908 0.143749,0.231273 0.02898,0.08637 0.05796,0.202292 0.115926,0.288657 0.02898,-0.115347 0.115347,-0.17273 0.115347,-0.375022 z m -0.576734,0.17331 c 0,0 -0.08636,-0.259675 -0.115347,-0.404583 -0.0284,-0.08695 0.0284,-0.202872 -0.0284,-0.281701 -0.02898,-0.05275 -0.115926,-0.07883 -0.17273,-0.107811 -0.05854,0 -0.115927,0.107811 -0.115927,0.215622 0,0.05854 0.02956,0.260835 0.05796,0.348359 0,0.02898 0.05854,0.05796 0.115347,0.08695 0.08637,0.0568 0.172731,0.08579 0.259096,0.143169 z m 2.480246,2.370696 c -0.0284,-0.114768 -0.05796,-0.257937 -0.08637,-0.373863 0,0 -0.08637,-0.05738 -0.172731,-0.05738 -0.05854,0 -0.115347,-0.0284 -0.17331,0 0.0284,0.08637 0.0284,0.143749 0.05796,0.229535 0.08637,0.115346 0.201712,0.17273 0.317059,0.259095 0.02898,5.8e-4 0.05738,-0.05738 0.05738,-0.05738 z m -3.575751,-3.369981 c -0.02898,-0.212726 -0.08637,-0.381399 -0.08637,-0.438203 0,-0.227795 0.02898,-0.28402 0.05738,-0.427189 -0.115346,0.05738 -0.259675,0.143169 -0.374442,0.199394 v 0.143169 c 0,0.0568 0.0284,0.371544 0.0284,0.464285 0.02956,0.08752 0.02956,0.17563 0.05796,0.263734 0.0284,0.05506 0.05796,0.107811 0.05796,0.159977 0,0 0.05738,-0.02608 0.08637,-0.07825 0.08637,-0.08231 0.114767,-0.169832 0.17273,-0.286918 z m 2.768323,2.039726 c 0,0 -0.17331,0.0284 -0.202291,0.05796 -0.0284,0 -0.143749,0 -0.201712,0.05912 0,0.08752 0,0.175049 -0.0284,0.292135 -0.05796,0.08637 -0.202872,0.144328 -0.202872,0.288077 0,0 0.115927,0.0284 0.144908,0.0284 0.05796,-0.0284 0.115347,-0.08579 0.144329,-0.115347 0.08637,-0.0284 0.143749,-0.08637 0.230114,-0.115346 0.05854,-0.02724 0.115926,-0.495006 0.115926,-0.495006 z m 3.027999,3.403599 c -0.08637,0.02956 -0.259096,-0.05912 -0.259096,0.115347 -0.05796,0.10955 -0.115347,0.218521 -0.115347,0.273006 h 0.316479 c 0.08695,-0.10897 0.115347,-0.217941 0.05796,-0.388353 z m 0.317059,-0.768012 c -0.05738,-0.264893 -0.201712,-0.381399 -0.345461,-0.468923 -0.05796,-0.02956 -0.605716,-0.289816 -0.692081,-0.289816 -0.17273,0.02956 -0.461967,0.02956 -0.634697,0.116506 -0.0284,-0.08695 -0.05796,-0.230694 0,-0.318218 0.0284,-0.0568 0.317638,-0.0568 0.404003,-0.0568 0.317639,0.0284 0.48979,0.08579 0.577314,0.08579 0.08579,0.08695 0.172151,0.08695 0.201712,0.08695 0,0 -0.02898,-0.17331 -0.05796,-0.230694 -0.115347,-0.05796 -0.231273,-0.08695 -0.317639,-0.115347 -0.143748,-0.05796 -0.201712,-0.08637 -0.431826,-0.115347 -0.08694,0 -0.08694,0.02898 -0.259675,0.02898 0,-0.02898 0.0284,-0.05738 0.05738,-0.08637 0.05796,-0.08579 0.115347,-0.143749 0.17331,-0.199973 h 0.460807 c 0.115927,0.02782 0.17389,0.0568 0.317639,0.114188 0.08637,0 0,-0.143749 0,-0.230115 -0.03289,-0.03539 -0.07198,-0.06447 -0.115347,-0.08579 -0.115926,-0.02898 -0.202292,-0.05796 -0.317638,-0.115926 -0.08637,-0.0284 -0.259676,-0.08579 -0.404004,-0.05738 -0.143749,0.05738 -0.143749,0.0284 -0.259675,0.08637 -0.143749,0.201712 -0.230114,0.431247 -0.316479,0.661361 0,0.05796 -0.144909,0.402844 -0.144909,0.460807 0,0.02956 -0.0284,0.08695 -0.0284,0.08695 -0.115926,-0.02956 -0.635276,-0.116506 -0.779025,0.0284 -0.05796,0.05796 -0.115927,0.115347 -0.202292,0.289816 -0.115347,-0.08695 -0.201712,-0.116506 -0.317059,-0.116506 -0.164938,0.006 -0.316215,0.09325 -0.404003,0.233012 0,0.02956 -0.230694,0.47298 -0.201712,0.885099 0.02898,0.231853 0.115347,0.31474 0.230114,0.477617 h 0.317638 c -0.02898,-0.108971 -0.08637,-0.245764 -0.144908,-0.417915 -0.0284,-0.148386 0.02956,-0.413278 0.05796,-0.649768 0,0 0.08637,-0.05912 0.17331,-0.0881 0.05796,-0.05912 0.08637,-0.02956 0.172731,-0.02956 0.0284,0 0.0284,0.02956 0.0284,0.02956 -0.115347,0.117665 -0.115347,0.235331 -0.143749,0.413278 0,0.0881 0.115347,0.525146 0.230114,0.742509 h 0.230694 c 0,0 -0.05796,-0.566301 -0.02898,-0.623685 0,-0.118824 0.02898,-0.206928 0.05738,-0.296771 0.05854,0.03072 0.115926,0.03072 0.173889,0.06028 0.08579,0.05912 0.08579,0.117666 0.08579,0.20577 0,0.148386 0,0.176788 -0.02898,0.266051 v 0.14259 c 0,0.136793 0.02898,0.245764 0.02898,0.245764 h 0.230693 c 0,-0.245764 0.02898,-0.217363 0.05796,-0.358793 0.0284,-0.118824 0,-0.177947 0.0284,-0.264892 0,-0.06028 0.0284,-0.118824 0.05796,-0.148386 0.08637,-0.05912 0.143749,-0.05912 0.259675,-0.02956 0,0.0881 0,0.177947 -0.02898,0.264892 -0.02898,0.148386 -0.05738,0.290976 -0.115346,0.427769 0,0.02724 -0.0284,0.08173 -0.05796,0.108971 h 0.34662 c 0,0 0.05738,-0.108971 0.08579,-0.245764 0.08637,0.08289 0.202292,0.0284 0.259675,0.0284 0.08637,-0.0284 0.144329,-0.111869 0.202292,-0.170991 -0.115927,-0.08926 -0.375022,-0.05912 -0.375022,-0.177947 -0.05738,-0.20577 0,-0.235331 0,-0.354155 0,-0.176788 -0.172151,-0.235331 -0.346041,-0.264892 -0.05738,-0.02956 -0.17331,-0.02956 -0.230114,-0.02956 -0.05796,0.02956 -0.115926,0.117665 -0.17331,0.117665 0,0 -0.115926,-0.0881 -0.202291,-0.117665 -0.05738,0 -0.230114,-0.06028 -0.230114,-0.06028 0.02898,-0.05912 0.05738,-0.117666 0.08636,-0.146068 0.0284,-0.02956 0.114767,-0.116506 0.143749,-0.116506 0.05796,-0.02956 0.144328,0 0.202291,0.02956 0.143749,0.0284 0.259676,0.05796 0.288078,0.05796 0.02898,0 0.115346,0.05796 0.115346,0.05796 0.08637,-0.05796 0.08637,-0.115347 0.144329,-0.115347 0.17273,-0.05912 0.230693,-0.0881 0.404003,-0.0881 0.144329,0 0.259676,0.262574 0.346041,0.350678 0.0284,0.06028 0.230114,0.325174 0.34604,0.561663 0.05796,-0.02956 0.08637,-0.0881 0.143749,-0.0881 0,-0.05912 -0.0284,-0.295612 -0.05738,-0.325174 -0.08637,-0.266051 -0.259675,-0.324014 -0.259675,-0.382557 0.05738,0 0.17331,0.05912 0.231273,0.05912 0.05738,0.0284 0.143749,0.05796 0.230114,0.117665 0.02956,0.0284 0.08637,0.05796 0.115927,0.0881 0.0284,0.117665 0.0284,0.20577 0.08521,0.325174 0,0.02956 0,0.05912 0.02956,0.0881 0.08868,-0.176788 0.175049,-0.206349 0.232433,-0.353576 z m -4.008157,-2.752093 c 0,-0.02956 -0.08637,-0.02956 -0.144328,-0.02956 -0.05738,0 -0.115347,0.02956 -0.17331,0.02956 -0.0555,0.08975 -0.09456,0.188676 -0.115347,0.292134 -0.0284,0.08752 -0.08637,0.146068 -0.114767,0.20519 0,0 0.259675,-0.05854 0.316479,-0.05854 0.08637,-0.05854 0.144328,-0.08752 0.202291,-0.20461 0.02898,-0.08868 0.05738,-0.117665 0.02898,-0.234171 z m -1.817147,-1.474006 c -0.05796,-0.136793 -0.08637,-0.162876 -0.17273,-0.244605 -0.02898,0.02898 -0.17331,0.107812 -0.202292,0.159979 -0.05221,0.02055 -0.1009,0.0491 -0.144328,0.08463 0,0.05796 0.0284,0.08695 0.05796,0.144909 0,0.05796 0.0284,0.202871 0.0284,0.318218 0,0 0.08637,-0.05738 0.08637,-0.115347 0.144908,-0.17389 0.318218,-0.318218 0.34662,-0.34778 z m 2.567191,3.209423 c -0.02956,-0.0284 -0.02956,-0.08694 -0.05796,-0.144908 -0.05796,-0.17215 -0.0284,-0.258516 -0.05796,-0.431246 h -0.230114 c -0.05796,0.02956 -0.08637,0 -0.144329,0.02956 0,0.114188 0.0284,0.199973 0.114767,0.344881 0.08637,0.17389 0.375602,0.201712 0.375602,0.201712 z m -1.442125,-1.647893 v -0.204031 c -0.0284,-0.05796 0,-0.17273 0,-0.259675 -0.0284,-0.05796 -0.08637,-0.02898 -0.114767,0 h -0.17331 c 0,0 -0.05796,0.230114 -0.05796,0.404584 -0.02898,0.08752 -0.05796,0.145487 -0.05796,0.175049 -0.05738,0.117085 -0.08637,0.146067 -0.143749,0.292714 0.08636,0.02956 0.17273,-0.02898 0.230114,-0.02898 0.05796,-0.02956 0.144328,-0.05854 0.17273,-0.0881 0.02956,-0.0284 0.116506,-0.233592 0.144908,-0.291555 z M 30.40127,14.534284 c -0.05738,-0.05738 -0.08637,-0.143749 -0.115347,-0.201712 -0.114767,0 -0.547752,0.17331 -0.547752,0.17331 0.08637,0.144329 0.143749,0.288078 0.201712,0.461388 0.05796,-0.02898 0.114767,-0.05738 0.17273,-0.115347 0.05854,-0.08695 0.231853,-0.259676 0.288657,-0.317639 z m 0.115927,0.461968 c -0.05796,-0.02898 -0.172731,0.0284 -0.259676,0.0284 -0.08637,0 -0.289236,0 -0.289236,0.02898 0.02956,0.05796 0.02956,0.115346 0.05854,0.17273 0.0284,0.05796 0.05796,0.115926 0.05796,0.261994 0,0.08752 0.0284,0.175049 0,0.292134 0,0 0.374442,-0.205189 0.374442,-0.263732 0.02898,-0.08695 0,-0.145488 0.02898,-0.233012 0,-0.05738 0,-0.201133 0.02898,-0.287498 z m 1.009139,1.62123 c -0.316479,-0.114767 -0.288657,-0.229534 -0.403424,-0.287497 -0.144328,-0.115347 -0.375022,-0.230114 -0.721642,-0.345461 -0.08637,-0.0284 -0.288077,0 -0.374442,0 -0.231273,0.403424 -0.317639,0.776707 -0.490949,1.209113 l -0.08637,0.259095 c -0.143749,-0.08695 -0.288077,-0.143749 -0.432405,-0.143749 -0.230114,0 -0.402845,0.08579 -0.48979,0.317059 -0.08637,-0.0284 -0.202291,-0.08579 -0.34604,-0.05796 -0.202292,0.02956 -0.375022,0.144908 -0.461967,0.319377 -0.08637,0.117666 -0.115347,0.23649 -0.08637,0.354156 -0.143749,0.05912 -0.230114,0.206928 -0.288657,0.325173 -0.05796,0.235331 0.144908,0.631799 0.230694,0.712948 h 0.288077 c -0.05796,-0.245764 -0.172731,-0.358793 -0.08637,-0.623684 0.05796,-0.148386 0.259095,-0.206929 0.317638,-0.23649 0,-0.118825 -0.144908,-0.206929 -0.115926,-0.325174 0.05796,-0.148386 0.230693,-0.148386 0.404003,-0.117665 -0.0284,0.176788 -0.05796,0.413276 -0.08636,0.648608 -0.0284,0.266051 0.114767,0.654404 0.114767,0.654404 h 0.317639 c -0.02898,-0.08173 -0.05796,-0.162876 -0.05796,-0.245763 -0.02898,-0.08405 -0.02898,-0.14259 -0.02898,-0.231853 0.02898,-0.117666 0.02898,-0.235332 0.02898,-0.324015 0.288657,-0.148386 0.202292,0.05912 0.259096,0.117665 0,0 0.115927,-0.266051 -0.0284,-0.383717 -0.02898,-0.02956 -0.202292,0 -0.202292,-0.02956 0,-0.02956 0.02898,-0.117665 0.05738,-0.205769 0.05796,-0.117666 0.08637,-0.147227 0.144908,-0.234172 0.0284,-0.02956 0.114767,-0.02956 0.230694,0 0.0284,0 0.17273,0.02956 0.259675,0.05796 -0.02956,0.08694 -0.144328,0.264891 -0.17273,0.352996 -0.115927,0.354155 -0.115927,0.767432 -0.08637,1.126225 h 0.31648 c 0,-0.19012 -0.0284,-0.417915 0,-0.623684 0.05796,-0.266052 0.144908,-0.296772 0.17331,-0.296772 0.05796,0 0.115926,0.06028 0.144328,0.118825 0.05796,0.295612 -0.115347,0.555867 -0.115347,0.801631 h 0.230114 c 0,0 0.08637,-0.02724 0.115927,-0.108971 0.05738,-0.164036 0.17331,-0.338505 0.201712,-0.515293 0.02898,-0.148386 -0.0284,-0.266051 -0.114768,-0.443997 -0.08637,-0.117666 -0.17331,-0.20693 -0.375022,-0.352997 -0.05738,-0.116506 0,-0.261414 0,-0.261414 0,0.0284 0.115347,-0.02956 0.172731,-0.02956 0.230693,0.05796 0.289236,0.05796 0.404003,0.115347 0.08637,0.02956 0.201712,0.0881 0.288078,0.146067 0.08637,0.05796 0.17331,0.235331 0.259675,0.44168 0,0 0.05796,-0.383716 0.05796,-0.499063 -0.115347,-0.116506 -0.230694,-0.231853 -0.404004,-0.319377 -0.143748,-0.115347 -0.460807,-0.201712 -0.605715,-0.259096 0,0 0.05796,-0.08579 0.05796,-0.143749 0.17273,-0.02956 0.374442,-0.02956 0.460808,0 0.289236,0.08579 0.634697,0.259096 0.778446,0.374443 0,0 0.05796,-0.115347 0.05796,-0.17331 0,0 -0.403424,-0.259096 -0.374443,-0.345461 -0.115926,-0.08695 -0.202291,-0.17331 -0.317638,-0.202292 -0.17273,-0.02898 -0.518771,-0.05796 -0.518771,-0.05796 0,0 0.08637,-0.114188 0.172731,-0.201132 h 0.230693 c 0.115347,0 0.403424,0.08637 0.576734,0.17273 0.259675,0.115347 0.404004,0.201132 0.432406,0.259096 0.03014,-0.08463 0.05854,-0.200553 0.08752,-0.257937 z m -0.692081,2.362581 c -0.02898,-0.05912 -0.115346,-0.205769 -0.230114,-0.266051 -0.202291,0 -0.144908,0.320536 -0.202291,0.45733 -0.0284,0.02724 -0.05738,0.08173 -0.0284,0.10897 h 0.432405 c -5.79e-4,-5.79e-4 0.0284,-0.245764 0.0284,-0.300249 z m 10.426424,-8.209909 -0.350098,-0.259675 -0.116506,-0.144908 0.318798,-0.08637 z M 40.01389,10.250802 h -0.143749 l -0.17273,0.115347 -0.230694,-0.17273 0.259096,-0.144329 z m -5.748212,-0.08637 c -0.03041,0.0855 -0.11097,0.142913 -0.201712,0.143749 -0.144908,-0.17273 -0.289237,-0.288077 -0.490369,-0.3460395 -0.0284,-0.114768 0.05796,-0.230114 0.115347,-0.31648 0.08637,-0.08637 0.202291,-0.115926 0.317059,-0.08637 0.144328,0.0284 0.17331,0.05738 0.230693,0.115347 0.08695,0.114188 0.05796,0.3454605 0.02898,0.4897885 z m -0.893213,0.316479 c -0.05796,0.05796 -0.202872,0.02956 -0.34662,0.02956 0,-0.05796 0,-0.17331 -0.05796,-0.17331 -0.05796,-0.05796 -0.144328,-0.05796 -0.144328,-0.115927 -0.115347,-0.115347 0.17273,-0.0284 0.317638,0 0.05796,5.8e-4 0.547753,0.115927 0.231274,0.259675 z m 0.547172,0.317639 c 0,0 -0.0284,0.05854 -0.05796,0.05854 -0.02898,0.05854 -0.08637,0.08752 -0.143749,0.115926 -0.02898,0 -0.05796,0.05854 -0.05796,0.08695 -0.05738,0.08695 -0.144328,0.116506 -0.259675,0.116506 -0.05738,0 -0.17273,0 -0.230694,-0.116506 0,0 0.02956,0.349518 0.02956,0.435883 0,0.0284 0.02898,0.0284 0.02898,0.0284 0.115347,0.02898 0.144329,0.143169 0.201712,0.200553 0,0 0.02898,0.0284 0.05796,0.0284 0.115927,0.08579 0.374443,0.200553 0.259676,0.200553 0,0.05738 -0.08637,0.199973 -0.115347,0.199973 -0.08637,-0.08579 -0.230694,-0.14317 -0.346041,-0.199973 -0.02956,-0.05738 -0.05796,-0.114188 -0.08637,-0.171571 -0.05796,-0.05738 -0.08637,-0.05738 -0.17331,-0.114768 0,-0.200552 -0.02898,-0.200552 -0.02898,-0.404004 0,-0.02898 -0.05738,-0.348939 -0.05738,-0.348939 0,-0.02956 0.08637,-0.116506 0.17273,-0.144908 -5.79e-4,5.8e-4 0.547173,5.8e-4 0.806848,0.02898 z m -1.556892,-0.576734 c 0,0.115926 -0.08637,0.17273 -0.17273,0.289236 -0.05796,0.08637 -0.08637,0.0284 -0.230694,0.0284 h -0.143748 c 0,-0.08637 0.05738,-0.114767 0.143748,-0.201712 0.08637,-0.05796 0.172731,-0.115926 0.230694,-0.115926 0.05738,-0.02898 0.17273,-0.05738 0.17273,0 z M 31.612701,9.9047625 c 0,0.0284 0,0.05738 -0.0284,0.05738 0,0 -0.17273,0.1159255 -0.230693,0.1733095 -0.143749,0.08637 -0.17331,0.230693 -0.259675,0.230693 -0.05738,-0.05796 -0.172731,-0.144328 -0.230114,-0.259675 -0.08637,-0.1147665 -0.05796,-0.2306935 -0.05796,-0.2590955 0.05796,-0.17331 0.259676,-0.231273 0.374443,-0.259675 0.05796,0 0.115926,0 0.202291,0.05796 0.114768,0.0568 0.172731,0.0568 0.230114,0.259096 z m 1.960896,2.5642925 c 0,0.0284 -0.0284,0.171571 -0.0284,0.171571 -0.115926,-0.02898 -0.201712,-0.114188 -0.34604,-0.114188 0,-0.08579 0,-0.08579 0.02898,-0.114767 0.172731,-0.0284 0.259096,0.0284 0.345461,0.05738 z m -1.384162,-1.553994 c 0,0.02898 -0.0284,0.203451 -0.0284,0.231853 -0.02956,0.175049 -0.02956,0.233012 -0.05796,0.492108 v 0.08579 c -0.02898,0.05738 -0.144908,0.08579 -0.202291,0.143169 -0.02898,0.08579 -0.02898,0.143169 -0.115347,0.171571 -0.08637,0.0284 -0.143749,0.114188 -0.201712,0.08579 -0.08637,-0.05738 -0.05796,-0.200553 0,-0.285759 0.05796,-0.08579 0.17273,-0.143169 0.259675,-0.171571 0.115347,-0.0284 0.08637,-0.257936 0.08637,-0.287497 0.0284,-0.05796 0,-0.144908 0,-0.203451 -0.05796,0.02898 -0.05796,0 -0.17331,0.02898 -0.114767,0 -0.17273,-0.05854 -0.230693,-0.116506 -0.05738,-0.05796 -0.201712,-0.174469 -0.259676,-0.290975 0.144329,-0.0284 0.259676,-0.0284 0.404004,-0.0284 h 0.374442 c 0.08695,0.0284 0.144908,0.08695 0.144908,0.144908 z m -0.230693,1.553994 c -0.0452,0.03275 -0.09332,0.06128 -0.143749,0.08521 -0.05796,0.02898 -0.08637,0.05738 -0.17273,0.08579 -0.02956,-0.05738 -0.05796,-0.171571 -0.05796,-0.171571 0,0 0.115347,-0.02898 0.201712,-0.02898 0.05738,5.8e-4 0.115347,5.8e-4 0.172731,0.02956 z"
       fill="#ffffff"
       id="path1335"
       sodipodi:nodetypes="scsssscccccsscsccccsscccssccccssccccssccccsssccccssccccsccccccccccccccccsccccccccccccccccccccccscccccccccsccccccccccccccccccscccccccccccccccccccccccccccccccccccscccccccccccccccccscccccsccccsccccccccccccccccccccscscccsccccccccsccccccccccccccccscsscccsccsccccccccsccsccssccccccccsccccccccccccccccccccsccccccccccccsccccscscsccscccccccccccccccccccsccccccccccccccscccccccccccccccccscccccscccccccccccccccccccscccccsscccccccscccccccccccccccccccsccscccsccccccccccccccccscccscccccccscccccccccccccccccccscccccccccccccsccccccccccccsccccccsccccccccccccccccccccccccccccccsssccsccccccscccccccccsccccscsccccccccccccccsccsscccccccccccccccsscccccccscccccccccccccccccccccccccscccccccsccccccscccccscccccsccscccccccccccccccccccccccccccccccccccccccccscccccccccccscccccccscsccccccccccccccsccccccccsccsccccccccccccscccccccccccccccccccccccccccccccccccccccsccsccccccccccscccccccccccccccccccsccccccccsccccccccccsccccccccccccscccccccccccccccccccccccccccccccccccccscsccccccccscccscscccsccccccccccccccsccccsccccccccscscccccc"
       style="stroke-width:0.579632" />
  </g>
</svg>
