<?xml version="1.0" encoding="UTF-8" standalone="no"?>
<svg
   height="360"
   viewBox="35.433 35.357 272.12595 128.50621"
   width="640"
   version="1.1"
   id="svg1258"
   sodipodi:docname="provider-ing-640x360.svg"
   inkscape:version="1.3.2 (091e20e, 2023-11-25)"
   xmlns:inkscape="http://www.inkscape.org/namespaces/inkscape"
   xmlns:sodipodi="http://sodipodi.sourceforge.net/DTD/sodipodi-0.dtd"
   xmlns="http://www.w3.org/2000/svg"
   xmlns:svg="http://www.w3.org/2000/svg">
  <defs
     id="defs1262">
    <clipPath
       clipPathUnits="userSpaceOnUse"
       id="clipPath26">
      <path
         d="M 0,0 H 1919.06 V 1080 H 0 Z"
         id="path26" />
    </clipPath>
    <clipPath
       clipPathUnits="userSpaceOnUse"
       id="clipPath28">
      <path
         d="m 709.016,667.661 h 561.948 V 807.307 H 709.016 Z"
         id="path28" />
    </clipPath>
    <clipPath
       clipPathUnits="userSpaceOnUse"
       id="clipPath30">
      <path
         d="m 709.016,667.661 h 561.948 V 807.307 H 709.016 Z"
         id="path30" />
    </clipPath>
    <clipPath
       clipPathUnits="userSpaceOnUse"
       id="clipPath32">
      <path
         d="m 709.016,667.661 h 561.948 V 807.307 H 709.016 Z"
         id="path32" />
    </clipPath>
  </defs>
  <sodipodi:namedview
     id="namedview1260"
     pagecolor="#ffffff"
     bordercolor="#666666"
     borderopacity="1.0"
     inkscape:pageshadow="2"
     inkscape:pageopacity="0.0"
     inkscape:pagecheckerboard="true"
     showgrid="false"
     inkscape:zoom="0.4916"
     inkscape:cx="253.25468"
     inkscape:cy="369.2026"
     inkscape:window-width="1792"
     inkscape:window-height="1006"
     inkscape:window-x="0"
     inkscape:window-y="25"
     inkscape:window-maximized="0"
     inkscape:current-layer="g1"
     inkscape:showpageshadow="2"
     inkscape:deskcolor="#d1d1d1" />
  <g
     id="g1"
     transform="matrix(0.68334091,0,0,0.68334091,77.15382,-102.44336)">
    <path
       id="path27"
       d="m 1087.094,765.9266 1.012,7.587 1.516,7.08 2.528,3.539 1.519,7.588 3.036,6.071 4.044,1.516 6.575,0.508 c 0,0 10.623,-1.52 12.139,-1.52 1.52,0 13.658,-0.504 13.658,-0.504 l 9.608,1.516 5.059,-3.036 2.528,-9.103 6.071,-12.643 c 0,0 1.516,-6.067 2.528,-7.587 1.012,-1.52 6.071,-21.242 7.587,-22.254 1.516,-1.012 17.703,-9.611 17.703,-9.611 l 13.658,2.528 2.02,8.095 6.576,2.528 10.114,-6.576 c 0,0 10.116,-25.797 11.127,-27.313 1.012,-1.516 1.516,-16.69 1.516,-16.69 v -8.599 l 7.084,-7.588 c 0,0 -3.488,5.007 1.519,0 7.584,-7.583 60.187,38.948 -0.507,88.008 l -8.577,0.489 -8.868,-0.086 -8.17,4.779 -1.65,2.692 -0.086,8.693 8.603,1.912 3.823,1.217 3.215,-0.87 7.565,-8.603 5.037,-6.082 5.194,-4.825 19.614,-24.109 5.72,-16.343 -4.085,-28.606 -14.711,-20.021 -23.699,-6.131 -28.086,-3.297 h -81.026 l -55.029,1.822 -2.304,8.368 4.29,6.486 11.926,5.858 6.9,-2.617 1.781,2.722 8.26,22.907 -5.123,18.199 0.209,4.29 2.931,6.591 z"
       style="fill:#ffffff;fill-opacity:1;fill-rule:nonzero;stroke:none"
       transform="matrix(0.56692905,0,0,-0.56692905,-423.19308,713.78585)"
       clip-path="url(#clipPath28)" />
    <path
       id="path29"
       d="m 709.0154,670.2751 v 4.107 c 8.961,0 15.309,0.747 15.309,13.816 v 69.076 c 0,13.442 -4.854,13.816 -15.309,13.816 v 4.107 h 53.021 v -4.107 c -10.828,0 -15.309,-0.374 -15.309,-13.816 v -69.076 c 0,-13.069 5.601,-13.816 15.309,-13.816 v -4.107 z m 182.586,79.532 v -80.279 h -6.347 l -80.278,82.892 c 0.373,-2.24 0.373,-4.107 0.373,-6.347 v -50.408 c 0,-15.682 0,-21.283 14.189,-21.283 v -4.107 h -37.712 v 4.107 c 14.188,0 14.188,6.721 14.188,21.283 v 57.502 c 0,8.588 0,17.923 -14.935,17.923 v 4.107 h 35.472 l 66.089,-67.957 c -0.373,1.867 -0.373,2.987 -0.373,5.601 v 36.966 c 0,14.935 0.373,21.283 -13.816,21.283 v 4.107 h 37.713 v -4.107 c -13.816,0 -14.563,-5.975 -14.563,-21.283 m 130.3126,-44.06 v -26.884 c -14.936,-7.468 -29.1246,-11.202 -43.3126,-11.202 -39.206,0 -62.729,23.15 -62.729,52.275 0,31.364 26.884,57.501 61.235,57.501 8.588,0 14.936,-1.493 21.657,-3.734 4.8536,-1.493 7.8406,-3.36 10.8276,-3.36 2.614,0 3.36,4.481 3.734,7.094 h 3.734 l 3.36,-36.218 h -4.481 c -1.866,7.094 -5.227,13.068 -9.708,17.175 -7.0936,7.095 -16.8016,10.829 -28.0036,10.829 -23.523,0 -37.338,-18.67 -37.338,-46.674 0,-27.63 16.802,-46.673 39.205,-46.673 6.721,0 12.695,1.493 20.1626,4.854 v 27.631 c 0,8.961 -1.4926,12.321 -14.1886,12.321 v 4.108 h 47.4206 v -4.108 c -11.949,0 -11.575,-3.734 -11.575,-14.935"
       style="fill:#000066;fill-opacity:1;fill-rule:nonzero;stroke:none"
       transform="matrix(0.56692905,0,0,-0.56692905,-423.19308,713.78585)"
       clip-path="url(#clipPath30)" />
    <path
       id="path31"
       d="m 1113.391,756.9018 c -0.747,1.494 -2.614,0 -4.481,0.747 0,-0.747 0,-1.494 1.121,-2.241 1.12,1.121 2.987,1.494 3.36,1.494 m 2.987,19.79 c 0,0.746 -0.747,1.493 -1.867,2.24 h -8.214 -0.747 c 0,-1.494 1.12,-2.24 2.24,-2.24 0,-1.494 1.12,-1.867 1.494,-2.241 1.12,-0.747 1.493,-0.747 2.613,0 1.121,-0.747 1.494,0.747 1.867,0 0,-2.24 0,-3.36 -0.373,-5.227 -0.373,-2.614 -2.614,-2.241 -4.481,-3.361 0,-1.12 -1.12,-2.987 0,-4.107 1.121,0.747 1.867,1.12 3.734,1.867 0,1.12 1.12,2.24 2.614,2.987 0,3.361 1.12,6.721 1.12,10.082 m 16.803,-21.657 v 1.867 h -3.734 l -0.374,-0.373 z m -22.03,34.352 c -0.374,3.734 -4.481,4.107 -6.348,5.601 h -1.493 c -2.987,-1.121 -3.734,-4.108 -4.108,-6.721 1.121,-3.361 3.361,-1.121 4.854,-3.361 1.494,1.12 5.228,3.734 7.095,4.481 m 8.214,-4.108 c -0.747,0.747 -2.987,-0.373 -4.107,-0.746 -1.494,-0.374 -2.614,-1.494 -2.614,-2.614 h 4.107 c 0.374,1.12 1.867,2.614 2.614,3.36 m 18.67,-7.841 c 0,0 0.746,0 0,0.374 l -8.215,1.12 c -0.747,-1.12 -2.614,-1.12 -2.614,-2.24 h -0.746 c 0.746,-2.988 0.746,-6.348 0.746,-9.709 1.494,-0.373 2.987,-1.12 2.987,-3.36 1.494,-0.747 2.988,-1.12 4.481,-2.24 0.747,0.373 1.12,1.493 1.494,2.613 -1.494,1.867 -4.854,0.747 -4.854,4.108 l -2.241,0.746 c 0,2.241 0,4.481 -0.373,5.975 l 0.373,0.373 c 0,-0.373 0.374,-0.747 1.12,-1.494 1.494,0 2.988,-0.373 4.481,0.747 0.747,0.374 0.747,2.241 1.494,2.241 0.746,0 1.493,0 1.867,0.746 m -5.975,4.481 c 0,1.12 -0.373,1.12 -0.746,1.12 -1.867,0 -1.867,2.987 -3.361,2.24 -0.747,0 -1.493,0.747 -2.614,0 0,-0.373 0,-0.373 0.747,-0.373 1.867,0 1.12,-2.614 2.614,-2.987 z m 12.696,2.24 c 0.746,1.867 0.746,5.228 -0.747,7.095 -0.747,1.493 -2.614,2.24 -4.481,3.734 l -2.614,-1.494 c -1.493,-0.747 -2.24,-2.24 -2.24,-4.107 2.614,-1.12 5.227,-4.108 6.348,-6.348 h 1.12 c 1.12,1.12 1.867,0 2.614,1.12 m -77.292,-104.175 c -0.373,0 -1.493,1.12 -2.613,1.12 -1.121,-2.24 0,-3.733 0,-6.347 0,-1.12 -0.374,-2.241 -0.374,-2.241 -0.747,0 -2.24,1.494 -2.613,2.988 v 5.974 l 3.36,4.107 c 2.24,-1.494 2.987,-3.734 2.24,-5.601 m 9.708,4.107 c 0,-1.493 -0.373,-2.987 -1.12,-4.107 -0.373,1.494 -1.493,3.361 -3.36,3.361 -1.494,-2.987 -1.867,-4.108 -0.374,-8.588 -1.12,-1.12 -1.866,-1.494 -3.36,-2.241 -0.747,1.494 -0.747,4.108 -0.747,5.601 0,2.614 0.374,5.228 1.12,7.468 1.121,1.12 1.867,2.987 2.987,4.107 h 4.108 c -1.867,0 -1.867,-1.867 -1.867,-2.987 1.12,-0.373 2.613,-0.747 2.613,-2.614 m 13.069,-2.24 c 0,-2.987 -4.854,-7.094 -4.854,-7.094 0,1.867 1.12,4.107 1.12,6.347 0,0 -1.493,1.494 -2.987,1.494 -1.12,-0.747 -1.12,-1.494 -1.494,-2.614 -1.12,-2.24 -3.36,-4.48 -3.733,-6.721 -0.374,0 -0.374,0.374 -0.374,0.374 0,3.734 0.374,10.081 2.614,12.695 1.867,2.24 3.36,2.24 5.601,2.614 l 1.867,-0.374 -1.494,-2.24 c 1.494,-0.747 3.734,-2.241 3.734,-4.481 m 10.455,3.734 -1.12,-3.734 -2.614,6.721 c -2.987,2.987 -6.348,3.361 -8.215,4.854 -1.493,0.374 -1.493,-0.747 -2.24,0 0,0.747 0,1.867 1.12,2.987 h 2.241 l 2.24,-1.12 c 1.12,-1.12 3.734,-1.12 3.734,-3.36 0,-0.374 -0.374,-0.747 0.747,-2.241 l 3.734,-1.12 z m 5.601,5.601 -2.614,-2.614 c -0.747,1.12 0,2.987 -1.12,4.107 0,0.747 0.747,1.121 0.373,1.494 -0.373,0.747 -4.854,2.24 -4.854,2.24 -1.493,1.12 -3.36,2.241 -4.854,3.734 -1.493,0.374 -2.614,-0.373 -4.481,-0.747 v 0.747 c 0.747,1.494 0.747,3.361 2.988,3.361 1.12,0 2.613,0 3.36,-1.121 1.494,0 2.24,-1.493 3.361,-1.866 1.867,-1.867 3.36,-2.614 4.48,-3.361 0,-1.12 0.374,-1.867 1.12,-2.24 2.241,0 1.494,-2.241 2.241,-3.734 m 1.867,11.575 c 0,-1.12 -0.374,-5.601 -0.374,-5.601 -0.747,2.614 -2.613,5.227 -4.854,5.227 -1.12,1.121 -2.24,2.241 -2.613,3.361 -1.121,1.12 -2.241,0 -3.734,1.12 -1.494,0 -3.361,0 -4.854,-1.12 v 1.12 l 2.613,2.987 c 2.614,-0.373 5.975,0 6.721,-1.867 1.867,-1.12 3.734,-2.24 4.108,-2.987 v -1.12 c 0.746,-0.373 2.24,-0.747 2.987,-1.12 m -1.867,19.043 -1.494,-5.601 c -1.867,-1.494 -4.48,-0.747 -6.721,-0.747 2.987,0.747 5.228,4.107 6.721,6.348 0.374,0.373 0.747,0 1.494,0 m -5.228,4.48 c 0,-1.493 -0.746,-3.36 -2.613,-5.227 -0.374,-0.374 -1.494,-1.12 -1.494,-1.12 0,2.24 1.12,4.107 1.12,5.974 1.12,0.373 2.241,1.12 2.987,0.373 m -4.48,5.601 c -1.867,-1.867 -3.734,-2.614 -4.481,-4.854 0,1.12 -0.373,2.24 -0.747,2.987 0.374,1.494 1.494,2.24 1.867,2.614 1.12,-0.374 1.867,-0.374 3.361,-0.747 m 27.257,-28.377 c -1.494,-1.121 -2.614,-1.121 -4.481,-0.747 l -2.24,2.987 h 5.601 z m -7.468,17.175 c -1.12,-2.24 -2.24,-4.48 -4.481,-5.227 -1.12,0 -2.987,-0.747 -5.227,0 1.12,0.747 2.24,1.12 3.734,2.24 l 2.987,2.987 z m 34.352,-39.579 -1.12,-1.12 c -1.121,1.12 -0.374,4.107 -2.241,4.481 -1.867,0 -3.36,1.867 -4.107,2.24 l 1.494,0.747 c 0,0 0.746,0.373 1.493,0 0.747,-0.747 1.494,-1.12 1.494,-1.867 0.746,-1.12 1.867,0 2.613,-1.12 0.374,-1.12 0.747,-2.614 0.374,-3.361 m -27.631,36.592 c -0.373,-2.24 -1.493,-2.987 -3.36,-5.6 -1.121,-0.747 -3.361,-1.121 -5.601,-2.241 0.373,1.12 1.493,1.494 2.24,2.614 0.747,1.12 2.24,2.987 2.614,4.107 1.867,1.12 2.614,1.12 4.107,1.12 m -17.922,13.069 c -2.241,0.747 -4.854,2.987 -5.975,4.854 -0.746,1.493 -1.12,3.36 -1.12,4.481 1.494,0 2.614,-1.121 2.987,-1.867 v -0.374 c 1.867,-2.24 3.734,-4.107 4.108,-7.094 m 28.75,-26.884 h -0.746 c -0.374,0 -2.988,1.12 -3.734,1.867 -0.374,1.12 -0.374,2.24 -0.374,2.24 h 2.987 z m 29.871,-17.549 c -0.373,-0.747 -1.12,-2.987 -1.493,-4.481 -0.747,2.24 -1.494,5.601 -4.107,5.601 -0.374,1.494 -0.747,2.24 -2.241,3.36 l -2.987,0.374 c 0.374,-1.494 2.614,-1.494 1.12,-3.734 1.494,-1.12 2.614,-1.12 3.361,-2.987 0.747,-1.12 0,-2.614 0.373,-3.361 l -2.24,-1.12 c 0,1.867 0.373,5.601 -2.24,6.348 -2.241,-0.747 -2.614,2.24 -4.108,3.36 -0.747,0 -0.747,1.867 -1.867,1.12 -1.867,-1.12 -4.107,0 -5.974,-1.12 l 1.867,2.987 c 1.494,1.121 2.987,0.747 4.481,1.121 l 2.987,0.373 c 2.987,0 5.601,-1.494 8.588,-2.614 1.493,-0.747 2.24,-1.867 2.24,-3.734 0.747,-0.373 2.24,-0.373 2.24,-1.493 m -53.767,50.407 -1.121,-4.854 c -1.12,2.24 -2.24,4.481 -2.613,7.094 z m 7.094,-10.828 c -2.24,2.24 -4.107,4.107 -4.107,6.347 1.12,0 2.24,0 3.36,-0.746 0,-1.867 0.747,-3.361 0.747,-5.601 m 42.939,-31.738 c -1.493,1.12 -3.733,1.12 -4.48,2.987 -1.494,0.373 -2.614,0.373 -4.481,0.373 -1.493,-0.373 -3.36,-0.373 -4.854,-0.373 -0.373,0 0,0.373 -0.747,0.747 -2.24,-0.747 -4.48,-0.747 -6.721,-2.987 l 1.867,4.48 c 1.494,0 2.614,0.747 3.361,0.747 1.493,0.374 2.613,0.374 3.734,0.374 v -0.374 c 4.107,0 8.961,0.374 11.948,-2.987 z m -22.403,21.283 c -0.747,-0.747 -2.987,-1.494 -4.48,-1.494 -2.241,1.867 -3.734,4.108 -5.975,7.095 l 5.975,-1.12 c 1.12,-0.747 3.36,-3.361 4.48,-4.481 m -12.695,16.429 c 0,-2.614 -0.373,-5.974 -2.987,-7.094 l -0.747,3.734 c 1.12,0.746 2.241,1.493 3.734,3.36 m 34.352,-30.244 c -1.867,0 -3.361,0 -4.481,1.867 -0.373,0 -1.12,1.12 -1.493,0.373 -1.867,-1.494 -3.734,1.12 -5.975,0.747 -1.12,-1.12 -2.24,-1.867 -4.107,-2.241 v 0.374 c 0,1.12 0.747,2.24 2.24,2.987 2.241,-0.747 4.108,4.107 6.348,1.493 1.12,-0.373 2.24,-0.373 2.987,-0.373 2.614,-1.12 3.361,-3.36 4.481,-5.227 m 8.588,-14.189 h -0.374 c -0.747,1.12 -1.12,2.24 -1.867,2.24 1.12,4.108 -1.12,7.468 -1.867,10.829 v 1.12 c 1.12,-1.867 4.108,-3.734 3.734,-5.601 0.374,-3.361 0.374,-6.348 0.374,-8.588 m -34.725,38.459 c -1.867,1.12 -5.228,1.493 -4.481,3.734 0.747,1.867 1.867,2.24 2.614,2.987 0.373,-2.614 0.746,-4.481 1.867,-6.721 m -38.459,48.54 -1.867,-2.24 c 0.373,-3.734 -1.12,-6.348 -1.12,-9.708 l -1.867,5.974 c 0.373,1.494 0.746,2.987 1.867,4.854 z m 56.008,-56.755 h -1.12 c -4.108,-1.493 -7.468,1.12 -10.829,3.361 1.867,0.747 4.481,1.12 6.721,1.12 l 1.12,-2.24 c 1.121,-0.374 2.988,-1.494 4.108,-2.241 m -19.416,30.245 c -0.374,-2.241 -1.121,-5.601 -3.361,-7.095 0,1.494 -0.747,2.241 -1.493,3.361 -0.374,0 0,-1.12 -0.374,-1.12 0,-0.747 -0.747,-2.241 -0.747,-3.734 -0.746,-0.374 -2.24,-1.12 -3.733,-0.374 v 1.121 c -0.374,0.746 -0.374,2.24 -0.374,2.987 l -0.373,0.373 c -1.12,-0.373 -1.12,-1.12 -1.12,-1.867 -0.374,-0.747 -1.121,-1.493 -1.121,-2.614 -1.493,0 -2.24,0.374 -3.36,1.121 v 3.36 c 0,0.747 0,0.747 -0.373,0.747 l -1.867,-1.867 c -1.494,1.12 -1.867,4.107 -1.867,5.974 5.974,3.361 13.442,2.24 17.922,0.373 0.747,-0.373 1.494,-0.373 2.241,-0.746 m 10.828,-20.537 c -1.494,-0.373 -4.107,-1.12 -4.854,0.747 -2.241,3.361 -1.12,6.348 0,8.961 0.747,-2.24 1.12,-4.48 1.493,-6.347 0.374,-1.494 2.614,-2.24 3.361,-3.361 m -48.167,52.275 -2.614,-0.747 0.374,1.867 c 0.746,1.12 1.12,2.24 2.24,3.36 z m 63.102,-57.875 c -1.493,0 -4.107,0 -5.6,1.12 -2.241,1.12 -2.988,1.867 -4.108,2.987 1.494,1.12 3.361,1.12 4.108,1.493 1.493,-1.493 2.987,-4.107 5.6,-5.6 m -10.455,10.454 c -1.866,-0.373 -3.36,1.494 -5.227,2.241 -0.747,2.24 -0.747,4.48 -1.494,5.601 1.494,-1.121 4.855,-1.121 4.108,-4.481 0,-1.12 1.493,-1.867 2.613,-3.361 m 30.992,-26.51 c 0,-2.24 -1.494,-4.107 -1.867,-6.348 0,2.241 -0.374,4.108 -1.867,5.601 0,0.747 1.12,0.747 0.373,1.867 0,0 -2.24,1.12 -2.24,2.614 0,1.493 1.493,2.614 2.24,3.734 0,0.373 1.494,-0.747 1.494,-2.987 0,-0.374 0,-1.494 -0.374,-2.241 -0.373,-1.12 2.241,-1.12 2.241,-2.24 m 8.588,-4.107 c 0,-1.867 -2.241,-4.108 -2.988,-5.601 0.747,1.867 0.747,5.601 0,5.601 -0.746,0.373 -2.24,0 -2.24,0.746 0,1.121 0.374,2.614 0.374,3.361 0,1.493 -1.121,2.24 -1.121,2.987 0,2.24 2.614,2.614 3.361,4.107 0.373,-1.493 0.373,-2.987 0.373,-4.854 0,-0.747 1.12,-2.987 0,-4.854 0,-1.12 2.241,-0.373 2.241,-1.493 m -30.618,35.098 c -2.24,0 -4.854,-1.12 -5.974,1.12 0.746,0.374 1.493,1.494 2.24,2.241 z m 10.455,-8.588 -1.867,-0.747 c -4.108,0 -5.974,1.121 -7.841,2.614 1.493,0 3.36,1.867 3.36,1.867 1.867,-1.867 4.481,-3.36 6.348,-3.734 m -15.309,23.524 c -4.481,2.613 -9.335,4.48 -14.936,4.854 0,-1.121 0,-2.241 -0.373,-2.614 4.48,-2.24 8.588,-4.107 12.322,-7.468 v -3.36 c -3.734,3.734 -7.842,7.467 -12.696,8.588 -0.373,-0.747 -1.866,-1.494 -2.24,-2.988 -2.614,1.867 -5.601,3.734 -8.588,4.108 -1.12,0 -1.867,4.107 -1.867,4.107 1.867,0.747 2.987,1.867 3.734,3.734 h 1.494 c 1.12,0 1.12,0.747 1.12,1.867 0,2.24 -4.854,2.24 -7.094,2.24 -2.614,0 -4.481,0 -5.975,-1.12 -0.746,0 -0.373,-1.12 -0.373,-1.867 0,-0.373 1.12,-1.12 1.12,-1.12 0.747,0 1.494,0.747 2.24,0.747 -0.373,-2.241 0.374,-3.361 2.614,-4.481 l -0.373,-3.734 c -4.481,0 -7.468,-1.867 -10.828,-3.36 -1.121,0.746 -1.867,1.867 -2.614,2.987 -4.481,-1.494 -12.322,-7.468 -12.322,-7.468 v 2.614 c 3.361,2.987 7.841,4.48 11.202,6.347 v 2.614 c -1.494,0.747 -2.987,0 -4.481,0 -3.36,-0.373 -6.721,-1.867 -8.961,-3.734 0,1.12 -0.374,2.614 -0.374,2.614 4.108,2.24 9.335,4.107 14.189,3.36 v 1.494 c -0.373,0.747 -0.373,1.867 -1.12,1.867 -2.24,2.24 -4.481,5.601 -4.481,7.841 l 1.494,0.747 c -0.747,2.24 -1.494,7.841 0,9.708 -2.24,1.12 -4.481,2.987 -5.228,4.48 -0.746,1.867 -1.493,2.988 -1.867,5.228 1.121,2.24 1.867,2.987 2.988,5.227 0.746,0 1.867,0.374 2.24,1.12 1.867,0.374 2.987,2.241 5.227,1.121 1.494,0 2.987,-0.747 4.108,-1.121 0,-0.746 0,-1.12 0.746,-1.866 2.241,0 2.241,-2.241 3.361,-4.108 1.12,-0.373 2.24,-0.373 2.987,-0.373 2.24,-0.747 4.107,-0.747 4.854,-1.867 2.987,1.867 5.974,2.24 9.335,1.867 0.373,1.12 1.12,2.614 1.493,4.481 0.374,-1.121 0.374,0 1.12,0 1.494,1.12 3.361,2.987 5.974,2.24 1.494,-1.12 4.108,-0.374 5.601,-2.24 1.12,-1.494 1.867,-3.734 2.987,-5.601 -1.12,-2.241 0,-5.228 -2.24,-6.348 l -2.24,-2.24 c -0.747,0 -0.747,-0.747 -1.867,-0.747 1.12,-2.614 0.373,-6.348 -0.747,-8.961 0.747,0.373 1.867,0.373 1.867,1.493 0.373,-0.373 0,-1.12 0,-1.493 v -1.12 c 0,-1.867 -1.12,-3.734 -2.614,-5.228 -0.747,-2.24 -2.613,-5.227 -5.227,-5.601 v -0.746 c 5.601,0 10.081,-1.494 15.309,-4.108 z m 29.124,-36.219 c 0,-0.747 -1.12,-1.494 -1.494,-1.494 0,0 -1.866,1.867 -2.24,3.734 -0.373,1.494 1.12,4.108 1.12,4.108 0.374,0 0.747,-0.747 1.12,-0.747 0.374,-0.374 0,-1.494 0.374,-2.614 1.12,-0.747 1.867,-2.24 1.12,-2.987 m 30.244,-25.764 c 0,-0.373 -0.746,-1.12 -0.746,-1.12 -1.867,1.12 -2.987,1.494 -5.228,1.494 0,1.493 -1.12,3.36 -1.867,3.36 -2.24,0 -1.867,-1.493 -3.734,-1.493 l 3.361,3.36 c 0.373,0.747 0.373,0.747 1.12,0.747 1.12,-0.747 1.494,-1.12 2.614,-1.12 0,-0.747 0,-1.12 -0.374,-2.241 1.121,-0.746 1.867,0.374 2.614,-0.746 1.12,-0.374 2.24,-0.747 2.24,-2.241 M 1175,723.6708 c 0,-1.121 -0.747,-1.494 -1.494,-2.241 0,0 -1.493,1.867 -1.493,2.614 0,1.493 0,2.24 0.373,3.36 1.12,-1.12 2.614,-2.613 2.614,-3.733 m 14.562,-11.202 c 0,-2.24 -0.373,-4.854 -0.373,-7.468 -1.121,0 -1.121,0.747 -1.121,2.24 -0.373,2.241 -1.12,4.108 -1.866,6.348 -0.747,2.987 -2.614,5.601 -4.108,8.961 -0.373,1.494 -2.24,2.241 -3.734,3.361 1.867,0 3.734,0 5.228,-1.494 0,-0.746 0.373,-1.12 1.493,-2.24 2.614,0 1.867,-3.361 4.108,-4.854 -1.121,-1.12 -1.494,-1.867 -2.241,-2.614 1.12,-0.747 2.241,-1.12 2.614,-2.24 m -19.416,21.283 c -1.12,-1.12 -4.107,-1.494 -6.348,0.373 l 2.987,1.494 c 1.121,-1.12 2.614,-1.494 3.361,-1.867 m -8.215,8.588 c -0.373,-1.494 -1.867,0 -2.24,0 h -3.36 c -0.374,0.747 -0.747,1.12 -0.747,1.867 1.493,0.373 2.614,1.12 3.734,0.373 0.746,-1.12 1.493,-2.24 2.613,-2.24 m 32.858,-29.498 c 0,-1.493 -0.746,-2.613 -0.373,-4.107 -0.747,2.24 -2.24,4.481 -2.987,6.721 0,0.373 -0.373,0.373 0.373,0.747 0.374,0 1.867,0 1.867,-0.374 0.374,-0.746 1.12,-1.867 1.12,-2.987 m 19.043,-15.309 c 0,-1.493 -0.373,-1.867 -0.747,-3.733 -2.613,0.373 -2.613,3.36 -2.987,3.733 -1.867,2.241 -4.48,0.374 -6.347,0.374 -0.747,2.24 0.373,2.24 0.373,3.734 1.12,0 2.241,0.746 3.361,0 1.867,0.746 2.987,-1.12 4.854,-1.12 0.373,-0.747 1.12,-2.614 1.493,-2.988 m 7.468,-10.828 c -0.747,-1.12 -0.747,-1.12 -1.12,-2.24 0,1.867 -2.24,2.987 -3.734,6.347 l 1.494,2.614 c 1.12,-0.747 2.613,-1.867 2.613,-3.734 0,0 -0.373,-1.12 0,-1.867 0,-0.373 0.747,-0.373 0.747,-1.12 m -61.982,63.849 c -2.241,0 -3.361,1.121 -4.481,3.361 0,1.12 -0.373,2.614 0,4.481 0.747,-1.494 0.747,-2.241 1.494,-2.988 1.493,0.747 1.493,-1.12 1.867,-1.493 0.373,-1.12 1.12,-2.24 1.12,-3.361 m 32.111,-27.63 c -3.361,1.867 -5.227,5.227 -8.215,8.588 2.988,0 3.734,-2.987 5.975,-3.361 0.746,-0.747 1.493,-1.12 2.24,-2.24 z m 23.523,-21.283 c -2.613,0 -1.12,5.227 -6.721,5.227 -1.12,0 -1.866,-1.867 -3.36,-2.24 0,0.373 0.373,2.613 0.373,2.613 0,0.747 0.374,2.241 1.867,2.988 2.987,0 2.241,-1.121 4.481,-1.867 1.12,-0.374 1.867,-1.121 3.36,-1.121 z m 8.962,-4.854 c 0,-2.241 0,-2.987 -1.12,-4.854 l -2.241,3.36 c 0.747,1.12 0.747,2.614 1.867,4.481 0.374,0 1.494,-2.614 1.494,-2.987 m -72.437,71.69 c 0,-0.373 -0.747,-3.734 -0.747,-3.734 l -2.987,-0.747 1.867,8.215 c 0.746,-1.494 1.867,-2.987 1.867,-3.734 m 65.342,-58.622 c -1.12,0.374 -3.734,0.747 -3.734,1.867 0,1.494 -0.746,1.867 -2.613,1.867 -1.494,0 -2.614,-0.373 -4.854,-1.12 0,0 -1.12,1.493 -1.494,2.987 0.747,0.373 3.734,1.12 5.228,1.12 2.613,0 5.227,0 5.227,-1.12 0,-1.494 2.24,-1.867 2.24,-5.601 m 3.361,8.215 c -2.614,0 -5.228,0.746 -5.601,1.867 -0.747,0.746 0,2.24 -1.867,2.24 -0.747,0 -1.867,-1.12 -1.867,-1.12 -0.747,-0.374 -2.987,1.12 -2.987,0 0,-1.867 -1.493,-2.614 -3.36,-2.614 -0.747,0 -1.494,0 -2.241,0.373 v 3.734 c 4.854,0 4.481,1.494 6.721,1.494 1.494,0 2.614,-0.747 3.734,-0.747 1.867,0 0.747,0.747 2.614,0.747 1.867,0 2.614,-1.494 3.734,-1.867 0,-1.12 1.12,-2.614 1.12,-4.107 m -1.12,8.214 c -2.987,1.867 -7.468,2.987 -10.082,2.987 -1.493,0 -5.974,-1.867 -7.467,-3.36 l -0.747,3.36 c 2.24,0.374 2.24,2.241 3.734,2.241 1.12,0 2.613,0.373 3.733,0.373 1.121,0 1.867,0.747 2.241,0.747 1.867,0 1.12,-1.867 2.24,-1.867 1.12,0 1.867,0.747 2.614,0.747 1.867,0 3.36,-2.987 3.734,-5.228 m -8.588,8.215 c -2.241,0 -2.614,0.373 -4.107,0.373 -1.867,0 -4.108,-0.747 -5.228,-2.614 -0.747,1.494 -0.373,2.241 0,3.361 1.12,1.12 2.987,2.614 4.481,2.614 2.613,0 4.854,-1.867 4.854,-3.734 m 0.373,5.601 c -2.614,0.746 -4.107,1.867 -6.347,1.867 -0.747,0 -4.108,-1.121 -4.481,-1.867 -1.12,1.493 0.747,4.48 2.24,5.227 1.494,0.747 2.241,0.373 2.987,0 0,-2.24 2.614,-1.12 4.108,-1.867 0.746,-1.12 1.12,-1.867 1.493,-3.36 m 8.962,42.939 h -4.108 c -0.747,1.12 -1.867,0 -2.614,0 -0.746,0 -1.12,0 -2.613,1.12 2.24,0 3.36,1.12 5.227,1.867 1.494,-1.12 2.987,-1.493 4.108,-2.987 m -93.721,-112.763 c -1.867,3.361 -2.24,8.588 -2.24,9.708 0,1.867 0,4.481 1.12,6.348 l -4.107,-0.747 c -1.12,-1.494 -1.494,-2.24 -1.494,-2.987 l 1.867,0.747 c 0.374,0 0.747,-0.747 1.12,-1.494 -0.373,-1.867 -2.613,-1.867 -3.36,-2.614 -1.12,-3.733 2.24,-5.974 2.614,-8.961 z m 6.348,10.082 c -0.374,0 0.373,-0.747 -3.361,2.987 -0.746,0 -1.867,-2.241 -1.867,-2.987 0,-2.987 0.747,-7.095 1.867,-10.082 h 2.987 c 0,3.361 0.374,7.095 0.374,10.082 m 8.214,-0.374 c 0,1.494 -1.12,1.867 -2.613,1.867 -0.747,0 -2.614,-1.12 -2.614,-1.867 0,-1.493 -0.747,-9.708 -0.747,-9.708 h 2.614 c 1.12,3.361 3.36,7.841 3.36,9.708 m 49.287,4.481 -3.733,-0.374 c 1.493,-0.746 1.493,-2.613 1.493,-2.987 0,-1.12 -0.747,-2.24 -1.493,-2.987 -0.747,0.747 -0.747,1.867 -1.494,2.987 -0.747,0 -1.12,-1.867 -1.12,-2.613 0,-3.361 1.493,-5.975 2.614,-8.215 h 3.36 c -0.373,2.987 -1.12,5.601 -1.12,8.961 0,1.867 1.12,4.108 1.493,5.228 m 81.026,34.351 c 0,16.43 -6.721,32.859 -18.67,44.807 -5.227,5.227 -11.202,7.841 -15.682,13.069 -2.24,2.24 -4.107,4.48 -5.601,7.467 -1.867,1.867 -2.987,2.987 -5.227,4.108 0.373,-1.121 0.746,-2.241 1.12,-3.361 h -0.374 c -1.866,0 -3.733,1.12 -5.227,2.24 l 1.494,1.494 c -0.374,0.747 -1.494,0.747 -2.241,0.747 -5.974,1.12 -11.575,-2.241 -17.549,-3.361 v -0.747 c 3.734,-1.12 4.481,-5.6 6.721,-7.841 h 2.24 c 0.747,0 1.867,-0.746 2.614,-0.746 0,0.746 -0.747,2.24 -0.747,2.24 0.747,0.747 1.494,0.747 2.241,0 1.867,-1.12 4.48,0.747 6.347,-2.24 -2.24,0 -4.48,0 -6.347,-1.121 0,-0.373 1.12,-1.12 0.746,-1.867 -1.867,0.747 -4.107,0 -4.854,1.494 l -0.373,-0.373 c 2.24,-2.614 5.601,-4.854 8.961,-5.975 4.854,-0.746 8.962,1.494 13.816,0.374 17.175,-8.215 29.124,-27.631 29.124,-47.047 0,-27.631 -15.682,-38.832 -25.764,-38.832 -1.867,0 -4.854,1.12 -5.974,2.24 1.12,4.107 1.867,8.588 1.867,15.309 0,16.056 -6.348,33.231 -14.936,42.193 -4.107,4.107 -8.588,7.467 -13.442,7.467 -2.24,0 -4.48,0 -5.974,-1.867 -1.867,-1.493 -2.987,-4.48 -2.614,-6.347 -2.987,-2.24 -7.841,-3.361 -11.575,-3.361 -4.107,0 -9.334,1.494 -14.188,5.228 v 5.601 c -1.12,0.373 -4.854,2.613 -2.987,4.48 1.12,-0.373 1.867,-1.12 2.24,-1.493 -0.373,2.613 -0.373,5.601 -2.24,7.841 -0.747,0 -1.867,0 -2.988,0.747 -1.12,1.12 -2.24,2.613 -2.24,4.48 1.12,-1.867 2.987,-1.12 4.107,-2.24 -1.867,4.481 -1.12,6.348 -4.48,13.069 -0.747,3.36 -4.107,5.227 -6.348,7.467 -1.12,0.747 -1.493,1.867 -2.987,1.867 -1.493,0.374 -1.493,2.241 -1.493,3.361 0.373,0 1.493,-0.747 2.24,-1.12 -2.24,5.227 -3.734,10.828 -8.588,13.815 l -1.12,-0.747 h -5.974 c 0.746,0.747 2.24,1.12 3.36,1.867 -1.12,1.12 -1.867,1.494 -4.107,1.494 -1.12,-0.374 -2.614,-1.494 -4.107,-1.494 h -0.374 c 0,1.12 -0.373,2.614 1.867,3.361 -2.24,0.373 -4.107,0.373 -6.721,0 -0.373,-1.867 -1.493,-2.988 -1.493,-4.481 -1.121,-0.747 -1.494,-1.867 -2.614,-2.987 0,2.24 1.12,4.48 1.493,6.721 -1.493,-0.374 -3.36,-1.494 -4.107,-1.494 -2.987,1.494 -6.721,2.987 -8.214,2.987 2.24,-1.493 1.12,-4.107 1.493,-5.974 l -1.493,0.747 c -0.374,1.493 -2.241,2.614 -2.614,4.481 -2.24,0 -3.734,-0.747 -5.601,-1.867 v -0.374 c 1.12,0 2.614,-1.12 3.361,-2.24 -2.614,0 -4.481,1.12 -7.095,1.12 0,0 0,0.373 -0.373,0.373 -1.12,-0.373 -2.24,-1.493 -2.987,-2.24 -2.614,-2.24 -4.481,-4.107 -5.601,-7.468 0.747,0 1.867,0 2.24,-0.373 -1.493,-0.373 -2.24,-2.24 -3.734,-2.614 v -5.601 c -1.12,-1.12 -2.613,-2.24 -3.36,-4.48 -1.867,-5.974 -2.24,-12.695 -2.24,-20.163 -0.374,-1.494 -1.121,-1.867 -1.867,-2.24 v -5.975 c 0,0 2.24,2.241 3.36,2.987 v -4.854 c -1.493,0 -2.614,-1.867 -2.614,-2.987 0,-1.493 0.374,-2.987 0.374,-4.48 0,-0.747 0,-0.747 0.373,-1.494 0,0.747 0.747,1.494 1.867,1.867 0,0 0.747,0.747 2.24,0.747 -1.12,-1.12 -1.493,-2.614 -2.24,-4.107 l -1.12,-1.121 c 0,0 -0.373,-0.746 -0.373,-1.12 1.493,-7.841 3.733,-14.562 6.721,-22.03 -2.988,-4.854 -6.348,-14.188 -8.588,-23.15 -1.867,1.867 -4.481,2.241 -6.721,2.241 -2.241,-0.374 -4.481,-1.12 -5.974,-3.361 -2.241,1.12 -5.228,0.747 -6.722,-0.747 -3.36,-2.987 -3.36,-4.48 -3.36,-6.721 -0.747,-0.746 -2.24,-2.613 -2.24,-5.227 0,-3.36 0.373,-5.601 2.24,-8.588 h 56.755 c -0.374,1.12 -1.12,2.614 -1.867,3.361 -1.12,2.24 -0.373,5.227 -0.373,7.467 1.12,2.241 2.24,4.481 3.733,6.348 0.374,1.12 0,1.12 0.374,1.494 l 2.614,0.746 c 1.493,0 2.613,1.12 4.48,1.12 1.12,-1.866 1.12,1.121 2.987,1.867 4.108,0.747 8.215,0 10.455,-2.987 0,-0.746 0.373,-0.746 0.373,-1.12 h -1.866 c -2.241,1.12 -4.854,2.24 -7.468,1.12 0,-1.12 -0.374,-1.12 -0.374,-2.24 v -1.867 c 1.494,0 2.614,-1.494 4.108,-2.24 0.746,1.12 2.987,2.24 4.48,2.24 1.867,0 4.481,-1.12 4.481,-4.107 v -4.107 c 1.494,-1.494 3.36,-1.867 5.227,-2.614 -0.746,-1.494 -1.867,-1.494 -2.987,-1.494 h -2.987 c -0.373,0.374 -1.12,0.374 -1.12,1.494 -1.12,-1.494 -1.867,-2.987 -2.614,-4.481 h 43.687 c -0.747,1.494 -1.494,2.614 -1.867,3.361 -0.747,2.24 -0.747,5.227 -0.747,7.467 l 4.107,5.601 c 2.241,0 4.107,0.747 8.215,1.12 0.746,1.121 0,1.867 3.36,1.867 2.614,0 4.481,-0.746 5.228,-1.12 0.373,-0.747 0.373,-0.747 0,-1.493 -0.747,-0.747 -2.241,0.746 -3.361,0.373 -0.747,-0.747 0.374,-1.12 0.374,-1.867 0.746,-0.747 -3.361,0.747 -3.361,0.747 0,0 -0.747,-2.241 -1.12,-2.987 l 2.24,-2.241 c 0.747,-1.12 -1.12,-2.24 -1.12,-3.36 -0.747,0.373 -2.24,1.493 -2.24,1.12 -0.747,-2.987 0,-5.601 -0.374,-8.588 h 4.108 l 0.373,6.348 c 0.373,3.734 4.854,10.455 7.468,10.455 1.493,0 2.614,-0.747 3.734,-1.494 0.746,-1.494 2.613,-2.24 2.613,-2.987 0,-0.747 -1.12,-1.12 -2.987,-1.12 -0.746,0 -0.746,1.12 -1.867,1.867 l -2.24,-2.241 c 0,0 2.614,-2.24 2.614,-3.733 0,-1.867 -0.374,-2.614 -1.494,-3.734 l -2.24,4.48 c -1.12,0 -2.987,-2.24 -2.987,-3.36 0,-1.494 -0.747,-2.241 -0.747,-4.481 h 23.15 c 2.614,0 4.854,0.747 7.468,2.24 h 4.48 c 9.335,0 16.803,2.614 23.524,9.335 8.961,8.961 14.189,23.15 14.189,36.965 m -39.953,56.382 c -0.747,1.494 -2.24,2.24 -3.36,2.24 -1.121,1.494 -2.614,3.361 -4.108,3.361 1.121,0 2.614,1.12 4.481,1.12 0.747,-1.867 2.24,-2.987 2.614,-4.481 z"
       style="fill:#ff6200;fill-opacity:1;fill-rule:nonzero;stroke:none"
       transform="matrix(0.56692905,0,0,-0.56692905,-423.19308,713.78585)"
       clip-path="url(#clipPath32)" />
  </g>
</svg>
