<svg height="360" viewBox="0 0 640 360" width="640" xmlns="http://www.w3.org/2000/svg"><g fill="none" fill-rule="evenodd" transform="translate(80 120)"><g transform="translate(290.91)"><g fill="#fff"><path d="m144.522482 116.186182c2.221068-.325818 4.577201-.276364 6.348052-1.853091 7.503607 1.117091 15.109264-.680727 21.007099-4.686546 3.106494-2.42909 5.90684-5.248 8.17293-8.328727 1.992958-2.7112725 3.565714-5.2392725 4.583203-8.2763635.759365-1.8734545 1.359654-3.8225454 1.812872-5.824 2.140029-9.4370909 1.014488-19.9912727-2.155036-28.9658181-.579279-1.6669091-1.242598-3.2814546-1.962944-4.8203637-3.955902-7.9243636-9.340491-16.4741818-17.630476-21.4865454-4.670245-2.8218182-8.968312-7.1883637-11.60658-11.7090909-1.43469-1.2509091-2.809351-2.9090909-4.664243-3.2087273.507244.8116364 1.065513 1.6058182 1.203579 2.5541818l-.108052.1338182c-1.968947.0552727-3.511688-.9541818-4.859336-2.176l1.485714-1.3061818c-.56127-.2763637-1.203579-.3810909-1.824877-.5207273-5.669726-.6254545-10.333969 1.9112727-15.364387 3.1330909l-.078038.2705455c3.088485 1.3323636 3.733796 4.6312727 5.53166 6.8625454.444213-.5178182 1.203579-.1396363 1.824877-.1861818.897432.0494545 1.740837.6778182 2.611256.4567273.027013-.7272728-.396191-1.3061818-.531256-1.9578182.531256-.2443636 1.176566-.0290909 1.770852 0 1.626782.9221818 4.235036-.1629091 5.249523 1.9578182-1.854891.1134545-3.595728.4916363-5.336565.9018182.114055.6807272.816392 1.2218181.759365 1.9054545-1.488716-.5992727-3.064473-.9774545-4.72127-1.1665455l-.08404.2414546c2.107013 2.3941818 5.000404 3.8138182 7.950822 4.6545454 4.244041.9512728 7.977836-1.0065454 12.074805-.3258181 10.060837 4.4654545 18.653969 14.6792727 22.390765 24.3723636.183088.4654545.360173.9367273.525253 1.4167273 3.130505 8.8523636 3.72479 19.7323636.588282 28.9658182-1.668802 3.84-3.505685 7.4647272-6.450101 10.5861818-1.113535 1.3294545-2.344127 2.5134547-3.68277 3.5141817-4.217028 3.182546-9.415527 4.587636-14.776104 3.162182-.336162-.224-1.011486-.279273-.897431-.846546.186089-.759272.360173-1.527272.513246-2.315636.885426-4.4247272 1.299625-9.0792726 1.05951-13.7338181-.006003-.1978182-.012006-.3985454-.018009-.5963636-.297143-6.7578182-1.686811-12.832-4.247042-18.6763637-1.644791-3.3541818-3.595729-7.0109091-6.05391-10.2923636-2.935412-3.9127273-6.576162-7.2930909-11.25241-8.9803636-2.866378-.736-6.40508-.8756364-8.566118 1.4370909-1.545744 1.312-2.188052 3.0778182-1.965946 5.0152727-2.416161 1.4836364-5.132467 2.2836364-8.088889 2.528-.723347.0610909-1.464704.32-2.218066.3112727-.714343.032-1.410678.0029091-2.095007-.0785454-3.55671-.4247273-7.15544-2.2865455-9.889755-4.4101818-.057027-1.4167273-.141068-2.749091-.198095-4.2472728-1.5667533-.7883636-2.8663781-2.2865454-2.9744301-4.0581818l.1380664-.1338182c.9034343.2705455 1.6838095.704 2.5002017 1.1665455-.3661757-2.1236364-.7893792-4.2181818-1.878903-6.0712727-1.0144877-.4101819-2.025974-.736-2.9774315-1.2276364-1.0955266-.7010909-1.8008658-1.9869091-1.9629437-3.1534546.9814719.925091 2.6922944.5992728 3.4516595 1.5767273-1.3236364-3.7847273-1.3446465-8.1134545-3.5116883-11.5723636-1.0955267-2.5570909-3.9619048-3.7294546-5.92785-5.6058182-.759365-.9018182-1.0655122-2.1527273-2.4401731-2.2923636-1.1255411-.2705455-1.2095816-1.4923637-1.4046753-2.2865455.6993362.0814546 1.287619.544 1.8759018.6516364-1.6267821-4.1861818-3.0614718-8.84654548-7.4675902-11.51418185l-.7563636.46545455c-1.713824.24436364-3.5417027.35490909-5.2525252.41018182.759365-1.088 2.1040115-1.55345455 3.1725252-2.048-1.2365945-.896-2.2540837-1.11127273-3.7998268-1.35563637-.8974315.8669091-2.5212122 1.30618182-3.6737663 1.55054546l-.1440692-.11054546c-.0300145-.98036363-.2581241-2.176 1.2636075-2.42327272-1.4617028-.68072727-3.8838673-.40436364-5.372583 0-.4172006 1.06181818-1.6237807 2.016-1.5367388 3.27272727-.867417.86981818-1.4857143 2.04218182-2.3891486 2.66763636-.027013-2.09745454.89443-4.02909091 1.287619-5.79781818-1.2636075.46254546-2.5482251 1.11709091-3.7878211 1.68727273-1.9899567-1.11709091-4.0909668-2.23127273-6.2249928-3.07781818-.1920923-.08145455-.6182972-.16-.5342568.192 1.8278788 1.27709091 1.1195382 3.67709091 1.314632 5.49527272l-1.1525541-.92218181c-.5612698-1.38763637-2.182049-2.39418182-2.4611832-3.91854546-1.9119192.35490909-3.1335065.84363637-4.9043579 1.57963637l-.2431169.13672727c1.3176335 0 2.4401732 1.00363636 3.0854834 2.016-1.9929581.10472727-3.7638095-.65454546-5.7297547-.84945455-.1950938-.18618182-.366176-.41018182-.6753247-.38109091-.9814718.35490909-1.8278787 1.03272728-2.6922943 1.68727273-1.9389322 1.85309091-3.9078788 3.89527273-4.8323233 6.34763641.6483117.1047272 1.4617028.0785454 1.9389322.4596363-1.0655122.6254546-1.9929581 1.6901818-3.0314574 2.2865455-.3661761 1.4167272-.3091486 3.0283636-.3961905 4.576-.8163925 1.2014545-1.9089177 2.2574545-2.4401731 3.5985454-1.7438384 5.4632728-2.1910534 11.5403637-1.9389322 17.7454546-.5642713.5207272-1.2966234.8494545-1.8248774 1.2567272l.0570274 5.5505455h.1380664c.2521212-1.1665455 1.686811-1.8181818 2.5572295-2.6094545h.2821356c-.1410678 1.250909-.3091486 2.5047272-.3361616 3.7847272l-1.6267821 1.3061818c-1.632785 1.3905455-.2551227 3.485091-.3931891 5.2305455.1140549.4567273.1920924 1.1403636.5312555 1.2509091.1980952-.6807273.813391-1.1694546 1.2095815-1.7716364.6993362-.16 1.3176335-.7098182 1.9629437-.7854545-.366176 1.3614545-.8374026 2.6938182-1.4046753 4-.2701299.1716363-.5852814.4014545-.8554113.6807273-.2881385.2996363-.5192496.6341818-.5792785 1.0065454 1.2696104 6.4494546 3.2565657 12.8203636 5.528658 18.8916364-1.5397402 2.5338182-2.4161616 5.5156363-3.7007792 8.1309091-.1860894.3636363-.3511688.7389091-.5042424 1.1170909-1.2906205 3.1650909-1.6838095 6.7054545-3.2895815 9.7454545-.6513132-.4305454-1.3536508-.7650909-2.0769986-1.0618182-3.0374603-.9803636-6.5491486-.3549091-8.7642136 1.9083637-1.9689466-.3549091-3.99191915-.0290909-5.53766229.9803636-1.10753247.8-1.96294373 1.7745451-2.45518038 2.9090911-.33616162.791273-.48923521 1.652363-.43821068 2.592-1.26060606.840727-1.93593073 2.144-2.35613275 3.456-.58828283 2.938182.47722943 5.998545 2.21806637 8.261818h140.00831173z"/><path d="m125.928543 54.9701818c-.030015.7069091-.56127 1.5010909-.084041 2.0974546.675325-.736 1.800866-.7098182 2.698297-1.0327273 2.497201-.2181818 4.88635.5410909 7.215469 1.0909091-.585281-.9018182-.981471-1.9025455-1.626782-2.7229091-1.296623-.3258182-3.259567.544-3.481674-1.3061818-.789379-.6545455-2.028975-.1861818-2.836363-.1396364-.78938.5498182-1.43469 1.2247273-1.884906 2.0130909zm-85.8472732-23.5054545c-.0120057-.0116364-.0300144-.0232728-.0420202-.0261818 0 .002909 0 .0145454.0060029.0261818zm10.2109091 24.1978182 1.686811-1.5767273c.1440693 0 .2521212.0290909.3361616.1396363l-.1410678 3.0196364c.813391.736 1.8248773.9803636 2.8903896 1.0356364.0870419-.8174546.7323521-1.3876364 1.0985281-2.0974546.3091487-.5701818.1140549-1.4167272.7293507-1.8269091l.1920923.192c.2010967.896.1470708 1.9054546.6243002 2.6938182.0570274.4334546.1380664.9803637.1920923 1.3614546 1.2365946.0581818 2.3561328-.2734546 3.3135931-.7069091-.0570274-1.0327273.3121501-1.8792728.474228-2.8334546.2581241-.3287272-.3091486-.9250909.3961905-.896.393189.8145455 1.0955267 1.6581818 1.4887157 2.528 1.6267821-1.6058182 2.3021068-3.7003636 2.6952958-5.8763636-.474228-.6312727-1.2065801-.6312727-1.7708513-1.0356364-4.7722944-1.4981818-10.901241-1.8007272-15.508456.5149091-.2971429 1.856.0960461 3.8981818 1.3026262 5.3643637zm-44.63746029 51.0894545c-.17108225 2.100364 0 4.066909.13506494 6.135273.45321789.680727 1.26961039 1.472 2.07699856 1.527272l.1470707-1.390545c.33316018-1.937455-.73235209-3.991273.39318904-5.623273.78637806.244364 1.56675324.625455 2.24808085.980364.3301587-1.797818-.1410679-3.892364-1.91191924-4.980364zm6.93333329-2.935273c-1.0955266 3.182546-1.9119191 7.115637-.5852813 10.464.7533622-.485818 1.5427417-.951272 2.2120635-1.632-.135065-2.562909-.501241-5.297454 1.0685137-7.421091 1.3746609.410182 2.3081096 1.690182 2.8363636 2.944.9304473-1.149091 1.239596-2.725818.8734199-4.253091.0570274-1.192727-1.3536508-.919272-2.025974-1.413818.2281097-1.006545.1950938-2.173091 1.2936219-2.7432725l-3.3706205.3258185c-.867417 1.192727-1.8218759 2.368-2.3021068 3.729454zm6.9393363 9.399273c.1440692.250182 0 .680727.2821356.736.4232035-2.283636 2.3321212-3.767273 3.3736219-5.780364.501241-.680727.4712266-1.634909 1.2876191-2.152727 1.0985281 0 1.8849062.765091 2.9534199.846546.3361616.244363-.1740837.459636-.1980952.730181-.2221068 1.856-.9544589 3.392-.8133911 5.294546h.1920924c1.4887157-1.518546 2.500202-3.170909 3.5957287-4.913455l.1920923-1.547636c.2521212-1.853091-1.8248773-3.048727-3.1725252-3.810909l1.2065801-1.498182-1.6838096-.573091c-1.9689466.192-3.7397979.980364-5.1144588 2.481455-1.7078211 3.045818-1.9869553 6.487272-2.1010101 10.187636zm7.5576334-16.1570909c.6453103.192 1.2335931-.3258182 1.8759019-.0523636 2.5872439.9221818 5.2855411 1.8763636 7.2214719 3.9738185l2.3051082 5.687272 1.1525541-3.508363-.7593651-1.908364c-.6453102-1.3614545-2.4161616-1.250909-3.6257431-1.3061817-.501241-.544.0300144-1.1723637.2010967-1.6872728.5852814-1.9316363-1.8578932-1.826909-2.8393651-2.6094545.0600289-1.1723636-1.4046753-.7650909-2.2210678-.8756364l-.2791342-.3258181c-.1650794-.2443637-.5852814-.2443637-.8133911-.0552728-.0600288-.0785454-.1680808-.1338182-.1080519-.2734545l-.6243002.1396363c-.867417.736-1.4587013 1.6872728-1.4857143 2.8014546zm1.6267822-6.2574546c.0840404.352.3091486.7069091.5882828.9221819 1.2666089-.3258182 2.4701876-1.1665455 3.9318903-.6545455 1.8849062 1.6058182 3.8478499 3.2930909 6.1289466 4.1687273l.8103896-.1396364c.5072439.1687273 1.0655123.192 1.4046754.736.31215.736-.4712266 1.1723637-.7293507 1.7687273 1.266609.8989091.7593651 2.5076359 1.5487446 3.5927269l2.0229726-2.6123633c-.474228-1.1461818.027013-3.104-1.8278788-3.2116363-.6152958-.3025455-1.0384993-.9018182-1.0114863-1.5825455-1.2035786-1.0618182-2.6922944-1.5214545-3.9048773-2.6094545-.9814719-.7650909-1.5697547-1.9374546-2.8363637-2.208-.867417-.4596364-1.8188744-.7069091-2.8303607-.9221819-1.8909091-.2705454-2.0559885 1.9025455-3.2955844 2.752zm2.6952958-5.3643636.339163.5178182c1.4016739-.0843636 2.6712843-.6807273 4.0489466-.6545455.9244445.5469091 2.134026.5207273 3.0854834.9803637.7593651 1.0065454 1.5757576 2.1498182 2.6922944 2.8334545 2.2810967.3229091 3.5417028 2.6938182 4.3280808 4.4334546v-.8436364c.3361616-1.1665455-.0300144-2.5309091-.4802309-3.5898182-.5612698-.5469091-1.3746609-.9047273-1.9629437-1.3934545-.1140548-.352-.0300144-.5178182.0840404-.8436364-.8734199-.8989091-2.1640404-1.3905454-3.2295526-2.0945454-1.4887158-2.0974546-4.3550938-1.5243637-6.6301876-2.0974546zm-.0450217-19.9738182c.2491198.8465455.555267 1.9083637.7203463 2.8043637.7863781-1.6872728 2.3381241-2.4436364 3.712785-3.8341819-.7893795-.5207272-1.7678499-.7650909-2.6382684-.928v-.0494545c-.6182972.5963636-1.5727561 1.1956364-1.7948629 2.0072727zm5.1024531 8.9570909 1.2636075-1.2509091c1.266609-1.250909 2.3051083-2.6967272 2.500202-4.3025454-.8974314-.5178182-2.0769985-.1658182-2.947417.1338182-.3151515 1.7745454-.786378 3.5170909-.8163925 5.4196363zm.9244445 3.84c1.9419336.1105455 3.8208369.4858182 5.3965945-.5672727l1.5697547-4.9047273c-.501241-.0290909-1.0114863-.2443636-1.4857143-.0814545-1.0354978 2.2341818-3.1215007 4.4363636-5.4806349 5.5534545zm.5702741-17.3701818c1.2636075 1.8007273 3.3706205 3.8138182 5.5346609 4.3810909-.2521212-2.2836363-2.2720923-3.8661818-3.313593-5.824l-.0600289-.6545454c-.8133911-.7650909-1.7978644-1.2770909-2.6412698-1.6901818-.135065 1.312.2311111 2.5658181.4802308 3.7876363zm6.849293 17.5883637c1.4887157.2501818 3.0884848 0 4.4631457-.413091 1.9989611-.4567272 3.0944877-2.5832727 3.766811-4.2414545h-2.500202l-2.6982973 2.5570909c-1.0625108.5469091-2.08 1.3672727-3.0314574 2.0974546zm-.3031458-20.064c.4232035 2.1236363 1.3446465 4.0552727 2.6142569 5.8821818l.3361616-4.0581818zm9.2084272 10.5890909c.1680808-1.3614546-.4172006-2.9381819-.5792785-4.3258182-.846407-.5469091-2.0289755-.4916364-2.8963925-1.0327273.0540259 2.1498182 1.7918614 3.9709091 3.475671 5.3585455zm-2.5572295 13.8356363c1.7708514-.5469091 3.4816739-1.1461818 5.108456-2.0189091 1.0384993-1.4370909 2.6142569-2.752 2.8363636-4.4363636-1.2906204.352-2.4161616-.0523636-3.6197402.5207273-.7293507 1.2770909-1.1825686 2.7229091-2.5842424 3.6450909-.2221068.9221818-1.2636075 1.5534545-1.740837 2.2894545zm2.7493218 3.3483637 2.107013 2.6647272c1.1255411.3549091 2.5302164.2443637 3.5116883-.3810909l-.7593651-2.4232727c-1.4857143.5498182-3.2535642.3810909-4.8593362.1396364zm3.5146898-19.2814546.813391 3.5956364c1.9629437-1.5534546 2.3621357-3.8138182 2.3141126-6.208-1.1255412 1.2509091-1.7828572 2.016-3.1275036 2.6123636zm5.5316594 6.3476364c.0300144.5149091.1710823 1.0065454.4802309 1.4167273 2.1880519.7592727 2.4131602 3.3454545 4.4391342 4.3258181 1.3176335.5701819 2.8303607-.1396363 3.9859163-.6545454-.8704185-.9512727-1.8578932-1.6116364-2.6952958-2.6152727-.5912843-.2443637-1.1825686-.5992728-1.1525541-1.3061819zm1.740837 12.8494545c.9574603 1.0618182 2.2480808 1.6058182 3.5957287 1.9025455-.2221068-.2996364.1440692 0 .1980952-.1890909l-1.6898124-3.5869091c-.840404.0203636-1.7108225.1861818-2.4972006.1338182.054026.5934545.1980953 1.1898181.3931891 1.7396363zm2.9804329-16.7738182c-.7893796-1.7687272-1.1195383-3.9185454-1.3416451-5.8763636-.8434055.9774546-1.7138239 1.6058182-2.500202 2.6094546-.366176 2.016 2.6022511 2.5105454 3.8418471 3.266909zm3.4246464-1.8472727c1.0114863 1.2770909 3.2295527.8407273 4.4721501.4596364-.5942857-.9803637-2.4972006-1.5505455-2.8333622-2.6123637-.1980952-1.8763636-.5852814-3.7003636-1.2095815-5.4167272-.9844733 2.3127272-2.1700433 5.0647272-.4292064 7.5694545zm1.7678499 5.7716364c2.8123521 1.9898182 5.5616739 4.2996363 9.4935643 3.456.2821356-.192.759365-.1658182.8163925-.5178182-1.1555556-.7098182-2.3861472-1.2538182-3.5687158-1.9025455l-1.3446464-1.9083636h-.6182973c-1.5187302.4916364-3.1515151.6778182-4.7782973.8727273zm.0600289 22.08h.1920924c1.6898124-1.3061818 3.6827705-1.7425455 5.6757287-2.2894546.5372583.1890909.1980952.7621819.6753246.9832728 1.2095816-.4916364 2.6712843-.3810909 3.9048774-.7912728 1.4917172.0581819 2.7012987.0843637 3.9048773.7098182.9514575 1.2218182 2.7523233 1.0909091 3.9919192 1.9025455l-.1980952-1.9025455c-2.6112554-2.9701818-6.687215-3.1883636-10.4450217-3.1301818l-.0870418-.384c-.8974315 0-1.9059163.192-2.7493218.576-1.2065801.0494545-2.3591342.6254545-3.5146897.9774545-.5372583 1.0356364-.9574604 2.2836364-1.3506494 3.3483637zm2.2540837-33.4603637c1.0955267 1.3905455 2.7223088 2.4494546 4.5772006 2.0974546-.9514575-.8989091-2.0499856-1.856-2.107013-3.1330909.2821356-2.4232727-2.4701876-2.6123637-3.8178355-3.8690909.4442136 1.6378182.393189 3.4589091 1.3476479 4.9047272zm-.2851371 38.2807275h.3271573c1.4917172-.9047275 3.6557576-.2210911 5.1174603-1.1752729.8133911-.4101818.867417.6807273 1.4346898.9803636 1.3746609.8174543 1.5427417 3.2640003 3.4816739 2.6967273 2.3291197 1.169455 1.7408369 3.924364 1.8248773 5.937455l2.1640404-1.306182c-.1980952-1.061818.4172006-2.347637-.2851371-3.269818-.5312554-1.166546-1.9899567-1.277091-2.6922944-2.231273.8434055-1.390546-1.0655122-2.0392729-1.4617027-3.0487275l.1140548-.1396363 2.9714286.3810909c1.0174892.5992727 1.3776623 1.6901819 1.6898124 2.6967269 2.3321212.381091 2.8933911 2.938182 3.7097836 4.573091.4772294-1.117091.6723232-2.315636 1.1525541-3.400727.027013-.901818-1.2095815-.901818-1.8248774-1.306182-.1740837-1.387636-.8163925-2.6996362-2.0769985-3.5403635-2.5872439-.6254545-4.8593362-2.016-7.6956999-2.016l-2.3621356.7098182c-1.2936219.2996364-2.6682828-.0814545-3.6497547.7854546-1.4677056.1076363-1.578759 1.664-1.9389322 2.6734547zm1.4827129-11.2203638.5372583.2443636c1.1465512-.5207273 2.3021067-1.1170909 3.5116883-1.5534545 1.8789033-.5178182 3.340606 1.5534545 4.9163636.2472727.5882828-.4101818 1.0895238.1890909 1.5427417.5178182.6753247 1.1985454 2.2480808 1.1170909 3.4276479 1.4429091-.5882828-1.5505455-1.3176335-3.6770909-3.3706205-3.9272728-.813391-.352-1.7708513-.3170909-2.5572294-.7854545-2.161039-2.3127273-3.5657143 1.9025455-5.9278499.8698182-.8404041.9047273-1.8789034 1.7454545-2.08 2.944z"/><path d="m76.9149784 102.193455c.8974314.730181 1.8218759 1.986909 3.2235497 1.82109 1.7498413.791273 1.0174892 3.019637 1.9719481 4.192l1.0084848-.872727-.0840404-.052363.1440693-.136728.0600289.081455c.2791342-.820364-.1170563-2.263273-.5942858-3.214546-.6453102-.430545-1.4046753.029091-2.0199711-.381091-.0870418-.869818-.6483117-1.306181-1.2936219-1.850181-.4502165-.325819-1.0415008.110545-1.5457432.081454zm3.5116883-33.1898186c.9274459 1.5010909 2.7223088 2.4261818 4.1569985 3.4589091 1.1765657.5207272 2.7223088.6516363 3.9889178.3810909-1.2065801-.9512728-2.3051083-2.0392728-3.3135931-3.1883637-.393189-.544-.4802309-1.2218182-1.0114863-1.7134545-1.3266378.2472727-2.8093506.2210909-3.8208369 1.0618182zm1.5487446-9.7425455c1.2966233 1.5476364 3.2895815.9250909 5.1144588.9774546v-.1861819l-2.8093506-2.2923636c-.7893795.2472727-1.6267821.9250909-2.3051082 1.5010909zm-51.7088601-25.6756364 1.6267821 4.9018182c-.0300144-2.7781818 1.2906205-5.0909091 1.0114863-7.9214545l1.2095816-1.7454546-2.5602309.7621819c-.6723233 1.250909-1.2305917 2.5076363-1.2876191 4.002909zm1.0955267-8.4945454 2.215065-1.2538182v-3.1854545c-.9274459.5469091-1.4376912 1.472-2.161039 2.208z"/><path d="m76.9209812 30.048c-.5372583.6807273-1.3476479.8436364-2.0199711.9803636 1.1765657-2.0974545 1.7408369-5.0152727.8103896-7.3832727.6212987-.2152727 1.2966234-.32 1.8849062-.6516364l-.0600288-.0523636 1.5487445-1.312c2.0499856-1.3614545 1.2636075-3.9447273 2.0229726-5.8763636-1.0114863-1.5272728-1.3176334-3.3774546-2.7823376-4.6603637l.0870418-.0494545c-1.1555555-1.41672728-3.2325541-1.25672728-4.8113131-1.96363637-2.0769986-.68072728-3.6767677.70690909-5.1654834 1.63781817-.6453103.1047273-.2521212.9221818-.9544589.896-.393189 1.0094546-.8734199 2.0974546-1.1525541 3.2116364-2.7823377-.384-5.7837807-.0785455-8.0048485 1.4429091-1.1825685-.8407273-2.6142569-1.0065455-3.9919192-1.3876364-1.0084848-.1890909-2.1610389.1658182-2.8873882-.384-1.0655122-1.1665455-1.2966233-3.2930909-3.1245021-3.5898182-.6423088-.2181818-.7803752-.896-.7803752-1.4981818-1.2095815-.18909091-2.2810967-.73018182-3.4606638-.98036364-1.7918615-.79127272-3.2235498.46545455-4.5741991 1.30618182-.5882828.24727273-1.2636075.32581822-1.8218759.65745452-1.0114863 1.5214546-1.9689466 3.0749091-2.6142569 4.7592728.1980953 1.3876363.8133911 2.6152727 1.5487446 3.7847272.6453103 1.7716364 2.6652814 3.1592728 4.3791054 3.8690909-.8133911 2.6938182-.8133911 5.9083637 0 8.6312728 0 0-.0480231.032-.0480231.0261818 0 .0058182-.0900433.0756363-.0900433.0756363-.2701299 0-.555267.0523637-.7773738-.0756363h-.0360173c.3931891 2.6007273 1.6567966 4.8756363 3.6977778 6.8276363.7323521.2501819.5642713 1.0909091.8764214 1.6378182.1920923.2414546.2191053.7592728.1350649.9774546-4.3761039-.1367273-8.2839827.9250909-11.795671 2.8567272-.8974315.4363637-.501241 1.6378182-.5852814 2.4785455 2.4701876-1.5767273 5.1384704-2.7490909 8.0858875-3.264 1.2636075-.0814545 2.6952958-.3810909 3.9048773-.0552727l.1410678 2.3418182c-3.340606 1.6872727-6.9933622 2.6676363-9.8597402 5.4458181.0570274.8407273-.108052 1.824.1440692 2.5338182l2.5572295-2.0189091c2.4671861-1.8181818 5.0514285-3.3745454 7.8907936-4.3810909.7593651.8727273 1.5487446 1.7978182 2.5602309 2.3389091 1.7108225-1.0618182 3.5657143-1.8472727 5.5316594-2.3389091 1.0415008-.5992727 2.6922944-.0552727 3.3676191-1.2509091l.4802309-2.4785454c-.0870419-.0552728-.1380664-.16-.2821357-.1309091-1.3176334-.736-2.1880519-2.0130909-2.0769985-3.5141818-.447215.2152727-.9514575.3549091-1.4887158.3810909-.4502164-.1105455-.867417-.2152728-1.0655122-.6545455-.0300144-.5469091-.3121501-1.3614545.2491198-1.7687273 1.8248773-1.090909 4.1870129-1.1461818 6.4921212-.9774545 1.7108225.2152727 4.187013.1309091 4.7722943 2.0974545-.0780375.5701819-.0270129 1.1956364-.6152958 1.5767273-.6182972.3258182-1.3176335-.0290909-1.8849062-.2705454-.4442135 1.3323636-1.2035786 2.8334545-2.7523232 3.264l.2010967 1.5825454c.1920923.7098182.2491197 1.8763637 1.4046753 1.632 2.6682828.6254546 5.0244156 1.9607273 7.3565368 3.4036364.7863781-.7650909 1.4046753-1.6378182 1.9629437-2.4232727 4.1569986 1.3585454 7.7557287 4.3810909 11.1803752 7.1854545l.1440693-2.2865455c-3.2595671-2.8043636-6.8853103-4.7912727-10.6491198-6.3447272.1440692-.736.3121501-1.4458182.3361616-2.2312728 4.4691486.2414546 8.7041847 1.5767273 12.3899567 3.677091l-.0600288-1.9607273c-3.874863-2.0130909-8.1159019-3.3483637-12.7531314-3.4036364-.1680808-.2501818-.2221067-.5992727-.1920923-.8465454 2.2480808-.3549091 3.8448485-2.6123637 4.3851082-4.576 1.1465512-1.2770909 2.8093507-2.6676364 2.4161616-4.5701819.0510246-.1541818.108052-.322909.1650794-.4858181.1500721-.48.2761327-.9774546.1080519-1.4196364z"/><path d="m80.82886 37.0443636 2.3021068-.7098181.2491198-1.2509091c.6513131-1.824-.7233478-3.1854546-1.4046753-4.6312728zm5.8077922 8.6312728c1.0955267 1.1665454 2.1640404 3.0487272 4.1059741 2.4727272-.1440693-.7854545-.5942858-1.4370909-.87342-2.1469091-.5102453-.576-.6753246-2.208-1.6868109-1.632-.7593651-.4916363-.9514574-1.312-1.4346898-1.9636363-.2191053 1.0065454-.0810389 2.2603636-.1110534 3.2698182zm.3961905 7.9709091c.4232035.576.5372583 1.312.9514574 1.826909.7593651.4858182 1.8849062.4101819 2.8093507.3258182.8434055-.1890909 1.3776623.7069091 2.1640404.1861818-.9784704-.5963636-1.5667532-1.6872727-2.500202-2.4727272-1.0985282-.8436364-2.2720924-.1076364-3.4246465.1338182zm1.4887157 12.6632727c1.9359308 1.1170909 4.4031169 2.208 6.9873593 1.8269091.2791342-.1396364.7593651-.1105455.8133911-.4392728-1.5997691-.546909-3.2805772-2.0974545-4.9613853-2.4232727-.9304473-1.3876363-2.1370274.3549091-3.3165945.2443637.027013.3287272.3631746.576.4772294.7912727zm5.8378067 24.0378182.4232034.8756363c.4232035 2.8334546 2.2720924 5.4429091 1.2606061 8.5469091.8434055.5701822 1.0985281 1.5214542 1.6297836 2.2836362h.1410678c.6453102-2.3650907.1980952-4.8174544-.1410678-7.1883635.2521212-2.1498181-1.9959596-3.4036363-3.3135931-4.5178181zm.4832323-27.8778182c1.4617027 1.0909091 3.793824 1.1985454 5.4746316.6545454-1.0655118-.5701818-2.2420775-1.1956363-3.1184988-1.9607272zm6.9303316 8.3607273c-.144069 1.1461818.645311 2.0974545 1.488716 2.6676363.309149-.6807273.813391-1.2509091.867417-2.0130909-.24912-1.1723636-.924444-2.2312727-2.019971-3.0196364-.198095.7592728-.420202 1.4894546-.336162 2.365091zm.087042 12.4101818c-.198095 1.2770909 1.260606 1.4458182 1.878903 2.1527272.507244.5963637-.336161 1.0065455-.336161 1.5767273 1.065512 1.3323637 1.683809 2.8596364 1.683809 4.6312727.423204-1.6581818 1.068514-3.2436363 1.299625-4.9570909-.114055-1.1956363-2.076998-.9512727-1.770851-2.2836363.558268-1.3614546-.114055-2.6967273-.480231-3.9185455-.114055-.1949091-.366176-.576-.585281-.4654545-.516249 1.1170909-1.776855 1.9025454-1.689813 3.264zm3.84785-6.4785455 1.458701 2.7490909c.648312-.0756363 1.062511-.6807272 1.569755-1.1112727.396191-1.1461818-.64531-1.8821818-.951457-2.8072727-.258124-.6545455 0-1.5243637-.480231-2.0974546-.363175-.2152727-.78938-.5701818-1.209582-.4654545zm1.878903-7.2378182c1.152554.6778182 2.470188 1.6581819 3.085484 2.8538182.987475 2.7781818 2.560231 5.2829091 3.709783 7.9767273.423204 1.8792727.759365 3.5549091 1.293622 5.408.198096.4829091.084041 1.4370909.87342 1.3585454.222107-2.0683636.64531-4.0552727.672323-6.208-.699336-.896-1.632785-1.2770909-2.500202-1.826909v-.1861819c.114055-.4654545.507244-1.0094545 1.098529-.9221818.249119-.2792727 1.008484-.5469091.675324-1.0356363-1.461703-1.4138182-1.377662-3.8545455-3.712785-4.2938182-.810389-.3258182-1.011486-1.1403637-1.089524-1.9025455-1.098528-.8930909-2.731313-1.2014545-4.105974-1.2218182zm1.344647 14.7549091c1.43469 1.2741818.933449 3.1272728.816392 4.8436364-.222106 1.0356364 1.125541.4363636 1.548745.9803636.867417 1.2538182.363175 3.0778182.051024 4.4392728.762367-1.12 1.632785-2.1003637 2.221068-3.3221819-.030014-.4654545.585282-.6807272.564272-1.2509091.249119-.7912727-.702338-.4363636-1.095527-.5236363-.336162-.0814546-.702338-.2996364-.594286-.7330909.732352-1.3643637.060029-2.9963637-.222107-4.3549091-.336161-1.12.14407-2.6123637-.393189-3.5927273-.897431 1.1985455-3.568715 1.472-2.896392 3.5141818zm2.614257-19.3338182c2.503203 2.4523637 4.328081 4.9134546 7.023376 7.2843637.060029-1.056-.08404-2.0421818-.141067-3.0778182-.396191-.7301818-1.125542-1.2770909-1.743839-1.8210909-1.989957-.192-3.031457-2.7927273-5.13847-2.3854546zm6.546147 12.9774546c.057027.2443636.171082.4596364.279134.7069091 1.095527 1.7454545 2.134026 3.5374545 2.896393 5.4167273-.225109-2.0101819 1.182568-4.5207273-.675325-6.0683637-.252121-.6545454-1.095527-.4363636-1.629784-.384zm6.741241 19.8894545c.789379.3461819 1.797864-.2792727 2.557229-.7098181.702338-.1658182 1.293622.2152727 1.827879.5701818.222107.4334545 0 .8407272.078038 1.2509091 1.689812.4625454 3.343607 1.0618181 4.835324 2.0130906l.471227-.459636c.114055-1.1723637-.837403-2.0101819-1.737836-2.6647274-.588282-.3345454-1.464704-.1396363-1.878903-.6603636.279134-.4305455.279134-1.0850909.24912-1.5767273-.930448 0-1.51873-.2734545-2.278095-.7098182-.471227-.1338181-.897432-.514909-1.290621 0-1.401674.928-1.485714 2.2865455-2.833362 2.9469091zm1.968946-34.2632727c.699337-.1861818 1.43469-.384 2.022973-.8698182 1.875902-1.6610909 4.604214-.5469091 6.792266-.5730909-.417201-.736-1.011487-1.4661818-1.542742-2.0974545-.786378-.2996364-1.51873-.6545455-2.416162-.6545455-1.911919-1.0850909-3.199538.736-4.664242 1.632-.390188.7418182-.585282 1.8269091-.192093 2.5629091zm.054026 5.6029091c0-.0756364 0-.1629091.084041-.1861818.252121.2181818-.030015.7330909.393189.8407273.729351-.349091 1.404675-.8407273 2.076998-1.3003637 1.884907 0 3.007446-1.7687273 4.856335-1.7687273 3.088485.541091 6.15596 1.1403637 8.848254 2.6094546-.192092-1.7687273-1.76785-3.3745455-3.364617-4.1687273-.903435-.2996363-1.605772.1687273-2.251083.6545455-1.884906 1.1490909-.897431-1.6581818-2.218066-1.7163637-1.713824.5236364-3.484675 1.0909091-5.390592.9309091-1.125541.4043637-1.91492 1.408-3.175526 1.3032728-.057028.898909-.198096 1.9898181.141067 2.8014545zm1.293622 6.0770909c.585282.5963636 1.566754.4858182 2.416162.5963636l2.440173-.9221818c.030015-.4363636-.72935-.5498182-.564271-1.0327272.675325-.736 1.605772-.221091 2.443174-.5236364 1.18557-.16 2.392151-1.3032727 3.565715-.4596364-.027013.1338182.060029.3287273-.051025.4596364-.372179.8465454.252121 1.3614545.924445 1.6872727 1.377662.2501818 2.668283 1.4749091 4.045945.9250909-.138067-1.1141818-.447215-2.1469091-.732352-3.2116363-1.149553-.192-1.962944-1.1170909-3.031458-1.5010909-.480231.4363636-1.095526.7650909-1.686811.7098181-2.16404-.4887272-4.748282-1.7949091-6.936334-.4596363-.78938.9221818-2.194055.6516363-3.259568 1.056.060029.9338182.168081 1.8298182.426205 2.6763636zm.924445 16.1803636c-.171082.4625455-.64531 1.2276364.222107 1.4429091 1.800865.0581819 4.102972-.8407272 5.510649.5178182.474228.3578182.24912 1.088.222107 1.5534546l2.356133 1.9083636c.228109-1.1461818.64531-2.1818182.675324-3.4094545-.192092-.8698182-.64531-1.7163637-1.428687-2.2865455-1.548744 0-2.449177-1.7541818-4.105974-1.5301818-.867417-.1949091-1.62378.5527273-2.500202.5527273-.393189.3810909-.615296.8465454-.951457 1.250909zm.675325-12.832c.363174.7301819.789379 1.9316364 1.488715 2.013091 1.656797-.7069091 4.069957-1.1461819 5.92785-.381091.618297.1076364.618297.7883637.480231 1.2276364.951457.544 2.107013.9745455 3.115498 1.5767273l-.279134-1.632c-.060029-1.7716364-2.362136-1.9374546-2.503204-3.6829091-1.881905-.5963636-3.988918-.7854546-5.981876-.3229091-.651313.5730909-1.572756.4916364-2.362135.6574545-.051025.2152728.08404.349091.114055.544zm.48023 8.8203637c1.095527-.2996364 1.791862-1.472 2.97443-1.5767273 1.797865.0290909 3.400635.7301818 4.520174 2.2312727.681327.4334546.537258 1.5534546 1.404675 1.5534546-.252121-1.3381818.198095-2.5629091.144069-3.9243637-1.18557-1.9025454-4.09697-.4363636-5.195498-2.6676363l-2.076998.1338182c-1.488716.3549091-1.092525 2.0450909-1.296624 3.1883636-.16808.3549091-.504242.6254545-.474228 1.0618182zm10.300953 11.9069091c.87342 1.6872727 2.78834 2.9701817 2.980433 4.9047277.450216-.520728.759365-1.117091 1.068513-1.687273-.030014-.546909-.678326-.546909-.933448-.980364-.252122-.706909.144069-1.332363.255122-1.9636362-.363174-1.0094545-1.236594-1.9607273-2.218066-2.5570909zm3.463665-4.2996364 2.019971 2.6676364c.867417-1.3352728.867417-3.2930909.531256-4.9047273-.192093-.2996364-.56127-.7883636-1.065513-.5701818-.762366.7650909-.870418 1.9316363-1.485714 2.8072727zm-8.23596-74.5221818c.732352.3549091 1.43469.6807273 2.302107.7330909.594286-.2967273 1.353651-.5149091 2.083002-.3258182 1.038499.6545455 2.302106-.1367273 3.505685-.0814545-1.062511-.9774546-2.275094-1.5767273-3.505685-2.1469091-1.575758.3229091-2.836364 1.408-4.385109 1.8210909zm10.988283 2.56c1.482713.1338182 2.551227 1.4109091 3.562713 2.4814545 1.266609.1861819 2.221068 1.056 2.977432 1.9578182l-.47723-1.4458182c-.336162-1.4458181-1.263607-2.5629091-2.215065-3.7003636-1.347648.0814545-2.674286.1890909-3.84785.7069091z"/></g><path d="m41.918153 11.0952727.813391.0814546c2.1940548 1.0618182 5.7327561 1.6058182 5.9278499 4.6807272-2.2120635.8465455-4.3490909 1.9927273-6.1169408 3.7294546-1.3476479-1.3352727-4.0759596-.5992727-4.5231746-2.9381818.4232035-2.2050909 1.2335931-4.9774546 3.8988745-5.5534546zm2.1130158 13.8065455c2.5512266-.2152727 5.0244156.1309091 7.6686869-.0814546.6453102.2705455 1.3176335.8174546 1.6267821 1.4429091-.0840404 2.9381818-1.0114863 5.7454546-1.1525541 8.7650909-1.1495527.4683637-2.2750938 1.3905455-2.554228 2.6152728-1.0415007.2967272-1.9689466.9018181-2.9804329 1.3585454-.4502165-.9221818-.366176-2.3127273.4262049-3.072 1.0925253-1.5010909 3.9318903-1.1461818 3.7007792-3.5141818.7323521-1.1461818.0300145-2.6152727.0600289-3.8138182-.2821357-.896-.5612699.2996364-1.0114863.2705455-.8974315.1861818-1.8248773.2443636-2.608254-.1861818-.5942857-.605091-1.3236363-1.0909091-1.4917171-1.9083637-.7863781-.3810909-1.7108226-.9803636-2.1040116-1.7716363zm3.0884849 17.7512727c1.2005772.16 2.4701876-.3549091 3.5086868.2152727-.2251082.3810909-.813391.544-1.2906204.6545455l-1.8819048.8465454c-.7023377-.1687272-.3091486-1.2567272-.3361616-1.7163636zm4.9163636-22.7374545c1.2035787-.3810909 2.500202-1.1665455 3.7908225-.7854546-.9274459.8989091-1.6567965 2.0683637-2.3561327 3.1534546l-3.84785-.0785455c.4141992-.9774545 1.4797114-1.7949091 2.4131602-2.2894545zm11.2644156-.896c1.5967677-.2705455 1.5127273 1.7425454 2.97443 1.8269091.2551227.3258181.6212987.6225454.4772295 1.1112727-.8434055.3258182-2.0769986.1658182-3.0374604.3810909-1.2636075-.6807273-.4442135-2.8043636-2.4431746-2.6676364-.1080519-.16-.3361616-.4887272-.0540259-.5992727.6212987-.2123636 1.4286868-.1338182 2.0830014-.0523636zm-1.0114863 7.2989091c.6993362-.957091 1.7708514-1.0327273 2.7793362-1.2276364l7.2754979.1367273c.3091486.2705454-.2791342.5149091-.2791342.8436363-.4502165.4072728-1.0985282.5178182-1.4917172.9018182-.9514574.0290909-.8734199 1.1112727-1.5457432 1.5767273-1.0415007 1.0065454-2.5542279.5469091-3.7638095.3810909-.4232034-.2996364-.8974314-.7098182-1.0955267-1.1723636l-.3361616.3258181c.4232035 1.5272728.3091486 3.2174546.6152958 4.7650909l1.740837 1.12c.0300144 2.5047273 3.0644733 1.824 4.3851082 3.2145455-.3091486.896-.9274459 1.6581818-1.5967677 2.4232727-1.0685137-1.0094545-2.2780952-1.6669091-3.5687157-2.0974545-.1110534-1.472-1.7678499-2.3389091-2.6982973-3.0778182-.2521212-2.6676364-.3091486-5.3905455-.7533622-7.9767273zm2.6382684 16.7941818h3.3736219l-.4232034 1.7163636-3.373622-1.3905454c-.0780375-.2705455.2251083-.352.4232035-.3258182zm6.0659163-30.8421818 2.500202-.765091c1.4346898.6516364 2.7823377 1.472 4.0999712 2.3941819 1.0415007 1.856.867417 4.3549091.393189 6.4232727-.7593651.8203636-2.4161616 0-3.0314574 1.3061818h-.1140549c-.9304473-2.5570909-3.5657142-4.8407273-6.0118903-6.016.393189-1.3032727.8163925-2.5803636 2.1640404-3.3425454z" fill="#f60"/><path d="m129.578297 115.994182h14.986205c2.218067-.325818 4.577201-.273455 6.345051-1.856 7.503607 1.12 15.112265-.677818 21.010101-4.677818 3.112496-2.437819 5.909841-5.253819 8.169928-8.328728 1.992958-2.7112724 3.568715-5.2450905 4.586204-8.2792724.756364-1.8763636 1.356653-3.8225454 1.809871-5.8269091 2.140028-9.4341818 1.017489-19.9854545-2.146032-28.9687272-.588283-1.6669091-1.245599-3.2727273-1.968947-4.8145455-3.955902-7.9243636-9.334488-16.4712727-17.630476-21.4865454-4.673247-2.8247273-8.968312-7.1941819-11.60658-11.7090909-1.43469-1.2567273-2.812352-2.9149091-4.664242-3.2145455.507243.8174545 1.065512 1.6058182 1.209581 2.5570909l-.114055.1367273c-1.962944.0552727-3.511688-.9512727-4.859336-2.1818182l1.491717-1.3032727c-.564271-.2705455-1.209581-.384-1.827879-.5149091-5.675728-.6254546-10.336969 1.9025454-15.361385 3.1301818l-.08404.2705455c3.085483 1.3323636 3.730793 4.6254545 5.531659 6.8625454.450217-.5207273 1.209582-.1396364 1.824877-.1949091.897432.0552727 1.740837.6807273 2.608254.4625455.030015-.7330909-.387186-1.3032728-.531255-1.9549091.531255-.2501818 1.182569-.0290909 1.770851 0 1.626783.9221818 4.241039-.1687273 5.252526 1.9549091-1.854892.1134545-3.595729.4887272-5.336566.8989091.111053.6807272.813391 1.2276363.759365 1.9083636-1.491717-.6050909-3.061472-.9774545-4.72127-1.1723636l-.078037.2414545c2.107013 2.3970909 4.994401 3.8138182 7.944819 4.6603636 4.241039.9512728 7.974834-1.0065454 12.071804-.3258181 10.063838 4.4654545 18.653968 14.6792727 22.393766 24.3723636.183088.4654545.357172.9367273.525253 1.4109091 3.130505 8.8523636 3.721789 19.7410909.588283 28.9687273-1.668803 3.8458181-3.505686 7.4647272-6.450101 10.592-1.113536 1.3236363-2.347129 2.5076366-3.685772 3.5141816-4.217028 3.182546-9.415527 4.581818-14.770101 3.153455-.333161-.212364-1.014488-.270546-.903435-.840728.189091-.756363.363175-1.530181.516249-2.312727.891428-4.4305453 1.296623-9.0850907 1.06251-13.733818-.012005-.2007273-.015007-.4014545-.024011-.5992727-.294142-6.7549091-1.68381-12.832-4.247042-18.6734546-1.638788-3.3541818-3.592727-7.0109091-6.050909-10.2952727-2.93241-3.9156364-6.576162-7.2989091-11.25241-8.9861818-2.866378-.736-6.408081-.8698182-8.566118 1.4458182-1.548745 1.3061818-2.191054 3.0749091-1.968947 5.0065454-2.416162 1.4894546-5.132467 2.2923637-8.088889 2.5338182-.723348.0610909-1.467705.3141818-2.215065.3112727-.717345.032-1.416681 0-2.092005-.0843636-3.565715-.4247273-7.161443-2.2778182-9.895758-4.4101818-.057027-1.408-.144069-2.7490909-.198095-4.2414546-1.569755-.7912727-2.8603755-2.2923636-2.9744303-4.0581818l.1440692-.1367273c.8974315.2705455 1.6838096.7069091 2.4941991 1.1723637-.366176-2.1236364-.7833765-4.2210909-1.8789032-6.0712728-1.0114863-.4101818-2.0289755-.7330909-2.9804329-1.2276363-1.0955267-.7069091-1.7978644-1.9869091-1.9599423-3.1592727.9784704.930909 2.6922944.6021818 3.4516594 1.5825454-1.3176334-3.7847273-1.3476479-8.1134545-3.5116883-11.5723636-1.0955267-2.56-3.9619047-3.7294546-5.9278499-5.6116364-.7593651-.896-1.0655123-2.1469091-2.4431746-2.2865454-1.1225397-.2705455-1.2095815-1.4981819-1.4046753-2.2836364.7023376.0785454 1.2906205.544 1.8849062.6516364-1.632785-4.1949091-3.0644733-8.8465455-7.4735931-11.51418186l-.7593651.45963636c-1.7108225.25018182-3.5387013.35490909-5.2525252.41018182.759365-1.09090909 2.107013-1.55054546 3.1755267-2.04509091-1.239596-.896-2.2540837-1.11418182-3.8028283-1.36145455-.8974315.87563637-2.5182107 1.30618182-3.6707648 1.55054546l-.1380664-.10472727c-.0300144-.97745455-.264127-2.18181819 1.2546032-2.42327273-1.4587013-.68072727-3.8748629-.41018182-5.3665801 0-.4232035 1.06181818-1.6207792 2.01309091-1.5427417 3.264-.8644156.87563636-1.4827128 2.04218182-2.3861472 2.67054545-.0240115-2.09745454.8914286-4.032 1.2876191-5.79781818-1.2636075.45963636-2.5482252 1.11127273-3.7818182 1.68727273-1.9959596-1.11709091-4.0969697-2.23418182-6.2279943-3.07490909-.1980952-.08436364-.6212987-.16581818-.5372582.18618182 1.8248773 1.28 1.1195382 3.67418181 1.314632 5.5010909l-1.1525541-.92218181c-.5612699-1.39054546-2.1850505-2.39709091-2.4611833-3.92436364-1.9119192.35490909-3.1335065.84654545-4.9043579 1.58254545l-.2461183.13381819c1.3176335 0 2.4401732 1.00654545 3.0884849 2.01309091-1.9929582.11054545-3.7638096-.65454546-5.7267533-.84072728-.1980952-.192-.3631746-.41018182-.6783261-.38109091-.9844733.35490909-1.8218759 1.03563637-2.6952958 1.69018182-1.9359307 1.84727273-3.9048774 3.89527273-4.8293218 6.34181822.6483117.1105454 1.4617027.0843636 1.9389322.4654545-1.0625108.6254546-1.9929582 1.6872727-3.0344589 2.2865455-.3631746 1.4167272-.3091486 3.0225454-.393189 4.576-.8133911 1.1956363-1.9089178 2.2574545-2.4431746 3.5898181-1.740837 5.472-2.1910534 11.5432728-1.9359308 17.7512728-.5642713.5149091-1.2966233.8494545-1.8248773 1.2538182l.0570274 5.5534545h.1380664c.2581241-1.1723636 1.6898124-1.824 2.5572294-2.6123636h.2821357c-.1380664 1.2509091-.3091487 2.5018181-.3361617 3.7847272l-1.6297835 1.3061819c-1.6237807 1.3876363-.2491198 3.4792727-.393189 5.2218181.1170562.4654546.1950938 1.1461819.5402597 1.2567273.1920924-.6807273.8103896-1.1723636 1.2005772-1.7687273.7023377-.1687272 1.3176335-.7098181 1.9629437-.7912727-.3571717 1.3585455-.8374026 2.6938182-1.4046753 4-.2671284.1716364-.5852814.4072727-.8554113.6807273-.285137.2996363-.5132467.6429091-.5672727 1.0123636 1.2606061 6.4523637 3.2475613 12.8203637 5.5256566 18.8916364-1.5487446 2.528-2.4221645 5.5127273-3.7097836 8.128-.183088.3665454-.3481674.736-.5042424 1.1170909-1.2906205 3.168-1.6838095 6.7025454-3.2895815 9.7483636-.6453103-.4392727-1.3446465-.7650909-2.0739971-1.0647272-3.0404618-.9774546-6.5491487-.352-8.7642136 1.9054545-1.9689466-.3549091-3.99191919-.0290909-5.54066378.9774545-1.10453102.8087273-1.96294372 1.7803635-2.45217893 2.9178185-.33015873.788363-.48923521 1.646545-.43520924 2.586182-1.26660894.843636-1.94193362 2.149818-2.35913419 3.456-.59128428 2.944.47422799 6.001454 2.21506493 8.261818h125.02810941z" fill="#fff"/><path d="m184.339625 58.0596364c-.588283-1.6669091-1.245599-3.2727273-1.968947-4.8145455-3.955902-7.9243636-9.334488-16.4712727-17.630476-21.4865454-4.673247-2.8247273-8.968312-7.1941819-11.60658-11.709091-1.43469-1.2567272-2.812352-2.914909-4.664242-3.2145454.507243.8174545 1.065512 1.6058182 1.209581 2.5570909l-.114055.1367273c-1.962944.0552727-3.511688-.9512728-4.859336-2.1818182l1.491717-1.3032727c-.564271-.2705455-1.209581-.384-1.827879-.5149091-5.675728-.6254546-10.336969 1.9025454-15.361385 3.1301818l-.08404.2705454c3.085483 1.3323637 3.730793 4.6254546 5.531659 6.8625455.450217-.5207273 1.209582-.1396364 1.824877-.1949091.897432.0552727 1.740837.6807273 2.608254.4625455.030015-.7330909-.387186-1.3032728-.531255-1.9549091.531255-.2501818 1.182569-.0290909 1.770851 0 1.626783.9221818 4.241039-.1687273 5.252526 1.9549091-1.854892.1134545-3.595729.4887272-5.336566.8989091.111053.6807272.813391 1.2276363.759365 1.9083636-1.491717-.6050909-3.061472-.9774546-4.72127-1.1723636l-.078037.2414545c2.107013 2.3970909 4.994401 3.8138182 7.944819 4.6603636 4.241039.9512728 7.974834-1.0065454 12.071804-.3258181 10.063838 4.4654545 18.653968 14.6792727 22.393766 24.3723636.183088.4654545.357172.9367273.525253 1.4109091 3.130505 8.8523636 3.721789 19.7410909.588283 28.9687273-1.668803 3.8458181-3.505686 7.4647272-6.450101 10.592-1.113536 1.3236363-2.347129 2.5076365-3.685772 3.5141815-4.217028 3.182546-9.415527 4.581818-14.770101 3.153455-.333161-.212364-1.014488-.270546-.903435-.840727.189091-.756364.363175-1.530182.516249-2.312728.891428-4.4305452 1.296623-9.0850906 1.06251-13.7338179-.012005-.2007273-.015007-.4014546-.024011-.5992727-.294142-6.7549091-1.68381-12.832-4.247042-18.6734546-1.638788-3.3541818-3.592727-7.0109091-6.050909-10.2952727-2.93241-3.9156364-6.576162-7.2989091-11.25241-8.9861818-2.866378-.736-6.408081-.8698182-8.566118 1.4458182-1.548745 1.3061818-2.191054 3.074909-1.968947 5.0065454-2.416162 1.4894546-5.132467 2.2923636-8.088889 2.5338182-.723348.0610909-1.467705.3141818-2.215065.3112727-.717345.032-1.416681 0-2.092005-.0843636-3.565715-.4247273-7.161443-2.2778182-9.895758-4.4101818-.057027-1.408-.144069-2.7490909-.198095-4.2414546-1.569755-.7912727-2.8603755-2.2923636-2.9744303-4.0581818l.1440692-.1367273c.8974315.2705455 1.6838096.7069091 2.4941991 1.1723637-.366176-2.1236364-.7833765-4.2210909-1.8789032-6.0712728-1.0114863-.4101818-2.0289755-.7330909-2.9804329-1.2276363-1.0955267-.7069091-1.7978644-1.9869091-1.9599423-3.1592728.9784704.9309091 2.6922944.6021819 3.4516594 1.5825455-1.3176334-3.7847273-1.3476479-8.1134545-3.5116883-11.5723636-1.0955267-2.56-3.9619047-3.7294546-5.9278499-5.6116364-.7593651-.896-1.0655123-2.1469091-2.4431746-2.2865455-1.1225397-.2705454-1.2095815-1.4981818-1.4046753-2.2836363.7023376.0785454 1.2906205.544 1.8849062.6516363-1.632785-4.194909-3.0644733-8.84654541-7.4735931-11.51418177l-.7593651.45963636c-1.7108225.25018182-3.5387013.35490909-5.2525252.41018182.759365-1.09090909 2.107013-1.55054546 3.1755267-2.04509091-1.239596-.896-2.2540837-1.11418182-3.8028283-1.36145455-.8974315.87563637-2.5182107 1.30618182-3.6707648 1.55054546l-.1380664-.10472727c-.0300144-.97745455-.264127-2.18181819 1.2546032-2.42327273-1.4587013-.68072727-3.8748629-.41018182-5.3665801 0-.4232035 1.06181818-1.6207792 2.01309091-1.5427417 3.264-.8644156.87563636-1.4827128 2.04218182-2.3861472 2.67054545-.0240115-2.09745454.8914286-4.032 1.2876191-5.79781818-1.2636075.45963637-2.5482252 1.11127273-3.7818182 1.68727273-1.9959596-1.11709091-4.0969697-2.23418182-6.2279943-3.07490909-.1980952-.08436364-.6212987-.16581818-.5372582.18618182 1.8248773 1.28 1.1195382 3.67418181 1.314632 5.50109091l-1.1525541-.92218182c-.5612699-1.39054546-2.1850505-2.39709091-2.4611833-3.92436364-1.9119192.35490909-3.1335065.84654546-4.9043579 1.58254546l-.2461183.13381818c1.3176335 0 2.4401732 1.00654545 3.0884849 2.01309091-1.9929582.11054545-3.7638096-.65454546-5.7267533-.84072728-.1980952-.192-.3631746-.41018181-.6783261-.38109091-.9844733.3549091-1.8218759 1.03563637-2.6952958 1.69018182-1.9359307 1.84727273-3.9048774 3.89527273-4.8293218 6.34181823.6483117.1105454 1.4617027.0843636 1.9389322.4654545-1.0625108.6254545-1.9929582 1.6872727-3.0344589 2.2865455-.3631746 1.4167272-.3091486 3.0225454-.393189 4.576-.8133911 1.1956363-1.9089178 2.2574545-2.4431746 3.5898181-1.740837 5.472-2.1910534 11.5432728-1.9359308 17.7512728-.5642713.5149091-1.2966233.8494545-1.8248773 1.2538181l.0570274 5.5534546h.1380664c.2581241-1.1723636 1.6898124-1.824 2.5572294-2.6123636h.2821357c-.1380664 1.250909-.3091487 2.5018181-.3361617 3.7847272l-1.6297835 1.3061818c-1.6237807 1.3876364-.2491198 3.4792728-.393189 5.2218182.1170562.4654546.1950938 1.1461818.5402597 1.2567273.1920924-.6807273.8103896-1.1723636 1.2005772-1.7687273.7023377-.1687272 1.3176335-.7098182 1.9629437-.7912727-.3571717 1.3585455-.8374026 2.6938182-1.4046753 4-.2671284.1716364-.5852814.4072727-.8554113.6807273-.285137.2996363-.5132467.6429091-.5672727 1.0123636 1.2606061 6.4523636 3.2475613 12.8203636 5.5256566 18.8916364-1.5487446 2.528-2.4221645 5.5127272-3.7097836 8.128-.183088.3665454-.3481674.736-.5042424 1.1170909-1.2906205 3.168-1.6838095 6.7025454-3.2895815 9.7483636-.6453103-.4392727-1.3446465-.7650909-2.0739971-1.0647273-3.0404618-.9774545-6.5491487-.352-8.7642136 1.9054546-1.9689466-.3549091-3.99191919-.0290909-5.54066378.9774545-1.10453102.8087273-1.96294372 1.7803634-2.45217893 2.9178184-.33015873.788363-.48923521 1.646545-.43520924 2.586182-1.26660894.843636-1.94193362 2.149818-2.35913419 3.456-.59128428 2.944.47422799 6.001454 2.21506493 8.261818h49.63486291c-.7293506-.840727-1.4046753-2.013091-1.9149206-3.019637-1.0625109-1.556363-.3331602-3.758545-.447215-5.556363 1.0114863-1.978182 2.0379798-3.968 3.1935353-5.902546.2341126-.389818.4682251-.770909.7083406-1.149091l2.2780952-.8436359c1.2065801 0 2.2210678-.8436364 3.3706205-.5469091 1.5457431 1.501091 1.5457431-1.4952727 3.0374603-1.632 3.4816739-.4363636 6.9363348-.1105455 8.8992785 2.749091 0 .381091.6243002.381091.4802309.736-.4502165.130909-.8734199-.139636-1.3476479-.139636-2.134026-.51491-4.6372295-1.8269095-6.741241-.654546-.081039.488727-.1890909.986182-.29114 1.474909-.1050505.520727-.2010967 1.029818-.2461183 1.518546 1.3746609.381091 2.527215 1.335272 3.5657143 2.368.7023377-1.332364 2.1910534-1.931637 3.5116883-2.368 1.1525541.244363 2.4161616.273454 3.3736219.980363 1.7708514 1.582546.8974315 4.276364.7323521 6.289455 1.5967677.869818 3.3676191 1.364363 4.9944012 2.205091-.7593651.660363-1.7648485.928-2.6922944 1.256727l-2.6952958-.520727c-.3091486-.215273-.8464069-.215273-.9574603-.596364-.8974315.922182-1.9929582 2.149818-2.554228 3.345455h38.4784997c-.507244-1.117091-1.095527-1.986909-1.797865-3.019637-.789379-1.634909-.474228-3.869091-.56127-5.611636l3.595729-5.309091c1.962944-.026182 4.187013-.736 6.318038-.381091.108052-.046545.210101-.098909.309148-.16.885426-.593454 1.155556-1.9723635 2.473189-1.8007272 2.356133-.6225454 4.156999.4130912 5.92785 1.4458182-.060029.136727-.117056.256-.180086.354909-.741357 1.149091-2.128023-.133818-3.13951.212364-.423203.436363.198095.951272.279134 1.445818.366176.485818-.366176.430545-.615295.514909-.588283.081455-1.233593-.055273-1.686811-.514909-.111054-.139636-.027013-.299636-.24912-.325818-.510245.811636-1.239596 1.550545-1.43469 2.475636.642309.602182 1.512727 1.198546 1.824877 1.963636.645311.89891-.507243 1.576728-.72935 2.368-.084041.16-.342165.16-.423204 0-.594285-.325818-1.095526-1.146181-1.743838-.930909-.564271 2.426182.195094 4.849455-.141068 7.272728 1.095527.250181 2.386147-.055273 3.565714 0l.480231-5.12c.501241-3.319273 2.530217-6.097455 4.916364-8.634182 2.578239-1.707637 4.241039 1.666909 6.146955 2.836363.31215.055273.201097.381091.336162.570182-.027013.546909-.615296.762182-1.008485.928-1.182569.404364-2.052987-.846545-2.782338-1.582545-.699336.736-1.011486 1.713454-1.824877 2.289454l.279134.078546c.933449.901818 1.824878 1.853091 2.028976 3.051636-.114055 1.085091-.675325 2.146909-1.689813 2.696727-.753362-1.256727-1.374661-2.644363-1.875902-3.924363.027013.058182-.033016.081454-.087041.139636-1.548745.404364-1.959943 2.091637-2.218067 3.456.084041 1.335273-.954459 1.879273-.678326 3.211637h20.031631c2.218066-.325819 4.5772-.273455 6.34505-1.856 7.503608 1.12 15.112266-.677819 21.010101-4.677819 3.112497-2.437818 5.909841-5.253818 8.169928-8.328727 1.992958-2.7112726 3.568716-5.2450908 4.586205-8.2792726.756364-1.8763637 1.356652-3.8225455 1.80987-5.8269091 2.137027-9.4254546 1.014488-19.9767273-2.149033-28.9570909z" fill="#f60"/><path d="m55.4396537 108.590545c1.0955267-.680727 2.866378-.846545 3.1154978-2.423272-.4442135-.328728-.840404-.738909-1.3476479-.846546l-1.1525541.325818c.0840404-.654545.4502164-1.387636.6813276-2.094545l3.7037806-1.169455c-.5102453 1.632-.7023376 3.674182-.8734199 5.553455.3361616 2.778182.7593651 5.745455 2.2210678 8.058182h-3.9919192c-.447215-2.557091-3.2055411-4.413091-2.3561327-7.403637zm8.6261472-3.269818h.2221067l2.6922944 2.370909.3931891-.081454c-.2191054 2.778182-.3631746 5.501091-.3931891 8.384h-2.9174026c-.5942857-2.693818-1.5757576-5.527273-1.4617027-8.436364.5042424-.736.840404-1.664 1.4647042-2.237091zm6.0058874 2.618182c.5372583-.677818.7593651-1.826909 1.8248774-1.957818.759365.020364 1.4617027.130909 2.0289754.651636.9814719 1.195637.0210101 2.725818-.3361616 3.921455-.3961905 1.824-1.0745166 3.726545-1.6898124 5.442909h-2.8363636zm42.6114867-.846545c.618297.765091.813391 1.797818 1.740837 2.478545.816392-1.088 1.011486-2.778182.618297-4.165818l-.813391-.791273c1.0415-.241454 2.134026-.325818 3.175526-.514909-.450216 1.442909-1.299624 2.749091-1.152554 4.436364.027013 2.452363.447215 4.904727.672324 7.458909h-3.088485c-1.12254-2.397091-2.248081-4.680727-2.164041-7.458909.336162-.491637.56127-1.064728 1.011487-1.442909z" fill="#f60"/><g fill="#fff"><path d="m125.970563 54.784c-.030015.7069091-.56127 1.4923636-.087042 2.0974545.681327-.736 1.800866-.7098181 2.701299-1.0356363 2.500202-.2210909 4.886349.544 7.215469 1.0909091-.588283-.9018182-.981472-1.9083637-1.629784-2.7229091-1.293622-.3287273-3.259567.544-3.481674-1.312-.786378-.6516364-2.019971-.1861818-2.836363-.1338182-.78938.544-1.431689 1.2247273-1.881905 2.016zm-85.8502744-23.5112727c-.0120058-.0058182-.0240115-.0174546-.0420202-.0290909 0 .0116363.0060029.0174545.0060029.0290909zm10.2139105 24.2036363 1.686811-1.5767272c.1440693 0 .2551227.0261818.3361616.1309091l-.1380664 3.0225454c.8133911.736 1.8188745.9774546 2.8873882 1.0356364.0870419-.8145455.7323521-1.3905455 1.0985281-2.0974546.3091487-.5701818.1140549-1.4138182.7293507-1.8181818l.1980952.1861818c.1920924.9018182.1380664 1.9083637.6182973 2.6938182.0570274.4363636.1350649.9774546.1890909 1.3614546 1.239596.0552727 2.3651371-.2705455 3.3165945-.7098182-.0570274-1.0327273.3121501-1.8763637.474228-2.8247273.2581241-.3287273-.3091486-.9309091.393189-.9018182.3961905.8174546 1.0955267 1.6581818 1.4917172 2.5338182 1.6267821-1.6058182 2.3081097-3.7003636 2.6922944-5.8821818-.474228-.6225455-1.2035787-.6225455-1.7708514-1.0327273-4.7722944-1.4952727-10.8922366-1.7949091-15.4994516.5178182-.3091487 1.8443636.0840404 3.8865454 1.2966233 5.3614545zm-44.64346317 51.0894544c-.17108225 2.097455 0 4.064.13806638 6.135273.45021645.680727 1.26961039 1.472 2.08300144 1.521454l.13806638-1.390545c.33616162-1.931636-.72935065-3.982545.39619048-5.617455.78637806.241455 1.57275609.625455 2.24808079.977455.3361616-1.794909-.1440692-3.895273-1.91492062-4.986182zm6.93933627-2.944c-1.0955267 3.188364-1.9089178 7.112727-.5882829 10.469818.7593651-.494545 1.5427417-.957091 2.215065-1.634909-.1380664-2.562909-.5042425-5.291636 1.0685137-7.421091 1.3746609.410182 2.3051082 1.690182 2.8333622 2.938182.9334487-1.140363 1.2395959-2.722909.8764213-4.241454.0570274-1.201455-1.3476479-.925091-2.0229726-1.416728.2221068-1.009454.1920924-2.173091 1.2906205-2.7490905l-3.367619.3258181c-.8704185 1.2014544-1.8248774 2.3650914-2.3051082 3.7294544zm6.9393362 9.408c.1410678.241455 0 .680727.2851371.736.4172005-2.289454 2.3261183-3.770182 3.3706204-5.789091.501241-.672.4772295-1.632 1.2906205-2.146909 1.0925253 0 1.8819048.762182 2.9504185.843637.3361616.247272-.1740837.465454-.2010967.736-.2221068 1.856-.9514574 3.386181-.813391 5.294545h.1950938c1.4887157-1.527273 2.500202-3.170909 3.5957287-4.913455l.1920923-1.547636c.2581241-1.853091-1.8188744-3.048727-3.1755267-3.813818l1.2095816-1.501091-1.686811-.570182c-1.9659452.189091-3.7367965.980364-5.1114574 2.481455-1.7108225 3.042909-1.9899567 6.487272-2.1010101 10.190545zm7.5576334-16.1570907c.6423088.1861818 1.2335931-.3258182 1.8759019-.0581818 2.5872439.928 5.2825397 1.8792727 7.2214719 3.9738185l2.3051082 5.693091 1.1525541-3.517091-.7593651-1.899637c-.6483116-1.3614543-2.4161616-1.2509088-3.6257431-1.3061815-.5042424-.5469091.027013-1.1723637.1980952-1.6872728.5882829-1.9345454-1.8548917-1.8269091-2.8363636-2.6152727.0570274-1.1665455-1.4046753-.7650909-2.2210678-.8698182l-.2791342-.3258182c-.1680808-.2501818-.5882828-.2501818-.8163925-.0581818-.0510245-.0814545-.1650794-.1367273-.108052-.2705454l-.6152958.1338181c-.8764213.736-1.4647042 1.6872728-1.4917172 2.8072728zm1.6237807-6.2632728c.0870419.349091.3091486.704.5882828.925091 1.266609-.3258182 2.479192-1.1752728 3.9348918-.6545455 1.8849062 1.6058182 3.8478499 3.2930909 6.1259452 4.1629091l.8163925-.1338182c.501241.16 1.0625108.1861818 1.3986724.736.3121501.736-.474228 1.1665455-.7233477 1.7658182 1.260606.9018182.759365 2.5047273 1.5427417 3.5927269l2.0199711-2.6094542c-.4712266-1.1461818.0300144-3.104-1.8188745-3.2145454-.6243001-.2996364-1.0415007-.896-1.0174891-1.5767273-1.2035787-1.0618182-2.6922944-1.5243636-3.8988745-2.6152727-.9904762-.7592728-1.5757576-1.9287273-2.8363636-2.2021819-.87342-.4654545-1.8278788-.7098181-2.8363637-.9221818-1.8879076-.2792727-2.0559884 1.8996364-3.2955844 2.7461818zm2.7012987-5.3643636.3361616.5236364c1.4046754-.0843637 2.6652814-.6807273 4.0429438-.6574546.9244444.544 2.1340259.5149091 3.0884848.9803637.7593651 1.0094545 1.5757576 2.1469091 2.6922944 2.8276363 2.2780952.3258182 3.5387013 2.7025455 4.3250793 4.4392728v-.8407273c.3361617-1.1723637-.0300144-2.5367273-.4712265-3.5985455-.5642713-.544-1.3836652-.896-1.9689466-1.3818182-.1140549-.354909-.0300145-.5236363.0840404-.8465454-.8734199-.8989091-2.1640404-1.3905455-3.2325541-2.1003636-1.4887158-2.0974546-4.3490909-1.5185455-6.6271862-2.0974546zm-.0480231-19.9709091c.2491198.8465455.5522655 1.9054546.7233478 2.8072727.7833766-1.6872727 2.3351226-2.4523636 3.7097835-3.8370909-.7893795-.5178181-1.7708513-.7650909-2.6382684-.9250909v-.0552727c-.6212987.5934545-1.5757575 1.1956364-1.7948629 2.0101818zm5.1024531 8.96 1.2606061-1.2509091c1.2666089-1.2567272 2.3111111-2.7025454 2.500202-4.3054545-.8974315-.5149091-2.0769985-.16-2.9444156.1396363-.3091486 1.7629091-.7893795 3.5054546-.8163925 5.4167273zm.9244445 3.84c1.9389321.1047273 3.8238384.4858182 5.3965945-.576l1.5757576-4.8989091c-.5102453-.0290909-1.0174892-.2501818-1.4917172-.0814545-1.0384993 2.2283636-3.1154978 4.4363636-5.4806349 5.5563636zm.5702741-17.3701818c1.2636075 1.7949091 3.373622 3.8050909 5.5316595 4.3810909-.2491198-2.2894545-2.2720924-3.8690909-3.3135931-5.824l-.0570274-.6545454c-.8133911-.7621819-1.7978644-1.2829091-2.6412698-1.6872728-.135065 1.3061818.2311111 2.5541818.4802308 3.7847273zm6.8462915 17.5854545c1.4887158.2443637 3.0914863 0 4.4661472-.4101818 1.9929582-.4654545 3.0914863-2.5861818 3.7638095-4.2443636h-2.500202l-2.6922944 2.5570909c-1.0655122.5410909-2.0769985 1.3585455-3.0374603 2.0974545zm-.3031457-20.064c.4232034 2.1265455 1.3536508 4.0581819 2.6172583 5.8821819l.3331602-4.0581819zm9.2084271 10.589091c.1710823-1.3614546-.4172006-2.944-.5822799-4.3258182-.8434055-.5469091-2.0199712-.4945455-2.8933911-1.0327273.0570274 2.144 1.7918615 3.9709091 3.475671 5.3585455zm-2.554228 13.8298181c1.7678499-.544 3.4816739-1.1432727 5.1144589-2.0130909 1.0384993-1.4458182 2.608254-2.7490909 2.8363636-4.4363636-1.2996248.352-2.4161616-.0581818-3.6257431.5178182-.7293507 1.2770909-1.1825686 2.7258182-2.5842424 3.648-.2251083.9192727-1.2636075 1.5476363-1.740837 2.2836363zm2.7493218 3.3483637 2.107013 2.6676363c1.1255411.352 2.5302164.2472728 3.5116883-.3781818l-.7533622-2.4203636c-1.4917172.5381818-3.2625685.3810909-4.8653391.1309091zm3.5116883-19.2727273.8133911 3.5898182c1.9659451-1.5476364 2.3711399-3.808 2.3141125-6.2021818-1.1225397 1.2509091-1.7738528 2.0130909-3.1275036 2.6123636zm5.5376624 6.3389091c.0270129.5207273.1650793 1.0094545.4712265 1.4167273 2.1910534.7650909 2.4161616 3.3454545 4.4421357 4.3258181 1.314632.576 2.8363636-.1338181 3.9829148-.6545454-.867417-.9512727-1.8488889-1.6058182-2.6922944-2.6094546-.5882828-.2443636-1.1855699-.5992727-1.1525541-1.3061818zm1.7408369 12.8552727c.9514574 1.056 2.2420779 1.6058182 3.5897258 1.8996364-.2221068-.2967273.1440693 0 .1980953-.1861818l-1.686811-3.5956364c-.8434055.0290909-1.7168254.1949091-2.500202.1396364.0630303.5992727.1980952 1.1956363.3991919 1.7425454zm2.9774315-16.7709091c-.7893796-1.7687272-1.1135354-3.9243636-1.3446465-5.8792727-.8374026.9803636-1.7108225 1.6087273-2.500202 2.6094545-.3661761 2.013091 2.6082539 2.5047273 3.8448485 3.2698182zm3.421645-1.856c1.0174892 1.2858182 3.2325541.8494546 4.4691486.4654546-.5912843-.9803637-2.4941991-1.5563637-2.8303607-2.6094546-.1920924-1.8792727-.5882829-3.7090909-1.2095816-5.4167272-.9814718 2.3098181-2.1700433 5.0618181-.4292063 7.5607272zm1.7708513 5.7716364c2.8093507 1.9869091 5.5646754 4.3025454 9.4905628 3.456.2821357-.1861818.7623665-.1658182.8163925-.5149091-1.1525541-.7069091-2.3861472-1.2567273-3.5657143-1.9083636l-1.3446464-1.9025455h-.6182973c-1.5187302.4858182-3.1455123.6836364-4.7782973.8698182zm.0570275 22.08h.2010966c1.6838096-1.3061818 3.6767677-1.7454546 5.6697259-2.2865455.5372583.192.1980952.7650909.6783261.9803637 1.2065801-.4858182 2.6682828-.3810909 3.9018759-.7883637 1.4887157.0523637 2.6982973.0785455 3.9048773.704.9604618 1.2276364 2.7523233 1.088 3.9919192 1.9083637l-.2010966-1.9083637c-2.608254-2.9672727-6.6812122-3.1825454-10.4450217-3.1272727l-.0840404-.3810909c-.8974315 0-1.9089177.1861818-2.7523232.5701818-1.2035787.0552727-2.3591342.6254546-3.5116883.9774546-.5372583 1.0356363-.9604618 2.2952727-1.3536508 3.3512727zm2.2570851-33.4574546c1.0925253 1.3905455 2.7223088 2.4552728 4.5772006 2.1003637-.9514575-.9047273-2.052987-1.856-2.107013-3.1330909.2821356-2.4232728-2.4701876-2.6181818-3.8178355-3.8690909.4502164 1.6349091.3901876 3.4589091 1.3476479 4.9018181zm-.2881385 38.2749091h.3361616c1.4857143-.896 3.6497547-.2123636 5.1114574-1.1665454.8133911-.4101818.8704185.6807273 1.4316883.9803636 1.3776624.8116362 1.5487446 3.2640002 3.4846754 2.6938182 2.3261183 1.169455 1.7408369 3.918545 1.8248773 5.931636l2.1640404-1.303272c-.1980952-1.061819.4232035-2.341819-.2821356-3.266909-.5342569-1.169455-1.9959596-1.277091-2.6982973-2.228364.8464069-1.390546-1.0655123-2.0480001-1.4617027-3.0545455l.1170562-.1338182 2.9774315.3810909c1.0114863.5963636 1.3776623 1.6872728 1.686811 2.6967268 2.3261183.381091 2.8873881 2.938182 3.7037806 4.570182.4802309-1.114182.6753247-2.315636 1.1525541-3.403636.0300145-.898909-1.20658-.898909-1.8248773-1.306182-.1650794-1.3905454-.8133911-2.6938181-2.0769986-3.5345454-2.5842424-.6341818-4.8563347-2.016-7.6926984-2.016l-2.3591342.704c-1.2966233.3025455-2.6712842-.0785454-3.6557575.7883637-1.4647042.1105454-1.5727562 1.664-1.9389322 2.6676363zm1.4857143-11.2145454.5372583.2472727c1.1525541-.5178182 2.3021067-1.1170909 3.5116883-1.5534545 1.8759018-.5149091 3.3376046 1.5534545 4.9163636.2443636.5852814-.4043636 1.0955267.192 1.5397403.5207273.684329 1.1956363 2.2510822 1.1141818 3.4336508 1.4370909-.5912843-1.5476364-1.3236364-3.6712727-3.373622-3.9185455-.813391-.352-1.7708513-.3229091-2.554228-.7883636-2.1640404-2.3127273-3.5657143 1.9083636-5.9338528.8756364-.8374026.8930909-1.8789033 1.7425454-2.0769985 2.9352727z"/><path d="m76.9569986 102.001455c.8974314.736 1.8248773 1.989818 3.2325541 1.824 1.7378355.788363 1.0084848 3.022545 1.9599422 4.194909l1.0114863-.872728-.0840404-.058181.1410679-.133819.0600288.075637c.2791342-.811637-.1140548-2.254546-.5942857-3.211637-.6423088-.433454-1.3986724.029091-2.0199711-.381091-.0840404-.875636-.6453103-1.306181-1.2906205-1.847272-.4502165-.331637-1.0415007.104727-1.5487446.075636zm3.5116883-33.1869095c.9244444 1.4952727 2.7223088 2.4232727 4.1569985 3.456 1.1825686.5178181 2.7223088.6545454 3.9889178.3781818-1.2095816-.9512728-2.3081097-2.0421818-3.3135931-3.1825455-.3961905-.5469091-.4802309-1.2305454-1.0114863-1.7163636-1.3206349.2472727-2.8123521.2181818-3.8208369 1.0647273zm1.5487446-9.7425455c1.2906204 1.5505455 3.28658.9250909 5.1114574.9803636v-.192l-2.8093507-2.2865454c-.786378.2414545-1.6267821.9221818-2.3021067 1.4981818zm-51.7088601-25.6756364 1.6267821 4.9018182c-.0300144-2.7781818 1.2966234-5.0967273 1.0144878-7.9243636l1.2035786-1.7454546-2.5572294.7650909c-.6723233 1.2509091-1.2335931 2.5047273-1.2876191 4.0029091zm1.0955267-8.4945454 2.2180664-1.2509091v-3.1883636c-.9334488.544-1.4346898 1.474909-2.1640404 2.2021818z"/><path d="m76.9630014 29.856c-.5342568.6778182-1.3476479.8465455-2.0229725.9774545 1.1825685-2.0916363 1.7438383-5.0065454.8163925-7.3774545.6152958-.2152727 1.2906204-.3258182 1.8789033-.6516364l-.0570274-.0581818 1.5457431-1.3061818c2.0499856-1.3614545 1.2606061-3.9447273 2.0199711-5.8792727-1.0084848-1.5214546-1.3176334-3.3745455-2.7793362-4.6545455l.0840404-.0552727c-1.1525541-1.41672728-3.2295526-1.2509091-4.8023088-1.95781819-2.0830014-.68072727-3.6827705.70690909-5.1744877 1.63199999-.6453103.1105455-.2491198.9250909-.9514574.896-.3931891 1.0065455-.87342 2.0974546-1.1555556 3.2145455-2.7793362-.3810909-5.7837807-.0814546-8.001847 1.4429091-1.18557-.8465455-2.6112554-1.0065455-3.9889178-1.3876364-1.0114863-.1949091-2.1610389.16-2.8903896-.384-1.0655123-1.1665455-1.2966234-3.2930909-3.1245022-3.5898182-.6453102-.2210909-.7803751-.90181817-.7803751-1.5010909-1.2095816-.19490909-2.2810967-.736-3.4546609-.98036364-1.7978644-.79127272-3.2295527.46545455-4.5772006 1.30618182-.5942857.24145455-1.266609.32581818-1.8278788.65163632-1.0084848 1.5272728-1.9599423 3.0778182-2.6142569 4.765091.2010967 1.3876363.8163925 2.6094545 1.5487446 3.7847272.6453103 1.7687273 2.6682829 3.1592728 4.3791054 3.8690909-.8133911 2.6938182-.8133911 5.9025455 0 8.6254546 0 0-.0450217.0378182-.0450217.0290909 0 .0087273-.0900433.0814545-.0900433.0814545-.2641269 0-.5582684.0494546-.7773737-.0814545h-.0360173c.4021933 2.6007273 1.6627994 4.8814545 3.7037806 6.8334545.7323521.2443637.5612699 1.0909091.8674171 1.632.1980952.2472728.2281096.7621819.1440692.9803637-4.3851082-.1338182-8.2899855.928-11.8016738 2.8596363-.8974315.4363637-.5042425 1.632-.5882829 2.4785455 2.4731891-1.5825455 5.1384704-2.7490909 8.0888889-3.2698182 1.2636075-.0756364 2.6922944-.3810909 3.9048774-.0552727l.1380663 2.3476363c-3.3376046 1.6901819-6.9933622 2.6676364-9.8537373 5.4458182.0540259.8407273-.1140549 1.8181818.1380663 2.528l2.5602309-2.0130909c2.4701876-1.8269091 5.05443-3.3774545 7.8877922-4.384.7623666.8698182 1.5487446 1.8007273 2.5602309 2.3418182 1.7108225-1.0647273 3.5687157-1.8530909 5.5346609-2.3418182 1.0384993-.5992727 2.6982973-.0552727 3.3706205-1.2509091l.474228-2.4785454c-.0780375-.0552728-.1380664-.1658182-.2791342-.1396364-1.3176335-.736-2.1910534-2.0130909-2.0769986-3.5083636-.4502164.2152727-.9514574.3549091-1.4887157.3752727-.4442136-.1047273-.8704185-.2152727-1.0655123-.6545455-.0270129-.5410909-.31215-1.3585454.2551227-1.762909 1.8218759-1.0909091 4.1840115-1.1461819 6.4861183-.9832728 1.7108225.2210909 4.1840116.1367273 4.7782973 2.0974546-.0840404.5730909-.0300144 1.2014545-.6212987 1.5796363-.6182973.3258182-1.3176335-.0290909-1.8819048-.2763636-.447215 1.3381818-1.2065801 2.8334545-2.7493218 3.2698182l.1920924 1.5767273c.1920923.7098181.2521212 1.8792727 1.4046753 1.632 2.6682828.6312727 5.0304185 1.9636363 7.3595382 3.4036363.7893796-.7592727 1.4046754-1.632 1.9629438-2.4232727 4.1630014 1.3672727 7.7527272 4.3869091 11.186378 7.1941818l.135065-2.2894545c-3.2595671-2.8072728-6.8793074-4.7912728-10.6461184-6.3418182.1440693-.736.3121501-1.4458182.3421645-2.2370909 4.4631458.2472727 8.7041848 1.5825454 12.3809524 3.6741818l-.0570274-1.9578182c-3.8748629-2.016-8.1159019-3.3483636-12.7471284-3.4007273-.1740837-.2443636-.2281097-.5992727-.1980953-.8436363 2.2480809-.352 3.8448485-2.6094546 4.3821068-4.576 1.1555556-1.2770909 2.8123521-2.6676364 2.4191631-4.5701818.0480231-.16.1050505-.3258182.1650794-.4916364.1470707-.4683636.2731313-.9687273.1110533-1.4109091z"/><path d="m80.8648773 36.8552727 2.3021068-.7098182.2581241-1.248c.6453103-1.826909-.7323521-3.1883636-1.4076767-4.6312727zm5.8137951 8.6254546c1.0955267 1.1723636 2.1640404 3.0487272 4.1029726 2.4785454-.1440692-.7912727-.5942857-1.4458182-.8704184-2.1527272-.5042425-.5701819-.6783262-2.205091-1.686811-1.632-.7593651-.4887273-.9514574-1.3061819-1.4346898-1.9607273-.2191053 1.0094545-.0810389 2.2603636-.1110534 3.2669091zm.3931891 7.9767272c.4232034.5701819.5402597 1.309091.9544588 1.8269091.7593651.4858182 1.8849063.4043637 2.8153536.3258182.8374026-.192 1.3746609.704 2.1580375.1890909-.9814719-.5992727-1.5697547-1.6872727-2.4941991-2.4814545-1.0985282-.8378182-2.2780953-.1018182-3.4336508.1396363zm1.4917171 12.6632728c1.9389322 1.1141818 4.4001155 2.2050909 6.9873594 1.824.2791342-.1338182.759365-.1076364.813391-.4334546-1.6027706-.5469091-3.2835786-2.0974545-4.9643867-2.4232727-.9274459-1.3876364-2.1370274.3549091-3.3165945.2443636.027013.3229091.3631746.5672728.4802308.7883637zm5.8318038 24.0378182.4232035.8698181c.4262049 2.8334546 2.2720923 5.4429091 1.2636075 8.5469091.8434054.5760003 1.0955267 1.5272723 1.632785 2.2894543h.1380663c.6453103-2.3650906.1980953-4.8174543-.1380663-7.1883634.2521212-2.1498181-1.9989611-3.4007272-3.319596-4.5178181zm.4862338-27.8778182c1.4587013 1.0909091 3.7908225 1.1956363 5.4746318.6545454-1.0655121-.5701818-2.2450792-1.2014545-3.1184991-1.9607272zm6.9333328 8.3549091c-.138066 1.1461818.645311 2.0974545 1.488716 2.6734545.309149-.6778182.81039-1.2567273.867417-2.016-.252121-1.1694545-.927446-2.2341818-2.022972-3.0254545-.192093.7621818-.420202 1.4981818-.333161 2.368zm.084041 12.4189091c-.201097 1.2770909 1.260606 1.442909 1.875902 2.1498181.507244.5992728-.336162 1.0094546-.336162 1.5796364 1.068514 1.3323636 1.689813 2.8509091 1.689813 4.6254545.4172-1.6581818 1.06251-3.2378181 1.29062-4.9512727-.114055-1.2014545-2.076998-.9512727-1.770851-2.2865454.564271-1.3614546-.111054-2.6938182-.47723-3.9243637-.108052-.1861818-.366176-.5701818-.585281-.4567272-.510245 1.1112727-1.770852 1.9025454-1.686811 3.264zm3.84785-6.4814546 1.458701 2.7490909c.64531-.0814545 1.065512-.6807273 1.569755-1.1170909.393189-1.1432727-.648312-1.8792727-.951458-2.8072727-.255122-.6545455 0-1.5214546-.48023-2.0916364-.366177-.2210909-.783377-.576-1.203579-.4654545zm1.875902-7.2436364c1.155555.6807273 2.473189 1.6581819 3.094487 2.8596364.981472 2.7781818 2.554228 5.2770909 3.703781 7.9738182.423204 1.8792727.759365 3.5578182 1.290621 5.4050909.201096.4916364.087041 1.4429091.876421 1.3614545.219105-2.0683636.642309-4.0581818.672323-6.208-.702337-.898909-1.626782-1.2770909-2.500202-1.8210909v-.192c.114055-.4596363.510245-1.0094545 1.095527-.9221818.24912-.2734545 1.011486-.544.675325-1.0356363-1.461703-1.4138182-1.377663-3.8487273-3.703781-4.288-.816393-.3258182-1.011486-1.1461819-1.095527-1.9025455-1.098528-.9047273-2.72531-1.2014545-4.108975-1.2305455zm1.356652 14.7578182c1.428687 1.2770909.927446 3.1301818.813391 4.8465455-.222107 1.0356363 1.12254.4305454 1.545743.9803636.87342 1.2509091.366176 3.0778182.060029 4.4363637.759365-1.12 1.626782-2.0974546 2.215065-3.325091-.024012-.4596363.591284-.6807272.564271-1.2538181.24912-.7883637-.702337-.4334546-1.098528-.5149091-.336162-.0814546-.699336-.2996364-.585281-.736.723347-1.3614546.054026-2.9934546-.22811-4.3549091-.336162-1.1170909.144069-2.6152727-.39619-3.5956364-.900433 1.2043637-3.571718 1.4749091-2.89039 3.5170909zm2.608254-19.328c2.503203 2.4523637 4.328081 4.9134546 7.023377 7.2843637.057027-1.0647273-.084041-2.0421819-.138067-3.0778182-.393189-.736-1.125541-1.2770909-1.74684-1.8269091-1.992958-.1861818-3.031457-2.7898182-5.13847-2.3796364zm6.540144 12.9716364c.060029.2501818.174084.4654545.288139.7069091 1.092525 1.7454545 2.134026 3.5432727 2.893391 5.4196363-.22811-2.016 1.176565-4.5178181-.681328-6.0712727-.24912-.6574545-1.086522-.4363636-1.626782-.384zm6.744243 19.8865454c.786378.3549091 1.797864-.2705454 2.557229-.706909.702338-.1629091 1.290621.2210909 1.827879.5730909.222107.4334545 0 .8436363.08404 1.2538181 1.68381.4596364 3.337605 1.0618182 4.826321 2.0130905l.474228-.462545c.114054-1.1694545-.837403-2.016-1.740837-2.6705455-.585282-.3258181-1.461703-.1338181-1.878904-.6516363.282136-.4363637.282136-1.0909091.252122-1.5796364-.927446 0-1.518731-.2763636-2.272093-.7069091-.480231-.1367272-.903434-.5207272-1.296623 0-1.401674.9221818-1.485714 2.2865455-2.833362 2.9381818zm1.971948-34.2574545c.699336-.1949091 1.431688-.384 2.019971-.8756364 1.884906-1.6610909 4.607215-.544 6.80127-.5701818-.423204-.736-1.01749-1.472-1.548745-2.0974545-.789379-.2996364-1.51873-.6516364-2.416162-.6516364-1.911919-1.0909091-3.199538.736-4.664242 1.632-.39619.736-.588283 1.824-.192092 2.5629091zm.048023 5.6058182c0-.0843637 0-.1687273.08404-.1890909.258124.2152727-.027013.7389091.396191.8436363.72935-.3549091 1.404675-.8436363 2.076998-1.3061818 1.881905 0 3.007446-1.7716363 4.856335-1.7716363 3.094488.546909 6.15596 1.1490909 8.848254 2.6123636-.192092-1.7629091-1.770851-3.3745455-3.367619-4.1629091-.903434-.2996364-1.605772.1629091-2.248081.6545455-1.878903 1.1461818-.897431-1.661091-2.215065-1.7163637-1.716825.5149091-3.487677 1.0909091-5.396594.9221818-1.12254.4130909-1.91192 1.4167273-3.175527 1.3061819-.051025.9047272-.189091 1.9956363.141068 2.8072727zm1.296623 6.0683636c.588283.6050909 1.569755.4945455 2.416162.6050909l2.443174-.9309091c.027013-.4276363-.72935-.544-.561269-1.0327272.675324-.736 1.596767-.2152728 2.443174-.5149091 1.176566-.1658182 2.386147-1.3032728 3.565714-.4654546-.036017.1396364.051025.3258182-.060028.4654546-.363175.8436363.252121 1.3614545.927445 1.6872727 1.377663.2443636 2.665282 1.472 4.042944.9221818-.138066-1.1170909-.444213-2.144-.726349-3.2116363-1.152554-.189091-1.968947-1.1141819-3.034459-1.4981819-.474228.4363637-1.098528.7621819-1.686811.7069091-2.16404-.4916363-4.751284-1.7978182-6.939336-.4625454-.786378.928-2.191053.6545454-3.259567 1.0618182.06303.9250909.174083 1.826909.429206 2.6676363zm.927446 16.1861818c-.168081.4625455-.64531 1.2218182.22811 1.4429091 1.794863.0523637 4.099971-.8465454 5.504646.5149091.47723.3549091.24912 1.0909091.219106 1.5534546l2.359134 1.9054545c.225108-1.1490909.651313-2.1818182.681327-3.4065454-.198095-.8727273-.648311-1.7134546-1.434689-2.2836364-1.548745 0-2.443175-1.7541818-4.105975-1.5389091-.867417-.1861818-1.626782.5614545-2.500202.5614545-.387186.3781819-.615295.8436364-.951457 1.2509091zm.672323-12.8378181c.363175.736.78938 1.9345454 1.488716 2.0130909 1.656797-.7010909 4.07596-1.1403637 5.92785-.3752728.615296.1047273.615296.7854546.480231 1.2218182.951457.544 2.104011.9803637 3.115498 1.5767273l-.282136-1.6349091c-.057027-1.7687273-2.356133-1.9287273-2.500202-3.6741818-1.881905-.5963637-3.988918-.7912727-5.981876-.3258182-.64531.5701818-1.575757.4945455-2.356133.6545455-.057027.2181818.078038.3578181.108052.544zm.47723 8.8232727c1.095526-.3025455 1.800866-1.4690909 2.980433-1.5796364 1.794863.0290909 3.397633.7389091 4.523174 2.24.672323.4276364.531256 1.5447273 1.404676 1.5447273-.258125-1.3323636.192092-2.5541818.135064-3.9214546-1.173564-1.9025454-4.096969-.4305454-5.192496-2.6676363l-2.076998.1367273c-1.491718.3578181-1.095527 2.0450909-1.290621 3.1912727-.171082.3490909-.507244.6225454-.483232 1.056zm10.312958 11.9098182c.867417 1.6872726 2.782338 2.9672726 2.97443 4.8989086.447215-.514909.759365-1.114181 1.065512-1.687272-.030014-.544-.675325-.544-.924444-.980364-.258124-.706909.135065-1.332364.249119-1.9607272-.366176-1.0065454-1.239595-1.9578182-2.218066-2.56zm3.454661-4.3025455 2.019971 2.6705455c.867417-1.3323637.867417-3.296.531255-4.9018182-.192092-.3025455-.56127-.7912727-1.062511-.5701818-.759365.7592727-.873419 1.9316363-1.488715 2.8014545zm-8.232958-74.5192727c.72935.3549091 1.431688.6807273 2.308109.736.585282-.2996364 1.347648-.5207273 2.076999-.3258182 1.038499.6545455 2.302107-.1367273 3.511688-.0814545-1.068514-.9803637-2.281097-1.5825455-3.511688-2.1527273-1.575758.3229091-2.836364 1.4138182-4.385108 1.824zm10.98228 2.5541818c1.488715.1367273 2.56023 1.4167273 3.565714 2.4785455 1.263607.1861818 2.218066 1.0618181 2.97443 1.9578181l-.471227-1.44c-.336161-1.4458181-1.26961-2.5629091-2.221068-3.7061818-1.347647.0843637-2.671284.1978182-3.847849.7098182z"/></g><path d="m41.9631746 10.9090909.8163925.0843636c2.1850505 1.0618182 5.7237518 1.6058182 5.9278499 4.6807273-2.2240692.8465455-4.3580952 1.9869091-6.1289466 3.7294546-1.3446464-1.3323637-4.0699567-.5992728-4.5231746-2.9381819.4262049-2.210909 1.2365945-4.9890909 3.9078788-5.5563636zm2.1100144 13.8065455c2.5572295-.2210909 5.0274171.1309091 7.6686869-.0843637.6423088.2705455 1.314632.8116364 1.6267821 1.44-.0870418 2.9410909-1.0114863 5.7483637-1.1495527 8.768-1.1525541.4596364-2.2780952 1.3905455-2.5602308 2.6123637-1.0384993.2996363-1.9689467.896-2.9804329 1.3585454-.4412122-.9221818-.3631746-2.3127273.4262049-3.0778182 1.0955267-1.4952727 3.9348917-1.1461818 3.7097835-3.5141818.7293507-1.1403636.0300144-2.6123636.0510245-3.808-.2791342-.9018182-.5612698.2996364-1.0084848.2705455-.8974315.1861818-1.8218759.2414545-2.6112554-.1949091-.5912843-.5992727-1.314632-1.0909091-1.4887157-1.9025455-.7893796-.3810909-1.7108226-.9774545-2.107013-1.7687272zm3.0884849 17.7425454c1.2005772.1687273 2.4701876-.3549091 3.5086869.2210909-.2191054.384-.8133911.544-1.2906205.6545455l-1.8849062.8407273c-.6993363-.16-.3061472-1.2509091-.3331602-1.7163637zm4.9133622-22.7287273c1.2035786-.3810909 2.500202-1.1665454 3.7908225-.7912727-.9244445.9018182-1.6537951 2.0683637-2.3561328 3.1592727l-3.8478499-.0814545c.4232035-.9832727 1.4887157-1.7949091 2.4131602-2.2865455zm11.2644156-.896c1.5997691-.2705454 1.5127272 1.7425455 2.97443 1.8181819.2581241.3258181.6243001.6254545.4802309 1.1170909-.846407.3258182-2.08.1687272-3.0344589.3810909-1.266609-.6807273-.447215-2.8043637-2.4431746-2.6676364-.1110534-.1658182-.3331602-.4916363-.0570274-.5992727.6182972-.2152727 1.4376912-.1338182 2.08-.0494546zm-1.0114863 7.2901819c.7023376-.9541819 1.7708513-1.0327273 2.7823376-1.2218182l7.2754979.1309091c.3091486.2763636-.2821357.5207272-.2821357.8465454-.447215.4101818-1.0955267.5207273-1.4887157.8989091-.9544589.0261818-.8704185 1.1170909-1.5427417 1.5825455-1.0415007 1.0065454-2.5602309.5410909-3.766811.3810909-.420202-.3025455-.8974314-.7098182-1.0985281-1.1723637l-.3361616.3258182c.4232034 1.5272728.31215 3.2145455.6243001 4.7650909l1.740837 1.1170909c.0270129 2.5018182 3.0614718 1.821091 4.3791053 3.2116364-.3091486.9018182-.9274459 1.6610909-1.5997691 2.4232727-1.0655123-1.0065454-2.2780953-1.6581818-3.5657143-2.0974545-.1140548-1.4632727-1.7708514-2.3389091-2.6922944-3.072-.2581241-2.6705455-.3121501-5.3934546-.7593651-7.9796364zm2.6412698 16.8h3.3736219l-.4232034 1.7134545-3.3766234-1.3876364c-.0780375-.2705454.2281097-.352.4262049-.3258181zm6.0659163-30.8421819 2.500202-.7621818c1.4346898.6516364 2.7793363 1.4661818 4.0999712 2.3941818 1.0384993 1.8501819.8734199 4.3549091.393189 6.4232728-.7593651.8145454-2.4161616 0-3.0314574 1.3061818h-.1170563c-.9244444-2.5570909-3.5657143-4.8494546-6.0088889-6.0130909.393189-1.3090909.8163925-2.5890909 2.1640404-3.3483637z" fill="#f60"/></g><path d="m261.914697 24.2424242h-3.532436l-.164158 1.2350456c-.240157 1.843259-.951509 4.930873-3.009563 4.930873-.586713 0-2.048934-.2823848-3.696594-1.051961-7.156071-3.1651922-16.427955-5.1139576-24.234578-5.1139576-15.19069 0-28.970838 5.554602-38.814236 15.6459795-9.040847 9.2721513-13.986865 21.8925794-13.917677 35.530834.06457 13.0641756 5.095707 23.8103134 15.395099 32.8683483 10.375391 9.061139 22.000206 12.924535 38.893275 12.924535 14.071985 0 22.127884-2.063581 34.49141-8.837713l2.164453-1.197808v-24.375083c0-10.3892779 1.246384-12.0060084 9.527241-12.3473526l1.346703-.0527533v-3.6213522h-40.455815v3.6213522l1.346703.0527533c9.223245.3661692 10.965143 2.0542717 10.965143 10.6437345v22.5876801c-6.842954 4.608148-11.816332 6.358313-18.087774 6.358313-9.281004 0-17.540582-3.661693-23.881942-10.128615-7.426628-7.5871521-11.050263-18.6373966-11.050263-31.1243901 0-13.4520668 3.508117-24.9274401 10.737146-32.3004761 5.754649-5.8742243 13.397113-9.1356135 22.115725-9.1356135 7.788383 0 16.83531 3.4103394 23.039872 8.4343063 5.046338 4.2171531 7.663745 8.2977685 9.63972 15.0408691l.300957 1.0209297h3.453396zm-116.125471 64.3739175s-.793632-3.9718633-.908302-6.1953311v-29.0569753c-.178039-16.9442467 1.979556-25.3792045-11.853193-25.3145688v-3.8070423h31.820754v3.8070423c-14.246162-.0614039-12.453699 8.3735539-12.535174 25.3145688v67.8480857l-4.529441-.051708-68.7141185-77.0134274s.7725095 3.9653997.8871789 6.1920993v47.5815647c-.3892724 17.3579154 1.6174418 19.4553434 12.0583909 19.2517404v3.9654h-33.1726454v-3.9654c10.4560372.012928 12.5110332-1.476925 12.4989627-20.6672621v1.1472836-46.8931946l-.0844932-7.4427999c.3892724-9.6339499-2.9331221-15.2217055-13.0753272-15.1312155v-3.8102741h30.5412847zm-142.60385629-60.4052685c3.85445742 0 6.54041238.8254531 8.20832959 2.5119671 1.8664025 1.8872123 2.7019618 5.0045116 2.7019618 10.1061354v63.7217413c0 8.817781-1.827986 12.750823-12.61662511 12.750823h-1.47903599v3.910381h48.4848485v-3.890959l-1.4630291-.019422c-10.6861951-.129483-12.4885701-4.039865-12.4885701-12.750823v-63.7249784c0-5.0854384.8323579-8.1897894 2.6987605-10.0737647 1.6839241-1.7124105 4.4178997-2.5443378 8.3523915-2.5443378h2.8972458v-3.9654119h-48.4816471v3.9654119h3.18536971z" fill="#091c5a"/></g></svg>