<?xml version="1.0" encoding="UTF-8" standalone="no"?>
<svg
   version="1.0"
   width="512pt"
   height="512pt"
   viewBox="0 0 512 512"
   preserveAspectRatio="xMidYMid"
   id="svg9161"
   sodipodi:docname="ing-icon-black-512x512.svg"
   inkscape:version="1.2.1 (9c6d41e4, 2022-07-14)"
   xmlns:inkscape="http://www.inkscape.org/namespaces/inkscape"
   xmlns:sodipodi="http://sodipodi.sourceforge.net/DTD/sodipodi-0.dtd"
   xmlns="http://www.w3.org/2000/svg"
   xmlns:svg="http://www.w3.org/2000/svg">
  <defs
     id="defs9165" />
  <sodipodi:namedview
     id="namedview9163"
     pagecolor="#ffffff"
     bordercolor="#666666"
     borderopacity="1.0"
     inkscape:showpageshadow="2"
     inkscape:pageopacity="0.0"
     inkscape:pagecheckerboard="true"
     inkscape:deskcolor="#d1d1d1"
     inkscape:document-units="pt"
     showgrid="false"
     inkscape:zoom="1.2432572"
     inkscape:cx="428.3104"
     inkscape:cy="344.65917"
     inkscape:window-width="1608"
     inkscape:window-height="1263"
     inkscape:window-x="2811"
     inkscape:window-y="220"
     inkscape:window-maximized="0"
     inkscape:current-layer="svg9161" />
  <metadata
     id="metadata9137">
Created by potrace 1.11, written by Peter Selinger 2001-2013
</metadata>
  <path
     id="rect10587"
     style="fill:#ff6200;stroke:#000000;stroke-width:0;fill-opacity:1"
     d="M 409.09277 38.184082 C 408.24225 38.167122 408.0087 38.838921 407.40527 41.033203 C 400.89558 66.56001 398.48214 71.752821 391.46045 75.263672 C 389.99759 75.995098 387.51071 76.800691 386.04785 77.093262 L 383.26904 77.604492 L 383.26904 69.486328 C 383.26904 61.513773 383.34236 61.221189 386.63379 53.321777 C 388.46236 48.860072 389.85186 44.471363 389.70557 43.520508 L 389.48584 41.76416 L 379.61133 44.324707 C 374.19876 45.71442 368.27388 47.616139 366.44531 48.640137 C 364.61674 49.664135 360.44805 51.857657 357.0835 53.466797 C 351.01264 56.538791 351.0121 56.538845 346.98926 55.661133 C 344.72184 55.149133 338.87155 52.808828 333.82471 50.468262 C 328.851 48.127695 324.68095 46.372957 324.53467 46.665527 C 324.31524 46.958098 322.77897 51.418783 321.09668 56.685059 C 319.34125 61.87819 317.36756 67.87642 316.56299 69.997559 L 315.17285 73.801758 L 306.61523 67.803223 C 295.20498 59.903811 285.18405 52.004547 279.40576 46.372559 L 274.65088 41.76416 L 266.23975 43.520508 C 257.09691 45.422218 250.36767 47.543547 242.46826 51.200684 C 239.68883 52.444108 234.56953 54.637632 231.13184 56.027344 C 225.57298 58.294767 224.03665 59.31931 216.86865 66.121582 C 206.62867 75.703276 198.94821 84.699418 193.90137 92.745117 C 184.46597 107.88566 182.85714 110.7384 183.36914 111.17725 C 184.17371 111.90868 202.82492 119.22217 203.70264 119.22217 C 204.58035 119.14902 207.79821 114.90699 214.16162 105.39844 L 218.77002 98.523926 L 228.79102 92.671875 C 240.78641 85.723317 256.14653 75.775661 262.29053 70.948242 L 266.6792 67.510254 L 268.43408 69.339844 C 274.72436 75.776402 323.94943 104.59424 328.77686 104.59424 C 330.45913 104.59424 338.21313 89.526294 340.18799 82.650879 C 341.35827 78.335459 341.79624 77.970731 343.84424 79.067871 C 344.7951 79.579871 349.25694 80.895924 353.64551 81.919922 L 361.69189 83.821289 L 362.56934 94.426758 C 363.66647 108.25074 364.17769 110.73819 366.29883 111.03076 C 367.17654 111.17704 369.8103 110.37312 372.15088 109.34912 C 377.56343 106.78912 382.46374 105.25284 396.72656 101.5957 C 410.33111 98.157998 411.13626 97.718162 424.08252 85.795898 C 429.05622 81.187908 434.83434 76.653782 436.88232 75.556641 C 440.2469 73.874358 441.19768 73.727548 446.53711 74.093262 C 454.36338 74.60526 464.67669 77.531358 473.6001 81.919922 C 482.30408 86.089057 488.0095 87.843849 493.20264 87.916992 C 498.03005 87.990135 500.95533 86.74754 506.87988 82.066406 L 511.63477 78.335449 L 511.85449 207.14063 C 511.92768 278.0159 511.85435 336.09102 511.78125 336.2373 C 511.63496 336.38359 509.22132 335.57966 506.44189 334.55566 C 491.22822 328.70425 475.35585 324.97312 463.06787 324.2417 C 456.7776 323.87598 455.31432 323.58376 454.14404 322.34033 C 453.41261 321.46262 452.75391 320.36503 452.75391 319.85303 C 452.75391 319.34103 455.24089 317.07417 458.23975 314.87988 C 461.23859 312.68561 464.52971 309.75983 465.55371 308.37012 C 468.69886 304.20097 473.74593 294.98514 475.42822 290.15771 C 477.76879 283.35545 479.08594 281.01432 483.40137 275.74805 C 488.00935 270.11605 490.27711 265.6549 492.25195 257.82861 C 494.95823 247.3692 494.1528 246.71135 485.15625 251.68506 L 479.74365 254.68359 L 480.25635 252.5625 C 480.54892 251.46535 481.20626 249.27036 481.71826 247.73438 C 482.3034 246.19838 483.03576 242.24846 483.47461 238.95703 C 483.91347 235.66561 485.22961 228.86325 486.3999 223.81641 C 487.64333 218.76956 489.03282 211.45653 489.47168 207.50684 C 490.27625 201.43598 490.56917 200.33886 491.88574 199.97314 C 494.08003 199.31488 500.37096 195.29106 503.15039 192.8042 C 506.29554 189.95163 509.07422 184.10079 509.07422 180.29736 C 509.07422 178.68822 509.58634 173.78748 510.24463 169.39893 C 511.04924 163.91321 511.3415 158.06183 511.12207 151.11328 C 510.90265 141.75102 510.68306 140.36044 508.85449 136.48389 C 505.34365 128.95018 493.71369 114.39608 487.13086 109.42236 C 482.596 105.98467 475.20912 103.20477 469.21143 102.61963 C 462.62857 102.03449 446.97622 104.81324 441.34424 107.51953 C 432.42083 111.9081 425.18013 122.4415 423.35156 133.99805 C 422.32756 140.36151 422.32658 140.43457 415.08545 140.43457 C 401.4809 140.43457 383.19498 145.77409 373.979 152.35693 L 370.90723 154.55127 L 367.03125 152.86816 C 353.71927 147.0899 343.5518 144.7492 329.94727 144.16406 L 318.75732 143.72607 L 317.07422 139.19092 C 312.75879 127.19551 304.78578 120.02801 286.57324 111.54346 C 279.40526 108.25203 273.77385 107.0075 263.31445 106.42236 C 253.44018 105.83721 251.6114 106.27591 242.68799 111.68848 C 233.17944 117.32046 230.61982 120.39252 226.81641 130.04736 C 217.52729 154.18446 218.18539 160.98796 232.08252 182.63818 C 234.86194 186.95361 235.81228 187.83012 239.25 189.29297 C 247.58826 192.87697 253.6588 196.16887 254.09766 197.19287 C 254.31708 197.77802 254.02498 200.63046 253.3667 203.55615 C 251.61127 212.0407 251.24592 223.96335 252.5625 230.76563 C 253.14764 233.9839 253.87823 238.73797 254.09766 241.37109 C 254.39023 244.00423 255.19592 248.90496 256.00049 252.26953 C 256.80506 255.63411 257.31718 258.55976 257.1709 258.70605 C 257.02461 258.92547 254.68285 258.12166 251.97656 257.09766 C 247.95373 255.48852 246.7115 255.26896 245.32178 255.92725 C 244.37093 256.3661 243.56543 257.31691 243.56543 258.04834 C 243.56543 260.38891 245.68769 266.67936 248.68652 273.26221 C 251.17338 278.52848 252.85427 280.94188 259.51025 288.10986 C 268.36053 297.54527 274.57789 305.44407 276.91846 310.27148 C 278.82017 314.00177 280.21014 319.63477 279.25928 319.63477 C 275.82156 319.63477 250.36772 322.92639 244.6626 324.09668 C 235.88547 325.92525 222.06155 330.97125 208.09131 337.48096 C 199.09476 341.72323 197.85175 342.52816 197.63232 344.21045 C 197.19346 347.28245 199.02239 356.27844 200.04639 356.71729 C 200.63154 356.86358 203.92284 355.76735 207.50684 354.1582 C 231.57078 343.33308 252.48968 337.48133 270.04395 336.67676 L 278.52832 336.2373 L 279.77197 338.72461 C 280.5034 340.04118 281.08754 342.74692 281.16064 344.79492 L 281.23389 348.45264 L 274.65088 351.30469 C 260.46118 357.52182 230.91154 372.51588 219.7207 379.17188 L 208.01807 386.19434 L 208.96875 391.82666 C 209.99275 398.26322 210.94358 400.82227 212.18701 400.82227 C 212.69901 400.82227 216.86917 398.62865 221.55029 395.92236 C 240.64054 384.95096 279.1859 366.51843 285.54932 365.34814 C 287.01216 365.05561 289.93794 365.05547 292.05908 365.2749 C 295.27736 365.71376 296.15607 366.15307 297.10693 367.76221 C 297.76521 368.85936 299.59349 371.12633 301.20264 372.80859 C 305.22547 377.19716 307.1275 377.05075 317.58691 371.63818 C 326.21776 367.10334 343.55164 361.10561 354.59619 358.69189 C 361.83731 357.15591 363.88576 355.32839 364.61719 349.76953 C 364.90976 347.86782 365.34865 345.52742 365.71436 344.50342 C 366.29949 342.89427 366.73797 338.2851 366.51855 336.09082 C 366.4454 335.65196 364.47036 333.89703 362.05664 332.1416 C 359.56979 330.31303 356.64518 327.31361 355.32861 325.26563 C 353.28063 322.12048 352.91416 320.73162 352.62158 316.19678 L 352.40186 310.85742 L 348.59912 312.97852 C 340.84599 317.36707 337.33472 316.56282 335.35986 309.97998 C 333.97011 305.15257 333.97026 301.86057 335.43311 298.78857 C 336.67652 296.15545 338.57793 295.05884 345.96533 292.71826 C 355.8396 289.64626 358.54655 289.28027 372.29736 289.28027 C 384.73163 289.28027 386.41393 289.42631 392.77734 291.25488 C 406.89389 295.27773 407.62562 295.57009 409.16162 298.64209 C 412.52619 305.66378 409.67261 315.24609 404.11377 315.24609 C 402.72406 315.24609 400.23707 314.73396 398.62793 314.07568 C 394.97079 312.61284 393.5083 313.12428 393.5083 315.83057 C 393.5083 321.60883 389.77863 327.38684 383.1958 331.77539 C 377.41753 335.57882 377.19761 336.2375 379.61133 343.91748 C 380.4159 346.40434 381.07471 349.55003 381.07471 350.79346 C 381.07471 354.23116 382.46462 355.25433 388.75488 356.64404 C 403.89544 359.86233 407.55194 361.47272 422.76563 371.56641 C 427.66618 374.78468 432.42023 377.63702 433.37109 377.85645 C 435.93109 378.51471 438.93077 376.02805 443.68506 369.37207 L 447.78076 363.6665 L 452.68066 365.71436 C 476.23262 375.80805 505.56321 390.07089 510.0249 393.72803 L 511.99951 395.33643 L 511.99951 365.42139 C 511.99951 373.24766 511.85429 379.61133 511.70801 379.61133 C 511.56172 379.61133 509.14808 378.36842 506.36865 376.75928 C 496.42124 371.20042 476.45268 360.74052 474.69727 360.22852 C 473.67327 359.93595 469.72335 358.32623 465.91992 356.5708 C 462.11651 354.88851 458.38678 353.28045 457.72852 353.06104 C 456.55823 352.62218 456.41162 351.52511 456.41162 344.50342 C 456.41162 338.03942 456.52394 336.6713 457.33594 336.67529 C 457.45194 336.67586 457.58223 336.70429 457.72852 336.75 C 458.38678 336.96943 465.70119 338.65082 473.96631 340.40625 C 492.03256 344.4291 502.12502 347.20937 510.75586 350.72021 C 511.853 351.15907 511.99951 352.62141 511.99951 365.42139 L 511.99951 73.21582 L 510.39111 72.338379 C 509.44025 71.826379 506.87982 70.216761 504.68555 68.753906 C 494.29929 61.805348 474.47724 50.907678 462.40869 45.495117 L 454.29053 41.837402 L 446.39063 48.493652 C 433.44436 59.245632 428.98233 61.731987 425.69092 59.976563 C 424.08177 59.098848 424.08165 58.952789 424.52051 49.371094 L 425.0332 39.716309 L 418.59668 39.27832 C 415.08582 39.058894 411.28269 38.618842 410.18555 38.399414 C 409.7284 38.271414 409.37628 38.189736 409.09277 38.184082 z M 511.99951 395.33643 L 511.85303 431.90918 L 511.63477 468.48047 L 507.68408 462.99463 C 504.24639 458.09406 499.63914 449.53662 498.54199 445.95264 C 498.02999 444.3435 493.86038 442.51465 490.64209 442.51465 C 489.32552 442.51465 486.91187 442.00262 485.30273 441.41748 C 483.6936 440.83234 481.64517 440.39341 480.69434 440.32031 C 479.15834 440.32031 479.01329 440.53999 479.45215 442.66113 C 479.74472 443.9777 481.27943 449.09689 482.81543 453.92432 C 486.61886 465.77342 488.96017 468.55309 497.37158 471.33252 C 500.58986 472.35652 505.19712 473.45401 507.61084 473.74658 L 511.99951 474.18457 L 511.99951 395.33643 z M 466.76074 123.00732 C 469.22931 123.00732 471.88176 123.42888 475.06348 124.27002 C 482.45088 126.24488 483.83983 126.90242 487.42383 130.19385 C 492.10495 134.50925 493.34898 138.60621 493.27588 149.21191 C 493.20273 167.57075 489.98462 174.44586 480.47607 177.00586 L 477.6958 177.81006 L 472.06348 171.88623 C 463.14007 162.59711 453.70564 156.23362 444.78223 153.52734 L 441.63721 152.57666 L 441.92871 148.11475 C 442.22128 145.33532 443.02619 142.26215 444.34277 139.70215 C 449.02391 130.48617 452.90066 126.53745 459.55664 124.27002 C 462.00692 123.42888 464.29217 123.00732 466.76074 123.00732 z M 189.52588 124.57031 C 182.15489 124.73331 178.90675 127.21329 175.32275 134.50928 C 173.12848 138.97098 172.9831 139.84865 172.76367 148.47949 C 172.54424 155.94004 172.83617 159.89018 174.44531 169.25244 C 175.46931 175.61587 176.20136 181.24728 175.98193 181.75928 C 175.54308 182.92957 163.03584 192.29322 158.8667 194.63379 C 156.01408 196.16979 155.72051 196.60815 155.93994 198.58301 C 156.15937 199.75329 157.0384 207.35958 157.98926 215.40527 C 158.86698 223.45099 159.74444 230.47344 159.96387 231.05859 C 160.11015 231.71687 161.50015 230.40023 163.40186 227.76709 C 165.52299 224.84137 170.56845 220.08694 178.54102 213.65039 C 185.12386 208.31098 191.19543 203.11843 192 202.24072 C 192.80457 201.28986 195.21813 199.82694 197.26611 198.94922 C 199.46039 197.99836 202.31302 196.02321 203.77588 194.41406 C 207.21359 190.53751 207.06803 189.22017 201.07031 175.54248 L 196.38867 164.93701 L 196.38867 155.42871 C 196.46181 148.84587 196.97328 142.77472 198.14355 135.82617 C 199.09441 130.34047 199.67988 125.58662 199.46045 125.36719 C 199.24102 125.14776 196.31525 124.78105 192.95068 124.63477 C 191.7164 124.57077 190.57888 124.54703 189.52588 124.57031 z M 270.21094 125.90479 C 274.20449 125.87836 278.24436 127.34188 284.59863 130.6333 C 291.10834 134.07102 293.30356 135.6067 294.98584 137.94727 C 297.39956 141.45811 299.73877 148.04155 299.37305 150.23584 C 299.15363 151.11355 297.10637 153.08871 294.54639 154.771 C 285.91555 160.47612 275.01678 169.76526 270.48193 175.25098 C 267.92195 178.24981 265.14275 180.88214 264.19189 181.10156 C 260.82734 181.97928 248.6858 169.17936 243.8584 159.59766 C 241.07897 154.03881 240.56695 146.35838 242.76123 142.04297 C 245.97952 135.67956 251.90466 131.36485 262.5835 127.48828 C 265.43605 126.47342 267.8148 125.92064 270.21094 125.90479 z M 388.30811 167.54736 C 390.66524 167.57165 395.00822 168.27476 401.4082 169.69189 C 406.89391 170.86217 412.74535 172.03165 414.35449 172.32422 C 419.62078 173.20194 429.49557 177.15239 431.98242 179.34668 C 436.22471 183.1501 435.12677 185.63693 427.08105 190.09863 C 423.05821 192.36605 422.83833 192.36621 412.74463 192.36621 L 402.50537 192.36621 L 402.06592 187.68457 C 401.62707 183.07657 400.53014 180.15039 398.99414 179.78467 C 398.62843 179.63839 396.0682 178.24889 393.43506 176.71289 C 388.97334 174.07975 386.19434 170.86164 386.19434 168.22852 C 386.19434 167.76223 386.89382 167.53279 388.30811 167.54736 z M 349.21143 169.90283 C 349.48114 169.89884 349.7424 169.90101 349.98926 169.91016 L 353.64551 170.05664 L 353.49902 173.12842 C 353.42588 174.81071 352.91376 177.07913 352.32861 178.17627 C 350.35378 181.9797 339.74928 194.55968 338.14014 194.99854 C 337.26242 195.21795 333.23905 195.07265 329.14307 194.63379 C 325.12021 194.19494 320.07299 193.82813 318.09814 193.82813 C 314.95301 193.82813 314.44092 193.60856 314.80664 192.65771 C 315.02607 191.99944 315.24609 191.19521 315.24609 190.75635 C 315.24609 190.39064 317.43971 187.75842 320.146 184.979 C 325.19283 179.71273 333.31145 174.15319 338.28516 172.61719 C 339.89429 172.10519 342.38128 171.22782 343.771 170.71582 C 344.98698 170.26782 347.32343 169.9308 349.21143 169.90283 z M 309.46729 211.45605 C 326.72896 211.38291 331.63012 211.60217 333.60498 212.40674 C 336.5307 213.65017 340.48029 217.6731 341.06543 220.01367 C 341.28486 220.89139 340.62615 227.6204 339.67529 235.00781 C 337.77357 249.34379 335.1412 272.60297 334.84863 277.94238 C 334.6292 281.01438 334.40909 281.38022 331.11768 283.42822 C 321.31656 289.42594 321.09671 289.71829 318.97559 295.13086 C 317.22016 299.6657 316.70842 300.39769 313.78271 302.00684 C 311.95416 302.95767 308.29759 305.0061 305.59131 306.61523 C 300.03245 309.90666 298.13081 309.97884 295.93652 306.97998 C 294.69309 305.2977 294.3999 303.83564 294.3999 300.03223 C 294.47304 290.30425 300.98303 282.4781 312.90527 277.50439 C 319.2687 274.87127 320.87737 273.33505 322.26709 268.72705 C 323.29109 265.14305 324.16871 242.02908 323.29102 241.15137 C 323.07159 240.93194 319.26835 241.07873 314.80664 241.51758 C 306.76094 242.32216 306.68846 242.32203 302.37305 240.34717 C 298.93534 238.73803 295.9366 236.25145 287.37891 227.62061 C 278.01664 218.25833 274.87053 214.23494 275.89453 213.21094 C 276.04081 212.99151 278.82117 212.62597 281.96631 212.26025 C 285.1846 211.89454 297.54502 211.52915 309.46729 211.45605 z M 414.04102 211.57031 C 417.518 211.56388 422.56418 211.6577 430.07959 211.82227 C 453.70469 212.26113 464.74914 212.91906 465.55371 213.72363 C 466.43143 214.60134 458.45916 221.98883 453.92432 224.54883 C 450.63289 226.3774 449.38913 227.62086 448.29199 229.96143 C 445.43944 236.39798 439.0029 239.90918 430.00635 239.90918 C 422.47265 239.90918 418.66964 238.7385 415.23193 235.30078 L 412.30664 232.37549 L 412.74463 237.78809 C 413.0372 240.78693 413.40411 246.34501 413.62354 250.14844 C 414.50123 265.21583 414.28137 264.48461 418.66992 266.45947 C 421.88821 267.99547 423.27773 269.23831 427.1543 274.65088 C 430.15314 278.82 432.56742 281.38117 434.03027 281.96631 C 436.88284 283.1366 454.14468 293.74124 455.68066 295.2041 C 456.55837 296.08182 456.55808 296.22803 455.46094 296.22803 C 454.72951 296.22803 454.07041 297.03381 453.77783 298.2041 C 453.11955 301.05667 449.24331 308.37065 447.56104 309.8335 C 446.24447 311.00377 446.02579 310.9301 442.73438 308.37012 C 440.83267 306.90726 435.19957 303.61615 430.07959 301.05615 L 420.9375 296.37451 L 418.01074 290.45068 C 414.79247 283.7947 413.40376 282.2584 406.89404 278.38184 C 402.57863 275.82184 402.28564 275.4561 402.28564 272.96924 C 402.28564 268.06867 400.09166 247.07692 398.18994 234.3501 C 397.0928 227.40153 396.50723 221.11112 396.7998 220.2334 C 397.3118 218.62426 401.92001 214.60122 405.57715 212.55322 C 406.81143 211.86751 408.24602 211.58103 414.04102 211.57031 z M 203.58105 223.88672 C 195.08507 223.78043 179.6566 226.68811 168.95947 230.91211 C 161.06006 234.05725 158.50046 236.10478 157.40332 240.27393 C 155.72103 246.56419 155.94096 262.51036 157.76953 271.21436 C 158.64725 275.31034 159.59805 279.04014 159.89063 279.479 C 160.18318 279.991 162.15748 278.60091 164.86377 275.96777 C 167.27748 273.55408 170.34973 270.99364 171.52002 270.26221 C 172.76345 269.53078 180.00469 264.04615 187.75781 258.12158 C 195.43779 252.19703 202.53205 246.93093 203.48291 246.41895 C 207.14005 244.59037 208.45752 242.68811 208.45752 239.54297 C 208.45752 237.86068 208.96954 234.86157 209.55469 232.88672 C 210.9444 228.13243 210.9441 226.52292 209.33496 225.06006 C 208.47553 224.29206 206.41305 223.92215 203.58105 223.88672 z M 205.82373 273.62695 C 204.79973 273.70009 180.73612 281.30805 175.90869 283.06348 C 173.42183 283.94119 164.9371 288.98763 156.37939 294.61963 L 141.31201 304.64063 L 141.23877 310.49121 C 141.16562 313.78264 141.60431 318.17144 142.18945 320.36572 C 142.7746 322.56001 143.57882 329.50895 144.09082 335.72607 C 144.52968 341.94322 145.11495 347.50128 145.26123 348.08643 C 145.48066 348.81786 146.06556 348.452 147.23584 346.91602 C 151.11241 341.64974 166.98521 323.80325 173.71436 317.00098 C 181.17491 309.46727 186.07545 305.81032 196.31543 299.88574 L 202.09424 296.59424 L 203.77588 289.64502 C 204.65359 285.8416 205.67754 280.64885 205.89697 278.08887 C 206.18958 275.60202 206.1163 273.55385 205.82373 273.62695 z M 421.04443 329.85059 C 425.56224 329.82316 432.24164 330.77733 436.36963 332.36133 C 442.1479 334.55562 441.85612 333.67804 440.17383 342.1626 C 439.51555 345.966 439.36861 346.03945 437.54004 345.60059 C 436.4429 345.38116 432.63966 343.84498 429.05566 342.23584 C 425.54482 340.6267 421.59489 339.16377 420.27832 338.94434 C 414.28062 337.92034 414.50021 338.14006 415.01221 334.84863 C 415.30478 333.16634 415.89034 331.3366 416.40234 330.75146 C 416.9052 330.14805 418.67797 329.86495 421.04443 329.85059 z M 311.61035 332.54297 C 315.66263 332.51465 320.7772 333.02451 322.56006 333.67822 C 324.38863 334.33651 324.38913 334.40911 322.92627 335.43311 C 319.5617 337.91995 303.39724 346.03818 302.51953 345.74561 C 301.56867 345.37989 298.42236 337.26147 298.42236 335.28662 C 298.42236 334.33576 303.76302 333.02002 309.0293 332.6543 C 309.7973 332.58573 310.67521 332.5495 311.61035 332.54297 z M 174.66504 342.67383 C 174.44561 342.4544 147.7491 356.71819 147.09082 357.37646 C 146.57882 357.88846 149.28458 400.23717 149.94287 403.0166 C 150.30858 404.47946 151.18596 408.42938 151.84424 411.79395 C 152.42938 415.15851 153.89221 420.27927 155.0625 423.13184 C 156.23278 425.91125 157.33048 429.12903 157.62305 430.29932 C 157.98876 432.05473 158.20774 432.20125 159.45117 431.54297 C 162.15745 430.08011 169.83748 419.54767 173.49463 412.2334 L 177.15234 404.99268 L 175.25098 395.77588 C 174.15383 390.72902 172.6909 383.77998 171.95947 380.34229 C 170.86232 375.14914 170.71505 372.66243 171.22705 365.34814 C 171.51962 360.52073 172.47045 353.49972 173.34814 349.69629 C 174.15271 345.966 174.73814 342.74693 174.66504 342.67383 z M 362.99854 374.03613 C 354.86597 374.03956 352.32842 374.38201 344.64844 375.58887 C 333.01875 377.49058 316.41634 384.07317 309.8335 389.4126 L 307.85889 390.94922 L 310.41797 398.77441 C 311.80768 403.01669 313.70919 407.99069 314.58691 409.74609 C 316.12291 412.74495 320.7309 417.5729 322.12061 417.646 C 322.48633 417.646 325.48552 415.01222 328.8501 411.79395 C 332.21465 408.57567 335.43253 405.94336 336.09082 405.94336 C 336.96853 405.94336 337.18799 407.18648 337.18799 413.25732 C 337.18799 421.08361 338.79732 430.8113 340.55273 433.51758 C 342.52759 436.58958 353.57197 437.83264 357.66797 435.41895 C 360.22797 433.95609 362.42318 430.07996 363.73975 424.95996 L 364.76367 421.08398 L 366.37207 423.71631 C 368.20064 426.71517 372.22363 430.5194 376.17334 432.93311 C 378.80649 434.54223 379.53902 434.61424 385.60986 434.24854 C 389.19386 434.02911 392.63157 433.44521 393.14355 433.00635 C 394.46012 431.90921 396.65318 421.81531 396.58008 416.69531 C 396.58008 414.42788 396.72687 412.52637 396.94629 412.52637 C 397.75087 412.52637 406.52862 419.91298 410.33203 423.78955 C 412.52631 426.05698 414.57315 427.88525 414.86572 427.88525 C 415.88972 427.88525 420.64458 420.06003 422.83887 414.64746 C 425.69142 407.77205 427.1543 400.16427 427.1543 392.41113 L 427.1543 386.26758 L 423.35156 384.14648 C 417.50015 380.85508 407.25924 377.49087 397.89697 375.80859 C 391.53356 374.71145 385.53623 374.27178 373.39453 374.12549 C 369.04255 374.07063 365.70938 374.03499 362.99854 374.03613 z M 185.19727 419.84033 C 184.3927 419.91347 176.49334 426.05645 172.32422 429.85986 C 170.20308 431.76157 166.69184 434.322 164.49756 435.56543 C 159.74327 438.19858 159.30543 439.80747 162.01172 445.07373 C 163.62086 448.07259 164.13264 450.77875 165.0835 460.06787 C 165.74178 466.28499 166.40059 471.55245 166.54688 471.69873 C 167.05886 472.35702 171.37385 467.60217 172.69043 464.82275 C 174.15328 461.75077 178.54101 457.06973 190.39014 445.51318 C 194.26669 441.78292 197.48584 438.3452 197.48584 437.97949 C 197.48584 436.22406 192.07354 427.00762 189.07471 423.64307 C 187.17299 421.52192 185.4167 419.84033 185.19727 419.84033 z M 232.95117 419.97656 C 231.64374 419.93085 230.69216 420.57161 229.44873 421.88818 C 224.10932 427.44704 223.52452 438.85756 227.54736 456.55811 C 229.22964 463.87238 228.71737 463.28757 240.27393 469.72412 C 253.80531 477.18467 256.00049 478.35448 256.00049 477.98877 C 256.00049 477.76934 254.82965 473.81941 253.43994 469.21143 C 248.17367 451.7303 247.07589 446.3179 247.58789 440.24707 C 248.46561 430.59223 246.27227 426.27715 238.59229 422.18115 C 235.92257 420.75487 234.2586 420.02228 232.95117 419.97656 z M 276.83643 436.02246 C 275.657 435.85789 274.90688 436.11423 274.65088 436.80908 C 274.50459 437.32108 273.99247 440.24676 273.48047 443.24561 C 273.04162 446.24445 272.16434 450.19437 271.65234 452.02295 L 270.62842 455.31445 L 274.21289 460.43408 C 278.74775 466.9438 280.21042 469.94258 282.69727 477.62256 C 283.7944 481.06027 285.69602 485.88765 286.93945 488.37451 L 289.20703 492.90967 L 292.35205 486.32666 C 297.91091 474.47753 298.78841 468.77243 296.521 459.41016 C 293.961 448.87761 288.76808 441.41689 281.6001 437.75977 C 279.62524 436.77234 278.01584 436.18703 276.83643 436.02246 z M 446.61035 453.48633 C 444.19664 453.48633 443.61167 468.91918 445.65967 478.06201 C 447.12252 484.42544 448.95098 488.74022 453.12012 495.9082 C 458.67896 505.41675 461.89701 507.46455 471.25928 507.61084 C 474.33126 507.61084 479.08594 506.07576 479.08594 505.05176 C 479.08594 504.83233 478.13513 502.93071 476.96484 500.80957 C 471.62543 491.30102 468.11426 478.57309 468.11426 468.77197 C 468.11426 463.21313 467.89431 462.04372 466.65088 460.80029 C 465.84631 459.99572 464.75028 459.33691 464.23828 459.33691 C 463.72628 459.33691 459.77635 458.02076 455.46094 456.41162 C 451.21865 454.80247 447.26864 453.48633 446.61035 453.48633 z M 426.42334 461.53125 C 424.88734 461.53125 413.84174 465.92054 411.64746 467.45654 C 407.91717 470.01654 405.13826 472.72211 404.47998 474.47754 C 404.11422 475.35526 404.11436 479.08526 404.55322 482.88867 C 404.91894 486.61896 405.57764 493.5679 405.94336 498.24902 C 406.30907 502.93016 406.96642 507.46545 407.40527 508.27002 C 407.84413 509.14774 409.6726 510.24396 411.64746 510.8291 C 414.86574 511.85315 414.0618 511.92627 398.1167 511.92627 C 388.75443 511.99941 381.07471 511.85435 381.07471 511.78125 C 381.07471 511.63496 382.90289 508.78116 385.09717 505.48975 C 389.99772 498.10233 390.87528 495.17655 390.36328 487.13086 C 389.99756 481.86457 388.09628 470.45419 387.43799 469.7959 C 387.29171 469.72276 383.04977 470.6018 378.00293 471.84521 C 367.98238 474.25892 363.08082 476.74491 362.20313 479.81689 C 361.25227 483.10832 361.764 495.39668 363.08057 499.49268 C 363.73886 501.68695 364.25098 505.41677 364.25098 507.75732 L 364.25098 511.99951 L 511.99951 511.99951 L 471.62549 511.85303 L 431.25 511.63477 L 429.20215 503.22217 C 427.37358 495.3959 427.2274 493.71465 427.1543 478.13525 C 427.1543 467.89527 426.86219 461.53125 426.42334 461.53125 z M 203.99561 469.43115 L 200.92383 469.94238 C 193.97528 471.11266 164.5708 481.42561 164.5708 482.74219 C 164.5708 483.03476 166.03364 486.03386 167.78906 489.39844 C 170.93421 495.24984 177.00586 509.80571 177.00586 511.26855 C 177.00586 511.78055 145.77367 511.99951 88.50293 511.99951 L 186.73389 511.99951 L 191.56055 506.80664 C 194.19368 503.95406 199.16776 498.61455 202.60547 494.88428 C 206.04319 491.22714 209.62775 487.35057 210.57861 486.25342 L 212.26025 484.27881 L 210.35889 481.86475 C 209.33489 480.47504 207.50661 477.11057 206.26318 474.4043 L 203.99561 469.43115 z M 320.95166 474.77051 C 319.65306 474.66057 318.90234 474.87965 318.90234 475.42822 C 318.90234 475.79393 318.09822 476.16064 317.07422 476.16064 C 315.97707 476.16064 314.80711 476.89163 314.07568 477.98877 C 312.90539 479.7442 312.97894 480.18254 314.36865 485.15625 C 315.17322 488.08196 316.12393 491.59319 316.4165 492.98291 C 317.07479 496.56691 319.70712 501.54103 323.36426 506.22217 C 325.04655 508.41646 326.7296 510.60997 327.16846 511.04883 C 327.68046 511.78026 313.6358 511.99951 257.31592 511.99951 L 347.64844 511.99951 L 346.771 508.12354 C 346.33214 506.07554 345.60007 500.37078 345.23438 495.47021 C 344.50295 485.66909 343.99028 483.84067 341.50342 481.57324 C 339.08971 479.37895 337.33527 478.57391 333.60498 477.98877 C 331.77641 477.6962 328.55842 476.81882 326.29102 476.0874 C 324.09673 475.3194 322.25026 474.88045 320.95166 474.77051 z " />
</svg>
