<svg height="270" viewBox="0 0 480 270" width="480" xmlns="http://www.w3.org/2000/svg" xmlns:xlink="http://www.w3.org/1999/xlink"><defs><path id="a" d="m0 0h480v270h-480z"/><mask id="b" fill="#fff"><use fill="#fff" fill-rule="evenodd" xlink:href="#a"/></mask></defs><g fill="none" fill-rule="evenodd"><use fill="#faf1f4" xlink:href="#a"/><g fill-rule="nonzero" mask="url(#b)"><g transform="translate(311 -50)"><path d="m69.2132 218.63c-38.16435 0-69.2132-30.887231-69.2132-68.856231 0-24.718384 13.429675-47.667154 35.048825-59.8890767l11.940075 20.8880767c-14.0847 7.964923-22.832775 22.909077-22.832775 39.001 0 24.715077 20.216 44.825846 45.057075 44.825846 18.151175 0 34.450325-10.75 41.52925-27.381077l22.247575 9.36077c-10.8661 25.545307-35.900025 42.050692-63.776825 42.050692" fill="#d40d47"/><path d="m132.875357 176.390036-22.230321-9.399643c2.344928-5.543464 3.534-11.439 3.534-17.517214 0-24.817715-20.1909646-45.008679-45.0120003-45.008679-7.7987143 0-15.4745357 2.02275-22.2004286 5.845714l-11.92725-20.9748211c10.3528929-5.8888929 22.15725-9.0010715 34.1276786-9.0010715 38.1266783 0 69.1455003 31.0154996 69.1455003 69.1388576 0 9.326571-1.830107 18.384107-5.437179 26.916857" fill="#fabb2e"/><path d="m125.508429 24.7601786c-37.7048576 0-68.3782504 30.6733928-68.3782504 68.3749285 0 37.7048569 30.6733928 68.3749289 68.3782504 68.3749289 37.701535 0 68.374928-30.670072 68.374928-68.3749289 0-37.7015357-30.673393-68.3749285-68.374928-68.3749285zm-92.508429 68.3749285c0-51.0071785 41.4979286-92.5051071 92.508429-92.5051071 51.007178 0 92.505107 41.4979286 92.505107 92.5051071 0 51.0104999-41.497929 92.5084289-92.505107 92.5084289-51.0105004 0-92.508429-41.497929-92.508429-92.5084289z" fill="#2aabce"/><path d="m125.508429 185.643536c-51.0105004 0-92.508429-41.497929-92.508429-92.5084289 0-6.6627857 5.4006429-12.0634285 12.06675-12.0634285 6.6627857 0 12.0634286 5.4006428 12.0634286 12.0634285 0 37.7048569 30.6733928 68.3749289 68.3782504 68.3749289 6.662785 0 12.063428 5.403964 12.063428 12.06675 0 6.662785-5.400643 12.06675-12.063428 12.06675" fill="#555390"/></g></g></g></svg>