<svg height="80" viewBox="0 0 190 80" width="190" xmlns="http://www.w3.org/2000/svg"><path d="m121.271889.55299539c.442397 0 .718894.2764977.884793.60829493l5.419355 12.05529958h.055299l5.364056-12.05529958c.276497-.55299539.608295-.60829493 1.271889-.60829493h4.258065c.884792 0 1.327189.66359447.884792 1.38248848l-11.9447 26.54377883c-.110599.3317972-.442397.6635944-.884793.6635944h-4.589862c-.774193 0-1.271889-.6635944-.884792-1.437788l3.152074-7.2995391-8.682028-18.47004613c-.331797-.66359447.110599-1.38248848.884792-1.38248848zm31.410139-.55299539c6.193548 0 11.225806 5.03225806 11.225806 11.2258065 0 6.1935483-5.032258 11.2258064-11.225806 11.2258064-6.193549 0-11.225807-5.0322581-11.225807-11.2258064 0-6.19354844 5.032258-11.2258065 11.225807-11.2258065zm-48.884793 0c6.414747 0 9.953917 5.0875576 9.953917 10.8940092 0 .3870968-.055299 1.0506913-.110599 1.437788-.0553.4976959-.497696.8847927-.995392.8847927h-13.6589859c.1658986 2.156682 1.7142859 3.7050691 4.8110599 3.7050691 1.990783 0 3.483871-.3870968 4.75576-1.0506913.497696-.2764977 1.161291-.1658986 1.493088.3317973l1.548387 2.2119815c.331797.4976959.276498 1.1612904-.165899 1.5483871-1.769585 1.4930876-4.202765 2.4884793-7.576036 2.4884793-6.414747 0-10.9493092-5.0875576-10.9493092-11.2258064 0-6.02764982 4.5345622-11.2258065 10.8940092-11.2258065zm-52.5898617 0c6.1935484 0 11.2258064 5.03225806 11.2258064 11.2258065 0 6.1935483-5.032258 11.2258064-11.2258064 11.2258064s-11.2258065-5.0322581-11.2258065-11.2258064c0-6.19354844 5.0322581-11.2258065 11.2258065-11.2258065zm122.4884797.55299539c.497695 0 .995391.38709678.995391.99539171v10.5069124c0 2.8202765 1.493088 4.5898618 3.926268 4.5898618 2.211981 0 3.926267-2.046083 4.258064-3.9815668v-11.1152074c0-.77419355.331797-.99539171 1.16129-.99539171h4.036867c.497696 0 .995391.38709678 1.105991.94009217v19.35483874c0 .5529954-.442397.9953917-.995392.9953917h-2.488479c-.442397 0-.718894-.2764977-.940093-.608295 0 0-.442396-.829493-.829493-1.3824884l-.117594.104858c-1.127467.9954779-3.099313 2.4389208-6.463051 2.4389208-6.635945 0-9.013825-5.0322581-9.013825-10.5069125v-10.3410138c0-.55299539.442397-.99539171.995392-.99539171zm-94.6728115-.55299539c6.8018433 0 9.5115207 5.0875576 9.4009216 10.6175115v10.2304148c0 .4976958-.4423963.9953917-.9953917.9953917h-4.3686636c-.5529954 0-.9953917-.4423963-.9953917-.9953917v-10.562212c0-2.76497697-1.437788-4.53456223-3.9815668-4.53456223-2.7096774 0-4.4239631 1.8248848-4.9769585 3.26267281v11.88940092c0 .4976959-.4423963.9953917-.9953917.9953917h-4.3133641c-.4976958 0-.9953917-.4423963-.9953917-.9953917v-19.3548387c0-.55299539.4423963-.99539171.9953917-.99539171h2.4884793c.4423963 0 .718894.2764977.9400922.60829493 0 0 .4423963.82949309.829493 1.38248848v.05529954c1.1612904-.9953917 3.5391705-2.59907834 6.967742-2.59907834zm-52.7004609 0c6.8018434 0 9.3456222 5.0875576 9.124424 10.6728111v10.1751152c0 .4976958-.3870968.9953917-.9953917.9953917h-4.3133641c-.5529953 0-.9953917-.4423963-.9953917-.9953917v-10.562212c0-2.76497697-1.3271889-4.53456223-3.9815668-4.53456223-3.0967742 0-4.4792627 2.26728111-4.4792627 2.26728111s.0552996 1.10599078.0552996 2.04608292v10.7834102c0 .4976958-.4423963.9953917-.9953917.9953917h-3.9815668c-.5529954 0-.9953917-.4423963-.9953917-.9953917v-10.562212c0-2.76497697-1.2718894-4.53456223-3.9815669-4.53456223-2.65437784 0-3.92626724 1.93548387-4.47926263 3.37327189v11.77880184c0 .4976959-.44239632.9953917-.99539171.9953917h-4.31336405c-.49769586 0-.99539171-.4423963-.99539171-.9953917v-19.3548387c0-.55299539.44239631-.99539171.99539171-.99539171h2.48847926c.44239631 0 .71889401.2764977.94009216.60829493 0 0 .44239632.82949309.82949309 1.38248848 1.21658986-1.05069124 3.42857143-2.5437788 6.58064518-2.5437788 3.0414746 0 5.1981567 1.16129032 6.9677419 3.31797235.8847926-.94009217 3.6497696-3.31797235 7.5207373-3.31797235zm126.3594474 5.97235023c-2.875576 0-5.253457 2.37788018-5.253457 5.25345627 0 2.875576 2.377881 5.2534562 5.253457 5.2534562s5.253456-2.3778802 5.253456-5.2534562c0-2.87557609-2.37788-5.25345627-5.253456-5.25345627zm-101.4746547 0c-2.8755761 0-5.2534562 2.37788018-5.2534562 5.25345627 0 2.875576 2.3778801 5.2534562 5.2534562 5.2534562 2.9308755 0 5.2534562-2.3778802 5.2534562-5.2534562 0-2.87557609-2.3778802-5.25345627-5.2534562-5.25345627zm52.3686637-1.05069124c-2.101383 0-3.8709679 1.60368663-4.1474656 3.64976958h8.0737326c-.165898-1.99078341-1.880184-3.64976958-3.926267-3.64976958z" fill="#d40d47" transform="translate(0 25)"/></svg>