<svg xmlns="http://www.w3.org/2000/svg" width="640" height="360"><g fill="none"><path fill="#000" d="M260.744 295.64v-15.585a9.29 9.29 0 00-2.61-7.125 9.039 9.039 0 00-7.006-2.719c-3.452-.23-6.753 1.463-8.615 4.416-1.698-2.865-4.807-4.56-8.103-4.416a8.071 8.071 0 00-7.18 3.688v-3.065h-5.333v24.806h5.385V281.9a5.842 5.842 0 011.456-4.74 5.68 5.68 0 014.544-1.858c3.539 0 5.333 2.338 5.333 6.545v13.793H244V281.9a5.894 5.894 0 011.477-4.72 5.732 5.732 0 014.523-1.878c3.641 0 5.385 2.338 5.385 6.545v13.793h5.359zm30-12.39v-12.39h-5.385v3.013a9.236 9.236 0 00-7.692-3.636c-7.08 0-12.82 5.814-12.82 12.987s5.74 12.987 12.82 12.987a9.236 9.236 0 007.692-3.636v3.013h5.333l.052-12.338zm-19.82 0c.236-4.076 3.646-7.213 7.674-7.06 4.029.154 7.197 3.54 7.132 7.623-.065 4.083-3.34 7.364-7.371 7.385a7.287 7.287 0 01-5.477-2.298 7.486 7.486 0 01-2.01-5.65h.051zm133.768-12.987a13.64 13.64 0 015.129.987 12.805 12.805 0 014.179 2.753 12.58 12.58 0 012.77 4.13c1.339 3.33 1.339 7.06 0 10.39a12.554 12.554 0 01-2.77 4.13 12.805 12.805 0 01-4.18 2.753 14.34 14.34 0 01-10.512 0 12.653 12.653 0 01-4.154-2.753 12.686 12.686 0 01-2.744-4.13 13.958 13.958 0 010-10.39 12.686 12.686 0 012.744-4.13 12.653 12.653 0 014.154-2.753 13.643 13.643 0 015.333-1.065l.051.078zm0 5.195a7.859 7.859 0 00-3.051.571 7.199 7.199 0 00-2.436 1.637 7.625 7.625 0 00-1.615 2.597 9.122 9.122 0 000 6.442 7.599 7.599 0 001.615 2.597 7.173 7.173 0 002.436 1.636 8.234 8.234 0 006.077 0 7.321 7.321 0 002.564-1.636 7.547 7.547 0 001.615-2.597 9.122 9.122 0 000-6.442 7.547 7.547 0 00-1.615-2.597 7.321 7.321 0 00-2.564-1.637 7.865 7.865 0 00-3.077-.727l.051.156zm-84.974 7.792c0-7.792-4.77-12.987-11.615-12.987-7.081.1-12.74 5.996-12.641 13.169.099 7.172 5.919 12.905 13 12.805 3.65.126 7.219-1.113 10.025-3.48l-2.564-4a11.575 11.575 0 01-7.128 2.597c-3.666.32-6.917-2.375-7.333-6.078h18.179c.077-.65.077-1.299.077-2.026zm-18.23-2.182c.205-3.426 3.047-6.076 6.435-6a6.034 6.034 0 014.335 1.71 6.193 6.193 0 011.87 4.316l-12.64-.026zm40.666-3.896a15.615 15.615 0 00-7.692-2.13c-2.924 0-4.667 1.091-4.667 2.91 0 1.817 1.846 2.13 4.154 2.44l2.564.364c5.333.78 8.564 3.065 8.564 7.43 0 4.363-4.103 8.103-11.154 8.103a17.506 17.506 0 01-10.59-3.22l2.564-4.209a12.937 12.937 0 008.154 2.598c3.641 0 5.59-1.091 5.59-3.013 0-1.403-1.385-2.182-4.308-2.598l-2.564-.363c-5.487-.78-8.461-3.273-8.461-7.325 0-4.935 4-7.948 10.256-7.948a18.125 18.125 0 019.974 2.597l-2.384 4.364zm25.64-1.403h-8.691v11.195c0 2.598.871 4.156 3.538 4.156a9.754 9.754 0 004.718-1.402l1.538 4.623c-1.999 1.264-4.31 1.93-6.666 1.922-6.308 0-8.513-3.429-8.513-9.195V275.77h-4.974v-4.935h4.974v-7.532h5.385v7.532h8.692v4.935zm18.437-5.558c1.293.005 2.577.233 3.795.675l-1.641 5.195a8.569 8.569 0 00-3.334-.623c-3.487 0-5.128 2.286-5.128 6.39v13.896h-5.333v-24.806h5.282v3.013a7.211 7.211 0 016.461-3.636l-.102-.104zm36.872 21.818c.333-.004.664.058.974.182.294.122.564.298.795.52.225.223.408.488.538.779a2.444 2.444 0 010 1.922c-.13.29-.313.555-.538.779-.231.222-.5.398-.795.52a2.384 2.384 0 01-.974.207 2.562 2.562 0 01-2.308-1.506 2.47 2.47 0 010-1.922c.13-.291.313-.556.538-.78.231-.221.5-.397.795-.519.27-.109.556-.17.846-.182h.129zm0 4.39c.255.001.509-.052.743-.156.22-.1.42-.24.59-.416.441-.45.635-1.092.517-1.716a1.917 1.917 0 00-1.107-1.4 1.826 1.826 0 00-.743-.156 1.902 1.902 0 00-.744.156 1.87 1.87 0 00-.615.415 1.94 1.94 0 000 2.598c.358.367.848.573 1.359.57v.105zm.153-3.091c.24-.012.476.062.667.208.16.133.245.336.23.545a.628.628 0 01-.179.468.892.892 0 01-.538.233l.743.858h-.59l-.692-.858h-.23v.858h-.488v-2.39l1.077.078zm-.564.441v.624h.564c.1.03.208.03.308 0a.263.263 0 000-.234.263.263 0 000-.234.532.532 0 00-.308 0l-.564-.156z"/><path fill="#7673C0" d="M279.333 81.588h80.77v147.039h-80.77z"/><path fill="#EB001B" d="M284.462 155.12c-.03-28.697 12.97-55.814 35.256-73.532-37.847-30.13-92.196-25.741-124.853 10.081-32.657 35.823-32.657 91.053 0 126.876 32.657 35.823 87.006 40.211 124.853 10.082-22.278-17.713-35.279-44.819-35.256-73.507z"/><path fill="#00A1DF" d="M460.256 213.825v-3.535h1.206v-.758h-3.052v.758h1.205v3.661l.641-.126zm5.923 0v-4.42h-.923l-1.077 3.157-1.076-3.156h-.95v4.419h.668v-3.314l1 2.872h.692l1-2.872v3.346l.666-.032zm2.872-58.705c-.008 35.791-20.185 68.438-51.964 84.08-31.78 15.643-69.585 11.538-97.37-10.573 22.27-17.728 35.27-44.83 35.27-73.52 0-28.69-13-55.792-35.27-73.52 27.785-22.126 65.601-26.241 97.39-10.596 31.789 15.644 51.97 48.302 51.97 84.103l-.026.026z"/></g></svg>