<svg xmlns="http://www.w3.org/2000/svg" width="51" height="32"><g fill="none" fill-rule="evenodd"><path fill="#FFF" stroke="#D0D0D0" d="M.5.5h50v31H.5z"/><g fill-rule="nonzero"><path fill="#000" d="M21.26 25.251v-1.247a.743.743 0 00-.21-.57.723.723 0 00-.56-.217.756.756 0 00-.689.353.718.718 0 00-.648-.353.646.646 0 00-.575.295v-.245h-.426v1.984h.43v-1.1a.467.467 0 01.117-.378.454.454 0 01.364-.149c.283 0 .426.187.426.524v1.103h.431v-1.1a.471.471 0 01.118-.377.459.459 0 01.362-.15c.291 0 .43.187.43.524v1.103h.43zm2.4-.991v-.991h-.431v.24a.739.739 0 00-.616-.29c-.566 0-1.025.465-1.025 1.039 0 .574.459 1.039 1.025 1.039.24.01.469-.1.616-.291v.241h.426l.004-.987zm-1.586 0a.596.596 0 01.614-.565.597.597 0 01.57.61.597.597 0 01-1.027.407.599.599 0 01-.161-.452h.004zm10.701-1.039c.14 0 .28.026.41.079a1.024 1.024 0 01.557.55c.107.267.107.565 0 .832a1.004 1.004 0 01-.556.55c-.27.107-.57.107-.841 0a1.012 1.012 0 01-.552-.55 1.117 1.117 0 010-.831 1.015 1.015 0 01.552-.551c.135-.057.28-.086.426-.085l.004.006zm0 .416a.629.629 0 00-.244.045.576.576 0 00-.324.339.73.73 0 000 .515.574.574 0 00.324.339.659.659 0 00.692-.13c.056-.06.1-.131.129-.209a.73.73 0 000-.515.604.604 0 00-.13-.208.586.586 0 00-.205-.13.63.63 0 00-.246-.059l.004.013zm-6.798.623c0-.623-.381-1.039-.929-1.039-.566.008-1.019.48-1.011 1.054a1.032 1.032 0 001.04 1.024c.292.01.577-.089.802-.278l-.205-.32a.926.926 0 01-.57.207.545.545 0 01-.587-.486h1.454c.006-.052.006-.104.006-.162zm-1.458-.175a.507.507 0 01.515-.48.483.483 0 01.347.137c.093.09.147.215.15.346l-1.012-.003zm3.253-.311a1.25 1.25 0 00-.615-.17c-.234 0-.373.087-.373.232 0 .146.147.17.332.195l.205.03c.427.062.685.245.685.594s-.328.648-.892.648a1.4 1.4 0 01-.847-.258l.205-.336c.188.141.418.214.652.208.291 0 .447-.088.447-.241 0-.113-.11-.175-.344-.208l-.205-.03c-.44-.062-.677-.261-.677-.585 0-.395.32-.636.82-.636.28-.01.557.062.798.208l-.19.349zm2.052-.112h-.696v.895c0 .208.07.333.283.333a.78.78 0 00.378-.113l.123.37a.992.992 0 01-.534.154c-.504 0-.68-.274-.68-.736v-.903h-.399v-.395h.398v-.603h.431v.603h.696v.395zm1.474-.445a.9.9 0 01.304.054l-.131.415a.685.685 0 00-.267-.05c-.279 0-.41.183-.41.512v1.111h-.427v-1.984h.423v.241a.577.577 0 01.517-.29l-.009-.01zm2.95 1.745a.203.203 0 01.142.056.196.196 0 01-.064.32.19.19 0 01-.078.017.205.205 0 01-.184-.12.198.198 0 01.043-.217.205.205 0 01.13-.056h.011zm0 .352a.144.144 0 00.107-.046.155.155 0 00-.047-.25.146.146 0 00-.12 0 .15.15 0 00-.049.034.155.155 0 000 .207.15.15 0 00.11.046v.009zm.013-.248c.019 0 .038.005.053.017.013.01.02.027.018.043a.05.05 0 01-.014.038.071.071 0 01-.043.019l.06.068h-.048l-.055-.068h-.019v.068h-.039v-.191l.087.006zm-.046.036v.05h.046a.043.043 0 00.024 0 .021.021 0 000-.02.021.021 0 000-.018.043.043 0 00-.024 0l-.046-.012z"/><path fill="#7673C0" d="M22.747 8.127h6.461V19.89h-6.461z"/><path fill="#EB001B" d="M23.157 14.01a7.504 7.504 0 012.82-5.883 7.317 7.317 0 00-9.988.807c-2.612 2.865-2.612 7.284 0 10.15a7.317 7.317 0 009.988.806 7.504 7.504 0 01-2.82-5.88z"/><path fill="#00A1DF" d="M37.276 18.839v-.39h.132v-.083h-.335v.084h.132v.402l.07-.013zm.651 0v-.487h-.101l-.119.348-.118-.348h-.104v.487h.073v-.365l.11.316h.076l.11-.316v.368l.073-.003zm-.003-4.83c0 2.864-1.615 5.476-4.157 6.727a7.307 7.307 0 01-7.79-.846A7.516 7.516 0 0028.8 14.01a7.516 7.516 0 00-2.822-5.882 7.307 7.307 0 017.792-.848c2.543 1.252 4.157 3.864 4.157 6.729l-.002.002z"/></g></g></svg>