<svg xmlns="http://www.w3.org/2000/svg" width="512" height="512"><path fill-rule="evenodd" d="M5.78.005h49.533c5.78 0 5.78 5.046 5.78 5.046v125.904c0 5.046-5.78 5.046-5.78 5.046H33l-.003-23.022-.003-.132c-.004-.104-.008-.208.01-.298.034-.166.056-.344.079-.523.064-.503.127-1.009.454-1.24.463-.327.932-.631 1.4-.935.305-.198.61-.395.913-.599 2.739-1.839 5.533-3.877 7.959-6.783 2.244-2.688 4.197-6.34 5.08-10.813.54-2.74.216-5.87-.884-8.116a8.8 8.8 0 0 0-1.774-2.422c-.718-.69-.784-1.741-.283-2.765.667-1.365 1.34-2.832 1.79-4.45.394-1.413.601-3.035.4-4.564-.232-1.753-.978-3.132-1.851-4.027-.321-.328-.677-.555-1.032-.781-.61-.389-1.217-.776-1.643-1.675l.004-.014c.783-2.61 1.38-4.602 1.419-7.62.015-1.16.013-2.376-.304-3.397-.539-1.735-1.712-2.3-2.758-2.803a20 20 0 0 1-.437-.215 9 9 0 0 0-.953-.4 11 11 0 0 1-.815-.331c-.664-.313-.732-.514-.731-1.72.004-5.491-.747-10.696-3.778-13.394-1.573-1.401-3.366-1.857-5.146-1.832-1.698-.024-3.409.43-4.91 1.831-2.893 2.698-3.61 7.9-3.606 13.392 0 1.206-.065 1.407-.699 1.72a10 10 0 0 1-.77.328 8 8 0 0 0-.917.403q-.202.107-.415.213c-1 .504-2.12 1.069-2.634 2.804-.304 1.02-.306 2.237-.29 3.396.036 3.017.606 5.01 1.354 7.62l.003.012c-.406.898-.986 1.286-1.567 1.674-.34.227-.68.454-.986.783-.834.894-1.546 2.272-1.766 4.024-.193 1.53.005 3.152.381 4.565.43 1.615 1.072 3.083 1.708 4.447.479 1.024.416 2.075-.27 2.766a8.7 8.7 0 0 0-1.692 2.42c-1.051 2.245-1.36 5.375-.844 8.115.843 4.472 2.707 8.122 4.849 10.811 2.315 2.905 4.982 4.942 7.595 6.78.288.203.577.399.866.596.45.305.899.61 1.343.939.311.23.373.737.433 1.24.022.179.044.357.076.522.018.089.014.193.01.296l-.004.134-.002 18.067v4.973H5.78c-5.78 0-5.78-5.046-5.78-5.046V5.051C0 .005 5.78.005 5.78.005m36.815 22.287 4.849-9.362v-1.434h-7.55v1.666h5.401l-4.817 9.13zm-8.887.185c2.225 0 3.76-1.419 3.76-3.409v-.03c0-2.006-1.535-2.824-3.162-3.04l2.992-3.083v-1.419h-7.103v1.65h4.648l-2.9 3.1.307 1.187h.875c1.504 0 2.47.602 2.47 1.665v.03c0 .988-.798 1.636-1.856 1.636-1.197 0-2.056-.509-2.823-1.418l-1.32 1.233c.906 1.11 2.24 1.898 4.112 1.898m-10.82-.185 4.848-9.362v-1.434h-7.549v1.666h5.401l-4.817 9.13zm-7.858 0h1.872V11.418h-1.32l-2.884.926.399 1.542 1.933-.54z" clip-path="url(#a)" clip-rule="evenodd" style="fill:#00585b" transform="matrix(3.76484 0 0 3.76484 140.997 -.019)"/><defs><clipPath id="a" clipPathUnits="userSpaceOnUse"/></defs></svg>