<svg height="32" viewBox="0 0 107 32" width="107" xmlns="http://www.w3.org/2000/svg"><path d="m.5.5h50v31h-50z" fill="#fff" stroke="#d0d0d0" stroke-linecap="round" stroke-linejoin="round"/><path d="m15.529 21.686c.219.027.383.136.505.282.064.079.112.162.154.256l.013.03c.043.104.081.225.123.381l.01.037c.029.117.185.76.243.967.096.342.195.605.302.794.05.09.099.157.143.2.016.015.03.027.042.034.007.004.011.006.014.007.096.03.123.027.149.012.046-.028.11-.099.199-.233l.015-.024.167-.266c.071-.109.133-.195.204-.275.113-.126.239-.226.396-.292.196-.082.396-.083.589-.031.118.032.227.082.343.151l.026.015.028.017c.051.031.104.067.168.111l.262.183.037.025.032.021c.453.299.714.352 1.009.182l.015-.009.015-.009c.322-.2.746-.1.946.222.2.323.101.746-.222.947-.023.014-.046.027-.068.041-.486.279-.995.342-1.498.219-.35-.086-.651-.24-1.01-.483l-.026-.017c-.024-.017-.048-.033-.074-.052l-.108-.075-.065.104-.022.034c-.197.302-.386.515-.654.674-.369.221-.801.264-1.262.12-.425-.132-.742-.442-.988-.877-.138-.245-.252-.526-.356-.857l-.009-.03-.037.094c-.081.201-.148.357-.217.5l-.015.031c-.078.159-.154.292-.236.403-.137.186-.289.323-.508.393-.282.091-.531.024-.759-.12-.124-.079-.242-.183-.366-.314-.179-.19-.375-.442-.6-.761l-.019-.028c-.06-.085-.122-.175-.187-.271l-.054-.082c-.046-.068-.093-.139-.144-.217l-.342-.526-.051-.077-.041-.062c-.023-.034-.043-.062-.059-.085l-.012-.017-.001-.001c-.159-.142-.249-.356-.225-.583l.002-.012c.046-.377.389-.645.766-.599.164.02.267.078.366.159.037.03.067.06.097.093.03.034.06.071.092.115l.012.017c.049.066.105.149.183.266l.335.516.069.104c.027.042.054.082.08.121l.068.102.044.066c.044.065.087.126.128.185l.037.052.039.055c.052.073.101.14.148.202l.024.032.018-.043.015-.035c.044-.107.093-.233.15-.383l.189-.494c.176-.456.22-.554.32-.742l.004-.007c.065-.12.129-.219.207-.306.063-.07.134-.131.221-.18.138-.079.299-.118.472-.097zm8.238-1.14 3.695 3.697-4.12.999c-.3.073-.571-.192-.511-.491l.002-.009zm-11.989 2.492.002.002c.069.048.15.082.263.098-.094-.013-.181-.046-.259-.096zm22.348-12.853 3.697 3.697-9.359 9.36-3.696-3.697zm-15.419 8.566c.406.882 1.888 1.587 3.797 1.82l-.378 1.446c-2.031-.324-3.493-1.192-3.53-2.218l-.001-.039v-.519c0-.168.039-.332.112-.49zm-7.596-1.409c.499 1.086 2.621 1.903 5.164 1.903.49 0 .964-.031 1.414-.088l.056-.007v.635c0 .291.067.571.197.837-.524.079-1.084.122-1.667.122-2.884 0-5.228-1.05-5.274-2.354l-.001-.039v-.519c0-.168.038-.332.111-.49zm7.596-1.272c.5 1.087 2.63 1.903 5.181 1.903.119 0 .236-.002.353-.005l-1.418 1.384-.019.07c-2.375-.223-4.167-1.167-4.208-2.303l-.001-.04v-.519c0-.168.039-.332.112-.49zm-7.596-1.409c.498 1.086 2.617 1.903 5.157 1.903.489 0 .963-.031 1.412-.088l.056-.007v1.5c-.466.061-.958.094-1.468.094-2.88 0-5.221-1.05-5.267-2.353l-.001-.04v-.519c0-.168.038-.332.111-.49zm7.596-1.409c.5 1.086 2.63 1.903 5.181 1.903 1.704 0 3.22-.364 4.188-.93l-2.334 2.278c-.577.098-1.202.151-1.854.151-2.894 0-5.245-1.05-5.292-2.354l-.001-.039v-.519c0-.168.039-.332.112-.49zm-2.439-3.197c.489 0 .963.031 1.412.087l.056.008v5.104c-.466.061-.958.094-1.468.094-2.88 0-5.221-1.048-5.267-2.348l-.001-.039v-.518c0-1.319 2.359-2.388 5.268-2.388zm12.801.55c.07.152.109.309.112.47v.021.519c0 1.321-2.37 2.393-5.293 2.393-2.894 0-5.245-1.05-5.292-2.354l-.001-.039v-.519c0-.169.039-.332.112-.491.5 1.087 2.63 1.903 5.181 1.903 2.552 0 4.681-.816 5.181-1.903zm9.892-2.98.019.019 1.649 1.649c.49.489.495 1.275.015 1.771l-.015.015-1.842 1.842-3.698-3.697 1.58-1.58c.633-.631 1.653-.637 2.292-.019zm-15.073-1.625c2.894 0 5.245 1.048 5.292 2.348l.001.039v.518c0 1.319-2.37 2.388-5.293 2.388-2.894 0-5.245-1.048-5.292-2.348l-.001-.04v-.518c0-1.318 2.37-2.387 5.293-2.387z" fill="#2c3341"/><path d="m56.5.5h50v31h-50z" fill="#fff" stroke="#d0d0d0" stroke-linecap="round" stroke-linejoin="round"/><path d="m72 8.611v15.015c0 .719.588 1.307 1.307 1.307h8.971c6.782 0 9.722-3.796 9.722-8.834 0-5.011-2.94-8.795-9.722-8.795h-8.971c-.719 0-1.307.589-1.307 1.307z" fill="#fff"/><path d="m78.005 10.99v11.094h4.828c4.384 0 6.286-2.476 6.286-5.978 0-3.352-1.902-5.953-6.286-5.953h-3.992c-.464 0-.836.379-.836.837z" fill="#c06"/><path d="m82.278 23.737h-7.802c-.692 0-1.254-.562-1.254-1.254v-12.722c0-.692.562-1.254 1.254-1.254h7.802c7.402 0 8.507 4.763 8.507 7.599 0 4.919-3.025 7.631-8.507 7.631zm-7.802-14.812c-.464 0-.836.372-.836.836v12.722c0 .463.372.836.836.836h7.802c5.214 0 8.089-2.561 8.089-7.213 0-6.247-5.071-7.181-8.089-7.181z"/><g fill="#fff"><path d="m79.703 14.609c.17 0 .327.026.477.079.151.052.275.137.386.241.104.111.189.249.255.406.058.163.091.352.091.574 0 .197-.026.373-.072.536-.052.164-.124.307-.222.425s-.222.209-.372.281c-.151.065-.327.104-.53.104h-1.143v-2.652h1.13zm-.039 2.163c.085 0 .164-.013.248-.039.079-.026.151-.072.21-.137.058-.066.111-.144.15-.249.039-.104.059-.222.059-.372 0-.131-.013-.255-.04-.36-.026-.104-.071-.202-.13-.274s-.137-.137-.235-.176c-.098-.04-.216-.059-.36-.059h-.418v1.672h.516z"/><path d="m83.271 14.609v.49h-1.398v.569h1.287v.451h-1.287v.646h1.43v.49h-2.012v-2.652h1.98z"/><path d="m85.27 14.609.993 2.653h-.607l-.203-.588h-.993l-.209.588h-.588l1-2.653zm.033 1.627-.333-.973h-.007l-.346.973z"/><path d="m87.211 14.609v2.163h1.293v.49h-1.875v-2.653z"/></g><path d="m77.044 15.936c0 .674-.547 1.221-1.222 1.221s-1.222-.547-1.222-1.221c0-.675.547-1.222 1.222-1.222s1.222.547 1.222 1.222z"/><path d="m76.744 22.084c-1.026 0-1.85-.83-1.85-1.849v-1.444c0-.51.412-.928.928-.928.51 0 .928.412.928.928v3.293z"/></svg>