<?xml version="1.0" encoding="UTF-8"?>
<svg width="640px" height="360px" viewBox="0 0 640 360" xmlns="http://www.w3.org/2000/svg" xmlns:xlink="http://www.w3.org/1999/xlink" version="1.1">
 <!-- Generated by Pixelmator Pro 2.3 -->
 <g id="handshake-alt-copy">
  <path id="Shape" d="M286.919 216.1 L320.354 185.836 C321.561 184.764 323.09 184.168 324.699 184.168 L365.336 184.168 C367.066 184.168 368.676 184.843 369.923 186.074 L394.345 209.547 445.282 209.547 C447.052 209.547 448.501 208.117 448.501 206.37 L448.501 200.015 C448.501 198.267 447.052 196.838 445.282 196.838 L399.616 196.838 379.016 177.019 C375.354 173.404 370.526 171.419 365.376 171.419 L324.739 171.419 C320.555 171.419 316.652 172.968 313.353 175.39 309.973 172.809 305.829 171.299 301.564 171.299 L273.601 171.299 C268.492 171.299 263.583 173.325 259.922 176.9 L239.845 196.798 194.219 196.798 C192.448 196.798 191 198.228 191 199.975 L191 206.33 C191 208.077 192.448 209.507 194.219 209.507 L245.156 209.507 269.015 185.955 C270.222 184.764 271.871 184.088 273.561 184.088 L301.524 184.088 C301.886 184.962 301.645 184.366 301.967 185.24 L278.228 206.727 C266.882 217.014 266.319 234.211 276.539 245.213 282.292 251.409 300.116 260.822 315.526 246.881 L324.699 238.58 375.234 279.052 C377.97 281.236 378.412 285.287 376.159 287.988 L372.337 292.635 C370.164 295.256 366.141 295.852 363.284 293.549 L356.122 287.829 339.425 308.085 C336.407 311.779 330.976 312.136 327.596 309.435 L315.284 299.069 311.1 304.153 C304.381 312.295 292.19 313.566 284.304 307.291 L248.133 273.094 194.219 273.094 C192.448 273.094 191 274.524 191 276.272 L191 282.626 C191 284.374 192.448 285.804 194.219 285.804 L242.983 285.804 275.774 316.783 C287.764 326.355 304.662 326.077 316.411 316.704 L319.308 319.166 C323.17 322.264 327.878 323.892 332.786 323.892 339.224 323.892 345.299 321.112 349.443 316.108 L358.255 305.424 C364.853 308.959 375.515 308.999 382.395 300.658 L386.218 296.011 C388.712 292.993 390.08 289.418 390.442 285.804 L445.282 285.804 C447.052 285.804 448.501 284.374 448.501 282.626 L448.501 276.272 C448.501 274.524 447.052 273.094 445.282 273.094 L386.862 273.094 C385.856 271.704 384.729 270.354 383.321 269.202 L334.275 229.882 345.702 219.516 C348.317 217.133 348.518 213.121 346.104 210.54 343.69 207.958 339.626 207.799 337.011 210.143 L306.795 237.468 C301.001 242.671 291.264 242.234 285.994 236.594 280.562 230.756 280.924 221.542 286.919 216.1 Z" fill="#000000" fill-opacity="1" stroke="none"/>
 </g>
 <g id="iDEAL">
  <g id="g173">
   <path id="path163" d="M249.196 45.266 L249.196 151.734 C249.196 156.83 253.366 161 258.463 161 L322.074 161 C370.166 161 391.014 134.082 391.014 98.361 391.014 62.825 370.166 36 322.074 36 L258.463 36 C253.366 36 249.196 40.17 249.196 45.266 Z" fill="#ffffff" fill-opacity="1" stroke="none"/>
   <path id="path165" d="M291.774 62.13 L291.774 140.8 326.013 140.8 C357.1 140.8 370.583 123.241 370.583 98.407 370.583 74.64 357.1 56.2 326.013 56.2 L297.705 56.2 C294.415 56.2 291.774 58.887 291.774 62.13 Z" fill="#cc0066" fill-opacity="1" stroke="none"/>
   <g id="g171">
    <g id="g169">
     <path id="path167" d="M322.074 152.522 L266.756 152.522 C261.845 152.522 257.86 148.537 257.86 143.626 L257.86 53.42 C257.86 48.509 261.845 44.525 266.756 44.525 L322.074 44.525 C374.567 44.525 382.397 78.3 382.397 98.407 382.397 133.294 360.946 152.522 322.074 152.522 Z M266.756 47.49 C263.466 47.49 260.825 50.131 260.825 53.42 L260.825 143.626 C260.825 146.915 263.466 149.556 266.756 149.556 L322.074 149.556 C359.046 149.556 379.432 131.395 379.432 98.407 379.432 54.115 343.479 47.49 322.074 47.49 Z" fill="#000000" fill-opacity="1" stroke="none"/>
    </g>
   </g>
  </g>
  <g id="g183">
   <path id="path175" d="M303.82 87.798 C305.025 87.798 306.137 87.983 307.202 88.354 308.268 88.724 309.148 89.327 309.936 90.068 310.677 90.855 311.279 91.828 311.743 92.94 312.16 94.099 312.391 95.442 312.391 97.017 312.391 98.407 312.206 99.658 311.882 100.817 311.511 101.975 311.001 102.994 310.307 103.828 309.612 104.662 308.731 105.311 307.666 105.82 306.6 106.284 305.349 106.562 303.913 106.562 L295.805 106.562 295.805 87.751 303.82 87.751 Z M303.542 103.133 C304.145 103.133 304.701 103.04 305.303 102.855 305.859 102.67 306.368 102.345 306.785 101.882 307.202 101.419 307.573 100.863 307.851 100.122 308.129 99.38 308.268 98.546 308.268 97.481 308.268 96.554 308.175 95.674 307.99 94.933 307.805 94.191 307.48 93.496 307.063 92.987 306.646 92.477 306.09 92.014 305.395 91.736 304.701 91.458 303.867 91.319 302.847 91.319 L299.882 91.319 299.882 103.179 303.542 103.179 Z" fill="#ffffff" fill-opacity="1" stroke="none"/>
   <path id="path177" d="M329.117 87.798 L329.117 91.272 319.202 91.272 319.202 95.303 328.329 95.303 328.329 98.5 319.202 98.5 319.202 103.087 329.348 103.087 329.348 106.562 315.079 106.562 315.079 87.751 329.117 87.751 Z" fill="#ffffff" fill-opacity="1" stroke="none"/>
   <path id="path179" d="M343.294 87.798 L350.336 106.608 346.027 106.608 344.591 102.438 337.549 102.438 336.066 106.608 331.897 106.608 338.985 87.798 Z M343.526 99.334 L341.163 92.431 341.116 92.431 338.661 99.334 Z" fill="#ffffff" fill-opacity="1" stroke="none"/>
   <path id="path181" d="M357.054 87.798 L357.054 103.133 366.228 103.133 366.228 106.608 352.931 106.608 352.931 87.798 Z" fill="#ffffff" fill-opacity="1" stroke="none"/>
  </g>
  <g id="g187">
   <path id="circle185" d="M284.964 97.203 C284.964 101.988 281.085 105.867 276.3 105.867 271.515 105.867 267.636 101.988 267.636 97.203 267.636 92.418 271.515 88.539 276.3 88.539 281.085 88.539 284.964 92.418 284.964 97.203 Z" fill="#000000" fill-opacity="1" stroke="none"/>
  </g>
  <path id="path189" d="M282.832 140.8 C275.559 140.8 269.721 134.916 269.721 127.688 L269.721 117.449 C269.721 113.835 272.64 110.87 276.3 110.87 279.914 110.87 282.879 113.789 282.879 117.449 L282.879 140.8 Z" fill="#000000" fill-opacity="1" stroke="none"/>
 </g>
</svg>
