<?xml version="1.0" encoding="UTF-8"?>
<svg width="107px" height="32px" viewBox="0 0 107 32" version="1.1" xmlns="http://www.w3.org/2000/svg" xmlns:xlink="http://www.w3.org/1999/xlink">
    <!-- Generator: Sketch 63.1 (92452) - https://sketch.com -->
    <title>incasso-ideal/icon-107-32</title>
    <desc>Created with Sketch.</desc>
    <g id="incasso-ideal/icon-107-32" stroke="none" stroke-width="1" fill="none" fill-rule="evenodd">
        <rect id="Rectangle" stroke="#D0D0D0" fill="#FFFFFF" x="0.5" y="0.5" width="50" height="31"></rect>
        <g id="Payment-method-/-Incasso" transform="translate(11.000000, 1.000000)" fill="#2C3341" fill-rule="nonzero">
            <path d="M4.52904109,20.6860168 C4.74764555,20.712858 4.91205269,20.8217176 5.03359156,20.9684415 C5.09826677,21.0465186 5.146038,21.1298504 5.18781343,21.2241983 L5.20053236,21.2537178 C5.24445046,21.3584601 5.2823954,21.4787909 5.32404003,21.6347317 L5.33383901,21.6723118 C5.3629061,21.7885768 5.51877302,22.4323035 5.57688743,22.6388061 C5.67327721,22.9813159 5.77168843,23.244085 5.87855983,23.4333918 C5.92909604,23.5229093 5.97816205,23.5895486 6.02235204,23.6327154 C6.03846077,23.6484511 6.05243324,23.6596085 6.06403102,23.6668963 C6.07067287,23.6710698 6.0750326,23.6731023 6.07803054,23.6740368 C6.17384632,23.7039051 6.20097548,23.7011657 6.22702394,23.6856363 C6.27345742,23.6579539 6.33742488,23.5868163 6.4260301,23.4527 L6.44119154,23.429445 L6.60823742,23.1634606 C6.67904118,23.053513 6.74070807,22.9681242 6.81186776,22.888294 C6.92461235,22.7618119 7.05070857,22.6622689 7.20779685,22.5964516 C7.4042413,22.5141448 7.60438352,22.5125997 7.79681147,22.5650025 C7.91519388,22.597241 8.02396857,22.6474764 8.14047465,22.7157253 L8.16597155,22.7308688 L8.1935778,22.7477294 C8.24450903,22.7792715 8.29770975,22.8145877 8.36160566,22.8586763 L8.6242516,23.0418695 L8.6242516,23.0418695 L8.6607619,23.0666035 L8.69269425,23.0878467 C9.14587775,23.386616 9.40673957,23.4397735 9.7021536,23.269879 L9.71679952,23.2612899 L9.7315663,23.2522965 C10.0541678,23.0521959 10.4779016,23.1515025 10.6780022,23.4741041 C10.8781028,23.7967056 10.7787961,24.2204394 10.4561946,24.42054 C10.4333915,24.4346841 10.4104971,24.448366 10.3875115,24.4615851 C9.9015796,24.7410477 9.39329306,24.8043794 8.88984471,24.6811237 C8.53960685,24.5953774 8.23918391,24.4408691 7.88034106,24.1984491 L7.85397843,24.1805538 C7.82984176,24.1640925 7.80604997,24.1476843 7.77977196,24.129395 L7.67242699,24.054133 L7.60717602,24.1577959 L7.58549439,24.1915278 C7.387925,24.4941134 7.19851098,24.706957 6.93099004,24.8664456 C6.56185501,25.0865138 6.12978457,25.1301438 5.66890844,24.9864766 C5.244239,24.8540959 4.92697568,24.5441793 4.68142518,24.1092229 C4.54285819,23.863772 4.42895988,23.583212 4.32494599,23.2517536 L4.31572573,23.2221378 L4.2785452,23.3159363 C4.19819152,23.5168648 4.1309182,23.6726976 4.06177279,23.8160958 L4.04693791,23.8466128 C3.96880569,24.0060398 3.89259791,24.1386894 3.81089791,24.2501494 C3.67442323,24.4363364 3.52245836,24.5727401 3.30297693,24.6432496 C3.02127958,24.7337463 2.77201284,24.6668908 2.54436292,24.5227222 C2.42040343,24.4442199 2.30218618,24.340146 2.17795632,24.208776 C1.99879558,24.0193178 1.80271679,23.7674757 1.57808511,23.4479769 L1.55876076,23.4204255 C1.49879,23.3347205 1.43701349,23.2445381 1.37248069,23.1486808 L1.31785563,23.0671871 C1.27204739,22.9985549 1.22514504,22.9275641 1.17433076,22.8500397 L0.831706034,22.3238106 L0.780886676,22.2467732 L0.73953989,22.1849842 C0.716701356,22.1511632 0.697324889,22.1230761 0.680961758,22.1000738 L0.66865436,22.0829847 L0.667696617,22.0821369 C0.509173468,21.9396037 0.419272298,21.7257527 0.443182958,21.498539 L0.444625828,21.4867878 C0.490889972,21.1099966 0.833844101,20.8420514 1.21063531,20.8883156 C1.37462002,20.9084504 1.47844541,20.9662814 1.57663409,21.0466128 C1.61374605,21.0769753 1.6442755,21.1072453 1.67402411,21.1403921 C1.70443431,21.174276 1.7338823,21.211265 1.76613141,21.2548499 L1.77836348,21.2715103 C1.82662892,21.3377321 1.88349786,21.4213556 1.96060159,21.5384498 L2.29614015,22.0537282 L2.36475035,22.1583248 C2.39232883,22.2002132 2.41879195,22.2402014 2.44468727,22.279102 L2.51286452,22.3809545 L2.55741845,22.4468582 C2.60143938,22.5116907 2.64389785,22.5733558 2.68512256,22.6322706 L2.72162354,22.684166 L2.76092346,22.7394123 C2.81272348,22.811781 2.86211274,22.8789584 2.90895555,22.9407187 L2.93347709,22.9728477 L2.95128143,22.9302702 L2.96577144,22.8950868 C3.00979709,22.787605 3.05894441,22.6624661 3.1164795,22.5123361 L3.30535345,22.0180216 C3.48066104,21.5620521 3.52491804,21.4638616 3.62539681,21.2761814 L3.6292895,21.2689178 C3.69377493,21.1487097 3.75844138,21.0495798 3.83604762,20.9634168 C3.89926944,20.8932242 3.97017371,20.8324528 4.05711069,20.7828324 C4.19467589,20.7043153 4.35552551,20.6647117 4.52904109,20.6860168 Z M12.7668649,19.545801 L16.462445,23.2434432 L12.342005,24.2424929 C12.0421774,24.3154 11.7712113,24.0502196 11.8310421,23.7510872 L11.8329773,23.7419198 L12.7668649,19.545801 Z M0.777821547,22.0378712 L0.780418496,22.0397117 C0.849011531,22.0875327 0.929670368,22.1223839 1.04309803,22.1378712 C0.948900226,22.1250095 0.861505303,22.0915274 0.78412206,22.041992 L0.777821547,22.0378712 Z M23.1257894,9.18474571 L26.8234659,12.8823879 L17.4636255,22.2422283 L13.7680455,18.5445861 L23.1257894,9.18474571 Z M7.7066907,17.750654 C8.1130327,18.6333186 9.59450409,19.3376906 11.503906,19.5710126 L11.125762,21.0171897 C9.09517024,20.6930595 7.63284448,19.8245865 7.59608517,18.7993859 L7.5953761,18.7598084 L7.5953761,18.2407824 C7.5953761,18.0728689 7.63384178,17.908935 7.7066907,17.750654 Z M0.110948594,16.3415118 C0.609539098,17.4281335 2.73216565,18.2445921 5.27530274,18.2445921 C5.76527777,18.2445921 6.2392111,18.2137923 6.68934272,18.157074 L6.74548464,18.1498496 L6.74548464,18.7854156 C6.74548464,19.0757934 6.81248782,19.3560865 6.94237996,19.6218629 C6.41833548,19.7010034 5.8579411,19.7439654 5.27530274,19.7439654 C2.3909743,19.7439654 0.0472919558,18.6938158 0.000706741686,17.3902451 L0,17.3506662 L0,16.8316402 C0,16.6636363 0.0383392045,16.4997476 0.110948594,16.3415118 Z M7.7066907,15.0698878 C8.20692602,16.1565094 10.3365549,16.972968 12.8880816,16.972968 C13.0067299,16.972968 13.124466,16.9712025 13.2411683,16.9677263 L11.8226876,18.3520526 L11.8043476,18.422127 C9.42860009,18.1985957 7.63682517,17.2548851 7.59608517,16.118665 L7.5953761,16.0790874 L7.5953761,15.5600162 C7.5953761,15.3920122 7.63384178,15.2281688 7.7066907,15.0698878 Z M0.110795399,13.6607908 C0.608697463,14.7474125 2.72839315,15.5638711 5.26801874,15.5638711 C5.75731723,15.5638711 6.23059617,15.5330713 6.68010626,15.4763531 L6.73617066,15.4691286 L6.73617066,16.9689994 C6.27009857,17.0302767 5.77756922,17.0632444 5.26801874,17.0632444 C2.38767291,17.0632444 0.0472266564,16.0130948 0.000705765836,14.709568 L0,14.6699905 L0,14.1509645 C0,13.9829605 0.0382862668,13.8190718 0.110795399,13.6607908 Z M7.7066907,12.2516939 C8.20692602,13.3383011 10.3365549,14.1547489 12.8880816,14.1547489 C14.592104,14.1547489 16.1079532,13.7906204 17.0759536,13.2250454 L14.7417119,15.5032672 C14.1648261,15.6008145 13.5402257,15.6541475 12.8880816,15.6541475 C9.99423803,15.6541475 7.64282407,14.6040118 7.59608517,13.3004585 L7.5953761,13.2608802 L7.5953761,12.741861 C7.5953761,12.5738141 7.63384178,12.4099276 7.7066907,12.2516939 Z M5.26801874,9.05544968 C5.75718721,9.05544968 6.2307106,9.08575897 6.68012061,9.14230636 L6.73617066,9.14951115 L6.73617066,14.2540486 C6.27009857,14.3152675 5.77756922,14.3481552 5.26801874,14.3481552 C2.38767291,14.3481552 0.0472266564,13.3004652 0.000705765836,12.0001434 L0,11.9606632 L0,11.4428966 C0,10.1243218 2.35857851,9.05544968 5.26801874,9.05544968 Z M18.0694725,9.60534116 C18.1392861,9.75698378 18.177522,9.91381803 18.1805871,10.0745304 L18.1807871,10.0955148 L18.1807871,10.6145408 C18.1807871,11.9363228 15.8111106,13.0077947 12.8880816,13.0077947 C9.99423803,13.0077947 7.64282407,11.9576451 7.59608517,10.6541184 L7.5953761,10.6145408 L7.5953761,10.0955148 C7.5953761,9.92746561 7.63384178,9.76357694 7.7066907,9.60534116 C8.20692602,10.692008 10.3365549,11.5084214 12.8880816,11.5084214 C15.4396083,11.5084214 17.5692372,10.692008 18.0694725,9.60534116 Z M27.9610286,6.62501024 L27.9802658,6.64393775 L29.6292872,8.2929592 C30.1186281,8.78230007 30.1235215,9.5684669 29.6439674,10.0637776 L29.6292872,10.0786974 L27.7867727,11.9212119 L24.0890962,8.2235354 L25.6686938,6.64393775 C26.3017543,6.01302079 27.3223189,6.00671162 27.9610286,6.62501024 Z M12.8880816,5 C15.7818803,5 18.1333383,6.04761045 18.180078,7.34798539 L18.1807871,7.38746724 L18.1807871,7.90523828 C18.1807871,9.22382433 15.8111106,10.2927055 12.8880816,10.2927055 C9.99423803,10.2927055 7.64282407,9.24509507 7.59608517,7.94472013 L7.5953761,7.90523828 L7.5953761,7.38746724 C7.5953761,6.06888119 9.96500728,5 12.8880816,5 Z" id="incasso"></path>
        </g>
        <rect id="Rectangle" stroke="#D0D0D0" fill="#FFFFFF" x="56.5" y="0.5" width="50" height="31"></rect>
        <g id="Payment-method-/-iDEAL" transform="translate(69.500000, 4.000000)">
            <g id="iDEAL-logo-(original)" transform="translate(0.000000, 1.600000)">
                <g id="Group-10">
                    <path d="M0.0103445255,0.0189627074 L0.0103445255,20.6371445 L12.3147241,20.6371445 C20.431454,20.6371445 23.9508701,16.1963778 23.9508701,10.3075591 C23.9508701,4.4421016 20.431454,0.0189627074 12.3147241,0.0189627074 L0.0103445255,0.0189627074 Z" id="Fill-6" fill="#FFFFFF"></path>
                    <path d="M12.318035,1.53910965 C21.094765,1.53910965 22.4052175,7.06486837 22.4052175,10.3580156 C22.4052175,16.0716814 18.8230861,19.2182868 12.318035,19.2182868 L1.56016642,19.2182868 L1.56016642,1.53910965 L12.318035,1.53910965 Z M2.40708613,2.37037282 L2.40708613,18.3865937 L12.318035,18.3865937 C18.3028818,18.3865937 21.5585606,15.6495139 21.5585606,10.3580156 C21.5585606,4.92023347 18.0295095,2.37037282 12.318035,2.37037282 L2.40708613,2.37037282 Z" id="Fill-8" fill="#000000"></path>
                </g>
                <polygon id="Fill-11" fill="#000000" points="3.73672993 17.0810564 6.90945985 17.0810564 6.90945985 11.53569 3.73672993 11.53569"></polygon>
                <path d="M7.29464234,8.74251328 C7.29464234,9.81182078 6.41207299,10.6787734 5.32287591,10.6787734 C4.23429197,10.6787734 3.35084672,9.81182078 3.35084672,8.74251328 C3.35084672,7.67397977 4.23429197,6.80659716 5.32287591,6.80659716 C6.41207299,6.80659716 7.29464234,7.67397977 7.29464234,8.74251328" id="Fill-12" fill="#000000"></path>
                <path d="M13.5198044,9.6485867 L13.5198044,10.5458109 L11.2588993,10.5458109 L11.2588993,6.94384244 L13.4468409,6.94384244 L13.4468409,7.8407226 L12.1729139,7.8407226 L12.1729139,8.25833216 L13.3777314,8.25833216 L13.3777314,9.15495432 L12.1729139,9.15495432 L12.1729139,9.6485867 L13.5198044,9.6485867 Z M13.9587241,10.5469288 L15.065527,6.94238046 L16.3656438,6.94238046 L17.4720964,10.5469288 L16.5206803,10.5469288 L16.3133518,9.8496516 L15.117819,9.8496516 L14.9097898,10.5469288 L13.9587241,10.5469288 Z M15.3849723,8.95311543 L16.0461109,8.95311543 L15.7438336,7.93446115 L15.6889139,7.93446115 L15.3849723,8.95311543 Z M17.9313372,6.94246646 L18.8451766,6.94246646 L18.8451766,9.6485867 L20.1995124,9.6485867 C19.8281255,4.73832048 15.8937022,3.67752685 12.3187533,3.67752685 L8.50730803,3.67752685 L8.50730803,6.94435843 L9.07148321,6.94435843 C10.1000672,6.94435843 10.7391328,7.62916587 10.7391328,8.73080887 C10.7391328,9.86736733 10.1153956,10.5458109 9.07148321,10.5458109 L8.50730803,10.5458109 L8.50730803,17.082656 L12.3187533,17.082656 C18.131308,17.082656 20.1540526,14.4324349 20.2254394,10.5458109 L17.9313372,10.5458109 L17.9313372,6.94246646 Z M8.50651971,7.84141059 L8.50651971,9.6485867 L9.07148321,9.6485867 C9.46292847,9.6485867 9.82450511,9.53747642 9.82450511,8.73080887 C9.82450511,7.94245903 9.42211095,7.84141059 9.07148321,7.84141059 L8.50651971,7.84141059 Z" id="Fill-14" fill="#CC0066"></path>
            </g>
        </g>
    </g>
</svg>