<?xml version="1.0" encoding="UTF-8"?>
<svg width="107px" height="32px" viewBox="0 0 107 32" xmlns="http://www.w3.org/2000/svg" xmlns:xlink="http://www.w3.org/1999/xlink" version="1.1">
 <!-- Generated by Pixelmator Pro 2.3 -->
 <g id="incasso-ideal/icon-107-32">
  <path id="Rectangle" d="M0.5 0.5 L50.5 0.5 50.5 31.5 0.5 31.5 Z" fill="#ffffff" fill-opacity="1" stroke="#d0d0d0" stroke-width="1" stroke-opacity="1" stroke-linejoin="round" stroke-linecap="round"/>
  <g id="Payment-method-/-Incasso">
   <path id="incasso" d="M15.529 21.686 C15.748 21.713 15.912 21.822 16.034 21.968 16.098 22.047 16.146 22.13 16.188 22.224 L16.201 22.254 C16.244 22.358 16.282 22.479 16.324 22.635 L16.334 22.672 C16.363 22.789 16.519 23.432 16.577 23.639 16.673 23.981 16.772 24.244 16.879 24.433 16.929 24.523 16.978 24.59 17.022 24.633 17.038 24.648 17.052 24.66 17.064 24.667 17.071 24.671 17.075 24.673 17.078 24.674 17.174 24.704 17.201 24.701 17.227 24.686 17.273 24.658 17.337 24.587 17.426 24.453 L17.441 24.429 17.608 24.163 C17.679 24.054 17.741 23.968 17.812 23.888 17.925 23.762 18.051 23.662 18.208 23.596 18.404 23.514 18.604 23.513 18.797 23.565 18.915 23.597 19.024 23.647 19.14 23.716 L19.166 23.731 19.194 23.748 C19.245 23.779 19.298 23.815 19.362 23.859 L19.624 24.042 19.661 24.067 19.693 24.088 C20.146 24.387 20.407 24.44 20.702 24.27 L20.717 24.261 20.732 24.252 C21.054 24.052 21.478 24.152 21.678 24.474 21.878 24.797 21.779 25.22 21.456 25.421 21.433 25.435 21.41 25.448 21.388 25.462 20.902 25.741 20.393 25.804 19.89 25.681 19.54 25.595 19.239 25.441 18.88 25.198 L18.854 25.181 C18.83 25.164 18.806 25.148 18.78 25.129 L18.672 25.054 18.607 25.158 18.585 25.192 C18.388 25.494 18.199 25.707 17.931 25.866 17.562 26.087 17.13 26.13 16.669 25.986 16.244 25.854 15.927 25.544 15.681 25.109 15.543 24.864 15.429 24.583 15.325 24.252 L15.316 24.222 15.279 24.316 C15.198 24.517 15.131 24.673 15.062 24.816 L15.047 24.847 C14.969 25.006 14.893 25.139 14.811 25.25 14.674 25.436 14.522 25.573 14.303 25.643 14.021 25.734 13.772 25.667 13.544 25.523 13.42 25.444 13.302 25.34 13.178 25.209 12.999 25.019 12.803 24.767 12.578 24.448 L12.559 24.42 C12.499 24.335 12.437 24.245 12.372 24.149 L12.318 24.067 C12.272 23.999 12.225 23.928 12.174 23.85 L11.832 23.324 11.781 23.247 11.74 23.185 C11.717 23.151 11.697 23.123 11.681 23.1 L11.669 23.083 11.668 23.082 C11.509 22.94 11.419 22.726 11.443 22.499 L11.445 22.487 C11.491 22.11 11.834 21.842 12.211 21.888 12.375 21.908 12.478 21.966 12.577 22.047 12.614 22.077 12.644 22.107 12.674 22.14 12.704 22.174 12.734 22.211 12.766 22.255 L12.778 22.272 C12.827 22.338 12.883 22.421 12.961 22.538 L13.296 23.054 13.365 23.158 C13.392 23.2 13.419 23.24 13.445 23.279 L13.513 23.381 13.557 23.447 C13.601 23.512 13.644 23.573 13.685 23.632 L13.722 23.684 13.761 23.739 C13.813 23.812 13.862 23.879 13.909 23.941 L13.933 23.973 13.951 23.93 13.966 23.895 C14.01 23.788 14.059 23.662 14.116 23.512 L14.305 23.018 C14.481 22.562 14.525 22.464 14.625 22.276 L14.629 22.269 C14.694 22.149 14.758 22.05 14.836 21.963 14.899 21.893 14.97 21.832 15.057 21.783 15.195 21.704 15.356 21.665 15.529 21.686 Z M23.767 20.546 L27.462 24.243 23.342 25.242 C23.042 25.315 22.771 25.05 22.831 24.751 L22.833 24.742 Z M11.778 23.038 L11.78 23.04 C11.849 23.088 11.93 23.122 12.043 23.138 11.949 23.125 11.862 23.092 11.784 23.042 Z M34.126 10.185 L37.823 13.882 28.464 23.242 24.768 19.545 Z M18.707 18.751 C19.113 19.633 20.595 20.338 22.504 20.571 L22.126 22.017 C20.095 21.693 18.633 20.825 18.596 19.799 L18.595 19.76 18.595 19.241 C18.595 19.073 18.634 18.909 18.707 18.751 Z M11.111 17.342 C11.61 18.428 13.732 19.245 16.275 19.245 16.765 19.245 17.239 19.214 17.689 19.157 L17.745 19.15 17.745 19.785 C17.745 20.076 17.812 20.356 17.942 20.622 17.418 20.701 16.858 20.744 16.275 20.744 13.391 20.744 11.047 19.694 11.001 18.39 L11 18.351 11 17.832 C11 17.664 11.038 17.5 11.111 17.342 Z M18.707 16.07 C19.207 17.157 21.337 17.973 23.888 17.973 24.007 17.973 24.124 17.971 24.241 17.968 L22.823 19.352 22.804 19.422 C20.429 19.199 18.637 18.255 18.596 17.119 L18.595 17.079 18.595 16.56 C18.595 16.392 18.634 16.228 18.707 16.07 Z M11.111 14.661 C11.609 15.747 13.728 16.564 16.268 16.564 16.757 16.564 17.231 16.533 17.68 16.476 L17.736 16.469 17.736 17.969 C17.27 18.03 16.778 18.063 16.268 18.063 13.388 18.063 11.047 17.013 11.001 15.71 L11 15.67 11 15.151 C11 14.983 11.038 14.819 11.111 14.661 Z M18.707 13.252 C19.207 14.338 21.337 15.155 23.888 15.155 25.592 15.155 27.108 14.791 28.076 14.225 L25.742 16.503 C25.165 16.601 24.54 16.654 23.888 16.654 20.994 16.654 18.643 15.604 18.596 14.3 L18.595 14.261 18.595 13.742 C18.595 13.574 18.634 13.41 18.707 13.252 Z M16.268 10.055 C16.757 10.055 17.231 10.086 17.68 10.142 L17.736 10.15 17.736 15.254 C17.27 15.315 16.778 15.348 16.268 15.348 13.388 15.348 11.047 14.3 11.001 13 L11 12.961 11 12.443 C11 11.124 13.359 10.055 16.268 10.055 Z M29.069 10.605 C29.139 10.757 29.178 10.914 29.181 11.075 L29.181 11.096 29.181 11.615 C29.181 12.936 26.811 14.008 23.888 14.008 20.994 14.008 18.643 12.958 18.596 11.654 L18.595 11.615 18.595 11.096 C18.595 10.927 18.634 10.764 18.707 10.605 19.207 11.692 21.337 12.508 23.888 12.508 26.44 12.508 28.569 11.692 29.069 10.605 Z M38.961 7.625 L38.98 7.644 40.629 9.293 C41.119 9.782 41.124 10.568 40.644 11.064 L40.629 11.079 38.787 12.921 35.089 9.224 36.669 7.644 C37.302 7.013 38.322 7.007 38.961 7.625 Z M23.888 6 C26.782 6 29.133 7.048 29.18 8.348 L29.181 8.387 29.181 8.905 C29.181 10.224 26.811 11.293 23.888 11.293 20.994 11.293 18.643 10.245 18.596 8.945 L18.595 8.905 18.595 8.387 C18.595 7.069 20.965 6 23.888 6 Z" fill="#2c3341" fill-opacity="1" stroke="none"/>
  </g>
  <path id="Rectangle-1" d="M56.5 0.5 L106.5 0.5 106.5 31.5 56.5 31.5 Z" fill="#ffffff" fill-opacity="1" stroke="#d0d0d0" stroke-width="1" stroke-opacity="1" stroke-linejoin="round" stroke-linecap="round"/>
  <g id="g191-copy">
   <g id="g173">
    <path id="path163" d="M72 8.611 L72 23.626 C72 24.345 72.588 24.933 73.307 24.933 L82.278 24.933 C89.06 24.933 92 21.137 92 16.099 92 11.088 89.06 7.304 82.278 7.304 L73.307 7.304 C72.588 7.304 72 7.893 72 8.611 Z" fill="#ffffff" fill-opacity="1" stroke="none"/>
    <path id="path165" d="M78.005 10.99 L78.005 22.084 82.833 22.084 C87.217 22.084 89.119 19.608 89.119 16.106 89.119 12.754 87.217 10.153 82.833 10.153 L78.841 10.153 C78.377 10.153 78.005 10.532 78.005 10.99 Z" fill="#cc0066" fill-opacity="1" stroke="none"/>
    <g id="g171">
     <g id="g169">
      <path id="path167" d="M82.278 23.737 L74.476 23.737 C73.784 23.737 73.222 23.175 73.222 22.483 L73.222 9.761 C73.222 9.069 73.784 8.507 74.476 8.507 L82.278 8.507 C89.68 8.507 90.785 13.27 90.785 16.106 90.785 21.025 87.76 23.737 82.278 23.737 Z M74.476 8.925 C74.012 8.925 73.64 9.297 73.64 9.761 L73.64 22.483 C73.64 22.946 74.012 23.319 74.476 23.319 L82.278 23.319 C87.492 23.319 90.367 20.758 90.367 16.106 90.367 9.859 85.296 8.925 82.278 8.925 Z" fill="#000000" fill-opacity="1" stroke="none"/>
     </g>
    </g>
   </g>
   <g id="g183">
    <path id="path175" d="M79.703 14.609 C79.873 14.609 80.03 14.635 80.18 14.688 80.331 14.74 80.455 14.825 80.566 14.929 80.67 15.04 80.755 15.178 80.821 15.335 80.879 15.498 80.912 15.687 80.912 15.909 80.912 16.106 80.886 16.282 80.84 16.445 80.788 16.609 80.716 16.752 80.618 16.87 80.52 16.988 80.396 17.079 80.246 17.151 80.095 17.216 79.919 17.255 79.716 17.255 L78.573 17.255 78.573 14.603 79.703 14.603 Z M79.664 16.772 C79.749 16.772 79.828 16.759 79.912 16.733 79.991 16.707 80.063 16.661 80.122 16.596 80.18 16.53 80.233 16.452 80.272 16.347 80.311 16.243 80.331 16.125 80.331 15.975 80.331 15.844 80.318 15.72 80.291 15.615 80.265 15.511 80.22 15.413 80.161 15.341 80.102 15.269 80.024 15.204 79.926 15.165 79.828 15.125 79.71 15.106 79.566 15.106 L79.148 15.106 79.148 16.778 79.664 16.778 Z" fill="#ffffff" fill-opacity="1" stroke="none"/>
    <path id="path177" d="M83.271 14.609 L83.271 15.099 81.873 15.099 81.873 15.668 83.16 15.668 83.16 16.119 81.873 16.119 81.873 16.765 83.303 16.765 83.303 17.255 81.291 17.255 81.291 14.603 83.271 14.603 Z" fill="#ffffff" fill-opacity="1" stroke="none"/>
    <path id="path179" d="M85.27 14.609 L86.263 17.262 85.656 17.262 85.453 16.674 84.46 16.674 84.251 17.262 83.663 17.262 84.663 14.609 Z M85.303 16.236 L84.97 15.263 84.963 15.263 84.617 16.236 Z" fill="#ffffff" fill-opacity="1" stroke="none"/>
    <path id="path181" d="M87.211 14.609 L87.211 16.772 88.504 16.772 88.504 17.262 86.629 17.262 86.629 14.609 Z" fill="#ffffff" fill-opacity="1" stroke="none"/>
   </g>
   <g id="g187">
    <path id="circle185" d="M77.044 15.936 C77.044 16.61 76.497 17.157 75.822 17.157 75.147 17.157 74.6 16.61 74.6 15.936 74.6 15.261 75.147 14.714 75.822 14.714 76.497 14.714 77.044 15.261 77.044 15.936 Z" fill="#000000" fill-opacity="1" stroke="none"/>
   </g>
   <path id="path189" d="M76.744 22.084 C75.718 22.084 74.894 21.254 74.894 20.235 L74.894 18.791 C74.894 18.281 75.306 17.863 75.822 17.863 76.332 17.863 76.75 18.275 76.75 18.791 L76.75 22.084 Z" fill="#000000" fill-opacity="1" stroke="none"/>
  </g>
 </g>
</svg>
