<svg height="32" viewBox="0 0 51 32" width="51" xmlns="http://www.w3.org/2000/svg"><g fill="none" fill-rule="evenodd"><path d="m.5.5h50v31h-50z" fill="#fff" stroke="#d0d0d0"/><path d="m3.92516895 19.4445479c.18945719.0232624.33194339.1176074.43727707.2447681.05605185.0676668.09745358.1398877.13365896.2216558l.01102306.0255836c.03806236.0907767.07094797.1950634.10703998.3302121l.00849246.0325694c.02519148.100763.16027614.6586594.21064196.8376284.08353781.2968418.16882753.524575.26144941.688641.04379805.0775817.08632192.1353358.12461992.172747.0139609.0136376.02607037.0233074.03612178.0296235.00575627.0036171.00953471.0053785.01213292.0061885.08304034.0258858.10655228.0235116.12912761.0100528.04024235-.0239914.09568082-.085644.172472-.2018781l.01313992-.0201544.1447731-.2305198c.06136325-.0952879.1148079-.1692915.17647962-.2384777.09771199-.1096178.20699537-.1958884.34313855-.25293.17025185-.0713326.34370844-.0726717.51047934-.0272559.10259808.02794.19686948.0714773.29784142.1306264l.02209732.0131244.02392541.0146124c.0441404.0273365.09024769.0579439.14562415.0961541l.22762648.1587674.03164226.0214361.0276747.0184108c.39275903.2589334.61883928.3050032.87486477.1577613l.01269313-.0074439.01279788-.0077943c.27958799-.1734205.64682394-.0873547.82024444.1922333s.08735475.6468239-.19223324.8202444c-.01976272.0122583-.03960455.0241159-.05952533.0355725-.42114102.2422009-.86165602.2970884-1.29797791.1902668-.30353949-.0743135-.56390604-.2082207-.87490317-.418318l-.02284761-.0155092c-.02091846-.0142665-.041538-.028487-.06431228-.0443377l-.0930323-.0652271-.05655084.0898412-.01879075.0292343c-.17122681.2622409-.33538562.4467053-.56723711.5849288-.31991702.1907258-.69437807.2285385-1.09380405.1040268-.36804684-.1147299-.64300839-.3833243-.85581883-.7602865-.12009138-.2127241-.21880325-.4558761-.30894863-.74314l-.00799089-.0256671-.03222312.0812921c-.06963986.174138-.1279434.3091931-.18786942.4334716l-.0128569.026448c-.06771459.13817-.13376133.253133-.204568.3497318-.11827806.161362-.24998095.2795785-.44019818.3406868-.24413771.0784305-.46016888.020489-.65746548-.1044571-.10743156-.0680354-.20988651-.1582327-.31755239-.2720868-.15527264-.164197-.32520758-.3824602-.51988838-.6593592l-.01674776-.0238779c-.05197467-.0742776-.10551431-.1524357-.16144274-.235512l-.04734171-.0706279c-.03970048-.0594812-.08034918-.1210066-.12438822-.1881944l-.29694143-.4560652-.04404345-.0667658-.03583388-.0535504c-.01979339-.0293116-.03658633-.0536537-.05076771-.073589l-.01066641-.0148106-.00083005-.0007348c-.13738673-.1235287-.21530107-.3088662-.1945785-.5057848l.00125049-.0101844c.04009559-.3265524.3373225-.5587715.66387488-.5186759.14212008.0174502.23210209.0675703.31719894.1371909.0321637.0263142.05862256.0525482.08440468.0812754.02635551.0293661.0518771.0614232.07982633.0991968l.01060113.014439c.04183005.0573923.09111646.1298659.15793969.2313475l.29080009.4465747.05946218.0906503c.02390135.0363033.04683605.0709598.06927866.1046736l.05908695.0882722.0386134.0571165c.03815148.0561882.07494882.1096313.1106769.1606908l.03163418.044976.03405993.0478801c.04489335.0627195.08769738.1209399.12829448.1744655l.021252.0278452.01543043-.0369005.012558-.0304922c.03815557-.093151.08074991-.2016047.13061366-.3317174l.16369076-.4284058c.15193324-.3951736.19028931-.480272.27737091-.6429282l.00337366-.0062951c.05588737-.1041804.11193164-.190093.17919037-.2647676.05479225-.0608335.11624262-.1135021.19158799-.1565065.11922318-.0680481.25862619-.1023712.40900636-.0839068zm7.13944735-.988187 3.202836 3.2046232-3.571048.8658431c-.2598506.0631862-.4946879-.1666369-.4428345-.4258849l.0016772-.0079451zm-10.39050429 2.2681275.00225069.0018405c.05944729.0478209.12935162.0826721.22765559.0981595-.08163809-.0128617-.15738036-.0463439-.22444584-.0958793zm19.36823879-11.24770879 3.204653 3.20462319-8.1118617 8.1118617-3.202836-3.2046232zm-13.36321886 7.53212049c.35216307.764976 1.63610494 1.3754318 3.29091995 1.5776442l-.3277248 1.2533535c-1.75984621-.2809129-3.02719521-1.0335895-3.05905327-1.9220967l-.00061453-.0343005v-.4498225c0-.1455251.03333692-.2876011.09647265-.424778zm-6.58297649-1.2212565c.43211177.9417388 2.27172144 1.6493362 4.47577359 1.6493362.42464503 0 .83538725-.0266931 1.22550131-.075849l.04865634-.0062611v.5508239c0 .2516607.05806942.4945813.17064261.7249209-.45417188.0685884-.93984702.1058222-1.44480026.1058222-2.49975131 0-4.53094268-.9101297-4.57131653-2.0398909l-.00061251-.0343017v-.4498226c0-.1456034.03322731-.2876402.09615545-.4247779zm6.58297649-1.1020742c.43353727.9417388 2.27921567 1.6493362 4.49053876 1.6493362.1028286 0 .2048665-.0015301.3060085-.0045428l-1.22935 1.1997494-.0158946.0607312c-2.05898119-.1937272-3.61185279-1.0116096-3.64716078-1.9963338l-.00061453-.0343005v-.4498617c0-.1456035.03333692-.2876011.09647265-.424778zm-6.58310926-1.2212173c.43151512.9417387 2.26858471 1.6493362 4.46959357 1.6493362.42405869 0 .83423377-.0266931 1.22380917-.075849l.04858915-.0062612v1.299888c-.40392914.0531071-.83078791.081679-1.27239832.081679-2.49629973 0-4.52468648-.9101296-4.56500459-2.0398528l-.00061166-.0343005v-.4498226c0-.1456034.03318143-.2876403.09602268-.4248171zm6.58310926-1.2212174c.43353727.9417263 2.27921567 1.6493143 4.49053876 1.6493143 1.4768194 0 2.7905554-.315578 3.6294891-.805743l-2.0230095 1.9744589c-.4999677.084541-1.041288.1307629-1.6064796.1307629-2.50799774 0-4.54588984-.9101176-4.58639688-2.0398638l-.00061453-.0343012v-.4498166c0-.1456407.03333692-.2876756.09647265-.4248115zm-2.11351569-2.77007831c.42394599 0 .83433293.02626805 1.22382161.07527579l.04857671.00624415v4.42393247c-.40392914.0530564-.83078791.081559-1.27239832.081559-2.49629973 0-4.52468648-.9079979-4.56500459-2.0349435l-.00061166-.0342162v-.4487311c0-1.1427648 2.04410138-2.06912061 4.56561625-2.06912061zm11.09459325.47657262c.0605051.13142359.0936429.26734659.0962993.40663069l.0001734.0181865v.4498225c0 1.1455444-2.0537197 2.0741534-4.5870115 2.0741534-2.50799774 0-4.54588984-.9101297-4.58639688-2.0398529l-.00061453-.0343005v-.4498225c0-.1456427.03333692-.2876795.09647265-.42481719.43353727.94177799 2.27921567 1.64933619 4.49053876 1.64933619 2.2113232 0 4.0570016-.7075582 4.4905388-1.64933619zm8.572682-2.6912868.0166722.01640384 1.4291519 1.42915192c.4240954.42409542.4283364 1.10544001.0127229 1.53470933l-.0127229.0129305-1.5968459 1.5968459-3.204653-3.20465302 1.3689846-1.36898463c.5486524-.5467947 1.4331418-.55226265 1.9866902-.01640384zm-13.0632208-1.30000888c2.5079589 0 4.5458891.90792906 4.5863969 2.03492067l.0006146.0342176v.44873491c0 1.14277458-2.0537197 2.06913829-4.5870115 2.06913829-2.50799774 0-4.54588984-.90792907-4.58639688-2.03492069l-.00061453-.0342176v-.44873491c0-1.14277457 2.05368036-2.06913827 4.58701141-2.06913827z" fill="#2c3341" fill-rule="nonzero" transform="translate(5 3)"/><g transform="translate(34 3.933)"><path d="m.00603431.01106158v12.02727272h7.17755474c4.73475915 0 6.78775185-2.59044727 6.78775185-6.0255915 0-3.42151687-2.0529927-6.00168122-6.78775185-6.00168122z" fill="#fff"/><g fill="#000"><path d="m7.18552044.89781396c5.11975916 0 5.88418976 3.22335926 5.88418976 5.14436178 0 3.33297173-2.0895766 5.16849156-5.88418976 5.16849156h-6.27542336v-10.31285334zm-5.78138686.48490352v9.34279552h5.78138686c3.49116056 0 5.39030656-1.59662989 5.39030656-4.68333726 0-3.17203955-2.0586131-4.65945826-5.39030656-4.65945826z"/><path d="m2.18 9.964h1.851v-3.235h-1.851z"/><path d="m4.25520803 5.09979942c0 .6237627-.51483212 1.12948507-1.15019708 1.12948507-.6350073 0-1.15035037-.50572237-1.15035037-1.12948507 0-.62331122.51534307-1.12928441 1.15035037-1.12928441.63536496 0 1.15019708.50597319 1.15019708 1.12928441"/></g><path d="m7.88655255 5.62834224v.52338076h-1.31886131v-2.10114824h1.27629927v.52318009h-.74312409v.24360557h.70281022v.5230296h-.70281022v.28795222zm.2560365.52403292.64563504-2.10265322h.75840146l.64543065 2.10265322h-.5549927l-.1209416-.40674506h-.69739416l-.12135037.40674506zm.8319781-.92972449h.38566424l-.17632847-.594215h-.0320365zm1.48537955-1.17287857h.533073v1.57857014h.7900292c-.2166423-2.86432196-2.51172262-3.48311825-4.59710948-3.48311825h-2.22334307v1.90565176h.32910219c.6000073 0 .97279562.39947101.97279562 1.04209609 0 .66299243-.36384671 1.05875116-.97279562 1.05875116h-.32910219v3.81315965h2.22334307c3.39065698 0 4.57059128-1.5459623 4.61223358-3.81315965h-1.3382263zm-5.4978102.52438408v1.05418606h.32956204c.22834307 0 .43926277-.06481433.43926277-.5353704 0-.45987074-.23472992-.51881566-.43926277-.51881566z" fill="#c06"/></g></g></svg>