<?xml version="1.0" encoding="UTF-8"?>
<svg width="51px" height="32px" viewBox="0 0 51 32" xmlns="http://www.w3.org/2000/svg" xmlns:xlink="http://www.w3.org/1999/xlink" version="1.1">
 <g id="group">
  <path id="Path" d="M0.5 0.5 L50.5 0.5 50.5 31.5 0.5 31.5 Z" fill="#ffffff" fill-opacity="1" stroke="#d0d0d0" stroke-width="1" stroke-opacity="1" stroke-linejoin="round"/>
  <path id="Path-1" d="M11.821 15.887 C11.806 15.66 11.746 15.433 11.625 15.237 L10.597 13.438 C10.522 13.302 10.461 13.151 10.431 13 L10.386 13.076 C10.129 13.514 10.129 14.073 10.386 14.511 L11.217 15.947 C11.474 16.385 11.474 16.945 11.217 17.383 L11.172 17.458 C11.141 17.307 11.081 17.156 11.005 17.02 L10.25 15.705 9.766 14.859 C9.69 14.723 9.63 14.572 9.6 14.421 L9.554 14.496 C9.297 14.935 9.297 15.479 9.554 15.932 L10.386 17.368 C10.643 17.806 10.643 18.365 10.386 18.804 L10.34 18.879 C10.31 18.728 10.25 18.577 10.174 18.441 L9.131 16.642 C8.995 16.401 8.935 16.128 8.935 15.856 7.831 16.144 7.061 16.763 7.061 17.474 7.061 18.471 8.542 19.272 10.371 19.272 12.199 19.272 13.68 18.471 13.68 17.474 13.695 16.793 12.94 16.174 11.821 15.887 Z M14.95 18.955 C14.965 18.698 14.995 18.531 15.071 18.32 15.418 18.486 15.872 18.562 16.204 18.562 16.779 18.562 17.111 18.38 17.111 18.003 17.111 17.64 16.869 17.474 16.295 17.217 L15.978 17.096 C15.388 16.839 14.995 16.506 14.995 15.856 14.995 15.146 15.494 14.693 16.491 14.693 16.9 14.693 17.277 14.753 17.625 14.874 17.61 15.116 17.564 15.312 17.504 15.494 17.172 15.373 16.763 15.312 16.476 15.312 15.932 15.312 15.69 15.524 15.69 15.856 15.69 16.174 15.932 16.37 16.371 16.552 L16.703 16.688 C17.489 17.02 17.821 17.383 17.821 17.987 17.821 18.698 17.277 19.196 16.219 19.196 15.721 19.196 15.297 19.121 14.95 18.955 Z M21.161 15.977 L21.161 19.091 20.527 19.091 20.496 18.713 C20.315 18.985 20.058 19.166 19.62 19.166 18.804 19.166 18.245 18.562 18.245 17.519 18.245 16.431 18.834 15.796 19.983 15.796 20.436 15.811 20.814 15.856 21.161 15.977 Z M20.481 18.38 L20.481 16.431 C20.345 16.401 20.179 16.401 19.983 16.401 19.272 16.401 18.94 16.839 18.94 17.534 18.94 18.169 19.197 18.622 19.801 18.622 20.088 18.607 20.3 18.516 20.481 18.38 Z M24.668 17.005 L24.668 19.091 23.988 19.091 23.988 17.126 C23.988 16.627 23.821 16.401 23.141 16.401 22.975 16.401 22.794 16.416 22.597 16.446 L22.597 19.091 21.917 19.091 21.917 15.977 C22.355 15.872 22.839 15.796 23.156 15.796 24.305 15.811 24.668 16.249 24.668 17.005 Z M26.572 18.592 C26.769 18.592 26.965 18.562 27.101 18.501 27.086 18.683 27.056 18.894 27.025 19.076 26.844 19.151 26.633 19.181 26.451 19.181 25.786 19.181 25.363 18.879 25.363 18.123 L25.363 14.844 C25.575 14.768 25.831 14.738 26.043 14.738 L26.043 15.917 27.131 15.917 C27.116 16.128 27.101 16.325 27.071 16.506 L26.043 16.506 26.043 18.033 C26.043 18.426 26.24 18.592 26.572 18.592 Z M30.245 15.977 L30.245 19.091 29.61 19.091 29.58 18.713 C29.398 18.985 29.141 19.166 28.703 19.166 27.887 19.166 27.328 18.562 27.328 17.519 27.328 16.431 27.917 15.796 29.066 15.796 29.519 15.811 29.882 15.856 30.245 15.977 Z M29.549 18.38 L29.549 16.431 C29.413 16.401 29.247 16.401 29.051 16.401 28.34 16.401 28.008 16.839 28.008 17.534 28.008 18.169 28.265 18.622 28.869 18.622 29.156 18.607 29.383 18.516 29.549 18.38 Z M33.751 17.005 L33.751 19.091 33.056 19.091 33.056 17.126 C33.056 16.627 32.889 16.401 32.209 16.401 32.043 16.401 31.862 16.416 31.665 16.446 L31.665 19.091 30.985 19.091 30.985 15.977 C31.423 15.872 31.907 15.796 32.224 15.796 33.373 15.811 33.751 16.249 33.751 17.005 Z M37.212 14.738 L37.212 19.091 36.577 19.091 36.547 18.698 C36.365 18.985 36.109 19.166 35.655 19.166 34.839 19.166 34.28 18.562 34.28 17.519 34.28 16.431 34.869 15.796 36.018 15.796 36.199 15.796 36.365 15.811 36.532 15.841 L36.532 14.814 C36.743 14.753 36.985 14.738 37.212 14.738 Z M36.532 18.38 L36.532 16.461 C36.35 16.431 36.169 16.401 35.988 16.401 35.308 16.401 34.99 16.824 34.99 17.534 34.99 18.169 35.247 18.622 35.852 18.622 36.124 18.607 36.35 18.516 36.532 18.38 Z M40.658 17.761 L38.466 17.761 C38.557 18.32 38.874 18.577 39.494 18.577 39.872 18.577 40.25 18.501 40.582 18.335 40.552 18.516 40.522 18.758 40.476 18.955 40.159 19.091 39.842 19.151 39.464 19.151 38.315 19.151 37.771 18.516 37.771 17.458 37.771 16.537 38.194 15.796 39.282 15.796 40.265 15.796 40.688 16.431 40.688 17.217 40.688 17.428 40.688 17.579 40.658 17.761 Z M38.466 17.186 L40.008 17.186 C40.008 16.673 39.736 16.37 39.267 16.37 38.769 16.385 38.512 16.657 38.466 17.186 Z M43.061 15.841 C43.061 16.053 43.03 16.295 43 16.431 42.834 16.416 42.683 16.401 42.486 16.401 42.32 16.401 42.154 16.416 41.988 16.431 L41.988 19.091 41.308 19.091 41.308 15.977 C41.595 15.872 42.093 15.796 42.471 15.796 42.668 15.811 42.91 15.811 43.061 15.841 Z" fill="#ea1d25" fill-opacity="1" stroke="none"/>
 </g>
</svg>
