<svg height="32" viewBox="0 0 51 32" width="51" xmlns="http://www.w3.org/2000/svg"><path d="m.5.5h50v31h-50z" fill="#fff" stroke="#d0d0d0" stroke-linejoin="round"/><path d="m11.821 15.887c-.015-.227-.075-.454-.196-.65l-1.028-1.799c-.075-.136-.136-.287-.166-.438l-.045.076c-.257.438-.257.997 0 1.435l.831 1.436c.257.438.257.998 0 1.436l-.045.075c-.031-.151-.091-.302-.167-.438l-.755-1.315-.484-.846c-.076-.136-.136-.287-.166-.438l-.046.075c-.257.439-.257.983 0 1.436l.832 1.436c.257.438.257.997 0 1.436l-.046.075c-.03-.151-.09-.302-.166-.438l-1.043-1.799c-.136-.241-.196-.514-.196-.786-1.104.288-1.874.907-1.874 1.618 0 .997 1.481 1.798 3.31 1.798 1.828 0 3.309-.801 3.309-1.798.015-.681-.74-1.3-1.859-1.587zm3.129 3.068c.015-.257.045-.424.121-.635.347.166.801.242 1.133.242.575 0 .907-.182.907-.559 0-.363-.242-.529-.816-.786l-.317-.121c-.59-.257-.983-.59-.983-1.24 0-.71.499-1.163 1.496-1.163.409 0 .786.06 1.134.181-.015.242-.061.438-.121.62-.332-.121-.741-.182-1.028-.182-.544 0-.786.212-.786.544 0 .318.242.514.681.696l.332.136c.786.332 1.118.695 1.118 1.299 0 .711-.544 1.209-1.602 1.209-.498 0-.922-.075-1.269-.241zm6.211-2.978v3.114h-.634l-.031-.378c-.181.272-.438.453-.876.453-.816 0-1.375-.604-1.375-1.647 0-1.088.589-1.723 1.738-1.723.453.015.831.06 1.178.181zm-.68 2.403v-1.949c-.136-.03-.302-.03-.498-.03-.711 0-1.043.438-1.043 1.133 0 .635.257 1.088.861 1.088.287-.015.499-.106.68-.242zm4.187-1.375v2.086h-.68v-1.965c0-.499-.167-.725-.847-.725-.166 0-.347.015-.544.045v2.645h-.68v-3.114c.438-.105.922-.181 1.239-.181 1.149.015 1.512.453 1.512 1.209zm1.904 1.587c.197 0 .393-.03.529-.091-.015.182-.045.393-.076.575-.181.075-.392.105-.574.105-.665 0-1.088-.302-1.088-1.058v-3.279c.212-.076.468-.106.68-.106v1.179h1.088c-.015.211-.03.408-.06.589h-1.028v1.527c0 .393.197.559.529.559zm3.673-2.615v3.114h-.635l-.03-.378c-.182.272-.439.453-.877.453-.816 0-1.375-.604-1.375-1.647 0-1.088.589-1.723 1.738-1.723.453.015.816.06 1.179.181zm-.696 2.403v-1.949c-.136-.03-.302-.03-.498-.03-.711 0-1.043.438-1.043 1.133 0 .635.257 1.088.861 1.088.287-.015.514-.106.68-.242zm4.202-1.375v2.086h-.695v-1.965c0-.499-.167-.725-.847-.725-.166 0-.347.015-.544.045v2.645h-.68v-3.114c.438-.105.922-.181 1.239-.181 1.149.015 1.527.453 1.527 1.209zm3.461-2.267v4.353h-.635l-.03-.393c-.182.287-.438.468-.892.468-.816 0-1.375-.604-1.375-1.647 0-1.088.589-1.723 1.738-1.723.181 0 .347.015.514.045v-1.027c.211-.061.453-.076.68-.076zm-.68 3.642v-1.919c-.182-.03-.363-.06-.544-.06-.68 0-.998.423-.998 1.133 0 .635.257 1.088.862 1.088.272-.015.498-.106.68-.242zm4.126-.619h-2.192c.091.559.408.816 1.028.816.378 0 .756-.076 1.088-.242-.03.181-.06.423-.106.62-.317.136-.634.196-1.012.196-1.149 0-1.693-.635-1.693-1.693 0-.921.423-1.662 1.511-1.662.983 0 1.406.635 1.406 1.421 0 .211 0 .362-.03.544zm-2.192-.575h1.542c0-.513-.272-.816-.741-.816-.498.015-.755.287-.801.816zm4.595-1.345c0 .212-.031.454-.061.59-.166-.015-.317-.03-.514-.03-.166 0-.332.015-.498.03v2.66h-.68v-3.114c.287-.105.785-.181 1.163-.181.197.015.439.015.59.045z" fill="#ea1d25"/></svg>