<?xml version="1.0" encoding="UTF-8"?>
<svg width="640px" height="360px" viewBox="0 0 640 360" xmlns="http://www.w3.org/2000/svg" xmlns:xlink="http://www.w3.org/1999/xlink" version="1.1">
 <path id="Path" d="M143.476 176.889 C143.275 173.866 142.469 170.843 140.856 168.224 L127.154 144.244 C126.146 142.43 125.34 140.415 124.937 138.4 L124.332 139.408 C120.907 145.251 120.907 152.707 124.332 158.551 L135.416 177.695 C138.841 183.539 138.841 190.994 135.416 196.838 L134.811 197.846 C134.408 195.831 133.602 193.816 132.594 192.002 L122.519 174.471 116.071 163.186 C115.063 161.372 114.257 159.357 113.854 157.342 L113.249 158.35 C109.824 164.193 109.824 171.448 113.249 177.493 L124.332 196.637 C127.758 202.481 127.758 209.937 124.332 215.78 L123.728 216.788 C123.325 214.773 122.519 212.758 121.511 210.944 L107.607 186.964 C105.793 183.74 104.987 180.113 104.987 176.486 90.277 180.314 80 188.576 80 198.047 80 211.347 99.748 222.027 124.131 222.027 148.514 222.027 168.262 211.347 168.262 198.047 168.463 188.979 158.388 180.717 143.476 176.889 Z M185.189 217.795 C185.39 214.37 185.793 212.153 186.801 209.332 191.436 211.549 197.481 212.556 201.914 212.556 209.572 212.556 214.005 210.138 214.005 205.1 214.005 200.264 210.781 198.047 203.123 194.622 L198.892 193.01 C191.033 189.584 185.793 185.151 185.793 176.486 185.793 167.015 192.443 160.969 205.743 160.969 211.184 160.969 216.222 161.775 220.856 163.387 220.655 166.612 220.05 169.231 219.244 171.649 214.811 170.037 209.37 169.231 205.542 169.231 198.287 169.231 195.063 172.052 195.063 176.486 195.063 180.717 198.287 183.337 204.131 185.755 L208.564 187.569 C219.043 192.002 223.476 196.838 223.476 204.899 223.476 214.37 216.222 221.02 202.116 221.02 195.466 221.02 189.824 220.012 185.189 217.795 Z M268.01 178.098 L268.01 219.609 259.547 219.609 259.144 214.571 C256.725 218.198 253.3 220.617 247.456 220.617 236.574 220.617 229.118 212.556 229.118 198.652 229.118 184.143 236.977 175.68 252.292 175.68 258.338 175.881 263.375 176.486 268.01 178.098 Z M258.942 210.138 L258.942 184.143 C257.128 183.74 254.912 183.74 252.292 183.74 242.821 183.74 238.388 189.584 238.388 198.853 238.388 207.317 241.814 213.362 249.874 213.362 253.703 213.161 256.524 211.952 258.942 210.138 Z M314.761 191.8 L314.761 219.609 305.693 219.609 305.693 193.413 C305.693 186.763 303.476 183.74 294.408 183.74 292.191 183.74 289.773 183.942 287.154 184.345 L287.154 219.609 278.086 219.609 278.086 178.098 C283.929 176.687 290.378 175.68 294.61 175.68 309.924 175.881 314.761 181.725 314.761 191.8 Z M340.151 212.959 C342.771 212.959 345.39 212.556 347.204 211.75 347.003 214.168 346.6 216.989 346.197 219.408 343.778 220.415 340.957 220.818 338.539 220.818 329.673 220.818 324.03 216.788 324.03 206.712 L324.03 162.984 C326.851 161.977 330.277 161.574 333.098 161.574 L333.098 177.292 347.607 177.292 C347.406 180.113 347.204 182.732 346.801 185.151 L333.098 185.151 333.098 205.503 C333.098 210.743 335.718 212.959 340.151 212.959 Z M389.118 178.098 L389.118 219.609 380.655 219.609 380.252 214.571 C377.834 218.198 374.408 220.617 368.564 220.617 357.683 220.617 350.227 212.556 350.227 198.652 350.227 184.143 358.086 175.68 373.401 175.68 379.446 175.881 384.282 176.486 389.118 178.098 Z M379.849 210.138 L379.849 184.143 C378.035 183.74 375.819 183.74 373.199 183.74 363.728 183.74 359.295 189.584 359.295 198.853 359.295 207.317 362.72 213.362 370.781 213.362 374.61 213.161 377.632 211.952 379.849 210.138 Z M435.869 191.8 L435.869 219.609 426.599 219.609 426.599 193.413 C426.599 186.763 424.383 183.74 415.315 183.74 413.098 183.74 410.68 183.942 408.06 184.345 L408.06 219.609 398.992 219.609 398.992 178.098 C404.836 176.687 411.285 175.68 415.516 175.68 430.831 175.881 435.869 181.725 435.869 191.8 Z M482.015 161.574 L482.015 219.609 473.552 219.609 473.149 214.37 C470.73 218.198 467.305 220.617 461.259 220.617 450.378 220.617 442.922 212.556 442.922 198.652 442.922 184.143 450.781 175.68 466.096 175.68 468.514 175.68 470.73 175.881 472.947 176.284 L472.947 162.581 C475.768 161.775 478.992 161.574 482.015 161.574 Z M472.947 210.138 L472.947 184.546 C470.529 184.143 468.111 183.74 465.693 183.74 456.625 183.74 452.393 189.382 452.393 198.853 452.393 207.317 455.819 213.362 463.879 213.362 467.506 213.161 470.529 211.952 472.947 210.138 Z M527.96 201.876 L498.741 201.876 C499.95 209.332 504.181 212.758 512.443 212.758 517.481 212.758 522.519 211.75 526.952 209.533 526.549 211.952 526.146 215.176 525.542 217.795 521.31 219.609 517.078 220.415 512.04 220.415 496.725 220.415 489.471 211.952 489.471 197.846 489.471 185.554 495.113 175.68 509.622 175.68 522.72 175.68 528.363 184.143 528.363 194.622 528.363 197.443 528.363 199.458 527.96 201.876 Z M498.741 194.219 L519.295 194.219 C519.295 187.367 515.667 183.337 509.421 183.337 502.771 183.539 499.345 187.166 498.741 194.219 Z M560 176.284 C560 179.105 559.597 182.329 559.194 184.143 556.977 183.942 554.962 183.74 552.343 183.74 550.126 183.74 547.909 183.942 545.693 184.143 L545.693 219.609 536.625 219.609 536.625 178.098 C540.453 176.687 547.103 175.68 552.141 175.68 554.761 175.881 557.985 175.881 560 176.284 Z" fill="#ea1d25" fill-opacity="1" stroke="none"/>
</svg>
