<svg xmlns="http://www.w3.org/2000/svg" width="32" height="24" fill="none"><linearGradient id="b" x2="1" gradientTransform="matrix(9.27404 0 0 4.82471 0 .002)" gradientUnits="userSpaceOnUse"><stop offset="0" stop-color="#cc612c"/><stop offset="1" stop-color="#743237"/></linearGradient><linearGradient id="c" x2="1" gradientTransform="matrix(5.73197 -1.08109 1.13105 5.47875 -1.44 .228)" gradientUnits="userSpaceOnUse"><stop offset="0" stop-color="#ffdd7f"/><stop offset="1" stop-color="#f47920"/></linearGradient><linearGradient id="e" x2="1" gradientTransform="matrix(3.31912 3.54977 -1.42436 8.27188 1.059 -1.012)" gradientUnits="userSpaceOnUse"><stop offset="0" stop-color="#2a3795"/><stop offset="1" stop-color="#222a7e"/></linearGradient><mask id="a" width="32" height="24" x="0" y="0" maskUnits="userSpaceOnUse"><path fill="#fff" d="M28 0H4a4 4 0 0 0-4 4v16a4 4 0 0 0 4 4h24a4 4 0 0 0 4-4V4a4 4 0 0 0-4-4"/></mask><g mask="url(#a)"><path fill="#fff" stroke="#e6e6e6" d="M4.5 1h23A3.5 3.5 0 0 1 31 4.5v15a3.5 3.5 0 0 1-3.5 3.5h-23A3.5 3.5 0 0 1 1 19.5v-15A3.5 3.5 0 0 1 4.5 1z"/><path fill="url(#b)" d="M8.51 0c.19.2.349.43.469.685.36.782.228 1.646-.49 2.399-.823.863-2.223 1.394-3.85 1.394-1.625 0-3.026-.53-3.845-1.394-.718-.753-.85-1.617-.49-2.4C.423.432.579.2.767 0 .537.237.357.45.192.8c-.351.752-.24 1.828.503 2.607.841.885 2.163 1.418 3.959 1.418 1.795 0 3.12-.549 3.928-1.418.793-.853.824-1.962.498-2.631A2.7 2.7 0 0 0 8.51 0" transform="translate(11.372 13.266)"/><path fill="#f47920" d="M18.563 12.362c-.762-.337-1.65-.514-2.551-.514-.9 0-1.788.174-2.55.514-.835.37-1.48.92-1.789 1.591-.36.783-.228 1.646.49 2.4.823.863 2.223 1.394 3.849 1.394s3.026-.531 3.85-1.394c.717-.754.85-1.617.489-2.4-.309-.671-.954-1.22-1.788-1.59z"/><path fill="url(#c)" d="M4.682.889c-.15-.33-.12-.627-.09-.889h-.06c-.901 0-1.788.174-2.55.514-.834.37-1.48.919-1.788 1.59-.361.783-.229 1.647.49 2.4q.075.079.157.155C3.867 4.467 5.45 2.572 4.68.889z" transform="translate(11.482 11.852)"/><g fill-rule="evenodd" clip-rule="evenodd"><path fill="#fff" d="M14.061 12.796q.835.229 1.643.55c.107-.346.222-.69.353-1.028.13.336.245.68.353 1.028a15 15 0 0 1 1.63-.542 13 13 0 0 0-1.11.848c.744.101 1.442.233 2.173.403-.73-.017-1.418.01-2.147.06.515.466.955.918 1.433 1.425-.656-.4-1.27-.736-1.953-1.081a89 89 0 0 0-.379 1.837c-.12-.614-.231-1.197-.363-1.808-.683.345-1.305.674-1.984 1.057.481-.507.932-.947 1.447-1.414-.73-.05-1.43-.06-2.176-.072.733-.17 1.457-.301 2.2-.403a13 13 0 0 0-1.12-.86m1.996 1.068v-1.35c-.128.375-.24.755-.347 1.139q.174.104.347.211m-1.668-.92q.675.321 1.323.708-.16.017-.321.037a15 15 0 0 0-1.002-.744zm1.668.92q1.304 0 2.601.14a35 35 0 0 0-2.256-.353q-.173.105-.345.213m1.667-.92q-.677.32-1.323.708l-.052-.189q.678-.291 1.375-.518zm-1.713.92c.02.652.041 1.343.047 1.974a84 84 0 0 1 .356-1.746c-.116-.078-.283-.153-.403-.228m1.96 1.343a26 26 0 0 0-1.557-1.115q.163-.015.327-.026a25 25 0 0 1 1.23 1.141m-1.914-1.343a29 29 0 0 0-2.41.134 22 22 0 0 1 2.056.095q.175-.116.354-.229m-1.913 1.344a26 26 0 0 1 1.56-1.115l.046.218q-.817.42-1.606.897"/><path fill="#c9252c" d="M16.057 12.341q.193.506.353 1.029.776-.306 1.576-.527l.057-.038q-.83.224-1.633.542c-.108-.346-.223-.69-.353-1.029q-.194.507-.353 1.029a16 16 0 0 0-1.643-.55l.056.038q.806.225 1.587.535c.107-.347.222-.691.353-1.029"/><path fill="#cb4d2c" d="M15.156 14.132c-.507.46-.973.914-1.443 1.414l.075-.046c.463-.488.874-.883 1.37-1.333zm.554-.48h-.033l-.288.033a14 14 0 0 0-1-.745v.027c.346.235.676.488 1 .75l.32-.038c.105.065.203.12.306.184h.042c-.113-.07-.232-.142-.347-.211m-1.566 1.588a29 29 0 0 1 1.606-.9v-.031q-.817.42-1.606.9z"/><path fill="#a71c20" d="M16.414 14.091a88 88 0 0 0-.357 1.746v.023q.168-.874.356-1.742c.36.239.89.607 1.558 1.123v-.034a26 26 0 0 0-1.557-1.115zm.565.046-.023-.022v.037c.496.45.893.852 1.355 1.34l.078.048c-.486-.516-.92-.958-1.41-1.403"/><path fill="#cb4d2c" d="M15.16 13.66c-.736.112-1.452.256-2.177.44h.115a22 22 0 0 1 2.085-.415v-.03l-.023.006z"/><path fill="#a71c20" d="M16.93 13.652c.744.112 1.442.257 2.173.443h-.12a21 21 0 0 0-2.05-.41zm-.528 0 .031.004q.63-.375 1.29-.688v-.023q-.675.32-1.322.707"/><path fill="#fff" d="m11.936 15.734-.042.086c.026.01.076.028.098.038q.372-.214.737-.42a1 1 0 0 1 .025-.092l-.075-.02a28 28 0 0 0-.743.408m1.651 1.371c-.035.009-.08.009-.115.018-.007-.027-.025-.054-.033-.08q.26-.331.526-.658l.114-.024a1 1 0 0 0 .033.083q-.266.328-.525.66zm6.533-1.371.042.086c-.026.01-.076.028-.098.038q-.372-.214-.737-.42a1 1 0 0 0-.025-.092l.075-.02q.374.198.744.408zm-1.65 1.371.115.018q.016-.038.032-.08-.26-.331-.526-.658l-.113-.024a1 1 0 0 1-.033.083q.266.328.525.66z"/><path fill="#cc612c" d="m11.933 15.78-.023.046-.016-.006.042-.086q.37-.21.743-.408l.075.02-.014.046c-.02-.007-.047-.011-.067-.017-.249.132-.493.264-.74.404z"/><path fill="#a71c20" d="M14.074 16.393c.01.014.02.046.03.064l.01-.01c0-.01-.024-.06-.033-.083l-.114.023a42 42 0 0 0-.526.659c0 .01.01.021.013.031.111-.141.351-.45.526-.663.026-.009.063-.014.094-.02zm6.049-.613.024.046.015-.006-.041-.086q-.37-.21-.744-.408l-.075.02q.009.024.014.046c.02-.007.047-.011.067-.017q.373.196.74.404zm-2.139.613c-.01.014-.02.046-.03.064l-.01-.01.034-.083.113.023q.267.327.526.659l-.012.031c-.111-.142-.352-.45-.527-.663-.028-.009-.065-.014-.094-.02z"/><path fill="#cb4d2c" d="M12.624 14.102c.309-1.473 2.219-1.911 3.417-1.911s3.107.432 3.416 1.91c.384 1.834-2.175 2.517-3.416 2.517s-3.8-.686-3.417-2.516m.125-.011c.29-1.423 2.139-1.845 3.292-1.845s3.001.422 3.291 1.845c.36 1.762-2.098 2.412-3.291 2.412s-3.65-.654-3.29-2.415z"/><path fill="#fff" d="M12.635 14.144c.309-1.474 2.14-1.919 3.417-1.919s3.107.445 3.416 1.919c.384 1.833-2.175 2.516-3.416 2.516s-3.8-.683-3.417-2.516m.125-.011c.29-1.423 2.138-1.846 3.292-1.846s3 .423 3.291 1.846c.36 1.761-2.098 2.413-3.291 2.413s-3.651-.652-3.292-2.413"/></g><path fill="#4f264a" d="m20.13 14.447-.56-.088-.074-.018a.67.67 0 0 1-.352-.257c-.078-.129-.267-.352-.37-.49-.142-.193-.469-.368-.516-.447a3 3 0 0 1-.148-.273.15.15 0 0 0-.158-.094c-.084.005-.092.036-.164.04a1 1 0 0 1-.173-.01.5.5 0 0 0-.105-.016c-.045.079-.113.128-.28.128a.1.1 0 0 1-.029-.004c.018.04.173.065.199.065.025 0 .173.042.206.049a.25.25 0 0 1 .162.054c.18.11.446.415.5.68.029.146.263.385.29.518-.312-.025-.728-.246-.728-.246l-.052-.027a1.2 1.2 0 0 0-.472-.114c-.54-.052-.743-.129-.796-.148-.112-.04-.096-.06-.187-.064h-.048a.2.2 0 0 1-.047.064 1.6 1.6 0 0 0-.253.317.18.18 0 0 1-.107.074c.103-.025.304-.083.304-.083.19-.027.481.065.481.065q.144.038.283.096s.768.25.956.397c.123.097.761.352.93.414q.299.135.581.303c.106.096.721.386.891.445a1.95 1.95 0 0 0 .233-1.232z" opacity=".45"/><path fill="#4f264a" d="M19.848 13.765a.5.5 0 0 0-.117.016l-.152.106c-.02.038.05.086.05.086s.192.015.192.07c.142.09.444.1.6.109a2.4 2.4 0 0 0-.148-.356c-.01 0-.13-.039-.425-.031m-1.139 2.008s-.037-.05-.232-.05c-.125 0 .053.313.053.313.112.08.515.203.601.215s.364.1.364.1q.151.024.296.07a3 3 0 0 0 .305-.348c-.34-.008-.823-.015-1.189-.22-.037-.114-.198-.08-.198-.08" opacity=".45"/><path fill="#fbb257" d="M17.675 10.06s-.115-.11-.115-.117c-.008-.039.032-.09.042-.155q-.018-.007-.035-.015c-.027-.112-.05-.313 0-.42a.3.3 0 0 0 .037-.184c-.093-.342-.278-.642-.409-.964a.7.7 0 0 1-.034-.241c-.1-.12-.217-.43-.274-.622-.117.318-.195.683-.195.767 0 .357.339.53.221 1.125-.022.114-.06.273-.103.437.07.414.07.714.174 1.194.158.165.272.372.33.6.04.154.162.517.318.572.096.033-.327.117-.447-.045-.12-.161-.316-.278-.41-.443-.075-.129-.193-.41-.267-.544l-.09.51c.123.543.05.663-.06 1.104-.048.193-.407-.7-.408-.771a1.4 1.4 0 0 0-.054-.436c-.075-.158-.067-.38-.06-.55.017-.283.016-.817.027-.958-.09-.238-.323-.669-.347-.912-.036-.378.024-.76-.026-1.137-.06.189-.125.428-.262.573q-.305.33-.578.694c-.066.098-.008.145-.112.301-.103.156-.046.085-.068.232a.1.1 0 0 1-.023.054c-.055.05-.113.09-.191.056-.15-.081-.162-.202-.172-.356-.02-.295.184-.309.3-.487.227-.351.341-.938.584-1.203.015-.052.072-.24.18-.522.003-.349.084-.658.421-.802.138-.058.317-.074.324-.276a.3.3 0 0 0-.018-.11c-.055-.047-.094-.048-.12-.082-.054-.075-.1-.554-.093-.584.078-.407.26-.543.49-.53.273.013.49.154.477.545-.009.316-.313.72.142.873.174.058.207.018.356.178.168.18.209.5.237.797l.17.424c.314.564.2.742.316 1.317q.081.297.092.605c.006.156-.108.5-.267.508"/><path fill="url(#e)" d="M.237 4.696c.015-.15-.006-.137.084-.277.083-.128.043-.193.116-.306q.261-.37.555-.707c.136-.147.32-.643.364-.818.008-.026.02-.038.026-.016.029.332.073.61.06.936-.023.687-.005.615.261 1.256.023-.257.081-.632.222-.759-.164.669-.175 1.62-.192 1.914-.01.149-.047.385.02.52q.03.17.026.34l.004 1.172-.096.514a.97.97 0 0 1-.345.475c-.042.025-.14.082-.14.129 0 .08.488.232.6.048a1.6 1.6 0 0 1 .252-.318c.155-.158-.016-.32.004-.534.036-.372.185-.695.234-1.047a1.2 1.2 0 0 0-.066-.64l.066-.67q.116.22.208.452c.12.272.124.3.335.522q.113.117.198.257c.1.169.169.336.16.538-.074.142-.105.133-.2.219.004.004-.025.083.064.083.318 0 .279-.178.4-.409.077-.149.3-.375.055-.453a.34.34 0 0 1-.193-.154c-.17-.303-.176-.296-.265-.575a.9.9 0 0 0-.29-.416 1.8 1.8 0 0 1-.135-.528c-.034-.275-.06-.471-.101-.752.124-.527.188-.638-.023-1.144a1 1 0 0 1-.076-.378 2.6 2.6 0 0 1 .17-.743.3.3 0 0 1 .13-.178c.05.204.227.624.33.727a.8.8 0 0 0 .033.244c.129.33.315.632.407.981.032.12-.01.178-.043.275a1 1 0 0 0 .008.281l.044.026a2 2 0 0 1-.043.154c.005.047.06.074.06.074.07-.017.172-.291.168-.401q-.012-.3-.095-.586c-.105-.57-.044-.726-.342-1.278l-.17-.45c-.02-.23-.107-.753-.381-.847-.047-.016-.093-.019-.163-.043-.36-.125-.36-.42-.26-.743.087-.287.098-.626-.297-.661-.244-.022-.319.183-.371.42 0 .026.014.412.067.495.105.083.163.058.156.267-.005.174-.109.278-.25.33-.23.087-.347.138-.425.391a1.3 1.3 0 0 0-.046.365v.017q-.112.275-.199.56c-.283.304-.42.995-.71 1.286-.19.193-.248.206-.18.505.008.03.099.108.12.119.022.01.09-.043.09-.06z" transform="translate(14.172 4.937)"/></g></svg>