<svg xmlns="http://www.w3.org/2000/svg" width="40" height="40" fill="none"><path fill="#fff" d="M0 0h40v40H0z"/><path fill="#F60" d="M28.63 23.296a5.5 5.5 0 0 1 1.046 1.421c.805 1.627.51 3.423-1.095 4.987-1.84 1.793-4.968 2.896-8.602 2.895-3.633-.001-6.762-1.106-8.6-2.902-1.603-1.565-1.899-3.36-1.093-4.988a5.5 5.5 0 0 1 1.043-1.423c-.513.493-.918.93-1.286 1.664-.786 1.564-.536 3.798 1.123 5.418 1.883 1.84 4.83 2.951 8.843 2.952 4.024.002 6.971-1.14 8.778-2.945 1.773-1.772 1.841-4.076 1.115-5.468a5.6 5.6 0 0 0-1.272-1.611"/><path fill="url(#a)" d="M28.63 23.296a5.5 5.5 0 0 1 1.046 1.421c.805 1.627.51 3.423-1.095 4.987-1.84 1.793-4.968 2.896-8.602 2.895-3.633-.001-6.762-1.106-8.6-2.902-1.603-1.565-1.899-3.36-1.093-4.988a5.5 5.5 0 0 1 1.043-1.423c-.513.493-.918.93-1.286 1.664-.786 1.564-.536 3.798 1.123 5.418 1.883 1.84 4.83 2.951 8.843 2.952 4.024.002 6.971-1.14 8.778-2.945 1.773-1.772 1.841-4.076 1.115-5.468a5.6 5.6 0 0 0-1.272-1.611" opacity=".85"/><path fill="#F60" d="M25.68 21.412c-1.702-.703-3.685-1.065-5.698-1.066-2.013 0-3.996.36-5.7 1.062-1.864.768-3.306 1.91-3.997 3.304-.806 1.627-.51 3.422 1.093 4.988 1.838 1.794 4.966 2.899 8.6 2.902 3.633.001 6.762-1.102 8.601-2.895 1.605-1.565 1.9-3.36 1.096-4.987-.69-1.398-2.131-2.538-3.995-3.308"/><path fill="url(#b)" d="M20.32 22.194c-.335-.684-.267-1.304-.197-1.848l-.14-.001c-2.014.001-3.997.362-5.7 1.063-1.863.768-3.306 1.91-3.997 3.304-.806 1.627-.51 3.422 1.093 4.988q.17.164.352.322c6.767-.391 10.304-4.33 8.59-7.828"/><path fill="#fff" fill-rule="evenodd" d="M15.623 22.309c1.258.317 2.454.697 3.67 1.144.24-.72.497-1.434.79-2.134.29.7.547 1.414.788 2.134a36 36 0 0 1 3.648-1.126 28 28 0 0 0-2.487 1.764 56 56 0 0 1 4.855.838c-1.632-.035-3.168.022-4.797.125 1.15.968 2.132 1.908 3.2 2.963a62 62 0 0 0-4.363-2.25c-.297 1.27-.576 2.542-.846 3.817-.268-1.275-.515-2.488-.812-3.757a104 104 0 0 0-4.427 2.196 54 54 0 0 1 3.233-2.936c-1.631-.105-3.194-.128-4.862-.152a58 58 0 0 1 4.917-.836c-.82-.642-1.624-1.238-2.507-1.79m4.458 2.221v-2.804a41 41 0 0 0-.776 2.366q.391.215.776.438m-3.724-1.913c1.006.444 1.988.94 2.948 1.474q-.359.036-.717.076a33 33 0 0 0-2.232-1.55m3.724 1.913c1.942.005 3.88.1 5.811.294a81 81 0 0 0-5.04-.736q-.39.217-.77.442m3.725-1.91c-1.009.44-1.991.936-2.954 1.468l-.118-.393c1.01-.4 2.031-.763 3.072-1.075m-3.827 1.91c.04 1.355.09 2.79.102 4.101.254-1.213.517-2.423.8-3.63-.267-.158-.635-.316-.902-.47m4.379 2.793a57 57 0 0 0-3.48-2.32q.366-.029.73-.053a55 55 0 0 1 2.75 2.374M20.08 24.53a70 70 0 0 0-5.383.277c1.645.005 2.922.068 4.592.2q.394-.243.791-.477m-4.275 2.792a58 58 0 0 1 3.484-2.316l.104.453a63 63 0 0 0-3.588 1.863M20.27 32.228c-.056.042-.135.085-.192.127-.057-.043-.136-.086-.194-.127.001-.525-.002-1.05 0-1.575.056-.04.138-.078.196-.117.056.04.133.078.19.117zM10.872 28.414l-.093.177c.057.023.169.058.219.078.553-.294 1.1-.587 1.645-.87.021-.083.033-.13.056-.191l-.168-.044q-.833.412-1.66.85M10.465 25.18l-.152.122c.028.036.059.08.083.115a38 38 0 0 1 1.554-.188l.153-.146-.092-.092q-.772.078-1.546.19M12.452 22.573l-.157.067c.005.03.01.088.014.119q.573.08 1.142.19c.048-.027.114-.066.16-.091l-.02-.1a22 22 0 0 0-1.14-.185M24.1 20.97l.145.001.058.058q-.3.188-.588.391l-.152.001-.056-.062q.29-.202.593-.39M19.947 20.422q.054-.017.109-.033.055.017.111.033l.004.464-.115.038-.113-.038zM15.776 21.035l.08-.07.146-.002q.302.187.593.389l-.057.064c-.05-.001-.124.013-.174.012a13 13 0 0 0-.588-.393M14.56 31.263c-.078.019-.179.019-.257.037-.017-.054-.056-.109-.072-.165q.58-.69 1.175-1.368c.076-.016.176-.034.254-.05.017.047.053.129.073.173q-.595.682-1.173 1.373M29.16 28.42l.092.178c-.058.023-.17.057-.219.077-.553-.294-1.1-.587-1.645-.87-.021-.083-.033-.13-.056-.192l.168-.044a67 67 0 0 1 1.66.851M29.569 25.187l.152.122-.085.115a38 38 0 0 0-1.552-.19l-.152-.146.091-.092q.772.08 1.546.191M27.583 22.578l.157.067c-.004.03-.01.088-.015.119q-.571.08-1.141.191l-.161-.092.02-.099q.569-.109 1.14-.186M25.47 31.267l.256.038q.039-.08.073-.166-.58-.69-1.175-1.37l-.254-.049a3 3 0 0 1-.074.172q.594.684 1.174 1.375" clip-rule="evenodd"/><path fill="url(#c)" fill-rule="evenodd" d="M19.292 23.5a37 37 0 0 0-3.544-1.111l-.125-.08c1.258.317 2.454.697 3.67 1.144.24-.72.497-1.434.79-2.134.29.7.547 1.414.788 2.134a36 36 0 0 1 3.648-1.126l-.126.08a36 36 0 0 0-3.524 1.093 31 31 0 0 0-.788-2.135c-.291.7-.548 1.415-.79 2.135m-1.222 1.586a55 55 0 0 0-3.228 2.936l.168-.095a51 51 0 0 1 3.06-2.77zm2.011-.556v.047zm-.04.024-.039.024q-.358.21-.712.429l.011.047c.26-.16.518-.311.78-.466v-.057zm-.736-.463-.072.006q-.323.032-.645.068a33 33 0 0 0-2.233-1.55v.057a33 33 0 0 1 2.233 1.55q.36-.04.717-.077c.232.129.453.25.682.382h.094c-.252-.144-.52-.295-.776-.436m-3.499 3.297a61 61 0 0 1 3.59-1.863v-.066a62 62 0 0 0-3.59 1.863zm5.073-2.385a166 166 0 0 0-.8 3.63v.046c.255-1.213.515-2.414.797-3.62a59 59 0 0 1 3.48 2.337v-.071a56 56 0 0 0-3.477-2.322m1.262.095-.051-.044v.076c1.108.935 1.992 1.773 3.026 2.788l.175.099c-1.086-1.074-2.056-1.995-3.15-2.92m-4.064-.993c-1.644.21-3.246.481-4.865.83.079 0 .176.005.256.004a57 57 0 0 1 4.66-.783V24.1zm1.213.9a49 49 0 0 0-4.59-.196v.047c1.515-.01 3.018.063 4.527.191q.032-.02.063-.041m2.742-.858c1.58.201 3.025.449 4.581.777l.274.006a56 56 0 0 0-4.855-.84zm-1.87.383h-.08l.088.05q2.868.01 5.722.296v-.052a60 60 0 0 0-5.81-.294m.77-.442.07.008c.94-.517 1.898-1 2.881-1.43v-.046a36 36 0 0 0-2.951 1.468m0 0-.118-.393v.047l.106.353q.006-.005.012-.007m-8.332 3.58c.045.012.105.021.15.035q.015-.046.032-.094l-.168-.044q-.834.41-1.661.85l-.093.178.035.013.052-.098a53 53 0 0 1 1.653-.84m-.502-2.606.054.05.03-.03-.09-.092q-.774.08-1.547.19l-.152.122c.019.026.021.031.036.05.028-.023.105-.078.133-.1.516-.074 1.02-.137 1.536-.19m.436-2.406c.38.052 1.148.207 1.158.203l-.02-.099q-.57-.109-1.14-.187l-.157.067.01.08zm11.79-1.605q.003.005.009.008l.05-.032q-.03-.028-.058-.057l-.145-.002a16 16 0 0 0-.595.39q.023.024.044.049.272-.186.55-.36.073.005.145.004m-4.297-.549.109-.033q.055.017.111.033v-.08l-.111-.033q-.055.017-.11.033zm-3.941.53c.185.116.364.247.544.37l.046-.05a13 13 0 0 0-.594-.389l-.146.002c-.02.018-.062.052-.08.07q.023.017.047.031l.037-.032zm-.361 8.752c.021.028.046.095.068.129l.02-.023c-.006-.022-.053-.125-.073-.173-.078.017-.176.033-.254.05q-.596.679-1.175 1.368c.007.02.023.045.03.065.248-.294.784-.93 1.174-1.377.06-.013.145-.024.21-.039m13.52-1.27.052.097.035-.013-.093-.178a67 67 0 0 0-1.66-.85l-.168.043q.016.05.03.094c.045-.014.105-.023.15-.034.557.274 1.103.548 1.654.84m.386-3.256.133.1c.015-.018.018-.024.037-.05l-.152-.12a38 38 0 0 0-1.547-.192l-.091.093q.015.013.03.03l.054-.05c.516.053 1.02.116 1.536.19m-1.822-2.533.011-.08-.157-.067q-.572.078-1.14.186l-.02.099c.01.005.779-.151 1.157-.202zm-3.135 7.102c.39.446.93 1.083 1.178 1.377l.027-.064q-.58-.69-1.175-1.37c-.077-.015-.176-.032-.254-.049-.02.047-.069.151-.074.173l.02.023c.023-.034.049-.1.07-.129.063.014.148.026.208.039m-4.36.882.036 1.519-.002-1.575c-.057-.04-.133-.078-.19-.117-.056.04-.138.078-.195.117v1.575l.036-1.52c.045-.03.114-.06.16-.091.045.03.11.061.155.092m-.19-.461c2.774.001 8.491-1.416 7.634-5.228-.689-3.062-4.956-3.973-7.632-3.974s-6.944.907-7.634 3.969c-.861 3.81 4.856 5.232 7.632 5.233m0-.24c2.665.002 8.157-1.35 7.355-5.01-.647-2.958-4.776-3.838-7.353-3.838-2.576-.002-6.705.875-7.355 3.832-.805 3.66 4.686 5.015 7.353 5.017" clip-rule="evenodd"/><path fill="#fff" fill-rule="evenodd" d="M12.436 25.107c.69-3.062 4.781-3.985 7.634-3.985 2.846.002 6.945.929 7.633 3.99.856 3.812-4.861 5.228-7.635 5.228-2.776 0-8.492-1.421-7.632-5.233m.279-.021c.65-2.958 4.779-3.834 7.355-3.833s6.706.88 7.353 3.838c.802 3.66-4.689 5.012-7.355 5.011s-8.157-1.356-7.353-5.016" clip-rule="evenodd"/><path fill="#3B2E4F" d="m29.18 25.746-1.25-.189-.166-.038c-.21-.043-.61-.269-.785-.537-.175-.269-.596-.731-.826-1.018-.32-.4-1.047-.764-1.153-.93a6 6 0 0 1-.33-.568c-.05-.115-.163-.207-.353-.196-.189.012-.205.076-.366.085s-.387-.024-.387-.024a1.2 1.2 0 0 0-.235-.032c-.1.164-.254.266-.624.266a.2.2 0 0 1-.066-.008c.039.083.385.13.443.127.06-.004.386.088.46.101.151.027.122-.024.363.115.4.23.998.863 1.116 1.412.066.304.588.8.651 1.08-.7-.052-1.63-.513-1.63-.513l-.117-.056s-.415-.209-1.052-.238c-1.203-.108-1.66-.267-1.78-.307-.248-.083-.213-.126-.416-.135l-.11-.006a.5.5 0 0 1-.103.138 3.3 3.3 0 0 0-.565.66.4.4 0 0 1-.24.154c.23-.053.68-.171.68-.171.424-.057 1.07.132 1.07.132.24.048.633.2.633.2s1.714.523 2.134.827c.276.2 1.702.73 2.079.862.377.13 1.298.629 1.298.629.237.2 1.613.8 1.99.927.486-.838.656-1.694.521-2.562z" opacity=".66"/><path fill="#3B2E4F" d="M28.551 24.327c-.12-.001-.26.03-.26.03l-.341.203c-.043.069.111.161.111.161s.431.028.43.14c.317.169.992.189 1.337.205a4.6 4.6 0 0 0-.332-.674c-.018-.006-.279-.08-.945-.065M26.004 28.503s-.082-.104-.518-.105c-.277-.002.12.651.12.651.25.168 1.151.423 1.34.448.187.024.816.211.816.211s.327.043.663.144q.08-.072.156-.147.291-.284.525-.578c-.76-.016-1.839-.03-2.658-.454-.084-.243-.444-.17-.444-.17" opacity=".66"/><path fill="#FFA55C" d="M23.7 16.623s-.253-.229-.257-.242c-.018-.08.072-.187.093-.322l-.077-.032c-.061-.233-.11-.65 0-.874.056-.11.12-.252.082-.38-.208-.711-.62-1.33-.911-2.004-.08-.183-.066-.316-.077-.503-.225-.247-.485-.893-.61-1.291-.264.66-.437 1.418-.437 1.593 0 .743.757 1.104.494 2.338-.051.238-.141.568-.231.909.157.86.157 1.485.388 2.482.324.319.594.728.737 1.246.089.32.361 1.076.71 1.19.215.069-.733.242-1-.093-.258-.322-.703-.58-.914-.922-.168-.272-.43-.854-.595-1.13l-.203 1.058c.276 1.13.112 1.379-.134 2.296-.106.397-.91-1.456-.91-1.601 0-.402-.026-.552-.121-.906-.168-.326-.15-.79-.128-1.142.04-.59.035-1.7.06-1.992-.202-.496-.72-1.392-.773-1.896-.08-.785.054-1.58-.056-2.363-.136.393-.28.89-.587 1.19-.46.45-.883.949-1.293 1.442-.15.203-.017.302-.25.628-.228.319-.106.175-.153.48a.2.2 0 0 1-.052.113c-.122.101-.251.188-.426.116-.337-.168-.361-.418-.385-.74-.044-.613.41-.641.67-1.013.506-.728.764-1.949 1.306-2.5.034-.107.161-.5.404-1.084.007-.725.188-1.37.938-1.667.307-.122.709-.153.725-.575.001-.05-.008-.18-.04-.225-.124-.1-.211-.102-.27-.173-.121-.155-.222-1.151-.209-1.215.176-.846.583-1.128 1.099-1.103.608.031 1.091.321 1.065 1.136-.022.656-.701 1.495.315 1.814.388.122.462.037.796.371.375.375.465 1.04.528 1.656l.381.881c.7 1.173.446 1.543.704 2.736.066.309.181.583.205 1.257.009.326-.248 1.044-.601 1.056"/><path fill="#000FAA" d="M16.404 15.736c.03-.313-.014-.286.186-.576.185-.268.097-.406.26-.636.405-.502.786-1.008 1.24-1.467.303-.306.716-1.337.812-1.699.02-.053.049-.08.06-.033.064.69.162 1.267.136 1.946-.052 1.427-.013 1.277.583 2.609.05-.536.18-1.313.494-1.576-.366 1.388-.39 3.366-.43 3.975-.02.31-.104.8.045 1.084.05.192.054.483.058.705l.008 2.435-.215 1.068c-.077.308-.477.827-.772.987-.094.05-.314.169-.314.273 0 .168 1.093.485 1.34.1.189-.289.342-.448.566-.66.344-.327-.037-.665.008-1.11.08-.774.414-1.446.524-2.176.066-.44.055-.829-.146-1.33l.145-1.396c.16.24.312.624.465.942.273.565.277.621.748 1.085.159.156.324.34.444.53.221.352.374.699.354 1.118-.164.294-.234.277-.445.455.007.009-.058.172.142.172.711 0 .623-.369.892-.848.175-.31.673-.78.127-.944a.74.74 0 0 1-.433-.319c-.378-.63-.393-.614-.59-1.194-.12-.352-.363-.635-.649-.866a3.6 3.6 0 0 1-.3-1.098c-.077-.57-.128-.98-.226-1.562.278-1.094.42-1.326-.051-2.379-.11-.242-.17-.5-.17-.785 0-.35.194-1.136.383-1.543.066-.166.157-.322.287-.372.115.425.51 1.299.738 1.513.014.17.006.344.075.506.287.69.702 1.314.909 2.041.071.25-.024.37-.096.57a1.8 1.8 0 0 0 .015.584l.1.054c-.018.063-.06.239-.097.32.012.1.134.155.134.155.159-.034.386-.605.377-.833-.024-.699-.171-1.011-.213-1.219-.234-1.185-.098-1.51-.764-2.655l-.379-.931c-.047-.478-.236-1.566-.85-1.763-.104-.033-.208-.038-.364-.09-.804-.258-.8-.873-.58-1.543.194-.598.22-1.302-.663-1.375-.546-.046-.713.382-.83.875.004.053.031.855.15 1.027.233.173.365.122.35.555-.014.363-.244.578-.56.688-.514.18-.776.284-.95.812-.054.165-.1.403-.103.757v.024c-.146.362-.331.777-.444 1.167-.633.63-.947 2.065-1.587 2.672-.426.402-.555.427-.4 1.048.017.063.221.225.264.247.034.012.203-.085.201-.121"/><defs><linearGradient id="a" x1="11.344" x2="25.757" y1="24.214" y2="29.415" gradientUnits="userSpaceOnUse"><stop stop-color="#F60"/><stop offset=".152" stop-color="#DD5C0E"/><stop offset=".567" stop-color="#874430"/><stop offset=".859" stop-color="#503446"/><stop offset="1" stop-color="#3B2E4F"/></linearGradient><linearGradient id="b" x1="7.905" x2="20.708" y1="26.509" y2="24.245" gradientUnits="userSpaceOnUse"><stop stop-color="#FFC980"/><stop offset="1" stop-color="#F60"/></linearGradient><linearGradient id="c" x1="10.313" x2="29.719" y1="26.305" y2="26.312" gradientUnits="userSpaceOnUse"><stop stop-color="#B06500"/><stop offset="1" stop-color="#7C0000"/></linearGradient></defs></svg>