<svg xmlns="http://www.w3.org/2000/svg" width="640" height="360" viewBox="0 0 640 360"><g fill="#1d2428" fill-rule="evenodd"><path fill-rule="nonzero" d="M372.55 89.774C359.1 76.32 340.51 68 319.983 68c-20.532 0-39.12 8.32-52.573 21.774-13.457 13.454-21.777 32.044-21.777 52.574s8.32 39.119 21.774 52.573c13.454 13.457 32.044 21.774 52.576 21.774 20.53 0 39.12-8.324 52.57-21.774 13.454-13.457 21.774-32.044 21.774-52.573s-8.323-39.12-21.777-52.574m-2.453 102.689c-12.824 12.825-30.544 20.759-50.117 20.759s-37.294-7.934-50.12-20.759c-12.825-12.825-20.758-30.544-20.758-50.115 0-19.573 7.933-37.292 20.759-50.117 12.825-12.826 30.544-20.76 50.117-20.76s37.29 7.934 50.116 20.76c12.826 12.825 20.758 30.544 20.758 50.117.003 19.57-7.93 37.29-20.755 50.115"/><path fill-rule="nonzero" d="M383.938 141.727c-.334-35.038-28.838-63.34-63.955-63.34-35.12 0-63.626 28.305-63.954 63.343l29.326-29.326 9.835 9.835-21.46 21.46h92.506l-21.461-21.46 9.835-9.835zm-63.958-10.99-27.25-28.596h18.11V88.045c0-3.658 4.114-6.657 9.14-6.657s9.142 2.996 9.142 6.657v14.096h18.11z"/><path d="M327.93 178.343c-1.453-.944-3.294-1.794-5.514-2.531-1.698-.585-3.095-1.137-4.186-1.67-1.081-.526-1.88-1.111-2.391-1.729-.524-.628-.77-1.381-.77-2.245 0-.691.21-1.348.655-1.97.438-.62 1.122-1.137 2.05-1.528.94-.396 2.134-.61 3.618-.617 1.195.006 2.287.102 3.274.273.975.177 1.84.391 2.58.636.751.254 1.357.493 1.835.718l1.65-4.978c-.998-.502-2.248-.918-3.766-1.255-1.288-.285-2.764-.449-4.439-.505v-5.152h-4.538v5.41c-.728.117-1.426.275-2.085.467-1.67.492-3.104 1.176-4.29 2.07-1.177.889-2.09 1.93-2.715 3.122-.629 1.192-.939 2.506-.952 3.92q.014 2.452 1.283 4.32c.846 1.246 2.05 2.327 3.607 3.253 1.549.923 3.398 1.719 5.536 2.389 1.604.514 2.912 1.05 3.91 1.6q1.499.824 2.183 1.813c.464.66.693 1.425.685 2.28 0 .939-.276 1.753-.814 2.457-.533.693-1.32 1.239-2.355 1.625-1.035.39-2.298.582-3.779.595a21.6 21.6 0 0 1-3.513-.307 22.6 22.6 0 0 1-3.172-.796c-.988-.329-1.852-.686-2.602-1.085l-1.596 5.185c.722.397 1.623.754 2.726 1.082q1.653.495 3.646.796c1.32.195 2.676.294 4.055.307l.242-.003v5.326h4.538v-5.753a18 18 0 0 0 1.646-.4c1.82-.548 3.333-1.295 4.53-2.252 1.204-.95 2.096-2.048 2.688-3.287a9.1 9.1 0 0 0 .883-3.946c0-1.635-.35-3.082-1.071-4.327-.73-1.256-1.814-2.356-3.273-3.308"/><path fill-rule="nonzero" d="M85.662 267.902q0 1.49.422 2.88.42 1.392 1.266 2.434a6.1 6.1 0 0 0 2.135 1.664q1.292.622 3.08.621 2.483 0 3.999-1.067 1.514-1.067 2.26-3.203h5.363q-.446 2.085-1.54 3.725a10.7 10.7 0 0 1-2.631 2.756 11.4 11.4 0 0 1-3.452 1.689 14 14 0 0 1-3.999.57q-3.03 0-5.364-.992-2.335-.994-3.949-2.782-1.614-1.79-2.434-4.27-.818-2.485-.818-5.465 0-2.73.87-5.19.868-2.458 2.483-4.32a11.9 11.9 0 0 1 3.9-2.956q2.282-1.093 5.165-1.093 3.028 0 5.438 1.266 2.408 1.266 3.999 3.353 1.59 2.086 2.31 4.793t.372 5.587zm13.21-3.725a9.2 9.2 0 0 0-.571-2.583 6.9 6.9 0 0 0-1.291-2.16 6.4 6.4 0 0 0-1.987-1.49q-1.168-.572-2.607-.572-1.49 0-2.707.522a6.2 6.2 0 0 0-2.086 1.44 7.1 7.1 0 0 0-1.39 2.161 7.5 7.5 0 0 0-.57 2.682zm31.488 9.387q0 1.044.274 1.49.272.446 1.067.447h.596q.347 0 .795-.099v3.924q-.299.099-.77.224-.473.123-.97.223a10.5 10.5 0 0 1-1.837.198q-1.74 0-2.88-.695-1.143-.694-1.49-2.434-1.687 1.64-4.147 2.383-2.458.745-4.743.745-1.739 0-3.328-.471-1.59-.472-2.806-1.39a6.66 6.66 0 0 1-1.937-2.336q-.72-1.414-.72-3.303-.001-2.383.869-3.874a6.45 6.45 0 0 1 2.284-2.335q1.414-.844 3.178-1.216a37 37 0 0 1 3.552-.572 29 29 0 0 1 2.93-.422 13.8 13.8 0 0 0 2.457-.422q1.067-.296 1.69-.92.62-.62.62-1.861 0-1.092-.522-1.788a3.5 3.5 0 0 0-1.29-1.068 5.6 5.6 0 0 0-1.714-.497 14 14 0 0 0-1.788-.125q-2.386 0-3.924.994-1.54.995-1.739 3.08h-5.662q.15-2.483 1.192-4.122a8.2 8.2 0 0 1 2.658-2.632q1.613-.993 3.65-1.39a21.7 21.7 0 0 1 4.171-.398q1.887 0 3.726.398 1.837.398 3.303 1.29a7.2 7.2 0 0 1 2.36 2.31q.893 1.415.893 3.452v13.212zm-5.66-7.153q-1.29.846-3.18 1.018-1.886.174-3.774.523-.894.149-1.739.422t-1.49.744q-.645.474-1.018 1.242-.371.77-.372 1.862-.001.945.547 1.59.546.645 1.316 1.018a6 6 0 0 0 1.69.521q.917.15 1.663.149.945 0 2.036-.248a6.8 6.8 0 0 0 2.062-.844 5.4 5.4 0 0 0 1.614-1.515q.645-.917.646-2.26z"/><path d="M140.74 271.03q.249 2.485 1.888 3.477 1.639.994 3.924.993.795 0 1.812-.125a7.9 7.9 0 0 0 1.913-.471 3.6 3.6 0 0 0 1.465-1.018q.57-.672.521-1.763-.05-1.092-.794-1.788-.745-.695-1.911-1.118a18.6 18.6 0 0 0-2.658-.72 121 121 0 0 1-3.03-.646 28 28 0 0 1-3.054-.844 9.8 9.8 0 0 1-2.633-1.34 6.2 6.2 0 0 1-1.862-2.161q-.695-1.317-.695-3.254 0-2.085 1.018-3.502a7.8 7.8 0 0 1 2.583-2.284 11.2 11.2 0 0 1 3.476-1.216q1.91-.346 3.65-.347 1.986.001 3.8.422 1.811.423 3.277 1.366a8.05 8.05 0 0 1 2.434 2.459q.967 1.515 1.218 3.65h-5.91q-.4-2.035-1.864-2.732-1.465-.695-3.353-.695-.596 0-1.414.1a6.6 6.6 0 0 0-1.54.372q-.72.273-1.216.794-.496.522-.497 1.366 0 1.045.721 1.69.72.646 1.888 1.067a18.4 18.4 0 0 0 2.656.72q1.49.298 3.08.645 1.538.349 3.03.844a9.8 9.8 0 0 1 2.657 1.341 6.5 6.5 0 0 1 1.888 2.135q.72 1.293.72 3.179-.001 2.286-1.044 3.874a8.2 8.2 0 0 1-2.708 2.583 12.3 12.3 0 0 1-3.7 1.44 18.8 18.8 0 0 1-4.022.447q-2.434 0-4.494-.547-2.062-.545-3.576-1.663a8 8 0 0 1-2.384-2.781q-.87-1.665-.919-3.95zm18.674-17.432h6.209l6.704 19.17h.1l6.505-19.17h5.91l-9.982 27.067a202 202 0 0 1-1.366 3.328 12 12 0 0 1-1.638 2.806 7.1 7.1 0 0 1-2.409 1.937q-1.44.72-3.676.72-1.987 0-3.923-.297v-4.768q.695.1 1.34.223.645.124 1.342.125.99 0 1.638-.248.645-.25 1.067-.72.42-.474.721-1.12.297-.646.547-1.489l.645-1.986z"/><path fill-rule="nonzero" d="M207.688 279.275v-4.868h-.099a7.4 7.4 0 0 1-1.465 2.285 9.5 9.5 0 0 1-2.21 1.763q-1.243.72-2.658 1.117-1.415.398-2.806.398-2.93 0-5.09-1.068a10.2 10.2 0 0 1-3.601-2.93q-1.442-1.86-2.136-4.32t-.695-5.191q-.001-2.732.695-5.19.695-2.458 2.136-4.321a10.4 10.4 0 0 1 3.6-2.955q2.16-1.093 5.09-1.093 1.44 0 2.807.347 1.365.347 2.559 1.067a9 9 0 0 1 2.11 1.763 7.4 7.4 0 0 1 1.417 2.434h.099v-14.7h3.129v35.46h-2.882zm-17.16-8.865q.473 1.962 1.49 3.501a8.2 8.2 0 0 0 2.609 2.508q1.589.969 3.824.968 2.483 0 4.197-.968t2.78-2.508q1.069-1.539 1.54-3.501t.471-3.95q0-1.985-.471-3.947-.474-1.961-1.54-3.502a8.3 8.3 0 0 0-2.78-2.509q-1.714-.968-4.197-.968-2.235 0-3.824.968a8.2 8.2 0 0 0-2.609 2.51q-1.019 1.539-1.49 3.501a16.8 16.8 0 0 0-.47 3.948q0 1.988.47 3.949m29.179-26.596v5.017h-3.13v-5.017zm0 9.834v25.627h-3.13v-25.627zm27.043 28.657q-.622 2.285-1.963 3.874t-3.501 2.434q-2.161.843-5.29.844-1.938 0-3.775-.448-1.838-.446-3.302-1.39a8.3 8.3 0 0 1-2.434-2.409q-.969-1.465-1.117-3.501h3.129q.249 1.44.968 2.41a5.8 5.8 0 0 0 1.74 1.564 7.7 7.7 0 0 0 2.26.87q1.239.272 2.532.273 4.37 0 6.308-2.484t1.937-7.151v-3.478h-.099q-1.094 2.384-3.203 3.824t-4.941 1.44q-3.08 0-5.265-1.018-2.186-1.018-3.6-2.806-1.416-1.787-2.062-4.197-.645-2.408-.646-5.14 0-2.632.77-4.99t2.235-4.123q1.463-1.763 3.626-2.78 2.16-1.018 4.942-1.018 1.44 0 2.707.397a8.6 8.6 0 0 1 2.31 1.118 10 10 0 0 1 1.863 1.663q.82.945 1.265 1.987h.1v-4.42h3.129v23.54q-.003 2.83-.623 5.115m-7.176-6.83a8.2 8.2 0 0 0 2.582-2.283q1.043-1.415 1.565-3.252.521-1.838.521-3.775 0-1.887-.447-3.775a10.9 10.9 0 0 0-1.44-3.427 7.8 7.8 0 0 0-2.557-2.483q-1.566-.943-3.8-.943t-3.824.919a8.16 8.16 0 0 0-2.632 2.408q-1.042 1.49-1.515 3.403a16.2 16.2 0 0 0-.472 3.9q0 1.937.497 3.774.495 1.838 1.54 3.252a7.95 7.95 0 0 0 2.632 2.284q1.588.87 3.775.87 2.034-.001 3.575-.871m16.936-31.66v5.016h-3.13v-5.017zm0 9.833v25.627h-3.13v-25.627z"/><path d="M272.7 253.648v2.632h-5.215v17.284q0 1.54.422 2.409.421.87 2.11.968 1.342 0 2.682-.148v2.632q-.696-.001-1.39.05-.696.048-1.39.049-3.13 0-4.371-1.218t-1.193-4.494V256.28h-4.47v-2.632h4.47v-7.698h3.13v7.698z"/><path fill-rule="nonzero" d="M277.865 257.621q.795-1.64 2.16-2.682t3.203-1.539q1.838-.496 4.074-.497 1.687 0 3.377.323a8.2 8.2 0 0 1 3.03 1.216q1.34.894 2.185 2.51.844 1.613.844 4.196v13.609q0 1.886 1.838 1.886.545 0 .992-.199v2.633q-.547.1-.968.148-.423.05-1.068.05-1.191.001-1.911-.323a2.58 2.58 0 0 1-1.12-.919 3.44 3.44 0 0 1-.52-1.416 12 12 0 0 1-.125-1.814h-.099a21 21 0 0 1-1.713 2.21 8.5 8.5 0 0 1-1.937 1.615 8.9 8.9 0 0 1-2.434.992q-1.366.348-3.252.349-1.79-.001-3.352-.422-1.566-.42-2.731-1.341a6.4 6.4 0 0 1-1.838-2.335q-.672-1.414-.671-3.352 0-2.682 1.192-4.196t3.153-2.31 4.42-1.117 4.992-.62a19 19 0 0 0 1.739-.248q.745-.149 1.241-.521.495-.373.77-1.018.271-.646.272-1.69 0-1.588-.522-2.606a4.13 4.13 0 0 0-1.44-1.614q-.92-.597-2.135-.82a14.5 14.5 0 0 0-2.608-.224q-2.981 0-4.867 1.416t-1.988 4.544h-3.13q.151-2.234.947-3.874m15.644 7.649q-.3.548-1.142.794a11 11 0 0 1-1.49.347q-1.987.349-4.098.622-2.11.274-3.848.82-1.74.547-2.856 1.564-1.117 1.019-1.117 2.906 0 1.194.471 2.11a5.1 5.1 0 0 0 1.266 1.59q.795.672 1.838 1.019a6.7 6.7 0 0 0 2.135.348q1.79 0 3.427-.546a8.4 8.4 0 0 0 2.856-1.59 7.7 7.7 0 0 0 1.937-2.534q.72-1.489.72-3.377v-4.072h-.099z"/><path d="M306.173 243.814v35.461h-3.129v-35.461z"/><path fill-rule="nonzero" d="M336.37 279.275h-5.364v-3.476h-.1q-1.14 2.235-3.327 3.203a11.3 11.3 0 0 1-4.618.968q-3.03 0-5.29-1.068-2.26-1.065-3.75-2.905-1.49-1.837-2.234-4.346-.745-2.505-.745-5.389 0-3.476.943-6.009.944-2.534 2.51-4.171 1.564-1.639 3.575-2.409t4.097-.77q1.193 0 2.434.224 1.24.224 2.383.72a9.4 9.4 0 0 1 2.111 1.266 7 7 0 0 1 1.615 1.813h.1v-13.112h5.661zm-19.767-12.565q0 1.64.422 3.228a8.8 8.8 0 0 0 1.291 2.83 6.54 6.54 0 0 0 2.21 1.989c.896.495 1.953.744 3.18.744q1.885 0 3.253-.794a6.74 6.74 0 0 0 2.235-2.086q.869-1.29 1.291-2.905t.422-3.303q0-4.27-1.913-6.655t-5.19-2.385q-1.987 0-3.352.82a6.9 6.9 0 0 0-2.235 2.135 8.9 8.9 0 0 0-1.241 2.98 15.6 15.6 0 0 0-.373 3.402m37.696 13.26q-3.08 0-5.488-1.018-2.41-1.017-4.072-2.806-1.665-1.789-2.533-4.272-.869-2.482-.868-5.464 0-2.93.868-5.413.87-2.484 2.533-4.272 1.664-1.788 4.072-2.807t5.488-1.018 5.489 1.018q2.408 1.02 4.073 2.807 1.663 1.788 2.533 4.272t.87 5.413q0 2.982-.87 5.464-.869 2.484-2.533 4.272-1.665 1.788-4.073 2.806-2.41 1.017-5.489 1.018m0-4.47q1.887 0 3.278-.794a6.9 6.9 0 0 0 2.286-2.086 9.1 9.1 0 0 0 1.316-2.906 13.05 13.05 0 0 0 0-6.58q-.422-1.64-1.316-2.906a7 7 0 0 0-2.286-2.062q-1.39-.794-3.278-.794-1.887.001-3.277.794a7 7 0 0 0-2.284 2.062q-.894 1.266-1.317 2.905a12.99 12.99 0 0 0 0 6.581 9.1 9.1 0 0 0 1.317 2.906 6.9 6.9 0 0 0 2.284 2.086q1.39.794 3.277.794"/><path d="M369.645 253.598h6.01l5.016 19.171h.101l4.817-19.171h5.712l4.618 19.171h.101l5.215-19.171h5.761l-8.045 25.677h-5.811l-4.768-19.071h-.099l-4.718 19.071h-5.959zM410.618 253.598h5.364v3.775l.099.1q1.29-2.136 3.377-3.354 2.086-1.216 4.618-1.216 4.221.001 6.655 2.185 2.434 2.186 2.434 6.556v17.63h-5.66v-16.14q-.1-3.03-1.292-4.396-1.193-1.365-3.725-1.366-1.44 0-2.583.522a5.6 5.6 0 0 0-1.937 1.44 6.8 6.8 0 0 0-1.242 2.161 7.7 7.7 0 0 0-.447 2.632v15.148h-5.66zM439.275 243.814h5.662v35.461h-5.662z"/><path fill-rule="nonzero" d="M462.866 279.97q-3.08 0-5.488-1.018-2.41-1.017-4.073-2.806t-2.533-4.272q-.868-2.482-.868-5.464 0-2.93.868-5.413.87-2.484 2.533-4.272 1.665-1.788 4.073-2.807t5.488-1.018 5.488 1.018q2.409 1.02 4.074 2.807 1.662 1.788 2.533 4.272.87 2.484.87 5.413 0 2.982-.87 5.464-.87 2.484-2.533 4.272-1.665 1.788-4.074 2.806-2.41 1.017-5.488 1.018m0-4.47q1.886 0 3.278-.794a6.9 6.9 0 0 0 2.285-2.086 9.1 9.1 0 0 0 1.317-2.906 13.05 13.05 0 0 0 0-6.58q-.422-1.64-1.317-2.906a7 7 0 0 0-2.285-2.062q-1.391-.794-3.278-.794-1.887.001-3.278.794a7 7 0 0 0-2.284 2.062q-.894 1.266-1.317 2.905a12.99 12.99 0 0 0 0 6.581 9.1 9.1 0 0 0 1.317 2.906 6.9 6.9 0 0 0 2.284 2.086q1.39.794 3.278.794m39.184-1.936q-.001 1.044.274 1.49.272.446 1.067.447h.596a3.7 3.7 0 0 0 .795-.099v3.924a13 13 0 0 1-.77.224q-.473.123-.968.223a10.5 10.5 0 0 1-1.838.198q-1.739 0-2.88-.695-1.142-.694-1.49-2.434-1.688 1.64-4.146 2.383-2.46.745-4.742.745-1.74 0-3.328-.471-1.59-.472-2.806-1.39a6.66 6.66 0 0 1-1.937-2.336q-.72-1.414-.72-3.303 0-2.383.868-3.874.87-1.49 2.286-2.335a10.3 10.3 0 0 1 3.177-1.216 37 37 0 0 1 3.551-.572 29 29 0 0 1 2.93-.422 13.7 13.7 0 0 0 2.458-.422q1.067-.296 1.69-.92.62-.62.62-1.861 0-1.092-.522-1.788a3.5 3.5 0 0 0-1.291-1.068 5.6 5.6 0 0 0-1.713-.497 14 14 0 0 0-1.789-.125q-2.385 0-3.923.994-1.54.995-1.739 3.08h-5.662q.15-2.483 1.192-4.122a8.2 8.2 0 0 1 2.658-2.632q1.61-.993 3.65-1.39a21.8 21.8 0 0 1 4.173-.398q1.886 0 3.725.398 1.838.398 3.303 1.29a7.2 7.2 0 0 1 2.36 2.31q.893 1.415.893 3.452v13.212zm-5.66-7.153q-1.294.846-3.18 1.018-1.886.174-3.774.523-.894.149-1.739.422t-1.491.744q-.645.474-1.018 1.242-.372.77-.372 1.862-.002.945.546 1.59.546.645 1.316 1.018a6.1 6.1 0 0 0 1.689.521q.917.15 1.663.149.944 0 2.037-.248a6.8 6.8 0 0 0 2.061-.844 5.4 5.4 0 0 0 1.614-1.515q.646-.917.646-2.26v-4.222zm35.957 12.864h-5.364v-3.476h-.099q-1.142 2.235-3.327 3.203a11.3 11.3 0 0 1-4.619.968q-3.03 0-5.29-1.068-2.26-1.065-3.75-2.905-1.49-1.837-2.234-4.346-.745-2.505-.744-5.389 0-3.476.943-6.009.942-2.534 2.509-4.171 1.564-1.639 3.575-2.409 2.01-.769 4.098-.77 1.191 0 2.434.224 1.239.224 2.383.72a9.4 9.4 0 0 1 2.11 1.266 7 7 0 0 1 1.615 1.813h.1v-13.112h5.661v35.46zM512.58 266.71q0 1.64.421 3.228a8.8 8.8 0 0 0 1.292 2.83 6.54 6.54 0 0 0 2.21 1.989q1.341.743 3.179.744 1.886 0 3.254-.794a6.74 6.74 0 0 0 2.234-2.086q.87-1.29 1.291-2.905t.422-3.303q0-4.27-1.913-6.655-1.912-2.385-5.19-2.385-1.986 0-3.352.82a6.9 6.9 0 0 0-2.234 2.135 8.9 8.9 0 0 0-1.242 2.98 15.5 15.5 0 0 0-.372 3.402"/><path d="M542.777 271.03q.247 2.485 1.887 3.477 1.639.994 3.924.993.793 0 1.812-.125a7.9 7.9 0 0 0 1.913-.471 3.6 3.6 0 0 0 1.464-1.018q.57-.672.522-1.763-.05-1.092-.794-1.788-.745-.695-1.913-1.118a19 19 0 0 0-2.656-.72 121 121 0 0 1-3.03-.646 28 28 0 0 1-3.054-.844 9.8 9.8 0 0 1-2.633-1.34 6.2 6.2 0 0 1-1.861-2.161q-.697-1.317-.696-3.254 0-2.085 1.018-3.502a7.8 7.8 0 0 1 2.583-2.284 11.2 11.2 0 0 1 3.476-1.216 20.5 20.5 0 0 1 3.65-.347q1.987.001 3.8.422 1.813.423 3.279 1.366a8.05 8.05 0 0 1 2.434 2.459q.967 1.515 1.217 3.65h-5.91q-.398-2.035-1.862-2.732-1.465-.695-3.351-.695-.597 0-1.416.1a6.6 6.6 0 0 0-1.54.372 3.26 3.26 0 0 0-1.217.794q-.496.521-.496 1.366 0 1.045.72 1.69.72.646 1.887 1.067 1.167.422 2.658.72 1.489.298 3.078.645 1.54.349 3.03.844a9.8 9.8 0 0 1 2.656 1.341 6.5 6.5 0 0 1 1.888 2.135q.72 1.293.72 3.179 0 2.286-1.043 3.874a8.25 8.25 0 0 1-2.707 2.583 12.3 12.3 0 0 1-3.7 1.44 18.8 18.8 0 0 1-4.023.447q-2.433 0-4.494-.547-2.062-.545-3.576-1.663a8 8 0 0 1-2.383-2.781q-.871-1.665-.92-3.95z"/></g></svg>