<svg xmlns="http://www.w3.org/2000/svg" width="51" height="32" viewBox="0 0 51 32">
  <g fill="none" fill-rule="evenodd">
    <rect width="50" height="31" x=".5" y=".5" fill="#FFF" stroke="#D0D0D0"/>
    <g transform="translate(14 5.6)">
      <path fill="#FFF" d="M0.0103445255,0.0189627074 L0.0103445255,20.6371445 L12.3147241,20.6371445 C20.431454,20.6371445 23.9508701,16.1963778 23.9508701,10.3075591 C23.9508701,4.4421016 20.431454,0.0189627074 12.3147241,0.0189627074 L0.0103445255,0.0189627074 Z"/>
      <path fill="#000" d="M12.318035,1.53910965 C21.094765,1.53910965 22.4052175,7.06486837 22.4052175,10.3580156 C22.4052175,16.0716814 18.8230861,19.2182868 12.318035,19.2182868 L1.56016642,19.2182868 L1.56016642,1.53910965 L12.318035,1.53910965 Z M2.40708613,2.37037282 L2.40708613,18.3865937 L12.318035,18.3865937 C18.3028818,18.3865937 21.5585606,15.6495139 21.5585606,10.3580156 C21.5585606,4.92023347 18.0295095,2.37037282 12.318035,2.37037282 L2.40708613,2.37037282 Z"/>
      <polygon fill="#000" points="3.737 17.081 6.909 17.081 6.909 11.536 3.737 11.536"/>
      <path fill="#000" d="M7.29464234,8.74251328 C7.29464234,9.81182078 6.41207299,10.6787734 5.32287591,10.6787734 C4.23429197,10.6787734 3.35084672,9.81182078 3.35084672,8.74251328 C3.35084672,7.67397977 4.23429197,6.80659716 5.32287591,6.80659716 C6.41207299,6.80659716 7.29464234,7.67397977 7.29464234,8.74251328"/>
      <path fill="#C06" d="M13.5198044,9.6485867 L13.5198044,10.5458109 L11.2588993,10.5458109 L11.2588993,6.94384244 L13.4468409,6.94384244 L13.4468409,7.8407226 L12.1729139,7.8407226 L12.1729139,8.25833216 L13.3777314,8.25833216 L13.3777314,9.15495432 L12.1729139,9.15495432 L12.1729139,9.6485867 L13.5198044,9.6485867 Z M13.9587241,10.5469288 L15.065527,6.94238046 L16.3656438,6.94238046 L17.4720964,10.5469288 L16.5206803,10.5469288 L16.3133518,9.8496516 L15.117819,9.8496516 L14.9097898,10.5469288 L13.9587241,10.5469288 Z M15.3849723,8.95311543 L16.0461109,8.95311543 L15.7438336,7.93446115 L15.6889139,7.93446115 L15.3849723,8.95311543 Z M17.9313372,6.94246646 L18.8451766,6.94246646 L18.8451766,9.6485867 L20.1995124,9.6485867 C19.8281255,4.73832048 15.8937022,3.67752685 12.3187533,3.67752685 L8.50730803,3.67752685 L8.50730803,6.94435843 L9.07148321,6.94435843 C10.1000672,6.94435843 10.7391328,7.62916587 10.7391328,8.73080887 C10.7391328,9.86736733 10.1153956,10.5458109 9.07148321,10.5458109 L8.50730803,10.5458109 L8.50730803,17.082656 L12.3187533,17.082656 C18.131308,17.082656 20.1540526,14.4324349 20.2254394,10.5458109 L17.9313372,10.5458109 L17.9313372,6.94246646 Z M8.50651971,7.84141059 L8.50651971,9.6485867 L9.07148321,9.6485867 C9.46292847,9.6485867 9.82450511,9.53747642 9.82450511,8.73080887 C9.82450511,7.94245903 9.42211095,7.84141059 9.07148321,7.84141059 L8.50651971,7.84141059 Z"/>
    </g>
  </g>
</svg>
