<?xml version="1.0" encoding="UTF-8" standalone="no"?>
<svg
   xmlns:dc="http://purl.org/dc/elements/1.1/"
   xmlns:cc="http://creativecommons.org/ns#"
   xmlns:rdf="http://www.w3.org/1999/02/22-rdf-syntax-ns#"
   xmlns:svg="http://www.w3.org/2000/svg"
   xmlns="http://www.w3.org/2000/svg"
   xmlns:sodipodi="http://sodipodi.sourceforge.net/DTD/sodipodi-0.dtd"
   xmlns:inkscape="http://www.inkscape.org/namespaces/inkscape"
   inkscape:version="1.0 (4035a4f, 2020-05-01)"
   height="360"
   width="640"
   sodipodi:docname="ideal-logo-640x360.svg"
   xml:space="preserve"
   viewBox="0 0 640.00003 360.00001"
   y="0px"
   x="0px"
   id="Layer_1"
   version="1.1"><metadata
   id="metadata198"><rdf:RDF><cc:Work
       rdf:about=""><dc:format>image/svg+xml</dc:format><dc:type
         rdf:resource="http://purl.org/dc/dcmitype/StillImage" /><dc:title></dc:title></cc:Work></rdf:RDF></metadata><defs
   id="defs196" /><sodipodi:namedview
   inkscape:current-layer="Layer_1"
   inkscape:window-maximized="1"
   inkscape:window-y="23"
   inkscape:window-x="0"
   inkscape:cy="175.32598"
   inkscape:cx="282.44271"
   inkscape:zoom="1"
   width="297.00001mm"
   units="px"
   showgrid="false"
   id="namedview194"
   inkscape:window-height="817"
   inkscape:window-width="1440"
   inkscape:pageshadow="2"
   inkscape:pageopacity="0"
   guidetolerance="10"
   gridtolerance="10"
   objecttolerance="10"
   borderopacity="1"
   bordercolor="#666666"
   pagecolor="#ffffff" />
<style
   id="style161"
   type="text/css">
	.st0{fill:#FFFFFF;}
	.st1{fill:#CC0066;}
</style>
<g
   transform="matrix(1.2416605,0,0,1.2416605,129.96386,12.499999)"
   id="g191">
	<g
   id="g173">
		<path
   id="path163"
   d="m 0,20 v 229.8 c 0,11 9,20 20,20 h 137.3 c 103.8,0 148.8,-58.1 148.8,-135.2 C 306.1,57.9 261.1,0 157.3,0 H 20 C 9,0 0,9 0,20 Z"
   class="st0" />
		<path
   id="path165"
   d="m 91.9,56.4 v 169.8 h 73.9 c 67.1,0 96.2,-37.9 96.2,-91.5 0,-51.3 -29.1,-91.1 -96.2,-91.1 h -61.1 c -7.1,0 -12.8,5.8 -12.8,12.8 z"
   class="st1" />
		<g
   id="g171">
			<g
   id="g169">
				<path
   id="path167"
   d="M 157.3,251.5 H 37.9 c -10.6,0 -19.2,-8.6 -19.2,-19.2 V 37.6 C 18.7,27 27.3,18.4 37.9,18.4 h 119.4 c 113.3,0 130.2,72.9 130.2,116.3 0,75.3 -46.3,116.8 -130.2,116.8 z M 37.9,24.8 c -7.1,0 -12.8,5.7 -12.8,12.8 v 194.7 c 0,7.1 5.7,12.8 12.8,12.8 h 119.4 c 79.8,0 123.8,-39.2 123.8,-110.4 0,-95.6 -77.6,-109.9 -123.8,-109.9 z" />
			</g>
		</g>
	</g>
	<g
   id="g183">
		<path
   id="path175"
   d="m 117.9,111.8 c 2.6,0 5,0.4 7.3,1.2 2.3,0.8 4.2,2.1 5.9,3.7 1.6,1.7 2.9,3.8 3.9,6.2 0.9,2.5 1.4,5.4 1.4,8.8 0,3 -0.4,5.7 -1.1,8.2 -0.8,2.5 -1.9,4.7 -3.4,6.5 -1.5,1.8 -3.4,3.2 -5.7,4.3 -2.3,1 -5,1.6 -8.1,1.6 h -17.5 v -40.6 h 17.3 z m -0.6,33.1 c 1.3,0 2.5,-0.2 3.8,-0.6 1.2,-0.4 2.3,-1.1 3.2,-2.1 0.9,-1 1.7,-2.2 2.3,-3.8 0.6,-1.6 0.9,-3.4 0.9,-5.7 0,-2 -0.2,-3.9 -0.6,-5.5 -0.4,-1.6 -1.1,-3.1 -2,-4.2 -0.9,-1.1 -2.1,-2.1 -3.6,-2.7 -1.5,-0.6 -3.3,-0.9 -5.5,-0.9 h -6.4 V 145 h 7.9 z"
   class="st0" />
		<path
   id="path177"
   d="m 172.5,111.8 v 7.5 h -21.4 v 8.7 h 19.7 v 6.9 h -19.7 v 9.9 H 173 v 7.5 h -30.8 v -40.6 h 30.3 z"
   class="st0" />
		<path
   id="path179"
   d="m 203.1,111.8 15.2,40.6 H 209 l -3.1,-9 h -15.2 l -3.2,9 h -9 l 15.3,-40.6 z m 0.5,24.9 -5.1,-14.9 h -0.1 l -5.3,14.9 z"
   class="st0" />
		<path
   id="path181"
   d="m 232.8,111.8 v 33.1 h 19.8 v 7.5 h -28.7 v -40.6 z"
   class="st0" />
	</g>
	<g
   id="g187">
		<circle
   id="circle185"
   r="18.700001"
   cy="132.10001"
   cx="58.5" />
	</g>
	<path
   id="path189"
   d="m 72.6,226.2 v 0 c -15.7,0 -28.3,-12.7 -28.3,-28.3 v -22.1 c 0,-7.8 6.3,-14.2 14.2,-14.2 v 0 c 7.8,0 14.2,6.3 14.2,14.2 v 50.4 z" />
</g>
</svg>
