<?xml version="1.0" encoding="UTF-8" standalone="no"?>
<svg
   xmlns:dc="http://purl.org/dc/elements/1.1/"
   xmlns:cc="http://creativecommons.org/ns#"
   xmlns:rdf="http://www.w3.org/1999/02/22-rdf-syntax-ns#"
   xmlns:svg="http://www.w3.org/2000/svg"
   xmlns="http://www.w3.org/2000/svg"
   xmlns:sodipodi="http://sodipodi.sourceforge.net/DTD/sodipodi-0.dtd"
   xmlns:inkscape="http://www.inkscape.org/namespaces/inkscape"
   inkscape:version="1.0 (4035a4f, 2020-05-01)"
   sodipodi:docname="method-ideal-wc-51x32.svg"
   id="svg524"
   version="1.1"
   viewBox="0 0 51 32"
   height="32"
   width="51">
  <metadata
     id="metadata530">
    <rdf:RDF>
      <cc:Work
         rdf:about="">
        <dc:format>image/svg+xml</dc:format>
        <dc:type
           rdf:resource="http://purl.org/dc/dcmitype/StillImage" />
        <dc:title></dc:title>
      </cc:Work>
    </rdf:RDF>
  </metadata>
  <defs
     id="defs528" />
  <sodipodi:namedview
     inkscape:current-layer="svg524"
     inkscape:window-maximized="1"
     inkscape:window-y="23"
     inkscape:window-x="0"
     inkscape:cy="107.5"
     inkscape:cx="69"
     inkscape:zoom="2"
     showgrid="false"
     id="namedview526"
     inkscape:window-height="817"
     inkscape:window-width="1440"
     inkscape:pageshadow="2"
     inkscape:pageopacity="0"
     guidetolerance="10"
     gridtolerance="10"
     objecttolerance="10"
     borderopacity="1"
     bordercolor="#666666"
     pagecolor="#ffffff" />
  <rect
     width="50"
     height="31"
     x="0.5"
     y="0.5"
     fill="#ffffff"
     stroke="#d0d0d0"
     id="rect508"
     style="fill-rule:evenodd" />
  <style
     type="text/css"
     id="style707">
	.st0{fill:#FFFFFF;}
	.st1{fill:#CC0066;}
</style>
  <g
     transform="matrix(0.07641957,0,0,0.07641957,13.803985,5.691)"
     id="g737">
	<g
   id="g719">
		<path
   class="st0"
   d="m 0,20 v 229.8 c 0,11 9,20 20,20 h 137.3 c 103.8,0 148.8,-58.1 148.8,-135.2 C 306.1,57.9 261.1,0 157.3,0 H 20 C 9,0 0,9 0,20 Z"
   id="path709" />

		<path
   class="st1"
   d="m 91.9,56.4 v 169.8 h 73.9 c 67.1,0 96.2,-37.9 96.2,-91.5 0,-51.3 -29.1,-91.1 -96.2,-91.1 h -61.1 c -7.1,0 -12.8,5.8 -12.8,12.8 z"
   id="path711" />

		<g
   id="g717">
			<g
   id="g715">
				<path
   d="M 157.3,251.5 H 37.9 c -10.6,0 -19.2,-8.6 -19.2,-19.2 V 37.6 C 18.7,27 27.3,18.4 37.9,18.4 h 119.4 c 113.3,0 130.2,72.9 130.2,116.3 0,75.3 -46.3,116.8 -130.2,116.8 z M 37.9,24.8 c -7.1,0 -12.8,5.7 -12.8,12.8 v 194.7 c 0,7.1 5.7,12.8 12.8,12.8 h 119.4 c 79.8,0 123.8,-39.2 123.8,-110.4 0,-95.6 -77.6,-109.9 -123.8,-109.9 z"
   id="path713" />

			</g>

		</g>

	</g>

	<g
   id="g729">
		<path
   class="st0"
   d="m 117.9,111.8 c 2.6,0 5,0.4 7.3,1.2 2.3,0.8 4.2,2.1 5.9,3.7 1.6,1.7 2.9,3.8 3.9,6.2 0.9,2.5 1.4,5.4 1.4,8.8 0,3 -0.4,5.7 -1.1,8.2 -0.8,2.5 -1.9,4.7 -3.4,6.5 -1.5,1.8 -3.4,3.2 -5.7,4.3 -2.3,1 -5,1.6 -8.1,1.6 h -17.5 v -40.6 h 17.3 z m -0.6,33.1 c 1.3,0 2.5,-0.2 3.8,-0.6 1.2,-0.4 2.3,-1.1 3.2,-2.1 0.9,-1 1.7,-2.2 2.3,-3.8 0.6,-1.6 0.9,-3.4 0.9,-5.7 0,-2 -0.2,-3.9 -0.6,-5.5 -0.4,-1.6 -1.1,-3.1 -2,-4.2 -0.9,-1.1 -2.1,-2.1 -3.6,-2.7 -1.5,-0.6 -3.3,-0.9 -5.5,-0.9 h -6.4 V 145 h 7.9 z"
   id="path721" />

		<path
   class="st0"
   d="m 172.5,111.8 v 7.5 h -21.4 v 8.7 h 19.7 v 6.9 h -19.7 v 9.9 H 173 v 7.5 h -30.8 v -40.6 h 30.3 z"
   id="path723" />

		<path
   class="st0"
   d="m 203.1,111.8 15.2,40.6 H 209 l -3.1,-9 h -15.2 l -3.2,9 h -9 l 15.3,-40.6 z m 0.5,24.9 -5.1,-14.9 h -0.1 l -5.3,14.9 z"
   id="path725" />

		<path
   class="st0"
   d="m 232.8,111.8 v 33.1 h 19.8 v 7.5 h -28.7 v -40.6 z"
   id="path727" />

	</g>

	<g
   id="g733">
		<circle
   cx="58.5"
   cy="132.10001"
   r="18.700001"
   id="circle731" />

	</g>

	<path
   d="m 72.6,226.2 v 0 c -15.7,0 -28.3,-12.7 -28.3,-28.3 v -22.1 c 0,-7.8 6.3,-14.2 14.2,-14.2 v 0 c 7.8,0 14.2,6.3 14.2,14.2 v 50.4 z"
   id="path735" />

</g>
</svg>
