<svg height="360" viewBox="0 0 640 360" width="640" xmlns="http://www.w3.org/2000/svg"><g fill="none" fill-rule="evenodd" transform="translate(125 11)"><path d="m.16809854.308144v335.045455h199.94616746c131.896862 0 189.087373-72.16246 189.087373-167.855764 0-95.313684-57.190511-167.189691-189.087373-167.189691z" fill="#fff"/><g fill="#000"><path d="m200.168069 25.0105318c142.621862 0 163.916716 89.7935792 163.916716 143.3072212 0 92.847069-58.209635 143.979408-163.916716 143.979408h-174.8153646v-287.2866292zm-161.0529194 13.5080265v260.2635887h161.0529194c97.253759 0 150.15854-44.477546 150.15854-130.464394 0-88.3639591-57.34708-129.7991947-150.15854-129.7991947z"/><path d="m60.722 277.567h51.557v-90.112h-51.557z"/><path d="m118.537938 142.065841c0 17.376247-14.341752 31.464227-32.0412044 31.464227-17.6894891 0-32.0454745-14.08798-32.0454745-31.464227 0-17.36367 14.3559854-31.458637 32.0454745-31.458637 17.6994524 0 32.0412044 14.094967 32.0412044 31.458637"/></g><path d="m219.696821 156.789534v14.579892h-36.739708v-58.531986h35.554051v14.574302h-20.701314v6.786156h19.578285v14.57011h-19.578285v8.021526zm7.132445 14.59806 17.985548-58.573911h21.126898l17.979854 58.573911h-15.460511l-3.369088-11.330756h-19.427409l-3.380474 11.330756zm23.176533-25.899468h10.743504l-4.912007-16.553132h-.892446zm41.378431-32.673046h14.84989v43.974454h22.007957c-6.035037-79.7918262-69.969416-97.0297227-128.062336-97.0297227h-61.935986v53.0860137h9.167847c16.714489 0 27.099307 11.12812 27.099307 29.029819 0 18.469075-10.13573 29.493782-27.099307 29.493782h-9.167847v106.223734h61.935986c94.454014 0 127.323613-43.066093 128.48365-106.223734h-37.279161zm-153.153285 14.607842v29.366612h9.180657c6.360986 0 12.236606-1.805542 12.236606-14.91389 0-12.810685-6.538905-14.452722-12.236606-14.452722z" fill="#c06"/></g></svg>