<svg height="32" viewBox="0 0 51 32" width="51" xmlns="http://www.w3.org/2000/svg"><g fill="none" fill-rule="evenodd"><path d="m.5.5h50v31h-50z" fill="#fff" stroke="#d0d0d0"/><g transform="translate(14 5.6)"><path d="m.01034453.01896271v20.61818179h12.30437957c8.1167299 0 11.636146-4.4407667 11.636146-10.3295854 0-5.8654575-3.5194161-10.28859639-11.636146-10.28859639z" fill="#fff"/><g fill="#000"><path d="m12.318035 1.53910965c8.77673 0 10.0871825 5.52575872 10.0871825 8.81890595 0 5.7136658-3.5821314 8.8602712-10.0871825 8.8602712h-10.75786858v-17.67917715zm-9.91094887.83126317v16.01622088h9.91094887c5.9848468 0 9.2405256-2.7370798 9.2405256-8.0285781 0-5.43778213-3.5290511-7.98764278-9.2405256-7.98764278z"/><path d="m3.737 17.081h3.172v-5.545h-3.172z"/><path d="m7.29464234 8.74251328c0 1.0693075-.88256935 1.93626012-1.97176643 1.93626012-1.08858394 0-1.97202919-.86695262-1.97202919-1.93626012 0-1.06853351.88344525-1.93591612 1.97202919-1.93591612 1.08919708 0 1.97176643.86738261 1.97176643 1.93591612"/></g><path d="m13.5198044 9.6485867v.8972242h-2.2609051v-3.60196846h2.1879416v.89688016h-1.273927v.41760956h1.2048175v.89662216h-1.2048175v.49363238zm.4389197.8983421 1.1068029-3.60454834h1.3001168l1.1064526 3.60454834h-.9514161l-.2073285-.6972772h-1.1955328l-.2080292.6972772zm1.4262482-1.59381337h.6611386l-.3022773-1.01865428h-.0549197zm2.5463649-2.01064897h.9138394v2.70612024h1.3543358c-.3713869-4.91026622-4.3058102-5.97105985-7.8807591-5.97105985h-3.81144527v3.26683158h.56417518c1.02858399 0 1.66764959.68480744 1.66764959 1.78645044 0 1.13655846-.6237372 1.81500203-1.66764959 1.81500203h-.56417518v6.5368451h3.81144527c5.8125547 0 7.8352993-2.6502211 7.9066861-6.5368451h-2.2941022zm-9.42481749.89894413v1.80717611h.5649635c.39144526 0 .7530219-.11111028.7530219-.91777783 0-.78834984-.40239416-.88939828-.7530219-.88939828z" fill="#c06"/></g></g></svg>