<svg width="512" height="512" fill="none" xmlns="http://www.w3.org/2000/svg"><path d="M47.516 104C21.14 104-.206 125.559.002 151.723v159.086c0 26.375 21.351 47.724 47.727 47.724h197.386l90.217 50.238-20.512-50.238h149.453c26.375 0 47.727-21.35 47.727-47.724V151.723C512 125.348 490.648 104 464.273 104H47.516zm170.595 28.049c4.816-.42 9.212 1.046 13.188 4.185 3.979 3.142 6.073 7.118 6.49 11.93.208 3.771-.417 6.91-2.094 10.049-8.163 15.07-14.861 40.4-20.306 75.564-5.23 34.121-7.115 60.705-5.858 79.754.416 5.232-.42 9.838-2.513 13.813-2.511 4.608-6.278 7.118-11.094 7.535-5.441.42-11.094-2.091-16.535-7.744-19.466-19.886-34.958-49.61-46.26-89.17-13.604 26.792-23.655 46.887-30.145 60.283-12.347 23.653-22.815 35.793-31.603 36.422-5.653.42-10.468-4.396-14.652-14.441-10.674-27.424-22.189-80.38-34.54-158.877-.628-5.441.418-10.258 3.348-14.022l.002-.002c2.928-3.979 7.328-6.07 13.186-6.49 10.673-.837 16.745 4.186 18.21 15.072 6.49 43.747 13.605 80.797 21.143 111.15l45.842-87.285c4.185-7.958 9.42-12.142 15.697-12.562 9.211-.628 14.862 5.233 17.164 17.584 5.233 27.84 11.932 51.493 19.887 71.59 5.444-53.17 14.652-91.476 27.63-115.13 3.14-5.86 7.743-8.791 13.813-9.208zm81.424 22.605c3.802.026 7.592.446 11.307 1.254 14.653 3.142 25.956 11.096 33.494 24.283 6.698 11.303 10.045 24.912 10.045 41.239 0 21.559-5.441 41.235-16.326 59.236-12.56 20.931-28.888 31.398-49.19 31.398-3.559 0-7.325-.418-11.304-1.255-14.861-3.14-25.956-11.094-33.49-24.282-6.702-11.514-10.05-25.327-10.05-41.445 0-21.559 5.442-41.236 16.327-59.027 12.768-20.934 29.096-31.4 49.187-31.4zm131.246 0c3.801.026 7.59.446 11.305 1.254 14.86 3.142 25.954 11.096 33.492 24.283h-.002c6.701 11.303 10.049 24.912 10.049 41.239 0 21.559-5.44 41.235-16.326 59.236-12.56 20.931-28.888 31.398-49.19 31.398-3.562 0-7.325-.418-11.304-1.255-14.862-3.14-25.956-11.094-33.49-24.282-6.702-11.514-10.05-25.327-10.05-41.445 0-21.559 5.442-41.236 16.327-59.027 12.768-20.934 29.095-31.4 49.19-31.4zm-130.289 35.092c-6.544-.04-12.91 4.289-18.957 13.264-5.65 7.95-9.209 16.326-11.094 24.91-1.045 4.812-1.464 10.044-1.464 15.277 0 6.07 1.256 12.558 3.77 19.047 3.138 8.164 7.328 12.564 12.349 13.606 5.233 1.048 10.885-1.254 16.955-6.698 7.746-6.907 12.979-17.164 15.91-30.98 1.045-4.815 1.465-10.044 1.465-15.488 0-6.067-1.258-12.56-3.772-19.047-3.139-8.163-7.326-12.559-12.347-13.608a15.196 15.196 0 0 0-2.815-.283zm131.244 0c-6.544-.04-12.91 4.289-18.957 13.264-5.649 7.95-9.207 16.326-11.093 24.91-1.045 4.812-1.465 10.044-1.465 15.277 0 6.07 1.257 12.558 3.771 19.047 3.14 8.164 7.327 12.564 12.348 13.606 5.233 1.048 10.886-1.254 16.955-6.698 7.747-6.907 12.978-17.164 15.908-30.98.834-4.815 1.467-10.044 1.467-15.488 0-6.067-1.258-12.56-3.772-19.047-3.139-8.163-7.326-12.559-12.347-13.608a15.196 15.196 0 0 0-2.815-.283z" style="fill:#fff"/></svg>