<svg xmlns="http://www.w3.org/2000/svg" width="640" height="360"><g fill="none" fill-rule="evenodd"><path fill="#9B5C8F" d="M95.71 124.133h131.97c8.352 0 15.113 6.76 15.113 15.112v50.376c0 8.352-6.761 15.113-15.113 15.113h-47.326l6.495 15.908-28.568-15.908H95.776c-8.352 0-15.113-6.761-15.113-15.113v-50.376c-.066-8.285 6.694-15.112 15.046-15.112Z"/><path fill="#FFF" fill-rule="nonzero" d="M88.75 137.853c.927-1.26 2.32-1.922 4.175-2.055 3.38-.265 5.303 1.326 5.767 4.773 2.055 13.853 4.308 25.585 6.695 35.197l14.516-27.64c1.325-2.52 2.983-3.845 4.971-3.978 2.917-.199 4.706 1.657 5.435 5.568 1.657 8.816 3.778 16.306 6.297 22.67 1.724-16.837 4.64-28.967 8.75-36.457.994-1.856 2.452-2.784 4.374-2.916 1.525-.133 2.917.331 4.176 1.325 1.26.995 1.923 2.254 2.055 3.778.066 1.194-.132 2.188-.663 3.182-2.585 4.772-4.706 12.793-6.43 23.928-1.656 10.805-2.253 19.223-1.855 25.255.132 1.657-.133 3.115-.796 4.374-.795 1.459-1.988 2.254-3.513 2.386-1.723.133-3.513-.662-5.236-2.452-6.164-6.297-11.07-15.71-14.649-28.237-4.308 8.484-7.49 14.848-9.545 19.09-3.91 7.49-7.225 11.334-10.008 11.533-1.79.133-3.315-1.392-4.64-4.573-3.38-8.684-7.026-25.453-10.937-50.31-.199-1.723.132-3.248 1.06-4.44zm142.51 10.407c-2.387-4.176-5.9-6.695-10.606-7.69a17.398 17.398 0 0 0-3.58-.397c-6.363 0-11.533 3.314-15.576 9.943-3.447 5.634-5.17 11.865-5.17 18.692 0 5.104 1.06 9.478 3.182 13.124 2.386 4.176 5.899 6.695 10.605 7.689 1.26.265 2.452.398 3.58.398 6.429 0 11.599-3.315 15.576-9.943 3.447-5.7 5.17-11.931 5.17-18.758 0-5.17-1.06-9.479-3.182-13.058zm-8.352 18.36c-.928 4.375-2.585 7.623-5.038 9.81-1.922 1.724-3.712 2.453-5.369 2.121-1.59-.33-2.916-1.723-3.91-4.308-.796-2.055-1.194-4.11-1.194-6.032 0-1.657.133-3.314.464-4.838.597-2.718 1.724-5.37 3.513-7.888 2.188-3.248 4.508-4.574 6.894-4.11 1.59.332 2.916 1.724 3.91 4.309.796 2.054 1.194 4.11 1.194 6.031 0 1.724-.2 3.38-.464 4.905zM189.7 148.26c-2.387-4.176-5.966-6.695-10.606-7.69a17.398 17.398 0 0 0-3.58-.397c-6.362 0-11.533 3.314-15.576 9.943-3.447 5.634-5.17 11.865-5.17 18.692 0 5.104 1.06 9.478 3.182 13.124 2.386 4.176 5.899 6.695 10.605 7.689 1.26.265 2.453.398 3.58.398 6.429 0 11.599-3.315 15.576-9.943 3.447-5.7 5.17-11.931 5.17-18.758 0-5.17-1.06-9.479-3.181-13.058zm-8.352 18.36c-.928 4.375-2.585 7.623-5.038 9.81-1.922 1.724-3.712 2.453-5.369 2.121-1.59-.33-2.916-1.723-3.91-4.308-.796-2.055-1.194-4.11-1.194-6.032 0-1.657.133-3.314.464-4.838.597-2.718 1.724-5.37 3.513-7.888 2.188-3.248 4.508-4.574 6.894-4.11 1.59.332 2.916 1.724 3.91 4.309.796 2.054 1.194 4.11 1.194 6.031 0 1.724-.133 3.38-.464 4.905z"/><path fill="#000" fill-rule="nonzero" d="M259.563 147.663c-4.441 4.375-6.629 9.943-6.629 16.704 0 7.225 2.188 13.124 6.562 17.565 4.375 4.441 10.075 6.695 17.168 6.695 2.055 0 4.374-.332 6.893-1.06v-10.739c-2.32.663-4.308.994-6.032.994-3.513 0-6.297-1.193-8.418-3.513-2.12-2.386-3.181-5.568-3.181-9.61 0-3.779 1.06-6.894 3.115-9.28 2.121-2.453 4.706-3.646 7.888-3.646 2.055 0 4.242.331 6.628.994V142.03c-2.187-.596-4.64-.862-7.225-.862-6.76-.066-12.328 2.122-16.77 6.496Zm46-6.562c-6.098 0-10.87 2.055-14.317 6.098-3.447 4.044-5.104 9.744-5.104 17.035 0 7.888 1.724 13.92 5.104 18.096s8.352 6.297 14.848 6.297c6.297 0 11.135-2.121 14.516-6.297 3.38-4.176 5.104-10.075 5.104-17.632 0-7.556-1.724-13.39-5.17-17.499-3.514-4.043-8.485-6.098-14.98-6.098Zm5.237 34.468c-1.193 1.856-2.983 2.784-5.237 2.784-2.12 0-3.711-.928-4.838-2.784-1.127-1.856-1.657-5.568-1.657-11.202 0-8.683 2.187-12.992 6.628-12.992 4.64 0 7.026 4.375 7.026 13.19-.066 5.436-.73 9.148-1.922 11.004Zm47.658-33.208-2.386 10.141c-.597 2.585-1.194 5.236-1.724 7.954l-1.325 7.026c-1.26-7.026-2.983-15.378-5.17-25.121h-15.378l-5.767 45.139h11.533l3.116-31.087 7.887 31.087h8.22l7.556-31.021 3.248 31.02h12.063l-6.098-45.138h-15.775Zm55.214 0-2.386 10.141c-.597 2.585-1.193 5.236-1.723 7.954l-1.326 7.026c-1.26-7.026-2.983-15.378-5.17-25.121h-15.378l-5.767 45.139h11.534l3.115-31.087 7.888 31.087h8.219l7.49-31.021 3.248 31.02h12.063l-6.098-45.138h-15.709Zm37.517 27.308h10.804v-9.346h-10.804v-8.285h12.461v-9.611h-24.658v45.14h24.724v-9.612H451.19v-8.286Zm46.862-7.158c1.26-2.055 1.922-4.176 1.922-6.363 0-4.243-1.657-7.623-4.97-10.076-3.315-2.452-7.889-3.711-13.589-3.711H467.23V187.5h12.197v-20.548h.198l9.877 20.548h12.859l-9.744-20.35c2.32-1.06 4.176-2.584 5.435-4.64Zm-18.692-.73v-10.737c2.917.066 4.972.53 6.23 1.458 1.26.928 1.857 2.386 1.857 4.507 0 3.116-2.718 4.706-8.087 4.773Zm27.773-14.118c-4.44 4.375-6.628 9.943-6.628 16.704 0 7.225 2.187 13.124 6.562 17.565 4.375 4.441 10.075 6.695 17.167 6.695 2.055 0 4.375-.332 6.894-1.06v-10.739c-2.32.663-4.309.994-6.032.994-3.513 0-6.297-1.193-8.418-3.513-2.121-2.386-3.182-5.568-3.182-9.61 0-3.779 1.06-6.894 3.116-9.28 2.12-2.453 4.706-3.646 7.887-3.646 2.055 0 4.243.331 6.629.994V142.03c-2.188-.596-4.64-.862-7.225-.862-6.695-.066-12.329 2.122-16.77 6.496Zm39.571 30.16v-8.22h10.805v-9.346h-10.805v-8.285h12.528v-9.611h-24.657V187.5h24.723v-9.611h-12.594v-.067Z"/></g></svg>