<?xml version="1.0" encoding="UTF-8" standalone="no"?>
<svg
   width="512"
   height="512"
   viewBox="0 0 512 512"
   fill="none"
   version="1.1"
   id="svg11"
   sodipodi:docname="ideal-issuer-knab-icon-512x512.svg"
   inkscape:version="1.3.2 (091e20e, 2023-11-25)"
   xmlns:inkscape="http://www.inkscape.org/namespaces/inkscape"
   xmlns:sodipodi="http://sodipodi.sourceforge.net/DTD/sodipodi-0.dtd"
   xmlns="http://www.w3.org/2000/svg"
   xmlns:svg="http://www.w3.org/2000/svg">
  <defs
     id="defs11" />
  <sodipodi:namedview
     id="namedview11"
     pagecolor="#ffffff"
     bordercolor="#666666"
     borderopacity="1.0"
     inkscape:showpageshadow="2"
     inkscape:pageopacity="0.0"
     inkscape:pagecheckerboard="true"
     inkscape:deskcolor="#d1d1d1"
     inkscape:zoom="1"
     inkscape:cx="261"
     inkscape:cy="304"
     inkscape:window-width="1232"
     inkscape:window-height="747"
     inkscape:window-x="3185"
     inkscape:window-y="438"
     inkscape:window-maximized="0"
     inkscape:current-layer="svg11" />
  <rect
     width="512"
     height="512"
     fill="#ffffff"
     id="rect1"
     x="0"
     y="0"
     style="stroke-width:12.8" />
  <rect
     width="512"
     height="512"
     rx="57.599998"
     fill="#ffffff"
     id="rect2"
     x="0"
     y="0"
     style="stroke-width:12.8" />
  <mask
     id="mask0_373_17438"
     maskUnits="userSpaceOnUse"
     x="0"
     y="0"
     width="40"
     height="40">
    <rect
       width="40"
       height="40"
       rx="4.5"
       fill="#ffffff"
       id="rect3"
       x="0"
       y="0" />
  </mask>
  <g
     mask="url(#mask0_373_17438)"
     id="g11"
     transform="scale(12.8)">
    <path
       fill-rule="evenodd"
       clip-rule="evenodd"
       d="m 29.141,34.2693 c -0.7643,0 -1.2854,-0.5915 -1.2854,-1.4571 0,-0.8656 0.5211,-1.4578 1.2854,-1.4578 0.7645,0 1.2735,0.5922 1.2735,1.4578 0,0.8656 -0.509,1.4571 -1.2735,1.4571 z m 0.3944,-4.3172 c -0.7319,0 -1.2355,0.2597 -1.5396,0.5346 0.0063,-0.2003 0.0136,-0.4946 0.0136,-0.7854 V 27.8125 H 26.457 c -0.1367,0 -0.2683,0.1739 -0.2683,0.3325 v 7.1909 c 0,0.1719 0.1283,0.3305 0.2725,0.3305 h 1.4575 l -0.0074,-0.4599 c 0.4156,0.3984 0.983,0.5852 1.6129,0.5852 1.6274,0 2.6527,-1.2754 2.6527,-2.9254 0,-1.6505 -1.0253,-2.9142 -2.6415,-2.9142 z"
       fill="#00374e"
       id="path3" />
    <path
       fill-rule="evenodd"
       clip-rule="evenodd"
       d="m 23.6868,34.118 c -0.1145,0.1944 -0.4444,0.513 -0.9341,0.513 -0.501,0 -0.8535,-0.2626 -0.8535,-0.6947 0,-0.421 0.3303,-0.6604 0.8876,-0.6827 l 0.9,-0.0571 z m 1.1377,-3.5171 c -0.4441,-0.41 -1.0469,-0.6488 -2.0945,-0.6488 -0.8965,0 -1.6647,0.2416 -2.1681,0.4612 -0.1297,0.0597 -0.1807,0.2347 -0.1286,0.3686 l 0.3735,0.9233 c 0.2845,-0.1823 1.0016,-0.5012 1.7187,-0.5012 0.7286,0 1.1494,0.3079 1.1494,0.8991 v 0.1258 l -1.4111,0.0572 c -1.036,0.0452 -2.1862,0.4666 -2.1862,1.718 0,1.2527 1.0479,1.7876 2.0376,1.7876 0.9112,0 1.3661,-0.4783 1.6055,-0.7169 l 0.0231,0.3824 c 0.0073,0.1048 0.1089,0.2092 0.2493,0.2092 h 1.5035 v -3.1642 c 0,-0.9454 -0.2391,-1.4917 -0.6721,-1.9013 z"
       fill="#00374e"
       id="path4" />
    <path
       fill-rule="evenodd"
       clip-rule="evenodd"
       d="m 17.528,29.9521 c -0.8081,0 -1.3202,0.4099 -1.6275,0.9106 h -0.0229 l 0.011,-0.8086 h -1.5533 c -0.1367,0 -0.2682,0.172 -0.2682,0.3363 v 4.9493 c 0,0.1653 0.1311,0.3267 0.2761,0.3267 h 1.5454 v -2.7773 c 0,-0.8089 0.2169,-1.4461 1.0015,-1.4461 0.7522,0 0.8656,0.5577 0.8656,1.298 v 2.5949 c 0,0.1719 0.1293,0.3305 0.266,0.3305 h 1.5551 v -3.3123 c 0,-1.3553 -0.4211,-2.402 -2.0488,-2.402 z"
       fill="#00374e"
       id="path5" />
    <path
       fill-rule="evenodd"
       clip-rule="evenodd"
       d="m 13.7482,30.0541 h -1.8767 c -0.1447,0 -0.2885,0.0815 -0.3812,0.1787 L 9.94611,31.91 V 27.8125 H 8.39319 c -0.13663,0 -0.26819,0.172 -0.26819,0.3305 v 7.198 c 0,0.1611 0.10865,0.3254 0.26945,0.3254 h 1.55166 v -1.6958 l 0.50089,-0.49 1.2446,1.9751 c 0.1163,0.1616 0.2774,0.2107 0.4638,0.2107 h 1.7642 l -2.2201,-3.506 z"
       fill="#00374e"
       id="path6" />
    <path
       fill-rule="evenodd"
       clip-rule="evenodd"
       d="m 32.4834,10.3196 c -1.6787,0 -2.3852,-0.63172 -4.3716,-2.40574 C 27.2296,7.12597 26.132,5.96441 25.6927,5.50715 25.2533,5.0499 24.4948,4.25165 23.6773,3.63459 22.3544,2.63608 20.5469,2.11177 18.699,2.11177 c -4.8578,0 -8.7958,3.88566 -8.7958,8.67883 0,4.7932 3.938,8.6789 8.7958,8.6789 2.5252,0 4.7089,-0.9686 5.7958,-2.105 0,0 1.6657,-1.6643 2.1399,-2.1159 1.4524,-1.3827 3.8749,-3.7478 5.4474,-3.7478 2.2434,0 4.2734,2.6781 5.6373,3.7478 1.3639,1.0698 1.8409,1.1071 4.1558,1.3487 L 41.9891,5.21264 c 0,0 -2.4848,0.33067 -3.836,1.3937 -1.3513,1.06303 -3.991,3.71326 -5.6697,3.71326 z"
       fill="#003b5d"
       id="path7" />
    <path
       fill-rule="evenodd"
       clip-rule="evenodd"
       d="m 8.75,10.625 c 0,0.8629 -0.69956,1.5625 -1.5625,1.5625 -0.86294,0 -1.5625,-0.6996 -1.5625,-1.5625 0,-0.86294 0.69956,-1.5625 1.5625,-1.5625 0.86294,0 1.5625,0.69956 1.5625,1.5625 z"
       fill="#fb4a73"
       id="path8" />
    <path
       fill-rule="evenodd"
       clip-rule="evenodd"
       d="m 35.4688,18.0195 c 0,1.5533 -1.2593,2.8125 -2.8126,2.8125 -1.5533,0 -2.8124,-1.2592 -2.8124,-2.8125 0,-1.5532 1.2591,-2.8125 2.8124,-2.8125 1.5533,0 2.8126,1.2593 2.8126,2.8125 z"
       fill="#00a7a8"
       id="path9" />
    <path
       fill-rule="evenodd"
       clip-rule="evenodd"
       d="m 18.6989,16.7377 c -3.3233,0 -6.0271,-2.6679 -6.0271,-5.9471 0,-3.27922 2.7038,-5.94706 6.0271,-5.94706 3.3234,0 6.0272,2.66784 6.0272,5.94706 0,3.2792 -2.7038,5.9471 -6.0272,5.9471 z"
       fill="#ffffff"
       id="path10" />
    <path
       fill-rule="evenodd"
       clip-rule="evenodd"
       d="m 18.7927,7.92752 c -1.3683,0 -1.9722,0.52396 -2.4996,1.13498 -0.539,0.62428 -0.539,1.8247 -0.4009,2.5251 0.138,0.7003 0.0473,1.4707 -0.2949,1.7299 -0.5145,0.3897 -2.9079,-0.0713 -3.7279,-0.0854 -0.8201,-0.0142 -1.6309,-0.0192 -1.7133,-0.0192 -0.0231,0 -0.046,0.0014 -0.0691,0.0016 C 9.82559,13.2119 9.67888,13.2129 9.67888,13.2129 l 0.01631,0.0192 c -3.06356,0.2314 -5.47644,2.7448 -5.47644,5.8138 0,3.2215 2.65822,5.833 5.93735,5.833 2.7483,0 5.0596,-1.8349 5.7361,-4.3255 l 5e-4,7e-4 c 0.8955,-2.7893 -0.3681,-6.1857 0.1596,-6.7042 0.4428,-0.435 1.6404,-0.1868 2.3536,-0.1426 1.603,0.0992 3.2377,-0.8482 3.2377,-2.9793 0,-1.7323 -1.4825,-2.80048 -2.8509,-2.80048 z"
       fill="#ffc400"
       id="path11" />
  </g>
</svg>
