<svg width="40" height="40" viewBox="0 0 40 40" fill="none" xmlns="http://www.w3.org/2000/svg">
<rect width="40" height="40" fill="white"/>
<rect width="40" height="40" rx="4.5" fill="white"/>
<mask id="mask0_373_17438" style="mask-type:alpha" maskUnits="userSpaceOnUse" x="0" y="0" width="40" height="40">
<rect width="40" height="40" rx="4.5" fill="white"/>
</mask>
<g mask="url(#mask0_373_17438)">
<path fill-rule="evenodd" clip-rule="evenodd" d="M29.141 34.2693C28.3767 34.2693 27.8556 33.6778 27.8556 32.8122C27.8556 31.9466 28.3767 31.3544 29.141 31.3544C29.9055 31.3544 30.4145 31.9466 30.4145 32.8122C30.4145 33.6778 29.9055 34.2693 29.141 34.2693ZM29.5354 29.9521C28.8035 29.9521 28.2999 30.2118 27.9958 30.4867C28.0021 30.2864 28.0094 29.9921 28.0094 29.7013V27.8125H26.457C26.3203 27.8125 26.1887 27.9864 26.1887 28.145V35.3359C26.1887 35.5078 26.317 35.6664 26.4612 35.6664H27.9187L27.9113 35.2065C28.3269 35.6049 28.8943 35.7917 29.5242 35.7917C31.1516 35.7917 32.1769 34.5163 32.1769 32.8663C32.1769 31.2158 31.1516 29.9521 29.5354 29.9521Z" fill="#00374E"/>
<path fill-rule="evenodd" clip-rule="evenodd" d="M23.6868 34.118C23.5723 34.3124 23.2424 34.631 22.7527 34.631C22.2517 34.631 21.8992 34.3684 21.8992 33.9363C21.8992 33.5153 22.2295 33.2759 22.7868 33.2536L23.6868 33.1965V34.118ZM24.8245 30.6009C24.3804 30.1909 23.7776 29.9521 22.73 29.9521C21.8335 29.9521 21.0653 30.1937 20.5619 30.4133C20.4322 30.473 20.3812 30.648 20.4333 30.7819L20.8068 31.7052C21.0913 31.5229 21.8084 31.204 22.5255 31.204C23.2541 31.204 23.6749 31.5119 23.6749 32.1031V32.2289L22.2638 32.2861C21.2278 32.3313 20.0776 32.7527 20.0776 34.0041C20.0776 35.2568 21.1255 35.7917 22.1152 35.7917C23.0264 35.7917 23.4813 35.3134 23.7207 35.0748L23.7438 35.4572C23.7511 35.562 23.8527 35.6664 23.9931 35.6664H25.4966V32.5022C25.4966 31.5568 25.2575 31.0105 24.8245 30.6009Z" fill="#00374E"/>
<path fill-rule="evenodd" clip-rule="evenodd" d="M17.528 29.9521C16.7199 29.9521 16.2078 30.362 15.9005 30.8627H15.8776L15.8886 30.0541H14.3353C14.1986 30.0541 14.0671 30.2261 14.0671 30.3904V35.3397C14.0671 35.505 14.1982 35.6664 14.3432 35.6664H15.8886V32.8891C15.8886 32.0802 16.1055 31.443 16.8901 31.443C17.6423 31.443 17.7557 32.0007 17.7557 32.741V35.3359C17.7557 35.5078 17.885 35.6664 18.0217 35.6664H19.5768V32.3541C19.5768 30.9988 19.1557 29.9521 17.528 29.9521Z" fill="#00374E"/>
<path fill-rule="evenodd" clip-rule="evenodd" d="M13.7482 30.0541H11.8715C11.7268 30.0541 11.583 30.1356 11.4903 30.2328L9.94611 31.91V27.8125H8.39319C8.25656 27.8125 8.125 27.9845 8.125 28.143V35.341C8.125 35.5021 8.23365 35.6664 8.39445 35.6664H9.94611V33.9706L10.447 33.4806L11.6916 35.4557C11.8079 35.6173 11.969 35.6664 12.1554 35.6664H13.9196L11.6995 32.1604L13.7482 30.0541Z" fill="#00374E"/>
<path fill-rule="evenodd" clip-rule="evenodd" d="M32.4834 10.3196C30.8047 10.3196 30.0982 9.68788 28.1118 7.91386C27.2296 7.12597 26.132 5.96441 25.6927 5.50715C25.2533 5.0499 24.4948 4.25165 23.6773 3.63459C22.3544 2.63608 20.5469 2.11177 18.699 2.11177C13.8412 2.11177 9.9032 5.99743 9.9032 10.7906C9.9032 15.5838 13.8412 19.4695 18.699 19.4695C21.2242 19.4695 23.4079 18.5009 24.4948 17.3645C24.4948 17.3645 26.1605 15.7002 26.6347 15.2486C28.0871 13.8659 30.5096 11.5008 32.0821 11.5008C34.3255 11.5008 36.3555 14.1789 37.7194 15.2486C39.0833 16.3184 39.5603 16.3557 41.8752 16.5973L41.9891 5.21264C41.9891 5.21264 39.5043 5.54331 38.1531 6.60634C36.8018 7.66937 34.1621 10.3196 32.4834 10.3196Z" fill="#003B5D"/>
<path fill-rule="evenodd" clip-rule="evenodd" d="M8.75 10.625C8.75 11.4879 8.05044 12.1875 7.1875 12.1875C6.32456 12.1875 5.625 11.4879 5.625 10.625C5.625 9.76206 6.32456 9.0625 7.1875 9.0625C8.05044 9.0625 8.75 9.76206 8.75 10.625Z" fill="#FB4A73"/>
<path fill-rule="evenodd" clip-rule="evenodd" d="M35.4688 18.0195C35.4688 19.5728 34.2095 20.832 32.6562 20.832C31.1029 20.832 29.8438 19.5728 29.8438 18.0195C29.8438 16.4663 31.1029 15.207 32.6562 15.207C34.2095 15.207 35.4688 16.4663 35.4688 18.0195Z" fill="#00A7A8"/>
<path fill-rule="evenodd" clip-rule="evenodd" d="M18.6989 16.7377C15.3756 16.7377 12.6718 14.0698 12.6718 10.7906C12.6718 7.51138 15.3756 4.84354 18.6989 4.84354C22.0223 4.84354 24.7261 7.51138 24.7261 10.7906C24.7261 14.0698 22.0223 16.7377 18.6989 16.7377Z" fill="white"/>
<path fill-rule="evenodd" clip-rule="evenodd" d="M18.7927 7.92752C17.4244 7.92752 16.8205 8.45148 16.2931 9.0625C15.7541 9.68678 15.7541 10.8872 15.8922 11.5876C16.0302 12.2879 15.9395 13.0583 15.5973 13.3175C15.0828 13.7072 12.6894 13.2462 11.8694 13.2321C11.0493 13.2179 10.2385 13.2129 10.1561 13.2129C10.133 13.2129 10.1101 13.2143 10.087 13.2145C9.82559 13.2119 9.67888 13.2129 9.67888 13.2129L9.69519 13.2321C6.63163 13.4635 4.21875 15.9769 4.21875 19.0459C4.21875 22.2674 6.87697 24.8789 10.1561 24.8789C12.9044 24.8789 15.2157 23.044 15.8922 20.5534L15.8927 20.5541C16.7882 17.7648 15.5246 14.3684 16.0523 13.8499C16.4951 13.4149 17.6927 13.6631 18.4059 13.7073C20.0089 13.8065 21.6436 12.8591 21.6436 10.728C21.6436 8.9957 20.1611 7.92752 18.7927 7.92752Z" fill="#FFC400"/>
</g>
</svg>
