<?xml version="1.0" encoding="UTF-8" standalone="no"?>
<!-- Generator: Adobe Illustrator 18.0.0, SVG Export Plug-In . SVG Version: 6.00 Build 0)  -->

<svg
   version="1.1"
   id="Layer_1"
   x="0px"
   y="0px"
   viewBox="162.5 376.9 511.99999 512.00001"
   enable-background="new 162.5 376.9 279.6 91.1"
   xml:space="preserve"
   sodipodi:docname="ideal-issuer-knab-icon-512x512.svg"
   width="512"
   height="512"
   inkscape:version="1.3.2 (091e20e, 2023-11-25)"
   xmlns:inkscape="http://www.inkscape.org/namespaces/inkscape"
   xmlns:sodipodi="http://sodipodi.sourceforge.net/DTD/sodipodi-0.dtd"
   xmlns="http://www.w3.org/2000/svg"
   xmlns:svg="http://www.w3.org/2000/svg"><defs
   id="defs5" /><sodipodi:namedview
   id="namedview5"
   pagecolor="#ffffff"
   bordercolor="#666666"
   borderopacity="1.0"
   inkscape:showpageshadow="2"
   inkscape:pageopacity="0.0"
   inkscape:pagecheckerboard="true"
   inkscape:deskcolor="#d1d1d1"
   inkscape:zoom="2.3104434"
   inkscape:cx="208.18514"
   inkscape:cy="252.33251"
   inkscape:window-width="1240"
   inkscape:window-height="911"
   inkscape:window-x="3507"
   inkscape:window-y="343"
   inkscape:window-maximized="0"
   inkscape:current-layer="Layer_1" />



<g
   id="g5"
   transform="matrix(1.8809699,0,0,1.8809699,-143.15761,-160.77525)"><path
     fill="#3e4a59"
     d="m 268.9,401.1 c -9.1,0 -14.9,4.7 -18.4,10.3 h -0.3 l 0.1,-9.1 h -17.6 c -1.6,0 -3,2 -3,3.8 v 56 c 0,1.8 1.5,3.7 3.1,3.7 h 17.5 v -31.4 c 0,-9.1 2.5,-16.3 11.3,-16.3 8.5,0 9.8,6.3 9.8,14.7 v 29.3 c 0,2 1.5,3.7 3,3.7 H 292 v -37.5 c 0.1,-15.4 -4.7,-27.2 -23.1,-27.2 z"
     id="path1" /><path
     fill="#3e4a59"
     d="m 404.7,401.1 c -8.3,0 -14,3 -17.4,6.1 0.1,-2.3 0.1,-5.6 0.1,-8.9 v -21.4 h -17.5 c -1.6,0 -3,2 -3,3.7 V 462 c 0,2 1.5,3.7 3.1,3.7 h 16.5 l -0.1,-5.2 c 4.7,4.5 11.1,6.6 18.2,6.6 18.4,0 30.1,-14.4 30.1,-33.1 -0.1,-18.6 -11.7,-32.9 -30,-32.9 z m -4.4,48.9 c -8.6,0 -14.6,-6.7 -14.6,-16.5 0,-9.8 5.9,-16.5 14.6,-16.5 8.6,0 14.4,6.7 14.4,16.5 0,9.8 -5.7,16.5 -14.4,16.5 z"
     id="path2" /><path
     fill="#3e4a59"
     d="m 226.1,402.2 h -21.2 c -1.6,0 -3.3,0.9 -4.3,2.1 l -17.5,18.9 v -46.4 h -17.6 c -1.6,0 -3,2 -3,3.7 V 462 c 0,1.8 1.2,3.7 3,3.7 h 17.6 v -19.2 l 5.7,-5.5 14.1,22.3 c 1.3,1.8 3.1,2.4 5.2,2.4 H 228 L 202.9,426 Z"
     id="path3" /><path
     fill="#3e4a59"
     d="m 351.5,408.5 c -5,-4.7 -11.9,-7.4 -23.7,-7.4 -10.1,0 -18.8,2.8 -24.5,5.2 -1.5,0.7 -2.1,2.7 -1.5,4.2 L 306,421 c 3.3,-2.1 11.3,-5.7 19.4,-5.7 8.3,0 13,3.5 13,10.2 v 1.4 l -16,0.6 c -11.7,0.5 -24.7,5.3 -24.7,19.4 0,14.1 11.9,20.2 23.1,20.2 10.3,0 15.5,-5.4 18.2,-8.1 l 0.3,4.3 c 0.1,1.2 1.2,2.3 2.8,2.3 h 17 V 430 c -0.1,-10.7 -2.7,-16.9 -7.6,-21.5 z m -12.9,39.8 c -1.3,2.2 -5,5.8 -10.5,5.8 -5.7,0 -9.7,-3 -9.7,-7.8 0,-4.7 3.7,-7.5 10,-7.7 l 10.2,-0.6 z"
     id="path4" /></g>

</svg>
