<svg fill="none" height="24" viewBox="0 0 32 24" width="32" xmlns="http://www.w3.org/2000/svg" xmlns:xlink="http://www.w3.org/1999/xlink"><mask id="a" height="24" maskUnits="userSpaceOnUse" width="32" x="0" y="0"><path d="m28 0h-24c-2.20914 0-4 1.79086-4 4v16c0 2.2091 1.79086 4 4 4h24c2.2091 0 4-1.7909 4-4v-16c0-2.20914-1.7909-4-4-4z" fill="#fff"/></mask><mask id="b" height="24" maskUnits="userSpaceOnUse" width="32" x="0" y="0"><path d="m28 0h-24c-2.20914 0-4 1.79086-4 4v16c0 2.2091 1.79086 4 4 4h24c2.2091 0 4-1.7909 4-4v-16c0-2.20914-1.7909-4-4-4z" fill="#fff"/></mask><g mask="url(#a)"><path d="m28 0h-24c-2.20914 0-4 1.79086-4 4v16c0 2.2091 1.79086 4 4 4h24c2.2091 0 4-1.7909 4-4v-16c0-2.20914-1.7909-4-4-4z" fill="#ff5300"/></g><g mask="url(#b)"><path d="m28 0h-24c-2.20914 0-4 1.79086-4 4v16c0 2.2091 1.79086 4 4 4h24c2.2091 0 4-1.7909 4-4v-16c0-2.20914-1.7909-4-4-4z" fill="#00374e"/><g clip-rule="evenodd" fill="#fff" fill-rule="evenodd"><path d="m2.82664 0c-.65999 0-1.0783.322756-1.32922.717065h-.01871l.00897-.6367365h-1.268636c-.111637 0-.219044.1354465-.219044.2648365v3.897535c0 .13018.107066.2573.225496.2573h1.262184v-2.18716c0-.63698.17718-1.13877.81799-1.13877.61432 0 .70695.43921.70695 1.02219v2.04348c0 .1354.10561.26026.21721.26026h1.27017v-2.60841c0-1.067297-.34393-1.89159-1.67336-1.89159z" transform="translate(12.25 10.5)"/><path d="m2.32677 5.07207c-.6024 0-1.0131-.46462-1.0131-1.14461 0-.67994.4107-1.1451 1.0131-1.1451.60248 0 1.00365.46516 1.00365 1.1451 0 .67999-.40117 1.14461-1.00365 1.14461zm.18822-3.46316c-.55002 0-.9285.19526-1.157.402.00475-.15065.01018-.37191.01018-.59061v-1.4203h-1.166591c-.1026765 0-.201579.130788-.201579.250011v5.407269c0 .12929.0963872.24851.204724.24851h1.095326l-.00559-.34579c.31236.29954.73875.44 1.21207.44 1.22296 0 1.99347-.95902 1.99347-2.19975 0-1.24113-.77051-2.19134-1.98501-2.19134z" transform="translate(22 9)"/><path d="m4.36696 1.7125h-1.45744c-.11237 0-.22408.06222-.29602.13647l-1.19924 1.28131v-3.13028h-1.205985c-.106108 0-.208275.131396-.208275.252521v5.498879c0 .12308.0843745.2486.20925.2486h1.20501v-1.29549l.38897-.37433.96659 1.50889c.0903.12341.21542.16093.36012.16093h1.37006l-1.72405-2.67842z" transform="translate(7 9)"/><path d="m2.49755 3.21023c-.0792.14979-.30751.39537-.64637.39537-.34668 0-.59062-.2024-.59062-.53537 0-.32445.22856-.50891.61422-.52609l.62277-.04401zm.78736-2.710261c-.30732-.315952-.72452-.499969-1.44944-.499969-.62038 0-1.151996.186193-1.500376.355416-.089737.045954-.125032.180792-.088977.284026l.258461.711478c.196886-.14044.693142-.386214 1.189352-.386214.50425 0 .7954.237264.7954.692814v.09695l-.97646.04409c-.716962.03483-1.51287.35957-1.51287 1.32396 0 .96531.725102 1.37748 1.41002 1.37748.63055 0 .94538-.36856 1.11102-.55245l.016.29467c.00504.08078.07533.16124.17253.16124h1.04043v-2.43837c0-.72849-.16547-1.149532-.46509-1.465121z" transform="translate(17.5 10.5)"/></g></g></svg>