<svg height="360" viewBox="0 0 640 360" width="640" xmlns="http://www.w3.org/2000/svg"><g fill="none" transform="translate(80 146)"><path d="m110.383275.43478296h16.757003l18.756416 52.65306124h.190421l18.280365-52.65306124h16.566581v67.25274734h-11.330018v-51.8995291h-.19042l-18.851628 51.8995291h-9.806654l-18.851627-51.8995291h-.190421v51.8995291h-11.330018zm119.224378 38.61852424c-.126948-1.6954559-.491917-3.3280925-1.094919-4.8979591-.603001-1.5698666-1.428149-2.93563-2.475465-4.0973312-1.047319-1.1617014-2.316777-2.103607-3.808411-2.8257457-1.491635-.7221386-3.157796-1.0832026-4.998538-1.0832026-1.904213 0-3.633849.3296671-5.188957.9890111-1.555108.6593439-2.888038 1.569853-3.99883 2.7315541-1.110792 1.1617014-1.999412 2.5274647-2.665887 4.0973312-.666476 1.5698666-1.031444 3.2652972-1.094917 5.0863422zm-25.325924 7.0643642c0 1.88384.26976 3.7048578.809286 5.4631085.539528 1.7582505 1.348806 3.2966967 2.427862 4.6153844 1.079054 1.318688 2.44372 2.3704829 4.09404 3.1554162 1.650319.7849333 3.617978 1.177394 5.903035 1.177394 3.17369 0 5.728472-.6750326 7.664425-2.0251178 1.935949-1.3500852 3.379957-3.3751827 4.332064-6.0753531h10.282706c-.571263 2.6373756-1.555093 4.9921402-2.951516 7.0643642-1.396425 2.0722239-3.078456 3.8147496-5.046143 5.2276295-1.967689 1.4128798-4.173372 2.4803731-6.617111 3.2025118-2.443743.7221386-4.998525 1.0832024-7.664425 1.0832024-3.871903 0-7.299437-.6279371-10.282707-1.8838304-2.983268-1.2558932-5.506314-3.0141176-7.569213-5.2747253-2.062898-2.2606078-3.617985-4.9607379-4.665302-8.100471-1.047317-3.139733-1.570969-6.5933878-1.570969-10.3610674 0-3.4537065.555388-6.7346783 1.666178-9.8430142 1.110792-3.1083358 2.697614-5.8398626 4.760514-8.1946625 2.062897-2.3547998 4.554208-4.2229131 7.474003-5.6043956s6.220383-2.0722135 9.901864-2.0722135c3.871903 0 7.347042.80062 10.425522 2.4018839 3.078479 1.6012638 5.633261 3.7205519 7.664424 6.3579277s3.506905 5.6671728 4.427276 9.089482c.920371 3.422309 1.158393 6.9544559.714077 10.5965462zm46.578964-27.1271585h10.282705v6.7817897h.285631c.825159-1.1930987 1.71378-2.2919888 2.665887-3.2967034.952106-1.0047146 2.015278-1.8524297 3.189543-2.5431711 1.174266-.6907412 2.523064-1.2401864 4.046436-1.6483516 1.523371-.4081653 3.268875-.6122449 5.236562-.6122449 2.983269 0 5.760208.6593341 8.330897 1.978022s4.395534 3.3594839 5.474588 6.122449c1.84074-2.5117864 3.967081-4.4897887 6.379086-5.9340659 2.412004-1.4442773 5.426964-2.1664051 9.044972-2.1664051 5.204853 0 9.251247 1.2558744 12.139305 3.7676609 2.888059 2.5117865 4.332066 6.7189659 4.332066 12.6216641v33.6263737h-10.853966v-28.44584c0-1.9466344-.063474-3.7205571-.190421-5.321821s-.491917-2.9827258-1.094919-4.1444271c-.603-1.1617011-1.507489-2.0565117-2.71349-2.6844583-1.206003-.6279465-2.856297-.9419153-4.950933-.9419153-3.681481 0-6.34734 1.130287-7.99766 3.3908948-1.650319 2.2606079-2.475466 5.4630878-2.475466 9.6075354v28.5400315h-10.853967v-31.2715856c0-3.3909119-.61886-5.9497559-1.8566-7.6766092-1.237739-1.7268532-3.506893-2.5902669-6.807532-2.5902669-1.396424 0-2.745222.2825719-4.046435.8477237-1.301214.565152-2.443724 1.3814704-3.427569 2.4489796-.983844 1.0675093-1.777254 2.3861775-2.380256 3.9560441-.603 1.5698664-.904498 3.3594876-.904498 5.3689167v28.9167976h-10.853966zm85.23432-18.55572994h10.853968v24.86656204h.190421c.761685-1.1930986 1.682042-2.2605919 2.761096-3.2025118 1.079056-.9419199 2.269171-1.7425398 3.570384-2.4018839 1.301214-.6593438 2.665881-1.1616937 4.094041-1.5070643 1.428161-.3453706 2.840431-.5180534 4.236855-.5180534 3.871902 0 7.251833.6750326 10.139892 2.0251177 2.888057 1.3500853 5.284157 3.2025001 7.188372 5.5572999 1.904213 2.3547998 3.332354 5.1020252 4.28446 8.2417582.952107 3.1397332 1.428154 6.4991973 1.428154 10.0784929 0 3.2653226-.428441 6.4364054-1.285338 9.5133439-.856897 3.0769384-2.158091 5.7927668-3.903619 8.1475668-1.745531 2.3547998-3.951213 4.2386114-6.617113 5.6514914-2.6659 1.4128798-5.807806 2.1193091-9.425813 2.1193091-1.650319 0-3.316481-.109889-4.998539-.3296704-1.682055-.2197812-3.284745-.6436387-4.808116-1.2715855-1.523371-.6279465-2.903906-1.444265-4.141645-2.4489796-1.23774-1.0047145-2.269173-2.3233827-3.094333-3.9560439h-.19042v6.6875982h-10.282707zm37.893675 42.95133444c0-2.1978134-.285626-4.3327998-.856892-6.4050235-.571263-2.072224-1.428147-3.9089402-2.570675-5.5102042-1.14253-1.601264-2.570668-2.8885352-4.284463-3.8618523-1.713792-.9733174-3.68145-1.4599688-5.903034-1.4599688-4.570114 0-8.013517 1.5698431-10.330311 4.7095763-2.316793 3.139733-3.475173 7.3155154-3.475173 12.5274725 0 2.4489917.301497 4.7252641.904498 6.8288854.603002 2.1036211 1.507489 3.9089405 2.713491 5.4160126 1.206003 1.5070718 2.65001 2.7001525 4.332066 3.5792776 1.682056.8791255 3.633847 1.3186815 5.855429 1.3186815 2.475479 0 4.570084-.5023497 6.283877-1.5070643 1.713793-1.0047147 3.126064-2.3076844 4.236854-3.9089483 1.110792-1.6012639 1.904203-3.4222818 2.380258-5.4631083.476052-2.0408265.714075-4.1287178.714075-6.2637362zm55.909569-4.3328102c-.126947-1.6954559-.491916-3.3280925-1.094918-4.8979591-.603-1.5698666-1.428149-2.93563-2.475466-4.0973312-1.047318-1.1617014-2.316776-2.103607-3.808409-2.8257457-1.491635-.7221386-3.157797-1.0832026-4.998539-1.0832026-1.904213 0-3.633849.3296671-5.188956.9890111-1.555108.6593439-2.88804 1.569853-3.99883 2.7315541-1.110792 1.1617014-1.999413 2.5274647-2.665887 4.0973312-.666476 1.5698666-1.031445 3.2652972-1.094918 5.0863422zm-25.325923 7.0643642c0 1.88384.26976 3.7048578.809286 5.4631085.539528 1.7582505 1.348807 3.2966967 2.427862 4.6153844 1.079054 1.318688 2.44372 2.3704829 4.09404 3.1554162 1.650319.7849333 3.617978 1.177394 5.903036 1.177394 3.173689 0 5.728472-.6750326 7.664424-2.0251178 1.93595-1.3500852 3.379957-3.3751827 4.332064-6.0753531h10.282706c-.571263 2.6373756-1.555093 4.9921402-2.951517 7.0643642-1.396423 2.0722239-3.078456 3.8147496-5.046142 5.2276295-1.96769 1.4128798-4.173371 2.4803731-6.617111 3.2025118-2.443742.7221386-4.998525 1.0832024-7.664424 1.0832024-3.871904 0-7.299438-.6279371-10.282708-1.8838304-2.983268-1.2558932-5.506314-3.0141176-7.569213-5.2747253-2.062899-2.2606078-3.617985-4.9607379-4.665301-8.100471-1.047318-3.139733-1.57097-6.5933878-1.57097-10.3610674 0-3.4537065.555388-6.7346783 1.666179-9.8430142 1.110792-3.1083358 2.697613-5.8398626 4.760513-8.1946625 2.062898-2.3547998 4.554207-4.2229131 7.474003-5.6043956 2.919795-1.3814825 6.220383-2.0722135 9.901864-2.0722135 3.871902 0 7.347043.80062 10.425522 2.4018839 3.078479 1.6012638 5.633261 3.7205519 7.664424 6.3579277s3.506905 5.6671728 4.427276 9.089482c.920371 3.422309 1.158394 6.9544559.714078 10.5965462zm46.578964-27.1271585h10.187495v9.4191524h.190421c.317369-1.318688.936228-2.6059593 1.856599-3.8618526.920371-1.2558932 2.031146-2.4018786 3.33236-3.4379906 1.301213-1.0361118 2.74522-1.8681287 4.332065-2.4960752 1.586845-.6279468 3.205403-.9419153 4.855722-.9419153 1.269476 0 2.142227.0313969 2.618281.0941916.476055.0627945.967969.1255884 1.475759.188383v10.3610675c-.761686-.1255894-1.539227-.2354784-2.332651-.3296704-.793422-.0941919-1.570965-.1412871-2.332652-.1412871-1.840739 0-3.570375.3610638-5.188956 1.0832024-1.618582.7221386-3.030855 1.7896318-4.236857 3.2025118-1.206002 1.4128799-2.158094 3.1554056-2.856306 5.2276295-.698213 2.0722239-1.047313 4.4583851-1.047313 7.1585558v23.1711146h-10.853967z" fill="#336594"/><path d="m11.1910317 51.8825342c.3272248 3.1710671 1.5706603 5.3907809 3.7303439 6.6592079 2.1596835 1.2684268 4.7447206 1.9026306 7.7551886 1.9026306 1.0471192 0 2.2414718-.0792754 3.5830935-.2378287 1.3416216-.1585534 2.601418-.4598002 3.7794273-.9037497 1.1780092-.4439493 2.1433079-1.0940083 2.8959249-1.9501965s1.0961979-1.9819001 1.0307529-3.3771698c-.0654451-1.3952696-.5889967-2.5368367-1.5706712-3.4247354-.9816742-.8878989-2.2414708-1.6013782-3.7794274-2.1404598-1.5379564-.5390814-3.2885827-.9988792-5.2519314-1.3794072-1.9633487-.3805281-3.9593899-.7927607-5.9881837-1.2367102-2.0942385-.4439492-4.1066408-.9830227-6.037267-1.6172362-1.93062625-.6342133-3.66489159-1.4903886-5.20284808-2.5685516-1.53795648-1.0781627-2.76503101-2.4575563-3.68126042-4.1382219-.91622938-1.6806657-1.37433721-3.7576835-1.37433721-6.231116 0-2.6636965.67080074-4.8992654 2.01242235-6.7067736 1.34162163-1.8075084 3.04316499-3.2661774 5.10468112-4.376051 2.06151614-1.1098735 4.35205524-1.8867732 6.87168614-2.3307227 2.5196308-.4439493 4.9246969-.6659207 7.2152703-.6659207 2.6177984 0 5.1210303.2695367 7.5097713.808618 2.3887409.5390814 4.5483922 1.4111118 6.4790184 2.6161174 1.9306262 1.2050055 3.5340035 2.7746602 4.8101802 4.7090114 1.2761766 1.9343509 2.0778654 4.2650503 2.4050902 6.9921681h-11.6818665c-.5235595-2.600275-1.7506341-4.344336-3.6812604-5.2322348-1.9306261-.8878987-4.1393602-1.3318413-6.6262687-1.3318413-.7853394 0-1.7179162.0634203-2.797758.1902629-1.0798418.1268427-2.0942233.3646692-3.0431751.7134865-.9489519.3488175-1.7506406.8561806-2.4050902 1.5221048-.6544496.665924-.9816694 1.5379544-.9816694 2.6161174 0 1.3318481.4744688 2.4099949 1.4234207 3.2344723.9489518.8244774 2.1923873 1.5062467 3.7303439 2.0453282 1.5379565.5390814 3.2885826.9988793 5.2519315 1.3794072 1.9633487.3805281 3.9921118.7927607 6.0863506 1.2367102 2.0287935.4439493 4.0248348.9830228 5.9881835 1.617236 1.9633487.6342135 3.713975 1.4903889 5.2519316 2.5685518 1.5379564 1.0781628 2.7813919 2.4417013 3.7303438 4.0906561.948952 1.6489551 1.4234207 3.6784076 1.4234207 6.0884187 0 2.9173818-.6871617 5.3907771-2.0615058 7.4202601-1.374344 2.0294832-3.1576924 3.6784134-5.3500984 4.9468403-2.1924062 1.2684269-4.6301942 2.1880226-7.3134374 2.7588147-2.6832433.5707921-5.3337242.8561838-7.9515226.8561838-3.2068027 0-6.1681427-.3488121-8.8841084-1.0464469-2.7159658-.6976348-5.07194882-1.7599264-7.06802-3.1869067-1.99607118-1.4269801-3.56672658-3.2027512-4.71201332-5.3273663-1.14528675-2.1246149-1.75064352-4.6455757-1.81608848-7.5629574zm87.3871618 15.4512035h-46.7315037c.0651769-5.4343962 1.4338684-10.1816134 4.1061155-14.2417944 2.6722471-4.0601808 6.3220909-7.5893621 10.949641-10.5876497 2.2160099-1.5616081 4.5297501-3.076345 6.9412903-4.5442566s4.6275167-3.0451122 6.6479962-4.7316488c2.0204798-1.6865368 3.6824622-3.5135907 4.9859974-5.4812169s1.9878809-4.2319238 2.0530577-6.792961c0-1.1868222-.1466456-2.4517057-.4399409-3.7946886-.2932955-1.342983-.8635837-2.5922507-1.7108814-3.7478407-.8472979-1.1555899-2.0204621-2.1237724-3.5195275-2.9045764-1.4990656-.78080407-3.454339-1.17120022-5.8658791-1.17120022-2.21601 0-4.0572257.42162785-5.5237028 1.26489622-1.4664771.8432683-2.6396413 1.998841-3.5195276 3.4667525-.8798862 1.4679116-1.5316441 3.2012705-1.9552931 5.2001289-.4236488 1.9988582-.668058 4.1538451-.7332348 6.4650249h-11.1451703c0-3.6229305.5051123-6.9803376 1.5153522-10.0723215 1.0102397-3.091984 2.5255766-5.76229368 4.5460562-8.01100929 2.0204795-2.24871561 4.4808654-4.01330624 7.3812313-5.29382485 2.9003659-1.2805186 6.2732126-1.9207683 10.1186414-1.9207683 4.1713126 0 7.6582171.65586554 10.4608179 1.96761631 2.8026005 1.31175078 5.067459 2.96703048 6.7946431 4.96588879 1.7271842 1.99885832 2.9492303 4.16946094 3.6661745 6.51187304.7169443 2.342412 1.0754112 4.5754781 1.0754112 6.699265 0 2.6235016-.4236426 4.9971103-1.2709405 7.1208972-.8472979 2.123787-1.987874 4.0757678-3.4217627 5.856001-1.4338889 1.7802332-3.0632835 3.419897-4.8882328 4.9190407-1.8249493 1.4991438-3.7150469 2.90457-5.6703497 4.2163206-1.9553029 1.3117509-3.9105764 2.5610186-5.8658791 3.7478408-1.9553028 1.186822-3.7639309 2.3736264-5.4259383 3.5604484-1.6620073 1.1868223-3.1121685 2.4204741-4.3505269 3.7009927s-2.0856437 2.6390972-2.541881 4.0757766h33.3377463z" fill="#000"/></g></svg>