<svg height="270" viewBox="0 0 480 270" width="480" xmlns="http://www.w3.org/2000/svg" xmlns:xlink="http://www.w3.org/1999/xlink"><defs><path id="a" d="m0 0h480v270h-480z"/><mask id="b" fill="#fff"><use fill="#fff" fill-rule="evenodd" xlink:href="#a"/></mask></defs><g fill="none" fill-rule="evenodd"><use fill="#2d8f37" xlink:href="#a"/><path d="m414.326316 207 5.673684 44h-24.946199l-3.602339-19.165644-.004258-.01577c-.091151-.327707-1.699926-5.652942-9.992233-5.652942-8.555556 0-9.005848 5.668712-9.005848 5.668712l-4.322807 19.165644h-25.126316l5.673684-44zm24.350387-117c6.406118.64 7.127935 7.9542857 7.849751 10.788571v9.691429c.721816 0 0 .731429 2.887265 1.462857 2.887264.731429 3.60908 5.028572 3.60908 7.954286-.281376 2.6847-.763981 5.343807-1.443632 7.954286-.721816 2.834285.721816 2.102857 2.887265 4.297142 1.091715 2.915907 1.583004 6.027354 1.443632 9.142858-.721816 2.925714-2.887265 7.954285-2.887265 8.685714 0 .731428 1.443633 2.194286 2.165449 2.925714 2.132593 4.265312 2.394598 9.243318.721816 13.714286-2.398104 7.98727-7.152741 15.038714-13.62428 20.205714-1.32333.586667-1.433608 2.479365-1.442797 3.354127l-.000836 43.823016h-5.684302l-.000836-44.167778c-.009189-.80492-.119467-2.704603-1.442797-3.375079-6.471539-5.167-11.226176-12.218444-13.62428-20.205714-1.672782-4.470968-1.410777-9.448974.721816-13.714286.721816-.731429 2.165449-1.462857 2.165449-2.925714 0-1.462858-2.165449-5.76-2.887265-8.685715-.139372-3.115503.351917-6.226951 1.443632-9.142857 2.165449-2.102857 3.609081-1.371428 2.887265-4.297143-.679651-2.610478-1.162256-5.269586-1.443632-7.954285 0-2.925715 1.443632-7.222858 3.60908-7.954286 2.165449-.731429 2.165449-1.462857 2.887265-1.462857v-9.142857c.721816-2.8342861 1.443633-10.0571433 7.849751-10.7885719h.721817zm-112.813069 0 .727274.1828571h1.454549c5.727283.7314286 7.181831 7.9542858 7.181831 10.7885719l.000628.884629c.005969 3.015286.068636 7.844622.726646 8.258228.85701.687326 1.848153 1.185728 2.909097 1.462857 2.181822.731428 2.909096 5.028571 2.909096 7.954286.085015 2.725432-.410942 5.437601-1.454548 7.954285-.727274 2.925715 1.454548 2.194286 2.909096 4.297143 1.431763 2.816978 1.940895 6.017229 1.454548 9.142857-.727274 2.925715-2.909096 7.222857-2.909096 8.685715 0 1.462857 1.454548 2.194285 2.181822 2.925714 2.076778 4.256167 2.591932 9.113316 1.454548 13.714286-2.297408 8.214259-7.378533 15.362001-14.363663 20.205714-1.454548.731428-1.454548 2.925714-1.454548 3.565714v43.977143h-5.818193v-43.611429c0-.731428.727279-2.925714-.727274-3.565714-7.019178-4.828235-12.13381-11.977861-14.454572-20.205714-1.137384-4.60097-.62223-9.458119 1.454548-13.714286.769403-.803783 1.276816-1.824406 1.454548-2.925714-.899826-2.84861-1.628417-5.749088-2.181822-8.685714-.831084-3.116921-.302041-6.44233 1.454548-9.142858 1.454548-2.194285 3.63637-1.462857 2.909096-4.297142-1.351941-2.436712-2.100326-5.165105-2.181822-7.954286 0-2.925714.727274-7.222857 3.63637-7.954286 1.075337-.453357 2.037701-1.140227 2.818187-2.011428-.049436-3.064016.194108-6.125716.727275-9.142858 0-2.8342853 1.454548-10.148571 7.181831-10.788571zm84.314046 105.8 2.82232 6.4h-62l2.82232-6.4zm-6.220933-54.8 5.043253 51h-53l4.401384-51zm-31.268166 16.161972h-7.977508v15.713028h7.977508zm26.866782 0h-7.977508v15.713028h7.977508zm9.444637-26.311972-2.889267 6.3h-47.221466l-2.889267-6.3zm-44.31811-18.85v8.584337h8.617323v-8.584337h18.491338v8.584337h8.527559v-8.584337h10.68189v15h-57v-15zm18.414438-97c5.623462.7215686 7.051643 7.8470588 7.051643 10.0117647.488967 2.8291676.727938 5.6966742.714091 8.5686275 0 .7215686.71409 1.4431372 2.142271 1.4431372 2.386809 1.5397262 3.75499 4.2701823 3.570453 7.1254902-.20464 2.6587639-.683292 5.2886919-1.428181 7.8470588-.714091 2.1647059.71409 2.1647059 2.142271 4.2392157 1.895965 2.4209883 2.434774 5.6536678 1.428181 8.5686275 0 2.0745098-2.142271 6.4039215-2.142271 7.8470588.379057.7823126.859321 1.5102533 1.42818 2.1647059 2.020697 3.9458945 2.529244 8.5065174 1.428181 12.8078431-1.788135 7.7727509-6.662539 14.4596196-13.478457 18.4901956-1.01356.578203-1.578549 1.720014-1.428181 2.886275h-4.284543v-.180392c.150368-1.166261-.414621-2.308072-1.428181-2.886275-6.559485-4.1600311-11.166143-10.8331394-12.764367-18.4901957-1.613641-4.171539-1.353029-8.8458426.714091-12.8078432.568859-.6544525 1.049124-1.3823933 1.428181-2.1647059-.466528-2.678342-1.183842-5.305835-2.142272-7.8470588 0-2.8862745-.71409-6.4039216 1.428181-8.5686274 2.142272-2.1647059 3.570453-2.1647059 2.856362-4.2392157-1.103948-2.4583155-1.594334-5.1527154-1.428181-7.8470588 0-2.1647059 0-5.682353 2.856362-7.1254902 2.142271 0 2.142271-.7215687 2.856362-1.4431373v-8.3882353c.71409-2.1647059 1.428181-9.0196078 7.051643-10.0117647z" fill="#000" fill-rule="nonzero" mask="url(#b)" opacity=".17041"/></g></svg>