<svg height="80" viewBox="0 0 233 80" width="233" xmlns="http://www.w3.org/2000/svg"><g fill="#fff" fill-rule="nonzero" transform="translate(0 12.316667)"><path d="m24.3895512.06406213h-21.84092805s-2.54862315 0-2.54862315 2.20880673v50.30827634c.0173955.6411367.30332257 1.2454767.78800083 1.6655312s1.12352222.6171827 1.76062232.5432756h9.51485975v-10.1018154c.0077535-.0615416.0077535-.1238129 0-.1853544 0-.2780316 0-.6487405-.231693-.7877563l-1.0194493-.6641866c-1.25452382-.8277356-2.38337359-1.8317356-3.35182556-2.9811168-1.06905338-1.3883431-1.78466948-3.0157071-2.08523712-4.7419837-.22889982-1.1948791-.09994006-2.4307435.37070882-3.5526262.18840381-.3927129.43873936-.7525702.74141765-1.0657879.30604642-.3287501.35651029-.8207728.1235696-1.2048036-.3037233-.632864-.55680384-1.2888075-.75686384-1.9616675-.17559315-.6486912-.22798588-1.3245574-.15446201-1.99256.05384592-.6704118.32501023-1.3049363.77231004-1.8072055.37070883-.386155.83409485-.4479398 1.12757267-1.0657878-.371689-1.0797228-.57487122-2.2102495-.60240183-3.3518256-.02836364-.5180864.01320004-1.0376324.1235696-1.5446201.20789566-.6333532.70810531-1.1278133 1.34381948-1.3283733.24713922-.1390158.50972463-.2008006.75686385-.3243702.24713921-.1235696.29347782-.2162468.29347782-.7568639 0-2.4096073.32437021-4.6338602 1.54462013-5.86955631.6139621-.52942875 1.4170654-.78597564 2.2242529-.71052524.8291148-.04624493 1.6419354.24325284 2.2551453.80320244 1.3438195 1.18935751 1.6681897 3.45994901 1.6681897 5.86955631 0 .5406171 0 .6178481.3243702.7568639l.7877563.3243702c.6527264.1947516 1.1743154.6876819 1.4056043 1.3283733.1275945.504288.1693683 1.0264606.1235696 1.5446201-.0312691 1.1425147-.2396999 2.2732517-.6178481 3.3518256.2934779.617848.7877563.6796328 1.1739113 1.081234.4550618.483702.7421324 1.1011745.8186487 1.7608669.0755058.6740023.0177751 1.3562738-.1699082 2.0080062-.203374.6711629-.4670334 1.3225567-.7877563 1.9462213-.2502237.3799691-.1985755.883539.1235696 1.2048037.3177152.3074231.5791045.6681403.7723101 1.0657878.5162321 1.0918697.678249 2.3177974.463386 3.5062876-.3310034 1.7454565-1.1018832 3.3775951-2.2396991 4.7419837-1.0191878 1.1529241-2.2002513 2.1518853-3.5062877 2.9656706l-1.0194492.6796328c-.1853544.1390158-.1699082.4942785-.231693.7723101-.0077535.0615415-.0077535.1238128 0 .1853544v10.1018154h9.83923s2.5486231 0 2.5486231-2.2088068v-50.30827634c-.0148644-.65652218-.3113445-1.27494638-.8138843-1.697671-.5025398-.42272463-1.1626005-.60892013-1.8119699-.51113573z"/><path d="m.77231005 1.00628038h3.86155023l6.07035692 15.44620092 6.0394646-15.44620092h3.8306578l-8.3100561 20.24996942h-3.08924015zm30.12009175 20.11095362v-1.8689903c-1.2159867 1.4328571-3.0180117 2.2343887-4.8964457 2.1779143-2.8729933 0-5.4061703-1.6372973-5.4061703-4.6338603 0-3.3518256 2.6258542-4.9736767 6.1784804-4.9736767 1.4249194-.0267476 2.8444745.1820105 4.2013666.6178481v-.2934779c0-2.0852371-1.312927-3.24370215-3.7379806-3.24370215-1.4993486-.00138423-2.9808227.32548906-4.3403824.95766446l-.9885569-2.79576237c1.8390589-.88902866 3.8578327-1.343517 5.9004488-1.32837327 4.4793982 0 6.6727587 2.36326874 6.6727587 6.41017333v8.989689zm.0926772-6.3483886c-1.1173202-.4129843-2.2996481-.6222459-3.4908414-.617848-2.1779143 0-3.4753952.8958796-3.4753952 2.3478225 0 1.4364967 1.2974809 2.2396991 2.9347782 2.2396991 2.3014839 0 4.0314584-1.2974808 4.0314584-3.1819174zm7.6304233-8.81978072h3.4753952v2.34782254c1.0008568-1.67020449 2.8103576-2.68657993 4.7574299-2.6723435 3.4136104 0 5.4061703 2.30163468 5.4061703 5.83881468v9.6538756h-3.5526262v-8.6189801c0-2.3632688-1.1739113-3.70708825-3.2437022-3.70708825-.9780902-.03494163-1.9221948.36134005-2.5823233 1.08391306-.6601284.72257299-.9696965 1.69855479-.8467333 2.66951379v8.5726415h-3.4136104zm26.8146048-4.9427843h3.53718v16.88269762h10.5960938v3.228256h-14.1178276zm26.6910352 20.11095362v-1.8689903c-1.2159868 1.4328571-3.0180118 2.2343887-4.8964457 2.1779143-2.8729934 0-5.4061703-1.6372973-5.4061703-4.6338603 0-3.3518256 2.6258541-4.9736767 6.1784803-4.9736767 1.4249194-.0267476 2.8444745.1820105 4.2013667.6178481v-.2934779c0-2.0852371-1.3283733-3.24370215-3.7379806-3.24370215-1.4993487-.00138423-2.9808228.32548906-4.3403825.95766446l-.9885569-2.79576237c1.80987-.83446536 3.784146-1.25149158 5.7768792-1.22024987 4.4948445 0 6.6727588 2.36326874 6.6727588 6.41017343v8.9896889zm.0926772-6.3483886c-1.1176684-.4116981-2.2997627-.6209183-3.4908414-.6178813-2.1779144 0-3.4753952.8959129-3.4753952 2.3478558 0 1.4364967 1.2974808 2.2396991 2.9347781 2.2396991 2.301484 0 4.0314585-1.2974808 4.0314585-3.1819174zm7.4914074-8.81978072h3.4908411v2.34782254c.993528-1.67007637 2.798785-2.68737127 4.741984-2.67219276 3.429057 0 5.40617 2.30148394 5.40617 5.83866394v9.6538756h-3.475395v-8.6189801c0-2.3632688-1.189357-3.70708825-3.259148-3.70708825-.976469-.02960143-1.91726.36828234-2.576176 1.0895289-.658917.72124655-.970379 1.69407225-.852881 2.66389795v8.5726415h-3.4753951zm16.6046661 13.16016322 1.54462-2.3478226c1.418118 1.1340138 3.159687 1.7884543 4.973677 1.8689903 1.54462 0 2.363268-.617848 2.363268-1.6372973 0-1.1739112-1.54462-1.5446201-3.398164-2.1315757-2.239699-.6024018-4.741983-1.5446201-4.741983-4.4485059 0-2.87299333 2.378714-4.63386023 5.40617-4.63386023 1.985651.03301578 3.920433.63328056 5.576078 1.7299745l-1.374711 2.33237634c-1.277785-.84117346-2.752087-1.3361557-4.278598-1.43649669-1.359266 0-2.131576.61784804-2.131576 1.5446201 0 1.09668028 1.637297 1.54462008 3.429057 2.13157568 2.208806.6950791 4.63386 1.6990821 4.63386 4.4176135 0 3.1819174-2.4405 4.7728761-5.637863 4.7728761-2.298992-.0155743-4.531316-.7741311-6.363835-2.1624681zm14.79746-5.4988476c-.03716-2.0808807.757148-4.09064695 2.206881-5.58387176 1.449733-1.4932248 3.43515-2.34657504 5.51622-2.37092168h.185354c2.311836-.09313428 4.538376.88062121 6.039465 2.64130036l-2.162468 2.33237638c-.92903-1.20880121-2.353015-1.93497637-3.876997-1.97711376-1.224399.04349374-2.379277.57987412-3.202403 1.48734846-.823126.9074743-1.244654 2.1090405-1.168872 3.3318662-.0723 1.2738062.383801 2.5210646 1.260778 3.4477366.876976.9266721 2.097228 1.4507593 3.373083 1.4487091 1.521902-.0503225 2.952011-.7401399 3.938781-1.8998827l1.977114 2.1315757c-2.127525 2.5712446-5.635919 3.5375078-8.779899 2.4181127-3.143981-1.1193952-5.252296-4.085454-5.276144-7.4226818zm17.253407-13.46908717h3.475395v8.15559409c1.000857-1.67020449 2.810358-2.68657993 4.75743-2.67219276 3.41361 0 5.40617 2.30148394 5.40617 5.83866394v9.6538756h-3.490841v-8.6189801c0-2.3632688-1.173911-3.70708825-3.243702-3.70708825-.978091-.03494163-1.922195.36134005-2.582324 1.08391306-.660128.72257299-.969696 1.69855479-.846733 2.66951379v8.5726415h-3.475395zm17.006267 13.46908717c0-4.47008721 3.623722-8.09380877 8.093809-8.09380877 4.470088 0 8.09381 3.62372156 8.09381 8.09380877-.00815 2.1069387-.855084 4.1238788-2.353595 5.6049998-1.498512 1.4811209-3.525201 2.3044532-5.632091 2.2880089h-.154462c-2.081258.0539425-4.098635-.7214545-5.60798-2.1554771-1.509345-1.4340227-2.386911-3.4090998-2.439491-5.4903924zm12.712223 0c.071431-1.2474166-.363911-2.4708178-1.20728-3.3927071-.843368-.92188919-2.023286-1.46413337-3.272118-1.50374004h-.185354c-1.261776-.00100836-2.469401.5125616-3.343949 1.42209134-.874547.9095297-1.340383 2.1363589-1.289912 3.3971248-.067162 1.2500297.374286 2.4740534 1.223862 3.393458.849577.9194046 2.034995 1.4559623 3.286429 1.4875415h.12357c1.264341.0092807 2.477569-.4984797 3.358396-1.4055565s1.352751-2.1346883 1.306356-3.398212zm7.738547 3.305487v-7.98568584h-1.930775v-2.98111678h1.930775v-4.17047425h3.475395v4.17047425h4.093243v2.98111678h-4.093243v7.44506884c-.078454.5212132.094033 1.0488446.465214 1.423068.371181.3742233.897386.5510121 1.419223.4768147.74705-.0034906 1.482707-.1834354 2.147022-.5251708v2.9038858c-.943102.5283133-2.008311.7999417-3.08924.7877562-2.594962-.0617848-4.417614-1.1893575-4.417614-4.5257369z" transform="translate(38.615502 7.7231)"/><path d="m3.66302694 3.76887302c-1.62185109-.35526262-2.00800612-.74141764-2.00800612-1.43649668 0-.66418664.61784804-1.18935747 1.54462009-1.18935747.77945488.00217343 1.53153913.28763606 2.11612953.80320245l.49427843-.64874044c-.7267709-.60512512-1.64965965-.92374147-2.59496175-.89587966-.59058734-.0689843-1.18370171.10649761-1.64168133.48571641-.45797963.3792188-.74100003.9291988-.78337222 1.52228971 0 1.20480367.78775625 1.76086691 2.47139215 2.13157573s1.91532891.71052524 1.91532891 1.39015808c0 .72597145-.64874044 1.25114228-1.6372973 1.25114228-.93021352.01327158-1.82658032-.34861563-2.48683834-1.00400306l-.52517083.61784803c.8355634.78191194 1.94526856 1.2035999 3.08924018 1.17391127 1.46738909 0 2.51773075-.81864865 2.51773075-2.08523712-.07723101-1.15846507-.83409485-1.7608669-2.47139215-2.11612953zm7.41417646-3.29004079h.8340948v7.36783784h-.8340948zm11.6773279 5.90044875-4.6493065-5.90044875h-.77231v7.36783784h.8186486v-6.03946456l4.7419837 6.03946456h.6641866v-7.36783784h-.8032024zm8.7116573-5.90044875h-2.5640694v7.36783784h2.5640694c1.0144724.06406672 2.0101925-.29477362 2.7505748-.99125974s1.159335-1.66844467 1.157314-2.68493608c.010946-1.02062188-.4047065-1.99947043-1.1466734-2.70037984s-1.7428674-1.06022758-2.7612154-.99126218zm3.0892402 3.70708822c.0162245.80663063-.3111398 1.58214573-.9004605 2.13316057s-1.3850562.82559814-2.1887797.755279h-1.7299745v-5.82321775h1.7299745c.8080126-.06598478 1.6060228.21434764 2.1952507.77116797s.914208 1.33771378.8939895 2.14816401zm8.3718409-.41704743c-1.6218511-.35526262-1.9925599-.74141764-1.9925599-1.43649668 0-.66418664.6024018-1.18935747 1.54462-1.18935747.7840052.002637 1.5407863.28780088 2.1315758.80320245l.4788322-.64874044c-.7191251-.60794015-1.638372-.92719957-2.5795155-.89587966-.5905874-.0689843-1.1837018.10649761-1.6416814.48571641s-.741.9291988-.7833722 1.52228971c0 1.20480367.7723101 1.76086691 2.4713922 2.13157573s1.9153289.71052524 1.9153289 1.39015808c0 .72597145-.6487405 1.25114228-1.6372973 1.25114228-.9395812.01463494-1.8460452-.34683845-2.5177308-1.00400306l-.5097246.61784803c.832833.78627859 1.94441 1.20867783 3.0892402 1.17391127 1.4519429 0 2.5022845-.81864865 2.5022845-2.08523712-.0308924-1.15846507-.8340948-1.7608669-2.4713921-2.11612953zm15.3689699-2.71853136.2008006.67963284 1.3901581-.43249362v6.54918919h.8186486v-7.41417644h-.6024018zm7.8775625.18535441h4.0469046l-3.3209332 6.610974h.9113259l3.3518256-6.7499898v-.61784804h-4.9891229zm12.3260683 2.42505355 2.3941611-2.56406935v-.61784804h-4.6338602v.75686384h3.5989648l-2.3169302 2.61040796.1699082.49427843h.4633861c1.2202498 0 2.0697909.50972463 2.0697909 1.42105048-.0645605.80447203-.7375658 1.42363689-1.5446201 1.42105049-.9088243.09957162-1.8040154-.28073831-2.3632687-1.00400306l-.6178481.54061703c.6547408.85095451 1.6760426 1.3386548 2.7494238 1.31292708.6273253.03822648 1.2427182-.18350398 1.7014975-.61306168.4587793-.42955771.7204731-1.02904853.723556-1.65752986 0-1.37471188-1.1121264-1.99255992-2.3941611-2.10068332zm7.2906068-3.18191739v.75686384h4.0469047l-3.3209332 6.610974h.926772l3.3363794-6.7499898v-.61784804z" transform="translate(45.764816 36.100049)"/></g></svg>