<svg height="360" viewBox="0 0 640 360" width="640" xmlns="http://www.w3.org/2000/svg" xmlns:xlink="http://www.w3.org/1999/xlink"><linearGradient id="a" x1="0%" x2="0%" y1="0%" y2="100%"><stop offset="0" stop-color="#f9aa4b"/><stop offset="1" stop-color="#f7931a"/></linearGradient><g fill="none" fill-rule="nonzero" transform="translate(210 70)"><path d="m216.685906 136.987019c-14.691875 58.662415-74.377187 94.363575-133.3131248 79.734757-58.911875-14.625396-94.7753124-74.044061-80.07656245-132.7030543 14.68499995-58.669259 74.37031245-94.3738405 133.28906225-79.74844455 58.9325 14.62539595 94.7925 74.05090495 80.100625 132.71674185z" fill="url(#a)"/><path d="m153.92577 94.8970871c2.094848-14.5706448-8.56684-22.4034785-23.145268-27.6287896l4.729028-19.7377828-11.546325-2.9942025-4.60406 19.2176471c-3.035391-.7870475-6.152998-1.5296098-9.250873-2.2653281l4.636947-19.344259-11.539748-2.9942025-4.7323163 19.7309389c-2.5125014-.5954186-4.9789622-1.1839932-7.3730735-1.8033654l.0131545-.061595-15.9234709-4.1371324-3.0715658 12.8322964s8.5668404 2.0429016 8.3859666 2.1695136c4.6764097 1.2147907 5.5215836 4.4348416 5.3801732 6.9876131-12.9571407 54.0701641 0 0-12.9571407 54.0701641-.5722189 1.47828-2.0224979 3.695701-5.2913806 2.853903.1151016.174519-8.3925439-2.17978-8.3925439-2.17978l-5.7320549 13.7528 15.0256792 3.897596c2.7953222.728875 5.534738 1.491968 8.2314018 2.210577l-4.7783567 19.963631 11.5331707 2.994203 4.7323161-19.751471c3.1504925.889706 6.2089039 1.710973 9.201543 2.484333l-4.715873 19.659078 11.5463252 2.994202 4.778357-19.925989c19.688934 3.877064 34.494276 2.313235 40.7262-16.216601 5.021714-14.919683-.249935-23.525877-10.60907-29.137868 7.544082-1.810209 13.226807-6.973925 14.742858-17.6401299zm-26.381264 38.4934669c-3.568147 14.919684-27.709865 6.854158-35.5367672 4.831788l6.3404485-26.448219c7.8269027 2.032636 32.9256077 6.056844 29.1963187 21.616431zm3.571435-38.7090495c-3.255728 13.5714365-23.349162 6.6762165-29.867196 4.9857749l5.748498-23.9878394c6.518034 1.6904412 27.50926 4.8454752 24.118698 19.0020645z" fill="#fff"/></g></svg>