<svg xmlns="http://www.w3.org/2000/svg" width="640" height="360" viewBox="0 0 640 360">
  <defs>
    <linearGradient id="payment-method-bitcoin-a" x1="0%" x2="0%" y1="0%" y2="100%">
      <stop offset="0%" stop-color="#F9AA4B"/>
      <stop offset="100%" stop-color="#F7931A"/>
    </linearGradient>
  </defs>
  <g fill="none" fill-rule="evenodd" transform="translate(210 70)">
    <path fill="url(#payment-method-bitcoin-a)" fill-rule="nonzero" d="M216.685906,136.987019 C201.994031,195.649434 142.308719,231.350594 83.3727812,216.721776 C24.4609062,202.09638 -11.4025312,142.677715 3.29621875,84.0187217 C17.9812187,25.3494627 77.6665312,-10.3551188 136.585281,4.27027715 C195.517781,18.8956731 231.377781,78.3211821 216.685906,136.987019 Z"/>
    <path fill="#FFF" fill-rule="nonzero" d="M153.92577,94.8970871 C156.020618,80.3264423 145.35893,72.4936086 130.780502,67.2682975 L135.50953,47.5305147 L123.963205,44.5363122 L119.359145,63.7539593 C116.323754,62.9669118 113.206147,62.2243495 110.108272,61.4886312 L114.745219,42.1443722 L103.205471,39.1501697 L98.4731547,58.8811086 C95.9606533,58.28569 93.4941925,57.6971154 91.1000812,57.0777432 L91.1132357,57.0161482 L75.1897648,52.8790158 L72.118199,65.7113122 C72.118199,65.7113122 80.6850394,67.7542138 80.5041656,67.8808258 C85.1805753,69.0956165 86.0257492,72.3156674 85.8843388,74.8684389 C72.9271981,128.938603 85.8843388,74.8684389 72.9271981,128.938603 C72.3549792,130.416883 70.9047002,132.634304 67.6358175,131.792506 C67.7509191,131.967025 59.2432736,129.612726 59.2432736,129.612726 L53.5112187,143.365526 L68.5368979,147.263122 C71.3322201,147.991997 74.0716359,148.75509 76.7682997,149.473699 L71.989943,169.43733 L83.5231137,172.431533 L88.2554298,152.680062 C91.4059223,153.569768 94.4643337,154.391035 97.4569728,155.164395 L92.7410998,174.823473 L104.287425,177.817675 L109.065782,157.891686 C128.754716,161.76875 143.560058,160.204921 149.791982,141.675085 C154.813696,126.755402 149.542047,118.149208 139.182912,112.537217 C146.726994,110.727008 152.409719,105.563292 153.92577,94.8970871 L153.92577,94.8970871 Z M127.544506,133.390554 C123.976359,148.310238 99.834641,140.244712 92.0077388,138.222342 L98.3481873,111.774123 C106.17509,113.806759 131.273795,117.830967 127.544506,133.390554 Z M131.115941,94.6815045 C127.860213,108.252941 107.766779,101.357721 101.248745,99.6672794 L106.997243,75.67944 C113.515277,77.3698812 134.506503,80.5249152 131.115941,94.6815045 L131.115941,94.6815045 Z"/>
  </g>
</svg>
