<svg xmlns="http://www.w3.org/2000/svg" width="51" height="32" viewBox="0 0 51 32">
  <defs>
    <linearGradient id="icon-51x32-a" x1="0%" x2="0%" y1="0%" y2="100%">
      <stop offset="0%" stop-color="#F9AA4B"/>
      <stop offset="100%" stop-color="#F7931A"/>
    </linearGradient>
  </defs>
  <g fill="none" fill-rule="evenodd">
    <rect width="50" height="31" x=".5" y=".5" fill="#FFF" stroke="#D0D0D0"/>
    <g transform="translate(14 4)">
      <path fill="url(#icon-51x32-a)" fill-rule="nonzero" d="M23.6384625,14.9440385 C22.0357125,21.3435747 15.5245875,25.2382466 9.0952125,23.6423756 C2.6684625,22.0468778 -1.2439125,15.5648416 0.3595875,9.16567873 C1.9615875,2.76539593 8.4727125,-1.12964932 14.9002125,0.465848416 C21.3292125,2.06134615 25.2412125,8.54412896 23.6384625,14.9440385 Z"/>
      <path fill="#FFF" fill-rule="nonzero" d="M16.7919022,10.3524095 C17.020431,8.76288462 15.8573378,7.90839367 14.2669639,7.33835973 L14.7828578,5.18514706 L13.5232587,4.85850679 L13.0209976,6.95497738 C12.689864,6.86911765 12.3497615,6.78811086 12.0118115,6.70785068 L12.5176602,4.59756787 L11.2587786,4.2709276 L10.742526,6.42339367 C10.4684349,6.35843891 10.1993665,6.29423077 9.93819068,6.2266629 L9.93962571,6.21994344 L8.2025198,5.76861991 L7.86743989,7.16850679 C7.86743989,7.16850679 8.8020043,7.39136878 8.78227262,7.405181 C9.2924264,7.53770362 9.38462719,7.8889819 9.36920059,8.16746606 C7.95569434,14.0660294 9.36920059,8.16746606 7.95569434,14.0660294 C7.89327046,14.2272964 7.73505821,14.4691968 7.37845282,14.3773643 C7.39100935,14.3964027 6.46290258,14.1395701 6.46290258,14.1395701 L5.8375875,15.6398756 L7.4767525,16.0650679 C7.78169674,16.1445814 8.0805421,16.2278281 8.3747236,16.3062217 L7.85344833,18.4840724 L9.1116124,18.8107127 L9.62786506,16.6560068 C9.97155516,16.7530656 10.3052,16.8426584 10.6316698,16.9270249 L10.1172109,19.0716516 L11.37681,19.3982919 L11.8980853,17.2245475 C14.045969,17.6475 15.6610972,17.4769005 16.3409435,15.4554638 C16.8887669,13.827862 16.3136779,12.8890045 15.1835904,12.2767873 C16.0065811,12.07931 16.6265148,11.5159955 16.7919022,10.3524095 L16.7919022,10.3524095 Z M13.9139461,14.5516968 C13.5246937,16.1792986 10.8910517,15.2994231 10.0372079,15.0788009 L10.7288932,12.1935407 C11.582737,12.4152828 14.3207776,12.8542873 13.9139461,14.5516968 Z M14.3035572,10.3288914 C13.9483869,11.8094118 11.7563759,11.0572059 11.0453177,10.8727941 L11.6724265,8.25593891 C12.3834847,8.44035068 14.6734366,8.7845362 14.3035572,10.3288914 L14.3035572,10.3288914 Z"/>
    </g>
  </g>
</svg>
