<svg height="32" viewBox="0 0 51 32" width="51" xmlns="http://www.w3.org/2000/svg" xmlns:xlink="http://www.w3.org/1999/xlink"><linearGradient id="a" x1="0%" x2="0%" y1="0%" y2="100%"><stop offset="0" stop-color="#f9aa4b"/><stop offset="1" stop-color="#f7931a"/></linearGradient><g fill="none" fill-rule="evenodd"><path d="m.5.5h50v31h-50z" fill="#fff" stroke="#d0d0d0"/><g fill-rule="nonzero" transform="translate(14 4)"><path d="m23.6384625 14.9440385c-1.60275 6.3995362-8.113875 10.2942081-14.54325 8.6983371-6.42675-1.5954978-10.339125-8.077534-8.735625-14.47669687 1.602-6.4002828 8.113125-10.29532805 14.540625-8.69983031 6.429 1.59549773 10.341 8.07828054 8.73825 14.47819008z" fill="url(#a)"/><path d="m16.7919022 10.3524095c.2285288-1.58952488-.9345644-2.44401583-2.5249383-3.01404977l.5158939-2.15321267-1.2595991-.32664027-.5022611 2.09647059c-.3311336-.08585973-.6712361-.16686652-1.0091861-.2471267l.5058487-2.11028281-1.2588816-.32664027-.5162526 2.15246607c-.2740911-.06495476-.5431595-.1291629-.80433532-.19673077l.00143503-.00671946-1.73710591-.45132353-.33507991 1.39988688s.93456441.22286199.91483273.23667421c.51015378.13252262.60235457.4838009.58692797.76228506-1.41350625 5.89856334 0 0-1.41350625 5.89856334-.06242388.161267-.22063613.4031674-.57724152.3113349.01255653.0190384-.91555024-.2377942-.91555024-.2377942l-.62531508 1.5003055 1.639165.4251923c.30494424.0795135.6037896.1627602.8979711.2411538l-.52127527 2.1778507 1.25816407.3266403.51625266-2.1547059c.3436901.0970588.67733494.1866516 1.00380474.2710181l-.5144589 2.1446267 1.2595991.3266403.5212753-2.1737444c2.1478837.4229525 3.7630119.252353 4.4428582-1.7690837.5478234-1.6276018-.0272656-2.5664593-1.1573531-3.1786765.8229907-.1974773 1.4429244-.7607918 1.6083118-1.9243778zm-2.8779561 4.1992873c-.3892524 1.6276018-3.0228944.7477263-3.8767382.5271041l.6916853-2.8852602c.8538438.2217421 3.5918844.6607466 3.1850529 2.3581561zm.3896111-4.2228054c-.3551703 1.4805204-2.5471813.7283145-3.2582395.5439027l.6271088-2.61685519c.7110582.18441177 3.0010101.52859729 2.6311307 2.07295249z" fill="#fff"/></g></g></svg>