<svg height="360" viewBox="0 0 640 360" width="640" xmlns="http://www.w3.org/2000/svg"><g fill="#1d1d1b"><path d="m543.081 187.82c-.419-.42-.801-.873-1.143-1.357l-1.179-1.643c-1.142-1.607-2.321-3.571-3.571-5.857s-2.678-4.714-4-7.143c-1.321-2.428-2.607-5.178-3.821-7.785s-2.428-5.035-3.393-7.142c-.964-2.107-1.892-4.214-2.607-5.857-.536-1.153-.978-2.347-1.321-3.571-.139-.298-.246-.609-.321-.929 0 0 0-.464 0-.893-.009-1.345.533-2.635 1.5-3.571 1.135-1.037 2.644-1.566 4.178-1.464 1.312-.148 2.621.297 3.571 1.214.628.703 1.124 1.514 1.464 2.393l1.179 2.643c.607 1.357 1.357 3.035 2.214 5.035s1.893 4.214 3.036 6.643c1.142 2.428 2.249 4.749 3.571 7.142l3.392 6.678c.92 1.797 1.946 3.538 3.072 5.214 1.821-2.843 3.478-5.788 4.964-8.821 1.75-3.571 3.571-6.964 5.035-10.428s3-6.499 4.214-9.106l2.107-4.964c.354-.881.862-1.691 1.5-2.393.927-.955 2.255-1.406 3.571-1.214 1.536-.11 3.048.42 4.179 1.464.992.918 1.539 2.22 1.5 3.571.037.297.037.596 0 .893l-.286.928-1.393 3.572c-.678 1.678-1.535 3.571-2.571 5.856-1.036 2.286-2.107 4.679-3.321 7.143-1.215 2.464-2.572 5.178-3.893 7.785s-2.643 5-3.964 7.143c-1.321 2.142-2.571 4.321-3.571 5.892-.685 1-1.462 1.932-2.322 2.786v24.998c.071 1.472-.472 2.908-1.499 3.964-2.129 2.102-5.551 2.102-7.679 0-1.107-1.075-1.716-2.563-1.678-4.107v-24.998"/><path d="m475.37 195.855c-1.214 3.857-2.285 7.428-3.178 10.713-.893 3.286-1.821 5.964-2.607 8.071-.395 2.959-3.113 5.038-6.071 4.643-2.959-.394-5.037-3.113-4.643-6.071-.007-.534.078-1.066.25-1.571l1.5-4.964c.857-2.786 1.964-6.25 3.321-10.464s2.893-8.714 4.536-13.678 3.357-9.892 5.107-14.749 3.571-9.392 5.214-13.571c1.371-3.51 2.982-6.923 4.821-10.213.521-1.193 1.443-2.166 2.607-2.75 1.412-.537 2.919-.78 4.428-.714 1.552-.033 3.094.247 4.536.821 1.21.58 2.137 1.622 2.571 2.893 1.143 2.392 2.5 5.642 4.035 9.678 1.536 4.035 3.25 8.428 4.964 13.142 1.715 4.714 3.572 9.499 5.143 14.285 1.571 4.785 3.25 9.428 4.643 13.642 1.392 4.214 2.606 7.821 3.571 10.713.964 2.893 1.642 4.893 1.857 5.786.172.505.257 1.037.25 1.571.073 1.35-.465 2.661-1.465 3.571-1.142 1.019-2.653 1.522-4.178 1.393-1.111.105-2.221-.214-3.107-.893-.749-.703-1.303-1.589-1.607-2.571-.821-2.107-1.75-4.785-2.857-8.071-1.107-3.285-2.25-6.857-3.571-10.714h-30.177m26.784-10.463c-1.714-5.214-3.285-10-4.821-14.285-1.535-4.286-2.893-8.393-4.607-12.464-.393-.893-.821-1.893-1.25-3.107-.428-1.214-.714-1.821-.785-2.035-.335.61-.599 1.257-.786 1.928-.464 1.286-.857 2.321-1.286 3.214-1.607 3.929-3.142 8.071-4.642 12.464-1.5 4.392-3.071 9.142-4.75 14.285z"/><path d="m412.195 167.142c-1.142 4.393-2.321 9.107-3.571 14.285s-2.5 9.821-3.571 14.285-2.321 8.535-3.571 11.999c-.668 2.464-1.578 4.857-2.714 7.143-1.429 2.312-4.045 3.613-6.75 3.357-1.208-.03-2.408-.21-3.571-.536-1.57-.475-2.867-1.59-3.572-3.071-1.13-2.388-2.039-4.874-2.714-7.428-1.071-3.572-2.214-7.929-3.571-12.75s-2.393-9.892-3.571-15.285c-1.179-5.392-2.321-10.392-3.25-14.999-.928-4.607-1.786-8.571-2.428-11.785-.643-3.214-1-5.178-1.107-5.857-.02-.273-.02-.547 0-.821v-.464c-.04-1.295.544-2.531 1.571-3.321 1.094-.866 2.463-1.309 3.857-1.25 1.256-.055 2.5.268 3.571.928 1.03.77 1.722 1.909 1.929 3.179 0 0 .214 1.321.642 3.571.429 2.25 1.036 4.928 1.715 8.249.678 3.322 1.464 7.143 2.285 11.321s1.714 8.428 2.679 12.714c.964 4.285 1.857 8.392 2.785 12.428.929 4.035 1.75 7.463 2.571 10.356.786-2.714 1.679-5.821 2.643-9.321s1.964-7.142 2.928-10.713c.965-3.572 1.857-7.464 2.75-11.178s1.715-7.143 2.5-10.428c.786-3.286 1.393-6.036 1.964-8.536.572-2.499 1-4.321 1.322-5.535.361-1.404 1.162-2.656 2.285-3.571 1.091-.991 2.493-1.571 3.964-1.643 1.573-.072 3.119.422 4.357 1.393 1.111.902 1.869 2.166 2.143 3.571.964 3.893 1.893 8.321 2.928 13.178 1.036 4.857 2.143 9.749 3.25 14.713s2.321 9.857 3.571 14.642c1.25 4.786 2.393 9 3.572 12.678.785-2.893 1.678-6.321 2.607-10.321.928-3.999 1.821-8.142 2.785-12.428.964-4.285 1.929-8.428 2.786-12.606s1.714-7.928 2.428-11.249c.714-3.322 1.322-6.036 1.714-8.107.393-2.071.679-3.214.679-3.286.248-1.243.932-2.358 1.928-3.142 1.067-.668 2.314-.993 3.572-.929 1.403-.049 2.78.393 3.892 1.25 1.013.802 1.594 2.03 1.572 3.321v.465c.017.285.017.571 0 .857 0 .643-.465 2.571-1.143 5.857-.679 3.285-1.5 7.142-2.464 11.749-.965 4.607-2.072 9.607-3.25 14.928-1.179 5.321-2.429 10.392-3.571 15.213-1.143 4.821-2.286 9.071-3.572 12.714-.669 2.532-1.578 4.996-2.714 7.356-.721 1.5-2.004 2.655-3.571 3.214-1.152.39-2.356.606-3.571.643-.488.036-.977.036-1.464 0-.702-.099-1.395-.255-2.072-.464-.767-.273-1.489-.658-2.143-1.143-.748-.552-1.339-1.291-1.714-2.143-1.043-2.456-1.902-4.987-2.571-7.57-1.036-3.572-2.107-7.5-3.285-11.928-1.179-4.429-2.286-9.143-3.572-14-1.285-4.856-2.178-9.392-3.142-13.606"/></g><path d="m83.893 272.779-.857 6.714c-.182 1.455.226 2.922 1.131 4.075.905 1.154 2.233 1.898 3.69 2.067h218.237c1.478.019 2.902-.549 3.961-1.581 1.058-1.031 1.663-2.441 1.682-3.918.019-.226.019-.453 0-.679l-.893-6.714c-.52-5.23 3.274-9.901 8.5-10.463 2.486-.271 4.978.458 6.927 2.025s3.195 3.845 3.465 6.331l.857 6.536c1.678 14.534-6.571 27.319-21.427 27.319h-223.702c-14.713 0-22.927-12.785-21.249-27.319l.857-6.536c.253-2.473 1.479-4.745 3.409-6.313 1.929-1.568 4.404-2.303 6.877-2.043 5.23.58 9.02 5.262 8.499 10.499" fill="#f00"/><path d="m284.953 222.318c9.826.527 18.228-6.996 18.784-16.821.017-.309.017-.619 0-.928-.214-10.393-9.678-17.107-20.213-17.142h-21.32c-4.931 0-8.928-3.997-8.928-8.928s3.997-8.928 8.928-8.928h14.285c9.606-.393 16.999-6.214 17.463-15.249.464-9.75-7.892-17.035-18.07-17.035h-34.57v84.888h43.641m26.177-67.853c.031 7.525-2.968 14.746-8.322 20.034l-.535.607.714.429c10.622 5.905 17.391 16.926 17.856 29.069.259 19.629-15.372 35.786-34.998 36.177h-53.568c-5.159-.078-9.289-4.304-9.249-9.464v-101.887c-.039-2.525.944-4.958 2.727-6.747 1.782-1.789 4.211-2.781 6.736-2.752h43.391c18.929-.52 34.703 14.39 35.248 33.319v1.179" fill="#1d1d1b"/><path d="m141.711 205.783.25.714.25-.714c2.428-6.714 5.392-14.285 8.499-22.249s6.429-16.678 9.607-24.463 6.285-14.927 9.214-21.07c1.927-4.533 4.321-8.854 7.142-12.892 2.786-3.46 7.023-5.426 11.464-5.321h2.178c2.477-.103 4.909.682 6.857 2.214 1.496 1.24 2.465 3.001 2.714 4.928l13.606 105.351c.112 2.356-.724 4.658-2.321 6.393-1.842 1.542-4.21 2.31-6.607 2.143-2.447.137-4.867-.569-6.856-2-1.779-1.215-2.94-3.145-3.179-5.286-.464-3.571-.857-7.392-1.285-11.678-.429-4.285-2.715-22.606-3.322-27.284s-4.357-34.498-5.678-45.319v-.928l-4.357 9.142c-1.464 3.143-3.071 6.893-4.821 11.285-1.75 4.393-3.571 9.035-5.25 13.964-1.678 4.928-10.32 28.784-10.32 28.784-.786 2.178-2.286 6.571-3.572 10.713-1.285 4.143-2.607 7.679-2.928 8.357-3.068 6.004-10.422 8.386-16.428 5.321-2.347-1.172-4.261-3.06-5.464-5.392-.357-.679-1.571-4.321-2.964-8.357-1.393-4.035-2.75-8.392-3.571-10.714 0 0-8.392-24.07-10.285-28.784s-3.571-9.535-5.25-13.963c-1.678-4.429-3.393-8.143-4.821-11.285l-4.393-9.035v.928c-1.321 10.714-5.106 40.569-5.714 45.319-.607 4.75-2.821 22.891-3.321 27.141s-.893 8.178-1.321 11.678c-.239 2.141-1.4 4.071-3.179 5.286-1.979 1.423-4.386 2.128-6.821 1.999-2.373.16-4.717-.608-6.535-2.142-1.597-1.735-2.433-4.037-2.321-6.393l13.428-105.244c.311-1.854 1.289-3.53 2.749-4.714 1.914-1.617 4.352-2.481 6.857-2.428h2.179c4.397-.109 8.6 1.814 11.392 5.214 2.834 4.03 5.228 8.352 7.142 12.892q4.393 9.214 9.214 21.07 4.821 11.857 9.642 24.463c3.107 8.071 6.036 15.535 8.464 22.249" fill="#1d1d1b"/><path d="m115.07 56.077h165.204c15.571 0 23.32 11.678 24.999 27.106l.714 4.928c.586 5.311-3.228 10.098-8.535 10.714-5.207.412-9.777-3.441-10.249-8.643l-.715-4.749c-.678-5.857-3.142-10.393-9.106-10.393h-159.384c-5.964 0-8.428 4.536-9.142 10.393l-.643 4.678c-.472 5.212-5.071 9.061-10.285 8.607-2.554-.287-4.888-1.578-6.489-3.588-1.601-2.009-2.338-4.573-2.047-7.126l.679-4.928c1.857-15.392 9.571-27.106 24.999-27.106" fill="#f00"/></svg>