<?xml version="1.0" encoding="UTF-8"?>
<svg width="640px" height="360px" viewBox="0 0 640 360" xmlns="http://www.w3.org/2000/svg" xmlns:xlink="http://www.w3.org/1999/xlink" version="1.1">
 <!-- Generated by Pixelmator Pro 2.3 -->
 <g id="MB-WAY">
  <path id="Path" d="M543.081 187.82 C542.662 187.4 542.28 186.947 541.938 186.463 L540.759 184.82 C539.617 183.213 538.438 181.249 537.188 178.963 535.938 176.677 534.51 174.249 533.188 171.82 531.867 169.392 530.581 166.642 529.367 164.035 528.153 161.428 526.939 159 525.974 156.893 525.01 154.786 524.082 152.679 523.367 151.036 522.831 149.883 522.389 148.689 522.046 147.465 521.907 147.167 521.8 146.856 521.725 146.536 521.725 146.536 521.725 146.072 521.725 145.643 521.716 144.298 522.258 143.008 523.225 142.072 524.36 141.035 525.869 140.506 527.403 140.608 528.715 140.46 530.024 140.905 530.974 141.822 531.602 142.525 532.098 143.336 532.438 144.215 L533.617 146.858 C534.224 148.215 534.974 149.893 535.831 151.893 536.688 153.893 537.724 156.107 538.867 158.536 540.009 160.964 541.116 163.285 542.438 165.678 L545.83 172.356 C546.75 174.153 547.776 175.894 548.902 177.57 550.723 174.727 552.38 171.782 553.866 168.749 555.616 165.178 557.437 161.785 558.901 158.321 560.365 154.857 561.901 151.822 563.115 149.215 L565.222 144.251 C565.576 143.37 566.084 142.56 566.722 141.858 567.649 140.903 568.977 140.452 570.293 140.644 571.829 140.534 573.341 141.064 574.472 142.108 575.464 143.026 576.011 144.328 575.972 145.679 576.009 145.976 576.009 146.275 575.972 146.572 L575.686 147.5 574.293 151.072 C573.615 152.75 572.758 154.643 571.722 156.928 570.686 159.214 569.615 161.607 568.401 164.071 567.186 166.535 565.829 169.249 564.508 171.856 563.187 174.463 561.865 176.856 560.544 178.999 559.223 181.141 557.973 183.32 556.973 184.891 556.288 185.891 555.511 186.823 554.651 187.677 L554.651 212.675 C554.722 214.147 554.179 215.583 553.152 216.639 551.023 218.741 547.601 218.741 545.473 216.639 544.366 215.564 543.757 214.076 543.795 212.532 L543.795 187.534" fill="#1d1d1b" fill-opacity="1" stroke="none"/>
  <path id="Path-1" d="M475.37 195.855 C474.156 199.712 473.085 203.283 472.192 206.568 471.299 209.854 470.371 212.532 469.585 214.639 469.19 217.598 466.472 219.677 463.514 219.282 460.555 218.888 458.477 216.169 458.871 213.211 458.864 212.677 458.949 212.145 459.121 211.64 L460.621 206.676 C461.478 203.89 462.585 200.426 463.942 196.212 465.299 191.998 466.835 187.498 468.478 182.534 470.121 177.57 471.835 172.642 473.585 167.785 475.335 162.928 477.156 158.393 478.799 154.214 480.17 150.704 481.781 147.291 483.62 144.001 484.141 142.808 485.063 141.835 486.227 141.251 487.639 140.714 489.146 140.471 490.655 140.537 492.207 140.504 493.749 140.784 495.191 141.358 496.401 141.938 497.328 142.98 497.762 144.251 498.905 146.643 500.262 149.893 501.797 153.929 503.333 157.964 505.047 162.357 506.761 167.071 508.476 171.785 510.333 176.57 511.904 181.356 513.475 186.141 515.154 190.784 516.547 194.998 517.939 199.212 519.153 202.819 520.118 205.711 521.082 208.604 521.76 210.604 521.975 211.497 522.147 212.002 522.232 212.534 522.225 213.068 522.298 214.418 521.76 215.729 520.76 216.639 519.618 217.658 518.107 218.161 516.582 218.032 515.471 218.137 514.361 217.818 513.475 217.139 512.726 216.436 512.172 215.55 511.868 214.568 511.047 212.461 510.118 209.783 509.011 206.497 507.904 203.212 506.761 199.64 505.44 195.783 L475.263 195.783 M502.047 185.32 C500.333 180.106 498.762 175.32 497.226 171.035 495.691 166.749 494.333 162.642 492.619 158.571 492.226 157.678 491.798 156.678 491.369 155.464 490.941 154.25 490.655 153.643 490.584 153.429 490.249 154.039 489.985 154.686 489.798 155.357 489.334 156.643 488.941 157.678 488.512 158.571 486.905 162.5 485.37 166.642 483.87 171.035 482.37 175.427 480.799 180.177 479.12 185.32 Z" fill="#1d1d1b" fill-opacity="1" stroke="none"/>
  <path id="Path-2" d="M412.195 167.142 C411.053 171.535 409.874 176.249 408.624 181.427 407.374 186.605 406.124 191.248 405.053 195.712 403.982 200.176 402.732 204.247 401.482 207.711 400.814 210.175 399.904 212.568 398.768 214.854 397.339 217.166 394.723 218.467 392.018 218.211 390.81 218.181 389.61 218.001 388.447 217.675 386.877 217.2 385.58 216.085 384.875 214.604 383.745 212.216 382.836 209.73 382.161 207.176 381.09 203.604 379.947 199.247 378.59 194.426 377.233 189.605 376.197 184.534 375.019 179.141 373.84 173.749 372.698 168.749 371.769 164.142 370.841 159.535 369.983 155.571 369.341 152.357 368.698 149.143 368.341 147.179 368.234 146.5 368.214 146.227 368.214 145.953 368.234 145.679 L368.234 145.215 C368.194 143.92 368.778 142.684 369.805 141.894 370.899 141.028 372.268 140.585 373.662 140.644 374.918 140.589 376.162 140.912 377.233 141.572 378.263 142.342 378.955 143.481 379.162 144.751 379.162 144.751 379.376 146.072 379.804 148.322 380.233 150.572 380.84 153.25 381.519 156.571 382.197 159.893 382.983 163.714 383.804 167.892 384.625 172.07 385.518 176.32 386.483 180.606 387.447 184.891 388.34 188.998 389.268 193.034 390.197 197.069 391.018 200.497 391.839 203.39 392.625 200.676 393.518 197.569 394.482 194.069 395.446 190.569 396.446 186.927 397.41 183.356 398.375 179.784 399.267 175.892 400.16 172.178 401.053 168.464 401.875 165.035 402.66 161.75 403.446 158.464 404.053 155.714 404.624 153.214 405.196 150.715 405.624 148.893 405.946 147.679 406.307 146.275 407.108 145.023 408.231 144.108 409.322 143.117 410.724 142.537 412.195 142.465 413.768 142.393 415.314 142.887 416.552 143.858 417.663 144.76 418.421 146.024 418.695 147.429 419.659 151.322 420.588 155.75 421.623 160.607 422.659 165.464 423.766 170.356 424.873 175.32 425.98 180.284 427.194 185.177 428.444 189.962 429.694 194.748 430.837 198.962 432.016 202.64 432.801 199.747 433.694 196.319 434.623 192.319 435.551 188.32 436.444 184.177 437.408 179.891 438.372 175.606 439.337 171.463 440.194 167.285 441.051 163.107 441.908 159.357 442.622 156.036 443.336 152.714 443.944 150 444.336 147.929 444.729 145.858 445.015 144.715 445.015 144.643 445.263 143.4 445.947 142.285 446.943 141.501 448.01 140.833 449.257 140.508 450.515 140.572 451.918 140.523 453.295 140.965 454.407 141.822 455.42 142.624 456.001 143.852 455.979 145.143 L455.979 145.608 C455.996 145.893 455.996 146.179 455.979 146.465 455.979 147.108 455.514 149.036 454.836 152.322 454.157 155.607 453.336 159.464 452.372 164.071 451.407 168.678 450.3 173.678 449.122 178.999 447.943 184.32 446.693 189.391 445.551 194.212 444.408 199.033 443.265 203.283 441.979 206.926 441.31 209.458 440.401 211.922 439.265 214.282 438.544 215.782 437.261 216.937 435.694 217.496 434.542 217.886 433.338 218.102 432.123 218.139 431.635 218.175 431.146 218.175 430.659 218.139 429.957 218.04 429.264 217.884 428.587 217.675 427.82 217.402 427.098 217.017 426.444 216.532 425.696 215.98 425.105 215.241 424.73 214.389 423.687 211.933 422.828 209.402 422.159 206.819 421.123 203.247 420.052 199.319 418.874 194.891 417.695 190.462 416.588 185.748 415.302 180.891 414.017 176.035 413.124 171.499 412.16 167.285" fill="#1d1d1b" fill-opacity="1" stroke="none"/>
  <path id="Path-3" d="M83.893 272.779 L83.036 279.493 C82.854 280.948 83.262 282.415 84.167 283.568 85.072 284.722 86.4 285.466 87.857 285.635 L306.094 285.635 C307.572 285.654 308.996 285.086 310.055 284.054 311.113 283.023 311.718 281.613 311.737 280.136 311.756 279.91 311.756 279.683 311.737 279.457 L310.844 272.743 C310.324 267.513 314.118 262.842 319.344 262.28 321.83 262.009 324.322 262.738 326.271 264.305 328.22 265.872 329.466 268.15 329.736 270.636 L330.593 277.172 C332.271 291.706 324.022 304.491 309.166 304.491 L85.464 304.491 C70.751 304.491 62.537 291.706 64.215 277.172 L65.072 270.636 C65.325 268.163 66.551 265.891 68.481 264.323 70.41 262.755 72.885 262.02 75.358 262.28 80.588 262.86 84.378 267.542 83.857 272.779" fill="#ff0000" fill-opacity="1" stroke="none"/>
  <path id="Path-4" d="M284.953 222.318 C294.779 222.845 303.181 215.322 303.737 205.497 303.754 205.188 303.754 204.878 303.737 204.569 303.523 194.176 294.059 187.462 283.524 187.427 L262.204 187.427 C257.273 187.427 253.276 183.43 253.276 178.499 253.276 173.568 257.273 169.571 262.204 169.571 L276.489 169.571 C286.095 169.178 293.488 163.357 293.952 154.322 294.416 144.572 286.06 137.287 275.882 137.287 L241.312 137.287 241.312 222.175 284.953 222.175 M311.13 154.322 C311.161 161.847 308.162 169.068 302.808 174.356 L302.273 174.963 302.987 175.392 C313.609 181.297 320.378 192.318 320.843 204.461 321.102 224.09 305.471 240.247 285.845 240.638 L232.277 240.638 C227.118 240.56 222.988 236.334 223.028 231.174 L223.028 129.287 C222.989 126.762 223.972 124.329 225.755 122.54 227.537 120.751 229.966 119.759 232.491 119.788 L275.882 119.788 C294.811 119.268 310.585 134.178 311.13 153.107 L311.13 154.286" fill="#1d1d1b" fill-opacity="1" stroke="none"/>
  <path id="Path-5" d="M141.711 205.783 L141.961 206.497 142.211 205.783 C144.639 199.069 147.603 191.498 150.71 183.534 153.817 175.57 157.139 166.856 160.317 159.071 163.495 151.286 166.602 144.144 169.531 138.001 171.458 133.468 173.852 129.147 176.673 125.109 179.459 121.649 183.696 119.683 188.137 119.788 L190.315 119.788 C192.792 119.685 195.224 120.47 197.172 122.002 198.668 123.242 199.637 125.003 199.886 126.93 L213.492 232.281 C213.604 234.637 212.768 236.939 211.171 238.674 209.329 240.216 206.961 240.984 204.564 240.817 202.117 240.954 199.697 240.248 197.708 238.817 195.929 237.602 194.768 235.672 194.529 233.531 194.065 229.96 193.672 226.139 193.244 221.853 192.815 217.568 190.529 199.247 189.922 194.569 189.315 189.891 185.565 160.071 184.244 149.25 L184.244 148.322 179.887 157.464 C178.423 160.607 176.816 164.357 175.066 168.749 173.316 173.142 171.495 177.784 169.816 182.713 168.138 187.641 159.496 211.497 159.496 211.497 158.71 213.675 157.21 218.068 155.924 222.21 154.639 226.353 153.317 229.889 152.996 230.567 149.928 236.571 142.574 238.953 136.568 235.888 134.221 234.716 132.307 232.828 131.104 230.496 130.747 229.817 129.533 226.175 128.14 222.139 126.747 218.104 125.39 213.747 124.569 211.425 124.569 211.425 116.177 187.355 114.284 182.641 112.391 177.927 110.713 173.106 109.034 168.678 107.356 164.249 105.641 160.535 104.213 157.393 L99.82 148.358 99.82 149.286 C98.499 160 94.714 189.855 94.106 194.605 93.499 199.355 91.285 217.496 90.785 221.746 90.285 225.996 89.892 229.924 89.464 233.424 89.225 235.565 88.064 237.495 86.285 238.71 84.306 240.133 81.899 240.838 79.464 240.709 77.091 240.869 74.747 240.101 72.929 238.567 71.332 236.832 70.496 234.53 70.608 232.174 L84.036 126.93 C84.347 125.076 85.325 123.4 86.785 122.216 88.699 120.599 91.137 119.735 93.642 119.788 L95.821 119.788 C100.218 119.679 104.421 121.602 107.213 125.002 110.047 129.032 112.441 133.354 114.355 137.894 Q118.748 147.108 123.569 158.964 128.39 170.821 133.211 183.427 C136.318 191.498 139.247 198.962 141.675 205.676" fill="#1d1d1b" fill-opacity="1" stroke="none"/>
  <path id="Path-6" d="M115.07 56.077 L280.274 56.077 C295.845 56.077 303.594 67.755 305.273 83.183 L305.987 88.111 C306.573 93.422 302.759 98.209 297.452 98.825 292.245 99.237 287.675 95.384 287.203 90.182 L286.488 85.433 C285.81 79.576 283.346 75.04 277.382 75.04 L117.998 75.04 C112.034 75.04 109.57 79.576 108.856 85.433 L108.213 90.111 C107.741 95.323 103.142 99.172 97.928 98.718 95.374 98.431 93.04 97.14 91.439 95.13 89.838 93.121 89.101 90.557 89.392 88.004 L90.071 83.076 C91.928 67.684 99.642 55.97 115.07 55.97" fill="#ff0000" fill-opacity="1" stroke="none"/>
 </g>
</svg>
