<svg height="32" viewBox="0 0 51 32" width="51" xmlns="http://www.w3.org/2000/svg"><path d="m.5.5h50v31h-50z" fill="#fff" stroke="#d0d0d0" stroke-linecap="round" stroke-linejoin="round"/><g fill="#1d1d1b"><path d="m36.457 16.15c-.02-.019-.038-.04-.054-.063l-.055-.077c-.054-.075-.109-.168-.168-.275-.058-.107-.125-.221-.187-.335-.062-.113-.122-.242-.179-.364-.057-.123-.114-.236-.159-.335-.046-.099-.089-.198-.123-.275-.025-.054-.045-.11-.061-.167-.007-.014-.012-.029-.016-.044 0 0 0-.021 0-.042 0-.063.025-.123.071-.167.053-.049.124-.073.196-.069.061-.007.123.014.167.057.029.033.053.071.069.112l.055.124c.028.064.064.143.104.236.04.094.088.198.142.312s.105.222.167.335l.159.313c.044.084.092.165.144.244.086-.133.163-.271.233-.413.082-.168.167-.327.236-.489.069-.163.141-.305.198-.427l.098-.233c.017-.041.041-.079.071-.112.043-.045.105-.066.167-.057.072-.005.143.02.196.069.047.043.072.104.07.167.002.014.002.028 0 .042l-.013.043-.065.168c-.032.079-.072.167-.121.274-.048.108-.099.22-.156.335-.057.116-.12.243-.182.365s-.124.235-.186.335-.12.203-.167.276c-.032.047-.069.091-.109.131v1.172c.003.069-.022.136-.07.185-.1.099-.261.099-.36 0-.052-.05-.081-.12-.079-.192v-1.172"/><path d="m33.283 16.527c-.057.181-.108.348-.149.502-.042.154-.086.28-.123.379-.018.138-.145.236-.284.217-.139-.018-.236-.146-.218-.284 0-.025.004-.05.012-.074l.07-.233c.04-.13.092-.293.156-.49.064-.198.136-.409.213-.641.077-.233.157-.464.239-.692.082-.227.167-.44.244-.636.065-.164.14-.324.226-.479.025-.055.068-.101.123-.128.066-.026.136-.037.207-.034.073-.001.145.012.213.039.056.027.1.076.12.135.054.112.117.265.189.454s.153.395.233.616.167.445.241.669c.074.225.152.442.218.64.065.197.122.367.167.502.045.136.077.229.087.271.008.024.012.049.012.074.003.063-.022.125-.069.167-.053.048-.124.072-.196.066-.052.005-.104-.01-.145-.042-.035-.033-.061-.075-.076-.121-.038-.098-.082-.224-.133-.378-.052-.154-.106-.321-.168-.502h-1.414m1.255-.491c-.08-.244-.154-.468-.226-.669s-.135-.394-.216-.585c-.018-.041-.038-.088-.058-.145-.021-.057-.034-.086-.037-.096-.016.029-.028.059-.037.091-.022.06-.04.109-.06.15-.076.185-.148.379-.218.585s-.144.428-.223.669z"/><path d="m30.321 15.181c-.053.206-.109.427-.167.67-.059.243-.117.46-.168.669-.05.21-.108.4-.167.563-.031.115-.074.228-.127.335-.067.108-.19.169-.317.157-.056-.001-.112-.01-.167-.025-.074-.022-.134-.075-.167-.144-.053-.112-.096-.229-.128-.348-.05-.168-.103-.372-.167-.598s-.112-.464-.167-.716c-.056-.253-.109-.487-.153-.703-.043-.216-.083-.402-.114-.553-.03-.151-.046-.243-.051-.274-.001-.013-.001-.026 0-.039v-.022c-.002-.06.025-.118.073-.155.052-.041.116-.062.181-.059.059-.002.117.013.167.044.049.036.081.089.091.149 0 0 .01.062.03.167s.048.231.08.387c.032.155.069.334.107.53.039.196.081.395.126.596s.087.394.131.583c.043.189.082.35.12.485.037-.127.079-.273.124-.437s.092-.334.137-.502c.045-.167.087-.35.129-.524s.08-.335.117-.489.066-.282.092-.4c.027-.117.047-.202.062-.259.017-.066.055-.125.107-.168.052-.046.117-.073.186-.077.074-.003.146.02.205.066.052.042.087.101.1.167.045.183.089.39.137.618.049.228.101.457.153.69.051.232.108.462.167.686s.112.422.167.594c.037-.135.079-.296.123-.484.043-.187.085-.381.13-.582s.091-.395.131-.591.08-.372.114-.527c.033-.156.061-.283.08-.38.018-.098.032-.151.032-.154.011-.059.043-.111.09-.148.05-.031.109-.046.167-.043.066-.003.131.018.183.058.047.038.075.095.074.156v.022.04c0 .03-.022.12-.054.274s-.07.335-.115.551c-.046.216-.098.451-.153.7s-.114.487-.167.713c-.054.226-.107.425-.168.596-.031.119-.074.234-.127.345-.034.07-.094.124-.167.151-.054.018-.111.028-.168.03-.022.001-.045.001-.068 0-.033-.005-.066-.012-.097-.022-.036-.013-.07-.031-.101-.054-.035-.026-.063-.06-.08-.1-.049-.115-.089-.234-.121-.355-.048-.167-.098-.352-.154-.559-.055-.208-.107-.429-.167-.656-.06-.228-.102-.441-.147-.638"/></g><path d="m14.932 20.133-.04.315c-.009.068.011.137.053.191s.105.089.173.097h10.23c.069 0 .136-.026.185-.075.05-.048.078-.114.079-.183.001-.011.001-.021 0-.032l-.042-.315c-.024-.245.154-.464.399-.49.116-.013.233.021.325.095.091.073.149.18.162.296l.04.307c.079.681-.308 1.28-1.004 1.28h-10.486c-.69 0-1.075-.599-.996-1.28l.04-.307c.012-.115.069-.222.16-.295.09-.074.206-.108.322-.096.245.027.423.246.398.492" fill="#f00"/><path d="m24.357 17.768c.46.024.854-.328.88-.789.001-.014.001-.029 0-.043-.01-.488-.453-.802-.947-.804h-1c-.231 0-.418-.187-.418-.418 0-.232.187-.419.418-.419h.67c.45-.018.797-.291.819-.715.021-.457-.37-.798-.847-.798h-1.621v3.979h2.046m1.227-3.181c.001.353-.139.691-.39.939l-.025.029.033.02c.498.277.815.793.837 1.363.012.92-.72 1.677-1.64 1.695h-2.511c-.242-.003-.436-.201-.434-.443v-4.776c-.002-.119.044-.233.128-.317.083-.083.197-.13.316-.129h2.034c.887-.024 1.626.675 1.652 1.562v.056" fill="#1d1d1b"/><path d="m17.642 16.992.012.034.012-.034c.114-.314.253-.669.398-1.042.146-.374.301-.782.45-1.147s.295-.7.432-.988c.091-.212.203-.415.335-.604.131-.162.329-.254.538-.25h.102c.116-.004.23.032.321.104.07.058.116.141.127.231l.638 4.939c.005.11-.034.218-.109.299-.086.073-.197.109-.309.101-.115.006-.229-.027-.322-.094-.083-.057-.138-.147-.149-.248-.022-.167-.04-.346-.06-.547s-.127-1.06-.156-1.279c-.028-.219-.204-1.617-.266-2.124v-.044l-.204.429c-.069.147-.144.323-.226.529-.082.205-.168.423-.246.654-.079.231-.484 1.349-.484 1.349-.037.102-.107.308-.167.503-.061.194-.123.359-.138.391-.144.282-.488.393-.77.25-.11-.055-.199-.144-.256-.253-.017-.032-.074-.203-.139-.392s-.129-.393-.167-.502c0 0-.394-1.128-.482-1.349-.089-.221-.168-.447-.246-.655-.079-.207-.159-.381-.226-.529l-.206-.423v.043c-.062.502-.24 1.902-.268 2.125-.029.222-.132 1.073-.156 1.272-.023.199-.042.383-.062.547-.011.101-.065.191-.149.248-.093.067-.205.1-.319.094-.112.007-.222-.029-.307-.101-.075-.081-.114-.189-.109-.299l.63-4.934c.014-.087.06-.165.129-.221.089-.076.204-.116.321-.114h.102c.206-.005.403.086.534.245.133.189.245.391.335.604q.206.432.432.988.226.556.452 1.147c.146.378.283.728.397 1.042" fill="#1d1d1b"/><path d="m16.394 9.975h7.743c.73 0 1.094.547 1.172 1.271l.034.231c.027.249-.152.473-.4.502-.244.019-.459-.161-.481-.405l-.033-.223c-.032-.274-.148-.487-.427-.487h-7.471c-.28 0-.395.213-.429.487l-.03.219c-.022.245-.238.425-.482.404-.12-.014-.229-.074-.304-.168-.075-.095-.11-.215-.096-.334l.032-.231c.087-.722.448-1.271 1.172-1.271" fill="#f00"/></svg>