<svg xmlns="http://www.w3.org/2000/svg" width="51" height="32"><g fill="none" fill-rule="evenodd"><path fill="#FFF" stroke="#D0D0D0" d="M.5.5h50v31H.5z"/><path fill="#0B4A8E" d="m14.014 19.56.245-.025a.302.302 0 0 0 .09.183.272.272 0 0 0 .184.058c.081 0 .142-.017.184-.051a.154.154 0 0 0 .061-.122.115.115 0 0 0-.025-.075.208.208 0 0 0-.091-.055 3.226 3.226 0 0 0-.202-.054.682.682 0 0 1-.284-.124.325.325 0 0 1-.061-.43.339.339 0 0 1 .156-.126.628.628 0 0 1 .246-.043c.157 0 .276.034.355.103.08.07.121.161.125.277l-.253.01c-.011-.065-.034-.111-.07-.14-.035-.028-.089-.042-.16-.042a.288.288 0 0 0-.172.046.091.091 0 0 0-.04.077c0 .03.012.055.037.076a.66.66 0 0 0 .232.084c.123.029.214.059.273.09a.352.352 0 0 1 .138.127c.033.054.05.121.05.2a.37.37 0 0 1-.23.343.708.708 0 0 1-.272.046c-.158 0-.28-.037-.364-.11a.482.482 0 0 1-.152-.323m1.28.41h.723v-.907h-.723v.907zm0-1.03h.723v-.222h-.723v.221z"/><path fill="#0B4A8E" d="M16.66 19.97h-.241v-.464a.722.722 0 0 0-.016-.19.134.134 0 0 0-.05-.067.142.142 0 0 0-.082-.024.19.19 0 0 0-.112.034.172.172 0 0 0-.067.09.786.786 0 0 0-.019.21v.411h-.24v-.907h.223v.134a.361.361 0 0 1 .299-.156.36.36 0 0 1 .145.029c.044.019.077.043.1.073.022.03.037.063.046.1a.751.751 0 0 1 .013.162v.565m.52-.473c0 .097.02.167.063.212a.203.203 0 0 0 .154.067.225.225 0 0 0 .167-.069c.045-.046.068-.114.068-.204 0-.094-.022-.164-.065-.21a.218.218 0 0 0-.165-.068.209.209 0 0 0-.16.067c-.041.045-.062.113-.062.205zm-.245.533.31.03c.005.033.017.057.035.07.026.017.067.027.122.027.072 0 .125-.01.16-.029a.12.12 0 0 0 .055-.06.325.325 0 0 0 .012-.11l.001-.133a.38.38 0 0 1-.306.145.393.393 0 0 1-.328-.155.483.483 0 0 1-.094-.304c0-.153.041-.269.124-.35a.426.426 0 0 1 .309-.12c.127 0 .231.05.314.148v-.126h.253v.815c0 .108-.01.188-.03.24a.293.293 0 0 1-.084.126.388.388 0 0 1-.145.07.855.855 0 0 1-.229.026c-.174 0-.297-.026-.37-.08a.24.24 0 0 1-.109-.23zM18.073 19.97h.241v-1.252h-.241zM19.261 19.461c-.002-.074-.023-.13-.064-.169a.206.206 0 0 0-.147-.058.208.208 0 0 0-.154.061.222.222 0 0 0-.06.166h.425Zm-.015.256.281.042a.418.418 0 0 1-.172.21.552.552 0 0 1-.294.072c-.186 0-.324-.054-.413-.163a.506.506 0 0 1-.106-.33c0-.158.046-.283.14-.372a.485.485 0 0 1 .35-.135c.16 0 .286.047.378.141.092.095.136.239.132.433h-.71a.24.24 0 0 0 .068.175.23.23 0 0 0 .165.063.19.19 0 0 0 .112-.032.196.196 0 0 0 .07-.104ZM20.179 19.97v-1.252h.927v.211h-.673v.278h.626v.212h-.626v.34h.698v.211h-.952M21.992 19.97v-.136a.358.358 0 0 1-.131.116.361.361 0 0 1-.335.002.238.238 0 0 1-.105-.113.504.504 0 0 1-.033-.2v-.576h.241v.417c0 .128.004.206.013.235a.128.128 0 0 0 .048.069.148.148 0 0 0 .09.025.188.188 0 0 0 .176-.118.974.974 0 0 0 .018-.245v-.383h.241v.907h-.223m.752 0h-.24v-.907h.223v.13a.403.403 0 0 1 .103-.122c.03-.02.065-.03.104-.03.055 0 .107.015.158.045l-.073.21a.212.212 0 0 0-.113-.039.134.134 0 0 0-.086.028c-.024.018-.042.052-.055.1-.014.049-.02.15-.02.305v.28m.707-.43c0 .096.023.168.068.219a.22.22 0 0 0 .17.076.218.218 0 0 0 .168-.076c.046-.05.069-.124.069-.22 0-.094-.023-.166-.069-.216a.218.218 0 0 0-.168-.076.22.22 0 0 0-.17.076c-.045.05-.068.123-.068.218zm-.263-.013c0-.084.021-.165.063-.244a.429.429 0 0 1 .179-.18.535.535 0 0 1 .257-.062c.147 0 .267.047.36.14.094.095.141.214.141.357a.49.49 0 0 1-.499.503.57.57 0 0 1-.254-.06.41.41 0 0 1-.184-.174.574.574 0 0 1-.063-.28zm1.985-.598v.358h.144a.702.702 0 0 0 .208-.02.166.166 0 0 0 .112-.16.16.16 0 0 0-.042-.113.184.184 0 0 0-.106-.056 1.307 1.307 0 0 0-.189-.009h-.127zm-.264 1.041v-1.252h.423c.16 0 .265.006.313.019.075.018.138.06.188.122.05.063.076.145.076.244a.395.395 0 0 1-.044.194.348.348 0 0 1-.11.124.388.388 0 0 1-.137.06 1.56 1.56 0 0 1-.273.017h-.172v.472h-.264zm1.813-.41c-.036.011-.093.024-.17.04a.552.552 0 0 0-.154.043c-.037.024-.055.054-.055.09 0 .035.015.066.044.092.03.025.067.038.112.038.05 0 .1-.015.145-.045a.16.16 0 0 0 .067-.084.455.455 0 0 0 .011-.123v-.05zm-.379-.206-.253-.042a.357.357 0 0 1 .148-.205.593.593 0 0 1 .313-.066c.126 0 .22.013.28.04.062.027.106.06.13.102a.472.472 0 0 1 .038.226l-.003.295c0 .084.005.145.014.185.009.04.026.083.05.128h-.28a.804.804 0 0 1-.036-.102.485.485 0 0 1-.33.126.389.389 0 0 1-.259-.08.254.254 0 0 1-.095-.203c0-.053.015-.102.043-.144a.274.274 0 0 1 .121-.097c.052-.022.127-.042.225-.059.131-.022.222-.043.273-.062v-.025c0-.05-.013-.085-.04-.106-.027-.02-.078-.03-.152-.03-.05 0-.09.008-.118.026a.185.185 0 0 0-.069.093zm.69-.29h.256l.217.643.212-.644h.249l-.378 1.033a.65.65 0 0 1-.06.121.262.262 0 0 1-.158.109.637.637 0 0 1-.259 0l-.022-.188a.526.526 0 0 0 .102.011c.057 0 .098-.017.125-.05a.347.347 0 0 0 .062-.126l-.346-.91m1.122 0h.22v.124a.356.356 0 0 1 .284-.146c.058 0 .109.012.152.036.043.024.078.06.105.108a.422.422 0 0 1 .13-.108.317.317 0 0 1 .147-.036c.067 0 .123.013.17.04.046.028.08.067.103.12a.52.52 0 0 1 .025.188v.581h-.241v-.52c0-.09-.008-.148-.025-.174-.022-.034-.056-.051-.102-.051a.163.163 0 0 0-.095.03.17.17 0 0 0-.064.09.65.65 0 0 0-.02.189v.436h-.24v-.498a.691.691 0 0 0-.013-.171.109.109 0 0 0-.04-.057.126.126 0 0 0-.073-.02c-.037 0-.07.01-.1.03a.165.165 0 0 0-.063.087.645.645 0 0 0-.02.188v.441h-.24v-.907m2.274.398c-.002-.074-.024-.13-.064-.169a.206.206 0 0 0-.148-.058.207.207 0 0 0-.153.061.222.222 0 0 0-.06.166h.425zm-.015.256.28.042a.419.419 0 0 1-.171.21.553.553 0 0 1-.294.072c-.186 0-.324-.054-.414-.163a.506.506 0 0 1-.105-.33c0-.158.046-.283.139-.372a.485.485 0 0 1 .351-.135c.16 0 .285.047.377.141.092.095.136.239.132.433H30a.24.24 0 0 0 .069.175.23.23 0 0 0 .164.063.19.19 0 0 0 .113-.032.195.195 0 0 0 .07-.104zm1.217.253h-.241v-.464a.726.726 0 0 0-.015-.19.134.134 0 0 0-.05-.067.142.142 0 0 0-.083-.024.19.19 0 0 0-.111.034.172.172 0 0 0-.068.09.79.79 0 0 0-.018.21v.411h-.241v-.907h.223v.134a.362.362 0 0 1 .3-.156.36.36 0 0 1 .144.029c.044.019.077.043.1.073.022.03.038.063.047.1a.746.746 0 0 1 .013.162v.565m.71-.907v.192h-.163v.366c0 .075.001.118.004.13.003.013.01.023.021.03a.066.066 0 0 0 .04.013.301.301 0 0 0 .095-.023l.02.186a.472.472 0 0 1-.188.036.297.297 0 0 1-.116-.022.17.17 0 0 1-.076-.057.223.223 0 0 1-.034-.093 1.166 1.166 0 0 1-.007-.17v-.396h-.11v-.192h.11v-.181l.24-.142v.323h.165m.135.651.241-.037c.01.046.031.081.062.106a.21.21 0 0 0 .131.036.236.236 0 0 0 .14-.035.077.077 0 0 0 .032-.064.063.063 0 0 0-.017-.046.192.192 0 0 0-.08-.032c-.196-.043-.319-.082-.37-.117a.234.234 0 0 1-.11-.205c0-.079.032-.145.094-.199.063-.053.16-.08.29-.08.125 0 .218.02.279.06.06.04.102.1.125.178l-.226.043a.14.14 0 0 0-.056-.081.205.205 0 0 0-.117-.029.263.263 0 0 0-.137.027.057.057 0 0 0-.028.049c0 .017.008.032.024.044a.907.907 0 0 0 .226.068c.128.03.217.065.268.107.05.043.076.103.076.18a.276.276 0 0 1-.104.215c-.07.06-.172.09-.309.09a.507.507 0 0 1-.293-.074.345.345 0 0 1-.14-.204m2.312-.238-.175-.465-.17.465h.345zm.464.494h-.272l-.109-.283h-.504l-.103.283h-.268l.485-1.252h.266l.505 1.252zm.414 0h-.24v-.907h.223v.13a.402.402 0 0 1 .103-.122c.03-.02.065-.03.104-.03.054 0 .107.015.158.045l-.074.21a.212.212 0 0 0-.113-.039.134.134 0 0 0-.086.028c-.023.018-.041.052-.055.1-.013.049-.02.15-.02.305v.28m1.151-.509c-.002-.074-.023-.13-.063-.169a.206.206 0 0 0-.148-.058.207.207 0 0 0-.154.061.221.221 0 0 0-.06.166h.425zm-.014.256.28.042a.418.418 0 0 1-.171.21.552.552 0 0 1-.294.072c-.187 0-.324-.054-.414-.163a.506.506 0 0 1-.106-.33c0-.158.047-.283.14-.372a.485.485 0 0 1 .351-.135c.16 0 .285.047.377.141.092.095.136.239.132.433h-.71a.24.24 0 0 0 .069.175.23.23 0 0 0 .164.063.19.19 0 0 0 .113-.032.196.196 0 0 0 .069-.104zm.99-.157a1.91 1.91 0 0 1-.172.04.554.554 0 0 0-.153.043c-.036.024-.055.054-.055.09 0 .035.015.066.044.092.03.025.067.038.112.038.051 0 .1-.015.145-.045a.16.16 0 0 0 .067-.084.455.455 0 0 0 .011-.123v-.05zm-.38-.206-.253-.042a.357.357 0 0 1 .148-.205.593.593 0 0 1 .313-.066c.126 0 .22.013.28.04.062.027.106.06.13.102a.472.472 0 0 1 .038.226l-.002.295c0 .084.004.145.013.185a.51.51 0 0 0 .05.128h-.28a.834.834 0 0 1-.036-.102.486.486 0 0 1-.33.126.389.389 0 0 1-.259-.08.254.254 0 0 1-.094-.203.25.25 0 0 1 .043-.144.274.274 0 0 1 .12-.097c.052-.022.127-.042.225-.059.131-.022.223-.043.273-.062v-.025c0-.05-.013-.085-.04-.106-.027-.02-.077-.03-.152-.03-.05 0-.09.008-.118.026a.185.185 0 0 0-.069.093zm-18.083-5.557h-1.64c0-.27-.032-.45-.095-.542-.097-.136-.367-.204-.808-.204-.428 0-.712.04-.85.118-.139.078-.208.25-.208.513 0 .239.061.396.184.471a.767.767 0 0 0 .35.094l.33.024c.71.047 1.152.08 1.329.099.56.056.967.205 1.22.447.198.189.316.435.354.74.022.182.033.388.033.617 0 .527-.05.914-.151 1.159-.183.449-.593.733-1.231.852-.268.05-.677.075-1.227.075-.919 0-1.559-.054-1.92-.164-.444-.135-.736-.408-.878-.819-.079-.228-.118-.61-.118-1.143h1.64v.137c0 .284.082.467.245.549.114.056.25.085.41.089h.604c.307 0 .504-.016.588-.047a.48.48 0 0 0 .297-.287c.025-.082.038-.187.038-.316 0-.288-.105-.464-.316-.527-.078-.025-.444-.06-1.097-.103a13.155 13.155 0 0 1-1.092-.109c-.537-.1-.895-.307-1.073-.62-.157-.267-.236-.67-.236-1.21 0-.411.043-.74.127-.988.085-.248.222-.437.41-.565.277-.198.631-.314 1.062-.349a13.81 13.81 0 0 1 1.193-.047c.688 0 1.179.04 1.471.118.714.192 1.07.73 1.07 1.613 0 .072-.005.18-.015.325m8.975 1.251h1.1c.348-.013.56-.04.636-.081.104-.058.174-.172.209-.345.022-.114.033-.284.033-.51 0-.278-.022-.483-.066-.618-.064-.188-.215-.302-.456-.344a3.563 3.563 0 0 0-.342-.01h-1.114v1.908zm-1.763 3.212v-6.553h3.285c.45 0 .794.036 1.03.11.54.17.903.516 1.089 1.04.096.275.143.69.143 1.242 0 .665-.053 1.143-.158 1.433-.21.576-.644.907-1.3.993-.076.013-.404.024-.982.034l-.293.01h-1.05v1.691h-1.764zm8.96-2.41-.825-2.84-.802 2.84h1.628zm.35 1.278H33.5l-.317 1.132h-1.824l1.968-6.553h2.66l1.992 6.553h-1.786l-.336-1.132z"/><path fill="#F6BC25" d="M24.112 12.629c.727 0 1.376.335 1.803.86l.38-.816a3.33 3.33 0 0 0-2.296-.908c-1.389 0-2.577.84-3.065 2.027h-.741l-.438.939h.954a3.2 3.2 0 0 0 .004.582h-.479l-.437.939h1.16a3.306 3.306 0 0 0 3.042 1.971 3.34 3.34 0 0 0 1.858-.56v-1.15a2.316 2.316 0 0 1-3.689-.261h2.43l.437-.939h-3.224a2.377 2.377 0 0 1-.014-.582h3.51l.437-.939H22.1a2.323 2.323 0 0 1 2.012-1.163"/><path fill="#0B4A8E" d="M22.1 13.82h3.644l-.026-.04-.437.94.025-.017h-3.534l-.003.025a2.423 2.423 0 0 0 .014.59l.004.023h3.248l-.025-.04-.438.939.026-.016h-2.482l.029.043a2.347 2.347 0 0 0 3.733.265l-.049-.019v1.15l.012-.023a3.31 3.31 0 0 1-1.842.555 3.272 3.272 0 0 1-3.016-1.954l-.008-.017h-1.178l.025.04.438-.939-.026.016h.51l-.003-.03a3.205 3.205 0 0 1-.004-.578l.002-.03h-.984l.026.04.437-.939-.025.017h.76l.007-.018c.24-.586.65-1.087 1.184-1.446A3.307 3.307 0 0 1 24 11.793c.854 0 1.662.32 2.276.9l-.006-.032-.38.816.048-.006a2.343 2.343 0 0 0-1.825-.87c-.835 0-1.615.45-2.036 1.177l-.025.043h.05Zm2.012-1.163c.693 0 1.342.31 1.78.85l.03.034.018-.04.38-.816.009-.018-.015-.014A3.354 3.354 0 0 0 24 11.737c-.678 0-1.33.198-1.886.573-.543.366-.96.875-1.205 1.472l.026-.018h-.76l-.007.017-.456.978h.998l-.028-.03a3.216 3.216 0 0 0 .004.587l.028-.03h-.497l-.007.015-.438.939-.018.04h1.204l-.026-.017a3.329 3.329 0 0 0 3.068 1.988c.672 0 1.32-.195 1.874-.564l.012-.008v-1.24l-.049.055a2.291 2.291 0 0 1-3.644-.258l-.024.044h2.448l.007-.016.438-.939.018-.04h-3.268l.028.024a2.36 2.36 0 0 1-.014-.575l-.028.025h3.528l.007-.016.437-.939.02-.04H22.1l.025.043a2.306 2.306 0 0 1 1.987-1.15Z"/></g></svg>