<?xml version="1.0" encoding="UTF-8"?>
<svg width="51px" height="32px" viewBox="0 0 51 32" xmlns="http://www.w3.org/2000/svg" xmlns:xlink="http://www.w3.org/1999/xlink" version="1.1">
 <!-- Generated by Pixelmator Pro 2.3 -->
 <g id="group">
  <path id="Path" d="M0.5 0.5 L50.5 0.5 50.5 31.5 0.5 31.5 Z" fill="#ffffff" fill-opacity="1" stroke="#d0d0d0" stroke-width="1" stroke-opacity="1" stroke-linejoin="round" stroke-linecap="round"/>
  <path id="afterpay" d="M10.006 16.02 C10.006 15.391 9.537 14.949 8.962 14.949 8.386 14.949 7.918 15.399 7.918 16.02 7.918 16.635 8.386 17.091 8.962 17.091 9.538 17.091 10.006 16.65 10.006 16.02 Z M10.014 17.893 L10.014 17.406 C9.73 17.743 9.307 17.952 8.802 17.952 7.75 17.952 6.952 17.128 6.952 16.02 6.952 14.919 7.781 14.081 8.825 14.081 9.316 14.081 9.731 14.291 10.014 14.62 L10.014 14.148 10.958 14.148 10.958 17.893 Z M15.543 17.061 C15.212 17.061 15.121 16.942 15.121 16.627 L15.121 14.964 15.727 14.964 15.727 14.147 15.121 14.147 15.121 13.234 14.153 13.234 14.153 14.147 12.907 14.147 12.907 13.92 C12.907 13.605 13.03 13.485 13.368 13.485 L13.58 13.485 13.58 12.759 13.115 12.759 C12.317 12.759 11.941 13.013 11.941 13.792 L11.941 14.147 11.404 14.147 11.404 14.964 11.941 14.964 11.941 17.892 12.908 17.892 12.908 14.964 14.154 14.964 14.154 16.799 C14.154 17.563 14.453 17.893 15.236 17.893 L15.735 17.893 15.735 17.062 15.542 17.062 Z M19.012 15.683 C18.943 15.196 18.536 14.904 18.06 14.904 17.584 14.904 17.193 15.189 17.093 15.683 L19.011 15.683 Z M17.085 16.267 C17.154 16.821 17.561 17.136 18.075 17.136 18.482 17.136 18.797 16.949 18.981 16.649 L19.971 16.649 C19.741 17.443 19.012 17.952 18.052 17.952 16.894 17.952 16.08 17.159 16.08 16.028 16.08 14.897 16.94 14.08 18.076 14.08 19.219 14.08 20.048 14.904 20.048 16.028 20.048 16.11 20.041 16.192 20.025 16.267 Z M26.198 16.02 C26.198 15.413 25.73 14.949 25.154 14.949 24.579 14.949 24.11 15.399 24.11 16.02 24.11 16.635 24.579 17.091 25.154 17.091 25.73 17.091 26.198 16.627 26.198 16.02 Z M23.158 14.148 L24.102 14.148 24.102 14.635 C24.386 14.29 24.808 14.081 25.315 14.081 26.351 14.081 27.164 14.912 27.164 16.013 27.164 17.114 26.335 17.953 25.292 17.953 24.808 17.953 24.409 17.765 24.133 17.451 L24.133 19.434 23.158 19.434 Z M30.566 16.02 C30.566 15.391 30.098 14.949 29.522 14.949 28.947 14.949 28.478 15.399 28.478 16.02 28.478 16.635 28.947 17.091 29.522 17.091 30.098 17.091 30.566 16.65 30.566 16.02 Z M30.574 17.893 L30.574 17.406 C30.29 17.743 29.868 17.952 29.362 17.952 28.31 17.952 27.512 17.128 27.512 16.02 27.512 14.919 28.341 14.081 29.385 14.081 29.876 14.081 30.29 14.291 30.574 14.62 L30.574 14.148 31.518 14.148 31.518 17.893 Z M21.457 14.515 C21.457 14.515 21.697 14.081 22.286 14.081 22.537 14.081 22.7 14.165 22.7 14.165 L22.7 15.12 C22.7 15.12 22.345 14.907 22.019 14.95 21.693 14.993 21.487 15.285 21.488 15.676 L21.488 17.894 20.513 17.894 20.513 14.148 21.457 14.148 Z M35.926 14.148 L33.543 19.422 32.538 19.422 33.474 17.383 31.892 14.148 33.031 14.148 33.956 16.309 34.906 14.148 Z M43.532 14.063 L41.17 12.732 C40.477 12.342 39.61 12.83 39.61 13.612 L39.61 13.748 C39.61 13.871 39.678 13.985 39.787 14.047 L40.233 14.298 C40.364 14.372 40.527 14.28 40.527 14.132 L40.527 13.793 C40.527 13.623 40.715 13.517 40.866 13.602 L42.912 14.755 C43.062 14.839 43.062 15.051 42.912 15.136 L40.866 16.289 C40.715 16.373 40.527 16.268 40.527 16.098 L40.527 15.917 C40.527 15.135 39.66 14.647 38.966 15.038 L36.604 16.369 C36.283 16.545 36.084 16.882 36.084 17.248 36.084 17.614 36.283 17.951 36.604 18.127 L38.966 19.457 C39.66 19.848 40.527 19.36 40.527 18.578 L40.527 18.442 C40.527 18.317 40.459 18.203 40.35 18.143 L39.904 17.891 C39.773 17.817 39.61 17.91 39.61 18.057 L39.61 18.396 C39.61 18.566 39.422 18.672 39.271 18.587 L37.225 17.435 C37.155 17.396 37.112 17.323 37.112 17.244 37.112 17.164 37.155 17.091 37.225 17.053 L39.271 15.9 C39.422 15.815 39.61 15.921 39.61 16.091 L39.61 16.272 C39.61 17.053 40.477 17.542 41.17 17.151 L43.532 15.82 C43.853 15.644 44.052 15.307 44.052 14.942 44.052 14.576 43.853 14.239 43.532 14.063 Z" fill="#000000" fill-opacity="1" stroke="none"/>
 </g>
</svg>
