<?xml version="1.0" encoding="UTF-8"?>
<svg width="640px" height="360px" viewBox="0 0 640 360" xmlns="http://www.w3.org/2000/svg" xmlns:xlink="http://www.w3.org/1999/xlink" version="1.1">
 <!-- Generated by Pixelmator Pro 2.3 -->
 <path id="afterpay" d="M106.091 178.868 C106.091 170.183 99.628 164.083 91.687 164.083 83.746 164.083 77.284 170.289 77.284 178.868 77.284 187.345 83.746 193.648 91.687 193.648 99.638 193.648 106.091 187.553 106.091 178.868 Z M106.207 204.71 L106.207 197.991 C102.29 202.642 96.455 205.531 89.475 205.531 74.965 205.531 63.952 194.16 63.952 178.868 63.952 163.672 75.385 152.099 89.799 152.099 96.58 152.099 102.295 154.997 106.212 159.537 L106.212 153.026 119.239 153.026 119.239 204.71 Z M182.505 193.233 C177.946 193.233 176.68 191.581 176.68 187.243 L176.68 164.295 185.051 164.295 185.051 153.021 176.68 153.021 176.68 140.414 163.329 140.414 163.329 153.021 146.134 153.021 146.134 149.882 C146.134 145.534 147.834 143.878 152.495 143.878 L155.422 143.878 155.422 133.855 148.998 133.855 C137.985 133.855 132.798 137.371 132.798 148.119 L132.798 153.016 125.383 153.016 125.383 164.295 132.798 164.295 132.798 204.705 146.148 204.705 146.148 164.295 163.344 164.295 163.344 189.62 C163.344 200.164 167.469 204.714 178.269 204.714 L185.157 204.714 185.157 193.238 182.501 193.238 Z M230.378 174.212 C229.426 167.497 223.809 163.464 217.244 163.464 210.675 163.464 205.275 167.391 203.903 174.212 L230.373 174.212 Z M203.792 182.278 C204.749 189.924 210.361 194.271 217.457 194.271 223.07 194.271 227.417 191.682 229.953 187.548 L243.622 187.548 C240.439 198.503 230.378 205.531 217.138 205.531 201.15 205.531 189.925 194.581 189.925 178.969 189.925 163.363 201.788 152.094 217.467 152.094 233.247 152.094 244.68 163.464 244.68 178.969 244.68 180.109 244.579 181.24 244.366 182.278 Z M329.552 178.868 C329.552 170.492 323.089 164.083 315.148 164.083 307.208 164.083 300.745 170.289 300.745 178.868 300.745 187.345 307.208 193.648 315.148 193.648 323.089 193.648 329.552 187.243 329.552 178.868 Z M287.607 153.026 L300.634 153.026 300.634 159.745 C304.546 154.987 310.371 152.099 317.366 152.099 331.663 152.099 342.884 163.575 342.884 178.762 342.884 193.962 331.451 205.54 317.047 205.54 310.371 205.54 304.865 202.951 301.059 198.614 L301.059 225.977 287.607 225.977 Z M389.834 178.868 C389.834 170.183 383.38 164.083 375.43 164.083 367.489 164.083 361.026 170.289 361.026 178.868 361.026 187.345 367.489 193.648 375.43 193.648 383.38 193.648 389.834 187.553 389.834 178.868 Z M389.949 204.71 L389.949 197.991 C386.032 202.642 380.197 205.531 373.218 205.531 358.708 205.531 347.695 194.16 347.695 178.868 347.695 163.672 359.128 152.099 373.536 152.099 380.313 152.099 386.032 154.997 389.949 159.537 L389.949 153.026 402.972 153.026 402.972 204.71 Z M264.132 158.093 C264.132 158.093 267.445 152.104 275.565 152.104 279.038 152.104 281.284 153.263 281.284 153.263 L281.284 166.449 C281.284 166.449 276.386 163.498 271.884 164.092 267.382 164.686 264.537 168.72 264.552 174.12 L264.552 204.719 251.104 204.719 251.104 153.036 264.132 153.036 Z M463.804 153.026 L430.92 225.813 417.052 225.813 429.963 197.672 408.13 153.026 423.848 153.026 436.619 182.858 449.724 153.026 Z M568.779 151.852 L536.175 133.493 C526.611 128.102 514.647 134.835 514.647 145.626 L514.647 147.51 C514.647 149.21 515.579 150.785 517.086 151.63 L523.245 155.098 C525.051 156.122 527.302 154.847 527.302 152.814 L527.302 148.128 C527.302 145.786 529.901 144.317 531.978 145.491 L560.215 161.402 C562.292 162.571 562.292 165.498 560.215 166.667 L531.978 182.573 C529.901 183.742 527.307 182.283 527.307 179.935 L527.307 177.443 C527.307 166.657 515.342 159.909 505.764 165.309 L473.16 183.674 C468.731 186.104 465.982 190.755 465.982 195.807 465.982 200.86 468.731 205.511 473.16 207.941 L505.764 226.301 C515.333 231.691 527.307 224.958 527.307 214.167 L527.307 212.283 C527.297 210.569 526.36 208.994 524.863 208.163 L518.709 204.685 C516.903 203.666 514.647 204.941 514.647 206.975 L514.647 211.66 C514.647 214.003 512.048 215.467 509.976 214.293 L481.734 198.387 C480.772 197.855 480.178 196.846 480.178 195.754 480.178 194.658 480.772 193.648 481.734 193.117 L509.976 177.206 C512.053 176.033 514.647 177.496 514.647 179.844 L514.647 182.336 C514.647 193.122 526.607 199.87 536.175 194.47 L568.779 176.105 C573.204 173.675 575.952 169.029 575.952 163.981 575.952 158.933 573.204 154.287 568.779 151.857 Z" fill="#000000" fill-opacity="1" stroke="none"/>
</svg>
