<?xml version="1.0" encoding="UTF-8"?>
<svg width="108px" height="20px" viewBox="0 0 108 20" xmlns="http://www.w3.org/2000/svg" xmlns:xlink="http://www.w3.org/1999/xlink" version="1.1">
 <!-- Generated by Pixelmator Pro 2.3 -->
 <path id="Path" d="M8.724 9.787 C8.724 7.989 7.386 6.726 5.742 6.726 4.098 6.726 2.76 8.011 2.76 9.787 2.76 11.542 4.098 12.847 5.742 12.847 7.388 12.847 8.724 11.585 8.724 9.787 Z M8.748 15.137 L8.748 13.746 C7.937 14.709 6.729 15.307 5.284 15.307 2.28 15.307 0 12.953 0 9.787 0 6.641 2.367 4.245 5.351 4.245 6.755 4.245 7.938 4.845 8.749 5.785 L8.749 4.437 11.446 4.437 11.446 15.137 Z M24.544 12.761 C23.6 12.761 23.338 12.419 23.338 11.521 L23.338 6.77 25.071 6.77 25.071 4.436 23.338 4.436 23.338 1.826 20.574 1.826 20.574 4.436 17.014 4.436 17.014 3.786 C17.014 2.886 17.366 2.543 18.331 2.543 L18.937 2.543 18.937 0.468 17.607 0.468 C15.327 0.468 14.253 1.196 14.253 3.421 L14.253 4.435 12.718 4.435 12.718 6.77 14.253 6.77 14.253 15.136 17.017 15.136 17.017 6.77 20.577 6.77 20.577 12.013 C20.577 14.196 21.431 15.138 23.667 15.138 L25.093 15.138 25.093 12.762 24.543 12.762 Z M34.455 8.823 C34.258 7.433 33.095 6.598 31.736 6.598 30.376 6.598 29.258 7.411 28.974 8.823 L34.454 8.823 Z M28.951 10.493 C29.149 12.076 30.311 12.976 31.78 12.976 32.942 12.976 33.842 12.44 34.367 11.584 L37.197 11.584 C36.538 13.852 34.455 15.307 31.714 15.307 28.404 15.307 26.08 13.04 26.08 9.808 26.08 6.577 28.536 4.244 31.782 4.244 35.049 4.244 37.416 6.598 37.416 9.808 37.416 10.044 37.395 10.278 37.351 10.493 Z M54.987 9.787 C54.987 8.053 53.649 6.726 52.005 6.726 50.361 6.726 49.023 8.011 49.023 9.787 49.023 11.542 50.361 12.847 52.005 12.847 53.649 12.847 54.987 11.521 54.987 9.787 Z M46.303 4.437 L49 4.437 49 5.828 C49.81 4.843 51.016 4.245 52.464 4.245 55.424 4.245 57.747 6.621 57.747 9.765 57.747 12.912 55.38 15.309 52.398 15.309 51.016 15.309 49.876 14.773 49.088 13.875 L49.088 19.54 46.303 19.54 Z M67.467 9.787 C67.467 7.989 66.131 6.726 64.485 6.726 62.841 6.726 61.503 8.011 61.503 9.787 61.503 11.542 62.841 12.847 64.485 12.847 66.131 12.847 67.467 11.585 67.467 9.787 Z M67.491 15.137 L67.491 13.746 C66.68 14.709 65.472 15.307 64.027 15.307 61.023 15.307 58.743 12.953 58.743 9.787 58.743 6.641 61.11 4.245 64.093 4.245 65.496 4.245 66.68 4.845 67.491 5.785 L67.491 4.437 70.187 4.437 70.187 15.137 Z M41.443 5.486 C41.443 5.486 42.129 4.246 43.81 4.246 44.529 4.246 44.994 4.486 44.994 4.486 L44.994 7.216 C44.994 7.216 43.98 6.605 43.048 6.728 42.116 6.851 41.527 7.686 41.53 8.804 L41.53 15.139 38.746 15.139 38.746 4.439 41.443 4.439 Z M82.781 4.437 L75.973 19.506 73.102 19.506 75.775 13.68 71.255 4.437 74.509 4.437 77.153 10.613 79.866 4.437 Z M104.514 4.194 L97.764 0.393 C95.784 -0.723 93.307 0.671 93.307 2.905 L93.307 3.295 C93.307 3.647 93.5 3.973 93.812 4.148 L95.087 4.866 C95.461 5.078 95.927 4.814 95.927 4.393 L95.927 3.423 C95.927 2.938 96.465 2.634 96.895 2.877 L102.741 6.171 C103.171 6.413 103.171 7.019 102.741 7.261 L96.895 10.554 C96.465 10.796 95.928 10.494 95.928 10.008 L95.928 9.492 C95.928 7.259 93.451 5.862 91.468 6.98 L84.718 10.782 C83.801 11.285 83.232 12.248 83.232 13.294 83.232 14.34 83.801 15.303 84.718 15.806 L91.468 19.607 C93.449 20.723 95.928 19.329 95.928 17.095 L95.928 16.705 C95.926 16.35 95.732 16.024 95.422 15.852 L94.148 15.132 C93.774 14.921 93.307 15.185 93.307 15.606 L93.307 16.576 C93.307 17.061 92.769 17.364 92.34 17.121 L86.493 13.828 C86.294 13.718 86.171 13.509 86.171 13.283 86.171 13.056 86.294 12.847 86.493 12.737 L92.34 9.443 C92.77 9.2 93.307 9.503 93.307 9.989 L93.307 10.505 C93.307 12.738 95.783 14.135 97.764 13.017 L104.514 9.215 C105.43 8.712 105.999 7.75 105.999 6.705 105.999 5.66 105.43 4.698 104.514 4.195 Z" fill="#000000" fill-opacity="1" stroke="none"/>
</svg>
