<svg height="360" viewBox="0 0 640 360" width="640" xmlns="http://www.w3.org/2000/svg" xmlns:xlink="http://www.w3.org/1999/xlink"><mask id="a" fill="#fff"><path d="m480 60v-60h-480v60z" fill="#fff" fill-rule="evenodd"/></mask><mask id="b" fill="#fff"><path d="m480 60v-60h-480v60z" fill="#fff" fill-rule="evenodd"/></mask><mask id="c" fill="#fff"><path d="m480 60v-60h-480v60z" fill="#fff" fill-rule="evenodd"/></mask><mask id="d" fill="#fff"><path d="m480 60v-60h-480v60z" fill="#fff" fill-rule="evenodd"/></mask><mask id="e" fill="#fff"><path d="m480 60v-60h-480v60z" fill="#fff" fill-rule="evenodd"/></mask><mask id="f" fill="#fff"><path d="m480 60v-60h-480v60z" fill="#fff" fill-rule="evenodd"/></mask><mask id="g" fill="#fff"><path d="m480 60v-60h-480v60z" fill="#fff" fill-rule="evenodd"/></mask><mask id="h" fill="#fff"><path d="m480 60v-60h-480v60z" fill="#fff" fill-rule="evenodd"/></mask><g fill="none" fill-rule="evenodd" transform="translate(80 150)"><g fill="#1a1919"><path d="m8.92651161 50.8820629h11.20557619c4.7359734.057831 8.0620308-.7467551 9.9742046-2.4103566 1.9124071-1.6626138 2.9904409-3.499818 3.2331677-5.5084303.0604483-.229239.092773-.4438832.092773-.6456881 0-.2019147 0-.4132666 0-.6437127 0-2.6963293-1.1259957-4.8910543-3.3716854-6.5840649-2.2466232-1.692133-5.708981-2.5386384-10.3848562-2.5386384h-10.74917989zm0-25.8690028h5.92253399c4.4309311.057831 7.7266477-.6888144 9.8827152-2.2378513 2.1549006-1.5491465 3.234218-3.9037571 3.234218-7.0596617 0-2.1800203-.7750921-4.0875654-2.3228256-5.72406204-1.5487836-1.63627714-4.3883371-2.45337322-8.5171435-2.45337322h-8.19949809zm-8.92651161-25.0130601h18.0363519c6.5589918.057831 11.3542466 1.58382322 14.3939329 4.58302451 3.0339684 2.99810394 4.6130929 6.29611699 4.7360901 9.89371009v.300787.2123397c0 3.0278425-.773925 5.5547389-2.3228255 7.5812382-1.5499506 2.0285842-3.9342747 3.6701287-7.1515718 4.9258406v.085265c4.6768087.8559426 8.3359153 2.6426683 10.9773196 5.3538118 2.6416379 2.7131189 3.9622817 6.039444 3.9622817 9.9799628 0 .4562833-.0156372.9137737-.0458613 1.371264-.0312745.4554056-.10736.9127862-.2281399 1.3702766-.6687824 3.199031-2.6414044 6.1236116-5.9204335 8.7801066-3.2789124 2.6551783-8.3213283 3.9834257-15.1218799 3.9834257h-21.3152643z" fill-rule="nonzero" mask="url(#a)"/><path d="m102.631579 35.9471414c0 7.2945224-2.233848 13.1265365-6.7018848 17.4949297-4.4694014 4.3727313-11.1996016 6.5579289-20.1946942 6.5579289-6.3915523 0-12.1913236-1.8377018-17.3970396-5.5153299-5.2081042-3.6734014-7.8116446-9.5352261-7.8116446-17.5823598v-36.9023103h8.6986336v34.9920838c0 3.4175625.2658693 5.9779534.7998822 7.6857335.5329893 1.7087812 1.4777465 3.2256832 2.839957 4.5570464 1.7153003 1.681084 3.6681546 2.9389213 5.8575393 3.7778505 2.1893847.8410424 4.5857335 1.2578373 7.1913208 1.2578373 3.3130178 0 6.1680992-.4615112 8.5655852-1.3889827 2.3975997-.9251355 4.2752874-2.0541636 5.6364744-3.3856381 1.5386985-1.5039989 2.5587361-3.3449264 3.0622729-5.5142176.5023997-2.1704035.7550779-4.645589.7550779-7.4235543v-34.5581588h8.6985199z" mask="url(#b)"/><path d="m168.317691 4.72104829v9.01281041c-2.394389-1.2592688-4.687475-2.3308348-6.872353-3.2192064-2.187182-.88529282-4.388176-1.55759192-6.604136-2.01711725-1.258205-.22750847-2.516409-.41400166-3.774614-.55728031-1.257054-.14327866-2.54749-.21497296-3.864404-.21497296-7.008188 0-12.835299 2.11905066-17.477878 6.35209382-4.64258 4.2362321-6.962143 9.5851553-6.962143 16.0501787 0 6.5819114 2.290784 11.932924 6.873504 16.0510584 4.58272 4.1214331 10.558329 6.1804452 17.926827 6.1804452 1.737082 0 3.504094-.1411893 5.299885-.4298358 1.796942-.2856777 3.596186-.7145241 5.393128-1.2847797 1.798093-.5730046 3.593884-1.2591588 5.390825-2.0620911 1.798093-.7998534 3.563954-1.7461743 5.301036-2.8324749v9.1003389c-2.995286 1.5438468-6.244976 2.7893705-9.749071 3.7325026-3.505246.9431319-7.652832 1.4172821-12.44506 1.4172821-9.045721 0-16.14485-2.1601759-21.296237-6.4828371-5.153689-4.3183725-8.597924-9.0845046-10.333855-14.2903692-.480028-1.4298175-.840338-2.8461101-1.077474-4.2487675-.241741-1.4014478-.36146-2.759791-.36146-4.077009 0-8.9266014 3.1599-16.3082563 9.482005-22.14518471 6.318651-5.83681847 14.36057-8.75583249 24.126909-8.75583249 3.173715 0 6.424556.38574178 9.74792 1.15909466 3.325667.77236324 7.085316 1.98951708 11.276646 3.64827269z" mask="url(#c)"/><path d="m232.105 58.421h-11.76l-30.23-28.868v28.868h-8.536v-58.421h8.536v26.726l25.003-26.726h10.628l-25.873 27.668z" mask="url(#d)"/><path d="m303.777237 25.5272842h5.473099c4.519173.0567336 7.589095-.8697695 9.211991-2.7836793 1.619556-1.9129222 2.43323-4.0698979 2.43323-6.4685127v-.1704204c-.060107-2.7689747-.985091-4.9447152-2.78163-6.53172078-1.795425-1.58371348-4.75181-2.37666758-8.863591-2.37666758h-5.473099zm6.431476-25.5272842c6.022967.057831 10.77144 1.5416845 14.246529 4.45474285 3.477314 2.91196098 5.213746 6.91020105 5.213746 11.99175735 0 3.3704389-.853745 6.2822902-2.561236 8.7368705-1.709717 2.4565557-4.157417 4.3127442-7.344215 5.5694436 1.679664 1.0841942 3.200154 2.370303 4.563698 3.8531688 1.357979 1.4859385 2.676998 3.1707191 3.951494 5.0551098.752454 1.0854013 1.522717 2.240046 2.304111 3.4683237.781394 1.2282779 1.575033 2.499682 2.389821 3.8132249.34506.5710673.677875 1.1126158.997334 1.6258522.317232.516309.653389 1.0021113.999562 1.4574071.057881.1136867.130231.2430657.217053.3849546.087935.1440837.187001.2713778.304988.3849548.694573 1.0284482 1.475967 2.1274566 2.347522 3.2977936.865989 1.1716539 1.939015 2.6122713 3.213512 4.3274488h-10.168142l-7.81728-11.9937325c-3.303673-5.0247129-5.967314-8.4077716-7.995377-10.1503832-2.025837-1.7415142-3.940363-2.7267262-5.733562-2.9550873-.346174-.0567336-.681217-.0988724-.999563-.128172-.318345-.0284217-.651161-.0431262-.997334-.0431262h-3.564137v25.2705012h-8.514079v-58.4210526z" fill-rule="nonzero" mask="url(#e)"/><path d="m349.972333 29.9568954c0 6.4668928 2.223135 11.8191148 6.668278 16.0510585 4.444012 4.2372216 10.022784 6.351104 16.736318 6.351104 6.771234 0 12.376028-2.1138824 16.823433-6.351104 4.445143-4.2319437 6.667148-9.5556859 6.667148-15.9647394 0-6.4670027-2.222005-11.8033904-6.667148-16.0078438-4.447405-4.20676262-10.052199-6.31008892-16.823433-6.31008892-6.713534 0-12.292306 2.1033263-16.736318 6.31008892-4.445143 4.2044534-6.668278 9.5408411-6.668278 16.0078438zm-8.919701 0c0-8.0687986 2.943817-15.0785668 8.832585-21.03029409 5.884241-5.94963806 13.717829-8.92660131 23.491712-8.92660131 9.948114 0 17.837138 2.96222853 23.665944 8.88437643 5.831066 5.92225787 8.746601 12.97623027 8.746601 21.15883807 0 7.8959407-2.888381 14.8634839-8.656093 20.899551-5.771105 6.039256-13.749507 9.0572345-23.935208 9.0572345-9.833845 0-17.645937-3.0054431-23.446457-9.0140199-5.801653-6.0086869-8.699084-12.9888757-8.699084-20.9427656z" fill-rule="nonzero" mask="url(#f)"/><path d="m424.185276 29.9568954c0 6.4668928 2.219782 11.8191148 6.665002 16.0510585 4.44522 4.2372216 10.025222 6.351104 16.738875 6.351104 6.769089 0 12.375112-2.1138824 16.822594-6.351104 4.44522-4.2319437 6.667265-9.5556859 6.667265-15.9647394 0-6.4670027-2.222045-11.8033904-6.667265-16.0078438-4.447482-4.20676262-10.053505-6.31008892-16.822594-6.31008892-6.713653 0-12.293655 2.1033263-16.738875 6.31008892-4.44522 4.2044534-6.665002 9.5408411-6.665002 16.0078438zm-8.922118 0c0-8.0687986 2.941607-15.0785668 8.831608-21.03029409 5.886608-5.94963806 13.719201-8.92660131 23.494387-8.92660131 9.947155 0 17.838581 2.96222853 23.667488 8.88437643 5.828906 5.92225787 8.743359 12.97623027 8.743359 21.15883807 0 7.8959407-2.886169 14.8634839-8.655112 20.899551-5.773469 6.039256-13.749749 9.0572345-23.934496 9.0572345-9.832885 0-17.647377-3.0054431-23.445736-9.0140199-5.801753-6.0086869-8.701498-12.9888757-8.701498-20.9427656z" fill-rule="nonzero" mask="url(#g)"/></g><path d="m270.906016 25.2765681h-18.566688l9.632865 21.6041322zm-38.800753-25.2765681h8.758783l7.971096 17.5797584h25.401141l7.532373-17.5797584h8.75766l-25.661459 60h-6.045645z" fill="#d1ce27" fill-rule="nonzero" mask="url(#h)"/></g></svg>