<?xml version="1.0" encoding="UTF-8" standalone="no"?>
<svg
   width="640"
   height="360"
   viewBox="0 0 640 360"
   version="1.1"
   id="svg1278"
   sodipodi:docname="provider-buckaroo-white-640x360.svg"
   inkscape:version="1.1.2 (b8e25be8, 2022-02-05)"
   xmlns:inkscape="http://www.inkscape.org/namespaces/inkscape"
   xmlns:sodipodi="http://sodipodi.sourceforge.net/DTD/sodipodi-0.dtd"
   xmlns:xlink="http://www.w3.org/1999/xlink"
   xmlns="http://www.w3.org/2000/svg"
   xmlns:svg="http://www.w3.org/2000/svg">
  <sodipodi:namedview
     id="namedview1280"
     pagecolor="#ffffff"
     bordercolor="#666666"
     borderopacity="1.0"
     inkscape:pageshadow="2"
     inkscape:pageopacity="0.0"
     inkscape:pagecheckerboard="0"
     showgrid="false"
     inkscape:zoom="1.7914233"
     inkscape:cx="298.3661"
     inkscape:cy="194.53805"
     inkscape:window-width="1938"
     inkscape:window-height="821"
     inkscape:window-x="2825"
     inkscape:window-y="634"
     inkscape:window-maximized="0"
     inkscape:current-layer="g1276" />
  <defs
     id="defs1234">
    <polygon
       id="p2p-buckaroo-a"
       points="480 60 480 0 0 0 0 60" />
    <polygon
       id="p2p-buckaroo-c"
       points="480 60 480 0 0 0 0 60" />
    <polygon
       id="p2p-buckaroo-e"
       points="480 60 480 0 0 0 0 60" />
    <polygon
       id="p2p-buckaroo-g"
       points="480 60 480 0 0 0 0 60" />
    <polygon
       id="p2p-buckaroo-i"
       points="480 60 480 0 0 0 0 60" />
    <polygon
       id="p2p-buckaroo-k"
       points="480 60 480 0 0 0 0 60" />
    <polygon
       id="p2p-buckaroo-m"
       points="480 60 480 0 0 0 0 60" />
    <polygon
       id="p2p-buckaroo-o"
       points="480 60 480 0 0 0 0 60" />
  </defs>
  <g
     fill="none"
     fill-rule="evenodd"
     transform="translate(80 150)"
     id="g1276">
    <mask
       id="p2p-buckaroo-b"
       fill="#fff">
      <use
         xlink:href="#p2p-buckaroo-a"
         id="use1236" />
    </mask>
    <path
       fill="#1A1919"
       fill-rule="nonzero"
       d="M8.92651161,50.8820629 L20.1320878,50.8820629 C24.8680612,50.9398939 28.1941186,50.1353078 30.1062924,48.4717063 C32.0186995,46.8090925 33.0967333,44.9718883 33.3394601,42.963276 C33.3999084,42.734037 33.4322331,42.5193928 33.4322331,42.3175879 C33.4322331,42.1156732 33.4322331,41.9043213 33.4322331,41.6738752 C33.4322331,38.9775459 32.3062374,36.7828209 30.0605477,35.0898103 C27.8139245,33.3976773 24.3515667,32.5511719 19.6756915,32.5511719 L8.92651161,32.5511719 L8.92651161,50.8820629 Z M8.92651161,25.0130601 L14.8490456,25.0130601 C19.2799767,25.0708911 22.5756933,24.3242457 24.7317608,22.7752088 C26.8866614,21.2260623 27.9659788,18.8714517 27.9659788,15.7155471 C27.9659788,13.5355268 27.1908867,11.6279817 25.6431532,9.99148506 C24.0943696,8.35520792 21.2548161,7.53811184 17.1260097,7.53811184 L8.92651161,7.53811184 L8.92651161,25.0130601 Z M0,0 L18.0363519,0 C24.5953437,0.0578310008 29.3905985,1.58382322 32.4302848,4.58302451 C35.4642532,7.58112845 37.0433777,10.8791415 37.1663749,14.4767346 C37.1663749,14.5925063 37.1663749,14.6901716 37.1663749,14.7775216 C37.1663749,14.8616893 37.1663749,14.934225 37.1663749,14.9898613 C37.1663749,18.0177038 36.3924499,20.5446002 34.8435494,22.5710995 C33.2935988,24.5996837 30.9092747,26.2412282 27.6919776,27.4969401 L27.6919776,27.5822051 C32.3687863,28.4381477 36.0278929,30.2248734 38.6692972,32.9360169 C41.3109351,35.6491358 42.6315789,38.9754609 42.6315789,42.9159797 C42.6315789,43.372263 42.6159417,43.8297534 42.5857176,44.2872437 C42.5544431,44.7426493 42.4783576,45.2000299 42.3575777,45.6575203 C41.6887953,48.8565513 39.7161733,51.7811319 36.4371442,54.4376269 C33.1582318,57.0928052 28.1158159,58.4210526 21.3152643,58.4210526 L0,58.4210526 L0,0 L0,0 Z"
       mask="url(#p2p-buckaroo-b)"
       id="path1239"
       style="fill:#ffffff" />
    <mask
       id="p2p-buckaroo-d"
       fill="#fff">
      <use
         xlink:href="#p2p-buckaroo-c"
         id="use1241" />
    </mask>
    <path
       fill="#1A1919"
       d="M102.631579,35.9471414 C102.631579,43.2416638 100.397731,49.0736779 95.9296942,53.4420711 C91.4602928,57.8148024 84.7300926,60 75.735,60 C69.3434477,60 63.5436764,58.1622982 58.3379604,54.4846701 C53.1298562,50.8112687 50.5263158,44.949444 50.5263158,36.9023103 L50.5263158,0 L59.2249494,0 L59.2249494,34.9920838 C59.2249494,38.4096463 59.4908187,40.9700372 60.0248316,42.6778173 C60.5578209,44.3865985 61.5025781,45.9035005 62.8647886,47.2348637 C64.5800889,48.9159477 66.5329432,50.173785 68.7223279,51.0127142 C70.9117126,51.8537566 73.3080614,52.2705515 75.9136487,52.2705515 C79.2266665,52.2705515 82.0817479,51.8090403 84.4792339,50.8815688 C86.8768336,49.9564333 88.7545213,48.8274052 90.1157083,47.4959307 C91.6544068,45.9919318 92.6744444,44.1510043 93.1779812,41.9817131 C93.6803809,39.8113096 93.9330591,37.3361241 93.9330591,34.5581588 L93.9330591,0 L102.631579,0 L102.631579,35.9471414"
       mask="url(#p2p-buckaroo-d)"
       id="path1244"
       style="fill:#ffffff" />
    <mask
       id="p2p-buckaroo-f"
       fill="#fff">
      <use
         xlink:href="#p2p-buckaroo-e"
         id="use1246" />
    </mask>
    <path
       fill="#1A1919"
       d="M168.317691,4.72104829 L168.317691,13.7338587 C165.923302,12.4745899 163.630216,11.4030239 161.445338,10.5146523 C159.258156,9.62935948 157.057162,8.95706038 154.841202,8.49753505 C153.582997,8.27002658 152.324793,8.08353339 151.066588,7.94025474 C149.809534,7.79697608 148.519098,7.72528178 147.202184,7.72528178 C140.193996,7.72528178 134.366885,9.84433244 129.724306,14.0773756 C125.081726,18.3136077 122.762163,23.6625309 122.762163,30.1275543 C122.762163,36.7094657 125.052947,42.0604783 129.635667,46.1786127 C134.218387,50.3000458 140.193996,52.3590579 147.562494,52.3590579 C149.299576,52.3590579 151.066588,52.2178686 152.862379,51.9292221 C154.659321,51.6435444 156.458565,51.214698 158.255507,50.6444424 C160.0536,50.0714378 161.849391,49.3852836 163.646332,48.5823513 C165.444425,47.7824979 167.210286,46.836177 168.947368,45.7498764 L168.947368,54.8502153 C165.952082,56.3940621 162.702392,57.6395858 159.198297,58.5827179 C155.693051,59.5258498 151.545465,60 146.753237,60 C137.707516,60 130.608387,57.8398241 125.457,53.5171629 C120.303311,49.1987904 116.859076,44.4326583 115.123145,39.2267937 C114.643117,37.7969762 114.282807,36.3806836 114.045671,34.9780262 C113.80393,33.5765784 113.684211,32.2182352 113.684211,30.9010172 C113.684211,21.9744158 116.844111,14.5927609 123.166216,8.75583249 C129.484867,2.91901402 137.526786,0 147.293125,0 C150.46684,0 153.717681,0.385741776 157.041045,1.15909466 C160.366712,1.9314579 164.126361,3.14861174 168.317691,4.80736735 L168.317691,4.72104829"
       mask="url(#p2p-buckaroo-f)"
       id="path1249"
       style="fill:#ffffff" />
    <mask
       id="p2p-buckaroo-h"
       fill="#fff">
      <use
         xlink:href="#p2p-buckaroo-g"
         id="use1251" />
    </mask>
    <polyline
       fill="#1A1919"
       points="232.105 58.421 220.345 58.421 190.115 29.553 190.115 58.421 181.579 58.421 181.579 0 190.115 0 190.115 26.726 215.118 0 225.746 0 199.873 27.668 232.105 58.421"
       mask="url(#p2p-buckaroo-h)"
       id="polyline1254"
       style="fill:#ffffff" />
    <mask
       id="p2p-buckaroo-j"
       fill="#fff">
      <use
         xlink:href="#p2p-buckaroo-i"
         id="use1256" />
    </mask>
    <path
       fill="#1A1919"
       fill-rule="nonzero"
       d="M303.777237,25.5272842 L309.250336,25.5272842 C313.769509,25.5840178 316.839431,24.6575147 318.462327,22.7436049 C320.081883,20.8306827 320.895557,18.673707 320.895557,16.2750922 L320.895557,16.1046718 C320.83545,13.3356971 319.910466,11.1599566 318.113927,9.57295102 C316.318502,7.98923754 313.362117,7.19628344 309.250336,7.19628344 L303.777237,7.19628344 L303.777237,25.5272842 Z M310.208713,0 C316.23168,0.0578310008 320.980153,1.5416845 324.455242,4.45474285 C327.932556,7.36670383 329.668988,11.3649439 329.668988,16.4465002 C329.668988,19.8169391 328.815243,22.7287904 327.107752,25.1833707 C325.398035,27.6399264 322.950335,29.4961149 319.763537,30.7528143 C321.443201,31.8370085 322.963691,33.1231173 324.327235,34.6059831 C325.685214,36.0919216 327.004233,37.7767022 328.278729,39.6610929 C329.031183,40.7464942 329.801446,41.9011389 330.58284,43.1294166 C331.364234,44.3576945 332.157873,45.6290986 332.972661,46.9426415 C333.317721,47.5137088 333.650536,48.0552573 333.969995,48.5684937 C334.287227,49.0848027 334.623384,49.570605 334.969557,50.0259008 C335.027438,50.1395875 335.099788,50.2689665 335.18661,50.4108554 C335.274545,50.5549391 335.373611,50.6822332 335.491598,50.7958102 C336.186171,51.8242584 336.967565,52.9232668 337.83912,54.0936038 C338.705109,55.2652577 339.778135,56.7058751 341.052632,58.4210526 L330.88449,58.4210526 L323.06721,46.4273201 C319.763537,41.4026072 317.099896,38.0195485 315.071833,36.2769369 C313.045996,34.5354227 311.13147,33.5502107 309.338271,33.3218496 C308.992097,33.265116 308.657054,33.2229772 308.338708,33.1936776 C308.020363,33.1652559 307.687547,33.1505514 307.341374,33.1505514 L303.777237,33.1505514 L303.777237,58.4210526 L295.263158,58.4210526 L295.263158,0 L310.208713,0 L310.208713,0 Z"
       mask="url(#p2p-buckaroo-j)"
       id="path1259"
       style="fill:#ffffff" />
    <mask
       id="p2p-buckaroo-l"
       fill="#fff">
      <use
         xlink:href="#p2p-buckaroo-k"
         id="use1261" />
    </mask>
    <path
       fill="#1A1919"
       fill-rule="nonzero"
       d="M349.972333,29.9568954 C349.972333,36.4237882 352.195468,41.7760102 356.640611,46.0079539 C361.084623,50.2451755 366.663395,52.3590579 373.376929,52.3590579 C380.148163,52.3590579 385.752957,50.2451755 390.200362,46.0079539 C394.645505,41.7760102 396.86751,36.452268 396.86751,30.0432145 C396.86751,23.5762118 394.645505,18.2398241 390.200362,14.0353707 C385.752957,9.82860808 380.148163,7.72528178 373.376929,7.72528178 C366.663395,7.72528178 361.084623,9.82860808 356.640611,14.0353707 C352.195468,18.2398241 349.972333,23.5762118 349.972333,30.0432145 L349.972333,29.9568954 Z M341.052632,29.9568954 C341.052632,21.8880968 343.996449,14.8783286 349.885217,8.92660131 C355.769458,2.97696325 363.603046,0 373.376929,0 C383.325043,0 391.214067,2.96222853 397.042873,8.88437643 C402.873939,14.8066343 405.789474,21.8606067 405.789474,30.0432145 C405.789474,37.9391552 402.901093,44.9066984 397.133381,50.9427655 C391.362276,56.9820215 383.383874,60 373.198173,60 C363.364328,60 355.552236,56.9945569 349.751716,50.9859801 C343.950063,44.9772932 341.052632,37.9971044 341.052632,30.0432145 L341.052632,29.9568954 L341.052632,29.9568954 Z"
       mask="url(#p2p-buckaroo-l)"
       id="path1264"
       style="fill:#ffffff" />
    <mask
       id="p2p-buckaroo-n"
       fill="#fff">
      <use
         xlink:href="#p2p-buckaroo-m"
         id="use1266" />
    </mask>
    <path
       fill="#1A1919"
       fill-rule="nonzero"
       d="M424.185276,29.9568954 C424.185276,36.4237882 426.405058,41.7760102 430.850278,46.0079539 C435.295498,50.2451755 440.8755,52.3590579 447.589153,52.3590579 C454.358242,52.3590579 459.964265,50.2451755 464.411747,46.0079539 C468.856967,41.7760102 471.079012,36.452268 471.079012,30.0432145 C471.079012,23.5762118 468.856967,18.2398241 464.411747,14.0353707 C459.964265,9.82860808 454.358242,7.72528178 447.589153,7.72528178 C440.8755,7.72528178 435.295498,9.82860808 430.850278,14.0353707 C426.405058,18.2398241 424.185276,23.5762118 424.185276,30.0432145 L424.185276,29.9568954 Z M415.263158,29.9568954 C415.263158,21.8880968 418.204765,14.8783286 424.094766,8.92660131 C429.981374,2.97696325 437.813967,0 447.589153,0 C457.536308,0 465.427734,2.96222853 471.256641,8.88437643 C477.085547,14.8066343 480,21.8606067 480,30.0432145 C480,37.9391552 477.113831,44.9066984 471.344888,50.9427655 C465.571419,56.9820215 457.595139,60 447.410392,60 C437.577507,60 429.763015,56.9945569 423.964656,50.9859801 C418.162903,44.9772932 415.263158,37.9971044 415.263158,30.0432145 L415.263158,29.9568954 L415.263158,29.9568954 Z"
       mask="url(#p2p-buckaroo-n)"
       id="path1269"
       style="fill:#ffffff" />
    <mask
       id="p2p-buckaroo-p"
       fill="#fff">
      <use
         xlink:href="#p2p-buckaroo-o"
         id="use1271" />
    </mask>
    <path
       fill="#D1CE27"
       fill-rule="nonzero"
       d="M270.906016,25.2765681 L252.339328,25.2765681 L261.972193,46.8807003 L270.906016,25.2765681 Z M232.105263,0 L240.864046,0 L248.835142,17.5797584 L274.236283,17.5797584 L281.768656,0 L290.526316,0 L264.864857,60 L258.819212,60 L232.105263,0 L232.105263,0 Z"
       mask="url(#p2p-buckaroo-p)"
       id="path1274"
       style="fill:#ffffff" />
  </g>
</svg>
