<svg xmlns="http://www.w3.org/2000/svg" width="32" height="24" fill="none"><path fill="#d10600" d="M28 0H4a4 4 0 0 0-4 4v16a4 4 0 0 0 4 4h24a4 4 0 0 0 4-4V4a4 4 0 0 0-4-4"/><path fill="#fff" fill-rule="evenodd" d="M10 9.374C10 7.391 11.577 6 13.408 6c2.41 0 3.262 2.254 3.262 5.034 0 .023-1.677 1.424-1.677 3.86 0 1.888.826 2.49 1.654 2.83l.049.19s-4.53.96-4.53-3.506c0-1.61.866-2.396.866-3.82 0-.459-.395-1.1-1.256-1.1-.82 0-1.27.611-1.27 1.09l-.174.003c-.2-.354-.332-.77-.332-1.207m10.605 6.476s-.05-.854-.567-.854c-.462 0-.717.422-.717.422s.534.43.534 1.099c0 .69-1.39 1.368-1.987 1.483a2.9 2.9 0 0 1-.216-1.072c0-1.515 1.007-2.928 2.634-2.928 1.205 0 .52 1.893.52 1.893zm-1.998-4.328a.51.51 0 0 1-.5.523.513.513 0 0 1-.5-.523c0-.289.223-.522.5-.522.28 0 .5.233.5.522m1.438-1.833s.477.522.477 1.353c0 .83-.573 1.958-.573 1.958l-.276-.061s.5-1.07-.662-2.033c-1.07-.886-1.189-.609-1.34-1.617-.08-.545.101-1.289.369-1.787l.177.066c-.005.93.32 1.596.32 1.596s.541-.04.804.062c0 .004.291-.69.23-1.654l.18-.072c.585 1.096.294 2.19.294 2.19" clip-rule="evenodd"/></svg>