<svg xmlns="http://www.w3.org/2000/svg" width="640" height="360" viewBox="0 0 640 360"><title>00_Logos/Logo-ASN</title><g fill="none" fill-rule="evenodd"><path fill="#525252" d="M443.806 196.016v14.66c0 1.733-.808 3.348-2.164 4.322-1.802 1.29-8.205 5.506-14.94 5.506-6.393 0-13.858-3.326-13.858-12.704 0-6.644 3.71-9.435 13.693-10.297zm5.558 23.218.003-.082.017-33.6c0-12.29-5.152-17.078-18.373-17.078-7.347 0-12.607 1.384-15.725 2.545l-1.287.478v5.564l2.678-.986c2.235-.82 7-2.195 13.802-2.195 10.592 0 13.333 2.529 13.333 12.305v4.327l-17.757 1.528c-8.73.754-18.756 3.228-18.756 15.76 0 12.565 9.745 18.19 19.403 18.19 7.297 0 13.822-3.61 17.168-5.849v.635c0 2.143 1.773 3.886 4.009 3.886l8.091-.397v-4.513l-6.34-.456a4 4 0 0 1-.266-.062"/><path fill="#525252" d="m443.04 196.838-16.436 1.415c-9.593.829-12.994 3.327-12.994 9.547 0 8.821 7.053 11.952 13.092 11.952 6.502 0 12.733-4.105 14.488-5.363 1.159-.83 1.85-2.22 1.85-3.714zm-16.338 24.42c-6.746 0-14.624-3.524-14.624-13.458 0-7.056 4.035-10.153 14.393-11.047l18.1-1.559v15.481c0 1.973-.926 3.816-2.477 4.93-1.85 1.327-8.427 5.653-15.392 5.653m3.777-48.132c11.069 0 14.1 2.808 14.1 13.059v5.017l-18.457 1.588c-8.929.771-18.057 3.158-18.057 15.01 0 12.045 9.36 17.437 18.637 17.437 7.13 0 13.547-3.583 16.737-5.718l1.197-.802v2.06c0 1.727 1.455 3.132 3.243 3.132l7.325-.36v-3.096l-5.729-.42a4 4 0 0 1-.316-.074l-.56-.153.019-34.255c0-11.9-4.772-16.325-17.607-16.325-7.234 0-12.396 1.359-15.454 2.497l-.791.294v3.957l1.643-.604c2.286-.838 7.153-2.244 14.07-2.244m-3.777 53.617c-10.04 0-20.17-5.857-20.17-18.943 0-13.143 10.398-15.727 19.457-16.51l17.057-1.468v-3.637c0-9.393-2.35-11.553-12.567-11.553-6.676 0-11.345 1.347-13.534 2.148l-3.712 1.367v-7.17l1.782-.663c3.177-1.182 8.531-2.594 15.996-2.594 13.594 0 19.139 5.167 19.139 17.832l-.016 33.025 6.603.476v5.928l-8.819.433h-.001c-2.415 0-4.397-1.7-4.756-3.916-3.594 2.233-9.698 5.245-16.459 5.245M101.273 196.016v14.66c0 1.733-.809 3.348-2.164 4.322-1.802 1.29-8.205 5.506-14.94 5.506-6.393 0-13.858-3.326-13.858-12.704 0-6.644 3.71-9.435 13.693-10.297zm5.558 23.218.003-.082.017-33.6c0-12.29-5.152-17.078-18.373-17.078-7.347 0-12.607 1.384-15.726 2.545l-1.286.478v5.564l2.678-.986c2.235-.82 7-2.195 13.802-2.195 10.591 0 13.332 2.529 13.332 12.305v4.327l-17.756 1.528c-8.73.754-18.756 3.228-18.756 15.76 0 12.565 9.745 18.19 19.402 18.19 7.299 0 13.823-3.61 17.169-5.849v.635c0 2.143 1.773 3.886 4.008 3.886h.002l8.09-.397v-4.513l-6.342-.456a4 4 0 0 1-.264-.062"/><path fill="#525252" d="m100.507 196.838-16.436 1.415c-9.593.829-12.994 3.327-12.994 9.547 0 8.821 7.053 11.952 13.092 11.952 6.501 0 12.734-4.105 14.488-5.363 1.158-.832 1.85-2.22 1.85-3.714zm-16.338 24.42c-6.746 0-14.624-3.524-14.624-13.458 0-7.056 4.035-10.153 14.392-11.047l18.102-1.559v15.481c0 1.973-.927 3.816-2.478 4.93-1.85 1.327-8.428 5.653-15.392 5.653m3.776-48.132c11.069 0 14.1 2.808 14.1 13.059v5.017l-18.456 1.588c-8.929.771-18.058 3.158-18.058 15.01 0 12.045 9.361 17.437 18.638 17.437 7.13 0 13.547-3.583 16.737-5.718l1.197-.802v2.06c0 1.727 1.455 3.132 3.242 3.132l7.326-.36v-3.096l-5.729-.42a5 5 0 0 1-.317-.075l-.56-.153.02-34.254c0-11.9-4.772-16.325-17.607-16.325-7.233 0-12.396 1.359-15.453 2.497l-.793.294v3.957l1.644-.604c2.287-.838 7.154-2.244 14.069-2.244m-3.776 53.617C74.129 226.743 64 220.886 64 207.8c0-13.143 10.397-15.727 19.456-16.51l17.056-1.468v-3.637c0-9.393-2.349-11.553-12.567-11.553-6.675 0-11.344 1.347-13.533 2.148l-3.712 1.367v-7.17l1.782-.663c3.177-1.182 8.531-2.594 15.996-2.594 13.594 0 19.139 5.167 19.139 17.832l-.017 33.025 6.603.476v5.928l-8.818.433h-.002c-2.414 0-4.396-1.7-4.754-3.916-3.594 2.233-9.698 5.245-16.46 5.245zM395.267 196.657c0 8.729-2.545 23.37-19.592 23.37-6.106 0-10.598-1.36-13.727-4.155-1.083-.966-1.704-2.417-1.704-3.979v-30.437c0-1.594.633-3.056 1.74-4.012 3.126-2.703 7.606-4.016 13.691-4.016 13.184 0 19.592 7.6 19.592 23.23m-19.592-28.52c-6.441 0-11.516 1.293-15.43 3.941v-19.85c0-2.036-1.688-3.693-3.818-3.693h-.002l-7.537.367v4.16l5.907.423.138.027-.002 70.728h4.572l.362-3.215c3.97 2.883 9.167 4.29 15.81 4.29 15.851 0 24.943-10.445 24.943-28.659 0-18.657-8.626-28.518-24.943-28.518"/><path fill="#525252" d="M375.675 174.181c-5.892 0-10.206 1.253-13.186 3.829-.94.811-1.479 2.068-1.479 3.446v30.437c0 1.35.53 2.597 1.453 3.422 2.98 2.664 7.303 3.958 13.212 3.958 16.38 0 18.826-14.17 18.826-22.616 0-15.124-6.158-22.476-18.826-22.476m0 46.598c-6.307 0-10.966-1.423-14.243-4.35-1.241-1.108-1.954-2.762-1.954-4.536v-30.437c0-1.81.729-3.48 1.999-4.577 3.273-2.83 7.917-4.204 14.198-4.204 13.699 0 20.358 7.845 20.358 23.982 0 20.989-12.755 24.122-20.358 24.122m-16.426-1.136 1.07.777c3.839 2.788 8.863 4.143 15.356 4.143 15.365 0 24.177-10.17 24.177-27.906 0-18.164-8.36-27.766-24.177-27.766-6.304 0-11.21 1.246-14.996 3.808l-1.2.813v-21.284c0-1.621-1.37-2.94-3.052-2.94l-6.773.33v2.743l5.451.418.594.135-.002 70.574h3.12zm16.426 6.426c-6.252 0-11.238-1.215-15.19-3.71l-.297 2.635h-6.023l.002-70.801-6.045-.431v-5.575l8.264-.404h.002c2.568 0 4.622 1.994 4.622 4.445v18.48c3.863-2.234 8.677-3.322 14.665-3.322 16.82 0 25.71 10.121 25.71 29.271 0 18.692-9.372 29.412-25.71 29.412M573.25 220.192c-3.613 0-4.122-.201-10.222-7.211l-16.098-18.599 19.565-18.121c1.922-1.808 1.922-1.808 6.703-2.36l1.94-.226v-4.507H555.01v4.497l6.003.478-18.533 17.152c-.073.054-.393.156-.832.156h-4.562l-.008-39.158c0-2.08-1.842-3.836-4.077-3.836H533l-8.083.388v4.274l6.335.444q.179.034.286.064l-.003 65.528q0 .016.002.035l-.075.02-6.532.48v4.632h18.778v-4.634l-6.344-.451a4 4 0 0 1-.277-.062q.002-.035.003-.075l-.003-22.306h4.393c.3 0 .582.128.775.352l16.383 19.012c5.538 6.446 8.211 9.07 12.397 9.07 1.667 0 2.785-.232 3.403-.7l.796-.583v-3.753Z"/><path fill="#525252" d="M536.32 196.041h5.16c.525 0 1.02.225 1.36.619l16.381 19.01c5.377 6.257 7.95 8.805 11.812 8.805 1.834 0 2.61-.295 2.936-.544l.498-.364v-2.622h-1.217c-4.018 0-4.725-.49-10.804-7.474l-16.571-19.146 20.094-18.613c2.104-1.978 2.293-2 7.14-2.559l1.264-.147v-3.085h-18.597v3.05l7.017.558-19.788 18.313c-.37.281-.952.362-1.357.362h-5.328l-.008-39.911c0-1.67-1.517-3.083-3.311-3.083l-7.318.352v2.856l5.623.394c.232.038.347.066.434.089l.564.152-.004 66.102.105.673-.887.132-5.823.429v3.18h17.245v-3.18l-5.73-.413a7 7 0 0 1-.321-.073l-.617-.16.049-.626zm34.713 29.94c-4.51 0-7.28-2.702-12.982-9.337l-16.381-19.011a.25.25 0 0 0-.19-.086h-3.628l.003 20.971 6.618.47v6.087h-20.31v-6.083l6.606-.486.003-64.226-6.62-.46v-5.692l8.81-.423h.002c2.663 0 4.88 2.101 4.88 4.588l.009 38.405h3.797c.19 0 .338-.027.415-.046l17.168-15.895-4.989-.398v-5.944h21.662v5.93l-2.617.304c-4.527.523-4.527.523-6.264 2.156l-19.04 17.635 15.627 18.054c6.045 6.945 6.385 6.945 9.639 6.945H576v4.884l-1.104.808c-.763.578-1.992.85-3.862.85zM140.544 193.028c-9.837-2.854-13.323-5.47-13.323-9.993 0-2.142 1.064-4.322 2.918-5.977 1.626-1.453 4.654-3.184 9.845-3.184 3.687 0 7.242.894 10.565 2.66.74.391 1.132.881 1.172 1.45l.503 7.761h4.947l.326-15.022h-4.636l-.132.406c-2.529-1.252-6.853-2.804-12.745-2.804-8.877 0-18.311 5.156-18.311 14.71 0 8.739 6.65 12.376 17.379 15.415 8.606 2.448 15.73 4.975 15.73 11.112 0 5.601-6.303 10.158-14.05 10.158-4.215 0-8.014-1.029-11.295-3.056a5.75 5.75 0 0 1-2.584-3.71l-1.098-5.258h-4.89l1.074 16.47 4.522.05.256-1.576q.09-.586.162-1.078c3.24 1.853 7.956 3.705 13.853 3.705 10.989 0 19.596-6.9 19.596-15.705 0-10.61-9.572-13.476-19.784-16.534"/><path fill="#525252" d="m126.282 220.35.982.561c2.874 1.644 7.544 3.603 13.468 3.603 10.56 0 18.83-6.568 18.83-14.952 0-10.052-8.915-12.722-19.239-15.812-10.238-2.973-13.868-5.776-13.868-10.715 0-2.354 1.155-4.736 3.168-6.535 1.726-1.542 4.925-3.38 10.361-3.38 3.818 0 7.495.926 10.929 2.751 1.227.65 1.532 1.48 1.571 2.062l.459 7.06h3.478l.293-13.517h-3.294l-.235.722-.8-.398c-2.51-1.242-6.698-2.722-12.4-2.722-8.507 0-17.546 4.891-17.546 13.957 0 8.267 6.438 11.75 16.825 14.692 8.91 2.534 16.284 5.174 16.284 11.835 0 6.016-6.647 10.91-14.816 10.91-4.36 0-8.298-1.067-11.702-3.172a6.5 6.5 0 0 1-2.927-4.195l-.972-4.656h-3.45l.977 14.972 3.15.035zm14.45 5.67c-5.63 0-10.187-1.672-13.257-3.272v.004l-.361 2.225-5.894-.066-1.172-17.968h6.332l1.223 5.86a4.99 4.99 0 0 0 2.24 3.222c3.158 1.952 6.822 2.942 10.889 2.942 7.325 0 13.284-4.22 13.284-9.405 0-5.614-6.873-8.026-15.177-10.389-11.07-3.135-17.932-6.928-17.932-16.138 0-10.044 9.83-15.463 19.077-15.463 5.432 0 9.575 1.284 12.283 2.503l.034-.105h5.978l-.358 16.528h-6.417l-.548-8.466c-.02-.294-.28-.575-.77-.836-3.21-1.705-6.642-2.57-10.202-2.57-4.946 0-7.804 1.625-9.33 2.988-1.695 1.514-2.667 3.49-2.667 5.421 0 4.108 3.343 6.535 12.773 9.27l.007.003c10.454 3.13 20.328 6.086 20.328 17.254 0 9.229-8.945 16.458-20.363 16.458zM216.142 219.118l.002-.075.009-33.843c0-6.02-1.13-9.9-3.656-12.578-2.85-3.02-7.424-4.426-14.392-4.426-8.614 0-14.487 2.485-18.223 5.003v-.548c0-2.094-1.75-3.798-3.953-3.798h-.004l-7.847.396v4.24l6.153.44q.098.018.17.036l-.087 45.133.001.035-.073.02-6.534.48v4.63h18.779v-4.632l-6.343-.452a3 3 0 0 1-.278-.063q0-.033.003-.073v-36.266c0-1.664.79-3.215 2.164-4.255 4.465-3.38 9.572-4.953 16.072-4.953 10.474 0 12.326 2.86 12.474 11.987l.011 33.544q0 .016.002.033l-.073.019-6.533.48v4.631h18.778v-4.632l-6.353-.453a4 4 0 0 1-.27-.06"/><path fill="#525252" d="M204.752 223.51h17.246v-3.178l-5.733-.415a6 6 0 0 1-.324-.072l-.61-.163.047-.617.008-33.865c0-5.815-1.064-9.537-3.45-12.066-2.697-2.856-7.091-4.185-13.831-4.185-8.73 0-14.493 2.648-17.79 4.87l-1.2.81v-1.978c0-1.679-1.429-3.045-3.187-3.045l-7.084.358v2.826l5.54.4q.119.023.205.045l.58.143-.088 45.722.066.608-.847.195-5.825.428v3.18h17.245v-3.18l-5.632-.4a4 4 0 0 1-.438-.093l-.586-.17.037-.597.002-36.294c0-1.9.899-3.669 2.463-4.851 4.606-3.486 9.86-5.11 16.539-5.11 11.064 0 13.087 3.335 13.24 12.728l.011 33.516.1.592-.88.251-5.824.428zm18.779 1.506h-20.31v-6.082l6.603-.486-.011-32.892c-.142-8.7-1.695-11.234-11.708-11.234-6.322 0-11.28 1.525-15.604 4.796-1.185.897-1.865 2.23-1.865 3.659l-.002 35.687 6.618.467v6.085h-20.31v-6.082l6.608-.486.084-43.807-6.322-.451v-5.657l8.574-.432h.002c2.36 0 4.299 1.626 4.688 3.76 3.598-2.16 9.324-4.418 17.529-4.418 7.195 0 11.948 1.483 14.953 4.667 2.67 2.829 3.86 6.866 3.86 13.09l-.007 33.26 6.62.471zM512.225 219.118l.003-.075.008-33.843c0-6.02-1.128-9.9-3.655-12.578-2.85-3.02-7.425-4.426-14.392-4.426-8.614 0-14.487 2.485-18.223 5.003v-.548c0-2.094-1.75-3.798-3.953-3.798h-.003l-7.848.396v4.24l6.153.44q.097.018.17.035l-.087 45.134q0 .016.002.035l-.075.02-6.532.48v4.63h18.777v-4.632l-6.342-.452a3 3 0 0 1-.279-.063l.004-.073v-36.266c0-1.664.789-3.215 2.164-4.255 4.465-3.38 9.572-4.953 16.072-4.953 10.473 0 12.326 2.86 12.474 11.987l.012 33.544q0 .016.002.033-.036.009-.075.019l-6.531.48v4.631h18.778v-4.632l-6.353-.453a4 4 0 0 1-.27-.06"/><path fill="#525252" d="M500.836 223.51h17.245v-3.178l-5.642-.403a5 5 0 0 1-.415-.085l-.592-.158.029-.61.765.035-.765-.05.009-33.86c0-5.817-1.065-9.539-3.451-12.067-2.696-2.856-7.09-4.185-13.83-4.185-8.73 0-14.493 2.649-17.79 4.87l-1.2.81v-1.978c0-1.679-1.43-3.045-3.187-3.045l-7.085.358v2.826l5.724.439.6.132-.087 45.739.07.642-.852.161-5.824.428v3.18h17.246v-3.18l-5.632-.4a4 4 0 0 1-.44-.093l-.585-.17.037-.597.004-36.294c0-1.9.897-3.669 2.462-4.851 4.606-3.486 9.86-5.11 16.539-5.11 11.064 0 13.087 3.335 13.24 12.728l.012 33.557.083.655-.865.147-5.823.428zm18.777 1.506h-20.31v-6.082l6.605-.486-.012-32.892c-.141-8.7-1.696-11.234-11.708-11.234-6.322 0-11.28 1.525-15.604 4.797-1.186.896-1.865 2.23-1.865 3.658l-.002 35.687 6.618.467v6.085h-20.31v-6.082l6.608-.486.082-43.807-6.32-.451v-5.657l8.575-.432h.001c2.36 0 4.3 1.626 4.689 3.76 3.597-2.16 9.324-4.418 17.528-4.418 7.195 0 11.948 1.483 14.953 4.667 2.67 2.828 3.86 6.866 3.86 13.09l-.008 33.264 6.619.467z"/><path fill="#ef533d" d="M255.153 187.574a31.4 31.4 0 0 1 2.944-8.096c.792-1.496 1.426-3.073 1.79-4.72.166-.748.285-1.519.285-2.193 0-6.85-5.65-12.404-12.62-12.404-5.254 0-9.756 3.155-11.656 7.642a27.3 27.3 0 0 1-.856-7.003c.108-15.293 12.664-27.544 28.226-27.543 15.122 0 27.467 11.692 28.188 26.381.308 6.278-1.952 12.047-5.391 17.252-4.496 6.803-9.594 13.17-9.594 21.677 0 12.322 8.194 22.763 19.516 26.35a33 33 0 0 1-9.445 1.24c-17.179-.222-31.348-13.745-32.06-30.617-.115-2.742.125-5.41.673-7.966M304.6 173.421c0-1.496-1.234-2.707-2.756-2.707s-2.756 1.211-2.756 2.707 1.235 2.708 2.756 2.708c1.522 0 2.755-1.212 2.755-2.708"/><path fill="#e95540" d="M300.76 144.604q-.008.044-.012.089.02-.042.042-.085z"/><path fill="#ef533d" d="M312.674 205.41c-.244-4.747 2.554-8.946 6.709-10.794 0-.038.004-.077.004-.115a19 19 0 0 0-3.6-.343c-10.337 0-18.718 8.237-18.718 18.397 0 3.971 1.285 7.644 3.461 10.65a32.5 32.5 0 0 0 14.004-12.214 11.04 11.04 0 0 1-1.86-5.58M316.596 161.865a15.967 15.967 0 0 0-1.136-14.056 20.9 20.9 0 0 1-4.37 10.121c-.052.082-.1.168-.154.248a63 63 0 0 0-3.208-1.533c-.852-.429-1.61-.88-2.294-1.352-2.882-1.643-5.047-4.363-5.92-7.603a19 19 0 0 0-.835 5.578c0 6.41 3.186 12.09 8.087 15.59l.052.035a32 32 0 0 1 2.895 2.442 31.9 31.9 0 0 1 8.076 12.596 17.6 17.6 0 0 0 3.57-10.634c0-5.027-1.388-8.485-4.763-11.432"/></g></svg>