<svg xmlns="http://www.w3.org/2000/svg" xml:space="preserve" id="Laag_1" x="0" y="0" version="1.1" viewBox="0 0 171.61 171.03"><style>.st0{fill:#e84632}</style><path d="M57.08 95.49c.76-3.62 2.01-7.07 3.67-10.27.99-1.9 1.78-3.9 2.23-5.99.21-.95.35-1.92.35-2.78 0-8.69-7.05-15.73-15.73-15.73-6.55 0-12.16 4-14.53 9.69-.72-2.84-1.09-5.81-1.07-8.88.13-19.4 15.78-34.94 35.18-34.94 18.85 0 34.24 14.82 35.14 33.45.39 7.96-2.43 15.28-6.72 21.88-5.6 8.63-11.96 16.71-11.95 27.49 0 15.63 10.22 28.87 24.33 33.42a40.5 40.5 0 0 1-11.77 1.57c-21.41-.28-39.08-17.43-39.97-38.83-.14-3.45.16-6.84.84-10.08" class="st0"/><circle cx="115.28" cy="77.53" r="3.43" class="st0"/><path d="M128.79 118.1c-.3-6.02 3.18-11.35 8.36-13.69v-.15c-1.45-.28-2.95-.43-4.49-.43-12.89 0-23.33 10.45-23.33 23.34 0 5.04 1.6 9.69 4.32 13.51 7.23-3.35 13.29-8.77 17.46-15.5a14.1 14.1 0 0 1-2.32-7.08M133.67 62.87c.9-2.32 1.39-4.83 1.39-7.46 0-3.78-1.04-7.31-2.81-10.36-.67 4.81-2.6 9.2-5.45 12.84-.07.1-.12.21-.19.31-1.23-.65-2.56-1.29-4-1.94-1.06-.54-2.01-1.12-2.86-1.71a15.87 15.87 0 0 1-7.38-9.64c-.68 2.24-1.04 4.61-1.04 7.07 0 8.13 3.97 15.33 10.08 19.77l.06.04c1.26.97 2.47 1.98 3.61 3.1 4.51 4.41 8 9.87 10.07 15.97 2.12-2.86 3.58-6.23 4.16-9.9.19-1.17.29-2.37.29-3.59.01-6.37-1.73-10.76-5.93-14.5" class="st0"/></svg>