<?xml version="1.0" encoding="UTF-8"?>
<svg width="640px" height="360px" viewBox="0 0 640 360" xmlns="http://www.w3.org/2000/svg" xmlns:xlink="http://www.w3.org/1999/xlink" version="1.1">
 <!-- Generated by Pixelmator Pro 2.3 -->
 <g id="BLIK">
  <path id="Path" d="M545.741 59 L93.491 59 C77.008 59.01 63.643 72.363 63.618 88.847 L63.618 271.419 C63.645 287.901 77.008 301.251 93.491 301.262 L545.741 301.262 C562.224 301.251 575.589 287.902 575.618 271.419 L575.618 88.847 C575.592 72.363 562.226 59.011 545.742 59 Z" fill="#ffffff" fill-opacity="1" stroke="none"/>
  <defs>
   <linearGradient id="linear-gradient" gradientUnits="userSpaceOnUse" x1="-118.305" y1="-121.277" x2="-118.305" y2="-125.01">
    <stop offset="0" stop-color="#5a5a5a" stop-opacity="1"/>
    <stop offset="0.146" stop-color="#484848" stop-opacity="1"/>
    <stop offset="0.52" stop-color="#212121" stop-opacity="1"/>
    <stop offset="0.817" stop-color="#080808" stop-opacity="1"/>
    <stop offset="1" stop-color="#000000" stop-opacity="1"/>
   </linearGradient>
  </defs>
  <path id="Path-1" d="M545.741 62.122 L93.491 62.122 C78.725 62.113 66.748 74.077 66.74 88.843 L66.74 271.419 C66.743 278.507 69.564 285.306 74.58 290.317 79.597 295.328 86.399 298.141 93.489 298.136 L545.741 298.136 C552.831 298.14 559.632 295.328 564.649 290.317 569.665 285.307 572.485 278.509 572.489 271.419 L572.489 88.843 C572.482 74.08 560.508 62.117 545.743 62.122 Z" fill-opacity="1" fill="url(#linear-gradient)" stroke="none"/>
  <path id="Path-2" d="M464.8 266.712 L503.325 266.712 457.039 206.932 499.01 155.565 464.068 155.565 422.851 207.252 422.851 97.03 392.937 97.03 392.937 266.712 422.851 266.712 422.829 207.396 Z" fill="#ffffff" fill-opacity="1" stroke="none"/>
  <path id="Path-3" d="M336.508 155.557 L366.415 155.557 366.415 266.704 336.508 266.704 Z" fill="#ffffff" fill-opacity="1" stroke="none"/>
  <path id="Path-4" d="M280.061 97.008 L309.968 97.008 309.968 266.704 280.061 266.704 Z" fill="#ffffff" fill-opacity="1" stroke="none"/>
  <path id="Path-5" d="M202.305 154.448 C192.942 154.434 183.722 156.749 175.475 161.182 L175.475 97.011 145.564 97.011 145.564 211.167 C145.564 234.129 159.387 254.817 180.588 263.598 201.789 272.379 226.192 267.524 242.418 251.296 258.643 235.069 263.495 210.665 254.711 189.465 245.927 168.266 225.238 154.445 202.29 154.448 Z M202.305 238.473 C187.227 238.473 175.004 226.25 175.003 211.172 175.002 196.093 187.225 183.869 202.303 183.868 217.381 183.867 229.606 196.088 229.608 211.167 229.611 218.411 226.735 225.357 221.613 230.479 216.492 235.6 209.546 238.476 202.304 238.473 Z" fill="#ffffff" fill-opacity="1" stroke="none"/>
  <defs>
   <linearGradient id="linear-gradient-1" gradientUnits="userSpaceOnUse" x1="205.903" y1="141.213" x2="208.592" y2="138.562">
    <stop offset="0" stop-color="#e52f08" stop-opacity="1"/>
    <stop offset="1" stop-color="#e94f96" stop-opacity="1"/>
   </linearGradient>
  </defs>
  <path id="Path-6" d="M232.45 88.429 C247.226 88.525 259.127 100.581 259.031 115.357 258.935 130.134 246.879 142.034 232.103 141.938 217.326 141.842 205.426 129.786 205.522 115.01 205.618 100.234 217.674 88.333 232.45 88.429 Z" fill-opacity="1" fill="url(#linear-gradient-1)" stroke="none"/>
 </g>
</svg>
