<svg height="360" viewBox="0 0 640 360" width="640" xmlns="http://www.w3.org/2000/svg" xmlns:xlink="http://www.w3.org/1999/xlink"><linearGradient id="a" gradientUnits="userSpaceOnUse" x1="-118.305" x2="-118.305" y1="-121.277" y2="-125.01"><stop offset="0" stop-color="#5a5a5a"/><stop offset=".146" stop-color="#484848"/><stop offset=".52" stop-color="#212121"/><stop offset=".817" stop-color="#080808"/><stop offset="1"/></linearGradient><linearGradient id="b" gradientUnits="userSpaceOnUse" x1="205.903" x2="208.592" y1="141.213" y2="138.562"><stop offset="0" stop-color="#e52f08"/><stop offset="1" stop-color="#e94f96"/></linearGradient><path d="m545.741 59h-452.25c-16.483.01-29.848 13.363-29.873 29.847v182.572c.027 16.482 13.39 29.832 29.873 29.843h452.25c16.483-.011 29.848-13.36 29.877-29.843v-182.572c-.026-16.484-13.392-29.836-29.876-29.847z" fill="#fff"/><path d="m545.741 62.122h-452.25c-14.766-.009-26.743 11.955-26.751 26.721v182.576c.003 7.088 2.824 13.887 7.84 18.898 5.017 5.011 11.819 7.824 18.909 7.819h452.252c7.09.004 13.891-2.808 18.908-7.819 5.016-5.01 7.836-11.808 7.84-18.898v-182.576c-.007-14.763-11.981-26.726-26.746-26.721z" fill="url(#a)"/><g fill="#fff"><path d="m464.8 266.712h38.525l-46.286-59.78 41.971-51.367h-34.942l-41.217 51.687v-110.222h-29.914v169.682h29.914l-.022-59.316z"/><path d="m336.508 155.557h29.907v111.147h-29.907z"/><path d="m280.061 97.008h29.907v169.696h-29.907z"/><path d="m202.305 154.448c-9.363-.014-18.583 2.301-26.83 6.734v-64.171h-29.911v114.156c0 22.962 13.823 43.65 35.024 52.431s45.604 3.926 61.83-12.302c16.225-16.227 21.077-40.631 12.293-61.831-8.784-21.199-29.473-35.02-52.421-35.017zm0 84.025c-15.078 0-27.301-12.223-27.302-27.301-.001-15.079 12.222-27.303 27.3-27.304s27.303 12.22 27.305 27.299c.003 7.244-2.873 14.19-7.995 19.312-5.121 5.121-12.067 7.997-19.309 7.994z"/></g><path d="m232.45 88.429c14.776.096 26.677 12.152 26.581 26.928-.096 14.777-12.152 26.677-26.928 26.581-14.777-.096-26.677-12.152-26.581-26.928s12.152-26.677 26.928-26.581z" fill="url(#b)"/></svg>