<?xml version="1.0" encoding="UTF-8"?>
<svg width="51px" height="32px" viewBox="0 0 51 32" xmlns="http://www.w3.org/2000/svg" xmlns:xlink="http://www.w3.org/1999/xlink" version="1.1">
 <!-- Generated by Pixelmator Pro 2.3 -->
 <g id="group">
  <path id="Path" d="M0.5 0.5 L50.5 0.5 50.5 31.5 0.5 31.5 Z" fill="#ffffff" fill-opacity="1" stroke="#d0d0d0" stroke-width="1" stroke-opacity="1" stroke-linejoin="round" stroke-linecap="round"/>
  <g id="BLIK">
   <path id="Path-1" d="M36.239 10.434 L15.039 10.434 C14.267 10.434 13.64 11.06 13.639 11.833 L13.639 20.391 C13.64 21.164 14.267 21.789 15.039 21.79 L36.239 21.79 C37.011 21.789 37.638 21.164 37.639 20.391 L37.639 11.833 C37.638 11.06 37.011 10.434 36.239 10.434 Z" fill="#ffffff" fill-opacity="1" stroke="none"/>
   <defs>
    <linearGradient id="linear-gradient" gradientUnits="userSpaceOnUse" x1="5.111" y1="1.983" x2="5.111" y2="1.808">
     <stop offset="0" stop-color="#5a5a5a" stop-opacity="1"/>
     <stop offset="0.146" stop-color="#484848" stop-opacity="1"/>
     <stop offset="0.52" stop-color="#212121" stop-opacity="1"/>
     <stop offset="0.817" stop-color="#080808" stop-opacity="1"/>
     <stop offset="1" stop-color="#000000" stop-opacity="1"/>
    </linearGradient>
   </defs>
   <path id="Path-2" d="M36.239 10.58 L15.039 10.58 C14.347 10.58 13.786 11.141 13.785 11.833 L13.785 20.391 C13.786 20.723 13.918 21.042 14.153 21.277 14.388 21.512 14.707 21.644 15.039 21.643 L36.239 21.643 C36.571 21.644 36.89 21.512 37.125 21.277 37.36 21.042 37.492 20.723 37.492 20.391 L37.492 11.833 C37.492 11.141 36.931 10.58 36.239 10.58 Z" fill-opacity="1" fill="url(#linear-gradient)" stroke="none"/>
   <path id="Path-3" d="M32.444 20.17 L34.25 20.17 32.081 17.368 34.048 14.96 32.41 14.96 30.478 17.383 30.478 12.217 29.076 12.217 29.076 20.17 30.478 20.17 30.477 17.39 Z" fill="#ffffff" fill-opacity="1" stroke="none"/>
   <path id="Path-4" d="M26.431 14.96 L27.833 14.96 27.833 20.17 26.431 20.17 Z" fill="#ffffff" fill-opacity="1" stroke="none"/>
   <path id="Path-5" d="M23.785 12.216 L25.187 12.216 25.187 20.17 23.785 20.17 Z" fill="#ffffff" fill-opacity="1" stroke="none"/>
   <path id="Path-6" d="M20.14 14.908 C19.701 14.907 19.269 15.016 18.882 15.224 L18.882 12.216 17.48 12.216 17.48 17.567 C17.48 18.643 18.128 19.613 19.122 20.024 20.116 20.436 21.26 20.208 22.02 19.448 22.781 18.687 23.008 17.543 22.596 16.549 22.185 15.556 21.215 14.908 20.139 14.908 Z M20.14 18.847 C19.433 18.847 18.86 18.274 18.86 17.567 18.86 16.86 19.433 16.287 20.14 16.287 20.847 16.287 21.42 16.86 21.42 17.567 21.42 17.906 21.285 18.232 21.045 18.472 20.805 18.712 20.479 18.847 20.14 18.847 Z" fill="#ffffff" fill-opacity="1" stroke="none"/>
   <defs>
    <linearGradient id="linear-gradient-1" gradientUnits="userSpaceOnUse" x1="20.309" y1="14.288" x2="20.435" y2="14.163">
     <stop offset="0" stop-color="#e52f08" stop-opacity="1"/>
     <stop offset="1" stop-color="#e94f96" stop-opacity="1"/>
    </linearGradient>
   </defs>
   <path id="Path-7" d="M21.553 11.813 C22.246 11.818 22.803 12.383 22.799 13.076 22.794 13.768 22.229 14.326 21.537 14.322 20.844 14.317 20.286 13.752 20.291 13.059 20.295 12.367 20.86 11.809 21.553 11.813 Z" fill-opacity="1" fill="url(#linear-gradient-1)" stroke="none"/>
  </g>
 </g>
</svg>
