<svg height="32" viewBox="0 0 51 32" width="51" xmlns="http://www.w3.org/2000/svg" xmlns:xlink="http://www.w3.org/1999/xlink"><linearGradient id="a" gradientUnits="userSpaceOnUse" x1="5.111" x2="5.111" y1="1.983" y2="1.808"><stop offset="0" stop-color="#5a5a5a"/><stop offset=".146" stop-color="#484848"/><stop offset=".52" stop-color="#212121"/><stop offset=".817" stop-color="#080808"/><stop offset="1"/></linearGradient><linearGradient id="b" gradientUnits="userSpaceOnUse" x1="20.309" x2="20.435" y1="14.288" y2="14.163"><stop offset="0" stop-color="#e52f08"/><stop offset="1" stop-color="#e94f96"/></linearGradient><path d="m.5.5h50v31h-50z" fill="#fff" stroke="#d0d0d0" stroke-linecap="round" stroke-linejoin="round"/><path d="m36.239 10.434h-21.2c-.772 0-1.399.626-1.4 1.399v8.558c.001.773.628 1.398 1.4 1.399h21.2c.772-.001 1.399-.626 1.4-1.399v-8.558c-.001-.773-.628-1.399-1.4-1.399z" fill="#fff"/><path d="m36.239 10.58h-21.2c-.692 0-1.253.561-1.254 1.253v8.558c.001.332.133.651.368.886s.554.367.886.366h21.2c.332.001.651-.131.886-.366s.367-.554.367-.886v-8.558c0-.692-.561-1.253-1.253-1.253z" fill="url(#a)"/><g fill="#fff"><path d="m32.444 20.17h1.806l-2.169-2.802 1.967-2.408h-1.638l-1.932 2.423v-5.166h-1.402v7.953h1.402l-.001-2.78z"/><path d="m26.431 14.96h1.402v5.21h-1.402z"/><path d="m23.785 12.216h1.402v7.954h-1.402z"/><path d="m20.14 14.908c-.439-.001-.871.108-1.258.316v-3.008h-1.402v5.351c0 1.076.648 2.046 1.642 2.457.994.412 2.138.184 2.898-.576.761-.761.988-1.905.576-2.899-.411-.993-1.381-1.641-2.457-1.641zm0 3.939c-.707 0-1.28-.573-1.28-1.28s.573-1.28 1.28-1.28 1.28.573 1.28 1.28c0 .339-.135.665-.375.905s-.566.375-.905.375z"/></g><path d="m21.553 11.813c.693.005 1.25.57 1.246 1.263-.005.692-.57 1.25-1.262 1.246-.693-.005-1.251-.57-1.246-1.263.004-.692.569-1.25 1.262-1.246z" fill="url(#b)"/></svg>