<svg xmlns="http://www.w3.org/2000/svg" width="640" height="360"><g fill="none" fill-rule="evenodd"><path fill="#CD2073" d="M459.35 188.57v31.354h-51.57a76.025 76.025 0 001.744-4.11 84.406 84.406 0 003.36-10.658h31.698V188.57h14.769zm0-48.863v31.351h-14.768v-16.582h-31.708a85.178 85.178 0 00-5.082-14.77h51.559zM359.153 260.906v58.602h-79.047v-14.77h20.397v-38.575h14.769v38.576h29.112v-40.411a111.52 111.52 0 0014.769-3.422zm100.199-22.854v81.456h-81.772V278.78h14.769v25.959h52.234V252.82h-19.323v25.959h-14.772V252.82h-32.592v-.03a75.505 75.505 0 0012.337-8.935 70.816 70.816 0 005.779-5.804h63.34z"/><path fill="#CD2073" fill-rule="nonzero" d="M180 139.707h39.928v14.769H180z"/><path fill="#CD2073" d="M219.928 205.158v14.766H180v-49.168h14.766v34.402z"/><path fill="#000" fill-rule="nonzero" d="M246.614 266.163v38.576h-51.845v-51.918h25.159v-14.769H180v81.456h81.383v-53.345z"/><path fill="#000" fill-rule="nonzero" d="M208.439 266.489h24.58v24.58h-24.58zM233.019 68.44v24.579H208.44V68.44z"/><path fill="#000" fill-rule="nonzero" d="M180 40v81.458h39.928v-14.769h-25.159V54.772h51.845v38.573h14.769V40zM377.144 40h1v14.772h-1zM430.912 68.441V93.02h-24.579V68.441z"/><path fill="#000" fill-rule="nonzero" d="M377.22 40v66.213a73.203 73.203 0 0118.836 15.245h62.546V40H377.22zm66.61 66.69h-51.842V54.771h51.842v51.917z"/><path fill="#CD2073" d="M359.152 40v58.523a112.167 112.167 0 00-14.769-3.377V54.772h-64.278V40h79.047z"/><path fill="#CD2073" fill-rule="nonzero" d="M300.502 68.491h14.769v24.854h-14.769z"/><path fill="#FFF" d="M395.67 179.584c0 43.788-26.45 66.439-75.08 66.439h-80.522v-132.54h80.523c46.407 0 75.079 21.103 75.079 66.101z"/><path fill="#000" fill-rule="nonzero" d="M320.59 106.605h-87.402v146.298h87.403c52.853 0 81.956-26.037 81.956-73.319 0-27.25-10.646-72.979-81.956-72.979zm-80.522 139.418v-132.54h80.523c46.407 0 75.079 21.103 75.079 66.1 0 43.788-26.45 66.44-75.08 66.44h-80.522z"/><path fill="#0A0C0B" d="M251.157 235.487h25.778v-45.89h-25.778zM280.03 166.499a16.021 16.021 0 11-16.02-16.02c8.848 0 16.02 7.173 16.02 16.02z"/><path fill="#D50A73" d="M289.747 159.035v14.955h4.59c3.181 0 6.119-.919 6.119-7.595 0-6.524-3.269-7.36-6.118-7.36h-4.59zm76.575-7.438h7.425v22.393h11.004c-3.018-40.633-34.983-49.412-64.03-49.412h-30.967v27.034h4.584a13.179 13.179 0 0113.55 14.783c0 9.406-5.068 15.02-13.55 15.02h-4.584v54.094h30.968c47.225 0 63.66-21.93 64.24-54.094h-18.64v-29.818zm-20.689 16.638h5.372l-2.456-8.43h-.446l-2.47 8.43zm-11.587 13.189l8.992-29.829h10.564l8.99 29.829h-7.73l-1.686-5.77h-9.713l-1.69 5.77h-7.727zm-3.566-7.434v7.425h-18.37v-29.807h17.777v7.422h-10.35v3.455h9.788v7.42h-9.789v4.086h10.944z"/></g></svg>