<svg xmlns="http://www.w3.org/2000/svg" width="51" height="32"><g fill="none" fill-rule="evenodd"><path fill="#FFF" stroke="#D0D0D0" d="M.5.5h50v31H.5z"/><path fill="#CD2073" d="M37.944 16.735v2.687h-4.42a7.235 7.235 0 00.437-1.266h2.717v-1.421h1.266zm0-4.189v2.688h-1.266v-1.422h-2.717a7.3 7.3 0 00-.436-1.266h4.42zm-8.588 10.389v5.023H22.58v-1.266h1.749v-3.307h1.266v3.307h2.495v-3.464a9.559 9.559 0 001.266-.293zm8.588-1.96v6.983h-7.009v-3.491h1.266v2.225h4.477v-4.45h-1.656v2.225h-1.266v-2.225h-2.794v-.003a6.472 6.472 0 001.058-.766 6.07 6.07 0 00.495-.497h5.43z"/><path fill="#CD2073" fill-rule="nonzero" d="M14 12.546h3.422v1.266H14z"/><path fill="#CD2073" d="M17.422 18.156v1.266H14v-4.214h1.266v2.948z"/><path fill="#000" fill-rule="nonzero" d="M19.71 23.385v3.307h-4.444v-4.45h2.156v-1.266H14v6.982h6.976v-4.573z"/><path fill="#000" fill-rule="nonzero" d="M16.438 23.413h2.107v2.107h-2.107zM18.544 6.438v2.106h-2.106V6.438z"/><path fill="#000" fill-rule="nonzero" d="M14 4v6.982h3.422V9.716h-2.156v-4.45h4.444v3.306h1.266V4zM30.898 4h1v1.266h-1zM35.506 6.438v2.107H33.4V6.438z"/><path fill="#000" fill-rule="nonzero" d="M30.905 4v5.675a6.275 6.275 0 011.614 1.307h5.361V4h-6.975zm5.709 5.716H32.17v-4.45h4.444v4.45z"/><path fill="#CD2073" d="M29.356 4v5.016a9.614 9.614 0 00-1.266-.29v-3.46h-5.51V4h6.776z"/><path fill="#CD2073" fill-rule="nonzero" d="M24.329 6.442h1.266v2.13h-1.266z"/><path fill="#FFF" d="M32.486 15.965c0 3.753-2.267 5.695-6.435 5.695h-6.902V10.3h6.902c3.978 0 6.435 1.808 6.435 5.665z"/><path fill="#000" fill-rule="nonzero" d="M26.05 9.71h-7.49v12.54h7.49c4.531 0 7.026-2.232 7.026-6.285 0-2.336-.913-6.255-7.025-6.255zM19.15 21.66V10.3h6.902c3.978 0 6.435 1.808 6.435 5.665 0 3.753-2.267 5.695-6.435 5.695h-6.902z"/><path fill="#0A0C0B" d="M20.099 20.757h2.21v-3.934h-2.21zM22.574 14.844a1.373 1.373 0 11-2.746 0 1.373 1.373 0 012.746 0z"/><path fill="#D50A73" d="M23.407 14.204v1.282h.394c.272 0 .524-.079.524-.651 0-.56-.28-.631-.524-.631h-.394zm6.564-.638h.636v1.92h.943c-.258-3.483-2.998-4.236-5.488-4.236h-2.654v2.318h.393a1.13 1.13 0 011.16 1.267c0 .806-.433 1.287-1.16 1.287h-.393v4.637h2.654c4.048 0 5.457-1.88 5.506-4.637h-1.597v-2.556zm-1.774 1.426h.46l-.21-.722h-.038l-.212.722zm-.993 1.13l.77-2.556h.906l.77 2.557h-.662l-.144-.495h-.833l-.145.495h-.662zm-.306-.636v.636h-1.574v-2.555h1.524v.636h-.888v.297h.84v.636h-.84v.35h.938z"/></g></svg>